<svg width="1600" height="321" fill="none" xmlns="http://www.w3.org/2000/svg" viewBox="0 0 1600 321"><path fill="#F5FCFF" d="M0 0h1600v320H0z"/><g clip-path="url(#clip0)"><g opacity=".45" stroke="#fff" stroke-miterlimit="10"><path opacity=".45" d="M672.98 292.59l4.12-3.19c.64-.5 1.53-.5 2.17 0l3.04 2.35c.64.5 1.53.5 2.17 0l3.04-2.35c.64-.5 1.53-.5 2.17 0l3.04 2.35c.64.5 1.53.5 2.17 0l3.04-2.35c.64-.5 1.53-.5 2.17 0l3.03 2.35c.64.5 1.54.5 2.18-.01l4.06-3.18" stroke-width=".932"/><path opacity=".45" d="M839.231 126.51a1.35 1.35 0 1 0-.001-2.701 1.35 1.35 0 0 0 .001 2.701z" stroke-width=".717"/></g><path d="M673.24 179.78c2.2-3.62 4.87-6.37 7.6-9.2.87-.9 1.77-1.77 2.71-2.6l1.25-1.1c5.36-4.71 11.62-8.11 18.35-9.8.21-.05.43-.11.65-.16 6.34-1.44 12.72-2.29 19.31-1.75 6.71.25 13.45 1.2 20.37 2.31.89.14 1.78.25 2.67.34 2.86.27 5.54.51 8.24.37 10.74-.03 136.84-42.8 166.3-13.94 1.13 1.19 1.85 2.45 2.83 3.75 3 4.35 5.15 9.11 6.3 14.4 1.89 9.03.58 17.55-1.91 25.93-.83 2.79-3.6 9.47-2.11 18.49 2.24 13.54 10.02 24.25 14.96 37.28 7.83 20.61-7.7 40.02-26.09 43.09-2.97.6-5.77.95-8.72 1.41-14.79 1.73-27.91-5.7-41.77-10.86-8.32-2.9-47.28-3.37-54.98 1.61-16.05 9.99-30.26 21.58-47.97 26.49-2.55.82-5.13 1.54-7.72 2.14-7.77 1.81-15.66 2.54-23.36 1.71-3.08-.33-6.12-.92-9.12-1.79-33.09-8.25-61.07-39.95-59.48-78.51.29-7.01.83-13.98 2.14-20.81 1.12-5.59 2.34-11.02 4.25-16.62.66-1.72 1.16-3.32 1.84-5.02 1.09-2.74 2.25-5.16 3.46-7.16z" fill="#D6ECFF"/><path opacity=".19" d="M757.31 295.11l-7.1-2.67 7.1-2.66h78.59v5.33h-78.59z" fill="#2D7C99"/><path d="M837.381 292.166v-5.34h-78.59v5.34h78.59z" fill="#3D5473"/><path opacity=".17" d="M758.79 292.17v-2.67h78.59v2.67h-78.59z" fill="#081B33"/><path d="M751.7 289.75v-.57l7.09-2.02v4.61l-7.09-2.02z" fill="#FFD5B7"/><path d="M750.82 289.47c0-.05.04-.1.1-.11l1.99-.57v1.36l-1.99-.57c-.06-.02-.1-.06-.1-.11z" fill="#42474D"/><path opacity=".19" d="M680.441 284.29l-26.61 8.59a1.8 1.8 0 0 1-2.26-1.16l-16.36-50.73a1.8 1.8 0 0 1 1.16-2.26l26.61-8.59a1.8 1.8 0 0 1 2.26 1.16l16.37 50.73c.29.95-.23 1.96-1.17 2.26z" fill="#2D7C99"/><path d="M678.151 283.33l-26.61 8.59a1.8 1.8 0 0 1-2.26-1.16l-16.36-50.73a1.8 1.8 0 0 1 1.16-2.26l26.61-8.59a1.8 1.8 0 0 1 2.26 1.16l16.37 50.73c.29.95-.22 1.96-1.17 2.26z" fill="#48404E"/><path d="M677.471 281.929l-26.19 8.45a.53.53 0 0 1-.67-.34l-16.2-50.19a.53.53 0 0 1 .34-.67l26.19-8.45c.28-.09.58.06.67.34l16.2 50.19c.1.28-.06.58-.34.67z" fill="#48404E"/><g opacity=".36"><path opacity=".36" d="M636.411 240.859c-.12 0-.23-.08-.27-.2-.05-.15.03-.31.18-.36l5.7-1.84c.15-.05.31.03.36.18.05.15-.03.31-.18.36l-5.7 1.84c-.03.02-.06.02-.09.02zM657.43 286.44c-.12 0-.23-.08-.27-.2-.05-.15.03-.31.18-.36l12.59-4.06c.15-.05.31.03.36.18.05.15-.03.31-.18.36l-12.59 4.06c-.04.02-.06.02-.09.02zM657.531 234.05c-.12 0-.23-.08-.27-.2-.05-.15.03-.31.18-.36l2.85-.92c.15-.05.31.03.36.18.05.15-.03.31-.18.36l-2.85.92c-.03.01-.06.02-.09.02zM655.47 234.71c-.12 0-.23-.08-.27-.2-.05-.15.03-.31.18-.36l1.14-.37c.15-.05.31.03.36.18.05.15-.03.31-.18.36l-1.14.37c-.03.02-.06.02-.09.02z" fill="#fff"/></g><path opacity=".19" d="M659.881 243.04l-26.17 8.46c-.61.2-.94.85-.74 1.45l2.71 8.37c.2.61.85.94 1.45.74l20.63-6.67 2.95 1.07-.53-1.85 3.13-1.01c.61-.2.94-.85.74-1.45l-2.71-8.37c-.2-.61-.85-.94-1.46-.74z" fill="#363636"/><path d="M657.97 242.059l-26.17 8.46c-.61.2-.94.85-.74 1.45l2.71 8.37c.2.61.85.94 1.45.74l20.63-6.67 2.95 1.07-.53-1.85 3.13-1.01c.61-.2.94-.85.74-1.45l-2.71-8.37c-.2-.6-.85-.94-1.46-.74z" fill="#F2F2F2"/><path d="M638.181 256.63l-3.04-1.55.39-.75 2.22 1.14 1.84-4.34.78.33-2.19 5.17z" fill="#05BD7A"/><path d="M657.425 246.226l-14.59 4.708.212.656 14.589-4.708-.211-.656zM649.259 251.404l-5.682 1.833.212.657 5.682-1.833-.212-.657z" fill="#D4D4D4"/><path opacity=".19" d="M665.02 258.6l-26.17 8.46c-.61.2-.94.85-.74 1.45l2.71 8.37c.2.61.85.94 1.45.74l20.63-6.67 2.95 1.07-.53-1.85 3.13-1.01c.61-.2.94-.85.74-1.45l-2.71-8.37c-.2-.61-.85-.94-1.46-.74z" fill="#363636"/><path d="M663.11 257.62l-26.17 8.46c-.61.2-.94.85-.74 1.45l2.71 8.37c.2.61.85.94 1.45.74l20.63-6.67 2.95 1.07-.53-1.85 3.13-1.01c.61-.2.94-.85.74-1.45l-2.71-8.37c-.21-.6-.86-.94-1.46-.74z" fill="#F2F2F2"/><path d="M643.31 272.19l-3.03-1.55.38-.75 2.23 1.14 1.83-4.34.78.33-2.19 5.17z" fill="#05BD7A"/><path d="M662.563 261.785l-14.589 4.708.212.657 14.589-4.708-.212-.657zM654.397 266.963l-5.681 1.834.212.657 5.681-1.834-.212-.657z" fill="#D4D4D4"/><g opacity=".19"><g opacity=".19"><path opacity=".19" d="M653.15 206.6c-.3 0-.6-.15-.79-.42a.94.94 0 0 1 .26-1.31l38.48-25.84 12.7 2.1c.52.09.86.57.78 1.09-.08.52-.56.86-1.08.78l-11.96-1.98-37.86 25.42a.94.94 0 0 1-.53.16z" fill="#2D7C99"/><path opacity=".19" d="M657.931 213.72c-.07 0-.14-.01-.21-.02a.94.94 0 0 1-.71-1.13l2.86-12.56 38.48-25.85a.94.94 0 0 1 1.31.26.94.94 0 0 1-.26 1.31l-37.85 25.43-2.69 11.82c-.1.44-.49.74-.93.74z" fill="#2D7C99"/></g><g opacity=".19"><path opacity=".19" d="M664.99 212.48c-.74 0-1.49-.07-2.24-.22-3.01-.59-5.61-2.32-7.33-4.87a11.43 11.43 0 0 1-1.74-8.62c.59-3.01 2.32-5.61 4.87-7.33a11.43 11.43 0 0 1 8.62-1.74c3.01.59 5.61 2.32 7.33 4.87a11.43 11.43 0 0 1 1.74 8.62c-.59 3.01-2.32 5.61-4.87 7.33-1.91 1.3-4.12 1.96-6.38 1.96zm-.04-21.09c-1.89 0-3.73.56-5.33 1.63a9.55 9.55 0 0 0-4.07 6.12c-.49 2.52.02 5.07 1.45 7.2a9.55 9.55 0 0 0 6.12 4.07c2.52.49 5.07-.02 7.2-1.45a9.55 9.55 0 0 0 4.07-6.12c.49-2.52-.02-5.07-1.45-7.2a9.55 9.55 0 0 0-6.12-4.07 9.95 9.95 0 0 0-1.87-.18zM690.57 195.29a11.5 11.5 0 0 1-9.56-5.08 11.43 11.43 0 0 1-1.74-8.62c.59-3.01 2.32-5.61 4.87-7.33a11.43 11.43 0 0 1 8.62-1.74c3.01.59 5.61 2.32 7.33 4.87a11.43 11.43 0 0 1 1.74 8.62c-.59 3.01-2.32 5.61-4.87 7.33a11.412 11.412 0 0 1-6.39 1.95zm-.04-21.09c-1.89 0-3.73.56-5.33 1.63a9.55 9.55 0 0 0-4.07 6.12c-.49 2.52.02 5.07 1.45 7.2 2.95 4.39 8.93 5.57 13.32 2.62 4.39-2.95 5.57-8.93 2.62-13.32a9.55 9.55 0 0 0-6.12-4.07c-.62-.12-1.25-.18-1.87-.18z" fill="#2D7C99"/></g><path opacity=".19" d="M667 191.44c-.13 0-.26-.03-.38-.09a.796.796 0 0 1-.33-1.08l.33-.61c2.66-5 7.83-8.11 13.49-8.12v1.6c-5.07.01-9.7 2.79-12.08 7.27l-.33.61c-.14.27-.42.42-.7.42z" fill="#2D7C99"/></g><path d="M650.161 204.341a.98.98 0 0 1-.81-.43.981.981 0 0 1 .27-1.36l39.77-26.71 13.13 2.18c.53.09.89.59.81 1.12a.97.97 0 0 1-1.13.8l-12.36-2.05-39.13 26.28c-.17.11-.36.17-.55.17z" fill="#626B82"/><path d="M655.101 211.691c-.07 0-.15-.01-.22-.02a.975.975 0 0 1-.74-1.17l2.95-12.98 39.77-26.71a.981.981 0 0 1 1.09 1.63l-39.11 26.27-2.78 12.22c-.11.46-.51.76-.96.76z" fill="#626B82"/><g opacity=".51"><path opacity=".51" d="M671.421 192.46c3.36 5 2.03 11.77-2.97 15.12-5 3.36-11.77 2.03-15.12-2.97-3.36-5-2.03-11.77 2.97-15.12 2.5-1.68 5.44-2.18 8.18-1.65 2.73.54 5.26 2.12 6.94 4.62zM688.811 191.68c6.02 0 10.9-4.88 10.9-10.9 0-6.02-4.88-10.9-10.9-10.9-6.02 0-10.9 4.88-10.9 10.9 0 6.02 4.88 10.9 10.9 10.9z" fill="#fff"/></g><path d="M662.39 210.18c-.75 0-1.51-.07-2.27-.22-3.05-.6-5.69-2.35-7.42-4.93a11.568 11.568 0 0 1-1.76-8.73c.6-3.05 2.35-5.68 4.93-7.42 2.58-1.73 5.68-2.36 8.73-1.76 3.05.6 5.69 2.35 7.42 4.93 3.58 5.33 2.15 12.57-3.17 16.15-1.93 1.3-4.17 1.98-6.46 1.98zm-.04-21.81c-2 0-3.95.59-5.64 1.73a10.07 10.07 0 0 0-4.3 6.48c-.52 2.67.02 5.37 1.54 7.62s3.81 3.78 6.48 4.3c2.66.53 5.37-.02 7.62-1.54 4.65-3.12 5.89-9.45 2.77-14.1a10.07 10.07 0 0 0-6.48-4.3c-.67-.12-1.33-.19-1.99-.19zM688.831 192.42c-.75 0-1.51-.07-2.27-.22-3.05-.6-5.68-2.35-7.42-4.93a11.568 11.568 0 0 1-1.76-8.73c.6-3.05 2.35-5.68 4.93-7.42 2.58-1.73 5.68-2.36 8.73-1.76 3.05.6 5.68 2.35 7.42 4.93 1.74 2.58 2.36 5.68 1.76 8.73-.6 3.05-2.35 5.68-4.93 7.42-1.93 1.3-4.17 1.98-6.46 1.98zm-.04-21.81c-2 0-3.95.59-5.64 1.73a10.07 10.07 0 0 0-4.3 6.48c-.52 2.66.02 5.37 1.54 7.62a10.07 10.07 0 0 0 6.48 4.3c2.66.52 5.37-.02 7.62-1.54a10.07 10.07 0 0 0 4.3-6.48c.52-2.67-.02-5.37-1.54-7.62a10.07 10.07 0 0 0-6.48-4.3c-.66-.12-1.32-.19-1.98-.19z" fill="#626B82"/><path d="M664.47 188.581a.73.73 0 0 1-.35-.09.743.743 0 0 1-.31-1l.34-.63c2.73-5.14 8.05-8.33 13.86-8.34.41 0 .74.33.74.74s-.32.74-.73.74c-5.27.01-10.08 2.9-12.56 7.56l-.34.63c-.13.25-.39.39-.65.39z" fill="#626B82"/><path opacity=".19" d="M928.821 191.13c14.95 0 27.07-12.119 27.07-27.07 0-14.95-12.12-27.07-27.07-27.07-14.95 0-27.07 12.12-27.07 27.07 0 14.951 12.12 27.07 27.07 27.07z" fill="#2D7C99"/><path d="M925.701 187.34c14.95 0 27.07-12.119 27.07-27.07 0-14.95-12.12-27.07-27.07-27.07-14.95 0-27.07 12.12-27.07 27.07 0 14.951 12.12 27.07 27.07 27.07z" fill="#E3F0F2"/><path d="M947.581 177.68c-.29 0-.59-.09-.84-.27l-8.04-5.74c-.65-.47-.81-1.38-.34-2.03.47-.65 1.38-.81 2.03-.34l8.04 5.74c.65.47.81 1.38.34 2.03-.29.39-.74.61-1.19.61z" fill="#fff"/><path d="M925.7 178.32c9.969 0 18.05-8.082 18.05-18.05 0-9.969-8.081-18.05-18.05-18.05-9.968 0-18.05 8.081-18.05 18.05 0 9.968 8.082 18.05 18.05 18.05z" fill="#fff"/><path d="M925.701 175.3c8.301 0 15.03-6.729 15.03-15.03 0-8.301-6.729-15.03-15.03-15.03-8.301 0-15.03 6.729-15.03 15.03 0 8.301 6.729 15.03 15.03 15.03z" fill="#B38A5D"/><path d="M940.231 161.77c0 7.23-6.51 13.09-14.53 13.09s-14.53-5.86-14.53-13.09c0-4.77 2.03-7.93 6.26-10.22 2.18-1.18 6.27 0 9 0 3.38 0 4.68-1.48 7.15.26 1.21.85 2.17 1.54 3.03 2.69 1.56 2.08 3.62 4.57 3.62 7.27z" fill="#61370B"/><path d="M917.861 158.75a1.79 1.79 0 1 0 .001-3.579 1.79 1.79 0 0 0-.001 3.579zM921.571 156.35a1.19 1.19 0 1 0 0-2.38 1.19 1.19 0 0 0 0 2.38z" fill="#B38A5D"/><path opacity=".23" d="M911.381 167.94c6.401 0 11.59-5.189 11.59-11.59s-5.189-11.59-11.59-11.59-11.59 5.189-11.59 11.59 5.189 11.59 11.59 11.59z" fill="#fff"/><path opacity=".23" d="M913.418 161.42c9.263-8.125 11.724-20.467 5.497-27.567-6.228-7.1-18.785-6.269-28.049 1.856-9.263 8.124-11.724 20.467-5.497 27.567 6.228 7.1 18.786 6.269 28.049-1.856z" fill="#fff"/><path opacity=".19" d="M947.41 263.28l-41.84-18.16a1.596 1.596 0 0 1-.83-2.1l18.5-42.63L968 219.83l-18.5 42.63c-.35.8-1.29 1.17-2.09.82z" fill="#2D7C99"/><path d="M947.321 261.74l-44.77-19.42 19.43-44.77 44.77 19.43-19.43 44.76z" fill="#F0F0F0"/><path d="M963.261 225.02l-44.77-19.43 3.49-8.04 44.77 19.43-3.49 8.04z" fill="url(#paint0_linear)"/><path opacity=".38" d="M934.54 207.322l-.497 1.147 16.458 7.14.498-1.147-16.459-7.14z" fill="#FADDA3"/><path d="M929.44 205.55l-2.29-.99 2.75-6.34 2.29 1-2.75 6.33zM958.101 217.99l-2.29-.99 2.75-6.34 2.29.99-2.75 6.34z" fill="#3C3542"/><path d="M935.895 220.981l-5.605-2.432-2.432 5.605 5.604 2.432 2.433-5.605zM945.185 225.011l-5.605-2.432-2.432 5.605 5.604 2.432 2.433-5.605zM954.475 229.041l-5.605-2.433-2.432 5.605 5.604 2.432 2.433-5.604zM922.926 225.431l-5.605-2.432-2.432 5.605 5.605 2.432 2.432-5.605zM932.216 229.462l-5.605-2.433-2.432 5.605 5.605 2.432 2.432-5.604zM941.496 233.488l-5.604-2.432-2.433 5.604 5.605 2.433 2.432-5.605zM950.783 237.527l-5.604-2.432-2.433 5.604 5.605 2.433 2.432-5.605zM919.238 233.909l-5.604-2.432-2.433 5.604 5.605 2.433 2.432-5.605zM928.525 237.948l-5.605-2.432-2.432 5.604 5.604 2.433 2.433-5.605z" fill="#D8CCE8"/><path d="M937.816 241.977l-5.605-2.432-2.432 5.605 5.604 2.432 2.433-5.605z" fill="#FF4F70"/><path d="M958.203 252.358l-1.555-1.381-2.477 2.788 1.555 1.382 2.477-2.789z" fill="#fff"/><path d="M941.23 270.67l17.84-20.08.72.64-17.2 19.36c-.35.4-.96.43-1.36.08z" fill="#4B67A6"/><path opacity=".15" d="M921.471 295.02l-5.75 2.47 1.77-6 39.85-44.85c.97-1.1 2.65-1.2 3.75-.22 1.1.97 1.2 2.65.22 3.75l-39.84 44.85z" fill="#36367D"/><path d="M920.05 292.19l-3.97-3.53 39.85-44.85c.97-1.1 2.65-1.2 3.75-.22 1.1.97 1.2 2.65.22 3.75l-39.85 44.85z" fill="#4B67A6"/><path opacity=".17" d="M920.051 292.19l-1.99-1.77 41.61-46.84c1.1.97 1.2 2.65.22 3.75l-39.84 44.86z" fill="#175196"/><path d="M944.489 264.697l-3.977-3.534-.877.987 3.977 3.533.877-.986zM914.5 294.81l-.42-.37 2.24-5.57 3.44 3.06-5.26 2.88z" fill="#fff"/><path opacity=".09" d="M914.5 294.809l-.42-.37 4.33-3.71 1.35 1.2-5.26 2.88z" fill="#36367D"/><path d="M913.82 295.15a.11.11 0 0 1-.03-.13l.63-1.56 1.01.9-1.48.81c-.04.02-.09.02-.13-.02z" fill="#177FFF"/><g opacity=".59"><path opacity=".19" d="M922.281 268.05l-13.26-23.77c-1.63-2.92-4.14-5.22-7.15-6.52l-1.23-.53-.05-68.46c0-2.28-1.79-4.14-4-4.13l-194.29.03c-2.21 0-4 1.85-3.99 4.14l.05 68.44-1.18.51c-3.01 1.31-5.52 3.6-7.15 6.52l-13.26 23.77c-4.79 8.6-8.45 17.82-10.88 27.43l-6.34 25.11h44.56a96.03 96.03 0 0 0 3.67-5.07l10.77-19.76c1.35-2.48 3.89-4.01 6.64-4.01h18.49c.89 0 1.72-.23 2.45-.64.15-.08.29-.17.42-.27.34-.24.66-.52.93-.84.28-.32.52-.67.72-1.04.04-.08.08-.15.11-.23.33-.7.51-1.48.51-2.31v-.09c0-.49-.07-.97-.19-1.42l101.75-.02c-.12.46-.19.94-.19 1.44v.09c0 .83.18 1.61.51 2.31.04.08.07.15.11.23.2.38.44.73.72 1.04.28.32.59.6.93.84.14.1.28.18.42.27.73.41 1.57.64 2.45.64h18.49c2.75 0 5.29 1.53 6.64 4.01l10.77 19.76c1.17 1.73 2.4 3.42 3.67 5.07h44.56l-6.34-25.11c-2.39-9.6-6.05-18.83-10.84-27.43z" fill="#3E5C6E"/></g><path d="M856.101 251.31s-7.83-1.32-6.96-6.46c.91-5.41 6.96-3.41 6.96-3.41v9.87zM858.401 239.981s-7.77-1.29-6.96-6.46c.85-5.42 6.96-3.41 6.96-3.41v9.87z" fill="#EBBE8F"/><path d="M954.161 320.59l-12.72-17.06c-.9-1.2-1.55-2.56-1.93-4.01l-6.15-23.53c-2.35-9-5.9-17.64-10.54-25.69l-12.85-22.27a14.421 14.421 0 0 0-6.93-6.11l-17.9-7.52 16.7 25.58-8.04 22.45h-35.76a5.07 5.07 0 0 0-5.07 5.07c0 2.76 2.23 4.99 4.99 4.99h17.93c2.67 0 5.13 1.44 6.44 3.76l10.44 18.51a88.759 88.759 0 0 0 17.77 18.84l6.23 6.99h37.39z" fill="#FAA284"/><path opacity=".44" d="M928.921 320.59l-25.18-52.73 23.51 11.44-15.06-13.89-7.04-6.49-.94-9.59-2.37-24.13-8.04 37.24h-35.84c-2.76 0-4.99 2.23-4.99 4.99v.08c0 2.76 2.23 4.99 4.99 4.99h17.93c2.67 0 5.13 1.44 6.44 3.76l10.44 18.51a88.759 88.759 0 0 0 17.77 18.84l6.23 6.99h12.15v-.01z" fill="#E5785C"/><path d="M742.24 251.31s7.83-1.32 6.96-6.46c-.91-5.41-6.96-3.41-6.96-3.41v9.87zM739.94 239.981s7.77-1.29 6.96-6.46c-.85-5.42-6.96-3.41-6.96-3.41v9.87z" fill="#EBBE8F"/><path d="M644.181 320.59l12.72-17.06c.9-1.2 1.55-2.56 1.93-4.01l6.15-23.53c2.35-9 5.9-17.64 10.54-25.69l12.85-22.27c1.58-2.74 4.01-4.89 6.93-6.11l17.9-7.52-16.7 25.58 8.04 22.45h35.76c2.8 0 5.07 2.27 5.07 5.07 0 2.76-2.23 4.99-4.99 4.99h-17.93c-2.67 0-5.13 1.44-6.44 3.76l-10.44 18.51a88.759 88.759 0 0 1-17.77 18.84l-6.23 6.99h-37.39z" fill="#FAA284"/><path opacity=".44" d="M669.421 320.59l25.18-52.73-23.52 11.44 15.06-13.89 7.04-6.49.94-9.59 2.37-24.13 8.04 37.24h35.84c2.76 0 4.99 2.23 4.99 4.99v.08c0 2.76-2.23 4.99-4.99 4.99h-17.92c-2.67 0-5.13 1.44-6.44 3.76l-10.44 18.51a88.759 88.759 0 0 1-17.77 18.84l-6.23 6.99h-12.15v-.01z" fill="#E5785C"/><path d="M700.341 266.1l197.66-.04c2.14 0 3.87-1.74 3.87-3.88l-.07-115.24c0-2.14-1.74-3.87-3.88-3.87l-197.66.04c-2.14 0-3.87 1.74-3.87 3.88l.07 115.25c.01 2.13 1.74 3.87 3.88 3.86z" fill="#48404E"/><path opacity=".23" d="M843.521 258.13l-88.77.02" stroke="#fff" stroke-width="1.225" stroke-miterlimit="10" stroke-linecap="round"/><mask id="a" maskUnits="userSpaceOnUse" x="764" y="146" width="115" height="117"><path d="M878.57 262.76H764.24l57.17-116.28h57.16v116.28z" fill="url(#paint1_linear)"/></mask><g mask="url(#a)"><path opacity=".06" d="M897.18 262.76H767.66l86.33-116.27h43.19c.77 0 1.39.62 1.39 1.39v113.48c0 .77-.62 1.4-1.39 1.4z" fill="url(#paint2_linear)"/></g><path d="M672.001 315.27l11.57-6.52a35.952 35.952 0 0 0 18.6-26.92c.6-4.5 3.27-8.47 7.21-10.72l13.62-9.68a6.773 6.773 0 0 0 1.26-9.37 6.775 6.775 0 0 0-8.25-2.12l-1.53.7c-7.58 3.47-14.79 7.69-21.51 12.62l-21.89 16.04.92 35.97z" fill="#FAA284"/><path d="M722.901 260.011c1.15-.9 1.9-2.2 2.09-3.66.2-1.46-.18-2.91-1.06-4.08a5.631 5.631 0 0 0-4.49-2.26c-.81 0-1.59.17-2.32.51l-2.69 1.23 6.41 9.73 2.06-1.47z" fill="#FFD1C2"/><path d="M719.451 250.16c.83 0 1.67.2 2.42.57.76.38 1.44.94 1.95 1.63a5.432 5.432 0 0 1 1.03 3.97 5.43 5.43 0 0 1-2.03 3.56l-1.93 1.37-6.22-9.45 2.53-1.16c.7-.32 1.46-.49 2.25-.49zm0-.3c-.8 0-1.62.17-2.39.52l-2.85 1.31 6.59 10.01 2.2-1.56c2.46-1.92 2.93-5.45 1.07-7.96a5.763 5.763 0 0 0-4.62-2.32zM926.341 315.27l-11.57-6.52a35.952 35.952 0 0 1-18.6-26.92c-.6-4.5-3.27-8.47-7.21-10.72l-13.62-9.68a6.773 6.773 0 0 1-1.26-9.37 6.775 6.775 0 0 1 8.25-2.12l1.53.7c7.58 3.47 14.79 7.69 21.51 12.62l21.88 16.04-.91 35.97z" fill="#FAA284"/><path d="M875.441 260.011c-1.15-.9-1.9-2.2-2.09-3.66-.2-1.46.18-2.91 1.06-4.08a5.631 5.631 0 0 1 4.49-2.26c.81 0 1.59.17 2.32.51l2.69 1.23-6.41 9.73-2.06-1.47z" fill="#FFD1C2"/><path d="M878.891 250.16c.78 0 1.54.17 2.26.49l2.53 1.16-6.22 9.45-1.93-1.37a5.407 5.407 0 0 1-2.03-3.56c-.19-1.42.17-2.83 1.03-3.97.51-.69 1.19-1.25 1.95-1.63a5.44 5.44 0 0 1 2.41-.57zm0-.3c-1.77 0-3.5.82-4.61 2.32a5.752 5.752 0 0 0 1.07 7.96l2.2 1.56 6.59-10.01-2.85-1.31c-.78-.35-1.59-.52-2.4-.52z" fill="#F2C494"/><path opacity=".25" d="M887.921 247.27h-165.61c-2.21 0-4-1.79-4-4V143.09h173.62v100.18c-.01 2.2-1.8 4-4.01 4z" fill="#063438"/><path d="M881.52 240.97H715.9c-2.21 0-4-1.79-4-4V125.31h173.62v111.66c0 2.21-1.79 4-4 4z" fill="#fff"/><path d="M885.72 134.31H712.11V126c0-2.21 1.79-4 4-4h165.62c2.21 0 4 1.79 4 4v8.31h-.01z" fill="#0046B4"/><path d="M720.106 128.668a2.22 2.22 0 1 0-4.32-1.026 2.22 2.22 0 0 0 4.32 1.026zM726.955 128.667a2.219 2.219 0 1 0-4.319-1.027 2.219 2.219 0 1 0 4.319 1.027zM733.805 128.666a2.22 2.22 0 1 0-4.32-1.026 2.22 2.22 0 0 0 4.32 1.026z" fill="#6896DE"/><path d="M867.081 149.18h-32.66v1.06h32.66v-1.06zM761.791 149.18h-32.66v1.06h32.66v-1.06zM729.398 211.261l-.007 1.03 5.65.041.007-1.03-5.65-.041zM737.823 211.313l-.002 1.03 26.16.031.002-1.03-26.16-.031zM766.741 211.338l-.002 1.03 5.65.01.002-1.03-5.65-.01zM729.395 217.742l-.008 1.03 4.84.04.008-1.03-4.84-.04zM737.162 217.785l-.002 1.03 5.25.009.002-1.03-5.25-.009z" fill="#D4D4D4"/><path d="M740.066 217.794l-.002 1.03 32.31.039.002-1.03-32.31-.039zM729.377 224.227l-.002 1.03 14.42.024.002-1.03-14.42-.024zM757.215 224.273l-.002 1.03 15.15.037.002-1.03-15.15-.037zM778.742 165.968l-.002 1.03 14.42.023.002-1.03-14.42-.023zM795.91 166.023l-.001 1.03 25.82.032.001-1.03-25.82-.032zM778.737 172.448l-.002 1.03 18.21.036.002-1.03-18.21-.036z" fill="#D4D4D4"/><path d="M787.162 172.49l-.001 1.03 26.86.031.001-1.03-26.86-.031zM816.08 172.523l-.002 1.03 5.65.009.002-1.03-5.65-.009zM778.733 178.913l-.008 1.03 4.84.04.008-1.03-4.84-.04zM786.501 178.959l-.002 1.03 5.25.009.002-1.03-5.25-.009z" fill="#D4D4D4"/><path d="M789.405 178.967l-.002 1.03 32.31.04.002-1.03-32.31-.04zM778.715 185.401l-.002 1.03 13.02.023.002-1.03-13.02-.023z" fill="#D4D4D4"/><path d="M786.702 185.406l-.009 1.03 5.04.04.009-1.03-5.04-.04zM794.353 185.455l-.001 1.03 27.35.033.001-1.03-27.35-.033zM778.703 191.88l-.002 1.03 7.73.013.002-1.03-7.73-.013zM790.761 191.896l-4.28.029.007 1.03 4.28-.029-.007-1.03z" fill="#D4D4D4"/><path d="M790.073 191.93l-.002 1.03 31.62.038.002-1.03-31.62-.038zM809.761 198.37h-31.07v1.03h31.07v-1.03zM812.997 198.408l-.004 1.03 8.69.034.004-1.03-8.69-.034zM778.679 204.833l-.001 1.03 14.42.024.001-1.03-14.42-.024z" fill="#D4D4D4"/><path d="M787.233 204.847l-3.53.032.009 1.03 3.53-.032-.009-1.03z" fill="#D4D4D4"/><path d="M786.823 204.874l-.002 1.03 34.85.044.002-1.03-34.85-.044zM778.67 211.312l-.002 1.03 14.42.023.002-1.03-14.42-.023zM795.907 211.365l-.002 1.03 25.75.031.002-1.03-25.75-.031zM778.66 217.794l-.004 1.03 7.74.027.004-1.03-7.74-.027zM821.652 217.859h-32.94v1.03h32.94v-1.03zM828.08 165.963l-.002 1.03 13.43.024.002-1.03-13.43-.024zM856.271 165.988l-12.55.024.002 1.03 12.55-.024-.002-1.03z" fill="#D4D4D4"/><path d="M843.726 166.015l-.001 1.03 27.35.032.001-1.03-27.35-.032zM828.073 172.436l-.008 1.03 5.65.041.008-1.03-5.65-.041zM836.499 172.483l-.001 1.03 26.86.03.001-1.03-26.86-.03z" fill="#D4D4D4"/><path d="M871.061 172.521h-14.24v1.03h14.24v-1.03zM828.062 178.923l-.002 1.03 16.62.035.002-1.03-16.62-.035z" fill="#D4D4D4"/><path d="M835.838 178.952l-.002 1.03 5.25.009.002-1.03-5.25-.009z" fill="#D4D4D4"/><path d="M838.741 178.961l-.002 1.03 32.31.04.002-1.03-32.31-.04zM828.051 185.394l-.001 1.03 14.42.023.001-1.03-14.42-.023z" fill="#D4D4D4"/><path d="M836.038 185.397l-.008 1.03 5.04.04.008-1.03-5.04-.04zM855.248 185.446l-.002 1.03 15.79.032.002-1.03-15.79-.032zM828.04 191.872l-.002 1.03 7.73.014.002-1.03-7.73-.014zM840.101 191.889l-4.28.024.006 1.03 4.28-.024-.006-1.03z" fill="#D4D4D4"/><path d="M839.408 191.923l-.001 1.03 31.62.038.001-1.03-31.62-.038zM828.031 198.355l-.003 1.03 8.86.023.003-1.03-8.86-.023zM855.224 198.374l-.033 1.029 1.869.059.033-1.029-1.869-.059z" fill="#D4D4D4"/><path d="M840.513 198.405l-.001 1.03 30.5.032.001-1.03-30.5-.032zM828.026 204.827l-.002 1.03 14.42.024.002-1.03-14.42-.024z" fill="#D4D4D4"/><path d="M836.576 204.837l-3.53.033.01 1.03 3.53-.033-.01-1.03z" fill="#D4D4D4"/><path d="M836.159 204.868l-.002 1.03 34.85.044.002-1.03-34.85-.044zM828.013 211.31l-.002 1.03 13.02.024.002-1.03-13.02-.024zM844.356 211.361l-.002 1.03 26.64.031.002-1.03-26.64-.031zM864.561 217.8h-36.56v1.03h36.56v-1.03z" fill="#D4D4D4"/><path d="M836.708 217.784l-.01 1.03 4.32.04.01-1.03-4.32-.04zM843.646 217.835l-.001 1.03 27.35.032.001-1.03-27.35-.032zM859.101 224.28h-31.11v1.03h31.11v-1.03zM729.397 224.22l-.008 1.03 4.84.039.008-1.03-4.84-.039zM821.681 224.3h-43.03v1.03h43.03v-1.03z" fill="#D4D4D4"/><path d="M859.961 224.28h-31.96v1.03h31.96v-1.03z" fill="#D4D4D4"/><path d="M836.711 224.262l-.01 1.03 4.32.041.01-1.03-4.32-.041z" fill="#D4D4D4"/><path d="M750.081 208.16c-12 0-21.73-9.73-21.73-21.73s9.73-21.73 21.73-21.73 21.73 9.73 21.73 21.73-9.73 21.73-21.73 21.73z" fill="#0046B4"/><path d="M764.681 154.15v-8.73h1.81l2.25 3.74c.58.97 1.09 1.98 1.49 2.92h.03c-.1-1.16-.14-2.29-.14-3.62v-3.04h1.48v8.73h-1.64l-2.28-3.83c-.56-.96-1.14-2.03-1.57-3.02l-.04.01c.06 1.13.08 2.28.08 3.71v3.12h-1.47v.01zM778.311 150.28h-3.29v2.56h3.68v1.31h-5.27v-8.73h5.07v1.31h-3.48v2.25h3.29v1.3zM781.611 154.15l-2.14-8.73h1.7l.83 3.96c.22 1.06.43 2.18.57 3.04h.03c.14-.92.39-1.95.63-3.06l.94-3.95h1.67l.87 4.01c.22 1.04.4 2.01.53 2.95h.03c.16-.96.36-1.95.6-3.02l.91-3.95h1.62l-2.34 8.73h-1.71l-.91-4.1c-.22-1-.38-1.83-.48-2.77h-.03c-.16.93-.32 1.77-.58 2.77l-1.01 4.1h-1.73v.02zM791.361 152.42c.52.3 1.29.56 2.11.56 1.02 0 1.59-.48 1.59-1.19 0-.66-.44-1.05-1.55-1.45-1.44-.52-2.36-1.28-2.36-2.54 0-1.42 1.19-2.51 3.08-2.51.94 0 1.64.21 2.1.44l-.39 1.27c-.31-.17-.92-.41-1.73-.41-1.01 0-1.45.54-1.45 1.05 0 .67.51.98 1.67 1.44 1.51.57 2.25 1.33 2.25 2.59 0 1.4-1.06 2.62-3.31 2.62-.92 0-1.88-.26-2.36-.54l.35-1.33zM798.11 145.54c.6-.1 1.49-.18 2.41-.18 1.26 0 2.11.21 2.69.7.48.4.75 1.01.75 1.75 0 1.13-.76 1.89-1.58 2.19v.04c.62.23 1 .84 1.22 1.68.27 1.09.5 2.1.69 2.43h-1.64c-.13-.26-.34-.97-.58-2.06-.25-1.14-.66-1.5-1.57-1.53h-.8v3.59h-1.58v-8.61h-.01zm1.58 3.86h.94c1.07 0 1.75-.57 1.75-1.44 0-.96-.67-1.4-1.71-1.4-.51 0-.83.04-.98.08v2.76zM813.22 149.7c0 2.93-1.77 4.6-4.18 4.6-2.46 0-4.01-1.88-4.01-4.44 0-2.68 1.68-4.57 4.14-4.57 2.55-.01 4.05 1.92 4.05 4.41zm-6.51.13c0 1.77.89 3.19 2.42 3.19 1.54 0 2.41-1.42 2.41-3.25 0-1.64-.82-3.2-2.41-3.2-1.58-.01-2.42 1.46-2.42 3.26zM822.331 149.7c0 2.93-1.77 4.6-4.18 4.6-2.46 0-4.01-1.88-4.01-4.44 0-2.68 1.68-4.57 4.14-4.57 2.55-.01 4.05 1.92 4.05 4.41zm-6.51.13c0 1.77.89 3.19 2.42 3.19 1.54 0 2.41-1.42 2.41-3.25 0-1.64-.82-3.2-2.41-3.2-1.58-.01-2.42 1.46-2.42 3.26zM831.07 150.59c-.05-1.13-.12-2.49-.1-3.66h-.04c-.28 1.06-.65 2.24-1.04 3.34l-1.27 3.78h-1.23l-1.16-3.73c-.34-1.11-.65-2.3-.88-3.39h-.03c-.04 1.14-.09 2.52-.16 3.72l-.19 3.51h-1.49l.58-8.73h2.1l1.14 3.51c.31 1.02.58 2.06.8 3.03h.04c.23-.94.53-2.02.87-3.04l1.2-3.5h2.07l.5 8.73h-1.55l-.16-3.57z" fill="#A1A1A1"/><path d="M735.33 192.19a5.13 5.13 0 1 0 0-10.26 5.13 5.13 0 0 0 0 10.26z" fill="#fff"/><path d="M735.33 191.85a4.79 4.79 0 1 0-.001-9.581 4.79 4.79 0 0 0 .001 9.581z" fill="#fff"/><path d="M730.64 188.05c.17.8.53 1.52 1.04 2.11a7.669 7.669 0 0 1 7.48-5.98c-.07-.1-.15-.19-.23-.28a7.675 7.675 0 0 0-8.29 4.15z" fill="#0046B4"/><path d="M733.18 191.34c.65.33 1.38.51 2.15.51 2.65 0 4.79-2.14 4.79-4.79 0-.91-.25-1.75-.69-2.48-3.33.6-5.91 3.35-6.25 6.76zM736.559 183.22c.67 0 1.33.09 1.95.25a4.79 4.79 0 0 0-3.18-1.21c-2.28 0-4.19 1.6-4.67 3.74a7.647 7.647 0 0 1 5.9-2.78z" fill="#46B400"/><path d="M741.21 182.949h3.33v.9h-2.28v1.63h1.9v.9h-1.9v2.32h-1.04v-5.75h-.01zM747.111 184.51c-.63 0-1.13.47-1.31 1.06h-.02s.02-.14.02-.29v-.69h-.99v4.11h1.03v-1.64c0-.24.02-.47.09-.67.19-.62.69-.87 1.13-.87.14 0 .24.02.24.02v-1.01s-.09-.02-.19-.02zM749.46 184.47c1.19 0 1.83.87 1.83 1.96 0 .12-.02.4-.02.4h-2.85c.06.72.62 1.09 1.24 1.09.66 0 1.19-.45 1.19-.45l.4.74s-.63.59-1.66.59c-1.37 0-2.22-.99-2.22-2.16 0-1.28.86-2.17 2.09-2.17zm.8 1.66c-.02-.56-.36-.86-.82-.86-.53 0-.89.32-.99.86h1.81zM753.66 184.47c1.19 0 1.83.87 1.83 1.96 0 .12-.02.4-.02.4h-2.85c.06.72.62 1.09 1.24 1.09.66 0 1.19-.45 1.19-.45l.4.74s-.63.59-1.66.59c-1.37 0-2.22-.99-2.22-2.16 0-1.28.86-2.17 2.09-2.17zm.8 1.66c-.02-.56-.36-.86-.82-.86-.53 0-.89.32-.99.86h1.81zM764.48 186.11h.14v-.06c0-.54-.34-.73-.79-.73-.59 0-1.13.4-1.13.4l-.39-.74s.64-.51 1.62-.51c1.08 0 1.72.6 1.72 1.64v2.58h-.95v-.34c0-.16.02-.29.02-.29h-.02c.01 0-.32.73-1.25.73-.74 0-1.4-.46-1.4-1.29-.01-1.3 1.76-1.39 2.43-1.39zm-.78 1.89c.54 0 .93-.58.93-1.08v-.1h-.18c-.53 0-1.38.07-1.38.65 0 .27.21.53.63.53zM768.83 184.59l-.8 2.37c-.07.22-.14.54-.14.54h-.02s-.07-.34-.15-.56l-.86-2.36h-1.16l1.73 4.04-.13.31c-.15.36-.43.53-.71.53-.23 0-.46-.17-.46-.17l-.34.77s.36.27.86.27c.61 0 1.17-.31 1.47-1.02l1.84-4.73h-1.13v.01zM760.901 184.59l-.71 2.69c-.06.22-.09.44-.09.44h-.02s-.03-.22-.09-.44l-.76-2.69h-.92l-.76 2.69c-.06.22-.1.44-.1.44h-.02s-.02-.22-.08-.44l-.71-2.69h-1.08l1.26 4.11h1.15l.7-2.36c.06-.22.1-.45.1-.45h.02s.04.23.11.45l.7 2.36h1.14l1.25-4.11h-1.09zM741.21 189.52h.3v1.64h-.3v-1.64zM743.19 189.52h.3l.62.95c.06.09.14.25.14.25s-.02-.16-.02-.25v-.95h.3v1.64h-.3l-.62-.95c-.06-.09-.14-.25-.14-.25s.02.16.02.25v.95h-.3v-1.64zM746.37 190.739s.18.17.41.17c.12 0 .24-.06.24-.2 0-.29-.78-.24-.78-.75 0-.27.24-.48.55-.48.32 0 .49.18.49.18l-.13.24s-.16-.14-.36-.14c-.14 0-.25.08-.25.2 0 .29.77.22.77.74 0 .26-.2.48-.54.48-.37 0-.57-.22-.57-.22l.17-.22zM748.99 189.52h.3v1.05c0 .22.14.34.36.34.22 0 .37-.12.37-.35v-1.05h.3v1.05c0 .37-.27.62-.66.62-.4 0-.66-.25-.66-.62v-1.04h-.01zM751.99 189.52h.53c.18 0 .26.01.33.05.16.07.27.23.27.45 0 .2-.1.38-.28.45 0 0 .02.02.06.08l.34.61h-.33l-.33-.61h-.29v.61h-.3v-1.64zm.57.77c.16 0 .26-.09.26-.26 0-.16-.07-.25-.3-.25h-.23v.51h.27zM755.94 190.74h-.58l-.14.42h-.31l.58-1.64h.31l.58 1.64h-.31l-.13-.42zm-.29-.93s-.04.16-.07.25l-.15.44h.43l-.15-.44c-.02-.09-.06-.25-.06-.25zM758.06 189.52h.3l.62.95c.06.09.14.25.14.25s-.02-.16-.02-.25v-.95h.3v1.64h-.3l-.62-.95c-.06-.09-.14-.25-.14-.25s.02.16.02.25v.95h-.3v-1.64zM761.93 189.489c.4 0 .61.22.61.22l-.14.22s-.19-.17-.45-.17c-.35 0-.55.26-.55.56 0 .31.21.59.55.59.28 0 .48-.21.48-.21l.16.22s-.23.27-.65.27c-.5 0-.85-.37-.85-.86-.01-.47.35-.84.84-.84zM764.25 189.52h.92v.26h-.62v.43h.55v.26h-.55v.44h.62v.26h-.92v-1.65zM769.56 189.87c-.01-.03-.02-.03-.02-.03.04-.01.1-.06.1-.14 0-.1-.07-.17-.18-.17h-.23v.55h.13v-.2h.07l.09.2h.14l-.1-.21zm-.13-.1h-.07v-.16h.07c.05 0 .08.03.08.08s-.03.08-.08.08z" fill="#fff"/><path d="M769.41 189.25c-.3 0-.55.25-.55.55 0 .3.25.55.55.55.3 0 .55-.25.55-.55 0-.31-.25-.55-.55-.55zm0 .95c-.23 0-.41-.18-.41-.41 0-.23.18-.41.41-.41.23 0 .41.18.41.41 0 .23-.18.41-.41.41z" fill="#fff"/></g><defs><linearGradient id="paint0_linear" x1="933.722" y1="207.423" x2="978.487" y2="226.85" gradientUnits="userSpaceOnUse"><stop stop-color="#EDA03C"/><stop offset="1" stop-color="#F5211B"/></linearGradient><linearGradient id="paint1_linear" x1="844.053" y1="167.368" x2="816.216" y2="284.629" gradientUnits="userSpaceOnUse"><stop stop-color="#fff"/><stop offset="1"/></linearGradient><linearGradient id="paint2_linear" x1="855.835" y1="166.448" x2="827.291" y2="286.689" gradientUnits="userSpaceOnUse"><stop stop-color="#fff"/><stop offset="1" stop-color="#fff"/></linearGradient><clipPath id="clip0"><path fill="#fff" transform="translate(631 122)" d="M0 0h337v198.59H0z"/></clipPath></defs></svg>