<svg width="375" height="135" fill="none" xmlns="http://www.w3.org/2000/svg" viewBox="0 0 375 135"><path fill="#F5FCFF" d="M0 0h375v135H0z"/><g clip-path="url(#clip0)"><g opacity=".45" stroke="#fff" stroke-miterlimit="10"><path opacity=".45" d="M106.032 116.846l2.653-2.054a1.13 1.13 0 0 1 1.397 0l1.957 1.513c.413.322.986.322 1.398 0l1.957-1.513a1.132 1.132 0 0 1 1.398 0l1.957 1.513a1.13 1.13 0 0 0 1.397 0l1.958-1.513a1.13 1.13 0 0 1 1.397 0l1.951 1.513c.412.322.992.322 1.404-.006l2.614-2.048" stroke-width=".932"/><path opacity=".45" d="M213.083 9.905a.87.87 0 1 0 0-1.739.87.87 0 0 0 0 1.739z" stroke-width=".717"/></g><path d="M106.199 44.206c1.416-2.331 3.136-4.102 4.894-5.925.56-.579 1.139-1.14 1.745-1.674l.805-.708c3.451-3.033 7.482-5.222 11.815-6.31.136-.032.277-.071.419-.103 4.082-.928 8.191-1.475 12.434-1.127 4.321.16 8.661.772 13.117 1.487.573.09 1.146.161 1.719.22 1.841.173 3.567.328 5.306.237 6.915-.019 88.113-27.56 107.083-8.976.728.766 1.191 1.578 1.822 2.415 1.932 2.8 3.317 5.866 4.057 9.272 1.217 5.815.374 11.301-1.23 16.697-.534 1.797-2.318 6.098-1.358 11.906 1.442 8.719 6.452 15.615 9.633 24.005 5.041 13.272-4.959 25.77-16.8 27.747-1.913.386-3.716.611-5.615.908-9.524 1.114-17.972-3.671-26.897-6.993-5.357-1.868-30.444-2.17-35.402 1.036-10.335 6.433-19.485 13.896-30.889 17.058a62.131 62.131 0 0 1-4.971 1.378c-5.003 1.165-10.084 1.635-15.042 1.101a34.12 34.12 0 0 1-5.872-1.153c-21.308-5.312-39.324-25.724-38.3-50.554.186-4.514.534-9.002 1.377-13.4.722-3.6 1.507-7.096 2.737-10.702.425-1.107.747-2.137 1.185-3.232.702-1.764 1.449-3.323 2.228-4.61z" fill="#D6ECFF"/><path opacity=".19" d="M160.333 118.469l-4.572-1.719 4.572-1.713h50.605v3.432h-50.605z" fill="#2D7C99"/><path d="M211.892 116.573v-3.438h-50.605v3.438h50.605z" fill="#3D5473"/><path opacity=".17" d="M161.286 116.576v-1.72h50.606v1.72h-50.606z" fill="#081B33"/><path d="M156.721 115.017v-.367l4.565-1.3v2.968l-4.565-1.301z" fill="#FFD5B7"/><path d="M156.154 114.837c0-.032.026-.064.065-.071l1.281-.367v.876l-1.281-.367c-.039-.013-.065-.039-.065-.071z" fill="#42474D"/><path opacity=".19" d="M110.835 111.502l-17.134 5.531a1.159 1.159 0 0 1-1.455-.747L81.71 83.62a1.159 1.159 0 0 1 .747-1.455l17.135-5.532a1.159 1.159 0 0 1 1.455.747l10.541 32.666a1.168 1.168 0 0 1-.754 1.456z" fill="#2D7C99"/><path d="M109.361 110.883l-17.135 5.532a1.16 1.16 0 0 1-1.455-.747L80.236 83.002a1.159 1.159 0 0 1 .747-1.456l17.135-5.53a1.159 1.159 0 0 1 1.455.746l10.541 32.666a1.16 1.16 0 0 1-.753 1.455z" fill="#48404E"/><path d="M108.923 109.981l-16.864 5.442a.343.343 0 0 1-.431-.219L81.195 82.885a.341.341 0 0 1 .219-.431l16.864-5.441a.341.341 0 0 1 .431.219l10.432 32.318a.337.337 0 0 1-.219.431z" fill="#48404E"/><g opacity=".36"><path opacity=".36" d="M82.484 83.536a.186.186 0 0 1-.174-.128.183.183 0 0 1 .116-.232l3.67-1.185c.097-.032.2.02.232.116.032.097-.02.2-.116.232l-3.67 1.184c-.02.013-.039.013-.058.013zM96.019 112.886a.186.186 0 0 1-.174-.129.182.182 0 0 1 .116-.232l8.107-2.614a.183.183 0 1 1 .116.348l-8.107 2.614a.105.105 0 0 1-.058.013zM96.083 79.151a.186.186 0 0 1-.174-.129.182.182 0 0 1 .116-.232l1.836-.592c.096-.032.2.02.231.116.033.097-.019.2-.115.232l-1.836.592c-.019.007-.038.013-.058.013zM94.757 79.576a.186.186 0 0 1-.174-.129.182.182 0 0 1 .116-.231l.734-.239c.096-.032.2.02.232.116.032.097-.02.2-.116.232l-.734.238c-.02.013-.039.013-.058.013z" fill="#fff"/></g><path opacity=".19" d="M97.596 84.94l-16.85 5.448a.739.739 0 0 0-.477.933l1.745 5.39a.739.739 0 0 0 .933.476l13.284-4.295 1.9.69-.341-1.192 2.015-.65a.74.74 0 0 0 .477-.934l-1.745-5.39a.743.743 0 0 0-.94-.476z" fill="#363636"/><path d="M96.366 84.308l-16.85 5.448a.739.739 0 0 0-.477.934l1.745 5.39a.739.739 0 0 0 .933.476l13.284-4.295 1.9.689-.341-1.191 2.015-.65a.739.739 0 0 0 .477-.934l-1.746-5.39a.748.748 0 0 0-.94-.477z" fill="#F2F2F2"/><path d="M83.624 93.69l-1.958-.998.251-.483 1.43.734 1.184-2.795.503.213-1.41 3.329z" fill="#05BD7A"/><path d="M96.015 86.991l-9.395 3.031.137.423 9.394-3.031-.136-.423zM90.757 90.326l-3.659 1.18.137.424 3.658-1.18-.136-.424z" fill="#D4D4D4"/><path opacity=".19" d="M100.906 94.96l-16.851 5.447a.739.739 0 0 0-.477.934l1.745 5.389a.739.739 0 0 0 .934.477l13.284-4.295 1.899.689-.341-1.191 2.016-.651a.738.738 0 0 0 .476-.933l-1.745-5.39a.743.743 0 0 0-.94-.477z" fill="#363636"/><path d="M99.676 94.328l-16.851 5.448a.739.739 0 0 0-.477.933l1.745 5.39a.738.738 0 0 0 .934.476l13.284-4.295 1.899.689-.34-1.191 2.015-.65a.74.74 0 0 0 .476-.934l-1.745-5.39a.754.754 0 0 0-.94-.476z" fill="#F2F2F2"/><path d="M86.927 103.71l-1.951-.999.244-.482 1.436.734 1.179-2.795.502.212-1.41 3.33z" fill="#05BD7A"/><path d="M99.324 97.01l-9.395 3.031.137.423 9.394-3.032-.136-.422zM94.066 100.345l-3.659 1.18.137.423 3.658-1.18-.136-.423z" fill="#D4D4D4"/><g opacity=".19"><g opacity=".19"><path opacity=".19" d="M93.263 61.475a.627.627 0 0 1-.509-.27.605.605 0 0 1 .168-.843l24.778-16.64 8.177 1.353a.612.612 0 0 1 .503.702.603.603 0 0 1-.696.502l-7.701-1.275-24.379 16.368a.605.605 0 0 1-.341.103z" fill="#2D7C99"/><path opacity=".19" d="M96.34 66.06a.605.605 0 0 1-.592-.74l1.842-8.088 24.778-16.645a.604.604 0 0 1 .843.168.605.605 0 0 1-.167.843L98.672 57.973l-1.733 7.611a.612.612 0 0 1-.598.477z" fill="#2D7C99"/></g><g opacity=".19"><path opacity=".19" d="M100.887 65.262c-.477 0-.96-.045-1.443-.142a7.368 7.368 0 0 1-4.72-3.136 7.36 7.36 0 0 1-1.12-5.55 7.368 7.368 0 0 1 3.136-4.72 7.36 7.36 0 0 1 5.55-1.12 7.364 7.364 0 0 1 4.72 3.135 7.36 7.36 0 0 1 1.121 5.55 7.368 7.368 0 0 1-3.136 4.72 7.269 7.269 0 0 1-4.108 1.263zm-.026-13.58c-1.217 0-2.402.36-3.432 1.049a6.15 6.15 0 0 0-2.62 3.94 6.146 6.146 0 0 0 .933 4.637 6.15 6.15 0 0 0 3.94 2.62 6.148 6.148 0 0 0 4.637-.933 6.151 6.151 0 0 0 2.62-3.94 6.143 6.143 0 0 0-.933-4.637 6.15 6.15 0 0 0-3.941-2.62 6.416 6.416 0 0 0-1.204-.117zM117.358 54.193a7.407 7.407 0 0 1-6.156-3.271 7.36 7.36 0 0 1-1.12-5.551 7.368 7.368 0 0 1 3.136-4.72 7.359 7.359 0 0 1 5.55-1.12 7.364 7.364 0 0 1 4.72 3.136 7.36 7.36 0 0 1 1.121 5.55 7.368 7.368 0 0 1-3.136 4.72 7.348 7.348 0 0 1-4.115 1.256zm-.026-13.58c-1.217 0-2.401.36-3.432 1.05a6.151 6.151 0 0 0-2.62 3.94 6.147 6.147 0 0 0 .933 4.636c1.9 2.827 5.751 3.587 8.577 1.687 2.827-1.9 3.587-5.75 1.687-8.577a6.148 6.148 0 0 0-3.94-2.62 6.363 6.363 0 0 0-1.205-.117z" fill="#2D7C99"/></g><path opacity=".19" d="M102.181 51.714a.513.513 0 0 1-.457-.753l.212-.393a9.843 9.843 0 0 1 8.687-5.23v1.031a8.81 8.81 0 0 0-7.779 4.681l-.212.393a.508.508 0 0 1-.451.27z" fill="#2D7C99"/></g><path d="M91.337 60.02a.63.63 0 0 1-.521-.277.632.632 0 0 1 .174-.876l25.608-17.199 8.455 1.404c.341.058.573.38.521.72a.625.625 0 0 1-.727.516l-7.959-1.32L91.691 59.91a.654.654 0 0 1-.354.11z" fill="#626B82"/><path d="M94.518 64.753a1.06 1.06 0 0 1-.141-.013.628.628 0 0 1-.477-.753l1.9-8.358 25.608-17.2a.632.632 0 0 1 .702 1.05L96.927 56.395l-1.79 7.868a.632.632 0 0 1-.619.49z" fill="#626B82"/><g opacity=".51"><path opacity=".51" d="M105.027 52.37a7.01 7.01 0 0 1-1.912 9.737 7.01 7.01 0 0 1-9.736-1.913 7.01 7.01 0 0 1 1.912-9.736 7.006 7.006 0 0 1 9.736 1.912zM116.225 51.868a7.018 7.018 0 0 0 7.018-7.018 7.018 7.018 0 1 0-14.037 0 7.018 7.018 0 0 0 7.019 7.018z" fill="#fff"/></g><path d="M99.212 63.78c-.483 0-.972-.045-1.462-.141a7.445 7.445 0 0 1-4.777-3.175 7.448 7.448 0 0 1-1.134-5.621 7.462 7.462 0 0 1 3.175-4.778 7.449 7.449 0 0 1 5.621-1.133 7.446 7.446 0 0 1 4.778 3.174c2.305 3.432 1.385 8.094-2.041 10.4a7.43 7.43 0 0 1-4.16 1.274zm-.026-14.044c-1.287 0-2.543.38-3.631 1.114a6.484 6.484 0 0 0-2.77 4.173 6.48 6.48 0 0 0 .993 4.907 6.5 6.5 0 0 0 4.172 2.769 6.458 6.458 0 0 0 4.907-.992c2.994-2.01 3.792-6.085 1.783-9.08a6.482 6.482 0 0 0-4.172-2.768 7.256 7.256 0 0 0-1.282-.123zM116.238 52.345c-.483 0-.973-.045-1.462-.142a7.46 7.46 0 0 1-4.778-3.174 7.446 7.446 0 0 1-1.133-5.622 7.46 7.46 0 0 1 3.174-4.778 7.451 7.451 0 0 1 5.622-1.133 7.463 7.463 0 0 1 4.778 3.175 7.424 7.424 0 0 1 1.133 5.621 7.462 7.462 0 0 1-3.175 4.778 7.427 7.427 0 0 1-4.159 1.275zm-.026-14.044c-1.288 0-2.544.38-3.632 1.114a6.484 6.484 0 0 0-2.769 4.173 6.484 6.484 0 0 0 .992 4.906 6.482 6.482 0 0 0 4.173 2.769 6.484 6.484 0 0 0 4.906-.992 6.484 6.484 0 0 0 2.769-4.172 6.478 6.478 0 0 0-.992-4.907 6.483 6.483 0 0 0-4.172-2.769 7.13 7.13 0 0 0-1.275-.122z" fill="#626B82"/><path d="M100.552 49.872a.478.478 0 0 1-.425-.702l.219-.405a10.108 10.108 0 0 1 8.925-5.37c.264 0 .476.212.476.476a.47.47 0 0 1-.47.476 9.162 9.162 0 0 0-8.088 4.868l-.219.406a.471.471 0 0 1-.418.251z" fill="#626B82"/><path opacity=".19" d="M270.771 51.514c9.627 0 17.431-7.804 17.431-17.43 0-9.628-7.804-17.432-17.431-17.432s-17.431 7.804-17.431 17.431 7.804 17.431 17.431 17.431z" fill="#2D7C99"/><path d="M268.762 49.074c9.627 0 17.431-7.804 17.431-17.431s-7.804-17.431-17.431-17.431c-9.626 0-17.43 7.804-17.43 17.43 0 9.628 7.804 17.432 17.43 17.432z" fill="#E3F0F2"/><path d="M282.851 42.854a.931.931 0 0 1-.54-.174l-5.177-3.696a.938.938 0 0 1 1.088-1.526l5.177 3.696a.94.94 0 0 1 .219 1.307.966.966 0 0 1-.767.393z" fill="#fff"/><path d="M268.762 43.266c6.419 0 11.623-5.204 11.623-11.623s-5.204-11.623-11.623-11.623-11.622 5.204-11.622 11.623c0 6.42 5.203 11.623 11.622 11.623z" fill="#fff"/><path d="M268.763 41.321c5.345 0 9.678-4.333 9.678-9.678 0-5.345-4.333-9.678-9.678-9.678-5.346 0-9.679 4.333-9.679 9.678 0 5.345 4.333 9.678 9.679 9.678z" fill="#B38A5D"/><path d="M278.118 32.608c0 4.656-4.191 8.43-9.356 8.43-5.164 0-9.356-3.774-9.356-8.43 0-3.071 1.307-5.106 4.031-6.58 1.404-.76 4.038 0 5.795 0 2.177 0 3.014-.954 4.604.167.78.547 1.398.991 1.951 1.732 1.005 1.34 2.331 2.943 2.331 4.681z" fill="#61370B"/><path d="M263.714 30.664a1.153 1.153 0 1 0 0-2.306 1.153 1.153 0 0 0 0 2.306zM266.103 29.119a.766.766 0 1 0 0-1.533.766.766 0 0 0 0 1.533z" fill="#B38A5D"/><path opacity=".23" d="M259.542 36.582a7.463 7.463 0 1 0 0-14.927 7.463 7.463 0 0 0 0 14.927z" fill="#fff"/><path opacity=".23" d="M260.853 32.383c5.965-5.232 7.55-13.179 3.54-17.75-4.01-4.573-12.096-4.038-18.061 1.194s-7.55 13.179-3.54 17.75c4.01 4.573 12.096 4.038 18.061-1.194z" fill="#fff"/><path opacity=".19" d="M282.742 97.974L255.8 86.28a1.028 1.028 0 0 1-.534-1.352l11.912-27.45L296 69.995l-11.913 27.45c-.225.516-.83.754-1.345.529z" fill="#2D7C99"/><path d="M282.684 96.981l-28.829-12.504 12.512-28.829 28.828 12.512-12.511 28.822z" fill="#F0F0F0"/><path d="M292.948 73.337L264.12 60.825l2.247-5.177 28.828 12.512-2.247 5.177z" fill="url(#paint0_linear)"/><path opacity=".38" d="M274.454 61.941l-.32.739 10.597 4.597.321-.738-10.598-4.598z" fill="#FADDA3"/><path d="M271.17 60.8l-1.474-.637 1.771-4.083 1.474.644-1.771 4.076zM289.625 68.81l-1.475-.637 1.771-4.082 1.475.637-1.771 4.083z" fill="#3C3542"/><path d="M275.326 70.736l-3.609-1.566-1.566 3.609 3.609 1.566 1.566-3.609zM281.308 73.33l-3.609-1.565-1.566 3.609 3.609 1.566 1.566-3.61zM287.291 75.927l-3.609-1.567-1.567 3.61 3.609 1.566 1.567-3.61zM266.975 73.602l-3.609-1.566-1.566 3.61 3.609 1.565 1.566-3.609zM272.957 76.198l-3.609-1.566-1.566 3.609 3.609 1.566 1.566-3.609zM278.933 78.79l-3.609-1.566-1.566 3.609 3.609 1.566 1.566-3.61zM284.913 81.391l-3.609-1.566-1.567 3.61L283.346 85l1.567-3.609zM264.601 79.06l-3.609-1.566-1.567 3.61 3.609 1.565 1.567-3.609zM270.58 81.661l-3.609-1.566-1.566 3.609 3.609 1.566 1.566-3.609z" fill="#D8CCE8"/><path d="M276.563 84.256l-3.609-1.567-1.567 3.61 3.609 1.566 1.567-3.61z" fill="#FF4F70"/><path d="M289.692 90.94l-1.002-.89-1.595 1.795 1.001.89 1.596-1.796z" fill="#fff"/><path d="M278.763 102.731l11.487-12.93.464.412-11.076 12.466a.62.62 0 0 1-.875.052z" fill="#4B67A6"/><path opacity=".15" d="M266.038 118.41l-3.702 1.591 1.14-3.864 25.66-28.88a1.704 1.704 0 0 1 2.414-.141c.709.625.773 1.706.142 2.415l-25.654 28.879z" fill="#36367D"/><path d="M265.124 116.588l-2.556-2.273 25.66-28.88a1.705 1.705 0 0 1 2.415-.141c.708.624.772 1.706.141 2.415l-25.66 28.879z" fill="#4B67A6"/><path opacity=".17" d="M265.124 116.588l-1.281-1.14 26.793-30.16c.709.624.773 1.706.142 2.414l-25.654 28.886z" fill="#175196"/><path d="M280.861 98.885l-2.561-2.276-.565.636 2.561 2.275.565-.635zM261.551 118.275l-.271-.238 1.443-3.587 2.215 1.971-3.387 1.854z" fill="#fff"/><path opacity=".09" d="M261.551 118.276l-.271-.239 2.788-2.389.87.773-3.387 1.855z" fill="#36367D"/><path d="M261.113 118.494a.069.069 0 0 1-.02-.083l.406-1.005.65.58-.953.521a.068.068 0 0 1-.083-.013z" fill="#177FFF"/><g opacity=".59"><path opacity=".19" d="M266.56 101.045l-8.538-15.306c-1.05-1.88-2.666-3.362-4.604-4.199l-.792-.341-.032-44.083c0-1.468-1.153-2.665-2.576-2.659l-125.107.02c-1.423 0-2.575 1.19-2.569 2.665l.032 44.07-.76.328a9.74 9.74 0 0 0-4.604 4.199l-8.538 15.306a73.156 73.156 0 0 0-7.006 17.662l-4.082 16.169h28.693a61.956 61.956 0 0 0 2.363-3.265l6.935-12.724c.869-1.596 2.505-2.582 4.275-2.582h11.907a3.198 3.198 0 0 0 2.446-1.127c.181-.206.335-.431.464-.669.026-.052.052-.097.071-.148.212-.451.328-.953.328-1.488v-.058c0-.315-.045-.624-.122-.914l65.518-.013a3.67 3.67 0 0 0-.122.927v.058c0 .535.116 1.037.329 1.488l.07.148c.129.245.284.47.464.669.18.207.38.387.599.541.09.065.18.116.27.174a3.22 3.22 0 0 0 1.578.412h11.906c1.771 0 3.406.986 4.275 2.582l6.935 12.724a66.27 66.27 0 0 0 2.364 3.265h28.693l-4.083-16.169a72.15 72.15 0 0 0-6.98-17.662z" fill="#3E5C6E"/></g><path d="M223.946 90.265s-5.042-.85-4.482-4.16c.586-3.483 4.482-2.196 4.482-2.196v6.356zM225.426 82.97s-5.003-.832-4.481-4.16c.547-3.49 4.481-2.196 4.481-2.196v6.355z" fill="#EBBE8F"/><path d="M287.088 134.876l-8.19-10.986a7.408 7.408 0 0 1-1.243-2.582l-3.96-15.151a67.081 67.081 0 0 0-6.787-16.542l-8.275-14.34a9.285 9.285 0 0 0-4.462-3.935l-11.526-4.842 10.753 16.471-5.177 14.456h-23.026a3.265 3.265 0 0 0-3.265 3.265 3.21 3.21 0 0 0 3.213 3.213h11.546c1.719 0 3.303.927 4.147 2.421l6.722 11.919A57.16 57.16 0 0 0 259 130.375l4.012 4.501h24.076z" fill="#FAA284"/><path opacity=".44" d="M270.836 134.875l-16.214-33.953 15.138 7.366-9.697-8.944-4.533-4.179-.606-6.175-1.526-15.538-5.177 23.98h-23.078a3.21 3.21 0 0 0-3.213 3.213v.051a3.21 3.21 0 0 0 3.213 3.213h11.546c1.719 0 3.303.928 4.147 2.422l6.722 11.918A57.136 57.136 0 0 0 259 130.381l4.012 4.501h7.824v-.007z" fill="#E5785C"/><path d="M150.629 90.265s5.042-.85 4.482-4.16c-.586-3.483-4.482-2.196-4.482-2.196v6.356zM149.148 82.97s5.004-.832 4.482-4.16c-.547-3.49-4.482-2.196-4.482-2.196v6.355z" fill="#EBBE8F"/><path d="M87.487 134.876l8.19-10.986a7.427 7.427 0 0 0 1.243-2.582l3.96-15.151a67.043 67.043 0 0 1 6.787-16.542l8.275-14.34a9.285 9.285 0 0 1 4.462-3.935l11.526-4.842-10.753 16.471 5.177 14.456h23.026a3.265 3.265 0 0 1 3.265 3.265 3.21 3.21 0 0 1-3.213 3.213h-11.546a4.764 4.764 0 0 0-4.147 2.421l-6.722 11.919a57.139 57.139 0 0 1-11.443 12.132l-4.011 4.501H87.487z" fill="#FAA284"/><path opacity=".44" d="M103.739 134.875l16.214-33.953-15.145 7.366 9.698-8.944 4.533-4.179.605-6.175 1.526-15.538 5.177 23.98h23.078a3.21 3.21 0 0 1 3.213 3.213v.051a3.21 3.21 0 0 1-3.213 3.213h-11.539a4.765 4.765 0 0 0-4.147 2.422l-6.722 11.918a57.115 57.115 0 0 1-11.443 12.132l-4.011 4.501h-7.824v-.007z" fill="#E5785C"/><path d="M123.649 99.788l127.277-.025a2.495 2.495 0 0 0 2.492-2.499l-.045-74.205a2.495 2.495 0 0 0-2.498-2.492l-127.277.026a2.495 2.495 0 0 0-2.492 2.498l.045 74.212a2.493 2.493 0 0 0 2.498 2.486z" fill="#48404E"/><path opacity=".23" d="M215.846 94.656l-57.161.013" stroke="#fff" stroke-width="1.225" stroke-miterlimit="10" stroke-linecap="round"/><mask id="a" maskUnits="userSpaceOnUse" x="164" y="22" width="75" height="76"><path d="M238.415 97.637h-73.619l36.813-74.874h36.806v74.874z" fill="url(#paint1_linear)"/></mask><g mask="url(#a)"><path opacity=".06" d="M250.398 97.638h-83.4l55.589-74.869h27.811c.496 0 .895.4.895.896v73.071a.898.898 0 0 1-.895.902z" fill="url(#paint2_linear)"/></g><path d="M105.401 131.45l7.45-4.198a23.147 23.147 0 0 0 11.976-17.334 9.384 9.384 0 0 1 4.643-6.903l8.77-6.233a4.361 4.361 0 0 0-4.501-7.399l-.985.45a79.019 79.019 0 0 0-13.851 8.127l-14.095 10.329.593 23.161z" fill="#FAA284"/><path d="M138.175 95.867a3.562 3.562 0 0 0 1.346-2.357 3.544 3.544 0 0 0-.683-2.627 3.625 3.625 0 0 0-2.891-1.455c-.521 0-1.024.11-1.494.328l-1.732.792 4.128 6.266 1.326-.947z" fill="#FFD1C2"/><path d="M135.954 89.525a3.523 3.523 0 0 1 2.814 1.417c.547.74.786 1.648.663 2.556a3.496 3.496 0 0 1-1.307 2.292l-1.243.883-4.005-6.085 1.629-.747a3.475 3.475 0 0 1 1.449-.316zm0-.193c-.515 0-1.043.11-1.539.335l-1.835.843 4.243 6.446 1.417-1.005a3.702 3.702 0 0 0-2.286-6.619zM269.174 131.45l-7.45-4.198a23.151 23.151 0 0 1-11.977-17.334 9.38 9.38 0 0 0-4.642-6.903l-8.77-6.233a4.361 4.361 0 0 1 4.501-7.399l.985.45a78.974 78.974 0 0 1 13.85 8.127l14.089 10.329-.586 23.161z" fill="#FAA284"/><path d="M236.4 95.869a3.562 3.562 0 0 1-1.346-2.357 3.544 3.544 0 0 1 .683-2.627 3.626 3.626 0 0 1 2.891-1.455c.521 0 1.024.11 1.494.328l1.732.792-4.128 6.265-1.326-.946z" fill="#FFD1C2"/><path d="M238.62 89.525c.503 0 .992.11 1.456.316l1.629.747-4.005 6.085-1.243-.883a3.481 3.481 0 0 1-1.307-2.292 3.45 3.45 0 0 1 .663-2.556 3.523 3.523 0 0 1 2.807-1.417zm0-.193a3.703 3.703 0 0 0-2.279 6.62l1.417 1.004 4.243-6.446-1.835-.843a3.756 3.756 0 0 0-1.546-.335z" fill="#F2C494"/><path opacity=".25" d="M244.435 87.663H137.796a2.575 2.575 0 0 1-2.576-2.575V20.58h111.797v64.508a2.588 2.588 0 0 1-2.582 2.575z" fill="#063438"/><path d="M240.314 83.606H133.668a2.574 2.574 0 0 1-2.575-2.575V9.13H242.89v71.9a2.575 2.575 0 0 1-2.576 2.575z" fill="#fff"/><path d="M243.018 14.927h-111.79V9.576A2.574 2.574 0 0 1 133.803 7h106.646a2.574 2.574 0 0 1 2.575 2.576v5.35h-.006z" fill="#0046B4"/><path d="M136.376 11.293a1.43 1.43 0 1 0-2.783-.66 1.43 1.43 0 0 0 2.783.66zM140.786 11.293a1.43 1.43 0 1 0-2.78-.662 1.43 1.43 0 0 0 2.78.662zM145.197 11.292a1.43 1.43 0 1 0-2.78-.662 1.43 1.43 0 0 0 2.78.662z" fill="#6896DE"/><path d="M231.016 24.502h-21.031v.683h21.031v-.683zM163.218 24.502h-21.03v.683h21.03v-.683zM142.359 64.476l-.005.664 3.639.026.004-.663-3.638-.027zM147.784 64.51l-.001.663 16.845.02.001-.663-16.845-.02zM166.405 64.526l-.001.663 3.638.007.001-.663-3.638-.007zM142.357 68.65l-.005.663 3.117.026.005-.664-3.117-.025zM147.359 68.679l-.002.663 3.381.005.001-.663-3.38-.005z" fill="#D4D4D4"/><path d="M149.228 68.683v.664l20.805.025v-.663l-20.805-.026zM142.345 72.825l-.001.663 9.286.016.001-.663-9.286-.016zM160.271 72.854l-.001.664 9.755.023.001-.663-9.755-.024zM174.132 35.311l-.001.664 9.285.015.001-.663-9.285-.016zM185.187 35.346l-.001.664 16.626.02.001-.663-16.626-.02zM174.13 39.483l-.002.664 11.726.023.001-.663-11.725-.024z" fill="#D4D4D4"/><path d="M179.555 39.51l-.001.663 17.296.02.001-.663-17.296-.02zM198.175 39.532l-.001.663 3.638.006.001-.663-3.638-.006zM174.126 43.647l-.005.663 3.116.026.006-.663-3.117-.026zM179.128 43.677l-.002.663 3.381.005.001-.663-3.38-.005z" fill="#D4D4D4"/><path d="M180.998 43.682l-.001.664 20.805.026.001-.664-20.805-.026zM174.114 47.824l-.001.663 8.384.015.001-.663-8.384-.015z" fill="#D4D4D4"/><path d="M179.257 47.827l-.005.663 3.245.026.006-.663-3.246-.026zM184.184 47.86l-.001.663 17.611.02.001-.663-17.611-.02zM174.107 51.997l-.001.663 4.977.008.002-.663-4.978-.008zM181.872 52.008l-2.756.018.004.664 2.756-.019-.004-.663z" fill="#D4D4D4"/><path d="M181.428 52.03l-.001.662 20.361.025.001-.663-20.361-.025zM194.106 56.176H174.1v.663h20.006v-.663zM196.19 56.2l-.003.663 5.596.022.002-.664-5.595-.021zM174.092 60.338l-.001.663 9.285.015.001-.663-9.285-.015z" fill="#D4D4D4"/><path d="M179.6 60.347l-2.273.02.006.663 2.273-.02-.006-.663z" fill="#D4D4D4"/><path d="M179.335 60.364l-.001.663 22.441.029.001-.664-22.441-.028zM174.086 64.51l-.001.663 9.285.015.001-.663-9.285-.015zM185.185 64.544v.663l16.58.02.001-.663-16.581-.02zM174.079 68.683l-.002.664 4.984.017.002-.664-4.984-.017zM201.762 68.726h-21.21v.663h21.21v-.663zM205.902 35.308l-.001.664 8.648.015.001-.663-8.648-.016zM224.054 35.325l-8.081.016.001.663 8.082-.015-.002-.663z" fill="#D4D4D4"/><path d="M215.976 35.342v.663l17.611.02v-.663l-17.611-.02zM205.897 39.476l-.004.664 3.638.026.005-.663-3.639-.027zM211.323 39.507l-.001.663 17.296.02.001-.664-17.296-.02z" fill="#D4D4D4"/><path d="M233.578 39.531h-9.169v.663h9.169v-.663zM205.891 43.653l-.002.663 10.702.023.001-.663-10.701-.023z" fill="#D4D4D4"/><path d="M210.898 43.673l-.002.663 3.381.006.001-.664-3.38-.005z" fill="#D4D4D4"/><path d="M212.767 43.678l-.001.663 20.805.026.001-.664-20.805-.025zM205.883 47.82l-.001.663 9.286.016.001-.664-9.286-.015z" fill="#D4D4D4"/><path d="M211.026 47.822l-.005.663 3.245.026.006-.663-3.246-.026zM223.396 47.853l-.001.664 10.167.02.001-.663-10.167-.02zM205.876 51.992l-.001.663 4.977.01.002-.664-4.978-.009zM213.643 52.003l-2.756.016.003.663 2.756-.016-.003-.663z" fill="#D4D4D4"/><path d="M213.197 52.025l-.001.663 20.36.025.001-.663-20.36-.025zM205.87 56.166l-.001.663 5.705.015.002-.663-5.706-.015zM223.38 56.179l-.021.663 1.204.038.021-.663-1.204-.038z" fill="#D4D4D4"/><path d="M213.908 56.198l-.001.663 19.64.021v-.663l-19.639-.02zM205.867 60.334l-.001.663 9.286.015.001-.663-9.286-.015z" fill="#D4D4D4"/><path d="M211.373 60.34l-2.273.022.006.663 2.273-.021-.006-.663z" fill="#D4D4D4"/><path d="M211.104 60.36l-.001.663 22.441.029v-.663l-22.44-.029zM205.859 64.508l-.002.663 8.384.016.001-.664-8.383-.015zM216.383 64.54l-.001.664 17.154.02.001-.663-17.154-.02zM229.393 68.688h-23.542v.663h23.542v-.663z" fill="#D4D4D4"/><path d="M211.458 68.678l-.006.663 2.781.026.007-.664-2.782-.025zM215.925 68.71l-.001.664 17.611.02.001-.663-17.611-.02zM225.877 72.86h-20.032v.664h20.032v-.664zM142.358 72.821l-.005.663 3.117.026.005-.664-3.117-.025zM201.781 72.873h-27.707v.663h27.707v-.663z" fill="#D4D4D4"/><path d="M226.431 72.861h-20.58v.664h20.58v-.664z" fill="#D4D4D4"/><path d="M211.459 72.849l-.006.663 2.782.026.006-.663-2.782-.026z" fill="#D4D4D4"/><path d="M155.677 62.48c-7.727 0-13.992-6.266-13.992-13.993s6.265-13.992 13.992-13.992c7.727 0 13.993 6.265 13.993 13.992 0 7.727-6.266 13.993-13.993 13.993z" fill="#0046B4"/><path d="M165.079 27.703V22.08h1.165l1.449 2.408c.373.625.702 1.275.959 1.88h.02a26.2 26.2 0 0 1-.09-2.33V22.08h.953v5.622h-1.056l-1.469-2.467a19.402 19.402 0 0 1-1.011-1.944l-.025.006c.038.728.051 1.468.051 2.389v2.009h-.946v.006zM173.855 25.21h-2.118v1.649h2.369v.843h-3.393v-5.62h3.265v.843h-2.241v1.448h2.118v.837zM175.98 27.703l-1.378-5.622h1.095l.534 2.55c.142.683.277 1.404.367 1.958h.02c.09-.593.251-1.256.405-1.97l.605-2.544h1.076l.56 2.582c.142.67.258 1.294.341 1.9h.02c.103-.619.231-1.256.386-1.945l.586-2.544h1.043l-1.507 5.622h-1.101l-.586-2.64a16 16 0 0 1-.309-1.784h-.019c-.103.599-.206 1.14-.374 1.784l-.65 2.64h-1.114v.013zM182.258 26.588c.335.193.831.36 1.359.36.657 0 1.024-.308 1.024-.765 0-.425-.284-.677-.998-.934-.928-.335-1.52-.824-1.52-1.636 0-.914.766-1.616 1.983-1.616.605 0 1.056.135 1.352.283l-.251.818a2.363 2.363 0 0 0-1.114-.264c-.65 0-.933.348-.933.676 0 .432.328.631 1.075.927.972.367 1.449.857 1.449 1.668 0 .902-.683 1.687-2.132 1.687-.592 0-1.21-.167-1.519-.347l.225-.857zM186.604 22.158c.387-.065.96-.116 1.552-.116.812 0 1.359.135 1.732.45.31.258.483.651.483 1.128 0 .727-.489 1.217-1.017 1.41v.025c.399.149.644.541.786 1.082.173.702.322 1.352.444 1.565h-1.056c-.084-.167-.219-.625-.374-1.326-.161-.735-.425-.966-1.011-.986h-.515v2.312h-1.017v-5.544h-.007zm1.018 2.485h.605c.689 0 1.127-.367 1.127-.927 0-.618-.431-.901-1.101-.901-.328 0-.535.025-.631.051v1.777zM196.334 24.837c0 1.886-1.14 2.962-2.691 2.962-1.584 0-2.582-1.21-2.582-2.86 0-1.725 1.081-2.942 2.665-2.942 1.642-.006 2.608 1.236 2.608 2.84zm-4.192.084c0 1.14.573 2.054 1.559 2.054.991 0 1.551-.915 1.551-2.093 0-1.056-.528-2.06-1.551-2.06-1.018-.007-1.559.94-1.559 2.099zM202.2 24.837c0 1.886-1.139 2.962-2.691 2.962-1.584 0-2.582-1.21-2.582-2.86 0-1.725 1.082-2.942 2.666-2.942 1.642-.006 2.607 1.236 2.607 2.84zm-4.191.084c0 1.14.573 2.054 1.558 2.054.991 0 1.552-.915 1.552-2.093 0-1.056-.528-2.06-1.552-2.06-1.018-.007-1.558.94-1.558 2.099zM207.828 25.41c-.032-.728-.077-1.604-.064-2.357h-.026c-.18.682-.418 1.442-.67 2.15l-.817 2.434h-.792l-.747-2.401a25.905 25.905 0 0 1-.567-2.183h-.019c-.026.734-.058 1.622-.103 2.395l-.123 2.26h-.959l.373-5.621h1.353l.734 2.26c.199.657.373 1.326.515 1.951h.026c.148-.605.341-1.3.56-1.957l.773-2.254h1.332l.322 5.621h-.998l-.103-2.298z" fill="#A1A1A1"/><path d="M146.18 52.196a3.303 3.303 0 1 0 0-6.606 3.303 3.303 0 0 0 0 6.606z" fill="#fff"/><path d="M146.18 51.978a3.084 3.084 0 1 0 0-6.167 3.084 3.084 0 0 0 0 6.167z" fill="#fff"/><path d="M143.16 49.531c.11.516.341.98.67 1.359a4.938 4.938 0 0 1 4.816-3.85 1.917 1.917 0 0 0-.148-.18 4.942 4.942 0 0 0-5.338 2.672z" fill="#0046B4"/><path d="M144.796 51.65c.418.212.889.328 1.384.328a3.08 3.08 0 0 0 3.085-3.084c0-.586-.161-1.127-.445-1.597a4.93 4.93 0 0 0-4.024 4.353zM146.972 46.42c.431 0 .856.059 1.256.162a3.085 3.085 0 0 0-2.048-.78 3.086 3.086 0 0 0-3.007 2.409 4.922 4.922 0 0 1 3.799-1.79z" fill="#46B400"/><path d="M149.966 46.247h2.145v.58h-1.469v1.05h1.224v.579h-1.224v1.494h-.669v-3.703h-.007zM153.765 47.251c-.405 0-.727.303-.843.683h-.013s.013-.09.013-.187v-.444h-.638v2.646h.663v-1.056c0-.155.013-.303.058-.431.123-.4.445-.56.728-.56.09 0 .155.012.155.012v-.65s-.058-.013-.123-.013zM155.278 47.226c.767 0 1.179.56 1.179 1.262 0 .077-.013.257-.013.257h-1.835c.038.464.399.702.798.702.425 0 .766-.29.766-.29l.258.477s-.406.38-1.069.38c-.882 0-1.429-.638-1.429-1.391 0-.824.553-1.397 1.345-1.397zm.516 1.069c-.013-.361-.232-.554-.528-.554-.342 0-.574.206-.638.553h1.166zM157.983 47.226c.766 0 1.178.56 1.178 1.262 0 .077-.013.257-.013.257h-1.835c.038.464.399.702.798.702.425 0 .767-.29.767-.29l.257.477s-.406.38-1.069.38c-.882 0-1.429-.638-1.429-1.391 0-.824.553-1.397 1.346-1.397zm.515 1.069c-.013-.361-.232-.554-.528-.554-.342 0-.573.206-.638.553h1.166zM164.95 48.282h.09v-.039c0-.348-.219-.47-.509-.47-.379 0-.727.258-.727.258l-.251-.477s.412-.328 1.043-.328c.695 0 1.107.386 1.107 1.056v1.66h-.611v-.218c0-.103.013-.187.013-.187h-.013c.006 0-.206.47-.805.47-.477 0-.902-.296-.902-.83-.006-.837 1.134-.895 1.565-.895zm-.502 1.217c.347 0 .599-.374.599-.696v-.064h-.116c-.342 0-.889.045-.889.418 0 .174.135.342.406.342zM167.751 47.302l-.515 1.526c-.045.142-.09.348-.09.348h-.013s-.045-.219-.097-.36l-.554-1.52h-.747l1.114 2.601-.083.2c-.097.232-.277.341-.458.341-.148 0-.296-.11-.296-.11l-.219.497s.232.173.554.173c.393 0 .753-.2.947-.656l1.184-3.046h-.727v.006zM162.645 47.303l-.458 1.732c-.038.142-.058.283-.058.283h-.012s-.02-.142-.058-.283l-.49-1.732h-.592l-.49 1.732c-.038.142-.064.283-.064.283h-.013s-.013-.142-.051-.283l-.458-1.732h-.695l.811 2.646h.741l.451-1.52c.038-.141.064-.29.064-.29h.013s.026.149.071.29l.45 1.52h.735l.804-2.646h-.701zM149.966 50.477h.193v1.057h-.193v-1.056zM151.241 50.477h.193l.4.611c.038.058.09.161.09.161s-.013-.103-.013-.16v-.612h.193v1.056h-.193l-.399-.612c-.039-.058-.09-.161-.09-.161s.012.103.012.16v.613h-.193v-1.056zM153.289 51.263s.116.109.264.109c.077 0 .154-.039.154-.129 0-.187-.502-.154-.502-.483 0-.174.154-.309.354-.309.206 0 .316.116.316.116l-.084.155s-.103-.09-.232-.09c-.09 0-.161.051-.161.128 0 .187.496.142.496.477 0 .167-.129.309-.348.309-.238 0-.367-.142-.367-.142l.11-.142zM154.976 50.477h.193v.676c0 .142.09.22.232.22.142 0 .238-.078.238-.226v-.676h.193v.676c0 .238-.173.399-.424.399-.258 0-.425-.16-.425-.4v-.669h-.007zM156.908 50.477h.341c.116 0 .167.006.212.032.104.045.174.148.174.29 0 .128-.064.244-.18.29 0 0 .013.012.039.05l.219.394h-.213l-.212-.393h-.187v.393h-.193v-1.056zm.367.495c.103 0 .167-.058.167-.167 0-.103-.045-.161-.193-.161h-.148v.328h.174zM159.451 51.262h-.373l-.09.27h-.2l.374-1.055h.199l.374 1.056h-.2l-.084-.27zm-.186-.599s-.026.103-.045.161l-.097.284h.277l-.097-.284a12.607 12.607 0 0 0-.038-.16zM160.816 50.477h.194l.399.611c.038.058.09.161.09.161s-.013-.103-.013-.16v-.612h.193v1.056h-.193l-.399-.612c-.039-.058-.09-.161-.09-.161s.013.103.013.16v.613h-.194v-1.056zM163.308 50.458c.258 0 .393.142.393.142l-.09.141s-.123-.11-.29-.11c-.225 0-.354.168-.354.361 0 .2.135.38.354.38.18 0 .309-.135.309-.135l.103.142s-.148.174-.418.174a.533.533 0 0 1-.548-.554.525.525 0 0 1 .541-.541zM164.802 50.477h.593v.167h-.4v.277h.355v.167h-.355v.284h.4v.167h-.593v-1.062zM168.221 50.703c-.007-.019-.013-.019-.013-.019a.094.094 0 0 0 .064-.09c0-.065-.045-.11-.116-.11h-.148v.355h.084v-.13h.045l.058.13h.09l-.064-.136zm-.084-.064h-.045v-.103h.045c.032 0 .052.02.052.051 0 .033-.02.052-.052.052z" fill="#fff"/><path d="M168.124 50.304a.357.357 0 0 0-.354.354c0 .193.161.354.354.354a.357.357 0 0 0 .354-.354c0-.2-.161-.354-.354-.354zm0 .611a.261.261 0 0 1-.264-.264c0-.148.116-.264.264-.264.148 0 .264.116.264.264a.261.261 0 0 1-.264.264z" fill="#fff"/></g><defs><linearGradient id="paint0_linear" x1="273.927" y1="62.006" x2="302.752" y2="74.516" gradientUnits="userSpaceOnUse"><stop stop-color="#EDA03C"/><stop offset="1" stop-color="#F5211B"/></linearGradient><linearGradient id="paint1_linear" x1="216.189" y1="36.213" x2="198.264" y2="111.719" gradientUnits="userSpaceOnUse"><stop stop-color="#fff"/><stop offset="1"/></linearGradient><linearGradient id="paint2_linear" x1="223.775" y1="35.62" x2="205.395" y2="113.046" gradientUnits="userSpaceOnUse"><stop stop-color="#fff"/><stop offset="1" stop-color="#fff"/></linearGradient><clipPath id="clip0"><path fill="#fff" transform="translate(79 7)" d="M0 0h217v127.875H0z"/></clipPath></defs></svg>