<svg width="1600" height="323" fill="none" xmlns="http://www.w3.org/2000/svg" viewBox="0 0 1600 323"><path fill="#F5FCFF" d="M0 0h1600v322H0z"/><g clip-path="url(#clip0)"><path d="M993.96 314.06c.19 2.71.44 5.41.74 8.11h14.03a54.22 54.22 0 0 0 4.87-6.48c-6.37 2.66-13.79 2.01-19.64-1.63zM993.14 262.24c.06.52.11 1.05.16 1.59.82 1.65 1.69 3.52 2.64 5.69 6.49-.47 10.29-7.5 12.84-12.77 2.55-5.27 4.38-10.84 5.58-16.55-1.84-7.35-4.88-12.38-8.36-15.79-.14 6.39-.65 12.8-1.9 18.98-1.5 7.35-4.86 14.38-10.96 18.85zM1001.13 294.23c-.76 2.12-1.69 4.47-2.69 6.86 7.33 1.49 15.26.89 22.1-2.12.87-3.82 1.38-7.99 1.42-12.51-5.37 5.54-13.07 8.44-20.83 7.77z" fill="#2C9BD0"/><path d="M992.93 223.82c-.39 5.03-1.73 11.24-4.16 17.15 1.11 3.47 2.12 7.38 2.96 11.78.21 1.08.4 2.2.58 3.34.13.82.26 1.65.38 2.5 5.24-4.58 7.7-11.47 8.8-18.32.97-6.07 1.33-12.27 1.39-18.46a23.603 23.603 0 0 0-4.63-2.5c-.97 1.61-2.86 3.11-5.32 4.51zM1002.02 283.81c.3.72.61 1.45.92 2.2.32.77-.03 2.66-.79 5.17 7.67.44 15.22-3.18 19.7-9.46-.26-4.3-.93-8.9-2.11-13.81-.02-.09-.05-.18-.07-.27-3.68 7.65-9.13 14.43-17.65 16.17z" fill="#2C9BD0"/><path d="M997.26 272.53c1.04 2.43 2.2 5.19 3.52 8.34 9.2-1.47 14.39-9.93 17.64-18.17-1.19-4.97-2.08-10.02-2.73-15.11-1.44 4.73-3.33 9.33-5.71 13.69-2.75 5.06-6.87 10.29-12.72 11.25zM997.18 304.06c-.97 2.22-1.96 4.42-2.91 6.43 6.2 4.76 14.99 4.93 21.47.45.23-.16.46-.24.67-.26a52.76 52.76 0 0 0 3.13-7.91c-7.08 2.53-15.03 2.9-22.36 1.29z" fill="#2C9BD0"/><path d="M992.68 258.59c.17 1.19.32 2.4.46 3.65 6.1-4.46 9.46-11.49 10.96-18.85 1.26-6.19 1.77-12.59 1.9-18.98-1.01-.99-2.06-1.86-3.13-2.59-.06 6.19-.42 12.39-1.39 18.46-1.09 6.84-3.56 13.73-8.8 18.31z" fill="#fff"/><path d="M995.95 269.52c.42.95.85 1.95 1.31 3.01 5.85-.96 9.97-6.19 12.73-11.25 2.38-4.36 4.26-8.96 5.71-13.69-.02-.18-.05-.37-.07-.55-.31-2.48-.74-4.75-1.26-6.84-1.2 5.72-3.03 11.28-5.58 16.55-2.55 5.26-6.35 12.29-12.84 12.77z" fill="#0AB9B9"/><path d="M1000.79 280.87c.4.95.8 1.92 1.23 2.94 8.52-1.75 13.97-8.52 17.65-16.17-.19-.78-.38-1.55-.58-2.3-.23-.88-.45-1.76-.66-2.64-3.26 8.25-8.44 16.71-17.64 18.17z" fill="#fff"/><path d="M1002.15 291.18c-.29.94-.63 1.96-1.02 3.05a26.03 26.03 0 0 0 20.84-7.77c.01-1.54-.02-3.12-.12-4.74-4.49 6.28-12.03 9.91-19.7 9.46z" fill="#0AB9B9"/><path d="M998.44 301.09c-.41.99-.84 1.98-1.26 2.96 7.33 1.61 15.28 1.24 22.37-1.3.37-1.22.71-2.48 1-3.78-6.85 3.01-14.77 3.61-22.11 2.12z" fill="#fff"/><path d="M994.27 310.49c-.16.34-.32.67-.47 1 .02.44.05.89.08 1.33.03.41.05.83.08 1.24 5.86 3.65 13.27 4.29 19.63 1.63 1-1.57 1.95-3.24 2.83-5.02-.22.03-.44.11-.67.26-6.49 4.49-15.28 4.31-21.48-.44z" fill="#0AB9B9"/><path d="M934.58 252.84c.08-1.12.15-2.21.21-3.28.15-2.59.26-5.05.34-7.36-4.63 1.17-7.55 1.86-7.55 1.86s.35 6.98.68 16.83l6.29-7.75c.02-.09.03-.2.03-.3z" fill="#2C9BD0"/><path d="M813.24 257.29h-.07c-1.03-.05-2.04-.12-3.02-.19 3.63 5.51 6.41 9.08 6.41 9.08l-.16-8.79c-1.07-.02-2.12-.05-3.16-.1z" fill="#FF8868"/><path d="M951.04 194.37c-3.01-2.81-4.94-6.97-5.29-12.51-2.9 9.15-4.68 20.78 1.59 27.61 1.1-.09 2.21-.17 3.32-.25l.38-14.85z" fill="#9F5E39"/><path d="M632.47 193.37c.57-1.44 1.15-2.84 1.74-4.21-.7.85-1.31 2.2-1.74 4.21z" fill="#2C9BD0"/><path d="M645.87 313.02c-.15-.02-.31-.03-.46-.04l-1.01-.09c-.18-.02-.35-.03-.53-.05l-1.02-.09c-.16-.01-.33-.03-.49-.04l-1.22-.09c-.1-.01-.2-.02-.3-.02-.51-.04-1.02-.07-1.53-.11l-.41-.03c-.38-.02-.76-.05-1.14-.07l-.53-.03-1.05-.06-.54-.03-1.15-.06c-.13-.01-.27-.01-.4-.02-.52-.03-1.04-.05-1.56-.07-.09 0-.18-.01-.27-.01-.43-.02-.86-.04-1.28-.05-.17-.01-.34-.01-.51-.02-.35-.01-.7-.03-1.05-.04-.18-.01-.36-.01-.54-.02-.36-.01-.71-.02-1.06-.04-.15 0-.3-.01-.45-.01-1.01-.03-2-.06-2.97-.08-.14 0-.27-.01-.41-.01-.34-.01-.69-.02-1.02-.02-.17 0-.35-.01-.52-.01-.31-.01-.62-.01-.92-.02-.15 0-.31-.01-.46-.01-.4-.01-.79-.01-1.17-.02h-.15c-.45-.01-.89-.01-1.32-.02h-.31c-.32 0-.63-.01-.94-.01h-.44c-.25 0-.5 0-.74-.01h-6.32c-.76.31-1.52.33-2.27.02 0 0-1.47 3.5-3.7 10.46h42.89c-.01-2.43.12-5.67.7-9-.47-.08-.95-.13-1.43-.18z" fill="#063155"/><path d="M641.73 216.31l-.93-.63c-.43.15-.85.28-1.25.41.62.07 1.35.14 2.18.22zM609.58 269.35c.36-.08.73-.15 1.11-.22h.02l1.14-.21h.01c.02 0 .04-.01.06-.01 1.32-.23 2.75-.44 4.28-.66.51-.07 1.03-.14 1.57-.22.94-.13 1.92-.26 2.93-.39a510.738 510.738 0 0 0 6.65-.93c1.31-.2 2.66-.41 4.06-.64.74-.12 1.49-.25 2.26-.39.57-.1 1.11-.22 1.65-.34 1.63-.37 3.12-.82 4.5-1.34 1.39-.52 2.66-1.11 3.82-1.76.74-.41 1.44-.84 2.09-1.29.66-.45 1.27-.91 1.84-1.38.29-.24.56-.48.83-.72.8-.73 1.52-1.47 2.17-2.22-10.72-3.72-9.06-18.74-3.62-24.42-4.13-3.04-7.46-5.8-9.82-7.47-.47-.34-.91-.63-1.3-.87-.2-.12-.38-.23-.56-.33-.53-.29-.97-.45-1.31-.48 0 0-1.26.33-2.9.46-.01.05-.02.1-.02.15-.11.68-.22 1.35-.34 2.03-.02.08-.03.17-.05.25-.12.64-.24 1.28-.37 1.92 0 .02-.01.05-.02.07-.29 1.41-.62 2.81-.98 4.19-2.14 8.21-5.4 15.75-9.36 21.7-2.99 4.49-6.37 8.06-9.95 10.35l-1.29 5.38.66-.15c.09-.02.16-.04.24-.06zM609.63 311.7h6.32c.24 0 .49 0 .74.01h.44c.31 0 .62.01.94.01h.31c.43.01.87.01 1.32.02h.15c.39.01.78.01 1.17.02.15 0 .31.01.46.01.3.01.61.01.92.02.17 0 .35.01.52.01.34.01.68.02 1.02.02.14 0 .27.01.41.01.97.02 1.97.05 2.97.08.15 0 .3.01.45.01.35.01.71.02 1.06.04.18.01.36.01.54.02.35.01.7.03 1.05.04.17.01.34.01.51.02.43.02.85.03 1.28.05.09 0 .18.01.27.01.52.02 1.04.05 1.56.07.13.01.27.01.4.02l1.15.06.54.03 1.05.06.53.03c.38.02.76.05 1.14.07l.41.03c.51.03 1.02.07 1.53.11.1.01.2.02.3.02l1.22.09c.16.01.33.03.49.04l1.02.09c.18.02.35.03.53.05l1.01.09c.15.01.31.03.46.04l1.43.15c.14-.78.3-1.57.49-2.36.57-2.36 1.39-4.67 2.58-6.7 5.01-8.56 5.54-23.96 5.54-23.96s-.28.09-.79.27c-.94.32-2.69.93-5.05 1.76-1.29.45-2.77.98-4.41 1.56-.96.34-1.98.7-3.05 1.09-1.22.44-2.51.9-3.84 1.38-.93.34-1.88.68-2.86 1.04-1.31.47-2.65.97-4.03 1.47-.26.09-.51.19-.77.28-1.74.64-3.31 1.09-4.74 1.4-1.27.27-2.42.42-3.48.48-.52.03-1.01.03-1.48.01-.17-.01-.33-.01-.5-.02-.09-.01-.18-.01-.26-.01v-.01c-1.41-.11-2.63-.39-3.67-.8-1.04-.41-1.94-.91-2.72-1.46-1.61-1.1-2.78-2.33-3.96-3.02-.32-.19-.63-.31-.94-.38l-.01.02c-2.92-.64-5.02 3.73-5.04 3.78 0 0-6.62 18.59 3.08 22.72.77.34 1.53.32 2.29.01z" fill="#2C9BD0"/><path d="M636.89 215.85s-2.23-2.93-4.88-5.06c.02 4.26-.31 8.53-.96 12.73 1.65-.14 2.9-.46 2.9-.46l2.94-7.21z" fill="#FF8868"/><path d="M866.88 216.25c-.81-2.81-1.34-6.28-1.35-10.52-1.83-2.52-1.44-5.25.04-7.85-1.23-17.67-15.08-22.04-21.26-21.53-8.18.68-18.09 5.17-21.08 24.65-.93 6.06-2.16 10.02-3.53 12.68 3.19 1.01 6.69 2.14 10.66 3.3 11.38 3.34 25.65 1.62 36.52-.73z" fill="#063155"/><path d="M774.65 216.54v-11.45c-8.18 7.48-18.38 12.52-26-3.79l-1.48 14.14c8.62-.59 17.9-.33 27.48 1.1z" fill="#FF8868"/><path d="M774.65 205.09c3.3-3.02 6.28-6.44 8.61-9 8.84-9.7-1.43-17.68-1.43-17.68 33.94 2 20.52-32.8 10.27-22.53-1.47 1.47-2.8 2.78-3.99 3.95-4.2 4.12-10.65 4.64-15.62 1.48-6.44-4.1-7.48 4.26-7.48 4.26-6.84-9.13-7.99 2.57-7.99 2.57-18.82-6.27-11.12 25.95-11.12 25.95.87 2.77 1.79 5.15 2.74 7.2 7.63 16.32 17.84 11.27 26.01 3.8z" fill="#063155"/><path d="M977.48 256.78c5.16-.31 10.21-1.37 14.24-4.03-.84-4.4-1.85-8.31-2.96-11.78-2.52 6.12-6.23 11.93-11.28 15.81z" fill="#2C9BD0"/><path d="M971.97 259.96c-4.61 1.86-10.05 2.23-16.41.38-1.55-.45-3.01-1.35-4.39-2.58-5.65-1.16-11.2-2.81-16.59-4.92-.01.1-.01.21-.02.31-.21 2.92-.47 5.99-.8 9.22 18.68 6.17 38.41 8.26 58 6.13 2.01-.22 1.99 2.93 0 3.14-19.66 2.13-39.57.05-58.34-6.08-.3 2.68-.66 5.47-1.06 8.34 20.01 5.76 41.13 6.92 61.68 3.28-.06-4.8-.32-9.24-.72-13.36-.05-.53-.11-1.06-.16-1.59-.14-1.25-.29-2.46-.46-3.65-.12-.85-.24-1.68-.38-2.5-5.83 3.42-13.35 4.02-20.35 3.88z" fill="#2C9BD0"/><path d="M931.89 277.04c-.28 1.89-.59 3.8-.92 5.77l-.17 1.06c8.66 2.78 17.91 3.69 26.99 4.52 12.02 1.11 24.68 2.13 36.13-2.29.07-1.97.11-3.88.12-5.74-20.72 3.56-41.98 2.44-62.15-3.32zM993.88 312.82c-4.09 2.46-8.83 3.18-13.6 3.37-6.17.24-12.38.1-18.55.02-10.65-.13-21.3-.65-31.83-2.15.56 1.97 1.22 4.65 1.85 8.11h62.95c-.3-2.7-.55-5.4-.74-8.11-.03-.41-.06-.83-.08-1.24z" fill="#2C9BD0"/><path d="M978.27 313.09c5.37-.08 10.74-.56 15.24-3.78.06-.04.12-.07.18-.1-.29-6.57-.26-13.16.09-19.75-11.52 3.99-23.92 3.19-35.98 2.08-9.24-.85-18.64-1.78-27.48-4.54l-1.37 8.7c19.68 8.47 42.04 9.69 62.59 3.32 1.94-.6 2.76 2.43.84 3.03-20.89 6.48-43.59 5.29-63.67-3.06-.08 3.74-.2 7.29-.4 10.49 0 0 .2.39.52 1.25 10.48 1.61 21.09 2.16 31.7 2.32 5.9.09 11.82.14 17.74.04zM947.73 253.76c-2.51-3.62-4.65-8.29-6.43-13.13-2.27.59-4.35 1.12-6.16 1.58-.08 2.31-.19 4.76-.34 7.36 4.22 1.68 8.54 3.08 12.93 4.19z" fill="#2C9BD0"/><path d="M991.75 271.65c1.99-.22 2.01-3.36 0-3.14-19.59 2.12-39.32.03-58-6.13-.11 1.05-.22 2.12-.35 3.2 18.79 6.12 38.69 8.2 58.35 6.07z" fill="#fff"/><path d="M932.35 273.91c-.15 1.03-.3 2.08-.46 3.14 20.17 5.75 41.43 6.87 62.15 3.32.01-1.07.01-2.14-.01-3.18-20.55 3.64-41.67 2.48-61.68-3.28z" fill="#0AB9B9"/><path d="M957.79 288.4c-9.07-.84-18.32-1.74-26.99-4.52l-.49 3.13c8.84 2.75 18.24 3.68 27.48 4.54 12.07 1.11 24.46 1.91 35.98-2.08v-.05c.06-1.12.1-2.22.14-3.3-11.45 4.4-24.1 3.38-36.12 2.28z" fill="#fff"/><path d="M928.7 298.99c20.09 8.35 42.79 9.54 63.67 3.06 1.93-.6 1.1-3.63-.84-3.03-20.55 6.37-42.91 5.15-62.59-3.32l-.21 1.35-.03 1.94z" fill="#0AB9B9"/><path d="M993.51 309.31c-4.5 3.22-9.86 3.7-15.24 3.78-5.91.09-11.84.05-17.75-.04-10.61-.16-21.22-.71-31.7-2.32.28.74.65 1.84 1.08 3.32 10.54 1.51 21.18 2.02 31.83 2.15 6.17.08 12.38.21 18.55-.02 4.76-.18 9.51-.9 13.6-3.37-.03-.44-.05-.89-.08-1.33-.04-.76-.08-1.52-.11-2.28-.06.04-.12.07-.18.11z" fill="#fff"/><path d="M947.73 253.76c-4.4-1.1-8.72-2.51-12.94-4.2-.06 1.07-.13 2.16-.21 3.28 5.39 2.11 10.94 3.76 16.59 4.92-1.21-1.09-2.36-2.45-3.44-4zM971.97 259.96c7.01.14 14.52-.46 20.34-3.87a127.8 127.8 0 0 0-.58-3.34c-4.03 2.66-9.09 3.72-14.24 4.03-1.69 1.29-3.53 2.38-5.52 3.18z" fill="#0AB9B9"/><path d="M951.18 257.76c1.37 1.23 2.84 2.13 4.39 2.58 6.35 1.85 11.8 1.47 16.41-.38 1.99-.8 3.83-1.88 5.51-3.18 5.05-3.88 8.76-9.69 11.28-15.81 2.44-5.92 3.78-12.12 4.16-17.15-3.1 1.76-7.1 3.36-11.3 4.88-12.04 4.34-28.7 8.91-40.33 11.93 1.78 4.85 3.92 9.52 6.43 13.13 1.08 1.55 2.23 2.91 3.45 4z" fill="#2BF1FB"/><path d="M640.59 189.65c-.53-.43-1.12-.84-1.74-1.15-9.98 13.32-5.53 21.86 1.95 27.18.3.22.61.43.93.63 4.96.51 13.7 1.49 26.03 3.16.69-2.45 1.07-5.49 1.03-9.3-.06-6.2.91-12.23 2.82-17.34-2.77-4.45-15.74-23.02-30.3-7.3.44 1.12.75 2.16.97 3.07.25.98-.9 1.69-1.69 1.05z" fill="#063155"/><path d="M725.4 247.47c.26 1 .45 1.98.58 2.93l.21-2.87c-.1-.02-.22-.03-.33-.05l-.46-.01zM725.78 312.38l.23-36.52c-1.37-1.08-1.77-1.74-1.77-1.74l1.08-14.78c-3.9 13-19.68 18.91-19.68 18.91s16.84 28.86-16.69 33.92c-33.53 5.06-24.66-33.93-24.66-33.93-20.91 2.27-8.36-20.77-8.36-20.77-.98-.01-1.89-.08-2.74-.21-1.06 1.89-6.81 14.26 1.93 23.17.52-.18.79-.27.79-.27s-.54 15.4-5.54 23.96c-1.19 2.03-2.01 4.35-2.58 6.7-.19.79-.35 1.57-.49 2.36-.58 3.33-.71 6.57-.7 9h78.34c.47-6.11.84-9.8.84-9.8zM623.78 267.22c-1.06.15-2.09.29-3.08.42-.67 1.58-1.78 4.13-3.49 7.7-2.19 4.58 2.6 11.68 5.67 15.54 1.06-.06 2.21-.21 3.48-.48-.01 0-9.28-10.91-2.58-23.18z" fill="#FF4239"/><path d="M650.15 257.45c.2-.27.4-.53.59-.78a.983.983 0 0 0-.16-.05c-.64.75-1.36 1.5-2.17 2.22-.27.24-.55.48-.83.72-.57.47-1.19.94-1.84 1.38-.65.45-1.35.88-2.09 1.29-1.03 5.33-1.91 13.85 1.19 19.8.34.64.61 1.21.84 1.71 1.64-.58 3.12-1.1 4.41-1.56-2.43-3.49-8.11-13.85.06-24.73zM616.19 268.25c-1.52.21-2.95.43-4.28.66 0 0-3.85 8.44-2.58 16.29.3.07.62.19.94.38 1.18.69 2.35 1.91 3.96 3.02.79.54 1.68 1.05 2.72 1.46-1.2-1.49-2.43-3.33-3.58-5.6-3.09-6.14.35-12.7 2.82-16.21zM639.82 263.99c-1.38.52-2.88.98-4.5 1.34-1.51 4.09-2.56 10.86 2.09 18.53.54.89.99 1.66 1.36 2.34 1.34-.48 2.62-.94 3.84-1.38-.73-.84-6.89-8.42-2.79-20.83zM631.41 266.06c-1.4.23-2.75.45-4.06.64-1.79 4.38-4.09 13.32 2.95 20.35.62.62 1.14 1.17 1.58 1.66 1.38-.51 2.73-1 4.03-1.47-.12-.11-.19-.19-.19-.19s-10.51-9.11-4.31-20.99z" fill="#FF4239"/><path d="M725.4 247.47c-.01-.02-.01-.04-.02-.06-10.4-1.37-33.79 3.83-52.15-1.4-10.44-2.97-19.45-8.78-26.28-13.81-5.44 5.68-7.1 20.7 3.62 24.42.05.02.11.04.16.05.01-.01.01-.02.02-.03.75.25 1.56.45 2.44.59 0 .01-.01.01-.01.02.85.13 1.77.2 2.74.21 0 0-12.55 23.04 8.36 20.77 0 0-8.87 39 24.66 33.93 33.53-5.06 16.69-33.92 16.69-33.92s15.78-5.91 19.68-18.91l.65-8.95c-.11-.93-.3-1.91-.56-2.91zM667.76 219.47c9.8 1.33 21.85 3.09 36.09 5.4 1.61.26 3.29.42 5 .49 1.09-.6 2.26-1.18 3.48-1.74-3.15-5.06-5.33-11.24-4.83-23.49.76-18.48-15.36-21.32-15.36-21.32-9.88-2.04-16.89 4.33-20.52 14.02-1.91 5.11-2.88 11.14-2.82 17.34.03 3.81-.35 6.85-1.04 9.3z" fill="#9F5E39"/><path d="M827.38 289.3c.5-.07 1.01-.13 1.53-.18 1.41-.15 2.93-.26 4.54-.31.09 0 .18 0 .27-.01.37-.01.73-.02 1.11-.02v.01c1.8-.02 3.71.04 5.72.21 2.69.22 5.55.64 8.56 1.3l1.04.24c.9.21 1.8.44 2.72.7 1.83-5.09 4.07-10.83 5.8-13.65 1.11-1.81 2.21-3.76 3.28-5.78l.56-5.59 2.15-21.33a59.37 59.37 0 0 1-12.4 2.04c-10.12 8.16-23.18 10.43-34.47 10.47-.47 0-.94 0-1.4-.01l.16 8.79.48 25.68c.02-.01 3.85-1.68 10.35-2.56z" fill="#fff"/><path d="M809.11 310.34c-.03.09-.06.17-.09.26.03-.1.06-.19.1-.29-.01.01-.01.02-.01.03zM809.36 309.6l.09-.27c.03-.09.06-.17.09-.26-.14.41-.28.84-.42 1.26 0-.01.01-.02.01-.03.07-.23.15-.46.23-.7z" fill="#9F5E39"/><path d="M809.54 309.06v.01c-.03.08-.06.17-.09.26l.09-.27z" fill="#2C9BD0"/><path d="M835.15 319.77c1.52-2.86 6.95-4.65 9.61-2.54.15.12.29.24.42.37.4-1.89.82-3.67 1.22-5.32-.3-.22-.55-.52-.78-.89-1.15-1.98-3.22-5.29-2.31-7.74.89-2.41 3.95-1.67 5.51-.26.45-1.5.74-2.35.74-2.35-.01.03.2-.64.57-1.76-.03-.12-.07-.24-.08-.36-.23-1.42.33-3.14 1.5-3.86.41-1.19.86-2.48 1.34-3.82-.92-.26-1.83-.49-2.72-.7-.86 1.13-2.83 1.69-4.17 1.81-2.72.23-5.73-1.09-7.15-3.47a60.051 60.051 0 0 0-4.02-.09c.03.47-.05.95-.31 1.45-.35 2.06-2.23 2.87-4.08 1.96-1.19-.59-2.29-1.66-3.07-2.89-6.5.88-10.33 2.54-10.33 2.54l-.02.04c-.01.01-.01.01-.02.03-.02.04-.05.09-.09.15-.01.01-.01.02-.02.04-.04.07-.09.16-.14.26l-.03.06c-.06.11-.12.23-.19.36-.01.02-.02.05-.04.07-.08.14-.16.3-.25.47-.01.02-.02.04-.03.07-.09.18-.19.37-.3.58l-.03.06c-.11.22-.23.45-.35.69 0 .01-.01.01-.01.02-.12.25-.26.52-.39.79-.01.03-.03.05-.04.08-.13.27-.27.55-.41.85-.02.04-.04.08-.06.13-.14.29-.28.59-.43.91-.03.05-.05.11-.08.16-.15.32-.3.64-.45.98-.03.06-.05.11-.08.17-.16.35-.32.71-.48 1.08l-.06.15c-.17.39-.34.78-.51 1.19-.01.03-.02.06-.04.09-.18.41-.35.84-.53 1.28l-.03.06c-.18.43-.36.88-.54 1.34-.02.05-.04.11-.06.16-.17.44-.35.89-.52 1.35-.03.07-.06.15-.08.22-.17.46-.34.92-.51 1.39l-.09.24c-.17.47-.34.96-.51 1.45-.03.08-.05.16-.08.23-.04.18-.1.36-.18.54-.08.24-.16.47-.24.71-.03.1-.06.19-.1.29-.02.07-.04.14-.07.2-.18.54-.35 1.08-.52 1.63l-.03.1c-.17.55-.34 1.12-.51 1.69-.01.04-.02.08-.04.12-.16.57-.33 1.14-.48 1.72l-.06.23c-.15.56-.3 1.13-.45 1.71-.02.09-.05.18-.07.28-.14.57-.28 1.15-.41 1.73-.02.1-.05.2-.07.3-.13.58-.26 1.17-.39 1.76-.01.04-.01.07-.02.11h12.83c.97-.84 2.51-.65 3.75 0h13.76c-1.01-.4-1.77-1.13-1.09-2.4zm.08-23.85c2-1.27 4.97-1.9 7.24-1.05 2.35.89 3.45 3.34 1.1 4.9-1.44.95-3.28 1.33-4.95 1.62-1.43.24-2.88.11-3.85-1.07-2.01-1.36-1.39-3.22.46-4.4zm-16.92 23.35c-1.35.87-3.04 1.26-4.6 1.54-1.53.28-3.16.35-4.23-.99-1.97-1.37-1.28-3.15.57-4.28 2.01-1.23 4.92-1.85 7.2-1.04 2.35.84 3.4 3.26 1.06 4.77zm2.5-7.13c-3.46.21-7.12-2.01-7.91-5.53-.62-2.77 2.19-3.47 4.37-3.2 2.77.34 6.39 1.79 7.8 4.36.01.02.01.03.02.05.01.02.03.04.04.06 1.16 2.72-2.16 4.13-4.32 4.26zm-.43-16.8c.19-1.81 1.86-3.82 3.85-3.27 2.29.63 3.58 4.12 4.24 6.1.52 1.7.4 3.34-1.67 3.58-3.04.36-6.73-3.41-6.42-6.41zm9.69 20.1c-2.8-.09-2.71-3.3-1.82-5.28 1.31-2.92 4.39-4.59 7.52-4.63 1.13-.02 2.69.14 3.11 1.41.42 1.26-.55 2.77-1.24 3.72-1.68 2.33-4.35 4.52-7.31 4.78-.13.02-.21.01-.26 0zM843.72 322.17h.55c.01-.07.02-.14.04-.21-.2.08-.4.15-.59.21z" fill="#2C9BD0"/><path d="M818.73 304.8c-1.39-.46-4.79-1.36-4.54 1.12.27 2.71 3.06 4.91 5.61 5.24 1.8.23 4.96-.45 3.98-2.87-1.02-1.79-3.16-2.86-5.05-3.49zM815.49 315.11c-1.82-.26-8.42 1.64-4.89 4.01.04.02.08.05.11.09 1.09 1.41 3 .79 4.45.41.93-.25 2.19-.57 2.85-1.32 1.32-1.52-1.25-3.01-2.52-3.19zM835.85 299.53c.07.05.11.09.14.14 1.32 1.58 5.77.43 7.16-.93 1.51-1.47-1.13-2.96-2.4-3.13-1.76-.22-8.4 1.58-4.9 3.92zM825.51 295.02c-.41-.66-1.5-2.5-2.49-2.3-.9.18-1.33 2.01-1.29 2.83.03.76.31 1.49.69 2.14.8 1.38 2.19 2.65 3.69 3.23.23.09.57.25.83.23.26-.02.23.08.36-.29.26-.76.04-1.58-.19-2.32-.41-1.22-.92-2.42-1.6-3.52zM830.46 290.81c.43.36 1.18.98 1.78.98.68 0 .81-.8.91-1.38 0-.02.02-.04.03-.06.01-.01.01-.03.02-.04.28-.51.33-1.01.25-1.5-1.62.05-3.13.16-4.54.31.44.63.97 1.21 1.55 1.69zM844.59 291.67c1.55.38 3.98.03 4.53-1.37-3.01-.66-5.87-1.08-8.56-1.3 1 1.31 2.52 2.3 4.03 2.67zM846.12 302.88c-1.13-.43-1.57.21-1.61 1.41-.08 2.22 1.19 4.51 2.29 6.4.57-2.25 1.11-4.19 1.55-5.73-.47-.92-1.26-1.7-2.23-2.08zM843.75 317.99c-.66-.59-1.52-.83-2.4-.8-1.62.05-3.48.87-4.54 2.11-1.27 1.48.11 2.25 1.6 2.43 1.19.11 2.4.12 3.59-.02.73-.09 1.87-.22 2.5-.77.1-.51.2-1.01.3-1.51-.22-.58-.68-1.11-1.05-1.44zM835.29 306.09c-2.91-.12-5.34 2.15-6.07 4.86-.41 1.52-.25 3.88 1.76 3.95 3.07-.38 10.04-8.57 4.31-8.81z" fill="#2C9BD0"/><path d="M834.77 300.32c.98 1.18 2.42 1.31 3.85 1.07 1.67-.29 3.51-.66 4.95-1.62 2.35-1.56 1.25-4.01-1.1-4.9-2.27-.86-5.24-.22-7.24 1.05-1.85 1.18-2.47 3.04-.46 4.4zm5.98-4.7c1.27.17 3.91 1.66 2.4 3.13-1.39 1.35-5.83 2.5-7.16.93a.466.466 0 0 0-.14-.14c-3.5-2.35 3.14-4.15 4.9-3.92zM818.74 322.17h3.75c-1.24-.65-2.78-.84-3.75 0zM817.25 314.5c-2.27-.82-5.18-.2-7.2 1.04-1.85 1.14-2.54 2.92-.57 4.28 1.07 1.34 2.7 1.28 4.23.99 1.56-.29 3.25-.67 4.6-1.54 2.34-1.51 1.29-3.93-1.06-4.77zm.76 3.8c-.66.76-1.92 1.08-2.85 1.32-1.44.39-3.36 1-4.45-.41a.313.313 0 0 0-.11-.09c-3.54-2.38 3.07-4.27 4.89-4.01 1.27.18 3.84 1.67 2.52 3.19zM849.12 290.3c-.55 1.4-2.98 1.75-4.53 1.37-1.51-.37-3.03-1.35-4.03-2.67-.58-.05-1.14-.09-1.7-.12 1.42 2.38 4.43 3.69 7.15 3.47 1.34-.11 3.31-.67 4.17-1.81-.37-.08-.72-.17-1.06-.24zM825.09 307.82c-.01-.02-.01-.03-.02-.05-1.41-2.57-5.04-4.02-7.8-4.36-2.18-.27-4.99.43-4.37 3.2.79 3.52 4.46 5.75 7.91 5.53 2.17-.13 5.49-1.54 4.32-4.26-.02-.03-.03-.04-.04-.06zm-5.29 3.34c-2.55-.33-5.34-2.53-5.61-5.24-.25-2.48 3.15-1.58 4.54-1.12 1.89.62 4.02 1.69 5.04 3.49.99 2.42-2.17 3.1-3.97 2.87zM833.72 288.8c-.09 0-.18 0-.27.01.08.49.03.99-.25 1.5-.01.01-.01.03-.02.04-.01.02-.03.04-.03.06-.1.58-.23 1.38-.91 1.38-.61 0-1.36-.62-1.78-.98a8.607 8.607 0 0 1-1.55-1.69c-.52.06-1.03.12-1.53.18.78 1.23 1.88 2.3 3.07 2.89 1.84.91 3.72.1 4.08-1.96.25-.5.33-.98.31-1.45v-.01l-1.12.03zM809.36 309.6c.08-.18.14-.36.18-.54 0-.01.01-.03.02-.05-.01.01-.01.03-.02.05l-.09.27-.09.27zM844.5 320.92c-.63.55-1.77.68-2.5.77-1.19.15-2.39.14-3.59.02-1.49-.18-2.87-.95-1.6-2.43 1.06-1.24 2.92-2.06 4.54-2.11.88-.03 1.73.21 2.4.8.37.33.83.86 1.05 1.42.12-.61.25-1.22.38-1.81-.13-.13-.27-.26-.42-.37-2.67-2.11-8.09-.31-9.61 2.54-.68 1.27.08 2 1.1 2.4h7.46c.2-.06.4-.13.59-.21.07-.33.13-.67.2-1.02zM843.3 303.65c-.91 2.45 1.16 5.76 2.31 7.74.23.37.49.67.78.89.13-.54.26-1.07.39-1.58-1.09-1.89-2.37-4.18-2.29-6.4.04-1.2.48-1.84 1.61-1.41.98.37 1.76 1.15 2.23 2.08.17-.59.33-1.11.47-1.58-1.55-1.41-4.6-2.15-5.5.26zM837.63 310.66c.69-.95 1.65-2.47 1.24-3.72-.42-1.27-1.98-1.42-3.11-1.41-3.13.04-6.21 1.71-7.52 4.63-.89 1.98-.97 5.19 1.82 5.28.05.01.13.01.26 0 2.97-.25 5.63-2.45 7.31-4.78zm-6.65 4.23c-2.02-.06-2.17-2.42-1.76-3.95.73-2.71 3.16-4.98 6.07-4.86 5.73.25-1.24 8.44-4.31 8.81zM828.47 298.17c-.66-1.97-1.95-5.47-4.24-6.1-2-.55-3.67 1.45-3.85 3.27-.31 3 3.37 6.77 6.42 6.41 2.07-.24 2.19-1.88 1.67-3.58zm-1.17 2.69c-.13.37-.09.28-.36.29-.26.02-.59-.14-.83-.23-1.5-.58-2.89-1.85-3.69-3.23-.38-.65-.66-1.38-.69-2.14-.04-.81.4-2.65 1.29-2.83.98-.2 2.08 1.63 2.49 2.3.67 1.1 1.19 2.3 1.6 3.52.22.74.45 1.56.19 2.32zM850.04 298.92c.02.12.06.24.08.36.35-1.06.84-2.52 1.42-4.22-1.18.71-1.73 2.44-1.5 3.86z" fill="#5DF7FE"/><path d="M725.78 312.38s-.38 3.68-.84 9.79h68.02c.03-1.83.03-3.68-.04-5.57-.01-.33-.03-.65-.04-.98-23.93 3.42-67.09-3.24-67.1-3.24zM928.81 310.73c-.32-.85-.52-1.25-.52-1.25-.05.78-41.2-16.62-78.75-8.45 0 0-.28.85-.74 2.35-.14.46-.3.99-.47 1.58a167.48 167.48 0 0 0-1.94 7.31c-.4 1.65-.82 3.43-1.22 5.32-.13.59-.25 1.2-.38 1.81-.1.5-.2 1-.3 1.51-.07.34-.13.69-.2 1.04-.01.07-.02.14-.04.21h87.48c-.64-3.46-1.29-6.14-1.85-8.11-.41-1.48-.79-2.57-1.07-3.32z" fill="#063155"/><path d="M795.18 282.48c-.31-.18-.64-.44-.96-.79 0 0-2.09 7.08-4.17 11.16-1.62 3.17-4.73 4.3-8.69 4.14-1.58-.06-3.29-.32-5.1-.74-1.81-.41-3.71-.98-5.67-1.65-1.64-.56-3.32-1.19-5.02-1.86-1.79-.71-3.61-1.47-5.41-2.25-.77-.33-1.53-.66-2.29-.99-1.13-.49-2.26-.98-3.37-1.47-.92-.4-1.83-.8-2.73-1.19-2-.86-3.93-1.66-5.75-2.37-1.44-.55-2.8-1.04-4.08-1.44-.05-.02-.11-.03-.16-.05-2.05-.63-3.86-1.25-5.48-1.86a63.25 63.25 0 0 1-4.05-1.68c-1.28-.59-2.37-1.15-3.28-1.67-.29-.17-.57-.33-.83-.49-.52-.32-.97-.62-1.37-.9-.2-.14-.38-.27-.55-.4-.06-.05-.12-.09-.18-.14l-.23 36.52c.01 0 43.17 6.66 67.1 3.23 1.8-.26 3.5-.57 5.05-.95l-2.62-32.11c-.07 0-.11-.02-.16-.05zM789.3 222.35c-3.87-2.01-7.16-3.71-9.52-4.94-1.72-.33-3.43-.62-5.13-.87-9.59-1.43-18.87-1.69-27.48-1.1-5.89.4-11.46 1.2-16.61 2.3l-4.37 29.79s2.34 1.4 6.16 3.5c.91.5 1.9 1.03 2.97 1.6 1.52.81 3.18 1.67 4.96 2.57 1.39.7 2.84 1.42 4.35 2.14 1.57.76 3.2 1.52 4.88 2.27 1.18.53 2.38 1.06 3.59 1.57 1.48.63 2.98 1.25 4.5 1.84 1.16.45 2.32.89 3.48 1.32 1.45.53 2.91 1.03 4.35 1.49 1.24.4 2.47.77 3.69 1.1.49.13.97.27 1.45.39a117.09 117.09 0 0 0 7 1.59c2.32.44 4.33.74 6.06.91 1.84.19 3.37.25 4.64.23 1.18-.02 2.14-.11 2.92-.23 2.33-.37 3-1.03 3-1.03l-.16-1.93-.27-3.31-.77-9.36h.01-.01l-3.69-31.84zM793.08 254.21c-.01 0-.02 0-.02-.01.01.01.01.01.02.01zM794.29 254.53c-.01 0-.02-.01-.03-.01.01.01.02.01.03.01z" fill="#fff"/><path d="M813.24 257.29c1.03.05 2.08.08 3.16.1.46.01.93.01 1.4.01 11.29-.04 24.36-2.31 34.47-10.47-8.2.44-17.88-.84-27.81-6.13-11.74-6.25-25.32-13.34-35.16-18.45l3.69 31.84h.01l.06.02c.01 0 .02 0 .02.01.05.02.13.04.23.07h.01c.21.06.53.14.93.24.01 0 .02 0 .03.01 2.49.63 8.4 1.96 15.86 2.56.98.08 1.99.14 3.02.19h.08z" fill="#F9BB30"/><path d="M794.97 264.5c.1.09.21.19.33.29-.78-.72-1.36-1.12-1.5-1.21.05.04.17.12.33.24.2.15.49.37.84.68zM725.33 259.35l-1.08 14.78s.4.66 1.77 1.74c.06.05.12.09.18.14 0 0 .12-.28.33-.78.04-.09.07-.18.12-.29.06-.15.13-.32.2-.5.05-.12.1-.24.15-.37.22-.55.47-1.21.74-1.97.04-.12.09-.24.13-.36.23-.64.47-1.33.72-2.08.09-.27.18-.55.28-.84.16-.5.33-1.03.49-1.57.04-.14.09-.28.13-.43.33-1.11.66-2.29.97-3.51.11-.41.21-.83.31-1.25.83-3.51 1.48-7.33 1.61-11.02-3.82-2.09-6.16-3.5-6.16-3.5l-.21 2.87-.68 8.94zM751.75 286.86c.37-.73.89-1.64 1.6-2.76 3.75-5.93 4.35-14.91 4.24-21.08-1.51-.59-3.01-1.21-4.5-1.84-.1 6.83-1.3 17.25-7.1 23.32 1.83.7 3.76 1.5 5.76 2.36zM786.89 288.5c-1.9 3.67-3.81 6.44-5.53 8.5 3.97.15 7.07-.97 8.69-4.14 2.09-4.09 4.17-11.16 4.17-11.16s2.71-7.27-.03-12.91c0 0-.67.67-3 1.03-.78.12-1.74.21-2.92.23 1.25 5.28 1.81 12.28-1.38 18.45z" fill="#FF4239"/><path d="M794.22 281.7c.33.35.65.61.96.79-.59-.49-.96-.79-.96-.79zM771.89 294.2s-.53.18-1.31.41c1.96.67 3.87 1.23 5.67 1.65 3.74-4.92 9.83-14.19 8.47-20.84-.43-2.12-.8-3.98-1.1-5.6-1.74-.18-3.74-.47-6.06-.91 5.48 14.46-5.67 25.29-5.67 25.29zM755.03 287.64s-.22.17-.54.41c1.11.48 2.23.98 3.37 1.47.61-.99 1.51-2.28 2.8-3.99 5.75-7.65 5.68-15.1 4.77-19.7-1.44-.46-2.9-.96-4.35-1.49 2.32 15.5-6.05 23.3-6.05 23.3z" fill="#FF4239"/><path d="M761.85 289.18s-.77.64-1.71 1.33c1.81.78 3.62 1.53 5.41 2.25.66-.72 1.6-1.59 2.91-2.67 8.21-6.78 6.97-17.06 5.81-21.86-1.17-.26-2.41-.56-3.72-.9-.48-.12-.97-.26-1.45-.39 4.65 13.75-7.25 22.24-7.25 22.24zM741.75 283.01c.05.02.11.03.16.05 2.58-3.98 6.89-12.21 7.59-23.45-1.67-.75-3.3-1.51-4.88-2.27-.58 6.26-2.46 15.93-8.35 23.81 1.62.6 3.43 1.23 5.48 1.86zM732.22 279.46c2.69-5.09 7.41-15.17 8.06-24.27-1.78-.9-3.44-1.76-4.96-2.57-.36 4.68-1.68 15.56-6.38 25.17.92.53 2.01 1.09 3.28 1.67z" fill="#FF4239"/><path d="M753.35 284.1c-.71 1.12-1.23 2.02-1.6 2.76.9.39 1.81.78 2.73 1.19.33-.24.54-.41.54-.41s8.37-7.79 6.04-23.3c-1.16-.42-2.32-.86-3.48-1.32.12 6.17-.48 15.15-4.23 21.08z" fill="#F9BB30"/><path d="M760.65 285.52c-1.29 1.71-2.18 3.01-2.8 3.99.76.33 1.53.66 2.29.99.94-.69 1.71-1.33 1.71-1.33s11.89-8.49 7.25-22.25c-1.22-.34-2.45-.71-3.69-1.1.92 4.61.99 12.05-4.76 19.7z" fill="#3DA2D0"/><path d="M768.47 290.08c-1.31 1.08-2.25 1.96-2.91 2.67 1.7.67 3.38 1.3 5.02 1.86.78-.23 1.31-.41 1.31-.41s11.15-10.84 5.68-25.3c-1.03-.2-2.13-.42-3.28-.69 1.15 4.81 2.39 15.09-5.82 21.87z" fill="#F9BB30"/><path d="M776.25 296.26c1.81.41 3.53.68 5.1.74 1.72-2.07 3.63-4.83 5.53-8.5 3.19-6.17 2.63-13.18 1.38-18.45-1.27.02-2.81-.04-4.64-.23.31 1.63.67 3.48 1.1 5.6 1.36 6.65-4.73 15.93-8.47 20.84zM746 284.5c5.8-6.06 7-16.48 7.1-23.32-1.21-.52-2.41-1.04-3.59-1.57-.7 11.24-5.01 19.47-7.59 23.45 1.27.39 2.64.88 4.08 1.44z" fill="#3DA2D0"/><path d="M736.28 281.15c5.89-7.88 7.78-17.55 8.35-23.81a223.6 223.6 0 0 1-4.35-2.14c-.64 9.1-5.36 19.17-8.06 24.27 1.18.53 2.53 1.1 4.06 1.68z" fill="#F9BB30"/><path d="M730.44 263.3c-.31 1.22-.64 2.4-.97 3.51-.04.14-.09.29-.13.43-.16.54-.33 1.07-.49 1.57-.09.29-.18.57-.28.84-.25.75-.49 1.44-.72 2.08-.04.12-.09.24-.13.36-.27.75-.52 1.41-.74 1.97-.05.13-.1.25-.15.37-.07.18-.14.35-.2.5-.04.1-.08.2-.12.29-.2.5-.33.78-.33.78.17.13.35.26.55.4.4.28.85.58 1.37.9.26.16.54.32.83.49 4.7-9.61 6.01-20.49 6.38-25.17-1.07-.57-2.06-1.1-2.97-1.6-.13 3.69-.77 7.51-1.61 11.02-.09.43-.19.85-.29 1.26z" fill="#3DA2D0"/><path d="M794.19 268.79c2.75 5.64.03 12.91.03 12.91s.37.3.96.79c.04.02.09.04.13.06.05.03.11.06.16.08.04.02.07.03.11.04.06.02.12.05.18.06l.12.03.16.03c.04.01.08.01.13.01s.1.01.15.01c.04 0 .08 0 .13-.01.05 0 .1-.01.15-.02.04-.01.08-.01.13-.02s.1-.02.15-.04a1.96 1.96 0 0 0 .26-.1c.04-.02.08-.03.12-.05.05-.02.1-.05.14-.08.04-.02.07-.04.11-.06.05-.03.1-.07.15-.11a.55.55 0 0 0 .09-.07c.08-.06.16-.13.24-.19l.07-.07c.05-.05.11-.1.16-.16.03-.03.06-.07.1-.1.04-.05.09-.09.13-.14.03-.04.07-.08.1-.12l.12-.15c.03-.04.06-.09.1-.13.04-.05.08-.1.11-.16.03-.05.06-.09.09-.14.04-.05.07-.11.11-.17l.09-.15c.03-.06.07-.12.1-.18.03-.05.06-.1.08-.15.03-.06.07-.12.1-.19.03-.05.05-.1.08-.15.03-.07.07-.14.1-.21.02-.05.05-.09.07-.14.04-.08.08-.17.11-.25.02-.04.03-.07.05-.11l.15-.36c.02-.04.03-.09.05-.13l.09-.24c.02-.05.04-.11.06-.16.03-.07.05-.14.07-.21.02-.05.04-.11.05-.16.02-.07.05-.14.07-.21.02-.05.03-.11.05-.16.02-.07.04-.14.06-.2.02-.05.03-.11.04-.16.02-.07.04-.14.05-.2.01-.05.03-.1.04-.16.02-.07.03-.14.05-.2l.03-.15c.02-.07.03-.14.04-.21l.03-.13c.01-.07.03-.14.04-.22.01-.04.01-.08.02-.11.02-.11.03-.21.04-.31.04-.28.05-.56.04-.83-.01-.27-.03-.54-.07-.8a7.172 7.172 0 0 0-.39-1.45 20.28 20.28 0 0 0-3.14-5.45c-.75-.93-1.47-1.67-2.08-2.22-.11-.1-.22-.2-.33-.29-.35-.3-.63-.53-.84-.68-.16-.12-.28-.2-.33-.24l-.04-.02.27 3.31.21 1.95zM951.04 194.37l-.38 14.85c8.39-.62 16.97-1.05 24.4-1.04v-13.66c-2.79 2.53-6.42 4.3-11.14 4.34-5.12.04-9.63-1.44-12.88-4.49z" fill="#FF8868"/><path d="M972.91 153.23c4.32 1.27 6.61 2.61 7.79 3.79-1.86-2.35-4.32-3.86-7.11-4.69l-.07.1c-.19.27-.4.53-.61.8zM969.66 152.38c.18-.23.38-.47.6-.71-.84-.09-1.69-.13-2.56-.12-.02.13-.03.26-.05.4.7.14 1.37.28 2.01.43zM963.92 198.86c4.72-.04 8.35-1.81 11.14-4.34 7.18-6.51 8.76-18.05 8.76-18.05.13-1.24.19-2.41.22-3.52.69-6.46-.32-11.24-2.42-14.62.55 1.29-.11 2.17-.11 2.17s-10.13 12.39-22.35 11.02c-4.5-.5-8.25-2.76-11.18-5.41-.23.83-.41 1.63-.54 2.36-1.42 5.13-1.93 9.59-1.7 13.39.35 5.54 2.28 9.69 5.29 12.51 3.26 3.05 7.77 4.53 12.89 4.49z" fill="#9F5E39"/><path d="M619.92 253.83c3.96-5.95 7.22-13.49 9.36-21.7.36-1.38.69-2.78.98-4.19 0-.02.01-.05.02-.07.13-.64.25-1.28.37-1.92.02-.08.03-.17.05-.25.12-.67.23-1.35.34-2.03.01-.05.02-.1.02-.15.64-4.19.98-8.47.96-12.73a86.51 86.51 0 0 0-.1-3.61c-.35-6.42-.08-10.84.56-13.8.43-2.01 1.04-3.36 1.74-4.21 1.36-1.65 3.09-1.45 4.64-.66.62.32 1.21.73 1.74 1.15.79.63 1.94-.07 1.7-1.05-.22-.91-.53-1.96-.97-3.07-.65-1.65-1.59-3.45-2.93-5.18-3.61-4.64-10.16-8.71-22-7.8-.41.03-.81.06-1.23.1-26.78 2.75-14.13 23.78-18.49 35.92 0 0-36.32 31.5-4.85 41.96 0 0-12.49 10.49 5.53 15.88 4.29 1.28 8.58.33 12.62-2.24 3.58-2.29 6.96-5.86 9.94-10.35z" fill="#063155"/><path d="M928.73 297.06c.1-6.7.05-13.93-.07-20.82-1.27.57-2.54.34-2.54.34l-.7-5.09s-23.67 20.64-39.07 16.15c-8.3-2.42-16.59-11.61-22.48-19.57-.62 1.26-1.26 2.51-1.91 3.74-1.07 2.02-2.16 3.97-3.28 5.78-1.73 2.82-3.97 8.55-5.8 13.65-.48 1.34-.94 2.64-1.34 3.82-.58 1.69-1.07 3.16-1.42 4.22-.37 1.12-.58 1.78-.57 1.76 37.55-8.17 78.7 9.24 78.75 8.45.19-3.2.32-6.75.4-10.49l.03-1.94z" fill="#FF4239"/><path d="M824.46 240.8c9.93 5.29 19.61 6.57 27.81 6.13 4.7-.25 8.91-1.08 12.4-2.04v-.01c.95-.26 1.86-.53 2.7-.81 4.91-1.61 7.84-3.27 7.84-3.27s-.97 2.79-2.6 7.03c11.67 9.84 19.16 26.05 19.16 26.05 16.12-2.85 33.64-13.97 33.64-13.97s1.48 1.55 2.94 3.81l-.09-2.81c-.32-9.85-.68-16.83-.68-16.83s2.92-.7 7.55-1.86c1.82-.46 3.89-.99 6.16-1.58 11.63-3.02 28.29-7.6 40.33-11.93 4.2-1.51 8.2-3.12 11.3-4.88 2.46-1.4 4.35-2.89 5.32-4.51 1.43-2.41.82-5.09-3.03-8.15-2.72-2.16-10.45-2.95-20.16-2.98-7.43-.02-16.01.42-24.4 1.04-1.11.08-2.22.17-3.32.25-5.48.44-10.8.94-15.57 1.42-6.59 12.27-31.11 39.68-50.79 7.87-1.17-1.89-2.62-3.54-4.27-4.99-2.69.78-6.05 1.66-9.82 2.48-10.87 2.34-25.14 4.06-36.5.73-3.97-1.17-7.47-2.29-10.66-3.3-3.05-.97-5.8-1.83-8.41-2.54-5.86-1.6-10.94-2.38-16.75-1.68-3.46.42-7.17 1.35-11.46 2.97-3.39 1.27-7.33 2.91-7.33 2.91s1.48.76 4.02 2.07c2.37 1.22 5.65 2.93 9.52 4.94 9.83 5.09 23.41 12.18 35.15 18.44z" fill="#FF4239"/><path d="M886.35 287.64c15.4 4.5 39.07-16.15 39.07-16.15l.7 5.09s1.28.23 2.54-.34c1.17-.52 2.33-1.73 2.46-4.43.14-2.83-1.3-5.82-2.77-8.1-1.45-2.25-2.94-3.81-2.94-3.81s-17.52 11.12-33.64 13.97c0 0-7.49-16.21-19.16-26.05-1.66-1.4-3.41-2.68-5.24-3.76-.84.27-1.75.55-2.7.81v.01l-2.15 21.33c.43.61.88 1.22 1.34 1.85 5.9 7.96 14.19 17.15 22.49 19.58z" fill="#FF8868"/><path d="M643.64 262.23c-1.16.64-2.43 1.23-3.82 1.76-4.1 12.41 2.06 19.99 2.79 20.84 1.07-.38 2.08-.74 3.05-1.09-.23-.5-.5-1.06-.84-1.71-3.09-5.95-2.21-14.46-1.18-19.8z" fill="#F9BB30"/><path d="M635.31 265.33c-.54.12-1.08.24-1.65.34-.77.14-1.51.27-2.26.39-6.2 11.88 4.31 20.99 4.31 20.99l.19.19c.98-.35 1.93-.7 2.86-1.04-.38-.68-.82-1.45-1.36-2.34-4.65-7.67-3.6-14.43-2.09-18.53z" fill="#3DA2D0"/><path d="M627.35 266.71c-1.23.18-2.42.35-3.57.51-6.7 12.27 2.58 23.18 2.58 23.18 1.43-.31 3-.76 4.74-1.4.26-.1.52-.19.77-.28-.44-.49-.96-1.04-1.58-1.66-7.03-7.03-4.73-15.97-2.94-20.35z" fill="#F9BB30"/><path d="M617.2 275.34c1.71-3.57 2.83-6.12 3.49-7.7-1.01.14-1.99.27-2.93.39-.53.07-1.06.14-1.57.22-2.47 3.52-5.92 10.07-2.81 16.2 1.15 2.27 2.38 4.11 3.58 5.6 1.05.41 2.27.69 3.67.8l.26.03c.16.01.33.02.5.02.48.01.96.02 1.48-.01-3.07-3.87-7.86-10.97-5.67-15.55zM650.76 256.65c-.01.01-.01.02-.02.03-.19.25-.38.51-.59.78-8.17 10.88-2.49 21.23-.08 24.73 2.36-.83 4.11-1.43 5.05-1.76-8.74-8.91-2.99-21.28-1.93-23.17 0-.01.01-.02.01-.02-.88-.14-1.69-.34-2.44-.59z" fill="#3DA2D0"/><path d="M865.54 205.74c.35.48.78.96 1.3 1.42 1.28 1.14 2.54 1.98 3.77 2.59 2.21 1.09 4.27 2.43 6.1 4.03 1.65 1.45 3.1 3.1 4.27 4.99 19.69 31.81 44.2 4.4 50.79-7.87.41-.76.75-1.46 1.01-2.08 5.22-12.31-2.62-19.7-2.62-19.7 6.35.08 14.06-8.08 8.12-15.45-5.94-7.37-19.33-1.82-19.33-1.82s15.15-19.81-4.55-17.51c-19.7 2.3-2.44 18.06-16.63 10.59-14.19-7.47-16.29 9.01-16.29 9.01-20.56-3.64-16.48 10.92-12.44 19.58-1.37 1.36-2.6 2.84-3.47 4.37-1.47 2.59-1.86 5.33-.03 7.85z" fill="#063155"/><path d="M609.33 285.21l.01-.02c-1.28-7.86 2.57-16.29 2.58-16.29-.02 0-.04.01-.06.01h-.01l-1.14.21h-.02c-.38.07-.75.15-1.11.22-.08.02-.15.03-.23.05l-.66.15c-.06.01-.12.03-.18.04-.1.03-.2.05-.3.08-.24.06-.48.12-.71.18-.11.03-.22.06-.33.1-.21.06-.42.12-.62.19-.12.04-.23.08-.34.11-.19.06-.37.13-.55.19-.11.04-.22.09-.33.13-.17.07-.34.13-.5.21-.11.05-.21.1-.32.14-.15.07-.3.14-.45.22-.1.05-.2.11-.3.16-.14.08-.27.16-.4.24-.09.06-.19.12-.28.18-.12.08-.24.17-.36.26-.09.06-.17.13-.25.19-.11.09-.22.18-.32.28-.08.07-.16.14-.23.21-.1.1-.19.2-.28.3-.07.08-.14.15-.2.23-.09.11-.17.22-.25.33-.06.08-.12.16-.17.25-.08.12-.14.24-.21.37-.05.09-.1.17-.14.26-.06.13-.12.27-.18.41-.04.09-.08.17-.11.26-.06.16-.1.32-.15.49-.02.08-.05.16-.07.24-.06.25-.11.51-.15.78-.07.53-.14 1.02-.2 1.48-.16 1.16-.29 2.12-.4 2.93-.02.16-.04.32-.06.46-.04.3-.08.57-.11.82-.02.12-.03.24-.05.36-.03.23-.06.43-.08.62-.04.28-.07.51-.1.71l-.14 1.05 5.42 3.99c.02-.04 2.12-4.41 5.04-3.78z" fill="#FF8868"/><path d="M967.7 151.55c.24-1.86.91-3.59 1.41-4.76 1.53-3.56-.83-7.3-3.53 2.33-.24.84-.39 1.62-.49 2.33.9.16 1.76.32 2.57.49 0-.13.02-.26.04-.39zM972.91 153.23c.21-.27.41-.53.61-.8.03-.03.05-.07.07-.1 2.14-3.01 2.38-6.18-2.37-1.66-.36.34-.67.67-.96 1-.22.24-.42.48-.6.71 1.19.28 2.28.56 3.25.85z" fill="#9F5E39"/><path d="M981.51 160.5s.66-.88.11-2.17c-.17-.4-.46-.85-.93-1.31-1.17-1.18-3.46-2.52-7.79-3.79-.98-.29-2.06-.57-3.26-.85-.64-.15-1.3-.29-2.01-.44a79.858 79.858 0 0 0-2.73-.52c-15.78-2.75-17.31-7.79-17.31-7.79s-7.39 9.25-.11 14.4l-7.18-2.15s2.64 5.69 7.67 10.23c2.93 2.65 6.67 4.9 11.18 5.41 12.24 1.37 22.36-11.02 22.36-11.02z" fill="#9F5E39"/><path d="M703.85 224.87c-14.24-2.31-26.29-4.07-36.09-5.4-12.33-1.67-21.07-2.65-26.03-3.16-.83-.09-1.56-.16-2.18-.22-1.76-.17-2.66-.25-2.66-.25l-2.93 7.2c.34.03.78.2 1.31.48.18.1.36.2.56.33.39.24.83.53 1.3.87 2.36 1.68 5.7 4.43 9.82 7.47 6.83 5.03 15.84 10.84 26.28 13.81 18.36 5.23 41.75.03 52.15 1.4.16.02.32.05.48.07.11.02.22.03.33.05l4.37-29.79c-6.97 1.49-13.14 3.53-18.24 5.88-1.22.56-2.38 1.14-3.48 1.74-1.7-.06-3.38-.22-4.99-.48z" fill="#F9BB30"/></g><defs><clipPath id="clip0"><path fill="#fff" transform="translate(579 143)" d="M0 0h442.97v179.17H0z"/></clipPath></defs></svg>