<svg width="1600" height="322" fill="none" xmlns="http://www.w3.org/2000/svg" viewBox="0 0 1600 322"><path fill="#F5FCFF" d="M0 0h1600v321H0z"/><g clip-path="url(#clip0)"><path fill-rule="evenodd" clip-rule="evenodd" d="M620.593 253.849h69.098v20.153h-69.098v-20.153z" fill="#7C7470"/><path fill-rule="evenodd" clip-rule="evenodd" d="M622.604 196.05l56.747-42.764 29.472 22.197-33.156 24.983 3.684 4.892 12.352-9.308v57.799h-69.099V196.05zm76.436 57.799h29.741v-48.491c-11.3-6.687-21.083-6.202-29.741 0v48.491z" fill="#F9E6AE"/><path fill-rule="evenodd" clip-rule="evenodd" d="M679.362 165.721c5.892 0 10.67 4.778 10.67 10.67s-4.778 10.67-10.67 10.67c-5.893 0-10.671-4.778-10.671-10.67-.01-5.892 4.768-10.67 10.671-10.67z" fill="#D2B174"/><path fill-rule="evenodd" clip-rule="evenodd" d="M814.679 216.564v37.284h-12.352v-26.201H748.46v26.201h-12.353v-37.284h78.572z" fill="#F9E6AE"/><path fill-rule="evenodd" clip-rule="evenodd" d="M738.12 253.849h10.34v20.153h-10.34v-20.153z" fill="#42403D"/><path fill-rule="evenodd" clip-rule="evenodd" d="M736.107 211.673h88.396v4.891h-88.396v-4.891z" fill="#BCBCBC"/><path fill-rule="evenodd" clip-rule="evenodd" d="M703.983 164.173h20.773v7.481h12.879v-7.481h86.869v47.5h-88.396v-15.624l12.352 9.309 3.684-4.892-48.161-36.293z" fill="#6F3E33"/><path fill-rule="evenodd" clip-rule="evenodd" d="M730.793 253.849h7.327v20.153h-7.327v-20.153zM689.691 253.849h7.338v20.153h-7.338v-20.153z" fill="#645F5C"/><path fill-rule="evenodd" clip-rule="evenodd" d="M802.327 253.849h14.375v20.153h-14.375v-20.153z" fill="#7C7470"/><path fill-rule="evenodd" clip-rule="evenodd" d="M697.028 274.002h33.765v-4.035h-33.765v4.035z" fill="#959595"/><path fill-rule="evenodd" clip-rule="evenodd" d="M697.028 269.967h33.765v-4.025h-33.765v4.025z" fill="#818181"/><path fill-rule="evenodd" clip-rule="evenodd" d="M697.028 265.943h33.765v-4.035h-33.765v4.035z" fill="#A9A9A9"/><path fill-rule="evenodd" clip-rule="evenodd" d="M697.028 261.908h33.765v-4.035h-33.765v4.035z" fill="#959595"/><path fill-rule="evenodd" clip-rule="evenodd" d="M713.911 171.654l-34.55-26.036-72.793 54.848 3.684 4.891 69.109-52.072 29.462 22.198 5.088-3.829z" fill="#692501"/><path fill-rule="evenodd" clip-rule="evenodd" d="M726.284 145.618h9.824v12.27h-9.824v-12.27z" fill="#F9E6AE"/><path fill-rule="evenodd" clip-rule="evenodd" d="M697.028 257.873h33.765v-4.024h-33.765v4.024z" fill="#BDBDBD"/><path fill-rule="evenodd" clip-rule="evenodd" d="M679.362 167.671c4.819 0 8.73 3.911 8.73 8.72 0 4.819-3.911 8.73-8.73 8.73-4.82 0-8.72-3.911-8.72-8.73-.011-4.819 3.9-8.72 8.72-8.72z" fill="#405662"/><path fill-rule="evenodd" clip-rule="evenodd" d="M724.757 141.976h12.878v3.642h-12.878v-3.642z" fill="#E7BF74"/><path fill-rule="evenodd" clip-rule="evenodd" d="M726.284 138.333h9.824v3.643h-9.824v-3.643z" fill="#F9E6AE"/><path fill-rule="evenodd" clip-rule="evenodd" d="M724.757 157.889h12.878v13.766h-12.878v-13.766z" fill="#E7BF74"/><path fill-rule="evenodd" clip-rule="evenodd" d="M659.197 246.398h14.375v-41.041h-14.375v41.041zM640.746 246.398h14.375v-41.041h-14.375v41.041z" fill="#D2B174"/><path fill-rule="evenodd" clip-rule="evenodd" d="M748.46 227.647h53.867v11.114H748.46v-11.114z" fill="#F5F5F5"/><path fill-rule="evenodd" clip-rule="evenodd" d="M691.714 196.049l22.197-16.728 22.197 16.728v57.799h-44.394v-57.799zm7.327 57.799h29.74v-48.491c-11.3-6.687-21.082-6.202-29.74 0v48.491z" fill="#E7BF74"/><path fill-rule="evenodd" clip-rule="evenodd" d="M752.144 200.466l-38.233-28.812-38.244 28.812 3.694 4.891 34.55-26.035 34.549 26.035 3.684-4.891z" fill="#8B5347"/><path fill-rule="evenodd" clip-rule="evenodd" d="M622.604 196.05l56.747-42.764 29.472 22.197-3.653 2.755-22.424-16.892-6.357 4.788a10.664 10.664 0 0 0-6.078 4.582l-47.707 35.952V196.05z" fill="#B89966"/><path fill-rule="evenodd" clip-rule="evenodd" d="M691.714 196.049l22.197-16.728 22.197 16.656v5.479l-18.74-14.117-25.654 19.329v-10.619z" fill="#9F7E49"/><path fill-rule="evenodd" clip-rule="evenodd" d="M699.04 253.848h7.244v-26.18c6.749-4.84 14.189-6.192 22.497-3.385v-18.925c-11.3-6.687-21.083-6.202-29.741 0v48.49z" fill="#A58859"/><path fill-rule="evenodd" clip-rule="evenodd" d="M814.679 216.564v6.698h-52.701l1.889 4.385H748.46v26.201h-12.353v-37.284h78.572z" fill="#B89966"/><path fill-rule="evenodd" clip-rule="evenodd" d="M748.46 227.647h53.867v4.139h-36.675l3.003 6.975H748.46v-11.114z" fill="#BCBCBC"/><path fill-rule="evenodd" clip-rule="evenodd" d="M756.973 211.673h-20.866V196.05l12.353 9.308 3.684-4.891 4.829 11.206z" fill="#4A2C26"/><path d="M755.002 211.673v-4.571l1.486 3.457v1.114h-1.486zm-9.814 0v-8.761l1.486 1.104v7.657h-1.486z" fill="#6F3E33"/><path fill-rule="evenodd" clip-rule="evenodd" d="M679.361 165.721c1.342 0 2.621.247 3.798.691l-14.437 10.877c-.021-.3-.041-.599-.041-.898 0-5.892 4.778-10.67 10.68-10.67z" fill="#77623A"/><path fill-rule="evenodd" clip-rule="evenodd" d="M679.361 167.671c.64 0 1.269.072 1.868.206l-10.578 7.967c.279-4.561 4.077-8.173 8.71-8.173z" fill="#27343A"/><path fill-rule="evenodd" clip-rule="evenodd" d="M642.696 216.564h10.474v27.883h-10.474v-27.883zm0-9.256h10.474v7.306h-10.474v-7.306z" fill="#405662"/><path fill-rule="evenodd" clip-rule="evenodd" d="M737.635 171.654v-7.481h7.502l-7.502 7.481z" fill="#4A2C26"/><path fill-rule="evenodd" clip-rule="evenodd" d="M726.284 145.618h9.824v3.086h-9.824v-3.086z" fill="#B89966"/><path fill-rule="evenodd" clip-rule="evenodd" d="M730.793 253.849l7.327 16.996v3.157h-7.327v-20.153z" fill="#4C4847"/><path fill-rule="evenodd" clip-rule="evenodd" d="M675.296 184.12l9.545-14.509-.02-.021-.135-.103-.041-.031a13.347 13.347 0 0 0-.124-.093l-.041-.031c-.041-.031-.082-.051-.124-.082-.02-.011-.041-.031-.062-.042-.031-.02-.072-.051-.103-.072a.316.316 0 0 1-.072-.052c-.031-.02-.072-.041-.103-.061-.031-.021-.052-.031-.083-.052a.435.435 0 0 0-.093-.052c-.031-.02-.062-.041-.093-.051-.031-.021-.051-.031-.082-.052-.031-.02-.072-.041-.103-.062-.031-.01-.052-.031-.083-.041-.041-.021-.072-.041-.113-.062l-.073-.031-9.524 14.489c.031.02.051.051.082.072.021.02.052.041.072.062.031.02.062.051.093.072.021.021.041.031.072.052.031.03.073.051.104.082.02.01.041.031.062.041l.113.083c.021.01.031.021.052.031.041.031.082.062.124.082l.041.031a.975.975 0 0 0 .134.083l.021.01h.01c.051.031.113.073.165.103l.021.011c.051.031.103.062.154.082l.021.011c.062.031.124.062.186.103z" fill="#89B2B0"/><path fill-rule="evenodd" clip-rule="evenodd" d="M681.992 184.709l6.048-9.184a8.702 8.702 0 0 0-1.92-4.644l-9.153 13.91a8.624 8.624 0 0 0 2.384.331c.928 0 1.805-.145 2.641-.413z" fill="#759B99"/><path fill-rule="evenodd" clip-rule="evenodd" d="M704.664 211.673h18.482v42.175h-18.482v-42.175z" fill="#7F4343"/><path fill-rule="evenodd" clip-rule="evenodd" d="M708.668 216.564h10.474v27.883h-10.474v-27.883z" fill="#405662"/><path fill-rule="evenodd" clip-rule="evenodd" d="M704.664 211.673h18.482v11.32c-6.088-.701-11.681.96-16.872 4.675v26.17h-1.61v-42.165z" fill="#5B3434"/><path fill-rule="evenodd" clip-rule="evenodd" d="M708.668 216.564h10.474v6.306c-3.674.206-7.151 1.32-10.474 3.25v-9.556z" fill="#27343A"/><path fill-rule="evenodd" clip-rule="evenodd" d="M661.147 216.564h10.475v27.883h-10.475v-27.883zm0-9.256h10.475v7.306h-10.475v-7.306z" fill="#405662"/><path fill-rule="evenodd" clip-rule="evenodd" d="M659.197 246.398h2.539V211.25h11.836v-5.893h-14.375v41.041z" fill="#77623A"/><path fill-rule="evenodd" clip-rule="evenodd" d="M661.147 216.564h.589v27.883h-.589v-27.883zm0-9.256h10.475v3.942h-9.886v3.364h-.589v-7.306z" fill="#27343A"/><path fill-rule="evenodd" clip-rule="evenodd" d="M640.746 246.398h2.539V211.25h11.836v-5.893h-14.375v41.041z" fill="#77623A"/><path fill-rule="evenodd" clip-rule="evenodd" d="M642.696 216.564h.588v27.883h-.588v-27.883zm0-9.256h10.474v3.942h-9.886v3.364h-.588v-7.306z" fill="#27343A"/><path fill-rule="evenodd" clip-rule="evenodd" d="M643.285 237.007l9.886-15.036v-3.343l-9.886 15.025v3.354z" fill="#89B2B0"/><path fill-rule="evenodd" clip-rule="evenodd" d="M644.389 244.447l8.782-13.343v-6.821l-9.886 15.025v5.139h1.104zM661.735 238.844l9.886-15.025v-3.343l-9.886 15.025v3.343z" fill="#759B99"/><path fill-rule="evenodd" clip-rule="evenodd" d="M664.614 244.448l7.007-10.65v-7.482l-9.886 15.036v3.096h2.879z" fill="#89B2B0"/><path fill-rule="evenodd" clip-rule="evenodd" d="M708.668 244.045l10.474-15.933v-3.343l-10.474 15.933v3.343zM715.335 244.447l3.808-5.8v-7.842l-8.978 13.642h5.17z" fill="#759B99"/><path fill-rule="evenodd" clip-rule="evenodd" d="M661.736 241.351l-.589.898v2.198h.589v-3.096zm-.589-1.61l.589-.898V235.5l-.589.898v3.343zM643.285 239.309l-.589.898v4.241h.589v-5.139zm-.589-1.404l.589-.897v-3.344l-.589.898v3.343z" fill="#4C6972"/><path fill-rule="evenodd" clip-rule="evenodd" d="M773.175 164.173h51.328v47.5h-30.844l-20.484-47.5z" fill="#8B5347"/><path d="M813.936 211.673v-47.5h1.486v47.5h-1.486zm-39.286-44.074v-3.416h1.486v6.873l-1.486-3.457zm9.824 22.775v-26.201h1.486v29.647l-1.486-3.446zm9.825 21.299v-47.5h1.486v47.5h-1.486zm9.813 0v-47.5h1.486v47.5h-1.486z" fill="#9D6152"/><path d="M715.717 173.017v-8.844h1.486v9.948l-1.486-1.104zm9.824 7.399v-8.762h1.486v9.886l-1.486-1.124zm9.824 7.409v-16.171h1.486v17.275l-1.486-1.104zm9.824 7.42v-31.072h1.486v32.155l-1.486-1.083zm9.814 11.857v-42.929h1.486v46.375l-1.486-3.446zm9.824 4.571v-47.5h1.486v47.5h-1.486zm9.824 0v-44.074l1.486 3.457v40.627h-1.486v-.01zm9.824 0v-21.299l1.486 3.457v17.842h-1.486z" fill="#8B5347"/><path fill-rule="evenodd" clip-rule="evenodd" d="M748.46 238.762h53.867v35.24H748.46v-35.24z" fill="#282E31"/><path fill-rule="evenodd" clip-rule="evenodd" d="M675.667 200.467l3.694 4.891 12.353-9.308v42.516l-16.047-38.099z" fill="#B89966"/><path d="M910.681 143.338H798.086a5.913 5.913 0 0 0-5.913 5.913v166.287a5.913 5.913 0 0 0 5.913 5.913h112.595a5.913 5.913 0 0 0 5.913-5.913V149.241c0-3.261-2.652-5.903-5.913-5.903z" fill="#9AC0E2"/><path d="M907.461 156.506H801.295v151.767h106.166V156.506z" fill="#fff"/><path d="M907.461 156.506H801.295v32.919h106.166v-32.919z" fill="#0046B4"/><path d="M846.917 288.408h-27.223v4.52h27.223v-4.52zM867.556 205.945h-53.877v4.52h53.877v-4.52z" fill="#667ABD"/><path d="M892.436 200.538h-14.374v14.375h14.374v-14.375z" fill="#DEE5FA"/><path d="M886.761 213.52l-5.862-7.729a1.81 1.81 0 0 1 .351-2.529 1.81 1.81 0 0 1 2.528.351l2.797 3.695 6.986-10.475a1.797 1.797 0 0 1 2.497-.495 1.798 1.798 0 0 1 .496 2.497l-9.793 14.685z" fill="#46B400"/><path d="M867.556 230.496h-53.877v4.52h53.877v-4.52z" fill="#667ABD"/><path d="M892.436 225.099h-14.374v14.375h14.374v-14.375z" fill="#DEE5FA"/><path d="M886.761 238.08l-5.862-7.729a1.81 1.81 0 0 1 .351-2.528 1.808 1.808 0 0 1 2.528.351l2.797 3.694 6.986-10.474a1.795 1.795 0 0 1 2.497-.495 1.798 1.798 0 0 1 .496 2.497l-9.793 14.684z" fill="#46B400"/><path d="M867.556 255.056h-53.877v4.52h53.877v-4.52z" fill="#667ABD"/><path d="M892.436 249.659h-14.374v14.375h14.374v-14.375z" fill="#DEE5FA"/><path d="M886.761 262.63l-5.862-7.729a1.81 1.81 0 0 1 .351-2.528 1.808 1.808 0 0 1 2.528.351l2.797 3.694 6.986-10.474a1.796 1.796 0 0 1 2.497-.496 1.799 1.799 0 0 1 .496 2.498l-9.793 14.684z" fill="#46B400"/><path d="M860.538 300.223c-.082 0-.165-.01-.237-.02-.691-.114-1.465-.568-2.157-2.446-1.259.454-2.229.588-2.93.31-.568-.227-.908-.754-.95-1.435-.062-1.259 1.001-3.426 2.611-5.789a87.794 87.794 0 0 1-.34-6.439.82.82 0 0 1 .815-.826h.01a.81.81 0 0 1 .815.815c0 .031.021 1.971.186 4.427 2.642-3.384 6.047-6.748 8.627-8.08 1.692-.877 3.055-.939 4.025-.175 1.083.846 1.95 2.827-.083 7.44a28.439 28.439 0 0 1-.784 1.62c1.723-.794 2.92-1.083 3.705-.712.433.207.712.599.784 1.105.165 1.093.103 2.198.041 3.085-.031.557-.083 1.311 0 1.6.124-.011.423-.062 1.011-.341 1.197-.557 3.21-2.693 5.15-4.757 3.446-3.664 5.644-5.893 7.337-5.552.413.082.97.351 1.279 1.176.124.32.258.341.331.362 1.217.237 4.664-2.56 7.151-5.274a.817.817 0 0 1 1.156-.051c.33.309.361.825.051 1.155-.918 1.012-5.448 5.81-8.255 5.81-.145 0-.279-.01-.403-.041-.505-.093-1.186-.413-1.558-1.383-.041-.103-.072-.155-.082-.155-.847-.185-4.066 3.241-5.8 5.078-2.146 2.28-4.169 4.427-5.655 5.118-.825.382-1.868.753-2.642.227-.846-.578-.774-1.734-.691-3.075.052-.815.103-1.734-.01-2.621-.671-.042-2.498.836-4.386 1.857-2.58 4.056-6.058 7.987-8.122 7.987zm-.877-3.106c.485 1.373.898 1.466.908 1.466.702.082 2.766-1.806 4.851-4.562-2.281 1.311-4.19 2.374-5.759 3.096zm-3.766-.547c.351.093.99-.072 1.785-.371a29.846 29.846 0 0 1-.506-2.745c-.877 1.476-1.362 2.631-1.279 3.116zm2.683-5.252l.031.32c.175 1.661.392 2.92.609 3.89 1.764-.846 3.859-2.043 5.5-2.972 1.021-.578 1.95-1.114 2.807-1.579.794-1.3 1.527-2.672 2.095-4.045 1.073-2.58 1.207-4.427.392-5.067-.609-.474-2.013.011-3.777 1.3-2.828 2.044-5.676 5.325-7.657 8.153z" fill="#5166AD"/><path opacity=".3" d="M851.087 321.44c1.073-6.418 25.035-23.311 19.07-31.825-4.468-6.377-59.564-35.23-59.564-35.23s-8.142 9.184-18.409 1.764v60.617a4.676 4.676 0 0 0 4.674 4.674h54.229z" fill="#000"/><path d="M824.576 298.49c0 11.712-9.494 21.196-21.196 21.196-11.713 0-21.196-9.494-21.196-21.196 0-11.713 9.493-21.196 21.196-21.196 11.702 0 21.196 9.483 21.196 21.196zM677.06 298.49c0 11.712-9.494 21.196-21.196 21.196-11.713 0-21.196-9.494-21.196-21.196 0-11.713 9.494-21.196 21.196-21.196 11.702 0 21.196 9.483 21.196 21.196z" fill="#192D4B"/><path d="M856.039 271.608l-232.196 1.961-23.364 33.745 4.913 4.437 11.413 2.796h210.206l18.523-4.592 18.451-7.099 4.675-7.503-12.621-23.745zM675.997 263.044c2.219-1.053 29.782-15.067 38.017-18.926 5.49-2.57 12.847-4.087 12.847-4.087l-.412-1.166c-26.284 3.509-60.441 23.828-60.441 23.828s7.77 1.403 9.989.351zM832.45 255.944c-2.9-1.053-22.734-8.328-33.487-12.177-7.172-2.57-16.789-4.087-16.789-4.087l-2.983-1.341c37.233 3.24 72.711 19.452 72.711 19.452s-16.552-.795-19.452-1.847z" fill="#192D4B"/><path d="M871.343 279.245l-3.807-2.219-.454-12.59.495-1.671a2.737 2.737 0 0 0-1.93-3.416l-20.401-5.356s-10.196.372-11.744.114c-37.614-14.716-54.073-17.347-77.674-17.347-25.695 0-37.377.237-80.656 25.117-1.486.857-12.084-.588-12.084-.588-23.931.991-55.601 12.61-64.538 21.722-2.538 2.477-3.508 3.56-3.56 7.688-.052 4.128 2.683 15.479 2.683 15.479s1.754 2.333 7.028 2.518c5.273.186 11.722.423 11.722.423l3.932-.02 5.923.124v-8.813c0-13.632 11.156-25.056 24.788-24.787 13.208.258 23.837 11.041 23.837 24.312v10.154l112.905-1.413v-8.266c0-13.632 11.155-25.056 24.787-24.787 13.209.258 23.838 11.041 23.838 24.312v7.647c17.46-2.673 30.246-6.398 32.908-10.557 3.365-5.232 2.002-17.78 2.002-17.78z" fill="#14AFEB"/><path d="M833.337 300.245c0 11.712-9.493 21.196-21.196 21.196-11.712 0-21.196-9.494-21.196-21.196 0-11.713 9.494-21.196 21.196-21.196 11.703-.01 21.196 9.483 21.196 21.196z" fill="#192D4B"/><path d="M827.879 300.244c0 8.7-7.049 15.748-15.748 15.748-8.699 0-15.747-7.048-15.747-15.748 0-8.699 7.048-15.747 15.747-15.747s15.748 7.048 15.748 15.747z" fill="#14AFEB"/><path d="M812.141 304.455a4.21 4.21 0 1 0 0-8.42 4.21 4.21 0 0 0 0 8.42zM671.797 300.245c0 11.712-9.493 21.196-21.196 21.196-11.712 0-21.196-9.494-21.196-21.196 0-11.713 9.494-21.196 21.196-21.196 11.713-.01 21.196 9.483 21.196 21.196z" fill="#192D4B"/><path d="M666.348 300.244c0 8.7-7.048 15.748-15.747 15.748s-15.747-7.048-15.747-15.748c0-8.699 7.048-15.747 15.747-15.747s15.747 7.048 15.747 15.747z" fill="#14AFEB"/><path d="M654.811 300.244a4.215 4.215 0 0 1-4.21 4.211 4.215 4.215 0 0 1-4.21-4.211 4.215 4.215 0 0 1 4.21-4.21 4.208 4.208 0 0 1 4.21 4.21zM813.348 251.826c-28.822-10.268-42.216-11.331-59.212-11.393-25.407-.083-37.666 3.509-73.505 23.528-.547.537-.96 3.664-.96 3.664s88.829-5.294 124.39-7.75c2.394-.155 7.719-4.149 9.287-8.049z" fill="#192D4B"/><path d="M836.454 299.935v7.646c16.439-2.517 28.74-5.964 32.341-9.834l-32.361 1.032c.01.392.02.774.02 1.156zM626.289 309.222v-3.736l-28.409.908c.578.578 2.538 2.157 6.831 2.302 5.274.185 11.723.423 11.723.423l3.932-.021 5.923.124zM787.829 300.337l-112.915 3.601v6.151l112.915-1.404v-8.348z" fill="#0082C8"/><path d="M868.516 298.026l.02-.021.01-.01-.03.031zM866.297 299.646c-.082.052-.165.093-.247.145.082-.052.165-.103.247-.145zM866.958 299.233l-.403.249c.145-.083.279-.166.403-.249zM865.729 299.966c.011-.01.022-.01.043-.021-.021 0-.032.011-.043.021zM868.31 298.222c-.042.031-.073.072-.114.103.031-.042.072-.072.114-.103zM867.39 298.935l-.185.123a.587.587 0 0 0 .185-.123zM867.773 298.655l-.134.104c.051-.031.093-.073.134-.104z" fill="#000"/><path d="M621.913 277.273s-4.334 7.162-6.718 8.349c-7.358 3.684-13.931 4.406-14.344 4.406-1.053-3.828-.372-6.284-.372-6.284 5.222-3.653 13.323-5.955 21.434-6.471z" fill="#fff"/><path d="M603.287 297.623c-1.95 1.971-3.477 6.801-3.477 6.801s9.277-.609 11.289-1.569c2.776-1.321 4.241-10.092 4.241-10.092s-10.268 3.065-12.053 4.86z" fill="#0082C8"/><path opacity=".4" d="M871.343 279.244l-3.807-2.218-23.848-1.589s3.302 1.547 11.103 2.321c10.123 1.001 16.552 1.486 16.552 1.486z" fill="#fff"/><path d="M867.082 264.447l.547-1.847c.35-1.177-.651-2.322-1.868-2.147l-13.157 1.951 14.478 2.043z" fill="#0082C8"/><path d="M742 273.425h8.059l-1.372-34.56h-5.459L742 273.425z" fill="#14AFEB"/><path d="M953.507 244.396c1.919-5.758.505-20.99 3.477-27.078 4.819-9.897 8.194-1.59 9.04 3.498 1.104 6.604-4.086 23.404-5.882 26.108-1.899 2.838-7.471-.041-6.635-2.528z" fill="#93C7DF"/><path d="M943.063 260.515c1.868-2.002 8.648-11.052 10.443-16.119 1.208-3.416 8.38-2.301 7.306 1.032-1.909 5.913-15.665 16.49-16.284 16.779-1.125.527-2.301-.794-1.465-1.692z" fill="#EDF3FA"/><path d="M942.527 321.44h11.908s.702-2.249-.908-3.333c-.691-.464-2.394-.98-5.438.207-2.652 1.042-6.016 1.362-5.562 3.126z" fill="#360F2C"/><path d="M951.773 315.373c-.568-.166-1.063-.3-1.455-.207-.072.898-.299 2.023-.33 2.735-.031.64 2.837.918 3.075.423.32-.661.619-1.486 1.032-2.435-.434-.227-1.806-.362-2.322-.516z" fill="#FAA284"/><path d="M951.628 318.778c-1.073-.196-1.197-1.124-1.661-1.186-.516-.073-.423.031-2.332.98-.434.217.774.599 1.744.599s2.652-.32 2.249-.393z" fill="#360F2C"/><path d="M976.251 248.07c.639 3.209 1.867 6.367.309 11.103-1.785 5.418-9.215 23.271-10.247 26.717-1.032 3.447-9.824 29.937-10.165 30.618-.722 1.465-7.626.103-7.626-1.053 0-.835 4.5-25.076 6.027-34.353 1.414-8.648 7.089-32.692 7.42-35.334.567-4.458 13.487-1.754 14.282 2.302z" fill="#20307A"/><path d="M980.43 241.589a79.209 79.209 0 0 1-6.863 1.486c-4.427.763-6.748.898-9.937.867.96 6.398 1.455 12.424 8.534 12.507 9.907.113 10.123-8.297 8.534-13.777-.093-.35-.186-.712-.268-1.083z" fill="#1A4EA0"/><path d="M977.54 321.44h11.424s.67-2.249-.867-3.333c-.661-.464-2.518-1.197-5.438-.01-2.549 1.042-5.552 1.579-5.119 3.343z" fill="#360F2C"/><path d="M984.63 315.238c-.589.072-1.094.155-1.414.413.289.908.474 1.703.722 2.415.227.639 3.075.412 3.106-.176.031-.784.423-2.022.423-3.127-.495-.041-2.301.403-2.837.475z" fill="#FAA284"/><path d="M986.136 318.365c-.537.165-1.094-.898-2.054-.898-.97 0-.443.258-2.353 1.197-.433.217 1.394.495 2.353.495.96.011 2.518-.939 2.054-.794z" fill="#360F2C"/><path d="M982.782 243.859c1.301 3.054 3.169 5.913 2.653 10.969-.589 5.779-3.633 25.716-3.901 29.369-.279 3.654 7.574 27.853 7.574 30.092 0 2.311-6.965 2.92-7.172 2.146-.227-.846-10.422-21.815-12.352-32.031-2.828-14.994-1.734-30.649-1.042-33.125 1.424-5.026 12.6-11.28 14.24-7.42z" fill="#1A4EA0"/><path d="M964.207 210.053c-1.867 1.084-5.562 3.199-7.182 7.172s-.475 8.359 1.548 15.841c2.012 7.481 1.682 17.408 3.003 17.924 6.718 2.632 23.59-2.827 22.558-5.552-2.477-6.573-4.902-21.742-4.21-27.862.691-6.119-4.716-9.215-8.06-9.38-2.93-.145-5.479.588-7.657 1.857z" fill="#BEE3F7"/><path d="M959.729 206.4s1.311 3.013 1.662 4.158c.846 2.766.712 3.468 1.826 3.519 2.24.114 4.17-4.365 3.901-4.994-1.176-2.756-3.684-6.729-3.684-6.729l-3.705 4.046z" fill="#EF8D72"/><path d="M956.334 205.502s-5.263 1.599-6.44-2.363c-.743-2.477.939-2.838 1.136-3.684.196-.836-1.125-2.301.309-3.56 1.651-1.445 3.756-1.136 4.561-1.858.805-.722 1.816-2.642 4.2-.66.991.815 2.167 1.176 3.333.918 1.827-.402 3.261 1.238 3.179 2.91-.083 1.589-.588 1.651.299 2.704.898 1.073.516 2.879-.722 3.498-.96.475-.196 2.394-2.879 1.693-1.765-.455-6.976.402-6.976.402z" fill="#3B221D"/><path d="M896.079 281.731a.478.478 0 0 1 .165-.67l1.744-1.074.516.836-1.744 1.073a.506.506 0 0 1-.681-.165z" fill="#4670BD"/><path d="M965.426 249.421c-29.586 18.1-65.404 35.488-67.891 31.422-2.487-4.065 29.286-28.048 58.872-46.148 29.586-18.1 45.783-23.487 48.273-19.421 2.49 4.066-9.668 16.036-39.254 34.147z" fill="#485991"/><path d="M935.169 248.42l8.359 13.653c1.475-.805 2.951-1.62 4.437-2.446l-8.586-14.034c-1.414.939-2.817 1.888-4.21 2.827z" fill="#FFB55C"/><path opacity=".3" d="M1004.68 215.274c1.26 2.054-11.898 12.394-41.483 30.505-29.586 18.11-64.404 37.118-65.663 35.065 2.487 4.066 38.306-13.312 67.892-31.423 29.585-18.11 41.744-30.081 39.254-34.147z" fill="#000"/><path d="M976.168 241.011c-14.364 9.163-28.027 15.365-28.667 14.354-.64-1.011 11.97-8.844 26.335-18.007 14.365-9.164 25.055-16.192 25.695-15.191.639 1.012-8.998 9.68-23.363 18.844z" fill="#FFB55C"/><path d="M983.67 233.457c-1.444-1.847-7.615-8.865-11.423-13.023-2.611-2.848-.681-13.281 3.034-11.269 8.967 4.871 14.952 19.875 14.973 22.569.01 3.426-4.922 3.859-6.584 1.723z" fill="#93C7DF"/><path d="M970.049 245.107c2.157-1.682 10.258-10.309 13.229-14.881 1.672-2.569 8.287-.309 6.698 2.807-2.828 5.542-18.1 13.787-18.751 13.973-1.186.351-2.146-1.146-1.176-1.899z" fill="#93C7DF"/><path d="M970.874 245.562c-.165-.372-.474-.692-1.393-1.146-.918-.454-2.528-.939-2.765-.464-.238.464 1.176.629.928 1.104-.608 1.145-4.138-.629-3.993.495.309 2.364 2.703 2.879 3.901 2.91 1.744.052 3.023-.939 3.312-1.351.361-.506.217-1.094.01-1.548zM945.436 260.907c.475.341.186 1.084-1.021 2.074-1.208.991-4.272 1.197-4.489.114-.207-1.084 2.611-2.322 3.735-2.209 1.125.135 1.404-.237 1.775.021z" fill="#FAA284"/><path d="M824.452 182.521c5.756 0 10.422-4.666 10.422-10.423 0-5.756-4.666-10.422-10.422-10.422s-10.423 4.666-10.423 10.422c0 5.757 4.667 10.423 10.423 10.423z" fill="#fff"/><path d="M824.452 181.821c5.369 0 9.721-4.353 9.721-9.721a9.72 9.72 0 0 0-9.721-9.721c-5.368 0-9.721 4.352-9.721 9.721 0 5.368 4.353 9.721 9.721 9.721z" fill="#fff"/><path d="M814.938 174.111a9.71 9.71 0 0 0 2.115 4.293c1.558-6.945 7.76-12.146 15.18-12.146a7.957 7.957 0 0 0-.465-.568 15.567 15.567 0 0 0-16.83 8.421z" fill="#0046B4"/><path d="M820.087 180.788a9.683 9.683 0 0 0 4.365 1.032c5.366 0 9.721-4.355 9.721-9.721 0-1.837-.516-3.56-1.393-5.026-6.759 1.218-11.991 6.79-12.693 13.715zM826.95 164.318c1.362 0 2.693.175 3.952.505a9.662 9.662 0 0 0-6.45-2.456 9.717 9.717 0 0 0-9.483 7.585 15.498 15.498 0 0 1 11.981-5.634z" fill="#46B400"/><path d="M836.392 163.761h6.749v1.826h-4.634v3.302h3.86v1.827h-3.86v4.716h-2.115v-11.671zM848.362 166.938c-1.28 0-2.281.95-2.663 2.157h-.031s.031-.278.031-.588v-1.403h-2.002v8.338h2.085v-3.323c0-.496.051-.95.186-1.362.392-1.249 1.393-1.755 2.28-1.755.279 0 .495.031.495.031v-2.053c0-.011-.185-.042-.381-.042zM853.139 166.856c2.415 0 3.715 1.755 3.715 3.973 0 .248-.051.805-.051.805h-5.789c.134 1.466 1.269 2.219 2.517 2.219 1.352 0 2.415-.918 2.415-.918l.805 1.496s-1.279 1.197-3.364 1.197c-2.776 0-4.499-2.002-4.499-4.386-.011-2.58 1.754-4.386 4.251-4.386zm1.61 3.344c-.031-1.135-.743-1.744-1.661-1.744-1.073 0-1.806.66-2.002 1.744h3.663zM861.664 166.856c2.414 0 3.715 1.755 3.715 3.973 0 .248-.052.805-.052.805h-5.789c.134 1.466 1.269 2.219 2.518 2.219 1.352 0 2.415-.918 2.415-.918l.805 1.496s-1.28 1.197-3.365 1.197c-2.776 0-4.499-2.002-4.499-4.386 0-2.58 1.754-4.386 4.252-4.386zm1.61 3.344c-.031-1.135-.743-1.744-1.662-1.744-1.073 0-1.806.66-2.002 1.744h3.664zM883.623 170.169h.279v-.114c0-1.104-.692-1.475-1.61-1.475-1.197 0-2.301.805-2.301.805l-.784-1.497s1.3-1.032 3.291-1.032c2.198 0 3.488 1.218 3.488 3.334v5.242h-1.919v-.692c0-.33.031-.588.031-.588h-.031c.021 0-.64 1.476-2.549 1.476-1.496 0-2.848-.939-2.848-2.611-.01-2.662 3.591-2.848 4.953-2.848zm-1.599 3.828c1.104 0 1.888-1.186 1.888-2.198v-.196h-.361c-1.073 0-2.797.145-2.797 1.311.011.557.424 1.083 1.27 1.083zM892.456 167.094l-1.63 4.819c-.145.444-.279 1.104-.279 1.104h-.031s-.144-.691-.309-1.135l-1.744-4.788h-2.343l3.509 8.204-.269.619c-.309.743-.866 1.083-1.444 1.083-.475 0-.939-.34-.939-.34l-.692 1.558s.743.547 1.744.547c1.228 0 2.374-.629 2.972-2.074l3.726-9.597h-2.271zM876.358 167.094l-1.455 5.459c-.114.443-.186.887-.186.887h-.031s-.062-.444-.185-.887l-1.538-5.459h-1.878l-1.538 5.459c-.113.443-.196.887-.196.887h-.031s-.051-.444-.165-.887l-1.455-5.459h-2.198l2.549 8.338h2.332l1.414-4.778c.134-.444.196-.908.196-.908h.031s.082.464.217.908l1.413 4.778h2.322l2.528-8.338h-2.146zM836.392 177.092H837v3.333h-.608v-3.333zM840.406 177.093h.609l1.259 1.93c.124.196.279.515.279.515h.01s-.031-.319-.031-.515v-1.93h.599v3.333h-.599l-1.259-1.919c-.124-.197-.279-.516-.279-.516h-.01s.031.319.031.516v1.919h-.609v-3.333zM846.855 179.58s.362.35.836.35c.258 0 .485-.134.485-.402 0-.599-1.568-.495-1.568-1.517 0-.557.475-.97 1.114-.97.661 0 .991.361.991.361l-.258.496s-.32-.289-.733-.289c-.278 0-.505.165-.505.402 0 .588 1.568.444 1.568 1.517 0 .526-.402.98-1.094.98-.743 0-1.145-.454-1.145-.454l.309-.474zM852.181 177.093h.609v2.136c0 .444.288.702.732.702s.743-.258.743-.702v-2.136h.609v2.136c0 .743-.537 1.249-1.341 1.249-.805 0-1.352-.506-1.352-1.249v-2.136zM858.279 177.093h1.073c.361 0 .526.031.671.093.33.154.547.474.547.908 0 .402-.207.774-.568.908v.01s.052.052.114.165l.681 1.249h-.681l-.661-1.249h-.578v1.249h-.608v-3.333h.01zm1.145 1.568c.32 0 .527-.196.527-.526 0-.32-.135-.516-.609-.516h-.465v1.042h.547zM866.276 179.579h-1.166l-.278.857h-.63l1.177-3.333h.629l1.176 3.333h-.629l-.279-.857zm-.578-1.909s-.072.33-.144.516l-.299.888h.877l-.299-.888a6.796 6.796 0 0 1-.135-.516zM870.59 177.093h.609l1.259 1.93c.123.196.278.515.278.515h.011s-.031-.319-.031-.515v-1.93h.598v3.333h-.598l-1.259-1.919c-.124-.197-.279-.516-.279-.516h-.01s.031.319.031.516v1.919h-.609v-3.333zM878.433 177.041c.816 0 1.228.454 1.228.454l-.289.454s-.381-.351-.908-.351c-.701 0-1.114.527-1.114 1.146 0 .629.423 1.197 1.125 1.197.577 0 .97-.423.97-.423l.32.433s-.465.537-1.311.537c-1.022 0-1.723-.754-1.723-1.734-.011-.97.722-1.713 1.702-1.713zM883.148 177.093h1.858v.526h-1.249v.877h1.125v.527h-1.125v.897h1.249v.527h-1.858v-3.354zM893.932 177.795c-.031-.052-.042-.062-.042-.062v-.01c.083-.021.196-.114.196-.289 0-.217-.144-.351-.361-.351h-.464v1.115h.258v-.413h.144l.186.413h.289l-.206-.403zm-.269-.196h-.144v-.33h.144c.093 0 .155.062.155.165.01.103-.052.165-.155.165z" fill="#fff"/><path d="M893.622 176.536c-.609 0-1.114.495-1.114 1.115 0 .608.495 1.114 1.114 1.114.609 0 1.115-.495 1.115-1.114a1.11 1.11 0 0 0-1.115-1.115zm0 1.94a.832.832 0 0 1-.836-.836c0-.464.372-.836.836-.836.465 0 .836.372.836.836a.832.832 0 0 1-.836.836z" fill="#fff"/><path d="M960.906 194.77s-4.603 4.261-5.944 4.519c-1.342.269-6.13-.433-6.13-.433.248 2.673 2.239 4.427 2.239 4.427l12.59-.949 2.146-.093c-.123-2.281-.35-4.603-.743-5.841-2.6.196-4.158-1.63-4.158-1.63z" fill="#3B221D"/><path d="M962.288 192.778c-2.383-3.922-9.731-1.951-9.731-1.951-4.54-1.124-2.177 1.393-2.177 1.393-7.09-.288-2.26 4.51-2.26 4.51-2.384.65.712 2.136.712 2.136s4.788.692 6.13.434c1.341-.269 5.944-4.52 5.944-4.52s.206.237.588.536c1.393 1.074 3.096-1.042 1.723-2.146-.536-.434-.929-.392-.929-.392z" fill="#502F26"/><path d="M964.817 200.857l-.65 1.022c-.32-.382-.62-.795-.888-1.218-1.548-2.456-2.373-5.882-2.373-5.882-5.408 4.314-11.218 4.231-11.218 4.231 1.249 2.962 2.333 10.01 5.759 12.734 1.021.816 2.167 1.404 3.725 1.166 6.759-1.001 6.45-7.822 6.45-7.822s2.187-.093 1.671-3.199c-.433-2.579-2.476-1.032-2.476-1.032z" fill="#FAA284"/><path d="M960.338 196.152s1.404 2.683 2.724 4.158c-1.393-2.373-2.156-5.531-2.156-5.531-5.408 4.314-11.218 4.231-11.218 4.231.135.32.269.702.403 1.115 2.497-.434 6.883-1.476 10.247-3.973z" fill="#EF8D72"/><path d="M955.375 204.656c.165.557-.042 1.083-.454 1.176-.423.093-.898-.278-1.063-.836-.165-.557.041-1.083.454-1.176.413-.093.898.279 1.063.836zM960.947 202.736c.165.557-.041 1.083-.454 1.176-.423.093-.898-.278-1.063-.836-.165-.557.041-1.083.454-1.176.423-.093.898.279 1.063.836z" fill="#502F26"/><path d="M958.347 207.183c-1.084.888-1.941.516-2.178-.061a.887.887 0 0 1 .279-1.043c.671-.536.836-1.868.836-1.878.082.268.134 1.362-.661 2.219-.165.186-.258.351-.186.536.145.32.774.671 1.91.227z" fill="#DB7C65"/><path d="M951.949 202.591l-.176-.361c.083-.031 1.259-.784 2.807-1.125l.196.589c-1.29.196-2.807.887-2.827.897zM961.153 199.929c-1.135-.072-3.024.434-3.044.434l-.042-.578c.083-.01 1.796-.475 3.107-.227l-.021.371z" fill="#502F26"/><path d="M947.418 192.582s3.509 1.806 9.783-.165c0 0-3.209 4.138-9.38 3.973-.01 0-2.487-2.941-.403-3.808z" fill="#674434"/><path d="M964.899 204.48c-.052 1.765-.867 6.336-5.335 7.471-2.425.609-4.118-.577-5.263-1.434.351.454.732.867 1.156 1.197 1.021.815 2.167 1.404 3.725 1.166 6.759-1.001 6.449-7.822 6.449-7.822s1.683-.052 1.755-2.229c-.599 2.384-2.487 1.651-2.487 1.651z" fill="#EF8D72"/><path d="M960.782 207.369s-2.198 1.208-4.52 1.414c0 0 1.011 1.888 2.889 1.29 1.765-.557 1.734-2.312 1.631-2.704z" fill="#CE3E3E"/><path d="M958.769 209.051c-1.445.454-2.054-.02-2.332-.289 1.795-.196 3.095-.815 4.241-1.341-.021.402-.547 1.207-1.909 1.63z" fill="#fff"/></g><defs><clipPath id="clip0"><path fill="#fff" transform="translate(595 138.333)" d="M0 0h410v183.107H0z"/></clipPath></defs></svg>