<svg width="1608" height="329" fill="none" xmlns="http://www.w3.org/2000/svg" viewBox="0 0 1608 329"><g filter="url(#filter0_d)"><path fill="#F5FCFF" d="M1604 2H4v321h1600z"/></g><mask id="a" maskUnits="userSpaceOnUse" x="324" y="123" width="960" height="200"><path d="M1284 123H324v200h960V123z" fill="#F5FCFF"/></mask><g mask="url(#a)"><path fill-rule="evenodd" clip-rule="evenodd" d="M1173.11 104.07v27.584h13.46v-.069h1.16v24.354h.96v-42.81h5.25v-3.053h9.52v3.053h5.24v54.783h1.19v-14.689h4.41v-3.743h7.11v3.743h4.42v34.771h1.55v-22.812h4.26v-2.486h7.73v2.486h4.27v44.021h2.73V190.38h.48v-3.437h2.84v-1.104h5.14v1.104h2.83v3.437h.77v12.104h1.35v-19.43h1.97v-8.399s4.47-1.504 10.19-1.603h1.16c2.85.046 5.93.475 8.89 1.603v17.489h3.38v2.393h2.82v.092h1.18v-1.618h7.17v1.618h3.96v5.707h1.63v-1.105h2.71v-24.453h9.82v25.397h10.82v22.92h4.01v6.788h.05v16.361h1.95v-37.309h4.81V196.57h5.62v36.857h1.8v-27.415h2.2v-3.82h1.2v-4.272h2v-2.923h4.81v2.923h2.01v4.272h1.2v3.82h2.2v24.5h2.82v-8.767h7.8v14.159h1.8v-7.417h8.02v10.117h8.41v11.46h5.81v6.006H681v-5.162h5.81v-9.849h8.417v-8.691h8.017v6.374h1.808v-12.173h7.814v7.533h2.804v-21.048h2.207v-3.283h1.206v-3.674h2.004v-2.509h4.815v2.509h1.997v3.674h1.206v3.283h2.2v23.556h1.801v-31.679h5.614v10.623h4.807v32.063h2.005V227.72h4.008v-19.698h10.821v-21.823h9.819v32.83h4.342v-15.771h3.958v-1.396h7.168v1.396h3.958v22.882h3.42v-40.033c2.956-.974 6.042-1.335 8.889-1.381h1.162c5.715.085 10.189 1.381 10.189 1.381v32.485h3.319v-18.969h4.096v-2.647h6.594v2.647h4.096v18.969h5.148V167h4.866v-2.163h8.816V167h4.866v36.918h9.898v-11.483h1.583v-20.373h2.658v-17.097h3.021v-8.162l.022-.038h17.538l.03.038v8.154h3.013v17.098h2.651v20.38h1.59v2.57h2.942v2.922h1.241v-36.918h11.903V172.2h6.805v19.2h5.613v-19.668h7.568v-5.4h3.674v-15.256h13.827v5.162h2.165v18.079h3.144v-29.631c3.188-1.181 6.514-1.618 9.586-1.672 6.754-.115 12.237 1.672 12.237 1.672v28.389c.436.015.871.03 1.285.061v-24.055h1.714v-23.648h31.185v23.648h1.71v3.337h.97v-19.192h5.24v-2.631h9.51v2.631h5.24v47.082h1.19V167.69h4.42v-3.214h.43v-6.175h2.65v-19.897h3.02v-9.496l.02-.046h17.54l.02.046v9.496h3.01v19.897h2.65v23.71h1.59v19.046h1.62v-4.395h2.56v-51.224h11.9v13.032h6.8v22.344h5.62v-22.881h7.57v-6.282h3.67v-17.75h13.84v6.006h2.16v21.033h3.15v-34.472c3.18-1.373 6.51-1.894 9.58-1.948 6.75-.13 12.23 1.948 12.23 1.948v35.653h1.29v-30.536h1.71V104.07h18.24z" fill="#A3DEF7" fill-opacity=".5"/><path d="M1291.39 273.964v-28.881s-76.98-21.158-248.83-14.476c48.73-.47 142.11 4.932 248.83 43.36" fill="#00AA1D"/><path d="M937.049 235.567l-16.112 1.357-.049.007c155.292 9.473-163.865 181.551-163.865 181.551h180.024s161.313-185.049 0-182.917" fill="#fff"/><path d="M1005.48 232.418l-68.429 3.148c161.309-2.132 0 182.917 0 182.917h354.339v-88.17c-49.23-58.844-189.8-103.547-285.91-97.895z" fill="#004EBB"/><path d="M920.891 236.93c155.299 9.473-163.865 198.357-163.865 198.357l-393.864-16.804 153.121-19.404s-126.022-2.012 12.459-7.241c155.533-26.955 306.494-145.605 392.149-154.908z" fill="#00AA1D"/><path d="M1042.56 230.609c-11.94.464-24.3 1.068-37.08 1.812 1.33-.078 2.66-.14 3.97-.198.96-.041 1.92-.074 2.88-.107l.43-.014c95.88-3.06 230.62 40.818 278.64 98.215v-56.349c-106.73-38.425-200.11-43.83-248.84-43.359z" fill="#fff"/><path d="M40.683 357.429l-13.29-65.437s84.795-46.904 251.535-57.202c87.365-8.814 307.285 25.183 307.239 36.613-.033 6.843-545.484 86.026-545.484 86.026z" fill="#00AA1D"/><path d="M915.775 319.852L302.153 346 51.617 332.081s563.2-83.262 599.438-83.446c61.794-.318 101.948-25.069 174.223-27.5 39.74-1.335 76.377 7.433 101.339 18.14l-10.842 80.577z" fill="#00AA1D"/><path d="M285 428.15c0-37.885 2.377-83.679 58.69-106.631 100.338-40.888 311.29-57.399 314.222-63.689 3.739-8-101.011-8.846-101.19-8.846 0 0 198.714-9.713 200.636 9.629 1.254 12.603-73.806 28.626-65.095 37.647 17.31 17.868 267.554 73.291 515.757 99.73l.98 31.834-924 .326z" fill="#fff"/><path d="M601.23 250.432s147.688-4.112 140.817 13.04c-3.834 9.576-82.523 24.352-88.176 38.418-18.568 46.304 424.749 120.219 424.749 120.219L1047.24 430l-634.228-2.026c-30.482-30.567-29.303-72.405-7.271-94.02 45.148-44.286 277.522-62.666 282.025-73.855 3.39-8.455-86.536-9.667-86.536-9.667z" fill="#0047B8"/><path d="M598.196 289.621c-.674-4.303 22.832-11.565 52.502-16.219 29.67-4.654 54.268-4.938 54.942-.634.673 4.304-22.833 11.565-52.503 16.219-29.669 4.654-54.268 4.938-54.941.634z" fill="#000" fill-opacity=".4"/><path d="M695.756 238.418c-1.01 0-6.494.693-7.418 1.011 8.284-.26 14.605 8.668 14.605 17.51 0 8.841-3.117 18.001-14.028 18.145.953.289 5.86.549 6.87.549 7.187-.086 13.018-8.495 13.018-18.781s-5.831-18.521-13.047-18.434z" fill="#00699B"/><path d="M689.929 238.506c1.01 0 6.004-.376 6.956-.087-8.284-.029-14.114 9.968-14.114 18.781 0 8.842 3.232 18.55 14.143 18.406-.952.317-5.946.086-6.956.086-7.187.087-13.047-8.148-13.047-18.434 0-10.258 5.831-18.666 13.018-18.752z" fill="#00699B"/><path d="M695.816 275.748c7.678-.115 13.942-8.61 13.942-18.983 0-10.373-6.264-18.695-13.97-18.608-7.678.115-13.942 8.61-13.942 18.983 0 10.373 6.264 18.724 13.97 18.608zm-.173-34.673c6.148-.086 11.142 6.906 11.142 15.545 0 8.668-4.994 15.776-11.142 15.863-6.148.087-11.141-6.906-11.141-15.545.029-8.668 5.022-15.776 11.141-15.863z" fill="#0094DA"/><path d="M707.822 257.228c0-8.899-5.368-16.152-11.949-16.152-6.581 0-11.921 7.253-11.921 16.152 0 8.899 5.34 16.152 11.921 16.152 6.581 0 11.949-7.253 11.949-16.152zm-2.078 0c0 7.801-4.416 14.129-9.871 14.129-5.427 0-9.872-6.356-9.872-14.129 0-7.801 4.416-14.129 9.872-14.129 5.455 0 9.871 6.328 9.871 14.129z" fill="#12BAED"/><path d="M661.932 250.756l-1.646 5.692 34.406 4.71c.318.029.607.029.895 0a4.714 4.714 0 0 0 1.645-.491c1.242-.636 2.108-1.792 2.483-3.265.375-1.503.173-3.15-.578-4.652-1.125-2.225-3.29-3.612-5.484-3.554l-31.721 1.56zm-1.011-1.329l32.675-1.618c2.626-.087 5.339 1.531 6.754 4.305 1.905 3.699.808 8.062-2.454 9.766a6.127 6.127 0 0 1-2.107.636c-.404.029-.779.058-1.183 0l-36.051-4.912 2.366-8.177z" fill="#00699B"/><path d="M687.391 241.77l-2.049-4.017-.145-.318 7.88 15.834-34.896 4.884.288 1.589 38.072-4.883-8.342-17.713" fill="#00699B"/><path d="M687.765 256.651c.144 5.258 3.29 9.39 7.043 9.275 3.752-.116 6.667-4.392 6.523-9.593-.145-5.172-3.291-9.362-7.043-9.304-3.723.058-6.668 4.363-6.523 9.622z" fill="#00699B"/><path d="M688.946 256.623c.115 4.421 2.713 7.917 5.83 7.801 3.117-.115 5.513-3.727 5.398-8.09-.116-4.363-2.742-7.888-5.831-7.83-3.117.057-5.513 3.698-5.397 8.119z" stroke="#04BAEE" stroke-width="2.657" stroke-miterlimit="10"/><path d="M614.014 259.222l13.076-32.448-2.858-1.705-13.854 36.176 3.636-2.023z" fill="#0094DA"/><path d="M617.449 246.423l-6.004 15.141-1.039-.145 6.408-18.261.635 3.265z" fill="#04BAEE"/><path d="M616.18 243.677l4.445 1.272.809-2.283-4.445-1.271-.809 2.282z" fill="#0094DA"/><path d="M665.424 228.911s-14.432-8.177-16.943-5.114c-6.293 7.744-1.732 15.574-1.732 15.574l10.42 2.571 8.515-12.771-.26-.26z" fill="#626E97"/><path d="M631.161 200.016l-5.6-.953c-1.991-.347-3.868.924-4.214 2.831-.346 1.908.953 3.728 2.944 4.046l6.004 1.04a5.525 5.525 0 0 0 1.126-1.792c.692-1.647.577-3.611-.26-5.172z" fill="#796188"/><path d="M631.303 200.189c2.28 1.358 4.56 2.687 6.84 4.016a829.41 829.41 0 0 1 9.352-5.692c1.559-.953 2.945.231 3.089 2.572.115 2.369-1.039 5.027-2.627 5.981a673.734 673.734 0 0 0-10.391 6.386c-.548.346-1.097.433-1.559.289-.115-.029-.202-.087-.288-.116-2.656-1.503-5.282-3.005-7.938-4.508 1.645-2.282 3.175-5.836 3.522-8.928z" fill="#796188"/><path d="M663.112 233.275c-.577-1.473-.144-3.12 1.068-4.19 3.319-2.831 6.668-5.634 9.987-8.408l2.944-2.427c1.674-1.358 4.214-1.184 5.744.376 1.501 1.56 1.386 3.929-.289 5.316l-3.896 3.208c-2.338 1.936-4.647 3.9-6.985 5.865.837 5.259 1.703 10.518 2.54 15.747-2.627.723-1.934.318-4.647.838-2.165-5.374-4.301-10.835-6.466-16.325z" fill="#455B8C"/><path d="M672.81 252.749s1.039 4.247.578 5.201c-.433.954-5.687 5.028-9.901 5.23-4.214.202-2.54-3.728-.721-5.895 1.818-2.167.866-.982.866-.982-.635-1.907-1.271-3.843-1.906-5.75 3.06-1.156 6.149-2.283 9.208-3.409.635 1.878 1.27 3.756 1.876 5.605z" fill="#fff"/><path d="M643.977 209.64c3.204-3.958 6.321-8.003 9.901-11.586-.838 2.08.577 4.623 1.991 6.096-3.117 4.19-5.138 7.86-8.63 12.194-.895-1.907-2.165-4.19-3.262-6.704z" fill="#796188"/><path d="M653.876 198.053a55.595 55.595 0 0 1 3.031-2.831c1.529.289 3.261.867 4.849 2.051-1.963 1.821-4.445 4.941-6.033 7.079-1.414-1.473-2.742-3.814-1.847-6.299z" fill="#6C567C"/><path d="M654.997 194.993c.578.029 1.213.087 1.905.202-4.935 4.219-8.861 9.391-12.931 14.419-1.01-2.341-1.818-4.912-1.963-7.628 4.128.866 10.825-3.497 12.989-6.993z" fill="#796188"/><path d="M652.864 195.078s.866-.145 2.165-.087c-2.684 4.248-7.562 8.206-12.96 7.021-.029-.375-.029-.722-.029-1.098.058-4.507 5.196-5.403 10.824-5.836z" fill="#F7C6A5"/><path d="M648.221 218.886c-.174-.751-.635-1.762-1.068-2.687 5.253-6.559 8.774-13.493 14.576-18.926 1.905 1.445 3.608 3.728 4.416 7.426 1.415 6.472 3.955 11.962 4.214 16.239-6.667.578-15.24 2.022-20.204 2.513-.895-1.473-1.559-3.062-1.934-4.565z" fill="#796188"/><path d="M670.388 220.908c.115 1.762-.173 3.322-1.039 4.652-.751 1.126-3.753 1.791-5.196 2.658-3.233 1.936-6.35 1.676-8.976.173-1.992-1.127-3.724-2.947-4.965-4.998 6.552-1.734 13.364-2.601 20.176-2.485z" fill="#626E97"/><path d="M653.416 222.643c.693-.145 1.415-.289 2.107-.433 0-.029-1.327-4.335-3.867-10.46-2.483-6.01-3.002-10.229-3.06-10.662-.664.347-1.559.52-2.222.867.028.173.606 4.363 3.175 10.691 2.511 6.154 3.839 9.968 3.867 9.997z" fill="#6C567C"/><path d="M663 233.591a1981.35 1981.35 0 0 1 34.262-4.276 3.787 3.787 0 0 1 4.185 3.294c.231 2.051-1.241 3.929-3.319 4.19-6.697.837-13.422 1.704-20.119 2.6-1.732 2.138-2.973 5.432-2.598 10.402 1.04 13.262-1.183 11.933-6.032 13.002-4.849 1.069-20.984 3.092-22.716 2.89-1.703-.232-8.544 1.704-9.468-1.416-.923-3.005-19.108-32.044-19.108-32.13 11.979.982 32.905.462 44.913 1.444zm-21.764 20.111l3.031-13.523-11.776.722 8.745 12.801z" fill="#00699B"/><path d="M652.26 178.055s2.713 1.878 3.666 5.086c.952 3.207 1.327 9.275.028 10.922-1.298 1.647-13.017 7.599-15.442 6.876-2.396-.751-3.839-2.716-4.127-3.785-.289-1.069-.174-2.022-.174-2.022s-.721-2.745-.779-5.548c-.029-2.803.26-3.381.26-3.381s.491-5.027 4.416-7.974c5.398-4.017 12.152-.174 12.152-.174z" fill="#27365C"/><path d="M642.014 200.913c-.635.115-1.155.144-1.472.058-2.396-.752-3.839-2.716-4.128-3.786-.289-1.069-.173-2.022-.173-2.022s-.722-2.745-.78-5.548c-.028-2.803.26-3.38.26-3.38s.491-5.028 4.416-7.975c1.617-1.214 3.349-1.705 4.994-1.821-2.165 1.243-4.878 3.468-5.571 6.877-1.212 5.952-.086 11.616 1.357 15.054.49 1.185.837 1.994 1.097 2.543z" fill="#314474"/><path d="M635.726 186.236s0-.115.029-.289c1.472.029 4.041-.029 7.62-.635 4.387-.752 6.35-1.358 7.187-1.676 2.511.722 4.186 3.525 2.396 6.183-1.039 1.387-1.472 2.109-4.416 3.323-2.771 1.3-8.515 4.276-12.354 2.196v-.174s-.722-2.744-.779-5.547c0-2.774.317-3.381.317-3.381z" fill="#D0E2E5"/><path d="M670.676 258.82c-.461.722-.231 1.704.491 2.167.722.462 1.703.231 2.165-.492l1.732-2.716c.462-.722.231-1.704-.491-2.167-.722-.462-1.703-.231-2.165.491l-1.732 2.717z" fill="#04BAEE"/><path d="M650.069 270.55c9.929-2.022 21.763-6.443 21.908-6.501l-.809-2.456c-.115.058-11.747 4.421-21.503 6.386-2.165.433-4.994-.434-6.552-3.063-1.617-2.774-3.493-7.137-4.503-9.997-.895-2.485-.924-3.554-.866-3.901l2.396-1.329-1.155-2.283-2.569 1.416c-.26.116-.606.376-.837.867-.577 1.185-.346 3.12.75 6.125 1.097 3.092 3.002 7.513 4.734 10.431 2.569 4.565 6.754 4.768 9.006 4.305z" fill="#5BC4F1"/><path d="M638.925 262.314c1.703 2.572 2.482 4.681 5.397 6.473 2.916 1.791 5.889.375 11.69-1.069 5.34-1.329 14.144-4.508 15.5-4.999l.433 1.329c-.115.058-11.978 4.479-21.908 6.501-2.222.463-6.436.26-9.092-4.276a50.062 50.062 0 0 1-2.02-3.959z" fill="#04BAEE"/><path d="M669.524 260.81l1.443-1.098 28.922-11.066-2.079 9.621-25.342 7.946-1.963-.202c-.491.087-1.097-.983-1.357-2.427-.288-1.445-.115-2.687.376-2.774z" fill="#04BAEE"/><path d="M699.482 249.716l-28.344 10.864s-.202.78.029 1.214l26.843-8.813 1.472-3.265z" fill="#5BC4F1"/><path d="M697.722 253.153c-.607 2.658-.578 4.941.086 5.114.664.174 1.732-1.849 2.338-4.507.606-2.658.577-4.941-.086-5.114-.087-.029-.174 0-.26.029-.693.317-1.559 2.138-2.078 4.478z" fill="#00699B"/><path d="M643.976 256.245s1.184-.115 3.926-.867c2.569-.722 3.637-1.329 3.637-1.329.808-.52 1.241-1.098 1.039-1.676l-3.089-8.495c-.433-1.271-.866-1.675-1.703-1.444 0 0-2.655.404-5.599 1.271-3.089.896-4.648 1.532-4.648 1.532-1.356.606-1.096 1.531-.779 2.167l4.33 8.234c.462.954 1.587.723 2.886.607z" fill="#04BAEE"/><path d="M647.471 242.753c.376-.202.809-.26 1.241-.26.289.202.549.636.78 1.329l3.088 8.495c.029.116.058.26.029.376-3.117 3.467-4.474-2.63-6.437-6.675-1.327-2.831.174-2.629 1.299-3.265z" fill="#5BC4F1"/><path d="M649.168 243.068c.087.174.174.405.289.636l-12.585 3.843-.115-.202-.173-.434 12.584-3.843zM649.918 245.007l-12.412 3.786-.317-.607 12.498-3.843.231.664zM650.385 246.304l-12.21 3.728-.346-.607 12.325-3.785.231.664zM650.875 247.608l-12.065 3.669-.318-.606 12.152-3.728.231.665zM651.336 248.878l-11.863 3.641-.318-.607 11.95-3.67.231.636zM651.826 250.177l-11.69 3.583-.346-.607 11.776-3.612.26.636zM652.293 251.479l-11.517 3.526-.317-.607 11.603-3.554.231.635zM652.522 252.142l.086.202a.945.945 0 0 1 .029.491l-10.939 3.352a1.316 1.316 0 0 1-.577-.549l11.401-3.496z" fill="#00699B"/><path d="M638.117 217.787a1.128 1.128 0 0 0 1.27-.636c1.241-2.802 2.973-4.536 5.195-5.23 3.06-.924 6.033.492 6.062.492.548.26 1.212.028 1.501-.492a1.074 1.074 0 0 0-.491-1.473c-.144-.087-3.781-1.821-7.707-.636-2.857.867-5.08 3.063-6.61 6.472-.26.549 0 1.214.578 1.445a.528.528 0 0 0 .202.058z" fill="#5BC4F1"/><path d="M647.844 210.536a2.182 2.182 0 0 0 1.674 2.6l9.035 1.936c1.183.26 2.396-.491 2.655-1.676a2.18 2.18 0 0 0-1.674-2.6l-9.034-1.936c-1.212-.26-2.396.491-2.656 1.676z" fill="#00699B"/><path d="M631.565 213.165c-.462-.144-.693-.577-.491-1.011 1.126-2.485 1.126-4.478-.058-5.894-1.616-1.994-4.935-2.312-4.964-2.312-.606-.058-.953-.52-.751-1.011.202-.491.866-.867 1.472-.809.174.029 4.243.404 6.322 2.947 1.529 1.878 1.587 4.334.202 7.368-.231.491-.895.838-1.501.751-.087 0-.173 0-.231-.029z" fill="#5BC4F1"/><path d="M629.69 203.458c-.289.896-1.386 1.445-2.453 1.213l-7.967-1.791c-1.068-.231-1.674-1.156-1.385-2.08.288-.896 1.385-1.445 2.453-1.214l7.966 1.791c1.068.232 1.675 1.156 1.386 2.081z" fill="#00699B"/><path d="M677.398 237.349c.664-1.011 1.963-2.196 5.455-4.189 3.175-1.821 7.62-3.439 13.047-3.15 3.637.202 7.1.838 9.64 1.936 3.233 1.387 4.936 3.554 3.551 6.559-.375.78-.751 1.271-1.184 1.647 0 0-.606.491-1.443.722-2.251.607-6.956-2.716-11.69-2.889-4.243-.145-9.41 2.398-10.16 2.658-.895.318-1.818.578-2.713.925-1.415.549-3.464 2.196-4.59.318-.923-1.59-.375-3.814.087-4.537zM605.617 240.644s17.145-4.392 25.227 7.6c0 0 1.703 4.449 4.676 3.496 2.973-.954 1.155-7.311.173-9.506-1.732-3.843-10.102-8.206-16.972-8.611-6.87-.433-14.807 2.514-16.972 3.987-2.165 1.474-.837 4.71 3.868 3.034z" fill="#5BC4F1"/><path d="M626.802 201.577c-.231 1.416-1.732 2.456-3.348 2.311l-3.348-.317c-1.617-.145-2.743-1.416-2.512-2.832.231-1.416 1.732-2.456 3.349-2.312l3.348.318c1.616.145 2.742 1.416 2.511 2.832z" fill="#F7C6A5"/><path d="M666.664 248.994s8.024-1.705 8.284 3.236c.231 4.855.231 8.495-8.515 9.131-8.746.636-11.834-.925-13.133-2.687-.722-.983-2.107-4.132 2.626-6.328 4.936-2.283 6.639-2.514 10.738-3.352z" fill="#04BAEE"/><path d="M654.196 255.177c-.174-.549-.174-1.329.346-2.08.404-.26.866-.549 1.414-.809 4.907-2.283 6.61-2.485 10.709-3.352 0 0 2.655-.549 5.051-.087 1.299 1.329 1.27 2.687 1.097 3.785-.52 3.15-.491 5.404-7.967 5.895-5.109.375-9.64-.376-10.65-3.352z" fill="#5BC4F1"/><path d="M672.32 243.879s-.087 3.843-.664 4.739c-.577.896-.375.954-5.83 1.82-3.233.52-5.052.434-6.35.058a2.444 2.444 0 0 1-1.559-1.358l-1.905-4.276c-.491-1.098.144-2.369 1.356-2.803 1.963-.664 4.936-1.387 7.823-1.618 6.148-.491 7.187-1.127 7.129 3.438z" fill="#5BC4F1"/><path d="M657.544 244.14c1.588-1.676 10.594-2.716 12.701-2.369 2.107.346 2.02 3.698 2.02 3.698-.086 1.185-.26 2.629-.577 3.15-.577.895-.375.953-5.831 1.82-3.232.52-5.051.433-6.35.058a2.447 2.447 0 0 1-1.558-1.358l-1.068-2.456c-.116-.867 0-1.85.663-2.543zM657.886 235.24s-6.985 4.161-12.989 4.855c-6.004.664-11.69.26-13.566-1.387-1.876-1.647-3.955-7.051-2.454-10.142 1.501-3.092 3.724-5.432 9.987-4.941 6.264.491 13.797 2.716 17.867 5.692 4.099 2.947 2.973 4.941 1.155 5.923z" fill="#04BAEE"/><path d="M697.867 222.238l-16.251 2.803a4.867 4.867 0 0 0-.894.174l-20.898 5.46a3.84 3.84 0 0 0-1.587 1.012l-.895.953c-1.79 1.907-.895 4.883 1.674 5.548l3.06.809a3.71 3.71 0 0 0 1.385.087l21.359-2.456c.174-.029.376-.058.549-.116l12.065-5.027a3.641 3.641 0 0 0 1.732-1.012l1.905-2.022c1.126-1.185 1.27-2.976.289-4.277l-.376-.491c-.692-.982-1.876-1.531-3.117-1.445z" fill="#5BC4F1"/><path d="M701.823 226.95s.663-.463 1.443.144c.606.463.577 1.387.086 2.023-.49.636-2.078 2.282-2.684 2.889-.606.607-.693.636-3.377 1.792-2.742 1.184-9.641 4.189-10.94 4.536-1.298.318-.808.433-3.838.838-3.031.405-7.707 1.011-7.707 1.011l-.26-1.791 24.506-9.131 2.771-2.311z" fill="#00699B"/><path d="M656.419 235.097c-.029-.434.317-.809.779-.838 1.876-.116 4.417.318 6.264.607 3.608.549 14.547-1.416 22.6-3.756 14.519-4.19 10.651-4.363 12.296-5.519.26-.174 1.213-.78 1.501-1.763.202-.664.145-1.184.664-.722.173.173.664.722.866 1.04 1.184 1.907.664 3.265-.75 4.739l-1.472 1.56a3.632 3.632 0 0 1-1.732 1.011s-12.498 5.086-12.729 5.143c-2.742.723-21.071 2.428-21.071 2.428a4.834 4.834 0 0 1-1.703-.116l-2.915-.751c-1.588-.405-2.511-1.705-2.598-3.063z" fill="#04BAEE"/><path d="M630.349 237.494c-1.501-2.311-2.684-6.385-1.443-8.928 1.501-3.092 3.954-7.686 13.017-5.403 24.477 6.125 10.334 5.287 14.404 8.264.404.317.779.606 1.068.866 0 0-20.234-8.35-24.939-4.189-4.734 4.16-2.107 9.39-2.107 9.39z" fill="#5BC4F1"/><path d="M640.974 213.252c-.433 1.04-1.327 1.704-1.991 1.531l-10.478-2.947c-.664-.202-.866-1.185-.433-2.196.433-1.04 1.328-1.705 1.992-1.532l10.477 2.948c.664.173.866 1.155.433 2.196z" fill="#0094DA"/><path d="M674.803 251.537s1.732 1.156.952 2.63c-.981 1.82-2.395 3.785-4.935 6.645-1.53 1.705-3.089 3.092-4.243 3.092-.809 0-1.386-.78-1.703-1.936-.318-1.185-.376-2.774-.145-4.334 1.617-3.987 5.369-5.403 6.841-8.813 1.068.896 2.165 1.821 3.233 2.716z" fill="#27365C"/><path d="M649.14 242.981c2.482-6.125 8.89-18.145 8.89-18.145l9.843-2.254c.548 8.379-6.148 17.597-13.884 22.017 5.138-.52 11.199.347 15.298 4.248-.231.404-.75 3.554-3.059 6.328-5.744-2.601-18.589-8.466-17.088-12.194z" fill="#626E97"/><path d="M653.993 244.603c7.736-4.42 14.403-13.667 13.884-22.017l1.558-.347s1.992 2.167 0 6.444c-1.991 4.276-9.727 14.476-9.727 14.476l9.929 4.767 1.905.925s.78 4.045-.548 5.374c-1.328 1.329-5.253 2.34-5.253 2.34s3.29-7.281 3.521-7.685c-4.07-3.93-10.131-4.797-15.269-4.277z" fill="#495584"/><path d="M677.689 214.437c-1.529-.289-3.088-.607-4.618-.896.462-1.589.953-3.178 1.415-4.768 1.068 1.879 2.135 3.786 3.203 5.664z" fill="#3D507B"/><path d="M685.049 184.704s-.029 7.541 2.165 7.946c2.165.433 3.117-2.167 6.35-1.387 3.233.78 4.358 1.618 4.128 2.687-.26 1.069-2.454-.144-2.973.347-.52.491 4.445.982 4.358 3.207-.087 2.254-4.734-1.069-5.138.549-.404 1.618.78 1.907-.346 3.323s-21.562-1.098-21.504-6.443c.058-5.288-.115-15.488-.115-15.488s.808-1.589 2.655-2.542c1.53-.78 3.81-1.127 6.928.202 3.001 1.358 3.492 7.599 3.492 7.599z" fill="#63413F"/><path d="M672.092 198.427c.174-.087.347-.173.491-.231.433-.202.837-.405 1.241-.578 4.214-1.82 7.245-2.023 9.439-1.647l.433.087c3.146.751 4.243 2.773 4.243 2.773s-1.328 12.801-1.415 17.106c0 .549.145 1.56.347 2.542 1.212 1.619 1.789 3.901 1.01 5.548-1.472 3.15-4.127 3.236-4.127 3.207-2.136 3.237-4.272 6.502-6.437 9.796 3.435 2.08 6.004 4.42 9.438 6.443-1.096 2.051-.49 2.947-1.587 5.028-4.416-2.428-9.641-3.988-14.057-6.444-1.01-.607-2.829-1.647-3.146-3.554-.202-1.185.058-3.092.75-4.103 2.107-3.12 4.186-6.212 6.293-9.304.202-.289.404-.578.577-.867 0 0 .289-2.889.433-3.582.664-3.641.924-3.814.375-7.6-.433-3.005-6.09-4.652-6.35-6.645-.577-4.45 2.049-7.975 2.049-7.975z" fill="#455B8C"/><path d="M674.69 232.842s.981-1.474 1.53-2.312c.808-1.271 1.674-2.571 2.54-3.958 1.068-1.676 1.847-2.861 2.453-3.728 1.501-2.167 1.588-2.311 1.53-4.016-.087-2.745.058-4.276.058-4.767.519.057 1.068.115 1.587.173 0 .116-.144 1.878-.058 4.565.087 2.225-.288 2.745-1.818 4.97a105.33 105.33 0 0 0-2.425 3.67c-.865 1.386-1.731 2.687-2.568 3.958-.462.722-.982 1.503-1.444 2.254-.779 1.184-1.558 2.514-1.443 2.86.231.809 7.418 5.259 10.507 6.935-.289.462-.318.173-.607.636-1.645-.896-10.91-5.23-11.459-7.079-.144-.492-.086-1.041.174-1.705.288-.665.779-1.474 1.443-2.456z" fill="#626E97"/><path d="M682.164 247.925a884.454 884.454 0 0 1 3.291-5.317c1.126.665 2.222 1.301 3.348 1.965 0 0 2.338 1.647 2.511 2.254.058.231-.029 1.618-.981 3.641-.491 1.011-1.126 2.051-1.963 2.716-2.107 1.762-2.886-.752-2.857-2.485 0-.405 0-.665.029-.838-1.126-.636-2.252-1.271-3.378-1.936z" fill="#BF69A9"/><path d="M682.739 194.933c.115 1.415.231 2.831.375 4.247.144 1.589-1.443 2.947-3.493 3.034-2.078.115-3.867-1.098-4.012-2.687-.086-1.156-.202-2.341-.288-3.496 2.597 1.473 5.657 1.589 7.418-1.098z" fill="#455B8C"/><path d="M675.322 196.029c-.144-1.849-.317-3.669-.462-5.519-.144-1.589 1.444-2.947 3.493-3.033 2.078-.058 3.868 1.155 3.983 2.745.144 1.56.26 3.12.404 4.709-1.76 2.687-4.82 2.572-7.418 1.098z" fill="#F7C6A5"/><path d="M671.222 186.783c.404 4.825 4.243 8.523 6.783 8.466 3.349-.087 5.716-4.103 5.311-8.871-.404-4.767-3.434-8.581-6.783-8.495-3.348.058-5.715 4.045-5.311 8.9z" fill="#A9A9A9"/><path d="M705.543 188.314c.432-1.618 2.164-2.542 3.896-2.022 1.732.52 2.8 2.224 2.367 3.843a53.537 53.537 0 0 1-1.645 5.056c-2.194-.433-4.157-1.502-5.86-2.976a32.997 32.997 0 0 0 1.242-3.901z" fill="#F7C6A5"/><path d="M684.787 197.215c1.414-.983 3.434-.636 4.502.809.607.78 3.868 4.478 9.15 2.08 3.031-1.387 4.878-5.056 6.61-9.766 1.674 1.473 3.666 2.514 5.889 2.947-1.848 4.912-4.359 10.113-9.526 12.482-3.001 1.387-5.801 1.647-8.226 1.243-4.301-.665-7.505-3.352-9.005-5.346-1.097-1.473-.809-3.467.606-4.449z" fill="#BF69A9"/><path d="M689.752 203.658s.837 7.165.433 8.263c-.404 1.069-3.724 2.63-3.724 2.63-1.703-.174-3.406-.318-5.08-.492 0 0-.866-8.928.231-13.695 1.097-4.768 1.126-6.213 1.126-6.213.635.145 1.27.289 1.934.434 0 .375-.029.751-.029 1.098 0 0 .923.318 2.713 1.878 1.761 1.531 2.396 6.097 2.396 6.097zM673.851 195.567s.259 1.069.894 4.392c.635 3.323.433 13.985.433 13.985l-2.251-.867s-.866-.029-.722-1.705c.116-1.675-2.973-4.912-2.742-7.599.231-2.687-.057-5.634.578-6.154.663-.52 2.453-1.127 2.453-1.127-.144-.52-.289-1.04-.404-1.56.577.173 1.183.404 1.761.635z" fill="#BF69A9"/><path d="M687.934 213.773c-2.222-.26-4.416-.491-6.639-.752 0 .723-.028 1.416-.028 2.139 0 0 6.292.751 6.292.722 0 0 .317-.405.491-.896.086-.375.115-.809-.116-1.213zM675.206 212.183c.057.78.115 1.531.173 2.311-1.039-.347-2.107-.664-3.146-1.011 0 0-.26-.665-.26-1.3 0-.665.231-.838.231-.838.981.289 1.991.578 3.002.838z" fill="#ECA5E1"/><path d="M689.839 206.057s-2.194-.982-3.319-2.051l-1.097-1.069s.491 1.935 2.194 3.438c1.674 1.502 2.569 1.647 2.569 1.647-.116-.665-.231-1.329-.347-1.965z" fill="#9C5789"/><path d="M688.226 236.481l-2.713.954 1.847 4.45 2.915-.405-2.049-4.999z" fill="#00699B"/><path d="M671.022 254.165c-1.327 1.301-5.513 2.023-5.513 2.023s3.551-6.935 3.782-7.339c-.029-.029 2.135 2.485 2.511 2.282 0 0 .519 1.734-.78 3.034z" fill="#626E97"/><path d="M608.156 263.5c-.404 6.213 2.598 11.529 6.697 11.876 4.098.347 7.706-4.421 8.111-10.633.404-6.212-2.598-11.529-6.697-11.876-4.099-.346-7.735 4.421-8.111 10.633z" fill="#00699B"/><path d="M618.462 240.498c-1.298-.116-5.599-.145-6.84.144 10.679.694 15.269 13.176 14.518 24.56-.75 11.384-5.34 22.451-19.367 21.295 1.183.491 7.273 1.792 8.572 1.907 9.266.751 17.463-9.362 18.329-22.566.866-13.234-5.946-24.589-15.212-25.34z" fill="#00699B"/><path d="M610.956 239.863c1.299-.087 7.765.231 8.948.722-10.651-1.04-18.992 11.096-19.743 22.451-.75 11.384 2.598 24.3 16.626 25.456-1.241.289-7.678-.434-8.948-.723-11.805-2.889-16.077-12.106-15.211-25.34.837-13.204 8.341-21.873 18.328-22.566z" fill="#00699B"/><path d="M631.25 263.73c0-11.326-6.696-20.543-14.894-20.543-8.226 0-14.894 9.217-14.894 20.543 0 11.327 6.697 20.544 14.894 20.544 8.226.029 14.894-9.188 14.894-20.544zm-2.569 0c0 9.911-5.513 18.001-12.325 18.001-6.783 0-12.325-8.061-12.325-18.001 0-9.91 5.513-18.001 12.325-18.001 6.783.029 12.325 8.091 12.325 18.001z" fill="#12BAED"/><path d="M615.376 288.577c9.9.809 18.646-9.39 19.512-22.739.866-13.349-6.495-24.849-16.366-25.658-9.9-.809-18.646 9.39-19.512 22.739-.895 13.321 6.465 24.849 16.366 25.658zm2.511-44.843c7.851.635 13.624 10.17 12.931 21.237-.722 11.066-7.678 19.532-15.529 18.897-7.851-.636-13.624-10.171-12.931-21.238.722-11.066 7.678-19.532 15.529-18.896z" fill="#0094DA"/><path d="M610.784 263.815c-.26 4.074 1.905 7.57 4.878 7.801 2.944.232 5.571-2.86 5.831-6.934.259-4.074-1.905-7.57-4.878-7.802-2.973-.26-5.571 2.861-5.831 6.935z" stroke="#04BAEE" stroke-width="2.929" stroke-miterlimit="10"/><path d="M613.956 263.932c.202 2.254 1.443 3.9 2.713 3.669 1.299-.202 2.165-2.196 1.934-4.421-.202-2.224-1.443-3.871-2.713-3.669-1.299.173-2.165 2.167-1.934 4.421z" fill="#04BAEE"/><path d="M618.551 263.614l16.135-38.169-2.743-2.081-16.452 39.007 3.06 1.243z" fill="#0094DA"/><path d="M625.361 242.087l-8.774 20.718-1.097-.434 8.717-20.659 1.154.375z" fill="#04BAEE"/><path d="M623.684 241.569l4.359 1.618 1.039-2.687-4.358-1.618-1.04 2.687z" fill="#0094DA"/><path d="M636.961 212.963l-7.187-1.387c-2.223-.433-4.792.982-5.715 3.178l-3.06 7.224c-.924 2.196 3.06 5.085 3.031 5.172 0 0 5.715.867 5.715.78l.808.145c2.222.433 4.791-.983 5.715-3.179l3.06-7.223c.923-2.167-.145-4.277-2.367-4.71z" fill="#00699B"/><path d="M625.307 224.345c-3.161-1.519-4.337-5.643-2.625-9.211 1.711-3.567 5.661-5.227 8.823-3.707 3.161 1.52 4.336 5.644 2.625 9.211-1.712 3.567-5.662 5.227-8.823 3.707z" fill="#0094DA"/><path d="M624.812 222.846c-2.658-1.278-3.549-4.949-1.989-8.2 1.559-3.251 4.979-4.85 7.637-3.572 2.658 1.278 3.549 4.949 1.989 8.2-1.559 3.251-4.978 4.85-7.637 3.572z" fill="#00699B"/><path d="M624.24 221.538c-2.098-1.008-2.707-4.1-1.362-6.905 1.346-2.805 4.138-4.261 6.235-3.252 2.098 1.008 2.708 4.1 1.363 6.905-1.346 2.805-4.138 4.261-6.236 3.252z" fill="#5BC4F1"/><path d="M655.493 195.136c1.212-1.387 3.203-1.907 5.051-1.156 5.109 2.08 10.247 4.132 15.355 6.154 1.646.665 2.8 2.167 3.002 3.901a4.514 4.514 0 0 1-2.136 4.305 1202.369 1202.369 0 0 0-8.11 4.883c-.491-2.167-2.829-3.409-4.099-4.94-.953-.781-1.934-1.33-2.944-1.676.75-.463 1.53-.925 2.28-1.387-1.732-.694-3.464-1.358-5.196-2.052 2.021-1.358 4.041-2.976 6.062-4.16-3.348-.376-6.61-1.85-9.265-3.872z" fill="#796188"/><path d="M654.626 196.58a4.28 4.28 0 0 1 .866-1.444c.895.202 6.033 1.965 9.237 3.872-1.992 1.213-4.041 2.802-6.062 4.16-.433-.173-.866-.346-1.328-.52-2.367-.924-3.579-3.669-2.713-6.068z" fill="#796188"/><path d="M670.906 202.533l-7.273 2.601-2.079-.809 9.352-1.792z" fill="#6C567C"/><path d="M659.448 207.934c.722-.433 1.415-.867 2.136-1.3a9.849 9.849 0 0 1 2.944 1.676c1.241 1.531 3.608 2.802 4.099 4.941-1.443.866-2.886 1.762-4.33 2.658a4.522 4.522 0 0 1-2.828.664 4.656 4.656 0 0 1-3.522-2.224c-1.327-2.225-.664-5.086 1.501-6.415z" fill="#F7C6A5"/><path d="M670.797 178.518s-2.021 1.878-2.367 4.681c-.347 2.803.231 7.946 1.558 9.188 1.357 1.243 12.181 4.681 14.115 3.757 1.934-.954 2.857-2.745 2.944-3.67.087-.925-.144-1.676-.144-1.676s.231-2.34-.145-4.652c-.375-2.282-.721-2.745-.721-2.745s-1.126-4.045-4.907-6.067c-5.109-2.716-10.333 1.184-10.333 1.184z" fill="#27365C"/><path d="M687.157 190.484s1.097.347 1.213 1.503c.115 1.156-1.617 4.045-2.425 4.478-.808.434-1.443.781-3.06.232-1.587-.549-4.676-1.214-4.676-1.214s3.753.491 4.33-.116c.606-.606 0-3.351 0-3.351s1.876.086 3.29-.174c1.068-.231 1.819-.606 1.328-1.358z" fill="#C7C6C6"/><path d="M685.974 183.171c.058.144.087.231.087.231s.346.433.722 2.745a76.25 76.25 0 0 1 .577 4.334s.231.665-.26.896c-1.703.838-4.214.722-6.523.347-.173-2.688-.058-5.433.029-8.149 2.482 0 4.3-.231 5.368-.404z" fill="#D0E2E5"/><path d="M673.568 184.932c.721-1.098 2.193-1.791 4.156-1.445.52.029 1.068.058 1.674.058h1.155c.317 1.589.404 5.346-.029 8.148a34.301 34.301 0 0 1-4.128-.953c-1.385-.665-2.28-1.503-2.799-2.37-.693-1.213-.635-2.484-.029-3.438z" fill="#D0E2E5"/><path d="M679.333 176.209s4.734 1.127 7.563 2.919c2.829 1.82 2.944 3.063 2.165 4.045-.751.982-7.822.462-9.67.376-1.847-.087-1.847-.058-1.847-.058s5.426-.578 4.214-2.109c-1.241-1.532-3.319-2.803-5.34-3.352-2.02-.549-4.272-.318-4.272-.318s.895-.549 2.31-.982c1.298-.434 3.03-.752 4.877-.521z" fill="#C7C6C6"/><path d="M687.157 190.484s1.097.347 1.213 1.503c.115 1.156-1.617 4.045-2.425 4.478-.808.434-1.443.781-3.06.232-1.587-.549-4.676-1.214-4.676-1.214s3.753.491 4.33-.116c.606-.606 0-3.351 0-3.351s1.876.086 3.29-.174c1.068-.231 1.819-.606 1.328-1.358zM679.333 176.209s4.734 1.127 7.563 2.919c2.829 1.82 2.944 3.063 2.165 4.045-.751.982-7.822.462-9.67.376-1.847-.087-1.847-.058-1.847-.058s5.426-.578 4.214-2.109c-1.241-1.532-3.319-2.803-5.34-3.352-2.02-.549-4.272-.318-4.272-.318s.895-.549 2.31-.982c1.298-.434 3.03-.752 4.877-.521z" fill="#314474"/><path d="M1098.62 286c49.7 0 90-3.134 90-7s-40.3-7-90-7c-49.71 0-90 3.134-90 7s40.29 7 90 7z" fill="#0032A5"/><path opacity=".7" d="M1161.62 198.322v-5.52l-10.85-20.012-4.34-5.453-8.37-2.337h-79.21l-7.78 1.891-3.51 2.336-7.01 11.91-5.93 11.571 1 6.292 126-.678z" fill="#5BC4F1"/><path d="M1063.8 193h-10.36c-3.21 0-5.82-2.699-5.82-6s2.61-6 5.82-6h10.36c3.2 0 5.82 2.699 5.82 6s-2.62 6-5.82 6z" fill="#0082C8"/><path d="M1067.9 202.001h-18.56c-3.15 0-5.72-2.474-5.72-5.5s2.57-5.5 5.72-5.5h18.56c3.14 0 5.72 2.474 5.72 5.5s-2.58 5.5-5.72 5.5z" fill="#0082C8"/><path d="M1117.86 195.914h-41.92c-3.22 0-5.86-2.643-5.86-5.876 0-3.233 2.64-5.876 5.86-5.876h41.92c3.23 0 5.87 2.643 5.87 5.876 0 3.233-2.64 5.876-5.87 5.876z" fill="#0082C8"/><path d="M1122.16 205.288h-50.51c-3.23 0-5.87-2.643-5.87-5.876 0-3.233 2.64-5.876 5.87-5.876h50.51c3.23 0 5.87 2.643 5.87 5.876 0 3.233-2.64 5.876-5.87 5.876z" fill="#0082C8"/><path d="M1151.76 210.985h-106.93c-6.84 0-12.43-4.785-12.43-10.63 0-5.845 5.6-10.63 12.43-10.63h106.93c6.84 0 12.43 4.785 12.43 10.63 0 5.845-5.6 10.63-12.43 10.63z" fill="#0082C8"/><path d="M1141.8 193h-10.36c-3.21 0-5.82-2.699-5.82-6s2.61-6 5.82-6h10.36c3.2 0 5.82 2.699 5.82 6s-2.62 6-5.82 6z" fill="#0082C8"/><path d="M1145.71 202.001h-19.18c-3.25 0-5.91-2.474-5.91-5.5s2.66-5.5 5.91-5.5h19.18c3.25 0 5.91 2.474 5.91 5.5s-2.67 5.5-5.91 5.5z" fill="#0082C8"/><path d="M1062.63 183.708h-5.27v8.238h5.27v-8.238z" fill="#A96644"/><path d="M1062.63 187.38v-3.672h-5.27v4.433c1.03.128 3.35.233 5.27-.761z" fill="#914627"/><path d="M1053.77 176.549s-.58-.756-.58-1.755c0 0-2.51.097-2.09-1.93.42-2.028 2-1.289 2.03-2.639.03-1.35 2.23-2.894 3.83-1.737 1.6 1.156 5.26-2.894 5.39 1.288 0 0 2.47-1.513 2.93.449.44 1.961 2.85 1.157 2.7 3.734 0 0-.26.835.73.963 0 0-.44.774-.87.611l-1.01 3.132-6.26 3.496-6.8-5.612z" fill="#332A27"/><path d="M1067.98 174.417c-.08-.237-.01-.461-.01-.461.06-.986-.25-1.478-.69-1.817-1.23.814-3.61 1.988-6.39 1.161-2.68-.791-4.22-3.479-4.96-5.212-1.37-.14-2.78 1.056-2.8 2.134 0 .184-.04.329-.09.453 5.83 4.903 11.98 4.402 14.94 3.742z" fill="#4C423F"/><path d="M1065.63 178.704l-.79.669c-.17-.396-.05-1.021-.16-1.439a22.39 22.39 0 0 1-.12-.549c-.9-.612-1.39-2.327-1.25-3.814.17-1.671-2.25-.514-2.25-.514-.03-.933-2.73-2.573-2.66-.545.06 2.027-1.22 1.609-2.13 1.93-.9.321-.36 1.667-.36 1.667a2.013 2.013 0 0 1-1.64-1.275 1.28 1.28 0 0 1-.48-.035c0 3.061-.37 7.793 1.41 10.419.62.923 1.41 1.702 2.74 1.908 5.79.906 7.27-4.758 7.27-4.758s1.82.483 2.19-2.191c.3-2.221-1.77-1.473-1.77-1.473z" fill="#A96644"/><path d="M1062.87 173.892c-.03.87.3 2.88 1.7 3.492-.9-.612-1.4-2.327-1.25-3.814.16-1.671-2.25-.514-2.25-.514s1.82-.031 1.8.836zM1056.27 176.549s-.25-1.724.67-1.636c.92.083 2.4-.321 2.25-1.632-.15-1.306 1.43-.945 1.88-.224-.03-.933-2.73-2.573-2.67-.545.07 2.027-1.22 1.609-2.12 1.93-.91.321-.36 1.667-.36 1.667a2.013 2.013 0 0 1-1.64-1.275c-.15.017-.34.009-.48-.035-.01 0 .51 1.693 2.47 1.75z" fill="#914627"/><path d="M1056.93 179.402c0 .497-.3.88-.67.849-.37-.031-.67-.457-.66-.954 0-.497.31-.88.67-.849.38.026.67.457.66.954zM1062 179.257c-.01.497-.31.88-.68.849-.37-.031-.66-.458-.66-.955 0-.497.31-.879.68-.848.37.026.66.453.66.954z" fill="#502F26"/><path d="M1058.73 182.23c-1.12.453-1.72-.075-1.76-.602a.76.76 0 0 1 .49-.783c.68-.268 1.17-1.315 1.17-1.328.01.241-.24 1.148-1.11 1.653-.19.11-.3.225-.29.396.03.295.46.739 1.5.664z" fill="#914627"/><path d="M1054.66 176.833l-.04-.339c.07-.004 1.22-.321 2.58-.206l.01.527c-1.11-.162-2.53.014-2.55.018zM1062.87 177.01c-.9-.352-2.58-.418-2.6-.423l.11-.483c.07.013 1.59.065 2.6.611l-.11.295z" fill="#332A27"/><path d="M1064.77 181.697c-.49 1.434-2.32 4.974-6.27 4.759-2.14-.119-3.23-1.531-3.94-2.516.17.466.38.893.64 1.275.62.924 1.41 1.702 2.74 1.909 5.79.906 7.27-4.759 7.27-4.759s1.39.387 2.01-1.381c-1.08 1.795-2.45.713-2.45.713z" fill="#914627"/><path d="M1060.68 183.01s-2.11.431-4.07 0c0 0 .35 1.803 2.03 1.799 1.6 0 2.02-1.447 2.04-1.799z" fill="#722626"/><path d="M1058.6 183.869c-1.29 0-1.67-.537-1.83-.831 1.52.299 2.74.118 3.81-.014-.12.33-.76.845-1.98.845z" fill="#fff"/><path d="M1070.86 192.102s-3.25-1.254-6.91-2.054c0 0-2.1 2.151-4.49 2.054-2.61-.11-3.58-1.984-3.58-1.984-1.67.264-4.36.937-6.02 1.711 0 0-.99 4.398-.01 27.264 0 0 6.46 2.274 18.37 0 0 0 .14-10.358 1.69-16.62 0 0 .47-6.435.95-10.371z" fill="#FFD07D"/><path opacity=".2" d="M1057.24 195.027l2.07-2.041 1.35 2.669s3.48-2.141 3.94-5.458a38.02 38.02 0 0 0-.65-.149c-2.94 2.168-5.57 3.228-8.07.066-.13.017-.25.039-.39.066 0 .004-.31 2.098 1.75 4.847z" fill="#000"/><path d="M1057.4 188.81s.28 2.142 1.97 2.89c0 0 3.08-.867 3.3-2.921l1.82 1.39s-1.15 3.426-3.58 4.332l-1.52-2.322-2.07 1.913s-1.99-2.423-1.82-3.919l1.9-1.363z" fill="#FFD07D"/><path d="M1070.46 216.363l-1.15-.809-.87.176c-.82-.264-1.18-.805-1.59-.866-.41-.062-1.05-.493-1.05-.493-.38.572.36 1.188.36 1.188-.06-.014-.11-.022-.17-.036-.14-.026-.28-.057-.42-.083-.18-.035-.36-.075-.54-.11-.17-.035-.34-.075-.52-.106-.13-.022-.26-.048-.4-.057-.14-.004-.28.022-.42.053-.17.035-1.09.361-1.24.396-.07.017-.22.048-.22.048-.07.176-.08.365.01.524.16.285.57.281.79.241.15-.026.36-.101.52-.158.13-.048.09-.075.32-.048.13.013.27.061.4.088.28.061.57.127.85.198.07.013.13.03.2.044 0 0-1.38.255-1.81.373-.32.093-1.23.964-1.23.964-.65.624.37.866.37.866-.05.057-.12.158-.12.246 0 .075.05.132.09.176.08.079.18.115.28.145.18.058.37.084.56.031a.715.715 0 0 0 .15-.053l.15-.066c.06-.03.13-.061.19-.096.19-.106.37-.211.55-.343.02-.018.07-.071.09-.071l1.08-.061c-.37.198-.74.853-1.23 1.152-.07.044-.15.097-.21.163-.05.061-.12.154-.11.25.02.093.1.119.17.145.2.084.43.08.65.027a1.45 1.45 0 0 0 .64-.352c.65-.726 1.38-1.086 2.3-.607 1.34.691 2.39-1.306 2.39-1.306l.19-1.773z" fill="#A96644"/><path d="M1070.86 192.098s2.58.158 9.2 12.745c0 0 2.75 5.151-9.25 13.599 0 0-2.35-.708-2.35-3.294l5.94-7.837-4.39-4.847c0 .004-1.47-7.147.85-10.366z" fill="#FFD07D"/><path d="M1050.26 216.082l1.15-.809.87.176c.82-.264 1.18-.805 1.59-.867.41-.061 1.05-.492 1.05-.492.38.572-.36 1.187-.36 1.187l.17-.035c.14-.026.28-.057.42-.083.18-.036.36-.075.54-.11.17-.036.35-.075.52-.106.13-.022.26-.048.4-.057.14-.004.28.022.42.053.17.035 1.09.36 1.24.396.07.017.22.048.22.048.07.176.08.365-.01.523-.16.286-.57.282-.78.242-.16-.026-.37-.101-.53-.158-.13-.049-.09-.075-.32-.049-.13.014-.27.062-.4.088-.28.062-.57.128-.85.198-.07.014-.13.031-.2.044 0 0 1.38.255 1.81.374.32.093 1.23.963 1.23.963.65.625-.37.867-.37.867.05.057.12.158.12.246 0 .075-.05.132-.09.176a.65.65 0 0 1-.28.145.97.97 0 0 1-.56.031.996.996 0 0 1-.15-.053l-.15-.066c-.06-.031-.13-.061-.19-.097a4.971 4.971 0 0 1-.55-.343c-.02-.017-.07-.07-.09-.07l-1.07-.062c.36.198.73.854 1.22 1.153a1 1 0 0 1 .21.162c.05.062.12.154.11.251-.02.092-.1.119-.17.145-.2.084-.43.079-.65.027a1.26 1.26 0 0 1-.32-.128 1.438 1.438 0 0 1-.23-.145.707.707 0 0 1-.09-.079c-.65-.726-1.38-1.087-2.3-.607-1.34.69-2.39-1.306-2.39-1.306l-.19-1.773z" fill="#A96644"/><path d="M1049.86 191.82s-2.58.159-9.21 12.746c0 0-2.75 5.15 9.26 13.599 0 0 2.34-.708 2.34-3.294l-5.93-7.838 4.39-4.846s1.48-7.147-.85-10.367z" fill="#FFD07D"/><path d="M1134.61 167.809s8.03-1.483 9.06 7.595c.98 8.647 1.95 17.223 1.75 23.402 0 0-7.95 2.573-17.12 0 0 0 .23-11.94-.54-20.244-.67-7.279 2.31-11.074 6.85-10.753z" fill="url(#paint0_linear)"/><path d="M1142.55 171.508c-.87-1.636-2.1-2.582-3.33-3.118-.94 1.46-2.29 2.639-5.02 2.625-1.98-.008-2.44-1.526-2.49-2.757-1.06.453-1.96 1.236-2.63 2.335 4.11 3.198 10.08 2.001 13.47.915z" fill="#994A3D"/><path d="M1128.24 189.999s-2.33.399-3.62 12.524l4.53.476c.01.005 3.84-12.374-.91-13z" fill="#BDC7D6"/><path d="M1140.03 210.202s5.43 5.314 6.59 27.483c0 0-10.47 2.958-24 0 0 0 2.35-22.802 6.42-27.685l10.99.202z" fill="#A52923"/><path d="M1130.16 190.061s5.09-1.144 9.81 0c0 0-.8 5.212-6.8 5.26-6.02.048-3.01-5.26-3.01-5.26z" fill="#D17462"/><path d="M1139.87 189.85s-5.35 5.066-6.64 5.053c-1.28-.013-2.83-5.053-2.83-5.053-1.97.527-2.18.62-2.18.62l-.38 3.549c-2.02 2.582-2 3.307-2 4.447 0 1.979 1.75 3.188 1.75 3.188l1.27 8.027c6.71 2.608 11.22.149 11.22.149.74-5.071 2.65-11.571 2.65-11.571v-7.53c-1.02-.47-1.82-.58-2.86-.879z" fill="#D7E4F7"/><path d="M1133.39 187.929l-.01 3.184 3.89.013.01-4.143c-1.61 1.06-3.23 1.03-3.89.946z" fill="#D17462"/><path d="M1137.29 186.982l.01-3.193-3.89-.014-.02 4.152c.67.084 2.28.115 3.9-.945z" fill="#BA5F50"/><path opacity=".1" d="M1126.21 199.178s.51.431 1.62.527c2.23.194 6.93.594 10.16.075 1.35-.22 1.58-.901 2.6-1.702 0 0 .16 3.479-4.08 3.409-4.25-.075-10.03.448-10.3-2.309z" fill="#000"/><path d="M1127.09 179.063c-.02 3.646.97 6.773 1.07 9.491.22 5.837-1.64 8.128-2.01 10.252 0 0 2.08.528 3.99.172 0 0 1.56-6.298 1.31-9.997-.26-3.699-1.92-9.518-1.92-9.518s-.79-7.235 4.66-8.448l.02-1.144c-.45-.04-7.06-.449-7.12 9.192z" fill="#7C3425"/><path d="M1140.95 178.18l-.1.035s-.71.471-.84-.848c-.61-5.634-5.79-6.36-5.79-6.36-5.3.558-5.11 4.099-5.02 6.417-.03 1.302.17 2.485.1 3.804-.19 3.29 2.58 5.432 5.05 5.427 4.73-.004 5.93-4.209 5.93-4.209s2.2.374 2.48-2.581c.22-2.415-1.81-1.685-1.81-1.685z" fill="#D17462"/><g opacity=".9" fill="#D15D54"><path opacity=".091" d="M1131.48 179.692a2 2 0 0 1 1.59 2.339 1.993 1.993 0 0 1-2.33 1.597 2.009 2.009 0 0 1-1.6-2.34 2.001 2.001 0 0 1 2.34-1.596z"/><path opacity=".182" d="M1131.45 179.883a1.816 1.816 0 0 1 1.44 2.116 1.821 1.821 0 0 1-2.12 1.443 1.824 1.824 0 0 1-1.44-2.116 1.81 1.81 0 0 1 2.12-1.443z"/><path opacity=".273" d="M1131.41 180.073a1.614 1.614 0 0 1 1.29 1.891 1.616 1.616 0 0 1-1.89 1.289 1.623 1.623 0 0 1-1.29-1.892 1.616 1.616 0 0 1 1.89-1.288z"/><path opacity=".364" d="M1131.37 180.259a1.42 1.42 0 0 1 1.13 1.663 1.419 1.419 0 1 1-2.79-.528 1.42 1.42 0 0 1 1.66-1.135z"/><path opacity=".455" d="M1131.34 180.451c.66.127 1.1.769.97 1.438a1.218 1.218 0 0 1-1.43.981 1.232 1.232 0 0 1 .46-2.419z"/><path opacity=".545" d="M1131.3 180.637c.56.106.93.651.83 1.214a1.04 1.04 0 0 1-1.21.827 1.034 1.034 0 0 1-.83-1.214 1.04 1.04 0 0 1 1.21-.827z"/><path opacity=".636" d="M1131.27 180.829a.847.847 0 0 1-.32 1.662.84.84 0 0 1-.67-.989.848.848 0 0 1 .99-.673z"/><path opacity=".727" d="M1131.23 181.019c.35.066.59.409.52.761a.655.655 0 0 1-.76.519.66.66 0 0 1-.52-.761.655.655 0 0 1 .76-.519z"/><path opacity=".818" d="M1131.2 181.208c.25.049.41.286.36.537a.46.46 0 0 1-.9-.172c.04-.246.29-.409.54-.365z"/><path opacity=".909" d="M1131.16 181.397a.267.267 0 0 1-.1.525c-.15-.027-.25-.168-.21-.313a.266.266 0 0 1 .31-.212z"/><path opacity=".9" d="M1131.18 181.674a.077.077 0 0 1-.09.058c-.04-.009-.07-.045-.06-.09.01-.04.05-.067.09-.058.04.009.07.049.06.09z"/></g><g opacity=".636" fill="#D15D54"><path opacity=".091" d="M1137.83 179.548a2.141 2.141 0 0 1 1.71 2.507 2.14 2.14 0 0 1-2.5 1.711 2.141 2.141 0 0 1-1.71-2.507 2.142 2.142 0 0 1 2.5-1.711z"/><path opacity=".182" d="M1137.79 179.753a1.95 1.95 0 0 1 1.55 2.265 1.945 1.945 0 0 1-2.27 1.543 1.936 1.936 0 0 1-1.54-2.265 1.935 1.935 0 0 1 2.26-1.543z"/><path opacity=".273" d="M1137.76 179.958a1.738 1.738 0 0 1 1.38 2.023 1.73 1.73 0 0 1-3.4-.642 1.726 1.726 0 0 1 2.02-1.381z"/><path opacity=".364" d="M1137.72 180.156a1.525 1.525 0 0 1-.57 2.995 1.525 1.525 0 0 1-1.21-1.781 1.52 1.52 0 0 1 1.78-1.214z"/><path opacity=".455" d="M1137.68 180.357c.72.136 1.19.827 1.05 1.539a1.312 1.312 0 0 1-1.54 1.052 1.328 1.328 0 0 1-1.05-1.54c.14-.712.83-1.183 1.54-1.051z"/><path opacity=".545" d="M1137.64 180.566c.6.114 1 .694.88 1.301-.11.603-.69.999-1.3.884a1.112 1.112 0 0 1 .42-2.185z"/><path opacity=".636" d="M1137.6 180.767a.907.907 0 1 1-1.06.721.911.911 0 0 1 1.06-.721z"/><path opacity=".727" d="M1137.56 180.969a.7.7 0 1 1-.26 1.377.701.701 0 1 1 .26-1.377z"/><path opacity=".818" d="M1137.52 181.173c.27.048.45.308.39.576a.479.479 0 0 1-.57.392.484.484 0 0 1-.39-.577.49.49 0 0 1 .57-.391z"/><path opacity=".909" d="M1137.49 181.375c.15.031.25.181.23.335a.294.294 0 0 1-.34.23.302.302 0 0 1-.23-.335.294.294 0 0 1 .34-.23z"/><path opacity=".636" d="M1137.51 181.67c-.01.045-.05.071-.09.063a.079.079 0 0 1-.06-.094c.01-.044.05-.071.09-.062.04.009.07.053.06.093z"/></g><path d="M1134.28 182.028c-.82.374-1.34.181-1.44-.374-.07-.36.14-.769.36-.972.46-.409.67-1.609.67-1.622.03.255-.02 1.262-.58 1.957a.642.642 0 0 0-.16.47c.04.414.43.73 1.15.541z" fill="#BA5F50"/><path d="M1131.3 178.386s-.72.022-.82-.25c0 0-.09.382.35.506-.13.171-.22.417-.21.69.01.515.33.928.71.924.39-.005.7-.427.69-.946-.01-.519-.33-.932-.72-.924zM1136.7 178.296s-.72.022-.82-.251c0 0-.09.383.35.506-.13.171-.22.418-.21.69 0 .515.33.928.71.924.39-.005.7-.427.69-.946-.01-.519-.33-.928-.72-.923z" fill="#502F26"/><path d="M1139.91 181.452s-.33 2.555-3.57 3.949c-2.86 1.227-5.65-.673-6.27-1.139.97 1.513 2.68 2.402 4.27 2.397 4.73-.004 5.93-4.209 5.93-4.209s1.38.251 2.11-1.161c-1.37 1.293-2.47.163-2.47.163z" fill="#BA5F50"/><path d="M1132.54 176.935s-1.16-.312-2.75.15c0 0-.01-.119.29-.374.28-.237 1.32-.497 2.22-.132 0 .004.46.251.24.356zM1135.19 176.869s1.15-.335 2.74.096c0 0 .01-.118-.29-.365-.29-.233-1.33-.475-2.22-.092 0 0-.46.26-.23.361z" fill="#7C3425"/><path d="M1135.99 182.786s-1.83.405-3.55.057c0 0 .33 1.575 1.8 1.548 1.39-.026 1.74-1.297 1.75-1.605z" fill="#B22828"/><path d="M1134.19 183.569c-1.14.018-1.48-.448-1.63-.699 1.34.242 2.41.071 3.34-.061-.09.285-.65.743-1.71.76z" fill="#fff"/><path d="M1140.95 178.18l-.1.035s-.71.471-.84-.848c-.61-5.634-5.79-6.36-5.79-6.36-4.72.497-5.09 3.36-5.05 5.621.28-1.403 1.32-4.746 4.9-5.384 0 0 4.89 1.619 5.87 12.007.24-.47.34-.8.34-.8s2.2.374 2.48-2.582c.22-2.419-1.81-1.689-1.81-1.689z" fill="#BA5F50"/><path d="M1142.77 179.302s-.56-9.882-8.54-9.434c0 0-.01 0-.02-.004l-.02 1.143c.01 0 .02-.004.02-.004s4.49.545 5.57 8.458c1.4 10.216-4.43 19.774-4.43 19.774s3.17 0 4.2-.26c0 0 2.27-5.392 3-9.795.86-5.172.22-9.878.22-9.878z" fill="#7C3425"/><path d="M1142.69 190.729s2.96 1.008 4.46 13.397l-4.45 1.324s-2.96-10.855-.01-14.721z" fill="#D7E4F7"/><path d="M1147.15 204.126s.28 3.505-4.45 3.25c-4.33-.238-8.4-.946-8.4-.946l.3-2.406s7.15-1.218 12.55.102z" fill="#D17462"/><path d="M1128.53 204.924c.09-.242.34-.171.63-.1l-.85-.332c-.19-.086-.4-.185-.32-.47.08-.3.31-.233.54-.167l-.58-.242c-.19-.085-.39-.204-.32-.518.07-.261.27-.237.51-.209l.49.076c-.28-.118-.49-.356-.44-.56.03-.133.2-.29.62-.247l2.71.176.96.199-.52-.556c-.43-.641-.08-.931-.08-.931.18-.156.5.138.95.452l1.48 1.173c.52.589 1.48 1.686 1.28 2.741-.21 1.097-.55 1.548-1.23 1.591 0 0-1.23-.033-1.9-.138-.67-.104-1.45-.375-1.45-.375l-2.05-.969c-.3-.171-.49-.375-.43-.594z" fill="#D17462"/><path d="M1100.84 211.023c-.96-.347-1.29.766-1.29.766s-.67 1.653-.76 2.278c-.08.629.42 1.988.76 2.256 0 0 .83.594 1.04.778 0 0 .36.014.13-.615 0 0 .66.36.58-.216 0 0 .38-.25.46-.919 0 0-.16-.8-.38-1.135 0 0 .44-1.161.21-1.878 0 0 .22-.967-.75-1.315z" fill="#A96644"/><path d="M1100.79 212.397s-.17 1.148-.37 1.79c0 0 .57.853.23 1.223 0 0-.45-.312-1.04-.999 0 0 .33 1.135.39 1.307.07.171.48.444.71.774 0 0 .43-.15.47-.387 0 0 .38-.423.37-.717 0 0-.12-.651-.28-1.113 0 0 .58-1.143.28-1.926-.02-.049-.73.083-.76.048z" fill="#914627"/><path d="M1101.9 199.14c1.04.088 2.18.136 3.28.901-.03 1.148-.54 2.784-.65 3.629 0 0-.77 4.49-2.94 8.668 0 0-1.18-.088-1.92-.813 0 0 1.1-6.699 1.59-8.418 0-.005.46-2.015.64-3.967z" fill="#A96644"/><path d="M1102.42 194.465c.99-3.144 2.28-3.786 2.28-3.786l.87 5.902s-.05 1.865-.12 3.875c-1.09-.242-3.24-.638-4.29-1.06.52-2.045.75-3.33 1.26-4.931z" fill="#9B2A2A"/><path d="M1115.77 242.344l2.66-.233-.22-3.215-2.67.233.23 3.215z" fill="#A96644"/><path d="M1119.45 244.021h-4.75v.775h4.75v-.775z" fill="#C1C1C1"/><path d="M1119.37 244.02s.3-.774-.13-1.522l-.6-1.279s-.29.307-.55.184c-.28-.127-1.06-1.618-2.21.009 0 0-.33-.202-.53-.141l-.36 1.197s-.63 1.17-.22 1.552h4.6z" fill="#A52923"/><path d="M1117.84 242.828a.093.093 0 0 1-.04-.008c-.77-.295-1.55-.071-1.56-.066-.07.022-.14-.022-.16-.097-.01-.075.03-.15.09-.172.04-.009.87-.25 1.71.071.06.026.1.105.08.176-.02.061-.07.096-.12.096z" fill="#fff"/><path d="M1117.84 242.457a.079.079 0 0 1-.04-.009c-.77-.294-1.55-.07-1.56-.066-.07.022-.14-.021-.16-.096-.01-.075.03-.15.09-.172.04-.009.87-.251 1.71.071.06.026.1.105.08.176-.02.061-.07.096-.12.096z" fill="#fff"/><path d="M1117.84 242.089a.079.079 0 0 1-.04-.009c-.77-.294-1.55-.07-1.56-.066-.07.022-.14-.022-.16-.096-.01-.075.03-.15.09-.172.04-.009.87-.251 1.71.07.06.027.1.106.08.176-.02.062-.07.097-.12.097z" fill="#fff"/><path d="M1117.84 241.718a.079.079 0 0 1-.04-.009c-.77-.294-1.55-.07-1.56-.066-.07.022-.14-.022-.16-.097-.01-.074.03-.149.09-.171.04-.009.87-.251 1.71.07.06.027.1.106.08.176-.02.062-.07.097-.12.097z" fill="#fff"/><path d="M1100.56 235.014h-2.82v3.087h2.82v-3.087z" fill="#A96644"/><path d="M1100.9 237.067s.68 1.033.36 2.96h-9.37s-.76-1.329 2.02-1.597c1.8-.171 3.4-1.812 3.4-1.812s.52.088.75.752c.25.739 1.74.884 2.28.093.33-.497.56-.396.56-.396z" fill="#A52923"/><path d="M1101.33 240.031h-9.38v.774h9.38v-.774z" fill="#C1C1C1"/><path d="M1095.45 239.091a.19.19 0 0 1-.16-.11.941.941 0 0 0-.58-.554c-.09-.022-.15-.124-.13-.225a.178.178 0 0 1 .21-.136c.03.004.57.15.83.765a.189.189 0 0 1-.1.242c-.02.009-.04.018-.07.018zM1096.16 238.812a.192.192 0 0 1-.17-.11.922.922 0 0 0-.58-.554c-.09-.022-.15-.123-.12-.224a.172.172 0 0 1 .21-.136c.02.004.57.149.82.765a.195.195 0 0 1-.09.242.167.167 0 0 1-.07.017zM1096.68 238.444c-.07 0-.13-.044-.17-.11a.922.922 0 0 0-.58-.554c-.09-.022-.15-.123-.12-.224a.179.179 0 0 1 .21-.137c.02.005.57.15.82.766.04.092 0 .202-.09.242a.14.14 0 0 1-.07.017zM1097.2 238.073a.19.19 0 0 1-.16-.11.922.922 0 0 0-.58-.554c-.09-.022-.15-.123-.13-.224.03-.097.12-.159.22-.137.02.005.57.154.82.766a.195.195 0 0 1-.09.242.178.178 0 0 1-.08.017z" fill="#fff"/><path d="M1104.69 209.143l-.45 3.259s-6.47 8.013-7.01 9.9c-.54 1.896-.07 5.41.13 12.658 0 0 1.27.809 3.62.092 0 0 .21-10.335.68-11.452.47-1.117 8.45-9.342 8.45-9.342l1.39.031 3.6 25.285s1.74.466 3.45-.154l-2.23-30.281h-11.63v.004z" fill="#2E4056"/><path d="M1104.64 212.164c-.04 0-.07-.022-.08-.053-.02-.044.01-.092.04-.11.02-.004 1.52-.637 1.74-2.335 0-.048.05-.079.1-.075.04.005.08.049.07.097-.24 1.799-1.82 2.467-1.84 2.472-.01.004-.02.004-.03.004zM1111.1 214.257c-.04 0-.08-.026-.09-.066 0-.018-.38-1.808-.42-4.257 0-.049.04-.084.09-.088.04 0 .08.035.08.083.04 2.432.42 4.205.42 4.222.01.044-.02.093-.06.102-.01.004-.02.004-.02.004z" fill="#566C82"/><path d="M1110.89 213.475h-.01a1.134 1.134 0 0 1-.79-.405c-.77-.892-.6-2.955-.6-3.039a.098.098 0 0 1 .1-.079c.04.005.07.044.07.093 0 .021-.17 2.075.56 2.915.18.212.41.33.67.348.05.004.08.044.08.088-.01.048-.04.079-.08.079zM1116.34 212.697h-.01c-2.72-.278-3.41-2.613-3.42-2.635-.01-.044.01-.092.06-.105a.08.08 0 0 1 .1.057c.01.022.68 2.247 3.28 2.511.05.004.08.044.08.092-.01.049-.04.08-.09.08z" fill="#566C82"/><path d="M1097.22 234.413v.928s2.06.941 3.98.07v-.659s-2.7.492-3.98-.339zM1114.82 238.861l.18.95s2.65.365 3.81-.466v-.726s-2.38.845-3.99.242z" fill="#ABC2D8"/><path d="M1109.7 188.71l-.06 2.059 3.41.092.07-2.678c-1.43.651-2.84.598-3.42.527z" fill="#A96644"/><path d="M1113.13 188.181l.05-2.062-3.4-.093-.08 2.688c.58.066 2 .118 3.43-.533z" fill="#914627"/><path d="M1111.1 191.232c2.02 0 2.51-1.121 2.57-1.473-1.43-.29-2.85-.405-4.61-.167-.04.413.06 1.64 2.04 1.64z" fill="#A96644"/><path d="M1118.21 191.272s-1.94-1.06-4.31-1.579c-.1-.022-.2-.044-.3-.062-.07.352-.45 1.421-2.46 1.421-1.98 0-2.05-1.139-2.01-1.548-.14.017-.29.039-.44.066-1.08.171-2.91.607-3.98 1.108 0 0-.15 5.595-.31 18.987 0 0 4.8 1.728 12.51.255.12-6.43.16-8.312.65-12.354-.01 0 .34-3.748.65-6.294z" fill="#B23232"/><path d="M1116.68 178.276s.41.933.61 2.234c0 0 .75-2.234 1.06-3.755.35-1.632-.35-4.728-4.37-6.035-5.75-1.873-7.22.414-8.36 4.297 0 0 7.62-2.916 11.06 3.259z" fill="#D0D6D8"/><path d="M1115.63 171.495c2.54 1.548 3.01 3.888 2.73 5.26-.32 1.522-1.07 3.756-1.07 3.756-.19-1.302-.61-2.234-.61-2.234a7.626 7.626 0 0 0-1.61-2.032 6.895 6.895 0 0 0 .56-4.75z" fill="#AAB6BA"/><path d="M1116.68 178.277s-3.03-4.513-9.36-3.483c0 0-1.95.488-1.88 2.146 0 0-2.83-4.06-2.06-5.12.78-1.055 9.17-.963 10.57.374 1.86 1.773 2.73 6.083 2.73 6.083z" fill="#C63939"/><path d="M1103.9 175.854c.12-.237.19-.295.23-.277-.08-.413-.15-1.165.33-1.377.27-.118.43-.118.55-.048-.04-.149-.03-.33.24-.559.22-.18.34-.184.42-.092a.449.449 0 0 1 .16-.431c.39-.334 1.05-.312 2.1.312-.17-.123-.33-.329-.03-.519.47-.303.7.124.78.207 0 0-.45-.497.09-.642.37-.101.73.273 1.13.594-.05-.097-.01-.207.25-.304.65-.246 1.79.071 2.42 1.153a.618.618 0 0 1 .27-.159c.74-.268 1.77 1.073 1.8 2.617 0 0 1.53.968 2.25 2.058 0 0 .49 1.184.41 2.129l-.61 1.834-11.21-1.803s-.43-1.544-.34-2.956c-.01 0-1.53-1.112-1.24-1.737z" fill="#332A27"/><path d="M1111.45 176.148c1.2.435 2.91.497 2.91.497.94 2.362 2.16 3.734 2.78 4.328l-.46 1.376-11.21-1.803s-.43-1.574-.34-2.982c.35-3.738 5.12-1.851 6.32-1.416z" fill="#191514"/><path d="M1115.74 181.071l-.68.555c-.15-.326.07-1.241.09-1.601.1-1.944-.94-3.255-.94-3.255-4.02.506-5.34-.822-6.57-.695-1.67.176-1.87 1.465-1.87 1.465-.42 1.508-.3 2.278-.3 2.278 0 1.79-.04 4.829 1.24 6.645.54.766 1.23 1.408 2.38 1.579 5.01.752 6.29-3.94 6.29-3.94s1.57.4 1.89-1.812c.26-1.839-1.53-1.219-1.53-1.219z" fill="#A96644"/><path d="M1114.07 177.244s-1.73.713-5.85-.91c0 0-1.23-.405-2.2.615.24-.365.72-.787 1.62-.884 1.22-.127 2.55 1.201 6.57.695 0 0 .91 1.153.94 2.903-.15-.783-.48-1.896-1.08-2.419zM1115 183.541c-.43 1.188-2.01 4.112-5.43 3.936-1.85-.096-2.79-1.266-3.41-2.08.15.383.33.739.56 1.056.54.765 1.22 1.407 2.37 1.578 5.01.753 6.29-3.94 6.29-3.94s1.2.321 1.73-1.144c-.93 1.487-2.11.594-2.11.594z" fill="#914627"/><path d="M1108.22 181.642c0 .414-.26.726-.58.704-.32-.026-.57-.378-.57-.792 0-.413.26-.725.58-.703.32.026.58.378.57.791zM1112.6 181.523c-.01.414-.27.726-.59.704-.32-.026-.57-.378-.57-.792.01-.413.27-.725.59-.703.31.022.57.378.57.791z" fill="#502F26"/><path d="M1109.77 183.982c-.97.374-1.49-.062-1.53-.502-.03-.285.15-.541.43-.646.59-.22 1.01-1.091 1.01-1.1.01.198-.2.95-.96 1.368-.16.088-.26.185-.25.326.03.25.4.615 1.3.554z" fill="#914627"/><path d="M1106.25 179.838l-.04-.237c.06-.005 1.06-.225 2.23-.145l.01.373c-.96-.118-2.18.009-2.2.009zM1113.39 179.868c-.81-.176-2.26-.096-2.28-.096l.05-.348c.06.005 1.37-.075 2.3.229l-.07.215z" fill="#332A27"/><path d="M1111.46 184.626s-1.83.356-3.52 0c0 0 .3 1.491 1.76 1.491 1.37-.004 1.74-1.205 1.76-1.491z" fill="#722626"/><path d="M1109.66 185.338c-1.12 0-1.45-.444-1.59-.686 1.32.247 2.38.102 3.3-.008-.1.268-.65.694-1.71.694z" fill="#fff"/><path d="M1117.83 207.367c-.26-.475-.76-.532-.76-.532l-.57.119c-.54-.176-.78-.532-1.05-.572-.27-.039-.69-.325-.69-.325-.25.378.23.783.23.783l-.11-.022-.28-.058c-.12-.022-.23-.048-.35-.07-.12-.022-.23-.048-.35-.07a1.291 1.291 0 0 0-.26-.036.986.986 0 0 0-.28.036c-.11.022-.72.237-.82.263-.05.009-.15.031-.15.031-.04.115-.05.242.01.348.1.189.38.184.52.162.1-.017.24-.066.34-.105.09-.031.07-.048.22-.035.09.009.17.039.26.057.19.044.38.083.56.127.05.009.09.022.13.031 0 0-.91.167-1.19.247-.21.061-.81.637-.81.637-.43.414.24.572.24.572-.03.04-.07.106-.07.163 0 .048.03.088.06.114.05.053.12.075.18.097.12.039.25.053.37.022.04-.009.07-.022.11-.035.03-.014.06-.031.09-.044.04-.022.08-.044.13-.066.12-.071.24-.137.36-.225.01-.008.04-.044.06-.048l.71-.04c-.24.132-.48.563-.81.761a.544.544 0 0 0-.14.11c-.04.04-.08.101-.07.167 0 .062.06.08.1.097.14.053.29.053.44.018a1.083 1.083 0 0 0 .36-.181c.02-.017.04-.03.06-.052.43-.48.91-.717 1.52-.401.88.458 1.58-.862 1.58-.862s.39-.708.12-1.183z" fill="#A96644"/><path d="M1122.75 197.825c.27.497.96 1.619 1.26 2.19 0 0 1.63 2.947-6.31 8.528 0 0-.95-.483-.63-1.71l3.36-5.445-.83-1.425c1.15-1.302 2.14-1.795 3.15-2.138z" fill="#A96644"/><path d="M1118.21 191.276s1.38-.176 5.11 6.549c-.62.664-1.99 2.212-3.82 2.845l-2.12-2.617s-.71-4.653.83-6.777z" fill="#B23232"/><path d="M1086.75 241.571c-.25 0-1.39-.009-1.59-.009-.64 0-1.15.735-1.15 1.615 0 .884.51 1.614 1.15 1.614h1.49l.1-3.22z" fill="#1A2126"/><path d="M1087.85 243.151c0-.884-.47-1.557-1.1-1.557-.63 0-1.2.677-1.2 1.557 0 .884.47 1.684 1.11 1.684.63-.004 1.19-.805 1.19-1.684z" fill="#313C44"/><path d="M1091.77 242.729h-.91c-.76-.387-.77-.88-.77-.88l-.57-.277-.69.291c-.07.65-.62.738-.86.87h-.95a.387.387 0 1 0 0 .774h4.75a.39.39 0 0 0 .39-.387.401.401 0 0 0-.39-.391z" fill="#7A8A96"/><path d="M1091.31 241.188h-3.6v.642h3.6v-.642z" fill="#616F77"/><path d="M1092.41 241.57c-.25 0-1.39-.008-1.6-.008-.63 0-1.14.734-1.14 1.614 0 .884.51 1.614 1.14 1.614h1.5l.1-3.22z" fill="#1A2126"/><path d="M1093.5 243.155c0-.884-.46-1.557-1.1-1.557-.63 0-1.19.677-1.19 1.557 0 .884.47 1.684 1.1 1.684.64-.004 1.19-.805 1.19-1.684z" fill="#313C44"/><path d="M1104.74 241.57c-.24 0-1.38-.008-1.59-.008-.63 0-1.15.734-1.15 1.614 0 .884.52 1.614 1.15 1.614h1.5l.09-3.22z" fill="#1A2126"/><path d="M1105.84 243.15c0-.884-.46-1.557-1.09-1.557-.64 0-1.2.677-1.2 1.557 0 .884.47 1.684 1.1 1.684.64-.004 1.19-.805 1.19-1.684z" fill="#313C44"/><path d="M1109.77 242.729h-.91c-.76-.387-.77-.88-.77-.88l-.57-.277-.69.291c-.07.65-.62.738-.86.87h-.96c-.21 0-.38.172-.38.387 0 .212.17.387.38.387h4.76a.39.39 0 0 0 .39-.387.401.401 0 0 0-.39-.391z" fill="#7A8A96"/><path d="M1109.3 241.188h-3.6v.642h3.6v-.642z" fill="#616F77"/><path d="M1110.4 241.571c-.24 0-1.39-.009-1.59-.009-.63 0-1.15.735-1.15 1.615 0 .884.52 1.614 1.15 1.614h1.5l.09-3.22z" fill="#1A2126"/><path d="M1111.5 243.156c0-.884-.46-1.557-1.1-1.557-.63 0-1.2.677-1.2 1.557 0 .884.47 1.684 1.11 1.684.63-.004 1.19-.805 1.19-1.684z" fill="#313C44"/><path d="M1109.89 241.32h-24.93s-1.32-.044-2.16-.879c-.83-.836.17-1.487.97-1.518.74-.031 3.83-.347 5.71 1.408.19.184.61.475 1.19.475h13.31s1.03-.044 1.88-.638c.86-.594 4.46-1.962 6.13-.739 1.67 1.223-1.11 1.891-2.1 1.891z" fill="#A08650"/><path d="M1084.66 239.416c-1.2.018-1.84.212-2.17.387 0 .19.1.409.32.638.83.836 2.15.88 2.15.88h5.71c-.79 0-1-.154-1.67-.717-.68-.567-2.13-1.223-4.34-1.188z" fill="#A52923"/><path d="M1110.28 240.805s1.71-.062 2.14-.959a1.7 1.7 0 0 0-.43-.431c-1.67-1.223-5.27.15-6.13.743-.76.533-1.66.625-1.84.638v.013h6.26v-.004z" fill="#313C44"/><path d="M1107.62 170.754v-1.543c0-1.235-1-2.251-2.22-2.251h-5.85V165c-1.34.004-3 .026-4.87.062v1.898h-5.85c-1.22 0-2.21 1.011-2.21 2.251v1.543c0 1.235.99 2.246 2.21 2.246h16.57c1.22.004 2.22-1.011 2.22-2.246z" fill="#0082C8"/><path d="M1059.12 207.001c4.69 0 8.5-3.582 8.5-8s-3.81-8-8.5-8c-4.7 0-8.5 3.582-8.5 8s3.8 8 8.5 8z" stroke="#0082C8" stroke-width="6.427" stroke-miterlimit="10"/><path d="M1053.27 191.86l-1.29-.779c-.3-.188-.68-.032-.83.344l-.08.169a.896.896 0 0 0 .01.683.598.598 0 0 0-.43.381l-.07.17c-.11.247-.07.536.07.77a.634.634 0 0 0-.52.417l-.07.17a.938.938 0 0 0-.03.573.475.475 0 0 0-.21.17l-.08.114c-.18.257-.16.647.05.871l.88.936c.21.224.52.197.71-.06l.08-.114a.725.725 0 0 0 .03-.775l.14.087c.31.188.69.032.84-.344l.07-.17a.916.916 0 0 0 .03-.61c.32.12.65-.022.79-.353l.07-.169c.13-.321.03-.711-.22-.954a.674.674 0 0 0 .28-.335l.07-.169c.14-.376.02-.835-.29-1.023zM1065.06 191.86l1.6-.779a.798.798 0 0 1 1.05.344l.09.169c.11.225.1.477-.01.683.24.042.44.175.54.381l.09.17c.13.247.08.536-.09.77.26.018.52.165.64.417l.09.17c.1.183.11.39.04.573.1.032.19.087.26.17l.1.114a.61.61 0 0 1-.06.871l-1.09.936a.64.64 0 0 1-.89-.06l-.11-.114a.611.611 0 0 1-.03-.775l-.18.087a.792.792 0 0 1-1.05-.344l-.09-.17a.765.765 0 0 1-.03-.61c-.4.12-.82-.022-.99-.353l-.09-.169c-.16-.321-.03-.711.28-.954a.762.762 0 0 1-.35-.335l-.09-.169a.77.77 0 0 1 .37-1.023z" fill="#A96644"/><path d="M1084.57 243.798l-.69-1.381-2.01.277-.2 1.636 2.9.005v-.537z" fill="#D17462"/><path d="M1075.17 228.465c1.13 3.954 3.76 6.549 6.85 14.637l1.84-.677s-2.11-7.908-4.63-14.377c0 0 .2-5.56 1.93-11.699-2.74-.735-3.86-.981-5.45-1.267-1.1 4.271-1.06 11.545-.54 13.383z" fill="#D17462"/><path d="M1075.71 215.074a21.78 21.78 0 0 0-.39 1.905c.79.637 2.5 1.732 5.17 2.04.2-.871.42-1.768.68-2.678-2.74-.73-3.87-.981-5.46-1.267z" fill="#BA5F50"/><path d="M1085.03 246.198h-9.08v1.051h9.08v-1.051z" fill="#C1C1C1"/><path d="M1075.96 246.199s-.62-1.719 2.08-1.966l.7 1.966h-2.78z" fill="#F2F2F2"/><path d="M1078.06 244.23l3.59-1.218s.44-.128.76.721c0 0 1.33.721 2.17-.194 0 0 .81-.07.46 1.333v1.333h-7.5l.52-1.975z" fill="#D6D8D8"/><path d="M1084.56 243.539c-.33.352-.7.462-1.07.462l.09.488s.54-.101.8-.299c0 0 .21.541.61.669.35-1.381-.43-1.32-.43-1.32zM1080.27 246.201h-.58l-.47-1.174.5-.176.55 1.35zM1081.33 246.201h-.59l-.58-1.496.53-.167.64 1.663zM1082.37 246.199h-.58l-.67-1.785.52-.163.73 1.948z" fill="#3E4042"/><path d="M1082.37 243.741l-4.01 1.373-.17-.489 3.32-1.125c.01 0 .6-.234.86.241z" fill="#CECECE"/><path d="M1078.72 243.805l-.33.113.31.882.32-.114-.3-.881zM1079.42 243.571l-.33.114.3.881.33-.113-.3-.882zM1080.12 243.336l-.33.113.31.882.33-.113-.31-.882zM1080.94 243.104l-.33.113.3.881.33-.113-.3-.881z" fill="#F2F2F2"/><path d="M1083.14 216.485c.31 5.045 1.09 18.165 1.01 27.616h2s1.64-16.418 2.46-28.209c-2.18.088-3.78.272-5.47.593z" fill="#D17462"/><path d="M1088.62 215.929c-2.18.088-3.79.264-5.47.585.04.699.09 1.557.15 2.533 1.52-.141 3.25-.537 5.19-1.302.04-.616.08-1.223.13-1.816z" fill="#BA5F50"/><path d="M1083.78 244.332l.38-1.979h2.16l.24 1.93-2.78.049z" fill="#D17462"/><path d="M1087.26 246.201h-3.96v1.051h3.97l-.01-1.051z" fill="#CECECE"/><path d="M1085.18 242.898s-1.02-.004-.94.638c0 0-.94-.11-.94 2.591l3.97.057s-.08-2.613-1.09-2.613c0 0 .15-.673-1-.673z" fill="#E5E5E5"/><path d="M1084.45 243.446v1.632l-.46.018v-1.302s.23-.282.46-.348zM1085.85 243.442v1.632l.46.018v-1.302s-.11-.282-.46-.348z" fill="#CECECE"/><path d="M1086.2 243.909c-.93-.418-1.98-.004-1.99 0l.01-.242c.04-.017.93-.466 1.98 0v.242z" fill="#F2F2F2"/><path d="M1084.21 244.266l.01-.246c.03-.018.81-.458 1.98-.057v.241c-1.05-.36-1.98.058-1.99.062z" fill="#F2F2F2"/><path d="M1083.3 246.201s-.18-2.001 1.98-2.001 1.98 2.001 1.98 2.001h-3.96z" fill="#F2F2F2"/><path d="M1090.1 195.983s-1.79-1.46-.73-3.308c1.06-1.847 1.51-3.078.73-4.424-.79-1.346.84-4.222 1.12-5.339.28-1.118-1.51-4.896-1.4-6.43.11-1.535-1.01-5.01-4.04-4.676 0 0-6.56-2.287-8.23 2.868-1.69 5.154-.96 7.807 0 9.429.95 1.619 1.71 4.711.72 6.664-1.01 1.952-.06 3.879 1.57 4.833 1.63.955 6.84 2.019 10.26.383z" fill="url(#paint1_linear)"/><path d="M1089.83 176.306c.01-.964-.4-2.503-1.36-3.515-.98 1.184-3.3 2.521-5.63 1.878-2.08-.571-2.35-2.128-2.31-3.061-1.05.343-2.03 1.03-2.65 2.279 4.04 3.074 9.15 2.854 11.95 2.419z" fill="#994A3D"/><path d="M1091.27 193.386s-.07 2.955-.01 7.059c.07 4.103.92 3.641-.48 13.326h-1.83s-.95-9.887-.23-13.309l-.69-6.469 3.24-.607z" fill="url(#paint2_linear)"/><path d="M1088.89 213.492c.34-.735.9-.497 1.59-.167.7.33.61 1.016.52 1.596l-.34.994c-.35.735-.86.7-1.56.365-.69-.33-1.14-.84-.79-1.579l.58-1.209z" fill="#BA5F50"/><path d="M1088.85 215.218a.41.41 0 0 1 .11.189c.21.774 1.47 1.882 1.95 2.225.17.119.25.357.15.506-.1.15-.31.115-.47-.004-.2-.145-1.98-1.447-2.3-2.63-.05-.189.06-.365.25-.392.11-.017.23.027.31.106z" fill="#BA5F50"/><path d="M1089.19 214.982c.05.031.1.075.13.132.66 1.082 2.57 1.957 2.59 1.966.19.075.41.282.34.466-.07.185-.4.159-.59.084-.09-.035-2.18-.862-2.96-2.164a.345.345 0 0 1 .12-.488.359.359 0 0 1 .37.004z" fill="#BA5F50"/><path d="M1089.98 215.093c.04.018.08.04.12.071.77.66 1.93 1.082 1.94 1.086.3.119.43.326.36.488-.05.106-.33.097-.52.044-.05-.013-1.34-.387-2.25-1.165-.15-.132-.17-.334-.04-.458.1-.101.26-.118.39-.066z" fill="#BA5F50"/><path d="M1090.4 214.699c.03.009.07.009.1.035.47.462 1.6.748 1.61.748.2.022.32.132.3.321-.02.189-.17.154-.37.132-.04-.004-.94-.11-1.88-.598a.347.347 0 0 1-.16-.471.373.373 0 0 1 .4-.167z" fill="#BA5F50"/><path d="M1088.72 189.145s2.12 1.02 3.44 4.354c0 0-1.65 1.293-3.97 1.728 0 .005-.74-3.62.53-6.082z" fill="#86CF87"/><path d="M1076.45 192.189s-.92 9.773.31 11.409c0 0 2.71 3.558 9.62 5.177l.56-1.694s-5.1-3.443-7.78-5.115l-.28-9.042-2.43-.735z" fill="url(#paint3_linear)"/><path d="M1090.55 209.65c.02-.154-.15-.198-.34-.256l.59.093c.14.017.3.031.33-.145.03-.189-.12-.225-.28-.264l.41.053c.14.013.3.017.34-.176.04-.159-.09-.211-.23-.269l-.33-.118c.21.026.4-.036.43-.159.01-.079-.04-.215-.3-.325l-1.66-.77-.64-.198.47-.132c.44-.202.32-.47.32-.47-.06-.141-.34-.084-.7-.062l-1.21.154c-.48.145-1.36.427-1.54 1.056-.18.651-.11 1.002.28 1.24 0 0 .74.369 1.17.528.43.158.97.264.97.264l1.49.136c.24.004.42-.044.43-.18z" fill="#D17462"/><path d="M1078.01 188.95s-1.7.911-2.69 4.412c0 0 2.57 1.574 4.16 1.662 0 .004-.58-4.125-1.47-6.074z" fill="#86CF87"/><path d="M1086.53 203.263l.23-2.811-8.38-.088.36 2.828-.73 2.819s3.2 2.604 9.78-.026c-.33-1.161-1.06-1.742-1.26-2.722z" fill="#D17462"/><path d="M1086.54 203.161l.22-2.709-8.38-.088.24 1.909c1.2.62 4.06 1.746 7.92.888z" fill="#BA5F50"/><path d="M1079.44 188.648s3.77-.845 7.26 0c0 0-.59 3.853-5.03 3.888-4.45.035-2.23-3.888-2.23-3.888z" fill="#D17462"/><path d="M1085.66 188.39s-.82 2.172-3.27 2.128c-2.35-.044-1.75-2.128-1.75-2.128-1.46.246-2.63.558-2.63.558l-.28 2.621c-.95 1.403-1.17 2.446-1.12 3.29.06 1.28.24 2.358.24 2.358l.38 4.631c4.95 1.926 10.84-.145 10.84-.145-.1-4.816.7-6.993.7-6.993v-5.568c-.82-.348-2.3-.638-3.11-.752z" fill="#86CF87"/><path d="M1081.83 187.07l-.01 2.353 2.88.013.01-3.061c-1.2.783-2.39.761-2.88.695z" fill="#D17462"/><path d="M1084.72 186.377l.01-2.357-2.88-.013-.01 3.065c.49.066 1.68.088 2.88-.695z" fill="#BA5F50"/><path d="M1086.69 180.652s.83 5.159-.29 7.261c-1.12 2.103-1.47 2.551-1.18 3.668.29 1.117.95 2.547-.83 3.932 0 0 3.33-.55 2.6-3.932 0 0 2.78-3.052 2.48-11.144l-2.78.215zM1077.39 182.506s-.39 3.114.84 5.45c1.22 2.335-.84 2.902-.45 4.75.39 1.847-.48 2.572-1.12 2.823 0 0 2.07.299 2.49-2.203 0 0 .07-1.276.39-1.628.32-.351 1.72-2.924.77-5.101-.94-2.177 0-4.095 0-4.095h-2.92v.004z" fill="#7C3425"/><path d="M1087.52 179.46l-.09.026s-.25 1.24-.91-1.447c-.44-2.81-3.65-3.747-3.65-3.747-5.12.079-5.31 2.481-4.94 4.561.15.761.34 1.983.28 3.035-.14 2.625 2.07 4.332 4.03 4.327 3.77-.004 4.75-3.105 4.75-3.105s1.73.049 1.96-2.309c.18-1.926-1.43-1.341-1.43-1.341z" fill="#D17462"/><path d="M1082.84 174.67s2.31.659 3.53 2.762c-.76-2.336-3.5-3.136-3.5-3.136-3.1.048-4.4.954-4.85 2.129.61-.792 1.93-1.654 4.82-1.755z" fill="#BA5F50"/><g opacity=".9"><path opacity=".091" d="M1079.97 180.668c.87.162 1.44.998 1.27 1.864a1.59 1.59 0 0 1-1.86 1.272 1.587 1.587 0 0 1-1.27-1.865c.16-.867 1-1.438 1.86-1.271z" fill="#E8725F"/><path opacity=".182" d="M1079.94 180.816a1.445 1.445 0 1 1-1.69 1.148c.16-.783.91-1.298 1.69-1.148z" fill="#E5705E"/><path opacity=".273" d="M1079.91 180.967c.7.132 1.16.809 1.03 1.508-.13.7-.81 1.161-1.51 1.03-.7-.132-1.16-.81-1.02-1.509.13-.699.8-1.161 1.5-1.029z" fill="#E36E5D"/><path opacity=".364" d="M1079.88 181.12c.62.119 1.02.713.91 1.329-.12.615-.72 1.02-1.33.906a1.145 1.145 0 0 1-.91-1.329 1.14 1.14 0 0 1 1.33-.906z" fill="#E16C5C"/><path opacity=".455" d="M1079.85 181.27c.53.101.89.616.79 1.148a.992.992 0 0 1-1.15.783.984.984 0 0 1-.78-1.148.977.977 0 0 1 1.14-.783z" fill="#DF6A5B"/><path opacity=".545" d="M1079.82 181.417c.45.083.75.518.66.967a.825.825 0 1 1-1.62-.308.83.83 0 0 1 .96-.659z" fill="#DC6759"/><path opacity=".636" d="M1079.8 181.571c.36.07.6.422.53.787a.67.67 0 0 1-.78.537.674.674 0 1 1 .25-1.324z" fill="#DA6558"/><path opacity=".727" d="M1079.77 181.722a.52.52 0 0 1-.2 1.02.52.52 0 0 1 .2-1.02z" fill="#D86357"/><path opacity=".818" d="M1079.74 181.873a.366.366 0 1 1-.43.291.374.374 0 0 1 .43-.291z" fill="#D66156"/><path opacity=".909" d="M1079.71 182.023c.12.022.19.133.17.252a.21.21 0 0 1-.25.167.217.217 0 0 1-.17-.247c.03-.119.14-.194.25-.172z" fill="#D35F55"/><path opacity=".9" d="M1079.73 182.249c0 .031-.03.054-.07.049-.03-.004-.05-.036-.05-.072 0-.032.04-.054.07-.05.04.009.06.041.05.073z" fill="#D15D54"/></g><g opacity=".9"><path opacity=".091" d="M1085.03 180.549a1.713 1.713 0 0 1-.64 3.364 1.707 1.707 0 0 1-1.36-2.001 1.716 1.716 0 0 1 2-1.363z" fill="#E8725F"/><path opacity=".182" d="M1085 180.712c.84.158 1.39.967 1.23 1.807a1.55 1.55 0 0 1-1.81 1.232 1.552 1.552 0 0 1-1.23-1.808c.17-.836.97-1.39 1.81-1.231z" fill="#E5705E"/><path opacity=".273" d="M1084.96 180.872c.75.14 1.24.866 1.1 1.614-.14.747-.86 1.24-1.61 1.099a1.382 1.382 0 0 1-1.1-1.614c.15-.747.87-1.24 1.61-1.099z" fill="#E36E5D"/><path opacity=".364" d="M1084.94 181.036a1.215 1.215 0 0 1-.45 2.388 1.212 1.212 0 0 1-.97-1.421c.12-.659.76-1.091 1.42-.967z" fill="#E16C5C"/><path opacity=".455" d="M1084.9 181.198a1.05 1.05 0 0 1-.39 2.063c-.57-.11-.94-.66-.83-1.227.1-.572.66-.946 1.22-.836z" fill="#DF6A5B"/><path opacity=".545" d="M1084.88 181.359c.47.092.79.554.7 1.038a.886.886 0 0 1-1.03.708.888.888 0 1 1 .33-1.746z" fill="#DC6759"/><path opacity=".636" d="M1084.84 181.518c.39.075.65.454.58.845a.728.728 0 0 1-.85.576.717.717 0 0 1-.57-.844.721.721 0 0 1 .84-.577z" fill="#DA6558"/><path opacity=".727" d="M1084.82 181.68a.559.559 0 0 1-.21 1.095.554.554 0 0 1-.44-.651.553.553 0 0 1 .65-.444z" fill="#D86357"/><path opacity=".818" d="M1084.78 181.843c.21.039.35.246.31.457a.397.397 0 0 1-.46.312.392.392 0 0 1-.31-.457.397.397 0 0 1 .46-.312z" fill="#D66156"/><path opacity=".909" d="M1084.75 182.008c.13.022.21.141.18.268a.222.222 0 0 1-.26.181.215.215 0 0 1-.18-.264.222.222 0 0 1 .26-.185z" fill="#D35F55"/><path opacity=".9" d="M1084.78 182.242c-.01.036-.05.059-.08.05-.04-.005-.06-.041-.05-.077 0-.036.04-.059.08-.05.03.009.05.045.05.077z" fill="#D15D54"/></g><path d="M1082.2 182.527c-.65.299-1.07.145-1.15-.295-.06-.286.11-.616.29-.774.37-.325.53-1.284.54-1.293.03.202-.02 1.003-.47 1.561a.523.523 0 0 0-.12.374c.02.326.33.581.91.427z" fill="#BA5F50"/><path d="M1079.82 179.618s-.57.017-.65-.198c0 0-.07.303.28.4a.884.884 0 0 0-.18.55c.01.409.27.739.58.734.3-.004.55-.343.54-.752 0-.409-.26-.739-.57-.734zM1084.13 179.551s-.58.018-.66-.197c0 0-.07.303.28.4a.88.88 0 0 0-.17.55c0 .409.26.738.57.734.31-.004.55-.343.55-.752-.01-.414-.26-.739-.57-.735z" fill="#68413A"/><path d="M1086.66 182.455s-.24 1.654-2.83 2.762c-2.28.976-4.5-.537-5-.91.78 1.205 2.14 1.913 3.41 1.913 3.77-.005 4.75-3.105 4.75-3.105s1.1.03 1.66-1.148c-.97.725-1.99.488-1.99.488z" fill="#BA5F50"/><path d="M1080.91 178.463s-.92-.25-2.18.119c0 0-.01-.092.23-.299.22-.189 1.05-.396 1.77-.106 0 .005.37.203.18.286zM1082.92 178.412s.93-.268 2.2.08c0 0 0-.093-.24-.295-.23-.185-1.06-.378-1.77-.07 0 0-.37.206-.19.285z" fill="#7C3425"/><path d="M1083.56 183.132s-1.46.321-2.83.044c0 0 .26 1.253 1.44 1.231 1.1-.017 1.38-1.033 1.39-1.275z" fill="#B22828"/><path d="M1082.13 183.757c-.91.014-1.17-.356-1.29-.558 1.06.193 1.91.053 2.66-.049-.08.225-.52.594-1.37.607z" fill="#fff"/><path d="M1088.05 205.875c-7.27.954-10.35 0-10.35 0s-1.53 4.609-2.89 9.5c1.24.646 3.6 1.451 6.45 1.614.27-.787.48-1.539.61-1.874l.96-.017s.06.682.13 1.895c1.65-.052 4-.263 6.14-.712-.02-4.095.17-7.547-1.05-10.406z" fill="#7D9CC9"/><path d="M1082.56 208.337c-3.23 0-5.23-.563-5.26-.572a.11.11 0 0 1-.08-.145c.01-.061.08-.096.14-.079.05.013 4.51 1.258 10.84-.004.07-.013.13.026.14.092a.12.12 0 0 1-.09.136c-2.14.431-4.07.572-5.69.572z" fill="#9EB9D8"/><path d="M1082.39 213.395h-.01c-.37-.018-.65-.141-.86-.374-.35-.396-.48-1.1-.41-2.278.06-1.038.21-4.192.21-4.223.01-.066.06-.114.13-.11.06.005.11.058.11.124 0 .03-.16 3.184-.22 4.226-.06 1.095.05 1.768.36 2.107.16.185.39.281.7.299.07.004.11.057.11.123-.01.057-.06.106-.12.106zM1082.68 214.819s-.01 0 0 0a.115.115 0 0 1-.12-.114c.1-3.246.24-8.115.24-8.163a.11.11 0 0 1 .11-.114c.07 0 .12.057.12.118 0 .049-.14 4.918-.24 8.163 0 .066-.05.11-.11.11zM1088.59 210.274c-2.37 0-2.67-2.248-2.67-2.27-.01-.057.03-.105.09-.114.06-.009.11.035.12.097 0 .083.28 2.089 2.45 2.093.06 0 .11.04.11.097s-.05.097-.1.097zM1076.64 210.004c-.05 0-.1-.04-.11-.097-.01-.061.03-.114.1-.123 2.24-.26 2.39-1.619 2.39-1.676.01-.061.06-.105.12-.101.06.005.11.057.1.119 0 .066-.15 1.596-2.59 1.878h-.01z" fill="#9EB9D8"/><path d="M1088.22 214.157a.659.659 0 0 1-.59.73l-2.5.282a.663.663 0 0 1-.73-.585l-.08-.655a.659.659 0 0 1 .59-.73l2.5-.282c.37-.04.69.22.73.585l.08.655zM1080.23 214.61a.46.46 0 0 1-.54.37l-3.09-.607a.468.468 0 1 1 .18-.919l3.09.607c.25.052.41.299.36.549zM1074.65 214.714s2.32 1.332 6.94 1.935l-.21 1.029s-4.51-.233-7-1.926l.27-1.038zM1082.67 216.657s2.13.132 6.79-.774v1.077s-2.9 1.016-6.69.722l-.1-1.025z" fill="#CAE0EF"/><path d="M1085.66 206.24l-.58.063.22 2.086.59-.063-.23-2.086zM1079.37 206.241l-.3 2.076.57.085.31-2.076-.58-.085z" fill="#6888AF"/><path d="M1082.21 207.858c.27 0 .48-.214.48-.479s-.21-.48-.48-.48c-.26 0-.48.215-.48.48s.22.479.48.479z" fill="#CAE0EF"/><path d="M1017.62 243.096c.09 6.051.42 14.014 1.6 19.755.41 2.03.27 2.105 3.31 2.092 3.23-.018 15.06.065 18.13.056 6.04-.021 7.54-.017 10.12-.934 2.79-.991 4.83-1.947 7.59-2.934 2.7-.969 6.18-.725 9.24-.742 6.48-.035 20.39.323 31.1.271 10.71-.057 24.61-.555 31.1-.585 3.06-.018 6.53-.297 9.25.646 2.76.96 4.81 1.895 7.61 2.855 2.6.891 4.09.873 10.14.834 3.06-.022 14.89-.223 18.12-.24 3.04-.018 2.9-.092 3.29-2.122 1.12-5.754 1.37-13.717 1.4-19.769.02-6.269-1.34-21.528-1.6-24.496-.4-4.641-2.02-5.881-3.71-7.951-1.94-2.361-2.74-4.007-4.31-6.033-1.43-1.834-2.82-3.082-4.36-4.733-.76-.821-1.21-1.991-1.42-3.095-.33-1.703-3.88-9.675-7.41-16.08-2.52-4.553-6.03-9.334-7.77-11.159-2.87-3.012-4.9-3.562-7.63-3.859-13.29-1.445-27.24-1.947-43.2-1.864-15.95.083-29.89.724-43.17 2.305-2.72.323-4.75.895-7.59 3.933-1.72 1.843-5.19 6.658-7.65 11.238-3.47 6.44-6.94 14.451-7.25 16.154-.21 1.104-.64 2.279-1.39 3.108-1.52 1.668-2.9 2.93-4.31 4.777-1.56 2.038-2.34 3.693-4.25 6.077-1.67 2.087-3.27 3.344-3.63 7.989-.23 2.965-1.44 18.241-1.35 24.506zm19.9-50.286c1.2-3.266 2.87-7.819 4.86-11.753a71.152 71.152 0 0 1 6.4-10.312c1.39-1.834 1.85-2.004 4.37-2.275 9.65-1.034 31.35-1.938 45.08-2.008 13.72-.07 35.43.611 45.09 1.55 2.52.244 2.98.41 4.39 2.231 1.57 2.026 4.21 5.789 6.51 10.247 2.03 3.916 3.74 8.447 4.98 11.704.41 1.083.57 2.336-.96 2.288-3.02-.096-23.89-.891-30.17-1.096-6.95-.227-23.07-.393-29.71-.358-6.63.035-22.75.363-29.7.66-6.27.27-27.14 1.274-30.16 1.401-1.53.065-1.39-1.188-.98-2.279z" fill="#14AFEB"/><path d="M1178.52 258l-20.9.105.1 19.795c.01 1.72 1.43 3.109 3.18 3.1l14.57-.074c1.75-.009 3.16-1.411 3.15-3.131l-.1-19.795zM1018.62 259.105l20.9-.105.1 19.795c.01 1.72-1.4 3.122-3.15 3.131l-14.57.074c-1.75.009-3.17-1.38-3.18-3.1l-.1-19.795z" fill="#192D4B"/><path d="M1178.73 258.278l-160.32.822.04 9.324 160.33-.822-.05-9.324z" fill="#192D4B"/><path d="M1162.36 197.283c.2.679.61.787 1.45.683 5.83-.696 11.71-1.698 16.33-2.571.87-.165 1.47-.186 2-.955.78-1.141 1.55-2.304 1.47-3.626-.07-1.292-2.11-3.043-3.25-3.561-2.97-1.362-6.13-1.906-9.53-2.187-.98-.082-2.07-.095-3.05.004-.9.091-1.12.692-1.32 1.517-.47 1.884-.69 3.82-.78 5.761-1.03-.013-4.16-.221-4.06.955.09 1.227.41 2.826.74 3.98zM1034.62 194.267c.08-1.186-3.05-.943-4.07-.921-.12-1.945-.35-3.89-.84-5.779-.21-.825-.44-1.429-1.33-1.511-.98-.087-2.07-.065-3.05.026-3.4.317-6.55.899-9.5 2.297-1.12.534-3.15 2.31-3.21 3.608-.06 1.329.72 2.488 1.51 3.63.53.768 1.13.781 2 .938 4.62.829 10.5 1.776 16.33 2.418.84.091 1.25-.017 1.44-.703.33-1.164.63-2.77.72-4.003z" fill="#14AFEB"/><path d="M1019.25 251.916c.94-2.516 1.66-4.91 2.61-7.435.72-1.945 2.11-4.936 3.07-6.816 1.26-2.494 4.5-2.31 7.04-2.288 2.79.027 9.8.303 12.55.356 2.52.044 5.65-.066 6.51-3.25l47.48-.241L1146 232c.89 3.175 4.03 3.254 6.55 3.184 2.75-.079 9.75-.426 12.54-.483 2.53-.048 5.78-.264 7.06 2.218.98 1.87 2.4 4.844 3.14 6.785.98 2.512 1.71 4.901 2.69 7.408.38.993.96 1.529 1.64 2.064-.21 3.149-.54 6.232-1.06 8.854-.39 2.042-.25 2.117-3.3 2.134-3.25.018-15.14.224-18.22.242-6.08.044-7.57.061-10.18-.839-2.82-.966-4.88-1.91-7.66-2.877-2.73-.944-6.22-.667-9.29-.649-6.52.035-20.49.535-31.26.592-10.77.053-24.74-.307-31.26-.272-3.07.018-6.57-.228-9.29.747-2.76.992-4.82 1.958-7.62 2.951-2.6.922-4.1.922-10.18.94-3.08.013-14.96-.075-18.21-.057-3.05.017-2.91-.062-3.33-2.1-.54-2.617-.9-5.696-1.14-8.84.68-.545 1.25-1.089 1.63-2.086z" fill="#0082C8"/><path d="M1030.63 252.736c.18-.561 24.69 3.129 67.5 2.913 42.82-.215 67.29-4.15 67.48-3.594.51 1.543-22.97 6.714-67.46 6.939-44.49.224-68.03-4.715-67.52-6.258z" fill="#14AFEB"/><path d="M1049.73 231.538c.58-2.153 3.19-3.689 5.18-5.012a91.278 91.278 0 0 1 4.84-3.003c.49-.286 1.58-.955 2.4-1.098.95-.165 2.61.009 3.54.035 3.74.108 6.83.173 10.57.234 3.74.061 7.48.1 11.22.113 1.89.009 7.34-.022 10.59-.039s8.7-.043 10.6-.07c3.73-.052 7.48-.125 11.21-.225 3.74-.1 6.83-.195 10.57-.343.92-.035 2.58-.226 3.53-.069.82.134 1.92.794 2.42 1.071 1.64.929 3.33 1.957 4.86 2.955 2 1.307 4.63 2.817 5.23 4.96.65 2.304-1.39 5.151-2.58 6.921-3.69 5.485-7.1 10.783-11.6 15.47-1.91 1.978-4.58 1.957-7.14 2.061-3.47.143-18.3.434-26.94.499-8.63.021-23.47-.122-26.94-.226-2.55-.078-5.23-.026-7.15-1.987-4.55-4.639-8.02-9.907-11.77-15.352-1.19-1.762-3.26-4.587-2.64-6.895z" fill="#0082C8"/><path d="M1078.94 249l39.43-.207c1.25-.005 2.25-1.04 2.25-2.305l-.06-11.205a2.274 2.274 0 0 0-2.27-2.283l-39.43.207c-1.24.005-2.25 1.04-2.24 2.305l.05 11.205c.01 1.265 1.03 2.287 2.27 2.283z" fill="#14AFEB"/><path d="M1080.62 244v-6h3v.721h-2.25v2.005h1.7v.695h-1.7V244h-.75zM1087.04 241.49c-.1.009-.21.009-.33.009h-1V244h-1.09v-6h2.1c1.56 0 2.53.531 2.53 1.706 0 .821-.42 1.348-1.16 1.603l1.53 2.406v.281h-1l-1.58-2.506zm-1.33-.678h.97c.96 0 1.45-.289 1.45-1.054 0-.747-.52-1.045-1.45-1.045h-.97v2.099zM1090.62 238h3.9v.721h-2.92v1.869h2.13v.686h-2.13v2.02h3.02V244h-4v-6zM1095.62 238h2.92v.721h-2.19v1.869h1.6v.686h-1.6v2.02h2.27V244h-3v-6zM1099.62 238.285V238h.87l1.07 4.704h.02l1.18-4.704h.81l1.17 4.704h.02l1.07-4.704h.79v.285l-1.41 5.715h-.98l-1.09-4.523h-.02L1102 244h-.98l-1.4-5.715zM1106.62 243.719l2-5.719h1.01l1.99 5.719V244h-.89l-.57-1.682h-2.22l-.55 1.682h-.77v-.281zm1.54-2.084h1.77l-.87-2.649h-.02l-.88 2.649zM1113.65 244v-2.399l-2.03-3.303V238h.93l1.64 2.719h.01l1.59-2.719h.83v.298l-1.95 3.277V244h-1.02zM1098.62 221a5.001 5.001 0 0 0 0-10 5.001 5.001 0 0 0 0 10z" fill="#fff"/><path d="M1098.12 221c2.48 0 4.5-2.015 4.5-4.5s-2.02-4.5-4.5-4.5c-2.49 0-4.5 2.015-4.5 4.5s2.01 4.5 4.5 4.5z" fill="#fff"/><path d="M1094.09 217.116c.15.748.5 1.425.97 1.984.72-3.215 3.59-5.617 7.01-5.617-.06-.088-.14-.176-.21-.259a7.169 7.169 0 0 0-7.77 3.892z" fill="#0046B4"/><path d="M1096.46 220.204c.61.304 1.29.48 2.02.48 2.48 0 4.49-2.015 4.49-4.499a4.57 4.57 0 0 0-.64-2.323 7.203 7.203 0 0 0-5.87 6.342zM1099.64 212.586c.63 0 1.24.084 1.82.233a4.462 4.462 0 0 0-2.98-1.134 4.492 4.492 0 0 0-4.38 3.505 7.187 7.187 0 0 1 5.54-2.604z" fill="#46B400"/><path d="M1056.59 220.62c-.2-.505-2.86-1.203-4.69-1.708-3.3-.904-9.44-2.678-12.52-3.635-2.97-.922-6.34-2.103-9.15-3.442-1.29-.614-2.09-1.045-3.56-.728-1.4.298-2.49.684-3.76 1.242-.63.276-1.44.742-1.85 1.247-.37.461-.6 1.409-.75 1.958-.41 1.549-.62 2.853-.69 4.241-.09 2.085.86 3.613 2.88 4.447 2.65 1.097 5.92 1.471 8.75 1.905 3.08.474 6.18.751 9.29.834 1.71.044 3.33.053 4.97-.469 1.48-.475 2.65-1.05 4.05-1.708 1.47-.694 2.94-1.55 4.38-2.23.47-.229 2.95-1.208 2.65-1.954z" fill="#BAE2EE"/><path d="M1029.12 223.001c1.93 0 3.5-1.791 3.5-4s-1.57-4-3.5-4c-1.94 0-3.5 1.791-3.5 4s1.56 4 3.5 4zM1042.49 223.819a3.658 3.658 0 1 0-5.17-5.175 3.658 3.658 0 0 0 5.17 5.175z" fill="#fff"/><path d="M1021.65 220.829c.05.617.73 1.595 1.24 1.901 1.73 1.021 4.67 1.667 6.66 2.046 3.3.625 6.6.94 9.95 1.168 1.26.086 3.97.112 4.11-.22.09-.193-1.33-.254-2.92-.4-3.08-.285-6.24-.677-9.27-1.293-1.88-.383-4.9-1.215-6.69-2.163-.93-.487-1.43-1.12-1.44-1.866-.04-1.646.22-3.301.7-4.641.39-1.103 2.23-2.374 1.78-2.361-.56.017-1.72.763-2.54 1.357-.31.233-.61.634-.71.892-.48 1.353-1.04 3.538-.87 5.58z" fill="#fff"/><path d="M1143.24 222.729c1.41.658 2.85 1.493 4.29 2.168 1.36.64 2.51 1.197 3.95 1.654 1.6.5 3.18.479 4.84.418 3.03-.114 6.05-.418 9.04-.919 2.74-.461 5.93-.862 8.5-1.976 1.95-.848 2.86-2.372 2.75-4.439-.08-1.376-.3-2.664-.72-4.196-.15-.544-.38-1.48-.74-1.932-.4-.492-1.2-.949-1.82-1.215-1.24-.544-2.31-.914-3.67-1.197-1.43-.296-2.21.135-3.46.762-2.72 1.354-5.99 2.559-8.86 3.504-2.99.979-8.95 2.798-12.15 3.73-1.78.518-4.35 1.236-4.55 1.736-.29.74 2.14 1.685 2.6 1.902z" fill="#BAE2EE"/><path d="M1167.62 222.001c2.21 0 4-1.567 4-3.5s-1.79-3.5-4-3.5-4 1.567-4 3.5 1.79 3.5 4 3.5zM1159.41 223.221a3.658 3.658 0 0 0-5.17-5.175 3.676 3.676 0 0 0 0 5.175 3.653 3.653 0 0 0 5.17 0z" fill="#fff"/><path d="M1174.65 214.361c-.09-.275-.39-.701-.71-.944-.83-.624-2-1.403-2.57-1.417-.44-.009 1.41 1.321 1.82 2.494.49 1.417.77 3.178.75 4.929-.01.793-.5 1.472-1.42 1.999-1.79 1.027-4.81 1.949-6.69 2.375-3.03.688-6.19 1.137-9.28 1.476-1.6.175-3.02.253-2.93.459.15.348 2.86.293 4.13.188 3.35-.28 6.66-.656 9.96-1.353 1.99-.421 4.93-1.141 6.65-2.246.52-.33 1.19-1.38 1.23-2.031.15-2.178-.43-4.498-.94-5.929z" fill="#fff"/><path d="M1068.49 193.666c6.91-.298 22.93-.626 29.52-.661 6.6-.035 22.62.131 29.53.359.8.026 1.84.061 3.06.105l2.02 8.894c-8.41.731-19.74 1.335-35.01 1.637-15.27-.302-26.59-.906-34.99-1.633l2.42-8.544a1063 1063 0 0 1 3.45-.157z" fill="#5AC8F5"/><path opacity=".3" d="M1139.09 163.867l10.78 28.467 2.75 7.265c-2.91.769-7.51 1.628-14.8 2.401l-2.27-9.648-6.93-29.352c3.55.232 7.04.523 10.47.867zM1066.62 163.999l-6.87 28.509-2.28 9.491c-7.31-.761-11.93-1.601-14.85-2.357l2.76-7.152 10.62-27.497c3.49-.391 7.02-.721 10.62-.994z" fill="#fff"/></g><defs><filter id="filter0_d" x="0" y="0" width="1608" height="329" filterUnits="userSpaceOnUse" color-interpolation-filters="sRGB"><feFlood flood-opacity="0" result="BackgroundImageFix"/><feColorMatrix in="SourceAlpha" values="0 0 0 0 0 0 0 0 0 0 0 0 0 0 0 0 0 0 127 0"/><feOffset dy="2"/><feGaussianBlur stdDeviation="2"/><feColorMatrix values="0 0 0 0 0 0 0 0 0 0 0 0 0 0 0 0 0 0 0.08 0"/><feBlend in2="BackgroundImageFix" result="effect1_dropShadow"/><feBlend in="SourceGraphic" in2="effect1_dropShadow" result="shape"/></filter><linearGradient id="paint0_linear" x1="1136.39" y1="168.751" x2="1136.48" y2="178.275" gradientUnits="userSpaceOnUse"><stop stop-color="#7C3425"/><stop offset="1" stop-color="#60261D"/></linearGradient><linearGradient id="paint1_linear" x1="1083.82" y1="182.857" x2="1085.73" y2="194.976" gradientUnits="userSpaceOnUse"><stop stop-color="#7C3425"/><stop offset="1" stop-color="#60261D"/></linearGradient><linearGradient id="paint2_linear" x1="1089.83" y1="198.712" x2="1090.12" y2="206.164" gradientUnits="userSpaceOnUse"><stop stop-color="#D17462"/><stop offset="1" stop-color="#BA5F50"/></linearGradient><linearGradient id="paint3_linear" x1="1087.27" y1="203.331" x2="1082.31" y2="201.003" gradientUnits="userSpaceOnUse"><stop stop-color="#D17462"/><stop offset="1" stop-color="#BA5F50"/></linearGradient></defs></svg>