<svg width="375" height="180" fill="none" xmlns="http://www.w3.org/2000/svg" viewBox="0 0 375 180"><path fill="#F5FCFF" d="M0 0h375v180H0z"/><mask id="a" maskUnits="userSpaceOnUse" x="0" y="66" width="375" height="114"><path d="M375 66H0v114h375V66z" fill="#F5FCFF"/></mask><g mask="url(#a)"><path fill-rule="evenodd" clip-rule="evenodd" d="M341.207 69.054v13.878h6.774v-.035h.584V95.15h.483V73.612h2.641v-1.536h4.787v1.536h2.638v27.562h.599v-7.39h2.222V91.9h3.577v1.884h2.221v17.494h.778V99.8h2.145v-1.25h3.891v1.25h2.149v22.149h1.37v-9.471h.245v-1.729h1.425v-.556h2.587v.556h1.425v1.729h.387v6.09h.68v-9.776h.99v-4.225s2.25-.757 5.126-.807h.585c1.432.023 2.981.239 4.472.807v8.799h1.699v1.204h1.421v.046h.592v-.814h3.61v.814h1.991v2.871h.822v-.555h1.363v-12.304h4.94v12.778h5.444v11.532h2.017v3.415h.026v8.232h.979v-18.771h2.422v-6.222h2.825v18.544h.906v-13.793h1.107v-1.922h.607v-2.149h1.004v-1.471h2.423v1.471h1.008v2.149h.607v1.922h1.107v12.327h1.414v-4.411h3.928v7.124h.906v-3.732h4.034v5.09h4.231v5.766h2.923v3.022H93.616v-2.598h2.923v-4.955h4.234v-4.372h4.034v3.207h.91v-6.125h3.931v3.79h1.411v-10.59h1.111v-1.652h.606v-1.848h1.008v-1.262h2.423v1.262h1.005v1.848h.606v1.652h1.107v11.852h.907v-15.939h2.824v5.345h2.419v16.132h1.008v-10.011h2.017v-9.911h5.444v-10.979h4.94v16.517h2.185v-7.934h1.991v-.703h3.607v.703h1.991v11.512h1.721v-20.142c1.487-.49 3.04-.671 4.472-.694h.585c2.875.042 5.126.694 5.126.694v16.344h1.67v-9.544h2.06v-1.331h3.318v1.331h2.061v9.544h2.59v-25.957h2.448v-1.088h4.436v1.088h2.448v18.575h4.98v-5.778h.797v-10.25h1.337V94.66h1.52v-4.106l.011-.02h8.824l.014.02v4.102h1.517v8.602h1.333v10.254h.801v1.293h1.479v1.471h.625V97.701h5.989v5.631h3.423v9.659h2.825v-9.895h3.807v-2.717h1.849v-7.676h6.957V95.3h1.088v9.097h1.582V89.488c1.604-.594 3.278-.814 4.823-.84 3.398-.059 6.157.84 6.157.84v14.284c.219.007.438.015.647.03V91.7h.862V79.802h15.689V91.7h.863v1.679h.486v-9.656h2.638v-1.324h4.782v1.324h2.638v23.688h.6v-6.349h2.221v-1.617h.216V96.34h1.337V86.328h1.516V81.55l.011-.023h8.824l.011.023v4.778h1.516v10.01h1.334v11.93h.8v9.582h.815v-2.211h1.286V89.867h5.989v6.557h3.42v11.242h2.828V96.153h3.807v-3.16h1.849v-8.93h6.96v3.021h1.089v10.582h1.582V80.323c1.604-.691 3.278-.953 4.823-.98 3.394-.066 6.153.98 6.153.98V98.26h.647V82.896h.862V69.054h9.175z" fill="#A3DEF7" fill-opacity=".5"/><path d="M400.72 154.532v-14.531s-38.734-10.645-125.196-7.283c24.517-.237 71.499 2.481 125.196 21.815" fill="#00AA1D"/><path d="M222.439 135.213l-8.106.683-.025.003c78.134 4.767-82.444 91.344-82.444 91.344h90.575s81.158-93.103 0-92.031" fill="#fff"/><path d="M256.868 133.628l-34.428 1.584c81.159-1.072 0 92.031 0 92.031h178.279v-44.361c-24.77-29.606-95.496-52.097-143.851-49.254z" fill="#004EBB"/><path d="M214.31 135.898c78.133 4.767-82.444 99.799-82.444 99.799l-198.163-8.455 77.04-9.762s-63.406-1.013 6.268-3.643c78.252-13.562 154.204-73.258 197.299-77.939z" fill="#00AA1D"/><path d="M275.525 132.719a967.12 967.12 0 0 0-18.655.911 136.394 136.394 0 0 1 3.447-.153l.216-.007c48.238-1.54 116.029 20.536 140.188 49.414v-28.35c-53.697-19.333-100.679-22.052-125.196-21.815z" fill="#fff"/><path d="M-228.544 196.526l-6.686-32.923s42.662-23.599 126.553-28.78c43.955-4.435 154.603 12.67 154.58 18.421-.017 3.443-274.447 43.282-274.447 43.282z" fill="#00AA1D"/><path d="M211.737 177.62l-308.73 13.155-126.05-7.003s283.36-41.891 301.592-41.983c31.091-.16 51.293-12.613 87.656-13.836 19.994-.672 38.427 3.739 50.986 9.127l-5.454 40.54z" fill="#00AA1D"/><path d="M-105.621 232.107c0-19.062 1.196-42.102 29.528-53.65C-25.61 157.886 80.525 149.579 82 146.414c1.882-4.025-50.821-4.451-50.911-4.451 0 0 99.978-4.887 100.945 4.845.631 6.341-37.134 14.403-32.75 18.941 8.708 8.99 134.612 36.875 259.49 50.177l.492 16.016-464.887.165z" fill="#fff"/><path d="M53.481 142.692s74.306-2.069 70.849 6.561c-1.929 4.818-41.52 12.252-44.363 19.329-9.342 23.297 213.7 60.485 213.7 60.485l-15.787 3.97-319.096-1.019c-15.336-15.379-14.743-36.429-3.658-47.304 22.715-22.281 139.628-31.529 141.894-37.158 1.706-4.254-43.538-4.864-43.538-4.864z" fill="#0047B8"/><path d="M51.956 162.409c-.34-2.165 11.487-5.819 26.415-8.16 14.927-2.342 27.303-2.484 27.642-.319.339 2.165-11.487 5.819-26.415 8.16-14.927 2.342-27.303 2.485-27.642.319z" fill="#000" fill-opacity=".4"/><path d="M101.04 136.647c-.508 0-3.267.349-3.732.509 4.168-.131 7.348 4.361 7.348 8.809 0 4.449-1.568 9.057-7.057 9.13.479.145 2.948.276 3.456.276 3.616-.044 6.549-4.274 6.549-9.449 0-5.176-2.933-9.319-6.564-9.275z" fill="#00699B"/><path d="M98.109 136.691c.508 0 3.02-.189 3.5-.043-4.168-.015-7.102 5.015-7.102 9.449 0 4.448 1.627 9.333 7.116 9.26-.479.16-2.992.044-3.5.044-3.616.044-6.564-4.1-6.564-9.275 0-5.161 2.934-9.391 6.55-9.435z" fill="#00699B"/><path d="M101.071 155.429c3.863-.058 7.014-4.332 7.014-9.551s-3.151-9.406-7.029-9.362c-3.863.058-7.014 4.332-7.014 9.551s3.151 9.42 7.029 9.362zm-.087-17.445c3.093-.043 5.605 3.475 5.605 7.821 0 4.362-2.512 7.938-5.605 7.981-3.094.044-5.606-3.474-5.606-7.821.014-4.361 2.527-7.937 5.606-7.981z" fill="#0094DA"/><path d="M107.111 146.112c0-4.478-2.701-8.127-6.012-8.127-3.31 0-5.998 3.649-5.998 8.127 0 4.477 2.687 8.126 5.998 8.126 3.311 0 6.012-3.649 6.012-8.126zm-1.045 0c0 3.925-2.222 7.109-4.967 7.109-2.73 0-4.967-3.199-4.967-7.109 0-3.925 2.222-7.109 4.967-7.109 2.745 0 4.967 3.184 4.967 7.109z" fill="#12BAED"/><path d="M84.023 142.855l-.828 2.863 17.31 2.37a2.254 2.254 0 0 0 1.278-.247c.625-.32 1.06-.901 1.249-1.643.189-.756.087-1.584-.29-2.34-.567-1.12-1.656-1.817-2.76-1.788l-15.96.785zm-.509-.669l16.44-.814c1.321-.044 2.686.77 3.398 2.166.958 1.861.406 4.056-1.235 4.913a3.058 3.058 0 0 1-1.06.32c-.203.015-.392.029-.595 0L82.323 146.3l1.191-4.114z" fill="#00699B"/><path d="M96.832 138.334l-1.031-2.021-.073-.16 3.965 7.967-17.558 2.456.146.8 19.155-2.457-4.197-8.911" fill="#00699B"/><path d="M97.02 145.821c.072 2.646 1.655 4.724 3.543 4.666 1.888-.058 3.355-2.209 3.282-4.826-.073-2.602-1.655-4.71-3.543-4.681-1.874.029-3.355 2.195-3.282 4.841z" fill="#00699B"/><path d="M97.614 145.807c.058 2.224 1.365 3.983 2.933 3.925 1.568-.058 2.774-1.875 2.716-4.07-.058-2.196-1.38-3.969-2.934-3.94-1.568.029-2.774 1.861-2.715 4.085z" stroke="#04BAEE" stroke-width="2.657" stroke-miterlimit="10"/><path d="M59.915 147.115l6.578-16.326-1.438-.857-6.97 18.2 1.83-1.017z" fill="#0094DA"/><path d="M61.643 140.676l-3.021 7.617-.523-.072 3.224-9.188.32 1.643z" fill="#04BAEE"/><path d="M61.003 139.293l2.237.64.407-1.149-2.237-.639-.407 1.148z" fill="#0094DA"/><path d="M85.78 131.864s-7.262-4.114-8.525-2.573c-3.166 3.896-.871 7.835-.871 7.835l5.242 1.294 4.284-6.425-.13-.131z" fill="#626E97"/><path d="M68.541 117.327l-2.817-.48c-1.002-.174-1.946.465-2.12 1.425-.175.959.479 1.875 1.48 2.035l3.021.523c.247-.261.436-.567.567-.901a3.08 3.08 0 0 0-.13-2.602z" fill="#796188"/><path d="M68.612 117.414c1.148.683 2.295 1.352 3.442 2.021 1.569-.974 3.137-1.919 4.706-2.864.784-.48 1.48.116 1.553 1.294.058 1.192-.522 2.529-1.321 3.009a326.952 326.952 0 0 0-5.228 3.213c-.276.174-.552.218-.784.145-.058-.015-.102-.044-.146-.058-1.336-.756-2.657-1.512-3.993-2.268.828-1.149 1.597-2.937 1.772-4.492z" fill="#796188"/><path d="M84.616 134.059c-.29-.741-.073-1.57.537-2.107a646.5 646.5 0 0 1 5.025-4.231l1.481-1.221c.843-.683 2.12-.596 2.89.189.755.785.697 1.977-.145 2.675l-1.96 1.614c-1.177.974-2.338 1.962-3.515 2.951.421 2.645.857 5.291 1.278 7.922-1.321.364-.973.16-2.338.422-1.09-2.704-2.164-5.451-3.253-8.214z" fill="#455B8C"/><path d="M89.496 143.857s.523 2.137.29 2.617c-.218.48-2.86 2.53-4.98 2.631-2.121.102-1.279-1.875-.364-2.965.915-1.091.436-.495.436-.495-.32-.959-.64-1.933-.959-2.892 1.54-.582 3.093-1.149 4.633-1.716.32.945.639 1.89.944 2.82z" fill="#fff"/><path d="M74.99 122.168c1.612-1.991 3.18-4.027 4.98-5.829-.42 1.047.291 2.326 1.003 3.067-1.569 2.108-2.585 3.954-4.343 6.135-.45-.959-1.089-2.108-1.64-3.373z" fill="#796188"/><path d="M79.969 116.339a27.96 27.96 0 0 1 1.525-1.425c.77.145 1.64.436 2.44 1.032-.988.916-2.237 2.486-3.036 3.562-.711-.742-1.38-1.919-.929-3.169z" fill="#6C567C"/><path d="M80.534 114.799c.29.014.61.043.958.102-2.483 2.122-4.458 4.724-6.506 7.254-.508-1.178-.915-2.472-.987-3.838 2.076.436 5.446-1.759 6.535-3.518z" fill="#796188"/><path d="M79.46 114.841s.436-.072 1.09-.043c-1.35 2.137-3.805 4.128-6.52 3.532-.015-.189-.015-.363-.015-.552.029-2.268 2.614-2.718 5.446-2.937z" fill="#F7C6A5"/><path d="M77.124 126.82c-.087-.378-.32-.887-.537-1.352 2.643-3.3 4.415-6.789 7.334-9.522.958.727 1.815 1.876 2.221 3.736.712 3.257 1.99 6.019 2.12 8.17-3.354.291-7.667 1.018-10.165 1.265a8.45 8.45 0 0 1-.973-2.297z" fill="#796188"/><path d="M88.277 127.837c.058.887-.087 1.672-.523 2.341-.378.567-1.888.901-2.614 1.337-1.626.974-3.195.843-4.516.087-1.002-.567-1.874-1.482-2.498-2.515a37.31 37.31 0 0 1 10.15-1.25z" fill="#626E97"/><path d="M79.739 128.71c.348-.073.711-.145 1.06-.218 0-.014-.668-2.181-1.946-5.262-1.249-3.024-1.51-5.147-1.54-5.365-.334.175-.784.262-1.118.436.015.088.305 2.195 1.598 5.379 1.263 3.097 1.931 5.016 1.946 5.03z" fill="#6C567C"/><path d="M84.56 134.219a994.18 994.18 0 0 1 17.238-2.151 1.905 1.905 0 0 1 2.106 1.657 1.915 1.915 0 0 1-1.67 2.108c-3.37.421-6.753.858-10.122 1.308-.871 1.076-1.496 2.733-1.307 5.234.523 6.672-.596 6.004-3.035 6.541-2.44.538-10.558 1.556-11.43 1.454-.856-.116-4.298.858-4.763-.712-.464-1.512-9.613-16.122-9.613-16.166 6.026.495 16.555.233 22.596.727zm-10.95 10.118l1.525-6.803-5.925.363 4.4 6.44z" fill="#00699B"/><path d="M79.156 106.277s1.365.945 1.844 2.559c.48 1.614.668 4.666.015 5.495-.654.829-6.55 3.823-7.77 3.46-1.205-.378-1.931-1.367-2.076-1.904-.146-.538-.087-1.018-.087-1.018s-.364-1.381-.393-2.791c-.014-1.41.131-1.701.131-1.701s.247-2.53 2.222-4.012c2.716-2.021 6.114-.088 6.114-.088z" fill="#27365C"/><path d="M74 117.777c-.319.058-.58.073-.74.029-1.205-.378-1.931-1.366-2.076-1.904-.146-.538-.087-1.018-.087-1.018s-.364-1.381-.393-2.791c-.014-1.41.131-1.701.131-1.701s.247-2.529 2.222-4.012c.813-.611 1.685-.858 2.512-.916-1.089.625-2.454 1.744-2.802 3.46-.61 2.994-.044 5.844.682 7.574.247.596.421 1.003.552 1.279z" fill="#314474"/><path d="M70.838 110.393s0-.058.015-.145c.74.014 2.033-.015 3.834-.32 2.207-.378 3.194-.683 3.616-.843 1.263.363 2.105 1.774 1.205 3.111-.523.698-.74 1.061-2.222 1.672-1.394.654-4.284 2.151-6.216 1.105v-.088s-.363-1.381-.392-2.791c0-1.395.16-1.701.16-1.701z" fill="#D0E2E5"/><path d="M88.422 146.912a.797.797 0 0 0 .247 1.09.796.796 0 0 0 1.09-.247l.87-1.367a.798.798 0 0 0-.246-1.09.797.797 0 0 0-1.09.247l-.87 1.367z" fill="#04BAEE"/><path d="M78.054 152.814c4.995-1.017 10.95-3.242 11.022-3.271l-.406-1.235c-.058.029-5.911 2.224-10.82 3.213-1.089.218-2.512-.219-3.296-1.541-.813-1.396-1.757-3.591-2.266-5.03-.45-1.251-.464-1.788-.435-1.963l1.205-.669-.58-1.148-1.293.712a.871.871 0 0 0-.421.436c-.29.596-.175 1.57.377 3.082.552 1.556 1.51 3.78 2.382 5.248 1.292 2.297 3.398 2.399 4.53 2.166z" fill="#5BC4F1"/><path d="M72.446 148.671c.857 1.294 1.25 2.355 2.716 3.256 1.467.902 2.962.189 5.881-.538 2.687-.668 7.116-2.267 7.799-2.515l.218.669c-.059.029-6.027 2.253-11.023 3.271-1.118.233-3.238.131-4.574-2.151a25.259 25.259 0 0 1-1.017-1.992zM87.842 147.913l.726-.552 14.551-5.568-1.045 4.841-12.751 3.998-.987-.102c-.247.044-.552-.494-.683-1.221-.145-.727-.058-1.352.189-1.396z" fill="#04BAEE"/><path d="M102.916 142.331l-14.26 5.466s-.103.393.014.611l13.505-4.434.741-1.643z" fill="#5BC4F1"/><path d="M102.03 144.061c-.305 1.337-.291 2.486.043 2.573.334.087.871-.93 1.176-2.268.305-1.337.291-2.486-.043-2.573-.044-.014-.087 0-.131.015-.348.16-.784 1.075-1.045 2.253z" fill="#00699B"/><path d="M74.987 145.617s.596-.059 1.975-.437c1.293-.363 1.83-.668 1.83-.668.407-.262.625-.553.523-.843l-1.554-4.274c-.218-.64-.435-.844-.857-.727 0 0-1.336.203-2.817.639-1.554.451-2.338.771-2.338.771-.683.305-.552.77-.392 1.09l2.178 4.143c.233.48.799.364 1.452.306z" fill="#04BAEE"/><path d="M76.747 138.829c.189-.102.406-.131.624-.131.146.102.276.32.392.669l1.554 4.274a.42.42 0 0 1 .015.189c-1.569 1.744-2.251-1.323-3.239-3.358-.668-1.425.088-1.323.654-1.643z" fill="#5BC4F1"/><path d="M77.6 138.987c.044.088.088.204.146.32l-6.332 1.934-.058-.102a49.512 49.512 0 0 0-.087-.218l6.332-1.934zM77.978 139.963l-6.245 1.905-.16-.306 6.288-1.933.117.334zM78.213 140.616l-6.143 1.875-.174-.305 6.2-1.905.117.335zM78.459 141.272l-6.07 1.846-.16-.305 6.114-1.875.116.334zM78.691 141.911l-5.968 1.831-.16-.305 6.012-1.846.116.32zM78.938 142.564l-5.882 1.803-.174-.306 5.925-1.817.13.32zM79.173 143.219l-5.794 1.774-.16-.305 5.838-1.789.116.32zM79.288 143.553l.043.101c.03.088.03.16.015.248l-5.504 1.686a.66.66 0 0 1-.29-.276l5.736-1.759z" fill="#00699B"/><path d="M72.04 126.267a.567.567 0 0 0 .64-.32c.624-1.41 1.495-2.282 2.613-2.631 1.54-.465 3.036.247 3.05.247.276.131.61.014.755-.247a.541.541 0 0 0-.247-.742c-.072-.043-1.902-.916-3.877-.319-1.438.436-2.556 1.54-3.326 3.256a.538.538 0 0 0 .392.756z" fill="#5BC4F1"/><path d="M76.935 122.619c-.13.596.247 1.178.842 1.308l4.546.974a1.126 1.126 0 0 0 1.336-.843 1.097 1.097 0 0 0-.843-1.308l-4.545-.974a1.119 1.119 0 0 0-1.336.843z" fill="#00699B"/><path d="M68.745 123.942c-.233-.073-.349-.291-.247-.509.566-1.25.566-2.253-.03-2.965-.813-1.004-2.483-1.163-2.497-1.163-.305-.03-.48-.262-.378-.509.102-.247.436-.436.74-.407.088.014 2.136.203 3.181 1.483.77.944.799 2.18.102 3.707-.116.247-.45.421-.755.377-.044 0-.087 0-.116-.014z" fill="#5BC4F1"/><path d="M67.8 119.058c-.144.45-.696.726-1.234.61l-4.008-.901c-.537-.116-.842-.582-.697-1.047.146-.45.697-.727 1.235-.61l4.008.901c.537.116.842.581.697 1.047z" fill="#00699B"/><path d="M91.803 136.11c.335-.509.988-1.105 2.745-2.108 1.598-.916 3.834-1.73 6.564-1.585 1.83.102 3.573.422 4.851.974 1.626.698 2.483 1.788 1.786 3.3-.189.393-.378.64-.595.829 0 0-.305.247-.727.363-1.132.306-3.499-1.366-5.881-1.453-2.135-.073-4.734 1.206-5.112 1.337-.45.16-.915.291-1.365.465-.712.276-1.743 1.105-2.309.16-.465-.799-.189-1.919.043-2.282zM55.69 137.767s8.626-2.21 12.692 3.823c0 0 .857 2.239 2.352 1.759 1.496-.479.581-3.678.088-4.782-.872-1.934-5.083-4.129-8.54-4.332-3.456-.219-7.45 1.264-8.539 2.006-1.089.741-.42 2.369 1.946 1.526z" fill="#5BC4F1"/><path d="M66.348 118.112c-.116.712-.871 1.235-1.684 1.163l-1.685-.16c-.813-.073-1.38-.712-1.263-1.425.116-.712.87-1.235 1.684-1.163l1.685.16c.813.073 1.38.712 1.263 1.425z" fill="#F7C6A5"/><path d="M86.403 141.968s4.038-.858 4.168 1.628c.117 2.443.117 4.274-4.284 4.594-4.4.32-5.954-.465-6.607-1.352-.363-.494-1.06-2.079 1.321-3.184 2.483-1.148 3.34-1.264 5.402-1.686z" fill="#04BAEE"/><path d="M80.13 145.08a1.196 1.196 0 0 1 .174-1.047 6.2 6.2 0 0 1 .712-.407c2.469-1.149 3.326-1.25 5.388-1.686 0 0 1.336-.277 2.541-.044.654.669.64 1.352.552 1.904-.261 1.585-.247 2.719-4.008 2.966-2.57.189-4.85-.189-5.359-1.686z" fill="#5BC4F1"/><path d="M89.249 139.395s-.044 1.933-.334 2.384c-.29.451-.189.48-2.934.916-1.626.262-2.541.218-3.194.029a1.23 1.23 0 0 1-.785-.683l-.958-2.152c-.247-.552.072-1.192.682-1.41a17.457 17.457 0 0 1 3.936-.814c3.093-.247 3.616-.567 3.587 1.73z" fill="#5BC4F1"/><path d="M81.815 139.526c.799-.843 5.33-1.366 6.39-1.192 1.06.175 1.016 1.861 1.016 1.861-.043.596-.13 1.323-.29 1.585-.29.45-.189.479-2.933.915-1.627.262-2.542.219-3.195.03a1.231 1.231 0 0 1-.785-.684l-.537-1.235c-.058-.437 0-.931.334-1.28zM81.987 135.049s-3.515 2.093-6.535 2.442c-3.021.334-5.882.131-6.826-.698-.944-.828-1.99-3.547-1.234-5.102.755-1.556 1.873-2.733 5.024-2.486 3.152.247 6.942 1.366 8.99 2.864 2.062 1.482 1.495 2.485.58 2.98z" fill="#04BAEE"/><path d="M102.103 128.507l-8.176 1.411a2.386 2.386 0 0 0-.45.087l-10.514 2.747a1.94 1.94 0 0 0-.799.509l-.45.48c-.9.959-.45 2.457.842 2.791l1.54.407c.217.058.464.073.697.044l10.746-1.236c.087-.015.189-.029.276-.058l6.07-2.53a1.83 1.83 0 0 0 .872-.508l.958-1.018c.566-.596.639-1.497.145-2.152l-.188-.247a1.765 1.765 0 0 0-1.569-.727z" fill="#5BC4F1"/><path d="M104.093 130.878s.334-.233.726.072c.305.233.29.698.044 1.018-.247.32-1.046 1.149-1.351 1.454-.305.305-.349.32-1.699.901-1.38.596-4.85 2.108-5.504 2.282-.653.16-.407.219-1.931.422-1.525.204-3.878.509-3.878.509l-.13-.901 12.329-4.594 1.394-1.163z" fill="#00699B"/><path d="M81.25 134.977a.405.405 0 0 1 .392-.421c.944-.059 2.222.159 3.15.305 1.816.276 7.32-.713 11.372-1.89 7.305-2.108 5.359-2.195 6.186-2.777.131-.087.61-.392.755-.886.102-.335.073-.596.334-.364.088.087.335.364.436.523.596.96.334 1.643-.377 2.385l-.741.785a1.823 1.823 0 0 1-.871.508s-6.288 2.559-6.405 2.588c-1.38.363-10.6 1.221-10.6 1.221-.291.029-.582.015-.858-.058l-1.466-.378a1.7 1.7 0 0 1-1.308-1.541z" fill="#04BAEE"/><path d="M68.133 136.183c-.755-1.163-1.35-3.213-.726-4.493.755-1.555 1.99-3.866 6.55-2.718 12.314 3.082 5.198 2.66 7.246 4.158.203.16.392.305.537.436 0 0-10.18-4.202-12.547-2.108-2.382 2.093-1.06 4.725-1.06 4.725z" fill="#5BC4F1"/><path d="M73.479 123.985c-.218.524-.668.858-1.002.771l-5.272-1.483c-.334-.102-.436-.596-.218-1.105.218-.523.668-.858 1.002-.77l5.272 1.482c.334.088.436.582.218 1.105z" fill="#0094DA"/><path d="M90.498 143.248s.872.582.48 1.323c-.494.916-1.206 1.905-2.484 3.344-.77.858-1.553 1.555-2.134 1.555-.407 0-.698-.392-.857-.974-.16-.596-.189-1.395-.073-2.18.813-2.006 2.701-2.719 3.442-4.434l1.626 1.366z" fill="#27365C"/><path d="M77.587 138.943c1.249-3.082 4.473-9.129 4.473-9.129l4.952-1.134c.276 4.216-3.093 8.853-6.985 11.077 2.585-.261 5.635.175 7.697 2.137-.117.204-.378 1.788-1.54 3.184-2.89-1.309-9.352-4.26-8.597-6.135z" fill="#626E97"/><path d="M80.029 139.76c3.892-2.224 7.246-6.876 6.985-11.078l.784-.174s1.002 1.09 0 3.242c-1.002 2.151-4.894 7.283-4.894 7.283l4.996 2.399.958.465s.392 2.035-.276 2.704c-.668.668-2.643 1.177-2.643 1.177s1.656-3.663 1.772-3.867c-2.048-1.977-5.097-2.413-7.682-2.151z" fill="#495584"/><path d="M91.95 124.582c-.77-.146-1.554-.306-2.323-.451.232-.799.479-1.599.711-2.399.538.945 1.075 1.905 1.612 2.85z" fill="#3D507B"/><path d="M95.654 109.622s-.015 3.794 1.089 3.998c1.089.218 1.568-1.09 3.195-.698 1.626.393 2.192.814 2.076 1.352-.13.538-1.234-.072-1.496.175-.261.247 2.237.494 2.193 1.613-.043 1.134-2.381-.538-2.585.276-.203.815.392.96-.174 1.672-.566.713-10.848-.552-10.819-3.242.03-2.66-.058-7.792-.058-7.792s.407-.799 1.336-1.279c.77-.392 1.917-.567 3.485.102 1.51.683 1.758 3.823 1.758 3.823z" fill="#63413F"/><path d="M89.135 116.526c.088-.044.175-.087.247-.116.218-.102.421-.204.625-.291 2.12-.916 3.645-1.018 4.748-.829l.218.044c1.583.378 2.135 1.395 2.135 1.395s-.668 6.44-.712 8.606c0 .277.073.786.175 1.28.61.814.9 1.962.508 2.791-.74 1.585-2.077 1.628-2.077 1.614-1.074 1.628-2.149 3.27-3.238 4.928 1.728 1.046 3.02 2.224 4.749 3.242-.552 1.032-.247 1.482-.799 2.529-2.222-1.221-4.85-2.006-7.072-3.242-.509-.305-1.423-.828-1.583-1.788-.102-.596.029-1.555.377-2.064 1.06-1.57 2.106-3.126 3.166-4.681.102-.146.203-.291.29-.436 0 0 .146-1.454.219-1.803.334-1.832.464-1.919.188-3.823-.218-1.512-3.064-2.341-3.195-3.344-.29-2.239 1.031-4.012 1.031-4.012z" fill="#455B8C"/><path d="M90.442 133.841s.494-.742.77-1.163c.406-.64.842-1.294 1.278-1.992.537-.843.93-1.439 1.234-1.875.755-1.09.799-1.163.77-2.021-.044-1.381.029-2.151.029-2.398l.799.087c0 .058-.073.945-.03 2.297.044 1.119-.145 1.381-.914 2.5-.29.422-.697 1.018-1.22 1.846-.436.698-.871 1.352-1.293 1.992-.232.363-.493.756-.726 1.134-.392.596-.784 1.265-.726 1.439.116.407 3.732 2.646 5.286 3.489-.145.233-.16.087-.305.32-.828-.451-5.49-2.631-5.765-3.562-.073-.247-.044-.523.087-.857.145-.335.392-.742.726-1.236z" fill="#626E97"/><path d="M94.203 141.43c.552-.902 1.104-1.788 1.656-2.675.566.334 1.118.654 1.684.988 0 0 1.176.829 1.263 1.134.03.117-.014.814-.493 1.832-.247.509-.567 1.032-.988 1.367-1.06.886-1.452-.378-1.437-1.251 0-.203 0-.334.014-.421-.566-.32-1.133-.64-1.699-.974z" fill="#BF69A9"/><path d="M94.491 114.77c.058.712.116 1.424.189 2.137.073.799-.726 1.482-1.757 1.526-1.046.058-1.946-.552-2.019-1.352-.043-.582-.101-1.178-.145-1.759 1.307.741 2.846.8 3.732-.552z" fill="#455B8C"/><path d="M90.759 115.322c-.073-.931-.16-1.847-.232-2.777-.073-.8.726-1.483 1.757-1.526 1.045-.03 1.946.581 2.004 1.381.073.785.13 1.57.203 2.369-.886 1.352-2.425 1.294-3.732.553z" fill="#F7C6A5"/><path d="M88.697 110.669c.204 2.427 2.135 4.288 3.413 4.259 1.685-.043 2.875-2.064 2.672-4.463-.203-2.399-1.728-4.317-3.413-4.274-1.684.029-2.875 2.035-2.672 4.478z" fill="#A9A9A9"/><path d="M105.964 111.439c.218-.814 1.089-1.279 1.961-1.017.871.261 1.408 1.119 1.191 1.933a27.184 27.184 0 0 1-.828 2.544c-1.104-.218-2.091-.756-2.948-1.497.276-.713.479-1.381.624-1.963z" fill="#F7C6A5"/><path d="M95.522 115.917c.711-.494 1.728-.32 2.265.407.305.392 1.946 2.253 4.604 1.047 1.524-.698 2.454-2.544 3.325-4.914.842.741 1.844 1.265 2.963 1.483-.93 2.471-2.193 5.088-4.793 6.28-1.51.698-2.919.829-4.138.625-2.164-.334-3.776-1.686-4.531-2.689-.552-.742-.407-1.745.305-2.239z" fill="#BF69A9"/><path d="M98.02 119.159s.42 3.605.218 4.157c-.204.538-1.874 1.323-1.874 1.323-.857-.087-1.714-.16-2.556-.247 0 0-.435-4.492.116-6.89.552-2.399.567-3.126.567-3.126.32.073.639.145.973.218 0 .189-.015.378-.015.552 0 0 .465.16 1.365.945.886.771 1.206 3.068 1.206 3.068zM90.02 115.088s.13.538.45 2.21.218 7.036.218 7.036l-1.133-.436s-.436-.015-.363-.858c.058-.843-1.496-2.471-1.38-3.823.117-1.352-.029-2.835.29-3.096.335-.262 1.235-.567 1.235-.567-.072-.262-.145-.524-.203-.785.29.087.595.203.886.319z" fill="#BF69A9"/><path d="M97.105 124.248c-1.118-.131-2.222-.247-3.34-.378 0 .364-.014.712-.014 1.076 0 0 3.165.378 3.165.363 0 0 .16-.203.247-.45.044-.189.058-.407-.058-.611zM90.701 123.448l.087 1.163c-.523-.175-1.06-.334-1.583-.509 0 0-.13-.334-.13-.654 0-.334.116-.422.116-.422.493.146 1.002.291 1.51.422z" fill="#ECA5E1"/><path d="M98.063 120.366s-1.104-.494-1.67-1.032l-.552-.538s.247.974 1.104 1.73c.842.756 1.292.828 1.292.828-.058-.334-.116-.668-.174-.988z" fill="#9C5789"/><path d="M97.252 135.673l-1.365.48.93 2.238 1.466-.203-1.03-2.515z" fill="#00699B"/><path d="M88.596 144.57c-.668.655-2.773 1.018-2.773 1.018s1.786-3.489 1.902-3.692c-.014-.015 1.075 1.25 1.263 1.148 0 0 .262.872-.392 1.526z" fill="#626E97"/><path d="M56.966 149.267c-.203 3.125 1.307 5.8 3.37 5.975 2.062.174 3.877-2.224 4.08-5.35.204-3.126-1.307-5.8-3.369-5.975-2.062-.174-3.892 2.224-4.08 5.35z" fill="#00699B"/><path d="M62.152 137.694c-.653-.058-2.817-.073-3.441.073 5.373.349 7.682 6.629 7.304 12.356-.377 5.728-2.687 11.296-9.744 10.714.595.248 3.66.902 4.313.96 4.662.378 8.786-4.71 9.221-11.354.436-6.658-2.991-12.371-7.653-12.749z" fill="#00699B"/><path d="M58.376 137.374c.654-.043 3.907.117 4.502.364-5.359-.524-9.556 5.582-9.933 11.295-.378 5.728 1.307 12.226 8.364 12.808-.624.145-3.862-.218-4.501-.364-5.94-1.453-8.09-6.091-7.654-12.749.422-6.644 4.197-11.005 9.222-11.354z" fill="#00699B"/><path d="M68.586 149.383c0-5.699-3.37-10.336-7.493-10.336-4.14 0-7.494 4.637-7.494 10.336 0 5.699 3.37 10.336 7.494 10.336 4.138.015 7.493-4.623 7.493-10.336zm-1.293 0c0 4.986-2.773 9.057-6.2 9.057-3.413 0-6.202-4.056-6.202-9.057 0-4.986 2.774-9.057 6.202-9.057 3.412.015 6.2 4.071 6.2 9.057z" fill="#12BAED"/><path d="M60.6 161.883c4.98.407 9.38-4.724 9.816-11.44.436-6.717-3.267-12.503-8.234-12.91-4.98-.407-9.381 4.725-9.817 11.441-.45 6.702 3.253 12.502 8.234 12.909zm1.263-22.562c3.95.32 6.854 5.118 6.506 10.685-.363 5.568-3.863 9.828-7.813 9.508-3.95-.32-6.855-5.117-6.506-10.685.363-5.568 3.863-9.827 7.813-9.508z" fill="#0094DA"/><path d="M58.29 149.425c-.132 2.05.958 3.809 2.453 3.925 1.482.117 2.803-1.439 2.934-3.489.13-2.049-.959-3.808-2.454-3.925-1.496-.131-2.803 1.44-2.934 3.489z" stroke="#04BAEE" stroke-width="2.929" stroke-miterlimit="10"/><path d="M59.884 149.484c.102 1.134.727 1.962 1.365 1.846.654-.102 1.09-1.105.973-2.224-.101-1.12-.726-1.948-1.365-1.847-.653.088-1.089 1.091-.973 2.225z" fill="#04BAEE"/><path d="M62.197 149.324l8.117-19.204-1.38-1.047-8.277 19.626 1.54.625z" fill="#0094DA"/><path d="M65.623 138.493l-4.415 10.423-.551-.218 4.385-10.394.581.189z" fill="#04BAEE"/><path d="M64.78 138.233l2.192.814.523-1.352-2.193-.814-.523 1.352z" fill="#0094DA"/><path d="M71.46 123.841l-3.617-.698c-1.118-.218-2.41.494-2.875 1.599l-1.54 3.634c-.464 1.105 1.54 2.559 1.525 2.602 0 0 2.876.436 2.876.393l.406.073c1.118.218 2.411-.495 2.876-1.6l1.54-3.634c.464-1.09-.073-2.151-1.192-2.369z" fill="#00699B"/><path d="M65.596 129.567c-1.59-.764-2.182-2.839-1.321-4.634.861-1.795 2.848-2.63 4.439-1.865 1.59.764 2.182 2.839 1.32 4.634-.86 1.795-2.848 2.63-4.438 1.865z" fill="#0094DA"/><path d="M65.347 128.812c-1.337-.643-1.785-2.49-1-4.125.784-1.636 2.504-2.441 3.842-1.798 1.337.643 1.785 2.491 1 4.126-.784 1.636-2.504 2.44-3.842 1.797z" fill="#00699B"/><path d="M65.059 128.155c-1.056-.508-1.362-2.063-.685-3.474.677-1.412 2.081-2.144 3.137-1.637 1.055.508 1.362 2.063.685 3.474s-2.082 2.144-3.137 1.637z" fill="#5BC4F1"/><path d="M80.782 114.871a2.232 2.232 0 0 1 2.542-.582 857.935 857.935 0 0 0 7.726 3.097 2.431 2.431 0 0 1 1.51 1.962 2.27 2.27 0 0 1-1.075 2.166 679.084 679.084 0 0 0-4.08 2.457c-.247-1.09-1.424-1.715-2.063-2.486a4.803 4.803 0 0 0-1.48-.843c.377-.232.769-.465 1.146-.698-.87-.348-1.742-.683-2.614-1.032 1.017-.683 2.033-1.497 3.05-2.093-1.684-.189-3.326-.931-4.662-1.948z" fill="#796188"/><path d="M80.347 115.598c.102-.276.247-.523.436-.727.45.102 3.035.989 4.647 1.948-1.002.611-2.033 1.41-3.05 2.093-.218-.087-.436-.174-.668-.261-1.19-.465-1.8-1.846-1.365-3.053z" fill="#796188"/><path d="M88.538 118.593l-3.66 1.308-1.045-.407 4.705-.901z" fill="#6C567C"/><path d="M82.773 121.31c.363-.218.711-.436 1.074-.654a4.974 4.974 0 0 1 1.482.843c.624.771 1.815 1.411 2.062 2.486-.727.436-1.453.887-2.179 1.338a2.275 2.275 0 0 1-1.423.334 2.346 2.346 0 0 1-1.772-1.119c-.668-1.12-.334-2.559.756-3.228z" fill="#F7C6A5"/><path d="M88.482 106.51s-1.016.945-1.19 2.356c-.175 1.41.115 3.997.784 4.622.682.625 6.128 2.355 7.1 1.89.974-.479 1.439-1.381 1.482-1.846.044-.465-.072-.843-.072-.843s.116-1.178-.073-2.341c-.189-1.148-.363-1.381-.363-1.381s-.567-2.035-2.469-3.053c-2.57-1.366-5.199.596-5.199.596z" fill="#27365C"/><path d="M96.715 112.53s.551.175.61.756c.057.582-.814 2.035-1.22 2.253-.407.219-.727.393-1.54.117-.799-.276-2.352-.611-2.352-.611s1.888.247 2.178-.058c.305-.305 0-1.686 0-1.686s.944.043 1.655-.087c.538-.117.915-.306.668-.684z" fill="#C7C6C6"/><path d="M96.12 108.852c.028.072.043.116.043.116s.174.218.363 1.381c.189 1.148.29 2.181.29 2.181s.117.334-.13.45c-.857.422-2.12.364-3.282.175-.087-1.352-.03-2.733.014-4.1 1.25 0 2.164-.116 2.701-.203z" fill="#D0E2E5"/><path d="M89.877 109.738c.364-.553 1.104-.901 2.092-.727.261.015.537.029.842.029h.58c.16.8.204 2.69-.014 4.1-.798-.131-1.54-.32-2.076-.48-.697-.334-1.148-.756-1.409-1.192-.349-.611-.32-1.25-.015-1.73z" fill="#D0E2E5"/><path d="M92.778 105.349s2.381.567 3.804 1.468c1.424.916 1.482 1.541 1.09 2.035-.378.494-3.936.233-4.865.189-.93-.043-.93-.029-.93-.029s2.73-.291 2.12-1.061c-.624-.771-1.67-1.41-2.686-1.687-1.017-.276-2.15-.159-2.15-.159s.45-.277 1.162-.495a5.643 5.643 0 0 1 2.455-.261z" fill="#C7C6C6"/><path d="M96.715 112.53s.551.175.61.756c.057.582-.814 2.035-1.22 2.253-.407.219-.727.393-1.54.117-.799-.276-2.352-.611-2.352-.611s1.888.247 2.178-.058c.305-.305 0-1.686 0-1.686s.944.043 1.655-.087c.538-.117.915-.306.668-.684zM92.778 105.349s2.381.567 3.804 1.468c1.424.916 1.482 1.541 1.09 2.035-.378.494-3.936.233-4.865.189-.93-.043-.93-.029-.93-.029s2.73-.291 2.12-1.061c-.624-.771-1.67-1.41-2.686-1.687-1.017-.276-2.15-.159-2.15-.159s.45-.277 1.162-.495a5.643 5.643 0 0 1 2.455-.261z" fill="#314474"/><path d="M303.729 160.588c25.009 0 45.282-1.577 45.282-3.522 0-1.945-20.273-3.522-45.282-3.522-25.008 0-45.281 1.577-45.281 3.522 0 1.945 20.273 3.522 45.281 3.522z" fill="#0032A5"/><path opacity=".7" d="M335.426 116.474v-2.777l-5.457-10.069-2.183-2.743-4.212-1.176h-39.853l-3.914.951-1.764 1.176-3.528 5.992-2.986 5.822.506 3.165 63.391-.341z" fill="#5BC4F1"/><path d="M286.211 113.797h-5.213c-1.611 0-2.928-1.358-2.928-3.018 0-1.661 1.317-3.019 2.928-3.019h5.213c1.611 0 2.928 1.358 2.928 3.019 0 1.66-1.317 3.018-2.928 3.018z" fill="#0082C8"/><path d="M288.274 118.325h-9.339c-1.583 0-2.877-1.244-2.877-2.767 0-1.522 1.294-2.767 2.877-2.767h9.339c1.583 0 2.877 1.245 2.877 2.767 0 1.523-1.294 2.767-2.877 2.767z" fill="#0082C8"/><path d="M313.413 115.262h-21.091a2.962 2.962 0 0 1-2.952-2.956 2.962 2.962 0 0 1 2.952-2.956h21.091a2.963 2.963 0 0 1 2.953 2.956 2.963 2.963 0 0 1-2.953 2.956z" fill="#0082C8"/><path d="M315.577 119.978h-25.416a2.962 2.962 0 0 1-2.952-2.956 2.963 2.963 0 0 1 2.952-2.957h25.416a2.963 2.963 0 0 1 2.952 2.957 2.962 2.962 0 0 1-2.952 2.956z" fill="#0082C8"/><path d="M330.467 122.845h-53.802c-3.438 0-6.249-2.407-6.249-5.348s2.813-5.349 6.249-5.349h53.804c3.438 0 6.249 2.408 6.249 5.349 0 2.941-2.813 5.348-6.251 5.348z" fill="#0082C8"/><path d="M325.455 113.797h-5.214c-1.61 0-2.928-1.358-2.928-3.018 0-1.661 1.318-3.019 2.928-3.019h5.214c1.61 0 2.927 1.358 2.927 3.019 0 1.66-1.317 3.018-2.927 3.018z" fill="#0082C8"/><path d="M327.421 118.325h-9.65c-1.636 0-2.973-1.244-2.973-2.767 0-1.522 1.337-2.767 2.973-2.767h9.65c1.636 0 2.974 1.245 2.974 2.767 0 1.523-1.34 2.767-2.974 2.767z" fill="#0082C8"/><path d="M285.625 109.122h-2.651v4.145h2.651v-4.145z" fill="#A96644"/><path d="M285.625 110.97v-1.848h-2.651v2.231c.517.064 1.681.117 2.651-.383z" fill="#914627"/><path d="M281.167 105.52s-.292-.38-.292-.883c0 0-1.262.049-1.052-.971.21-1.02 1.004-.649 1.019-1.328.016-.679 1.125-1.456 1.929-.874.805.582 2.648-1.456 2.712.648 0 0 1.244-.761 1.472.226.225.987 1.438.582 1.359 1.879 0 0-.131.42.371.484 0 0-.225.39-.438.308l-.512 1.576-3.147 1.759-3.421-2.824z" fill="#332A27"/><path d="M288.314 104.448c-.038-.12-.002-.233-.002-.233.031-.495-.129-.743-.35-.913-.616.409-1.816 1-3.215.584-1.348-.399-2.121-1.751-2.493-2.622-.691-.071-1.398.531-1.409 1.073a.57.57 0 0 1-.049.228c2.937 2.467 6.028 2.215 7.518 1.883z" fill="#4C423F"/><path d="M287.133 106.604l-.397.336c-.084-.199-.025-.513-.08-.723a4.442 4.442 0 0 1-.06-.277c-.453-.308-.702-1.171-.629-1.918.081-.841-1.132-.259-1.132-.259-.015-.469-1.374-1.295-1.341-.275.033 1.02-.615.81-1.07.972-.455.161-.181.838-.181.838-.648-.09-.824-.641-.824-.641a.664.664 0 0 1-.243-.018c0 1.54-.188 3.921.707 5.242.316.465.714.856 1.381.96 2.91.456 3.659-2.394 3.659-2.394s.913.244 1.099-1.102c.152-1.117-.889-.741-.889-.741z" fill="#A96644"/><path d="M285.743 104.183c-.011.438.15 1.449.857 1.757-.453-.308-.703-1.171-.63-1.919.082-.84-1.131-.258-1.131-.258s.915-.016.904.42zM282.425 105.52s-.126-.868.336-.824c.46.043 1.204-.161 1.129-.82-.075-.658.723-.476.948-.113-.015-.469-1.374-1.295-1.341-.275.033 1.02-.614.81-1.07.972-.455.161-.181.838-.181.838-.647-.09-.824-.641-.824-.641a.664.664 0 0 1-.243-.018 1.32 1.32 0 0 0 1.246.881z" fill="#914627"/><path d="M282.757 106.956c-.002.25-.155.442-.341.427-.185-.016-.333-.23-.331-.48.002-.25.155-.443.34-.428.188.014.336.231.332.481zM285.304 106.882c-.003.25-.155.443-.341.427-.185-.015-.333-.23-.331-.48.002-.25.155-.442.34-.427.186.014.334.228.332.48z" fill="#502F26"/><path d="M283.661 108.378c-.563.228-.866-.038-.888-.303a.385.385 0 0 1 .25-.394c.342-.135.585-.662.588-.668.002.121-.122.577-.557.832-.095.055-.153.113-.146.199.013.148.227.372.753.334z" fill="#914627"/><path d="M281.615 105.663l-.024-.171c.037-.002.616-.161 1.299-.104l.007.266c-.559-.082-1.273.007-1.282.009zM285.746 105.752c-.455-.177-1.3-.21-1.308-.213l.055-.243c.033.007.798.033 1.308.307l-.055.149z" fill="#332A27"/><path d="M286.703 108.11c-.248.722-1.169 2.503-3.158 2.395-1.076-.06-1.622-.77-1.983-1.266.084.235.191.449.321.642.316.464.714.856 1.381.96 2.91.456 3.66-2.394 3.66-2.394s.698.195 1.007-.695c-.543.903-1.228.358-1.228.358z" fill="#914627"/><path d="M284.64 108.771s-1.059.216-2.044 0c0 0 .174.907 1.021.905.802 0 1.014-.728 1.023-.905z" fill="#722626"/><path d="M283.598 109.202c-.652 0-.842-.27-.924-.418.764.15 1.381.06 1.918-.007-.06.166-.38.425-.994.425z" fill="#fff"/><path d="M289.767 113.346s-1.64-.631-3.479-1.034c0 0-1.056 1.083-2.26 1.034-1.311-.055-1.801-.998-1.801-.998-.838.133-2.195.471-3.03.861 0 0-.497 2.212-.005 13.717 0 0 3.253 1.144 9.247 0 0 0 .068-5.211.846-8.362.002 0 .236-3.238.482-5.218z" fill="#FFD07D"/><path opacity=".2" d="M282.91 114.817l1.043-1.026.679 1.343s1.75-1.078 1.982-2.746c-.108-.027-.217-.051-.327-.076-1.479 1.091-2.802 1.625-4.062.034-.062.009-.126.02-.194.033 0 .002-.155 1.055.879 2.438z" fill="#000"/><path d="M282.993 111.689s.14 1.078.988 1.454c0 0 1.551-.436 1.664-1.469l.915.699s-.579 1.724-1.803 2.18l-.765-1.169-1.038.963s-1.004-1.219-.92-1.972l.959-.686z" fill="#FFD07D"/><path d="M289.561 125.551l-.579-.407-.435.089c-.411-.133-.594-.405-.8-.436-.205-.031-.528-.248-.528-.248-.19.287.181.597.181.597l-.086-.017c-.071-.014-.141-.029-.212-.042l-.27-.056c-.086-.017-.174-.037-.261-.053-.068-.011-.134-.024-.203-.029a.84.84 0 0 0-.21.027c-.088.018-.548.181-.625.199-.036.009-.111.024-.111.024a.316.316 0 0 0 .005.264c.079.144.287.141.395.121.08-.013.186-.05.263-.079.067-.025.049-.038.164-.025.066.007.132.031.199.045.143.031.287.064.431.099.033.007.064.016.097.022 0 0-.694.129-.911.188-.161.047-.616.485-.616.485-.329.314.185.436.185.436-.026.029-.061.08-.061.124 0 .038.026.066.046.088.04.04.091.058.139.073a.496.496 0 0 0 .36-.011l.076-.033a2.497 2.497 0 0 0 .369-.221c.011-.009.035-.036.048-.036l.539-.03c-.181.099-.369.429-.614.579a.486.486 0 0 0-.106.082c-.029.031-.062.078-.055.126.006.047.048.06.082.073.103.042.216.04.327.014a.683.683 0 0 0 .165-.065.704.704 0 0 0 .159-.112c.328-.366.692-.547 1.158-.306.674.348 1.2-.657 1.2-.657l.095-.892z" fill="#A96644"/><path d="M289.765 113.343s1.297.079 4.63 6.412c0 0 1.383 2.592-4.659 6.842 0 0-1.177-.356-1.177-1.657l2.985-3.943-2.21-2.439c0 .003-.74-3.595.431-5.215z" fill="#FFD07D"/><path d="M279.401 125.41l.579-.408.436.089c.411-.133.594-.405.8-.436.205-.031.528-.248.528-.248.19.288-.181.598-.181.598.028-.007.057-.011.086-.018.07-.013.141-.029.212-.042.091-.018.181-.038.27-.055.086-.018.174-.038.26-.053.069-.012.135-.025.204-.029a.894.894 0 0 1 .21.026c.088.018.548.182.625.199.035.009.11.025.11.025a.31.31 0 0 1-.004.263c-.08.144-.287.142-.396.122a1.618 1.618 0 0 1-.263-.08c-.066-.024-.048-.037-.163-.024-.066.006-.133.031-.199.044-.144.031-.287.064-.431.1-.033.006-.064.015-.097.022 0 0 .694.128.91.188.162.046.617.484.617.484.329.315-.186.436-.186.436.027.029.062.08.062.124 0 .038-.026.067-.046.089-.04.04-.091.057-.139.073a.487.487 0 0 1-.361-.011l-.075-.033c-.031-.016-.062-.031-.093-.049a2.353 2.353 0 0 1-.276-.173c-.011-.009-.035-.035-.048-.035l-.54-.031c.182.099.369.429.615.58a.457.457 0 0 1 .106.082c.028.031.062.077.055.126-.007.046-.049.059-.082.073a.529.529 0 0 1-.327.013.648.648 0 0 1-.166-.064.828.828 0 0 1-.159-.113c-.327-.365-.691-.547-1.158-.305-.674.347-1.2-.658-1.2-.658l-.095-.891z" fill="#A96644"/><path d="M279.196 113.203s-1.297.08-4.63 6.413c0 0-1.383 2.591 4.659 6.842 0 0 1.177-.356 1.177-1.658l-2.985-3.943 2.21-2.438s.742-3.596-.431-5.216z" fill="#FFD07D"/><path d="M321.839 101.122s4.042-.745 4.559 3.822c.493 4.35.981 8.665.879 11.774 0 0-4.002 1.295-8.616 0 0 0 .12-6.008-.267-10.185-.341-3.663 1.158-5.572 3.445-5.411z" fill="url(#paint0_linear)"/><path d="M325.835 102.984a3.41 3.41 0 0 0-1.676-1.569c-.477.735-1.155 1.328-2.53 1.321-.992-.004-1.224-.768-1.248-1.387-.537.228-.988.621-1.326 1.175 2.068 1.608 5.074 1.006 6.78.46z" fill="#994A3D"/><path d="M318.631 112.287s-1.168.201-1.82 6.301l2.283.24c.002.002 1.928-6.226-.463-6.541z" fill="#BDC7D6"/><path d="M324.566 122.451s2.734 2.674 3.314 13.828c0 0-5.266 1.488-12.075 0 0 0 1.181-11.473 3.233-13.929l5.528.101z" fill="#A52923"/><path d="M319.597 112.318s2.564-.575 4.937 0c0 0-.4 2.622-3.423 2.647-3.025.024-1.514-2.647-1.514-2.647z" fill="#D17462"/><path d="M324.483 112.212s-2.69 2.549-3.337 2.542c-.648-.006-1.425-2.542-1.425-2.542-.993.265-1.096.312-1.096.312l-.193 1.786c-1.014 1.299-1.005 1.664-1.005 2.237 0 .996.879 1.604.879 1.604l.641 4.038c3.372 1.313 5.642.076 5.642.076.373-2.552 1.337-5.822 1.337-5.822v-3.789c-.515-.236-.917-.292-1.443-.442z" fill="#D7E4F7"/><path d="M321.223 111.246l-.006 1.602 1.958.007.009-2.084a2.984 2.984 0 0 1-1.961.475z" fill="#D17462"/><path d="M323.186 110.769l.006-1.606-1.958-.007-.008 2.089a2.977 2.977 0 0 0 1.96-.476z" fill="#BA5F50"/><path opacity=".1" d="M317.614 116.906s.257.217.813.265c1.123.098 3.485.299 5.11.038.68-.111.795-.454 1.308-.856 0 0 .082 1.75-2.053 1.714-2.137-.037-5.043.226-5.178-1.161z" fill="#000"/><path d="M318.056 106.785c-.011 1.835.488 3.408.539 4.776.108 2.936-.829 4.089-1.012 5.158 0 0 1.045.265 2.004.086 0 0 .785-3.169.659-5.03-.126-1.861-.961-4.788-.961-4.788s-.398-3.64 2.342-4.251l.009-.575c-.228-.02-3.549-.226-3.58 4.624z" fill="#7C3425"/><path d="M325.029 106.341l-.051.017s-.36.237-.422-.427c-.307-2.834-2.915-3.2-2.915-3.2-2.665.281-2.572 2.063-2.526 3.229-.015.655.084 1.25.049 1.914-.093 1.655 1.301 2.733 2.541 2.731 2.38-.003 2.983-2.118 2.983-2.118s1.108.188 1.249-1.299c.111-1.215-.908-.847-.908-.847z" fill="#D17462"/><g opacity=".9" fill="#D15D54"><path opacity=".091" d="M320.262 107.1a1.008 1.008 0 1 1-.376 1.98 1.008 1.008 0 0 1 .376-1.98z"/><path opacity=".182" d="M320.245 107.197a.911.911 0 0 1-.338 1.79.912.912 0 0 1 .338-1.79z"/><path opacity=".273" d="M320.228 107.293a.815.815 0 0 1-.302 1.6.814.814 0 0 1 .302-1.6z"/><path opacity=".364" d="M320.207 107.387a.716.716 0 1 1-.267 1.407.716.716 0 0 1 .267-1.407z"/><path opacity=".455" d="M320.19 107.483a.618.618 0 1 1-.23 1.215.618.618 0 0 1 .23-1.215z"/><path opacity=".545" d="M320.173 107.576a.523.523 0 0 1-.195 1.027.522.522 0 0 1 .195-1.027z"/><path opacity=".636" d="M320.155 107.674a.424.424 0 1 1-.159.836.425.425 0 0 1 .159-.836z"/><path opacity=".727" d="M320.138 107.769a.329.329 0 0 1 .261.383.329.329 0 0 1-.383.261.328.328 0 0 1 .122-.644z"/><path opacity=".818" d="M320.12 107.864a.229.229 0 0 1 .183.27.23.23 0 1 1-.183-.27z"/><path opacity=".909" d="M320.101 107.959a.133.133 0 0 1 .106.158.134.134 0 0 1-.157.106.133.133 0 0 1-.107-.157.139.139 0 0 1 .158-.107z"/><path opacity=".9" d="M320.113 108.098a.04.04 0 0 1-.046.029c-.02-.005-.034-.023-.029-.045.005-.02.025-.034.045-.029a.038.038 0 0 1 .03.045z"/></g><g opacity=".636" fill="#D15D54"><path opacity=".091" d="M323.458 107.029a1.08 1.08 0 1 1-.4 2.12 1.08 1.08 0 0 1 .4-2.12z"/><path opacity=".182" d="M323.44 107.132a.975.975 0 1 1-.362 1.917.975.975 0 1 1 .362-1.917z"/><path opacity=".273" d="M323.421 107.235a.871.871 0 1 1-.324 1.712.871.871 0 0 1 .324-1.712z"/><path opacity=".364" d="M323.402 107.334c.415.08.689.481.61.897a.766.766 0 1 1-1.505-.286.765.765 0 0 1 .895-.611z"/><path opacity=".455" d="M323.384 107.436a.663.663 0 1 1-.246 1.302.663.663 0 0 1 .246-1.302z"/><path opacity=".545" d="M323.362 107.541a.56.56 0 1 1-.21 1.098.56.56 0 0 1 .21-1.098z"/><path opacity=".636" d="M323.341 107.642a.455.455 0 1 1-.169.895.455.455 0 0 1 .169-.895z"/><path opacity=".727" d="M323.323 107.743a.353.353 0 0 1-.13.693.353.353 0 0 1 .13-.693z"/><path opacity=".818" d="M323.303 107.847a.245.245 0 0 1 .197.29.248.248 0 1 1-.197-.29z"/><path opacity=".909" d="M323.286 107.948a.148.148 0 0 1 .115.169.145.145 0 0 1-.168.115.147.147 0 0 1-.116-.168.148.148 0 0 1 .169-.116z"/><path opacity=".636" d="M323.299 108.096a.04.04 0 0 1-.047.032c-.022-.005-.036-.025-.031-.047a.038.038 0 0 1 .047-.031c.02.004.033.026.031.046z"/></g><path d="M321.672 108.277c-.413.188-.674.091-.727-.188-.035-.182.071-.387.184-.489.232-.206.336-.81.336-.817.017.129-.009.635-.292.985a.313.313 0 0 0-.08.237c.018.208.217.367.579.272z" fill="#BA5F50"/><path d="M320.173 106.444s-.362.012-.415-.126c0 0-.042.193.179.255a.55.55 0 0 0-.108.347c.004.259.165.467.36.465.194-.002.349-.215.345-.476-.005-.261-.164-.469-.361-.465zM322.889 106.399s-.362.011-.415-.127c0 0-.042.193.179.255a.539.539 0 0 0-.108.347c.004.259.165.467.36.465.194-.002.349-.215.345-.476-.005-.261-.166-.467-.361-.464z" fill="#502F26"/><path d="M324.506 107.987s-.166 1.286-1.799 1.987c-1.438.618-2.842-.338-3.153-.573.488.761 1.35 1.208 2.148 1.206 2.38-.002 2.983-2.118 2.983-2.118s.696.127 1.061-.584c-.688.651-1.24.082-1.24.082z" fill="#BA5F50"/><path d="M320.794 105.714s-.583-.157-1.381.075c0 0-.004-.06.146-.188.141-.119.665-.25 1.116-.066 0 .002.234.126.119.179zM322.129 105.681s.581-.168 1.381.048c0 0 .004-.059-.148-.183-.144-.118-.67-.239-1.118-.047 0 0-.232.131-.115.182z" fill="#7C3425"/><path d="M322.533 108.658s-.924.204-1.788.029c0 0 .166.792.906.779.698-.013.875-.653.882-.808z" fill="#B22828"/><path d="M321.624 109.052c-.57.009-.74-.226-.815-.352.671.122 1.208.035 1.677-.031-.047.144-.325.374-.862.383z" fill="#fff"/><path d="M325.029 106.341l-.051.017s-.36.237-.422-.427c-.307-2.834-2.915-3.2-2.915-3.2-2.373.25-2.561 1.691-2.539 2.828.139-.705.661-2.387 2.464-2.708 0 0 2.46.814 2.955 6.041.119-.237.168-.403.168-.403s1.107.188 1.248-1.299c.111-1.217-.908-.849-.908-.849z" fill="#BA5F50"/><path d="M325.943 106.905s-.279-4.972-4.294-4.746l-.013-.002-.009.575.011-.002s2.256.274 2.8 4.255c.705 5.14-2.225 9.949-2.225 9.949s1.591 0 2.112-.131c0 0 1.143-2.713 1.51-4.928.433-2.602.108-4.97.108-4.97z" fill="#7C3425"/><path d="M325.901 112.654s1.492.507 2.248 6.74l-2.241.667s-1.489-5.462-.007-7.407z" fill="#D7E4F7"/><path d="M328.149 119.394s.139 1.763-2.241 1.635a40.972 40.972 0 0 1-4.227-.476l.15-1.21c.002 0 3.602-.613 6.318.051z" fill="#D17462"/><path d="M318.782 119.797c.041-.122.171-.086.316-.051l-.427-.167c-.099-.043-.205-.093-.165-.236.043-.151.156-.118.274-.084l-.291-.122c-.098-.043-.199-.103-.16-.26.032-.132.134-.12.252-.106l.25.039c-.143-.06-.248-.18-.222-.282.017-.067.098-.146.31-.125l1.364.089.485.1-.261-.279c-.22-.323-.042-.469-.042-.469.089-.079.25.069.479.227l.742.59c.265.297.748.849.645 1.379-.107.552-.278.78-.62.801 0 0-.616-.017-.953-.069-.338-.053-.729-.189-.729-.189l-1.031-.488c-.152-.086-.25-.188-.216-.298z" fill="#D17462"/><path d="M304.851 122.865c-.484-.175-.65.385-.65.385s-.338.832-.382 1.146c-.045.317.209 1 .38 1.135 0 0 .417.299.521.392 0 0 .181.007.069-.31 0 0 .331.182.291-.108 0 0 .193-.126.232-.463 0 0-.081-.402-.19-.571 0 0 .221-.584.104-.945 0 0 .109-.486-.375-.661z" fill="#A96644"/><path d="M304.823 123.556s-.086.578-.188.901c0 0 .287.429.117.615 0 0-.223-.157-.522-.502 0 0 .166.571.197.657.033.086.239.223.358.389 0 0 .217-.075.232-.194 0 0 .195-.213.188-.361 0 0-.057-.328-.141-.56 0 0 .291-.575.141-.969-.009-.025-.365.042-.382.024z" fill="#914627"/><path d="M305.381 116.886c.522.044 1.096.068 1.653.453-.02.578-.274 1.401-.329 1.826 0 0-.387 2.259-1.478 4.361 0 0-.595-.044-.968-.409 0 0 .557-3.37.802-4.235 0-.003.23-1.014.32-1.996z" fill="#A96644"/><path d="M305.642 114.534c.499-1.582 1.149-1.905 1.149-1.905l.437 2.969s-.024.939-.059 1.95c-.548-.122-1.629-.321-2.159-.533.263-1.029.378-1.675.632-2.481z" fill="#9B2A2A"/><path d="M312.358 138.624l1.341-.118-.114-1.617-1.342.117.115 1.618z" fill="#A96644"/><path d="M314.213 139.468h-2.394v.389h2.394v-.389z" fill="#C1C1C1"/><path d="M314.169 139.467s.153-.389-.064-.765l-.3-.644s-.148.155-.281.093c-.139-.064-.533-.815-1.107.004 0 0-.17-.102-.267-.071l-.184.602s-.314.589-.11.781h2.313z" fill="#A52923"/><path d="M313.399 138.867a.065.065 0 0 1-.019-.004 1.35 1.35 0 0 0-.785-.033c-.033.011-.068-.011-.077-.049-.009-.038.011-.075.044-.086.018-.005.435-.127.857.035.033.013.051.053.04.089-.009.031-.033.048-.06.048z" fill="#fff"/><path d="M313.399 138.681c-.006 0-.013-.003-.019-.005a1.359 1.359 0 0 0-.785-.033c-.033.011-.068-.011-.077-.049-.009-.037.011-.075.044-.086.018-.004.435-.126.857.035a.074.074 0 0 1 .04.089c-.009.031-.033.049-.06.049z" fill="#fff"/><path d="M313.399 138.495a.065.065 0 0 1-.019-.004 1.34 1.34 0 0 0-.785-.033c-.033.011-.068-.012-.077-.049-.009-.038.011-.075.044-.086.018-.005.435-.127.857.035a.073.073 0 0 1 .04.088c-.009.031-.033.049-.06.049z" fill="#fff"/><path d="M313.399 138.309c-.006 0-.013-.003-.019-.005a1.359 1.359 0 0 0-.785-.033c-.033.011-.068-.011-.077-.049-.009-.037.011-.075.044-.086.018-.004.435-.126.857.035a.074.074 0 0 1 .04.089c-.009.031-.033.049-.06.049z" fill="#fff"/><path d="M304.708 134.936h-1.423v1.553h1.423v-1.553z" fill="#A96644"/><path d="M304.877 135.969s.342.52.183 1.489h-4.713s-.383-.668 1.014-.803c.904-.086 1.708-.912 1.708-.912s.265.044.38.379c.126.371.875.444 1.145.046.17-.25.283-.199.283-.199z" fill="#A52923"/><path d="M305.095 137.46h-4.72v.389h4.72v-.389z" fill="#C1C1C1"/><path d="M302.137 136.987a.093.093 0 0 1-.081-.056.474.474 0 0 0-.292-.279.092.092 0 0 1-.065-.112.09.09 0 0 1 .107-.069.65.65 0 0 1 .413.385.095.095 0 0 1-.046.122c-.011.004-.022.009-.036.009zM302.491 136.847a.095.095 0 0 1-.082-.055.468.468 0 0 0-.292-.279c-.046-.011-.075-.062-.064-.113a.09.09 0 0 1 .106-.069c.011.003.288.076.414.385a.095.095 0 0 1-.082.131zM302.754 136.661a.09.09 0 0 1-.082-.055.475.475 0 0 0-.292-.279.09.09 0 0 1-.064-.113.09.09 0 0 1 .106-.068.65.65 0 0 1 .413.385.095.095 0 0 1-.046.122.07.07 0 0 1-.035.008zM303.018 136.475a.095.095 0 0 1-.082-.055.466.466 0 0 0-.292-.279c-.046-.011-.077-.062-.064-.113a.09.09 0 0 1 .106-.069.658.658 0 0 1 .414.385.095.095 0 0 1-.046.122.069.069 0 0 1-.036.009z" fill="#fff"/><path d="M306.786 121.919l-.226 1.64s-3.257 4.032-3.529 4.981c-.272.954-.033 2.722.064 6.368 0 0 .641.408 1.821.047 0 0 .108-5.2.345-5.762.236-.562 4.249-4.7 4.249-4.7l.703.015 1.81 12.722s.877.234 1.737-.078l-1.123-15.235h-5.851v.002z" fill="#2E4056"/><path d="M306.76 123.439a.044.044 0 0 1-.04-.026.044.044 0 0 1 .022-.056c.007-.002.762-.321.873-1.175.002-.024.024-.039.049-.037.022.002.039.024.037.048-.119.905-.917 1.242-.926 1.244-.004.002-.011.002-.015.002zM310.008 124.492a.043.043 0 0 1-.042-.033c-.002-.009-.192-.91-.212-2.142 0-.025.018-.042.042-.045.022 0 .042.018.044.043.02 1.223.21 2.115.21 2.124a.043.043 0 0 1-.033.051c-.004.002-.006.002-.009.002z" fill="#566C82"/><path d="M309.902 124.099h-.002a.565.565 0 0 1-.398-.204c-.387-.449-.303-1.487-.3-1.529.002-.024.022-.04.046-.04.024.002.04.022.038.047 0 .011-.084 1.044.28 1.467a.48.48 0 0 0 .338.175c.025.002.042.022.04.044a.042.042 0 0 1-.042.04zM312.648 123.706h-.005c-1.37-.139-1.717-1.314-1.721-1.325a.043.043 0 0 1 .028-.053.043.043 0 0 1 .053.029c.003.011.339 1.13 1.649 1.263.024.002.04.022.038.047-.003.024-.02.039-.042.039z" fill="#566C82"/><path d="M303.026 134.633v.467s1.035.473 2.005.035v-.332s-1.359.248-2.005-.17zM311.883 136.871l.09.478s1.333.183 1.914-.235v-.365c.002 0-1.198.425-2.004.122z" fill="#ABC2D8"/><path d="M309.304 111.639l-.029 1.035 1.715.047.038-1.348a3.37 3.37 0 0 1-1.724.266z" fill="#A96644"/><path d="M311.03 111.372l.029-1.037-1.715-.047-.037 1.352c.291.033 1.003.06 1.723-.268z" fill="#914627"/><path d="M310.012 112.907c1.014 0 1.26-.564 1.293-.741a6.681 6.681 0 0 0-2.323-.084c-.019.208.034.825 1.03.825z" fill="#A96644"/><path d="M313.589 112.928s-.977-.534-2.168-.795c-.051-.011-.102-.022-.153-.031-.035.177-.225.715-1.239.715-.997 0-1.03-.573-1.008-.779-.073.009-.148.02-.226.033-.541.087-1.46.306-1.999.558 0 0-.076 2.815-.157 9.553 0 0 2.415.869 6.296.128.061-3.235.077-4.182.327-6.216-.007 0 .168-1.885.327-3.166z" fill="#B23232"/><path d="M312.816 106.388s.207.47.307 1.125c0 0 .376-1.125.535-1.89.172-.821-.177-2.379-2.199-3.036-2.893-.943-3.633.208-4.21 2.162.002 0 3.836-1.467 5.567 1.639z" fill="#D0D6D8"/><path d="M312.291 102.977c1.275.778 1.513 1.956 1.37 2.646-.159.766-.535 1.89-.535 1.89-.099-.655-.307-1.124-.307-1.124a3.862 3.862 0 0 0-.811-1.023 3.486 3.486 0 0 0 .283-2.389z" fill="#AAB6BA"/><path d="M312.817 106.388s-1.523-2.27-4.707-1.752c0 0-.984.245-.946 1.08 0 0-1.428-2.043-1.037-2.576.389-.531 4.612-.485 5.317.188.937.892 1.373 3.06 1.373 3.06z" fill="#C63939"/><path d="M306.389 105.17c.057-.12.092-.149.112-.14-.039-.208-.075-.586.168-.692.137-.06.217-.06.274-.025-.017-.075-.015-.166.122-.281.11-.09.17-.093.214-.046a.229.229 0 0 1 .077-.217c.199-.168.531-.157 1.057.157-.082-.062-.166-.166-.016-.261.239-.153.354.062.396.104 0 0-.23-.25.042-.323.186-.051.367.137.57.299-.026-.049-.002-.104.126-.153.329-.124.902.035 1.218.58a.305.305 0 0 1 .134-.08c.374-.135.891.54.909 1.317 0 0 .766.487 1.129 1.035 0 0 .25.596.208 1.071l-.308.923-5.641-.907s-.217-.777-.168-1.487c-.005 0-.774-.56-.623-.874z" fill="#332A27"/><path d="M310.185 105.317c.605.22 1.463.25 1.463.25.475 1.189 1.087 1.879 1.399 2.178l-.23.692-5.642-.907s-.217-.792-.168-1.5c.172-1.881 2.572-.932 3.178-.713z" fill="#191514"/><path d="M312.345 107.794l-.344.279c-.073-.163.035-.624.044-.805.053-.978-.469-1.638-.469-1.638-2.024.255-2.691-.413-3.306-.349-.842.088-.943.737-.943.737-.213.759-.151 1.146-.151 1.146-.002.9-.022 2.429.626 3.343.272.385.616.708 1.195.795 2.52.378 3.165-1.983 3.165-1.983s.789.201.95-.912c.133-.925-.767-.613-.767-.613z" fill="#A96644"/><path d="M311.504 105.869s-.871.358-2.946-.458c0 0-.616-.204-1.107.31.124-.184.363-.396.818-.445.614-.064 1.282.604 3.306.349 0 0 .457.58.473 1.461-.08-.394-.243-.954-.544-1.217zM311.971 109.037c-.215.597-1.012 2.069-2.732 1.98-.93-.048-1.403-.637-1.715-1.046.073.192.164.372.279.531.272.385.616.708 1.195.794 2.52.379 3.165-1.982 3.165-1.982s.603.161.871-.576c-.469.748-1.063.299-1.063.299z" fill="#914627"/><path d="M308.562 108.081c-.002.208-.132.366-.294.355-.159-.014-.288-.191-.288-.399.003-.208.133-.365.295-.354.161.013.289.19.287.398zM310.761 108.022c-.002.208-.132.365-.294.354-.159-.013-.288-.19-.285-.398.002-.208.135-.365.294-.354.159.011.287.19.285.398z" fill="#502F26"/><path d="M309.34 109.259c-.486.188-.749-.031-.769-.253a.315.315 0 0 1 .216-.325c.296-.111.506-.549.509-.553.002.1-.104.478-.482.688-.082.044-.133.093-.126.164.011.126.199.31.652.279z" fill="#914627"/><path d="M307.569 107.174l-.022-.12c.031-.002.535-.113 1.125-.073l.004.188c-.482-.059-1.098.005-1.107.005zM311.16 107.189c-.408-.088-1.138-.048-1.144-.048l.024-.175c.029.002.689-.038 1.156.115l-.036.108z" fill="#332A27"/><path d="M310.189 109.583s-.917.179-1.768 0c0 0 .15.75.884.75a.87.87 0 0 0 .884-.75z" fill="#722626"/><path d="M309.285 109.941c-.563 0-.729-.223-.8-.345.661.124 1.196.051 1.66-.004-.051.135-.327.349-.86.349z" fill="#fff"/><path d="M313.397 121.026c-.133-.239-.383-.268-.383-.268l-.287.06c-.272-.089-.391-.268-.528-.288-.137-.02-.349-.164-.349-.164-.124.191.119.394.119.394l-.057-.011-.14-.029-.179-.035-.172-.036c-.044-.008-.091-.017-.135-.017a.509.509 0 0 0-.139.017c-.057.012-.362.12-.413.133l-.073.016a.21.21 0 0 0 .002.175c.053.095.19.092.261.081a.963.963 0 0 0 .174-.053c.045-.015.034-.024.109-.017.044.004.086.019.13.028.095.022.19.042.285.065.022.004.044.011.064.015 0 0-.457.084-.601.124-.106.031-.406.321-.406.321-.217.208.123.287.123.287-.017.02-.039.054-.039.082 0 .025.017.045.03.058.027.026.06.037.093.049.06.019.124.026.188.011a.382.382 0 0 0 .051-.018c.018-.007.033-.016.049-.022l.061-.033c.062-.036.124-.069.184-.113.006-.005.022-.022.031-.025l.356-.02c-.12.067-.243.284-.407.383-.024.016-.049.031-.071.056-.02.02-.042.05-.037.084.004.031.033.04.055.048a.357.357 0 0 0 .217.009.457.457 0 0 0 .183-.091.238.238 0 0 0 .031-.026c.216-.241.457-.361.765-.201.444.23.793-.434.793-.434s.197-.356.062-.595z" fill="#A96644"/><path d="M315.869 116.225c.139.25.484.814.637 1.102 0 0 .817 1.482-3.174 4.29 0 0-.477-.243-.318-.861l1.693-2.739-.42-.717c.579-.655 1.076-.903 1.582-1.075z" fill="#A96644"/><path d="M313.586 112.93s.694-.089 2.57 3.295c-.311.334-.996 1.113-1.92 1.431l-1.067-1.316s-.356-2.341.417-3.41z" fill="#B23232"/><path d="M297.759 138.234l-.802-.005c-.319 0-.577.37-.577.813 0 .444.258.812.577.812h.753l.049-1.62z" fill="#1A2126"/><path d="M298.31 139.029c0-.444-.232-.783-.552-.783-.319 0-.604.341-.604.783 0 .445.237.848.557.848.318-.002.599-.405.599-.848z" fill="#313C44"/><path d="M300.283 138.816h-.455c-.385-.194-.389-.442-.389-.442l-.288-.14-.344.146c-.038.328-.312.372-.436.439h-.479a.195.195 0 0 0-.195.194c0 .106.086.195.195.195h2.393a.194.194 0 0 0 .194-.195.198.198 0 0 0-.196-.197z" fill="#7A8A96"/><path d="M300.051 138.041h-1.81v.323h1.81v-.323z" fill="#616F77"/><path d="M300.606 138.234l-.803-.005c-.318 0-.576.37-.576.813 0 .444.258.812.576.812h.754l.049-1.62z" fill="#1A2126"/><path d="M301.156 139.031c0-.444-.232-.783-.553-.783-.318 0-.603.341-.603.783 0 .445.236.848.557.848.32-.002.599-.405.599-.848z" fill="#313C44"/><path d="M306.812 138.234l-.803-.005c-.318 0-.576.37-.576.813 0 .444.258.812.576.812h.754l.049-1.62z" fill="#1A2126"/><path d="M307.364 139.028c0-.444-.232-.783-.553-.783-.318 0-.603.341-.603.783 0 .445.236.848.557.848.318-.002.599-.405.599-.848z" fill="#313C44"/><path d="M309.338 138.816h-.456c-.384-.194-.389-.442-.389-.442l-.287-.14-.345.146c-.037.328-.311.372-.435.439h-.48a.194.194 0 0 0 0 .389h2.394a.194.194 0 0 0 .194-.195.2.2 0 0 0-.196-.197z" fill="#7A8A96"/><path d="M309.104 138.041h-1.81v.323h1.81v-.323z" fill="#616F77"/><path d="M309.658 138.234l-.802-.005c-.318 0-.577.37-.577.813 0 .444.259.812.577.812h.754l.048-1.62z" fill="#1A2126"/><path d="M310.208 139.031c0-.444-.232-.783-.552-.783-.318 0-.603.341-.603.783 0 .445.236.848.557.848.318-.002.598-.405.598-.848z" fill="#313C44"/><path d="M309.401 138.108h-12.545s-.663-.022-1.083-.443c-.42-.42.082-.748.484-.763.376-.016 1.931-.175 2.873.708a.887.887 0 0 0 .603.239h6.694s.517-.022.948-.321c.431-.299 2.241-.987 3.082-.372.842.615-.559.952-1.056.952z" fill="#A08650"/><path d="M296.704 137.15c-.603.009-.923.106-1.087.195 0 .095.047.206.159.321.42.42 1.083.442 1.083.442h2.871c-.396 0-.502-.077-.84-.36-.343-.286-1.07-.616-2.186-.598z" fill="#A52923"/><path d="M309.596 137.849s.862-.031 1.077-.483a.818.818 0 0 0-.215-.216c-.839-.616-2.651.075-3.082.373a1.992 1.992 0 0 1-.931.321v.007h3.151v-.002z" fill="#313C44"/><path d="M308.257 102.604v-.776c0-.622-.502-1.133-1.117-1.133h-2.942v-.986c-.676.002-1.507.013-2.45.03v.956h-2.942c-.615 0-1.115.509-1.115 1.133v.776c0 .621.502 1.13 1.115 1.13h8.334a1.125 1.125 0 0 0 1.117-1.13z" fill="#0082C8"/><path d="M283.856 120.841c2.362 0 4.276-1.802 4.276-4.025 0-2.223-1.914-4.025-4.276-4.025s-4.277 1.802-4.277 4.025c0 2.223 1.915 4.025 4.277 4.025z" stroke="#0082C8" stroke-width="6.427" stroke-miterlimit="10"/><path d="M280.913 113.223l-.646-.392c-.155-.094-.344-.016-.422.173l-.035.086a.457.457 0 0 0 .001.343.307.307 0 0 0-.217.192l-.036.085a.441.441 0 0 0 .038.388c-.108.009-.21.083-.261.21l-.036.085a.467.467 0 0 0-.017.288.24.24 0 0 0-.102.086l-.041.057a.362.362 0 0 0 .024.439l.441.47c.105.113.266.099.359-.03l.041-.057a.365.365 0 0 0 .013-.39l.074.043c.155.095.344.017.421-.173l.036-.085a.457.457 0 0 0 .011-.307.305.305 0 0 0 .399-.177l.036-.086a.45.45 0 0 0-.11-.479.345.345 0 0 0 .138-.169l.036-.085c.074-.189.01-.42-.145-.515zM286.843 113.223l.808-.392a.398.398 0 0 1 .526.173l.045.086a.374.374 0 0 1-.002.343.367.367 0 0 1 .271.192l.045.085c.064.125.04.27-.047.388a.39.39 0 0 1 .326.21l.045.085a.372.372 0 0 1 .021.288.283.283 0 0 1 .127.086l.052.057a.306.306 0 0 1-.03.439l-.551.47a.323.323 0 0 1-.448-.03l-.052-.057a.304.304 0 0 1-.017-.39l-.092.043a.396.396 0 0 1-.526-.173l-.045-.085a.375.375 0 0 1-.014-.307c-.203.06-.413-.011-.498-.177l-.045-.086c-.083-.161-.019-.357.137-.479a.382.382 0 0 1-.173-.169l-.044-.085a.384.384 0 0 1 .181-.515z" fill="#A96644"/><path d="M296.661 139.355l-.345-.695-1.012.14-.102.823 1.459.002v-.27z" fill="#D17462"/><path d="M291.932 131.641c.567 1.989 1.893 3.295 3.445 7.364l.928-.341s-1.061-3.978-2.332-7.233c0 0 .1-2.797.975-5.886-1.379-.37-1.945-.494-2.747-.638-.55 2.149-.532 5.809-.269 6.734z" fill="#D17462"/><path d="M292.203 124.903a10.44 10.44 0 0 0-.194.958c.398.321 1.255.872 2.601 1.027.097-.438.21-.889.34-1.347-1.379-.368-1.947-.494-2.747-.638z" fill="#BA5F50"/><path d="M296.894 140.562h-4.572v.528h4.572v-.528z" fill="#C1C1C1"/><path d="M292.331 140.562s-.312-.865 1.045-.989l.351.989h-1.396z" fill="#F2F2F2"/><path d="M293.388 139.571l1.808-.612s.216-.065.378.362c0 0 .669.363 1.093-.097 0 0 .407-.035.23.671v.67h-3.772l.263-.994z" fill="#D6D8D8"/><path d="M296.655 139.224a.692.692 0 0 1-.535.232l.042.246s.272-.051.402-.151c0 0 .109.273.31.337.176-.695-.219-.664-.219-.664zM294.499 140.563h-.294l-.234-.591.252-.088.276.679zM295.03 140.563h-.294l-.295-.752.27-.084.319.836zM295.554 140.562h-.292l-.338-.898.263-.082.367.98z" fill="#3E4042"/><path d="M295.555 139.325l-2.017.691-.089-.246 1.675-.566c.003 0 .301-.118.431.121z" fill="#CECECE"/><path d="M293.719 139.357l-.165.057.152.444.165-.057-.152-.444zM294.07 139.24l-.166.057.153.443.165-.057-.152-.443zM294.424 139.122l-.165.057.152.443.166-.057-.153-.443zM294.833 139.005l-.165.057.153.443.165-.057-.153-.443z" fill="#F2F2F2"/><path d="M295.944 125.613c.155 2.538.546 9.139.509 13.894h1.005s.824-8.26 1.238-14.193a17.9 17.9 0 0 0-2.752.299z" fill="#D17462"/><path d="M298.699 125.333c-1.099.044-1.905.133-2.752.294.022.352.047.784.075 1.275.765-.071 1.633-.27 2.61-.655.022-.31.044-.615.067-.914z" fill="#BA5F50"/><path d="M296.262 139.623l.192-.996h1.089l.12.971-1.401.025z" fill="#D17462"/><path d="M298.016 140.563h-1.994v.529h1.996l-.002-.529z" fill="#CECECE"/><path d="M296.968 138.902s-.512-.002-.475.321c0 0-.471-.055-.471 1.304l1.996.028s-.04-1.314-.548-1.314c0 0 .077-.339-.502-.339z" fill="#E5E5E5"/><path d="M296.603 139.178v.821l-.235.009v-.655s.117-.142.235-.175zM297.304 139.176v.821l.234.009v-.655s-.057-.142-.234-.175z" fill="#CECECE"/><path d="M297.482 139.411c-.469-.211-.997-.003-1.002 0l.005-.122c.02-.009.468-.235.997 0v.122z" fill="#F2F2F2"/><path d="M296.48 139.591l.005-.124c.015-.009.409-.231.994-.029v.122a1.46 1.46 0 0 0-.999.031z" fill="#F2F2F2"/><path d="M296.021 140.563s-.088-1.006.997-1.006.997 1.006.997 1.006h-1.994z" fill="#F2F2F2"/><path d="M299.443 115.298s-.901-.735-.367-1.664c.535-.929.761-1.549.367-2.226-.395-.677.422-2.124.564-2.686.141-.562-.76-2.463-.705-3.236.055-.772-.508-2.52-2.031-2.352 0 0-3.299-1.15-4.144 1.443-.846 2.593-.479 3.928 0 4.744.48.815.865 2.37.363 3.353-.504.982-.029 1.951.791 2.431.822.481 3.443 1.016 5.162.193z" fill="url(#paint1_linear)"/><path d="M299.308 105.397c.005-.484-.201-1.259-.683-1.768-.495.596-1.661 1.268-2.835.945-1.045-.287-1.18-1.071-1.16-1.54a2.217 2.217 0 0 0-1.337 1.146c2.035 1.547 4.605 1.437 6.015 1.217z" fill="#994A3D"/><path d="M300.031 113.991s-.035 1.487-.002 3.552c.033 2.064.459 1.832-.243 6.705h-.92s-.477-4.975-.117-6.696l-.347-3.255 1.629-.306z" fill="url(#paint2_linear)"/><path d="M298.834 124.107c.174-.369.453-.25.802-.084.349.166.305.511.26.803l-.17.501c-.174.369-.435.351-.784.183-.349-.166-.575-.422-.4-.794l.292-.609z" fill="#BA5F50"/><path d="M298.816 124.975a.213.213 0 0 1 .057.095c.104.39.738.947.979 1.12.084.06.126.179.077.254-.05.076-.156.058-.238-.002-.102-.073-.995-.728-1.156-1.323-.027-.095.029-.184.124-.197a.188.188 0 0 1 .157.053z" fill="#BA5F50"/><path d="M298.986 124.857a.168.168 0 0 1 .066.066c.33.545 1.293.985 1.304.989.095.038.204.142.168.235-.035.093-.199.08-.294.042-.044-.018-1.096-.434-1.491-1.089a.174.174 0 0 1 .061-.245.18.18 0 0 1 .186.002z" fill="#BA5F50"/><path d="M299.385 124.913c.02.009.039.02.057.035.389.332.972.545.979.547.148.06.214.164.179.246-.024.053-.163.048-.261.022-.026-.007-.674-.195-1.131-.587-.077-.066-.086-.168-.02-.23.049-.051.128-.06.197-.033z" fill="#BA5F50"/><path d="M299.595 124.714c.017.004.037.004.051.018.234.232.804.376.808.376.102.011.162.066.153.161-.009.095-.084.078-.186.067-.02-.003-.475-.056-.948-.301-.09-.047-.126-.153-.077-.237.037-.069.119-.1.199-.084z" fill="#BA5F50"/><path d="M298.748 111.857s1.07.514 1.731 2.191c0 0-.829.651-1.993.87-.003.002-.376-1.821.262-3.061z" fill="#86CF87"/><path d="M292.578 113.389s-.466 4.917.155 5.74c0 0 1.366 1.79 4.837 2.604l.283-.852s-2.566-1.732-3.914-2.573l-.139-4.55-1.222-.369z" fill="url(#paint3_linear)"/><path d="M299.672 122.174c.011-.078-.077-.1-.174-.129l.3.047c.071.009.148.015.164-.073.017-.095-.06-.113-.14-.133l.208.027c.071.006.148.008.17-.089.018-.08-.046-.106-.119-.135l-.161-.06c.103.014.198-.017.212-.079.009-.04-.018-.109-.148-.164l-.838-.387-.318-.1.234-.066c.223-.102.159-.237.159-.237-.031-.071-.168-.042-.349-.031l-.608.077c-.243.073-.685.215-.775.532-.093.327-.055.504.141.624 0 0 .371.185.588.265.217.08.486.133.486.133l.752.068c.119.003.207-.022.216-.09z" fill="#D17462"/><path d="M293.362 111.76s-.857.458-1.354 2.219c0 0 1.29.792 2.093.837-.003.002-.292-2.076-.739-3.056z" fill="#86CF87"/><path d="M297.649 118.959l.117-1.414-4.217-.044.182 1.423-.372 1.418s1.614 1.31 4.924-.013c-.166-.584-.533-.876-.634-1.37z" fill="#D17462"/><path d="M297.652 118.908l.112-1.363-4.216-.044.121.96c.606.312 2.045.879 3.983.447z" fill="#BA5F50"/><path d="M294.083 111.607s1.896-.425 3.649 0c0 0-.296 1.938-2.531 1.956-2.236.018-1.118-1.956-1.118-1.956z" fill="#D17462"/><path d="M297.211 111.477s-.415 1.093-1.646 1.071c-1.18-.023-.879-1.071-.879-1.071-.734.123-1.322.281-1.322.281l-.141 1.318c-.482.706-.588 1.231-.566 1.656.033.644.124 1.186.124 1.186l.188 2.33c2.492.969 5.456-.073 5.456-.073-.053-2.423.351-3.519.351-3.519v-2.801c-.415-.175-1.16-.321-1.565-.378z" fill="#86CF87"/><path d="M295.284 110.813l-.005 1.183 1.448.007.006-1.54a2.19 2.19 0 0 1-1.449.35z" fill="#D17462"/><path d="M296.737 110.464l.004-1.186-1.447-.007-.007 1.543c.248.033.846.044 1.45-.35z" fill="#BA5F50"/><path d="M297.73 107.584s.416 2.596-.148 3.653c-.563 1.058-.74 1.284-.592 1.846.146.562.48 1.281-.42 1.978 0 0 1.68-.277 1.309-1.978 0 0 1.398-1.536 1.25-5.607l-1.399.108zM293.052 108.517s-.197 1.567.42 2.742c.616 1.175-.422 1.46-.226 2.389.197.93-.243 1.295-.565 1.421 0 0 1.043.15 1.255-1.109 0 0 .035-.641.197-.818.161-.177.861-1.472.386-2.567-.475-1.096 0-2.06 0-2.06h-1.467v.002z" fill="#7C3425"/><path d="M298.145 106.984l-.042.013s-.13.624-.462-.728c-.219-1.414-1.834-1.885-1.834-1.885-2.575.04-2.672 1.248-2.486 2.294.075.383.17.998.141 1.527-.073 1.321 1.039 2.18 2.027 2.178 1.896-.003 2.391-1.563 2.391-1.563s.87.025.985-1.161c.093-.969-.72-.675-.72-.675z" fill="#D17462"/><path d="M295.788 104.574s1.163.332 1.779 1.389c-.382-1.175-1.759-1.577-1.759-1.577-1.564.024-2.214.48-2.442 1.071.305-.399.97-.832 2.422-.883z" fill="#BA5F50"/><g opacity=".9"><path opacity=".091" d="M294.347 107.591a.801.801 0 0 1 .639.938.802.802 0 1 1-1.576-.299.8.8 0 0 1 .937-.639z" fill="#E8725F"/><path opacity=".182" d="M294.332 107.665a.726.726 0 1 1-.272 1.426.726.726 0 0 1 .272-1.426z" fill="#E5705E"/><path opacity=".273" d="M294.318 107.742a.65.65 0 0 1-.241 1.277.65.65 0 1 1 .241-1.277z" fill="#E36E5D"/><path opacity=".364" d="M294.302 107.819a.573.573 0 0 1-.212 1.124.574.574 0 0 1-.455-.668.57.57 0 0 1 .667-.456z" fill="#E16C5C"/><path opacity=".455" d="M294.289 107.894a.495.495 0 0 1-.184.972.495.495 0 0 1 .184-.972z" fill="#DF6A5B"/><path opacity=".545" d="M294.274 107.968a.417.417 0 0 1-.155.819.417.417 0 0 1 .155-.819z" fill="#DC6759"/><path opacity=".636" d="M294.259 108.045a.339.339 0 1 1-.125.667.339.339 0 0 1 .125-.667z" fill="#DA6558"/><path opacity=".727" d="M294.244 108.122a.26.26 0 0 1 .208.305.261.261 0 1 1-.208-.305z" fill="#D86357"/><path opacity=".818" d="M294.231 108.197a.184.184 0 1 1-.215.147.186.186 0 0 1 .215-.147z" fill="#D66156"/><path opacity=".909" d="M294.216 108.273a.108.108 0 0 1 .085.127.106.106 0 0 1-.124.084.109.109 0 0 1-.087-.124.11.11 0 0 1 .126-.087z" fill="#D35F55"/><path opacity=".9" d="M294.226 108.386c-.002.016-.018.027-.036.025-.016-.002-.027-.018-.025-.036.003-.016.018-.027.037-.025.018.004.029.02.024.036z" fill="#D15D54"/></g><g opacity=".9"><path opacity=".091" d="M296.892 107.531a.862.862 0 0 1-.321 1.693.863.863 0 0 1-.685-1.007.864.864 0 0 1 1.006-.686z" fill="#E8725F"/><path opacity=".182" d="M296.876 107.613a.779.779 0 0 1-.29 1.529.776.776 0 0 1-.618-.909.78.78 0 0 1 .908-.62z" fill="#E5705E"/><path opacity=".273" d="M296.858 107.693a.695.695 0 0 1-.258 1.365.697.697 0 0 1-.553-.812.697.697 0 0 1 .811-.553z" fill="#E36E5D"/><path opacity=".364" d="M296.847 107.776a.61.61 0 0 1 .486.715.61.61 0 1 1-1.2-.228.611.611 0 0 1 .714-.487z" fill="#E16C5C"/><path opacity=".455" d="M296.829 107.858a.528.528 0 1 1-.197 1.038.528.528 0 0 1 .197-1.038z" fill="#DF6A5B"/><path opacity=".545" d="M296.815 107.939a.45.45 0 0 1 .356.522.45.45 0 0 1-.522.356.448.448 0 0 1 .166-.878z" fill="#DC6759"/><path opacity=".636" d="M296.798 108.02a.363.363 0 1 1-.424.289.364.364 0 0 1 .424-.289z" fill="#DA6558"/><path opacity=".727" d="M296.785 108.101a.28.28 0 1 1 0 0z" fill="#D86357"/><path opacity=".818" d="M296.767 108.182c.106.02.177.124.157.23a.197.197 0 1 1-.157-.23z" fill="#D66156"/><path opacity=".909" d="M296.753 108.266c.062.011.104.07.091.135a.114.114 0 0 1-.133.091.111.111 0 0 1-.091-.133.112.112 0 0 1 .133-.093z" fill="#D35F55"/><path opacity=".9" d="M296.765 108.383a.031.031 0 0 1-.039.025c-.018-.002-.029-.02-.025-.038.002-.018.021-.03.039-.025.016.004.027.022.025.038z" fill="#D15D54"/></g><path d="M295.469 108.526c-.33.151-.537.073-.579-.148-.029-.144.055-.31.146-.39.185-.163.267-.646.269-.65a1.21 1.21 0 0 1-.232.785.247.247 0 0 0-.062.189c.009.163.168.292.458.214z" fill="#BA5F50"/><path d="M294.273 107.063s-.289.009-.331-.099c0 0-.033.153.141.201a.434.434 0 0 0-.086.277c.002.206.133.372.287.369.155-.002.279-.172.277-.378-.005-.206-.133-.372-.288-.37zM296.44 107.029s-.29.009-.332-.099c0 0-.035.152.142.201a.428.428 0 0 0-.086.277c.002.205.132.371.287.369.155-.002.278-.172.276-.378-.004-.208-.132-.372-.287-.37z" fill="#68413A"/><path d="M297.711 108.491s-.119.832-1.421 1.389c-1.147.492-2.265-.27-2.515-.458.389.607 1.077.963 1.713.963 1.896-.002 2.391-1.562 2.391-1.562s.553.015.835-.578c-.49.365-1.003.246-1.003.246z" fill="#BA5F50"/><path d="M294.822 106.482s-.464-.126-1.1.06c0 0-.005-.047.115-.151.112-.095.53-.199.89-.053 0 .002.188.102.095.144zM295.834 106.457s.464-.135 1.102.039c0 0 .003-.046-.119-.148-.115-.093-.535-.19-.891-.035 0 0-.185.104-.092.144z" fill="#7C3425"/><path d="M296.155 108.831s-.736.162-1.426.022c0 0 .131.631.723.62.557-.009.698-.52.703-.642z" fill="#B22828"/><path d="M295.432 109.145c-.455.007-.59-.179-.65-.281.535.098.964.027 1.337-.024-.037.113-.258.299-.687.305z" fill="#fff"/><path d="M298.412 120.274c-3.66.481-5.209 0-5.209 0s-.769 2.319-1.454 4.78c.625.325 1.814.73 3.249.812.132-.396.24-.774.307-.942l.479-.009s.031.343.069.953a18.939 18.939 0 0 0 3.087-.358c-.011-2.06.088-3.797-.528-5.236z" fill="#7D9CC9"/><path d="M295.649 121.513c-1.622 0-2.632-.283-2.647-.287a.06.06 0 0 1-.04-.073.06.06 0 0 1 .073-.04c.022.006 2.268.633 5.454-.002a.057.057 0 0 1 .069.046.06.06 0 0 1-.047.069 14.475 14.475 0 0 1-2.862.287z" fill="#9EB9D8"/><path d="M295.563 124.058h-.003a.584.584 0 0 1-.433-.188c-.179-.199-.243-.553-.208-1.146.031-.523.109-2.109.109-2.125a.056.056 0 0 1 .062-.055.058.058 0 0 1 .055.062c0 .016-.08 1.602-.108 2.127-.031.551.024.889.179 1.059a.485.485 0 0 0 .353.151.057.057 0 0 1 .055.062.063.063 0 0 1-.061.053zM295.709 124.775s-.002 0 0 0a.06.06 0 0 1-.06-.058c.051-1.633.12-4.082.12-4.107 0-.033.029-.057.06-.057.033 0 .057.029.057.059 0 .025-.068 2.474-.119 4.107 0 .034-.027.056-.058.056zM298.682 122.488c-1.191 0-1.341-1.131-1.344-1.142-.004-.029.018-.053.047-.057.031-.005.055.017.06.048.004.042.141 1.051 1.235 1.054.029 0 .053.02.053.048.002.029-.022.049-.051.049zM292.671 122.352a.056.056 0 0 1-.055-.048.054.054 0 0 1 .048-.062c1.132-.131 1.205-.815 1.207-.843a.056.056 0 0 1 .06-.051.054.054 0 0 1 .05.06c-.002.033-.077.803-1.303.944h-.007z" fill="#9EB9D8"/><path d="M298.497 124.441a.332.332 0 0 1-.294.368l-1.261.141a.332.332 0 0 1-.367-.294l-.038-.33a.332.332 0 0 1 .294-.367l1.262-.142a.333.333 0 0 1 .367.295l.037.329zM294.481 124.669a.238.238 0 0 1-.277.186l-1.553-.305a.237.237 0 0 1-.186-.277.237.237 0 0 1 .276-.186l1.554.306c.128.026.21.15.186.276zM291.671 124.722s1.167.67 3.491.973l-.108.518s-2.267-.117-3.518-.969l.135-.522zM295.704 125.699s1.074.066 3.419-.389v.542s-1.461.511-3.368.363l-.051-.516z" fill="#CAE0EF"/><path d="M297.211 120.458l-.293.031.113 1.05.292-.032-.112-1.049zM294.045 120.458l-.152 1.045.291.043.152-1.045-.291-.043z" fill="#6888AF"/><path d="M295.476 121.272a.241.241 0 1 0 0-.482.241.241 0 0 0 0 .482z" fill="#CAE0EF"/><path d="M262.979 139.001c.044 3.045.212 7.051.803 9.94.21 1.021.139 1.059 1.668 1.052 1.625-.009 7.576.033 9.117.029 3.044-.011 3.794-.009 5.095-.471 1.403-.498 2.431-.979 3.816-1.476 1.361-.487 3.11-.364 4.649-.373 3.263-.018 10.259.163 15.649.136 5.391-.028 12.385-.279 15.647-.294 1.539-.009 3.288-.15 4.653.325 1.392.483 2.422.953 3.832 1.436 1.305.449 2.055.44 5.099.42 1.542-.011 7.492-.112 9.118-.121 1.528-.009 1.458-.046 1.656-1.067.563-2.895.688-6.902.702-9.946.013-3.155-.673-10.832-.803-12.325-.203-2.335-1.015-2.959-1.868-4-.975-1.189-1.377-2.017-2.168-3.036-.719-.923-1.421-1.551-2.193-2.381-.384-.413-.609-1.002-.714-1.557-.166-.857-1.952-4.868-3.73-8.09-1.266-2.291-3.035-4.697-3.908-5.615-1.443-1.515-2.466-1.792-3.84-1.942-6.688-.727-13.704-.98-21.732-.938-8.028.042-15.04.365-21.721 1.16-1.372.163-2.393.451-3.82 1.979-.864.927-2.609 3.35-3.851 5.654-1.744 3.24-3.491 7.271-3.648 8.128-.101.555-.32 1.146-.699 1.564-.761.839-1.458 1.474-2.166 2.403-.783 1.025-1.175 1.858-2.137 3.057-.843 1.05-1.648 1.683-1.826 4.02-.119 1.491-.728 9.177-.68 12.329zm10.009-25.3c.607-1.643 1.447-3.934 2.446-5.913a35.481 35.481 0 0 1 3.223-5.188c.699-.923.928-1.008 2.199-1.145 4.852-.52 15.77-.975 22.678-1.01 6.905-.035 17.827.308 22.686.78 1.271.123 1.502.206 2.21 1.122a35.474 35.474 0 0 1 3.276 5.156c1.019 1.97 1.881 4.25 2.505 5.889.208.544.285 1.175-.483 1.151-1.52-.049-12.023-.449-15.179-.552-3.496-.114-11.61-.197-14.947-.18-3.339.018-11.449.182-14.945.332-3.154.136-13.655.641-15.172.705-.77.033-.7-.598-.497-1.147z" fill="#14AFEB"/><path d="M343.928 146.5l-10.514.053.051 9.959a1.581 1.581 0 0 0 1.6 1.56l7.331-.037a1.58 1.58 0 0 0 1.584-1.576l-.052-9.959zM263.479 147.056l10.515-.053.051 9.959c.005.866-.705 1.571-1.584 1.575l-7.331.038a1.58 1.58 0 0 1-1.599-1.56l-.052-9.959z" fill="#192D4B"/><path d="M344.037 146.641l-80.664.413.024 4.691 80.664-.413-.024-4.691z" fill="#192D4B"/><path d="M335.8 115.951c.101.342.307.396.728.344 2.935-.35 5.89-.855 8.218-1.294.439-.082.739-.093 1.005-.48.392-.574.778-1.159.741-1.824-.037-.651-1.064-1.531-1.634-1.792-1.494-.685-3.087-.959-4.796-1.1a8.554 8.554 0 0 0-1.535.002c-.452.045-.564.348-.667.763-.235.948-.342 1.922-.391 2.898-.515-.006-2.095-.111-2.042.481.044.617.204 1.422.373 2.002zM271.529 114.434c.044-.596-1.532-.474-2.047-.463-.059-.979-.175-1.957-.42-2.908-.108-.415-.221-.718-.673-.76a8.722 8.722 0 0 0-1.533.013c-1.707.16-3.295.452-4.779 1.156-.565.268-1.584 1.162-1.614 1.815-.031.669.361 1.252.758 1.826.267.387.569.394 1.007.472 2.327.418 5.285.894 8.218 1.217.423.046.629-.009.723-.354.167-.585.318-1.394.36-2.014z" fill="#14AFEB"/><path d="M263.797 143.439c.476-1.266.835-2.47 1.312-3.741.366-.978 1.066-2.483 1.545-3.429.636-1.255 2.268-1.162 3.545-1.151 1.401.013 4.927.153 6.311.179 1.268.022 2.844-.033 3.276-1.635l23.892-.122 23.891-.121c.45 1.597 2.026 1.637 3.294 1.602 1.384-.04 4.908-.214 6.309-.243 1.277-.024 2.908-.133 3.556 1.116.49.941 1.203 2.437 1.58 3.413.49 1.264.86 2.466 1.35 3.728.193.499.486.769.825 1.038-.107 1.585-.273 3.136-.53 4.455-.199 1.027-.129 1.065-1.665 1.074-1.633.008-7.614.112-9.164.121-3.059.022-3.81.031-5.125-.422-1.414-.486-2.451-.961-3.85-1.447-1.372-.475-3.13-.336-4.677-.327-3.279.018-10.308.269-15.726.298-5.417.027-12.449-.155-15.727-.137-1.548.009-3.308-.115-4.673.376-1.392.499-2.425.985-3.835 1.485-1.308.464-2.062.464-5.121.472-1.549.007-7.53-.037-9.163-.028-1.537.009-1.466-.031-1.676-1.056-.271-1.317-.453-2.866-.574-4.448.343-.274.631-.548.82-1.05z" fill="#0082C8"/><path d="M269.521 143.851c.09-.282 12.423 1.574 33.965 1.466 21.543-.108 33.855-2.088 33.948-1.809.259.777-11.554 3.379-33.939 3.492-22.384.112-34.226-2.373-33.974-3.149z" fill="#14AFEB"/><path d="M279.134 133.186c.293-1.083 1.606-1.855 2.608-2.521a45.72 45.72 0 0 1 2.43-1.511c.25-.144.8-.48 1.209-.552.479-.083 1.314.004 1.782.017a442.656 442.656 0 0 0 10.961.175c.955.004 3.695-.011 5.33-.02 1.638-.009 4.376-.022 5.331-.035a442.697 442.697 0 0 0 10.959-.286c.465-.017 1.301-.113 1.779-.035.41.068.964.4 1.214.539.829.468 1.677.985 2.446 1.487 1.008.657 2.33 1.417 2.634 2.496.326 1.159-.7 2.591-1.301 3.482-1.854 2.759-3.573 5.425-5.837 7.783-.957.995-2.304.984-3.589 1.037-1.746.072-9.209.218-13.554.251-4.344.011-11.808-.061-13.555-.114-1.285-.039-2.632-.013-3.6-1-2.289-2.333-4.035-4.984-5.918-7.724-.602-.886-1.643-2.307-1.329-3.469z" fill="#0082C8"/><path d="M293.829 141.972l19.839-.104a1.148 1.148 0 0 0 1.13-1.16l-.029-5.638a1.145 1.145 0 0 0-1.14-1.148l-19.839.104a1.146 1.146 0 0 0-1.13 1.16l.029 5.637a1.147 1.147 0 0 0 1.14 1.149z" fill="#14AFEB"/><path d="M294.673 139.456v-3.018h1.509v.362h-1.131v1.009h.858v.35h-.858v1.297h-.378zM297.906 138.194c-.051.004-.108.004-.167.004h-.504v1.258h-.549v-3.018h1.056c.789 0 1.274.267 1.274.858 0 .413-.213.678-.586.806l.771 1.211v.141h-.503l-.792-1.26zm-.673-.342h.488c.483 0 .73-.145.73-.53 0-.376-.26-.526-.73-.526h-.488v1.056zM299.704 136.438h1.962v.362h-1.469v.941h1.075v.345h-1.075v1.016h1.52v.354h-2.013v-3.018zM302.22 136.438h1.471v.362h-1.101v.941h.805v.345h-.805v1.016h1.139v.354h-1.509v-3.018zM304.232 136.581v-.143h.442l.536 2.366h.009l.593-2.366h.411l.588 2.366h.009l.536-2.366h.398v.143l-.707 2.875h-.493l-.55-2.275h-.008l-.563 2.275h-.493l-.708-2.875zM307.756 139.315l1.006-2.877h.506l1.002 2.877v.141h-.449l-.283-.846h-1.121l-.274.846h-.389v-.141h.002zm.776-1.048h.889l-.439-1.334h-.009l-.441 1.334zM311.29 139.456v-1.207l-1.02-1.661v-.15h.471l.821 1.368h.005l.802-1.368h.416v.15l-.98 1.648v1.22h-.515zM303.729 127.885a2.516 2.516 0 1 0 0-5.032 2.516 2.516 0 0 0 0 5.032z" fill="#fff"/><path d="M303.478 127.885a2.264 2.264 0 1 0-.001-4.529 2.264 2.264 0 0 0 .001 4.529z" fill="#fff"/><path d="M301.45 125.93c.08.377.252.717.491.998a3.617 3.617 0 0 1 3.527-2.825 1.681 1.681 0 0 0-.109-.131 3.612 3.612 0 0 0-3.909 1.958z" fill="#0046B4"/><path d="M302.646 127.484a2.26 2.26 0 0 0 3.275-2.023c0-.427-.119-.827-.324-1.168a3.62 3.62 0 0 0-2.951 3.191zM304.243 123.651c.319 0 .626.042.92.117a2.256 2.256 0 0 0-3.704 1.193 3.61 3.61 0 0 1 2.784-1.31z" fill="#46B400"/><path d="M282.585 127.694c-.101-.254-1.44-.606-2.362-.86a259.837 259.837 0 0 1-6.3-1.829c-1.492-.463-3.189-1.058-4.6-1.731-.649-.309-1.053-.526-1.792-.367a9.219 9.219 0 0 0-1.891.625c-.316.139-.726.373-.931.627-.187.232-.302.71-.376.986a9.528 9.528 0 0 0-.347 2.133c-.048 1.049.43 1.818 1.447 2.238 1.334.552 2.979.74 4.402.958 1.548.239 3.11.378 4.677.42.856.022 1.674.027 2.497-.236.744-.239 1.332-.528 2.038-.859.741-.349 1.478-.78 2.202-1.123.241-.114 1.487-.607 1.336-.982z" fill="#BAE2EE"/><path d="M268.762 128.891c.972 0 1.761-.901 1.761-2.012 0-1.112-.789-2.013-1.761-2.013-.973 0-1.761.901-1.761 2.013 0 1.111.788 2.012 1.761 2.012zM275.489 129.303a1.843 1.843 0 0 0 0-2.604 1.837 1.837 0 0 0-2.6 0 1.843 1.843 0 0 0 0 2.604 1.837 1.837 0 0 0 2.6 0z" fill="#fff"/><path d="M265.003 127.799c.026.31.367.802.626.956.871.513 2.351.839 3.352 1.029 1.66.315 3.318.473 5.004.588.636.043 1.996.056 2.07-.111.044-.097-.669-.128-1.471-.201-1.551-.143-3.137-.341-4.664-.651-.945-.193-2.464-.611-3.368-1.088-.465-.245-.715-.564-.723-.939-.018-.828.113-1.66.352-2.335.197-.555 1.123-1.194.899-1.188-.284.009-.869.384-1.28.683a1.172 1.172 0 0 0-.356.449c-.245.681-.523 1.78-.441 2.808z" fill="#fff"/><path d="M326.182 128.755c.706.331 1.43.751 2.154 1.09.689.322 1.266.603 1.992.833.805.251 1.599.24 2.433.21a35.54 35.54 0 0 0 4.547-.462c1.382-.232 2.984-.434 4.276-.994.985-.427 1.443-1.194 1.384-2.234a9.737 9.737 0 0 0-.36-2.111c-.075-.274-.191-.745-.375-.972-.202-.248-.603-.478-.913-.611a8.757 8.757 0 0 0-1.847-.602c-.721-.149-1.112.067-1.742.383-1.366.681-3.011 1.287-4.457 1.763a253.458 253.458 0 0 1-6.112 1.876c-.895.261-2.191.622-2.29.874-.145.372 1.075.847 1.31.957z" fill="#BAE2EE"/><path d="M338.445 128.388c1.112 0 2.013-.788 2.013-1.761 0-.972-.901-1.761-2.013-1.761-1.111 0-2.012.789-2.012 1.761 0 .973.901 1.761 2.012 1.761zM334.316 129.002a1.843 1.843 0 0 0 0-2.604 1.837 1.837 0 0 0-2.6 0 1.843 1.843 0 0 0 0 2.604 1.837 1.837 0 0 0 2.6 0z" fill="#fff"/><path d="M341.986 124.544a1.214 1.214 0 0 0-.362-.475c-.414-.313-1.004-.706-1.289-.713-.225-.004.71.665.914 1.255.249.713.386 1.599.377 2.48-.004.399-.25.741-.714 1.006-.9.517-2.418.98-3.366 1.195-1.527.346-3.117.572-4.67.743-.802.087-1.518.127-1.473.23.077.176 1.44.148 2.076.095 1.689-.141 3.351-.33 5.011-.681 1.002-.212 2.483-.574 3.35-1.13.259-.166.597-.694.618-1.022.074-1.096-.217-2.263-.472-2.983z" fill="#fff"/><path d="M288.572 114.132c3.474-.15 11.536-.315 14.853-.333 3.319-.017 11.381.066 14.855.181l1.539.053 1.017 4.475c-4.231.367-9.932.671-17.615.823-7.678-.152-13.375-.456-17.604-.821l1.217-4.299c.697-.033 1.291-.059 1.738-.079z" fill="#5AC8F5"/><path opacity=".3" d="M324.094 99.14l5.42 14.322 1.384 3.655c-1.463.387-3.779.819-7.443 1.208l-1.144-4.854-3.488-14.768c1.788.117 3.542.263 5.271.436zM287.63 99.206l-3.456 14.344-1.149 4.775c-3.675-.383-6-.806-7.47-1.186l1.389-3.598 5.343-13.835c1.756-.197 3.532-.363 5.343-.5z" fill="#fff"/></g><defs><linearGradient id="paint0_linear" x1="322.736" y1="101.597" x2="322.779" y2="106.388" gradientUnits="userSpaceOnUse"><stop stop-color="#7C3425"/><stop offset="1" stop-color="#60261D"/></linearGradient><linearGradient id="paint1_linear" x1="296.283" y1="108.694" x2="297.244" y2="114.791" gradientUnits="userSpaceOnUse"><stop stop-color="#7C3425"/><stop offset="1" stop-color="#60261D"/></linearGradient><linearGradient id="paint2_linear" x1="299.307" y1="116.671" x2="299.454" y2="120.42" gradientUnits="userSpaceOnUse"><stop stop-color="#D17462"/><stop offset="1" stop-color="#BA5F50"/></linearGradient><linearGradient id="paint3_linear" x1="298.019" y1="118.994" x2="295.527" y2="117.823" gradientUnits="userSpaceOnUse"><stop stop-color="#D17462"/><stop offset="1" stop-color="#BA5F50"/></linearGradient></defs></svg>