<svg width="283" height="72" fill="none" xmlns="http://www.w3.org/2000/svg" viewBox="0 0 283 72"><path d="M218.953 41.705h-12.661v29.79h12.661v-29.79zM203.313 27.183h-11.171v44.312h11.171V27.183z" fill="#DDF5FF"/><path d="M200.707 45.802h-21.598v25.693h21.598V45.802z" fill="#DDF5FF"/><path d="M210.388 55.11h-12.66v16.385h12.66V55.11zM184.695 35.375h-8.565v36.12h8.565v-36.12zM170.917 13.777h-18.991v57.718h18.991V13.776zM143.362 0h-11.171v71.495h11.171V0zM129.956 8.937h-13.777v62.557h13.777V8.937z" fill="#DDF5FF"/><path d="M179.109 49.152h-20.108v22.342h20.108V49.152zM150.437 32.023h-10.799v39.471h10.799v-39.47z" fill="#DDF5FF"/><path d="M154.533 59.207h-8.192v12.288h8.192V59.207zM223.049 59.207h-8.193v12.288h8.193V59.207zM143.362 46.546H127.35v24.949h16.012v-24.95zM118.041 38.353H82.293v33.141h35.748v-33.14zM16.757 65.91H0v5.585h16.757v-5.586z" fill="#DDF5FF"/><path d="M82.294 57.345h-6.33v14.15h6.33v-14.15z" fill="#DDF5FF"/><path d="M79.314 35.003H56.228v36.492h23.086V35.003z" fill="#DDF5FF"/><path d="M59.952 8.937H47.29v62.557h12.66V8.937z" fill="#DDF5FF"/><path d="M52.504 48.408H35.375v23.087h17.129V48.408z" fill="#DDF5FF"/><path d="M39.471 31.28H29.79v40.215h9.681V31.28z" fill="#DDF5FF"/><path d="M32.023 19.735H8.192v51.76h23.831v-51.76zM111.711 2.979h-7.075v68.515h7.075V2.98zM91.23 49.152h-5.958v22.342h5.958V49.152zM283 45.802h-9.309v25.693H283V45.802z" fill="#DDF5FF"/><path d="M279.276 35.375h-8.564v36.12h8.564v-36.12zM265.499 14.15h-18.991v57.345h18.991V14.15zM237.944 4.469h-11.172v67.026h11.172V4.47zM224.538 9.31h-13.777v62.185h13.777V9.31z" fill="#DDF5FF"/><path d="M273.691 54.366h-20.108v17.13h20.108v-17.13zM245.018 35.375H234.22v36.12h10.798v-36.12z" fill="#DDF5FF"/><path d="M249.114 65.164h-8.192v6.33h8.192v-6.33zM237.943 51.387h-16.011v20.108h16.011V51.387zM212.622 40.96h-35.747v30.535h35.747V40.961zM111.338 42.45H75.963v29.045h35.375V42.45zM176.875 63.675h-6.33v7.82h6.33v-7.82z" fill="#DDF5FF"/><path d="M173.896 38.727h-23.087v32.768h23.087V38.727z" fill="#DDF5FF"/><path d="M154.533 18.246h-7.448v53.249h7.448V18.246z" fill="#DDF5FF"/><path d="M147.085 53.621h-17.128v17.874h17.128V53.62z" fill="#DDF5FF"/><path d="M134.053 34.63h-9.682v36.864h9.682V34.63z" fill="#DDF5FF"/><path d="M126.605 21.97h-23.832v49.525h23.832V21.97zM206.292 3.352h-7.075v68.143h7.075V3.352zM185.812 54.366h-5.958v17.13h5.958v-17.13z" fill="#DDF5FF"/><path d="M14.522 49.898H0v21.597h14.522V49.897zM32.024 41.333H18.246v30.162h13.778V41.333z" fill="#C8E8F5"/><path d="M48.035 52.504H21.597v18.99h26.438v-18.99z" fill="#C8E8F5"/><path d="M25.321 58.09H9.681v13.405h15.64V58.09zM51.76 46.546H41.332v24.949h10.426v-24.95zM81.549 33.513h-23.46v37.981h23.46V33.513zM106.125 11.916h-14.15v59.579h14.15V11.916zM125.861 35.747h-16.757v35.747h16.757V35.747z" fill="#C8E8F5"/><path d="M72.984 54.738H48.036v16.757h24.948V54.738zM96.816 44.312H83.41v27.182h13.405V44.312z" fill="#C8E8F5"/><path d="M88.251 60.696H78.57v10.799h9.681V60.696zM111.711 53.249H91.975v18.246h19.736V53.25zM167.566 48.035h-43.94v23.46h43.94v-23.46zM283 55.855h-34.258v15.64H283v-15.64zM175.758 59.58h-8.192v11.915h8.192V59.579z" fill="#C8E8F5"/><path d="M200.334 46.174h-28.672v25.32h28.672v-25.32z" fill="#C8E8F5"/><path d="M204.43 35.003h-8.936v36.492h8.936V35.003zM226.028 54.366H204.43v17.13h21.598v-17.13z" fill="#C8E8F5"/><path d="M232.73 43.94h-12.288v27.555h12.288V43.939z" fill="#C8E8F5"/><path d="M259.541 37.237h-29.417v34.258h29.417V37.237z" fill="#C8E8F5"/><g clip-path="url(#clip0)"><path d="M64.516 68.676c.261.26.35 1.485.35 1.847 0 .365-.204.755-.45.77-.246.015-7.712.116-7.712.116s-.38-.1-.465-.581c-.086-.48.566-.786 1.046-.786.48 0 1.411-.465 1.791-.8.38-.336.938-.961 1.475-1.032.536-.074.566-.115 1.117-.115.547 0 2.848.58 2.848.58z" fill="#AF1015"/><path d="M65.079 66.442l-.983 2.316s-1.281.589-2.28.13c-.789-.364-.498-.413-.498-.413l1.87-3.273 1.89 1.24z" fill="#FAA284"/><path d="M73.792 67.097c.31-.074.63.175.756.5.123.323.112.856.175 1.057.067.197.317.778 0 .901s-4.357 1.63-5.25 1.717c-.894.085-2.827-.012-2.938-.16-.112-.15-.038-.894.346-1.166.383-.272.767.175.968-.112.197-.287 2.577-2.67 2.778-2.819.205-.148.339-.223.674-.223s2.491.305 2.491.305z" fill="#AF1015"/><path d="M72.649 63.62s.2.986.588 1.734c.387.749.749 1.609.741 1.736-.007.111-.622.789-1.448.789-.827 0-1.441-.845-1.56-1.028-.068-.104-.485-2.696-.485-2.696l2.164-.536z" fill="#FAA284"/><path d="M75.028 50.53s-5.056 7.619-5.686 8.881c-.629 1.263-2.953 6.211-3.139 6.684-.19.47-.476 1.084-.655 1.084-.179 0-.335-.454-1.34-.972-1.006-.517-1.349-.674-1.382-.894-.03-.22 1.035-2.807 1.474-4.047.44-1.24 1.538-4.707 1.914-5.65.377-.941 4.003-7.335 4.003-7.335l4.811 2.25z" fill="#192A57"/><path d="M71.3 41.077c.288.52 1.323 2.625.984 3.116-.339.492-6.126 8.11-6.598 9.213-.477 1.102-.388 1.914.104 2.934.491 1.016 3.578 6.99 3.645 7.31.067.323-.018.71.172.744.186.034 1.016.067 1.731-.085.715-.153 1.393-.358 1.579-.592.186-.239-1.102-4.056-1.46-4.953-.357-.897-1.374-3.053-1.254-3.325.119-.272 2.532-2.033 3.813-3.608 1.28-1.576 2.587-3.523 3.254-3.951.666-.428 1.627-1.069 1.87-2.242.241-1.173.334-3.217.264-3.925-.071-.707-2.871-2.61-4.517-2.498-1.646.111-3.586 1.861-3.586 1.861z" fill="#223A78"/><path d="M73.494 31.7s1.244.369 1.717 1.14c.473.77 2.942 6.375 2.942 6.375l-3.344-3.013-1.315-4.502z" fill="#FAA284"/><path d="M65.886 27.503c1.296-.182 1.967-.312 2.45-.178.485.137 4.987 3.582 4.987 3.582s3.493 6.323 4.275 7.198c.364.406.793 1.165 1.11 1.876 0 .268.036.704.055.894.026.25.138.283.16.749-.625-.153-2.472-1.594-3.102-1.624-.692-.03-.45.693-1.296.693-.841 0-.692-.15-1.597-.12s-1.415.693-1.806.935c-.391.242-1.717.242-1.776-.875-.06-1.113.752-1.266 0-1.929s-2.44-3.22-2.86-4.126c-.42-.905-1.571-2.01-2.23-2.584-.66-.573-1.337-1.635-1.367-2.174-.026-.54 1.702-2.138 2.997-2.317z" fill="#FB0"/><path d="M78.767 40.875c-.019-.19-.056-.63-.056-.894-.317-.711-.745-1.467-1.11-1.877-.756-.841-4.029-6.75-4.263-7.171l-3.277-1.114-1.888.525s1.355 3.947 4.222 5.616c1.635.95 2.466 2.807 2.909 4.278.108-.138.234-.25.517-.238.63.026 2.477 1.47 3.102 1.623-.019-.465-.13-.499-.156-.748z" fill="#EBAC00"/><path d="M76.562 29.53s.82.293 1.397.636c.428.257.808 1.944.975 2.662.157.663.704 3.166.864 4.327.16 1.162.123 1.572.272 1.642.149.071.26.581.209.939-.049.357-.31 1.482-.298 1.977.01.495.026 1.52-.064 1.817-.085.298-.309 1.3-.532 1.3-.224 0-.443-1.333-.443-1.843 0-.507.026-1.583-.112-1.855-.138-.271-.149-1.582-.1-2.003.048-.42-.943-3.973-1.296-4.68-.35-.708-1.21-2.41-1.441-2.693-.228-.28-.492-1.28-.335-1.739.17-.45.904-.488.904-.488z" fill="#FAA284"/><path d="M68.337 27.325c.48.033 1.59.681 2.037 1.031.446.35 3.641.35 4.427.533.786.182 1.97.424 2.163.652.194.23-.737.134-.714.882.022.749.193 1.888-.038 1.9-.23.01-1.173-.303-1.824-.41-.652-.108-6.074.238-6.956-.578-.883-.815-1.393-1.49-1.195-2.148.2-.66.309-1.981 2.1-1.862z" fill="#FB0"/><path d="M62.152 31.815s-2.32.753-4.216-1.243c-1.895-1.996-1.18-3.385-.93-3.549.249-.164.566-.302.99-.357.428-.056 4.074 4.516 4.156 5.15z" fill="#7A2C21"/><path d="M61.303 31.387s-.063-.525.167-.912c.004 0 .298.54-.167.912z" fill="#B22828"/><path d="M60.67 30.989s.138.104.212.134c0 0 .417-.384.533-.83l-.142-.094-.603.79z" fill="#F2F0F2"/><path d="M57.449 26.647c-.246-1.106 1.523-3.02 2.916-3.173 1.392-.149 3.366.901 4.308 1.758.942.856 1.352 1.586 2.186 1.65.834.063 2.144.279 2.208.49.063.217-2.529-.021-2.786.902-.257.92-.342 1.672-.856 1.82-.514.15 0 2.056-.108 2.488-.108.432-.287 1.218-.696 1.18-.41-.037-.201-.811-.35-1.15-1.27-2.852-2.652-2.067-2.964-2.826-.313-.764-3.657-2.245-3.858-3.14z" fill="#9B4135"/><path d="M62.755 28.214s-.171-.402.097-.707c.186-.212-.395-1.166-.804-1.132-.41.033-.525.313-.462.558.067.246-2.357.827-3.597.246-.212-.1.246 1.825.544 1.94.294.116.573.265.592.376.014.116.13 1.412.312 1.412.183 0 .525-.164.607-.164.038 0 .317.152.619.339l.636-.667s.324.44-.063 1.106c.04.037.175.1.19.127.13.212.346.41.707.327.361-.082 1.315-2.07 1.266-2.644-.052-.573-.644-1.117-.644-1.117z" fill="#FAA284"/><path d="M102.922 58.95c0 6.3 5.109 11.41 11.41 11.41 6.3 0 11.409-5.11 11.409-11.41s-5.109-11.409-11.409-11.409c-6.301-.004-11.41 5.105-11.41 11.41zM182.327 58.95c0 6.3 5.109 11.41 11.409 11.41 6.3 0 11.409-5.11 11.409-11.41s-5.109-11.409-11.409-11.409c-6.3-.004-11.409 5.105-11.409 11.41z" fill="#192D4B"/><path d="M85.984 44.48l124.985 1.057 12.575 18.157-2.64 2.39-6.144 1.508H101.612l-9.968-2.472-9.935-3.82-2.514-4.04 6.789-12.78zM182.9 39.87c-1.196-.566-16.034-8.11-20.466-10.184-2.956-1.382-6.914-2.201-6.914-2.201l.219-.63c14.147 1.888 32.534 12.825 32.534 12.825s-4.182.756-5.373.19zM98.685 36.049c1.56-.566 12.233-4.48 18.027-6.554 3.861-1.381 9.041-2.2 9.041-2.2l1.605-.723C107.317 28.32 88.222 37.04 88.222 37.04s8.903-.424 10.463-.99z" fill="#192D4B"/><path d="M77.75 48.59l2.052-1.19.246-6.778-.264-.901a1.47 1.47 0 0 1 1.038-1.84L91.805 35s5.488.201 6.319.06c20.242-7.92 29.104-9.335 41.806-9.335 13.833 0 20.119.126 43.414 13.52.801.462 6.505-.316 6.505-.316 12.884.536 29.928 6.788 34.735 11.692 1.366 1.337 1.888 1.918 1.914 4.137.026 2.22-1.445 8.33-1.445 8.33s-.942 1.255-3.78 1.36c-2.837.1-6.311.226-6.311.226l-2.119-.01-3.187.066v-4.744c0-7.34-6.007-13.483-13.342-13.342-7.109.138-12.832 5.943-12.832 13.085v5.467l-60.774-.76v-4.45c0-7.34-6.007-13.483-13.342-13.342-7.109.138-12.832 5.943-12.832 13.085v4.119c-9.399-1.441-16.284-3.445-17.714-5.683-1.798-2.819-1.069-9.573-1.069-9.573z" fill="#14AFEB"/><path d="M98.209 59.892c0 6.3 5.108 11.41 11.409 11.41 6.3 0 11.409-5.11 11.409-11.41s-5.109-11.41-11.409-11.41c-6.301 0-11.41 5.11-11.41 11.41z" fill="#192D4B"/><path d="M101.143 59.892a8.475 8.475 0 1 0 16.95 0 8.475 8.475 0 0 0-16.95 0z" fill="#14AFEB"/><path d="M109.618 62.16a2.268 2.268 0 1 0 0-4.537 2.268 2.268 0 0 0 0 4.537zM185.156 59.892c0 6.3 5.109 11.41 11.41 11.41 6.3 0 11.409-5.11 11.409-11.41s-5.109-11.41-11.409-11.41c-6.301 0-11.41 5.11-11.41 11.41z" fill="#192D4B"/><path d="M188.09 59.892a8.475 8.475 0 1 0 16.95 0 8.475 8.475 0 0 0-16.95 0z" fill="#14AFEB"/><path d="M194.302 59.892a2.267 2.267 0 0 0 2.267 2.268 2.263 2.263 0 0 0 2.264-2.268 2.26 2.26 0 0 0-2.264-2.264 2.264 2.264 0 0 0-2.267 2.264zM108.962 33.834c15.513-5.526 22.722-6.1 31.875-6.13 13.674-.044 20.276 1.889 39.564 12.665.294.287.518 1.974.518 1.974s-47.812-2.849-66.956-4.17c-1.288-.09-4.152-2.239-5.001-4.339z" fill="#192D4B"/><path d="M96.533 59.729v4.118c-8.851-1.355-15.468-3.21-17.405-5.291l17.42.555c-.011.204-.015.41-.015.618zM209.655 64.726v-2.011l15.293.488c-.313.312-1.367 1.158-3.675 1.24-2.838.1-6.312.227-6.312.227l-2.119-.011-3.187.067zM122.707 59.944l60.774 1.937v3.314l-60.774-.76v-4.49z" fill="#0082C8"/><path d="M79.27 58.697l-.011-.01s-.004-.005-.004-.008c.004.007.011.014.015.018zM80.469 59.568l.134.079-.134-.079zM80.107 59.349l.216.134a3.428 3.428 0 0 1-.216-.134zM80.774 59.743zM79.385 58.806l.063.055c-.022-.022-.04-.037-.063-.055zM79.877 59.192l.1.067a1.168 1.168 0 0 1-.1-.067zM79.668 59.04l.074.056-.074-.056z" fill="#000"/><path d="M212.008 47.53s2.331 3.853 3.616 4.494c3.962 1.98 7.499 2.368 7.719 2.368.566-2.06.201-3.381.201-3.381-2.812-1.962-7.168-3.202-11.536-3.482z" fill="#fff"/><path d="M222.036 58.484c1.05 1.058 1.873 3.66 1.873 3.66s-4.994-.327-6.074-.841c-1.497-.715-2.282-5.433-2.282-5.433s5.518 1.642 6.483 2.614z" fill="#0082C8"/><path opacity=".4" d="M77.75 48.591l2.052-1.192 12.84-.856s-1.78.834-5.977 1.247c-5.455.537-8.915.801-8.915.801z" fill="#fff"/><path d="M80.044 40.623l-.294-.995a.909.909 0 0 1 1.006-1.154l7.078 1.05-7.79 1.099z" fill="#0082C8"/><path d="M147.368 45.459h-4.338l.741-18.604h2.942l.655 18.604z" fill="#14AFEB"/><path d="M61.556 26.614s-.153.238.335.852c.484.615.666.522.726.5 0 0 .633-.362-.022-1.356-.548-.823-1.04.004-1.04.004z" fill="#FAA284"/><path d="M62.248 27.575s.179-.544-.286-.443c0 0-.324-.51.01-.66.336-.149.533.432.567.559.07.272-.034.797-.29.544z" fill="#DB7C65"/><path d="M59.899 28.926c-.153-.149-.343-.201-.428-.112-.086.086-.034.28.119.429.153.149.342.2.428.111.086-.09.03-.279-.119-.428z" fill="#502F26"/><path d="M59.556 27.827c-.026.019-.834.242-.793.827.008.09.108.115.108.115.25-.417.685-.942.685-.942z" fill="#89493D"/></g><defs><clipPath id="clip0"><path fill="#fff" transform="translate(56.227 23.459)" d="M0 0h170.269v47.954H0z"/></clipPath></defs></svg>