<svg width="761" height="226" fill="none" xmlns="http://www.w3.org/2000/svg" viewBox="0 0 761 226"><mask id="a" maskUnits="userSpaceOnUse" x="0" y="0" width="761" height="226"><path d="M761 0H0v226h761V0z" fill="#F5FCFF"/></mask><g mask="url(#a)"><path d="M785.129 173.245v-27.34s-72.954-20.029-235.802-13.703c46.177-.445 134.665 4.669 235.802 41.045" fill="#00AA1D"/><path d="M449.348 136.896l-15.268 1.285-.047.006c147.162 8.968-155.281 171.863-155.281 171.863h170.594s152.859-175.174 0-173.156" fill="#fff"/><path d="M514.191 133.917l-64.843 2.98c152.859-2.018 0 173.156 0 173.156H785.13v-83.466c-46.654-55.704-179.864-98.021-270.939-92.67z" fill="#004EBB"/><path d="M434.034 138.187c147.161 8.967-155.283 187.772-155.283 187.772l-373.233-15.908 145.1-18.368s-119.421-1.905 11.807-6.855c147.386-25.517 290.44-137.834 371.609-146.641z" fill="#00AA1D"/><path d="M549.33 132.202c-11.314.44-23.026 1.012-35.136 1.716 1.258-.075 2.515-.133 3.764-.188.905-.039 1.817-.07 2.728-.101.137-.004.272-.01.408-.013 90.854-2.897 218.536 38.639 264.039 92.973v-53.341c-101.136-36.375-189.626-41.491-235.803-41.046z" fill="#fff"/><path d="M-400.069 285.571l-12.594-61.945s80.354-44.401 238.36-54.15c82.789-8.344 291.191 23.839 291.147 34.659-.031 6.479-516.913 81.436-516.913 81.436z" fill="#00AA1D"/><path d="M429.716 216.316L-152.349 241-390 227.86s534.235-78.598 568.609-78.773c58.617-.3 96.706-23.665 165.263-25.96 37.697-1.26 72.449 7.017 96.128 17.125l-10.284 76.064z" fill="#00AA1D"/><path d="M-146 319c0-35.673 2.194-78.793 54.18-100.405 92.629-38.499 287.371-54.047 290.077-59.969 3.452-7.532-93.249-8.33-93.414-8.33 0 0 183.445-9.145 185.219 9.067 1.158 11.868-68.135 26.955-60.093 35.449 15.979 16.824 246.995 69.01 476.128 93.906l.903 29.975-853 .307z" fill="#fff"/><path d="M131.249 151.408s139.757-3.884 133.255 12.316c-3.628 9.043-78.091 22.999-83.441 36.283C163.493 243.739 583 313.547 583 313.547L553.308 321l-600.17-1.914c-28.845-28.868-27.728-68.382-6.88-88.796 42.723-41.826 262.619-59.185 266.88-69.752 3.208-7.986-81.889-9.13-81.889-9.13z" fill="#0047B8"/><path d="M128.247 188.064c-.639-4.074 21.636-10.949 49.752-15.354 28.116-4.406 51.425-4.675 52.064-.6.638 4.074-21.637 10.948-49.752 15.353-28.116 4.406-51.426 4.675-52.064.601z" fill="#000" fill-opacity=".4"/><path d="M220.694 139.593c-.957 0-6.154.657-7.029.958 7.85-.246 13.84 8.205 13.84 16.575s-2.954 17.041-13.293 17.177c.903.274 5.552.52 6.51.52 6.81-.082 12.336-8.041 12.336-17.779 0-9.737-5.526-17.533-12.364-17.451z" fill="#00699B"/><path d="M215.169 139.676c.957 0 5.689-.356 6.592-.082-7.85-.028-13.375 9.436-13.375 17.779 0 8.369 3.063 17.56 13.402 17.423-.903.301-5.634.082-6.592.082-6.81.082-12.363-7.713-12.363-17.451 0-9.71 5.525-17.669 12.336-17.751z" fill="#00699B"/><path d="M220.75 174.932c7.276-.11 13.211-8.151 13.211-17.971 0-9.819-5.935-17.697-13.239-17.615-7.275.11-13.211 8.151-13.211 17.971 0 9.819 5.936 17.724 13.239 17.615zm-.164-32.823c5.826-.082 10.558 6.537 10.558 14.715 0 8.206-4.732 14.935-10.558 15.017-5.826.082-10.558-6.537-10.558-14.716.027-8.205 4.759-14.934 10.558-15.016z" fill="#0094DA"/><path d="M232.127 157.4c0-8.424-5.088-15.29-11.324-15.29s-11.296 6.866-11.296 15.29c0 8.425 5.06 15.29 11.296 15.29s11.324-6.865 11.324-15.29zm-1.969 0c0 7.385-4.185 13.375-9.355 13.375-5.142 0-9.354-6.017-9.354-13.375 0-7.385 4.185-13.375 9.354-13.375 5.17 0 9.355 5.99 9.355 13.375z" fill="#12BAED"/><path d="M188.638 151.272l-1.559 5.388 32.604 4.458c.301.028.575.028.848 0a4.434 4.434 0 0 0 1.559-.465c1.176-.601 1.997-1.695 2.353-3.09.355-1.423.164-2.982-.548-4.404-1.066-2.106-3.118-3.419-5.196-3.364l-30.061 1.477zm-.957-1.259l30.963-1.531c2.489-.082 5.06 1.449 6.4 4.075 1.805 3.501.766 7.631-2.325 9.245a5.816 5.816 0 0 1-1.996.602c-.383.027-.739.055-1.122 0l-34.163-4.65 2.243-7.741z" fill="#00699B"/><path d="M212.763 142.765l-1.942-3.802-.137-.301 7.467 14.989-33.069 4.623.274 1.504 36.078-4.622-7.905-16.767" fill="#00699B"/><path d="M213.118 156.852c.137 4.978 3.118 8.889 6.674 8.78 3.556-.109 6.318-4.157 6.182-9.081-.137-4.896-3.119-8.862-6.674-8.807-3.529.054-6.319 4.13-6.182 9.108z" fill="#00699B"/><path d="M214.24 156.824c.109 4.185 2.571 7.495 5.525 7.385 2.954-.109 5.224-3.528 5.115-7.658-.109-4.13-2.598-7.467-5.525-7.413-2.954.055-5.224 3.501-5.115 7.686z" stroke="#04BAEE" stroke-width="2.657" stroke-miterlimit="10"/><path d="M143.233 159.286l12.39-30.716-2.708-1.614-13.129 34.245 3.447-1.915z" fill="#0094DA"/><path d="M146.486 147.17l-5.689 14.332-.985-.136 6.073-17.287.601 3.091z" fill="#04BAEE"/><path d="M145.286 144.571l4.212 1.203.766-2.16-4.213-1.204-.765 2.161z" fill="#0094DA"/><path d="M191.947 130.594s-13.676-7.741-16.056-4.842c-5.962 7.331-1.641 14.743-1.641 14.743l9.874 2.435 8.069-12.09-.246-.246z" fill="#626E97"/><path d="M159.479 103.241l-5.306-.903c-1.887-.328-3.665.875-3.993 2.681-.329 1.805.902 3.528 2.79 3.829l5.689.985a5.257 5.257 0 0 0 1.067-1.696c.656-1.559.547-3.419-.247-4.896z" fill="#796188"/><path d="M159.617 103.404a779.395 779.395 0 0 0 6.482 3.802c2.954-1.832 5.908-3.61 8.862-5.388 1.477-.903 2.79.219 2.927 2.434.109 2.243-.985 4.76-2.489 5.662a644.68 644.68 0 0 0-9.847 6.045c-.52.328-1.039.41-1.477.274-.109-.028-.191-.083-.273-.11-2.517-1.422-5.006-2.844-7.522-4.267 1.559-2.161 3.008-5.525 3.337-8.452z" fill="#796188"/><path d="M189.759 134.723c-.547-1.395-.137-2.954 1.012-3.966 3.145-2.68 6.318-5.333 9.464-7.959l2.79-2.298c1.586-1.285 3.993-1.121 5.443.356 1.422 1.477 1.313 3.72-.274 5.033l-3.692 3.036c-2.216 1.832-4.404 3.692-6.62 5.552.794 4.978 1.614 9.956 2.407 14.907-2.489.684-1.832.301-4.403.793-2.052-5.087-4.076-10.257-6.127-15.454z" fill="#455B8C"/><path d="M198.95 153.16s.985 4.021.547 4.923c-.41.903-5.388 4.76-9.382 4.951-3.993.191-2.407-3.528-.683-5.58 1.723-2.051.82-.93.82-.93-.602-1.805-1.203-3.638-1.805-5.443 2.899-1.094 5.826-2.161 8.725-3.227a570.76 570.76 0 0 1 1.778 5.306z" fill="#fff"/><path d="M171.625 112.35c3.036-3.747 5.991-7.576 9.382-10.968-.793 1.969.547 4.376 1.888 5.771-2.955 3.966-4.869 7.44-8.179 11.543-.848-1.805-2.051-3.966-3.091-6.346z" fill="#796188"/><path d="M181.007 101.382c.93-.93 1.888-1.833 2.872-2.68 1.45.273 3.091.82 4.596 1.941-1.86 1.723-4.213 4.677-5.717 6.701-1.34-1.394-2.598-3.61-1.751-5.962z" fill="#6C567C"/><path d="M182.073 98.485c.547.028 1.148.082 1.805.192-4.677 3.993-8.397 8.889-12.254 13.649-.957-2.216-1.723-4.65-1.86-7.221 3.912.82 10.257-3.31 12.309-6.62z" fill="#796188"/><path d="M180.049 98.565s.821-.137 2.052-.082c-2.544 4.02-7.167 7.768-12.282 6.646-.027-.355-.027-.684-.027-1.039.055-4.267 4.923-5.115 10.257-5.525z" fill="#F7C6A5"/><path d="M175.645 121.102c-.164-.711-.602-1.668-1.012-2.544 4.978-6.209 8.315-12.773 13.813-17.915 1.805 1.367 3.419 3.528 4.185 7.029 1.34 6.127 3.747 11.324 3.993 15.372-6.318.547-14.442 1.915-19.147 2.38-.847-1.395-1.477-2.9-1.832-4.322z" fill="#796188"/><path d="M196.653 123.017c.109 1.669-.164 3.146-.985 4.404-.711 1.067-3.556 1.696-4.923 2.517-3.064 1.832-6.018 1.586-8.507.164-1.887-1.067-3.528-2.79-4.704-4.732 6.209-1.641 12.664-2.462 19.119-2.353z" fill="#626E97"/><path d="M180.57 124.659c.656-.137 1.34-.274 1.996-.411 0-.027-1.258-4.102-3.665-9.901-2.352-5.689-2.844-9.683-2.899-10.093-.629.328-1.477.492-2.106.82.027.165.574 4.131 3.009 10.121 2.379 5.826 3.637 9.436 3.665 9.464z" fill="#6C567C"/><path d="M189.65 135.024c10.831-1.45 21.635-2.79 32.467-4.048a3.588 3.588 0 0 1 3.966 3.118c.219 1.942-1.176 3.72-3.146 3.966a2263.3 2263.3 0 0 0-19.064 2.462c-1.641 2.024-2.817 5.142-2.462 9.846.985 12.555-1.121 11.297-5.716 12.309-4.596 1.012-19.885 2.927-21.527 2.735-1.613-.219-8.096 1.614-8.971-1.34-.875-2.845-18.107-30.334-18.107-30.416 11.351.93 31.181.438 42.56 1.368zm-20.624 19.037l2.872-12.801-11.16.684 8.288 12.117z" fill="#00699B"/><path d="M179.474 82.453s2.571 1.778 3.474 4.814c.902 3.036 1.258 8.78.027 10.34-1.231 1.558-12.336 7.193-14.634 6.509-2.27-.711-3.637-2.571-3.911-3.583-.273-1.012-.164-1.915-.164-1.915s-.684-2.598-.739-5.251c-.027-2.654.247-3.2.247-3.2s.465-4.76 4.185-7.55c5.114-3.802 11.515-.164 11.515-.164z" fill="#27365C"/><path d="M169.765 104.09c-.602.11-1.094.137-1.395.055-2.27-.711-3.638-2.571-3.912-3.583-.273-1.012-.164-1.915-.164-1.915s-.684-2.598-.738-5.252c-.028-2.653.246-3.2.246-3.2s.465-4.759 4.185-7.549c1.532-1.149 3.173-1.614 4.732-1.723-2.052 1.176-4.623 3.282-5.279 6.51-1.149 5.634-.082 10.995 1.285 14.25a58.706 58.706 0 0 0 1.04 2.407z" fill="#314474"/><path d="M163.803 90.195s0-.11.027-.273c1.395.027 3.829-.028 7.221-.602 4.157-.711 6.017-1.286 6.811-1.587 2.379.684 3.966 3.337 2.27 5.854-.985 1.313-1.395 1.996-4.185 3.145-2.626 1.231-8.069 4.048-11.707 2.079v-.164s-.684-2.599-.738-5.252c0-2.626.301-3.2.301-3.2z" fill="#D0E2E5"/><path d="M196.925 158.904c-.438.684-.219 1.614.465 2.052.683.437 1.613.218 2.051-.465l1.641-2.571c.438-.684.219-1.614-.465-2.052-.684-.438-1.614-.219-2.051.465l-1.641 2.571z" fill="#04BAEE"/><path d="M177.396 170.009c9.409-1.915 20.623-6.1 20.76-6.155l-.766-2.324c-.109.054-11.132 4.184-20.377 6.044-2.051.411-4.732-.41-6.209-2.899-1.532-2.626-3.31-6.756-4.267-9.464-.848-2.352-.875-3.364-.82-3.692l2.27-1.259-1.094-2.16-2.435 1.34c-.246.109-.574.355-.793.82-.547 1.122-.328 2.954.711 5.799 1.04 2.927 2.845 7.112 4.486 9.874 2.434 4.322 6.4 4.513 8.534 4.076z" fill="#5BC4F1"/><path d="M166.838 162.213c1.614 2.434 2.352 4.431 5.115 6.127 2.762 1.696 5.58.355 11.077-1.012 5.061-1.258 13.403-4.267 14.689-4.732l.41 1.258c-.11.055-11.351 4.24-20.76 6.154-2.107.438-6.1.246-8.616-4.048a47.27 47.27 0 0 1-1.915-3.747z" fill="#04BAEE"/><path d="M195.834 160.79l1.367-1.04 27.407-10.476-1.969 9.109-24.015 7.522-1.86-.192c-.465.082-1.04-.93-1.286-2.298-.273-1.367-.109-2.543.356-2.625z" fill="#04BAEE"/><path d="M224.223 150.287l-26.86 10.285s-.192.738.027 1.148l25.438-8.342 1.395-3.091z" fill="#5BC4F1"/><path d="M222.555 153.542c-.575 2.516-.547 4.677.082 4.841.629.164 1.641-1.75 2.215-4.267.575-2.516.547-4.677-.082-4.841-.082-.027-.164 0-.246.027-.656.301-1.477 2.024-1.969 4.24z" fill="#00699B"/><path d="M171.627 156.47s1.121-.11 3.719-.821c2.435-.684 3.447-1.258 3.447-1.258.766-.492 1.176-1.039.984-1.587l-2.926-8.041c-.41-1.204-.821-1.586-1.614-1.368 0 0-2.516.383-5.306 1.204-2.927.848-4.404 1.449-4.404 1.449-1.286.575-1.039 1.45-.739 2.052l4.103 7.795c.438.903 1.505.684 2.736.575z" fill="#04BAEE"/><path d="M174.934 143.696c.356-.191.766-.246 1.177-.246.273.192.519.602.738 1.258l2.927 8.042c.027.109.054.246.027.356-2.954 3.282-4.239-2.49-6.099-6.319-1.259-2.68.164-2.489 1.23-3.091z" fill="#5BC4F1"/><path d="M176.548 143.995c.082.164.164.383.273.602l-11.925 3.638-.11-.192-.164-.41 11.926-3.638zM177.26 145.828l-11.762 3.583-.301-.574 11.844-3.638.219.629zM177.697 147.059l-11.57 3.528-.328-.574 11.679-3.583.219.629zM178.162 148.291l-11.433 3.474-.301-.574 11.515-3.529.219.629zM178.601 149.493l-11.242 3.447-.301-.575 11.324-3.473.219.601zM179.064 150.725l-11.077 3.391-.328-.574 11.159-3.419.246.602zM179.502 151.957l-10.914 3.337-.3-.574 10.995-3.365.219.602zM179.721 152.584l.082.191a.9.9 0 0 1 .028.465l-10.367 3.173a1.244 1.244 0 0 1-.547-.519l10.804-3.31z" fill="#00699B"/><path d="M166.073 120.063c.492.109.984-.137 1.203-.602 1.176-2.653 2.818-4.294 4.924-4.951 2.899-.875 5.716.465 5.744.465a1.103 1.103 0 0 0 1.422-.465 1.017 1.017 0 0 0-.465-1.395c-.137-.082-3.583-1.723-7.303-.601-2.708.82-4.814 2.899-6.264 6.127-.246.519 0 1.148.547 1.367a.499.499 0 0 0 .192.055z" fill="#5BC4F1"/><path d="M175.289 113.199a2.065 2.065 0 0 0 1.587 2.461l8.561 1.833c1.121.246 2.27-.465 2.516-1.586a2.065 2.065 0 0 0-1.586-2.462l-8.561-1.833c-1.149-.246-2.271.465-2.517 1.587z" fill="#00699B"/><path d="M159.863 115.687c-.438-.137-.657-.548-.465-.958 1.067-2.352 1.067-4.239-.055-5.58-1.532-1.887-4.677-2.188-4.704-2.188-.575-.055-.903-.492-.712-.957.192-.465.821-.821 1.395-.766.165.027 4.021.383 5.991 2.79 1.449 1.778 1.504 4.103.191 6.975-.219.465-.848.793-1.422.711-.082 0-.164 0-.219-.027z" fill="#5BC4F1"/><path d="M158.085 106.497c-.273.848-1.313 1.368-2.325 1.149l-7.549-1.696c-1.012-.218-1.586-1.094-1.313-1.969.274-.848 1.313-1.368 2.325-1.149l7.549 1.696c1.012.219 1.587 1.094 1.313 1.969z" fill="#00699B"/><path d="M203.298 138.58c.629-.957 1.86-2.079 5.17-3.966 3.009-1.723 7.221-3.255 12.363-2.982 3.446.192 6.729.794 9.136 1.833 3.063 1.313 4.677 3.364 3.364 6.209-.356.738-.711 1.203-1.121 1.559 0 0-.575.465-1.368.684-2.134.574-6.592-2.571-11.078-2.735-4.02-.137-8.917 2.27-9.628 2.516-.848.301-1.723.547-2.571.875-1.34.52-3.282 2.079-4.349.301-.875-1.504-.355-3.61.082-4.294zM135.274 141.7s16.247-4.158 23.906 7.194c0 0 1.614 4.212 4.431 3.309 2.817-.902 1.094-6.92.164-8.999-1.641-3.637-9.573-7.768-16.083-8.151-6.51-.41-14.031 2.38-16.083 3.775-2.051 1.395-.793 4.458 3.665 2.872z" fill="#5BC4F1"/><path d="M155.35 104.717c-.218 1.34-1.641 2.325-3.172 2.188l-3.173-.301c-1.532-.137-2.599-1.34-2.38-2.68.219-1.341 1.641-2.325 3.173-2.189l3.173.301c1.532.137 2.598 1.34 2.379 2.681z" fill="#F7C6A5"/><path d="M193.123 149.604s7.604-1.614 7.85 3.063c.219 4.596.219 8.042-8.069 8.644-8.287.602-11.214-.876-12.445-2.544-.684-.93-1.996-3.911 2.489-5.99 4.677-2.161 6.291-2.38 10.175-3.173z" fill="#04BAEE"/><path d="M181.308 155.457c-.164-.519-.164-1.258.328-1.969.383-.246.821-.52 1.34-.766 4.65-2.161 6.264-2.352 10.148-3.173 0 0 2.517-.519 4.787-.082 1.231 1.258 1.203 2.544 1.039 3.583-.492 2.982-.465 5.115-7.549 5.58-4.841.356-9.136-.355-10.093-3.173z" fill="#5BC4F1"/><path d="M198.484 144.762s-.082 3.638-.629 4.485c-.547.848-.355.903-5.525 1.724-3.063.492-4.787.41-6.017.054a2.316 2.316 0 0 1-1.478-1.285l-1.805-4.048c-.465-1.04.137-2.243 1.286-2.653 1.86-.63 4.677-1.313 7.412-1.532 5.826-.465 6.811-1.067 6.756 3.255z" fill="#5BC4F1"/><path d="M184.482 145.008c1.504-1.586 10.038-2.571 12.035-2.243 1.996.328 1.914 3.501 1.914 3.501-.082 1.122-.246 2.489-.547 2.982-.547.848-.355.902-5.525 1.723-3.063.492-4.787.41-6.017.055a2.32 2.32 0 0 1-1.478-1.286l-1.012-2.325c-.109-.821 0-1.751.63-2.407zM184.808 136.584s-6.62 3.939-12.309 4.595c-5.689.629-11.078.246-12.855-1.313-1.778-1.559-3.748-6.674-2.325-9.601 1.422-2.926 3.528-5.142 9.463-4.677 5.936.465 13.075 2.571 16.932 5.389 3.884 2.79 2.817 4.677 1.094 5.607z" fill="#04BAEE"/><path d="M222.692 124.275l-15.4 2.653a4.717 4.717 0 0 0-.848.164l-19.803 5.17a3.64 3.64 0 0 0-1.504.957l-.848.903c-1.696 1.805-.848 4.622 1.587 5.251l2.899.766c.41.11.875.137 1.313.082l20.24-2.325c.164-.027.356-.054.52-.109l11.433-4.759a3.44 3.44 0 0 0 1.641-.958l1.806-1.914c1.066-1.122 1.203-2.818.273-4.048l-.355-.465c-.657-.93-1.778-1.45-2.954-1.368z" fill="#5BC4F1"/><path d="M226.439 128.735s.629-.438 1.367.136c.575.438.547 1.313.082 1.915-.465.602-1.969 2.161-2.543 2.735-.575.575-.657.602-3.201 1.696-2.598 1.122-9.135 3.966-10.366 4.294-1.231.301-.766.411-3.638.794-2.872.383-7.303.957-7.303.957l-.246-1.696 23.222-8.643 2.626-2.188z" fill="#00699B"/><path d="M183.413 136.447c-.027-.411.301-.766.739-.794 1.778-.109 4.185.301 5.935.575 3.419.519 13.786-1.34 21.417-3.556 13.758-3.966 10.093-4.13 11.652-5.224.246-.164 1.149-.739 1.422-1.669.192-.629.137-1.121.629-.684.165.165.63.684.821.985 1.121 1.805.629 3.091-.711 4.486l-1.395 1.477a3.443 3.443 0 0 1-1.641.957s-11.844 4.814-12.063 4.869c-2.598.684-19.967 2.298-19.967 2.298a4.563 4.563 0 0 1-1.613-.11l-2.763-.711c-1.504-.383-2.38-1.614-2.462-2.899z" fill="#04BAEE"/><path d="M158.715 138.718c-1.423-2.188-2.544-6.045-1.368-8.452 1.422-2.926 3.747-7.275 12.336-5.115 23.195 5.799 9.792 5.006 13.649 7.823.383.301.738.575 1.012.821 0 0-19.174-7.905-23.633-3.966-4.485 3.938-1.996 8.889-1.996 8.889z" fill="#5BC4F1"/><path d="M168.78 115.769c-.41.984-1.258 1.613-1.887 1.449l-9.929-2.79c-.629-.191-.82-1.121-.41-2.078.41-.985 1.258-1.614 1.887-1.45l9.929 2.79c.629.164.821 1.094.41 2.079z" fill="#0094DA"/><path d="M200.836 152.011s1.641 1.094.903 2.489c-.93 1.723-2.271 3.583-4.678 6.291-1.449 1.613-2.926 2.926-4.02 2.926-.766 0-1.313-.738-1.614-1.832-.301-1.122-.356-2.626-.137-4.103 1.532-3.775 5.088-5.115 6.483-8.343 1.012.848 2.051 1.724 3.063 2.572z" fill="#27365C"/><path d="M176.521 143.914c2.353-5.798 8.425-17.177 8.425-17.177l9.327-2.133c.52 7.932-5.826 16.657-13.156 20.842 4.868-.492 10.612.328 14.496 4.021-.219.383-.711 3.364-2.899 5.99-5.443-2.462-17.615-8.014-16.193-11.543z" fill="#626E97"/><path d="M181.115 145.447c7.331-4.185 13.649-12.938 13.157-20.842l1.477-.329s1.887 2.052 0 6.1-9.218 13.703-9.218 13.703l9.409 4.514 1.806.875s.738 3.829-.52 5.087c-1.258 1.258-4.978 2.216-4.978 2.216s3.118-6.893 3.337-7.276c-3.857-3.72-9.601-4.54-14.47-4.048z" fill="#495584"/><path d="M203.572 116.891c-1.449-.273-2.926-.574-4.376-.848.438-1.504.903-3.008 1.34-4.513 1.012 1.778 2.024 3.583 3.036 5.361z" fill="#3D507B"/><path d="M210.547 88.744s-.028 7.139 2.051 7.522c2.051.41 2.954-2.052 6.017-1.313 3.064.739 4.131 1.532 3.912 2.544-.246 1.012-2.325-.137-2.817.328-.493.465 4.212.93 4.13 3.036-.082 2.134-4.486-1.012-4.869.52s.739 1.805-.328 3.145c-1.067 1.341-20.432-1.039-20.378-6.1.055-5.005-.109-14.66-.109-14.66s.766-1.504 2.516-2.407c1.45-.738 3.611-1.067 6.565.191 2.845 1.286 3.31 7.194 3.31 7.194z" fill="#63413F"/><path d="M198.265 101.735c.164-.082.328-.164.465-.219.41-.191.793-.383 1.176-.547 3.994-1.723 6.866-1.915 8.945-1.56l.41.083c2.981.711 4.021 2.626 4.021 2.626s-1.259 12.117-1.341 16.192c0 .52.137 1.477.329 2.407 1.148 1.532 1.695 3.693.957 5.252-1.395 2.981-3.911 3.063-3.911 3.036-2.025 3.063-4.049 6.154-6.1 9.272 3.255 1.97 5.689 4.185 8.944 6.1-1.039 1.942-.465 2.79-1.504 4.759-4.185-2.297-9.136-3.774-13.321-6.099-.957-.575-2.68-1.559-2.981-3.365-.192-1.121.055-2.926.711-3.884 1.997-2.954 3.966-5.88 5.963-8.807.191-.274.383-.547.547-.821 0 0 .273-2.735.41-3.391.629-3.447.875-3.611.356-7.194-.411-2.845-5.772-4.404-6.018-6.291-.547-4.212 1.942-7.549 1.942-7.549z" fill="#455B8C"/><path d="M200.727 134.313s.93-1.395 1.45-2.188c.766-1.204 1.586-2.434 2.407-3.747 1.012-1.587 1.751-2.708 2.325-3.529 1.422-2.051 1.504-2.188 1.45-3.802-.082-2.598.054-4.048.054-4.513.493.055 1.012.11 1.505.164 0 .11-.137 1.778-.055 4.322.082 2.106-.274 2.598-1.723 4.705a98.168 98.168 0 0 0-2.298 3.473c-.82 1.313-1.641 2.544-2.434 3.748-.438.683-.93 1.422-1.368 2.133-.738 1.121-1.477 2.38-1.367 2.708.219.766 7.029 4.978 9.956 6.564-.274.438-.301.165-.575.602-1.559-.848-10.339-4.951-10.858-6.701-.137-.465-.082-.985.164-1.614.273-.629.738-1.395 1.367-2.325z" fill="#626E97"/><path d="M207.812 148.589a821.323 821.323 0 0 1 3.119-5.032c1.066.629 2.106 1.231 3.172 1.86 0 0 2.216 1.559 2.38 2.133.055.219-.027 1.532-.93 3.446-.465.958-1.067 1.942-1.86 2.572-1.997 1.668-2.735-.712-2.708-2.353 0-.383 0-.629.028-.793-1.067-.602-2.134-1.203-3.201-1.833z" fill="#BF69A9"/><path d="M208.358 98.427c.11 1.34.219 2.68.356 4.021.137 1.504-1.368 2.789-3.31 2.872-1.969.109-3.665-1.04-3.802-2.544-.082-1.094-.191-2.216-.273-3.31 2.462 1.395 5.361 1.505 7.029-1.04z" fill="#455B8C"/><path d="M201.33 99.465c-.137-1.75-.301-3.473-.438-5.224-.137-1.504 1.368-2.79 3.31-2.872 1.969-.055 3.665 1.094 3.774 2.599.137 1.477.247 2.954.383 4.458-1.668 2.544-4.567 2.434-7.029 1.04z" fill="#F7C6A5"/><path d="M197.445 90.713c.383 4.568 4.021 8.069 6.428 8.014 3.173-.082 5.416-3.884 5.033-8.397s-3.255-8.124-6.428-8.041c-3.173.054-5.416 3.829-5.033 8.424z" fill="#A9A9A9"/><path d="M229.966 92.164c.411-1.531 2.052-2.407 3.693-1.914 1.641.492 2.653 2.106 2.243 3.638-.137.52-.657 2.407-1.559 4.786-2.079-.41-3.939-1.422-5.553-2.817a31.08 31.08 0 0 0 1.176-3.693z" fill="#F7C6A5"/><path d="M210.301 100.588c1.34-.93 3.255-.602 4.267.766.574.738 3.665 4.239 8.671 1.969 2.872-1.313 4.622-4.786 6.263-9.245 1.587 1.395 3.474 2.38 5.58 2.79-1.751 4.65-4.13 9.573-9.026 11.816-2.845 1.313-5.498 1.559-7.796 1.176-4.075-.629-7.111-3.173-8.533-5.06-1.04-1.395-.766-3.282.574-4.212z" fill="#BF69A9"/><path d="M215.005 106.687s.793 6.784.41 7.823c-.383 1.012-3.528 2.489-3.528 2.489-1.614-.164-3.228-.301-4.814-.465 0 0-.821-8.452.218-12.965 1.04-4.513 1.067-5.88 1.067-5.88.602.136 1.204.273 1.833.41 0 .355-.028.71-.028 1.04 0 0 .876.3 2.572 1.777 1.668 1.45 2.27 5.771 2.27 5.771zM199.934 99.03s.246 1.012.847 4.157c.602 3.146.411 13.239.411 13.239l-2.134-.821s-.82-.027-.684-1.614c.11-1.586-2.817-4.65-2.598-7.193.219-2.544-.055-5.334.547-5.826.629-.493 2.325-1.067 2.325-1.067a28.615 28.615 0 0 1-.383-1.477c.547.164 1.121.383 1.669.602z" fill="#BF69A9"/><path d="M213.282 116.262c-2.106-.246-4.184-.465-6.291-.711 0 .684-.027 1.34-.027 2.024 0 0 5.963.711 5.963.684 0 0 .301-.383.465-.848.082-.356.109-.766-.11-1.149zM201.22 114.756c.054.739.109 1.45.164 2.188-.985-.328-1.997-.629-2.982-.957 0 0-.246-.629-.246-1.231 0-.629.219-.793.219-.793.93.273 1.887.547 2.845.793z" fill="#ECA5E1"/><path d="M215.087 108.959s-2.079-.93-3.146-1.942l-1.039-1.012s.465 1.833 2.079 3.255c1.586 1.422 2.434 1.559 2.434 1.559-.109-.629-.219-1.258-.328-1.86z" fill="#9C5789"/><path d="M213.556 137.76l-2.571.902 1.75 4.213 2.763-.383-1.942-4.732z" fill="#00699B"/><path d="M197.254 154.5c-1.258 1.231-5.224 1.914-5.224 1.914s3.364-6.564 3.583-6.947c-.027-.027 2.024 2.352 2.38 2.161 0 0 .492 1.641-.739 2.872z" fill="#626E97"/><path d="M137.681 163.335c-.383 5.881 2.462 10.914 6.346 11.242 3.884.328 7.303-4.185 7.686-10.065.382-5.881-2.462-10.914-6.346-11.242-3.884-.328-7.331 4.185-7.686 10.065z" fill="#00699B"/><path d="M147.447 141.563c-1.231-.11-5.307-.137-6.483.136 10.121.657 14.47 12.473 13.758 23.25-.711 10.777-5.06 21.252-18.353 20.158 1.122.465 6.893 1.696 8.124 1.806 8.78.711 16.548-8.862 17.368-21.362.821-12.528-5.634-23.277-14.414-23.988z" fill="#00699B"/><path d="M140.334 140.96c1.231-.082 7.358.219 8.479.684-10.092-.985-17.997 10.503-18.708 21.252-.712 10.777 2.461 23.003 15.754 24.098-1.176.273-7.275-.411-8.479-.684-11.187-2.735-15.235-11.461-14.414-23.988.793-12.5 7.904-20.706 17.368-21.362z" fill="#00699B"/><path d="M159.563 163.554c0-10.722-6.345-19.448-14.113-19.448-7.796 0-14.114 8.726-14.114 19.448s6.346 19.447 14.114 19.447c7.795.028 14.113-8.698 14.113-19.447zm-2.434 0c0 9.382-5.224 17.04-11.679 17.04-6.428 0-11.68-7.631-11.68-17.04 0-9.382 5.225-17.041 11.68-17.041 6.428.028 11.679 7.659 11.679 17.041z" fill="#12BAED"/><path d="M144.52 187.075c9.381.766 17.669-8.889 18.49-21.526.82-12.637-6.155-23.523-15.509-24.289-9.382-.765-17.67 8.89-18.49 21.527-.848 12.609 6.127 23.522 15.509 24.288zm2.379-42.45c7.44.601 12.91 9.628 12.254 20.104-.684 10.475-7.276 18.49-14.716 17.888-7.439-.602-12.91-9.628-12.253-20.104.683-10.476 7.275-18.49 14.715-17.888z" fill="#0094DA"/><path d="M140.17 163.634c-.246 3.856 1.805 7.166 4.623 7.385 2.79.218 5.279-2.708 5.525-6.565.246-3.857-1.805-7.166-4.623-7.385-2.817-.246-5.279 2.708-5.525 6.565z" stroke="#04BAEE" stroke-width="2.929" stroke-miterlimit="10"/><path d="M143.178 163.745c.192 2.133 1.368 3.692 2.571 3.473 1.231-.191 2.052-2.078 1.833-4.184-.192-2.107-1.368-3.666-2.571-3.474-1.231.164-2.052 2.051-1.833 4.185z" fill="#04BAEE"/><path d="M147.527 163.444l15.29-36.132-2.598-1.969-15.591 36.925 2.899 1.176z" fill="#0094DA"/><path d="M153.983 143.065l-8.315 19.612-1.039-.41 8.26-19.557 1.094.355z" fill="#04BAEE"/><path d="M152.396 142.574l4.13 1.532.985-2.544-4.13-1.532-.985 2.544z" fill="#0094DA"/><path d="M164.978 115.495l-6.811-1.313c-2.106-.41-4.54.93-5.415 3.009l-2.9 6.838c-.875 2.079 2.9 4.814 2.872 4.896 0 0 5.416.821 5.416.739l.766.136c2.106.411 4.54-.93 5.416-3.008l2.899-6.838c.875-2.052-.137-4.049-2.243-4.459z" fill="#00699B"/><path d="M153.933 126.271c-2.995-1.439-4.109-5.343-2.487-8.72 1.621-3.377 5.365-4.948 8.36-3.509 2.996 1.438 4.11 5.342 2.488 8.719-1.622 3.377-5.365 4.948-8.361 3.51z" fill="#0094DA"/><path d="M153.466 124.851c-2.519-1.21-3.363-4.685-1.886-7.763 1.478-3.077 4.719-4.591 7.238-3.381 2.519 1.21 3.363 4.685 1.885 7.763-1.478 3.077-4.718 4.591-7.237 3.381z" fill="#00699B"/><path d="M152.923 123.614c-1.988-.954-2.566-3.881-1.291-6.536 1.276-2.655 3.921-4.034 5.909-3.079 1.988.955 2.566 3.881 1.291 6.536-1.276 2.656-3.921 4.034-5.909 3.079z" fill="#5BC4F1"/><path d="M182.538 98.62c1.149-1.314 3.036-1.806 4.787-1.095 4.841 1.97 9.71 3.911 14.551 5.826 1.559.629 2.653 2.051 2.845 3.693a4.273 4.273 0 0 1-2.024 4.075 1158.986 1158.986 0 0 0-7.686 4.623c-.465-2.052-2.681-3.228-3.884-4.678-.903-.738-1.833-1.258-2.79-1.586.711-.438 1.45-.875 2.161-1.313-1.641-.656-3.283-1.285-4.924-1.942 1.915-1.286 3.83-2.817 5.744-3.939-3.173-.355-6.263-1.75-8.78-3.665z" fill="#796188"/><path d="M181.717 99.988c.191-.52.465-.985.82-1.368.848.192 5.717 1.86 8.753 3.665-1.887 1.149-3.829 2.653-5.744 3.939-.41-.164-.82-.328-1.258-.492-2.243-.876-3.392-3.474-2.571-5.744z" fill="#796188"/><path d="M197.146 105.622l-6.893 2.462-1.97-.766 8.863-1.696z" fill="#6C567C"/><path d="M186.285 110.736c.684-.411 1.341-.821 2.024-1.231.93.328 1.888.848 2.79 1.586 1.177 1.45 3.419 2.654 3.884 4.678-1.367.82-2.735 1.668-4.102 2.516a4.292 4.292 0 0 1-2.681.629 4.416 4.416 0 0 1-3.337-2.106c-1.258-2.106-.629-4.814 1.422-6.072z" fill="#F7C6A5"/><path d="M197.035 82.891s-1.914 1.778-2.242 4.431c-.329 2.653.218 7.522 1.477 8.698 1.285 1.176 11.542 4.431 13.375 3.556 1.832-.903 2.708-2.599 2.79-3.474.082-.875-.137-1.586-.137-1.586s.219-2.216-.137-4.404c-.355-2.16-.684-2.598-.684-2.598s-1.066-3.83-4.649-5.744c-4.842-2.572-9.793 1.121-9.793 1.121z" fill="#27365C"/><path d="M212.542 94.216s1.04.328 1.149 1.422c.109 1.094-1.532 3.83-2.298 4.24-.765.41-1.367.738-2.899.219-1.504-.52-4.431-1.15-4.431-1.15s3.556.466 4.103-.109c.574-.574 0-3.172 0-3.172s1.778.082 3.118-.165c1.012-.219 1.723-.574 1.258-1.285z" fill="#C7C6C6"/><path d="M211.423 87.295c.054.137.082.219.082.219s.328.41.684 2.598c.355 2.161.547 4.103.547 4.103s.218.63-.247.848c-1.613.793-3.993.684-6.181.328-.164-2.544-.055-5.142.027-7.713 2.353 0 4.076-.219 5.088-.383z" fill="#D0E2E5"/><path d="M199.662 88.964c.684-1.039 2.079-1.695 3.939-1.367.493.027 1.012.055 1.587.055h1.094c.301 1.504.383 5.06-.028 7.713a32.559 32.559 0 0 1-3.911-.903c-1.313-.629-2.161-1.422-2.653-2.243-.657-1.148-.602-2.352-.028-3.255z" fill="#D0E2E5"/><path d="M205.131 80.703s4.486 1.067 7.167 2.763c2.68 1.723 2.789 2.9 2.051 3.83-.711.93-7.412.437-9.163.355-1.751-.082-1.751-.055-1.751-.055s5.143-.547 3.994-1.996c-1.176-1.45-3.146-2.654-5.06-3.173-1.915-.52-4.048-.301-4.048-.301s.848-.52 2.188-.93c1.231-.41 2.872-.711 4.622-.493z" fill="#C7C6C6"/><path d="M212.542 94.216s1.04.328 1.149 1.422c.109 1.094-1.532 3.83-2.298 4.24-.765.41-1.367.738-2.899.219-1.504-.52-4.431-1.15-4.431-1.15s3.556.466 4.103-.109c.574-.574 0-3.172 0-3.172s1.778.082 3.118-.165c1.012-.219 1.723-.574 1.258-1.285zM205.131 80.703s4.486 1.067 7.167 2.763c2.68 1.723 2.789 2.9 2.051 3.83-.711.93-7.412.437-9.163.355-1.751-.082-1.751-.055-1.751-.055s5.143-.547 3.994-1.996c-1.176-1.45-3.146-2.654-5.06-3.173-1.915-.52-4.048-.301-4.048-.301s.848-.52 2.188-.93c1.231-.41 2.872-.711 4.622-.493z" fill="#314474"/><path d="M602.5 184c47.22 0 85.5-2.91 85.5-6.5s-38.28-6.5-85.5-6.5-85.5 2.91-85.5 6.5 38.28 6.5 85.5 6.5z" fill="#0032A5"/><path opacity=".7" d="M663 101.362v-5.195l-10.335-18.835-4.132-5.133L640.557 70h-75.47l-7.411 1.78-3.342 2.198-6.679 11.21L542 96.078l.958 5.922L663 101.362z" fill="#5BC4F1"/><path d="M569.445 97h-9.89c-3.056 0-5.555-2.7-5.555-6s2.499-6 5.555-6h9.89c3.056 0 5.555 2.7 5.555 6s-2.499 6-5.555 6z" fill="#0082C8"/><path d="M573.471 105h-17.942c-3.042 0-5.529-2.474-5.529-5.5s2.487-5.5 5.529-5.5h17.942c3.042 0 5.529 2.474 5.529 5.5s-2.487 5.5-5.529 5.5z" fill="#0082C8"/><path d="M620.691 99.355h-39.724c-3.059 0-5.561-2.502-5.561-5.562 0-3.06 2.502-5.563 5.561-5.563h39.724c3.059 0 5.561 2.503 5.561 5.563 0 3.06-2.502 5.562-5.561 5.562z" fill="#0082C8"/><path d="M624.766 108.231h-47.869c-3.06 0-5.561-2.502-5.561-5.562 0-3.06 2.501-5.563 5.561-5.563h47.869c3.059 0 5.561 2.503 5.561 5.563 0 3.06-2.502 5.562-5.561 5.562z" fill="#0082C8"/><path d="M652.811 113.622H551.478c-6.477 0-11.771-4.53-11.771-10.063s5.299-10.063 11.771-10.063h101.337c6.476 0 11.771 4.53 11.771 10.063s-5.299 10.063-11.775 10.063z" fill="#0082C8"/><path d="M643.445 97h-9.89c-3.056 0-5.555-2.7-5.555-6s2.499-6 5.555-6h9.89c3.056 0 5.555 2.7 5.555 6s-2.499 6-5.555 6z" fill="#0082C8"/><path d="M647.471 105h-17.942c-3.042 0-5.529-2.474-5.529-5.5s2.487-5.5 5.529-5.5h17.942c3.042 0 5.529 2.474 5.529 5.5s-2.491 5.5-5.529 5.5z" fill="#0082C8"/><path d="M568.356 87.802h-4.995V95.6h4.995v-7.798z" fill="#A96644"/><path d="M568.356 91.278v-3.476h-4.995v4.197c.974.12 3.168.22 4.995-.72z" fill="#914627"/><path d="M559.957 81.025s-.55-.717-.55-1.662c0 0-2.376.092-1.981-1.827.396-1.92 1.89-1.22 1.919-2.498.029-1.279 2.119-2.74 3.634-1.645 1.515 1.095 4.986-2.74 5.107 1.22 0 0 2.343-1.432 2.772.425.424 1.856 2.709 1.095 2.559 3.534 0 0-.245.791.7.912 0 0-.425.733-.824.579l-.966 2.964-5.927 3.31-6.443-5.312z" fill="#332A27"/><path d="M573.418 79.01c-.071-.225-.005-.438-.005-.438.059-.932-.241-1.398-.657-1.719-1.161.77-3.421 1.882-6.056 1.1-2.539-.75-3.996-3.294-4.695-4.934-1.303-.134-2.635.999-2.656 2.019a1.054 1.054 0 0 1-.091.429c5.531 4.642 11.354 4.167 14.16 3.543z" fill="#4C423F"/><path d="M571.195 83.064l-.75.633c-.158-.375-.045-.966-.149-1.362a7.725 7.725 0 0 1-.113-.52c-.853-.579-1.323-2.202-1.186-3.61.154-1.582-2.131-.487-2.131-.487-.029-.882-2.589-2.435-2.527-.516.063 1.92-1.157 1.524-2.014 1.828-.857.304-.341 1.578-.341 1.578-1.22-.171-1.553-1.208-1.553-1.208-.141.017-.32.009-.458-.033 0 2.898-.353 7.377 1.332 9.863.595.874 1.345 1.611 2.602 1.807 5.481.858 6.892-4.505 6.892-4.505s1.719.458 2.069-2.073c.287-2.103-1.673-1.395-1.673-1.395z" fill="#A96644"/><path d="M568.572 78.51c-.02.824.283 2.727 1.615 3.305-.853-.578-1.323-2.202-1.186-3.61.154-1.581-2.131-.486-2.131-.486s1.723-.03 1.702.79zM562.325 81.024s-.237-1.632.633-1.549c.865.08 2.268-.304 2.127-1.544-.142-1.237 1.361-.895 1.785-.213-.029-.882-2.589-2.435-2.526-.516.062 1.92-1.157 1.524-2.015 1.828-.857.304-.341 1.578-.341 1.578a1.91 1.91 0 0 1-1.553-1.208 1.21 1.21 0 0 1-.457-.033 2.483 2.483 0 0 0 2.347 1.657z" fill="#914627"/><path d="M562.953 83.725c-.004.47-.292.833-.641.804-.35-.03-.629-.433-.624-.903.004-.471.291-.833.64-.804.354.025.633.433.625.903zM567.748 83.589c-.004.47-.292.832-.641.803-.35-.029-.629-.433-.625-.903.005-.47.292-.833.641-.804.35.025.629.43.625.904z" fill="#502F26"/><path d="M564.655 86.402c-1.062.429-1.632-.07-1.674-.57a.725.725 0 0 1 .471-.742c.645-.254 1.103-1.245 1.107-1.257.004.229-.229 1.087-1.049 1.565-.179.105-.287.213-.275.375.025.28.429.7 1.42.629z" fill="#914627"/><path d="M560.802 81.296l-.046-.32c.071-.005 1.161-.305 2.447-.197l.013.5c-1.053-.154-2.398.013-2.414.017zM568.581 81.46c-.857-.333-2.447-.395-2.464-.4l.104-.457c.063.012 1.503.062 2.464.578l-.104.28z" fill="#332A27"/><path d="M570.382 85.898c-.466 1.357-2.201 4.709-5.947 4.505-2.027-.113-3.055-1.449-3.734-2.382.158.442.358.846.604 1.208.595.874 1.344 1.611 2.601 1.807 5.482.857 6.893-4.505 6.893-4.505s1.315.366 1.898-1.307c-1.024 1.698-2.315.674-2.315.674z" fill="#914627"/><path d="M566.495 87.14s-1.993.409-3.849 0c0 0 .328 1.708 1.922 1.704 1.511 0 1.911-1.37 1.927-1.703z" fill="#722626"/><path d="M564.533 87.955c-1.228 0-1.586-.508-1.74-.787 1.44.283 2.601.112 3.613-.013-.113.313-.716.8-1.873.8z" fill="#fff"/><path d="M576.152 95.746s-3.089-1.186-6.552-1.944c0 0-1.989 2.036-4.258 1.944-2.468-.104-3.392-1.878-3.392-1.878-1.577.25-4.133.887-5.706 1.62 0 0-.937 4.163-.008 25.809 0 0 6.126 2.152 17.414 0 0 0 .129-9.805 1.594-15.734.005 0 .446-6.09.908-9.817z" fill="#FFD07D"/><path opacity=".2" d="M563.241 98.515l1.965-1.932 1.278 2.527s3.296-2.028 3.733-5.167c-.204-.05-.408-.095-.616-.141-2.784 2.052-5.278 3.056-7.65.062a7.662 7.662 0 0 0-.366.063c0 .004-.292 1.986 1.656 4.588z" fill="#000"/><path d="M563.395 92.63s.262 2.028 1.86 2.736c0 0 2.922-.82 3.135-2.764l1.723 1.315s-1.091 3.243-3.397 4.101l-1.44-2.198-1.956 1.811s-1.89-2.294-1.731-3.71l1.806-1.29z" fill="#FFD07D"/><path d="M575.769 118.716l-1.09-.766-.82.167c-.774-.25-1.12-.762-1.507-.821-.387-.058-.994-.466-.994-.466-.358.541.341 1.124.341 1.124-.054-.012-.108-.021-.163-.033-.133-.025-.266-.054-.399-.079-.171-.034-.341-.071-.508-.104-.162-.034-.329-.071-.491-.1-.129-.021-.254-.046-.383-.054a1.528 1.528 0 0 0-.395.05c-.167.033-1.033.341-1.178.374-.067.017-.208.046-.208.046-.063.167-.075.346.008.496.15.27.541.266.745.229.15-.025.35-.096.495-.15.125-.046.092-.071.308-.046.125.012.25.058.375.083.27.058.541.121.812.187.062.013.12.03.183.042 0 0-1.307.242-1.715.354-.304.087-1.161.912-1.161.912-.621.591.349.82.349.82-.05.054-.116.15-.116.233 0 .071.05.125.087.167a.614.614 0 0 0 .262.137.93.93 0 0 0 .679-.021l.141-.062c.059-.029.117-.058.175-.092.179-.1.354-.2.52-.325.021-.016.067-.066.092-.066l1.015-.058c-.341.187-.695.807-1.157 1.09a.916.916 0 0 0-.199.154c-.055.059-.117.146-.104.238.012.087.091.112.154.137.195.079.407.075.616.025.108-.025.212-.067.312-.121a1.395 1.395 0 0 0 .299-.212c.616-.687 1.303-1.028 2.181-.575 1.27.654 2.26-1.236 2.26-1.236l.179-1.678z" fill="#A96644"/><path d="M576.152 95.746s2.444.15 8.72 12.066c0 0 2.606 4.875-8.774 12.873 0 0-2.218-.67-2.218-3.118l5.623-7.42-4.162-4.588c0 .004-1.395-6.765.811-9.813z" fill="#FFD07D"/><path d="M556.631 118.449l1.09-.767.82.167c.774-.25 1.12-.762 1.507-.82.387-.058.995-.467.995-.467.358.542-.342 1.125-.342 1.125.055-.013.109-.021.163-.034.133-.025.266-.054.399-.079.171-.033.342-.071.508-.104.163-.033.329-.071.491-.1.129-.021.254-.046.383-.054.133-.004.262.021.396.05.166.033 1.032.341 1.178.375.066.016.208.046.208.046.062.166.075.345-.009.495-.15.271-.541.266-.745.229a3.09 3.09 0 0 1-.495-.15c-.125-.046-.092-.071-.308-.046-.125.013-.25.059-.375.084-.27.058-.541.12-.811.187-.063.012-.121.029-.183.042 0 0 1.307.241 1.714.353.304.088 1.162.912 1.162.912.62.591-.35.82-.35.82.05.055.117.15.117.234 0 .07-.05.124-.088.166a.621.621 0 0 1-.262.138.93.93 0 0 1-.678-.021l-.142-.063c-.058-.029-.116-.058-.175-.091-.179-.1-.354-.2-.52-.325-.021-.017-.067-.067-.092-.067l-1.015-.058c.341.187.695.808 1.157 1.091a.863.863 0 0 1 .2.154c.054.058.116.146.104.237-.013.088-.092.113-.154.138a1.003 1.003 0 0 1-.616.025 1.492 1.492 0 0 1-.612-.334c-.616-.686-1.303-1.028-2.181-.574-1.27.654-2.26-1.237-2.26-1.237l-.179-1.677z" fill="#A96644"/><path d="M556.244 95.483s-2.443.15-8.719 12.066c0 0-2.606 4.875 8.774 12.873 0 0 2.218-.67 2.218-3.118l-5.623-7.419 4.162-4.588s1.399-6.766-.812-9.814z" fill="#FFD07D"/><path d="M636.562 72.751s7.613-1.403 8.586 7.19c.929 8.185 1.848 16.304 1.657 22.154 0 0-7.538 2.435-16.228 0 0 0 .224-11.304-.504-19.164-.641-6.89 2.181-10.484 6.489-10.18z" fill="url(#paint0_linear)"/><path d="M644.084 76.252c-.824-1.548-1.989-2.443-3.155-2.951-.899 1.382-2.177 2.498-4.766 2.485-1.868-.008-2.305-1.445-2.351-2.61-1.012.429-1.861 1.17-2.498 2.21 3.896 3.027 9.557 1.895 12.77.867z" fill="#994A3D"/><path d="M630.619 94s-2.323.368-3.619 11.56l4.538.44c.004.004 3.833-11.422-.919-12z" fill="#BDC7D6"/><path d="M641.688 112.195s5.207 5.131 6.312 26.536c0 0-10.03 2.856-23 0 0 0 2.251-22.016 6.159-26.731l10.529.195z" fill="#A52923"/><path d="M632.342 93.815s4.828-1.082 9.298 0c0 0-.753 4.934-6.447 4.98-5.698.045-2.851-4.98-2.851-4.98z" fill="#D17462"/><path d="M641.54 93.615s-5.066 4.797-6.285 4.784c-1.22-.013-2.685-4.784-2.685-4.784-1.868.5-2.064.587-2.064.587l-.362 3.36c-1.911 2.444-1.894 3.131-1.894 4.209 0 1.874 1.657 3.019 1.657 3.019l1.207 7.598c6.351 2.469 10.626.142 10.626.142.703-4.801 2.518-10.954 2.518-10.954v-7.128c-.97-.446-1.727-.55-2.718-.833z" fill="#D7E4F7"/><path d="M635.401 91.796l-.012 3.015 3.687.012.017-3.922c-1.532 1.004-3.063.975-3.692.895z" fill="#D17462"/><path d="M639.096 90.9l.013-3.022-3.688-.013-.017 3.93c.629.08 2.161.109 3.692-.895z" fill="#BA5F50"/><path opacity=".1" d="M628.604 102.446s.482.408 1.531.5c2.115.183 6.564.562 9.623.071 1.282-.209 1.499-.854 2.464-1.612 0 0 .154 3.294-3.866 3.227-4.025-.071-9.499.425-9.752-2.186z" fill="#000"/><path d="M629.436 83.406c-.021 3.451.92 6.411 1.015 8.984.204 5.525-1.561 7.694-1.906 9.705 0 0 1.969.5 3.775.163 0 0 1.478-5.962 1.24-9.464-.237-3.501-1.81-9.01-1.81-9.01s-.749-6.848 4.412-7.997l.016-1.083c-.428-.037-6.684-.424-6.742 8.702z" fill="#7C3425"/><path d="M642.574 82.57l-.096.033s-.678.446-.795-.803c-.579-5.334-5.49-6.02-5.49-6.02-5.02.528-4.845 3.88-4.757 6.074-.029 1.232.158 2.352.091 3.601-.175 3.114 2.452 5.142 4.787 5.138 4.482-.004 5.619-3.985 5.619-3.985s2.085.354 2.351-2.444c.209-2.285-1.71-1.594-1.71-1.594z" fill="#D17462"/><g opacity=".9" fill="#D15D54"><path opacity=".091" d="M633.598 84a1.895 1.895 0 1 1-.703 3.726 1.895 1.895 0 0 1 .703-3.726z"/><path opacity=".182" d="M633.563 84.18a1.716 1.716 0 0 1 1.365 2.002 1.716 1.716 0 0 1-2.002 1.366 1.716 1.716 0 0 1-1.365-2.003 1.708 1.708 0 0 1 2.002-1.365z"/><path opacity=".273" d="M633.532 84.36a1.532 1.532 0 1 1-.573 3.01 1.532 1.532 0 0 1 .573-3.01z"/><path opacity=".364" d="M633.493 84.538a1.347 1.347 0 1 1-.499 2.648 1.347 1.347 0 0 1 .499-2.648z"/><path opacity=".455" d="M633.459 84.717c.633.12 1.049.729.928 1.362a1.164 1.164 0 1 1-2.289-.433 1.164 1.164 0 0 1 1.361-.929z"/><path opacity=".545" d="M633.427 84.897a.984.984 0 0 1-.366 1.932.983.983 0 0 1 .366-1.932z"/><path opacity=".636" d="M633.393 85.075a.801.801 0 1 1-.3 1.574.801.801 0 0 1 .3-1.574z"/><path opacity=".727" d="M633.361 85.255a.619.619 0 0 1 .491.72.619.619 0 0 1-.72.491.617.617 0 0 1 .229-1.212z"/><path opacity=".818" d="M633.327 85.434c.238.046.392.271.346.508a.432.432 0 0 1-.508.346.435.435 0 0 1 .162-.853z"/><path opacity=".909" d="M633.289 85.612c.138.026.23.159.2.296a.252.252 0 0 1-.295.2.249.249 0 0 1-.2-.296.257.257 0 0 1 .295-.2z"/><path opacity=".9" d="M633.313 85.876a.071.071 0 0 1-.084.056.07.07 0 0 1-.055-.085.071.071 0 1 1 .139.03z"/></g><g opacity=".636" fill="#D15D54"><path opacity=".091" d="M639.612 83.864a2.03 2.03 0 0 1 1.619 2.373 2.03 2.03 0 1 1-3.991-.754 2.03 2.03 0 0 1 2.372-1.62z"/><path opacity=".182" d="M639.576 84.057a1.836 1.836 0 0 1-.683 3.606 1.836 1.836 0 0 1 .683-3.605z"/><path opacity=".273" d="M639.539 84.25a1.642 1.642 0 0 1 1.307 1.915 1.643 1.643 0 0 1-1.915 1.307 1.64 1.64 0 0 1 .608-3.222z"/><path opacity=".364" d="M639.505 84.439a1.442 1.442 0 1 1-.538 2.834 1.442 1.442 0 0 1 .538-2.834z"/><path opacity=".455" d="M639.467 84.631a1.247 1.247 0 1 1-.462 2.452 1.247 1.247 0 0 1 .462-2.452z"/><path opacity=".545" d="M639.428 84.827a1.053 1.053 0 1 1-.393 2.068 1.053 1.053 0 0 1 .393-2.068z"/><path opacity=".636" d="M639.391 85.018a.858.858 0 1 1-.32 1.686.858.858 0 0 1 .32-1.686z"/><path opacity=".727" d="M639.359 85.21a.663.663 0 1 1-.248 1.303.663.663 0 0 1 .248-1.303z"/><path opacity=".818" d="M639.321 85.401c.254.046.42.292.37.546a.462.462 0 0 1-.545.37.466.466 0 1 1 .175-.916z"/><path opacity=".909" d="M639.283 85.593c.146.029.242.17.217.316a.276.276 0 0 1-.317.217.276.276 0 0 1-.216-.317.276.276 0 0 1 .316-.216z"/><path opacity=".636" d="M639.31 85.872a.073.073 0 0 1-.088.059.073.073 0 0 1-.059-.088.073.073 0 0 1 .088-.06c.038.01.063.051.059.09z"/></g><path d="M636.25 86.213c-.779.354-1.27.17-1.37-.354-.066-.342.133-.729.346-.92.437-.388.632-1.524.632-1.537.034.242-.016 1.195-.549 1.853a.584.584 0 0 0-.15.446c.033.39.408.69 1.091.512z" fill="#BA5F50"/><path d="M633.427 82.763s-.682.02-.782-.238c0 0-.079.363.337.48a1.031 1.031 0 0 0-.204.653c.008.487.312.878.678.874.366-.004.658-.404.649-.895-.008-.491-.308-.883-.678-.874zM638.542 82.678s-.682.02-.782-.238c0 0-.079.363.337.48a1.031 1.031 0 0 0-.204.653c.008.487.312.878.679.874.366-.004.657-.404.649-.895-.008-.491-.312-.878-.679-.874z" fill="#502F26"/><path d="M641.585 85.666s-.312 2.419-3.388 3.739c-2.709 1.161-5.352-.638-5.939-1.079.92 1.432 2.543 2.273 4.045 2.27 4.483-.005 5.619-3.985 5.619-3.985s1.312.237 1.998-1.1c-1.294 1.225-2.335.155-2.335.155z" fill="#BA5F50"/><path d="M634.596 81.391s-1.098-.296-2.601.141c0 0-.008-.112.275-.353.266-.225 1.253-.47 2.102-.125 0 .004.441.237.224.337zM637.111 81.328s1.095-.316 2.601.092c0 0 .009-.113-.279-.346-.27-.22-1.261-.45-2.106-.087 0 0-.437.245-.216.341z" fill="#7C3425"/><path d="M637.868 86.929s-1.74.383-3.367.054c0 0 .312 1.49 1.706 1.465 1.316-.025 1.649-1.228 1.661-1.52z" fill="#B22828"/><path d="M636.16 87.67c-1.074.016-1.394-.425-1.536-.663 1.265.23 2.277.067 3.159-.058-.087.27-.612.704-1.623.72z" fill="#fff"/><path d="M642.574 82.57l-.095.033s-.679.446-.795-.803c-.579-5.334-5.491-6.02-5.491-6.02-4.47.47-4.824 3.18-4.782 5.32.262-1.328 1.245-4.492 4.641-5.096 0 0 4.633 1.532 5.565 11.366.225-.445.316-.758.316-.758s2.086.354 2.352-2.443c.208-2.29-1.711-1.6-1.711-1.6z" fill="#BA5F50"/><path d="M644.291 83.632s-.525-9.355-8.087-8.93c0 0-.009 0-.025-.005l-.017 1.083c.008 0 .017-.004.021-.004 0 0 4.25.516 5.273 8.006 1.328 9.672-4.191 18.719-4.191 18.719s2.997 0 3.979-.246c0 0 2.152-5.104 2.843-9.272.816-4.896.204-9.35.204-9.35z" fill="#7C3425"/><path d="M644.216 94.447s2.809.954 4.232 12.682l-4.22 1.253s-2.805-10.275-.012-13.935z" fill="#D7E4F7"/><path d="M648.445 107.129s.262 3.318-4.221 3.077c-4.104-.225-7.962-.895-7.962-.895l.283-2.278c.004 0 6.784-1.153 11.9.096z" fill="#D17462"/><path d="M630.803 107.27c.071-.202.297-.142.55-.083l-.743-.277c-.171-.071-.357-.154-.287-.392.075-.249.272-.194.476-.138l-.505-.202c-.172-.072-.346-.171-.279-.432.055-.217.234-.198.438-.174l.435.063c-.249-.099-.431-.296-.386-.467.03-.111.171-.241.539-.206l2.372.147.844.166-.453-.463c-.383-.534-.075-.776-.075-.776.157-.13.435.115.833.376l1.291.978c.461.491 1.301 1.405 1.123 2.284-.186.914-.484 1.29-1.079 1.326 0 0-1.071-.028-1.658-.115a8.923 8.923 0 0 1-1.268-.313l-1.793-.807c-.264-.143-.435-.313-.375-.495z" fill="#D17462"/><path d="M604.563 113.661c-.912-.329-1.224.725-1.224.725s-.637 1.565-.72 2.156c-.083.596.395 1.882.716 2.136 0 0 .787.562.982.737 0 0 .342.013.129-.583 0 0 .625.342.55-.204 0 0 .362-.237.437-.87 0 0-.154-.758-.358-1.074 0 0 .416-1.099.195-1.778 0 0 .204-.916-.707-1.245z" fill="#A96644"/><path d="M604.508 114.963s-.162 1.087-.354 1.695c0 0 .541.807.221 1.157 0 0-.42-.295-.982-.945 0 0 .312 1.074.37 1.237.062.162.45.42.674.732 0 0 .408-.141.437-.366 0 0 .367-.4.354-.679 0 0-.108-.616-.266-1.053 0 0 .549-1.082.266-1.824-.016-.045-.687.08-.72.046z" fill="#914627"/><path d="M605.562 102.412c.982.083 2.064.129 3.113.854-.038 1.086-.516 2.635-.62 3.434 0 0-.729 4.251-2.785 8.207 0 0-1.119-.084-1.823-.771 0 0 1.049-6.341 1.511-7.968 0-.005.433-1.907.604-3.756z" fill="#A96644"/><path d="M606.054 97.986c.94-2.977 2.164-3.585 2.164-3.585l.824 5.588s-.046 1.765-.112 3.668c-1.032-.229-3.068-.604-4.067-1.004.496-1.936.712-3.152 1.191-4.667z" fill="#9B2A2A"/><path d="M618.701 143.308l2.526-.221-.216-3.043-2.527.221.217 3.043z" fill="#A96644"/><path d="M622.197 144.896h-4.508v.732h4.508v-.732z" fill="#C1C1C1"/><path d="M622.114 144.895s.287-.732-.121-1.44l-.566-1.212s-.279.292-.529.175c-.262-.121-1.003-1.532-2.085.009 0 0-.32-.192-.503-.134l-.346 1.133s-.591 1.107-.208 1.469h4.358z" fill="#A52923"/><path d="M620.661 143.767c-.013 0-.025-.004-.038-.008-.728-.279-1.469-.067-1.477-.063-.063.021-.129-.021-.146-.092-.017-.07.021-.141.083-.162.034-.008.82-.237 1.615.067.063.025.096.1.075.166-.017.059-.062.092-.112.092z" fill="#fff"/><path d="M620.661 143.416c-.013 0-.025-.004-.038-.008-.728-.279-1.469-.067-1.477-.063-.063.021-.129-.02-.146-.091-.017-.071.021-.142.083-.162.034-.009.82-.238 1.615.066.063.025.096.1.075.167-.017.058-.062.091-.112.091z" fill="#fff"/><path d="M620.661 143.067a.105.105 0 0 1-.038-.009c-.728-.279-1.469-.066-1.477-.062-.063.021-.129-.021-.146-.092-.017-.07.021-.141.083-.162.034-.008.82-.237 1.615.067a.135.135 0 0 1 .075.166c-.017.058-.062.092-.112.092z" fill="#fff"/><path d="M620.661 142.717c-.013 0-.025-.004-.038-.008-.728-.279-1.469-.067-1.477-.063-.063.021-.129-.021-.146-.091-.017-.071.021-.142.083-.163.034-.008.82-.237 1.615.067.063.025.096.1.075.166-.017.059-.062.092-.112.092z" fill="#fff"/><path d="M604.296 136.368h-2.681v2.923h2.681v-2.923z" fill="#A96644"/><path d="M604.612 138.312s.645.979.345 2.802h-8.878s-.72-1.257 1.911-1.511c1.702-.162 3.217-1.715 3.217-1.715s.5.083.716.712c.237.699 1.648.836 2.156.087.321-.47.533-.375.533-.375z" fill="#A52923"/><path d="M605.024 141.118h-8.89v.733h8.89v-.733z" fill="#C1C1C1"/><path d="M599.451 140.227a.176.176 0 0 1-.154-.104.882.882 0 0 0-.549-.524.173.173 0 0 1-.121-.213.17.17 0 0 1 .2-.129c.021.004.541.142.778.725a.178.178 0 0 1-.087.229c-.021.008-.042.016-.067.016zM600.118 139.966a.176.176 0 0 1-.154-.105.886.886 0 0 0-.55-.524c-.087-.021-.141-.117-.12-.212a.169.169 0 0 1 .199-.13c.021.005.541.142.779.725a.18.18 0 0 1-.154.246zM600.612 139.616a.173.173 0 0 1-.154-.104.894.894 0 0 0-.549-.525.172.172 0 0 1-.121-.212.168.168 0 0 1 .2-.129c.021.004.541.141.778.724a.177.177 0 0 1-.087.229.12.12 0 0 1-.067.017zM601.111 139.265a.176.176 0 0 1-.154-.104.883.883 0 0 0-.549-.524.173.173 0 0 1-.121-.213.17.17 0 0 1 .2-.129c.021.004.541.146.778.725a.178.178 0 0 1-.087.229.138.138 0 0 1-.067.016z" fill="#fff"/><path d="M608.208 111.88l-.425 3.085s-6.135 7.586-6.647 9.372c-.512 1.795-.062 5.121.121 11.982 0 0 1.207.766 3.43.088 0 0 .204-9.784.649-10.842.445-1.057 8.004-8.843 8.004-8.843l1.324.029 3.408 23.936s1.653.441 3.272-.146l-2.114-28.665h-11.022v.004z" fill="#2E4056"/><path d="M608.159 114.741a.08.08 0 0 1-.033-.154c.012-.005 1.436-.604 1.644-2.211.004-.046.045-.075.091-.071.042.004.075.046.071.092-.225 1.703-1.727 2.335-1.744 2.339-.008.005-.021.005-.029.005zM614.278 116.722a.081.081 0 0 1-.08-.063c-.004-.016-.362-1.711-.399-4.03 0-.046.033-.079.079-.083.042 0 .079.033.083.079.038 2.302.396 3.98.396 3.997a.081.081 0 0 1-.063.096c-.008.004-.012.004-.016.004z" fill="#566C82"/><path d="M614.077 115.981h-.004a1.062 1.062 0 0 1-.749-.383c-.729-.845-.571-2.797-.566-2.877.004-.045.041-.075.087-.075a.078.078 0 0 1 .071.088c0 .021-.158 1.965.528 2.76.171.2.387.313.637.329.046.004.079.042.075.083-.004.046-.037.075-.079.075zM619.247 115.244h-.008c-2.581-.262-3.234-2.473-3.243-2.493a.082.082 0 0 1 .054-.1.08.08 0 0 1 .1.054 3.583 3.583 0 0 0 3.105 2.377c.046.004.075.042.071.088a.077.077 0 0 1-.079.074z" fill="#566C82"/><path d="M601.129 135.802v.878s1.948.891 3.775.067v-.625s-2.56.467-3.775-.32zM617.811 140.011l.17.9s2.51.345 3.605-.442v-.687c.004 0-2.256.8-3.775.229z" fill="#ABC2D8"/><path d="M612.95 92.537l-.054 1.948 3.229.088.071-2.536c-1.357.616-2.697.566-3.246.5z" fill="#A96644"/><path d="M616.2 92.036l.054-1.953-3.23-.087-.071 2.544c.55.062 1.89.112 3.247-.504z" fill="#914627"/><path d="M614.281 94.925c1.91 0 2.372-1.061 2.435-1.395-1.357-.274-2.701-.383-4.374-.158-.038.391.062 1.553 1.939 1.553z" fill="#A96644"/><path d="M621.02 94.963s-1.84-1.004-4.083-1.495a7.163 7.163 0 0 0-.288-.058c-.066.333-.424 1.345-2.335 1.345-1.877 0-1.939-1.079-1.897-1.466a8.603 8.603 0 0 0-.425.063c-1.02.162-2.751.574-3.767 1.049 0 0-.141 5.296-.295 17.973 0 0 4.549 1.636 11.858.242.116-6.087.145-7.869.616-11.695-.013 0 .316-3.548.616-5.958z" fill="#B23232"/><path d="M619.571 82.66s.391.882.578 2.115c0 0 .708-2.115 1.007-3.556.325-1.544-.333-4.475-4.141-5.712-5.448-1.774-6.843.391-7.929 4.068.004 0 7.226-2.76 10.485 3.085z" fill="#D0D6D8"/><path d="M618.58 76.24c2.401 1.465 2.851 3.68 2.58 4.979-.299 1.44-1.007 3.555-1.007 3.555-.187-1.232-.579-2.115-.579-2.115a7.297 7.297 0 0 0-1.527-1.923 6.554 6.554 0 0 0 .533-4.497z" fill="#AAB6BA"/><path d="M619.571 82.66s-2.868-4.272-8.866-3.298c0 0-1.852.462-1.781 2.032 0 0-2.689-3.843-1.952-4.846.732-1 8.686-.912 10.014.353 1.765 1.678 2.585 5.758 2.585 5.758z" fill="#C63939"/><path d="M607.462 80.366c.109-.225.175-.28.213-.263-.075-.391-.142-1.103.316-1.303.258-.112.408-.112.516-.046-.033-.141-.029-.312.229-.528.208-.171.321-.175.404-.088a.426.426 0 0 1 .145-.408c.375-.316.999-.295 1.99.296-.154-.117-.312-.312-.029-.491.449-.288.666.116.745.195 0 0-.433-.47.079-.608.35-.095.691.258 1.074.563-.05-.092-.004-.196.237-.288.62-.233 1.698.067 2.293 1.091a.59.59 0 0 1 .254-.15c.704-.254 1.678 1.016 1.711 2.477 0 0 1.444.916 2.127 1.949 0 0 .47 1.12.391 2.015l-.578 1.736-10.627-1.707s-.407-1.461-.316-2.798c-.008 0-1.457-1.053-1.174-1.644z" fill="#332A27"/><path d="M614.614 80.645c1.14.412 2.755.47 2.755.47.895 2.236 2.048 3.535 2.635 4.097l-.433 1.303-10.626-1.707s-.408-1.49-.316-2.822c.324-3.54 4.844-1.753 5.985-1.341z" fill="#191514"/><path d="M618.679 85.304l-.649.525c-.138-.308.066-1.174.083-1.516.1-1.84-.882-3.08-.882-3.08-3.813.478-5.07-.78-6.227-.658-1.586.166-1.777 1.386-1.777 1.386-.4 1.428-.283 2.157-.283 2.157-.005 1.694-.042 4.571 1.177 6.29.512.725 1.162 1.333 2.252 1.495 4.745.712 5.961-3.73 5.961-3.73s1.485.379 1.789-1.716c.25-1.74-1.444-1.153-1.444-1.153z" fill="#A96644"/><path d="M617.093 81.683s-1.639.674-5.548-.862c0 0-1.161-.383-2.085.583.233-.346.683-.746 1.54-.837 1.157-.12 2.414 1.136 6.227.658 0 0 .861 1.09.89 2.748-.149-.742-.458-1.795-1.024-2.29zM617.972 87.645c-.404 1.124-1.906 3.893-5.144 3.726-1.753-.091-2.643-1.199-3.23-1.969.137.362.308.7.524 1 .512.724 1.161 1.332 2.252 1.494 4.745.712 5.96-3.73 5.96-3.73s1.136.303 1.64-1.083c-.882 1.407-2.002.562-2.002.562z" fill="#914627"/><path d="M611.55 85.847c-.004.392-.25.687-.554.666-.299-.025-.541-.358-.541-.75.004-.39.25-.686.554-.665.303.025.545.358.541.75zM615.694 85.732c-.004.391-.25.687-.554.666-.299-.025-.541-.358-.536-.75.004-.39.253-.686.553-.665.3.02.541.358.537.749z" fill="#502F26"/><path d="M613.019 88.061c-.915.354-1.411-.058-1.448-.475-.025-.27.137-.512.408-.611.558-.209.953-1.033.957-1.041.004.187-.196.899-.907 1.294-.154.084-.25.175-.238.309.021.237.375.582 1.228.524z" fill="#914627"/><path d="M609.684 84.14l-.041-.225c.058-.004 1.007-.212 2.118-.137l.009.354c-.908-.113-2.069.008-2.086.008zM616.449 84.168c-.77-.167-2.144-.092-2.156-.092l.046-.329c.054.004 1.298-.07 2.177.217l-.067.204z" fill="#332A27"/><path d="M614.613 88.672s-1.727.337-3.33 0c0 0 .283 1.411 1.665 1.411 1.303-.004 1.648-1.14 1.665-1.411z" fill="#722626"/><path d="M612.912 89.346c-1.061 0-1.374-.42-1.507-.65 1.245.234 2.252.097 3.126-.007-.096.253-.616.657-1.619.657z" fill="#fff"/><path d="M620.663 110.199c-.25-.45-.72-.504-.72-.504l-.542.112c-.511-.166-.736-.503-.994-.541-.258-.037-.658-.308-.658-.308-.233.358.225.741.225.741-.038-.008-.071-.012-.108-.021-.088-.016-.175-.037-.263-.054-.112-.021-.224-.046-.337-.066-.108-.021-.216-.046-.324-.067a1.31 1.31 0 0 0-.254-.033.913.913 0 0 0-.263.033c-.108.021-.682.225-.778.25-.046.008-.137.029-.137.029a.393.393 0 0 0 .004.329c.1.179.358.175.491.154.1-.017.229-.063.329-.1.083-.029.062-.046.204-.033.083.008.162.037.245.054l.537.12c.042.009.084.021.121.03 0 0-.862.158-1.132.233-.2.058-.766.603-.766.603-.408.392.233.542.233.542-.033.037-.075.1-.075.154 0 .046.034.083.058.108.05.05.113.071.175.092a.635.635 0 0 0 .45-.013c.033-.012.062-.029.091-.042.038-.02.075-.041.117-.062.116-.067.233-.129.345-.212.013-.009.042-.042.059-.046l.67-.038c-.225.125-.458.533-.766.721-.046.029-.092.058-.133.104-.038.037-.079.096-.071.158.008.058.062.075.104.092.129.05.271.05.408.016a.997.997 0 0 0 .345-.17c.021-.017.038-.03.059-.05.408-.454.861-.679 1.44-.379.836.433 1.494-.816 1.494-.816s.371-.671.117-1.12z" fill="#A96644"/><path d="M625.321 101.165c.262.471.911 1.532 1.198 2.073 0 0 1.54 2.79-5.977 8.073 0 0-.899-.458-.599-1.619l3.188-5.155-.791-1.349c1.091-1.232 2.027-1.698 2.981-2.023z" fill="#A96644"/><path d="M621.021 94.964s1.307-.166 4.84 6.2c-.587.628-1.877 2.094-3.617 2.693l-2.01-2.477s-.67-4.405.787-6.416z" fill="#B23232"/><path d="M591.207 142.577c-.233 0-1.316-.009-1.511-.009-.6 0-1.087.696-1.087 1.528 0 .837.487 1.528 1.087 1.528h1.419l.092-3.047z" fill="#1A2126"/><path d="M592.246 144.072c0-.836-.437-1.473-1.04-1.473-.6 0-1.137.641-1.137 1.473 0 .837.446 1.595 1.049 1.595.6-.004 1.128-.762 1.128-1.595z" fill="#313C44"/><path d="M595.963 143.676h-.857c-.724-.366-.733-.833-.733-.833l-.541-.262-.649.275c-.071.616-.587.699-.82.824h-.903a.367.367 0 0 0 0 .733h4.508a.367.367 0 0 0 .366-.366.375.375 0 0 0-.371-.371z" fill="#7A8A96"/><path d="M595.521 142.214h-3.409v.608h3.409v-.608z" fill="#616F77"/><path d="M596.568 142.577c-.233 0-1.315-.009-1.511-.009-.599 0-1.086.696-1.086 1.528 0 .837.487 1.528 1.086 1.528h1.419l.092-3.047z" fill="#1A2126"/><path d="M597.604 144.076c0-.836-.437-1.473-1.041-1.473-.599 0-1.136.641-1.136 1.473 0 .837.445 1.595 1.049 1.595.603-.004 1.128-.762 1.128-1.595z" fill="#313C44"/><path d="M608.259 142.577c-.233 0-1.315-.009-1.511-.009-.599 0-1.086.696-1.086 1.528 0 .837.487 1.528 1.086 1.528h1.42l.091-3.047z" fill="#1A2126"/><path d="M609.3 144.072c0-.836-.437-1.473-1.041-1.473-.599 0-1.136.641-1.136 1.473 0 .837.445 1.595 1.049 1.595.599-.004 1.128-.762 1.128-1.595z" fill="#313C44"/><path d="M613.016 143.676h-.857c-.724-.366-.733-.833-.733-.833l-.541-.262-.649.275c-.071.616-.587.699-.82.824h-.903c-.2 0-.367.163-.367.367 0 .199.163.366.367.366h4.507c.2 0 .367-.162.367-.366a.377.377 0 0 0-.371-.371z" fill="#7A8A96"/><path d="M612.576 142.214h-3.409v.608h3.409v-.608z" fill="#616F77"/><path d="M613.621 142.577c-.233 0-1.316-.009-1.511-.009-.6 0-1.087.696-1.087 1.528 0 .837.487 1.528 1.087 1.528h1.419l.092-3.047z" fill="#1A2126"/><path d="M614.657 144.076c0-.836-.437-1.473-1.04-1.473-.6 0-1.137.641-1.137 1.473 0 .837.446 1.595 1.049 1.595.6-.004 1.128-.762 1.128-1.595z" fill="#313C44"/><path d="M613.137 142.34h-23.629s-1.248-.042-2.039-.833c-.791-.791.154-1.407.911-1.437.708-.029 3.638-.328 5.411 1.333.187.175.579.449 1.136.449h12.608s.974-.041 1.785-.603c.812-.562 4.221-1.857 5.807-.7 1.585 1.158-1.053 1.791-1.99 1.791z" fill="#A08650"/><path d="M589.222 140.537c-1.137.017-1.74.2-2.048.367 0 .179.087.387.3.604.79.791 2.039.832 2.039.832h5.407c-.745 0-.945-.146-1.582-.678-.645-.538-2.014-1.158-4.116-1.125z" fill="#A52923"/><path d="M613.503 141.852s1.623-.058 2.027-.908a1.566 1.566 0 0 0-.404-.408c-1.582-1.157-4.995.142-5.806.704-.725.504-1.578.591-1.753.604v.012h5.936v-.004z" fill="#313C44"/><path d="M611 75.754V74.21c0-1.235-.95-2.25-2.114-2.25h-5.57V70c-1.28.004-2.853.026-4.636.061v1.9h-5.57c-1.165 0-2.11 1.01-2.11 2.25v1.543c0 1.235.95 2.246 2.11 2.246h15.776c1.164.004 2.114-1.011 2.114-2.246z" fill="#0082C8"/><path d="M565 110a8 8 0 1 0 0-16 8 8 0 0 0 0 16z" stroke="#0082C8" stroke-width="6.427" stroke-miterlimit="10"/><path d="M559.65 95.716l-1.284-.65a.62.62 0 0 0-.837.287l-.071.141a.643.643 0 0 0 .003.57.584.584 0 0 0-.431.317l-.072.141c-.101.207-.064.447.075.642a.62.62 0 0 0-.518.348l-.071.141a.641.641 0 0 0-.034.478.464.464 0 0 0-.203.141l-.082.096a.52.52 0 0 0 .048.726l.875.78a.5.5 0 0 0 .714-.05l.082-.096a.52.52 0 0 0 .027-.646l.146.073a.62.62 0 0 0 .837-.287l.072-.141a.652.652 0 0 0 .022-.508c.323.1.657-.02.792-.294l.072-.142c.131-.267.03-.592-.218-.795a.612.612 0 0 0 .274-.278l.071-.142a.65.65 0 0 0-.289-.852zM570.438 95.716l1.605-.65c.385-.156.854-.026 1.046.287l.089.141a.53.53 0 0 1-.004.57c.234.034.436.145.539.317l.089.141c.127.207.08.447-.093.642.267.015.52.138.647.348l.089.141a.525.525 0 0 1 .043.478.594.594 0 0 1 .253.141l.103.096c.23.214.202.538-.061.726l-1.093.78a.738.738 0 0 1-.892-.05l-.103-.096a.442.442 0 0 1-.033-.646l-.183.073c-.385.156-.854.027-1.046-.287l-.089-.141a.53.53 0 0 1-.029-.508c-.403.1-.821-.02-.99-.294l-.089-.142c-.164-.267-.037-.592.272-.795a.704.704 0 0 1-.342-.278l-.089-.142c-.183-.313-.029-.695.361-.852z" fill="#A96644"/><path d="M589.138 144.687l-.65-1.307-1.906.262-.191 1.549 2.747.004v-.508z" fill="#D17462"/><path d="M580.231 130.171c1.07 3.743 3.567 6.2 6.489 13.856l1.748-.641s-1.998-7.486-4.391-13.61c0 0 .187-5.263 1.835-11.075-2.597-.695-3.662-.928-5.173-1.199-1.037 4.043-1.003 10.929-.508 12.669z" fill="#D17462"/><path d="M580.744 117.496a19.617 19.617 0 0 0-.366 1.803c.749.604 2.364 1.64 4.899 1.932a43.85 43.85 0 0 1 .641-2.536c-2.597-.691-3.667-.928-5.174-1.199z" fill="#BA5F50"/><path d="M589.578 146.96h-8.611v.995h8.611v-.995z" fill="#C1C1C1"/><path d="M580.98 146.961s-.587-1.628 1.969-1.861l.662 1.861h-2.631z" fill="#F2F2F2"/><path d="M582.97 145.095l3.405-1.153s.407-.121.711.683c0 0 1.261.683 2.061-.183 0 0 .765-.067.432 1.261v1.262h-7.104l.495-1.87z" fill="#D6D8D8"/><path d="M589.125 144.443a1.302 1.302 0 0 1-1.007.437l.079.462s.512-.096.758-.283c0 0 .204.512.582.633.333-1.308-.412-1.249-.412-1.249zM585.067 146.961h-.554l-.441-1.112.475-.166.52 1.278zM586.062 146.96h-.553l-.554-1.415.508-.158.599 1.573zM587.053 146.961h-.549l-.637-1.691.495-.154.691 1.845z" fill="#3E4042"/><path d="M587.053 144.632l-3.801 1.299-.166-.462 3.155-1.066c.004 0 .566-.221.812.229z" fill="#CECECE"/><path d="M583.594 144.693l-.311.107.288.834.31-.107-.287-.834zM584.255 144.472l-.311.107.288.835.311-.107-.288-.835zM584.922 144.25l-.311.107.288.835.311-.107-.288-.835zM585.692 144.031l-.311.107.287.834.311-.107-.287-.834z" fill="#F2F2F2"/><path d="M587.789 118.831c.291 4.775 1.028 17.194.957 26.142h1.894s1.553-15.542 2.331-26.704c-2.069.083-3.584.258-5.182.562z" fill="#D17462"/><path d="M592.977 118.303c-2.069.083-3.588.25-5.182.553.042.662.087 1.474.141 2.399 1.441-.134 3.076-.508 4.916-1.233.042-.583.083-1.157.125-1.719z" fill="#BA5F50"/><path d="M588.389 145.19l.362-1.874h2.052l.224 1.828-2.638.046z" fill="#D17462"/><path d="M591.69 146.959h-3.754v.995h3.758l-.004-.995z" fill="#CECECE"/><path d="M589.718 143.832s-.966-.004-.895.604c0 0-.886-.104-.886 2.452l3.758.054s-.075-2.473-1.032-2.473c0 0 .145-.637-.945-.637z" fill="#E5E5E5"/><path d="M589.033 144.352v1.544l-.441.017v-1.233s.22-.266.441-.328zM590.354 144.349v1.544l.441.017v-1.232s-.109-.267-.441-.329z" fill="#CECECE"/><path d="M590.686 144.79c-.882-.395-1.877-.004-1.885 0l.008-.229c.038-.016.883-.441 1.877 0v.229z" fill="#F2F2F2"/><path d="M588.801 145.129l.008-.234c.029-.016.77-.433 1.873-.054v.229a2.76 2.76 0 0 0-1.881.059z" fill="#F2F2F2"/><path d="M587.935 146.96s-.167-1.895 1.877-1.895 1.877 1.895 1.877 1.895h-3.754z" fill="#F2F2F2"/><path d="M594.383 99.421s-1.699-1.382-.691-3.13c1.007-1.749 1.431-2.915.691-4.189-.745-1.274.795-3.997 1.061-5.054.266-1.058-1.432-4.634-1.328-6.087.104-1.453-.957-4.742-3.825-4.426 0 0-6.214-2.165-7.804 2.715-1.594 4.88-.903 7.39 0 8.926.903 1.532 1.627 4.46.683 6.308-.949 1.848-.055 3.672 1.49 4.575 1.548.904 6.484 1.911 9.723.362z" fill="url(#paint1_linear)"/><path d="M594.125 80.795c.008-.912-.379-2.369-1.287-3.326-.932 1.12-3.13 2.385-5.34 1.777-1.968-.54-2.222-2.015-2.185-2.897-.999.324-1.923.974-2.518 2.156 3.833 2.91 8.674 2.702 11.33 2.29z" fill="#994A3D"/><path d="M595.485 96.962s-.067 2.798-.005 6.682c.063 3.885.866 3.447-.457 12.615h-1.732s-.899-9.359-.221-12.598l-.653-6.124 3.068-.575z" fill="url(#paint2_linear)"/><path d="M593.233 115.997c.329-.695.854-.47 1.511-.158.658.312.575.962.492 1.511l-.321.941c-.329.696-.82.662-1.478.346-.657-.312-1.082-.795-.753-1.495l.549-1.145z" fill="#BA5F50"/><path d="M593.196 117.63c.05.046.088.108.109.179.195.733 1.39 1.782 1.844 2.107.158.112.237.337.145.478-.095.142-.295.109-.449-.004-.192-.137-1.873-1.369-2.177-2.489-.05-.179.054-.346.233-.371a.353.353 0 0 1 .295.1z" fill="#BA5F50"/><path d="M593.521 117.408c.05.029.096.071.125.125.62 1.024 2.435 1.853 2.456 1.861.179.071.383.266.316.441-.066.175-.374.15-.553.079-.084-.033-2.065-.816-2.81-2.048a.329.329 0 0 1 .117-.462.339.339 0 0 1 .349.004z" fill="#BA5F50"/><path d="M594.267 117.513a.408.408 0 0 1 .108.066c.732.625 1.831 1.025 1.844 1.029.279.112.403.308.337.462-.046.1-.308.092-.491.042-.05-.013-1.27-.367-2.131-1.104-.146-.125-.163-.316-.038-.433.092-.095.242-.112.371-.062z" fill="#BA5F50"/><path d="M594.662 117.138c.033.009.071.009.096.034.441.437 1.514.707 1.523.707.191.021.304.125.287.304-.017.179-.158.146-.35.125a5.642 5.642 0 0 1-1.785-.566c-.171-.088-.237-.287-.146-.446.071-.129.225-.187.375-.158z" fill="#BA5F50"/><path d="M593.071 92.948s2.014.966 3.259 4.122c0 0-1.561 1.224-3.755 1.636-.004.004-.707-3.426.496-5.758z" fill="#86CF87"/><path d="M581.451 95.83s-.878 9.251.292 10.8c0 0 2.572 3.368 9.111 4.9l.532-1.603s-4.832-3.26-7.371-4.842l-.262-8.56-2.302-.695z" fill="url(#paint3_linear)"/><path d="M594.813 112.359c.02-.146-.146-.187-.329-.241l.566.087c.133.017.279.029.308-.137.033-.179-.112-.213-.262-.25l.391.05c.133.012.279.017.32-.167.034-.15-.087-.2-.224-.254l-.304-.112c.195.025.374-.033.399-.15.017-.075-.033-.204-.278-.308l-1.578-.729-.599-.187.441-.125c.42-.191.3-.445.3-.445-.059-.134-.317-.079-.658-.059l-1.145.146c-.457.137-1.29.404-1.461.999-.174.616-.104.95.267 1.174 0 0 .699.35 1.107.5.408.15.916.25.916.25l1.415.129c.225.004.391-.042.408-.171z" fill="#D17462"/><path d="M582.928 92.765s-1.615.861-2.551 4.176c0 0 2.431 1.49 3.942 1.573-.005.005-.55-3.905-1.391-5.75z" fill="#86CF87"/><path d="M591.003 106.312l.22-2.66-7.941-.084.341 2.677-.699 2.669s3.038 2.465 9.273-.025c-.312-1.099-1.003-1.649-1.194-2.577z" fill="#D17462"/><path d="M591.007 106.216l.212-2.564-7.942-.084.229 1.807c1.141.587 3.85 1.653 7.501.841z" fill="#BA5F50"/><path d="M584.284 92.481s3.572-.8 6.872 0c0 0-.558 3.647-4.766 3.68-4.212.034-2.106-3.68-2.106-3.68z" fill="#D17462"/><path d="M590.179 92.235s-.782 2.057-3.101 2.015c-2.222-.041-1.656-2.015-1.656-2.015a30.294 30.294 0 0 0-2.489.53l-.267 2.48c-.907 1.329-1.107 2.315-1.065 3.115.062 1.211.233 2.231.233 2.231l.354 4.384c4.695 1.824 10.276-.137 10.276-.137-.1-4.559.662-6.62.662-6.62v-5.27c-.783-.33-2.185-.604-2.947-.713z" fill="#86CF87"/><path d="M586.545 90.987l-.008 2.227 2.726.013.013-2.898c-1.136.741-2.264.72-2.731.658z" fill="#D17462"/><path d="M589.28 90.329l.008-2.231-2.726-.013-.012 2.902c.466.062 1.594.083 2.73-.658z" fill="#BA5F50"/><path d="M591.152 84.91s.782 4.884-.279 6.874c-1.061 1.99-1.394 2.415-1.115 3.472.274 1.058.903 2.41-.791 3.722 0 0 3.163-.52 2.464-3.722 0 0 2.635-2.89 2.356-10.55l-2.635.204zM582.341 86.666s-.371 2.948.791 5.159c1.161 2.21-.795 2.748-.425 4.496.371 1.749-.458 2.436-1.065 2.673 0 0 1.964.283 2.364-2.086 0 0 .066-1.207.37-1.54.304-.333 1.624-2.769.729-4.83-.895-2.06 0-3.876 0-3.876h-2.764v.004z" fill="#7C3425"/><path d="M591.936 83.78l-.079.026s-.246 1.174-.87-1.37c-.412-2.66-3.455-3.547-3.455-3.547-4.849.075-5.032 2.348-4.682 4.317.141.72.32 1.878.266 2.873-.137 2.485 1.956 4.1 3.817 4.097 3.571-.005 4.503-2.94 4.503-2.94s1.64.046 1.856-2.186c.175-1.823-1.356-1.27-1.356-1.27z" fill="#D17462"/><path d="M587.499 79.246s2.19.625 3.351 2.615c-.72-2.21-3.313-2.968-3.313-2.968-2.947.045-4.171.903-4.599 2.015.574-.75 1.827-1.566 4.561-1.662z" fill="#BA5F50"/><g opacity=".9"><path opacity=".091" d="M584.781 84.923a1.507 1.507 0 0 1 1.202 1.765 1.506 1.506 0 0 1-1.764 1.203 1.507 1.507 0 0 1-1.203-1.765 1.507 1.507 0 0 1 1.765-1.203z" fill="#E8725F"/><path opacity=".182" d="M584.752 85.064a1.365 1.365 0 0 1 1.086 1.598 1.366 1.366 0 1 1-1.086-1.599z" fill="#E5705E"/><path opacity=".273" d="M584.724 85.206c.662.125 1.099.766.974 1.428a1.224 1.224 0 0 1-1.427.974 1.224 1.224 0 0 1-.974-1.428c.125-.662.766-1.099 1.427-.974z" fill="#E36E5D"/><path opacity=".364" d="M584.696 85.352c.583.112.966.674.857 1.257a1.08 1.08 0 0 1-1.256.858 1.08 1.08 0 0 1-.858-1.258c.113-.587.674-.97 1.257-.857z" fill="#E16C5C"/><path opacity=".455" d="M584.671 85.492a.93.93 0 0 1-.345 1.828.93.93 0 0 1 .345-1.828z" fill="#DF6A5B"/><path opacity=".545" d="M584.642 85.632a.784.784 0 1 1-.916.625.788.788 0 0 1 .916-.625z" fill="#DC6759"/><path opacity=".636" d="M584.617 85.778a.638.638 0 1 1-.238 1.252.638.638 0 0 1 .238-1.252z" fill="#DA6558"/><path opacity=".727" d="M584.588 85.92a.492.492 0 1 1-.185.967.492.492 0 0 1 .185-.966z" fill="#D86357"/><path opacity=".818" d="M584.564 86.064a.346.346 0 1 1-.13.68.346.346 0 1 1 .13-.68z" fill="#D66156"/><path opacity=".909" d="M584.535 86.207c.108.02.179.125.158.237a.2.2 0 0 1-.233.159.206.206 0 0 1-.163-.234.205.205 0 0 1 .238-.162z" fill="#D35F55"/><path opacity=".9" d="M584.552 86.417c-.004.03-.034.051-.067.047-.03-.004-.051-.034-.047-.068.004-.03.034-.051.068-.047.034.009.055.038.046.068z" fill="#D15D54"/></g><g opacity=".9"><path opacity=".091" d="M589.575 84.81a1.622 1.622 0 0 1 1.29 1.894 1.622 1.622 0 0 1-1.894 1.29 1.622 1.622 0 0 1-1.29-1.894 1.627 1.627 0 0 1 1.894-1.29z" fill="#E8725F"/><path opacity=".182" d="M589.546 84.966a1.463 1.463 0 1 1-.545 2.877 1.463 1.463 0 1 1 .545-2.877z" fill="#E5705E"/><path opacity=".273" d="M589.515 85.117a1.31 1.31 0 0 1 1.041 1.528 1.31 1.31 0 0 1-1.528 1.041 1.309 1.309 0 0 1-1.04-1.528 1.311 1.311 0 0 1 1.527-1.04z" fill="#E36E5D"/><path opacity=".364" d="M589.488 85.272c.625.116 1.037.72.916 1.345a1.147 1.147 0 0 1-1.344.916 1.15 1.15 0 1 1 .428-2.26z" fill="#E16C5C"/><path opacity=".455" d="M589.459 85.426a.992.992 0 0 1 .79 1.162.993.993 0 1 1-.79-1.162z" fill="#DF6A5B"/><path opacity=".545" d="M589.429 85.579a.846.846 0 0 1 .67.982.845.845 0 0 1-.982.67.842.842 0 0 1 .312-1.653z" fill="#DC6759"/><path opacity=".636" d="M589.399 85.73a.684.684 0 1 1-.255 1.345.684.684 0 0 1 .255-1.345z" fill="#DA6558"/><path opacity=".727" d="M589.369 85.882a.526.526 0 0 1 .421.617.527.527 0 1 1-.421-.616z" fill="#D86357"/><path opacity=".818" d="M589.341 86.037a.372.372 0 0 1 .295.433.372.372 0 0 1-.433.295.372.372 0 0 1 .138-.728z" fill="#D66156"/><path opacity=".909" d="M589.313 86.192c.117.02.196.133.171.254a.214.214 0 0 1-.25.171.21.21 0 0 1-.171-.25.214.214 0 0 1 .25-.175z" fill="#D35F55"/><path opacity=".9" d="M589.335 86.413c-.004.034-.038.055-.072.047-.034-.005-.055-.039-.046-.073.004-.034.038-.055.072-.046.03.008.051.042.046.072z" fill="#D15D54"/></g><path d="M586.894 86.683c-.62.283-1.011.137-1.09-.279-.054-.27.104-.583.274-.733.35-.308.504-1.215.508-1.224.029.192-.012.95-.437 1.478a.458.458 0 0 0-.116.354c.016.308.316.55.861.404z" fill="#BA5F50"/><path d="M584.647 83.93s-.546.016-.625-.188c0 0-.062.287.267.38a.811.811 0 0 0-.163.52c.005.387.25.699.541.695.292-.004.525-.325.521-.712-.009-.387-.25-.7-.541-.695zM588.725 83.867s-.545.017-.624-.187c0 0-.066.287.267.379a.806.806 0 0 0-.163.52c.004.387.25.7.541.695.292-.004.525-.325.521-.712-.009-.391-.25-.7-.542-.695z" fill="#68413A"/><path d="M591.122 86.615s-.225 1.565-2.676 2.614c-2.161.924-4.267-.508-4.737-.862.733 1.141 2.027 1.811 3.226 1.811 3.571-.004 4.503-2.939 4.503-2.939s1.041.03 1.574-1.087c-.924.687-1.89.463-1.89.463z" fill="#BA5F50"/><path d="M585.674 82.838s-.874-.237-2.072.112c0 0-.009-.087.216-.283.212-.179.999-.374 1.677-.1 0 .004.354.192.179.27zM587.581 82.79s.874-.254 2.077.075c0 0 .004-.087-.225-.279-.216-.175-1.007-.358-1.677-.067 0 0-.35.196-.175.271z" fill="#7C3425"/><path d="M588.185 87.257s-1.386.304-2.685.041c0 0 .246 1.187 1.361 1.166 1.049-.016 1.315-.978 1.324-1.207z" fill="#B22828"/><path d="M586.825 87.849c-.857.013-1.111-.337-1.223-.529 1.007.183 1.814.05 2.518-.046-.071.213-.487.563-1.295.575z" fill="#fff"/><path d="M592.436 108.785c-6.893.904-9.811 0-9.811 0s-1.448 4.363-2.738 8.993c1.178.612 3.417 1.374 6.118 1.528.25-.745.454-1.457.579-1.774l.903-.016s.058.645.129 1.794c1.557-.05 3.783-.25 5.815-.674-.021-3.876.166-7.145-.995-9.851z" fill="#7D9CC9"/><path d="M587.233 111.116c-3.056 0-4.958-.533-4.987-.542a.112.112 0 0 1-.075-.137.112.112 0 0 1 .138-.075c.041.013 4.27 1.191 10.272-.004a.106.106 0 0 1 .129.087.108.108 0 0 1-.087.129 27.341 27.341 0 0 1-5.39.542z" fill="#9EB9D8"/><path d="M587.071 115.905h-.005c-.353-.017-.62-.133-.815-.354-.337-.375-.458-1.041-.392-2.157.059-.982.204-3.968.204-3.997a.107.107 0 0 1 .117-.104.109.109 0 0 1 .104.117c0 .029-.15 3.014-.204 4.001-.058 1.037.046 1.674.337 1.994.158.175.375.267.666.283a.109.109 0 0 1 .104.117.12.12 0 0 1-.116.1zM587.345 117.253s-.004 0 0 0a.111.111 0 0 1-.113-.108c.096-3.072.225-7.681.225-7.727 0-.063.054-.108.113-.108.062 0 .108.054.108.112 0 .046-.129 4.655-.225 7.727 0 .063-.05.104-.108.104zM592.946 112.949c-2.244 0-2.527-2.127-2.531-2.148-.008-.054.033-.1.088-.109.058-.008.104.034.112.092.008.079.266 1.978 2.326 1.982.055 0 .1.037.1.091.005.055-.041.092-.095.092zM581.626 112.694a.106.106 0 0 1-.104-.091.103.103 0 0 1 .091-.117c2.131-.246 2.268-1.532 2.273-1.586a.105.105 0 0 1 .112-.096c.058.004.1.054.096.112-.004.063-.146 1.512-2.456 1.778h-.012z" fill="#9EB9D8"/><path d="M592.597 116.625a.624.624 0 0 1-.554.691l-2.376.267a.626.626 0 0 1-.691-.554l-.071-.62a.625.625 0 0 1 .554-.692l2.376-.266a.624.624 0 0 1 .691.554l.071.62zM585.03 117.053a.444.444 0 0 1-.52.35l-2.926-.575a.442.442 0 0 1-.349-.52.444.444 0 0 1 .52-.35l2.926.575c.241.05.395.283.349.52zM579.74 117.152s2.198 1.262 6.576 1.832l-.203.974s-4.271-.22-6.627-1.823l.254-.983zM587.336 118.991s2.023.124 6.439-.733v1.02s-2.751.962-6.343.683l-.096-.97z" fill="#CAE0EF"/><path d="M590.172 109.131l-.551.059.213 1.975.55-.059-.212-1.975zM584.213 109.133l-.287 1.965.548.08.287-1.965-.548-.08z" fill="#6888AF"/><path d="M586.903 110.663a.453.453 0 1 0 .001-.907.453.453 0 0 0-.001.907z" fill="#CAE0EF"/><path d="M525.005 144.17c.084 5.754.4 13.327 1.517 18.787.396 1.93.263 2.001 3.151 1.988 3.071-.016 14.314.063 17.227.054 5.751-.02 7.168-.016 9.627-.888 2.65-.943 4.592-1.852 7.209-2.79 2.571-.922 5.876-.689 8.785-.706 6.163-.033 19.382.307 29.567.257 10.185-.054 23.399-.527 29.563-.556 2.908-.016 6.213-.282 8.793.615 2.629.913 4.575 1.801 7.238 2.715 2.467.847 3.884.83 9.635.793 2.913-.021 14.157-.212 17.228-.228 2.888-.017 2.754-.088 3.129-2.018 1.063-5.472 1.301-13.045 1.326-18.8.025-5.962-1.271-20.473-1.517-23.296-.384-4.413-1.917-5.592-3.53-7.56-1.842-2.246-2.6-3.812-4.096-5.738-1.359-1.744-2.684-2.931-4.143-4.501-.725-.78-1.15-1.893-1.35-2.943-.312-1.62-3.688-9.2-7.047-15.292-2.392-4.33-5.734-8.876-7.384-10.612-2.726-2.864-4.659-3.388-7.256-3.67-12.635-1.374-25.891-1.852-41.06-1.773-15.169.08-28.417.69-41.04 2.192-2.592.308-4.521.852-7.217 3.741-1.634 1.752-4.93 6.332-7.277 10.687-3.296 6.124-6.596 13.743-6.892 15.362-.192 1.05-.605 2.167-1.321 2.956-1.438 1.586-2.755 2.786-4.093 4.542-1.479 1.939-2.221 3.513-4.038 5.779-1.592 1.985-3.113 3.181-3.45 7.598-.225 2.819-1.375 17.347-1.284 23.305zm18.911-47.821c1.146-3.106 2.734-7.436 4.622-11.177 2.15-4.264 4.617-7.864 6.088-9.807 1.321-1.743 1.755-1.905 4.155-2.163 9.168-.984 29.796-1.843 42.848-1.91 13.048-.066 33.685.582 42.865 1.474 2.401.233 2.838.39 4.176 2.122 1.492 1.926 3.996 5.505 6.188 9.744 1.926 3.724 3.555 8.034 4.735 11.131.391 1.03.537 2.221-.913 2.176-2.871-.091-22.716-.847-28.68-1.042-6.605-.216-21.936-.374-28.241-.34-6.31.032-21.633.344-28.238.626-5.959.258-25.8 1.213-28.667 1.333-1.454.062-1.321-1.13-.938-2.167z" fill="#14AFEB"/><path d="M677.908 158l-18.908.1.092 18.934c.008 1.646 1.296 2.974 2.876 2.966l13.184-.071c1.581-.008 2.856-1.349 2.848-2.995L677.908 158zM526 159.1l19.903-.1.097 18.934c.008 1.646-1.334 2.987-2.998 2.995l-13.878.071c-1.663.008-3.018-1.32-3.027-2.966L526 159.1z" fill="#192D4B"/><path d="M678.371 158.393l-151.929.777.046 8.826 151.928-.777-.045-8.826z" fill="#192D4B"/><path d="M662.71 100.338c.191.627.583.726 1.382.631 5.568-.643 11.175-1.568 15.59-2.374.833-.152 1.403-.171 1.907-.882.745-1.053 1.477-2.126 1.406-3.346-.07-1.193-2.018-2.809-3.1-3.288-2.835-1.256-5.856-1.759-9.098-2.018a16.92 16.92 0 0 0-2.914.004c-.857.084-1.069.638-1.265 1.4-.445 1.74-.649 3.526-.741 5.318-.978-.012-3.974-.204-3.875.881.084 1.133.387 2.61.708 3.674zM541.998 97.63c.083-1.094-2.905-.87-3.882-.85-.112-1.796-.333-3.591-.798-5.335-.204-.761-.42-1.318-1.276-1.394-.935-.08-1.975-.06-2.91.024-3.238.292-6.251.83-9.065 2.12-1.073.493-3.006 2.132-3.064 3.33-.058 1.227.686 2.297 1.438 3.351.507.71 1.081.722 1.912.866 4.415.765 10.026 1.639 15.592 2.232.802.085 1.193-.016 1.372-.649.316-1.074.602-2.557.681-3.695z" fill="#14AFEB"/><path d="M527.54 152.709c.894-2.364 1.568-4.612 2.463-6.984.687-1.828 2.001-4.637 2.9-6.403 1.195-2.343 4.257-2.17 6.654-2.15 2.63.025 9.25.285 11.847.335 2.38.041 5.338-.062 6.15-3.053l44.848-.227 44.849-.227c.844 2.983 3.803 3.057 6.183 2.991 2.597-.074 9.213-.4 11.843-.454 2.396-.045 5.459-.247 6.674 2.084.92 1.757 2.26 4.55 2.967 6.373.92 2.36 1.614 4.604 2.534 6.96.362.932.911 1.436 1.548 1.939-.2 2.958-.512 5.854-.995 8.317-.374 1.918-.241 1.988-3.125 2.005-3.066.016-14.293.21-17.202.227-5.742.041-7.152.058-9.62-.788-2.655-.908-4.602-1.795-7.228-2.702-2.576-.887-5.875-.627-8.78-.611-6.154.033-19.349.503-29.519.557-10.17.05-23.369-.289-29.523-.256-2.904.017-6.208-.214-8.772.702-2.613.932-4.552 1.84-7.198 2.772-2.455.866-3.87.866-9.612.883-2.909.012-14.136-.07-17.202-.054-2.884.017-2.751-.058-3.146-1.972-.508-2.459-.849-5.351-1.078-8.304.645-.512 1.186-1.024 1.54-1.96z" fill="#0082C8"/><path d="M538.007 153.735c.171-.561 23.412 3.129 64.009 2.913 40.598-.215 63.801-4.15 63.976-3.594.487 1.543-21.775 6.715-63.959 6.939-42.184.224-64.5-4.715-64.026-6.258z" fill="#14AFEB"/><path d="M556.109 132.976c.551-2.025 3.028-3.471 4.916-4.717a87.08 87.08 0 0 1 4.581-2.826c.472-.269 1.508-.898 2.28-1.033.902-.155 2.477.008 3.358.033 3.546.102 6.477.163 10.023.22 3.546.058 7.095.094 10.641.107 1.8.008 6.966-.021 10.048-.037 3.086-.017 8.248-.041 10.048-.066a838.884 838.884 0 0 0 20.66-.535c.877-.032 2.452-.212 3.354-.065.772.127 1.816.747 2.288 1.009a84.781 84.781 0 0 1 4.611 2.781c1.9 1.229 4.393 2.651 4.965 4.668.614 2.169-1.319 4.848-2.451 6.514-3.496 5.162-6.736 10.149-11.005 14.559-1.804 1.863-4.343 1.842-6.765 1.94-3.291.135-17.361.409-25.55.47-8.19.02-22.26-.114-25.555-.212-2.422-.074-4.961-.025-6.786-1.871-4.314-4.366-7.605-9.324-11.155-14.449-1.136-1.658-3.099-4.317-2.506-6.49z" fill="#0082C8"/><path d="M583.217 150l37.64-.207c1.187-.005 2.147-1.04 2.143-2.305l-.054-11.205c-.004-1.265-.976-2.287-2.163-2.283l-37.64.207c-1.187.005-2.147 1.04-2.143 2.305l.054 11.205c.008 1.265.976 2.287 2.163 2.283z" fill="#14AFEB"/><path d="M585 145v-6h4v.721h-2.999v2.005h2.274v.695h-2.274V145H585zM591.941 142.49c-.082.009-.172.009-.266.009h-.801V145H590v-6h1.679c1.255 0 2.027.531 2.027 1.706 0 .821-.339 1.348-.932 1.603l1.226 2.406v.281h-.801l-1.258-2.506zm-1.071-.678h.777c.768 0 1.16-.289 1.16-1.054 0-.747-.413-1.045-1.16-1.045h-.777v2.099zM595 139h2.924v.721h-2.189v1.869h1.602v.686h-1.602v2.02H598V145h-3v-6zM599 139h3.899v.721h-2.918v1.869h2.135v.686h-2.135v2.02H603V145h-4v-6zM603 139.285V139h.877l1.066 4.704h.018l1.178-4.704h.817l1.169 4.704h.017l1.067-4.704H610v.285L608.594 145h-.98l-1.093-4.523h-.017L605.386 145h-.98L603 139.285zM610.004 144.719l2-5.719h1.005l1.991 5.719V145h-.891l-.563-1.682h-2.227l-.546 1.682H610v-.281h.004zm1.542-2.084h1.768l-.873-2.649h-.017l-.878 2.649zM616.623 145v-2.399L615 139.298V139h.75l1.305 2.719h.008l1.275-2.719H619v.298l-1.558 3.277V145h-.819zM602.5 123a4.5 4.5 0 1 0 0-9 4.5 4.5 0 0 0 0 9z" fill="#fff"/><path d="M602.5 123a4.5 4.5 0 1 0 0-9 4.5 4.5 0 0 0 0 9z" fill="#fff"/><path d="M598.157 119.428a4.27 4.27 0 0 0 .924 1.878 6.812 6.812 0 0 1 6.643-5.317 3.577 3.577 0 0 0-.204-.245 6.805 6.805 0 0 0-7.363 3.684z" fill="#0046B4"/><path d="M600.409 122.351a4.258 4.258 0 0 0 5.557-6.003 6.81 6.81 0 0 0-5.557 6.003zM603.419 115.14c.6 0 1.178.079 1.732.22a4.255 4.255 0 0 0-6.976 2.244 6.802 6.802 0 0 1 5.244-2.464z" fill="#46B400"/><path d="M561.977 123.019c-.185-.474-2.631-1.128-4.314-1.601-3.026-.848-8.674-2.511-11.507-3.408-2.725-.864-5.825-1.972-8.402-3.227-1.185-.576-1.922-.979-3.273-.683-1.284.28-2.288.642-3.454 1.165-.576.259-1.325.695-1.7 1.168-.341.433-.551 1.322-.687 1.836-.383 1.453-.577 2.675-.634 3.976-.087 1.955.786 3.387 2.643 4.169 2.437 1.029 5.442 1.379 8.04 1.786 2.828.445 5.681.704 8.542.782 1.564.042 3.059.05 4.561-.44 1.359-.444 2.433-.984 3.722-1.601 1.354-.65 2.7-1.453 4.022-2.091.44-.214 2.717-1.132 2.441-1.831z" fill="#BAE2EE"/><path d="M536.5 125a3.5 3.5 0 1 0 0-7 3.5 3.5 0 0 0 0 7zM549.264 125.772a3.466 3.466 0 0 0 0-4.899 3.464 3.464 0 1 0 0 4.899z" fill="#fff"/><path d="M529.028 123.227c.05.569.697 1.472 1.187 1.754 1.653.943 4.46 1.54 6.36 1.89 3.15.576 6.295.867 9.493 1.077 1.208.08 3.788.104 3.928-.202.083-.179-1.269-.235-2.79-.37-2.943-.263-5.952-.625-8.85-1.194-1.793-.354-4.674-1.121-6.389-1.996-.882-.45-1.356-1.034-1.373-1.722-.033-1.52.215-3.047.668-4.284.375-1.018 2.131-2.192 1.707-2.18-.54.016-1.649.704-2.428 1.253-.301.215-.585.585-.676.823-.466 1.249-.994 3.266-.837 5.151z" fill="#fff"/><path d="M644.481 123.996c1.326.616 2.685 1.4 4.043 2.032 1.293.6 2.376 1.122 3.739 1.551 1.512.469 3.002.449 4.567.392a67.217 67.217 0 0 0 8.536-.861c2.595-.433 5.601-.808 8.026-1.853 1.849-.796 2.71-2.224 2.598-4.162-.07-1.289-.28-2.497-.675-3.933-.14-.51-.358-1.388-.704-1.812-.379-.461-1.132-.89-1.713-1.138-1.174-.51-2.182-.857-3.467-1.123-1.355-.277-2.088.127-3.27.715-2.565 1.269-5.654 2.399-8.367 3.284-2.821.918-8.454 2.624-11.473 3.497-1.68.486-4.113 1.159-4.299 1.628-.271.694 2.018 1.579 2.459 1.783z" fill="#BAE2EE"/><path d="M667.5 124a3.5 3.5 0 1 0 0-7 3.5 3.5 0 0 0 0 7zM660.061 125.206a3.464 3.464 0 1 0-4.898-4.897 3.464 3.464 0 0 0 4.898 4.897z" fill="#fff"/><path d="M674.081 117.193c-.091-.256-.38-.652-.686-.877-.785-.579-1.905-1.303-2.447-1.316-.425-.008 1.348 1.226 1.736 2.316.471 1.316.732 2.951.715 4.577-.008.736-.475 1.367-1.355 1.856-1.707.954-4.588 1.81-6.386 2.205-2.897.639-5.914 1.056-8.86 1.371-1.521.162-2.881.235-2.794.426.145.324 2.732.273 3.938.175 3.203-.26 6.357-.609 9.506-1.256 1.901-.392 4.711-1.06 6.356-2.086.492-.307 1.132-1.282 1.174-1.886.14-2.023-.413-4.177-.897-5.505z" fill="#fff"/><path d="M573.621 96.666c6.61-.298 21.947-.626 28.256-.661 6.314-.035 21.651.131 28.261.359.767.026 1.768.06 2.927.105l1.935 8.894c-8.048.731-18.894 1.335-33.51 1.637-14.608-.302-25.446-.906-33.49-1.633l2.314-8.544a999.91 999.91 0 0 1 3.307-.157z" fill="#5AC8F5"/><path opacity=".3" d="M641.04 69.8l10.324 26.277 2.636 6.707c-2.786.71-7.198 1.502-14.177 2.216l-2.18-8.906L631 69c3.405.215 6.746.483 10.04.8zM572 69l-6.296 27.008-2.093 8.992c-6.696-.721-10.932-1.517-13.611-2.233l2.531-6.775 9.734-26.05c3.2-.371 6.436-.684 9.735-.942z" fill="#fff"/></g><defs><linearGradient id="paint0_linear" x1="638.251" y1="73.643" x2="638.332" y2="82.659" gradientUnits="userSpaceOnUse"><stop stop-color="#7C3425"/><stop offset="1" stop-color="#60261D"/></linearGradient><linearGradient id="paint1_linear" x1="588.43" y1="86.996" x2="590.236" y2="98.469" gradientUnits="userSpaceOnUse"><stop stop-color="#7C3425"/><stop offset="1" stop-color="#60261D"/></linearGradient><linearGradient id="paint2_linear" x1="594.121" y1="102.004" x2="594.396" y2="109.058" gradientUnits="userSpaceOnUse"><stop stop-color="#D17462"/><stop offset="1" stop-color="#BA5F50"/></linearGradient><linearGradient id="paint3_linear" x1="591.699" y1="106.377" x2="587.007" y2="104.169" gradientUnits="userSpaceOnUse"><stop stop-color="#D17462"/><stop offset="1" stop-color="#BA5F50"/></linearGradient></defs></svg>