<svg width="375" height="140" fill="none" xmlns="http://www.w3.org/2000/svg" viewBox="0 0 375 140"><mask id="a" maskUnits="userSpaceOnUse" x="0" y="35" width="375" height="105"><path d="M375 35H0v105h375V35z" fill="#F5FCFF"/></mask><g mask="url(#a)"><g opacity=".2"><path d="M453.435 127.013h-223.26l25.086-3.936 40.324-.103 7.412-.893s6.54-.12 8.721.513c2.181.637 23.699-.413 23.699-.413s8.8-1.005 10.438-1.131c1.638-.127 14.311-1.421 20.393-1.029 6.084.392 12.48-.314 17.783.295 5.303.61 16.941-.38 20.715-.781 3.774-.401 22.167 1.412 24.034 1.756 1.867.347 10.616 2.404 14.54 3.14 3.925.736 10.115 2.582 10.115 2.582z" fill="#8BB984"/><path d="M379.926 103.652h-7.684v23.751h7.684v-23.751zM370.411 92.219h-6.758v35.183h6.758V92.219z" fill="#8ED7F5"/><path d="M368.845 107.131h-12.981v20.272h12.981v-20.272z" fill="#8ED7F5"/><path d="M374.649 114.355h-7.617v13.048h7.617v-13.048zM359.204 98.865h-5.065v28.541h5.065v-28.54zM350.95 81.936h-11.285v45.467h11.285V81.935zM334.48 64.701h-6.746v62.705h6.746V64.701zM326.283 77.803h-8.223v49.603h8.223V77.803z" fill="#8ED7F5"/><path d="M355.861 109.876h-12.009v17.527h12.009v-17.527zM338.715 96.298h-6.621v31.108h6.621V96.298z" fill="#8ED7F5"/><path d="M341.1 117.59h-4.832v9.813h4.832v-9.813zM334.479 107.773h-9.635v19.63h9.635v-19.63zM319.1 101.125h-21.352v26.278H319.1v-26.278zM258.158 123.149h-21.355v4.254h21.355v-4.254zM297.745 116.268h-3.906v11.137h3.906v-11.137z" fill="#8ED7F5"/><path d="M295.793 98.527h-13.934v28.876h13.934V98.527z" fill="#8ED7F5"/><path d="M284.207 77.953h-7.717v49.452h7.717V77.953z" fill="#8ED7F5"/><path d="M279.778 109.309h-10.417v18.097h10.417v-18.097z" fill="#8ED7F5"/><path d="M271.968 95.697h-5.991v31.705h5.991V95.697z" fill="#8ED7F5"/><path d="M267.277 86.496h-14.323v40.906h14.323V86.496zM315.456 73.269h-4.429v54.134h4.429V73.269zM303.076 109.975h-3.701v17.427h3.701v-17.427zM383.217 77.803h-8.224v49.603h8.224V77.803z" fill="#8ED7F5"/><path d="M376.037 101.125h-21.355v26.278h21.355v-26.278zM315.091 101.124h-21.355v26.278h21.355v-26.278z" fill="#8ED7F5"/><path d="M354.682 116.268h-3.907v11.137h3.907v-11.137z" fill="#8ED7F5"/><path d="M352.731 98.527h-13.934v28.876h13.934V98.527z" fill="#8ED7F5"/><path d="M341.137 83.953h-4.425v43.449h4.425V83.953zM336.711 109.309h-10.416v18.097h10.416v-18.097z" fill="#8ED7F5"/><path d="M328.901 95.697h-5.991v31.705h5.991V95.697z" fill="#8ED7F5"/><path d="M324.214 86.496h-14.323v40.906h14.323V86.496zM372.393 73.269h-4.428v54.134h4.428V73.269zM360.012 109.976h-3.701v17.427h3.701v-17.427z" fill="#8ED7F5"/><path d="M256.854 112.08h-9.5v18.338h9.5V112.08zM267.472 104.705h-8.353v25.714h8.353v-25.714z" fill="#5AC8F5"/><path d="M277.105 114.325h-16.048v16.094h16.048v-16.094z" fill="#5AC8F5"/><path d="M263.298 118.986h-9.418v11.433h9.418v-11.433zM279.237 108.992h-6.262v21.428h6.262v-21.428zM297.133 98.071h-13.952v32.348h13.952V98.071zM311.884 79.377h-8.341v51.042h8.341V79.377zM323.849 99.77H313.68v30.652h10.169V99.769z" fill="#5AC8F5"/><path d="M291.956 116.096h-14.848v14.323h14.848v-14.323zM306.494 107.336h-8.187v23.083h8.187v-23.083z" fill="#5AC8F5"/><path d="M301.331 121.07h-5.976v9.349h5.976v-9.349zM250.341 121.07h-5.976v9.349h5.976v-9.349zM315.456 114.738h-11.913v15.681h11.913v-15.681zM348.962 110.449h-26.401v19.971h26.401v-19.971zM353.792 120.22h-4.83v10.202h4.83V120.22z" fill="#5AC8F5"/><path d="M368.604 108.774h-17.225v21.648h17.225v-21.648z" fill="#5AC8F5"/><path d="M371.177 99.375h-5.472v31.048h5.472V99.375zM384.058 115.729h-12.881v14.691h12.881v-14.691zM332.543 97.87h-5.476v32.552h5.476V97.869zM346.947 116.159h-4.576v14.26h4.576v-14.26z" fill="#5AC8F5"/><path d="M308.425 76.565h-18.01v52.192h18.01V76.565zM372.571 60.647h-21.63v68.11h21.63v-68.11zM344.268 51.669h-24.48v77.088h24.48V51.669z" fill="#14AFEB"/><path opacity=".3" d="M456.561 128.585H230.175v1.02h226.386v-1.02z" fill="#385A27"/></g><path d="M401.329 153.294c-27.232-4.739-71.921-13.747-116.133-21.602-29.98-5.327-62.496-10.833-86.551-11.991-56.43-2.718-103.348 16.386-108.869 18.193v73.338h403.576v-52.484c-7.291.387-48.598 2.103-92.023-5.454z" fill="#009E00"/><path d="M371.252 211.232c-1.689-7.463-9.285-48.101 22.728-59.19 0 0-26.969-4.905-44.36-8.407 0 0-88.313-11.584-189.655 67.597h211.287z" fill="#fff"/><path d="M-31 115.663V90.015s64.668-18.79 209.018-12.856C137.086 76.742 58.65 81.538-31 115.663z" fill="#00AD00"/><path d="M240.513 81.566l13.534 1.206c.016 0 .028.004.039.004-130.446 8.413 137.643 161.22 137.643 161.22H240.513c0 .004-135.497-164.326 0-162.43z" fill="#fff"/><path d="M209.164 78.77l31.348 2.796c-135.496-1.892 0 162.434 0 162.434H-31v-78.298c41.356-52.256 159.435-91.954 240.164-86.932z" fill="#004EBB"/><path d="M254.086 82.775c71.951 8.263 176.932 65.589 285.82 69.936 116.321 4.641 201.739 6.2 201.739 6.2v85.088H391.728c.004 0-268.085-152.81-137.642-161.224z" fill="#00AD00"/><path d="M178.018 77.16c10.028.412 20.4.94 31.146 1.61a235.128 235.128 0 0 0-5.755-.27l-.361-.012C122.513 75.771 9.337 114.735-31 165.703v-50.039c89.65-34.126 168.086-38.921 209.018-38.505z" fill="#fff"/></g><path d="M123.878 112.872c31.965 0 57.877-1.958 57.877-4.373s-25.912-4.373-57.877-4.373c-31.965 0-57.878 1.958-57.878 4.373s25.913 4.373 57.878 4.373z" fill="#0032A5"/><path opacity=".7" d="M164.38 56.783v-3.489l-6.961-12.646-2.783-3.446-5.372-1.476h-50.83l-4.991 1.194-2.251 1.477-4.499 7.526-3.808 7.312.645 3.976 80.85-.428z" fill="#5BC4F1"/><path d="M101.36 53.52h-6.702a3.774 3.774 0 0 1-3.764-3.764 3.774 3.774 0 0 1 3.764-3.765h6.702a3.774 3.774 0 0 1 3.763 3.765 3.774 3.774 0 0 1-3.763 3.764z" fill="#0082C8"/><path d="M104.118 59.53H91.903a3.774 3.774 0 0 1-3.763-3.765A3.774 3.774 0 0 1 91.903 52h12.215a3.774 3.774 0 0 1 3.763 3.765 3.774 3.774 0 0 1-3.763 3.764z" fill="#0082C8"/><path d="M136.074 55.392h-26.886a3.774 3.774 0 0 1-3.763-3.764 3.774 3.774 0 0 1 3.763-3.765h26.886a3.774 3.774 0 0 1 3.763 3.765 3.774 3.774 0 0 1-3.763 3.764z" fill="#0082C8"/><path d="M138.831 61.4h-32.398a3.774 3.774 0 0 1-3.763-3.764 3.774 3.774 0 0 1 3.763-3.765h32.398a3.774 3.774 0 0 1 3.764 3.765 3.774 3.774 0 0 1-3.764 3.764z" fill="#0082C8"/><path d="M157.812 65.05H89.23c-4.383 0-7.966-3.066-7.966-6.81 0-3.745 3.586-6.811 7.966-6.811h68.585c4.383 0 7.966 3.066 7.966 6.81 0 3.745-3.586 6.81-7.969 6.81z" fill="#0082C8"/><path d="M151.238 53.52h-6.702a3.774 3.774 0 0 1-3.764-3.764 3.774 3.774 0 0 1 3.764-3.765h6.702a3.774 3.774 0 0 1 3.763 3.765 3.774 3.774 0 0 1-3.763 3.764z" fill="#0082C8"/><path d="M153.994 59.53H141.78a3.774 3.774 0 0 1-3.763-3.765A3.774 3.774 0 0 1 141.78 52h12.214a3.774 3.774 0 0 1 3.764 3.765 3.776 3.776 0 0 1-3.764 3.764z" fill="#0082C8"/><path d="M97.124 47.573h3.381v5.278h-3.38v-5.278z" fill="#A96644"/><path d="M97.124 49.926v-2.353h3.381v2.84c-.66.082-2.144.15-3.38-.487z" fill="#914627"/><path d="M102.81 42.987s.372-.485.372-1.125c0 0 1.608.062 1.341-1.237-.268-1.299-1.279-.825-1.299-1.69-.02-.865-1.434-1.854-2.459-1.113-1.025.74-3.375-1.854-3.457.825 0 0-1.586-.969-1.876.288-.287 1.256-1.834.74-1.732 2.392 0 0 .166.535-.473.617 0 0 .287.496.557.392l.654 2.006 4.011 2.24 4.361-3.595z" fill="#332A27"/><path d="M93.7 41.623c.048-.152.003-.296.003-.296-.04-.631.163-.947.445-1.164.786.521 2.315 1.274 4.098.744 1.719-.507 2.705-2.229 3.178-3.34.882-.09 1.783.677 1.797 1.367a.728.728 0 0 0 .062.29c-3.744 3.143-7.684 2.821-9.583 2.399z" fill="#4C423F"/><path d="M95.205 44.366l.507.429c.107-.254.03-.654.101-.922.028-.11.054-.228.076-.352.578-.392.896-1.49.803-2.443-.104-1.07 1.442-.33 1.442-.33.02-.597 1.753-1.648 1.71-.35-.042 1.3.783 1.032 1.364 1.238.58.206.231 1.068.231 1.068a1.294 1.294 0 0 0 1.051-.817.817.817 0 0 0 .309-.023c0 1.961.24 4.993-.901 6.675-.403.592-.91 1.09-1.761 1.223-3.71.58-4.665-3.048-4.665-3.048s-1.163.31-1.4-1.404c-.194-1.423 1.133-.944 1.133-.944z" fill="#A96644"/><path d="M96.979 41.285c.014.558-.192 1.846-1.093 2.238.577-.392.895-1.491.803-2.444-.105-1.07 1.442-.33 1.442-.33s-1.166-.019-1.152.536zM101.208 42.986s.161-1.105-.428-1.049c-.586.054-1.535-.205-1.44-1.045.096-.837-.92-.606-1.208-.144.02-.597 1.752-1.648 1.71-.35-.042 1.3.783 1.032 1.363 1.238.581.206.231 1.068.231 1.068.826-.116 1.051-.817 1.051-.817a.82.82 0 0 0 .31-.023c.003 0-.327 1.085-1.589 1.122z" fill="#914627"/><path d="M100.781 44.816c.003.318.198.563.434.543.237-.02.425-.293.423-.61-.003-.32-.197-.565-.434-.545-.24.017-.428.293-.423.612zM97.536 44.723c.003.318.197.563.434.544.237-.02.425-.293.422-.612-.002-.318-.197-.563-.433-.544-.237.017-.426.29-.423.612z" fill="#502F26"/><path d="M99.63 46.627c.719.29 1.104-.048 1.133-.386a.49.49 0 0 0-.319-.501c-.436-.172-.746-.843-.749-.851-.003.155.155.735.71 1.06.121.07.194.143.186.253-.017.189-.29.473-.96.425z" fill="#914627"/><path d="M102.237 43.17l.031-.217c-.048-.003-.786-.206-1.657-.132l-.008.338c.712-.105 1.622.008 1.634.011zM96.973 43.283c.58-.226 1.656-.268 1.668-.27l-.07-.31c-.043.008-1.018.041-1.668.39l.07.19z" fill="#332A27"/><path d="M95.754 46.287c.316.918 1.49 3.187 4.026 3.048 1.372-.076 2.067-.98 2.527-1.611a3.64 3.64 0 0 1-.409.817c-.403.592-.91 1.09-1.76 1.223-3.71.58-4.665-3.05-4.665-3.05s-.89.249-1.285-.884c.693 1.15 1.566.457 1.566.457z" fill="#914627"/><path d="M98.384 47.126s1.349.276 2.605 0c0 0-.222 1.155-1.301 1.153-1.023 0-1.293-.928-1.304-1.153z" fill="#722626"/><path d="M99.713 47.677c.831 0 1.073-.344 1.178-.533-.975.192-1.761.076-2.446-.008.077.211.485.54 1.268.54z" fill="#fff"/><path d="M105.932 52.949s-2.09-.803-4.434-1.316c0 0-1.347 1.378-2.882 1.316-1.67-.07-2.296-1.271-2.296-1.271-1.067.169-2.797.6-3.862 1.096 0 0-.634 2.818-.005 17.468 0 0 4.146 1.456 11.786 0 0 0 .087-6.636 1.079-10.649.003 0 .301-4.122.614-6.644z" fill="#FFD07D"/><path opacity=".2" d="M97.194 54.823l1.33-1.308.864 1.71s2.232-1.372 2.527-3.496a17.945 17.945 0 0 0-.417-.096c-1.884 1.389-3.572 2.068-5.177.042-.079.011-.16.025-.248.042 0 .003-.197 1.344 1.121 3.106z" fill="#000"/><path d="M97.298 50.841s.178 1.372 1.26 1.851c0 0 1.977-.555 2.121-1.87l1.166.89s-.738 2.195-2.299 2.775L98.571 53l-1.323 1.226s-1.28-1.552-1.172-2.51l1.222-.874z" fill="#FFD07D"/><path d="M105.673 68.494l-.738-.518-.555.112c-.524-.169-.758-.515-1.02-.555-.262-.04-.673-.315-.673-.315-.243.366.231.76.231.76-.037-.008-.074-.013-.11-.022-.09-.017-.18-.037-.271-.053l-.343-.071c-.11-.022-.223-.048-.333-.068-.087-.014-.172-.03-.259-.036a1.086 1.086 0 0 0-.267.034c-.113.022-.699.23-.798.253a4.765 4.765 0 0 1-.141.031c-.042.113-.05.234.006.335.102.184.366.18.504.156.102-.017.237-.065.336-.102.084-.03.062-.048.208-.03.085.007.169.038.254.055.183.04.366.082.549.127.042.009.082.02.124.028 0 0-.885.164-1.161.24-.205.06-.786.617-.786.617-.419.4.237.555.237.555-.034.037-.079.102-.079.158 0 .048.034.084.059.113.051.05.116.073.178.093a.627.627 0 0 0 .459-.015l.096-.042.118-.062c.121-.067.239-.135.352-.22.014-.01.045-.045.062-.045l.687-.04c-.231.128-.47.548-.783.74a.585.585 0 0 0-.135.104c-.037.039-.079.098-.07.16.008.06.062.076.104.093a.68.68 0 0 0 .417.017.944.944 0 0 0 .414-.225c.417-.465.882-.697 1.476-.39.859.443 1.53-.836 1.53-.836l.121-1.136z" fill="#A96644"/><path d="M105.933 52.948s1.653.102 5.901 8.166c0 0 1.764 3.3-5.938 8.713 0 0-1.501-.454-1.501-2.11l3.805-5.022-2.817-3.105c0 .003-.943-4.58.55-6.642z" fill="#FFD07D"/><path d="M92.72 68.315l.738-.519.555.113c.524-.17.757-.516 1.02-.555.261-.04.673-.316.673-.316.242.366-.231.76-.231.76.036-.008.073-.013.11-.022l.27-.053.344-.07c.11-.023.222-.049.332-.068.087-.014.172-.031.26-.037.09-.003.177.014.267.034.112.023.698.231.797.254l.14.03c.043.113.052.234-.005.336-.101.183-.366.18-.504.155a2.082 2.082 0 0 1-.335-.102c-.085-.03-.062-.047-.209-.03-.084.008-.169.039-.253.056-.183.04-.366.081-.55.126l-.123.029s.884.163 1.16.24c.206.058.786.616.786.616.42.4-.237.555-.237.555.034.037.08.102.08.158 0 .048-.034.085-.06.113a.414.414 0 0 1-.177.093.628.628 0 0 1-.46-.014l-.095-.042a3.044 3.044 0 0 1-.47-.282c-.015-.011-.046-.045-.063-.045l-.687-.04c.231.127.47.547.783.739a.602.602 0 0 1 .135.104c.037.04.08.098.07.16-.008.06-.061.077-.103.093a.68.68 0 0 1-.417.017.97.97 0 0 1-.414-.225c-.417-.465-.882-.696-1.477-.389-.859.442-1.53-.837-1.53-.837l-.12-1.135z" fill="#A96644"/><path d="M92.456 52.77s-1.653.102-5.901 8.166c0 0-1.764 3.3 5.938 8.713 0 0 1.502-.454 1.502-2.11l-3.806-5.022 2.817-3.105s.946-4.579-.55-6.642z" fill="#FFD07D"/><path d="M147.484 38.117s-5.153-.95-5.812 4.866c-.628 5.54-1.251 11.035-1.121 14.994 0 0 5.102 1.648 10.983 0 0 0-.152-7.65.341-12.97.434-4.664-1.476-7.096-4.391-6.89z" fill="url(#paint0_linear)"/><path d="M142.396 40.489c.557-1.049 1.346-1.654 2.135-1.998.608.935 1.473 1.69 3.225 1.682 1.265-.006 1.561-.978 1.592-1.767.684.29 1.259.792 1.69 1.497-2.637 2.048-6.468 1.282-8.642.586z" fill="#994A3D"/><path d="M142.715 51.901s-1.403.248-2.186 7.78l2.741.296c.003.003 2.316-7.687-.555-8.076z" fill="#BDC7D6"/><path d="M150.32 64.31s3.558 3.406 4.313 17.619c0 0-6.854 1.896-15.716 0 0 0 1.538-14.619 4.209-17.75l7.194.13z" fill="#A52923"/><path d="M143.96 51.645s3.268-.733 6.293 0c0 0-.51 3.339-4.364 3.37-3.856.031-1.929-3.37-1.929-3.37z" fill="#D17462"/><path d="M150.186 51.508s-3.428 3.246-4.254 3.237c-.825-.008-1.817-3.237-1.817-3.237-1.264.338-1.397.397-1.397.397l-.245 2.274c-1.293 1.654-1.282 2.12-1.282 2.849 0 1.268 1.122 2.043 1.122 2.043l.816 5.142c4.299 1.671 7.192.096 7.192.096.476-3.249 1.704-7.414 1.704-7.414v-4.824c-.656-.301-1.169-.372-1.839-.563z" fill="#D7E4F7"/><path d="M146.03 50.278l-.009 2.04 2.496.008.012-2.654a3.805 3.805 0 0 1-2.499.606z" fill="#D17462"/><path d="M148.534 49.671l.008-2.045-2.496-.009-.011 2.66a3.804 3.804 0 0 0 2.499-.606z" fill="#BA5F50"/><path opacity=".1" d="M141.431 57.483s.326.276 1.036.338c1.431.124 4.443.38 6.513.048.868-.141 1.014-.578 1.668-1.09 0 0 .104 2.228-2.617 2.183-2.724-.048-6.428.287-6.6-1.48z" fill="#000"/><path d="M151.593 44.597c.015 2.336-.622 4.34-.687 6.081-.138 3.74 1.056 5.208 1.29 6.569 0 0-1.332.338-2.555.11 0 0-1-4.036-.839-6.405.16-2.37 1.225-6.098 1.225-6.098s.507-4.635-2.986-5.413l-.011-.733c.29-.025 4.524-.287 4.563 5.89z" fill="#7C3425"/><path d="M142.704 44.032l.065.023s.459.301.538-.544c.391-3.61 3.715-4.075 3.715-4.075 3.398.358 3.279 2.627 3.22 4.112.02.834-.107 1.592-.062 2.437.119 2.108-1.659 3.48-3.239 3.477-3.034-.003-3.803-2.696-3.803-2.696s-1.412.24-1.592-1.654c-.141-1.547 1.158-1.08 1.158-1.08z" fill="#D17462"/><g opacity=".9" fill="#D15D54"><path opacity=".091" d="M148.78 44.999a1.283 1.283 0 1 0 .478 2.521A1.283 1.283 0 0 0 148.78 45z"/><path opacity=".182" d="M148.803 45.12a1.16 1.16 0 1 0 .433 2.28 1.16 1.16 0 0 0-.433-2.28z"/><path opacity=".273" d="M148.826 45.241a1.036 1.036 0 1 0 .386 2.036 1.036 1.036 0 0 0-.386-2.036z"/><path opacity=".364" d="M148.853 45.362a.912.912 0 1 0 .338 1.793.912.912 0 0 0-.338-1.793z"/><path opacity=".455" d="M148.874 45.483a.788.788 0 1 0 .292 1.548.788.788 0 0 0-.292-1.548z"/><path opacity=".545" d="M148.897 45.605a.666.666 0 1 0 .248 1.308.666.666 0 0 0-.248-1.308z"/><path opacity=".636" d="M148.919 45.727a.542.542 0 1 0 .203 1.065.542.542 0 0 0-.203-1.066z"/><path opacity=".727" d="M148.942 45.846a.418.418 0 0 0 .155.82.418.418 0 0 0-.155-.82z"/><path opacity=".818" d="M148.964 45.968a.292.292 0 0 0-.233.343c.031.16.183.265.343.234a.292.292 0 0 0 .234-.344.295.295 0 0 0-.344-.233z"/><path opacity=".909" d="M148.988 46.09a.168.168 0 0 0-.135.2.17.17 0 0 0 .2.136.17.17 0 0 0 .136-.2.175.175 0 0 0-.201-.136z"/><path opacity=".9" d="M148.973 46.269a.05.05 0 0 0 .058.037.047.047 0 0 0 .037-.057.048.048 0 0 0-.057-.038.05.05 0 0 0-.038.058z"/></g><g opacity=".636" fill="#D15D54"><path opacity=".091" d="M144.708 44.908a1.375 1.375 0 1 0 .51 2.702 1.375 1.375 0 0 0-.51-2.702z"/><path opacity=".182" d="M144.734 45.04a1.242 1.242 0 1 0 .462 2.44 1.242 1.242 0 0 0-.462-2.44z"/><path opacity=".273" d="M144.757 45.168a1.11 1.11 0 1 0 .413 2.18 1.11 1.11 0 0 0-.413-2.18z"/><path opacity=".364" d="M144.781 45.295a.975.975 0 1 0 1.141.778.976.976 0 0 0-1.141-.778z"/><path opacity=".455" d="M144.807 45.426a.845.845 0 1 0 .314 1.662.845.845 0 0 0-.314-1.662z"/><path opacity=".545" d="M144.832 45.56a.712.712 0 1 0 .267 1.4.712.712 0 0 0-.267-1.4z"/><path opacity=".636" d="M144.858 45.688a.58.58 0 1 0 .216 1.14.58.58 0 0 0-.216-1.14z"/><path opacity=".727" d="M144.879 45.818a.449.449 0 1 0 .166.882.449.449 0 0 0-.166-.882z"/><path opacity=".818" d="M144.904 45.947a.312.312 0 0 0-.25.369.313.313 0 0 0 .369.25.314.314 0 0 0 .25-.369.317.317 0 0 0-.369-.25z"/><path opacity=".909" d="M144.929 46.078a.187.187 0 0 0-.147.214c.02.1.116.164.215.147a.187.187 0 0 0 .147-.214.187.187 0 0 0-.215-.147z"/><path opacity=".636" d="M144.913 46.267a.05.05 0 0 0 .06.04.05.05 0 0 0 .04-.06.05.05 0 0 0-.06-.04c-.026.006-.043.034-.04.06z"/></g><path d="M146.984 46.494c.527.24.859.115.927-.24.045-.23-.09-.493-.234-.622-.295-.262-.428-1.032-.428-1.04-.022.163.011.809.372 1.254.079.096.11.186.101.301-.022.265-.276.468-.738.347z" fill="#BA5F50"/><path d="M148.896 44.163s.462.015.53-.16c0 0 .053.245-.229.324.088.11.141.268.139.442-.006.33-.212.595-.46.592-.247-.003-.445-.273-.439-.606.006-.332.208-.597.459-.592zM145.434 44.105s.462.014.53-.16c0 0 .053.245-.228.323.087.11.14.268.138.443-.006.33-.212.594-.46.592-.248-.003-.445-.274-.439-.606.006-.333.211-.595.459-.592z" fill="#502F26"/><path d="M143.374 46.128s.211 1.637 2.293 2.53c1.834.786 3.622-.431 4.02-.73-.623.97-1.722 1.539-2.739 1.536-3.033-.003-3.802-2.697-3.802-2.697s-.888.161-1.353-.744c.876.829 1.581.105 1.581.105z" fill="#BA5F50"/><path d="M148.104 43.234s.743-.2 1.76.096c0 0 .006-.076-.186-.24-.18-.152-.848-.318-1.422-.084 0 .003-.299.16-.152.228zM146.402 43.193s-.741-.215-1.76.062c0 0-.006-.077.188-.234.184-.15.854-.305 1.426-.06 0 0 .296.167.146.232z" fill="#7C3425"/><path d="M145.889 46.98s1.178.259 2.279.036c0 0-.211 1.009-1.155.992-.89-.017-1.115-.831-1.124-1.029z" fill="#B22828"/><path d="M147.046 47.482c.726.01.943-.288 1.039-.448-.856.155-1.541.045-2.138-.04.059.183.414.476 1.099.488z" fill="#fff"/><path d="M142.704 44.032l.064.023s.46.301.538-.544c.392-3.61 3.716-4.075 3.716-4.075 3.026.319 3.265 2.153 3.237 3.602-.178-.9-.842-3.04-3.141-3.45 0 0-3.135 1.038-3.767 7.693-.152-.301-.214-.513-.214-.513s-1.411.24-1.591-1.654c-.141-1.55 1.158-1.082 1.158-1.082z" fill="#BA5F50"/><path d="M141.54 44.752s.355-6.332 5.474-6.044l.017-.003.011.733c-.006 0-.011-.003-.014-.003 0 0-2.876.35-3.569 5.418-.899 6.546 2.836 12.67 2.836 12.67s-2.028 0-2.693-.167c0 0-1.456-3.455-1.924-6.275-.552-3.314-.138-6.33-.138-6.33z" fill="#7C3425"/><path d="M151.996 52.072s1.902.645 2.865 8.583l-2.856.848s-1.899-6.954-.009-9.43z" fill="#D7E4F7"/><path d="M154.859 60.655s.177 2.246-2.857 2.082a52.577 52.577 0 0 1-5.389-.605l.192-1.542c.003 0 4.592-.78 8.054.065z" fill="#D17462"/><path d="M142.723 60.965c.053-.144.225-.102.416-.06l-.563-.197c-.129-.05-.27-.11-.217-.279.057-.177.206-.138.361-.098l-.383-.144c-.13-.05-.262-.121-.212-.307.043-.155.178-.141.333-.124l.329.045c-.188-.07-.326-.212-.293-.333.023-.079.13-.172.409-.146l1.797.104.64.118-.344-.33c-.29-.38-.056-.551-.056-.551.118-.093.329.081.631.267l.977.696c.349.35.986 1 .851 1.626-.141.651-.366.919-.817.944 0 0-.811-.02-1.257-.082a7.142 7.142 0 0 1-.96-.222l-1.358-.575c-.2-.102-.33-.223-.284-.352z" fill="#D17462"/><path d="M125.157 65.075c-.617-.222-.828.49-.828.49s-.431 1.06-.488 1.46c-.056.403.268 1.274.485 1.446 0 0 .532.38.665.498 0 0 .231.009.087-.394 0 0 .423.231.372-.138 0 0 .245-.16.296-.589 0 0-.104-.513-.243-.727 0 0 .282-.744.133-1.203 0 0 .138-.62-.479-.843z" fill="#A96644"/><path d="M125.12 65.957s-.11.735-.239 1.147c0 0 .366.546.149.783 0 0-.284-.2-.665-.64 0 0 .212.727.251.837.042.11.304.285.456.496 0 0 .276-.096.296-.248 0 0 .248-.27.24-.459 0 0-.074-.417-.181-.713 0 0 .372-.733.181-1.234-.012-.031-.465.053-.488.03z" fill="#914627"/><path d="M125.834 57.46c.665.057 1.398.088 2.107.579-.025.735-.349 1.783-.419 2.324 0 0-.493 2.877-1.885 5.554 0 0-.758-.056-1.234-.521 0 0 .71-4.292 1.023-5.393 0-.003.293-1.291.408-2.542z" fill="#A96644"/><path d="M126.165 54.466c.637-2.015 1.465-2.426 1.465-2.426l.558 3.782s-.031 1.194-.076 2.482c-.699-.155-2.077-.409-2.753-.68.336-1.31.482-2.132.806-3.158z" fill="#9B2A2A"/><path d="M134.729 85.142l1.709-.15-.146-2.06-1.71.15.147 2.06z" fill="#A96644"/><path d="M137.095 86.215h-3.051v.496h3.051v-.496z" fill="#C1C1C1"/><path d="M137.04 86.217s.194-.496-.082-.975l-.383-.82s-.189.197-.358.118c-.177-.081-.679-1.036-1.411.006 0 0-.217-.13-.341-.09l-.234.766s-.4.75-.141.995h2.95z" fill="#A52923"/><path d="M136.054 85.453a.08.08 0 0 1-.025-.006 1.728 1.728 0 0 0-1-.042c-.042.014-.087-.014-.099-.062-.011-.048.014-.096.057-.11.022-.005.555-.16 1.093.045.042.017.064.068.05.113-.011.04-.042.062-.076.062z" fill="#fff"/><path d="M136.054 85.217a.08.08 0 0 1-.025-.006 1.728 1.728 0 0 0-1-.042c-.042.014-.087-.014-.099-.062-.011-.048.014-.096.057-.11.022-.006.555-.16 1.093.045.042.017.064.067.05.113-.011.04-.042.062-.076.062z" fill="#fff"/><path d="M136.054 84.978a.08.08 0 0 1-.025-.005 1.728 1.728 0 0 0-1-.043c-.042.014-.087-.014-.099-.062-.011-.047.014-.095.057-.11.022-.005.555-.16 1.093.046.042.016.064.067.05.112-.011.04-.042.062-.076.062z" fill="#fff"/><path d="M136.054 84.742a.08.08 0 0 1-.025-.006 1.728 1.728 0 0 0-1-.042c-.042.014-.087-.014-.099-.062-.011-.048.014-.096.057-.11.022-.005.555-.16 1.093.045.042.017.064.068.05.113-.011.04-.042.062-.076.062z" fill="#fff"/><path d="M124.977 80.442h-1.814v1.979h1.814v-1.979z" fill="#A96644"/><path d="M125.191 81.76s.437.661.234 1.895h-6.009s-.487-.85 1.293-1.022c1.153-.11 2.178-1.161 2.178-1.161s.338.056.484.482c.161.473 1.116.566 1.46.059.217-.319.36-.254.36-.254z" fill="#A52923"/><path d="M125.472 83.657h-6.017v.496h6.017v-.496z" fill="#C1C1C1"/><path d="M121.698 83.053a.12.12 0 0 1-.104-.07.597.597 0 0 0-.372-.356.117.117 0 0 1-.081-.143.114.114 0 0 1 .135-.088.831.831 0 0 1 .527.49.12.12 0 0 1-.06.156c-.014.005-.028.011-.045.011zM122.15 82.878a.12.12 0 0 1-.105-.07.598.598 0 0 0-.371-.355c-.06-.014-.096-.08-.082-.144a.114.114 0 0 1 .135-.087.831.831 0 0 1 .527.49.121.121 0 0 1-.104.166zM122.484 82.642a.118.118 0 0 1-.105-.07.606.606 0 0 0-.371-.356.116.116 0 0 1-.082-.143.114.114 0 0 1 .135-.088.831.831 0 0 1 .527.49.121.121 0 0 1-.059.156.085.085 0 0 1-.045.01zM122.821 82.404a.12.12 0 0 1-.104-.07.597.597 0 0 0-.372-.356.117.117 0 0 1-.081-.144.114.114 0 0 1 .135-.087.84.84 0 0 1 .527.49.121.121 0 0 1-.059.155.093.093 0 0 1-.046.012z" fill="#fff"/><path d="M127.626 63.87l-.287 2.088s-4.152 5.134-4.499 6.343c-.346 1.214-.042 3.466.082 8.11 0 0 .817.518 2.321.059 0 0 .138-6.622.439-7.338.302-.716 5.417-5.985 5.417-5.985l.896.02 2.307 16.2s1.119.298 2.215-.1l-1.432-19.4h-7.459v.003z" fill="#2E4056"/><path d="M127.595 65.806a.055.055 0 0 1-.051-.034.056.056 0 0 1 .028-.07c.009-.003.972-.409 1.113-1.497.003-.03.031-.05.062-.047.028.002.051.03.048.061-.152 1.153-1.169 1.581-1.181 1.584-.005.003-.014.003-.019.003zM131.735 67.146a.053.053 0 0 1-.053-.043c-.003-.011-.246-1.158-.271-2.727 0-.031.023-.054.054-.057.028 0 .053.023.056.054.025 1.558.268 2.694.268 2.705.005.028-.012.06-.043.065-.005.003-.008.003-.011.003z" fill="#566C82"/><path d="M131.599 66.645h-.003a.721.721 0 0 1-.507-.26c-.493-.572-.386-1.893-.383-1.947.003-.03.028-.05.059-.05a.052.052 0 0 1 .048.059c0 .014-.107 1.33.358 1.868a.607.607 0 0 0 .431.223.054.054 0 0 1 .051.056.054.054 0 0 1-.054.05zM135.097 66.145h-.006c-1.746-.177-2.189-1.673-2.194-1.688a.054.054 0 0 1 .036-.067.056.056 0 0 1 .068.037c.003.014.431 1.44 2.101 1.608a.052.052 0 0 1 .048.06.052.052 0 0 1-.053.05z" fill="#566C82"/><path d="M122.837 80.06v.594s1.318.603 2.555.045v-.422s-1.733.315-2.555-.217zM134.126 82.908l.115.608s1.699.234 2.44-.298v-.465c.003 0-1.527.54-2.555.155z" fill="#ABC2D8"/><path d="M130.833 50.78l-.036 1.318 2.186.06.048-1.717a4.302 4.302 0 0 1-2.198.338z" fill="#A96644"/><path d="M133.033 50.438l.037-1.321-2.186-.06-.048 1.722a4.338 4.338 0 0 0 2.197-.34z" fill="#914627"/><path d="M131.735 52.393c1.293 0 1.606-.719 1.648-.944a8.502 8.502 0 0 0-2.96-.107c-.026.265.042 1.05 1.312 1.05z" fill="#A96644"/><path d="M136.297 52.419s-1.245-.68-2.764-1.012a4.44 4.44 0 0 0-.194-.04c-.045.226-.287.911-1.58.911-1.271 0-1.313-.73-1.285-.992a5.83 5.83 0 0 0-.287.042c-.69.11-1.862.39-2.55.71 0 0-.095 3.585-.199 12.165 0 0 3.078 1.107 8.025.163.079-4.12.099-5.325.417-7.915-.008 0 .214-2.4.417-4.032z" fill="#B23232"/><path d="M127.827 44.096s-.265.598-.392 1.432c0 0-.479-1.431-.681-2.406-.22-1.046.225-3.03 2.802-3.867 3.688-1.2 4.632.265 5.367 2.753-.003 0-4.89-1.868-7.096 2.088z" fill="#D0D6D8"/><path d="M128.498 39.752c-1.626.992-1.93 2.49-1.747 3.37.203.975.682 2.406.682 2.406.127-.834.392-1.431.392-1.431a4.92 4.92 0 0 1 1.033-1.302 4.44 4.44 0 0 1-.36-3.043z" fill="#AAB6BA"/><path d="M127.827 44.097s1.941-2.891 6-2.232c0 0 1.254.313 1.206 1.375 0 0 1.82-2.6 1.321-3.28-.496-.676-5.879-.617-6.778.24-1.194 1.136-1.749 3.897-1.749 3.897z" fill="#C63939"/><path d="M136.021 42.545c-.073-.152-.118-.19-.144-.178.051-.265.096-.746-.214-.882-.174-.076-.276-.076-.349-.03.023-.097.02-.212-.155-.359-.141-.115-.217-.118-.273-.059a.289.289 0 0 0-.099-.276c-.253-.214-.676-.2-1.346.2.104-.079.211-.211.019-.332-.304-.195-.45.079-.504.132 0 0 .293-.318-.053-.411-.237-.065-.468.174-.727.38.034-.062.003-.132-.161-.194-.419-.158-1.149.045-1.552.738a.398.398 0 0 0-.172-.102c-.476-.171-1.135.688-1.157 1.677 0 0-.978.62-1.44 1.319 0 0-.318.758-.265 1.364l.392 1.175 7.192-1.156s.276-.989.214-1.893c.005 0 .986-.713.794-1.113z" fill="#332A27"/><path d="M131.182 42.733c-.772.279-1.864.318-1.864.318-.606 1.513-1.386 2.393-1.784 2.773l.293.882 7.192-1.155s.276-1.01.214-1.91c-.22-2.396-3.279-1.187-4.051-.908z" fill="#191514"/><path d="M128.429 45.885l.439.355c.093-.208-.045-.794-.056-1.025-.068-1.246.597-2.086.597-2.086 2.58.325 3.431-.526 4.214-.445 1.073.113 1.203.939 1.203.939.27.966.192 1.46.192 1.46.002 1.146.028 3.093-.798 4.257-.346.49-.786.902-1.524 1.011-3.211.482-4.034-2.524-4.034-2.524s-1.005.256-1.211-1.161c-.169-1.178.978-.78.978-.78z" fill="#A96644"/><path d="M129.502 43.433s1.11.456 3.755-.584c0 0 .786-.259 1.411.395-.158-.234-.462-.505-1.042-.567-.783-.081-1.634.77-4.215.446 0 0-.583.738-.602 1.86.101-.502.31-1.215.693-1.55zM128.908 47.467c.274.761 1.291 2.635 3.482 2.522 1.186-.062 1.789-.811 2.186-1.333a2.894 2.894 0 0 1-.355.677c-.346.49-.786.901-1.524 1.011-3.211.482-4.034-2.525-4.034-2.525s-.769.206-1.11-.732c.598.952 1.355.38 1.355.38z" fill="#914627"/><path d="M133.257 46.251c.003.265.169.465.375.45.203-.016.366-.241.366-.506-.003-.265-.169-.465-.375-.451-.205.017-.369.242-.366.507zM130.45 46.173c.003.265.169.465.375.45.203-.016.366-.241.363-.506-.002-.265-.171-.465-.374-.451-.203.014-.366.242-.364.507z" fill="#502F26"/><path d="M132.26 47.75c.62.239.955-.04.98-.322a.4.4 0 0 0-.276-.414c-.377-.14-.645-.699-.647-.704-.003.126.132.608.614.876.104.056.169.118.16.208-.014.161-.253.395-.831.355z" fill="#914627"/><path d="M134.516 45.096l.028-.152c-.039-.003-.682-.144-1.434-.093l-.006.24c.615-.077 1.401.005 1.412.005zM129.936 45.115c.521-.113 1.451-.062 1.46-.062l-.031-.223c-.037.003-.879-.048-1.474.147l.045.138z" fill="#332A27"/><path d="M131.18 48.163s1.169.228 2.254 0c0 0-.192.955-1.127.955-.882-.003-1.116-.772-1.127-.955z" fill="#722626"/><path d="M132.333 48.619c.718 0 .929-.285 1.02-.44-.843.158-1.524.065-2.116-.005.065.172.417.445 1.096.445z" fill="#fff"/><path d="M136.057 62.73c-.169-.305-.487-.342-.487-.342l-.367.077c-.346-.113-.498-.342-.673-.367-.175-.025-.445-.208-.445-.208-.158.242.152.501.152.501-.025-.005-.048-.008-.073-.014-.059-.011-.118-.025-.178-.037l-.228-.045-.22-.045a.895.895 0 0 0-.171-.022.638.638 0 0 0-.178.022c-.073.014-.462.153-.527.17-.031.005-.093.02-.093.02a.27.27 0 0 0 .003.222c.068.12.242.118.333.104.067-.011.155-.042.222-.068.056-.02.042-.03.138-.022.057.005.11.025.166.036.122.029.243.054.364.082l.081.02s-.583.107-.766.158c-.135.04-.518.408-.518.408-.276.265.158.367.158.367-.023.025-.051.067-.051.104 0 .03.022.056.039.073a.282.282 0 0 0 .119.062.43.43 0 0 0 .239.014.435.435 0 0 0 .065-.022c.022-.009.042-.02.062-.029a1.89 1.89 0 0 1 .079-.042c.079-.045.158-.087.234-.143.008-.006.028-.029.039-.032l.454-.025c-.153.085-.31.36-.519.488a.41.41 0 0 0-.09.07c-.025.025-.053.065-.048.107.006.04.042.05.071.062a.46.46 0 0 0 .276.011.594.594 0 0 0 .234-.115c.014-.011.025-.02.039-.034.276-.307.583-.46.975-.256.566.293 1.011-.553 1.011-.553s.251-.453.079-.758z" fill="#A96644"/><path d="M139.209 56.616c.178.319.617 1.037.812 1.404 0 0 1.042 1.887-4.046 5.463 0 0-.608-.31-.405-1.096l2.158-3.488-.536-.913c.738-.834 1.372-1.15 2.017-1.37z" fill="#A96644"/><path d="M136.298 52.42s.884-.114 3.276 4.195c-.397.425-1.271 1.417-2.448 1.823l-1.361-1.677s-.453-2.98.533-4.342z" fill="#B23232"/><path d="M116.12 84.645l-1.022-.005c-.406 0-.736.47-.736 1.034 0 .566.33 1.034.736 1.034h.96l.062-2.063z" fill="#1A2126"/><path d="M116.825 85.657c0-.567-.296-.998-.704-.998-.406 0-.769.434-.769.998 0 .566.301 1.079.709 1.079.406-.003.764-.516.764-1.08z" fill="#313C44"/><path d="M119.339 85.39h-.581c-.49-.248-.495-.564-.495-.564l-.366-.178-.44.186c-.048.417-.397.474-.555.558h-.611a.249.249 0 0 0 0 .496h3.051c.135 0 .247-.11.247-.248a.252.252 0 0 0-.25-.25z" fill="#7A8A96"/><path d="M119.041 84.4h-2.307v.412h2.307V84.4z" fill="#616F77"/><path d="M119.748 84.645l-1.023-.005c-.405 0-.735.47-.735 1.034 0 .566.33 1.034.735 1.034h.961l.062-2.063z" fill="#1A2126"/><path d="M120.45 85.66c0-.567-.296-.998-.704-.998-.406 0-.769.434-.769.998 0 .566.301 1.079.709 1.079.409-.003.764-.516.764-1.08z" fill="#313C44"/><path d="M127.661 84.645l-1.022-.005c-.406 0-.736.47-.736 1.034 0 .566.33 1.034.736 1.034h.96l.062-2.063z" fill="#1A2126"/><path d="M128.366 85.657c0-.567-.296-.998-.704-.998-.406 0-.769.434-.769.998 0 .566.301 1.079.709 1.079.406-.003.764-.516.764-1.08z" fill="#313C44"/><path d="M130.881 85.39h-.58c-.491-.248-.496-.564-.496-.564l-.366-.178-.44.186c-.048.417-.397.474-.555.558h-.611a.249.249 0 0 0 0 .496h3.051c.135 0 .248-.11.248-.248a.256.256 0 0 0-.251-.25z" fill="#7A8A96"/><path d="M130.582 84.4h-2.307v.412h2.307V84.4z" fill="#616F77"/><path d="M131.289 84.645l-1.023-.005c-.405 0-.735.47-.735 1.034 0 .566.33 1.034.735 1.034h.961l.062-2.063z" fill="#1A2126"/><path d="M131.99 85.66c0-.567-.296-.998-.704-.998-.406 0-.769.434-.769.998 0 .566.301 1.079.709 1.079.406-.003.764-.516.764-1.08z" fill="#313C44"/><path d="M130.961 84.485h-15.992s-.845-.028-1.38-.564c-.535-.535.104-.952.617-.972.479-.02 2.462-.222 3.662.902.127.118.392.304.769.304h8.533s.659-.028 1.208-.408c.549-.38 2.857-1.257 3.93-.474 1.073.784-.713 1.212-1.347 1.212z" fill="#A08650"/><path d="M114.775 83.266c-.769.01-1.178.135-1.386.247 0 .122.059.262.203.41.535.534 1.38.563 1.38.563h3.659c-.504 0-.639-.099-1.07-.46-.437-.363-1.364-.783-2.786-.76z" fill="#A52923"/><path d="M131.209 84.156s1.099-.04 1.372-.614a1.037 1.037 0 0 0-.273-.276c-1.071-.783-3.38.096-3.93.476-.49.341-1.067.4-1.186.409v.008h4.017v-.003z" fill="#313C44"/><path d="M129.765 39.343v-.99c0-.791-.647-1.442-1.442-1.442h-3.8v-1.257c-.873.003-1.946.017-3.163.04v1.217h-3.8c-.795 0-1.44.648-1.44 1.443v.989c0 .792.648 1.44 1.44 1.44h10.763a1.442 1.442 0 0 0 1.442-1.44z" fill="#0082C8"/><path d="M98.202 63.115A5.381 5.381 0 1 0 98.2 52.35a5.381 5.381 0 0 0 .002 10.765z" stroke="#0082C8" stroke-width="1.3" stroke-miterlimit="10"/><path d="M94.721 53.004l-.963-.48a.47.47 0 0 0-.629.212l-.053.104a.468.468 0 0 0 .003.42.438.438 0 0 0-.324.234l-.054.104a.454.454 0 0 0 .057.474.465.465 0 0 0-.39.256l-.053.104a.465.465 0 0 0-.025.352.344.344 0 0 0-.152.105l-.062.07a.38.38 0 0 0 .037.536l.656.574a.38.38 0 0 0 .535-.036l.062-.07a.379.379 0 0 0 .02-.477l.11.054a.47.47 0 0 0 .628-.212l.053-.104a.471.471 0 0 0 .017-.375c.242.074.493-.014.595-.217l.053-.104c.099-.197.023-.437-.163-.586a.454.454 0 0 0 .205-.206l.054-.104a.477.477 0 0 0-.217-.628zM102.105 52.69l.963-.48a.469.469 0 0 1 .628.212l.054.104a.47.47 0 0 1-.003.42.438.438 0 0 1 .324.233l.053.105a.455.455 0 0 1-.056.473.465.465 0 0 1 .389.257l.053.104c.057.112.062.24.026.352.056.02.11.054.152.104l.062.07a.38.38 0 0 1-.037.536l-.656.575a.379.379 0 0 1-.535-.037l-.062-.07a.378.378 0 0 1-.02-.476l-.11.053a.469.469 0 0 1-.628-.211l-.054-.104a.471.471 0 0 1-.017-.375c-.242.073-.493-.014-.594-.217l-.053-.104c-.099-.198-.023-.437.163-.587a.456.456 0 0 1-.206-.205l-.053-.104a.474.474 0 0 1 .217-.629z" fill="#A96644"/><path d="M114.718 86.071l-.44-.885-1.29.178-.13 1.048 1.86.003v-.344z" fill="#D17462"/><path d="M108.691 76.248c.724 2.534 2.414 4.196 4.392 9.378l1.183-.434s-1.352-5.066-2.972-9.211c0 0 .127-3.562 1.242-7.496-1.757-.47-2.479-.628-3.501-.811-.701 2.736-.679 7.396-.344 8.574z" fill="#D17462"/><path d="M109.038 67.669c-.096.375-.18.786-.248 1.22.507.409 1.6 1.11 3.316 1.308.124-.558.267-1.133.433-1.716-1.757-.468-2.481-.629-3.501-.812z" fill="#BA5F50"/><path d="M115.018 87.611h-5.829v.674h5.829v-.674z" fill="#C1C1C1"/><path d="M109.199 87.61s-.398-1.102 1.332-1.26l.448 1.26h-1.78z" fill="#F2F2F2"/><path d="M110.547 86.348l2.304-.78s.276-.082.482.462c0 0 .854.462 1.395-.124 0 0 .518-.045.292.854v.853h-4.808l.335-1.265z" fill="#D6D8D8"/><path d="M114.711 85.906a.881.881 0 0 1-.682.295l.054.313s.346-.065.513-.191c0 0 .138.346.394.428.225-.885-.279-.846-.279-.846zM111.965 87.612h-.374l-.299-.752.321-.113.352.865zM112.638 87.612h-.375l-.374-.958.343-.107.406 1.065zM113.31 87.61h-.372l-.431-1.143.335-.105.468 1.249z" fill="#3E4042"/><path d="M113.308 86.034l-2.572.88-.113-.313 2.135-.722c.003 0 .383-.149.55.155z" fill="#CECECE"/><path d="M110.967 86.076l-.21.072.194.565.211-.072-.195-.565zM111.415 85.927l-.21.073.195.565.21-.073-.195-.565zM111.868 85.777l-.211.073.195.564.21-.072-.194-.565zM112.389 85.628l-.21.072.194.565.211-.073-.195-.564z" fill="#F2F2F2"/><path d="M113.808 68.574c.197 3.232.695 11.637.648 17.693h1.281s1.051-10.52 1.578-18.074c-1.4.057-2.426.175-3.507.38z" fill="#D17462"/><path d="M117.32 68.219c-1.4.056-2.429.169-3.508.375.029.448.06.997.096 1.623.975-.09 2.082-.344 3.327-.835.028-.394.056-.783.085-1.163z" fill="#BA5F50"/><path d="M114.213 86.413l.245-1.267h1.389l.152 1.236-1.786.031z" fill="#D17462"/><path d="M116.445 87.61h-2.541v.674h2.544l-.003-.674z" fill="#CECECE"/><path d="M115.112 85.494s-.654-.003-.606.409c0 0-.6-.07-.6 1.66l2.544.036s-.051-1.674-.699-1.674c0 0 .099-.43-.639-.43z" fill="#E5E5E5"/><path d="M114.647 85.847v1.045l-.298.011v-.834s.149-.18.298-.222zM115.542 85.843v1.045l.299.011v-.834s-.074-.18-.299-.222z" fill="#CECECE"/><path d="M115.767 86.14c-.597-.267-1.27-.002-1.276 0l.006-.154c.025-.011.597-.299 1.27 0v.155z" fill="#F2F2F2"/><path d="M114.491 86.371l.006-.158c.02-.01.521-.293 1.268-.036v.155a1.874 1.874 0 0 0-1.274.04z" fill="#F2F2F2"/><path d="M113.905 87.611s-.113-1.282 1.27-1.282 1.271 1.282 1.271 1.282h-2.541z" fill="#F2F2F2"/><path d="M110.309 55.437s1.15-.935.468-2.119c-.682-1.183-.969-1.972-.468-2.834.505-.863-.538-2.705-.718-3.421-.18-.716.969-3.136.899-4.12-.071-.983.648-3.21 2.589-2.995 0 0 4.205-1.465 5.281 1.837 1.079 3.303.612 5.002 0 6.042-.611 1.036-1.101 3.017-.462 4.268.643 1.252.037 2.486-1.008 3.097-1.048.612-4.389 1.294-6.581.245z" fill="url(#paint1_linear)"/><path d="M110.484 42.832c-.005-.617.257-1.604.871-2.252.631.758 2.118 1.615 3.614 1.203 1.333-.366 1.504-1.363 1.479-1.96.676.22 1.302.659 1.704 1.459-2.594 1.97-5.87 1.829-7.668 1.55z" fill="#994A3D"/><path d="M119.016 53.773s-.046 1.893-.003 4.522c.042 2.629.586 2.333-.31 8.538h-1.172s-.608-6.334-.149-8.527l-.443-4.145 2.077-.389z" fill="url(#paint2_linear)"/><path d="M117.491 66.658c.222-.47.577-.318 1.022-.107.445.211.389.651.333 1.023l-.217.637c-.223.47-.555.448-1 .234-.445-.212-.733-.539-.51-1.012l.372-.775z" fill="#BA5F50"/><path d="M117.466 67.761a.263.263 0 0 1 .073.122c.133.496.941 1.206 1.248 1.425.107.077.161.229.099.324-.065.096-.2.074-.305-.002-.129-.093-1.267-.927-1.473-1.685-.034-.121.037-.234.158-.251a.241.241 0 0 1 .2.067z" fill="#BA5F50"/><path d="M117.687 67.611c.034.02.065.048.085.085.42.693 1.648 1.254 1.662 1.26.121.047.259.18.214.298-.045.118-.253.102-.375.054-.056-.023-1.397-.553-1.901-1.387a.223.223 0 0 1 .079-.312.229.229 0 0 1 .236.002z" fill="#BA5F50"/><path d="M118.189 67.68a.267.267 0 0 1 .073.045c.496.422 1.24.693 1.248.696.189.076.274.208.228.313-.031.067-.208.062-.332.028-.034-.009-.859-.248-1.442-.747-.099-.085-.11-.214-.026-.293.062-.065.164-.076.251-.042z" fill="#BA5F50"/><path d="M118.456 67.428c.023.005.048.005.065.022.299.296 1.025.48 1.031.48.129.013.206.084.194.205-.011.121-.107.099-.236.085a3.814 3.814 0 0 1-1.209-.384c-.115-.059-.16-.194-.098-.301.048-.087.152-.127.253-.107z" fill="#BA5F50"/><path d="M117.381 51.059s1.364.653 2.206 2.79c0 0-1.056.828-2.541 1.107-.003.002-.479-2.32.335-3.897z" fill="#86CF87"/><path d="M109.517 53.008s-.594 6.261.197 7.31c0 0 1.741 2.279 6.166 3.316l.361-1.085s-3.27-2.206-4.989-3.277l-.177-5.794-1.558-.47z" fill="url(#paint3_linear)"/><path d="M118.561 64.195c.014-.099-.099-.127-.223-.164l.383.06c.09.01.189.02.209-.093.022-.121-.076-.144-.178-.17l.265.034c.09.009.189.012.217-.112.022-.102-.059-.136-.152-.172l-.206-.076c.133.017.254-.023.271-.102.011-.05-.023-.138-.189-.208l-1.068-.493-.405-.127.298-.085c.285-.13.203-.301.203-.301-.04-.09-.214-.054-.445-.04l-.775.099c-.31.093-.873.273-.989.676-.118.417-.07.643.181.795 0 0 .473.236.749.338.276.101.62.169.62.169l.958.087c.152.003.264-.028.276-.115z" fill="#D17462"/><path d="M110.517 50.932s-1.093.583-1.727 2.826c0 0 1.645 1.009 2.668 1.065-.003.003-.372-2.643-.941-3.891z" fill="#86CF87"/><path d="M115.98 60.102l.15-1.8-5.375-.057.231 1.812-.473 1.806s2.056 1.668 6.276-.017c-.211-.744-.679-1.116-.809-1.744z" fill="#D17462"/><path d="M115.982 60.037l.144-1.736-5.375-.056.155 1.223c.772.397 2.606 1.119 5.076.57z" fill="#BA5F50"/><path d="M111.433 50.74s2.416-.54 4.65 0c0 0-.377 2.469-3.225 2.491-2.851.023-1.425-2.49-1.425-2.49z" fill="#D17462"/><path d="M115.422 50.575s-.53 1.392-2.099 1.364c-1.504-.028-1.121-1.364-1.121-1.364-.936.158-1.685.358-1.685.358l-.18 1.68c-.614.898-.749 1.566-.721 2.107.042.82.158 1.51.158 1.51l.239 2.968c3.177 1.234 6.955-.093 6.955-.093-.068-3.086.448-4.48.448-4.48v-3.568c-.53-.223-1.479-.409-1.994-.482z" fill="#86CF87"/><path d="M112.963 49.727l-.006 1.508 1.845.008.009-1.96a2.795 2.795 0 0 1-1.848.444z" fill="#D17462"/><path d="M114.814 49.283l.005-1.51-1.845-.008-.008 1.964a2.796 2.796 0 0 0 1.848-.446z" fill="#BA5F50"/><path d="M112.495 45.618s-.53 3.305.188 4.652c.719 1.347.944 1.634.755 2.35-.186.716-.611 1.631.536 2.519 0 0-2.141-.352-1.668-2.52 0 0-1.783-1.955-1.594-7.14l1.783.139zM118.459 46.805s.251 1.995-.535 3.49c-.786 1.497.538 1.86.287 3.044-.25 1.184.31 1.648.722 1.81 0 0-1.33.19-1.6-1.413 0 0-.046-.817-.251-1.042-.206-.226-1.099-1.874-.493-3.269s0-2.623 0-2.623h1.87v.003z" fill="#7C3425"/><path d="M111.966 44.852l.054.017s.166.794.589-.927c.278-1.8 2.338-2.401 2.338-2.401 3.281.05 3.405 1.59 3.169 2.922-.096.487-.217 1.27-.181 1.944.093 1.683-1.324 2.776-2.583 2.773-2.417-.003-3.048-1.99-3.048-1.99s-1.11.032-1.256-1.479c-.118-1.234.918-.86.918-.86z" fill="#D17462"/><path d="M114.967 41.783s-1.482.423-2.267 1.77c.487-1.496 2.242-2.01 2.242-2.01 1.994.032 2.823.612 3.113 1.365-.389-.507-1.237-1.06-3.088-1.125z" fill="#BA5F50"/><g opacity=".9"><path opacity=".091" d="M116.807 45.625a1.02 1.02 0 0 0-.815 1.195c.105.555.64.921 1.195.814a1.02 1.02 0 0 0 .814-1.195 1.02 1.02 0 0 0-1.194-.814z" fill="#E8725F"/><path opacity=".182" d="M116.827 45.723a.925.925 0 1 0 .345 1.817.925.925 0 0 0-.345-1.817z" fill="#E5705E"/><path opacity=".273" d="M116.845 45.816a.83.83 0 0 0-.66.967.83.83 0 0 0 .967.659.83.83 0 0 0 .659-.967.829.829 0 0 0-.966-.659z" fill="#E36E5D"/><path opacity=".364" d="M116.864 45.916a.731.731 0 0 0-.58.85.731.731 0 0 0 .851.581.731.731 0 0 0 .58-.85.727.727 0 0 0-.851-.581z" fill="#E16C5C"/><path opacity=".455" d="M116.881 46.011a.63.63 0 0 0 .233 1.237.63.63 0 0 0-.233-1.237z" fill="#DF6A5B"/><path opacity=".545" d="M116.902 46.107a.53.53 0 1 0 .197 1.043.53.53 0 0 0-.197-1.043z" fill="#DC6759"/><path opacity=".636" d="M116.918 46.203a.432.432 0 1 0 .161.849.432.432 0 0 0-.161-.849z" fill="#DA6558"/><path opacity=".727" d="M116.938 46.3a.332.332 0 1 0 .123.654.332.332 0 0 0-.123-.653z" fill="#D86357"/><path opacity=".818" d="M116.954 46.395a.233.233 0 0 0-.186.274.234.234 0 1 0 .186-.274z" fill="#D66156"/><path opacity=".909" d="M116.974 46.494a.137.137 0 0 0 .051.268.14.14 0 0 0 .11-.158.139.139 0 0 0-.161-.11z" fill="#D35F55"/><path opacity=".9" d="M116.96 46.637c.003.02.023.035.046.032.02-.003.035-.023.032-.046-.003-.02-.023-.035-.046-.032-.023.006-.038.026-.032.046z" fill="#D15D54"/></g><g opacity=".9"><path opacity=".091" d="M113.563 45.549a1.098 1.098 0 0 0 .409 2.156c.594-.113.986-.688.873-1.283a1.101 1.101 0 0 0-1.282-.873z" fill="#E8725F"/><path opacity=".182" d="M113.583 45.655a.99.99 0 1 0 .369 1.947.99.99 0 0 0-.369-1.947z" fill="#E5705E"/><path opacity=".273" d="M113.601 45.758a.886.886 0 0 0-.704 1.035.886.886 0 0 0 1.034.704.886.886 0 0 0 .704-1.034.888.888 0 0 0-1.034-.705z" fill="#E36E5D"/><path opacity=".364" d="M113.62 45.862a.776.776 0 0 0-.62.91.776.776 0 0 0 .91.62.779.779 0 0 0-.29-1.53z" fill="#E16C5C"/><path opacity=".455" d="M113.642 45.965a.672.672 0 1 0 .251 1.321.672.672 0 0 0-.251-1.32z" fill="#DF6A5B"/><path opacity=".545" d="M113.662 46.07a.573.573 0 0 0-.454.665c.059.307.355.51.665.453a.57.57 0 0 0-.211-1.119z" fill="#DC6759"/><path opacity=".636" d="M113.68 46.172a.464.464 0 1 0 .541.37.466.466 0 0 0-.541-.37z" fill="#DA6558"/><path opacity=".727" d="M113.7 46.275a.356.356 0 1 0 .132.702.356.356 0 1 0-.132-.702z" fill="#D86357"/><path opacity=".818" d="M113.722 46.38a.253.253 0 0 0-.2.293.253.253 0 0 0 .293.2.252.252 0 0 0 .2-.293.252.252 0 0 0-.293-.2z" fill="#D66156"/><path opacity=".909" d="M113.742 46.486a.144.144 0 0 0-.116.172c.014.08.09.13.169.116a.143.143 0 0 0 .116-.17.144.144 0 0 0-.169-.118z" fill="#D35F55"/><path opacity=".9" d="M113.725 46.635a.039.039 0 0 0 .049.032c.023-.003.037-.026.031-.05a.039.039 0 0 0-.049-.03.046.046 0 0 0-.031.048z" fill="#D15D54"/></g><path d="M115.378 46.818c.419.192.684.093.738-.189.036-.183-.071-.394-.186-.496-.237-.208-.341-.823-.344-.828-.02.13.009.642.296 1 .062.076.087.15.079.24-.011.208-.214.371-.583.273z" fill="#BA5F50"/><path d="M116.899 44.952s.369.011.423-.127c0 0 .042.195-.18.257.07.087.112.214.11.352-.003.262-.169.473-.367.47-.197-.002-.355-.22-.352-.481.006-.263.169-.474.366-.471zM114.138 44.91s.369.011.423-.127c0 0 .045.195-.181.257a.544.544 0 0 1 .11.352c-.002.262-.169.473-.366.47-.197-.002-.355-.22-.352-.481.006-.265.169-.474.366-.471z" fill="#68413A"/><path d="M112.515 46.77s.152 1.06 1.811 1.77c1.462.626 2.888-.343 3.206-.583-.496.772-1.372 1.226-2.183 1.226-2.417-.003-3.048-1.99-3.048-1.99s-.704.02-1.065-.735c.626.465 1.279.313 1.279.313z" fill="#BA5F50"/><path d="M116.202 44.213s.591-.16 1.402.076c0 0 .006-.059-.146-.191-.144-.122-.676-.254-1.135-.068 0 .003-.24.13-.121.183zM114.912 44.181s-.591-.172-1.405.051c0 0-.003-.06.152-.189.146-.118.681-.242 1.135-.045 0 0 .236.133.118.183z" fill="#7C3425"/><path d="M114.504 47.205s.938.206 1.817.028c0 0-.166.803-.921.79-.71-.012-.89-.663-.896-.818z" fill="#B22828"/><path d="M115.425 47.607c.58.008.752-.229.828-.358-.682.124-1.228.034-1.704-.031.047.143.329.38.876.389z" fill="#fff"/><path d="M116.954 61.775c-4.665.612-6.639 0-6.639 0s-.981 2.953-1.854 6.087c.797.414 2.313.93 4.141 1.034.169-.504.307-.986.391-1.2l.612-.012s.039.437.087 1.215a24.261 24.261 0 0 0 3.935-.457c-.014-2.623.113-4.835-.673-6.667z" fill="#7D9CC9"/><path d="M113.43 63.352c-2.067 0-3.355-.36-3.374-.366a.075.075 0 0 1-.051-.093.075.075 0 0 1 .093-.05c.028.008 2.89.805 6.952-.004a.072.072 0 0 1 .087.06.073.073 0 0 1-.059.087 18.49 18.49 0 0 1-3.648.366z" fill="#9EB9D8"/><path d="M113.321 66.595h-.003c-.239-.011-.42-.09-.552-.24-.228-.253-.31-.704-.265-1.46.04-.664.138-2.684.138-2.704.003-.043.034-.074.079-.07a.073.073 0 0 1 .07.078c0 .02-.101 2.04-.138 2.708-.039.702.031 1.133.229 1.35.107.118.253.18.45.191a.073.073 0 0 1 .071.08.082.082 0 0 1-.079.067zM113.509 67.507s-.003 0 0 0a.075.075 0 0 1-.076-.073c.064-2.08.152-5.199.152-5.23 0-.042.036-.073.076-.073.042 0 .073.036.073.076 0 .03-.087 3.15-.152 5.23 0 .042-.034.07-.073.07zM117.297 64.595c-1.518 0-1.709-1.44-1.712-1.454-.006-.036.022-.067.059-.073.039-.005.07.023.076.062.006.054.18 1.339 1.575 1.341.036 0 .067.026.067.062.003.037-.028.062-.065.062zM109.64 64.421a.073.073 0 0 1-.071-.062c-.006-.04.023-.073.062-.079 1.442-.166 1.535-1.037 1.538-1.073a.072.072 0 0 1 .076-.065.07.07 0 0 1 .065.076c-.003.042-.099 1.023-1.662 1.203h-.008z" fill="#9EB9D8"/><path d="M117.063 67.082a.423.423 0 0 1-.375.468l-1.608.18a.424.424 0 0 1-.468-.374l-.048-.42a.423.423 0 0 1 .375-.468l1.608-.18a.423.423 0 0 1 .468.374l.048.42zM111.944 67.372a.301.301 0 0 1-.352.237l-1.981-.389a.3.3 0 0 1-.236-.352.3.3 0 0 1 .352-.237l1.98.39a.303.303 0 0 1 .237.351zM108.362 67.439s1.488.853 4.451 1.24l-.138.659s-2.89-.15-4.485-1.234l.172-.665zM113.504 68.683s1.369.084 4.358-.497v.69s-1.862.652-4.293.463l-.065-.656z" fill="#CAE0EF"/><path d="M115.422 62.01l-.372.04.144 1.336.372-.04-.144-1.336zM111.39 62.01l-.195 1.33.371.054.194-1.33-.37-.054z" fill="#6888AF"/><path d="M113.211 63.046a.307.307 0 1 0 0-.614.307.307 0 0 0 0 .614z" fill="#CAE0EF"/><path d="M71.596 85.695c.057 3.906.27 9.045 1.026 12.75.267 1.311.177 1.359 2.13 1.35 2.075-.01 9.676.043 11.645.037 3.887-.014 4.845-.011 6.507-.603 1.791-.64 3.104-1.257 4.873-1.893 1.738-.626 3.972-.468 5.938-.48 4.167-.022 13.102.21 19.987.175 6.885-.036 15.817-.358 19.984-.377 1.966-.012 4.2-.192 5.943.417 1.778.62 3.093 1.223 4.893 1.843 1.668.574 2.626.563 6.513.538 1.969-.014 9.57-.144 11.646-.155 1.952-.011 1.862-.06 2.115-1.37.719-3.714.879-8.853.896-12.759.017-4.046-.859-13.894-1.025-15.81-.26-2.996-1.296-3.796-2.386-5.132-1.245-1.524-1.758-2.586-2.769-3.894-.919-1.183-1.815-1.99-2.801-3.054-.49-.53-.777-1.285-.912-1.998-.211-1.099-2.493-6.244-4.764-10.378-1.617-2.939-3.876-6.024-4.991-7.202-1.843-1.945-3.15-2.3-4.905-2.491-8.541-.933-17.502-1.257-27.755-1.203-10.254.053-19.209.467-27.742 1.487-1.752.209-3.056.578-4.879 2.54-1.104 1.188-3.333 4.296-4.918 7.252-2.229 4.157-4.46 9.327-4.66 10.426-.13.713-.408 1.471-.893 2.006-.972 1.077-1.862 1.891-2.766 3.083-1 1.316-1.501 2.384-2.73 3.922-1.076 1.347-2.104 2.159-2.332 5.157-.152 1.913-.93 11.773-.868 15.816zM84.38 53.24c.774-2.108 1.848-5.047 3.124-7.586A45.635 45.635 0 0 1 91.619 39c.893-1.184 1.186-1.294 2.809-1.468 6.197-.668 20.141-1.251 28.964-1.297 8.82-.045 22.77.395 28.975 1 1.623.159 1.919.266 2.823 1.44a45.406 45.406 0 0 1 4.183 6.614c1.302 2.528 2.403 5.453 3.2 7.555.265.698.364 1.507-.617 1.476-1.94-.062-15.355-.575-19.386-.707-4.465-.147-14.829-.254-19.091-.231-4.265.022-14.623.234-19.087.425-4.029.175-17.44.823-19.379.905-.983.042-.892-.767-.633-1.471z" fill="#14AFEB"/><path d="M175.107 95.349l-13.279.067.065 12.773a2.01 2.01 0 0 0 2.02 2.001l9.259-.048a2.01 2.01 0 0 0 2-2.02l-.065-12.773zM72.282 95.877l13.28-.067.064 12.773a2.01 2.01 0 0 1-2 2.02l-9.26.048a2.01 2.01 0 0 1-2.019-2.001l-.065-12.773z" fill="#192D4B"/><path d="M175.111 95.35l-102.825.526.03 5.974 102.826-.526-.031-5.974z" fill="#192D4B"/><path d="M164.563 56.313c.129.442.394.512.935.445 3.769-.454 7.563-1.108 10.552-1.677.563-.107.949-.12 1.29-.623.504-.743 1-1.501.952-2.364-.048-.842-1.366-1.983-2.098-2.322-1.919-.887-3.964-1.242-6.158-1.425a10.98 10.98 0 0 0-1.972.002c-.58.06-.724.451-.856.99-.302 1.228-.44 2.49-.502 3.756-.662-.009-2.69-.144-2.622.622.056.8.262 1.843.479 2.596zM82.885 54.136c.056-.77-1.969-.612-2.631-.598-.076-1.262-.225-2.524-.54-3.75-.139-.536-.285-.927-.866-.98a11.255 11.255 0 0 0-1.972.016c-2.194.206-4.236.583-6.143 1.49-.727.347-2.037 1.5-2.077 2.342-.039.863.465 1.615.975 2.356.344.499.733.507 1.296.609 2.992.538 6.794 1.152 10.566 1.57.544.058.809-.012.93-.457.214-.756.409-1.798.462-2.598z" fill="#14AFEB"/><path d="M72.927 91.439c.606-1.615 1.062-3.15 1.668-4.77.465-1.249 1.355-3.168 1.963-4.374.809-1.6 2.882-1.482 4.504-1.468 1.78.017 6.263.195 8.02.228 1.612.028 3.615-.042 4.164-2.085l30.361-.155 30.362-.155c.571 2.037 2.574 2.088 4.186 2.043 1.757-.05 6.236-.273 8.017-.31 1.622-.03 3.696-.169 4.518 1.423.623 1.2 1.53 3.108 2.009 4.354.622 1.611 1.093 3.144 1.715 4.753.245.637.617.98 1.048 1.325-.135 2.02-.346 3.998-.673 5.68-.254 1.31-.164 1.358-2.116 1.37-2.076.011-9.676.143-11.645.155-3.887.028-4.842.04-6.513-.538-1.797-.62-3.115-1.226-4.893-1.846-1.744-.606-3.978-.428-5.944-.417-4.166.022-13.099.344-19.983.38-6.885.034-15.821-.197-19.987-.174-1.966.01-4.203-.147-5.938.478-1.77.637-3.082 1.257-4.873 1.894-1.662.592-2.62.592-6.508.603-1.969.008-9.569-.048-11.645-.037-1.952.012-1.862-.039-2.13-1.347-.343-1.679-.574-3.654-.73-5.672.437-.35.804-.698 1.043-1.338z" fill="#0082C8"/><path d="M80.396 92.016c.115-.367 15.834 2.045 43.291 1.904 27.457-.14 43.15-2.713 43.269-2.35.329 1.01-14.727 4.39-43.258 4.537-28.53.147-43.623-3.083-43.302-4.091z" fill="#14AFEB"/><path d="M92.653 78.035c.372-1.397 2.042-2.395 3.315-3.254a58.214 58.214 0 0 1 3.09-1.95c.319-.186 1.017-.62 1.539-.713.608-.107 1.67.006 2.264.022a554.11 554.11 0 0 0 13.939.225c1.214.006 4.699-.013 6.778-.025 2.081-.01 5.563-.028 6.777-.045a554.37 554.37 0 0 0 13.936-.369c.591-.022 1.653-.146 2.262-.045.521.088 1.225.516 1.543.696a56.49 56.49 0 0 1 3.11 1.92c1.282.847 2.964 1.828 3.35 3.22.414 1.496-.89 3.344-1.654 4.494-2.358 3.562-4.544 7.002-7.423 10.046-1.216 1.285-2.929 1.27-4.563 1.338-2.22.093-11.71.282-17.234.324-5.524.014-15.015-.079-17.237-.146-1.634-.051-3.347-.017-4.578-1.29-2.91-3.013-5.13-6.434-7.524-9.97-.766-1.144-2.09-2.979-1.69-4.478z" fill="#0082C8"/><path d="M110.846 89.397l25.632-.133a1.469 1.469 0 0 0 1.459-1.474l-.037-7.165a1.468 1.468 0 0 0-1.473-1.46l-25.632.132a1.468 1.468 0 0 0-1.459 1.474l.037 7.166a1.47 1.47 0 0 0 1.473 1.46z" fill="#14AFEB"/><path d="M112.001 86.417v-3.914h2.408v.47h-1.805v1.308h1.369v.454h-1.369v1.682h-.603zM116.392 84.78c-.057.005-.119.005-.183.005h-.552v1.632h-.603v-3.914h1.157c.865 0 1.398.347 1.398 1.113 0 .535-.234.88-.643 1.045l.846 1.57v.183h-.553l-.867-1.634zm-.738-.443h.535c.53 0 .8-.189.8-.687 0-.488-.285-.682-.8-.682h-.535v1.37zM118.471 82.503h2.397v.47h-1.794v1.22h1.312v.449h-1.312v1.318h1.856v.46h-2.459v-3.917zM121.578 82.503h2.397v.47h-1.794v1.22h1.313v.449h-1.313v1.318h1.856v.46h-2.459v-3.917zM124.434 82.689v-.186h.574l.699 3.069h.011l.772-3.07h.535l.766 3.07h.012l.698-3.07h.519v.187l-.922 3.728h-.642l-.715-2.95h-.012l-.732 2.95h-.642l-.921-3.728zM129.125 86.23l1.29-3.727h.648l1.284 3.728v.183h-.574l-.364-1.096h-1.436l-.352 1.096h-.499v-.183h.003zm.994-1.357h1.141l-.563-1.728h-.012l-.566 1.728zM133.505 86.419v-1.564l-1.194-2.153v-.194h.552l.96 1.772h.006l.938-1.772h.487v.194l-1.146 2.136v1.58h-.603zM123.641 71.467a3.088 3.088 0 1 0 0-6.177 3.088 3.088 0 0 0 0 6.177z" fill="#fff"/><path d="M123.641 71.263a2.882 2.882 0 1 0-.002-5.763 2.882 2.882 0 0 0 .002 5.763z" fill="#fff"/><path d="M120.824 68.978c.102.479.321.913.626 1.27a4.61 4.61 0 0 1 4.495-3.598 2.43 2.43 0 0 0-.138-.166 4.605 4.605 0 0 0-4.983 2.494z" fill="#0046B4"/><path d="M122.349 70.956a2.882 2.882 0 0 0 3.76-4.063 4.609 4.609 0 0 0-3.76 4.063zM124.387 66.076c.406 0 .797.053 1.172.149a2.88 2.88 0 0 0-4.721 1.519 4.604 4.604 0 0 1 3.549-1.668z" fill="#46B400"/><path d="M96.586 71.382c-.127-.324-1.8-.772-2.953-1.096-2.07-.58-5.935-1.718-7.873-2.333-1.865-.591-3.986-1.35-5.75-2.209-.81-.394-1.315-.67-2.239-.468-.879.192-1.566.44-2.363.798-.395.177-.907.476-1.164.8-.234.296-.377.905-.47 1.257-.262.995-.395 1.831-.434 2.722-.06 1.338.538 2.319 1.808 2.854 1.668.705 3.725.944 5.502 1.223 1.935.304 3.887.482 5.845.535 1.07.029 2.093.034 3.121-.301.93-.304 1.665-.673 2.547-1.096.927-.445 1.848-.995 2.752-1.431.302-.147 1.86-.775 1.67-1.255z" fill="#BAE2EE"/><path d="M79.251 72.808a2.462 2.462 0 1 0 0-4.924 2.462 2.462 0 0 0 0 4.924zM87.733 73.271a2.345 2.345 0 1 0-3.318-3.315 2.345 2.345 0 0 0 3.317 3.315z" fill="#fff"/><path d="M74.11 71.478c.034.403.476 1.043.811 1.243 1.13.668 3.048 1.09 4.347 1.338 2.152.41 4.302.615 6.487.764.826.056 2.59.073 2.685-.144.056-.126-.868-.166-1.907-.262-2.011-.186-4.068-.442-6.048-.845-1.225-.25-3.195-.795-4.366-1.415-.603-.318-.927-.732-.939-1.22-.022-1.076.147-2.158.457-3.034.256-.722 1.456-1.553 1.166-1.544-.369.01-1.127.498-1.66.887-.205.152-.4.414-.461.583-.318.885-.679 2.314-.572 3.65z" fill="#fff"/><path d="M152.236 72.34c.907.425 1.837.966 2.766 1.403.885.414 1.626.775 2.558 1.07 1.034.325 2.054.31 3.124.271 1.958-.073 3.91-.27 5.84-.594 1.774-.299 3.831-.558 5.49-1.28 1.265-.549 1.854-1.535 1.778-2.874-.048-.89-.192-1.724-.462-2.716-.096-.352-.245-.958-.482-1.251-.259-.319-.775-.614-1.172-.786a11.294 11.294 0 0 0-2.372-.775c-.927-.192-1.428.087-2.237.493-1.755.876-3.867 1.657-5.724 2.268-1.929.634-5.783 1.812-7.848 2.415-1.149.336-2.814.8-2.941 1.125-.186.479 1.381 1.09 1.682 1.23z" fill="#BAE2EE"/><path d="M167.878 72.353a2.462 2.462 0 1 0 0-4.924 2.462 2.462 0 0 0 0 4.924zM162.721 72.89a2.345 2.345 0 0 0-3.315-3.316 2.345 2.345 0 0 0 3.315 3.315z" fill="#fff"/><path d="M172.417 67.328c-.062-.169-.259-.431-.468-.58-.535-.383-1.298-.863-1.667-.871-.29-.006.918.812 1.183 1.533.321.87.498 1.953.487 3.029-.005.488-.324.905-.924 1.229-1.163.63-3.127 1.197-4.352 1.46-1.975.422-4.031.698-6.04.906-1.036.108-1.963.155-1.904.282.099.214 1.862.18 2.685.116 2.183-.172 4.332-.403 6.479-.831 1.296-.26 3.211-.702 4.332-1.381.335-.203.772-.848.8-1.248.096-1.339-.281-2.765-.611-3.644z" fill="#fff"/><path d="M104.389 53.808c4.465-.191 14.826-.403 19.088-.425 4.265-.023 14.626.084 19.091.23.518.018 1.194.04 1.977.069l1.307 5.725c-5.437.47-12.764.86-22.637 1.054-9.868-.194-17.189-.583-22.623-1.05l1.563-5.501c.896-.042 1.659-.076 2.234-.102z" fill="#5AC8F5"/><path opacity=".3" d="M149.85 35.07l6.764 17.94 1.726 4.579c-1.825.485-4.715 1.026-9.287 1.513l-1.428-6.08-4.353-18.5c2.232.147 4.42.33 6.578.547zM103.114 34.756L98.818 53.02 97.39 59.1c-4.569-.487-7.46-1.025-9.287-1.51l1.726-4.581 6.643-17.617a180.51 180.51 0 0 1 6.642-.637z" fill="#fff"/><path d="M301 4h-5v113h5V4z" fill="#5F6464"/><path d="M327.706 20.129h-52.335a3.015 3.015 0 0 1-3.016-3.016V3.016A3.015 3.015 0 0 1 275.371 0h52.335l12.216 9.863a.27.27 0 0 1 0 .402l-12.216 9.864z" fill="#fff"/><path d="M327.431 19.01h-51.286a2.675 2.675 0 0 1-2.671-2.68V3.8c0-1.48 1.195-2.68 2.671-2.68h51.286l10.823 8.766a.24.24 0 0 1 0 .357l-10.823 8.769z" fill="#00AD00"/><path d="M326.867 73.806H282.92a3.015 3.015 0 0 1-3.016-3.016V56.692a3.015 3.015 0 0 1 3.016-3.015h43.947l12.216 9.863c.12.107.12.294 0 .401l-12.216 9.865z" fill="#fff"/><path d="M326.594 72.687h-42.899a2.676 2.676 0 0 1-2.672-2.68V57.475c0-1.48 1.196-2.68 2.672-2.68h42.899l10.823 8.767a.24.24 0 0 1 0 .357l-10.823 8.768z" fill="#C74E10"/><path d="M268.306 26.84h60.722a3.015 3.015 0 0 1 3.015 3.015v14.098a3.015 3.015 0 0 1-3.015 3.016h-60.722l-12.216-9.863a.269.269 0 0 1 0-.402l12.216-9.864z" fill="#fff"/><path d="M268.58 27.958h59.673c1.476 0 2.672 1.2 2.672 2.68V43.17c0 1.48-1.196 2.68-2.672 2.68H268.58l-10.823-8.767a.24.24 0 0 1 0-.356l10.823-8.769z" fill="#0047BB"/><path d="M280.127 15.095l1.834-9.171h1.789l1.834 9.171h-1.551l-.362-2.117h-1.597l-.373 2.117h-1.574zm2.117-3.181h1.246l-.623-3.85-.623 3.85zM286.463 15.095V5.924h1.675v8.016h2.219v1.155h-3.894zM290.764 15.095l1.834-9.171h1.789l1.834 9.171h-1.551l-.362-2.117h-1.597l-.373 2.117h-1.574zm2.117-3.181h1.246l-.623-3.85-.623 3.85zM297.1 15.095V5.924h2.253c.407 0 .773.038 1.098.113.332.076.615.204.849.385.242.174.427.411.555.713.128.302.192.683.192 1.144 0 .37-.052.687-.158.951a1.431 1.431 0 0 1-.442.634c-.196.151-.441.253-.736.306.363.06.661.188.895.385.241.188.419.438.532.747.121.31.181.683.181 1.121 0 .438-.056.826-.17 1.166a2.102 2.102 0 0 1-.486.838 2.03 2.03 0 0 1-.804.498c-.317.114-.691.17-1.121.17H297.1zm1.675-1.178h.634c.506 0 .85-.12 1.031-.362.181-.249.271-.63.271-1.143 0-.37-.045-.668-.135-.895a.927.927 0 0 0-.431-.52c-.196-.114-.46-.17-.792-.17h-.578v3.09zm0-4.245h.566c.333 0 .589-.05.77-.148a.774.774 0 0 0 .374-.453c.075-.203.113-.46.113-.77 0-.324-.056-.573-.17-.747a.775.775 0 0 0-.487-.362 2.875 2.875 0 0 0-.837-.102h-.329v2.582zM302.927 15.095l1.834-9.171h1.789l1.834 9.171h-1.551l-.362-2.117h-1.597l-.373 2.117h-1.574zm2.117-3.181h1.246l-.623-3.85-.623 3.85zM309.284 15.095l.159-9.171h1.732l1.302 6.352 1.359-6.352h1.675l.17 9.171h-1.245L314.3 8.72l-1.302 6.375h-1.008l-1.325-6.397-.124 6.397h-1.257zM316.571 15.095l1.835-9.171h1.789l1.834 9.171h-1.551l-.363-2.117h-1.596l-.374 2.117h-1.574zm2.118-3.181h1.245l-.623-3.85-.622 3.85zM273.417 42.478c-.672 0-1.201-.132-1.585-.397a2.075 2.075 0 0 1-.793-1.075c-.151-.46-.227-.989-.227-1.585v-3.273c0-.626.076-1.17.227-1.63.151-.46.415-.815.793-1.064.384-.25.913-.374 1.585-.374.634 0 1.128.11 1.483.328.362.212.619.517.77.918.151.4.226.864.226 1.392v.77h-1.607v-.792c0-.257-.016-.491-.046-.702a.795.795 0 0 0-.215-.499c-.113-.128-.313-.192-.6-.192s-.498.068-.634.204a.954.954 0 0 0-.249.532 4.4 4.4 0 0 0-.057.747v3.986c0 .332.027.607.079.826a.894.894 0 0 0 .284.487c.143.106.335.159.577.159.279 0 .476-.065.589-.193a.978.978 0 0 0 .226-.532c.03-.219.046-.464.046-.736v-.827h1.607v.736c0 .544-.071 1.027-.215 1.45a1.895 1.895 0 0 1-.758.985c-.355.234-.857.35-1.506.35zM276.599 42.353l1.834-9.171h1.789l1.834 9.171h-1.551l-.362-2.117h-1.597l-.373 2.117h-1.574zm2.117-3.181h1.246l-.623-3.85-.623 3.85zM282.934 42.353v-9.171h1.676v8.016h2.219v1.155h-3.895zM287.701 42.353v-9.171h1.653v9.171h-1.653zM290.774 42.353v-9.171h3.77v1.155h-2.094v2.672h1.709v1.166h-1.709v4.178h-1.676zM297.942 42.478c-.649 0-1.166-.121-1.551-.363a2.003 2.003 0 0 1-.827-1.041c-.166-.453-.249-.989-.249-1.608v-3.43c0-.62.083-1.148.249-1.586a1.95 1.95 0 0 1 .827-1.019c.385-.234.902-.35 1.551-.35.664 0 1.185.116 1.563.35.384.234.66.574.826 1.02.174.437.26.965.26 1.584v3.442c0 .612-.086 1.144-.26 1.597a2.067 2.067 0 0 1-.826 1.041c-.378.242-.899.363-1.563.363zm0-1.234c.279 0 .483-.06.611-.181a.893.893 0 0 0 .272-.499c.045-.211.068-.441.068-.69V35.65c0-.256-.023-.487-.068-.69a.828.828 0 0 0-.272-.476c-.128-.12-.332-.181-.611-.181-.264 0-.464.06-.6.181a.828.828 0 0 0-.272.476 3.215 3.215 0 0 0-.068.69v4.224c0 .249.019.479.057.69a.893.893 0 0 0 .272.498c.135.121.339.182.611.182zM301.831 42.353v-9.171h2.197c.619 0 1.139.075 1.562.226.43.144.755.393.974.748.226.355.34.838.34 1.449 0 .37-.034.702-.102.996a1.903 1.903 0 0 1-.351.759 1.544 1.544 0 0 1-.668.476l1.279 4.517h-1.676l-1.109-4.2h-.77v4.2h-1.676zm1.676-5.253h.521c.324 0 .581-.046.77-.136a.847.847 0 0 0 .418-.453c.084-.212.125-.48.125-.804 0-.46-.087-.804-.26-1.03-.166-.234-.487-.351-.963-.351h-.611V37.1zM308.156 42.353v-9.171h1.166l2.231 5.231v-5.231h1.381v9.171h-1.11l-2.242-5.48v5.48h-1.426zM314.371 42.353v-9.171h1.653v9.171h-1.653zM316.98 42.353l1.834-9.171h1.789l1.834 9.171h-1.551l-.363-2.117h-1.596l-.374 2.117h-1.573zm2.117-3.181h1.245l-.622-3.85-.623 3.85zM293.733 69.194v-8.231h-1.514v-1.28h4.743v1.28h-1.491v8.23h-1.738zM297.828 69.194v-9.511h3.992v1.221h-2.254v2.736h1.773v1.21h-1.773v3.146h2.277v1.198h-4.015zM302.251 69.194l1.914-5.05-1.855-4.461h1.62l1.233 2.947 1.081-2.947h1.502l-1.831 4.79 1.972 4.72h-1.62L304.917 66l-1.174 3.194h-1.492zM308.228 69.194l1.902-9.511h1.856l1.902 9.51h-1.609l-.376-2.195h-1.655l-.388 2.196h-1.632zm2.196-3.3h1.292l-.646-3.992-.646 3.992zM317.194 69.323c-.572 0-1.049-.11-1.433-.329a2.146 2.146 0 0 1-.869-.986c-.195-.43-.305-.96-.328-1.585l1.491-.294c.015.368.059.693.129.975.078.281.192.5.34.657a.852.852 0 0 0 .611.223c.282 0 .481-.082.599-.246.117-.172.176-.388.176-.646 0-.415-.094-.755-.282-1.022a4.4 4.4 0 0 0-.751-.798l-1.198-1.057a3.72 3.72 0 0 1-.81-.963c-.196-.36-.294-.802-.294-1.327 0-.751.22-1.33.658-1.737.438-.407 1.037-.61 1.796-.61.447 0 .818.07 1.116.21.297.134.532.321.704.564.18.243.313.52.4.834.086.305.14.63.164.974l-1.479.259a4.608 4.608 0 0 0-.106-.799 1.05 1.05 0 0 0-.27-.552c-.125-.133-.313-.2-.564-.2-.258 0-.458.087-.599.26a.957.957 0 0 0-.199.621c0 .321.066.587.199.799.133.203.325.415.576.634l1.186 1.045c.391.329.724.716.998 1.162.281.439.422.971.422 1.597 0 .454-.101.857-.305 1.21-.196.352-.474.63-.834.833-.352.196-.767.294-1.244.294z" fill="#fff"/><defs><linearGradient id="paint0_linear" x1="146.34" y1="38.721" x2="146.285" y2="44.823" gradientUnits="userSpaceOnUse"><stop stop-color="#7C3425"/><stop offset="1" stop-color="#60261D"/></linearGradient><linearGradient id="paint1_linear" x1="114.338" y1="47.028" x2="113.116" y2="54.792" gradientUnits="userSpaceOnUse"><stop stop-color="#7C3425"/><stop offset="1" stop-color="#60261D"/></linearGradient><linearGradient id="paint2_linear" x1="118.092" y1="57.185" x2="118.279" y2="61.959" gradientUnits="userSpaceOnUse"><stop stop-color="#D17462"/><stop offset="1" stop-color="#BA5F50"/></linearGradient><linearGradient id="paint3_linear" x1="116.453" y1="60.146" x2="113.277" y2="58.652" gradientUnits="userSpaceOnUse"><stop stop-color="#D17462"/><stop offset="1" stop-color="#BA5F50"/></linearGradient></defs></svg>