<svg width="374" height="105" fill="none" xmlns="http://www.w3.org/2000/svg" viewBox="0 0 374 105"><mask id="a" maskUnits="userSpaceOnUse" x="-1" y="0" width="375" height="105"><path d="M374 0H-1v105h375V0z" fill="#F5FCFF"/></mask><g mask="url(#a)"><g opacity=".8"><path d="M452.435 92.013h-223.26l25.086-3.936 40.324-.103 7.412-.893s6.54-.12 8.721.513c2.181.637 23.699-.413 23.699-.413s8.8-1.005 10.438-1.132c1.638-.126 14.311-1.42 20.393-1.028 6.084.392 12.48-.314 17.783.296 5.303.609 16.941-.38 20.715-.782 3.774-.401 22.167 1.412 24.034 1.756 1.867.347 10.616 2.404 14.54 3.14 3.925.736 10.115 2.582 10.115 2.582z" fill="#8BB984"/><path d="M378.926 68.652h-7.684v23.75h7.684v-23.75zM369.411 57.219h-6.758v35.183h6.758V57.22z" fill="#8ED7F5"/><path d="M367.845 72.13h-12.981v20.273h12.981V72.13z" fill="#8ED7F5"/><path d="M373.649 79.356h-7.617v13.047h7.617V79.356zM358.204 63.865h-5.065v28.54h5.065v-28.54zM349.95 46.935h-11.285v45.468h11.285V46.935zM333.48 29.701h-6.746v62.705h6.746V29.7zM325.283 42.803h-8.223v49.603h8.223V42.803z" fill="#8ED7F5"/><path d="M354.862 74.876h-12.009v17.527h12.009V74.876zM337.714 61.298h-6.621v31.108h6.621V61.298z" fill="#8ED7F5"/><path d="M340.101 82.59h-4.832v9.813h4.832V82.59zM333.479 72.773h-9.635v19.63h9.635v-19.63zM318.1 66.125h-21.352v26.278H318.1V66.125zM257.158 88.15h-21.355v4.253h21.355v-4.254zM296.745 81.268h-3.906v11.137h3.906V81.268z" fill="#8ED7F5"/><path d="M294.793 63.527h-13.934v28.876h13.934V63.527z" fill="#8ED7F5"/><path d="M283.207 42.953h-7.717v49.452h7.717V42.953z" fill="#8ED7F5"/><path d="M278.778 74.309h-10.417v18.097h10.417V74.309z" fill="#8ED7F5"/><path d="M270.968 60.697h-5.991v31.705h5.991V60.697z" fill="#8ED7F5"/><path d="M266.277 51.496h-14.323v40.906h14.323V51.496zM314.456 38.269h-4.429v54.134h4.429V38.269zM302.075 74.975h-3.701v17.427h3.701V74.975zM382.217 42.803h-8.224v49.603h8.224V42.803z" fill="#8ED7F5"/><path d="M375.037 66.125h-21.355v26.278h21.355V66.125zM314.091 66.124h-21.355v26.278h21.355V66.124z" fill="#8ED7F5"/><path d="M353.682 81.268h-3.907v11.137h3.907V81.268z" fill="#8ED7F5"/><path d="M351.73 63.527h-13.934v28.876h13.934V63.527z" fill="#8ED7F5"/><path d="M340.137 48.953h-4.425v43.45h4.425v-43.45zM335.711 74.309h-10.416v18.097h10.416V74.309z" fill="#8ED7F5"/><path d="M327.901 60.697h-5.991v31.705h5.991V60.697z" fill="#8ED7F5"/><path d="M323.214 51.496h-14.323v40.906h14.323V51.496zM371.393 38.269h-4.428v54.134h4.428V38.269zM359.012 74.976h-3.701v17.427h3.701V74.976z" fill="#8ED7F5"/><path d="M255.854 77.08h-9.5v18.338h9.5V77.08zM266.473 69.705h-8.353V95.42h8.353V69.705z" fill="#5AC8F5"/><path d="M276.105 79.325h-16.048V95.42h16.048V79.325z" fill="#5AC8F5"/><path d="M262.298 83.986h-9.418V95.42h9.418V83.987zM278.238 73.992h-6.262V95.42h6.262V73.992zM296.133 63.071h-13.952V95.42h13.952V63.071zM310.884 44.377h-8.341v51.042h8.341V44.377zM322.849 64.77H312.68v30.652h10.169V64.769z" fill="#5AC8F5"/><path d="M290.956 81.096h-14.848v14.323h14.848V81.096zM305.494 72.336h-8.187V95.42h8.187V72.335z" fill="#5AC8F5"/><path d="M300.331 86.07h-5.976v9.349h5.976V86.07zM249.341 86.07h-5.976v9.349h5.976V86.07zM314.456 79.738h-11.913v15.68h11.913v-15.68zM347.962 75.45h-26.401v19.97h26.401V75.45zM352.792 85.22h-4.83v10.202h4.83V85.22z" fill="#5AC8F5"/><path d="M367.604 73.774h-17.225v21.648h17.225V73.774z" fill="#5AC8F5"/><path d="M370.177 64.375h-5.472v31.047h5.472V64.376zM383.058 80.728h-12.881V95.42h12.881V80.728zM331.543 62.87h-5.476v32.552h5.476V62.869zM345.947 81.16h-4.576v14.259h4.576v-14.26z" fill="#5AC8F5"/><path d="M307.425 41.565h-18.01v52.192h18.01V41.565zM371.571 25.646h-21.63v68.11h21.63v-68.11zM343.268 16.669h-24.48v77.088h24.48V16.669z" fill="#14AFEB"/><path opacity=".3" d="M455.561 93.585H229.175v1.02h226.386v-1.02z" fill="#385A27"/></g><path d="M494.035 87.17c-23.246-.904-40.903 9.588-40.903 9.588s-13.17 4.772-19.249 5.207c-25.835 3.469-40.016-3.904-60.276-9.542-65.848-18.65-117.007 3.47-117.007 3.47l-1.014 31.228 238.452-.432V87.171h-.003z" fill="#009400"/><path d="M316.48 87.684c-.181-.079-.398-.172-.657-.287-.969-.389-1.904-.73-2.803-1.026a32.1 32.1 0 0 0-5.071-1.064c-2.836.172-5.584.395-8.229.666 8.419 1.095 9.744 2.082 14.646 6.266 5.218 4.456 10.015 16.845 10.015 16.845s15.973 3.744 16.311-1.391c.326-4.938-18.236-17.24-24.212-20.01z" fill="#fff"/><path d="M302.935 85.696s8.121-1.297 16.848 5.382c7.738 5.925 12.821 10.51 15.795 12.513l-7.611 1.656s-5.212-6.845-8.217-9.87c-.941-.947-8.344-10.124-19.439-9.457l2.624-.224z" fill="#004EBB"/><path d="M370.777 93.154c-65.386 15.919-271.412 40.242-282 41.488v41.591H492.351v-83.99c-8.079-2.41-55.896-15.084-121.575.91z" fill="#00AD00"/><path d="M356.584 96.303c3.698 1.183 10.058 2.773 19.774 7.56 20.969 10.329 10.682 19.165 10.682 19.165l36.077 11.201s14.811-12.83-2.806-26.188c-12.305-9.327-36.692-13.213-50.285-14.709-4 .965-8.507 1.958-13.442 2.971z" fill="#fff"/><path d="M359.143 95.772s43.364 8.79 37.804 24.456c0 0 19.823 2.612 24.236 2.803 0 0 8.381-20.028-54.553-28.9l-7.487 1.64z" fill="#004EBB"/><path d="M400.329 118.294c-27.232-4.739-71.921-13.747-116.133-21.602-29.98-5.327-62.496-10.833-86.551-11.991-56.43-2.718-103.348 16.386-108.869 18.193v73.338h403.576v-52.484c-7.291.387-48.598 2.103-92.023-5.454z" fill="#009E00"/><path d="M370.252 176.232c-1.689-7.463-9.285-48.101 22.728-59.19 0 0-26.969-4.905-44.36-8.407 0 0-88.313-11.584-189.655 67.597h211.287z" fill="#fff"/><path d="M-19 102.264V82.758s49.18-14.29 158.96-9.777c-31.129-.317-90.78 3.33-158.96 29.283z" fill="#00AD00"/><path d="M187.488 76.333l10.293.917c.012 0 .021.003.03.003-99.206 6.398 104.678 122.609 104.678 122.609H187.488c0 .003-103.046-124.971 0-123.53z" fill="#fff"/><path d="M163.647 74.206l23.841 2.127c-103.046-1.44 0 123.532 0 123.532H-19v-59.546c31.452-39.741 121.252-69.932 182.647-66.113z" fill="#004EBB"/><path d="M197.81 77.252c54.72 6.284 134.559 49.881 217.369 53.187 88.464 3.529 153.425 4.715 153.425 4.715v64.71H302.489c.003 0-203.882-116.214-104.679-122.612z" fill="#00AD00"/><path d="M139.96 72.98c7.626.315 15.515.716 23.687 1.226A178.526 178.526 0 0 0 159.27 74l-.275-.01C97.748 71.925 11.676 101.558-19 140.32v-38.055c68.18-25.953 127.831-29.6 158.96-29.283z" fill="#fff"/><path d="M289.874 89.753c0 .14-1.083.25-2.419.25-1.337 0-2.42-.11-2.42-.25 0-.138 1.083-.25 2.42-.25 1.336 0 2.419.112 2.419.25z" fill="#008B00"/><path d="M284.616 86.417a1.134 1.134 0 0 1 .075-1.88c.012-.775.616-1.408 1.382-1.432.181-.006.356.027.516.084.045-.742.636-1.342 1.378-1.363.788-.021 1.442.612 1.463 1.418.009.328-.09.636-.265.883 0 .003.003.003.003.007a1.448 1.448 0 0 1 1.201 1.722.6.6 0 0 1-.07.727.62.62 0 0 1-.371.19 1.128 1.128 0 0 1-1.119.996c-.513 0-.947-.347-1.083-.818a.917.917 0 0 1-.754-.087 1.394 1.394 0 0 1-1.596.226.511.511 0 0 1-.905-.329.544.544 0 0 1 .145-.344z" fill="#73B400"/><path d="M288.187 82.26c-.654-.148-.92-.018-1.342.19.25-.365.657-.61 1.125-.621.787-.021 1.442.612 1.463 1.418.009.328-.09.636-.265.883 0 .003.003.003.003.006a1.448 1.448 0 0 1 1.227 1.403c.003.073-.003.142-.009.211-.123-.274-.7-1.29-1.526-1.104-.504.115-.609.097-.884-.084-.1-.067-.003-.106.413-.236.908-.28 1.035-1.782-.205-2.066zM287.192 83.464c.151.205-.021.22-.422.112-.233-.064-.676-.163-1.077-.13-.145.012-.492.09-.589.094.248-.257.589-.42.969-.432.181-.006.356.027.516.085.003 0 .455.063.603.271z" fill="#88BF26"/><path d="M284.157 85.503c0-.41.214-.766.537-.966.003-.132.024-.262.058-.386a.625.625 0 0 0 .355.29c.396.12.151.326.151.326s-.525.908.338 1.427c.365.22.908.265 1.364.156.546-.13 1.001-.826 1.001-.826s-.087.99.902 1.258c.468.127.947-.338.947-.338s.07.027.332.033c.094.003.175.003.242.003a.62.62 0 0 1-.45.299 1.128 1.128 0 0 1-1.119.995c-.513 0-.947-.347-1.083-.817a.917.917 0 0 1-.754-.088 1.395 1.395 0 0 1-1.596.227.513.513 0 1 1-.766-.68 1.132 1.132 0 0 1-.459-.913z" fill="#60A400"/><path d="M287.195 87.859c-.003-.145-.006-.256.006-.437-.405-.14-.64-1.258-.64-1.258.305.654.549.99.676 1.025.015-.141.033-.473.039-.615.006-.124.015-.241.03-.338.027-.154-.051-.842.018-.905 0 0 .127 1.005.181.893.166-.35.257-.401.456-.7.024-.036-.456.98-.453 1.038.021.23.046.561.079 1.044.151-.085.38-.248.507-.356-.088-.299.193-.881.193-.881-.009.314-.13.733-.073.772.124-.148.742-.61.887-.8 0 0-.866 1.135-1.493 1.575.03.368.039.975.054 1.092.033.248.082.531.13.746h-.733c.012-.106.039-.209.042-.323.006-.227.012-1.026.036-1.183-.914-.452-1.68-1.547-1.68-1.547.664.642 1.466 1.134 1.738 1.158z" fill="#865040"/><path d="M366.325 92.632c0 .162-1.276.295-2.854.295-1.575 0-2.854-.133-2.854-.295 0-.163 1.276-.296 2.854-.296 1.578-.003 2.854.13 2.854.296z" fill="#008B00"/><path d="M360.306 89.512a1.468 1.468 0 0 1-.968-.905 1.46 1.46 0 0 1 .223-1.414c-.332-.95.118-1.994 1.038-2.362.22-.088.443-.127.666-.127-.277-.926.175-1.919 1.068-2.278.947-.38 2.027.1 2.417 1.068.159.398.175.815.075 1.195.003 0 .003.003.006.006.866-.187 1.774.286 2.124 1.155.054.133.087.266.111.401a.773.773 0 0 1 .242.917.782.782 0 0 1-.368.399 1.464 1.464 0 0 1-.914 1.713 1.466 1.466 0 0 1-1.684-.51 1.184 1.184 0 0 1-.956.233 1.808 1.808 0 0 1-1.843.99.658.658 0 0 1-.395.4.667.667 0 0 1-.854-.395.661.661 0 0 1 .012-.486z" fill="#73B400"/><path d="M362.789 82.852c-.866.111-1.128.389-1.551.835a1.829 1.829 0 0 1 1.092-1.26c.948-.38 2.028.099 2.417 1.067.16.398.175.815.075 1.195.003 0 .003.003.006.006.866-.187 1.774.286 2.124 1.155.033.088.06.175.081.263-1.17-1.337-3.517-.492-3.068-.836.978-.751.462-2.637-1.176-2.425zM361.655 85.09c-.311.03-.896.105-1.367.322-.172.078-.558.329-.676.377a1.82 1.82 0 0 1 .987-.96c.22-.087.443-.126.666-.126-.003 0 .924.335.39.386z" fill="#88BF26"/><path d="M359.335 88.608a1.46 1.46 0 0 1 .223-1.415c.428.163.787.024.787.024s-.217 1.27 1.053 1.587c1.171.292 1.892-1.276 1.892-1.276s1.025.642 2.353.525c.627-.055.636-.751.911-1.165.274-.41.184.326.506.217l.293-.102a.782.782 0 0 1-.416.564 1.464 1.464 0 0 1-.914 1.713 1.466 1.466 0 0 1-1.684-.51 1.184 1.184 0 0 1-.956.233 1.808 1.808 0 0 1-1.843.99.657.657 0 0 1-.395.4.667.667 0 0 1-.854-.395.66.66 0 0 1 .012-.485 1.481 1.481 0 0 1-.968-.905z" fill="#60A400"/><path d="M363.172 90.17a5.284 5.284 0 0 1 .009-.567c-.525-.181-.829-1.632-.829-1.632.395.847.712 1.282.875 1.327.018-.184.042-.615.051-.797a4.15 4.15 0 0 1 .039-.437c.033-.199-.066-1.089.021-1.173 0 0 .166 1.303.235 1.158.218-.453.335-.522.592-.905.033-.048-.592 1.273-.586 1.346.028.298.061.73.1 1.354.196-.109.492-.32.658-.462-.115-.386.25-1.143.25-1.143-.012.407-.166.95-.093 1.002.159-.19.962-.79 1.152-1.038 0 0-1.122 1.472-1.937 2.04.039.476.051 1.263.073 1.417.042.32.105.688.169.965H363c.015-.138.052-.268.055-.419.006-.293.015-1.33.048-1.535-1.183-.589-2.178-2.007-2.178-2.007.854.84 1.894 1.479 2.247 1.506z" fill="#865040"/><path d="M18.29 31.243h-2.218v45.69h2.218v-45.69zM62.913 31.242h-2.218v41.762h2.218V31.242z" fill="#5F6464"/><path d="M65.415 60.72H13.846a4.16 4.16 0 0 1-4.159-4.159V33.827a4.16 4.16 0 0 1 4.16-4.159h51.568a4.16 4.16 0 0 1 4.158 4.159V56.56a4.158 4.158 0 0 1-4.158 4.159z" fill="#0047BB"/><path d="M65.415 61.407H13.846A4.851 4.851 0 0 1 9 56.561V33.827a4.851 4.851 0 0 1 4.846-4.846h51.569a4.851 4.851 0 0 1 4.846 4.846V56.56a4.851 4.851 0 0 1-4.846 4.846zM13.846 30.357a3.476 3.476 0 0 0-3.47 3.47v22.735a3.476 3.476 0 0 0 3.47 3.471h51.569a3.476 3.476 0 0 0 3.47-3.47V33.826a3.475 3.475 0 0 0-3.47-3.471H13.846z" fill="#fff"/><path d="M21.063 42.224c-.424-.483-.657-1.204-.696-2.163l1.486-.291c.022.601.12 1.059.286 1.375.166.316.43.474.79.474.266 0 .463-.08.59-.238.128-.161.195-.377.195-.649 0-.374-.084-.69-.253-.948-.166-.258-.43-.546-.79-.865l-1.192-1.04c-.366-.327-.64-.665-.823-1.012-.183-.346-.275-.773-.275-1.28 0-.75.22-1.326.654-1.73.436-.406 1.04-.608 1.814-.608.81 0 1.391.233 1.74.696.353.463.555 1.09.608 1.877l-1.486.258c-.022-.508-.092-.893-.205-1.156-.114-.267-.333-.397-.66-.397-.266 0-.474.083-.627.247-.152.163-.227.377-.227.643 0 .305.06.557.186.76.124.202.319.424.585.665l1.18 1.04c.444.396.79.81 1.04 1.24.25.429.375.93.375 1.507 0 .452-.1.854-.3 1.204a2.1 2.1 0 0 1-.837.823c-.358.2-.77.3-1.24.3-.85-.006-1.494-.25-1.918-.732zM27.792 33.348h1.846l1.894 9.47H29.93l-.375-2.187h-1.65l-.385 2.188h-1.625l1.897-9.471zm1.58 6.185l-.643-3.976-.643 3.976h1.286zM31.71 33.348h1.52l1.25 6.7 1.18-6.7h1.556l-1.905 9.47h-1.694l-1.907-9.47zM38.233 33.348h1.708v9.47h-1.708v-9.47zM41.402 33.348h1.204l2.303 5.4v-5.4h1.428v9.47h-1.145l-2.315-5.658v5.659h-1.472v-9.471h-.003zM48.215 42.111c-.394-.557-.591-1.36-.591-2.414v-3.18c0-1.085.202-1.9.607-2.451.405-.55 1.104-.824 2.093-.824.935 0 1.606.233 2.01.696.405.463.608 1.15.608 2.063v.49h-1.65v-.537c0-.344-.022-.616-.064-.818a.787.787 0 0 0-.269-.469c-.136-.108-.34-.163-.612-.163-.289 0-.502.069-.644.21a1.001 1.001 0 0 0-.274.538c-.042.22-.064.502-.064.854v3.965c0 .538.072.94.216 1.203.145.266.416.397.813.397.39 0 .66-.142.812-.422.153-.28.227-.701.227-1.261v-.89h-1.017V38.01h2.573v4.805h-1.123l-.117-.924c-.296.702-.829 1.054-1.602 1.054-.895.003-1.541-.277-1.932-.835zM54.771 42.223c-.424-.483-.657-1.204-.696-2.163l1.486-.291c.022.602.12 1.059.286 1.375.166.316.43.474.79.474.266 0 .463-.08.59-.238.128-.161.195-.377.195-.649 0-.374-.084-.69-.253-.948-.166-.258-.43-.546-.79-.865l-1.192-1.04c-.366-.327-.64-.665-.823-1.012-.183-.346-.275-.773-.275-1.28 0-.75.22-1.326.654-1.73.436-.406 1.04-.608 1.814-.608.81 0 1.391.233 1.74.696.353.463.555 1.09.608 1.877l-1.486.258c-.022-.508-.092-.893-.205-1.156-.114-.267-.333-.397-.66-.397-.266 0-.474.083-.627.247-.152.163-.227.377-.227.643 0 .305.06.557.186.76.124.202.319.424.585.665l1.18 1.04c.444.396.79.81 1.04 1.24.25.429.375.93.375 1.507 0 .452-.1.854-.3 1.204a2.1 2.1 0 0 1-.837.823c-.358.2-.77.3-1.24.3-.85-.006-1.49-.25-1.918-.732zM26.473 47.379h1.846l1.894 9.47H28.61l-.374-2.187h-1.65l-.385 2.188h-1.625l1.897-9.471zm1.577 6.185l-.643-3.975-.643 3.975h1.286zM31.183 47.379h1.719v3.95h1.93v-3.95h1.73v9.47h-1.73v-4.28h-1.93v4.28h-1.72v-9.47zM38.012 47.379h3.975v1.217h-2.256v2.725h1.777v1.204H39.73v3.144h2.279v1.18h-3.998v-9.47zM44.43 47.379h1.846l1.894 9.47h-1.603l-.374-2.187h-1.65l-.385 2.188h-1.625l1.897-9.471zm1.58 6.185l-.643-3.975-.643 3.975h1.286zM49.118 47.379h2.232c.765 0 1.364.102 1.8.31.434.208.745.522.928.949.183.424.274.987.274 1.688v3.449c0 .718-.091 1.298-.274 1.741a1.925 1.925 0 0 1-.918 1.001c-.43.222-1.009.333-1.74.333h-2.305v-9.471h.003zm2.257 8.268c.382 0 .66-.067.829-.2a.894.894 0 0 0 .327-.555c.047-.238.07-.59.07-1.059V50.21c0-.422-.029-.74-.084-.96a.753.753 0 0 0-.344-.485c-.174-.105-.449-.158-.823-.158h-.516v7.04h.54z" fill="#fff"/><path d="M130.332 79.419S95.803 85.286 87.948 86.2c-7.855.915-15.065 3.68-12.06 4.124 3.004.444 24.115 1.463 30.703 1.319 6.588-.145 12.296-.441 20.236-2.405 6.522-1.614 23.641-6.015 30.001-7.876 1.182-.344.95-.498.766-.516-1.035-.106-27.262-1.427-27.262-1.427z" fill="#0032A5"/><path d="M158.237 68.078c-.571-2.03-2.794-3.65-2.794-3.65l-51.618-.29-5.783 15.959 21.077.585 13.5-.968 17.865-2.779 7.94-4.036c0 .003.383-2.79-.187-4.82z" fill="#004687"/><path d="M122.107 69.066c2.359-.051 4.368 4.253 4.486 9.62.117 5.367-1.699 9.759-4.058 9.81-2.359.052-4.368-4.256-4.486-9.62-.117-5.364 1.699-9.759 4.058-9.81z" fill="#192D4B"/><path d="M122.535 88.498l5.475.118-.537-19.669-5.367.118.429 19.433z" fill="#192D4B"/><path d="M127.575 68.948c2.453-.054 4.537 4.305 4.655 9.738.118 5.433-1.771 9.88-4.22 9.933-2.45.055-4.534-4.304-4.655-9.737-.121-5.433 1.768-9.88 4.22-9.934z" fill="#192D4B"/><path d="M127.914 71.246c1.807-.039 3.346 3.298 3.436 7.458.091 4.16-1.297 7.562-3.104 7.602-1.807.039-3.345-3.3-3.436-7.458-.093-4.16 1.297-7.562 3.104-7.602z" fill="#14AFEB"/><path d="M127.552 76.608c.522-.013.968.953.995 2.156.027 1.204-.374 2.188-.899 2.2-.525.012-.968-.954-.995-2.157-.027-1.201.377-2.187.899-2.2z" fill="#192D4B"/><path d="M127.217 77.754c.247-.006.462.456.474 1.029.012.573-.178 1.043-.429 1.05-.25.005-.461-.456-.473-1.03-.012-.572.181-1.043.428-1.049zM151.489 66.777c1.617-.037 2.998 3.224 3.089 7.282.087 4.057-1.15 7.376-2.764 7.412-1.617.036-2.998-3.225-3.089-7.282-.09-4.06 1.147-7.376 2.764-7.412z" fill="#192D4B"/><path d="M151.814 81.47l3.75.1-.398-14.875-3.678.082.326 14.694z" fill="#192D4B"/><path d="M155.235 66.692c1.68-.036 3.116 3.264 3.204 7.372.09 4.106-1.198 7.47-2.878 7.506-1.678.036-3.113-3.264-3.204-7.373-.09-4.109 1.198-7.47 2.878-7.505z" fill="#192D4B"/><path d="M155.467 68.432c1.24-.027 2.299 2.5 2.368 5.647.07 3.146-.878 5.717-2.114 5.744-1.237.027-2.296-2.501-2.366-5.644-.072-3.15.872-5.723 2.112-5.747z" fill="#14AFEB"/><path d="M155.229 72.486c.359-.009.664.724.685 1.635.021.912-.253 1.654-.612 1.663-.359.009-.667-.724-.685-1.635-.018-.911.256-1.657.612-1.663z" fill="#192D4B"/><path d="M155.003 73.353c.172-.003.317.344.326.778.009.434-.121.787-.293.793-.172.006-.317-.344-.326-.778-.009-.434.121-.787.293-.793zM84.855 69.455c2.585-.058 4.766 3.867 4.875 8.763.108 4.896-1.898 8.914-4.483 8.969-2.585.057-4.766-3.868-4.875-8.764-.105-4.896 1.898-8.911 4.483-8.968z" fill="#192D4B"/><path d="M85.247 87.186l5.994.087-.507-17.949-5.88.13.393 17.732z" fill="#192D4B"/><path d="M90.846 69.321c2.684-.06 4.95 3.913 5.058 8.869.11 4.956-1.978 9.026-4.663 9.083-2.685.058-4.95-3.912-5.06-8.869-.108-4.956 1.983-9.023 4.665-9.083z" fill="#192D4B"/><path d="M91.205 71.42c1.979-.045 3.65 2.999 3.734 6.794.085 3.795-1.454 6.908-3.43 6.95-1.978.046-3.65-2.998-3.734-6.793-.085-3.795 1.45-6.908 3.43-6.95z" fill="#004687"/><path d="M90.788 76.314c.574-.012 1.056.868 1.08 1.967.024 1.097-.419 2-.992 2.012-.573.012-1.056-.866-1.08-1.967-.024-1.098.42-2 .992-2.012z" fill="#9CB3B2"/><path d="M90.418 77.363c.271-.006.503.414.515.939.012.524-.199.953-.473.959-.275.006-.504-.413-.516-.938-.012-.525.202-.954.474-.96z" fill="#F1F5F5"/><path d="M157.977 65.284c-.404-1.46-.748-2.1-2.256-3.391-1.505-1.291-5.107-2.513-5.107-2.513s-5.611-7.026-9.144-10.076c-3.532-3.05-10.89-6.045-17.204-6.34a174.068 174.068 0 0 0-19.436.198c-6.459.426-7.18.872-11.705 3.325-2.23 1.206-11.192 4.814-13.668 6.706-.788.6-2.99 2.114-2.99 2.114l.775 1.593s-2.271 10.661-3.001 12.03c-.73 1.37.365 5.063 1.1 7.802.737 2.736 2.951 3.52 5.313 3.753 2.362.232 25.63.636 29.352.754 3.723.117 8.221-.021 9.117-.552.893-.531 1.617-3.316 2.148-6.076.53-2.76 1.84-9.204 6.479-8.905 6.037.39 5.457 9.867 5.409 11.505a5.85 5.85 0 0 1-.537 2.507s4.649-.718 7.684-1.07c3.034-.353 6.374-.875 9.276-1.382 1.348-.236 1.75-3.783 2.069-6.287.32-2.504 1.171-5.81 3.816-5.466 2.178.283 2.936 5.677 2.936 5.677l.021 1.717c.522-2.09.636-3.726-.447-7.623z" fill="#14AFEB"/><path d="M97.485 59.457l-12.197.495-2.612-.606 1.354 4.003c.09.271.35.452.637.446l12.558-.277a.663.663 0 0 0 .525-.284l3.128-4.53-3.393.753zM111.186 68.954c-2.601.96-9.946.971-22.106 1.164-7.156.112-16.97-.229-14.375-.796 1.985-.434 5.261-.504 14.583-.748 8.184-.214 24.77-.676 21.898.38zM141.437 49.674c-2.531-2.22-6.398-3.753-9.801-4.332-4.211-.718-6.305.26-9.861 3.72-1.744 1.695-.604 2.48 3.653 3.508 4.356 1.05 24.513 6.703 24.513 6.703s-5.204-6.703-8.504-9.599z" fill="#5AC8F5"/><path d="M125.427 52.57c4.356 1.05 24.514 6.704 24.514 6.704s-5.204-6.7-8.504-9.6c-2.531-2.22-6.399-3.752-9.801-4.331a13.24 13.24 0 0 0-2.537-.217c-2.679.06-4.559 1.249-7.322 3.937-1.743 1.692-.606 2.476 3.65 3.508zm-3.758-2.18c-.003-.01-.055-.232.576-.845 2.863-2.784 4.531-3.695 6.869-3.747.808-.006 1.614.064 2.41.209 3.605.612 7.234 2.214 9.469 4.175 2.224 1.951 5.37 5.716 7.12 7.876-5.222-1.457-19.026-5.3-22.523-6.145a19.497 19.497 0 0 1-3.044-.92c-.787-.344-.871-.576-.877-.603zM120.819 60.968c-.832-1.24-1.535-2.275-1.768-2.58-.696-.913-2.709-2.726-5.252-2.877-3.384-.2-9.632-.09-10.609-.052a34.93 34.93 0 0 0-2.314 3.246s16.266 1.246 19.943 2.263zM81.093 56.491c-1.816.178-3.853.407-3.853.407l-.82 3.73 6.254-1.28a13.968 13.968 0 0 0-1.581-2.857zM97.587 59.455l-12.296.498-.61 3.225 12.457-.275.449-3.448z" fill="#0082C8"/><path d="M149.534 75.09c2.19.01-3.107.857-5.895.984-2.784.127-8.555.386-9.581-.12-1.025-.508 5.225-.637 8.854-.855 3.186-.187 4.818-.018 6.622-.009zM98.661 43.707c1.768-.24 4.981-.618 10.157-.92 5.566-.325 15.449.172 15.449.172-3.85-.154-9.035 5.192-13.304 8.619-5.068.054-12.145.323-19.738.775-6.772.404-11.768.839-11.768.839 8.706-5.34 14.272-8.812 19.204-9.485z" fill="#5AC8F5"/><path d="M79.457 53.191s4.993-.434 11.768-.838c6.314-.377 12.269-.625 17.014-.73.959-.021 1.87-.036 2.724-.045 4.175-3.349 9.228-8.538 13.047-8.622.085-.003.172 0 .257.003 0 0-7.581-.38-13.201-.257-.797.019-1.554.046-2.245.085-5.179.305-8.392.679-10.157.92-4.935.673-10.5 4.145-19.207 9.484zm28.767-2.244c-4.914.109-10.969.368-17.041.73-3.672.217-6.842.447-8.963.612 7.231-4.425 12.206-7.321 16.535-7.912 2.766-.377 6.166-.685 10.105-.914.652-.04 1.4-.067 2.221-.085 2.962-.066 6.501.012 9.161.097-2.262 1.246-4.645 3.288-6.974 5.285-.887.76-1.729 1.481-2.546 2.145-.788.009-1.626.024-2.498.042zM97.587 59.454l3.288-.748a93.031 93.031 0 0 0-10.416-.226c-2.61.12-5.21.413-7.78.869l2.612.603 12.296-.498z" fill="#0082C8"/><path d="M104.268 81.623c-3.889-.085-19.19-.377-24.206-.996-1.78-.22-3.846-1.4-3.861-1.99-.015-.592-.429-4.07 1.43-4.197 1.855-.127 23.128.13 25.243.17 2.115.038 3.937.292 4.751.796a19.045 19.045 0 0 1 3.328 2.712c.479.467 9.312.564 9.312.564a4.687 4.687 0 0 1-1.08 2.386c0-.003-11.029.64-14.917.555zM150.04 77.792c-.39.42-1.524-.079-7.678.79-2.706.38-10.154 1.747-10.154 1.747l.015-.591a.779.779 0 0 0 .498-.435c.066-.166.41-1.674.41-1.674s5.186-.103 9.201-.5a200.272 200.272 0 0 0 8.305-1.03s-.205 1.277-.597 1.693z" fill="#192D4B"/><path d="M120.665 60.736c1.671 2.486 3.979 5.98 3.979 5.98M79.454 53.191l-1.942 1.94.45 1.61s-1.28 8.022-1.328 9.714c-.049 1.693.087 2.733 1.623 2.809 3.203.154 18.383-.021 28.178-.239 2.45-.054 2.764-1.43 2.893-3.031.181-2.236.356-10.393.356-10.393l-.796-1.704 2.072-2.317M130.043 66.437l-2.693-7.647-.233-1.795-1.493-4.38.332-6.763M149.939 59.27l1.233 3.212c-.12.818-.187 1.644-.202 2.468-.09 2.115-.923 10.127-.923 10.127l.021 1.032-.944 1.882M141.872 78.651s.048-.208.335-1.227c.286-1.02.108-1.313.108-1.313a1.578 1.578 0 0 1-.636-.85c-.269-.673-.112-3.765-.073-5.88.037-2.115-.799-7.436-.799-7.436v-1.84l-1.125-3.696-4.405-10.136" stroke="#0082C8" stroke-width=".29" stroke-linejoin="round"/><path d="M90.633 56.39a.78.78 0 1 1-.956.679.832.832 0 0 1 .956-.68z" fill="#0082C8"/><path fill-rule="evenodd" clip-rule="evenodd" d="M127.383 56.31l3.421.788.19.685-3.421-.788-.19-.684zM141.131 59.482l3.08.71.184.654-3.08-.709-.184-.655z" fill="#0082C8"/><path d="M149.724 57.959s-1.032.962-.827 1.484a.691.691 0 0 0 .815.368l1.028-1.168s2.863-.452 3.605-1.028c.742-.577-.383-1.44-.881-1.771-.47-.317-2.552-.371-3.807-.377a.645.645 0 0 0-.6.896l.667 1.596z" fill="#5AC8F5"/><path d="M150.122 58.392s-.537.52-1.222 1.05a.692.692 0 0 0 .812.368l1.029-1.167s2.73-.45 3.475-1.026c.742-.573-.377-1.354-.872-1.683-.495-.332-2.576-.344-3.699-.323a.484.484 0 0 0-.437.679l.914 2.102z" fill="#14AFEB"/><path d="M153.444 57.71c1.239-.301.766-1.007-.034-1.553-.606-.413-2.736-.431-3.728-.416a.302.302 0 0 0-.136.033.336.336 0 0 0-.163.446l.978 2.082c0-.003 1.644-.242 3.083-.591z" fill="#0082C8"/></g></svg>