<svg width="1200" height="230" fill="none" xmlns="http://www.w3.org/2000/svg" viewBox="0 0 1200 230"><path fill="#F5FCFF" d="M0 0h1200v230H0z"/><path d="M829 213.623c92.784 0 168-28.121 168-62.811S921.784 88 829 88s-168 28.122-168 62.812 75.216 62.811 168 62.811z" fill="#004EBB"/><g clip-path="url(#clip0)"><path d="M922 191.772l-15.412 9.29-155.622-88.102 15.412-9.29L922 191.772z" fill="#0032A5"/><path d="M779.679 101.271l-12.302 7.15c-3.937 2.29-9.021 2.915-14.615 1.911l12.302-7.15c5.6 1.004 10.679.373 14.615-1.911z" fill="#EB82B9"/><path d="M847.692 118.968c-1.871 3.047-4.263 5.405-7.069 7.04l-12.303 7.15c2.806-1.635 5.199-3.994 7.07-7.041 3.689-2.146 8.612-5.009 12.302-7.149z" fill="#A62F00"/><path d="M815.978 34.021a54.786 54.786 0 0 0-3.449-2.157c-10.919-6.306-20.978-6.966-28.26-2.737l-12.302 7.143c7.281-4.228 17.34-3.569 28.26 2.738a59.162 59.162 0 0 1 3.448 2.157c3.524 2.381 6.897 5.199 10.076 8.349l12.303-7.15c-3.179-3.144-6.553-5.961-10.076-8.343z" fill="#EB82B9"/><path d="M800.227 39.008c1.142.66 2.29 1.377 3.449 2.157 3.523 2.382 6.897 5.199 10.076 8.35 1.934 9.042 6.254 18.229 11.958 25.987-1.917 6.048-6.897 9.324-13.18 9.508a54.331 54.331 0 0 0 3.345 2.106c7.769 4.487 16.198 6.679 22.264 5.881-3.242 4.315-5.079 10.507-4.981 18.282.057 4.808.843 9.817 2.244 14.838-6.72 10.948-20.204 13.049-35.335 4.31a59.518 59.518 0 0 1-3.449-2.158 67.501 67.501 0 0 1-2.014-1.423c-6.8 2.083-17.926-.976-28.851-7.282a85.138 85.138 0 0 1-12.98-9.226c8.9 1.595 16.503-.941 20.262-7.712-8.648-14.254-13.611-30.722-12.481-44.683 1.836-22.78 19.251-30.727 39.673-18.935z" fill="#D70073"/><path d="M897.619 166.989l12.303-7.149c.728 10.512 2.484 22.929 10.867 31.41l-12.302 7.15c-8.383-8.487-10.139-20.904-10.868-31.411z" fill="#FFC882"/><path d="M867.678 90.926c18.729 10.816 34.027 36.93 34.285 58.717.086 7.247-1.497 13.106-4.343 17.341.728 10.512 2.484 22.929 10.868 31.41-3.053-.666-6.083-1.894-9.038-3.598-7.316-4.223-14.161-11.384-19.687-20.29-3.655-.499-7.603-1.865-11.735-4.166-.2-.114-.401-.223-.602-.344-14.598-8.429-27.112-26.154-32.041-43.885-1.395-5.015-2.187-10.03-2.244-14.838-.092-7.781 1.739-13.967 4.992-18.247 1.871-.287 3.495-.815 4.814-1.635.505.28 1.016.55 1.527.808 9.439 4.729 17.575 3.753 22.625-1.6.201.109.39.218.579.327z" fill="#FF8C00"/><path d="M879.98 83.775c-.19-.109-.379-.218-.568-.32-3.69 2.145-8.613 5.003-12.303 7.149.19.109.379.212.568.321 18.729 10.816 34.027 36.93 34.285 58.718.086 7.247-1.497 13.105-4.343 17.34l12.302-7.15c2.846-4.228 4.43-10.093 4.344-17.34-.258-21.782-15.556-47.901-34.285-58.718z" fill="#FFC882"/><path d="M884.806 64.536c-.998-18.81-14.138-40.373-29.786-49.405a38.23 38.23 0 0 0-2.014-1.084c-7.597-3.804-14.351-3.92-19.332-1.021l-12.302 7.15c4.981-2.893 11.734-2.784 19.332 1.02.677.34 1.342.7 2.014 1.085 15.647 9.032 28.788 30.601 29.786 49.405.448 8.406-1.607 14.896-5.394 18.918a14.738 14.738 0 0 1-3.299 2.628l12.302-7.15a14.559 14.559 0 0 0 3.3-2.627c3.792-4.023 5.841-10.513 5.393-18.919z" fill="#82D7F0"/><path d="M842.717 22.275c15.648 9.032 28.788 30.601 29.787 49.405.447 8.406-1.607 14.896-5.394 18.918-5.05 5.36-13.192 6.33-22.625 1.601a43.199 43.199 0 0 1-1.527-.809c-1.319.82-2.943 1.349-4.78 1.595-6.105.81-14.534-1.388-22.303-5.876a51.522 51.522 0 0 1-3.346-2.105c6.283-.178 11.264-3.46 13.181-9.508-5.704-7.758-10.025-16.95-11.958-25.988a50.18 50.18 0 0 1-1.062-7.804c-1.044-19.607 11.505-28.8 28.025-20.52.671.345 1.337.707 2.002 1.091z" fill="#00AFE1"/><path d="M815.978 70.062l-.028 9.244-16.67-9.623-.034 11.39 15.579 8.998-.023 9.169-15.585-8.991-.051 20.048-9.853-5.686.144-49.864 26.521 15.315zM847.578 37.682l9.221 39.92-7.316-4.223-2.295-10.203-8.607-4.969-2.169 7.632-7.047-4.068 9.284-29.236 8.929 5.147zm-7.993 15.252l6.644 3.839-1.853-8.412c-.528-2.359-1.056-5.233-1.498-7.54l-.091-.052c-.454 1.79-.907 4.149-1.401 5.865l-1.801 6.3zM875.017 150.01c2.715 2.473 5.75 4.941 8.516 7.201l-2.318 5.761c-5.016-4.579-9.193-8.733-13.892-13.736a13.807 13.807 0 0 0-2.456-2.02c-7.947-5.187-15.35-16.205-15.315-29.419.034-12.136 6.754-17.404 17.26-11.339 10.77 6.22 16.652 18.999 16.617 30.051-.028 9.192-3.758 13.536-8.417 13.249l.005.252zm-8.882-10.455s1.113 1.481 1.475 1.877c4.676 1.922 7.384-2.066 7.407-9.411.023-7.39-2.995-15.269-8.429-18.407-5.439-3.139-8.59 1.176-8.613 8.744-.068 6.949 2.582 13.978 7.052 17.525.511-.19 1.108-.328 1.108-.328z" fill="#fff"/></g><ellipse cx="761.121" cy="181.799" rx="25.121" ry="8.552" fill="#0032A5"/><g clip-path="url(#clip1)"><path d="M766.784 81.839c.5 1.037 1.074 2.39 1.278 2.908.198.52.377 1.032.167 1.495-.21.463-.599.877-.303 1.26.29.383.772.821.772 1.074 0 .253-.056.568-.476.704-.024.556-.037.877.025 1.025.068.148.068.667-.012.933-.08.265-.29.809-.29.982 0 .172.29.753.105 1.117-.198.402-.538.58-.958.439-.42-.142-1.933-1.655-1.834-3.15-.401 1.093-1.395-.333-1.544-1.074-.345-1.754.76-2.89 1.168-2.044 0 0 .79-2.656 1.556-4.767l.346-.902z" fill="#FFC5A1"/><path d="M757.718 94.4c.543-.89.37-2.02.278-2.402a690.187 690.187 0 0 1 5.261-3.545l.408.111c-.031.297-.025.63.043.995.148.74 1.142 2.173 1.544 1.074-.099 1.494 1.414 3.007 1.834 3.15a.785.785 0 0 0 .475.012c-.512.197-1.247.327-1.84.556-1.501.586-1.284 2.822-.982 3.637-5.428-1.353-6.626-3.483-7.021-3.588z" fill="#FFC5A1"/><path d="M764.998 94.894c.044-.883-.037-1.92-.197-2.403-.186-.555-1.106-2.056-2.31-2.47a8.721 8.721 0 0 0-1.124-.296c1.13-.76 1.896-1.266 1.896-1.266l.408.111c-.031.297-.025.63.043.994.148.741 1.142 2.174 1.544 1.075-.099 1.494 1.414 3.007 1.834 3.15a.784.784 0 0 0 .475.012c-.512.197-1.247.327-1.84.555a1.493 1.493 0 0 0-.729.538z" fill="#F0B28B"/><path d="M757.995 91.998c1.68-1.143 3.298-2.23 4.286-2.89.204.073.408.16.605.277-.543 1.18-.556 4.7-.383 6.126l-.364 1.668c-3.236-1.26-4.094-2.687-4.415-2.773.537-.896.364-2.026.271-2.409z" fill="#F0B28B"/><path d="M754.488 88.076a6.454 6.454 0 0 0 2.291 3.186c.76.556 1.322 1.02 2.087 2.217.321-.24 1.192-.012 1.476-.136.556-.234.476-.611.741-1.445-.055.346-.012.667 0 .908.149.074.414.043.575-.018.667-1.297 1.389-3.255 1.994-3.576-.154-1.556.84-2.5 1.223-1.71.136.765.142 1.191.568 1.179.426-.012.679-.191.636-.698-.043-.512-.346-1.519.025-2.328.37-.815.957-.76.79-2.847.093-.05.179-.092.266-.148.994-.642 1.229-1.778.79-2.42-.654-.976-3.304-.84-4.761-.976-1.457-.142-4.205-.278-5.44.815-1.235 1.099-2.347 1.87-2.748 3.785-.396 1.92-1.032 2.619-.513 4.212z" fill="#382F26"/><path d="M758.867 82.382c1.926-.636 6.527-1.056 8.392.216-.111.08-.228.148-.358.216l.018.309c-1.426-1.18-6.156-.988-7.953-.543-.118.03-.315.074-.334-.019-.025-.093.167-.154.235-.179zM766.141 85.606c-.395.864-.093 1.87-.056 2.383.044.507-.21.692-.636.698-.426.012-.438-.414-.568-1.18-.383-.79-1.377.155-1.223 1.711-.605.321-1.327 2.279-1.994 3.576-.167.061-.432.092-.574.018-.013-.24-.056-.562 0-.908-.266.834-.186 1.21-.742 1.445-.284.124-1.154-.105-1.475.136-.76-1.198-1.328-1.661-2.088-2.217a6.49 6.49 0 0 1-2.291-3.186c-.203-.63-.228-1.118-.16-1.593 3.822 2.772 8.935 1.216 11.807-.883z" fill="#1F1A15"/><path d="M766.123 99.334c-.457-.914-1.099-1.952-2.131-3.131-2.433-2.767-5.372-2.21-6.237-2.13-.296.42-.401.63-.729.926-.419.376-1.16.407-1.185.827.599.34 2.05.358 2.871.439 3.341.327 4.947 1.513 7.411 3.069z" fill="#EDEDED"/><path d="M745.126 110.876c.278-.42.322-1.674.797-2.291.476-.618.296-1.198.655-1.853.358-.654.796-1.772.877-2.631.08-.858.796-3.946 1.932-5.378 1.137-1.433 2.668-1.754 3.749-1.995.895-.197 2.106-.66 2.729-.89.606.328 2.044.353 2.853.433 3.335.327 4.947 1.513 7.411 3.07.438.327 2.297 1.173 2.587 1.413.29.241 1.982 1.353 2.514 2.112.531.76 2.031 2.112 2.513 2.538.475.427 1.809 1.026 2.205 1.396.401.371.438 1.025 1.062 1.371.623.346 1.105.599 1.395.772.439.475.865 1.037 1.396 1.568.531.532 1.13 1.328 1.062 2.471-.068 1.142-.426 1.994-1.179 2.63-.76.636-1.686.877-2.125.76-.438-.117-1.42-.636-2.031-.667-.612-.025-2.248-1.105-2.829-1.686-.586-.587-1.179-.994-1.605-1.278.136 1.155-.056 3.94-.056 5.014 0 1.075-.062 4.366-.08 4.885-.019.519.358 3.069.556 4.125.197 1.056.654 4.421.321 4.86-.914-.259-2.211-.241-3.391-1.593-.957 1.117-2.803 3.168-4.557 4.471-1.754 1.303-4.915 2.26-6.91 1.648-1.995-.611-5.045-1.858-5.768-2.711-.716-.852-.21-3.933.346-5.687.556-1.754 1.778-3.983 1.834-5.021.056-1.037-.21-3.933-.025-5.631.186-1.699-1.087-3.564-1.432-4.28-.346.371-.624.84-.729.84.148.531-.346 1.223-.519 1.303.118.302.081.599-.024.704-.105.105-.704 1.198-1.964 1.636-1.26.439-2.273.402-2.643.334-.704-.908-1.489-1.865-1.501-2.742-.012-.877.29-3.606.574-4.02z" fill="#EDEDED"/><path d="M755.618 95.925a3.25 3.25 0 0 0 .241-.093c.506.303 1.988.358 2.686.414 3.428.284 5.132 1.537 7.577 3.081-2.322-1.229-4.174-2.303-7.509-2.63-.747-.062-2.433-.29-2.995-.772zM765.326 109.041c.617.858 4.823 3.069 5.749 3.693.136 1.155-.055 3.94-.055 5.014 0 1.075-.062 4.366-.081 4.885-.018.519.358 3.069.556 4.125.198 1.056.655 4.422.321 4.86-.914-.259-2.211-.241-3.39-1.593-.957 1.118-2.804 3.168-4.557 4.471-.612.457-1.396.864-2.242 1.185-.296-3.865 4.706-14.209 4.953-18.161.277-4.206-.896-6.966-1.254-8.479zM749.215 102.211c-.476 5.02 1.167 7.985 2.711 10.603-.346.371-.624.84-.729.84.148.531-.346 1.223-.519 1.303.118.302.081.599-.024.704-.105.105-.704 1.198-1.964 1.636a6.851 6.851 0 0 1-1.791.365c-.778-3.878 1.056-9.832 2.316-15.451z" fill="#DEDEDE"/><path d="M780.856 112.969c.068-1.142-.531-1.939-1.062-2.47-.531-.531-.957-1.087-1.395-1.568-.031-.019-.068-.038-.099-.056a51.47 51.47 0 0 0 2.136-2.464c.637-.84 1.143-1.278 1.063-2.34-.081-1.063-.278-.939-.149-1.649.13-.71.476-1.458.451-2.026-.031-.568-.228-.667-.018-1.222.21-.556.667-.488.784-.476.117.012.469.438.475.908.013.469-.067 1.056.099 1.346.167.29.371.475.71.13.34-.346.84-.828 1.026-1.347.191-.518.568-1.216.648-1.352.08-.142.692-.512.716.21.013.29-.16.84-.241 1.186-.08.345-.518 1.531-.586 2.124.346.099.506.698.179 1.155.099.685-.05 1.093-.402 1.642-.345.55-.944 1.038-1.056 1.402-.111.371-.815 2.26-.876 2.631-.056.352-.995 3.359-2.532 5.113.068-.272.111-.562.129-.877z" fill="#FFC5A1"/><path d="M779.912 110.283c.531.531 1.13 1.328 1.062 2.47-.018.359-.074.68-.154.982l-.093.112c.062-.272.105-.562.124-.871.067-1.143-.532-1.939-1.063-2.47-.531-.531-.957-1.087-1.395-1.569l-.099-.055c.056-.056.111-.124.173-.186.488.494.914 1.056 1.445 1.587z" fill="#F0B28B"/><path d="M778.399 108.93l-.099-.055a51.47 51.47 0 0 0 2.136-2.464c.637-.84 1.143-1.279 1.063-2.341-.081-1.062-.278-.938-.149-1.649.13-.71.476-1.457.451-2.025-.031-.568-.228-.667-.018-1.223.098-.272.259-.395.413-.445.161 1.069.315 2.304.501 2.767.197.506.333 1.822-.198 2.909-.451.926-2.631 3.983-3.347 5.391-.266-.303-.506-.593-.753-.865z" fill="#F0B28B"/><path d="M748.684 117.291c1.26-.439 1.859-1.525 1.964-1.637a.253.253 0 0 0 .055-.098c.698 1.117 2.118 4.767 2.625 7.509-.223 1.056-1.137 2.828-1.668 4.341-1.383-2.384-4.928-8.337-5.576-9.782.408.062 1.383.087 2.6-.333z" fill="#FFC5A1"/><path d="M752.753 124.739c-.352.852-.778 1.797-1.087 2.667-1.383-2.383-4.928-8.336-5.576-9.781.401.061 1.377.086 2.593-.34.772-.266 1.297-.778 1.606-1.161.439 2.328.568 5.842 2.464 8.615z" fill="#F0B28B"/><path d="M760.386 164.39c.555-1.951 2.031-5.459 2.031-6.255 0-.797.556-1.711.599-2.192.037-.476-.401-1.118-.08-1.995s-1.636-9.405-1.71-10.801c-.081-1.395.08-2.55-.68-3.544-.562-.741-2.383-1.661-3.538-3.459 1.994.593 5.132-.358 6.873-1.655 1.754-1.303 3.6-3.353 4.557-4.47.964 1.111 2.007 1.296 2.86 1.469.228 1.279.531 3.15.846 4.514.37 1.594 1.074 6.948.679 10.054-.402 3.106-1.155 8.528-1.396 10.041-.241 1.513-2.031 6.015-2.47 7.373-.438 1.353-2.748 8.769-2.909 9.523-.16.759.556 2.075.359 2.908-.198.84-1.118 2.112-.636 2.631.345.377.92.852 1.315 1.087a.436.436 0 0 1 .167.562c-.859 1.704-2.662 3.384-4.391 3.569-1.47.154-2.89.364-4.125.056-.568-.136-.92-.698-.834-1.279.42-2.772 1.062-7.787 1.13-8.781.081-1.105.797-7.398 1.353-9.356z" fill="#785945"/><path d="M760.546 139.602c-.562-.741-2.383-1.661-3.538-3.458 1.994.593 5.132-.358 6.873-1.655 1.723-1.278 3.532-3.279 4.502-4.409-.729 5.78-.55 16.389-.068 18.248.556 2.149 1.198 9.485-.556 12.357s-3.106 10.041-3.829 12.116c-.648 1.871-1.877 5.298.056 10.64a3.7 3.7 0 0 1-1.13.321c-1.47.155-2.89.365-4.125.062a1.128 1.128 0 0 1-.834-1.278c.42-2.773 1.062-7.787 1.13-8.782.08-1.117.797-7.41 1.353-9.368.555-1.951 2.031-5.459 2.031-6.255 0-.797.556-1.711.599-2.192.037-.476-.401-1.118-.08-1.995s-1.637-9.405-1.711-10.801c-.074-1.395.087-2.55-.673-3.551z" fill="#8F6A51"/><path d="M748.035 160.166c.117-1.951 1.118-3.983 1.155-5.422.037-1.432.914-4.187 1.235-5.181.321-.994.278-2.828.321-3.866.037-1.037.198-6.935.599-8.528.346-1.395.086-2.211.018-3.594.921.84 3.736 1.982 5.614 2.557 1.192 1.809 3.007 2.723 3.575 3.464.538.704.612 1.488.643 2.378-.661 2.68-1.649 6.039-1.902 6.774-.346 1.007-1.649 5.021-2.125 6.83-.475 1.809-1.729 6.855-1.809 7.892-.08 1.037-.303 5.996-.544 6.818-.24.815-.45 1.006.161 1.395.84.531 1.254 1.68 1.315 3.137.062 1.458-.815 1.55-1.636 2.903-.815 1.352-2.612 1.753-3.366 1.895-.759.142-1.753-.197-2.173-.994.037-.457-.266-3.057-.426-3.933-.161-.877-.612-2.687-.853-4.638-.241-1.952.074-7.929.198-9.887z" fill="#785945"/><path d="M748.035 160.166c.118-1.951 1.118-3.983 1.155-5.422.037-1.432.914-4.187 1.235-5.181.321-.994.278-2.828.321-3.866.037-1.037.198-6.935.599-8.528.346-1.395.087-2.211.019-3.594.92.84 3.736 1.982 5.613 2.557 1.192 1.809 3.008 2.723 3.576 3.464.537.704.611 1.488.642 2.378-.086.358-.179.722-.278 1.099-1.081 1.957-2.377 3.915-2.871 5.786-.692 2.606-3.829 8.664-4.78 10.523-.957 1.859-1.544 7.12-.266 12.011.859 3.279 1.736 4.526 2.495 5.261-.259.278-.549.593-.833 1.069-.816 1.352-2.613 1.753-3.366 1.895-.76.142-1.754-.197-2.174-.994.037-.457-.265-3.057-.426-3.933-.16-.877-.611-2.687-.852-4.638-.247-1.952.068-7.929.191-9.887z" fill="#8F6A51"/><path d="M762.856 183.763c1.729-.186 3.532-1.865 4.39-3.57.037-.068.043-.142.037-.21 1.297.359 2.903.581 4.057.63 1.223.056 2.02.426 2.31.902.025 1.087-.241 1.396-1.488 1.914-2.656 1.106-9.801.976-12.437.531.988.056 2.044-.086 3.131-.197z" fill="#292929"/><path d="M762.855 183.763c1.13-.124 2.291-.883 3.199-1.871 1.408 1.284 4.31 1.401 6.756 1.241a6.493 6.493 0 0 1-.642.296c-2.656 1.106-9.801.976-12.438.531.982.056 2.038-.086 3.125-.197z" fill="#424242"/><path d="M758.533 183.75c1.136.525 10.454 1.001 13.635-.321 1.247-.519 1.513-.821 1.488-1.914.346.333.383 1.278.37 1.593-.111 2.655-6.44 2.637-8.633 2.606-3.853-.056-5.391.08-6.36-.519-.581-.358-.661-.877-.5-1.445z" fill="#DEDEDE"/><path d="M769.784 183.997c-.339.451-.488 1.013-.488 1.581-1.525.154-3.038.148-3.909.136-3.853-.056-5.391.08-6.36-.519-.581-.358-.661-.877-.5-1.445.926.426 7.212.815 11.257.247z" fill="#B0B0B0"/><path d="M756.285 174.821a6.259 6.259 0 0 0-.198-1.384c1.21-.166 2.297-.21 2.952.26-.025.321-.08.858-.161 1.556-.667.556-1.494 1.161-3.785 1.852.654-.815 1.235-1.093 1.192-2.284z" fill="#292929"/><path d="M758.872 175.246c-.667.556-1.494 1.161-3.785 1.853.506-.624.963-.933 1.13-1.575.84-.043 1.902-.543 2.742-1.044-.025.223-.05.482-.087.766z" fill="#424242"/><path d="M749.135 178.662c.432.765 1.402 1.093 2.143.957.759-.142 2.55-.537 3.365-1.896.148-.241.297-.445.439-.617 2.291-.698 3.118-1.303 3.785-1.853-.062.506-.13 1.093-.21 1.723a4.641 4.641 0 0 1-1.303.673c-.654.198-1.871.475-2.513 1.173-.636.698-1.754 1.556-3.051 1.513-1.297-.037-2.254-.117-2.748-.84-.068-.284.006-.586.093-.833z" fill="#DEDEDE"/><path d="M752.092 180.323c-.099.006-.197.012-.296.006-1.297-.037-2.254-.118-2.748-.84-.081-.284 0-.587.086-.834.432.766 1.402 1.093 2.143.957.235-.043.568-.111.939-.222a1.922 1.922 0 0 0-.124.933z" fill="#B0B0B0"/></g><defs><clipPath id="clip0"><path fill="#fff" transform="translate(750.966 11)" d="M0 0h171.034v190.062H0z"/></clipPath><clipPath id="clip1"><path fill="#fff" transform="translate(744.552 79.178)" d="M0 0h41.69v109.89H0z"/></clipPath></defs></svg>