<svg width="375" height="156" fill="none" xmlns="http://www.w3.org/2000/svg" viewBox="0 0 375 156"><path d="M375 0H0v156h375V0z" fill="#F5FCFF"/><mask id="a" maskUnits="userSpaceOnUse" x="0" y="0" width="375" height="156"><path transform="matrix(-1 0 0 1 375 0)" fill="#F5FCFF" d="M0 0h375v156H0z"/></mask><g mask="url(#a)"><path d="M481.001-5.706L374.813.097 176.849 20.841l-36.882 21.902 167.705 97.683 140.778 13.258 32.551-159.39z" fill="#00AD00"/><path d="M437.509-7.297S75.411 4.265 51.072 44.358C21.095 93.745 318.26 226.2 318.26 226.2l250.865-59.442s-397.638-99.299-379.744-129.2C208.081 6.31 578.295-2.295 578.295-2.295L437.509-7.297z" fill="#fff"/><path d="M346.422 206.702S52.672 89.192 79.234 44.358C103.14 4.01 465.671-5.998 465.671-5.998l81.019 1.535S176.252 6.173 157.777 37.553c-19.75 33.549 379.744 144.365 379.744 144.365l-191.099 24.784z" fill="#004EBB"/></g><path d="M141.165 92.852c-1.585.91-1.549 2.325.085 3.146l15.129 9.682 80.111 40.308c1.634.821 4.327.801 6.123.441 6.814-1.383 16.86-4.493 22.215-7.077 1.645-.797 4.027-2.322 5.5-3.405 2.479-1.82 6.62-5.747 8.064-8.72.796-1.646 1.015-3.021-.619-3.846l-98.435-49.537c-1.634-.82-4.267-.752-5.852.158l-32.321 18.85z" fill="#0032A5"/><path d="M143.499 75.43c-.494-2.843 1.5-4.885 1.5-4.885s1.124-3.296 4.089-6.904c2.964-3.603 14.081-9.997 17.236-11.311 3.15-1.315 6.665-1.476 8.392-1.238 1.73.239 9.811 2.787 9.811 2.787s9.787.78 17.911 4.011c8.125 3.232 16.929 8.089 23.452 11.563 3.802 2.022 10.77 7.316 15.926 11.376l.603-.384s-.502-2.374-.388-2.795c.113-.424 1.326-3.397 1.326-3.397s1.48 1.5 1.933 2.742c.453 1.242-.327 3.114-.57 4.024-.138.518-.445 1.132-.679 1.57-.004-.005-.013-.009-.017-.013a370.392 370.392 0 0 1 4.251 3.442c8.974 3.522 20.536 13.499 20.536 13.499 2.208.113 3.733 4.279 5.322 7.118 1.594 2.843 1.509 4.756 1.464 5.589-.048.833 1.06 12.759-8.618 19.46-9.682 6.697-21.232 8.194-26.376 7.846a25.763 25.763 0 0 1-5.852-1.088c-.202-.967-.388-1.872-.429-2.503-.311-5.193-4.933-11.401-9.665-13.577-6.127-2.818-8.982.045-8.667 5.242.033.513.186 1.326.393 2.179l-46.674-23.504c-.206-1.108-.429-2.245-.538-2.932-.768-4.728-4.457-10.054-8.566-12.517-6.567-3.935-8.529-.198-7.825 4.954v.008c-2.329-2.119-6.196-5.666-8.173-7.671-2.953-2.99-2.722-7.276-2.944-8.796-.223-1.521 1.836-3.895 1.836-3.895z" fill="#14AFEB"/><path d="M141.659 79.325c.222 1.52-.008 5.807 2.944 8.796 1.981 2.005 5.844 5.552 8.173 7.671v-.008c-.708-5.152 1.258-8.893 7.825-4.954 4.109 2.463 7.802 7.79 8.566 12.517.113.687.336 1.824.538 2.932l46.674 23.505c-.207-.854-.364-1.667-.393-2.18-.311-5.197 2.544-8.06 8.667-5.241 4.732 2.175 9.354 8.383 9.665 13.576.037.631.227 1.537.429 2.503 1.472.457 3.478.926 5.852 1.088 5.144.348 16.694-1.149 26.376-7.846 8.784-6.078 8.683-16.459 8.626-18.955-.813 4.271-2.968 9.617-8.877 13.682-6.106 4.202-10.87 6.462-20.884 6.867-5.9.234-9.855-1.549-12.072-2.386l-.028-.441c2.216.837 6.123 1.812 12.023 1.577 10.018-.4 14.778-2.665 20.884-6.863 5.949-4.093 8.093-9.479 8.894-13.766.028.149.048.291.068.429.021-.971-.105-2.73-1.48-5.189-.445-.797-.886-1.695-1.334-2.58-1.036 1.759-1.711.893-1.711.893-.053 1.917-.841 4.599-1.331 5.496-.489.898-2.018 4.049-6.288 7.094-4.267 3.045-9.112 4.655-11.882 5.544-2.77.89-5.407.785-5.407.785-3.252 1.634-6.572.227-6.572.227-.772-1.517-4.072-3.341-6.547-4.574-1.343-.672-3.713-2.059-5.86-3.422-1.804-1.144-2.864-1.905-2.864-1.905-5.39-3.457-7.489-6.276-7.489-6.276-4.101-7.146-11.85-17.2-11.85-17.2-5.641-6.968-16.278-11.736-23.407-15.238-5.088-2.5-12.723-2.204-19.133-2.435l-7.595-.396s-7.704-2.059-7.854-6.111c-1.424 2.293-2.006 3.996-2.006 3.996s-1.994 2.046-1.5 4.885c0 0 3.284 6.98 6.608 11.045 0 0-6.079-4.797-8.295-8.263-.133.397-.202.78-.153 1.12zm61.107 23.027c1.99-.453 3.171-1.165 3.927-.493l2.212 2.014s1.157 1.128.34 1.662-3.539.699-5.775.833c-2.237.133-2.411-1.897-2.455-2.224-.049-.332-.235-1.339 1.751-1.792z" fill="#0082C8"/><path d="M173.434 76.409a11.88 11.88 0 0 1 1.249-.138c6.297-.38 12.667 3.608 14.854 4.829 3.515 1.957 10.111 5.504 13.921 9.949 4.658 5.43 3.558 4.99 10.607 17.046 0 0-1.997-1.007-4.929-2.5.036-.02.076-.036.109-.06.817-.534-.34-1.662-.34-1.662l-2.212-2.014c-.756-.668-1.933.04-3.911.489-5.152-2.645-10.834-5.597-14.179-7.445-7.239-4.008-25.797-14.377-25.797-14.377s3.939-3.03 10.628-4.117z" fill="#0082C8"/><path d="M219.719 122.702l2.16-1.282c.837.17 1.759.477 2.774.946 4.732 2.176 9.354 8.384 9.666 13.577.036.63.226 1.536.428 2.503h.008l-3.805 2.265c-1.302.784-3.134.752-5.209-.283-4.287-2.144-7.991-7.753-8.278-12.533-.158-2.601.728-4.421 2.256-5.193z" fill="#192D4B"/><path d="M221.879 121.416l-2.16 1.282c-1.533.772-2.418 2.592-2.261 5.193.029.497.098 1.003.199 1.512l-1.278.38c-.207-.853-.364-1.666-.393-2.179-.262-4.332 1.683-7.041 5.893-6.188z" fill="#004687"/><path d="M217.459 127.891c.287 4.78 3.995 10.393 8.278 12.533 4.287 2.139 7.53 0 7.243-4.781-.287-4.78-3.995-10.393-8.282-12.533-4.283-2.139-7.526 0-7.239 4.781z" fill="#192D4B"/><path d="M217.916 128.343c.267 4.408 3.684 9.585 7.635 11.559 3.955 1.973 6.944.004 6.681-4.409-.267-4.408-3.684-9.584-7.639-11.558-3.952-1.973-6.94 0-6.677 4.408z" fill="#192D4B"/><path d="M219.756 129.359c.198 3.283 2.742 7.133 5.682 8.606 2.94 1.468 5.164 0 4.97-3.28-.198-3.284-2.742-7.134-5.682-8.602-2.944-1.476-5.169-.004-4.97 3.276z" fill="#0082C8"/><path d="M223.881 130.944c.056.958.8 2.079 1.658 2.511.857.429 1.508 0 1.448-.958-.057-.959-.801-2.083-1.659-2.512-.857-.428-1.504 0-1.447.959zM155.623 90.417l1.743-1.04c.922.24 1.998.709 3.236 1.453 4.109 2.463 7.801 7.789 8.565 12.516.113.688.336 1.824.538 2.932l.409.207-3.264 1.941c-1.302.784-3.134.752-5.209-.283-4.287-2.14-7.995-7.753-8.282-12.533-.154-2.6.732-4.416 2.264-5.193z" fill="#192D4B"/><path d="M153.359 95.61c.287 4.78 3.995 10.394 8.282 12.533 4.287 2.139 7.53.004 7.243-4.78-.287-4.78-3.996-10.394-8.282-12.533-4.287-2.14-7.531 0-7.243 4.78z" fill="#192D4B"/><path d="M153.816 96.063c.266 4.408 3.684 9.585 7.635 11.562 3.955 1.974 6.944 0 6.681-4.408-.267-4.408-3.684-9.585-7.64-11.558-3.951-1.978-6.939-.004-6.676 4.404z" fill="#192D4B"/><path d="M155.655 97.078c.199 3.28 2.742 7.134 5.682 8.606 2.945 1.468 5.165 0 4.971-3.28-.198-3.283-2.742-7.133-5.682-8.605-2.945-1.473-5.169-.005-4.971 3.28z" fill="#0082C8"/><path d="M159.752 98.647c.061.975.817 2.119 1.691 2.556.873.437 1.537 0 1.476-.975-.061-.974-.813-2.119-1.691-2.555-.873-.437-1.532 0-1.476.974z" fill="#192D4B"/><path d="M157.366 89.382l-1.743 1.04c-1.532.772-2.418 2.592-2.264 5.188 0 .02.004.045.004.065l-.587.117v-.008c-.574-4.182.615-7.429 4.59-6.402z" fill="#004687"/><path d="M219.723 80.683c4.809-3.364 10.074-7.857 10.074-7.857s8.331 5.544 11.049 7.716c4.068 3.251 7.429 5.476 7.429 5.476.449.178.91.372 1.371.578 3.923 2.972-2.556 9.184-7.555 12.957-4.998 3.77-13.184 8.129-18.049 9.039-.501.093-.97.15-1.415.178-3.854.231-5.496-1.828-5.496-1.828-3.733-6.543-11.898-17.39-11.898-17.39s9.682-5.504 14.49-8.869zM156.21 69.538c1.637-2.48 8.072-7.118 11.436-9.265 2.407-1.537 6.301-4.117 10.972-5.484a22.05 22.05 0 0 1 4.902-.878c.331-.02.667-.032 1.007-.032 0 0 4.812.384 10.486 1.727 0 0-7.809 4.286-11.315 6.761-3.507 2.471-10.272 7.887-11.037 8.643 0 0-1.221 1.504-2.487 1.577-1.266.077-14.013-.586-14.013-.586s-1.589.016.049-2.463z" fill="#0082C8"/><path d="M220.002 81.08c4.141-2.896 8.667-6.67 9.827-7.644 1.525 1.02 8.331 5.59 10.705 7.49 4.04 3.227 7.433 5.48 7.466 5.5l.044.028.049.02c.048.02.105.045.157.065.413.8.72 1.856.34 2.912-.772 2.156-4.715 6.212-8.549 8.744-3.705 2.442-10.766 8.096-20.112 9.835-1.516-.425-2.265-1.209-2.402-1.367-3.288-5.747-10.013-14.854-11.578-16.957 2.022-1.165 9.896-5.715 14.053-8.626zM188.017 80.954c.433.239.813.453 1.132.619-1.197 3.243-2.341 9.302-2.746 11.55-3.971-2.208-9.532-5.306-14.235-7.93l2.616-8.437c5.173-.283 10.41 2.63 13.233 4.198zM173.514 76.89c.106-.016.211-.028.32-.045l-2.601 7.826c-3.409-1.901-6.244-3.486-7.497-4.186 1.346-.861 4.8-2.786 9.778-3.595zM170.141 72.102c.858-.053 1.832-1.028 2.136-1.4l.016-.02.02-.016c.809-.805 7.474-6.414 11.097-8.699 7.118-4.49 9.29-5.387 11.199-6.454-5.047-1.165-9.322-1.57-9.993-1.626-1.169.161-2.686.493-4.68.93-4.861 1.197-8.99 3.923-11.651 5.625l-.38.243c-3.781 2.414-9.783 6.839-11.291 9.12-.821 1.241-.643 1.613-.639 1.625.036.07.174.081.174.081h.032c4.404.235 12.982.651 13.96.59z" fill="#94DAEE"/><path d="M272.661 115.317s-1.585-6.644-1.699-7.368c-.113-.724 1.084-5.023-2.03-8.42 2.006.239 3.446 3.814 4.902 6.56.101 2.05.153 6.64-1.173 9.228zM253.492 128.469s-1.844-1.783-3.462-3.009c-1.614-1.225-2.665-1.601-4.748-1.625-2.079-.021-5.306.072-6.891-.247-1.585-.32-2.871-.562-3.883-.696-1.011-.137-1.844-.157-1.164.975.679 1.132 1.52 3.547 4.008 4.238 2.487.692 3.829.789 6.939.813 3.11.028 9.201-.449 9.201-.449z" fill="#E1E8EC"/><path d="M258.466 127.689c.433-.025.866-.13 1.29-.308l.348-.145c1.945-.821 4.36-1.844 6.519-3.664 1.848-1.561 3.078-2.771 3.757-3.701.599-.821.846-1.686.748-2.649-.093-.905-.392-3.676-.566-5.249-.72 1.108-1.998 2.981-3.377 4.538-1.168 1.318-3.631 3.716-7.02 4.994-.235.089-.469.182-.704.279-.23.093-.461.186-.691.271a79.81 79.81 0 0 1-6.758 2.196l4.493 2.993c-.004.004.801.513 1.961.445zM243.608 136.343c1.354-.166 4.853-.501 6.527-.797.275-.048.546-.141.651.623.109.764-.954.922-.954.922-1.468.219-2.839.392-3.725.437 0 0-2.649.19-2.896.202-.307.012-.534-.162-.534-.162-.125-.485.081-1.12.931-1.225zM258.721 133.641l.335.829s.32.466 1.266-.004c.943-.469 4.813-2.551 7.053-4.226 1.662-1.241 3.175-2.883 3.458-3.239.283-.356.546-1.262.558-1.589.012-.328.202-.959-.526-.114-.728.846-3.324 3.054-5.059 4.206-1.735 1.153-6.082 3.341-6.822 3.624.004.004-.405.162-.263.513z" fill="#006399"/><path d="M144.878 70.682s-.474 1.08.477 2.172c.95 1.092 3.065 2.968 3.065 2.968s.534.21-.445 1.4c-.978 1.189-1.1 1.197-1.1 1.197s-.145.17-.38.182c-.178.012-.404-.07-.655-.385-.582-.727-1.767-1.852-2.337-2.79-.425-2.406.946-4.242 1.375-4.744z" fill="#0082C8"/><path d="M206.693 101.858c-.66-.582-1.638-.117-3.195.308-4.364-2.237-9.18-4.732-12.658-6.604.056-4.38.408-10.479.55-12.828 5.225 2.81 9.24 5.77 11.691 8.63 3.054 3.563 3.608 4.57 5.666 8.323.008.012.012.024.02.036l-.157 3.878-1.917-1.743z" fill="#94DAEE"/><path d="M216.783 99.89l4.837 2.066c.178-1.185.655-2.916.117-6.026-.53-3.057-2.075-5.184-2.075-5.184s.061-2.528-1.007-5.529a5.365 5.365 0 0 0-1.5-2.244c-.845.542-1.739 1.1-2.641 1.654l2.269 15.263z" fill="#D4CDBF"/><path d="M229.522 85.124s.271-2.337-.796-5.334c-.607-1.703-1.634-2.766-2.496-3.405-1.832 1.46-4.08 3.195-6.224 4.699a82.188 82.188 0 0 1-2.843 1.889 5.376 5.376 0 0 1 1.501 2.244c1.067 3 1.007 5.529 1.007 5.529l9.851-5.622z" fill="url(#paint0_linear)"/><path d="M221.737 95.934c-.53-3.057-2.075-5.184-2.075-5.184l9.856-5.622s1.25 1.901 2.087 4.57c.534 1.699.736 4.82.558 6.002l-10.543 6.26c.178-1.185.659-2.92.117-6.026z" fill="url(#paint1_linear)"/><path d="M241.125 97.439c-2.285-.93-5.225-1.86-6.334-2.083-1.945-.392-2.64.328-2.64.328l-10.487 6.224c.218 1.132 2.447 2.891 4.703 4.238 6.164-2.439 10.879-6.111 13.674-7.955.364-.234.724-.49 1.084-.752z" fill="url(#paint2_linear)"/><path d="M208.513 93.196l3.575-2.038s.23-2.006-.684-4.578l-.024-.056c-2.415 1.44-4.522 2.653-5.431 3.178.469.627 1.403 1.889 2.564 3.494z" fill="url(#paint3_linear)"/><path d="M212.087 91.158l-3.575 2.038a276.822 276.822 0 0 1 5.197 7.417l.647-.384c.15-1.015-.02-3.692-.477-5.148-.72-2.289-1.792-3.923-1.792-3.923z" fill="url(#paint4_linear)"/><path d="M217.405 106.445c3.406-2.063 7.268-4.542 7.369-5.027.174-.829-7.045-3.138-8.901-3.494-1.857-.352-2.52.295-2.52.295l-.922.518c1.828 2.653 3.656 5.427 4.974 7.708z" fill="url(#paint5_linear)"/><path d="M230.04 90.034s2.794.736 4.546 2.147c1.751 1.412 4.064 4.117 4.064 4.117l-1.687 2.633s-5.896-2.888-7.522-3.761c-1.625-.874-3.029-3.547-3.029-3.547l3.628-1.59z" fill="#014B89"/><path d="M228.054 90.875s.922 1.553.854 2.014c-.069.461.299 1.343.299 1.343s2.831 2.155 3.619 3.267c.789 1.117 1.549 2.852 1.335 2.868-.214.016-3.223 1.229-3.223 1.229s-2.645-2.81-4.21-3.595c-1.565-.78-3.919-2.273-4.489-4.877l5.815-2.249z" fill="#1A64A3"/><path d="M238.075 84.93s.017.004.041.004c.186.029.954.138 1.298.219.392.093.619-.029 1.116.546.498.578.473.966.453 1.354-.024.389-.153.967-.279 1.1-.125.134-.178.267-.36.235-.182-.032-.263-.125-.251-.113.009.012-.242-.004-.226-.267.016-.259.158-.825.158-.825l-.146-.465s-.36-.247-.465-.215c-.105.033-1.108.081-1.108.081s-1.403.101-1.933-.036c-.534-.138-5.071-1.274-5.492-1.553-.417-.283-1.998-2.313-2.661-2.977-.663-.663-.902-2.887-1.286-3.004-.38-.114-1.262-.057-1.262-.057l-.667-1.343s1.86-1.868 3.037-.914c1.177.95 1.569 1.521 1.763 1.776.194.255 2.18 3.805 2.73 4.21.554.404 4.149 1.981 4.715 1.973.405 0 .825.271.825.271z" fill="#F2A983"/><path d="M227.933 80.826s1.933 2.3 2.519 2.685c.583.384 1.351-.51 1.206 0-.146.51.036 1.023.238 1.132.202.11 4.505 1.19 4.801 1.278.295.09 1.399-.667 1.961-.327a.924.924 0 0 1 .425.946c-.328.024-.773.044-.773.044s-1.403.102-1.933-.036c-.534-.137-5.071-1.274-5.492-1.553-.416-.283-1.998-2.313-2.661-2.976-.194-.195-.352-.522-.489-.89l.198-.303z" fill="#D88F69"/><path d="M226.295 76.43s1.189-.474 2.063.29c.873.77 2.527 3.212 2.527 3.212s-1.698 2.637-2.98 2.98c-1.286.344-1.61-6.483-1.61-6.483z" fill="#F6C100"/><path d="M227.136 79.681c.226-.465 1.476-.388 1.808.566.198.579.441 1.104.602 1.428-.521.574-1.116 1.1-1.642 1.241-.538.142-.958-.954-1.274-2.28.235-.45.433-.813.506-.955z" fill="#DDA800"/><path d="M223.577 80.652c1.788.327 3.013.242 3.264-.732.251-.975-.813-3.021-.813-3.021l-.32-.101a142.39 142.39 0 0 1-3.494 2.685c.178.513.562 1.023 1.363 1.169z" fill="#D88F69"/><path d="M227.832 86.204c-.028-.368-.235-2.087-.235-2.087.332-.445.874-1.678.773-3.708-.101-2.03-1.395-3.822-1.395-3.822s-.478-.097-.866-.11c-.137.11-.283.223-.424.337.012.012.016.024.028.036.566.643.942 2.41-.17 3-.991.526-1.864-.064-2.402-.606l-.263-.263c-.95.716-1.921 1.428-2.875 2.095-.437.308-.914.631-1.424.967.17 2.09 2.285 5.637 2.718 6.349.501.825 1.181 5.379 1.181 5.379.675-.57 3.312-.947 5.5-1.61 2.192-.663 2.394-2.171 2.394-2.171s-.538-.292-.87-.62c-.327-.323-1.638-2.798-1.67-3.166z" fill="#F6C100"/><path d="M226.283 77.918c.74-.182.522-.813.526-1.278.004-.239.036-.51.068-.777-.764.615-1.621 1.294-2.531 1.998.695.166 1.435.182 1.937.057z" fill="#F2A983"/><path d="M226.643 77.744c.299-.271.166-.74.17-1.104.004-.239.036-.51.068-.777-.016.012-.028.025-.044.037.028.15.032.34-.182.36-.235.02-.093.428-.101.691 0 .142.028.49.089.793z" fill="#D88F69"/><path d="M221.911 84.287c-.105 1.096-.036 1.678.453 2.596.485.918.421 1.796 1.266 2.285.845.49 1.589-.028 2.447 0 .857.025.788-.012.695.566-.093.575-.044.923.672.716.719-.21 1.73-.546 1.532-.068-.157.384-2.099 1.516-2.721 2.252-.579.142-1.145.271-1.659.397a55.069 55.069 0 0 1-2.313-.47c-.238-1.411-.651-3.607-.982-4.157-.462-.76-2.662-4.004-2.544-6.006l2.374-.279c0-.008.885 1.072.78 2.168z" fill="#DDA800"/><path d="M234.194 94.337c.457 0 1.002-.142 1.609-.437 2.095-1.023 4.125-3.526 4.53-5.593.287-1.468-.32-2.317-1.452-2.317-.457 0-1.003.141-1.61.437-2.095 1.023-4.125 3.526-4.529 5.593-.287 1.468.323 2.317 1.452 2.317zm-.53-2.144c.339-1.718 2.111-3.894 3.874-4.755.453-.223.87-.336 1.201-.336.259 0 .445.069.558.206.174.21.215.627.118 1.137-.34 1.718-2.112 3.894-3.875 4.756-.453.222-.869.34-1.201.34-.259 0-.445-.07-.558-.207-.174-.214-.218-.63-.117-1.14z" fill="#39464A"/><path d="M248.591 89.452c.376-1.044.076-2.087-.328-2.884-3.005-.032-9.443 4.497-15.768 8.266-6.127 3.652-12.517 8.954-15.125 11.55.052.094.109.187.157.275.138.158.886.943 2.403 1.367 9.346-1.739 16.407-7.388 20.111-9.835 3.834-2.528 7.777-6.584 8.55-8.74z" fill="url(#paint6_linear)"/><path d="M247.017 91.947c-.339-2.014-1.751-3.818-1.751-3.818s-3.102-2.297-8.088 0c-4.987 2.297-5.747 7.239-5.747 7.239v.097c2.944 1.395 6.499 2.338 9.775 1.909 2.232-1.634 4.388-3.668 5.811-5.427z" fill="url(#paint7_linear)"/><path d="M224.475 100.124s-.461-2.867 2.819-4.626c3.28-1.76 5.88-.441 5.88-.441s4.141 2.835-.91 5.565c-5.047 2.729-7.789-.498-7.789-.498z" fill="url(#paint8_linear)"/><path d="M221.798 93.075c.251.275 1.108.955 1.278 1.408.17.453.384 1.14.307 1.605-.077.47-.04 1.076-.287 1.145-.247.068-.364.02-.364.02s-.02.32-.34.307c-.315-.012-.275-.141-.275-.141s-.258.198-.4.153c-.142-.044-.202-.542-.202-.542s-.227-1.168-.271-1.27c-.041-.1-.251-.659-.259-.465-.008.19.202.927.247 1.173.044.247.214.66.068.692-.145.028-.481-.376-.582-.724-.101-.348-.51-1.145-.518-1.383-.008-.235.126-1.218-.052-1.468-.178-.251-2.022-1.97-2.499-3.03-.478-1.063-.486-1.083-.567-1.564-.068-.417.146-.959.146-.959s.243-2.855.639-3.623c.396-.769.619-1.258.639-1.493.02-.234.206-1.168.942-1.261.736-.094 2.156 1.189 2.196 1.698.041.51-.57 1.064-.833 1.666-.263.603-.857 4.048-.857 4.048s1.387 3.507 1.844 4.008z" fill="#F2A983"/><path d="M223.096 97.232c-.246.07-.364.02-.364.02s-.02.32-.339.308c-.316-.012-.275-.142-.275-.142s-.259.199-.401.154c-.141-.044-.202-.542-.202-.542s-.166-.853-.243-1.165c.061-.194.579-.036.579-.036s.109-.101.348-.206c.238-.105.546-.04.546-.04s.137-.041.497-.166a.464.464 0 0 1 .101-.025c.049.251.073.494.04.7-.076.461-.04 1.072-.287 1.14zM220.467 95.805c.259 0 .502.028.619.04.057.24.122.49.146.615.044.247.214.66.069.692-.146.028-.482-.376-.583-.724-.044-.15-.149-.384-.251-.623z" fill="#D88F69"/><path d="M221.778 81.89c-.207-.688-.615-1.089-1.048-1.323-.242.174-.485.348-.724.513-.614.429-1.314.898-2.058 1.383-.231 1.052-.174 2.023-.174 2.023 1.646-.38 3.349.643 3.349.643s1.079-1.828.655-3.24z" fill="#F6C100"/><path d="M196.352 85.69a63.015 63.015 0 0 0-4.897-2.92l-.069.04c-.125 2.055-.396 6.758-.505 10.79l5.779-3.43c.129-.877.02-2.98-.308-4.48z" fill="url(#paint9_linear)"/><path d="M204.137 92.614c-.316-.38-.663-.793-1.052-1.246-.877-1.023-1.953-2.055-3.215-3.09-.821-.259-1.52-.453-1.933-.538-1.67-.335-2.265.283-2.265.283l-4.699 2.79a189.17 189.17 0 0 0-.137 4.757c1.423.768 3.077 1.638 4.828 2.556 1.877-1.117 6.059-3.774 8.473-5.513z" fill="url(#paint10_linear)"/><path d="M199.814 98.651s.053-2.171-.861-4.743c-1.024-2.876-3.939-3.13-3.939-3.13l1.124 7.582c1.565.817 3.203 1.666 4.824 2.499-.537-1.362-1.148-2.208-1.148-2.208z" fill="#D4CDBF"/><path d="M206.046 95.096c-.724-1.047-1.589-2.131-2.96-3.733-.918-1.067-2.051-2.151-3.385-3.235l-4.687 2.649s2.915.25 3.939 3.13c.914 2.572.861 4.744.861 4.744l6.232-3.555z" fill="url(#paint11_linear)"/><path d="M206.693 101.858l1.917 1.747.158-3.878a.138.138 0 0 0-.021-.036c-1.136-2.07-1.815-3.304-2.705-4.594l-6.232 3.554s.611.846 1.144 2.208c.854.441 1.707.878 2.54 1.307 1.561-.425 2.54-.89 3.199-.308z" fill="url(#paint12_linear)"/><path d="M198.419 88.37c.259.304.287 1.926.283 2.739.073-.012.145-.033.218-.06l2.443-1.46a34.057 34.057 0 0 0-3.009-2.492c-.611.368-1.096.66-1.246.748.441-.077 1.003.162 1.311.526z" fill="url(#paint13_linear)"/><path d="M197.113 87.841c.436-.068.995.166 1.306.53.259.303.287 1.925.283 2.738-.283.049-.518-.012-.518-.012s-1.48-.797-1.682-1.157c-.202-.36.562-2.066.562-2.066s.02-.016.049-.033z" fill="#D4CDBF"/><path d="M208.707 101.252l-1.622.962 1.529 1.391.093-2.353z" fill="url(#paint14_linear)"/><path d="M180.681 82.507c-1.024-2.875-3.939-3.13-3.939-3.13l1.35 9.12c1.776.99 3.531 1.97 5.165 2.875-.502-2.446-1.715-4.12-1.715-4.12s.053-2.172-.861-4.745z" fill="#D4CDBF"/><path d="M188.611 83.22l-7.069 4.031s1.209 1.679 1.715 4.121l3.146 1.752c.344-1.91 1.217-6.556 2.208-9.905z" fill="url(#paint15_linear)"/><path d="M188.611 83.22c.178-.595.356-1.157.538-1.647-.319-.165-.7-.376-1.132-.618-1.828-1.02-4.679-2.597-7.866-3.507l-3.413 1.93s2.915.25 3.939 3.13c.914 2.572.861 4.743.861 4.743l7.073-4.032z" fill="url(#paint16_linear)"/><path d="M180.317 77.496c.105.631.117 1.63.117 2.209.073-.013.146-.033.218-.061l2.14-1.278a25.94 25.94 0 0 0-2.475-.87z" fill="url(#paint17_linear)"/><path d="M178.234 78.536c.202.36 1.682 1.157 1.682 1.157s.235.06.518.012c0-.582-.012-1.577-.117-2.208-.579-.17-1.165-.32-1.764-.437-.202.526-.44 1.254-.319 1.476z" fill="#D4CDBF"/><path opacity=".45" d="M188.017 80.954c.433.239.813.453 1.132.619-1.197 3.244-2.341 9.302-2.746 11.55a11643.99 11643.99 0 0 1-14.235-7.93l2.616-8.437c5.173-.283 10.41 2.63 13.233 4.198zM220.002 81.08c4.141-2.896 8.667-6.67 9.827-7.644 1.525 1.02 8.331 5.59 10.705 7.49 4.04 3.227 7.433 5.48 7.466 5.5l.044.028.049.02c.048.02.105.045.157.065.413.801.72 1.856.34 2.912-.772 2.156-4.715 6.212-8.549 8.744-3.705 2.442-10.766 8.096-20.112 9.835-1.516-.425-2.265-1.209-2.402-1.367-3.288-5.747-10.013-14.854-11.578-16.957 2.022-1.165 9.896-5.715 14.053-8.626zM206.693 101.858c-.66-.582-1.638-.117-3.195.308-4.364-2.237-9.18-4.732-12.658-6.604.056-4.38.408-10.479.55-12.828 5.225 2.81 9.24 5.77 11.691 8.63 3.054 3.563 3.608 4.57 5.666 8.323.008.012.012.024.02.036l-.157 3.878-1.917-1.743z" fill="#94DAEE"/><path d="M293.878 46.351h-2.737v53.759h2.737V46.351zM353.572 48.375h-2.737v53.759h2.737v-53.76z" fill="#5F6464"/><path d="M360.465 22.069h-76.93c-2.5 0-4.535 2.015-4.535 4.492v43.628c0 2.476 2.035 4.492 4.535 4.492h76.93c2.5 0 4.535-2.016 4.535-4.492V26.56c0-2.477-2.035-4.492-4.535-4.492z" fill="#004EBB"/><path d="M360.465 23.423c1.742 0 3.17 1.412 3.17 3.14V70.19c0 1.726-1.426 3.14-3.17 3.14h-76.93c-1.742 0-3.17-1.413-3.17-3.14V26.56c0-1.725 1.426-3.139 3.17-3.139h76.93v.002zm0-1.354h-76.93c-2.5 0-4.535 2.015-4.535 4.492v43.628c0 2.476 2.035 4.492 4.535 4.492h76.93c2.5 0 4.535-2.016 4.535-4.492V26.56c0-2.477-2.035-4.492-4.535-4.492z" fill="#fff"/><g clip-path="url(#clip0)"><path d="M320.404 45.426s-.614-.41-1.415-.634c-.8-.224-1.576-.067-1.924.22-.348.285-.977.747-.92 1.571.057.824.572 1.23 1.048 1.453.477.224 1.187.32 1.858-.033.672-.348.925-1.263.872-1.467-.057-.205-.281-.796-1.019-.81-.739-.015-1.034.205-1.21.352-.181.148-.267.429-.191.858a.391.391 0 0 0 .495.347c.043-.014.282-.128.248-.485-.033-.353-.143-.386-.119-.43.024-.042.019-.118.286-.123.267-.005.491.062.586.253.095.19.176.566-.076.81-.248.242-.529.319-.944.328-.414.014-.981-.205-1.124-.534-.143-.328-.057-.857.129-1.095s.714-.691 1.343-.7c.629-.015 1.077.057 1.396.19.324.138.896.453 1.067.953.176.5.038 1.053-.243 1.381-.281.33-.857.834-1.853.925-.996.095-1.777-.081-2.21-.3-.434-.22-1.206-.696-1.387-1.282-.181-.586-.033-1.286.148-1.639.181-.352.8-1.086 1.229-1.248.429-.162.615-.305 1.51-.305.896 0 1.496.262 1.749.41.247.147.952.714 1.057.843.105.129.034.22.005.248-.067.086-.176.114-.391-.057zM313.058 48.308s-.104.019-.214.067c-.11.047-.305.01-.353-.105-.047-.115.034-.267.229-.405.2-.138.634-.515.986-.505.353.01.519.119.662.229.143.11.229.219.224.304-.004.086-.124.2-.5.3-.376.1-.362.191-.586.177-.214-.01-.224-.086-.448-.062zM313.873 42.753s.3.381.376.586c.077.205.138.462.443.61.305.143.534.11.663.047.128-.061.204-.452.052-.695-.153-.243-.524-.524-.815-.672-.295-.147-.428-.257-.476-.29-.048-.034-.181-.124-.319-.029s-.062.32.076.443zM319.328 41.762s-.019.534 0 .643c.019.11 0 .62-.443.658-.443.038-.462-.367-.415-.763.048-.395.405-1.148.653-1.152.243-.005.209.438.205.614zM322.224 44.592s-.067.033-.133.11c-.067.08-.229.152-.31.047-.081-.105-.024-.3.072-.419.095-.114.557-.853 1.381-.805.824.047.624.352.424.495-.205.143-.715.458-1.034.5-.314.053-.219.01-.4.072zM321.429 48.656s.828.343 1.119.443c.291.1.395-.034.424-.081.024-.048.048-.19-.186-.339-.233-.147-.91-.6-1.029-.671-.114-.072-.486-.177-.652.038-.172.214-.039.462.324.61z" fill="#FDBF01"/><path d="M354.266 53.534H355v-.448h-4.03v.448h.476c.715 0 .719.6.719.6v7.77s-.004.6-.719.6h-.476v.448H355v-.448h-.734c-.667 0-.714-.524-.714-.59v-7.79c0-.066.047-.59.714-.59zM302.649 62.5c-.619 0-.776-.92-.776-.92l-.029-.414s-.214-3.564-.314-5.627c-.1-2.062-.072-3.363-.072-3.363 0-.834.867-.838.867-.838h.843v-.515h-3.263l-4.173 9.428-4.507-9.423h-3.115v.514h.714c1.11 0 1.12 1.02 1.12 1.02v1.477c0 3.463-.248 5.869-.386 7.279-.134 1.358-1.453 1.386-1.548 1.386H288v.448h4.383v-.448s-1.21-.01-1.563-.414c-.352-.405-.352-.61-.352-2.334 0-1.73.143-5.965.143-5.965 0-.152.062-.276.219-.271.109 0 .205.2.205.2l4.135 9.156h.428s4.016-9.48 4.059-9.614c.048-.133.134-.18.234-.166.124.019.128.176.128.176s.081 7.432.081 8.322c.005.891-.8.92-.8.92h-.791v.448h4.836v-.448c-.01-.014-.081-.014-.696-.014zM316.707 50.532c-1.395.43-2.805.887-4.125 1.51-1.153.544-2.592 1.34-2.987 2.645-.238.79.067 1.581.548 2.22.262.347.586.614.872.933.304.343.495.73.533 1.191.072.81-.419 1.468-.938 2.03-.61.667-1.349 1.205-2.096 1.705-.024.015-.048.034-.077.048v-.315h-.733c-.667 0-.715-.524-.715-.59v-7.785c.005-.066.048-.59.715-.59h.733v-.448h-4.03v.448h.476c.715 0 .72.6.72.6v7.77s-.005.6-.72.6h-.476v.448H308.228a37.193 37.193 0 0 1-3.764 2.177c-.181.09-.438.172-.543.362-.133.248.138.338.338.305.096-.019.181-.052.272-.086.248-.1.491-.204.738-.31.924-.4 1.839-.823 2.749-1.262a69.906 69.906 0 0 0 1.701-.853c.576-.3 1.167-.595 1.705-.962.729-.495 1.396-1.143 1.753-1.962.191-.434.305-.925.248-1.396-.024-.224-.119-.424-.224-.62-.2-.38-.457-.69-.752-.995-.529-.543-1.13-1.206-1.344-1.949-.152-.529.153-1.067.457-1.486.501-.69 1.206-1.224 1.93-1.667.824-.5 1.682-.844 2.591-1.149.153-.052.305-.1.458-.147.119-.038.281-.062.39-.124.239-.143-.033-.358-.224-.296z" fill="#fff"/><path d="M330.799 56.444c-.81-2.744-3.611-4.33-6.25-3.549-2.334.691-3.759 3.002-3.502 5.417a5.379 5.379 0 0 0-.671-.576c-.553-.41-1.158-.739-1.734-1.115a15.53 15.53 0 0 1-1.22-.863c-.4-.319-.857-.695-1.038-1.19-.158-.439-.048-.94.119-1.353.338-.83 1.01-1.473 1.758-1.94a6.95 6.95 0 0 1 .79-.419c.058-.023.2-.066.22-.143.033-.128-.148-.095-.215-.066a12.83 12.83 0 0 0-2.253 1.281c-.824.577-1.811 1.353-1.763 2.468.019.514.229 1.048.529 1.462.295.415.705.715 1.124.991.424.281.858.553 1.21.92a7.017 7.017 0 0 1 1.129 1.567c.41.772.515 1.591.353 2.444-.115.61-.381 1.172-.715 1.696-1 1.567-2.444 2.835-3.854 4.03-.238.2-.476.4-.719.596-.229.186-.496.352-.71.557-.062.062-.238.243-.21.338.039.153.439-.043.515-.076.443-.21.857-.538 1.267-.81 1.467-.962 2.954-1.915 4.364-2.963.648-.481 1.329-.962 1.81-1.62.562-.767.739-1.705.71-2.644-.005-.114-.019-.224-.029-.333 1.182 1.934 3.488 2.93 5.689 2.277 2.629-.781 4.111-3.64 3.296-6.384zm-4.206 6.012c-1.882.234-3.659-1.634-3.973-4.173-.315-2.539.952-4.787 2.834-5.02 1.882-.234 3.659 1.633 3.973 4.172.31 2.54-.957 4.788-2.834 5.021zM317.451 51.104c-.586.281-1.206.567-1.715.982-.186.152-.372.347-.591.452-.205.1-.438.067-.657.138-.167.053-.439.229-.505.405-.077.2.057.181.2.076.171-.128.247-.119.1.096-.062.09-.162.157-.215.257-.038.071-.062.295-.128.338-.277.167-.21-.714-.162-.834.138-.352.433-.5.791-.571.223-.048.485-.014.652-.195.11-.12.134-.281.262-.396.257-.228.691-.338 1.005-.467.153-.062.853-.467 1.015-.338.01.029-.009.052-.052.057z" fill="#fff"/><path d="M315.207 52.895c-.391.543-.853 1.206-.71 1.901.067.329.238.629.424.905.119.172 1.143 1.296 1.086 1.367-.128.158-1.596-1.643-1.681-1.834-.191-.414-.205-.9 0-1.3.133-.257.29-.505.466-.734.077-.105.186-.28.305-.348.053-.033.205-.085.11.043z" fill="#fff"/><path d="M314.33 52.152c-.81.353-1.586.948-2.082 1.687-.323.48-.633 1.105-.533 1.705.076.453.41.758.729 1.058.371.348.757.681 1.053 1.096.166.233.181.48.3.724.162.324.114-.162.076-.291-.348-1.2-2.039-1.806-1.858-3.149.091-.667.548-1.234 1.01-1.696.267-.267.562-.505.872-.724.019-.014.619-.352.576-.438-.009-.024-.152.033-.143.028zM314.083 59.503c-.015.7-.072 1.415-.515 1.987a6.417 6.417 0 0 1-1.682 1.524c-.795.5-1.61.996-2.448 1.425-.701.357-1.463.633-2.201.91-.205.076-1.772.61-1.639.88.119.258 1.629-.509 1.767-.576 1.739-.819 3.535-1.643 5.169-2.658.805-.5 1.534-1.057 1.749-2.03.09-.404.1-.828.038-1.238-.01-.081-.015-.267-.072-.333-.09-.096-.162-.058-.166.11zM318.813 61.766c-.257 1.024-.767 1.796-1.505 2.544-.391.4-.834.748-1.22 1.153-.109.114-.248.295-.319.047-.057-.2.095-.557.167-.738.181-.462.576-.843.967-1.134.052-.038.567-.424.633-.343.043.053-.228.276-.266.31-.124.11-.905.624-.667.824.176.148.657-.39.795-.524.334-.31.601-.672.815-1.067a7.43 7.43 0 0 0 .438-1.02c.019-.052.029-.176.086-.204.119-.077.086.11.076.152z" fill="#fff"/><path d="M313.401 54c-.433.568-.748 1.578-.033 2.05.681.452 1.544.714 2.034 1.414.462.667.6 1.372.653 2.177.062.91.024 2.03-.724 2.663-.672.567-1.52.948-1.968 1.748-.424.753-.586 1.863-1.386 2.34-.395.238-.886.343-1.339.4-.262.033-.776.138-1.024-.029-.386-.257.905-1.224 1.091-1.381.224-.19.457-.405.71-.563.133-.08.686-.276.795-.11.129.196-.547.706-.652.782-.21.157-.429.3-.653.439-.062.038-.438.195-.405.333.043.162.724-.072.82-.1.419-.138.686-.338.938-.7.205-.296.462-.958.081-1.234-.248-.181-.653.014-.896.114-.814.338-1.748 1.024-2.129 1.834-.353.758.095 1.391.919 1.377 2.43-.038 2.868-2.877 4.369-4.188.362-.319.786-.552 1.162-.857.362-.295.605-.686.772-1.12.343-.88.143-1.9-.191-2.758-.395-1.02-1.033-1.724-1.967-2.272-.362-.215-.81-.415-1.067-.763-.243-.333-.176-.805-.024-1.167.048-.114.148-.214.191-.328.028-.067.038-.253-.077-.1z" fill="#fff"/><path d="M313.53 56.673c.243.234.51.443.748.682.09.09.472.719.605.652.319-.157-.338-.714-.434-.79-.123-.096-.781-.677-.952-.6-.024.004.043.066.033.056zM314.883 58.46c.3.995.162 1.953-.276 2.877-.22.457-.491.862-.791 1.267-.1.134-.276.41.009.196.753-.563 1.41-1.62 1.53-2.554.061-.471.076-1.015-.058-1.477-.038-.128-.09-.319-.181-.419-.138-.148-.295-.119-.233.11z" fill="#fff"/><path d="M316.712 57.755c.124.124.11.324.11.486-.005.357 0 .714.086 1.067.066.267.662 1.577.824.781.057-.271.062-.71-.072-.957-.081-.158-.1-.158-.166-.053-.072.11.128.724-.115.696-.186-.02-.286-.739-.295-.853-.014-.133-.072-.52.114-.553.148-.024.477.315.567.4.529.51.653 1.249.615 1.958-.077 1.501-1.734 1.81-2.763 2.52-.262.182-.553.386-.663.7-.09.258-.023.54.01.796.081.658.09 1.392-.41 1.887-.414.414-1.005.6-1.577.572a1.282 1.282 0 0 0-.814.224c-.157.104-.358.314-.134.462.143.095.343.019.491-.024.305-.081.605-.19.891-.315.667-.286 1.367-.657 1.724-1.324.305-.567.224-1.234.391-1.839.205-.738.934-1.134 1.596-1.415 1.272-.543 1.896-2.234 1.396-3.51-.215-.544-.634-.916-1.072-1.277-.181-.148-.324-.339-.505-.486-.1-.091-.415-.196-.229.057zM348.793 60.408c-.748-1.748-1.606-2.306-1.606-2.306s1.839-1.11 1.701-2.739c0 0 .124-2.42-2.882-2.42H337.755v.352h.462s1.133-.014 1.191 1.158l.114 2.806s.067 2.02-.224 2.973c-.295.948-.781 1.405-1.153 1.624-1.115.529-2.82.524-3.544-.605 0 0-.567-.567-.567-2.506v-4.597c.005-.114.057-.857.776-.857h.639v-.353h-4.121v.353h.586c.776 0 .776.872.776.872V59.36s.005 3.75 3.469 3.75c3.463 0 4.035-2.326 4.035-4.77v-3.634s.014-.949.247-1.187c.191-.19.41-.228.92-.228h.414c1.301 0 1.244.867 1.291 1.124.048.257.058.629.058.629l.1 6.431c0 1.1-.939 1.086-.939 1.086h-.405v.39h4.15v-.39h-.672c-.843 0-.829-.933-.829-.933l.014-2.84c0-.448.658-.438.658-.438.809 0 1.267.986 1.381 1.22.114.233.457 1.11 1.682 2.577 1.224 1.467 3.463 1.763 3.463 1.763v-.596c-1.591-.281-2.186-1.158-2.934-2.906zm-3.807-2.44s-.448.025-.505-.28c0 0-.114-.4-.114-2.096 0-1.701.081-1.954.081-1.954s.028-.224.757-.242c0 0 2.311-.139 2.311 2.09 0 2.23-1.953 2.483-2.53 2.483zM293.488 36.846l-1.601-6.737h1.63l.509 2.778c.148.8.291 1.667.401 2.348h.019a49.73 49.73 0 0 1 .438-2.367l.572-2.759h1.619l.539 2.84c.147.79.262 1.51.362 2.258h.019c.1-.748.247-1.539.39-2.34l.548-2.758h1.549l-1.739 6.736h-1.649l-.571-2.896a24.334 24.334 0 0 1-.319-2.077h-.02c-.119.757-.228 1.4-.39 2.077l-.639 2.897h-1.667zM305.279 33.997h-2.477v1.6h2.767v1.248h-4.297V30.11h4.159v1.248h-2.629v1.401h2.477v1.239zM306.608 30.11h1.529v5.459h2.677v1.281h-4.206v-6.74zM316.283 36.655c-.281.138-.909.29-1.729.29-2.329 0-3.53-1.447-3.53-3.367 0-2.301 1.639-3.578 3.678-3.578.791 0 1.391.162 1.658.3l-.31 1.21a3.313 3.313 0 0 0-1.281-.248c-1.21 0-2.149.73-2.149 2.23 0 1.348.8 2.2 2.158 2.2.462 0 .972-.1 1.267-.218l.238 1.181zM323.148 33.406c0 2.21-1.338 3.55-3.311 3.55-2 0-3.168-1.51-3.168-3.43 0-2.02 1.291-3.53 3.278-3.53 2.072.004 3.201 1.552 3.201 3.41zm-4.864.09c0 1.32.62 2.25 1.639 2.25 1.029 0 1.62-.982 1.62-2.288 0-1.21-.581-2.248-1.629-2.248-1.029 0-1.63.981-1.63 2.287zM329.846 34.268a80.516 80.516 0 0 1-.061-2.768h-.029c-.21.858-.491 1.82-.748 2.611l-.819 2.63h-1.191l-.72-2.61a31.973 31.973 0 0 1-.61-2.63h-.019c-.042.91-.071 1.948-.119 2.786l-.119 2.559h-1.41l.429-6.737h2.029l.658 2.249c.209.781.419 1.62.571 2.41h.029c.191-.78.419-1.667.638-2.42l.72-2.239h1.986l.372 6.736h-1.491l-.096-2.577zM336.611 33.997h-2.477v1.6h2.768v1.248h-4.297V30.11h4.159v1.248h-2.63v1.401h2.477v1.239zM340.87 31.39h-1.81v-1.28h5.178v1.28h-1.839v5.46h-1.529v-5.46zM350.927 33.406c0 2.21-1.339 3.55-3.311 3.55-2.001 0-3.168-1.51-3.168-3.43 0-2.02 1.291-3.53 3.277-3.53 2.073.004 3.202 1.552 3.202 3.41zm-4.869.09c0 1.32.619 2.25 1.639 2.25 1.029 0 1.62-.982 1.62-2.288 0-1.21-.582-2.248-1.63-2.248-1.029 0-1.629.981-1.629 2.287z" fill="#fff"/></g><defs><linearGradient id="paint0_linear" x1="223.355" y1="90.746" x2="223.355" y2="76.384" gradientUnits="userSpaceOnUse"><stop offset=".003" stop-color="#C2B69C"/><stop offset=".505" stop-color="#E3DFD7"/><stop offset=".797" stop-color="#E6E6E6"/></linearGradient><linearGradient id="paint1_linear" x1="223.002" y1="89.08" x2="228.203" y2="98.088" gradientUnits="userSpaceOnUse"><stop stop-color="#E3DFD7"/><stop offset=".997" stop-color="#C2B69C"/></linearGradient><linearGradient id="paint2_linear" x1="221.664" y1="100.694" x2="241.123" y2="100.694" gradientUnits="userSpaceOnUse"><stop offset=".005" stop-color="#CCC1AB"/><stop offset=".182" stop-color="#D0C6B4"/><stop offset=".488" stop-color="#D3CBBC"/><stop offset=".997" stop-color="#D4CDBF"/></linearGradient><linearGradient id="paint3_linear" x1="205.95" y1="89.86" x2="212.114" y2="89.86" gradientUnits="userSpaceOnUse"><stop stop-color="#E3DFD7"/><stop offset=".997" stop-color="#C2B69C"/></linearGradient><linearGradient id="paint4_linear" x1="211.462" y1="100.614" x2="211.462" y2="91.158" gradientUnits="userSpaceOnUse"><stop offset=".003" stop-color="#C2B69C"/><stop offset="1" stop-color="#E3DFD7"/></linearGradient><linearGradient id="paint5_linear" x1="212.432" y1="102.133" x2="224.778" y2="102.133" gradientUnits="userSpaceOnUse"><stop offset=".003" stop-color="#C2B69C"/><stop offset="1" stop-color="#E3DFD7"/></linearGradient><linearGradient id="paint6_linear" x1="217.37" y1="97.297" x2="248.765" y2="97.297" gradientUnits="userSpaceOnUse"><stop offset=".003" stop-color="#389CC7"/><stop offset="1" stop-color="#2E7EC9"/></linearGradient><linearGradient id="paint7_linear" x1="231.433" y1="92.295" x2="247.019" y2="92.295" gradientUnits="userSpaceOnUse"><stop offset=".003" stop-color="#389CC7"/><stop offset="1" stop-color="#2E7EC9"/></linearGradient><linearGradient id="paint8_linear" x1="232.934" y1="95.71" x2="225.914" y2="100.965" gradientUnits="userSpaceOnUse"><stop stop-color="#2E7EC9"/><stop offset=".997" stop-color="#389CC7"/></linearGradient><linearGradient id="paint9_linear" x1="190.882" y1="88.186" x2="196.713" y2="88.186" gradientUnits="userSpaceOnUse"><stop stop-color="#E3DFD7"/><stop offset=".997" stop-color="#C2B69C"/></linearGradient><linearGradient id="paint10_linear" x1="190.84" y1="92.879" x2="204.138" y2="92.879" gradientUnits="userSpaceOnUse"><stop stop-color="#E3DFD7"/><stop offset=".997" stop-color="#C2B69C"/></linearGradient><linearGradient id="paint11_linear" x1="195.01" y1="93.391" x2="206.047" y2="93.391" gradientUnits="userSpaceOnUse"><stop offset=".203" stop-color="#E6E6E6"/><stop offset=".495" stop-color="#E3DFD7"/><stop offset=".997" stop-color="#C2B69C"/></linearGradient><linearGradient id="paint12_linear" x1="204.293" y1="103.604" x2="204.293" y2="95.097" gradientUnits="userSpaceOnUse"><stop stop-color="#E3DFD7"/><stop offset=".997" stop-color="#C2B69C"/></linearGradient><linearGradient id="paint13_linear" x1="197.114" y1="89.098" x2="201.366" y2="89.098" gradientUnits="userSpaceOnUse"><stop offset=".203" stop-color="#E6E6E6"/><stop offset=".495" stop-color="#E3DFD7"/><stop offset=".997" stop-color="#D4CDBF"/></linearGradient><linearGradient id="paint14_linear" x1="207.086" y1="102.428" x2="208.709" y2="102.428" gradientUnits="userSpaceOnUse"><stop stop-color="#E3DFD7"/><stop offset=".997" stop-color="#C2B69C"/></linearGradient><linearGradient id="paint15_linear" x1="181.543" y1="88.171" x2="188.612" y2="88.171" gradientUnits="userSpaceOnUse"><stop stop-color="#E3DFD7"/><stop offset=".997" stop-color="#C2B69C"/></linearGradient><linearGradient id="paint16_linear" x1="176.739" y1="82.351" x2="189.149" y2="82.351" gradientUnits="userSpaceOnUse"><stop offset=".203" stop-color="#E6E6E6"/><stop offset=".495" stop-color="#E3DFD7"/><stop offset=".997" stop-color="#C2B69C"/></linearGradient><linearGradient id="paint17_linear" x1="180.316" y1="78.599" x2="182.788" y2="78.599" gradientUnits="userSpaceOnUse"><stop offset=".203" stop-color="#E6E6E6"/><stop offset=".495" stop-color="#E3DFD7"/><stop offset=".997" stop-color="#D4CDBF"/></linearGradient><clipPath id="clip0"><path fill="#fff" transform="translate(288 30)" d="M0 0h67v39.05H0z"/></clipPath></defs></svg>