<svg width="375" height="156" fill="none" xmlns="http://www.w3.org/2000/svg" viewBox="0 0 375 156"><path d="M375 0H0v156h375V0z" fill="#F5FCFF"/><mask id="a" maskUnits="userSpaceOnUse" x="0" y="0" width="375" height="156"><path transform="matrix(-1 0 0 1 375 0)" fill="#F5FCFF" d="M0 0h375v156H0z"/></mask><g mask="url(#a)"><path d="M481.001-5.706L374.813.097 176.849 20.841l-36.882 21.902 167.705 97.683 140.778 13.258 32.551-159.39z" fill="#00AD00"/><path d="M437.509-7.297S75.411 4.265 51.072 44.358C21.095 93.745 318.26 226.2 318.26 226.2l250.865-59.442s-397.638-99.299-379.744-129.2C208.081 6.31 578.295-2.295 578.295-2.295L437.509-7.297z" fill="#fff"/><path d="M346.422 206.702S52.672 89.192 79.234 44.358C103.14 4.01 465.671-5.998 465.671-5.998l81.019 1.535S176.252 6.173 157.777 37.553c-19.75 33.549 379.744 144.365 379.744 144.365l-191.099 24.784z" fill="#004EBB"/></g><path d="M141.165 92.852c-1.585.91-1.549 2.325.085 3.146l15.129 9.682 80.111 40.308c1.634.821 4.327.801 6.123.441 6.814-1.383 16.86-4.493 22.215-7.077 1.645-.797 4.027-2.322 5.5-3.405 2.479-1.82 6.62-5.747 8.064-8.72.796-1.646 1.015-3.021-.619-3.846l-98.435-49.537c-1.634-.82-4.267-.752-5.852.158l-32.321 18.85z" fill="#0032A5"/><path d="M143.499 75.43c-.494-2.843 1.5-4.885 1.5-4.885s1.124-3.296 4.089-6.904c2.964-3.603 14.081-9.997 17.236-11.311 3.15-1.315 6.665-1.476 8.392-1.238 1.73.239 9.811 2.787 9.811 2.787s9.787.78 17.911 4.012c8.125 3.23 16.929 8.088 23.452 11.562 3.802 2.022 10.77 7.316 15.926 11.376l.603-.384s-.502-2.374-.388-2.795c.113-.424 1.326-3.397 1.326-3.397s1.48 1.5 1.933 2.742c.453 1.242-.327 3.114-.57 4.024-.138.518-.445 1.132-.679 1.57-.004-.005-.013-.009-.017-.013a370.392 370.392 0 0 1 4.251 3.442c8.974 3.522 20.536 13.499 20.536 13.499 2.208.113 3.733 4.279 5.322 7.118 1.594 2.843 1.509 4.756 1.464 5.589-.048.833 1.06 12.759-8.618 19.46-9.682 6.697-21.232 8.194-26.376 7.846a25.763 25.763 0 0 1-5.852-1.088c-.202-.966-.388-1.872-.429-2.503-.311-5.193-4.933-11.401-9.665-13.577-6.127-2.818-8.982.045-8.667 5.242.033.513.186 1.326.393 2.18l-46.674-23.505c-.206-1.108-.429-2.245-.538-2.932-.768-4.728-4.457-10.054-8.566-12.517-6.567-3.935-8.529-.198-7.825 4.954v.008c-2.329-2.119-6.196-5.666-8.173-7.671-2.953-2.99-2.722-7.276-2.944-8.796-.223-1.521 1.836-3.895 1.836-3.895z" fill="#14AFEB"/><path d="M141.659 79.325c.222 1.52-.008 5.807 2.944 8.796 1.981 2.006 5.844 5.552 8.173 7.671v-.008c-.708-5.152 1.258-8.893 7.825-4.954 4.109 2.463 7.802 7.79 8.566 12.517.113.687.336 1.824.538 2.932l46.674 23.505c-.207-.854-.364-1.667-.393-2.18-.311-5.197 2.544-8.06 8.667-5.241 4.732 2.175 9.354 8.383 9.665 13.576.037.631.227 1.537.429 2.503 1.472.457 3.478.926 5.852 1.088 5.144.348 16.694-1.148 26.376-7.846 8.784-6.078 8.683-16.459 8.626-18.955-.813 4.271-2.968 9.617-8.877 13.682-6.106 4.202-10.87 6.462-20.884 6.867-5.9.234-9.855-1.549-12.072-2.386l-.028-.441c2.216.837 6.123 1.812 12.023 1.577 10.018-.4 14.778-2.665 20.884-6.863 5.949-4.092 8.093-9.479 8.894-13.766.028.15.048.291.068.429.021-.971-.105-2.73-1.48-5.189-.445-.797-.886-1.695-1.334-2.58-1.036 1.759-1.711.893-1.711.893-.053 1.917-.841 4.599-1.331 5.496-.489.898-2.018 4.049-6.288 7.094-4.267 3.045-9.112 4.655-11.882 5.544-2.77.89-5.407.785-5.407.785-3.252 1.634-6.572.227-6.572.227-.772-1.517-4.072-3.341-6.547-4.574-1.343-.672-3.713-2.059-5.86-3.422-1.804-1.144-2.864-1.905-2.864-1.905-5.39-3.457-7.489-6.276-7.489-6.276-4.101-7.146-11.85-17.2-11.85-17.2-5.641-6.968-16.278-11.736-23.407-15.238-5.088-2.5-12.723-2.204-19.133-2.435l-7.595-.396s-7.704-2.059-7.854-6.111c-1.424 2.293-2.006 3.996-2.006 3.996s-1.994 2.046-1.5 4.885c0 0 3.284 6.98 6.608 11.045 0 0-6.079-4.797-8.295-8.263-.133.397-.202.78-.153 1.12zm61.107 23.027c1.99-.453 3.171-1.165 3.927-.493l2.212 2.014s1.157 1.128.34 1.662-3.539.699-5.775.833c-2.237.133-2.411-1.897-2.455-2.224-.049-.332-.235-1.339 1.751-1.792z" fill="#0082C8"/><path d="M173.434 76.409c.416-.07.833-.114 1.249-.138 6.297-.38 12.667 3.607 14.854 4.829 3.515 1.957 10.111 5.504 13.921 9.948 4.658 5.432 3.558 4.99 10.607 17.047 0 0-1.997-1.007-4.929-2.5.036-.02.076-.036.109-.06.817-.534-.34-1.663-.34-1.663l-2.212-2.014c-.756-.667-1.933.041-3.911.49-5.152-2.645-10.834-5.597-14.179-7.445-7.239-4.008-25.797-14.378-25.797-14.378s3.939-3.029 10.628-4.117z" fill="#0082C8"/><path d="M219.719 122.702l2.16-1.282c.837.17 1.759.477 2.774.946 4.732 2.176 9.354 8.384 9.666 13.577.036.63.226 1.536.428 2.503h.008l-3.805 2.265c-1.302.784-3.134.752-5.209-.284-4.287-2.143-7.991-7.752-8.278-12.532-.158-2.601.728-4.421 2.256-5.193z" fill="#192D4B"/><path d="M221.879 121.416l-2.16 1.282c-1.533.773-2.418 2.592-2.261 5.193.029.497.098 1.003.199 1.512l-1.278.38c-.207-.853-.364-1.666-.393-2.179-.262-4.332 1.683-7.041 5.893-6.188z" fill="#004687"/><path d="M217.459 127.891c.287 4.78 3.995 10.393 8.278 12.533 4.287 2.139 7.53 0 7.243-4.78-.287-4.781-3.995-10.394-8.282-12.533-4.283-2.14-7.526 0-7.239 4.78z" fill="#192D4B"/><path d="M217.916 128.343c.267 4.408 3.684 9.585 7.635 11.558 3.955 1.974 6.944.004 6.681-4.408-.267-4.408-3.684-9.584-7.639-11.558-3.952-1.974-6.94 0-6.677 4.408z" fill="#192D4B"/><path d="M219.756 129.359c.198 3.284 2.742 7.134 5.682 8.606 2.94 1.468 5.164 0 4.97-3.28-.198-3.284-2.742-7.134-5.682-8.602-2.944-1.476-5.169-.004-4.97 3.276z" fill="#0082C8"/><path d="M223.881 130.944c.056.959.8 2.079 1.658 2.512.857.428 1.508 0 1.448-.959-.057-.958-.801-2.083-1.659-2.511-.857-.429-1.504 0-1.447.958zM155.623 90.417l1.743-1.04c.922.24 1.998.709 3.236 1.453 4.109 2.463 7.801 7.789 8.565 12.516.113.688.336 1.824.538 2.932l.409.207-3.264 1.941c-1.302.785-3.134.752-5.209-.283-4.287-2.14-7.995-7.753-8.282-12.533-.154-2.6.732-4.416 2.264-5.193z" fill="#192D4B"/><path d="M153.359 95.61c.287 4.78 3.995 10.394 8.282 12.533 4.287 2.139 7.53.004 7.243-4.78-.287-4.78-3.996-10.394-8.282-12.533-4.287-2.14-7.531 0-7.243 4.78z" fill="#192D4B"/><path d="M153.816 96.063c.266 4.408 3.684 9.585 7.635 11.562 3.955 1.974 6.944 0 6.681-4.408-.267-4.408-3.684-9.584-7.64-11.558-3.951-1.978-6.939-.004-6.676 4.404z" fill="#192D4B"/><path d="M155.655 97.078c.199 3.28 2.742 7.134 5.682 8.606 2.945 1.468 5.165 0 4.971-3.28-.198-3.283-2.742-7.133-5.682-8.606-2.945-1.472-5.169-.004-4.971 3.28z" fill="#0082C8"/><path d="M159.752 98.647c.061.975.817 2.12 1.691 2.556.873.437 1.537 0 1.476-.974-.061-.975-.813-2.12-1.691-2.556-.873-.437-1.532 0-1.476.974z" fill="#192D4B"/><path d="M157.366 89.382l-1.743 1.04c-1.532.772-2.418 2.592-2.264 5.188 0 .02.004.045.004.065l-.587.117v-.008c-.574-4.181.615-7.429 4.59-6.402z" fill="#004687"/><path d="M219.723 80.683c4.809-3.364 10.074-7.857 10.074-7.857s8.331 5.544 11.049 7.716c4.068 3.251 7.429 5.476 7.429 5.476.449.178.91.372 1.371.578 3.923 2.972-2.556 9.184-7.555 12.958-4.998 3.769-13.184 8.128-18.049 9.038-.501.093-.97.15-1.415.178-3.854.231-5.496-1.828-5.496-1.828-3.733-6.543-11.898-17.39-11.898-17.39s9.682-5.504 14.49-8.869zM156.21 69.538c1.637-2.48 8.072-7.118 11.436-9.265 2.407-1.537 6.301-4.117 10.972-5.484a22.055 22.055 0 0 1 4.902-.878c.331-.02.667-.032 1.007-.032 0 0 4.812.384 10.486 1.727 0 0-7.809 4.287-11.315 6.762-3.507 2.47-10.272 7.886-11.037 8.642 0 0-1.221 1.504-2.487 1.577-1.266.077-14.013-.586-14.013-.586s-1.589.016.049-2.463z" fill="#0082C8"/><path d="M220.002 81.08c4.141-2.896 8.667-6.67 9.827-7.644 1.525 1.02 8.331 5.59 10.705 7.49 4.04 3.227 7.433 5.48 7.466 5.5l.044.028.049.02c.048.02.105.045.157.065.413.8.72 1.856.34 2.912-.772 2.156-4.715 6.212-8.549 8.743-3.705 2.443-10.766 8.097-20.112 9.836-1.516-.425-2.265-1.209-2.402-1.367-3.288-5.747-10.013-14.854-11.578-16.957 2.022-1.165 9.896-5.715 14.053-8.627zM188.017 80.954c.433.239.813.453 1.132.62-1.197 3.243-2.341 9.3-2.746 11.55a11779.57 11779.57 0 0 1-14.235-7.931l2.616-8.436c5.173-.284 10.41 2.628 13.233 4.197zM173.514 76.89c.106-.016.211-.029.32-.045l-2.601 7.826c-3.409-1.901-6.244-3.486-7.497-4.186 1.346-.861 4.8-2.787 9.778-3.595zM170.141 72.102c.858-.053 1.832-1.028 2.136-1.4l.016-.02.02-.016c.809-.805 7.474-6.414 11.097-8.699 7.118-4.49 9.29-5.387 11.199-6.454-5.047-1.165-9.322-1.57-9.993-1.626-1.169.161-2.686.493-4.68.93-4.861 1.197-8.99 3.923-11.651 5.625l-.38.243c-3.781 2.414-9.783 6.839-11.291 9.12-.821 1.241-.643 1.613-.639 1.625.036.07.174.081.174.081h.032c4.404.235 12.982.651 13.96.59z" fill="#94DAEE"/><path d="M272.661 115.318s-1.585-6.645-1.699-7.369c-.113-.724 1.084-5.023-2.03-8.42 2.006.239 3.446 3.814 4.902 6.56.101 2.05.153 6.64-1.173 9.229zM253.492 128.469s-1.844-1.783-3.462-3.008c-1.614-1.226-2.665-1.602-4.748-1.626-2.079-.02-5.306.073-6.891-.247-1.585-.319-2.871-.562-3.883-.695-1.011-.138-1.844-.158-1.164.974.679 1.132 1.52 3.547 4.008 4.238 2.487.692 3.829.789 6.939.813 3.11.029 9.201-.449 9.201-.449z" fill="#E1E8EC"/><path d="M258.466 127.689c.433-.025.866-.13 1.29-.308l.348-.145c1.945-.821 4.36-1.844 6.519-3.664 1.848-1.561 3.078-2.77 3.757-3.701.599-.821.846-1.686.748-2.649-.093-.905-.392-3.676-.566-5.249-.72 1.108-1.998 2.981-3.377 4.538-1.168 1.318-3.631 3.716-7.02 4.994-.235.089-.469.182-.704.279-.23.093-.461.186-.691.271a79.81 79.81 0 0 1-6.758 2.196l4.493 2.993c-.004.004.801.514 1.961.445zM243.608 136.343c1.354-.166 4.853-.502 6.527-.797.275-.048.546-.141.651.623.109.764-.954.922-.954.922-1.468.218-2.839.392-3.725.437 0 0-2.649.19-2.896.202-.307.012-.534-.162-.534-.162-.125-.485.081-1.12.931-1.225zM258.721 133.641l.335.829s.32.465 1.266-.004c.943-.469 4.813-2.552 7.053-4.226 1.662-1.242 3.175-2.883 3.458-3.239.283-.356.546-1.262.558-1.59.012-.327.202-.958-.526-.113s-3.324 3.053-5.059 4.206c-1.735 1.153-6.082 3.341-6.822 3.624.004.004-.405.161-.263.513z" fill="#006399"/><path d="M144.878 70.682s-.474 1.08.477 2.172c.95 1.092 3.065 2.968 3.065 2.968s.534.21-.445 1.4c-.978 1.189-1.1 1.197-1.1 1.197s-.145.17-.38.182c-.178.012-.404-.07-.655-.385-.582-.727-1.767-1.852-2.337-2.79-.425-2.406.946-4.242 1.375-4.744z" fill="#0082C8"/><path d="M206.693 101.858c-.66-.582-1.638-.117-3.195.308-4.364-2.237-9.18-4.732-12.658-6.605.056-4.38.408-10.478.55-12.828 5.225 2.811 9.24 5.771 11.691 8.63 3.054 3.564 3.608 4.57 5.666 8.323.008.013.012.025.02.037l-.157 3.878-1.917-1.743z" fill="#94DAEE"/><path d="M216.783 99.89l4.837 2.066c.178-1.185.655-2.916.117-6.026-.53-3.057-2.075-5.184-2.075-5.184s.061-2.528-1.007-5.529a5.364 5.364 0 0 0-1.5-2.244c-.845.542-1.739 1.1-2.641 1.654l2.269 15.262z" fill="#D4CDBF"/><path d="M229.522 85.124s.271-2.337-.796-5.334c-.607-1.703-1.634-2.766-2.496-3.405-1.832 1.46-4.08 3.195-6.224 4.7a82.333 82.333 0 0 1-2.843 1.888 5.376 5.376 0 0 1 1.501 2.244c1.067 3.001 1.007 5.529 1.007 5.529l9.851-5.622z" fill="url(#paint0_linear)"/><path d="M221.737 95.934c-.53-3.057-2.075-5.184-2.075-5.184l9.856-5.622s1.25 1.901 2.087 4.57c.534 1.699.736 4.821.558 6.002l-10.543 6.26c.178-1.185.659-2.92.117-6.026z" fill="url(#paint1_linear)"/><path d="M241.125 97.439c-2.285-.93-5.225-1.86-6.334-2.083-1.945-.392-2.64.328-2.64.328l-10.487 6.224c.218 1.132 2.447 2.891 4.703 4.238 6.164-2.439 10.879-6.111 13.674-7.955.364-.234.724-.49 1.084-.752z" fill="url(#paint2_linear)"/><path d="M208.513 93.196l3.575-2.038s.23-2.006-.684-4.578l-.024-.057c-2.415 1.44-4.522 2.653-5.431 3.18.469.626 1.403 1.888 2.564 3.493z" fill="url(#paint3_linear)"/><path d="M212.087 91.158l-3.575 2.038a276.644 276.644 0 0 1 5.197 7.417l.647-.384c.15-1.015-.02-3.692-.477-5.148-.72-2.289-1.792-3.923-1.792-3.923z" fill="url(#paint4_linear)"/><path d="M217.405 106.445c3.406-2.063 7.268-4.542 7.369-5.027.174-.829-7.045-3.139-8.901-3.494-1.857-.352-2.52.295-2.52.295l-.922.518c1.828 2.652 3.656 5.427 4.974 7.708z" fill="url(#paint5_linear)"/><path d="M230.04 90.034s2.794.736 4.546 2.147c1.751 1.412 4.064 4.117 4.064 4.117l-1.687 2.633s-5.896-2.888-7.522-3.761c-1.625-.874-3.029-3.547-3.029-3.547l3.628-1.59z" fill="#014B89"/><path d="M228.054 90.875s.922 1.553.854 2.014c-.069.461.299 1.343.299 1.343s2.831 2.155 3.619 3.267c.789 1.117 1.549 2.851 1.335 2.868-.214.016-3.223 1.229-3.223 1.229s-2.645-2.81-4.21-3.595c-1.565-.78-3.919-2.273-4.489-4.877l5.815-2.249z" fill="#1A64A3"/><path d="M238.075 84.93s.017.004.041.004c.186.028.954.138 1.298.219.392.093.619-.029 1.116.545.498.579.473.967.453 1.355-.024.389-.153.967-.279 1.1-.125.134-.178.267-.36.235-.182-.032-.263-.126-.251-.113.009.012-.242-.004-.226-.267.016-.26.158-.825.158-.825l-.146-.465s-.36-.247-.465-.215c-.105.033-1.108.081-1.108.081s-1.403.101-1.933-.036c-.534-.138-5.071-1.274-5.492-1.553-.417-.283-1.998-2.314-2.661-2.977-.663-.663-.902-2.887-1.286-3.005-.38-.113-1.262-.056-1.262-.056l-.667-1.343s1.86-1.868 3.037-.914c1.177.95 1.569 1.52 1.763 1.776.194.254 2.18 3.805 2.73 4.21.554.404 4.149 1.981 4.715 1.973.405 0 .825.271.825.271z" fill="#F2A983"/><path d="M227.933 80.826s1.933 2.3 2.519 2.685c.583.384 1.351-.51 1.206 0-.146.51.036 1.023.238 1.132.202.11 4.505 1.19 4.801 1.278.295.09 1.399-.667 1.961-.327a.924.924 0 0 1 .425.946c-.328.024-.773.045-.773.045s-1.403.1-1.933-.037c-.534-.137-5.071-1.274-5.492-1.553-.416-.283-1.998-2.313-2.661-2.976-.194-.194-.352-.522-.489-.89l.198-.303z" fill="#D88F69"/><path d="M226.295 76.43s1.189-.474 2.063.29c.873.769 2.527 3.212 2.527 3.212s-1.698 2.636-2.98 2.98c-1.286.344-1.61-6.483-1.61-6.483z" fill="#F6C100"/><path d="M227.136 79.681c.226-.465 1.476-.388 1.808.567.198.578.441 1.104.602 1.427-.521.574-1.116 1.1-1.642 1.242-.538.141-.958-.955-1.274-2.281.235-.45.433-.813.506-.955z" fill="#DDA800"/><path d="M223.577 80.652c1.788.328 3.013.243 3.264-.732.251-.975-.813-3.021-.813-3.021l-.32-.101a142.39 142.39 0 0 1-3.494 2.685c.178.514.562 1.023 1.363 1.169z" fill="#D88F69"/><path d="M227.832 86.204c-.028-.368-.235-2.086-.235-2.086.332-.445.874-1.679.773-3.709-.101-2.03-1.395-3.822-1.395-3.822s-.478-.097-.866-.109c-.137.11-.283.223-.424.336.012.012.016.024.028.036.566.643.942 2.41-.17 3-.991.527-1.864-.064-2.402-.606l-.263-.263c-.95.716-1.921 1.428-2.875 2.095-.437.308-.914.631-1.424.967.17 2.09 2.285 5.637 2.718 6.35.501.824 1.181 5.378 1.181 5.378.675-.57 3.312-.947 5.5-1.61 2.192-.663 2.394-2.171 2.394-2.171s-.538-.292-.87-.62c-.327-.323-1.638-2.798-1.67-3.166z" fill="#F6C100"/><path d="M226.283 77.918c.74-.182.522-.813.526-1.278.004-.239.036-.51.068-.777-.764.615-1.621 1.294-2.531 1.998.695.166 1.435.182 1.937.057z" fill="#F2A983"/><path d="M226.643 77.744c.299-.271.166-.74.17-1.104.004-.239.036-.51.068-.777-.016.012-.028.025-.044.037.028.15.032.34-.182.36-.235.02-.093.428-.101.691 0 .142.028.49.089.793z" fill="#D88F69"/><path d="M221.911 84.287c-.105 1.096-.036 1.678.453 2.596.485.918.421 1.796 1.266 2.285.845.49 1.589-.028 2.447 0 .857.024.788-.012.695.566-.093.575-.044.922.672.716.719-.21 1.73-.546 1.532-.069-.157.385-2.099 1.517-2.721 2.253-.579.141-1.145.271-1.659.396a55.069 55.069 0 0 1-2.313-.469c-.238-1.411-.651-3.607-.982-4.157-.462-.76-2.662-4.004-2.544-6.006l2.374-.279c0-.008.885 1.072.78 2.168z" fill="#DDA800"/><path d="M234.194 94.337c.457 0 1.002-.142 1.609-.437 2.095-1.023 4.125-3.526 4.53-5.593.287-1.468-.32-2.317-1.452-2.317-.457 0-1.003.141-1.61.437-2.095 1.023-4.125 3.526-4.529 5.593-.287 1.468.323 2.317 1.452 2.317zm-.53-2.144c.339-1.718 2.111-3.894 3.874-4.755.453-.223.87-.336 1.201-.336.259 0 .445.069.558.206.174.21.215.627.118 1.137-.34 1.718-2.112 3.894-3.875 4.756-.453.222-.869.34-1.201.34-.259 0-.445-.07-.558-.207-.174-.214-.218-.63-.117-1.14z" fill="#39464A"/><path d="M248.591 89.451c.376-1.043.076-2.086-.328-2.883-3.005-.032-9.443 4.497-15.768 8.266-6.127 3.652-12.517 8.954-15.125 11.55.052.093.109.186.157.275.138.158.886.943 2.403 1.367 9.346-1.739 16.407-7.388 20.111-9.835 3.834-2.528 7.777-6.584 8.55-8.74z" fill="url(#paint6_linear)"/><path d="M247.017 91.947c-.339-2.014-1.751-3.818-1.751-3.818s-3.102-2.297-8.088 0c-4.987 2.297-5.747 7.239-5.747 7.239v.097c2.944 1.395 6.499 2.337 9.775 1.909 2.232-1.634 4.388-3.668 5.811-5.427z" fill="url(#paint7_linear)"/><path d="M224.475 100.124s-.461-2.867 2.819-4.626c3.28-1.76 5.88-.441 5.88-.441s4.141 2.835-.91 5.565c-5.047 2.729-7.789-.498-7.789-.498z" fill="url(#paint8_linear)"/><path d="M221.798 93.075c.251.275 1.108.955 1.278 1.408.17.453.384 1.14.307 1.605-.077.47-.04 1.076-.287 1.145-.247.069-.364.02-.364.02s-.02.32-.34.307c-.315-.012-.275-.141-.275-.141s-.258.198-.4.154c-.142-.045-.202-.542-.202-.542s-.227-1.17-.271-1.27c-.041-.101-.251-.66-.259-.465-.008.19.202.926.247 1.172.044.247.214.66.068.692-.145.028-.481-.376-.582-.724-.101-.348-.51-1.144-.518-1.383-.008-.234.126-1.217-.052-1.468-.178-.25-2.022-1.97-2.499-3.03-.478-1.063-.486-1.083-.567-1.564-.068-.417.146-.959.146-.959s.243-2.855.639-3.623c.396-.769.619-1.258.639-1.493.02-.234.206-1.168.942-1.261.736-.093 2.156 1.189 2.196 1.698.041.51-.57 1.064-.833 1.666-.263.603-.857 4.049-.857 4.049s1.387 3.506 1.844 4.007z" fill="#F2A983"/><path d="M223.096 97.233c-.246.068-.364.02-.364.02s-.02.32-.339.307c-.316-.012-.275-.141-.275-.141s-.259.198-.401.153c-.141-.044-.202-.541-.202-.541s-.166-.854-.243-1.165c.061-.194.579-.037.579-.037s.109-.1.348-.206c.238-.105.546-.04.546-.04s.137-.04.497-.166a.458.458 0 0 1 .101-.024c.049.25.073.493.04.7-.076.46-.04 1.07-.287 1.14zM220.467 95.805c.259 0 .502.028.619.04.057.24.122.49.146.615.044.247.214.66.069.692-.146.028-.482-.376-.583-.724-.044-.15-.149-.384-.251-.623z" fill="#D88F69"/><path d="M221.778 81.89c-.207-.688-.615-1.088-1.048-1.323-.242.174-.485.348-.724.514-.614.428-1.314.897-2.058 1.383-.231 1.051-.174 2.022-.174 2.022 1.646-.38 3.349.643 3.349.643s1.079-1.828.655-3.24z" fill="#F6C100"/><path d="M196.352 85.69a63.015 63.015 0 0 0-4.897-2.92l-.069.04c-.125 2.055-.396 6.758-.505 10.79l5.779-3.43c.129-.877.02-2.98-.308-4.48z" fill="url(#paint9_linear)"/><path d="M204.137 92.614c-.316-.38-.663-.793-1.052-1.246-.877-1.023-1.953-2.054-3.215-3.09-.821-.259-1.52-.453-1.933-.538-1.67-.335-2.265.284-2.265.284l-4.699 2.79a189.17 189.17 0 0 0-.137 4.756c1.423.768 3.077 1.638 4.828 2.556 1.877-1.116 6.059-3.773 8.473-5.512z" fill="url(#paint10_linear)"/><path d="M199.814 98.651s.053-2.171-.861-4.743c-1.024-2.876-3.939-3.13-3.939-3.13l1.124 7.582c1.565.817 3.203 1.666 4.824 2.499-.537-1.362-1.148-2.208-1.148-2.208z" fill="#D4CDBF"/><path d="M206.046 95.097c-.724-1.048-1.589-2.132-2.96-3.733-.918-1.068-2.051-2.152-3.385-3.236l-4.687 2.65s2.915.25 3.939 3.13c.914 2.572.861 4.743.861 4.743l6.232-3.554z" fill="url(#paint11_linear)"/><path d="M206.693 101.859l1.917 1.747.158-3.879a.138.138 0 0 0-.021-.036c-1.136-2.07-1.815-3.304-2.705-4.594l-6.232 3.555s.611.845 1.144 2.208l2.54 1.306c1.561-.425 2.54-.89 3.199-.307z" fill="url(#paint12_linear)"/><path d="M198.419 88.371c.259.303.287 1.925.283 2.738.073-.012.145-.032.218-.06l2.443-1.46a34.057 34.057 0 0 0-3.009-2.492c-.611.368-1.096.66-1.246.748.441-.076 1.003.162 1.311.526z" fill="url(#paint13_linear)"/><path d="M197.113 87.841c.436-.068.995.166 1.306.53.259.304.287 1.925.283 2.738a1.366 1.366 0 0 1-.518-.012s-1.48-.797-1.682-1.156c-.202-.36.562-2.067.562-2.067s.02-.016.049-.032z" fill="#D4CDBF"/><path d="M208.707 101.252l-1.622.962 1.529 1.392.093-2.354z" fill="url(#paint14_linear)"/><path d="M180.681 82.508c-1.024-2.876-3.939-3.13-3.939-3.13l1.35 9.119c1.776.99 3.531 1.97 5.165 2.875-.502-2.446-1.715-4.12-1.715-4.12s.053-2.172-.861-4.744z" fill="#D4CDBF"/><path d="M188.611 83.22l-7.069 4.031s1.209 1.679 1.715 4.121l3.146 1.751c.344-1.908 1.217-6.555 2.208-9.904z" fill="url(#paint15_linear)"/><path d="M188.611 83.22c.178-.595.356-1.157.538-1.647-.319-.165-.7-.376-1.132-.618-1.828-1.02-4.679-2.597-7.866-3.507l-3.413 1.93s2.915.25 3.939 3.13c.914 2.572.861 4.743.861 4.743l7.073-4.032z" fill="url(#paint16_linear)"/><path d="M180.317 77.497c.105.63.117 1.63.117 2.208.073-.012.146-.033.218-.061l2.14-1.278a25.885 25.885 0 0 0-2.475-.87z" fill="url(#paint17_linear)"/><path d="M178.234 78.536c.202.36 1.682 1.157 1.682 1.157s.235.06.518.012c0-.582-.012-1.577-.117-2.208-.579-.17-1.165-.32-1.764-.437-.202.526-.44 1.254-.319 1.476z" fill="#D4CDBF"/><path opacity=".45" d="M188.017 80.954c.433.239.813.453 1.132.62-1.197 3.243-2.341 9.3-2.746 11.55a11779.57 11779.57 0 0 1-14.235-7.931l2.616-8.436c5.173-.284 10.41 2.628 13.233 4.197zM220.002 81.08c4.141-2.896 8.667-6.67 9.827-7.644 1.525 1.02 8.331 5.59 10.705 7.49 4.04 3.227 7.433 5.48 7.466 5.5l.044.028.049.02c.048.02.105.045.157.065.413.8.72 1.856.34 2.912-.772 2.156-4.715 6.212-8.549 8.743-3.705 2.443-10.766 8.097-20.112 9.836-1.516-.425-2.265-1.209-2.402-1.367-3.288-5.747-10.013-14.854-11.578-16.957 2.022-1.165 9.896-5.715 14.053-8.627zM206.693 101.858c-.66-.582-1.638-.117-3.195.308-4.364-2.237-9.18-4.732-12.658-6.605.056-4.38.408-10.478.55-12.828 5.225 2.811 9.24 5.771 11.691 8.63 3.054 3.564 3.608 4.57 5.666 8.323.008.013.012.025.02.037l-.157 3.878-1.917-1.743z" fill="#94DAEE"/><path d="M293.878 46.352h-2.737v53.759h2.737v-53.76zM353.572 48.375h-2.737v53.759h2.737V48.375z" fill="#5F6464"/><path d="M360.465 22.07h-76.93c-2.5 0-4.535 2.015-4.535 4.491V70.19c0 2.477 2.035 4.492 4.535 4.492h76.93c2.5 0 4.535-2.015 4.535-4.492V26.561c0-2.476-2.035-4.492-4.535-4.492z" fill="#004EBB"/><path d="M360.465 23.423c1.742 0 3.17 1.413 3.17 3.14V70.19c0 1.726-1.426 3.14-3.17 3.14h-76.93c-1.742 0-3.17-1.412-3.17-3.14V26.562c0-1.725 1.426-3.14 3.17-3.14h76.93v.002zm0-1.354h-76.93c-2.5 0-4.535 2.016-4.535 4.492V70.19c0 2.477 2.035 4.492 4.535 4.492h76.93c2.5 0 4.535-2.015 4.535-4.492V26.561c0-2.476-2.035-4.492-4.535-4.492z" fill="#fff"/><g clip-path="url(#clip0)"><path d="M293.627 35.013l-1.64-6.9h1.669l.522 2.845c.152.82.298 1.708.41 2.406h.02c.112-.747.278-1.577.449-2.426l.586-2.826h1.659l.551 2.909c.152.81.269 1.547.371 2.313h.02c.102-.766.258-1.576.4-2.396l.561-2.826h1.586l-1.781 6.901h-1.689l-.585-2.967a25.003 25.003 0 0 1-.327-2.128h-.015a26.668 26.668 0 0 1-.4 2.128l-.654 2.967h-1.713zM305.711 32.095h-2.538v1.64h2.835v1.278h-4.402v-6.9h4.261v1.278h-2.694v1.435h2.538v1.269zM307.072 28.112h1.567v5.593h2.743v1.313h-4.31v-6.906zM316.984 34.818c-.288.141-.932.297-1.772.297-2.386 0-3.616-1.483-3.616-3.45 0-2.357 1.679-3.665 3.768-3.665.81 0 1.425.166 1.698.308l-.317 1.24a3.398 3.398 0 0 0-1.313-.255c-1.239 0-2.201.747-2.201 2.284 0 1.381.82 2.255 2.211 2.255.468 0 .995-.102 1.298-.224l.244 1.21zM324.017 31.49c0 2.264-1.372 3.635-3.392 3.635-2.05 0-3.246-1.547-3.246-3.514 0-2.064 1.323-3.611 3.363-3.611 2.118 0 3.275 1.586 3.275 3.49zm-4.988.092c0 1.352.634 2.304 1.679 2.304 1.054 0 1.659-1.006 1.659-2.343 0-1.24-.595-2.303-1.669-2.303-1.054 0-1.669 1.005-1.669 2.342zM330.878 32.373a81.622 81.622 0 0 1-.063-2.836h-.029a39.124 39.124 0 0 1-.767 2.675l-.839 2.694h-1.22l-.737-2.675a32.509 32.509 0 0 1-.625-2.694h-.019c-.044.933-.073 1.996-.127 2.855l-.122 2.621h-1.445l.439-6.9h2.079l.674 2.303c.215.8.429 1.66.586 2.47h.029c.195-.801.429-1.709.654-2.48l.737-2.294h2.035l.381 6.901h-1.528l-.093-2.64zM337.808 32.095h-2.538v1.64h2.836v1.278h-4.402v-6.9h4.26v1.278h-2.694v1.435h2.538v1.269zM342.171 29.425h-1.854v-1.313h5.305v1.313h-1.884v5.593h-1.567v-5.593zM352.469 31.49c0 2.264-1.372 3.635-3.392 3.635-2.05 0-3.246-1.547-3.246-3.514 0-2.069 1.323-3.616 3.358-3.616 2.123.005 3.28 1.591 3.28 3.494zm-4.988.092c0 1.352.634 2.304 1.679 2.304 1.054 0 1.659-1.006 1.659-2.343 0-1.24-.595-2.303-1.669-2.303-1.054 0-1.669 1.005-1.669 2.342z" fill="#fff"/><path d="M343.757 41.347h-29.545s.161 1.874.722 2.44c.562.562.152 1.943-.049 2.43l.869 1.484-.102 1.279-1.689-.151s-1.254-1.279-3.45-.893c0 0-.459.048-1.738-.46-1.278-.512-4.319-1.761-4.319-1.761l-.561 1.996.434.718-.151.893.025 1.098.561.639.82 2.172s-.025.844.717 2.479l.024 2.377.615 4.807s.923 1.61 1.177 1.893c0 0 1.688.078 4.958-.356l.664 2.07-.41 1.688.82 1.405.688-.332 8.589.127 1.762-1.049 1.122.356 2.196-.727.435-.585 2.479.434 2.606-1.074 11.073-1.176s-1.073-24.22-1.342-24.22z" fill="#000B9E"/><path d="M342.069 40.196h-29.546s.162 1.874.723 2.44c.561.561.151 1.942-.049 2.43l.864 1.48-.103 1.278-1.688-.152s-1.255-1.278-3.451-.893c0 0-.458.05-1.737-.458-1.279-.513-4.319-1.762-4.319-1.762l-.561 1.986.434.718-.151.893.024 1.098.561.639.82 2.172s-.024.844.718 2.479l.024 2.377.615 4.807s.922 1.61 1.176 1.893c0 0 1.689.078 4.958-.356l.664 2.07-.41 1.688.82 1.405.688-.332 8.59.127 1.761-1.049 1.123.356 2.196-.717.434-.586 2.48.435 2.606-1.074 11.068-1.176c.01 0-1.064-24.216-1.332-24.216z" fill="#018A76"/><path d="M343.67 51.845c-.244 0-.489.01-.733.01-.229 0-.468-.005-.693-.058a2.436 2.436 0 0 1-.336-.108c-.103-.039-.21-.073-.308-.127a.588.588 0 0 1-.288-.341.628.628 0 0 1 .039-.469c.039-.083.064-.166.098-.249a.33.33 0 0 1 .093-.136.356.356 0 0 1 .156-.059c.102-.02.205-.024.307-.039l.708-.088c.478-.058.961-.102 1.445-.132.244-.014.488-.024.736-.029l.357-.015c.092-.004.19 0 .278-.039a.471.471 0 0 0 .195-.17c.068-.088.137-.171.21-.25.142-.16.293-.312.444-.463.312-.293.644-.566.986-.82.156-.112.302-.249.507-.234a.468.468 0 0 1 .406.307c.068.21-.059.376-.162.547-.131.205-.258.415-.39.62-.029.044-.059.088-.083.132-.019.039-.024.083-.039.122 1.235-.074 2.469-.127 3.709-.186.63-.03 1.254-.063 1.884-.083.625-.02 1.249-.01 1.874-.01h.219a.987.987 0 0 0 .21-.039.41.41 0 0 1 .327.069.433.433 0 0 1 .186.283c.014.117-.034.234-.083.341-.093.225-.234.43-.42.586a.81.81 0 0 1-.322.166c-.127.03-.264.039-.395.039-.318.005-.63-.005-.947-.015-.308-.005-.62-.005-.927-.005-.625 0-1.255.01-1.879.035a56.23 56.23 0 0 0-3.743.268c-.313.034-.63.063-.942.093-.122.01-.244.02-.357.068-.117.049-.2.142-.288.234-.414.464-.834.918-1.254 1.377-.419.458-.834.912-1.239 1.38-.401.464-.791.938-1.186 1.406-.049.059-.098.112-.142.171l-.058.078c-.01.015-.03.034-.035.049-.014.01-.014.02 0 .03.005.009.015.019.02.024.01.004.073-.03.088-.035.034-.014.068-.034.102-.048.069-.04.142-.074.21-.113.278-.146.552-.297.83-.444l1.654-.893c.552-.298 1.103-.59 1.65-.893.268-.146.542-.298.81-.449.127-.068.249-.137.351-.24.088-.087.156-.19.244-.282a2.04 2.04 0 0 1 1.167-.615c.214-.034.454-.054.663.02.191.068.342.21.425.39.093.21.073.444.073.668a125.125 125.125 0 0 1 3.426-.824c.108-.025.215-.054.322-.064.127-.01.264.01.342.117.088.117.093.283.088.425-.01.22-.059.44-.142.644a3.516 3.516 0 0 1-.356.635c-.151.22-.317.424-.444.654.205-.103.405-.22.62-.308.219-.088.439-.18.658-.268.22-.088.445-.171.664-.25.186-.063.356-.121.557-.097.341.044.697.278.805.615a.826.826 0 0 1-.044.59 9.183 9.183 0 0 1-.303.63c-.219.425-.463.84-.698 1.254-.239.42-.473.84-.717 1.255-.488.834-1.01 1.65-1.537 2.464-.259.395-.518.796-.781 1.191-.059.083-.107.176-.181.249a.588.588 0 0 1-.21.137.95.95 0 0 1-.239.058c-.073.01-.161.024-.229 0-.132-.044-.239-.19-.307-.307-.093-.161-.093-.342-.074-.523.044-.449.269-.844.479-1.234l.351-.635c.112-.205.215-.42.327-.624.234-.43.493-.845.747-1.26a64.17 64.17 0 0 1 1.166-1.864c.063-.102.132-.2.195-.302.054-.088.137-.18.152-.283a.25.25 0 0 0-.123-.244c-.082-.044-.17 0-.248.039-.2.102-.401.21-.596.317a18.3 18.3 0 0 0-1.137.693 22.744 22.744 0 0 0-2.152 1.654c-.742.63-1.474 1.274-2.206 1.913a5.517 5.517 0 0 0-.478.483c-.122.147-.249.303-.43.376-.161.069-.361.064-.498-.048-.151-.122-.204-.342-.195-.532.01-.2.098-.39.195-.562.108-.19.23-.38.347-.566.244-.38.503-.751.781-1.108.288-.366.595-.712.912-1.059.323-.356.65-.707.981-1.049.327-.342.669-.659 1.025-.971l.259-.23c.078-.073.176-.136.239-.224.137-.19-.146-.234-.278-.244-.234-.02-.474.024-.708.054-.117.014-.234.034-.351.049-.108.014-.22.014-.317.053-.186.069-.283.254-.391.405-.136.2-.273.4-.41.596-.268.39-.541.78-.829 1.156-.264.342-.547.669-.85.986-.6.63-1.264 1.21-1.966 1.733a7.61 7.61 0 0 1-1.098.693 6.754 6.754 0 0 1-.606.263c-.2.078-.41.147-.624.171-.352.039-.747-.049-1.015-.293-.269-.244-.386-.63-.42-.98a1.515 1.515 0 0 1 .176-.874c.024-.04.053-.078.073-.122.014-.04.019-.083.029-.122-.19.107-.376.214-.566.317-.195.107-.4.2-.6.298-.415.205-.835.405-1.25.6-.175.083-.346.18-.546.18a.695.695 0 0 1-.439-.141c-.254-.21-.259-.644-.083-.903.507-.737 1.01-1.489 1.566-2.191a29.539 29.539 0 0 1 1.757-1.977c.308-.317.615-.634.927-.951.152-.152.298-.313.459-.454.161-.142.327-.274.488-.415.039-.034.073-.069.107-.108.015-.019.03-.034.049-.053.025.014.01.01-.009-.02zm4.948 2.348c.005-.147-.034-.327-.219-.283-.108.024-.205.088-.303.141-.117.064-.229.127-.347.19-.463.264-.912.562-1.337.879a16.795 16.795 0 0 0-2.318 2.123c-.346.385-.693.79-.981 1.22-.107.161-.2.4-.024.551.175.157.449.05.61-.073.903-.663 1.806-1.327 2.64-2.079a19.372 19.372 0 0 0 1.694-1.727c.087-.103.18-.205.263-.313a2.2 2.2 0 0 0 .229-.302.518.518 0 0 0 .093-.327zM295.086 54.608c.849-.752 1.694-1.503 2.548-2.25a77.445 77.445 0 0 1 3.226-2.709c.107-.083.209-.17.317-.253.102-.083.205-.186.322-.254.176-.108.424-.098.571.063.146.161.117.41.01.581-.147.234-.313.459-.464.688a72.01 72.01 0 0 0-.464.703c-.307.464-.619.927-.917 1.396-.605.946-1.157 1.927-1.723 2.899-.054.097-.127.185-.112.302.058-.049.117-.088.171-.146.058-.059.112-.117.171-.176.112-.117.229-.234.341-.346.23-.23.459-.46.693-.689.469-.453.947-.898 1.435-1.332.493-.43.996-.85 1.518-1.244.532-.4 1.073-.786 1.615-1.167.542-.38 1.079-.77 1.635-1.127.142-.088.278-.18.42-.268a.675.675 0 0 1 .366-.127c.249 0 .458.2.517.434.059.249-.068.478-.268.62-.274.195-.547.38-.82.57-.552.396-1.079.82-1.606 1.24-.537.425-1.064.854-1.586 1.294-.522.434-1.035.878-1.552 1.317-.512.435-1.03.864-1.532 1.308-.498.44-.986.888-1.469 1.347-.469.444-.932.893-1.357 1.381-.42.474-.81.972-1.176 1.484-.186.259-.366.517-.542.78-.19.274-.39.538-.59.801-.093.117-.176.24-.293.327a.95.95 0 0 1-.337.166 1.054 1.054 0 0 1-.712-.063c-.435-.22-.469-.776-.308-1.186a2.13 2.13 0 0 1 .229-.405c.098-.137.196-.274.288-.41l.586-.82c.395-.547.786-1.098 1.162-1.66a67.41 67.41 0 0 0 1.093-1.708c.361-.575.712-1.156 1.073-1.737.181-.288.357-.576.527-.869l.132-.22c.02-.034.044-.068.064-.102.005-.01.034-.044.029-.053 0-.005-.015-.015-.02-.02-.009-.01-.014-.015-.024-.01-.024.005-.063.049-.083.064a6.83 6.83 0 0 1-.088.073c-.063.058-.122.122-.185.18-.493.489-.986.972-1.479 1.46-.493.483-.981.966-1.474 1.454-.493.483-.986.971-1.479 1.454-.492.488-.99.976-1.483 1.46-.488.483-.981.96-1.464 1.444-.234.234-.469.474-.708.703-.107.102-.21.2-.361.239a.682.682 0 0 1-.2.024c-.054 0-.137.005-.186-.02-.107-.048-.117-.204-.112-.302.01-.141.049-.278.108-.405.058-.132.141-.258.224-.376l.293-.424c.39-.571.781-1.137 1.171-1.708.391-.571.781-1.147 1.176-1.718.391-.566.776-1.137 1.167-1.703.39-.566.785-1.133 1.176-1.704.385-.566.771-1.132 1.152-1.703l1.156-1.713c.386-.566.771-1.132 1.162-1.698.078-.112.146-.23.263-.308a.618.618 0 0 1 .317-.107.475.475 0 0 1 .489.351c.034.118.039.24.004.357-.019.073-.058.141-.092.21-.039.078-.078.15-.117.229-.152.303-.308.61-.464.913-.303.585-.6 1.176-.937 1.742a23.637 23.637 0 0 1-1.059 1.62c-.186.264-.381.517-.571.78-.098.133-.195.27-.293.401-.049.068-.098.132-.146.2a.614.614 0 0 0-.064.093c-.005.01-.019.034-.019.044-.015.02.005.03.019.044zM318.975 52.865c.23-.136.449-.292.688-.414.249-.127.508-.245.762-.362.127-.058.258-.117.385-.17.112-.05.23-.113.352-.137.19-.044.4.03.561.132a.728.728 0 0 1 .341.463.97.97 0 0 1-.087.64c-.064.122-.142.239-.21.356-.073.122-.152.244-.225.37-.146.245-.293.489-.439.728-.298.493-.59.986-.883 1.479-.147.249-.298.497-.444.741-.074.122-.147.25-.22.371-.049.083-.142.196-.117.303.029.112.151.151.244.093.102-.069.19-.176.283-.264.205-.19.405-.385.61-.576.41-.39.825-.776 1.23-1.17.195-.191.39-.382.571-.582.176-.195.337-.4.502-.605.352-.44.723-.854 1.094-1.279.19-.214.38-.429.566-.644l.278-.317a.659.659 0 0 1 1.147.337c.034.244-.093.434-.22.63-.156.234-.312.468-.468.697-.318.474-.62.957-.928 1.435a86.57 86.57 0 0 0-1.791 2.919l-.434.741c-.073.122-.146.25-.22.371-.068.112-.131.234-.209.342a.878.878 0 0 1-.484.341.753.753 0 0 1-.551-.087.728.728 0 0 1-.332-.444c-.054-.2-.005-.386.098-.562.288-.488.576-.97.868-1.459.074-.122.147-.24.215-.361.059-.098.137-.195.137-.317-.034.014-.069.02-.103.044-.039.029-.078.068-.117.102-.078.063-.151.132-.224.195l-.444.386c-.298.258-.601.517-.898.776-.298.254-.591.512-.889.766-.146.127-.292.254-.439.376-.141.117-.283.249-.434.351a2.057 2.057 0 0 1-.23.132c-.039.02-.078.039-.112.059-.034.019-.078.048-.117.058-.039.01-.073-.015-.107-.03-.044-.019-.088-.038-.127-.063a3.841 3.841 0 0 1-.244-.127c-.112-.063-.205-.15-.234-.278-.04-.146-.015-.317 0-.468a4.414 4.414 0 0 1 .619-1.88c.191-.321.415-.619.63-.926.224-.322.444-.65.668-.972.113-.16.22-.322.332-.473.108-.146.239-.278.337-.434a.226.226 0 0 0 .034-.186.234.234 0 0 0-.171-.146c-.078-.01-.141.044-.195.093-.073.063-.141.131-.215.195-.566.512-1.141 1.01-1.678 1.547a175.41 175.41 0 0 0-1.655 1.679c-.551.56-1.098 1.127-1.644 1.693-.274.283-.547.566-.82.844-.117.117-.225.244-.366.337-.117.078-.278.147-.42.132-.132-.015-.215-.117-.264-.234a.632.632 0 0 1-.024-.488c.034-.088.093-.166.146-.25.054-.082.108-.165.162-.243.107-.166.209-.327.317-.493.419-.654.834-1.308 1.269-1.952.439-.65.888-1.289 1.342-1.928.454-.64.907-1.279 1.371-1.913.459-.63.922-1.254 1.401-1.87.478-.614.956-1.23 1.449-1.834.244-.303.493-.605.742-.903.127-.151.254-.303.381-.45.102-.116.195-.253.331-.336a.632.632 0 0 1 .684.025c.112.078.2.195.244.327.058.17.024.331-.054.492a19.082 19.082 0 0 1-1.054 1.904c-.386.615-.8 1.21-1.235 1.79-.107.142-.21.289-.327.425-.053.069-.112.132-.171.196l-.087.102c-.015.015-.035.034-.044.049-.01.024-.015 0 0 .03-.01.014.004.029.014.033z" fill="#000B9E"/><path d="M337.198 56.219c-.195.141-.385.292-.59.424-.21.137-.43.264-.64.395a71.83 71.83 0 0 1-1.312.791c-.43.254-.864.503-1.318.718-.22.102-.434.22-.659.317a.864.864 0 0 1-.483.058c-.327-.048-.639-.263-.766-.576a1.008 1.008 0 0 1-.049-.634c.054-.215.176-.405.288-.595.473-.8 1.02-1.557 1.645-2.245a10.578 10.578 0 0 1 2.118-1.787c.419-.268.844-.522 1.278-.766.43-.239.859-.493 1.313-.683a5.03 5.03 0 0 1 .693-.234 1.87 1.87 0 0 1 .571-.069c.346.02.669.171.913.415.253.254.439.59.444.957.005.337-.117.688-.352.932a1.054 1.054 0 0 1-.18.146c-.073.044-.156.073-.234.113-.162.087-.303.21-.42.356-.127.156-.21.337-.283.522-.083.215-.176.43-.269.64-.38.853-.829 1.673-1.327 2.459a33.995 33.995 0 0 1-1.64 2.357c-.571.766-1.161 1.523-1.835 2.201-.625.635-1.322 1.2-2.084 1.66-.8.483-1.654.868-2.547 1.151a15.37 15.37 0 0 1-.679.19c-.229.06-.458.123-.693.147-.375.039-.746-.068-1-.356a1.16 1.16 0 0 1-.283-.835c.01-.151.054-.297.127-.43.097-.17.249-.312.385-.453.649-.669 1.386-1.24 2.157-1.757a41.78 41.78 0 0 1 2.528-1.557c.43-.244.864-.483 1.299-.712.429-.225.878-.41 1.332-.581.229-.083.459-.161.688-.24.185-.058.376-.087.537-.2.146-.097.258-.234.346-.385.122-.205.23-.42.347-.63.117-.204.239-.41.361-.614.058-.103.122-.205.181-.308.029-.049.063-.102.087-.151.01-.024.015-.049.025-.073.019-.054.014-.054-.02-.078zm1.913-3.817c-.053.02-.107.03-.161.049-.058.02-.107.049-.161.078a14.02 14.02 0 0 1-.371.2c-.249.132-.497.269-.742.41-.473.268-.927.566-1.361.893-.425.317-.83.66-1.225 1.015-.4.357-.796.723-1.176 1.098-.195.196-.376.4-.561.6l-.132.147c-.044.054-.103.102-.137.161a.253.253 0 0 0 .049.308.26.26 0 0 0 .298.058c.058-.024.107-.063.161-.097.063-.04.127-.083.185-.123.244-.156.488-.317.737-.473.942-.61 1.869-1.235 2.743-1.937a29.37 29.37 0 0 0 1.254-1.07c.2-.175.4-.35.591-.536.083-.083.17-.17.209-.283.03-.088.054-.215.01-.303-.039-.083-.141-.131-.21-.195zm-4.734 7.609c-.009-.015-.019-.025-.029-.04-.019-.019-.01-.019-.034-.014-.024 0-.049.02-.073.03-.059.024-.122.043-.181.067-.112.044-.229.088-.337.137-.224.107-.449.225-.673.337-.459.234-.918.468-1.371.712-.84.45-1.626.991-2.367 1.591-.161.132-.327.254-.444.43-.098.151-.171.366-.122.542.019.083.073.18.151.224.078.044.19 0 .268-.02.103-.029.186-.097.283-.136.113-.049.225-.093.332-.137.225-.093.43-.215.639-.346.215-.132.425-.269.635-.405.395-.259.786-.513 1.161-.796.357-.268.703-.561 1.03-.868a8.35 8.35 0 0 0 .923-1.016c.068-.097.136-.195.209-.292zM304.954 57.219c-1.098.673-2.191 1.347-3.289 2.015-.269.166-.547.322-.825.469-.185.097-.356.195-.571.185a.757.757 0 0 1-.473-.19.709.709 0 0 1-.225-.537c-.005-.254.103-.468.239-.674.161-.239.318-.478.479-.717.336-.503.693-.986 1.078-1.45.718-.873 1.498-1.693 2.382-2.4.224-.181.454-.347.688-.513.249-.176.498-.351.751-.517.254-.166.518-.303.786-.444.269-.137.532-.279.801-.41.268-.132.541-.254.824-.361.249-.093.508-.196.771-.225.386-.044.776.069 1.045.356.288.308.385.742.346 1.147a1.418 1.418 0 0 1-.283.718c-.18.249-.385.483-.581.722-.79.971-1.586 1.937-2.293 2.967-.352.513-.688 1.04-1.025 1.567a42.55 42.55 0 0 1-.508.785c-.083.127-.161.264-.244.39-.068.108-.136.216-.249.284a.639.639 0 0 1-.634-.01.34.34 0 0 1-.151-.258 1.072 1.072 0 0 1 .024-.396c.039-.146.122-.288.186-.424.068-.142.131-.279.2-.42.141-.283.283-.571.419-.854.069-.142.137-.278.205-.42l.098-.2c.019-.034.034-.073.054-.107.014-.025.019-.025.004-.05l-.029-.028zm-3.084.82c.049-.02.097-.03.146-.054.069-.04.137-.083.2-.127.127-.078.249-.156.376-.24.259-.16.513-.321.771-.482a38.26 38.26 0 0 0 1.508-1.006c.488-.346.971-.702 1.44-1.078.468-.376.922-.771 1.371-1.167.112-.097.22-.195.332-.288.054-.048.112-.097.166-.146.054-.049.117-.093.161-.151.073-.098.059-.215-.015-.308a.252.252 0 0 0-.283-.083c-.131.044-.263.117-.39.171l-.42.19c-.273.122-.541.244-.81.376-1.034.503-2.011 1.118-2.869 1.889-.41.37-.796.766-1.172 1.171-.185.205-.376.41-.556.62a1.8 1.8 0 0 0-.239.337.239.239 0 0 0 .024.258.349.349 0 0 0 .259.117zM328.345 54.495c.318-.21.61-.459.913-.688.303-.234.605-.473.908-.712.263-.21.517-.415.824-.557.284-.127.586-.2.898-.224.162-.015.323-.015.479-.005.127.01.258.03.371.098.258.15.332.488.214.751-.073.161-.19.303-.288.449-.107.156-.209.312-.312.473-.205.318-.415.64-.625.952-.434.644-.873 1.293-1.312 1.938-.22.322-.44.649-.659.97-.112.162-.22.323-.332.489-.093.136-.181.273-.293.39-.19.2-.439.332-.708.39-.136.03-.287.05-.424.04a.27.27 0 0 1-.161-.059c-.054-.049-.073-.122-.093-.19a.885.885 0 0 1-.019-.478.849.849 0 0 1 .122-.23c.053-.083.112-.166.166-.249.219-.322.434-.64.658-.956.44-.64.889-1.274 1.342-1.904l.337-.468c.083-.117.195-.244.161-.4-.014-.059-.058-.113-.122-.113-.058 0-.117.04-.166.069l-.449.278c-.6.38-1.186.78-1.732 1.235-.581.473-1.108 1.01-1.655 1.522-.278.264-.561.527-.834.79-.273.26-.552.513-.796.801-.224.269-.424.581-.707.796-.113.088-.239.16-.391.156a.532.532 0 0 1-.332-.137c-.214-.19-.214-.527-.141-.786.039-.15.117-.292.215-.42l.361-.458c.483-.61.956-1.22 1.43-1.84.473-.62.942-1.244 1.41-1.869.464-.625.927-1.244 1.396-1.87.18-.243.351-.54.644-.663a.66.66 0 0 1 .644.069c.235.165.381.478.239.751-.044.083-.102.161-.151.24-.054.077-.107.16-.161.238-.107.161-.22.322-.327.483l-.312.46c-.054.077-.108.155-.161.234l-.074.102c-.004.01-.039.044-.039.054 0 .02.035.049.044.058zM314.685 51.25c.176.02.352.03.528.059.131.02.268.048.375.131a.533.533 0 0 1 .186.576c-.039.137-.142.244-.225.357-.112.141-.224.278-.336.42-.103.126-.201.268-.327.375a1.629 1.629 0 0 1-.279.205.558.558 0 0 1-.546.005 1.31 1.31 0 0 1-.317-.25c-.093-.092-.176-.219-.293-.277-.103-.05-.21-.01-.303.039-.161.083-.317.166-.473.249-.317.17-.63.346-.937.522-.108.063-.2.141-.239.263a.423.423 0 0 0 .048.366c.074.098.191.147.298.196.122.058.234.117.347.19.424.264.78.64 1 1.093.112.23.2.488.234.747.03.249-.005.507-.088.742-.087.239-.224.463-.4.649-.088.092-.19.175-.297.249-.122.078-.254.131-.386.195-.317.151-.634.312-.956.459a14.3 14.3 0 0 1-.977.4c-.336.122-.673.239-1.01.351-.336.112-.673.23-1.015.327-.337.098-.678.18-1.015.273a.642.642 0 0 1-.346.01.502.502 0 0 1-.254-.195 2.006 2.006 0 0 1-.2-.4 1.136 1.136 0 0 1-.088-.459c.01-.24.132-.434.356-.517.142-.054.298-.069.444-.103.171-.039.337-.088.508-.136.341-.108.678-.235 1.015-.357a104.64 104.64 0 0 0 2.04-.756c.317-.122.634-.249.932-.415.132-.073.278-.142.385-.249a.536.536 0 0 0 .147-.298.65.65 0 0 0-.049-.336.936.936 0 0 0-.239-.313 3.912 3.912 0 0 0-.756-.566 1.569 1.569 0 0 0-.22-.107c-.073-.03-.151-.049-.229-.068a.89.89 0 0 1-.323-.171.937.937 0 0 1-.307-.562 1.502 1.502 0 0 1 .029-.673c.073-.244.235-.444.449-.58.142-.093.288-.171.435-.26l.444-.277c.268-.171.537-.342.82-.484a6.654 6.654 0 0 1 1.644-.522c.244-.063.503-.102.766-.117zM325.593 50.479c-.005-.288.137-.527.302-.747.176-.239.367-.463.581-.669.112-.102.23-.2.347-.287.122-.093.254-.19.395-.25.273-.117.61-.029.835.157.468.39.136 1.083-.147 1.479a3.444 3.444 0 0 1-.605.668c-.117.098-.239.19-.361.273a1.264 1.264 0 0 1-.356.19c-.44.123-.923-.18-.986-.639a.519.519 0 0 1-.005-.175z" fill="#000B9E"/><path d="M342.713 51.162c-.244 0-.488.01-.732.01a3 3 0 0 1-.693-.06 2.494 2.494 0 0 1-.337-.107c-.102-.038-.21-.073-.307-.126a.585.585 0 0 1-.288-.342.623.623 0 0 1 .039-.468c.039-.083.063-.166.097-.25a.33.33 0 0 1 .093-.136.36.36 0 0 1 .156-.059c.103-.02.205-.024.308-.039l.707-.087c.479-.059.962-.103 1.445-.132.244-.015.488-.025.737-.03l.356-.014c.093-.005.191 0 .278-.04a.474.474 0 0 0 .196-.17c.068-.088.136-.17.209-.249.142-.161.293-.312.445-.463.312-.293.644-.567.985-.82.157-.113.303-.25.508-.235.18.015.351.137.405.308.068.21-.059.376-.161.546-.132.205-.259.415-.39.62-.03.044-.059.088-.083.132-.02.039-.025.083-.04.122 1.235-.073 2.47-.127 3.71-.185.629-.03 1.254-.064 1.883-.084.625-.019 1.25-.01 1.874-.01h.22c.073-.004.141-.019.21-.038a.41.41 0 0 1 .327.068.428.428 0 0 1 .185.283c.015.117-.034.234-.083.342a1.52 1.52 0 0 1-.419.585.82.82 0 0 1-.323.166 1.77 1.77 0 0 1-.395.04c-.317.004-.629-.006-.947-.015-.307-.005-.619-.005-.927-.005-.625 0-1.254.01-1.879.034a56.278 56.278 0 0 0-3.743.268c-.312.035-.63.064-.942.093-.122.01-.244.02-.356.068-.117.05-.2.142-.288.235-.415.463-.835.917-1.254 1.376a65.1 65.1 0 0 0-1.24 1.381c-.4.464-.79.937-1.186 1.406-.049.058-.097.112-.141.17-.02.025-.039.054-.059.079-.01.014-.029.034-.034.048-.015.01-.015.02 0 .03.005.01.015.02.019.024.01.005.074-.03.088-.034.034-.015.069-.034.103-.049.068-.039.141-.073.21-.112.278-.147.551-.298.829-.444l1.655-.893c.551-.298 1.103-.591 1.649-.893.269-.147.542-.298.81-.45.127-.068.249-.136.352-.239.088-.087.156-.19.244-.283a2.034 2.034 0 0 1 1.166-.615c.215-.034.454-.053.664.02a.74.74 0 0 1 .424.39c.093.21.074.444.074.669 1.01-.259 2.025-.503 3.045-.737l.381-.088c.107-.024.214-.053.322-.063.127-.01.263.01.341.117.088.117.093.283.088.424-.01.22-.058.44-.141.645-.093.224-.22.434-.357.634-.151.22-.317.425-.444.654.205-.102.405-.22.62-.307.22-.088.439-.181.659-.269.22-.088.444-.17.664-.249.185-.063.356-.122.556-.097.342.044.698.278.805.615a.821.821 0 0 1-.044.59 9.173 9.173 0 0 1-.302.63c-.22.424-.464.839-.698 1.254-.239.42-.474.84-.718 1.254-.488.835-1.01 1.65-1.537 2.465-.258.395-.517.795-.781 1.19-.058.083-.107.176-.18.25a.606.606 0 0 1-.21.136.946.946 0 0 1-.239.059c-.073.01-.161.024-.23 0-.131-.044-.239-.19-.307-.308-.093-.161-.093-.342-.073-.522.044-.45.268-.844.478-1.235l.351-.634c.113-.205.215-.42.327-.625.235-.43.493-.844.747-1.26a69.533 69.533 0 0 1 1.166-1.863c.064-.103.132-.2.196-.303.053-.088.136-.18.151-.283a.247.247 0 0 0-.122-.244c-.083-.044-.171 0-.249.04a17.73 17.73 0 0 0-1.732 1.01 22.646 22.646 0 0 0-2.153 1.654c-.741.63-1.474 1.273-2.206 1.913a5.66 5.66 0 0 0-.478.483c-.122.146-.249.302-.429.376-.161.068-.361.063-.498-.05-.151-.121-.205-.34-.195-.531.009-.2.097-.39.195-.561.107-.19.229-.38.346-.566.244-.381.503-.752.781-1.108.288-.366.596-.713.913-1.06.322-.355.649-.707.981-1.049.327-.341.668-.658 1.025-.97l.258-.23c.078-.073.176-.137.239-.225.137-.19-.146-.234-.278-.244-.234-.02-.473.025-.707.054-.117.015-.235.034-.352.049-.107.015-.219.015-.317.054-.185.068-.283.253-.39.405-.137.2-.274.4-.41.595-.269.39-.542.78-.83 1.157-.263.341-.547.668-.849.986-.6.63-1.264 1.21-1.967 1.732a7.502 7.502 0 0 1-1.098.693c-.195.098-.4.185-.605.264-.2.078-.41.146-.625.17-.351.04-.746-.048-1.015-.292-.268-.245-.385-.63-.42-.981a1.485 1.485 0 0 1 .176-.874c.025-.039.054-.078.073-.122.015-.039.02-.083.03-.122-.191.107-.376.215-.567.317-.195.108-.4.2-.6.298-.415.205-.834.405-1.249.6-.176.083-.347.18-.547.18a.696.696 0 0 1-.439-.14c-.254-.21-.259-.645-.083-.904.508-.736 1.01-1.488 1.567-2.19a29.262 29.262 0 0 1 1.757-1.977c.307-.318.614-.635.927-.952.151-.151.297-.312.459-.454.161-.141.327-.273.488-.415.039-.034.073-.068.107-.107a.486.486 0 0 1 .049-.054c.024.015.01.01-.01-.02zm4.949 2.342c.004-.146-.035-.327-.22-.283-.107.025-.205.088-.303.142-.117.063-.229.127-.346.19-.464.264-.913.561-1.337.879a16.694 16.694 0 0 0-2.318 2.122c-.347.386-.693.791-.981 1.22-.108.162-.2.4-.025.552.176.156.449.049.61-.073.903-.664 1.806-1.328 2.641-2.08a19.387 19.387 0 0 0 1.693-1.727c.088-.102.181-.205.263-.312a2.29 2.29 0 0 0 .23-.303.513.513 0 0 0 .093-.327zM294.13 53.924c.849-.752 1.693-1.504 2.547-2.25a79.437 79.437 0 0 1 3.226-2.709c.107-.083.21-.17.317-.254.103-.082.205-.185.322-.253.176-.108.425-.098.571.063.147.161.117.41.01.58-.146.235-.312.46-.464.69-.156.233-.312.468-.463.702-.308.463-.62.927-.918 1.396-.605.946-1.156 1.927-1.722 2.898-.054.098-.127.186-.113.303.059-.049.117-.088.171-.146.059-.059.112-.117.171-.176.112-.117.229-.234.342-.346.229-.23.458-.46.693-.689.468-.453.946-.898 1.434-1.332.493-.43.996-.85 1.518-1.245.532-.4 1.074-.785 1.616-1.166.541-.38 1.078-.77 1.634-1.127.142-.088.279-.18.42-.269a.675.675 0 0 1 .366-.127c.249 0 .459.2.517.435.059.249-.068.478-.268.62-.273.195-.547.38-.82.57-.551.396-1.078.82-1.605 1.24-.537.425-1.064.854-1.587 1.294-.522.434-1.034.878-1.551 1.317-.513.434-1.03.864-1.533 1.308-.498.44-.986.888-1.469 1.347a20.35 20.35 0 0 0-1.357 1.381c-.419.474-.81.971-1.176 1.484-.185.258-.366.517-.541.78-.191.274-.391.538-.591.801-.093.117-.176.24-.293.327a.936.936 0 0 1-.336.166c-.23.059-.498.044-.713-.063-.459-.22-.493-.776-.327-1.186.059-.147.142-.279.229-.405.098-.137.196-.274.288-.41l.586-.82c.395-.547.786-1.098 1.161-1.66.376-.56.737-1.137 1.094-1.708.361-.576.712-1.156 1.073-1.737.181-.288.357-.576.527-.869l.132-.22c.02-.034.044-.068.064-.102.004-.01.034-.044.029-.054 0-.005-.015-.014-.02-.02-.009-.009-.014-.014-.024-.009-.024.005-.063.049-.083.064l-.088.073c-.063.058-.122.122-.185.18-.493.488-.986.971-1.479 1.46-.493.483-.981.966-1.474 1.454-.493.483-.986.971-1.479 1.454-.493.488-.99.976-1.483 1.46-.488.483-.981.96-1.464 1.444-.235.234-.469.473-.708.703-.107.102-.21.2-.361.239a.686.686 0 0 1-.2.024c-.054 0-.137.005-.186-.02-.107-.048-.117-.204-.112-.302.01-.141.049-.278.107-.405.069-.136.147-.258.23-.38l.293-.425c.39-.571.781-1.137 1.171-1.708s.781-1.147 1.176-1.718c.391-.566.776-1.137 1.166-1.703.391-.566.786-1.133 1.177-1.703.385-.567.771-1.133 1.151-1.704l1.157-1.713c.386-.566.771-1.132 1.162-1.698.078-.112.146-.23.263-.308a.618.618 0 0 1 .317-.107.473.473 0 0 1 .488.351c.034.118.039.24.005.357-.019.073-.058.141-.093.21-.039.078-.078.15-.117.229-.151.303-.307.61-.463.913-.303.585-.601 1.176-.937 1.742a24.017 24.017 0 0 1-1.059 1.62c-.186.264-.381.517-.571.78-.098.133-.196.27-.293.401l-.147.2a.698.698 0 0 0-.063.093c-.005.01-.02.034-.02.044-.004.024.02.034.035.049zM318.019 52.182c.229-.137.449-.293.688-.415.249-.127.507-.244.761-.361.127-.059.259-.117.386-.171.112-.049.229-.112.351-.137.19-.044.4.03.561.132a.733.733 0 0 1 .342.464.964.964 0 0 1-.088.64c-.063.121-.141.238-.21.355-.073.122-.151.244-.224.371-.147.244-.293.488-.439.727-.298.493-.591.986-.884 1.48-.146.248-.298.497-.444.74-.073.123-.146.25-.22.372-.048.083-.141.195-.117.302.03.113.152.152.244.093.103-.068.191-.175.283-.263.205-.19.405-.386.61-.576.41-.39.825-.776 1.23-1.172.195-.19.391-.38.571-.58.176-.196.337-.4.503-.605.351-.44.722-.855 1.093-1.28.19-.214.381-.428.566-.643.093-.108.186-.21.278-.318a.666.666 0 0 1 .806-.151c.18.098.317.288.341.488.034.244-.092.435-.219.63a86.23 86.23 0 0 1-.469.698c-.317.473-.62.956-.927 1.434a84.966 84.966 0 0 0-1.791 2.919c-.147.249-.288.493-.434.742-.074.122-.147.249-.22.37-.068.113-.132.235-.21.342a.879.879 0 0 1-.483.342.755.755 0 0 1-.552-.088.723.723 0 0 1-.331-.444c-.054-.2-.005-.386.097-.561.288-.488.576-.971.869-1.46.073-.122.146-.239.215-.36.058-.098.136-.196.136-.318-.034.015-.068.02-.102.044-.039.03-.078.068-.117.102-.078.064-.152.132-.225.196l-.444.385c-.298.259-.6.518-.898.776-.298.254-.59.513-.888.766-.147.127-.293.254-.439.376-.142.117-.283.25-.435.352a2.137 2.137 0 0 1-.229.131l-.112.059c-.035.02-.078.049-.117.059-.04.01-.074-.015-.108-.03a1.016 1.016 0 0 1-.127-.063 3.841 3.841 0 0 1-.244-.127c-.112-.064-.205-.151-.234-.278-.039-.147-.015-.318 0-.469a4.415 4.415 0 0 1 .62-1.879c.19-.322.415-.62.629-.927.225-.322.444-.65.669-.971.112-.161.22-.322.332-.473.107-.147.239-.279.337-.435a.23.23 0 0 0 .034-.185c-.025-.069-.098-.137-.171-.147-.078-.01-.142.044-.195.093-.074.063-.142.132-.215.195-.566.513-1.142 1.01-1.679 1.547-.556.557-1.108 1.118-1.654 1.68-.552.56-1.098 1.126-1.645 1.692-.273.284-.547.567-.82.845-.117.117-.224.244-.366.337-.117.078-.278.146-.42.131-.131-.014-.214-.117-.263-.234a.627.627 0 0 1-.024-.488c.034-.088.092-.166.146-.249.054-.083.107-.166.161-.244l.317-.493c.42-.654.835-1.308 1.269-1.952.439-.649.888-1.288 1.342-1.928.454-.639.908-1.278 1.371-1.913.459-.63.923-1.254 1.401-1.869a101.82 101.82 0 0 1 2.191-2.738c.127-.151.254-.302.381-.449.103-.117.195-.253.332-.336a.63.63 0 0 1 .683.024c.112.078.2.195.244.327.059.17.025.332-.054.493a18.882 18.882 0 0 1-1.054 1.903c-.385.615-.8 1.21-1.234 1.791-.108.142-.21.288-.327.425-.054.068-.113.132-.171.195l-.088.102a.395.395 0 0 0-.044.05c-.01.024-.015 0 0 .029-.01.014.005.024.015.034z" fill="#fff"/><path d="M336.242 55.535c-.196.142-.386.293-.591.425-.21.136-.429.263-.639.395a71.91 71.91 0 0 1-1.313.79c-.429.254-.864.503-1.318.718-.219.102-.434.22-.658.317a.868.868 0 0 1-.484.059c-.327-.05-.639-.264-.766-.576a1.015 1.015 0 0 1-.049-.635c.054-.214.176-.405.288-.595.474-.8 1.02-1.557 1.645-2.245a10.606 10.606 0 0 1 2.118-1.786c.42-.269.844-.522 1.279-.766.429-.24.859-.493 1.312-.684.225-.092.459-.175.693-.234.186-.049.376-.078.571-.068.347.02.669.17.913.415.254.253.439.59.444.956.005.337-.117.688-.351.932a1.062 1.062 0 0 1-.181.147c-.073.044-.156.073-.234.112-.161.088-.303.21-.42.356-.127.156-.21.337-.283.522-.083.215-.175.43-.268.64-.381.854-.83 1.674-1.328 2.46a33.981 33.981 0 0 1-1.639 2.357c-.571.766-1.162 1.522-1.835 2.2-.625.635-1.323 1.201-2.084 1.66a11.875 11.875 0 0 1-3.226 1.342c-.23.059-.459.122-.693.146-.376.04-.747-.068-1.001-.356-.2-.23-.302-.532-.283-.834.01-.152.054-.298.127-.43.098-.17.249-.312.386-.454.649-.668 1.386-1.24 2.157-1.757a41.831 41.831 0 0 1 2.528-1.556c.429-.245.864-.484 1.298-.713.429-.224.878-.41 1.332-.58.23-.084.459-.162.688-.24.186-.058.376-.088.537-.2.147-.098.259-.234.347-.386.122-.205.229-.42.346-.63.117-.204.239-.409.361-.614.059-.103.122-.205.181-.307.029-.05.063-.103.088-.152.01-.024.014-.048.024-.073.02-.054.015-.054-.019-.078zm1.908-3.821c-.054.02-.107.029-.161.049-.059.019-.108.048-.161.078-.122.068-.249.136-.371.2a21.96 21.96 0 0 0-.742.41c-.473.268-.927.566-1.362.893-.424.317-.829.659-1.224 1.015-.401.356-.796.722-1.177 1.098-.195.195-.375.4-.561.6l-.132.147c-.044.053-.102.102-.136.16a.251.251 0 0 0 .049.308.26.26 0 0 0 .297.059c.059-.025.108-.064.161-.098.064-.039.127-.083.186-.122.244-.156.488-.317.737-.473.942-.61 1.869-1.235 2.742-1.938.43-.341.845-.703 1.255-1.069.2-.175.4-.351.59-.536.083-.083.171-.171.21-.283.029-.088.054-.215.01-.303-.039-.078-.137-.127-.21-.195zm-4.729 7.613c-.01-.015-.02-.024-.029-.04-.02-.019-.01-.019-.035-.014-.024 0-.048.02-.073.03-.058.024-.122.044-.18.068-.113.044-.23.088-.337.136-.225.108-.449.225-.674.337-.458.234-.917.469-1.371.713-.839.449-1.625.99-2.367 1.59-.161.133-.327.255-.444.43-.098.151-.171.366-.122.542.02.083.073.18.151.224.078.044.191 0 .269-.02.102-.028.185-.097.283-.136.112-.048.224-.092.332-.136.224-.093.429-.215.639-.347.215-.132.425-.268.634-.405.396-.259.786-.512 1.162-.795.356-.269.703-.562 1.03-.87.327-.311.649-.648.922-1.014.068-.098.137-.195.21-.293zM303.993 56.535c-1.098.668-2.192 1.347-3.29 2.01-.268.166-.546.322-.824.469-.186.097-.357.195-.571.185a.76.76 0 0 1-.474-.19.712.712 0 0 1-.224-.537c-.005-.254.102-.468.239-.674.161-.239.317-.478.478-.717a17.4 17.4 0 0 1 1.079-1.45c.717-.873 1.498-1.693 2.381-2.4.225-.181.454-.347.688-.513.249-.176.498-.351.752-.517.254-.166.517-.303.786-.444.268-.137.532-.278.8-.41.268-.132.542-.254.825-.361.249-.093.507-.196.771-.225.385-.044.776.069 1.044.356.288.308.386.742.347 1.147a1.427 1.427 0 0 1-.283.718c-.181.249-.386.483-.581.722-.791.971-1.586 1.938-2.294 2.967-.351.513-.688 1.04-1.025 1.567-.166.263-.336.527-.507.785-.083.127-.161.264-.244.39-.069.108-.137.216-.249.284a.64.64 0 0 1-.635-.01.345.345 0 0 1-.151-.258 1.072 1.072 0 0 1 .025-.396c.039-.146.122-.288.185-.424l.2-.42a67.3 67.3 0 0 0 .42-.854c.068-.142.136-.278.205-.42l.097-.2c.02-.034.035-.073.054-.107.015-.025.02-.025.005-.049 0 0-.02-.015-.029-.024zm-3.08.82c.049-.02.098-.03.147-.054a3.02 3.02 0 0 0 .2-.127c.127-.078.249-.156.375-.24.259-.16.513-.321.772-.482a39.017 39.017 0 0 0 1.508-1.006c.488-.346.971-.703 1.439-1.078.469-.376.923-.771 1.372-1.167.112-.097.219-.195.332-.288.053-.048.112-.097.165-.146.054-.049.118-.093.161-.151.074-.098.059-.215-.014-.308a.253.253 0 0 0-.283-.083c-.132.044-.264.117-.391.171-.141.063-.283.127-.419.19-.274.122-.542.244-.81.376-1.035.503-2.011 1.118-2.87 1.889-.41.37-.796.766-1.171 1.171-.186.205-.376.41-.557.62a1.845 1.845 0 0 0-.239.337.237.237 0 0 0 .025.258.347.347 0 0 0 .258.117zM327.384 53.812c.317-.21.61-.46.913-.688.302-.235.605-.474.907-.713.264-.21.518-.415.825-.556.283-.127.586-.2.898-.225.161-.015.322-.015.478-.005.127.01.259.03.371.098.259.151.332.488.215.751-.073.162-.19.303-.288.45-.107.156-.21.312-.312.473-.205.317-.415.64-.625.952-.434.644-.874 1.293-1.313 1.937-.219.322-.439.649-.659.971-.112.161-.219.322-.331.488-.093.137-.181.273-.293.39-.191.2-.44.332-.708.391-.137.03-.288.049-.425.039a.272.272 0 0 1-.161-.058c-.053-.05-.073-.122-.092-.19a.885.885 0 0 1-.02-.48.877.877 0 0 1 .122-.229c.054-.082.112-.165.166-.248.22-.322.434-.64.659-.957.439-.64.888-1.274 1.342-1.903l.337-.469c.083-.117.195-.244.161-.4-.015-.059-.059-.112-.122-.112-.059 0-.117.039-.166.068-.151.093-.298.186-.449.278-.6.381-1.186.781-1.733 1.235-.58.473-1.107 1.01-1.654 1.523-.278.263-.561.527-.835.79-.273.259-.551.513-.795.8-.225.27-.425.581-.708.796-.112.088-.239.161-.39.156a.532.532 0 0 1-.332-.136c-.205-.196-.205-.527-.132-.786.039-.151.117-.293.215-.42.117-.151.239-.302.361-.459.483-.61.957-1.22 1.43-1.84.473-.62.942-1.244 1.41-1.868.464-.625.928-1.245 1.396-1.87.181-.244.352-.541.644-.663a.662.662 0 0 1 .645.068c.234.166.38.478.239.752-.044.082-.103.16-.152.239l-.161.239c-.107.16-.219.322-.327.483l-.312.459-.161.234-.073.102c-.005.01-.039.044-.039.054-.005.02.029.049.034.059zM313.729 50.566c.176.02.351.03.527.059.132.02.268.049.376.132a.532.532 0 0 1 .185.576c-.039.136-.141.244-.224.356-.113.141-.225.278-.337.42-.103.127-.2.268-.327.375a1.66 1.66 0 0 1-.278.205.56.56 0 0 1-.547.005 1.33 1.33 0 0 1-.317-.249c-.093-.092-.176-.22-.293-.278-.102-.049-.21-.01-.302.04-.161.082-.318.165-.474.248-.317.17-.629.347-.937.522-.107.064-.2.142-.239.264a.424.424 0 0 0 .049.366c.073.097.19.146.298.195.122.059.234.117.346.19.425.264.781.64 1.001 1.094.112.229.2.488.234.746.029.25-.005.508-.088.742-.088.24-.225.464-.4.65a1.856 1.856 0 0 1-.298.248c-.122.078-.254.132-.385.195-.318.151-.635.313-.957.459a14.07 14.07 0 0 1-.976.4c-.337.122-.674.24-1.01.351-.337.113-.674.23-1.015.328-.337.097-.679.18-1.015.273a.646.646 0 0 1-.347.01.51.51 0 0 1-.254-.196 2.061 2.061 0 0 1-.2-.4 1.154 1.154 0 0 1-.088-.459c.01-.239.132-.434.357-.517.141-.054.297-.068.444-.102.17-.04.336-.088.507-.137.342-.107.679-.234 1.015-.356.684-.244 1.362-.498 2.04-.757a7.2 7.2 0 0 0 .932-.414c.132-.074.279-.142.386-.25a.534.534 0 0 0 .146-.297.66.66 0 0 0-.048-.337.938.938 0 0 0-.24-.312 3.912 3.912 0 0 0-.756-.566 1.516 1.516 0 0 0-.22-.108c-.073-.029-.151-.049-.229-.068a.895.895 0 0 1-.322-.17.934.934 0 0 1-.308-.562 1.488 1.488 0 0 1 .03-.673c.073-.245.234-.445.449-.581.141-.093.288-.171.434-.259.146-.093.298-.185.444-.278.269-.17.537-.342.82-.483a6.661 6.661 0 0 1 1.645-.523c.244-.063.502-.102.766-.117zM324.632 49.795c-.005-.288.136-.527.302-.747.176-.239.366-.463.581-.668.112-.103.229-.2.346-.288.122-.093.254-.19.396-.249.273-.117.61-.03.834.156.469.39.137 1.084-.146 1.479a3.444 3.444 0 0 1-.605.669c-.118.097-.24.19-.362.273a1.245 1.245 0 0 1-.356.19c-.439.122-.922-.18-.986-.64a.738.738 0 0 1-.004-.175z" fill="#fff"/></g><defs><linearGradient id="paint0_linear" x1="223.355" y1="90.746" x2="223.355" y2="76.384" gradientUnits="userSpaceOnUse"><stop offset=".003" stop-color="#C2B69C"/><stop offset=".505" stop-color="#E3DFD7"/><stop offset=".797" stop-color="#E6E6E6"/></linearGradient><linearGradient id="paint1_linear" x1="223.002" y1="89.08" x2="228.203" y2="98.088" gradientUnits="userSpaceOnUse"><stop stop-color="#E3DFD7"/><stop offset=".997" stop-color="#C2B69C"/></linearGradient><linearGradient id="paint2_linear" x1="221.664" y1="100.695" x2="241.123" y2="100.695" gradientUnits="userSpaceOnUse"><stop offset=".005" stop-color="#CCC1AB"/><stop offset=".182" stop-color="#D0C6B4"/><stop offset=".488" stop-color="#D3CBBC"/><stop offset=".997" stop-color="#D4CDBF"/></linearGradient><linearGradient id="paint3_linear" x1="205.95" y1="89.86" x2="212.114" y2="89.86" gradientUnits="userSpaceOnUse"><stop stop-color="#E3DFD7"/><stop offset=".997" stop-color="#C2B69C"/></linearGradient><linearGradient id="paint4_linear" x1="211.462" y1="100.614" x2="211.462" y2="91.158" gradientUnits="userSpaceOnUse"><stop offset=".003" stop-color="#C2B69C"/><stop offset="1" stop-color="#E3DFD7"/></linearGradient><linearGradient id="paint5_linear" x1="212.432" y1="102.133" x2="224.778" y2="102.133" gradientUnits="userSpaceOnUse"><stop offset=".003" stop-color="#C2B69C"/><stop offset="1" stop-color="#E3DFD7"/></linearGradient><linearGradient id="paint6_linear" x1="217.37" y1="97.297" x2="248.765" y2="97.297" gradientUnits="userSpaceOnUse"><stop offset=".003" stop-color="#389CC7"/><stop offset="1" stop-color="#2E7EC9"/></linearGradient><linearGradient id="paint7_linear" x1="231.433" y1="92.295" x2="247.019" y2="92.295" gradientUnits="userSpaceOnUse"><stop offset=".003" stop-color="#389CC7"/><stop offset="1" stop-color="#2E7EC9"/></linearGradient><linearGradient id="paint8_linear" x1="232.934" y1="95.71" x2="225.914" y2="100.965" gradientUnits="userSpaceOnUse"><stop stop-color="#2E7EC9"/><stop offset=".997" stop-color="#389CC7"/></linearGradient><linearGradient id="paint9_linear" x1="190.882" y1="88.186" x2="196.713" y2="88.186" gradientUnits="userSpaceOnUse"><stop stop-color="#E3DFD7"/><stop offset=".997" stop-color="#C2B69C"/></linearGradient><linearGradient id="paint10_linear" x1="190.84" y1="92.879" x2="204.138" y2="92.879" gradientUnits="userSpaceOnUse"><stop stop-color="#E3DFD7"/><stop offset=".997" stop-color="#C2B69C"/></linearGradient><linearGradient id="paint11_linear" x1="195.01" y1="93.391" x2="206.047" y2="93.391" gradientUnits="userSpaceOnUse"><stop offset=".203" stop-color="#E6E6E6"/><stop offset=".495" stop-color="#E3DFD7"/><stop offset=".997" stop-color="#C2B69C"/></linearGradient><linearGradient id="paint12_linear" x1="204.293" y1="103.604" x2="204.293" y2="95.097" gradientUnits="userSpaceOnUse"><stop stop-color="#E3DFD7"/><stop offset=".997" stop-color="#C2B69C"/></linearGradient><linearGradient id="paint13_linear" x1="197.114" y1="89.099" x2="201.366" y2="89.099" gradientUnits="userSpaceOnUse"><stop offset=".203" stop-color="#E6E6E6"/><stop offset=".495" stop-color="#E3DFD7"/><stop offset=".997" stop-color="#D4CDBF"/></linearGradient><linearGradient id="paint14_linear" x1="207.086" y1="102.428" x2="208.709" y2="102.428" gradientUnits="userSpaceOnUse"><stop stop-color="#E3DFD7"/><stop offset=".997" stop-color="#C2B69C"/></linearGradient><linearGradient id="paint15_linear" x1="181.543" y1="88.171" x2="188.612" y2="88.171" gradientUnits="userSpaceOnUse"><stop stop-color="#E3DFD7"/><stop offset=".997" stop-color="#C2B69C"/></linearGradient><linearGradient id="paint16_linear" x1="176.739" y1="82.351" x2="189.149" y2="82.351" gradientUnits="userSpaceOnUse"><stop offset=".203" stop-color="#E6E6E6"/><stop offset=".495" stop-color="#E3DFD7"/><stop offset=".997" stop-color="#C2B69C"/></linearGradient><linearGradient id="paint17_linear" x1="180.316" y1="78.599" x2="182.788" y2="78.599" gradientUnits="userSpaceOnUse"><stop offset=".203" stop-color="#E6E6E6"/><stop offset=".495" stop-color="#E3DFD7"/><stop offset=".997" stop-color="#D4CDBF"/></linearGradient><clipPath id="clip0"><path fill="#fff" transform="translate(288 28)" d="M0 0h68.651v41.58H0z"/></clipPath></defs></svg>