<svg width="375" height="156" fill="none" xmlns="http://www.w3.org/2000/svg" viewBox="0 0 375 156"><path d="M375 0H0v156h375V0z" fill="#F5FCFF"/><mask id="a" maskUnits="userSpaceOnUse" x="0" y="0" width="375" height="156"><path transform="matrix(-1 0 0 1 375 0)" fill="#F5FCFF" d="M0 0h375v156H0z"/></mask><g mask="url(#a)"><path d="M481.001-5.706L374.813.097 176.849 20.841l-36.882 21.902 167.705 97.683 140.778 13.258 32.551-159.39z" fill="#00AD00"/><path d="M437.509-7.297S75.411 4.265 51.072 44.358C21.095 93.745 318.26 226.2 318.26 226.2l250.865-59.442s-397.638-99.299-379.744-129.2C208.081 6.31 578.295-2.295 578.295-2.295L437.509-7.297z" fill="#fff"/><path d="M346.422 206.702S52.672 89.192 79.234 44.358C103.14 4.01 465.671-5.998 465.671-5.998l81.019 1.535S176.252 6.173 157.777 37.553c-19.75 33.549 379.744 144.365 379.744 144.365l-191.099 24.784z" fill="#004EBB"/></g><path d="M141.165 92.852c-1.585.91-1.549 2.325.085 3.146l15.129 9.682 80.111 40.308c1.634.821 4.327.801 6.123.441 6.814-1.383 16.86-4.493 22.215-7.077 1.645-.797 4.027-2.322 5.5-3.405 2.479-1.82 6.62-5.747 8.064-8.72.796-1.646 1.015-3.021-.619-3.846l-98.435-49.537c-1.634-.82-4.267-.752-5.852.158l-32.321 18.85z" fill="#0032A5"/><path d="M143.499 75.43c-.494-2.843 1.5-4.885 1.5-4.885s1.124-3.296 4.089-6.904c2.964-3.603 14.081-9.997 17.236-11.311 3.15-1.315 6.665-1.476 8.392-1.238 1.73.239 9.811 2.787 9.811 2.787s9.787.78 17.911 4.011c8.125 3.232 16.929 8.089 23.452 11.563 3.802 2.022 10.77 7.316 15.926 11.376l.603-.384s-.502-2.374-.388-2.795c.113-.424 1.326-3.397 1.326-3.397s1.48 1.5 1.933 2.742c.453 1.242-.327 3.114-.57 4.024-.138.518-.445 1.132-.679 1.57-.004-.005-.013-.009-.017-.013a370.392 370.392 0 0 1 4.251 3.442c8.974 3.522 20.536 13.499 20.536 13.499 2.208.113 3.733 4.279 5.322 7.118 1.594 2.843 1.509 4.756 1.464 5.589-.048.833 1.06 12.759-8.618 19.46-9.682 6.697-21.232 8.194-26.376 7.846a25.763 25.763 0 0 1-5.852-1.088c-.202-.967-.388-1.872-.429-2.503-.311-5.193-4.933-11.401-9.665-13.577-6.127-2.818-8.982.045-8.667 5.242.033.513.186 1.326.393 2.179l-46.674-23.504c-.206-1.108-.429-2.245-.538-2.932-.768-4.728-4.457-10.054-8.566-12.517-6.567-3.935-8.529-.198-7.825 4.954v.008c-2.329-2.119-6.196-5.666-8.173-7.671-2.953-2.99-2.722-7.276-2.944-8.796-.223-1.521 1.836-3.895 1.836-3.895z" fill="#14AFEB"/><path d="M141.659 79.325c.222 1.52-.008 5.807 2.944 8.796 1.981 2.005 5.844 5.552 8.173 7.671v-.008c-.708-5.152 1.258-8.893 7.825-4.954 4.109 2.463 7.802 7.79 8.566 12.517.113.687.336 1.824.538 2.932l46.674 23.505c-.207-.854-.364-1.667-.393-2.18-.311-5.197 2.544-8.06 8.667-5.241 4.732 2.175 9.354 8.383 9.665 13.576.037.631.227 1.537.429 2.503 1.472.457 3.478.926 5.852 1.088 5.144.348 16.694-1.149 26.376-7.846 8.784-6.078 8.683-16.459 8.626-18.955-.813 4.271-2.968 9.617-8.877 13.682-6.106 4.202-10.87 6.462-20.884 6.867-5.9.234-9.855-1.549-12.072-2.386l-.028-.441c2.216.837 6.123 1.812 12.023 1.577 10.018-.4 14.778-2.665 20.884-6.863 5.949-4.093 8.093-9.479 8.894-13.766.028.149.048.291.068.428.021-.97-.105-2.729-1.48-5.188-.445-.797-.886-1.695-1.334-2.58-1.036 1.759-1.711.893-1.711.893-.053 1.917-.841 4.599-1.331 5.496-.489.898-2.018 4.049-6.288 7.094-4.267 3.045-9.112 4.655-11.882 5.544-2.77.89-5.407.785-5.407.785-3.252 1.634-6.572.226-6.572.226-.772-1.516-4.072-3.34-6.547-4.573-1.343-.672-3.713-2.059-5.86-3.422-1.804-1.144-2.864-1.905-2.864-1.905-5.39-3.457-7.489-6.276-7.489-6.276-4.101-7.146-11.85-17.2-11.85-17.2-5.641-6.968-16.278-11.736-23.407-15.238-5.088-2.5-12.723-2.205-19.133-2.435l-7.595-.396s-7.704-2.059-7.854-6.111c-1.424 2.293-2.006 3.996-2.006 3.996s-1.994 2.046-1.5 4.885c0 0 3.284 6.98 6.608 11.045 0 0-6.079-4.797-8.295-8.263-.133.397-.202.78-.153 1.12zm61.107 23.027c1.99-.453 3.171-1.165 3.927-.493l2.212 2.014s1.157 1.128.34 1.662-3.539.699-5.775.833c-2.237.133-2.411-1.897-2.455-2.224-.049-.332-.235-1.339 1.751-1.792z" fill="#0082C8"/><path d="M173.434 76.409a11.88 11.88 0 0 1 1.249-.138c6.297-.38 12.667 3.608 14.854 4.829 3.515 1.957 10.111 5.504 13.921 9.949 4.658 5.43 3.558 4.99 10.607 17.046 0 0-1.997-1.007-4.929-2.5.036-.02.076-.036.109-.06.817-.534-.34-1.662-.34-1.662l-2.212-2.014c-.756-.668-1.933.04-3.911.489-5.152-2.645-10.834-5.597-14.179-7.445-7.239-4.008-25.797-14.377-25.797-14.377s3.939-3.03 10.628-4.117z" fill="#0082C8"/><path d="M219.719 122.702l2.16-1.282c.837.17 1.759.477 2.774.946 4.732 2.176 9.354 8.384 9.666 13.577.036.63.226 1.536.428 2.503h.008l-3.805 2.265c-1.302.784-3.134.752-5.209-.283-4.287-2.144-7.991-7.753-8.278-12.533-.158-2.601.728-4.421 2.256-5.193z" fill="#192D4B"/><path d="M221.879 121.416l-2.16 1.282c-1.533.772-2.418 2.592-2.261 5.193.029.497.098 1.003.199 1.512l-1.278.38c-.207-.853-.364-1.666-.393-2.179-.262-4.332 1.683-7.041 5.893-6.188z" fill="#004687"/><path d="M217.459 127.891c.287 4.78 3.995 10.393 8.278 12.532 4.287 2.14 7.53 0 7.243-4.78-.287-4.78-3.995-10.393-8.282-12.533-4.283-2.139-7.526 0-7.239 4.781z" fill="#192D4B"/><path d="M217.916 128.343c.267 4.408 3.684 9.585 7.635 11.559 3.955 1.973 6.944.004 6.681-4.409-.267-4.408-3.684-9.584-7.639-11.558-3.952-1.973-6.94 0-6.677 4.408z" fill="#192D4B"/><path d="M219.756 129.359c.198 3.283 2.742 7.133 5.682 8.606 2.94 1.468 5.164 0 4.97-3.28-.198-3.284-2.742-7.134-5.682-8.602-2.944-1.476-5.169-.004-4.97 3.276z" fill="#0082C8"/><path d="M223.881 130.944c.056.958.8 2.079 1.658 2.511.857.429 1.508 0 1.448-.958-.057-.959-.801-2.083-1.659-2.512-.857-.428-1.504 0-1.447.959zM155.623 90.417l1.743-1.04c.922.24 1.998.709 3.236 1.453 4.109 2.463 7.801 7.789 8.565 12.516.113.688.336 1.824.538 2.932l.409.207-3.264 1.941c-1.302.784-3.134.752-5.209-.283-4.287-2.14-7.995-7.753-8.282-12.533-.154-2.6.732-4.416 2.264-5.193z" fill="#192D4B"/><path d="M153.359 95.61c.287 4.78 3.995 10.394 8.282 12.533 4.287 2.139 7.53.004 7.243-4.78-.287-4.78-3.996-10.394-8.282-12.533-4.287-2.14-7.531 0-7.243 4.78z" fill="#192D4B"/><path d="M153.816 96.063c.266 4.408 3.684 9.585 7.635 11.562 3.955 1.974 6.944 0 6.681-4.408-.267-4.408-3.684-9.585-7.64-11.558-3.951-1.978-6.939-.004-6.676 4.404z" fill="#192D4B"/><path d="M155.655 97.078c.199 3.28 2.742 7.134 5.682 8.606 2.945 1.468 5.165 0 4.971-3.28-.198-3.283-2.742-7.133-5.682-8.605-2.945-1.473-5.169-.005-4.971 3.28z" fill="#0082C8"/><path d="M159.752 98.647c.061.975.817 2.119 1.691 2.556.873.437 1.537 0 1.476-.974-.061-.975-.813-2.12-1.691-2.556-.873-.437-1.532 0-1.476.974z" fill="#192D4B"/><path d="M157.366 89.382l-1.743 1.04c-1.532.772-2.418 2.592-2.264 5.188 0 .02.004.045.004.065l-.587.117v-.008c-.574-4.182.615-7.429 4.59-6.402z" fill="#004687"/><path d="M219.723 80.683c4.809-3.364 10.074-7.857 10.074-7.857s8.331 5.544 11.049 7.716c4.068 3.251 7.429 5.476 7.429 5.476.449.178.91.372 1.371.578 3.923 2.972-2.556 9.184-7.555 12.957-4.998 3.77-13.184 8.129-18.049 9.039-.501.093-.97.15-1.415.178-3.854.231-5.496-1.828-5.496-1.828-3.733-6.543-11.898-17.39-11.898-17.39s9.682-5.504 14.49-8.869zM156.21 69.538c1.637-2.48 8.072-7.118 11.436-9.265 2.407-1.537 6.301-4.117 10.972-5.484a22.05 22.05 0 0 1 4.902-.878c.331-.02.667-.032 1.007-.032 0 0 4.812.384 10.486 1.727 0 0-7.809 4.286-11.315 6.761-3.507 2.471-10.272 7.887-11.037 8.643 0 0-1.221 1.504-2.487 1.577-1.266.077-14.013-.586-14.013-.586s-1.589.016.049-2.463z" fill="#0082C8"/><path d="M220.002 81.08c4.141-2.896 8.667-6.67 9.827-7.644 1.525 1.02 8.331 5.59 10.705 7.49 4.04 3.227 7.433 5.48 7.466 5.5l.044.028.049.02c.048.02.105.045.157.065.413.8.72 1.856.34 2.912-.772 2.156-4.715 6.212-8.549 8.743-3.705 2.443-10.766 8.097-20.112 9.836-1.516-.425-2.265-1.209-2.402-1.367-3.288-5.747-10.013-14.854-11.578-16.957 2.022-1.165 9.896-5.715 14.053-8.627zM188.017 80.954c.433.239.813.453 1.132.619-1.197 3.243-2.341 9.302-2.746 11.55-3.971-2.208-9.532-5.306-14.235-7.93l2.616-8.437c5.173-.283 10.41 2.63 13.233 4.198zM173.514 76.89c.106-.016.211-.029.32-.045l-2.601 7.826c-3.409-1.901-6.244-3.486-7.497-4.186 1.346-.861 4.8-2.786 9.778-3.595zM170.141 72.102c.858-.053 1.832-1.028 2.136-1.4l.016-.02.02-.016c.809-.805 7.474-6.414 11.097-8.7 7.118-4.488 9.29-5.386 11.199-6.453-5.047-1.165-9.322-1.57-9.993-1.626-1.169.161-2.686.493-4.68.93-4.861 1.197-8.99 3.923-11.651 5.625l-.38.243c-3.781 2.414-9.783 6.839-11.291 9.12-.821 1.241-.643 1.613-.639 1.625.036.069.174.081.174.081h.032c4.404.235 12.982.651 13.96.59z" fill="#94DAEE"/><path d="M272.661 115.317s-1.585-6.644-1.699-7.368c-.113-.724 1.084-5.023-2.03-8.42 2.006.239 3.446 3.814 4.902 6.56.101 2.05.153 6.64-1.173 9.228zM253.492 128.469s-1.844-1.783-3.462-3.009c-1.614-1.225-2.665-1.601-4.748-1.625-2.079-.021-5.306.072-6.891-.247-1.585-.32-2.871-.562-3.883-.696-1.011-.137-1.844-.157-1.164.975.679 1.132 1.52 3.547 4.008 4.238 2.487.692 3.829.789 6.939.813 3.11.028 9.201-.449 9.201-.449z" fill="#E1E8EC"/><path d="M258.466 127.689c.433-.025.866-.13 1.29-.308l.348-.145c1.945-.821 4.36-1.844 6.519-3.664 1.848-1.561 3.078-2.771 3.757-3.701.599-.821.846-1.686.748-2.649-.093-.906-.392-3.676-.566-5.249-.72 1.108-1.998 2.981-3.377 4.538-1.168 1.318-3.631 3.716-7.02 4.994-.235.089-.469.182-.704.279-.23.093-.461.186-.691.271a79.81 79.81 0 0 1-6.758 2.196l4.493 2.993c-.004.004.801.513 1.961.445zM243.608 136.343c1.354-.166 4.853-.501 6.527-.797.275-.048.546-.141.651.623.109.764-.954.922-.954.922-1.468.219-2.839.392-3.725.437 0 0-2.649.19-2.896.202-.307.012-.534-.162-.534-.162-.125-.485.081-1.12.931-1.225zM258.721 133.641l.335.829s.32.466 1.266-.004c.943-.469 4.813-2.551 7.053-4.226 1.662-1.241 3.175-2.883 3.458-3.239.283-.356.546-1.262.558-1.589.012-.328.202-.959-.526-.114-.728.846-3.324 3.054-5.059 4.206-1.735 1.153-6.082 3.341-6.822 3.624.004.004-.405.162-.263.513z" fill="#006399"/><path d="M144.878 70.682s-.474 1.08.477 2.172c.95 1.092 3.065 2.968 3.065 2.968s.534.21-.445 1.4c-.978 1.189-1.1 1.197-1.1 1.197s-.145.17-.38.182c-.178.012-.404-.07-.655-.385-.582-.727-1.767-1.852-2.337-2.79-.425-2.406.946-4.242 1.375-4.744z" fill="#0082C8"/><path d="M206.693 101.858c-.66-.582-1.638-.117-3.195.308-4.364-2.237-9.18-4.732-12.658-6.604.056-4.38.408-10.479.55-12.828 5.225 2.81 9.24 5.77 11.691 8.63 3.054 3.563 3.608 4.57 5.666 8.323.008.012.012.024.02.036l-.157 3.878-1.917-1.743z" fill="#94DAEE"/><path d="M216.783 99.89l4.837 2.066c.178-1.185.655-2.916.117-6.026-.53-3.057-2.075-5.184-2.075-5.184s.061-2.528-1.007-5.529a5.365 5.365 0 0 0-1.5-2.244c-.845.542-1.739 1.1-2.641 1.654l2.269 15.263z" fill="#D4CDBF"/><path d="M229.522 85.124s.271-2.337-.796-5.334c-.607-1.703-1.634-2.766-2.496-3.405-1.832 1.46-4.08 3.195-6.224 4.699a82.326 82.326 0 0 1-2.843 1.889 5.375 5.375 0 0 1 1.501 2.244c1.067 3 1.007 5.529 1.007 5.529l9.851-5.622z" fill="url(#paint0_linear)"/><path d="M221.737 95.934c-.53-3.057-2.075-5.184-2.075-5.184l9.856-5.622s1.25 1.901 2.087 4.57c.534 1.699.736 4.82.558 6.002l-10.543 6.26c.178-1.185.659-2.92.117-6.026z" fill="url(#paint1_linear)"/><path d="M241.125 97.439c-2.285-.93-5.225-1.86-6.334-2.083-1.945-.392-2.64.328-2.64.328l-10.487 6.224c.218 1.132 2.447 2.891 4.703 4.238 6.164-2.439 10.879-6.111 13.674-7.955.364-.234.724-.49 1.084-.752z" fill="url(#paint2_linear)"/><path d="M208.513 93.196l3.575-2.038s.23-2.006-.684-4.578l-.024-.056c-2.415 1.44-4.522 2.653-5.431 3.178.469.627 1.403 1.889 2.564 3.494z" fill="url(#paint3_linear)"/><path d="M212.087 91.158l-3.575 2.038a276.822 276.822 0 0 1 5.197 7.417l.647-.384c.15-1.015-.02-3.692-.477-5.148-.72-2.289-1.792-3.923-1.792-3.923z" fill="url(#paint4_linear)"/><path d="M217.405 106.445c3.406-2.063 7.268-4.542 7.369-5.027.174-.829-7.045-3.138-8.901-3.494-1.857-.352-2.52.295-2.52.295l-.922.518c1.828 2.653 3.656 5.427 4.974 7.708z" fill="url(#paint5_linear)"/><path d="M230.04 90.034s2.794.736 4.546 2.147c1.751 1.412 4.064 4.117 4.064 4.117l-1.687 2.633s-5.896-2.888-7.522-3.761c-1.625-.874-3.029-3.547-3.029-3.547l3.628-1.59z" fill="#014B89"/><path d="M228.054 90.875s.922 1.553.854 2.014c-.069.461.299 1.343.299 1.343s2.831 2.155 3.619 3.267c.789 1.117 1.549 2.852 1.335 2.868-.214.016-3.223 1.229-3.223 1.229s-2.645-2.81-4.21-3.595c-1.565-.78-3.919-2.273-4.489-4.877l5.815-2.249z" fill="#1A64A3"/><path d="M238.075 84.93s.017.004.041.004c.186.029.954.138 1.298.219.392.093.619-.029 1.116.546.498.578.473.966.453 1.354-.024.389-.153.967-.279 1.1-.125.134-.178.267-.36.235-.182-.032-.263-.125-.251-.113.009.012-.242-.004-.226-.267.016-.259.158-.825.158-.825l-.146-.465s-.36-.247-.465-.215c-.105.033-1.108.081-1.108.081s-1.403.101-1.933-.036c-.534-.138-5.071-1.274-5.492-1.553-.417-.283-1.998-2.313-2.661-2.977-.663-.663-.902-2.887-1.286-3.004-.38-.114-1.262-.057-1.262-.057l-.667-1.343s1.86-1.868 3.037-.914c1.177.95 1.569 1.521 1.763 1.776.194.255 2.18 3.805 2.73 4.21.554.404 4.149 1.981 4.715 1.973.405 0 .825.271.825.271z" fill="#F2A983"/><path d="M227.933 80.826s1.933 2.3 2.519 2.685c.583.384 1.351-.51 1.206 0-.146.51.036 1.023.238 1.132.202.11 4.505 1.19 4.801 1.278.295.09 1.399-.667 1.961-.327a.924.924 0 0 1 .425.946c-.328.024-.773.044-.773.044s-1.403.102-1.933-.036c-.534-.137-5.071-1.274-5.492-1.553-.416-.283-1.998-2.313-2.661-2.976-.194-.195-.352-.522-.489-.89l.198-.303z" fill="#D88F69"/><path d="M226.295 76.43s1.189-.474 2.063.29c.873.77 2.527 3.212 2.527 3.212s-1.698 2.637-2.98 2.98c-1.286.344-1.61-6.483-1.61-6.483z" fill="#F6C100"/><path d="M227.136 79.681c.226-.465 1.476-.388 1.808.566.198.579.441 1.104.602 1.428-.521.574-1.116 1.1-1.642 1.241-.538.142-.958-.954-1.274-2.28.235-.45.433-.813.506-.955z" fill="#DDA800"/><path d="M223.577 80.652c1.788.327 3.013.242 3.264-.732.251-.975-.813-3.021-.813-3.021l-.32-.101a142.39 142.39 0 0 1-3.494 2.685c.178.513.562 1.023 1.363 1.169z" fill="#D88F69"/><path d="M227.832 86.204c-.028-.368-.235-2.087-.235-2.087.332-.445.874-1.678.773-3.708-.101-2.03-1.395-3.822-1.395-3.822s-.478-.097-.866-.11c-.137.11-.283.223-.424.337.012.012.016.024.028.036.566.643.942 2.41-.17 3-.991.526-1.864-.064-2.402-.606l-.263-.263c-.95.716-1.921 1.428-2.875 2.095-.437.308-.914.631-1.424.967.17 2.09 2.285 5.637 2.718 6.349.501.825 1.181 5.379 1.181 5.379.675-.57 3.312-.947 5.5-1.61 2.192-.663 2.394-2.171 2.394-2.171s-.538-.292-.87-.62c-.327-.323-1.638-2.798-1.67-3.166z" fill="#F6C100"/><path d="M226.283 77.918c.74-.182.522-.813.526-1.278.004-.239.036-.51.068-.777-.764.615-1.621 1.294-2.531 1.998.695.166 1.435.182 1.937.057z" fill="#F2A983"/><path d="M226.643 77.744c.299-.271.166-.74.17-1.104.004-.239.036-.51.068-.777-.016.012-.028.025-.044.037.028.15.032.34-.182.36-.235.02-.093.428-.101.691 0 .142.028.49.089.793z" fill="#D88F69"/><path d="M221.911 84.287c-.105 1.096-.036 1.678.453 2.596.485.918.421 1.796 1.266 2.285.845.49 1.589-.028 2.447 0 .857.025.788-.012.695.566-.093.575-.044.923.672.716.719-.21 1.73-.546 1.532-.068-.157.384-2.099 1.516-2.721 2.252-.579.142-1.145.271-1.659.397a55.069 55.069 0 0 1-2.313-.47c-.238-1.411-.651-3.607-.982-4.157-.462-.76-2.662-4.004-2.544-6.006l2.374-.279c0-.008.885 1.072.78 2.168z" fill="#DDA800"/><path d="M234.194 94.337c.457 0 1.002-.142 1.609-.437 2.095-1.023 4.125-3.526 4.53-5.593.287-1.468-.32-2.317-1.452-2.317-.457 0-1.003.141-1.61.437-2.095 1.023-4.125 3.526-4.529 5.593-.287 1.468.323 2.317 1.452 2.317zm-.53-2.144c.339-1.718 2.111-3.894 3.874-4.755.453-.223.87-.336 1.201-.336.259 0 .445.069.558.206.174.21.215.627.118 1.136-.34 1.72-2.112 3.895-3.875 4.757-.453.222-.869.34-1.201.34-.259 0-.445-.07-.558-.207-.174-.214-.218-.631-.117-1.14z" fill="#39464A"/><path d="M248.591 89.452c.376-1.044.076-2.087-.328-2.884-3.005-.032-9.443 4.497-15.768 8.266-6.127 3.652-12.517 8.954-15.125 11.55.052.094.109.187.157.275.138.158.886.943 2.403 1.367 9.346-1.739 16.407-7.388 20.111-9.835 3.834-2.528 7.777-6.584 8.55-8.74z" fill="url(#paint6_linear)"/><path d="M247.017 91.947c-.339-2.014-1.751-3.818-1.751-3.818s-3.102-2.297-8.088 0c-4.987 2.297-5.747 7.239-5.747 7.239v.097c2.944 1.395 6.499 2.338 9.775 1.909 2.232-1.634 4.388-3.668 5.811-5.427z" fill="url(#paint7_linear)"/><path d="M224.475 100.124s-.461-2.867 2.819-4.626c3.28-1.76 5.88-.441 5.88-.441s4.141 2.835-.91 5.565c-5.047 2.729-7.789-.498-7.789-.498z" fill="url(#paint8_linear)"/><path d="M221.798 93.075c.251.275 1.108.955 1.278 1.408.17.453.384 1.14.307 1.605-.077.47-.04 1.076-.287 1.145-.247.068-.364.02-.364.02s-.02.32-.34.307c-.315-.012-.275-.141-.275-.141s-.258.198-.4.153c-.142-.044-.202-.542-.202-.542s-.227-1.168-.271-1.27c-.041-.1-.251-.659-.259-.465-.008.19.202.927.247 1.173.044.247.214.66.068.692-.145.028-.481-.376-.582-.724-.101-.348-.51-1.145-.518-1.383-.008-.235.126-1.218-.052-1.468-.178-.251-2.022-1.97-2.499-3.03-.478-1.063-.486-1.083-.567-1.564-.068-.417.146-.959.146-.959s.243-2.855.639-3.623c.396-.769.619-1.258.639-1.493.02-.234.206-1.168.942-1.261.736-.094 2.156 1.189 2.196 1.698.041.51-.57 1.064-.833 1.666-.263.603-.857 4.048-.857 4.048s1.387 3.507 1.844 4.008z" fill="#F2A983"/><path d="M223.096 97.232c-.246.07-.364.02-.364.02s-.02.32-.339.308c-.316-.012-.275-.142-.275-.142s-.259.199-.401.154c-.141-.044-.202-.542-.202-.542s-.166-.853-.243-1.165c.061-.194.579-.036.579-.036s.109-.101.348-.206c.238-.105.546-.04.546-.04s.137-.041.497-.166a.464.464 0 0 1 .101-.025c.049.251.073.494.04.7-.076.461-.04 1.072-.287 1.14zM220.467 95.805c.259 0 .502.028.619.04.057.24.122.49.146.615.044.247.214.66.069.692-.146.028-.482-.376-.583-.724-.044-.15-.149-.384-.251-.623z" fill="#D88F69"/><path d="M221.778 81.89c-.207-.688-.615-1.089-1.048-1.323-.242.174-.485.348-.724.513-.614.429-1.314.898-2.058 1.383-.231 1.052-.174 2.023-.174 2.023 1.646-.38 3.349.643 3.349.643s1.079-1.828.655-3.24z" fill="#F6C100"/><path d="M196.352 85.69a62.953 62.953 0 0 0-4.897-2.92l-.069.04c-.125 2.055-.396 6.758-.505 10.79l5.779-3.43c.129-.877.02-2.98-.308-4.48z" fill="url(#paint9_linear)"/><path d="M204.137 92.613c-.316-.38-.663-.792-1.052-1.245-.877-1.023-1.953-2.055-3.215-3.09-.821-.259-1.52-.453-1.933-.538-1.67-.335-2.265.283-2.265.283l-4.699 2.79a189.17 189.17 0 0 0-.137 4.757c1.423.768 3.077 1.638 4.828 2.556 1.877-1.117 6.059-3.774 8.473-5.513z" fill="url(#paint10_linear)"/><path d="M199.814 98.651s.053-2.171-.861-4.744c-1.024-2.875-3.939-3.13-3.939-3.13l1.124 7.583a851.64 851.64 0 0 0 4.824 2.499c-.537-1.363-1.148-2.208-1.148-2.208z" fill="#D4CDBF"/><path d="M206.046 95.096c-.724-1.047-1.589-2.131-2.96-3.733-.918-1.067-2.051-2.151-3.385-3.235l-4.687 2.649s2.915.25 3.939 3.13c.914 2.572.861 4.744.861 4.744l6.232-3.555z" fill="url(#paint11_linear)"/><path d="M206.693 101.858l1.917 1.747.158-3.878a.135.135 0 0 0-.021-.036c-1.136-2.07-1.815-3.304-2.705-4.594l-6.232 3.554s.611.846 1.144 2.208c.854.441 1.707.878 2.54 1.307 1.561-.425 2.54-.89 3.199-.308z" fill="url(#paint12_linear)"/><path d="M198.419 88.37c.259.304.287 1.926.283 2.739.073-.012.145-.033.218-.06l2.443-1.46a34.092 34.092 0 0 0-3.009-2.492c-.611.368-1.096.66-1.246.748.441-.077 1.003.162 1.311.526z" fill="url(#paint13_linear)"/><path d="M197.113 87.841c.436-.068.995.166 1.306.53.259.303.287 1.925.283 2.738-.283.049-.518-.012-.518-.012s-1.48-.797-1.682-1.157c-.202-.36.562-2.066.562-2.066s.02-.016.049-.033z" fill="#D4CDBF"/><path d="M208.707 101.252l-1.622.962 1.529 1.391.093-2.353z" fill="url(#paint14_linear)"/><path d="M180.681 82.507c-1.024-2.875-3.939-3.13-3.939-3.13l1.35 9.12c1.776.99 3.531 1.97 5.165 2.875-.502-2.446-1.715-4.12-1.715-4.12s.053-2.172-.861-4.745z" fill="#D4CDBF"/><path d="M188.611 83.22l-7.069 4.031s1.209 1.679 1.715 4.121l3.146 1.752c.344-1.91 1.217-6.556 2.208-9.905z" fill="url(#paint15_linear)"/><path d="M188.611 83.22c.178-.595.356-1.157.538-1.647-.319-.165-.7-.376-1.132-.618-1.828-1.02-4.679-2.597-7.866-3.507l-3.413 1.93s2.915.25 3.939 3.13c.914 2.572.861 4.743.861 4.743l7.073-4.032z" fill="url(#paint16_linear)"/><path d="M180.317 77.496c.105.631.117 1.63.117 2.209.073-.013.146-.033.218-.061l2.14-1.278a25.94 25.94 0 0 0-2.475-.87z" fill="url(#paint17_linear)"/><path d="M178.234 78.536c.202.36 1.682 1.157 1.682 1.157s.235.06.518.012c0-.582-.012-1.577-.117-2.208-.579-.17-1.165-.32-1.764-.437-.202.526-.44 1.254-.319 1.476z" fill="#D4CDBF"/><path opacity=".45" d="M188.017 80.954c.433.239.813.453 1.132.62-1.197 3.243-2.341 9.3-2.746 11.55a11643.99 11643.99 0 0 1-14.235-7.931l2.616-8.436c5.173-.284 10.41 2.628 13.233 4.197zM220.002 81.08c4.141-2.896 8.667-6.67 9.827-7.644 1.525 1.02 8.331 5.59 10.705 7.49 4.04 3.227 7.433 5.48 7.466 5.5l.044.028.049.02c.048.02.105.045.157.065.413.801.72 1.856.34 2.912-.772 2.156-4.715 6.212-8.549 8.744-3.705 2.442-10.766 8.096-20.112 9.835-1.516-.425-2.265-1.209-2.402-1.367-3.288-5.747-10.013-14.854-11.578-16.957 2.022-1.165 9.896-5.715 14.053-8.626zM206.693 101.858c-.66-.582-1.638-.117-3.195.308-4.364-2.237-9.18-4.732-12.658-6.604.056-4.38.408-10.479.55-12.828 5.225 2.81 9.24 5.77 11.691 8.63 3.054 3.563 3.608 4.57 5.666 8.323.008.012.012.024.02.036l-.157 3.878-1.917-1.743z" fill="#94DAEE"/><path d="M293.878 46.351h-2.737v53.759h2.737V46.351zM353.572 48.375h-2.737v53.759h2.737v-53.76z" fill="#5F6464"/><path d="M360.465 22.069h-76.93c-2.5 0-4.535 2.015-4.535 4.492v43.628c0 2.476 2.035 4.492 4.535 4.492h76.93c2.5 0 4.535-2.016 4.535-4.492V26.56c0-2.477-2.035-4.492-4.535-4.492z" fill="#004EBB"/><path d="M360.465 23.423c1.742 0 3.17 1.412 3.17 3.14V70.19c0 1.726-1.426 3.14-3.17 3.14h-76.93c-1.742 0-3.17-1.413-3.17-3.14V26.56c0-1.725 1.426-3.139 3.17-3.139h76.93v.002zm0-1.354h-76.93c-2.5 0-4.535 2.015-4.535 4.492v43.628c0 2.476 2.035 4.492 4.535 4.492h76.93c2.5 0 4.535-2.016 4.535-4.492V26.56c0-2.477-2.035-4.492-4.535-4.492z" fill="#fff"/><g clip-path="url(#clip0)"><path d="M344.057 61.59h-.015v-.148l.015.149z" fill="#000"/><path d="M327.485 58.78l-.03-.03a.733.733 0 0 1-.029-.03l-.03-.03-.03-.03-.03-.03-.03-.03-.029-.029a8.4 8.4 0 0 0-.03-.03l-.03-.03-.03-.03-.03-.029-.029-.03a8.4 8.4 0 0 0-.03-.03l-.03-.03-.03-.03-.02-.02v-.019c.01-.482.04-.973.065-1.45.03-.482.054-.973.064-1.465a.2.2 0 0 0-.069-.149l-.03-.03a8.4 8.4 0 0 0-.03-.03l-.029-.03-.03-.03a8.4 8.4 0 0 0-.03-.029l-.03-.03a8.4 8.4 0 0 0-.059-.06l-.03-.03-.03-.029-.03-.03-.03-.03a.804.804 0 0 1-.029-.03l-.03-.03-.03-.029-.03-.03-.03-.03a.733.733 0 0 1-.029-.03l-.03-.03a8.4 8.4 0 0 1-.06-.059l-.03-.03-.029-.03a8.4 8.4 0 0 1-.03-.03l-.03-.029a8.4 8.4 0 0 1-.03-.03l-.03-.03-.029-.03-.03-.03-.03-.029a8.4 8.4 0 0 0-.03-.03l-.03-.03-.029-.03-.03-.03a8.4 8.4 0 0 0-.03-.029l-.03-.03-.03-.03-.029-.03-.03-.03-.03-.029-.03-.03-.03-.03-.029-.03-.03-.03-.03-.029-.03-.03-.03-.03-.029-.03a8.4 8.4 0 0 1-.03-.03l-.03-.029a8.4 8.4 0 0 1-.03-.03.18.18 0 0 0-.144-.074c-1.753-.065-3.6-.11-5.646-.14-2.995-.044-6.044-.044-8.989-.049-3.551-.005-7.201-.01-10.826-.084.114-.76.263-1.465.447-2.126.258-.928.611-1.852.948-2.746.487-1.276.994-2.597 1.237-3.973.07-.377.119-.77.154-1.177l25.029.576c.065 0 .129-.03.164-.084.492-.75 2.001-2.707 3.104-2.791.745-.055 1.515-.174 2.259-.288.477-.075.959-.15 1.441-.209-.035.343-.075.686-.11 1.028-.029.293-.059.596-.198.844-.318.577-1.073.88-1.872 1.202-1.053.427-2.146.864-2.394 2.006-.239 1.103-.432 2.628.015 3.626.059.134.139.243.223.333l.03.03.03.03.03.029.029.03a8.4 8.4 0 0 1 .06.06l.03.03.03.029.029.03a8.4 8.4 0 0 1 .06.06l.03.03.03.029.029.03a8.4 8.4 0 0 0 .06.06l.03.029.03.03.029.03.03.03.03.03.03.029.03.03.029.03.03.03.03.03.03.029.03.03.029.03.03.03.03.03.03.029.03.03.029.03.03.03.03.03.03.029.029.03.03.03.03.03.03.03.03.029.029.03.03.03.03.03.03.03.03.029.029.03.03.03.03.03.03.03c.343.367.879.381 1.4.391.254.005.507.01.745.055.293.551.551 1.142.8 1.718.422.979.859 1.987 1.485 2.846.134.179.273.348.427.492l.029.03.03.03.03.029.03.03.03.03.029.03.03.03.03.029.03.03.03.03.029.03.03.03.03.029.03.03.03.03.029.03.03.03.03.029.03.03.03.03.029.03.03.03.03.029.03.03.03.03.029.03.03.03.03.029.03.03.03.03.029.03.03.03.03.029.03.03.03.03.029.03.03.029a8.4 8.4 0 0 0 .06.06l.03.03.029.03a8.4 8.4 0 0 0 .09.089l.03.03.029.03.03.029.03.03.03.03.03.03.029.03c.447.441.964.724 1.5.814h.015a18.12 18.12 0 0 0-.77.586 3.277 3.277 0 0 0-.134.114c-.208.189-.417.407-.611.616a9.895 9.895 0 0 1-.645.645l-.005-.005-.03-.03-.03-.03-.03-.03-.029-.029-.03-.03-.03-.03-.03-.03-.03-.03-.029-.029-.03-.03-.03-.03-.03-.03-.03-.03-.029-.029a8.4 8.4 0 0 1-.03-.03l-.03-.03-.03-.03-.03-.029-.029-.03-.03-.03-.03-.03a8.4 8.4 0 0 0-.06-.059l-.029-.03-.03-.03-.03-.03-.03-.03a8.4 8.4 0 0 0-.059-.059l-.03-.03-.03-.03-.03-.03-.03-.029a.804.804 0 0 0-.029-.03l-.03-.03-.03-.03-.03-.03a8.4 8.4 0 0 1-.089-.09l-.03-.028-.03-.03-.029-.03a8.4 8.4 0 0 1-.03-.03l-.03-.03-.03-.03a2.06 2.06 0 0 0-.874-.57c-.407-.145-.844-.18-1.246-.18-.214 0-.413.01-.601.02h-.03c-.571.026-1.157.055-1.689-.109a.191.191 0 0 0-.163.025.182.182 0 0 0-.085.14 4.43 4.43 0 0 0-.015.416c-.005.293-.015.979-.119 1.093-.084.084-.497.03-.695 0-.119-.015-.234-.035-.323-.035-.551-.015-1.058.01-1.53.07a1.96 1.96 0 0 0-.402-.596l-.03-.03-.029-.03-.03-.03-.03-.03-.03-.03-.03-.029-.029-.03-.03-.03-.03-.03-.03-.03-.03-.029-.029-.03-.03-.03-.03-.03-.03-.03-.03-.029-.029-.03-.03-.03-.03-.03-.03-.03-.03-.029-.029-.03-.03-.03a8.4 8.4 0 0 0-.03-.03l-.03-.03-.03-.029-.029-.03-.03-.03-.03-.03a8.4 8.4 0 0 0-.03-.03l-.03-.029-.029-.03-.03-.03-.03-.03c.015.01.005 0-.005-.004zm15.628-2.022a1.492 1.492 0 0 0-.228-.377c-.045-.05-.089-.1-.134-.144l-.03-.03-.03-.03a.804.804 0 0 1-.029-.03l-.03-.03-.03-.029-.03-.03-.03-.03a.804.804 0 0 1-.029-.03l-.03-.03-.03-.029-.02-.02c.194-.01.373.025.531.08.06.139.1.273.125.407.034.139.039.253.024.352zM338.172 65.434c-.308.025-.626.055-.864.14-.313.109-.586.238-.824.352-.383.183-.705.332-1.068.372.447-.452 1.068-.784 1.813-.958a4.56 4.56 0 0 1 1.057-.124c.244 0 .492.025.73.07-.183.093-.541.123-.844.148z" fill="#2B4DFD"/><path d="M326.114 54.266l-.029-.03a8.4 8.4 0 0 0-.06-.06l-.03-.03a8.4 8.4 0 0 0-.059-.06l-.03-.029-.03-.03-.03-.03-.03-.03a.804.804 0 0 0-.029-.03l-.03-.029-.03-.03-.03-.03a8.4 8.4 0 0 1-.03-.03l-.029-.03-.03-.029-.03-.03a.18.18 0 0 0-.144-.074c-1.753-.065-3.6-.11-5.646-.14-2.995-.044-6.044-.044-8.989-.049-3.69-.005-7.494-.01-11.258-.09a18.74 18.74 0 0 1 .496-2.497c.259-.929.611-1.853.949-2.747.487-1.276.993-2.597 1.236-3.972.07-.378.12-.77.154-1.177l25.03.576c.064 0 .129-.03.163-.085.492-.75 2.002-2.706 3.104-2.79.745-.055 1.515-.175 2.26-.289a39.185 39.185 0 0 1 1.867-.253c-.05.487-.104.973-.154 1.455-.03.293-.059.596-.198.844-.318.576-1.073.88-1.873 1.202-1.052.427-2.145.864-2.393 2.006-.239 1.103-.432 2.627.015 3.626.059.134.139.243.223.332l.03.03.03.03.029.03.03.03.03.03.03.03.03.029.029.03.03.03.03.03.03.03.03.029.029.03.03.03.03.03.03.03.03.029.029.03.03.03.03.03.03.03.03.029.029.03.03.03.03.03.03.03.03.029.029.03.03.03.03.03.03.03a8.4 8.4 0 0 1 .119.118l.03.03a8.4 8.4 0 0 0 .059.06c.343.367.879.382 1.401.392.323.005.65.015.948.104.02.04.045.075.065.114.343.611.636 1.287.919 1.942.422.978.859 1.987 1.484 2.846a3.815 3.815 0 0 0 .457.521 8.4 8.4 0 0 0 .12.12l.029.03.03.029.03.03.03.03.029.03.03.03.03.029.03.03.03.03.029.03.03.03.03.029.03.03.03.03.029.03.03.03.03.029.03.03.03.03.029.03a14853784547.999 14853784547.999 0 0 0 .12.118l.029.03a8.4 8.4 0 0 0 .09.09l.03.03.029.03.03.03.03.029.03.03c.442.442.963.725 1.5.814.332.055.665.035.993-.03-.472.313-.929.646-1.361.998-.045.035-.089.075-.134.115-.209.188-.417.407-.611.616-.223.233-.447.476-.68.67a2.08 2.08 0 0 0-.209-.273l-.03-.03-.029-.03a8.4 8.4 0 0 0-.03-.03l-.03-.03-.03-.03-.03-.029-.029-.03a8.4 8.4 0 0 0-.03-.03l-.03-.03-.03-.03-.03-.029a.804.804 0 0 0-.029-.03l-.03-.03-.03-.03-.03-.03-.03-.029a.804.804 0 0 0-.029-.03l-.03-.03-.03-.03-.03-.03-.03-.029-.029-.03-.03-.03-.03-.03a8.4 8.4 0 0 1-.03-.03l-.029-.029a8.4 8.4 0 0 1-.03-.03l-.03-.03-.03-.03-.03-.029-.029-.03-.03-.03-.03-.03-.03-.03-.03-.029-.029-.03-.03-.03-.03-.03a2.066 2.066 0 0 0-.874-.57c-.407-.145-.844-.18-1.247-.18-.213 0-.412.01-.6.02h-.03c-.571.025-1.157.055-1.689-.109a.194.194 0 0 0-.164.025.184.184 0 0 0-.084.14 4.43 4.43 0 0 0-.015.416c-.005.293-.015.979-.119 1.093-.085.084-.497.03-.695 0-.12-.015-.234-.035-.323-.035a9.49 9.49 0 0 0-1.773.11 2.009 2.009 0 0 0-.546-1.014l-.03-.03-.03-.03-.03-.03-.03-.029a.804.804 0 0 0-.029-.03l-.03-.03-.03-.03-.03-.03-.03-.029-.029-.03a8.4 8.4 0 0 1-.03-.03l-.03-.03a8.4 8.4 0 0 1-.03-.03l-.03-.029-.029-.03a8.4 8.4 0 0 1-.03-.03l-.03-.03-.03-.03-.03-.029-.029-.03a8.4 8.4 0 0 0-.03-.03l-.03-.03-.03-.029-.029-.03-.03-.03a8.4 8.4 0 0 0-.03-.03l-.03-.03-.03-.029-.029-.03-.03-.03-.03-.03-.03-.03-.03-.029a.804.804 0 0 1-.029-.03l-.03-.03-.03-.03-.03-.03-.03-.029c-.049-.05-.099-.094-.149-.139a1.731 1.731 0 0 0-.223-.149v-.104c.01-.482.04-.974.064-1.45.03-.482.055-.974.065-1.465 0-.06-.03-.115-.074-.15l-.03-.03-.03-.029-.03-.03-.03-.03-.029-.03-.03-.03-.03-.029a8.4 8.4 0 0 1-.06-.06l-.029-.03-.03-.03-.03-.029a8.4 8.4 0 0 1-.03-.03l-.03-.03-.029-.03-.03-.03a8.4 8.4 0 0 0-.03-.029l-.03-.03a8.4 8.4 0 0 0-.03-.03c.015.005.005-.005-.005-.014zm16.985 2.145c.084.437-.045.66-.343.844.01-.025.025-.05.035-.074.124-.373.015-.825-.283-1.182-.045-.05-.09-.1-.135-.144l-.029-.03-.03-.03a8.4 8.4 0 0 1-.03-.03l-.03-.03-.03-.03-.029-.03-.03-.029-.03-.03-.03-.03-.029-.03-.02-.02c.298-.014.566.08.769.18.005 0 .005.005.01.005.124.233.219.467.264.69zM334.954 66c.452-.491 1.108-.854 1.892-1.043a4.57 4.57 0 0 1 1.058-.124c.422 0 .844.065 1.227.219a.214.214 0 0 1-.005.149c-.09.164-.571.203-.954.238-.308.025-.626.055-.864.14-.313.108-.586.238-.824.352-.591.278-1.033.486-1.709.328a.99.99 0 0 1 .179-.259z" fill="#fff"/><path d="M334.572 65.618c.452-.492 1.107-.854 1.892-1.043.804-.193 1.807-.198 2.552.219.02.03.04.06.055.094.05.1.094.233.055.308-.09.164-.571.204-.954.238-.308.025-.626.055-.864.14-.313.109-.586.238-.824.352-.646.303-1.108.526-1.902.278-.09-.03-.174-.06-.259-.094.005-.154.09-.318.249-.492zM344.737 64.386c-.094.234-.183.433-.342.527-.189.114-.452.07-.725.015-.04-.01-.085-.015-.125-.02.11-.045.209-.094.293-.149.368-.233.626-.487.85-.71.104-.105.203-.199.298-.278l-.249.615z" fill="#2B4DFD"/><path d="M333.936 59.565h.03c.516-.025 1.152-.055 1.708.139.03.01.065.03.095.04.213.178.377.416.412.695l.015.114c.064.546.119 1.018.496 1.197.065.03.124.044.189.05l.03.03.03.029.029.03.03.03c.04.034.08.069.129.094.065.03.134.044.204.044.213 0 .432-.124.596-.228.372-.243.705-.596 1.028-.938.193-.204.392-.418.591-.591a16.772 16.772 0 0 1 2.607-1.783c.184-.1.377-.184.571-.264.621-.258 1.321-.546 1.132-1.534-.069-.358-.243-.73-.481-1.073-.308-.63-.855-1.221-1.46-1.53-.572-.292-1.143-.317-1.654-.079a.32.32 0 0 0-.184.268.32.32 0 0 0 .144.293l.085.06c.243.159.491.323.66.526.184.219.258.492.189.69-.095.284-.447.463-.815.616-.645.269-1.326.517-1.981.408-.775-.13-1.311-.73-1.564-1.073-.08-.104-.149-.214-.224-.323-.357-.63-.655-1.316-.943-1.986-.289-.666-.582-1.351-.939-1.977-.094-.164-.194-.342-.303-.511-.214-.383-.462-.805-.849-1.118-.517-.417-1.152-.432-1.714-.446-.446-.01-.759-.025-.953-.164-.298-.91-.124-2.21.089-3.179.209-.943 1.157-1.33 2.166-1.733.824-.333 1.678-.675 2.061-1.37.173-.318.208-.676.243-.989.05-.511.104-1.023.159-1.54.049-.446.094-.898.139-1.34a.186.186 0 0 0-.045-.144c-.005-.005-.015-.01-.02-.015-.005-.005-.005-.01-.005-.015-.005-.005-.015-.01-.02-.015-.005-.005-.005-.01-.005-.015a.085.085 0 0 0-.024-.015c-.005-.005-.005-.01-.005-.01-.005-.005-.015-.01-.02-.014-.005-.005-.005-.01-.005-.015-.005-.005-.015-.01-.02-.015-.005-.005-.005-.01-.005-.015-.005-.005-.015-.01-.02-.015-.005-.005-.005-.01-.005-.015-.005-.005-.015-.01-.02-.015-.005-.005-.005-.01-.005-.015v-.015a.311.311 0 0 0-.079-.243.308.308 0 0 0-.234-.11c-1.127-.034-2.304.15-3.441.324-.735.114-1.495.233-2.22.283-1.4.104-2.96 2.234-3.397 2.87l-25.034-.576c-.174.005-.318.13-.328.298-.034.452-.084.889-.159 1.306-.238 1.326-.735 2.627-1.211 3.883-.343.904-.7 1.838-.964 2.791-.318 1.153-.536 2.429-.655 3.909-.005.09.02.174.079.243.06.065.144.104.234.11h.069c0 .004.005.004.005.01l.02.014c.005.005.005.01.01.015.005.005.015.01.02.015.005.005.005.01.01.015.005.005.015.01.02.015.005.005.005.01.01.015.004.005.014.01.019.015.005.005.005.01.01.014.005.005.015.01.02.015.005.005.005.01.01.015.005.005.015.01.02.015.005.005.005.01.01.015.035.04.084.065.139.065 4.246.119 8.567.124 12.743.129 2.945.005 5.989.005 8.984.05 1.768.024 3.382.064 4.921.114l-.045.889c-.029.481-.054.978-.064 1.47-.005.178-.01.377.059.585.149.467.552.7.924.894.159.12.343.214.527.308l.059.03c.373.298.487.785.522 1.048a5.17 5.17 0 0 1-.005 1.321.318.318 0 0 0 .367.357l.01.01c.01.01.015.02.025.03.01.01.015.02.025.03.01.01.015.02.025.03.009.01.014.02.024.03.01.01.015.02.03.03h.005c.01.01.015.02.025.03.01.01.015.02.025.029.049.04.119.055.184.03l.188-.07c.785-.283 1.699-.407 2.806-.377.07 0 .174.015.283.03.378.05.805.109 1.023-.115.194-.198.214-.685.224-1.355 0-.055 0-.11.005-.16.486.09 1.028.065 1.549.04zm-6.992-1.5a3.617 3.617 0 0 0-.606-.363c-.174-.09-.333-.169-.452-.263-.01-.09-.01-.189-.01-.288.01-.482.04-.973.065-1.445.029-.482.054-.974.064-1.465 0-.06-.03-.114-.069-.15l-.03-.029a8.4 8.4 0 0 0-.03-.03l-.03-.03-.03-.03a.804.804 0 0 0-.029-.03l-.03-.029-.005-.005v-.05a.321.321 0 0 0-.313-.327c-1.753-.065-3.605-.11-5.651-.14-2.995-.044-6.044-.044-8.989-.049-3.968-.005-8.06-.01-12.097-.11.124-1.151.312-2.174.571-3.108.258-.929.61-1.852.948-2.746.487-1.277.993-2.598 1.237-3.973.069-.378.119-.77.154-1.177l25.029.576c.064 0 .129-.03.164-.085.491-.75 2.001-2.706 3.104-2.79.744-.055 1.514-.174 2.259-.288.854-.135 1.733-.269 2.587-.308l-.074.715c-.055.516-.109 1.033-.159 1.55-.03.277-.06.57-.179.794-.293.536-1.028.83-1.802 1.142-1.038.417-2.21.894-2.474 2.1-.352 1.63-.347 2.88.025 3.71.164.363.422.551.725.65.343.343.864.358 1.376.368.353.01.71.02 1.023.13.263.248.452.585.641.913.337.606.63 1.276.913 1.932.427.983.864 2.001 1.5 2.87.363.497.8.87 1.276 1.098.348.253.725.422 1.113.487.789.134 1.584-.16 2.264-.442.482-.199.944-.447 1.103-.929.124-.373.015-.824-.283-1.182-.005-.005-.01-.015-.02-.02a1.606 1.606 0 0 0-.253-.432c.183.015.347.065.491.13.492.382.904.987 1.008 1.524.105.531-.119.67-.824.963-.204.085-.412.17-.621.283a17.39 17.39 0 0 0-2.562 1.729c-.045.04-.095.079-.139.119a10.51 10.51 0 0 0-.621.626c-.303.322-.616.65-.934.859-.064.04-.109.064-.154.089l-.029-.228-.015-.12a1.512 1.512 0 0 0-.363-.794c-.203-.497-.66-.919-1.251-1.127-.427-.15-.874-.184-1.291-.184-.214 0-.423.01-.611.02h-.03c-.556.024-1.137.054-1.644-.105a.327.327 0 0 0-.417.273 4.75 4.75 0 0 0-.015.428c-.005.253-.015.829-.084.998-.115.034-.423-.01-.581-.03-.125-.015-.244-.035-.338-.035-.929-.02-1.733.06-2.453.244a4.32 4.32 0 0 0-.04-.512 2.295 2.295 0 0 0-.452-1.117 1.833 1.833 0 0 0-.556-.755zM339.493 64.635c-.745-1.47-2.567-1.624-3.908-1.306-.884.208-1.629.62-2.145 1.187-.403.442-.408.83-.343 1.077.114.422.501.71.854.884.298.259.69.408.899.472.283.09.531.124.76.124.531 0 .953-.198 1.42-.422a8.55 8.55 0 0 1 .79-.337c.193-.07.486-.095.769-.12.547-.044 1.063-.09 1.252-.427.099-.178.084-.402-.045-.665a2.348 2.348 0 0 0-.303-.467zm-5.304.6c.452-.49 1.108-.853 1.892-1.042.77-.184 1.709-.194 2.439.164.179.154.333.347.447.58.064.135.059.2.054.204-.064.11-.605.16-.864.18-.313.024-.635.054-.889.143-.317.11-.591.244-.834.358-.621.293-1.073.506-1.818.273a2.111 2.111 0 0 1-.67-.333c-.015-.159.07-.337.243-.526zM346.232 62.847a.155.155 0 0 0-.059-.064 8.4 8.4 0 0 0-.06-.06l-.03-.03-.03-.03-.029-.03a8.4 8.4 0 0 0-.03-.03l-.015-.014a.347.347 0 0 0-.03-.174.297.297 0 0 0-.199-.154c-1.196-.283-1.668.179-2.17.67a4.385 4.385 0 0 1-.774.651c-.135.085-.353.164-.567.243-.417.154-.849.313-1.042.631a.302.302 0 0 0 .099.412c.099.06.198.11.308.154l.02.02.029.03.03.03c.015.02.035.04.055.054.462.288 1.038.363 1.594.432.228.03.442.06.641.1.168.035.337.064.506.064a.93.93 0 0 0 .497-.129c.283-.169.407-.481.496-.71l.765-1.902a.188.188 0 0 0-.005-.164zm-3.436 1.818c.248-.09.481-.179.66-.293a4.77 4.77 0 0 0 .849-.71c.288-.283.507-.497.835-.576l-.507 1.256c-.084.214-.169.397-.298.472-.154.094-.392.054-.646 0-.218-.045-.451-.075-.68-.104-.084-.01-.169-.02-.253-.035.015 0 .03-.005.04-.01z" fill="#fff"/><path d="M336.955 61.675a.483.483 0 0 1-.203-.045c-.313-.149-.363-.586-.422-1.092l-.015-.114c-.07-.576-.591-.954-1.023-1.103-.551-.194-1.192-.164-1.709-.139h-.029c-.522.025-1.063.05-1.585-.064 0 .05 0 .099-.004.158-.01.666-.03 1.153-.224 1.356-.218.224-.646.17-1.023.114-.109-.014-.214-.03-.283-.03-1.103-.024-2.021.1-2.806.378l-.189.07a.186.186 0 0 1-.183-.03.188.188 0 0 1-.07-.174c.065-.517.065-.934.005-1.356-.064-.491-.268-.894-.576-1.137-.149-.12-.328-.209-.521-.308-.393-.198-.8-.407-.939-.859-.06-.184-.055-.377-.055-.541.01-.487.04-.984.065-1.465.025-.412.05-.84.06-1.262-1.694-.06-3.482-.104-5.453-.134-2.995-.045-6.039-.045-8.984-.05-4.176-.004-8.497-.01-12.743-.129a.184.184 0 0 1-.139-.064.19.19 0 0 1-.05-.144c.124-1.47.338-2.742.656-3.884.263-.948.621-1.877.963-2.78.482-1.262.979-2.568 1.217-3.904.074-.422.129-.864.164-1.321a.194.194 0 0 1 .193-.179l25.109.581c.333-.491 1.957-2.77 3.337-2.875.73-.055 1.49-.174 2.23-.288 1.132-.174 2.299-.358 3.417-.323.054 0 .104.025.139.065.035.04.05.094.045.144-.045.442-.095.884-.139 1.33-.055.517-.11 1.034-.159 1.545-.03.318-.07.675-.244.988-.382.696-1.236 1.038-2.061 1.37-1.008.408-1.956.79-2.165 1.734-.228 1.043-.412 2.483-.01 3.392.189.422.601.452 1.257.467.541.01 1.147.024 1.633.417.388.313.636.755.85 1.142.352.63.65 1.316.933 1.977.412.958.845 1.946 1.44 2.77.457.626 1.043 1.029 1.649 1.128.69.114 1.396-.144 2.056-.417.397-.164.775-.363.889-.695.099-.293-.045-.616-.213-.815-.184-.218-.437-.387-.691-.551l-.084-.055a.188.188 0 0 1-.085-.174.187.187 0 0 1 .11-.158c.476-.224 1.008-.194 1.539.079.77.392 1.465 1.301 1.619 2.106.189.988-.511 1.28-1.132 1.534-.189.08-.388.16-.571.263a16.352 16.352 0 0 0-2.607 1.783 10.66 10.66 0 0 0-.591.591c-.323.343-.656.695-1.028.939-.134.119-.353.238-.567.238zm-2.786-2.895c.408 0 .84.035 1.247.179.7.243 1.202.8 1.276 1.415l.015.12c.04.327.085.734.209.794.025.01.129.035.427-.16.333-.218.65-.555.958-.878.199-.209.403-.427.611-.616.045-.04.089-.08.134-.114a17.188 17.188 0 0 1 2.543-1.718c.203-.11.407-.2.606-.279.68-.283 1.028-.461.904-1.112-.135-.7-.745-1.49-1.421-1.837-.213-.11-.511-.214-.834-.174.184.129.367.273.516.452.298.357.408.81.283 1.182-.158.476-.625.73-1.102.928-.68.283-1.475.571-2.265.442-.705-.119-1.38-.57-1.897-1.276-.625-.854-1.062-1.867-1.484-2.846-.284-.655-.577-1.33-.919-1.941-.209-.378-.427-.765-.76-1.033-.382-.308-.899-.318-1.4-.333-.641-.015-1.302-.03-1.595-.695-.447-1.003-.258-2.528-.014-3.626.248-1.142 1.34-1.584 2.393-2.006.8-.323 1.55-.626 1.872-1.202.134-.248.169-.55.199-.844.055-.516.104-1.033.159-1.55l.119-1.122c-1.023-.01-2.101.16-3.138.323-.745.114-1.515.233-2.26.288-1.102.08-2.617 2.041-3.104 2.791a.194.194 0 0 1-.164.084l-25.029-.575c-.035.407-.084.799-.154 1.176-.248 1.376-.75 2.697-1.236 3.973-.343.894-.691 1.818-.949 2.747-.298 1.067-.502 2.25-.621 3.615 4.177.114 8.423.12 12.53.124 2.945.005 5.994.005 8.988.05 2.046.03 3.894.074 5.647.139.104.005.184.09.184.194-.01.486-.04.983-.065 1.465-.03.476-.055.968-.064 1.45a1.28 1.28 0 0 0 .034.417c.095.298.398.457.75.635.199.105.407.209.581.348.383.303.636.795.715 1.386.05.367.06.73.025 1.147.805-.273 1.738-.393 2.846-.368.089 0 .203.02.323.035.198.03.61.084.695 0 .104-.114.114-.8.119-1.093.005-.173.005-.322.015-.417a.2.2 0 0 1 .084-.139c.05-.03.11-.04.164-.025.532.164 1.123.134 1.689.11h.029c.169-.02.373-.03.586-.03zM335.222 66.696a2.5 2.5 0 0 1-.76-.124c-.327-.105-1.102-.408-1.261-1.004-.084-.317.02-.645.318-.973.501-.551 1.227-.948 2.086-1.157 1.311-.313 3.094-.164 3.804 1.286.129.263.144.487.044.666-.188.337-.705.382-1.251.427-.283.025-.576.05-.77.119-.293.104-.546.223-.789.338-.467.223-.889.422-1.421.422zm.477-2.886c-.79.19-1.445.547-1.892 1.043-.204.224-.283.427-.233.616.074.283.461.566 1.008.74.789.248 1.256.03 1.902-.278.243-.114.516-.243.824-.353.238-.084.556-.114.864-.139.383-.034.859-.074.954-.238.044-.075-.005-.209-.055-.308-.606-1.246-2.195-1.36-3.372-1.083zM344.097 65.365c-.169 0-.338-.03-.507-.064-.198-.04-.417-.07-.64-.1-.557-.074-1.128-.149-1.595-.437a.193.193 0 0 1-.064-.263c.169-.283.586-.432.983-.581.219-.08.442-.164.586-.253.333-.214.576-.452.79-.66.496-.487.928-.91 2.066-.642a.197.197 0 0 1 .134.258l-.765 1.903c-.089.228-.219.541-.497.71a.858.858 0 0 1-.491.13zm-.427-.437c.278.055.541.1.725-.015.159-.094.248-.298.342-.526l.681-1.694c-.765-.124-1.048.15-1.49.586-.229.224-.487.477-.849.71-.179.115-.413.2-.661.294-.223.084-.467.173-.631.273.358.154.795.208 1.217.263.219.035.452.064.666.11z" fill="#fff"/><path d="M339.036 59.778c-.531.477-1.023 1.142-1.594 1.515-.819.531-.849-.105-.943-.89-.07-.595-.581-1.062-1.148-1.26-.566-.2-1.182-.18-1.777-.15-.596.03-1.212.06-1.783-.114-.035.318.03 1.4-.184 1.624-.204.214-.869.03-1.162.025-.964-.025-1.957.06-2.871.392-.064.025-.124.045-.188.07.059-.477.074-.924.005-1.406-.065-.476-.268-.958-.646-1.26-.472-.373-1.217-.502-1.395-1.074-.05-.154-.045-.317-.045-.481.02-.969.114-1.942.129-2.91-1.882-.07-3.764-.115-5.641-.14-7.241-.104-14.487.025-21.727-.178.109-1.301.298-2.588.645-3.849.631-2.265 1.768-4.385 2.186-6.704.079-.442.134-.89.163-1.341l9.65.223 15.563.358s1.813-2.771 3.248-2.876c1.843-.134 3.794-.665 5.627-.61-.1.948-.204 1.922-.298 2.88-.03.313-.065.64-.219.914-.784 1.425-3.834 1.276-4.246 3.158-.218 1.013-.432 2.528.005 3.511.457 1.028 2.002.194 2.94.954.353.283.581.69.805 1.087.859 1.525 1.36 3.352 2.388 4.768.432.59 1.053 1.082 1.773 1.202.735.124 1.47-.144 2.161-.428.407-.168.854-.392.998-.809.114-.338-.02-.72-.249-.998-.223-.268-.531-.457-.814-.646 1.251-.58 2.677.919 2.89 2.046.209 1.093-.784 1.142-1.604 1.594a16.544 16.544 0 0 0-2.513 1.699c-.044.03-.084.064-.129.104zM335.654 63.627c1.257-.298 2.93-.164 3.586 1.182.487.998-1.147.695-1.872.948-1.103.388-1.659 1.008-2.846.631-.79-.248-1.609-.84-.859-1.664.521-.57 1.236-.918 1.991-1.097zM343.63 65.117c.288.06.611.114.864-.04.219-.134.328-.382.422-.62.253-.636.512-1.272.765-1.903-1.51-.352-1.589.556-2.712 1.277-.412.268-1.291.407-1.509.774.611.383 1.475.368 2.17.512z" fill="#E30613"/><path d="M292.797 35.136l-1.669-7.022h1.699l.531 2.895c.154.834.303 1.738.417 2.448h.02c.114-.76.283-1.604.457-2.468l.596-2.875h1.688l.561 2.96c.154.824.274 1.574.378 2.354h.02c.104-.78.258-1.604.407-2.439l.571-2.875h1.614l-1.813 7.022h-1.718l-.596-3.02a25.778 25.778 0 0 1-.333-2.165h-.019c-.125.79-.239 1.46-.408 2.166l-.665 3.019h-1.738zM305.088 32.166h-2.583v1.669h2.886v1.3h-4.48v-7.021h4.336v1.301h-2.742v1.46h2.583v1.291zM306.473 28.114h1.595v5.691h2.791v1.336h-4.386v-7.027zM316.56 34.938c-.293.144-.949.303-1.803.303-2.429 0-3.68-1.51-3.68-3.511 0-2.4 1.708-3.73 3.834-3.73.824 0 1.45.169 1.728.313l-.323 1.261a3.454 3.454 0 0 0-1.336-.258c-1.261 0-2.239.76-2.239 2.324 0 1.406.834 2.294 2.249 2.294.482 0 1.013-.104 1.321-.228l.249 1.232zM323.721 31.55c0 2.305-1.396 3.7-3.452 3.7-2.086 0-3.302-1.574-3.302-3.575 0-2.106 1.346-3.68 3.416-3.68 2.156.005 3.338 1.619 3.338 3.555zm-5.076.095c0 1.375.646 2.344 1.709 2.344 1.072 0 1.688-1.023 1.688-2.384 0-1.261-.606-2.344-1.698-2.344-1.073 0-1.699 1.023-1.699 2.384zM330.698 32.45a81.873 81.873 0 0 1-.064-2.886h-.03a40.327 40.327 0 0 1-.78 2.721l-.854 2.742h-1.242l-.749-2.722a33.097 33.097 0 0 1-.636-2.741h-.02c-.04.948-.074 2.031-.124 2.905l-.124 2.667h-1.47l.447-7.022h2.115l.686 2.344c.218.814.437 1.688.596 2.513h.029a62.03 62.03 0 0 1 .666-2.523l.75-2.334h2.071l.387 7.022h-1.555l-.099-2.687zM337.75 32.166h-2.582v1.669h2.885v1.3h-4.48v-7.021h4.336v1.301h-2.741v1.46h2.582v1.291zM342.19 29.45h-1.887v-1.336h5.398v1.336h-1.917v5.69h-1.594v-5.69zM352.673 31.55c0 2.305-1.395 3.7-3.451 3.7-2.086 0-3.303-1.574-3.303-3.575 0-2.106 1.346-3.68 3.417-3.68 2.16.005 3.337 1.619 3.337 3.555zm-5.075.095c0 1.375.645 2.344 1.708 2.344 1.073 0 1.689-1.023 1.689-2.384 0-1.261-.606-2.344-1.699-2.344-1.072 0-1.698 1.023-1.698 2.384z" fill="#fff"/><path d="M358.508 57.712a.714.714 0 0 0 .452-.66v-4.216a.71.71 0 0 0-.71-.71h-.854a.709.709 0 0 0-.368.104c-.352-.249-.754-.412-1.162-.412-.248 0-1.047.069-1.713.834a.705.705 0 0 0-.611-.348h-5.388a.524.524 0 0 0-.154.02c-.05-.01-.099-.02-.154-.02h-5.388a.524.524 0 0 0-.154.02c-.05-.01-.099-.02-.154-.02h-4.743a.69.69 0 0 0-.461-.174h-.795a.742.742 0 0 0-.373.105c-.357-.254-.764-.413-1.176-.413-.249 0-1.043.07-1.709.82a.709.709 0 0 0-.601-.333h-2.264a.712.712 0 0 0-.427.144.717.717 0 0 0-.427-.144h-2.573c-.04 0-.084.005-.124.01-.04-.005-.08-.01-.124-.01h-2.568a.684.684 0 0 0-.397.124.684.684 0 0 0-.397-.124h-2.573a.74.74 0 0 0-.183.025.754.754 0 0 0-.184-.025h-.859a.708.708 0 0 0-.393.12c-.352-.259-.759-.428-1.187-.428-1.658 0-3.416 1.41-3.709 5.25l-.969-4.843a.714.714 0 0 0-.437-.521.701.701 0 0 0-.675.09l-.795.58a.711.711 0 0 0-.273.423l-1.5 6.853c-.064-.914-.223-1.594-.456-2.106a.713.713 0 0 0 .461-.665v-4.216a.71.71 0 0 0-.71-.71h-.859a.735.735 0 0 0-.372.104c-.358-.249-.76-.413-1.167-.413-.273 0-1.217.085-1.917 1.088v-.07a.71.71 0 0 0-.71-.71h-.86a.703.703 0 0 0-.352.095c-.353-.244-.76-.403-1.167-.403-.452 0-2.702.214-2.702 4.435 0 1.113.194 1.942.477 2.563a.704.704 0 0 0-.412.243l-1.331-6.66a.719.719 0 0 0-.437-.521.703.703 0 0 0-.676.09l-.794.58a.711.711 0 0 0-.273.423l-1.778 8.114h-.224c-.029 0-.059.005-.089.01-.02 0-.035-.005-.055-.01V55.83a.71.71 0 0 0 .676-.71v-1.932a.71.71 0 0 0-.71-.71h-1.813a.707.707 0 0 0-.68.506l-1.103 3.64-1.127-3.813a.709.709 0 0 0-.68-.507h-1.704a.703.703 0 0 0-.71.705v2.106c0 .357.268.655.611.705v5.27a.712.712 0 0 0-.611.704V63.9c0 .392.318.71.71.71h2.508c.139 0 .268-.04.382-.11.11.07.244.11.378.11h.263a.694.694 0 0 0 .497-.203.715.715 0 0 0 .496.203h2.573c.03 0 .059-.005.089-.01.03.005.06.01.09.01h2.264a.709.709 0 0 0 .641-.407.703.703 0 0 0 .64.407h2.265c.04 0 .084-.005.124-.01.04.005.079.01.124.01h.859c.035 0 .07-.005.105-.005a2.38 2.38 0 0 0 1.326.402c.491 0 1.335-.129 1.996-.889a.705.705 0 0 0 .675.497h.859c.04 0 .075-.005.115-.01.392.258.859.402 1.331.402.456 0 1.226-.114 1.867-.74a.708.708 0 0 0 .606.343h2.264c.258 0 .487-.139.611-.347a.712.712 0 0 0 .611.347h2.264a.71.71 0 0 0 .711-.71v-.12c.601.661 1.395.999 2.378.999.884 0 1.57-.432 2.076-1.117v.238c0 .392.318.71.71.71h2.573a.684.684 0 0 0 .397-.124c.114.08.248.124.397.124h2.573a.71.71 0 0 0 .71-.71v-.854c.487 1.117 1.316 1.922 2.473 1.922.978 0 1.748-.561 2.225-1.555v.487c0 .392.318.71.71.71h.859c.035 0 .07-.005.105-.01.387.259.849.403 1.33.403.477 0 1.297-.125 1.947-.835a.703.703 0 0 0 .656.437h4.772a.71.71 0 0 0 .71-.71v-4.211a.71.71 0 0 0-.71-.71h-.76v-1.038h.76a.524.524 0 0 0 .154-.02c.05.01.099.02.154.02h.859a.725.725 0 0 0 .517-.219v3.367h-.085a.71.71 0 0 0-.71.71V63.9c0 .392.318.71.71.71h2.876a.71.71 0 0 0 .71-.71v-2.106a.71.71 0 0 0-.71-.71h-.149v-3.367a.714.714 0 0 0 .516.219h.859a.524.524 0 0 0 .154-.02c.05.01.099.02.154.02h.795a.715.715 0 0 0 .516-.219v3.367h-.025a.71.71 0 0 0-.71.71V63.9c0 .392.318.71.71.71h2.816a.71.71 0 0 0 .71-.71v-2.106a.71.71 0 0 0-.71-.71h-.084v-3.367a.715.715 0 0 0 .516.219h.656c.079.322.173.62.288.869a.708.708 0 0 0-.611.705v4.39c0 .392.318.71.71.71h.859c.04 0 .075-.005.114-.01.393.259.86.403 1.336.403.894 0 2.97-.418 2.97-4.256 0-1.406-.189-2.364-.492-3.035zm-26.176 1.108v-.065c.01.02.015.04.02.06-.01 0-.015.005-.02.005z" fill="#000B9E"/><path d="M289.211 59.108l-1.797-6.099h-1.704v2.11h.611v6.675h-.611V63.9h2.508v-2.106h-.919v-3.63l1.679 5.736h.263l1.674-5.716v3.61h-.676V63.9h2.573v-2.106h-.676V55.12h.676v-1.932h-1.813l-1.788 5.92zM296.482 52.537l-.795.581-1.897 8.676h-.795V63.9h2.265v-2.106h-.338l.154-.879h1.629l.134.88h-.293V63.9h2.265v-2.106h-.477l-1.852-9.257zm-.994 6.446l.457-2.195.393 2.195h-.85zM300.867 56.515c-.254-.124-.467-.228-.467-.63 0-.9.223-1.073.889-1.073.561 0 1.375.492 1.375 1.634v.606h.86v-4.217h-.86v.87c-.243-.596-.958-1.177-1.524-1.177-.834 0-1.997.754-1.997 3.724 0 2.721 1.262 3.392 1.719 3.566.938.347 1.455.104 1.455 1.177 0 .755-.512 1.018-.874 1.018-.651 0-1.535-.353-1.535-1.808v-.69h-.854v4.39h.859v-.397c.308.471.83.79 1.43.79 1.545 0 2.24-1.386 2.24-3.547-.005-4.186-1.703-3.71-2.716-4.236zM305.858 56.515c-.254-.124-.467-.228-.467-.63 0-.9.238-1.073.904-1.073.561 0 1.39.492 1.39 1.634v.606h.859v-4.217h-.859v.87c-.308-.596-.973-1.177-1.539-1.177-.835 0-2.012.754-2.012 3.724 0 2.721 1.262 3.392 1.714 3.566.938.347 1.45.104 1.45 1.177 0 .755-.522 1.018-.884 1.018-.651 0-1.55-.353-1.55-1.808v-.69h-.859v4.39h.859v-.397c.308.471.845.79 1.446.79 1.544 0 2.254-1.386 2.254-3.547.005-4.186-1.693-3.71-2.706-4.236zM312.239 52.537l-.794.581-1.898 8.671h-.759v2.106h2.264v-2.106h-.377l.154-.879h1.629l.134.88h-.318v2.105h2.264v-2.106h-.456l-1.843-9.252zm-.993 6.446l.457-2.195.392 2.195h-.849zM317.622 61.963c-.844 0-1.564-1.057-1.564-3.55 0-2.39.631-3.442 1.559-3.442.845 0 1.575 1.157 1.575 2.637v.675h.859V53.01h-.859v.954c-.308-.616-.954-1.267-1.58-1.267-1.708 0-3.049 1.883-3.049 5.692 0 4.146 1.192 5.676 3.064 5.676 1.892 0 2.473-2.806 2.473-4.564h-.884c-.243 1.768-.834 2.463-1.594 2.463zM323.785 55.12h.611v2.284h-2.081V55.12h.676v-2.11h-2.573v2.11h.611v6.674h-.611V63.9h2.573v-2.106h-.676v-2.458h2.081v2.458h-.611V63.9h2.573v-2.106h-.676V55.12h.676v-2.11h-2.573v2.11zM330.028 55.12h.611v4.906c0 1.932-.517 1.932-1.063 1.932-.73 0-1.018-.596-1.018-1.917v-4.926h.611v-2.106h-2.573v2.106h.676v5.348c0 1.63.67 3.794 2.264 3.794 1.604 0 2.081-2.15 2.081-3.794V55.12h.675v-2.106h-2.264v2.106zM334.304 56.515c-.254-.124-.467-.228-.467-.63 0-.9.248-1.073.909-1.073.561 0 1.4.492 1.4 1.634v.606h.795v-4.217h-.79v.87c-.308-.596-.983-1.177-1.549-1.177-.835 0-2.017.754-2.017 3.724 0 2.721 1.262 3.392 1.714 3.566.938.347 1.455.104 1.455 1.177 0 .755-.517 1.018-.879 1.018-.651 0-1.54-.353-1.54-1.808v-.69h-.859v4.39h.859v-.397c.308.471.834.79 1.435.79 1.545 0 2.245-1.386 2.245-3.547 0-4.186-1.703-3.71-2.711-4.236zM337.373 55.12h.675v6.674h-.675V63.9h4.777v-4.216h-.795v2.11h-2.085v-2.458h1.41v-1.932h-1.41V55.12h2.085v2.105h.795V53.01h-4.777v2.11zM342.453 57.225h.859V55.12h1.222v6.674h-.795V63.9h2.88v-2.106h-.859V55.12h1.227v2.105h.854V53.01h-5.388v4.216zM348.149 57.225h.795V55.12h1.221v6.674h-.73V63.9h2.816v-2.106h-.799V55.12h1.226v2.105h.854V53.01h-5.383v4.216zM355.573 56.515c-.253-.124-.466-.228-.466-.63 0-.9.233-1.073.893-1.073.562 0 1.386.492 1.386 1.634v.606h.859v-4.217h-.859v.87c-.308-.596-.968-1.177-1.534-1.177-.835 0-2.007.754-2.007 3.724 0 2.721 1.262 3.392 1.714 3.566.938.347 1.45.104 1.45 1.177 0 .755-.527 1.018-.884 1.018-.651 0-1.555-.353-1.555-1.808v-.69h-.859v4.39h.859v-.397c.308.471.854.79 1.45.79 1.545 0 2.26-1.386 2.26-3.547.01-4.186-1.694-3.71-2.707-4.236z" fill="#fff"/></g><defs><linearGradient id="paint0_linear" x1="223.355" y1="90.746" x2="223.355" y2="76.384" gradientUnits="userSpaceOnUse"><stop offset=".003" stop-color="#C2B69C"/><stop offset=".505" stop-color="#E3DFD7"/><stop offset=".797" stop-color="#E6E6E6"/></linearGradient><linearGradient id="paint1_linear" x1="223.002" y1="89.08" x2="228.203" y2="98.088" gradientUnits="userSpaceOnUse"><stop stop-color="#E3DFD7"/><stop offset=".997" stop-color="#C2B69C"/></linearGradient><linearGradient id="paint2_linear" x1="221.664" y1="100.694" x2="241.123" y2="100.694" gradientUnits="userSpaceOnUse"><stop offset=".005" stop-color="#CCC1AB"/><stop offset=".182" stop-color="#D0C6B4"/><stop offset=".488" stop-color="#D3CBBC"/><stop offset=".997" stop-color="#D4CDBF"/></linearGradient><linearGradient id="paint3_linear" x1="205.95" y1="89.86" x2="212.114" y2="89.86" gradientUnits="userSpaceOnUse"><stop stop-color="#E3DFD7"/><stop offset=".997" stop-color="#C2B69C"/></linearGradient><linearGradient id="paint4_linear" x1="211.462" y1="100.614" x2="211.462" y2="91.158" gradientUnits="userSpaceOnUse"><stop offset=".003" stop-color="#C2B69C"/><stop offset="1" stop-color="#E3DFD7"/></linearGradient><linearGradient id="paint5_linear" x1="212.432" y1="102.133" x2="224.778" y2="102.133" gradientUnits="userSpaceOnUse"><stop offset=".003" stop-color="#C2B69C"/><stop offset="1" stop-color="#E3DFD7"/></linearGradient><linearGradient id="paint6_linear" x1="217.37" y1="97.297" x2="248.765" y2="97.297" gradientUnits="userSpaceOnUse"><stop offset=".003" stop-color="#389CC7"/><stop offset="1" stop-color="#2E7EC9"/></linearGradient><linearGradient id="paint7_linear" x1="231.433" y1="92.295" x2="247.019" y2="92.295" gradientUnits="userSpaceOnUse"><stop offset=".003" stop-color="#389CC7"/><stop offset="1" stop-color="#2E7EC9"/></linearGradient><linearGradient id="paint8_linear" x1="232.934" y1="95.71" x2="225.914" y2="100.965" gradientUnits="userSpaceOnUse"><stop stop-color="#2E7EC9"/><stop offset=".997" stop-color="#389CC7"/></linearGradient><linearGradient id="paint9_linear" x1="190.882" y1="88.186" x2="196.713" y2="88.186" gradientUnits="userSpaceOnUse"><stop stop-color="#E3DFD7"/><stop offset=".997" stop-color="#C2B69C"/></linearGradient><linearGradient id="paint10_linear" x1="190.84" y1="92.879" x2="204.138" y2="92.879" gradientUnits="userSpaceOnUse"><stop stop-color="#E3DFD7"/><stop offset=".997" stop-color="#C2B69C"/></linearGradient><linearGradient id="paint11_linear" x1="195.01" y1="93.391" x2="206.047" y2="93.391" gradientUnits="userSpaceOnUse"><stop offset=".203" stop-color="#E6E6E6"/><stop offset=".495" stop-color="#E3DFD7"/><stop offset=".997" stop-color="#C2B69C"/></linearGradient><linearGradient id="paint12_linear" x1="204.293" y1="103.604" x2="204.293" y2="95.097" gradientUnits="userSpaceOnUse"><stop stop-color="#E3DFD7"/><stop offset=".997" stop-color="#C2B69C"/></linearGradient><linearGradient id="paint13_linear" x1="197.114" y1="89.098" x2="201.366" y2="89.098" gradientUnits="userSpaceOnUse"><stop offset=".203" stop-color="#E6E6E6"/><stop offset=".495" stop-color="#E3DFD7"/><stop offset=".997" stop-color="#D4CDBF"/></linearGradient><linearGradient id="paint14_linear" x1="207.086" y1="102.428" x2="208.709" y2="102.428" gradientUnits="userSpaceOnUse"><stop stop-color="#E3DFD7"/><stop offset=".997" stop-color="#C2B69C"/></linearGradient><linearGradient id="paint15_linear" x1="181.543" y1="88.171" x2="188.612" y2="88.171" gradientUnits="userSpaceOnUse"><stop stop-color="#E3DFD7"/><stop offset=".997" stop-color="#C2B69C"/></linearGradient><linearGradient id="paint16_linear" x1="176.739" y1="82.351" x2="189.149" y2="82.351" gradientUnits="userSpaceOnUse"><stop offset=".203" stop-color="#E6E6E6"/><stop offset=".495" stop-color="#E3DFD7"/><stop offset=".997" stop-color="#C2B69C"/></linearGradient><linearGradient id="paint17_linear" x1="180.316" y1="78.599" x2="182.788" y2="78.599" gradientUnits="userSpaceOnUse"><stop offset=".203" stop-color="#E6E6E6"/><stop offset=".495" stop-color="#E3DFD7"/><stop offset=".997" stop-color="#D4CDBF"/></linearGradient><clipPath id="clip0"><path fill="#fff" transform="translate(285 28)" d="M0 0h74v39.078H0z"/></clipPath></defs></svg>