<svg width="375" height="156" fill="none" xmlns="http://www.w3.org/2000/svg" viewBox="0 0 375 156"><path d="M375 0H0v156h375V0z" fill="#F5FCFF"/><mask id="a" maskUnits="userSpaceOnUse" x="0" y="0" width="375" height="156"><path transform="matrix(-1 0 0 1 375 0)" fill="#F5FCFF" d="M0 0h375v156H0z"/></mask><g mask="url(#a)"><path d="M481.001-5.706L374.813.097 176.849 20.841l-36.882 21.902 167.705 97.683 140.778 13.258 32.551-159.39z" fill="#00AD00"/><path d="M437.509-7.297S75.411 4.265 51.072 44.358C21.095 93.745 318.26 226.2 318.26 226.2l250.865-59.442s-397.638-99.299-379.744-129.2C208.081 6.31 578.295-2.295 578.295-2.295L437.509-7.297z" fill="#fff"/><path d="M346.422 206.702S52.672 89.192 79.234 44.358C103.14 4.01 465.671-5.998 465.671-5.998l81.019 1.535S176.252 6.173 157.777 37.553c-19.75 33.549 379.744 144.365 379.744 144.365l-191.099 24.784z" fill="#004EBB"/></g><path d="M141.165 92.852c-1.585.91-1.549 2.325.085 3.146l15.129 9.682 80.111 40.308c1.634.821 4.327.801 6.123.441 6.814-1.383 16.86-4.493 22.215-7.077 1.645-.797 4.027-2.322 5.5-3.405 2.479-1.82 6.62-5.747 8.064-8.72.796-1.646 1.015-3.021-.619-3.846l-98.435-49.537c-1.634-.82-4.267-.752-5.852.158l-32.321 18.85z" fill="#0032A5"/><path d="M143.499 75.43c-.494-2.843 1.5-4.885 1.5-4.885s1.124-3.296 4.089-6.904c2.964-3.603 14.081-9.997 17.236-11.311 3.15-1.315 6.665-1.476 8.392-1.238 1.73.239 9.811 2.787 9.811 2.787s9.787.78 17.911 4.012c8.125 3.23 16.929 8.088 23.452 11.562 3.802 2.022 10.77 7.316 15.926 11.376l.603-.384s-.502-2.374-.388-2.795c.113-.424 1.326-3.397 1.326-3.397s1.48 1.5 1.933 2.742c.453 1.242-.327 3.114-.57 4.024-.138.518-.445 1.132-.679 1.57-.004-.005-.013-.009-.017-.013a370.392 370.392 0 0 1 4.251 3.442c8.974 3.522 20.536 13.499 20.536 13.499 2.208.113 3.733 4.279 5.322 7.118 1.594 2.843 1.509 4.756 1.464 5.589-.048.833 1.06 12.759-8.618 19.46-9.682 6.697-21.232 8.194-26.376 7.846a25.763 25.763 0 0 1-5.852-1.088c-.202-.966-.388-1.872-.429-2.503-.311-5.193-4.933-11.401-9.665-13.577-6.127-2.818-8.982.045-8.667 5.242.033.513.186 1.326.393 2.18l-46.674-23.505c-.206-1.108-.429-2.245-.538-2.932-.768-4.728-4.457-10.054-8.566-12.517-6.567-3.935-8.529-.198-7.825 4.954v.008c-2.329-2.119-6.196-5.666-8.173-7.671-2.953-2.99-2.722-7.276-2.944-8.796-.223-1.521 1.836-3.895 1.836-3.895z" fill="#14AFEB"/><path d="M141.659 79.325c.222 1.52-.008 5.807 2.944 8.796 1.981 2.006 5.844 5.552 8.173 7.671v-.008c-.708-5.152 1.258-8.893 7.825-4.954 4.109 2.463 7.802 7.79 8.566 12.517.113.687.336 1.824.538 2.932l46.674 23.505c-.207-.854-.364-1.667-.393-2.18-.311-5.197 2.544-8.06 8.667-5.241 4.732 2.175 9.354 8.383 9.665 13.576.037.631.227 1.537.429 2.503 1.472.457 3.478.926 5.852 1.088 5.144.348 16.694-1.148 26.376-7.846 8.784-6.078 8.683-16.459 8.626-18.955-.813 4.271-2.968 9.617-8.877 13.682-6.106 4.202-10.87 6.462-20.884 6.867-5.9.234-9.855-1.549-12.072-2.386l-.028-.441c2.216.837 6.123 1.812 12.023 1.577 10.018-.4 14.778-2.665 20.884-6.863 5.949-4.092 8.093-9.479 8.894-13.766.028.15.048.291.068.429.021-.971-.105-2.73-1.48-5.189-.445-.797-.886-1.695-1.334-2.58-1.036 1.759-1.711.893-1.711.893-.053 1.917-.841 4.599-1.331 5.496-.489.898-2.018 4.049-6.288 7.094-4.267 3.045-9.112 4.655-11.882 5.544-2.77.89-5.407.785-5.407.785-3.252 1.634-6.572.227-6.572.227-.772-1.517-4.072-3.341-6.547-4.574-1.343-.672-3.713-2.059-5.86-3.422-1.804-1.144-2.864-1.905-2.864-1.905-5.39-3.457-7.489-6.276-7.489-6.276-4.101-7.146-11.85-17.2-11.85-17.2-5.641-6.968-16.278-11.736-23.407-15.238-5.088-2.5-12.723-2.204-19.133-2.435l-7.595-.396s-7.704-2.059-7.854-6.111c-1.424 2.293-2.006 3.996-2.006 3.996s-1.994 2.046-1.5 4.885c0 0 3.284 6.98 6.608 11.045 0 0-6.079-4.797-8.295-8.263-.133.397-.202.78-.153 1.12zm61.107 23.027c1.99-.453 3.171-1.165 3.927-.493l2.212 2.014s1.157 1.128.34 1.662-3.539.699-5.775.833c-2.237.133-2.411-1.897-2.455-2.224-.049-.332-.235-1.339 1.751-1.792z" fill="#0082C8"/><path d="M173.434 76.409a11.88 11.88 0 0 1 1.249-.138c6.297-.38 12.667 3.608 14.854 4.829 3.515 1.957 10.111 5.504 13.921 9.949 4.658 5.43 3.558 4.99 10.607 17.046 0 0-1.997-1.007-4.929-2.5.036-.02.076-.036.109-.06.817-.534-.34-1.662-.34-1.662l-2.212-2.014c-.756-.668-1.933.04-3.911.489-5.152-2.645-10.834-5.597-14.179-7.445-7.239-4.008-25.797-14.377-25.797-14.377s3.939-3.03 10.628-4.117z" fill="#0082C8"/><path d="M219.719 122.702l2.16-1.282c.837.17 1.759.477 2.774.946 4.732 2.176 9.354 8.384 9.666 13.577.036.63.226 1.536.428 2.503h.008l-3.805 2.265c-1.302.784-3.134.752-5.209-.284-4.287-2.143-7.991-7.752-8.278-12.532-.158-2.601.728-4.421 2.256-5.193z" fill="#192D4B"/><path d="M221.879 121.416l-2.16 1.282c-1.533.772-2.418 2.592-2.261 5.193.029.497.098 1.003.199 1.512l-1.278.38c-.207-.853-.364-1.666-.393-2.179-.262-4.332 1.683-7.041 5.893-6.188z" fill="#004687"/><path d="M217.459 127.891c.287 4.78 3.995 10.393 8.278 12.532 4.287 2.14 7.53 0 7.243-4.78-.287-4.78-3.995-10.393-8.282-12.533-4.283-2.139-7.526 0-7.239 4.781z" fill="#192D4B"/><path d="M217.916 128.343c.267 4.408 3.684 9.585 7.635 11.559 3.955 1.973 6.944.004 6.681-4.409-.267-4.408-3.684-9.584-7.639-11.558-3.952-1.973-6.94 0-6.677 4.408z" fill="#192D4B"/><path d="M219.756 129.359c.198 3.283 2.742 7.133 5.682 8.606 2.94 1.468 5.164 0 4.97-3.28-.198-3.284-2.742-7.134-5.682-8.602-2.944-1.476-5.169-.004-4.97 3.276z" fill="#0082C8"/><path d="M223.881 130.944c.056.958.8 2.079 1.658 2.511.857.429 1.508 0 1.448-.958-.057-.959-.801-2.083-1.659-2.512-.857-.428-1.504 0-1.447.959zM155.623 90.417l1.743-1.04c.922.24 1.998.709 3.236 1.453 4.109 2.463 7.801 7.789 8.565 12.516.113.688.336 1.824.538 2.932l.409.207-3.264 1.941c-1.302.784-3.134.752-5.209-.283-4.287-2.14-7.995-7.753-8.282-12.533-.154-2.6.732-4.416 2.264-5.193z" fill="#192D4B"/><path d="M153.359 95.61c.287 4.78 3.995 10.394 8.282 12.533 4.287 2.139 7.53.004 7.243-4.78-.287-4.78-3.996-10.394-8.282-12.533-4.287-2.14-7.531 0-7.243 4.78z" fill="#192D4B"/><path d="M153.816 96.063c.266 4.408 3.684 9.585 7.635 11.562 3.955 1.974 6.944 0 6.681-4.408-.267-4.408-3.684-9.585-7.64-11.558-3.951-1.978-6.939-.004-6.676 4.404z" fill="#192D4B"/><path d="M155.655 97.078c.199 3.28 2.742 7.134 5.682 8.606 2.945 1.468 5.165 0 4.971-3.28-.198-3.283-2.742-7.133-5.682-8.605-2.945-1.473-5.169-.005-4.971 3.28z" fill="#0082C8"/><path d="M159.752 98.647c.061.975.817 2.119 1.691 2.556.873.437 1.537 0 1.476-.974-.061-.975-.813-2.12-1.691-2.556-.873-.437-1.532 0-1.476.974z" fill="#192D4B"/><path d="M157.366 89.382l-1.743 1.04c-1.532.772-2.418 2.592-2.264 5.188 0 .02.004.045.004.065l-.587.117v-.008c-.574-4.182.615-7.429 4.59-6.402z" fill="#004687"/><path d="M219.723 80.683c4.809-3.364 10.074-7.857 10.074-7.857s8.331 5.544 11.049 7.716c4.068 3.251 7.429 5.476 7.429 5.476.449.178.91.372 1.371.578 3.923 2.972-2.556 9.184-7.555 12.958-4.998 3.769-13.184 8.128-18.049 9.038-.501.093-.97.15-1.415.178-3.854.231-5.496-1.828-5.496-1.828-3.733-6.543-11.898-17.39-11.898-17.39s9.682-5.504 14.49-8.869zM156.21 69.538c1.637-2.48 8.072-7.118 11.436-9.265 2.407-1.537 6.301-4.117 10.972-5.484a22.05 22.05 0 0 1 4.902-.878c.331-.02.667-.032 1.007-.032 0 0 4.812.384 10.486 1.727 0 0-7.809 4.286-11.315 6.761-3.507 2.471-10.272 7.887-11.037 8.643 0 0-1.221 1.504-2.487 1.577-1.266.077-14.013-.586-14.013-.586s-1.589.016.049-2.463z" fill="#0082C8"/><path d="M220.002 81.08c4.141-2.896 8.667-6.67 9.827-7.644 1.525 1.02 8.331 5.59 10.705 7.49 4.04 3.227 7.433 5.48 7.466 5.5l.044.028.049.02c.048.02.105.045.157.065.413.8.72 1.856.34 2.912-.772 2.156-4.715 6.212-8.549 8.743-3.705 2.443-10.766 8.097-20.112 9.836-1.516-.425-2.265-1.209-2.402-1.367-3.288-5.747-10.013-14.854-11.578-16.957 2.022-1.165 9.896-5.715 14.053-8.627zM188.017 80.954c.433.239.813.453 1.132.619-1.197 3.243-2.341 9.302-2.746 11.55-3.971-2.208-9.532-5.306-14.235-7.93l2.616-8.437c5.173-.283 10.41 2.63 13.233 4.198zM173.514 76.89c.106-.016.211-.029.32-.045l-2.601 7.826c-3.409-1.901-6.244-3.486-7.497-4.186 1.346-.861 4.8-2.787 9.778-3.595zM170.141 72.102c.858-.053 1.832-1.028 2.136-1.4l.016-.02.02-.016c.809-.805 7.474-6.414 11.097-8.699 7.118-4.49 9.29-5.387 11.199-6.454-5.047-1.165-9.322-1.57-9.993-1.626-1.169.161-2.686.493-4.68.93-4.861 1.197-8.99 3.923-11.651 5.625l-.38.243c-3.781 2.414-9.783 6.839-11.291 9.12-.821 1.241-.643 1.613-.639 1.625.036.07.174.081.174.081h.032c4.404.235 12.982.651 13.96.59z" fill="#94DAEE"/><path d="M272.661 115.317s-1.585-6.644-1.699-7.368c-.113-.724 1.084-5.023-2.03-8.42 2.006.239 3.446 3.814 4.902 6.56.101 2.05.153 6.64-1.173 9.228zM253.492 128.469s-1.844-1.783-3.462-3.009c-1.614-1.225-2.665-1.601-4.748-1.625-2.079-.021-5.306.072-6.891-.247-1.585-.32-2.871-.562-3.883-.696-1.011-.137-1.844-.157-1.164.975.679 1.132 1.52 3.547 4.008 4.238 2.487.692 3.829.789 6.939.813 3.11.028 9.201-.449 9.201-.449z" fill="#E1E8EC"/><path d="M258.466 127.689c.433-.025.866-.13 1.29-.308l.348-.145c1.945-.821 4.36-1.844 6.519-3.664 1.848-1.561 3.078-2.771 3.757-3.701.599-.821.846-1.686.748-2.649-.093-.906-.392-3.676-.566-5.249-.72 1.108-1.998 2.981-3.377 4.538-1.168 1.318-3.631 3.716-7.02 4.994-.235.089-.469.182-.704.279-.23.093-.461.186-.691.271a80.183 80.183 0 0 1-6.758 2.196l4.493 2.993c-.004.004.801.513 1.961.445zM243.608 136.343c1.354-.166 4.853-.502 6.527-.797.275-.048.546-.141.651.623.109.764-.954.922-.954.922-1.468.218-2.839.392-3.725.437 0 0-2.649.19-2.896.202-.307.012-.534-.162-.534-.162-.125-.485.081-1.12.931-1.225zM258.721 133.641l.335.829s.32.466 1.266-.004c.943-.469 4.813-2.551 7.053-4.226 1.662-1.241 3.175-2.883 3.458-3.239.283-.356.546-1.262.558-1.589.012-.328.202-.959-.526-.114-.728.846-3.324 3.054-5.059 4.206-1.735 1.153-6.082 3.341-6.822 3.624.004.004-.405.162-.263.513z" fill="#006399"/><path d="M144.878 70.682s-.474 1.08.477 2.172c.95 1.092 3.065 2.968 3.065 2.968s.534.21-.445 1.4c-.978 1.189-1.1 1.197-1.1 1.197s-.145.17-.38.182c-.178.012-.404-.07-.655-.385-.582-.727-1.767-1.852-2.337-2.79-.425-2.406.946-4.242 1.375-4.744z" fill="#0082C8"/><path d="M206.693 101.858c-.66-.582-1.638-.117-3.195.308-4.364-2.237-9.18-4.732-12.658-6.604.056-4.38.408-10.479.55-12.828 5.225 2.81 9.24 5.77 11.691 8.63 3.054 3.563 3.608 4.57 5.666 8.323.008.012.012.024.02.036l-.157 3.878-1.917-1.743z" fill="#94DAEE"/><path d="M216.783 99.89l4.837 2.066c.178-1.185.655-2.916.117-6.026-.53-3.057-2.075-5.184-2.075-5.184s.061-2.528-1.007-5.529a5.365 5.365 0 0 0-1.5-2.244c-.845.542-1.739 1.1-2.641 1.654l2.269 15.263z" fill="#D4CDBF"/><path d="M229.522 85.124s.271-2.337-.796-5.334c-.607-1.703-1.634-2.766-2.496-3.405-1.832 1.46-4.08 3.195-6.224 4.7a82.333 82.333 0 0 1-2.843 1.888 5.376 5.376 0 0 1 1.501 2.244c1.067 3.001 1.007 5.529 1.007 5.529l9.851-5.622z" fill="url(#paint0_linear)"/><path d="M221.737 95.934c-.53-3.057-2.075-5.184-2.075-5.184l9.856-5.622s1.25 1.901 2.087 4.57c.534 1.699.736 4.821.558 6.002l-10.543 6.26c.178-1.185.659-2.92.117-6.026z" fill="url(#paint1_linear)"/><path d="M241.125 97.439c-2.285-.93-5.225-1.86-6.334-2.083-1.945-.392-2.64.328-2.64.328l-10.487 6.224c.218 1.132 2.447 2.891 4.703 4.238 6.164-2.439 10.879-6.111 13.674-7.955.364-.234.724-.49 1.084-.752z" fill="url(#paint2_linear)"/><path d="M208.513 93.196l3.575-2.038s.23-2.006-.684-4.578l-.024-.056c-2.415 1.44-4.522 2.653-5.431 3.178.469.627 1.403 1.889 2.564 3.494z" fill="url(#paint3_linear)"/><path d="M212.087 91.158l-3.575 2.038a276.644 276.644 0 0 1 5.197 7.417l.647-.384c.15-1.015-.02-3.692-.477-5.148-.72-2.289-1.792-3.923-1.792-3.923z" fill="url(#paint4_linear)"/><path d="M217.405 106.445c3.406-2.063 7.268-4.542 7.369-5.027.174-.829-7.045-3.138-8.901-3.494-1.857-.352-2.52.295-2.52.295l-.922.518c1.828 2.653 3.656 5.427 4.974 7.708z" fill="url(#paint5_linear)"/><path d="M230.04 90.034s2.794.736 4.546 2.147c1.751 1.412 4.064 4.117 4.064 4.117l-1.687 2.633s-5.896-2.887-7.522-3.761c-1.625-.874-3.029-3.547-3.029-3.547l3.628-1.59z" fill="#014B89"/><path d="M228.054 90.875s.922 1.553.854 2.014c-.069.461.299 1.343.299 1.343s2.831 2.155 3.619 3.267c.789 1.117 1.549 2.852 1.335 2.868-.214.016-3.223 1.229-3.223 1.229s-2.645-2.81-4.21-3.595c-1.565-.78-3.919-2.273-4.489-4.877l5.815-2.249z" fill="#1A64A3"/><path d="M238.075 84.93s.017.004.041.004c.186.029.954.138 1.298.219.392.093.619-.029 1.116.546.498.578.473.966.453 1.354-.024.389-.153.967-.279 1.1-.125.134-.178.267-.36.235-.182-.032-.263-.125-.251-.113.009.012-.242-.004-.226-.267.016-.259.158-.825.158-.825l-.146-.465s-.36-.247-.465-.215c-.105.033-1.108.081-1.108.081s-1.403.101-1.933-.036c-.534-.138-5.071-1.274-5.492-1.553-.417-.283-1.998-2.313-2.661-2.977-.663-.663-.902-2.887-1.286-3.004-.38-.114-1.262-.057-1.262-.057l-.667-1.343s1.86-1.868 3.037-.914c1.177.95 1.569 1.52 1.763 1.776.194.255 2.18 3.805 2.73 4.21.554.404 4.149 1.981 4.715 1.973.405 0 .825.271.825.271z" fill="#F2A983"/><path d="M227.933 80.826s1.933 2.3 2.519 2.685c.583.384 1.351-.51 1.206 0-.146.51.036 1.023.238 1.132.202.11 4.505 1.19 4.801 1.278.295.09 1.399-.667 1.961-.327a.924.924 0 0 1 .425.946c-.328.024-.773.044-.773.044s-1.403.102-1.933-.036c-.534-.138-5.071-1.274-5.492-1.553-.416-.283-1.998-2.313-2.661-2.976-.194-.195-.352-.522-.489-.89l.198-.303z" fill="#D88F69"/><path d="M226.295 76.43s1.189-.474 2.063.29c.873.769 2.527 3.212 2.527 3.212s-1.698 2.636-2.98 2.98c-1.286.344-1.61-6.483-1.61-6.483z" fill="#F6C100"/><path d="M227.136 79.681c.226-.465 1.476-.388 1.808.566.198.579.441 1.104.602 1.428-.521.574-1.116 1.1-1.642 1.241-.538.142-.958-.954-1.274-2.28.235-.45.433-.813.506-.955z" fill="#DDA800"/><path d="M223.577 80.652c1.788.327 3.013.242 3.264-.732.251-.975-.813-3.021-.813-3.021l-.32-.101a142.39 142.39 0 0 1-3.494 2.685c.178.513.562 1.023 1.363 1.169z" fill="#D88F69"/><path d="M227.832 86.204c-.028-.368-.235-2.087-.235-2.087.332-.445.874-1.678.773-3.708-.101-2.03-1.395-3.822-1.395-3.822s-.478-.097-.866-.11c-.137.11-.283.223-.424.337.012.012.016.024.028.036.566.643.942 2.41-.17 3-.991.526-1.864-.064-2.402-.606l-.263-.263c-.95.716-1.921 1.428-2.875 2.095-.437.308-.914.631-1.424.967.17 2.09 2.285 5.637 2.718 6.349.501.825 1.181 5.379 1.181 5.379.675-.57 3.312-.947 5.5-1.61 2.192-.663 2.394-2.171 2.394-2.171s-.538-.292-.87-.62c-.327-.323-1.638-2.798-1.67-3.166z" fill="#F6C100"/><path d="M226.283 77.918c.74-.182.522-.813.526-1.278.004-.239.036-.51.068-.777-.764.615-1.621 1.294-2.531 1.998.695.166 1.435.182 1.937.057z" fill="#F2A983"/><path d="M226.643 77.744c.299-.271.166-.74.17-1.104.004-.239.036-.51.068-.777-.016.012-.028.025-.044.037.028.15.032.34-.182.36-.235.02-.093.428-.101.691 0 .142.028.49.089.793z" fill="#D88F69"/><path d="M221.911 84.287c-.105 1.096-.036 1.678.453 2.596.485.919.421 1.796 1.266 2.285.845.49 1.589-.028 2.447 0 .857.025.788-.012.695.567-.093.574-.044.922.672.715.719-.21 1.73-.546 1.532-.068-.157.384-2.099 1.516-2.721 2.252-.579.142-1.145.271-1.659.397a55.083 55.083 0 0 1-2.313-.47c-.238-1.411-.651-3.607-.982-4.157-.462-.76-2.662-4.004-2.544-6.005l2.374-.28c0-.008.885 1.072.78 2.168z" fill="#DDA800"/><path d="M234.194 94.337c.457 0 1.002-.142 1.609-.437 2.095-1.023 4.125-3.526 4.53-5.593.287-1.468-.32-2.317-1.452-2.317-.457 0-1.003.141-1.61.437-2.095 1.023-4.125 3.526-4.529 5.593-.287 1.468.323 2.317 1.452 2.317zm-.53-2.144c.339-1.718 2.111-3.894 3.874-4.755.453-.223.87-.336 1.201-.336.259 0 .445.069.558.206.174.21.215.627.118 1.137-.34 1.718-2.112 3.894-3.875 4.756-.453.222-.869.34-1.201.34-.259 0-.445-.07-.558-.207-.174-.214-.218-.63-.117-1.14z" fill="#39464A"/><path d="M248.591 89.452c.376-1.044.076-2.087-.328-2.884-3.005-.032-9.443 4.497-15.768 8.266-6.127 3.652-12.517 8.954-15.125 11.551.052.093.109.186.157.275.138.157.886.942 2.403 1.366 9.346-1.739 16.407-7.388 20.111-9.835 3.834-2.528 7.777-6.584 8.55-8.74z" fill="url(#paint6_linear)"/><path d="M247.017 91.947c-.339-2.014-1.751-3.818-1.751-3.818s-3.102-2.297-8.088 0c-4.987 2.297-5.747 7.239-5.747 7.239v.097c2.944 1.395 6.499 2.338 9.775 1.909 2.232-1.634 4.388-3.668 5.811-5.427z" fill="url(#paint7_linear)"/><path d="M224.475 100.124s-.461-2.867 2.819-4.626c3.28-1.76 5.88-.441 5.88-.441s4.141 2.835-.91 5.565c-5.047 2.729-7.789-.498-7.789-.498z" fill="url(#paint8_linear)"/><path d="M221.798 93.075c.251.275 1.108.955 1.278 1.408.17.453.384 1.14.307 1.605-.077.47-.04 1.076-.287 1.145-.247.068-.364.02-.364.02s-.02.32-.34.307c-.315-.012-.275-.141-.275-.141s-.258.198-.4.153c-.142-.044-.202-.542-.202-.542s-.227-1.168-.271-1.27c-.041-.1-.251-.659-.259-.465-.008.19.202.927.247 1.173.044.247.214.66.068.692-.145.028-.481-.376-.582-.724-.101-.348-.51-1.145-.518-1.383-.008-.235.126-1.218-.052-1.468-.178-.251-2.022-1.97-2.499-3.03-.478-1.063-.486-1.083-.567-1.564-.068-.417.146-.959.146-.959s.243-2.855.639-3.623c.396-.769.619-1.258.639-1.493.02-.234.206-1.168.942-1.261.736-.094 2.156 1.188 2.196 1.698.041.51-.57 1.064-.833 1.666-.263.603-.857 4.048-.857 4.048s1.387 3.507 1.844 4.008z" fill="#F2A983"/><path d="M223.096 97.232c-.246.07-.364.02-.364.02s-.02.32-.339.308c-.316-.012-.275-.142-.275-.142s-.259.199-.401.154c-.141-.044-.202-.542-.202-.542s-.166-.853-.243-1.165c.061-.194.579-.036.579-.036s.109-.101.348-.206c.238-.105.546-.04.546-.04s.137-.041.497-.166a.464.464 0 0 1 .101-.025c.049.251.073.494.04.7-.076.461-.04 1.072-.287 1.14zM220.467 95.805c.259 0 .502.028.619.04.057.24.122.49.146.615.044.247.214.66.069.692-.146.028-.482-.376-.583-.724-.044-.15-.149-.384-.251-.623z" fill="#D88F69"/><path d="M221.778 81.89c-.207-.688-.615-1.089-1.048-1.323-.242.174-.485.348-.724.513-.614.43-1.314.898-2.058 1.383-.231 1.052-.174 2.023-.174 2.023 1.646-.38 3.349.643 3.349.643s1.079-1.828.655-3.24z" fill="#F6C100"/><path d="M196.352 85.69a63.015 63.015 0 0 0-4.897-2.92l-.069.04c-.125 2.055-.396 6.758-.505 10.79l5.779-3.43c.129-.877.02-2.98-.308-4.48z" fill="url(#paint9_linear)"/><path d="M204.137 92.613c-.316-.38-.663-.792-1.052-1.245-.877-1.023-1.953-2.055-3.215-3.09-.821-.259-1.52-.453-1.933-.538-1.67-.335-2.265.283-2.265.283l-4.699 2.79a189.19 189.19 0 0 0-.137 4.757c1.423.768 3.077 1.638 4.828 2.556 1.877-1.117 6.059-3.774 8.473-5.513z" fill="url(#paint10_linear)"/><path d="M199.814 98.651s.053-2.171-.861-4.744c-1.024-2.875-3.939-3.13-3.939-3.13l1.124 7.583c1.565.817 3.203 1.666 4.824 2.499-.537-1.363-1.148-2.208-1.148-2.208z" fill="#D4CDBF"/><path d="M206.046 95.096c-.724-1.047-1.589-2.131-2.96-3.733-.918-1.067-2.051-2.151-3.385-3.235l-4.687 2.649s2.915.25 3.939 3.13c.914 2.572.861 4.744.861 4.744l6.232-3.555z" fill="url(#paint11_linear)"/><path d="M206.693 101.858l1.917 1.747.158-3.878a.136.136 0 0 0-.021-.036c-1.136-2.071-1.815-3.305-2.705-4.595l-6.232 3.555s.611.846 1.144 2.208c.854.441 1.707.878 2.54 1.307 1.561-.425 2.54-.89 3.199-.308z" fill="url(#paint12_linear)"/><path d="M198.419 88.37c.259.304.287 1.926.283 2.739.073-.012.145-.033.218-.06l2.443-1.46a34.092 34.092 0 0 0-3.009-2.492c-.611.368-1.096.66-1.246.748.441-.077 1.003.162 1.311.526z" fill="url(#paint13_linear)"/><path d="M197.113 87.841c.436-.069.995.166 1.306.53.259.303.287 1.925.283 2.738-.283.049-.518-.012-.518-.012s-1.48-.797-1.682-1.157c-.202-.36.562-2.066.562-2.066s.02-.016.049-.033z" fill="#D4CDBF"/><path d="M208.707 101.252l-1.622.962 1.529 1.391.093-2.353z" fill="url(#paint14_linear)"/><path d="M180.681 82.507c-1.024-2.875-3.939-3.13-3.939-3.13l1.35 9.12c1.776.99 3.531 1.97 5.165 2.875-.502-2.446-1.715-4.12-1.715-4.12s.053-2.172-.861-4.745z" fill="#D4CDBF"/><path d="M188.611 83.22l-7.069 4.031s1.209 1.679 1.715 4.121l3.146 1.751c.344-1.908 1.217-6.555 2.208-9.904z" fill="url(#paint15_linear)"/><path d="M188.611 83.22c.178-.595.356-1.157.538-1.647-.319-.165-.7-.376-1.132-.618-1.828-1.02-4.679-2.597-7.866-3.507l-3.413 1.93s2.915.25 3.939 3.13c.914 2.572.861 4.743.861 4.743l7.073-4.032z" fill="url(#paint16_linear)"/><path d="M180.317 77.496c.105.631.117 1.63.117 2.209.073-.013.146-.033.218-.061l2.14-1.278a25.885 25.885 0 0 0-2.475-.87z" fill="url(#paint17_linear)"/><path d="M178.234 78.536c.202.36 1.682 1.157 1.682 1.157s.235.06.518.012c0-.582-.012-1.577-.117-2.208a19.75 19.75 0 0 0-1.764-.437c-.202.526-.44 1.254-.319 1.476z" fill="#D4CDBF"/><path opacity=".45" d="M188.017 80.954c.433.239.813.453 1.132.619-1.197 3.243-2.341 9.302-2.746 11.55-3.971-2.208-9.532-5.306-14.235-7.93l2.616-8.437c5.173-.283 10.41 2.63 13.233 4.198zM220.002 81.08c4.141-2.896 8.667-6.67 9.827-7.644 1.525 1.02 8.331 5.59 10.705 7.49 4.04 3.227 7.433 5.48 7.466 5.5l.044.028.049.02c.048.02.105.045.157.065.413.801.72 1.856.34 2.912-.772 2.156-4.715 6.212-8.549 8.744-3.705 2.442-10.766 8.096-20.112 9.835-1.516-.425-2.265-1.209-2.402-1.367-3.288-5.747-10.013-14.854-11.578-16.957 2.022-1.165 9.896-5.715 14.053-8.626zM206.693 101.858c-.66-.582-1.638-.117-3.195.308-4.364-2.237-9.18-4.732-12.658-6.604.056-4.38.408-10.479.55-12.828 5.225 2.81 9.24 5.77 11.691 8.63 3.054 3.563 3.608 4.57 5.666 8.323.008.012.012.024.02.036l-.157 3.879-1.917-1.744z" fill="#94DAEE"/><path d="M293.878 46.351h-2.737v53.759h2.737V46.351zM353.572 48.375h-2.737v53.759h2.737V48.375z" fill="#5F6464"/><path d="M360.465 22.07h-76.93c-2.5 0-4.535 2.014-4.535 4.491V70.19c0 2.477 2.035 4.492 4.535 4.492h76.93c2.5 0 4.535-2.016 4.535-4.492V26.56c0-2.477-2.035-4.492-4.535-4.492z" fill="#004EBB"/><path d="M360.465 23.423c1.742 0 3.17 1.412 3.17 3.14V70.19c0 1.726-1.426 3.14-3.17 3.14h-76.93c-1.742 0-3.17-1.412-3.17-3.14V26.561c0-1.726 1.426-3.14 3.17-3.14h76.93v.002zm0-1.354h-76.93c-2.5 0-4.535 2.015-4.535 4.492V70.19c0 2.477 2.035 4.492 4.535 4.492h76.93c2.5 0 4.535-2.016 4.535-4.492V26.56c0-2.477-2.035-4.492-4.535-4.492z" fill="#fff"/><g clip-path="url(#clip0)"><path d="M311.784 70.77l.12-1.106s.11-.585.366-.84c.255-.256.265-.5.185-.926-.075-.425.095-.74.44-.936.35-.195.925-.56 1.106-.985.18-.425.11-.576.465-.72.355-.146.415-.951.435-.996.015-.04.22-.38.49-.52.27-.135.28-.66.185-.826-.095-.16-.435-.485-.435-.66 0-.175.245-.63.245-.826 0-.195-.915-1.395-.915-1.395s.04-.716.46-.866c.415-.155.7-1.196.7-1.196V38.096s-.02-.21.1-.21c.121 0 .171-.01.366.12.195.125.585.576 1.375.295.791-.28 2.177-.925 2.177-.925s.51-.295 1.425-.295h12.132s.265.015.265.28v22.112s.22.366.135.67c-.085.306-.365.196-.4.416-.035.22.075.305.255.51.18.205.07.5-.015.62s.015.356.125.39a.44.44 0 0 1 .231.521c-.086.265-.256.375-.571.435-.315.06-.605.07-.975.365-.376.296-.451.35-.451.35s-.265.256-.715.06c-.45-.194-1.121-.34-1.386-.1-.265.24-.145 1.111-.12 1.311.025.195.06.646-.425.84-.485.196-.61.156-.695.466-.085.315-.07.61-.571.86-.25.126-.49.18-.645.286-.165.11-.25.265-.33.4-.06.105-.17.19-.21.31-.06.175-.03.385-.035.555-.01.28-.07.466-.186.66-.11.391-.34.456-.61.466-.17.08-.28.365-.595.23-.38-.17-1.156-.715-1.156-.715s-.265-.205-.22-.51c.04-.306-.145-.536-.34-.486-.195.05-.18.125-.355.245-.18.12-.466.145-.536.46-.07.316-.22 1.191-.56 1.511-.34.326-.63.476-1.081.096-.45-.38-.57-.851-1.23-.576 0 0-.145.135-.33.23-.186.095-.441.1-.546.4-.1.296-.07.56-.29.716-.22.155-.55.04-.97-.22-.416-.265-1.511-.9-1.701-.9-.19 0-.221.124-.426.11-.205-.016-.27-.156-.355-.16-.085-.01-.33.05-.295.28.035.23.18.475-.05.61-.23.135-.41-.035-.425-.155-.015-.12-.12-.356-.365-.34-.246.014-.491.125-.781-.16-.29-.29-.63.05-.63.264 0 .216.29.476 0 .696-.285.205-.931-.035-.856-.72z" fill="#B70F23"/><path d="M332.606 37.946v21.527l-.015.23.08.12c-.17.16-.28.36-.315.606-.07.46.105.78.265.985-.095.24-.095.505-.005.77l.03.076a2.31 2.31 0 0 0-.925.455c-.176.14-.281.22-.341.265-.24-.1-.73-.27-1.24-.27-.416 0-.756.115-1.011.345-.525.475-.49 1.33-.4 2.031-.045.015-.09.03-.13.045-.31.11-.781.27-.961.956-.02.065-.03.125-.045.18a.736.736 0 0 1-.025.1c-.01.01-.03.02-.055.03-.075.04-.16.07-.25.105-.15.055-.32.12-.48.23-.33.215-.496.5-.596.67v.005c-.005.01-.015.016-.02.026-.075.09-.2.245-.275.465-.09.27-.085.515-.08.7v.1c-.005.14-.025.18-.06.24l-.035.06-.05.005-.155.07c-.05.026-.1.05-.14.08-.185-.11-.405-.255-.59-.38 0-.33-.11-.64-.316-.875a1.106 1.106 0 0 0-1.115-.355c-.305.08-.48.225-.61.35l-.005.005-.041.02c-.195.09-.72.325-.865.98-.005.03-.015.07-.025.11-.125.61-.22.856-.285.951a3.923 3.923 0 0 1-.135-.145c-.22-.245-.591-.65-1.231-.65-.22 0-.44.05-.68.145l-.145.05-.12.115a.732.732 0 0 1-.126.085.33.33 0 0 1-.055.02c-.215.075-.715.255-.925.875 0 .005-.005.015-.005.02-.225-.14-.595-.36-.946-.555-.71-.39-.945-.46-1.185-.46h-.005c-.135 0-.255.025-.345.055a1.018 1.018 0 0 0-.341-.1c-.035-.005-.07-.005-.105-.005-.34 0-.675.15-.89.4-.005.005-.01.01-.01.015a1.28 1.28 0 0 0-.195-.015c-.03 0-.055 0-.085.005-.07.005-.135.015-.185.02a1.207 1.207 0 0 0-.976-.28.535.535 0 0 1 .06-.13c.605-.616.48-1.306.415-1.681 0-.005 0-.01-.005-.015.005-.005.01-.005.015-.01.781-.44 1.266-.9 1.481-1.406.05-.125.085-.23.115-.31.585-.315.751-1.036.816-1.421a.385.385 0 0 1 .065-.065c.3-.155.525-.44.635-.8.095-.32.13-.836-.095-1.231-.065-.115-.15-.215-.235-.325l-.01-.01c.09-.23.175-.466.175-.716 0-.22 0-.44-.816-1.546.591-.355.891-1.185 1.026-1.68l.03-.11V39.196c.145.035.31.06.49.06.25 0 .511-.045.776-.14.82-.29 2.191-.93 2.251-.956l.02-.005.04-.025c.06-.03.405-.185.996-.185h11.531zm.605-.87H321.08c-.916 0-1.426.295-1.426.295s-1.386.645-2.176.925c-.181.065-.341.09-.486.09-.475 0-.74-.29-.89-.385-.17-.11-.23-.12-.325-.12h-.04c-.12 0-.1.21-.1.21v19.881s-.286 1.046-.701 1.196c-.415.155-.46.865-.46.865s.915 1.196.915 1.396c0 .195-.245.646-.245.826 0 .18.34.5.436.66.095.16.085.69-.186.825-.27.136-.475.476-.49.52-.015.04-.075.851-.435.996-.355.145-.29.296-.465.72-.18.426-.756.791-1.106.986-.35.195-.52.51-.44.936.075.425.07.67-.185.925-.255.256-.365.84-.365.84l-.121 1.106c-.055.52.301.786.606.786a.408.408 0 0 0 .255-.08c.29-.22 0-.485 0-.696 0-.155.18-.375.385-.375.08 0 .16.03.24.11.155.155.3.195.441.195.115 0 .23-.025.34-.035h.025c.23 0 .325.225.34.34.015.09.115.206.255.206.05 0 .11-.015.17-.05.23-.136.085-.38.05-.61-.03-.216.185-.28.28-.28h.015c.085.01.155.144.356.16h.035c.17 0 .21-.11.39-.11.19 0 1.28.635 1.696.9.285.18.535.29.73.29.09 0 .17-.02.235-.07.22-.155.185-.416.29-.716.1-.295.356-.305.546-.4.185-.095.33-.23.33-.23.14-.055.25-.08.35-.08.375 0 .525.355.881.66.185.16.345.225.495.225.205 0 .385-.13.585-.32.34-.325.49-1.195.56-1.51.071-.316.356-.34.536-.46.18-.12.16-.196.355-.246.02-.005.035-.005.055-.005.175 0 .325.215.285.49-.04.305.22.51.22.51s.776.546 1.156.716a.4.4 0 0 0 .155.035c.2 0 .3-.2.44-.265.27-.015.501-.08.611-.465.12-.195.18-.38.185-.66.005-.17-.02-.38.035-.556.04-.115.15-.205.21-.31.08-.135.16-.29.33-.4.16-.105.4-.16.645-.286.501-.25.486-.545.571-.86.085-.315.21-.27.695-.465s.45-.646.425-.84c-.025-.196-.145-1.071.12-1.312.1-.09.251-.125.431-.125.3 0 .67.105.955.225a.813.813 0 0 0 .33.076c.245 0 .386-.136.386-.136s.075-.05.45-.35c.375-.295.66-.305.975-.365.316-.06.486-.17.571-.435a.44.44 0 0 0-.23-.52c-.111-.035-.211-.27-.126-.39.086-.12.196-.416.015-.621-.18-.205-.29-.29-.255-.51.035-.22.316-.11.401-.416.085-.305-.136-.67-.136-.67V37.356c.005-.26-.255-.28-.255-.28z" fill="#EFAA0F"/><path d="M323.013 45.45a1.701 1.701 0 1 0-3.303-.818 1.701 1.701 0 0 0 3.303.819zM319.148 45.04c0-.505.17-.97.456-1.346l-2.867.31 2.441 1.416c-.02-.125-.03-.25-.03-.38zM319.554 46.31l-.586 2.947 2.086-2.03a2.185 2.185 0 0 1-1.5-.916zM323.321 46.066c-.285.54-.786.95-1.386 1.11l2.631 1.471-1.245-2.581zM325.637 43.114l-2.702.375c.396.4.636.946.636 1.551v.02l2.066-1.946zM321.36 42.829c.225 0 .44.035.64.095l-1.231-2.526-.485 2.711c.32-.18.685-.28 1.076-.28z" fill="#EFAA0F"/><path d="M291.268 58.868c0 .38.08.625.24.73.16.11.335.18.53.21.19.035.376.085.541.15.17.065.25.215.25.446 0 .23-.215.345-.651.345-.255 0-.59-.015-1-.05-.41-.035-1.001-.05-1.766-.05-.771 0-1.361.015-1.766.05-.41.035-.74.05-1.001.05-.435 0-.65-.115-.65-.345 0-.23.09-.38.265-.446.175-.065.385-.115.625-.15.271-.035.456-.16.541-.385.09-.225.13-.625.13-1.206v-11.12c0-.281-.015-.516-.05-.706-.03-.19-.16-.35-.385-.485a2.54 2.54 0 0 0-.651-.21c-.225-.04-.335-.146-.335-.31 0-.18.065-.29.19-.326.14-.035.315-.05.54-.05.146 0 .416.015.806.05.395.035.975.05 1.746.05.77 0 1.361-.015 1.766-.05.41-.035.74-.05 1-.05.436 0 .651.115.651.35 0 .15-.11.265-.325.35-.216.085-.421.166-.616.25-.275.116-.445.266-.515.446s-.11.445-.11.795v11.667zM298.352 59.068c0 .33.05.56.15.685.1.125.215.205.345.25.125.04.245.085.355.125.11.04.165.145.165.31 0 .136-.055.22-.165.26-.11.04-.25.06-.42.06-.29 0-.625-.014-1.015-.05a12.47 12.47 0 0 0-1.116-.05c-.44 0-.866.016-1.271.05-.405.036-.695.05-.865.05-.405 0-.611-.13-.611-.395 0-.15.06-.25.18-.3.121-.05.251-.09.396-.125.145-.035.275-.09.395-.175.12-.085.18-.24.18-.47v-6.954c0-.265-.065-.445-.19-.545-.125-.1-.265-.17-.42-.21-.15-.04-.29-.085-.421-.125a.253.253 0 0 1-.19-.26c0-.13.045-.226.14-.286.095-.06.191-.105.291-.135.405-.1.82-.245 1.245-.435.426-.19.806-.385 1.141-.585.34-.2.625-.37.865-.51.236-.14.381-.21.431-.21.12 0 .18.11.18.324v1.021c0 .18.065.275.205.275.085 0 .175-.045.265-.135.095-.09.24-.225.445-.41a6.07 6.07 0 0 1 1.056-.72 2.75 2.75 0 0 1 1.356-.35c.965 0 1.716.31 2.246.93.535.62.8 1.5.8 2.646v5.763c0 .266.04.56.115.88.075.326.2.526.371.611.235.115.45.18.645.185.195.01.29.11.29.31 0 .266-.185.396-.56.396-.491 0-.921-.015-1.281-.05-.365-.035-.775-.05-1.231-.05-.44 0-.815.015-1.13.05-.315.035-.596.05-.851.05-.405 0-.61-.13-.61-.396 0-.15.05-.245.15-.285.1-.04.205-.075.315-.1a.711.711 0 0 0 .315-.175c.1-.09.15-.26.15-.51v-7.039c0-.53-.125-.92-.38-1.166-.255-.25-.59-.37-1.015-.37-.426 0-.771.125-1.041.37-.27.25-.405.636-.405 1.166v6.809h.005zM339.53 59.068c0 .33.05.56.15.685.1.125.215.205.345.25.125.04.245.085.355.125.11.04.165.145.165.31 0 .136-.055.22-.165.26-.11.04-.25.06-.42.06-.29 0-.625-.014-1.016-.05-.39-.034-.76-.05-1.115-.05-.44 0-.866.016-1.271.05-.405.036-.695.05-.865.05-.406 0-.611-.13-.611-.395 0-.15.06-.25.18-.3.12-.05.251-.09.396-.125.145-.035.275-.09.395-.175.12-.085.18-.24.18-.47v-6.954c0-.265-.065-.445-.19-.545-.125-.1-.265-.17-.42-.21-.15-.04-.291-.085-.421-.125a.253.253 0 0 1-.19-.26c0-.13.045-.226.14-.286.095-.06.19-.105.291-.135.405-.1.82-.245 1.245-.435.425-.19.806-.385 1.141-.585.34-.2.625-.37.865-.51.235-.14.381-.21.431-.21.12 0 .18.11.18.324v1.021c0 .18.065.275.205.275.085 0 .175-.045.265-.135.095-.09.24-.225.445-.41a6.07 6.07 0 0 1 1.056-.72c.415-.23.865-.35 1.355-.35.966 0 1.716.31 2.247.93.535.62.8 1.5.8 2.646v5.763c0 .266.04.56.115.88.075.326.2.526.37.611.236.115.451.18.646.185.195.01.29.11.29.31 0 .266-.185.396-.56.396-.491 0-.921-.015-1.281-.05-.365-.035-.775-.05-1.231-.05-.44 0-.815.015-1.13.05-.316.035-.596.05-.851.05-.405 0-.61-.13-.61-.396 0-.15.05-.245.15-.285.1-.04.205-.075.315-.1a.711.711 0 0 0 .315-.175c.1-.09.15-.26.15-.51v-7.039c0-.53-.125-.92-.38-1.166-.255-.25-.59-.37-1.015-.37-.426 0-.771.125-1.041.37-.27.25-.405.636-.405 1.166v6.809h.005zM313.235 46c0-.3-.07-.5-.215-.61a1.398 1.398 0 0 0-.495-.225c-.185-.04-.35-.08-.496-.11-.145-.035-.215-.125-.215-.275 0-.15.055-.25.17-.31.111-.06.306-.11.576-.16a15.755 15.755 0 0 0 1.661-.36c.435-.126.78-.236 1.045-.336.265-.1.466-.18.601-.25a.827.827 0 0 1 .325-.1c.11 0 .17.165.17.495v14.658c0 .2.06.346.18.436.12.09.245.135.375.135.095 0 .17-.04.23-.125.055-.085.11-.17.155-.26.05-.09.105-.18.17-.26a.293.293 0 0 1 .241-.126c.05 0 .1.015.155.05.055.035.085.1.085.2 0 .396-.025.66-.07.796a.625.625 0 0 1-.29.325c-.496.28-.996.54-1.491.77-.496.23-.996.44-1.491.62-.175.066-.335.12-.47.161-.135.04-.271.06-.396.06-.145 0-.23-.06-.25-.175a5.12 5.12 0 0 1-.06-.325l-.05-.646c-.03-.2-.095-.3-.19-.3-.13 0-.265.06-.41.175-.45.33-.861.6-1.241.806-.375.205-.8.31-1.26.31-.466 0-.926-.1-1.386-.3-.456-.2-.861-.52-1.216-.97-.355-.446-.635-1.041-.855-1.777-.216-.735-.326-1.64-.326-2.721 0-1.01.125-1.906.376-2.682.25-.78.58-1.43 1-1.96a4.33 4.33 0 0 1 1.431-1.206 3.617 3.617 0 0 1 1.671-.41c.27 0 .535.034.795.1a6.438 6.438 0 0 1 1.211.45c.135.065.22.1.25.1V46zm0 6.114a3.3 3.3 0 0 0-.325-1.476c-.215-.44-.58-.66-1.096-.66-.515 0-.935.425-1.26 1.28-.331.851-.496 2.007-.496 3.467 0 .876.055 1.606.17 2.187.111.58.266 1.05.456 1.415.19.366.41.62.65.77.24.15.495.226.771.226.415 0 .71-.125.88-.37.17-.25.25-.746.25-1.491v-5.348zM322.825 58.918c0 .365.075.61.231.73.15.125.315.205.495.25.175.04.34.085.495.125.15.04.23.155.23.335 0 .266-.255.396-.77.396-.355 0-.701-.015-1.046-.05-.345-.035-.695-.05-1.045-.05-.576 0-1.071.015-1.481.05-.41.035-.696.05-.856.05a.816.816 0 0 1-.41-.1.329.329 0 0 1-.17-.3c0-.15.065-.25.19-.3.13-.05.265-.096.41-.136a1.6 1.6 0 0 0 .411-.185c.13-.085.19-.23.19-.445v-6.954c0-.265-.07-.445-.215-.545-.145-.1-.301-.17-.471-.21-.17-.04-.32-.085-.455-.125-.135-.04-.205-.13-.205-.26s.055-.226.17-.286c.11-.06.215-.105.315-.135.385-.1.786-.245 1.201-.435.415-.19.795-.385 1.141-.585.345-.2.645-.37.9-.51s.425-.21.505-.21c.11 0 .18.06.205.174.025.115.035.34.035.67v9.04zM332.941 58.122c0 .346.045.616.135.806.09.19.2.285.33.285.105 0 .2-.04.286-.125.09-.085.165-.17.23-.26s.135-.18.2-.26c.065-.085.135-.125.21-.125.16 0 .245.1.245.3 0 .2-.05.43-.155.695a2.51 2.51 0 0 1-.475.755c-.215.24-.481.446-.796.61a2.38 2.38 0 0 1-1.115.25c-.431 0-.751-.094-.976-.284a2.4 2.4 0 0 1-.575-.78c-.12-.23-.19-.436-.22-.611s-.105-.26-.221-.26c-.135 0-.26.06-.385.185s-.38.375-.765.755c-.681.66-1.341.996-1.991.996-.666 0-1.201-.23-1.616-.696-.415-.465-.62-1.065-.62-1.81 0-.396.07-.77.21-1.116.14-.345.365-.686.675-1.006a6.72 6.72 0 0 1 1.186-.955c.48-.315 1.06-.656 1.736-1.02.37-.2.655-.356.86-.471.205-.115.365-.22.475-.31.11-.09.18-.19.21-.3.03-.105.046-.245.046-.41v-1.837c0-.465-.066-.795-.191-.995-.125-.2-.345-.3-.65-.3-.81 0-1.341.77-1.591 2.311-.045.3-.16.555-.345.77a2.908 2.908 0 0 1-1.296.87c-.22.066-.39.1-.51.1a.67.67 0 0 1-.53-.224c-.135-.15-.2-.415-.2-.796 0-.445.135-.895.41-1.34.275-.446.65-.856 1.13-1.231a6.171 6.171 0 0 1 1.661-.906 5.769 5.769 0 0 1 2.001-.35c.946 0 1.676.18 2.202.536.525.355.785.995.785 1.926v6.628zm-5.218-.67c0 .465.09.83.275 1.105.185.276.471.41.851.41.34 0 .625-.19.86-.57.235-.38.356-.945.356-1.69v-2.012c0-.13-.036-.2-.111-.2-.03 0-.105.035-.22.1-.22.165-.455.346-.695.536-.245.19-.46.4-.65.635-.191.23-.351.485-.476.755-.13.27-.19.58-.19.93zM356.364 58.122c0 .346.045.616.135.806.09.19.2.285.33.285.105 0 .2-.04.285-.125.091-.085.166-.17.231-.26s.135-.18.2-.26c.065-.085.135-.125.21-.125.16 0 .245.1.245.3 0 .2-.05.43-.155.695a2.51 2.51 0 0 1-.475.755c-.215.24-.481.446-.796.61a2.38 2.38 0 0 1-1.115.25c-.431 0-.751-.094-.976-.284a2.4 2.4 0 0 1-.575-.78c-.12-.23-.19-.436-.22-.611s-.105-.26-.221-.26c-.135 0-.26.06-.385.185s-.38.375-.765.755c-.681.66-1.341.996-1.991.996-.666 0-1.201-.23-1.616-.696-.415-.465-.621-1.065-.621-1.81 0-.396.071-.77.211-1.116.14-.345.365-.686.675-1.006a6.72 6.72 0 0 1 1.186-.955c.48-.315 1.055-.656 1.736-1.02.37-.2.655-.356.86-.471.205-.115.365-.22.475-.31.11-.09.18-.19.21-.3.03-.105.045-.245.045-.41v-1.837c0-.465-.065-.795-.19-.995-.125-.2-.345-.3-.65-.3-.81 0-1.341.77-1.591 2.311-.045.3-.16.555-.345.77a2.908 2.908 0 0 1-1.296.87c-.22.066-.39.1-.51.1a.67.67 0 0 1-.53-.224c-.135-.15-.2-.415-.2-.796 0-.445.135-.895.41-1.34.275-.446.65-.856 1.13-1.231a6.171 6.171 0 0 1 1.661-.906 5.769 5.769 0 0 1 2.001-.35c.946 0 1.676.18 2.202.536.525.355.785.995.785 1.926v6.628zm-5.223-.67c0 .465.09.83.275 1.105.185.276.471.41.851.41.34 0 .625-.19.86-.57.235-.38.355-.945.355-1.69v-2.012c0-.13-.035-.2-.11-.2-.03 0-.105.035-.22.1-.22.165-.455.346-.695.536-.245.19-.46.4-.65.635-.191.23-.351.485-.476.755s-.19.58-.19.93zM292.579 34.19l-1.676-7.075h1.711l.535 2.917c.155.84.305 1.75.42 2.466h.02a53.39 53.39 0 0 1 .46-2.486l.601-2.897h1.701l.565 2.982c.155.83.27 1.586.375 2.371h.02c.105-.785.26-1.616.41-2.456l.576-2.897h1.626l-1.826 7.074h-1.731l-.601-3.041a25.725 25.725 0 0 1-.335-2.182h-.02c-.12.796-.235 1.466-.405 2.181l-.67 3.042h-1.756zM304.966 31.198h-2.602v1.68h2.907v1.311h-4.513v-7.074h4.368v1.311h-2.762v1.47h2.602v1.302zM306.361 27.115h1.606v5.733h2.812v1.346h-4.418v-7.079zM316.522 33.989c-.295.145-.956.305-1.816.305-2.446 0-3.707-1.52-3.707-3.537 0-2.416 1.721-3.757 3.862-3.757.831 0 1.461.17 1.741.315l-.325 1.27a3.483 3.483 0 0 0-1.346-.26c-1.271 0-2.256.766-2.256 2.342 0 1.416.84 2.311 2.266 2.311.485 0 1.021-.105 1.336-.23l.245 1.24zM323.731 30.577c0 2.321-1.406 3.727-3.472 3.727-2.101 0-3.327-1.586-3.327-3.602 0-2.121 1.356-3.707 3.442-3.707 2.171.005 3.357 1.631 3.357 3.582zm-5.113.095c0 1.386.65 2.361 1.721 2.361 1.081 0 1.701-1.03 1.701-2.4 0-1.272-.61-2.362-1.711-2.362-1.081 0-1.711 1.03-1.711 2.401zM330.765 31.483c-.03-.85-.065-1.881-.065-2.907h-.03c-.22.9-.515 1.911-.786 2.742l-.86 2.761h-1.251l-.755-2.741c-.23-.83-.47-1.836-.641-2.762h-.02c-.045.956-.075 2.046-.13 2.927l-.125 2.686h-1.481l.451-7.074h2.131l.69 2.362c.22.82.441 1.7.601 2.531h.03c.2-.82.44-1.751.67-2.542l.755-2.35h2.087l.39 7.073h-1.566l-.095-2.706zM337.869 31.198h-2.602v1.68h2.907v1.311h-4.513v-7.074h4.368v1.311h-2.762v1.47h2.602v1.302zM342.341 28.461h-1.901v-1.346h5.438v1.346h-1.931v5.733h-1.606v-5.733zM352.897 30.577c0 2.321-1.406 3.727-3.472 3.727-2.101 0-3.327-1.586-3.327-3.602 0-2.121 1.356-3.707 3.442-3.707 2.171.005 3.357 1.631 3.357 3.582zm-5.108.095c0 1.386.651 2.361 1.721 2.361 1.081 0 1.701-1.03 1.701-2.4 0-1.272-.61-2.362-1.711-2.362-1.085 0-1.711 1.03-1.711 2.401z" fill="#fff"/></g><defs><linearGradient id="paint0_linear" x1="223.355" y1="90.746" x2="223.355" y2="76.384" gradientUnits="userSpaceOnUse"><stop offset=".003" stop-color="#C2B69C"/><stop offset=".505" stop-color="#E3DFD7"/><stop offset=".797" stop-color="#E6E6E6"/></linearGradient><linearGradient id="paint1_linear" x1="223.002" y1="89.08" x2="228.203" y2="98.088" gradientUnits="userSpaceOnUse"><stop stop-color="#E3DFD7"/><stop offset=".997" stop-color="#C2B69C"/></linearGradient><linearGradient id="paint2_linear" x1="221.664" y1="100.694" x2="241.123" y2="100.694" gradientUnits="userSpaceOnUse"><stop offset=".005" stop-color="#CCC1AB"/><stop offset=".182" stop-color="#D0C6B4"/><stop offset=".488" stop-color="#D3CBBC"/><stop offset=".997" stop-color="#D4CDBF"/></linearGradient><linearGradient id="paint3_linear" x1="205.95" y1="89.86" x2="212.114" y2="89.86" gradientUnits="userSpaceOnUse"><stop stop-color="#E3DFD7"/><stop offset=".997" stop-color="#C2B69C"/></linearGradient><linearGradient id="paint4_linear" x1="211.462" y1="100.614" x2="211.462" y2="91.158" gradientUnits="userSpaceOnUse"><stop offset=".003" stop-color="#C2B69C"/><stop offset="1" stop-color="#E3DFD7"/></linearGradient><linearGradient id="paint5_linear" x1="212.432" y1="102.133" x2="224.778" y2="102.133" gradientUnits="userSpaceOnUse"><stop offset=".003" stop-color="#C2B69C"/><stop offset="1" stop-color="#E3DFD7"/></linearGradient><linearGradient id="paint6_linear" x1="217.37" y1="97.297" x2="248.765" y2="97.297" gradientUnits="userSpaceOnUse"><stop offset=".003" stop-color="#389CC7"/><stop offset="1" stop-color="#2E7EC9"/></linearGradient><linearGradient id="paint7_linear" x1="231.433" y1="92.295" x2="247.019" y2="92.295" gradientUnits="userSpaceOnUse"><stop offset=".003" stop-color="#389CC7"/><stop offset="1" stop-color="#2E7EC9"/></linearGradient><linearGradient id="paint8_linear" x1="232.934" y1="95.71" x2="225.914" y2="100.965" gradientUnits="userSpaceOnUse"><stop stop-color="#2E7EC9"/><stop offset=".997" stop-color="#389CC7"/></linearGradient><linearGradient id="paint9_linear" x1="190.882" y1="88.186" x2="196.713" y2="88.186" gradientUnits="userSpaceOnUse"><stop stop-color="#E3DFD7"/><stop offset=".997" stop-color="#C2B69C"/></linearGradient><linearGradient id="paint10_linear" x1="190.84" y1="92.878" x2="204.138" y2="92.878" gradientUnits="userSpaceOnUse"><stop stop-color="#E3DFD7"/><stop offset=".997" stop-color="#C2B69C"/></linearGradient><linearGradient id="paint11_linear" x1="195.01" y1="93.391" x2="206.047" y2="93.391" gradientUnits="userSpaceOnUse"><stop offset=".203" stop-color="#E6E6E6"/><stop offset=".495" stop-color="#E3DFD7"/><stop offset=".997" stop-color="#C2B69C"/></linearGradient><linearGradient id="paint12_linear" x1="204.293" y1="103.604" x2="204.293" y2="95.097" gradientUnits="userSpaceOnUse"><stop stop-color="#E3DFD7"/><stop offset=".997" stop-color="#C2B69C"/></linearGradient><linearGradient id="paint13_linear" x1="197.114" y1="89.098" x2="201.366" y2="89.098" gradientUnits="userSpaceOnUse"><stop offset=".203" stop-color="#E6E6E6"/><stop offset=".495" stop-color="#E3DFD7"/><stop offset=".997" stop-color="#D4CDBF"/></linearGradient><linearGradient id="paint14_linear" x1="207.086" y1="102.428" x2="208.709" y2="102.428" gradientUnits="userSpaceOnUse"><stop stop-color="#E3DFD7"/><stop offset=".997" stop-color="#C2B69C"/></linearGradient><linearGradient id="paint15_linear" x1="181.543" y1="88.171" x2="188.612" y2="88.171" gradientUnits="userSpaceOnUse"><stop stop-color="#E3DFD7"/><stop offset=".997" stop-color="#C2B69C"/></linearGradient><linearGradient id="paint16_linear" x1="176.739" y1="82.351" x2="189.149" y2="82.351" gradientUnits="userSpaceOnUse"><stop offset=".203" stop-color="#E6E6E6"/><stop offset=".495" stop-color="#E3DFD7"/><stop offset=".997" stop-color="#C2B69C"/></linearGradient><linearGradient id="paint17_linear" x1="180.316" y1="78.599" x2="182.788" y2="78.599" gradientUnits="userSpaceOnUse"><stop offset=".203" stop-color="#E6E6E6"/><stop offset=".495" stop-color="#E3DFD7"/><stop offset=".997" stop-color="#D4CDBF"/></linearGradient><clipPath id="clip0"><path fill="#fff" transform="translate(286 27)" d="M0 0h72v44.555H0z"/></clipPath></defs></svg>