<svg width="1600" height="400" fill="none" xmlns="http://www.w3.org/2000/svg" viewBox="0 0 1600 400"><g filter="url(#filter0_d)"><path fill="#F5FCFF" d="M1600 0H0v400h1600z"/></g><mask id="a" maskUnits="userSpaceOnUse" x="623" y="0" width="977" height="400"><path transform="matrix(-1 0 0 1 1600 0)" fill="#F5FCFF" d="M0 0h977v400H0z"/></mask><g mask="url(#a)"><path d="M1811.84 8.01l-221.16 12.087-412.3 43.203-76.81 45.616 349.28 203.445 293.2 27.611 67.79-331.961z" fill="#00AD00"/><path d="M1721.26 4.697S967.115 28.777 916.425 112.28C853.991 215.137 1472.9 491 1472.9 491l522.48-123.8s-828.17-206.809-790.9-269.085c38.95-65.08 809.99-83 809.99-83L1721.26 4.696z" fill="#fff"/><path d="M1531.55 450.392S919.755 205.655 975.078 112.279C1024.87 28.243 1779.91 7.401 1779.91 7.401l168.74 3.197s-771.51 22.153-809.99 87.508c-41.13 69.872 790.89 300.67 790.89 300.67l-398 51.616z" fill="#004EBB"/></g><path d="M1088.02 206.807c-3.27 1.878-3.2 4.799.17 6.494l31.23 19.982 165.34 83.193c3.37 1.694 8.93 1.652 12.64.909 14.06-2.854 34.8-9.273 45.85-14.606 3.4-1.645 8.31-4.792 11.35-7.028 5.12-3.757 13.66-11.861 16.64-17.996 1.65-3.397 2.1-6.235-1.27-7.938l-203.17-102.24c-3.37-1.695-8.8-1.553-12.07.325l-66.71 38.905z" fill="#0032A5"/><path d="M1092.84 170.849c-1.02-5.868 3.09-10.083 3.09-10.083s2.32-6.802 8.44-14.248c6.12-7.437 29.06-20.633 35.57-23.346 6.51-2.713 13.76-3.046 17.32-2.554 3.58.493 20.25 5.751 20.25 5.751s20.2 1.611 36.97 8.28 34.94 16.694 48.41 23.864c7.84 4.173 22.22 15.099 32.86 23.479l1.25-.793s-1.04-4.899-.8-5.767c.23-.877 2.73-7.012 2.73-7.012s3.06 3.097 3.99 5.659c.94 2.563-.67 6.428-1.17 8.306-.29 1.068-.92 2.337-1.4 3.238-.01-.008-.03-.017-.04-.025 5.23 4.174 8.77 7.103 8.77 7.103 18.53 7.27 42.39 27.862 42.39 27.862 4.56.234 7.7 8.831 10.98 14.69 3.29 5.868 3.12 9.816 3.03 11.536-.1 1.719 2.18 26.334-17.79 40.165-19.98 13.822-43.82 16.91-54.44 16.192a53.15 53.15 0 0 1-12.08-2.245c-.41-1.995-.8-3.864-.88-5.167-.64-10.717-10.18-23.529-19.95-28.02-12.65-5.818-18.54.092-17.89 10.818.07 1.06.39 2.737.81 4.499l-96.33-48.512c-.42-2.287-.88-4.633-1.11-6.052-1.59-9.757-9.2-20.75-17.68-25.833-13.55-8.121-17.6-.409-16.15 10.225v.017c-4.81-4.374-12.79-11.694-16.87-15.834-6.09-6.169-5.62-15.016-6.07-18.155-.46-3.138 3.79-8.038 3.79-8.038z" fill="#14AFEB"/><path d="M1089.04 178.888c.46 3.138-.02 11.986 6.07 18.154 4.09 4.14 12.07 11.46 16.87 15.834v-.017c-1.46-10.634 2.6-18.354 16.15-10.225 8.48 5.084 16.1 16.076 17.68 25.834.24 1.419.7 3.764 1.11 6.051l96.33 48.512c-.42-1.761-.75-3.439-.81-4.499-.64-10.726 5.25-16.635 17.89-10.817 9.77 4.49 19.31 17.303 19.95 28.02.08 1.302.47 3.172.88 5.167 3.04.943 7.18 1.911 12.08 2.245 10.62.718 34.46-2.371 54.44-16.193 18.13-12.545 17.92-33.971 17.8-39.121-1.67 8.814-6.12 19.848-18.32 28.237-12.6 8.672-22.43 13.338-43.1 14.173-12.18.484-20.34-3.197-24.92-4.925l-.05-.91c4.57 1.728 12.63 3.74 24.81 3.256 20.68-.827 30.5-5.501 43.1-14.165 12.28-8.447 16.71-19.565 18.36-28.413.06.309.1.601.14.885.04-2.003-.22-5.634-3.05-10.709-.92-1.644-1.83-3.497-2.76-5.325-2.14 3.631-3.53 1.845-3.53 1.845-.11 3.956-1.74 9.49-2.75 11.343-1.01 1.853-4.16 8.355-12.97 14.64s-18.81 9.607-24.53 11.444c-5.72 1.836-11.16 1.619-11.16 1.619-6.71 3.372-13.56.467-13.56.467-1.6-3.13-8.41-6.894-13.51-9.44-2.78-1.385-7.67-4.248-12.1-7.061-3.72-2.362-5.91-3.932-5.91-3.932-11.12-7.136-15.46-12.954-15.46-12.954-8.46-14.749-24.45-35.499-24.45-35.499-11.65-14.381-33.6-24.222-48.31-31.451-10.5-5.158-26.26-4.549-39.49-5.025l-15.68-.818s-15.9-4.248-16.21-12.612c-2.94 4.733-4.14 8.247-4.14 8.247s-4.11 4.224-3.09 10.083c0 0 6.77 14.407 13.63 22.795 0 0-12.54-9.899-17.12-17.052-.27.818-.41 1.611-.31 2.312zm126.12 47.527c4.1-.935 6.54-2.404 8.1-1.019l4.57 4.157s2.39 2.329.7 3.431c-1.69 1.101-7.3 1.444-11.92 1.719-4.62.275-4.97-3.915-5.07-4.591-.1-.684-.48-2.763 3.62-3.697z" fill="#0082C8"/><path d="M1154.62 172.869a24.84 24.84 0 0 1 2.58-.283c12.99-.785 26.14 7.445 30.66 9.966 7.25 4.04 20.86 11.36 28.73 20.533 9.61 11.21 7.34 10.3 21.89 35.182 0 0-4.12-2.078-10.18-5.158.08-.042.16-.076.23-.126 1.69-1.101-.7-3.43-.7-3.43l-4.57-4.157c-1.56-1.377-3.99.084-8.07 1.01-10.63-5.459-22.36-11.552-29.26-15.366-14.94-8.272-53.25-29.673-53.25-29.673s8.13-6.252 21.94-8.498z" fill="#0082C8"/><path d="M1250.15 268.415l4.45-2.646c1.73.35 3.64.984 5.73 1.953 9.77 4.49 19.31 17.303 19.95 28.02.07 1.302.47 3.172.88 5.167h.02l-7.85 4.674c-2.69 1.619-6.47 1.552-10.75-.584-8.85-4.424-16.5-16.001-17.09-25.867-.33-5.367 1.5-9.123 4.66-10.717z" fill="#192D4B"/><path d="M1254.61 265.761l-4.46 2.646c-3.17 1.594-4.99 5.35-4.67 10.717.06 1.027.2 2.07.41 3.122l-2.64.784c-.42-1.761-.75-3.439-.81-4.499-.54-8.939 3.48-14.532 12.17-12.77z" fill="#004687"/><path d="M1245.48 279.124c.59 9.866 8.25 21.451 17.09 25.867 8.85 4.415 15.54 0 14.95-9.866-.6-9.866-8.25-21.452-17.1-25.867-8.84-4.416-15.53 0-14.94 9.866z" fill="#192D4B"/><path d="M1246.43 280.058c.55 9.098 7.6 19.782 15.75 23.855 8.17 4.074 14.34.009 13.79-9.098-.55-9.098-7.6-19.782-15.76-23.855s-14.33 0-13.78 9.098z" fill="#192D4B"/><path d="M1250.22 282.153c.41 6.778 5.66 14.724 11.73 17.762 6.07 3.03 10.66 0 10.26-6.769-.41-6.777-5.66-14.724-11.73-17.754-6.08-3.046-10.67-.008-10.26 6.761z" fill="#0082C8"/><path d="M1258.74 285.425c.11 1.979 1.65 4.291 3.42 5.184 1.77.885 3.11 0 2.99-1.978-.12-1.979-1.66-4.299-3.43-5.184-1.76-.885-3.1 0-2.98 1.978zM1117.86 201.782l3.6-2.145c1.9.492 4.12 1.46 6.67 2.996 8.48 5.083 16.1 16.076 17.68 25.834.24 1.419.7 3.764 1.11 6.051l.85.426-6.74 4.006c-2.69 1.62-6.47 1.553-10.75-.584-8.85-4.415-16.5-16.001-17.1-25.867-.31-5.367 1.52-9.115 4.68-10.717z" fill="#192D4B"/><path d="M1113.18 212.5c.6 9.866 8.25 21.451 17.1 25.866 8.85 4.416 15.54.009 14.95-9.865-.59-9.866-8.25-21.452-17.1-25.867-8.84-4.416-15.54 0-14.95 9.866z" fill="#192D4B"/><path d="M1114.13 213.434c.55 9.098 7.6 19.782 15.76 23.864 8.16 4.073 14.33 0 13.79-9.098-.56-9.098-7.61-19.782-15.77-23.856-8.16-4.081-14.32-.008-13.78 9.09z" fill="#192D4B"/><path d="M1117.93 215.53c.4 6.769 5.65 14.723 11.72 17.762 6.08 3.029 10.66 0 10.26-6.77-.41-6.777-5.66-14.723-11.73-17.762-6.07-3.038-10.66-.008-10.25 6.77z" fill="#0082C8"/><path d="M1126.38 218.768c.13 2.011 1.69 4.373 3.49 5.275 1.8.901 3.17 0 3.05-2.012-.13-2.011-1.68-4.374-3.49-5.275-1.81-.901-3.17 0-3.05 2.012z" fill="#192D4B"/><path d="M1121.46 199.645l-3.6 2.146c-3.16 1.594-4.99 5.35-4.68 10.709 0 .041.01.091.01.133l-1.21.242v-.017c-1.18-8.63 1.27-15.333 9.48-13.213z" fill="#004687"/><path d="M1250.16 181.692c9.92-6.945 20.79-16.218 20.79-16.218s17.19 11.444 22.8 15.926c8.4 6.711 15.33 11.301 15.33 11.301.93.368 1.88.768 2.83 1.194 8.1 6.135-5.27 18.956-15.59 26.743-10.31 7.78-27.21 16.777-37.25 18.655-1.03.192-2 .309-2.92.368-7.96.475-11.34-3.773-11.34-3.773-7.71-13.505-24.56-35.891-24.56-35.891s19.98-11.36 29.91-18.305zM1119.07 158.688c3.38-5.117 16.66-14.69 23.6-19.123 4.97-3.171 13.01-8.497 22.65-11.318 3.21-.943 6.6-1.602 10.12-1.811a33.55 33.55 0 0 1 2.07-.067s9.94.793 21.65 3.564c0 0-16.12 8.848-23.36 13.956-7.23 5.1-21.2 16.276-22.78 17.837 0 0-2.52 3.105-5.13 3.256-2.61.158-28.92-1.211-28.92-1.211s-3.28.034.1-5.083z" fill="#0082C8"/><path d="M1250.73 182.509c8.55-5.976 17.89-13.764 20.28-15.775 3.15 2.103 17.2 11.535 22.1 15.458 8.34 6.661 15.34 11.31 15.41 11.352l.09.058.1.042.32.134c.86 1.652 1.49 3.831.71 6.009-1.6 4.449-9.74 12.821-17.65 18.046-7.65 5.042-22.22 16.711-41.51 20.3-3.13-.877-4.67-2.496-4.96-2.822-6.78-11.86-20.66-30.657-23.89-34.998 4.17-2.404 20.42-11.794 29-17.804zM1184.72 182.251c.89.493 1.67.935 2.33 1.277-2.47 6.694-4.83 19.198-5.66 23.839-8.2-4.558-19.68-10.951-29.38-16.368l5.4-17.412c10.67-.584 21.48 5.425 27.31 8.664zM1154.79 173.862c.21-.033.43-.058.65-.091l-5.36 16.151c-7.04-3.923-12.89-7.195-15.48-8.639 2.78-1.778 9.91-5.751 20.19-7.421zM1147.82 163.98c1.77-.109 3.79-2.12 4.41-2.888l.03-.042.05-.033c1.67-1.661 15.42-13.238 22.9-17.954 14.69-9.265 19.17-11.118 23.11-13.322-10.41-2.404-19.24-3.238-20.62-3.355-2.42.334-5.55 1.018-9.66 1.92-10.03 2.47-18.56 8.096-24.05 11.61l-.78.501c-7.81 4.983-20.19 14.114-23.31 18.822-1.69 2.562-1.32 3.33-1.32 3.355.08.142.36.167.36.167H1119.01c9.09.484 26.79 1.344 28.81 1.219z" fill="#94DAEE"/><path d="M1359.42 253.174s-3.28-13.714-3.51-15.208c-.23-1.494 2.24-10.367-4.19-17.378 4.14.492 7.11 7.871 10.12 13.538.21 4.232.31 13.706-2.42 19.048zM1319.85 280.318s-3.8-3.681-7.14-6.21c-3.33-2.529-5.5-3.305-9.8-3.355-4.29-.042-10.95.15-14.22-.51-3.28-.659-5.93-1.16-8.02-1.435-2.08-.284-3.8-.326-2.4 2.011s3.14 7.32 8.27 8.748c5.13 1.427 7.9 1.627 14.32 1.677 6.42.059 18.99-.926 18.99-.926z" fill="#E1E8EC"/><path d="M1330.12 278.707c.89-.05 1.78-.267 2.66-.635l.72-.3c4.01-1.695 9-3.806 13.45-7.562 3.82-3.222 6.36-5.718 7.76-7.638 1.23-1.694 1.74-3.48 1.54-5.467-.19-1.87-.81-7.587-1.17-10.834-1.48 2.287-4.12 6.152-6.97 9.365-2.41 2.721-7.49 7.671-14.49 10.308-.48.184-.96.376-1.45.576-.47.192-.95.384-1.43.56-5.65 2.145-11.21 3.781-13.94 4.532l9.27 6.177c-.01.008 1.65 1.06 4.05.918zM1299.45 296.569c2.8-.343 10.02-1.035 13.47-1.645.57-.1 1.13-.292 1.35 1.286.22 1.577-1.97 1.903-1.97 1.903-3.03.451-5.86.809-7.69.901 0 0-5.47.393-5.98.418-.63.025-1.1-.334-1.1-.334-.26-1.002.17-2.312 1.92-2.529zM1330.64 290.993l.7 1.711s.66.96 2.61-.008c1.94-.968 9.93-5.267 14.56-8.723 3.43-2.562 6.55-5.951 7.13-6.685.59-.735 1.13-2.605 1.16-3.281.02-.676.41-1.978-1.09-.233-1.5 1.744-6.86 6.301-10.44 8.68-3.58 2.379-12.56 6.895-14.08 7.479.01.008-.84.334-.55 1.06z" fill="#006399"/><path d="M1095.68 161.05s-.98 2.229.99 4.483c1.96 2.253 6.32 6.126 6.32 6.126s1.1.434-.91 2.888c-2.02 2.454-2.28 2.471-2.28 2.471s-.3.35-.78.375c-.37.025-.83-.142-1.35-.793-1.2-1.502-3.65-3.822-4.83-5.759-.87-4.966 1.96-8.756 2.84-9.791z" fill="#0082C8"/><path d="M1223.26 225.395c-1.36-1.201-3.38-.242-6.59.635-9.01-4.616-18.95-9.766-26.13-13.631.12-9.039.85-21.626 1.14-26.476 10.78 5.801 19.07 11.911 24.13 17.812 6.3 7.354 7.44 9.432 11.69 17.178.02.025.03.05.04.075l-.32 8.005-3.96-3.598z" fill="#94DAEE"/><path d="M1244.09 221.332l9.98 4.265c.37-2.446 1.35-6.018.24-12.437-1.09-6.31-4.28-10.7-4.28-10.7s.13-5.217-2.08-11.411a11.113 11.113 0 0 0-3.09-4.632c-1.75 1.118-3.59 2.27-5.45 3.414l4.68 31.501z" fill="#D4CDBF"/><path d="M1270.38 190.857s.56-4.824-1.64-11.009c-1.26-3.514-3.38-5.709-5.15-7.028-3.78 3.013-8.43 6.594-12.85 9.699-1.7 1.193-3.71 2.521-5.87 3.898 1.23 1.093 2.36 2.579 3.1 4.632 2.2 6.194 2.08 11.41 2.08 11.41l20.33-11.602z" fill="url(#paint0_linear)"/><path d="M1254.31 213.168c-1.09-6.31-4.28-10.7-4.28-10.7l20.34-11.602s2.58 3.923 4.31 9.432c1.1 3.505 1.52 9.949 1.15 12.386l-21.76 12.921c.37-2.445 1.36-6.026.24-12.437z" fill="url(#paint1_linear)"/><path d="M1294.33 216.274c-4.72-1.92-10.79-3.84-13.07-4.299-4.02-.81-5.45.676-5.45.676l-21.65 12.846c.45 2.337 5.05 5.968 9.71 8.747 12.72-5.033 22.45-12.612 28.22-16.418.75-.484 1.49-1.01 2.24-1.552z" fill="url(#paint2_linear)"/><path d="M1227.02 207.518l7.38-4.207s.47-4.14-1.41-9.449c-.02-.041-.04-.075-.05-.116-4.99 2.971-9.34 5.475-11.21 6.56.96 1.294 2.89 3.898 5.29 7.212z" fill="url(#paint3_linear)"/><path d="M1234.4 203.311l-7.38 4.207c3.11 4.307 7.03 9.824 10.72 15.308l1.34-.793c.31-2.095-.04-7.621-.99-10.626-1.48-4.724-3.69-8.096-3.69-8.096z" fill="url(#paint4_linear)"/><path d="M1245.37 234.862c7.03-4.257 15-9.374 15.21-10.375.36-1.712-14.54-6.478-18.37-7.212-3.83-.726-5.2.609-5.2.609l-1.9 1.069c3.77 5.475 7.54 11.201 10.26 15.909z" fill="url(#paint5_linear)"/><path d="M1271.45 200.991s5.77 1.519 9.38 4.432c3.61 2.913 8.39 8.497 8.39 8.497l-3.48 5.434s-12.17-5.96-15.53-7.763c-3.35-1.803-6.25-7.32-6.25-7.32l7.49-3.28z" fill="#014B89"/><path d="M1267.35 202.727s1.9 3.205 1.76 4.157c-.14.951.62 2.771.62 2.771s5.84 4.449 7.47 6.744c1.63 2.304 3.2 5.885 2.75 5.918-.44.033-6.65 2.537-6.65 2.537s-5.46-5.801-8.69-7.42c-3.23-1.611-8.09-4.691-9.26-10.066l12-4.641z" fill="#1A64A3"/><path d="M1288.03 190.457s.04.009.09.009c.38.058 1.97.283 2.68.45.81.192 1.27-.058 2.3 1.127 1.03 1.194.98 1.995.94 2.796-.05.802-.32 1.995-.58 2.271-.26.275-.37.551-.74.484-.38-.067-.55-.259-.52-.234.02.025-.5-.008-.47-.551.03-.534.33-1.703.33-1.703l-.3-.959s-.75-.51-.96-.443c-.22.067-2.29.167-2.29.167s-2.9.209-3.99-.075c-1.1-.284-10.47-2.629-11.34-3.205-.85-.584-4.12-4.775-5.49-6.143-1.37-1.369-1.86-5.96-2.65-6.202-.79-.234-2.61-.117-2.61-.117l-1.37-2.771s3.84-3.856 6.27-1.886c2.42 1.961 3.23 3.138 3.63 3.664.41.526 4.5 7.854 5.64 8.689 1.14.834 8.56 4.09 9.73 4.073.84 0 1.7.559 1.7.559z" fill="#F2A983"/><path d="M1267.1 181.985s3.99 4.75 5.2 5.543c1.2.793 2.79-1.052 2.49 0-.3 1.051.07 2.111.49 2.337.42.225 9.3 2.454 9.91 2.637.61.184 2.89-1.377 4.05-.676.69.418 1.01 1.236.87 1.953-.67.05-1.59.092-1.59.092s-2.9.209-3.99-.075c-1.1-.284-10.47-2.629-11.34-3.205-.86-.584-4.12-4.774-5.49-6.143-.4-.401-.73-1.077-1.01-1.837l.41-.626z" fill="#D88F69"/><path d="M1263.72 172.913s2.45-.977 4.26.601c1.8 1.585 5.21 6.627 5.21 6.627s-3.5 5.442-6.15 6.152c-2.65.709-3.32-13.38-3.32-13.38z" fill="#F6C100"/><path d="M1265.46 179.623c.46-.96 3.04-.801 3.73 1.169.41 1.193.91 2.278 1.24 2.946-1.08 1.185-2.3 2.27-3.39 2.562-1.11.293-1.98-1.969-2.63-4.707.49-.927.9-1.678 1.05-1.97z" fill="#DDA800"/><path d="M1258.11 181.626c3.69.676 6.22.501 6.74-1.51.51-2.012-1.68-6.235-1.68-6.235l-.66-.209a305.062 305.062 0 0 1-7.21 5.542c.36 1.06 1.16 2.112 2.81 2.412z" fill="#D88F69"/><path d="M1266.89 193.086c-.06-.759-.48-4.307-.48-4.307.68-.918 1.8-3.464 1.59-7.654-.21-4.19-2.88-7.887-2.88-7.887s-.98-.201-1.78-.226c-.29.226-.59.459-.88.693.02.025.03.05.06.075 1.17 1.327 1.94 4.975-.35 6.193-2.05 1.086-3.85-.133-4.96-1.252-.19-.192-.37-.367-.54-.542a209.421 209.421 0 0 1-5.94 4.324c-.9.634-1.88 1.302-2.94 1.994.35 4.316 4.72 11.636 5.61 13.105 1.04 1.703 2.44 11.101 2.44 11.101 1.39-1.177 6.84-1.953 11.35-3.322 4.53-1.369 4.94-4.482 4.94-4.482s-1.11-.601-1.79-1.277c-.68-.668-3.38-5.776-3.45-6.536z" fill="#F6C100"/><path d="M1263.69 175.984c1.53-.376 1.08-1.678 1.09-2.638.01-.492.07-1.051.14-1.602a416.539 416.539 0 0 1-5.22 4.123c1.43.342 2.96.376 3.99.117z" fill="#F2A983"/><path d="M1264.44 175.625c.62-.559.34-1.528.35-2.279.01-.492.07-1.051.14-1.602l-.09.075c.06.309.06.701-.38.743-.48.041-.19.884-.21 1.427 0 .292.06 1.01.19 1.636z" fill="#D88F69"/><path d="M1254.67 189.13c-.22 2.262-.07 3.464.94 5.358 1 1.895.86 3.706 2.61 4.716 1.74 1.01 3.28-.058 5.05 0 1.77.05 1.63-.025 1.43 1.169-.19 1.185-.09 1.903 1.39 1.477 1.49-.434 3.57-1.127 3.16-.142-.32.793-4.33 3.13-5.61 4.65-1.2.292-2.37.559-3.43.818-1.35-.234-3.03-.585-4.77-.969-.49-2.913-1.34-7.445-2.03-8.58-.95-1.569-5.49-8.264-5.25-12.395l4.9-.576c0-.017 1.83 2.212 1.61 4.474z" fill="#DDA800"/><path d="M1280.02 209.872c.94 0 2.07-.292 3.32-.902 4.33-2.111 8.52-7.278 9.35-11.543.59-3.03-.66-4.783-3-4.783-.94 0-2.07.292-3.32.902-4.32 2.111-8.51 7.278-9.35 11.543-.59 3.03.67 4.783 3 4.783zm-1.09-4.424c.7-3.547 4.35-8.038 7.99-9.816.94-.459 1.8-.693 2.48-.693.54 0 .92.142 1.15.426.36.434.45 1.294.25 2.346-.7 3.547-4.36 8.038-8 9.815-.93.46-1.79.702-2.48.702-.53 0-.92-.142-1.15-.426-.36-.442-.45-1.302-.24-2.354z" fill="#39464A"/><path d="M1309.74 199.789c.77-2.153.15-4.307-.68-5.951-6.2-.067-19.49 9.281-32.54 17.061-12.65 7.537-25.84 18.48-31.22 23.838.11.192.22.384.32.568.29.325 1.83 1.945 4.96 2.821 19.29-3.589 33.86-15.25 41.51-20.299 7.91-5.217 16.05-13.589 17.65-18.038z" fill="url(#paint6_linear)"/><path d="M1306.49 204.939c-.7-4.157-3.62-7.88-3.62-7.88s-6.4-4.741-16.69 0C1275.89 201.8 1274.32 212 1274.32 212v.2c6.08 2.88 13.41 4.825 20.17 3.94 4.61-3.372 9.06-7.57 12-11.201z" fill="url(#paint7_linear)"/><path d="M1259.96 221.816s-.95-5.917 5.82-9.548c6.77-3.631 12.14-.91 12.14-.91s8.54 5.851-1.88 11.485c-10.42 5.634-16.08-1.027-16.08-1.027z" fill="url(#paint8_linear)"/><path d="M1254.44 207.268c.52.567 2.29 1.97 2.64 2.905.35.934.79 2.353.63 3.313-.16.968-.08 2.221-.59 2.362-.51.142-.75.042-.75.042s-.05.66-.71.635c-.65-.026-.56-.293-.56-.293s-.54.409-.83.318c-.29-.092-.42-1.119-.42-1.119s-.46-2.412-.56-2.621c-.08-.209-.51-1.36-.53-.96-.02.393.42 1.912.51 2.421.09.509.44 1.36.14 1.427-.3.059-.99-.776-1.2-1.494-.21-.718-1.05-2.362-1.07-2.855-.02-.484.26-2.512-.11-3.029-.36-.518-4.17-4.065-5.16-6.252-.98-2.195-1-2.237-1.16-3.23-.15-.86.3-1.979.3-1.979s.5-5.892 1.31-7.478c.82-1.586 1.28-2.596 1.32-3.08.05-.484.43-2.413 1.95-2.605 1.52-.192 4.45 2.454 4.53 3.506.08 1.052-1.18 2.195-1.72 3.439-.54 1.244-1.77 8.355-1.77 8.355s2.86 7.237 3.81 8.272z" fill="#F2A983"/><path d="M1257.12 215.848c-.51.142-.75.042-.75.042s-.05.659-.7.634c-.66-.025-.57-.292-.57-.292s-.54.409-.83.317c-.29-.092-.42-1.118-.42-1.118s-.34-1.761-.5-2.404c.13-.401 1.2-.075 1.2-.075s.22-.209.71-.426c.5-.217 1.13-.083 1.13-.083s.29-.084 1.03-.343a.872.872 0 0 1 .21-.05c.1.518.15 1.019.08 1.444-.16.952-.08 2.212-.59 2.354zM1251.69 212.902c.54 0 1.04.058 1.28.083.12.493.25 1.01.3 1.269.09.509.44 1.361.14 1.427-.3.059-.99-.776-1.2-1.494-.09-.309-.31-.793-.52-1.285z" fill="#D88F69"/><path d="M1254.4 184.181c-.43-1.419-1.27-2.246-2.17-2.73-.5.359-1 .718-1.49 1.06-1.27.885-2.71 1.853-4.25 2.855-.47 2.17-.36 4.173-.36 4.173 3.4-.784 6.91 1.327 6.91 1.327s2.23-3.772 1.36-6.685z" fill="#F6C100"/><path d="M1201.92 192.024c-3.06-2.028-6.44-4.048-10.11-6.026l-.14.084c-.26 4.24-.82 13.947-1.04 22.269l11.92-7.078c.27-1.812.05-6.152-.63-9.249z" fill="url(#paint9_linear)"/><path d="M1217.99 206.315c-.65-.785-1.37-1.636-2.17-2.571-1.81-2.112-4.03-4.24-6.64-6.377-1.69-.534-3.14-.935-3.99-1.11-3.45-.693-4.67.584-4.67.584l-9.7 5.759c-.13 3.389-.24 6.795-.29 9.816 2.94 1.586 6.36 3.381 9.97 5.275 3.87-2.303 12.5-7.787 17.49-11.376z" fill="url(#paint10_linear)"/><path d="M1209.06 218.776s.11-4.483-1.77-9.791c-2.11-5.935-8.13-6.461-8.13-6.461l2.32 15.651c3.23 1.686 6.61 3.439 9.96 5.158-1.11-2.813-2.38-4.557-2.38-4.557z" fill="#D4CDBF"/><path d="M1221.93 211.438c-1.5-2.162-3.28-4.399-6.11-7.704-1.9-2.203-4.23-4.44-6.99-6.677l-9.67 5.467s6.02.517 8.13 6.46c1.88 5.309 1.77 9.791 1.77 9.791l12.87-7.337z" fill="url(#paint11_linear)"/><path d="M1223.26 225.395l3.96 3.606.32-8.005c0-.025-.02-.05-.04-.075-2.34-4.274-3.74-6.819-5.58-9.482l-12.86 7.337s1.26 1.744 2.36 4.557c1.76.91 3.52 1.811 5.24 2.696 3.22-.876 5.24-1.836 6.6-.634z" fill="url(#paint12_linear)"/><path d="M1206.19 197.558c.53.626.59 3.973.58 5.651.15-.025.3-.067.45-.125l5.04-3.014a70.752 70.752 0 0 0-6.21-5.141c-1.26.759-2.26 1.36-2.57 1.544.91-.159 2.07.334 2.71 1.085z" fill="url(#paint13_linear)"/><path d="M1203.49 196.465c.9-.142 2.05.342 2.7 1.094.53.626.59 3.973.58 5.65-.58.101-1.07-.025-1.07-.025s-3.05-1.644-3.47-2.387c-.42-.743 1.16-4.265 1.16-4.265s.04-.034.1-.067z" fill="#D4CDBF"/><path d="M1227.42 224.143l-3.35 1.986 3.16 2.871.19-4.857z" fill="url(#paint14_linear)"/><path d="M1169.58 185.457c-2.12-5.935-8.13-6.461-8.13-6.461l2.78 18.822c3.67 2.045 7.29 4.065 10.66 5.935-1.03-5.05-3.54-8.506-3.54-8.506s.11-4.482-1.77-9.79z" fill="#D4CDBF"/><path d="M1185.94 186.926l-14.59 8.322s2.5 3.464 3.54 8.505c2.31 1.285 4.5 2.504 6.5 3.614.71-3.94 2.51-13.53 4.55-20.441z" fill="url(#paint15_linear)"/><path d="M1185.94 186.926c.37-1.227.74-2.387 1.11-3.397-.66-.342-1.44-.776-2.33-1.277-3.78-2.104-9.66-5.359-16.24-7.237l-7.04 3.982s6.02.517 8.13 6.46c1.88 5.309 1.78 9.791 1.78 9.791l14.59-8.322z" fill="url(#paint16_linear)"/><path d="M1168.82 175.114c.22 1.302.25 3.364.25 4.558.15-.025.3-.067.45-.126l4.41-2.637a52.061 52.061 0 0 0-5.11-1.795z" fill="url(#paint17_linear)"/><path d="M1164.53 177.26c.41.743 3.47 2.387 3.47 2.387s.48.125 1.07.025c0-1.202-.03-3.255-.25-4.557-1.19-.351-2.4-.66-3.63-.902-.42 1.085-.91 2.588-.66 3.047z" fill="#D4CDBF"/><path opacity=".45" d="M1184.72 182.251c.89.493 1.67.935 2.33 1.277-2.47 6.694-4.83 19.198-5.66 23.839-8.2-4.558-19.68-10.951-29.38-16.368l5.4-17.412c10.67-.584 21.48 5.425 27.31 8.664zM1250.73 182.509c8.55-5.976 17.89-13.764 20.28-15.775 3.15 2.103 17.2 11.535 22.1 15.458 8.34 6.661 15.34 11.31 15.41 11.352l.09.058.1.042.32.134c.86 1.652 1.49 3.831.71 6.009-1.6 4.449-9.74 12.821-17.65 18.046-7.65 5.042-22.22 16.711-41.51 20.3-3.13-.877-4.67-2.496-4.96-2.822-6.78-11.86-20.66-30.657-23.89-34.998 4.17-2.404 20.42-11.794 29-17.804zM1223.26 225.395c-1.36-1.201-3.38-.242-6.59.635-9.01-4.616-18.95-9.766-26.13-13.631.12-9.039.85-21.626 1.14-26.476 10.78 5.801 19.07 11.911 24.13 17.812 6.3 7.354 7.44 9.432 11.69 17.178.02.025.03.05.04.075l-.32 8.005-3.96-3.598z" fill="#94DAEE"/><path d="M1420.28 120.415h-5.57v109.399h5.57V120.415zM1541.76 124.533h-5.57v109.399h5.57V124.533z" fill="#5F6464"/><path d="M1555.78 71h-156.55c-5.09 0-9.23 4.101-9.23 9.141v88.783c0 5.04 4.14 9.141 9.23 9.141h156.55c5.09 0 9.23-4.101 9.23-9.141V80.141c0-5.04-4.14-9.141-9.23-9.141z" fill="#004EBB"/><path d="M1555.78 73.755c3.55 0 6.45 2.874 6.45 6.39v88.782c0 3.512-2.9 6.389-6.45 6.389h-156.55c-3.55 0-6.45-2.874-6.45-6.389V80.141c0-3.512 2.9-6.389 6.45-6.389h156.55v.004zm0-2.755h-156.55c-5.09 0-9.23 4.101-9.23 9.141v88.783c0 5.04 4.14 9.141 9.23 9.141h156.55c5.09 0 9.23-4.101 9.23-9.141V80.141c0-5.04-4.14-9.141-9.23-9.141z" fill="#fff"/><g clip-path="url(#clip0)"><path d="M1419.05 95.37l-3.35-14.14h3.42l1.07 5.83c.31 1.68.61 3.5.84 4.93h.04c.23-1.53.57-3.23.92-4.97l1.2-5.79h3.4l1.13 5.96c.31 1.66.55 3.17.76 4.74h.04c.21-1.57.53-3.23.82-4.91l1.15-5.79h3.25l-3.65 14.14h-3.46l-1.2-6.08c-.27-1.43-.5-2.75-.67-4.36h-.04c-.25 1.59-.48 2.94-.82 4.36l-1.34 6.08h-3.51zM1443.81 89.39h-5.2v3.36h5.81v2.62h-9.02V81.23h8.73v2.62h-5.52v2.94h5.2v2.6zM1446.6 81.23h3.21v11.46h5.62v2.69h-8.83V81.23zM1466.91 94.97c-.59.29-1.91.61-3.63.61-4.89 0-7.41-3.04-7.41-7.07 0-4.83 3.44-7.51 7.72-7.51 1.66 0 2.92.34 3.48.63l-.65 2.54a6.96 6.96 0 0 0-2.69-.52c-2.54 0-4.51 1.53-4.51 4.68 0 2.83 1.68 4.62 4.53 4.62.96 0 2.04-.21 2.66-.46l.5 2.48zM1481.32 88.15c0 4.64-2.81 7.45-6.95 7.45-4.2 0-6.65-3.17-6.65-7.2 0-4.24 2.71-7.41 6.88-7.41 4.35.01 6.72 3.26 6.72 7.16zm-10.22.19c0 2.77 1.3 4.72 3.44 4.72 2.16 0 3.4-2.06 3.4-4.8 0-2.54-1.22-4.72-3.42-4.72-2.16 0-3.42 2.06-3.42 4.8zM1495.38 89.96c-.06-1.7-.13-3.76-.13-5.81h-.06c-.44 1.8-1.03 3.82-1.57 5.48l-1.72 5.52h-2.5l-1.51-5.48a66.97 66.97 0 0 1-1.28-5.52h-.04c-.09 1.91-.15 4.09-.26 5.85l-.25 5.37h-2.96l.9-14.14h4.26l1.38 4.72c.44 1.64.88 3.4 1.2 5.06h.06c.4-1.64.88-3.5 1.34-5.08l1.51-4.7h4.17l.78 14.14h-3.13l-.19-5.41zM1509.58 89.39h-5.2v3.36h5.81v2.62h-9.02V81.23h8.73v2.62h-5.52v2.94h5.2v2.6zM1518.52 83.92h-3.8v-2.69h10.87v2.69h-3.86v11.46h-3.21V83.92zM1539.62 88.15c0 4.64-2.81 7.45-6.95 7.45-4.2 0-6.65-3.17-6.65-7.2 0-4.24 2.71-7.41 6.88-7.41 4.35.01 6.72 3.26 6.72 7.16zm-10.21.19c0 2.77 1.3 4.72 3.44 4.72 2.16 0 3.4-2.06 3.4-4.8 0-2.54-1.22-4.72-3.42-4.72-2.16 0-3.42 2.06-3.42 4.8z" fill="#fff"/><path fill-rule="evenodd" clip-rule="evenodd" d="M1427.96 164l-5.05 1.71c-.06.02-.13.04-.2.04a.693.693 0 0 1-.74-.64v-.04c.05-.01.09-.02.14-.04l5.05-1.71c.27-.09.45-.33.47-.6l2.71-34.5v-.07h.16c.38.03.66.36.63.74l-2.71 34.5c-.02.28-.19.52-.46.61zm-7.03-2.95l-.35 5.04a.72.72 0 0 1-.44.63l-5.24 2c-.06.02-.13.04-.2.04a.678.678 0 0 1-.73-.64v-.04c.05-.01.09-.02.14-.04l5.24-2c.27-.1.44-.35.44-.63l.71-10.33.43 5.97zm-5.39-32.82h.06c.38-.03.71.26.73.64l.88 12.85-.36 5.81-1.31-19.3zm7.57-.04h.06c.38-.03.71.26.73.64l.82 12.05-.38 5.43-1.23-18.12zm15.32 32.64c-1.06.31-2.1.61-3.53 1.03-.08.03-.16.04-.24.04-.38 0-.69-.3-.69-.68.05-.01.09-.02.13-.04 1.42-.42 2.47-.73 3.53-1.03l.24-.07c.3-.09.5-.36.5-.66v-31.28h.11c.38 0 .69.31.69.69v31.27c0 .3-.2.57-.5.66l-.24.07zm13.84-32.06c.43.29.81.65 1.14 1.06 1.06 1.32 1.6 3.23 1.6 5.64v.88c0 .37-.29.67-.66.69-.59.03-1.27.07-1.96.1-.54.03-1.07.06-1.61.08-.03 0-.06.01-.09.01-.38 0-.69-.3-.69-.68.53-.03 1.06-.06 1.59-.08.68-.04 1.37-.07 1.96-.1.37-.02.66-.32.66-.69v-.88c0-2.41-.54-4.32-1.6-5.64-.11-.13-.22-.26-.34-.39zm-3.23 4.52c-.07-.01-.14-.01-.22-.01-.28.01-.5.07-.67.2-.17.13-.31.36-.41.68-.12.41-.17.9-.16 1.41.01.56.09 1.11.22 1.57.52 1.79 1.77 3.01 3.06 4.26 2.05 1.99 4.19 4.06 4.19 8.56 0 2.39-.54 4.36-1.58 5.85-1.06 1.5-2.62 2.5-4.66 2.91-.54.11-1.04.16-1.5.16-1.29 0-2.34-.4-3.16-1.17-.07-.06-.13-.13-.2-.2.71.46 1.57.7 2.55.7.46 0 .96-.05 1.5-.16 2.04-.42 3.6-1.41 4.66-2.91 1.05-1.49 1.58-3.46 1.58-5.85 0-4.5-2.13-6.57-4.19-8.56-1.29-1.25-2.54-2.46-3.06-4.26-.13-.46-.21-1.01-.22-1.57-.01-.5.04-1 .16-1.41.1-.33.24-.55.41-.68.17-.13.4-.19.67-.2.38-.01.66.09.83.33.08.09.15.21.2.35zm-2.58 15.31c.04-.01.07-.01.11-.01.38 0 .69.31.69.69v2.1c0 .5.04.89.13 1.19-.25.01-.44-.05-.56-.2-.23-.27-.36-.8-.36-1.66v-2.11h-.01zm23.36-4.06h.02c.03 0 .06-.01.08-.01.38 0 .69.31.69.69v3.48c0 2.27-.54 4.09-1.61 5.4-1.07 1.32-2.65 2.11-4.71 2.29-.3.03-.56.04-.8.04-1.67 0-2.98-.51-3.94-1.5l-.02-.02c.85.57 1.91.86 3.16.86.24 0 .51-.01.8-.04 2.06-.19 3.64-.97 4.71-2.29 1.07-1.31 1.61-3.13 1.61-5.4v-3.48c.01-.01.01-.01.01-.02zm-1.85-15.73c.38.26.71.56 1.01.91 1.08 1.26 1.64 3.07 1.64 5.36v2.55c0 .37-.3.68-.67.69-.6.02-1.2.03-1.8.05-.58.01-1.16.03-1.74.04h-.08a.69.69 0 0 1-.69-.68c.57-.01 1.14-.03 1.71-.04.6-.01 1.2-.03 1.8-.05.37-.01.67-.32.67-.69v-2.55c0-2.29-.55-4.1-1.64-5.36-.07-.08-.14-.16-.21-.23zm-3.31 4.18c-.1-.02-.2-.02-.31-.02-.4 0-.71.11-.91.36-.24.3-.38.82-.38 1.61v14.47c0 .47.05.83.13 1.1-.25-.02-.44-.1-.57-.25-.23-.26-.36-.74-.36-1.52v-14.47c0-.79.14-1.31.38-1.61.2-.25.52-.36.91-.36.4 0 .71.1.91.33.07.09.14.21.2.36zm14.46.25c-.24.28-.37.78-.37 1.54v14.1c0 .54.07.95.19 1.25-.26-.06-.46-.17-.61-.35-.24-.3-.38-.81-.38-1.57V134.1c0-.76.13-1.26.37-1.54.2-.24.51-.34.92-.33.4 0 .72.11.92.35.08.09.14.21.2.35-.1-.02-.2-.03-.32-.03-.4 0-.72.1-.92.34zm4.73-4.4c.37.26.71.56 1.01.9 1.1 1.26 1.68 3.09 1.68 5.39v13.76c0 .09 0 .23-.01.42-.07 2.11-.64 3.75-1.69 4.89-1.07 1.16-2.58 1.76-4.51 1.76-.05 0-.15 0-.3-.01-1.95-.06-3.5-.67-4.6-1.8 1.01.7 2.28 1.08 3.8 1.13.15 0 .25.01.3.01 1.93 0 3.45-.6 4.51-1.76 1.04-1.13 1.62-2.78 1.69-4.89.01-.19.01-.33.01-.42v-13.77c0-2.3-.57-4.12-1.68-5.39-.07-.07-.14-.15-.21-.22zm16.77 28.99c-.63-.11-1.28-.21-1.95-.31a.68.68 0 0 1-.57-.53l-.02-.11a81.728 81.728 0 0 1 3.69.64c.37.07.74-.17.81-.55.01-.04.01-.09.01-.13V128.12h.11c.38 0 .69.31.69.69v28.71c0 .04 0 .09-.01.13a.7.7 0 0 1-.81.55c-.66-.14-1.31-.26-1.95-.37zm-5.91-12.81v11.08c0 .03 0 .06-.01.09-.05.38-.4.64-.77.59-.96-.13-1.93-.23-2.9-.33-.16-.02-.32-.03-.48-.05a.696.696 0 0 1-.67-.66c.12.01.23.02.35.04.97.1 1.94.2 2.9.33.38.05.72-.21.77-.59 0-.03.01-.06.01-.09v-13.84c.27 1.15.54 2.3.8 3.43zm.56-16.93h.09c.31 0 .6.21.67.53.59 2.51 1.18 5.02 1.76 7.53v2.76c-.2-.87-.4-1.72-.59-2.55-.64-2.75-1.28-5.51-1.93-8.27zm20.94.63c.55.37 1.02.85 1.42 1.44 1.04 1.5 1.57 3.68 1.57 6.43v1.06c-.03.38-.36.66-.74.63-1.24-.1-2.4-.18-3.56-.26-.37 0-.67-.3-.68-.67 1.12.08 2.24.15 3.44.25.38.03.71-.25.74-.63v-1.06c0-2.75-.53-4.93-1.57-6.43-.19-.27-.4-.53-.62-.76zm-3.06 4.87c-.06-.01-.12-.02-.19-.02-.28-.01-.51.04-.67.17-.18.15-.32.41-.41.8-.1.41-.13.87-.12 1.34.01.51.08 1.02.18 1.48.51 2.14 1.75 3.69 3.05 5.32 2.06 2.58 4.24 5.31 4.24 10.7 0 1.31-.12 2.46-.36 3.44-.32 1.3-.86 2.32-1.61 3.01-.78.73-1.76 1.1-2.95 1.1-.5 0-1.05-.07-1.63-.21-1.45-.36-2.66-1.02-3.62-1.95.8.58 1.74 1.01 2.82 1.28.58.14 1.13.21 1.63.21 1.18 0 2.16-.37 2.95-1.1.75-.7 1.29-1.71 1.61-3.01.24-.98.36-2.13.36-3.44 0-5.39-2.18-8.12-4.24-10.7-1.3-1.62-2.54-3.18-3.05-5.32-.11-.45-.17-.97-.18-1.48-.01-.47.03-.93.12-1.34.09-.4.23-.66.41-.8.16-.13.39-.18.67-.17.38.01.67.15.86.44.05.08.09.16.13.25zm-2.49 15.74l.19.03c.34.04.61.33.61.69v2.17c0 .89.13 1.52.37 1.95-.31-.11-.57-.3-.75-.59-.27-.43-.42-1.08-.42-2.03v-2.17-.05zm12.25 13.93c-.29-.06-.53-.47-.56-.78.45.13.96.27 1.6.45.71.2 1.36.39 1.9.56.44.13.89-.2.89-.66v-34.65h.11c.38 0 .69.31.69.69v34.45c0 .69-.32 1.18-1.13.95l-3.5-1.01zm16.5 4.61v-.01c1.2.41 2.4.81 3.6 1.21.66.22.91-.35.91-.88V128.24h.11c.38 0 .69.31.69.69v39.91c0 .72-.29 1.35-1.08 1.08l-3.38-1.14c-.3-.1-.8-.61-.85-.91zm-3.38-16.44v14.5c0 .67-.29 1.32-1.12 1.05l-3.17-1c-.27-.07-.49-.53-.52-.81 1.1.35 2.19.69 3.11.99.67.21.9-.36.9-.89v-18.6c.27 1.59.53 3.18.8 4.76zm.56-23.22h.06c.35-.02.67.22.73.57.58 3.37 1.16 6.82 1.75 10.34v4.1c-.19-1.15-.38-2.29-.57-3.43-.67-3.95-1.32-7.81-1.97-11.58zm-114.86 36.05l5.07-1.72 2.71-34.5-3.33.01-1.98 28.1-1.92-28.08-3.68.02-1.84 29.96-2.05-29.95-3.71.01 2.71 39.14 5.24-2 1.39-20.05 1.39 19.06zm11.99-3.86c1.27-.37 2.54-.74 3.82-1.12v-31.27c-1.28 0-2.55.01-3.82.01v32.38zm8.85-21.85c1.46 5.07 7.03 6.66 7.03 11.43 0 2.04-.77 2.9-1.98 3.1-1.22.2-1.98-.42-1.98-2.51v-2.1c-1.2.21-2.4.41-3.61.61v1.85c0 4.83 1.93 7.06 5.69 6.29 3.74-.76 5.69-3.62 5.69-8.08 0-7.14-5.82-7.83-7.22-12.63-.29-.99-.36-2.37-.06-3.36.28-.95.88-1.35 1.73-1.37 1.22-.03 1.9.73 1.9 2.76v1.18c1.2-.06 2.4-.13 3.62-.19v-.88c0-4.46-1.92-7.01-5.63-7.01-2.78 0-4.54 1.54-5.26 4.32-.5 1.99-.49 4.63.08 6.59zm22.81 6.03v3.78c0 1.89-.77 2.62-1.98 2.69-1.22.08-1.98-.55-1.98-2.46v-14.47c0-1.91.77-2.65 1.98-2.67 1.22-.01 1.98.7 1.98 2.59v2.84l3.61-.09v-2.55c0-4.2-1.94-6.6-5.69-6.6-3.75 0-5.69 2.5-5.69 6.86v14.19c0 4.37 1.93 6.54 5.69 6.2 3.75-.34 5.69-2.81 5.69-7.01v-3.48c-1.2.07-2.41.13-3.61.18zm11.74-10.62c0-1.86.77-2.57 1.98-2.56 1.22.01 1.98.73 1.98 2.6v14.2c0 1.88-.77 2.56-1.98 2.51-1.21-.05-1.98-.79-1.98-2.65v-14.1zm-3.81 13.88c0 4.19 2.05 6.49 5.8 6.61 3.75.12 5.8-2.14 5.8-6.38v-13.76c0-4.24-2.05-6.66-5.8-6.66s-5.8 2.39-5.8 6.58v13.61zm24.53 8.18c1.31.2 2.62.41 3.92.67v-28.71c-1.14 0-2.27-.01-3.41-.01v16.83c-1.3-5.62-2.61-11.23-3.92-16.84h-4.79v26.94c1.15.12 2.3.23 3.45.39V135.5c1.61 6.84 3.19 13.68 4.75 20.52zm8.91-17.61c1.46 5.29 7.05 8.38 7.05 13.74 0 2.23-.77 2.88-1.98 2.63-1.22-.26-1.98-1.2-1.98-3.37v-2.17c-1.22-.21-2.42-.39-3.62-.56v1.82c0 4.74 1.96 7.83 5.71 8.76 3.75.92 5.69-1.5 5.69-6.67 0-8.64-5.93-10.2-7.28-15.86-.23-.95-.28-2.18-.06-3.13.26-1.11.88-1.54 1.78-1.51 1.22.04 1.92.92 1.92 3.16v1.3c1.2.08 2.4.16 3.61.26v-1.01c0-5.17-1.9-8.13-5.63-8.13-2.51 0-4.19 1.24-5.03 3.5-.79 2.1-.78 5.05-.18 7.24zm15.35 23.18c1.27.35 2.54.71 3.82 1.1v-34.64c-1.28 0-2.55-.01-3.82-.01v33.55zm17.05 5.36c1.31.44 2.62.88 3.94 1.33v-40.16c-1.14 0-2.27-.01-3.41-.01v23.36c-1.29-7.8-2.59-15.59-3.92-23.37-1.6-.01-3.2-.01-4.79-.02v36.2c1.14.36 2.29.72 3.43 1.09v-26.99c1.64 9.5 3.22 19.03 4.75 28.57z" fill="#000B9E"/><path fill-rule="evenodd" clip-rule="evenodd" d="M1421.73 164.26l5.07-1.72 2.71-34.5-3.33.01-1.98 28.1-1.92-28.08-3.68.02-1.84 29.96-2.05-29.95-3.71.01 2.71 39.14 5.24-2 1.39-20.05 1.39 19.06zm11.99-3.86c1.27-.37 2.54-.74 3.82-1.12v-31.27c-1.28 0-2.55.01-3.82.01v32.38zm8.85-21.85c1.46 5.07 7.03 6.66 7.03 11.43 0 2.04-.77 2.9-1.98 3.1-1.22.2-1.98-.42-1.98-2.51v-2.1c-1.2.21-2.4.41-3.61.61v1.85c0 4.83 1.93 7.06 5.69 6.29 3.74-.76 5.69-3.62 5.69-8.08 0-7.14-5.82-7.83-7.22-12.63-.29-.99-.36-2.37-.06-3.36.28-.95.88-1.35 1.73-1.37 1.22-.03 1.9.73 1.9 2.76v1.18c1.2-.06 2.4-.13 3.62-.19v-.88c0-4.46-1.92-7.01-5.63-7.01-2.78 0-4.54 1.54-5.26 4.32-.5 1.99-.49 4.63.08 6.59zm22.81 6.03v3.78c0 1.89-.77 2.62-1.98 2.69-1.22.08-1.98-.55-1.98-2.46v-14.47c0-1.91.77-2.65 1.98-2.67 1.22-.01 1.98.7 1.98 2.59v2.84l3.61-.09v-2.55c0-4.2-1.94-6.6-5.69-6.6-3.75 0-5.69 2.5-5.69 6.86v14.19c0 4.37 1.93 6.54 5.69 6.2 3.75-.34 5.69-2.81 5.69-7.01v-3.48c-1.2.07-2.41.13-3.61.18zm11.74-10.62c0-1.86.77-2.57 1.98-2.56 1.22.01 1.98.73 1.98 2.6v14.2c0 1.88-.77 2.56-1.98 2.51-1.21-.05-1.98-.79-1.98-2.65v-14.1zm-3.81 13.88c0 4.19 2.05 6.49 5.8 6.61 3.75.12 5.8-2.14 5.8-6.38v-13.76c0-4.24-2.05-6.66-5.8-6.66s-5.8 2.39-5.8 6.58v13.61zm24.53 8.18c1.31.2 2.62.41 3.92.67v-28.71c-1.14 0-2.27-.01-3.41-.01v16.83c-1.3-5.62-2.61-11.23-3.92-16.84h-4.79v26.94c1.15.12 2.3.23 3.45.39V135.5c1.61 6.84 3.19 13.68 4.75 20.52zm8.91-17.61c1.46 5.29 7.05 8.38 7.05 13.74 0 2.23-.77 2.88-1.98 2.63-1.22-.26-1.98-1.2-1.98-3.37v-2.17c-1.22-.21-2.42-.39-3.62-.56v1.82c0 4.74 1.96 7.83 5.71 8.76 3.75.92 5.69-1.5 5.69-6.67 0-8.64-5.93-10.2-7.28-15.86-.23-.95-.28-2.18-.06-3.13.26-1.11.88-1.54 1.78-1.51 1.22.04 1.92.92 1.92 3.16v1.3c1.2.08 2.4.16 3.61.26v-1.01c0-5.17-1.9-8.13-5.63-8.13-2.51 0-4.19 1.24-5.03 3.5-.79 2.1-.78 5.05-.18 7.24zm15.35 23.18c1.27.35 2.54.71 3.82 1.1v-34.64c-1.28 0-2.55-.01-3.82-.01v33.55zm17.05 5.36c1.31.44 2.62.88 3.94 1.33v-40.16c-1.14 0-2.27-.01-3.41-.01v23.36c-1.29-7.8-2.59-15.59-3.92-23.37-1.6-.01-3.2-.01-4.79-.02v36.2c1.14.36 2.29.72 3.43 1.09v-26.99c1.64 9.5 3.22 19.03 4.75 28.57z" fill="#fff"/><path fill-rule="evenodd" clip-rule="evenodd" d="M1468.76 103.17H1448.82l2.36 3.47h16.15v1.68h-13.31l2.36 3.47h10.95v1.68h-8.11l2.36 3.47h6.27c1.38 4.21 5.35 7.28 10.01 7.28s8.63-3.07 10.01-7.28h6.27l2.36-3.47h-8.11v-1.68h10.95l2.36-3.47h-13.32v-1.68h16.15l2.36-3.47h-21.35v10.52c0 4.22-3.45 7.68-7.68 7.68-4.22 0-7.68-3.45-7.68-7.68v-10.52h-1.42zm9.1 21.05v-2.85 2.85z" fill="#F9B233"/><path d="M1476.1 99.11c.14.17.23.41.19.93.02.03.03.07.04.11.05.02.1.05.16.07l.06.03c1.17.54 1.58.96 1.71 1.31.16.05.36.1.56.15.19.05.38.09.47.12l.4.11c.43.12.62.17.81.25.16.06.24.1.38.18.1.05.24.13.56.29.31.15.63.18.91.21.79.08 1.4.15 1.82 1.06.17.05.36.14.58.35.43.42.49.99.46 1.51.1.08.18.18.24.3.24-.26.53-.25 1.31-.07.45.08.79.47.79.94 0 .81-.42 1.65-.84 2.51-.32.64-.65 1.3-.7 1.79-.01.07-.01.16-.01.24 0 .28 0 .53-.16.89-.08.19-.2.34-.31.49-.04.05-.07.08-.07.09-.03.06-.02.3-.02.54.01.39.01.78-.12 1.15-.19.51-.32.93-.36 1.32-.04.36.01.74.17 1.21.18.51.15.9.11 1.38-.01.16-.03.34-.03.55 0 .53-.43.95-.95.95h-8.66c-.44 0-.82-.3-.92-.73-1.04-.25-1.16-.79-1.3-1.4-.01-.06-.03-.11-.03-.13-.16-.51-.26-.83-.26-1.22 0-.23.03-.44.1-.66-.06-.13-.11-.32-.17-.59-.14-.65-.15-1.1-.16-1.44 0-.11.09-.11.04-.14-.16-.1-.22-.14-.28-.18-.33-.2-.72-.45-.95-.67-.31-.31-.41-.55-.51-.79a.308.308 0 0 0-.11-.15c-.02-.01-.11-.06-.2-.1-.17-.08-.33-.17-.5-.31-.14-.11-.22-.21-.28-.29-.73-.35-1.17-.58-1.49-1.18-.27-.53-.29-1.17-.14-2.27 0-.03.01-.14.02-.27.01-.16.02-.33.05-.51v-.03c.02-.11.04-.2.08-.29a.945.945 0 0 1-.44-.8c0-1 .05-1.08.38-1.58.05-.07.1-.15.15-.24.51-.86.98-1.04 1.34-1.18.08-.03-.13.05-.13-.39V100.94a.95.95 0 0 1 .7-.99c.03-.01.08-.05.14-.09.07-.06.14-.12.23-.18a.94.94 0 0 1 1.02-.08c.02.01.09.05.16.09.03.02.04.02.1 0 .58-.2.78-.31.94-.39.15-.08.28-.14.45-.21l.34-.12c.18-.24.32-.43.95-.58.06-.02.12-.03.18-.03.47-.02.89.3 1 .75zm-1.84 1.79c-.11.04-.16.07-.23.1-.21.11-.48.25-1.19.49-.51.18-.8.2-1.07.13v.91c.01 1.75-.4 1.91-1.1 2.17-.09.03-.21.08-.37.36-.08.13-.13.22-.18.29.57.4.58.97.43 1.52-.04.16-.11.3-.16.43 0 .01 0 0 0 0h-.01v.01c-.01.1-.02.25-.03.38-.01.13-.02.24-.04.38-.09.69-.11 1.03-.05 1.16.03.05.25.16.64.34.46.22.59.37.69.56.03.01.07.03.11.05.11.05.22.11.37.21.54.36.67.67.81.99.03.06.05.13.1.18.08.08.37.26.61.41.17.11.33.2.34.21.77.51.78.9.8 1.67.01.25.01.59.12 1.09.06.06.13.14.2.23.23.31.24.71.06 1.02-.11.21-.16.32-.16.39 0 .11.07.32.18.66.04.12.06.21.08.29 0 0 0 .01.37.04s.68.28.81.6h6.98c.01-.15 0-.27-.03-.36-.26-.75-.32-1.38-.26-2.01.06-.6.23-1.15.46-1.79.02-.05.02-.26.01-.48-.01-.44-.01-.9.18-1.33.08-.19.2-.33.31-.48.04-.05.06-.06.07-.09.01-.01-.01-.06-.01-.14 0-.13 0-.26.02-.46.01-.12.03-.24.06-.36-.06.02-.13.04-.2.06a.943.943 0 0 1-1.16-.67.942.942 0 0 1 .08-.7c.03-.07.06-.16.09-.26.05-.15.1-.3.18-.49.14-.33.27-.53.4-.66a.913.913 0 0 1-.06-.61c.01-.05.02-.09.03-.13a.914.914 0 0 1-.31-.69v-.1c.01-.07.02-.2.04-.34.02-.18.15-.31.18-.4-.35-.07-.66-.22-.97-.95-.01-.03-.13.01-.32-.01-.44-.05-.94-.1-1.55-.39-.3-.14-.49-.25-.63-.32-.09-.05-.14-.07-.17-.08-.06-.02-.24-.07-.64-.19l-.41-.12c-.17-.05-.29-.08-.4-.11-.4-.1-.83-.2-1.17-.37-.9-.45-.85-.83-.79-1.29.02-.16-.05.36-.66.08l-.02-.01c-.03.01-.06.01-.09.02-.5.12-1-.18-1.13-.67-.05-.05-.09-.1-.13-.16a.581.581 0 0 1-.11-.21zm-3.86 6.4c0-.02 0-.07-.01-.02l.01.02z" fill="#fff"/><path fill-rule="evenodd" clip-rule="evenodd" d="M1475.17 100.63c.03-.4.14-.3.17-.62.05-.56-.12-.14-.17-.68-.72.17-.11.28-1.23.68-.38.14-.39.24-1.41.59-.53.18-.61.07-1.01-.15-.24.16-.37.35-.69.43v1.65c.01 1.9-.55.71-1.34 2.04-.35.59-.4.44-.4 1.34 1.01.27.4.94.36 1.22-.04.26-.05.61-.07.8-.24 1.8 0 1.95 1.12 2.48.43.2.18.18.46.41.15.12.4.21.61.35.54.36.36.65.77 1.05.22.21.81.55 1.09.73.61.41.21.75.52 2.17.13.59.11.25.36.59-.39.74-.33.94-.05 1.79.15.46.01.88 1.27.99.01.38.06.27.09.61h8.68c0-.69.14-1.13-.03-1.62-.42-1.22-.23-2.02.19-3.17.16-.44-.04-1.29.17-1.75.08-.17.31-.4.38-.57.12-.28.05-.51.09-.86.15-1.33 1.54-3.04 1.54-4.19-.68-.16-.53-.06-.87.43-.13.18-.16.18-.29.41-.11.19-.15.32-.26.52-.36.7-.5.33-.82.7-.29.33-.15.7-.64.83.12-.26.17-.53.3-.83.22-.52.3-.27.74-.48 0-.67.09-.66-.35-.96.11-.47.17-.41.17-1.04-.11-.05-.2-.01-.43 0 .03-.41.24-1.26-.08-1.57-.3-.29-.49.05-.74-.56-.36-.84-1.24-.36-2.33-.89-1.12-.54-.43-.32-2.01-.77-.43-.12-1.06-.24-1.41-.41-.77-.38.55-.29-1.47-1.22-.41-.19-.3-.15-.73-.05v-.61l-.25.19z" fill="#000B9E"/></g><defs><filter id="filter0_d" x="-4" y="-2" width="1608" height="408" filterUnits="userSpaceOnUse" color-interpolation-filters="sRGB"><feFlood flood-opacity="0" result="BackgroundImageFix"/><feColorMatrix in="SourceAlpha" values="0 0 0 0 0 0 0 0 0 0 0 0 0 0 0 0 0 0 127 0"/><feOffset dy="2"/><feGaussianBlur stdDeviation="2"/><feColorMatrix values="0 0 0 0 0 0 0 0 0 0 0 0 0 0 0 0 0 0 0.08 0"/><feBlend in2="BackgroundImageFix" result="effect1_dropShadow"/><feBlend in="SourceGraphic" in2="effect1_dropShadow" result="shape"/></filter><linearGradient id="paint0_linear" x1="1257.65" y1="202.46" x2="1257.65" y2="172.818" gradientUnits="userSpaceOnUse"><stop offset=".003" stop-color="#C2B69C"/><stop offset=".505" stop-color="#E3DFD7"/><stop offset=".797" stop-color="#E6E6E6"/></linearGradient><linearGradient id="paint1_linear" x1="1256.92" y1="199.021" x2="1267.66" y2="217.613" gradientUnits="userSpaceOnUse"><stop stop-color="#E3DFD7"/><stop offset=".997" stop-color="#C2B69C"/></linearGradient><linearGradient id="paint2_linear" x1="1254.16" y1="222.993" x2="1294.32" y2="222.993" gradientUnits="userSpaceOnUse"><stop offset=".005" stop-color="#CCC1AB"/><stop offset=".182" stop-color="#D0C6B4"/><stop offset=".488" stop-color="#D3CBBC"/><stop offset=".997" stop-color="#D4CDBF"/></linearGradient><linearGradient id="paint3_linear" x1="1221.73" y1="200.632" x2="1234.45" y2="200.632" gradientUnits="userSpaceOnUse"><stop stop-color="#E3DFD7"/><stop offset=".997" stop-color="#C2B69C"/></linearGradient><linearGradient id="paint4_linear" x1="1233.11" y1="222.827" x2="1233.11" y2="203.311" gradientUnits="userSpaceOnUse"><stop offset=".003" stop-color="#C2B69C"/><stop offset="1" stop-color="#E3DFD7"/></linearGradient><linearGradient id="paint5_linear" x1="1235.11" y1="225.962" x2="1260.59" y2="225.962" gradientUnits="userSpaceOnUse"><stop offset=".003" stop-color="#C2B69C"/><stop offset="1" stop-color="#E3DFD7"/></linearGradient><linearGradient id="paint6_linear" x1="1245.3" y1="215.981" x2="1310.09" y2="215.981" gradientUnits="userSpaceOnUse"><stop offset=".003" stop-color="#389CC7"/><stop offset="1" stop-color="#2E7EC9"/></linearGradient><linearGradient id="paint7_linear" x1="1274.32" y1="205.658" x2="1306.49" y2="205.658" gradientUnits="userSpaceOnUse"><stop offset=".003" stop-color="#389CC7"/><stop offset="1" stop-color="#2E7EC9"/></linearGradient><linearGradient id="paint8_linear" x1="1277.42" y1="212.706" x2="1262.93" y2="223.551" gradientUnits="userSpaceOnUse"><stop stop-color="#2E7EC9"/><stop offset=".997" stop-color="#389CC7"/></linearGradient><linearGradient id="paint9_linear" x1="1190.63" y1="197.176" x2="1202.66" y2="197.176" gradientUnits="userSpaceOnUse"><stop stop-color="#E3DFD7"/><stop offset=".997" stop-color="#C2B69C"/></linearGradient><linearGradient id="paint10_linear" x1="1190.54" y1="206.862" x2="1217.99" y2="206.862" gradientUnits="userSpaceOnUse"><stop stop-color="#E3DFD7"/><stop offset=".997" stop-color="#C2B69C"/></linearGradient><linearGradient id="paint11_linear" x1="1199.15" y1="207.919" x2="1221.93" y2="207.919" gradientUnits="userSpaceOnUse"><stop offset=".203" stop-color="#E6E6E6"/><stop offset=".495" stop-color="#E3DFD7"/><stop offset=".997" stop-color="#C2B69C"/></linearGradient><linearGradient id="paint12_linear" x1="1218.31" y1="228.998" x2="1218.31" y2="211.44" gradientUnits="userSpaceOnUse"><stop stop-color="#E3DFD7"/><stop offset=".997" stop-color="#C2B69C"/></linearGradient><linearGradient id="paint13_linear" x1="1203.49" y1="199.059" x2="1212.27" y2="199.059" gradientUnits="userSpaceOnUse"><stop offset=".203" stop-color="#E6E6E6"/><stop offset=".495" stop-color="#E3DFD7"/><stop offset=".997" stop-color="#D4CDBF"/></linearGradient><linearGradient id="paint14_linear" x1="1224.07" y1="226.57" x2="1227.42" y2="226.57" gradientUnits="userSpaceOnUse"><stop stop-color="#E3DFD7"/><stop offset=".997" stop-color="#C2B69C"/></linearGradient><linearGradient id="paint15_linear" x1="1171.35" y1="197.146" x2="1185.95" y2="197.146" gradientUnits="userSpaceOnUse"><stop stop-color="#E3DFD7"/><stop offset=".997" stop-color="#C2B69C"/></linearGradient><linearGradient id="paint16_linear" x1="1161.44" y1="185.133" x2="1187.05" y2="185.133" gradientUnits="userSpaceOnUse"><stop offset=".203" stop-color="#E6E6E6"/><stop offset=".495" stop-color="#E3DFD7"/><stop offset=".997" stop-color="#C2B69C"/></linearGradient><linearGradient id="paint17_linear" x1="1168.82" y1="177.39" x2="1173.93" y2="177.39" gradientUnits="userSpaceOnUse"><stop offset=".203" stop-color="#E6E6E6"/><stop offset=".495" stop-color="#E3DFD7"/><stop offset=".997" stop-color="#D4CDBF"/></linearGradient><clipPath id="clip0"><path fill="#fff" transform="translate(1411 81)" d="M0 0h133.72v88.98H0z"/></clipPath></defs></svg>