<svg width="1600" height="400" fill="none" xmlns="http://www.w3.org/2000/svg" viewBox="0 0 1600 400"><g filter="url(#filter0_d)"><path fill="#F5FCFF" d="M1600 0H0v400h1600z"/></g><mask id="a" maskUnits="userSpaceOnUse" x="623" y="0" width="977" height="400"><path transform="matrix(-1 0 0 1 1600 0)" fill="#F5FCFF" d="M0 0h977v400H0z"/></mask><g mask="url(#a)"><path d="M1811.84 8.01l-221.16 12.087-412.3 43.203-76.81 45.616 349.28 203.445 293.2 27.611 67.79-331.961z" fill="#00AD00"/><path d="M1721.26 4.697S967.115 28.777 916.425 112.28C853.991 215.137 1472.9 491 1472.9 491l522.48-123.8s-828.17-206.809-790.9-269.085c38.95-65.08 809.99-83 809.99-83L1721.26 4.696z" fill="#fff"/><path d="M1531.55 450.392S919.755 205.655 975.078 112.279C1024.87 28.243 1779.91 7.401 1779.91 7.401l168.74 3.197s-771.51 22.153-809.99 87.508c-41.13 69.872 790.89 300.67 790.89 300.67l-398 51.616z" fill="#004EBB"/></g><path d="M1088.02 206.807c-3.27 1.878-3.2 4.799.17 6.494l31.23 19.982 165.34 83.193c3.37 1.694 8.93 1.652 12.64.909 14.06-2.854 34.8-9.273 45.85-14.606 3.4-1.645 8.31-4.792 11.35-7.028 5.12-3.757 13.66-11.861 16.64-17.996 1.65-3.397 2.1-6.235-1.27-7.938l-203.17-102.24c-3.37-1.695-8.8-1.553-12.07.325l-66.71 38.905z" fill="#0032A5"/><path d="M1092.84 170.849c-1.02-5.868 3.09-10.083 3.09-10.083s2.32-6.802 8.44-14.248c6.12-7.437 29.06-20.633 35.57-23.346 6.51-2.713 13.76-3.046 17.32-2.554 3.58.493 20.25 5.751 20.25 5.751s20.2 1.611 36.97 8.28 34.94 16.694 48.41 23.864c7.84 4.173 22.22 15.099 32.86 23.479l1.25-.793s-1.04-4.899-.8-5.767c.23-.877 2.73-7.012 2.73-7.012s3.06 3.097 3.99 5.659c.94 2.563-.67 6.428-1.17 8.306-.29 1.068-.92 2.337-1.4 3.238-.01-.008-.03-.017-.04-.025 5.23 4.174 8.77 7.103 8.77 7.103 18.53 7.27 42.39 27.862 42.39 27.862 4.56.234 7.7 8.831 10.98 14.69 3.29 5.868 3.12 9.816 3.03 11.536-.1 1.719 2.18 26.334-17.79 40.165-19.98 13.822-43.82 16.91-54.44 16.192a53.15 53.15 0 0 1-12.08-2.245c-.41-1.995-.8-3.864-.88-5.167-.64-10.717-10.18-23.529-19.95-28.02-12.65-5.818-18.54.092-17.89 10.818.07 1.06.39 2.737.81 4.499l-96.33-48.512c-.42-2.287-.88-4.633-1.11-6.052-1.59-9.757-9.2-20.75-17.68-25.833-13.55-8.121-17.6-.409-16.15 10.225v.017c-4.81-4.374-12.79-11.694-16.87-15.834-6.09-6.169-5.62-15.016-6.07-18.155-.46-3.138 3.79-8.038 3.79-8.038z" fill="#14AFEB"/><path d="M1089.04 178.888c.46 3.138-.02 11.986 6.07 18.154 4.09 4.14 12.07 11.46 16.87 15.834v-.017c-1.46-10.634 2.6-18.354 16.15-10.225 8.48 5.084 16.1 16.076 17.68 25.834.24 1.419.7 3.764 1.11 6.051l96.33 48.512c-.42-1.761-.75-3.439-.81-4.499-.64-10.726 5.25-16.635 17.89-10.817 9.77 4.49 19.31 17.303 19.95 28.02.08 1.302.47 3.172.88 5.167 3.04.943 7.18 1.911 12.08 2.245 10.62.718 34.46-2.371 54.44-16.193 18.13-12.545 17.92-33.971 17.8-39.121-1.67 8.814-6.12 19.848-18.32 28.237-12.6 8.672-22.43 13.338-43.1 14.173-12.18.484-20.34-3.197-24.92-4.925l-.05-.91c4.57 1.728 12.63 3.74 24.81 3.256 20.68-.827 30.5-5.501 43.1-14.165 12.28-8.447 16.71-19.565 18.36-28.413.06.309.1.601.14.885.04-2.003-.22-5.634-3.05-10.709-.92-1.644-1.83-3.497-2.76-5.325-2.14 3.631-3.53 1.845-3.53 1.845-.11 3.956-1.74 9.49-2.75 11.343-1.01 1.853-4.16 8.355-12.97 14.64s-18.81 9.607-24.53 11.444c-5.72 1.836-11.16 1.619-11.16 1.619-6.71 3.372-13.56.467-13.56.467-1.6-3.13-8.41-6.894-13.51-9.44-2.78-1.385-7.67-4.248-12.1-7.061-3.72-2.362-5.91-3.932-5.91-3.932-11.12-7.136-15.46-12.954-15.46-12.954-8.46-14.749-24.45-35.499-24.45-35.499-11.65-14.381-33.6-24.222-48.31-31.451-10.5-5.158-26.26-4.549-39.49-5.025l-15.68-.818s-15.9-4.248-16.21-12.612c-2.94 4.733-4.14 8.247-4.14 8.247s-4.11 4.224-3.09 10.083c0 0 6.77 14.407 13.63 22.795 0 0-12.54-9.899-17.12-17.052-.27.818-.41 1.611-.31 2.312zm126.12 47.527c4.1-.935 6.54-2.404 8.1-1.019l4.57 4.157s2.39 2.329.7 3.431c-1.69 1.101-7.3 1.444-11.92 1.719-4.62.275-4.97-3.915-5.07-4.591-.1-.684-.48-2.763 3.62-3.697z" fill="#0082C8"/><path d="M1154.62 172.869a24.84 24.84 0 0 1 2.58-.283c12.99-.785 26.14 7.445 30.66 9.966 7.25 4.04 20.86 11.36 28.73 20.533 9.61 11.21 7.34 10.3 21.89 35.182 0 0-4.12-2.078-10.18-5.158.08-.042.16-.076.23-.126 1.69-1.101-.7-3.43-.7-3.43l-4.57-4.157c-1.56-1.377-3.99.084-8.07 1.01-10.63-5.459-22.36-11.552-29.26-15.366-14.94-8.272-53.25-29.673-53.25-29.673s8.13-6.252 21.94-8.498z" fill="#0082C8"/><path d="M1250.15 268.415l4.45-2.646c1.73.35 3.64.984 5.73 1.953 9.77 4.49 19.31 17.303 19.95 28.02.07 1.302.47 3.172.88 5.167h.02l-7.85 4.674c-2.69 1.619-6.47 1.552-10.75-.584-8.85-4.424-16.5-16.001-17.09-25.867-.33-5.367 1.5-9.123 4.66-10.717z" fill="#192D4B"/><path d="M1254.61 265.761l-4.46 2.646c-3.17 1.594-4.99 5.35-4.67 10.717.06 1.027.2 2.07.41 3.122l-2.64.784c-.42-1.761-.75-3.439-.81-4.499-.54-8.939 3.48-14.532 12.17-12.77z" fill="#004687"/><path d="M1245.48 279.124c.59 9.866 8.25 21.451 17.09 25.867 8.85 4.415 15.54 0 14.95-9.866-.6-9.866-8.25-21.452-17.1-25.867-8.84-4.416-15.53 0-14.94 9.866z" fill="#192D4B"/><path d="M1246.43 280.058c.55 9.098 7.6 19.782 15.75 23.855 8.17 4.074 14.34.009 13.79-9.098-.55-9.098-7.6-19.782-15.76-23.855s-14.33 0-13.78 9.098z" fill="#192D4B"/><path d="M1250.22 282.153c.41 6.778 5.66 14.724 11.73 17.762 6.07 3.03 10.66 0 10.26-6.769-.41-6.777-5.66-14.724-11.73-17.754-6.08-3.046-10.67-.008-10.26 6.761z" fill="#0082C8"/><path d="M1258.74 285.425c.11 1.979 1.65 4.291 3.42 5.184 1.77.885 3.11 0 2.99-1.978-.12-1.979-1.66-4.299-3.43-5.184-1.76-.885-3.1 0-2.98 1.978zM1117.86 201.782l3.6-2.145c1.9.492 4.12 1.46 6.67 2.996 8.48 5.083 16.1 16.076 17.68 25.834.24 1.419.7 3.764 1.11 6.051l.85.426-6.74 4.006c-2.69 1.62-6.47 1.553-10.75-.584-8.85-4.415-16.5-16.001-17.1-25.867-.31-5.367 1.52-9.115 4.68-10.717z" fill="#192D4B"/><path d="M1113.18 212.5c.6 9.866 8.25 21.451 17.1 25.866 8.85 4.416 15.54.009 14.95-9.865-.59-9.866-8.25-21.452-17.1-25.867-8.84-4.416-15.54 0-14.95 9.866z" fill="#192D4B"/><path d="M1114.13 213.434c.55 9.098 7.6 19.782 15.76 23.864 8.16 4.073 14.33 0 13.79-9.098-.56-9.098-7.61-19.782-15.77-23.856-8.16-4.081-14.32-.008-13.78 9.09z" fill="#192D4B"/><path d="M1117.93 215.53c.4 6.769 5.65 14.723 11.72 17.762 6.08 3.029 10.66 0 10.26-6.77-.41-6.777-5.66-14.723-11.73-17.762-6.07-3.038-10.66-.008-10.25 6.77z" fill="#0082C8"/><path d="M1126.38 218.768c.13 2.011 1.69 4.373 3.49 5.275 1.8.901 3.17 0 3.05-2.012-.13-2.011-1.68-4.374-3.49-5.275-1.81-.901-3.17 0-3.05 2.012z" fill="#192D4B"/><path d="M1121.46 199.645l-3.6 2.146c-3.16 1.594-4.99 5.35-4.68 10.709 0 .041.01.091.01.133l-1.21.242v-.017c-1.18-8.63 1.27-15.333 9.48-13.213z" fill="#004687"/><path d="M1250.16 181.692c9.92-6.945 20.79-16.218 20.79-16.218s17.19 11.444 22.8 15.926c8.4 6.711 15.33 11.301 15.33 11.301.93.368 1.88.768 2.83 1.194 8.1 6.135-5.27 18.956-15.59 26.743-10.31 7.78-27.21 16.777-37.25 18.655-1.03.192-2 .309-2.92.368-7.96.475-11.34-3.773-11.34-3.773-7.71-13.505-24.56-35.891-24.56-35.891s19.98-11.36 29.91-18.305zM1119.07 158.688c3.38-5.117 16.66-14.69 23.6-19.123 4.97-3.171 13.01-8.497 22.65-11.318 3.21-.943 6.6-1.602 10.12-1.811a33.55 33.55 0 0 1 2.07-.067s9.94.793 21.65 3.564c0 0-16.12 8.848-23.36 13.956-7.23 5.1-21.2 16.276-22.78 17.837 0 0-2.52 3.105-5.13 3.256-2.61.158-28.92-1.211-28.92-1.211s-3.28.034.1-5.083z" fill="#0082C8"/><path d="M1250.73 182.509c8.55-5.976 17.89-13.764 20.28-15.775 3.15 2.103 17.2 11.535 22.1 15.458 8.34 6.661 15.34 11.31 15.41 11.352l.09.058.1.042.32.134c.86 1.652 1.49 3.831.71 6.009-1.6 4.449-9.74 12.821-17.65 18.046-7.65 5.042-22.22 16.711-41.51 20.3-3.13-.877-4.67-2.496-4.96-2.822-6.78-11.86-20.66-30.657-23.89-34.998 4.17-2.404 20.42-11.794 29-17.804zM1184.72 182.251c.89.493 1.67.935 2.33 1.277-2.47 6.694-4.83 19.198-5.66 23.839-8.2-4.558-19.68-10.951-29.38-16.368l5.4-17.412c10.67-.584 21.48 5.425 27.31 8.664zM1154.79 173.862c.21-.033.43-.058.65-.091l-5.36 16.151c-7.04-3.923-12.89-7.195-15.48-8.639 2.78-1.778 9.91-5.751 20.19-7.421zM1147.82 163.98c1.77-.109 3.79-2.12 4.41-2.888l.03-.042.05-.033c1.67-1.661 15.42-13.238 22.9-17.954 14.69-9.265 19.17-11.118 23.11-13.322-10.41-2.404-19.24-3.238-20.62-3.355-2.42.334-5.55 1.018-9.66 1.92-10.03 2.47-18.56 8.096-24.05 11.61l-.78.501c-7.81 4.983-20.19 14.114-23.31 18.822-1.69 2.562-1.32 3.33-1.32 3.355.08.142.36.167.36.167H1119.01c9.09.484 26.79 1.344 28.81 1.219z" fill="#94DAEE"/><path d="M1359.42 253.174s-3.28-13.714-3.51-15.208c-.23-1.494 2.24-10.367-4.19-17.378 4.14.492 7.11 7.871 10.12 13.538.21 4.232.31 13.706-2.42 19.048zM1319.85 280.318s-3.8-3.681-7.14-6.21c-3.33-2.529-5.5-3.305-9.8-3.355-4.29-.042-10.95.15-14.22-.51-3.28-.659-5.93-1.16-8.02-1.435-2.08-.284-3.8-.326-2.4 2.011s3.14 7.32 8.27 8.748c5.13 1.427 7.9 1.627 14.32 1.677 6.42.059 18.99-.926 18.99-.926z" fill="#E1E8EC"/><path d="M1330.12 278.707c.89-.05 1.78-.267 2.66-.635l.72-.3c4.01-1.695 9-3.806 13.45-7.562 3.82-3.222 6.36-5.718 7.76-7.638 1.23-1.694 1.74-3.48 1.54-5.467-.19-1.87-.81-7.587-1.17-10.834-1.48 2.287-4.12 6.152-6.97 9.365-2.41 2.721-7.49 7.671-14.49 10.308-.48.184-.96.376-1.45.576-.47.192-.95.384-1.43.56-5.65 2.145-11.21 3.781-13.94 4.532l9.27 6.177c-.01.008 1.65 1.06 4.05.918zM1299.45 296.569c2.8-.343 10.02-1.035 13.47-1.645.57-.1 1.13-.292 1.35 1.286.22 1.577-1.97 1.903-1.97 1.903-3.03.451-5.86.809-7.69.901 0 0-5.47.393-5.98.418-.63.025-1.1-.334-1.1-.334-.26-1.002.17-2.312 1.92-2.529zM1330.64 290.993l.7 1.711s.66.96 2.61-.008c1.94-.968 9.93-5.267 14.56-8.723 3.43-2.562 6.55-5.951 7.13-6.685.59-.735 1.13-2.605 1.16-3.281.02-.676.41-1.978-1.09-.233-1.5 1.744-6.86 6.301-10.44 8.68-3.58 2.379-12.56 6.895-14.08 7.479.01.008-.84.334-.55 1.06z" fill="#006399"/><path d="M1095.68 161.05s-.98 2.229.99 4.483c1.96 2.253 6.32 6.126 6.32 6.126s1.1.434-.91 2.888c-2.02 2.454-2.28 2.471-2.28 2.471s-.3.35-.78.375c-.37.025-.83-.142-1.35-.793-1.2-1.502-3.65-3.822-4.83-5.759-.87-4.966 1.96-8.756 2.84-9.791z" fill="#0082C8"/><path d="M1223.26 225.395c-1.36-1.201-3.38-.242-6.59.635-9.01-4.616-18.95-9.766-26.13-13.631.12-9.039.85-21.626 1.14-26.476 10.78 5.801 19.07 11.911 24.13 17.812 6.3 7.354 7.44 9.432 11.69 17.178.02.025.03.05.04.075l-.32 8.005-3.96-3.598z" fill="#94DAEE"/><path d="M1244.09 221.332l9.98 4.265c.37-2.446 1.35-6.018.24-12.437-1.09-6.31-4.28-10.7-4.28-10.7s.13-5.217-2.08-11.411a11.113 11.113 0 0 0-3.09-4.632c-1.75 1.118-3.59 2.27-5.45 3.414l4.68 31.501z" fill="#D4CDBF"/><path d="M1270.38 190.857s.56-4.824-1.64-11.009c-1.26-3.514-3.38-5.709-5.15-7.028-3.78 3.013-8.43 6.594-12.85 9.699-1.7 1.193-3.71 2.521-5.87 3.898 1.23 1.093 2.36 2.579 3.1 4.632 2.2 6.194 2.08 11.41 2.08 11.41l20.33-11.602z" fill="url(#paint0_linear)"/><path d="M1254.31 213.168c-1.09-6.31-4.28-10.7-4.28-10.7l20.34-11.602s2.58 3.923 4.31 9.432c1.1 3.505 1.52 9.949 1.15 12.386l-21.76 12.921c.37-2.445 1.36-6.026.24-12.437z" fill="url(#paint1_linear)"/><path d="M1294.33 216.274c-4.72-1.92-10.79-3.84-13.07-4.299-4.02-.81-5.45.676-5.45.676l-21.65 12.846c.45 2.337 5.05 5.968 9.71 8.747 12.72-5.033 22.45-12.612 28.22-16.418.75-.484 1.49-1.01 2.24-1.552z" fill="url(#paint2_linear)"/><path d="M1227.02 207.518l7.38-4.207s.47-4.14-1.41-9.449c-.02-.041-.04-.075-.05-.116-4.99 2.971-9.34 5.475-11.21 6.56.96 1.294 2.89 3.898 5.29 7.212z" fill="url(#paint3_linear)"/><path d="M1234.4 203.311l-7.38 4.207c3.11 4.307 7.03 9.824 10.72 15.308l1.34-.793c.31-2.095-.04-7.621-.99-10.626-1.48-4.724-3.69-8.096-3.69-8.096z" fill="url(#paint4_linear)"/><path d="M1245.37 234.862c7.03-4.257 15-9.374 15.21-10.375.36-1.712-14.54-6.478-18.37-7.212-3.83-.726-5.2.609-5.2.609l-1.9 1.069c3.77 5.475 7.54 11.201 10.26 15.909z" fill="url(#paint5_linear)"/><path d="M1271.45 200.991s5.77 1.519 9.38 4.432c3.61 2.913 8.39 8.497 8.39 8.497l-3.48 5.434s-12.17-5.96-15.53-7.763c-3.35-1.803-6.25-7.32-6.25-7.32l7.49-3.28z" fill="#014B89"/><path d="M1267.35 202.727s1.9 3.205 1.76 4.157c-.14.951.62 2.771.62 2.771s5.84 4.449 7.47 6.744c1.63 2.304 3.2 5.885 2.75 5.918-.44.033-6.65 2.537-6.65 2.537s-5.46-5.801-8.69-7.42c-3.23-1.611-8.09-4.691-9.26-10.066l12-4.641z" fill="#1A64A3"/><path d="M1288.03 190.457s.04.009.09.009c.38.058 1.97.283 2.68.45.81.192 1.27-.058 2.3 1.127 1.03 1.194.98 1.995.94 2.796-.05.802-.32 1.995-.58 2.271-.26.275-.37.551-.74.484-.38-.067-.55-.259-.52-.234.02.025-.5-.008-.47-.551.03-.534.33-1.703.33-1.703l-.3-.959s-.75-.51-.96-.443c-.22.067-2.29.167-2.29.167s-2.9.209-3.99-.075c-1.1-.284-10.47-2.629-11.34-3.205-.85-.584-4.12-4.775-5.49-6.143-1.37-1.369-1.86-5.96-2.65-6.202-.79-.234-2.61-.117-2.61-.117l-1.37-2.771s3.84-3.856 6.27-1.886c2.42 1.961 3.23 3.138 3.63 3.664.41.526 4.5 7.854 5.64 8.689 1.14.834 8.56 4.09 9.73 4.073.84 0 1.7.559 1.7.559z" fill="#F2A983"/><path d="M1267.1 181.985s3.99 4.75 5.2 5.543c1.2.793 2.79-1.052 2.49 0-.3 1.051.07 2.111.49 2.337.42.225 9.3 2.454 9.91 2.637.61.184 2.89-1.377 4.05-.676.69.418 1.01 1.236.87 1.953-.67.05-1.59.092-1.59.092s-2.9.209-3.99-.075c-1.1-.284-10.47-2.629-11.34-3.205-.86-.584-4.12-4.774-5.49-6.143-.4-.401-.73-1.077-1.01-1.837l.41-.626z" fill="#D88F69"/><path d="M1263.72 172.913s2.45-.977 4.26.601c1.8 1.585 5.21 6.627 5.21 6.627s-3.5 5.442-6.15 6.152c-2.65.709-3.32-13.38-3.32-13.38z" fill="#F6C100"/><path d="M1265.46 179.623c.46-.96 3.04-.801 3.73 1.169.41 1.193.91 2.278 1.24 2.946-1.08 1.185-2.3 2.27-3.39 2.562-1.11.293-1.98-1.969-2.63-4.707.49-.927.9-1.678 1.05-1.97z" fill="#DDA800"/><path d="M1258.11 181.626c3.69.676 6.22.501 6.74-1.51.51-2.012-1.68-6.235-1.68-6.235l-.66-.209a305.062 305.062 0 0 1-7.21 5.542c.36 1.06 1.16 2.112 2.81 2.412z" fill="#D88F69"/><path d="M1266.89 193.086c-.06-.759-.48-4.307-.48-4.307.68-.918 1.8-3.464 1.59-7.654-.21-4.19-2.88-7.887-2.88-7.887s-.98-.201-1.78-.226c-.29.226-.59.459-.88.693.02.025.03.05.06.075 1.17 1.327 1.94 4.975-.35 6.193-2.05 1.086-3.85-.133-4.96-1.252-.19-.192-.37-.367-.54-.542a209.421 209.421 0 0 1-5.94 4.324c-.9.634-1.88 1.302-2.94 1.994.35 4.316 4.72 11.636 5.61 13.105 1.04 1.703 2.44 11.101 2.44 11.101 1.39-1.177 6.84-1.953 11.35-3.322 4.53-1.369 4.94-4.482 4.94-4.482s-1.11-.601-1.79-1.277c-.68-.668-3.38-5.776-3.45-6.536z" fill="#F6C100"/><path d="M1263.69 175.984c1.53-.376 1.08-1.678 1.09-2.638.01-.492.07-1.051.14-1.602a416.539 416.539 0 0 1-5.22 4.123c1.43.342 2.96.376 3.99.117z" fill="#F2A983"/><path d="M1264.44 175.625c.62-.559.34-1.528.35-2.279.01-.492.07-1.051.14-1.602l-.09.075c.06.309.06.701-.38.743-.48.041-.19.884-.21 1.427 0 .292.06 1.01.19 1.636z" fill="#D88F69"/><path d="M1254.67 189.13c-.22 2.262-.07 3.464.94 5.358 1 1.895.86 3.706 2.61 4.716 1.74 1.01 3.28-.058 5.05 0 1.77.05 1.63-.025 1.43 1.169-.19 1.185-.09 1.903 1.39 1.477 1.49-.434 3.57-1.127 3.16-.142-.32.793-4.33 3.13-5.61 4.65-1.2.292-2.37.559-3.43.818-1.35-.234-3.03-.585-4.77-.969-.49-2.913-1.34-7.445-2.03-8.58-.95-1.569-5.49-8.264-5.25-12.395l4.9-.576c0-.017 1.83 2.212 1.61 4.474z" fill="#DDA800"/><path d="M1280.02 209.872c.94 0 2.07-.292 3.32-.902 4.33-2.111 8.52-7.278 9.35-11.543.59-3.03-.66-4.783-3-4.783-.94 0-2.07.292-3.32.902-4.32 2.111-8.51 7.278-9.35 11.543-.59 3.03.67 4.783 3 4.783zm-1.09-4.424c.7-3.547 4.35-8.038 7.99-9.816.94-.459 1.8-.693 2.48-.693.54 0 .92.142 1.15.426.36.434.45 1.294.25 2.346-.7 3.547-4.36 8.038-8 9.815-.93.46-1.79.702-2.48.702-.53 0-.92-.142-1.15-.426-.36-.442-.45-1.302-.24-2.354z" fill="#39464A"/><path d="M1309.74 199.789c.77-2.153.15-4.307-.68-5.951-6.2-.067-19.49 9.281-32.54 17.061-12.65 7.537-25.84 18.48-31.22 23.838.11.192.22.384.32.568.29.325 1.83 1.945 4.96 2.821 19.29-3.589 33.86-15.25 41.51-20.299 7.91-5.217 16.05-13.589 17.65-18.038z" fill="url(#paint6_linear)"/><path d="M1306.49 204.939c-.7-4.157-3.62-7.88-3.62-7.88s-6.4-4.741-16.69 0C1275.89 201.8 1274.32 212 1274.32 212v.2c6.08 2.88 13.41 4.825 20.17 3.94 4.61-3.372 9.06-7.57 12-11.201z" fill="url(#paint7_linear)"/><path d="M1259.96 221.816s-.95-5.917 5.82-9.548c6.77-3.631 12.14-.91 12.14-.91s8.54 5.851-1.88 11.485c-10.42 5.634-16.08-1.027-16.08-1.027z" fill="url(#paint8_linear)"/><path d="M1254.44 207.268c.52.567 2.29 1.97 2.64 2.905.35.934.79 2.353.63 3.313-.16.968-.08 2.221-.59 2.362-.51.142-.75.042-.75.042s-.05.66-.71.635c-.65-.026-.56-.293-.56-.293s-.54.409-.83.318c-.29-.092-.42-1.119-.42-1.119s-.46-2.412-.56-2.621c-.08-.209-.51-1.36-.53-.96-.02.393.42 1.912.51 2.421.09.509.44 1.36.14 1.427-.3.059-.99-.776-1.2-1.494-.21-.718-1.05-2.362-1.07-2.855-.02-.484.26-2.512-.11-3.029-.36-.518-4.17-4.065-5.16-6.252-.98-2.195-1-2.237-1.16-3.23-.15-.86.3-1.979.3-1.979s.5-5.892 1.31-7.478c.82-1.586 1.28-2.596 1.32-3.08.05-.484.43-2.413 1.95-2.605 1.52-.192 4.45 2.454 4.53 3.506.08 1.052-1.18 2.195-1.72 3.439-.54 1.244-1.77 8.355-1.77 8.355s2.86 7.237 3.81 8.272z" fill="#F2A983"/><path d="M1257.12 215.848c-.51.142-.75.042-.75.042s-.05.659-.7.634c-.66-.025-.57-.292-.57-.292s-.54.409-.83.317c-.29-.092-.42-1.118-.42-1.118s-.34-1.761-.5-2.404c.13-.401 1.2-.075 1.2-.075s.22-.209.71-.426c.5-.217 1.13-.083 1.13-.083s.29-.084 1.03-.343a.872.872 0 0 1 .21-.05c.1.518.15 1.019.08 1.444-.16.952-.08 2.212-.59 2.354zM1251.69 212.902c.54 0 1.04.058 1.28.083.12.493.25 1.01.3 1.269.09.509.44 1.361.14 1.427-.3.059-.99-.776-1.2-1.494-.09-.309-.31-.793-.52-1.285z" fill="#D88F69"/><path d="M1254.4 184.181c-.43-1.419-1.27-2.246-2.17-2.73-.5.359-1 .718-1.49 1.06-1.27.885-2.71 1.853-4.25 2.855-.47 2.17-.36 4.173-.36 4.173 3.4-.784 6.91 1.327 6.91 1.327s2.23-3.772 1.36-6.685z" fill="#F6C100"/><path d="M1201.92 192.024c-3.06-2.028-6.44-4.048-10.11-6.026l-.14.084c-.26 4.24-.82 13.947-1.04 22.269l11.92-7.078c.27-1.812.05-6.152-.63-9.249z" fill="url(#paint9_linear)"/><path d="M1217.99 206.315c-.65-.785-1.37-1.636-2.17-2.571-1.81-2.112-4.03-4.24-6.64-6.377-1.69-.534-3.14-.935-3.99-1.11-3.45-.693-4.67.584-4.67.584l-9.7 5.759c-.13 3.389-.24 6.795-.29 9.816 2.94 1.586 6.36 3.381 9.97 5.275 3.87-2.303 12.5-7.787 17.49-11.376z" fill="url(#paint10_linear)"/><path d="M1209.06 218.776s.11-4.483-1.77-9.791c-2.11-5.935-8.13-6.461-8.13-6.461l2.32 15.651c3.23 1.686 6.61 3.439 9.96 5.158-1.11-2.813-2.38-4.557-2.38-4.557z" fill="#D4CDBF"/><path d="M1221.93 211.438c-1.5-2.162-3.28-4.399-6.11-7.704-1.9-2.203-4.23-4.44-6.99-6.677l-9.67 5.467s6.02.517 8.13 6.46c1.88 5.309 1.77 9.791 1.77 9.791l12.87-7.337z" fill="url(#paint11_linear)"/><path d="M1223.26 225.395l3.96 3.606.32-8.005c0-.025-.02-.05-.04-.075-2.34-4.274-3.74-6.819-5.58-9.482l-12.86 7.337s1.26 1.744 2.36 4.557c1.76.91 3.52 1.811 5.24 2.696 3.22-.876 5.24-1.836 6.6-.634z" fill="url(#paint12_linear)"/><path d="M1206.19 197.558c.53.626.59 3.973.58 5.651.15-.025.3-.067.45-.125l5.04-3.014a70.752 70.752 0 0 0-6.21-5.141c-1.26.759-2.26 1.36-2.57 1.544.91-.159 2.07.334 2.71 1.085z" fill="url(#paint13_linear)"/><path d="M1203.49 196.465c.9-.142 2.05.342 2.7 1.094.53.626.59 3.973.58 5.65-.58.101-1.07-.025-1.07-.025s-3.05-1.644-3.47-2.387c-.42-.743 1.16-4.265 1.16-4.265s.04-.034.1-.067z" fill="#D4CDBF"/><path d="M1227.42 224.143l-3.35 1.986 3.16 2.871.19-4.857z" fill="url(#paint14_linear)"/><path d="M1169.58 185.457c-2.12-5.935-8.13-6.461-8.13-6.461l2.78 18.822c3.67 2.045 7.29 4.065 10.66 5.935-1.03-5.05-3.54-8.506-3.54-8.506s.11-4.482-1.77-9.79z" fill="#D4CDBF"/><path d="M1185.94 186.926l-14.59 8.322s2.5 3.464 3.54 8.505c2.31 1.285 4.5 2.504 6.5 3.614.71-3.94 2.51-13.53 4.55-20.441z" fill="url(#paint15_linear)"/><path d="M1185.94 186.926c.37-1.227.74-2.387 1.11-3.397-.66-.342-1.44-.776-2.33-1.277-3.78-2.104-9.66-5.359-16.24-7.237l-7.04 3.982s6.02.517 8.13 6.46c1.88 5.309 1.78 9.791 1.78 9.791l14.59-8.322z" fill="url(#paint16_linear)"/><path d="M1168.82 175.114c.22 1.302.25 3.364.25 4.558.15-.025.3-.067.45-.126l4.41-2.637a52.061 52.061 0 0 0-5.11-1.795z" fill="url(#paint17_linear)"/><path d="M1164.53 177.26c.41.743 3.47 2.387 3.47 2.387s.48.125 1.07.025c0-1.202-.03-3.255-.25-4.557-1.19-.351-2.4-.66-3.63-.902-.42 1.085-.91 2.588-.66 3.047z" fill="#D4CDBF"/><path opacity=".45" d="M1184.72 182.251c.89.493 1.67.935 2.33 1.277-2.47 6.694-4.83 19.198-5.66 23.839-8.2-4.558-19.68-10.951-29.38-16.368l5.4-17.412c10.67-.584 21.48 5.425 27.31 8.664zM1250.73 182.509c8.55-5.976 17.89-13.764 20.28-15.775 3.15 2.103 17.2 11.535 22.1 15.458 8.34 6.661 15.34 11.31 15.41 11.352l.09.058.1.042.32.134c.86 1.652 1.49 3.831.71 6.009-1.6 4.449-9.74 12.821-17.65 18.046-7.65 5.042-22.22 16.711-41.51 20.3-3.13-.877-4.67-2.496-4.96-2.822-6.78-11.86-20.66-30.657-23.89-34.998 4.17-2.404 20.42-11.794 29-17.804zM1223.26 225.395c-1.36-1.201-3.38-.242-6.59.635-9.01-4.616-18.95-9.766-26.13-13.631.12-9.039.85-21.626 1.14-26.476 10.78 5.801 19.07 11.911 24.13 17.812 6.3 7.354 7.44 9.432 11.69 17.178.02.025.03.05.04.075l-.32 8.005-3.96-3.598z" fill="#94DAEE"/><path d="M1420.28 120.415h-5.57v109.399h5.57V120.415zM1541.76 124.533h-5.57v109.399h5.57V124.533z" fill="#5F6464"/><path d="M1555.78 71h-156.55c-5.09 0-9.23 4.101-9.23 9.141v88.783c0 5.04 4.14 9.141 9.23 9.141h156.55c5.09 0 9.23-4.101 9.23-9.141V80.141c0-5.04-4.14-9.141-9.23-9.141z" fill="#004EBB"/><path d="M1555.78 73.755c3.55 0 6.45 2.874 6.45 6.39v88.782c0 3.512-2.9 6.389-6.45 6.389h-156.55c-3.55 0-6.45-2.874-6.45-6.389V80.141c0-3.512 2.9-6.389 6.45-6.389h156.55v.004zm0-2.755h-156.55c-5.09 0-9.23 4.101-9.23 9.141v88.783c0 5.04 4.14 9.141 9.23 9.141h156.55c5.09 0 9.23-4.101 9.23-9.141V80.141c0-5.04-4.14-9.141-9.23-9.141z" fill="#fff"/><g clip-path="url(#clip0)"><path d="M1419.29 101.37l-3.36-14.14h3.42l1.07 5.83c.31 1.68.61 3.5.84 4.93h.04c.23-1.53.57-3.23.92-4.97l1.2-5.79h3.4l1.13 5.96c.31 1.66.55 3.17.76 4.74h.04c.21-1.57.53-3.23.82-4.91l1.15-5.79h3.25l-3.65 14.14h-3.46l-1.2-6.08c-.27-1.43-.5-2.75-.67-4.36h-.04c-.25 1.59-.48 2.94-.82 4.36l-1.34 6.08h-3.5zM1444.04 95.39h-5.2v3.36h5.81v2.62h-9.02V87.23h8.73v2.62h-5.52v2.94h5.2v2.6zM1446.83 87.23h3.21v11.46h5.62v2.69h-8.83V87.23zM1467.14 100.97c-.59.29-1.91.61-3.63.61-4.89 0-7.41-3.04-7.41-7.07 0-4.83 3.44-7.51 7.72-7.51 1.66 0 2.92.34 3.48.63l-.65 2.54a6.96 6.96 0 0 0-2.69-.52c-2.54 0-4.51 1.53-4.51 4.68 0 2.83 1.68 4.62 4.53 4.62.96 0 2.04-.21 2.66-.46l.5 2.48zM1481.56 94.15c0 4.64-2.81 7.45-6.95 7.45-4.2 0-6.65-3.17-6.65-7.2 0-4.24 2.71-7.41 6.88-7.41 4.35.01 6.72 3.26 6.72 7.16zm-10.22.19c0 2.77 1.3 4.72 3.44 4.72 2.16 0 3.4-2.06 3.4-4.8 0-2.54-1.22-4.72-3.42-4.72-2.16 0-3.42 2.06-3.42 4.8zM1495.61 95.96c-.06-1.7-.13-3.76-.13-5.81h-.06c-.44 1.8-1.03 3.82-1.57 5.48l-1.72 5.52h-2.5l-1.51-5.48a66.97 66.97 0 0 1-1.28-5.52h-.04c-.08 1.91-.15 4.09-.25 5.85l-.25 5.37h-2.96l.9-14.14h4.26l1.38 4.72c.44 1.64.88 3.4 1.2 5.06h.06c.4-1.64.88-3.5 1.34-5.08l1.52-4.7h4.17l.78 14.14h-3.13l-.21-5.41zM1509.82 95.39h-5.2v3.36h5.81v2.62h-9.03V87.23h8.73v2.62h-5.52v2.94h5.2v2.6h.01zM1518.75 89.92h-3.8v-2.69h10.87v2.69h-3.86v11.46h-3.21V89.92zM1539.86 94.15c0 4.64-2.81 7.45-6.95 7.45-4.2 0-6.65-3.17-6.65-7.2 0-4.24 2.71-7.41 6.88-7.41 4.35.01 6.72 3.26 6.72 7.16zm-10.22.19c0 2.77 1.3 4.72 3.44 4.72 2.16 0 3.4-2.06 3.4-4.8 0-2.54-1.22-4.72-3.42-4.72-2.16 0-3.42 2.06-3.42 4.8z" fill="#fff"/><path fill-rule="evenodd" clip-rule="evenodd" d="M1440.55 149.51l-.68.07-2.9 5.44-.37 3.63 1.33 4.11-8.46-2.78-1.58-5.69-.93-.6.31-.23 3.63-2.65 5.72-4.17 3.93 2.87z" fill="#fff"/><path fill-rule="evenodd" clip-rule="evenodd" d="M1436.62 128.43l2.58 8 8.41-.02-6.81 4.93 2.61 8-6.79-4.96-6.8 4.96 2.62-8-6.82-4.93 8.41.02 2.59-8z" fill="#ED3237"/><path fill-rule="evenodd" clip-rule="evenodd" d="M1414.83 114.97h11.73v9.08h1.7l1.69 1.93 2.06-.6 3.34 1-.48 1.49-2.17 6.73-7.08-.02-4.49-.01h-1.18l.96.69 3.64 2.64 5.73 4.15-2.2 6.72-1.4 4.27-.12.39-1.09-.71-4.11-6.78-4.36-.96-.36 1.81-3.39 2.06-11.25-14.28h12.83v-19.6z" fill="#fff"/><path d="M1455.64 134.521v-3.6c-.02-.24-.13-.51-.34-.81-.2-.3-.39-.45-.56-.45h-.77v4.98c0 .11.05.25.16.43s.24.35.39.53c.15.18.3.34.44.49.14.15.26.26.37.34-.69.16-1.12.77-1.29 1.82-.02.08-.03.8-.03 2.15 0 1.4.03 2.2.1 2.39.21.65.85.97 1.9.97h.45c.15 0 .31-.01.48-.04v3.44h-12.18v-3.44c1.08 0 1.65-.01 1.71-.04.77-.11 1.19-.47 1.26-1.09v-2.19c0-1.3-.02-2.08-.06-2.35-.13-.67-.52-1.21-1.16-1.62.82-.86 1.23-1.47 1.23-1.82v-4.86c-.04-.05-.19-.08-.45-.08-.8 0-1.19.32-1.19.97v3.93h-4.91v-8.47h19.33v8.42h-4.88zM1477.23 134.401v-2.83c0-.57-.38-1.05-1.13-1.46-.58-.3-1.04-.45-1.39-.45h-2.19v5.06h3.78v4.05h-3.78v4.94h3.23c1.16 0 1.74-1.2 1.74-3.6v-.36c0-.22-.01-.49-.03-.81h4.68v8.22h-19.76v-3.44h2.29c.54 0 .86-.51.97-1.54v-1.78c0-1.38-.01-2.11-.03-2.19-.13-.86-.54-1.46-1.23-1.78.65-.35 1.04-.89 1.19-1.62.04-.27.06-.93.06-1.98 0-1.43-.11-2.28-.32-2.55-.37-.54-1.34-.78-2.94-.73v-3.45h19.85v8.3h-4.99zM1506.49 129.501c-1.48 0-2.61.9-3.39 2.71-.15.32-.17.82-.06 1.5-.71.14-1.27.58-1.68 1.34-.11.19-.26.45-.45.79s-.43.75-.71 1.23c.28.27.58.62.9 1.05.32.43.68.96 1.06 1.58.43.67.81 1.24 1.13 1.7.32.46.59.81.81 1.05.77.89 1.5 1.34 2.16 1.34.11 0 .27-.03.48-.08v3.44h-11.64v-3.44c.52 0 .89-.12 1.13-.36-.17-.27-1.01-1.52-2.52-3.77-.97 1.21-1.6 2.35-1.9 3.4.17.46.45.7.84.73h1.1v3.44h-9.29v-3.44c.19.08.4.12.61.12.88 0 1.76-.67 2.65-2.02.69-1.08 1.03-1.98 1.03-2.71 0-.22-.03-.43-.1-.65.13.05.23.08.29.08.58 0 1.3-.82 2.16-2.47-.28-.38-.66-.91-1.15-1.6-.48-.69-1.08-1.53-1.79-2.53-1.27-1.7-2.33-2.55-3.19-2.55-.24 0-.44.05-.61.16v-3.44h12.26v3.56c-.11-.03-.21-.05-.31-.06-.1-.01-.2-.02-.31-.02-.09 0-.17-.01-.26-.04a.304.304 0 0 0-.23 0c-.04.08-.15.23-.32.45.24.4.56.91.98 1.52.42.61.92 1.33 1.5 2.17 1.27-2 1.9-3.16 1.9-3.48 0-.35-.25-.57-.74-.65h-.97v-3.45h9.07v3.44c-.07-.03-.22-.04-.44-.04zM1521.08 147.151v-3.44c.34.03.62.03.82.02.2-.01.36-.03.47-.06.56-.16.84-.58.84-1.26 0-.4-.13-.84-.39-1.3h-6.49c-.26.62-.39 1.09-.39 1.42 0 .78.39 1.17 1.16 1.17h1.48v3.44h-9.91v-3.44h.42c.19 0 .42.01.68.04.62.03 1.17-.35 1.65-1.13.13-.22.27-.51.44-.89.16-.38.33-.84.5-1.38.47-1.35.71-2.25.71-2.71 0-.49-.17-.89-.52-1.21.86-.11 1.67-1.05 2.42-2.83.65-1.48.97-2.67.97-3.56-.37-.32-.7-.49-1-.49h-1.87v-3.44h15.84v3.44c-.3-.03-.56-.04-.77-.04h-.42c-.47.05-.88.22-1.23.49.17 1.32.53 2.6 1.07 3.85.71 1.67 1.46 2.52 2.26 2.55-.3.38-.45.93-.45 1.66 0 .54.25 1.54.74 3 .52 1.54.92 2.38 1.23 2.51.28.11.91.16 1.9.16v3.44h-12.16v-.01zm-1.39-15.3l-2 5.38h3.97l-1.97-5.38zM1551.32 146.01c-1.44 1-3.11 1.5-5 1.5-2.15 0-4.11-.67-5.87-2.02-.06.24-.1.49-.1.73 0 .27.03.53.1.77h-4.87v-6.36h5.52c.19 1.89 1.51 2.83 3.94 2.83 1.89 0 2.84-.5 2.84-1.5 0-1.08-.7-1.62-2.1-1.62-1.18 0-1.87.38-2.07 1.13-.43-.86-.94-1.43-1.52-1.7-.39-.19-.97-.31-1.74-.36-.43-.03-.79-.07-1.08-.12a6.08 6.08 0 0 1-.69-.16c-2.22-.89-3.32-2.78-3.32-5.67 0-2.73 1-4.82 3-6.28 1.57-1.16 3.36-1.74 5.36-1.74 2.02 0 3.8.63 5.32 1.9.09-.22.11-.63.06-1.26h4.16v6.88h-4.68c-.11-1.46-.48-2.46-1.13-3-.56-.46-1.45-.69-2.68-.69-1.76 0-2.65.59-2.65 1.78 0 1.3.82 1.94 2.45 1.94.71 0 1.31-.3 1.81-.89.32.89 1.03 1.46 2.13 1.7.24.05.55.12.95.2.4.08.88.19 1.44.32 1.18.65 2.02 1.34 2.52 2.06.52.86.77 2.06.77 3.6 0 2.69-.96 4.69-2.87 6.03z" fill="#fff"/></g><defs><filter id="filter0_d" x="-4" y="-2" width="1608" height="408" filterUnits="userSpaceOnUse" color-interpolation-filters="sRGB"><feFlood flood-opacity="0" result="BackgroundImageFix"/><feColorMatrix in="SourceAlpha" values="0 0 0 0 0 0 0 0 0 0 0 0 0 0 0 0 0 0 127 0"/><feOffset dy="2"/><feGaussianBlur stdDeviation="2"/><feColorMatrix values="0 0 0 0 0 0 0 0 0 0 0 0 0 0 0 0 0 0 0.08 0"/><feBlend in2="BackgroundImageFix" result="effect1_dropShadow"/><feBlend in="SourceGraphic" in2="effect1_dropShadow" result="shape"/></filter><linearGradient id="paint0_linear" x1="1257.65" y1="202.46" x2="1257.65" y2="172.818" gradientUnits="userSpaceOnUse"><stop offset=".003" stop-color="#C2B69C"/><stop offset=".505" stop-color="#E3DFD7"/><stop offset=".797" stop-color="#E6E6E6"/></linearGradient><linearGradient id="paint1_linear" x1="1256.92" y1="199.021" x2="1267.66" y2="217.613" gradientUnits="userSpaceOnUse"><stop stop-color="#E3DFD7"/><stop offset=".997" stop-color="#C2B69C"/></linearGradient><linearGradient id="paint2_linear" x1="1254.16" y1="222.993" x2="1294.32" y2="222.993" gradientUnits="userSpaceOnUse"><stop offset=".005" stop-color="#CCC1AB"/><stop offset=".182" stop-color="#D0C6B4"/><stop offset=".488" stop-color="#D3CBBC"/><stop offset=".997" stop-color="#D4CDBF"/></linearGradient><linearGradient id="paint3_linear" x1="1221.73" y1="200.632" x2="1234.45" y2="200.632" gradientUnits="userSpaceOnUse"><stop stop-color="#E3DFD7"/><stop offset=".997" stop-color="#C2B69C"/></linearGradient><linearGradient id="paint4_linear" x1="1233.11" y1="222.827" x2="1233.11" y2="203.311" gradientUnits="userSpaceOnUse"><stop offset=".003" stop-color="#C2B69C"/><stop offset="1" stop-color="#E3DFD7"/></linearGradient><linearGradient id="paint5_linear" x1="1235.11" y1="225.962" x2="1260.59" y2="225.962" gradientUnits="userSpaceOnUse"><stop offset=".003" stop-color="#C2B69C"/><stop offset="1" stop-color="#E3DFD7"/></linearGradient><linearGradient id="paint6_linear" x1="1245.3" y1="215.981" x2="1310.09" y2="215.981" gradientUnits="userSpaceOnUse"><stop offset=".003" stop-color="#389CC7"/><stop offset="1" stop-color="#2E7EC9"/></linearGradient><linearGradient id="paint7_linear" x1="1274.32" y1="205.658" x2="1306.49" y2="205.658" gradientUnits="userSpaceOnUse"><stop offset=".003" stop-color="#389CC7"/><stop offset="1" stop-color="#2E7EC9"/></linearGradient><linearGradient id="paint8_linear" x1="1277.42" y1="212.706" x2="1262.93" y2="223.551" gradientUnits="userSpaceOnUse"><stop stop-color="#2E7EC9"/><stop offset=".997" stop-color="#389CC7"/></linearGradient><linearGradient id="paint9_linear" x1="1190.63" y1="197.176" x2="1202.66" y2="197.176" gradientUnits="userSpaceOnUse"><stop stop-color="#E3DFD7"/><stop offset=".997" stop-color="#C2B69C"/></linearGradient><linearGradient id="paint10_linear" x1="1190.54" y1="206.862" x2="1217.99" y2="206.862" gradientUnits="userSpaceOnUse"><stop stop-color="#E3DFD7"/><stop offset=".997" stop-color="#C2B69C"/></linearGradient><linearGradient id="paint11_linear" x1="1199.15" y1="207.919" x2="1221.93" y2="207.919" gradientUnits="userSpaceOnUse"><stop offset=".203" stop-color="#E6E6E6"/><stop offset=".495" stop-color="#E3DFD7"/><stop offset=".997" stop-color="#C2B69C"/></linearGradient><linearGradient id="paint12_linear" x1="1218.31" y1="228.998" x2="1218.31" y2="211.44" gradientUnits="userSpaceOnUse"><stop stop-color="#E3DFD7"/><stop offset=".997" stop-color="#C2B69C"/></linearGradient><linearGradient id="paint13_linear" x1="1203.49" y1="199.059" x2="1212.27" y2="199.059" gradientUnits="userSpaceOnUse"><stop offset=".203" stop-color="#E6E6E6"/><stop offset=".495" stop-color="#E3DFD7"/><stop offset=".997" stop-color="#D4CDBF"/></linearGradient><linearGradient id="paint14_linear" x1="1224.07" y1="226.57" x2="1227.42" y2="226.57" gradientUnits="userSpaceOnUse"><stop stop-color="#E3DFD7"/><stop offset=".997" stop-color="#C2B69C"/></linearGradient><linearGradient id="paint15_linear" x1="1171.35" y1="197.146" x2="1185.95" y2="197.146" gradientUnits="userSpaceOnUse"><stop stop-color="#E3DFD7"/><stop offset=".997" stop-color="#C2B69C"/></linearGradient><linearGradient id="paint16_linear" x1="1161.44" y1="185.133" x2="1187.05" y2="185.133" gradientUnits="userSpaceOnUse"><stop offset=".203" stop-color="#E6E6E6"/><stop offset=".495" stop-color="#E3DFD7"/><stop offset=".997" stop-color="#C2B69C"/></linearGradient><linearGradient id="paint17_linear" x1="1168.82" y1="177.39" x2="1173.93" y2="177.39" gradientUnits="userSpaceOnUse"><stop offset=".203" stop-color="#E6E6E6"/><stop offset=".495" stop-color="#E3DFD7"/><stop offset=".997" stop-color="#D4CDBF"/></linearGradient><clipPath id="clip0"><path fill="#fff" transform="translate(1402 87)" d="M0 0h152.19v75.76H0z"/></clipPath></defs></svg>