<svg width="1600" height="400" fill="none" xmlns="http://www.w3.org/2000/svg" viewBox="0 0 1600 400"><g filter="url(#filter0_d)"><path fill="#F5FCFF" d="M1600 0H0v400h1600z"/></g><mask id="a" maskUnits="userSpaceOnUse" x="623" y="0" width="977" height="400"><path transform="matrix(-1 0 0 1 1600 0)" fill="#F5FCFF" d="M0 0h977v400H0z"/></mask><g mask="url(#a)"><path d="M1811.84 8.01l-221.16 12.087-412.3 43.203-76.81 45.616 349.28 203.445 293.2 27.612 67.79-331.962z" fill="#00AD00"/><path d="M1721.26 4.697S967.115 28.777 916.425 112.28C853.991 215.137 1472.9 491 1472.9 491l522.48-123.8s-828.17-206.809-790.9-269.085c38.95-65.08 809.99-83 809.99-83L1721.26 4.696z" fill="#fff"/><path d="M1531.55 450.392S919.755 205.655 975.078 112.279C1024.87 28.243 1779.91 7.401 1779.91 7.401l168.74 3.197s-771.51 22.153-809.99 87.508c-41.13 69.872 790.89 300.67 790.89 300.67l-398 51.616z" fill="#004EBB"/></g><path d="M1088.02 206.807c-3.27 1.878-3.2 4.799.17 6.494l31.23 19.982 165.34 83.193c3.37 1.694 8.93 1.653 12.64.91 14.06-2.855 34.8-9.274 45.85-14.607 3.4-1.645 8.31-4.791 11.35-7.028 5.12-3.756 13.66-11.861 16.64-17.996 1.65-3.397 2.1-6.235-1.27-7.938l-203.17-102.24c-3.37-1.694-8.8-1.553-12.07.325l-66.71 38.905z" fill="#0032A5"/><path d="M1092.84 170.849c-1.02-5.868 3.09-10.083 3.09-10.083s2.32-6.802 8.44-14.248c6.12-7.437 29.06-20.633 35.57-23.346 6.51-2.713 13.76-3.046 17.32-2.554 3.58.493 20.25 5.751 20.25 5.751s20.2 1.611 36.97 8.28 34.94 16.694 48.41 23.864c7.84 4.173 22.22 15.099 32.86 23.479l1.25-.793s-1.04-4.899-.8-5.767c.23-.877 2.73-7.012 2.73-7.012s3.06 3.097 3.99 5.659c.94 2.563-.67 6.428-1.17 8.306-.29 1.068-.92 2.337-1.4 3.238-.01-.008-.03-.017-.04-.025 5.23 4.174 8.77 7.103 8.77 7.103 18.53 7.27 42.39 27.862 42.39 27.862 4.56.234 7.7 8.831 10.98 14.69 3.29 5.868 3.12 9.816 3.03 11.536-.1 1.719 2.18 26.334-17.79 40.165-19.98 13.822-43.82 16.91-54.44 16.192a53.15 53.15 0 0 1-12.08-2.245c-.41-1.995-.8-3.864-.88-5.167-.64-10.717-10.18-23.529-19.95-28.02-12.65-5.818-18.54.092-17.89 10.818.07 1.06.39 2.737.81 4.499l-96.33-48.512c-.42-2.287-.88-4.633-1.11-6.052-1.59-9.757-9.2-20.75-17.68-25.833-13.55-8.121-17.6-.409-16.15 10.225v.017c-4.81-4.374-12.79-11.694-16.87-15.834-6.09-6.169-5.62-15.016-6.07-18.155-.46-3.138 3.79-8.038 3.79-8.038z" fill="#14AFEB"/><path d="M1089.04 178.888c.46 3.138-.02 11.986 6.07 18.154 4.09 4.14 12.07 11.46 16.87 15.834v-.017c-1.46-10.634 2.6-18.355 16.15-10.225 8.48 5.083 16.1 16.076 17.68 25.834.24 1.419.7 3.764 1.11 6.051l96.33 48.512c-.42-1.761-.75-3.439-.81-4.499-.64-10.726 5.25-16.635 17.89-10.818 9.77 4.491 19.31 17.303 19.95 28.021.08 1.302.47 3.172.88 5.166 3.04.944 7.18 1.912 12.08 2.246 10.62.718 34.46-2.371 54.44-16.193 18.13-12.545 17.92-33.972 17.8-39.122-1.67 8.815-6.12 19.849-18.32 28.238-12.6 8.672-22.43 13.338-43.1 14.173-12.18.484-20.34-3.197-24.92-4.925l-.05-.91c4.57 1.728 12.63 3.74 24.81 3.255 20.68-.826 30.5-5.5 43.1-14.164 12.28-8.447 16.71-19.565 18.36-28.413.06.309.1.601.14.885.04-2.003-.22-5.634-3.05-10.709-.92-1.644-1.83-3.497-2.76-5.325-2.14 3.631-3.53 1.844-3.53 1.844-.11 3.957-1.74 9.491-2.75 11.344-1.01 1.853-4.16 8.355-12.97 14.64s-18.81 9.607-24.53 11.444c-5.72 1.836-11.16 1.619-11.16 1.619-6.71 3.372-13.56.467-13.56.467-1.6-3.13-8.41-6.894-13.51-9.44-2.78-1.386-7.67-4.249-12.1-7.061-3.72-2.363-5.91-3.932-5.91-3.932-11.12-7.136-15.46-12.954-15.46-12.954-8.46-14.749-24.45-35.499-24.45-35.499-11.65-14.382-33.6-24.223-48.31-31.451-10.5-5.158-26.26-4.549-39.49-5.025l-15.68-.818s-15.9-4.248-16.21-12.612c-2.94 4.733-4.14 8.247-4.14 8.247s-4.11 4.223-3.09 10.083c0 0 6.77 14.406 13.63 22.795 0 0-12.54-9.899-17.12-17.053-.27.818-.41 1.611-.31 2.313zm126.12 47.526c4.1-.934 6.54-2.404 8.1-1.018l4.57 4.157s2.39 2.329.7 3.43c-1.69 1.102-7.3 1.444-11.92 1.72-4.62.275-4.97-3.915-5.07-4.591-.1-.684-.48-2.763 3.62-3.698z" fill="#0082C8"/><path d="M1154.62 172.869c.86-.142 1.72-.233 2.58-.284 12.99-.784 26.14 7.446 30.66 9.967 7.25 4.039 20.86 11.36 28.73 20.533 9.61 11.21 7.34 10.3 21.89 35.182 0 0-4.12-2.079-10.18-5.159.08-.041.16-.075.23-.125 1.69-1.102-.7-3.43-.7-3.43l-4.57-4.157c-1.56-1.377-3.99.083-8.07 1.01-10.63-5.459-22.36-11.552-29.26-15.367-14.94-8.271-53.25-29.673-53.25-29.673s8.13-6.251 21.94-8.497z" fill="#0082C8"/><path d="M1250.15 268.415l4.45-2.646c1.73.35 3.64.985 5.73 1.953 9.77 4.491 19.31 17.303 19.95 28.02.07 1.302.47 3.172.88 5.167h.02l-7.85 4.674c-2.69 1.619-6.47 1.553-10.75-.584-8.85-4.424-16.5-16.001-17.09-25.867-.33-5.367 1.5-9.123 4.66-10.717z" fill="#192D4B"/><path d="M1254.61 265.761l-4.46 2.646c-3.17 1.594-4.99 5.35-4.67 10.717.06 1.027.2 2.07.41 3.122l-2.64.784c-.42-1.761-.75-3.439-.81-4.499-.54-8.939 3.48-14.531 12.17-12.77z" fill="#004687"/><path d="M1245.48 279.124c.59 9.866 8.25 21.451 17.09 25.867 8.85 4.415 15.54 0 14.95-9.866-.6-9.866-8.25-21.452-17.1-25.867-8.84-4.416-15.53 0-14.94 9.866z" fill="#192D4B"/><path d="M1246.43 280.058c.55 9.098 7.6 19.782 15.75 23.855 8.17 4.074 14.34.009 13.79-9.098-.55-9.098-7.6-19.782-15.76-23.855s-14.33 0-13.78 9.098z" fill="#192D4B"/><path d="M1250.22 282.153c.41 6.778 5.66 14.724 11.73 17.763 6.07 3.029 10.66 0 10.26-6.77-.41-6.777-5.66-14.724-11.73-17.753-6.08-3.047-10.67-.009-10.26 6.76z" fill="#0082C8"/><path d="M1258.74 285.426c.11 1.978 1.65 4.29 3.42 5.183 1.77.885 3.11 0 2.99-1.978-.12-1.978-1.66-4.299-3.43-5.184-1.76-.884-3.1 0-2.98 1.979zM1117.86 201.782l3.6-2.145c1.9.492 4.12 1.46 6.67 2.996 8.48 5.084 16.1 16.076 17.68 25.834.24 1.419.7 3.764 1.11 6.051l.85.426-6.74 4.006c-2.69 1.62-6.47 1.553-10.75-.584-8.85-4.415-16.5-16.001-17.1-25.867-.31-5.367 1.52-9.115 4.68-10.717z" fill="#192D4B"/><path d="M1113.18 212.5c.6 9.866 8.25 21.451 17.1 25.866 8.85 4.416 15.54.009 14.95-9.865-.59-9.866-8.25-21.452-17.1-25.867-8.84-4.416-15.54 0-14.95 9.866z" fill="#192D4B"/><path d="M1114.13 213.434c.55 9.098 7.6 19.782 15.76 23.864 8.16 4.073 14.33 0 13.79-9.098-.56-9.098-7.61-19.782-15.77-23.856-8.16-4.081-14.32-.008-13.78 9.09z" fill="#192D4B"/><path d="M1117.93 215.53c.4 6.769 5.65 14.723 11.72 17.762 6.08 3.03 10.66 0 10.26-6.77-.41-6.777-5.66-14.723-11.73-17.762-6.07-3.038-10.66-.008-10.25 6.77z" fill="#0082C8"/><path d="M1126.38 218.768c.13 2.011 1.69 4.374 3.49 5.275 1.8.901 3.17 0 3.05-2.012-.13-2.011-1.68-4.373-3.49-5.275-1.81-.901-3.17 0-3.05 2.012z" fill="#192D4B"/><path d="M1121.46 199.646l-3.6 2.145c-3.16 1.594-4.99 5.35-4.68 10.709 0 .041.01.092.01.133l-1.21.242v-.016c-1.18-8.631 1.27-15.333 9.48-13.213z" fill="#004687"/><path d="M1250.16 181.692c9.92-6.944 20.79-16.218 20.79-16.218s17.19 11.444 22.8 15.926c8.4 6.711 15.33 11.302 15.33 11.302.93.367 1.88.767 2.83 1.193 8.1 6.135-5.27 18.956-15.59 26.743-10.31 7.78-27.21 16.777-37.25 18.656-1.03.191-2 .308-2.92.367-7.96.476-11.34-3.773-11.34-3.773-7.71-13.505-24.56-35.891-24.56-35.891s19.98-11.36 29.91-18.305zM1119.07 158.688c3.38-5.116 16.66-14.69 23.6-19.122 4.97-3.172 13.01-8.497 22.65-11.319 3.21-.943 6.6-1.602 10.12-1.811a33.55 33.55 0 0 1 2.07-.067s9.94.793 21.65 3.564c0 0-16.12 8.848-23.36 13.956-7.23 5.1-21.2 16.277-22.78 17.837 0 0-2.52 3.105-5.13 3.256-2.61.158-28.92-1.211-28.92-1.211s-3.28.034.1-5.083z" fill="#0082C8"/><path d="M1250.73 182.51c8.55-5.977 17.89-13.764 20.28-15.776 3.15 2.103 17.2 11.535 22.1 15.458 8.34 6.661 15.34 11.31 15.41 11.352l.09.058.1.042.32.134c.86 1.652 1.49 3.831.71 6.009-1.6 4.449-9.74 12.821-17.65 18.046-7.65 5.042-22.22 16.711-41.51 20.3-3.13-.877-4.67-2.496-4.96-2.821-6.78-11.861-20.66-30.658-23.89-34.999 4.17-2.404 20.42-11.794 29-17.803zM1184.72 182.251c.89.492 1.67.935 2.33 1.277-2.47 6.694-4.83 19.198-5.66 23.839-8.2-4.558-19.68-10.951-29.38-16.369l5.4-17.411c10.67-.584 21.48 5.425 27.31 8.664zM1154.79 173.862c.21-.033.43-.058.65-.092l-5.36 16.152c-7.04-3.924-12.89-7.195-15.48-8.639 2.78-1.778 9.91-5.751 20.19-7.421zM1147.82 163.98c1.77-.109 3.79-2.12 4.41-2.888l.03-.042.05-.033c1.67-1.661 15.42-13.238 22.9-17.954 14.69-9.265 19.17-11.118 23.11-13.322-10.41-2.404-19.24-3.238-20.62-3.355-2.42.334-5.55 1.018-9.66 1.92-10.03 2.47-18.56 8.096-24.05 11.61l-.78.501c-7.81 4.983-20.19 14.114-23.31 18.822-1.69 2.562-1.32 3.33-1.32 3.355.08.142.36.167.36.167H1119.01c9.09.484 26.79 1.344 28.81 1.219z" fill="#94DAEE"/><path d="M1359.42 253.174s-3.28-13.714-3.51-15.208c-.23-1.494 2.24-10.367-4.19-17.378 4.14.492 7.11 7.871 10.12 13.538.21 4.232.31 13.706-2.42 19.048zM1319.85 280.318s-3.8-3.681-7.14-6.21c-3.33-2.529-5.5-3.305-9.8-3.355-4.29-.042-10.95.15-14.22-.51-3.28-.659-5.93-1.16-8.02-1.435-2.08-.284-3.8-.326-2.4 2.011 1.4 2.338 3.14 7.321 8.27 8.748 5.13 1.427 7.9 1.628 14.32 1.678 6.42.058 18.99-.927 18.99-.927z" fill="#E1E8EC"/><path d="M1330.12 278.707c.89-.05 1.78-.267 2.66-.634l.72-.301c4.01-1.694 9-3.806 13.45-7.562 3.82-3.222 6.36-5.718 7.76-7.637 1.23-1.695 1.74-3.481 1.54-5.468-.19-1.869-.81-7.587-1.17-10.834-1.48 2.287-4.12 6.152-6.97 9.365-2.41 2.721-7.49 7.671-14.49 10.309-.48.183-.96.375-1.45.576-.47.192-.95.384-1.43.559-5.65 2.145-11.21 3.781-13.94 4.532l9.27 6.177c-.01.008 1.65 1.06 4.05.918zM1299.45 296.569c2.8-.342 10.02-1.035 13.47-1.644.57-.101 1.13-.293 1.35 1.285.22 1.578-1.97 1.903-1.97 1.903-3.03.451-5.86.81-7.69.901 0 0-5.47.393-5.98.418-.63.025-1.1-.334-1.1-.334-.26-1.002.17-2.312 1.92-2.529zM1330.64 290.993l.7 1.711s.66.96 2.61-.008c1.94-.968 9.93-5.267 14.56-8.723 3.43-2.562 6.55-5.951 7.13-6.685.59-.735 1.13-2.605 1.16-3.281.02-.676.41-1.978-1.09-.233-1.5 1.744-6.86 6.301-10.44 8.68-3.58 2.379-12.56 6.895-14.08 7.479.01.008-.84.334-.55 1.06z" fill="#006399"/><path d="M1095.68 161.05s-.98 2.229.99 4.482c1.96 2.254 6.32 6.127 6.32 6.127s1.1.434-.91 2.888c-2.02 2.454-2.28 2.471-2.28 2.471s-.3.35-.78.375c-.37.025-.83-.142-1.35-.793-1.2-1.502-3.65-3.822-4.83-5.759-.87-4.966 1.96-8.756 2.84-9.791z" fill="#0082C8"/><path d="M1223.26 225.395c-1.36-1.201-3.38-.242-6.59.635-9.01-4.616-18.95-9.766-26.13-13.631.12-9.039.85-21.626 1.14-26.476 10.78 5.801 19.07 11.911 24.13 17.812 6.3 7.354 7.44 9.432 11.69 17.178.02.025.03.05.04.075l-.32 8.005-3.96-3.598z" fill="#94DAEE"/><path d="M1244.09 221.331l9.98 4.266c.37-2.446 1.35-6.018.24-12.437-1.09-6.31-4.28-10.701-4.28-10.701s.13-5.217-2.08-11.41a11.113 11.113 0 0 0-3.09-4.632c-1.75 1.118-3.59 2.27-5.45 3.413l4.68 31.501z" fill="#D4CDBF"/><path d="M1270.38 190.857s.56-4.824-1.64-11.009c-1.26-3.514-3.38-5.71-5.15-7.028-3.78 3.013-8.43 6.594-12.85 9.699-1.7 1.193-3.71 2.52-5.87 3.897 1.23 1.094 2.36 2.58 3.1 4.633 2.2 6.193 2.08 11.41 2.08 11.41l20.33-11.602z" fill="url(#paint0_linear)"/><path d="M1254.31 213.168c-1.09-6.31-4.28-10.7-4.28-10.7l20.34-11.602s2.58 3.923 4.31 9.432c1.1 3.505 1.52 9.949 1.15 12.386l-21.76 12.921c.37-2.446 1.36-6.026.24-12.437z" fill="url(#paint1_linear)"/><path d="M1294.33 216.273c-4.72-1.919-10.79-3.839-13.07-4.298-4.02-.81-5.45.676-5.45.676l-21.65 12.846c.45 2.337 5.05 5.968 9.71 8.747 12.72-5.033 22.45-12.612 28.22-16.418a51.08 51.08 0 0 0 2.24-1.553z" fill="url(#paint2_linear)"/><path d="M1227.02 207.517l7.38-4.206s.47-4.14-1.41-9.449c-.02-.042-.04-.075-.05-.117-4.99 2.972-9.34 5.476-11.21 6.561a768.96 768.96 0 0 1 5.29 7.211z" fill="url(#paint3_linear)"/><path d="M1234.4 203.311l-7.38 4.206c3.11 4.307 7.03 9.825 10.72 15.308l1.34-.792c.31-2.096-.04-7.621-.99-10.626-1.48-4.724-3.69-8.096-3.69-8.096z" fill="url(#paint4_linear)"/><path d="M1245.37 234.861c7.03-4.257 15-9.373 15.21-10.375.36-1.711-14.54-6.477-18.37-7.212-3.83-.726-5.2.61-5.2.61l-1.9 1.068c3.77 5.476 7.54 11.201 10.26 15.909z" fill="url(#paint5_linear)"/><path d="M1271.45 200.99s5.77 1.52 9.38 4.433c3.61 2.913 8.39 8.497 8.39 8.497l-3.48 5.433s-12.17-5.959-15.53-7.762c-3.35-1.803-6.25-7.32-6.25-7.32l7.49-3.281z" fill="#014B89"/><path d="M1267.35 202.727s1.9 3.205 1.76 4.157c-.14.951.62 2.771.62 2.771s5.84 4.449 7.47 6.744c1.63 2.304 3.2 5.884 2.75 5.918-.44.033-6.65 2.537-6.65 2.537s-5.46-5.801-8.69-7.42c-3.23-1.611-8.09-4.691-9.26-10.066l12-4.641z" fill="#1A64A3"/><path d="M1288.03 190.457s.04.008.09.008c.38.059 1.97.284 2.68.451.81.192 1.27-.058 2.3 1.127 1.03 1.193.98 1.995.94 2.796-.05.801-.32 1.995-.58 2.27-.26.276-.37.551-.74.485-.38-.067-.55-.259-.52-.234.02.025-.5-.009-.47-.551.03-.534.33-1.703.33-1.703l-.3-.96s-.75-.509-.96-.442c-.22.067-2.29.167-2.29.167s-2.9.209-3.99-.075c-1.1-.284-10.47-2.63-11.34-3.205-.85-.585-4.12-4.775-5.49-6.144-1.37-1.369-1.86-5.959-2.65-6.201-.79-.234-2.61-.117-2.61-.117l-1.37-2.771s3.84-3.857 6.27-1.887c2.42 1.962 3.23 3.139 3.63 3.664.41.526 4.5 7.855 5.64 8.69 1.14.834 8.56 4.089 9.73 4.073.84 0 1.7.559 1.7.559z" fill="#F2A983"/><path d="M1267.1 181.985s3.99 4.75 5.2 5.543c1.2.793 2.79-1.052 2.49 0-.3 1.051.07 2.111.49 2.337.42.225 9.3 2.454 9.91 2.637.61.184 2.89-1.377 4.05-.676.69.418 1.01 1.236.87 1.953-.67.05-1.59.092-1.59.092s-2.9.209-3.99-.075c-1.1-.284-10.47-2.629-11.34-3.205-.86-.584-4.12-4.774-5.49-6.143-.4-.401-.73-1.077-1.01-1.837l.41-.626z" fill="#D88F69"/><path d="M1263.72 172.912s2.45-.976 4.26.601c1.8 1.586 5.21 6.628 5.21 6.628s-3.5 5.442-6.15 6.151c-2.65.71-3.32-13.38-3.32-13.38z" fill="#F6C100"/><path d="M1265.46 179.623c.46-.96 3.04-.801 3.73 1.169.41 1.193.91 2.278 1.24 2.946-1.08 1.185-2.3 2.27-3.39 2.563-1.11.292-1.98-1.97-2.63-4.708.49-.927.9-1.678 1.05-1.97z" fill="#DDA800"/><path d="M1258.11 181.626c3.69.676 6.22.501 6.74-1.51.51-2.012-1.68-6.236-1.68-6.236l-.66-.208a305.062 305.062 0 0 1-7.21 5.542c.36 1.06 1.16 2.112 2.81 2.412z" fill="#D88F69"/><path d="M1266.89 193.086c-.06-.759-.48-4.307-.48-4.307.68-.918 1.8-3.464 1.59-7.654-.21-4.19-2.88-7.888-2.88-7.888s-.98-.2-1.78-.225c-.29.225-.59.459-.88.693.02.025.03.05.06.075 1.17 1.327 1.94 4.975-.35 6.193-2.05 1.085-3.85-.133-4.96-1.252-.19-.192-.37-.367-.54-.542a207.423 207.423 0 0 1-5.94 4.323c-.9.635-1.88 1.302-2.94 1.995.35 4.316 4.72 11.636 5.61 13.105 1.04 1.703 2.44 11.101 2.44 11.101 1.39-1.177 6.84-1.953 11.35-3.322 4.53-1.369 4.94-4.482 4.94-4.482s-1.11-.601-1.79-1.277c-.68-.668-3.38-5.776-3.45-6.536z" fill="#F6C100"/><path d="M1263.69 175.984c1.53-.376 1.08-1.678 1.09-2.638.01-.492.07-1.052.14-1.603a416.142 416.142 0 0 1-5.22 4.124c1.43.342 2.96.375 3.99.117z" fill="#F2A983"/><path d="M1264.44 175.625c.62-.559.34-1.528.35-2.279.01-.492.07-1.052.14-1.603l-.09.076c.06.308.06.701-.38.742-.48.042-.19.885-.21 1.428 0 .292.06 1.01.19 1.636z" fill="#D88F69"/><path d="M1254.67 189.13c-.22 2.262-.07 3.464.94 5.358 1 1.895.86 3.706 2.61 4.716 1.74 1.01 3.28-.058 5.05 0 1.77.05 1.63-.025 1.43 1.169-.19 1.185-.09 1.903 1.39 1.477 1.49-.434 3.57-1.127 3.16-.142-.32.793-4.33 3.13-5.61 4.649-1.2.293-2.37.56-3.43.818-1.35-.233-3.03-.584-4.77-.968-.49-2.913-1.34-7.445-2.03-8.58-.95-1.57-5.49-8.264-5.25-12.395l4.9-.576c0-.017 1.83 2.212 1.61 4.474z" fill="#DDA800"/><path d="M1280.02 209.872c.94 0 2.07-.293 3.32-.902 4.33-2.112 8.52-7.278 9.35-11.544.59-3.029-.66-4.782-3-4.782-.94 0-2.07.292-3.32.901-4.32 2.112-8.51 7.279-9.35 11.544-.59 3.03.67 4.783 3 4.783zm-1.09-4.424c.7-3.548 4.35-8.038 7.99-9.816.94-.459 1.8-.693 2.48-.693.54 0 .92.142 1.15.426.36.434.45 1.294.25 2.345-.7 3.548-4.36 8.038-8 9.816-.93.459-1.79.701-2.48.701-.53 0-.92-.142-1.15-.425-.36-.443-.45-1.303-.24-2.354z" fill="#39464A"/><path d="M1309.74 199.789c.77-2.154.15-4.307-.68-5.952-6.2-.066-19.49 9.282-32.54 17.061-12.65 7.537-25.84 18.48-31.22 23.839.11.192.22.384.32.567.29.326 1.83 1.945 4.96 2.822 19.29-3.59 33.86-15.25 41.51-20.3 7.91-5.217 16.05-13.588 17.65-18.037z" fill="url(#paint6_linear)"/><path d="M1306.49 204.938c-.7-4.157-3.62-7.879-3.62-7.879s-6.4-4.741-16.69 0C1275.89 201.8 1274.32 212 1274.32 212v.2c6.08 2.88 13.41 4.824 20.17 3.94 4.61-3.372 9.06-7.571 12-11.202z" fill="url(#paint7_linear)"/><path d="M1259.96 221.816s-.95-5.918 5.82-9.549c6.77-3.631 12.14-.91 12.14-.91s8.54 5.852-1.88 11.486c-10.42 5.634-16.08-1.027-16.08-1.027z" fill="url(#paint8_linear)"/><path d="M1254.44 207.268c.52.567 2.29 1.969 2.64 2.904.35.935.79 2.354.63 3.314-.16.968-.08 2.22-.59 2.362-.51.142-.75.042-.75.042s-.05.659-.71.634c-.65-.025-.56-.292-.56-.292s-.54.409-.83.317c-.29-.092-.42-1.118-.42-1.118s-.46-2.412-.56-2.621c-.08-.209-.51-1.361-.53-.96-.02.392.42 1.911.51 2.421.09.509.44 1.36.14 1.427-.3.058-.99-.776-1.2-1.494-.21-.718-1.05-2.362-1.07-2.855-.02-.484.26-2.512-.11-3.03-.36-.517-4.17-4.065-5.16-6.251-.98-2.196-1-2.237-1.16-3.231-.15-.859.3-1.978.3-1.978s.5-5.893 1.31-7.479c.82-1.586 1.28-2.595 1.32-3.08.05-.484.43-2.412 1.95-2.604 1.52-.192 4.45 2.454 4.53 3.506.08 1.052-1.18 2.195-1.72 3.439-.54 1.243-1.77 8.355-1.77 8.355s2.86 7.237 3.81 8.272z" fill="#F2A983"/><path d="M1257.12 215.848c-.51.142-.75.042-.75.042s-.05.659-.7.634c-.66-.025-.57-.292-.57-.292s-.54.409-.83.317c-.29-.092-.42-1.119-.42-1.119s-.34-1.761-.5-2.403c.13-.401 1.2-.076 1.2-.076s.22-.208.71-.425c.5-.217 1.13-.084 1.13-.084s.29-.083 1.03-.342a.827.827 0 0 1 .21-.05c.1.517.15 1.018.08 1.444-.16.952-.08 2.212-.59 2.354zM1251.69 212.902c.54 0 1.04.058 1.28.083.12.493.25 1.01.3 1.269.09.509.44 1.36.14 1.427-.3.059-.99-.776-1.2-1.494-.09-.309-.31-.793-.52-1.285z" fill="#D88F69"/><path d="M1254.4 184.18c-.43-1.419-1.27-2.245-2.17-2.729-.5.359-1 .718-1.49 1.06-1.27.885-2.71 1.853-4.25 2.855-.47 2.17-.36 4.173-.36 4.173 3.4-.785 6.91 1.327 6.91 1.327s2.23-3.773 1.36-6.686z" fill="#F6C100"/><path d="M1201.92 192.025c-3.06-2.029-6.44-4.049-10.11-6.027l-.14.084c-.26 4.24-.82 13.947-1.04 22.269l11.92-7.078c.27-1.811.05-6.152-.63-9.248z" fill="url(#paint9_linear)"/><path d="M1217.99 206.315c-.65-.785-1.37-1.636-2.17-2.571-1.81-2.112-4.03-4.24-6.64-6.377-1.69-.534-3.14-.935-3.99-1.11-3.45-.693-4.67.584-4.67.584l-9.7 5.759c-.13 3.389-.24 6.795-.29 9.816 2.94 1.586 6.36 3.381 9.97 5.275 3.87-2.303 12.5-7.787 17.49-11.376z" fill="url(#paint10_linear)"/><path d="M1209.06 218.776s.11-4.482-1.77-9.791c-2.11-5.934-8.13-6.46-8.13-6.46l2.32 15.65c3.23 1.686 6.61 3.439 9.96 5.158-1.11-2.812-2.38-4.557-2.38-4.557z" fill="#D4CDBF"/><path d="M1221.93 211.439c-1.5-2.162-3.28-4.399-6.11-7.704-1.9-2.204-4.23-4.441-6.99-6.678l-9.67 5.467s6.02.518 8.13 6.461c1.88 5.308 1.77 9.791 1.77 9.791l12.87-7.337z" fill="url(#paint11_linear)"/><path d="M1223.26 225.395l3.96 3.606.32-8.005c0-.025-.02-.05-.04-.075-2.34-4.273-3.74-6.819-5.58-9.482l-12.86 7.337s1.26 1.745 2.36 4.558c1.76.909 3.52 1.811 5.24 2.696 3.22-.877 5.24-1.837 6.6-.635z" fill="url(#paint12_linear)"/><path d="M1206.19 197.558c.53.626.59 3.973.58 5.651.15-.025.3-.067.45-.125l5.04-3.013a70.578 70.578 0 0 0-6.21-5.142c-1.26.76-2.26 1.36-2.57 1.544.91-.158 2.07.334 2.71 1.085z" fill="url(#paint13_linear)"/><path d="M1203.49 196.465c.9-.142 2.05.342 2.7 1.094.53.626.59 3.973.58 5.65-.58.101-1.07-.025-1.07-.025s-3.05-1.644-3.47-2.387c-.42-.743 1.16-4.265 1.16-4.265s.04-.033.1-.067z" fill="#D4CDBF"/><path d="M1227.42 224.143l-3.35 1.987 3.16 2.871.19-4.858z" fill="url(#paint14_linear)"/><path d="M1169.58 185.457c-2.12-5.935-8.13-6.461-8.13-6.461l2.78 18.822c3.67 2.045 7.29 4.065 10.66 5.935-1.03-5.05-3.54-8.505-3.54-8.505s.11-4.483-1.77-9.791z" fill="#D4CDBF"/><path d="M1185.94 186.926l-14.59 8.322s2.5 3.464 3.54 8.505c2.31 1.285 4.5 2.504 6.5 3.614.71-3.939 2.51-13.53 4.55-20.441z" fill="url(#paint15_linear)"/><path d="M1185.94 186.926c.37-1.227.74-2.387 1.11-3.397-.66-.342-1.44-.776-2.33-1.277-3.78-2.104-9.66-5.359-16.24-7.237l-7.04 3.982s6.02.517 8.13 6.46c1.88 5.309 1.78 9.791 1.78 9.791l14.59-8.322z" fill="url(#paint16_linear)"/><path d="M1168.82 175.115c.22 1.302.25 3.363.25 4.557.15-.025.3-.067.45-.125l4.41-2.638a51.799 51.799 0 0 0-5.11-1.794z" fill="url(#paint17_linear)"/><path d="M1164.53 177.26c.41.743 3.47 2.387 3.47 2.387s.48.125 1.07.025c0-1.202-.03-3.255-.25-4.557-1.19-.351-2.4-.66-3.63-.902-.42 1.086-.91 2.588-.66 3.047z" fill="#D4CDBF"/><path opacity=".45" d="M1184.72 182.251c.89.492 1.67.935 2.33 1.277-2.47 6.694-4.83 19.198-5.66 23.839-8.2-4.558-19.68-10.951-29.38-16.369l5.4-17.411c10.67-.584 21.48 5.425 27.31 8.664zM1250.73 182.51c8.55-5.977 17.89-13.764 20.28-15.776 3.15 2.103 17.2 11.535 22.1 15.458 8.34 6.661 15.34 11.31 15.41 11.352l.09.058.1.042.32.134c.86 1.652 1.49 3.831.71 6.009-1.6 4.449-9.74 12.821-17.65 18.046-7.65 5.042-22.22 16.711-41.51 20.3-3.13-.877-4.67-2.496-4.96-2.821-6.78-11.861-20.66-30.658-23.89-34.999 4.17-2.404 20.42-11.794 29-17.803zM1223.26 225.395c-1.36-1.201-3.38-.242-6.59.635-9.01-4.616-18.95-9.766-26.13-13.631.12-9.039.85-21.626 1.14-26.476 10.78 5.801 19.07 11.911 24.13 17.812 6.3 7.354 7.44 9.432 11.69 17.178.02.025.03.05.04.075l-.32 8.005-3.96-3.598z" fill="#94DAEE"/><path d="M1420.28 120.415h-5.57v109.399h5.57V120.415zM1541.76 124.533h-5.57v109.399h5.57V124.533z" fill="#5F6464"/><path d="M1555.78 71h-156.55c-5.09 0-9.23 4.101-9.23 9.141v88.783c0 5.04 4.14 9.141 9.23 9.141h156.55c5.09 0 9.23-4.101 9.23-9.141V80.141c0-5.04-4.14-9.141-9.23-9.141z" fill="#004EBB"/><path d="M1555.78 73.755c3.55 0 6.45 2.874 6.45 6.39v88.782c0 3.512-2.9 6.389-6.45 6.389h-156.55c-3.55 0-6.45-2.874-6.45-6.389V80.141c0-3.512 2.9-6.389 6.45-6.389h156.55v.004zm0-2.755h-156.55c-5.09 0-9.23 4.101-9.23 9.141v88.783c0 5.04 4.14 9.141 9.23 9.141h156.55c5.09 0 9.23-4.101 9.23-9.141V80.141c0-5.04-4.14-9.141-9.23-9.141z" fill="#fff"/><g clip-path="url(#clip0)"><path d="M1488.74 110.46a3.96 3.96 0 0 0-1.41-1.02c-.42-.19-.85-.28-1.31-.33a5.71 5.71 0 0 0-2.02.1c-.61.15-1.19.45-1.68.83-.87.66-1.51 1.58-1.96 2.56-.11.25-.21.5-.3.76-.11.35-.25.68-.35 1.03-.13.47-.23.94-.3 1.42-.05.35-.08.7-.1 1.06h-.74v-.15c.01-1.18.25-2.35.57-3.48.2-.72.44-1.43.71-2.13.12-.33.27-.65.4-.98.19-.48.36-.98.49-1.48.15-.59.24-1.19.25-1.8.01-.64-.09-1.26-.29-1.87-.35-1.1-.92-2.12-1.55-3.08-.31-.47-.64-.94-1.01-1.37-.36.43-.69.9-1.01 1.37-.63.96-1.2 1.98-1.55 3.08-.19.61-.3 1.23-.29 1.87.01.61.1 1.21.25 1.8.13.51.29 1 .49 1.48.13.33.28.65.4.98.26.7.5 1.41.71 2.13.32 1.13.56 2.3.57 3.48v.15h-.74c-.02-.35-.05-.71-.1-1.06-.07-.48-.17-.95-.3-1.42-.1-.35-.24-.69-.35-1.03-.08-.26-.18-.51-.3-.76-.44-.98-1.09-1.9-1.96-2.56-.49-.38-1.07-.68-1.68-.83a5.71 5.71 0 0 0-2.02-.1c-.46.05-.89.14-1.31.33-.53.24-1.02.59-1.41 1.02-.95 1.08-1.23 2.64-.67 3.97.31.73.95 1.36 1.67 1.71.68.33 1.5.41 2.25.27.44-.08.84-.26 1.21-.51a3.44 3.44 0 0 1-.41-.35c-.38-.4-.63-.97-.39-1.5.21-.47.74-.71 1.23-.81.49-.1.99-.05 1.45.16.49.23.88.62 1.19 1.05.5.7.83 1.55.96 2.41h-.73s-.24.15-.24.63.24.63.24.63h.79c-.03.39-.1.77-.21 1.14-.15.49-.37 1-.76 1.35-.3.27-.72.42-1.13.37-.3-.03-.55-.2-.67-.48-.14-.31-.11-.67-.01-.99-.22-.01-.44.02-.65.09a1.3 1.3 0 0 0-.8.77c-.1.27-.11.56-.07.85a2 2 0 0 0 .26.78c.19.3.49.49.83.58.66.18 1.42.03 2.02-.29.72-.38 1.23-1.11 1.53-1.85.3-.75.46-1.54.53-2.34h.69c-.03.31-.06.61-.11.92-.04.26-.09.53-.16.78-.08.28-.19.56-.29.84-.18.5-.37 1.01-.43 1.54-.04.28-.04.56-.03.84 0 .18.03.36.07.53.07.26.18.51.29.76.2.42.43.83.66 1.23.16.28.33.56.5.84.17-.28.34-.56.5-.84.23-.4.46-.81.66-1.23.12-.24.22-.5.29-.76.05-.17.07-.35.07-.53.01-.28.01-.56-.03-.84-.07-.53-.25-1.04-.43-1.54-.1-.28-.21-.55-.29-.84-.07-.26-.12-.52-.16-.78-.05-.3-.08-.61-.11-.92h.69c.06.8.23 1.59.53 2.34.29.73.81 1.47 1.53 1.85.6.31 1.36.47 2.02.29.34-.09.64-.29.83-.58.15-.24.22-.5.26-.78.04-.28.03-.58-.07-.85-.14-.36-.43-.64-.8-.77-.21-.07-.43-.1-.65-.09.1.31.13.68-.01.99a.83.83 0 0 1-.67.48c-.41.05-.83-.1-1.13-.37-.39-.35-.62-.86-.76-1.35a5.58 5.58 0 0 1-.21-1.14h.79s.24-.15.24-.63-.24-.63-.24-.63h-.75c.13-.86.46-1.71.96-2.41.31-.43.71-.82 1.19-1.05.46-.22.95-.26 1.45-.16.49.09 1.02.33 1.23.81.24.53-.01 1.1-.39 1.5-.12.13-.26.25-.41.35.37.25.77.43 1.21.51.75.14 1.56.06 2.25-.27.72-.35 1.36-.98 1.67-1.71.56-1.33.29-2.89-.67-3.97z" fill="#FFC817"/><path d="M1489.5 109.8c-.47-.54-1.08-.98-1.75-1.28-.47-.21-.98-.34-1.6-.41-.3-.03-.59-.05-.87-.05-.53 0-1.03.06-1.5.17-.7.17-1.41.52-2.05 1.01-.04.03-.08.06-.12.1.04-.15.08-.3.12-.44.18-.71.27-1.39.28-2.04.01-.73-.11-1.46-.34-2.18-.34-1.05-.88-2.14-1.67-3.33-.39-.59-.73-1.05-1.07-1.46a.992.992 0 0 0-.77-.36c-.3 0-.58.13-.77.36-.34.41-.69.88-1.07 1.46-.79 1.19-1.33 2.28-1.67 3.33-.23.72-.34 1.45-.34 2.18.01.64.1 1.33.28 2.04l.12.44c-.04-.03-.08-.06-.12-.1-.64-.49-1.35-.84-2.05-1.01-.47-.11-.97-.17-1.5-.17-.29 0-.58.02-.87.05-.62.07-1.13.2-1.6.41-.67.3-1.28.74-1.75 1.28-1.22 1.38-1.55 3.36-.84 5.03.39.92 1.2 1.75 2.15 2.22.59.29 1.27.44 1.97.44.3 0 .6-.03.9-.08.56-.1 1.09-.33 1.59-.67a1.005 1.005 0 0 0 .02-1.65c-.1-.07-.19-.15-.27-.23-.17-.18-.22-.35-.2-.4.02-.05.18-.17.51-.23.1-.02.21-.03.3-.03.19 0 .37.04.52.11.29.14.56.38.81.73.21.29.38.62.52.96-.01.01-.02.01-.03.02-.34.21-.71.72-.71 1.48 0 .68.28 1.36.28 1.36l-.66-.26a.942.942 0 0 0-.3-.07c-.06 0-.12-.01-.18-.01-.3 0-.59.05-.87.15-.66.23-1.17.73-1.41 1.37-.15.4-.19.84-.13 1.33.06.47.2.86.41 1.19.31.49.81.84 1.41 1.01.27.08.57.11.87.11.63 0 1.3-.17 1.89-.48.09-.05.17-.1.26-.15v.01c.01.26.04.52.1.76.09.36.24.69.36.94.22.46.47.9.7 1.3.13.22.27.46.43.72l.94 1.58.94-1.58c.16-.26.3-.5.43-.72.24-.41.49-.85.7-1.3.12-.25.26-.58.36-.94.06-.24.1-.49.1-.76v-.01c.08.05.17.1.26.15.59.31 1.26.48 1.89.48.3 0 .59-.04.87-.11.59-.16 1.09-.52 1.41-1.01.21-.33.35-.72.41-1.19.06-.48.02-.93-.13-1.33-.24-.64-.75-1.14-1.41-1.37-.28-.1-.57-.15-.87-.15-.06 0-.12 0-.18.01-.1.01-.2.03-.3.07l-.66.26s.28-.67.28-1.35v-.01c0-.76-.37-1.26-.71-1.48-.03-.01-.04-.02-.05-.02.13-.35.31-.67.52-.96.25-.35.52-.59.81-.73.16-.08.34-.11.52-.11.1 0 .2.01.3.03.33.06.49.19.51.23.02.05-.04.22-.2.4-.07.08-.16.15-.27.23a1.005 1.005 0 0 0 .02 1.65c.5.34 1.04.56 1.59.67.29.05.6.08.9.08.7 0 1.38-.15 1.97-.44.95-.46 1.76-1.29 2.15-2.22.72-1.68.4-3.65-.82-5.03zm-.09 4.63c-.31.73-.95 1.36-1.67 1.71-.47.23-1.01.34-1.54.34-.24 0-.48-.02-.71-.07a3.16 3.16 0 0 1-1.21-.51c.15-.11.28-.22.41-.35.38-.4.63-.97.39-1.5-.21-.47-.74-.71-1.23-.81-.16-.03-.33-.05-.49-.05-.33 0-.65.07-.95.21-.49.23-.88.62-1.19 1.05-.5.7-.83 1.55-.96 2.41h.75s.24.15.24.63-.24.63-.24.63h-.81c.03.39.1.77.21 1.14.15.49.37 1 .76 1.35.26.24.62.38.98.38.05 0 .1 0 .16-.01.3-.03.55-.2.67-.48.14-.31.11-.67.01-.99h.11c.18 0 .37.03.54.09.37.13.67.41.8.77.1.27.11.56.07.85a2 2 0 0 1-.26.78c-.19.3-.49.49-.83.58-.19.05-.4.08-.6.08-.49 0-1-.14-1.42-.36-.72-.38-1.23-1.11-1.53-1.85-.3-.75-.46-1.54-.53-2.34h-.69c.03.31.06.61.11.92.04.26.09.53.16.78.08.28.19.56.29.84.18.5.37 1.01.43 1.54.04.28.04.56.03.84 0 .18-.03.36-.07.53-.07.26-.18.51-.29.76-.2.42-.43.83-.66 1.23-.16.28-.33.56-.5.84-.17-.28-.34-.56-.5-.84-.23-.4-.46-.81-.66-1.23-.12-.24-.22-.5-.29-.76-.05-.17-.07-.35-.07-.53-.01-.28-.01-.56.03-.84.07-.53.25-1.04.43-1.54.1-.28.21-.55.29-.84.07-.26.12-.52.16-.78.05-.3.08-.61.11-.92h-.69c-.06.8-.23 1.59-.53 2.34-.29.73-.81 1.47-1.53 1.85-.42.22-.93.36-1.42.36-.2 0-.41-.02-.6-.08-.34-.09-.64-.29-.83-.58-.15-.24-.22-.5-.26-.78-.04-.28-.03-.58.07-.85.14-.36.43-.64.8-.77.17-.06.36-.09.54-.09h.11c-.1.31-.13.68.01.99.12.27.37.44.67.48.05.01.1.01.16.01.36 0 .71-.14.98-.38.39-.35.62-.86.76-1.35.11-.37.18-.76.21-1.14h-.8s-.24-.15-.24-.63.24-.63.24-.63h.75c-.13-.86-.46-1.71-.96-2.41-.31-.43-.71-.82-1.19-1.05-.3-.14-.63-.21-.95-.21-.16 0-.33.02-.49.05-.49.09-1.02.33-1.23.81-.24.53.01 1.1.39 1.5.12.13.26.25.41.35-.37.25-.77.43-1.21.51-.23.04-.47.07-.71.07-.53 0-1.07-.11-1.54-.34-.72-.35-1.36-.98-1.67-1.71-.56-1.32-.29-2.89.67-3.97.39-.44.87-.79 1.41-1.02.42-.19.85-.28 1.31-.33.25-.03.51-.04.76-.04.43 0 .85.04 1.26.14.61.15 1.19.45 1.68.83.87.66 1.51 1.58 1.96 2.56.11.25.21.5.3.76.11.35.25.68.35 1.03.13.47.23.94.3 1.42.05.35.08.7.1 1.06h.74v-.15c-.01-1.18-.25-2.35-.57-3.48-.2-.72-.44-1.43-.71-2.13-.12-.33-.27-.65-.4-.98-.19-.48-.36-.98-.49-1.48a7.81 7.81 0 0 1-.25-1.8c-.01-.64.09-1.26.29-1.87.35-1.1.92-2.12 1.55-3.08.31-.47.64-.94 1.01-1.37.36.43.69.9 1.01 1.37.63.96 1.2 1.98 1.55 3.08.19.61.3 1.23.29 1.87-.01.61-.1 1.21-.25 1.8-.13.51-.29 1-.49 1.48-.13.33-.28.65-.4.98-.26.7-.5 1.41-.71 2.13-.32 1.13-.56 2.3-.57 3.48v.15h.74c.02-.35.05-.71.1-1.06.07-.48.17-.95.3-1.42.1-.35.24-.69.35-1.03.08-.26.18-.51.3-.76.44-.98 1.09-1.9 1.96-2.56.49-.38 1.07-.68 1.68-.83.41-.1.84-.14 1.26-.14.26 0 .51.02.76.04.46.05.89.14 1.31.33.53.24 1.02.59 1.41 1.02.93 1.08 1.2 2.64.64 3.97z" fill="#2D2D2D"/><path d="M1419.34 96.37l-3.36-14.14h3.42l1.07 5.83c.31 1.68.61 3.5.84 4.93h.04c.23-1.53.57-3.23.92-4.97l1.2-5.79h3.4l1.13 5.96c.31 1.66.55 3.17.75 4.74h.04c.21-1.57.52-3.23.82-4.91l1.15-5.79h3.25l-3.65 14.14h-3.46l-1.2-6.08c-.27-1.43-.5-2.75-.67-4.36h-.04c-.25 1.59-.48 2.94-.82 4.36l-1.34 6.08h-3.49zM1444.1 90.39h-5.2v3.36h5.81v2.62h-9.02V82.23h8.73v2.62h-5.52v2.94h5.2v2.6zM1446.89 82.23h3.21v11.46h5.62v2.69h-8.83V82.23zM1467.2 95.97c-.59.29-1.91.61-3.63.61-4.89 0-7.41-3.04-7.41-7.07 0-4.82 3.44-7.51 7.72-7.51 1.66 0 2.92.34 3.48.63l-.65 2.54a6.96 6.96 0 0 0-2.69-.52c-2.54 0-4.51 1.53-4.51 4.68 0 2.83 1.68 4.62 4.53 4.62.97 0 2.04-.21 2.67-.46l.49 2.48zM1481.61 89.15c0 4.64-2.81 7.45-6.94 7.45-4.2 0-6.65-3.17-6.65-7.2-.01-4.23 2.7-7.4 6.88-7.4 4.34 0 6.71 3.25 6.71 7.15zm-10.22.19c0 2.77 1.3 4.72 3.44 4.72 2.16 0 3.4-2.06 3.4-4.8 0-2.54-1.22-4.72-3.42-4.72-2.16 0-3.42 2.06-3.42 4.8zM1495.67 90.96c-.06-1.7-.13-3.76-.13-5.81h-.06c-.44 1.8-1.03 3.82-1.57 5.48l-1.72 5.52h-2.5l-1.51-5.48a66.97 66.97 0 0 1-1.28-5.52h-.04c-.09 1.91-.15 4.09-.26 5.85l-.25 5.37h-2.96l.9-14.14h4.26l1.38 4.72c.44 1.64.88 3.4 1.2 5.06h.06c.4-1.64.88-3.5 1.34-5.08l1.51-4.7h4.17l.79 14.14h-3.13l-.2-5.41zM1509.87 90.39h-5.2v3.36h5.81v2.62h-9.02V82.23h8.73v2.62h-5.52v2.94h5.2v2.6zM1518.81 84.92h-3.8v-2.69h10.87v2.69h-3.86v11.46h-3.21V84.92zM1539.91 89.15c0 4.64-2.81 7.45-6.94 7.45-4.2 0-6.65-3.17-6.65-7.2 0-4.24 2.71-7.41 6.88-7.41 4.34.01 6.71 3.26 6.71 7.16zm-10.22.19c0 2.77 1.3 4.72 3.44 4.72 2.16 0 3.4-2.06 3.4-4.8 0-2.54-1.22-4.72-3.42-4.72-2.16 0-3.42 2.06-3.42 4.8zM1502.48 146.01c-1.6-.17-3.19-.3-4.78-.42-.31 1.2-.6 2.41-.89 3.61.61.24 1.22.49 1.84.73-.04.76-.07 1.51-.1 2.26-2.07-.23-4.14-.48-6.19-.71-.04-.71-.09-1.41-.12-2.12.66-.17 1.31-.34 1.98-.51.64-2.13 1.31-4.28 1.95-6.44.64-2.17 1.3-4.37 1.97-6.57.44-1.48.84-2.99 1.19-4.53 1.09-.29 2.2-.57 3.31-.87.06.03.12.06.19.1.95 3.23 1.9 6.5 2.84 9.82.95 3.36 1.89 6.76 2.84 10.2.42.25.86.51 1.3.77-.07.83-.15 1.65-.2 2.48l-7.65-1.2c-.07-.76-.13-1.52-.19-2.28.52-.18 1.06-.35 1.6-.53-.3-1.26-.59-2.53-.89-3.79zm22.13.44c-.04-1.95-.1-3.91-.13-5.85-.03-1.95-.09-3.89-.12-5.84-.74-.36-1.47-.72-2.2-1.08.04-.83.09-1.66.13-2.49 2.3.01 4.6.03 6.91.04.03.94.07 1.88.12 2.81-.8.31-1.6.62-2.4.92-.04 3.74-.1 7.48-.13 11.22-.03 3.73-.12 7.16-.14 10.89-.67.99-2.29 1.66-3.45 1.09-.19-.1-.35-.2-.4.06-.38 1.8 1.42 2.73 2.82 3.29 4.38 1.76 10.06 1.1 15.22 1.37-.58-3.23-1.72-9.52-1.96-10.91-1.59-.35-3.17-.66-4.75-.96-.3 1.56-.61 3.12-.9 4.66.61.38 1.22.77 1.84 1.16-.04.99-.07 1.99-.1 2.98-2.06-.56-4.12-1.11-6.16-1.67-.04-.91-.09-1.83-.12-2.74.65-.15 1.3-.3 1.96-.46.65-2.7 1.31-5.43 1.96-8.21.66-2.8 1.31-5.65 1.96-8.54.44-1.94.84-3.94 1.19-5.97 1.09-.37 2.19-.76 3.29-1.15.06.05.12.09.17.13 2.23 10.29 4.27 20.9 6.33 31.27l2.77 2.17v3.49c-8.28-2.74-18.38 2.68-25.25-5.14-1.63-1.82-3.73-6.5-2.13-8.84.42-.56.99-.88 1.7-.9-.35-.79-.71-1.57-1.05-2.35-.96-2.12-1.94-4.21-2.9-6.24-1.03-2.12-2.07-4.21-3.09-6.27l-.09.03c.01 2.2.04 4.41.06 6.62.01 2.21.04 4.42.07 6.62.74.37 1.49.75 2.23 1.12-.06.86-.12 1.72-.16 2.58-2.27-.44-4.55-.9-6.82-1.35-.04-.79-.09-1.57-.12-2.36.77-.17 1.56-.35 2.35-.53.06-2.78.12-5.55.17-8.33.06-2.78.12-5.57.17-8.35-.8-.34-1.6-.68-2.39-1.01.04-.78.1-1.56.16-2.34 1.59.06 2.91.07 3.96.04 1.05-.03 1.79-.05 2.26-.07.13.47.29.9.45 1.29.16.39.3.73.44 1.02 1.07 2.17 2.16 4.38 3.25 6.64.98 2.12 1.97 4.28 2.96 6.48l.06-.04zm10.91-2.96c-.26 1.34-.51 2.68-.75 4 1.13.17 2.26.36 3.39.56-.26-1.49-.51-2.98-.75-4.46-.3-1.71-.59-3.41-.88-5.09-.03.01-.06.03-.09.04-.31 1.66-.61 3.31-.92 4.95zm-99.95 16.91c1.63-1.82 3.73-6.5 2.13-8.84-.23-.31-.46-.5-.8-.68-1.38-.66-3 .25-3.67 1.6-.21.44-.29.81-.27 1.29.03.44.13.77.37 1.13a1.957 1.957 0 0 0 1.53.87c.73.02 1.1-.15.91.94-.22 1.05-1.55 1.71-2.76 2.19-5.87 2.35-11.92.75-18.15 2.04l-.01-1.4V132.4c.77-.38 1.56-.75 2.35-1.11-.04-1.01-.07-2.03-.1-3.05-2.9.03-6.05.06-8.94.08-.06 1.07-.12 2.13-.16 3.19.73.42 1.46.83 2.2 1.23v28.79c-.7.66-1.4 1.32-2.1 1.99.04 1.05.09 2.09.15 3.13 9.34-3.98 20.36 1.5 27.32-6.25zm-1.03-17.86c0 1.5-.12 3-.38 4.54-.25 1.53-.67 2.95-1.25 4.24-.59 1.31-1.38 2.42-2.33 3.38-.95.95-2.14 1.66-3.54 2.03-1.38.36-2.55.38-3.51.04-.98-.35-1.75-1.02-2.36-2.02-.6-.99-1.04-2.3-1.33-3.92-.29-1.63-.42-3.54-.42-5.71 0-1.73.12-3.47.36-5.23.25-1.75.65-3.33 1.25-4.71.59-1.37 1.39-2.49 2.39-3.33 1-.84 2.26-1.24 3.77-1.25 1.25 0 2.34.3 3.26.88.93.58 1.7 1.39 2.3 2.43.6 1.04 1.05 2.28 1.34 3.74.3 1.46.45 3.08.45 4.89zm-7.49-7.72c-.73.03-1.3.36-1.72 1.02-.41.65-.72 1.44-.93 2.38-.21.94-.33 1.93-.38 2.99-.05 1.05-.09 1.99-.09 2.82 0 1.35.05 2.56.15 3.62.09 1.07.25 1.97.48 2.69.23.72.53 1.26.92 1.6.39.34.9.43 1.51.3.67-.14 1.21-.53 1.63-1.14.41-.6.73-1.34.95-2.2.22-.85.37-1.75.45-2.72.08-.96.12-1.89.12-2.78 0-1.01-.04-2.03-.13-3.05-.09-1.03-.24-1.96-.47-2.78-.23-.83-.56-1.49-.95-2.01-.39-.52-.91-.77-1.54-.74zm22.83-.81c-.65-.28-1.31-.57-1.97-.86.04-.7.1-1.39.16-2.09 2.24-.01 4.49-.01 6.74-.02.04.71.09 1.42.15 2.13l-2.19.72c-.01 1.74-.03 3.49-.04 5.23-.01 1.74-.02 3.49-.04 5.23-.02 1.14-.15 2.13-.36 2.98-.22.85-.52 1.59-.89 2.19a6.5 6.5 0 0 1-1.28 1.53c-.47.41-.98.75-1.5 1-.53.25-1.06.45-1.59.6-.52.16-1.02.27-1.5.35-.36.06-.79.1-1.27.11-.47.01-.96-.04-1.47-.16-.5-.12-.99-.33-1.49-.62s-.93-.7-1.31-1.23-.69-1.2-.93-2.03c-.24-.82-.35-1.82-.35-3v-5.88-5.88c-.7-.29-1.38-.59-2.07-.9.04-.75.1-1.51.16-2.27 2.72-.02 5.45-.03 8.17-.04l.09 2.25c-.71.26-1.41.52-2.11.78v10.34c0 .66.04 1.29.13 1.88.09.6.25 1.1.51 1.53.25.42.6.73 1.05.94.45.2 1.03.26 1.76.16.63-.08 1.15-.29 1.59-.6.44-.31.8-.71 1.08-1.23.28-.51.47-1.11.6-1.82.12-.7.17-1.46.17-2.29v-4.53-4.5zm15.29 16.66l-8.54.54c-.06-.66-.1-1.32-.15-1.99.73-.32 1.46-.64 2.19-.97v-7.19-7.2c-.73-.27-1.44-.55-2.16-.83.04-.66.1-1.33.16-2 2.84 0 5.68-.01 8.52-.01l.09 2.05c-.77.23-1.54.45-2.3.68v14.26c.76.18 1.53.36 2.3.54-.03.71-.08 1.42-.11 2.12zm8.85-20.1c.22 0 .48.02.79.04a9.62 9.62 0 0 1 2.03.41c.35.11.68.26.99.43.15-.29.29-.59.45-.88h1.12v6.76c-.45.08-.9.16-1.36.24-.31-.96-.61-1.92-.92-2.88-.32-.21-.74-.39-1.25-.52-.52-.14-1.01-.2-1.43-.2-.54 0-.97.12-1.3.33-.33.22-.49.6-.49 1.15 0 .26.12.54.36.82.25.28.57.57.96.86.4.29.86.59 1.36.9.51.31 1.02.62 1.54.95.5.31.95.64 1.38.97.44.34.81.72 1.15 1.15.33.43.6.94.79 1.52.19.59.28 1.27.28 2.05 0 .76-.1 1.52-.31 2.29-.2.77-.55 1.46-1.05 2.06-.5.61-1.17 1.09-2.01 1.45-.83.36-1.88.52-3.13.52-.32 0-.67 0-1.06-.04-.39-.03-.79-.08-1.17-.13-.39-.06-.77-.13-1.14-.22-.35-.09-.67-.2-.95-.33-.17.27-.35.54-.52.8-.42.01-.83.01-1.24.02v-3.89-3.89l1.31-.27c.31 1.13.61 2.25.92 3.37.22.19.49.36.8.49.32.14.64.24.98.33.32.08.64.14.95.19.31.04.57.06.8.05.51-.01.9-.07 1.19-.18.29-.11.52-.27.68-.47.16-.19.26-.4.31-.61.04-.22.07-.43.07-.64 0-.3-.09-.59-.25-.86s-.38-.52-.66-.76a6.5 6.5 0 0 0-.98-.7c-.37-.22-.78-.47-1.22-.72-.58-.34-1.15-.69-1.72-1.06-.57-.37-1.07-.8-1.51-1.28-.45-.48-.81-1.01-1.08-1.61-.27-.59-.39-1.29-.39-2.09 0-.74.1-1.47.32-2.18.22-.71.56-1.34 1.03-1.91.47-.56 1.08-1 1.84-1.34.76-.32 1.68-.49 2.74-.49zm17.3 20.76c-2.86-.2-5.71-.41-8.55-.59-.04-.65-.09-1.3-.13-1.95.73-.25 1.46-.48 2.19-.72v-7.12-7.12c-.73-.29-1.44-.57-2.16-.86.04-.64.1-1.3.16-1.95 2.83.01 5.67.01 8.51.02.03.71.06 1.42.1 2.12-.77.22-1.54.44-2.3.65v14.52c.76.27 1.53.55 2.3.82-.05.74-.09 1.46-.12 2.18zm7.81-11.51c-.26 1.03-.51 2.05-.76 3.06 1.14.07 2.27.15 3.42.25-.26-1.11-.51-2.21-.76-3.31-.31-1.27-.61-2.53-.9-3.79l-.09.03c-.29 1.26-.6 2.51-.91 3.76z" fill="#fff"/></g><defs><filter id="filter0_d" x="-4" y="-2" width="1608" height="408" filterUnits="userSpaceOnUse" color-interpolation-filters="sRGB"><feFlood flood-opacity="0" result="BackgroundImageFix"/><feColorMatrix in="SourceAlpha" values="0 0 0 0 0 0 0 0 0 0 0 0 0 0 0 0 0 0 127 0"/><feOffset dy="2"/><feGaussianBlur stdDeviation="2"/><feColorMatrix values="0 0 0 0 0 0 0 0 0 0 0 0 0 0 0 0 0 0 0.08 0"/><feBlend in2="BackgroundImageFix" result="effect1_dropShadow"/><feBlend in="SourceGraphic" in2="effect1_dropShadow" result="shape"/></filter><linearGradient id="paint0_linear" x1="1257.65" y1="202.46" x2="1257.65" y2="172.817" gradientUnits="userSpaceOnUse"><stop offset=".003" stop-color="#C2B69C"/><stop offset=".505" stop-color="#E3DFD7"/><stop offset=".797" stop-color="#E6E6E6"/></linearGradient><linearGradient id="paint1_linear" x1="1256.92" y1="199.021" x2="1267.66" y2="217.613" gradientUnits="userSpaceOnUse"><stop stop-color="#E3DFD7"/><stop offset=".997" stop-color="#C2B69C"/></linearGradient><linearGradient id="paint2_linear" x1="1254.16" y1="222.992" x2="1294.32" y2="222.992" gradientUnits="userSpaceOnUse"><stop offset=".005" stop-color="#CCC1AB"/><stop offset=".182" stop-color="#D0C6B4"/><stop offset=".488" stop-color="#D3CBBC"/><stop offset=".997" stop-color="#D4CDBF"/></linearGradient><linearGradient id="paint3_linear" x1="1221.73" y1="200.632" x2="1234.45" y2="200.632" gradientUnits="userSpaceOnUse"><stop stop-color="#E3DFD7"/><stop offset=".997" stop-color="#C2B69C"/></linearGradient><linearGradient id="paint4_linear" x1="1233.11" y1="222.826" x2="1233.11" y2="203.311" gradientUnits="userSpaceOnUse"><stop offset=".003" stop-color="#C2B69C"/><stop offset="1" stop-color="#E3DFD7"/></linearGradient><linearGradient id="paint5_linear" x1="1235.11" y1="225.962" x2="1260.59" y2="225.962" gradientUnits="userSpaceOnUse"><stop offset=".003" stop-color="#C2B69C"/><stop offset="1" stop-color="#E3DFD7"/></linearGradient><linearGradient id="paint6_linear" x1="1245.3" y1="215.981" x2="1310.09" y2="215.981" gradientUnits="userSpaceOnUse"><stop offset=".003" stop-color="#389CC7"/><stop offset="1" stop-color="#2E7EC9"/></linearGradient><linearGradient id="paint7_linear" x1="1274.32" y1="205.657" x2="1306.49" y2="205.657" gradientUnits="userSpaceOnUse"><stop offset=".003" stop-color="#389CC7"/><stop offset="1" stop-color="#2E7EC9"/></linearGradient><linearGradient id="paint8_linear" x1="1277.42" y1="212.705" x2="1262.93" y2="223.551" gradientUnits="userSpaceOnUse"><stop stop-color="#2E7EC9"/><stop offset=".997" stop-color="#389CC7"/></linearGradient><linearGradient id="paint9_linear" x1="1190.63" y1="197.176" x2="1202.66" y2="197.176" gradientUnits="userSpaceOnUse"><stop stop-color="#E3DFD7"/><stop offset=".997" stop-color="#C2B69C"/></linearGradient><linearGradient id="paint10_linear" x1="1190.54" y1="206.862" x2="1217.99" y2="206.862" gradientUnits="userSpaceOnUse"><stop stop-color="#E3DFD7"/><stop offset=".997" stop-color="#C2B69C"/></linearGradient><linearGradient id="paint11_linear" x1="1199.15" y1="207.92" x2="1221.93" y2="207.92" gradientUnits="userSpaceOnUse"><stop offset=".203" stop-color="#E6E6E6"/><stop offset=".495" stop-color="#E3DFD7"/><stop offset=".997" stop-color="#C2B69C"/></linearGradient><linearGradient id="paint12_linear" x1="1218.31" y1="228.998" x2="1218.31" y2="211.44" gradientUnits="userSpaceOnUse"><stop stop-color="#E3DFD7"/><stop offset=".997" stop-color="#C2B69C"/></linearGradient><linearGradient id="paint13_linear" x1="1203.49" y1="199.06" x2="1212.27" y2="199.06" gradientUnits="userSpaceOnUse"><stop offset=".203" stop-color="#E6E6E6"/><stop offset=".495" stop-color="#E3DFD7"/><stop offset=".997" stop-color="#D4CDBF"/></linearGradient><linearGradient id="paint14_linear" x1="1224.07" y1="226.571" x2="1227.42" y2="226.571" gradientUnits="userSpaceOnUse"><stop stop-color="#E3DFD7"/><stop offset=".997" stop-color="#C2B69C"/></linearGradient><linearGradient id="paint15_linear" x1="1171.35" y1="197.146" x2="1185.95" y2="197.146" gradientUnits="userSpaceOnUse"><stop stop-color="#E3DFD7"/><stop offset=".997" stop-color="#C2B69C"/></linearGradient><linearGradient id="paint16_linear" x1="1161.44" y1="185.133" x2="1187.05" y2="185.133" gradientUnits="userSpaceOnUse"><stop offset=".203" stop-color="#E6E6E6"/><stop offset=".495" stop-color="#E3DFD7"/><stop offset=".997" stop-color="#C2B69C"/></linearGradient><linearGradient id="paint17_linear" x1="1168.82" y1="177.391" x2="1173.93" y2="177.391" gradientUnits="userSpaceOnUse"><stop offset=".203" stop-color="#E6E6E6"/><stop offset=".495" stop-color="#E3DFD7"/><stop offset=".997" stop-color="#D4CDBF"/></linearGradient><clipPath id="clip0"><path fill="#fff" transform="translate(1408 82)" d="M0 0h140.29v86.15H0z"/></clipPath></defs></svg>