<svg width="375" height="156" fill="none" xmlns="http://www.w3.org/2000/svg" viewBox="0 0 375 156"><path d="M375 0H0v156h375V0z" fill="#F5FCFF"/><mask id="a" maskUnits="userSpaceOnUse" x="0" y="0" width="375" height="156"><path transform="matrix(-1 0 0 1 375 0)" fill="#F5FCFF" d="M0 0h375v156H0z"/></mask><g mask="url(#a)"><path d="M481.001-5.706L374.813.097 176.849 20.841l-36.882 21.902 167.705 97.683 140.778 13.258 32.551-159.39z" fill="#00AD00"/><path d="M437.509-7.297S75.411 4.265 51.072 44.358C21.095 93.745 318.26 226.2 318.26 226.2l250.865-59.442s-397.638-99.299-379.744-129.2C208.081 6.31 578.295-2.295 578.295-2.295L437.509-7.297z" fill="#fff"/><path d="M346.422 206.702S52.672 89.192 79.234 44.358C103.14 4.01 465.671-5.998 465.671-5.998l81.019 1.535S176.252 6.173 157.777 37.553c-19.75 33.549 379.744 144.365 379.744 144.365l-191.099 24.784z" fill="#004EBB"/></g><path d="M141.165 92.852c-1.585.91-1.549 2.325.085 3.146l15.129 9.682 80.111 40.308c1.634.821 4.327.801 6.123.441 6.814-1.383 16.86-4.493 22.215-7.077 1.645-.797 4.027-2.322 5.5-3.405 2.479-1.82 6.62-5.747 8.064-8.72.796-1.646 1.015-3.021-.619-3.846l-98.435-49.537c-1.634-.82-4.267-.752-5.852.158l-32.321 18.85z" fill="#0032A5"/><path d="M143.499 75.43c-.494-2.843 1.5-4.885 1.5-4.885s1.124-3.296 4.089-6.904c2.964-3.603 14.081-9.997 17.236-11.311 3.15-1.315 6.665-1.476 8.392-1.238 1.73.239 9.811 2.787 9.811 2.787s9.787.78 17.911 4.012c8.125 3.23 16.929 8.088 23.452 11.562 3.802 2.022 10.77 7.316 15.926 11.376l.603-.384s-.502-2.374-.388-2.795c.113-.424 1.326-3.397 1.326-3.397s1.48 1.5 1.933 2.742c.453 1.242-.327 3.114-.57 4.024-.138.518-.445 1.132-.679 1.57-.004-.005-.013-.009-.017-.013a370.392 370.392 0 0 1 4.251 3.442c8.974 3.522 20.536 13.499 20.536 13.499 2.208.113 3.733 4.279 5.322 7.118 1.594 2.843 1.509 4.756 1.464 5.589-.048.833 1.06 12.759-8.618 19.46-9.682 6.697-21.232 8.194-26.376 7.846a25.763 25.763 0 0 1-5.852-1.088c-.202-.966-.388-1.872-.429-2.503-.311-5.193-4.933-11.401-9.665-13.577-6.127-2.818-8.982.045-8.667 5.242.033.513.186 1.326.393 2.18l-46.674-23.505c-.206-1.108-.429-2.245-.538-2.932-.768-4.728-4.457-10.054-8.566-12.517-6.567-3.935-8.529-.198-7.825 4.954v.008c-2.329-2.119-6.196-5.666-8.173-7.671-2.953-2.99-2.722-7.276-2.944-8.796-.223-1.521 1.836-3.895 1.836-3.895z" fill="#14AFEB"/><path d="M141.659 79.325c.222 1.52-.008 5.807 2.944 8.796 1.981 2.006 5.844 5.552 8.173 7.671v-.008c-.708-5.152 1.258-8.893 7.825-4.954 4.109 2.463 7.802 7.79 8.566 12.517.113.687.336 1.824.538 2.932l46.674 23.505c-.207-.854-.364-1.667-.393-2.18-.311-5.197 2.544-8.06 8.667-5.241 4.732 2.175 9.354 8.383 9.665 13.576.037.631.227 1.537.429 2.503 1.472.457 3.478.926 5.852 1.088 5.144.348 16.694-1.148 26.376-7.846 8.784-6.078 8.683-16.459 8.626-18.955-.813 4.271-2.968 9.617-8.877 13.682-6.106 4.202-10.87 6.462-20.884 6.867-5.9.234-9.855-1.549-12.072-2.386l-.028-.441c2.216.837 6.123 1.812 12.023 1.577 10.018-.4 14.778-2.665 20.884-6.863 5.949-4.092 8.093-9.479 8.894-13.766.028.15.048.291.068.429.021-.971-.105-2.73-1.48-5.189-.445-.797-.886-1.695-1.334-2.58-1.036 1.759-1.711.893-1.711.893-.053 1.917-.841 4.599-1.331 5.496-.489.898-2.018 4.049-6.288 7.094-4.267 3.045-9.112 4.655-11.882 5.544-2.77.89-5.407.785-5.407.785-3.252 1.634-6.572.227-6.572.227-.772-1.517-4.072-3.341-6.547-4.574-1.343-.672-3.713-2.059-5.86-3.422-1.804-1.144-2.864-1.905-2.864-1.905-5.39-3.457-7.489-6.276-7.489-6.276-4.101-7.146-11.85-17.2-11.85-17.2-5.641-6.968-16.278-11.736-23.407-15.238-5.088-2.5-12.723-2.204-19.133-2.435l-7.595-.396s-7.704-2.059-7.854-6.111c-1.424 2.293-2.006 3.996-2.006 3.996s-1.994 2.046-1.5 4.885c0 0 3.284 6.98 6.608 11.045 0 0-6.079-4.797-8.295-8.263-.133.397-.202.78-.153 1.12zm61.107 23.027c1.99-.453 3.171-1.165 3.927-.493l2.212 2.014s1.157 1.128.34 1.662-3.539.699-5.775.833c-2.237.133-2.411-1.897-2.455-2.224-.049-.332-.235-1.339 1.751-1.792z" fill="#0082C8"/><path d="M173.434 76.409c.416-.07.833-.114 1.249-.138 6.297-.38 12.667 3.607 14.854 4.829 3.515 1.957 10.111 5.504 13.921 9.948 4.658 5.432 3.558 4.99 10.607 17.047 0 0-1.997-1.007-4.929-2.5.036-.02.076-.036.109-.06.817-.534-.34-1.663-.34-1.663l-2.212-2.014c-.756-.667-1.933.041-3.911.49-5.152-2.645-10.834-5.597-14.179-7.445-7.239-4.008-25.797-14.378-25.797-14.378s3.939-3.029 10.628-4.117z" fill="#0082C8"/><path d="M219.719 122.702l2.16-1.282c.837.17 1.759.477 2.774.946 4.732 2.176 9.354 8.384 9.666 13.577.036.63.226 1.536.428 2.503h.008l-3.805 2.265c-1.302.784-3.134.752-5.209-.284-4.287-2.143-7.991-7.752-8.278-12.532-.158-2.601.728-4.421 2.256-5.193z" fill="#192D4B"/><path d="M221.879 121.416l-2.16 1.282c-1.533.773-2.418 2.592-2.261 5.193.029.497.098 1.003.199 1.512l-1.278.38c-.207-.853-.364-1.666-.393-2.179-.262-4.332 1.683-7.041 5.893-6.188z" fill="#004687"/><path d="M217.459 127.891c.287 4.78 3.995 10.393 8.278 12.533 4.287 2.139 7.53 0 7.243-4.78-.287-4.781-3.995-10.394-8.282-12.533-4.283-2.14-7.526 0-7.239 4.78z" fill="#192D4B"/><path d="M217.916 128.343c.267 4.408 3.684 9.585 7.635 11.558 3.955 1.974 6.944.004 6.681-4.408-.267-4.408-3.684-9.584-7.639-11.558-3.952-1.974-6.94 0-6.677 4.408z" fill="#192D4B"/><path d="M219.756 129.359c.198 3.284 2.742 7.134 5.682 8.606 2.94 1.468 5.164 0 4.97-3.28-.198-3.284-2.742-7.134-5.682-8.602-2.944-1.476-5.169-.004-4.97 3.276z" fill="#0082C8"/><path d="M223.881 130.944c.056.959.8 2.079 1.658 2.512.857.428 1.508 0 1.448-.959-.057-.958-.801-2.083-1.659-2.511-.857-.429-1.504 0-1.447.958zM155.623 90.417l1.743-1.04c.922.24 1.998.709 3.236 1.453 4.109 2.463 7.801 7.789 8.565 12.516.113.688.336 1.824.538 2.932l.409.207-3.264 1.941c-1.302.785-3.134.752-5.209-.283-4.287-2.14-7.995-7.753-8.282-12.533-.154-2.6.732-4.416 2.264-5.193z" fill="#192D4B"/><path d="M153.359 95.61c.287 4.78 3.995 10.394 8.282 12.533 4.287 2.139 7.53.004 7.243-4.78-.287-4.78-3.996-10.394-8.282-12.533-4.287-2.14-7.531 0-7.243 4.78z" fill="#192D4B"/><path d="M153.816 96.063c.266 4.408 3.684 9.585 7.635 11.562 3.955 1.974 6.944 0 6.681-4.408-.267-4.408-3.684-9.584-7.64-11.558-3.951-1.978-6.939-.004-6.676 4.404z" fill="#192D4B"/><path d="M155.655 97.078c.199 3.28 2.742 7.134 5.682 8.606 2.945 1.468 5.165 0 4.971-3.28-.198-3.283-2.742-7.133-5.682-8.606-2.945-1.472-5.169-.004-4.971 3.28z" fill="#0082C8"/><path d="M159.752 98.647c.061.975.817 2.12 1.691 2.556.873.437 1.537 0 1.476-.974-.061-.975-.813-2.12-1.691-2.556-.873-.437-1.532 0-1.476.974z" fill="#192D4B"/><path d="M157.366 89.382l-1.743 1.04c-1.532.772-2.418 2.592-2.264 5.188 0 .02.004.045.004.065l-.587.117v-.008c-.574-4.181.615-7.429 4.59-6.402z" fill="#004687"/><path d="M219.723 80.683c4.809-3.364 10.074-7.857 10.074-7.857s8.331 5.544 11.049 7.716c4.068 3.251 7.429 5.476 7.429 5.476.449.178.91.372 1.371.578 3.923 2.972-2.556 9.184-7.555 12.958-4.998 3.769-13.184 8.128-18.049 9.038-.501.093-.97.15-1.415.178-3.854.231-5.496-1.828-5.496-1.828-3.733-6.543-11.898-17.39-11.898-17.39s9.682-5.504 14.49-8.869zM156.21 69.538c1.637-2.48 8.072-7.118 11.436-9.265 2.407-1.537 6.301-4.117 10.972-5.484a22.055 22.055 0 0 1 4.902-.878c.331-.02.667-.032 1.007-.032 0 0 4.812.384 10.486 1.727 0 0-7.809 4.287-11.315 6.762-3.507 2.47-10.272 7.886-11.037 8.642 0 0-1.221 1.504-2.487 1.577-1.266.077-14.013-.586-14.013-.586s-1.589.016.049-2.463z" fill="#0082C8"/><path d="M220.002 81.08c4.141-2.896 8.667-6.67 9.827-7.644 1.525 1.02 8.331 5.59 10.705 7.49 4.04 3.227 7.433 5.48 7.466 5.5l.044.028.049.02c.048.02.105.045.157.065.413.8.72 1.856.34 2.912-.772 2.156-4.715 6.212-8.549 8.743-3.705 2.443-10.766 8.097-20.112 9.836-1.516-.425-2.265-1.209-2.402-1.367-3.288-5.747-10.013-14.854-11.578-16.957 2.022-1.165 9.896-5.715 14.053-8.627zM188.017 80.954c.433.239.813.453 1.132.62-1.197 3.243-2.341 9.3-2.746 11.55a11779.57 11779.57 0 0 1-14.235-7.931l2.616-8.436c5.173-.284 10.41 2.628 13.233 4.197zM173.514 76.89c.106-.016.211-.029.32-.045l-2.601 7.826c-3.409-1.901-6.244-3.486-7.497-4.186 1.346-.861 4.8-2.787 9.778-3.595zM170.141 72.102c.858-.053 1.832-1.028 2.136-1.4l.016-.02.02-.016c.809-.805 7.474-6.414 11.097-8.699 7.118-4.49 9.29-5.387 11.199-6.454-5.047-1.165-9.322-1.57-9.993-1.626-1.169.161-2.686.493-4.68.93-4.861 1.197-8.99 3.923-11.651 5.625l-.38.243c-3.781 2.414-9.783 6.839-11.291 9.12-.821 1.241-.643 1.613-.639 1.625.036.07.174.081.174.081h.032c4.404.235 12.982.651 13.96.59z" fill="#94DAEE"/><path d="M272.661 115.318s-1.585-6.645-1.699-7.369c-.113-.724 1.084-5.023-2.03-8.42 2.006.239 3.446 3.814 4.902 6.56.101 2.05.153 6.64-1.173 9.229zM253.492 128.469s-1.844-1.783-3.462-3.008c-1.614-1.226-2.665-1.602-4.748-1.626-2.079-.02-5.306.073-6.891-.247-1.585-.319-2.871-.562-3.883-.695-1.011-.138-1.844-.158-1.164.974.679 1.132 1.52 3.547 4.008 4.238 2.487.692 3.829.789 6.939.813 3.11.029 9.201-.449 9.201-.449z" fill="#E1E8EC"/><path d="M258.466 127.689c.433-.025.866-.13 1.29-.308l.348-.145c1.945-.821 4.36-1.844 6.519-3.664 1.848-1.561 3.078-2.77 3.757-3.701.599-.821.846-1.686.748-2.649-.093-.905-.392-3.676-.566-5.249-.72 1.108-1.998 2.981-3.377 4.538-1.168 1.318-3.631 3.716-7.02 4.994-.235.089-.469.182-.704.279-.23.093-.461.186-.691.271a79.81 79.81 0 0 1-6.758 2.196l4.493 2.993c-.004.004.801.514 1.961.445zM243.608 136.343c1.354-.166 4.853-.502 6.527-.797.275-.048.546-.141.651.623.109.764-.954.922-.954.922-1.468.218-2.839.392-3.725.437 0 0-2.649.19-2.896.202-.307.012-.534-.162-.534-.162-.125-.485.081-1.12.931-1.225zM258.721 133.641l.335.829s.32.465 1.266-.004c.943-.469 4.813-2.552 7.053-4.226 1.662-1.242 3.175-2.883 3.458-3.239.283-.356.546-1.262.558-1.59.012-.327.202-.958-.526-.113s-3.324 3.053-5.059 4.206c-1.735 1.153-6.082 3.341-6.822 3.624.004.004-.405.161-.263.513z" fill="#006399"/><path d="M144.878 70.682s-.474 1.08.477 2.172c.95 1.092 3.065 2.968 3.065 2.968s.534.21-.445 1.4c-.978 1.189-1.1 1.197-1.1 1.197s-.145.17-.38.182c-.178.012-.404-.07-.655-.385-.582-.727-1.767-1.852-2.337-2.79-.425-2.406.946-4.242 1.375-4.744z" fill="#0082C8"/><path d="M206.693 101.858c-.66-.582-1.638-.117-3.195.308-4.364-2.237-9.18-4.732-12.658-6.605.056-4.38.408-10.478.55-12.828 5.225 2.811 9.24 5.771 11.691 8.63 3.054 3.564 3.608 4.57 5.666 8.323.008.013.012.025.02.037l-.157 3.878-1.917-1.743z" fill="#94DAEE"/><path d="M216.783 99.89l4.837 2.066c.178-1.185.655-2.916.117-6.026-.53-3.057-2.075-5.184-2.075-5.184s.061-2.528-1.007-5.529a5.364 5.364 0 0 0-1.5-2.244c-.845.542-1.739 1.1-2.641 1.654l2.269 15.262z" fill="#D4CDBF"/><path d="M229.522 85.124s.271-2.337-.796-5.334c-.607-1.703-1.634-2.766-2.496-3.405-1.832 1.46-4.08 3.195-6.224 4.7a82.333 82.333 0 0 1-2.843 1.888 5.376 5.376 0 0 1 1.501 2.244c1.067 3.001 1.007 5.529 1.007 5.529l9.851-5.622z" fill="url(#paint0_linear)"/><path d="M221.737 95.934c-.53-3.057-2.075-5.184-2.075-5.184l9.856-5.622s1.25 1.901 2.087 4.57c.534 1.699.736 4.821.558 6.002l-10.543 6.26c.178-1.185.659-2.92.117-6.026z" fill="url(#paint1_linear)"/><path d="M241.125 97.439c-2.285-.93-5.225-1.86-6.334-2.083-1.945-.392-2.64.328-2.64.328l-10.487 6.224c.218 1.132 2.447 2.891 4.703 4.238 6.164-2.439 10.879-6.111 13.674-7.955.364-.234.724-.49 1.084-.752z" fill="url(#paint2_linear)"/><path d="M208.513 93.196l3.575-2.038s.23-2.006-.684-4.578l-.024-.057c-2.415 1.44-4.522 2.653-5.431 3.18.469.626 1.403 1.888 2.564 3.493z" fill="url(#paint3_linear)"/><path d="M212.087 91.158l-3.575 2.038a276.644 276.644 0 0 1 5.197 7.417l.647-.384c.15-1.015-.02-3.692-.477-5.148-.72-2.289-1.792-3.923-1.792-3.923z" fill="url(#paint4_linear)"/><path d="M217.405 106.445c3.406-2.063 7.268-4.542 7.369-5.027.174-.829-7.045-3.139-8.901-3.494-1.857-.352-2.52.295-2.52.295l-.922.518c1.828 2.652 3.656 5.427 4.974 7.708z" fill="url(#paint5_linear)"/><path d="M230.04 90.034s2.794.736 4.546 2.147c1.751 1.412 4.064 4.117 4.064 4.117l-1.687 2.633s-5.896-2.888-7.522-3.761c-1.625-.874-3.029-3.547-3.029-3.547l3.628-1.59z" fill="#014B89"/><path d="M228.054 90.875s.922 1.553.854 2.014c-.069.461.299 1.343.299 1.343s2.831 2.155 3.619 3.267c.789 1.117 1.549 2.851 1.335 2.868-.214.016-3.223 1.229-3.223 1.229s-2.645-2.81-4.21-3.595c-1.565-.78-3.919-2.273-4.489-4.877l5.815-2.249z" fill="#1A64A3"/><path d="M238.075 84.93s.017.004.041.004c.186.028.954.138 1.298.219.392.093.619-.029 1.116.545.498.579.473.967.453 1.355-.024.389-.153.967-.279 1.1-.125.134-.178.267-.36.235-.182-.032-.263-.126-.251-.113.009.012-.242-.004-.226-.267.016-.26.158-.825.158-.825l-.146-.465s-.36-.247-.465-.215c-.105.033-1.108.081-1.108.081s-1.403.101-1.933-.036c-.534-.138-5.071-1.274-5.492-1.553-.417-.283-1.998-2.314-2.661-2.977-.663-.663-.902-2.887-1.286-3.005-.38-.113-1.262-.056-1.262-.056l-.667-1.343s1.86-1.868 3.037-.914c1.177.95 1.569 1.52 1.763 1.776.194.254 2.18 3.805 2.73 4.21.554.404 4.149 1.981 4.715 1.973.405 0 .825.271.825.271z" fill="#F2A983"/><path d="M227.933 80.826s1.933 2.3 2.519 2.685c.583.384 1.351-.51 1.206 0-.146.51.036 1.023.238 1.132.202.11 4.505 1.19 4.801 1.278.295.09 1.399-.667 1.961-.327a.924.924 0 0 1 .425.946c-.328.024-.773.045-.773.045s-1.403.1-1.933-.037c-.534-.137-5.071-1.274-5.492-1.553-.416-.283-1.998-2.313-2.661-2.976-.194-.194-.352-.522-.489-.89l.198-.303z" fill="#D88F69"/><path d="M226.295 76.43s1.189-.474 2.063.29c.873.769 2.527 3.212 2.527 3.212s-1.698 2.636-2.98 2.98c-1.286.344-1.61-6.483-1.61-6.483z" fill="#F6C100"/><path d="M227.136 79.681c.226-.465 1.476-.388 1.808.567.198.578.441 1.104.602 1.427-.521.574-1.116 1.1-1.642 1.242-.538.141-.958-.955-1.274-2.281.235-.45.433-.813.506-.955z" fill="#DDA800"/><path d="M223.577 80.652c1.788.328 3.013.243 3.264-.732.251-.975-.813-3.021-.813-3.021l-.32-.101a142.39 142.39 0 0 1-3.494 2.685c.178.514.562 1.023 1.363 1.169z" fill="#D88F69"/><path d="M227.832 86.204c-.028-.368-.235-2.086-.235-2.086.332-.445.874-1.679.773-3.709-.101-2.03-1.395-3.822-1.395-3.822s-.478-.097-.866-.109c-.137.11-.283.223-.424.336.012.012.016.024.028.036.566.643.942 2.41-.17 3-.991.527-1.864-.064-2.402-.606l-.263-.263c-.95.716-1.921 1.428-2.875 2.095-.437.308-.914.631-1.424.967.17 2.09 2.285 5.637 2.718 6.35.501.824 1.181 5.378 1.181 5.378.675-.57 3.312-.947 5.5-1.61 2.192-.663 2.394-2.171 2.394-2.171s-.538-.292-.87-.62c-.327-.323-1.638-2.798-1.67-3.166z" fill="#F6C100"/><path d="M226.283 77.918c.74-.182.522-.813.526-1.278.004-.239.036-.51.068-.777-.764.615-1.621 1.294-2.531 1.998.695.166 1.435.182 1.937.057z" fill="#F2A983"/><path d="M226.643 77.744c.299-.271.166-.74.17-1.104.004-.239.036-.51.068-.777-.016.012-.028.025-.044.037.028.15.032.34-.182.36-.235.02-.093.428-.101.691 0 .142.028.49.089.793z" fill="#D88F69"/><path d="M221.911 84.287c-.105 1.096-.036 1.678.453 2.596.485.918.421 1.796 1.266 2.285.845.49 1.589-.028 2.447 0 .857.024.788-.012.695.566-.093.575-.044.922.672.716.719-.21 1.73-.546 1.532-.069-.157.385-2.099 1.517-2.721 2.253-.579.141-1.145.271-1.659.396a55.069 55.069 0 0 1-2.313-.469c-.238-1.411-.651-3.607-.982-4.157-.462-.76-2.662-4.004-2.544-6.006l2.374-.279c0-.008.885 1.072.78 2.168z" fill="#DDA800"/><path d="M234.194 94.337c.457 0 1.002-.142 1.609-.437 2.095-1.023 4.125-3.526 4.53-5.593.287-1.468-.32-2.317-1.452-2.317-.457 0-1.003.141-1.61.437-2.095 1.023-4.125 3.526-4.529 5.593-.287 1.468.323 2.317 1.452 2.317zm-.53-2.144c.339-1.718 2.111-3.894 3.874-4.755.453-.223.87-.336 1.201-.336.259 0 .445.069.558.206.174.21.215.627.118 1.137-.34 1.718-2.112 3.894-3.875 4.756-.453.222-.869.34-1.201.34-.259 0-.445-.07-.558-.207-.174-.214-.218-.63-.117-1.14z" fill="#39464A"/><path d="M248.591 89.451c.376-1.043.076-2.086-.328-2.883-3.005-.032-9.443 4.497-15.768 8.266-6.127 3.652-12.517 8.954-15.125 11.55.052.093.109.186.157.275.138.158.886.943 2.403 1.367 9.346-1.739 16.407-7.388 20.111-9.835 3.834-2.528 7.777-6.584 8.55-8.74z" fill="url(#paint6_linear)"/><path d="M247.017 91.947c-.339-2.014-1.751-3.818-1.751-3.818s-3.102-2.297-8.088 0c-4.987 2.297-5.747 7.239-5.747 7.239v.097c2.944 1.395 6.499 2.337 9.775 1.909 2.232-1.634 4.388-3.668 5.811-5.427z" fill="url(#paint7_linear)"/><path d="M224.475 100.124s-.461-2.867 2.819-4.626c3.28-1.76 5.88-.441 5.88-.441s4.141 2.835-.91 5.565c-5.047 2.729-7.789-.498-7.789-.498z" fill="url(#paint8_linear)"/><path d="M221.798 93.075c.251.275 1.108.955 1.278 1.408.17.453.384 1.14.307 1.605-.077.47-.04 1.076-.287 1.145-.247.069-.364.02-.364.02s-.02.32-.34.307c-.315-.012-.275-.141-.275-.141s-.258.198-.4.154c-.142-.045-.202-.542-.202-.542s-.227-1.17-.271-1.27c-.041-.101-.251-.66-.259-.465-.008.19.202.926.247 1.172.044.247.214.66.068.692-.145.028-.481-.376-.582-.724-.101-.348-.51-1.144-.518-1.383-.008-.234.126-1.217-.052-1.468-.178-.25-2.022-1.97-2.499-3.03-.478-1.063-.486-1.083-.567-1.564-.068-.417.146-.959.146-.959s.243-2.855.639-3.623c.396-.769.619-1.258.639-1.493.02-.234.206-1.168.942-1.261.736-.093 2.156 1.189 2.196 1.698.041.51-.57 1.064-.833 1.666-.263.603-.857 4.049-.857 4.049s1.387 3.506 1.844 4.007z" fill="#F2A983"/><path d="M223.096 97.233c-.246.068-.364.02-.364.02s-.02.32-.339.307c-.316-.012-.275-.141-.275-.141s-.259.198-.401.153c-.141-.044-.202-.541-.202-.541s-.166-.854-.243-1.165c.061-.194.579-.037.579-.037s.109-.1.348-.206c.238-.105.546-.04.546-.04s.137-.04.497-.166a.458.458 0 0 1 .101-.024c.049.25.073.493.04.7-.076.46-.04 1.07-.287 1.14zM220.467 95.805c.259 0 .502.028.619.04.057.24.122.49.146.615.044.247.214.66.069.692-.146.028-.482-.376-.583-.724-.044-.15-.149-.384-.251-.623z" fill="#D88F69"/><path d="M221.778 81.89c-.207-.688-.615-1.088-1.048-1.323-.242.174-.485.348-.724.514-.614.428-1.314.897-2.058 1.383-.231 1.051-.174 2.022-.174 2.022 1.646-.38 3.349.643 3.349.643s1.079-1.828.655-3.24z" fill="#F6C100"/><path d="M196.352 85.69a63.015 63.015 0 0 0-4.897-2.92l-.069.04c-.125 2.055-.396 6.758-.505 10.79l5.779-3.43c.129-.877.02-2.98-.308-4.48z" fill="url(#paint9_linear)"/><path d="M204.137 92.614c-.316-.38-.663-.793-1.052-1.246-.877-1.023-1.953-2.054-3.215-3.09-.821-.259-1.52-.453-1.933-.538-1.67-.335-2.265.284-2.265.284l-4.699 2.79a189.17 189.17 0 0 0-.137 4.756c1.423.768 3.077 1.638 4.828 2.556 1.877-1.116 6.059-3.773 8.473-5.512z" fill="url(#paint10_linear)"/><path d="M199.814 98.651s.053-2.171-.861-4.743c-1.024-2.876-3.939-3.13-3.939-3.13l1.124 7.582c1.565.817 3.203 1.666 4.824 2.499-.537-1.362-1.148-2.208-1.148-2.208z" fill="#D4CDBF"/><path d="M206.046 95.097c-.724-1.048-1.589-2.132-2.96-3.733-.918-1.068-2.051-2.152-3.385-3.236l-4.687 2.65s2.915.25 3.939 3.13c.914 2.572.861 4.743.861 4.743l6.232-3.554z" fill="url(#paint11_linear)"/><path d="M206.693 101.859l1.917 1.747.158-3.879a.138.138 0 0 0-.021-.036c-1.136-2.07-1.815-3.304-2.705-4.594l-6.232 3.555s.611.845 1.144 2.208l2.54 1.306c1.561-.425 2.54-.89 3.199-.307z" fill="url(#paint12_linear)"/><path d="M198.419 88.371c.259.303.287 1.925.283 2.738.073-.012.145-.032.218-.06l2.443-1.46a34.057 34.057 0 0 0-3.009-2.492c-.611.368-1.096.66-1.246.748.441-.076 1.003.162 1.311.526z" fill="url(#paint13_linear)"/><path d="M197.113 87.841c.436-.068.995.166 1.306.53.259.304.287 1.925.283 2.738a1.366 1.366 0 0 1-.518-.012s-1.48-.797-1.682-1.156c-.202-.36.562-2.067.562-2.067s.02-.016.049-.032z" fill="#D4CDBF"/><path d="M208.707 101.252l-1.622.962 1.529 1.392.093-2.354z" fill="url(#paint14_linear)"/><path d="M180.681 82.508c-1.024-2.876-3.939-3.13-3.939-3.13l1.35 9.119c1.776.99 3.531 1.97 5.165 2.875-.502-2.446-1.715-4.12-1.715-4.12s.053-2.172-.861-4.744z" fill="#D4CDBF"/><path d="M188.611 83.22l-7.069 4.031s1.209 1.679 1.715 4.121l3.146 1.751c.344-1.908 1.217-6.555 2.208-9.904z" fill="url(#paint15_linear)"/><path d="M188.611 83.22c.178-.595.356-1.157.538-1.647-.319-.165-.7-.376-1.132-.618-1.828-1.02-4.679-2.597-7.866-3.507l-3.413 1.93s2.915.25 3.939 3.13c.914 2.572.861 4.743.861 4.743l7.073-4.032z" fill="url(#paint16_linear)"/><path d="M180.317 77.497c.105.63.117 1.63.117 2.208.073-.012.146-.033.218-.061l2.14-1.278a25.885 25.885 0 0 0-2.475-.87z" fill="url(#paint17_linear)"/><path d="M178.234 78.536c.202.36 1.682 1.157 1.682 1.157s.235.06.518.012c0-.582-.012-1.577-.117-2.208-.579-.17-1.165-.32-1.764-.437-.202.526-.44 1.254-.319 1.476z" fill="#D4CDBF"/><path opacity=".45" d="M188.017 80.954c.433.239.813.453 1.132.62-1.197 3.243-2.341 9.3-2.746 11.55a11779.57 11779.57 0 0 1-14.235-7.931l2.616-8.436c5.173-.284 10.41 2.628 13.233 4.197zM220.002 81.08c4.141-2.896 8.667-6.67 9.827-7.644 1.525 1.02 8.331 5.59 10.705 7.49 4.04 3.227 7.433 5.48 7.466 5.5l.044.028.049.02c.048.02.105.045.157.065.413.8.72 1.856.34 2.912-.772 2.156-4.715 6.212-8.549 8.743-3.705 2.443-10.766 8.097-20.112 9.836-1.516-.425-2.265-1.209-2.402-1.367-3.288-5.747-10.013-14.854-11.578-16.957 2.022-1.165 9.896-5.715 14.053-8.627zM206.693 101.858c-.66-.582-1.638-.117-3.195.308-4.364-2.237-9.18-4.732-12.658-6.605.056-4.38.408-10.478.55-12.828 5.225 2.811 9.24 5.771 11.691 8.63 3.054 3.564 3.608 4.57 5.666 8.323.008.013.012.025.02.037l-.157 3.878-1.917-1.743z" fill="#94DAEE"/><path d="M293.878 46.352h-2.737v53.759h2.737v-53.76zM353.572 48.375h-2.737v53.759h2.737V48.375z" fill="#5F6464"/><path d="M360.465 22.07h-76.93c-2.5 0-4.535 2.015-4.535 4.491V70.19c0 2.477 2.035 4.492 4.535 4.492h76.93c2.5 0 4.535-2.015 4.535-4.492V26.561c0-2.476-2.035-4.492-4.535-4.492z" fill="#004EBB"/><path d="M360.465 23.423c1.742 0 3.17 1.413 3.17 3.14V70.19c0 1.726-1.426 3.14-3.17 3.14h-76.93c-1.742 0-3.17-1.412-3.17-3.14V26.562c0-1.725 1.426-3.14 3.17-3.14h76.93v.002zm0-1.354h-76.93c-2.5 0-4.535 2.016-4.535 4.492V70.19c0 2.477 2.035 4.492 4.535 4.492h76.93c2.5 0 4.535-2.015 4.535-4.492V26.561c0-2.476-2.035-4.492-4.535-4.492z" fill="#fff"/><g clip-path="url(#clip0)"><path d="M292.981 34.106l-1.657-6.992h1.691l.529 2.883c.154.83.302 1.73.416 2.438h.02c.113-.757.281-1.598.454-2.458l.594-2.863h1.681l.559 2.947c.153.82.272 1.567.376 2.344h.019c.104-.777.263-1.597.406-2.428l.569-2.863h1.607l-1.805 6.992h-1.711l-.593-3.007a25.185 25.185 0 0 1-.332-2.156h-.02a26.848 26.848 0 0 1-.405 2.156l-.663 3.007h-1.735zM305.224 31.149h-2.571v1.661h2.873v1.296h-4.46v-6.992h4.317v1.295h-2.73v1.454h2.571v1.286zM306.604 27.114h1.587v5.667h2.779v1.33h-4.366v-6.997zM316.647 33.908c-.292.143-.944.302-1.795.302-2.418 0-3.664-1.504-3.664-3.496 0-2.389 1.701-3.714 3.817-3.714.821 0 1.444.168 1.721.311l-.321 1.256a3.446 3.446 0 0 0-1.33-.257c-1.256 0-2.231.757-2.231 2.315 0 1.4.831 2.284 2.24 2.284.475 0 1.009-.104 1.316-.227l.247 1.226zM323.773 30.536c0 2.294-1.39 3.684-3.437 3.684-2.077 0-3.288-1.568-3.288-3.56 0-2.097 1.34-3.665 3.402-3.665 2.151.005 3.323 1.612 3.323 3.54zm-5.054.094c0 1.37.643 2.334 1.701 2.334 1.068 0 1.681-1.019 1.681-2.374 0-1.256-.603-2.334-1.691-2.334-1.068 0-1.691 1.019-1.691 2.374zM330.725 31.43a83.64 83.64 0 0 1-.064-2.872h-.03c-.217.89-.509 1.889-.776 2.71l-.851 2.73h-1.236l-.746-2.71a32.854 32.854 0 0 1-.633-2.73h-.02c-.045.944-.074 2.022-.129 2.893l-.123 2.655h-1.464l.445-6.992h2.107l.682 2.334c.218.81.435 1.681.593 2.502h.03c.198-.811.435-1.73.663-2.512l.746-2.324h2.062l.386 6.992h-1.548l-.094-2.675zM337.747 31.149h-2.571v1.661h2.873v1.296h-4.461v-6.992h4.317v1.295h-2.729v1.454h2.571v1.286zM342.168 28.444h-1.879v-1.33h5.375v1.33h-1.909v5.667h-1.587v-5.667zM352.602 30.536c0 2.294-1.39 3.684-3.437 3.684-2.077 0-3.288-1.568-3.288-3.56 0-2.097 1.34-3.665 3.402-3.665 2.151.005 3.323 1.612 3.323 3.54zm-5.049.094c0 1.37.643 2.334 1.701 2.334 1.068 0 1.681-1.019 1.681-2.374 0-1.256-.603-2.334-1.691-2.334-1.068 0-1.691 1.019-1.691 2.374z" fill="#fff"/><path fill-rule="evenodd" clip-rule="evenodd" d="M297.387 68.043l-2.498.846a.313.313 0 0 1-.098.02.342.342 0 0 1-.366-.317v-.02a.388.388 0 0 0 .069-.02l2.497-.845a.337.337 0 0 0 .232-.297l1.34-17.06v-.034h.08a.338.338 0 0 1 .311.366l-1.34 17.06a.336.336 0 0 1-.227.301zm-3.477-1.459l-.173 2.493a.356.356 0 0 1-.217.311l-2.591.99a.329.329 0 0 1-.099.019.335.335 0 0 1-.361-.316v-.02a.388.388 0 0 0 .069-.02l2.591-.989a.33.33 0 0 0 .218-.312l.351-5.108.212 2.953zm-2.665-16.229h.03a.335.335 0 0 1 .361.317l.435 6.354-.178 2.873-.648-9.544zm3.743-.02h.03a.335.335 0 0 1 .361.317l.405 5.959-.187 2.685-.609-8.96zm7.576 16.14c-.524.154-1.038.302-1.746.51a.327.327 0 0 1-.118.02.337.337 0 0 1-.341-.336.256.256 0 0 0 .064-.02c.702-.208 1.221-.361 1.745-.51l.119-.034a.343.343 0 0 0 .247-.327V50.311h.055c.188 0 .341.153.341.34v15.464a.343.343 0 0 1-.247.326l-.119.035zm6.844-15.853c.212.144.4.322.563.524.525.653.792 1.598.792 2.79v.434a.343.343 0 0 1-.327.342c-.291.014-.628.034-.969.05-.267.014-.529.029-.796.039-.015 0-.03.005-.045.005a.338.338 0 0 1-.341-.337c.262-.014.524-.03.786-.04.337-.019.678-.034.97-.049a.342.342 0 0 0 .326-.34v-.436c0-1.192-.267-2.136-.791-2.789-.055-.064-.109-.128-.168-.193zm-1.597 2.235c-.035-.005-.07-.005-.109-.005a.562.562 0 0 0-.332.1c-.084.064-.153.177-.202.336-.06.202-.084.445-.079.697.005.277.044.549.108.776.257.885.876 1.489 1.513 2.107 1.014.984 2.072 2.007 2.072 4.233 0 1.181-.267 2.156-.781 2.892-.524.742-1.295 1.237-2.304 1.44-.267.054-.514.078-.742.078-.638 0-1.157-.197-1.563-.578-.034-.03-.064-.064-.098-.099.351.227.776.346 1.261.346.227 0 .474-.025.741-.079 1.009-.208 1.78-.697 2.305-1.439.519-.737.781-1.71.781-2.893 0-2.225-1.053-3.249-2.072-4.233-.638-.618-1.256-1.216-1.513-2.106a3.145 3.145 0 0 1-.109-.776c-.005-.248.02-.495.079-.698.05-.163.119-.272.203-.336a.573.573 0 0 1 .331-.099c.188-.005.327.045.411.163a.545.545 0 0 1 .099.173zm-1.276 7.571c.02-.005.034-.005.054-.005.188 0 .341.153.341.341v1.039c0 .247.02.44.065.588-.124.005-.218-.024-.277-.099-.114-.133-.178-.395-.178-.82v-1.044h-.005zm11.551-2.008h.01c.015 0 .03-.005.04-.005.187 0 .341.154.341.342v1.72c0 1.123-.267 2.023-.796 2.67-.53.654-1.311 1.044-2.329 1.133-.149.015-.277.02-.396.02-.826 0-1.474-.252-1.948-.742l-.01-.01c.42.282.944.426 1.562.426.119 0 .253-.005.396-.02 1.019-.094 1.8-.48 2.329-1.133.529-.647.796-1.547.796-2.67v-1.72c.005-.006.005-.006.005-.01zm-.915-7.778c.188.129.351.277.5.45.534.623.811 1.518.811 2.65v1.262a.344.344 0 0 1-.332.34c-.296.01-.593.015-.89.025-.287.005-.573.015-.86.02h-.04a.34.34 0 0 1-.341-.336c.282-.005.564-.015.846-.02.296-.005.593-.015.89-.025a.343.343 0 0 0 .331-.34v-1.262c0-1.132-.272-2.027-.811-2.65a1.927 1.927 0 0 0-.104-.114zm-1.636 2.067c-.05-.01-.099-.01-.154-.01-.198 0-.351.055-.45.178-.118.148-.188.406-.188.796v7.156c0 .232.025.41.065.544-.124-.01-.218-.05-.282-.124-.114-.129-.178-.366-.178-.752v-7.155c0-.39.069-.648.188-.796.099-.124.257-.178.45-.178.197 0 .351.05.45.163a.769.769 0 0 1 .099.178zm7.15.124c-.119.138-.183.385-.183.761v6.972c0 .267.035.47.094.619a.526.526 0 0 1-.302-.173c-.118-.149-.188-.401-.188-.777v-6.977c0-.376.065-.623.183-.762.099-.118.252-.168.455-.163.198 0 .356.055.455.173.04.045.069.104.099.173a.786.786 0 0 0-.158-.015c-.198 0-.356.05-.455.169zm2.339-2.176c.183.128.351.277.499.445.544.623.831 1.528.831 2.665v6.804c0 .045 0 .114-.005.208-.035 1.043-.316 1.854-.836 2.418-.529.574-1.275.87-2.23.87-.025 0-.074 0-.148-.004-.964-.03-1.731-.332-2.275-.89.5.346 1.128.533 1.879.558.074 0 .124.005.149.005.954 0 1.706-.296 2.23-.87.514-.559.801-1.375.835-2.418.005-.094.005-.163.005-.208v-6.809c0-1.137-.281-2.037-.83-2.665-.035-.035-.07-.075-.104-.11zm8.292 14.335a39.022 39.022 0 0 0-.964-.153.337.337 0 0 1-.282-.262l-.01-.055c.292.045.584.09.861.139.316.054.638.114.964.178a.343.343 0 0 0 .401-.272c.005-.02.005-.044.005-.064V50.3h.054c.188 0 .341.153.341.341v14.197c0 .02 0 .044-.005.064a.345.345 0 0 1-.4.272c-.327-.069-.648-.128-.965-.183zm-2.922-6.334v5.479c0 .015 0 .03-.005.044a.34.34 0 0 1-.381.292c-.474-.064-.954-.114-1.434-.163-.079-.01-.158-.015-.237-.025a.344.344 0 0 1-.331-.326c.059.005.113.01.173.02.479.049.959.098 1.434.163a.335.335 0 0 0 .38-.292c0-.015.005-.03.005-.045v-6.843c.134.568.267 1.137.396 1.696zm.277-8.372h.044c.154 0 .297.104.332.262.291 1.241.583 2.482.87 3.724v1.364l-.292-1.26c-.316-1.36-.633-2.725-.954-4.09zm10.355.311c.272.184.504.42.702.713.514.741.776 1.82.776 3.18v.523a.339.339 0 0 1-.366.312c-.613-.05-1.187-.09-1.76-.129a.339.339 0 0 1-.336-.331c.553.04 1.107.074 1.701.124a.339.339 0 0 0 .366-.312v-.525c0-1.359-.263-2.437-.777-3.179a3.365 3.365 0 0 0-.306-.376zm-1.514 2.409a.54.54 0 0 0-.093-.01c-.139-.005-.253.02-.332.084-.089.074-.158.203-.203.395-.049.203-.064.43-.059.663.005.252.04.505.089.732.252 1.058.865 1.825 1.508 2.63 1.019 1.276 2.097 2.626 2.097 5.292 0 .648-.059 1.216-.178 1.7-.158.644-.425 1.148-.796 1.49-.386.36-.87.543-1.459.543a3.47 3.47 0 0 1-.806-.104c-.717-.178-1.315-.504-1.79-.964.396.287.86.5 1.394.633.287.07.559.104.806.104.584 0 1.069-.183 1.459-.544.371-.346.638-.846.796-1.489.119-.484.178-1.053.178-1.7 0-2.666-1.078-4.016-2.096-5.292-.643-.8-1.256-1.572-1.508-2.63a3.35 3.35 0 0 1-.089-.732 2.82 2.82 0 0 1 .059-.663c.044-.198.114-.326.203-.395.079-.065.192-.09.331-.085.188.005.331.075.425.218.025.04.045.08.064.124zm-1.231 7.783l.094.015c.168.02.302.163.302.341v1.073c0 .44.064.752.183.964a.695.695 0 0 1-.371-.291c-.134-.213-.208-.534-.208-1.004v-1.073-.025zm6.058 6.888c-.144-.03-.262-.232-.277-.385.222.064.475.133.791.222.351.099.673.193.94.277a.343.343 0 0 0 .44-.326V50.33h.054c.188 0 .341.154.341.342v17.035c0 .341-.158.584-.559.47l-1.73-.5zm8.159 2.28v-.005c.593.203 1.187.4 1.78.598.326.11.45-.173.45-.435V50.36H354.782c.188 0 .342.154.342.341v19.736c0 .356-.144.667-.534.534l-1.672-.564c-.148-.05-.395-.302-.42-.45zm-1.672-8.13v7.17c0 .332-.143.653-.553.52l-1.568-.495c-.133-.034-.242-.262-.257-.4.544.173 1.083.341 1.538.49.331.103.445-.179.445-.44v-9.198c.133.786.262 1.572.395 2.354zm.277-11.482h.03a.345.345 0 0 1 .361.282c.287 1.667.574 3.373.865 5.113v2.028l-.281-1.696c-.332-1.954-.653-3.862-.975-5.727zm-56.797 17.827l2.507-.85 1.34-17.06-1.647.004-.979 13.896-.949-13.886-1.82.01-.91 14.815-1.013-14.81-1.835.005 1.34 19.354 2.591-.989.688-9.914.687 9.425zm5.929-1.909c.628-.183 1.256-.366 1.889-.554V50.246c-.633 0-1.261.005-1.889.005v16.012zm4.376-10.805c.722 2.508 3.476 3.294 3.476 5.653 0 1.008-.38 1.434-.979 1.532-.603.1-.979-.207-.979-1.24v-1.04c-.593.105-1.187.203-1.785.302v.915c0 2.389.954 3.491 2.814 3.11 1.849-.375 2.813-1.79 2.813-3.995 0-3.53-2.877-3.872-3.57-6.245-.143-.49-.178-1.172-.029-1.662.138-.47.435-.667.855-.677.603-.015.94.36.94 1.364v.584c.593-.03 1.186-.064 1.79-.094v-.435c0-2.206-.95-3.467-2.784-3.467-1.375 0-2.245.762-2.601 2.137-.248.984-.243 2.29.039 3.258zm11.28 2.982v1.87c0 .934-.381 1.295-.98 1.33-.603.04-.979-.272-.979-1.217v-7.155c0-.945.381-1.31.979-1.32.604-.005.98.346.98 1.28v1.405l1.785-.045v-1.26c0-2.078-.96-3.265-2.814-3.265s-2.814 1.237-2.814 3.393v7.017c0 2.16.955 3.233 2.814 3.065 1.854-.168 2.814-1.39 2.814-3.466v-1.72c-.594.034-1.192.064-1.785.088zm5.805-5.251c0-.92.381-1.271.979-1.266.603.005.979.36.979 1.285v7.022c0 .93-.381 1.266-.979 1.241-.598-.024-.979-.39-.979-1.31v-6.972zm-1.884 6.863c0 2.072 1.014 3.21 2.868 3.269 1.854.06 2.868-1.058 2.868-3.155v-6.804c0-2.097-1.014-3.294-2.868-3.294-1.854 0-2.868 1.182-2.868 3.254v6.73zm12.13 4.045c.648.1 1.295.203 1.938.332V50.231c-.564 0-1.122-.005-1.686-.005v8.322c-.643-2.78-1.291-5.553-1.938-8.327h-2.369v13.321c.569.06 1.137.114 1.706.193V53.95c.796 3.383 1.577 6.765 2.349 10.147zm4.406-8.708c.722 2.616 3.486 4.144 3.486 6.794 0 1.103-.381 1.425-.979 1.301-.603-.129-.979-.593-.979-1.666v-1.073a61.485 61.485 0 0 0-1.79-.277v.9c0 2.343.969 3.872 2.823 4.331 1.855.455 2.814-.741 2.814-3.298 0-4.272-2.932-5.044-3.6-7.843-.114-.47-.139-1.078-.03-1.547.129-.55.435-.762.88-.747.604.02.95.455.95 1.563v.642c.593.04 1.187.08 1.785.129v-.5c0-2.556-.94-4.02-2.784-4.02-1.241 0-2.072.613-2.487 1.731-.391 1.038-.386 2.497-.089 3.58zm7.59 11.462a73.01 73.01 0 0 1 1.889.544V50.266c-.633 0-1.261-.005-1.889-.005v16.59zm8.431 2.651c.648.218 1.296.435 1.949.658V50.3c-.564 0-1.123-.004-1.687-.004v11.551c-.638-3.857-1.28-7.709-1.938-11.556-.791-.005-1.582-.005-2.369-.01v17.9c.564.179 1.133.357 1.696.54V55.374c.811 4.698 1.593 9.41 2.349 14.128z" fill="#000B9E"/><path fill-rule="evenodd" clip-rule="evenodd" d="M294.306 68.172l2.507-.85 1.34-17.06-1.647.004-.979 13.896-.949-13.886-1.82.01-.91 14.815-1.013-14.81-1.835.005 1.34 19.354 2.591-.989.688-9.914.687 9.425zm5.929-1.909c.628-.183 1.256-.366 1.889-.554V50.246c-.633 0-1.261.005-1.889.005v16.012zm4.376-10.805c.722 2.508 3.476 3.294 3.476 5.653 0 1.008-.38 1.434-.979 1.532-.603.1-.979-.207-.979-1.24v-1.04c-.593.105-1.187.203-1.785.302v.915c0 2.389.954 3.491 2.814 3.11 1.849-.375 2.813-1.79 2.813-3.995 0-3.53-2.877-3.872-3.57-6.245-.143-.49-.178-1.172-.029-1.662.138-.47.435-.667.855-.677.603-.015.94.36.94 1.364v.584c.593-.03 1.186-.064 1.79-.094v-.435c0-2.206-.95-3.467-2.784-3.467-1.375 0-2.245.762-2.601 2.137-.248.984-.243 2.29.039 3.258zm11.28 2.982v1.87c0 .934-.381 1.295-.98 1.33-.603.04-.979-.272-.979-1.217v-7.155c0-.945.381-1.31.979-1.32.604-.005.98.346.98 1.28v1.405l1.785-.045v-1.26c0-2.078-.96-3.265-2.814-3.265s-2.814 1.237-2.814 3.393v7.017c0 2.16.955 3.233 2.814 3.065 1.854-.168 2.814-1.39 2.814-3.466v-1.72c-.594.034-1.192.064-1.785.088zm5.805-5.251c0-.92.381-1.271.979-1.266.603.005.979.36.979 1.285v7.022c0 .93-.381 1.266-.979 1.241-.598-.024-.979-.39-.979-1.31v-6.972zm-1.884 6.863c0 2.072 1.014 3.21 2.868 3.269 1.854.06 2.868-1.058 2.868-3.155v-6.804c0-2.097-1.014-3.294-2.868-3.294-1.854 0-2.868 1.182-2.868 3.254v6.73zm12.13 4.045c.648.1 1.295.203 1.938.332V50.231c-.564 0-1.122-.005-1.686-.005v8.322c-.643-2.78-1.291-5.553-1.938-8.327h-2.369v13.321c.569.06 1.137.114 1.706.193V53.95c.796 3.383 1.577 6.765 2.349 10.147zm4.406-8.708c.722 2.616 3.486 4.144 3.486 6.794 0 1.103-.381 1.425-.979 1.301-.603-.129-.979-.593-.979-1.666v-1.073a61.485 61.485 0 0 0-1.79-.277v.9c0 2.343.969 3.872 2.823 4.331 1.855.455 2.814-.741 2.814-3.298 0-4.272-2.932-5.044-3.6-7.843-.114-.47-.139-1.078-.03-1.547.129-.55.435-.762.88-.747.604.02.95.455.95 1.563v.642c.593.04 1.187.08 1.785.129v-.5c0-2.556-.94-4.02-2.784-4.02-1.241 0-2.072.613-2.487 1.731-.391 1.038-.386 2.497-.089 3.58zm7.59 11.462a73.01 73.01 0 0 1 1.889.544V50.266c-.633 0-1.261-.005-1.889-.005v16.59zm8.431 2.651c.648.218 1.296.435 1.949.658V50.3c-.564 0-1.123-.004-1.687-.004v11.551c-.638-3.857-1.28-7.709-1.938-11.556-.791-.005-1.582-.005-2.369-.01v17.9c.564.179 1.133.357 1.696.54V55.374c.811 4.698 1.593 9.41 2.349 14.128z" fill="#fff"/><path fill-rule="evenodd" clip-rule="evenodd" d="M317.562 37.963h-9.86l1.167 1.716h7.986v.83h-6.582l1.167 1.716h5.415v.831h-4.011l1.167 1.716h3.101c.682 2.082 2.645 3.6 4.95 3.6 2.304 0 4.267-1.518 4.95-3.6h3.1l1.167-1.716h-4.01v-.83h5.415l1.167-1.716h-6.587v-.831h7.986l1.167-1.716H325.86v5.202a3.808 3.808 0 0 1-3.798 3.798 3.808 3.808 0 0 1-3.798-3.798v-5.202h-.702zm4.5 10.409v-1.41 1.41z" fill="#F9B233"/><path d="M321.191 35.955c.07.084.114.203.094.46.01.015.015.035.02.055.025.01.05.024.079.034l.03.015c.579.267.781.475.846.648.079.024.178.05.276.074.094.025.188.044.233.06l.198.054c.212.059.306.084.4.123.079.03.119.05.188.09.05.024.119.064.277.143.153.074.312.089.45.104.391.04.692.074.9.524a.68.68 0 0 1 .287.173c.212.207.242.49.227.746.05.04.089.09.119.149.119-.129.262-.124.648-.035.222.04.39.233.39.465 0 .4-.207.816-.415 1.241-.158.317-.321.643-.346.885-.005.035-.005.08-.005.12 0 .138 0 .261-.079.44-.04.093-.099.167-.153.241-.02.025-.035.04-.035.045-.015.03-.01.148-.01.267.005.193.005.386-.059.569-.094.252-.159.46-.178.652-.02.178.005.366.084.599.089.252.074.445.054.682-.005.08-.015.168-.015.272 0 .262-.212.47-.469.47h-4.283a.467.467 0 0 1-.455-.361c-.514-.124-.573-.39-.643-.692-.004-.03-.014-.055-.014-.065-.08-.252-.129-.41-.129-.603 0-.114.015-.217.049-.326a1.648 1.648 0 0 1-.084-.292c-.069-.322-.074-.544-.079-.712 0-.054.045-.054.02-.07a3.758 3.758 0 0 1-.138-.088 2.988 2.988 0 0 1-.47-.332 1.044 1.044 0 0 1-.252-.39.152.152 0 0 0-.055-.075c-.01-.005-.054-.03-.099-.049a1.116 1.116 0 0 1-.247-.153.7.7 0 0 1-.138-.144c-.361-.173-.579-.287-.737-.583-.134-.262-.144-.579-.069-1.123 0-.014.005-.069.01-.133.004-.08.009-.163.024-.252v-.015a.603.603 0 0 1 .04-.144.466.466 0 0 1-.218-.395c0-.495.025-.534.188-.782a1.07 1.07 0 0 0 .074-.118c.253-.425.485-.515.663-.584.04-.014-.064.025-.064-.192V36.86a.47.47 0 0 1 .346-.49c.015-.004.039-.024.069-.044.035-.03.069-.06.114-.089a.464.464 0 0 1 .504-.04l.079.045c.015.01.02.01.05 0 .287-.099.385-.153.465-.193.074-.04.138-.069.222-.104l.168-.059c.089-.119.158-.213.47-.287a.28.28 0 0 1 .089-.015.49.49 0 0 1 .494.371zm-.909.885c-.055.02-.08.035-.114.05a3.537 3.537 0 0 1-.589.242c-.252.09-.395.1-.529.065v.45c.005.865-.197.944-.544 1.072-.044.015-.103.04-.183.178-.039.065-.064.11-.089.144.282.198.287.48.213.752-.02.079-.054.148-.079.212 0 .005 0 0 0 0h-.005v.005c-.005.05-.01.124-.015.188-.005.064-.01.119-.02.188-.044.341-.054.51-.024.574.014.024.123.079.316.168.228.108.292.183.341.277a1.315 1.315 0 0 1 .238.129c.267.177.331.33.4.489.015.03.025.064.05.089.039.04.183.128.301.203.084.054.163.098.168.103.381.252.386.445.396.826.005.124.005.292.059.54.03.029.065.068.099.113a.458.458 0 0 1 .03.504c-.054.104-.079.158-.079.193 0 .054.034.158.089.326.02.06.029.104.039.144 0 0 0 .005.183.02a.48.48 0 0 1 .401.296h3.451a.497.497 0 0 0-.014-.178c-.129-.37-.159-.682-.129-.994.03-.296.114-.568.228-.885.009-.025.009-.128.004-.237-.004-.218-.004-.445.089-.658.04-.094.099-.163.154-.237.02-.025.029-.03.034-.045.005-.005-.005-.03-.005-.069 0-.064 0-.128.01-.227.005-.06.015-.119.03-.178l-.099.03a.471.471 0 1 1-.534-.678c.015-.035.03-.08.045-.129.024-.074.049-.148.089-.242.069-.163.133-.262.197-.326a.453.453 0 0 1-.029-.302l.015-.064a.453.453 0 0 1-.154-.341v-.05c.005-.035.01-.099.02-.168.01-.09.074-.153.089-.198-.173-.035-.326-.109-.48-.47-.005-.015-.064.005-.158-.005-.217-.024-.465-.049-.766-.193-.149-.069-.243-.123-.312-.158a.476.476 0 0 0-.084-.04c-.03-.01-.119-.034-.316-.093l-.203-.06c-.084-.024-.144-.04-.198-.054-.198-.05-.41-.099-.579-.183-.445-.222-.42-.41-.39-.638.01-.079-.025.178-.327.04l-.009-.005c-.015.005-.03.005-.045.01a.466.466 0 0 1-.559-.332.558.558 0 0 1-.064-.079.273.273 0 0 1-.054-.104zm-1.909 3.165c0-.01 0-.034-.005-.01l.005.01z" fill="#fff"/><path fill-rule="evenodd" clip-rule="evenodd" d="M320.732 36.707c.014-.198.069-.148.084-.307.024-.277-.06-.069-.084-.336-.356.084-.055.138-.609.336-.188.07-.192.119-.697.292-.262.089-.301.035-.499-.074-.119.079-.183.173-.341.212v.816c.004.94-.272.351-.663 1.01-.173.29-.198.217-.198.662.5.133.198.465.178.603-.02.129-.025.302-.034.396-.119.89 0 .964.553 1.226.213.099.089.089.228.203.074.059.198.103.301.173.267.178.178.321.381.519.109.104.401.272.539.361.302.203.104.37.257 1.073.065.292.055.124.178.292-.192.366-.163.465-.024.885.074.227.005.435.628.49.005.187.029.133.044.301h4.292c0-.341.07-.559-.014-.801-.208-.603-.114-.999.093-1.568.08-.217-.019-.637.085-.865.039-.084.153-.198.187-.282.06-.138.025-.252.045-.425.074-.658.761-1.503.761-2.072-.336-.08-.262-.03-.43.213-.064.089-.079.089-.143.202-.055.094-.074.159-.129.258-.178.346-.247.163-.405.346-.144.163-.074.346-.317.41.06-.128.084-.262.149-.41.108-.257.148-.134.366-.238 0-.331.044-.326-.173-.474.054-.233.084-.203.084-.515-.055-.024-.099-.005-.213 0 .015-.202.119-.623-.04-.776-.148-.143-.242.025-.366-.277-.178-.415-.613-.178-1.152-.44-.554-.267-.212-.158-.994-.38-.212-.06-.524-.12-.697-.204-.381-.187.272-.143-.727-.603-.203-.094-.148-.074-.361-.025v-.301l-.123.094z" fill="#000B9E"/></g><defs><linearGradient id="paint0_linear" x1="223.355" y1="90.746" x2="223.355" y2="76.384" gradientUnits="userSpaceOnUse"><stop offset=".003" stop-color="#C2B69C"/><stop offset=".505" stop-color="#E3DFD7"/><stop offset=".797" stop-color="#E6E6E6"/></linearGradient><linearGradient id="paint1_linear" x1="223.002" y1="89.08" x2="228.203" y2="98.088" gradientUnits="userSpaceOnUse"><stop stop-color="#E3DFD7"/><stop offset=".997" stop-color="#C2B69C"/></linearGradient><linearGradient id="paint2_linear" x1="221.664" y1="100.695" x2="241.123" y2="100.695" gradientUnits="userSpaceOnUse"><stop offset=".005" stop-color="#CCC1AB"/><stop offset=".182" stop-color="#D0C6B4"/><stop offset=".488" stop-color="#D3CBBC"/><stop offset=".997" stop-color="#D4CDBF"/></linearGradient><linearGradient id="paint3_linear" x1="205.95" y1="89.86" x2="212.114" y2="89.86" gradientUnits="userSpaceOnUse"><stop stop-color="#E3DFD7"/><stop offset=".997" stop-color="#C2B69C"/></linearGradient><linearGradient id="paint4_linear" x1="211.462" y1="100.614" x2="211.462" y2="91.158" gradientUnits="userSpaceOnUse"><stop offset=".003" stop-color="#C2B69C"/><stop offset="1" stop-color="#E3DFD7"/></linearGradient><linearGradient id="paint5_linear" x1="212.432" y1="102.133" x2="224.778" y2="102.133" gradientUnits="userSpaceOnUse"><stop offset=".003" stop-color="#C2B69C"/><stop offset="1" stop-color="#E3DFD7"/></linearGradient><linearGradient id="paint6_linear" x1="217.37" y1="97.297" x2="248.765" y2="97.297" gradientUnits="userSpaceOnUse"><stop offset=".003" stop-color="#389CC7"/><stop offset="1" stop-color="#2E7EC9"/></linearGradient><linearGradient id="paint7_linear" x1="231.433" y1="92.295" x2="247.019" y2="92.295" gradientUnits="userSpaceOnUse"><stop offset=".003" stop-color="#389CC7"/><stop offset="1" stop-color="#2E7EC9"/></linearGradient><linearGradient id="paint8_linear" x1="232.934" y1="95.71" x2="225.914" y2="100.965" gradientUnits="userSpaceOnUse"><stop stop-color="#2E7EC9"/><stop offset=".997" stop-color="#389CC7"/></linearGradient><linearGradient id="paint9_linear" x1="190.882" y1="88.186" x2="196.713" y2="88.186" gradientUnits="userSpaceOnUse"><stop stop-color="#E3DFD7"/><stop offset=".997" stop-color="#C2B69C"/></linearGradient><linearGradient id="paint10_linear" x1="190.84" y1="92.879" x2="204.138" y2="92.879" gradientUnits="userSpaceOnUse"><stop stop-color="#E3DFD7"/><stop offset=".997" stop-color="#C2B69C"/></linearGradient><linearGradient id="paint11_linear" x1="195.01" y1="93.391" x2="206.047" y2="93.391" gradientUnits="userSpaceOnUse"><stop offset=".203" stop-color="#E6E6E6"/><stop offset=".495" stop-color="#E3DFD7"/><stop offset=".997" stop-color="#C2B69C"/></linearGradient><linearGradient id="paint12_linear" x1="204.293" y1="103.604" x2="204.293" y2="95.097" gradientUnits="userSpaceOnUse"><stop stop-color="#E3DFD7"/><stop offset=".997" stop-color="#C2B69C"/></linearGradient><linearGradient id="paint13_linear" x1="197.114" y1="89.099" x2="201.366" y2="89.099" gradientUnits="userSpaceOnUse"><stop offset=".203" stop-color="#E6E6E6"/><stop offset=".495" stop-color="#E3DFD7"/><stop offset=".997" stop-color="#D4CDBF"/></linearGradient><linearGradient id="paint14_linear" x1="207.086" y1="102.428" x2="208.709" y2="102.428" gradientUnits="userSpaceOnUse"><stop stop-color="#E3DFD7"/><stop offset=".997" stop-color="#C2B69C"/></linearGradient><linearGradient id="paint15_linear" x1="181.543" y1="88.171" x2="188.612" y2="88.171" gradientUnits="userSpaceOnUse"><stop stop-color="#E3DFD7"/><stop offset=".997" stop-color="#C2B69C"/></linearGradient><linearGradient id="paint16_linear" x1="176.739" y1="82.351" x2="189.149" y2="82.351" gradientUnits="userSpaceOnUse"><stop offset=".203" stop-color="#E6E6E6"/><stop offset=".495" stop-color="#E3DFD7"/><stop offset=".997" stop-color="#C2B69C"/></linearGradient><linearGradient id="paint17_linear" x1="180.316" y1="78.599" x2="182.788" y2="78.599" gradientUnits="userSpaceOnUse"><stop offset=".203" stop-color="#E6E6E6"/><stop offset=".495" stop-color="#E3DFD7"/><stop offset=".997" stop-color="#D4CDBF"/></linearGradient><clipPath id="clip0"><path fill="#fff" transform="translate(289 27)" d="M0 0h66.124v44H0z"/></clipPath></defs></svg>