<svg width="1600" height="400" fill="none" xmlns="http://www.w3.org/2000/svg" viewBox="0 0 1600 400"><g filter="url(#filter0_d)"><path fill="#F5FCFF" d="M1600 0H0v400h1600z"/></g><mask id="a" maskUnits="userSpaceOnUse" x="623" y="0" width="977" height="400"><path transform="matrix(-1 0 0 1 1600 0)" fill="#F5FCFF" d="M0 0h977v400H0z"/></mask><g mask="url(#a)"><path d="M1811.84 8.01l-221.16 12.087-412.3 43.203-76.81 45.616 349.28 203.445 293.2 27.611 67.79-331.961z" fill="#00AD00"/><path d="M1721.26 4.697S967.115 28.777 916.425 112.28C853.991 215.137 1472.9 491 1472.9 491l522.48-123.8s-828.17-206.809-790.9-269.085c38.95-65.08 809.99-83 809.99-83L1721.26 4.696z" fill="#fff"/><path d="M1531.55 450.392S919.755 205.655 975.078 112.279C1024.87 28.243 1779.91 7.401 1779.91 7.401l168.74 3.197s-771.51 22.153-809.99 87.508c-41.13 69.872 790.89 300.67 790.89 300.67l-398 51.616z" fill="#004EBB"/></g><path d="M1088.02 206.807c-3.27 1.878-3.2 4.799.17 6.494l31.23 19.982 165.34 83.193c3.37 1.694 8.93 1.652 12.64.909 14.06-2.854 34.8-9.273 45.85-14.606 3.4-1.645 8.31-4.792 11.35-7.028 5.12-3.757 13.66-11.861 16.64-17.996 1.65-3.397 2.1-6.235-1.27-7.938l-203.17-102.24c-3.37-1.695-8.8-1.553-12.07.325l-66.71 38.905z" fill="#0032A5"/><path d="M1092.84 170.849c-1.02-5.868 3.09-10.083 3.09-10.083s2.32-6.802 8.44-14.248c6.12-7.437 29.06-20.633 35.57-23.346 6.51-2.713 13.76-3.046 17.32-2.554 3.58.493 20.25 5.751 20.25 5.751s20.2 1.611 36.97 8.28 34.94 16.694 48.41 23.864c7.84 4.173 22.22 15.099 32.86 23.479l1.25-.793s-1.04-4.899-.8-5.767c.23-.877 2.73-7.012 2.73-7.012s3.06 3.097 3.99 5.659c.94 2.563-.67 6.428-1.17 8.306-.29 1.068-.92 2.337-1.4 3.238-.01-.008-.03-.017-.04-.025 5.23 4.174 8.77 7.103 8.77 7.103 18.53 7.27 42.39 27.862 42.39 27.862 4.56.234 7.7 8.831 10.98 14.69 3.29 5.868 3.12 9.816 3.03 11.536-.1 1.719 2.18 26.334-17.79 40.165-19.98 13.822-43.82 16.91-54.44 16.192a53.15 53.15 0 0 1-12.08-2.245c-.41-1.995-.8-3.864-.88-5.167-.64-10.717-10.18-23.529-19.95-28.02-12.65-5.818-18.54.092-17.89 10.818.07 1.06.39 2.737.81 4.499l-96.33-48.512c-.42-2.287-.88-4.633-1.11-6.052-1.59-9.757-9.2-20.75-17.68-25.833-13.55-8.121-17.6-.409-16.15 10.225v.017c-4.81-4.374-12.79-11.694-16.87-15.834-6.09-6.169-5.62-15.016-6.07-18.155-.46-3.138 3.79-8.038 3.79-8.038z" fill="#14AFEB"/><path d="M1089.04 178.888c.46 3.138-.02 11.986 6.07 18.154 4.09 4.14 12.07 11.46 16.87 15.834v-.017c-1.46-10.634 2.6-18.354 16.15-10.225 8.48 5.084 16.1 16.076 17.68 25.834.24 1.419.7 3.764 1.11 6.051l96.33 48.512c-.42-1.761-.75-3.439-.81-4.499-.64-10.726 5.25-16.635 17.89-10.817 9.77 4.49 19.31 17.303 19.95 28.02.08 1.302.47 3.172.88 5.167 3.04.943 7.18 1.911 12.08 2.245 10.62.718 34.46-2.371 54.44-16.193 18.13-12.545 17.92-33.971 17.8-39.121-1.67 8.814-6.12 19.848-18.32 28.237-12.6 8.672-22.43 13.338-43.1 14.173-12.18.484-20.34-3.197-24.92-4.925l-.05-.91c4.57 1.728 12.63 3.74 24.81 3.256 20.68-.827 30.5-5.501 43.1-14.165 12.28-8.447 16.71-19.565 18.36-28.413.06.309.1.601.14.885.04-2.003-.22-5.634-3.05-10.709-.92-1.644-1.83-3.497-2.76-5.325-2.14 3.631-3.53 1.845-3.53 1.845-.11 3.956-1.74 9.49-2.75 11.343-1.01 1.853-4.16 8.355-12.97 14.64s-18.81 9.607-24.53 11.444c-5.72 1.836-11.16 1.619-11.16 1.619-6.71 3.372-13.56.467-13.56.467-1.6-3.13-8.41-6.894-13.51-9.44-2.78-1.385-7.67-4.248-12.1-7.061-3.72-2.362-5.91-3.932-5.91-3.932-11.12-7.136-15.46-12.954-15.46-12.954-8.46-14.749-24.45-35.499-24.45-35.499-11.65-14.381-33.6-24.222-48.31-31.451-10.5-5.158-26.26-4.549-39.49-5.025l-15.68-.818s-15.9-4.248-16.21-12.612c-2.94 4.733-4.14 8.247-4.14 8.247s-4.11 4.224-3.09 10.083c0 0 6.77 14.407 13.63 22.795 0 0-12.54-9.899-17.12-17.052-.27.818-.41 1.611-.31 2.312zm126.12 47.527c4.1-.935 6.54-2.404 8.1-1.019l4.57 4.157s2.39 2.329.7 3.431c-1.69 1.101-7.3 1.444-11.92 1.719-4.62.275-4.97-3.915-5.07-4.591-.1-.684-.48-2.763 3.62-3.697z" fill="#0082C8"/><path d="M1154.62 172.869a24.84 24.84 0 0 1 2.58-.283c12.99-.785 26.14 7.445 30.66 9.966 7.25 4.04 20.86 11.36 28.73 20.533 9.61 11.21 7.34 10.3 21.89 35.182 0 0-4.12-2.078-10.18-5.158.08-.042.16-.076.23-.126 1.69-1.101-.7-3.43-.7-3.43l-4.57-4.157c-1.56-1.377-3.99.084-8.07 1.01-10.63-5.459-22.36-11.552-29.26-15.366-14.94-8.272-53.25-29.673-53.25-29.673s8.13-6.252 21.94-8.498z" fill="#0082C8"/><path d="M1250.15 268.415l4.45-2.646c1.73.35 3.64.984 5.73 1.953 9.77 4.49 19.31 17.303 19.95 28.02.07 1.302.47 3.172.88 5.167h.02l-7.85 4.674c-2.69 1.619-6.47 1.552-10.75-.584-8.85-4.424-16.5-16.001-17.09-25.867-.33-5.367 1.5-9.123 4.66-10.717z" fill="#192D4B"/><path d="M1254.61 265.761l-4.46 2.646c-3.17 1.594-4.99 5.35-4.67 10.717.06 1.027.2 2.07.41 3.122l-2.64.784c-.42-1.761-.75-3.439-.81-4.499-.54-8.939 3.48-14.532 12.17-12.77z" fill="#004687"/><path d="M1245.48 279.124c.59 9.866 8.25 21.451 17.09 25.867 8.85 4.415 15.54 0 14.95-9.866-.6-9.866-8.25-21.452-17.1-25.867-8.84-4.416-15.53 0-14.94 9.866z" fill="#192D4B"/><path d="M1246.43 280.058c.55 9.098 7.6 19.782 15.75 23.855 8.17 4.074 14.34.009 13.79-9.098-.55-9.098-7.6-19.782-15.76-23.855s-14.33 0-13.78 9.098z" fill="#192D4B"/><path d="M1250.22 282.153c.41 6.778 5.66 14.724 11.73 17.762 6.07 3.03 10.66 0 10.26-6.769-.41-6.777-5.66-14.724-11.73-17.754-6.08-3.046-10.67-.008-10.26 6.761z" fill="#0082C8"/><path d="M1258.74 285.425c.11 1.979 1.65 4.291 3.42 5.184 1.77.885 3.11 0 2.99-1.978-.12-1.979-1.66-4.299-3.43-5.184-1.76-.885-3.1 0-2.98 1.978zM1117.86 201.782l3.6-2.145c1.9.492 4.12 1.46 6.67 2.996 8.48 5.083 16.1 16.076 17.68 25.834.24 1.419.7 3.764 1.11 6.051l.85.426-6.74 4.006c-2.69 1.62-6.47 1.553-10.75-.584-8.85-4.415-16.5-16.001-17.1-25.867-.31-5.367 1.52-9.115 4.68-10.717z" fill="#192D4B"/><path d="M1113.18 212.5c.6 9.866 8.25 21.451 17.1 25.866 8.85 4.416 15.54.009 14.95-9.865-.59-9.866-8.25-21.452-17.1-25.867-8.84-4.416-15.54 0-14.95 9.866z" fill="#192D4B"/><path d="M1114.13 213.434c.55 9.098 7.6 19.782 15.76 23.864 8.16 4.073 14.33 0 13.79-9.098-.56-9.098-7.61-19.782-15.77-23.856-8.16-4.081-14.32-.008-13.78 9.09z" fill="#192D4B"/><path d="M1117.93 215.53c.4 6.769 5.65 14.723 11.72 17.762 6.08 3.029 10.66 0 10.26-6.77-.41-6.777-5.66-14.723-11.73-17.762-6.07-3.038-10.66-.008-10.25 6.77z" fill="#0082C8"/><path d="M1126.38 218.768c.13 2.011 1.69 4.373 3.49 5.275 1.8.901 3.17 0 3.05-2.012-.13-2.011-1.68-4.374-3.49-5.275-1.81-.901-3.17 0-3.05 2.012z" fill="#192D4B"/><path d="M1121.46 199.645l-3.6 2.146c-3.16 1.594-4.99 5.35-4.68 10.709 0 .041.01.091.01.133l-1.21.242v-.017c-1.18-8.63 1.27-15.333 9.48-13.213z" fill="#004687"/><path d="M1250.16 181.692c9.92-6.945 20.79-16.218 20.79-16.218s17.19 11.444 22.8 15.926c8.4 6.711 15.33 11.301 15.33 11.301.93.368 1.88.768 2.83 1.194 8.1 6.135-5.27 18.956-15.59 26.743-10.31 7.78-27.21 16.777-37.25 18.655-1.03.192-2 .309-2.92.368-7.96.475-11.34-3.773-11.34-3.773-7.71-13.505-24.56-35.891-24.56-35.891s19.98-11.36 29.91-18.305zM1119.07 158.688c3.38-5.117 16.66-14.69 23.6-19.123 4.97-3.171 13.01-8.497 22.65-11.318 3.21-.943 6.6-1.602 10.12-1.811a33.55 33.55 0 0 1 2.07-.067s9.94.793 21.65 3.564c0 0-16.12 8.848-23.36 13.956-7.23 5.1-21.2 16.276-22.78 17.837 0 0-2.52 3.105-5.13 3.256-2.61.158-28.92-1.211-28.92-1.211s-3.28.034.1-5.083z" fill="#0082C8"/><path d="M1250.73 182.509c8.55-5.976 17.89-13.764 20.28-15.775 3.15 2.103 17.2 11.535 22.1 15.458 8.34 6.661 15.34 11.31 15.41 11.352l.09.058.1.042.32.134c.86 1.652 1.49 3.831.71 6.009-1.6 4.449-9.74 12.821-17.65 18.046-7.65 5.042-22.22 16.711-41.51 20.3-3.13-.877-4.67-2.496-4.96-2.822-6.78-11.86-20.66-30.657-23.89-34.998 4.17-2.404 20.42-11.794 29-17.804zM1184.72 182.251c.89.493 1.67.935 2.33 1.277-2.47 6.694-4.83 19.198-5.66 23.839-8.2-4.558-19.68-10.951-29.38-16.368l5.4-17.412c10.67-.584 21.48 5.425 27.31 8.664zM1154.79 173.862c.21-.033.43-.058.65-.091l-5.36 16.151c-7.04-3.923-12.89-7.195-15.48-8.639 2.78-1.778 9.91-5.751 20.19-7.421zM1147.82 163.98c1.77-.109 3.79-2.12 4.41-2.888l.03-.042.05-.033c1.67-1.661 15.42-13.238 22.9-17.954 14.69-9.265 19.17-11.118 23.11-13.322-10.41-2.404-19.24-3.238-20.62-3.355-2.42.334-5.55 1.018-9.66 1.92-10.03 2.47-18.56 8.096-24.05 11.61l-.78.501c-7.81 4.983-20.19 14.114-23.31 18.822-1.69 2.562-1.32 3.33-1.32 3.355.08.142.36.167.36.167H1119.01c9.09.484 26.79 1.344 28.81 1.219z" fill="#94DAEE"/><path d="M1359.42 253.174s-3.28-13.714-3.51-15.208c-.23-1.494 2.24-10.367-4.19-17.378 4.14.492 7.11 7.871 10.12 13.538.21 4.232.31 13.706-2.42 19.048zM1319.85 280.318s-3.8-3.681-7.14-6.21c-3.33-2.529-5.5-3.305-9.8-3.355-4.29-.042-10.95.15-14.22-.51-3.28-.659-5.93-1.16-8.02-1.435-2.08-.284-3.8-.326-2.4 2.011s3.14 7.32 8.27 8.748c5.13 1.427 7.9 1.627 14.32 1.677 6.42.059 18.99-.926 18.99-.926z" fill="#E1E8EC"/><path d="M1330.12 278.707c.89-.05 1.78-.267 2.66-.635l.72-.3c4.01-1.695 9-3.806 13.45-7.562 3.82-3.222 6.36-5.718 7.76-7.638 1.23-1.694 1.74-3.48 1.54-5.467-.19-1.87-.81-7.587-1.17-10.834-1.48 2.287-4.12 6.152-6.97 9.365-2.41 2.721-7.49 7.671-14.49 10.308-.48.184-.96.376-1.45.576-.47.192-.95.384-1.43.56-5.65 2.145-11.21 3.781-13.94 4.532l9.27 6.177c-.01.008 1.65 1.06 4.05.918zM1299.45 296.569c2.8-.343 10.02-1.035 13.47-1.645.57-.1 1.13-.292 1.35 1.286.22 1.577-1.97 1.903-1.97 1.903-3.03.451-5.86.809-7.69.901 0 0-5.47.393-5.98.418-.63.025-1.1-.334-1.1-.334-.26-1.002.17-2.312 1.92-2.529zM1330.64 290.993l.7 1.711s.66.96 2.61-.008c1.94-.968 9.93-5.267 14.56-8.723 3.43-2.562 6.55-5.951 7.13-6.685.59-.735 1.13-2.605 1.16-3.281.02-.676.41-1.978-1.09-.233-1.5 1.744-6.86 6.301-10.44 8.68-3.58 2.379-12.56 6.895-14.08 7.479.01.008-.84.334-.55 1.06z" fill="#006399"/><path d="M1095.68 161.05s-.98 2.229.99 4.483c1.96 2.253 6.32 6.126 6.32 6.126s1.1.434-.91 2.888c-2.02 2.454-2.28 2.471-2.28 2.471s-.3.35-.78.375c-.37.025-.83-.142-1.35-.793-1.2-1.502-3.65-3.822-4.83-5.759-.87-4.966 1.96-8.756 2.84-9.791z" fill="#0082C8"/><path d="M1223.26 225.395c-1.36-1.201-3.38-.242-6.59.635-9.01-4.616-18.95-9.766-26.13-13.631.12-9.039.85-21.626 1.14-26.476 10.78 5.801 19.07 11.911 24.13 17.812 6.3 7.354 7.44 9.432 11.69 17.178.02.025.03.05.04.075l-.32 8.005-3.96-3.598z" fill="#94DAEE"/><path d="M1244.09 221.332l9.98 4.265c.37-2.446 1.35-6.018.24-12.437-1.09-6.31-4.28-10.7-4.28-10.7s.13-5.217-2.08-11.411a11.113 11.113 0 0 0-3.09-4.632c-1.75 1.118-3.59 2.27-5.45 3.414l4.68 31.501z" fill="#D4CDBF"/><path d="M1270.38 190.857s.56-4.824-1.64-11.009c-1.26-3.514-3.38-5.709-5.15-7.028-3.78 3.013-8.43 6.594-12.85 9.699-1.7 1.193-3.71 2.521-5.87 3.898 1.23 1.093 2.36 2.579 3.1 4.632 2.2 6.194 2.08 11.41 2.08 11.41l20.33-11.602z" fill="url(#paint0_linear)"/><path d="M1254.31 213.168c-1.09-6.31-4.28-10.7-4.28-10.7l20.34-11.602s2.58 3.923 4.31 9.432c1.1 3.505 1.52 9.949 1.15 12.386l-21.76 12.921c.37-2.445 1.36-6.026.24-12.437z" fill="url(#paint1_linear)"/><path d="M1294.33 216.274c-4.72-1.92-10.79-3.84-13.07-4.299-4.02-.81-5.45.676-5.45.676l-21.65 12.846c.45 2.337 5.05 5.968 9.71 8.747 12.72-5.033 22.45-12.612 28.22-16.418.75-.484 1.49-1.01 2.24-1.552z" fill="url(#paint2_linear)"/><path d="M1227.02 207.518l7.38-4.207s.47-4.14-1.41-9.449c-.02-.041-.04-.075-.05-.116-4.99 2.971-9.34 5.475-11.21 6.56.96 1.294 2.89 3.898 5.29 7.212z" fill="url(#paint3_linear)"/><path d="M1234.4 203.311l-7.38 4.207c3.11 4.307 7.03 9.824 10.72 15.308l1.34-.793c.31-2.095-.04-7.621-.99-10.626-1.48-4.724-3.69-8.096-3.69-8.096z" fill="url(#paint4_linear)"/><path d="M1245.37 234.862c7.03-4.257 15-9.374 15.21-10.375.36-1.712-14.54-6.478-18.37-7.212-3.83-.726-5.2.609-5.2.609l-1.9 1.069c3.77 5.475 7.54 11.201 10.26 15.909z" fill="url(#paint5_linear)"/><path d="M1271.45 200.991s5.77 1.519 9.38 4.432c3.61 2.913 8.39 8.497 8.39 8.497l-3.48 5.434s-12.17-5.96-15.53-7.763c-3.35-1.803-6.25-7.32-6.25-7.32l7.49-3.28z" fill="#014B89"/><path d="M1267.35 202.727s1.9 3.205 1.76 4.157c-.14.951.62 2.771.62 2.771s5.84 4.449 7.47 6.744c1.63 2.304 3.2 5.885 2.75 5.918-.44.033-6.65 2.537-6.65 2.537s-5.46-5.801-8.69-7.42c-3.23-1.611-8.09-4.691-9.26-10.066l12-4.641z" fill="#1A64A3"/><path d="M1288.03 190.457s.04.009.09.009c.38.058 1.97.283 2.68.45.81.192 1.27-.058 2.3 1.127 1.03 1.194.98 1.995.94 2.796-.05.802-.32 1.995-.58 2.271-.26.275-.37.551-.74.484-.38-.067-.55-.259-.52-.234.02.025-.5-.008-.47-.551.03-.534.33-1.703.33-1.703l-.3-.959s-.75-.51-.96-.443c-.22.067-2.29.167-2.29.167s-2.9.209-3.99-.075c-1.1-.284-10.47-2.629-11.34-3.205-.85-.584-4.12-4.775-5.49-6.143-1.37-1.369-1.86-5.96-2.65-6.202-.79-.234-2.61-.117-2.61-.117l-1.37-2.771s3.84-3.856 6.27-1.886c2.42 1.961 3.23 3.138 3.63 3.664.41.526 4.5 7.854 5.64 8.689 1.14.834 8.56 4.09 9.73 4.073.84 0 1.7.559 1.7.559z" fill="#F2A983"/><path d="M1267.1 181.985s3.99 4.75 5.2 5.543c1.2.793 2.79-1.052 2.49 0-.3 1.051.07 2.111.49 2.337.42.225 9.3 2.454 9.91 2.637.61.184 2.89-1.377 4.05-.676.69.418 1.01 1.236.87 1.953-.67.05-1.59.092-1.59.092s-2.9.209-3.99-.075c-1.1-.284-10.47-2.629-11.34-3.205-.86-.584-4.12-4.774-5.49-6.143-.4-.401-.73-1.077-1.01-1.837l.41-.626z" fill="#D88F69"/><path d="M1263.72 172.913s2.45-.977 4.26.601c1.8 1.585 5.21 6.627 5.21 6.627s-3.5 5.442-6.15 6.152c-2.65.709-3.32-13.38-3.32-13.38z" fill="#F6C100"/><path d="M1265.46 179.623c.46-.96 3.04-.801 3.73 1.169.41 1.193.91 2.278 1.24 2.946-1.08 1.185-2.3 2.27-3.39 2.562-1.11.293-1.98-1.969-2.63-4.707.49-.927.9-1.678 1.05-1.97z" fill="#DDA800"/><path d="M1258.11 181.626c3.69.676 6.22.501 6.74-1.51.51-2.012-1.68-6.235-1.68-6.235l-.66-.209a305.062 305.062 0 0 1-7.21 5.542c.36 1.06 1.16 2.112 2.81 2.412z" fill="#D88F69"/><path d="M1266.89 193.086c-.06-.759-.48-4.307-.48-4.307.68-.918 1.8-3.464 1.59-7.654-.21-4.19-2.88-7.887-2.88-7.887s-.98-.201-1.78-.226c-.29.226-.59.459-.88.693.02.025.03.05.06.075 1.17 1.327 1.94 4.975-.35 6.193-2.05 1.086-3.85-.133-4.96-1.252-.19-.192-.37-.367-.54-.542a209.421 209.421 0 0 1-5.94 4.324c-.9.634-1.88 1.302-2.94 1.994.35 4.316 4.72 11.636 5.61 13.105 1.04 1.703 2.44 11.101 2.44 11.101 1.39-1.177 6.84-1.953 11.35-3.322 4.53-1.369 4.94-4.482 4.94-4.482s-1.11-.601-1.79-1.277c-.68-.668-3.38-5.776-3.45-6.536z" fill="#F6C100"/><path d="M1263.69 175.984c1.53-.376 1.08-1.678 1.09-2.638.01-.492.07-1.051.14-1.602a416.539 416.539 0 0 1-5.22 4.123c1.43.342 2.96.376 3.99.117z" fill="#F2A983"/><path d="M1264.44 175.625c.62-.559.34-1.528.35-2.279.01-.492.07-1.051.14-1.602l-.09.075c.06.309.06.701-.38.743-.48.041-.19.884-.21 1.427 0 .292.06 1.01.19 1.636z" fill="#D88F69"/><path d="M1254.67 189.13c-.22 2.262-.07 3.464.94 5.358 1 1.895.86 3.706 2.61 4.716 1.74 1.01 3.28-.058 5.05 0 1.77.05 1.63-.025 1.43 1.169-.19 1.185-.09 1.903 1.39 1.477 1.49-.434 3.57-1.127 3.16-.142-.32.793-4.33 3.13-5.61 4.65-1.2.292-2.37.559-3.43.818-1.35-.234-3.03-.585-4.77-.969-.49-2.913-1.34-7.445-2.03-8.58-.95-1.569-5.49-8.264-5.25-12.395l4.9-.576c0-.017 1.83 2.212 1.61 4.474z" fill="#DDA800"/><path d="M1280.02 209.872c.94 0 2.07-.292 3.32-.902 4.33-2.111 8.52-7.278 9.35-11.543.59-3.03-.66-4.783-3-4.783-.94 0-2.07.292-3.32.902-4.32 2.111-8.51 7.278-9.35 11.543-.59 3.03.67 4.783 3 4.783zm-1.09-4.424c.7-3.547 4.35-8.038 7.99-9.816.94-.459 1.8-.693 2.48-.693.54 0 .92.142 1.15.426.36.434.45 1.294.25 2.346-.7 3.547-4.36 8.038-8 9.815-.93.46-1.79.702-2.48.702-.53 0-.92-.142-1.15-.426-.36-.442-.45-1.302-.24-2.354z" fill="#39464A"/><path d="M1309.74 199.789c.77-2.153.15-4.307-.68-5.951-6.2-.067-19.49 9.281-32.54 17.061-12.65 7.537-25.84 18.48-31.22 23.838.11.192.22.384.32.568.29.325 1.83 1.945 4.96 2.821 19.29-3.589 33.86-15.25 41.51-20.299 7.91-5.217 16.05-13.589 17.65-18.038z" fill="url(#paint6_linear)"/><path d="M1306.49 204.939c-.7-4.157-3.62-7.88-3.62-7.88s-6.4-4.741-16.69 0C1275.89 201.8 1274.32 212 1274.32 212v.2c6.08 2.88 13.41 4.825 20.17 3.94 4.61-3.372 9.06-7.57 12-11.201z" fill="url(#paint7_linear)"/><path d="M1259.96 221.816s-.95-5.917 5.82-9.548c6.77-3.631 12.14-.91 12.14-.91s8.54 5.851-1.88 11.485c-10.42 5.634-16.08-1.027-16.08-1.027z" fill="url(#paint8_linear)"/><path d="M1254.44 207.268c.52.567 2.29 1.97 2.64 2.905.35.934.79 2.353.63 3.313-.16.968-.08 2.221-.59 2.362-.51.142-.75.042-.75.042s-.05.66-.71.635c-.65-.026-.56-.293-.56-.293s-.54.409-.83.318c-.29-.092-.42-1.119-.42-1.119s-.46-2.412-.56-2.621c-.08-.209-.51-1.36-.53-.96-.02.393.42 1.912.51 2.421.09.509.44 1.36.14 1.427-.3.059-.99-.776-1.2-1.494-.21-.718-1.05-2.362-1.07-2.855-.02-.484.26-2.512-.11-3.029-.36-.518-4.17-4.065-5.16-6.252-.98-2.195-1-2.237-1.16-3.23-.15-.86.3-1.979.3-1.979s.5-5.892 1.31-7.478c.82-1.586 1.28-2.596 1.32-3.08.05-.484.43-2.413 1.95-2.605 1.52-.192 4.45 2.454 4.53 3.506.08 1.052-1.18 2.195-1.72 3.439-.54 1.244-1.77 8.355-1.77 8.355s2.86 7.237 3.81 8.272z" fill="#F2A983"/><path d="M1257.12 215.848c-.51.142-.75.042-.75.042s-.05.659-.7.634c-.66-.025-.57-.292-.57-.292s-.54.409-.83.317c-.29-.092-.42-1.118-.42-1.118s-.34-1.761-.5-2.404c.13-.401 1.2-.075 1.2-.075s.22-.209.71-.426c.5-.217 1.13-.083 1.13-.083s.29-.084 1.03-.343a.872.872 0 0 1 .21-.05c.1.518.15 1.019.08 1.444-.16.952-.08 2.212-.59 2.354zM1251.69 212.902c.54 0 1.04.058 1.28.083.12.493.25 1.01.3 1.269.09.509.44 1.361.14 1.427-.3.059-.99-.776-1.2-1.494-.09-.309-.31-.793-.52-1.285z" fill="#D88F69"/><path d="M1254.4 184.181c-.43-1.419-1.27-2.246-2.17-2.73-.5.359-1 .718-1.49 1.06-1.27.885-2.71 1.853-4.25 2.855-.47 2.17-.36 4.173-.36 4.173 3.4-.784 6.91 1.327 6.91 1.327s2.23-3.772 1.36-6.685z" fill="#F6C100"/><path d="M1201.92 192.024c-3.06-2.028-6.44-4.048-10.11-6.026l-.14.084c-.26 4.24-.82 13.947-1.04 22.269l11.92-7.078c.27-1.812.05-6.152-.63-9.249z" fill="url(#paint9_linear)"/><path d="M1217.99 206.315c-.65-.785-1.37-1.636-2.17-2.571-1.81-2.112-4.03-4.24-6.64-6.377-1.69-.534-3.14-.935-3.99-1.11-3.45-.693-4.67.584-4.67.584l-9.7 5.759c-.13 3.389-.24 6.795-.29 9.816 2.94 1.586 6.36 3.381 9.97 5.275 3.87-2.303 12.5-7.787 17.49-11.376z" fill="url(#paint10_linear)"/><path d="M1209.06 218.776s.11-4.483-1.77-9.791c-2.11-5.935-8.13-6.461-8.13-6.461l2.32 15.651c3.23 1.686 6.61 3.439 9.96 5.158-1.11-2.813-2.38-4.557-2.38-4.557z" fill="#D4CDBF"/><path d="M1221.93 211.438c-1.5-2.162-3.28-4.399-6.11-7.704-1.9-2.203-4.23-4.44-6.99-6.677l-9.67 5.467s6.02.517 8.13 6.46c1.88 5.309 1.77 9.791 1.77 9.791l12.87-7.337z" fill="url(#paint11_linear)"/><path d="M1223.26 225.395l3.96 3.606.32-8.005c0-.025-.02-.05-.04-.075-2.34-4.274-3.74-6.819-5.58-9.482l-12.86 7.337s1.26 1.744 2.36 4.557c1.76.91 3.52 1.811 5.24 2.696 3.22-.876 5.24-1.836 6.6-.634z" fill="url(#paint12_linear)"/><path d="M1206.19 197.558c.53.626.59 3.973.58 5.651.15-.025.3-.067.45-.125l5.04-3.014a70.752 70.752 0 0 0-6.21-5.141c-1.26.759-2.26 1.36-2.57 1.544.91-.159 2.07.334 2.71 1.085z" fill="url(#paint13_linear)"/><path d="M1203.49 196.465c.9-.142 2.05.342 2.7 1.094.53.626.59 3.973.58 5.65-.58.101-1.07-.025-1.07-.025s-3.05-1.644-3.47-2.387c-.42-.743 1.16-4.265 1.16-4.265s.04-.034.1-.067z" fill="#D4CDBF"/><path d="M1227.42 224.143l-3.35 1.986 3.16 2.871.19-4.857z" fill="url(#paint14_linear)"/><path d="M1169.58 185.457c-2.12-5.935-8.13-6.461-8.13-6.461l2.78 18.822c3.67 2.045 7.29 4.065 10.66 5.935-1.03-5.05-3.54-8.506-3.54-8.506s.11-4.482-1.77-9.79z" fill="#D4CDBF"/><path d="M1185.94 186.926l-14.59 8.322s2.5 3.464 3.54 8.505c2.31 1.285 4.5 2.504 6.5 3.614.71-3.94 2.51-13.53 4.55-20.441z" fill="url(#paint15_linear)"/><path d="M1185.94 186.926c.37-1.227.74-2.387 1.11-3.397-.66-.342-1.44-.776-2.33-1.277-3.78-2.104-9.66-5.359-16.24-7.237l-7.04 3.982s6.02.517 8.13 6.46c1.88 5.309 1.78 9.791 1.78 9.791l14.59-8.322z" fill="url(#paint16_linear)"/><path d="M1168.82 175.114c.22 1.302.25 3.364.25 4.558.15-.025.3-.067.45-.126l4.41-2.637a52.061 52.061 0 0 0-5.11-1.795z" fill="url(#paint17_linear)"/><path d="M1164.53 177.26c.41.743 3.47 2.387 3.47 2.387s.48.125 1.07.025c0-1.202-.03-3.255-.25-4.557-1.19-.351-2.4-.66-3.63-.902-.42 1.085-.91 2.588-.66 3.047z" fill="#D4CDBF"/><path opacity=".45" d="M1184.72 182.251c.89.493 1.67.935 2.33 1.277-2.47 6.694-4.83 19.198-5.66 23.839-8.2-4.558-19.68-10.951-29.38-16.368l5.4-17.412c10.67-.584 21.48 5.425 27.31 8.664zM1250.73 182.509c8.55-5.976 17.89-13.764 20.28-15.775 3.15 2.103 17.2 11.535 22.1 15.458 8.34 6.661 15.34 11.31 15.41 11.352l.09.058.1.042.32.134c.86 1.652 1.49 3.831.71 6.009-1.6 4.449-9.74 12.821-17.65 18.046-7.65 5.042-22.22 16.711-41.51 20.3-3.13-.877-4.67-2.496-4.96-2.822-6.78-11.86-20.66-30.657-23.89-34.998 4.17-2.404 20.42-11.794 29-17.804zM1223.26 225.395c-1.36-1.201-3.38-.242-6.59.635-9.01-4.616-18.95-9.766-26.13-13.631.12-9.039.85-21.626 1.14-26.476 10.78 5.801 19.07 11.911 24.13 17.812 6.3 7.354 7.44 9.432 11.69 17.178.02.025.03.05.04.075l-.32 8.005-3.96-3.598z" fill="#94DAEE"/><path d="M1420.28 120.415h-5.57v109.399h5.57V120.415zM1541.76 124.533h-5.57v109.399h5.57V124.533z" fill="#5F6464"/><path d="M1555.78 71h-156.55c-5.09 0-9.23 4.101-9.23 9.141v88.783c0 5.04 4.14 9.141 9.23 9.141h156.55c5.09 0 9.23-4.101 9.23-9.141V80.141c0-5.04-4.14-9.141-9.23-9.141z" fill="#004EBB"/><path d="M1555.78 73.755c3.55 0 6.45 2.874 6.45 6.39v88.782c0 3.512-2.9 6.389-6.45 6.389h-156.55c-3.55 0-6.45-2.874-6.45-6.389V80.141c0-3.512 2.9-6.389 6.45-6.389h156.55v.004zm0-2.755h-156.55c-5.09 0-9.23 4.101-9.23 9.141v88.783c0 5.04 4.14 9.141 9.23 9.141h156.55c5.09 0 9.23-4.101 9.23-9.141V80.141c0-5.04-4.14-9.141-9.23-9.141z" fill="#fff"/><g clip-path="url(#clip0)"><path d="M1545.67 160.1s-.16-.14-.56-1.04c-.39-.89-.89-.92-1.31-1.66-.41-.74-.8-.86-1.1-1.36-.31-.5-.71-.78-.92-1.1-.21-.32-.36-.72.36-.85 0 0-.98-.39-2.49-.35 0 0-.34-.13 0-.25s.77-.41.64-.59c-.13-.17-.54-.13-.79.07s-.78-.01-.46-.31.82-.89 1.05-.99c.23-.1 1.26-1.32 1.93-2.53.66-1.21 1.64-3.2 2.28-4.96.64-1.76.09-1.16 1.31-2.31 1.23-1.16 1.44-1.54 1.55-1.77 0 0-.45-.14-1.75.45 0 0-1.74.39-2.69.21 0 0 .66 1.27.93 1.45.27.17.54.11-.25 2.39-.79 2.28-2.03 4.58-3.32 5.93 0 0-.05.09.01.16.06.07.09.14.06.35-.02.21.02.44-.02.47-.05.03-.16-.06-.18-.3 0 0-.21-.07-.3-.24l-.14.03s-.27.68-.42.69c-.15.01-.16-.35-.17-.43-.01-.08-.05-.17-.05-.17l-.32.33s.15.05.12.14c-.03.09-.41.8-.5.94-.09.14-.52.79-.66.77 0 0-.06-.04-.05-.07 0 0-.41.72-1.12 1.12-.7.4-1.48.77-1.62.62-.13-.14.4-.87.86-1.72 0 0-.09-.05.07-.51.15-.46.19-.54.15-.53-.04.01-.34.39-.39.51-.06.12-.38.87-.42.95-.04.08-.28.47-.5.24 0 0-.37.83-.78 1.31 0 0-.12-.07-.13-.8 0 0-.16-.38-.17-.79-.01-.41.05-.93-.07-1.16-.12-.22-.17-.18-.17-1.07 0 0 .03-1.66.06-2.82s-.02-1.78-.12-1.82c0 0-.28.21-.29.66-.01.45-.13.74-.2.82 0 0 .01.16 0 .35-.01.19-.04.55 0 .61.04.07-.07.28-.13.24-.06-.04-.24-.32-.24-.46 0 0 .03.32-.59.4-.62.07-1.04-.11-1.56.13 0 0 .4.32 1.07.46s1.2.98 1.33 1.54c.13.56.24 1.72.06 2.8-.18 1.08-.19 1.64-.32 2.28-.13.64-.19 1.16-.62 1.93s-.57 1.54-.6 2.14c0 0 .21 0 1.02-1.22 0 0 .09 0 .09.13 0 0 .07.1.49-.63 0 0 .28-.5.49-.59l-.03.21s.59-.8.97-1.3c.38-.49 1.61-2.28 3.51-2.12 1.89.16 1.86.07 2.48-.27 0 0 1.4.12 1.78 1.25 0 0 .27.56-.04 1.58-.32 1.02-.19 1.19-.15 1.22.04.04.35.37 1.11-1.68 0 0 .07-.04.1.14.03.18.32.99.01 2.01-.3 1.02-.38 1.13-.32 1.17.06.04.79-.1 1.24-1.01.45-.91.29-.74.38-.67.09.07.14.69.19.96.05.27.26.76.33.84.07.08.38-.2.39-1.13 0 0 .16.04.32.31.17.29.29.27.29.27z" fill="#068C42"/><path d="M1533.67 147.96c-.01-.67 0-1.56 0-1.56s-.26-1.21-.3-1.47c-.04-.26-.37-1.83-.44-2.31-.07-.49-.27-1.46-.34-2.12-.07-.66.14-1.32.14-1.32-.03.04-.07.07-.11.11 0 0-.16.16-.3.47-.14.32-.23.32-.42.39 0 0-.09.08-.18.25-.09.18-.32.48-.47.56-.15.08-.41.19-.61.36-.06.05-.1.1-.14.15.04.23.45.27.45.27.88.28 1.2.76 1.45 1.13.25.37.46 1.32.55 1.82.09.5.31 1.75.31 1.75.18.27.16.6.2 1.46.04.86-.03 1.93-.08 2.46s.02 1.61.02 1.5c0-.11.08-.98.09-1.13.01-.14.19-2.1.18-2.77zM1535.82 151.01s.18-.42.06-.63c-.12-.21-.05-.24-.12-.4-.07-.16-.55-.43-.45-.56.1-.13.66-.22 1.36.16.7.38 1.06.72 1.01.84-.04.12-.41.02-.58.23-.16.21-.31.39-.31.39s-.25-.04-.4 0c-.15.04-.18.09-.27.09-.09 0-.3-.12-.3-.12zM1536.12 148.89s-.25-1.11.8-3.02c.98-1.79.8-1.5.76-2.06-.04-.51-.05-.71.11-.78.16-.07.6.62.79 1.09.19.47.6 4.16-.68 5.55 0 0-.24-.22-.59-.42-.35-.2-.5-.3-.29-.49.21-.2.95-1.08.97-1.25.01-.16.02-.3-.16-.34-.18-.05-.14-.25-.01-.63.13-.39.31-.8.24-1.3s-.09-.45-.23-.18-.41.7-.62 1c-.21.3-.94.96-.85 2.61.01-.01.06.13-.24.22z" fill="#068C42"/><path d="M1536.89 128.57c-.1.07-.22.15-.3.23-.12.14-.54.72-.75.79-.22.07-.73.37-1.07.37 0 0-.04-.01-.23.15-.19.17-.44.4-.85.5-.42.1-.74.12-.91.15-.17.03-.41.26-.66.36-.13.05-.25.12-.37.18-.06.06-.12.14-.08.22.06.15.23.21.57.28.34.08.89.18 1.2.56.31.38.58.67.74 1.45.16.78.28 1.41.31 2.43.03 1.02.01 1.77 0 2.39-.01.62-.07 2.71-.11 3.11-.04.4-.22 2.17-.33 2.71-.11.54-.2.92-.23 1.11-.02.19 0 .34.04.48.04.14 0 .88 0 1.09 0 .21-.05 1.16-.06 1.45-.01.29-.09 1.35-.1 1.58-.01.23-.05 1.39-.07 1.66-.03.27-.07 1.67-.05 1.88.03.21.06.25.06.25l.09-1.39c.04-.46.16-1.59.18-1.95.02-.35.13-1.38.16-1.66.03-.29.08-.58.09-.89.02-.31.15-1.19.2-1.53.05-.34.15-1.24.2-1.52.05-.28.18-1.32.22-1.63.04-.31.23-1.82.25-2.12.02-.31.21-1.79.19-2.34-.02-.55-.05-1.82-.08-2.41-.03-.59-.09-1.48-.11-2.1-.02-.62-.03-1.46.25-2.17.27-.7.74-1.56 1.08-2.06.35-.49.87-1.33.77-1.52-.06-.08-.14-.1-.24-.09z" fill="#068C42"/><path d="M1544.82 157.96s-.36-.3-.42-.37-.11-.19 0-.18c.11.01.79.25.94.35.15.1.69.28.83-.05 0 0 .06-.03-.08-.14-.14-.12-.56-.6-.92-.76-.36-.16-.36-.21-.74-.33-.38-.12-.61-.34-.52-.34.09 0 .2-.08.33-.06.13.02.2-.03.1-.11s-.4-.29-.85-.53c-.45-.23-.96-.48-.97-.76 0 0 .43-.08.43-.14 0-.06-.41-.31-.81-.44-.72.13-.57.53-.36.85.21.32.61.6.92 1.1.31.5.69.62 1.1 1.36.41.74.92.76 1.31 1.66.39.89.56 1.04.56 1.04s-.13.02-.29-.26a.8.8 0 0 0-.17-.21s.53 1.1.85 1.23c.32.13.41-.8.06-1.43-.33-.62-.69-1.15-1.3-1.48zM1531.66 149.35c.62-.07.59-.4.59-.4-.01.15.18.43.24.46.06.04.17-.18.13-.24-.04-.07-.01-.42 0-.61s0-.35 0-.35-.09-.11-.15-.49-.04-.35-.2-.18c-.16.17-.25.41-.3.67-.05.26-.19.66-.44.59 0 0-.04-.01-.1.07-.06.08-.17.25-.39 0s-.13-.92-.14-.96c-.01-.04.01-.11-.1-.09-.12.02-.28.14-.38.25-.09.12-.34.45-.39.44-.05-.01-.32-.09-.44-.12s-.49-.09-.67.01c-.18.1-.28.36-.37.37-.09.01-.21.06-.48.01-.27-.05-.52-.04-.91.04-.39.09-.53.1-.54.17-.01.07.09.23.41.27.33.04.64.02.67.04.03.02.04.13-.04.15-.08.01-1.73.84-1.49 1.53 0 0 .11.08.47-.12s1.77-.97 2.79-1.19c0 0 .2-.04.36-.04.15 0 .24.01.31-.15.52-.24.94-.05 1.56-.13zM1537.95 149.83c-.09-.08-.04-.16-.04-.16s-.24-.22-.59-.42c-.35-.2-.5-.3-.29-.49.21-.19.95-1.08.97-1.25.01-.16.02-.3-.16-.34-.18-.05-.14-.25-.01-.63.13-.39.31-.8.24-1.3s-.09-.45-.23-.18-.41.7-.62 1c-.21.3-.94.96-.85 2.61 0 0 .05.14-.25.23.03.26-.26.25-.26.25-.47.07-.62.15-.76.35-.14.2.06.36.3.47.17.08.33.18.41.23-.01-.07 0-.12-.04-.22-.07-.16-.55-.43-.45-.56.1-.13.66-.22 1.36.16.7.38 1.06.72 1.01.84-.04.12-.41.02-.58.23-.01.01-.02.03-.03.04.26-.15.4.19.72.22.31.03.29 0 .42-.35.11-.36-.18-.65-.27-.73zM1534.99 153.64c.04-.08.37-.83.42-.95.06-.12.35-.5.39-.51.04-.01.01.07-.15.53-.15.46-.07.51-.07.51l1.19-2.19s-.25-.04-.4 0c-.15.04-.18.09-.27.09-.09 0-.29-.12-.29-.12s-.14.49-1.33 2.87c.22.24.46-.16.51-.23zM1539.85 151.16s.09.04.14 0c.06-.04 0-.32-.13-.38l-.2.19c.06.09.13.15.19.19zM1539.09 151.69c.01 0 .01 0 .02-.01s.03-.02.04-.03c.15-.14.36-.66.36-.66s-.2-.16-.24-.18c-.04-.02-.1.01-.14.03-.03.03-.26.24-.26.24s.04.09.05.17c.01.08.02.45.17.44zM1537.51 153.27c.13.02.56-.63.66-.77.09-.14.48-.85.5-.94.03-.09-.12-.14-.12-.14s-.14.14-.17.18c-.03.05.02.2-.05.27-.06.07-.79 1.21-.87 1.33-.01.04.05.07.05.07z" fill="#59C95B"/><path d="M1539.81 151.12c.02.01.03.02.05.03-.02 0-.04-.01-.05-.03zM1540 151.16c-.06.04-.14 0-.14 0 .07.04.12.06.12.06.01.24.13.33.18.3.05-.03 0-.26.02-.47.02-.21 0-.28-.06-.35-.06-.07-.01-.16-.01-.16l-.23.25c.12.04.18.33.12.37zM1533.22 148.55c-.03 1.16-.06 2.82-.06 2.82 0 .9.05.85.17 1.07.12.22.06.75.07 1.16.01.41.17.79.17.79l.05-.45s-.04-.04-.06-.25c-.03-.21.02-1.61.05-1.88.03-.27.06-1.43.07-1.66.01-.23.09-1.29.1-1.58.01-.29.06-1.24.06-1.45 0-.16.03-.65.02-.93-.08.02-.15.04-.22.06.02.08.03.13.03.13s-.01.9 0 1.56c.01.67-.18 2.63-.19 2.77-.01.14-.09 1.02-.09 1.13 0 .11-.07-.97-.02-1.5s.12-1.6.08-2.46c-.04-.81-.03-1.14-.17-1.41-.14.13-.19.24-.19.24.11.06.16.68.13 1.84z" fill="#2F662F"/><path d="M1547.35 139.85s-.07-.01-.18-.01h-.03c-.1 0-.19.01-.25.02-.37.04-.76.16-1.17.35-.01 0-.46.26-1.35.27h-.01s-.45.13-1.02.13h-.14c-.18-.01-.36-.03-.52-.06l-.06-.01.02.06.05.18c.03.06.67 1.29.95 1.47.02.01.04.03.06.04.22.13.33.21-.39 2.29-.82 2.37-2.07 4.6-3.3 5.88l-.5.5c-.05-.04-.2-.16-.24-.18-.01-.01-.03-.01-.05-.01-.05 0-.1.02-.13.05-.03.03-.26.24-.27.25l-.32.33c-.01.01-.14.14-.18.19-.02.03-.02.07-.02.12 0 .05 0 .11-.02.14-.05.06-.5.75-.86 1.32l-.01.02c0 .01-.48.67-1.17 1.06-.72.41-1.17.64-1.4.66-.04 0-.08-.01-.09-.02-.07-.08.16-.46.41-.87.14-.23.3-.49.44-.77l1.19-2.19s.13-.16.27-.34c.04-.02.07-.03.11-.03.08 0 .15.05.23.11.1.06.2.14.35.15.07.01.11.01.15.01.17 0 .2-.08.27-.28.01-.03.02-.07.04-.11.13-.36-.14-.65-.26-.76-.06-.05-.04-.1-.04-.11 1.29-1.4.93-5.1.72-5.6-.13-.33-.48-.93-.71-1.11l-.01-.01h-.01c-.09-.06-.14-.05-.14-.05-.01 0-.02 0-.02.01-.19.08-.2.35-.16.87.01.09.02.16.03.21.04.3.03.31-.8 1.81-1.04 1.9-.77 3.03-.76 3.07.01.06 0 .1-.03.14-.06.07-.18.07-.19.07h-.01c-.46.07-.64.15-.79.36-.05.07-.06.14-.04.21.03.11.15.22.35.32.16.07.31.17.39.22.01.05.04.11.08.18.11.19-.06.59-.06.59 0 .01-.16.53-1.33 2.87 0 .01-.41.74-.74 1.23-.04-.2-.08-.21-.11-.7l.05-.44.09-1.39c.01-.18.04-.47.07-.77.05-.47.09-.96.11-1.18.02-.35.13-1.37.16-1.66.01-.06.01-.12.02-.18.03-.23.06-.46.07-.71.02-.29.14-1.12.2-1.52.03-.17.07-.49.11-.8.04-.3.07-.58.09-.72.04-.28.19-1.32.22-1.64.01-.11.05-.38.08-.68.07-.55.16-1.24.17-1.44.01-.09.03-.29.05-.54.06-.56.15-1.42.14-1.8v-.07c-.02-.57-.05-1.77-.08-2.33-.01-.21-.03-.46-.04-.72-.03-.48-.06-.97-.07-1.37-.02-.73-.01-1.5.24-2.15.26-.66.71-1.52 1.08-2.05.15-.22.91-1.31.77-1.56-.04-.08-.11-.12-.21-.12h-.07l-.03.02c-.1.06-.2.14-.27.22-.02.03-.06.07-.1.13-.16.21-.47.6-.63.65a2.2 2.2 0 0 0-.27.11c-.23.11-.55.25-.78.25h-.01c-.06 0-.17.09-.26.16l-.04.04c-.19.16-.42.36-.79.45-.27.06-.51.09-.68.12-.09.01-.17.02-.23.03-.1.02-.21.09-.33.17-.11.07-.22.14-.34.19-.1.04-.2.09-.3.15-.03.01-.05.03-.08.04-.12.11-.11.21-.09.26.07.18.27.23.6.3l.06.01c.33.07.83.18 1.11.53l.07.09c.28.34.52.64.66 1.35.15.75.28 1.39.31 2.42.03.99.01 1.73 0 2.33v.06c-.01.63-.07 2.7-.11 3.11l-.01.08c-.05.52-.22 2.12-.32 2.62-.03.14-.06.28-.09.4-.07.33-.12.57-.14.71-.02.17-.01.32.04.5 0 .02.01.05.01.13h-.02c-.05.01-.1.03-.13.04-.06-.3-.23-1.09-.26-1.3-.02-.09-.06-.33-.12-.64-.11-.57-.27-1.36-.31-1.68-.03-.2-.08-.47-.13-.77-.08-.45-.17-.96-.21-1.35-.07-.65.13-1.3.13-1.31l.01-.11-.08.08c-.04.04-.07.07-.11.1-.01.01-.17.17-.31.49-.12.27-.19.3-.34.35-.02.01-.04.01-.06.02h-.01s-.09.08-.19.26c-.09.17-.31.47-.45.55-.03.02-.07.04-.12.06-.15.08-.34.17-.51.31a.7.7 0 0 0-.14.16l-.01.01v.02c.05.25.46.3.48.3.86.28 1.19.76 1.43 1.12.25.37.46 1.34.54 1.8.08.49.31 1.74.31 1.75v.02c.01.01.01.02.01.02-.1.1-.16.19-.17.22-.05.04-.29.26-.3.69-.01.37-.1.63-.16.75a1.35 1.35 0 0 1-.11-.42l-.01-.09c-.03-.19-.04-.24-.09-.24-.03 0-.06.03-.11.08-.01.01-.03.03-.04.05-.15.15-.25.38-.31.69-.05.26-.17.57-.35.57-.01 0-.03 0-.04-.01h-.01c-.02 0-.07.01-.13.09-.03.05-.08.11-.15.11-.05 0-.12-.04-.18-.12-.17-.19-.14-.7-.13-.87v-.08-.02c0-.03-.01-.1-.1-.1h-.04c-.12.02-.3.14-.4.27-.02.02-.04.06-.07.09-.08.1-.24.31-.29.34-.03-.01-.12-.03-.2-.06-.08-.02-.17-.05-.22-.06-.07-.02-.22-.04-.38-.04-.14 0-.24.02-.32.06a.99.99 0 0 0-.25.25c-.04.05-.09.12-.11.12-.01 0-.03.01-.04.01a.95.95 0 0 1-.2.02c-.07 0-.14-.01-.23-.02-.12-.02-.22-.03-.34-.03-.17 0-.35.02-.59.08-.08.02-.15.03-.21.05-.26.06-.35.07-.36.15-.01.08.09.27.45.31.19.02.38.02.51.03h.14c0 .01.01.03 0 .05-.01.02-.02.02-.03.02-.08.01-1.12.53-1.44 1.09-.1.17-.13.34-.07.48v.01l.01.01c.01 0 .03.02.1.02s.2-.02.4-.14c.65-.36 1.88-.99 2.78-1.19 0 0 .2-.04.35-.04h.05c.12 0 .2-.01.27-.13.11.08.48.32 1.05.44.66.14 1.18.97 1.3 1.51.1.47.25 1.66.06 2.79-.1.56-.14.98-.19 1.35-.04.33-.07.62-.13.93-.01.07-.02.13-.04.19-.11.56-.24 1.01-.62 1.7-.46.84-.54 1.66-.56 2.18v.04h.04c.04 0 .26-.06 1.04-1.21.02.01.04.03.04.09v.01l.01.01s.02.02.04.02c.03 0 .14 0 .5-.65 0 0 .22-.4.41-.54l-.02.13-.02.15.09-.12c.01-.01.59-.81.96-1.3l.06-.08c.42-.56 1.53-2.04 3.18-2.04.08 0 .16 0 .24.01.63.05 1.02.08 1.31.08.56 0 .73-.09 1.04-.26.04-.02.09-.05.14-.08.13.01 1.39.18 1.74 1.22 0 .01.26.57-.04 1.56-.22.73-.27 1.15-.14 1.26.02.02.06.05.12.05.26 0 .61-.58 1.04-1.72.01.01.02.04.03.11 0 .03.01.07.03.12.07.3.25 1.01-.01 1.88-.11.37-.19.62-.24.79-.11.34-.12.38-.06.42.01.01.03.01.06.01.23 0 .85-.26 1.23-1.04.18-.37.27-.56.31-.65 0-.01 0-.01.01-.02l.01.01c.05.04.1.4.13.62.02.12.03.23.05.31.05.26.26.77.34.86.01.02.04.03.06.03.15 0 .37-.36.39-1.12.02.01.05.03.09.06.05.1.55 1.12.87 1.24.02.01.05.01.07.01.05 0 .11-.02.17-.11.15-.25.13-.91-.13-1.38-.36-.66-.73-1.17-1.32-1.49-.09-.08-.36-.3-.41-.36a.236.236 0 0 1-.06-.12h.02c.11.01.78.25.93.34.09.06.32.14.51.14.18 0 .31-.07.37-.2.01-.01.02-.02.02-.04.01-.04-.03-.09-.1-.16-.03-.03-.08-.07-.14-.14-.19-.19-.51-.51-.79-.64-.14-.06-.22-.11-.29-.14-.12-.06-.21-.11-.45-.19a1.56 1.56 0 0 1-.5-.27l.1-.03c.05-.02.1-.04.16-.04h.09c.09 0 .12-.04.12-.06.01-.04-.01-.08-.06-.12-.11-.09-.41-.29-.86-.53l-.09-.05c-.38-.2-.82-.42-.86-.66.42-.08.42-.14.42-.17 0-.1-.48-.44-.83-.55-.01 0-.9-.33-2.26-.33-.07 0-.17.02-.24.02-.04-.01-.06-.01-.07-.05 0-.02-.01-.05.08-.09.25-.09.62-.3.68-.5.02-.05.01-.15-.02-.19a.403.403 0 0 0-.32-.14c-.18 0-.39.11-.54.22-.06.04-.13.1-.21.1-.13 0-.24-.05-.27-.13-.03-.07.03-.14.08-.19.11-.1.24-.23.37-.38.24-.26.52-.55.67-.61.24-.1 1.27-1.32 1.95-2.55.64-1.16 1.62-3.16 2.28-4.97.19-.53.28-.85.34-1.06.12-.44.12-.44.76-1.04l.21-.2c1.26-1.19 1.46-1.57 1.56-1.77l.14-.11.01-.01v-.01l.02-.1.01-.04.02.06zm-.02.14l-.15.12c-.11.23-.33.61-1.55 1.77-1.22 1.16-.67.56-1.31 2.31-.64 1.76-1.61 3.75-2.28 4.96-.66 1.21-1.7 2.43-1.93 2.53-.23.1-.73.7-1.05.99-.23.21-.02.38.22.38.09 0 .18-.02.24-.08.14-.11.34-.17.51-.17.12 0 .23.03.29.11.13.17-.31.47-.64.59-.34.12 0 .25 0 .25h.23c1.37 0 2.25.35 2.25.35.4.13.81.38.81.44s-.43.14-.43.14c.01.29.52.53.97.76.45.23.75.44.85.53.09.07.05.11-.04.11h-.1c-.11 0-.21.07-.29.07-.09 0 .14.22.52.34.38.12.38.17.74.33s.78.65.92.76c.14.12.08.14.08.14-.06.14-.19.18-.34.18-.19 0-.41-.08-.49-.14-.15-.1-.83-.34-.94-.35h-.01c-.1 0-.05.11.01.18a8 8 0 0 0 .42.37c.6.33.97.86 1.31 1.48.32.58.27 1.44-.01 1.44-.02 0-.04 0-.06-.01-.32-.13-.85-1.23-.85-1.23a.496.496 0 0 0-.15-.1c-.01.83-.26 1.14-.36 1.14-.01 0-.02 0-.03-.01-.07-.08-.28-.57-.33-.84-.05-.27-.1-.89-.19-.96-.03-.02-.03-.06-.04-.06-.01 0-.05.13-.34.73-.4.82-1.04 1.02-1.2 1.02-.02 0-.03 0-.04-.01-.06-.04.01-.15.32-1.17.3-1.02.01-1.83-.01-2.01-.02-.12-.06-.14-.08-.14h-.02c-.55 1.49-.87 1.72-1.01 1.72-.05 0-.09-.03-.1-.04-.04-.04-.17-.2.15-1.22s.04-1.58.04-1.58c-.38-1.13-1.78-1.25-1.78-1.25-.43.23-.55.34-1.18.34-.3 0-.7-.03-1.31-.08-.08-.01-.16-.01-.24-.01-1.76 0-2.91 1.66-3.27 2.13-.38.49-.97 1.3-.97 1.3l.03-.21c-.21.09-.49.59-.49.59-.32.57-.44.63-.47.63-.01 0-.01-.01-.01-.01 0-.13-.09-.13-.09-.13-.82 1.22-1.02 1.22-1.02 1.22.02-.6.17-1.36.6-2.14.43-.77.49-1.29.62-1.93.13-.64.13-1.2.32-2.28.18-1.08.07-2.24-.06-2.8-.13-.56-.66-1.4-1.33-1.54-.67-.14-1.07-.46-1.07-.46-.07.14-.14.15-.26.15h-.05c-.15 0-.36.04-.36.04-1.02.22-2.43.99-2.79 1.19-.2.11-.32.13-.39.13-.06 0-.08-.02-.08-.02-.24-.69 1.41-1.51 1.49-1.53.08-.01.07-.13.04-.15-.03-.02-.34 0-.67-.04s-.42-.2-.41-.27c.01-.07.15-.08.54-.17.23-.05.41-.08.58-.08.11 0 .22.01.33.03.09.02.17.02.23.02.12 0 .19-.02.25-.03.09-.01.19-.27.37-.37.08-.04.19-.06.3-.06.15 0 .3.03.37.04.12.03.39.12.44.12.05 0 .3-.33.39-.44.09-.12.26-.23.38-.25h.04c.07 0 .06.06.06.09.01.04-.08.71.14.96.09.1.15.13.21.13.09 0 .15-.08.18-.13.05-.07.09-.07.1-.07.02 0 .04.01.05.01.21 0 .34-.36.38-.6.05-.26.14-.5.3-.67.07-.07.1-.12.13-.12s.04.08.07.3c.06.38.15.49.15.49.07-.08.18-.37.2-.82.01-.45.29-.66.29-.66s.05-.11.19-.24c-.01-.02-.02-.04-.03-.05 0 0-.23-1.26-.31-1.75-.08-.49-.3-1.44-.55-1.82-.25-.37-.58-.85-1.45-1.13 0 0-.4-.05-.45-.27.04-.05.08-.1.14-.15.2-.17.46-.28.61-.36.15-.08.38-.38.47-.56.09-.18.18-.25.18-.25.19-.08.28-.08.42-.39.14-.32.3-.47.3-.47.04-.03.08-.07.11-.11 0 0-.21.66-.14 1.32.07.66.27 1.64.34 2.12.07.49.39 2.05.44 2.31.04.21.21 1.03.27 1.34.01 0 .02-.01.03-.01.03-.01.08-.03.13-.04.02 0 .03-.01.05-.01 0-.07-.01-.13-.02-.16-.04-.14-.06-.29-.04-.48.02-.19.11-.57.23-1.11.12-.54.29-2.3.33-2.71.04-.4.1-2.49.11-3.11.01-.62.03-1.37 0-2.39s-.15-1.65-.31-2.43c-.16-.78-.43-1.07-.74-1.45-.31-.38-.86-.48-1.2-.56-.34-.08-.51-.13-.57-.28-.04-.08.02-.17.08-.22.12-.06.25-.14.37-.18.25-.1.49-.32.66-.36.17-.03.5-.05.91-.15.42-.1.66-.33.85-.5.17-.15.22-.15.23-.15h.01c.34 0 .85-.3 1.06-.37.22-.07.64-.65.75-.79.07-.08.19-.16.3-.23h.05a.2.2 0 0 1 .18.1c.1.19-.42 1.03-.77 1.52-.35.49-.81 1.36-1.08 2.06s-.26 1.55-.25 2.17c.02.62.08 1.5.11 2.1.03.6.06 1.86.08 2.41.02.55-.17 2.03-.19 2.34-.02.31-.22 1.8-.25 2.12-.03.32-.17 1.35-.22 1.63-.05.28-.15 1.19-.2 1.52-.05.34-.18 1.22-.2 1.53-.02.31-.06.6-.09.89-.03.29-.14 1.31-.16 1.66-.02.35-.14 1.49-.18 1.95-.04.46-.09 1.39-.09 1.39l-.05.45c.01.73.13.8.13.8.41-.48.78-1.31.78-1.31 1.19-2.38 1.33-2.87 1.33-2.87s.18-.42.06-.63a.376.376 0 0 1-.07-.18c-.08-.05-.24-.16-.41-.23-.24-.11-.43-.28-.3-.47.14-.2.29-.28.76-.35.03 0 .29-.01.26-.25 0 0-.25-1.11.8-3.02.98-1.79.8-1.5.76-2.06-.04-.51-.05-.71.11-.78h.02c.18 0 .59.65.77 1.1.19.47.6 4.16-.68 5.55 0 0-.04.08.04.16.09.08.38.36.25.72-.11.29-.11.36-.27.36-.04 0-.08 0-.14-.01-.26-.03-.4-.26-.59-.26-.04 0-.08.01-.13.04.01-.01.02-.02.02-.03l-.31.39-1.19 2.19c-.46.85-1 1.57-.86 1.72.02.02.05.03.1.03.26 0 .92-.32 1.52-.66.7-.4 1.12-1.12 1.12-1.12.08-.12.81-1.26.87-1.33.06-.07.01-.22.05-.27.03-.05.17-.18.17-.18l.32-.33s.23-.22.26-.24c.02-.02.07-.04.1-.04.01 0 .02 0 .03.01.04.02.24.18.24.18l.16-.02.2-.19.23-.25c1.29-1.35 2.53-3.65 3.32-5.93s.52-2.21.25-2.39c-.27-.17-.93-1.45-.93-1.45l-.05-.18c.18.04.36.05.52.06H1543.33c.58 0 1.03-.13 1.03-.13.91-.01 1.37-.28 1.37-.28.49-.22.88-.31 1.16-.34.06-.01.15-.02.25-.02h.03c.12 0 .18.01.18.01l-.02.08z" fill="#215D4C"/><path d="M1547.14 139.88c-.1 0-.19.01-.25.02-.28.03-.67.12-1.16.34 0 0-.45.26-1.37.28 0 0-.5.15-1.14.13h-.02c-.17-.01-.34-.02-.52-.06l.05.18c.94.18 2.69-.21 2.69-.21 1.31-.59 1.75-.45 1.75-.45l.15-.12.02-.1c.01 0-.07-.01-.2-.01z" fill="#267B44"/><path d="M1529.16 131.05s.44.53.53.68c.09.15.31.36.44.68.13.32.2.75.25.95.06.2.26.9.28.97.01.07-.44-.28-.57-.71-.13-.43-.17-.88-.41-1.26-.25-.39-.52-.65-.52-1.31zM1523.25 138.06s-.05.18.1.23c.15.05.57-.76.57-1.02s.09-.82-.46-.9c-.55-.08-.89.19-.95-.06-.07-.25.5-.34.75-.34s.69.15.9.28c.22.13.9.47 1.19.28.28-.18.77-.39.26-.68-.51-.29-1.11-.62-1.59-.62s-.93.08-1.23.15c-.3.07-.52.09-.52-.04s.11-.28.48-.35c.37-.07 1.44-.17 2.02.06.57.23.74.25.77.02.03-.23-.09-.35-.04-.61.05-.26.28-.37.3-.42.02-.05.01-.1-.12-.12-.27-.04-.26-.14-.24-.36.03-.22.24-.19.36-.24.12-.05.33-.37.39-.66.06-.28.11-.52-.15-.8s-.43-.6-.97-.52c-.54.08-1.34.84-1.66 1.14-.32.3-1.1.99-1.43 1.47-.33.48-.78 1.17-.85 1.28-.07.11-.23.37 0 .5s.71.29.78.79c.08.51.18 2.09.57 2.23 0 0 .32.14.5-.04.18-.17-.17-.05-.33-.1s-.21-.42-.22-.62c0-.19.11-.27.2-.21.1.06.05.15.17.14.13-.01.11-.16.26-.16.16.04.22.16.19.3z" fill="#FFDE39"/><path d="M1531.37 140.17c.07-.09.14-.16.19-.21.04-.04.09-.08.14-.12.02-.11-.05-.36-.51-.84-.01 0 .24.91.18 1.17z" fill="#EDECA0"/><path d="M1533.02 138.5c-.22.09-.36.01-.41-.03-.05-.04-.1-.29-.2-.59s-.44-.84-.53-.94c-.09-.1-.33-.38-.37-.46-.04-.08-.33-.8-.39-.92-.05-.11-.26-.72-.34-1.2-.08-.47-.31-1.09-.39-1.58-.08-.49-.24-.7-.38-1-.14-.3-.7-1.19-.92-1.61-.23-.42-.47-.32-.47-.32s-.5.35-.71.67c-.02.01-.04.02-.05.03.37-.22.51-.17.58-.13.07.04-.04.22-.13.39s-.28.86-.47.98c-.18.12-.27.11-.32-.05-.05-.16-.27-.45-.27-.45.06.13-.02.61-.18.9 0 0 .26-.31.38-.24s.08.19.05.3c-.03.1.14.34.2.43.03.05.07.11.08.17.01 0 .03.01.06.04.17.16.33.76.49 1.21.16.46.63 1.31 1.19 2.15.56.84.74 1.26.74 1.26-.09-.18-.17-.32-.78-1.21-.61-.88-.99-1.61-1.15-1.91-.16-.31-.41-1.04-.45-1.17-.02-.08-.1-.25-.12-.33-.01.02-.02.04-.04.05-.1.06-.23-.04-.36-.02-.13.02-.37.24-.43.28l-.01.01c.06-.04.11-.05.13-.04.04.01-.09.16-.09.16-.79.68-1.26.95-1.27 1.64-.01.69.56 1.36.91 1.73.35.37.78.65 1.04 1.08.26.42.63.76.86 1 .23.23.57.34 1.01.68.44.34 1.21.46 1.21.46-.63.08-1.34-.41-1.49-.52-.15-.12-.64-.39-.75-.48-.08-.07-.4-.28-.65-.55 0 0-.58-.15-1.26-.52-.68-.36-2.34-.56-2.92.05-.12.22-.26.41-.34.39 0 0-.02.22.4.2.43-.01.98-.38 2.84.88 1.85 1.26 1.53.91 1.53.88.01-.03-1.22-.83-1.21-.9.01-.07.76.21 1.47.69.72.48 1.24.61 1.29.55.05-.06-.14-.26-1.08-.77 0 0 .34.01.79.24.46.24.72.39.92.45.2.06.52.2.69.04.1-.1.24-.26.36-.4.07-.26-.19-1.17-.19-1.17.46.48.53.72.51.84-.05.04-.09.08-.14.12.12-.11.27-.23.36-.37.1-.14.33-.62.38-.71.05-.09.3-.31.5-.32 0 0 .08 0 .02.04-.06.03-.31.16-.37.25-.07.09-.2.37-.31.58-.1.21-.34.44-.42.5-.08.06-.21.22-.42.5s-.31.38-.58.53c-.27.16-.83.5-.86.49-.21.22-.52.75-.4.82.12.08.46-.17.72-.41.25-.24.24-.38.45-.56.2-.17.46-.28.61-.36.15-.08.38-.38.47-.56.09-.18.18-.25.18-.25.19-.08.28-.08.42-.39.14-.32.3-.47.3-.47.5-.33.48-.75.48-.75zm-2.93-4.88c-.13-.43-.17-.88-.41-1.26-.25-.39-.51-.64-.51-1.31 0 0 .44.53.53.68.09.15.31.36.44.68.13.32.2.75.25.95.06.2.26.9.28.97.01.07-.45-.28-.58-.71z" fill="#E7E56E"/><path d="M1531.51 140.01l.05-.05c-.02.02-.04.03-.05.05zM1531.43 140.1c-.01.02-.03.03-.05.05l.05-.05zM1531.49 140.03c-.01.01-.02.03-.04.04.02-.01.03-.03.04-.04z" fill="#E7E56E"/><path d="M1521.8 134.91s.44-.21.76-.13c.19.05.16-.22-.09-.22-.24 0-.49.15-.67.35zM1524.34 134.34c.03.02-.75-.17-1.13-.07-.26.07-.29-.19-.18-.25.22-.13.7-.08 1.31.32z" fill="#EDECA0"/><path d="M1529.82 141.36s-.23.25-2.32-1.23c-2.08-1.48-2.72-1.29-4.78-1.15 0 0 .57-.44.64-.68 0 0-.02.22.4.2.43-.01.98-.38 2.84.88 1.85 1.26 1.53.91 1.53.88.01-.03-1.22-.83-1.21-.9.01-.07.76.21 1.47.69.72.48 1.24.61 1.29.55.05-.06-.14-.26-1.08-.77 0 0 .34.01.79.24.46.24.72.39.92.45.2.06.52.2.69.04.16-.16.43-.5.54-.61.12-.11.27-.23.36-.37.1-.14.33-.62.38-.71.05-.09.3-.31.5-.32 0 0 .08 0 .02.04-.06.03-.31.16-.37.25-.07.09-.2.37-.31.58-.1.21-.34.44-.42.5-.08.06-.21.22-.42.5s-.31.38-.58.53c-.27.16-.83.5-.86.49-.03.01-.02-.08-.02-.08zM1530.29 137.52s-.18-.41-.74-1.26c-.56-.84-1.03-1.69-1.19-2.15-.16-.46-.32-1.05-.49-1.21-.17-.16.01.2.05.33s.29.86.45 1.17c.16.31.54 1.03 1.15 1.91.6.89.68 1.03.77 1.21z" fill="#B26A34"/><path d="M1530.76 139.93s-.77-.12-1.21-.46c-.44-.34-.78-.45-1.01-.68-.23-.23-.6-.57-.86-1-.26-.42-.69-.7-1.04-1.08-.35-.38-.92-1.04-.91-1.73.01-.69.48-.96 1.27-1.64 0 0 .12-.15.09-.16-.04-.01-.12.01-.23.12-.12.11-1.35.74-1.27 1.68.08.94.53 1.38.96 1.84.43.46.92.88 1.13 1.28.21.4.74.73.85.83.11.1.6.36.75.48.14.11.85.6 1.48.52z" fill="#B26A34"/><path d="M1522.48 138.79c-.4-.14-.5-1.72-.57-2.23-.08-.51-.56-.66-.78-.79-.22-.13-.07-.39 0-.5.07-.11.52-.8.85-1.28.33-.48 1.11-1.17 1.43-1.47.32-.3 1.12-1.06 1.66-1.14.54-.08.71.24.97.52s.21.52.15.8-.26.61-.39.66c-.12.05-.33.02-.36.24-.03.22-.03.32.24.36.13.02.14.07.12.12-.02.05-.24.16-.3.42-.05.26.06.38.04.61-.03.23-.19.21-.77-.02-.57-.23-1.65-.12-2.02-.06-.37.07-.48.22-.48.35 0 .13.22.11.52.04.3-.08.75-.15 1.23-.15s1.08.33 1.59.62.02.5-.26.68c-.28.18-.97-.15-1.19-.28-.22-.13-.65-.28-.9-.28s-.82.09-.75.34c.07.25.4-.02.95.06.56.08.46.64.46.9v.07c0 .02-.01.03-.01.05 0 .01 0 .01-.01.02 0 .02-.01.04-.02.06v.01c-.01.02-.02.05-.02.07v.01c-.04.11-.1.23-.16.34.58-.61 2.24-.41 2.92-.05.68.36 1.26.52 1.26.52a1.86 1.86 0 0 1-.21-.28c-.21-.4-.7-.82-1.13-1.28-.43-.46-.88-.9-.96-1.84-.08-.94 1.16-1.57 1.27-1.68.04-.04.07-.06.1-.08 0 0 .01 0 .01-.01.06-.04.3-.26.43-.28.13-.02.27.08.36.02.1-.06.03-.18-.03-.26-.06-.08-.23-.32-.2-.43.03-.1.06-.23-.05-.3-.12-.07-.38.24-.38.24-.05.09-.11.16-.17.2-.27.13-.5-.1-.53-.17-.03-.07-.44-.59-.6-.74-.16-.15-.34-.22-.41-.35-.07-.13.17-.31.17-.31.08-.07.38-.3.9-.47.52-.17.52-.01.86.16.33.17.55.07.55.07a.3.3 0 0 1 .08-.04c.2-.31.71-.67.71-.67-.3-.02-.72.58-1 .6-.28.02-.45-.52-.85-.52-.41 0-1.11.32-1.42.52-.3.2-.97.82-1.71 1.48s-1.76 1.4-1.99 1.7c-.22.3-1.19 1.47-1.05 1.96.14.49.72.57.83.67.12.11.35.94.42 1.48.06.54.22 1.1.54 1.17.14.03.26.01.36-.02.05-.04.13-.11.21-.18-.18.15-.51.02-.51.02z" fill="#EDECA0"/><path d="M1523.25 138.06c.03-.14-.04-.26-.19-.26s-.13.15-.26.16c-.13.01-.08-.07-.17-.14-.1-.06-.21.01-.2.21 0 .19.06.57.22.62h.01c.09.02.23 0 .31 0h.03c.04.01.05.03-.02.09.04-.04.08-.07.12-.11l.05-.05.01-.01.04-.04c0-.01.01-.01.01-.02.01-.01.02-.03.03-.04l.02-.02c.01-.01.02-.02.03-.04 0-.01.01-.01.01-.02.01-.01.01-.02.02-.04 0-.01.01-.01.01-.02.01-.02.01-.03.02-.05-.14-.03-.1-.22-.1-.22z" fill="#EDECA0"/><path d="M1525.54 130.83s-.23.18-.17.31c.07.13.25.2.41.35.16.15.57.67.6.74.03.07.26.31.53.17.27-.13.42-.93.35-1.1 0 0 .22.29.27.45.05.16.14.17.32.05.18-.12.37-.81.47-.98.09-.17.2-.35.13-.39-.07-.04-.22-.09-.6.15 0 0-.21.1-.55-.07-.33-.17-.33-.33-.86-.16-.52.18-.82.4-.9.48z" fill="#FFDE39"/><path d="M1528.7 129.86c.09 0 .25.05.4.33.23.42.78 1.32.92 1.61.14.3.3.51.38 1 .08.49.31 1.1.39 1.58.08.47.29 1.08.34 1.2.05.11.35.84.39.92.04.08.28.36.37.46.09.1.43.64.53.94.1.3.15.55.2.59.04.02.11.07.22.07.06 0 .12-.01.19-.04 0 0 .02.42-.4.77 0 0-.16.16-.3.47-.14.32-.23.32-.42.39 0 0-.09.08-.18.25-.09.18-.32.48-.47.56-.15.08-.41.19-.61.36-.2.17-.19.32-.45.56-.22.21-.51.42-.66.42-.02 0-.04 0-.05-.01-.12-.08.19-.6.4-.82-.06-.01-.05-.1-.05-.1s-.01.02-.07.02c-.16 0-.68-.14-2.25-1.25-1.43-1.01-2.17-1.24-3.17-1.24-.46 0-.97.05-1.62.09 0 0 .02-.02.05-.04-.06.02-.13.03-.21.03-.05 0-.1-.01-.15-.02-.32-.07-.48-.63-.54-1.17-.06-.54-.3-1.38-.42-1.48-.12-.11-.69-.18-.83-.67-.14-.49.82-1.67 1.05-1.96.22-.3 1.25-1.04 1.99-1.7.74-.66 1.41-1.28 1.71-1.48.3-.2 1.01-.52 1.42-.52.4 0 .57.52.84.52h.01c.28-.02.68-.6.98-.6h.01c-.01-.03.01-.04.06-.04zm0-.03c-.04 0-.06.01-.08.01h-.01c-.17 0-.36.16-.55.32-.16.13-.32.27-.44.28h-.01c-.11 0-.2-.1-.31-.21-.14-.15-.29-.31-.53-.31-.43 0-1.15.34-1.44.53-.26.18-.79.65-1.4 1.21l-.31.28c-.32.29-.7.59-1.03.86-.45.36-.83.67-.96.84a.73.73 0 0 1-.09.11c-.33.43-1.1 1.42-.97 1.89.11.38.45.52.68.61.07.03.14.06.17.08.1.09.34.89.4 1.46.05.41.19 1.12.57 1.21.05.01.1.02.16.02h.06l-.02.02.12-.01.48-.03c.43-.03.8-.06 1.14-.06.93 0 1.67.19 3.15 1.24 1.54 1.09 2.08 1.26 2.27 1.26h.04c0 .02.01.04.03.06-.18.21-.42.61-.4.77.01.04.03.06.04.07.02.01.05.02.07.02.21 0 .61-.36.69-.43.13-.12.2-.23.25-.31.05-.09.1-.16.19-.24.16-.13.34-.22.49-.3l.12-.06c.16-.09.39-.39.48-.58.08-.15.15-.22.17-.24.02-.01.04-.01.05-.02.16-.06.25-.09.38-.39.14-.31.29-.46.29-.46.43-.36.42-.78.42-.8v-.05l-.05.02a.392.392 0 0 1-.38-.02c-.02-.02-.06-.14-.09-.25-.03-.09-.06-.2-.1-.32-.11-.31-.44-.85-.54-.95-.16-.18-.34-.39-.37-.45-.02-.03-.08-.2-.15-.37-.1-.23-.2-.49-.23-.55-.05-.11-.26-.71-.34-1.19-.04-.23-.12-.5-.19-.76-.08-.28-.16-.57-.2-.82-.06-.38-.18-.61-.29-.82-.03-.06-.06-.12-.09-.19-.08-.17-.29-.53-.5-.87-.16-.27-.33-.56-.43-.74-.14-.33-.32-.37-.41-.37z" fill="#215D4C"/><path d="M1536.49 124.6c.02-.4.06-.55.04-1.32-.02-.77 0-1.58-.02-1.82s.05-.92.03-1.39c-.02-.47.01-1.09-.01-1.77-.02-.69.13-1.35.17-1.44 0 0-.24.23-.38.66-.14.43-.78 1.18-1.02 1.42-.24.23-.63.57-1.14.82-.51.24-2.09 1.05-2.46 1.23-.36.18-.61.3-1.34.22-.73-.08-1.34-.02-2.02.18 0 0 .06-.4 0-.74-.06-.34-.23-1.76-.18-2.09 0 0 0-.1-.01-.22s.13.05.17.36c.04.31.1.9.14 1.15.04.25.19.82.26.83.07.01.17-.03.19-.25 0 0 .29.44.67.49.38.05 1.03-.1 1.99-.57s.9-1 .9-1 .23.47.31.12c0 0 .31.32.53-.09 0 0 .69.45 1.41-.18.63-.55.72-.91.81-1.19 0 0-.53 1.1-1.27 1.33 0 0-.6-.47-.27-2.06.33-1.59.71-3.03 1.75-3.55 1.03-.52 1.71-.65 1.83-.69 0 0 .01.1.01.25 0-.48-.09-.67-.09-.67-2.18.2-2.76.58-3.35.98-.6.41-.79 1.28-1.23 1.84-.44.56-1.17.61-1.4.6-.23-.01-.87-.11-1.58.61-.71.72-1.7 1.14-1.91 1.15-.2.01-.72-.64-1.07-1.1-.35-.46-.87-.43-.87-.43-.31.36-1.68.96-2.24 1.43-.56.47-.53.52-1.43 1.63-.9 1.11-1.54 3.02-1.54 3.02.68.77 2.67 1.74 2.96 1.88.29.14.25.17.25.17-.15.35-1.48.06-1.48.06.47 2.39 3.23.19 6.1 3.33 2.87 3.13 3.54 2.93 3.54 2.93l.05-.02c-.23-.11-1.17-.72-1.64-1.1-.5-.41-.7-.63-.79-.87-.09-.24.53.58 1.56.9 1.03.32 1.81.48 2.94.13 1.12-.36 1.2-.42 1.3-.66.1-.23.13-.34.18-1.12.04-.78.32-1.68.36-1.87.05-.21.26-1.11.29-1.51z" fill="#FFDE39"/><path d="M1535.96 122.21c-.12-.46-.12-1.52-.12-1.52-.32.8-.17 2.04-.03 2.77s.26 2 .21 2.56c-.06.56-.03 1.05-.03 1.05-.06.26-.3.4-.45.23-.14-.17-.2-.81-.2-.81-.15-1.54-.44-2.19-.44-2.19.15 1.48-.06 3.43-.58 3.43s-1.13-1.76-1.41-2.4c-.28-.64-.7-1.04-.75-1.02-.05.02.04.25.04.25.9 2.11.53 3.47.53 3.47-1.59-.56-2.39-3.04-2.39-3.04.03 1.22.42 3.6.42 3.6-.46-.08-1.64-.56-1.9-.67.1.11.2.21.29.32.22.06 1.16.32 1.84.64 0 0-.44-1.55-.4-2.64 0 0 .91 2.07 2.17 2.1 0 0 .38-1.22-.14-2.78 0 0 .54 1.34.83 1.77.3.43.52.81.99.67.48-.14.55-1.66.55-1.66s.12 1.77.93 1.11c.1-.62.27-1.19.3-1.34.01-.07.05-.24.1-.45-.05-2.27-.24-3.01-.36-3.45z" fill="#EDECA0"/><path d="M1535.91 127.43c-.8.66-.93-1.11-.93-1.11s-.08 1.52-.55 1.66c-.48.14-.7-.24-.99-.67-.3-.43-.83-1.77-.83-1.77.53 1.56.14 2.78.14 2.78-1.26-.03-2.17-2.1-2.17-2.1-.04 1.09.4 2.64.4 2.64-.67-.32-1.62-.58-1.84-.64.21.22.4.42.58.6.57.54 1.38 1.29 1.83 1.57.74.46.86.31.86.31h-.07c-.13-.03-1.18-.71-1.68-1.12-.5-.41-.7-.63-.79-.87-.09-.24.53.58 1.56.9 1.03.32 1.81.48 2.94.13 1.12-.36 1.2-.42 1.3-.66.1-.23.13-.34.18-1.12.01-.17.04-.35.06-.53z" fill="#F7B13C"/><path d="M1537.43 127.76c-.13.08-.34.18-.62.5-.28.32-.8.86-.86.91-.07.05-.36.23-.75.42-.39.19-1.3.6-1.48.64-.18.04-.72.28-.83.32-.12.04-.41.17-.55.13-.28.25-.82.18-1.03.21-.14.02-.64.11-.57.37.06.2.34.18.63.15.23-.02.47-.22.72-.32s.49-.32.66-.36c.17-.03.5-.05.91-.15.42-.1.66-.33.85-.5.19-.17.23-.15.23-.15.34 0 .85-.3 1.07-.37.22-.07.64-.65.75-.79.12-.14.38-.26.45-.36.08-.1.47-.57.57-.68.07-.08.06-.14.04-.16.05.06-.07.12-.19.19z" fill="#EDECA0"/><path d="M1526.97 124.12l.45 1.06s.1-.83.48-1.13c0 0-.24.69-.12 1.32.12.62.53 1.4.53 1.4s-1.1-.87-1.93-1.07c-.83-.2-2.07-.24-2.58-.79 0 0 .98.18 1.64.19.51.01 1.47.26 1.58.34l-.05-1.32zM1521.08 122.46s2.17 1.25 2.87 1.65c.7.4 1.88-.58 2.1-.78.22-.2 1.17-1.15 1.23-1.2.06-.05.02-.15-.17-.22s-1.96-.49-2.88-.33c-.92.17-3.19.86-3.15.88zM1537.59 113.02c-.12.04-.8.17-1.83.69-1.03.52-1.41 1.96-1.75 3.55-.33 1.59.27 2.06.27 2.06.74-.23 1.27-1.33 1.27-1.33.01-.04.02-.08.04-.12.11-.3.9-2.02 1.12-2.27.09-.11.22-.23.33-.34-.04.04-.08.09-.13.13.05-.05.09-.09.13-.14l.04-.04c.01-.01.02-.02.03-.04.02-.02.03-.04.05-.05.01-.01.02-.02.02-.03.02-.02.04-.05.06-.07.03-.04.05-.07.05-.09 0 0 .04-.22.21-.67 0-.01.01-.02.01-.03.15-.44.08-1.21.08-1.21zm-.51 2.2l.03-.03c-.01 0-.02.01-.03.03zm.08-.09c.01-.01.02-.02.02-.03-.01.01-.02.02-.02.03z" fill="#F7B13C"/><path d="M1527.94 118.96s.06.9.13 1.13c.07.23.26.89.14 1.09-.12.2-.39.16-.9-.07-.52-.23-1.51-.73-2.43-.7-.92.04-1.69.13-2.74.57 0 0 .42-1.13 1.24-1.51.82-.39 2.64-.7 3.87.18 0 0 .23.18.28.14.13-.14.09-.67.41-.83z" fill="#FFDE39"/><path d="M1523.54 119.84s2.51-.39 4.14.77c0 0-.56-.81-2.07-1.01-1.51-.2-2.07.24-2.07.24zM1535.06 113.65s-2.29 2.77-1.39 5.16c0 0 .06.15-.03.19-.09.05-.31-.06-.34-.3 0 0-.07.23-.23.25-.16.02-.36-.24-.28-.8.09-.55.34-3.43 2.27-4.5z" fill="#EDECA0"/><path d="M1533.93 117.98c.02.58.27.79.27.79s0-.89.15-1.25c0 0-.16.04-.23.15 0 0 .33-1.6.45-1.93.09-.26 0-.34-.06-.3-.2.55-.34 1.18-.48 1.84-.06.26-.09.49-.1.7z" fill="#EDECA0"/><path d="M1536.54 120.07c-.02-.47.01-1.09-.01-1.77-.02-.69.13-1.35.17-1.44 0 0-.24.23-.38.66-.14.43-.78 1.18-1.02 1.42-.12.11-.26.25-.44.38-.27.31-2.24 1.38-2.92 1.77-.68.39-1.14.36-1.14.36-1.45-.06-1.84.02-2.12.1s-.32.3-1.46 1.6-3.42 1.75-3.42 1.75.98.18 1.64.19c.51.01 1.47.26 1.58.34l-.04-1.32.45 1.06s.1-.83.48-1.13c0 0-.24.69-.12 1.32.06.33.2.69.32.97-.1-.22-.08-.6 0-1.42s.43-1.34.74-1.76c.31-.43.96-1.35.96-1.35.31.29 2.07.83 2.37 1.09.3.26.7 1.16.7 1.16.01-.08.2-.45.54-.9.35-.45.67-1.14.82-1.69.15-.55.69-1.1 1.08-1.43.39-.33.74-.37 1 .06.27.43.05 1.05.06 1.48.01.25.08.74.15 1.1 0-.54 0-1.01-.01-1.18-.03-.26.04-.94.02-1.42zM1528.15 120.13c-.07-.32-.13-.87-.11-1.28.02-.41 0-.84 0-.84-.17 0-.24-.11-.24-.11-.24-.29-.69-.81-1.16-1.09-.48-.28-.65-.05-.85.05-.2.1-1.05.51-1.49.86-.45.35-.8.85-1.56 1.62-.76.77-1.49 2.6-1.49 2.6 1.05-.69 1.58-1.04 2.77-1.25 1.19-.21 2.02.11 2.84.44.82.33 1.11.41 1.35.18.22-.23.02-.85-.06-1.18zm-1.88-3.26c.06-.11.32-.07.56.19.24.27.19 1.15.19 1.15-.12-.55-.28-.78-.49-.95-.15-.13-.33-.27-.26-.39zm1.03 4.23c-.52-.23-1.51-.73-2.43-.7-.92.04-1.69.13-2.74.57 0 0 .42-1.13 1.24-1.51.82-.39 2.64-.7 3.87.18 0 0 .23.18.28.14.14-.14.1-.67.41-.83 0 0 .06.9.13 1.13.07.23.26.89.14 1.09-.12.2-.38.17-.9-.07z" fill="#EDECA0"/><path d="M1527.02 118.22s.05-.88-.19-1.15c-.24-.26-.49-.31-.56-.19-.06.11.11.26.27.39.2.17.36.4.48.95z" fill="#FFDE39"/><path d="M1538.57 118.29c.02-.89.2-3.61.2-3.61-.1 0-.22.04-.32.08.05.03-.09.12-.17.17-.11.07-.61.58-.75.78-.14.2-.64.94-.68 1.08-.04.14-.11.69-.15 2.37a80.61 80.61 0 0 0-.03 3.17c.01.35.06 1.44.04 1.61-.02.18-.23 1.55-.36 2.11-.13.56-.3 1.44-.31 1.5-.01.06-.06.24.05.25.11.01.35-.27.35-.27s.04.3-.16.96c-.11.38.1.16.36-.13.2-1.19.28-1.79.37-2.46.09-.7.68-1.98.68-1.98.98-1.88.73-2.16.88-3.28.13-1.1-.02-1.45 0-2.35z" fill="#F7B13C"/><path d="M1538.33 114.74c.07 0 .11 0 .12.02.1-.04.22-.08.32-.08-.08-.27-.4-.48-.64-.53-.24-.05-.62.16-.62.16l.03-.22c-.01.05-.02.1-.04.15 0 .01-.01.02-.01.03-.17.44-.21.67-.21.67s.27.36.31.39c.04.04.46-.58.74-.59z" fill="#FFDE39"/><path d="M1528.3 118.03s.32 1.09.32 1.29c0 .2.15.82.22.96.07.13.14.19.34.33 0 0-.11-.27-.12-.33-.01-.06.19.75 1.37.33 1.17-.42 1.49-.44 1.8-1.84.31-1.41.32-2.15.06-2.23-.26-.08-.66-.3-1.37-.05-.69.25-1.1 1.15-2.62 1.54zM1526.15 122.25s-.7-.27-1.29-.31c-.59-.04-1.2.02-1.32.1-.12.08.09.15.42.15.33 0 1.11-.05 2.19.06zM1528.55 125.69s.15.55.38.95c.23.4.69 1.04.7 1.12.01.08-.13-.74-.41-1.16-.27-.41-.49-.5-.67-.91zM1531.53 124.05s.76 1.21.84 3.34c0 0 .09.42-.28 0s-.68-.91-.73-1.2c0 0 .11.08.16.08s-.01-.33.07-.3c.07.04.14.37.17.43s.07-.19.11-.17c.04.02.13.46.2.42.07-.04.11-.86-.54-2.6zM1538.15 119.32s-.39.46-.23 1.15.24 1.2-.1 1.81c-.34.61-.39 1.18-.43 1.29-.04.11.69-1.05.76-1.67.07-.62.09-.87-.05-1.65-.13-.76.05-.93.05-.93zM1538.58 117.99c.01-.36.04-.84.07-1.32 0 0-.26.21-.3.5-.04.27.08.63.23.82z" fill="#EDECA0"/><path d="M1528.34 121.39s.06-.4 0-.74c-.06-.34-.23-1.76-.18-2.09 0 0 0-.1-.01-.22s.13.05.17.36c.04.31.1.9.14 1.15.04.25.19.82.26.83.07.01.17-.03.19-.25 0 0 .29.44.67.49.38.05 1.03-.1 1.99-.57s.9-1 .9-1 .23.47.31.12c0 0 .31.32.53-.09 0 0 .69.45 1.41-.18.72-.62.74-1.01.85-1.31.11-.3.9-2.02 1.12-2.27.21-.25.58-.57.58-.67 0 0 .27.36.31.39.04.03.45-.58.73-.59.28-.01.06.12-.05.19s-.61.58-.75.78c-.14.2-.64.94-.68 1.08-.04.14-.11.69-.15 2.37a80.61 80.61 0 0 0-.03 3.17c.01.35.06 1.44.04 1.61-.02.18-.23 1.55-.36 2.11-.13.56-.3 1.44-.31 1.5-.01.06-.06.24.05.25.11.01.35-.27.35-.27s.04.3-.16.96c-.2.67.61-.51.86-.64s.48-.28.53-.26c.04.02-.09.09-.22.17-.13.08-.34.18-.62.5-.28.32-.8.86-.86.91-.07.05-.36.23-.75.42-.39.19-1.3.6-1.48.64-.18.04-.72.28-.83.32-.12.04-.41.17-.55.13-.13-.03-1.18-.71-1.68-1.12-.5-.41-.7-.63-.79-.87-.09-.24.53.58 1.56.9 1.03.32 1.81.48 2.94.13 1.12-.36 1.2-.42 1.3-.66.1-.24.13-.34.18-1.12.04-.78.32-1.68.36-1.87.04-.19.25-1.09.28-1.49.02-.4.06-.55.04-1.32-.02-.77 0-1.58-.02-1.82s.05-.92.03-1.39c-.02-.47.01-1.09-.01-1.77-.02-.69.13-1.35.17-1.44 0 0-.24.23-.38.66-.14.43-.78 1.18-1.02 1.42-.24.23-.63.57-1.14.82-.51.24-2.09 1.05-2.46 1.23-.36.18-.61.3-1.34.22-.73-.07-1.34-.01-2.02.19zM1525.93 123.26s-.58.26-1.23.22c-.64-.04-2.15-.79-2.65-.66 0 0-.11.01.06.13.17.12.99.64 1.75 1.04s1.41-.16 1.99-.56l.12-.09s.05-.04.03-.07c-.02-.02-.03-.03-.07-.01z" fill="#B26A34"/><path d="M1537.51 112.6s.08.19.09.67c.01.22 0 .55-.06.82l-.03.22s.3-.17.54-.17c.03 0 .06 0 .08.01.24.05.57.25.64.53 0 0-.07 1-.13 1.99-.02.3-.03.6-.05.87v.01c0 .05-.01.1-.01.15 0 .05 0 .1-.01.15 0 .05 0 .09-.01.14 0 .12-.01.22-.01.31-.02.89.14 1.24-.02 2.35s.1 1.4-.88 3.28c0 0-.59 1.28-.68 1.98-.08.67-.16 1.27-.37 2.46.19-.21.39-.45.5-.51.24-.12.45-.26.52-.26h.01l.01.01v.01-.01c.01.03.02.09-.04.16-.1.11-.49.58-.57.68-.08.1-.34.22-.45.36-.12.14-.54.72-.75.79-.22.07-.72.37-1.06.37h-.01c-.01 0-.06.01-.23.15-.19.17-.44.4-.85.5-.42.1-.74.12-.91.15-.17.03-.41.26-.66.36-.25.1-.5.29-.72.32-.1.01-.19.02-.28.02-.18 0-.32-.04-.36-.17-.08-.26.43-.35.57-.37.2-.03.7.03.99-.19-.03 0-.07-.01-.12-.02-.22-.03-1-.32-3.04-2.47-.14-.14-.28-.29-.42-.45-2.87-3.13-5.64-.93-6.1-3.33 0 0 .52.11.94.11.26 0 .48-.04.54-.18 0 0 .04-.03-.25-.17s-2.28-1.11-2.96-1.88c0 0 .64-1.91 1.54-3.02s.87-1.16 1.43-1.63c.56-.47 1.93-1.06 2.24-1.43h.02c.09 0 .54.02.85.43.35.46.86 1.1 1.07 1.1.2-.01 1.2-.43 1.91-1.15.54-.54 1.03-.62 1.34-.62.1 0 .18.01.24.01h.05c.28 0 .94-.08 1.34-.6.44-.56.63-1.44 1.23-1.84.59-.42 1.17-.79 3.35-1zm.02-.04h-.03c-2.22.21-2.8.6-3.37.99-.38.26-.6.69-.81 1.11-.13.26-.26.52-.43.73-.42.55-1.11.59-1.31.59h-.11c-.05 0-.11-.01-.18-.01-.5 0-.95.21-1.37.63-.7.71-1.68 1.12-1.88 1.13-.21 0-.81-.79-1.04-1.08-.33-.42-.79-.45-.88-.45h-.04l-.01.01c-.16.19-.61.44-1.09.71-.43.24-.88.49-1.15.72-.41.34-.51.47-.88.94-.14.18-.31.4-.56.7-.9 1.11-1.54 3.01-1.55 3.03l-.01.02.01.02c.74.83 2.95 1.88 2.97 1.89.16.08.21.11.23.13-.05.09-.22.14-.5.14-.42 0-.93-.11-.93-.11l-.05-.01.01.06c.23 1.17.99 1.27 2.04 1.4 1.15.14 2.58.32 4.07 1.95.13.15.27.29.42.45 2.02 2.14 2.82 2.45 3.06 2.49.01 0 .02 0 .03.01-.2.1-.47.11-.67.12-.09 0-.16 0-.22.01-.31.05-.5.13-.57.25-.03.05-.04.11-.02.17.05.18.25.2.39.2.09 0 .19-.01.28-.02.14-.02.29-.09.44-.18.09-.05.19-.1.29-.14.13-.05.25-.13.35-.2.11-.07.22-.14.3-.16.06-.01.14-.02.23-.03.17-.02.41-.05.69-.12.39-.09.63-.3.82-.47l.04-.04c.15-.13.2-.14.21-.15h.01c.25 0 .56-.14.81-.26.11-.05.2-.09.26-.11.18-.06.49-.44.67-.68.04-.05.08-.1.1-.13.06-.07.16-.14.26-.2.09-.06.16-.11.2-.16.08-.1.47-.56.56-.67.08-.09.07-.17.05-.2v-.01s-.01-.02-.03-.03c-.02-.01-.04 0-.04 0-.05.01-.14.06-.3.14-.07.04-.14.08-.22.12-.1.05-.26.23-.43.42.19-1.14.27-1.71.34-2.34.09-.68.67-1.95.68-1.97.75-1.44.78-1.95.82-2.6.01-.21.03-.42.06-.69.1-.71.07-1.11.04-1.53-.02-.25-.03-.5-.03-.83 0-.09.01-.19.01-.31l.01-.14.01-.15.01-.15v-.01c.01-.27.03-.57.05-.87.06-.97.12-1.98.13-1.99v-.02c-.08-.28-.4-.5-.67-.55-.03-.01-.06-.01-.09-.01-.18 0-.39.09-.49.14.01-.05.01-.1.02-.15.06-.27.06-.6.06-.83 0-.48-.09-.67-.09-.68l.01.02z" fill="#215D4C"/><path d="M1542.74 140.77c-.03 0-1.43.12-2.01-.92 0 0-.65-1.11-1.05-1.98-.4-.86-1.32-.88-1.55-.93-.23-.05-1.43-.17-2.22-.97 0 0-.38-.3-.42-.72-.04-.41-.04-.76.04-1.12.08-.36.43-1.08.58-1.32.15-.24.77-.95.84-1 .07-.04.16 0 .16 0s.03-.15.07-.23c.04-.07.15-.25.17-.34.01-.09-.03-.31.02-.32.05-.01.28-.03.37-.07.09-.04.9-.42 1.42-.86 0 0 .07-.1.22-.23s.29-.2.86-1c.57-.8 1.18-.81 1.66-.87.48-.06 1.9.13 2.5 1.11h.09s.48-.81 1.11-1.37c.63-.57 1.03-1.02 1.61-1.17.58-.15.98-.01 1.32.11.33.12 1.31.47 1.47.52.16.05.24.07.33.08.09.01.46 0 .58.07.12.07.09.08.09.21s.03.25.15.33c.12.08.33.6.41.83.07.23.2.89.35 1.23.15.34.41.73.7.92.29.19 1.36.71 1.59 1.05.23.34.41.56.3 1.1-.11.55-.33 1.38-.57 1.89-.24.51-.47 1.46-.56 1.93-.09.47-.12.69-.26 1.01-.14.32-.54 1.18-.93 1.5-.39.32-.44.58-1.84.69-1.4.11-.94-.14-3.02.04l.02-.1s-.61-.11-1.61.35c0 0-.45.26-1.37.28 0 0-.81.25-1.68.07l.06.2z" fill="#F7B13C"/><path d="M1543.3 136.62s-.42-.29-.19-1.24c.23-.95.66-1.12.66-1.12s.05.65-.15 1.21c-.2.56-.23.72-.32 1.15zM1543.91 135.04s-.14.56-.17.91-.04.49-.07.57c0 0 .46-.14.7 0 0 0-.39-.77-.46-1.48zM1545.32 137.01s.48-.54.56-.95c0 0 .22.43.03.84-.19.42-.66.18-.66.18l.07-.07zM1546.96 135.27s-.19.74-.18 1.62c0 0 .45-.44.48-.84.04-.39-.18-.74-.3-.78zM1546.73 135.06s-.25.14-.36.67c-.11.53-.07.93-.07.93s.33-.28.48-.77c.15-.49-.01-.79-.05-.83zM1545.46 134.26s.01 1.14-.18 2.36c0 0 .48-.38.49-1.11.02-.73-.1-1.03-.31-1.25zM1544.88 134.64s.05.73-.03 1.66c0 0-.02.22.07.22.09 0 .34-.22.29-.89-.04-.66-.18-.95-.33-.99z" fill="#B26A34"/><path d="M1545.22 133.75s-.08.13-.52.4c-.44.28-.08.98-.06 1.12.02.14.09.28.08.78a1 1 0 0 0 .37.78s-.45.09-.61-.39c-.16-.49-.29-.35-.32-.81-.03-.46.16-.67.16-1.06s.04-.74.2-.82c.18-.07.89-.17.7 0z" fill="#B26A34"/><path d="M1546.35 137.59s-.33-.1-.78.3c-.44.41-1.27.45-1.51.45s-1.07-.15-1.33.37.14.78.68 1.03c.55.25.66.61.98.6.32-.01.62-.55 1.08-.76.47-.19 1.33-1.19.88-1.99zM1535.86 135.63s-.32-.43-.09-1.37c.23-.94.64-2.05 1.42-1.74.78.31 1.79 1.65 1.85 2.16.06.51-.04.67-.7.57-.66-.1-1.16.23-1.51.44-.35.21-.78.28-.97-.06zM1540.92 133.99c.01-.05.02-.06-.02-.12-.06-.08-.1-.19-.2-.38s-.11-.33-.07-.34h.03c.03.01.05.07.1.12.02.02.06.06.12.1.13.1.32.23.43.23.15 0 .12-.11.14-.18.01-.07-.1-.53-.13-.68-.03-.15.04-.18.04-.18h.01c-.06-.09-.15-.24-.31-.46-.36-.49-.03-1.1-.43-1.63-.4-.54-.76-.56-1.44-.47-.52.44-1.33.81-1.42.86-.09.04-.32.06-.37.07-.05.01-.01.23-.02.32s-.13.27-.17.34c-.04.07-.07.23-.07.23s1.07.85 1.45 1.35c.39.5 1.23 1.71 1.66 1.56.35-.13.52-.6.67-.74zM1544.26 132.87c.05-.28.1-.58.13-.92-.04.34-.08.64-.13.92zM1544.39 131.95c.01-.07.01-.13.02-.2.04-.42.05-.82.06-1.17-.1-.54-.39-1.55-1.26-1.92-1.21-.51-2.02-.46-2.43-.06-.42.4-.41.83.15.97.56.14 1.3.67 1.33 1.3.03.59-.21 1.47-.16 2.37.11-.47.31-.95.39-1.53.13-.92-.54-2.02-.54-2.02.78.77.82 1.94.98 2.45.16.51.48.6.57.59.09-.01.13-.2.2-.19.07.01.21.3.28-.09.05-.31.3-.45.41-.5zM1553.88 131.95c-.48-.22-1.17-.44-1.52-1.02 0 0-.05-.11-.17.08-.12.19-.73 1.57-1.2 2.11-.47.54-1.33 1.63-2.18 2.37-.85.75-1.16.82-1.21.93-.05.11.11.09.09.2-.01.07-.08.12-.1.16.14.03.27.09.41.12.31.06.74.16 1.33-.25.59-.4 1.2-.99 1.64-.84 0 0-.52.14-1.03.6-.5.45-1.07.75-1.45.73 0 0 .87.48 1.87.3s1.51-.92.88-1.66l-.03-.03.03-.01s.66-.21 1.46-.41c.8-.2.98-.62 1.15-1.36.16-.74.51-1.8.03-2.02z" fill="#FFDE39"/><path d="M1550.85 127.9c-.1-.02-.67.98-1.27 1.3 0 0 .26-.46.37-.77.1-.26.4-.61 1.05-1 0-.1.02-.12-.1-.18-.12-.07-.49-.07-.58-.07-.07-.01-.13-.02-.23-.05-.43.27-1.42.91-1.67 1.34-.32.54-.57 1.79-.89 2.52-.32.73-1.05 1.88-1.92 2.68 0 0-.68.58-.59.81.09.23.22.11.29.27.08.16.12.2.11.29.02-.47.02-.78.02-.78.17.18.28.42.31.91 0 0 .06-.21.13-.18.08.03.45.48.56.45.08-.2.18-.31.23-.35l.03-.03c.01.01.02.03.04.07.09.05.23.15.29.22l.01.01c.08.12.35.22.46.21.11-.01.11.06.11.13s.26.26.52.07c.25-.19 1.59-1.52 2.17-2.25.58-.73 1.12-1.25 1.2-1.99.08-.74.19-1.29-.05-2.06-.22-.77-.49-1.55-.6-1.57z" fill="#FFDE39"/><path d="M1547.01 135.46s-.12.52-.12 1.12c0 0 .23-.22.28-.53.04-.3-.16-.59-.16-.59zM1546.7 135.22s-.35.44-.3 1.2c0 0 .51-.56.3-1.2zM1545.42 137.03s.31-.33.47-.74c0 0 .07.27-.07.57-.14.3-.4.17-.4.17zM1545.56 134.64s-.07 1.13-.16 1.7c0 0 .26-.3.29-.76.02-.46-.04-.81-.13-.94zM1543.64 134.56s-.26.22-.39.8c-.13.58-.04.91-.04.91s.13-.39.24-.71c.13-.32.26-.73.19-1zM1544.96 134.92s.04.88-.03 1.27.09.24.15-.05c.06-.3.1-.84-.12-1.22zM1543.82 136.32s.01-.64.07-.8c0 0 .11.48.31.8 0 0-.33-.03-.38 0z" fill="#EDECA0"/><path d="M1544.87 136.71s-.19-.22-.23-.6c-.04-.38-.07-.67-.17-.96-.1-.29-.1-.81.05-.96.15-.15.64-.4.61-.44-.03-.04-.43.02-.57.12-.13.1-.2.4-.17.69.02.29-.08.35-.1.61-.03.26-.07.54.04.77.12.23.18.31.21.4.03.1.08.33.33.37zM1538.38 134.31s-.29 0-.57-.37c-.27-.36-.62-.96-.74-.98-.13-.02-.48-.04-.5 0-.03.04.05.1.16.12.11.02.37.13.53.32.17.19.6.85.68 1.06 0 0-.32 0-.42-.13-.1-.12-.37-.45-.64-.49-.27-.04-.66-.01-.77.08-.11.09.3 0 .53.04.23.04.54.11.75.34.21.23-.34-.08-.77.15-.31.16.12.15.24.15s.45-.06.42.01c-.04.08-.15.14-.29.18-.14.04-.31.29-.31.33 0 .04.16 0 .43-.14s.82-.26 1.2-.08.33.22.38.13c.05-.08-.04-.12 0-.14.04-.02.03-.12-.1-.16-.13-.04-.49-.16-.17-.26.11-.02.11-.14-.04-.16zM1539.83 133.52s-.15.1-.24-.08-.36-.6-.55-.76c-.19-.16-.22-.22-.25-.21-.03.01.17.23.29.44.12.21.38.74.45.79.07.06.17.21.22.3.05.09.19.32.27.29.08-.03.01-.13.08-.18.07-.05.27-.09.34-.14.07-.05.06-.26-.08-.43-.14-.17-.25-.25-.33-.29-.08-.05-.08-.09-.13-.06-.06.02.04.25-.07.33zM1541.35 132.56s-.07.03-.04.18c.03.15.14.61.13.68-.01.07.02.19-.14.18-.15 0-.48-.27-.55-.34-.07-.07-.08-.14-.12-.12-.04.02-.02.16.07.34.1.19.14.3.2.38.06.08.02.07 0 .21-.02.14.02.51.1.64s.31.62.38.61c.07-.02.08-.55.05-.63-.02-.08-.12-.19-.08-.22.05-.03.12 0 .17.08.05.09.17.41.27.43.1.02-.12-.33-.12-.41-.01-.08-.02-.16.07-.14.09.02.15.08.2.06.05-.02.06-.23-.02-.45-.07-.22-.15-.43-.23-.77-.08-.34-.22-.74-.34-.71zM1539.03 131.51s.36.12.47.24c.11.12.16.2.22.36.05.16.17.34.14.4-.04.06-.13-.1-.22-.19s-.11-.15-.19-.27c-.08-.11-.23-.27-.4-.33s-.43-.15-.43-.21c.01-.06.04-.13.41 0zM1540.46 131.11s.04.18 0 .29c-.04.11-.06.38-.02.49.04.12.17.37.23.45.06.07.12.28.2.27.08-.01.06-.16-.03-.4-.1-.24-.18-.27-.17-.46.01-.19.03-.44-.03-.56-.06-.12-.19-.26-.18-.08zM1543.41 139.75c-.55-.25-.94-.52-.68-1.03.26-.51 1.09-.37 1.33-.37s1.07-.04 1.51-.45l.16-.13a.076.076 0 0 0-.05-.02c-.13 0-.7.02-1.47-1.09 0 0-.21.56-.4.56-.19 0-.32-.36-.32-.42 0 0-.31.22-.41.15a.426.426 0 0 1-.18-.47c.06-.25.01-.44-.23-.51-.24-.07-.47-.49-.92-.47 0 0 .28.31.17.59-.12.27-.41.39-1.13.1-.72-.3-1.76-.46-2.12.42 0 0 .56-.48 1.22-.13.67.35.63.84.71 1.33.08.49.41 1.41.92 1.91 0 0 .99.91 1.68.93.57.02.89-.25.98-.35-.18-.1-.35-.35-.77-.55zM1546.91 134.68s.36.49.82.38c.59-.14.78-.6.81-.68 0 0-.22.04-.24.03-.02-.01.7-.62.73-1.01 0 0-.58.58-1.09.64 0 0 1.22-1.13 1.32-2.2 0 0-.6.95-1.1 1.21 0 0 .22-.44.2-.94 0 0-.52 1-.92 1 0 0-.08-.23.45-2.08 0 0 .01-.08-.01-.09-.03-.01-.07.06-.14.3s-.37 1.35-.82 1.78c-.45.43-.73.7-.99.89-.26.19-.01.22.04.37.05.14.1.3.11.46.01.17.02.22.12.31.1.09.3.23.42.02.13-.22.24-.46.29-.39zM1544.39 131.95c-.11.05-.36.19-.41.49-.07.39-.2.1-.28.09-.07-.01-.11.19-.2.19-.09.01-.41-.08-.57-.59-.16-.51-.2-1.68-.98-2.45 0 0 .67 1.1.54 2.02-.13.92-.56 1.6-.45 2.35.11.74.57.79.72.76.15-.03.59-.07.7-.76 0 0 .43.14.68-.46.07-.48.18-.99.25-1.64zM1552.41 136.76c-.02-.18-.05-.51-.24-.23-.26.38-.99 1.27-1.47 1.61-.4.28-1.16.42-1.58.48-.14.07-.3.14-.48.21-.58.25-.94.48-1.16.66.17.24 1.32.01 1.49-.04.18-.06.65-.51.65-.51.79.36 1.74.29 2.34-.42.6-.71.47-1.58.45-1.76zM1552.85 132.81s-.44 1.12-1.26 1.63c0 0-.16.15.09.04.25-.12.88-.39 1.17-1.67zM1550.56 135.7c-.38.24-.89.47-1.02.52-.13.05-.36-.02-.15-.15.22-.13.26-.16.32-.22s-.5.22-.55.14c-.05-.08-.15-.15.18-.42.33-.27.72-.61.97-.81.25-.2.43-.41.56-.8 0 0-.34.52-.78.79s-.76.65-.94.85c-.19.2-.69.49-.82.57-.13.09-.29.11-.21.19.08.08.17.09.12.25-.03.11-.08.24-.05.32.29.04.66.04 1.14-.28.38-.26.77-.59 1.11-.76.08-.07.19-.15.31-.22.28-.15.38-.22.47-.24.08-.02-.28.03-.66.27zM1550.96 130.229s-.18 1.04-.4 1.45c-.23.41-.37.92-.39 1.13-.02.2.15-.36.5-.79.35-.44.3-.58.29-.86-.01-.3-.01-.75 0-.93zM1544.71 133.22s.97-1.08 1.24-3.48c-.01 0 .14 3.1-1.24 3.48zM1548.35 127.47s-.88.95-1.13 2c-.25 1.05-.2 1.34-.73 2.01 0 0 .7-.44.93-1.74.23-1.3.93-2.27.93-2.27zM1543.03 129.64s.36.7.24.81c-.12.12-.28-.38-.41-.52-.25-.29-.51-.57-.39-.68.12-.11.31-.01.56.39z" fill="#EDECA0"/><path d="M1546.45 137.8l-.14-.31s.33-.46.73-.65c.4-.19.65 0 .96.06.31.06.74.16 1.33-.25.59-.4 1.2-.99 1.64-.84 0 0-.52.14-1.03.6-.5.45-1.07.75-1.45.73-.4-.02-.77-.27-1.18-.21-.36.07-.61.33-.86.87zM1544.41 129.01s.14 1.21 0 2.73c-.14 1.53-.53 2.31-.25 3.44 0 0 .08-1.44.2-2.12.12-.68.23-1.31.26-2.27.04-.97 0-1.37-.13-1.78h-.08zM1550.71 137.35c-.27.43-.97.89-2.15 1.35-1.04.41-1.65 1.11-1.72 1.21.03 0 .17-.02.31-.02.03-.07.26-.52 1.49-1.05 1.34-.57 1.55-.78 1.9-1.03.26-.18.38-.44.43-.57-.08.03-.17.07-.26.11z" fill="#B26A34"/><path d="M1547.72 126.4c.33 0 .59.09.82.18a86.472 86.472 0 0 0 1.56.55c.02 0 .03.01.04.01.01 0 .03.01.04.01.01 0 .02.01.03.01.01 0 .03.01.04.01h.02c.02 0 .04.01.06.01.09.01.46 0 .58.07.01.01.03.02.04.02.01 0 .01.01.02.01l.01.01.01.01.01.01s0 .01.01.01v.14c0 .13.03.25.15.33.12.08.33.6.41.83.07.23.2.89.35 1.23.15.34.41.73.7.92.29.19 1.36.71 1.59 1.05.23.34.41.56.3 1.1-.11.55-.33 1.38-.57 1.89-.24.51-.47 1.46-.56 1.93-.09.47-.12.69-.26 1.01-.14.32-.54 1.18-.93 1.5-.39.32-.44.58-1.84.69-.27.02-.48.03-.64.03-.44 0-.6-.05-1.11-.05-.28 0-.67.02-1.26.07l.02-.1s-.06-.01-.18-.01h-.03c-.1 0-.19.01-.25.02-.28.03-.67.12-1.16.34 0 0-.45.26-1.37.28 0 0-.44.13-1.03.13h-.14c-.17-.01-.34-.02-.52-.06l.05.18h-.15c-.38 0-1.39-.08-1.86-.92 0 0-.65-1.11-1.05-1.98-.4-.86-1.32-.88-1.55-.93-.23-.05-1.43-.17-2.22-.97 0 0-.38-.3-.42-.72-.04-.41-.04-.76.04-1.12.08-.36.43-1.08.58-1.32.15-.24.77-.95.84-1 .02-.01.05-.02.07-.02.05 0 .09.02.09.02s.03-.15.07-.23c.04-.07.15-.25.17-.34.01-.09-.03-.31.02-.32.05-.01.28-.03.37-.07.09-.04.9-.42 1.42-.86 0 0 .07-.1.22-.23s.29-.2.86-1c.57-.8 1.18-.81 1.66-.87.05-.01.11-.01.18-.01.59 0 1.78.24 2.32 1.12h.09s.48-.81 1.11-1.37c.63-.57 1.03-1.02 1.61-1.17.21-.04.37-.06.52-.06zm0-.04c-.17 0-.33.02-.51.07-.49.13-.85.47-1.32.89-.1.09-.2.19-.31.28-.58.52-1.03 1.24-1.11 1.36h-.05c-.55-.89-1.77-1.12-2.34-1.12-.07 0-.13 0-.19.01-.03 0-.07.01-.1.01-.47.05-1.05.12-1.59.88-.53.73-.68.86-.82.97l-.04.03a.93.93 0 0 0-.22.23c-.52.43-1.32.81-1.41.85-.06.03-.18.04-.26.05-.05.01-.08.01-.1.02-.06.02-.05.11-.05.22 0 .05.01.1 0 .13-.01.06-.08.17-.12.25-.02.03-.03.06-.04.08-.03.05-.05.14-.06.19-.02 0-.04-.01-.06-.01-.03 0-.07.01-.09.02-.08.05-.7.77-.86 1.01-.16.25-.51.96-.59 1.33-.08.35-.09.69-.04 1.13.04.43.42.73.44.74.7.72 1.73.89 2.12.96.05.01.09.02.12.02.03.01.07.01.12.02.34.05 1.06.15 1.4.89.4.86 1.04 1.97 1.05 1.98.47.85 1.48.94 1.89.94h.19l-.01-.05-.04-.12c.15.03.31.04.47.05H1543.33c.55 0 .98-.12 1.03-.13.91-.02 1.36-.27 1.38-.28.4-.18.79-.3 1.15-.34.06-.01.15-.01.24-.02h.03c.06 0 .11 0 .13.01l-.01.06-.01.05h.05c.53-.05.94-.07 1.26-.07.26 0 .43.01.6.03.16.01.3.03.51.03.18 0 .39-.01.64-.03 1.19-.09 1.41-.3 1.69-.55.05-.05.1-.1.16-.15.41-.33.82-1.25.94-1.52.13-.3.17-.52.25-.93l.02-.09c.09-.47.32-1.41.56-1.92.24-.5.46-1.33.58-1.9.11-.53-.05-.76-.27-1.08l-.03-.05c-.18-.26-.8-.61-1.25-.86-.15-.08-.28-.16-.36-.21-.3-.19-.55-.6-.69-.91-.1-.23-.19-.59-.26-.88-.03-.14-.06-.26-.09-.34-.07-.21-.29-.76-.42-.85-.09-.06-.13-.16-.13-.3v-.06V127.32v-.02-.03c0-.01-.01-.01-.01-.02l-.01-.01-.02-.02s-.01 0-.01-.01l-.03.02.02-.03-.01-.01c-.01-.01-.02-.02-.04-.02-.11-.06-.36-.07-.51-.07h-.08c-.02 0-.04 0-.06-.01h-.02c-.02 0-.03-.01-.04-.01-.01 0-.02-.01-.03-.01-.01 0-.02-.01-.04-.01h-.01l-.03-.01-.09-.03c-.15-.05-1.13-.39-1.47-.52-.19-.03-.47-.14-.82-.14z" fill="#215D4C"/><path d="M1450.05 134.65c.05-.01.11-.03.16-.05.09-.45.34-.95.73-1.41.41-.49.9-.83 1.35-.98.02-.07.02-.14.03-.21.04-.38-.05-.71-.28-.91-.54-.46-1.62-.06-2.43.89-.8.95-1.02 2.08-.48 2.54.24.18.56.22.92.13zM1503.73 134.65c.05-.01.11-.03.16-.05.09-.45.34-.95.73-1.41.41-.49.9-.83 1.35-.98.02-.07.02-.14.03-.21.04-.38-.05-.71-.28-.91-.54-.46-1.62-.06-2.43.89-.8.95-1.02 2.08-.48 2.54.24.18.56.22.92.13zM1516.1 142.59c-.29.17-.56.32-.81.42-.15.37-.21.72-.09 1.02.11.3.37.41.73.38.11-.09.22-.18.34-.27 1-.83 1.94-1.7 1.94-1.7l-.36-1.17c-.6.53-1.2.99-1.75 1.32zM1468.81 134.75s-.26-.06-.41.13c0 0-1.24-.35-3.31 1.01-2.07 1.35-3.12 2.76-3.99 4.1-.14.22-.41.56-.73.96-.84 1.03-1.87 1.69-2.64 2.07-.14.07-.27.13-.39.19.06.11.12.23.18.35l.03.06c.06.12.11.26.17.39.05.13.09.26.13.39.03.1.06.21.08.31 0 0 1.33-.38 2.66-1.44.22-.18.44-.37.66-.59.08-.08.15-.16.23-.24.08-.09.16-.18.23-.27.32-.4.59-.74.73-.96.86-1.34 1.91-2.75 3.99-4.1 2.07-1.35 3.31-1.01 3.31-1.01.07-.08.15-.12.23-.13.04-.07.07-.14.07-.23a.453.453 0 0 0-.08-.18c-.22-.27-.5-.64-1.15-.81zM1508.96 142.05c-.29.36-.44.69-.56 1.02-.4 1.11-.4 1.74 2.18 0s4.28-4.3 4.28-4.3c-1.79.69-3.06 1.27-3.97 1.79-1 .56-1.57 1.04-1.93 1.49zM1466.12 140.72c-.09.32-.17.64-.21.94-.06.49-.03.92.15 1.21 0 0-.6.64-1.31 1-.17.09-.35.15-.53.2-.03.43.07.78.3.99 1.06.96 2.86-.97 2.86-.97-.78-1.23 1.21-4.94 1.21-4.94-.96.37-1.79.93-2.47 1.57zM1424.88 137.82c.43-.28.9-.55 1.41-.81 2.33-1.15 3.9-1.72 5.11-1.68h.03c-.01-.08-.03-.16-.06-.25-.15-.47-.53-.95-1.3-.97-1.22-.04-2.79.52-5.11 1.68-.51.25-.98.53-1.41.81 0 0-2.89 1.64-4.07 3.93-.16.3-.28.62-.37.94-.06.21-.09.41-.12.6-.28 1.8.5 2.87 1.18 3.41.07.07.15.14.24.19.1.07.2.12.3.16l.01.01h.02c-.43-.7-.69-1.73-.31-3.16.74-2.76 4.45-4.86 4.45-4.86zM1453.88 147.12c-.24.79-.64 1.75-1.32 2.66-.22.29-.46.57-.74.84-.24 1.41.09 2.19.09 2.19.29-.18.55-.37.79-.57.29-.27.58-.56.86-.84 1.83-2.12 1.97-4.75 1.97-4.75-.71.03-1.21-.21-1.45-.36-.04.24-.1.52-.2.83zM1425.24 145.66a1.262 1.262 0 0 0 .37.57c.23.18.47.28.72.33.06.01.12.01.18.02-.11-1.21.93-2.88.93-2.88s-1.02 1.03-2.2 1.96zM1434.43 143.38c-.16.15-.52.49-.94.86-.06.05-.12.11-.18.16.05.17.11.34.18.5.24.54.6 1.07 1.16 1.48.02.02.05.03.07.05.11.08.23.13.35.18-.78-1.26-.69-2.79-.64-3.23zM1457.59 137.08c.9-1.41 4.38-6.82 6.41-8.24l.06-.24c.13-.57.07-1.03-.3-1.25-1.47-.88-6.4 6.79-7.5 8.51-1.1 1.72-4.8 4.42-6.38 5.71-.98.8-2.24 1.68-3.29 1.93a2.2 2.2 0 0 1-.5.06c.01.24.09.49.26.73.04.05.08.1.13.15.03.03.06.05.09.08.01.01.03.02.04.03.04.03.09.06.13.08 0 0 .01 0 .01.01.05.03.1.05.15.07.26.09.55.1.87.04 1-.19 2.22-1 3.21-1.79.07-.06.14-.11.21-.17.1-.08.21-.17.33-.27.1-.08.21-.17.33-.26.09-.07.19-.15.29-.23.03-.03.07-.05.1-.08l.42-.33c.03-.03.07-.05.1-.08.11-.09.22-.17.33-.26.05-.04.11-.08.16-.13l.29-.23c.06-.05.12-.1.18-.14.09-.07.18-.15.28-.22.06-.05.13-.1.19-.16.09-.07.18-.15.27-.22.07-.05.13-.11.2-.17.09-.07.17-.15.26-.22l.2-.17.25-.22c.06-.06.13-.11.19-.17.08-.07.16-.15.24-.22.06-.06.12-.11.18-.17.08-.07.15-.14.23-.22.06-.05.11-.11.17-.16l.21-.21c.05-.05.1-.1.15-.16.07-.07.13-.14.2-.22.04-.05.09-.09.13-.14.07-.08.13-.15.19-.23.03-.04.06-.08.09-.11.09-.1.17-.21.24-.31zM1443.45 143.27c-.45.29-.89.63-1.33.99.03.2.07.39.12.55.21.7.6 1.12 1.17 1.33.07.03.15.05.23.08-.27-.67-.33-1.62-.19-2.95zM1448.41 136.8c.28-.11.54-.18.78-.23.03-.08.06-.16.08-.23.3-1.14-.76-1.29-2.18-.75-1.53.58-3.1 2.71-3.6 3.38-.5.67-1.88 2.1-1.88 2.1-1.04.9-2.5 2.17-3.62 2.59-.16.06-.32.1-.46.12.02.1.04.2.07.29.01.02.01.04.02.06a1.48 1.48 0 0 0 .23.46c.01.01.01.02.02.03.05.06.1.12.16.17.08.07.16.12.26.16.09.04.19.06.3.06.9.06 2.3-.98 3.48-1.98.31-.26.6-.51.87-.74 0 0 1.39-1.43 1.88-2.1.49-.68 2.06-2.81 3.59-3.39zM1497.13 143.22c-.28.24-.76.64-1.33 1.11.03.2.07.38.13.54.21.66.6 1.07 1.15 1.28.07.03.15.05.23.08-.26-.69-.32-1.66-.18-3.01zM1505.86 143.41s-.39.37-.98.88c.06.17.13.33.21.48.25.49.59.88 1.02 1.04.08.03.17.05.25.06-.39-.81-.55-1.85-.5-2.46zM1510.65 145.66a1.262 1.262 0 0 0 .37.57c.23.18.47.28.72.33.06.01.12.01.18.02-.11-1.21.93-2.88.93-2.88s-1.02 1.03-2.2 1.96z" fill="#000B9E"/><path d="M1423.85 141.85c-.1.07-.2.13-.29.19-.29.36-.44.69-.56 1.02-.4 1.11-.4 1.74 2.18 0s4.28-4.3 4.28-4.3c-1.79.69-3.06 1.27-3.97 1.79-.5.46-1.04.9-1.64 1.3zM1442.86 131.79c-.11.03-.31.24-.31.24-1.32 1.22-2.59 3.55-3.3 4.99-.37.75-.59 1.26-.59 1.26 2.06-1.85 3.88-5.37 4.11-5.92.23-.55.14-.57.14-.57-.01-.01-.03-.01-.05 0zM1483.54 143.42s-.53.51-1.29 1.18c.03.19.08.38.14.55.18.54.49.94 1.01.97 0 0 .02.02.06.03.04.01.1.01.19-.01-.3-1.15-.11-2.72-.11-2.72zM1460.84 144.43c.06.17.12.34.19.49.11.22.23.42.38.57.19.18.41.39.69.58.1.06.2.12.31.18-.54-1.03-.62-2.77-.62-2.77s-.3.4-.95.95zM1478.54 140.06c-.75.41-2.24.53-2.24.53-.21.17-.52.42-.87.71-.24.4-.47.81-.65 1.21-.22.5-.38.97-.4 1.39-.08 1.5.25 2.44 1.23 2.61.06.01.12.02.19.02-.09-.39-.12-.86-.09-1.41.1-1.86 2.83-5.06 2.83-5.06zM1487.36 144.98c.01.23.05.45.13.65.32.76.69 1.13 1.12 1.23.07.02.15.03.22.03-.01-.01-.01-.03-.02-.04-.75-1.81 1.85-5.12 1.85-5.12s-1.76 1.41-3.3 3.25zM1452.5 144.53s-.32-.45-.32-1.12c0 0-1.15 1.09-2.54 2.16-.22.36-.42.71-.6 1.05-.63 1.17-1.02 2.13-1.18 2.66-.29.97-.69 4.93 1.05 5.04.04 0 .09.01.13 0 .02 0 .04-.01.06-.01-.34-1.28-.11-3.19.08-3.82.31-.98 1.4-3.46 3.32-5.96zM1494.73 136.57c-.01-.06-.02-.13-.04-.19-.18-.82-.61-1.32-1.45-.97-.57.24-1.74.97-3.25 2.13l-.3.24c.04.03.08.06.11.09.5.59-.23 1.36-.44 1.61s-1.94 1.82-2.29 2.19c-.35.37-.45.67-.28.82.1.1.48-.28.48-.28 3.36-3.16 6.28-5.16 7.3-5.59.05-.01.11-.03.16-.05zM1487.18 137.97c.4-.34.92-.52 1.4-.54.03-.08.05-.16.05-.24a.676.676 0 0 0-.17-.54c-.53-.62-1.8-.59-2.61.1-.81.69-2.6 2.87-3.15 3.44-.33.35-1.69 1.63-2.9 2.44-.27.18-.53.34-.77.46-.02.07-.04.13-.06.19-.01.04-.02.08-.02.12 0 .02-.01.05-.01.07-.01.05-.01.1-.02.15v.19c.02.22.1.42.26.58l.06.06c.08.06.18.09.29.1.6.02 1.67-.69 2.62-1.45.16-.13.32-.26.47-.39.41-.34.77-.67 1.03-.92l.04-.04c.04-.03.07-.07.1-.1l.07-.07.06-.06c.04-.04.07-.08.1-.1.57-.58 2.35-2.76 3.16-3.45zM1502.09 136.8c.28-.11.54-.18.78-.23.03-.08.06-.16.08-.23.3-1.14-.76-1.29-2.18-.75-1.53.58-3.1 2.71-3.6 3.38-.29.39-.88 1.04-1.33 1.51 0 0-.87.82-1.85 1.57-.39.29-.79.58-1.17.79-.04.07-.08.15-.12.22-.02.04-.04.09-.06.13-.01.03-.03.05-.04.08-.02.06-.04.11-.06.17 0 .01-.01.02-.01.04-.02.06-.03.12-.04.18v.01c-.01.06-.02.12-.02.18 0 .18.06.33.19.45.03.03.05.05.09.08.04.03.09.04.14.05.62.16 1.88-.71 2.87-1.51.29-.23.56-.46.78-.66.02-.02.05-.04.07-.06.04-.03.08-.07.11-.1.02-.02.05-.04.07-.06.04-.04.09-.08.13-.11.02-.02.04-.03.06-.05.02-.02.05-.04.06-.06.02-.02.04-.03.05-.05.02-.02.04-.03.05-.05l.02-.02c.01-.01.02-.01.02-.01.44-.47 1.04-1.12 1.33-1.51.47-.67 2.05-2.8 3.58-3.38zM1516.81 135.34h.03c-.01-.08-.03-.16-.06-.25-.15-.47-.53-.95-1.3-.97-1.22-.04-2.79.52-5.11 1.68-2.32 1.16-3.79 2.7-4.69 3.73-.86.98-2.24 2.15-2.36 2.25-.93.74-2.08 1.5-3.03 1.73-.17.04-.34.06-.5.07.01.24.09.49.26.73.06.08.12.14.18.2.02.01.03.03.05.04.13.11.28.18.45.21.02 0 .04.01.06.01.08.02.17.03.26.03.13 0 .27-.01.42-.04.96-.18 2.14-.95 3.11-1.71.02-.02.05-.03.07-.05.04-.03.25-.21.53-.46.12-.11.26-.23.41-.37l.04-.04c.06-.05.11-.1.17-.16a2.65 2.65 0 0 0 .24-.22l.05-.05c.07-.07.15-.14.22-.22l.05-.05.17-.17.07-.07c.05-.05.1-.1.15-.16.02-.02.04-.05.07-.07.07-.07.13-.15.2-.22.9-1.03 2.37-2.58 4.69-3.73 2.31-1.15 3.88-1.71 5.1-1.67zM1417.59 139.28c-.4-.28-1.01.44-1.01.44-2.1 2.09-4.45 3.8-5.81 4.71-.96.64-2.5 1.32-3.78 1.2a3.1 3.1 0 0 1-.53-.1c.1.26.24.5.43.69 1.09 1.12 3.08.57 4.49-.17.36-.28.7-.56 1.04-.83 2.85-2.36 4.62-4.42 4.94-4.8.39-.45.63-.86.23-1.14zM1416.98 128.72c-.12.28-.28.57-.46.88-1.03 1.73-2.83 3.72-2.83 3.72l-.77-.09c-.58.46-1.09.92-1.54 1.36-1.37 1.36-2.1 2.56-2.34 3.11-.04.1-.07.19-.09.28-.11.55.29.88.72 1.15.14.09.28.16.44.2.05.01.1.02.16.03 0-.13.03-.28.1-.44.32-.72 1.5-2.59 3.88-4.46l.77.09s4.34-4.8 3.39-5.97c-.26-.34-.78-.22-1.43.14z" fill="#000B9E"/><path d="M1402.47 143.29c.75-4.43 4.99-8.93 5.51-9.47.52-.54 3.8-4.2 8.48-6.84 1.49-.84 2.52-1.02 3.23-.86-.04-.1-.08-.2-.13-.29-.51-.94-1.71-1.6-4.42-.07-4.68 2.64-7.96 6.31-8.48 6.84-.52.54-4.76 5.03-5.51 9.47-.59 3.46.69 4.91 1.56 5.57.17.13.32.23.44.3-.61-.87-1.08-2.3-.68-4.65zM1473.55 139.48c.02-.19.07-.39.14-.58.02-.05.03-.09.05-.14.02-.04.03-.08.05-.12.03-.06.05-.11.08-.17.02-.03.03-.06.05-.09.05-.08.1-.17.15-.24.57-.82 1.57-1.79 2.34-2.26.77-.47 1.28-.43 1.47-.26.19.16.18.67-.02.84-.2.16-.1.27-.1.27s2.6-.22 3.08-.28c.12-.01.24-.03.35-.04-.02-.08-.04-.15-.06-.22-.1-.42-.2-.75-.41-.87-.3-.18-.72-.14-1.2-.08-.21.02-.8.08-1.41.13-.48.04-.98.09-1.3.11-.23.02-.37.03-.37.03s-.1-.11.1-.27c.2-.16.2-.67.02-.84-.19-.16-.7-.2-1.47.26-.77.47-1.78 1.44-2.34 2.26-.27.39-.47.89-.53 1.35-.04.33 0 .65.16.89.09.13.2.23.36.3l-.42.44c-.21.22-.47.49-.7.72-.03.08-.05.16-.08.24-.01.02-.02.05-.02.07-.02.05-.04.11-.06.16-.01.03-.02.05-.03.08-.02.05-.04.1-.05.14-.01.02-.02.05-.03.07-.02.05-.04.09-.05.14-.01.02-.01.03-.02.05-.02.05-.04.1-.06.14 0 .01-.01.01-.01.02-.05.11-.09.21-.12.28-.01.03-.02.06-.03.08-.15.38-.55.77-.56 1.05 0 .09.03.16.11.22.37.26 1.85-1.05 1.85-1.05.38-.31 1.62-1.64 1.62-1.64-.14-.07-.25-.16-.34-.27-.09-.12-.15-.27-.18-.44-.01-.06-.02-.12-.02-.19v-.05c0-.06 0-.13.01-.19-.01-.02 0-.04 0-.05zM1433.77 142.48s.62-.55 1.1-1.18c.01-.04.01-.07.01-.07s1.61-4.33 4.24-7.8c.19-.25.38-.5.57-.74.63-.79 1.22-1.5 1.78-2.1 1.02-1.1 1.9-1.85 2.59-2.2l.03-.21c.06-.61-.05-1.03-.36-1.16-.98-.41-3.24 1.65-5.92 5.19-2.63 3.47-4.24 7.8-4.24 7.8s0 .02-.01.07c-.48.63-1.1 1.18-1.1 1.18-.6.54-1.2.99-1.76 1.33-.29.17-.56.32-.81.42-.15.37-.21.72-.09 1.02.02.06.06.11.09.15.14.18.36.26.64.23.63-.06 1.57-.57 2.56-1.35.22-.17.44-.36.66-.56l.02-.02z" fill="#000B9E"/><path d="M1476.81 135.47c.33-.03.82-.07 1.3-.11-.27-.14-.71-.15-1.3.11zM1453.57 151.39c-.28.29-.57.57-.86.84.32-.26.61-.54.86-.84zM1423.56 142.05a14.238 14.238 0 0 0 1.92-1.48c-.99.55-1.56 1.03-1.92 1.48z" fill="#215D4C"/><path d="M1452.3 132.21c-.45.16-.94.5-1.35.98-.39.46-.64.96-.73 1.41-.1.48-.03.89.25 1.12.54.46 1.62.06 2.43-.89.8-.95 1.02-2.08.48-2.54-.27-.21-.66-.23-1.08-.08zM1506.57 134.84c.8-.95 1.02-2.08.48-2.54-.26-.22-.65-.24-1.07-.09-.45.16-.94.5-1.35.98-.39.46-.64.96-.73 1.41-.1.48-.03.89.25 1.12.53.46 1.61.07 2.42-.88z" fill="#fff"/><path d="M1515.93 144.42c-.36.03-.62-.08-.73-.38-.11-.3-.06-.65.09-1.02.32-.79 1.1-1.66 1.63-2.25.78-.86.9-1.68.65-2.49-.25-.82.46-.8.59-1.26.12-.46-.12-1.61-1.31-1.67h-.03c-1.22-.04-2.79.52-5.11 1.68-2.33 1.15-3.79 2.7-4.69 3.73-.06.07-.13.15-.2.22-.02.02-.04.05-.07.07-.05.05-.1.1-.15.16l-.07.07-.17.17-.05.05c-.07.07-.15.14-.22.22l-.05.05c-.06.06-.12.11-.17.16-.02.02-.04.04-.07.06-.06.05-.11.11-.17.16l-.04.04c-.15.13-.29.26-.41.37-.28.25-.49.42-.53.46-.02.02-.05.03-.07.05-.97.76-2.14 1.53-3.11 1.71-.15.03-.29.04-.42.04-.09 0-.18-.01-.26-.03-.02 0-.04-.01-.06-.01-.16-.04-.32-.11-.45-.21-.02-.01-.03-.03-.05-.04a.86.86 0 0 1-.18-.2c-.18-.24-.26-.49-.26-.73-.04-1.06 1.3-2.07 1.95-2.52.8-.56 1.9-1.81 2.46-3.21.46-1.15-.21-1.5-1.31-1.27-.24.05-.51.13-.78.23-1.53.58-3.1 2.71-3.6 3.38-.29.39-.88 1.04-1.33 1.51 0 0-.01.01-.02.01l-.02.02-.05.05c-.02.01-.03.03-.05.05l-.06.06c-.02.02-.04.03-.06.05-.04.03-.08.07-.13.11-.02.02-.05.04-.07.06-.04.03-.07.07-.11.1-.02.02-.04.04-.07.06-.22.19-.49.42-.78.66-1 .8-2.25 1.66-2.87 1.51a.578.578 0 0 1-.14-.05c-.04-.02-.06-.05-.09-.08-.13-.12-.18-.27-.19-.45 0-.06 0-.12.02-.18v-.01c.01-.06.02-.12.04-.18 0-.01.01-.02.01-.04.02-.06.04-.11.06-.17a.3.3 0 0 1 .04-.08c.02-.04.04-.09.06-.13.04-.07.08-.15.12-.22.38-.65.94-1.3 1.14-1.58.39-.53 2.25-1.94 2.15-3.08-.1-1.08-.47-1.88-1.37-1.6-.05.02-.11.03-.16.06-1.02.43-3.93 2.43-7.3 5.59 0 0-.38.38-.48.28-.17-.16-.07-.46.28-.82.35-.37 2.08-1.93 2.29-2.19.21-.25.95-1.02.44-1.61-.03-.04-.07-.06-.11-.09-.27-.24-.67-.36-1.1-.35-.48.02-1 .2-1.4.54-.81.69-2.6 2.87-3.15 3.44l-.1.1-.06.06-.07.07c-.03.03-.07.06-.1.1l-.04.04c-.27.25-.63.58-1.03.92-.15.13-.31.26-.47.39-.95.76-2.01 1.47-2.62 1.45-.12 0-.22-.03-.29-.1l-.06-.06a.89.89 0 0 1-.26-.58c0-.05-.01-.11 0-.16v-.03c0-.05.01-.1.02-.15 0-.02.01-.05.01-.07.01-.04.01-.08.02-.12.02-.06.03-.13.06-.19.22-.66.73-1.38 1.15-1.86.77-.87 2.13-2.13 2.13-2.13s.48-.41.29-1.11c-.19-.7-.26-1.29-.57-1.47-.23-.14-.52-.15-.85-.12-.11.01-.23.02-.35.04-.48.06-3.08.28-3.08.28s-.1-.11.1-.27c.2-.16.2-.67.02-.84-.19-.16-.7-.2-1.47.26-.77.47-1.78 1.44-2.34 2.26l-.15.24c-.02.03-.03.06-.05.09-.03.05-.06.11-.08.17-.02.04-.04.08-.05.12-.02.05-.04.09-.05.14-.07.19-.11.39-.14.58 0 .02 0 .04-.01.06-.01.07-.01.13-.01.19v.05c0 .06.01.13.02.19.03.16.08.31.18.44.08.11.19.21.34.27 0 0-1.24 1.32-1.62 1.64 0 0-1.49 1.31-1.85 1.05-.09-.06-.12-.13-.11-.22.01-.28.41-.68.56-1.05.01-.02.02-.05.03-.08.03-.07.07-.17.12-.28 0-.01.01-.01.01-.02.02-.04.04-.09.06-.14.01-.02.01-.03.02-.05.02-.04.04-.09.05-.14.01-.02.02-.05.03-.07.02-.05.04-.09.05-.14.01-.03.02-.05.03-.08.02-.05.04-.11.06-.16.01-.02.02-.05.02-.07.03-.08.05-.16.08-.24.3-.98.48-2.17-.23-2.85 0 0-.25-.13-.21-.37.05-.24.27-.35.08-.62-.2-.27-.48-.64-1.13-.81 0 0-.08-.02-.18 0-.08.01-.16.05-.23.13 0 0-1.24-.35-3.31 1.01-2.07 1.35-3.12 2.76-3.99 4.1-.14.22-.41.56-.73.96-.08.09-.16.18-.23.27-.08.08-.15.16-.23.24-.21.21-.43.41-.66.59-1.33 1.06-2.66 1.44-2.66 1.44-.02-.11-.05-.21-.08-.31-.04-.13-.08-.26-.13-.39-.05-.14-.11-.27-.17-.39l-.03-.06c-.06-.12-.12-.24-.18-.35-.29-.52-.56-.85-.56-.85s2.82-3.86 3.25-4.33c.43-.48 2.33-2.84 2.67-3.32.34-.47 3.86-5.26 2.39-6.14-.26-.16-.64-.04-1.09.27-2.03 1.42-5.51 6.82-6.41 8.24-.07.1-.14.21-.23.32-.03.04-.06.08-.09.11a3.848 3.848 0 0 1-.32.37c-.06.07-.13.14-.2.22-.05.05-.1.1-.15.16l-.21.21c-.05.05-.11.11-.17.16-.07.07-.15.14-.23.22-.06.06-.12.11-.18.17-.08.07-.16.15-.24.22-.06.06-.13.11-.19.17l-.25.22-.2.17c-.09.07-.17.15-.26.22l-.2.17c-.09.07-.18.15-.27.22l-.19.16c-.09.08-.18.15-.28.22-.06.05-.12.1-.18.14-.1.08-.19.16-.29.23-.05.04-.11.08-.16.13-.11.09-.22.18-.33.26-.03.03-.07.05-.1.08-.14.11-.29.23-.42.33-.03.03-.07.05-.1.08-.1.08-.2.16-.29.23-.11.09-.23.18-.33.26-.12.1-.23.19-.33.27-.07.06-.14.11-.21.17-.99.79-2.21 1.6-3.21 1.79-.32.06-.62.05-.87-.04-.05-.02-.1-.04-.15-.07 0 0-.01 0-.01-.01-.05-.02-.09-.05-.13-.08-.01-.01-.03-.02-.04-.03-.03-.03-.06-.05-.09-.08-.04-.04-.09-.09-.13-.15-.18-.24-.26-.49-.26-.73-.03-1.06 1.3-2.07 1.95-2.52.8-.56 1.9-1.81 2.46-3.21.46-1.15-.21-1.5-1.31-1.27-.24.05-.51.13-.78.23-1.53.58-3.1 2.71-3.6 3.38-.5.67-1.88 2.1-1.88 2.1-.27.23-.56.49-.87.74-1.19.99-2.58 2.04-3.48 1.98a.941.941 0 0 1-.3-.06c-.09-.04-.18-.1-.26-.16-.06-.05-.11-.11-.16-.17-.01-.01-.01-.02-.02-.03a1.07 1.07 0 0 1-.13-.21c-.04-.08-.07-.16-.1-.25-.01-.02-.01-.04-.02-.06-.03-.09-.05-.19-.07-.29-.12-.68-.04-1.64.25-2.9 0 0 3.31-2.6 5.29-5.82 1.98-3.23 2.96-6.39 1.98-6.79-.25-.1-.58-.05-.99.16-.69.34-1.57 1.1-2.59 2.2-.56.6-1.16 1.31-1.78 2.1-.19.24-.38.48-.57.74-2.63 3.47-4.24 7.8-4.24 7.8s0 .02-.01.07c-.48.63-1.1 1.18-1.1 1.18-.01.01-.02.01-.03.02-.22.2-.44.38-.66.56-.99.78-1.93 1.3-2.56 1.35-.29.03-.51-.05-.64-.23-.03-.05-.07-.09-.09-.15-.11-.3-.06-.65.09-1.02.32-.79 1.1-1.66 1.63-2.25.78-.86.9-1.68.65-2.49-.25-.82.46-.8.59-1.26.12-.46-.12-1.61-1.31-1.67h-.03c-1.22-.04-2.79.52-5.11 1.68-.51.25-.98.53-1.41.81 0 0-3.71 2.1-4.43 4.87-.38 1.43-.12 2.46.31 3.16.22.36.49.65.75.85.16.16.34.28.54.35l.01.01h.02c.03.01.06.02.09.02.15.04.3.05.47.03.71-.09 1.7-.74 2.6-1.45 1.18-.93 2.2-1.96 2.2-1.96s-1.05 1.67-.93 2.88c.03.35.15.65.43.87 1.24.99 2.87-.31 4.15-1.24.72-.52 1.59-1.26 2.22-1.82.06-.05.12-.11.18-.16.42-.37.78-.71.94-.86-.05.45-.13 1.97.64 3.23.22.36.51.71.9.99 1.64 1.21 3.82-1.4 6.15-3.34.44-.36.88-.71 1.33-.99-.14 1.33-.07 2.28.18 2.95.36.95 1.11 1.33 2.24 1.33.95 0 2.47-.98 3.78-1.98 1.38-1.06 2.54-2.16 2.54-2.16 0 .67.32 1.12.32 1.12-1.92 2.5-3.02 4.98-3.32 5.97-.19.63-.43 2.54-.08 3.82.2.73.58 1.26 1.27 1.22 1.9-.09 4.35-2.61 5.93-4.5 1.57-1.9 1.75-4.85 1.75-4.85 1.28-.59 2.19-1.24 2.8-1.76.65-.56.95-.96.95-.96s.08 1.74.62 2.77c.1.18.2.34.33.47.84.82 2.48 2.28 6.14-1.31 0 0 1.04.47 3.4-1.38l.01-.01c.15-.12.31-.25.47-.39v-.02c.64-.56 1.8-1.56 2.69-2.31.35-.29.65-.54.87-.71 0 0 1.49-.12 2.24-.53 0 0-2.73 3.2-2.83 5.06-.03.55 0 1.02.09 1.41.22.92.81 1.36 1.93 1.19 1.03-.16 3.14-1.9 4.52-3.11.76-.67 1.29-1.18 1.29-1.18s-.19 1.57.1 2.72c.17.64.48 1.16 1.08 1.2 0 0 .49.43 2.12-1.71.17-.22.34-.44.52-.65 1.54-1.84 3.31-3.25 3.31-3.25s-2.61 3.3-1.85 5.12c.01.01.01.03.02.04.75 1.76 1.81 1.38 3.32.33.87-.6 2.45-1.89 3.65-2.88.56-.47 1.05-.87 1.33-1.11-.15 1.35-.08 2.33.18 3.01.36.95 1.11 1.33 2.24 1.33 1.38 0 3.93-2.04 5.33-3.25.59-.52.98-.88.98-.88-.05.61.11 1.65.5 2.47.36.75.91 1.33 1.69 1.23.71-.09 1.7-.74 2.6-1.45 1.18-.93 2.2-1.96 2.2-1.96s-1.05 1.67-.93 2.88c.03.35.15.65.43.87 1.24.99 2.87-.31 4.15-1.24 1.28-.92 3.04-2.56 3.04-2.56l-.36-1.17c-1.29 1.01-2.53 1.77-3.3 1.84zm-76.68-7.39c.71-1.44 1.99-3.77 3.3-4.99 0 0 .19-.21.31-.24.02-.01.04-.01.05 0 0 0 .08.03-.14.57-.23.55-2.05 4.07-4.11 5.92 0-.01.22-.52.59-1.26zm-14.07 6.04c-2.58 1.74-2.58 1.11-2.18 0 .12-.33.27-.66.56-1.02.36-.44.93-.92 1.92-1.48.91-.52 2.18-1.1 3.97-1.79 0-.01-1.7 2.55-4.27 4.29zm28.39 8.32c-.25.29-.54.58-.86.84-.24.2-.5.39-.79.57 0 0-.33-.78-.09-2.19.19-1.12.74-2.62 2.1-4.45 0 0 .06.05.17.12.24.15.74.39 1.45.36-.01.01-.15 2.63-1.98 4.75zm13.82-7.3s-1.79 1.93-2.86.97c-.24-.21-.33-.57-.3-.99.06-.94.73-2.25 1.89-3.35.67-.64 1.5-1.2 2.48-1.57.01 0-1.99 3.71-1.21 4.94zm43.19-1.02c-2.58 1.74-2.58 1.11-2.18 0 .12-.33.27-.66.56-1.02.36-.44.93-.92 1.92-1.48.91-.52 2.18-1.1 3.97-1.79.01-.01-1.69 2.55-4.27 4.29zM1418.92 140.5c-.4-.28-1.01.44-1.01.44-2.1 2.09-4.45 3.8-5.81 4.71-.21.14-.45.28-.71.41-1.41.74-3.4 1.28-4.49.17-.19-.2-.33-.43-.43-.69-.6-1.48.05-3.71.05-3.71 1.26-3.77 4.36-7.49 5.4-8.64.76-.84 3.35-3.52 5.07-4.48.65-.36 1.17-.48 1.43-.16.95 1.17-3.39 5.97-3.39 5.97l-.77-.09c-2.39 1.87-3.56 3.74-3.88 4.46-.07.16-.1.31-.1.44-.01.47.34.76.72 1 .49.31.97.41 1.92-.29.95-.71 2.56-2.22 2.56-2.22 5.43-4.86 5.68-8.38 5.75-8.99.05-.42-.01-2.35-1.54-2.7-.71-.16-1.74.02-3.23.86-4.68 2.64-7.96 6.31-8.48 6.84-.52.54-4.76 5.03-5.51 9.47-.4 2.35.07 3.78.68 4.66.54.78 1.2 1.13 1.47 1.31.58.4 3.56 1.43 7.41-1.45s6.27-5.69 6.66-6.16c.38-.47.63-.89.23-1.16zM1418.28 105.37l-3.36-14.14h3.42l1.07 5.83c.31 1.68.61 3.5.84 4.93h.04c.23-1.53.57-3.23.92-4.97l1.2-5.79h3.4l1.13 5.96c.31 1.66.54 3.17.75 4.74h.04c.21-1.57.52-3.23.82-4.91l1.15-5.79h3.25l-3.65 14.14h-3.46l-1.2-6.08c-.27-1.43-.5-2.75-.67-4.36h-.04c-.25 1.59-.48 2.94-.82 4.36l-1.34 6.08h-3.49zM1443.03 99.39h-5.2v3.36h5.81v2.62h-9.02V91.23h8.73v2.62h-5.52v2.94h5.2v2.6zM1445.82 91.23h3.21v11.46h5.62v2.69h-8.83V91.23zM1466.13 104.97c-.59.29-1.91.61-3.63.61-4.89 0-7.41-3.04-7.41-7.07.01-4.82 3.45-7.51 7.73-7.51 1.66 0 2.92.34 3.48.63l-.65 2.54a6.94 6.94 0 0 0-2.69-.53c-2.54 0-4.51 1.53-4.51 4.68 0 2.83 1.68 4.62 4.53 4.62.97 0 2.04-.21 2.67-.46l.48 2.49zM1480.55 98.15c0 4.64-2.81 7.45-6.94 7.45-4.2 0-6.65-3.17-6.65-7.2 0-4.24 2.71-7.41 6.88-7.41 4.33.01 6.71 3.26 6.71 7.16zm-10.22.19c0 2.77 1.3 4.72 3.44 4.72 2.16 0 3.4-2.06 3.4-4.8 0-2.54-1.22-4.72-3.42-4.72-2.16 0-3.42 2.06-3.42 4.8zM1494.6 99.96c-.06-1.7-.13-3.76-.13-5.81h-.06c-.44 1.8-1.03 3.82-1.57 5.48l-1.72 5.52h-2.5l-1.51-5.48a66.97 66.97 0 0 1-1.28-5.52h-.04c-.08 1.91-.15 4.09-.25 5.85l-.25 5.37h-2.96l.9-14.14h4.26l1.38 4.72c.44 1.64.88 3.4 1.2 5.06h.06c.4-1.64.88-3.5 1.34-5.08l1.51-4.7h4.17l.78 14.14h-3.13l-.2-5.41zM1508.8 99.39h-5.2v3.36h5.81v2.62h-9.02V91.23h8.73v2.62h-5.52v2.94h5.2v2.6zM1517.74 93.92h-3.8v-2.69h10.87v2.69h-3.86v11.46h-3.21V93.92zM1538.85 98.15c0 4.64-2.81 7.45-6.94 7.45-4.2 0-6.65-3.17-6.65-7.2 0-4.24 2.71-7.41 6.88-7.41 4.34.01 6.71 3.26 6.71 7.16zm-10.22.19c0 2.77 1.3 4.72 3.44 4.72 2.16 0 3.4-2.06 3.4-4.8 0-2.54-1.22-4.72-3.42-4.72-2.16 0-3.42 2.06-3.42 4.8z" fill="#fff"/></g><defs><filter id="filter0_d" x="-4" y="-2" width="1608" height="408" filterUnits="userSpaceOnUse" color-interpolation-filters="sRGB"><feFlood flood-opacity="0" result="BackgroundImageFix"/><feColorMatrix in="SourceAlpha" values="0 0 0 0 0 0 0 0 0 0 0 0 0 0 0 0 0 0 127 0"/><feOffset dy="2"/><feGaussianBlur stdDeviation="2"/><feColorMatrix values="0 0 0 0 0 0 0 0 0 0 0 0 0 0 0 0 0 0 0.08 0"/><feBlend in2="BackgroundImageFix" result="effect1_dropShadow"/><feBlend in="SourceGraphic" in2="effect1_dropShadow" result="shape"/></filter><linearGradient id="paint0_linear" x1="1257.65" y1="202.46" x2="1257.65" y2="172.818" gradientUnits="userSpaceOnUse"><stop offset=".003" stop-color="#C2B69C"/><stop offset=".505" stop-color="#E3DFD7"/><stop offset=".797" stop-color="#E6E6E6"/></linearGradient><linearGradient id="paint1_linear" x1="1256.92" y1="199.021" x2="1267.66" y2="217.613" gradientUnits="userSpaceOnUse"><stop stop-color="#E3DFD7"/><stop offset=".997" stop-color="#C2B69C"/></linearGradient><linearGradient id="paint2_linear" x1="1254.16" y1="222.993" x2="1294.32" y2="222.993" gradientUnits="userSpaceOnUse"><stop offset=".005" stop-color="#CCC1AB"/><stop offset=".182" stop-color="#D0C6B4"/><stop offset=".488" stop-color="#D3CBBC"/><stop offset=".997" stop-color="#D4CDBF"/></linearGradient><linearGradient id="paint3_linear" x1="1221.73" y1="200.632" x2="1234.45" y2="200.632" gradientUnits="userSpaceOnUse"><stop stop-color="#E3DFD7"/><stop offset=".997" stop-color="#C2B69C"/></linearGradient><linearGradient id="paint4_linear" x1="1233.11" y1="222.827" x2="1233.11" y2="203.311" gradientUnits="userSpaceOnUse"><stop offset=".003" stop-color="#C2B69C"/><stop offset="1" stop-color="#E3DFD7"/></linearGradient><linearGradient id="paint5_linear" x1="1235.11" y1="225.962" x2="1260.59" y2="225.962" gradientUnits="userSpaceOnUse"><stop offset=".003" stop-color="#C2B69C"/><stop offset="1" stop-color="#E3DFD7"/></linearGradient><linearGradient id="paint6_linear" x1="1245.3" y1="215.981" x2="1310.09" y2="215.981" gradientUnits="userSpaceOnUse"><stop offset=".003" stop-color="#389CC7"/><stop offset="1" stop-color="#2E7EC9"/></linearGradient><linearGradient id="paint7_linear" x1="1274.32" y1="205.658" x2="1306.49" y2="205.658" gradientUnits="userSpaceOnUse"><stop offset=".003" stop-color="#389CC7"/><stop offset="1" stop-color="#2E7EC9"/></linearGradient><linearGradient id="paint8_linear" x1="1277.42" y1="212.706" x2="1262.93" y2="223.551" gradientUnits="userSpaceOnUse"><stop stop-color="#2E7EC9"/><stop offset=".997" stop-color="#389CC7"/></linearGradient><linearGradient id="paint9_linear" x1="1190.63" y1="197.176" x2="1202.66" y2="197.176" gradientUnits="userSpaceOnUse"><stop stop-color="#E3DFD7"/><stop offset=".997" stop-color="#C2B69C"/></linearGradient><linearGradient id="paint10_linear" x1="1190.54" y1="206.862" x2="1217.99" y2="206.862" gradientUnits="userSpaceOnUse"><stop stop-color="#E3DFD7"/><stop offset=".997" stop-color="#C2B69C"/></linearGradient><linearGradient id="paint11_linear" x1="1199.15" y1="207.919" x2="1221.93" y2="207.919" gradientUnits="userSpaceOnUse"><stop offset=".203" stop-color="#E6E6E6"/><stop offset=".495" stop-color="#E3DFD7"/><stop offset=".997" stop-color="#C2B69C"/></linearGradient><linearGradient id="paint12_linear" x1="1218.31" y1="228.998" x2="1218.31" y2="211.44" gradientUnits="userSpaceOnUse"><stop stop-color="#E3DFD7"/><stop offset=".997" stop-color="#C2B69C"/></linearGradient><linearGradient id="paint13_linear" x1="1203.49" y1="199.059" x2="1212.27" y2="199.059" gradientUnits="userSpaceOnUse"><stop offset=".203" stop-color="#E6E6E6"/><stop offset=".495" stop-color="#E3DFD7"/><stop offset=".997" stop-color="#D4CDBF"/></linearGradient><linearGradient id="paint14_linear" x1="1224.07" y1="226.57" x2="1227.42" y2="226.57" gradientUnits="userSpaceOnUse"><stop stop-color="#E3DFD7"/><stop offset=".997" stop-color="#C2B69C"/></linearGradient><linearGradient id="paint15_linear" x1="1171.35" y1="197.146" x2="1185.95" y2="197.146" gradientUnits="userSpaceOnUse"><stop stop-color="#E3DFD7"/><stop offset=".997" stop-color="#C2B69C"/></linearGradient><linearGradient id="paint16_linear" x1="1161.44" y1="185.133" x2="1187.05" y2="185.133" gradientUnits="userSpaceOnUse"><stop offset=".203" stop-color="#E6E6E6"/><stop offset=".495" stop-color="#E3DFD7"/><stop offset=".997" stop-color="#C2B69C"/></linearGradient><linearGradient id="paint17_linear" x1="1168.82" y1="177.39" x2="1173.93" y2="177.39" gradientUnits="userSpaceOnUse"><stop offset=".203" stop-color="#E6E6E6"/><stop offset=".495" stop-color="#E3DFD7"/><stop offset=".997" stop-color="#D4CDBF"/></linearGradient><clipPath id="clip0"><path fill="#fff" transform="translate(1401 91)" d="M0 0h153.58v69.91H0z"/></clipPath></defs></svg>