<svg width="40" height="34" fill="none" xmlns="http://www.w3.org/2000/svg" viewBox="0 0 40 34"><path d="M1.467 29.985H.02v-.007a.879.879 0 0 1-.017-.14C0 29.8 0 29.755 0 29.705c0-.124.047-.242.137-.346.09-.104.24-.158.453-.158h3.258c.013.097.02.198.02.3 0 .12-.04.23-.124.332-.083.1-.23.15-.443.15h-.874v3.899H1.47l-.003-3.898zm5.651 3.155c.224 0 .374.05.454.155.08.104.12.215.12.342 0 .05 0 .094-.003.128-.004.034-.007.074-.01.114H4.678V29.2h2.89c.01.05.014.094.017.127.004.034.004.078.004.128 0 .165-.04.286-.124.366-.083.08-.237.121-.463.121H5.635v1.153h1.47v.746h-1.47v1.293h1.483v.007zm2.414-.034h1.35c.11 0 .204.014.277.04a.43.43 0 0 1 .174.112c.04.047.07.1.086.16.017.061.024.122.024.182 0 .047 0 .105-.003.168a.674.674 0 0 1-.01.111H8.575v-4.674c.064-.01.127-.016.19-.023a1.107 1.107 0 0 1 .353.01c.071.013.141.04.201.08.063.04.113.095.153.165.04.07.06.165.06.28v3.39zm5.218.034c.224 0 .374.05.454.155.08.104.12.215.12.342 0 .05 0 .094-.004.128a7.48 7.48 0 0 0-.01.114h-3V29.2h2.89c.01.05.014.094.017.127.003.034.003.078.003.128 0 .165-.04.286-.123.366-.083.08-.237.121-.463.121h-1.367v1.153h1.47v.746h-1.47v1.293h1.483v.007zm10.853-1.146c0 .094-.003.185-.007.28-.003.093-.01.187-.02.285-.02.195-.066.38-.143.554a1.27 1.27 0 0 1-.333.454 1.602 1.602 0 0 1-.544.302c-.217.074-.473.111-.77.111-.3 0-.553-.034-.764-.097a1.389 1.389 0 0 1-.52-.283 1.257 1.257 0 0 1-.32-.453 2.465 2.465 0 0 1-.153-.618 3.283 3.283 0 0 1-.02-.26 7.323 7.323 0 0 1-.007-.278v-2.786c.064-.01.127-.016.19-.023a1.107 1.107 0 0 1 .353.01c.07.013.137.04.197.08s.11.095.15.165c.04.07.06.165.06.28v2.338c0 .168.01.319.03.453.02.135.064.252.124.346.063.095.15.172.26.226.11.053.257.08.437.08.313 0 .533-.09.66-.275.123-.185.186-.44.186-.773v-2.907c.064-.01.127-.016.19-.023a1.108 1.108 0 0 1 .354.01.53.53 0 0 1 .197.08c.06.04.11.095.15.165.04.07.06.165.06.28l.003 2.277zm4.688 1.889h-.804l-1.973-3.075v3.075h-.907v-4.668c.046-.01.11-.02.186-.026.08-.01.157-.014.237-.014.147 0 .264.027.347.077a.7.7 0 0 1 .223.239l1.787 2.94v-3.219c.064-.01.124-.017.18-.023a1.047 1.047 0 0 1 .337.01.48.48 0 0 1 .334.245c.036.07.056.165.056.279l-.003 4.16zm4.698-2.42c0 .33-.044.642-.13.938a2.172 2.172 0 0 1-.404.77c-.18.218-.41.392-.69.52-.28.128-.61.192-.987.192h-1.477v-4.637a10.269 10.269 0 0 1 1.304-.084c.463 0 .847.06 1.15.184.303.125.55.29.73.501.184.208.314.454.387.733.077.279.117.574.117.883zm-.97.014c0-.219-.02-.424-.064-.615a1.355 1.355 0 0 0-.213-.5 1.054 1.054 0 0 0-.414-.337 1.545 1.545 0 0 0-.653-.12c-.133 0-.274.006-.417.02v3.218h.38c.274 0 .497-.04.677-.12.177-.081.32-.196.423-.343.104-.148.177-.323.217-.528.04-.201.064-.427.064-.675zm5.981.05c0 .336-.04.652-.117.954-.08.3-.203.565-.373.79-.17.225-.39.403-.657.534s-.59.195-.97.195c-.374 0-.694-.067-.957-.198a1.771 1.771 0 0 1-.644-.538 2.238 2.238 0 0 1-.363-.786 3.775 3.775 0 0 1-.113-.944c0-.326.04-.635.123-.927.083-.293.213-.552.387-.773.176-.222.396-.397.667-.528.266-.13.586-.195.957-.195.363 0 .676.064.94.188.263.125.473.296.64.515.167.215.29.47.367.766.073.292.113.608.113.947zm-.977.007c0-.225-.02-.437-.057-.635a1.642 1.642 0 0 0-.186-.528 1.004 1.004 0 0 0-.34-.36.95.95 0 0 0-.514-.13c-.213 0-.39.043-.537.13a1.01 1.01 0 0 0-.353.36c-.09.152-.153.326-.194.528-.04.201-.06.413-.06.635 0 .225.02.437.06.642.04.205.104.386.19.544a.942.942 0 0 0 .873.517.942.942 0 0 0 .528-.14c.143-.095.257-.22.343-.377.087-.158.147-.34.187-.544.04-.205.06-.417.06-.642zm-18.268-2.312a2.489 2.489 0 0 0-.32-.02.67.67 0 0 0-.403.108.804.804 0 0 0-.23.282l-1.2 2.483-1.201-2.483a.793.793 0 0 0-.23-.282c-.093-.071-.23-.108-.404-.108-.11 0-.216.007-.32.02-.073.01-.173.037-.253.06v4.6h.897v-3.057l1.043 2.086h.934l1.044-2.086v3.058h.897v-4.6c-.08-.024-.18-.05-.254-.06z" fill="#243746"/><path d="M32.168 0h-3.94a13.125 13.125 0 0 0-8.236 2.896A13.105 13.105 0 0 0 11.756 0h-3.94a.31.31 0 0 0-.31.312v9.183a.31.31 0 0 0 .31.313h7.181v16.047a.31.31 0 0 0 .397.3 13.134 13.134 0 0 0 4.598-2.386 13.136 13.136 0 0 0 4.598 2.385.311.311 0 0 0 .396-.299V9.808h7.182a.31.31 0 0 0 .31-.313V.312a.31.31 0 0 0-.31-.312z" fill="#EB1010"/><path d="M14.997 13.332V9.808H7.815a.31.31 0 0 1-.31-.313V.312A.31.31 0 0 1 7.815 0h3.945c3.114 0 5.975 1.085 8.235 2.896a13.359 13.359 0 0 0-4.998 10.437zm0 0v12.523a.31.31 0 0 0 .397.3 13.134 13.134 0 0 0 4.598-2.386 13.361 13.361 0 0 1-4.995-10.436z" fill="#911010"/><path d="M19.992 23.765a13.344 13.344 0 0 1-4.995-10.433c0-4.223 1.95-7.99 4.995-10.433a13.344 13.344 0 0 1 4.994 10.433c0 4.224-1.95 7.99-4.994 10.433z" fill="#C31010"/></svg>