<svg width="86" height="24" fill="none" xmlns="http://www.w3.org/2000/svg" viewBox="0 0 86 24"><g filter="url(#filter0_d)" fill="#5F01D1" clip-path="url(#clip0)"><path d="M3.573 23.797l2.049-4.77L0 5.792h5.105l2.973 7.605 3.011-7.605h4.97L8.576 23.797H3.573zM21.238 5.49c-3.836 0-6.26 3.44-6.26 6.866 0 3.855 2.658 6.911 6.187 6.911 2.633 0 3.626-1.604 3.626-1.604v1.25h4.452V5.793h-4.452v1.193S23.683 5.49 21.238 5.49zm.947 4.216c1.77 0 2.683 1.4 2.683 2.665 0 1.36-.978 2.695-2.683 2.695-1.413 0-2.69-1.154-2.69-2.638 0-1.504 1.027-2.722 2.69-2.722zM30.777 18.913V0h4.657v7.031s1.106-1.539 3.423-1.539c2.834 0 4.494 2.112 4.494 5.129v8.292h-4.623v-7.156c0-1.021-.486-2.008-1.588-2.008-1.121 0-1.706 1.002-1.706 2.008v7.156h-4.657zM51.292 5.492c-4.393 0-7.008 3.34-7.008 6.92 0 4.072 3.166 6.856 7.025 6.856 3.739 0 7.01-2.658 7.01-6.789 0-4.52-3.425-6.987-7.027-6.987zm.042 4.253c1.551 0 2.625 1.293 2.625 2.67 0 1.176-1 2.626-2.625 2.626-1.489 0-2.606-1.194-2.606-2.638 0-1.39.929-2.658 2.606-2.658zM66.079 5.492c-4.393 0-7.009 3.34-7.009 6.92 0 4.072 3.167 6.856 7.025 6.856 3.74 0 7.012-2.658 7.012-6.789 0-4.52-3.426-6.987-7.028-6.987zm.042 4.253c1.551 0 2.625 1.293 2.625 2.67 0 1.176-1 2.626-2.625 2.626-1.49 0-2.607-1.194-2.607-2.638 0-1.39.93-2.658 2.607-2.658zM76.782 19.191a3.093 3.093 0 1 0 0-6.185 3.093 3.093 0 0 0 0 6.185zM80.264 0h5.547l-4.92 11.87h-5.568L80.264 0z"/></g><defs><filter id="filter0_d" x="-100" y="-98" width="285.811" height="223.797" filterUnits="userSpaceOnUse" color-interpolation-filters="sRGB"><feFlood flood-opacity="0" result="BackgroundImageFix"/><feColorMatrix in="SourceAlpha" values="0 0 0 0 0 0 0 0 0 0 0 0 0 0 0 0 0 0 127 0"/><feOffset dy="2"/><feGaussianBlur stdDeviation="50"/><feColorMatrix values="0 0 0 0 0.223529 0 0 0 0 0.47451 0 0 0 0 0.901961 0 0 0 0.1 0"/><feBlend in2="BackgroundImageFix" result="effect1_dropShadow"/><feBlend in="SourceGraphic" in2="effect1_dropShadow" result="shape"/></filter><clipPath id="clip0"><path fill="#fff" d="M0 0h85.811v23.797H0z"/></clipPath></defs></svg>