<svg width="71" height="19" fill="none" xmlns="http://www.w3.org/2000/svg" viewBox="0 0 71 19"><path opacity=".8" d="M7.168 1.714h1.54a5.184 5.184 0 0 1 2.767.352 4.9 4.9 0 0 1 2.214 2.956c.23.648.23.648.783.418h.432V.31H.418v.905h.594c.523-.004 1.02.23 1.35.634.554.891.648 1.89.648 7.088 0 5.522-.121 6.872-.648 7.56a1.458 1.458 0 0 1-1.12.594c-.824.148-.824.135-.824.5a.54.54 0 0 0 0 .377h9.14a.85.85 0 0 0 0-.769 4.658 4.658 0 0 0-.675-.135 4.505 4.505 0 0 1-.73-.148 2.43 2.43 0 0 1-.985-2.201c-.135-.891-.202-2.524-.202-3.874V9.774h.54a7.29 7.29 0 0 1 1.998.216 2.497 2.497 0 0 1 1.16 1.782l.122.418h.824V6.21h-.756l-.122.58a2.403 2.403 0 0 1-1.228 1.782c-.32.096-.656.119-.986.068H6.966V7.182c0-1.512.08-4.698.135-5.198l.067-.27zm63.18 10.706a4.9 4.9 0 0 0-2.794-2.12 6.75 6.75 0 0 1-2.417-1.35 1.35 1.35 0 0 1-.391-1.201c.001-.426.17-.834.472-1.134a1.634 1.634 0 0 1 1.62-.446 3.402 3.402 0 0 1 2.39 2.538c.216.608.243.608.634.446l.243-.095V5.697l-.175-.081a10.435 10.435 0 0 0-4.145-.567 4.86 4.86 0 0 0-3.24 1.35 3.726 3.726 0 0 0-1.174 2.916 3.2 3.2 0 0 0 .918 2.214 5.481 5.481 0 0 0 2.295 1.35c2.092.824 2.7 1.35 2.7 2.309a1.782 1.782 0 0 1-1.35 1.768c-.471.104-.96.104-1.431 0a4.158 4.158 0 0 1-2.525-2.848l-.175-.433h-.243a1.08 1.08 0 0 0-.338.082h-.135v3.833h.23a13.92 13.92 0 0 0 2.808.622h1.35a5.292 5.292 0 0 0 1.741-.163 4.198 4.198 0 0 0 3.186-2.7c.162-.384.244-.797.243-1.215a3.36 3.36 0 0 0-.297-1.714zM57.631 5.44a6.224 6.224 0 0 0-5.09.122 5.927 5.927 0 0 0-3.09 3.686 7.21 7.21 0 0 0-.365 2.7c-.01.497.031.995.121 1.484a5.994 5.994 0 0 0 4.847 4.833 9.452 9.452 0 0 0 2.362 0 6.48 6.48 0 0 0 2.295-.877 4.05 4.05 0 0 0 1.431-1.35.675.675 0 0 0-.324-.418c-.154.055-.3.133-.432.229a3.86 3.86 0 0 1-2.268.634 3.605 3.605 0 0 1-2.875-1.133 3.226 3.226 0 0 1-.689-.918 6.279 6.279 0 0 1-.661-2.7v-.527h7.479v-.27c.016-.27.016-.54 0-.81a5.4 5.4 0 0 0-2.74-4.684zm-3.766 4.671h-.945v-.796c.31-2.038 1.08-3.253 2.025-3.253.945 0 1.35 1.201 1.525 3.401v.622h-.81l-1.795.026zM34.452 4.995c-.466-.018-.93.08-1.35.284a4.523 4.523 0 0 0-2.093 2.092l-.175.324v-2.7h-.068c-.162 0-5.157.999-5.319 1.066-.162.068-.108.082-.108.325 0 .242 0 .283.108.296l.527.108a.972.972 0 0 1 .756.392c.337.446.405 1.229.405 4.563a26.062 26.062 0 0 1-.19 4.496c-.092.46-.465.812-.93.877l-.46.095h-.175v.377a.54.54 0 0 0 0 .392h7.546v-.392a.985.985 0 0 0 0-.391 7.542 7.542 0 0 1-1.35-.176 1.35 1.35 0 0 1-.715-1.35c-.108-.783-.162-3.078-.135-4.832.027-1.755 0-1.864.148-1.985a2.43 2.43 0 0 1 1.58-.5 3.523 3.523 0 0 1 1.539.392c.165.092.342.16.526.203 0 0 1.35-3.268 1.35-3.416a1.593 1.593 0 0 0-1.417-.54zm-9.1 5.67a6.061 6.061 0 0 0-2.78-4.806 7.02 7.02 0 0 0-6.318-.175c-1.405.74-2.465 2-2.957 3.51a9.02 9.02 0 0 0 0 5.183 5.658 5.658 0 0 0 1.445 2.444 5.481 5.481 0 0 0 3.118 1.512 13.61 13.61 0 0 0 2.268 0c.278-.042.553-.1.824-.175a6.007 6.007 0 0 0 4.306-4.793c.135-.893.167-1.8.095-2.7zm-5.615 6.75c-1.35.405-2.363-.904-2.7-3.658a25.308 25.308 0 0 1 0-4.334c.27-2.214.958-3.335 2.025-3.335.436-.027.86.16 1.134.5.904.904 1.35 2.7 1.35 5.4a10.002 10.002 0 0 1-.702 4.482 2.052 2.052 0 0 1-1.107.878v.067zm24.3-12.15a4.495 4.495 0 0 0-1.148 0c-.73 0-1.454.156-2.12.459l-.418.175V2.97c.074-.989.074-1.981 0-2.97-.162 0-5.319.986-5.4 1.026-.04.1-.04.21 0 .31 0 .284 0 .27.608.405.17.039.334.102.486.19.263.247.439.574.5.931.153 1.027.203 2.068.148 3.105V17.82l.364.081c.54.122 2.066.378 2.565.432.998.08 2 .08 2.997 0a6.116 6.116 0 0 0 5.05-3.793c.248-.663.42-1.351.512-2.052.08-.95.05-1.906-.094-2.849a5.197 5.197 0 0 0-4.05-4.374zM40.5 17.185c0-.175-.135-6.088-.108-8.45v-1.85l.391-.095c.265-.037.533-.037.797 0 .292-.03.586.037.837.19a4.05 4.05 0 0 1 1.741 3.077c.099.983.099 1.974 0 2.957a6.493 6.493 0 0 1-1.566 3.875c-.265.252-.598.42-.958.486a2.402 2.402 0 0 1-.824 0c-.256 0-.256-.081-.256-.19H40.5z" fill="#181716"/></svg>