<svg width="283" height="72" fill="none" xmlns="http://www.w3.org/2000/svg" viewBox="0 0 283 72"><path d="M218.953 41.705h-12.661v29.79h12.661v-29.79zM203.313 27.183h-11.171v44.312h11.171V27.183z" fill="#DDF5FF"/><path d="M200.707 45.802h-21.598v25.693h21.598V45.802z" fill="#DDF5FF"/><path d="M210.388 55.11h-12.66v16.385h12.66V55.11zM184.695 35.375h-8.565v36.12h8.565v-36.12zM170.917 13.777h-18.991v57.718h18.991V13.776zM143.362 0h-11.171v71.495h11.171V0zM129.956 8.937h-13.777v62.557h13.777V8.937z" fill="#DDF5FF"/><path d="M179.109 49.152h-20.108v22.342h20.108V49.152zM150.437 32.023h-10.799v39.471h10.799v-39.47z" fill="#DDF5FF"/><path d="M154.533 59.207h-8.192v12.288h8.192V59.207zM223.049 59.207h-8.193v12.288h8.193V59.207zM143.362 46.546H127.35v24.949h16.012v-24.95zM118.041 38.353H82.293v33.141h35.748v-33.14zM16.757 65.91H0v5.585h16.757v-5.586z" fill="#DDF5FF"/><path d="M82.294 57.345h-6.33v14.15h6.33v-14.15z" fill="#DDF5FF"/><path d="M79.314 35.003H56.228v36.492h23.086V35.003z" fill="#DDF5FF"/><path d="M59.952 8.937H47.29v62.557h12.66V8.937z" fill="#DDF5FF"/><path d="M52.504 48.408H35.375v23.087h17.129V48.408z" fill="#DDF5FF"/><path d="M39.471 31.28H29.79v40.215h9.681V31.28z" fill="#DDF5FF"/><path d="M32.023 19.735H8.192v51.76h23.831v-51.76zM111.711 2.979h-7.075v68.515h7.075V2.98zM91.23 49.152h-5.958v22.342h5.958V49.152zM283 45.802h-9.309v25.693H283V45.802z" fill="#DDF5FF"/><path d="M279.276 35.375h-8.564v36.12h8.564v-36.12zM265.499 14.15h-18.991v57.345h18.991V14.15zM237.944 4.469h-11.172v67.026h11.172V4.47zM224.538 9.31h-13.777v62.185h13.777V9.31z" fill="#DDF5FF"/><path d="M273.691 54.366h-20.108v17.13h20.108v-17.13zM245.018 35.375H234.22v36.12h10.798v-36.12z" fill="#DDF5FF"/><path d="M249.114 65.164h-8.192v6.33h8.192v-6.33zM237.943 51.387h-16.011v20.108h16.011V51.387zM212.622 40.96h-35.747v30.535h35.747V40.961zM111.338 42.45H75.963v29.045h35.375V42.45zM176.875 63.675h-6.33v7.82h6.33v-7.82z" fill="#DDF5FF"/><path d="M173.896 38.727h-23.087v32.768h23.087V38.727z" fill="#DDF5FF"/><path d="M154.533 18.246h-7.448v53.249h7.448V18.246z" fill="#DDF5FF"/><path d="M147.085 53.621h-17.128v17.874h17.128V53.62z" fill="#DDF5FF"/><path d="M134.053 34.63h-9.682v36.864h9.682V34.63z" fill="#DDF5FF"/><path d="M126.605 21.97h-23.832v49.525h23.832V21.97zM206.292 3.352h-7.075v68.143h7.075V3.352zM185.812 54.366h-5.958v17.13h5.958v-17.13z" fill="#DDF5FF"/><path d="M14.522 49.898H0v21.597h14.522V49.897zM32.024 41.333H18.246v30.162h13.778V41.333z" fill="#C8E8F5"/><path d="M48.035 52.504H21.597v18.99h26.438v-18.99z" fill="#C8E8F5"/><path d="M25.321 58.09H9.681v13.405h15.64V58.09zM51.76 46.546H41.332v24.949h10.426v-24.95zM81.549 33.513h-23.46v37.981h23.46V33.513zM106.125 11.916h-14.15v59.579h14.15V11.916zM125.861 35.747h-16.757v35.747h16.757V35.747z" fill="#C8E8F5"/><path d="M72.984 54.738H48.036v16.757h24.948V54.738zM96.816 44.312H83.41v27.182h13.405V44.312z" fill="#C8E8F5"/><path d="M88.251 60.696H78.57v10.799h9.681V60.696zM111.711 53.249H91.975v18.246h19.736V53.25zM167.566 48.035h-43.94v23.46h43.94v-23.46zM283 55.855h-34.258v15.64H283v-15.64zM175.758 59.58h-8.192v11.915h8.192V59.579z" fill="#C8E8F5"/><path d="M200.334 46.174h-28.672v25.32h28.672v-25.32z" fill="#C8E8F5"/><path d="M204.43 35.003h-8.936v36.492h8.936V35.003zM226.028 54.366H204.43v17.13h21.598v-17.13z" fill="#C8E8F5"/><path d="M232.73 43.94h-12.288v27.555h12.288V43.939z" fill="#C8E8F5"/><path d="M259.541 37.237h-29.417v34.258h29.417V37.237z" fill="#C8E8F5"/><g clip-path="url(#clip0)"><path d="M171.944.495s8.48 3.181 8.767 6.948c.286 3.768-3.348 5.666-2.175 9.22 1.175 3.554 4.416 4.497 3.424 7.265-.993 2.768-4.144 5.123-4.3 7.77-.16 2.649 2.618.474 3.524 2.2.906 1.725-3.458 10.252-3.458 10.252s-4.103-1.676-4.79-2.399c-.682-.722-1.262-.706-.902-2.598.359-1.892-.17-3.057-1.606-4.023-1.435-.966-2.948-1.753-2.395-3.608.553-1.855 8.704-4.41 8.624-6.159-.077-1.748-1.169-.36-1.562-3.41-.393-3.052-4.027-4.74-5.586-6.14-1.559-1.398-1.209-2.677-.077-3.54 1.133-.863 3.944-2.958 3.994-5.979.053-3.02-1.482-5.799-1.482-5.799z" fill="#D6ECFF"/><path d="M171.944.495s8.48 3.181 8.767 6.948c.286 3.768-3.348 5.666-2.175 9.22 1.175 3.554 4.416 4.497 3.424 7.265-.993 2.768-4.144 5.123-4.3 7.77-.16 2.649 2.618.474 3.524 2.2.906 1.725-3.458 10.252-3.458 10.252s-4.103-1.676-4.79-2.399c-.682-.722-1.262-.706-.902-2.598.359-1.892-.17-3.057-1.606-4.023-1.435-.966-2.948-1.753-2.395-3.608.553-1.855 8.704-4.41 8.624-6.159-.077-1.748-1.169-.36-1.562-3.41-.393-3.052-4.027-4.74-5.586-6.14-1.559-1.398-1.209-2.677-.077-3.54 1.133-.863 3.944-2.958 3.994-5.979.053-3.02-1.482-5.799-1.482-5.799z" fill="#E8E9EA"/><path d="M189.101 22.919l1.476 1.176-1.593 3.547-1.209-1.462 1.326-3.261z" fill="#FAA284"/><path d="M192.928 21.22c-.583-.443-2.758-2.182-3.627-2.705-.869-.523-3.038-1.678-3.428-1.872-.389-.193-.636-.606-.699-.949-.063-.343-.093-1.266-.24-1.609-.146-.343-.356-.45-.373-.66-.017-.21-.553-.282-.553-.282l-.816 1.359-.569.949c.109.273 1.139 1.635 1.525 1.732.39.096 2.378 1.885 2.835 2.295.459.413 3.224 4.616 3.224 4.616l2.721-2.874z" fill="#FAA284"/><path d="M186.263 27.642s-.07-.587.19-1.023c0 0 .33.603-.19 1.023z" fill="#B22828"/><path d="M185.544 27.196s.153.116.236.153c0 0 .47-.433.6-.936l-.16-.103-.676.886z" fill="#F2F0F2"/><path d="M183.335 20.454c-3.151 3.188.906 5.5.933 5.523.123.226.23.642.233.782.01.314.057.363.057.363.313.317.666.117.786-.04.093.077.183.15.273.22.393-.39.663-.81.663-.81.1.107.41.65-.043 1.127-.014.013-.034.036-.057.056.54.287 1.056.33 1.526-.15 1.522-1.545 1.438-4.33 1.438-4.33-.143-1.159-.859-2.045-.859-2.045s-2.108-3.57-4.95-.696z" fill="#FAA284"/><path d="M185.107 25.117c-.17-.17-.386-.226-.483-.126-.096.096-.036.313.134.483.169.17.386.226.483.126.096-.096.036-.313-.134-.483z" fill="#502F26"/><path d="M184.811 24.081l-.166-.196c-.027.023-.59.246-.983.77l.283.289c.287-.47.86-.856.866-.863z" fill="#89493D"/><path d="M182.44 24.125s-1.745.466-2.248-1c0 0 .153.154.343.2 0 0-.79-.879-.313-1.655 0 0 .466.73.929.08s2.808-3.874 4.916-2.975c0 0 2.305-.066 3.035 4.14 0 0-1.336 1.177-2.808 1.003 0 0-.636-.423-1.036-.6-.4-.173-1.306-.376-1.686-1.055 0 .003-.106.822-1.132 1.862z" fill="#893626"/><path d="M180.221 21.67c-.48.78.313 1.655.313 1.655-.186-.046-.343-.2-.343-.2.06.18.143.33.237.457.912-.233 2.221-.93 3.164-2.958 0 0-1.329 1.053-2.315.953-.05.07-.093.126-.123.173-.467.65-.933-.08-.933-.08z" fill="#9B4135"/><path d="M183.572 22.266c.379.68 1.285.883 1.685 1.056.4.173 1.036.6 1.036.6 1.472.172 2.808-1.003 2.808-1.003a8.91 8.91 0 0 0-.5-1.822c-2.025 2.178-5.023 1.169-5.029 1.169z" fill="#7A2C21"/><path d="M186.167 23.309s-.17.27.376.963.753.586.819.563c0 0 .717-.407-.023-1.526-.616-.933-1.172 0-1.172 0z" fill="#FAA284"/><path d="M186.949 24.392s.2-.613-.323-.496c0 0-.363-.573.014-.743.376-.17.599.486.639.63.077.302-.043.892-.33.609z" fill="#DB7C65"/><path d="M180.547 34.523c-.706.57-2.847 1.966-3.574 2.389-.726.426-1.948 1.285-2.271 1.285-.323 0-.76.134-.93.303-.166.167-.543.533-.543.533l3.092.77s.922-.553 2.141-.81c1.219-.256 3.954-1.472 4.314-1.832.356-.356-2.229-2.638-2.229-2.638z" fill="#FAA284"/><path d="M200.513 67.572c-.47.393-2.462 2.095-2.885 2.205-.443.114-1.645.01-1.859.333-.269.407.497.866.983.923.466.053 5.906-.047 6.435-.166.53-.12 1.043-.53 1.119-.667.077-.136.12-1.692-.179-2.068-.307-.38-3.614-.56-3.614-.56z" fill="#082F3B"/><path d="M200.513 67.572c-.47.393-2.462 2.095-2.885 2.205-.443.114-1.645.01-1.858.333-.104.157-.054.323.076.47 1.133.406 2.622-.38 4.254-1.093a3.898 3.898 0 0 0 1.909-1.798c-.787-.077-1.496-.117-1.496-.117z" fill="#0B4354"/><path d="M199.747 40.752s.612 11.222.889 12.721c.276 1.499.866 1.576.946 4.297.08 2.721-.197 6.855-.693 7.818-.496.962-1.129 2.031.163 2.438 1.293.406 2.568.236 3.101-.044.533-.276.663-.982.813-2.438.15-1.455.486-10.695.486-12.134 0-1.44-.166-14.553-.446-15.032-.28-.48-5.259 2.374-5.259 2.374z" fill="#206385"/><path d="M206.046 67.572c-.2.473-1.253 1.513-1.926 1.842-.673.33-1.452.663-2.008.72-.556.06-.85.106-.933.436-.083.33 1.053.78 2.292.77 1.239-.014 4.207-.404 4.583-.38.38.023 1.689.176 1.925-.06.237-.237.117-2.588.06-2.835-.06-.246-3.993-.493-3.993-.493z" fill="#082F3B"/><path d="M206.045 67.572c-.2.473-1.252 1.513-1.925 1.842-.673.33-1.452.663-2.008.72-.557.06-.85.106-.933.436-.04.163.213.353.629.506.707-.146 1.686-.46 2.972-1.105 1.582-.797 2.418-1.65 2.861-2.282-.85-.07-1.596-.117-1.596-.117z" fill="#0B4354"/><path d="M200.273 40.978s2.655 11.379 3.238 12.834c.582 1.456 1.725 2.698 1.891 3.617.167.92 1.083 7.468.873 8.508-.213 1.035-.519 1.412-.306 1.555.213.14 1.509.543 2.098.943.59.4 2.025-.19 2.145-.543.12-.353-.659-9.703-1.132-11.378-.47-1.676-1.156-4.197-1.579-5.163-.423-.966-.376-2.379-.307-3.77.07-1.39-.353-3.442.117-4.408.47-.966.989-1.295 1.083-2.898.093-1.602-3.578-3.937-5.986-3.477-1.432.27-2.545 2.438-2.135 4.18z" fill="#26769E"/><path d="M187.219 29.357c-.989 1.096-2.395 2.682-3.321 2.951-.929.27-1.012-.103-1.589.35-.576.453-2.125 1.422-2.105 1.776.02.353 2.435 3.114 2.991 2.887.557-.226 1.859-1.569 3.095-2.291 1.239-.723 3.9-2.435 4.25-2.292.35.143 2.425 1.486 3.594 2.861 1.172 1.373 2.072 2.612 2.072 3.534 0 .923-.297 1.946-.673 2.592-.376.65-1.006.956-.666 1.399.34.443 1.092-.633 1.875-.58.786.05 3.138-.406 3.94-1.569.803-1.162 1.569-2.441 3.158-2.135 1.586.307 3.548 1.353 4.284 1.143.946-.27.153-1.722-.973-3.378-1.126-1.655-6.738-7.907-7.654-9.58-.916-1.671-2.712-4.256-4.48-5.046-1.766-.79-3.068-1.508-3.674-.936-.606.577-.926 1.553-.926 1.806 0 .256-.463-.097-.463-.097s-1.279 2.518-1.243 3.018c.037.503.303 1.179-.303 1.506-.606.326-1.086.536-1.142 1.049-.06.52.12.846-.047 1.032z" fill="#39B4BC"/><path d="M190.94 23.375l-.649-.436c-.137-.03-.337-.18-.337-.18s-1.279 2.518-1.242 3.018c.013.193.06.41.08.622.18.487.463 1.04.879 1.34 0 0-.183-1.116.21-2.092.39-.976 1.059-2.272 1.059-2.272zM191.346 21.05c-.423.4-.706.993-.839 1.403-.06.18 1.226-1.043 2.964-1.166-.979-.42-1.712-.63-2.125-.237zM199.643 36.622c-3.014-4.313-2.315-6.931-5.665-5.826-1.962.646-3.075 1.43-3.661 1.969.103-.033.183-.043.226-.027.35.144 2.425 1.486 3.594 2.861 1.173 1.373 2.072 2.612 2.072 3.535 0 .922-.296 1.945-.673 2.59-.376.65-1.006.957-.666 1.4.34.443 1.093-.633 1.875-.58.787.05 3.138-.406 3.941-1.569.243-.353.486-.716.746-1.045-1.149-1.879-.686-1.73-1.789-3.308zM183.195 37.321c.334-.136.926-.666 1.616-1.222a11.15 11.15 0 0 1-3.071-3.025c-.68.483-1.552 1.096-1.536 1.36.02.349 2.435 3.114 2.991 2.887z" fill="#299EA6"/><path d="M168.27 39.35a.272.272 0 0 1-.273-.274c0-.153.123-.273.273-.273a1.38 1.38 0 0 0 0-2.758.272.272 0 0 1-.273-.273c0-.153.123-.273.273-.273a1.925 1.925 0 1 1 0 3.85zM159.14 65.324s20.888.716 23.906.453c3.014-.263.742-12.784.742-12.784l-14.399-6.795-12.614 3.654 2.365 15.472zM77.784 61.886s4.27.084 12.993 1.03c8.724.946 10.223 1.482 10.223 1.482l6.005-10.962-18.86-7.828-7.953 3.335-3.071 5.136.663 7.807z" fill="#192D4B"/><path d="M189.065 46.104c-4.657-4.89-12.381-6.285-15.639-7.141-3.261-.853-7.295-2.288-9.856-3.53-2.561-1.243-18.083-9.044-27.167-10.906-9.08-1.862-19.285-1.546-19.285-1.546l-17.278.24a20.756 20.756 0 0 0-12.107 4.104c-4.377 3.257-9.983 7.428-10.982 8.174-.92.69-3.278 1.529-3.568 9.54-.29 8.01-.436 13.546 1.166 14.712 1.602 1.166 3.204 2.112 3.204 2.112l.23.023a11.71 11.71 0 0 1-.046-1.033c0-6.532 5.262-11.834 11.778-11.898 6.501-.063 11.901 5.18 12.017 11.678a11.979 11.979 0 0 1-.532 3.761l.806.087 25.984.506 31.35.333.083-3.727c0-6.572 5.326-11.898 11.898-11.898s11.898 5.326 11.898 11.898l.027 4.18 6.525.017s3.531-.403 4.037-4.477c.503-4.07.116-10.319-4.543-15.209z" fill="#14AFEB"/><path d="M192.409 64.204a559.56 559.56 0 0 0-9.377-.959l.017 2.532 6.525.016c-.003 0 1.629-.186 2.835-1.589zM73.523 58.342c.2.673.47 1.149.826 1.409 1.602 1.166 3.204 2.111 3.204 2.111l.23.024a11.749 11.749 0 0 1 .21-3.498c-1.685-.02-3.184-.033-4.47-.046zM159.139 65.324l.084-3.728c0-.076.003-.153.006-.23-20.524-1.345-41.329-2.101-57.867-2.524a12.008 12.008 0 0 1-.363 5.556l.806.086 25.984.507 31.35.333zM73.183 45.038c-.007.16-.01.32-.017.48 1.932-1.03 6.669-4.17 8.085-5.113 1.698-1.133 2.428-1.862 2.321-2.485-.1-.563-2.791-3.087-4.243-4.34-1.27.946-2.219 1.652-2.575 1.919-.923.69-3.278 1.529-3.57 9.54z" fill="#0082C8"/><path d="M89.828 71.046a9.34 9.34 0 1 0 0-18.68 9.34 9.34 0 0 0 0 18.68z" fill="#192D4B"/><path d="M89.828 68.22a6.515 6.515 0 1 0 0-13.03 6.515 6.515 0 0 0 0 13.03z" fill="#14AFEB"/><path d="M89.828 63.802a2.095 2.095 0 1 0 0-4.19 2.095 2.095 0 0 0 0 4.19zM171.225 71.046a9.34 9.34 0 0 0 9.339-9.34 9.34 9.34 0 0 0-9.339-9.34 9.34 9.34 0 0 0-9.34 9.34 9.34 9.34 0 0 0 9.34 9.34z" fill="#192D4B"/><path d="M171.225 68.22a6.515 6.515 0 1 0 0-13.03 6.515 6.515 0 0 0 0 13.03z" fill="#14AFEB"/><path d="M171.225 63.802a2.095 2.095 0 1 0 0-4.19 2.095 2.095 0 0 0 0 4.19zM87.53 31.529s3.02-5.356 8.876-5.816c5.852-.46 31.404-1.189 38.885.576 7.481 1.766 12.714 3.545 16.304 5.24 3.591 1.695 13.274 6.119 13.314 6.945.04.826-6.988 2.238-9.62 2.238-2.631 0-24.955-1.935-33.905-2.858-8.95-.922-24.365-1.569-27.536-2.824-3.174-1.253-6.182-2.685-6.319-3.501z" fill="#192D4B"/><path d="M163.124 40.712h-3.404c-.98 0-1.782-.803-1.782-1.782v-.523c0-.98.802-1.782 1.782-1.782h3.404c.979 0 1.782.803 1.782 1.782v.523c0 .98-.803 1.782-1.782 1.782z" fill="#14AFEB"/><path d="M187.669 55.474l.696 5.729c.017.143.14.25.283.25h1.646a.286.286 0 0 0 .273-.21l1.249-4.497a.286.286 0 0 0-.183-.346l-3.591-1.233a.285.285 0 0 0-.373.307z" fill="#0082C8"/><path d="M191.423 51.527a16.443 16.443 0 0 0-3.588-5.57l-9.273-2.39s-1.539-.444-1.622.296c-.083.736 2.298 3.414 2.845 3.644.546.233 10.255 3.817 10.955 3.94.236.04.473.067.683.08z" fill="#fff"/><path d="M167.098 37.051l13.287-21.92c.073-.12.156-.23.256-.333.576-.603 2.655-2.625 3.97-2.019l-13.207 22.007c-.159.267-.399.48-.682.61l-3.624 1.655zM127.243 41.171h-3.88l.659-16.64h2.632l.589 16.64zM92.842 39.782l-2.465-1.339 8.228-13.913h1.165l-6.928 15.252z" fill="#14AFEB"/></g><defs><clipPath id="clip0"><path fill="#fff" transform="translate(73 .495)" d="M0 0h137.222v70.848H0z"/></clipPath></defs></svg>