<svg width="760" height="184" fill="none" xmlns="http://www.w3.org/2000/svg" viewBox="0 0 760 184"><g opacity=".8"><path d="M588 104h-34v80h34v-80zM546 65h-30v119h30V65z" fill="#DDF5FF"/><path d="M539 115h-58v69h58v-69z" fill="#DDF5FF"/><path d="M565 140h-34v44h34v-44zM496 87h-23v97h23V87zM459 58h-51v126h51V58zM385 65h-30v119h30V65zM349 16h-37v168h37V16z" fill="#DDF5FF"/><path d="M481 124h-54v60h54v-60zM404 78h-29v106h29V78z" fill="#DDF5FF"/><path d="M415 151h-22v33h22v-33zM599 151h-22v33h22v-33zM385 117h-43v67h43v-67zM317 95h-96v89h96V95zM45 169H0v15h45v-15zM221 146h-17v38h17v-38z" fill="#DDF5FF"/><path d="M213 86h-62v98h62V86z" fill="#DDF5FF"/><path d="M161 16h-34v168h34V16z" fill="#DDF5FF"/><path d="M141 122H95v62h46v-62z" fill="#DDF5FF"/><path d="M106 76H80v108h26V76z" fill="#DDF5FF"/><path d="M86 45H22v139h64V45zM300 0h-19v184h19V0zM245 124h-16v60h16v-60zM760 115h-25v69h25v-69z" fill="#DDF5FF"/><path d="M750 87h-23v97h23V87zM713 30h-51v154h51V30zM639 4h-30v180h30V4zM603 17h-37v167h37V17z" fill="#DDF5FF"/><path d="M735 138h-54v46h54v-46zM658 87h-29v97h29V87z" fill="#DDF5FF"/><path d="M669 167h-22v17h22v-17zM639 130h-43v54h43v-54zM571 102h-96v82h96v-82zM299 106h-95v78h95v-78zM475 163h-17v21h17v-21z" fill="#DDF5FF"/><path d="M467 96h-62v88h62V96z" fill="#DDF5FF"/><path d="M415 41h-20v143h20V41zM395 136h-46v48h46v-48z" fill="#DDF5FF"/><path d="M360 85h-26v99h26V85z" fill="#DDF5FF"/><path d="M340 51h-64v133h64V51zM554 1h-19v183h19V1zM499 138h-16v46h16v-46z" fill="#DDF5FF"/><path d="M39 126H0v58h39v-58zM86 103H49v81h37v-81z" fill="#C8E8F5"/><path d="M129 133H58v51h71v-51z" fill="#C8E8F5"/><path d="M68 148H26v36h42v-36zM139 117h-28v67h28v-67zM219 82h-63v102h63V82zM285 24h-38v160h38V24zM338 88h-45v96h45V88z" fill="#C8E8F5"/><path d="M196 139h-67v45h67v-45zM260 111h-36v73h36v-73z" fill="#C8E8F5"/><path d="M237 155h-26v29h26v-29zM300 135h-53v49h53v-49zM450 121H332v63h118v-63zM760 142h-92v42h92v-42zM472 152h-22v32h22v-32z" fill="#C8E8F5"/><path d="M538 116h-77v68h77v-68z" fill="#C8E8F5"/><path d="M549 86h-24v98h24V86zM607 138h-58v46h58v-46z" fill="#C8E8F5"/><path d="M625 110h-33v74h33v-74z" fill="#C8E8F5"/><path d="M697 92h-79v92h79V92z" fill="#C8E8F5"/></g><g clip-path="url(#clip0)"><path d="M224.746 178.251c.527.526.707 3.001.707 3.731 0 .737-.414 1.527-.91 1.557-.497.031-15.58.234-15.58.234s-.768-.203-.941-1.174c-.173-.97 1.144-1.587 2.114-1.587.971 0 2.852-.941 3.619-1.618.767-.677 1.896-1.941 2.979-2.084 1.083-.15 1.144-.233 2.257-.233 1.106 0 5.755 1.174 5.755 1.174z" fill="#AF1015"/><path d="M225.882 173.737l-1.986 4.679s-2.588 1.189-4.604.263c-1.595-.737-1.008-.835-1.008-.835l3.777-6.613 3.821 2.506z" fill="#FAA284"/><path d="M243.486 175.061c.624-.15 1.271.354 1.527 1.008.248.655.226 1.731.353 2.137.136.399.64 1.572 0 1.82-.639.249-8.802 3.296-10.607 3.469-1.806.173-5.71-.023-5.936-.324-.225-.301-.075-1.805.7-2.355.775-.549 1.55.354 1.956-.225.399-.58 5.206-5.394 5.612-5.695.414-.301.685-.452 1.362-.452s5.033.617 5.033.617z" fill="#AF1015"/><path d="M241.177 168.034s.406 1.994 1.188 3.506c.783 1.512 1.512 3.25 1.497 3.506-.015.225-1.256 1.595-2.926 1.595-1.67 0-2.912-1.708-3.152-2.077-.136-.21-.978-5.446-.978-5.446l4.371-1.084z" fill="#FAA284"/><path d="M245.983 141.591s-10.216 15.392-11.487 17.942c-1.272 2.551-5.966 12.549-6.342 13.504-.384.948-.963 2.189-1.324 2.189-.361 0-.677-.917-2.709-1.963-2.031-1.046-2.723-1.362-2.791-1.806-.06-.443 2.092-5.672 2.979-8.177.888-2.505 3.108-9.509 3.867-11.413.76-1.903 8.088-14.82 8.088-14.82l9.719 4.544z" fill="#192A57"/><path d="M238.453 122.49c.579 1.053 2.671 5.304 1.986 6.297-.685.993-12.375 16.385-13.331 18.612-.963 2.227-.782 3.867.211 5.928.993 2.054 7.229 14.121 7.365 14.768.135.654-.038 1.437.346 1.504.376.068 2.054.136 3.498-.173 1.445-.308 2.814-.722 3.19-1.196.376-.481-2.227-8.193-2.949-10.006-.722-1.813-2.776-6.169-2.535-6.718.24-.549 5.115-4.107 7.703-7.29 2.588-3.182 5.229-7.116 6.575-7.982 1.347-.865 3.288-2.159 3.777-4.528.489-2.37.677-6.5.534-7.93-.143-1.429-5.8-5.273-9.125-5.048-3.326.226-7.245 3.762-7.245 3.762z" fill="#223A78"/><path d="M242.884 103.547s2.512.745 3.468 2.302c.955 1.557 5.943 12.879 5.943 12.879l-6.756-6.086-2.655-9.095z" fill="#FAA284"/><path d="M227.515 95.068c2.618-.368 3.972-.632 4.95-.361.978.278 10.073 7.237 10.073 7.237s7.057 12.774 8.637 14.542c.737.82 1.602 2.355 2.242 3.792 0 .542.075 1.422.112 1.805.053.505.279.572.324 1.513-1.264-.309-4.995-3.22-6.267-3.28-1.399-.061-.91 1.399-2.618 1.399-1.7 0-1.399-.301-3.227-.241-1.828.06-2.859 1.399-3.649 1.888-.79.489-3.468.489-3.588-1.768-.121-2.249 1.519-2.557 0-3.896-1.52-1.34-4.928-6.508-5.778-8.336-.85-1.828-3.175-4.062-4.506-5.221-1.332-1.159-2.701-3.303-2.761-4.394-.053-1.09 3.438-4.318 6.056-4.679z" fill="#FB0"/><path d="M253.537 122.083c-.038-.384-.113-1.271-.113-1.805-.639-1.437-1.505-2.965-2.242-3.792-1.527-1.7-8.14-13.639-8.614-14.49l-6.62-2.249-3.814 1.061s2.738 7.974 8.531 11.345c3.303 1.918 4.98 5.672 5.875 8.644.219-.279.474-.504 1.046-.482 1.272.053 5.003 2.972 6.267 3.28-.038-.94-.263-1.008-.316-1.512z" fill="#EBAC00"/><path d="M249.083 99.161s1.656.594 2.822 1.287c.865.519 1.632 3.927 1.971 5.379.316 1.339 1.421 6.394 1.745 8.741.323 2.348.248 3.175.549 3.318.301.143.527 1.174.421 1.896-.097.722-.624 2.994-.601 3.995.022 1 .052 3.069-.128 3.671-.173.602-.625 2.625-1.076 2.625-.451 0-.895-2.693-.895-3.723 0-1.024.052-3.198-.226-3.747-.278-.549-.301-3.197-.203-4.047.098-.85-1.903-8.028-2.618-9.457-.707-1.429-2.445-4.867-2.912-5.439-.459-.564-.993-2.588-.677-3.513.346-.91 1.828-.986 1.828-.986z" fill="#FAA284"/><path d="M232.465 94.707c.971.067 3.212 1.376 4.115 2.084.903.707 7.358.707 8.945 1.075 1.588.369 3.98.858 4.371 1.317.391.466-1.49.27-1.444 1.783.045 1.512.391 3.814-.076 3.837-.466.022-2.369-.61-3.686-.828-1.316-.218-12.27.482-14.053-1.166-1.783-1.648-2.814-3.01-2.415-4.34.406-1.332.624-4.003 4.243-3.762z" fill="#FB0"/><path d="M219.969 103.779s-4.687 1.52-8.517-2.512c-3.829-4.033-2.384-6.839-1.88-7.17.504-.33 1.143-.61 2.001-.722.865-.113 8.23 9.126 8.396 10.404z" fill="#7A2C21"/><path d="M218.253 102.914s-.128-1.06.339-1.843c.007 0 .602 1.091-.339 1.843z" fill="#B22828"/><path d="M216.975 102.11s.278.21.428.27c0 0 .843-.775 1.076-1.677l-.286-.188-1.218 1.595z" fill="#F2F0F2"/><path d="M210.467 93.338c-.496-2.234 3.077-6.101 5.891-6.41 2.814-.3 6.801 1.82 8.704 3.551 1.904 1.73 2.731 3.205 4.416 3.333 1.685.128 4.334.564 4.461.993.128.436-5.108-.045-5.627 1.82-.519 1.859-.692 3.378-1.73 3.679-1.038.301 0 4.153-.218 5.026-.218.872-.58 2.46-1.407 2.384-.828-.075-.406-1.64-.707-2.324-2.566-5.763-5.357-4.176-5.989-5.71-.632-1.543-7.387-4.537-7.794-6.342z" fill="#9B4135"/><path d="M221.188 96.505s-.347-.812.195-1.43c.376-.428-.797-2.354-1.625-2.286-.827.068-1.061.632-.933 1.128.136.497-4.762 1.67-7.267.497-.429-.203.496 3.686 1.098 3.92.595.233 1.159.534 1.197.76.03.232.263 2.85.631 2.85.369 0 1.061-.331 1.227-.331.075 0 .639.309 1.249.685l1.286-1.347s.654.888-.128 2.235c.083.075.354.203.384.256.263.428.699.827 1.429.662.73-.166 2.656-4.183 2.558-5.342-.105-1.158-1.301-2.257-1.301-2.257z" fill="#FAA284"/><path d="M302.339 158.6c0 12.73 10.322 23.051 23.051 23.051s23.05-10.321 23.05-23.051c0-12.729-10.321-23.05-23.05-23.05-12.729-.008-23.051 10.314-23.051 23.05zM462.761 158.6c0 12.73 10.321 23.051 23.05 23.051 12.729 0 23.051-10.321 23.051-23.051 0-12.729-10.322-23.05-23.051-23.05-12.729-.008-23.05 10.314-23.05 23.05z" fill="#192D4B"/><path d="M268.116 129.365l252.512 2.137 25.405 36.682-5.334 4.83-12.413 3.047H299.69l-20.139-4.995-20.072-7.719-5.078-8.163 13.715-25.819zM463.919 120.052c-2.415-1.144-32.395-16.385-41.347-20.576-5.973-2.79-13.97-4.446-13.97-4.446l.443-1.271c28.581 3.814 65.729 25.909 65.729 25.909s-8.448 1.527-10.855.384zM293.778 112.333c3.152-1.144 24.713-9.051 36.419-13.24 7.801-2.792 18.266-4.447 18.266-4.447l3.242-1.46c-40.489 3.529-79.067 21.148-79.067 21.148s17.987-.858 21.14-2.001z" fill="#192D4B"/><path d="M251.482 137.671l4.146-2.408.496-13.692-.534-1.82a2.97 2.97 0 0 1 2.099-3.716l22.186-5.823s11.089.406 12.766.12c40.896-16.002 58.801-18.86 84.462-18.86 27.948 0 40.647.256 87.711 27.316 1.618.933 13.143-.64 13.143-.64 26.03 1.084 60.463 13.715 70.175 23.623 2.761 2.701 3.814 3.874 3.867 8.358.053 4.484-2.919 16.829-2.919 16.829s-1.903 2.535-7.636 2.746c-5.732.203-12.751.459-12.751.459l-4.281-.023-6.44.136v-9.585c0-14.828-12.134-27.241-26.955-26.955-14.361.279-25.924 12.007-25.924 26.436v11.044l-122.784-1.534v-8.991c0-14.828-12.135-27.241-26.956-26.955-14.361.279-25.924 12.007-25.924 26.436v8.321c-18.988-2.912-32.899-6.959-35.787-11.48-3.634-5.695-2.16-19.342-2.16-19.342z" fill="#14AFEB"/><path d="M292.814 160.504c0 12.729 10.322 23.051 23.051 23.051s23.051-10.322 23.051-23.051-10.322-23.051-23.051-23.051-23.051 10.322-23.051 23.051z" fill="#192D4B"/><path d="M298.743 160.504c0 9.457 7.666 17.123 17.123 17.123 9.456 0 17.122-7.666 17.122-17.123 0-9.456-7.666-17.122-17.122-17.122-9.457 0-17.123 7.666-17.123 17.122z" fill="#14AFEB"/><path d="M315.865 165.085a4.581 4.581 0 1 0 0-9.162 4.581 4.581 0 0 0 0 9.162zM468.478 160.504c0 12.729 10.321 23.051 23.05 23.051 12.729 0 23.051-10.322 23.051-23.051s-10.322-23.051-23.051-23.051-23.05 10.322-23.05 23.051z" fill="#192D4B"/><path d="M474.406 160.504c0 9.457 7.666 17.123 17.123 17.123 9.456 0 17.122-7.666 17.122-17.123 0-9.456-7.666-17.122-17.122-17.122-9.457 0-17.123 7.666-17.123 17.122z" fill="#14AFEB"/><path d="M486.954 160.504a4.58 4.58 0 0 0 4.582 4.581 4.574 4.574 0 0 0 4.574-4.581 4.567 4.567 0 0 0-4.574-4.574 4.573 4.573 0 0 0-4.582 4.574zM314.541 107.857c31.341-11.164 45.906-12.323 64.398-12.383 27.624-.09 40.963 3.814 79.932 25.586.594.579 1.046 3.987 1.046 3.987s-96.596-5.755-135.272-8.425c-2.603-.181-8.389-4.522-10.104-8.765z" fill="#192D4B"/><path d="M289.428 160.173v8.32c-17.882-2.738-31.25-6.485-35.162-10.69l35.193 1.121c-.023.413-.031.827-.031 1.249zM517.972 170.269v-4.063l30.897.986c-.632.632-2.761 2.339-7.425 2.505-5.733.203-12.752.459-12.752.459l-4.281-.023-6.439.136zM342.308 160.608l122.784 3.912v6.696l-122.784-1.535v-9.073z" fill="#0082C8"/><path d="M254.553 158.09l-.024-.024s-.008-.007-.008-.015c.008.015.024.031.032.039zM256.974 159.849zM256.244 159.405c.143.091.286.181.436.271a7.195 7.195 0 0 1-.436-.271zM257.592 160.203c-.016-.008-.031-.015-.039-.023.008.008.023.015.039.023zM254.785 158.308c.045.037.083.075.128.113-.045-.045-.083-.076-.128-.113zM255.778 159.089l.204.136a2.887 2.887 0 0 1-.204-.136zM255.356 158.78c.053.038.098.076.151.113-.053-.037-.098-.075-.151-.113z" fill="#000"/><path d="M522.727 135.526s4.709 7.787 7.304 9.081c8.005 4.002 15.152 4.784 15.596 4.784 1.143-4.16.406-6.831.406-6.831-5.68-3.964-14.482-6.469-23.306-7.034z" fill="#fff"/><path d="M542.986 157.66c2.122 2.137 3.784 7.395 3.784 7.395s-10.088-.662-12.27-1.7c-3.024-1.444-4.611-10.976-4.611-10.976s11.149 3.318 13.097 5.281z" fill="#0082C8"/><path opacity=".4" d="M251.482 137.671l4.146-2.407 25.939-1.731s-3.596 1.685-12.074 2.52c-11.022 1.084-18.011 1.618-18.011 1.618z" fill="#fff"/><path d="M256.116 121.571l-.594-2.008a1.837 1.837 0 0 1 2.031-2.333l14.301 2.122-15.738 2.219z" fill="#0082C8"/><path d="M392.133 131.344h-8.764l1.497-37.585h5.943l1.324 37.585z" fill="#14AFEB"/><path d="M218.765 93.27s-.308.481.678 1.723c.978 1.241 1.346 1.053 1.467 1.008 0 0 1.278-.73-.046-2.739-1.106-1.662-2.099.008-2.099.008z" fill="#FAA284"/><path d="M220.164 95.21s.361-1.098-.579-.895c0 0-.654-1.03.023-1.331.677-.301 1.075.872 1.143 1.128.143.55-.068 1.61-.587 1.098z" fill="#DB7C65"/><path d="M215.418 97.942c-.308-.3-.692-.406-.865-.225-.173.173-.068.564.241.865.308.3.692.406.865.225.173-.18.06-.564-.241-.865z" fill="#502F26"/><path d="M214.726 95.723c-.053.037-1.686.489-1.603 1.67.015.18.218.233.218.233.504-.843 1.385-1.903 1.385-1.903z" fill="#89493D"/></g><defs><clipPath id="clip0"><path fill="#fff" transform="translate(208 86.898)" d="M0 0h344v96.882H0z"/></clipPath></defs></svg>