<svg width="283" height="84" fill="none" xmlns="http://www.w3.org/2000/svg" viewBox="0 0 283 84"><mask id="a" maskUnits="userSpaceOnUse" x="0" y="0" width="283" height="84"><path d="M282.85 0H0v84h282.85V0z" fill="#F5FCFF"/></mask><g mask="url(#a)"><path d="M291.818 64.392V54.23s-27.116-7.444-87.643-5.093c17.163-.166 50.052 1.735 87.643 15.256" fill="#00AA1D"/><path d="M167.014 50.881l-5.675.478-.017.002c54.697 3.333-57.715 63.878-57.715 63.878h63.407s56.815-65.109 0-64.359" fill="#fff"/><path d="M191.115 49.774l-24.101 1.108c56.815-.75 0 64.359 0 64.359h124.804V84.218c-17.34-20.704-66.852-36.433-100.703-34.444z" fill="#004EBB"/><path d="M161.322 51.361c54.697 3.334-57.715 69.792-57.715 69.792l-138.724-5.913 53.931-6.827s-44.387-.708 4.388-2.548c54.781-9.484 107.952-51.23 138.12-54.504z" fill="#00AA1D"/><path d="M204.176 49.137c-4.205.164-8.558.376-13.059.638.467-.028.934-.05 1.399-.07.336-.014.675-.026 1.014-.037l.151-.005c33.769-1.077 81.226 14.361 98.139 34.556V64.393c-37.591-13.52-70.481-15.421-87.644-15.256z" fill="#fff"/><path d="M-148.698 106.142l-4.681-23.024s29.866-16.503 88.594-20.126c30.771-3.102 108.23 8.86 108.214 12.882-.012 2.407-192.127 30.268-192.127 30.268z" fill="#00AA1D"/><path d="M159.718 80.4l-216.343 9.175-88.331-4.884S53.61 55.478 66.386 55.413c21.787-.112 35.944-8.796 61.425-9.649 14.011-.468 26.928 2.608 35.729 6.365l-3.822 28.272z" fill="#00AA1D"/><path d="M-54.266 118.566c0-13.259.816-29.285 20.138-37.318C.3 66.938 72.682 61.159 73.688 58.958c1.284-2.8-34.659-3.096-34.72-3.096 0 0 68.183-3.399 68.843 3.37.43 4.411-25.325 10.019-22.336 13.176 5.94 6.253 91.804 25.65 176.968 34.903l.336 11.141-317.045.114z" fill="#fff"/><path d="M48.783 56.276s51.945-1.444 49.528 4.577c-1.348 3.362-29.025 8.549-31.013 13.486-6.53 16.254 149.392 42.201 149.392 42.201l-11.036 2.77-223.072-.711c-10.72-10.73-10.306-25.417-2.557-33.004 15.88-15.546 97.61-21.998 99.194-25.926 1.193-2.968-30.436-3.393-30.436-3.393z" fill="#0047B8"/><path d="M47.667 69.9c-.237-1.514 8.042-4.07 18.492-5.707 10.45-1.637 19.114-1.737 19.351-.223.238 1.514-8.041 4.07-18.492 5.707-10.45 1.637-19.114 1.737-19.35.223z" fill="#000" fill-opacity=".4"/><path d="M82.028 51.884c-.356 0-2.288.244-2.613.356 2.918-.092 5.144 3.05 5.144 6.16 0 3.111-1.098 6.334-4.94 6.385.335.102 2.063.193 2.419.193 2.531-.03 4.585-2.989 4.585-6.608 0-3.62-2.054-6.517-4.595-6.486z" fill="#00699B"/><path d="M79.974 51.915c.356 0 2.115-.133 2.45-.03-2.917-.011-4.97 3.507-4.97 6.607 0 3.111 1.138 6.527 4.98 6.476-.335.112-2.094.03-2.45.03-2.53.031-4.595-2.866-4.595-6.485 0-3.61 2.054-6.568 4.585-6.598z" fill="#00699B"/><path d="M82.049 65.019c2.704-.041 4.91-3.03 4.91-6.68s-2.206-6.577-4.92-6.547c-2.705.04-4.91 3.03-4.91 6.68s2.205 6.587 4.92 6.547zm-.061-12.2c2.165-.03 3.924 2.43 3.924 5.47 0 3.05-1.759 5.55-3.924 5.58-2.166.031-3.924-2.429-3.924-5.469.01-3.05 1.768-5.55 3.924-5.581z" fill="#0094DA"/><path d="M86.277 58.502c0-3.13-1.89-5.683-4.209-5.683-2.317 0-4.198 2.552-4.198 5.683s1.88 5.683 4.198 5.683c2.318 0 4.21-2.552 4.21-5.683zm-.732 0c0 2.745-1.555 4.972-3.477 4.972-1.91 0-3.476-2.237-3.476-4.972 0-2.745 1.555-4.971 3.477-4.971 1.92 0 3.476 2.226 3.476 4.971z" fill="#12BAED"/><path d="M70.113 56.225l-.58 2.002 12.12 1.658c.11.01.213.01.314 0a1.66 1.66 0 0 0 .58-.173c.437-.224.742-.63.874-1.15a2.377 2.377 0 0 0-.203-1.636c-.397-.783-1.16-1.27-1.932-1.25l-11.173.549zm-.356-.468l11.509-.57c.925-.03 1.88.54 2.379 1.516.67 1.3.284 2.836-.864 3.436a2.16 2.16 0 0 1-.743.223c-.142.01-.274.02-.416 0l-12.698-1.728.833-2.877z" fill="#00699B"/><path d="M79.08 53.063l-.722-1.413-.05-.112 2.775 5.571-12.291 1.718.101.56 13.41-1.718-2.938-6.232" fill="#00699B"/><path d="M79.212 58.299c.051 1.85 1.16 3.304 2.48 3.263 1.322-.04 2.35-1.545 2.298-3.375-.05-1.82-1.159-3.294-2.48-3.274-1.312.02-2.349 1.535-2.298 3.386z" fill="#00699B"/><path d="M79.629 58.289c.04 1.555.956 2.785 2.053 2.744 1.098-.04 1.942-1.31 1.902-2.846-.041-1.535-.966-2.775-2.054-2.755-1.098.02-1.942 1.301-1.901 2.857z" stroke="#04BAEE" stroke-width="2.657" stroke-miterlimit="10"/><path d="M53.237 59.204l4.605-11.417-1.006-.6-4.88 12.729 1.281-.712z" fill="#0094DA"/><path d="M54.446 54.7l-2.114 5.328-.366-.051 2.257-6.425.223 1.148z" fill="#04BAEE"/><path d="M54 53.735l1.565.447.285-.803-1.566-.447-.284.803z" fill="#0094DA"/><path d="M71.343 48.539s-5.083-2.877-5.968-1.8c-2.216 2.725-.61 5.48-.61 5.48l3.67.905 3-4.494-.092-.091z" fill="#626E97"/><path d="M59.276 38.373l-1.973-.335c-.701-.122-1.362.325-1.484.996-.122.67.335 1.311 1.037 1.423l2.114.366c.173-.183.306-.396.397-.63.244-.58.203-1.27-.091-1.82z" fill="#796188"/><path d="M59.327 38.434c.803.477 1.606.945 2.41 1.413 1.097-.681 2.195-1.342 3.293-2.003.549-.336 1.037.081 1.088.905.04.833-.366 1.769-.925 2.104-1.22.732-2.44 1.484-3.66 2.247-.193.122-.386.152-.55.102-.04-.01-.07-.031-.1-.041-.936-.529-1.861-1.057-2.797-1.586.58-.803 1.119-2.054 1.24-3.142z" fill="#796188"/><path d="M70.53 50.075a1.315 1.315 0 0 1 .376-1.474c1.17-.997 2.349-1.983 3.518-2.959l1.037-.854c.59-.478 1.484-.417 2.023.132a1.255 1.255 0 0 1-.102 1.871l-1.372 1.128c-.824.682-1.637 1.373-2.46 2.064.294 1.85.6 3.7.894 5.54-.925.255-.681.113-1.637.296-.762-1.891-1.514-3.813-2.277-5.744z" fill="#455B8C"/><path d="M73.946 56.926s.366 1.495.203 1.83c-.152.336-2.002 1.77-3.487 1.84-1.484.072-.894-1.311-.254-2.073.64-.763.305-.346.305-.346-.224-.671-.447-1.352-.67-2.023 1.077-.407 2.164-.803 3.242-1.2.224.66.447 1.322.66 1.972z" fill="#fff"/><path d="M63.79 41.758c1.128-1.392 2.226-2.816 3.487-4.076-.295.732.203 1.626.701 2.145-1.097 1.474-1.81 2.765-3.04 4.29-.314-.671-.762-1.474-1.148-2.359z" fill="#796188"/><path d="M67.277 37.682a19.67 19.67 0 0 1 1.068-.997c.539.102 1.149.305 1.708.722-.692.64-1.566 1.739-2.125 2.491-.498-.518-.966-1.342-.65-2.216z" fill="#6C567C"/><path d="M67.673 36.605c.204.01.427.031.671.072-1.738 1.484-3.12 3.304-4.554 5.073-.356-.824-.64-1.729-.692-2.684 1.454.305 3.813-1.23 4.575-2.46z" fill="#796188"/><path d="M66.921 36.635s.305-.05.763-.03c-.946 1.494-2.664 2.887-4.565 2.47-.01-.132-.01-.254-.01-.387.02-1.585 1.83-1.9 3.812-2.053z" fill="#F7C6A5"/><path d="M65.284 45.012c-.061-.265-.224-.62-.376-.946 1.85-2.308 3.09-4.748 5.134-6.659.67.509 1.27 1.312 1.555 2.613.498 2.277 1.393 4.209 1.485 5.713-2.349.204-5.368.712-7.117.885a5.915 5.915 0 0 1-.681-1.606z" fill="#796188"/><path d="M73.092 45.723c.04.62-.061 1.17-.366 1.637-.264.397-1.322.63-1.83.935-1.139.681-2.237.59-3.162.061-.701-.396-1.311-1.037-1.748-1.758a26.136 26.136 0 0 1 7.106-.875z" fill="#626E97"/><path d="M67.114 46.333l.742-.152c0-.01-.467-1.525-1.362-3.68-.874-2.115-1.057-3.6-1.078-3.752-.233.122-.548.183-.782.305.01.061.213 1.535 1.118 3.761.885 2.166 1.352 3.508 1.362 3.518z" fill="#6C567C"/><path d="M70.49 50.186a697.735 697.735 0 0 1 12.067-1.505 1.334 1.334 0 0 1 1.474 1.16 1.34 1.34 0 0 1-1.17 1.473c-2.358.295-4.727.6-7.085.915-.61.753-1.047 1.912-.915 3.66.366 4.666-.417 4.199-2.125 4.575-1.708.376-7.391 1.088-8.001 1.017-.6-.082-3.01.6-3.334-.498-.326-1.058-6.73-11.275-6.73-11.305 4.218.345 11.589.162 15.818.508zm-7.666 7.076l1.067-4.758-4.148.254 3.08 4.504z" fill="#00699B"/><path d="M66.707 30.647s.956.66 1.291 1.789c.336 1.129.468 3.263.01 3.843-.457.58-4.584 2.674-5.438 2.42-.844-.265-1.352-.956-1.454-1.332-.102-.377-.061-.712-.061-.712s-.254-.966-.275-1.952c-.01-.986.092-1.19.092-1.19s.173-1.768 1.555-2.805c1.901-1.413 4.28-.061 4.28-.061z" fill="#27365C"/><path d="M63.098 38.689c-.223.04-.406.05-.518.02-.844-.264-1.352-.955-1.454-1.332-.102-.376-.06-.711-.06-.711s-.255-.966-.275-1.952c-.01-.986.091-1.19.091-1.19s.173-1.768 1.556-2.805c.569-.427 1.179-.6 1.758-.64-.762.436-1.718 1.22-1.962 2.419-.427 2.094-.03 4.087.478 5.296.173.417.295.702.386.895z" fill="#314474"/><path d="M60.882 33.524s0-.04.01-.101c.52.01 1.424-.01 2.684-.224 1.546-.264 2.237-.478 2.532-.59.884.255 1.474 1.24.844 2.176-.366.488-.519.742-1.556 1.17-.976.457-2.999 1.504-4.35.772v-.061s-.255-.966-.275-1.952c0-.976.111-1.19.111-1.19z" fill="#D0E2E5"/><path d="M73.193 59.062a.557.557 0 0 0 .173.763c.254.162.6.081.763-.173l.61-.956a.558.558 0 0 0-.173-.762.557.557 0 0 0-.763.173l-.61.955z" fill="#04BAEE"/><path d="M65.935 63.19c3.497-.712 7.665-2.268 7.716-2.288l-.285-.864c-.04.02-4.138 1.555-7.574 2.246-.762.153-1.758-.152-2.307-1.077-.57-.976-1.23-2.511-1.586-3.518-.316-.874-.326-1.25-.305-1.372l.843-.468-.406-.803-.905.498a.61.61 0 0 0-.295.305c-.203.417-.122 1.098.264 2.155.387 1.088 1.058 2.644 1.668 3.67.905 1.607 2.379 1.678 3.172 1.515z" fill="#5BC4F1"/><path d="M62.01 60.292c.6.905.875 1.647 1.902 2.277 1.027.63 2.074.132 4.117-.376 1.881-.468 4.982-1.586 5.46-1.759l.152.468c-.04.02-4.219 1.576-7.716 2.287-.783.163-2.267.092-3.203-1.504a17.616 17.616 0 0 1-.711-1.393z" fill="#04BAEE"/><path d="M72.788 59.762l.508-.386 10.187-3.894-.732 3.386-8.926 2.795-.691-.07c-.173.03-.387-.346-.478-.855-.102-.508-.04-.945.132-.976z" fill="#04BAEE"/><path d="M83.34 55.86l-9.984 3.822s-.071.274.01.427l9.455-3.1.518-1.15z" fill="#5BC4F1"/><path d="M82.72 57.069c-.214.935-.204 1.738.03 1.8.234.06.61-.651.824-1.587.213-.935.203-1.738-.03-1.8-.031-.01-.062 0-.092.01-.244.113-.55.753-.732 1.577z" fill="#00699B"/><path d="M63.79 58.158s.417-.041 1.383-.305c.904-.255 1.28-.468 1.28-.468.285-.183.438-.386.367-.59l-1.088-2.989c-.153-.447-.305-.59-.6-.508 0 0-.935.142-1.972.447-1.088.316-1.637.54-1.637.54-.478.213-.386.538-.275.762l1.525 2.897c.163.336.56.254 1.017.214z" fill="#04BAEE"/><path d="M65.02 53.409a.914.914 0 0 1 .437-.092c.102.072.194.224.275.468l1.088 2.989c.01.04.02.091.01.132-1.098 1.22-1.576-.925-2.267-2.348-.468-.997.06-.925.457-1.15z" fill="#5BC4F1"/><path d="M65.62 53.522c.03.06.06.142.101.223l-4.432 1.352-.041-.07-.061-.153 4.433-1.352zM65.884 54.203l-4.372 1.331-.112-.213 4.402-1.352.082.234zM66.046 54.66l-4.3 1.311-.122-.213 4.341-1.332.081.234zM66.22 55.118l-4.25 1.29-.112-.213 4.28-1.311.081.234zM66.382 55.565l-4.178 1.28-.112-.213 4.209-1.291.081.224zM66.555 56.023l-4.118 1.26-.122-.213 4.148-1.271.092.224zM66.717 56.48l-4.056 1.24-.112-.213 4.087-1.25.081.224zM66.799 56.713l.03.071c.02.061.02.112.01.173l-3.852 1.18a.464.464 0 0 1-.204-.194l4.016-1.23z" fill="#00699B"/><path d="M61.726 44.625c.183.04.366-.05.447-.224.438-.986 1.047-1.596 1.83-1.84 1.078-.325 2.125.173 2.135.173a.41.41 0 0 0 .529-.173.378.378 0 0 0-.173-.518c-.05-.03-1.332-.64-2.714-.224-1.007.305-1.79 1.078-2.328 2.277a.376.376 0 0 0 .203.509c.02.01.05.02.071.02z" fill="#5BC4F1"/><path d="M65.152 42.074a.768.768 0 0 0 .59.915l3.181.68a.788.788 0 0 0 .936-.589.768.768 0 0 0-.59-.915l-3.182-.681a.783.783 0 0 0-.935.59z" fill="#00699B"/><path d="M59.418 42.999c-.163-.051-.244-.204-.173-.356.397-.874.397-1.576-.02-2.074-.57-.701-1.738-.813-1.749-.813-.213-.02-.335-.183-.264-.356.071-.173.305-.305.519-.285.06.01 1.494.143 2.226 1.037.539.661.56 1.525.071 2.593-.081.172-.315.294-.529.264-.03 0-.06 0-.08-.01z" fill="#5BC4F1"/><path d="M58.757 39.583c-.101.315-.487.508-.864.427l-2.806-.63c-.376-.082-.59-.407-.488-.732.102-.315.488-.509.865-.427l2.806.63c.376.081.59.407.487.732z" fill="#00699B"/><path d="M75.562 51.508c.234-.356.692-.773 1.922-1.474a8.307 8.307 0 0 1 4.595-1.108c1.281.071 2.5.295 3.396.681 1.138.488 1.738 1.25 1.25 2.308-.132.274-.264.447-.417.58 0 0-.213.172-.508.253-.793.214-2.45-.955-4.117-1.016-1.495-.051-3.315.844-3.579.935-.315.112-.64.203-.956.325-.498.194-1.22.773-1.616.112-.325-.559-.132-1.342.03-1.596zM50.279 52.667s6.039-1.545 8.885 2.674c0 0 .6 1.566 1.647 1.23 1.047-.335.407-2.572.061-3.345-.61-1.352-3.558-2.887-5.978-3.03-2.42-.152-5.215.885-5.977 1.404-.763.518-.295 1.657 1.362 1.067z" fill="#5BC4F1"/><path d="M57.74 38.921c-.08.499-.61.865-1.178.814l-1.18-.112c-.569-.05-.965-.498-.884-.996.081-.498.61-.864 1.18-.814l1.178.112c.57.051.966.498.885.996z" fill="#F7C6A5"/><path d="M71.78 55.605s2.827-.6 2.918 1.139c.081 1.707.081 2.988-2.999 3.212-3.08.224-4.168-.325-4.626-.945-.254-.346-.742-1.454.926-2.227 1.738-.803 2.338-.884 3.781-1.18z" fill="#04BAEE"/><path d="M67.389 57.78a.835.835 0 0 1 .122-.731c.142-.092.305-.193.498-.285 1.728-.803 2.328-.874 3.772-1.18 0 0 .935-.192 1.779-.03.457.468.447.946.386 1.332-.183 1.108-.173 1.901-2.806 2.074-1.8.132-3.395-.132-3.751-1.18z" fill="#5BC4F1"/><path d="M73.773 53.806s-.03 1.352-.234 1.667c-.203.315-.132.335-2.053.64-1.139.183-1.78.153-2.237.02a.86.86 0 0 1-.549-.477l-.67-1.505c-.174-.386.05-.834.477-.986a12.228 12.228 0 0 1 2.755-.57c2.165-.172 2.531-.396 2.511 1.21z" fill="#5BC4F1"/><path d="M68.568 53.897c.56-.59 3.731-.956 4.474-.834.742.122.711 1.302.711 1.302-.03.417-.091.925-.203 1.108-.203.315-.132.335-2.054.64-1.138.183-1.779.153-2.236.02a.86.86 0 0 1-.55-.477l-.375-.864c-.041-.305 0-.65.233-.895zM68.69 50.766s-2.46 1.464-4.575 1.708c-2.115.234-4.118.092-4.779-.488-.66-.58-1.392-2.48-.864-3.568.529-1.088 1.312-1.912 3.518-1.739 2.206.173 4.86.956 6.293 2.003 1.443 1.037 1.047 1.738.406 2.084z" fill="#04BAEE"/><path d="M82.77 46.19l-5.723.987c-.102.01-.214.03-.315.06l-7.36 1.922a1.353 1.353 0 0 0-.56.356l-.315.335c-.63.672-.315 1.719.59 1.952l1.077.285c.153.04.326.05.488.03l7.523-.863c.061-.01.132-.02.193-.041l4.25-1.77c.234-.06.447-.182.61-.355l.67-.712a1.16 1.16 0 0 0 .103-1.504l-.133-.173a1.234 1.234 0 0 0-1.098-.508z" fill="#5BC4F1"/><path d="M84.163 47.848s.234-.162.508.051c.214.163.204.488.03.712-.172.224-.731.803-.945 1.017-.213.213-.244.223-1.19.63-.965.417-3.395 1.474-3.852 1.596-.458.112-.285.152-1.352.295-1.068.142-2.715.355-2.715.355l-.091-.63 8.631-3.212.976-.814z" fill="#00699B"/><path d="M68.171 50.715a.284.284 0 0 1 .275-.295c.66-.04 1.555.112 2.206.213 1.27.193 5.123-.498 7.96-1.321 5.114-1.474 3.751-1.535 4.33-1.942.092-.061.428-.275.53-.62.07-.234.05-.417.233-.254.061.06.234.254.305.366.417.67.234 1.148-.264 1.667l-.519.549a1.279 1.279 0 0 1-.61.356s-4.401 1.789-4.483 1.81c-.966.253-7.421.853-7.421.853a1.69 1.69 0 0 1-.6-.04l-1.027-.265c-.559-.142-.884-.6-.915-1.077z" fill="#04BAEE"/><path d="M58.991 51.56c-.528-.814-.945-2.248-.508-3.142.529-1.088 1.393-2.704 4.585-1.901 8.621 2.155 3.64 1.86 5.073 2.907.142.112.274.214.376.305 0 0-7.126-2.938-8.784-1.474-1.667 1.464-.742 3.304-.742 3.304z" fill="#5BC4F1"/><path d="M62.732 43.03c-.152.365-.467.599-.701.538l-3.69-1.037c-.234-.071-.305-.417-.153-.773.153-.366.468-.6.701-.538l3.69 1.037c.235.06.306.406.153.772z" fill="#0094DA"/><path d="M74.647 56.5s.61.406.336.925c-.346.64-.844 1.332-1.739 2.338-.538.6-1.088 1.088-1.494 1.088-.285 0-.488-.275-.6-.681-.112-.417-.132-.976-.05-1.525.569-1.403 1.89-1.901 2.409-3.101l1.138.956z" fill="#27365C"/><path d="M65.61 53.49c.874-2.155 3.131-6.385 3.131-6.385l3.467-.792c.193 2.948-2.165 6.19-4.89 7.746 1.81-.183 3.944.122 5.388 1.495-.081.142-.264 1.25-1.078 2.226-2.023-.915-6.547-2.979-6.018-4.29z" fill="#626E97"/><path d="M67.317 54.06c2.725-1.555 5.073-4.809 4.89-7.747l.55-.122s.7.763 0 2.267c-.702 1.505-3.427 5.094-3.427 5.094l3.498 1.677.67.326s.275 1.423-.193 1.89c-.467.468-1.85.824-1.85.824s1.16-2.562 1.24-2.704c-1.433-1.383-3.568-1.688-5.377-1.505z" fill="#495584"/><path d="M75.664 43.447c-.539-.102-1.088-.214-1.627-.316.163-.559.336-1.118.499-1.677.376.66.752 1.332 1.128 1.993z" fill="#3D507B"/><path d="M78.256 32.985s-.01 2.653.763 2.796c.762.152 1.097-.763 2.236-.488 1.139.274 1.535.57 1.454.945-.092.376-.864-.05-1.047.122-.183.173 1.565.346 1.535 1.129-.03.793-1.667-.377-1.81.193-.142.57.275.67-.122 1.169-.396.498-7.594-.386-7.574-2.267.02-1.86-.04-5.45-.04-5.45s.284-.558.935-.894c.539-.274 1.342-.396 2.44.071 1.057.478 1.23 2.674 1.23 2.674z" fill="#63413F"/><path d="M73.691 37.813c.061-.03.122-.06.173-.081.153-.071.295-.142.437-.203 1.485-.641 2.552-.712 3.325-.58l.152.03c1.108.265 1.495.976 1.495.976s-.468 4.504-.498 6.019c0 .193.05.549.121.895.427.569.63 1.372.356 1.952-.518 1.108-1.453 1.138-1.453 1.128-.753 1.139-1.505 2.287-2.268 3.446 1.21.732 2.115 1.556 3.325 2.267-.386.722-.173 1.037-.56 1.77-1.555-.855-3.395-1.404-4.95-2.268-.356-.213-.997-.58-1.108-1.25-.072-.417.02-1.088.264-1.444.742-1.098 1.474-2.186 2.216-3.273.071-.102.142-.204.203-.305 0 0 .102-1.017.153-1.261.234-1.281.325-1.342.132-2.674-.152-1.057-2.145-1.636-2.236-2.338-.204-1.566.721-2.806.721-2.806z" fill="#455B8C"/><path d="M74.606 49.922s.346-.519.54-.814c.284-.447.589-.904.894-1.392.376-.59.65-1.007.864-1.312.529-.762.56-.813.539-1.413-.03-.966.02-1.505.02-1.678l.56.061c0 .041-.051.661-.021 1.607.03.783-.102.966-.64 1.748-.204.295-.488.712-.855 1.291-.305.488-.61.946-.904 1.393-.163.254-.346.529-.509.793-.274.417-.549.885-.508 1.007.081.284 2.613 1.85 3.7 2.44-.101.162-.111.06-.213.223-.58-.315-3.843-1.84-4.036-2.49-.05-.173-.03-.367.061-.6.102-.234.275-.519.508-.864z" fill="#626E97"/><path d="M77.24 55.228c.386-.63.772-1.25 1.159-1.87.396.233.782.457 1.179.69 0 0 .823.58.884.794.02.081-.01.569-.345 1.28-.173.356-.397.722-.692.956-.742.62-1.016-.264-1.006-.874 0-.142 0-.234.01-.295-.396-.224-.793-.447-1.19-.681z" fill="#BF69A9"/><path d="M77.443 36.583c.04.498.081.996.132 1.495.05.559-.508 1.036-1.23 1.067-.732.04-1.362-.386-1.413-.946-.03-.406-.072-.823-.102-1.23.915.519 1.993.56 2.613-.386z" fill="#455B8C"/><path d="M74.83 36.969c-.05-.65-.111-1.291-.162-1.942-.05-.559.508-1.037 1.23-1.067.732-.02 1.362.406 1.403.965.05.55.091 1.098.142 1.658-.62.945-1.697.904-2.612.386z" fill="#F7C6A5"/><path d="M73.387 33.717c.142 1.697 1.494 2.999 2.389 2.978 1.179-.03 2.013-1.443 1.87-3.12-.142-1.678-1.21-3.02-2.389-2.99-1.18.02-2.013 1.424-1.87 3.132z" fill="#A9A9A9"/><path d="M85.474 34.256c.153-.57.763-.895 1.373-.712.61.183.986.783.833 1.352a18.8 18.8 0 0 1-.58 1.78c-.772-.153-1.463-.53-2.063-1.048.193-.498.336-.965.437-1.372z" fill="#F7C6A5"/><path d="M78.165 37.386c.498-.345 1.21-.223 1.586.285.213.275 1.362 1.576 3.222.732 1.068-.488 1.719-1.78 2.329-3.436.59.518 1.29.884 2.073 1.037-.65 1.728-1.535 3.558-3.354 4.392-1.058.488-2.044.58-2.898.437-1.515-.234-2.643-1.18-3.172-1.881-.386-.518-.284-1.22.214-1.566z" fill="#BF69A9"/><path d="M79.913 39.654s.295 2.521.153 2.908c-.143.376-1.312.925-1.312.925-.6-.061-1.2-.112-1.79-.173 0 0-.304-3.141.082-4.819.387-1.677.397-2.185.397-2.185.223.05.447.101.68.152 0 .132-.01.264-.01.386 0 0 .326.112.956.661.62.539.844 2.145.844 2.145zM74.312 36.808s.091.376.315 1.545c.223 1.17.152 4.92.152 4.92l-.793-.305s-.305-.01-.254-.6c.04-.589-1.047-1.728-.966-2.673.082-.946-.02-1.983.204-2.166.234-.183.864-.396.864-.396-.051-.183-.102-.366-.142-.549.203.061.416.142.62.224z" fill="#BF69A9"/><path d="M79.273 43.213c-.782-.092-1.555-.173-2.338-.265 0 .254-.01.498-.01.752 0 0 2.216.265 2.216.255 0 0 .112-.143.173-.315a.576.576 0 0 0-.04-.427zM74.79 42.653l.06.814c-.365-.123-.742-.234-1.107-.356 0 0-.092-.234-.092-.458 0-.234.081-.295.081-.295.346.102.702.204 1.058.295z" fill="#ECA5E1"/><path d="M79.944 40.498s-.773-.345-1.17-.721l-.386-.377s.173.681.773 1.21c.59.529.905.58.905.58-.04-.234-.081-.468-.122-.692z" fill="#9C5789"/><path d="M79.375 51.203l-.956.336.65 1.565 1.028-.142-.722-1.759z" fill="#00699B"/><path d="M73.316 57.424c-.468.458-1.942.712-1.942.712s1.25-2.44 1.332-2.582c-.01-.01.752.874.884.803 0 0 .183.61-.274 1.067z" fill="#626E97"/><path d="M51.173 60.708c-.142 2.186.915 4.057 2.359 4.179 1.443.122 2.714-1.556 2.857-3.741.142-2.186-.915-4.057-2.36-4.179-1.443-.122-2.724 1.556-2.856 3.741z" fill="#00699B"/><path d="M54.803 52.616c-.457-.04-1.972-.05-2.41.05 3.762.245 5.379 4.637 5.114 8.642-.264 4.006-1.88 7.9-6.821 7.493.417.173 2.562.63 3.02.67 3.263.265 6.15-3.293 6.455-7.94.305-4.655-2.094-8.65-5.358-8.915z" fill="#00699B"/><path d="M52.16 52.393c.457-.03 2.734.081 3.151.254-3.751-.366-6.69 3.904-6.954 7.9-.264 4.005.915 8.549 5.856 8.956-.437.101-2.704-.153-3.151-.255-4.158-1.016-5.663-4.26-5.358-8.915.295-4.646 2.938-7.696 6.456-7.94z" fill="#00699B"/><path d="M59.307 60.79c0-3.985-2.359-7.228-5.246-7.228-2.898 0-5.246 3.243-5.246 7.228s2.359 7.228 5.246 7.228c2.897.01 5.246-3.233 5.246-7.228zm-.905 0c0 3.487-1.942 6.333-4.341 6.333-2.39 0-4.341-2.836-4.341-6.333 0-3.487 1.942-6.334 4.34-6.334 2.39.01 4.342 2.847 4.342 6.334z" fill="#12BAED"/><path d="M53.715 69.533c3.487.284 6.567-3.304 6.872-8.001.305-4.697-2.287-8.743-5.764-9.028-3.487-.285-6.567 3.304-6.872 8.001-.315 4.687 2.277 8.743 5.764 9.028zm.884-15.778c2.766.223 4.799 3.578 4.555 7.472-.254 3.894-2.704 6.872-5.47 6.649-2.765-.224-4.798-3.579-4.554-7.473.254-3.893 2.704-6.872 5.47-6.648z" fill="#0094DA"/><path d="M52.099 60.82c-.092 1.433.67 2.663 1.718 2.744 1.037.081 1.962-1.006 2.053-2.44.092-1.433-.67-2.663-1.718-2.745-1.047-.091-1.962 1.007-2.053 2.44z" stroke="#04BAEE" stroke-width="2.929" stroke-miterlimit="10"/><path d="M53.217 60.861c.07.793.508 1.373.955 1.291.458-.07.763-.772.682-1.555-.072-.783-.509-1.362-.956-1.291-.458.06-.763.762-.681 1.555z" fill="#04BAEE"/><path d="M54.833 60.75l5.683-13.43-.966-.732-5.794 13.724 1.077.438z" fill="#0094DA"/><path d="M57.233 53.175l-3.09 7.29-.387-.153 3.07-7.269.407.132z" fill="#04BAEE"/><path d="M56.643 52.992l1.535.57.366-.946-1.535-.57-.366.946z" fill="#0094DA"/><path d="M61.32 42.928l-2.532-.488c-.783-.153-1.688.345-2.013 1.118l-1.078 2.541c-.325.773 1.078 1.79 1.068 1.82 0 0 2.013.305 2.013.275l.284.05c.783.153 1.688-.345 2.013-1.118l1.078-2.541c.325-.763-.05-1.505-.834-1.657z" fill="#00699B"/><path d="M57.214 46.933c-1.113-.535-1.527-1.986-.925-3.241.603-1.255 1.995-1.84 3.108-1.305 1.114.535 1.527 1.986.925 3.241-.603 1.255-1.994 1.84-3.108 1.305z" fill="#0094DA"/><path d="M57.04 46.405c-.936-.45-1.25-1.741-.7-2.885.55-1.144 1.753-1.707 2.69-1.257.936.45 1.25 1.741.7 2.885-.549 1.144-1.753 1.707-2.69 1.257z" fill="#00699B"/><path d="M56.839 45.945c-.74-.355-.954-1.443-.48-2.43.474-.986 1.457-1.499 2.196-1.144.739.355.954 1.443.48 2.43-.474.986-1.457 1.499-2.196 1.144z" fill="#5BC4F1"/><path d="M67.846 36.655a1.564 1.564 0 0 1 1.78-.407c1.799.732 3.608 1.454 5.408 2.166.58.233.986.762 1.057 1.372.061.61-.234 1.2-.752 1.515-.956.569-1.901 1.138-2.857 1.718-.173-.763-.996-1.2-1.444-1.739a3.345 3.345 0 0 0-1.036-.59c.264-.162.538-.325.803-.487-.61-.244-1.22-.478-1.83-.722.711-.478 1.423-1.047 2.135-1.464-1.18-.132-2.328-.65-3.264-1.362z" fill="#796188"/><path d="M67.54 37.164c.072-.194.174-.366.306-.509.315.071 2.125.692 3.253 1.363-.701.427-1.423.986-2.135 1.463-.152-.06-.305-.122-.468-.183-.833-.325-1.26-1.29-.955-2.134z" fill="#796188"/><path d="M73.275 39.258l-2.562.915-.731-.285 3.293-.63z" fill="#6C567C"/><path d="M69.239 41.159c.254-.153.498-.305.752-.458.346.122.702.315 1.037.59.437.539 1.27.986 1.444 1.738-.509.305-1.017.62-1.525.936-.305.193-.661.264-.997.233a1.641 1.641 0 0 1-1.24-.782c-.467-.783-.234-1.79.529-2.257z" fill="#F7C6A5"/><path d="M73.234 30.809s-.711.66-.833 1.647c-.122.986.081 2.795.549 3.233.477.437 4.29 1.647 4.971 1.321.681-.335 1.006-.965 1.037-1.29.03-.326-.05-.59-.05-.59s.08-.824-.052-1.637c-.132-.803-.254-.966-.254-.966s-.396-1.423-1.728-2.135c-1.8-.956-3.64.417-3.64.417z" fill="#27365C"/><path d="M78.998 35.019s.386.122.427.528c.04.407-.57 1.424-.854 1.576-.285.153-.508.275-1.078.081-.559-.193-1.647-.427-1.647-.427s1.322.173 1.525-.04c.214-.214 0-1.18 0-1.18s.661.03 1.16-.06c.375-.082.64-.214.467-.478z" fill="#C7C6C6"/><path d="M78.582 32.446c.02.051.03.082.03.082s.122.152.254.965c.133.804.204 1.525.204 1.525s.081.234-.092.316c-.6.294-1.484.254-2.297.121-.061-.945-.02-1.91.01-2.866.874 0 1.515-.082 1.89-.143z" fill="#D0E2E5"/><path d="M74.21 33.066c.255-.386.773-.63 1.465-.508.183.01.376.02.59.02h.406c.112.56.142 1.881-.01 2.867a12.097 12.097 0 0 1-1.454-.335c-.488-.234-.803-.529-.986-.834-.244-.427-.224-.874-.01-1.21z" fill="#D0E2E5"/><path d="M76.244 29.996s1.667.397 2.663 1.027c.996.64 1.037 1.077.763 1.423-.265.346-2.755.163-3.406.132-.65-.03-.65-.02-.65-.02s1.91-.203 1.484-.742c-.438-.539-1.17-.986-1.881-1.18-.712-.193-1.505-.111-1.505-.111s.315-.193.813-.346a3.96 3.96 0 0 1 1.719-.183z" fill="#C7C6C6"/><path d="M78.998 35.019s.386.122.427.528c.04.407-.57 1.424-.854 1.576-.285.153-.508.275-1.078.081-.559-.193-1.647-.427-1.647-.427s1.322.173 1.525-.04c.214-.214 0-1.18 0-1.18s.661.03 1.16-.06c.375-.082.64-.214.467-.478zM76.244 29.996s1.667.397 2.663 1.027c.996.64 1.037 1.077.763 1.423-.265.346-2.755.163-3.406.132-.65-.03-.65-.02-.65-.02s1.91-.203 1.484-.742c-.438-.539-1.17-.986-1.881-1.18-.712-.193-1.505-.111-1.505-.111s.315-.193.813-.346a3.96 3.96 0 0 1 1.719-.183z" fill="#314474"/><path d="M223.938 68.39c17.551 0 31.779-1.082 31.779-2.416 0-1.335-14.228-2.416-31.779-2.416-17.551 0-31.779 1.081-31.779 2.416 0 1.334 14.228 2.415 31.779 2.415z" fill="#0032A5"/><path opacity=".7" d="M246.425 37.674v-1.93l-3.842-7.001-1.536-1.908-2.964-.817h-28.051l-2.754.661-1.242.817-2.483 4.167-2.102 4.047.356 2.201 44.618-.237z" fill="#5BC4F1"/><path d="M211.652 36.053h-3.676c-1.136 0-2.064-1.003-2.064-2.23s.928-2.23 2.064-2.23h3.676c1.136 0 2.065 1.003 2.065 2.23s-.929 2.23-2.065 2.23z" fill="#0082C8"/><path d="M213.149 39.027h-6.669a2.055 2.055 0 0 1-2.055-2.044c0-1.125.924-2.044 2.055-2.044h6.669c1.13 0 2.055.92 2.055 2.044a2.056 2.056 0 0 1-2.055 2.044z" fill="#0082C8"/><path d="M230.699 36.928h-14.765a2.072 2.072 0 0 1-2.066-2.068c0-1.137.929-2.067 2.066-2.067h14.765c1.137 0 2.067.93 2.067 2.067 0 1.138-.93 2.068-2.067 2.068z" fill="#0082C8"/><path d="M232.214 40.227h-17.792a2.073 2.073 0 0 1-2.067-2.068c0-1.137.93-2.067 2.067-2.067h17.792c1.137 0 2.067.93 2.067 2.067 0 1.138-.93 2.068-2.067 2.068z" fill="#0082C8"/><path d="M242.638 42.23h-37.664c-2.407 0-4.375-1.683-4.375-3.74 0-2.056 1.969-3.74 4.375-3.74h37.665c2.407 0 4.375 1.684 4.375 3.74 0 2.057-1.969 3.74-4.376 3.74z" fill="#0082C8"/><path d="M239.157 36.053h-3.676c-1.136 0-2.065-1.003-2.065-2.23s.929-2.23 2.065-2.23h3.676c1.136 0 2.064 1.003 2.064 2.23s-.928 2.23-2.064 2.23z" fill="#0082C8"/><path d="M240.653 39.027h-6.669c-1.13 0-2.055-.92-2.055-2.044 0-1.125.925-2.044 2.055-2.044h6.669c1.131 0 2.055.92 2.055 2.044a2.056 2.056 0 0 1-2.055 2.044z" fill="#0082C8"/><path d="M211.248 32.635h-1.857v2.898h1.857v-2.898z" fill="#A96644"/><path d="M211.248 33.927v-1.292h-1.857v1.56c.362.044 1.177.082 1.857-.268z" fill="#914627"/><path d="M208.126 30.116s-.205-.267-.205-.618c0 0-.883.034-.736-.68.147-.713.702-.453.713-.928.011-.475.788-1.018 1.351-.61.563.406 1.853-1.02 1.898.453 0 0 .871-.533 1.03.157.158.69 1.007.407.952 1.314 0 0-.092.294.259.34 0 0-.157.271-.306.214l-.359 1.102-2.203 1.23-2.394-1.974z" fill="#332A27"/><path d="M213.129 29.366c-.027-.083-.002-.162-.002-.162.022-.347-.09-.52-.244-.64-.432.287-1.272.7-2.251.41-.944-.28-1.485-1.225-1.745-1.834-.484-.05-.98.371-.987.75a.402.402 0 0 1-.034.16 6.029 6.029 0 0 0 5.263 1.316z" fill="#4C423F"/><path d="M212.302 30.873l-.278.235c-.059-.139-.017-.359-.056-.506a3.615 3.615 0 0 1-.042-.193c-.317-.215-.492-.819-.44-1.342.057-.588-.793-.18-.793-.18-.01-.329-.962-.906-.939-.193.024.714-.43.567-.748.68-.319.113-.127.586-.127.586-.453-.063-.577-.449-.577-.449a.453.453 0 0 1-.17-.012c0 1.077-.132 2.742.495 3.666.221.325.499.599.967.672 2.037.318 2.561-1.675 2.561-1.675s.639.17.769-.77c.107-.782-.622-.519-.622-.519z" fill="#A96644"/><path d="M211.328 29.18c-.008.307.105 1.014.6 1.229-.317-.215-.492-.819-.441-1.342.058-.588-.792-.18-.792-.18s.641-.012.633.293zM209.006 30.115s-.088-.607.235-.576c.322.03.843-.113.79-.574-.052-.46.506-.333.664-.079-.011-.328-.962-.905-.939-.192.023.714-.43.567-.749.68-.318.113-.126.586-.126.586-.454-.063-.578-.449-.578-.449a.454.454 0 0 1-.17-.012c-.001 0 .18.596.873.616z" fill="#914627"/><path d="M209.239 31.12c-.001.174-.108.31-.238.298-.13-.01-.233-.16-.232-.335.002-.175.108-.31.238-.3.132.01.235.162.232.337zM211.022 31.069c-.002.175-.109.31-.239.299-.13-.011-.233-.161-.232-.336.002-.175.109-.31.239-.299.129.01.233.16.232.336z" fill="#502F26"/><path d="M209.872 32.114c-.395.16-.607-.026-.622-.212a.268.268 0 0 1 .174-.276c.24-.094.41-.462.412-.467.001.085-.085.404-.39.582-.066.039-.107.079-.102.14.009.103.159.26.528.233z" fill="#914627"/><path d="M208.439 30.216l-.017-.119c.027-.001.432-.113.91-.073l.005.186a3.93 3.93 0 0 0-.898.006zM211.331 30.277c-.318-.124-.909-.147-.915-.149l.038-.17c.023.005.559.023.916.215l-.039.104z" fill="#332A27"/><path d="M212.001 31.927c-.174.504-.819 1.75-2.211 1.674-.753-.042-1.135-.539-1.388-.885.059.164.133.314.225.448.221.325.499.6.967.672 2.037.319 2.561-1.674 2.561-1.674s.489.136.706-.486c-.381.631-.86.25-.86.25z" fill="#914627"/><path d="M210.556 32.389s-.741.151-1.431 0c0 0 .122.634.715.633.561 0 .71-.51.716-.633z" fill="#722626"/><path d="M209.826 32.69c-.456 0-.589-.188-.646-.292.535.105.967.042 1.342-.004-.041.116-.266.297-.696.297z" fill="#fff"/><path d="M214.145 35.588s-1.148-.441-2.435-.723c0 0-.74.757-1.583.723-.917-.039-1.261-.698-1.261-.698-.586.093-1.536.33-2.121.602 0 0-.348 1.547-.003 9.593 0 0 2.278.8 6.473 0 0 0 .048-3.645.593-5.848.001 0 .165-2.264.337-3.65z" fill="#FFD07D"/><path opacity=".2" d="M209.346 36.617l.73-.718.475.94s1.225-.754 1.388-1.921a11.586 11.586 0 0 0-.229-.053c-1.035.763-1.962 1.136-2.844.023a2.868 2.868 0 0 0-.136.024c0 .001-.108.738.616 1.705z" fill="#000"/><path d="M209.403 34.43s.098.753.692 1.017c0 0 1.086-.305 1.165-1.028l.64.489s-.405 1.205-1.262 1.524l-.535-.817-.727.673s-.703-.852-.644-1.378l.671-.48z" fill="#FFD07D"/><path d="M214.003 44.125l-.405-.285-.305.062c-.288-.093-.416-.283-.56-.305-.144-.022-.37-.173-.37-.173-.133.201.127.418.127.418l-.06-.013c-.05-.009-.099-.02-.149-.03-.063-.011-.127-.025-.189-.038-.06-.012-.122-.026-.182-.037-.048-.008-.095-.017-.143-.02a.608.608 0 0 0-.147.018c-.061.013-.383.127-.437.14a3.143 3.143 0 0 1-.078.017c-.023.062-.028.128.003.184.056.1.202.099.277.085.056-.01.13-.036.184-.056.047-.017.034-.026.115-.017.046.005.093.022.139.031.101.022.201.045.302.07l.068.015s-.486.09-.637.132c-.113.032-.432.339-.432.339-.231.22.13.305.13.305-.019.02-.043.055-.043.086 0 .027.018.047.032.062.028.028.063.04.097.051a.345.345 0 0 0 .253-.008l.052-.023a1.667 1.667 0 0 0 .259-.155c.007-.006.024-.024.034-.024l.377-.022c-.127.07-.258.3-.43.406a.32.32 0 0 0-.074.057c-.02.022-.044.054-.039.088.005.032.034.042.057.051.073.03.152.028.229.01a.538.538 0 0 0 .228-.124c.229-.256.484-.383.81-.214.472.243.84-.46.84-.46l.067-.623z" fill="#A96644"/><path d="M214.145 35.587s.909.056 3.241 4.484c0 0 .969 1.813-3.261 4.785 0 0-.824-.249-.824-1.159l2.09-2.757-1.547-1.706c0 .002-.518-2.514.301-3.647z" fill="#FFD07D"/><path d="M206.889 44.025l.405-.285.305.062c.288-.093.416-.283.56-.304.144-.022.37-.174.37-.174.133.201-.127.418-.127.418l.06-.012.149-.03.189-.038c.06-.013.122-.027.182-.038.048-.007.095-.017.143-.02a.603.603 0 0 1 .147.019c.061.012.383.127.437.14l.078.016c.023.062.028.129-.003.184-.056.1-.201.1-.277.085a1.13 1.13 0 0 1-.184-.055c-.047-.017-.034-.027-.115-.017-.046.004-.093.021-.139.03-.101.022-.201.045-.302.07l-.068.016s.486.09.638.131c.112.033.431.34.431.34.231.219-.13.304-.13.304.019.02.044.056.044.087 0 .026-.019.046-.033.062a.228.228 0 0 1-.097.05.345.345 0 0 1-.253-.007l-.052-.023a1.667 1.667 0 0 1-.259-.155c-.007-.006-.024-.025-.034-.025l-.377-.022c.127.07.258.3.43.406a.32.32 0 0 1 .074.057c.02.022.044.054.039.088-.005.033-.034.042-.057.052a.373.373 0 0 1-.229.009.538.538 0 0 1-.228-.124c-.229-.255-.484-.382-.81-.214-.472.243-.84-.46-.84-.46l-.067-.623z" fill="#A96644"/><path d="M206.746 35.49s-.908.055-3.241 4.484c0 0-.969 1.812 3.261 4.785 0 0 .824-.25.824-1.16l-2.09-2.757 1.547-1.705s.52-2.515-.301-3.648z" fill="#FFD07D"/><path d="M236.598 27.04s2.83-.521 3.192 2.673c.345 3.042.687 6.06.615 8.234 0 0-2.801.905-6.031 0 0 0 .083-4.202-.187-7.123-.239-2.561.81-3.897 2.411-3.784z" fill="url(#paint0_linear)"/><path d="M239.394 28.342a2.382 2.382 0 0 0-1.172-1.097c-.335.513-.81.928-1.772.924-.694-.004-.857-.538-.874-.97a2 2 0 0 0-.928.82c1.448 1.126 3.552.705 4.746.323z" fill="#994A3D"/><path d="M234.39 34.938s-.864.137-1.346 4.297l1.687.164c.002.001 1.425-4.246-.341-4.46z" fill="#BDC7D6"/><path d="M238.504 41.7s1.935 1.907 2.345 9.863c0 0-3.728 1.062-8.548 0 0 0 .836-8.183 2.289-9.935l3.914.072z" fill="#A52923"/><path d="M235.03 34.87s1.794-.403 3.456 0c0 0-.28 1.833-2.396 1.85-2.118.017-1.06-1.85-1.06-1.85z" fill="#D17462"/><path d="M238.448 34.795s-1.882 1.783-2.336 1.778c-.453-.005-.997-1.778-.997-1.778-.695.186-.768.218-.768.218l-.134 1.249c-.71.908-.704 1.164-.704 1.564 0 .697.615 1.122.615 1.122l.449 2.824c2.361.918 3.95.053 3.95.053.261-1.784.936-4.071.936-4.071v-2.65c-.361-.165-.642-.204-1.011-.31z" fill="#D7E4F7"/><path d="M236.167 34.119l-.005 1.12 1.371.005.006-1.458a2.088 2.088 0 0 1-1.372.333z" fill="#D17462"/><path d="M237.54 33.785l.005-1.123-1.371-.005-.006 1.461c.234.03.803.04 1.372-.333z" fill="#BA5F50"/><path opacity=".1" d="M233.64 38.077s.18.152.569.186c.786.068 2.44.209 3.577.026.477-.077.557-.317.916-.599 0 0 .057 1.224-1.437 1.2-1.496-.027-3.53.158-3.625-.813z" fill="#000"/><path d="M233.95 31c-.008 1.283.342 2.383.377 3.34.076 2.053-.58 2.86-.708 3.607 0 0 .731.186 1.403.06 0 0 .549-2.216.461-3.517-.088-1.302-.673-3.349-.673-3.349s-.279-2.545 1.64-2.972l.006-.403c-.159-.014-2.485-.158-2.506 3.234z" fill="#7C3425"/><path d="M238.833 30.689l-.035.012s-.253.166-.296-.298c-.215-1.983-2.04-2.238-2.04-2.238-1.866.197-1.801 1.442-1.769 2.258-.011.458.059.874.034 1.338-.065 1.158.912 1.912 1.779 1.91 1.667-.002 2.089-1.481 2.089-1.481s.775.132.874-.908c.077-.85-.636-.593-.636-.593z" fill="#D17462"/><g opacity=".9" fill="#D15D54"><path opacity=".091" d="M235.497 31.22a.706.706 0 0 1-.261 1.385.705.705 0 0 1 .261-1.385z"/><path opacity=".182" d="M235.484 31.287c.345.065.573.4.508.744a.638.638 0 1 1-.508-.744z"/><path opacity=".273" d="M235.473 31.354a.57.57 0 1 1-.213 1.118.57.57 0 0 1 .213-1.118z"/><path opacity=".364" d="M235.458 31.42a.5.5 0 1 1-.185.984.5.5 0 0 1 .185-.984z"/><path opacity=".455" d="M235.445 31.487a.433.433 0 1 1-.16.85.433.433 0 0 1 .16-.85z"/><path opacity=".545" d="M235.434 31.553a.366.366 0 1 1-.137.72.366.366 0 0 1 .137-.72z"/><path opacity=".636" d="M235.421 31.62a.297.297 0 1 1-.111.583.297.297 0 0 1 .111-.583z"/><path opacity=".727" d="M235.409 31.686a.229.229 0 1 1-.086.45.229.229 0 0 1 .086-.45z"/><path opacity=".818" d="M235.396 31.753a.161.161 0 1 1-.06.318.161.161 0 1 1 .06-.317z"/><path opacity=".909" d="M235.382 31.82c.052.01.086.059.075.11a.094.094 0 0 1-.11.074.092.092 0 0 1-.074-.11.094.094 0 0 1 .109-.074z"/><path opacity=".9" d="M235.391 31.918a.026.026 0 0 1-.031.02.027.027 0 0 1-.021-.031c.004-.014.018-.024.032-.02.014.003.024.017.02.03z"/></g><g opacity=".636" fill="#D15D54"><path opacity=".091" d="M237.732 31.17a.754.754 0 1 1-.278 1.482.754.754 0 0 1 .278-1.483z"/><path opacity=".182" d="M237.719 31.241a.682.682 0 1 1-.254 1.34.682.682 0 0 1 .254-1.34z"/><path opacity=".273" d="M237.705 31.313a.61.61 0 1 1-.227 1.199.61.61 0 0 1 .227-1.199z"/><path opacity=".364" d="M237.692 31.383a.536.536 0 1 1-.199 1.053.536.536 0 0 1 .199-1.053z"/><path opacity=".455" d="M237.679 31.455a.463.463 0 1 1-.172.91.463.463 0 0 1 .172-.91z"/><path opacity=".545" d="M237.664 31.527a.391.391 0 1 1-.147.77.391.391 0 0 1 .147-.77z"/><path opacity=".636" d="M237.65 31.598a.318.318 0 1 1-.118.629.318.318 0 0 1 .118-.629z"/><path opacity=".727" d="M237.638 31.67a.248.248 0 0 1 .197.288.247.247 0 0 1-.485-.091.246.246 0 0 1 .288-.197z"/><path opacity=".818" d="M237.624 31.741a.171.171 0 0 1 .138.203.172.172 0 0 1-.203.137.174.174 0 0 1 .065-.34z"/><path opacity=".909" d="M237.61 31.812c.055.01.09.063.081.118a.103.103 0 0 1-.118.08.102.102 0 0 1-.08-.117.102.102 0 0 1 .117-.081z"/><path opacity=".636" d="M237.62 31.916a.027.027 0 0 1-.033.022.026.026 0 0 1-.021-.033.027.027 0 0 1 .032-.022c.014.004.024.02.022.033z"/></g><path d="M236.482 32.044c-.289.131-.472.063-.509-.132-.025-.127.05-.27.128-.342.163-.144.236-.566.236-.571.012.09-.007.444-.205.689a.217.217 0 0 0-.055.165c.012.146.151.257.405.19z" fill="#BA5F50"/><path d="M235.433 30.761s-.254.008-.291-.088c0 0-.029.135.126.178a.38.38 0 0 0-.076.243c.003.18.116.326.252.325.136-.002.244-.15.241-.333-.003-.183-.114-.328-.252-.325zM237.335 30.729s-.254.008-.291-.088c0 0-.03.134.125.178a.386.386 0 0 0-.076.242c.003.182.116.327.252.326.137-.002.245-.15.242-.333-.003-.183-.116-.327-.252-.325z" fill="#502F26"/><path d="M238.466 31.84s-.116.899-1.259 1.39c-1.007.43-1.99-.238-2.208-.402.342.533.945.845 1.504.844 1.666-.002 2.088-1.481 2.088-1.481s.487.088.743-.409c-.481.455-.868.058-.868.058z" fill="#BA5F50"/><path d="M235.868 30.25s-.408-.11-.967.053c0 0-.003-.041.102-.131.099-.084.466-.175.782-.047 0 .002.164.089.083.126zM236.803 30.228s.407-.118.967.034c0 0 .003-.042-.104-.129-.1-.082-.469-.167-.783-.032 0 0-.162.091-.08.127z" fill="#7C3425"/><path d="M237.084 32.31s-.647.143-1.251.02c0 0 .116.555.634.545.489-.009.612-.456.617-.565z" fill="#B22828"/><path d="M236.449 32.586c-.399.006-.518-.158-.571-.246.471.085.847.025 1.175-.022-.033.1-.228.262-.604.268z" fill="#fff"/><path d="M238.833 30.689l-.035.012s-.252.166-.296-.298c-.215-1.983-2.04-2.238-2.04-2.238-1.662.175-1.793 1.182-1.778 1.978.098-.494.463-1.67 1.725-1.894 0 0 1.722.57 2.068 4.224.084-.165.118-.282.118-.282s.775.132.874-.908c.077-.85-.636-.594-.636-.594z" fill="#BA5F50"/><path d="M239.471 31.084s-.195-3.477-3.006-3.319l-.009-.002-.006.403.007-.002s1.58.192 1.961 2.976c.493 3.595-1.558 6.957-1.558 6.957s1.114 0 1.479-.09c0 0 .799-1.898 1.056-3.447.303-1.82.076-3.476.076-3.476z" fill="#7C3425"/><path d="M239.443 35.105s1.044.354 1.573 4.713l-1.568.466s-1.043-3.82-.005-5.18z" fill="#D7E4F7"/><path d="M241.015 39.819s.097 1.233-1.569 1.143c-1.525-.084-2.959-.333-2.959-.333l.105-.846c.002 0 2.522-.429 4.423.035z" fill="#D17462"/><path d="M234.458 39.87c.026-.074.11-.052.204-.03l-.276-.103c-.064-.027-.133-.058-.107-.146.028-.093.101-.072.177-.051l-.188-.075c-.063-.027-.128-.064-.103-.16.02-.082.087-.074.163-.065l.161.023c-.092-.037-.16-.11-.143-.173.011-.042.063-.09.2-.077l.882.054.314.062-.169-.172c-.142-.199-.028-.288-.028-.288.058-.049.162.042.31.14l.479.363c.172.182.484.522.418.849-.069.34-.18.48-.401.493 0 0-.398-.01-.616-.043a3.34 3.34 0 0 1-.472-.116l-.666-.3c-.098-.053-.161-.117-.139-.184z" fill="#D17462"/><path d="M224.705 42.246c-.339-.122-.455.27-.455.27s-.236.581-.267.801c-.031.221.147.7.266.794 0 0 .292.209.365.274 0 0 .127.005.048-.217 0 0 .232.127.204-.076 0 0 .135-.088.162-.323 0 0-.057-.282-.133-.4 0 0 .155-.408.073-.66 0 0 .076-.34-.263-.463z" fill="#A96644"/><path d="M224.685 42.73s-.06.405-.131.63c0 0 .201.3.082.43 0 0-.157-.11-.365-.35 0 0 .116.399.137.46.023.06.167.155.251.272 0 0 .151-.053.162-.137 0 0 .136-.148.132-.252 0 0-.04-.229-.099-.392 0 0 .204-.402.099-.677-.006-.017-.256.03-.268.017z" fill="#914627"/><path d="M225.076 38.065c.365.031.768.048 1.158.318-.014.403-.192.98-.231 1.276 0 0-.271 1.58-1.035 3.05 0 0-.416-.03-.677-.286 0 0 .389-2.357.561-2.962 0-.001.161-.709.224-1.396z" fill="#A96644"/><path d="M225.259 36.42c.349-1.106.804-1.332.804-1.332l.307 2.077s-.017.656-.042 1.363c-.384-.085-1.14-.224-1.512-.373.185-.72.265-1.172.443-1.735z" fill="#9B2A2A"/><path d="M229.959 53.265l.939-.082-.08-1.131-.939.082.08 1.131z" fill="#A96644"/><path d="M231.259 53.855h-1.675v.272h1.675v-.273z" fill="#C1C1C1"/><path d="M231.228 53.855s.107-.272-.045-.535l-.21-.45s-.104.108-.197.064c-.097-.044-.372-.57-.775.004 0 0-.119-.072-.187-.05l-.128.42s-.22.413-.077.547h1.619z" fill="#A52923"/><path d="M230.688 53.436c-.005 0-.009-.002-.014-.004a.948.948 0 0 0-.549-.023c-.023.008-.048-.007-.054-.034-.006-.026.008-.052.031-.06.012-.003.304-.088.6.025a.05.05 0 0 1 .028.062c-.006.021-.023.034-.042.034z" fill="#fff"/><path d="M230.688 53.305c-.005 0-.009-.002-.014-.003a.949.949 0 0 0-.549-.024c-.023.008-.048-.007-.054-.034-.006-.026.008-.052.031-.06.012-.003.304-.088.6.025a.05.05 0 0 1 .028.062c-.006.021-.023.034-.042.034z" fill="#fff"/><path d="M230.688 53.175c-.005 0-.009-.002-.014-.003a.947.947 0 0 0-.549-.023c-.023.007-.048-.008-.054-.035-.006-.026.008-.052.031-.06.012-.003.304-.088.6.025.023.01.036.037.028.062-.006.022-.023.034-.042.034z" fill="#fff"/><path d="M230.688 53.045c-.005 0-.009-.002-.014-.003a.947.947 0 0 0-.549-.023c-.023.007-.048-.008-.054-.034-.006-.027.008-.053.031-.06.012-.004.304-.089.6.024.023.01.036.037.028.062-.006.022-.023.034-.042.034z" fill="#fff"/><path d="M224.606 50.685h-.996v1.087h.996v-1.087z" fill="#A96644"/><path d="M224.723 51.408s.24.364.129 1.041h-3.3s-.268-.467.71-.561c.633-.06 1.196-.638 1.196-.638s.186.03.266.265c.088.26.613.31.801.032.12-.175.198-.14.198-.14z" fill="#A52923"/><path d="M224.877 52.451h-3.305v.273h3.305v-.273z" fill="#C1C1C1"/><path d="M222.805 52.12a.066.066 0 0 1-.057-.039.33.33 0 0 0-.204-.195.063.063 0 0 1-.045-.079.062.062 0 0 1 .074-.048.455.455 0 0 1 .289.27.066.066 0 0 1-.032.085c-.008.003-.016.006-.025.006zM223.053 52.022a.066.066 0 0 1-.057-.038.331.331 0 0 0-.204-.195c-.033-.008-.053-.044-.045-.08a.063.063 0 0 1 .074-.047.455.455 0 0 1 .289.269.066.066 0 0 1-.057.091zM223.237 51.892a.065.065 0 0 1-.058-.038.331.331 0 0 0-.204-.195.065.065 0 0 1-.045-.08.063.063 0 0 1 .075-.047.457.457 0 0 1 .289.27.066.066 0 0 1-.033.084.041.041 0 0 1-.024.006zM223.422 51.763a.066.066 0 0 1-.057-.04.329.329 0 0 0-.204-.194c-.033-.008-.054-.044-.045-.08a.063.063 0 0 1 .074-.047.46.46 0 0 1 .289.27.066.066 0 0 1-.032.084.05.05 0 0 1-.025.007z" fill="#fff"/><path d="M226.06 41.584l-.158 1.146s-2.28 2.82-2.471 3.484c-.19.666-.023 1.903.045 4.453 0 0 .449.285 1.275.033 0 0 .076-3.637.241-4.03.166-.393 2.975-3.287 2.975-3.287l.492.011 1.267 8.897s.614.164 1.216-.055l-.786-10.654h-4.096v.002z" fill="#2E4056"/><path d="M226.041 42.647a.032.032 0 0 1-.028-.019.03.03 0 0 1 .016-.039c.004-.001.534-.224.611-.821.001-.017.017-.028.034-.027.015.002.028.017.026.034-.083.633-.642.869-.648.87-.003.002-.008.002-.011.002zM228.316 43.383a.03.03 0 0 1-.03-.023c-.001-.006-.134-.636-.148-1.498a.03.03 0 0 1 .029-.03c.016 0 .029.011.031.029.014.855.147 1.479.147 1.485.003.016-.006.033-.023.036l-.006.001z" fill="#566C82"/><path d="M228.241 43.108h-.002a.397.397 0 0 1-.278-.143c-.271-.314-.212-1.04-.21-1.069.001-.017.015-.028.032-.028a.028.028 0 0 1 .026.033c0 .007-.058.73.197 1.026a.333.333 0 0 0 .237.122c.017.001.029.015.027.03a.029.029 0 0 1-.029.029zM230.163 42.834h-.004c-.959-.097-1.202-.919-1.205-.927a.031.031 0 0 1 .02-.037.031.031 0 0 1 .038.02c.001.008.236.791 1.154.884a.028.028 0 0 1 .026.033c-.002.017-.014.027-.029.027z" fill="#566C82"/><path d="M223.429 50.475v.326s.724.331 1.403.025v-.232s-.952.173-1.403-.12zM229.629 52.04l.063.334s.933.128 1.34-.165v-.255c.002 0-.838.297-1.403.085z" fill="#ABC2D8"/><path d="M227.822 34.394l-.02.724 1.201.032.026-.942a2.36 2.36 0 0 1-1.207.186z" fill="#A96644"/><path d="M229.03 34.209l.02-.726-1.2-.033-.027.946c.204.023.703.041 1.207-.188z" fill="#914627"/><path d="M228.317 35.281c.71 0 .882-.394.905-.518a4.674 4.674 0 0 0-1.626-.059c-.014.146.024.577.721.577z" fill="#A96644"/><path d="M230.822 35.296s-.684-.373-1.518-.556a2.49 2.49 0 0 0-.106-.021c-.025.123-.158.5-.868.5-.698 0-.721-.401-.706-.545a3.56 3.56 0 0 0-.158.023c-.379.06-1.022.214-1.4.39 0 0-.052 1.968-.109 6.68 0 0 1.69.609 4.407.09.043-2.262.054-2.925.229-4.347-.005 0 .118-1.318.229-2.214z" fill="#B23232"/><path d="M230.283 30.724s.145.328.215.786c0 0 .263-.786.374-1.322.121-.574-.124-1.663-1.539-2.123-2.025-.659-2.543.146-2.947 1.512.001 0 2.685-1.026 3.897 1.147z" fill="#D0D6D8"/><path d="M229.914 28.337c.893.545 1.06 1.368.959 1.85-.111.536-.374 1.322-.374 1.322-.069-.458-.215-.786-.215-.786a2.71 2.71 0 0 0-.568-.715 2.435 2.435 0 0 0 .198-1.671z" fill="#AAB6BA"/><path d="M230.283 30.724s-1.066-1.588-3.296-1.226c0 0-.688.172-.662.755 0 0-.999-1.428-.725-1.8.272-.372 3.228-.34 3.722.13.656.624.961 2.14.961 2.14z" fill="#C63939"/><path d="M225.782 29.872c.04-.084.065-.104.079-.098-.028-.145-.053-.41.118-.484.096-.042.151-.042.191-.017-.012-.053-.01-.116.086-.197.077-.063.119-.065.15-.032a.158.158 0 0 1 .054-.152c.139-.118.371-.11.739.11-.057-.043-.116-.116-.011-.183.167-.107.248.044.277.073 0 0-.161-.175.03-.226.13-.035.257.096.399.209-.019-.034-.002-.073.088-.107.231-.086.631.025.852.406a.22.22 0 0 1 .095-.056c.261-.094.623.378.636.92 0 0 .536.341.79.725 0 0 .175.416.146.749l-.215.645-3.95-.634s-.152-.543-.118-1.04c-.003 0-.541-.392-.436-.611z" fill="#332A27"/><path d="M228.44 29.975c.424.153 1.024.175 1.024.175.333.831.761 1.314.979 1.523l-.161.484-3.949-.634s-.152-.554-.118-1.05c.121-1.315 1.801-.651 2.225-.498z" fill="#191514"/><path d="M229.951 31.706l-.241.195c-.051-.114.024-.436.031-.563.037-.684-.328-1.145-.328-1.145-1.417.178-1.885-.29-2.315-.245-.589.062-.66.516-.66.516-.149.53-.105.801-.105.801-.002.63-.016 1.7.437 2.338.191.27.432.496.837.556 1.764.265 2.216-1.386 2.216-1.386s.552.14.665-.638c.093-.647-.537-.429-.537-.429z" fill="#A96644"/><path d="M229.362 30.36s-.609.25-2.062-.32c0 0-.432-.142-.775.216.087-.128.254-.276.572-.31.43-.045.898.422 2.315.244 0 0 .32.405.331 1.021-.056-.275-.17-.667-.381-.85zM229.688 32.576c-.15.418-.708 1.447-1.912 1.385-.651-.034-.982-.446-1.2-.732.051.135.114.26.195.371.19.27.431.496.837.556 1.763.265 2.215-1.386 2.215-1.386s.422.112.609-.403c-.328.523-.744.21-.744.21z" fill="#914627"/><path d="M227.301 31.908c-.001.145-.092.255-.205.247-.112-.009-.201-.133-.201-.278.001-.146.092-.255.205-.248.113.01.203.133.201.279zM228.841 31.865c-.001.145-.092.255-.205.247-.112-.009-.201-.133-.2-.278.002-.145.094-.255.206-.248.111.008.201.133.199.279z" fill="#502F26"/><path d="M227.847 32.731c-.34.132-.524-.022-.538-.176a.22.22 0 0 1 .152-.228c.207-.077.354-.383.355-.387.002.07-.072.335-.337.482-.057.03-.093.065-.088.114.008.088.139.217.456.195z" fill="#914627"/><path d="M226.608 31.273l-.016-.083c.022-.002.375-.079.788-.051l.003.131c-.337-.041-.769.003-.775.003zM229.122 31.284c-.286-.062-.797-.035-.801-.035l.017-.122c.02.002.482-.026.809.08l-.025.076z" fill="#332A27"/><path d="M228.44 32.958s-.642.125-1.238 0c0 0 .105.525.619.525a.61.61 0 0 0 .619-.525z" fill="#722626"/><path d="M227.809 33.21c-.395 0-.511-.157-.56-.242.462.087.836.035 1.161-.003-.035.094-.229.244-.601.244z" fill="#fff"/><path d="M230.689 40.96c-.093-.168-.268-.188-.268-.188l-.201.042c-.19-.062-.274-.188-.37-.201-.096-.014-.244-.115-.244-.115-.087.133.083.276.083.276-.014-.004-.026-.005-.04-.008l-.097-.02-.126-.025-.12-.025a.499.499 0 0 0-.095-.012.351.351 0 0 0-.097.012c-.04.008-.254.084-.289.093l-.052.01a.149.149 0 0 0 .002.123c.037.067.133.065.183.057a.737.737 0 0 0 .122-.037c.031-.01.023-.017.076-.012.031.003.06.014.091.02l.199.045c.016.003.031.008.045.01 0 0-.32.06-.421.087-.074.022-.284.225-.284.225-.152.145.086.2.086.2-.012.015-.027.038-.027.058 0 .017.012.031.021.04.019.019.042.027.065.034a.211.211 0 0 0 .167-.005c.013-.004.024-.01.034-.015a.976.976 0 0 1 .044-.023c.043-.025.086-.048.128-.079.005-.003.016-.015.022-.017l.249-.014c-.084.047-.17.198-.285.268-.017.01-.034.021-.049.039-.014.014-.03.035-.027.058.003.022.024.028.039.034a.254.254 0 0 0 .152.007.316.316 0 0 0 .075-.03c.019-.01.036-.022.053-.034a.225.225 0 0 0 .022-.018c.151-.17.32-.253.535-.141.311.16.555-.303.555-.303s.138-.25.044-.417z" fill="#A96644"/><path d="M232.42 37.602c.097.174.339.569.445.77 0 0 .573 1.037-2.221 3 0 0-.334-.17-.223-.601l1.185-1.916-.294-.501c.406-.458.754-.632 1.108-.752z" fill="#A96644"/><path d="M230.822 35.297s.485-.062 1.799 2.304c-.218.234-.698.779-1.344 1.001l-.748-.92s-.249-1.638.293-2.385z" fill="#B23232"/><path d="M219.74 52.993l-.561-.003c-.223 0-.404.259-.404.568 0 .311.181.568.404.568h.527l.034-1.133z" fill="#1A2126"/><path d="M220.126 53.549c0-.311-.162-.548-.386-.548-.223 0-.423.238-.423.548 0 .31.166.593.39.593.223-.002.419-.284.419-.593z" fill="#313C44"/><path d="M221.508 53.402h-.318c-.27-.136-.273-.31-.273-.31l-.201-.097-.241.102c-.026.23-.218.26-.305.307h-.336a.136.136 0 0 0 0 .272h1.676c.074 0 .136-.06.136-.136a.14.14 0 0 0-.138-.138z" fill="#7A8A96"/><path d="M221.344 52.858h-1.267v.226h1.267v-.226z" fill="#616F77"/><path d="M221.733 52.993l-.562-.003c-.222 0-.403.259-.403.568 0 .311.181.568.403.568h.528l.034-1.133z" fill="#1A2126"/><path d="M222.118 53.55c0-.31-.163-.547-.387-.547-.223 0-.422.238-.422.548 0 .31.165.592.389.592.225-.001.42-.283.42-.592z" fill="#313C44"/><path d="M226.079 52.993l-.562-.003c-.223 0-.404.259-.404.568 0 .311.181.568.404.568h.528l.034-1.133z" fill="#1A2126"/><path d="M226.465 53.549c0-.311-.162-.548-.386-.548-.223 0-.423.238-.423.548 0 .31.166.593.39.593.223-.002.419-.284.419-.593z" fill="#313C44"/><path d="M227.847 53.402h-.319c-.269-.136-.272-.31-.272-.31l-.201-.097-.242.102c-.026.23-.218.26-.305.307h-.335a.136.136 0 0 0 0 .272h1.675c.074 0 .136-.06.136-.136a.14.14 0 0 0-.137-.138z" fill="#7A8A96"/><path d="M227.683 52.858h-1.267v.226h1.267v-.226z" fill="#616F77"/><path d="M228.071 52.993l-.561-.003c-.223 0-.404.259-.404.568 0 .311.181.568.404.568h.527l.034-1.133z" fill="#1A2126"/><path d="M228.457 53.55c0-.31-.162-.547-.387-.547-.222 0-.422.238-.422.548 0 .31.165.592.39.592.223-.001.419-.283.419-.592z" fill="#313C44"/><path d="M227.892 52.905h-8.783s-.464-.016-.758-.31.058-.523.339-.534c.263-.01 1.352-.122 2.011.496.07.065.215.167.423.167h4.685s.362-.016.664-.225c.302-.209 1.569-.69 2.158-.26.59.43-.391.666-.739.666z" fill="#A08650"/><path d="M219.003 52.235c-.423.006-.647.074-.761.136 0 .067.032.144.111.224.294.294.758.31.758.31h2.01c-.277 0-.351-.054-.588-.252-.24-.2-.749-.43-1.53-.418z" fill="#A52923"/><path d="M228.028 52.723s.603-.021.753-.337a.56.56 0 0 0-.15-.152c-.588-.43-1.856.053-2.158.262-.269.187-.586.22-.651.224v.005h2.206v-.002z" fill="#313C44"/><path d="M227.097 28.156v-.573c0-.46-.353-.837-.786-.837h-2.07v-.728c-.475.001-1.06.01-1.723.023v.705h-2.07c-.433 0-.784.376-.784.837v.573c0 .46.353.835.784.835h5.863c.433.002.786-.376.786-.835z" fill="#0082C8"/><path d="M210 40.885a2.973 2.973 0 1 0 0-5.946 2.973 2.973 0 0 0 0 5.946z" stroke="#0082C8" stroke-width="6.427" stroke-miterlimit="10"/><path d="M208.012 35.576l-.478-.242a.23.23 0 0 0-.311.107l-.026.052a.238.238 0 0 0 .001.212.219.219 0 0 0-.161.118l-.026.052a.23.23 0 0 0 .028.239.231.231 0 0 0-.193.13l-.026.052a.239.239 0 0 0-.013.177.17.17 0 0 0-.075.053l-.031.035c-.068.08-.06.2.018.27l.325.29c.079.07.197.06.266-.019l.03-.035a.193.193 0 0 0 .01-.24l.054.027c.115.058.254.01.312-.107l.026-.052a.244.244 0 0 0 .009-.19c.12.038.244-.006.294-.108l.027-.053c.048-.1.011-.22-.081-.295a.225.225 0 0 0 .101-.104l.027-.053a.243.243 0 0 0-.107-.316zM212.021 35.576l.597-.242c.143-.058.317-.01.389.107l.033.052a.197.197 0 0 1-.002.212.277.277 0 0 1 .201.118l.033.052c.047.077.029.166-.035.239a.3.3 0 0 1 .241.13l.033.052c.035.056.038.12.015.177.035.01.068.027.095.053l.038.035c.085.08.075.2-.023.27l-.406.29a.274.274 0 0 1-.332-.019l-.038-.035a.164.164 0 0 1-.012-.24l-.068.027c-.143.058-.318.01-.389-.107l-.033-.052a.196.196 0 0 1-.011-.19c-.15.038-.305-.006-.368-.108l-.033-.053c-.061-.1-.014-.22.101-.295a.261.261 0 0 1-.127-.104l-.033-.053c-.068-.116-.011-.258.134-.316z" fill="#A96644"/><path d="M218.972 53.777l-.242-.486-.708.098-.071.575 1.021.002v-.19z" fill="#D17462"/><path d="M215.661 48.383c.398 1.39 1.326 2.304 2.412 5.15l.649-.239s-.742-2.782-1.632-5.058c0 0 .07-1.956.683-4.116-.966-.259-1.362-.346-1.923-.446-.385 1.502-.373 4.062-.189 4.709z" fill="#D17462"/><path d="M215.851 43.67a7.358 7.358 0 0 0-.136.67c.279.225.879.61 1.821.719.068-.306.147-.622.238-.942-.965-.257-1.363-.345-1.923-.446z" fill="#BA5F50"/><path d="M219.135 54.622h-3.2v.37h3.2v-.37z" fill="#C1C1C1"/><path d="M215.94 54.622s-.219-.605.731-.691l.246.691h-.977z" fill="#F2F2F2"/><path d="M216.679 53.93l1.266-.43s.151-.044.264.254c0 0 .469.254.766-.068 0 0 .285-.025.161.469v.469h-2.641l.184-.695z" fill="#D6D8D8"/><path d="M218.967 53.687a.483.483 0 0 1-.374.162l.029.172s.19-.036.282-.105c0 0 .076.19.216.235.124-.486-.153-.464-.153-.464zM217.459 54.623h-.206l-.164-.414.176-.062.194.476zM217.829 54.622h-.206l-.206-.526.189-.059.223.585zM218.197 54.622h-.204l-.237-.628.184-.057.257.685z" fill="#3E4042"/><path d="M218.196 53.757l-1.412.482-.062-.171 1.173-.396c.001 0 .21-.082.301.085z" fill="#CECECE"/><path d="M216.911 53.78l-.116.04.107.31.116-.04-.107-.31zM217.157 53.697l-.115.04.106.31.116-.04-.107-.31zM217.405 53.615l-.116.04.107.31.115-.04-.106-.31zM217.691 53.533l-.116.04.107.31.116-.04-.107-.31z" fill="#F2F2F2"/><path d="M218.47 44.167c.109 1.775.382 6.39.356 9.716h.704s.577-5.776.866-9.925c-.769.031-1.332.096-1.926.209z" fill="#D17462"/><path d="M220.398 43.97c-.769.032-1.333.094-1.926.206.016.247.033.548.053.892a6.678 6.678 0 0 0 1.827-.458l.046-.64z" fill="#BA5F50"/><path d="M218.693 53.964l.135-.696h.763l.083.679-.981.017z" fill="#D17462"/><path d="M219.92 54.621h-1.395v.37h1.397l-.002-.37z" fill="#CECECE"/><path d="M219.187 53.459s-.359-.002-.333.224c0 0-.329-.038-.329.912l1.397.02s-.028-.92-.384-.92c0 0 .054-.236-.351-.236z" fill="#E5E5E5"/><path d="M218.933 53.652v.575l-.164.006v-.458s.082-.1.164-.123zM219.424 53.651v.574l.164.007v-.458s-.04-.1-.164-.123z" fill="#CECECE"/><path d="M219.547 53.817c-.328-.147-.698-.002-.701 0l.003-.086c.014-.006.328-.163.698 0v.086z" fill="#F2F2F2"/><path d="M218.847 53.941l.003-.087c.011-.006.286-.16.696-.02v.085a1.028 1.028 0 0 0-.699.022z" fill="#F2F2F2"/><path d="M218.525 54.621s-.062-.704.697-.704c.76 0 .698.704.698.704h-1.395z" fill="#F2F2F2"/><path d="M220.921 36.953s-.631-.514-.257-1.164c.374-.65.532-1.083.257-1.557-.277-.473.295-1.485.394-1.878.099-.393-.532-1.723-.493-2.263.039-.54-.356-1.762-1.422-1.645 0 0-2.31-.804-2.9 1.01-.593 1.813-.336 2.746 0 3.317.335.57.604 1.657.253 2.344-.352.688-.02 1.365.554 1.701.576.336 2.41.71 3.614.135z" fill="url(#paint1_linear)"/><path d="M220.825 30.03c.003-.34-.141-.88-.478-1.237-.346.416-1.163.887-1.985.661-.731-.201-.826-.749-.812-1.077a1.55 1.55 0 0 0-.936.802c1.425 1.081 3.224 1.004 4.211.85z" fill="#994A3D"/><path d="M221.331 36.04s-.025 1.039-.002 2.483c.023 1.444.322 1.281-.17 4.689h-.644s-.334-3.48-.082-4.683l-.243-2.276 1.141-.214z" fill="url(#paint2_linear)"/><path d="M220.494 43.114c.122-.258.317-.174.562-.058.244.116.213.357.182.561l-.119.35c-.122.258-.305.246-.549.128-.245-.116-.402-.295-.28-.555l.204-.426z" fill="#BA5F50"/><path d="M220.48 43.721c.019.017.032.04.04.067.073.272.517.662.686.783.058.041.088.125.054.178-.036.052-.11.04-.167-.002-.072-.051-.697-.509-.81-.925-.018-.067.021-.129.087-.138.04-.006.081.01.11.037z" fill="#BA5F50"/><path d="M220.601 43.638c.019.01.036.026.047.046.23.381.905.689.912.692.067.026.143.1.118.164-.025.065-.139.056-.206.03-.031-.013-.767-.304-1.044-.762a.123.123 0 0 1 .043-.172.126.126 0 0 1 .13.002z" fill="#BA5F50"/><path d="M220.878 43.677a.147.147 0 0 1 .04.025c.272.232.681.38.685.382.104.042.15.115.126.172-.017.037-.115.034-.183.015-.018-.004-.472-.136-.792-.41-.054-.046-.06-.117-.014-.16.034-.036.09-.042.138-.024z" fill="#BA5F50"/><path d="M221.025 43.538c.012.003.026.003.035.012.164.163.563.263.566.263.072.008.113.047.107.113-.006.067-.059.054-.13.047a2.094 2.094 0 0 1-.663-.21c-.064-.033-.089-.107-.055-.166a.13.13 0 0 1 .14-.06z" fill="#BA5F50"/><path d="M220.433 34.547s.749.359 1.212 1.532c0 0-.58.455-1.396.608-.001.002-.263-1.273.184-2.14z" fill="#86CF87"/><path d="M216.115 35.618s-.327 3.439.108 4.014c0 0 .956 1.252 3.386 1.822l.198-.596s-1.796-1.212-2.739-1.8l-.098-3.181-.855-.259z" fill="url(#paint3_linear)"/><path d="M221.081 41.762c.008-.054-.054-.07-.122-.09l.21.032c.05.007.104.011.114-.05.013-.067-.041-.08-.097-.094l.145.019c.05.005.104.006.12-.062.012-.056-.033-.074-.084-.094l-.113-.042c.073.01.139-.012.149-.056.006-.028-.013-.076-.104-.114l-.586-.271-.223-.07.164-.046c.156-.071.111-.166.111-.166-.021-.05-.117-.03-.244-.021l-.426.054c-.17.05-.479.15-.543.371-.065.23-.038.353.099.437 0 0 .26.13.412.185.152.056.34.093.34.093l.526.048c.084.002.146-.015.152-.063z" fill="#D17462"/><path d="M216.664 34.478s-.601.32-.949 1.553c0 0 .904.554 1.465.585-.001.001-.204-1.452-.516-2.138z" fill="#86CF87"/><path d="M219.665 39.515l.082-.989-2.952-.03.127.994-.26.992s1.129.916 3.447-.01c-.116-.408-.373-.612-.444-.957z" fill="#D17462"/><path d="M219.666 39.48l.079-.954-2.952-.03.086.67c.423.219 1.431.615 2.787.313z" fill="#BA5F50"/><path d="M217.168 34.374s1.327-.297 2.554 0c0 0-.207 1.356-1.771 1.368-1.566.013-.783-1.368-.783-1.368z" fill="#D17462"/><path d="M219.359 34.283s-.291.765-1.153.75c-.826-.016-.616-.75-.616-.75a11.36 11.36 0 0 0-.925.197l-.099.922c-.337.494-.411.86-.396 1.157.024.45.087.83.087.83l.131 1.63c1.745.677 3.82-.052 3.82-.052-.037-1.694.246-2.46.246-2.46v-1.96c-.291-.121-.812-.224-1.095-.264z" fill="#86CF87"/><path d="M218.008 33.819l-.003.828 1.014.004.004-1.077a1.534 1.534 0 0 1-1.015.245z" fill="#D17462"/><path d="M219.025 33.574l.003-.83-1.013-.004-.005 1.079c.174.023.593.03 1.015-.245z" fill="#BA5F50"/><path d="M219.72 31.56s.291 1.814-.103 2.554c-.395.74-.519.898-.415 1.29.102.394.336.897-.294 1.384 0 0 1.176-.193.916-1.383 0 0 .979-1.074.876-3.922l-.98.076zM216.445 32.212s-.137 1.096.294 1.918c.432.822-.295 1.021-.157 1.671.137.65-.171.905-.396.993 0 0 .73.106.878-.775 0 0 .025-.448.138-.572.113-.124.603-1.03.271-1.795-.333-.766 0-1.441 0-1.441h-1.028v.002z" fill="#7C3425"/><path d="M220.011 31.14l-.029.009s-.091.436-.323-.51c-.153-.988-1.284-1.318-1.284-1.318-1.803.028-1.871.873-1.741 1.605.053.268.119.698.099 1.068-.051.924.727 1.524 1.419 1.523 1.327-.002 1.674-1.093 1.674-1.093s.609.017.69-.813c.065-.677-.505-.471-.505-.471z" fill="#D17462"/><path d="M218.362 29.455s.814.232 1.245.972c-.267-.822-1.231-1.104-1.231-1.104-1.095.017-1.55.336-1.709.75.213-.28.679-.583 1.695-.618z" fill="#BA5F50"/><g opacity=".9"><path opacity=".091" d="M217.352 31.564a.56.56 0 1 1-.209 1.103.56.56 0 0 1-.447-.656.56.56 0 0 1 .656-.447z" fill="#E8725F"/><path opacity=".182" d="M217.341 31.616a.507.507 0 1 1-.19.999.508.508 0 0 1 .19-.999z" fill="#E5705E"/><path opacity=".273" d="M217.331 31.67a.455.455 0 0 1-.169.892.455.455 0 0 1 .169-.893z" fill="#E36E5D"/><path opacity=".364" d="M217.321 31.724a.4.4 0 0 1-.149.786.4.4 0 1 1 .149-.786z" fill="#E16C5C"/><path opacity=".455" d="M217.311 31.776a.347.347 0 1 1-.404.275.347.347 0 0 1 .404-.275z" fill="#DF6A5B"/><path opacity=".545" d="M217.3 31.828a.291.291 0 1 1-.108.572.291.291 0 0 1 .108-.572z" fill="#DC6759"/><path opacity=".636" d="M217.291 31.882a.238.238 0 1 1-.277.189.238.238 0 0 1 .277-.189z" fill="#DA6558"/><path opacity=".727" d="M217.28 31.935a.184.184 0 0 1 .146.213.182.182 0 1 1-.146-.214z" fill="#D86357"/><path opacity=".818" d="M217.272 31.988a.129.129 0 1 1-.151.103.13.13 0 0 1 .151-.103z" fill="#D66156"/><path opacity=".909" d="M217.261 32.041c.04.008.066.047.058.089a.073.073 0 0 1-.086.058.076.076 0 0 1-.061-.086.077.077 0 0 1 .089-.06z" fill="#D35F55"/><path opacity=".9" d="M217.267 32.12c-.001.01-.012.018-.025.017-.011-.002-.019-.013-.017-.026.001-.01.012-.019.025-.017.013.003.02.014.017.025z" fill="#D15D54"/></g><g opacity=".9"><path opacity=".091" d="M219.134 31.522a.603.603 0 1 1-.227 1.184.603.603 0 0 1 .227-1.184z" fill="#E8725F"/><path opacity=".182" d="M219.123 31.58a.544.544 0 1 1-.203 1.069.544.544 0 0 1 .203-1.07z" fill="#E5705E"/><path opacity=".273" d="M219.112 31.636a.487.487 0 1 1-.568.387.488.488 0 0 1 .568-.387z" fill="#E36E5D"/><path opacity=".364" d="M219.102 31.694a.426.426 0 0 1 .34.5.427.427 0 1 1-.84-.16.428.428 0 0 1 .5-.34z" fill="#E16C5C"/><path opacity=".455" d="M219.091 31.752a.37.37 0 1 1-.138.726.37.37 0 0 1 .138-.726z" fill="#DF6A5B"/><path opacity=".545" d="M219.08 31.808c.168.033.28.195.249.366a.314.314 0 0 1-.365.249.312.312 0 1 1 .116-.614z" fill="#DC6759"/><path opacity=".636" d="M219.069 31.864a.254.254 0 1 1-.095.5.254.254 0 0 1 .095-.5z" fill="#DA6558"/><path opacity=".727" d="M219.058 31.92a.196.196 0 1 1-.073.386.196.196 0 0 1 .073-.385z" fill="#D86357"/><path opacity=".818" d="M219.047 31.978a.139.139 0 0 1 .11.16.139.139 0 0 1-.161.11.139.139 0 0 1-.11-.16.139.139 0 0 1 .161-.11z" fill="#D66156"/><path opacity=".909" d="M219.036 32.035a.08.08 0 0 1 .064.095.08.08 0 0 1-.093.063.078.078 0 0 1-.063-.093.078.078 0 0 1 .092-.065z" fill="#D35F55"/><path opacity=".9" d="M219.045 32.118a.022.022 0 0 1-.027.018c-.013-.002-.02-.015-.017-.027.001-.013.014-.02.027-.017.011.003.018.015.017.026z" fill="#D15D54"/></g><path d="M218.137 32.219c-.23.105-.376.05-.405-.104-.02-.1.039-.217.102-.272.13-.115.187-.452.189-.455a.85.85 0 0 1-.163.549.17.17 0 0 0-.043.132c.006.114.118.204.32.15z" fill="#BA5F50"/><path d="M217.302 31.195s-.202.006-.232-.07c0 0-.023.107.099.14a.297.297 0 0 0-.06.194c.001.144.093.26.201.259.108-.002.195-.121.193-.265-.003-.144-.093-.26-.201-.258zM218.818 31.172s-.203.006-.232-.07c0 0-.025.107.099.141a.296.296 0 0 0-.06.194c.001.144.093.26.201.258.108-.001.195-.12.193-.264-.003-.146-.093-.26-.201-.259z" fill="#68413A"/><path d="M219.709 32.193s-.084.582-.995.972c-.803.344-1.586-.189-1.76-.32a1.47 1.47 0 0 0 1.199.673c1.327-.002 1.673-1.093 1.673-1.093s.387.011.585-.403c-.343.255-.702.171-.702.171z" fill="#BA5F50"/><path d="M217.684 30.789s-.325-.088-.77.042c0 0-.004-.033.08-.105.079-.067.371-.14.623-.037 0 .001.132.07.067.1zM218.393 30.772s.325-.095.772.028c0 0 .001-.033-.084-.104-.08-.065-.374-.133-.623-.025 0 0-.13.073-.065.1z" fill="#7C3425"/><path d="M218.617 32.432s-.515.113-.998.015c0 0 .091.441.506.433.39-.006.489-.363.492-.448z" fill="#B22828"/><path d="M218.112 32.652c-.319.005-.413-.125-.455-.197.375.069.675.02.936-.017-.026.08-.181.21-.481.214z" fill="#fff"/><path d="M220.197 40.434c-2.561.335-3.646 0-3.646 0s-.538 1.621-1.018 3.342c.438.228 1.27.51 2.274.568.093-.277.169-.542.215-.66l.336-.005s.022.24.048.667a13.335 13.335 0 0 0 2.161-.251c-.008-1.44.062-2.656-.37-3.661z" fill="#7D9CC9"/><path d="M218.263 41.3c-1.135 0-1.842-.199-1.853-.202a.041.041 0 1 1 .023-.079c.015.005 1.587.443 3.818-.002.023-.004.043.01.048.033a.04.04 0 0 1-.032.048 10.17 10.17 0 0 1-2.004.201z" fill="#9EB9D8"/><path d="M218.203 43.08h-.002a.409.409 0 0 1-.303-.132c-.125-.14-.17-.387-.145-.802.021-.365.075-1.474.075-1.485.002-.023.019-.04.044-.039a.04.04 0 0 1 .038.044c0 .01-.055 1.12-.075 1.487-.022.385.017.622.125.74a.34.34 0 0 0 .247.106c.024.002.041.02.039.043a.045.045 0 0 1-.043.038zM218.305 43.58s-.002 0 0 0a.042.042 0 0 1-.042-.04c.036-1.142.084-2.855.084-2.872 0-.023.02-.04.042-.04.023 0 .04.02.04.042 0 .017-.048 1.73-.084 2.872 0 .023-.018.038-.04.038zM220.387 41.98c-.834 0-.939-.79-.941-.798-.003-.02.013-.037.033-.04.021-.003.038.012.041.034.004.03.099.735.865.737.02 0 .037.014.037.034.002.02-.015.034-.035.034zM216.179 41.886a.04.04 0 0 1-.038-.034c-.004-.021.012-.04.034-.043.792-.091.843-.57.844-.59a.04.04 0 0 1 .042-.035c.022.001.037.02.036.041-.002.024-.055.562-.913.661h-.005z" fill="#9EB9D8"/><path d="M220.257 43.348a.232.232 0 0 1-.205.257l-.884.099a.233.233 0 0 1-.257-.206l-.026-.23a.232.232 0 0 1 .206-.257l.883-.1a.232.232 0 0 1 .257.206l.026.23zM217.445 43.507a.165.165 0 0 1-.193.13l-1.088-.214a.164.164 0 0 1-.13-.193.166.166 0 0 1 .194-.13l1.087.213c.09.019.147.105.13.194zM215.479 43.544s.816.469 2.444.68l-.076.363s-1.587-.082-2.463-.678l.095-.365zM218.302 44.227s.752.046 2.393-.273v.38s-1.023.357-2.358.253l-.035-.36z" fill="#CAE0EF"/><path d="M219.356 40.562l-.205.022.079.734.205-.022-.079-.734zM217.141 40.563l-.107.73.204.03.106-.73-.203-.03z" fill="#6888AF"/><path d="M218.141 41.131a.168.168 0 0 0 .168-.168.168.168 0 1 0-.337 0c0 .093.076.168.169.168z" fill="#CAE0EF"/><path d="M195.135 53.585c.031 2.14.148 4.954.564 6.983.147.718.097.744 1.171.74 1.141-.007 5.32.022 6.403.02 2.137-.008 2.664-.007 3.578-.331.985-.35 1.707-.688 2.679-1.037.956-.343 2.184-.256 3.265-.262 2.291-.013 7.204.114 10.99.095 3.785-.02 8.697-.196 10.988-.206 1.081-.007 2.309-.105 3.268.228.977.34 1.701.67 2.691 1.01.917.314 1.443.308 3.581.294 1.082-.008 5.261-.079 6.403-.085 1.073-.006 1.024-.032 1.163-.75.395-2.034.483-4.849.493-6.987.009-2.216-.473-7.61-.564-8.659-.143-1.64-.713-2.079-1.312-2.81-.685-.835-.967-1.417-1.523-2.133-.505-.648-.997-1.09-1.539-1.672-.27-.29-.428-.704-.502-1.095-.116-.601-1.371-3.42-2.619-5.683-.889-1.61-2.132-3.3-2.745-3.944-1.013-1.065-1.732-1.26-2.697-1.365-4.696-.51-9.623-.688-15.261-.659-5.638.03-10.562.257-15.254.815-.963.114-1.68.317-2.682 1.39-.608.652-1.833 2.354-2.705 3.973-1.225 2.276-2.452 5.108-2.562 5.71-.071.39-.224.805-.491 1.098-.534.59-1.024 1.036-1.521 1.688-.55.721-.825 1.306-1.501 2.148-.591.738-1.157 1.183-1.282 2.825-.084 1.047-.511 6.447-.477 8.661zm7.029-17.774c.426-1.154 1.016-2.764 1.717-4.154a25.107 25.107 0 0 1 2.263-3.645c.491-.648.652-.708 1.545-.804 3.407-.366 11.074-.685 15.926-.71 4.849-.025 12.519.216 15.932.548.892.086 1.054.145 1.552.788a24.977 24.977 0 0 1 2.3 3.622c.715 1.384 1.321 2.986 1.759 4.137.146.383.2.826-.339.81-1.067-.035-8.443-.316-10.659-.388-2.455-.08-8.154-.14-10.497-.127-2.345.013-8.041.128-10.496.233-2.215.096-9.589.45-10.655.496-.54.023-.491-.42-.348-.806z" fill="#14AFEB"/><path d="M251.966 58.726l-7.028.037.034 7.037c.003.612.482 1.106 1.069 1.103l4.9-.027c.588-.003 1.062-.501 1.059-1.113l-.034-7.037zM195.504 59.135l7.398-.037.036 7.037a1.114 1.114 0 0 1-1.114 1.113l-5.158.027a1.115 1.115 0 0 1-1.126-1.103l-.036-7.037z" fill="#192D4B"/><path d="M252.138 58.871l-56.469.29.017 3.28 56.469-.29-.017-3.28z" fill="#192D4B"/><path d="M246.317 37.294c.071.233.217.27.514.235a91.706 91.706 0 0 0 5.794-.883c.31-.056.522-.063.709-.327.277-.392.549-.79.523-1.244-.027-.444-.75-1.044-1.153-1.222-1.053-.467-2.176-.654-3.381-.75a6.287 6.287 0 0 0-1.083.001c-.319.031-.398.237-.47.52a9.977 9.977 0 0 0-.276 1.977c-.363-.004-1.477-.076-1.44.328.031.42.144.97.263 1.365zM201.451 36.287c.031-.407-1.08-.323-1.443-.316a10.143 10.143 0 0 0-.297-1.983c-.076-.283-.156-.49-.474-.518a6.399 6.399 0 0 0-1.082.009c-1.203.109-2.323.308-3.369.788-.399.183-1.117.792-1.139 1.238-.021.456.255.853.535 1.245.188.264.401.268.71.322a91.91 91.91 0 0 0 5.795.83c.299.031.444-.006.51-.242.118-.399.224-.95.254-1.373z" fill="#14AFEB"/><path d="M196.077 56.76c.332-.88.583-1.715.915-2.596.255-.68.744-1.724 1.078-2.38.444-.871 1.582-.807 2.473-.8.978.01 3.438.107 4.403.125.885.015 1.985-.023 2.286-1.135l16.67-.084 16.669-.084c.314 1.108 1.414 1.136 2.298 1.111.965-.027 3.424-.148 4.402-.168.891-.017 2.029-.092 2.481.774.341.653.839 1.691 1.102 2.37.342.876.6 1.71.942 2.586.135.346.339.533.576.72-.075 1.1-.191 2.176-.37 3.092-.139.713-.09.739-1.161.745-1.14.006-5.313.078-6.394.084-2.134.016-2.659.022-3.576-.293-.987-.337-1.71-.667-2.686-1.004-.958-.33-2.184-.233-3.264-.227-2.287.012-7.191.187-10.971.207-3.78.019-8.686-.107-10.974-.095-1.079.006-2.307-.08-3.26.26-.971.347-1.692.685-2.675 1.031-.913.322-1.439.322-3.573.328-1.081.005-5.254-.026-6.394-.02-1.072.006-1.022-.021-1.169-.733-.189-.913-.316-1.988-.401-3.086.24-.19.441-.38.573-.729z" fill="#0082C8"/><path d="M199.968 57.14c.063-.208 8.701 1.163 23.791 1.083 15.089-.08 23.713-1.542 23.778-1.336.181.574-8.093 2.496-23.772 2.58-15.679.083-23.974-1.753-23.797-2.327z" fill="#14AFEB"/><path d="M206.695 49.425c.205-.753 1.126-1.29 1.827-1.753.536-.354 1.126-.72 1.703-1.05.176-.1.561-.334.848-.384.335-.058.92.003 1.248.012a314.147 314.147 0 0 0 7.68.122c.669.002 2.589-.008 3.735-.014 1.147-.007 3.065-.016 3.735-.025a312.78 312.78 0 0 0 7.678-.199c.326-.012.912-.079 1.247-.024.287.047.675.278.85.375.581.325 1.176.685 1.714 1.034.706.457 1.633.985 1.846 1.735.228.806-.491 1.802-.911 2.42-1.3 1.92-2.504 3.773-4.091 5.412-.67.693-1.614.685-2.514.721-1.223.05-6.453.152-9.497.175-3.044.008-8.273-.043-9.498-.079-.9-.027-1.844-.01-2.522-.695-1.604-1.623-2.827-3.466-4.146-5.37-.422-.617-1.152-1.605-.932-2.413z" fill="#0082C8"/><path d="M216.771 55.753l13.99-.077c.441-.002.798-.387.796-.857l-.02-4.165c-.001-.47-.362-.85-.804-.848l-13.99.077c-.441.001-.798.386-.796.856l.02 4.165c.003.47.363.85.804.849z" fill="#14AFEB"/><path d="M217.434 53.894v-2.23h1.486v.268h-1.114v.745h.845v.259h-.845v.958h-.372zM220.013 52.961c-.03.004-.063.004-.098.004h-.298v.93h-.325v-2.23h.624c.466 0 .753.197.753.633 0 .305-.126.501-.346.596l.456.894v.105h-.298l-.468-.932zm-.398-.252h.289c.285 0 .431-.107.431-.392 0-.277-.153-.388-.431-.388h-.289v.78zM221.15 51.664h1.087v.268h-.813v.695h.595v.255h-.595v.75h.841v.262h-1.115v-2.23zM222.637 51.664h1.449v.268h-1.084v.695h.793v.255h-.793v.75h1.122v.262h-1.487v-2.23zM224.124 51.77v-.106h.326l.396 1.748h.007l.438-1.748h.303l.435 1.748h.006l.397-1.748h.294v.106l-.523 2.124h-.364l-.406-1.68h-.006l-.416 1.68h-.364l-.523-2.124zM226.727 53.79l.744-2.126h.373l.74 2.126v.104h-.331l-.209-.625h-.828l-.203.625h-.287v-.104h.001zm.573-.775h.657l-.324-.985h-.007l-.326.985zM229.187 53.894v-.892l-.603-1.227v-.11h.279l.485 1.01h.003l.474-1.01h.246v.11l-.579 1.218v.901h-.305zM223.938 45.717a1.673 1.673 0 1 0 0-3.345 1.673 1.673 0 0 0 0 3.345z" fill="#fff"/><path d="M223.938 45.717a1.673 1.673 0 1 0 0-3.345 1.673 1.673 0 0 0 0 3.345z" fill="#fff"/><path d="M222.324 44.39c.055.263.176.5.343.697a2.532 2.532 0 0 1 2.469-1.976 1.149 1.149 0 0 0-.076-.091 2.528 2.528 0 0 0-2.736 1.37z" fill="#0046B4"/><path d="M223.161 45.476a1.58 1.58 0 0 0 2.292-1.415c0-.298-.083-.578-.227-.817a2.531 2.531 0 0 0-2.065 2.232zM224.28 42.796c.223 0 .438.03.644.082a1.58 1.58 0 0 0-2.593.834 2.529 2.529 0 0 1 1.949-.916z" fill="#46B400"/><path d="M208.877 45.724c-.069-.176-.978-.419-1.604-.595a174.562 174.562 0 0 1-4.277-1.267c-1.012-.32-2.165-.732-3.122-1.199-.441-.214-.715-.364-1.217-.254a6.162 6.162 0 0 0-1.284.433c-.214.096-.492.259-.632.435-.127.16-.205.49-.255.682-.142.54-.214.994-.236 1.478-.032.726.292 1.259.983 1.55.905.382 2.022.512 2.988.663a24.81 24.81 0 0 0 3.175.29c.581.016 1.137.02 1.695-.163.505-.165.904-.366 1.383-.595.504-.242 1.004-.54 1.495-.777.164-.08 1.01-.42.908-.68z" fill="#BAE2EE"/><path d="M199.407 46.46a1.3 1.3 0 1 0 0-2.601 1.3 1.3 0 0 0 0 2.601zM204.151 46.747a1.287 1.287 0 1 0-1.82-1.82 1.287 1.287 0 0 0 1.82 1.82z" fill="#fff"/><path d="M196.63 45.801c.018.212.259.547.441.652.615.35 1.658.572 2.364.703 1.171.214 2.34.322 3.529.4.448.03 1.408.039 1.46-.075.03-.067-.472-.087-1.038-.138a31.97 31.97 0 0 1-3.289-.443c-.666-.132-1.737-.417-2.375-.742-.327-.167-.504-.385-.51-.64a4.492 4.492 0 0 1 .248-1.593c.14-.378.793-.814.635-.81-.201.006-.613.262-.903.466a.808.808 0 0 0-.251.306c-.173.464-.369 1.214-.311 1.914z" fill="#fff"/><path d="M239.542 46.087c.492.23.998.52 1.503.755.48.223.883.418 1.389.577.562.174 1.116.167 1.698.145a25.004 25.004 0 0 0 3.173-.32c.964-.16 2.081-.3 2.982-.688.688-.296 1.008-.827.966-1.547a6.68 6.68 0 0 0-.251-1.462c-.052-.19-.133-.516-.261-.673-.141-.172-.421-.331-.637-.424a6.167 6.167 0 0 0-1.289-.417c-.503-.103-.776.047-1.215.266-.954.471-2.102.891-3.11 1.22-1.049.342-3.142.976-4.264 1.3-.625.18-1.529.431-1.598.605-.101.258.75.587.914.663z" fill="#BAE2EE"/><path d="M248.097 46.088a1.3 1.3 0 1 0 0-2.601 1.3 1.3 0 0 0 0 2.601zM245.332 46.536a1.287 1.287 0 1 0-1.82-1.82 1.287 1.287 0 0 0 1.82 1.82z" fill="#fff"/><path d="M250.543 43.558a.818.818 0 0 0-.255-.326c-.292-.215-.708-.484-.909-.489-.158-.003.501.456.645.861.175.489.272 1.097.266 1.701-.003.274-.177.508-.504.69-.634.355-1.705.673-2.373.82-1.077.237-2.198.392-3.294.51-.565.06-1.07.086-1.038.157.054.12 1.015.102 1.464.065 1.19-.096 2.362-.226 3.533-.466.707-.146 1.751-.394 2.362-.776.183-.114.421-.476.437-.7.052-.752-.154-1.553-.334-2.047z" fill="#fff"/><path d="M213.205 35.929c2.456-.11 8.157-.233 10.502-.246 2.346-.013 8.047.05 10.504.134l1.088.039.719 3.306c-2.991.271-7.023.496-12.455.608-5.43-.112-9.458-.337-12.448-.607l.86-3.175c.493-.025.913-.044 1.23-.059z" fill="#5AC8F5"/><path opacity=".3" d="M238.263 25.944l3.837 9.767.98 2.492c-1.036.264-2.675.559-5.269.824l-.811-3.31-2.469-10.07c1.266.08 2.508.179 3.732.297zM212.602 25.646l-2.34 10.039-.778 3.342c-2.489-.268-4.063-.564-5.059-.83l.94-2.518 3.619-9.683a97.509 97.509 0 0 1 3.618-.35z" fill="#fff"/></g><defs><linearGradient id="paint0_linear" x1="237.226" y1="27.372" x2="237.256" y2="30.723" gradientUnits="userSpaceOnUse"><stop stop-color="#7C3425"/><stop offset="1" stop-color="#60261D"/></linearGradient><linearGradient id="paint1_linear" x1="218.708" y1="32.334" x2="219.38" y2="36.599" gradientUnits="userSpaceOnUse"><stop stop-color="#7C3425"/><stop offset="1" stop-color="#60261D"/></linearGradient><linearGradient id="paint2_linear" x1="220.824" y1="37.913" x2="220.926" y2="40.535" gradientUnits="userSpaceOnUse"><stop stop-color="#D17462"/><stop offset="1" stop-color="#BA5F50"/></linearGradient><linearGradient id="paint3_linear" x1="219.924" y1="39.538" x2="218.179" y2="38.718" gradientUnits="userSpaceOnUse"><stop stop-color="#D17462"/><stop offset="1" stop-color="#BA5F50"/></linearGradient></defs></svg>