<svg version="1.0" xmlns="http://www.w3.org/2000/svg" width="933.333" height="933.333" viewBox="0 0 700 700"><path d="M323 24c-43.9 4.2-80.8 14.6-118.5 33.5-20.7 10.4-33.9 18.4-50 30.5-57.7 43.3-99.2 103.7-119 173-1.8 6.3-3.5 12.8-3.9 14.5l-.6 3 2.7-3.1c1.6-1.6 7.4-8.2 13-14.6 44.2-49.8 105.1-94.7 167.8-123.6C303.2 96.3 401.7 81 499 93c21.2 2.7 48.9 7.9 61.4 11.5 8.9 2.7 8.2 1.9-9.9-12.4-46-36.1-101.3-59-160.9-66.7-14.4-1.8-53.2-2.6-66.6-1.4z"/><path d="M453.5 127.6c-107.3 9.6-207.4 51.1-290.5 120.3-14.4 12-42 39-55.5 54.2-27.4 31.1-52 66.6-70.2 101.6l-7.4 14.1 3.1 12.4c8.3 32.6 21.9 64.4 39.9 93.1 7.6 12.2 18.5 27.3 25.3 35.1l3.4 3.9 3.8-14.9c5-19.7 15.9-52.2 23.9-71.5 43.4-103.9 117.3-189.1 215-248.1 17.1-10.3 53-28.1 72.7-35.9 55.8-22.2 110-33.9 172-36.9 11.8-.6 21.6-1.3 21.8-1.5.3-.2-2.2-3.7-5.4-7.6-3.3-3.9-6.6-8.1-7.5-9.2-1.2-1.5-4.2-2.4-12-3.8-14.1-2.4-32.8-4.7-48.3-5.9-17.7-1.4-65.9-1.1-84.1.6z"/><path d="M615 183.5c-69.2 15.2-129.7 41.1-186.2 79.7-101 68.9-174.5 170.7-208.4 288.8-7.4 25.7-15.7 68-16.6 84.9l-.3 5.4 13 5.9c29.2 13.3 63.2 22.6 98.5 27 15.7 2 59.3 1.6 75-.6 65.4-9.1 119.6-32.5 169-72.9 12.2-10 36.1-34.3 46.3-47.2 73.6-92.3 92.2-217 48.5-325.5-4.7-11.7-17.3-37.5-21.8-44.8-2.4-3.8-2.8-3.8-17-.7z"/></svg>