<svg width="375" height="156" fill="none" xmlns="http://www.w3.org/2000/svg" viewBox="0 0 375 156"><path d="M375 0H0v156h375V0z" fill="#F5FCFF"/><mask id="a" maskUnits="userSpaceOnUse" x="0" y="0" width="375" height="156"><path transform="matrix(-1 0 0 1 375 0)" fill="#F5FCFF" d="M0 0h375v156H0z"/></mask><g mask="url(#a)"><path d="M481.001-5.706L374.813.097 176.849 20.841l-36.882 21.902 167.705 97.683 140.778 13.258 32.551-159.39z" fill="#00AD00"/><path d="M437.509-7.297S75.411 4.265 51.072 44.358C21.095 93.745 318.26 226.2 318.26 226.2l250.865-59.442s-397.638-99.299-379.744-129.2C208.081 6.31 578.295-2.295 578.295-2.295L437.509-7.297z" fill="#fff"/><path d="M346.422 206.702S52.672 89.192 79.234 44.358C103.14 4.01 465.671-5.998 465.671-5.998l81.019 1.535S176.252 6.173 157.777 37.553c-19.75 33.549 379.744 144.365 379.744 144.365l-191.099 24.784z" fill="#004EBB"/></g><path d="M141.165 92.852c-1.585.91-1.549 2.325.085 3.146l15.129 9.682 80.111 40.308c1.634.821 4.327.801 6.123.441 6.814-1.383 16.86-4.493 22.215-7.077 1.645-.797 4.027-2.322 5.5-3.405 2.479-1.82 6.62-5.747 8.064-8.72.796-1.646 1.015-3.021-.619-3.846l-98.435-49.537c-1.634-.82-4.267-.752-5.852.158l-32.321 18.85z" fill="#0032A5"/><path d="M143.499 75.43c-.494-2.843 1.5-4.885 1.5-4.885s1.124-3.296 4.089-6.904c2.964-3.603 14.081-9.997 17.236-11.311 3.15-1.315 6.665-1.476 8.392-1.238 1.73.239 9.811 2.787 9.811 2.787s9.787.78 17.911 4.012c8.125 3.23 16.929 8.088 23.452 11.562 3.802 2.022 10.77 7.316 15.926 11.376l.603-.384s-.502-2.374-.388-2.795c.113-.424 1.326-3.397 1.326-3.397s1.48 1.5 1.933 2.742c.453 1.242-.327 3.114-.57 4.024-.138.518-.445 1.132-.679 1.57-.004-.005-.013-.009-.017-.013a370.392 370.392 0 0 1 4.251 3.442c8.974 3.522 20.536 13.499 20.536 13.499 2.208.113 3.733 4.279 5.322 7.118 1.594 2.843 1.509 4.756 1.464 5.589-.048.833 1.06 12.759-8.618 19.46-9.682 6.697-21.232 8.194-26.376 7.846a25.763 25.763 0 0 1-5.852-1.088c-.202-.966-.388-1.872-.429-2.503-.311-5.193-4.933-11.401-9.665-13.577-6.127-2.818-8.982.045-8.667 5.242.033.513.186 1.326.393 2.18l-46.674-23.505c-.206-1.108-.429-2.245-.538-2.932-.768-4.728-4.457-10.054-8.566-12.517-6.567-3.935-8.529-.198-7.825 4.954v.008c-2.329-2.119-6.196-5.666-8.173-7.671-2.953-2.99-2.722-7.276-2.944-8.796-.223-1.521 1.836-3.895 1.836-3.895z" fill="#14AFEB"/><path d="M141.659 79.325c.222 1.52-.008 5.807 2.944 8.796 1.981 2.006 5.844 5.552 8.173 7.671v-.008c-.708-5.152 1.258-8.893 7.825-4.954 4.109 2.463 7.802 7.79 8.566 12.517.113.687.336 1.824.538 2.932l46.674 23.505c-.207-.854-.364-1.667-.393-2.18-.311-5.197 2.544-8.06 8.667-5.241 4.732 2.175 9.354 8.383 9.665 13.576.037.631.227 1.537.429 2.503 1.472.457 3.478.926 5.852 1.088 5.144.348 16.694-1.148 26.376-7.846 8.784-6.078 8.683-16.459 8.626-18.955-.813 4.271-2.968 9.617-8.877 13.682-6.106 4.202-10.87 6.462-20.884 6.867-5.9.234-9.855-1.549-12.072-2.386l-.028-.441c2.216.837 6.123 1.812 12.023 1.577 10.018-.4 14.778-2.665 20.884-6.863 5.949-4.092 8.093-9.479 8.894-13.766.028.15.048.291.068.429.021-.971-.105-2.73-1.48-5.189-.445-.797-.886-1.695-1.334-2.58-1.036 1.759-1.711.893-1.711.893-.053 1.917-.841 4.599-1.331 5.496-.489.898-2.018 4.049-6.288 7.094-4.267 3.045-9.112 4.655-11.882 5.544-2.77.89-5.407.785-5.407.785-3.252 1.634-6.572.227-6.572.227-.772-1.517-4.072-3.341-6.547-4.574-1.343-.672-3.713-2.059-5.86-3.422-1.804-1.144-2.864-1.905-2.864-1.905-5.39-3.457-7.489-6.276-7.489-6.276-4.101-7.146-11.85-17.2-11.85-17.2-5.641-6.968-16.278-11.736-23.407-15.238-5.088-2.5-12.723-2.204-19.133-2.435l-7.595-.396s-7.704-2.059-7.854-6.111c-1.424 2.293-2.006 3.996-2.006 3.996s-1.994 2.046-1.5 4.885c0 0 3.284 6.98 6.608 11.045 0 0-6.079-4.797-8.295-8.263-.133.397-.202.78-.153 1.12zm61.107 23.027c1.99-.453 3.171-1.165 3.927-.493l2.212 2.014s1.157 1.128.34 1.662-3.539.699-5.775.833c-2.237.133-2.411-1.897-2.455-2.224-.049-.332-.235-1.339 1.751-1.792z" fill="#0082C8"/><path d="M173.434 76.409c.416-.07.833-.114 1.249-.138 6.297-.38 12.667 3.607 14.854 4.829 3.515 1.957 10.111 5.504 13.921 9.948 4.658 5.432 3.558 4.99 10.607 17.047 0 0-1.997-1.007-4.929-2.5.036-.02.076-.036.109-.06.817-.534-.34-1.663-.34-1.663l-2.212-2.014c-.756-.667-1.933.041-3.911.49-5.152-2.645-10.834-5.597-14.179-7.445-7.239-4.008-25.797-14.378-25.797-14.378s3.939-3.029 10.628-4.117z" fill="#0082C8"/><path d="M219.719 122.702l2.16-1.282c.837.17 1.759.477 2.774.946 4.732 2.176 9.354 8.384 9.666 13.577.036.63.226 1.536.428 2.503h.008l-3.805 2.265c-1.302.784-3.134.752-5.209-.284-4.287-2.143-7.991-7.752-8.278-12.532-.158-2.601.728-4.421 2.256-5.193z" fill="#192D4B"/><path d="M221.879 121.416l-2.16 1.282c-1.533.773-2.418 2.592-2.261 5.193.029.497.098 1.003.199 1.512l-1.278.38c-.207-.853-.364-1.666-.393-2.179-.262-4.332 1.683-7.041 5.893-6.188z" fill="#004687"/><path d="M217.459 127.891c.287 4.78 3.995 10.393 8.278 12.533 4.287 2.139 7.53 0 7.243-4.78-.287-4.781-3.995-10.394-8.282-12.533-4.283-2.14-7.526 0-7.239 4.78z" fill="#192D4B"/><path d="M217.916 128.343c.267 4.408 3.684 9.585 7.635 11.558 3.955 1.974 6.944.004 6.681-4.408-.267-4.408-3.684-9.584-7.639-11.558-3.952-1.974-6.94 0-6.677 4.408z" fill="#192D4B"/><path d="M219.756 129.359c.198 3.284 2.742 7.134 5.682 8.606 2.94 1.468 5.164 0 4.97-3.28-.198-3.284-2.742-7.134-5.682-8.602-2.944-1.476-5.169-.004-4.97 3.276z" fill="#0082C8"/><path d="M223.881 130.944c.056.959.8 2.079 1.658 2.512.857.428 1.508 0 1.448-.959-.057-.958-.801-2.083-1.659-2.511-.857-.429-1.504 0-1.447.958zM155.623 90.417l1.743-1.04c.922.24 1.998.709 3.236 1.453 4.109 2.463 7.801 7.789 8.565 12.516.113.688.336 1.824.538 2.932l.409.207-3.264 1.941c-1.302.785-3.134.752-5.209-.283-4.287-2.14-7.995-7.753-8.282-12.533-.154-2.6.732-4.416 2.264-5.193z" fill="#192D4B"/><path d="M153.359 95.61c.287 4.78 3.995 10.394 8.282 12.533 4.287 2.139 7.53.004 7.243-4.78-.287-4.78-3.996-10.394-8.282-12.533-4.287-2.14-7.531 0-7.243 4.78z" fill="#192D4B"/><path d="M153.816 96.063c.266 4.408 3.684 9.585 7.635 11.562 3.955 1.974 6.944 0 6.681-4.408-.267-4.408-3.684-9.584-7.64-11.558-3.951-1.978-6.939-.004-6.676 4.404z" fill="#192D4B"/><path d="M155.655 97.078c.199 3.28 2.742 7.134 5.682 8.606 2.945 1.468 5.165 0 4.971-3.28-.198-3.283-2.742-7.133-5.682-8.606-2.945-1.472-5.169-.004-4.971 3.28z" fill="#0082C8"/><path d="M159.752 98.647c.061.975.817 2.12 1.691 2.556.873.437 1.537 0 1.476-.974-.061-.975-.813-2.12-1.691-2.556-.873-.437-1.532 0-1.476.974z" fill="#192D4B"/><path d="M157.366 89.382l-1.743 1.04c-1.532.772-2.418 2.592-2.264 5.188 0 .02.004.045.004.065l-.587.117v-.008c-.574-4.181.615-7.429 4.59-6.402z" fill="#004687"/><path d="M219.723 80.683c4.809-3.364 10.074-7.857 10.074-7.857s8.331 5.544 11.049 7.716c4.068 3.251 7.429 5.476 7.429 5.476.449.178.91.372 1.371.578 3.923 2.972-2.556 9.184-7.555 12.958-4.998 3.769-13.184 8.128-18.049 9.038-.501.093-.97.15-1.415.178-3.854.231-5.496-1.828-5.496-1.828-3.733-6.543-11.898-17.39-11.898-17.39s9.682-5.504 14.49-8.869zM156.21 69.538c1.637-2.48 8.072-7.118 11.436-9.265 2.407-1.537 6.301-4.117 10.972-5.484a22.055 22.055 0 0 1 4.902-.878c.331-.02.667-.032 1.007-.032 0 0 4.812.384 10.486 1.727 0 0-7.809 4.287-11.315 6.762-3.507 2.47-10.272 7.886-11.037 8.642 0 0-1.221 1.504-2.487 1.577-1.266.077-14.013-.586-14.013-.586s-1.589.016.049-2.463z" fill="#0082C8"/><path d="M220.002 81.08c4.141-2.896 8.667-6.67 9.827-7.644 1.525 1.02 8.331 5.59 10.705 7.49 4.04 3.227 7.433 5.48 7.466 5.5l.044.028.049.02c.048.02.105.045.157.065.413.8.72 1.856.34 2.912-.772 2.156-4.715 6.212-8.549 8.743-3.705 2.443-10.766 8.097-20.112 9.836-1.516-.425-2.265-1.209-2.402-1.367-3.288-5.747-10.013-14.854-11.578-16.957 2.022-1.165 9.896-5.715 14.053-8.627zM188.017 80.954c.433.239.813.453 1.132.62-1.197 3.243-2.341 9.3-2.746 11.55a11779.57 11779.57 0 0 1-14.235-7.931l2.616-8.436c5.173-.284 10.41 2.628 13.233 4.197zM173.514 76.89c.106-.016.211-.029.32-.045l-2.601 7.826c-3.409-1.901-6.244-3.486-7.497-4.186 1.346-.861 4.8-2.787 9.778-3.595zM170.141 72.102c.858-.053 1.832-1.028 2.136-1.4l.016-.02.02-.016c.809-.805 7.474-6.414 11.097-8.699 7.118-4.49 9.29-5.387 11.199-6.454-5.047-1.165-9.322-1.57-9.993-1.626-1.169.161-2.686.493-4.68.93-4.861 1.197-8.99 3.923-11.651 5.625l-.38.243c-3.781 2.414-9.783 6.839-11.291 9.12-.821 1.241-.643 1.613-.639 1.625.036.07.174.081.174.081h.032c4.404.235 12.982.651 13.96.59z" fill="#94DAEE"/><path d="M272.661 115.318s-1.585-6.645-1.699-7.369c-.113-.724 1.084-5.023-2.03-8.42 2.006.239 3.446 3.814 4.902 6.56.101 2.05.153 6.64-1.173 9.229zM253.492 128.469s-1.844-1.783-3.462-3.008c-1.614-1.226-2.665-1.602-4.748-1.626-2.079-.02-5.306.073-6.891-.247-1.585-.319-2.871-.562-3.883-.695-1.011-.138-1.844-.158-1.164.974.679 1.132 1.52 3.547 4.008 4.238 2.487.692 3.829.789 6.939.813 3.11.029 9.201-.449 9.201-.449z" fill="#E1E8EC"/><path d="M258.466 127.689c.433-.025.866-.13 1.29-.308l.348-.145c1.945-.821 4.36-1.844 6.519-3.664 1.848-1.561 3.078-2.77 3.757-3.701.599-.821.846-1.686.748-2.649-.093-.905-.392-3.676-.566-5.249-.72 1.108-1.998 2.981-3.377 4.538-1.168 1.318-3.631 3.716-7.02 4.994-.235.089-.469.182-.704.279-.23.093-.461.186-.691.271a79.81 79.81 0 0 1-6.758 2.196l4.493 2.993c-.004.004.801.514 1.961.445zM243.608 136.343c1.354-.166 4.853-.502 6.527-.797.275-.048.546-.141.651.623.109.764-.954.922-.954.922-1.468.218-2.839.392-3.725.437 0 0-2.649.19-2.896.202-.307.012-.534-.162-.534-.162-.125-.485.081-1.12.931-1.225zM258.721 133.641l.335.829s.32.465 1.266-.004c.943-.469 4.813-2.552 7.053-4.226 1.662-1.242 3.175-2.883 3.458-3.239.283-.356.546-1.262.558-1.59.012-.327.202-.958-.526-.113s-3.324 3.053-5.059 4.206c-1.735 1.153-6.082 3.341-6.822 3.624.004.004-.405.161-.263.513z" fill="#006399"/><path d="M144.878 70.682s-.474 1.08.477 2.172c.95 1.092 3.065 2.968 3.065 2.968s.534.21-.445 1.4c-.978 1.189-1.1 1.197-1.1 1.197s-.145.17-.38.182c-.178.012-.404-.07-.655-.385-.582-.727-1.767-1.852-2.337-2.79-.425-2.406.946-4.242 1.375-4.744z" fill="#0082C8"/><path d="M206.693 101.858c-.66-.582-1.638-.117-3.195.308-4.364-2.237-9.18-4.732-12.658-6.605.056-4.38.408-10.478.55-12.828 5.225 2.811 9.24 5.771 11.691 8.63 3.054 3.564 3.608 4.57 5.666 8.323.008.013.012.025.02.037l-.157 3.878-1.917-1.743z" fill="#94DAEE"/><path d="M216.783 99.89l4.837 2.066c.178-1.185.655-2.916.117-6.026-.53-3.057-2.075-5.184-2.075-5.184s.061-2.528-1.007-5.529a5.364 5.364 0 0 0-1.5-2.244c-.845.542-1.739 1.1-2.641 1.654l2.269 15.262z" fill="#D4CDBF"/><path d="M229.522 85.124s.271-2.337-.796-5.334c-.607-1.703-1.634-2.766-2.496-3.405-1.832 1.46-4.08 3.195-6.224 4.7a82.333 82.333 0 0 1-2.843 1.888 5.376 5.376 0 0 1 1.501 2.244c1.067 3.001 1.007 5.529 1.007 5.529l9.851-5.622z" fill="url(#paint0_linear)"/><path d="M221.737 95.934c-.53-3.057-2.075-5.184-2.075-5.184l9.856-5.622s1.25 1.901 2.087 4.57c.534 1.699.736 4.821.558 6.002l-10.543 6.26c.178-1.185.659-2.92.117-6.026z" fill="url(#paint1_linear)"/><path d="M241.125 97.439c-2.285-.93-5.225-1.86-6.334-2.083-1.945-.392-2.64.328-2.64.328l-10.487 6.224c.218 1.132 2.447 2.891 4.703 4.238 6.164-2.439 10.879-6.111 13.674-7.955.364-.234.724-.49 1.084-.752z" fill="url(#paint2_linear)"/><path d="M208.513 93.196l3.575-2.038s.23-2.006-.684-4.578l-.024-.057c-2.415 1.44-4.522 2.653-5.431 3.18.469.626 1.403 1.888 2.564 3.493z" fill="url(#paint3_linear)"/><path d="M212.087 91.158l-3.575 2.038a276.644 276.644 0 0 1 5.197 7.417l.647-.384c.15-1.015-.02-3.692-.477-5.148-.72-2.289-1.792-3.923-1.792-3.923z" fill="url(#paint4_linear)"/><path d="M217.405 106.445c3.406-2.063 7.268-4.542 7.369-5.027.174-.829-7.045-3.139-8.901-3.494-1.857-.352-2.52.295-2.52.295l-.922.518c1.828 2.652 3.656 5.427 4.974 7.708z" fill="url(#paint5_linear)"/><path d="M230.04 90.034s2.794.736 4.546 2.147c1.751 1.412 4.064 4.117 4.064 4.117l-1.687 2.633s-5.896-2.888-7.522-3.761c-1.625-.874-3.029-3.547-3.029-3.547l3.628-1.59z" fill="#014B89"/><path d="M228.054 90.875s.922 1.553.854 2.014c-.069.461.299 1.343.299 1.343s2.831 2.155 3.619 3.267c.789 1.117 1.549 2.851 1.335 2.868-.214.016-3.223 1.229-3.223 1.229s-2.645-2.81-4.21-3.595c-1.565-.78-3.919-2.273-4.489-4.877l5.815-2.249z" fill="#1A64A3"/><path d="M238.075 84.93s.017.004.041.004c.186.028.954.138 1.298.219.392.093.619-.029 1.116.545.498.579.473.967.453 1.355-.024.389-.153.967-.279 1.1-.125.134-.178.267-.36.235-.182-.032-.263-.126-.251-.113.009.012-.242-.004-.226-.267.016-.26.158-.825.158-.825l-.146-.465s-.36-.247-.465-.215c-.105.033-1.108.081-1.108.081s-1.403.101-1.933-.036c-.534-.138-5.071-1.274-5.492-1.553-.417-.283-1.998-2.314-2.661-2.977-.663-.663-.902-2.887-1.286-3.005-.38-.113-1.262-.056-1.262-.056l-.667-1.343s1.86-1.868 3.037-.914c1.177.95 1.569 1.52 1.763 1.776.194.254 2.18 3.805 2.73 4.21.554.404 4.149 1.981 4.715 1.973.405 0 .825.271.825.271z" fill="#F2A983"/><path d="M227.933 80.826s1.933 2.3 2.519 2.685c.583.384 1.351-.51 1.206 0-.146.51.036 1.023.238 1.132.202.11 4.505 1.19 4.801 1.278.295.09 1.399-.667 1.961-.327a.924.924 0 0 1 .425.946c-.328.024-.773.045-.773.045s-1.403.1-1.933-.037c-.534-.137-5.071-1.274-5.492-1.553-.416-.283-1.998-2.313-2.661-2.976-.194-.194-.352-.522-.489-.89l.198-.303z" fill="#D88F69"/><path d="M226.295 76.43s1.189-.474 2.063.29c.873.769 2.527 3.212 2.527 3.212s-1.698 2.636-2.98 2.98c-1.286.344-1.61-6.483-1.61-6.483z" fill="#F6C100"/><path d="M227.136 79.681c.226-.465 1.476-.388 1.808.567.198.578.441 1.104.602 1.427-.521.574-1.116 1.1-1.642 1.242-.538.141-.958-.955-1.274-2.281.235-.45.433-.813.506-.955z" fill="#DDA800"/><path d="M223.577 80.652c1.788.328 3.013.243 3.264-.732.251-.975-.813-3.021-.813-3.021l-.32-.101a142.39 142.39 0 0 1-3.494 2.685c.178.514.562 1.023 1.363 1.169z" fill="#D88F69"/><path d="M227.832 86.204c-.028-.368-.235-2.086-.235-2.086.332-.445.874-1.679.773-3.709-.101-2.03-1.395-3.822-1.395-3.822s-.478-.097-.866-.109c-.137.11-.283.223-.424.336.012.012.016.024.028.036.566.643.942 2.41-.17 3-.991.527-1.864-.064-2.402-.606l-.263-.263c-.95.716-1.921 1.428-2.875 2.095-.437.308-.914.631-1.424.967.17 2.09 2.285 5.637 2.718 6.35.501.824 1.181 5.378 1.181 5.378.675-.57 3.312-.947 5.5-1.61 2.192-.663 2.394-2.171 2.394-2.171s-.538-.292-.87-.62c-.327-.323-1.638-2.798-1.67-3.166z" fill="#F6C100"/><path d="M226.283 77.918c.74-.182.522-.813.526-1.278.004-.239.036-.51.068-.777-.764.615-1.621 1.294-2.531 1.998.695.166 1.435.182 1.937.057z" fill="#F2A983"/><path d="M226.643 77.744c.299-.271.166-.74.17-1.104.004-.239.036-.51.068-.777-.016.012-.028.025-.044.037.028.15.032.34-.182.36-.235.02-.093.428-.101.691 0 .142.028.49.089.793z" fill="#D88F69"/><path d="M221.911 84.287c-.105 1.096-.036 1.678.453 2.596.485.918.421 1.796 1.266 2.285.845.49 1.589-.028 2.447 0 .857.024.788-.012.695.566-.093.575-.044.922.672.716.719-.21 1.73-.546 1.532-.069-.157.385-2.099 1.517-2.721 2.253-.579.141-1.145.271-1.659.396a55.069 55.069 0 0 1-2.313-.469c-.238-1.411-.651-3.607-.982-4.157-.462-.76-2.662-4.004-2.544-6.006l2.374-.279c0-.008.885 1.072.78 2.168z" fill="#DDA800"/><path d="M234.194 94.337c.457 0 1.002-.142 1.609-.437 2.095-1.023 4.125-3.526 4.53-5.593.287-1.468-.32-2.317-1.452-2.317-.457 0-1.003.141-1.61.437-2.095 1.023-4.125 3.526-4.529 5.593-.287 1.468.323 2.317 1.452 2.317zm-.53-2.144c.339-1.718 2.111-3.894 3.874-4.755.453-.223.87-.336 1.201-.336.259 0 .445.069.558.206.174.21.215.627.118 1.137-.34 1.718-2.112 3.894-3.875 4.756-.453.222-.869.34-1.201.34-.259 0-.445-.07-.558-.207-.174-.214-.218-.63-.117-1.14z" fill="#39464A"/><path d="M248.591 89.451c.376-1.043.076-2.086-.328-2.883-3.005-.032-9.443 4.497-15.768 8.266-6.127 3.652-12.517 8.954-15.125 11.55.052.093.109.186.157.275.138.158.886.943 2.403 1.367 9.346-1.739 16.407-7.388 20.111-9.835 3.834-2.528 7.777-6.584 8.55-8.74z" fill="url(#paint6_linear)"/><path d="M247.017 91.947c-.339-2.014-1.751-3.818-1.751-3.818s-3.102-2.297-8.088 0c-4.987 2.297-5.747 7.239-5.747 7.239v.097c2.944 1.395 6.499 2.337 9.775 1.909 2.232-1.634 4.388-3.668 5.811-5.427z" fill="url(#paint7_linear)"/><path d="M224.475 100.124s-.461-2.867 2.819-4.626c3.28-1.76 5.88-.441 5.88-.441s4.141 2.835-.91 5.565c-5.047 2.729-7.789-.498-7.789-.498z" fill="url(#paint8_linear)"/><path d="M221.798 93.075c.251.275 1.108.955 1.278 1.408.17.453.384 1.14.307 1.605-.077.47-.04 1.076-.287 1.145-.247.069-.364.02-.364.02s-.02.32-.34.307c-.315-.012-.275-.141-.275-.141s-.258.198-.4.154c-.142-.045-.202-.542-.202-.542s-.227-1.17-.271-1.27c-.041-.101-.251-.66-.259-.465-.008.19.202.926.247 1.172.044.247.214.66.068.692-.145.028-.481-.376-.582-.724-.101-.348-.51-1.144-.518-1.383-.008-.234.126-1.217-.052-1.468-.178-.25-2.022-1.97-2.499-3.03-.478-1.063-.486-1.083-.567-1.564-.068-.417.146-.959.146-.959s.243-2.855.639-3.623c.396-.769.619-1.258.639-1.493.02-.234.206-1.168.942-1.261.736-.093 2.156 1.189 2.196 1.698.041.51-.57 1.064-.833 1.666-.263.603-.857 4.049-.857 4.049s1.387 3.506 1.844 4.007z" fill="#F2A983"/><path d="M223.096 97.233c-.246.068-.364.02-.364.02s-.02.32-.339.307c-.316-.012-.275-.141-.275-.141s-.259.198-.401.153c-.141-.044-.202-.541-.202-.541s-.166-.854-.243-1.165c.061-.194.579-.037.579-.037s.109-.1.348-.206c.238-.105.546-.04.546-.04s.137-.04.497-.166a.458.458 0 0 1 .101-.024c.049.25.073.493.04.7-.076.46-.04 1.07-.287 1.14zM220.467 95.805c.259 0 .502.028.619.04.057.24.122.49.146.615.044.247.214.66.069.692-.146.028-.482-.376-.583-.724-.044-.15-.149-.384-.251-.623z" fill="#D88F69"/><path d="M221.778 81.89c-.207-.688-.615-1.088-1.048-1.323-.242.174-.485.348-.724.514-.614.428-1.314.897-2.058 1.383-.231 1.051-.174 2.022-.174 2.022 1.646-.38 3.349.643 3.349.643s1.079-1.828.655-3.24z" fill="#F6C100"/><path d="M196.352 85.69a63.015 63.015 0 0 0-4.897-2.92l-.069.04c-.125 2.055-.396 6.758-.505 10.79l5.779-3.43c.129-.877.02-2.98-.308-4.48z" fill="url(#paint9_linear)"/><path d="M204.137 92.614c-.316-.38-.663-.793-1.052-1.246-.877-1.023-1.953-2.054-3.215-3.09-.821-.259-1.52-.453-1.933-.538-1.67-.335-2.265.284-2.265.284l-4.699 2.79a189.17 189.17 0 0 0-.137 4.756c1.423.768 3.077 1.638 4.828 2.556 1.877-1.116 6.059-3.773 8.473-5.512z" fill="url(#paint10_linear)"/><path d="M199.814 98.651s.053-2.171-.861-4.743c-1.024-2.876-3.939-3.13-3.939-3.13l1.124 7.582c1.565.817 3.203 1.666 4.824 2.499-.537-1.362-1.148-2.208-1.148-2.208z" fill="#D4CDBF"/><path d="M206.046 95.097c-.724-1.048-1.589-2.132-2.96-3.733-.918-1.068-2.051-2.152-3.385-3.236l-4.687 2.65s2.915.25 3.939 3.13c.914 2.572.861 4.743.861 4.743l6.232-3.554z" fill="url(#paint11_linear)"/><path d="M206.693 101.859l1.917 1.747.158-3.879a.138.138 0 0 0-.021-.036c-1.136-2.07-1.815-3.304-2.705-4.594l-6.232 3.555s.611.845 1.144 2.208l2.54 1.306c1.561-.425 2.54-.89 3.199-.307z" fill="url(#paint12_linear)"/><path d="M198.419 88.371c.259.303.287 1.925.283 2.738.073-.012.145-.032.218-.06l2.443-1.46a34.057 34.057 0 0 0-3.009-2.492c-.611.368-1.096.66-1.246.748.441-.076 1.003.162 1.311.526z" fill="url(#paint13_linear)"/><path d="M197.113 87.841c.436-.068.995.166 1.306.53.259.304.287 1.925.283 2.738a1.366 1.366 0 0 1-.518-.012s-1.48-.797-1.682-1.156c-.202-.36.562-2.067.562-2.067s.02-.016.049-.032z" fill="#D4CDBF"/><path d="M208.707 101.252l-1.622.962 1.529 1.392.093-2.354z" fill="url(#paint14_linear)"/><path d="M180.681 82.508c-1.024-2.876-3.939-3.13-3.939-3.13l1.35 9.119c1.776.99 3.531 1.97 5.165 2.875-.502-2.446-1.715-4.12-1.715-4.12s.053-2.172-.861-4.744z" fill="#D4CDBF"/><path d="M188.611 83.22l-7.069 4.031s1.209 1.679 1.715 4.121l3.146 1.751c.344-1.908 1.217-6.555 2.208-9.904z" fill="url(#paint15_linear)"/><path d="M188.611 83.22c.178-.595.356-1.157.538-1.647-.319-.165-.7-.376-1.132-.618-1.828-1.02-4.679-2.597-7.866-3.507l-3.413 1.93s2.915.25 3.939 3.13c.914 2.572.861 4.743.861 4.743l7.073-4.032z" fill="url(#paint16_linear)"/><path d="M180.317 77.497c.105.63.117 1.63.117 2.208.073-.012.146-.033.218-.061l2.14-1.278a25.885 25.885 0 0 0-2.475-.87z" fill="url(#paint17_linear)"/><path d="M178.234 78.536c.202.36 1.682 1.157 1.682 1.157s.235.06.518.012c0-.582-.012-1.577-.117-2.208-.579-.17-1.165-.32-1.764-.437-.202.526-.44 1.254-.319 1.476z" fill="#D4CDBF"/><path opacity=".45" d="M188.017 80.954c.433.239.813.453 1.132.62-1.197 3.243-2.341 9.3-2.746 11.55a11779.57 11779.57 0 0 1-14.235-7.931l2.616-8.436c5.173-.284 10.41 2.628 13.233 4.197zM220.002 81.08c4.141-2.896 8.667-6.67 9.827-7.644 1.525 1.02 8.331 5.59 10.705 7.49 4.04 3.227 7.433 5.48 7.466 5.5l.044.028.049.02c.048.02.105.045.157.065.413.8.72 1.856.34 2.912-.772 2.156-4.715 6.212-8.549 8.743-3.705 2.443-10.766 8.097-20.112 9.836-1.516-.425-2.265-1.209-2.402-1.367-3.288-5.747-10.013-14.854-11.578-16.957 2.022-1.165 9.896-5.715 14.053-8.627zM206.693 101.858c-.66-.582-1.638-.117-3.195.308-4.364-2.237-9.18-4.732-12.658-6.605.056-4.38.408-10.478.55-12.828 5.225 2.811 9.24 5.771 11.691 8.63 3.054 3.564 3.608 4.57 5.666 8.323.008.013.012.025.02.037l-.157 3.878-1.917-1.743z" fill="#94DAEE"/><path d="M293.878 46.352h-2.737v53.759h2.737v-53.76zM353.572 48.375h-2.737v53.759h2.737V48.375z" fill="#5F6464"/><path d="M360.465 22.07h-76.93c-2.5 0-4.535 2.015-4.535 4.491V70.19c0 2.477 2.035 4.492 4.535 4.492h76.93c2.5 0 4.535-2.015 4.535-4.492V26.561c0-2.476-2.035-4.492-4.535-4.492z" fill="#004EBB"/><path d="M360.465 23.423c1.742 0 3.17 1.413 3.17 3.14V70.19c0 1.726-1.426 3.14-3.17 3.14h-76.93c-1.742 0-3.17-1.412-3.17-3.14V26.562c0-1.725 1.426-3.14 3.17-3.14h76.93v.002zm0-1.354h-76.93c-2.5 0-4.535 2.016-4.535 4.492V70.19c0 2.477 2.035 4.492 4.535 4.492h76.93c2.5 0 4.535-2.015 4.535-4.492V26.561c0-2.476-2.035-4.492-4.535-4.492z" fill="#fff"/><g clip-path="url(#clip0)"><path d="M292.819 35.009l-1.639-6.897h1.668l.522 2.844c.151.82.297 1.707.409 2.404h.02c.112-.746.278-1.575.449-2.424l.585-2.824h1.658l.551 2.907c.152.81.269 1.546.371 2.312h.02c.102-.766.258-1.575.399-2.395l.561-2.824h1.586l-1.781 6.897h-1.687l-.586-2.965a25.39 25.39 0 0 1-.326-2.127h-.02a26.644 26.644 0 0 1-.4 2.127l-.653 2.965h-1.707zM304.89 32.092h-2.536v1.639h2.834v1.278h-4.4v-6.897h4.258v1.278h-2.692v1.434h2.536v1.268zM306.251 28.112h1.565v5.59h2.742v1.312h-4.307v-6.902zM316.157 34.814c-.288.141-.932.297-1.771.297-2.385 0-3.614-1.482-3.614-3.448.005-2.351 1.683-3.663 3.77-3.663.81 0 1.425.166 1.698.307l-.317 1.24a3.385 3.385 0 0 0-1.312-.26c-1.239 0-2.2.747-2.2 2.283 0 1.38.819 2.254 2.209 2.254.469 0 .995-.103 1.298-.225l.239 1.215zM323.19 31.487c0 2.263-1.371 3.634-3.39 3.634-2.048 0-3.243-1.546-3.243-3.512 0-2.068 1.322-3.614 3.355-3.614 2.122.005 3.278 1.59 3.278 3.492zm-4.985.093c0 1.351.634 2.302 1.678 2.302 1.054 0 1.658-1.005 1.658-2.341 0-1.239-.595-2.302-1.668-2.302-1.053 0-1.668 1.005-1.668 2.341zM330.043 32.37c-.03-.829-.064-1.834-.064-2.833h-.029a39.095 39.095 0 0 1-.766 2.672l-.839 2.693h-1.219l-.736-2.673c-.225-.81-.459-1.79-.625-2.692h-.019c-.039.931-.073 1.994-.122 2.853l-.122 2.619h-1.444l.439-6.897h2.078l.673 2.302c.215.8.429 1.659.585 2.468h.03c.195-.8.429-1.707.653-2.477l.737-2.293h2.033l.381 6.897h-1.527l-.097-2.639zM336.969 32.092h-2.537v1.639h2.834v1.278h-4.399v-6.897h4.258v1.278h-2.693v1.434h2.537v1.268zM341.329 29.424h-1.853v-1.312h5.301v1.312h-1.882v5.59h-1.566v-5.59zM351.625 31.487c0 2.263-1.37 3.634-3.39 3.634-2.048 0-3.243-1.546-3.243-3.512 0-2.068 1.322-3.614 3.356-3.614 2.121.005 3.277 1.59 3.277 3.492zm-4.985.093c0 1.351.634 2.302 1.678 2.302 1.054 0 1.659-1.005 1.659-2.341 0-1.239-.595-2.302-1.668-2.302-1.054 0-1.669 1.005-1.669 2.341z" fill="#fff"/><path d="M329.829 50.743a8.965 8.965 0 1 0-16.66-6.625 8.965 8.965 0 0 0 16.66 6.625z" fill="#E1E3E5"/><path d="M321.498 57.06c-5.312 0-9.633-4.322-9.633-9.634 0-5.311 4.321-9.633 9.633-9.633 5.311 0 9.632 4.322 9.632 9.633 0 5.312-4.321 9.633-9.632 9.633z" fill="#fff"/><path d="M321.498 57.06c-5.312 0-9.633-4.322-9.633-9.634 0-5.311 4.321-9.633 9.633-9.633 5.311 0 9.632 4.322 9.632 9.633 0 5.312-4.321 9.633-9.632 9.633zm0-18.598c-4.941 0-8.965 4.019-8.965 8.964 0 4.946 4.019 8.965 8.965 8.965 4.945 0 8.964-4.02 8.964-8.965s-4.019-8.964-8.964-8.964z" fill="#CB1122"/><path d="M322.595 43.52l.005-.312-.615-.732-.273.117-.185-.4h-4.951l-.253.313s-.537.078-.893.234c-.361.156-.468.204-.79.429-.322.224-.79.332-.751 1.078.039.75.683.853.829.863.146.01.449.137.654.556.204.42.214.459.243.712.03.254.166.468.605 1.02.439.555.829.77 1.02.902.195.136.721.605 1.517 1.439 0 0 .185.156.331.595.146.439.507.931.654 1.087.146.156.653.361.79.99.136.634.049.664.351 1 .302.342.332.703.42.883.087.186.517.468.736.556.219.088.571.059.727-.136.156-.195.361-.752.941-.893l.088-.449s1.244-.487 1.907-.97c.663-.488 1.01-1.166 1.01-1.166s1.087-.585 1.292-1.644c.205-1.058.854-2.024 1.995-2.14l-3.804-3.937h-3.6v.005z" fill="#0674CE"/><path d="M322.176 53.967h-.693l-.229-.731-.234.731h-.693l.566.41-.21.663.571-.404.566.404-.21-.663.566-.41z" fill="#CB1122"/><path d="M290.609 61.166c0 .195-.078.293-.234.293a.195.195 0 0 1-.161-.073.83.83 0 0 1-.117-.24 27.492 27.492 0 0 1-.146-.428 17.267 17.267 0 0 0-.234-.64c-.137-.321-.288-.555-.449-.711-.166-.156-.415-.234-.756-.234-.381 0-.683.136-.917.404-.234.273-.351.634-.351 1.093 0 .214.024.39.073.536.049.147.136.293.268.434.132.147.312.308.537.478.229.176.526.395.892.654.283.205.546.405.79.605.249.2.464.414.654.639.19.229.341.473.449.741.112.268.165.566.165.893 0 .35-.063.692-.195 1.024a2.507 2.507 0 0 1-.59.892 2.932 2.932 0 0 1-.975.635c-.39.16-.839.239-1.351.239a4.2 4.2 0 0 1-.62-.05 3.394 3.394 0 0 1-.648-.16 1.837 1.837 0 0 1-.508-.264.438.438 0 0 1-.185-.346c0-.541.005-.966.015-1.273.009-.307.029-.532.058-.683.029-.15.064-.244.107-.278a.236.236 0 0 1 .152-.049c.078 0 .131.02.165.064a.569.569 0 0 1 .088.224c.025.108.054.249.093.42.039.175.112.395.219.653.176.444.391.78.649 1.005.259.224.576.337.951.337.434 0 .795-.147 1.083-.444.288-.298.429-.688.429-1.17 0-.425-.097-.786-.292-1.079a3.195 3.195 0 0 0-.722-.766c-.288-.219-.6-.424-.937-.619a5.686 5.686 0 0 1-.936-.663 3.5 3.5 0 0 1-.722-.864c-.195-.331-.293-.74-.293-1.234 0-.292.059-.575.176-.848a2.3 2.3 0 0 1 .502-.742c.22-.219.483-.395.8-.531a2.635 2.635 0 0 1 1.054-.205c.522 0 .956.039 1.302.117.346.078.541.156.59.234a.3.3 0 0 1 .063.176c.005.068.005.15.005.248v1.556h.01zM297.155 64.888c0 .463-.069.912-.21 1.336-.142.424-.337.8-.581 1.127a2.85 2.85 0 0 1-.878.77c-.341.19-.712.283-1.121.283-.405 0-.781-.092-1.122-.283a2.751 2.751 0 0 1-.878-.77 3.83 3.83 0 0 1-.58-1.127 4.196 4.196 0 0 1-.21-1.336c0-.464.068-.912.21-1.337.141-.424.336-.8.58-1.126a2.86 2.86 0 0 1 .878-.771c.341-.19.712-.283 1.122-.283.405 0 .78.093 1.121.283.342.19.635.444.878.77.249.327.439.703.581 1.127.141.425.21.873.21 1.337zm-2.79 3.17c.234 0 .439-.102.624-.307.185-.205.337-.459.458-.77.122-.313.215-.654.278-1.025.064-.376.093-.732.093-1.068 0-.342-.029-.698-.093-1.069a5.026 5.026 0 0 0-.278-1.024 2.452 2.452 0 0 0-.458-.77c-.185-.205-.395-.308-.624-.308-.234 0-.439.103-.625.308a2.471 2.471 0 0 0-.458.77 5.204 5.204 0 0 0-.278 1.024 6.353 6.353 0 0 0-.093 1.069c0 .341.029.697.093 1.068.063.375.156.717.278 1.024.122.312.273.566.458.77.181.206.391.308.625.308zM302.31 67.126c0 .156.039.259.117.307.078.05.18.088.307.117l.254.05c.073.014.107.043.107.092 0 .078-.034.122-.102.132-.069.01-.186.039-.351.087a20.96 20.96 0 0 1-.517.176c-.21.068-.381.151-.517.249a.422.422 0 0 1-.22.073c-.058 0-.093-.03-.102-.088a1.23 1.23 0 0 1-.015-.205v-.58c0-.117-.039-.176-.117-.176-.039 0-.107.049-.21.151a4.992 4.992 0 0 1-.385.342 3.06 3.06 0 0 1-.537.341 1.457 1.457 0 0 1-.668.151c-.492 0-.883-.146-1.165-.443-.283-.298-.42-.771-.42-1.434v-4.083c0-.214-.058-.346-.18-.395a1.246 1.246 0 0 0-.371-.088 1.477 1.477 0 0 1-.22-.044c-.068-.019-.102-.068-.102-.146 0-.127.073-.19.22-.19h1.614c.097 0 .161.02.19.059.029.038.044.107.044.204v4.61c0 .424.083.736.254.931.17.195.419.293.751.293.331 0 .605-.112.819-.342.22-.229.327-.512.327-.848v-4.03c0-.214-.059-.345-.18-.394a1.25 1.25 0 0 0-.371-.088 1.464 1.464 0 0 1-.22-.044c-.068-.02-.102-.068-.102-.146 0-.127.073-.19.219-.19h1.615c.097 0 .161.02.19.058.029.04.044.107.044.205v5.326zM304.793 61.6h.931c.078 0 .127.02.146.05.02.033.03.097.03.194 0 .098-.01.161-.03.195-.019.035-.068.05-.146.05h-.858c-.03 0-.049.009-.059.029a.126.126 0 0 0-.014.058v4.463c0 .322.034.546.107.683.073.136.18.204.327.204.097 0 .18-.034.253-.107.073-.073.137-.151.191-.239.053-.088.102-.166.151-.239.048-.073.097-.107.146-.107.088 0 .132.063.132.19 0 .059-.03.161-.088.312a1.975 1.975 0 0 1-.263.464 1.793 1.793 0 0 1-.435.42 1.03 1.03 0 0 1-.609.18.949.949 0 0 1-.532-.137 1.039 1.039 0 0 1-.341-.38 1.736 1.736 0 0 1-.181-.552 4.237 4.237 0 0 1-.049-.678v-4.33c0-.157-.053-.235-.16-.235h-.396c-.068 0-.107-.01-.121-.03-.015-.019-.02-.053-.02-.102 0-.087.063-.17.195-.253.132-.083.327-.264.59-.546.186-.205.327-.39.42-.561.097-.171.175-.322.234-.449.058-.132.107-.234.146-.307.039-.073.093-.108.161-.108.098 0 .146.074.146.22V61.6h-.004zM310.592 63.273c0-.405-.083-.707-.254-.892a.83.83 0 0 0-.649-.283c-.59 0-1.009.366-1.248 1.092v4.044c0 .097.005.175.014.239.01.063.035.117.078.16a.68.68 0 0 0 .191.123c.083.039.19.082.326.131.137.05.205.108.205.176a.234.234 0 0 1-.034.122c-.024.034-.068.049-.136.049-.137 0-.308-.01-.508-.03a8.113 8.113 0 0 0-.756-.029c-.234 0-.453.01-.663.03-.21.019-.371.029-.488.029-.156 0-.234-.054-.234-.161 0-.098.103-.171.307-.22.196-.049.327-.112.4-.19.074-.078.108-.244.108-.493v-7.56a1.34 1.34 0 0 0-.044-.395.394.394 0 0 0-.117-.19.345.345 0 0 0-.166-.073l-.181-.03a1.235 1.235 0 0 1-.19-.033c-.048-.015-.073-.054-.073-.122 0-.069.025-.117.073-.147a.714.714 0 0 1 .22-.073c.244-.049.444-.112.609-.19a3.44 3.44 0 0 0 .415-.224c.112-.074.205-.132.283-.18a.462.462 0 0 1 .249-.074c.078 0 .117.068.117.205v4.433h.029c.283-.37.561-.653.834-.848.278-.2.571-.298.878-.298.224 0 .429.03.624.093s.366.166.507.312c.147.146.259.336.342.566.083.234.122.517.122.858v4.16c0 .118.044.215.132.293.087.078.258.156.507.234.117.03.175.093.175.19 0 .108-.063.162-.19.162-.088 0-.224-.01-.414-.03a8.854 8.854 0 0 0-.834-.03c-.176 0-.352.01-.532.03-.181.02-.356.03-.532.03-.175 0-.263-.05-.263-.147 0-.058.015-.097.044-.122a.639.639 0 0 1 .205-.078c.224-.068.365-.132.419-.19.059-.059.088-.17.088-.337v-4.092h.005zM317.323 63.536c0 .756.058 1.415.18 1.976.122.56.283 1.029.478 1.394.2.371.429.644.693.82.263.18.531.268.814.268.127 0 .254-.02.385-.063.132-.044.259-.122.381-.24a1.85 1.85 0 0 0 .336-.463c.103-.195.191-.438.269-.74.087-.333.156-.586.204-.767.049-.18.088-.312.122-.4.035-.087.064-.136.088-.15a.177.177 0 0 1 .093-.02c.058 0 .107.01.146.029.039.02.068.078.088.18.02.103.029.264.034.488.005.225.01.532.01.932 0 .38-.015.639-.044.785a.586.586 0 0 1-.176.337c-.107.097-.341.204-.697.326-.361.122-.78.18-1.263.18a3.096 3.096 0 0 1-1.546-.39 3.765 3.765 0 0 1-1.171-1.053 4.864 4.864 0 0 1-.736-1.536 6.324 6.324 0 0 1-.259-1.834c0-.737.098-1.4.293-1.985.195-.586.458-1.088.79-1.498.336-.41.727-.726 1.17-.946.444-.22.927-.327 1.439-.327.766 0 1.371.142 1.819.42a.84.84 0 0 1 .093.078c.025.024.039.073.049.146.01.073.015.18.019.327a17.27 17.27 0 0 1 0 1.23 1.975 1.975 0 0 1-.034.336c-.019.073-.049.117-.088.136a.323.323 0 0 1-.146.03c-.068 0-.136-.06-.205-.176-.068-.117-.175-.38-.322-.785a5.382 5.382 0 0 0-.307-.708 1.529 1.529 0 0 0-.297-.41.766.766 0 0 0-.313-.18 1.326 1.326 0 0 0-.351-.044c-.658 0-1.165.342-1.521 1.02-.342.682-.517 1.775-.517 3.277zM326.429 66.722c0 .292.053.487.161.595.107.107.214.16.321.16a.258.258 0 0 0 .191-.073c.048-.048.092-.102.131-.16a2.29 2.29 0 0 1 .117-.162.18.18 0 0 1 .147-.073c.088 0 .131.059.131.176a.81.81 0 0 1-.107.38 1.545 1.545 0 0 1-.292.38 1.827 1.827 0 0 1-.405.293.99.99 0 0 1-.459.118c-.234 0-.419-.054-.561-.166a1.291 1.291 0 0 1-.326-.371 3.956 3.956 0 0 1-.191-.37c-.048-.113-.092-.166-.131-.166-.049 0-.113.058-.191.175a3.235 3.235 0 0 1-.321.395 2.242 2.242 0 0 1-.508.395 1.431 1.431 0 0 1-.726.176c-.381 0-.678-.103-.893-.308-.22-.204-.327-.521-.327-.96 0-.264.073-.513.225-.751.151-.24.341-.464.565-.678.23-.215.473-.415.737-.605.263-.19.507-.37.736-.537.23-.17.415-.336.566-.492.151-.161.224-.317.224-.473V62.37c0-.195-.053-.351-.161-.463-.107-.117-.258-.176-.448-.176a.984.984 0 0 0-.737.327c-.209.22-.336.522-.385.907-.039.322-.132.57-.278.756-.146.185-.356.278-.624.278-.176 0-.308-.044-.395-.132a.474.474 0 0 1-.132-.35c0-.147.068-.337.21-.576.141-.24.336-.474.59-.708.253-.234.556-.434.917-.604.361-.171.756-.254 1.19-.254.561 0 .941.068 1.141.205.2.136.298.4.298.785v4.356zm-1.195-2.01c0-.088-.01-.141-.034-.166-.025-.024-.059-.034-.108-.034s-.156.064-.322.195a4.192 4.192 0 0 0-.522.508 3.8 3.8 0 0 0-.492.697 1.67 1.67 0 0 0-.234.766.9.9 0 0 0 .175.566.568.568 0 0 0 .478.234.89.89 0 0 0 .786-.42c.185-.283.278-.751.278-1.41v-.936h-.005zM330.013 67.068c0 .263.044.453.137.58.093.127.249.205.473.234.273.04.434.069.493.093.058.024.088.063.088.122 0 .03-.015.059-.035.088-.024.029-.063.044-.122.044-.126 0-.312-.01-.551-.03-.244-.02-.58-.029-1.019-.029-.38 0-.688.01-.922.03-.239.019-.424.029-.561.029-.127 0-.19-.04-.19-.117 0-.059.024-.103.078-.132.054-.03.171-.064.356-.103.224-.048.361-.117.415-.21.053-.092.078-.258.078-.502V63.02c0-.166-.054-.269-.166-.313a1.67 1.67 0 0 0-.342-.092 2.577 2.577 0 0 1-.239-.059c-.063-.02-.092-.058-.092-.117 0-.058.014-.097.049-.122a.867.867 0 0 1 .18-.088c.088-.034.205-.078.351-.136.147-.059.327-.146.537-.264.146-.087.258-.16.341-.224.083-.063.146-.117.195-.16.049-.045.083-.079.108-.103a.102.102 0 0 1 .078-.034c.068 0 .102.117.102.35v1.137c0 .04.01.059.029.059.01 0 .054-.078.137-.234.083-.156.195-.327.341-.508.147-.185.317-.35.508-.507.195-.156.414-.234.668-.234a.84.84 0 0 1 .648.278.933.933 0 0 1 .254.654c0 .234-.063.448-.19.653-.127.205-.303.307-.522.307-.176 0-.302-.039-.381-.117a.728.728 0 0 1-.175-.322 1.415 1.415 0 0 1-.078-.385c-.005-.112-.068-.166-.195-.166a.496.496 0 0 0-.351.151c-.108.103-.2.24-.278.415a2.773 2.773 0 0 0-.181.605c-.044.23-.063.468-.063.722v2.902h.009zM338.012 64.888c0 .463-.068.912-.209 1.336-.142.424-.337.8-.581 1.127-.249.326-.541.58-.878.77-.341.19-.712.283-1.122.283-.409 0-.78-.092-1.121-.283a2.751 2.751 0 0 1-.878-.77 3.856 3.856 0 0 1-.581-1.127 4.223 4.223 0 0 1-.209-1.336c0-.464.068-.912.209-1.337.142-.424.337-.8.581-1.126.248-.327.541-.58.878-.771.341-.19.712-.283 1.121-.283.405 0 .781.093 1.122.283.342.19.634.444.878.77.249.327.439.703.581 1.127.141.425.209.873.209 1.337zm-2.79 3.17c.235 0 .439-.102.625-.307.185-.205.336-.459.458-.77.122-.313.215-.654.278-1.025.064-.376.093-.732.093-1.068 0-.342-.029-.698-.093-1.069a5.026 5.026 0 0 0-.278-1.024 2.471 2.471 0 0 0-.458-.77c-.186-.205-.395-.308-.625-.308-.234 0-.438.103-.624.308a2.471 2.471 0 0 0-.458.77 5.204 5.204 0 0 0-.278 1.024 6.353 6.353 0 0 0-.093 1.069c0 .341.029.697.093 1.068.063.375.156.717.278 1.024.122.312.273.566.458.77.181.206.39.308.624.308z" fill="#fff"/><path d="M339.934 67.141c0 .273.054.449.166.532.112.083.263.15.458.21.156.048.264.077.327.087.064.01.093.054.093.132 0 .088-.073.132-.22.132-.205 0-.439-.01-.707-.03-.268-.02-.527-.029-.775-.029-.215 0-.439.01-.678.03-.239.019-.43.029-.576.029-.078 0-.146-.01-.21-.02-.063-.015-.092-.054-.092-.122 0-.088.097-.156.292-.205.156-.039.283-.078.381-.117a.52.52 0 0 0 .224-.16.535.535 0 0 0 .103-.269c.014-.112.019-.254.019-.43v-7.418c0-.175-.039-.302-.117-.385a.588.588 0 0 0-.307-.166 2.596 2.596 0 0 1-.278-.058c-.069-.02-.103-.069-.103-.147 0-.078.03-.127.093-.146.063-.02.132-.039.21-.059.312-.087.561-.17.756-.248.195-.078.351-.147.463-.205.117-.059.2-.107.249-.146.049-.04.083-.059.102-.059.078 0 .117.068.117.205v9.062h.01zM343.753 67.228c0 .225.039.386.117.479.078.097.22.156.42.175.224.03.336.088.336.176a.18.18 0 0 1-.044.122c-.029.034-.097.048-.205.048-.136 0-.302-.01-.502-.029-.2-.02-.449-.03-.751-.03-.322 0-.59.01-.815.03a6.38 6.38 0 0 1-.507.03c-.156 0-.234-.054-.234-.162 0-.058.029-.102.093-.136a.88.88 0 0 1 .209-.078 6.23 6.23 0 0 0 .352-.103.57.57 0 0 0 .204-.107.354.354 0 0 0 .103-.175c.019-.074.029-.171.029-.298v-4.219c0-.195-.049-.312-.146-.356a1.756 1.756 0 0 0-.366-.107c-.078-.02-.141-.034-.195-.049-.054-.015-.078-.059-.078-.137 0-.078.024-.126.073-.15a.935.935 0 0 1 .205-.064c.283-.069.517-.147.707-.234a5.74 5.74 0 0 0 .459-.234c.117-.069.204-.127.268-.176.063-.049.107-.073.136-.073.088 0 .132.068.132.205v5.652zm-1.234-7.486a.92.92 0 0 1 .181-.576.575.575 0 0 1 .487-.239c.205 0 .366.078.488.24a.92.92 0 0 1 .18.575.92.92 0 0 1-.18.575.577.577 0 0 1-.488.24.574.574 0 0 1-.487-.24.92.92 0 0 1-.181-.575zM349.343 63.273c0-.424-.083-.731-.254-.907a.85.85 0 0 0-.649-.268c-.283 0-.527.092-.741.278-.215.185-.385.453-.507.814v4.044c0 .224.039.375.122.458.082.083.2.146.356.195.146.049.239.083.278.108.039.024.058.053.058.092 0 .098-.058.147-.175.147-.137 0-.308-.01-.508-.03a8.124 8.124 0 0 0-.756-.03c-.234 0-.453.01-.663.03-.21.02-.371.03-.488.03-.156 0-.234-.054-.234-.161 0-.098.103-.171.307-.22.196-.049.327-.112.4-.19.074-.078.108-.244.108-.493v-4.072c0-.225-.02-.361-.064-.415a.515.515 0 0 0-.239-.137 1.164 1.164 0 0 0-.307-.044c-.088 0-.132-.038-.132-.117a.14.14 0 0 1 .059-.117.714.714 0 0 1 .166-.087c.073-.03.165-.064.278-.108.112-.044.239-.102.385-.18.205-.117.361-.215.463-.293.108-.078.186-.141.239-.19.054-.049.093-.083.117-.102.025-.02.059-.03.108-.03.078 0 .117.078.117.234v1.005h.029c.117-.146.234-.288.351-.42.117-.136.239-.258.371-.37.132-.112.278-.2.434-.263.161-.064.346-.093.561-.093.453 0 .834.137 1.141.415.307.278.459.75.459 1.419v4.16c0 .147.034.264.107.352.073.087.195.146.371.175.146.03.239.059.278.093a.17.17 0 0 1 .058.136c0 .078-.063.117-.19.117-.088 0-.224-.01-.415-.029-.19-.02-.468-.03-.834-.03-.175 0-.351.01-.531.03-.181.02-.356.03-.532.03-.176 0-.263-.05-.263-.147 0-.058.014-.097.044-.122a.643.643 0 0 1 .204-.078c.225-.068.366-.132.42-.19.058-.059.088-.17.088-.337v-4.092h.005zM355.805 66.722c0 .292.054.487.161.595.107.107.215.16.322.16a.257.257 0 0 0 .19-.073c.049-.048.093-.102.132-.16a2.29 2.29 0 0 1 .117-.162.18.18 0 0 1 .146-.073c.088 0 .132.059.132.176a.81.81 0 0 1-.107.38 1.55 1.55 0 0 1-.293.38 1.827 1.827 0 0 1-.405.293.983.983 0 0 1-.458.118c-.234 0-.42-.054-.561-.166a1.28 1.28 0 0 1-.327-.371 3.703 3.703 0 0 1-.19-.37c-.049-.113-.093-.166-.132-.166-.049 0-.112.058-.19.175a3.254 3.254 0 0 1-.322.395 2.236 2.236 0 0 1-.507.395 1.433 1.433 0 0 1-.727.176c-.381 0-.678-.103-.893-.308-.219-.204-.326-.521-.326-.96 0-.264.073-.513.224-.751a3.6 3.6 0 0 1 .566-.678c.229-.215.473-.415.736-.605.264-.19.507-.37.737-.537.229-.17.414-.336.565-.492.152-.161.225-.317.225-.473V62.37c0-.195-.054-.351-.161-.463-.107-.117-.259-.176-.449-.176a.98.98 0 0 0-.736.327c-.21.22-.337.522-.386.907-.039.322-.131.57-.278.756-.146.185-.356.278-.624.278-.176 0-.307-.044-.395-.132a.474.474 0 0 1-.132-.35c0-.147.069-.337.21-.576.141-.24.337-.474.59-.708.254-.234.556-.434.917-.604.361-.171.756-.254 1.19-.254.561 0 .942.068 1.142.205.199.136.297.4.297.785v4.356zm-1.19-2.01c0-.088-.01-.141-.034-.166-.025-.024-.059-.034-.107-.034-.049 0-.157.064-.322.195a4.124 4.124 0 0 0-.522.508c-.186.21-.351.438-.493.697a1.683 1.683 0 0 0-.234.766.9.9 0 0 0 .176.566.568.568 0 0 0 .478.234.89.89 0 0 0 .785-.42c.185-.283.278-.751.278-1.41v-.936h-.005z" fill="#fff"/></g><defs><linearGradient id="paint0_linear" x1="223.355" y1="90.746" x2="223.355" y2="76.384" gradientUnits="userSpaceOnUse"><stop offset=".003" stop-color="#C2B69C"/><stop offset=".505" stop-color="#E3DFD7"/><stop offset=".797" stop-color="#E6E6E6"/></linearGradient><linearGradient id="paint1_linear" x1="223.002" y1="89.08" x2="228.203" y2="98.088" gradientUnits="userSpaceOnUse"><stop stop-color="#E3DFD7"/><stop offset=".997" stop-color="#C2B69C"/></linearGradient><linearGradient id="paint2_linear" x1="221.664" y1="100.695" x2="241.123" y2="100.695" gradientUnits="userSpaceOnUse"><stop offset=".005" stop-color="#CCC1AB"/><stop offset=".182" stop-color="#D0C6B4"/><stop offset=".488" stop-color="#D3CBBC"/><stop offset=".997" stop-color="#D4CDBF"/></linearGradient><linearGradient id="paint3_linear" x1="205.95" y1="89.86" x2="212.114" y2="89.86" gradientUnits="userSpaceOnUse"><stop stop-color="#E3DFD7"/><stop offset=".997" stop-color="#C2B69C"/></linearGradient><linearGradient id="paint4_linear" x1="211.462" y1="100.614" x2="211.462" y2="91.158" gradientUnits="userSpaceOnUse"><stop offset=".003" stop-color="#C2B69C"/><stop offset="1" stop-color="#E3DFD7"/></linearGradient><linearGradient id="paint5_linear" x1="212.432" y1="102.133" x2="224.778" y2="102.133" gradientUnits="userSpaceOnUse"><stop offset=".003" stop-color="#C2B69C"/><stop offset="1" stop-color="#E3DFD7"/></linearGradient><linearGradient id="paint6_linear" x1="217.37" y1="97.297" x2="248.765" y2="97.297" gradientUnits="userSpaceOnUse"><stop offset=".003" stop-color="#389CC7"/><stop offset="1" stop-color="#2E7EC9"/></linearGradient><linearGradient id="paint7_linear" x1="231.433" y1="92.295" x2="247.019" y2="92.295" gradientUnits="userSpaceOnUse"><stop offset=".003" stop-color="#389CC7"/><stop offset="1" stop-color="#2E7EC9"/></linearGradient><linearGradient id="paint8_linear" x1="232.934" y1="95.71" x2="225.914" y2="100.965" gradientUnits="userSpaceOnUse"><stop stop-color="#2E7EC9"/><stop offset=".997" stop-color="#389CC7"/></linearGradient><linearGradient id="paint9_linear" x1="190.882" y1="88.186" x2="196.713" y2="88.186" gradientUnits="userSpaceOnUse"><stop stop-color="#E3DFD7"/><stop offset=".997" stop-color="#C2B69C"/></linearGradient><linearGradient id="paint10_linear" x1="190.84" y1="92.879" x2="204.138" y2="92.879" gradientUnits="userSpaceOnUse"><stop stop-color="#E3DFD7"/><stop offset=".997" stop-color="#C2B69C"/></linearGradient><linearGradient id="paint11_linear" x1="195.01" y1="93.391" x2="206.047" y2="93.391" gradientUnits="userSpaceOnUse"><stop offset=".203" stop-color="#E6E6E6"/><stop offset=".495" stop-color="#E3DFD7"/><stop offset=".997" stop-color="#C2B69C"/></linearGradient><linearGradient id="paint12_linear" x1="204.293" y1="103.604" x2="204.293" y2="95.097" gradientUnits="userSpaceOnUse"><stop stop-color="#E3DFD7"/><stop offset=".997" stop-color="#C2B69C"/></linearGradient><linearGradient id="paint13_linear" x1="197.114" y1="89.099" x2="201.366" y2="89.099" gradientUnits="userSpaceOnUse"><stop offset=".203" stop-color="#E6E6E6"/><stop offset=".495" stop-color="#E3DFD7"/><stop offset=".997" stop-color="#D4CDBF"/></linearGradient><linearGradient id="paint14_linear" x1="207.086" y1="102.428" x2="208.709" y2="102.428" gradientUnits="userSpaceOnUse"><stop stop-color="#E3DFD7"/><stop offset=".997" stop-color="#C2B69C"/></linearGradient><linearGradient id="paint15_linear" x1="181.543" y1="88.171" x2="188.612" y2="88.171" gradientUnits="userSpaceOnUse"><stop stop-color="#E3DFD7"/><stop offset=".997" stop-color="#C2B69C"/></linearGradient><linearGradient id="paint16_linear" x1="176.739" y1="82.351" x2="189.149" y2="82.351" gradientUnits="userSpaceOnUse"><stop offset=".203" stop-color="#E6E6E6"/><stop offset=".495" stop-color="#E3DFD7"/><stop offset=".997" stop-color="#C2B69C"/></linearGradient><linearGradient id="paint17_linear" x1="180.316" y1="78.599" x2="182.788" y2="78.599" gradientUnits="userSpaceOnUse"><stop offset=".203" stop-color="#E6E6E6"/><stop offset=".495" stop-color="#E3DFD7"/><stop offset=".997" stop-color="#D4CDBF"/></linearGradient><clipPath id="clip0"><path fill="#fff" transform="translate(286 28)" d="M0 0h71v40.409H0z"/></clipPath></defs></svg>