<svg width="1600" height="400" fill="none" xmlns="http://www.w3.org/2000/svg" viewBox="0 0 1600 400"><g filter="url(#filter0_d)"><path fill="#F5FCFF" d="M1600 0H0v400h1600z"/></g><mask id="a" maskUnits="userSpaceOnUse" x="623" y="0" width="977" height="400"><path transform="matrix(-1 0 0 1 1600 0)" fill="#F5FCFF" d="M0 0h977v400H0z"/></mask><g mask="url(#a)"><path d="M1811.84 8.011l-221.16 12.086-412.3 43.203-76.81 45.616 349.28 203.445 293.2 27.612 67.79-331.962z" fill="#00AD00"/><path d="M1721.26 4.697S967.115 28.777 916.425 112.28C853.991 215.137 1472.9 491 1472.9 491l522.48-123.8s-828.17-206.809-790.9-269.085c38.95-65.08 809.99-83 809.99-83L1721.26 4.696z" fill="#fff"/><path d="M1531.55 450.392S919.755 205.655 975.078 112.279C1024.87 28.243 1779.91 7.401 1779.91 7.401l168.74 3.197s-771.51 22.153-809.99 87.508c-41.13 69.872 790.89 300.67 790.89 300.67l-398 51.616z" fill="#004EBB"/></g><path d="M1088.02 206.807c-3.27 1.878-3.2 4.799.17 6.494l31.23 19.982 165.34 83.193c3.37 1.694 8.93 1.653 12.64.91 14.06-2.855 34.8-9.274 45.85-14.607 3.4-1.645 8.31-4.791 11.35-7.028 5.12-3.756 13.66-11.861 16.64-17.996 1.65-3.397 2.1-6.235-1.27-7.938l-203.17-102.24c-3.37-1.694-8.8-1.553-12.07.325l-66.71 38.905z" fill="#0032A5"/><path d="M1092.84 170.849c-1.02-5.868 3.09-10.083 3.09-10.083s2.32-6.802 8.44-14.248c6.12-7.437 29.06-20.633 35.57-23.346 6.51-2.713 13.76-3.046 17.32-2.554 3.58.493 20.25 5.751 20.25 5.751s20.2 1.611 36.97 8.28 34.94 16.694 48.41 23.864c7.84 4.173 22.22 15.099 32.86 23.479l1.25-.793s-1.04-4.899-.8-5.767c.23-.877 2.73-7.012 2.73-7.012s3.06 3.097 3.99 5.659c.94 2.563-.67 6.428-1.17 8.306-.29 1.068-.92 2.337-1.4 3.238-.01-.008-.03-.017-.04-.025 5.23 4.174 8.77 7.103 8.77 7.103 18.53 7.27 42.39 27.862 42.39 27.862 4.56.234 7.7 8.831 10.98 14.69 3.29 5.868 3.12 9.816 3.03 11.536-.1 1.719 2.18 26.334-17.79 40.165-19.98 13.822-43.82 16.91-54.44 16.192a53.15 53.15 0 0 1-12.08-2.245c-.41-1.995-.8-3.864-.88-5.167-.64-10.717-10.18-23.529-19.95-28.02-12.65-5.818-18.54.092-17.89 10.818.07 1.06.39 2.737.81 4.499l-96.33-48.512c-.42-2.287-.88-4.633-1.11-6.052-1.59-9.757-9.2-20.75-17.68-25.833-13.55-8.121-17.6-.409-16.15 10.225v.017c-4.81-4.374-12.79-11.694-16.87-15.834-6.09-6.169-5.62-15.016-6.07-18.155-.46-3.138 3.79-8.038 3.79-8.038z" fill="#14AFEB"/><path d="M1089.04 178.887c.46 3.139-.02 11.987 6.07 18.155 4.09 4.14 12.07 11.46 16.87 15.834v-.017c-1.46-10.634 2.6-18.355 16.15-10.225 8.48 5.083 16.1 16.076 17.68 25.834.24 1.419.7 3.764 1.11 6.051l96.33 48.512c-.42-1.761-.75-3.439-.81-4.499-.64-10.726 5.25-16.635 17.89-10.818 9.77 4.491 19.31 17.303 19.95 28.021.08 1.302.47 3.171.88 5.166 3.04.944 7.18 1.912 12.08 2.246 10.62.718 34.46-2.371 54.44-16.193 18.13-12.545 17.92-33.972 17.8-39.122-1.67 8.815-6.12 19.849-18.32 28.238-12.6 8.672-22.43 13.338-43.1 14.172-12.18.485-20.34-3.196-24.92-4.924l-.05-.91c4.57 1.728 12.63 3.739 24.81 3.255 20.68-.826 30.5-5.5 43.1-14.164 12.28-8.447 16.71-19.565 18.36-28.413.06.309.1.601.14.885.04-2.003-.22-5.634-3.05-10.709-.92-1.644-1.83-3.497-2.76-5.325-2.14 3.631-3.53 1.844-3.53 1.844-.11 3.957-1.74 9.491-2.75 11.344-1.01 1.853-4.16 8.355-12.97 14.64s-18.81 9.607-24.53 11.443c-5.72 1.837-11.16 1.62-11.16 1.62-6.71 3.372-13.56.467-13.56.467-1.6-3.13-8.41-6.894-13.51-9.44-2.78-1.386-7.67-4.249-12.1-7.061-3.72-2.363-5.91-3.932-5.91-3.932-11.12-7.136-15.46-12.954-15.46-12.954-8.46-14.749-24.45-35.499-24.45-35.499-11.65-14.382-33.6-24.223-48.31-31.451-10.5-5.158-26.26-4.549-39.49-5.025l-15.68-.818s-15.9-4.248-16.21-12.612c-2.94 4.733-4.14 8.247-4.14 8.247s-4.11 4.223-3.09 10.083c0 0 6.77 14.406 13.63 22.795 0 0-12.54-9.899-17.12-17.053-.27.818-.41 1.611-.31 2.312zm126.12 47.527c4.1-.935 6.54-2.404 8.1-1.018l4.57 4.157s2.39 2.328.7 3.43c-1.69 1.102-7.3 1.444-11.92 1.72-4.62.275-4.97-3.915-5.07-4.591-.1-.684-.48-2.763 3.62-3.698z" fill="#0082C8"/><path d="M1154.62 172.869c.86-.142 1.72-.233 2.58-.284 12.99-.784 26.14 7.446 30.66 9.967 7.25 4.039 20.86 11.36 28.73 20.533 9.61 11.21 7.34 10.3 21.89 35.182 0 0-4.12-2.079-10.18-5.159.08-.041.16-.075.23-.125 1.69-1.102-.7-3.43-.7-3.43l-4.57-4.157c-1.56-1.377-3.99.083-8.07 1.01-10.63-5.459-22.36-11.552-29.26-15.367-14.94-8.271-53.25-29.673-53.25-29.673s8.13-6.251 21.94-8.497z" fill="#0082C8"/><path d="M1250.15 268.415l4.45-2.646c1.73.35 3.64.985 5.73 1.953 9.77 4.491 19.31 17.303 19.95 28.02.07 1.302.47 3.172.88 5.167h.02l-7.85 4.674c-2.69 1.619-6.47 1.553-10.75-.584-8.85-4.424-16.5-16.001-17.09-25.867-.33-5.367 1.5-9.123 4.66-10.717z" fill="#192D4B"/><path d="M1254.61 265.761l-4.46 2.646c-3.17 1.594-4.99 5.35-4.67 10.717.06 1.027.2 2.07.41 3.122l-2.64.784c-.42-1.761-.75-3.439-.81-4.499-.54-8.939 3.48-14.532 12.17-12.77z" fill="#004687"/><path d="M1245.48 279.124c.59 9.866 8.25 21.451 17.09 25.867 8.85 4.415 15.54 0 14.95-9.866-.6-9.866-8.25-21.452-17.1-25.867-8.84-4.416-15.53 0-14.94 9.866z" fill="#192D4B"/><path d="M1246.43 280.058c.55 9.098 7.6 19.782 15.75 23.855 8.17 4.074 14.34.009 13.79-9.098-.55-9.098-7.6-19.782-15.76-23.855s-14.33 0-13.78 9.098z" fill="#192D4B"/><path d="M1250.22 282.153c.41 6.778 5.66 14.724 11.73 17.762 6.07 3.03 10.66 0 10.26-6.769-.41-6.777-5.66-14.724-11.73-17.754-6.08-3.046-10.67-.008-10.26 6.761z" fill="#0082C8"/><path d="M1258.74 285.425c.11 1.979 1.65 4.291 3.42 5.184 1.77.885 3.11 0 2.99-1.978-.12-1.979-1.66-4.299-3.43-5.184-1.76-.885-3.1 0-2.98 1.978zM1117.86 201.782l3.6-2.145c1.9.492 4.12 1.46 6.67 2.996 8.48 5.083 16.1 16.076 17.68 25.834.24 1.419.7 3.764 1.11 6.051l.85.426-6.74 4.006c-2.69 1.62-6.47 1.553-10.75-.584-8.85-4.415-16.5-16.001-17.1-25.867-.31-5.367 1.52-9.115 4.68-10.717z" fill="#192D4B"/><path d="M1113.18 212.499c.6 9.866 8.25 21.452 17.1 25.867 8.85 4.416 15.54.009 14.95-9.866-.59-9.866-8.25-21.451-17.1-25.867-8.84-4.415-15.54 0-14.95 9.866z" fill="#192D4B"/><path d="M1114.13 213.434c.55 9.098 7.6 19.782 15.76 23.864 8.16 4.073 14.33 0 13.79-9.098-.56-9.098-7.61-19.782-15.77-23.856-8.16-4.081-14.32-.008-13.78 9.09z" fill="#192D4B"/><path d="M1117.93 215.53c.4 6.769 5.65 14.723 11.72 17.762 6.08 3.029 10.66 0 10.26-6.77-.41-6.777-5.66-14.723-11.73-17.762-6.07-3.038-10.66-.008-10.25 6.77z" fill="#0082C8"/><path d="M1126.38 218.768c.13 2.011 1.69 4.374 3.49 5.275 1.8.901 3.17 0 3.05-2.012-.13-2.011-1.68-4.373-3.49-5.275-1.81-.901-3.17 0-3.05 2.012z" fill="#192D4B"/><path d="M1121.46 199.645l-3.6 2.146c-3.16 1.594-4.99 5.35-4.68 10.709 0 .041.01.091.01.133l-1.21.242v-.017c-1.18-8.63 1.27-15.333 9.48-13.213z" fill="#004687"/><path d="M1250.16 181.692c9.92-6.945 20.79-16.218 20.79-16.218s17.19 11.444 22.8 15.926c8.4 6.711 15.33 11.301 15.33 11.301.93.368 1.88.768 2.83 1.194 8.1 6.135-5.27 18.956-15.59 26.743-10.31 7.78-27.21 16.777-37.25 18.655-1.03.192-2 .309-2.92.368-7.96.475-11.34-3.773-11.34-3.773-7.71-13.505-24.56-35.891-24.56-35.891s19.98-11.36 29.91-18.305zM1119.07 158.688c3.38-5.116 16.66-14.69 23.6-19.122 4.97-3.172 13.01-8.497 22.65-11.319 3.21-.943 6.6-1.602 10.12-1.811a33.55 33.55 0 0 1 2.07-.067s9.94.793 21.65 3.564c0 0-16.12 8.848-23.36 13.956-7.23 5.1-21.2 16.277-22.78 17.838 0 0-2.52 3.105-5.13 3.255-2.61.158-28.92-1.21-28.92-1.21s-3.28.033.1-5.084z" fill="#0082C8"/><path d="M1250.73 182.51c8.55-5.977 17.89-13.764 20.28-15.776 3.15 2.104 17.2 11.535 22.1 15.458 8.34 6.661 15.34 11.31 15.41 11.352l.09.059.1.041.32.134c.86 1.653 1.49 3.831.71 6.01-1.6 4.448-9.74 12.82-17.65 18.045-7.65 5.042-22.22 16.711-41.51 20.3-3.13-.877-4.67-2.496-4.96-2.821-6.78-11.861-20.66-30.658-23.89-34.999 4.17-2.403 20.42-11.794 29-17.803zM1184.72 182.251c.89.493 1.67.935 2.33 1.277-2.47 6.694-4.83 19.198-5.66 23.839-8.2-4.558-19.68-10.951-29.38-16.368l5.4-17.412c10.67-.584 21.48 5.425 27.31 8.664zM1154.79 173.862c.21-.033.43-.058.65-.091l-5.36 16.151c-7.04-3.923-12.89-7.195-15.48-8.639 2.78-1.778 9.91-5.751 20.19-7.421zM1147.82 163.98c1.77-.109 3.79-2.12 4.41-2.888l.03-.042.05-.033c1.67-1.661 15.42-13.238 22.9-17.954 14.69-9.265 19.17-11.118 23.11-13.322-10.41-2.404-19.24-3.238-20.62-3.355-2.42.334-5.55 1.018-9.66 1.92-10.03 2.47-18.56 8.096-24.05 11.61l-.78.501c-7.81 4.983-20.19 14.114-23.31 18.822-1.69 2.562-1.32 3.33-1.32 3.355.08.142.36.167.36.167H1119.01c9.09.484 26.79 1.344 28.81 1.219z" fill="#94DAEE"/><path d="M1359.42 253.174s-3.28-13.714-3.51-15.208c-.23-1.494 2.24-10.367-4.19-17.378 4.14.492 7.11 7.871 10.12 13.538.21 4.232.31 13.706-2.42 19.048zM1319.85 280.318s-3.8-3.681-7.14-6.21c-3.33-2.529-5.5-3.305-9.8-3.355-4.29-.042-10.95.15-14.22-.51-3.28-.659-5.93-1.16-8.02-1.435-2.08-.284-3.8-.326-2.4 2.011s3.14 7.32 8.27 8.748c5.13 1.427 7.9 1.627 14.32 1.677 6.42.059 18.99-.926 18.99-.926z" fill="#E1E8EC"/><path d="M1330.12 278.707c.89-.05 1.78-.267 2.66-.634l.72-.301c4.01-1.694 9-3.806 13.45-7.562 3.82-3.222 6.36-5.718 7.76-7.637 1.23-1.695 1.74-3.481 1.54-5.468-.19-1.869-.81-7.587-1.17-10.834-1.48 2.287-4.12 6.152-6.97 9.365-2.41 2.721-7.49 7.671-14.49 10.309-.48.183-.96.375-1.45.576-.47.192-.95.384-1.43.559-5.65 2.145-11.21 3.781-13.94 4.532l9.27 6.177c-.01.008 1.65 1.06 4.05.918zM1299.45 296.569c2.8-.342 10.02-1.035 13.47-1.644.57-.101 1.13-.293 1.35 1.285.22 1.578-1.97 1.903-1.97 1.903-3.03.451-5.86.81-7.69.901 0 0-5.47.393-5.98.418-.63.025-1.1-.334-1.1-.334-.26-1.002.17-2.312 1.92-2.529zM1330.64 290.993l.7 1.711s.66.96 2.61-.008c1.94-.968 9.93-5.267 14.56-8.723 3.43-2.562 6.55-5.951 7.13-6.685.59-.735 1.13-2.605 1.16-3.281.02-.676.41-1.978-1.09-.233-1.5 1.744-6.86 6.301-10.44 8.68-3.58 2.379-12.56 6.895-14.08 7.479.01.008-.84.334-.55 1.06z" fill="#006399"/><path d="M1095.68 161.05s-.98 2.229.99 4.483c1.96 2.253 6.32 6.126 6.32 6.126s1.1.434-.91 2.888c-2.02 2.454-2.28 2.471-2.28 2.471s-.3.35-.78.375c-.37.025-.83-.142-1.35-.793-1.2-1.502-3.65-3.822-4.83-5.759-.87-4.966 1.96-8.756 2.84-9.791z" fill="#0082C8"/><path d="M1223.26 225.395c-1.36-1.201-3.38-.242-6.59.635-9.01-4.616-18.95-9.766-26.13-13.631.12-9.039.85-21.626 1.14-26.476 10.78 5.801 19.07 11.911 24.13 17.812 6.3 7.354 7.44 9.432 11.69 17.178.02.025.03.05.04.075l-.32 8.005-3.96-3.598z" fill="#94DAEE"/><path d="M1244.09 221.331l9.98 4.265c.37-2.445 1.35-6.018.24-12.436-1.09-6.311-4.28-10.701-4.28-10.701s.13-5.217-2.08-11.41a11.116 11.116 0 0 0-3.09-4.633 362.204 362.204 0 0 1-5.45 3.414l4.68 31.501z" fill="#D4CDBF"/><path d="M1270.38 190.857s.56-4.825-1.64-11.01c-1.26-3.514-3.38-5.709-5.15-7.028-3.78 3.014-8.43 6.594-12.85 9.699-1.7 1.194-3.71 2.521-5.87 3.898 1.23 1.094 2.36 2.579 3.1 4.633 2.2 6.193 2.08 11.41 2.08 11.41l20.33-11.602z" fill="url(#paint0_linear)"/><path d="M1254.31 213.168c-1.09-6.31-4.28-10.7-4.28-10.7l20.34-11.603s2.58 3.923 4.31 9.432c1.1 3.506 1.52 9.95 1.15 12.387l-21.76 12.921c.37-2.446 1.36-6.026.24-12.437z" fill="url(#paint1_linear)"/><path d="M1294.33 216.273c-4.72-1.919-10.79-3.839-13.07-4.298-4.02-.81-5.45.676-5.45.676l-21.65 12.845c.45 2.338 5.05 5.968 9.71 8.748 12.72-5.033 22.45-12.612 28.22-16.418a51.08 51.08 0 0 0 2.24-1.553z" fill="url(#paint2_linear)"/><path d="M1227.02 207.517l7.38-4.206s.47-4.14-1.41-9.449c-.02-.042-.04-.075-.05-.117-4.99 2.972-9.34 5.476-11.21 6.561.96 1.293 2.89 3.898 5.29 7.211z" fill="url(#paint3_linear)"/><path d="M1234.4 203.311l-7.38 4.206c3.11 4.307 7.03 9.825 10.72 15.308l1.34-.793c.31-2.095-.04-7.62-.99-10.625-1.48-4.724-3.69-8.096-3.69-8.096z" fill="url(#paint4_linear)"/><path d="M1245.37 234.861c7.03-4.257 15-9.373 15.21-10.375.36-1.711-14.54-6.477-18.37-7.212-3.83-.726-5.2.61-5.2.61l-1.9 1.068c3.77 5.476 7.54 11.201 10.26 15.909z" fill="url(#paint5_linear)"/><path d="M1271.45 200.99s5.77 1.519 9.38 4.432c3.61 2.913 8.39 8.497 8.39 8.497l-3.48 5.434s-12.17-5.959-15.53-7.762c-3.35-1.803-6.25-7.32-6.25-7.32l7.49-3.281z" fill="#014B89"/><path d="M1267.35 202.727s1.9 3.205 1.76 4.157c-.14.951.62 2.771.62 2.771s5.84 4.449 7.47 6.744c1.63 2.304 3.2 5.884 2.75 5.918-.44.033-6.65 2.537-6.65 2.537s-5.46-5.801-8.69-7.42c-3.23-1.611-8.09-4.691-9.26-10.066l12-4.641z" fill="#1A64A3"/><path d="M1288.03 190.457s.04.008.09.008c.38.059 1.97.284 2.68.451.81.192 1.27-.058 2.3 1.127 1.03 1.194.98 1.995.94 2.796-.05.801-.32 1.995-.58 2.27-.26.276-.37.551-.74.485-.38-.067-.55-.259-.52-.234.02.025-.5-.008-.47-.551.03-.534.33-1.703.33-1.703l-.3-.96s-.75-.509-.96-.442c-.22.067-2.29.167-2.29.167s-2.9.209-3.99-.075c-1.1-.284-10.47-2.629-11.34-3.205-.85-.585-4.12-4.775-5.49-6.144-1.37-1.369-1.86-5.959-2.65-6.201-.79-.234-2.61-.117-2.61-.117l-1.37-2.771s3.84-3.857 6.27-1.887c2.42 1.962 3.23 3.139 3.63 3.665.41.525 4.5 7.854 5.64 8.689 1.14.834 8.56 4.09 9.73 4.073.84 0 1.7.559 1.7.559z" fill="#F2A983"/><path d="M1267.1 181.985s3.99 4.75 5.2 5.543c1.2.793 2.79-1.052 2.49 0-.3 1.051.07 2.111.49 2.337.42.225 9.3 2.454 9.91 2.637.61.184 2.89-1.377 4.05-.676.69.418 1.01 1.236.87 1.953-.67.05-1.59.092-1.59.092s-2.9.209-3.99-.075c-1.1-.284-10.47-2.629-11.34-3.205-.86-.584-4.12-4.774-5.49-6.143-.4-.401-.73-1.077-1.01-1.837l.41-.626z" fill="#D88F69"/><path d="M1263.72 172.912s2.45-.976 4.26.601c1.8 1.586 5.21 6.627 5.21 6.627s-3.5 5.443-6.15 6.152c-2.65.71-3.32-13.38-3.32-13.38z" fill="#F6C100"/><path d="M1265.46 179.623c.46-.96 3.04-.801 3.73 1.169.41 1.193.91 2.278 1.24 2.946-1.08 1.185-2.3 2.27-3.39 2.562-1.11.293-1.98-1.969-2.63-4.707.49-.927.9-1.678 1.05-1.97z" fill="#DDA800"/><path d="M1258.11 181.626c3.69.676 6.22.501 6.74-1.51.51-2.012-1.68-6.235-1.68-6.235l-.66-.209a305.062 305.062 0 0 1-7.21 5.542c.36 1.06 1.16 2.112 2.81 2.412z" fill="#D88F69"/><path d="M1266.89 193.086c-.06-.759-.48-4.307-.48-4.307.68-.918 1.8-3.464 1.59-7.654-.21-4.19-2.88-7.888-2.88-7.888s-.98-.2-1.78-.225c-.29.225-.59.459-.88.693.02.025.03.05.06.075 1.17 1.327 1.94 4.975-.35 6.193-2.05 1.085-3.85-.133-4.96-1.252-.19-.192-.37-.367-.54-.542a207.423 207.423 0 0 1-5.94 4.323c-.9.635-1.88 1.302-2.94 1.995.35 4.316 4.72 11.636 5.61 13.105 1.04 1.702 2.44 11.101 2.44 11.101 1.39-1.177 6.84-1.953 11.35-3.322 4.53-1.369 4.94-4.482 4.94-4.482s-1.11-.601-1.79-1.277c-.68-.668-3.38-5.776-3.45-6.536z" fill="#F6C100"/><path d="M1263.69 175.984c1.53-.376 1.08-1.678 1.09-2.638.01-.492.07-1.052.14-1.603a416.142 416.142 0 0 1-5.22 4.124c1.43.342 2.96.375 3.99.117z" fill="#F2A983"/><path d="M1264.44 175.625c.62-.56.34-1.528.35-2.279.01-.492.07-1.052.14-1.603l-.09.076c.06.308.06.701-.38.742-.48.042-.19.885-.21 1.428 0 .292.06 1.01.19 1.636z" fill="#D88F69"/><path d="M1254.67 189.129c-.22 2.262-.07 3.464.94 5.359 1 1.895.86 3.706 2.61 4.716 1.74 1.01 3.28-.058 5.05 0 1.77.05 1.63-.025 1.43 1.169-.19 1.185-.09 1.903 1.39 1.477 1.49-.434 3.57-1.127 3.16-.142-.32.793-4.33 3.13-5.61 4.649-1.2.292-2.37.56-3.43.818-1.35-.233-3.03-.584-4.77-.968-.49-2.913-1.34-7.445-2.03-8.58-.95-1.57-5.49-8.264-5.25-12.395l4.9-.576c0-.017 1.83 2.212 1.61 4.473z" fill="#DDA800"/><path d="M1280.02 209.871c.94 0 2.07-.292 3.32-.901 4.33-2.112 8.52-7.278 9.35-11.544.59-3.03-.66-4.782-3-4.782-.94 0-2.07.292-3.32.901-4.32 2.112-8.51 7.278-9.35 11.544-.59 3.03.67 4.782 3 4.782zm-1.09-4.423c.7-3.548 4.35-8.038 7.99-9.816.94-.459 1.8-.693 2.48-.693.54 0 .92.142 1.15.426.36.434.45 1.293.25 2.345-.7 3.547-4.36 8.038-8 9.816-.93.459-1.79.701-2.48.701-.53 0-.92-.142-1.15-.426-.36-.442-.45-1.302-.24-2.353z" fill="#39464A"/><path d="M1309.74 199.789c.77-2.154.15-4.307-.68-5.952-6.2-.067-19.49 9.282-32.54 17.061-12.65 7.537-25.84 18.48-31.22 23.839.11.192.22.384.32.567.29.326 1.83 1.945 4.96 2.822 19.29-3.59 33.86-15.25 41.51-20.3 7.91-5.217 16.05-13.589 17.65-18.037z" fill="url(#paint6_linear)"/><path d="M1306.49 204.938c-.7-4.157-3.62-7.879-3.62-7.879s-6.4-4.741-16.69 0c-10.29 4.741-11.86 14.94-11.86 14.94v.201c6.08 2.879 13.41 4.824 20.17 3.939 4.61-3.372 9.06-7.57 12-11.201z" fill="url(#paint7_linear)"/><path d="M1259.96 221.816s-.95-5.918 5.82-9.549c6.77-3.631 12.14-.91 12.14-.91s8.54 5.852-1.88 11.486c-10.42 5.634-16.08-1.027-16.08-1.027z" fill="url(#paint8_linear)"/><path d="M1254.44 207.268c.52.567 2.29 1.969 2.64 2.904.35.935.79 2.354.63 3.314-.16.968-.08 2.22-.59 2.362-.51.142-.75.042-.75.042s-.05.659-.71.634c-.65-.025-.56-.292-.56-.292s-.54.409-.83.317c-.29-.092-.42-1.118-.42-1.118s-.46-2.412-.56-2.621c-.08-.209-.51-1.361-.53-.96-.02.392.42 1.911.51 2.421.09.509.44 1.36.14 1.427-.3.058-.99-.776-1.2-1.494-.21-.718-1.05-2.362-1.07-2.855-.02-.484.26-2.512-.11-3.03-.36-.517-4.17-4.065-5.16-6.251-.98-2.196-1-2.237-1.16-3.231-.15-.859.3-1.978.3-1.978s.5-5.893 1.31-7.479c.82-1.586 1.28-2.595 1.32-3.08.05-.484.43-2.412 1.95-2.604 1.52-.192 4.45 2.454 4.53 3.506.08 1.052-1.18 2.195-1.72 3.439-.54 1.243-1.77 8.355-1.77 8.355s2.86 7.237 3.81 8.272z" fill="#F2A983"/><path d="M1257.12 215.848c-.51.142-.75.042-.75.042s-.05.659-.7.634c-.66-.025-.57-.292-.57-.292s-.54.409-.83.317c-.29-.092-.42-1.118-.42-1.118s-.34-1.762-.5-2.404c.13-.401 1.2-.076 1.2-.076s.22-.208.71-.425c.5-.217 1.13-.084 1.13-.084s.29-.083 1.03-.342a.827.827 0 0 1 .21-.05c.1.518.15 1.018.08 1.444-.16.952-.08 2.212-.59 2.354zM1251.69 212.902c.54 0 1.04.058 1.28.083.12.493.25 1.01.3 1.269.09.509.44 1.361.14 1.427-.3.059-.99-.776-1.2-1.494-.09-.309-.31-.793-.52-1.285z" fill="#D88F69"/><path d="M1254.4 184.18c-.43-1.419-1.27-2.245-2.17-2.729-.5.359-1 .718-1.49 1.06-1.27.885-2.71 1.853-4.25 2.855-.47 2.17-.36 4.173-.36 4.173 3.4-.785 6.91 1.327 6.91 1.327s2.23-3.773 1.36-6.686z" fill="#F6C100"/><path d="M1201.92 192.024c-3.06-2.028-6.44-4.048-10.11-6.026l-.14.084c-.26 4.24-.82 13.947-1.04 22.269l11.92-7.078c.27-1.812.05-6.152-.63-9.249z" fill="url(#paint9_linear)"/><path d="M1217.99 206.314a210.95 210.95 0 0 0-2.17-2.57c-1.81-2.112-4.03-4.241-6.64-6.377-1.69-.535-3.14-.935-3.99-1.111-3.45-.692-4.67.585-4.67.585l-9.7 5.759c-.13 3.389-.24 6.794-.29 9.816 2.94 1.586 6.36 3.38 9.97 5.275 3.87-2.304 12.5-7.787 17.49-11.377z" fill="url(#paint10_linear)"/><path d="M1209.06 218.776s.11-4.482-1.77-9.791c-2.11-5.934-8.13-6.46-8.13-6.46l2.32 15.65c3.23 1.686 6.61 3.439 9.96 5.158-1.11-2.813-2.38-4.557-2.38-4.557z" fill="#D4CDBF"/><path d="M1221.93 211.439c-1.5-2.162-3.28-4.399-6.11-7.704-1.9-2.204-4.23-4.441-6.99-6.678l-9.67 5.467s6.02.518 8.13 6.461c1.88 5.308 1.77 9.791 1.77 9.791l12.87-7.337z" fill="url(#paint11_linear)"/><path d="M1223.26 225.395l3.96 3.606.32-8.005c0-.025-.02-.05-.04-.075-2.34-4.273-3.74-6.819-5.58-9.482l-12.86 7.337s1.26 1.745 2.36 4.557c1.76.91 3.52 1.812 5.24 2.696 3.22-.876 5.24-1.836 6.6-.634z" fill="url(#paint12_linear)"/><path d="M1206.19 197.558c.53.626.59 3.973.58 5.651.15-.025.3-.067.45-.125l5.04-3.013a70.578 70.578 0 0 0-6.21-5.142c-1.26.76-2.26 1.36-2.57 1.544.91-.158 2.07.334 2.71 1.085z" fill="url(#paint13_linear)"/><path d="M1203.49 196.465c.9-.142 2.05.342 2.7 1.094.53.626.59 3.973.58 5.65-.58.101-1.07-.025-1.07-.025s-3.05-1.644-3.47-2.387c-.42-.743 1.16-4.265 1.16-4.265s.04-.034.1-.067z" fill="#D4CDBF"/><path d="M1227.42 224.143l-3.35 1.987 3.16 2.871.19-4.858z" fill="url(#paint14_linear)"/><path d="M1169.58 185.457c-2.12-5.935-8.13-6.461-8.13-6.461l2.78 18.822c3.67 2.045 7.29 4.065 10.66 5.935-1.03-5.05-3.54-8.506-3.54-8.506s.11-4.482-1.77-9.79z" fill="#D4CDBF"/><path d="M1185.94 186.926l-14.59 8.322s2.5 3.464 3.54 8.505c2.31 1.285 4.5 2.504 6.5 3.614.71-3.94 2.51-13.53 4.55-20.441z" fill="url(#paint15_linear)"/><path d="M1185.94 186.926c.37-1.227.74-2.387 1.11-3.397-.66-.343-1.44-.777-2.33-1.277-3.78-2.104-9.66-5.359-16.24-7.237l-7.04 3.981s6.02.518 8.13 6.461c1.88 5.308 1.78 9.791 1.78 9.791l14.59-8.322z" fill="url(#paint16_linear)"/><path d="M1168.82 175.115c.22 1.302.25 3.363.25 4.557.15-.025.3-.067.45-.125l4.41-2.638a51.799 51.799 0 0 0-5.11-1.794z" fill="url(#paint17_linear)"/><path d="M1164.53 177.26c.41.743 3.47 2.387 3.47 2.387s.48.125 1.07.025c0-1.202-.03-3.255-.25-4.557-1.19-.351-2.4-.66-3.63-.902-.42 1.085-.91 2.588-.66 3.047z" fill="#D4CDBF"/><path opacity=".45" d="M1184.72 182.251c.89.493 1.67.935 2.33 1.277-2.47 6.694-4.83 19.198-5.66 23.839-8.2-4.558-19.68-10.951-29.38-16.368l5.4-17.412c10.67-.584 21.48 5.425 27.31 8.664zM1250.73 182.51c8.55-5.977 17.89-13.764 20.28-15.776 3.15 2.104 17.2 11.535 22.1 15.458 8.34 6.661 15.34 11.31 15.41 11.352l.09.059.1.041.32.134c.86 1.653 1.49 3.831.71 6.01-1.6 4.448-9.74 12.82-17.65 18.045-7.65 5.042-22.22 16.711-41.51 20.3-3.13-.877-4.67-2.496-4.96-2.821-6.78-11.861-20.66-30.658-23.89-34.999 4.17-2.403 20.42-11.794 29-17.803zM1223.26 225.395c-1.36-1.201-3.38-.242-6.59.635-9.01-4.616-18.95-9.766-26.13-13.631.12-9.039.85-21.626 1.14-26.476 10.78 5.801 19.07 11.911 24.13 17.812 6.3 7.354 7.44 9.432 11.69 17.178.02.025.03.05.04.075l-.32 8.005-3.96-3.598z" fill="#94DAEE"/><path d="M1420.28 120.415h-5.57v109.4h5.57v-109.4zM1541.76 124.532h-5.57v109.4h5.57v-109.4z" fill="#5F6464"/><path d="M1555.78 71h-156.55c-5.09 0-9.23 4.101-9.23 9.141v88.783c0 5.04 4.14 9.141 9.23 9.141h156.55c5.09 0 9.23-4.101 9.23-9.141V80.141c0-5.04-4.14-9.141-9.23-9.141z" fill="#004EBB"/><path d="M1555.78 73.755c3.55 0 6.45 2.874 6.45 6.39v88.782c0 3.512-2.9 6.389-6.45 6.389h-156.55c-3.55 0-6.45-2.874-6.45-6.389V80.141c0-3.512 2.9-6.389 6.45-6.389h156.55v.004zm0-2.755h-156.55c-5.09 0-9.23 4.101-9.23 9.141v88.783c0 5.04 4.14 9.141 9.23 9.141h156.55c5.09 0 9.23-4.101 9.23-9.141V80.141c0-5.04-4.14-9.141-9.23-9.141z" fill="#fff"/><g clip-path="url(#clip0)"><path d="M1419.36 96.37L1416 82.23h3.42l1.07 5.83c.31 1.68.61 3.5.84 4.93h.04c.23-1.53.57-3.23.92-4.97l1.2-5.79h3.4l1.13 5.96c.31 1.66.55 3.17.76 4.74h.04c.21-1.57.53-3.23.82-4.91l1.15-5.79h3.25l-3.65 14.14h-3.46l-1.2-6.08c-.27-1.43-.5-2.75-.67-4.36h-.04c-.25 1.59-.48 2.93-.82 4.36l-1.34 6.08h-3.5zM1444.11 90.39h-5.2v3.36h5.81v2.62h-9.02V82.23h8.73v2.62h-5.52v2.94h5.2v2.6zM1446.9 82.23h3.21v11.46h5.62v2.69h-8.83V82.23zM1467.21 95.97c-.59.29-1.91.61-3.63.61-4.89 0-7.41-3.04-7.41-7.07.01-4.82 3.45-7.51 7.73-7.51 1.66 0 2.92.34 3.48.63l-.65 2.54a6.96 6.96 0 0 0-2.69-.52c-2.54 0-4.51 1.53-4.51 4.68 0 2.83 1.68 4.62 4.53 4.62.96 0 2.04-.21 2.66-.46l.49 2.48zM1481.62 89.15c0 4.64-2.81 7.45-6.95 7.45-4.2 0-6.65-3.17-6.65-7.2 0-4.24 2.71-7.41 6.88-7.41 4.35.01 6.72 3.26 6.72 7.16zm-10.21.19c0 2.77 1.3 4.72 3.44 4.72 2.16 0 3.4-2.06 3.4-4.8 0-2.54-1.22-4.72-3.42-4.72-2.16 0-3.42 2.06-3.42 4.8zM1495.68 90.96c-.06-1.7-.13-3.76-.13-5.81h-.06c-.44 1.8-1.03 3.82-1.57 5.48l-1.72 5.52h-2.5l-1.51-5.48a66.97 66.97 0 0 1-1.28-5.52h-.04c-.08 1.91-.15 4.09-.25 5.85l-.25 5.37h-2.96l.9-14.14h4.26l1.38 4.72c.44 1.64.88 3.4 1.2 5.06h.06c.4-1.64.88-3.5 1.34-5.08l1.51-4.7h4.17l.78 14.14h-3.13l-.2-5.41zM1509.88 90.39h-5.2v3.36h5.81v2.62h-9.02V82.23h8.73v2.62h-5.52v2.94h5.2v2.6zM1518.82 84.92h-3.8v-2.69h10.87v2.69h-3.86v11.46h-3.21V84.92zM1539.93 89.15c0 4.64-2.81 7.45-6.95 7.45-4.2 0-6.65-3.17-6.65-7.2 0-4.24 2.71-7.41 6.88-7.41 4.35.01 6.72 3.26 6.72 7.16zm-10.22.19c0 2.77 1.3 4.72 3.44 4.72 2.16 0 3.4-2.06 3.4-4.8 0-2.54-1.22-4.72-3.42-4.72-2.16 0-3.42 2.06-3.42 4.8z" fill="#fff"/><path d="M1519.47 134.17l-1.2-2.69 9.87-17.18-1.8-3.59-3.88-2.24-25.26-.3-18.69 4.33-7.92 1.65-.9-1.2-6.87-.45-4.93 2.69-6.58-1.64-1.2-6.13-4.03-2.39-1.05 1.34-1.94-.74-7.62-.75-.6 4.33 1.04 6.58-1.94 17.49-3.74 17.78-1.94 2.84-.15 1.65 3.14 2.84-1.49 2.84 2.69 5.68 88.78-.15v-26.61l1.5-3.73-1.05-2.69-2.24.44z" fill="#000B9E"/><path d="M1432.16 167.41l-2.93-6.19 1.43-2.72-3.04-2.75.18-2.02 1.96-2.87 3.72-17.69 1.93-17.37-1.05-6.58.67-4.88 8.23.83 1.6.61 1.09-1.4 4.61 2.73 1.18 6.04 6.08 1.52 4.89-2.67 7.25.47.84 1.13 7.61-1.58 18.73-4.35h.06l25.39.3 4.13 2.38 1.98 3.96-9.87 17.2.93 2.09 2.26-.45 1.27 3.27-1.53 3.83v27.01l-89.6.15zm-1.82-6.17l2.45 5.17 87.97-.15.04-26.29 1.42-3.55-.82-2.12-2.22.44-1.46-3.29 9.86-17.18-1.61-3.21-3.64-2.1-25.07-.3-18.62 4.32-8.24 1.71-.95-1.26-6.5-.42-4.98 2.71-7.08-1.77-1.21-6.22-3.46-2.05-1 1.29-2.23-.86-7.08-.69-.52 3.78 1.04 6.57-.01.07-1.94 17.49-3.82 18.01-1.87 2.73-.12 1.27 3.24 2.93-1.57 2.97z" fill="#FFE800"/><path d="M1449.93 122.56l.86 2.65h2.79l-2.26 1.64.86 2.65-2.25-1.64-2.25 1.64.86-2.65-2.26-1.64h2.79l.86-2.65zM1441.12 156.54c.03-.03.04-.05.07-.08-.01-.01-.02-.01-.03-.02.07-.37.1-.56.17-.94v-.63c.05-.17.08-.26.13-.43-.01-.01-.02-.01-.03-.02 0-.02.01-.15.07-.32.02-.05.04-.11.05-.18.01-.07.03-.13.05-.18.02-.07.03-.14.03-.21 0-.07.01-.15.03-.24v-.03c.01-.18.02-.26.03-.44 0-.11.15-.18.17-.21.03-.04-.01-.4.07-.68.03-.12.09-.26.13-.4.04-.14.09-.29.13-.43.04-.14.08-.28.12-.39.03-.12.07-.24.12-.36.05-.13.08-.2.13-.33-.01.03-.02.04-.03.07.07-.08.13-.2.2-.35.02-.05.04-.11.07-.18.02-.07.04-.13.07-.18.02-.05.03-.1.03-.16 0-.05.01-.11.03-.16.05-.12.07-.22.08-.29.01-.07.06-.16.08-.25.03-.12.16-.31.2-.42.07-.21.02-.64.13-.86.1-.2.23-.37.33-.49.04-.05.1-.13.17-.21.07-.08.12-.17.17-.24.08-.13.13-.34.13-.63-.03.01-.04.01-.07.02.03-.03.04-.05.07-.08.02-.16.01-.34-.03-.55-.04-.21-.07-.4-.07-.58.01-.02.02-.03.03-.04-.02-.1-.04-.22-.05-.33-.01-.12-.02-.23-.02-.34v-.31c0-.1.02-.22.03-.32.01-.08 0-.18 0-.26 0-.09.01-.19.03-.31l.1-.52.1-.89c-.01-.01-.02-.01-.03-.02l.03-.11c0-.84.26-1.71.63-2.55.07-.16.13-.32.2-.45s.12-.24.17-.34c.05-.11.08-.16.13-.27v-.1c.03-.01.04-.01.07-.02.07-.02.1-.14.13-.33.03-.18.08-.29.1-.29v.1c.13-.28.24-.47.33-.59.04-.06.11-.16.2-.32.09-.16.12-.27.13-.3.07-.3.36-.69.56-1 .2-.31.42-.6.66-.89.24-.29.47-.56.68-.81.21-.25.41-.51.61-.76.11-.14.28-.27.5-.4.2-.12.38-.29.56-.52.03-.01.04-.01.07-.02 0-.04.12-.13.35-.24.23-.12.37-.18.41-.2.38-.13.8-.32 1.22-.43.2-.03.3-.04.5-.07.24-.07.46-.11.66-.13.2-.02.44-.07.66-.07.2 0 .37.04.43.05.42.05.85.17 1.24.27.38.1.75.29 1.04.56.33.31.61.8.83 1.42.22.62.32 1.5.3 2.62l-.07.12v.36c0 .11-.01.25-.02.42-.01.17-.03.36-.05.56-.03.35-.1.76-.1 1.08 0 .15.03.28.03.34s-.02.11-.03.16c-.06.2-.07.39-.07.48 0 .11-.01.23-.02.35-.01.12-.02.26-.05.39-.03.16-.07.31-.08.42-.01.11-.03.23-.05.34.01 0 .02-.01.03-.01.01.02.02.03.03.06 0 .11-.05.35-.13.7-.05.21-.09.43-.13.65-.04.22-.09.46-.13.71-.09.48-.2.95-.3 1.37-.05.2-.08.38-.1.51-.02.13-.04.22-.07.27-.11.19-.26.41-.31.63-.06.22-.07.45-.08.63-.02.3-.09.58-.13.78-.04.2-.07.36-.1.44-.03.09-.08.18-.1.23-.02.05-.04.11-.07.15-.02.03-.12.15-.23.36-.09.17-.29.62-.4 1.2-.08.46-.17.9-.36 1.16-.22.28-.31.52-.33.62-.11.53-.44 1.18-.59 1.45-.03.05-.13.23-.25.51-.12.29-.18.46-.18.53v.1c-.04.05-.06.08-.1.13-.2.32-.32.54-.36.63-.08.15-.15.3-.2.42-.04.1-.09.25-.13.43-.04.16-.09.3-.13.4-.04.1-.09.18-.13.23-.04.06-.09.12-.15.19s-.15.17-.21.27c-.39.64-.64 1.35-.86 1.69-.21.32-.35.49-.4.5v-.03c0 .07-.06.15-.16.24-.12.1-.18.21-.2.25-.09.25-.45.57-.63.78-.18.21-.33.4-.46.54-.15.15-.28.29-.38.4-.1.11-.19.23-.28.31-.08.07-.15.13-.2.19-.04.06-.09.12-.13.14-.23.12-.52.15-.64.19-.12.04-.24.12-.35.18-.1.06-.23.1-.36.15-.13.05-.28.09-.43.13-.04.01-.18.03-.4.04h-.23c-.07 0-.13-.01-.2-.01s-.13-.01-.18-.02c-.06-.01-.1-.02-.15-.02l-.17-.05c-.13-.03-.26-.04-.36-.03-.15 0-.4-.2-.63-.29-.15-.06-.39-.08-.49-.16-.13-.1-.2-.14-.33-.24a.97.97 0 0 1-.2-.18c-.04-.05-.18-.03-.23-.04-.08-.01-.22-.14-.33-.17-.15-.05-.3-.36-.5-.59-.04-.05-.19-.2-.3-.45-.12-.26-.27-.83-.5-1.65.04-.04.06-.06.1-.09v-.3c-.04-.14-.07-.25-.07-.31v-.23c-.05-.04-.07-.05-.09-.05zm2.04-5.28c.04-.1.08-.2.12-.31.03-.11.07-.23.12-.38l.3-.87c.04-.12.09-.24.13-.37.04-.12.09-.24.13-.37.04-.12.06-.17.1-.29.04-.12.08-.21.1-.27.02-.06.06-.13.1-.21.02-.05.04-.11.07-.18.02-.07.05-.15.07-.22.05-.18.07-.31.07-.38v-.17l-.17.05c-.04.12-.07.21-.08.25-.01.05-.04.12-.08.22l-.2.55c-.11.23-.18.42-.2.58l-.2.62c-.07.13-.11.23-.13.32-.02.08-.05.16-.07.23-.03.15-.06.3-.1.42-.03.09-.04.13-.07.22-.22.7-.39 1.24-.5 1.64-.11.39-.19.7-.23.9-.08.37-.13.67-.13.89 0 .24-.01.49-.03.74-.02.25-.1.75-.1.75s.16-.69.21-1.07c.05-.38.12-.77.21-1.13.1-.37.2-.75.28-1.12.08-.35.16-.73.28-1.04zm4.29-10.42c.29-.28.64-.48.79-.61.15-.13.25-.27.3-.35.18-.28.51-.5.73-.63.22-.13.44-.22.66-.28.7-.19 1.25-.21 1.62-.08.36.12.52.36.5.66-.02.33-.08.7-.26.96-.1.14-.19.24-.23.31-.04.07-.08.12-.1.14-.16.25-.28.54-.38.76-.1.23-.18.43-.25.6-.14.32-.28.5-.36.53-.09.02-.24 0-.45-.08-.21-.07-.31-.14-.31-.21 0-.18.05-.37.17-.57.11-.21.17-.47.17-.47s-.12.21-.17.31c-.04.1-.09.19-.13.27-.18.29-.41.54-.63.73-.2.33-.3.5-.49.83-.04.1-.09.18-.13.25-.04.07-.09.13-.13.18-.07.08-.1.13-.17.21.01 0 .02-.01.03-.01 0 .11-.09.36-.26.75l-.36.78c-.09.18-.18.36-.26.53-.09.18-.18.36-.26.53-.18.39-.43.96-.4 1.03.02.04.24.14.33.27.11.17.26.2.33.21.11.01.28.15.36.16.1.02.23.19.2.31-.01.04-.09.11-.13.15-.04.05-.08.1-.1.14-.03.08-.1.16-.23.2a1.383 1.383 0 0 1-.95-.05c-.09-.03-.27-.09-.3-.07-.18.12-.35 1.21-.53 1.83-.18.62-.3 1.25-.43 1.83-.09.44-.22.87-.3 1.24-.07.34-.11.58-.1.65.02.17.06.34.05.46-.01.12-.03.24-.05.36-.02.12-.04.24-.05.36-.01.12-.01.25-.02.35-.01.28-.01.61 0 .92 0 .09.02.24.05.46.03.22.07.44.12.66.04.22.11.41.2.57.09.16.23.28.3.26.18-.05.47-.4.69-.62.22-.21.42-.43.59-.66.05-.01.08-.02.13-.04-.01-.02-.02-.03-.03-.06 0-.04.09-.19.26-.4.19-.23.4-.46.59-.67.2-.22.39-.45.56-.7.18-.26.24-.49.26-.57.02-.09.13-.2.18-.28.05-.08.1-.17.15-.27-.01-.02-.02-.03-.03-.06.22-.32.38-.58.48-.76.1-.18.17-.32.21-.42.04-.1.08-.17.1-.23.02-.05.05-.09.07-.12.05-.1.26-.38.33-.62.03-.12.02-.36.07-.56.04-.2.15-.39.33-.54l.13-.1.13-.1c.07-.06.1-.17.1-.32 0-.33.11-.59.33-.78l.2-.25c.07-.06.07-.22.1-.32.07-.26.34-.59.43-.81.06-.15.09-.28.1-.36.05-.36.21-.75.3-1.04.09-.29.2-.57.3-.84.09-.25.18-.52.26-.77.09-.24.18-.49.26-.73.09-.24.17-.46.23-.64.07-.18.12-.36.17-.52.1-.36.16-.55.17-.57.01-.08.04-.19.07-.3.02-.1.05-.22.1-.34.04-.12.08-.24.1-.34.02-.1.07-.24.07-.3 0-.03-.02-.08 0-.12.02-.04.04-.11.07-.2.02-.09.04-.18.07-.27.02-.08.05-.18.07-.3.02-.14.05-.32.1-.56.01-.1.02-.14.03-.24-.01-.01-.02-.01-.03-.02.04-.12.06-.17.1-.29-.01-.01-.02-.01-.03-.02.04-.39.07-.68.08-.88.01-.2.05-.39.08-.55.05-.24.07-.41.1-.46.05-.08.1-.18.1-.29v-.43c.03.01.04.01.07.01v-.13c-.02-.24-.02-.43 0-.59.03-.11.04-.17.07-.28-.01-.08-.02-.11-.03-.19.01 0 .02-.01.03-.01-.01-.08-.02-.11-.03-.19.01-.07.02-.1.03-.17v-1.02c.07-.41.09-.77.07-1.07-.02-.3-.05-.6-.1-.9-.08-.5-.23-.93-.43-1.27l-.17.05c-.13.04-.22.05-.26.04-.06-.01-.16.01-.3.05-.24.07-.56.18-.96.33-.4.15-.63.44-.76.64-.07.11-.32.34-.63.67s-.62.68-.94 1.05c-.32.37-.62.73-.89 1.05-.28.33-.43.58-.48.68-.06.11-.14.21-.17.28-.02.05-.04.12-.07.2-.02.08-.06.19-.1.31-.09.24-.23.73-.5 1.13-.15.23-.41.56-.56.98-.15.42-.27.78-.36 1.06-.12.36-.22.7-.3.97-.08.28-.13.53-.13.53.02.01.33-.34.4-.47.05-.09.1-.19.17-.26.01-.06.07-.14.11-.18zm-2.31-.46c.11-.25.22-.49.33-.73.11-.24.28-.55.3-.76.01-.1.02-.25.1-.36a.9.9 0 0 0 .13-.4c.01.01.02.01.03.02v-.1c0-.07.04-.21.13-.4.1-.2.19-.31.2-.32.47-.37.95-1.74 1.47-2.58.53-.86 1.15-1.67 1.83-2.42v-.03c-.35.1-.94.77-1.78 2.01-.35.51-.59.86-.73 1.02-.04.06-.1.14-.17.24-.07.11-.11.19-.13.23-.12.21-.22.37-.23.43-.13.7-.51 1.23-.59 1.25v.07c-.02.01-.06.08-.1.23-.03.1-.04.15-.07.25-.03.01-.04.01-.07.02 0 .07-.03.2-.1.39-.04.12-.09.24-.13.35-.04.11-.09.23-.13.35-.04.12-.09.25-.15.37-.06.13-.1.25-.15.37-.08.22-.13.38-.13.47.01 0 .02-.01.03-.01-.01.03-.02.05-.03.08-.01.12-.02.18-.03.31.07-.08.1-.15.12-.2.01-.05.03-.09.05-.15zm1.45 3.04c.04-.06.09-.12.13-.2.04-.08.09-.17.13-.27.07-.17.15-.27.26-.3v-.1c0-.07.12-.2.3-.41.09-.1.19-.23.3-.36.11-.13.22-.26.33-.4.25-.32.38-.48.63-.8.2-.23.3-.48.3-.48-.01-.01-.29.28-.54.56-.25.28-.51.57-.76.87-.25.3-.48.58-.68.83-.2.25-.29.41-.3.44-.03.15-.11.27-.13.3-.04.18-.06.27-.1.46.05-.06.08-.09.13-.14zm1.13 14.57c.22-.17.37-.34.46-.52.09-.18.17-.27.2-.29.02-.01.05-.07.1-.13.04-.06.13-.13.23-.23.18-.17.26-.32.26-.44 0-.09.06-.22.17-.41.04-.08.1-.16.17-.24.07-.08.12-.15.17-.21.04-.06.1-.12.16-.19.07-.07.13-.14.17-.19.13-.22.2-.47.26-.6.07-.13.14-.26.2-.38.05-.11.12-.26.21-.41.1-.15.2-.32.31-.53.11-.21.16-.32.16-.34.09-.21.14-.32.23-.53 0-.18.09-.38.26-.6.18-.22.26-.35.26-.37-.01-.05-.02-.07-.03-.12.04-.34.13-.57.26-.7.08-.09.12-.13.2-.22-.01 0-.02.01-.03.01v-.07c.03-.02.04-.03.07-.05.05-.19.08-.28.13-.47.03-.01.04-.01.07-.02-.01-.02-.02-.03-.03-.06 0-.18.05-.36.13-.53.04-.1.09-.19.13-.28.04-.09.09-.18.13-.28.04-.1.08-.19.12-.26.03-.07.07-.14.12-.2.04-.06.06-.1.1-.16-.01-.02-.02-.03-.03-.06 0-.15.05-.33.1-.49.03-.1.07-.27.15-.47.08-.2.15-.36.21-.49.18-.38.28-.64.3-.71.16-.54.28-.97.36-1.27.09-.3.16-.55.23-.74.07-.19.12-.38.17-.56.04-.18.09-.33.13-.45.07-.24.1-.36.17-.61.02-.07.03-.16.03-.27 0-.24.01-.43.03-.57.02-.14.05-.27.07-.38.02-.14.03-.44.03-.44s-.13.5-.2.8c-.07.29-.14.61-.23.94-.09.33-.17.65-.25.94-.08.3-.16.58-.25.84-.09.27-.17.51-.23.74-.07.23-.12.42-.16.59l-.2.52c.01.02.02.03.03.06-.02-.02-.06.07-.1.26-.03.11-.04.17-.07.28-.04.06-.06.1-.1.16-.31.77-.61 1.53-.89 2.29-.29.76-.59 1.53-.89 2.29-.07.17-.12.31-.17.41-.04.1-.08.18-.1.23-.07.08-.1.13-.17.21l-.2.38c-.04.1-.12.24-.21.41-.1.17-.2.39-.31.66-.01.02-.02.03-.03.04.01.02.02.03.03.06-.08.13-.12.19-.2.32-.02.05-.04.1-.07.13-.02.04-.04.08-.07.13-.02.05-.04.09-.07.13-.02.04-.04.08-.07.13-.04.04-.06.06-.1.09-.13.26-.2.41-.2.45.01 0 .02-.01.03-.01-.09.02-.15.1-.2.22-.02.05-.04.11-.07.18-.02.07-.05.14-.07.18-.03.1-.07.25-.15.39-.08.14-.23.22-.28.26-.3.24-.58.96-.83 1.22-.28.3-.43.51-.43.65.1 0 .12-.02.18-.05zm2.57-16.38s-.18.28-.16.28c.03-.02.16-.28.16-.28zm.16-.51c0 .07.01.08.02.04s.06-.09.08-.14c.06-.11.07-.23.07-.25v-.1c-.07.19-.1.28-.17.45zM1468.93 140.29c.2-.05.35-.06.43-.02.04.03.09.06.13.1.04.03.13.08.13.1.03.1-.23.61-.46 1.02-.18.31-.39.64-.58.97-.19.33-.37.67-.54.99-.14.26-.2.41-.2.42.03.14-.43.7-.5.86-.04.1-.08.18-.1.23-.02.05-.04.1-.07.15-.02.05-.03.1-.03.14 0 .04-.02.09-.03.14-.02.07-.29.3-.36.53-.03.08-.02.25-.07.35-.13.17-.2.25-.33.42-.4.66-.6 1.14-.66 1.37-.08.32-.2.52-.26.53-.04.02-.06.04-.1.06 0 .37-.09.65-.26.83-.2.21-.27.41-.3.48-.09.25-.39.52-.43.65-.03.11-.04.17-.07.28.01-.03.02-.05.03-.08 0 .04-.01.17-.07.28-.03.05-.08.12-.1.19-.02.07-.06.14-.1.19-.11.15-.17.31-.2.38-.04.1-.08.22-.1.26-.01.02-.09.17-.2.42-.11.25-.23.52-.36.81-.13.29-.25.55-.36.78-.11.23-.19.35-.23.36v-.07c-.04.01-.1.11-.17.28-.04.1-.13.29-.26.53-.12.21-.28.4-.43.56-.15.16-.35.28-.59.34l-.26.06c-.13.03-.26.04-.4.06-.13.01-.26.01-.38-.01a.246.246 0 0 1-.18-.13c-.02-.03-.16-.03-.21-.02-.06 0-.11-.01-.15-.01-.11-.01-.3-.03-.46-.14-.17-.11-.39-.55-.49-.59-.02-.01-.12-.03-.15-.14-.03-.11-.06-.24-.08-.39-.02-.15-.04-.29-.05-.43-.01-.14-.02-.23-.02-.28.03-.14.04-.21.07-.35-.02-.46-.02-.79 0-.99.02-.2.06-.4.1-.59.04-.19.09-.4.15-.63.05-.23.11-.49.18-.74.08-.26.17-.54.25-.81.08-.27.16-.57.25-.88.17-.57.36-1.13.5-1.62.07-.25.13-.49.2-.7.07-.2.12-.39.17-.56.08-.31.17-.47.2-.48.1-.06.25-.42.43-.91.09-.24.18-.49.26-.75.09-.25.3-.78.3-.79-.01-.01-.22.02-.33.04-.11.02-.22.04-.33.07-.48.13-.94.1-1.29.02-.2-.04-.51-.24-.79-.38-.34-.16-.7-.28-.79-.44-.08-.15-.13-.35-.13-.59 0-.11.01-.2.03-.27-.01-.09-.02-.13-.03-.22 0-.46.08-.75.2-.88.13-.14.2-.26.2-.35 0-.37.11-.7.33-.98.15-.19.22-.28.36-.46-.02-.1.03-.26.17-.38.13-.11.2-.3.23-.46.07-.36.46-.71.83-.82.4-.12.82-.19 1.16-.19.36.01.69.09.92.21.24.12.29.29.17.35-.02.01-.1.12-.23.34-.13.22-.2.36-.2.4l-.2.25c-.09.11-.13.23-.13.37-.01-.01-.02-.01-.03-.02-.07.13-.12.22-.15.29-.03.06-.06.13-.08.2-.08.24-.14.44-.16.54-.06.23-.15.42-.17.51-.03.15-.1.24-.16.28-.1.05-.17.22-.17.38 0 .15-.24.62-.2.75.01.02.19.01.43-.05.31-.08.55-.17.73-.27.18-.09.43-.18.76-.27.09-.02.18-.04.28-.06.1-.02.21-.04.31-.04.18 0 .4.02.61.03.21.01.46.02.61.1.04.02.09.07.15.12.05.05.12.09.15.12.07.08.1.27.1.47 0 .33-.05.63-.13.89-.11.36-.17.44-.17.44s-.03.13-.1.32c-.04.12-.09.26-.15.42-.06.16-.1.38-.18.53-.07.13-.21.29-.26.44-.05.12-.09.28-.13.47-.02.11-.06.25-.1.39-.01.07-.02.1-.03.17 0 .02-.01.12-.07.25-.05.12-.11.27-.17.38-.05.1-.15.29-.23.53-.05.14-.08.24-.1.29-.02.05-.05.1-.07.15-.36.95-.63 2.04-.91 3.07-.28 1.01-.68 3.07-.68 3.07s.13-.34.26-.47c.13-.13.2-.32.23-.46.06-.28.29-.6.4-.8.11-.21.2-.37.26-.5.11-.21.2-.35.26-.44.09-.11.16-.21.2-.29.02-.05.06-.14.1-.26.04-.12.1-.32.2-.48.3-.51.63-.89.66-1.04.04-.2.11-.36.17-.44.19-.3.31-.63.4-.8.08-.15.14-.36.2-.48.03-.05.07-.11.08-.15.01-.05.03-.08.05-.11v.07c.07-.15.17-.31.3-.48-.01-.02-.02-.03-.03-.06 0-.07.07-.2.21-.41.14-.2.27-.35.28-.39.02-.09.03-.29.17-.44.07-.08.1-.13.16-.21-.03.01-.04.01-.07.02.4-.66.66-1.12.79-1.37l.2-.38c.09-.13.18-.27.26-.4.09-.13.35-.39.36-.53 0-.03.04-.2.17-.41.04-.08.12-.2.23-.38.11-.17.23-.36.36-.55.13-.19.26-.36.38-.52.12-.15.21-.24.28-.26.14-.05.22-.07.37-.11zm-10.16.38c0-.15.06-.34.2-.52.14-.19.23-.33.23-.39.01-.02.02-.03.03-.04.42-.8.67-1.42.66-1.44-.03-.02-.37.21-.56.55-.2.35-.3.63-.33.75-.1.39-.25.69-.28.82-.03.13-.06.23-.08.3-.05.16-.07.31-.1.42-.03.14-.13.23-.13.23 0 .01.12 0 .16-.14.08-.21.12-.32.2-.54zm.63 11.38c.29-1.09.58-1.96.63-2.45.04-.41.13-.64.17-.67.21-.18.32-.78.36-1.06.04-.25.21-.49.23-.59.02-.07.01-.27.07-.41.05-.12.11-.25.17-.38.02-.05.04-.09.07-.13.02-.04.05-.09.07-.13.08-.22.12-.41.15-.5.03-.1.07-.2.12-.3l.2-.45c.04-.19.07-.27.07-.25v-.1c.09-.11.2-.3.33-.55l.2-.55c.04-.19.1-.42.1-.42-.01-.01-.32.22-.36.3-.04.08-.08.16-.1.23-.03.15-.05.31-.1.42-.07.17-.15.3-.18.36s-.06.13-.08.17c-.05.1-.09.21-.1.26-.21.78-.94 1.97-1.2 3.02-.26 1.03-.5 2.07-.71 3.12-.07.33-.13.61-.2.86s-.13.46-.17.62c-.06.3-.07.54-.08.67-.05.11-.06.22-.06.3v.59c0 .31.05.46.07.44.06-.07.04-.41.07-.63.02-.21.04-.44.07-.66.04-.44.11-.84.19-1.13zm1.88 2.29c.13-.32.26-.54.33-.65.07-.11.15-.21.2-.25.09-.08.14-.2.17-.28.02-.07.05-.17.1-.29.05-.07.08-.1.13-.17.11-.27.2-.49.28-.65.08-.16.21-.44.21-.44s-.3.33-.45.53c-.14.2-.18.45-.21.6-.07.34-.31.68-.4.8-.14.19-.22.34-.23.36-.02.05-.14.17-.2.32-.07.17-.11.27-.13.3.01.01.02.01.03.02.07-.08.1-.12.17-.2zm1.85-3.65s.09-.22.13-.3c.04-.08.09-.16.13-.23.05-.09.09-.18.13-.23.04-.06.08-.11.1-.16.2-.4.37-.71.46-.89.09-.18.16-.3.2-.35.21-.33.35-.7.46-.94.11-.24.2-.42.26-.55.07-.13.13-.25.2-.35.07-.11.12-.21.17-.31.04-.1.09-.2.15-.3.05-.1.12-.22.18-.35.07-.13.15-.29.26-.49.11-.19.24-.43.4-.72.09-.2.14-.3.23-.49.22-.28.39-.5.46-.65.07-.15.12-.29.17-.36.04-.07.09-.13.13-.18-.01-.02-.02-.03-.03-.06l.2-.38c-.31.52-.56.96-.76 1.3-.2.34-.34.59-.43.74-.19.34-.3.52-.3.54.07-.11.1-.17.17-.28a3.4 3.4 0 0 1-.5.93c-.2.26-.29.44-.3.48-.05.28-.25.64-.41.97-.17.33-.35.66-.51.97-.09.17-.17.33-.25.46-.08.13-.14.25-.18.35-.11.23-.2.32-.2.32-.02-.01-.54.96-.63 1.23-.04.13-.09.28-.09.28zm4.85-8.98c.01-.04-.06 0-.17.14l-.13.23c.15-.13.28-.27.3-.37z" fill="#FFE800"/><path d="M1480.25 137.25c.15-.02.29-.02.33.01.04.04.11.15.2.21-.03.11-.04.17-.07.28-.04.14-.09.27-.13.37-.04.08-.09.16-.15.26-.06.09-.11.2-.18.3-.08.11-.18.24-.28.37-.1.14-.21.32-.35.46-.13.13-.48.52-.99 1.16-.24.31-.56.72-.94 1.23-.39.51-.83 1.11-1.34 1.8v-.03c-.02.09-.07.2-.13.3-.12.19-.35.38-.66.58-.09.12-.14.18-.23.29-.05.01-.08.02-.13.04-.09.02-.17.08-.23.16-.04.06-.12.14-.21.24l-.38.38c-.15.15-.34.34-.56.57-.22.23-.48.49-.79.79-.04.01-.06.02-.1.03-.22.19-.34.29-.56.48-.03.01-.04.01-.07.02.02-.01-.08.03-.23.13-.15.1-.33.22-.46.29-.19.11-.4.24-.56.32-.21.1-.41.21-.56.25-.33.09-.67.1-1.02.02s-.65-.23-.86-.36c-.08-.05-.18-.08-.26-.13-.09-.04-.18-.12-.26-.16-.09-.04-.29-.12-.46-.27-.09-.07-.2-.2-.33-.34.03-.02.04-.03.07-.05a.242.242 0 0 1-.23-.07c-.13-.11-.23-.45-.23-1.03l.07-.12c-.01-.34-.02-.51-.03-.85 0-.24.03-.55.1-.89.04-.18.08-.34.1-.46.02-.12.04-.21.07-.28-.01-.02-.02-.03-.03-.06 0-.18.01-.36.07-.48.03-.07.1-.25.2-.42.1-.16.24-.38.31-.63.08-.25.16-.49.18-.66.02-.21.07-.48.21-.72.14-.24.3-.47.48-.69-.01-.02-.02-.03-.03-.06v-.03c.01.01.02.01.03.02.07-.08.12-.17.16-.24.04-.08.11-.18.13-.27.02-.1.12-.29.33-.49.22-.2.57-.62.66-1.01.01-.03.07-.14.2-.3.13-.16.29-.32.46-.49.18-.17.34-.33.5-.48.15-.15.27-.25.33-.29.15-.11.3-.24.45-.34.14-.09.3-.19.48-.28-.01-.01-.02-.01-.03-.02.13-.1.27-.18.41-.23.14-.05.3-.1.48-.15.37-.1.8-.18 1.22-.17.06 0 .18 0 .3.02.16.02.34.04.43.05.08.01.17.03.23.04.07 0 .13.01.2.01.11 0 .16 0 .26-.01-.01 0-.02.01-.03.01.24 0 .45.07.63.21.18.14.26.34.26.6 0 .15-.09.34-.1.42 0 .04.09.17.16.32.07.13.1.29.1.47 0 .15-.01.27-.03.34-.02.05-.04.11-.07.18-.02.07-.04.14-.07.18-.05.1-.13.27-.2.45-.04.1-.09.21-.13.33-.04.12-.08.35-.13.4-.03.03-.2.15-.33.39-.13.23-.18.43-.2.52-.06.3-.25.57-.3.64-.04.06-.09.12-.13.18-.04.07-.09.13-.13.18-.11.14-.24.21-.3.25-.16.1-.3.33-.36.38-.07.05-.11.1-.13.12-.03.03-.19.34-.4.47-.04.03-.24.18-.53.47-.29.3-.63.5-1.02.61-.33.09-.56.09-.69-.01a.98.98 0 0 0-.4-.19c.01.01.02.01.03.02-.04-.03-.18-.12-.41-.25-.23-.13-.35-.27-.35-.27-.02 0-.97 2.86-.83 4.12.02.17.16.28.23.23.14-.08.3-.26.43-.32s.36-.09.5-.17c.16-.09.3-.26.38-.3.08-.04.18-.07.21-.09.1-.07.31-.33.56-.52.09-.06.15-.12.2-.15l.13-.1c.19-.14.33-.26.4-.34.11-.14.24-.28.4-.41.08-.07.17-.14.23-.21.07-.07.16-.14.23-.21.11-.1.29-.18.36-.23.1-.07.21-.26.3-.35.09-.09.18-.19.26-.27.1-.1.23-.21.36-.35.13-.14.24-.26.33-.37.02-.03.05-.06.08-.09s.08-.08.15-.14c.13-.12.25-.27.36-.4.06-.06.17-.18.31-.35.14-.17.19-.39.21-.42.03-.04.25-.12.35-.24.1-.13.19-.27.28-.39.04-.06.09-.12.15-.21.05-.08.1-.15.15-.21.04-.06.08-.11.12-.16a.38.38 0 0 1 .12-.13c.03-.02.15-.12.31-.32s.35-.42.54-.66c.2-.24.38-.47.54-.68.17-.21.27-.34.31-.4.18-.24.28-.35.46-.59.11.01.2.01.26-.01.07-.02.12-.02.17-.01.04.09.07.09.12.11zm-11.18 3.63c.11-.21.17-.36.2-.45.03-.12.11-.27.2-.42.1-.16.24-.38.4-.6.08-.11.19-.24.3-.39.11-.15.24-.32.4-.52.15-.2.31-.4.46-.61l.46-.64s-.09.03-.13.05c-.04.02-.09.04-.13.05-.11.1-.16.14-.26.24-.09.09-.18.2-.28.32-.1.13-.21.26-.31.4-.38.5-.73 1.07-1.06 1.64-.33.57-.59 1.15-.79 1.7-.09.24-.17.43-.23.56-.09.18-.15.4-.2.62-.05.23-.1.43-.1.59v-.07c0 .18-.03.37-.1.59-.07.22-.09.33-.07.35.04-.14.06-.21.1-.36.07-.22.17-.52.3-.91.11-.33.24-.7.38-1.08.12-.37.28-.73.46-1.06zm3.43-1.83c-.05.06-.12.15-.17.21-.23.32-.56.68-.74 1.05-.19.37-.47.8-.54 1.12-.01.07.06.17.1.17.34-.03.97-.68 1.32-1.01.35-.33.81-.83 1.09-1.4.1-.21.16-.43.23-.53.04-.05.08-.12.12-.2.03-.08.08-.14.12-.2.07-.11.13-.2.2-.22-.01-.02-.02-.03-.03-.06.04-.01.18-.18.36-.5s.26-.73.26-.73c-.06-.03-.8.59-.83.62-.07.06-.1.09-.17.14-.18.18-.32.32-.43.41-.2.21-.3.32-.5.53-.19.28-.32.5-.39.6zm2.41-1.43c-.11.14-.19.25-.23.33-.04.08-.09.15-.13.2-.07.1-.15.26-.23.46-.07.17-.1.32-.1.46v.1c-.18.25-.35.48-.53.67-.11.12-.23.26-.36.43-.13.17-.29.36-.46.59-.11.14-.26.3-.26.3s1.14-.99 1.58-1.76c.09-.15.18-.29.26-.4v.03c.02-.01.08-.12.13-.33.05-.18.13-.33.26-.44-.01-.02-.02-.03-.03-.06.01-.07.02-.1.03-.17 0-.02.09-.12.26-.27.15-.13.23-.37.23-.72-.03-.01-.04-.01-.07-.01-.02.03-.1.15-.23.36-.04.09-.07.14-.12.23zm2.31 3.3c-.04.04-.06.06-.1.09v-.03c-.09.02-.23.14-.41.34-.19.21-.38.43-.58.67-.2.24-.38.48-.54.71-.17.23-.31.47-.31.47s.54-.52.76-.8c.11-.14.23-.29.36-.45.13-.16.25-.31.36-.45.09-.11.17-.22.25-.32.07-.09.14-.17.21-.23zm1.98-2.29c.01-.04-.15.1-.46.49-.13.17-.3.38-.51.62l-.74.85s.24-.24.3-.28c.09-.06.21-.21.36-.4.19-.24.88-.79 1.05-1.28z" fill="#FFE800"/><path d="M1487.94 136.09c-.11.27-.17.43-.17.47.01.02.02.03.03.06-.04.21-.08.37-.1.49-.02.12-.04.22-.07.32-.02.09-.03.19-.03.27 0 .09-.01.18-.03.27-.1.45-.26 1-.53 1.6v.26c-.01 0-.02.01-.03.01-.07.41-.17.84-.3 1.29-.13.44-.29.88-.46 1.3-.13.34-.28.71-.4 1.07-.09.28-.15.48-.2.58-.17.38-.32.76-.45 1.13-.12.37-.24.75-.35 1.13-.01-.01-.02-.01-.03-.02 0 .11-.01.2-.03.27-.03.11-.04.17-.07.28-.02.07-.05.2-.1.26-.06.07-.17.17-.17.28-.03.14-.04.21-.07.35-.07.13-.13.29-.2.48-.04.12-.09.24-.13.35-.04.11-.09.23-.13.35-.04.12-.09.24-.13.37-.04.12-.09.25-.13.37-.08.2-.19.37-.3.51.01.04.02.05.03.09-.01 0-.02.01-.03.01-.09.2-.17.4-.23.59-.07.19-.16.38-.26.57-.22.38-.44.73-.46.89-.01.11 0 .25-.07.32-.11.16-.16.24-.26.4-.01.07-.02.1-.03.17-.22.15-.34.29-.36.43-.02.16-.1.26-.23.29.01 0 .02-.01.03-.01-.02.09-.11.24-.26.37-.08.07-.17.15-.25.23-.08.09-.16.17-.25.23-.1.08-.21.15-.3.21-.09.07-.18.14-.26.2-.15.11-.31.18-.46.23-.12-.03-.18-.05-.3-.08-.09.11-.29.21-.59.3-.11.03-.25.05-.43.07-.18.02-.3-.03-.36-.15a.266.266 0 0 1-.03-.12c0-.04-.02-.09-.03-.12a.632.632 0 0 0-.1-.17c-.03-.05.11-.29.3-.48.11-.11.22-.23.33-.34.11-.11.22-.23.33-.34.22-.22.51-.49.73-.79.18-.25.29-.55.33-.85.04-.02.06-.04.1-.06.04-.17.09-.32.15-.47.05-.15.09-.38.15-.44.03-.03.19-.13.3-.31.11-.18.21-.39.3-.63.09-.23.17-.46.25-.68.08-.22.13-.37.15-.44.08-.26.17-.53.25-.78.08-.25.16-.51.25-.78s.16-.48.21-.65c.05-.17.1-.31.15-.44.34-.93.65-1.87.92-2.83.09-.31.34-.9.59-1.68.18-.55.37-1.29.66-2.06.13-.34.26-.69.38-1.04.12-.35.35-1.04.35-1.04-.01-.01-.08-.07-.03-.25.02-.07.05-.2.1-.39.04-.19.09-.34.13-.47.02-.07.04-.15.07-.25.02-.09.1-.32.1-.32s-.89 1.53-1.42 2.2c-.67.86-1.01 1.29-1.68 2.15-.22.28-.41.53-.58.74-.17.21-.3.4-.41.56-.27.38-.55.71-.79.98-.24.26-.78.67-1.02.64-.01 0-.06-.03-.1-.06a.4.4 0 0 1-.13-.15c-.05-.07-.13-.13-.2-.19s-.15-.12-.23-.18c-.17-.15-.32-.29-.4-.35-.11-.09-.18-.14-.2-.14-.12 0-.25-.1-.3-.15a.54.54 0 0 1-.1-.24c-.04-.21-.07-.52-.07-.94 0-.2.02-.41.1-.56.07-.13.13-.3.13-.5-.01-.01-.02-.01-.03-.02 0-.15.08-.33.23-.53.15-.2.23-.42.23-.66.03-.11.04-.17.07-.28.03-.01.04-.01.07-.02.04-.01.12-.17.23-.46.1-.27.24-.47.26-.53.02-.07.05-.23.1-.32.03-.06.1-.19.23-.36l.4-.5c.07-.08.14-.17.21-.26.08-.09.16-.19.25-.3.2-.21.3-.32.5-.53.04-.03.15-.13.31-.3.16-.17.25-.27.25-.32.03.01.04.01.07.01.04-.05.06-.08.1-.13.04-.01.06-.02.1-.03v-.07l.2-.15c.18-.05.37-.15.56-.25.29-.16.57-.26.79-.32.26-.07.51-.12.73-.13.21-.01.32-.01.53-.01v-.03c.04-.01.12.02.23.07.15.07.3.08.43.05.22-.09.34-.13.56-.22.03-.01.04-.01.07-.02.2-.05.38-.07.53-.05.09.02.2.04.33.06.13.02.42.04.46.09.01.01.09.11.28.27.19.16.31.25.35.28.11.1.17.23.18.33.01.1.03.2.05.3.02.1.03.24.03.42s.01.38.03.62c-.01.02-.02.03-.03.04-.01.08.01.13.03.21zm-7.59.96c.35-.45.69-.85 1.02-1.2.31-.33.92-1.08.92-1.08-.01-.01-.34.14-.5.27-.09.07-.19.17-.3.3-.11.13-.26.27-.4.42-.13.15-.23.26-.26.27-.1.04-.21.18-.3.31-.04.06-.09.13-.15.22s-.11.21-.18.33c-.08.13-.18.29-.26.45-.09.17-.19.35-.3.56-.01.03-.02.05-.03.08-.04.06-.08.1-.1.14a.36.36 0 0 1-.07.1c-.05.11-.08.16-.13.27-.01.08-.02.12-.03.21-.04.09-.06.13-.1.23-.07.22-.21.43-.36.63-.18.24-.26 1.23-.26 1.23.01 0 .25-.39.35-.66.1-.27.2-.54.18-.68-.01-.05.03-.24.16-.51.06-.13.14-.25.21-.37.08-.12.16-.26.25-.38.04-.06.16-.24.35-.54.19-.3.28-.48.28-.52.01-.04.01-.05.01-.08zm4.76 3.42c.22-.54.39-1.09.51-1.63.12-.54.24-1.08.35-1.61.05-.37.08-.56.13-.93v-.36c-.07.13-.14.33-.23.59-.09.27-.17.55-.25.84-.08.3-.14.58-.2.86-.05.28-.11.5-.12.63-.01.16-.02.41-.1.65-.04.12-.08.25-.1.39-.02.14-.05.27-.1.39-.02.05-.08.22-.18.51-.1.29-.15.46-.15.5 0 .07-.05.21-.13.43-.11.29-.16.46-.17.47-.02.07-.11.2-.13.33-.11.31-.16.46-.26.77-.09.29-.23.75-.46 1.35-.1.27-.24.59-.38.95s-.3.75-.48 1.17c-.02.05-.05.13-.1.24-.04.11-.1.26-.17.42-.17.42-.33.86-.5 1.26-.1.25-.21.49-.3.73-.09.23-.19.49-.3.76-.21.52-.41 1.03-.59 1.45-.1.22-.2.44-.28.62-.08.19-.15.37-.21.54-.05.12-.09.23-.13.32-.04.09-.1.21-.1.21s.38-.63.56-.95c.18-.31.33-.64.46-.98.05-.11.08-.16.13-.27.04-.1.09-.21.13-.32.04-.11.09-.23.13-.35.04-.12.09-.24.13-.35.04-.11.09-.22.13-.32l.2-.45c.11-.43.25-.83.43-1.22s.39-.8.59-1.2c.29-.58.55-1.22.79-1.83.24-.62.53-1.29.59-1.85.01-.1.01-.2.03-.27.03-.11.04-.17.07-.28.02-.01.08-.1.16-.28.05-.1.08-.2.12-.3.03-.1.07-.21.12-.33l.2-.65c.07-.22.1-.36.1-.42.04-.09.04-.14.06-.23zm-3.6-.07c.15-.19.22-.28.36-.46.09-.09.16-.17.23-.24.07-.07.14-.17.23-.28.09-.11.21-.27.36-.48.15-.21.35-.46.59-.77-.01-.02-.02-.03-.03-.06v-.03c-.11.14-.21.28-.31.42-.1.14-.2.28-.31.42-.55.63-.83.94-1.39 1.57-.2.25-.3.38-.5.63-.15.2-.23.32-.23.36.01.01.02.01.03.02.09-.09.17-.18.25-.27.08-.09.16-.19.25-.3.2-.26.36-.43.47-.53zm2.94-4.47c.12-.15.18-.23.3-.38.04-.06.2-.32.2-.32-.01-.01-.34.1-.48.16-.14.06-.29.17-.45.32-.11.1-.16.14-.26.24-.09.07-.23.1-.3.15-.1.07-.2.25-.28.34-.08.09-.15.16-.21.22-.16.18-.24.26-.4.44-.07.06-.12.12-.15.17-.03.05-.06.09-.08.12.03-.01.04-.01.07-.02-.24.2-.36.35-.36.46.01.02.02.03.03.06-.18.22-.3.43-.4.57-.04.06-.09.16-.13.3-.04.14-.1.46-.2.55-.01.01-.14.14-.3.38-.16.24-.28.69-.23.76.01.01.19-.11.43-.35s.52-.56.82-.95c-.01-.02-.02-.03-.03-.06 0-.04.09-.13.23-.26.09-.08.18-.18.23-.26.14-.22.28-.49.45-.7.16-.21.33-.44.51-.65.37-.45.72-.89.99-1.29zm-.27.96c-.01-.01-.16.12-.3.31l-.36.53s.13-.14.2-.22c.07-.08.15-.16.23-.23.15-.12.25-.36.23-.39zM1495.83 130.53c.04-.01.27-.15.63-.27.44-.12.65-.18 1.09-.3.2-.03.39-.07.58-.13.19-.05.38-.11.54-.15.16-.03.32-.06.45-.09.12-.03.2-.06.25-.07.57-.16 1.15-.14 1.55.1.11.06.17.17.17.28 0 .11-.14.23-.36.36-.22.13-.51.29-.83.42-.54.24-1.06.45-1.52.58-.13.04-.4.14-.79.32-.42.18-.95.29-1.02.38-.05.05 0 .35.07.54.06.18.1.51.1 1 0 .53-.02.86-.07 1.01-.04.14-.07.23-.07.25.01.1.03.19.02.26-.01.07-.03.13-.05.18-.02.05-.04.11-.07.18-.02.07-.04.13-.07.18-.09.2-.14.34-.16.41-.01.11-.02.16-.03.27-.13.21-.29.5-.48.87s-.28.68-.28.92c-.08.13-.12.19-.2.32-.13.19-.2.32-.2.38-.01.03-.02.04-.03.07-.2.47-.35.88-.49 1.13-.07.13-.15.25-.2.33-.04.09-.09.16-.13.22-.04.06-.08.1-.12.13-.03.03-.07.06-.08.09-.14.26-.24.63-.38.88s-.33.54-.58.84c-.21.26-.42.48-.59.66-.11.09-.16.14-.26.24.01 0 .02-.01.03-.01-.03.02-.04.03-.07.05.01-.02.02-.03.03-.04-.04.01-.17.13-.33.35-.16.22-.52.44-1.09.6-.48.13-.82.06-1.02-.15-.1-.1-.22-.2-.33-.31-.11-.1-.23-.19-.33-.27-.15-.12-.29-.25-.4-.35-.11-.1-.22-.22-.33-.31-.22-.18-.31-.3-.3-.35a.666.666 0 0 0-.03-.22c-.02-.08-.06-.2-.1-.34-.07-.28-.1-.59-.1-.9 0-.33.02-.66.07-.99.04-.33.11-.69.23-1 .04-.1.08-.19.12-.26.03-.08.08-.14.12-.2.07-.11.08-.26.1-.32.04-.21.18-.41.2-.48.1-.4.2-.71.33-.88.18-.22.23-.33.23-.33-.05-.05.28-.93.5-1.37.22-.44.49-.89.76-1.31.2-.32.42-.66.66-.97.12-.15.18-.23.3-.38.11-.21.22-.4.33-.59.11-.18.25-.37.43-.55.18-.18.3-.32.36-.4.36-.41.66-.66.76-.74.22-.17.37-.31.45-.35.08-.04.16-.08.25-.1.37-.1.66-.16.79-.12.16.05.28.13.3.15.02.03.04.07.07.1.02.03.05.06.07.1.03.07.13.1.33.04l.1.27c0 .07.09.14.12.14zm-4.49 3.74c.23-.37.42-.64.54-.81.12-.17.2-.3.25-.36.09-.14.17-.23.17-.28-.01-.01-.02-.01-.03-.02-.01 0-.02.01-.03.01.51-.67.77-1 1.29-1.67.2-.25.32-.38.33-.39.22-.14.38-.44.43-.45-.04.01-.06.02-.1.03-.11.03-.2.09-.26.17-.11.14-.19.22-.23.23v-.03c-.13.06-.23.15-.3.28-.07.06-.1.09-.17.14-.09.16-.14.24-.23.39-.2.32-.4.64-.59.97-.2.33-.41.66-.63.95-.23.31-.41.46-.43.48-.11.1-.18.46-.26.57l-.2.25c-.31.57-.49.97-.56 1.14-.05.12-.12.25-.17.36-.04.11-.09.21-.13.28-.05.15-.08.22-.13.37-.02.07-.1.17-.17.28-.12.21-.19.43-.25.53-.05.1-.11.2-.15.27-.05.09-.08.19-.1.26-.02.07-.05.14-.07.18-.06.17-.07.38-.07.38.01 0 .35-.76.53-1.15.18-.39.35-.78.53-1.15.37-.76.77-1.53 1.19-2.21zm-.59 7.92c.24-.09.41-.2.5-.3.16-.18.31-.37.4-.57.01-.04.02-.06.03-.11.11-.14.21-.27.31-.4s.17-.24.21-.31c.07-.11.15-.22.2-.32.26-.53.51-.95.66-1.22.15-.27.28-.48.36-.61.04-.07.12-.16.17-.24.02-.04.04-.1.05-.15.01-.05.04-.1.08-.15.04-.06.08-.12.12-.2.03-.08.07-.14.12-.2.04-.06.08-.12.12-.2.03-.08.07-.14.12-.2.03-.1.04-.15.07-.25 0-.2.07-.39.2-.58.13-.2.2-.35.2-.35-.01 0-.17.23-.23.36-.07.13-.15.28-.26.47-.11.18-.21.36-.3.53-.09.17-.19.33-.3.49-.11.18-.2.35-.28.49-.08.14-.15.28-.21.41-.14.26-.22.42-.23.46-.05.28-.24.51-.33.55-.05.11-.08.16-.13.27-.38.49-.57.73-.96 1.22-.11.14-.21.27-.31.4s-.19.22-.25.28c-.07.07-.12.15-.15.21-.03.05-.06.09-.08.12.02.04.05.06.1.1zm.62-1.86c0-.09.09-.24.26-.47.09-.11.17-.22.25-.33.08-.11.23-.26.25-.33.01-.05.03-.23.17-.44.13-.21.26-.4.4-.57.2-.25.35-.45.43-.58.11-.19.16-.32.17-.34.03-.3.13-.56.18-.69.05-.14.13-.24.21-.31.18-.15.25-.32.26-.44.01-.06.07-.21.15-.42.08-.21.15-.43.23-.66.08-.23.15-.45.21-.65.07-.2.1-.34.1-.41 0-.15.01-.28.03-.37.02-.07.03-.19.03-.34v-.3c-.02-.13-.06-.18-.1-.17-.07.02-.15.11-.26.27l-.3.58c-.04.12-.09.23-.13.32-.04.09-.09.17-.13.25-.09.17-.14.27-.17.28v-.03c0 .11-.03.21-.1.31s-.13.18-.2.27c-.09.12-.14.18-.23.29v.07c0 .04-.05.16-.15.34-.1.18-.17.28-.21.29-.13.29-.2.43-.33.72-.03.01-.04.01-.07.02-.18.29-.31.51-.4.67-.09.16-.15.28-.2.38-.09.2-.13.37-.13.5v.13c0 .11-.03.28-.1.49-.04.12-.09.23-.13.33-.04.1-.09.2-.13.3-.05.12-.09.23-.13.32-.04.09-.09.17-.13.25-.04.1-.06.16-.1.26.02.3-.01.51-.1.62-.09.11-.13.5-.13.5.01 0 .26-.29.38-.43s.24-.28.35-.43v-.05z" fill="#FFE800"/><path d="M1511.67 128.19c.09.09.1.29.05.42-.06.13-.15.3-.28.51-.3.46-.61.93-.91 1.4-.3.48-.6.96-.91 1.44-.29.45-.41.79-.43.94-.01.06-.11.21-.26.4-.13.17-.2.33-.2.48 0 .13-.13.38-.38.73-.25.36-.42.59-.51.7-.04.04-.06.06-.1.09l-.2.35c-.09.2-.15.35-.2.42-.04.06-.08.11-.12.16-.03.05-.08.1-.08.12-.02.07 0 .26-.07.38-.12.21-.41.5-.59.82-.2.34-.29.64-.33.65-.05.11-.08.16-.13.27-.15.35-.34.65-.56.9-.22.25-.51.42-.86.52-.13.04-.27.03-.4.01-.16-.03-.34-.11-.4-.12-.05-.01-.23-.02-.43-.15-.2-.12-.32-.2-.36-.23a2.13 2.13 0 0 1-.5-.43c-.13-.17-.23-.38-.23-.6v-.66c-.01-.29-.02-.43-.03-.72-.02-.13.03-.32.1-.56.07-.24.1-.5.1-.72-.01-.01-.02-.01-.03-.02.04-.14.06-.21.1-.36.02-.05.04-.11.07-.18.02-.07.04-.16.07-.25.02-.07.04-.14.07-.22.02-.07.04-.15.07-.25.02-.09.03-.2.03-.31-.03-.05-.04-.07-.07-.11.01-.02.02-.03.03-.04v.07c.07-.17.13-.34.18-.5.05-.16.07-.44.15-.59.03-.05.13-.17.17-.31.05-.18.08-.34.1-.46l.1-.42c.04-.12.23-.29.23-.29s-.15.08-.23.23c-.05.09-.14.24-.28.42s-.32.42-.54.73c.01-.03.02-.04.03-.07-.18.29-.28.43-.46.72-.11.16-.24.36-.38.58-.14.23-.3.48-.48.77-.18.29-.4.63-.66 1.02s-.59.84-.86 1.31c-.09.16-.17.34-.25.48-.08.14-.16.28-.25.41-.07.1-.13.21-.2.3-.07.1-.14.2-.23.31-.15.2-.31.32-.46.36-.18.05-.32.06-.43.02a4.81 4.81 0 0 1-.36-.16c-.12-.09-.18-.13-.3-.22-.09-.06-.13-.13-.13-.19-.01.02-.02.03-.03.04-.24-.09-.41-.21-.43-.31a.373.373 0 0 0-.1-.2v-.16c.02-.31.06-.61.12-.87.05-.27.13-.56.21-.87.01-.08.02-.12.03-.21.02-.07.04-.15.07-.23.02-.08.04-.17.07-.27.02-.09.04-.18.07-.27.02-.08.04-.18.07-.27.05-.19.14-.35.2-.45.33-.6.54-1.3.71-1.93.16-.63.31-1.27.41-1.91.05-.27.09-.53.13-.76.04-.23.09-.44.13-.63.07-.34.18-.53.3-.58.1-.04.18-.08.21-.09a.31.31 0 0 1 .08-.02c.11-.03.2-.04.26-.04.11.02.16.04.26.06.13.05.35.04.46.07.02.01.07.04.15.06.08.02.17.09.28.15.2.12.48.34.53.55.03.13-.03.29-.07.35-.02.04-.04.1-.07.15-.02.05-.05.1-.07.15-.16.38-.28.76-.36 1.11-.09.34-.17.71-.23 1.1.01.01.02.01.03.02-.02.03-.06.11-.1.26-.02.07-.04.14-.07.22-.02.07-.04.15-.07.22-.04.1-.08.19-.1.26-.02.07-.05.15-.07.22-.03.15-.06.28-.1.36.21-.31.32-.46.53-.77.07-.11.13-.21.2-.32.07-.11.15-.22.23-.33.14-.19.23-.38.3-.48.27-.4.57-.81.84-1.2.27-.39.56-.8.87-1.18.38-.46.79-.92 1.19-1.37.4-.45.85-.89 1.22-1.31.02-.02.05-.08.1-.14.04-.07.11-.16.2-.27.15-.2.33-.32.53-.38.13-.04.22-.05.26-.04.12.01.18.01.3.02.2-.05.34-.05.43.01.24.17.36.26.59.43.04.3.05.53.02.71-.03.17-.08.34-.15.49-.15.33-.22.5-.36.83 0 .09-.01.17-.03.24-.05.16-.14.43-.3.64-.07.09-.15.17-.2.25-.04.08-.09.17-.13.27-.38.87-.68 1.74-.92 2.56-.06.22-.17.4-.26.53-.11.17-.17.43-.17.74 0 .04-.09.21-.23.49-.16.31-.18.78-.23 1.15-.05.34-.2.75-.26 1.11-.07.36-.12.73-.17 1.12v.07c.01 0 .02-.01.03-.01.04-.01.11-.09.16-.21.05-.11.18-.19.2-.22.01-.01.07-.15.2-.32.11-.14.17-.25.17-.34.17-.25.26-.37.43-.61.07-.13.16-.29.28-.47.12-.19.27-.41.45-.68.11-.19.16-.28.26-.47.09-.13.19-.3.3-.49.11-.19.24-.4.36-.61.31-.54.69-1.23 1.14-2 .45-.76.92-1.41 1.3-1.94.2-.28.33-.45.4-.47.18-.05.31-.15.4-.31.09-.17.24-.3.46-.36-.01.02-.02.03-.03.04.29-.04.54-.04.6.02zm-14.16 8.61s-.08.26-.13.4c-.02.05-.03.09-.03.12s-.02.08-.03.12c-.02.07-.03.16-.03.27.03.05.04.07.07.11 0-.24 0-.52.07-.71.02-.1.08-.31.08-.31zm1.75-5.23c.01-.03.02-.19.07-.41.02-.09.04-.18.07-.25.02-.07.06-.16.1-.26.02-.07.04-.14.07-.22.02-.07.04-.14.07-.22.03-.07.04-.11.07-.18V130c-.13.04-.25.24-.36.56-.1.27-.23.71-.4 1.23-.08.24-.17.49-.23.72-.07.24-.13.5-.2.75-.08.26-.17.5-.23.71-.07.21-.14.4-.23.57l-.2.55c-.02.09-.04.18-.07.27-.02.08-.04.17-.07.27-.02.09-.04.17-.07.23-.02.06-.04.12-.07.17-.01.07-.02.1-.03.17.02.15.03.26.02.34a.83.83 0 0 1-.05.2c.03-.09.04-.13.07-.22 0-.04.08-.23.23-.56.15-.33.18-.74.23-1.05.04-.23.18-.53.26-.8.09-.27.19-.53.3-.81l.4-1c.04-.17.09-.3.13-.42.03-.11.1-.23.12-.31zm4.39-1.8c.07-.09.15-.21.25-.32.1-.1.2-.23.31-.37.07-.08.18-.21.33-.39.15-.17.31-.35.46-.54.15-.18.3-.36.43-.53.13-.17.26-.4.26-.4 0-.01-.14.1-.23.2-.14.15-.3.31-.45.47-.14.16-.28.32-.41.49l-.4.5c-.11.14-.2.26-.26.35-.07.1-.12.18-.16.26-.13.17-.2.25-.33.42-.11.14-.16.23-.17.24-.15.43-.82 1.07-1.2 1.6-.39.53-.78 1.09-1.14 1.65-.13.21-.25.41-.36.58-.11.17-.23.33-.33.47-.11.15-.22.32-.33.47-.11.15-.33.44-.33.44s.22-.22.26-.29c.04-.07.09-.15.13-.22.04-.05.11-.15.2-.27.09-.12.23-.26.33-.4.42-.57.8-1.29 1.22-1.82.04-.06.1-.13.18-.21.08-.09.16-.21.25-.33.14-.19.29-.38.41-.56.12-.18.24-.35.35-.51.23-.33.51-.67.73-.98zm-.4 5.29l-.23 1.28s.08-.45.12-.66c.03-.21.11-.62.11-.62zm1.26-3.65c0-.13.04-.31.13-.53.08-.2.21-.48.38-.83.16-.35.31-.61.45-.78-.24.34-.36.51-.59.86-.04.06-.11.16-.2.32-.09.16-.13.28-.13.37.01.02.02.03.03.06-.29.69-.54 1.38-.78 2.06-.23.68-.54 2.06-.54 2.06s.54-1.89.89-2.75c.05-.12.08-.22.1-.31.02-.08.04-.15.07-.2.01.01.02.01.03.02.06-.14.09-.21.16-.35zm4.45.03s-.19.27-.36.5c-.27.35-.49.7-.69.98-.21.3-.3.56-.33.62-.05.12-.26.27-.33.35-.07.08-.12.19-.16.28-.09.18-.26.55-.5.99-.13.26-.3.51-.45.73l-.38.62c-.23.37-.36.58-.36.59-.01.09-.15.28-.4.54-.22.24-.43.78-.43.78l.25-.33c.05-.08.12-.17.18-.28.26-.34.4-.5.66-.84.09-.02.19-.15.26-.37.07-.2.22-.42.26-.53 0-.01.05-.15.17-.34.06-.1.22-.3.36-.56.05-.09.1-.19.16-.28.07-.08.12-.17.17-.24.05-.08.08-.12.13-.2.09-.24.22-.45.4-.6.18-.16.32-.36.45-.6.12-.24.21-.5.31-.66.17-.29.63-1.15.63-1.15zm1.09-1.81c.06-.06.13-.14.2-.22.02-.03.17-.31.17-.31s-.27.38-.35.47c-.08.1-.16.2-.25.32-.18.22-.26.35-.26.37.01 0 .02-.01.03-.01.09-.11.16-.22.23-.31.07-.1.14-.22.23-.31z" fill="#FFE800"/></g><defs><filter id="filter0_d" x="-4" y="-2" width="1608" height="408" filterUnits="userSpaceOnUse" color-interpolation-filters="sRGB"><feFlood flood-opacity="0" result="BackgroundImageFix"/><feColorMatrix in="SourceAlpha" values="0 0 0 0 0 0 0 0 0 0 0 0 0 0 0 0 0 0 127 0"/><feOffset dy="2"/><feGaussianBlur stdDeviation="2"/><feColorMatrix values="0 0 0 0 0 0 0 0 0 0 0 0 0 0 0 0 0 0 0.08 0"/><feBlend in2="BackgroundImageFix" result="effect1_dropShadow"/><feBlend in="SourceGraphic" in2="effect1_dropShadow" result="shape"/></filter><linearGradient id="paint0_linear" x1="1257.65" y1="202.46" x2="1257.65" y2="172.817" gradientUnits="userSpaceOnUse"><stop offset=".003" stop-color="#C2B69C"/><stop offset=".505" stop-color="#E3DFD7"/><stop offset=".797" stop-color="#E6E6E6"/></linearGradient><linearGradient id="paint1_linear" x1="1256.92" y1="199.021" x2="1267.66" y2="217.613" gradientUnits="userSpaceOnUse"><stop stop-color="#E3DFD7"/><stop offset=".997" stop-color="#C2B69C"/></linearGradient><linearGradient id="paint2_linear" x1="1254.16" y1="222.992" x2="1294.32" y2="222.992" gradientUnits="userSpaceOnUse"><stop offset=".005" stop-color="#CCC1AB"/><stop offset=".182" stop-color="#D0C6B4"/><stop offset=".488" stop-color="#D3CBBC"/><stop offset=".997" stop-color="#D4CDBF"/></linearGradient><linearGradient id="paint3_linear" x1="1221.73" y1="200.632" x2="1234.45" y2="200.632" gradientUnits="userSpaceOnUse"><stop stop-color="#E3DFD7"/><stop offset=".997" stop-color="#C2B69C"/></linearGradient><linearGradient id="paint4_linear" x1="1233.11" y1="222.826" x2="1233.11" y2="203.31" gradientUnits="userSpaceOnUse"><stop offset=".003" stop-color="#C2B69C"/><stop offset="1" stop-color="#E3DFD7"/></linearGradient><linearGradient id="paint5_linear" x1="1235.11" y1="225.962" x2="1260.59" y2="225.962" gradientUnits="userSpaceOnUse"><stop offset=".003" stop-color="#C2B69C"/><stop offset="1" stop-color="#E3DFD7"/></linearGradient><linearGradient id="paint6_linear" x1="1245.3" y1="215.98" x2="1310.09" y2="215.98" gradientUnits="userSpaceOnUse"><stop offset=".003" stop-color="#389CC7"/><stop offset="1" stop-color="#2E7EC9"/></linearGradient><linearGradient id="paint7_linear" x1="1274.32" y1="205.657" x2="1306.49" y2="205.657" gradientUnits="userSpaceOnUse"><stop offset=".003" stop-color="#389CC7"/><stop offset="1" stop-color="#2E7EC9"/></linearGradient><linearGradient id="paint8_linear" x1="1277.42" y1="212.705" x2="1262.93" y2="223.551" gradientUnits="userSpaceOnUse"><stop stop-color="#2E7EC9"/><stop offset=".997" stop-color="#389CC7"/></linearGradient><linearGradient id="paint9_linear" x1="1190.63" y1="197.176" x2="1202.66" y2="197.176" gradientUnits="userSpaceOnUse"><stop stop-color="#E3DFD7"/><stop offset=".997" stop-color="#C2B69C"/></linearGradient><linearGradient id="paint10_linear" x1="1190.54" y1="206.861" x2="1217.99" y2="206.861" gradientUnits="userSpaceOnUse"><stop stop-color="#E3DFD7"/><stop offset=".997" stop-color="#C2B69C"/></linearGradient><linearGradient id="paint11_linear" x1="1199.15" y1="207.92" x2="1221.93" y2="207.92" gradientUnits="userSpaceOnUse"><stop offset=".203" stop-color="#E6E6E6"/><stop offset=".495" stop-color="#E3DFD7"/><stop offset=".997" stop-color="#C2B69C"/></linearGradient><linearGradient id="paint12_linear" x1="1218.31" y1="228.998" x2="1218.31" y2="211.44" gradientUnits="userSpaceOnUse"><stop stop-color="#E3DFD7"/><stop offset=".997" stop-color="#C2B69C"/></linearGradient><linearGradient id="paint13_linear" x1="1203.49" y1="199.06" x2="1212.27" y2="199.06" gradientUnits="userSpaceOnUse"><stop offset=".203" stop-color="#E6E6E6"/><stop offset=".495" stop-color="#E3DFD7"/><stop offset=".997" stop-color="#D4CDBF"/></linearGradient><linearGradient id="paint14_linear" x1="1224.07" y1="226.571" x2="1227.42" y2="226.571" gradientUnits="userSpaceOnUse"><stop stop-color="#E3DFD7"/><stop offset=".997" stop-color="#C2B69C"/></linearGradient><linearGradient id="paint15_linear" x1="1171.35" y1="197.146" x2="1185.95" y2="197.146" gradientUnits="userSpaceOnUse"><stop stop-color="#E3DFD7"/><stop offset=".997" stop-color="#C2B69C"/></linearGradient><linearGradient id="paint16_linear" x1="1161.44" y1="185.133" x2="1187.05" y2="185.133" gradientUnits="userSpaceOnUse"><stop offset=".203" stop-color="#E6E6E6"/><stop offset=".495" stop-color="#E3DFD7"/><stop offset=".997" stop-color="#C2B69C"/></linearGradient><linearGradient id="paint17_linear" x1="1168.82" y1="177.391" x2="1173.93" y2="177.391" gradientUnits="userSpaceOnUse"><stop offset=".203" stop-color="#E6E6E6"/><stop offset=".495" stop-color="#E3DFD7"/><stop offset=".997" stop-color="#D4CDBF"/></linearGradient><clipPath id="clip0"><path fill="#fff" transform="translate(1416 82)" d="M0 0h123.93v85.41H0z"/></clipPath></defs></svg>