<svg width="375" height="156" fill="none" xmlns="http://www.w3.org/2000/svg" viewBox="0 0 375 156"><path d="M375 0H0v156h375V0z" fill="#F5FCFF"/><mask id="a" maskUnits="userSpaceOnUse" x="0" y="0" width="375" height="156"><path transform="matrix(-1 0 0 1 375 0)" fill="#F5FCFF" d="M0 0h375v156H0z"/></mask><g mask="url(#a)"><path d="M481.001-5.706L374.813.097 176.849 20.841l-36.882 21.902 167.705 97.683 140.778 13.258 32.551-159.39z" fill="#00AD00"/><path d="M437.509-7.297S75.411 4.265 51.072 44.358C21.095 93.745 318.26 226.2 318.26 226.2l250.865-59.442s-397.638-99.299-379.744-129.2C208.081 6.31 578.295-2.295 578.295-2.295L437.509-7.297z" fill="#fff"/><path d="M346.422 206.702S52.672 89.192 79.234 44.358C103.14 4.01 465.671-5.998 465.671-5.998l81.019 1.535S176.252 6.173 157.777 37.553c-19.75 33.549 379.744 144.365 379.744 144.365l-191.099 24.784z" fill="#004EBB"/></g><path d="M141.165 92.852c-1.585.91-1.549 2.325.085 3.146l15.129 9.682 80.111 40.308c1.634.821 4.327.801 6.123.441 6.814-1.383 16.86-4.493 22.215-7.077 1.645-.797 4.027-2.322 5.5-3.405 2.479-1.82 6.62-5.747 8.064-8.72.796-1.646 1.015-3.021-.619-3.846l-98.435-49.537c-1.634-.82-4.267-.752-5.852.158l-32.321 18.85z" fill="#0032A5"/><path d="M143.499 75.43c-.494-2.843 1.5-4.885 1.5-4.885s1.124-3.296 4.089-6.904c2.964-3.603 14.081-9.997 17.236-11.311 3.15-1.315 6.665-1.476 8.392-1.238 1.73.239 9.811 2.787 9.811 2.787s9.787.78 17.911 4.011c8.125 3.232 16.929 8.089 23.452 11.563 3.802 2.022 10.77 7.316 15.926 11.376l.603-.384s-.502-2.374-.388-2.795c.113-.425 1.326-3.397 1.326-3.397s1.48 1.5 1.933 2.742c.453 1.242-.327 3.114-.57 4.024-.138.518-.445 1.132-.679 1.57-.004-.005-.013-.009-.017-.013a369.843 369.843 0 0 1 4.251 3.442c8.974 3.522 20.536 13.499 20.536 13.499 2.208.113 3.733 4.279 5.322 7.118 1.594 2.843 1.509 4.756 1.464 5.589-.048.833 1.06 12.759-8.618 19.46-9.682 6.697-21.232 8.194-26.376 7.846a25.763 25.763 0 0 1-5.852-1.088c-.202-.967-.388-1.872-.429-2.503-.311-5.193-4.933-11.401-9.665-13.577-6.127-2.818-8.982.045-8.667 5.242.033.513.186 1.326.393 2.179l-46.674-23.504c-.206-1.108-.429-2.245-.538-2.932-.768-4.728-4.457-10.054-8.566-12.517-6.567-3.935-8.529-.198-7.825 4.954v.008c-2.329-2.119-6.196-5.666-8.173-7.671-2.953-2.99-2.722-7.276-2.944-8.796-.223-1.521 1.836-3.895 1.836-3.895z" fill="#14AFEB"/><path d="M141.659 79.325c.222 1.52-.008 5.807 2.944 8.796 1.981 2.005 5.844 5.552 8.173 7.671v-.008c-.708-5.152 1.258-8.893 7.825-4.954 4.109 2.463 7.802 7.79 8.566 12.517.113.687.336 1.824.538 2.932l46.674 23.505c-.207-.854-.364-1.667-.393-2.18-.311-5.197 2.544-8.06 8.667-5.241 4.732 2.175 9.354 8.383 9.665 13.576.037.631.227 1.537.429 2.503 1.472.457 3.478.926 5.852 1.088 5.144.348 16.694-1.149 26.376-7.846 8.784-6.078 8.683-16.459 8.626-18.955-.813 4.271-2.968 9.617-8.877 13.682-6.106 4.202-10.87 6.462-20.884 6.867-5.9.234-9.855-1.549-12.072-2.386l-.028-.441c2.216.837 6.123 1.812 12.023 1.577 10.018-.4 14.778-2.665 20.884-6.863 5.949-4.093 8.093-9.479 8.894-13.766.028.149.048.291.068.428.021-.97-.105-2.729-1.48-5.188-.445-.797-.886-1.695-1.334-2.58-1.036 1.759-1.711.893-1.711.893-.053 1.917-.841 4.599-1.331 5.496-.489.898-2.018 4.049-6.288 7.094-4.267 3.045-9.112 4.655-11.882 5.544-2.77.89-5.407.785-5.407.785-3.252 1.634-6.572.226-6.572.226-.772-1.516-4.072-3.34-6.547-4.573-1.343-.672-3.713-2.059-5.86-3.422-1.804-1.144-2.864-1.905-2.864-1.905-5.39-3.457-7.489-6.276-7.489-6.276-4.101-7.146-11.85-17.2-11.85-17.2-5.641-6.968-16.278-11.736-23.407-15.238-5.088-2.5-12.723-2.205-19.133-2.435l-7.595-.396s-7.704-2.059-7.854-6.111c-1.424 2.293-2.006 3.996-2.006 3.996s-1.994 2.046-1.5 4.885c0 0 3.284 6.98 6.608 11.044 0 0-6.079-4.796-8.295-8.262-.133.397-.202.78-.153 1.12zm61.107 23.027c1.99-.453 3.171-1.165 3.927-.493l2.212 2.014s1.157 1.128.34 1.662-3.539.699-5.775.833c-2.237.133-2.411-1.897-2.455-2.224-.049-.332-.235-1.339 1.751-1.792z" fill="#0082C8"/><path d="M173.434 76.409a11.88 11.88 0 0 1 1.249-.138c6.297-.38 12.667 3.608 14.854 4.829 3.515 1.957 10.111 5.504 13.921 9.949 4.658 5.43 3.558 4.99 10.607 17.046 0 0-1.997-1.007-4.929-2.5.036-.02.076-.036.109-.06.817-.534-.34-1.662-.34-1.662l-2.212-2.014c-.756-.668-1.933.04-3.911.489-5.152-2.645-10.834-5.597-14.179-7.445-7.239-4.008-25.797-14.377-25.797-14.377s3.939-3.03 10.628-4.117z" fill="#0082C8"/><path d="M219.719 122.702l2.16-1.282c.837.17 1.759.477 2.774.946 4.732 2.176 9.354 8.384 9.666 13.577.036.63.226 1.536.428 2.503h.008l-3.805 2.265c-1.302.784-3.134.752-5.209-.283-4.287-2.144-7.991-7.753-8.278-12.533-.158-2.601.728-4.421 2.256-5.193z" fill="#192D4B"/><path d="M221.879 121.416l-2.16 1.282c-1.533.772-2.418 2.592-2.261 5.193.029.497.098 1.003.199 1.512l-1.278.38c-.207-.853-.364-1.666-.393-2.179-.262-4.332 1.683-7.041 5.893-6.188z" fill="#004687"/><path d="M217.459 127.891c.287 4.78 3.995 10.393 8.278 12.533 4.287 2.139 7.53 0 7.243-4.781-.287-4.78-3.995-10.393-8.282-12.533-4.283-2.139-7.526 0-7.239 4.781z" fill="#192D4B"/><path d="M217.916 128.343c.267 4.408 3.684 9.585 7.635 11.559 3.955 1.973 6.944.004 6.681-4.409-.267-4.408-3.684-9.584-7.639-11.558-3.952-1.973-6.94 0-6.677 4.408z" fill="#192D4B"/><path d="M219.756 129.359c.198 3.283 2.742 7.133 5.682 8.606 2.94 1.468 5.164 0 4.97-3.28-.198-3.284-2.742-7.134-5.682-8.602-2.944-1.476-5.169-.004-4.97 3.276z" fill="#0082C8"/><path d="M223.881 130.944c.056.958.8 2.079 1.658 2.511.857.429 1.508 0 1.448-.958-.057-.959-.801-2.083-1.659-2.512-.857-.428-1.504 0-1.447.959zM155.623 90.417l1.743-1.04c.922.24 1.998.709 3.236 1.453 4.109 2.463 7.801 7.789 8.565 12.516.113.688.336 1.824.538 2.932l.409.207-3.264 1.941c-1.302.784-3.134.752-5.209-.283-4.287-2.14-7.995-7.753-8.282-12.533-.154-2.6.732-4.416 2.264-5.193z" fill="#192D4B"/><path d="M153.359 95.61c.287 4.78 3.995 10.394 8.282 12.533 4.287 2.139 7.53.004 7.243-4.78-.287-4.78-3.996-10.394-8.282-12.533-4.287-2.14-7.531 0-7.243 4.78z" fill="#192D4B"/><path d="M153.816 96.063c.266 4.408 3.684 9.585 7.635 11.562 3.955 1.974 6.944 0 6.681-4.408-.267-4.408-3.684-9.585-7.64-11.558-3.951-1.978-6.939-.004-6.676 4.404z" fill="#192D4B"/><path d="M155.655 97.078c.199 3.28 2.742 7.134 5.682 8.606 2.945 1.468 5.165 0 4.971-3.28-.198-3.283-2.742-7.133-5.682-8.605-2.945-1.473-5.169-.005-4.971 3.28z" fill="#0082C8"/><path d="M159.752 98.647c.061.975.817 2.119 1.691 2.556.873.437 1.537 0 1.476-.975-.061-.974-.813-2.119-1.691-2.555-.873-.437-1.532 0-1.476.974z" fill="#192D4B"/><path d="M157.366 89.382l-1.743 1.04c-1.532.772-2.418 2.592-2.264 5.188 0 .02.004.045.004.065l-.587.117v-.008c-.574-4.182.615-7.429 4.59-6.402z" fill="#004687"/><path d="M219.723 80.683c4.809-3.364 10.074-7.857 10.074-7.857s8.331 5.544 11.049 7.716c4.068 3.251 7.429 5.476 7.429 5.476.449.178.91.372 1.371.578 3.923 2.972-2.556 9.184-7.555 12.957-4.998 3.77-13.184 8.129-18.049 9.039-.501.093-.97.15-1.415.178-3.854.231-5.496-1.828-5.496-1.828-3.733-6.543-11.898-17.39-11.898-17.39s9.682-5.504 14.49-8.869zM156.21 69.538c1.637-2.48 8.072-7.118 11.436-9.265 2.407-1.537 6.301-4.117 10.972-5.484a22.05 22.05 0 0 1 4.902-.878c.331-.02.667-.032 1.007-.032 0 0 4.812.384 10.486 1.727 0 0-7.809 4.286-11.315 6.761-3.507 2.471-10.272 7.887-11.037 8.643 0 0-1.221 1.504-2.487 1.577-1.266.077-14.013-.586-14.013-.586s-1.589.016.049-2.463z" fill="#0082C8"/><path d="M220.002 81.08c4.141-2.896 8.667-6.67 9.827-7.644 1.525 1.02 8.331 5.59 10.705 7.49 4.04 3.227 7.433 5.48 7.466 5.5l.044.028.049.02c.048.02.105.045.157.065.413.8.72 1.856.34 2.912-.772 2.156-4.715 6.212-8.549 8.744-3.705 2.442-10.766 8.096-20.112 9.835-1.516-.425-2.265-1.209-2.402-1.367-3.288-5.747-10.013-14.854-11.578-16.957 2.022-1.165 9.896-5.715 14.053-8.626zM188.017 80.954c.433.239.813.453 1.132.619-1.197 3.243-2.341 9.302-2.746 11.55-3.971-2.208-9.532-5.306-14.235-7.93l2.616-8.437c5.173-.283 10.41 2.63 13.233 4.198zM173.514 76.89c.106-.016.211-.028.32-.045l-2.601 7.826c-3.409-1.901-6.244-3.486-7.497-4.186 1.346-.861 4.8-2.786 9.778-3.595zM170.141 72.102c.858-.053 1.832-1.028 2.136-1.4l.016-.02.02-.016c.809-.805 7.474-6.414 11.097-8.699 7.118-4.49 9.29-5.387 11.199-6.454-5.047-1.165-9.322-1.57-9.993-1.626-1.169.161-2.686.493-4.68.93-4.861 1.197-8.99 3.923-11.651 5.625l-.38.243c-3.781 2.414-9.783 6.839-11.291 9.12-.821 1.241-.643 1.613-.639 1.625.036.07.174.081.174.081h.032c4.404.235 12.982.651 13.96.59z" fill="#94DAEE"/><path d="M272.661 115.317s-1.585-6.644-1.699-7.368c-.113-.724 1.084-5.023-2.03-8.42 2.006.239 3.446 3.814 4.902 6.56.101 2.05.153 6.64-1.173 9.228zM253.492 128.469s-1.844-1.783-3.462-3.009c-1.614-1.225-2.665-1.601-4.748-1.625-2.079-.021-5.306.072-6.891-.247-1.585-.32-2.871-.562-3.883-.696-1.011-.137-1.844-.157-1.164.975.679 1.132 1.52 3.547 4.008 4.238 2.487.692 3.829.789 6.939.813 3.11.028 9.201-.449 9.201-.449z" fill="#E1E8EC"/><path d="M258.466 127.689c.433-.025.866-.13 1.29-.308l.348-.145c1.945-.821 4.36-1.844 6.519-3.664 1.848-1.561 3.078-2.771 3.757-3.701.599-.821.846-1.686.748-2.649-.093-.905-.392-3.676-.566-5.249-.72 1.108-1.998 2.981-3.377 4.538-1.168 1.318-3.631 3.716-7.02 4.994-.235.089-.469.182-.704.279-.23.093-.461.186-.691.271a79.81 79.81 0 0 1-6.758 2.196l4.493 2.993c-.004.004.801.513 1.961.445zM243.608 136.343c1.354-.166 4.853-.501 6.527-.797.275-.048.546-.141.651.623.109.764-.954.922-.954.922-1.468.219-2.839.392-3.725.437 0 0-2.649.19-2.896.202-.307.012-.534-.162-.534-.162-.125-.485.081-1.12.931-1.225zM258.721 133.641l.335.829s.32.466 1.266-.004c.943-.469 4.813-2.551 7.053-4.226 1.662-1.241 3.175-2.883 3.458-3.239.283-.356.546-1.262.558-1.589.012-.328.202-.959-.526-.114-.728.846-3.324 3.054-5.059 4.206-1.735 1.153-6.082 3.341-6.822 3.624.004.004-.405.162-.263.513z" fill="#006399"/><path d="M144.878 70.682s-.474 1.08.477 2.172c.95 1.092 3.065 2.968 3.065 2.968s.534.21-.445 1.4c-.978 1.189-1.1 1.197-1.1 1.197s-.145.17-.38.182c-.178.012-.404-.07-.655-.385-.582-.727-1.767-1.852-2.337-2.79-.425-2.406.946-4.242 1.375-4.744z" fill="#0082C8"/><path d="M206.693 101.858c-.66-.582-1.638-.117-3.195.308-4.364-2.237-9.18-4.732-12.658-6.604.056-4.38.408-10.479.55-12.828 5.225 2.81 9.24 5.77 11.691 8.63 3.054 3.563 3.608 4.57 5.666 8.323.008.012.012.024.02.036l-.157 3.878-1.917-1.743z" fill="#94DAEE"/><path d="M216.783 99.89l4.837 2.066c.178-1.185.655-2.916.117-6.026-.53-3.057-2.075-5.184-2.075-5.184s.061-2.528-1.007-5.529a5.365 5.365 0 0 0-1.5-2.244c-.845.542-1.739 1.1-2.641 1.654l2.269 15.263z" fill="#D4CDBF"/><path d="M229.522 85.124s.271-2.337-.796-5.334c-.607-1.703-1.634-2.766-2.496-3.405-1.832 1.46-4.08 3.195-6.224 4.699a82.188 82.188 0 0 1-2.843 1.889 5.376 5.376 0 0 1 1.501 2.244c1.067 3 1.007 5.529 1.007 5.529l9.851-5.622z" fill="url(#paint0_linear)"/><path d="M221.737 95.934c-.53-3.057-2.075-5.184-2.075-5.184l9.856-5.622s1.25 1.901 2.087 4.57c.534 1.699.736 4.82.558 6.002l-10.543 6.26c.178-1.185.659-2.92.117-6.026z" fill="url(#paint1_linear)"/><path d="M241.125 97.439c-2.285-.93-5.225-1.86-6.334-2.083-1.945-.392-2.64.328-2.64.328l-10.487 6.224c.218 1.132 2.447 2.891 4.703 4.238 6.164-2.439 10.879-6.111 13.674-7.955.364-.234.724-.49 1.084-.752z" fill="url(#paint2_linear)"/><path d="M208.513 93.196l3.575-2.038s.23-2.006-.684-4.578l-.024-.056c-2.415 1.44-4.522 2.653-5.431 3.178.469.627 1.403 1.889 2.564 3.494z" fill="url(#paint3_linear)"/><path d="M212.087 91.158l-3.575 2.038a276.822 276.822 0 0 1 5.197 7.417l.647-.384c.15-1.015-.02-3.692-.477-5.148-.72-2.289-1.792-3.923-1.792-3.923z" fill="url(#paint4_linear)"/><path d="M217.405 106.445c3.406-2.063 7.268-4.542 7.369-5.027.174-.829-7.045-3.138-8.901-3.494-1.857-.352-2.52.295-2.52.295l-.922.518c1.828 2.653 3.656 5.427 4.974 7.708z" fill="url(#paint5_linear)"/><path d="M230.04 90.034s2.794.736 4.546 2.147c1.751 1.412 4.064 4.117 4.064 4.117l-1.687 2.633s-5.896-2.888-7.522-3.761c-1.625-.874-3.029-3.547-3.029-3.547l3.628-1.59z" fill="#014B89"/><path d="M228.054 90.875s.922 1.553.854 2.014c-.069.461.299 1.343.299 1.343s2.831 2.155 3.619 3.267c.789 1.117 1.549 2.852 1.335 2.868-.214.016-3.223 1.229-3.223 1.229s-2.645-2.81-4.21-3.595c-1.565-.78-3.919-2.273-4.489-4.877l5.815-2.249z" fill="#1A64A3"/><path d="M238.075 84.93s.017.004.041.004c.186.029.954.138 1.298.219.392.093.619-.029 1.116.546.498.578.473.966.453 1.355-.024.388-.153.966-.279 1.1-.125.133-.178.266-.36.234s-.263-.125-.251-.113c.009.012-.242-.004-.226-.267.016-.259.158-.825.158-.825l-.146-.465s-.36-.247-.465-.215c-.105.033-1.108.081-1.108.081s-1.403.101-1.933-.036c-.534-.138-5.071-1.274-5.492-1.553-.417-.283-1.998-2.313-2.661-2.977-.663-.663-.902-2.887-1.286-3.004-.38-.114-1.262-.057-1.262-.057l-.667-1.343s1.86-1.868 3.037-.914c1.177.95 1.569 1.521 1.763 1.776.194.255 2.18 3.805 2.73 4.21.554.404 4.149 1.981 4.715 1.973.405 0 .825.271.825.271z" fill="#F2A983"/><path d="M227.933 80.826s1.933 2.3 2.519 2.685c.583.384 1.351-.51 1.206 0-.146.51.036 1.023.238 1.132.202.11 4.505 1.19 4.801 1.278.295.09 1.399-.667 1.961-.327a.924.924 0 0 1 .425.946c-.328.024-.773.044-.773.044s-1.403.102-1.933-.036c-.534-.137-5.071-1.274-5.492-1.553-.416-.283-1.998-2.313-2.661-2.976-.194-.195-.352-.522-.489-.89l.198-.303z" fill="#D88F69"/><path d="M226.295 76.43s1.189-.474 2.063.29c.873.77 2.527 3.212 2.527 3.212s-1.698 2.637-2.98 2.98c-1.286.344-1.61-6.483-1.61-6.483z" fill="#F6C100"/><path d="M227.136 79.681c.226-.465 1.476-.388 1.808.566.198.579.441 1.104.602 1.428-.521.574-1.116 1.1-1.642 1.241-.538.142-.958-.954-1.274-2.28.235-.45.433-.813.506-.955z" fill="#DDA800"/><path d="M223.577 80.652c1.788.327 3.013.242 3.264-.732.251-.975-.813-3.021-.813-3.021l-.32-.101a142.39 142.39 0 0 1-3.494 2.685c.178.513.562 1.023 1.363 1.169z" fill="#D88F69"/><path d="M227.832 86.204c-.028-.368-.235-2.087-.235-2.087.332-.445.874-1.678.773-3.708-.101-2.03-1.395-3.822-1.395-3.822s-.478-.097-.866-.11c-.137.11-.283.223-.424.337.012.012.016.024.028.036.566.643.942 2.41-.17 3-.991.526-1.864-.064-2.402-.606l-.263-.263c-.95.716-1.921 1.428-2.875 2.095-.437.308-.914.631-1.424.967.17 2.09 2.285 5.637 2.718 6.349.501.825 1.181 5.379 1.181 5.379.675-.57 3.312-.947 5.5-1.61 2.192-.663 2.394-2.171 2.394-2.171s-.538-.292-.87-.62c-.327-.323-1.638-2.798-1.67-3.166z" fill="#F6C100"/><path d="M226.283 77.918c.74-.182.522-.813.526-1.278.004-.239.036-.51.068-.777-.764.615-1.621 1.294-2.531 1.998.695.166 1.435.182 1.937.057z" fill="#F2A983"/><path d="M226.643 77.744c.299-.271.166-.74.17-1.104.004-.239.036-.51.068-.777-.016.012-.028.025-.044.037.028.15.032.34-.182.36-.235.02-.093.428-.101.691 0 .142.028.49.089.793z" fill="#D88F69"/><path d="M221.911 84.287c-.105 1.096-.036 1.678.453 2.596.485.918.421 1.796 1.266 2.285.845.49 1.589-.028 2.447 0 .857.025.788-.012.695.566-.093.575-.044.923.672.716.719-.21 1.73-.546 1.532-.068-.157.384-2.099 1.516-2.721 2.252-.579.142-1.145.271-1.659.397a55.069 55.069 0 0 1-2.313-.47c-.238-1.411-.651-3.607-.982-4.157-.462-.76-2.662-4.004-2.544-6.006l2.374-.279c0-.008.885 1.072.78 2.168z" fill="#DDA800"/><path d="M234.194 94.337c.457 0 1.002-.142 1.609-.437 2.095-1.023 4.125-3.526 4.53-5.593.287-1.468-.32-2.317-1.452-2.317-.457 0-1.003.141-1.61.437-2.095 1.023-4.125 3.526-4.529 5.593-.287 1.468.323 2.317 1.452 2.317zm-.53-2.144c.339-1.718 2.111-3.894 3.874-4.755.453-.223.87-.336 1.201-.336.259 0 .445.069.558.206.174.21.215.627.118 1.137-.34 1.718-2.112 3.894-3.875 4.756-.453.222-.869.34-1.201.34-.259 0-.445-.07-.558-.207-.174-.214-.218-.63-.117-1.14z" fill="#39464A"/><path d="M248.591 89.452c.376-1.044.076-2.087-.328-2.884-3.005-.032-9.443 4.497-15.768 8.266-6.127 3.652-12.517 8.954-15.125 11.55.052.094.109.187.157.275.138.158.886.943 2.403 1.367 9.346-1.739 16.407-7.388 20.111-9.835 3.834-2.528 7.777-6.584 8.55-8.74z" fill="url(#paint6_linear)"/><path d="M247.017 91.947c-.339-2.014-1.751-3.818-1.751-3.818s-3.102-2.297-8.088 0c-4.987 2.297-5.747 7.239-5.747 7.239v.097c2.944 1.395 6.499 2.338 9.775 1.909 2.232-1.634 4.388-3.668 5.811-5.427z" fill="url(#paint7_linear)"/><path d="M224.475 100.124s-.461-2.867 2.819-4.626c3.28-1.76 5.88-.441 5.88-.441s4.141 2.835-.91 5.565c-5.047 2.729-7.789-.498-7.789-.498z" fill="url(#paint8_linear)"/><path d="M221.798 93.075c.251.275 1.108.955 1.278 1.408.17.453.384 1.14.307 1.605-.077.47-.04 1.076-.287 1.145-.247.068-.364.02-.364.02s-.02.32-.34.307c-.315-.012-.275-.141-.275-.141s-.258.198-.4.153c-.142-.044-.202-.542-.202-.542s-.227-1.168-.271-1.27c-.041-.1-.251-.659-.259-.465-.008.19.202.927.247 1.173.044.247.214.66.068.692-.145.028-.481-.376-.582-.724-.101-.348-.51-1.145-.518-1.383-.008-.235.126-1.218-.052-1.468-.178-.251-2.022-1.97-2.499-3.03-.478-1.063-.486-1.083-.567-1.564-.068-.417.146-.959.146-.959s.243-2.855.639-3.623c.396-.769.619-1.258.639-1.493.02-.234.206-1.168.942-1.261.736-.094 2.156 1.188 2.196 1.698.041.51-.57 1.064-.833 1.666-.263.603-.857 4.048-.857 4.048s1.387 3.507 1.844 4.008z" fill="#F2A983"/><path d="M223.096 97.232c-.246.07-.364.02-.364.02s-.02.32-.339.308c-.316-.012-.275-.142-.275-.142s-.259.199-.401.154c-.141-.044-.202-.542-.202-.542s-.166-.853-.243-1.165c.061-.194.579-.036.579-.036s.109-.101.348-.206c.238-.105.546-.04.546-.04s.137-.041.497-.166a.464.464 0 0 1 .101-.025c.049.251.073.494.04.7-.076.461-.04 1.072-.287 1.14zM220.467 95.805c.259 0 .502.028.619.04.057.24.122.49.146.615.044.247.214.66.069.692-.146.028-.482-.376-.583-.724-.044-.15-.149-.384-.251-.623z" fill="#D88F69"/><path d="M221.778 81.89c-.207-.688-.615-1.089-1.048-1.323-.242.174-.485.348-.724.513-.614.429-1.314.898-2.058 1.383-.231 1.052-.174 2.023-.174 2.023 1.646-.38 3.349.642 3.349.642s1.079-1.827.655-3.239z" fill="#F6C100"/><path d="M196.352 85.69a63.015 63.015 0 0 0-4.897-2.92l-.069.04c-.125 2.055-.396 6.758-.505 10.79l5.779-3.43c.129-.877.02-2.98-.308-4.48z" fill="url(#paint9_linear)"/><path d="M204.137 92.614c-.316-.38-.663-.793-1.052-1.246-.877-1.023-1.953-2.055-3.215-3.09-.821-.259-1.52-.453-1.933-.538-1.67-.335-2.265.283-2.265.283l-4.699 2.79a189.17 189.17 0 0 0-.137 4.757c1.423.768 3.077 1.638 4.828 2.556 1.877-1.117 6.059-3.774 8.473-5.513z" fill="url(#paint10_linear)"/><path d="M199.814 98.651s.053-2.171-.861-4.743c-1.024-2.876-3.939-3.13-3.939-3.13l1.124 7.582c1.565.817 3.203 1.666 4.824 2.499-.537-1.362-1.148-2.208-1.148-2.208z" fill="#D4CDBF"/><path d="M206.046 95.096c-.724-1.047-1.589-2.131-2.96-3.733-.918-1.067-2.051-2.151-3.385-3.235l-4.687 2.649s2.915.25 3.939 3.13c.914 2.572.861 4.744.861 4.744l6.232-3.555z" fill="url(#paint11_linear)"/><path d="M206.693 101.858l1.917 1.747.158-3.878a.138.138 0 0 0-.021-.036c-1.136-2.07-1.815-3.304-2.705-4.594l-6.232 3.554s.611.846 1.144 2.208c.854.441 1.707.878 2.54 1.307 1.561-.425 2.54-.89 3.199-.308z" fill="url(#paint12_linear)"/><path d="M198.419 88.37c.259.304.287 1.926.283 2.739.073-.012.145-.033.218-.06l2.443-1.46a34.057 34.057 0 0 0-3.009-2.492c-.611.368-1.096.66-1.246.748.441-.077 1.003.162 1.311.526z" fill="url(#paint13_linear)"/><path d="M197.113 87.841c.436-.068.995.166 1.306.53.259.303.287 1.925.283 2.738-.283.049-.518-.012-.518-.012s-1.48-.797-1.682-1.157c-.202-.36.562-2.066.562-2.066s.02-.016.049-.033z" fill="#D4CDBF"/><path d="M208.707 101.252l-1.622.962 1.529 1.391.093-2.353z" fill="url(#paint14_linear)"/><path d="M180.681 82.508c-1.024-2.876-3.939-3.13-3.939-3.13l1.35 9.119c1.776.99 3.531 1.97 5.165 2.875-.502-2.446-1.715-4.12-1.715-4.12s.053-2.172-.861-4.744z" fill="#D4CDBF"/><path d="M188.611 83.22l-7.069 4.031s1.209 1.679 1.715 4.121l3.146 1.752c.344-1.91 1.217-6.556 2.208-9.905z" fill="url(#paint15_linear)"/><path d="M188.611 83.22c.178-.595.356-1.157.538-1.647-.319-.165-.7-.376-1.132-.618-1.828-1.02-4.679-2.597-7.866-3.507l-3.413 1.93s2.915.25 3.939 3.13c.914 2.572.861 4.743.861 4.743l7.073-4.032z" fill="url(#paint16_linear)"/><path d="M180.317 77.496c.105.631.117 1.63.117 2.209.073-.013.146-.033.218-.061l2.14-1.278a25.94 25.94 0 0 0-2.475-.87z" fill="url(#paint17_linear)"/><path d="M178.234 78.536c.202.36 1.682 1.157 1.682 1.157s.235.06.518.012c0-.582-.012-1.577-.117-2.208-.579-.17-1.165-.32-1.764-.437-.202.526-.44 1.254-.319 1.476z" fill="#D4CDBF"/><path opacity=".45" d="M188.017 80.954c.433.239.813.453 1.132.62-1.197 3.243-2.341 9.3-2.746 11.55-3.971-2.209-9.532-5.307-14.235-7.931l2.616-8.436c5.173-.284 10.41 2.628 13.233 4.197zM220.002 81.08c4.141-2.896 8.667-6.67 9.827-7.644 1.525 1.02 8.331 5.59 10.705 7.49 4.04 3.227 7.433 5.48 7.466 5.5l.044.028.049.02c.048.02.105.045.157.065.413.8.72 1.856.34 2.912-.772 2.156-4.715 6.212-8.549 8.744-3.705 2.442-10.766 8.096-20.112 9.835-1.516-.425-2.265-1.209-2.402-1.367-3.288-5.747-10.013-14.854-11.578-16.957 2.022-1.165 9.896-5.715 14.053-8.626zM206.693 101.858c-.66-.582-1.638-.117-3.195.308-4.364-2.237-9.18-4.732-12.658-6.604.056-4.38.408-10.479.55-12.828 5.225 2.81 9.24 5.77 11.691 8.63 3.054 3.563 3.608 4.57 5.666 8.323.008.012.012.024.02.036l-.157 3.878-1.917-1.743z" fill="#94DAEE"/><path d="M293.878 46.351h-2.737v53.759h2.737V46.351zM353.572 48.375h-2.737v53.759h2.737v-53.76z" fill="#5F6464"/><path d="M360.465 22.069h-76.93c-2.5 0-4.535 2.015-4.535 4.492v43.628c0 2.476 2.035 4.492 4.535 4.492h76.93c2.5 0 4.535-2.016 4.535-4.492V26.56c0-2.477-2.035-4.492-4.535-4.492z" fill="#004EBB"/><path d="M360.465 23.423c1.742 0 3.17 1.412 3.17 3.14V70.19c0 1.726-1.426 3.14-3.17 3.14h-76.93c-1.742 0-3.17-1.413-3.17-3.14V26.56c0-1.725 1.426-3.139 3.17-3.139h76.93v.002zm0-1.354h-76.93c-2.5 0-4.535 2.015-4.535 4.492v43.628c0 2.476 2.035 4.492 4.535 4.492h76.93c2.5 0 4.535-2.016 4.535-4.492V26.56c0-2.477-2.035-4.492-4.535-4.492z" fill="#fff"/><g clip-path="url(#clip0)"><path d="M327.052 41.594a1.887 1.887 0 0 0-.673-.487 2.014 2.014 0 0 0-.626-.158 2.73 2.73 0 0 0-.965.048 2.178 2.178 0 0 0-.802.397c-.416.315-.722.754-.937 1.222-.052.12-.1.24-.143.364-.052.167-.119.324-.167.491a5.46 5.46 0 0 0-.191 1.185h-.354v-.072c.005-.563.12-1.122.273-1.662.095-.344.21-.683.339-1.017.057-.158.129-.31.191-.468.091-.23.172-.468.234-.707a3.67 3.67 0 0 0 .119-.86 2.715 2.715 0 0 0-.138-.893c-.167-.526-.44-1.013-.741-1.471a6.356 6.356 0 0 0-.482-.655c-.172.206-.33.43-.482.654-.301.46-.574.946-.741 1.472a2.824 2.824 0 0 0-.138.893c.004.291.047.578.119.86.062.243.139.477.234.707.062.157.134.31.191.468.124.334.239.673.339 1.017.153.54.268 1.099.273 1.662v.072h-.354a5.46 5.46 0 0 0-.191-1.185c-.048-.167-.115-.33-.167-.491a2.615 2.615 0 0 0-.143-.364c-.211-.468-.521-.907-.937-1.222a2.178 2.178 0 0 0-.802-.397 2.73 2.73 0 0 0-.965-.048c-.22.024-.425.067-.626.158a2.062 2.062 0 0 0-.673.487 1.822 1.822 0 0 0-.32 1.896c.148.35.454.65.798.817a1.76 1.76 0 0 0 1.074.13c.21-.039.401-.125.578-.244a1.686 1.686 0 0 1-.196-.167c-.181-.192-.301-.464-.186-.717.1-.224.354-.34.588-.387.234-.048.472-.024.692.077.234.11.421.296.569.501.238.334.396.74.458 1.151h-.349s-.114.072-.114.301c0 .23.114.301.114.301h.378a2.687 2.687 0 0 1-.1.545c-.072.234-.177.477-.363.645a.697.697 0 0 1-.54.176.377.377 0 0 1-.32-.23.67.67 0 0 1-.005-.472.865.865 0 0 0-.311.043.622.622 0 0 0-.382.368.843.843 0 0 0-.033.406.948.948 0 0 0 .124.372.656.656 0 0 0 .397.277c.315.086.678.015.964-.138.344-.182.588-.53.731-.884.144-.358.22-.735.253-1.117h.33a6.581 6.581 0 0 1-.053.439 3.291 3.291 0 0 1-.076.373c-.038.133-.091.267-.139.4-.085.24-.176.483-.205.736a2.244 2.244 0 0 0-.014.402c0 .086.014.172.033.253.034.124.086.243.139.363.095.2.205.396.315.587.076.134.158.268.239.402.081-.134.162-.268.239-.402.109-.19.219-.387.315-.587.057-.115.105-.239.138-.363a.895.895 0 0 0 .034-.253 2.244 2.244 0 0 0-.014-.402 3.615 3.615 0 0 0-.206-.735c-.048-.134-.1-.263-.138-.401a3.287 3.287 0 0 1-.077-.373c-.024-.143-.038-.291-.052-.44h.329c.029.383.11.76.253 1.118.139.349.387.702.731.884.287.148.65.224.965.138a.674.674 0 0 0 .396-.277.924.924 0 0 0 .125-.372.836.836 0 0 0-.034-.406.632.632 0 0 0-.382-.368.857.857 0 0 0-.31-.043.675.675 0 0 1-.005.473.397.397 0 0 1-.32.23.696.696 0 0 1-.54-.177c-.186-.168-.296-.411-.363-.645a2.679 2.679 0 0 1-.1-.545h.377s.115-.072.115-.3c0-.23-.115-.302-.115-.302h-.358c.062-.41.22-.817.458-1.15.148-.206.34-.393.569-.502.22-.105.454-.125.692-.077.234.043.488.158.588.387.115.253-.005.526-.186.717-.058.062-.125.119-.196.167.177.12.368.205.578.243.358.067.745.029 1.075-.129a1.68 1.68 0 0 0 .797-.817 1.811 1.811 0 0 0-.32-1.896z" fill="#FFC817"/><path d="M327.415 41.279a2.425 2.425 0 0 0-.836-.611 2.517 2.517 0 0 0-.764-.196 4.177 4.177 0 0 0-.416-.024c-.253 0-.491.029-.716.081a2.683 2.683 0 0 0-1.036.53l.057-.21c.086-.339.129-.664.134-.974a3.287 3.287 0 0 0-.163-1.042c-.162-.501-.42-1.022-.798-1.59a7.7 7.7 0 0 0-.511-.698.472.472 0 0 0-.367-.172.474.474 0 0 0-.368.172 7.43 7.43 0 0 0-.511.698c-.378.568-.636 1.089-.798 1.59-.11.344-.162.693-.162 1.042.004.305.047.635.133.974l.058.21c-.019-.014-.039-.028-.058-.047a2.667 2.667 0 0 0-.979-.483 3.125 3.125 0 0 0-.716-.081c-.139 0-.277.01-.416.024-.296.033-.54.095-.764.196-.32.143-.612.353-.836.611a2.296 2.296 0 0 0-.401 2.403c.186.439.573.835 1.027 1.06.282.139.606.21.941.21.143 0 .286-.014.43-.038.267-.048.52-.158.759-.32a.48.48 0 0 0 .01-.788.946.946 0 0 1-.129-.11c-.082-.086-.105-.167-.096-.191.01-.024.086-.081.244-.11.047-.01.1-.014.143-.014.091 0 .177.019.248.052.139.067.268.182.387.349.101.138.182.296.249.459-.005.004-.01.004-.015.009-.162.1-.339.344-.339.707 0 .325.134.65.134.65l-.315-.125a.452.452 0 0 0-.144-.033c-.028 0-.057-.005-.086-.005-.143 0-.281.024-.415.072-.315.11-.559.349-.674.654a1.34 1.34 0 0 0-.062.636c.029.224.096.41.196.568.148.234.387.401.674.482.129.038.272.053.415.053.301 0 .621-.081.903-.23.043-.023.081-.047.124-.071v.005c.005.124.019.248.048.363.043.172.115.33.172.449.105.22.224.43.334.62.062.106.129.22.206.345l.449.754.449-.754c.076-.125.143-.24.205-.344a7.45 7.45 0 0 0 .334-.621c.058-.12.125-.277.172-.45.029-.114.048-.233.048-.362v-.005a1.98 1.98 0 0 0 1.027.3c.143 0 .282-.018.416-.052.281-.076.52-.248.673-.482.1-.158.167-.344.196-.569.029-.229.009-.444-.062-.635a1.101 1.101 0 0 0-.674-.654 1.22 1.22 0 0 0-.415-.072c-.029 0-.058 0-.086.005a.526.526 0 0 0-.144.033l-.315.124s.134-.32.134-.644v-.005c0-.363-.177-.602-.339-.707-.014-.005-.019-.01-.024-.01.062-.167.148-.32.248-.458.12-.167.249-.282.387-.349a.558.558 0 0 1 .249-.052c.047 0 .095.005.143.014.158.029.234.09.244.11.009.024-.02.105-.096.19a.737.737 0 0 1-.129.11.48.48 0 0 0 .01.789c.238.162.496.267.759.32.139.024.287.038.43.038.334 0 .659-.072.941-.21.454-.22.841-.616 1.027-1.06a2.282 2.282 0 0 0-.392-2.403zm-.043 2.211a1.68 1.68 0 0 1-.797.817c-.225.11-.483.163-.736.163-.115 0-.229-.01-.339-.034a1.513 1.513 0 0 1-.578-.243c.071-.053.134-.105.196-.167.181-.192.301-.464.186-.717-.1-.224-.354-.34-.588-.387a1.29 1.29 0 0 0-.234-.024c-.157 0-.31.034-.453.1-.234.11-.421.297-.569.502a2.69 2.69 0 0 0-.458 1.151h.358s.115.072.115.301c0 .23-.115.301-.115.301h-.387c.014.186.048.368.1.545.072.234.177.477.363.644a.701.701 0 0 0 .468.182c.024 0 .048 0 .077-.005a.379.379 0 0 0 .32-.23c.067-.147.052-.32.005-.472h.052a.79.79 0 0 1 .258.043.62.62 0 0 1 .382.368.832.832 0 0 1 .034.406.965.965 0 0 1-.124.372.659.659 0 0 1-.397.277 1.152 1.152 0 0 1-.287.039c-.234 0-.477-.067-.678-.172-.344-.182-.587-.53-.731-.884a3.944 3.944 0 0 1-.253-1.118h-.329c.014.148.028.292.052.44.019.124.043.253.077.372.038.134.09.268.138.402.086.238.177.482.206.735.019.134.019.268.014.401 0 .086-.014.172-.034.254-.033.124-.086.243-.138.363-.096.2-.205.396-.315.587-.077.134-.158.267-.239.401-.081-.134-.163-.267-.239-.4a8.348 8.348 0 0 1-.315-.588 1.953 1.953 0 0 1-.139-.364.894.894 0 0 1-.033-.253 2.245 2.245 0 0 1 .014-.4c.034-.254.12-.498.205-.736.048-.134.101-.263.139-.402.033-.124.057-.248.076-.372.024-.144.039-.292.053-.44h-.33c-.028.382-.109.76-.253 1.118-.138.349-.387.702-.731.884a1.5 1.5 0 0 1-.678.172.959.959 0 0 1-.286-.039.676.676 0 0 1-.397-.277.923.923 0 0 1-.124-.372.848.848 0 0 1 .033-.406.635.635 0 0 1 .382-.368.795.795 0 0 1 .258-.043h.053a.67.67 0 0 0 .005.473c.057.129.176.21.32.23a.709.709 0 0 0 .544-.177c.187-.168.296-.411.363-.645a2.68 2.68 0 0 0 .101-.545h-.382s-.115-.072-.115-.3c0-.23.115-.302.115-.302h.358a2.692 2.692 0 0 0-.459-1.15 1.551 1.551 0 0 0-.568-.502 1.084 1.084 0 0 0-.688-.077c-.234.043-.487.158-.588.387-.114.253.005.525.187.717.057.062.124.119.196.167-.177.12-.368.205-.578.243-.11.02-.225.034-.34.034-.253 0-.511-.053-.735-.163a1.678 1.678 0 0 1-.798-.817 1.817 1.817 0 0 1 .32-1.896 1.9 1.9 0 0 1 .674-.487c.2-.09.406-.134.625-.158.12-.014.244-.019.363-.019.206 0 .406.02.602.067.292.072.569.215.803.397.415.315.721.754.936 1.222.053.12.1.24.143.363.053.168.12.325.167.492a5.464 5.464 0 0 1 .192 1.185h.353v-.072c-.005-.563-.119-1.122-.272-1.662-.096-.344-.21-.683-.339-1.017-.058-.158-.129-.31-.191-.468a6.262 6.262 0 0 1-.235-.707 3.778 3.778 0 0 1-.119-.86 2.69 2.69 0 0 1 .139-.893c.167-.526.439-1.013.74-1.471.148-.225.306-.45.482-.655.172.206.33.43.483.654.301.46.573.946.74 1.472.091.291.143.587.139.893a3.724 3.724 0 0 1-.12.86 5.033 5.033 0 0 1-.234.707c-.062.157-.134.31-.191.468-.124.334-.239.673-.339 1.017-.153.54-.267 1.099-.272 1.662v.072h.353a5.46 5.46 0 0 1 .191-1.185c.048-.167.115-.33.167-.492.039-.124.086-.243.144-.363.21-.468.52-.907.936-1.222.234-.182.511-.325.802-.397a2.56 2.56 0 0 1 .602-.067c.124 0 .244.01.363.02.22.023.425.066.626.157.253.115.487.282.674.487.444.516.573 1.261.305 1.896z" fill="#2D2D2D"/><path d="M293.903 34.864l-1.605-6.754h1.634l.511 2.785c.148.802.291 1.671.401 2.354h.019c.11-.73.272-1.542.439-2.374l.574-2.765h1.624l.539 2.847c.149.793.263 1.514.359 2.264h.019c.1-.75.248-1.543.391-2.345l.55-2.766h1.552l-1.743 6.754h-1.653l-.573-2.904a24.458 24.458 0 0 1-.32-2.083h-.019c-.12.76-.23 1.405-.392 2.083l-.64 2.904h-1.667zM305.73 32.008h-2.484v1.604h2.775v1.252h-4.308V28.11h4.17v1.251h-2.637v1.405h2.484v1.242zM307.062 28.11h1.534v5.474h2.684v1.285h-4.218v-6.76zM316.764 34.673c-.282.138-.913.291-1.734.291-2.336 0-3.54-1.452-3.54-3.377 0-2.302 1.643-3.587 3.688-3.587.793 0 1.394.162 1.662.3l-.31 1.214a3.329 3.329 0 0 0-1.285-.248c-1.214 0-2.155.73-2.155 2.235 0 1.352.803 2.207 2.164 2.207.463 0 .975-.1 1.276-.22l.234 1.185zM323.647 31.415c0 2.217-1.343 3.559-3.315 3.559-2.007 0-3.177-1.514-3.177-3.44-.005-2.02 1.29-3.534 3.286-3.534 2.074 0 3.206 1.552 3.206 3.415zm-4.882.091c0 1.323.621 2.255 1.643 2.255 1.032 0 1.624-.984 1.624-2.293 0-1.213-.583-2.255-1.633-2.255-1.032 0-1.634.984-1.634 2.293zM330.362 32.28c-.028-.812-.062-1.796-.062-2.775h-.028c-.211.86-.492 1.824-.75 2.617l-.822 2.637h-1.194l-.721-2.618a32.112 32.112 0 0 1-.612-2.636h-.019c-.043.912-.071 1.953-.124 2.794l-.119 2.565h-1.414l.43-6.754h2.034l.66 2.254c.21.784.42 1.624.573 2.417h.028c.192-.783.421-1.671.641-2.426l.721-2.245h1.992l.377 6.754h-1.495l-.096-2.584zM337.145 32.008h-2.484v1.604h2.775v1.252h-4.308V28.11h4.17v1.251h-2.637v1.405h2.484v1.242zM341.415 29.395H339.6V28.11h5.192v1.285h-1.843v5.474h-1.534v-5.474zM351.494 31.415c0 2.217-1.342 3.559-3.315 3.559-2.006 0-3.176-1.514-3.176-3.44 0-2.025 1.294-3.539 3.286-3.539 2.073.005 3.205 1.557 3.205 3.42zm-4.882.091c0 1.323.621 2.255 1.643 2.255 1.032 0 1.624-.984 1.624-2.293 0-1.213-.582-2.255-1.633-2.255-1.032 0-1.634.984-1.634 2.293zM333.615 58.575a74.918 74.918 0 0 0-2.283-.201c-.148.573-.287 1.151-.425 1.724.291.115.583.234.879.349-.019.363-.034.721-.048 1.08-.989-.11-1.977-.23-2.957-.34-.019-.339-.043-.673-.057-1.012.315-.081.626-.163.946-.244.305-1.017.625-2.044.931-3.076.306-1.036.621-2.087.941-3.138.21-.707.401-1.428.569-2.164.52-.138 1.05-.272 1.581-.415.028.014.057.028.09.047a473.606 473.606 0 0 1 2.713 9.563l.621.368c-.033.396-.071.788-.095 1.184l-3.654-.573c-.034-.363-.062-.726-.091-1.089.248-.086.506-.167.764-.253-.143-.602-.282-1.209-.425-1.81zm10.571.21c-.019-.932-.048-1.868-.062-2.794-.015-.932-.043-1.859-.058-2.79-.353-.172-.702-.344-1.051-.516.02-.396.043-.793.063-1.19 1.098.006 2.197.015 3.3.02.014.449.034.898.057 1.342-.382.148-.764.296-1.146.44-.019 1.786-.048 3.572-.062 5.359-.014 1.782-.057 3.42-.067 5.202-.32.472-1.094.792-1.648.52-.091-.048-.167-.095-.191.029-.181.86.678 1.304 1.347 1.571 2.092.84 4.805.526 7.27.655-.277-1.543-.822-4.548-.936-5.212a79.616 79.616 0 0 0-2.269-.458c-.143.745-.291 1.49-.43 2.226.291.181.583.367.879.554-.019.473-.033.95-.048 1.423-.984-.267-1.968-.53-2.942-.797-.019-.435-.043-.874-.057-1.31.31-.07.62-.142.936-.219.31-1.29.625-2.594.936-3.922.315-1.337.626-2.698.936-4.079.21-.926.401-1.882.569-2.851.52-.177 1.046-.363 1.571-.55.029.024.057.043.081.063 1.065 4.915 2.04 9.983 3.024 14.936l1.323 1.036v1.667c-3.955-1.308-8.779 1.28-12.061-2.455-.778-.87-1.782-3.105-1.017-4.222.2-.268.473-.42.812-.43-.167-.377-.339-.75-.502-1.123-.458-1.012-.926-2.01-1.385-2.98-.492-1.013-.989-2.011-1.476-2.995l-.043.014c.005 1.051.019 2.107.029 3.162.004 1.056.019 2.111.033 3.162.354.177.712.359 1.065.535-.028.411-.057.822-.076 1.233-1.084-.21-2.173-.43-3.258-.645-.019-.377-.043-.75-.057-1.127.368-.082.745-.168 1.122-.254.029-1.328.058-2.65.082-3.978.028-1.328.057-2.661.081-3.989-.382-.162-.764-.325-1.142-.482.019-.373.048-.745.077-1.118.759.029 1.39.033 1.891.02.502-.015.855-.025 1.08-.034.062.224.138.43.215.616.076.186.143.349.21.487.511 1.037 1.032 2.092 1.552 3.172.468 1.012.941 2.044 1.414 3.095l.029-.02zm5.211-1.414c-.124.64-.244 1.28-.358 1.91.539.082 1.079.172 1.619.268-.124-.712-.244-1.423-.358-2.13-.144-.817-.282-1.63-.421-2.432-.014.005-.028.015-.043.02-.148.792-.291 1.58-.439 2.364zm-47.742 8.077c.779-.87 1.782-3.105 1.018-4.222a1.05 1.05 0 0 0-.382-.325c-.66-.316-1.433.12-1.753.764-.101.21-.139.387-.129.616.014.21.062.368.176.54a.94.94 0 0 0 .731.416c.349.01.526-.072.435.448-.105.502-.741.817-1.319 1.047-2.803 1.122-5.693.358-8.669.974l-.005-.669V52.074c.368-.182.745-.358 1.123-.53-.019-.483-.034-.97-.048-1.457-1.385.014-2.89.028-4.27.038-.029.511-.058 1.017-.077 1.524.349.2.698.396 1.051.587v13.752c-.334.315-.669.63-1.003.95.019.502.043.999.072 1.495 4.461-1.9 9.725.717 13.049-2.985zm-.492-8.53c0 .716-.057 1.432-.181 2.168a8.15 8.15 0 0 1-.597 2.025 5.462 5.462 0 0 1-1.113 1.614 3.711 3.711 0 0 1-1.691.97c-.659.172-1.218.182-1.677.02-.468-.168-.836-.488-1.127-.966-.287-.473-.497-1.098-.635-1.872-.139-.779-.201-1.691-.201-2.727 0-.827.057-1.658.172-2.499.12-.836.311-1.59.597-2.25.282-.654.664-1.189 1.142-1.59.477-.401 1.079-.592 1.801-.597.597 0 1.117.143 1.557.42a3.25 3.25 0 0 1 1.098 1.161c.287.497.502 1.089.64 1.786.144.698.215 1.472.215 2.336zm-3.577-3.688c-.349.014-.621.172-.822.487-.196.31-.344.688-.444 1.137a8.37 8.37 0 0 0-.182 1.428c-.024.501-.043.95-.043 1.347 0 .645.024 1.223.072 1.729.043.511.119.94.229 1.285.11.344.253.602.44.764.186.163.43.206.721.143.32-.066.578-.253.779-.544.195-.287.348-.64.453-1.051a7.67 7.67 0 0 0 .215-1.3c.039-.458.058-.902.058-1.327 0-.483-.019-.97-.062-1.457a7.3 7.3 0 0 0-.225-1.328 2.84 2.84 0 0 0-.454-.96.827.827 0 0 0-.735-.353zm10.905-.387c-.311-.134-.626-.273-.941-.411.019-.334.047-.664.076-.998 1.07-.005 2.145-.005 3.219-.01.019.34.043.678.072 1.017l-1.046.344c-.005.832-.014 1.667-.019 2.499-.005.83-.01 1.667-.019 2.498a6.458 6.458 0 0 1-.172 1.423c-.105.406-.249.76-.425 1.046a3.104 3.104 0 0 1-.612.731 3.225 3.225 0 0 1-.716.478c-.253.12-.507.215-.76.286a5.467 5.467 0 0 1-.716.167 4.293 4.293 0 0 1-.607.053 2.804 2.804 0 0 1-.702-.077 2.655 2.655 0 0 1-.712-.296 2.022 2.022 0 0 1-.625-.587 3.151 3.151 0 0 1-.445-.97c-.114-.392-.167-.87-.167-1.433v-2.808-2.809a37.28 37.28 0 0 1-.989-.43c.02-.358.048-.721.077-1.084 1.299-.01 2.603-.014 3.902-.02l.043 1.076c-.339.124-.673.248-1.008.372v4.939c0 .315.02.616.063.898.043.287.119.525.243.73.12.201.287.35.502.45.215.095.492.124.84.076a1.652 1.652 0 0 0 1.276-.874c.133-.243.224-.53.286-.87.058-.334.082-.697.082-1.093v-2.164-2.15zm7.303 7.957l-4.079.258c-.029-.315-.048-.63-.072-.95.349-.153.697-.306 1.046-.463V56.21v-3.439c-.349-.129-.688-.263-1.032-.396.019-.316.048-.636.077-.956 1.356 0 2.713-.004 4.069-.004l.043.979c-.367.11-.735.215-1.098.325v6.811l1.098.258c-.014.339-.038.678-.052 1.013zm4.227-9.6c.105 0 .229.01.377.019a4.58 4.58 0 0 1 .97.196c.167.052.325.124.473.205.072-.139.139-.282.215-.42h.535v3.229l-.65.114c-.148-.458-.291-.917-.439-1.376a1.996 1.996 0 0 0-.597-.248 2.667 2.667 0 0 0-.683-.095c-.258 0-.464.057-.621.157-.158.105-.234.287-.234.55 0 .124.057.258.172.391.119.134.272.273.458.411.191.139.411.282.65.43.243.148.487.296.735.454.239.148.454.305.66.463.21.162.387.344.549.55.158.205.287.448.377.725.091.282.134.607.134.98 0 .363-.048.726-.148 1.093a2.506 2.506 0 0 1-.502.984c-.238.292-.558.521-.96.693-.396.172-.898.248-1.495.248-.153 0-.32 0-.506-.019a10.564 10.564 0 0 1-.559-.062 6.384 6.384 0 0 1-.544-.105 2.638 2.638 0 0 1-.454-.158c-.081.13-.167.258-.249.383-.2.004-.396.004-.592.01v-1.859-1.858l.626-.129c.148.54.291 1.075.439 1.61.105.09.234.172.382.234.153.067.306.114.468.157.153.039.306.067.454.091.148.02.273.029.382.024a1.74 1.74 0 0 0 .569-.086.754.754 0 0 0 .325-.224.711.711 0 0 0 .148-.292c.019-.105.033-.205.033-.306a.806.806 0 0 0-.119-.41 1.483 1.483 0 0 0-.316-.363 3.046 3.046 0 0 0-.468-.335c-.176-.105-.372-.224-.582-.344a20.88 20.88 0 0 1-.822-.506 3.728 3.728 0 0 1-.721-.611 2.784 2.784 0 0 1-.516-.77c-.129-.281-.186-.616-.186-.998 0-.353.047-.702.152-1.041.106-.34.268-.64.492-.912a2.4 2.4 0 0 1 .879-.64c.363-.153.803-.234 1.309-.234zm8.264 9.916c-1.367-.096-2.728-.196-4.084-.282-.019-.31-.043-.621-.062-.931.348-.12.697-.23 1.046-.344v-3.401-3.401l-1.032-.411c.019-.306.048-.621.076-.931 1.352.004 2.709.004 4.065.01.014.338.029.677.048 1.012-.368.105-.736.21-1.099.31v6.936c.363.129.731.263 1.099.391a38.32 38.32 0 0 0-.057 1.042zm3.73-5.498c-.124.492-.244.98-.363 1.462.545.033 1.084.071 1.634.119-.125-.53-.244-1.056-.363-1.581-.148-.607-.292-1.209-.43-1.81l-.043.014c-.139.602-.287 1.199-.435 1.796z" fill="#fff"/></g><defs><linearGradient id="paint0_linear" x1="223.355" y1="90.746" x2="223.355" y2="76.384" gradientUnits="userSpaceOnUse"><stop offset=".003" stop-color="#C2B69C"/><stop offset=".505" stop-color="#E3DFD7"/><stop offset=".797" stop-color="#E6E6E6"/></linearGradient><linearGradient id="paint1_linear" x1="223.002" y1="89.08" x2="228.203" y2="98.088" gradientUnits="userSpaceOnUse"><stop stop-color="#E3DFD7"/><stop offset=".997" stop-color="#C2B69C"/></linearGradient><linearGradient id="paint2_linear" x1="221.664" y1="100.694" x2="241.123" y2="100.694" gradientUnits="userSpaceOnUse"><stop offset=".005" stop-color="#CCC1AB"/><stop offset=".182" stop-color="#D0C6B4"/><stop offset=".488" stop-color="#D3CBBC"/><stop offset=".997" stop-color="#D4CDBF"/></linearGradient><linearGradient id="paint3_linear" x1="205.95" y1="89.86" x2="212.114" y2="89.86" gradientUnits="userSpaceOnUse"><stop stop-color="#E3DFD7"/><stop offset=".997" stop-color="#C2B69C"/></linearGradient><linearGradient id="paint4_linear" x1="211.462" y1="100.614" x2="211.462" y2="91.158" gradientUnits="userSpaceOnUse"><stop offset=".003" stop-color="#C2B69C"/><stop offset="1" stop-color="#E3DFD7"/></linearGradient><linearGradient id="paint5_linear" x1="212.432" y1="102.133" x2="224.778" y2="102.133" gradientUnits="userSpaceOnUse"><stop offset=".003" stop-color="#C2B69C"/><stop offset="1" stop-color="#E3DFD7"/></linearGradient><linearGradient id="paint6_linear" x1="217.37" y1="97.297" x2="248.765" y2="97.297" gradientUnits="userSpaceOnUse"><stop offset=".003" stop-color="#389CC7"/><stop offset="1" stop-color="#2E7EC9"/></linearGradient><linearGradient id="paint7_linear" x1="231.433" y1="92.295" x2="247.019" y2="92.295" gradientUnits="userSpaceOnUse"><stop offset=".003" stop-color="#389CC7"/><stop offset="1" stop-color="#2E7EC9"/></linearGradient><linearGradient id="paint8_linear" x1="232.934" y1="95.71" x2="225.914" y2="100.965" gradientUnits="userSpaceOnUse"><stop stop-color="#2E7EC9"/><stop offset=".997" stop-color="#389CC7"/></linearGradient><linearGradient id="paint9_linear" x1="190.882" y1="88.186" x2="196.713" y2="88.186" gradientUnits="userSpaceOnUse"><stop stop-color="#E3DFD7"/><stop offset=".997" stop-color="#C2B69C"/></linearGradient><linearGradient id="paint10_linear" x1="190.84" y1="92.879" x2="204.138" y2="92.879" gradientUnits="userSpaceOnUse"><stop stop-color="#E3DFD7"/><stop offset=".997" stop-color="#C2B69C"/></linearGradient><linearGradient id="paint11_linear" x1="195.01" y1="93.391" x2="206.047" y2="93.391" gradientUnits="userSpaceOnUse"><stop offset=".203" stop-color="#E6E6E6"/><stop offset=".495" stop-color="#E3DFD7"/><stop offset=".997" stop-color="#C2B69C"/></linearGradient><linearGradient id="paint12_linear" x1="204.293" y1="103.604" x2="204.293" y2="95.097" gradientUnits="userSpaceOnUse"><stop stop-color="#E3DFD7"/><stop offset=".997" stop-color="#C2B69C"/></linearGradient><linearGradient id="paint13_linear" x1="197.114" y1="89.098" x2="201.366" y2="89.098" gradientUnits="userSpaceOnUse"><stop offset=".203" stop-color="#E6E6E6"/><stop offset=".495" stop-color="#E3DFD7"/><stop offset=".997" stop-color="#D4CDBF"/></linearGradient><linearGradient id="paint14_linear" x1="207.086" y1="102.428" x2="208.709" y2="102.428" gradientUnits="userSpaceOnUse"><stop stop-color="#E3DFD7"/><stop offset=".997" stop-color="#C2B69C"/></linearGradient><linearGradient id="paint15_linear" x1="181.543" y1="88.171" x2="188.612" y2="88.171" gradientUnits="userSpaceOnUse"><stop stop-color="#E3DFD7"/><stop offset=".997" stop-color="#C2B69C"/></linearGradient><linearGradient id="paint16_linear" x1="176.739" y1="82.351" x2="189.149" y2="82.351" gradientUnits="userSpaceOnUse"><stop offset=".203" stop-color="#E6E6E6"/><stop offset=".495" stop-color="#E3DFD7"/><stop offset=".997" stop-color="#C2B69C"/></linearGradient><linearGradient id="paint17_linear" x1="180.316" y1="78.599" x2="182.788" y2="78.599" gradientUnits="userSpaceOnUse"><stop offset=".203" stop-color="#E6E6E6"/><stop offset=".495" stop-color="#E3DFD7"/><stop offset=".997" stop-color="#D4CDBF"/></linearGradient><clipPath id="clip0"><path fill="#fff" transform="translate(288.486 28)" d="M0 0h67.01v41.15H0z"/></clipPath></defs></svg>