<svg width="375" height="156" fill="none" xmlns="http://www.w3.org/2000/svg" viewBox="0 0 375 156"><path d="M375 0H0v156h375V0z" fill="#F5FCFF"/><mask id="a" maskUnits="userSpaceOnUse" x="0" y="0" width="375" height="156"><path transform="matrix(-1 0 0 1 375 0)" fill="#F5FCFF" d="M0 0h375v156H0z"/></mask><g mask="url(#a)"><path d="M481.001-5.706L374.813.097 176.849 20.841l-36.882 21.902 167.705 97.683 140.778 13.258 32.551-159.39z" fill="#00AD00"/><path d="M437.509-7.297S75.411 4.265 51.072 44.358C21.095 93.745 318.26 226.2 318.26 226.2l250.865-59.442s-397.638-99.299-379.744-129.2C208.081 6.31 578.295-2.295 578.295-2.295L437.509-7.297z" fill="#fff"/><path d="M346.422 206.702S52.672 89.192 79.234 44.358C103.14 4.01 465.671-5.998 465.671-5.998l81.019 1.535S176.252 6.173 157.777 37.553c-19.75 33.549 379.744 144.365 379.744 144.365l-191.099 24.784z" fill="#004EBB"/></g><path d="M141.165 92.852c-1.585.91-1.549 2.325.085 3.146l15.129 9.682 80.111 40.308c1.634.821 4.327.801 6.123.441 6.814-1.383 16.86-4.493 22.215-7.077 1.645-.797 4.027-2.322 5.5-3.405 2.479-1.82 6.62-5.747 8.064-8.72.796-1.646 1.015-3.021-.619-3.846l-98.435-49.537c-1.634-.82-4.267-.752-5.852.158l-32.321 18.85z" fill="#0032A5"/><path d="M143.499 75.43c-.494-2.843 1.5-4.885 1.5-4.885s1.124-3.296 4.089-6.904c2.964-3.603 14.081-9.997 17.236-11.311 3.15-1.315 6.665-1.476 8.392-1.238 1.73.239 9.811 2.787 9.811 2.787s9.787.78 17.911 4.012c8.125 3.23 16.929 8.088 23.452 11.562 3.802 2.022 10.77 7.316 15.926 11.376l.603-.384s-.502-2.374-.388-2.795c.113-.424 1.326-3.397 1.326-3.397s1.48 1.5 1.933 2.742c.453 1.242-.327 3.114-.57 4.024-.138.518-.445 1.132-.679 1.57-.004-.005-.013-.009-.017-.013a370.392 370.392 0 0 1 4.251 3.442c8.974 3.522 20.536 13.499 20.536 13.499 2.208.113 3.733 4.279 5.322 7.118 1.594 2.843 1.509 4.756 1.464 5.589-.048.833 1.06 12.759-8.618 19.46-9.682 6.697-21.232 8.194-26.376 7.846a25.763 25.763 0 0 1-5.852-1.088c-.202-.966-.388-1.872-.429-2.503-.311-5.193-4.933-11.401-9.665-13.577-6.127-2.818-8.982.045-8.667 5.242.033.513.186 1.326.393 2.18l-46.674-23.505c-.206-1.108-.429-2.245-.538-2.932-.768-4.728-4.457-10.054-8.566-12.517-6.567-3.935-8.529-.198-7.825 4.954v.008c-2.329-2.119-6.196-5.666-8.173-7.671-2.953-2.99-2.722-7.276-2.944-8.796-.223-1.521 1.836-3.895 1.836-3.895z" fill="#14AFEB"/><path d="M141.659 79.325c.222 1.52-.008 5.807 2.944 8.796 1.981 2.006 5.844 5.552 8.173 7.671v-.008c-.708-5.152 1.258-8.893 7.825-4.954 4.109 2.463 7.802 7.79 8.566 12.517.113.687.336 1.824.538 2.932l46.674 23.505c-.207-.854-.364-1.667-.393-2.18-.311-5.197 2.544-8.06 8.667-5.241 4.732 2.175 9.354 8.383 9.665 13.576.037.631.227 1.537.429 2.503 1.472.457 3.478.926 5.852 1.088 5.144.348 16.694-1.148 26.376-7.846 8.784-6.078 8.683-16.459 8.626-18.955-.813 4.271-2.968 9.617-8.877 13.682-6.106 4.202-10.87 6.462-20.884 6.867-5.9.234-9.855-1.549-12.072-2.386l-.028-.441c2.216.837 6.123 1.812 12.023 1.577 10.018-.4 14.778-2.665 20.884-6.863 5.949-4.092 8.093-9.479 8.894-13.766.028.15.048.291.068.429.021-.971-.105-2.73-1.48-5.189-.445-.797-.886-1.695-1.334-2.58-1.036 1.759-1.711.893-1.711.893-.053 1.917-.841 4.599-1.331 5.496-.489.898-2.018 4.049-6.288 7.094-4.267 3.045-9.112 4.655-11.882 5.544-2.77.89-5.407.785-5.407.785-3.252 1.634-6.572.227-6.572.227-.772-1.517-4.072-3.341-6.547-4.574-1.343-.672-3.713-2.059-5.86-3.422-1.804-1.144-2.864-1.905-2.864-1.905-5.39-3.457-7.489-6.276-7.489-6.276-4.101-7.146-11.85-17.2-11.85-17.2-5.641-6.968-16.278-11.736-23.407-15.238-5.088-2.5-12.723-2.204-19.133-2.435l-7.595-.396s-7.704-2.059-7.854-6.111c-1.424 2.293-2.006 3.996-2.006 3.996s-1.994 2.046-1.5 4.885c0 0 3.284 6.98 6.608 11.045 0 0-6.079-4.797-8.295-8.263-.133.397-.202.78-.153 1.12zm61.107 23.027c1.99-.453 3.171-1.165 3.927-.493l2.212 2.014s1.157 1.128.34 1.662-3.539.699-5.775.833c-2.237.133-2.411-1.897-2.455-2.224-.049-.332-.235-1.339 1.751-1.792z" fill="#0082C8"/><path d="M173.434 76.409c.416-.07.833-.114 1.249-.138 6.297-.38 12.667 3.607 14.854 4.829 3.515 1.957 10.111 5.504 13.921 9.948 4.658 5.432 3.558 4.99 10.607 17.047 0 0-1.997-1.007-4.929-2.5.036-.02.076-.036.109-.06.817-.534-.34-1.663-.34-1.663l-2.212-2.014c-.756-.667-1.933.041-3.911.49-5.152-2.645-10.834-5.597-14.179-7.445-7.239-4.008-25.797-14.378-25.797-14.378s3.939-3.029 10.628-4.117z" fill="#0082C8"/><path d="M219.719 122.702l2.16-1.282c.837.17 1.759.477 2.774.946 4.732 2.176 9.354 8.384 9.666 13.577.036.63.226 1.536.428 2.503h.008l-3.805 2.265c-1.302.784-3.134.752-5.209-.284-4.287-2.143-7.991-7.752-8.278-12.532-.158-2.601.728-4.421 2.256-5.193z" fill="#192D4B"/><path d="M221.879 121.416l-2.16 1.282c-1.533.773-2.418 2.592-2.261 5.193.029.497.098 1.003.199 1.512l-1.278.38c-.207-.853-.364-1.666-.393-2.179-.262-4.332 1.683-7.041 5.893-6.188z" fill="#004687"/><path d="M217.459 127.891c.287 4.78 3.995 10.393 8.278 12.533 4.287 2.139 7.53 0 7.243-4.78-.287-4.781-3.995-10.394-8.282-12.533-4.283-2.14-7.526 0-7.239 4.78z" fill="#192D4B"/><path d="M217.916 128.343c.267 4.408 3.684 9.585 7.635 11.558 3.955 1.974 6.944.004 6.681-4.408-.267-4.408-3.684-9.584-7.639-11.558-3.952-1.974-6.94 0-6.677 4.408z" fill="#192D4B"/><path d="M219.756 129.359c.198 3.284 2.742 7.134 5.682 8.606 2.94 1.468 5.164 0 4.97-3.28-.198-3.284-2.742-7.134-5.682-8.602-2.944-1.476-5.169-.004-4.97 3.276z" fill="#0082C8"/><path d="M223.881 130.944c.056.959.8 2.079 1.658 2.512.857.428 1.508 0 1.448-.959-.057-.958-.801-2.083-1.659-2.511-.857-.429-1.504 0-1.447.958zM155.623 90.417l1.743-1.04c.922.24 1.998.709 3.236 1.453 4.109 2.463 7.801 7.789 8.565 12.516.113.688.336 1.824.538 2.932l.409.207-3.264 1.941c-1.302.785-3.134.752-5.209-.283-4.287-2.14-7.995-7.753-8.282-12.533-.154-2.6.732-4.416 2.264-5.193z" fill="#192D4B"/><path d="M153.359 95.61c.287 4.78 3.995 10.394 8.282 12.533 4.287 2.139 7.53.004 7.243-4.78-.287-4.78-3.996-10.394-8.282-12.533-4.287-2.14-7.531 0-7.243 4.78z" fill="#192D4B"/><path d="M153.816 96.063c.266 4.408 3.684 9.585 7.635 11.562 3.955 1.974 6.944 0 6.681-4.408-.267-4.408-3.684-9.584-7.64-11.558-3.951-1.978-6.939-.004-6.676 4.404z" fill="#192D4B"/><path d="M155.655 97.078c.199 3.28 2.742 7.134 5.682 8.606 2.945 1.468 5.165 0 4.971-3.28-.198-3.283-2.742-7.133-5.682-8.606-2.945-1.472-5.169-.004-4.971 3.28z" fill="#0082C8"/><path d="M159.752 98.647c.061.975.817 2.12 1.691 2.556.873.437 1.537 0 1.476-.974-.061-.975-.813-2.12-1.691-2.556-.873-.437-1.532 0-1.476.974z" fill="#192D4B"/><path d="M157.366 89.382l-1.743 1.04c-1.532.772-2.418 2.592-2.264 5.188 0 .02.004.045.004.065l-.587.117v-.008c-.574-4.181.615-7.429 4.59-6.402z" fill="#004687"/><path d="M219.723 80.683c4.809-3.364 10.074-7.857 10.074-7.857s8.331 5.544 11.049 7.716c4.068 3.251 7.429 5.476 7.429 5.476.449.178.91.372 1.371.578 3.923 2.972-2.556 9.184-7.555 12.958-4.998 3.769-13.184 8.128-18.049 9.038-.501.093-.97.15-1.415.178-3.854.231-5.496-1.828-5.496-1.828-3.733-6.543-11.898-17.39-11.898-17.39s9.682-5.504 14.49-8.869zM156.21 69.538c1.637-2.48 8.072-7.118 11.436-9.265 2.407-1.537 6.301-4.117 10.972-5.484a22.055 22.055 0 0 1 4.902-.878c.331-.02.667-.032 1.007-.032 0 0 4.812.384 10.486 1.727 0 0-7.809 4.287-11.315 6.762-3.507 2.47-10.272 7.886-11.037 8.642 0 0-1.221 1.504-2.487 1.577-1.266.077-14.013-.586-14.013-.586s-1.589.016.049-2.463z" fill="#0082C8"/><path d="M220.002 81.08c4.141-2.896 8.667-6.67 9.827-7.644 1.525 1.02 8.331 5.59 10.705 7.49 4.04 3.227 7.433 5.48 7.466 5.5l.044.028.049.02c.048.02.105.045.157.065.413.8.72 1.856.34 2.912-.772 2.156-4.715 6.212-8.549 8.743-3.705 2.443-10.766 8.097-20.112 9.836-1.516-.425-2.265-1.209-2.402-1.367-3.288-5.747-10.013-14.854-11.578-16.957 2.022-1.165 9.896-5.715 14.053-8.627zM188.017 80.954c.433.239.813.453 1.132.62-1.197 3.243-2.341 9.3-2.746 11.55a11779.57 11779.57 0 0 1-14.235-7.931l2.616-8.436c5.173-.284 10.41 2.628 13.233 4.197zM173.514 76.89c.106-.016.211-.029.32-.045l-2.601 7.826c-3.409-1.901-6.244-3.486-7.497-4.186 1.346-.861 4.8-2.787 9.778-3.595zM170.141 72.102c.858-.053 1.832-1.028 2.136-1.4l.016-.02.02-.016c.809-.805 7.474-6.414 11.097-8.699 7.118-4.49 9.29-5.387 11.199-6.454-5.047-1.165-9.322-1.57-9.993-1.626-1.169.161-2.686.493-4.68.93-4.861 1.197-8.99 3.923-11.651 5.625l-.38.243c-3.781 2.414-9.783 6.839-11.291 9.12-.821 1.241-.643 1.613-.639 1.625.036.07.174.081.174.081h.032c4.404.235 12.982.651 13.96.59z" fill="#94DAEE"/><path d="M272.661 115.318s-1.585-6.645-1.699-7.369c-.113-.724 1.084-5.023-2.03-8.42 2.006.239 3.446 3.814 4.902 6.56.101 2.05.153 6.64-1.173 9.229zM253.492 128.469s-1.844-1.783-3.462-3.008c-1.614-1.226-2.665-1.602-4.748-1.626-2.079-.02-5.306.073-6.891-.247-1.585-.319-2.871-.562-3.883-.695-1.011-.138-1.844-.158-1.164.974.679 1.132 1.52 3.547 4.008 4.238 2.487.692 3.829.789 6.939.813 3.11.029 9.201-.449 9.201-.449z" fill="#E1E8EC"/><path d="M258.466 127.689c.433-.025.866-.13 1.29-.308l.348-.145c1.945-.821 4.36-1.844 6.519-3.664 1.848-1.561 3.078-2.77 3.757-3.701.599-.821.846-1.686.748-2.649-.093-.905-.392-3.676-.566-5.249-.72 1.108-1.998 2.981-3.377 4.538-1.168 1.318-3.631 3.716-7.02 4.994-.235.089-.469.182-.704.279-.23.093-.461.186-.691.271a79.81 79.81 0 0 1-6.758 2.196l4.493 2.993c-.004.004.801.514 1.961.445zM243.608 136.343c1.354-.166 4.853-.502 6.527-.797.275-.048.546-.141.651.623.109.764-.954.922-.954.922-1.468.218-2.839.392-3.725.437 0 0-2.649.19-2.896.202-.307.012-.534-.162-.534-.162-.125-.485.081-1.12.931-1.225zM258.721 133.641l.335.829s.32.465 1.266-.004c.943-.469 4.813-2.552 7.053-4.226 1.662-1.242 3.175-2.883 3.458-3.239.283-.356.546-1.262.558-1.59.012-.327.202-.958-.526-.113s-3.324 3.053-5.059 4.206c-1.735 1.153-6.082 3.341-6.822 3.624.004.004-.405.161-.263.513z" fill="#006399"/><path d="M144.878 70.682s-.474 1.08.477 2.172c.95 1.092 3.065 2.968 3.065 2.968s.534.21-.445 1.4c-.978 1.189-1.1 1.197-1.1 1.197s-.145.17-.38.182c-.178.012-.404-.07-.655-.385-.582-.727-1.767-1.852-2.337-2.79-.425-2.406.946-4.242 1.375-4.744z" fill="#0082C8"/><path d="M206.693 101.858c-.66-.582-1.638-.117-3.195.308-4.364-2.237-9.18-4.732-12.658-6.605.056-4.38.408-10.478.55-12.828 5.225 2.811 9.24 5.771 11.691 8.63 3.054 3.564 3.608 4.57 5.666 8.323.008.013.012.025.02.037l-.157 3.878-1.917-1.743z" fill="#94DAEE"/><path d="M216.783 99.89l4.837 2.066c.178-1.185.655-2.916.117-6.026-.53-3.057-2.075-5.184-2.075-5.184s.061-2.528-1.007-5.529a5.364 5.364 0 0 0-1.5-2.244c-.845.542-1.739 1.1-2.641 1.654l2.269 15.262z" fill="#D4CDBF"/><path d="M229.522 85.124s.271-2.337-.796-5.334c-.607-1.703-1.634-2.766-2.496-3.405-1.832 1.46-4.08 3.195-6.224 4.7a82.333 82.333 0 0 1-2.843 1.888 5.376 5.376 0 0 1 1.501 2.244c1.067 3.001 1.007 5.529 1.007 5.529l9.851-5.622z" fill="url(#paint0_linear)"/><path d="M221.737 95.934c-.53-3.057-2.075-5.184-2.075-5.184l9.856-5.622s1.25 1.901 2.087 4.57c.534 1.699.736 4.821.558 6.002l-10.543 6.26c.178-1.185.659-2.92.117-6.026z" fill="url(#paint1_linear)"/><path d="M241.125 97.439c-2.285-.93-5.225-1.86-6.334-2.083-1.945-.392-2.64.328-2.64.328l-10.487 6.224c.218 1.132 2.447 2.891 4.703 4.238 6.164-2.439 10.879-6.111 13.674-7.955.364-.234.724-.49 1.084-.752z" fill="url(#paint2_linear)"/><path d="M208.513 93.196l3.575-2.038s.23-2.006-.684-4.578l-.024-.057c-2.415 1.44-4.522 2.653-5.431 3.18.469.626 1.403 1.888 2.564 3.493z" fill="url(#paint3_linear)"/><path d="M212.087 91.158l-3.575 2.038a276.644 276.644 0 0 1 5.197 7.417l.647-.384c.15-1.015-.02-3.692-.477-5.148-.72-2.289-1.792-3.923-1.792-3.923z" fill="url(#paint4_linear)"/><path d="M217.405 106.445c3.406-2.063 7.268-4.542 7.369-5.027.174-.829-7.045-3.139-8.901-3.494-1.857-.352-2.52.295-2.52.295l-.922.518c1.828 2.652 3.656 5.427 4.974 7.708z" fill="url(#paint5_linear)"/><path d="M230.04 90.034s2.794.736 4.546 2.147c1.751 1.412 4.064 4.117 4.064 4.117l-1.687 2.633s-5.896-2.888-7.522-3.761c-1.625-.874-3.029-3.547-3.029-3.547l3.628-1.59z" fill="#014B89"/><path d="M228.054 90.875s.922 1.553.854 2.014c-.069.461.299 1.343.299 1.343s2.831 2.155 3.619 3.267c.789 1.117 1.549 2.851 1.335 2.868-.214.016-3.223 1.229-3.223 1.229s-2.645-2.81-4.21-3.595c-1.565-.78-3.919-2.273-4.489-4.877l5.815-2.249z" fill="#1A64A3"/><path d="M238.075 84.93s.017.004.041.004c.186.028.954.138 1.298.219.392.093.619-.029 1.116.545.498.579.473.967.453 1.355-.024.389-.153.967-.279 1.1-.125.134-.178.267-.36.235-.182-.032-.263-.126-.251-.113.009.012-.242-.004-.226-.267.016-.26.158-.825.158-.825l-.146-.465s-.36-.247-.465-.215c-.105.033-1.108.081-1.108.081s-1.403.101-1.933-.036c-.534-.138-5.071-1.274-5.492-1.553-.417-.283-1.998-2.314-2.661-2.977-.663-.663-.902-2.887-1.286-3.005-.38-.113-1.262-.056-1.262-.056l-.667-1.343s1.86-1.868 3.037-.914c1.177.95 1.569 1.52 1.763 1.776.194.254 2.18 3.805 2.73 4.21.554.404 4.149 1.981 4.715 1.973.405 0 .825.271.825.271z" fill="#F2A983"/><path d="M227.933 80.826s1.933 2.3 2.519 2.685c.583.384 1.351-.51 1.206 0-.146.51.036 1.023.238 1.132.202.11 4.505 1.19 4.801 1.278.295.09 1.399-.667 1.961-.327a.924.924 0 0 1 .425.946c-.328.024-.773.045-.773.045s-1.403.1-1.933-.037c-.534-.137-5.071-1.274-5.492-1.553-.416-.283-1.998-2.313-2.661-2.976-.194-.194-.352-.522-.489-.89l.198-.303z" fill="#D88F69"/><path d="M226.295 76.43s1.189-.474 2.063.29c.873.769 2.527 3.212 2.527 3.212s-1.698 2.636-2.98 2.98c-1.286.344-1.61-6.483-1.61-6.483z" fill="#F6C100"/><path d="M227.136 79.681c.226-.465 1.476-.388 1.808.567.198.578.441 1.104.602 1.427-.521.574-1.116 1.1-1.642 1.242-.538.141-.958-.955-1.274-2.281.235-.45.433-.813.506-.955z" fill="#DDA800"/><path d="M223.577 80.652c1.788.328 3.013.243 3.264-.732.251-.975-.813-3.021-.813-3.021l-.32-.101a142.39 142.39 0 0 1-3.494 2.685c.178.514.562 1.023 1.363 1.169z" fill="#D88F69"/><path d="M227.832 86.204c-.028-.368-.235-2.086-.235-2.086.332-.445.874-1.679.773-3.709-.101-2.03-1.395-3.822-1.395-3.822s-.478-.097-.866-.109c-.137.11-.283.223-.424.336.012.012.016.024.028.036.566.643.942 2.41-.17 3-.991.527-1.864-.064-2.402-.606l-.263-.263c-.95.716-1.921 1.428-2.875 2.095-.437.308-.914.631-1.424.967.17 2.09 2.285 5.637 2.718 6.35.501.824 1.181 5.378 1.181 5.378.675-.57 3.312-.947 5.5-1.61 2.192-.663 2.394-2.171 2.394-2.171s-.538-.292-.87-.62c-.327-.323-1.638-2.798-1.67-3.166z" fill="#F6C100"/><path d="M226.283 77.918c.74-.182.522-.813.526-1.278.004-.239.036-.51.068-.777-.764.615-1.621 1.294-2.531 1.998.695.166 1.435.182 1.937.057z" fill="#F2A983"/><path d="M226.643 77.744c.299-.271.166-.74.17-1.104.004-.239.036-.51.068-.777-.016.012-.028.025-.044.037.028.15.032.34-.182.36-.235.02-.093.428-.101.691 0 .142.028.49.089.793z" fill="#D88F69"/><path d="M221.911 84.287c-.105 1.096-.036 1.678.453 2.596.485.918.421 1.796 1.266 2.285.845.49 1.589-.028 2.447 0 .857.024.788-.012.695.566-.093.575-.044.922.672.716.719-.21 1.73-.546 1.532-.069-.157.385-2.099 1.517-2.721 2.253-.579.141-1.145.271-1.659.396a55.069 55.069 0 0 1-2.313-.469c-.238-1.411-.651-3.607-.982-4.157-.462-.76-2.662-4.004-2.544-6.006l2.374-.279c0-.008.885 1.072.78 2.168z" fill="#DDA800"/><path d="M234.194 94.337c.457 0 1.002-.142 1.609-.437 2.095-1.023 4.125-3.526 4.53-5.593.287-1.468-.32-2.317-1.452-2.317-.457 0-1.003.141-1.61.437-2.095 1.023-4.125 3.526-4.529 5.593-.287 1.468.323 2.317 1.452 2.317zm-.53-2.144c.339-1.718 2.111-3.894 3.874-4.755.453-.223.87-.336 1.201-.336.259 0 .445.069.558.206.174.21.215.627.118 1.137-.34 1.718-2.112 3.894-3.875 4.756-.453.222-.869.34-1.201.34-.259 0-.445-.07-.558-.207-.174-.214-.218-.63-.117-1.14z" fill="#39464A"/><path d="M248.591 89.451c.376-1.043.076-2.086-.328-2.883-3.005-.032-9.443 4.497-15.768 8.266-6.127 3.652-12.517 8.954-15.125 11.55.052.093.109.186.157.275.138.158.886.943 2.403 1.367 9.346-1.739 16.407-7.388 20.111-9.835 3.834-2.528 7.777-6.584 8.55-8.74z" fill="url(#paint6_linear)"/><path d="M247.017 91.947c-.339-2.014-1.751-3.818-1.751-3.818s-3.102-2.297-8.088 0c-4.987 2.297-5.747 7.239-5.747 7.239v.097c2.944 1.395 6.499 2.337 9.775 1.909 2.232-1.634 4.388-3.668 5.811-5.427z" fill="url(#paint7_linear)"/><path d="M224.475 100.124s-.461-2.867 2.819-4.626c3.28-1.76 5.88-.441 5.88-.441s4.141 2.835-.91 5.565c-5.047 2.729-7.789-.498-7.789-.498z" fill="url(#paint8_linear)"/><path d="M221.798 93.075c.251.275 1.108.955 1.278 1.408.17.453.384 1.14.307 1.605-.077.47-.04 1.076-.287 1.145-.247.069-.364.02-.364.02s-.02.32-.34.307c-.315-.012-.275-.141-.275-.141s-.258.198-.4.154c-.142-.045-.202-.542-.202-.542s-.227-1.17-.271-1.27c-.041-.101-.251-.66-.259-.465-.008.19.202.926.247 1.172.044.247.214.66.068.692-.145.028-.481-.376-.582-.724-.101-.348-.51-1.144-.518-1.383-.008-.234.126-1.217-.052-1.468-.178-.25-2.022-1.97-2.499-3.03-.478-1.063-.486-1.083-.567-1.564-.068-.417.146-.959.146-.959s.243-2.855.639-3.623c.396-.769.619-1.258.639-1.493.02-.234.206-1.168.942-1.261.736-.093 2.156 1.189 2.196 1.698.041.51-.57 1.064-.833 1.666-.263.603-.857 4.049-.857 4.049s1.387 3.506 1.844 4.007z" fill="#F2A983"/><path d="M223.096 97.233c-.246.068-.364.02-.364.02s-.02.32-.339.307c-.316-.012-.275-.141-.275-.141s-.259.198-.401.153c-.141-.044-.202-.541-.202-.541s-.166-.854-.243-1.165c.061-.194.579-.037.579-.037s.109-.1.348-.206c.238-.105.546-.04.546-.04s.137-.04.497-.166a.458.458 0 0 1 .101-.024c.049.25.073.493.04.7-.076.46-.04 1.07-.287 1.14zM220.467 95.805c.259 0 .502.028.619.04.057.24.122.49.146.615.044.247.214.66.069.692-.146.028-.482-.376-.583-.724-.044-.15-.149-.384-.251-.623z" fill="#D88F69"/><path d="M221.778 81.89c-.207-.688-.615-1.088-1.048-1.323-.242.174-.485.348-.724.514-.614.428-1.314.897-2.058 1.383-.231 1.051-.174 2.022-.174 2.022 1.646-.38 3.349.643 3.349.643s1.079-1.828.655-3.24z" fill="#F6C100"/><path d="M196.352 85.69a63.015 63.015 0 0 0-4.897-2.92l-.069.04c-.125 2.055-.396 6.758-.505 10.79l5.779-3.43c.129-.877.02-2.98-.308-4.48z" fill="url(#paint9_linear)"/><path d="M204.137 92.614c-.316-.38-.663-.793-1.052-1.246-.877-1.023-1.953-2.054-3.215-3.09-.821-.259-1.52-.453-1.933-.538-1.67-.335-2.265.284-2.265.284l-4.699 2.79a189.17 189.17 0 0 0-.137 4.756c1.423.768 3.077 1.638 4.828 2.556 1.877-1.116 6.059-3.773 8.473-5.512z" fill="url(#paint10_linear)"/><path d="M199.814 98.651s.053-2.171-.861-4.743c-1.024-2.876-3.939-3.13-3.939-3.13l1.124 7.582c1.565.817 3.203 1.666 4.824 2.499-.537-1.362-1.148-2.208-1.148-2.208z" fill="#D4CDBF"/><path d="M206.046 95.097c-.724-1.048-1.589-2.132-2.96-3.733-.918-1.068-2.051-2.152-3.385-3.236l-4.687 2.65s2.915.25 3.939 3.13c.914 2.572.861 4.743.861 4.743l6.232-3.554z" fill="url(#paint11_linear)"/><path d="M206.693 101.859l1.917 1.747.158-3.879a.138.138 0 0 0-.021-.036c-1.136-2.07-1.815-3.304-2.705-4.594l-6.232 3.555s.611.845 1.144 2.208l2.54 1.306c1.561-.425 2.54-.89 3.199-.307z" fill="url(#paint12_linear)"/><path d="M198.419 88.371c.259.303.287 1.925.283 2.738.073-.012.145-.032.218-.06l2.443-1.46a34.057 34.057 0 0 0-3.009-2.492c-.611.368-1.096.66-1.246.748.441-.076 1.003.162 1.311.526z" fill="url(#paint13_linear)"/><path d="M197.113 87.841c.436-.068.995.166 1.306.53.259.304.287 1.925.283 2.738a1.366 1.366 0 0 1-.518-.012s-1.48-.797-1.682-1.156c-.202-.36.562-2.067.562-2.067s.02-.016.049-.032z" fill="#D4CDBF"/><path d="M208.707 101.252l-1.622.962 1.529 1.392.093-2.354z" fill="url(#paint14_linear)"/><path d="M180.681 82.508c-1.024-2.876-3.939-3.13-3.939-3.13l1.35 9.119c1.776.99 3.531 1.97 5.165 2.875-.502-2.446-1.715-4.12-1.715-4.12s.053-2.172-.861-4.744z" fill="#D4CDBF"/><path d="M188.611 83.22l-7.069 4.031s1.209 1.679 1.715 4.121l3.146 1.751c.344-1.908 1.217-6.555 2.208-9.904z" fill="url(#paint15_linear)"/><path d="M188.611 83.22c.178-.595.356-1.157.538-1.647-.319-.165-.7-.376-1.132-.618-1.828-1.02-4.679-2.597-7.866-3.507l-3.413 1.93s2.915.25 3.939 3.13c.914 2.572.861 4.743.861 4.743l7.073-4.032z" fill="url(#paint16_linear)"/><path d="M180.317 77.497c.105.63.117 1.63.117 2.208.073-.012.146-.033.218-.061l2.14-1.278a25.885 25.885 0 0 0-2.475-.87z" fill="url(#paint17_linear)"/><path d="M178.234 78.536c.202.36 1.682 1.157 1.682 1.157s.235.06.518.012c0-.582-.012-1.577-.117-2.208-.579-.17-1.165-.32-1.764-.437-.202.526-.44 1.254-.319 1.476z" fill="#D4CDBF"/><path opacity=".45" d="M188.017 80.954c.433.239.813.453 1.132.62-1.197 3.243-2.341 9.3-2.746 11.55a11779.57 11779.57 0 0 1-14.235-7.931l2.616-8.436c5.173-.284 10.41 2.628 13.233 4.197zM220.002 81.08c4.141-2.896 8.667-6.67 9.827-7.644 1.525 1.02 8.331 5.59 10.705 7.49 4.04 3.227 7.433 5.48 7.466 5.5l.044.028.049.02c.048.02.105.045.157.065.413.8.72 1.856.34 2.912-.772 2.156-4.715 6.212-8.549 8.743-3.705 2.443-10.766 8.097-20.112 9.836-1.516-.425-2.265-1.209-2.402-1.367-3.288-5.747-10.013-14.854-11.578-16.957 2.022-1.165 9.896-5.715 14.053-8.627zM206.693 101.858c-.66-.582-1.638-.117-3.195.308-4.364-2.237-9.18-4.732-12.658-6.605.056-4.38.408-10.478.55-12.828 5.225 2.811 9.24 5.771 11.691 8.63 3.054 3.564 3.608 4.57 5.666 8.323.008.013.012.025.02.037l-.157 3.878-1.917-1.743z" fill="#94DAEE"/><path d="M293.878 46.351h-2.737v53.759h2.737V46.351zM353.572 48.374h-2.737v53.759h2.737V48.375z" fill="#5F6464"/><path d="M360.465 22.069h-76.93c-2.5 0-4.535 2.015-4.535 4.492v43.628c0 2.476 2.035 4.492 4.535 4.492h76.93c2.5 0 4.535-2.016 4.535-4.492V26.56c0-2.477-2.035-4.492-4.535-4.492z" fill="#004EBB"/><path d="M360.465 23.423c1.742 0 3.17 1.412 3.17 3.14V70.19c0 1.726-1.426 3.14-3.17 3.14h-76.93c-1.742 0-3.17-1.413-3.17-3.14V26.56c0-1.725 1.426-3.139 3.17-3.139h76.93v.002zm0-1.354h-76.93c-2.5 0-4.535 2.015-4.535 4.492v43.628c0 2.476 2.035 4.492 4.535 4.492h76.93c2.5 0 4.535-2.016 4.535-4.492V26.56c0-2.477-2.035-4.492-4.535-4.492z" fill="#fff"/><g clip-path="url(#clip0)"><path d="M352.669 39.922c-.708-.334-1.725-.393-2.54-.147-.531.162-1.057.624-1.533 1.218a1.3 1.3 0 0 0-.094-.206c.108-.206.221-.442.295-.678.388-.919.197-1.99-.482-2.668-.206-.211-.835-.855-1.763-.629-.015.005-.025.005-.04.01-1.405.427-2.766 2.51-3.144 3.13-.069.108-.138.22-.207.334a2.45 2.45 0 0 0-.462-1.15c-.437-.535-1.257-.909-1.867-.604-.014.01-.029.015-.044.024-.359.212-.762.669-1.263 1.47a1.91 1.91 0 0 0-1.022-.595 1.667 1.667 0 0 0-.84.054c-.285.084-.56.26-.806.506l-.024.025c-.246.27-.511.638-.772 1.061a1.895 1.895 0 0 0-.471-.388c-.413-.246-.86-.315-1.258-.197-.447.133-.752.59-.934.954 0 .004-.005.01-.005.014a36.79 36.79 0 0 0-1.115 2.629 2.393 2.393 0 0 0-.678-1.582c-.206-.212-.835-.855-1.764-.63-.015.006-.025.006-.039.01-1.406.428-2.767 2.511-3.145 3.13a11.87 11.87 0 0 0-.162.261 3.05 3.05 0 0 0-.324-1.002l-.015-.025c-.393-.648-1.052-.968-1.641-.786-.005 0-.005 0-.01.005.373-.914.762-1.794 1.145-2.62.005-.004.005-.009.01-.014.181-.417.344-.737.447-.948l.059-.123c.196-.339.181-.673.172-.86 0-.049-.01-.098-.02-.147-.108-.438-.437-.84-.899-1.1-.447-.256-.939-.33-1.342-.207-.732.22-.972.904-1.1 1.267a153.53 153.53 0 0 1-.835 2.295 651.34 651.34 0 0 0-1.425 3.906c-.275.752-.56 1.543-.841 2.344a2.298 2.298 0 0 0-.594-1.032c-.206-.211-.835-.855-1.764-.629-.015.005-.025.005-.039.01-1.406.428-2.767 2.51-3.145 3.13-.25.398-.491.81-.717 1.233.761-2.176 1.626-4.363 2.51-6.274.118-.266.241-.496.335-.678.073-.138.132-.26.181-.369a1.3 1.3 0 0 0 .143-.997c-.113-.447-.437-.855-.894-1.116-.447-.255-.944-.329-1.361-.201-.688.206-.944.929-1.067 1.277-.118.34-.245.683-.388 1.072a3.636 3.636 0 0 0-.619-1.278c-.526-.668-1.479-1.214-2.294-.988-.87.207-1.607 1.484-2.482 3.125-.069.133-.137.256-.191.36-.502.908-1.013 1.847-1.528 2.805-2.182 3.984-4.423 8.107-6.889 11.856-.698.27-1.297.378-1.71.304-.162-.147-.55-.388-1.081-.058-.044.029-.088.063-.128.098-.555.54-.653 1.587-.373 2.162.01.02.02.039.034.059.212.344.555.55 1.003.619a35.949 35.949 0 0 1-2.467 2.938l-.02.02c-.56.638-1.203 1.184-1.857 1.567a.433.433 0 0 1-.182.059.963.963 0 0 0-.864.162c-.423.34-.428.9-.423 1.066 0 .025.005.045.005.07.074.53.364.982.816 1.272.339.216.741.324 1.164.324.246 0 .496-.04.747-.113 1.277-.383 2.614-1.45 3.862-3.076 1.567-1.97 2.909-4.044 4.255-6.176.241-.138.467-.29.732-.467.251-.167.496-.324.732-.476-.128.437-.25.884-.368 1.346 0 .005-.005.015-.005.02-.31 1.38-.266 2.196.157 2.722.555.742 1.567 1.095 2.417.84.384-.118.732-.462.885-.875.132-.3.118-.609.083-.864l-.01-.212c.015-.501.202-1.263.339-1.823.3-1.066.625-2.088.993-3.11.01.01.025.015.034.025a.947.947 0 0 0 .379.137c-.059.634.005 1.258.314 1.789.324.57 1.091 1.307 1.912 1.022.491-.162.958-.772 1.272-1.268.074-.103.148-.211.221-.324.123.226.29.437.506.575.275.176.6.226.914.132.595-.181 1.12-.78 1.7-1.803.334.462.865.806 1.401.806-4.378 1.489-8.226 3.316-10.815 5.842a.729.729 0 0 0-.118.904c.172.29.526.427.85.33 1.425-.438 2.712.107 3.533.643 1.582 1.027 2.786 2.864 2.997 4.564a.73.73 0 0 0 .727.65.727.727 0 0 0 .644-.384c3.607-6.555 12.18-9.41 20.474-12.17 6.137-2.045 11.935-3.97 15.802-7.317.757-.653 3.297-2.997 4.201-5.636.855-2.456.069-4.545-2.083-5.562zm-34.542 16.873c.074-.108.148-.221.226-.339.324.364.757.604 1.165.649-.786.23-1.558.471-2.319.722.221-.157.53-.457.928-1.032zm4.103-.658l.029-.03c.644-.663 1.204-1.493 1.691-2.398.083.413.304 1.155.825 1.5.275.176.6.225.909.132.595-.182 1.12-.782 1.7-1.803.408.56 1.106.953 1.754.756.143-.044.58-.177 1.307-1.228.148-.212.295-.438.442-.678.423.58 1.16 1.027 1.745.85.353-.108.604-.428.742-.953.005-.015.235-.875.579-1.922.045.3.128.55.256.772.432.766 1.282 1.243 1.897 1.056.481-.147.633-.604.722-.88l.01-.034c.005-.014.009-.024.009-.039.005-.01.138-.506.349-1.199.374.649 1.278 1.44 2.123 1.184.452-.137.825-.56 1.317-1.243.005-.005.01-.015.014-.02.099-.147.197-.304.3-.461.128.26.305.506.55.663.276.177.6.226.909.133.595-.182 1.126-.782 1.701-1.799.343.472.894.826 1.444.806-4.653 2.358-10.947 3.926-17.094 5.459-2.191.545-4.402 1.096-6.559 1.685.127-.103.231-.206.329-.31zm24.946-8.127c.673-.978 1.326-2.172 2.053-3.75l.983-1.704.03-.054c.26-.555.756-.698 1.1-.649.216.03.595.157.688.703.074.427.025.9-.142 1.36-.251.709-.841 1.298-1.465 1.922-.078.079-.152.152-.226.231-.977.988-2.196 1.867-3.596 2.663.167-.177.353-.408.575-.722z" fill="#FF2426"/><path d="M352.462 40.345c-.609-.285-1.493-.334-2.206-.123-1.567.471-3.198 4.319-3.424 4.864-.054.084-.104.152-.143.206.005-.034.01-.073.02-.117.177-.88 1.017-2.398 1.336-2.973.295-.545.172-1.066-.098-1.395.138-.246.31-.566.403-.865a1.973 1.973 0 0 0-.378-2.177c-.281-.285-.718-.648-1.317-.501-.005 0-.01 0-.015.005-1.277.388-2.629 2.516-2.884 2.933a21.23 21.23 0 0 0-2.231 4.825c-.408.762-.801 1.43-1.199 2.03-.103.152-.186.25-.245.309 0-.054.004-.123.019-.202.192-1.11 1.273-3.434 1.99-4.967.211-.452.393-.84.521-1.13.192-.442.079-1.125-.265-1.621a2.08 2.08 0 0 1-.015-.015c-.315-.388-.914-.673-1.302-.482-.005.005-.01.005-.015.01-.437.255-.973 1.051-1.513 1.995 0-.01-.005-.015-.005-.025-.108-.491-.595-.953-1.091-1.046a1.16 1.16 0 0 0-.614.044 1.475 1.475 0 0 0-.619.398c-.359.398-.777 1.061-1.14 1.7-.005-.015-.005-.03-.01-.044-.079-.354-.329-.688-.678-.894-.295-.177-.619-.231-.884-.148-.31.093-.556.53-.654.718a35.558 35.558 0 0 0-1.489 3.67 71.332 71.332 0 0 0-.697 2.26 23.69 23.69 0 0 1-1.494 2.55c-.059.093-.113.167-.152.226.004-.034.009-.074.019-.118.177-.88 1.017-2.398 1.337-2.972.294-.546.172-1.067-.099-1.396.138-.245.31-.565.403-.865a1.97 1.97 0 0 0-.378-2.176c-.28-.285-.717-.649-1.317-.501-.005 0-.01 0-.015.005-1.282.388-2.628 2.515-2.884 2.933a20.15 20.15 0 0 0-.909 1.611c-.059.04-.118.08-.177.118.015-.068.025-.132.045-.206l.004-.02c.172-1.184-.039-1.882-.255-2.275-.28-.461-.727-.697-1.106-.58-.216.065-.486.276-.712.566-.255.329-.501.683-.732 1.041a60.371 60.371 0 0 1 2.024-4.879c.187-.427.349-.752.457-.968l.069-.137c.133-.226.123-.452.118-.614 0-.02-.005-.035-.01-.054-.079-.315-.324-.61-.673-.806-.334-.187-.698-.25-.973-.167-.501.152-.678.648-.791.973-.221.628-.477 1.331-.835 2.299a651.34 651.34 0 0 0-1.425 3.906c-.87 2.398-1.848 5.154-2.506 7.454a19.1 19.1 0 0 1-.83 1.327c-.059.093-.113.167-.153.226.005-.035.01-.074.02-.118.177-.885 1.017-2.398 1.336-2.973.295-.545.172-1.066-.098-1.395.138-.246.31-.566.403-.865a1.972 1.972 0 0 0-.378-2.177c-.28-.285-.718-.648-1.317-.501-.005 0-.01 0-.015.005-1.277.388-2.629 2.516-2.884 2.933-1.022 1.612-1.877 3.528-2.359 5.263a20.79 20.79 0 0 1-.938 1.538c-.025.039-.059.083-.093.127.918-3.788 2.614-8.623 4.358-12.416.123-.275.246-.511.344-.703.078-.147.137-.265.182-.368a.854.854 0 0 0 .108-.663c-.079-.33-.325-.63-.673-.83-.335-.193-.698-.252-.993-.163-.457.138-.653.688-.757.988-.221.633-.466 1.292-.8 2.2a502.69 502.69 0 0 0-1.46 3.98c-.919 2.462-1.916 5.4-2.579 7.597.009-.25-.03-.487-.123-.649-.015-.03-.035-.049-.059-.073a1.313 1.313 0 0 0-.472-.231c-.054-.02-.103-.04-.152-.05 1.282-3.223 2.624-6.279 4.044-9.507l.299-.678c.31-.717.084-1.907-.506-2.658-.496-.63-1.267-.978-1.813-.826-.678.153-1.39 1.4-2.181 2.89-.074.132-.138.26-.197.368a424 424 0 0 0-1.528 2.8c-2.196 4.04-4.466 8.22-6.977 12.019-.899.368-1.656.496-2.196.368-.045-.01-.054-.014-.054-.01a.332.332 0 0 1-.055-.058c-.098-.113-.27-.207-.55-.035a.346.346 0 0 0-.044.035c-.393.378-.482 1.208-.28 1.616.005.01.01.015.01.02.299.496.982.476 1.572.344-1.081 1.484-2.098 2.727-3.105 3.788a8.278 8.278 0 0 1-1.976 1.666c-.196.108-.393.147-.53.108a.486.486 0 0 0-.457.078c-.251.197-.246.59-.241.669v.024c.054.393.27.727.604.944.261.167.58.25.919.25.202 0 .408-.03.61-.093 1.179-.359 2.437-1.366 3.631-2.919 1.577-1.985 2.928-4.078 4.289-6.23.265-.148.516-.315.806-.511.668-.447 1.287-.82 1.818-1.14a32.717 32.717 0 0 0-.747 2.526c-.275 1.213-.251 1.935.074 2.328.378.511 1.154.91 1.911.684.251-.074.486-.32.585-.6.093-.201.078-.437.054-.644l-.01-.25c.015-.511.177-1.214.354-1.941a45.385 45.385 0 0 1 1.149-3.543c.158-.005.31.02.453.07l.103.088c.01.01.019.014.029.024.108.069.324.148.565-.078a.994.994 0 0 0 .177-.221c-.196.845-.285 1.729.103 2.383.197.353.791 1.017 1.351.815.398-.123.855-.79 1.037-1.086.246-.344.492-.722.737-1.145.059.305.231 1.003.634 1.268a.614.614 0 0 0 .521.079c.644-.197 1.297-1.248 1.936-2.54.005.206.029.383.078.53.192.526.836 1.145 1.445.963.349-.103.766-.624 1.056-1.046.197-.29.398-.605.61-.964.034.094.078.182.127.26.335.61.978.905 1.352.792.348-.108.412-.52.452-.796.005-.044.009-.084.019-.118.005-.015.005-.03.005-.044 0-.025 0-.05.005-.079.103.143.216.266.334.359.246.211.516.275.806.187.182-.054.29-.167.447-.325l.025-.024c1.027-1.057 1.828-2.575 2.486-4.123-.108.62-.123 1.234-.034 1.745.004.044.142 1.08.658 1.415a.614.614 0 0 0 .521.078c.643-.196 1.297-1.248 1.936-2.54.005.206.029.383.078.53.192.526.836 1.146 1.445.964.349-.108.766-.624 1.056-1.047.295-.432.595-.914.899-1.464.035.246.104.447.202.61.339.599.997.948 1.336.84.231-.07.359-.379.428-.625.005-.024.668-2.49 1.454-4.215a62.19 62.19 0 0 1 .742-1.582 32.6 32.6 0 0 0-.457 1.621c-.344 1.474-.354 2.373-.039 2.909.319.565.953.958 1.351.835.251-.074.334-.339.413-.575l.01-.034c0-.005.005-.01.005-.015.004-.024.658-2.457 1.4-4.162-.094.31-.177.61-.241.89-.172.698-.187 1.36-.039 1.778.182.497 1.032 1.347 1.665 1.15.325-.098.649-.481 1.076-1.076.276-.413.551-.87.831-1.37 0 .004 0 .014.005.019.005.044.142 1.08.658 1.415a.613.613 0 0 0 .521.079c.644-.197 1.297-1.248 1.936-2.54.005.206.029.383.079.53.191.526.835 1.145 1.444.963.349-.103.767-.624 1.056-1.047.865-1.262 1.568-2.712 2.025-3.7l.992-1.72c.005-.004.005-.014.01-.019.344-.732 1.047-.987 1.587-.914.575.079.983.487 1.086 1.086.089.506.03 1.057-.162 1.597-.29.806-.943 1.46-1.572 2.093l-.226.226c-4.373 4.427-13.311 6.653-21.959 8.805-8.785 2.187-17.87 4.447-22.592 9.05a.269.269 0 0 0-.044.33.263.263 0 0 0 .31.118c1.601-.491 3.016.108 3.925.698 1.696 1.1 2.983 3.07 3.204 4.903a.277.277 0 0 0 .265.236.274.274 0 0 0 .236-.138c3.695-6.716 12.358-9.6 20.735-12.386 6.093-2.03 11.846-3.94 15.644-7.223.737-.634 3.199-2.904 4.064-5.434.717-2.25.044-4.078-1.907-4.997zM304.92 55.714c-.059.034-.113.074-.167.108a7.84 7.84 0 0 1-.516.32c-.354.186-.717.402-1.115.643a343.528 343.528 0 0 0 2.785-4.84c.644-1.13 1.268-2.23 1.922-3.36a163.45 163.45 0 0 0-2.909 7.129zm12.451-6.225c-.723.864-1.298 2.004-1.853 3.11-.201.398-.388.771-.58 1.125l-.014.025a7.318 7.318 0 0 1-.315.52c.025-.083.054-.181.089-.29a2.29 2.29 0 0 1 .034-.108c.698-2.078 1.73-4.048 2.761-5.282.433-.506.688-.628.762-.633.054.058.172.31-.182 1.208a.837.837 0 0 0-.702.325zm6.304-1.838a12.67 12.67 0 0 1-.413 1.435 25.537 25.537 0 0 0-1.641 1.69c.388-.826.869-1.784 1.243-2.437.108-.206.236-.383.368-.575.049-.074.103-.147.153-.221a2.5 2.5 0 0 1 .348-.349c.005.088-.009.23-.058.457zm6.019-1.887c-.723.865-1.298 2.005-1.853 3.11-.201.398-.388.772-.58 1.126l-.014.024c-.123.221-.226.388-.31.521.025-.084.054-.182.088-.29.015-.049.03-.093.035-.113.698-2.078 1.729-4.049 2.761-5.282.433-.506.688-.629.762-.634.054.06.172.31-.182 1.209a.845.845 0 0 0-.707.33zm16.725-5.06c-.722.864-1.297 2.004-1.852 3.11-.202.398-.389.771-.58 1.125l-.015.03c-.123.215-.226.387-.31.52a22.057 22.057 0 0 1 .123-.398c.698-2.078 1.73-4.049 2.762-5.282.432-.506.688-.629.761-.634.054.06.172.31-.182 1.209a.824.824 0 0 0-.707.32z" fill="#000"/><path d="M307.323 56.176c.284-.04.55-.005.781.084.059.049.078.068.137.117.099.064.172.015.246-.049.31-.28.373-1.007.206-1.302a1.238 1.238 0 0 0-.388-.182c-.157-.068-.304-.068-.442-.073 1.41-3.577 2.923-6.997 4.471-10.52.275-.634.054-1.715-.471-2.383-.423-.54-1.106-.86-1.533-.732-.698.142-1.705 2.191-2.212 3.13-2.594 4.712-5.419 10.166-8.564 14.907-.781.33-1.7.585-2.432.413-.132-.03-.152-.044-.255-.152-.059-.074-.133-.03-.207.014-.309.3-.373 1.008-.226 1.307.31.506 1.342.26 2.03-.014-1.16 1.636-2.344 3.144-3.592 4.466a8.575 8.575 0 0 1-2.049 1.725c-.28.152-.541.186-.737.127-.31-.088-.369.295-.359.477.113.791.963 1.135 1.789.884 1.159-.349 2.368-1.36 3.498-2.825 1.563-1.965 2.928-4.078 4.309-6.264.28-.153.536-.325.85-.531.885-.59 1.681-1.061 2.31-1.435l.147-.069a31.69 31.69 0 0 0-.973 3.17c-.192.84-.3 1.724.02 2.107.344.472 1.022.772 1.621.59.167-.05.349-.246.418-.447.069-.138.064-.32.034-.516l-.015-.27c.015-.556.187-1.297.364-2.015.364-1.297.767-2.52 1.224-3.739zm-2.182-.285c-.275.177-.516.34-.776.486-.595.32-1.239.718-2.015 1.185 2.929-4.909 4.776-8.5 7.763-13.31-1.837 3.797-3.444 7.664-4.972 11.64zM352.354 40.586c-.57-.27-1.4-.29-2.014-.109-1.518.457-3.263 4.732-3.263 4.732-.629.983-.722.413-.624-.088.172-.865.904-2.221 1.366-3.047.275-.51.094-.992-.196-1.223.132-.231.378-.649.486-1.003.319-.717.108-1.469-.319-1.896-.374-.378-.698-.516-1.066-.428-.978.295-2.128 1.823-2.737 2.82a20.54 20.54 0 0 0-2.206 4.786c-.379.713-.782 1.41-1.229 2.079-.648.943-.796.412-.712-.084.25-1.469 1.95-4.854 2.53-6.161.162-.369.044-.953-.241-1.361-.28-.344-.751-.521-.972-.413-.688.403-1.828 2.629-2.231 3.415-.649 1.331-1.307 2.732-1.74 3.759.364-1.288.89-2.604 1.455-3.803.226-.516.418-.875.516-1.096a.577.577 0 0 0 .083-.477c-.088-.402-.496-.771-.889-.845a.929.929 0 0 0-.477.04 1.186 1.186 0 0 0-.496.324c-.673.737-1.567 2.486-1.906 3.145a101.24 101.24 0 0 0-1.754 3.763 30.924 30.924 0 0 1 1.99-4.908.638.638 0 0 0 .068-.472c-.113-.545-.771-.988-1.223-.85-.177.054-.374.349-.487.575a36.994 36.994 0 0 0-1.479 3.636c-.25.771-.486 1.538-.702 2.275-.462.899-.958 1.778-1.518 2.594-.629.983-.723.413-.624-.089.172-.864.904-2.22 1.366-3.046.275-.51.093-.992-.197-1.223.133-.231.378-.649.486-1.003.32-.717.109-1.469-.319-1.896-.373-.379-.698-.516-1.066-.428-.978.295-2.128 1.823-2.737 2.82a20.965 20.965 0 0 0-.929 1.652c-.27.176-.53.353-.776.535.074-.28.098-.545.172-.865.162-1.095-.029-1.749-.221-2.098-.231-.378-.555-.54-.801-.467-.157.05-.378.222-.58.477-.801 1.037-1.469 2.265-2.093 3.395a62.106 62.106 0 0 1 2.919-7.503c.24-.545.437-.923.53-1.125.099-.157.094-.329.084-.476-.128-.516-.875-.914-1.312-.781-.368.113-.506.496-.619.805-.437 1.248-.993 2.698-2.26 6.21-.801 2.202-1.838 5.106-2.511 7.47-.27.466-.55.928-.85 1.365-.629.983-.722.413-.624-.088.172-.865.904-2.221 1.366-3.047.275-.51.093-.992-.197-1.223.133-.23.379-.649.487-1.002.319-.718.108-1.47-.32-1.897-.373-.378-.697-.516-1.066-.427-.978.294-2.127 1.822-2.737 2.82-.948 1.503-1.837 3.41-2.334 5.223-.299.54-.619 1.071-.963 1.577-.167.266-.84 1.002-.643.197.948-4.015 2.702-8.953 4.437-12.736.226-.496.437-.86.535-1.08a.58.58 0 0 0 .084-.477c-.133-.541-.86-.939-1.327-.797-.314.094-.472.507-.58.821-.452 1.292-.992 2.678-2.265 6.186-.865 2.32-1.941 5.45-2.663 7.871-.241.89-.457 1.936-.039 2.644.172.31.658.83 1.041.693.281-.084.698-.659.895-.978.417-.59.801-1.233 1.154-1.897 0 .25.01.492.049.718.055.432.33 1.42.836 1.267.924-.28 2.088-3.07 2.619-4.24-.059.255-.123.442-.182.698-.148.663-.221 1.307-.098 1.7.162.442.697.923 1.115.796.246-.074.614-.506.914-.939.339-.496.653-1.027.948-1.567.015.33.084.634.241.884.27.497.796.747 1.042.669.226-.07.245-.482.285-.708.004-.26.078-.58.152-.924.108.374.339.777.629 1.008.167.142.344.196.555.132.123-.04.206-.128.359-.28 1.385-1.425 2.358-3.754 3.08-5.685.172-.52.359-1.032.511-1.547.197-.148.393-.295.59-.438-.531 1.18-.968 2.418-1.204 3.582-.132.62-.172 1.292-.073 1.862.054.433.329 1.42.835 1.268.924-.28 2.088-3.07 2.619-4.24-.059.255-.123.442-.182.697-.148.664-.221 1.307-.098 1.7.162.443.697.924 1.115.797.246-.074.614-.507.914-.939.526-.767.992-1.612 1.42-2.452-.093.663-.089 1.253.137 1.617.29.51.831.776 1.027.717.138-.044.246-.437.246-.437s.663-2.491 1.469-4.255a44.266 44.266 0 0 1 2.206-4.329c-.108.29-.201.575-.299.84-.418 1.283-.836 2.565-1.121 3.7-.25 1.081-.398 2.152-.068 2.717.289.511.815.781 1.041.713.123-.035.182-.251.246-.438 0 0 .663-2.49 1.435-4.245.855-1.843 1.646-3.43 2.702-5.1-.87 1.828-2.044 4.388-2.457 6.206-.162.668-.172 1.272-.049 1.621.162.442.899 1.12 1.337.988.26-.079.594-.502.928-.968.457-.693.88-1.44 1.278-2.201a4.45 4.45 0 0 0 .044.967c.054.433.329 1.42.835 1.268.924-.28 2.088-3.07 2.619-4.24-.059.255-.123.442-.182.697-.147.664-.221 1.308-.098 1.7.162.443.698.924 1.115.797.246-.074.615-.507.914-.939.782-1.135 1.445-2.452 2.01-3.67l.997-1.735c.718-1.533 2.894-1.425 3.179.241.089.52.049 1.115-.172 1.735-.344.958-1.135 1.685-1.862 2.417-8.854 8.967-35.215 8.76-44.55 17.86 3.474-1.07 7.08 2.546 7.478 5.823 6.407-11.65 27.402-11.871 36.438-19.684 1.548-1.336 3.312-3.346 3.985-5.316.595-1.759.393-3.68-1.715-4.677zm-37.18 13.266c-.147.26-.639 1.135-.85 1.115-.245.01.098-.973.157-1.184.605-1.813 1.607-3.936 2.816-5.37.417-.492.879-.865 1.12-.683.388.31.039 1.228-.167 1.72-.216-.065-.496-.02-.663.2-.963 1.15-1.681 2.846-2.413 4.202zm6.574-1.022c-.245.437-.54.526-.231-.035.359-.624.792-1.287 1.244-1.832a14.467 14.467 0 0 1-1.013 1.867zm2.187-5.115a14.218 14.218 0 0 1-.442 1.528 26.526 26.526 0 0 0-1.705 1.759c-.403.526-.801 1.096-1.106 1.705.059-.255.084-.54.157-.796.349-.9 1.224-2.683 1.794-3.69.162-.305.363-.56.545-.83.585-.718 1.007-.737.757.324zm3.562 2.412c-.147.26-.639 1.135-.85 1.116-.246.01.098-.973.157-1.184.605-1.813 1.607-3.936 2.816-5.37.417-.492.879-.866 1.12-.684.388.31.039 1.229-.167 1.72-.216-.064-.496-.02-.663.201-.958 1.15-1.681 2.845-2.413 4.201zm16.721-5.06c-.148.26-.639 1.135-.85 1.115-.246.01.098-.973.157-1.184.604-1.813 1.607-3.931 2.815-5.37.418-.492.88-.865 1.121-.684.388.31.039 1.229-.168 1.72-.216-.064-.496-.02-.663.201-.958 1.15-1.675 2.845-2.412 4.201zM294.154 34.06l-1.65-6.947h1.68l.526 2.865c.152.825.299 1.72.412 2.422h.02c.113-.752.28-1.587.457-2.442l.59-2.845h1.67l.555 2.929c.153.815.271 1.557.374 2.329h.02c.103-.772.255-1.587.402-2.413l.565-2.845h1.597l-1.793 6.948h-1.7l-.59-2.988a25.718 25.718 0 0 1-.329-2.142h-.02a26.11 26.11 0 0 1-.403 2.142l-.658 2.988h-1.725zM306.315 31.123h-2.555v1.65h2.855v1.288h-4.432v-6.948h4.289v1.288h-2.712v1.444h2.555v1.278zM307.686 27.113h1.577v5.631h2.762v1.322h-4.339v-6.953zM317.665 33.864c-.29.143-.938.3-1.783.3-2.403 0-3.641-1.494-3.641-3.474 0-2.373 1.69-3.69 3.793-3.69.816 0 1.435.167 1.71.31l-.319 1.248a3.424 3.424 0 0 0-1.322-.256c-1.248 0-2.216.752-2.216 2.3 0 1.39.825 2.27 2.226 2.27.476 0 1.002-.104 1.307-.226l.245 1.218zM324.751 30.513c0 2.28-1.381 3.66-3.415 3.66-2.064 0-3.268-1.557-3.268-3.537 0-2.078 1.332-3.636 3.381-3.636 2.132 0 3.302 1.597 3.302 3.513zm-5.022.093c0 1.361.639 2.32 1.69 2.32 1.062 0 1.671-1.013 1.671-2.359 0-1.248-.6-2.319-1.681-2.319-1.061 0-1.68 1.012-1.68 2.358zM331.654 31.403a82.578 82.578 0 0 1-.064-2.855h-.029a39.593 39.593 0 0 1-.772 2.693l-.845 2.712h-1.228l-.742-2.693a32.885 32.885 0 0 1-.629-2.712h-.02c-.039.939-.073 2.01-.123 2.874l-.122 2.639h-1.455l.442-6.948h2.094l.678 2.32c.216.805.432 1.67.589 2.486h.03c.196-.806.432-1.72.658-2.496l.742-2.31h2.049l.383 6.948h-1.538l-.098-2.658zM338.636 31.123h-2.555v1.65h2.855v1.288h-4.432v-6.948h4.289v1.288h-2.712v1.444h2.555v1.278zM343.024 28.435h-1.867v-1.322h5.34v1.322h-1.896v5.63h-1.577v-5.63zM353.396 30.513c0 2.28-1.381 3.66-3.415 3.66-2.064 0-3.267-1.557-3.267-3.537 0-2.083 1.331-3.64 3.38-3.64 2.137.004 3.302 1.6 3.302 3.517zm-5.022.093c0 1.361.639 2.32 1.691 2.32 1.061 0 1.67-1.013 1.67-2.359 0-1.248-.599-2.319-1.68-2.319-1.061 0-1.681 1.012-1.681 2.358z" fill="#fff"/></g><defs><linearGradient id="paint0_linear" x1="223.355" y1="90.746" x2="223.355" y2="76.384" gradientUnits="userSpaceOnUse"><stop offset=".003" stop-color="#C2B69C"/><stop offset=".505" stop-color="#E3DFD7"/><stop offset=".797" stop-color="#E6E6E6"/></linearGradient><linearGradient id="paint1_linear" x1="223.002" y1="89.08" x2="228.203" y2="98.088" gradientUnits="userSpaceOnUse"><stop stop-color="#E3DFD7"/><stop offset=".997" stop-color="#C2B69C"/></linearGradient><linearGradient id="paint2_linear" x1="221.664" y1="100.695" x2="241.123" y2="100.695" gradientUnits="userSpaceOnUse"><stop offset=".005" stop-color="#CCC1AB"/><stop offset=".182" stop-color="#D0C6B4"/><stop offset=".488" stop-color="#D3CBBC"/><stop offset=".997" stop-color="#D4CDBF"/></linearGradient><linearGradient id="paint3_linear" x1="205.95" y1="89.86" x2="212.114" y2="89.86" gradientUnits="userSpaceOnUse"><stop stop-color="#E3DFD7"/><stop offset=".997" stop-color="#C2B69C"/></linearGradient><linearGradient id="paint4_linear" x1="211.462" y1="100.614" x2="211.462" y2="91.158" gradientUnits="userSpaceOnUse"><stop offset=".003" stop-color="#C2B69C"/><stop offset="1" stop-color="#E3DFD7"/></linearGradient><linearGradient id="paint5_linear" x1="212.432" y1="102.133" x2="224.778" y2="102.133" gradientUnits="userSpaceOnUse"><stop offset=".003" stop-color="#C2B69C"/><stop offset="1" stop-color="#E3DFD7"/></linearGradient><linearGradient id="paint6_linear" x1="217.37" y1="97.297" x2="248.765" y2="97.297" gradientUnits="userSpaceOnUse"><stop offset=".003" stop-color="#389CC7"/><stop offset="1" stop-color="#2E7EC9"/></linearGradient><linearGradient id="paint7_linear" x1="231.433" y1="92.295" x2="247.019" y2="92.295" gradientUnits="userSpaceOnUse"><stop offset=".003" stop-color="#389CC7"/><stop offset="1" stop-color="#2E7EC9"/></linearGradient><linearGradient id="paint8_linear" x1="232.934" y1="95.71" x2="225.914" y2="100.965" gradientUnits="userSpaceOnUse"><stop stop-color="#2E7EC9"/><stop offset=".997" stop-color="#389CC7"/></linearGradient><linearGradient id="paint9_linear" x1="190.882" y1="88.186" x2="196.713" y2="88.186" gradientUnits="userSpaceOnUse"><stop stop-color="#E3DFD7"/><stop offset=".997" stop-color="#C2B69C"/></linearGradient><linearGradient id="paint10_linear" x1="190.84" y1="92.879" x2="204.138" y2="92.879" gradientUnits="userSpaceOnUse"><stop stop-color="#E3DFD7"/><stop offset=".997" stop-color="#C2B69C"/></linearGradient><linearGradient id="paint11_linear" x1="195.01" y1="93.391" x2="206.047" y2="93.391" gradientUnits="userSpaceOnUse"><stop offset=".203" stop-color="#E6E6E6"/><stop offset=".495" stop-color="#E3DFD7"/><stop offset=".997" stop-color="#C2B69C"/></linearGradient><linearGradient id="paint12_linear" x1="204.293" y1="103.604" x2="204.293" y2="95.097" gradientUnits="userSpaceOnUse"><stop stop-color="#E3DFD7"/><stop offset=".997" stop-color="#C2B69C"/></linearGradient><linearGradient id="paint13_linear" x1="197.114" y1="89.099" x2="201.366" y2="89.099" gradientUnits="userSpaceOnUse"><stop offset=".203" stop-color="#E6E6E6"/><stop offset=".495" stop-color="#E3DFD7"/><stop offset=".997" stop-color="#D4CDBF"/></linearGradient><linearGradient id="paint14_linear" x1="207.086" y1="102.428" x2="208.709" y2="102.428" gradientUnits="userSpaceOnUse"><stop stop-color="#E3DFD7"/><stop offset=".997" stop-color="#C2B69C"/></linearGradient><linearGradient id="paint15_linear" x1="181.543" y1="88.171" x2="188.612" y2="88.171" gradientUnits="userSpaceOnUse"><stop stop-color="#E3DFD7"/><stop offset=".997" stop-color="#C2B69C"/></linearGradient><linearGradient id="paint16_linear" x1="176.739" y1="82.351" x2="189.149" y2="82.351" gradientUnits="userSpaceOnUse"><stop offset=".203" stop-color="#E6E6E6"/><stop offset=".495" stop-color="#E3DFD7"/><stop offset=".997" stop-color="#C2B69C"/></linearGradient><linearGradient id="paint17_linear" x1="180.316" y1="78.599" x2="182.788" y2="78.599" gradientUnits="userSpaceOnUse"><stop offset=".203" stop-color="#E6E6E6"/><stop offset=".495" stop-color="#E3DFD7"/><stop offset=".997" stop-color="#D4CDBF"/></linearGradient><clipPath id="clip0"><path fill="#fff" transform="translate(291 27)" d="M0 0h64.096v44H0z"/></clipPath></defs></svg>