<svg width="375" height="150" fill="none" xmlns="http://www.w3.org/2000/svg" viewBox="0 0 375 150"><path d="M478.8-8H-20v155.9h498.8V-8z" fill="#EDDCCE"/><path fill-rule="evenodd" clip-rule="evenodd" d="M495.4-20.1H-40.7v183.4h536.1V-20.1z" fill="#EDDCCE"/><path d="M57.1 92.4H38.7v45h18.4v-45zM9.7 103.4H-5.5v37.9H9.7v-37.9zM104.3 69.6H88.9v69.9h15.4V69.6zM156.9 74.9h-13.3v69.9h13.3V74.9z" fill="#EDDCCE"/><path d="M161.3 77.7H148v69.9h13.3V77.7z" fill="#EDDCCE"/><path d="M172.2 70.4h-13.3v69.9h13.3V70.4zM214.9 79.1h-14.4v62.6h14.4V79.1z" fill="#EDDCCE"/><path d="M207.7 84.1h-14.4v58.7h14.4V84.1zM293.4 75.2h-6.7v58.7h6.7V75.2zM331.2 126.1h-21.8v15.6h21.8v-15.6z" fill="#EDDCCE"/><path d="M342.1 113.4h-21.8V140h21.8v-26.6zM387.9 87.9h-39.2v51.6h39.2V87.9zM308.5 110h-13.9v32.3h13.9V110zM263.6 74.3h-6.7V133h6.7V74.3zM251.9 80.5h-14.4v58.7h14.4V80.5zM142.6 87.9h-10.3v45h10.3v-45zM7.2 122.1h-32V141h32v-18.9zM88.4 96.4v-.7h-1.3v.7h-.8v-.7H85v.7h-.8v-.7h-1.3v.7h-.8v-.7h-1.3v.7H80v-.7h-1.3v.7h-.9v-.7h-1.2v.7h-.9v-.7h-1.3v.7h-.8v-.7h-1.3v.7h-.8v-.7h-1.3v.7h-.8v-.7h-1.3v.7h-.8v-.7H66v.7h-.1V136h22.6V96.4h-.1zM99.5 79.3V77h-3v1.5h-1.9v.8h-.7v62.1h6.1V79.3h-.5z" fill="#EDDCCE"/><path d="M301.5 84.1V83h-23v1.1h3.3V86h-3.3v56.3h23V86h-3.4v-1.9h3.4zM363.4 77.7v2.8h-2.7v2.1h-1v56.2h10.1V77.7h-6.4zM257.1 70.2v-2.3h-6.4v2.3h-2.1v69.3h10.7V70.2h-2.2zM33.3 87.7v-5h1V81H16.1v-.9h-2.9v.9h-2.4v1.7h1v5H6.7v52h31.6v-52h-5zM129 83.3v-1.4h-8.2v-6.5h-7.4v6.5h-8.2v1.4h-3.8V134h31.4V83.3H129z" fill="#EDDCCE"/><path d="M20.8 102.9H6.6v37.8h14.2v-37.8z" fill="#EDDCCE"/><path d="M228.9 76.8v-2.7h-3.2v-3.5h-1v1.3h-1.9v-1.3h-.4v-7h-.5v7h-1.1v-9.2h-.4V71.9h-2.6v-1.3h-1v3.5H215v2.7h-10.7v62.7h39.3V76.8h-14.7zM190 72.6V45.9h-3.2V27.6h-2.7V14.7h-.7v12h-.8v-1h-.1V2h-1.4v12h-.5v11.7h-1.1V8h-.4V1.3H178V8h-.4v18.7h-.3v-6.4h-.8v7.3h-.5V15.4h-.8v12.2H174v18.3h-3.2v26.7h-4v66.9H194V72.6h-4zM379.7 86.5v-1.1h-3.2v-1.2h-3v1.2h-3.2v1.1h-2.8v53.2h14.9V86.5h-2.7zM280.5 78.9V78h-3v-1h-4v1h-7v.9h-2.9v60.6h25.3V78.9h-8.4zM351.8 74.9v-26h-1v-1.4h-2.1v1.4h-.8v-4.3h-3.1V42h-1v2.6h-3v4.3h-.9v-1.4h-2.1v1.4h-1v26h-4.6v64.6H356.4V74.9h-4.6zM145.8 71.1v-2.4h-4.5v2.4h-3v67.6h10.5V71.1h-3zM90 85.7v-6h-.8v-2.2h-.6v-1.4h.5v-.8h-.5v-5.1h-1.5l-3.6-4.8-3.6 4.8h-1.5v5.1h-.5v.8h.5v1.4h-.7v2.2h-.8v6h-1.4v54.7h15.9V85.7H90zM133.6 104.8v-3.2h-3.1v-2.1h-.7v-2h-.8v-1h-1.9v-9.3h-.8v9.3h-.3v-1.2h-1v1.2h-1.5v1h-1.2v2h-2.7v2.1H96.4V139.7h41v-34.9h-3.8zM67.1 23.5v-9.3c-.3-.8-4.4-.4-9.1.9-4.4 1.2-7.9 2.7-8.3 3.6v2.5l-1.6-.2v4.6h-1.4v21.5h-2.3v.8h-1v28.4h-7.2v19.2h-1.4v44.7H68V23.7l-.9-.2z" fill="#CE7C72"/><path d="M38 123v-2.2h-5.5V119h-4.3v-.9h-.7v-.5h-.7v-.6h-.1v-1.6h.1v-.9h-.1c0-1.1-.8-2-1.9-2.1v-5.7h-.3v5.7c-1 .1-1.9 1-1.9 2.1h-.1v.9h.1v1.6h-.1v.6H22v.5h-.7v.9H17v1.9h-5.5v2.2H9.3v17.3h31.1V123H38z" fill="#CE7C72"/><path d="M244 113.8V112.9h-18.3v-2.5h-4.5V139.5h23.4v-25.7h-.6zm-18.2 0v-.6h16.8v.6h-16.8zM377.7 107.4l-7-9.3v5.2h-.6v-5l-5.3 9.1h-.1v32.1h13.1v-32.1h-.1zM175.2 125h-15.6v15.2h15.6V125zM196.7 130.5h-7.8v9.9h7.8v-9.9zM218.7 124.1h-7.8v16.3h7.8v-16.3z" fill="#C16553"/><path d="M223.9 127.2h-7.8v16.3h7.8v-16.3zM252.4 135.9h-7.8v5.8h7.8v-5.8zM293.3 130.2h-7.8v9.8h7.8v-9.8zM345.5 135.2h-7.8v4.8h7.8v-4.8zM366.1 129h-7.8v11.1h7.8V129zM183.4 103.1v-6.6h-.8v-4.1l-4.9-2.9V89h-.5v-.1l-.1-.1v-.7l.1-.7h.1v-.9c-.1 0-.3-.1-.3-.1v-.2s.1-.1.1-.2-.1-.2-.2-.2-.2.1-.2.2 0 .1.1.2v.2s-.2 0-.3.1c-.1 0 0 .9 0 .9h.1l.1.7v.7l-.1.1v.1h-.5v.6l-4.9 2.9v4.1h-.8v6.6h-1.1v36.4h15.2v-36.4h-1.1v-.1zM162.9 103.5v-2.4h-4.7v2.4h-.8v-7.3h.7v-1.5h-.7V92h-1.1v-1.6h-.8v-1h-.5V88h-.9v-2.3h-.3v-1.1h-1.1v-.7h-.7v-1.7h-.7v1.7h-.6v.7h-1.1v1.1h-.4V88h-.9v1.4h-.4v1h-.9V92h-1v2.7h-.7v1.5h.7v7.3h-.9v-2.4h-4.6v2.4h-.9v36h24.2v-36h-.9z" fill="#C16553"/><path d="M217.8 110h-1.2v-1h-6.5v-1.1h-1.5V106H206v-1.9h-3.1v1.9h-2.6v1.9h-1.5v1.1h-6.5v1h-1.2v1.5h1.2v28h24.3v-28h1.2V110zM282.3 123.6v-1.8h.1v-1h-.4v.3h-.1v.4h-.3l-10.1-4.8v-.3h-.3v-.3h-.3v-.2h-.4v.2h-.3v.3h-.3v.3l-10 4.8v-.1h-.3v-.3h-.1v-.3h-.4v1h.1v1.8H252v15.9h37.4v-15.9h-7.1zM322.7 118.9l-.1-.1-.1-.1-.3-.3-1.2-1.3-.3-.4-.4.4-1.8 1.7-.1.1-3.4-3.6-.1.1-.1.1.1.2v.4c0 .1-.1.1 0 .3v.2c0 .1.1 0 .1.1l.2.2s.1.1.1 0v-.1c0-.2.2-.3.2-.4v-.1l2.8 2.9-.1.1-1.8 1.7-.1.1-3.4-3.6-.1.1-.1.1.1.2v.4c0 .1-.1.1 0 .3v.2c0 .1.1 0 .1.1l.2.2s.1.1.1 0v-.1c0-.2.2-.3.2-.4v-.1l2.8 2.9-.1.1-1.8 1.7-.1.1-3.4-3.6-.1.1-.1.1.1.2v.4c0 .1-.1.1 0 .3v.2c0 .1.1 0 .1.1l.2.2s.1.1.1 0v-.1c0-.2.2-.3.2-.4v-.1l2.8 2.9-.1.1-1.8 1.7-.1.1-3.4-3.6-.1.1-.1.1.1.2v.4c0 .1-.1.1 0 .3v.2c0 .1.1 0 .1.1l.2.2s.1.1.1 0v-.1c0-.2.2-.3.2-.4v-.1l2.8 2.9-.1.1-1.8 1.7-.1.1-3.4-3.6-.1.1-.1.1.1.2v.4c0 .1-.1.1 0 .3v.2c0 .1.1 0 .1.1l.2.2s.1.1.1 0v-.1c0-.2.2-.3.2-.4v-.1l2.8 2.9-.1.1-1.8 1.7-.1.1-3.4-3.6-.1.1-.1.1.1.2v.4c0 .1-.1.1 0 .3v.2c0 .1.1 0 .1.1l.2.2s.1.1.1 0v-.1c0-.2.2-.3.2-.4v-.1l2.8 2.9-.1.1-1.8 1.7-.1.1-3.4-3.6-.1.1v-.1H301v-.9h-.5l-1.4-1.3c.2-.1.3-.3.3-.5 0-.3-.2-.5-.5-.5s-.5.2-.5.5c0 .2.1.4.3.5l-1.4 1.3h-.5v.9h-.5v.6h.5v1.3h-.3v4.6h-.3v.6h.6v.4h-.8v4.3h12.2V134h-1.4l15.9-15.1zm-20.2 14.9l-.2.2h-1v-1.7l1.3 1.4-.1.1zm3.7.2l.3-.3.1.1-.2.2h-.2zm.8-.5l-.1-.1 1.8-1.7.1.1-1.8 1.7zm2.2-2.1l-.1-.1 1.8-1.7.1.1-1.8 1.7zm2.3-2.1l-.1-.1 1.8-1.7.1.1-1.8 1.7zm2.2-2.1l-.1-.1 1.8-1.7.1.1-1.8 1.7zm2.2-2.1l-.1-.1 1.8-1.7.1.1-1.8 1.7zm2.2-2.1l-.1-.1 1.8-1.7.1.1-1.8 1.7zm4.1-3.8l-1.8 1.7-.1-.1 1.8-1.7.1.1zm-1.6-1.7l1.2 1.3-1.8 1.7-1.2-1.3 1.8-1.7zm-2.2 2.1l1.2 1.3-1.8 1.7-1.2-1.3 1.8-1.7zm-2.3 2.1l1.2 1.3-1.8 1.7-1.2-1.3 1.8-1.7zm-2.2 2.1l1.2 1.3-1.8 1.7-1.2-1.3 1.8-1.7zm-2.2 2.1l1.2 1.3-1.8 1.7-1.2-1.3 1.8-1.7zm-2.2 2l1.2 1.3-1.8 1.7-1.2-1.3 1.8-1.7zm-2.2 2.1l1.2 1.3-1.8 1.7-1.2-1.3 1.8-1.7zm-2.3 2.1l1.2 1.3-.6.6h-2.3l-.1-.2 1.8-1.7zm-4-3.7h.5v-.4l.1.1v.4c0 .1-.1.1 0 .3v.2c0 .1.1 0 .1.1l.2.2s.1.1.1 0v-.1c0-.2.2-.3.2-.4v-.1l2.8 2.9-.1.1-1.8 1.7-1.5-1.6v-2.3h-.6v-1.1zM358.9 131.1V127h-.3v-1.3h.5v-.6h-.5v-.9h-.5l-1.4-1.3c.2-.1.3-.3.3-.5 0-.3-.2-.5-.5-.5s-.5.2-.5.5c0 .2.1.4.3.5l-1.4 1.3h-.5v.9h-.4v.6h.5v1.3h-.3v4.1h-4.4l.8-.8v.1c0 .1.1.2.2.4v.1c0 .1.1 0 .1 0l.2-.2s.1 0 .1-.1v-.2c.1-.2 0-.2 0-.3v-.2-.2l.1-.2-.1-.1-.1-.1-2.6 2.8h-1.7l-1-.9-.1-.1 2.8-2.9v.1c0 .1.1.2.2.4v.1c0 .1.1 0 .1 0l.2-.2s.1 0 .1-.1v-.2c.1-.2 0-.2 0-.3v-.2-.2l.1-.2-.1-.1-.1-.1-3.4 3.6-.1-.1-1.8-1.7-.1-.1 2.8-2.9v.1c0 .1.1.2.2.4v.1c0 .1.1 0 .1 0l.2-.2s.1 0 .1-.1v-.2c.1-.2 0-.2 0-.3v-.2-.2l.1-.2-.1-.1-.1-.1-3.4 3.6-.1-.1-1.8-1.7-.1-.1 2.8-2.9v.1c0 .1.1.2.2.4v.1c0 .1.1 0 .1 0l.2-.2s.1 0 .1-.1v-.2c.1-.2 0-.2 0-.3v-.2-.2l.1-.2-.1-.1-.1-.1-3.4 3.6-.1-.1-1.8-1.7-.1-.1 2.8-2.9v.1c0 .1.1.2.2.4v.1c0 .1.1 0 .1 0l.2-.2s.1 0 .1-.1v-.2c.1-.2 0-.2 0-.3v-.2-.2l.1-.2-.1-.1-.1-.1-3.4 3.6-.1-.1-1.8-1.7-.1-.1 2.8-2.9v.1c0 .1.1.2.2.4v.1c0 .1.1 0 .1 0l.2-.2s.1 0 .1-.1v-.2c.1-.2 0-.2 0-.3v-.2-.2l.1-.2-.1-.1-.1-.1-3.4 3.6-.1-.1-1.8-1.7-.1-.1 2.8-2.9v.1c0 .1.1.2.2.4v.1c0 .1.1 0 .1 0l.2-.2s.1 0 .1-.1v-.2c.1-.2 0-.2 0-.3v-.2-.2l.1-.2-.7.6-.1-.1-3.4 3.6-.1-.1-1.8-1.7-.1-.1 2.8-2.9v.1c0 .1.1.2.2.4v.1c0 .1.1 0 .1 0l.2-.2s.1 0 .1-.1v-.2c.1-.2 0-.2 0-.3v-.2-.2l.1-.2-.1-.1-.1-.1-3.4 3.6-.1-.1-1.8-1.7-.4-.4-.3.4-1.2 1.3-.3.3-.1.1-.1.1 14.6 13.7H341v7.4h19.5V131h-1.6v.1zm-9.1 0v1.1h-1l1-1.1zm-4.4.5l.6.6h-1.2l.6-.6zm-2.2-2.1l1.8 1.7-.9.9h-.7l-1.5-1.4 1.3-1.2zm-2.2-2.1l1.8 1.7-1.2 1.3-1.8-1.7 1.2-1.3zm-2.2-2.1l1.8 1.7-1.2 1.3-1.8-1.7 1.2-1.3zm-2.2-2.1l1.8 1.7-1.2 1.3-1.8-1.7 1.2-1.3zm-2.3-2.1l1.8 1.7-1.2 1.3-1.8-1.7 1.2-1.3zm-2.2-2.1l1.8 1.7-1.2 1.3-1.8-1.7 1.2-1.3zm-2.2-2.1l1.8 1.7-1.2 1.3-1.8-1.7 1.2-1.3zm.2 3.5l-1.8-1.7.1-.1 1.8 1.7-.1.1zm2.3 2.1l-1.8-1.7.1-.1 1.8 1.7-.1.1zm2.2 2l-1.8-1.7.1-.1 1.8 1.7-.1.1zm2.2 2.1l-1.8-1.7.1-.1 1.8 1.7-.1.1zm2.2 2.1l-1.8-1.7.1-.1 1.8 1.7-.1.1zm2.3 2.1l-1.8-1.7.1-.1 1.8 1.7-.1.1zm.3.4l.1-.1 1.2 1.1h-.3l-1-1z" fill="#C16553"/><path d="M299.9 135.2h-7.8v4.8h7.8v-4.8zM19.2 135.6H.6v4.8h18.6v-4.8zM108.2 122.2c-9-.3-16.9 6.1-17.1 12.2-.2 6 5.4 7.2 17 1.3 10.8 5.3 15.8 4.9 16-1.2.2-6.1-6.9-12.1-15.9-12.3zM149.3 134h-23.4v6.2h23.4V134z" fill="#C16553"/><path d="M29.5 133.4H10.9v7.3h18.6v-7.3zM81.9 132.9v-1.6H68.3v-3.1h-.1l-5.3-5.3v-6.8h-.2v7l-5.1 5.1h-.3v3.1H43.8v1.6H38v6.6h49.6v-6.6h-5.7z" fill="#C16553"/><path d="M18.8 115.6c-.1-.7-.2-1.4-.4-2.1.3-.3.4-.7.4-1.1v-1.6c0-.9-.7-1.5-1.5-1.5-.2 0-.4 0-.6.1-.4-.7-.9-1.4-1.5-2.1v-1.8c0-.9-.7-1.5-1.5-1.5-.5 0-.9.2-1.2.6-.9-.7-1.8-1.3-2.7-1.7v-1c0-.9-.7-1.5-1.5-1.5s-1.4.6-1.5 1.4c-1-.3-2-.5-3-.5v-.9c0-.9-.7-1.5-1.5-1.5-.9 0-1.5.7-1.5 1.5v.9c-1 .1-2 .3-3 .5-.1-.8-.7-1.4-1.5-1.4-.9 0-1.5.7-1.5 1.5v1c-1.1.6-2.1 1.2-3.1 2-.2-.5-.8-.9-1.4-.9-.9 0-1.5.7-1.5 1.5v1.6c0 .2.1.5.1.7-.4.5-.8 1.1-1.1 1.6-.2-.1-.4-.1-.6-.1-.9 0-1.5.7-1.5 1.5v1.6c0 .4.2.8.5 1.1-.2.7-.3 1.4-.4 2.1-.8 0-1.5.7-1.5 1.5v1.6c0 .8.7 1.5 1.5 1.5.1.6.2 1.3.4 1.9-.3.3-.5.7-.5 1.1v1.6c0 .9.7 1.5 1.5 1.5.2 0 .4 0 .6-.1.3.6.7 1.1 1.1 1.6-.1.2-.2.4-.2.7v1.6c0 .9.7 1.5 1.5 1.5.6 0 1.2-.4 1.4-.9l.3.3-5.3 7.1.6.4 5.3-7.1c.3.2.5.4.8.5l-3.6 6.2.7.4 3.6-6.2c.2.1.5.3.7.4l-2.3 5.5.7.3 1.7-4.1c.2.6.8 1 1.5 1 .9 0 1.5-.7 1.5-1.5 1 .3 2 .5 3 .5v.6c0 .9.7 1.5 1.5 1.5.9 0 1.5-.7 1.5-1.5v-.6c1-.1 2-.3 3-.5 0 .8.7 1.5 1.5 1.5.7 0 1.2-.4 1.5-1l1.7 4.1.7-.3-2.3-5.5c.2-.1.5-.2.7-.4l3.6 6.2.7-.4-3.6-6.2c.3-.2.5-.3.8-.5l5.3 7.1.6-.4-5.2-7c.3.3.7.6 1.2.6.9 0 1.5-.7 1.5-1.5v-1.6-.2c.5-.7 1-1.4 1.4-2.1.2.1.4.1.6.1.9 0 1.5-.7 1.5-1.5v-1.6c0-.4-.2-.8-.5-1.1.2-.6.3-1.3.4-1.9.8 0 1.5-.7 1.5-1.5v-1.6c-.1-.9-.8-1.6-1.6-1.6zM-6 128.2c-.3-.3-.6-.5-.9-.8l4.2-4.2c.1.1.2.2.3.2l-3.6 4.8zm3.3-3.2l-2.3 4c-.1-.1-.3-.2-.4-.3l2.7-3.7zm-11.3-9.3c.1-.6.2-1.2.4-1.8.2.1.4.1.6.1.8 0 1.5-.6 1.5-1.4l.9.4c-.6 1.4-.9 3-.9 4.6h-1.4v-.4c0-.8-.5-1.3-1.1-1.5zm9.1 1.8c0-.7.2-1.4.4-2.1l5 2.1h-5.4zm5.3.7l-5 2.1c-.2-.6-.4-1.3-.4-2.1H.4zm-10.3-5.7c.6-1.4 1.5-2.6 2.5-3.7l4.2 4.2c-.5.5-.9 1.1-1.2 1.8l-5.5-2.3zm5.2 2.8c-.2.7-.4 1.4-.4 2.1H-11c0-1.6.3-3 .9-4.4l5.4 2.3zm-.5 2.9c0 .7.2 1.5.4 2.1l-5.5 2.3c-.5-1.4-.8-2.9-.9-4.4h6zm.7 2.7c.3.7.7 1.3 1.2 1.8l-4.2 4.2c-1-1.1-1.9-2.3-2.5-3.7l5.5-2.3zm1.9 2.1l1.5-1.5-1.3 1.7c-.1 0-.1-.1-.2-.2zm-.5-.4c-.5-.5-.9-1.1-1.2-1.7L.3 119l-.1.3-3.3 3.3zm3-.7l.6-1-1.4 3.3s-.1 0-.1-.1l.9-2.2zm-4.2-7.1c.3-.6.7-1.2 1.2-1.7l3.8 3.8-5-2.1zm1.7-2.2c.5-.5 1.1-.9 1.7-1.2l2.1 5-3.8-3.8zm-.2-.2l-4.2-4.2c1.1-1 2.3-1.9 3.7-2.5l2.3 5.5c-.6.3-1.2.7-1.8 1.2zm-2.7-9c0 .8.7 1.5 1.5 1.5h.3l.2.4c-1.4.6-2.8 1.5-3.9 2.6l-1.1-1.1v-1.3-.1c1-.8 2-1.4 3-2zm-5.5 4.8c.3.3.6.4 1.1.4.7 0 1.2-.4 1.4-1l.8.8c-1.1 1.1-2 2.4-2.6 3.9l-1.2-.5v-1c0-.4-.2-.8-.5-1.1.3-.5.6-1 1-1.5zm-3 12c.6-.2 1-.8 1-1.5v-.6h1.4c0 1.6.4 3.2.9 4.6l-.9.4c-.1-.8-.7-1.4-1.5-1.4-.2 0-.4 0-.6.1-.1-.5-.2-1-.3-1.6zm2.5 4.7v-1.1l1.2-.5c.6 1.4 1.5 2.8 2.6 3.9l-.8.8c-.2-.6-.8-1-1.4-1-.4 0-.8.2-1 .4-.3-.5-.7-1-1-1.5.2-.2.4-.6.4-1zm3.6 5.8c-.2-.1-.4-.3-.5-.4v-1.4l1.1-1.1c.3.3.6.6 1 .8l-1.6 2.1zm1.4.9c-.2-.2-.5-.3-.7-.5l1.6-2.1c.2.1.3.2.5.3l-1.4 2.3zm1.7-.5c-.4.2-.6.6-.7 1.1-.1-.1-.3-.2-.4-.2l1.3-2.3c.1.1.2.1.3.2l-.5 1.2zm.7-1.6c-.1-.1-.2-.1-.3-.2l1.3-2.2-1 2.4zm.4 1.4h-.2l.3-.7c.1 0 .1.1.2.1l-.3.6zm.3-1.1l2.3-5.5.1.1-2.3 5.5s0-.1-.1-.1zm5.2 2.2c-.7.2-1.2.8-1.2 1.5v.5c-1-.1-2-.3-3-.6v-1c0-.5-.3-1-.6-1.3l.3-.6c1.4.6 3 .9 4.6.9v.6h-.1zm0-1c-1.6 0-3-.3-4.4-.9l2.3-5.5c.7.2 1.4.4 2.1.4v6zm0-6.1c-.7 0-1.4-.2-2.1-.4l2.1-5v5.4zm0-8.8l-2.1-5c.6-.2 1.3-.4 2.1-.4v5.4zm0-5.6c-.7 0-1.5.2-2.1.4l-2.3-5.5c1.4-.5 2.9-.8 4.4-.9v6zm0-6.3c-1.6 0-3.2.4-4.6.9l-.2-.5c.4-.3.6-.7.6-1.2v-1.2c1-.3 2-.5 3-.6v.2c0 .7.5 1.4 1.2 1.5v.9zm16.5 11.5c-.6.2-1.1.8-1.1 1.5v.4h-1.4c0-1.6-.4-3.2-.9-4.6l.9-.4c.1.8.7 1.4 1.5 1.4.2 0 .4 0 .6-.1.2.5.3 1.1.4 1.8zm-11.5 7.7c.1-.1.2-.1.3-.2l4.2 4.2c-.3.3-.6.5-.9.8l-3.6-4.8zm2.9 5.2c-.1.1-.3.2-.4.3L7 125l2.7 3.6zm-2.3-15.5c.5.5.9 1.1 1.2 1.7l-5 2.1 3.8-3.8zm-4.3 3.3l2.1-5c.6.3 1.2.7 1.7 1.2l-3.8 3.8zm.7 1.1l5-2.1c.2.6.4 1.3.4 2.1H3.8zm5.4.7c0 .7-.2 1.4-.4 2.1l-5-2.1h5.4zm-.5-3.5c-.3-.7-.7-1.3-1.2-1.8l4.2-4.2c1 1.1 1.9 2.3 2.5 3.7l-5.5 2.3zm-4.4 7.2l.9 2.3s-.1 0-.1.1L3.7 121l.6.9zm-.3-2.6l-.1-.3 4.6 1.9c-.3.6-.7 1.2-1.2 1.7L4 119.3zm2.9 3.7c-.1.1-.2.1-.2.2l-1.3-1.7 1.5 1.5zm.6-.3c.5-.5.9-1.1 1.2-1.8l5.5 2.3c-.6 1.4-1.5 2.6-2.5 3.7l-4.2-4.2zm1.5-2.4c.2-.7.4-1.4.4-2.1h5.9c0 1.6-.3 3-.9 4.4L9 120.3zm.4-2.8c0-.7-.2-1.5-.4-2.1l5.5-2.3c.5 1.4.8 2.9.9 4.4h-6zm6.8-7.8c-.3.3-.5.7-.5 1.1v1l-1.2.5c-.6-1.4-1.5-2.8-2.6-3.9l.4-.4c.3.4.7.7 1.3.7.6 0 1-.3 1.3-.7.6.5 1 1.1 1.3 1.7zm-8.3-4.8h.3c.8 0 1.5-.7 1.5-1.5.9.5 1.7 1 2.5 1.6 0 .1-.1.3-.1.4v1.8l-.6.6c-1.1-1.1-2.4-2-3.9-2.6l.3-.3zm3.3 3.3L7 112.4c-.5-.5-1.1-.9-1.8-1.2l2.3-5.5c1.4.7 2.6 1.5 3.7 2.5zm-8.7-4.9c.7-.2 1.2-.8 1.2-1.5v-.2c1 .1 2 .3 3 .6v1.2c0 .5.2.9.6 1.2l-.3.5c-1.4-.6-3-.9-4.6-.9v-.9h.1zm0 1.3c1.6 0 3 .3 4.4.9L4.6 111c-.7-.2-1.4-.4-2.1-.4v-6zm0 6.2c.7 0 1.4.2 2.1.4l-2.1 5v-5.4zm0 8.7l2.1 5c-.6.2-1.3.4-2.1.4v-5.4zm0 5.6c.7 0 1.5-.2 2.1-.4l2.3 5.5c-1.4.5-2.9.8-4.4.8v-5.9zm4.2 7.3v1c-1 .3-2 .5-3 .6v-.5c0-.7-.5-1.4-1.2-1.5v-.6c1.6 0 3.2-.4 4.6-.9l.3.6c-.5.4-.7.8-.7 1.3zm.8-2.5l-2.3-5.5s.1 0 .1-.1l2.3 5.5s0 .1-.1.1zm.4 1l-.3-.6c.1 0 .1-.1.2-.1l.3.7h-.2zm-.6-3.8l1.3 2.2c-.1.1-.2.1-.3.2l-1-2.4zm2.4 5.1c-.1-.5-.3-.9-.7-1.1l-.5-1.2c.1-.1.2-.1.3-.2l1.3 2.3c-.1.1-.2.2-.4.2zm1.1-.6l-1.3-2.3c.2-.1.3-.2.5-.3l1.6 2.1c-.3.2-.5.4-.8.5zm1.3-.9l-1.6-2.1c.3-.3.7-.5 1-.8l.6.6v1.8c.1.1.1.3 0 .5.1-.1.1 0 0 0zm2.9-2.9c-.3-.4-.8-.7-1.3-.7s-1 .2-1.2.6l-.5-.5c1.1-1.1 2-2.4 2.6-3.9l1.2.5v1.1c0 .4.2.8.5 1.1-.4.6-.8 1.2-1.3 1.8zm2.3-6.1c-.8 0-1.4.6-1.5 1.4l-.9-.4c.6-1.4.9-3 .9-4.6h1.4v.6c0 .7.4 1.3 1 1.5-.1.6-.2 1.1-.3 1.7-.2-.1-.4-.2-.6-.2zM498 139.2H-32v9.2h530v-9.2z" fill="#C16553"/></svg>