<svg width="72" height="72" fill="none" xmlns="http://www.w3.org/2000/svg" viewBox="0 0 72 72"><path d="M60.623 15.419A2.003 2.003 0 0 0 59.394 15h-46.79c-.446 0-.88.148-1.228.419L7 18.819v8.59c0 .506.207.992.576 1.35.369.358.869.56 1.39.56H58.12v2.863H9.949V55.09c0 .506.207.992.576 1.35.369.358.869.559 1.39.559h48.17c.521 0 1.021-.201 1.39-.56.369-.357.576-.843.576-1.35V29.319h.983c.521 0 1.021-.201 1.39-.559.369-.358.576-.844.576-1.35v-8.59l-4.377-3.4zM29.119 54.136H14.373v-1.909h1.966V36h10.814v7.16h-1.967v1.908h1.966v7.16h1.967v1.908zm24.084-10.022a.94.94 0 0 1-.288.675.998.998 0 0 1-.695.28H36.492c-.261 0-.511-.101-.696-.28a.94.94 0 0 1-.288-.675v-7.16a.94.94 0 0 1 .288-.674.998.998 0 0 1 .696-.28H52.22c.261 0 .511.1.696.28a.94.94 0 0 1 .287.675v7.159zM16.83 25.5h-2.949v-6.682h2.95V25.5zm6.882 0h-2.95v-6.682h2.95V25.5zm6.881 0h-2.949v-6.682h2.95V25.5zm6.882 0h-2.95v-6.682h2.95V25.5zm6.88 0h-2.948v-6.682h2.949V25.5zm6.882 0h-2.949v-6.682h2.95V25.5zm6.882 0h-2.95v-6.682h2.95V25.5z" fill="#004EBB"/></svg>