<svg width="72" height="72" fill="none" xmlns="http://www.w3.org/2000/svg" viewBox="0 0 72 72"><path d="M38.483 58.805a9.35 9.35 0 0 0 6.606-2.745 9.378 9.378 0 0 0 2.74-6.615V34.22l-.837-.2a4 4 0 0 0 1.675 0l-.837.2v15.225a9.378 9.378 0 0 1-2.741 6.615 9.35 9.35 0 0 1-6.606 2.745zm-.23 0c-.176 0-.352-.013-.527-.027.175.011.35.02.527.027zm-.641-.027s-.002-.014 0-.013v.013zm-6.27-3.273a9.3 9.3 0 0 1-2.206-5.883l-.006-.336.01.387a9.313 9.313 0 0 0 2.202 5.804v.028zm-2.206-7.056a3.576 3.576 0 0 0 3.307-2.213 3.59 3.59 0 0 0-.776-3.906 3.578 3.578 0 0 0-6.11 2.534c0 .951.377 1.863 1.048 2.535a3.577 3.577 0 0 0 2.531 1.05h-7.954a1.987 1.987 0 0 1-1.989-1.991V41.28H39.08V36.5H19.193V17.38a3.189 3.189 0 0 0 0 0v6.997a9.964 9.964 0 0 0 2.996 6.883 9.936 9.936 0 0 0 13.889 0 9.964 9.964 0 0 0 2.995-6.883l.007-6.997v29.077a1.993 1.993 0 0 1-1.99 1.991h-7.954zM49.09 33.905a3.985 3.985 0 0 0 2.718-3.758 3.967 3.967 0 0 1-2.718 3.758zm-2.52 0a3.957 3.957 0 0 1-2.717-3.758 3.994 3.994 0 0 0 2.718 3.758zm5.238-3.778c0-1.056-.42-2.07-1.165-2.816a3.974 3.974 0 0 0-5.625 0 3.974 3.974 0 0 1 5.625 0 3.986 3.986 0 0 1 1.165 2.816z" fill="#004EBB"/><path d="M37.886 31.053v4.252h-8.75a11.071 11.071 0 0 0 7.792-3.186c.341-.335.662-.69.958-1.066zm-17.5 0c.297.375.617.731.959 1.066a11.071 11.071 0 0 0 7.791 3.186h-8.75v-4.252zm17.5 11.422v3.983a.797.797 0 0 1-.795.796h-3.822a4.779 4.779 0 0 0 0-4.78h4.617zm-12.882 0a4.779 4.779 0 0 0 0 4.78h-3.822a.795.795 0 0 1-.796-.797v-3.983h4.618zM35.898 13H33.51v2.39h2.387a1.988 1.988 0 0 1 1.988 1.991v6.97a8.77 8.77 0 0 1-2.563 6.197 8.743 8.743 0 0 1-12.374 0 8.77 8.77 0 0 1-2.563-6.196v-6.97a1.993 1.993 0 0 1 1.989-1.992h2.386V13h-2.386a4.376 4.376 0 0 0-3.092 1.285A4.39 4.39 0 0 0 18 17.38v20.314h19.886v2.39H18v6.373c0 .845.335 1.655.932 2.253a3.18 3.18 0 0 0 2.25.933h6.761a10.563 10.563 0 0 0 3.157 7.434 10.532 10.532 0 0 0 14.906-.14 10.563 10.563 0 0 0 3.017-7.493v-14.28a5.17 5.17 0 0 0 3.042-2.07 5.184 5.184 0 0 0-.798-6.837 5.166 5.166 0 0 0-6.875 0 5.18 5.18 0 0 0 2.244 8.907v14.28a8.171 8.171 0 0 1-2.379 5.69 8.147 8.147 0 0 1-11.405.139 8.17 8.17 0 0 1-2.517-5.63h6.756a3.18 3.18 0 0 0 2.25-.933 3.189 3.189 0 0 0 .932-2.253V17.38a4.39 4.39 0 0 0-1.283-3.096A4.377 4.377 0 0 0 35.898 13zm11.931 19.915a2.782 2.782 0 0 1-2.572-1.72 2.792 2.792 0 0 1 .604-3.04 2.782 2.782 0 0 1 4.753 1.972 2.79 2.79 0 0 1-2.784 2.788zm-18.693 14.34a2.384 2.384 0 0 1-2.204-1.476 2.392 2.392 0 0 1 1.739-3.259 2.383 2.383 0 0 1 2.45 1.017 2.392 2.392 0 0 1-1.985 3.717z" fill="#004EBB"/><path d="M28.739 28.534V24.55h-3.977v-.797h3.977v-3.983h.795v3.983h3.977v.797h-3.977v3.983h-.795z" fill="#004EBB"/><path d="M30.727 18.576h-3.182v3.983h-3.977v3.187h3.977v3.983h3.182v-3.983h3.978v-3.187h-3.978v-3.983z" fill="#004EBB"/></svg>