<svg width="56" height="56" fill="none" xmlns="http://www.w3.org/2000/svg" viewBox="0 0 56 56"><path d="M45.172 11.777a6.306 6.306 0 0 0-5.224-1.794 6.313 6.313 0 0 0-4.634 3 6.293 6.293 0 0 0-4.255-2.94 6.317 6.317 0 0 0-5.026 1.23 6.291 6.291 0 0 0-2.41 4.568 6.272 6.272 0 0 0 1.832 4.828l.013.012 8.807 8.787a1.462 1.462 0 0 0 2.07 0l8.827-8.8a6.283 6.283 0 0 0 1.847-4.445 6.271 6.271 0 0 0-1.847-4.446zM46.822 35.755a2.258 2.258 0 0 0-1.258-1.19 2.267 2.267 0 0 0-1.734.045l-8.886 3.947h-7.37v-1.506h5.852c.6 0 1.177-.238 1.602-.662a2.257 2.257 0 0 0 0-3.196 2.268 2.268 0 0 0-1.602-.662h-5.853l-5.402-2.694a3.034 3.034 0 0 0-1.351-.318h-2.497V40.44h-2.265V29.52H8.884a.756.756 0 0 0-.755.753V43.83a.752.752 0 0 0 .755.753h6.419a.757.757 0 0 0 .755-.753V42.7h3.02l9.391 2.882c.685.21 1.422.166 2.077-.124l15.128-6.72a2.265 2.265 0 0 0 1.343-2.123 2.255 2.255 0 0 0-.195-.86zm-34.729 6.38a.946.946 0 0 1-.872-.581.938.938 0 0 1 .688-1.284.945.945 0 0 1 1.128.923.94.94 0 0 1-.944.942z" fill="#004EBB"/></svg>