<svg width="72" height="72" fill="none" xmlns="http://www.w3.org/2000/svg" viewBox="0 0 72 72"><g clip-path="url(#clip0)"><path d="M64.017 44.114H65v-6.817a.946.946 0 0 0-.224-.607l-9.115-10.753a3.917 3.917 0 0 0-1.36-1.027 4.029 4.029 0 0 0-1.681-.364h-6.298c-.521 0-1.022.2-1.39.559a1.881 1.881 0 0 0-.576 1.35v10.5H42.39L20.067 15.279a.998.998 0 0 0-.694-.279H16.83c-.52 0-1.021.201-1.39.56a1.881 1.881 0 0 0-.576 1.35v10.484c0 .257.106.504.293.686.187.181.441.284.706.284h.476c.389 0 .769.112 1.092.321.324.21.576.508.724.857.15.349.188.733.112 1.103s-.263.71-.538.978a1.985 1.985 0 0 1-1.006.522 2.02 2.02 0 0 1-1.136-.109 1.955 1.955 0 0 1-.883-.703 1.87 1.87 0 0 1-.331-1.06h-2.458c0 .787.223 1.56.645 2.232a4.375 4.375 0 0 0 1.745 1.582 4.536 4.536 0 0 0 4.588-.307 4.323 4.323 0 0 0 1.505-1.8 4.183 4.183 0 0 0 .323-2.297 4.234 4.234 0 0 0-.954-2.126 4.425 4.425 0 0 0-1.953-1.334v-8.36h.64l12.803 19.092H8.967c-.522 0-1.022.2-1.391.559A1.881 1.881 0 0 0 7 38.864v2.863h35.39v2.864H7v2.386h.983c.26 0 .51.1.695.28a.94.94 0 0 1 .288.675v.954H7v2.387c0 .506.207.992.576 1.35.369.358.869.559 1.39.559h4.67a7.47 7.47 0 0 1-.246-1.91h1.966c0 1.352.491 2.66 1.388 3.693a5.94 5.94 0 0 0 3.513 1.954 6.048 6.048 0 0 0 3.982-.705 5.768 5.768 0 0 0 2.577-3.032h15.82a7.417 7.417 0 0 1-.246-1.91h1.966c0 1.352.491 2.66 1.388 3.693a5.94 5.94 0 0 0 3.513 1.954 6.048 6.048 0 0 0 3.983-.705 5.768 5.768 0 0 0 2.576-3.032h7.218c.521 0 1.021-.201 1.39-.56.369-.357.576-.843.576-1.35v-5.25h-1.966v-.954a.94.94 0 0 1 .288-.675.998.998 0 0 1 .695-.28zm-42.763 9.545a2.51 2.51 0 0 1-1.365-.402 2.402 2.402 0 0 1-.905-1.071 2.322 2.322 0 0 1-.14-1.379c.095-.463.329-.888.672-1.222a2.482 2.482 0 0 1 1.259-.653c.477-.092.97-.045 1.42.136.449.18.833.486 1.103.879.27.392.414.854.414 1.326 0 .633-.26 1.24-.72 1.687a2.495 2.495 0 0 1-1.738.7zm27.034-13.84h2.458v1.908h-2.458v-1.909zm1.966 13.84a2.51 2.51 0 0 1-1.365-.402 2.402 2.402 0 0 1-.905-1.071 2.322 2.322 0 0 1-.14-1.379c.095-.463.329-.888.672-1.222a2.482 2.482 0 0 1 1.259-.653c.477-.092.97-.045 1.42.136.449.18.833.486 1.103.879.27.392.414.854.414 1.326 0 .633-.26 1.24-.72 1.687a2.495 2.495 0 0 1-1.738.7zm8.848-16.704h-9.83c-.261 0-.512-.101-.696-.28a.94.94 0 0 1-.288-.675v-6.682a.94.94 0 0 1 .288-.675.998.998 0 0 1 .695-.28h4.16a1.009 1.009 0 0 1 .758.348l5.667 6.682a.93.93 0 0 1 .132 1.013.964.964 0 0 1-.361.399c-.157.097-.34.149-.525.15z" fill="#004EBB"/></g><defs><clipPath id="clip0"><path fill="#fff" transform="translate(7 15)" d="M0 0h58v42H0z"/></clipPath></defs></svg>