<svg width="36" height="21" fill="none" xmlns="http://www.w3.org/2000/svg" viewBox="0 0 36 21"><path d="M29.688 10.094a5.344 5.344 0 1 0 0 10.688 5.344 5.344 0 0 0 0-10.688zm0 8.312a2.969 2.969 0 1 1 0-5.937 2.969 2.969 0 0 1 0 5.937zM5.344 10.094a5.344 5.344 0 1 0 0 10.688 5.344 5.344 0 0 0 0-10.688zm0 8.312a2.969 2.969 0 1 1 0-5.937 2.969 2.969 0 0 1 0 5.937z" fill="#004EBB"/><path d="M26.327 7.835a8.255 8.255 0 0 1 3.36-.71.89.89 0 1 0 0-1.781c-1.47-.002-2.922.32-4.254.942l-.89-1.541c.032 0 .064.005.097.005h1.485V1.781H24.64c-.566.001-1.081.322-1.33.83L22.06.444A.89.89 0 0 0 21.288 0h-1.695a.89.89 0 1 0 0 1.781h1.18l1.372 2.375H17.61c-.63 0-1.234.25-1.68.696l-1.394 1.394 6.606 3.817a9.942 9.942 0 0 0-.817 1.586L13.226 7.55l-6.32-3.648a4.749 4.749 0 0 0-2.375-.636H1.188a.594.594 0 0 0-.594.593v.952l3.617 2.091a8.6 8.6 0 0 0-3.172 1.08.89.89 0 1 0 .89 1.542 6.833 6.833 0 0 1 7.571.496l-4.786 4.787a.893.893 0 0 0 1.262 1.262l4.786-4.788c.036.048.074.095.107.142l.047.067c.055.079.11.157.162.239l.007.01c.06.094.118.189.173.285l.004.005a6.794 6.794 0 0 1 .91 3.409h9.203a8.304 8.304 0 0 1 3.414-6.71l4.128 7.155a.89.89 0 1 0 1.542-.89l-4.132-7.158z" fill="#004EBB"/></svg>