<svg width="170" height="43" fill="none" xmlns="http://www.w3.org/2000/svg" viewBox="0 0 170 43"><g clip-path="url(#clip0)"><path d="M21.945 43c12.12 0 21.945-9.626 21.945-21.5S34.065 0 21.945 0C9.825 0 0 9.626 0 21.5S9.825 43 21.945 43z" fill="#fff"/><path d="M21.945 41.568c11.313 0 20.484-8.985 20.484-20.068 0-11.084-9.17-20.068-20.484-20.068-11.312 0-20.483 8.984-20.483 20.068 0 11.083 9.17 20.068 20.483 20.068z" fill="#fff"/><path d="M1.907 25.659a19.842 19.842 0 0 0 4.455 8.855c1.636-7.11 5.691-13.465 11.5-18.018 5.81-4.553 13.027-7.035 20.466-7.038a18.89 18.89 0 0 0-.97-1.16 33.336 33.336 0 0 0-20.713 2.825C10.242 14.26 5.065 19.365 1.907 25.66z" fill="#0047BB"/><path d="M12.75 39.428a20.857 20.857 0 0 0 12.859 1.827A20.6 20.6 0 0 0 37 35.135a19.88 19.88 0 0 0 5.34-11.605 19.737 19.737 0 0 0-2.86-12.418c-6.984 1.25-13.365 4.685-18.186 9.791-4.82 5.106-7.818 11.607-8.545 18.525zM27.214 5.445c2.81 0 5.607.353 8.324 1.052a20.632 20.632 0 0 0-9.38-4.636 20.878 20.878 0 0 0-10.492.534 20.523 20.523 0 0 0-8.84 5.562 19.921 19.921 0 0 0-4.86 9.126A32.629 32.629 0 0 1 13.26 8.494a33.276 33.276 0 0 1 13.954-3.049z" fill="#78BE21"/><path d="M47.106 4.304h14.216V8.09h-9.748v6.796h8.134v3.766h-8.134v9.732h-4.468V4.305zM72.326 10.85c-2.7 0-4.81 1.97-5.607 4.45h-.07c.046-.404.07-.809.07-1.214v-2.9h-4.224v17.2h4.393v-6.853a9.004 9.004 0 0 1 .38-2.832c.826-2.576 2.944-3.64 4.81-3.64a7.48 7.48 0 0 1 1.04.068v-4.207a5.2 5.2 0 0 0-.792-.072zM82.38 10.68c5.092 0 7.825 3.64 7.825 8.207 0 .51-.103 1.663-.103 1.663H77.918c.276 3.017 2.663 4.579 5.293 4.579 2.84 0 5.09-1.897 5.09-1.897l1.71 3.086a11.183 11.183 0 0 1-7.097 2.476c-5.851 0-9.497-4.138-9.497-9.057 0-5.324 3.704-9.057 8.964-9.057zm3.395 6.92c-.07-2.341-1.557-3.595-3.497-3.595-2.25 0-3.807 1.355-4.224 3.596h7.72zM100.332 10.68c5.087 0 7.845 3.64 7.845 8.207 0 .51-.103 1.663-.103 1.663H95.873c.277 3.018 2.667 4.579 5.297 4.579 2.841 0 5.091-1.897 5.091-1.897l1.693 3.086a11.168 11.168 0 0 1-7.093 2.476c-5.85 0-9.497-4.138-9.497-9.057.008-5.324 3.716-9.057 8.968-9.057zm3.394 6.92c-.07-2.341-1.56-3.595-3.497-3.595-2.25 0-3.807 1.355-4.224 3.596h7.721zM146.597 17.532h.587v-.238c0-2.27-1.454-3.05-3.394-3.05-2.527 0-4.844 1.662-4.844 1.662l-1.651-3.086a12.055 12.055 0 0 1 6.924-2.14c4.641 0 7.337 2.512 7.337 6.877v10.829h-4.046v-1.424a10.7 10.7 0 0 1 .066-1.214h-.066c.033 0-1.35 3.054-5.368 3.054-3.15 0-5.987-1.933-5.987-5.396-.012-5.502 7.569-5.874 10.442-5.874zm-3.361 7.905c2.321 0 3.981-2.428 3.981-4.547v-.405h-.76c-2.25 0-5.884.308-5.884 2.715 0 1.148.863 2.237 2.663 2.237zM165.194 11.185l-3.427 9.943a22.525 22.525 0 0 0-.59 2.269h-.07a20.653 20.653 0 0 0-.657-2.338l-3.666-9.874h-4.955l7.412 16.928-.562 1.283c-.661 1.529-1.837 2.24-3.047 2.24a3.887 3.887 0 0 1-1.974-.711l-1.453 3.236a6.875 6.875 0 0 0 3.666 1.12c2.597 0 4.996-1.294 6.268-4.275l7.845-19.821h-4.79zM131.3 11.185l-3.055 11.265c-.244.915-.38 1.829-.38 1.829h-.07s-.137-.915-.38-1.829l-3.237-11.265h-3.947l-3.254 11.265a27.446 27.446 0 0 0-.413 1.829h-.07a13.871 13.871 0 0 0-.347-1.829l-3.055-11.265h-4.633l5.368 17.2h4.917l2.977-9.87c.179-.613.317-1.236.413-1.865h.083s.173.95.45 1.864l2.977 9.87h4.88l5.318-17.2H131.3zM47.106 31.823h1.276V38.7h-1.276v-6.877zM55.555 31.823h1.276L59.49 35.8c.214.343.408.699.582 1.064 0 0-.07-.66-.07-1.064v-3.977h1.267V38.7h-1.267l-2.66-3.964a10.683 10.683 0 0 1-.581-1.064h-.021s.07.66.07 1.064V38.7h-1.276l.02-6.877zM69.151 36.94a2.829 2.829 0 0 0 1.751.728c.533 0 1.02-.27 1.02-.833 0-1.214-3.303-1.02-3.303-3.131 0-1.145 1.011-1.994 2.353-1.994a3.027 3.027 0 0 1 2.11.736l-.553 1.015a2.59 2.59 0 0 0-1.553-.599c-.594 0-1.057.34-1.057.81 0 1.213 3.303.922 3.303 3.122 0 1.093-.85 2.023-2.316 2.023a3.453 3.453 0 0 1-2.424-.938l.67-.939zM80.365 31.823h1.276v4.41c0 .922.615 1.444 1.552 1.444.938 0 1.565-.522 1.565-1.453v-4.4h1.276v4.409c0 1.54-1.14 2.588-2.828 2.588-1.689 0-2.84-1.047-2.84-2.588v-4.41zM93.202 31.823h2.267c.48-.036.961.03 1.412.194.361.165.664.433.869.768.205.336.302.723.278 1.114.017.393-.088.782-.299 1.117-.21.335-.52.601-.885.764.091.102.17.215.235.335l1.445 2.569H97.1l-1.396-2.569h-1.239v2.569H93.19l.013-6.86zm2.424 3.236c.269.024.537-.058.744-.228a.993.993 0 0 0 .362-.852c0-.659-.285-1.068-1.284-1.068h-.97v2.152l1.148-.004zM110.064 36.94h-2.477l-.59 1.764H105.7l2.478-6.877h1.333l2.478 6.877h-1.334l-.591-1.764zm-1.238-3.924s-.157.68-.293 1.068l-.624 1.84h1.838l-.624-1.84a16.66 16.66 0 0 1-.277-1.068h-.02zM119.14 31.823h1.275l2.664 3.977c.214.343.408.699.582 1.064h.02s-.07-.66-.07-1.064v-3.977h1.268V38.7h-1.268l-2.659-3.964a10.85 10.85 0 0 1-.586-1.064s.066.66.066 1.064V38.7h-1.276l-.016-6.877zM135.66 31.71a3.68 3.68 0 0 1 2.589.939l-.612.926a3.136 3.136 0 0 0-1.92-.728 2.324 2.324 0 0 0-1.636.614 2.227 2.227 0 0 0-.717 1.566v.186c0 1.307.9 2.46 2.362 2.46a3.061 3.061 0 0 0 2.039-.862l.673.898a3.78 3.78 0 0 1-1.262.842c-.475.193-.985.29-1.5.283a3.669 3.669 0 0 1-2.566-1.042 3.518 3.518 0 0 1-1.063-2.514c0-.943.382-1.847 1.063-2.514a3.669 3.669 0 0 1 2.566-1.042l-.016-.012zM145.606 31.823h3.915V32.9h-2.639v1.804h2.366v1.076h-2.366v1.841h2.639v1.076h-3.915v-6.873zM168.307 33.264a.546.546 0 0 0-.082-.134.62.62 0 0 0 .306-.23.6.6 0 0 0 .107-.364.682.682 0 0 0-.185-.5.712.712 0 0 0-.492-.224.347.347 0 0 0-.091 0h-.971v2.29h.541v-.858h.31l.413.845h.599l-.455-.825zm-.561-.405h-.302v-.671h.31a.31.31 0 0 1 .223.067.289.289 0 0 1 .107.204.141.141 0 0 1 0 .065.306.306 0 0 1-.067.228.322.322 0 0 1-.213.115h-.058v-.008z" fill="#fff"/><path d="M167.659 30.666c-.463 0-.915.134-1.3.387-.385.252-.685.61-.862 1.029-.178.419-.224.88-.134 1.325.091.445.314.854.641 1.174a2.383 2.383 0 0 0 2.551.497 2.33 2.33 0 0 0 1.051-.844c.257-.377.395-.82.395-1.274a2.27 2.27 0 0 0-.686-1.622 2.367 2.367 0 0 0-1.656-.672zm0 4.013c-.347 0-.687-.101-.977-.29a1.74 1.74 0 0 1-.648-.774 1.69 1.69 0 0 1 .382-1.878 1.77 1.77 0 0 1 .9-.472 1.796 1.796 0 0 1 1.017.098c.321.13.596.352.789.635a1.7 1.7 0 0 1 .296.958c0 .455-.185.893-.514 1.215a1.772 1.772 0 0 1-1.24.504l-.005.004z" fill="#fff"/></g><defs><clipPath id="clip0"><path fill="#fff" d="M0 0h170v43H0z"/></clipPath></defs></svg>