<svg width="80" height="80" fill="none" xmlns="http://www.w3.org/2000/svg" viewBox="0 0 80 80"><g clip-path="url(#clip0)"><g clip-path="url(#clip1)"><path d="M50.719 9.932l14.499 14.351-12.267 3.24s-4.539-7.718-4.42-7.989c.12-.27 2.188-9.602 2.188-9.602z" fill="#F00082"/><path d="M63.1 23.347h-8.7a2.914 2.914 0 0 1-2.05-.84 2.853 2.853 0 0 1-.85-2.028v-8.61c0-.76-.305-1.49-.848-2.028a2.915 2.915 0 0 0-2.05-.84H16.7c-.77 0-1.507.302-2.05.84a2.853 2.853 0 0 0-.85 2.028v60.263c0 .76.306 1.49.85 2.028.543.538 1.28.84 2.05.84h46.4c.769 0 1.506-.302 2.05-.84A2.853 2.853 0 0 0 66 72.132V26.22c0-.761-.306-1.491-.85-2.03a2.919 2.919 0 0 0-2.05-.843z" fill="#F5B4D7"/><path d="M51.5 57.78H28.3v2.87h23.2v-2.87zM51.5 50.61H28.3v2.869h23.2V50.61zM51.5 43.435H37.003v2.868h14.499v-2.868zM51.5 36.26H37.003v2.868h14.499v-2.869zM51.5 29.087H37.003v2.869h14.499v-2.869z" fill="#fff"/><path d="M30.042 21.912H9.162c-.308 0-.604.121-.822.337-.218.216-.34.508-.34.813v16.944a5.698 5.698 0 0 0 .928 3.125 5.785 5.785 0 0 0 2.497 2.122l8.175 3.642 8.18-3.642a5.789 5.789 0 0 0 2.493-2.124 5.7 5.7 0 0 0 .927-3.123V23.062a1.134 1.134 0 0 0-.337-.813 1.16 1.16 0 0 0-.82-.337z" fill="#D70073"/><path d="M18.34 39.639l-6.054-5.99 2.05-2.03 4.004 3.962 7-6.93 2.05 2.028-9.05 8.96z" fill="#fff"/></g></g><defs><clipPath id="clip0"><path fill="#fff" transform="translate(5.333 5.333)" d="M0 0h70.509v69.338H0z"/></clipPath><clipPath id="clip1"><path fill="#fff" transform="translate(8 9)" d="M0 0h58v66H0z"/></clipPath></defs></svg>