<svg width="73" height="73" fill="none" xmlns="http://www.w3.org/2000/svg" viewBox="0 0 73 73"><g clip-path="url(#clip0)"><path d="M69.37 14.527H2.89v49.137h66.48V14.527z" fill="#C8EBB4"/><path d="M14.448 27.528H2.886A2.895 2.895 0 0 1 0 24.642v-4.338h14.448v7.224z" fill="#64C800"/><path d="M28.904 20.309H14.452v7.228h14.452v-7.228z" fill="#fff"/><path d="M43.356 20.309H28.904v7.228h14.452v-7.228z" fill="#64C800"/><path d="M57.809 20.309H43.356v7.228H57.81v-7.228z" fill="#fff"/><path d="M69.37 27.528H57.81v-7.224h14.448v4.338a2.895 2.895 0 0 1-2.887 2.886z" fill="#64C800"/><path d="M15.9 14.527H2.89L0 20.308h14.452l1.447-5.78zM43.356 14.527H28.904v5.781h14.452v-5.78zM72.26 20.308H57.808l-1.443-5.78H69.37l2.89 5.78z" fill="#46B400"/><path d="M69.37 14.524H2.885v-4.338A2.898 2.898 0 0 1 5.78 7.3h60.695a2.898 2.898 0 0 1 2.894 2.886v4.338zM44.803 33.313H27.461v30.351h17.342V33.313z" fill="#64C800"/><path d="M63.593 33.313H50.584v18.79h13.009v-18.79zM21.68 33.313H8.67v18.79h13.01v-18.79zM39.019 43.428h-5.781a1.363 1.363 0 0 1-1.447-1.444V39.09a1.363 1.363 0 0 1 1.447-1.443h5.78a1.369 1.369 0 0 1 1.448 1.443v2.894a1.368 1.368 0 0 1-1.447 1.444zM31.795 50.66a1.447 1.447 0 1 0 0-2.894 1.447 1.447 0 0 0 0 2.894z" fill="#fff"/><path d="M47.694 67.998H24.57l2.89-4.333h17.343l2.89 4.333z" fill="#C8EBB4"/></g><defs><clipPath id="clip0"><path fill="#fff" transform="translate(0 7.3)" d="M0 0h72.26v60.699H0z"/></clipPath></defs></svg>