<svg width="1600" height="400" fill="none" xmlns="http://www.w3.org/2000/svg" viewBox="0 0 1600 400"><g filter="url(#filter0_d)"><path fill="#F5FCFF" d="M1600 0H0v400h1600z"/></g><path d="M1283.55 344.9c126.22 0 228.55-38.257 228.55-85.45 0-47.193-102.33-85.45-228.55-85.45-126.22 0-228.55 38.257-228.55 85.45 0 47.193 102.33 85.45 228.55 85.45z" fill="#004EBB"/><g clip-path="url(#clip0)"><path d="M1284.17 297.8c100.79 0 182.49-17.935 182.49-40.06 0-22.124-81.7-40.06-182.49-40.06s-182.49 17.936-182.49 40.06c0 22.125 81.7 40.06 182.49 40.06z" fill="#0032A5"/><path d="M1508.2 198.21l-.03-.29c-.01-.09-.02-.18-.02-.27l-.03-.29-.03-.29-.03-.26c-.02-.17-.04-.33-.07-.5-.01-.08-.02-.16-.04-.25-.02-.11-.03-.21-.05-.32-.01-.08-.03-.16-.04-.25-.02-.12-.04-.25-.07-.37l-.03-.18c-.03-.18-.07-.35-.11-.53-.01-.07-.03-.13-.04-.2-.03-.13-.06-.25-.08-.38-.02-.07-.03-.13-.05-.2l-.12-.48c-.01-.03-.01-.05-.02-.08l-.15-.55c-.02-.05-.03-.11-.05-.16l-.12-.42c-.02-.05-.03-.11-.05-.16-.06-.19-.12-.37-.18-.56l-6.15-18.58-6.76-20.42-95.38 95.38c52.66-6.88 82.61-17.28 92.69-21.27.01-.01.03-.01.04-.02 1.09-.53 2.19-1.07 3.27-1.61 9.15-4.55 14.44-15.18 13.73-26.07-.01-.1-.02-.26-.03-.42zM1090.84 102.87l-25.9 78.18 99.46-99.46-43.3.49c-12.6.76-23.87 8.68-30.26 20.79z" fill="#BADDDB"/><path d="M1121.1 82.07l43.3-.49 19.42-19.42 6.81-.08 3.05-.12-10.24.11-56.79.65c-14.4.88-27 11.43-32.13 26.92l-6.69 20.3c.82-2.49 1.83-4.85 3.01-7.07 6.39-12.11 17.66-20.03 30.26-20.8z" fill="#6D8987"/><path d="M1392.46 81.46l-108.66-1.22v.01l-9.73.11-157.74 157.74c24.15 5.67 58.86 11.61 105.09 14.41l4.42-4.42 166.62-166.63z" fill="#BADDDB"/><path d="M1283.8 80.25l108.67 1.21 18.99-18.99 29.65.33.82.06c.03 0 .06.01.09.01 4.76.43 9.3 1.91 13.42 4.29.01 0 .01.01.02.01.17.1.35.2.52.31.01.01.03.02.04.03.17.1.33.2.49.3.02.01.04.03.06.04.16.1.32.2.47.3.03.02.05.03.08.05.15.1.3.2.46.3l.09.06c.15.1.29.2.44.3l.1.07c.14.1.29.2.43.31l.11.08c.14.1.28.21.42.31.04.03.07.06.11.08.14.1.27.21.41.32.04.03.07.06.11.09.13.11.27.21.4.32.04.03.07.06.11.09.13.11.26.22.4.33.04.03.07.06.11.09.13.11.26.22.39.34.04.03.07.06.11.09.13.12.26.23.39.35.03.03.06.06.1.09l.39.36c.03.03.06.05.08.08.13.13.27.25.4.38l.06.06.42.42.01.01c.76.77 1.49 1.57 2.19 2.41.01.02.03.03.04.05.11.13.22.26.32.39.04.05.08.09.12.14.1.12.19.24.28.36l.15.18c.09.11.17.22.26.34.05.07.11.14.16.21l.24.33.17.23c.08.11.15.22.23.32.06.08.12.16.17.25.07.11.15.21.22.32.06.09.12.17.18.26.07.11.14.21.21.32l.18.27c.07.1.14.21.2.32.06.09.12.19.18.28.07.1.13.21.19.31s.12.19.18.29c.06.1.12.21.19.31l.18.3c.06.1.12.21.18.31s.12.21.17.31c.06.1.12.21.17.31.06.1.11.21.17.32.06.1.11.21.17.31.06.11.11.22.17.32.05.1.11.21.16.31.06.11.11.22.17.33.05.1.1.21.15.31.05.11.11.23.16.34.05.1.1.21.15.31.05.12.11.23.16.35.05.1.09.21.14.31.05.12.11.24.16.36.04.1.09.21.13.31.05.12.1.25.16.37.04.1.08.2.13.3l.15.39c.04.1.08.2.12.29.05.14.11.28.16.42.03.09.07.18.1.28.06.15.11.31.17.46.03.08.06.16.08.23.08.23.16.47.24.71l4.39 13.25c1.17 2.22 2.18 4.59 3.01 7.07l-6.69-20.3c-5.14-15.44-17.74-26-32.14-26.88l-29.76-.33-37.27-.42 5.01.2-29.74-.22c-4.24-.03-8.23 2.04-10.64 5.53l-1.91 2.77a10.863 10.863 0 0 1-8.95 4.69h-48.93l-5.42 5.42 9.71-.11z" fill="#6D8987"/><path d="M1262.43 80.49l-18.6.21-17.46.2-146.53 146.52c6.74 2.52 18.78 6.53 36.48 10.68l157.75-157.74-11.64.13zM1179.89 81.41l-15.49.17-99.46 99.46-3.39 10.22c-.06.19-.12.37-.18.56-.02.05-.03.1-.05.16l-.12.42c-.02.05-.03.11-.05.16l-.15.55c-.01.02-.01.05-.02.07-.04.16-.08.32-.12.49-.02.06-.03.13-.05.19l-.09.38c-.01.06-.03.13-.04.19-.04.18-.07.35-.11.53l-.03.18c-.02.12-.05.25-.07.37-.01.08-.03.16-.04.24-.02.11-.03.21-.05.32-.01.08-.03.16-.04.24-.02.17-.05.33-.07.5l-.03.26-.03.29-.03.28-.03.27-.03.29-.03.48c-.02.3-.03.61-.04.91 0 .07 0 .14-.01.21-.01.3-.01.59-.01.88v.14c0 .26.01.52.02.78 0 .07 0 .14.01.21.01.29.03.57.05.85.01.07.01.15.02.22l.06.72c.01.07.01.13.02.2.03.27.06.55.1.82.01.09.03.18.04.27.03.24.07.48.11.71.01.08.03.16.04.24.04.24.09.47.13.71l.06.3c.05.26.11.51.17.77l.06.25.15.59c.03.1.05.2.08.3.01.02.01.05.02.07l127.55-127.51-8.83.09zM1416.44 81.73l-23.97-.27-166.63 166.63-4.42 4.42c9.67.59 19.84 1.03 30.52 1.32l172.01-172.02-7.51-.08zM1477.51 102.87a43.798 43.798 0 0 0-3.92-6.13l-157.07 157.08c31.79-.84 59.04-3.17 81.97-6.16l95.38-95.38-16.36-49.41z" fill="#C7EAE9"/><path d="M1226.37 80.89l17.46-.2 18.6-.21 11.64-.13 5.42-5.42h-39.56c-.2 0-.4-.01-.6-.02-.04 0-.07 0-.11-.01-.19-.01-.38-.03-.57-.05-.04 0-.07-.01-.11-.01-.19-.03-.39-.05-.58-.09-.01 0-.03-.01-.04-.01a5.41 5.41 0 0 1-.55-.12c-.03-.01-.06-.01-.1-.02l-.54-.15c-.04-.01-.08-.02-.12-.04-.18-.06-.36-.12-.53-.18-.02-.01-.05-.02-.07-.03-.16-.06-.33-.13-.49-.2-.03-.01-.06-.02-.09-.04-.17-.08-.34-.16-.5-.24-.04-.02-.08-.04-.11-.06l-.48-.27c-.03-.02-.06-.04-.09-.05-.07-.04-.14-.08-.21-.13l-7.67 7.68zM1164.4 81.59l15.49-.18 8.83-.09 19.29-19.3-19.33.15 1.96-.08-6.82.08-19.42 19.42zM1442.02 62.87c-.03 0-.06-.01-.09-.01-.27-.02-.55-.05-.82-.06l-29.65-.33-18.99 18.99 23.97.27 7.51.08 18.86-18.86c-.26-.03-.53-.05-.79-.08zM1473.59 96.75c1.45 1.89 2.76 3.94 3.92 6.13l-2.5-7.54-1.42 1.41z" fill="#809B97"/><path d="M1188.72 81.32L1061.2 208.83c.06.23.13.45.2.68.03.1.06.2.1.29.06.18.12.35.18.53.04.11.07.21.11.32.09.25.18.49.27.73.03.09.07.17.1.26.07.18.15.36.22.54.04.1.09.2.13.3l.3.66c.04.09.08.17.12.26.09.19.18.37.28.56.05.09.1.19.15.28.1.2.21.39.32.59.04.08.09.15.13.23.12.2.23.41.36.61.05.09.1.17.16.26.11.18.23.36.35.54l.11.17.45.66c.05.08.11.15.16.23.13.17.25.34.38.51.04.06.09.11.13.17.16.21.33.42.5.62l.16.19c.14.16.28.33.42.48.05.05.1.11.14.16.18.2.37.4.56.59l.16.16c.15.16.31.31.47.46.05.05.1.1.16.15.2.19.4.37.61.55.05.04.09.08.14.12.17.15.35.29.52.44l.17.14c.22.17.43.34.66.5.04.03.08.06.12.08.19.14.39.28.59.41l.18.12c.23.15.47.31.7.45.02.01.05.03.07.04l.66.39c.06.04.13.07.19.11.25.14.5.27.75.4.82.41 1.63.81 2.45 1.2l.75.36c.05.02.1.05.15.07.77.3 1.65.64 2.65 1.02l146.53-146.53-37.65.43z" fill="#D7F4F2"/><path d="M1226.37 80.89l7.68-7.68c-.06-.04-.11-.08-.17-.11-.06-.04-.13-.08-.19-.13-.12-.08-.23-.17-.34-.25l-.14-.11c-.16-.12-.31-.25-.46-.38-.04-.03-.07-.07-.11-.1-.11-.1-.22-.2-.33-.31l-.15-.15c-.09-.1-.18-.19-.27-.29-.05-.05-.1-.11-.15-.17-.09-.11-.18-.21-.27-.32l-.12-.15c-.13-.16-.25-.32-.36-.49l-1.91-2.77c-2.41-3.49-6.4-5.56-10.64-5.53l-10.42.08-19.29 19.29 37.64-.43z" fill="#8EA8A3"/><path d="M1447.25 82.07l-23.3-.26-172.01 172.01c4.93.13 9.96.22 15.11.28 5.43-.01 11.13 0 17.12.04 5.99-.03 11.7-.04 17.12-.04 5.19-.06 10.26-.15 15.22-.28l157.08-157.07c-6.58-8.61-16.01-14.05-26.34-14.68z" fill="#D7F4F2"/><path d="M1473.12 89.62c-.08-.24-.16-.47-.24-.71-.03-.08-.06-.16-.08-.23-.06-.16-.11-.31-.17-.46-.03-.09-.07-.18-.1-.28-.05-.14-.1-.28-.16-.42-.04-.1-.08-.2-.12-.29l-.15-.39c-.04-.1-.08-.2-.13-.3-.05-.12-.1-.25-.16-.37-.04-.1-.09-.21-.13-.31-.05-.12-.1-.24-.16-.36-.05-.1-.09-.21-.14-.31-.05-.12-.11-.23-.16-.35-.05-.11-.1-.21-.15-.31-.05-.11-.11-.23-.16-.34-.05-.1-.1-.21-.15-.31-.05-.11-.11-.22-.17-.33-.05-.1-.11-.21-.16-.31-.06-.11-.11-.22-.17-.32-.06-.1-.11-.21-.17-.31-.06-.11-.11-.21-.17-.32-.06-.1-.12-.21-.17-.31-.06-.1-.12-.21-.17-.31-.06-.1-.12-.21-.18-.31l-.18-.3c-.06-.1-.12-.21-.19-.31-.06-.1-.12-.19-.18-.29-.06-.1-.13-.21-.19-.31-.06-.09-.12-.19-.18-.28-.07-.11-.13-.21-.2-.32l-.18-.27c-.07-.11-.14-.21-.21-.32-.06-.09-.12-.17-.18-.26-.07-.11-.15-.21-.22-.32-.06-.08-.12-.16-.17-.25-.08-.11-.15-.22-.23-.32l-.17-.23-.24-.33c-.05-.07-.11-.14-.16-.21-.09-.11-.17-.23-.26-.34l-.15-.18c-.09-.12-.19-.24-.28-.36-.04-.05-.08-.09-.12-.14-.11-.13-.21-.26-.32-.39-.01-.02-.03-.03-.04-.05-.7-.84-1.44-1.64-2.19-2.41l-.01-.01-.42-.42-.06-.06c-.13-.13-.27-.26-.4-.38-.03-.03-.06-.05-.08-.08l-.39-.36a.902.902 0 0 0-.1-.09c-.13-.12-.26-.23-.39-.35-.04-.03-.07-.06-.11-.09-.13-.11-.26-.23-.39-.34-.04-.03-.07-.06-.11-.09-.13-.11-.26-.22-.4-.33-.04-.03-.07-.06-.11-.09-.13-.11-.27-.22-.4-.32-.04-.03-.07-.06-.11-.09l-.41-.32c-.04-.03-.07-.06-.11-.08-.14-.1-.28-.21-.42-.31-.03-.03-.07-.05-.11-.08l-.43-.31-.1-.07c-.15-.1-.29-.2-.44-.3l-.09-.06c-.15-.1-.3-.2-.46-.3-.03-.02-.05-.03-.08-.05-.16-.1-.31-.2-.47-.3-.02-.01-.04-.03-.06-.04-.16-.1-.33-.2-.49-.3-.01-.01-.03-.02-.04-.03-.17-.1-.35-.21-.52-.31-.01 0-.01-.01-.02-.01-3.89-2.24-8.16-3.69-12.63-4.21l-18.86 18.86 23.3.26c10.33.63 19.76 6.06 26.34 14.67l1.42-1.42-1.88-5.74z" fill="#8EA8A3"/><path d="M1516.78 202.13l-3.39-10.24c-.22-.86-.46-1.71-.74-2.56l-12.92-38.99-20.75-62.65c-5.91-17.83-20.62-30.01-37.49-31.04l-.15-.01h-.15l-29.67-.34-227.77-.3-56.58.63h-.15l-.15.01c-16.87 1.03-31.59 13.22-37.5 31.04l-30.28 91.43-3.39 10.22c-.28.84-.52 1.7-.74 2.56l-3.39 10.24c-4.55 13.74 1.11 29.15 12.85 35 6.11 3.04 12.27 5.9 18.5 8.57 38.49 16.55 79.05 26.09 120.19 28.2l7.46.25 64.89 2.14c9.45.31 18.9.29 28.35-.07l61.45-2.32c9.41-.48 18.79-1.36 28.13-2.61 38.06-5.12 75.31-16.61 110.56-34.16 11.72-5.85 17.38-21.27 12.83-35zm-22.28 22.63a493.6 493.6 0 0 1-3.27 1.61c-.01.01-.02.01-.04.02h-.01c-10.08 3.98-40.03 14.39-92.69 21.27-22.94 3-50.18 5.33-81.97 6.16-4.96.13-10.03.23-15.22.28-5.43-.01-11.13 0-17.12.04-5.99-.03-11.7-.04-17.12-.04-5.15-.05-10.18-.15-15.11-.28-10.68-.28-20.86-.73-30.52-1.32-46.23-2.8-80.94-8.74-105.09-14.41-17.71-4.15-29.74-8.16-36.48-10.68-1-.37-1.88-.71-2.65-1.02h-.01a.914.914 0 0 1-.14-.07l-.75-.36c-.82-.4-1.63-.8-2.45-1.2-.25-.13-.5-.26-.75-.4-.07-.04-.13-.07-.19-.11-.22-.13-.44-.25-.66-.39-.02-.01-.05-.03-.07-.04-.24-.15-.47-.3-.7-.45l-.18-.12c-.2-.13-.39-.27-.59-.41-.04-.03-.08-.06-.12-.08-.22-.16-.44-.33-.66-.5l-.17-.14c-.18-.14-.35-.29-.52-.44-.05-.04-.09-.08-.14-.12-.21-.18-.41-.36-.61-.55-.05-.05-.11-.1-.16-.15-.16-.15-.32-.31-.47-.46l-.16-.16c-.19-.19-.37-.39-.56-.59-.05-.05-.1-.11-.14-.16l-.42-.48-.16-.19c-.17-.21-.34-.41-.5-.62-.04-.06-.09-.11-.13-.17-.13-.17-.26-.34-.38-.51-.05-.08-.11-.15-.16-.23-.15-.22-.31-.43-.45-.66l-.11-.17c-.12-.18-.23-.36-.35-.54-.05-.09-.11-.17-.16-.26-.12-.2-.24-.4-.36-.61-.04-.08-.09-.15-.13-.23-.11-.19-.21-.39-.32-.59-.05-.09-.1-.19-.15-.28-.09-.19-.19-.37-.28-.56-.04-.09-.08-.17-.12-.26l-.3-.66c-.04-.1-.09-.2-.13-.3-.08-.18-.15-.36-.22-.54-.03-.09-.07-.17-.1-.26-.09-.24-.18-.49-.27-.73-.04-.11-.07-.21-.11-.32-.06-.18-.12-.35-.18-.53-.03-.1-.06-.2-.1-.29-.07-.22-.14-.45-.2-.68-.01-.02-.01-.05-.02-.07-.03-.1-.05-.2-.08-.3-.05-.19-.1-.39-.15-.59l-.06-.25c-.06-.25-.12-.51-.17-.77l-.06-.3c-.05-.24-.09-.47-.13-.71-.01-.08-.03-.16-.04-.24-.04-.24-.08-.47-.11-.71-.01-.09-.03-.18-.04-.27-.04-.27-.07-.55-.1-.82-.01-.07-.01-.13-.02-.2l-.06-.72c-.01-.07-.01-.15-.02-.22-.02-.28-.03-.57-.05-.85 0-.07 0-.14-.01-.21-.01-.26-.01-.52-.02-.78v-.14c0-.29 0-.59.01-.88 0-.07 0-.14.01-.21.01-.3.02-.6.04-.91l.03-.48.03-.29.03-.27.03-.28.03-.29.03-.26c.02-.17.04-.33.07-.5.01-.08.02-.16.04-.24.02-.11.03-.21.05-.32.01-.08.03-.16.04-.24.02-.12.04-.25.07-.37l.03-.18c.03-.18.07-.35.11-.53.01-.06.03-.13.04-.19l.09-.38c.01-.06.03-.13.05-.19.04-.16.08-.32.12-.49.01-.02.01-.05.02-.07l.15-.55c.01-.05.03-.11.05-.16l.12-.42c.02-.05.03-.11.05-.16.06-.19.12-.37.18-.56l3.39-10.22 25.9-78.18a47.535 47.535 0 0 0-3.01 7.07l6.69-20.3c5.08-15.46 17.68-26.02 32.08-26.9l56.79-.64 10.24-.11-3.05.12-1.95.08 19.33-.15 10.42-.08c4.25-.03 8.23 2.04 10.64 5.53l1.91 2.77c.12.17.24.33.36.49l.12.15c.09.11.18.22.27.32.05.06.1.11.15.17.09.1.18.2.27.29l.15.15c.11.11.22.21.33.31.04.03.07.07.11.1.15.13.3.26.46.38l.14.11c.11.09.23.17.34.25.06.04.12.08.19.13.12.08.25.16.37.24.03.02.06.04.09.05.16.1.32.19.48.27.04.02.08.04.11.06.16.09.33.17.5.24.03.01.06.02.09.04.16.07.32.14.49.2.02.01.05.02.07.03.18.07.35.13.53.18.04.01.08.02.12.04.18.06.36.11.54.15.03.01.06.02.1.02.18.04.36.08.55.12.01 0 .03.01.04.01.19.04.38.06.58.09.04 0 .07.01.11.01.19.02.38.04.57.05.04 0 .07 0 .11.01.2.01.4.02.6.02H1328.41c3.57 0 6.92-1.75 8.95-4.69l1.91-2.77c2.41-3.49 6.4-5.56 10.64-5.53l29.74.22-5.01-.2 37.27.42 29.76.33c14.4.88 27 11.43 32.13 26.92l6.69 20.3c-.82-2.49-1.83-4.85-3.01-7.07l16.37 49.4 6.76 20.42 6.15 18.58c.06.18.12.37.18.56.02.05.03.11.05.16l.12.42c.02.05.03.11.05.16l.15.55c.01.03.01.05.02.08l.12.48c.02.07.03.13.05.2.03.13.06.25.08.38.01.07.03.13.04.2.04.18.07.35.11.53l.03.18c.02.12.05.25.07.37.01.08.03.16.04.25.02.11.03.21.05.32.01.08.03.16.04.25.02.17.05.33.07.5l.03.26.03.29.03.29c.01.09.02.18.02.27l.03.29.03.48c.73 10.86-4.56 21.49-13.7 26.04z" fill="#444"/><path d="M1505.91 214.19l-12.51-18.85-3.4-24.96-15.88-18.15 10.77 17.59 3.97 25.52 17.05 18.85z" fill="#8A8A8A"/><path d="M1505.91 214.19l-32.36-12.62-19.28-20.41-14.18-29.49-10.78-24.39 6.81 25.52 14.74 29.49 18.72 21.55 36.33 10.35z" fill="#8A8A8A"/><path d="M1284.17 214.52c30.38 0 55.01-24.629 55.01-55.01 0-30.381-24.63-55.01-55.01-55.01s-55.01 24.629-55.01 55.01c0 30.381 24.63 55.01 55.01 55.01z" fill="#fff"/><path fill-rule="evenodd" clip-rule="evenodd" d="M1303.01 141.71c-3.69 1.22-8.75-3.87-9.59-9.63l-.77-5.33c-.21-1.46-1.12-2.96-2.25-3.6a35.38 35.38 0 0 0-3.34-1.67c-1.13-.49-2.04.1-2.25 1.35l-.77 4.56c-.83 4.93-5.89 4.96-9.59.04l-3.41-4.54c-.93-1.24-2.18-1.82-3.02-1.32-.83.49-1.62 1.06-2.37 1.7-.76.65-.79 2.15-.16 3.61l2.32 5.32c2.52 5.76.42 10.88-3.97 9.69l-4.06-1.09c-1.11-.3-1.97.38-2.03 1.73-.03.66-.04 1.33-.04 2.02 0 .68.02 1.37.04 2.06.06 1.41.92 2.94 2.03 3.76l4.06 2.97c4.39 3.21 6.49 10.42 3.97 13.67l-2.32 2.99c-.64.82-.6 2.36.16 3.76a74.46 74.46 0 0 0 2.37 4.07c.84 1.34 2.09 2.01 3.02 1.7l3.41-1.13c3.69-1.22 8.75 3.87 9.59 9.63l.77 5.33c.21 1.46 1.12 2.96 2.25 3.6a35.38 35.38 0 0 0 3.34 1.67c1.13.49 2.04-.1 2.25-1.35l.77-4.56c.83-4.93 5.89-4.96 9.59-.04l3.41 4.54c.93 1.24 2.18 1.82 3.02 1.32.83-.49 1.62-1.06 2.37-1.7.76-.65.79-2.15.16-3.61l-2.32-5.32c-2.52-5.76-.42-10.88 3.97-9.69l4.06 1.09c1.11.3 1.97-.38 2.03-1.73.03-.66.04-1.33.04-2.02s-.01-1.37-.04-2.06c-.06-1.41-.92-2.94-2.03-3.76l-4.06-2.97c-4.39-3.21-6.49-10.42-3.97-13.67l2.32-3c.64-.82.6-2.36-.16-3.76a74.46 74.46 0 0 0-2.37-4.07c-.84-1.34-2.09-2.01-3.02-1.7l-3.41 1.14zm-14.28 33.46c6.85 3.43 12.41-.56 12.41-8.91s-5.55-17.89-12.41-21.32c-6.85-3.43-12.41.56-12.41 8.91s5.56 17.9 12.41 21.32z" fill="#D1D7DE"/><path fill-rule="evenodd" clip-rule="evenodd" d="M1295.1 189.66c-.83.6-1.43 1.63-1.68 3.07l-.77 4.56c-.16.92-.69 1.48-1.41 1.52.22-.26.37-.61.44-1.03l.77-4.56c.33-1.97 1.33-3.16 2.65-3.56zm15.27-10.98c-1.99 1.45-2.5 5.18-.73 9.23l2.32 5.32c.64 1.46.6 2.96-.16 3.61-.75.64-1.54 1.21-2.37 1.7-.14.08-.29.14-.45.16.64-.41 1.26-.87 1.85-1.38.76-.65.79-2.15.16-3.61l-2.32-5.32c-2.02-4.64-1.05-8.86 1.7-9.71zm7.92.69c.26-.31.42-.75.45-1.31.03-.66.04-1.33.04-2.02 0-.68-.01-1.37-.04-2.06-.06-1.41-.92-2.94-2.03-3.76l-4.06-2.97c-4.39-3.21-6.49-10.42-3.97-13.67l2.32-3c.64-.82.6-2.36-.16-3.76a74.46 74.46 0 0 0-2.37-4.07c-.84-1.34-2.09-2.01-3.02-1.7l-3.41 1.13c-3.69 1.22-8.75-3.87-9.59-9.63l-.77-5.33c-.21-1.46-1.12-2.96-2.25-3.6a35.38 35.38 0 0 0-3.34-1.67c-.3-.13-.58-.18-.84-.17.42-.49 1.06-.64 1.81-.31a35.38 35.38 0 0 1 3.34 1.67c1.13.64 2.04 2.14 2.25 3.6l.77 5.33c.83 5.77 5.89 10.85 9.59 9.63l3.41-1.13c.93-.31 2.18.36 3.02 1.7a70.87 70.87 0 0 1 2.37 4.07c.76 1.4.79 2.94.16 3.76l-2.32 3c-2.52 3.24-.42 10.46 3.97 13.67l4.06 2.97c1.11.81 1.97 2.35 2.03 3.76.03.69.04 1.38.04 2.06 0 .68-.01 1.36-.04 2.02-.06 1.09-.62 1.74-1.42 1.79zm-37.9-34.68c-2.5 1.52-4.07 4.72-4.07 9.16 0 8.35 5.55 17.89 12.41 21.32 2.76 1.38 5.31 1.56 7.37.73-2.2 1.34-5.13 1.36-8.34-.24-6.85-3.43-12.41-12.97-12.41-21.32 0-4.99 1.98-8.42 5.04-9.65zm-14.28-2.78c-.84.61-1.94.82-3.24.47l-4.06-1.09c-.21-.06-.42-.08-.61-.07.37-.43.93-.59 1.58-.42l4.06 1.09c.85.23 1.61.22 2.27.02zm15.28-10.97c-2 1.45-5.3.45-7.91-3.02l-3.41-4.54c-.78-1.04-1.78-1.61-2.58-1.48.17-.11.35-.22.52-.32.84-.5 2.09.08 3.02 1.32l3.41 4.54c2.23 2.95 4.95 4.12 6.95 3.5z" fill="#fff"/><path fill-rule="evenodd" clip-rule="evenodd" d="M1284.75 143.74c-4.9-.43-8.43 3.46-8.43 10.11 0 8.35 5.55 17.89 12.41 21.32 4.6 2.3 8.61 1.26 10.75-2.19-1.25-.11-2.59-.5-3.98-1.2-6.85-3.43-12.41-12.97-12.41-21.32 0-2.74.61-5.02 1.66-6.72z" fill="#B4B7BB"/><path fill-rule="evenodd" clip-rule="evenodd" d="M1284.75 143.74c-4.9-.43-8.43 3.46-8.43 10.11 0 1.32.14 2.67.4 4.02 2.62-8.94 6.49-9.68 6.7-10.68.28-1.32.73-2.48 1.33-3.45z" fill="#A7ACB1"/><path fill-rule="evenodd" clip-rule="evenodd" d="M1297.68 189.04h.04l.07.01.06.01.07.01.06.01.07.01.06.01.07.02.06.02.07.02.06.02.07.02.07.02.07.02.07.02.07.02.07.02.07.03.07.03.07.03.07.03c.05.02.09.04.14.06.05.02.09.04.14.06.05.02.09.04.14.07.05.02.09.05.14.07.05.02.09.05.14.08.05.03.09.05.14.08.05.03.09.06.14.08l-.67 3.96c-.11.66-.42 1.14-.85 1.37-.02.01-5.99 2.99-6.76 3.38l.06-.03.02-.01.04-.02.04-.03.05-.04.04-.04.05-.05.05-.05.04-.05.03-.04.03-.04.03-.04.04-.06.03-.05.04-.07.04-.07.03-.06.03-.06.02-.05.02-.05.03-.08.02-.08.02-.07.02-.09.02-.08.01-.07.77-4.56.02-.09.02-.09.02-.08.02-.08.02-.08.02-.08.02-.08.02-.08.02-.08.02-.08.02-.08.02-.08.03-.07.03-.07.03-.07.03-.07.03-.07.03-.07.03-.07.03-.07.03-.07.03-.06.03-.06.03-.06.03-.06.03-.06.04-.06.04-.06.04-.06.04-.06.04-.06.04-.05.04-.05.04-.05.04-.05.04-.05.04-.05.04-.05.04-.05.04-.05.04-.05.05-.04.05-.04.05-.04.05-.04.05-.04.05-.04.05-.04.05-.04.05-.04.05-.04.05-.03.05-.03.05-.03.05-.03.05-.03.05-.03.05-.03.05-.03.05-.03.06-.03.06-.02.06-.02.06-.02.06-.02.06-.02.06-.02.06-.02.06-.02.06-.02.06-.02.06-.01c.43-.06.89-.08 1.36-.03zm17.72-10.34c-.21 1.67.09 3.7 1.02 5.83l2.32 5.32c.64 1.46.6 2.96-.16 3.61-.75.64-1.54 1.21-2.37 1.7-.07.04-.13.07-.21.1-.02.01-5.24 2.62-6.51 3.26.37-.22.73-.45 1.08-.7l.07-.05.11-.08.14-.11.13-.1.15-.11.11-.08.11-.09.11-.09.11-.09.11-.09.11-.09c.76-.65.79-2.15.16-3.61l-2.32-5.32c-.87-2-1.19-3.93-1.05-5.54.27-3.02 2.16-4.93 5.02-4.16l1.76.49zm3.43.53l.01-.01.04-.02.05-.03.06-.04.05-.04.05-.04.05-.04.05-.05.03-.03.03-.03.03-.04.03-.04.04-.06.03-.04.02-.03.03-.05.02-.04.02-.04.03-.05.02-.04.02-.05.01-.04.02-.06.02-.05.01-.04.02-.06.01-.05.01-.05.01-.07.01-.06.01-.06.01-.05.01-.07.01-.06v-.13c.03-.66.04-1.33.04-2.02s-.01-1.37-.04-2.06c-.06-1.41-.92-2.94-2.03-3.76l-4.06-2.97c-4.39-3.21-6.49-10.42-3.97-13.67l2.32-3 .03-.03c.15-.21.27-.46.34-.74.04-.16.07-.34.08-.52v-.03c.04-.74-.15-1.61-.6-2.43-.52-.97-1.06-1.92-1.62-2.86l-.36-.6-.04-.06c-.11-.18-.23-.37-.34-.55l-.04-.06-.12-.18-.02-.02c-.02-.03-.05-.06-.07-.09-.03-.04-.06-.08-.09-.11-.04-.05-.08-.09-.11-.14-.64-.75-1.41-1.17-2.1-1.17h-.02c-.04 0-.09 0-.13.01-.02 0-.05 0-.07.01-.03 0-.06.01-.09.02l-.14.03-.03.01-3.41 1.13c-1.77.58-3.86-.28-5.64-1.98-1.93-1.84-3.51-4.66-3.95-7.65l-.77-5.33c-.21-1.46-1.12-2.96-2.25-3.6a35.38 35.38 0 0 0-3.34-1.67c-.01 0-.02-.01-.02-.01l-.04-.02-.08-.03-.05-.02-.04-.01-.08-.02-.05-.01-.06-.01-.07-.01-.04-.01-.08-.01h-.23l-.07.01-.04.01-.03.01-.06.01c-.03.01-.06.01-.09.02l-.04.01c-.04.01-.07.03-.11.04l6.73-3.36c.38-.18.84-.18 1.36.04a35.38 35.38 0 0 1 3.34 1.67c1.13.64 2.04 2.14 2.25 3.6l.77 5.33c.83 5.77 5.89 10.85 9.59 9.63l3.41-1.13c.93-.31 2.18.36 3.02 1.7a74.46 74.46 0 0 1 2.37 4.07c.76 1.4.79 2.94.16 3.76l-2.32 3c-2.52 3.24-.42 10.46 3.97 13.67l4.06 2.97c1.11.81 1.97 2.35 2.03 3.76.03.69.04 1.38.04 2.06 0 .68-.01 1.36-.04 2.02-.04.8-.35 1.36-.83 1.63-.1 0-6.21 3.06-6.86 3.38zM1265.76 142c-.38.07-.78.09-1.21.03h-.07c-.21-.03-.43-.07-.65-.13l-4.06-1.09c-.4-.11-.76-.09-1.07.04l6.59-3.29c.34-.21.77-.26 1.25-.14l2.27.61c-.25 2.12-1.35 3.64-3.05 3.97zm18.38-15.21l-.1.6c-.03.15-.05.3-.09.44-.36 1.56-1.19 2.56-2.26 3.01-.43.18-.9.27-1.4.27h-.02c-1.82-.01-3.99-1.23-5.82-3.67l-3.41-4.54-.04-.06-.04-.05-.04-.05-.06-.08-.08-.09-.07-.08-.06-.07-.05-.05-.05-.05-.05-.04-.07-.06-.07-.06-.08-.07-.07-.06-.07-.05-.05-.04-.05-.03-.05-.03-.07-.05-.07-.05-.08-.05-.08-.04-.06-.03a.3.3 0 0 1-.08-.04l-.02-.01-.05-.02-.05-.02-.07-.03-.08-.03-.07-.02-.05-.02-.12-.03-.04-.01-.05-.01-.05-.01-.07-.01h-.18c-.03 0-.06 0-.09.01h-.04l-.04.01-.04.01-.06.01-.05.01-.06.02-.06.02-.04.02 6.69-3.34c.84-.46 2.07.12 2.99 1.34l3.41 4.54c.88 1.21 1.88 2.13 2.88 2.74z" fill="#B4B7BB"/><path fill-rule="evenodd" clip-rule="evenodd" d="M1264.47 157.99c1.61-4.98.58-12.19-3.09-18.65-3.67-6.46-8.98-10.41-13.57-10.68l8.33 14.67c-.15 5.19-2.71 7.35-8 6.09l-8.33-14.67c-1.61 4.98-.58 12.19 3.09 18.65 3.67 6.46 8.98 10.41 13.57 10.68l22.63 39.84c2.21 3.89 5.79 5.68 8 4 2.21-1.68 2.21-6.2 0-10.09l-22.63-39.84z" fill="#8A8A8A"/><path fill-rule="evenodd" clip-rule="evenodd" d="M1247.81 128.66c4.59.27 9.9 4.23 13.57 10.68 3.67 6.46 4.7 13.67 3.09 18.65l22.63 39.84c2.21 3.89 2.21 8.41 0 10.09-.27.21-.57.36-.88.47l.12-.09c2.21-1.68 2.21-6.2 0-10.09l-22.63-39.84c1.61-4.98.58-12.19-3.09-18.65-5.37-9.47-12.81-11.06-12.81-11.06zm5.17 20.74c-1.31.83-3.16.97-5.6.39 0 0-7.69-14.67-7.57-15.04l8.33 14.67c2 .47 3.6.45 4.84-.02z" fill="#D1D1D1"/><path fill-rule="evenodd" clip-rule="evenodd" d="M1247.81 128.66l3.25-1.63c4.59.27 9.9 4.23 13.57 10.68 3.67 6.46 4.7 13.67 3.09 18.65l22.63 39.84c2.21 3.89 2.21 8.41 0 10.09-.14.1-.28.19-.42.27-.04.02-.09.05-.13.07l-3.15 1.57c.16-.08.31-.18.45-.28 2.21-1.68 2.21-6.2 0-10.09l-22.63-39.84c1.61-4.98.58-12.19-3.09-18.65-3.67-6.46-8.98-10.41-13.57-10.68zm-8 6.08l3.25-1.63 8.33 14.67c1.28.31 2.4.41 3.37.32-1.28 1.59-3.47 2.06-6.62 1.3l-8.33-14.66z" fill="#737373"/><path fill-rule="evenodd" clip-rule="evenodd" d="M1280.63 196.52c-1.17.89-1.17 3.27 0 5.32 1.17 2.05 3.06 3 4.22 2.11 1.17-.89 1.17-3.27 0-5.32-1.17-2.05-3.06-3-4.22-2.11zM1263.9 161.76c-.17-.29-.46-.49-.79-.52-.33-.04-.66.09-.89.33a6.924 6.924 0 0 1-2 1.54c-.32.17-.56.46-.67.8-.1.35-.06.72.12 1.04 3.16 5.56 15.06 26.52 15.06 26.52 1.16 2.05 3.05 2.99 4.22 2.11 1.16-.89 1.16-3.27 0-5.32.01 0-11.85-20.88-15.05-26.5z" fill="#B0B0B0"/></g><defs><filter id="filter0_d" x="-4" y="-2" width="1608" height="408" filterUnits="userSpaceOnUse" color-interpolation-filters="sRGB"><feFlood flood-opacity="0" result="BackgroundImageFix"/><feColorMatrix in="SourceAlpha" values="0 0 0 0 0 0 0 0 0 0 0 0 0 0 0 0 0 0 127 0"/><feOffset dy="2"/><feGaussianBlur stdDeviation="2"/><feColorMatrix values="0 0 0 0 0 0 0 0 0 0 0 0 0 0 0 0 0 0 0.08 0"/><feBlend in2="BackgroundImageFix" result="effect1_dropShadow"/><feBlend in="SourceGraphic" in2="effect1_dropShadow" result="shape"/></filter><clipPath id="clip0"><path fill="#fff" transform="translate(1050 56)" d="M0 0h468.35v241.8H0z"/></clipPath></defs></svg>