<svg width="1600" height="400" fill="none" xmlns="http://www.w3.org/2000/svg" viewBox="0 0 1600 400"><g filter="url(#filter0_d)"><path fill="#F5FCFF" d="M1600 0H0v400h1600z"/></g><path d="M1283.55 337.9c126.22 0 228.55-38.257 228.55-85.45 0-47.193-102.33-85.45-228.55-85.45-126.22 0-228.55 38.257-228.55 85.45 0 47.193 102.33 85.45 228.55 85.45z" fill="#004EBB"/><path d="M1428.24 231.13l-144.12 72.07L1140 231.13l144.12-72.08 144.12 72.08z" fill="#E2C8B4"/><path d="M1428.24 243.55l-144.12 72.08V303.2l144.12-72.07v12.42z" fill="#B99989"/><path d="M1284.12 315.63L1140 243.55v-12.42l144.12 72.07v12.43z" fill="#DAB5A1"/><path d="M1419.26 235.93V109.97l8.98-4.73V231.2l-8.98 4.73z" fill="url(#paint0_linear)"/><path d="M1140 231.03V105.08l8.99 4.63v125.95l-8.99-4.63z" fill="url(#paint1_linear)"/><path d="M1293.11 163.59l-144.12 72.07V109.71l144.12-72.08v125.96z" fill="url(#paint2_linear)"/><path d="M1419.26 109.97v125.96l-135.14-67.58V42.39l135.14 67.58z" fill="url(#paint3_linear)"/><path d="M1293.11 37.63l-144.12 72.08-8.99-4.63L1284.12 33l8.99 4.63z" fill="#8ACEE3"/><path d="M1419.26 109.97l-144.13-72.08 8.99-4.73 144.12 72.08-8.98 4.73z" fill="#8ACEE3"/><path opacity=".55" d="M1185.21 230.51l-8.9 4.44-6.23.36 8.9-7.86 6.23 3.06zM1287.97 178.75l-8.9 4.45-6.23.35 8.9-7.86 6.23 3.06zM1330.35 217.35l-31.61 15.8-10.49.39-21.11-16.19 31.6-15.81 31.61 15.81zM1230.05 266.48l10.85-5.42-14.28-7.14-10.15 7.14 10.85 5.42h2.73zM1388.77 242.64l-18.19-9.1c-1.91-.96-5.01-.96-6.92 0l-63.81 31.58-13.58-6.79c-2.25-1.12-5.9-1.12-8.15 0l-16.97 8.49c-2.25 1.12-2.25 2.95 0 4.07l17.04 8.52 14.83 7.42h13.65l14.22-7.11 67.88-33.61c1.91-.96 1.91-2.51 0-3.47z" fill="#817F7F"/><path d="M1403.78 165.53l-1.86.93v-15.44l1.86-.93v15.44z" fill="#6E4A4C"/><path d="M1386.48 143.3l1.86-.93 15.44 7.72-1.86.93-15.44-7.72z" fill="#9B787A"/><path d="M1401.92 166.46l-15.44-7.72V143.3l15.44 7.72v15.44z" fill="#865D5F"/><path d="M1400.17 163.83l-11.94-5.97v-11.94l11.94 5.97v11.94z" fill="#fff"/><path d="M1398.53 161.36l-8.65-4.32v-8.65l8.65 4.33v8.64z" fill="#E2AF75"/><path d="M1398.53 157.04l-8.65-4.32v-4.33l8.65 4.33v4.32z" fill="#BBF5FE"/><path d="M1398.53 158.64l-8.65-4.33v-1.59l8.65 4.32v1.6z" fill="#98A17E"/><path d="M1398.53 160.23l-8.65-4.32v-1.6l8.65 4.33v1.59z" fill="#F7C17F"/><path d="M1404.11 146.309l-1.85.93v-15.44l1.85-.93v15.44z" fill="#6E4A4C"/><path d="M1386.82 124.069l1.85-.92 15.44 7.72-1.85.93-15.44-7.73z" fill="#9B787A"/><path d="M1402.26 147.239l-15.44-7.73v-15.44l15.44 7.73v15.44z" fill="#865D5F"/><path d="M1400.51 144.609l-11.94-5.97v-11.94l11.94 5.97v11.94z" fill="#fff"/><path d="M1398.86 142.139l-8.65-4.32v-8.65l8.65 4.32v8.65z" fill="#FFDBAF"/><path d="M1398.86 137.819l-8.65-4.33v-4.32l8.65 4.32v4.33z" fill="#AFF5FF"/><path d="M1398.86 139.409l-8.65-4.32v-1.6l8.65 4.33v1.59z" fill="#CCB7BD"/><path d="M1398.86 141.009l-8.65-4.33v-1.59l8.65 4.32v1.6z" fill="bisque"/><path d="M1390.21 129.169l1.14 3.89 1.53.76 1.02 1.2 2.47 1.24s.73-.8.95-.69c.22.11 1.54.84 1.54.84v2.2l-8.65-4.32v-5.12z" fill="#CCB7BD"/><path d="M1382.07 152.159l-1.86.93v-30.26l1.86-.93v30.26z" fill="#6E4A4C"/><path d="M1364.77 115.11l1.86-.93 15.44 7.72-1.86.93-15.44-7.72z" fill="#9B787A"/><path d="M1380.21 153.089l-15.44-7.72v-30.26l15.44 7.72v30.26z" fill="#865D5F"/><path d="M1378.46 150.46l-11.94-5.97v-26.761l11.94 5.97v26.761z" fill="#fff"/><path d="M1376.82 147.989l-8.65-4.32v-23.47l8.65 4.33v23.46z" fill="#FFDBAF"/><path d="M1376.82 143.669l-8.65-4.32v-19.15l8.65 4.33v19.14z" fill="#CCB393"/><path d="M1373.44 124.129l-1.34 1.37s-1.27.76-1.48.95c-.21.19.11 3.01.11 3.01s-.59.61-.18 1.27c.4.66.14 2.28 0 3.19-.14.91-1.02 2.11-1.34 2.49-.33.38-1.03 1.99-1.03 1.99V120.199l8.65 4.32s-.84.23-.95.22c-.11-.01-1.2 1.1-1.2 1.1l-1.22.32v-2.03h-.02z" fill="#AFF5FF"/><path d="M1369.42 142.419l-1.25-3.07 3.94-1.04s-.04-.35 0-.88c.04-.52 1.34-.93 1.34-.93l1.11.55s.55-.71.33-1.77c-.22-1.06-.55-1.7-.44-2.61.11-.91 2.37-2.5 2.37-2.5v17.14l-7.4-4.89z" fill="#FFDBAF"/><path d="M1369.1 144.13l3.01.83.39-1.88s1.62-.17 1.95-.44c.33-.27.87-1.31.98-2.13.11-.82 1.39-3.45 1.39-3.45v7.64l-2.69.84.97 1.6-6-3.01z" fill="#77DAE9"/><path d="M1251.39 184.38l-69.78 34.9v-17.11l69.78-34.89v17.1z" fill="url(#paint4_linear)"/><path d="M1281.76 116.24l-8.9 4.45-6.23-3.06 8.89-4.45 6.24 3.06z" fill="#727275"/><path d="M1272.86 183.61l-6.23-3.06v-62.92l6.23 3.06v62.92z" fill="url(#paint5_linear)"/><path d="M1281.76 179.159l-8.9 4.45v-62.92l8.9-4.45v62.92z" fill="url(#paint6_linear)"/><path d="M1273.42 121.03l7.78-3.89v61.67l-7.78 3.9v-61.68z" fill="url(#paint7_linear)"/><mask id="a" maskUnits="userSpaceOnUse" x="1272" y="116" width="10" height="56"><path d="M1281.76 166.839l-8.9 4.45v-50.6l8.9-4.45v50.6z" fill="url(#paint8_linear)"/></mask><g mask="url(#a)"><path d="M1281.76 166.839l-8.9 4.45v-50.6l8.9-4.45v50.6z" fill="url(#paint9_linear)"/><path d="M1280.96 124.94c0 1.96-1.59 4.34-3.55 5.32-1.96.98-3.55.19-3.55-1.77s1.59-4.34 3.55-5.32c1.96-.98 3.55-.19 3.55 1.77z" fill="#8A8995"/><path d="M1280.34 125.249c0 1.62-1.31 3.59-2.93 4.4-1.62.81-2.93.15-2.93-1.47 0-1.62 1.31-3.59 2.93-4.4 1.62-.8 2.93-.15 2.93 1.47z" fill="#5E5D65"/><path d="M1279.86 125.489c0 1.35-1.1 2.99-2.45 3.67-1.35.68-2.45.13-2.45-1.22s1.1-2.99 2.45-3.67c1.35-.68 2.45-.13 2.45 1.22z" fill="#DEDCDE"/><path d="M1278.56 128.31c-.34.35-.73.65-1.15.86-.39.2-.77.29-1.1.29v-2.54l1.1-.53 1.15 1.92z" fill="#F3F1F2"/><path d="M1277.73 125.98c0 .45-.37 1-.82 1.22-.45.23-.82.04-.82-.41 0-.45.37-1 .82-1.22.45-.23.82-.04.82.41z" fill="#5E5D65"/><path d="M1280.96 135.829c0 1.96-1.59 4.34-3.55 5.32-1.96.98-3.55.19-3.55-1.77s1.59-4.34 3.55-5.32c1.96-.98 3.55-.19 3.55 1.77z" fill="#8A8995"/><path d="M1279.22 139.039c1.27-1.633 1.5-3.587.5-4.365-1-.779-2.84-.086-4.11 1.546-1.28 1.632-1.5 3.587-.51 4.365 1 .778 2.84.086 4.12-1.546z" fill="#5E5D65"/><path d="M1279.86 136.379c0 .94-.53 2.01-1.3 2.81-.34.35-.73.65-1.15.86-.39.2-.77.29-1.1.29-.8 0-1.35-.56-1.35-1.51 0-1.35 1.1-2.99 2.45-3.67 1.35-.68 2.45-.13 2.45 1.22z" fill="#DEDCDE"/><path d="M1278.56 139.19c-.34.35-.73.65-1.15.86-.39.2-.77.29-1.1.29v-2.54l1.1-.53 1.15 1.92z" fill="#F3F1F2"/><path d="M1277.73 136.859c0 .45-.37 1-.82 1.22-.45.23-.82.04-.82-.41 0-.45.37-1 .82-1.22.45-.22.82-.04.82.41z" fill="#5E5D65"/><path d="M1279.86 146.219c0 1.35-1.1 2.99-2.45 3.67-1.35.68-2.45.13-2.45-1.22s1.1-2.99 2.45-3.67c1.35-.68 2.45-.13 2.45 1.22z" fill="#7D7A86"/><path d="M1279.43 146.428c0 1.12-.9 2.47-2.02 3.03-1.12.56-2.02.11-2.02-1.01s.9-2.47 2.02-3.03c1.12-.56 2.02-.11 2.02 1.01z" fill="#5E5D65"/><path d="M1279.1 146.598c0 .93-.76 2.06-1.69 2.53-.93.47-1.69.09-1.69-.84 0-.93.76-2.06 1.69-2.53.93-.47 1.69-.09 1.69.84z" fill="#000"/><path d="M1274.54 133.419c0 .17-.14.38-.31.46-.17.09-.31.02-.31-.15 0-.17.14-.38.31-.46.17-.09.31-.02.31.15zM1280.71 130.329c0 .17-.14.38-.31.46-.17.09-.31.02-.31-.15 0-.17.14-.38.31-.46.17-.09.31-.02.31.15zM1274.54 144.659c0 .17-.14.38-.31.46-.17.09-.31.02-.31-.15 0-.17.14-.38.31-.46.17-.09.31-.02.31.15zM1280.71 141.569c0 .17-.14.38-.31.46-.17.09-.31.02-.31-.15 0-.17.14-.38.31-.46.17-.09.31-.02.31.15zM1274.54 122.879c0 .17-.14.38-.31.46-.17.09-.31.02-.31-.15 0-.17.14-.38.31-.46.17-.09.31-.02.31.15zM1280.71 119.799c0 .17-.14.38-.31.46-.17.09-.31.02-.31-.15 0-.17.14-.38.31-.46.17-.09.31-.02.31.15z" fill="#45434B"/></g><path d="M1319.57 214.6l-31.6 15.8-31.61-15.8 31.61-15.81 31.6 15.81z" fill="#F0D2B6"/><path d="M1287.97 233.98v-3.58l31.6-15.8v3.57l-27.24 13.63-4.36 2.18z" fill="#B99989"/><path d="M1256.36 218.17v-3.57l31.61 15.8v3.58l-31.61-15.81z" fill="#DAB5A1"/><path d="M1261.61 214.79l-2.63 1.31v-14.43l2.63-1.31v14.43z" fill="#B99989"/><path d="M1258.98 216.1l-2.62-1.31v-14.43l2.62 1.31v14.43z" fill="#DAB5A1"/><path d="M1319.57 214.66l-2.62 1.31v-14.43l2.62-1.31v14.43z" fill="#B99989"/><path d="M1316.95 215.97l-2.62-1.31v-14.43l2.62 1.31v14.43z" fill="#DAB5A1"/><path d="M1290.59 229.09l-2.62 1.31v-14.43l2.62-1.31v14.43z" fill="#B99989"/><path d="M1287.97 230.4l-2.63-1.31v-14.43l2.63 1.31v14.43z" fill="#DAB5A1"/><path d="M1319.57 197l-31.6 15.81-31.61-15.81 31.61-15.81 31.6 15.81z" fill="#FFF6EE"/><path d="M1287.97 216.39v-3.58l31.6-15.81v3.58l-31.6 15.81z" fill="#B99989"/><path d="M1256.36 200.58V197l31.61 15.81v3.58l-31.61-15.81z" fill="#DAB5A1"/><path d="M1291.23 197.8l-12.86-6.43v-.65l12.86 6.43v.65z" fill="#FFCA53"/><path d="M1291.23 197.151l8.67-4.34v.65l-8.67 4.34v-.65z" fill="#FFEBBB"/><path d="M1291.23 197.15l-12.86-6.43 8.68-4.34 12.85 6.43-8.67 4.34z" fill="url(#paint10_linear)"/><path d="M1283.3 189.991c-.01.49.76.91 1.73.9.25 0 .5.02.7.1.8.28.44 1.02 1.69.56 1.25-.46 1.05-.57 1.61-.61.96-.06 3.15.01 2.83.33-.32.32-1.02.57-3.27.93-2.25.36-3.3.32-2.1.89 1.21.56 1.67 1.46 1.29 1.65-.71.34-2.34-.48-2.34-.48l-5.96-2.98-1.11-.56s1.59.08 2.43-.42c.84-.5 1.92-1.24 2.33-1 .14.08.18.36.17.69z" fill="#77DAE9"/><path d="M1291.23 197.15s-2.49-1.17-1.51-2.02c.98-.85.1-1.3.08-1.4-.01-.04-.05-.23-.1-.46-.09-.4.7-.7 1.45-.56l.49.1s-1 .58.08.83 2.4-.34 2.3-1.12c-.1-.77.46-.95.79-.82.19.08.16.73.1 1.26-.05.48.91.85 1.8.67.31-.06.6-.16.86-.32.39-.24.14-.59-.24-.91-.31-.25.14-.57.73-.52l1.86.93-8.69 4.34zM1286.21 187.62c-.59.1-.86.2-.33.53s1.22.9.83 1.03-1.28.48-.53.82c.75.34 1.87.64 2.85.34s1.72-.65 2.31-.45c.59.2 1.13.95 1.49 1.13 1.29.64 1.94.09 2.38-.01.44-.11 1.94.42 1.94.42l-10.11-5.06s.74.85.34.98c-.39.13-.69-.25-.85-.13-.16.12-.32.4-.32.4z" fill="#826FBD"/><path d="M1285.85 188.59c-.69-.25-1.31.03-1.05.23s.52.66.85.43c.33-.23.2-.66.2-.66zM1295.78 192.29c-.18-.04-.59.51-.18.73.42.21 1.38.23 1.42.06.05-.16-.24-.38-.49-.57-.25-.21-.75-.22-.75-.22zM1289.62 194.2c.19.23.28.49-.16.57-.45.08-.75.4-.59.5.16.11-.84.16-.96-.08-.12-.25.59-.41.94-.61s-.42-.63-.14-.84c.28-.21.91.46.91.46z" fill="#E67779"/><path d="M1288.3 187s.4.62.07.76-.77.5-.4.76c.38.26.98.56 1.43.55.45-.01 1.17.16 1.55.3.38.14.68.2 1.05.48.38.28.59.64 1.15.64.56 0 1.99-.08 1.99-.08l-6.84-3.41z" fill="#7464A8"/><path d="M1282.8 191.021c.68.32.61.68 1.08.98.47.3.66 1.03 1.55 1.22.89.19.22 1.13.22 1.13l-6.82-3.41s1.2.12 1.65.14c.45.02 1.64-.37 2.32-.06z" fill="#48C3D5"/><path opacity=".55" d="M1386.44 235.34l8.99-4.5-11.85-5.92-8.41 5.92 9 4.5h2.27z" fill="#817F7F"/><path d="M1392.56 229.48l-8.98 4.49-8.98-4.49 8.98-4.49 8.98 4.49z" fill="#9B787A"/><path d="M1383.58 235.48v-1.51l8.98-4.49v1.51l-8.98 4.49z" fill="#6E4A4C"/><path d="M1374.6 230.99v-1.51l8.98 4.49v1.51l-8.98-4.49z" fill="#865D5F"/><path d="M1384.5 229.03c.51.25.51.66 0 .92s-1.33.25-1.83 0c-.51-.25-.51-.66 0-.92.5-.26 1.32-.26 1.83 0z" fill="#6E4A4C"/><path d="M1384.88 220.5h-2.59v8.99h2.59v-8.99z" fill="#6E4A4C"/><path d="M1384.88 220.5h-2.59v8.99h2.59v-8.99z" fill="url(#paint11_linear)"/><path d="M1383.58 223.95l-8.98-4.49v-38.01l8.98 4.49v38.01z" fill="#fff"/><mask id="b" maskUnits="userSpaceOnUse" x="1375" y="195" width="9" height="16"><path d="M1383.02 204.661c0 4.04-1.76 6.45-3.92 5.36-2.16-1.09-3.92-5.24-3.92-9.29 0-4.04 1.76-6.45 3.92-5.36 2.16 1.09 3.92 5.25 3.92 9.29z" fill="url(#paint12_radial)"/></mask><g mask="url(#b)"><path d="M1383.02 204.661c0 4.04-1.76 6.45-3.92 5.36-2.16-1.09-3.92-5.24-3.92-9.29 0-4.04 1.76-6.45 3.92-5.36 2.16 1.09 3.92 5.25 3.92 9.29z" fill="url(#paint13_radial)"/></g><path d="M1392.56 219.46l-8.98 4.49v-38.01l8.98-4.49v38.01z" fill="#FFF5EB"/><mask id="c" maskUnits="userSpaceOnUse" x="1384" y="195" width="9" height="16"><path d="M1392 200.74c0 4.04-1.76 8.2-3.92 9.29-2.16 1.09-3.92-1.32-3.92-5.36s1.76-8.2 3.92-9.29c2.16-1.09 3.92 1.31 3.92 5.36z" fill="url(#paint14_radial)"/></mask><g mask="url(#c)"><path d="M1392 200.74c0 4.04-1.76 8.2-3.92 9.29-2.16 1.09-3.92-1.32-3.92-5.36s1.76-8.2 3.92-9.29c2.16-1.09 3.92 1.31 3.92 5.36z" fill="url(#paint15_radial)"/></g><path d="M1392.56 181.45l-8.98 4.49-8.98-4.49 8.98-4.49 8.98 4.49z" fill="#fff"/><path d="M1383.58 185.94l-8.98-4.49 8.98-4.49v8.98z" fill="#FFF5EB"/><g opacity=".5"><path opacity=".5" d="M1383.58 188.76l-8.98-4.49v-1.16l8.98 4.49v1.16z" fill="#FFF5EB"/><path opacity=".5" d="M1392.56 184.27l-8.98 4.49v-1.16l8.98-4.49v1.16z" fill="#F0D2B6"/></g><g opacity=".5"><path opacity=".5" d="M1383.58 190.92l-8.98-4.5v-1.16l8.98 4.5v1.16z" fill="#FFF5EB"/><path opacity=".5" d="M1392.56 186.42l-8.98 4.5v-1.16l8.98-4.5v1.16z" fill="#F0D2B6"/></g><g opacity=".5"><path opacity=".5" d="M1383.58 193.07l-8.98-4.49v-1.16l8.98 4.49v1.16z" fill="#FFF5EB"/><path opacity=".5" d="M1392.56 188.58l-8.98 4.49v-1.16l8.98-4.49v1.16z" fill="#F0D2B6"/></g><g opacity=".5"><path opacity=".5" d="M1383.58 195.22l-8.98-4.49v-1.16l8.98 4.49v1.16z" fill="#FFF5EB"/><path opacity=".5" d="M1392.56 190.73l-8.98 4.49v-1.16l8.98-4.49v1.16z" fill="#F0D2B6"/></g><g opacity=".5"><path opacity=".5" d="M1383.58 197.37l-8.98-4.49v-1.16l8.98 4.49v1.16z" fill="#FFF5EB"/><path opacity=".5" d="M1392.56 192.88l-8.98 4.49v-1.16l8.98-4.49v1.16z" fill="#F0D2B6"/></g><g opacity=".5"><path opacity=".5" d="M1383.58 199.52l-8.98-4.49v-1.16l8.98 4.49v1.16z" fill="#FFF5EB"/><path opacity=".5" d="M1392.56 195.03l-8.98 4.49v-1.16l8.98-4.49v1.16z" fill="#F0D2B6"/></g><g opacity=".5"><path opacity=".5" d="M1383.58 201.67l-8.98-4.49v-1.16l8.98 4.49v1.16z" fill="#FFF5EB"/><path opacity=".5" d="M1392.56 197.18l-8.98 4.49v-1.16l8.98-4.49v1.16z" fill="#F0D2B6"/></g><g opacity=".5"><path opacity=".5" d="M1383.58 203.83l-8.98-4.5v-1.16l8.98 4.5v1.16z" fill="#FFF5EB"/><path opacity=".5" d="M1392.56 199.33l-8.98 4.5v-1.16l8.98-4.5v1.16z" fill="#F0D2B6"/></g><g opacity=".5"><path opacity=".5" d="M1383.58 205.98l-8.98-4.49v-1.16l8.98 4.49v1.16z" fill="#FFF5EB"/><path opacity=".5" d="M1392.56 201.49l-8.98 4.49v-1.16l8.98-4.49v1.16z" fill="#F0D2B6"/></g><g opacity=".5"><path opacity=".5" d="M1383.58 208.13l-8.98-4.491v-1.16l8.98 4.49v1.161z" fill="#FFF5EB"/><path opacity=".5" d="M1392.56 203.639l-8.98 4.491v-1.161l8.98-4.49v1.16z" fill="#F0D2B6"/></g><g opacity=".5"><path opacity=".5" d="M1383.58 210.28l-8.98-4.49v-1.16l8.98 4.49v1.16z" fill="#FFF5EB"/><path opacity=".5" d="M1392.56 205.79l-8.98 4.49v-1.16l8.98-4.49v1.16z" fill="#F0D2B6"/></g><g opacity=".5"><path opacity=".5" d="M1383.58 212.43l-8.98-4.49v-1.16l8.98 4.49v1.16z" fill="#FFF5EB"/><path opacity=".5" d="M1392.56 207.94l-8.98 4.49v-1.16l8.98-4.49v1.16z" fill="#F0D2B6"/></g><g opacity=".5"><path opacity=".5" d="M1383.58 214.58l-8.98-4.49v-1.16l8.98 4.49v1.16z" fill="#FFF5EB"/><path opacity=".5" d="M1392.56 210.09l-8.98 4.49v-1.16l8.98-4.49v1.16z" fill="#F0D2B6"/></g><g opacity=".5"><path opacity=".5" d="M1383.58 216.73l-8.98-4.49v-1.16l8.98 4.5v1.15z" fill="#FFF5EB"/><path opacity=".5" d="M1392.56 212.24l-8.98 4.49v-1.15l8.98-4.5v1.16z" fill="#F0D2B6"/></g><g opacity=".5"><path opacity=".5" d="M1383.58 218.89l-8.98-4.5v-1.15l8.98 4.49v1.16z" fill="#FFF5EB"/><path opacity=".5" d="M1392.56 214.39l-8.98 4.5v-1.16l8.98-4.49v1.15z" fill="#F0D2B6"/></g><g opacity=".5"><path opacity=".5" d="M1383.58 221.04l-8.98-4.49v-1.16l8.98 4.49v1.16z" fill="#FFF5EB"/><path opacity=".5" d="M1392.56 216.55l-8.98 4.49v-1.16l8.98-4.49v1.16z" fill="#F0D2B6"/></g><g opacity=".5"><path opacity=".5" d="M1383.58 223.19l-8.98-4.49v-1.16l8.98 4.49v1.16z" fill="#FFF5EB"/><path opacity=".5" d="M1392.56 218.7l-8.98 4.49v-1.16l8.98-4.49v1.16z" fill="#F0D2B6"/></g><path d="M1383.58 177.58l7.73 3.87-7.73 3.87-7.73-3.87 7.73-3.87zm0-.62l-8.98 4.49 8.98 4.49 8.98-4.49-8.98-4.49z" fill="#FFFFFD"/><path d="M1264.57 156.71l-69.78 34.9-13.19-6.6 69.78-34.89 13.19 6.59z" fill="#FFF6EE"/><path opacity=".55" d="M1264.61 190.99l-69.78 34.9-13.19-6.6 69.78-34.9 13.19 6.6z" fill="#817F7F"/><path d="M1194.79 208.71l-13.19-6.6v-17.1l13.19 6.6v17.1z" fill="#DAB5A1"/><path d="M1264.57 173.82l-69.78 34.89v-17.1l69.78-34.9v17.11z" fill="#B99989"/><path d="M1264.57 162.96l-69.78 34.9v-.63l69.78-34.9v.63z" fill="#AA8E7E"/><path d="M1264.57 162.33l-69.78 34.9v-.63l69.78-34.89v.62z" fill="#C9A792"/><path d="M1264.57 168.82l-69.78 34.9v-.63l69.78-34.89v.62z" fill="#AA8E7E"/><path d="M1264.57 168.2l-69.78 34.89v-.62l69.78-34.9v.63z" fill="#C9A792"/><path d="M1230.11 191.05l-.85.43v-17.11l.85-.42v17.1z" fill="#AA8E7E"/><path d="M1250.98 126.25l-67.64 33.83v-39.14l67.64-33.82v39.13z" fill="#515154"/><path d="M1185.67 156.57v-34.46l62.98-31.49v34.46l-62.98 31.49z" fill="url(#paint16_linear)"/><mask id="d" maskUnits="userSpaceOnUse" x="1183" y="87" width="68" height="74"><path d="M1183.34 160.08v-39.14l67.64-33.82-67.64 72.96z" fill="url(#paint17_linear)"/></mask><g mask="url(#d)"><path d="M1183.34 160.08v-39.14l67.64-33.82-67.64 72.96z" fill="url(#paint18_linear)"/></g><path d="M1249.08 86.22l-67.65 33.83 1.91.89 67.64-33.82-1.9-.9z" fill="#6E6E70"/><path d="M1183.34 160.08v-39.14l-1.91-.89v39.13l1.91.9z" fill="#59595C"/><path d="M1237.07 168.24l-15.98 7.99-2.39-.11 8.42-12.86 9.95 4.98z" fill="#E7C2AB"/><path d="M1234.68 166.02l-15.98 8-9.96-4.98 15.99-8 9.95 4.98z" fill="#6E6E70"/><path d="M1234.68 168.131l-15.98 7.989v-2.099l15.98-8v2.11z" fill="#515154"/><path d="M1234.68 167.301l-15.98 7.99v-.45l15.98-7.99v.45z" fill="#1B1B1C"/><path d="M1221.25 174.54l-1.36.67v-.29l1.36-.68v.3zM1222.92 173.7l-1.35.68v-.3l1.35-.68v.3z" fill="#6E6E70"/><path d="M1219.47 175.281c0 .08-.07.18-.15.22-.08.04-.15.01-.15-.07s.07-.18.15-.22c.08-.04.15-.01.15.07z" fill="#A35B4D"/><path d="M1218.7 176.12l-9.96-4.98v-2.1l9.96 4.98v2.1z" fill="#59595C"/><path d="M1218.19 175.44l-.21-.11v-1.25l.21.1v1.26zM1217.74 175.21l-.22-.11v-1.25l.22.11v1.25zM1217.28 174.98l-.21-.1v-1.26l.21.11v1.25zM1216.83 174.76l-.22-.11v-1.26l.22.11v1.26zM1216.37 174.53l-.21-.11v-1.25l.21.1v1.26z" fill="#1B1B1C"/><path d="M1351.37 179.41l-51.46-25.73V68.16l51.46 25.74v85.51z" fill="#fff"/><path d="M1348.33 175.26l-45.38-22.7V72.32l45.38 22.69v80.25z" fill="url(#paint19_linear)"/><path d="M1352.88 178.661l-1.51.75v-85.51l1.51-.76v85.52z" fill="#EBEBEB"/><path d="M1299.91 68.16l1.51-.76 51.46 25.74-1.51.76-51.46-25.74z" fill="#fff"/><path d="M1348.33 175.26l-45.38-22.7 3.13-1.57 42.25 21.13v3.14z" fill="#EBEBEB"/><path d="M1326.39 164.301v-80.24l3.14 1.57v77.1l-3.14 1.57zM1302.95 152.56V72.32l3.13 1.56v77.11l-3.13 1.57z" fill="#EBEBEB"/><path d="M1323.25 162.73V82.49l3.14 1.57v80.24l-3.14-1.57z" fill="#fff"/><path d="M1179 167.94l-8.9 4.45-6.23-3.06 8.89-4.45 6.24 3.06z" fill="#727275"/><path d="M1170.1 235.31l-6.23-3.06v-62.92l6.23 3.06v62.92z" fill="url(#paint20_linear)"/><path d="M1179 230.859l-8.9 4.45v-62.92l8.9-4.45v62.92z" fill="url(#paint21_linear)"/><path d="M1170.65 172.73l7.79-3.89v61.67l-7.79 3.9v-61.68z" fill="url(#paint22_linear)"/><mask id="e" maskUnits="userSpaceOnUse" x="1170" y="167" width="10" height="56"><path d="M1179 218.549l-8.9 4.44v-50.6l8.9-4.45v50.61z" fill="url(#paint23_linear)"/></mask><g mask="url(#e)"><path d="M1179 218.549l-8.9 4.44v-50.6l8.9-4.45v50.61z" fill="url(#paint24_linear)"/><path d="M1178.2 176.64c0 1.96-1.59 4.34-3.55 5.32-1.96.98-3.55.19-3.55-1.77s1.59-4.34 3.55-5.32c1.96-.98 3.55-.19 3.55 1.77z" fill="#8A8995"/><path d="M1177.58 176.95c0 1.62-1.31 3.59-2.93 4.4-1.62.81-2.93.15-2.93-1.47 0-1.62 1.31-3.59 2.93-4.4 1.62-.8 2.93-.15 2.93 1.47z" fill="#5E5D65"/><path d="M1176.16 179.623c1.07-1.363 1.25-2.993.42-3.642-.83-.65-2.37-.071-3.43 1.291-1.06 1.363-1.25 2.994-.42 3.643.83.649 2.37.071 3.43-1.292z" fill="#DEDCDE"/><path d="M1175.8 180.01c-.34.35-.73.65-1.15.86-.39.2-.77.29-1.1.29v-2.54l1.1-.53 1.15 1.92z" fill="#F3F1F2"/><path d="M1174.97 177.679c0 .45-.37 1-.82 1.22-.45.23-.82.04-.82-.41 0-.45.37-1 .82-1.22.45-.22.82-.04.82.41z" fill="#5E5D65"/><path d="M1178.2 187.53c0 1.96-1.59 4.34-3.55 5.32-1.96.98-3.55.19-3.55-1.77s1.59-4.34 3.55-5.32c1.96-.98 3.55-.19 3.55 1.77z" fill="#8A8995"/><path d="M1177.58 187.839c0 1.62-1.31 3.59-2.93 4.4-1.62.81-2.93.15-2.93-1.47 0-1.62 1.31-3.59 2.93-4.4 1.62-.8 2.93-.15 2.93 1.47z" fill="#5E5D65"/><path d="M1177.09 188.079c0 .94-.53 2.01-1.3 2.81-.34.35-.73.65-1.15.86-.39.2-.77.29-1.1.29-.8 0-1.35-.56-1.35-1.51 0-1.35 1.1-2.99 2.45-3.67 1.36-.68 2.45-.13 2.45 1.22z" fill="#DEDCDE"/><path d="M1175.8 190.899c-.34.35-.73.65-1.15.86-.39.2-.77.29-1.1.29v-2.54l1.1-.53 1.15 1.92z" fill="#F3F1F2"/><path d="M1174.97 188.57c0 .45-.37 1-.82 1.22-.45.23-.82.04-.82-.41 0-.45.37-1 .82-1.22.45-.23.82-.04.82.41z" fill="#5E5D65"/><path d="M1177.09 197.919c0 1.35-1.1 2.99-2.45 3.67-1.35.68-2.45.13-2.45-1.22s1.1-2.99 2.45-3.67c1.36-.68 2.45-.13 2.45 1.22z" fill="#7D7A86"/><path d="M1176.67 198.129c0 1.12-.9 2.47-2.02 3.03-1.12.56-2.02.11-2.02-1.01s.9-2.47 2.02-3.03c1.11-.56 2.02-.1 2.02 1.01z" fill="#5E5D65"/><path d="M1176.34 198.299c0 .93-.76 2.06-1.69 2.53-.93.47-1.69.09-1.69-.84 0-.93.76-2.06 1.69-2.53.93-.47 1.69-.09 1.69.84z" fill="#000"/><path d="M1171.78 185.12c0 .17-.14.38-.31.46-.17.09-.31.02-.31-.15 0-.17.14-.38.31-.46.17-.09.31-.02.31.15zM1177.95 182.03c0 .17-.14.38-.31.46-.17.09-.31.02-.31-.15 0-.17.14-.38.31-.46.17-.08.31-.02.31.15zM1171.78 196.359c0 .17-.14.38-.31.46-.17.09-.31.02-.31-.15 0-.17.14-.38.31-.46.17-.09.31-.02.31.15zM1177.95 193.279c0 .17-.14.38-.31.46-.17.09-.31.02-.31-.15 0-.17.14-.38.31-.46.17-.09.31-.03.31.15zM1171.78 174.589c0 .17-.14.38-.31.46-.17.09-.31.02-.31-.15 0-.17.14-.38.31-.46.17-.09.31-.02.31.15zM1177.95 171.499c0 .17-.14.38-.31.46-.17.09-.31.02-.31-.15 0-.17.14-.38.31-.46.17-.09.31-.02.31.15z" fill="#45434B"/></g><path d="M1378.77 243.59v-19.98l-39.02-13.28v19.79c0 .31.24.63.72.87l30.08 14.91.58.29c.96.48 2.51.48 3.47 0h.01l3.45-1.73c.47-.24.71-.55.71-.87z" fill="#CF3A27"/><path d="M1374.6 224.721v21.47h-.01c-.96.48-2.51.48-3.47 0l-.58-.29v-21.18h4.06z" fill="#D6463A"/><path d="M1378.05 224.48l-3.46 1.73c-.96.48-2.51.48-3.47 0l-30.66-15.2c-.96-.48-.96-1.26 0-1.73l3.46-1.73c.96-.48 2.51-.48 3.47 0l30.66 15.2c.96.47.96 1.25 0 1.73z" fill="#FF8884"/><path d="M1296.22 278.97l.61-.31 16.97-8.49 51.38-25.7c1.91-.96 1.91-2.51 0-3.46l-18.19-9.1c-1.91-.96-5.01-.96-6.92 0l-47.31 23.66-13.58-6.79c-2.25-1.12-5.9-1.12-8.15 0l-16.97 8.49c-2.25 1.12-2.25 2.95 0 4.07l17.04 8.52 17.58 8.79.61.31c1.92.96 5.02.96 6.93.01z" fill="#EB5E57"/><path d="M1269.93 252.08h-17.54v7.36h17.54v-7.36zM1366.62 235.471h-17.54v7.36h17.54v-7.36z" fill="#EB5E57"/><path d="M1296.22 271.711l.61-.31 16.97-8.49 51.38-25.7c1.91-.96 1.91-2.51 0-3.46l-18.19-9.1c-1.91-.96-5.01-.96-6.92 0l-47.31 23.66-13.58-6.79c-2.25-1.12-5.9-1.12-8.15 0l-16.97 8.49c-2.25 1.12-2.25 2.95 0 4.07l17.04 8.52 17.58 8.79.61.31c1.92.97 5.02.97 6.93.01z" fill="#FF6C61"/><path d="M1365.22 236.411l-18.19 9.1c-1.91.96-5.01.96-6.92 0l-18.19-9.1c-1.91-.96-1.91-2.51 0-3.46l18.19-9.1c1.91-.96 5.01-.96 6.92 0l18.19 9.1c1.91.95 1.91 2.5 0 3.46z" fill="#FF6459"/><path d="M1359.12 227.53h-38.64v6.92h38.64v-6.92z" fill="#FF6459"/><path d="M1366.66 227.53h-11.02v6.92h11.02v-6.92z" fill="#FF6459"/><path d="M1365.22 229.22l-18.19 9.1c-1.91.96-5.01.96-6.92 0l-18.19-9.1c-1.91-.96-1.91-2.51 0-3.46l18.19-9.1c1.91-.96 5.01-.96 6.92 0l18.19 9.1c1.91.95 1.91 2.5 0 3.46z" fill="#FF6D63"/><path d="M1332.44 227.09c.48.24.48.63 0 .87s-1.25.24-1.73 0-.48-.63 0-.87 1.25-.24 1.73 0zM1344.51 221.05c.48.24.48.63 0 .87s-1.25.24-1.73 0-.48-.63 0-.87 1.26-.24 1.73 0zM1344.43 233.09c.48.24.48.63 0 .87s-1.25.24-1.73 0-.48-.63 0-.87 1.25-.24 1.73 0zM1356.51 227.05c.48.24.48.63 0 .87s-1.25.24-1.73 0-.48-.63 0-.87c.47-.24 1.25-.24 1.73 0zM1344.47 227.071c.48.24.48.63 0 .87s-1.25.24-1.73 0-.48-.63 0-.87 1.25-.24 1.73 0z" fill="#EB5E57"/><path d="M1339.47 249.111l-18.19 9.1c-1.91.96-5.01.96-6.92 0l-18.19-9.1c-1.91-.96-1.91-2.51 0-3.46l18.19-9.1c1.91-.96 5.01-.96 6.92 0l18.19 9.1c1.91.95 1.91 2.5 0 3.46z" fill="#FF6459"/><path d="M1333.37 240.221h-38.64v6.92h38.64v-6.92z" fill="#FF6459"/><path d="M1340.9 240.221h-11.02v6.92h11.02v-6.92z" fill="#FF6459"/><path d="M1339.47 241.921l-18.19 9.1c-1.91.96-5.01.96-6.92 0l-18.19-9.1c-1.91-.96-1.91-2.51 0-3.46l18.19-9.1c1.91-.96 5.01-.96 6.92 0l18.19 9.1c1.91.95 1.91 2.5 0 3.46z" fill="#FF6D63"/><path d="M1306.68 239.79c.48.24.48.63 0 .87s-1.25.24-1.73 0-.48-.63 0-.87 1.26-.24 1.73 0zM1318.76 233.75c.48.24.48.63 0 .87s-1.25.24-1.73 0-.48-.63 0-.87c.47-.24 1.25-.24 1.73 0zM1318.68 245.79c.48.24.48.63 0 .87s-1.25.24-1.73 0-.48-.63 0-.87c.47-.24 1.25-.24 1.73 0zM1330.75 239.75c.48.24.48.63 0 .87s-1.25.24-1.73 0-.48-.63 0-.87 1.25-.24 1.73 0zM1318.72 239.771c.48.24.48.63 0 .87s-1.25.24-1.73 0-.48-.63 0-.87 1.25-.24 1.73 0z" fill="#EB5E57"/><path d="M1288.69 270.7l-34.62-17.31c-2.25-1.12-2.25-2.95 0-4.07l16.97-8.49c2.25-1.12 5.9-1.12 8.15 0l34.62 17.31c2.25 1.12 2.25 2.95 0 4.07l-16.97 8.49c-2.25 1.12-5.9 1.12-8.15 0z" fill="#FF6459"/><path d="M1259.45 245.011h-7.06v6.35h7.06v-6.35zM1315.49 253.65h-7.06V260h7.06v-6.35z" fill="#FF6459"/><path d="M1288.69 264.11l-34.62-17.31c-2.25-1.12-2.25-2.95 0-4.07l16.97-8.49c2.25-1.12 5.9-1.12 8.15 0l34.62 17.31c2.25 1.12 2.25 2.95 0 4.07l-16.97 8.49c-2.25 1.13-5.9 1.13-8.15 0z" fill="#FF6D63"/><path d="M1294.37 259.561c.48.24.48.63 0 .87s-1.25.24-1.73 0-.48-.63 0-.87c.47-.24 1.25-.24 1.73 0zM1306.44 253.531c.48.24.48.63 0 .87s-1.25.24-1.73 0-.48-.63 0-.87 1.25-.24 1.73 0zM1278.77 251.76c.48.24.48.63 0 .87s-1.25.24-1.73 0-.48-.63 0-.87 1.25-.24 1.73 0zM1290.84 245.72c.48.24.48.63 0 .87s-1.25.24-1.73 0-.48-.63 0-.87 1.25-.24 1.73 0zM1262.3 245c.68 0 1.23-.273 1.23-.61 0-.337-.55-.61-1.23-.61-.68 0-1.23.273-1.23.61 0 .337.55.61 1.23.61zM1275.24 237.92c.48.24.48.63 0 .87s-1.25.24-1.73 0-.48-.63 0-.87 1.25-.24 1.73 0zM1277 244.84c.48.24.48.63 0 .87s-1.25.24-1.73 0-.48-.63 0-.87 1.26-.24 1.73 0zM1292.6 252.64c.48.24.48.63 0 .87s-1.25.24-1.73 0-.48-.63 0-.87 1.26-.24 1.73 0z" fill="#EB5E57"/><path d="M1352.07 210.931s-3.66 1.3-6.4 4.36c-2.73 3.06-4.59 6.25-5.01 6.81-.42.56.28.98 1.16 1.39.88.42 4.87 4.17 5.42 4.87.56.7 17.43-8.71 17.43-8.71s-3.57-3.06-6.3-5.1c-2.73-2.04-6.3-3.62-6.3-3.62z" fill="url(#paint25_linear)"/><path d="M1278.03 254.12s-.06-4.2-.49-5.86c-.43-1.66 4.23-.28 9.9 1.85 6.21 2.33 9.09 4.62 9.09 4.62l.83 8.22-19.33-8.83z" fill="url(#paint26_linear)"/><path d="M1374.25 245.98V216.7l-80.75 34.67v29.27c0 .31.24.63.72.87l3.45 1.73c.06.03.14.06.21.09.91.37 2.22.36 3.11-.02.05-.02.1-.04.15-.07l72.42-36.22c.57-.27.8-.66.69-1.04z" fill="#CF3A27"/><path d="M1301 253.69v29.63c-.89.38-6.59-2.02-7.49-2.39v-29.65l7.49 2.41z" fill="#F45748"/><path d="M1297.68 253.971l-3.46-1.73c-.96-.48-.96-1.26 0-1.73l72.42-36.22c.96-.48 2.51-.48 3.47 0l3.46 1.73c.96.48.96 1.26 0 1.73l-72.42 36.22c-.96.48-2.52.48-3.47 0z" fill="#FF8E89"/><path d="M1299.94 263.89v19.98c0 .31-.24.63-.72.87l-3.45 1.73h-.01c-.55.28-1.3.39-2.02.35-.53-.03-1.04-.15-1.45-.35l-.58-.29-44.65-22.38c-.48-.24-.72-.55-.72-.86v-19.79l50.25 19.46 3.35 1.28z" fill="#CF3A27"/><mask id="f" maskUnits="userSpaceOnUse" x="1293" y="262" width="7" height="25"><path d="M1299.94 263.891v19.98c0 .31-.24.63-.72.87l-3.45 1.73h-.01c-.55.28-1.3.39-2.02.35v-24.22h2.86l3.34 1.29z" fill="url(#paint27_linear)"/></mask><g mask="url(#f)"><path d="M1299.94 263.891v19.98c0 .31-.24.63-.72.87l-3.45 1.73h-.01c-.55.28-1.3.39-2.02.35v-24.22h2.86l3.34 1.29z" fill="#CF3A27"/><path d="M1299.23 264.76l-3.46 1.73c-.96.48-2.51.48-3.47 0l-45.23-22.67c-.96-.48-.96-1.26 0-1.73l3.46-1.73c.96-.48 2.51-.48 3.47 0l45.23 22.67c.95.47.95 1.25 0 1.73z" fill="#FF8884"/></g><path d="M1236.03 261.96l-9.34 4.67-9.34-4.67 9.34-4.67 9.34 4.67z" fill="#B99989"/><path d="M1238.54 247.71l-11.85 5.92-11.84-5.92 11.84-5.93 11.85 5.93z" fill="#FFF6EE"/><path d="M1217.35 247.71l9.34-4.67 9.35 4.67-9.35 4.67-9.34-4.67z" fill="#9B6944"/><path d="M1226.69 266.63v-13l11.85-5.92-2.51 14.25-9.34 4.67z" fill="#B99989"/><path d="M1214.85 247.71l2.5 14.25 9.34 4.67v-13l-11.84-5.92z" fill="#DAB5A1"/><path d="M1222.24 244.33s-.62-2.61-.16-4.82c.46-2.2 1.25-3.65 1.6-6.56.36-3.02.36-4.73.36-4.73s1.18 2.16 1.64 5.58c.46 3.42.49 7.81.49 7.81l-3.93 2.72z" fill="url(#paint28_linear)"/><path d="M1226.69 248.07l3.47-1.65s1.46-8.39 1.01-11.87c-.46-3.49-2.66-8.47-2.66-8.47s-.03 5.14-.21 8.41c-.18 3.26-1.61 13.58-1.61 13.58z" fill="url(#paint29_linear)"/><path d="M1227.71 251.87s1.11-3.94 2.91-10.47c1.8-6.53-.89-14.18-.89-14.18s3.86 5.4 4.15 9.74c.29 4.34-1.83 12.63-1.83 12.63l-4.34 2.28z" fill="url(#paint30_linear)"/><path d="M1226.69 252.38l1.99-1s-.59-5.9-.14-9.6c.73-5.98-2.41-12.98-2.41-12.98s.24 3.88.27 5.8c.03 1.92-.98 7.23-1.5 10.47v6.41l1.79.9z" fill="url(#paint31_linear)"/><path d="M1222.17 249.6s-1.23-3.36-1.01-6.07c.22-2.72 2.35-4.52 2.5-7.2.15-2.69-.82-5.01-.82-5.01s2.06 2.87 2.07 6.01c.01 3.14-1.24 8.7-.88 10.93.37 2.23.88 3.23.88 3.23l-2.74-1.89z" fill="url(#paint32_linear)"/><path d="M1226.69 252.38s-.07-3.25.48-7.55c.71-5.57 3.39-11.26 4.75-14.37 1.36-3.11 2.49-4.38 2.49-4.38s-3.18 14.47-3.9 17.8c-.96 4.43-.31 6.74-.31 6.74l-3.51 1.76z" fill="url(#paint33_linear)"/><path d="M1217.8 247.93s.53-1.99-.45-4.9c-2.23-6.62.64-13.74.64-13.74s.02 6.72 1.49 10.44c.91 2.3.63 5.63.63 6.59-.01.96 0 2.76 0 2.76l-2.31-1.15z" fill="url(#paint34_linear)"/><path d="M1236.04 247.71s-.32-4.19 1.79-10.08c1.03-2.89-.82-5.62-.82-5.62s-.53 5.37-2.2 8.64c-1.65 3.22-.98 1.87-1.53 4.99-.24 1.37 0 3.45 0 3.45l2.76-1.38z" fill="url(#paint35_linear)"/><path d="M1223.4 250.73s-2.73-4.51-.38-11.26c1.32-3.78-2.91-11.26-2.91-11.26s1.31 4.4.5 8.12c-.62 2.83-1.71 6.86-1.71 8.41 0 1.56.69 4.08.69 4.08l3.81 1.91z" fill="url(#paint36_linear)"/><path d="M1224.7 251.391s-2.6-5.26-3.4-9.9c-.8-4.64-1.19-7.93-1.19-7.93v9.48c0 4.07 1.51 6.81 1.51 6.81l3.08 1.54z" fill="url(#paint37_linear)"/><path d="M1226.69 252.38s-1.16-3.32-.88-7.33c.28-4.01.29-6.53-.04-9.33-.33-2.8.46-5.13.46-5.13s-2.38 3.08-2 6.62c.37 3.54-1.09 9.06-1.11 10.49-.02 1.49.57 3.17.57 3.17l3 1.51z" fill="url(#paint38_linear)"/><path d="M1230.87 250.29l.71-.36 2.98-1.49s-.66-3.1 1.12-9.5c1.1-3.94-1.77-7.94-1.77-7.94s.42 4.72-.97 8.06c-1.32 3.18-1.74 6.01-2.07 7.9-.33 1.91 0 3.33 0 3.33z" fill="url(#paint39_linear)"/><path d="M1200.75 184.449l-4.51 2.26-1.48-.08-3.04-2.18 4.52-2.26 4.51 2.26z" fill="#E7C2AB"/><path d="M1198.32 184.85l-3.56 1.78-3.57-1.78 3.57-1.78 3.56 1.78z" fill="#B99989"/><path d="M1199.27 179.41l-4.51 2.26-4.52-2.26 4.52-2.26 4.51 2.26z" fill="#FFF6EE"/><path d="M1191.19 179.41l3.57-1.78 3.56 1.78-3.56 1.78-3.57-1.78z" fill="#9B6944"/><path d="M1194.76 186.63v-4.96l4.51-2.26-.95 5.44-3.56 1.78z" fill="#B99989"/><path d="M1190.24 179.41l.95 5.44 3.57 1.78v-4.96l-4.52-2.26z" fill="#DAB5A1"/><path d="M1196.57 178.11s.24-1 .06-1.84c-.17-.84-.48-3.87-.61-4.98-.14-1.15-.14-1.8-.14-1.8s-.45.82-.63 2.13c-.17 1.3-.19 5.46-.19 5.46l1.51 1.03z" fill="url(#paint40_linear)"/><path d="M1194.87 179.53l-1.32-.63s-.56-5.68-.38-7c.17-1.33 1.01-3.23 1.01-3.23s.01 1.96.08 3.21c.07 1.24.61 7.65.61 7.65z" fill="url(#paint41_linear)"/><path d="M1194.48 180.98s-.42-1.5-1.11-3.99c-.69-2.49.34-7.88.34-7.88s-1.47 2.06-1.58 3.71c-.11 1.65.7 7.29.7 7.29l1.65.87z" fill="url(#paint42_linear)"/><path d="M1194.87 181.18l-.76-.38s.23-2.25.05-3.66c-.28-2.28.92-7.43.92-7.43s-.09 1.48-.1 2.21c-.01.73.37 5.24.57 6.47v2.44l-.68.35z" fill="url(#paint43_linear)"/><path d="M1196.6 180.12s.47-1.28.38-2.32c-.09-1.04-.9-4.2-.95-5.22-.06-1.02.31-1.91.31-1.91s-.79 1.09-.79 2.29.47 5.79.33 6.64c-.14.85-.33 1.23-.33 1.23l1.05-.71z" fill="url(#paint44_linear)"/><path d="M1194.87 181.18s.03-1.24-.18-2.88c-.27-2.12-1.29-6.77-1.81-7.96-.52-1.19-.95-1.67-.95-1.67s1.21 8 1.49 9.27c.37 1.69.12 2.57.12 2.57l1.33.67z" fill="url(#paint45_linear)"/><path d="M1198.26 179.48s-.2-.76.17-1.87c.85-2.53-.12-4.7-.12-4.7s-.14 2.02-.7 3.44c-.35.88-.24 2.15-.24 2.51v1.05l.89-.43z" fill="url(#paint46_linear)"/><path d="M1191.31 179.4s.38-1.17-.43-3.42c-.39-1.1.31-2.14.31-2.14s.96 3.58 1.17 4.77c.09.52 0 1.32 0 1.32l-1.05-.53z" fill="url(#paint47_linear)"/><path d="M1196.13 180.55s1.04-1.72.14-4.29c-.5-1.44 1.11-6.77 1.11-6.77s-.5 1.68-.19 3.1c.24 1.08.65 5.09.65 5.69 0 .59-.26 1.55-.26 1.55l-1.45.72z" fill="url(#paint48_linear)"/><path d="M1195.63 180.8s.99-2.01 1.3-3.78c.31-1.77.45-5.5.45-5.5v6.09c0 1.55-.58 2.6-.58 2.6l-1.17.59z" fill="url(#paint49_linear)"/><path d="M1194.87 181.18s.23-7.76.35-8.83c.12-1.07-.18-1.96-.18-1.96s.91 1.17.76 2.53c-.14 1.35.42 5.93.42 6.48.01.57-.22 1.21-.22 1.21l-1.13.57z" fill="url(#paint50_linear)"/><path d="M1193.28 180.38l-.27-.14-1.14-.57s.25-3.66-.43-6.1c-.42-1.5.68-3.03.68-3.03s-.16 1.8.37 3.08c.51 1.21.66 4.77.79 5.49.13.73 0 1.27 0 1.27z" fill="url(#paint51_linear)"/><path d="M1258.32 156.09l-4.51 2.25-1.48-.07-3.04-2.18 4.52-2.26 4.51 2.26z" fill="#E7C2AB"/><path d="M1255.89 156.48l-3.56 1.79-3.57-1.79 3.57-1.78 3.56 1.78z" fill="#B99989"/><path d="M1256.84 151.05l-4.51 2.26-4.52-2.26 4.52-2.26 4.51 2.26z" fill="#FFF6EE"/><path d="M1248.76 151.051l3.57-1.78 3.56 1.78-3.56 1.78-3.57-1.78z" fill="#9B6944"/><path d="M1252.33 158.27v-4.96l4.51-2.26-.95 5.43-3.56 1.79z" fill="#B99989"/><path d="M1247.81 151.05l.95 5.43 3.57 1.79v-4.96l-4.52-2.26z" fill="#DAB5A1"/><path d="M1254.04 149.75s.24-1 .06-1.84c-.17-.84-.48-3.87-.61-4.98-.14-1.15-.14-1.8-.14-1.8s-.45.82-.63 2.13c-.17 1.3-.19 5.46-.19 5.46l1.51 1.03z" fill="url(#paint52_linear)"/><path d="M1252.18 151.31l-1.32-.63s-.56-5.68-.38-7c.17-1.33 1.01-3.23 1.01-3.23s.01 1.96.08 3.21c.07 1.24.61 7.65.61 7.65z" fill="url(#paint53_linear)"/><path d="M1251.95 152.62s-.42-1.5-1.11-3.99c-.69-2.49-.29-6.02-.29-6.02s-.85.19-.96 1.85c-.11 1.65.7 7.29.7 7.29l1.66.87z" fill="url(#paint54_linear)"/><path d="M1252.34 152.821l-.76-.38s.23-2.25.05-3.66c-.28-2.28.92-7.43.92-7.43s-.09 1.48-.1 2.21c-.01.73.37 5.24.57 6.47v2.44l-.68.35z" fill="url(#paint55_linear)"/><path d="M1254.07 151.75s.47-1.28.38-2.32c-.09-1.04-.9-4.2-.95-5.22-.06-1.02.31-1.91.31-1.91s-.79 1.09-.79 2.29.47 5.79.33 6.64c-.14.85-.33 1.23-.33 1.23l1.05-.71z" fill="url(#paint56_linear)"/><path d="M1252.34 152.821s.03-1.24-.18-2.88c-.27-2.12-.86-3.48-1.38-4.67-.52-1.19-.95-1.67-.95-1.67s.99 3.71 1.23 5.86c.19 1.72-.05 2.68-.05 2.68l1.33.68z" fill="url(#paint57_linear)"/><path d="M1255.73 151.12s-.2-.76.17-1.87c.85-2.53-.12-4.7-.12-4.7s-.14 2.02-.7 3.44c-.35.88-.24 2.15-.24 2.51v1.05l.89-.43z" fill="url(#paint58_linear)"/><path d="M1248.78 151.03s.38-1.17-.43-3.42c-.39-1.1.31-2.14.31-2.14s.15 2.07 1.17 4.77c.19.5 0 1.32 0 1.32l-1.05-.53z" fill="url(#paint59_linear)"/><path d="M1253.6 152.19s-.29-1.41-.36-4.13c-.04-1.68 1.61-6.93 1.61-6.93s-.58 4.85-.27 6.26c.24 1.08.73 1.92.73 2.52 0 .59-.26 1.56-.26 1.56l-1.45.72z" fill="url(#paint60_linear)"/><path d="M1253.58 152.191s.7-1.9 1-3.67c.31-1.77.25-4.92.25-4.92s.49 3.73.49 4.73c0 1.55-.58 3.28-.58 3.28l-1.16.58z" fill="url(#paint61_linear)"/><path d="M1252.34 152.82s.6-2.91.19-7.71c-.09-1.07-.02-3.08-.02-3.08s.53 1.19.76 2.53c.25 1.44.64 2.1.42 6.48-.03.57-.22 1.21-.22 1.21l-1.13.57z" fill="url(#paint62_linear)"/><path d="M1250.75 152.021l-.27-.14-1.14-.57s.25-3.66-.43-6.1c-.42-1.5.68-3.03.68-3.03s-.19 3.92 1.16 8.56c.2.72 0 1.28 0 1.28z" fill="url(#paint63_linear)"/><path opacity=".55" d="M1271.35 289.71l8.99-4.5-11.85-5.93-8.41 5.93 9 4.5h2.27z" fill="#817F7F"/><path d="M1277.48 283.85l-8.99 4.49-8.98-4.49 8.98-4.49 8.99 4.49z" fill="#9B787A"/><path d="M1268.49 289.841v-1.5l8.99-4.49v1.5l-8.99 4.49z" fill="#6E4A4C"/><path d="M1259.51 285.351v-1.5l8.98 4.49v1.5l-8.98-4.49z" fill="#865D5F"/><path d="M1269.41 283.391c.51.25.51.66 0 .92-.51.25-1.33.25-1.83 0-.51-.25-.51-.66 0-.92.5-.25 1.32-.25 1.83 0z" fill="#6E4A4C"/><path d="M1269.79 274.86h-2.59v8.99h2.59v-8.99z" fill="#6E4A4C"/><path d="M1269.79 274.86h-2.59v8.99h2.59v-8.99z" fill="url(#paint64_linear)"/><path d="M1268.49 278.321l-8.98-4.49v-38.02l8.98 4.49v38.02z" fill="#fff"/><mask id="g" maskUnits="userSpaceOnUse" x="1260" y="249" width="8" height="16"><path d="M1267.93 259.031c0 4.04-1.76 6.45-3.92 5.36-2.17-1.08-3.92-5.24-3.92-9.29 0-4.04 1.76-6.45 3.92-5.36 2.16 1.08 3.92 5.24 3.92 9.29z" fill="url(#paint65_radial)"/></mask><g mask="url(#g)"><path d="M1267.93 259.031c0 4.04-1.76 6.45-3.92 5.36-2.17-1.08-3.92-5.24-3.92-9.29 0-4.04 1.76-6.45 3.92-5.36 2.16 1.08 3.92 5.24 3.92 9.29z" fill="url(#paint66_radial)"/></g><path d="M1277.48 273.831l-8.99 4.49v-38.02l8.99-4.49v38.02z" fill="#FFF5EB"/><mask id="h" maskUnits="userSpaceOnUse" x="1269" y="249" width="8" height="16"><path d="M1276.91 255.1c0 4.04-1.76 8.2-3.92 9.29-2.17 1.08-3.92-1.32-3.92-5.36s1.76-8.2 3.92-9.29c2.16-1.08 3.92 1.32 3.92 5.36z" fill="url(#paint67_radial)"/></mask><g mask="url(#h)"><path d="M1276.91 255.1c0 4.04-1.76 8.2-3.92 9.29-2.17 1.08-3.92-1.32-3.92-5.36s1.76-8.2 3.92-9.29c2.16-1.08 3.92 1.32 3.92 5.36z" fill="url(#paint68_radial)"/></g><path d="M1277.48 235.81l-8.99 4.49-8.98-4.49 8.98-4.49 8.99 4.49z" fill="#fff"/><path d="M1268.49 240.3l-8.98-4.49 8.98-4.49v8.98z" fill="#FFF5EB"/><g opacity=".5"><path opacity=".5" d="M1268.49 243.13l-8.98-4.49v-1.16l8.98 4.49v1.16z" fill="#FFF5EB"/><path opacity=".5" d="M1277.48 238.64l-8.99 4.49v-1.16l8.99-4.49v1.16z" fill="#F0D2B6"/></g><g opacity=".5"><path opacity=".5" d="M1268.49 245.28l-8.98-4.49v-1.16l8.98 4.49v1.16z" fill="#FFF5EB"/><path opacity=".5" d="M1277.48 240.79l-8.99 4.49v-1.16l8.99-4.49v1.16z" fill="#F0D2B6"/></g><g opacity=".5"><path opacity=".5" d="M1268.49 247.43l-8.98-4.49v-1.16l8.98 4.49v1.16z" fill="#FFF5EB"/><path opacity=".5" d="M1277.48 242.94l-8.99 4.49v-1.16l8.99-4.49v1.16z" fill="#F0D2B6"/></g><g opacity=".5"><path opacity=".5" d="M1268.49 249.581l-8.98-4.49v-1.16l8.98 4.49v1.16z" fill="#FFF5EB"/><path opacity=".5" d="M1277.48 245.091l-8.99 4.49v-1.16l8.99-4.49v1.16z" fill="#F0D2B6"/></g><g opacity=".5"><path opacity=".5" d="M1268.49 251.73l-8.98-4.49v-1.16l8.98 4.5v1.15z" fill="#FFF5EB"/><path opacity=".5" d="M1277.48 247.24l-8.99 4.49v-1.15l8.99-4.5v1.16z" fill="#F0D2B6"/></g><g opacity=".5"><path opacity=".5" d="M1268.49 253.89l-8.98-4.49v-1.16l8.98 4.49v1.16z" fill="#FFF5EB"/><path opacity=".5" d="M1277.48 249.4l-8.99 4.49v-1.16l8.99-4.49v1.16z" fill="#F0D2B6"/></g><g opacity=".5"><path opacity=".5" d="M1268.49 256.041l-8.98-4.49v-1.16l8.98 4.49v1.16z" fill="#FFF5EB"/><path opacity=".5" d="M1277.48 251.551l-8.99 4.49v-1.16l8.99-4.49v1.16z" fill="#F0D2B6"/></g><g opacity=".5"><path opacity=".5" d="M1268.49 258.19l-8.98-4.49v-1.16l8.98 4.49v1.16z" fill="#FFF5EB"/><path opacity=".5" d="M1277.48 253.7l-8.99 4.49v-1.16l8.99-4.49v1.16z" fill="#F0D2B6"/></g><g opacity=".5"><path opacity=".5" d="M1268.49 260.34l-8.98-4.49v-1.16l8.98 4.49v1.16z" fill="#FFF5EB"/><path opacity=".5" d="M1277.48 255.85l-8.99 4.49v-1.16l8.99-4.49v1.16z" fill="#F0D2B6"/></g><g opacity=".5"><path opacity=".5" d="M1268.49 262.49l-8.98-4.49v-1.16l8.98 4.49v1.16z" fill="#FFF5EB"/><path opacity=".5" d="M1277.48 258l-8.99 4.49v-1.16l8.99-4.49V258z" fill="#F0D2B6"/></g><g opacity=".5"><path opacity=".5" d="M1268.49 264.64l-8.98-4.49v-1.16l8.98 4.49v1.16z" fill="#FFF5EB"/><path opacity=".5" d="M1277.48 260.15l-8.99 4.49v-1.16l8.99-4.49v1.16z" fill="#F0D2B6"/></g><g opacity=".5"><path opacity=".5" d="M1268.49 266.8l-8.98-4.5v-1.15l8.98 4.49v1.16z" fill="#FFF5EB"/><path opacity=".5" d="M1277.48 262.3l-8.99 4.5v-1.16l8.99-4.49v1.15z" fill="#F0D2B6"/></g><g opacity=".5"><path opacity=".5" d="M1268.49 268.951l-8.98-4.49v-1.16l8.98 4.49v1.16z" fill="#FFF5EB"/><path opacity=".5" d="M1277.48 264.461l-8.99 4.49v-1.16l8.99-4.49v1.16z" fill="#F0D2B6"/></g><g opacity=".5"><path opacity=".5" d="M1268.49 271.1l-8.98-4.49v-1.16l8.98 4.49v1.16z" fill="#FFF5EB"/><path opacity=".5" d="M1277.48 266.61l-8.99 4.49v-1.16l8.99-4.49v1.16z" fill="#F0D2B6"/></g><g opacity=".5"><path opacity=".5" d="M1268.49 273.251l-8.98-4.49v-1.16l8.98 4.49v1.16z" fill="#FFF5EB"/><path opacity=".5" d="M1277.48 268.761l-8.99 4.49v-1.16l8.99-4.49v1.16z" fill="#F0D2B6"/></g><g opacity=".5"><path opacity=".5" d="M1268.49 275.4l-8.98-4.49v-1.16l8.98 4.49v1.16z" fill="#FFF5EB"/><path opacity=".5" d="M1277.48 270.91l-8.99 4.49v-1.16l8.99-4.49v1.16z" fill="#F0D2B6"/></g><g opacity=".5"><path opacity=".5" d="M1268.49 277.55l-8.98-4.49v-1.16l8.98 4.49v1.16z" fill="#FFF5EB"/><path opacity=".5" d="M1277.48 273.06l-8.99 4.49v-1.16l8.99-4.49v1.16z" fill="#F0D2B6"/></g><path d="M1268.49 231.95l7.73 3.87-7.73 3.87-7.73-3.87 7.73-3.87zm0-.63l-8.98 4.49 8.98 4.49 8.98-4.49-8.98-4.49z" fill="#FFFFFD"/><defs><filter id="filter0_d" x="-4" y="-2" width="1608" height="408" filterUnits="userSpaceOnUse" color-interpolation-filters="sRGB"><feFlood flood-opacity="0" result="BackgroundImageFix"/><feColorMatrix in="SourceAlpha" values="0 0 0 0 0 0 0 0 0 0 0 0 0 0 0 0 0 0 127 0"/><feOffset dy="2"/><feGaussianBlur stdDeviation="2"/><feColorMatrix values="0 0 0 0 0 0 0 0 0 0 0 0 0 0 0 0 0 0 0.08 0"/><feBlend in2="BackgroundImageFix" result="effect1_dropShadow"/><feBlend in="SourceGraphic" in2="effect1_dropShadow" result="shape"/></filter><linearGradient id="paint0_linear" x1="1423.75" y1="235.929" x2="1423.75" y2="105.238" gradientUnits="userSpaceOnUse"><stop stop-color="#37829A"/><stop offset="1" stop-color="#2E6F83"/></linearGradient><linearGradient id="paint1_linear" x1="1144.5" y1="235.664" x2="1144.5" y2="105.076" gradientUnits="userSpaceOnUse"><stop stop-color="#3A879E"/><stop offset="1" stop-color="#4399B4"/></linearGradient><linearGradient id="paint2_linear" x1="1148.99" y1="136.646" x2="1293.11" y2="136.646" gradientUnits="userSpaceOnUse"><stop stop-color="#4494AD"/><stop offset="1" stop-color="#3A8195"/></linearGradient><linearGradient id="paint3_linear" x1="1285.96" y1="172.029" x2="1417.41" y2="106.289" gradientUnits="userSpaceOnUse"><stop stop-color="#489AB1"/><stop offset="1" stop-color="#52ACC7"/></linearGradient><linearGradient id="paint4_linear" x1="1181.61" y1="193.275" x2="1251.39" y2="193.275" gradientUnits="userSpaceOnUse"><stop stop-color="#2E6D82"/><stop offset="1" stop-color="#255B6C"/></linearGradient><linearGradient id="paint5_linear" x1="1269.74" y1="183.605" x2="1269.74" y2="117.63" gradientUnits="userSpaceOnUse"><stop stop-color="#565659"/><stop offset=".987" stop-color="#666669"/></linearGradient><linearGradient id="paint6_linear" x1="1277.31" y1="116.238" x2="1277.31" y2="183.604" gradientUnits="userSpaceOnUse"><stop offset=".013" stop-color="#47474C"/><stop offset="1" stop-color="#1D1D1E"/></linearGradient><linearGradient id="paint7_linear" x1="1277.31" y1="117.138" x2="1277.31" y2="182.705" gradientUnits="userSpaceOnUse"><stop offset=".013" stop-color="#545457"/><stop offset="1" stop-color="#434347"/></linearGradient><linearGradient id="paint8_linear" x1="1277.31" y1="116.003" x2="1277.31" y2="159.732" gradientUnits="userSpaceOnUse"><stop offset=".013"/><stop offset=".5" stop-color="#333"/><stop offset="1"/></linearGradient><linearGradient id="paint9_linear" x1="1277.31" y1="116.003" x2="1277.31" y2="159.732" gradientUnits="userSpaceOnUse"><stop offset=".013" stop-color="#fff"/><stop offset=".5" stop-color="#fff"/><stop offset="1" stop-color="#fff"/></linearGradient><linearGradient id="paint10_linear" x1="1282.71" y1="188.546" x2="1287.85" y2="198.833" gradientUnits="userSpaceOnUse"><stop offset=".008" stop-color="#FFCA53"/><stop offset=".619" stop-color="#FFDE6E"/><stop offset="1" stop-color="#FFE788"/></linearGradient><linearGradient id="paint11_linear" x1="1383.58" y1="229.484" x2="1383.58" y2="220.498" gradientUnits="userSpaceOnUse"><stop offset=".051" stop-color="#6E4A4C"/><stop offset=".995" stop-color="#817A59"/></linearGradient><radialGradient id="paint12_radial" cx="0" cy="0" r="1" gradientUnits="userSpaceOnUse" gradientTransform="matrix(6.01633 3.00887 -1.81858 3.6363 1379.09 202.7)"><stop stop-color="#fff"/><stop offset="1"/></radialGradient><radialGradient id="paint13_radial" cx="0" cy="0" r="1" gradientUnits="userSpaceOnUse" gradientTransform="matrix(6.01633 3.00887 -1.81858 3.6363 1379.09 202.7)"><stop stop-color="#fff"/><stop offset="1" stop-color="#fff"/></radialGradient><radialGradient id="paint14_radial" cx="0" cy="0" r="1" gradientUnits="userSpaceOnUse" gradientTransform="matrix(6.01634 -3.00886 1.81857 3.6363 1388.07 202.7)"><stop stop-color="#fff"/><stop offset="1"/></radialGradient><radialGradient id="paint15_radial" cx="0" cy="0" r="1" gradientUnits="userSpaceOnUse" gradientTransform="matrix(6.01634 -3.00886 1.81857 3.6363 1388.07 202.7)"><stop stop-color="#fff"/><stop offset="1" stop-color="#fff"/></radialGradient><linearGradient id="paint16_linear" x1="1232.49" y1="142.484" x2="1197.18" y2="109.712" gradientUnits="userSpaceOnUse"><stop stop-color="#55555C"/><stop offset=".451" stop-color="#656567"/><stop offset=".932" stop-color="#65646C"/></linearGradient><linearGradient id="paint17_linear" x1="1203.35" y1="113.878" x2="1245.58" y2="145.611" gradientUnits="userSpaceOnUse"><stop/><stop offset="1" stop-color="#333"/></linearGradient><linearGradient id="paint18_linear" x1="1203.35" y1="113.878" x2="1245.58" y2="145.611" gradientUnits="userSpaceOnUse"><stop stop-color="#fff"/><stop offset="1" stop-color="#fff"/></linearGradient><linearGradient id="paint19_linear" x1="1307.12" y1="71.17" x2="1340.38" y2="165.659" gradientUnits="userSpaceOnUse"><stop stop-color="#C7E0ED"/><stop offset=".974" stop-color="#BDD8EF"/><stop offset="1" stop-color="#C1DAEF"/></linearGradient><linearGradient id="paint20_linear" x1="1166.98" y1="235.307" x2="1166.98" y2="169.332" gradientUnits="userSpaceOnUse"><stop stop-color="#565659"/><stop offset=".987" stop-color="#666669"/></linearGradient><linearGradient id="paint21_linear" x1="1174.55" y1="167.94" x2="1174.55" y2="235.307" gradientUnits="userSpaceOnUse"><stop offset=".013" stop-color="#47474C"/><stop offset="1" stop-color="#1D1D1E"/></linearGradient><linearGradient id="paint22_linear" x1="1174.55" y1="168.841" x2="1174.55" y2="234.407" gradientUnits="userSpaceOnUse"><stop offset=".013" stop-color="#545457"/><stop offset="1" stop-color="#434347"/></linearGradient><linearGradient id="paint23_linear" x1="1174.55" y1="167.705" x2="1174.55" y2="211.434" gradientUnits="userSpaceOnUse"><stop offset=".013"/><stop offset=".5" stop-color="#333"/><stop offset="1"/></linearGradient><linearGradient id="paint24_linear" x1="1174.55" y1="167.705" x2="1174.55" y2="211.434" gradientUnits="userSpaceOnUse"><stop offset=".013" stop-color="#fff"/><stop offset=".5" stop-color="#fff"/><stop offset="1" stop-color="#fff"/></linearGradient><linearGradient id="paint25_linear" x1="1352.2" y1="220.783" x2="1342.67" y2="212.175" gradientUnits="userSpaceOnUse"><stop offset=".008" stop-color="#FFC55F"/><stop offset=".619" stop-color="#FFDB7E"/><stop offset="1" stop-color="#FFE59A"/></linearGradient><linearGradient id="paint26_linear" x1="1287.88" y1="254.961" x2="1273.98" y2="242.404" gradientUnits="userSpaceOnUse"><stop offset=".008" stop-color="#FFC55F"/><stop offset=".619" stop-color="#FFDB7E"/><stop offset="1" stop-color="#FFE59A"/></linearGradient><linearGradient id="paint27_linear" x1="1293.75" y1="274.715" x2="1299.94" y2="274.715" gradientUnits="userSpaceOnUse"><stop stop-color="#1A1A1A"/><stop offset="1" stop-color="#fff"/></linearGradient><linearGradient id="paint28_linear" x1="1224.04" y1="244.332" x2="1224.04" y2="228.222" gradientUnits="userSpaceOnUse"><stop stop-color="#81810D"/><stop offset="1" stop-color="#585903"/></linearGradient><linearGradient id="paint29_linear" x1="1228.98" y1="248.07" x2="1228.98" y2="226.083" gradientUnits="userSpaceOnUse"><stop stop-color="#888810"/><stop offset="1" stop-color="#616303"/></linearGradient><linearGradient id="paint30_linear" x1="1227.71" y1="239.547" x2="1233.91" y2="239.547" gradientUnits="userSpaceOnUse"><stop stop-color="#888810"/><stop offset="1" stop-color="#616303"/></linearGradient><linearGradient id="paint31_linear" x1="1226.8" y1="252.381" x2="1226.8" y2="228.806" gradientUnits="userSpaceOnUse"><stop stop-color="#888810"/><stop offset="1" stop-color="#616303"/></linearGradient><linearGradient id="paint32_linear" x1="1223.02" y1="251.488" x2="1223.02" y2="231.314" gradientUnits="userSpaceOnUse"><stop stop-color="#A7A914"/><stop offset="1" stop-color="#818308"/></linearGradient><linearGradient id="paint33_linear" x1="1230.55" y1="252.382" x2="1230.55" y2="226.083" gradientUnits="userSpaceOnUse"><stop stop-color="#919211"/><stop offset="1" stop-color="#6C6F05"/></linearGradient><linearGradient id="paint34_linear" x1="1218.33" y1="249.089" x2="1218.33" y2="229.293" gradientUnits="userSpaceOnUse"><stop stop-color="#6C6F05"/><stop offset="1" stop-color="#919211"/></linearGradient><linearGradient id="paint35_linear" x1="1233.17" y1="240.552" x2="1238.14" y2="240.552" gradientUnits="userSpaceOnUse"><stop stop-color="#919211"/><stop offset="1" stop-color="#6C6F05"/></linearGradient><linearGradient id="paint36_linear" x1="1221.15" y1="250.734" x2="1221.15" y2="228.223" gradientUnits="userSpaceOnUse"><stop stop-color="#919211"/><stop offset="1" stop-color="#6C6F05"/></linearGradient><linearGradient id="paint37_linear" x1="1222.4" y1="251.386" x2="1222.4" y2="233.559" gradientUnits="userSpaceOnUse"><stop stop-color="#A7A914"/><stop offset="1" stop-color="#818308"/></linearGradient><linearGradient id="paint38_linear" x1="1224.9" y1="252.381" x2="1224.9" y2="230.594" gradientUnits="userSpaceOnUse"><stop stop-color="#B2B314"/><stop offset="1" stop-color="#8B8F08"/></linearGradient><linearGradient id="paint39_linear" x1="1233.33" y1="250.293" x2="1233.33" y2="231.008" gradientUnits="userSpaceOnUse"><stop stop-color="#A7A914"/><stop offset="1" stop-color="#818308"/></linearGradient><linearGradient id="paint40_linear" x1="1195.89" y1="178.109" x2="1195.89" y2="169.488" gradientUnits="userSpaceOnUse"><stop stop-color="#81810D"/><stop offset="1" stop-color="#585903"/></linearGradient><linearGradient id="paint41_linear" x1="1194" y1="179.534" x2="1194" y2="168.672" gradientUnits="userSpaceOnUse"><stop stop-color="#888810"/><stop offset="1" stop-color="#616303"/></linearGradient><linearGradient id="paint42_linear" x1="1194.48" y1="175.046" x2="1192.12" y2="175.046" gradientUnits="userSpaceOnUse"><stop stop-color="#888810"/><stop offset="1" stop-color="#616303"/></linearGradient><linearGradient id="paint43_linear" x1="1194.83" y1="181.178" x2="1194.83" y2="169.711" gradientUnits="userSpaceOnUse"><stop stop-color="#888810"/><stop offset="1" stop-color="#616303"/></linearGradient><linearGradient id="paint44_linear" x1="1196.27" y1="180.838" x2="1196.27" y2="170.667" gradientUnits="userSpaceOnUse"><stop stop-color="#A7A914"/><stop offset="1" stop-color="#818308"/></linearGradient><linearGradient id="paint45_linear" x1="1193.4" y1="181.178" x2="1193.4" y2="168.672" gradientUnits="userSpaceOnUse"><stop stop-color="#919211"/><stop offset="1" stop-color="#6C6F05"/></linearGradient><linearGradient id="paint46_linear" x1="1198.08" y1="179.923" x2="1198.08" y2="172.912" gradientUnits="userSpaceOnUse"><stop stop-color="#6C6F05"/><stop offset="1" stop-color="#919211"/></linearGradient><linearGradient id="paint47_linear" x1="1192.4" y1="176.881" x2="1190.76" y2="176.881" gradientUnits="userSpaceOnUse"><stop stop-color="#919211"/><stop offset="1" stop-color="#6C6F05"/></linearGradient><linearGradient id="paint48_linear" x1="1196.99" y1="180.55" x2="1196.99" y2="169.488" gradientUnits="userSpaceOnUse"><stop stop-color="#919211"/><stop offset="1" stop-color="#6C6F05"/></linearGradient><linearGradient id="paint49_linear" x1="1196.51" y1="180.798" x2="1196.51" y2="171.523" gradientUnits="userSpaceOnUse"><stop stop-color="#A7A914"/><stop offset="1" stop-color="#818308"/></linearGradient><linearGradient id="paint50_linear" x1="1195.55" y1="181.178" x2="1195.55" y2="170.392" gradientUnits="userSpaceOnUse"><stop stop-color="#B2B314"/><stop offset="1" stop-color="#8B8F08"/></linearGradient><linearGradient id="paint51_linear" x1="1192.34" y1="180.382" x2="1192.34" y2="170.551" gradientUnits="userSpaceOnUse"><stop stop-color="#A7A914"/><stop offset="1" stop-color="#818308"/></linearGradient><linearGradient id="paint52_linear" x1="1253.35" y1="149.746" x2="1253.35" y2="141.125" gradientUnits="userSpaceOnUse"><stop stop-color="#81810D"/><stop offset="1" stop-color="#585903"/></linearGradient><linearGradient id="paint53_linear" x1="1251.31" y1="151.311" x2="1251.31" y2="140.449" gradientUnits="userSpaceOnUse"><stop stop-color="#616303"/><stop offset="1" stop-color="#888810"/></linearGradient><linearGradient id="paint54_linear" x1="1251.95" y1="147.616" x2="1249.59" y2="147.616" gradientUnits="userSpaceOnUse"><stop stop-color="#888810"/><stop offset="1" stop-color="#616303"/></linearGradient><linearGradient id="paint55_linear" x1="1252.3" y1="152.816" x2="1252.3" y2="141.348" gradientUnits="userSpaceOnUse"><stop stop-color="#888810"/><stop offset="1" stop-color="#616303"/></linearGradient><linearGradient id="paint56_linear" x1="1253.74" y1="152.474" x2="1253.74" y2="142.304" gradientUnits="userSpaceOnUse"><stop stop-color="#A7A914"/><stop offset="1" stop-color="#818308"/></linearGradient><linearGradient id="paint57_linear" x1="1251.08" y1="152.816" x2="1251.08" y2="143.598" gradientUnits="userSpaceOnUse"><stop stop-color="#A7A914"/><stop offset="1" stop-color="#818308"/></linearGradient><linearGradient id="paint58_linear" x1="1255.55" y1="151.56" x2="1255.55" y2="144.549" gradientUnits="userSpaceOnUse"><stop stop-color="#6C6F05"/><stop offset="1" stop-color="#919211"/></linearGradient><linearGradient id="paint59_linear" x1="1249.91" y1="148.518" x2="1248.23" y2="148.518" gradientUnits="userSpaceOnUse"><stop stop-color="#919211"/><stop offset="1" stop-color="#6C6F05"/></linearGradient><linearGradient id="paint60_linear" x1="1254.28" y1="152.187" x2="1254.28" y2="141.125" gradientUnits="userSpaceOnUse"><stop stop-color="#616303"/><stop offset="1" stop-color="#888810"/></linearGradient><linearGradient id="paint61_linear" x1="1254.46" y1="152.188" x2="1254.46" y2="143.598" gradientUnits="userSpaceOnUse"><stop stop-color="#A7A914"/><stop offset="1" stop-color="#818308"/></linearGradient><linearGradient id="paint62_linear" x1="1253.05" y1="152.816" x2="1253.05" y2="142.03" gradientUnits="userSpaceOnUse"><stop stop-color="#818308"/><stop offset="1" stop-color="#A7A914"/></linearGradient><linearGradient id="paint63_linear" x1="1249.83" y1="152.02" x2="1249.83" y2="142.188" gradientUnits="userSpaceOnUse"><stop stop-color="#919211"/><stop offset="1" stop-color="#6C6F05"/></linearGradient><linearGradient id="paint64_linear" x1="1268.49" y1="283.849" x2="1268.49" y2="274.863" gradientUnits="userSpaceOnUse"><stop offset=".051" stop-color="#6E4A4C"/><stop offset=".995" stop-color="#817A59"/></linearGradient><radialGradient id="paint65_radial" cx="0" cy="0" r="1" gradientUnits="userSpaceOnUse" gradientTransform="matrix(6.01644 3.00887 -1.81856 3.63633 1264 257.065)"><stop stop-color="#fff"/><stop offset="1"/></radialGradient><radialGradient id="paint66_radial" cx="0" cy="0" r="1" gradientUnits="userSpaceOnUse" gradientTransform="matrix(6.01644 3.00887 -1.81856 3.63633 1264 257.065)"><stop stop-color="#fff"/><stop offset="1" stop-color="#fff"/></radialGradient><radialGradient id="paint67_radial" cx="0" cy="0" r="1" gradientUnits="userSpaceOnUse" gradientTransform="matrix(6.01644 -3.00887 1.81856 3.63633 1272.98 257.065)"><stop stop-color="#fff"/><stop offset="1"/></radialGradient><radialGradient id="paint68_radial" cx="0" cy="0" r="1" gradientUnits="userSpaceOnUse" gradientTransform="matrix(6.01644 -3.00887 1.81856 3.63633 1272.98 257.065)"><stop stop-color="#fff"/><stop offset="1" stop-color="#fff"/></radialGradient></defs></svg>