<svg width="1600" height="400" fill="none" xmlns="http://www.w3.org/2000/svg" viewBox="0 0 1600 400"><g filter="url(#filter0_d)"><path fill="#F5FCFF" d="M1600 0H0v400h1600z"/></g><path d="M1283.55 318.06c126.22 0 228.55-38.257 228.55-85.45 0-47.193-102.33-85.45-228.55-85.45-126.22 0-228.55 38.257-228.55 85.45 0 47.193 102.33 85.45 228.55 85.45z" fill="#004EBB"/><g clip-path="url(#clip0)"><path d="M1381.99 296.182c-27.79 8.436-170.24-49.178-247.57-109.698-4.63-3.635-4.01-10.83 1.2-13.595l83.35-44.193c37.65 21.302 167.74 91.989 163.02 167.486z" fill="#0032A5"/><path d="M1206.57 93.897c-3.55-2.079-10.97-2.602-15.69-.076.16-.936 7.09-6.433 18.46-1.404.81.337 2.74 1.197 4.15 2.373 8.56 2.22 16.89 6.487 24.32 12.169-13.41 3.472-38.66 18.537-44.29 19.114l-6.38-10.417c-1.72-18.428 12.56-22.336 19.43-21.759zM1137.38 156.496c-.53 7.076-1.42 5.116 3.44 15.533.31 2.493 212.61 171.046 290.28 108.577-105.33-18.548-175.24-69.271-280.01-131.958l-13.71 7.848z" fill="#192D4B"/><path d="M1421.77 286.702c-8.83 2.884-26.29 8.076-112.95-36.062-58.77-29.335-115.94-58.768-171.79-90.334l.35-3.908 173.7 91.303c0 .011 64.81 36.116 110.69 39.001z" fill="#192D4B"/><path d="M1430.09 284.819c-10.86 6.008-51.01-2.068-102.67-28.562-65.13-34.331-158.64-79.525-190.04-99.847 28.74-17.46 92.75-47.524 103.72-51.9 57.51 31.218 120.59 73.604 161.6 113.769 19.06 21.509 40.33 59.051 27.39 66.54z" fill="#E6E7E8"/><path d="M1199.08 150.825l-11.52-21.171c-10.12 5.007-25.94 13.182-36.01 18.668l37.12 19.179 10.41-16.676z" fill="#0082C8"/><path d="M1192.68 106.415c4.47-9.383 17.09-15.26 37.05-3.973 10.39 4.833 59.17 34.059 81.35 51.29l-44.56 27.8-40.91-14.771-12.31-16.023-9.82-7.064c-4.29-8.566-8.33-17.198-11.46-26.276-2-4.691-.1-9.535.66-10.983z" fill="#F1F2F2"/><path d="M1302.15 174.576s.57 3.081 2.09 5.051c1.52 1.97 5.78 4.811 8.44 6.335 2.65 1.524 6.99 3.331 6.65 8 0 0 .74 2.449-4.25 2.7-4.98.239-7.4-.425-9.88-2.885-2.5-2.449-4.14-2.895-7.31-3.483-3.16-.588-4.27-.991-4.27-.991s-1.23-2.024-1.08-4.234c.15-2.209 1.84-4.539 1.04-7.151-.8-2.613-2.56-6.967-2.56-6.967l9.68-1.806 1.45 5.431z" fill="#F2A983"/><path d="M1304.24 178.93s-.52-15.696-3.17-22.172c-2.64-6.488-3.41-21.465-5.4-24.97-1.99-3.505-10.91-6.314-19.01-6.912-8.11-.599-22.56 2.656-22.56 2.656s-1.58 12.615-1.58 13.421c0 .805 17.41 1.393 21.57 1.306 4.16-.087 10.69 2.242 10.69 2.242s-1.61 8.131 1.43 14.347c3.04 6.215 6.16 19.941 6.16 19.941s3.12 4.615 11.87.141z" fill="#065380"/><path d="M1236.94 106.175c-7.6-5.116-26.67-15.239-38.97-6.607-4.95 4.713-14.28 13.367 3.07 30.228-6.22-7.457-10.09-41.548 35.9-23.621z" fill="#E6E7E8"/><path d="M1190.33 116.745c4.37 15.511 48.21 43.06 68.5 49.548v12.888c-16.48-7.359-46.93-21.836-46.93-21.836l-6.04-12.441c-4.83-8.839-13.8-20.279-15.53-28.159z" fill="#0082C8"/><path d="M1256.89 154.287c56.81 43.692 104.86 88.57 140.3 108.881 13.8 6.716 20.48 2.972 23.18-.576-1.12 9.469-21.78 11.44-33.68 4.147-37.27-20.42-70.93-46.218-127.85-91.455l-1.95-20.997z" fill="#0082C8"/><path d="M1151.53 148.322l4.33-2.33 20.8 9.209 22.42-4.365-26.79-49.232c-8.5-21.182 17.25-33.787 32.04-22.521 10.98 9.045 23.7 20.638 32.77 27.212-3.54-2.003-11.26-8.327-23.6-11.494-13.47-9.242-33.52-4.43-21.52 18.842 5.87 9.078 14.69 30.096 21.36 41.406l45.49 20.257c46.32 36.638 135.35 94.731 131.19 93.164-69.99-27.039-183.47-91.934-238.49-120.148z" fill="#14AFEB"/><path d="M1310.44 137.481l-1.26-14.847-43.63 21.193c4.39 12.844 14.63 24.251 24.65 32.284l-14.56-21.16 34.8-17.47z" fill="#414042"/><path d="M1284.87 145.002l-.02.077-1.96 6.052-10.54 5.845s-5.17-7.271-6.8-13.345l5.01-1.709 7.32.043 6.99 3.037z" fill="#808285"/><path d="M1253.43 144.85l8.74-4.038-2.64-.349c-3.92-.522-4.25-2.427-.71-4.223l27.97-14.249c3.54-1.796 9.6-2.557 13.47-1.698l1.15.262 11.99-5.737c.43-.206.91-.294 1.4-.239.5.043.94.239 1.31.522l1.07.817c.39.304.63.794.58 1.328-.06.533-.39.968-.85 1.175l-8.18 3.777.54.12c1.61.359 2.59.958 2.94 1.655.2.424.19.881-.07 1.349l-2.25 6.411-25.03 13.269-6.98-3.037c-2.14.305-4.25.37-5.95.142l-1.36-.185-13.91 6.65a2.76 2.76 0 0 1-1.49.262 2.723 2.723 0 0 1-1.4-.555l-.66-.49a1.718 1.718 0 0 1-.67-1.568c.06-.609.45-1.121.99-1.371z" fill="#627072"/><path d="M1312.15 125.322l-2.25 6.411-25.03 13.269-6.98-3.037c-.05.011-.08.011-.12.011l34.58-17.492c.01.272-.05.555-.2.838z" fill="#58595B"/><path d="M1256.89 154.287c48.19 37.444 98.12 83.498 137.88 108.425 14.89 9.285 32.5 5.061 24.84-12.191-20.68-45.902-58.53-96.659-91.72-130.968l-71 34.734z" fill="#14AFEB"/><path d="M1382.93 246.852c11.41 7.413 32 8.458 22.7-11.146-18.03-40.024-50.32-84.064-79.6-115.249l1.85-.904c33.2 34.309 71.04 85.066 91.72 130.968 7.67 17.252-9.95 21.476-24.84 12.191-39.76-24.927-89.69-70.981-137.88-108.425l5.14-2.514c42.45 33.449 85.98 73.179 120.91 95.079z" fill="#192D4B"/><path d="M1341.51 159.425c-1.23-5.04-6.58-23.621-20.28-36.617-19.51-1.611-42.05 7.608-53.4 26.124 7.73 5.409 21.03 13.442 49.02 21.628 10.01 2.536 30 7.587 24.66-11.135z" fill="#004687"/><path d="M1216.72 156.061l42.11 19.234 129.41 91.662-130.89-87.853-37.2-17.285 16.93 32.122-7.27-3.886c-15.44-30.794-28.03-53.206-37.82-76.412 8.28 13.051 13.31 26.679 24.73 42.418zM1157.86 144.904l19.19 8.142 22.03-2.22 9.4 17.296-10.71-14.836-21.11 1.915-20.8-9.219 2-1.078z" fill="#192D4B"/><path d="M1397.19 270.56c-27.87-2.896-130.92-47.48-256.25-116.284l10.59-5.965c59.69 30.772 190.87 105.246 245.66 122.249z" fill="#A7A9AC"/><path d="M1191.52 136.915l-24.34 11.94-9.32-3.951c9.7-5.181 19.62-10.275 29.7-15.25l3.96 7.261z" fill="#004687"/><path d="M1350.39 251.554l-93.42-66.648-24.82-10.885 13.97 24.72c31.66 17.786 73.46 38.804 104.27 52.813z" fill="#E6E7E8"/><path d="M1257.95 165.825c-14.13-2.83-45.78-13.182-56.91-36.029 16.28 15.119 35.67 26.614 56.91 36.029z" fill="#192D4B"/><path d="M1281.98 211.748s.76-2.775-.48-4.593c-1.25-1.818-4.4-4.583-6.3-6.27-1.91-1.687-7.18-8.109-7.86-15.587l-8.64 2.003s2.31 6.052 2.26 8.142c-.05 2.09.08 5.627.6 8.751 0 0 1.37 1.382 2.7 3.418 1.33 2.035 1.89 3.733 6.69 5.519 4.8 1.774 9.47.468 11.03-1.383z" fill="#F2A983"/><path d="M1272.97 197.935s-.5 3.189-5.6 2.602c-5.09-.588-7.38-3.451-7.38-3.451s-1.82-3.831-1.96-6.433c-.14-2.601-3.47-8.447-3.94-10.253-.47-1.807-4.4-10.689-4.81-14.652-.41-3.962-.11-8.512-.11-8.512s-9.26-5.3-12.37-7.717c-3.12-2.416-8.33-7.794-8.47-12.452-.14-4.67 1.72-11.157 1.72-11.157s6.17 4.016 10.19 4.571c4.01.555 17.51 1.807 19.34 3.625.49.49 2.44 6.945 2.27 8.849-.42 5.203-.94 5.552.21 9.176 1.59 4.953 1.4 11.092 2.74 16.262 1.34 5.171 4.4 13.062 5.57 17.971 1.17 4.92 2.6 11.571 2.6 11.571z" fill="#065380"/><path d="M1249.28 165.748c-.41-3.962-.11-8.512-.11-8.512s-9.26-5.3-12.37-7.717c-3.12-2.416-8.33-7.794-8.47-12.452-.14-4.67 1.72-11.157 1.72-11.157s2.2 1.426 4.82 2.699c.29 1.263.4 2.678.06 4.115-.97 4.092-3.4 6.302.35 7.75 3.75 1.447 7.17.424 8.8 2.971 1.63 2.547-.52 3.679.63 5.247 1.14 1.567 3.22 1.622 4.49 2.786 1.28 1.165 5.82 3.244 4.54 6.836-1.27 3.592-1.77 4.757-.37 7.99 1.41 3.232 3.13 9.567 2.46 12.017-.65 2.449 2.93 4.19 4.5 7.151 1.57 2.961 2.67 3.755 1.98 6.64-.69 2.884-.18 4.19 1.73 6.193.36.381.56.958.63 1.655-3.19-1.034-4.65-2.863-4.65-2.863s-1.81-3.831-1.95-6.433c-.15-2.601-3.48-8.447-3.95-10.254-.5-1.817-4.43-10.71-4.84-14.662z" fill="#003A67"/><path d="M1247.17 79.975s2.59-2.013 2.97-5.823c.38-3.799 8.52-2.438 8.52-2.438l5.71 5.823s-3.09 26.439-6.2 27.746c-3.1 1.306-5.44-4.692-5.68-4.757-.24-.065-6.57-11.876-6.57-11.876l1.25-8.675z" fill="#D88F69"/><path d="M1309.17 115.493s1.24.892 2.73 1.077c1.49.185 2.83.316 3.01 1.013.18.696.01 2.144.15 2.285.14.142 1.72.185 3.2-.185 1.48-.37 3.13-2.013 3.11-2.666-.02-.654.51-2.33.02-3.299-.49-.979-.75-2.318-1.92-2.612-1.19-.294-3.69-1.361-4.49-2.22-.8-.871-1.65-2.254-2.23-2.591-.58-.338-5.34-4.898-7.92-7.467s-8.49-7.848-9.57-8.523c-1.07-.675-3.57-1.774-4.38-2.046-.79-.262-3.89-3.386-7.3-5.03-3.41-1.643-13.19-7.466-16.73-5.986-3.53 1.48-3.71 10.134-3.46 10.885.25.751 4.32.838 4.86 1.088.55.25 3.69 2.646 8.45 4.583 4.77 1.938 9.75 3.342 11.29 4.169 1.53.827 6.74 4.778 10.88 7.108 4.14 2.329 9.6 5.431 10.09 6.498.49 1.056.21 3.919.21 3.919z" fill="#F2A983"/><path d="M1263.4 88.128c-.25-.75-.08-9.404 3.46-10.885.63-.261 1.46-.294 2.41-.163.41 2.438 1.55 8.055 4.75 11.168 4.13 4.016 6.88 4.865 10.26 5.715 3.37.838 4.35-.338 5.56.98 1.21 1.316 1.53 2.405 4.74 5.344 3.21 2.939 10.19 7.162 12.55 8.109 2.37.947 4.55 3.069 5.08 4.441.51 1.371 2.66 3.538 3.6 4.724.94 1.186 3.93.522 4.81-2.841.14-.522.33-1.056.54-1.546.08.185.16.37.24.534.49.979-.04 2.645-.02 3.298s-1.63 2.297-3.11 2.667c-1.48.37-3.07.326-3.2.185-.14-.142.03-1.589-.15-2.286-.19-.697-1.53-.827-3.01-1.012-1.49-.185-2.73-1.078-2.73-1.078s.28-2.852-.2-3.919c-.49-1.066-5.94-4.169-10.09-6.498-4.13-2.329-9.35-6.28-10.88-7.108-1.54-.827-6.53-2.231-11.29-4.169-4.77-1.937-7.91-4.332-8.44-4.582-.56-.24-4.63-.327-4.88-1.078z" fill="#D88F69"/><path d="M1260.81 76.013s4.71-1.806 10.67.73c5.95 2.525 9.67 4.942 9.67 4.942l-3.33 12.844-11.13-3.277-5.88-15.239z" fill="#065380"/><path d="M1247.35 79.311s-.52 4.191 2.16 6.51c6.66 5.769 7.84 16.599 7.84 16.599s6.89-14.966 4.21-23.054l6.73-2.7s3.34 10.94 1.02 19.289c-2.32 8.348-5.17 11.429-5.17 11.429s2.56 10.776-.49 18.134c-3.05 7.358-11.03 11.451-20.78 8.523-9.74-2.928-12.83-8.131-12.83-8.131s2.62-9.535 1.49-13.204c-1.13-3.668-4.01-17.85.15-23.457 4.16-5.627 15.67-9.938 15.67-9.938z" fill="#003A67"/><path d="M1246.18 77.614s2.96-2.515 3.55-5.824l15.66 2.884s.22 6.096-1.22 9.47c-1.44 3.375-11.99 1.459-14.95-.348-2.98-1.807-3.04-6.183-3.04-6.183z" fill="#D88F69"/><path d="M1267.92 85.907l-.92-7.989-3.84-.893s2.45 7.652-4.24 7.783c-8.2.152-12.74-7.195-12.74-7.195s-11.78 4.692-12.4 4.866c-.63.174-1.04 19.723-1.04 19.723l.65 1.655s-1.37 2.231 7.85 4.691c9.23 2.46 25.88-3.461 25.88-3.461l.8-19.18z" fill="#065380"/><path d="M1246.12 90.12c-2.65-2.199-9.4-1.665-10.02-1.252-.13.088-.89.6-2.01 1.34-.7 5.649-1.37 11.994-1.37 11.994l.66 1.655s-1.37 2.231 7.85 4.691c.29.077.59.153.91.207l3.22-2.482c.01.011 3.42-13.954.76-16.153z" fill="#003A67"/><path d="M1262.26 132.973c1.84-2.275 3.27-9.154 2.72-10.537l.72-4.278c.87-.957 3.72-11.668 2.95-12.702l.8-4.191s.87-.446 1.2-1.774c1.78-7.086.16-13.008-.66-14.14l-6.31-1.47c-1.4 7.25-4.56 10.483-4.56 10.483-1.87-3.44-4.17-6.477-6.39-8.98l-8.48 4.31c2.34 7.097 1.32 15.272-.54 17.525-2.84 3.429-9.74 1.219-9.74 1.219-.94.316-1.33 5.192-.29 8.556.18.544.85 1.186.85 1.186.68 1.459.44 2.155-.6 3.266-1.29 1.404-1.89 6.683-1.89 6.683s8.29 9.252 22.04 7.249c6.13-.892 8.18-2.405 8.18-2.405z" fill="#F4872A"/><path d="M1241.56 122.688c-.69-6.684 1.72-13.313 1.72-13.313l-1.63-.718c-3.22 1.208-7.66-.207-7.66-.207-.94.316-1.33 5.192-.29 8.556.18.544.85 1.186.85 1.186.68 1.459.44 2.155-.59 3.266-1.3 1.404-1.9 6.683-1.9 6.683s2.31 2.569 6.5 4.713l3-10.166z" fill="#F4872A"/><path opacity=".5" d="M1261.54 111.411l-2.05-1.143c.35 4.147-1.62 12.148-1.62 12.148l2.35-1.96c.84-2.22 1.32-9.045 1.32-9.045zM1261.7 104.336c.9-5.54-.75-9.372-.75-9.372 2.69-4.245 3.72-9.525 3.72-9.525l-.97-1.556c-1.4 7.25-4.56 10.482-4.56 10.482 2.15 4.91.53 12.224.53 12.224l2.03-2.253zM1243.73 107.22c-.09.098-.17.196-.26.294l1.41.207 2.06-1.883s1.38-2.482 1.05-6.923c-.34-4.441-1.53-7.957-1.53-7.957l-2.19-1.263c2.34 7.086 1.33 15.272-.54 17.525z" fill="#F4872A"/><path opacity=".3" d="M1252.75 85.385l-8.48 4.31 2.19 1.263 7.71-3.907c-.47-.577-.95-1.143-1.42-1.666zM1270.54 86.659c-.16-.62-.35-1.078-.52-1.318l-6.32-1.469.97 1.557 5.87 1.23zM1259.49 110.268c-.19.054-.39.109-.6.163-6.66 1.796-12.03 1.796-16.04 1.165l-.07.065 1.91 1.6s.38.36 4.23.479c3.86.109 10.28-.914 10.53-1.317.24-.381.04-2.155.04-2.155zM1268.66 105.446s-.84 2.471-9.16 4.811l2.05 1.143c3.73-.86 6.09-2.95 7.16-4.104.11-.936.11-1.622-.05-1.85z" fill="#F4872A"/><path opacity=".5" d="M1240.4 133.693l3.26-10.515c-.76-3.309 1.03-9.906 1.03-9.906l-1.89-1.676-.13-.185c-.66 2.471-1.55 6.858-1.1 11.277l-3 10.156c.57.283 1.18.576 1.83.849z" fill="#F4872A"/><path opacity=".3" d="M1264.98 122.437s-.61 2.09-6.88 3.603l1.26 1.361c2.95-.61 4.74-1.753 5.63-2.493.14-1.143.16-2.057-.01-2.471zM1265.09 121.828l-.11.609.11-.609z" fill="#F4872A"/><path opacity=".5" d="M1257.42 134.759c.63-1.84 1.72-5.181 1.94-7.358l-1.26-1.361c-.21.054-.43.098-.66.152-.22 1.709-.9 5.976-2.27 9.024a51.78 51.78 0 0 0 2.25-.457z" fill="#F4872A"/><path opacity=".3" d="M1256.86 126.312c-5.58 1.132-10.34.61-14.06-.424l.02.032-.54 1.709s4.65 2.221 14.79.936l.37-2.373c-.19.033-.39.077-.58.12z" fill="#F4872A"/><path d="M1244.52 77.7l-7.01 2.766c3.4 2.111 5.55 5.518 6.76 9.219l8.48-4.31c-4.26-4.812-8.23-7.674-8.23-7.674zM1268.09 76.971l-3.72-.87c.03 2.982-.24 5.562-.67 7.771l6.32 1.47c-.67-5.116-1.93-8.37-1.93-8.37zM1265.71 118.149s-.94 2.896-8.7 4.452c-6.44 1.285-11.7.457-15.51-.827-.26-4.017.52-7.892 1.13-10.221 4.05.664 9.48.697 16.27-1.132 8.9-2.395 9.77-4.985 9.77-4.985l.82-4.289s-.79 2.993-9.68 5.377c-16.35 4.398-26.41-2.678-26.41-2.678l.6 4.572s2.06 1.546 6.09 2.591c-.66 1.262-1.45 4.005-1.16 9.742-2.83-1.285-4.37-2.591-4.37-2.591l-.63 3.385s1.54 1.296 4.31 2.624l-1.99 7.325c.69.446 1.46.893 2.31 1.328l2.24-7.587c3.94 1.415 9.43 2.406 16.05 1.056 7.43-1.513 8.13-3.875 8.13-3.875l.73-4.267z" fill="#414E52"/><path d="M1242.37 122.057c-.31-.087-.6-.185-.88-.272-.26-4.017.52-7.892 1.13-10.221.26.043.52.076.79.119a23.452 23.452 0 0 1 1.5-3.962c-5.19-.642-8.79-2.297-10.47-3.222l-.99-.13.54 4.071s2.05 1.545 6.09 2.59c-.66 1.263-1.46 4.006-1.16 9.742-2.83-1.284-4.37-2.59-4.37-2.59l-.63 3.385s1.54 1.295 4.31 2.623l-1.99 7.326c.69.446 1.46.892 2.31 1.328l2.24-7.587.57.196c.5-1.677 1.01-3.396 1.01-3.396zM1242.84 77.81l-4.57 1.806c4.92 3.016 7.16 7.794 7.16 7.794l4.92-1.96c-2.44-4.125-7.51-7.64-7.51-7.64zM1268.8 84.123l-4.04-.936.83-6.956 2.02.338 1.19 7.554z" fill="#344145"/><path d="M1253.32 52.088c3.8-1.404 8.97.044 12.07 3.331 3.11 3.287 3.41 6.444 3.42 7.837.02 1.394.16 2.624.25 3.701.09 1.078-1.26 2.09-1.26 2.09.82 1.687-.86 4.844-1.29 5.606.06.348.08.631.01.805-.16.49-.49.653-.85.686-.5 1.034-1.02 2.275-1.15 2.82-.19.805-.71 3.537-3.96 2.83-3.26-.697-7.5-3.658-9.91-6.651-2.41-2.983-4.42-8.35-4.22-13.204.2-4.833 3.09-8.446 6.89-9.85z" fill="#F2A983"/><path d="M1264.28 76.002c.09-.163.78.207 1.4.153-.5 1.034-1.02 2.275-1.15 2.819-.14.62-.48 2.362-2.09 2.83.63-3.995 1.84-5.802 1.84-5.802zM1265.52 70.408c-.06-1.492 3.11-2.232 3.11-2.232-.37.512-.84.871-.84.871.82 1.687-.86 4.844-1.29 5.606-.19-1.165-.91-3.08-.98-4.245z" fill="#D88F69"/><path opacity=".25" d="M1253.32 52.088c3.8-1.404 8.97.044 12.07 3.331 3.11 3.287 3.41 6.444 3.42 7.837.01.436.02.86.05 1.263-5.98 2.59-9.71-1.1-11.33-1.001-1.33.076-1.81.881-2.43 2.917-.62 2.035-2.1 2.438-2.22 4.843-.1 2.08 2.09 5.748 2.41 8.055-1.76-1.197-3.42-2.677-4.63-4.169-2.41-2.982-4.42-8.348-4.22-13.203.19-4.855 3.08-8.468 6.88-9.873z" fill="#F2A983"/><path d="M1255.95 62.07s5.5 2.525 9.56 2.59c4.05.055 4.53-2.797 4.13-4.462-.41-1.666-1.44-5.084-7.45-7.99-6.01-2.906-13.24-.261-14.8 4.659-1.57 4.93-1.45 7.62.21 12.942 0 0-.08-4.974 1.16-4.365 1.24.62 1.89 2.59 1.96 3.472l.8.501s-.07-.969.67-1.578c.74-.599 3.3-1.992 3.76-5.77z" fill="#563317"/><path d="M1250.06 71.725c-.44.152-1.45.294-2.8-1.992-1.36-2.286-.92-4.05.11-4.43 1.02-.381 1.79.174 2.1.958.29.794.59 5.464.59 5.464z" fill="#F2A983"/><path opacity=".25" d="M1250.06 71.725c-.44.152-1.45.294-2.8-1.992-1.36-2.286-.92-4.05.11-4.43 1.02-.381 1.79.174 2.1.958.29.794.59 5.464.59 5.464z" fill="#F2A983"/><path d="M1254.15 67.382c1.51.479 2.48.74 3.72 1.066 1.04-.576 2.88.11 5.06.088.45 0 1.68.043 1.98.86.46-.218.85-.153 1.13-.044.42-1.132 1.45-1.056 2.03-1.274 2.6-.98 2.73.066 2.17 1.731-.6 1.785-1.86 2.623-3.46 2.7-1.1.054-1.16-1.002-.87-2.689a.574.574 0 0 1 .04-.141c-.23-.099-.57-.153-.97.065.01.163-.01.348-.07.555-.46 1.665-2.06 3.178-4.84 3.037-3.15-.153-3.61-2.59-2.82-4.213.03-.065.07-.13.11-.185-.97-.326-2.15-.718-3.14-1.077-.94-.349-3.96-1.404-4.7-1.775l-.6-.598c2.48 1.088 4.13 1.546 5.23 1.894z" fill="#2E383B"/><path d="M1258.52 72.802c.44.207.96.327 1.57.349 2.81.141 4.24-1.405 4.65-2.896.17-.631.01-1.056-.51-1.295-.32-.152-.77-.229-1.29-.218-.86.011-1.68-.098-2.39-.185-1.54-.196-2.65-.326-3.12.664-.34.718-.41 1.567-.16 2.242.21.588.64 1.045 1.25 1.34zM1266.36 72.258c.11.055.25.076.42.066 1.61-.077 2.75-.958 3.29-2.57.47-1.382.22-1.676-.02-1.784-.23-.11-.75-.142-1.91.293-.14.055-.3.088-.47.131-.64.142-1.34.294-1.55 1.47-.26 1.48-.2 2.198.24 2.394z" fill="#212B2E"/><mask id="a" maskUnits="userSpaceOnUse" x="1260" y="68" width="5" height="5"><path d="M1260.66 68.568c.68.087 1.45.175 2.27.175.52 0 .97.076 1.28.217.52.24.68.664.52 1.296a3.855 3.855 0 0 1-2.12 2.46c-.22-1.187-.75-2.765-1.95-4.148z" fill="url(#paint0_linear)"/></mask><g mask="url(#a)"><path opacity=".44" d="M1260.66 68.568c.68.087 1.45.175 2.27.175.52 0 .97.076 1.28.217.52.24.68.664.52 1.296a3.855 3.855 0 0 1-2.12 2.46c-.22-1.187-.75-2.765-1.95-4.148z" fill="url(#paint1_linear)"/></g><mask id="b" maskUnits="userSpaceOnUse" x="1268" y="67" width="3" height="5"><path d="M1268.07 68.296c.02-.01.05-.01.07-.022 1.17-.435 1.68-.403 1.91-.294.23.11.48.414.02 1.785-.27.795-.69 1.405-1.22 1.84.02-.838-.13-1.97-.78-3.309z" fill="url(#paint2_linear)"/></mask><g mask="url(#b)"><path opacity=".44" d="M1268.07 68.296c.02-.01.05-.01.07-.022 1.17-.435 1.68-.403 1.91-.294.23.11.48.414.02 1.785-.27.795-.69 1.405-1.22 1.84.02-.838-.13-1.97-.78-3.309z" fill="url(#paint3_linear)"/></g><path d="M1257.29 128.206s2.89 4.354 3.5 4.866c.61.512 3.89 2.787 5.12 4.234 1.23 1.459 1.61 3.113 1.03 4.713-.59 1.6-1.11 4.235-2.15 4.333-1.03.098-1.18-.077-1.18-.077s-.43.871-1.54.436c0 0-1.54.805-2.24.37 0 0-1.38.707-2.09.511-.71-.206-2.08-1.872-2.13-2.938-.06-1.067 0-2.558-.19-3.56-.2-1.001-.77-4.669-1.2-4.985-.41-.316-10.93-11.081-12.32-12.714-1.39-1.632-3.09-6.454-3.09-6.454s-4.91-5.769-6.15-9.677c-1.24-3.897-1.84-6.683-2.55-7.543-.72-.86-2.82-9.808 2.58-11.647 5.4-1.84 8.72.326 10.4 4.942 1.67 4.615 1.94 9.339 1.94 9.339s.1.566 1.75 4.234c1.64 3.668 2.25 6.237 2.25 6.237s1.58 2.808 2.99 5.453c1.41 2.635 5.27 9.927 5.27 9.927z" fill="#F2A983"/><path d="M1232.66 107.242c-1.24-3.897-1.84-6.683-2.55-7.543-.18-.229-.47-1.023-.68-2.09 1.34 1.84 3.38 2.993 4 6.095.8 4.006 5.63 10.134 6.01 10.123.38-.021 1.82.164 2.44 1.089.62.936-1.07 2.645.79 6.008 1.87 3.364 10.28 12.377 11.41 13.302 1.13.925 1.36 1.959 1.43 3.45.07 1.491 1.41 4.376 1.78 4.528.37.153 1.87.545 2.54.164.66-.381 1.81.283 2.65-.381.85-.664 1.38-.207 2.62-.207.69 0 1.51-.512 2.1-.958a4.97 4.97 0 0 1-.26 1.176c-.59 1.6-1.11 4.234-2.15 4.332-1.03.098-1.18-.076-1.18-.076s-.43.87-1.54.435c0 0-1.55.805-2.24.37 0 0-1.38.708-2.09.512-.71-.207-2.08-1.873-2.14-2.939-.05-1.067 0-2.558-.18-3.56-.2-1.001-.77-4.669-1.2-4.985-.41-.316-10.93-11.081-12.32-12.714-1.39-1.632-3.09-6.454-3.09-6.454s-4.9-5.769-6.15-9.677z" fill="#D88F69"/><path d="M1231.2 104.88s6.52.773 14.77-3.374c0 0-2.08-11.418-2.69-13.737-1.19-4.55-5.26-7.162-11.16-4.626-5.91 2.536-4.64 10.94-.92 21.737z" fill="#065380"/></g><defs><filter id="filter0_d" x="-4" y="-2" width="1608" height="408" filterUnits="userSpaceOnUse" color-interpolation-filters="sRGB"><feFlood flood-opacity="0" result="BackgroundImageFix"/><feColorMatrix in="SourceAlpha" values="0 0 0 0 0 0 0 0 0 0 0 0 0 0 0 0 0 0 127 0"/><feOffset dy="2"/><feGaussianBlur stdDeviation="2"/><feColorMatrix values="0 0 0 0 0 0 0 0 0 0 0 0 0 0 0 0 0 0 0.08 0"/><feBlend in2="BackgroundImageFix" result="effect1_dropShadow"/><feBlend in="SourceGraphic" in2="effect1_dropShadow" result="shape"/></filter><linearGradient id="paint0_linear" x1="1262.41" y1="68.023" x2="1263.13" y2="72.009" gradientUnits="userSpaceOnUse"><stop stop-color="#fff"/><stop offset="1" stop-color="gray"/></linearGradient><linearGradient id="paint1_linear" x1="1262.41" y1="68.023" x2="1263.13" y2="72.009" gradientUnits="userSpaceOnUse"><stop stop-color="#fff"/><stop offset="1" stop-color="#fff"/></linearGradient><linearGradient id="paint2_linear" x1="1268.98" y1="67.794" x2="1269.55" y2="70.969" gradientUnits="userSpaceOnUse"><stop stop-color="#fff"/><stop offset="1" stop-color="gray"/></linearGradient><linearGradient id="paint3_linear" x1="1268.98" y1="67.794" x2="1269.55" y2="70.969" gradientUnits="userSpaceOnUse"><stop stop-color="#fff"/><stop offset="1" stop-color="#fff"/></linearGradient><clipPath id="clip0"><path fill="#fff" transform="translate(1131.3 51)" d="M0 0h302.753v246.01H0z"/></clipPath></defs></svg>