<svg width="1600" height="400" fill="none" xmlns="http://www.w3.org/2000/svg" viewBox="0 0 1600 400"><g filter="url(#filter0_d)"><path fill="#F5FCFF" d="M1600 0H0v400h1600z"/></g><path d="M1283.55 334.669c126.22 0 228.55-38.258 228.55-85.45 0-47.193-102.33-85.45-228.55-85.45-126.22 0-228.55 38.257-228.55 85.45 0 47.192 102.33 85.45 228.55 85.45z" fill="#004EBB"/><path d="M1283.79 303.028c61.97 0 112.21-18.782 112.21-41.952 0-23.169-50.24-41.951-112.21-41.951-61.97 0-112.21 18.782-112.21 41.951 0 23.17 50.24 41.952 112.21 41.952z" fill="#0032A5"/><g clip-path="url(#clip0)"><path d="M1287.6 60.773l-70.47 18.288c-3.31.862-6.5 2.259-9.46 4.153-3.08 1.97-5.96 4.496-8.56 7.506-5.41 6.256-9.59 14.52-12.42 24.551-2.84 10.032-4.15 21.223-3.91 33.253.12 5.789.61 11.741 1.44 17.715l70.46-18.295c-.84-5.966-1.33-11.926-1.44-17.715-.24-12.03 1.07-23.221 3.9-33.253 2.84-10.031 7.02-18.287 12.43-24.551 2.6-3.01 5.48-5.536 8.56-7.505 2.97-1.895 6.15-3.292 9.47-4.147z" fill="#575756"/><path d="M1264.72 262.304l70.45-18.294c-.08.022-.17.044-.26.067-3.4.854-6.97 1.144-10.59.869-3.66-.282-7.41-1.144-11.15-2.564-7.77-2.957-15.42-8.248-22.75-15.738-7.33-7.483-13.87-16.705-19.46-27.398a149.931 149.931 0 0 1-7.28-16.251 162.646 162.646 0 0 1-5.47-17.284 164.493 164.493 0 0 1-3.52-17.774l-70.46 18.294c.83 5.915 2.02 11.897 3.52 17.775a166.836 166.836 0 0 0 5.47 17.284c2.14 5.64 4.6 11.109 7.28 16.251 5.59 10.693 12.13 19.907 19.46 27.398 7.33 7.482 14.98 12.781 22.75 15.738 3.74 1.419 7.49 2.281 11.15 2.564 3.63.275 7.19-.015 10.6-.87.08-.022.17-.044.26-.067z" fill="#575756"/><path d="M1282.8 42.248c16.43-4.265 35.69 2.363 53.8 20.873 36.01 36.79 53.92 106.581 40 155.884-6.92 24.492-20.39 39.324-36.62 43.53l-70.46 18.295c16.23-4.213 29.7-19.038 36.62-43.53 13.92-49.304-3.99-119.094-40-155.884-18.12-18.51-37.37-25.138-53.8-20.873l70.46-18.295z" fill="#3C3C3B"/><path d="M1306.14 237.293c-13.92 49.304-54.41 59.447-90.42 22.657-36.02-36.783-53.92-106.573-40-155.877 13.93-49.303 54.41-59.446 90.43-22.656 36.01 36.782 53.92 106.573 39.99 155.876zm-121.92-71.054c.83 5.915 2.01 11.897 3.52 17.775a164.38 164.38 0 0 0 5.47 17.284c2.14 5.64 4.59 11.109 7.27 16.251 5.59 10.693 12.14 19.908 19.47 27.398 7.32 7.483 14.98 12.781 22.75 15.738 3.74 1.42 7.48 2.282 11.15 2.564 3.62.275 7.19-.015 10.59-.869a32.829 32.829 0 0 0 9.74-4.229c3.08-1.969 5.96-4.488 8.56-7.505 5.41-6.256 9.58-14.52 12.42-24.551 2.83-10.032 4.15-21.215 3.91-33.246-.12-5.788-.6-11.74-1.43-17.715a164.829 164.829 0 0 0-3.53-17.774 162.574 162.574 0 0 0-5.47-17.284 151.156 151.156 0 0 0-7.27-16.252c-5.59-10.693-12.14-19.907-19.46-27.397-7.33-7.483-14.99-12.781-22.76-15.739-3.74-1.419-7.49-2.28-11.15-2.563-3.63-.275-7.19.015-10.6.87a32.779 32.779 0 0 0-9.73 4.227c-3.08 1.97-5.96 4.496-8.56 7.505-5.41 6.257-9.59 14.52-12.42 24.552-2.84 10.031-4.15 21.222-3.91 33.253a150.1 150.1 0 0 0 1.44 17.707z" fill="#000"/><path d="M1244.59 52.384c16.43-4.265 35.69 2.363 53.82 20.873 36.02 36.79 53.92 106.58 39.99 155.884-6.92 24.492-20.39 39.324-36.61 43.53l-8.06 2.088c16.23-4.213 29.7-19.038 36.62-43.53 13.92-49.303-3.99-119.094-40-155.884-18.12-18.51-37.37-25.138-53.81-20.873l8.05-2.088z" fill="url(#paint0_radial)"/><path d="M1261.15 47.873c16.43-4.265 35.69 2.363 53.81 20.873 36.02 36.79 53.92 106.581 40 155.884-6.92 24.492-20.39 39.324-36.62 43.53l-8.05 2.088c16.22-4.213 29.69-19.038 36.61-43.53 13.93-49.303-3.98-119.094-39.99-155.884-18.13-18.51-37.38-25.138-53.82-20.873l8.06-2.088z" fill="url(#paint1_radial)"/><path d="M1301.89 248.602l11.32 6.175 4.96-10.068-13.71-8.509-2.69 12.335.12.067z" fill="url(#paint2_radial)"/><path d="M1322.13 233.295l-17.62-11.153 6.13-10.567 14.26 9.311-2.77 12.409z" fill="url(#paint3_radial)"/><path d="M1310.83 197.486l15.55 10.009.41-14.126-19.96-12.038 4 16.155z" fill="url(#paint4_radial)"/><path d="M1325.87 179.235l-19.73-11.28-1.13-13.189 18.82 10.187 2.04 14.282z" fill="url(#paint5_radial)"/><path d="M1320.7 150.672l-4.19-14.022-23.08-10.322 7.41 14.379 19.86 9.965z" fill="url(#paint6_radial)"/><path d="M1311.36 123.185l-27.88-11.265-.91-9.749 22.82 8.256 5.97 12.758z" fill="url(#paint7_radial)"/><path d="M1298.21 98.084l-7.87-10.968-25.1-5.789 9.51 9.831 23.46 6.926z" fill="url(#paint8_radial)"/><path d="M1281.92 77.44l-9.01-8.18-26.05-2.408 10.63 6.546 24.43 4.043z" fill="url(#paint9_radial)"/><path d="M1263.73 62.965l-9.57-4.444-27.13 1.784 11.31 2.363 25.39.297z" fill="url(#paint10_radial)"/><path d="M1245.2 56.196l-10.27-.528-22.76 5.075 12.56-1.278 20.47-3.27z" fill="url(#paint11_radial)"/><path d="M1297.04 258.56l10.4 4.361-6.93 6.28-14.37-3.396 10.9-7.245z" fill="url(#paint12_radial)"/><path d="M1293.73 273.644l-12.66 4.406-5.11.06 8.92-5.618 8.85 1.152z" fill="url(#paint13_radial)"/><path d="M1376.74 219.153l-17.93 14.981-5.03 9.853 19.02-13.494 3.94-11.34z" fill="url(#paint14_radial)"/><path d="M1367.8 240.361l-19.9 11.956-6.56 6.443 20.45-10.076 6.01-8.323z" fill="url(#paint15_radial)"/><path d="M1354.84 255.119l-21.73 8.791-10.95 3.403 25.16-7.312 7.52-4.882z" fill="url(#paint16_radial)"/><path d="M1362.85 222.772l2.83-12.506 15.43-16.987-1.57 13.361-16.69 16.132z" fill="url(#paint17_radial)"/><path d="M1367.11 196.802l.34-14.074 13.02-17.745.96 14.164-14.32 17.655z" fill="url(#paint18_radial)"/><path d="M1366.57 168.84l-2.07-14.401 10.97-17.96 3.12 14.319-12.02 18.042z" fill="url(#paint19_radial)"/><path d="M1361.51 140.001l9.79-17.589-5.18-13.353-8.84 17.046 4.23 13.896z" fill="url(#paint20_radial)"/><path d="M1352.08 112.595l8.06-16.452-7.11-12.268-6.94 15.88 5.99 12.84z" fill="url(#paint21_radial)"/><path d="M1338.88 87.494l6.22-14.557-8.49-9.742-5.56 13.413 7.83 10.886z" fill="url(#paint22_radial)"/><path d="M1322.83 66.852l4.89-11.838-9.18-6.316-4.89 10.069 9.18 8.085z" fill="url(#paint23_radial)"/><path d="M1304.36 52.502l4.85-8.18-9.03-2.61-5.2 6.272 9.38 4.518z" fill="url(#paint24_radial)"/><path d="M1291.5 41.089l-5.37 4.525-9.53-.557 2.57-1.635 12.33-2.333z" fill="url(#paint25_radial)"/><path d="M1201.12 199.73l8.71-2.259c-.01-.015-.02-.03-.02-.037l-8.7 2.258c.01.008.01.023.01.038z" fill="#878787"/><path d="M1201.11 199.686l8.7-2.259-.09-.231-8.7 2.259c.03.082.06.156.09.231z" fill="#848484"/><path d="M1201.02 199.455l8.7-2.259-.06-.208-8.71 2.259c.03.067.05.142.07.208z" fill="gray"/><path d="M1200.95 199.247l8.7-2.259c-.02-.067-.03-.134-.05-.201l-8.71 2.259c.03.067.04.134.06.201z" fill="#7D7D7D"/><path d="M1200.89 199.039l8.7-2.259c-.01-.067-.03-.134-.04-.201l-8.7 2.259c.01.074.03.141.04.201z" fill="#797979"/><path d="M1200.85 198.845l8.7-2.259c-.01-.066-.03-.133-.04-.2l-8.7 2.259c.01.067.03.134.04.2z" fill="#757575"/><path d="M1200.81 198.645l8.71-2.259a.698.698 0 0 1-.03-.2l-8.71 2.258.03.201z" fill="#727272"/><path d="M1200.77 198.444l8.71-2.258-.03-.208-8.7 2.258c.01.067.02.142.02.208z" fill="#6E6E6E"/><path d="M1200.75 198.236l8.71-2.259c-.01-.074-.02-.148-.02-.215l-8.7 2.259c0 .074.01.141.01.215z" fill="#6B6B6B"/><path d="M1200.74 198.021l8.7-2.259c-.01-.082-.01-.156-.01-.231l-8.7 2.259c0 .074 0 .156.01.231z" fill="#676767"/><path d="M1200.73 197.791l8.7-2.259c0-.09 0-.171.01-.261l-8.7 2.26c0 .081-.01.17-.01.26z" fill="#646464"/><path d="M1200.74 197.529l8.7-2.259.03-.304-8.7 2.259-.03.304z" fill="#606060"/><path d="M1200.77 197.225l8.7-2.259c.11-.75.43-1.337.95-1.545l-8.71 2.259c-.51.208-.84.795-.94 1.545z" fill="#5D5D5D"/><path d="M1196.72 179.555l8.7-2.259h-.02l-8.7 2.259c.01.007.02.007.02 0z" fill="#6E6E6E"/><path d="M1196.71 179.563l8.7-2.259-.12.022-8.7 2.259.12-.022z" fill="#727272"/><path d="M1196.59 179.584l8.7-2.259c-.04.008-.08.008-.12.008l-8.7 2.259c.04 0 .08 0 .12-.008z" fill="#757575"/><path d="M1196.47 179.592l8.7-2.259c-.04 0-.08 0-.12-.008l-8.71 2.259c.04.008.09.008.13.008z" fill="#797979"/><path d="M1196.34 179.585l8.71-2.259c-.05-.007-.09-.007-.13-.022l-8.7 2.259c.04.015.08.022.12.022z" fill="#7D7D7D"/><path d="M1196.22 179.563l8.7-2.259c-.04-.008-.09-.023-.14-.037l-8.7 2.259c.04.014.09.029.14.037z" fill="gray"/><path d="M1196.08 179.525l8.7-2.259a.781.781 0 0 1-.15-.059l-8.7 2.259c.04.03.09.045.15.059z" fill="#848484"/><path d="M1195.93 179.466l8.7-2.259-.18-.089-8.7 2.259c.06.037.12.067.18.089z" fill="#878787"/><path d="M1195.75 179.377l8.7-2.259a2.124 2.124 0 0 1-.22-.156l-8.7 2.259c.07.059.15.111.22.156z" fill="#8B8B8B"/><path d="M1195.53 179.229l8.7-2.259a1.68 1.68 0 0 1-.25-.23c-.2-.201-.39-.454-.55-.736l-8.7 2.259c.16.282.34.535.55.735.08.082.16.156.25.231z" fill="#8E8E8E"/><path d="M1194.72 178.255l8.71-2.259a1.89 1.89 0 0 1-.16-.305l-8.7 2.259c.05.112.1.208.15.305z" fill="#8B8B8B"/><path d="M1194.57 177.958l8.7-2.259c-.04-.081-.07-.163-.11-.245l-8.7 2.259c.04.082.07.163.11.245z" fill="#878787"/><path d="M1194.46 177.705l8.7-2.259c-.03-.075-.06-.149-.08-.223l-8.7 2.259c.02.074.05.148.08.223z" fill="#848484"/><path d="M1194.38 177.481l8.7-2.259c-.02-.067-.05-.141-.07-.215l-8.7 2.259c.01.074.04.148.07.215z" fill="gray"/><path d="M1194.3 177.267l8.7-2.259c-.02-.067-.03-.141-.06-.208l-8.7 2.259c.03.074.04.141.06.208z" fill="#7D7D7D"/><path d="M1194.24 177.058l8.7-2.259c0-.03-.01-.052-.02-.082-.27-1.114-.53-2.237-.78-3.359l-8.7 2.259c.25 1.13.51 2.245.78 3.359.01.03.02.06.02.082z" fill="#797979"/><path d="M1193.44 173.625l8.7-2.259c-.39-1.783-.75-3.581-1.08-5.394l-8.7 2.259c.33 1.805.69 3.604 1.08 5.394z" fill="#757575"/><path d="M1192.37 168.223l8.7-2.259c-.33-1.82-.62-3.663-.87-5.506l-8.7 2.259c.25 1.843.54 3.686.87 5.506z" fill="#727272"/><path d="M1191.5 162.717l8.7-2.259c-.06-.476-.12-.959-.19-1.435-.18-1.419-.34-2.823-.47-4.22l-8.7 2.259c.13 1.397.29 2.801.47 4.22.06.476.12.952.19 1.435z" fill="#6E6E6E"/><path d="M1190.84 157.062l8.7-2.259c-.18-1.97-.33-3.924-.42-5.841l-8.7 2.259c.09 1.917.23 3.864.42 5.841z" fill="#6B6B6B"/><path d="M1190.42 151.214l8.7-2.259a101.9 101.9 0 0 1-.14-4.585l-8.71 2.259c.02 1.509.07 3.039.15 4.585zM1190.27 146.628l8.71-2.259v-.059l-8.71 2.259v.059z" fill="#676767"/><path d="M1190.27 146.569l8.71-2.259v-.26l-8.7 2.259c-.01.082-.01.171-.01.26z" fill="#646464"/><path d="M1190.28 146.309l8.7-2.259.03-.312-8.7 2.259-.03.312z" fill="#606060"/><path d="M1190.32 145.997l8.7-2.259c.12-.855.53-1.427 1.07-1.568l-8.7 2.259c-.54.141-.95.713-1.07 1.568z" fill="#5D5D5D"/><path d="M1217.22 226.005l8.71-2.259h-.02l-8.7 2.259h.01z" fill="#6E6E6E"/><path d="M1217.21 226.005l8.7-2.259c-.03.008-.08.015-.12.022l-8.7 2.259c.05 0 .08-.007.12-.022z" fill="#727272"/><path d="M1217.09 226.027l8.7-2.259c-.03.007-.08.007-.12.007l-8.7 2.259c.04 0 .08 0 .12-.007z" fill="#757575"/><path d="M1216.97 226.034l8.7-2.259c-.04 0-.08 0-.12-.007l-8.7 2.259c.04.007.08.015.12.007z" fill="#797979"/><path d="M1216.85 226.034l8.7-2.259c-.05-.007-.09-.015-.13-.022l-8.71 2.259.14.022z" fill="#7D7D7D"/><path d="M1216.71 226.012l8.7-2.259c-.04-.007-.08-.022-.14-.037l-8.7 2.259c.05.015.1.029.14.037z" fill="gray"/><path d="M1216.58 225.975l8.7-2.259c-.05-.015-.1-.037-.15-.06l-8.7 2.259c.05.023.1.045.15.06z" fill="#848484"/><path d="M1216.42 225.916l8.71-2.259c-.06-.023-.12-.06-.18-.09l-8.7 2.259c.06.03.11.06.17.09z" fill="#878787"/><path d="M1216.25 225.826l8.7-2.258a4.061 4.061 0 0 1-.22-.149l-8.7 2.259c.07.052.15.104.22.148z" fill="#8B8B8B"/><path d="M1216.03 225.67l8.7-2.259a3.053 3.053 0 0 1-.24-.223 5.42 5.42 0 0 1-.27-.312c-2.65-3.5-5.2-7.364-7.6-11.569l-8.7 2.259c2.4 4.205 4.94 8.069 7.6 11.569.09.119.18.223.26.312.09.082.17.157.25.223z" fill="#8E8E8E"/><path d="M1207.92 213.566l8.7-2.259c-.13-.238-.26-.468-.4-.706-1.39-2.482-2.7-5.016-3.92-7.594l-8.7 2.259c1.22 2.578 2.53 5.112 3.92 7.594.13.238.27.476.4.706z" fill="#8B8B8B"/><path d="M1203.6 205.265l8.7-2.259a135.1 135.1 0 0 1-2.48-5.543l-8.7 2.259c.79 1.872 1.62 3.723 2.48 5.543z" fill="#878787"/><path d="M1195.35 126.856l8.7-2.259c-.01-.008-.03-.023-.04-.037l-8.7 2.259c.01.014.03.022.04.037z" fill="#8B8B8B"/><path d="M1195.31 126.818l8.7-2.259c-.09-.066-.17-.148-.26-.23l-8.7 2.259c.08.089.17.164.26.23z" fill="#8E8E8E"/><path d="M1201.71 195.68l8.7-2.259 23.66-9.704-8.7 2.259-23.66 9.704z" fill="#595959"/><path d="M1225.37 185.975l8.7-2.259c.05-.022.1-.037.14-.044l-8.7 2.259a.634.634 0 0 0-.14.044z" fill="#5D5D5D"/><path d="M1195.05 126.589l8.7-2.259c-.2-.208-.38-.454-.54-.728l-8.7 2.258c.16.275.33.521.54.729z" fill="#8E8E8E"/><path d="M1194.51 125.86l8.7-2.259a4.607 4.607 0 0 1-.16-.312l-8.7 2.259c.04.104.1.208.16.312z" fill="#8B8B8B"/><path d="M1194.35 125.549l8.7-2.259a2.768 2.768 0 0 1-.11-.253l-8.7 2.259c.03.082.06.171.11.253z" fill="#878787"/><path d="M1194.24 125.296l8.7-2.259a7.969 7.969 0 0 1-.09-.23l-8.7 2.259c.03.074.05.156.09.23z" fill="#848484"/><path d="M1194.15 125.065l8.7-2.259c-.02-.074-.05-.141-.08-.215l-8.7 2.259c.02.074.05.141.08.215z" fill="gray"/><path d="M1194.07 124.85l8.7-2.259c-.02-.067-.03-.141-.06-.208l-8.7 2.259.06.208z" fill="#7D7D7D"/><path d="M1194.01 124.641l8.7-2.259c-.01-.067-.03-.133-.05-.2l-8.7 2.259c.02.067.04.133.05.2z" fill="#797979"/><path d="M1193.97 124.434l8.7-2.259c-.01-.067-.03-.134-.04-.2l-8.7 2.259c.01.066.02.133.04.2z" fill="#757575"/><path d="M1193.92 124.233l8.7-2.259c-.01-.067-.02-.134-.02-.201l-8.71 2.259c.01.067.03.134.03.201z" fill="#727272"/><path d="M1193.89 124.032l8.7-2.259c0-.066-.01-.141-.02-.208l-8.7 2.259c.01.067.02.142.02.208z" fill="#6E6E6E"/><path d="M1193.87 123.824l8.7-2.259c0-.074-.01-.141-.01-.215l-8.7 2.258c0 .075 0 .142.01.216z" fill="#6B6B6B"/><path d="M1193.86 123.609l8.7-2.259c-.01-.074-.01-.156-.01-.23l-8.7 2.259c0 .074 0 .156.01.23z" fill="#676767"/><path d="M1193.85 123.379l8.7-2.259c0-.082 0-.171.01-.253l-8.7 2.259c-.01.082-.01.171-.01.253z" fill="#646464"/><path d="M1193.86 123.126l8.7-2.259c.01-.104.01-.208.03-.305l-8.7 2.259c-.02.097-.03.201-.03.305z" fill="#606060"/><path d="M1193.89 122.821l8.7-2.259c.02-.126.05-.26.08-.379 1.13-4.176 2.56-8.114 4.32-11.748 1.66-3.433 3.53-6.442 5.59-9.05.18-.23.39-.365.62-.424l-8.71 2.259c-.23.059-.43.201-.61.423-2.05 2.601-3.93 5.618-5.59 9.051-1.76 3.634-3.2 7.572-4.32 11.748-.03.119-.06.246-.08.379z" fill="#5D5D5D"/><path d="M1221.65 146.421l8.7-2.259-26.3-19.565-8.7 2.259 26.3 19.565z" fill="#979797"/><path d="M1222.79 146.726l8.7-2.259h-.01l-8.7 2.259c0 .007.01.007.01 0z" fill="#6E6E6E"/><path d="M1222.78 146.733l8.71-2.259-.12.022-8.7 2.259.11-.022z" fill="#727272"/><path d="M1222.67 146.755l8.7-2.259c-.04.008-.08.008-.12.008l-8.7 2.259c.04 0 .08-.008.12-.008z" fill="#757575"/><path d="M1222.55 146.763l8.71-2.259c-.04 0-.09 0-.12-.008l-8.7 2.259c.03.008.07.008.11.008z" fill="#797979"/><path d="M1222.43 146.755l8.71-2.259c-.05-.008-.09-.008-.13-.022l-8.7 2.259c.04.014.08.014.12.022z" fill="#7D7D7D"/><path d="M1222.31 146.733l8.7-2.259a1.056 1.056 0 0 1-.13-.037l-8.71 2.258c.05.015.09.03.14.038z" fill="gray"/><path d="M1222.17 146.695l8.71-2.259c-.06-.014-.11-.037-.16-.059l-8.7 2.259c.05.022.1.045.15.059z" fill="#848484"/><path d="M1222.02 146.636l8.7-2.259c-.06-.03-.12-.06-.18-.097l-8.7 2.259c.05.037.11.067.18.097z" fill="#878787"/><path d="M1221.83 146.54l8.7-2.259c-.05-.038-.11-.075-.18-.127l-8.7 2.259c.06.052.12.089.18.127z" fill="#8B8B8B"/><path d="M1226.08 164.924l8.7-2.259c.23-.81.67-1.293 1.21-1.435l-8.7 2.26c-.53.141-.98.631-1.21 1.434z" fill="#5D5D5D"/><path d="M1229.18 170.742l8.7-2.259c-.01 0-.01 0-.02.008l-8.7 2.259s.01 0 .02-.008z" fill="#6E6E6E"/><path d="M1229.16 170.75l8.7-2.259a.72.72 0 0 1-.15.03l-8.7 2.259c.05-.008.1-.015.15-.03z" fill="#727272"/><path d="M1229.01 170.779l8.7-2.258c-.05.007-.09.007-.15.007l-8.7 2.259c.05 0 .1-.008.15-.008z" fill="#757575"/><path d="M1228.86 170.787l8.71-2.259c-.06 0-.11 0-.16-.007l-8.7 2.258c.05.008.1.008.15.008z" fill="#797979"/><path d="M1228.71 170.779l8.71-2.259c-.06-.007-.11-.015-.16-.022l-8.7 2.259c.04.007.1.015.15.022z" fill="#7D7D7D"/><path d="M1228.55 170.758l8.7-2.259-.17-.045-8.7 2.259.17.045z" fill="gray"/><path d="M1228.38 170.705l8.7-2.259c-.06-.022-.13-.044-.19-.074l-8.7 2.259c.07.03.13.059.19.074z" fill="#848484"/><path d="M1228.19 170.638l8.71-2.259c-.07-.03-.15-.067-.21-.111l-8.7 2.259c.06.037.14.074.2.111z" fill="#878787"/><path d="M1227.99 170.527l8.7-2.259c-.09-.052-.18-.119-.28-.186l-8.7 2.259c.09.067.19.126.28.186z" fill="#8B8B8B"/><path d="M1227.71 170.334l8.7-2.259c-.1-.082-.21-.171-.31-.282-.25-.26-.47-.565-.67-.899l-8.7 2.266c.19.342.42.646.67.899.1.104.21.193.31.275z" fill="#8E8E8E"/><path d="M1226.73 169.159l8.7-2.259c-.06-.118-.13-.245-.19-.379l-8.7 2.259c.06.127.12.253.19.379z" fill="#8B8B8B"/><path d="M1226.54 168.781l8.7-2.259c-.05-.104-.1-.208-.14-.312l-8.7 2.259c.04.104.08.208.14.312z" fill="#878787"/><path d="M1226.4 168.469l8.7-2.259a2.577 2.577 0 0 1-.11-.282l-8.7 2.259c.04.096.07.193.11.282z" fill="#848484"/><path d="M1226.29 168.194l8.7-2.259-.09-.26-8.7 2.259c.03.082.06.171.09.26z" fill="gray"/><path d="M1226.21 167.926l8.7-2.259c-.02-.082-.05-.171-.07-.253l-8.7 2.259c.02.089.04.171.07.253z" fill="#7D7D7D"/><path d="M1226.14 167.673l8.7-2.259c-.02-.082-.05-.164-.06-.253l-8.7 2.259c.01.089.03.171.06.253z" fill="#797979"/><path d="M1226.08 167.428l8.7-2.259c-.02-.082-.04-.163-.05-.245l-8.71 2.259c.02.074.03.156.06.245z" fill="#757575"/><path d="M1226.03 167.176l8.7-2.259a1.995 1.995 0 0 1-.04-.253l-8.7 2.259c.01.089.02.171.04.253z" fill="#727272"/><path d="M1225.99 166.923l8.7-2.259c-.02-.082-.02-.171-.03-.253l-8.7 2.259c0 .082.01.171.03.253z" fill="#6E6E6E"/><path d="M1225.96 166.67l8.7-2.259c-.01-.089-.02-.178-.02-.267l-8.7 2.259c0 .089.01.178.02.267z" fill="#6B6B6B"/><path d="M1225.94 166.403l8.7-2.259c-.01-.097-.01-.186-.01-.283l-8.7 2.259c0 .097.01.186.01.283z" fill="#676767"/><path d="M1225.93 166.12l8.7-2.259c0-.104 0-.208.01-.312l-8.7 2.259c0 .104-.01.208-.01.312z" fill="#646464"/><path d="M1225.94 165.808l8.7-2.259c.01-.126.03-.252.04-.371l-8.7 2.259c-.02.119-.03.245-.04.371z" fill="#606060"/><path d="M1225.97 165.437l8.71-2.259c.02-.179.06-.349.1-.513l-8.7 2.259c-.05.164-.08.335-.11.513z" fill="#5D5D5D"/><path d="M1249.92 249.331l8.7-2.259h-.01l-8.7 2.259h.01z" fill="#6E6E6E"/><path d="M1249.91 249.331l8.7-2.259-.12.023-8.7 2.259.12-.023z" fill="#727272"/><path d="M1249.8 249.354l8.7-2.259c-.04.007-.08.007-.12.007l-8.7 2.259c.03 0 .07 0 .12-.007z" fill="#757575"/><path d="M1249.67 249.361l8.7-2.259c-.04 0-.08 0-.13-.007l-8.7 2.259c.05.007.09.007.13.007z" fill="#797979"/><path d="M1249.54 249.354l8.7-2.259c-.01 0-.03-.007-.05-.007-.71-.104-1.43-.231-2.15-.387l-8.71 2.259c.73.156 1.45.283 2.16.387.02.007.04.007.05.007z" fill="#7D7D7D"/><path d="M1247.35 248.967l8.7-2.259c-1.23-.26-2.47-.594-3.72-1.003l-8.7 2.259c1.25.409 2.49.743 3.72 1.003z" fill="gray"/><path d="M1243.63 247.964l8.7-2.259a39.563 39.563 0 0 1-3.95-1.531c-.06-.022-.11-.052-.17-.074l-8.7 2.259c.05.022.11.052.17.074 1.32.594 2.64 1.1 3.95 1.531z" fill="#848484"/><path d="M1239.51 246.358l8.7-2.259a48.093 48.093 0 0 1-4.71-2.459l-8.7 2.259c1.54.921 3.12 1.746 4.71 2.459z" fill="#878787"/><path d="M1234.79 243.899l8.7-2.259a54.052 54.052 0 0 1-4.39-2.913c-.02-.015-.03-.03-.06-.044l-8.7 2.259.06.044a58.19 58.19 0 0 0 4.39 2.913z" fill="#8B8B8B"/><path d="M1230.35 240.942l8.7-2.259a1.687 1.687 0 0 1-.25-.231 3.99 3.99 0 0 1-.54-.721l-8.7 2.259c.16.275.34.521.54.721.08.089.16.164.25.231z" fill="#8E8E8E"/><path d="M1229.56 239.99l8.7-2.259c-.06-.096-.11-.2-.16-.304l-8.7 2.259c.05.104.1.208.16.304z" fill="#8B8B8B"/><path d="M1229.4 239.686l8.7-2.259c-.04-.081-.07-.17-.11-.252l-8.7 2.259c.03.082.07.171.11.252z" fill="#878787"/><path d="M1229.29 239.433l8.7-2.259c-.03-.075-.06-.149-.09-.231l-8.7 2.259c.03.075.06.149.09.231z" fill="#848484"/><path d="M1229.2 239.203l8.7-2.259c-.02-.074-.05-.141-.07-.215l-8.71 2.259c.03.074.06.141.08.215z" fill="gray"/><path d="M1229.13 238.988l8.7-2.259-.06-.208-8.7 2.259.06.208z" fill="#7D7D7D"/><path d="M1229.07 238.779l8.7-2.259c-.01-.067-.04-.134-.05-.201l-8.7 2.259c.01.067.03.134.05.201z" fill="#797979"/><path d="M1229.02 238.571l8.7-2.259c-.01-.067-.03-.134-.04-.201l-8.7 2.259c.01.067.03.134.04.201z" fill="#757575"/><path d="M1228.98 238.37l8.7-2.259-.03-.208-8.7 2.259.03.208z" fill="#727272"/><path d="M1228.94 238.162l8.71-2.259-.03-.208-8.7 2.259c.01.075.02.141.02.208z" fill="#6E6E6E"/><path d="M1228.92 237.954l8.7-2.259c0-.074-.01-.149-.01-.216l-8.7 2.259c0 .075.01.142.01.216z" fill="#6B6B6B"/><path d="M1228.91 237.738l8.7-2.259c-.01-.074-.01-.156-.01-.23l-8.7 2.259c0 .074 0 .156.01.23z" fill="#676767"/><path d="M1228.9 237.509l8.7-2.259c0-.089 0-.171.01-.253l-8.7 2.259c0 .082-.01.164-.01.253z" fill="#646464"/><path d="M1228.91 237.248l8.7-2.259c.01-.104.01-.208.03-.304l-8.7 2.259-.03.304z" fill="#606060"/><path d="M1228.94 236.944l8.7-2.259c.02-.134.05-.268.08-.394l-8.7 2.259c-.04.126-.07.26-.08.394z" fill="#5D5D5D"/><path d="M1229.03 236.55l8.7-2.259 9.5-34.643-8.7 2.259-9.5 34.643z" fill="#5F5F5F"/><path d="M1238.53 201.907l8.7-2.259c.2-.706.55-1.085.98-1.197l-8.71 2.259c-.42.112-.78.491-.97 1.197z" fill="#5D5D5D"/><path d="M1235.36 188.539l8.7-2.259c-.25-.26-.48-.565-.67-.899l-8.7 2.259c.19.334.42.639.67.899z" fill="#8E8E8E"/><path d="M1234.69 187.632l8.7-2.259c-.06-.119-.13-.245-.19-.379l-8.7 2.259c.05.134.12.26.19.379z" fill="#8B8B8B"/><path d="M1234.49 187.261l8.7-2.259c-.05-.104-.1-.209-.13-.313l-8.7 2.259c.03.104.09.208.13.313z" fill="#878787"/><path d="M1234.36 186.949l8.7-2.259c-.04-.09-.08-.186-.11-.283l-8.7 2.259c.03.097.07.193.11.283z" fill="#848484"/><path d="M1234.24 186.667l8.71-2.259-.09-.261-8.7 2.259c.02.09.05.179.08.261z" fill="gray"/><path d="M1234.16 186.406l8.7-2.259c-.02-.082-.05-.171-.07-.252l-8.7 2.258c.02.082.04.171.07.253z" fill="#7D7D7D"/><path d="M1234.09 186.153l8.7-2.259c-.02-.081-.05-.163-.06-.252l-8.7 2.259c.02.089.04.171.06.252z" fill="#797979"/><path d="M1234.03 185.9l8.7-2.258a2.145 2.145 0 0 1-.05-.246l-8.7 2.259c.01.082.03.164.05.245z" fill="#757575"/><path d="M1233.98 185.655l8.7-2.259a1.98 1.98 0 0 1-.04-.252l-8.7 2.258c.01.09.02.171.04.253z" fill="#727272"/><path d="M1233.94 185.403l8.7-2.259c-.02-.081-.02-.171-.03-.252l-8.7 2.259.03.252z" fill="#6E6E6E"/><path d="M1233.91 185.151l8.7-2.259c-.01-.09-.01-.179-.02-.268l-8.7 2.259c0 .089.01.178.02.268z" fill="#6B6B6B"/><path d="M1233.89 184.883l8.71-2.259c-.01-.096-.01-.186-.01-.282l-8.7 2.259v.282z" fill="#676767"/><path d="M1233.89 184.6l8.7-2.259c0-.104 0-.208.01-.312l-8.71 2.259v.312z" fill="#646464"/><path d="M1233.9 184.288l8.7-2.258c0-.127.02-.253.03-.372l-8.7 2.259c-.01.119-.03.245-.03.371z" fill="#606060"/><path d="M1233.93 183.917l8.7-2.259c.02-.179.06-.349.1-.513.23-.802.67-1.293 1.21-1.434l-8.71 2.259c-.53.141-.98.624-1.2 1.434-.04.164-.07.334-.1.513z" fill="#5D5D5D"/><path d="M1237.13 189.223l8.7-2.259c-.01 0-.01 0-.02.007l-8.7 2.259c.01-.007.01-.007.02-.007z" fill="#6E6E6E"/><path d="M1237.11 189.231l8.7-2.259a.665.665 0 0 1-.15.029l-8.7 2.259c.06-.015.1-.022.15-.029z" fill="#727272"/><path d="M1236.96 189.252l8.7-2.259c-.05.008-.09.008-.14.008l-8.71 2.258c.06.008.11 0 .15-.007z" fill="#757575"/><path d="M1236.82 189.267l8.7-2.259c-.06 0-.11 0-.16-.007l-8.7 2.259c.06 0 .1.007.16.007z" fill="#797979"/><path d="M1236.67 189.26l8.7-2.259c-.05-.008-.11-.015-.16-.022l-8.7 2.258c.04.008.1.015.16.023z" fill="#7D7D7D"/><path d="M1236.5 189.23l8.71-2.259c-.06-.015-.12-.029-.17-.044l-8.71 2.259c.06.022.12.037.17.044z" fill="gray"/><path d="M1236.33 189.186l8.7-2.259a1.951 1.951 0 0 1-.18-.074l-8.7 2.259c.06.029.12.052.18.074z" fill="#848484"/><path d="M1236.15 189.112l8.7-2.259c-.07-.03-.14-.067-.21-.112l-8.7 2.259c.06.045.14.082.21.112z" fill="#878787"/><path d="M1235.94 189l8.7-2.259c-.09-.052-.18-.118-.28-.185l-8.7 2.259c.09.074.19.133.28.185z" fill="#8B8B8B"/><path d="M1235.66 188.814l8.7-2.259c-.1-.082-.2-.171-.3-.275l-8.7 2.259c.1.104.2.193.3.275z" fill="#8E8E8E"/><path d="M1230.58 148.754l8.7-2.259c.23-.803.67-1.293 1.2-1.434l-8.7 2.259c-.53.141-.97.631-1.2 1.434z" fill="#5D5D5D"/><path d="M1233.67 154.572l8.7-2.259c-.01 0-.01 0-.01.008l-8.7 2.259c0-.008 0-.008.01-.008z" fill="#6E6E6E"/><path d="M1233.65 154.579l8.7-2.259a.996.996 0 0 1-.15.03l-8.7 2.259c.05-.015.1-.022.15-.03z" fill="#727272"/><path d="M1233.51 154.602l8.7-2.259c-.05.007-.1.007-.15.007l-8.7 2.259c.04 0 .09 0 .15-.007z" fill="#757575"/><path d="M1233.36 154.617l8.7-2.259c-.05 0-.1 0-.16-.007l-8.7 2.259c.05 0 .11.007.16.007z" fill="#797979"/><path d="M1233.2 154.609l8.7-2.259-.15-.022-8.71 2.259.16.022z" fill="#7D7D7D"/><path d="M1233.05 154.58l8.7-2.259-.17-.045-8.71 2.259c.06.023.12.037.18.045z" fill="gray"/><path d="M1232.87 154.535l8.71-2.259c-.06-.022-.13-.044-.19-.074l-8.7 2.259c.06.03.12.052.18.074z" fill="#848484"/><path d="M1232.69 154.461l8.7-2.259a1.42 1.42 0 0 1-.21-.111l-8.7 2.259c.07.044.13.082.21.111z" fill="#878787"/><path d="M1232.47 154.349l8.7-2.259c-.09-.052-.17-.119-.27-.186l-8.7 2.259c.09.075.18.134.27.186z" fill="#8B8B8B"/><path d="M1232.21 154.164l8.7-2.259a2.483 2.483 0 0 1-.31-.275c-.26-.26-.48-.565-.67-.9l-8.71 2.259c.2.335.42.647.67.9.11.104.21.193.32.275z" fill="#8E8E8E"/><path d="M1231.23 152.982l8.7-2.259a3.865 3.865 0 0 1-.2-.379l-8.7 2.259c.06.133.13.26.2.379z" fill="#8B8B8B"/><path d="M1231.03 152.61l8.7-2.259c-.05-.104-.09-.208-.13-.312l-8.7 2.259c.03.104.08.208.13.312z" fill="#878787"/><path d="M1230.89 152.299l8.7-2.259c-.03-.09-.07-.186-.1-.275l-8.7 2.259c.03.089.06.185.1.275z" fill="#848484"/><path d="M1230.79 152.016l8.7-2.259-.09-.26-8.7 2.259c.03.089.06.178.09.26z" fill="gray"/><path d="M1230.7 151.756l8.7-2.259a2.463 2.463 0 0 0-.08-.253l-8.7 2.259c.03.082.05.171.08.253z" fill="#7D7D7D"/><path d="M1230.63 151.504l8.7-2.259c-.02-.082-.04-.164-.06-.253l-8.7 2.259c.02.089.04.171.06.253z" fill="#797979"/><path d="M1230.57 151.251l8.7-2.259c-.01-.081-.04-.163-.05-.245l-8.7 2.259c.01.082.03.164.05.245z" fill="#757575"/><path d="M1230.52 151.006l8.7-2.259c-.01-.082-.03-.164-.04-.253l-8.7 2.259c.01.082.03.171.04.253z" fill="#727272"/><path d="M1230.48 150.753l8.7-2.259-.03-.253-8.7 2.259.03.253z" fill="#6E6E6E"/><path d="M1230.45 150.5l8.7-2.259c0-.089-.01-.178-.02-.267l-8.7 2.259c.01.089.01.178.02.267z" fill="#6B6B6B"/><path d="M1230.43 150.233l8.7-2.259c-.01-.097-.01-.186-.01-.283l-8.7 2.259c0 .097 0 .186.01.283z" fill="#676767"/><path d="M1230.42 149.951l8.7-2.259c0-.104 0-.208.01-.312l-8.7 2.259c0 .104-.01.208-.01.312z" fill="#646464"/><path d="M1230.43 149.638l8.7-2.259c.01-.126.02-.252.04-.371l-8.7 2.259c-.02.119-.02.245-.04.371z" fill="#606060"/><path d="M1230.47 149.267l8.7-2.259c.02-.178.06-.349.1-.513l-8.7 2.259a4.05 4.05 0 0 0-.1.513z" fill="#5D5D5D"/><path d="M1238.15 178.825l8.7-2.258c-.8-.818-1.51-1.791-2.13-2.869l-8.7 2.259a13.857 13.857 0 0 0 2.13 2.868z" fill="#8E8E8E"/><path d="M1236.02 175.958l8.7-2.259c-.22-.386-.43-.787-.63-1.196l-8.7 2.259c.2.409.41.81.63 1.196z" fill="#8B8B8B"/><path d="M1235.39 174.762l8.71-2.259c-.16-.327-.3-.654-.44-.988l-8.7 2.259c.14.334.29.661.43.988z" fill="#878787"/><path d="M1234.96 173.773l8.7-2.259c-.11-.29-.23-.587-.33-.884l-8.7 2.259c.09.29.21.587.33.884z" fill="#848484"/><path d="M1234.62 172.882l8.7-2.259c-.09-.275-.18-.557-.27-.84l-8.7 2.259c.08.283.17.565.27.84z" fill="gray"/><path d="M1234.35 172.05l8.7-2.26c-.08-.267-.16-.535-.23-.81l-8.7 2.26c.07.267.15.542.23.81z" fill="#7D7D7D"/><path d="M1234.12 171.24l8.7-2.259c-.07-.26-.14-.528-.2-.795l-8.7 2.259c.07.267.13.535.2.795z" fill="#797979"/><path d="M1233.93 170.445l8.7-2.259c-.06-.26-.11-.527-.16-.788l-8.7 2.259c.05.261.1.528.16.788z" fill="#757575"/><path d="M1233.77 169.657l8.71-2.259c-.05-.268-.09-.535-.13-.795l-8.7 2.259c.03.26.07.527.12.795z" fill="#727272"/><path d="M1233.65 168.855l8.7-2.259c-.04-.275-.07-.543-.1-.818l-8.7 2.259c.02.275.06.55.1.818z" fill="#6E6E6E"/><path d="M1233.55 168.044l8.7-2.259c-.03-.283-.04-.565-.06-.847l-8.7 2.259c.02.282.03.564.06.847z" fill="#6B6B6B"/><path d="M1233.49 167.197l8.7-2.259c-.01-.304-.02-.602-.02-.899l-8.7 2.259c0 .297.01.595.02.899z" fill="#676767"/><path d="M1233.47 166.298l8.7-2.259c0-.335.02-.669.03-.996l-8.7 2.259c-.02.327-.03.654-.03.996z" fill="#646464"/><path d="M1233.5 165.295l8.7-2.259c.02-.401.07-.795.12-1.182l-8.7 2.259c-.06.387-.1.781-.12 1.182z" fill="#606060"/><path d="M1233.62 164.113l8.7-2.259c.08-.557.19-1.099.34-1.62.73-2.563 2.14-4.124 3.84-4.562l-8.71 2.259c-1.7.438-3.11 1.999-3.83 4.562-.14.521-.26 1.063-.34 1.62z" fill="#5D5D5D"/><path d="M1243.79 181.011l8.7-2.259c-.01.007-.03.007-.05.015l-8.7 2.259c.02-.008.04-.008.05-.015z" fill="#6E6E6E"/><path d="M1243.74 181.026l8.7-2.259c-.15.037-.3.066-.47.089l-8.7 2.259c.17-.023.32-.052.47-.089z" fill="#727272"/><path d="M1243.28 181.114l8.7-2.259c-.16.023-.31.03-.48.03l-8.7 2.259c.17 0 .32-.015.48-.03z" fill="#757575"/><path d="M1242.81 181.144l8.7-2.258c-.17 0-.32-.008-.49-.023l-8.7 2.259c.17.015.33.022.49.022z" fill="#797979"/><path d="M1242.32 181.123l8.7-2.259a3.946 3.946 0 0 1-.5-.082l-8.7 2.259c.16.037.33.067.5.082z" fill="#7D7D7D"/><path d="M1241.81 181.041l8.7-2.26a4.929 4.929 0 0 1-.54-.148l-8.71 2.259c.19.059.37.111.55.149z" fill="gray"/><path d="M1241.27 180.892l8.7-2.259c-.2-.067-.4-.141-.59-.231l-8.7 2.259c.2.09.39.171.59.231z" fill="#848484"/><path d="M1240.68 180.661l8.7-2.258a8.972 8.972 0 0 1-.68-.357l-8.7 2.259c.23.141.45.26.68.356z" fill="#878787"/><path d="M1240 180.312l8.7-2.259a7.567 7.567 0 0 1-.87-.602l-8.7 2.259c.29.231.58.431.87.602z" fill="#8B8B8B"/><path d="M1239.14 179.711l8.7-2.259c-.32-.26-.66-.558-.98-.885l-8.7 2.259c.32.327.65.625.98.885z" fill="#8E8E8E"/><path d="M1232.18 135.579l8.7-2.259-17-39.175-8.7 2.258 17 39.176z" fill="#8F8F8F"/><path d="M1215.18 96.404l8.7-2.259c-.01-.037-.03-.067-.04-.104l-8.7 2.259c.01.037.03.067.04.104z" fill="#878787"/><path d="M1215.14 96.3l8.7-2.26c-.03-.073-.06-.155-.09-.23l-8.7 2.26c.03.081.06.156.09.23z" fill="#848484"/><path d="M1215.05 96.07l8.7-2.259c-.02-.074-.05-.141-.07-.215l-8.7 2.259c.03.074.05.148.07.215z" fill="gray"/><path d="M1214.98 95.855l8.7-2.26c-.02-.066-.03-.133-.06-.207l-8.7 2.259c.02.074.04.14.06.208z" fill="#7D7D7D"/><path d="M1214.92 95.654l8.7-2.259c-.01-.067-.03-.134-.04-.2l-8.7 2.258c.01.067.02.134.04.2z" fill="#797979"/><path d="M1214.87 95.453l8.7-2.26c-.01-.066-.03-.133-.03-.2l-8.71 2.26c.02.066.03.133.04.2z" fill="#757575"/><path d="M1214.83 95.253l8.71-2.26a.697.697 0 0 1-.03-.2l-8.71 2.259.03.2z" fill="#727272"/><path d="M1214.8 95.052l8.7-2.259c0-.067-.01-.141-.02-.208l-8.7 2.259c0 .067.01.134.02.208z" fill="#6E6E6E"/><path d="M1214.77 94.844l8.71-2.26c-.01-.074-.02-.14-.02-.215l-8.7 2.26c.01.066.01.14.01.215z" fill="#6B6B6B"/><path d="M1214.76 94.628l8.7-2.259c-.01-.082-.01-.156-.01-.23l-8.7 2.259c.01.067.01.148.01.23z" fill="#676767"/><path d="M1214.76 94.39l8.7-2.259c0-.089 0-.17.01-.26l-8.7 2.26c-.01.088-.01.17-.01.26z" fill="#646464"/><path d="M1214.77 94.13l8.7-2.259c0-.111.01-.215.03-.32l-8.7 2.26c-.02.104-.03.215-.03.32z" fill="#606060"/><path d="M1214.79 93.81l8.71-2.258c.1-.714.4-1.278.88-1.501a27.57 27.57 0 0 1 4.96-1.806l-8.71 2.26a27.736 27.736 0 0 0-4.95 1.805c-.48.223-.78.787-.89 1.5z" fill="#5D5D5D"/><path d="M1234.41 137.333l8.7-2.259h-.02l-8.7 2.259c0 .008.01.008.02 0z" fill="#6E6E6E"/><path d="M1234.39 137.34l8.7-2.259-.12.022-8.71 2.259c.05-.007.09-.015.13-.022z" fill="#727272"/><path d="M1234.26 137.362l8.71-2.258c-.05.007-.09.007-.13.007l-8.7 2.259c.04 0 .09 0 .12-.008z" fill="#757575"/><path d="M1234.14 137.37l8.7-2.259c-.04 0-.08 0-.13-.007l-8.7 2.258c.05.008.09.008.13.008z" fill="#797979"/><path d="M1234.01 137.362l8.7-2.259-.13-.022-8.7 2.259c.04.015.09.022.13.022z" fill="#7D7D7D"/><path d="M1233.88 137.34l8.7-2.259a.905.905 0 0 1-.14-.037l-8.7 2.259c.04.015.09.03.14.037z" fill="gray"/><path d="M1233.74 137.304l8.7-2.259a1.3 1.3 0 0 1-.16-.06l-8.7 2.259c.05.023.1.045.16.06z" fill="#848484"/><path d="M1233.58 137.244l8.7-2.259c-.06-.03-.12-.06-.17-.089l-8.7 2.258c.05.03.11.067.17.09z" fill="#878787"/><path d="M1233.41 137.155l8.7-2.259a1.924 1.924 0 0 1-.21-.149l-8.71 2.259c.07.052.15.104.22.149z" fill="#8B8B8B"/><path d="M1233.19 136.999l8.7-2.259c-.08-.06-.16-.134-.24-.216a3.17 3.17 0 0 1-.53-.728l-8.71 2.259c.17.29.35.535.54.728.08.082.15.156.24.216z" fill="#8E8E8E"/><path d="M1232.41 136.062l8.71-2.259c-.06-.104-.12-.208-.18-.32l-8.7 2.259c.06.112.11.216.17.32z" fill="#8B8B8B"/><path d="M1232.25 135.743l8.7-2.259c-.02-.052-.05-.104-.07-.164l-8.7 2.259c.02.052.04.112.07.164z" fill="#878787"/><path d="M1263.11 246.886l8.7-2.259c-.2-.208-.38-.453-.55-.743l-8.7 2.259c.16.29.35.542.55.743z" fill="#8E8E8E"/><path d="M1262.55 246.143l8.71-2.259a3.35 3.35 0 0 1-.17-.305l-8.69 2.259c.04.104.1.208.15.305z" fill="#8B8B8B"/><path d="M1262.4 245.838l8.7-2.259a2.123 2.123 0 0 1-.11-.253l-8.7 2.259c.03.089.07.171.11.253z" fill="#878787"/><path d="M1262.29 245.585l8.7-2.259-.09-.222-8.7 2.258c.03.075.06.157.09.223z" fill="#848484"/><path d="M1262.2 245.362l8.7-2.259c-.03-.067-.05-.141-.07-.215l-8.7 2.259c.02.074.04.148.07.215z" fill="gray"/><path d="M1262.13 245.147l8.7-2.259-.06-.208-8.7 2.259c.02.074.04.141.06.208z" fill="#7D7D7D"/><path d="M1262.07 244.945l8.7-2.259c-.01-.067-.03-.134-.05-.208l-8.7 2.259c.01.074.04.141.05.208z" fill="#797979"/><path d="M1262.02 244.738l8.7-2.259c0-.015-.01-.03-.01-.044l-8.7 2.259c.01.014.01.029.01.044z" fill="#757575"/><path d="M1246.67 185.961l8.71-2.259c.23-.81.66-1.293 1.2-1.434l-8.7 2.258c-.53.142-.98.625-1.21 1.435z" fill="#5D5D5D"/><path d="M1249.77 191.778l8.7-2.258c-.01 0-.01 0-.02.007l-8.7 2.259c0-.008.01-.008.02-.008z" fill="#6E6E6E"/><path d="M1249.75 191.786l8.7-2.259a.66.66 0 0 1-.15.03l-8.7 2.259c.06-.015.1-.022.15-.03z" fill="#727272"/><path d="M1249.6 191.808l8.7-2.259c-.05.007-.09.007-.14.007l-8.71 2.259c.06 0 .1 0 .15-.007z" fill="#757575"/><path d="M1249.46 191.823l8.7-2.259c-.06 0-.11 0-.16-.007l-8.7 2.259c.05 0 .1.007.16.007z" fill="#797979"/><path d="M1249.3 191.815l8.7-2.259-.16-.022-8.7 2.259c.05.008.11.015.16.022z" fill="#7D7D7D"/><path d="M1249.14 191.786l8.7-2.259-.17-.045-8.7 2.259a.67.67 0 0 0 .17.045z" fill="gray"/><path d="M1248.97 191.742l8.7-2.259c-.06-.023-.12-.045-.18-.075l-8.71 2.259c.06.03.13.052.19.075z" fill="#848484"/><path d="M1248.78 191.667l8.71-2.259a2.274 2.274 0 0 1-.22-.111l-8.7 2.259c.07.045.15.082.21.111z" fill="#878787"/><path d="M1248.58 191.555l8.7-2.259c-.09-.052-.18-.119-.28-.186l-8.7 2.259c.09.075.18.134.28.186z" fill="#8B8B8B"/><path d="M1248.3 191.37l8.7-2.259a5.82 5.82 0 0 1-.31-.275c-.25-.26-.47-.565-.67-.899l-8.7 2.259c.2.334.42.646.67.899.1.104.21.193.31.275z" fill="#8E8E8E"/><path d="M1247.32 190.188l8.7-2.259c-.06-.119-.13-.245-.19-.379l-8.7 2.259c.06.134.13.26.19.379z" fill="#8B8B8B"/><path d="M1247.13 189.817l8.7-2.259c-.05-.104-.1-.208-.13-.312l-8.71 2.259c.04.104.09.208.14.312z" fill="#878787"/><path d="M1246.99 189.504l8.7-2.258c-.04-.09-.07-.186-.1-.275l-8.71 2.259c.04.089.07.178.11.274z" fill="#848484"/><path d="M1246.88 189.222l8.7-2.259c-.03-.089-.05-.171-.08-.26l-8.71 2.259c.03.089.06.178.09.26z" fill="gray"/><path d="M1246.8 188.962l8.7-2.259c-.02-.082-.05-.171-.07-.253l-8.7 2.259c.02.082.04.171.07.253z" fill="#7D7D7D"/><path d="M1246.73 188.709l8.7-2.259c-.02-.082-.05-.164-.06-.253l-8.7 2.259c.01.089.04.171.06.253z" fill="#797979"/><path d="M1246.67 188.457l8.7-2.259a2.086 2.086 0 0 1-.05-.245l-8.7 2.259c.01.082.02.164.05.245z" fill="#757575"/><path d="M1246.62 188.212l8.7-2.259a1.995 1.995 0 0 1-.04-.253l-8.7 2.259c.01.082.02.171.04.253z" fill="#727272"/><path d="M1246.58 187.959l8.7-2.259c-.02-.082-.02-.171-.03-.253l-8.7 2.259c.01.082.01.171.03.253z" fill="#6E6E6E"/><path d="M1246.55 187.706l8.7-2.259c-.01-.089-.01-.178-.02-.267l-8.7 2.259c0 .089.01.178.02.267z" fill="#6B6B6B"/><path d="M1246.53 187.439l8.7-2.259c-.01-.097-.01-.186-.01-.283l-8.7 2.259c0 .089.01.186.01.283z" fill="#676767"/><path d="M1246.52 187.156l8.7-2.259c0-.104 0-.208.01-.312l-8.7 2.259c0 .104-.01.208-.01.312z" fill="#646464"/><path d="M1246.53 186.844l8.7-2.259c.01-.126.03-.252.04-.371l-8.7 2.259c-.02.119-.03.245-.04.371z" fill="#606060"/><path d="M1246.57 186.473l8.7-2.259c.02-.178.06-.349.1-.513l-8.7 2.259a4.05 4.05 0 0 0-.1.513z" fill="#5D5D5D"/><path d="M1264.54 247.45l8.71-2.259h-.02l-8.7 2.259h.01z" fill="#6E6E6E"/><path d="M1264.53 247.45l8.7-2.259c-.03.008-.08.015-.12.023l-8.7 2.259a.34.34 0 0 0 .12-.023z" fill="#727272"/><path d="M1264.41 247.473l8.7-2.259c-.03.007-.08.007-.12.007l-8.7 2.259c.04 0 .08 0 .12-.007z" fill="#757575"/><path d="M1264.29 247.48l8.71-2.259c-.04 0-.09 0-.12-.007l-8.71 2.259a.75.75 0 0 0 .12.007z" fill="#797979"/><path d="M1264.17 247.48l8.71-2.258c-.05-.008-.09-.008-.13-.023l-8.7 2.259c.03.008.08.015.12.022z" fill="#7D7D7D"/><path d="M1264.04 247.458l8.7-2.259a.793.793 0 0 1-.13-.037l-8.7 2.259c.04.015.09.03.13.037z" fill="gray"/><path d="M1263.91 247.421l8.7-2.259a1.33 1.33 0 0 1-.15-.059l-8.7 2.259c.05.022.1.044.15.059z" fill="#848484"/><path d="M1263.76 247.362l8.7-2.259c-.06-.03-.12-.06-.17-.089l-8.7 2.259c.05.029.11.067.17.089z" fill="#878787"/><path d="M1263.59 247.272l8.7-2.259a1.859 1.859 0 0 1-.22-.156l-8.71 2.259c.08.06.15.112.23.156z" fill="#8B8B8B"/><path d="M1263.36 247.116l8.71-2.259a1.742 1.742 0 0 1-.26-.23l-8.7 2.259c.08.089.17.163.25.23z" fill="#8E8E8E"/><path d="M1262.01 244.694l8.7-2.259-9-42.846-8.7 2.259 9 42.846z" fill="#818181"/><path d="M1253.01 201.848l8.7-2.259a.518.518 0 0 1-.03-.171l-8.7 2.259c0 .052.01.112.03.171z" fill="#757575"/><path d="M1252.97 201.678l8.7-2.259a1.426 1.426 0 0 0-.04-.216l-8.7 2.259c.02.067.02.141.04.216z" fill="#727272"/><path d="M1252.93 201.462l8.7-2.259c-.01-.075-.01-.149-.02-.216l-8.7 2.259c.01.067.01.141.02.216z" fill="#6E6E6E"/><path d="M1252.91 201.239l8.7-2.259c-.01-.074-.01-.148-.01-.215l-8.71 2.259c0 .074.01.141.02.215z" fill="#6B6B6B"/><path d="M1252.89 201.023l8.71-2.259c-.01-.074-.01-.149-.01-.223l-8.7 2.259v.223z" fill="#676767"/><path d="M1252.89 200.8l8.7-2.259c0-.089 0-.171.01-.253l-8.71 2.259v.253z" fill="#646464"/><path d="M1252.89 200.548l8.71-2.259c0-.104.01-.208.03-.305l-8.71 2.259c0 .097-.02.201-.03.305z" fill="#606060"/><path d="M1252.93 200.243l8.7-2.259c.13-.862.55-1.434 1.09-1.568l-8.7 2.259c-.54.141-.96.713-1.09 1.568z" fill="#5D5D5D"/><path d="M1246.19 156.861l8.7-2.258c-.01 0-.01 0-.01.007l-8.7 2.259c0-.008 0-.008.01-.008z" fill="#6E6E6E"/><path d="M1246.17 156.862l8.71-2.259c-.05.014-.1.022-.15.029l-8.7 2.259c.05-.007.1-.015.14-.029z" fill="#727272"/><path d="M1246.03 156.891l8.7-2.259c-.05.007-.1.007-.15.007l-8.7 2.259c.05 0 .1 0 .15-.007z" fill="#757575"/><path d="M1245.88 156.898l8.7-2.259c-.05 0-.1 0-.16-.007l-8.7 2.259c.06.007.11.007.16.007z" fill="#797979"/><path d="M1245.73 156.891l8.7-2.259-.16-.023-8.7 2.259a.59.59 0 0 0 .16.023z" fill="#7D7D7D"/><path d="M1245.57 156.869l8.7-2.259-.17-.045-8.71 2.259.18.045z" fill="gray"/><path d="M1245.39 156.824l8.71-2.259c-.06-.023-.13-.045-.19-.075l-8.7 2.259c.06.03.12.052.18.075z" fill="#848484"/><path d="M1245.21 156.749l8.7-2.259a1.42 1.42 0 0 1-.21-.111l-8.7 2.259c.07.044.14.082.21.111z" fill="#878787"/><path d="M1245 156.638l8.7-2.259c-.09-.052-.18-.119-.27-.186l-8.7 2.259c.09.067.18.134.27.186z" fill="#8B8B8B"/><path d="M1244.73 156.453l8.7-2.259a2.483 2.483 0 0 1-.31-.275c-.26-.26-.48-.565-.67-.899l-8.71 2.258c.2.342.42.647.67.9.12.096.21.193.32.275z" fill="#8E8E8E"/><path d="M1243.75 155.271l8.71-2.259a3.865 3.865 0 0 1-.2-.379l-8.7 2.259c.05.134.12.26.19.379z" fill="#8B8B8B"/><path d="M1243.55 154.892l8.7-2.259c-.05-.104-.09-.208-.13-.312l-8.7 2.259c.04.112.09.216.13.312z" fill="#878787"/><path d="M1243.42 154.588l8.7-2.259c-.04-.09-.07-.186-.1-.275l-8.7 2.259c.02.089.06.178.1.275z" fill="#848484"/><path d="M1243.31 154.305l8.71-2.259-.09-.26-8.7 2.259c.02.089.05.178.08.26z" fill="gray"/><path d="M1243.22 154.045l8.71-2.259a2.463 2.463 0 0 1-.08-.253l-8.7 2.259c.02.082.04.171.07.253z" fill="#7D7D7D"/><path d="M1243.15 153.792l8.7-2.259c-.02-.082-.04-.164-.06-.253l-8.7 2.259.06.253z" fill="#797979"/><path d="M1243.09 153.539l8.7-2.259a2.173 2.173 0 0 0-.05-.245l-8.7 2.259c.02.082.04.164.05.245z" fill="#757575"/><path d="M1243.05 153.295l8.7-2.259c-.01-.082-.03-.164-.04-.253l-8.7 2.259c.01.082.02.171.04.253z" fill="#727272"/><path d="M1243 153.041l8.7-2.259-.03-.253-8.7 2.259.03.253z" fill="#6E6E6E"/><path d="M1242.97 152.789l8.7-2.259c0-.089-.01-.178-.02-.267l-8.7 2.259c.01.089.02.178.02.267z" fill="#6B6B6B"/><path d="M1242.96 152.521l8.7-2.259c-.01-.097-.01-.186-.01-.283l-8.7 2.259c0 .09 0 .186.01.283z" fill="#676767"/><path d="M1242.95 152.239l8.7-2.259c0-.104 0-.208.01-.312l-8.7 2.259c-.01.104-.01.208-.01.312z" fill="#646464"/><path d="M1242.96 151.927l8.7-2.259c.01-.126.02-.252.04-.371l-8.7 2.259c-.02.119-.03.245-.04.371z" fill="#606060"/><path d="M1242.99 151.548l8.7-2.259c.02-.178.06-.349.11-.513l-8.71 2.259c-.04.171-.07.342-.1.513z" fill="#5D5D5D"/><path d="M1243.11 151.043l8.7-2.259c.23-.81.67-1.293 1.2-1.434l-8.7 2.259c-.53.133-.98.624-1.2 1.434z" fill="#5D5D5D"/><path d="M1254.25 175.386l8.7-2.259c-.01 0-.01 0-.02.007l-8.71 2.252h.03z" fill="#6E6E6E"/><path d="M1254.22 175.386l8.71-2.259c-.05.015-.1.022-.15.03l-8.7 2.258c.05-.007.1-.014.14-.029z" fill="#727272"/><path d="M1254.08 175.415l8.7-2.259c-.05.008-.09.008-.14.008l-8.71 2.259c.05 0 .1 0 .15-.008z" fill="#757575"/><path d="M1253.94 175.423l8.7-2.259c-.05 0-.11 0-.16-.008l-8.7 2.259c.05.008.1.015.16.008z" fill="#797979"/><path d="M1253.78 175.416l8.7-2.259c-.05-.007-.1-.015-.16-.022l-8.7 2.259a.63.63 0 0 0 .16.022z" fill="#7D7D7D"/><path d="M1253.62 175.393l8.7-2.259a6.673 6.673 0 0 0-.17-.044l-8.7 2.259c.05.015.11.037.17.044z" fill="gray"/><path d="M1253.45 175.349l8.7-2.259a1.951 1.951 0 0 1-.18-.074l-8.7 2.259c.06.029.12.052.18.074z" fill="#848484"/><path d="M1253.27 175.275l8.7-2.259c-.07-.03-.14-.067-.21-.112l-8.7 2.259c.06.045.13.082.21.112z" fill="#878787"/><path d="M1253.05 175.163l8.7-2.258a2.902 2.902 0 0 1-.27-.186l-8.7 2.259c.09.074.18.133.27.185z" fill="#8B8B8B"/><path d="M1252.78 174.977l8.7-2.259c-.1-.081-.2-.171-.31-.275l-8.7 2.259c.11.097.21.194.31.275zM1252.47 174.695l8.7-2.259c-.25-.26-.47-.565-.67-.899l-8.7 2.259c.2.342.42.647.67.899z" fill="#8E8E8E"/><path d="M1251.8 173.796l8.7-2.259c-.06-.119-.13-.245-.19-.379l-8.7 2.259c.06.134.13.26.19.379z" fill="#8B8B8B"/><path d="M1251.61 173.425l8.7-2.258c-.05-.104-.1-.208-.13-.313l-8.71 2.259c.04.104.09.208.14.312z" fill="#878787"/><path d="M1251.47 173.113l8.7-2.259c-.04-.089-.07-.186-.1-.275l-8.71 2.259c.03.089.07.178.11.275z" fill="#848484"/><path d="M1251.36 172.831l8.71-2.259c-.03-.09-.06-.171-.09-.26l-8.71 2.258c.03.09.06.179.09.261z" fill="gray"/><path d="M1251.27 172.57l8.71-2.259a2.446 2.446 0 0 1-.08-.252l-8.7 2.259c.03.081.05.17.07.252z" fill="#7D7D7D"/><path d="M1251.21 172.318l8.7-2.26c-.02-.081-.04-.163-.06-.252l-8.7 2.259c.01.089.04.171.06.253z" fill="#797979"/><path d="M1251.15 172.065l8.7-2.259c-.02-.082-.04-.164-.05-.245l-8.7 2.259c.01.081.03.163.05.245z" fill="#757575"/><path d="M1251.1 171.819l8.7-2.259a1.951 1.951 0 0 1-.04-.252l-8.7 2.259c.01.081.02.171.04.252z" fill="#727272"/><path d="M1251.06 171.567l8.7-2.259-.03-.252-8.7 2.259c.01.081.01.171.03.252z" fill="#6E6E6E"/><path d="M1251.03 171.315l8.7-2.259c-.01-.09-.01-.179-.02-.268l-8.7 2.259c.01.089.01.178.02.268z" fill="#6B6B6B"/><path d="M1251.01 171.046l8.7-2.259c-.01-.096-.01-.186-.01-.282l-8.7 2.259c0 .089 0 .186.01.282z" fill="#676767"/><path d="M1251 170.764l8.7-2.259c0-.104 0-.208.01-.312l-8.7 2.259c0 .104-.01.208-.01.312z" fill="#646464"/><path d="M1251.01 170.452l8.7-2.258c.01-.127.03-.253.04-.372l-8.7 2.259c-.02.119-.03.245-.04.371z" fill="#606060"/><path d="M1251.05 170.081l8.7-2.259c.02-.178.06-.349.1-.513.23-.81.67-1.293 1.21-1.434l-8.71 2.259c-.53.141-.98.624-1.2 1.434a4.05 4.05 0 0 0-.1.513z" fill="#5D5D5D"/><path d="M1249.56 144.222l8.71-2.259h-.02l-8.7 2.259h.01z" fill="#6E6E6E"/><path d="M1249.56 144.23l8.7-2.259a2.13 2.13 0 0 0-.11.022l-8.7 2.259.11-.022z" fill="#727272"/><path d="M1249.44 144.243l8.7-2.259c-.04.008-.07.008-.12.008l-8.7 2.259c.05 0 .08 0 .12-.008z" fill="#757575"/><path d="M1249.33 144.251l8.7-2.259c-.04 0-.08 0-.12-.008l-8.7 2.259c.04.008.07.008.12.008z" fill="#797979"/><path d="M1249.21 144.252l8.7-2.259c-.05-.007-.08-.007-.13-.022l-8.7 2.259c.04.007.08.015.13.022z" fill="#7D7D7D"/><path d="M1249.08 144.23l8.7-2.259a1.056 1.056 0 0 1-.13-.037l-8.7 2.259c.03.014.09.029.13.037z" fill="gray"/><path d="M1248.94 144.192l8.7-2.259c-.05-.014-.1-.037-.15-.059l-8.7 2.259c.05.022.11.045.15.059z" fill="#848484"/><path d="M1248.79 144.133l8.7-2.259c-.06-.029-.11-.059-.17-.089l-8.71 2.259.18.089z" fill="#878787"/><path d="M1248.61 144.043l8.7-2.259a4.303 4.303 0 0 1-.23-.156l-8.7 2.259c.08.052.16.104.23.156z" fill="#8B8B8B"/><path d="M1248.39 143.88l8.7-2.259a1.806 1.806 0 0 1-.26-.238 3.67 3.67 0 0 1-.56-.758l-8.7 2.259c.17.29.35.55.56.758.08.097.17.171.26.238z" fill="#8E8E8E"/><path d="M1247.57 142.892l8.7-2.259c-.06-.097-.11-.201-.16-.305l-8.7 2.259c.04.104.1.201.16.305z" fill="#8B8B8B"/><path d="M1247.4 142.587l8.7-2.259c-.03-.082-.07-.163-.1-.245l-8.7 2.259c.03.082.06.163.1.245z" fill="#878787"/><path d="M1247.3 142.341l8.7-2.259a1.92 1.92 0 0 1-.08-.223l-8.7 2.259c.02.075.05.149.08.223z" fill="#848484"/><path d="M1247.22 142.118l8.7-2.259c-.02-.066-.05-.133-.07-.208l-8.7 2.259c.02.075.04.142.07.208z" fill="gray"/><path d="M1247.15 141.919l8.7-2.259-.06-.201-8.7 2.259c.01.067.04.134.06.201z" fill="#7D7D7D"/><path d="M1247.09 141.718l8.7-2.259c-.01-.067-.03-.126-.04-.193l-8.71 2.259c.02.066.03.126.05.193z" fill="#797979"/><path d="M1247.05 141.524l8.7-2.259a1.297 1.297 0 0 1-.04-.193l-8.7 2.259c.01.06.02.127.04.193z" fill="#757575"/><path d="M1247.01 141.331l8.7-2.259-.03-.201-8.7 2.259c.01.067.01.134.03.201z" fill="#727272"/><path d="M1246.97 141.13l8.7-2.259c-.01-.067-.01-.141-.02-.208l-8.7 2.259c.01.067.01.134.02.208z" fill="#6E6E6E"/><path d="M1246.95 140.916l8.7-2.259c-.01-.075-.01-.149-.01-.223l-8.71 2.259c0 .074.01.148.02.223z" fill="#6B6B6B"/><path d="M1246.93 140.687l8.71-2.259c-.01-.081-.01-.163-.01-.252l-8.7 2.259v.252z" fill="#676767"/><path d="M1246.93 140.44l8.7-2.259v-.06l-8.7 2.259v.06z" fill="#646464"/><path d="M1261.53 187.669l8.7-2.259c-.11-.149-.22-.297-.31-.461l-8.7 2.259c.09.164.2.32.31.461z" fill="#8E8E8E"/><path d="M1261.22 187.217l8.7-2.259c-.06-.104-.11-.208-.17-.312l-8.7 2.258c.05.104.11.209.17.313z" fill="#8B8B8B"/><path d="M1261.05 186.896l8.7-2.259c-.03-.081-.07-.163-.11-.252l-8.7 2.258c.04.09.07.171.11.253z" fill="#878787"/><path d="M1260.94 186.651l8.7-2.259c-.03-.074-.06-.141-.08-.215l-8.7 2.259c.03.067.05.141.08.215z" fill="#848484"/><path d="M1260.86 186.428l8.7-2.259c-.02-.067-.04-.134-.07-.208l-8.7 2.259c.03.074.05.141.07.208z" fill="gray"/><path d="M1260.79 186.228l8.7-2.259c-.02-.067-.03-.134-.06-.2l-8.7 2.259.06.2z" fill="#7D7D7D"/><path d="M1260.74 186.027l8.7-2.259c-.01-.066-.03-.133-.04-.193l-8.7 2.259c0 .06.02.126.04.193z" fill="#797979"/><path d="M1260.69 185.826l8.7-2.259c-.01-.067-.03-.134-.04-.193l-8.7 2.259c.01.067.02.134.04.193z" fill="#757575"/><path d="M1260.65 185.633l8.7-2.259-.03-.2-8.7 2.259.03.2z" fill="#727272"/><path d="M1260.62 185.433l8.7-2.259c-.01-.067-.01-.141-.02-.208l-8.7 2.259c0 .067.01.134.02.208z" fill="#6E6E6E"/><path d="M1260.59 185.217l8.7-2.259c0-.074-.01-.148-.01-.223l-8.7 2.259c0 .082 0 .156.01.223z" fill="#6B6B6B"/><path d="M1260.58 185.001l8.7-2.259c-.01-.081-.01-.163-.01-.245l-8.7 2.259c0 .082.01.164.01.245z" fill="#676767"/><path d="M1260.57 184.757l8.7-2.259c0-.089 0-.178.01-.268l-8.7 2.259c0 .09-.01.179-.01.268z" fill="#646464"/><path d="M1260.58 184.489l8.7-2.259c.01-.111.03-.223.04-.327l-8.7 2.259c-.02.112-.03.216-.04.327z" fill="#606060"/><path d="M1260.61 184.162l8.7-2.259c.12-.803.48-1.419 1.05-1.568l-8.7 2.259c-.57.156-.93.773-1.05 1.568z" fill="#5D5D5D"/><path d="M1260.24 164.82l8.7-2.259c-.03-.008-.06-.008-.09-.015l-8.7 2.259c.02 0 .05.007.09.015z" fill="#7D7D7D"/><path d="M1260.14 164.797l8.71-2.259c-.06-.007-.1-.022-.15-.037l-8.7 2.259c.05.015.09.03.14.037z" fill="gray"/><path d="M1260 164.761l8.7-2.259a1.3 1.3 0 0 1-.16-.06l-8.7 2.259c.05.023.11.045.16.06z" fill="#848484"/><path d="M1259.84 164.701l8.7-2.259c-.06-.03-.12-.06-.17-.089l-8.7 2.259c.06.029.11.059.17.089z" fill="#878787"/><path d="M1259.67 164.611l8.7-2.259c-.07-.045-.14-.089-.21-.149l-8.71 2.259c.08.052.15.104.22.149z" fill="#8B8B8B"/><path d="M1259.45 164.462l8.71-2.259a3.066 3.066 0 0 1-.25-.215 3.67 3.67 0 0 1-.53-.714l-8.7 2.252c.16.275.34.513.54.713.07.082.15.156.23.223z" fill="#8E8E8E"/><path d="M1258.68 163.527l8.7-2.259a3.41 3.41 0 0 1-.16-.32l-8.7 2.259c.05.112.1.216.16.32z" fill="#8B8B8B"/><path d="M1258.52 163.208l8.7-2.259a2.172 2.172 0 0 1-.11-.261l-8.71 2.259c.03.09.07.179.12.261z" fill="#878787"/><path d="M1258.4 162.947l8.7-2.259a7.624 7.624 0 0 1-.09-.238l-8.7 2.259c.03.082.06.164.09.238z" fill="#848484"/><path d="M1258.31 162.716l8.7-2.259c-.02-.074-.05-.148-.07-.223l-8.71 2.259c.03.075.06.149.08.223z" fill="gray"/><path d="M1258.24 162.494l8.7-2.259a.865.865 0 0 1-.06-.215l-8.7 2.259.06.215z" fill="#7D7D7D"/><path d="M1258.17 162.279l8.71-2.259-.06-.208-8.7 2.258c.02.067.04.142.05.209z" fill="#797979"/><path d="M1258.12 162.07l8.71-2.259c-.02-.067-.03-.142-.05-.208l-8.7 2.259c.02.066.03.141.04.208z" fill="#757575"/><path d="M1258.09 161.862l8.7-2.259a.753.753 0 0 1-.03-.208l-8.7 2.259c0 .066.01.141.03.208z" fill="#727272"/><path d="M1258.06 161.654l8.7-2.259a1.478 1.478 0 0 1-.02-.208l-8.71 2.258c0 .067.01.142.03.209z" fill="#6E6E6E"/><path d="M1258.03 161.446l8.7-2.259c-.01-.074-.02-.141-.02-.215l-8.7 2.259c.01.067.01.141.02.215z" fill="#6B6B6B"/><path d="M1258.01 161.23l8.7-2.259v-.223l-8.71 2.259c0 .067.01.149.01.223z" fill="#676767"/><path d="M1258 161l8.71-2.259v-.245l-8.7 2.259c0 .082-.01.164-.01.245z" fill="#646464"/><path d="M1258.01 160.755l8.7-2.259.03-.305-8.7 2.259c0 .104-.02.201-.03.305z" fill="#606060"/><path d="M1258.04 160.45l8.71-2.259c.06-.401.18-.773.39-1.07l-8.7 2.259c-.21.297-.34.669-.4 1.07z" fill="#5D5D5D"/><path d="M1246.93 140.388l8.7-2.259.56-40.96-8.71 2.26-.55 40.959z" fill="#6F6F6F"/><path d="M1247.48 99.427l8.71-2.259v-.208l-8.7 2.259c-.01.067-.01.134-.01.208z" fill="#646464"/><path d="M1247.49 99.213l8.7-2.26.03-.311-8.7 2.259-.03.312z" fill="#606060"/><path d="M1247.53 98.908l8.7-2.26c.12-.869.53-1.441 1.07-1.575l-8.7 2.26c-.54.133-.95.705-1.07 1.575z" fill="#5D5D5D"/><path d="M1284.98 218.106l8.7-2.259-23.45-30.437-8.7 2.259 23.45 30.437z" fill="#999"/><path d="M1285.23 218.396l8.7-2.259c-.08-.089-.17-.185-.25-.289l-8.7 2.259c.08.104.17.2.25.289z" fill="#8E8E8E"/><path d="M1286.68 218.953l8.7-2.259h-.01l-8.7 2.259h.01z" fill="#6E6E6E"/><path d="M1286.67 218.96l8.7-2.259-.12.022-8.7 2.259.12-.022z" fill="#727272"/><path d="M1286.55 218.983l8.7-2.259c-.04.007-.08.007-.12.007l-8.7 2.259c.04 0 .08-.007.12-.007z" fill="#757575"/><path d="M1286.43 218.99l8.7-2.259c-.04 0-.08 0-.12-.007l-8.71 2.259c.04 0 .09.007.13.007z" fill="#797979"/><path d="M1286.3 218.982l8.7-2.259c-.04-.007-.09-.014-.13-.022l-8.7 2.259c.04.008.09.015.13.022z" fill="#7D7D7D"/><path d="M1286.17 218.96l8.7-2.259a1.346 1.346 0 0 1-.14-.037l-8.7 2.259c.05.015.09.03.14.037z" fill="gray"/><path d="M1286.03 218.924l8.7-2.259c-.05-.015-.1-.037-.15-.06l-8.7 2.259c.05.023.1.045.15.06z" fill="#848484"/><path d="M1285.88 218.864l8.7-2.259c-.06-.03-.12-.06-.17-.089l-8.7 2.259c.05.029.11.059.17.089z" fill="#878787"/><path d="M1285.7 218.775l8.7-2.259a1.859 1.859 0 0 1-.22-.156l-8.7 2.259c.07.06.15.112.22.156z" fill="#8B8B8B"/><path d="M1285.49 218.618l8.7-2.258c-.08-.067-.17-.142-.25-.223l-8.7 2.259c.07.081.16.156.25.222z" fill="#8E8E8E"/><path d="M1258.44 159.38l8.71-2.259 17.07-24.484-8.7 2.259-17.08 24.484z" fill="#595959"/><path d="M1275.52 134.895l8.7-2.259c.19-.275.42-.438.68-.505l-8.7 2.259c-.26.059-.49.23-.68.505z" fill="#5D5D5D"/><path d="M1286.74 168.557l8.7-2.259-26.5-3.737-8.7 2.259 26.5 3.737z" fill="#828282"/><path d="M1287.16 168.535l8.71-2.259h-.02l-8.7 2.259c.01.008.01.008.01 0z" fill="#6E6E6E"/><path d="M1287.15 168.543l8.7-2.259c-.03.008-.08.015-.12.022l-8.7 2.259c.05-.007.08-.014.12-.022z" fill="#727272"/><path d="M1287.03 168.565l8.7-2.259c-.04.007-.08.007-.12.007l-8.7 2.259c.04 0 .08-.007.12-.007z" fill="#757575"/><path d="M1286.91 168.57l8.7-2.259c-.04 0-.08 0-.13-.007l-8.7 2.259c.05.007.09.007.13.007z" fill="#797979"/><path d="M1286.79 168.571l8.7-2.259c-.02 0-.03 0-.05-.007l-8.7 2.259c.02.007.03.007.05.007z" fill="#7D7D7D"/><path d="M1295.38 226.161c-11.63 41.204-45.47 49.682-75.57 18.933-30.09-30.748-45.06-89.073-33.42-130.277 11.63-41.204 45.47-49.682 75.57-18.933 30.09 30.741 45.06 89.073 33.42 130.277zm-59.87-90.946l.3-41.234c.01-1.248-.5-2.526-1.2-3.24-.29-.297-.62-.498-.95-.564-3.03-.58-6.05-.729-9.04-.402a27.804 27.804 0 0 0-8.95 2.534c-.99.468-1.22 2.415-.49 4.095l16.99 39.175c.22.513.49.914.78 1.211 1.14 1.152 2.54.572 2.56-1.575zm52.65 30.147c-1.05-4.86-2.37-9.75-3.97-14.624a135.635 135.635 0 0 0-5.82-14.713c-.2-.439-.45-.803-.72-1.078-.72-.743-1.59-.825-2.13-.052l-17.08 24.485c-.87 1.256-.33 3.738.78 4.86.3.312.65.52 1.02.572l26.5 3.745c1.14.163 1.81-1.36 1.42-3.195zm-97.89-18.733c.06 4.718.4 9.615 1.04 14.646.67 5.335 1.66 10.589 2.92 15.701.21.84.59 1.546 1.05 2.014.52.535 1.13.75 1.66.475l22.87-11.792c1.37-.706 1.09-3.849-.28-5.261a3.457 3.457 0 0 0-.42-.357l-26.68-17.41c-1.15-.736-2.18.2-2.16 1.984zm72.84 100.256c.5.506 1.07.729 1.58.513 2.67-1.122 5.25-2.697 7.69-4.741 2.6-2.17 4.92-4.763 6.97-7.728.73-1.055.49-3.195-.51-4.518l-23.11-30.845c-.1-.127-.2-.245-.3-.349-1.44-1.472-2.98.014-2.43 2.623l9.01 42.846c.19.921.61 1.701 1.1 2.199zm4.41-131.243c-2.6-3.582-5.39-6.911-8.35-9.928-3.13-3.195-6.31-5.907-9.49-8.129-1.13-.788-2.18.09-2.2 1.843l-.56 40.959c-.02 1.337.52 2.563 1.2 3.262.69.698 1.52.869 2.1.104l17.72-23.586c.76-1.018.57-3.173-.42-4.525zm17.71 102.754c.96.98 2.08.728 2.44-.647 1.06-3.953 1.86-8.226 2.39-12.796.55-4.837.78-9.794.69-14.802-.03-1.219-.53-2.43-1.21-3.121-.31-.32-.66-.528-1.02-.58l-26.4-3.878c-1.73-.253-2.12 3.113-.59 5.09l23.46 30.436c.07.112.16.208.24.298zm-90.18-91.808c.1.096.2.185.3.267l26.3 19.566c1.71 1.278 2.94-1.249 1.85-3.827l-16.77-39.577a3.81 3.81 0 0 0-.79-1.233c-.7-.714-1.52-.825-2.07-.142-2.05 2.601-3.92 5.618-5.59 9.051-1.76 3.634-3.19 7.572-4.32 11.748-.36 1.345.15 3.188 1.09 4.147zm33.98 109.961c-.38 1.345.13 3.203 1.07 4.161.09.104.2.194.31.275 3 2.2 6.09 4.035 9.26 5.447 3.36 1.501 6.65 2.46 9.83 2.913 1.13.163 1.8-1.345 1.42-3.173l-8.86-42.69c-.2-.959-.61-1.709-1.08-2.192-.9-.922-2.04-.862-2.45.617l-9.5 34.642zm-27.91-36.82c1.89 4.503 4.02 8.902 6.4 13.131 2.52 4.48 5.2 8.582 8 12.275.09.119.18.223.26.312.95.966 2.04.729 2.43-.602l9.81-34.152c.42-1.463-.19-3.299-1.09-4.22-.47-.483-1.03-.714-1.56-.498l-23.66 9.704c-1.02.417-1.29 2.349-.59 4.05zm37.03-20.903c3.78 3.857 8.02 2.794 9.48-2.37 1.45-5.164-.42-12.484-4.2-16.34-3.77-3.857-8.01-2.794-9.47 2.377-1.46 5.165.42 12.477 4.19 16.333zm8.52 7.134c-.46 1.62.14 3.923 1.32 5.135 1.19 1.211 2.52.877 2.98-.743.46-1.62-.13-3.924-1.32-5.135-1.18-1.211-2.51-.877-2.98.743zm-20.59-21.037c-.46 1.62.14 3.924 1.32 5.135 1.19 1.211 2.52.877 2.98-.743.46-1.62-.13-3.924-1.32-5.135-1.19-1.211-2.52-.877-2.98.743zm9.28 23.615c1.18 1.212 2.52.877 2.98-.743.46-1.62-.14-3.923-1.32-5.134-1.19-1.212-2.52-.877-2.98.743-.46 1.62.13 3.923 1.32 5.134zm7.75-37.496c-.46 1.62.12 3.924 1.31 5.135 1.18 1.211 2.52.877 2.98-.743.46-1.627-.13-3.923-1.31-5.135-1.19-1.218-2.53-.884-2.98.743zm9.36 23.653c1.18 1.211 2.52.877 2.98-.743.46-1.62-.13-3.924-1.32-5.135-1.18-1.211-2.51-.877-2.97.743-.47 1.627.13 3.931 1.31 5.135zm-21.89-25.941c-.46 1.62.13 3.923 1.31 5.134 1.19 1.212 2.52.877 2.98-.743.46-1.62-.13-3.923-1.31-5.134-1.19-1.212-2.52-.877-2.98.743z" fill="#DADADA"/></g><defs><filter id="filter0_d" x="-4" y="-2" width="1608" height="408" filterUnits="userSpaceOnUse" color-interpolation-filters="sRGB"><feFlood flood-opacity="0" result="BackgroundImageFix"/><feColorMatrix in="SourceAlpha" values="0 0 0 0 0 0 0 0 0 0 0 0 0 0 0 0 0 0 127 0"/><feOffset dy="2"/><feGaussianBlur stdDeviation="2"/><feColorMatrix values="0 0 0 0 0 0 0 0 0 0 0 0 0 0 0 0 0 0 0.08 0"/><feBlend in2="BackgroundImageFix" result="effect1_dropShadow"/><feBlend in="SourceGraphic" in2="effect1_dropShadow" result="shape"/></filter><radialGradient id="paint0_radial" cx="0" cy="0" r="1" gradientUnits="userSpaceOnUse" gradientTransform="rotate(-164.389 651.869 -5.758) scale(89.2033)"><stop offset=".574" stop-color="#161412"/><stop offset=".798" stop-color="#161412"/><stop offset="1" stop-color="#161412"/></radialGradient><radialGradient id="paint1_radial" cx="0" cy="0" r="1" gradientUnits="userSpaceOnUse" gradientTransform="rotate(-164.389 659.84 -9.15) scale(89.2033)"><stop offset=".574" stop-color="#161412"/><stop offset=".798" stop-color="#161412"/><stop offset="1" stop-color="#161412"/></radialGradient><radialGradient id="paint2_radial" cx="0" cy="0" r="1" gradientUnits="userSpaceOnUse" gradientTransform="rotate(-164.389 671.76 33.106) scale(7.75814)"><stop offset=".574" stop-color="#161412"/><stop offset=".798" stop-color="#161412"/><stop offset="1" stop-color="#161412"/></radialGradient><radialGradient id="paint3_radial" cx="0" cy="0" r="1" gradientUnits="userSpaceOnUse" gradientTransform="rotate(-164.389 672.672 20.884) scale(9.46365)"><stop offset=".574" stop-color="#161412"/><stop offset=".798" stop-color="#161412"/><stop offset="1" stop-color="#161412"/></radialGradient><radialGradient id="paint4_radial" cx="0" cy="0" r="1" gradientUnits="userSpaceOnUse" gradientTransform="rotate(-164.389 671.63 6.965) scale(11.5457)"><stop offset=".574" stop-color="#161412"/><stop offset=".798" stop-color="#161412"/><stop offset="1" stop-color="#161412"/></radialGradient><radialGradient id="paint5_radial" cx="0" cy="0" r="1" gradientUnits="userSpaceOnUse" gradientTransform="rotate(-164.389 669.166 -6.662) scale(11.3678)"><stop offset=".574" stop-color="#161412"/><stop offset=".798" stop-color="#161412"/><stop offset="1" stop-color="#161412"/></radialGradient><radialGradient id="paint6_radial" cx="0" cy="0" r="1" gradientUnits="userSpaceOnUse" gradientTransform="rotate(-164.389 663.027 -20.34) scale(12.9253)"><stop offset=".574" stop-color="#161412"/><stop offset=".798" stop-color="#161412"/><stop offset="1" stop-color="#161412"/></radialGradient><radialGradient id="paint7_radial" cx="0" cy="0" r="1" gradientUnits="userSpaceOnUse" gradientTransform="rotate(-164.389 656.208 -32.557) scale(12.6025)"><stop offset=".574" stop-color="#161412"/><stop offset=".798" stop-color="#161412"/><stop offset="1" stop-color="#161412"/></radialGradient><radialGradient id="paint8_radial" cx="0" cy="0" r="1" gradientUnits="userSpaceOnUse" gradientTransform="rotate(-164.389 647.05 -43.293) scale(13.1646)"><stop offset=".574" stop-color="#161412"/><stop offset=".798" stop-color="#161412"/><stop offset="1" stop-color="#161412"/></radialGradient><radialGradient id="paint9_radial" cx="0" cy="0" r="1" gradientUnits="userSpaceOnUse" gradientTransform="rotate(-164.389 637.208 -51.092) scale(13.2606)"><stop offset=".574" stop-color="#161412"/><stop offset=".798" stop-color="#161412"/><stop offset="1" stop-color="#161412"/></radialGradient><radialGradient id="paint10_radial" cx="0" cy="0" r="1" gradientUnits="userSpaceOnUse" gradientTransform="rotate(-164.389 626.973 -54.967) scale(13.142)"><stop offset=".574" stop-color="#161412"/><stop offset=".798" stop-color="#161412"/><stop offset="1" stop-color="#161412"/></radialGradient><radialGradient id="paint11_radial" cx="0" cy="0" r="1" gradientUnits="userSpaceOnUse" gradientTransform="rotate(-164.389 618.348 -54.98) scale(11.791)"><stop offset=".574" stop-color="#161412"/><stop offset=".798" stop-color="#161412"/><stop offset="1" stop-color="#161412"/></radialGradient><radialGradient id="paint12_radial" cx="0" cy="0" r="1" gradientUnits="userSpaceOnUse" gradientTransform="rotate(-164.389 666.558 42.946) scale(7.80641)"><stop offset=".574" stop-color="#161412"/><stop offset=".798" stop-color="#161412"/><stop offset="1" stop-color="#161412"/></radialGradient><radialGradient id="paint13_radial" cx="0" cy="0" r="1" gradientUnits="userSpaceOnUse" gradientTransform="rotate(-164.389 661.328 49.873) scale(6.47991)"><stop offset=".574" stop-color="#161412"/><stop offset=".798" stop-color="#161412"/><stop offset="1" stop-color="#161412"/></radialGradient><radialGradient id="paint14_radial" cx="0" cy="0" r="1" gradientUnits="userSpaceOnUse" gradientTransform="rotate(-164.389 698.502 22.21) scale(11.959)"><stop offset=".574" stop-color="#161412"/><stop offset=".798" stop-color="#161412"/><stop offset="1" stop-color="#161412"/></radialGradient><radialGradient id="paint15_radial" cx="0" cy="0" r="1" gradientUnits="userSpaceOnUse" gradientTransform="rotate(-164.389 694.39 31.936) scale(11.3975)"><stop offset=".574" stop-color="#161412"/><stop offset=".798" stop-color="#161412"/><stop offset="1" stop-color="#161412"/></radialGradient><radialGradient id="paint16_radial" cx="0" cy="0" r="1" gradientUnits="userSpaceOnUse" gradientTransform="rotate(-164.389 687.153 38.864) scale(12.3329)"><stop offset=".574" stop-color="#161412"/><stop offset=".798" stop-color="#161412"/><stop offset="1" stop-color="#161412"/></radialGradient><radialGradient id="paint17_radial" cx="0" cy="0" r="1" gradientUnits="userSpaceOnUse" gradientTransform="rotate(-164.389 700.606 10.025) scale(12.5636)"><stop offset=".574" stop-color="#161412"/><stop offset=".798" stop-color="#161412"/><stop offset="1" stop-color="#161412"/></radialGradient><radialGradient id="paint18_radial" cx="0" cy="0" r="1" gradientUnits="userSpaceOnUse" gradientTransform="rotate(-164.389 699.615 -3.67) scale(12.888)"><stop offset=".574" stop-color="#161412"/><stop offset=".798" stop-color="#161412"/><stop offset="1" stop-color="#161412"/></radialGradient><radialGradient id="paint19_radial" cx="0" cy="0" r="1" gradientUnits="userSpaceOnUse" gradientTransform="rotate(-164.389 696.222 -17.61) scale(12.6734)"><stop offset=".574" stop-color="#161412"/><stop offset=".798" stop-color="#161412"/><stop offset="1" stop-color="#161412"/></radialGradient><radialGradient id="paint20_radial" cx="0" cy="0" r="1" gradientUnits="userSpaceOnUse" gradientTransform="rotate(-164.389 690.637 -31.186) scale(11.8353)"><stop offset=".574" stop-color="#161412"/><stop offset=".798" stop-color="#161412"/><stop offset="1" stop-color="#161412"/></radialGradient><radialGradient id="paint21_radial" cx="0" cy="0" r="1" gradientUnits="userSpaceOnUse" gradientTransform="rotate(-164.389 683.242 -43.556) scale(10.8237)"><stop offset=".574" stop-color="#161412"/><stop offset=".798" stop-color="#161412"/><stop offset="1" stop-color="#161412"/></radialGradient><radialGradient id="paint22_radial" cx="0" cy="0" r="1" gradientUnits="userSpaceOnUse" gradientTransform="rotate(-164.389 674.122 -54.007) scale(9.19867)"><stop offset=".574" stop-color="#161412"/><stop offset=".798" stop-color="#161412"/><stop offset="1" stop-color="#161412"/></radialGradient><radialGradient id="paint23_radial" cx="0" cy="0" r="1" gradientUnits="userSpaceOnUse" gradientTransform="rotate(-164.389 664.185 -61.65) scale(7.28042)"><stop offset=".574" stop-color="#161412"/><stop offset=".798" stop-color="#161412"/><stop offset="1" stop-color="#161412"/></radialGradient><radialGradient id="paint24_radial" cx="0" cy="0" r="1" gradientUnits="userSpaceOnUse" gradientTransform="rotate(-164.389 654.15 -65.733) scale(5.56348)"><stop offset=".574" stop-color="#161412"/><stop offset=".798" stop-color="#161412"/><stop offset="1" stop-color="#161412"/></radialGradient><radialGradient id="paint25_radial" cx="0" cy="0" r="1" gradientUnits="userSpaceOnUse" gradientTransform="rotate(-164.389 644.977 -66.473) scale(5.45171)"><stop offset=".574" stop-color="#161412"/><stop offset=".798" stop-color="#161412"/><stop offset="1" stop-color="#161412"/></radialGradient><clipPath id="clip0"><path fill="#fff" transform="translate(1171 41)" d="M0 0h210.434v241.078H0z"/></clipPath></defs></svg>