<svg width="1600" height="400" fill="none" xmlns="http://www.w3.org/2000/svg" viewBox="0 0 1600 400"><g filter="url(#filter0_d)"><path fill="#F5FCFF" d="M1600 0H0v400h1600z"/></g><mask id="a" maskUnits="userSpaceOnUse" x="623" y="0" width="977" height="400"><path transform="matrix(-1 0 0 1 1600 0)" fill="#F5FCFF" d="M0 0h977v400H0z"/></mask><g mask="url(#a)"><path d="M1811.84 8.01l-221.16 12.087-412.3 43.203-76.81 45.616 349.28 203.445 293.2 27.611 67.79-331.961z" fill="#00AD00"/><path d="M1721.26 4.697S967.115 28.777 916.425 112.28C853.991 215.137 1472.9 491 1472.9 491l522.48-123.8s-828.17-206.809-790.9-269.085c38.95-65.08 809.99-83 809.99-83L1721.26 4.696z" fill="#fff"/><path d="M1531.55 450.392S919.755 205.655 975.078 112.279C1024.87 28.243 1779.91 7.401 1779.91 7.401l168.74 3.197s-771.51 22.153-809.99 87.508c-41.13 69.872 790.89 300.67 790.89 300.67l-398 51.616z" fill="#004EBB"/><path d="M1470.62 134.583h-5.63v110.662h5.63V134.583z" fill="#5F6464"/><path d="M1422.5 117.688l38.98-39.472a8.926 8.926 0 0 1 12.74 0l38.98 39.472c3.52 3.564 3.52 9.34 0 12.913l-38.98 39.463a8.925 8.925 0 0 1-12.74 0l-38.98-39.463c-3.52-3.573-3.52-9.349 0-12.913z" fill="#fff"/><path d="M1427.4 120.869l37.22-37.695a4.52 4.52 0 0 1 6.46 0l37.23 37.695c1.79 1.811 1.79 4.741 0 6.544l-37.23 37.694a4.52 4.52 0 0 1-6.46 0l-37.22-37.694c-1.79-1.812-1.79-4.741 0-6.544z" fill="#fff"/><path d="M1467.85 168.128c-1.66 0-3.22-.659-4.4-1.845l-37.22-37.694c-2.42-2.454-2.42-6.444 0-8.906l37.22-37.694a6.134 6.134 0 0 1 4.39-1.845c1.66 0 3.23.651 4.4 1.845l37.23 37.694a6.278 6.278 0 0 1 1.82 4.449 6.34 6.34 0 0 1-1.82 4.457l-37.23 37.694a6.131 6.131 0 0 1-4.39 1.845z" fill="#004EBB"/><path d="M1485.15 141.61c9.55-9.674 9.55-25.357 0-35.031a24.252 24.252 0 0 0-34.6 0c-9.56 9.674-9.56 25.357 0 35.031a24.253 24.253 0 0 0 34.6 0z" fill="#fff"/><path d="M1489.4 131.71c4.16-12.052-2.12-25.24-14.04-29.439-11.9-4.207-24.92 2.162-29.08 14.215-4.15 12.053 2.13 25.241 14.04 29.439 11.91 4.207 24.94-2.162 29.08-14.215z" fill="#fff"/><path d="M1445.52 128.881c.8 3.84 2.53 7.329 4.96 10.209 3.66-16.519 18.22-28.872 35.64-28.872-.35-.467-.71-.901-1.09-1.344a36.667 36.667 0 0 0-6.74-.643c-14.38.009-26.81 8.422-32.77 20.65z" fill="#0046B4"/><path d="M1457.6 144.757a22.513 22.513 0 0 0 10.25 2.462c12.61 0 22.83-10.35 22.83-23.121 0-4.374-1.2-8.464-3.28-11.944-15.85 2.896-28.15 16.151-29.8 32.603zM1473.72 105.602c3.21 0 6.32.426 9.28 1.21-4.03-3.622-9.34-5.834-15.16-5.834-10.88 0-19.98 7.712-22.27 18.029 6.72-8.188 16.83-13.405 28.15-13.405z" fill="#46B400"/></g><g clip-path="url(#clip0)"><path d="M1148.98 230.62c-2.47 1.43-2.47 3.76 0 5.19l201.83 116.65c6.03 3.2 19.22 1.72 30.71-3.05 7.42-3.08 21.74-10.71 28.59-14.67 6.79-3.93 20.17-11.79 26.05-16.84 5.8-4.97 9.5-13.64-1.97-18.88l-197.3-114.05c-2.47-1.42-6.51-1.42-8.98 0l-78.93 45.65z" fill="#0032A5"/><path d="M1151.97 214.72c-1.69.97-4.44.97-6.13 0l-.58-.33c-1.69-.97-1.69-2.57 0-3.54l62.92-36.33c1.68-.97 4.44-.97 6.13 0l.58.33c1.69.97 1.69 2.57 0 3.54l-62.92 36.33z" fill="#62747F"/><path d="M1151.97 213.75c-1.69.97-4.44.97-6.13 0l-.58-.33c-1.69-.97-1.69-2.57 0-3.54l62.92-36.33c1.68-.97 4.44-.97 6.13 0l.58.33c1.69.97 1.69 2.57 0 3.54l-62.92 36.33z" fill="#889AA5"/><path opacity=".1" d="M1151.97 227.76c-1.69.97-4.44.97-6.13 0l-.58-.33c-1.69-.97-1.69-2.57 0-3.54l62.92-36.33c1.68-.97 4.44-.97 6.13 0l.58.33c1.69.97 1.69 2.57 0 3.54l-62.92 36.33z" fill="#000"/><path d="M1337.08 301.13l-10.99 13.28-10.45 3.42-1.82-4.12-1.75-11.29 25.01-1.29z" fill="#222B2E"/><path d="M1323.59 306.52l8.08-3.71c2.39-.81 5.42-.37 8.71 1.53 7.76 4.48 14.05 15.37 14.05 24.33 0 4.7-1.73 7.93-4.5 9.29l-7.59 3.52c-2.46 1.05-5.68.69-9.2-1.35-7.76-4.48-14.04-15.37-14.04-24.32-.01-4.7 1.72-7.93 4.49-9.29z" fill="#3B4447"/><path d="M1320.33 316.78c0 8.16 5.73 18.09 12.8 22.17 7.07 4.08 12.8.77 12.8-7.39s-5.73-18.09-12.8-22.17c-7.07-4.09-12.8-.78-12.8 7.39z" fill="#3B4447"/><path d="M1324.28 319.66c.11 5.62 3.62 11.77 8.45 14.68 4.29 2.59 8.54.05 8.44-4.92-.1-5.63-3.62-11.77-8.44-14.68-4.29-2.59-8.54-.05-8.45 4.92z" fill="url(#paint0_linear)"/><path d="M1324.63 320.07c.1 5.35 3.45 11.21 8.04 13.97 4.09 2.47 8.13.05 8.04-4.69-.1-5.36-3.45-11.2-8.04-13.97-4.09-2.46-8.13-.05-8.04 4.69z" fill="#CCCBCA"/><path opacity=".5" d="M1329.24 314.41c-2.21.47-3.8 2.52-3.74 5.49.1 5.29 3.41 11.07 7.94 13.8 1.74 1.05 3.48 1.2 4.88.66-1.52.93-3.58.93-5.65-.32-4.59-2.77-7.94-8.62-8.04-13.97-.07-3.37 1.96-5.56 4.61-5.66z" fill="#fff"/><path d="M1327.94 322.45c.05 2.85 1.84 5.97 4.28 7.44 2.17 1.31 4.33.03 4.28-2.5-.05-2.85-1.83-5.96-4.28-7.44-2.18-1.31-4.33-.02-4.28 2.5z" fill="#3B4447"/><path d="M1173.36 231.01l2.05 4.65 10.43-2.15 10.57-10.57h-26.36l3.31 8.07z" fill="#222B2E"/><path d="M1183.33 226.31l8.08-3.71c2.39-.81 5.42-.37 8.71 1.53 7.76 4.48 14.05 15.37 14.05 24.33 0 4.7-1.73 7.93-4.5 9.29l-7.59 3.52c-2.46 1.05-5.68.69-9.2-1.34-7.76-4.48-14.05-15.37-14.05-24.32 0-4.7 1.74-7.93 4.5-9.3z" fill="#3B4447"/><path d="M1180.08 236.57c0 8.16 5.73 18.09 12.8 22.17 7.07 4.08 12.8.77 12.8-7.39s-5.73-18.09-12.8-22.17c-7.07-4.08-12.8-.77-12.8 7.39z" fill="#3B4447"/><path d="M1184.03 239.46c.11 5.62 3.62 11.77 8.45 14.68 4.29 2.59 8.54.05 8.45-4.92-.11-5.63-3.62-11.77-8.45-14.68-4.29-2.59-8.54-.05-8.45 4.92z" fill="url(#paint1_linear)"/><path d="M1184.38 239.871c.1 5.35 3.45 11.21 8.04 13.97 4.09 2.47 8.13.05 8.04-4.69-.1-5.36-3.45-11.2-8.04-13.97-4.09-2.47-8.13-.05-8.04 4.69z" fill="#CCCBCA"/><path opacity=".5" d="M1188.99 234.21c-2.21.47-3.8 2.52-3.74 5.49.1 5.28 3.41 11.07 7.94 13.8 1.74 1.05 3.48 1.2 4.88.66-1.52.93-3.58.93-5.65-.32-4.59-2.77-7.94-8.62-8.04-13.97-.07-3.37 1.96-5.56 4.61-5.66z" fill="#fff"/><path d="M1187.68 242.251c.05 2.85 1.84 5.97 4.28 7.44 2.17 1.31 4.33.03 4.28-2.5-.05-2.85-1.84-5.97-4.28-7.44-2.17-1.31-4.32-.03-4.28 2.5z" fill="#3B4447"/><path d="M1150.1 191.7s.94-22.96 3.6-36.17 7.03-26.49 9.61-30.4c2.58-3.91 16.33-14.54 22.51-17.97 6.17-3.44 28.21-14.15 30.48-14.38 2.27-.23 7.11 2.19 7.11 2.19l98.26 55.19s21.57 12.58 30.24 19.93c8.68 7.35 22.98 27.04 22.98 27.04l26.18 41.19s10.47 11.18 13.68 14.93c3.21 3.75 10.79 13.52 12.27 17.19 1.48 3.67 1.91 14.26 1.91 14.26s2.07 2.07 2.07 3.48c0 1.41 1.56 9.85-5 18.83-6.56 8.99-20.66 16.43-31.02 22.54-10.35 6.11-25.88 10.46-30.74 9.94-4.01-.43-10.46-3.1-12.62-4.03-.92-2.79-3.32-9-8.69-17.23-7.4-11.35-16.27-15.03-22.68-12.84-5.05 1.72-4.89 9.3-4.6 12.44l-104.79-61.9h-.97c-.84-3.31-2.38-8.1-5.16-13.8-5.39-11.04-15.67-18.16-23.23-17.01-5.78.88-6.2 7.48-6.07 10.54-2.35-1.61-6.98-5.9-10.55-8.23-3.83-2.5-13.44-8.99-14.14-11.88-.7-2.89-.23-13.68-.23-13.68l-.41-10.17z" fill="#EEF5F9"/><path d="M1157.24 141.07c.79-2.74 1.61-5.29 2.4-7.54l6.06 3.4s80.12 45.31 117.58 67.71c4.9 2.93 14.06 8.65 16.87 15.38.7 1.46 3.14 7.3 3.14 7.3l-15.72-9.59-125.25-73.55-5.08-3.11z" fill="#D00001"/><path d="M1150.49 201.88l-.39-10.18s.11-2.74.37-6.87l4.79 3.14 102.56 62.91 54.05 36.71s39.74 24.32 46.13 26.29c6.39 1.97 18.5-2.75 18.5-2.75l2.22-.21c1.5 1.96 2.67 3.78 3.4 4.94 1.07 1.69 2.61 2.84 3.35 3.32.29-.1.55-.19.8-.27l.57.64s-2.95 6.57-2.95 6.64c0 .07-24.74 3.85-24.74 3.85l-10.98-2.73a92.576 92.576 0 0 0-5.24-9.07c-7.4-11.35-16.27-15.03-22.68-12.84-1.23.42-2.15 1.19-2.83 2.16l-58.86-35.9-55.98-33.32c-5.68-8.82-14.44-14.21-21.08-13.2-.28.04-.54.11-.79.18l-30.36-18.08c.03-2.89.14-5.36.14-5.36z" fill="#E30001"/><path d="M1372.97 310.71c.76.15 1.35.27 1.68.33 1.47.28 4.33-.08 6.65-.56.02.02.03.05.04.07 1.08 1.87 4.39 7.31 8.4 6.71 4.01-.59 13.66-5.53 18.37-8.69 4.71-3.16 12.93-8.18 13.7-14.35.77-6.17.56-9.06.56-9.06v-.08c2.26-2.99 4.39-6.33 5.81-9.16.55 4.19.74 8.78.74 8.78s2.07 2.07 2.07 3.48c0 1.41 1.56 9.85-5 18.83-6.56 8.99-20.66 16.43-31.02 22.54-5.49 3.24-12.45 5.99-18.49 7.77l-3.51-26.61z" fill="#E30001"/><path opacity=".2" d="M1354.13 336.5c.01 0 .01.01.01.01l-.01-.01zM1354.14 336.51c.2.08.4.16.61.24-.2-.08-.41-.16-.61-.24z" fill="#000"/><path opacity=".2" d="M1150.49 201.88s-.47 10.78.23 13.68c.7 2.89 10.31 9.38 14.14 11.88 3.57 2.33 8.2 6.62 10.55 8.23-.12-3.06.29-9.66 6.07-10.54 7.56-1.15 17.85 5.98 23.23 17.01 2.78 5.69 4.32 10.49 5.16 13.8h.97l104.79 61.9c-.3-3.14-.46-10.71 4.6-12.44 6.42-2.19 15.28 1.5 22.68 12.84 5.37 8.23 7.78 14.44 8.69 17.23.58.25 1.46.62 2.51 1.04.04-.2.1-.29.18-.26l-5.05-18.01c-.03-.07-3.89-9.81-14.95-16.62-3.58-2.21-7.04-3.32-10.28-3.32-4.57 0-7.12 2.27-7.14 2.3l-.17.15-111.43-64.34-.04-.1c-.04-.1-3.87-9.63-13.41-14.84-3.67-2-7.08-3.02-10.14-3.02-2.85 0-4.34.92-4.36.93l-.16.1-26.71-16.54c0-.12.01-.24.01-.34l26.7 16.52s5.06-3.25 14.81 2.08c9.76 5.33 13.55 14.99 13.55 14.99l111.16 64.15s6.5-5.96 17.79.99c11.29 6.96 15.08 16.8 15.08 16.8l5.21 18.61c2.87 1.11 6.74 2.45 9.47 2.74 4.86.52 20.39-3.83 30.74-9.94 10.35-6.11 24.45-13.55 31.02-22.54 6.56-8.99 5-17.43 5-18.83 0-1.41-2.07-3.48-2.07-3.48s-.18-4.59-.74-8.78c-1.43 2.83-3.55 6.16-5.81 9.16v.08s.21 2.89-.56 9.06-8.99 11.19-13.7 14.35c-4.71 3.16-14.36 8.1-18.37 8.69-4.01.59-7.32-4.85-8.4-6.71-.01-.02-.02-.05-.04-.07-2.32.49-5.18.85-6.65.56-2.17-.42-14.87-2.9-15.6-4.29-.73-1.38-22.64-22.84-24.13-24.46-1.49-1.62-2.41-3.91-2.41-3.91s-28.46-55.9-32.55-65.3c-3.94-9.03-9.83-15.45-15.18-18.5-38.31-21.89-115.04-66.95-117.66-68.58-1.49-.92-2.52-1.33-3.75-.95l-.07.1c-2.58 3.91-6.96 17.19-9.61 30.4-2.66 13.2-3.59 36.16-3.59 36.16l.39 10.18zm7.46-23.02s3.82-17.62 4.96-24.07c.33-1.86 1.23-2.73 2.28-3.07-.61.5-1.09 1.3-1.31 2.55-1.14 6.45-4.96 24.07-4.96 24.07s-1.07 3.54 1.9 5.2c2.98 1.66 107.02 63.4 107.02 63.4s1.56.5 3.13-.08c-1.83 1.33-4.1.6-4.1.6s-104.04-61.74-107.02-63.4c-2.98-1.66-1.9-5.2-1.9-5.2zm129.62 38.88l-.18.31-125.27-73.55.18-.31 125.27 73.55zm11.03 46.95c-4.11-3.25-11.07-6.68-12.29-15.29-1.22-8.62-.2-23.4-.2-23.4l45.91 60.18 22.05 19.82-20.37-15.41s-30.99-22.65-35.1-25.9zm-143.59-75.84l.24-.88V189l101.92 62.59 54.69 36-55.74-33.37-100.87-60.08V189l-.24-.15zm56.09 66.09l.18-.31 102.23 60.11-.18.31-102.23-60.11z" fill="#000"/><path d="M1320.24 305.39c-2 .68-3.18 2.27-3.86 4.14l-3.43-2.53-106.47-61.01c-.52-1.23-1.11-2.52-1.76-3.85a37.586 37.586 0 0 0-4.43-6.97l5.23 1.04 111.16 64.15 4.6 4.74c-.35.08-.7.17-1.04.29zM1181.48 225.12c-2.39.36-3.86 1.7-4.75 3.37l-18.06-11.7.35 6.65c-3.86-2.79-7.86-6.05-8.3-7.88-.59-2.44-.35-10.48-.26-12.95l26.7 16.52 4.93 5.92c-.21.02-.41.04-.61.07z" fill="#404B4D"/><path opacity=".2" d="M1155.25 187.97l102.56 62.91 54.05 36.71-54.68-36-102.17-62.74.24-.88zM1165.7 136.92s5.26 3.97 13.88 8.95c31.44 18.15 74.3 42.13 103.7 59.71 4.9 2.93 14.21 8.7 16.87 14.43-2.82-6.73-11.98-12.45-16.87-15.38-37.46-22.4-117.58-67.71-117.58-67.71zM1162.44 143.976l-.18.311 125.39 73.341.18-.31-125.39-73.342zM1388.09 318.22c-.42.17-1.3.5-2.62.95-.73-.48-2.28-1.63-3.35-3.32-1.44-2.29-4.61-7.15-8.59-10.6-2.52-2.18-21.71-16.42-21.71-16.42s17.37 12.06 21.33 15.02c4.2 3.14 6.81 6.52 7.82 8.04l.01.01c2.3 3.74 4.69 5.85 7.11 6.32 0 0 0 .01 0 0zM1423.4 285.14c0-.21-.03-.65-.29-1.05-.16-3.47-.26-7.02-1.86-10.8-1.61-3.78-10.74-20.35-10.74-20.35s10.56 18.32 11.7 21.03c1.14 2.71 2.18 12.08 2.18 12.08l-.96.75c.01-.94-.02-1.49-.03-1.66z" fill="#000"/><path d="M1349.19 217.61c11.66-6.58 20.69-14.18 25.65-20.54.03.04.04.06.04.06l26.18 41.19.37.4s4.29 8.26-23.16 25.23c-27.46 16.98-42.06 14.71-42.06 14.71l-22.16-44.37c.01.01 20.11-8.19 35.14-16.68z" fill="#141C1E"/><path d="M1349.7 218.51c10.47-5.91 19.5-13.02 25.05-19.68l24.73 38.91-.39 1.24c-.67 1.31-1.4 5.71-25.69 20.73-21.4 13.23-27.47 14.2-32.9 15.24l-2.71.14c-.55 0-2.16-.31-2.45-.33l-19.87-39.93c4.29-1.8 21.23-8.99 34.23-16.32z" fill="#303E42"/><path d="M1329.66 258.76c.9 0 2-.24 3.23-.74 4.41-1.78 8.99-6.24 10.23-9.96.89-2.68-.19-4.24-2.51-4.24-.9 0-1.99.24-3.23.74-4.41 1.78-8.99 6.24-10.23 9.96-.9 2.67.19 4.24 2.51 4.24zm-.74-3.65c1.07-3.21 5.26-7.25 9.16-8.82 1.22-.49 2.05-.6 2.53-.6.49 0 .78.11.86.22.09.13.19.62-.13 1.56-1.07 3.21-5.26 7.24-9.16 8.82-1.23.5-2.05.6-2.53.6-.49 0-.78-.11-.86-.22-.09-.13-.18-.62.13-1.56z" fill="#3D4B4F"/><path d="M1290.57 223.13s-4.62-3.52-4.48 1.88c.14 5.41.6 15.54 1.14 19.35.53 3.81 1.74 7.79 6.72 11.77 4.98 3.98 38.2 30.3 38.2 30.3l-11.81-25.86s-9.39-19.38-12.02-23.65c-2.64-4.26-17.75-13.79-17.75-13.79z" fill="#141C1E"/><path d="M1319.47 275.09c-3.34-2.65-6.94-5.5-10.36-8.21v-26.42c3.62 6.8 10.22 20.41 10.29 20.55l.07.15v13.93zM1287.47 223.15c.04-.04.12-.12.36-.12.66 0 1.65.56 2.12.92l.04.03.04.02c4.15 2.62 15.37 10.13 17.42 13.47.13.21.28.46.44.74v27.69c-6.17-4.89-11.53-9.15-13.3-10.56-4.74-3.79-5.85-7.58-6.35-11.11-.52-3.73-.98-13.68-1.13-19.23-.04-1.34.26-1.76.36-1.85z" fill="#303E42"/><g opacity=".7" fill="#C5D0D3"><path opacity=".7" d="M1377.19 223.7l-16.05-12.54c5.19-3.78 9.64-7.75 12.97-11.59l3.08 24.13zM1375.45 199.93l8.82 13.87c1.19 7.05 3.04 17.81 3.04 17.81l-8.82-6.89-3.04-24.79z"/></g><path d="M1373.4 259.7c-21.4 13.23-27.47 14.2-32.9 15.24l-2.71.14c-.55 0-2.16-.31-2.45-.33l-4.94-10.03c5.52-4.5 16.13-12.54 27.47-18.65 13.58-7.32 30.89-15.28 30.89-15.28 4.66.64 10.71 6.94 10.71 6.94l-.39 1.24c-.66 1.31-1.39 5.71-25.68 20.73z" fill="#39464A"/><path d="M1344.36 248.49s8.83 10.29 8.37 12.39c-.46 2.1-10.79 8.05-14.27 8.14-3.47.09-10.9-8.63-10.94-10.08-.04-1.44 6.23-10.69 16.84-10.45z" fill="#3D4B4F"/><path opacity=".2" d="M1374.75 198.82l24.73 38.91-.39 1.24c-.39.76-.8 2.57-5.85 6.9-8.69-9.05-22.79-20.58-42.97-27.7 10.23-5.84 19.03-12.81 24.48-19.35z" fill="#fff"/><path opacity=".2" d="M1272.15 244.81c1.57-4.37 5.21-24.55 5.21-26.45 0-1.9-1.07-3.64-3.72-5.13-2.65-1.49-104.07-60.33-104.07-60.33s-3.24-1.78-5.4-.62c2.12-1.82 5.91.27 5.91.27s101.42 58.84 104.07 60.33c2.65 1.49 3.72 3.22 3.72 5.13 0 1.9-3.64 22.09-5.21 26.45-.49 1.37-1.25 2.18-2.05 2.64.6-.49 1.15-1.21 1.54-2.29z" fill="#000"/><path d="M1349.56 318.14l10.47 4.66s3.83 1.81 13.26-.32c8.75-1.97 13.59-3.79 14.8-4.27.35.07.7.11 1.05.11.25 0 .51-.02.76-.06 4.33-.64 14.18-5.75 18.79-8.85.34-.23.7-.47 1.08-.72 4.5-2.99 11.12-7.39 12.75-12.89 1.77-2.35 5.38-7.43 6.4-11.11 0 0 2.07 2.07 2.07 3.48 0 1.41 1.56 9.85-5 18.83-6.56 8.99-20.66 16.43-31.02 22.54-10.35 6.11-25.88 10.46-30.74 9.94-4.01-.43-10.46-3.1-12.62-4.03-.92-2.79-3.32-9-8.69-17.23-.11-.16-.22-.32-.32-.48l6.96.4z" fill="#404B4D"/><path d="M1382.26 307.73c5.12-2.54 14.54-7.63 20.08-10.9 5.73-3.38 16.84-11.01 18.47-12.06.28-.18.5-.28.69-.33.01.07 0 .11 0 .11s.21 2.89-.56 9.06-8.99 11.19-13.7 14.35c-4.7 3.16-14.36 8.1-18.37 8.69-1.15.17-2.23-.16-3.23-.75-2.06-1.61-3.61-4.19-4.29-5.36-1.08-1.86.24-2.48.91-2.81z" fill="#1B2628"/><path d="M1385.32 315.64c.11.09.21.18.32.27.02.01.03.01.04.02l.13-.57.91.3-.16.7c.13.05.26.1.4.14l.16-.71.91.3-.13.59c.14.01.28.02.42.01l.11-.48.91.3-.01.06c.27-.06.57-.13.88-.21l-.38-.13.23-1.01.91.3-.15.66c.15-.05.3-.1.46-.15l.09-.38.52.17c.3-.11.6-.22.92-.34l.18-.82.91.3-.02.1c.24-.1.48-.2.73-.31l-.22-.07.23-1.01.91.3-.1.42.48-.21.02-.08.09.03c.19-.08.37-.17.56-.26l-.55-.18.23-1.01.91.3-.16.7c.16-.08.32-.15.48-.23l.08-.34.37.12c.18-.09.36-.17.54-.26l-.82-.27.23-1.01.91.3-.21.93.48-.24.12-.56.59.19.87-.45.16-.73.75.25c.23-.12.46-.25.68-.37l.19-.87.86.28c.19-.11.37-.21.55-.32l.21-.96.91.3c.17-.1.33-.2.49-.3l.22-.99.89.29c.18-.11.35-.23.52-.34l.21-.95.81.27c.2-.14.41-.27.62-.41l.19-.84.72.24c.24-.16.49-.33.74-.5l.16-.73.61.2c.29-.21.59-.42.89-.63l.12-.56.45.15c.14-.1.27-.2.41-.31l-.76-.25.23-1.01.91.3-.18.82c.17-.13.35-.26.52-.4l.07-.3.22.07c.13-.1.26-.21.39-.31l-.52-.17.23-1.01.91.3-.1.46c.27-.22.53-.45.79-.68l-.19-.06.22-1.01.83.27c.22-.21.44-.43.65-.65l.14-.61.33.11c.1-.11.21-.23.3-.34l-.55-.18.23-1.01.91.3-.05.25c.21-.27.42-.55.61-.82l.16-.72.25.08c.08-.12.15-.24.22-.37l-.38-.12.23-1.01.63.2c.06-.13.11-.26.17-.39l-.7-.23.23-1.01.81.27c.04-.14.07-.27.1-.41l-.81-.27.23-1.01.76.25c.02-.14.03-.28.05-.42l-.71-.23.23-1.01.61.2c.01-.14.03-.29.04-.42l-.56-.18.23-1.01.43.14c.01-.15.03-.29.04-.43l-.38-.12.22-1 .23.08.03-.43-.17-.06.21-.94h.01c.04-.96.05-1.68.04-2.17l-.06.27-.91-.3.09-.41c-.21.14-.51.34-.89.59l.31.1-.21.94-.91-.3.05-.24c-.22.15-.45.3-.69.47l.15.05-.21.94-.91-.3.01-.05c-.17.11-.33.22-.5.34l-.22.99-.84-.28c-.2.13-.39.26-.59.4l-.19.87-.75-.25c-.23.16-.47.31-.71.47l-.17.76-.66-.21c-.27.18-.54.36-.82.55l-.15.66-.57-.19c-.31.2-.61.41-.92.61l-.13.57-.5-.16c-.15.1-.3.2-.45.29l.85.28-.23 1.01-.91-.3.21-.95c-.17.11-.33.22-.5.33l-.11.49-.43-.14c-.15.1-.3.2-.45.29l.79.26-.23 1.01-.91-.3.2-.88c-.17.11-.33.22-.5.32l-.1.43-.38-.12c-.15.1-.31.19-.46.29l.74.24-.23 1.01-.91-.3.18-.82c-.17.11-.34.21-.5.31l-.08.38-.34-.11c-.16.1-.31.19-.46.29l.71.23-.22 1.01-.91-.3.18-.8c-.17.1-.33.21-.5.31l-.08.36-.33-.11c-.16.1-.32.19-.47.28l.71.23-.23 1.01-.91-.3.18-.8c-.09.05-.18.11-.26.16-.08.04-.15.09-.23.13l-.09.38-.36-.12c-.16.09-.32.19-.48.28l.75.25-.23 1.01-.91-.3.19-.85c-.16.09-.32.19-.49.28l-.1.44-.42-.14c-.16.09-.32.18-.49.28l.82.27-.23 1.01-.91-.3.21-.92c-.16.09-.33.19-.49.28l-.11.51-.5-.17c-.16.09-.33.18-.49.28l.9.3-.23 1.01-.91-.3.23-1.01c-.16.09-.33.18-.49.27l-.13.6-.6-.19-.87.48-.16.71-.7-.23c-.24.13-.49.27-.74.4l-.18.82-.82-.27c-.2.11-.39.21-.59.32l-.21.94-.91-.3.01-.04c-.19.1-.38.2-.56.3l.06.02-.23 1.01-.91-.3.04-.18c-.25.13-.49.26-.74.39l.21.07-.23 1.01-.91-.3.07-.33c-.31.16-.62.33-.93.49l.36.12-.23 1.01-.91-.3.11-.49c-.16.08-.32.17-.49.25l-.02.1-.11-.04c-.18.09-.35.18-.52.27l.54.18-.23 1.01-.91-.3.15-.66c-.17.08-.33.17-.48.25l-.06.28-.29-.1c-.18.09-.35.18-.52.27l.72.24-.23 1.01-.91-.3.19-.84-.48.24-.1.47-.5-.17c-.03.02-.06.03-.1.05-.12.06-.27.13-.42.22l.93.3-.23 1.01-1.5-.49c-.05.12-.08.26-.09.41l1.5.49-.23 1.01-.96-.32c.03.06.05.11.09.17.07.11.14.24.22.37l.56.18-.12.54c.1.16.21.32.32.49l.2-.9.91.3-.23 1.01-.77-.25c.13.19.26.38.4.57l.29.09-.05.23c.11.14.22.29.33.43l.12-.53.91.3-.23 1.01-.2-.07c.19.22.39.43.59.63l.83.27-.1.49zm-1.71-2.96l.23-1.01.91.3-.23 1.01-.91-.3zm.14-2.57l-.23 1.01-.91-.3.23-1.01.91.3zm.32-1.42l-.23 1.01-.91-.3.23-1.01.91.3zm.99 1.85l-.23 1.01-.91-.3.23-1.01.91.3zm.32-1.42l-.23 1.01-.91-.3.23-1.01.91.3zm.08 1.55l.91.3-.23 1.01-.91-.3.23-1.01zm.23-2.98l-.23 1.01-.91-.3.23-1.01.91.3zm.99 1.86l-.23 1.01-.91-.3.23-1.01.91.3zm31.83-17.03l-.22 1.01-.91-.3.23-1.01.9.3zm-.81-.71l.23-1.01.91.3-.23 1.01-.91-.3zm.5 2.13l-.23 1.01-.91-.3.23-1.01.91.3zm-1.22-.84l-.91-.3.22-1.01.91.3-.22 1.01zm-.09.41l-.23 1.01-.91-.3.22-1.01.92.3zm-.32 1.43l-.23 1.01-.91-.3.23-1.01.91.3zm-1.21-.84l-.91-.3.23-1.01.91.3-.23 1.01zm.9 2.26l-.23 1.01-.91-.3.23-1.01.91.3zm-1.22-.84l-.91-.3.23-1.01.91.3-.23 1.01zm-.09.41l-.23 1.01-.91-.3.23-1.01.91.3zm-1.21-.84l-.91-.3.23-1.01.91.3-.23 1.01zm.89 2.26l-.23 1.01-.91-.3.22-1.01.92.3zm-1.21-.84l-.91-.3.23-1.01.91.3-.23 1.01zm-.09.41l-.23 1.01-.91-.3.23-1.01.91.3zm-1.22-.84l-.91-.3.23-1.01.91.3-.23 1.01zm.9 2.26l-.23 1.01-.91-.3.23-1.01.91.3zm-1.22-.83l-.91-.3.23-1.01.91.3-.23 1.01zm-.09.41l-.23 1.01-.91-.3.23-1.01.91.3zm-.31 1.42l-.23 1.01-.91-.3.23-1.01.91.3zm-1.22-.84l-.91-.3.23-1.01.91.3-.23 1.01zm.9 2.26l-.22 1.01-.91-.3.23-1.01.9.3zm-1.22-.84l-.91-.3.23-1.01.91.3-.23 1.01zm-.09.41l-.23 1.01-.91-.3.23-1.01.91.3zm-1.21-.84l-.91-.3.22-1.01.91.3-.22 1.01zm.9 2.26l-.23 1.01-.91-.3.23-1.01.91.3zm-1.22-.84l-.91-.3.23-1.01.91.3-.23 1.01zm-.09.41l-.23 1.01-.91-.3.23-1.01.91.3zm-1.22-.83l-.91-.3.23-1.01.91.3-.23 1.01zm.9 2.26l-.23 1.01-.91-.3.23-1.01.91.3zm-1.21-.84l-.91-.3.23-1.01.91.3-.23 1.01zm-.09.41l-.23 1.01-.91-.3.23-1.01.91.3zm-1.22-.84l-.91-.3.23-1.01.91.3-.23 1.01zm.9 2.26l-.23 1.01-.91-.3.23-1.01.91.3zm-1.22-.84l-.91-.3.23-1.01.91.3-.23 1.01zm-.09.41l-.23 1.01-.91-.3.23-1.01.91.3zm-1.21-.84l-.91-.3.23-1.01.91.3-.23 1.01zm.9 2.26l-.23 1.01-.91-.3.23-1.01.91.3zm-1.22-.83l-.91-.3.23-1.01.91.3-.23 1.01zm-.09.4l-.23 1.01-.91-.3.23-1.01.91.3zm-1.21-.83l-.91-.3.23-1.01.91.3-.23 1.01zm.89 2.26l-.22 1.01-.91-.3.23-1.01.9.3zm-1.21-.84l-.91-.3.23-1.01.91.3-.23 1.01zm-.09.41l-.23 1.01-.91-.3.23-1.01.91.3zm-1.22-.84l-.91-.3.23-1.01.91.3-.23 1.01zm.9 2.26l-.23 1.01-.91-.3.23-1.01.91.3zm-1.22-.84l-.91-.3.23-1.01.91.3-.23 1.01zm-.09.41l-.23 1.01-.91-.3.23-1.01.91.3zm-1.21-.84l-.91-.3.23-1.01.91.3-.23 1.01zm.9 2.26l-.23 1.01-.91-.3.23-1.01.91.3zm-1.22-.83l-.91-.3.23-1.01.91.3-.23 1.01zm-.99-1.85l-.91-.3.23-1.01.91.3-.23 1.01zm.9 2.26l-.23 1.01-.91-.3.23-1.01.91.3zm-1.22-.84l-.91-.3.23-1.01.91.3-.23 1.01zm-.09.41l-.23 1.01-.91-.3.23-1.01.91.3zm-1.21-.84l-.91-.3.23-1.01.91.3-.23 1.01zm.89 2.26l-.22 1.01-.91-.3.23-1.01.9.3zm-1.21-.84l-.91-.3.22-1.01.91.3-.22 1.01zm-.09.41l-.23 1.01-.91-.3.23-1.01.91.3zm-1.22-.84l-.91-.3.23-1.01.91.3-.23 1.01zm.9 2.26l-.23 1.01-.91-.3.23-1.01.91.3zm-1.21-.84l-.91-.3.23-1.01.91.3-.23 1.01zm-.09.41l-.23 1.01-.91-.3.23-1.01.91.3zm-1.22-.84l-.91-.3.22-1.01.91.3-.22 1.01zm.9 2.27l-.23 1.01-.91-.3.23-1.01.91.3zm-1.22-.84l-.91-.3.23-1.01.91.3-.23 1.01zm-.09.41l-.23 1.01-.91-.3.23-1.01.91.3zm-1.21-.84l-.91-.3.23-1.01.91.3-.23 1.01zm.9 2.26l-.23 1.01-.91-.3.23-1.01.91.3zm-1.22-.84l-.91-.29.23-1.01.91.3-.23 1zm-.09.41l-.23 1.01-.91-.3.23-1.01.91.3zm-1.21-.84l-.91-.3.23-1.01.91.3-.23 1.01zm-.1.41l-.23 1.01-.91-.3.23-1.01.91.3zm-.31 1.43l-.23 1.01-.91-.3.23-1.01.91.3zm-1.22-.84l-.91-.3.23-1.01.91.3-.23 1.01zm-.09.41l-.23 1.01-.91-.3.23-1.01.91.3zm-.67-3.28l-.23 1.01-.91-.3.23-1.01.91.3zm.32-1.42l-.23 1.01-.91-.3.23-1.01.91.3zm.98 1.85l-.22 1.01-.91-.3.23-1.01.9.3zm-.59-1.72l.91.3-.23 1.01-.91-.3.23-1.01zm1.23-1.12l-.23 1.01-.91-.3.23-1.01.91.3zm.99 1.85l-.22 1.01-.91-.3.23-1.01.9.3zm-.59-1.72l.91.3-.23 1.01-.91-.3.23-1.01zm1.22-1.12l-.23 1.01-.91-.3.23-1.01.91.3zm.99 1.85l-.23 1.01-.91-.3.22-1.01.92.3zm-.59-1.72l.91.3-.23 1.01-.91-.3.23-1.01zm1.22-1.13l-.22 1.01-.91-.3.23-1.01.9.3zm.99 1.85l-.23 1.01-.91-.3.23-1.01.91.3zm-.58-1.72l.91.3-.23 1.01-.91-.3.23-1.01zm1.22-1.12l-.23 1.01-.91-.3.23-1.01.91.3zm.99 1.85l-.23 1.01-.91-.3.23-1.01.91.3zm-.59-1.72l.91.3-.23 1.01-.91-.3.23-1.01zm1.22-1.13l-.23 1.01-.91-.3.22-1.01.92.3zm.99 1.85l-.23 1.01-.91-.3.23-1.01.91.3zm-.59-1.71l.91.3-.23 1.01-.91-.3.23-1.01zm1.23-1.13l-.23 1.01-.91-.3.23-1.01.91.3zm.99 1.85l-.23 1.01-.91-.3.23-1.01.91.3zm.31-1.42l-.22 1.01-.91-.3.23-1.01.9.3zm.99 1.85l-.23 1.01-.91-.3.22-1.01.92.3zm.32-1.42l-.23 1.01-.91-.3.23-1.01.91.3zm.32-1.42l-.23 1.01-.91-.3.23-1.01.91.3zm.98 1.85l-.23 1.01-.91-.3.23-1.01.91.3zm.32-1.43l-.23 1.01-.91-.3.23-1.01.91.3zm.32-1.42l-.23 1.01-.91-.3.23-1.01.91.3zm.99 1.85l-.23 1.01-.91-.3.23-1.01.91.3zm.31-1.42l-.23 1.01-.91-.3.23-1.01.91.3zm.32-1.42l-.23 1.01-.91-.3.23-1.01.91.3zm.99 1.85l-.23 1.01-.91-.3.23-1.01.91.3zm.32-1.42l-.23 1.01-.91-.3.23-1.01.91.3zm.31-1.42l-.23 1.01-.91-.3.23-1.01.91.3zm.99 1.84l-.23 1.01-.91-.3.23-1.01.91.3zm.32-1.42l-.23 1.01-.91-.3.22-1.01.92.3zm.32-1.42l-.23 1.01-.91-.3.23-1.01.91.3zm.99 1.85l-.23 1.01-.91-.3.23-1.01.91.3zm.31-1.42l-.22 1.01-.91-.3.23-1.01.9.3zm.32-1.42l-.23 1.01-.91-.3.23-1.01.91.3zm.99 1.85l-.23 1.01-.91-.3.23-1.01.91.3zm.32-1.42l-.23 1.01-.91-.3.23-1.01.91.3zm.31-1.43l-.23 1.01-.91-.3.23-1.01.91.3zm.99 1.85l-.23 1.01-.91-.3.23-1.01.91.3zm.32-1.42l-.23 1.01-.91-.3.23-1.01.91.3zm-.59-1.72l.91.3-.23 1.01-.91-.3.23-1.01zm1.23-1.12l-.23 1.01-.91-.3.23-1.01.91.3zm.98 1.85l-.23 1.01-.91-.3.23-1.01.91.3zm-.59-1.72l.91.3-.23 1.01-.91-.3.23-1.01zm1.23-1.12l-.23 1.01-.91-.3.23-1.01.91.3zm.99 1.85l-.23 1.01-.91-.3.23-1.01.91.3zm-.59-1.73l.91.3-.23 1.01-.91-.3.23-1.01zm1.22-1.12l-.22 1.01-.91-.3.23-1.01.9.3zm.99 1.85l-.22 1.01-.91-.3.23-1.01.9.3zm-.59-1.72l.91.3-.22 1.01-.91-.3.22-1.01zm1.23-1.12l-.23 1.01-.91-.3.23-1.01.91.3zm.99 1.85l-.23 1.01-.91-.3.23-1.01.91.3zm-.59-1.72l.91.3-.23 1.01-.91-.3.23-1.01zm1.22-1.11l-.22 1-.91-.3.22-1 .91.3zm.99 1.84l-.23 1.01-.91-.3.23-1.01.91.3zm-.6-1.71l.91.3-.22 1-.91-.3.22-1zm1.21-1.05l-.21.94-.91-.3.21-.94.91.3zm1.4.02l-.91-.3.21-.94.91.3-.21.94zm-1.21 1.05l.21-.94.91.3-.21.94-.91-.3zm-.31 1.41l.22-1 .91.3-.22 1-.91-.3zm-.32 1.42l.23-1.01.91.3-.23 1.01-.91-.3zm-.32 1.42l.23-1.01.91.3-.23 1.01-.91-.3zm-.31 1.42l.23-1.01.91.3-.23 1.01-.91-.3zm-.32 1.43l.23-1.01.91.3-.23 1.01-.91-.3zm.59 1.71l-.91-.3.23-1.01.91.3-.23 1.01zm-1.22 1.13l.23-1.01.91.3-.23 1.01-.91-.3zm-.99-1.85l.23-1.01.91.3-.23 1.01-.91-.3zm-.32 1.42l.23-1.01.91.3-.23 1.01-.91-.3zm.59 1.72l-.91-.3.23-1.01.91.3-.23 1.01zm-1.23 1.12l.23-1.01.91.3-.23 1.01-.91-.3zm-.98-1.85l.23-1.01.91.3-.23 1.01-.91-.3zm.59 1.72l-.91-.3.23-1.01.91.3-.23 1.01zm-1.23 1.13l.23-1.01.91.3-.23 1.01-.91-.3zm-.99-1.85l.22-1.01.91.3-.23 1.01-.9-.3zm-.32 1.42l.23-1.01.91.3-.23 1.01-.91-.3zm-.31 1.42l.23-1.01.91.3-.22 1.01-.92-.3zm-.99-1.85l.23-1.01.91.3-.23 1.01-.91-.3zm-.32 1.42l.23-1.01.91.3-.23 1.01-.91-.3zm.59 1.72l-.91-.3.23-1.01.91.3-.23 1.01zm-1.22 1.13l.23-1.01.91.3-.23 1.01-.91-.3zm-.99-1.85l.23-1.01.91.3-.23 1.01-.91-.3zm.59 1.72l-.91-.3.23-1.01.91.3-.23 1.01zm-1.23 1.12l.23-1.01.91.3-.23 1.01-.91-.3zm-.98-1.85l.23-1.01.91.3-.23 1.01-.91-.3zm.59 1.72l-.91-.3.23-1.01.91.3-.23 1.01zm-1.23 1.12l.23-1.01.91.3-.23 1.01-.91-.3zm-.99-1.85l.23-1.01.91.3-.23 1.01-.91-.3zm.59 1.72l-.91-.3.23-1.01.91.3-.23 1.01zm-1.22 1.13l.23-1.01.91.3-.23 1.01-.91-.3zm-.99-1.85l.23-1.01.91.3-.23 1.01-.91-.3zm.59 1.72l-.91-.3.23-1.01.91.3-.23 1.01zm-1.23 1.12l.23-1.01.91.3-.23 1.01-.91-.3zm-.98-1.85l.22-1.01.91.3-.23 1.01-.9-.3zm.59 1.72l-.91-.3.22-1.01.91.3-.22 1.01zm-1.23 1.12l.23-1.01.91.3-.23 1.01-.91-.3zm-.99-1.85l.23-1.01.91.3-.23 1.01-.91-.3zm.59 1.72l-.91-.3.23-1.01.91.3-.23 1.01zm-1.22 1.13l.23-1.01.91.3-.23 1.01-.91-.3zm-.99-1.85l.23-1.01.91.3-.23 1.01-.91-.3zm.59 1.72l-.91-.3.23-1.01.91.3-.23 1.01zm-1.23 1.12l.23-1.01.91.3-.23 1.01-.91-.3zm-.99-1.85l.23-1.01.91.3-.23 1.01-.91-.3zm-.31 1.42l.23-1.01.91.3-.23 1.01-.91-.3zm-.99-1.85l.23-1.01.91.3-.23 1.01-.91-.3zm-.32 1.42l.23-1.01.91.3-.23 1.01-.91-.3zm-.32 1.42l.23-1.01.91.3-.23 1.01-.91-.3zm-.98-1.84l.23-1.01.91.3-.23 1.01-.91-.3zm-.32 1.42l.23-1.01.91.3-.23 1.01-.91-.3zm-.32 1.42l.22-1.01.91.3-.23 1.01-.9-.3zm-.99-1.85l.23-1.01.91.3-.23 1.01-.91-.3zm.59 1.72l-.91-.3.23-1.01.91.3-.23 1.01zm-1.22 1.12l.23-1.01.91.3-.23 1.01-.91-.3zm-.99-1.85l.23-1.01.91.3-.23 1.01-.91-.3zm.59 1.72l-.91-.3.23-1.01.91.3-.23 1.01zm-1.23 1.13l.23-1.01.91.3-.23 1.01-.91-.3zm-.98-1.85l.23-1.01.91.3-.23 1.01-.91-.3zm-.32 1.42l.23-1.01.91.3-.23 1.01-.91-.3zm-.99-1.85l.23-1.01.91.3-.23 1.01-.91-.3zm.59 1.72l-.91-.3.23-1.01.91.3-.23 1.01zm-1.23 1.12l.23-1.01.91.3-.23 1.01-.91-.3zm-.99-1.85l.23-1.01.91.3-.23 1.01-.91-.3zm-.31 1.42l.23-1.01.91.3-.23 1.01-.91-.3zm-.99-1.85l.23-1.01.91.3-.23 1.01-.91-.3zm-.32 1.42l.23-1.01.91.3-.23 1.01-.91-.3zm-.99-1.84l.23-1.01.91.3-.23 1.01-.91-.3zm.59 1.71l-.91-.3.23-1.01.91.3-.23 1.01z" fill="#354042"/><path d="M1320.41 266.98s3.3 1.32 3.36 3.21c.06 1.89.18 7.14.18 7.14s.06 1.75-1.29 1.43c-1.35-.32-2.79-.95-2.79-.95s-3.97 2.19-5.81 2.55c-1.85.36-4.7.6-5.33-.48-.63-1.08-.17-7.16.15-9.4.32-2.23.6-4.26 2.82-5.4 2.22-1.14 3.54-1.59 3.54-1.59s1.74-.57 3.09.54c1.35 1.11 1.11 3.36 1.11 3.36l.97-.41z" fill="#5A6567"/><path opacity=".3" d="M1323.72 269.83c.03.12.05.24.05.36.06 1.89.18 7.14.18 7.14s.06 1.75-1.29 1.43c-1.35-.32-2.79-.95-2.79-.95l-.42-5.8s2.54-1.3 4.27-2.18zM1308.5 274.74c.09-1.66.25-3.3.39-4.25.16-1.11.31-2.18.69-3.1.91.39 2.43.83 4 .91-.16.16-.31.33-.43.52-1.51 2.29-1.42 3.8-1.55 7.09-2.39-.27-3.1-1.17-3.1-1.17z" fill="#5A6567"/><path opacity=".3" d="M1308.5 274.74c0 .01.5 1.81 1.66 2 .44.07.96-.03 1.42-.17-.05 1.74.1 3.11.29 4.08-1.39.08-2.72-.06-3.13-.76-.37-.63-.37-2.9-.24-5.15z" fill="#5A6567"/><path opacity=".5" d="M1312.97 275.97c-.51 0-.97-.03-1.38-.07.13-3.29.04-4.8 1.55-7.09 1.14-1.73 4.43-2.82 6.12-3.29.28.95.19 1.88.19 1.88v4.61s2.54-1.3 4.27-2.18c.03.12.05.24.05.36.06 1.89.18 7.14.18 7.14s.06 1.75-1.29 1.43c-1.35-.32-2.79-.95-2.79-.95s-3.97 2.19-5.81 2.55c-.65.13-1.43.24-2.2.28-.19-.97-.34-2.34-.29-4.08.77-.23 1.4-.59 1.4-.59z" fill="#5A6567"/><path d="M1397.16 232.17l-4.88-7.68c0-2.15.11-5.7.78-6.73.99-1.51 3.67-3.43 3.67-3.43s1.57-.41 2.33.76c.76 1.16 1.34 7.16 1.46 9.78.08 2.17-1.13 5.13-3.36 7.3z" fill="#5A6567"/><path opacity=".5" d="M1396 221.38c.03-2.02.96-2.69.96-2.69l2.59-2.06c.5 2.29.86 6.23.95 8.22.1 2.19-1.11 5.15-3.34 7.32l-1.17-1.84c-.01-3.43-.01-7.78.01-8.95z" fill="#5A6567"/><path opacity=".3" d="M1393.82 226.92l2.17-.92-3.12-.58-.59-.93c0-1.85.08-4.72.53-6.15.82.66 2.07 1.5 3.36 1.78-.09.35-.15.76-.16 1.26-.02 1.18-.02 5.53-.01 8.95l-2.18-3.41z" fill="#5A6567"/><path d="M1382.24 312c-.16-.24-.3-.47-.43-.68 4.98-1.95 15.8-7.73 22.01-11.26 8.9-5.06 18.09-12.58 18.09-12.58l.08.82s-9.19 7.52-18.09 12.58c-6.07 3.45-16.53 9.05-21.66 11.12zM1385.57 315.85c-.22-.18-.43-.36-.64-.56 5.52-2.59 13.45-6.87 18.43-9.69 8.9-5.06 18.09-12.58 18.09-12.58l.08.82s-9.19 7.52-18.09 12.58c-4.81 2.74-12.38 6.82-17.87 9.43z" fill="#404B4D"/><path d="M1403.21 298.18c8.9-5.06 18.09-12.58 18.09-12.58l.61 1.87s-9.19 7.52-18.09 12.58c-6.21 3.53-17.03 9.31-22.01 11.26-.18-.29-.33-.56-.46-.77-.22-.39-.34-.72-.38-1.01 4.86-1.84 15.93-7.76 22.24-11.35zM1384.93 315.29c-.46-.43-.89-.9-1.29-1.38 5.52-2.51 14.2-7.18 19.52-10.2 8.9-5.06 18.09-12.58 18.09-12.58l.2 1.89c-.02.02-9.2 7.52-18.09 12.58-4.98 2.83-12.91 7.1-18.43 9.69z" fill="#5A6567"/><mask id="b" maskUnits="userSpaceOnUse" x="1342" y="284" width="90" height="44"><path d="M1349.56 318.14l10.47 4.66s3.83 1.81 13.26-.32c8.75-1.97 13.59-3.79 14.8-4.27.35.07.7.11 1.05.11.25 0 .51-.02.76-.06 4.33-.64 14.18-5.75 18.79-8.85.34-.23.7-.47 1.08-.72 4.5-2.99 11.12-7.39 12.75-12.89 1.77-2.35 5.38-7.43 6.4-11.11 0 0 2.07 2.07 2.07 3.48 0 .42.14 1.46.16 2.94-5.07 8-13.82 15.54-22.25 21.08-10.21 6.7-28.9 13.35-36.85 14.72-7.95 1.37-14.35-1.37-14.35-1.37l-15.06-7.8 6.92.4z" fill="url(#paint2_linear)"/></mask><g mask="url(#b)"><path d="M1349.56 318.14l10.47 4.66s3.83 1.81 13.26-.32c8.75-1.97 13.59-3.79 14.8-4.27.35.07.7.11 1.05.11.25 0 .51-.02.76-.06 4.33-.64 14.18-5.75 18.79-8.85.34-.23.7-.47 1.08-.72 4.5-2.99 11.12-7.39 12.75-12.89 1.77-2.35 5.38-7.43 6.4-11.11 0 0 2.07 2.07 2.07 3.48 0 .42.14 1.46.16 2.94-5.07 8-13.82 15.54-22.25 21.08-10.21 6.7-28.9 13.35-36.85 14.72-7.95 1.37-14.35-1.37-14.35-1.37l-15.06-7.8 6.92.4z" fill="url(#paint3_linear)"/><path d="M1374.8 326.88c-2.12.09-7.17.71-7.02 3.91.17 3.51 6.14 3.39 14.13 1.87 7.99-1.52 15.53-5.78 15.53-5.78s-11.28 4.82-19.7 4.31c.01 0 .42-4.44-2.94-4.31z" fill="#4D585A"/><path d="M1373.78 326.96c.2.81.36 2.15-.55 2.8-1.12.8-3.53 1.49-5.33 1.7-.07-.21-.11-.43-.12-.67-.13-2.76 3.61-3.6 6-3.83zM1387.59 323.61c.27-.21.51-.31.51-.31 3.37-1.25 13.35-5.66 19.75-9.62 3.56-2.2 6.86-4.61 9.47-6.64-.1.69-.44 1.74-1.51 2.61-1.75 1.42-6.94 5.22-12 7.97-5.53 3.02-12.78 7.45-16.22 5.99z" fill="#273234"/></g><mask id="c" maskUnits="userSpaceOnUse" x="1386" y="302" width="38" height="26"><path d="M1387.59 323.61c3.44 1.46 10.69-2.97 16.22-5.98 5.05-2.75 10.25-6.56 12-7.97a4.111 4.111 0 0 0 1.51-2.61c2.08-1.62 3.71-3 4.67-3.82 2.16-1.86 2.12-.31 1.44 1.92-.68 2.23-4.26 7.23-12.51 12.71s-14.45 8.21-18.38 9.47c-3.94 1.26-5.33-.67-5.66-2-.2-.83.29-1.4.71-1.72z" fill="url(#paint4_linear)"/></mask><g mask="url(#c)"><path opacity=".5" d="M1387.59 323.61c3.44 1.46 10.69-2.97 16.22-5.98 5.05-2.75 10.25-6.56 12-7.97a4.111 4.111 0 0 0 1.51-2.61c2.08-1.62 3.71-3 4.67-3.82 2.16-1.86 2.12-.31 1.44 1.92-.68 2.23-4.26 7.23-12.51 12.71s-14.45 8.21-18.38 9.47c-3.94 1.26-5.33-.67-5.66-2-.2-.83.29-1.4.71-1.72z" fill="url(#paint5_linear)"/><path d="M1423.78 307.55s5.82-6.22 6.54-11.23c.72-5.01-.5-2.03-1.72-.61-1.23 1.42-1.9 2.53-2.33 4.18-.44 1.64.09 3.48-2.49 7.66z" fill="#4D585A"/><path d="M1396.61 325.61l18.48-11.13c.15-.09.29-.13.44-.13.31 0 .63.22.64.73l.09 3.6c.01.51-.32 1.13-.77 1.39l-18.38 10.97c-.15.09-.29.13-.44.13-.37 0-.64-.29-.66-.72l-.15-3.42c-.02-.54.31-1.15.75-1.42z" fill="#404B4D"/><path d="M1396.89 326.07l18.48-11.14c.08-.05.13-.06.16-.06.09 0 .1.14.1.2l.09 3.6c.01.32-.23.75-.51.92l-18.38 10.96c-.06.03-.12.05-.16.05-.1 0-.12-.13-.12-.21l-.15-3.42c-.01-.3.22-.73.49-.9z" fill="#fff"/></g></g><g clip-path="url(#clip1)"><path d="M1221.36 95.62c-1.51-.93-3.99-1.01-5.56-.17-.78.42-1.18.99-1.2 1.57l-.02.62c-.02.58.35 1.17 1.1 1.64 1.51.93 3.99 1.01 5.56.17.78-.42 1.18-.99 1.2-1.57l.02-.62c.02-.59-.35-1.18-1.1-1.64z" fill="#6D807D"/><path d="M1221.08 91.44c.01-.35-.21-.71-.66-.99-.91-.56-2.41-.61-3.35-.1-.47.25-.71.6-.73.95l-1.28 5.18c-.02.52.31 1.04.98 1.46 1.34.83 3.55.9 4.93.15.69-.37 1.05-.88 1.07-1.39l-.96-5.26z" fill="#0F53B9"/><path d="M1178.77 121.74c-1.51-.93-3.99-1.01-5.56-.17-.78.42-1.18.99-1.2 1.57l-.01.61c-.02.58.35 1.17 1.1 1.64 1.51.93 3.99 1.01 5.56.17.78-.42 1.18-.99 1.2-1.57l.02-.62c.01-.57-.35-1.17-1.11-1.63z" fill="#6D807D"/><path d="M1178.49 117.57c.01-.35-.21-.71-.66-.99-.91-.56-2.41-.61-3.35-.1-.47.25-.71.6-.72.95l-1.29 5.17c-.02.52.31 1.04.98 1.46 1.34.83 3.55.9 4.93.15.69-.37 1.05-.88 1.07-1.39l-.96-5.25z" fill="#0F53B9"/><path opacity=".2" d="M1276.15 185.36l50.96-29.43 11.26 6.5-50.97 29.43-11.25-6.5z" fill="#000"/><path d="M1277.99 182.66l22.61-13.08c.62-.54 2.37-.19 4.42 1 2.57 1.49 4.66 3.72 4.66 4.98 0 .29-.11.51-.32.65l-22.69 13.14c-.68.46-2.37.08-4.34-1.05-2.57-1.49-4.66-3.72-4.66-4.98 0-.3.12-.52.32-.66zM1316.22 171.8c0-1.27-2.09-3.5-4.66-4.98-1.76-1.02-3.36-1.41-4.16-1.15l21.29-12.31c.62-.54 2.36-.19 4.41 1 2.58 1.49 4.66 3.72 4.66 4.98 0 .29-.11.51-.32.65l-21.51 12.44a.79.79 0 0 0 .29-.63z" fill="#0F53B9"/><path d="M1277.67 183.31c0 1.26 2.09 3.5 4.66 4.98 2.57 1.49 4.66 1.67 4.66.4 0-1.26-2.09-3.5-4.66-4.98-2.57-1.49-4.66-1.67-4.66-.4z" fill="#5099DA"/><path d="M1309.36 176.21c.21-.14.32-.35.32-.65 0-1.27-2.09-3.5-4.66-4.98-1.77-1.02-3.31-1.42-4.1-1.16l6.22-3.59c.62-.54 2.36-.19 4.42 1 2.57 1.49 4.66 3.72 4.66 4.98 0 .29-.11.51-.32.65l-6.55 3.79.01-.04z" fill="url(#paint6_linear)"/><path d="M1186.9 177.77l2.59-3.47 4.35 5.53v-5.86l5.01 2.9v5.86l4.35-.51 2.58 6.45-4.57.54 4.57 5.81-2.58 3.47-4.35-5.53v5.86l-5.01-2.89v-5.86l-4.35.51-2.59-6.46 4.58-.53-4.58-5.82z" fill="#004ECD"/><path d="M1196.4 201.3c-7.16-4.13-12.98-14.22-12.98-22.49 0-5.79 2.94-9.53 7.48-9.53 1.85 0 3.84.61 5.91 1.8 7.16 4.13 12.98 14.22 12.98 22.49 0 5.79-2.94 9.53-7.48 9.53-1.85 0-3.84-.61-5.91-1.8zm-12.16-22.49c0 8.01 5.64 17.77 12.57 21.78 1.94 1.12 3.79 1.69 5.5 1.69 4.11 0 6.66-3.34 6.66-8.71 0-8-5.64-17.77-12.57-21.77-1.94-1.12-3.79-1.69-5.5-1.69-4.11-.01-6.66 3.33-6.66 8.7z" fill="#004ECD"/><path d="M1328.73 191.51l-2.37-3.57 2.66-1.53 2.37 3.57 1.45-3.31 3.11 1.92-1.45 3.31 3.82.26.46 3.45-3.82-.25 2.36 3.56-2.65 1.53-2.37-3.56-1.45 3.31-3.12-1.93 1.46-3.3-3.82-.26-.46-3.46 3.82.26z" fill="#0080FF"/><path d="M1324.71 197.51c3.03 4.56 8.67 6.44 12.57 4.19 3.9-2.25 4.61-7.8 1.58-12.36-3.03-4.56-8.67-6.44-12.57-4.19-3.9 2.25-4.61 7.8-1.58 12.36zm1.92-11.84c3.66-2.11 8.94-.35 11.78 3.93s2.18 9.47-1.48 11.59c-3.66 2.11-8.94.35-11.78-3.93s-2.17-9.48 1.48-11.59z" fill="#0080FF"/><path d="M1415.41 276.25l1.53-.87-9.69-6.93-1.37.78 6.4 8.81 1.52-.87-1.41-1.86.99-.57 2.03 1.51zm-3.91-1.98l-2.6-3.14 3.39 2.69-.79.45zM1401.9 271.51l4.54 5.71-6.23-4.75-1.78 1.02 8.04 7.87 1.13-.65-5.62-5.55c.66.52 1.76 1.36 3.27 2.51 1.51 1.15 2.61 1.99 3.27 2.51l1.16-.66-4.75-6.1 5.72 5.55 1.14-.65-8.04-7.87-1.85 1.06zM1395.95 274.91c-.28.16-.52.32-.7.47-.18.15-.34.34-.45.54-.12.2-.17.42-.14.65.01.22.1.48.27.77.17.29.42.6.76.93.42.41.84.68 1.27.81.43.13.91.15 1.45.06-.67.75-.45 1.67.67 2.76.81.79 1.59 1.27 2.34 1.44.75.17 1.51.04 2.26-.39l1.88-1.08-8.04-7.87-1.57.91zm4.11 4.21l.15-.09 2.66 2.6-.14.08c-.2.11-.39.19-.56.21-.17.02-.35-.01-.54-.09-.19-.08-.36-.19-.53-.32-.17-.13-.39-.33-.64-.58-.42-.41-.67-.77-.77-1.08-.09-.29.03-.54.37-.73zm-1.17-.99c-.14.08-.29.12-.44.12-.15 0-.31-.04-.46-.12-.16-.08-.31-.17-.46-.28-.14-.11-.3-.25-.48-.42-.13-.13-.24-.25-.32-.36-.08-.11-.15-.2-.19-.28a.398.398 0 0 1-.06-.23c.01-.08.02-.14.04-.18.02-.05.06-.1.14-.15.07-.06.14-.1.19-.14.05-.03.13-.07.24-.13l2.07 2.03-.27.14zM1399.45 283.74c-.11-.21-.25-.43-.43-.67a7.59 7.59 0 0 0-.57-.68c-.19-.21-.42-.44-.67-.69l-5.05-4.94-1.54.88 5 4.9c.28.28.49.48.62.61s.28.29.45.48c.17.19.29.32.33.41.05.09.09.19.13.3.04.11.03.2-.03.27-.05.07-.13.14-.25.21-.11.06-.23.11-.33.12-.11.02-.23.01-.36-.05-.14-.05-.25-.11-.36-.17-.11-.06-.25-.17-.45-.35-.2-.17-.36-.32-.49-.44s-.33-.32-.62-.6l-.03-.03-5-4.9-1.54.88 5.05 4.94c.25.25.5.47.72.67.22.2.47.39.73.59.26.19.51.35.75.49.24.13.49.24.76.32.27.09.53.14.79.15.25.01.52-.02.8-.08.27-.07.55-.18.82-.33.27-.15.49-.33.64-.5.16-.18.26-.37.32-.56.05-.19.05-.39.01-.61-.03-.2-.1-.41-.2-.62zM1385.86 280.67l6.93 6.78-1.52.87 1.11 1.09 3.06-1.75-8.04-7.87-1.54.88zM1381.26 283.31l6.4 8.81 1.52-.87-1.41-1.86.99-.57 2.02 1.51 1.53-.88-9.69-6.92-1.36.78zm6.4 4.59l-.79.45-2.6-3.14 3.39 2.69zM1378.01 285.16l2.53 5.07-4.21-4.11-1.27.73 8.04 7.87 1.07-.61-2.79-5.32 4.46 4.36 1.32-.76-8.04-7.87-1.11.64zM1380.44 293.47c-.23-.29-.51-.6-.83-.91l-2.66-2.61c-1.9-1.86-3.59-2.37-5.06-1.52-.31.18-.54.38-.7.6-.15.22-.23.46-.24.7-.01.25.05.51.17.79.12.28.29.57.51.85.22.29.49.58.81.9l.69.68 1.51-.87-.74-.73c-.15-.14-.26-.26-.37-.37-.1-.1-.21-.23-.32-.38-.11-.15-.19-.27-.23-.38a.512.512 0 0 1-.04-.32c.02-.1.09-.19.2-.25.45-.26 1.06 0 1.86.78l3.47 3.4c.79.77.96 1.28.51 1.54a.65.65 0 0 1-.46.07c-.17-.03-.34-.1-.53-.22s-.36-.25-.51-.38c-.16-.13-.33-.28-.51-.46l-.83-.81-1.51.86.68.66c.32.3.62.56.92.79.3.23.62.43.97.62.34.18.68.31 1 .38.33.08.66.09 1.01.05.35-.05.69-.16 1.01-.34.33-.19.58-.41.73-.65.16-.24.23-.5.23-.75 0-.26-.07-.54-.21-.84-.13-.3-.31-.6-.53-.88zM1366 292.03l1.11 1.09 1.65-.94 2.18 2.15-1.16.66 1.15 1.12 1.16-.66 2.47 2.41-1.64.94 1.12 1.1 3.18-1.82-8.04-7.87-3.18 1.82z" fill="#E30001"/></g><defs><filter id="filter0_d" x="-4" y="-2" width="1608" height="408" filterUnits="userSpaceOnUse" color-interpolation-filters="sRGB"><feFlood flood-opacity="0" result="BackgroundImageFix"/><feColorMatrix in="SourceAlpha" values="0 0 0 0 0 0 0 0 0 0 0 0 0 0 0 0 0 0 127 0"/><feOffset dy="2"/><feGaussianBlur stdDeviation="2"/><feColorMatrix values="0 0 0 0 0 0 0 0 0 0 0 0 0 0 0 0 0 0 0.08 0"/><feBlend in2="BackgroundImageFix" result="effect1_dropShadow"/><feBlend in="SourceGraphic" in2="effect1_dropShadow" result="shape"/></filter><linearGradient id="paint0_linear" x1="1325.37" y1="316.693" x2="1341.45" y2="333.839" gradientUnits="userSpaceOnUse"><stop stop-color="#C1C0C0"/><stop offset="1" stop-color="#DEDDDC"/></linearGradient><linearGradient id="paint1_linear" x1="1185.12" y1="236.489" x2="1201.19" y2="253.635" gradientUnits="userSpaceOnUse"><stop stop-color="#C1C0C0"/><stop offset="1" stop-color="#DEDDDC"/></linearGradient><linearGradient id="paint2_linear" x1="1379.88" y1="307.065" x2="1352.76" y2="308.605" gradientUnits="userSpaceOnUse"><stop stop-color="#333"/><stop offset=".524" stop-color="#999"/><stop offset="1" stop-color="#333"/></linearGradient><linearGradient id="paint3_linear" x1="1379.88" y1="307.065" x2="1352.76" y2="308.605" gradientUnits="userSpaceOnUse"><stop stop-color="#fff"/><stop offset=".524" stop-color="#fff"/><stop offset="1" stop-color="#fff"/></linearGradient><linearGradient id="paint4_linear" x1="1411.86" y1="301.504" x2="1407.17" y2="310.891" gradientUnits="userSpaceOnUse"><stop stop-color="#333"/><stop offset=".524" stop-color="#999"/><stop offset="1" stop-color="#333"/></linearGradient><linearGradient id="paint5_linear" x1="1411.86" y1="301.504" x2="1407.17" y2="310.891" gradientUnits="userSpaceOnUse"><stop stop-color="#fff"/><stop offset=".524" stop-color="#fff"/><stop offset="1" stop-color="#fff"/></linearGradient><linearGradient id="paint6_linear" x1="1311.21" y1="175.074" x2="1306.1" y2="165.992" gradientUnits="userSpaceOnUse"><stop stop-color="#BCC2C7"/><stop offset=".543" stop-color="#E6ECF2"/><stop offset=".787" stop-color="#E4EAF0"/><stop offset=".914" stop-color="#DCE2E8"/><stop offset="1" stop-color="#D2D8DD"/></linearGradient><clipPath id="clip0"><path fill="#fff" transform="translate(1144 90)" d="M0 0h297.67v264.15H0z"/></clipPath><clipPath id="clip1"><path fill="#fff" transform="translate(1172 90)" d="M0 0h244.94v209.9H0z"/></clipPath></defs></svg>