<svg width="375" height="156" fill="none" xmlns="http://www.w3.org/2000/svg" viewBox="0 0 375 156"><path d="M375 0H0v156h375V0z" fill="#F5FCFF"/><path d="M187.5 143.244c61.027 0 110.5-18.496 110.5-41.313 0-22.816-49.473-41.312-110.5-41.312S77 79.115 77 101.93c0 22.817 49.473 41.313 110.5 41.313z" fill="#004EBB"/><g clip-path="url(#clip0)"><path d="M235.893 136.237c-13.401 4.068-82.097-23.716-119.387-52.901-2.236-1.753-1.937-5.223.578-6.556l40.193-21.312c18.156 10.273 80.894 44.36 78.616 80.769z" fill="#0032A5"/><path d="M151.298 38.687c-1.711-1.002-5.291-1.255-7.564-.037.073-.451 3.417-3.102 8.902-.677.389.163 1.318.578 2 1.145 4.126 1.07 8.147 3.128 11.727 5.868-6.467 1.675-18.645 8.94-21.359 9.218l-3.076-5.024c-.829-8.887 6.058-10.771 9.37-10.493zM117.934 68.875c-.257 3.412-.688 2.467 1.659 7.49.147 1.203 102.526 82.486 139.984 52.361-50.796-8.945-84.511-33.406-135.034-63.636l-6.609 3.785z" fill="#192D4B"/><path d="M255.079 131.665c-4.263 1.391-12.682 3.895-54.471-17.39-28.34-14.147-55.914-28.34-82.847-43.563l.173-1.884 83.761 44.03c0 .005 31.258 17.416 53.384 18.807z" fill="#192D4B"/><path d="M259.089 130.757c-5.239 2.897-24.597-.997-49.51-13.774-31.411-16.556-76.506-38.35-91.645-48.15 13.858-8.42 44.728-22.918 50.014-25.028 27.737 15.054 58.155 35.494 77.934 54.864 9.192 10.372 19.448 28.477 13.207 32.088z" fill="#E6E7E8"/><path d="M147.686 66.14l-5.553-10.21c-4.882 2.415-12.509 6.357-17.37 9.003l17.905 9.248 5.018-8.041z" fill="#0082C8"/><path d="M144.6 44.724c2.157-4.525 8.241-7.36 17.868-1.916 5.008 2.33 28.535 16.424 39.227 24.733L180.21 80.948l-19.731-7.123-5.937-7.727-4.735-3.407c-2.068-4.13-4.015-8.293-5.527-12.671-.961-2.263-.047-4.598.32-5.297z" fill="#F1F2F2"/><path d="M197.391 77.593s.273 1.486 1.008 2.436 2.787 2.32 4.068 3.055c1.281.735 3.375 1.606 3.207 3.858 0 0 .357 1.181-2.047 1.302-2.404.115-3.569-.205-4.766-1.391-1.202-1.181-1.995-1.396-3.522-1.68-1.528-.283-2.063-.477-2.063-.477s-.593-.977-.52-2.042c.073-1.066.887-2.19.504-3.45-.389-1.259-1.234-3.358-1.234-3.358l4.667-.872.698 2.62z" fill="#F2A983"/><path d="M198.399 79.693s-.252-7.57-1.528-10.692c-1.275-3.129-1.643-10.352-2.603-12.042-.961-1.69-5.265-3.045-9.171-3.333-3.91-.289-10.876 1.28-10.876 1.28s-.761 6.084-.761 6.473c0 .388 8.393.672 10.399.63 2.005-.042 5.154 1.081 5.154 1.081s-.777 3.921.693 6.918c1.465 2.998 2.971 9.617 2.971 9.617s1.501 2.225 5.722.068z" fill="#065380"/><path d="M165.943 44.608c-3.664-2.467-12.861-7.349-18.792-3.186-2.389 2.273-6.887 6.446 1.48 14.577-2.997-3.596-4.866-20.036 17.312-11.391z" fill="#E6E7E8"/><path d="M143.466 49.705c2.11 7.48 23.249 20.766 33.033 23.894v6.215c-7.947-3.548-22.629-10.53-22.629-10.53l-2.913-6c-2.331-4.262-6.656-9.779-7.491-13.579z" fill="#0082C8"/><path d="M175.564 67.81c27.396 21.07 50.571 42.711 67.657 52.506 6.656 3.239 9.879 1.433 11.18-.278-.54 4.567-10.503 5.517-16.24 2-17.973-9.847-34.209-22.288-61.657-44.103l-.94-10.126z" fill="#0082C8"/><path d="M124.758 64.933l2.084-1.124 10.031 4.441 10.814-2.105-12.919-23.742c-4.099-10.215 8.32-16.293 15.449-10.86 5.296 4.362 11.432 9.952 15.805 13.123-1.706-.966-5.433-4.016-11.38-5.543-6.499-4.457-16.168-2.137-10.378 9.086 2.829 4.378 7.081 14.514 10.299 19.968l21.936 9.768c22.341 17.669 65.273 45.684 63.268 44.928-33.752-13.039-88.479-44.335-115.009-57.94z" fill="#14AFEB"/><path d="M201.391 59.705l-.609-7.16-21.039 10.22c2.116 6.194 7.055 11.695 11.884 15.569l-7.018-10.204 16.782-8.425z" fill="#414042"/><path d="M189.06 63.332l-.01.036-.945 2.919-5.086 2.819s-2.494-3.507-3.276-6.436l2.415-.824 3.527.021 3.375 1.465z" fill="#808285"/><path d="M173.895 63.258l4.215-1.947-1.27-.168c-1.895-.252-2.052-1.17-.346-2.037l13.49-6.87c1.706-.867 4.63-1.234 6.493-.82l.557.126 5.784-2.766c.205-.1.436-.142.672-.116.242.022.457.116.635.252l.515.394a.719.719 0 0 1 .278.64.699.699 0 0 1-.41.567l-3.942 1.822.258.058c.776.173 1.249.462 1.417.797.1.205.094.426-.032.651l-1.086 3.092-12.068 6.399-3.37-1.465c-1.029.147-2.047.179-2.866.069l-.656-.09-6.709 3.208a1.327 1.327 0 0 1-.719.126 1.313 1.313 0 0 1-.677-.268l-.315-.236a.832.832 0 0 1 .152-1.417z" fill="#627072"/><path d="M202.214 53.841l-1.086 3.092-12.068 6.399-3.37-1.465c-.021.005-.037.005-.058.005l16.677-8.435a.772.772 0 0 1-.095.404z" fill="#58595B"/><path d="M175.564 67.81c23.238 18.056 47.316 40.265 66.492 52.286 7.18 4.477 15.673 2.441 11.978-5.879-9.973-22.136-28.225-46.613-44.229-63.158l-34.241 16.75z" fill="#14AFEB"/><path d="M236.345 112.448c5.506 3.575 15.432 4.079 10.95-5.375-8.698-19.301-24.267-40.54-38.388-55.578l.893-.436c16.01 16.545 34.256 41.022 44.229 63.158 3.701 8.32-4.798 10.356-11.978 5.879-19.176-12.021-43.253-34.23-66.491-52.287l2.477-1.212c20.472 16.13 41.463 35.29 58.308 45.851z" fill="#192D4B"/><path d="M216.371 70.287c-.593-2.43-3.17-11.391-9.779-17.659-9.406-.776-20.277 3.67-25.752 12.599 3.727 2.608 10.141 6.482 23.642 10.43 4.824 1.223 14.467 3.658 11.889-5.37z" fill="#004687"/><path d="M156.195 68.665l20.304 9.275 62.407 44.203-63.121-42.366-17.936-8.335 8.162 15.49-3.506-1.874c-7.444-14.85-13.517-25.658-18.236-36.849 3.989 6.294 6.415 12.866 11.926 20.456zM127.808 63.285l9.254 3.926 10.624-1.07 4.535 8.34-5.165-7.154-10.183.923-10.031-4.446.966-.52z" fill="#192D4B"/><path d="M243.221 123.881c-13.438-1.397-63.131-22.897-123.57-56.077l5.107-2.877c28.781 14.84 92.044 50.754 118.463 58.954z" fill="#A7A9AC"/><path d="M144.038 59.431l-11.737 5.759-4.493-1.906a500.135 500.135 0 0 1 14.325-7.354l1.905 3.501z" fill="#004687"/><path d="M220.655 114.715l-45.054-32.14-11.968-5.25 6.74 11.921c15.265 8.578 35.422 18.714 50.282 25.469z" fill="#E6E7E8"/><path d="M176.074 73.373c-6.813-1.365-22.073-6.357-27.443-17.375 7.853 7.292 17.202 12.835 27.443 17.375z" fill="#192D4B"/><path d="M187.664 95.52s.367-1.339-.231-2.215c-.604-.877-2.121-2.21-3.039-3.024-.919-.814-3.459-3.91-3.79-7.517l-4.168.966s1.118 2.918 1.092 3.926c-.026 1.008.037 2.714.289 4.22 0 0 .661.667 1.301 1.649.641.981.914 1.8 3.229 2.661 2.314.856 4.566.226 5.317-.666z" fill="#F2A983"/><path d="M183.318 88.858s-.242 1.538-2.698 1.255c-2.457-.284-3.559-1.664-3.559-1.664s-.877-1.848-.945-3.102c-.068-1.255-1.675-4.074-1.9-4.945-.226-.872-2.121-5.155-2.321-7.066-.199-1.91-.052-4.104-.052-4.104s-4.467-2.557-5.968-3.722c-1.502-1.165-4.016-3.759-4.084-6.005-.068-2.252.829-5.38.829-5.38s2.976 1.936 4.913 2.204c1.937.268 8.446.871 9.328 1.748.236.236 1.176 3.35 1.097 4.268-.204 2.509-.456 2.677.1 4.425.766 2.388.677 5.349 1.323 7.842.645 2.493 2.12 6.299 2.682 8.666.567 2.373 1.255 5.58 1.255 5.58z" fill="#065380"/><path d="M171.895 73.336c-.199-1.91-.052-4.104-.052-4.104s-4.467-2.557-5.968-3.722c-1.502-1.165-4.016-3.759-4.084-6.005-.068-2.252.829-5.38.829-5.38s1.061.687 2.326 1.301c.141.61.194 1.292.031 1.984-.472 1.974-1.643 3.04.168 3.738 1.806.698 3.454.205 4.241 1.433.788 1.228-.252 1.774.305 2.53.551.756 1.554.782 2.168 1.344.614.561 2.803 1.564 2.189 3.296-.615 1.733-.856 2.294-.179 3.853.677 1.56 1.507 4.614 1.186 5.795-.315 1.181 1.412 2.021 2.168 3.449.756 1.428 1.286 1.81.956 3.202-.331 1.39-.09 2.02.834 2.987.174.183.268.462.305.797-1.538-.498-2.242-1.38-2.242-1.38s-.876-1.848-.944-3.102c-.069-1.255-1.675-4.074-1.901-4.945-.241-.877-2.136-5.165-2.336-7.07z" fill="#003A67"/><path d="M170.877 31.973s1.249-.971 1.433-2.808c.184-1.832 4.11-1.176 4.11-1.176l2.751 2.808s-1.491 12.75-2.987 13.38c-1.496.63-2.625-2.262-2.74-2.294-.116-.031-3.171-5.727-3.171-5.727l.604-4.183z" fill="#D88F69"/><path d="M200.776 49.101s.599.43 1.318.52c.719.09 1.365.152 1.448.488.09.336.006 1.034.074 1.102.068.069.829.09 1.543-.089.714-.178 1.512-.971 1.501-1.286-.01-.315.247-1.123.011-1.59-.236-.473-.362-1.119-.929-1.26-.572-.142-1.78-.656-2.163-1.071-.388-.42-.798-1.087-1.076-1.25-.278-.162-2.577-2.361-3.821-3.6-1.244-1.24-4.095-3.785-4.614-4.11-.515-.326-1.722-.856-2.11-.987-.384-.126-1.88-1.633-3.523-2.425-1.643-.793-6.362-3.601-8.068-2.887-1.7.713-1.789 4.887-1.669 5.249.121.362 2.084.404 2.347.525.262.12 1.779 1.275 4.073 2.21 2.299.934 4.703 1.611 5.443 2.01.74.399 3.25 2.304 5.249 3.428 1.995 1.123 4.63 2.62 4.866 3.133.237.51.1 1.89.1 1.89z" fill="#F2A983"/><path d="M178.704 35.905c-.121-.362-.037-4.535 1.669-5.25.304-.125.703-.141 1.16-.078.199 1.176.75 3.884 2.294 5.386 1.989 1.937 3.317 2.346 4.944 2.755 1.628.405 2.1-.162 2.683.473.582.635.74 1.16 2.288 2.577 1.549 1.417 4.914 3.454 6.053 3.91 1.139.458 2.194 1.481 2.446 2.143.246.66 1.286 1.706 1.737 2.278.452.572 1.895.252 2.32-1.37a5.32 5.32 0 0 1 .263-.746c.037.09.073.179.115.257.236.473-.021 1.276-.01 1.59.01.316-.788 1.108-1.501 1.287-.714.178-1.481.157-1.544.09-.068-.07.016-.767-.073-1.103-.089-.336-.735-.4-1.449-.488-.719-.09-1.318-.52-1.318-.52s.137-1.375-.094-1.89c-.236-.514-2.866-2.01-4.866-3.133-1.995-1.124-4.509-3.03-5.249-3.428-.74-.4-3.15-1.076-5.443-2.01-2.3-.935-3.817-2.09-4.074-2.21-.268-.116-2.231-.158-2.351-.52z" fill="#D88F69"/><path d="M177.454 30.063s2.273-.872 5.144.351c2.872 1.218 4.667 2.383 4.667 2.383l-1.606 6.194-5.37-1.58-2.835-7.348z" fill="#065380"/><path d="M170.966 31.653s-.252 2.02 1.04 3.139c3.212 2.782 3.779 8.005 3.779 8.005s3.323-7.218 2.032-11.118l3.244-1.302s1.611 5.276.493 9.302c-1.118 4.026-2.493 5.512-2.493 5.512s1.233 5.196-.237 8.745c-1.469 3.548-5.317 5.522-10.02 4.11-4.698-1.412-6.189-3.921-6.189-3.921s1.265-4.599.719-6.368c-.546-1.769-1.932-8.608.074-11.311 2.005-2.714 7.558-4.793 7.558-4.793z" fill="#003A67"/><path d="M170.399 30.834s1.428-1.212 1.712-2.808l7.553 1.39s.105 2.94-.588 4.568c-.693 1.627-5.784.703-7.212-.168-1.433-.872-1.465-2.982-1.465-2.982z" fill="#D88F69"/><path d="M180.882 34.834l-.441-3.853-1.853-.43s1.181 3.69-2.042 3.753c-3.958.073-6.147-3.47-6.147-3.47s-5.679 2.263-5.979 2.347c-.304.084-.503 9.511-.503 9.511l.314.798s-.661 1.076 3.785 2.262c4.451 1.187 12.483-1.669 12.483-1.669l.383-9.249z" fill="#065380"/><path d="M170.373 36.865c-1.281-1.06-4.535-.803-4.835-.603-.063.042-.43.288-.971.645-.336 2.725-.656 5.785-.656 5.785l.315.798s-.661 1.076 3.785 2.262c.141.037.288.073.441.1l1.553-1.197c.006.005 1.649-6.73.368-7.79z" fill="#003A67"/><path d="M178.152 57.532c.887-1.097 1.58-4.414 1.313-5.081l.346-2.063c.42-.462 1.795-5.627 1.422-6.126l.389-2.02s.42-.216.577-.856c.861-3.418.079-6.273-.315-6.819l-3.044-.709c-.677 3.496-2.2 5.055-2.2 5.055-.902-1.658-2.01-3.123-3.081-4.33l-4.089 2.078c1.129 3.423.635 7.365-.262 8.452-1.37 1.653-4.698.587-4.698.587-.452.153-.641 2.504-.137 4.126.084.263.41.572.41.572.325.704.21 1.04-.289 1.575-.625.677-.913 3.223-.913 3.223s3.999 4.462 10.629 3.496c2.955-.43 3.942-1.16 3.942-1.16z" fill="#F4872A"/><path d="M168.174 52.571c-.336-3.223.829-6.42.829-6.42l-.787-.346c-1.554.583-3.696-.1-3.696-.1-.451.152-.64 2.504-.136 4.126.084.262.409.572.409.572.326.703.21 1.04-.288 1.575-.625.677-.914 3.223-.914 3.223s1.113 1.239 3.134 2.273l1.449-4.903z" fill="#F4872A"/><path opacity=".5" d="M177.806 47.133l-.987-.552c.168 2-.782 5.859-.782 5.859l1.133-.945c.405-1.071.636-4.362.636-4.362zM177.884 43.721c.436-2.672-.362-4.52-.362-4.52 1.297-2.047 1.795-4.593 1.795-4.593l-.467-.75c-.677 3.496-2.199 5.055-2.199 5.055 1.034 2.367.252 5.895.252 5.895l.981-1.087zM169.218 45.112l-.126.142.683.1.992-.909s.666-1.197.504-3.338c-.163-2.142-.735-3.837-.735-3.837l-1.055-.61c1.128 3.418.64 7.365-.263 8.452z" fill="#F4872A"/><path opacity=".3" d="M173.57 34.582l-4.09 2.079 1.056.609 3.716-1.885a22.758 22.758 0 0 0-.682-.803zM182.147 35.196c-.079-.299-.168-.52-.252-.635l-3.045-.709.467.751 2.83.593zM176.819 46.581l-.289.08c-3.212.865-5.8.865-7.737.56l-.031.032.918.772s.184.173 2.042.231c1.858.053 4.955-.44 5.076-.635.116-.184.021-1.04.021-1.04zM181.239 44.256s-.404 1.192-4.415 2.32l.987.552a6.81 6.81 0 0 0 3.454-1.98c.052-.45.052-.781-.026-.892z" fill="#F4872A"/><path opacity=".5" d="M167.612 57.878l1.575-5.07c-.368-1.597.493-4.778.493-4.778l-.908-.808-.063-.09c-.32 1.192-.751 3.308-.53 5.439l-1.449 4.897c.273.137.567.279.882.41z" fill="#F4872A"/><path opacity=".3" d="M179.464 52.45s-.294 1.008-3.317 1.738l.609.656c1.422-.294 2.283-.845 2.714-1.202.068-.551.078-.992-.006-1.192zM179.517 52.156l-.053.294.053-.294z" fill="#F4872A"/><path opacity=".5" d="M175.821 58.392c.305-.887.83-2.498.935-3.548l-.609-.657c-.1.027-.205.048-.315.074-.11.824-.436 2.882-1.097 4.351.404-.073.761-.146 1.086-.22z" fill="#F4872A"/><path opacity=".3" d="M175.549 54.319c-2.688.546-4.987.294-6.777-.205l.005.016-.257.824s2.241 1.071 7.134.452l.178-1.145a5.46 5.46 0 0 0-.283.058z" fill="#F4872A"/><path d="M169.602 30.876l-3.381 1.333c1.638 1.019 2.672 2.662 3.26 4.446l4.089-2.078c-2.058-2.32-3.968-3.701-3.968-3.701zM180.966 30.524l-1.795-.42a18.752 18.752 0 0 1-.32 3.748l3.044.709c-.32-2.467-.929-4.037-.929-4.037zM179.816 50.382s-.451 1.396-4.194 2.147c-3.107.62-5.643.22-7.48-.4-.126-1.936.252-3.805.546-4.928 1.953.32 4.572.336 7.848-.546 4.288-1.155 4.708-2.404 4.708-2.404l.399-2.068s-.383 1.443-4.672 2.593c-7.884 2.12-12.734-1.292-12.734-1.292l.289 2.205s.992.745 2.939 1.25c-.32.608-.703 1.931-.562 4.697-1.364-.62-2.105-1.249-2.105-1.249l-.304 1.633s.74.624 2.079 1.265l-.961 3.532c.331.215.703.43 1.113.64l1.081-3.658c1.9.682 4.546 1.16 7.737.51 3.586-.73 3.922-1.87 3.922-1.87l.351-2.057z" fill="#414E52"/><path d="M168.562 52.266c-.147-.042-.288-.089-.425-.131-.126-1.937.252-3.806.546-4.929.126.021.252.037.383.058.2-.746.483-1.423.719-1.91-2.498-.31-4.236-1.108-5.044-1.555l-.478-.063.257 1.964s.992.745 2.94 1.249c-.32.609-.703 1.931-.562 4.698-1.365-.62-2.105-1.25-2.105-1.25l-.304 1.633s.74.625 2.079 1.265l-.961 3.533c.331.215.703.43 1.113.64l1.081-3.659.273.095c.242-.808.488-1.638.488-1.638zM168.788 30.929l-2.205.871c2.373 1.454 3.454 3.759 3.454 3.759l2.373-.945c-1.176-1.99-3.622-3.685-3.622-3.685zM181.307 33.973l-1.947-.451.399-3.354.976.162.572 3.643z" fill="#344145"/><path d="M173.843 18.525c1.832-.677 4.325.02 5.821 1.606 1.501 1.585 1.643 3.108 1.648 3.78.011.671.079 1.265.121 1.784.042.52-.609 1.008-.609 1.008.399.814-.415 2.336-.619 2.703.026.168.036.305.005.389-.079.236-.236.315-.409.33-.242.5-.494 1.098-.557 1.36-.089.389-.341 1.706-1.911 1.365-1.569-.336-3.616-1.764-4.776-3.207-1.166-1.439-2.131-4.026-2.037-6.368.095-2.33 1.491-4.073 3.323-4.75z" fill="#F2A983"/><path d="M179.129 30.057c.042-.078.378.1.677.074-.242.498-.493 1.097-.556 1.36-.069.299-.231 1.138-1.008 1.364.304-1.926.887-2.798.887-2.798zM179.727 27.36c-.031-.72 1.501-1.077 1.501-1.077-.178.247-.409.42-.409.42.399.814-.415 2.336-.62 2.703-.094-.561-.44-1.485-.472-2.047z" fill="#D88F69"/><path opacity=".25" d="M173.843 18.525c1.832-.677 4.325.02 5.821 1.606 1.501 1.585 1.643 3.108 1.648 3.78.006.21.011.414.027.608-2.887 1.25-4.683-.53-5.465-.482-.64.036-.871.425-1.17 1.406-.299.982-1.013 1.176-1.071 2.336-.053 1.003 1.008 2.772 1.16 3.885-.85-.578-1.648-1.292-2.231-2.01-1.165-1.44-2.131-4.027-2.037-6.368.09-2.341 1.486-4.084 3.318-4.761z" fill="#F2A983"/><path d="M175.113 23.338s2.651 1.218 4.609 1.25c1.953.026 2.183-1.35 1.989-2.153-.194-.803-.693-2.45-3.59-3.852-2.898-1.402-6.383-.126-7.139 2.246-.756 2.378-.698 3.675.105 6.241 0 0-.042-2.398.556-2.105.599.3.914 1.25.945 1.675l.389.241s-.037-.467.32-.76c.357-.29 1.59-.961 1.816-2.783z" fill="#563317"/><path d="M172.273 27.994c-.215.074-.703.142-1.354-.96-.656-1.103-.441-1.953.052-2.137.494-.183.866.084 1.013.462.142.383.289 2.635.289 2.635z" fill="#F2A983"/><path opacity=".25" d="M172.273 27.994c-.215.074-.703.142-1.354-.96-.656-1.103-.441-1.953.052-2.137.494-.183.866.084 1.013.462.142.383.289 2.635.289 2.635z" fill="#F2A983"/><path d="M174.242 25.9c.729.23 1.197.357 1.795.514.504-.278 1.391.053 2.441.042.215 0 .808.021.955.415a.665.665 0 0 1 .546-.021c.2-.546.698-.51.976-.614 1.255-.473 1.318.031 1.05.834-.294.861-.897 1.265-1.669 1.302-.53.026-.562-.483-.42-1.296.005-.027.011-.048.016-.069a.517.517 0 0 0-.467.032.858.858 0 0 1-.032.267c-.22.804-.992 1.533-2.336 1.465-1.517-.073-1.737-1.25-1.359-2.032.016-.03.037-.062.052-.089-.467-.157-1.034-.346-1.511-.52-.457-.167-1.911-.677-2.268-.855l-.289-.289c1.197.525 1.99.746 2.52.914z" fill="#2E383B"/><path d="M176.352 28.514c.21.1.462.157.756.168 1.354.068 2.047-.677 2.241-1.397.084-.304.005-.509-.247-.624-.152-.074-.367-.11-.619-.105-.415.005-.808-.047-1.155-.09-.74-.094-1.275-.157-1.501.32-.168.347-.2.757-.079 1.082.1.284.31.504.604.646zM180.131 28.251a.404.404 0 0 0 .205.032c.777-.037 1.323-.462 1.585-1.24.226-.666.105-.808-.01-.86-.111-.052-.363-.068-.919.142-.068.026-.147.042-.231.063-.304.068-.646.141-.745.708-.126.714-.095 1.06.115 1.155z" fill="#212B2E"/><mask id="a" maskUnits="userSpaceOnUse" x="177" y="26" width="3" height="3"><path d="M177.381 26.472c.331.042.703.084 1.097.084.252 0 .467.036.619.105.247.115.326.32.247.624a1.845 1.845 0 0 1-1.018 1.187c-.111-.573-.362-1.334-.945-2z" fill="url(#paint0_linear)"/></mask><g mask="url(#a)"><path opacity=".44" d="M177.381 26.472c.331.042.703.084 1.097.084.252 0 .467.036.619.105.247.115.326.32.247.624a1.845 1.845 0 0 1-1.018 1.187c-.111-.573-.362-1.334-.945-2z" fill="url(#paint1_linear)"/></g><mask id="b" maskUnits="userSpaceOnUse" x="180" y="26" width="3" height="2"><path d="M180.956 26.34c.01-.005.026-.005.036-.01.562-.21.809-.194.919-.142.11.053.231.2.01.861-.131.383-.33.677-.587.887.01-.404-.063-.95-.378-1.595z" fill="url(#paint2_linear)"/></mask><g mask="url(#b)"><path opacity=".44" d="M180.956 26.34c.01-.005.026-.005.036-.01.562-.21.809-.194.919-.142.11.053.231.2.01.861-.131.383-.33.677-.587.887.01-.404-.063-.95-.378-1.595z" fill="url(#paint3_linear)"/></g><path d="M175.759 55.232s1.391 2.1 1.685 2.347c.294.246 1.879 1.344 2.472 2.042.593.703.777 1.501.493 2.273-.283.771-.535 2.041-1.034 2.089-.498.047-.572-.037-.572-.037s-.205.42-.74.21c0 0-.745.388-1.081.178 0 0-.667.342-1.008.247-.341-.1-1.003-.903-1.029-1.417-.026-.514 0-1.234-.089-1.717-.095-.483-.373-2.252-.578-2.404-.199-.152-5.27-5.343-5.942-6.13-.672-.788-1.49-3.113-1.49-3.113s-2.368-2.782-2.966-4.667c-.599-1.88-.887-3.223-1.229-3.638-.346-.414-1.359-4.73 1.245-5.616 2.603-.887 4.204.157 5.012 2.383.809 2.225.935 4.504.935 4.504s.052.273.845 2.042c.793 1.769 1.087 3.007 1.087 3.007s.761 1.355 1.443 2.63c.677 1.27 2.541 4.787 2.541 4.787z" fill="#F2A983"/><path d="M163.88 45.123c-.599-1.88-.887-3.223-1.229-3.638-.089-.11-.225-.493-.33-1.008.645.887 1.632 1.444 1.931 2.94.384 1.931 2.714 4.886 2.898 4.881.184-.01.877.079 1.176.525.299.452-.515 1.276.383 2.898s4.955 5.968 5.501 6.414c.546.446.656.945.688 1.664.037.72.682 2.11.861 2.184.178.073.902.262 1.223.079.32-.184.871.136 1.28-.184.41-.32.662-.1 1.26-.1.336 0 .73-.247 1.013-.462a2.142 2.142 0 0 1-.126.567c-.283.772-.535 2.042-1.034 2.09-.498.046-.572-.038-.572-.038s-.205.42-.74.21c0 0-.745.389-1.081.179 0 0-.667.341-1.008.247-.341-.1-1.003-.903-1.029-1.418-.026-.514 0-1.233-.089-1.716-.095-.483-.373-2.252-.578-2.404-.199-.152-5.27-5.344-5.942-6.131-.672-.788-1.49-3.113-1.49-3.113s-2.363-2.782-2.966-4.666z" fill="#D88F69"/><path d="M163.176 43.983s3.145.373 7.124-1.627c0 0-1.003-5.506-1.297-6.625-.577-2.194-2.541-3.453-5.386-2.23-2.85 1.223-2.236 5.275-.441 10.482z" fill="#065380"/></g><defs><linearGradient id="paint0_linear" x1="178.229" y1="26.209" x2="178.574" y2="28.131" gradientUnits="userSpaceOnUse"><stop stop-color="#fff"/><stop offset="1" stop-color="gray"/></linearGradient><linearGradient id="paint1_linear" x1="178.229" y1="26.209" x2="178.574" y2="28.131" gradientUnits="userSpaceOnUse"><stop stop-color="#fff"/><stop offset="1" stop-color="#fff"/></linearGradient><linearGradient id="paint2_linear" x1="181.396" y1="26.099" x2="181.67" y2="27.629" gradientUnits="userSpaceOnUse"><stop stop-color="#fff"/><stop offset="1" stop-color="gray"/></linearGradient><linearGradient id="paint3_linear" x1="181.396" y1="26.099" x2="181.67" y2="27.629" gradientUnits="userSpaceOnUse"><stop stop-color="#fff"/><stop offset="1" stop-color="#fff"/></linearGradient><clipPath id="clip0"><path fill="#fff" transform="translate(115 18)" d="M0 0h146v118.636H0z"/></clipPath></defs></svg>