<svg width="1600" height="400" fill="none" xmlns="http://www.w3.org/2000/svg" viewBox="0 0 1600 400"><g filter="url(#filter0_d)"><path fill="#F5FCFF" d="M1600 0H0v400h1600z"/></g><path d="M1283.55 347.9c126.22 0 228.55-38.257 228.55-85.45 0-47.193-102.33-85.45-228.55-85.45-126.22 0-228.55 38.257-228.55 85.45 0 47.193 102.33 85.45 228.55 85.45z" fill="#004EBB"/><g clip-path="url(#clip0)"><path d="M1253.01 319.68l20.4-1.63-9.54-10.93v3.27l-2.75 1.59v3.28l-8.11 4.42z" fill="#0032A5"/><path d="M1253.01 319.68l20.4-1.63-9.54-10.93v3.27l-2.75 1.59v3.28l-8.11 4.42z" fill="#0032A5"/><path d="M1273.41 318.05l104.49-8.38 115-68.05-240.12-138.63-132.51 128.25 153.14 86.81z" fill="#0032A5"/><path d="M1410.38 142.73l.46-25.79-136.45-77.74-.7 24.16 136.69 79.37z" fill="#D1CAB3"/><path d="M1410.38 142.73l10.09-4.98.75-26.15-10.38 5.34-.46 25.79z" fill="#D3AE97"/><path d="M1274.39 39.2l9.05-5.2 137.78 77.6-10.38 5.34-136.45-77.74z" fill="#F2F2F2"/><path d="M1128.68 243.33l-11.92-7.05-.01-76.27 11.93 10.02v73.3z" fill="#D6B98F"/><path d="M1136.34 238.91l-7.66 4.42V154.4l7.67 7.02-.01 77.49z" fill="#C3A581"/><path d="M1410.45 216.29l-.02 22.63-128.8 74.37-3.32 1.93-4.9 2.83v-22.76l-137.08-79 .02-90.42 137.05 74.39 137.03-74.38.02 90.41z" fill="#C7A199"/><path d="M1136.35 125.87l137.04-79.14 137.05 79.15-137.04 74.38-137.05-74.39z" fill="#E8E6DC"/><path d="M1273.41 295.29v22.76l-137.08-79.13v-22.63l.02-90.42 137.05 74.39.01 95.03z" fill="#D6B98F"/><path d="M1143.06 159.33l-.08 63.71 82.71 47.76.01-63.67-82.64-47.8z" fill="#CDDFF8"/><path d="M1222.09 207.75v18.26l-.01 40.46-35.05-19.96-16.4-9.33-1.55-.9-3.52-1.99-20.83-11.87.01-9.35v-4.05l.01-3.34.01-12.99.03-29.03 25.1 14.32 11.25 6.42 2.9 1.64 3.5 2 28.91 16.5 3.49 1.99 1.58.89.57.33z" fill="#82BEF2"/><path d="M1222.09 207.75v18.26l-35.06 20.5-16.4-9.33 50.89-29.76.57.33zM1181.14 184.4l-36.39 21.28.01-12.99 25.13-14.71 11.25 6.42zM1219.94 206.53l-50.86 29.75-3.52-1.99 50.89-29.75 3.49 1.99zM1187.54 188.04l-42.8 25.03v-4.05l39.3-22.98 3.5 2z" fill="#A0CCF2"/><path d="M1384.82 164.67l.08 63.71-82.71 47.76-.01-63.67 82.64-47.8z" fill="#CDDFF8"/><path d="M1305.78 213.09v18.26l.02 40.46 35.04-19.96 16.4-9.33 1.56-.9 3.51-1.99 20.84-11.87-.01-9.35v-4.05l-.02-3.34-.01-12.99-.03-29.03-25.1 14.33-11.24 6.41-2.9 1.64-3.5 2-28.92 16.5-3.49 1.99-1.58.89-.57.33z" fill="#82BEF2"/><path d="M1305.78 213.09v18.26l35.06 20.5 16.4-9.33-50.89-29.76-.57.33zM1346.74 189.74l36.38 21.28-.01-12.99-25.13-14.7-11.24 6.41zM1307.93 211.87l50.87 29.75 3.51-1.99-50.89-29.75-3.49 1.99zM1340.34 193.38l42.8 25.03v-4.05l-39.3-22.98-3.5 2z" fill="#A0CCF2"/><path d="M1396.29 122.72L1281.56 185l-.09.04-8.07 4.39-3.75-2.04-3.2-1.73h-.02l-4.02-2.19-3.09-1.68-4.03-2.18-3.21-1.75-4.02-2.18-2.92-1.59-4.04-2.19-3.19-1.73-4.04-2.19-3.08-1.69h-.02l-4.02-2.18h-.01l-3.18-1.74h-.02l-4.03-2.18-2.91-1.59-4.02-2.19h-.02l-3.19-1.74-4.04-2.19-3.1-1.68-4.02-2.18-3.21-1.75-4.02-2.18-3.1-1.68-4.03-2.19-3.21-1.74-4.03-2.19-3.09-1.68-4.04-2.18-3.21-1.75-4.02-2.18-11.76-6.38 122.91-70.98 122.89 70.98z" fill="#D6CDB1"/><path d="M1280.37 64.9l-114.1 66.38-4.02-2.18 114.66-66.22 3.46 2.02zM1287.52 68.87l-114.01 66.34-4.02-2.18 114.57-66.17 3.46 2.01zM1294.48 72.85l-113.84 66.23-4.03-2.19L1291 70.83l3.48 2.02zM1301.64 76.82l-113.76 66.19-4.03-2.19 114.31-66.02 3.48 2.02zM1308.57 80.79l-113.58 66.08-4-2.17 114.13-65.92 3.45 2.01zM1315.73 84.77l-113.5 66.03-4.02-2.18 114.06-65.87 3.46 2.02zM1322.69 88.74l-113.32 65.93-4.04-2.19 113.88-65.76 3.48 2.02zM1329.84 92.71L1216.6 158.6l-4.02-2.19 113.78-65.72 3.48 2.02zM1363.79 112.85l-111.71 65.01-4.02-2.18 112.26-64.84 3.47 2.01zM1370.94 116.82l-111.62 64.97-4.03-2.18 112.19-64.79 3.46 2zM1377.9 120.79l-111.45 64.87h-.02l-4.02-2.19 112.01-64.68 3.48 2zM1385.05 124.77L1281.56 185l-.09.04-8.07 4.39-3.75-2.04 111.92-64.63 3.48 2.01zM1336.61 96.57l-113.05 65.8h-.02l-4.03-2.18 113.64-65.62 3.46 2zM1343.76 100.55l-112.97 65.74h-.02l-4.02-2.18 113.55-65.57 3.46 2.01zM1350.73 104.52l-112.82 65.65-4.04-2.19 113.37-65.46 3.49 2zM1357.88 108.49l-112.74 65.6-4.04-2.19 113.3-65.41 3.48 2z" fill="#D4C8AC"/><path d="M1273.39 51.74l-.02 9.14 115.26 66 7.66-4.16-122.9-70.98z" fill="#B39688"/><path d="M1273.39 51.74l-.02 9.14-110.43 63.11 9.12-13.73 101.33-58.52z" fill="#C4A796"/><path d="M1273.37 200.26l-.28-25.2-136.74-73.03v23.84l137.02 74.39z" fill="#E8E6DC"/><path d="M1273.37 200.26l9.82-5.19v-25.81l-10.09 5.56.27 25.44z" fill="#D3AE97"/><path d="M1136.35 102.03l8.77-5.38 138.07 72.61-10.09 5.56-136.75-72.79z" fill="#F2F2F2"/><path d="M1408.85 248.6l11.92-7.05.01-114.67-12.18 6.32.25 115.4z" fill="#C7A199"/><path d="M1401.2 244.18l7.65 4.42-.25-115.4-7.42-2.3.02 113.28z" fill="#9D7A76"/><path d="M1401.18 130.9l7.42 2.3 12.18-6.32-8.38-2.05-11.22 6.07z" fill="#C5A8A8"/><path d="M1229.91 220.74l-.01 66.78 33.97 19.6v-66.78l-33.96-19.6z" fill="#CDDFF8"/><path d="M1261.86 241.92v61.17l-8.83-5.09-1.78-1.03-2.94-1.7-6.67-3.85-10.9-6.29v-24.55l.01-36.63 31.11 17.97z" fill="#82BEF2"/><path d="M1261.86 242.38v7.76l-31.12 18.2v-7.76l31.12-18.2zM1261.86 279.59v7.76l-13.55 7.92-6.67-3.85 20.22-11.83zM1261.86 290.76v2.08l-8.83 5.16-1.78-1.03 10.61-6.21zM1261.86 254.25v3.65l-31.12 18.2v-3.65l31.12-18.2z" fill="#A0CCF2"/><path opacity=".35" d="M1136.16 178.44v9.34l137.26 73.44.04-41.55-137.3-41.23z" fill="#614CA0"/><path d="M1229.31 175.57l-19.73 31.82-14.57-7.81-8.63-4.66-14.63-7.85-10.78-5.78-13.94-7.49-9.44-5.07-13.76-7.39-11.83-6.36 20.86-30.99 11.85 6.32 12.69 6.8 10.54 5.63 12.88 6.89 11.84 6.34 13.57 7.26 9.74 5.19 13.34 7.15z" fill="#407BED"/><path d="M1229.31 175.57l.6 19.62-20.33 12.2 19.73-31.82z" fill="#3774C3"/><path d="M1120.27 159.33l12.44 6.69 19.44-31.71-11.03-5.97-20.85 30.99zM1143.97 172.07l11.12 5.96 19.79-31.65-11.57-6.18-19.34 31.87zM1166.34 184.08l11.12 5.97 19.7-31.75-11.18-5.98-19.64 31.76zM1188.67 196.07l10.97 5.9 19.66-31.83-11.1-5.93-19.53 31.86z" fill="#CAE0F6"/><path d="M1209.58 207.39l.33 10.94-9.84-5.35-11.07-6.02-11.22-6.09-11.11-6.03-11.23-6.1-11.15-6.07-11.26-6.11-12.44-6.75-8.27-4.5-.32-10.33 8.28 4.44v.02l12.43 6.67 11.26 6.04 11.11 5.97 11.26 6.05 11.11 5.97 11.22 6.01v.02l10.97 5.88 9.94 5.34z" fill="#4991F6"/><path d="M1209.91 218.33l20.34-11.89-.34-11.25-20.33 12.2.33 10.94z" fill="#2D70DB"/><path d="M1132.71 166.02l.32 10.54-12.44-6.75-.32-10.48 12.44 6.69zM1155.44 188.74l-11.15-6.07-.32-10.65.01.01 11.1 6v.09l.36 10.62zM1177.45 190.05l.33 10.82-11.11-6.03-.33-10.76 11.11 5.97zM1200.07 212.98l-11.07-6.02-.33-10.94.01.01 10.96 5.93v.11l.43 10.91z" fill="#fff"/><path d="M1273.46 200.04l-19.74 31.84-9.93-5.33v-.01l-10.97-5.88v-.02h-.01l-11.21-6.02v-.1l19.68-31.69 9.1 4.88 1.93 1.02 7.81 4.18 3.29 1.76 10.05 5.37z" fill="#407BED"/><path d="M1273.46 200.05v19.62l-19.73 12.21 19.73-31.83z" fill="#3774C3"/><path d="M1232.81 220.55l10.98 5.9 19.66-31.83-11.11-5.93-19.53 31.86z" fill="#CAE0F6"/><path d="M1254.05 242.81l-9.83-5.34-11.08-6.02-11.12-6.04-.1-.05-.32-10.74 11.21 6.02h.01v.02l10.97 5.88 9.93 5.34.33 10.93z" fill="#4991F6"/><path d="M1254.06 242.82l19.4-11.8v-11.35l-19.73 12.21.33 10.94z" fill="#2E6FED"/><path d="M1244.21 237.46l-11.07-6.01-.33-10.95.02.01 10.95 5.93.01.11.42 10.91z" fill="#fff"/><path d="M1227.15 292.38l-8.3 4.41 34.16 19.61 8.11-4.42-33.97-19.6z" fill="#D6B98F"/><path d="M1218.85 296.79v3.34l34.16 19.55v-3.28l-34.16-19.61z" fill="#BC9F7C"/><path d="M1253.01 316.4l8.11-4.42v3.28l-8.11 4.42v-3.28z" fill="#AE8F6F"/><path d="M1229.9 287.52l-8.3 4.4 34.16 19.62 8.11-4.42-33.97-19.6z" fill="#D6B98F"/><path d="M1221.6 291.92v3.35l34.16 19.54v-3.27l-34.16-19.62z" fill="#BC9F7C"/><path d="M1255.76 311.54l8.11-4.42v3.27l-8.11 4.42v-3.27z" fill="#AE8F6F"/><path d="M1229.9 287.52l-93.74-55.21-7.48 3.97 92.92 55.64 8.3-4.4z" fill="#E6E6E6"/><path d="M1128.68 236.28v7.05l90.17 53.46 2.75-1.52.38-3.55-93.3-55.44z" fill="#D5D0CD"/><path opacity=".16" d="M1283.19 169.26l21.4 14.07-21.4 11.74v-25.81z" fill="#766565"/><path opacity=".35" d="M1287.93 231.2l.21 30.02 116.88-64.15.33-8.46-117.42 42.59z" fill="#614CA0"/><path d="M1288.49 200.32l20.13 31.57 14.47-8 8.57-4.76 14.54-8.02 10.7-5.92 13.84-7.66 9.39-5.19 13.66-7.56 11.75-6.5-21.24-30.74-11.77 6.48-12.61 6.95-10.47 5.76-12.79 7.04-11.77 6.49-13.47 7.43-9.68 5.32-13.25 7.31z" fill="#407BED"/><path d="M1288.49 200.31l-.35 19.63 20.48 11.95-20.13-31.58z" fill="#3774C3"/><path d="M1397.33 182.73l-12.36 6.84-19.83-31.47 10.96-6.11 21.23 30.74zM1373.79 195.76l-11.05 6.1-20.18-31.4 11.5-6.33 19.73 31.63zM1351.56 208.05l-11.03 6.1-20.1-31.5 11.11-6.12 20.02 31.52zM1329.39 220.31l-10.9 6.03-20.06-31.58 11.04-6.07 19.92 31.62z" fill="#CAE0F6"/><path d="M1308.62 231.89l-.2 10.94 9.78-5.47 10.99-6.15 11.14-6.23 11.04-6.17 11.16-6.24 11.06-6.2 11.19-6.26 12.35-6.9 8.22-4.6.19-10.33-8.22 4.54v.01l-12.35 6.83-11.19 6.18-11.03 6.11-11.19 6.18-11.03 6.11-11.14 6.15v.02l-10.9 6.02-9.87 5.46z" fill="#4991F6"/><path d="M1308.42 242.84l-20.49-11.64.21-11.26 20.48 11.95-.2 10.95z" fill="#2D70DB"/><path d="M1384.97 189.57l-.19 10.54 12.35-6.9.19-10.48-12.35 6.84zM1362.53 212.57l11.06-6.2.2-10.67-.02.02-11.02 6.14v.09l-.22 10.62zM1340.53 214.15l-.2 10.83 11.04-6.17.19-10.77-11.03 6.11zM1318.2 237.36l10.99-6.15.2-10.95-.02.01-10.88 6.07v.1l-.29 10.92z" fill="#fff"/><path d="M1273.41 318.05l-9.54-10.93v3.27l-1.99 1.09 11.53 6.57z" fill="#BBADAB"/></g><defs><filter id="filter0_d" x="-4" y="-2" width="1608" height="408" filterUnits="userSpaceOnUse" color-interpolation-filters="sRGB"><feFlood flood-opacity="0" result="BackgroundImageFix"/><feColorMatrix in="SourceAlpha" values="0 0 0 0 0 0 0 0 0 0 0 0 0 0 0 0 0 0 127 0"/><feOffset dy="2"/><feGaussianBlur stdDeviation="2"/><feColorMatrix values="0 0 0 0 0 0 0 0 0 0 0 0 0 0 0 0 0 0 0.08 0"/><feBlend in2="BackgroundImageFix" result="effect1_dropShadow"/><feBlend in="SourceGraphic" in2="effect1_dropShadow" result="shape"/></filter><clipPath id="clip0"><path fill="#fff" transform="translate(1112 34)" d="M0 0h380.9v285.68H0z"/></clipPath></defs></svg>