<svg width="375" height="156" fill="none" xmlns="http://www.w3.org/2000/svg" viewBox="0 0 375 156"><path d="M375 0H0v156h375V0z" fill="#F5FCFF"/><path d="M187.5 148.244c61.027 0 110.5-18.496 110.5-41.313 0-22.816-49.473-41.312-110.5-41.312S77 84.115 77 106.93c0 22.817 49.473 41.313 110.5 41.313z" fill="#004EBB"/><g clip-path="url(#clip0)"><path d="M230.265 130.486l19.123-11.485c1.63-1.006 1.612-3.387-.036-4.366l-56.705-33.717-7.452 23.575 45.07 25.993z" fill="#0032A5"/><path d="M227.497 132.089l-39.858-26.434c-2.494-1.438-4.515-5.299-4.515-8.626V10.034c0-3.323 2.021-4.852 4.515-3.414l41.615 24.026c2.495 1.438 4.516 5.298 4.516 8.626v86.581c0 2.185-.819 3.099-2.194 3.892l-4.079 2.344z" fill="#A8C9ED"/><path d="M204.446 50.37S183.11 100.274 183.11 96.95l-3.505-87.973 5.23-2.763c.77-.36 1.735-.283 2.786.323l41.615 24.026c1.216.7 2.322 1.984 3.132 3.496l-27.922 16.31z" fill="#EBF1F7"/><path d="M225.062 131.806l-41.51-24.026c-2.495-1.438-4.411-5.298-4.411-8.626V12.16c0-3.323 1.966-4.853 4.461-3.414l41.487 24.025c2.495 1.439 4.388 5.299 4.388 8.627v86.994c0 3.328-1.921 4.853-4.415 3.414z" fill="#fff"/><path d="M224.229 132.116l-41.51-24.026c-2.495-1.438-4.411-5.298-4.411-8.626v-86.99c0-3.323 1.966-4.852 4.461-3.414l41.487 24.026c2.495 1.438 4.388 5.298 4.388 8.626v86.995c0 3.323-1.921 4.848-4.415 3.409z" fill="#fff"/><path d="M223.082 117.248l-40.473-23.37a1.362 1.362 0 0 1-.678-1.179V19.238a1.36 1.36 0 0 1 2.039-1.18l40.473 23.37c.419.242.678.693.678 1.18v73.461a1.36 1.36 0 0 1-2.039 1.179z" fill="#699EFF"/><path d="M210.554 30.837l-12.836-7.411c-.451-.26-.82-.965-.82-1.566 0-.601.369-.879.82-.62l12.836 7.412c.451.26.82.965.82 1.566 0 .6-.369.878-.82.619z" fill="#456596"/><path d="M231.471 53.602c-.682.291-1.238-.073-1.238-.81v-4.953c0-.733.556-1.575 1.238-1.862.683-.291 1.238.073 1.238.81v4.953c0 .733-.555 1.57-1.238 1.862z" fill="#E6F0FF"/><path d="M232.004 53.67c-.683.291-1.238-.073-1.238-.81v-4.953c0-.733.555-1.575 1.238-1.862.683-.291 1.238.073 1.238.81v4.953c0 .733-.555 1.57-1.238 1.862z" fill="#6899E3"/><path d="M231.471 62.62c-.682.291-1.238-.073-1.238-.81v-4.953c0-.733.556-1.575 1.238-1.862.683-.291 1.238.073 1.238.81v4.953c0 .733-.555 1.57-1.238 1.862z" fill="#E6F0FF"/><path d="M232.004 62.683c-.683.291-1.238-.073-1.238-.81V56.92c0-.733.555-1.575 1.238-1.862.683-.291 1.238.073 1.238.81v4.953c0 .733-.555 1.575-1.238 1.862z" fill="#6899E3"/><path d="M193.001 76.107l-.018-.01s.005.005.018.01z" fill="#FF619A"/><path d="M198.874 56.666c-1.739.01-3.36.382-4.707 1.252-.606.287-1.175.783-1.707 1.566l-.005.004c-.25.324-.409.615-.5.888-1.575 3.464-.61 7.434-.865 12.363.223 1.849.523 2.6 1.912 3.319l.063.036c-.027.023-.045.023-.059.019l3.278 1.811c-.005-.004 5.28-21.272 2.59-21.258zM220.942 84.237l-.428-14.48a4.493 4.493 0 0 0-1.242-2.736 5.571 5.571 0 0 0-1.343-1.37c-2.313-1.657-2.235-1.816-5.472-3.24-2.945-1.298-8.917 19.514-8.931 19.51l8.694 4.802c.041.023.087.05.132.073l.233.127s.009 0 .022-.004c3.037 1.374 8.554.032 8.335-2.681z" fill="#D9E9FF"/><path d="M209.694 61.514l-10.543-.3 1.685-5.7c3.491-.063 5.949 1.052 8.894 3.046l-.036 2.954z" fill="#174082"/><path d="M202.666 62.415s.837.291 1.579.127l2.686 4.548-.137.15c-.432.465-1.22.415-1.506-.095l-2.622-4.73z" fill="#152859"/><path d="M205.301 62.889s-.81-.069-1.333-.474l-4.234 2.781.046.173c.136.542.801.792 1.265.478l4.256-2.958zM203.685 66.43c0 .327-.232.454-.514.29-.282-.163-.515-.56-.515-.887 0-.328.233-.455.515-.291.287.163.514.56.514.887zM203.685 68.751c0 .328-.232.455-.514.291-.282-.164-.515-.56-.515-.887 0-.328.233-.456.515-.292.287.169.514.565.514.888zM203.685 71.078c0 .327-.232.455-.514.291-.282-.164-.515-.56-.515-.888 0-.328.233-.455.515-.291.287.164.514.564.514.888z" fill="#152859"/><path d="M204.723 62.237s-2.854-.009-3.391-4.98l-1.903-.264c-.264.21-.81.068-1.07 1.73a7.606 7.606 0 0 0 .16 2.973l.705 2.83c.159.638.938.925 1.47.547l4.029-2.836z" fill="#6CA4FF"/><path d="M204.796 62.25s-.81-.068-1.334-.473l-4.233 2.781.045.173c.137.542.801.792 1.266.478l4.256-2.959z" fill="#FCFEFF"/><path d="M203.248 60.999l-1.17-10.128 5.854 2.795.947 8.266c.26 1.366-4.493 4.316-5.631-.933z" fill="#FFC2B0"/><path d="M203.016 59.306c.091.255 3.05-.728 2.959-1.047 0 0-1.279 1.89-2.754 2.481l-.205-1.434z" fill="#D18B77"/><path d="M203.303 62.019s3.205 1.106 6.423-3.46l2.481 2.75c.186.405.118.505-.21.86l-4.315 4.816c-.501.546-1.429.483-1.752-.118l-2.627-4.848z" fill="#6CA4FF"/><path d="M203.303 62.018s.76.127 1.493.078l2.818 4.793-.137.15c-.432.464-1.22.414-1.507-.096l-2.667-4.925z" fill="#FCFEFF"/><path d="M196.534 57.135c-1.015 4.379-2.922 9.354-2.335 12.464l2.126-.246-1.393 3.86.409 4.179 1.744.97c.642-6.073 1.912-14.203 4.438-22.502-2.039-.086-2.686.305-4.989 1.275zM216.094 63.83l-6.118 10.816-3.041-.592.196 4.766-2.112 3.929-2.472-1.375c1.052-3.578 2.481-7.752 4.361-12.022 1.361-3.096 3.145-7.843 2.822-10.789 2.035 1.038 4.653 3.4 6.364 5.267z" fill="#fff"/><path d="M209.102 58.518c1.011.87 1.88 1.935 1.607 3.355-.214 1.097-.81 2.048-.97 3.173-.314 2.203.273 4.397.337 6.596.018.646 1.029.637 1.011-.014-.082-2.918-.861-5.585.232-8.417.847-2.198.259-3.892-1.502-5.408-.492-.418-1.207.292-.715.715z" fill="#1E3980"/><path d="M210.249 62.893c-1.32 2.499-4.561 4.024-4.393 7.274.032.646 1.043.637 1.011-.014-.15-2.931 3.05-4.47 4.261-6.75.3-.579-.574-1.089-.879-.51z" fill="#1E3980"/><path d="M209.325 72.712l-3.282 7.07c-.765 1.501-1.315 2.307-3.232 1.465-.105.273-.2.546-.291.82l.296.136c1.393.646 3.054.054 3.701-1.338l3.932-8.467c.647-1.393-.491-1.052-1.124.314z" fill="#6CA4FF"/><path d="M201.91 80.828l1.042.35c.292.1.451.42.355.71l-.05.15a.568.568 0 0 1-.71.356l-1.042-.35a.567.567 0 0 1-.355-.71l.05-.151a.56.56 0 0 1 .71-.355z" fill="#1E3980"/><path d="M206.867 71.723l.009 7.793c.064 1.685.223 2.645 2.317 2.686-.023.291-.045.578-.082.865h-.323c-1.534 0-2.795-1.234-2.795-2.768l-.009-9.336c-.005-1.53.883-.742.883.76z" fill="#6CA4FF"/><path d="M210.185 82.202l-1.092-.123a.565.565 0 0 0-.619.496l-.018.16a.565.565 0 0 0 .496.619l1.092.123a.565.565 0 0 0 .619-.496l.019-.16a.565.565 0 0 0-.497-.619zM209.935 72.234l.542.155a.528.528 0 0 0 .655-.364l.082-.292a.529.529 0 0 0-.364-.655l-.542-.155a.528.528 0 0 0-.655.364l-.082.291a.531.531 0 0 0 .364.656zM206.152 71.19l.56.042a.53.53 0 0 0 .569-.487l.023-.3a.53.53 0 0 0-.487-.57l-.56-.04a.53.53 0 0 0-.569.486l-.023.3a.53.53 0 0 0 .487.57zM197.777 72.27c.368-3.778.459-7.61 1.069-11.362.401-2.462 1.125-5.399 3.942-5.954.565-.11.492-1.01-.077-.897-2.599.51-3.801 2.554-4.411 4.98-1.061 4.22-.988 8.758-1.411 13.07-.055.573.828.741.888.163z" fill="#1E3980"/><path d="M194.854 72.639a2.41 2.41 0 1 0 4.487 1.757 2.41 2.41 0 0 0-4.487-1.757z" fill="#1E3980"/><path d="M197.256 74.87a1.857 1.857 0 1 0-.21-3.708 1.857 1.857 0 0 0 .21 3.708z" fill="#FBFBFF"/><path d="M195.537 71.605c-.373.956.1 2.035 1.051 2.408.956.373 2.031-.1 2.408-1.051a1.861 1.861 0 0 0-1.051-2.409 1.856 1.856 0 0 0-2.408 1.052z" fill="#1E3980"/><path d="M203.599 59.315l-2.504.109c-2.959.168-4.93-2.117-5.094-5.071l-.555-9.764c-.168-2.96 2.117-5.513 5.071-5.681l1.921-.11c2.959-.168 5.513 2.117 5.681 5.071l.555 9.764c.164 2.955-2.116 5.513-5.075 5.681z" fill="#FFC2B0"/><path d="M203.303 46.469c-1.989.992-4.657 1.17-6.906.36-2.439-.88-4.169-3.697-2.312-5.509 1.001-.978 3.701-2.175 5.868-3.113 6.14-2.659 12.786.1 13.187 7.174 0 0 .797 9.682-4.821 11.243l-.4-1.41s2.226-2.158-.342-3.934c-.778-.537-1.547-1.87-1.502-3.05.05-1.188-1.702-2.294-2.772-1.761z" fill="#305DAD"/><path d="M210.151 52.404c.256-1.256-.239-2.418-1.106-2.595-.867-.176-1.778.699-2.034 1.955-.256 1.256.239 2.418 1.106 2.595.867.177 1.778-.698 2.034-1.955z" fill="#FFC2B0"/><path d="M201.969 52.714c.041.414-.095.765-.3.783-.205.018-.405-.3-.442-.715-.041-.414.096-.764.301-.783.2-.018.4.3.441.715zM197.945 50.83c.05.414-.077.764-.282.792-.205.022-.41-.292-.46-.701-.05-.415.077-.765.282-.792.205-.028.41.286.46.7zM201.182 50.748c.632 0 1.233.378 1.661.82.364.373.933-.196.574-.574-.574-.592-1.389-1.056-2.231-1.056-.523.005-.523.815-.004.81zM196.671 48.64a2.12 2.12 0 0 1 1.525.72c.35.386.919-.188.573-.574a2.923 2.923 0 0 0-2.094-.956c-.528-.01-.528.796-.004.81z" fill="#1D3570"/><path d="M198.61 54.608c-.264 0-.547-.078-.738-.342-.182-.25-.378-.765.364-1.397.647-.551.742-1.671.747-1.685a.153.153 0 0 1 .164-.14c.082.004.145.081.141.163-.005.05-.109 1.256-.851 1.89-.424.359-.533.691-.314.987.323.441 1.119.073 1.124.073a.146.146 0 0 1 .2.073.146.146 0 0 1-.073.2 1.975 1.975 0 0 1-.764.178zM208.037 51.827s.901-.997 1.252-.078c.35.92-.92 1.89-.92 1.89s.629-.806.16-1.225c-.469-.414-.492-.587-.492-.587z" fill="#D18B77"/><path d="M197.736 54.908l2.836 1.216c.118.05.191.173.173.296-.064.45-.383 1.402-1.93.851-1.084-.387-1.389-1.438-1.471-2.062a.28.28 0 0 1 .392-.3z" fill="#fff"/><path d="M198.382 72.12c0 .568-.464 1.033-1.033 1.033a1.036 1.036 0 0 1-1.034-1.034c0-.569.465-1.033 1.034-1.033s1.033.464 1.033 1.033z" fill="#25469E"/><path d="M154.695 139.434c7.098-.125 12.802-3.086 12.739-6.613-.062-3.526-5.867-6.283-12.965-6.157-7.099.125-12.802 3.086-12.74 6.612.063 3.527 5.868 6.284 12.966 6.158z" fill="#0032A5"/><path d="M141.103 81.683c.273 2.126.61 4.247 1.279 6.291.533 1.625 1.111 3.218 1.525 4.88.396 1.593 2.891 1.052 2.495-.542-.414-1.661-.992-3.254-1.525-4.88-.669-2.043-1.001-4.165-1.279-6.29-.21-1.635-2.704-1.075-2.495.541z" fill="#FFC2B0"/><path d="M142.391 90.32s1.994-1.89 3.892-.647l.505 1.634c-.341.974-3.277 1.356-3.769.879l-.628-1.867z" fill="#fff"/><path d="M144.444 80.614l2.235 9.564c-.537.355-2.653.728-4.556.596l-2.044-9.172c-.246-1.097.337-2.226 1.388-2.618l.041-.013c1.257-.46 2.627.336 2.936 1.643z" fill="#4E82E0"/><path d="M166.467 83.058c1.015-2.099 1.976-4.23 2.581-6.487.483-1.798 1.316-5.062 1.926-6.824.587-1.688-1.907-1.766-2.495-.077-.61 1.762-1.543 4.115-2.025 5.913-.606 2.258-1.566 4.388-2.581 6.487-.779 1.611 1.825 2.585 2.594.988z" fill="#FFC2B0"/><path d="M170.437 74.432s-2.936.532-3.929-1.726l.515-1.789c.887-.687 3.792.715 3.955 1.443l-.541 2.072z" fill="#fff"/><path d="M163.731 80.313l2.723-8.299c.701-.004 2.849.915 4.502 2.167l-2.882 7.028c-1.343 3.269-3.241 3.537-4.47 3.287a1.15 1.15 0 0 1-.838-1.525c.301-.824.706-1.944.965-2.658z" fill="#699EFF"/><path d="M144.231 65.1c-1.175 4.876-1.744 9.883-3.747 14.494-.523 1.202-.355 2.604.87 3.319 1.024.6 2.795.337 3.318-.87 1.056-2.43 1.976-4.88 2.531-7.474.583-2.727 1.052-5.467 1.703-8.18.733-3.032-3.942-4.325-4.675-1.288z" fill="#4E82E0"/><path d="M147.717 88.999c-.974 13.183-.792 26.352-.86 39.557-.014 3.05 4.72 3.055 4.739 0 .068-13.205-.114-26.374.86-39.557.096-1.28-1.156-2.367-2.367-2.367-1.361 0-2.276 1.088-2.372 2.367z" fill="#FFC2B0"/><path d="M148.369 131.223l.774 2.377c.264.4 1.147 1.074 1.584.874 1.807-.82 6.655-2.572 5.835-4.707-1.033-2.686-7.879.482-7.879.482l-.314.974z" fill="#211775"/><path d="M150.134 128.847s2.727-.369 3.993.551c.496.359.036.919-.861 1.343-1.766.833-3.801.591-4.779-.765l-.629-.378 2.276-.751z" fill="#FFC2B0"/><path d="M146.033 129.288l.66 5.613a.651.651 0 0 0 1.298-.041l.245-4.675a.636.636 0 0 0-.182-.487l-.906-.938c-.427-.45-1.188-.095-1.115.528z" fill="#211775"/><path d="M146.684 127.905s-1.639 1.188-.164 4.679c.019.046.032.182.064.141 1.448-1.925 2.558 0 2.558 0l4.074-1.729s-2.676.682-4.848-1.566c-.578-.597-1.684-1.525-1.684-1.525zM154.026 134.46l.774 2.376c.264.401 1.147 1.074 1.584.874 1.808-.819 6.655-2.572 5.836-4.707-1.033-2.686-7.88.483-7.88.483l-.314.974z" fill="#211775"/><path d="M155.793 132.084s2.726-.368 3.992.551c.496.36.036.92-.861 1.343-1.766.833-3.801.592-4.779-.765l-.628-.378 2.276-.751z" fill="#FFC2B0"/><path d="M155.019 92.576c.1 6.892.055 13.797-.387 20.68a152.044 152.044 0 0 1-.628 7.197 85.88 85.88 0 0 1-.178 1.507c-.031.241-.059.487-.091.728-.022.173-.145 1.097-.054.432a215.63 215.63 0 0 1-.414 2.855c-.301 1.948-.638 3.887-.966 5.831-.213 1.261.333 2.549 1.653 2.913 1.138.314 2.699-.387 2.913-1.652 1.548-9.136 2.599-18.236 2.841-27.513.113-4.325.109-8.654.045-12.978-.041-3.045-4.779-3.054-4.734 0z" fill="#FFC2B0"/><path d="M158.442 99.536c-3.487 6.624-6.482 3.433-10.57.415-4.087-3.018-4.497-8.977-2.326-13.962 0 0 6.095-7.096 10.183-4.083 4.088 3.023 6.765 9.937 2.713 17.63z" fill="#6359C2"/><path d="M144.444 70.32s1.803 14.404 2.099 15.614c0 0 1.461 4.166 11.849.228l2.868-12.86-16.816-2.981z" fill="#699EFF"/><path d="M161.132 78.174c.396-.246.97-3.674.97-3.674-.214-4.083-.838-4.73-6.387-8.507-.641-.437-2.003-1.534-6.259-2.304-2.062-.373-4.101.774-4.934 2.7-.487 1.124-.014 4.479-.014 4.479 1.275 6.154 1.589 3.81 1.985 6.965.246 1.966.423 3.39.437 3.591v.023l7.379 5.817 3.883-7.01 2.94-2.08z" fill="#699EFF"/><path d="M159.111 69.193c.701 1.21.902 2.567 1.011 4.67 0 0-.756 1.566-1.243 1.867l-1.329 3.61-1.907 8.548a33.988 33.988 0 0 0 2.763-.924l1.602-7.188 1.133-.805c.397-.246.97-3.674.97-3.674-.155-3.036-.542-4.174-3-6.104z" fill="#4E82E0"/><path d="M145.35 92.663s.46 20.566.633 20.844c1.088 1.748 5.763 5.462 12.591 2.722 1.206-.482 1.752-1.671 1.698-2.772l.177-21.158-5.253 2.253-9.846-1.889z" fill="#6359C2"/><path d="M145.41 85.74a.87.87 0 0 0 .323.85c.938.729 3.546 2.112 7.374 1.858 3.382-.228 5.34-1.107 6.291-1.562a.875.875 0 0 0 .446-1.097l-.095-.26c-.173-.468-.756-.395-1.216-.2-1.78.752-5.967 1.98-8.945 1.088-1.374-.41-2.253-.846-2.822-1.242a.873.873 0 0 0-1.356.564z" fill="#4537BD"/><path d="M151.691 132.521l.66 5.613a.651.651 0 0 0 1.298-.041l.246-4.675a.642.642 0 0 0-.182-.487l-.906-.938c-.428-.451-1.188-.091-1.116.528z" fill="#211775"/><path d="M152.342 131.142s-1.638 1.188-.163 4.68c.018.045.031.182.063.141 1.448-1.926 2.559 0 2.559 0l4.074-1.73s-2.677.683-4.848-1.566c-.578-.596-1.685-1.525-1.685-1.525z" fill="#211775"/><path d="M145.455 97.155s1.917 2.313 2.668 2.813c0 0-2.613-.46-2.627-1.047l-.041-1.766z" fill="#2C1F9C"/><path d="M151.732 66.48l.542-6.073 3.915 1.944-.423 4.734c.013.887-4.024 1.429-4.034-.606z" fill="#FFC2B0"/><path d="M149.725 64.96c-1.097.805 1.21 2.375 2.294 2.771 1.948.71 4.179-.218 6.172-.032.501.046-1.82-1.638-2.33-1.606-2.153.127-3.737-.692-3.929-1.84-.145-.878-3.282-.5-2.949-.29l.742.996z" fill="#fff"/><path d="M154.983 52.573s-3.342-3.592-4.179 1.976c-.583 3.873 1.511 7.61 4.766 9.632 2.03 1.26 4.848.441 5.244-1.47.919-2.74 1.306-5.372.623-7.785.478-2.308-1.393-1.734-4.392-2.33l-2.062-.023z" fill="#FFC2B0"/><path d="M150.703 62.624s-3.637-1.325-2.289-7.101c1.179-5.062 5.371-5.044 8.658-4.903 1.456.064 3.955 1.411 4.529 2.836.678 1.68-.032 1.589-1.757 2.194-.728.255-.637 2.376-.888 3.055-.446 1.21-1.88 1.534-2.335 2.703-.432 1.107-1.275 2.281-2.394 2.254-1.99-.041-3.524-1.038-3.524-1.038z" fill="#915151"/><path d="M158.233 60.28c-.05.96-.651 1.706-1.339 1.67a.842.842 0 0 1-.218-.04c-.574-.178-.979-.911-.933-1.762.05-.961.651-1.708 1.338-1.671.687.036 1.202.842 1.152 1.803zM162.539 60.39c.005.113-.087.204-.173.277-.25.2-.537.355-.842.446-.146.045-.314.073-.446-.01-.137-.086-.178-.268-.187-.427-.023-.428.109-1.18.61-1.302.205-.05-.004-1.475.041-1.275.178.802.701 1.817.997 2.29z" fill="#FFC2B0"/><path d="M160.45 58.946c-.028.25.063.464.205.483.141.013.277-.173.305-.424.027-.25-.064-.464-.205-.482-.141-.019-.278.173-.305.423z" fill="#21275E"/><path d="M160.299 57.976c.241-.141.592-.296.879-.223.223.06.318-.282.095-.346-.378-.105-.828.064-1.151.255-.196.123-.019.432.177.314z" fill="#915151"/><path d="M159.234 61.8c.114.496.56.728 1.043.733.232.005.232-.36 0-.364-.323-.005-.615-.128-.692-.465-.055-.227-.405-.132-.351.096zM157.432 60.393a.239.239 0 0 0 .018-.36c-.15-.14-.378-.272-.546.033-.173.305.013.678.177.91.027.041.096.014.082-.036-.036-.155-.036-.333.114-.433.064-.04.114-.077.155-.114z" fill="#D18B77"/><path d="M148.828 55.696c-1.343 5.776 1.124 6.618 1.124 6.618s1.184.574 1.675.656c-.145-1.143-.05-2.18.483-3.146.824-1.488 1.161-3.232.624-4.848a3.97 3.97 0 0 1-.155-2.012 1.556 1.556 0 0 0-.546-1.534c-1.457.656-2.659 1.912-3.205 4.266z" fill="#7A4343"/><path d="M153.139 53.834c-.328 1.444-1.816 2.336-3.323 1.99-1.507-.342-2.458-1.794-2.13-3.237.327-1.443 1.816-2.335 3.323-1.99 1.506.347 2.458 1.794 2.13 3.237z" fill="#2C1F9C"/><path d="M151.373 52.09c.327-1.725-1.985-2.663-3.027-1.252-.315.424-.62 1.011-.897 1.808-1.725 4.911-10.138 3.195-6.997 12.554 0 0-4.465 5.385 2.299 8.654 1.083.523 2.431.086 3.765-.76 3.368-2.14 4.861-6.228 4.051-10.138-.282-1.37-.305-2.831.346-4.006.824-1.488 1.161-3.232.624-4.848a3.776 3.776 0 0 1-.164-2.012z" fill="#915151"/><path d="M157.158 64.727s-1.042-.924-1.456-1.789c0 0-.437.455-.888.628-.005 0 1.416 1.18 2.344 1.161z" fill="#F0A995"/><path d="M162.543 83.59l-5.021-10.378a2.723 2.723 0 0 1 1.098-3.55c1.42-.816 2.999.668 3.937 2.325l4.27 9.296-1.962 2.963a1.614 1.614 0 0 1-2.322-.655z" fill="#699EFF"/><path d="M169.531 70.526c-.765-.123-1.234-.842-1.042-1.602l.814-3.264c.192-.76.97-1.284 1.735-1.16.764.122 1.233.841 1.042 1.602l-.815 3.263c-.191.76-.969 1.28-1.734 1.161z" fill="#FFC2B0"/><path d="M169.476 70.39l-3.646-1.889c-.218-.109-.309-.419-.2-.692l2.754-7.137c.104-.273.364-.405.582-.296l3.619 1.825c.219.11.31.419.201.692L170.045 70c-.068.177-.154.214-.323.287l-.246.104z" fill="#97CBFF"/><path d="M169.267 63.676s-3.742 4.406-3.637 4.133l2.736-7.365.319-.087a.359.359 0 0 1 .282.019l3.619 1.825a.452.452 0 0 1 .218.278l-3.537 1.197z" fill="#97CBFF"/><path d="M169.126 70.409l-3.61-1.826c-.218-.109-.296-.418-.191-.692l2.754-7.137c.105-.273.36-.405.578-.296l3.605 1.825c.219.11.296.419.187.692l-2.754 7.138c-.105.273-.355.405-.569.296z" fill="#2C1F9C"/><path d="M172.367 63.516l-.159.41c-.009.027.004.04.036.027l-.004-.005a.119.119 0 0 0 .063-.077l.16-.41c.009-.027.009-.04-.023-.027v.005a.172.172 0 0 0-.073.077zM172.094 64.231l-.16.41c-.009.027.005.041.037.027l-.005-.004a.12.12 0 0 0 .064-.078l.159-.41c.009-.027.009-.04-.022-.027v.005a.132.132 0 0 0-.073.077z" fill="#45446C"/><path d="M169.559 69.234l-3.556-1.79 2.413-6.295 3.532 1.78-2.453 6.146c-.023.054.114.182.064.159z" fill="#DBEDFF"/><path d="M170.929 62.11l-1.116-.564c-.041-.018-.054-.078-.036-.128.018-.05.068-.073.105-.054l1.115.564c.041.018.055.078.036.128-.018.05-.068.072-.104.054z" fill="#fff"/><path d="M170.747 69.197l.332-.892c-.328.045-.592 1.406-.61 1.142l-.319-3.664c-.018-.264.242-.519.569-.564.328-.046.61.132.629.396l.113 1.816c.014.264-.387 1.72-.714 1.766z" fill="#FFC2B0"/><path opacity=".4" d="M179.905 32.522c-5.349-2.686-9.969-9.71-10.319-15.682-.351-5.977 3.705-8.644 9.054-5.959 5.348 2.686 9.923 9.628 10.374 15.655.496 6.628-3.76 8.672-9.109 5.986z" fill="#A8C4E5"/><path d="M178.335 30.164c-5.08-2.55-9.469-9.218-9.801-14.895-.332-5.676 3.519-8.212 8.599-5.658 5.08 2.55 9.423 9.145 9.851 14.867.473 6.291-3.569 8.235-8.649 5.686z" fill="#C24034"/><path d="M175.685 31.643c-5.08-2.55-9.468-9.218-9.8-14.894-.333-5.677 3.518-8.208 8.599-5.658 5.08 2.549 9.422 9.145 9.85 14.867.469 6.29-3.569 8.234-8.649 5.685z" fill="#FF4F4F"/><path d="M168.625 17.422l.014 2.558c0 .25.136.483.355.606l10.702 6.109a.702.702 0 0 0 1.051-.615l-.013-2.558a.696.696 0 0 0-.356-.606l-10.701-6.108a.702.702 0 0 0-1.052.614z" fill="#FCFEFF"/><path d="M173.236 27.81l2.258 1.289a.702.702 0 0 0 1.051-.615l-.059-12.186a.696.696 0 0 0-.355-.605l-2.258-1.288a.702.702 0 0 0-1.051.614l.059 12.186c0 .25.137.483.355.606z" fill="#FCFEFF"/><path d="M189.232 82.48l.538 1.557c.081.246.245.473.432.615l1.202.892c.473.35.66 1.129.318 1.315l-.869.47c-.137.072-.2.254-.164.49l.205 1.494c.082.587-.414.715-.838.214l-1.074-1.27c-.168-.2-.369-.314-.537-.31l-1.074.028c-.424.009-.92-.688-.838-1.184l.205-1.256c.032-.196-.032-.45-.164-.683l-.869-1.466c-.342-.582-.155-1.138.318-.947l1.202.492c.187.077.35.036.432-.11l.538-.937c.213-.373.823-.018 1.037.596zM196.525 86.691l.537 1.557c.082.246.246.474.432.615l1.202.892c.474.35.66 1.129.319 1.315l-.87.47c-.136.072-.2.254-.163.49l.204 1.494c.082.587-.414.715-.837.214l-1.074-1.27c-.169-.2-.369-.314-.538-.31l-1.074.028c-.423.009-.919-.688-.837-1.184l.204-1.256c.032-.196-.032-.451-.164-.683l-.869-1.475c-.341-.583-.155-1.138.319-.947l1.201.492c.187.077.351.036.433-.11l.537-.937c.214-.364.824-.01 1.038.605zM203.817 90.901l.538 1.557c.081.246.245.473.432.615l1.202.892c.473.35.66 1.129.318 1.315l-.869.47c-.137.072-.2.254-.164.49l.205 1.494c.082.587-.414.715-.838.214l-1.074-1.27c-.168-.2-.369-.314-.537-.31l-1.074.028c-.424.009-.92-.688-.838-1.184l.205-1.256c.032-.196-.032-.451-.164-.683l-.869-1.475c-.342-.583-.155-1.138.318-.947l1.202.492c.187.077.35.036.432-.11l.538-.937c.213-.364.823-.01 1.037.605zM211.11 95.112l.537 1.557c.082.246.246.473.432.615l1.202.892c.473.35.66 1.129.319 1.315l-.87.47c-.136.072-.2.254-.164.491l.205 1.493c.082.587-.414.714-.837.214l-1.075-1.27c-.168-.201-.368-.314-.537-.31l-1.074.027c-.424.01-.92-.687-.838-1.183l.205-1.256c.032-.196-.032-.451-.164-.683l-.869-1.475c-.342-.583-.155-1.138.318-.947l1.202.492c.187.077.351.036.433-.11l.537-.937c.214-.365.824-.01 1.038.605zM218.402 99.323l.537 1.557c.082.246.246.473.433.614l1.201.893c.474.35.66 1.129.319 1.315l-.869.469c-.137.073-.201.255-.164.492l.205 1.493c.082.587-.415.714-.838.214l-1.074-1.27c-.169-.201-.369-.314-.537-.31l-1.075.027c-.423.01-.919-.687-.837-1.183l.205-1.256c.031-.196-.032-.451-.164-.683l-.87-1.475c-.341-.583-.155-1.138.319-.947l1.202.492c.186.077.35.036.432-.11l.537-.937c.214-.365.824-.01 1.038.605z" fill="#F9B233"/></g><defs><clipPath id="clip0"><path fill="#fff" transform="translate(139 6)" d="M0 0h111.599v133.44H0z"/></clipPath></defs></svg>