<svg width="1600" height="400" fill="none" xmlns="http://www.w3.org/2000/svg" viewBox="0 0 1600 400"><g filter="url(#filter0_d)"><path fill="#F5FCFF" d="M1600 0H0v400h1600z"/></g><path d="M1283.55 359.9c126.22 0 228.55-38.257 228.55-85.45 0-47.193-102.33-85.45-228.55-85.45-126.22 0-228.55 38.257-228.55 85.45 0 47.193 102.33 85.45 228.55 85.45z" fill="#004EBB"/><g clip-path="url(#clip0)"><path d="M1365.14 311.898l43.61-26.192c3.71-2.294 3.67-7.723-.09-9.955l-129.32-76.895-16.99 53.765 102.79 59.277z" fill="#0032A5"/><path d="M1358.82 315.553l-90.9-60.285c-5.68-3.28-10.29-12.084-10.29-19.672V37.198c0-7.579 4.61-11.067 10.29-7.786l94.91 54.793c5.69 3.28 10.3 12.083 10.3 19.672V301.33c0 4.983-1.87 7.07-5.01 8.876l-9.3 5.347z" fill="#A8C9ED"/><path d="M1306.25 129.187s-48.66 113.81-48.66 106.232l-7.99-200.63 11.93-6.301c1.75-.82 3.95-.644 6.35.737l94.91 54.792c2.77 1.6 5.29 4.527 7.14 7.973l-63.68 37.197z" fill="#EBF1F7"/><path d="M1353.27 314.909l-94.67-54.793c-5.69-3.281-10.06-12.084-10.06-19.673V42.045c0-7.578 4.49-11.066 10.18-7.785l94.61 54.792c5.69 3.28 10.01 12.084 10.01 19.673v198.398c0 7.588-4.38 11.066-10.07 7.786z" fill="#fff"/><path d="M1351.37 315.615l-94.67-54.793c-5.69-3.281-10.06-12.084-10.06-19.673V42.762c0-7.579 4.49-11.067 10.18-7.786l94.61 54.793c5.69 3.28 10.01 12.083 10.01 19.672v198.398c0 7.578-4.38 11.056-10.07 7.776z" fill="#fff"/><path d="M1348.75 281.709l-92.3-53.298a3.107 3.107 0 0 1-1.54-2.688V58.189c0-2.388 2.58-3.883 4.65-2.69l92.3 53.299c.95.55 1.54 1.578 1.54 2.688v167.535c0 2.387-2.58 3.882-4.65 2.688z" fill="#699EFF"/><path d="M1320.18 84.64l-29.27-16.9c-1.03-.592-1.87-2.201-1.87-3.572 0-1.37.84-2.003 1.87-1.412l29.27 16.901c1.03.592 1.87 2.201 1.87 3.572 0 1.37-.84 2.003-1.87 1.411z" fill="#456596"/><path d="M1367.89 136.557c-1.56.665-2.83-.166-2.83-1.848v-11.294c0-1.672 1.27-3.592 2.83-4.246 1.55-.665 2.82.166 2.82 1.847v11.295c0 1.672-1.27 3.582-2.82 4.246z" fill="#E6F0FF"/><path d="M1369.1 136.713c-1.56.664-2.82-.166-2.82-1.848V123.57c0-1.671 1.26-3.592 2.82-4.246 1.56-.664 2.82.166 2.82 1.848v11.295c0 1.671-1.26 3.582-2.82 4.246z" fill="#6899E3"/><path d="M1367.89 157.123c-1.56.664-2.83-.166-2.83-1.848V143.98c0-1.671 1.27-3.592 2.83-4.246 1.55-.664 2.82.166 2.82 1.848v11.295c0 1.671-1.27 3.581-2.82 4.246z" fill="#E6F0FF"/><path d="M1369.1 157.268c-1.56.665-2.82-.166-2.82-1.848v-11.295c0-1.671 1.26-3.591 2.82-4.246 1.56-.664 2.82.167 2.82 1.848v11.295c0 1.672-1.26 3.592-2.82 4.246z" fill="#6899E3"/><path d="M1280.15 187.883l-.04-.021s.01.01.04.021z" fill="#FF619A"/><path d="M1293.55 143.544c-3.97.021-7.67.872-10.74 2.855-1.38.654-2.68 1.785-3.89 3.571l-.01.01c-.57.737-.94 1.402-1.14 2.025-3.6 7.9-1.39 16.952-1.98 28.195.51 4.215 1.2 5.928 4.36 7.568l.15.084c-.06.051-.1.051-.14.041l7.48 4.132c-.01-.011 12.04-48.512 5.91-48.481zM1343.87 206.424l-.97-33.023a10.245 10.245 0 0 0-2.84-6.239 12.406 12.406 0 0 0-3.06-3.125c-5.27-3.779-5.09-4.142-12.48-7.392-6.71-2.958-20.33 44.505-20.36 44.495l19.82 10.952c.1.052.2.114.31.166l.52.291s.03 0 .06-.01c6.92 3.135 19.5.072 19-6.115z" fill="#D9E9FF"/><path d="M1318.22 154.6l-24.04-.685 3.84-12.997c7.96-.146 13.57 2.398 20.29 6.945l-.09 6.737z" fill="#174082"/><path d="M1302.19 156.656s1.91.664 3.61.29l6.12 10.371-.31.343c-.99 1.059-2.78.945-3.44-.218l-5.98-10.786z" fill="#152859"/><path d="M1308.2 157.735s-1.84-.155-3.04-1.079l-9.65 6.343.1.394c.31 1.236 1.83 1.807 2.89 1.09l9.7-6.748zM1304.52 165.812c0 .747-.53 1.038-1.17.664-.65-.373-1.18-1.277-1.18-2.024 0-.747.53-1.038 1.18-.664.65.373 1.17 1.277 1.17 2.024zM1304.52 171.106c0 .748-.53 1.039-1.17.665-.65-.374-1.18-1.277-1.18-2.025 0-.747.53-1.038 1.18-.664.65.384 1.17 1.287 1.17 2.024zM1304.52 176.412c0 .747-.53 1.038-1.17.664-.65-.374-1.18-1.277-1.18-2.024 0-.748.53-1.038 1.18-.665.65.374 1.17 1.288 1.17 2.025z" fill="#152859"/><path d="M1306.89 156.251s-6.51-.021-7.74-11.357l-4.34-.602c-.6.477-1.85.155-2.44 3.944-.34 2.253-.18 4.558.37 6.779l1.6 6.458c.37 1.453 2.14 2.107 3.36 1.245l9.19-6.467z" fill="#6CA4FF"/><path d="M1307.05 156.282s-1.85-.156-3.04-1.08l-9.65 6.343.1.395c.31 1.235 1.83 1.806 2.89 1.09l9.7-6.748z" fill="#FCFEFF"/><path d="M1303.52 153.427l-2.67-23.098 13.35 6.374 2.16 18.852c.6 3.115-10.24 9.842-12.84-2.128z" fill="#FFC2B0"/><path d="M1302.99 149.565c.21.582 6.96-1.661 6.75-2.387 0 0-2.92 4.308-6.28 5.658l-.47-3.271z" fill="#D18B77"/><path d="M1303.65 155.753s7.31 2.522 14.65-7.89l5.65 6.27c.43.924.27 1.152-.47 1.962l-9.85 10.984c-1.14 1.245-3.26 1.1-3.99-.27l-5.99-11.056z" fill="#6CA4FF"/><path d="M1303.65 155.752s1.73.291 3.4.177l6.43 10.931-.31.343c-.99 1.059-2.79.945-3.44-.218l-6.08-11.233z" fill="#FCFEFF"/><path d="M1288.21 144.614c-2.32 9.986-6.67 21.333-5.33 28.424l4.85-.561-3.17 8.803.93 9.531 3.98 2.211c1.46-13.849 4.36-32.39 10.12-51.315-4.65-.197-6.13.695-11.38 2.907zM1332.82 159.884l-13.95 24.666-6.94-1.349.45 10.869-4.82 8.959-5.64-3.135c2.4-8.16 5.66-17.679 9.95-27.417 3.1-7.059 7.17-17.887 6.44-24.604 4.64 2.367 10.61 7.755 14.51 12.011z" fill="#fff"/><path d="M1316.87 147.769c2.31 1.983 4.29 4.412 3.67 7.651-.49 2.502-1.85 4.672-2.21 7.236-.72 5.025.62 10.028.76 15.043.05 1.474 2.35 1.453 2.31-.032-.19-6.654-1.96-12.738.53-19.195 1.93-5.014.59-8.876-3.43-12.333-1.12-.955-2.75.665-1.63 1.63z" fill="#1E3980"/><path d="M1319.49 157.746c-3.01 5.699-10.4 9.177-10.02 16.589.07 1.474 2.38 1.453 2.31-.031-.35-6.686 6.95-10.195 9.71-15.396.69-1.318-1.31-2.481-2-1.162z" fill="#1E3980"/><path d="M1317.38 180.138l-7.48 16.122c-1.75 3.426-3 5.264-7.37 3.343-.24.623-.46 1.246-.67 1.869l.68.311c3.17 1.474 6.96.125 8.44-3.052l8.97-19.309c1.47-3.177-1.13-2.398-2.57.716z" fill="#6CA4FF"/><path d="M1300.47 198.648l2.38.799c.66.229 1.03.955.81 1.62l-.12.342a1.293 1.293 0 0 1-1.62.81l-2.37-.799a1.29 1.29 0 0 1-.81-1.62l.11-.342c.23-.675.96-1.039 1.62-.81z" fill="#1E3980"/><path d="M1311.78 177.885l.02 17.773c.14 3.841.51 6.032 5.28 6.125-.05.665-.1 1.319-.19 1.973h-.73c-3.5 0-6.38-2.814-6.38-6.312l-.02-21.292c-.01-3.489 2.02-1.693 2.02 1.733z" fill="#6CA4FF"/><path d="M1319.34 201.783l-2.49-.28c-.69-.073-1.34.436-1.41 1.132l-.04.363c-.07.695.43 1.339 1.13 1.412l2.49.28c.7.073 1.34-.436 1.41-1.131l.04-.364c.09-.695-.43-1.329-1.13-1.412zM1318.77 179.048l1.24.353a1.2 1.2 0 0 0 1.49-.83l.19-.665a1.207 1.207 0 0 0-.83-1.495l-1.24-.353c-.64-.186-1.3.187-1.49.831l-.19.664c-.18.634.19 1.308.83 1.495zM1310.15 176.671l1.27.093c.67.052 1.25-.446 1.3-1.111l.05-.685a1.206 1.206 0 0 0-1.11-1.298l-1.28-.093a1.203 1.203 0 0 0-1.29 1.111l-.06.685c-.05.664.45 1.246 1.12 1.298zM1291.04 179.132c.84-8.617 1.05-17.358 2.44-25.912.92-5.617 2.57-12.313 8.99-13.579 1.29-.249 1.13-2.305-.17-2.045-5.93 1.163-8.67 5.824-10.06 11.357-2.42 9.624-2.25 19.974-3.22 29.805-.12 1.308 1.89 1.692 2.02.374z" fill="#1E3980"/><path d="M1284.38 179.973a5.495 5.495 0 0 0 3.11 7.121 5.505 5.505 0 0 0 7.13-3.114c1.1-2.824-.3-6.021-3.12-7.122-2.82-1.111-6.01.291-7.12 3.115z" fill="#1E3980"/><path d="M1289.86 185.058a4.241 4.241 0 0 0 3.99-4.468 4.244 4.244 0 0 0-4.47-3.989 4.235 4.235 0 0 0-3.99 4.468 4.232 4.232 0 0 0 4.47 3.989z" fill="#FBFBFF"/><path d="M1285.94 177.616c-.86 2.18.22 4.64 2.39 5.492 2.18.851 4.63-.229 5.5-2.398a4.247 4.247 0 0 0-2.4-5.492 4.231 4.231 0 0 0-5.49 2.398z" fill="#1E3980"/><path d="M1304.32 149.586l-5.71.249c-6.75.384-11.24-4.827-11.61-11.565l-1.27-22.268c-.39-6.748 4.83-12.571 11.56-12.956l4.38-.249c6.75-.384 12.58 4.828 12.96 11.565l1.27 22.268c.37 6.738-4.83 12.572-11.58 12.956z" fill="#FFC2B0"/><path d="M1303.65 120.29c-4.54 2.263-10.62 2.668-15.75.82-5.57-2.004-9.51-8.43-5.28-12.561 2.29-2.232 8.44-4.963 13.39-7.101 14-6.063 29.16.228 30.07 16.361 0 0 1.82 22.081-10.99 25.642l-.92-3.219s5.08-4.92-.78-8.969c-1.77-1.225-3.52-4.267-3.42-6.955.11-2.71-3.88-5.233-6.32-4.018z" fill="#305DAD"/><path d="M1319.26 133.825c.59-2.865-.54-5.514-2.52-5.918-1.98-.403-4.05 1.592-4.64 4.457-.58 2.865.55 5.515 2.53 5.918 1.97.404 4.05-1.592 4.63-4.457z" fill="#FFC2B0"/><path d="M1300.61 134.533c.09.945-.22 1.744-.69 1.786-.47.041-.92-.686-1.01-1.63-.09-.945.22-1.744.69-1.786.46-.041.91.685 1.01 1.63zM1291.43 130.235c.11.945-.18 1.744-.65 1.807-.46.052-.93-.665-1.04-1.599-.12-.945.17-1.744.64-1.806.47-.063.93.654 1.05 1.598zM1298.81 130.049c1.44 0 2.81.861 3.79 1.868.83.851 2.13-.446 1.31-1.308-1.31-1.349-3.17-2.408-5.09-2.408-1.19.01-1.19 1.858-.01 1.848zM1288.52 125.242c1.35.031 2.58.643 3.48 1.64.8.882 2.1-.426 1.31-1.308a6.677 6.677 0 0 0-4.78-2.18c-1.2-.021-1.2 1.816-.01 1.848z" fill="#1D3570"/><path d="M1292.94 138.852c-.6 0-1.24-.177-1.68-.779-.41-.571-.86-1.744.83-3.187 1.48-1.256 1.69-3.81 1.71-3.841a.345.345 0 0 1 .37-.322c.19.011.33.187.32.374-.01.114-.25 2.865-1.94 4.308-.97.82-1.22 1.578-.72 2.253.74 1.007 2.56.166 2.57.166.17-.083.38-.01.45.166.09.177.01.384-.16.457-.06.031-.87.405-1.75.405zM1314.44 132.509s2.06-2.274 2.86-.177c.8 2.097-2.1 4.308-2.1 4.308s1.43-1.837.36-2.792c-1.06-.945-1.12-1.339-1.12-1.339z" fill="#D18B77"/><path d="M1290.95 139.537l6.47 2.772c.27.114.43.394.39.675-.14 1.027-.87 3.197-4.4 1.941-2.47-.883-3.17-3.281-3.35-4.703a.633.633 0 0 1 .89-.685z" fill="#fff"/><path d="M1292.42 178.789a2.354 2.354 0 0 1-2.35 2.356c-1.3 0-2.36-1.059-2.36-2.356a2.363 2.363 0 0 1 2.36-2.357c1.3 0 2.35 1.059 2.35 2.357z" fill="#25469E"/><path d="M1192.79 332.304c16.19-.286 29.2-7.039 29.06-15.081-.15-8.042-13.38-14.33-29.57-14.043-16.19.286-29.2 7.038-29.06 15.081.15 8.042 13.38 14.33 29.57 14.043z" fill="#0032A5"/><path d="M1161.8 200.6c.62 4.848 1.39 9.686 2.91 14.347 1.22 3.706 2.54 7.34 3.48 11.129.9 3.633 6.59 2.398 5.69-1.235-.94-3.79-2.26-7.423-3.48-11.129-1.52-4.661-2.28-9.499-2.91-14.347-.48-3.727-6.17-2.45-5.69 1.235z" fill="#FFC2B0"/><path d="M1164.73 220.294s4.55-4.309 8.88-1.475l1.15 3.727c-.78 2.222-7.47 3.094-8.59 2.004l-1.44-4.256z" fill="#fff"/><path d="M1169.42 198.161l5.09 21.811c-1.22.81-6.05 1.661-10.39 1.36l-4.66-20.919c-.56-2.502.77-5.076 3.17-5.969l.09-.031c2.87-1.049 5.99.768 6.7 3.748z" fill="#4E82E0"/><path d="M1219.64 203.735c2.32-4.786 4.51-9.644 5.89-14.793 1.1-4.101 3-11.544 4.39-15.562 1.34-3.851-4.35-4.028-5.69-.176-1.39 4.017-3.52 9.384-4.62 13.485-1.38 5.149-3.57 10.008-5.89 14.794-1.77 3.675 4.17 5.896 5.92 2.252z" fill="#FFC2B0"/><path d="M1228.69 184.063s-6.69 1.214-8.96-3.935l1.18-4.08c2.02-1.567 8.65 1.63 9.02 3.291l-1.24 4.724z" fill="#fff"/><path d="M1213.4 197.476l6.21-18.926c1.6-.01 6.5 2.087 10.27 4.942l-6.57 16.029c-3.07 7.453-7.4 8.066-10.2 7.495-1.57-.322-2.46-1.983-1.91-3.478.69-1.879 1.61-4.433 2.2-6.062z" fill="#699EFF"/><path d="M1168.93 162.781c-2.68 11.118-3.98 22.538-8.55 33.054-1.19 2.741-.81 5.938 1.99 7.568 2.33 1.371 6.37.768 7.57-1.983 2.4-5.543 4.5-11.128 5.77-17.046 1.33-6.218 2.4-12.468 3.88-18.655 1.67-6.914-8.99-9.862-10.66-2.938z" fill="#4E82E0"/><path d="M1176.88 217.283c-2.22 30.064-1.81 60.098-1.96 90.214-.03 6.955 10.76 6.966 10.81 0 .15-30.116-.26-60.15 1.96-90.214.22-2.917-2.64-5.398-5.4-5.398-3.11 0-5.19 2.481-5.41 5.398z" fill="#FFC2B0"/><path d="M1178.36 313.58l1.77 5.42c.6.913 2.62 2.45 3.61 1.993 4.12-1.869 15.18-5.866 13.31-10.735-2.36-6.125-17.97 1.101-17.97 1.101l-.72 2.221z" fill="#211775"/><path d="M1182.39 308.161s6.22-.841 9.11 1.256c1.13.82.08 2.097-1.96 3.063-4.03 1.9-8.67 1.349-10.91-1.744l-1.43-.862 5.19-1.713z" fill="#FFC2B0"/><path d="M1173.04 309.168l1.5 12.8c.06.416.27.789.61 1.028.95.696 2.29.052 2.35-1.121l.56-10.662a1.46 1.46 0 0 0-.41-1.11l-2.07-2.139c-.97-1.028-2.71-.218-2.54 1.204z" fill="#211775"/><path d="M1174.52 306.012s-3.73 2.71-.37 10.672c.04.104.07.416.15.322 3.3-4.391 5.83 0 5.83 0l9.29-3.945s-6.1 1.557-11.06-3.571c-1.31-1.36-3.84-3.478-3.84-3.478zM1191.27 320.961l1.76 5.419c.61.914 2.62 2.45 3.62 1.994 4.12-1.869 15.17-5.866 13.31-10.735-2.36-6.125-17.97 1.101-17.97 1.101l-.72 2.221z" fill="#211775"/><path d="M1195.3 315.543s6.22-.841 9.1 1.256c1.13.82.08 2.097-1.96 3.062-4.03 1.9-8.67 1.35-10.9-1.744l-1.43-.862 5.19-1.712z" fill="#FFC2B0"/><path d="M1193.53 225.443c.23 15.717.13 31.466-.88 47.162a347.03 347.03 0 0 1-1.43 16.413c-.13 1.142-.26 2.294-.41 3.436-.07.55-.13 1.111-.21 1.661-.05.395-.33 2.502-.12.987-.3 2.169-.61 4.339-.94 6.509-.69 4.443-1.46 8.865-2.21 13.298-.48 2.876.76 5.814 3.77 6.644 2.6.716 6.16-.882 6.65-3.768 3.53-20.836 5.92-41.588 6.47-62.745.26-9.862.25-19.735.11-29.597-.09-6.945-10.9-6.966-10.8 0z" fill="#FFC2B0"/><path d="M1201.34 241.316c-7.95 15.104-14.78 7.827-24.11.944-9.32-6.883-10.25-20.472-5.3-31.839 0 0 13.9-16.185 23.22-9.312 9.32 6.893 15.43 22.662 6.19 40.207z" fill="#6359C2"/><path d="M1169.42 174.688s4.11 32.847 4.78 35.608c0 0 3.33 9.499 27.02.52l6.54-29.328-38.34-6.8z" fill="#699EFF"/><path d="M1207.47 192.596c.91-.56 2.22-8.377 2.22-8.377-.49-9.313-1.91-10.787-14.57-19.403-1.46-.997-4.57-3.499-14.27-5.253-4.71-.851-9.36 1.765-11.26 6.156-1.11 2.564-.03 10.215-.03 10.215 2.91 14.036 3.62 8.689 4.53 15.884.56 4.484.96 7.734.99 8.191v.051l16.83 13.268 8.86-15.987 6.7-4.745z" fill="#699EFF"/><path d="M1202.86 172.114c1.6 2.761 2.06 5.855 2.31 10.651 0 0-1.72 3.571-2.83 4.256l-3.04 8.233-4.35 19.496a78.2 78.2 0 0 0 6.31-2.107l3.65-16.393 2.58-1.837c.91-.561 2.22-8.378 2.22-8.378-.36-6.924-1.24-9.52-6.85-13.921z" fill="#4E82E0"/><path d="M1171.48 225.64s1.05 46.903 1.44 47.536c2.49 3.987 13.15 12.458 28.72 6.208 2.75-1.1 4-3.81 3.87-6.322l.41-48.252-11.98 5.138-22.46-4.308z" fill="#6359C2"/><path d="M1171.62 209.85a1.98 1.98 0 0 0 .73 1.941c2.14 1.661 8.09 4.817 16.82 4.236 7.72-.519 12.18-2.523 14.35-3.561a2.006 2.006 0 0 0 1.02-2.502l-.22-.592c-.4-1.069-1.73-.903-2.77-.456-4.06 1.713-13.61 4.516-20.4 2.481-3.14-.935-5.14-1.931-6.44-2.834-1.19-.831-2.83-.135-3.09 1.287z" fill="#4537BD"/><path d="M1185.94 316.539l1.51 12.8c.05.416.27.789.6 1.028.96.696 2.29.052 2.36-1.121l.56-10.662c.02-.415-.13-.82-.42-1.11l-2.06-2.139c-.98-1.028-2.71-.208-2.55 1.204z" fill="#211775"/><path d="M1187.43 313.394s-3.74 2.709-.38 10.672c.05.103.08.415.15.321 3.3-4.391 5.83 0 5.83 0l9.3-3.944s-6.11 1.557-11.06-3.572c-1.32-1.36-3.84-3.477-3.84-3.477z" fill="#211775"/><path d="M1171.72 235.886s4.37 5.274 6.08 6.416c0 0-5.95-1.049-5.99-2.388l-.09-4.028z" fill="#2C1F9C"/><path d="M1186.04 165.926l1.23-13.848 8.93 4.432-.97 10.797c.04 2.024-9.17 3.26-9.19-1.381z" fill="#FFC2B0"/><path d="M1181.46 162.459c-2.5 1.838 2.76 5.419 5.23 6.322 4.44 1.62 9.53-.498 14.08-.072 1.14.104-4.15-3.738-5.32-3.665-4.91.291-8.52-1.578-8.96-4.194-.33-2.004-7.48-1.142-6.72-.664l1.69 2.273z" fill="#fff"/><path d="M1193.45 134.211s-7.62-8.19-9.53 4.506c-1.33 8.835 3.45 17.358 10.87 21.967 4.63 2.876 11.05 1.007 11.96-3.353 2.09-6.25 2.98-12.25 1.42-17.752 1.09-5.264-3.18-3.956-10.02-5.316l-4.7-.052z" fill="#FFC2B0"/><path d="M1183.69 157.133s-8.29-3.021-5.22-16.195c2.69-11.544 12.25-11.502 19.74-11.18 3.33.145 9.03 3.218 10.33 6.467 1.55 3.831-.07 3.623-4 5.004-1.66.582-1.46 5.419-2.03 6.966-1.02 2.761-4.29 3.499-5.32 6.167-.99 2.522-2.91 5.201-5.46 5.138-4.54-.093-8.04-2.367-8.04-2.367z" fill="#915151"/><path d="M1200.86 151.787c-.11 2.191-1.48 3.893-3.05 3.81-.18-.01-.34-.041-.5-.093-1.31-.405-2.23-2.076-2.13-4.018.12-2.19 1.49-3.893 3.05-3.81 1.57.083 2.75 1.921 2.63 4.111zM1210.68 152.036c.01.26-.2.467-.39.634-.57.456-1.23.809-1.92 1.017-.34.104-.72.166-1.02-.021-.31-.197-.41-.612-.43-.976-.05-.976.25-2.688 1.4-2.969.46-.114-.02-3.363.09-2.907.4 1.828 1.6 4.143 2.27 5.222z" fill="#FFC2B0"/><path d="M1205.92 148.746c-.07.571.14 1.058.46 1.1.33.031.64-.395.7-.965.06-.571-.15-1.059-.47-1.101-.32-.041-.63.395-.69.966z" fill="#21275E"/><path d="M1205.57 146.534c.55-.322 1.35-.675 2.01-.509.51.135.72-.643.22-.789-.87-.238-1.89.146-2.63.582-.45.28-.04.986.4.716z" fill="#915151"/><path d="M1203.14 155.254c.26 1.132 1.28 1.661 2.38 1.672.53.01.53-.82 0-.831-.73-.01-1.4-.291-1.58-1.059-.12-.519-.92-.301-.8.218zM1199.03 152.046a.55.55 0 0 0 .05-.82c-.35-.322-.87-.623-1.25.073-.39.696.03 1.547.4 2.076.07.094.22.031.19-.083-.08-.353-.08-.758.26-.986.15-.093.26-.177.35-.26z" fill="#D18B77"/><path d="M1179.41 141.333c-3.06 13.174 2.57 15.095 2.57 15.095s2.7 1.308 3.82 1.495c-.33-2.606-.12-4.973 1.1-7.174 1.88-3.395 2.65-7.371 1.42-11.056-.52-1.568-.63-3.094-.35-4.589.28-1.484-.29-2.709-1.25-3.498-3.32 1.495-6.06 4.36-7.31 9.727z" fill="#7A4343"/><path d="M1189.24 137.087c-.74 3.291-4.14 5.326-7.57 4.537-3.44-.779-5.61-4.09-4.86-7.381.74-3.291 4.14-5.326 7.58-4.537 3.43.789 5.6 4.09 4.85 7.381z" fill="#2C1F9C"/><path d="M1185.22 133.111c.74-3.934-4.53-6.073-6.91-2.855-.71.966-1.41 2.305-2.04 4.122-3.94 11.201-23.12 7.287-15.96 28.631 0 0-10.18 12.282 5.24 19.735 2.48 1.194 5.55.198 8.59-1.733 7.68-4.88 11.09-14.202 9.24-23.12-.64-3.124-.7-6.457.79-9.135 1.88-3.395 2.65-7.371 1.42-11.056-.55-1.568-.66-3.094-.37-4.589z" fill="#915151"/><path d="M1198.41 161.929s-2.38-2.107-3.32-4.079c0 0-1 1.038-2.03 1.432-.01 0 3.23 2.689 5.35 2.647z" fill="#F0A995"/><path d="M1210.69 204.95l-11.45-23.669a6.215 6.215 0 0 1 2.5-8.098c3.24-1.858 6.84 1.526 8.98 5.305l9.74 21.199-4.47 6.758c-1.87 1.183-4.34.488-5.3-1.495z" fill="#699EFF"/><path d="M1226.63 175.156c-1.75-.28-2.82-1.921-2.38-3.654l1.86-7.444c.43-1.734 2.21-2.927 3.95-2.647 1.75.28 2.82 1.92 2.38 3.654l-1.86 7.444c-.43 1.733-2.21 2.917-3.95 2.647z" fill="#FFC2B0"/><path d="M1226.5 174.844l-8.31-4.308c-.5-.249-.71-.955-.46-1.578l6.28-16.278c.24-.623.83-.924 1.33-.675l8.25 4.163c.5.25.71.955.46 1.578l-6.25 16.206c-.15.404-.35.488-.74.654l-.56.238z" fill="#97CBFF"/><path d="M1226.03 159.532s-8.54 10.049-8.3 9.426l6.24-16.797.73-.197c.2-.073.43-.062.64.041l8.25 4.163c.24.125.42.353.5.634l-8.06 2.73z" fill="#97CBFF"/><path d="M1225.7 174.885l-8.23-4.163c-.5-.249-.67-.955-.43-1.578l6.28-16.278c.23-.623.82-.924 1.31-.675l8.23 4.163c.49.25.67.955.42 1.578L1227 174.21c-.24.623-.81.924-1.3.675z" fill="#2C1F9C"/><path d="M1233.1 159.168l-.37.935c-.02.062.01.093.08.062l-.01-.01a.262.262 0 0 0 .15-.177l.36-.934c.02-.063.02-.094-.05-.063v.011a.383.383 0 0 0-.16.176zM1232.47 160.798l-.36.935c-.02.062.01.093.08.062l-.01-.011a.285.285 0 0 0 .15-.176l.36-.934c.02-.063.02-.094-.05-.063v.011a.32.32 0 0 0-.17.176z" fill="#45446C"/><path d="M1226.69 172.207l-8.11-4.08 5.5-14.357 8.06 4.059-5.59 14.015c-.06.125.25.415.14.363z" fill="#DBEDFF"/><path d="M1229.81 155.961l-2.54-1.287c-.09-.042-.12-.177-.08-.291.04-.114.15-.166.24-.125l2.54 1.288c.09.041.13.176.08.29-.04.114-.15.166-.24.125z" fill="#fff"/><path d="M1229.4 172.124l.76-2.035c-.75.104-1.35 3.208-1.39 2.606l-.73-8.357c-.04-.602.55-1.183 1.3-1.287.74-.104 1.39.301 1.43.903l.26 4.142c.03.602-.88 3.924-1.63 4.028z" fill="#FFC2B0"/><path opacity=".4" d="M1250.29 88.482c-12.2-6.125-22.74-22.144-23.54-35.764-.8-13.63 8.45-19.714 20.65-13.59 12.2 6.126 22.63 21.957 23.66 35.702 1.13 15.115-8.58 19.777-20.77 13.652z" fill="#A8C4E5"/><path d="M1246.71 83.104c-11.59-5.813-21.6-21.022-22.36-33.968-.75-12.945 8.03-18.728 19.61-12.904 11.59 5.814 21.49 20.857 22.47 33.906 1.08 14.347-8.14 18.78-19.72 12.966z" fill="#C24034"/><path d="M1240.66 86.478c-11.58-5.813-21.59-21.022-22.35-33.968-.76-12.945 8.03-18.717 19.61-12.904 11.59 5.814 21.49 20.856 22.47 33.906 1.07 14.347-8.14 18.78-19.73 12.966z" fill="#FF4F4F"/><path d="M1224.56 54.047l.03 5.834c0 .57.31 1.1.81 1.38l24.41 13.932c1.07.613 2.41-.166 2.4-1.401l-.03-5.834c0-.571-.32-1.1-.81-1.381l-24.41-13.932c-1.08-.612-2.41.166-2.4 1.402z" fill="#FCFEFF"/><path d="M1235.08 77.737l5.15 2.938c1.07.612 2.41-.166 2.4-1.402l-.14-27.79c0-.572-.31-1.101-.81-1.381l-5.15-2.938c-1.07-.613-2.41.166-2.4 1.401l.14 27.791c0 .571.31 1.1.81 1.38z" fill="#FCFEFF"/><path d="M1271.56 202.417l1.22 3.55c.19.561.56 1.08.99 1.402l2.74 2.034c1.08.8 1.51 2.575.73 3.001l-1.99 1.069c-.31.166-.45.581-.37 1.121l.47 3.405c.18 1.339-.95 1.63-1.91.488l-2.45-2.896c-.39-.457-.84-.717-1.23-.706l-2.45.062c-.96.021-2.1-1.567-1.91-2.699l.47-2.865c.07-.447-.07-1.028-.37-1.558l-1.99-3.342c-.78-1.329-.35-2.596.73-2.16l2.74 1.122c.43.176.8.083.99-.25l1.22-2.138c.49-.851 1.88-.042 2.37 1.36zM1288.19 212.019l1.22 3.551c.19.56.56 1.079.99 1.401l2.74 2.035c1.08.799 1.51 2.575.73 3l-1.99 1.069c-.31.167-.45.582-.37 1.122l.47 3.405c.18 1.339-.95 1.63-1.91.488l-2.45-2.897c-.39-.457-.84-.716-1.23-.706l-2.45.063c-.96.02-2.09-1.568-1.91-2.7l.47-2.865c.07-.446-.07-1.028-.37-1.557l-1.99-3.364c-.78-1.328-.35-2.595.73-2.159l2.74 1.121c.43.177.8.083.99-.249l1.22-2.138c.49-.831 1.88-.021 2.37 1.38zM1304.82 221.622l1.22 3.551c.19.56.57 1.079.99 1.401l2.74 2.035c1.08.799 1.51 2.575.73 3l-1.98 1.069c-.32.167-.46.582-.38 1.122l.47 3.405c.19 1.339-.95 1.63-1.91.488l-2.45-2.897c-.39-.457-.84-.716-1.23-.706l-2.45.063c-.96.02-2.09-1.568-1.91-2.7l.47-2.865c.07-.446-.07-1.028-.37-1.557l-1.99-3.364c-.77-1.328-.35-2.595.73-2.159l2.74 1.121c.43.177.8.083.99-.249l1.22-2.138c.49-.831 1.88-.021 2.37 1.38zM1321.45 231.225l1.23 3.55c.18.561.56 1.08.98 1.402l2.74 2.035c1.08.799 1.51 2.574.73 3l-1.98 1.069c-.32.166-.46.581-.38 1.121l.47 3.405c.19 1.339-.95 1.63-1.91.488l-2.45-2.896c-.38-.457-.84-.716-1.23-.706l-2.45.062c-.96.021-2.09-1.567-1.91-2.699l.47-2.865c.07-.447-.07-1.028-.37-1.557l-1.99-3.364c-.77-1.329-.35-2.595.73-2.159l2.74 1.121c.43.176.8.083.99-.249l1.22-2.139c.49-.83 1.88-.021 2.37 1.381zM1338.08 240.828l1.23 3.55c.18.561.56 1.08.98 1.402l2.74 2.035c1.08.799 1.51 2.574.73 3l-1.98 1.069c-.31.166-.46.581-.38 1.121l.47 3.405c.19 1.339-.94 1.63-1.91.488l-2.45-2.896c-.38-.457-.84-.716-1.22-.706l-2.45.062c-.97.021-2.1-1.567-1.91-2.699l.46-2.865c.08-.447-.07-1.028-.37-1.557l-1.98-3.364c-.78-1.329-.36-2.595.72-2.159l2.74 1.121c.43.176.8.083.99-.249l1.22-2.139c.49-.83 1.88-.021 2.37 1.381z" fill="#F9B233"/></g><defs><filter id="filter0_d" x="-4" y="-2" width="1608" height="408" filterUnits="userSpaceOnUse" color-interpolation-filters="sRGB"><feFlood flood-opacity="0" result="BackgroundImageFix"/><feColorMatrix in="SourceAlpha" values="0 0 0 0 0 0 0 0 0 0 0 0 0 0 0 0 0 0 127 0"/><feOffset dy="2"/><feGaussianBlur stdDeviation="2"/><feColorMatrix values="0 0 0 0 0 0 0 0 0 0 0 0 0 0 0 0 0 0 0.08 0"/><feBlend in2="BackgroundImageFix" result="effect1_dropShadow"/><feBlend in="SourceGraphic" in2="effect1_dropShadow" result="shape"/></filter><clipPath id="clip0"><path fill="#fff" transform="translate(1157 28)" d="M0 0h254.509v304.319H0z"/></clipPath></defs></svg>