<svg width="375" height="156" fill="none" xmlns="http://www.w3.org/2000/svg" viewBox="0 0 375 156"><path d="M375 0H0v156h375V0z" fill="#F5FCFF"/><path d="M187.5 146.245c61.027 0 110.5-18.497 110.5-41.313 0-22.817-49.473-41.313-110.5-41.313S77 82.115 77 104.932c0 22.816 49.473 41.313 110.5 41.313z" fill="#004EBB"/><path d="M257.363 96.804l-69.681 34.844L118 96.804l69.682-34.854 69.681 34.854z" fill="#E2C8B4"/><path d="M257.363 102.814l-69.681 34.844v-6.01l69.681-34.843v6.009z" fill="#B99989"/><path d="M187.682 137.658L118 102.814v-6.01l69.682 34.844v6.01z" fill="#DAB5A1"/><path d="M253.016 99.124V38.216l4.347-2.29v60.91l-4.347 2.288z" fill="url(#paint0_linear)"/><path d="M118 96.752V35.855l4.347 2.236v60.908L118 96.754z" fill="url(#paint1_linear)"/><path d="M192.029 64.145L122.347 99V38.091l69.682-34.844v60.898z" fill="url(#paint2_linear)"/><path d="M253.016 38.216v60.908l-65.334-32.68V5.546l65.334 32.67z" fill="url(#paint3_linear)"/><path d="M192.029 3.247l-69.682 34.844L118 35.854 187.682 1l4.347 2.247z" fill="#8ACEE3"/><path d="M253.016 38.216L183.334 3.373l4.348-2.289 69.681 34.844-4.347 2.288z" fill="#8ACEE3"/><path opacity=".55" d="M139.862 96.502l-4.305 2.153-3.01.167 4.295-3.804 3.02 1.484zM189.542 71.47l-4.306 2.154-3.009.177 4.295-3.804 3.02 1.474zM210.024 90.137l-15.278 7.65-5.068.178-10.21-7.828 15.278-7.64 15.278 7.64zM161.535 113.891l5.246-2.612-6.907-3.46-4.901 3.46 5.246 2.612h1.316zM238.271 102.375l-8.799-4.4c-.919-.46-2.424-.46-3.344 0l-30.849 15.269-6.563-3.282c-1.086-.543-2.852-.543-3.939 0l-8.204 4.107c-1.086.544-1.086 1.422 0 1.965l8.235 4.118 7.169 3.585h6.594l6.876-3.439 32.824-16.251c.93-.47.93-1.213 0-1.672z" fill="#817F7F"/><path d="M245.534 65.085l-.899.45v-7.463l.899-.449v7.462z" fill="#6E4A4C"/><path d="M237.163 54.331l.899-.45 7.472 3.742-.899.45-7.472-3.742z" fill="#9B787A"/><path d="M244.635 65.534l-7.472-3.73V54.33l7.472 3.741v7.462z" fill="#865D5F"/><path d="M243.789 64.26l-5.779-2.885v-5.769l5.779 2.885v5.769z" fill="#fff"/><path d="M242.995 63.069l-4.181-2.09v-4.181l4.181 2.09v4.18z" fill="#E2AF75"/><path d="M242.995 60.978l-4.181-2.09v-2.09l4.181 2.09v2.09z" fill="#BBF5FE"/><path d="M242.995 61.751l-4.181-2.09v-.773l4.181 2.09v.773z" fill="#98A17E"/><path d="M242.995 62.525l-4.181-2.09v-.774l4.181 2.09v.774z" fill="#F7C17F"/><path d="M245.69 55.795l-.898.45v-7.473l.898-.45v7.473z" fill="#6E4A4C"/><path d="M237.331 45.04l.898-.45 7.462 3.732-.899.45-7.461-3.732z" fill="#9B787A"/><path d="M244.792 56.243l-7.462-3.74V45.04l7.462 3.731v7.472z" fill="#865D5F"/><path d="M243.945 54.969l-5.768-2.885v-5.78l5.768 2.896v5.769z" fill="#fff"/><path d="M243.151 53.777l-4.18-2.09v-4.18l4.18 2.09v4.18z" fill="#FFDBAF"/><path d="M243.151 51.687l-4.18-2.09v-2.09l4.18 2.09v2.09z" fill="#AFF5FF"/><path d="M243.151 52.46l-4.18-2.09v-.773l4.18 2.09v.773z" fill="#CCB7BD"/><path d="M243.151 53.223l-4.18-2.09v-.763l4.18 2.09v.763z" fill="bisque"/><path d="M238.971 47.507l.554 1.881.742.366.491.585 1.191.596s.356-.387.46-.335c.105.053.742.408.742.408v1.066l-4.18-2.09v-2.477z" fill="#CCB7BD"/><path d="M235.032 58.617l-.899.45V44.434l.899-.45v14.632z" fill="#6E4A4C"/><path d="M226.671 40.703l.899-.45 7.462 3.732-.899.45-7.462-3.732z" fill="#9B787A"/><path d="M234.133 59.066l-7.462-3.732v-14.63l7.462 3.73v14.632z" fill="#865D5F"/><path d="M233.297 57.8l-5.779-2.884V41.978l5.779 2.884V57.8z" fill="#fff"/><path d="M232.492 56.61l-4.18-2.09V43.17l4.18 2.09v11.35z" fill="#FFDBAF"/><path d="M232.492 54.52l-4.18-2.09v-9.26l4.18 2.09v9.26z" fill="#CCB393"/><path d="M230.862 45.062l-.648.658s-.617.366-.721.46c-.105.094.052 1.453.052 1.453s-.282.292-.094.616c.199.324.073 1.108 0 1.547-.073.439-.491 1.024-.648 1.202-.157.188-.501.961-.501.961V43.17l4.18 2.09s-.408.105-.46.105c-.052 0-.585.533-.585.533l-.586.156v-.992h.011z" fill="#AFF5FF"/><path d="M228.918 53.913l-.606-1.484 1.902-.502s-.021-.167 0-.428c.021-.251.648-.45.648-.45l.533.272s.261-.345.156-.857c-.104-.512-.261-.825-.209-1.264.053-.44 1.15-1.213 1.15-1.213v8.288l-3.574-2.362z" fill="#FFDBAF"/><path d="M228.761 54.739l1.453.397.188-.91s.784-.083.94-.22c.157-.135.418-.637.471-1.023.052-.397.668-1.672.668-1.672V55l-1.295.407.47.774-2.895-1.442z" fill="#77DAE9"/><path d="M171.85 74.198l-33.733 16.868V82.8l33.733-16.868v8.266z" fill="url(#paint4_linear)"/><path d="M186.532 41.247l-4.295 2.153-3.02-1.474 4.306-2.153 3.009 1.474z" fill="#727275"/><path d="M182.237 73.823l-3.02-1.473V41.927l3.02 1.473v30.423z" fill="url(#paint5_linear)"/><path d="M186.532 71.67l-4.295 2.153V43.4l4.295-2.153V71.67z" fill="url(#paint6_linear)"/><path d="M182.499 43.567l3.772-1.882v29.817l-3.772 1.892V43.567z" fill="url(#paint7_linear)"/><mask id="a" maskUnits="userSpaceOnUse" x="182" y="41" width="5" height="27"><path d="M186.532 65.723l-4.295 2.143V43.4l4.295-2.153v24.476z" fill="url(#paint8_linear)"/></mask><g mask="url(#a)"><path d="M186.532 65.723l-4.295 2.143V43.4l4.295-2.153v24.476z" fill="url(#paint9_linear)"/><path d="M186.146 45.459c0 .95-.763 2.1-1.714 2.57-.951.47-1.714.095-1.714-.856 0-.952.774-2.101 1.714-2.571.951-.47 1.714-.094 1.714.857z" fill="#8A8995"/><path d="M185.854 45.606c0 .783-.637 1.734-1.421 2.121s-1.421.073-1.421-.71c0-.784.637-1.735 1.421-2.122.784-.387 1.421-.063 1.421.71z" fill="#5E5D65"/><path d="M185.613 45.73c0 .659-.533 1.453-1.181 1.777-.648.324-1.181.063-1.181-.595 0-.659.533-1.453 1.181-1.777.648-.324 1.181-.063 1.181.596z" fill="#DEDCDE"/><path d="M184.986 47.09a2.352 2.352 0 0 1-.554.417 1.218 1.218 0 0 1-.533.136V46.41l.533-.25.554.93z" fill="#F3F1F2"/><path d="M184.589 45.96c0 .22-.178.48-.397.596-.22.104-.398.02-.398-.199 0-.22.178-.48.398-.596.219-.104.397-.02.397.2z" fill="#5E5D65"/><path d="M186.146 50.727c0 .95-.762 2.1-1.713 2.57-.951.471-1.714.095-1.714-.856s.773-2.1 1.714-2.571c.951-.48 1.713-.094 1.713.857z" fill="#8A8995"/><path d="M185.306 52.271c.618-.792.728-1.739.246-2.115-.482-.377-1.374-.04-1.992.752-.618.791-.728 1.738-.246 2.115.482.376 1.374.04 1.992-.752z" fill="#5E5D65"/><path d="M185.613 50.987c0 .45-.251.972-.627 1.36a2.326 2.326 0 0 1-.554.417 1.218 1.218 0 0 1-.533.136c-.386 0-.648-.272-.648-.731 0-.648.533-1.453 1.181-1.777.659-.324 1.181-.052 1.181.595z" fill="#DEDCDE"/><path d="M184.986 52.346a2.326 2.326 0 0 1-.554.419 1.218 1.218 0 0 1-.533.135v-1.222l.533-.251.554.92z" fill="#F3F1F2"/><path d="M184.589 51.227c0 .22-.178.481-.397.596-.219.105-.397.021-.397-.199 0-.219.178-.48.397-.595.219-.115.397-.021.397.198z" fill="#5E5D65"/><path d="M185.613 55.742c0 .659-.533 1.453-1.181 1.777-.659.324-1.181.063-1.181-.596 0-.658.533-1.452 1.181-1.776.648-.324 1.181-.053 1.181.595z" fill="#7D7A86"/><path d="M185.414 55.847c0 .544-.438 1.192-.971 1.464-.544.271-.972.052-.972-.492 0-.543.439-1.191.972-1.463.533-.261.971-.042.971.491z" fill="#5E5D65"/><path d="M185.247 55.932c0 .45-.365 1.003-.815 1.222-.449.22-.815.042-.815-.407 0-.45.366-1.003.815-1.223.45-.23.815-.042.815.408z" fill="#000"/><path d="M183.053 49.556a.268.268 0 0 1-.147.22c-.083.041-.146.01-.146-.074 0-.084.063-.178.146-.22.074-.042.147-.01.147.074zM186.031 48.062a.268.268 0 0 1-.147.22c-.083.042-.146.01-.146-.074 0-.084.063-.178.146-.22.084-.042.147 0 .147.074zM183.053 54.99a.268.268 0 0 1-.147.22c-.083.042-.146.01-.146-.073 0-.084.063-.178.146-.22.074-.042.147-.01.147.073zM186.031 53.507a.268.268 0 0 1-.147.22c-.083.041-.146.01-.146-.074 0-.084.063-.178.146-.22.084-.052.147-.01.147.074zM183.053 44.466a.268.268 0 0 1-.147.22c-.083.042-.146.01-.146-.074 0-.083.063-.178.146-.22.074-.041.147-.01.147.074zM186.031 42.972a.268.268 0 0 1-.147.22c-.083.041-.146.01-.146-.074 0-.084.063-.178.146-.22.084-.042.147-.01.147.074z" fill="#45434B"/></g><path d="M204.82 88.809l-15.278 7.64-15.289-7.64 15.289-7.64 15.278 7.64z" fill="#F0D2B6"/><path d="M189.542 98.183v-1.735l15.278-7.64v1.725l-13.178 6.595-2.1 1.055z" fill="#B99989"/><path d="M174.253 90.533v-1.724l15.289 7.64v1.734l-15.289-7.65z" fill="#DAB5A1"/><path d="M176.793 88.903l-1.265.638v-6.982l1.265-.637v6.981z" fill="#B99989"/><path d="M175.528 89.54l-1.275-.637v-6.981l1.275.637v6.982z" fill="#DAB5A1"/><path d="M204.82 88.84l-1.265.637v-6.981l1.265-.638v6.982z" fill="#B99989"/><path d="M203.555 89.477l-1.274-.637v-6.982l1.274.638v6.981z" fill="#DAB5A1"/><path d="M190.806 95.821l-1.264.627v-6.97l1.264-.638v6.981z" fill="#B99989"/><path d="M189.542 96.448l-1.275-.627V88.84l1.275.637v6.971z" fill="#DAB5A1"/><path d="M204.821 80.302l-15.279 7.64-15.288-7.64 15.288-7.64 15.279 7.64z" fill="#FFF6EE"/><path d="M189.542 89.676v-1.734l15.278-7.64v1.724l-15.278 7.65z" fill="#B99989"/><path d="M174.253 82.026v-1.724l15.289 7.64v1.734l-15.289-7.65z" fill="#DAB5A1"/><path d="M191.109 80.689l-6.207-3.115v-.313l6.207 3.114v.314z" fill="#FFCA53"/><path d="M191.109 80.375l4.201-2.1v.313l-4.201 2.1v-.313z" fill="#FFEBBB"/><path d="M191.109 80.375l-6.207-3.114 4.19-2.1 6.218 3.114-4.201 2.1z" fill="url(#paint10_linear)"/><path d="M187.284 76.905c-.01.23.366.44.836.429.126 0 .241.01.335.042.386.135.209.49.815.271.606-.22.501-.272.784-.292.459-.032 1.525 0 1.369.156-.157.157-.492.272-1.578.45-1.087.177-1.599.157-1.014.428.585.272.805.711.627.795-.345.167-1.129-.23-1.129-.23l-2.884-1.443-.533-.271s.773.041 1.171-.199c.407-.24.93-.596 1.128-.48.052.052.073.188.073.344z" fill="#77DAE9"/><path d="M191.109 80.375s-1.202-.565-.731-.983c.48-.407.052-.627.041-.68 0-.02-.02-.114-.052-.219-.042-.188.335-.344.7-.271l.241.041s-.481.283.042.398c.522.115 1.16-.168 1.107-.544-.052-.376.22-.46.376-.397.095.042.074.355.053.606-.021.23.439.408.867.324.146-.031.293-.083.418-.157.188-.114.073-.282-.115-.438-.146-.126.063-.272.355-.251l.899.45-4.201 2.12zM188.685 75.766c-.283.053-.418.094-.157.251s.585.44.397.502c-.188.063-.617.23-.251.397s.909.314 1.38.167c.48-.146.836-.313 1.118-.22.282.095.543.46.721.544.627.314.94.042 1.149-.01.209-.053.941.209.941.209l-4.891-2.446s.355.408.167.48c-.188.064-.334-.114-.407-.062-.084.052-.167.188-.167.188z" fill="#826FBD"/><path d="M188.518 76.236c-.335-.115-.638.021-.513.115.126.094.251.314.408.21.167-.116.105-.325.105-.325zM193.314 78.024c-.083-.021-.292.25-.083.355.198.104.668.104.689.031.021-.083-.115-.177-.24-.282-.125-.094-.366-.104-.366-.104zM190.336 78.943c.094.115.136.24-.084.282-.219.042-.365.189-.282.24.084.053-.407.084-.46-.04-.052-.116.283-.2.45-.293.167-.095-.209-.304-.073-.408.146-.105.449.22.449.22z" fill="#E67779"/><path d="M189.698 75.463s.199.303.032.366c-.157.073-.376.24-.188.366.177.125.48.271.689.26.22-.01.565.084.753.147.178.073.324.094.512.23s.282.314.554.314c.271 0 .961-.042.961-.042l-3.313-1.641z" fill="#7464A8"/><path d="M187.044 77.407c.324.157.293.324.522.48.23.147.314.502.753.586.428.094.104.543.104.543l-3.302-1.651s.585.063.794.063c.22.02.795-.168 1.129-.021z" fill="#48C3D5"/><path opacity=".55" d="M237.142 98.842l4.348-2.174-5.727-2.863-4.065 2.863 4.347 2.174h1.097z" fill="#817F7F"/><path d="M240.11 96.01l-4.347 2.163-4.337-2.163 4.337-2.174 4.347 2.174z" fill="#9B787A"/><path d="M235.763 98.905v-.732l4.347-2.163v.72l-4.347 2.175z" fill="#6E4A4C"/><path d="M231.426 96.73v-.72l4.337 2.163v.732l-4.337-2.174z" fill="#865D5F"/><path d="M236.212 95.79c.241.126.241.324 0 .44-.24.125-.637.125-.888 0-.24-.126-.24-.325 0-.44.24-.125.638-.125.888 0z" fill="#6E4A4C"/><path d="M236.39 91.662h-1.254v4.348h1.254v-4.348z" fill="#6E4A4C"/><path d="M236.39 91.662h-1.254v4.348h1.254v-4.348z" fill="url(#paint11_linear)"/><path d="M235.763 93.335l-4.337-2.174V72.777l4.337 2.174v18.384z" fill="#fff"/><mask id="b" maskUnits="userSpaceOnUse" x="231" y="79" width="5" height="8"><path d="M235.492 84.002c0 1.954-.847 3.114-1.902 2.592-1.045-.523-1.902-2.53-1.902-4.494 0-1.954.846-3.114 1.902-2.592 1.055.533 1.902 2.54 1.902 4.494z" fill="url(#paint12_radial)"/></mask><g mask="url(#b)"><path d="M235.492 84.002c0 1.954-.847 3.114-1.902 2.592-1.045-.523-1.902-2.53-1.902-4.494 0-1.954.846-3.114 1.902-2.592 1.055.533 1.902 2.54 1.902 4.494z" fill="url(#paint13_radial)"/></g><path d="M240.11 91.16l-4.347 2.175V74.95l4.347-2.174v18.384z" fill="#FFF5EB"/><mask id="c" maskUnits="userSpaceOnUse" x="236" y="79" width="4" height="8"><path d="M239.839 82.11c0 1.954-.847 3.96-1.902 4.494-1.045.522-1.902-.638-1.902-2.592 0-1.955.846-3.961 1.902-4.494 1.045-.523 1.902.637 1.902 2.592z" fill="url(#paint14_radial)"/></mask><g mask="url(#c)"><path d="M239.839 82.11c0 1.954-.847 3.96-1.902 4.494-1.045.522-1.902-.638-1.902-2.592 0-1.955.846-3.961 1.902-4.494 1.045-.523 1.902.637 1.902 2.592z" fill="url(#paint15_radial)"/></g><path d="M240.11 72.778l-4.347 2.173-4.337-2.173 4.337-2.164 4.347 2.164z" fill="#fff"/><path d="M235.763 74.951l-4.337-2.173 4.337-2.164v4.337z" fill="#FFF5EB"/><g opacity=".5"><path opacity=".5" d="M235.763 76.32l-4.337-2.174v-.564l4.337 2.174v.564z" fill="#FFF5EB"/><path opacity=".5" d="M240.11 74.146l-4.347 2.174v-.564l4.347-2.174v.564z" fill="#F0D2B6"/></g><g opacity=".5"><path opacity=".5" d="M235.763 77.356l-4.337-2.164v-.564l4.337 2.174v.554z" fill="#FFF5EB"/><path opacity=".5" d="M240.11 75.192l-4.347 2.164v-.554l4.347-2.174v.564z" fill="#F0D2B6"/></g><g opacity=".5"><path opacity=".5" d="M235.763 78.4l-4.337-2.174v-.564l4.337 2.174v.564z" fill="#FFF5EB"/><path opacity=".5" d="M240.11 76.227l-4.347 2.173v-.564l4.347-2.174v.564z" fill="#F0D2B6"/></g><g opacity=".5"><path opacity=".5" d="M235.763 79.435l-4.337-2.164v-.564l4.337 2.174v.554z" fill="#FFF5EB"/><path opacity=".5" d="M240.11 77.271l-4.347 2.164v-.554l4.347-2.174v.564z" fill="#F0D2B6"/></g><g opacity=".5"><path opacity=".5" d="M235.763 80.48l-4.337-2.174v-.554l4.337 2.163v.565z" fill="#FFF5EB"/><path opacity=".5" d="M240.11 78.306l-4.347 2.174v-.565l4.347-2.163v.554z" fill="#F0D2B6"/></g><g opacity=".5"><path opacity=".5" d="M235.763 81.525l-4.337-2.174v-.564l4.337 2.174v.564z" fill="#FFF5EB"/><path opacity=".5" d="M240.11 79.352l-4.347 2.173v-.564l4.347-2.174v.564z" fill="#F0D2B6"/></g><g opacity=".5"><path opacity=".5" d="M235.763 82.56l-4.337-2.174v-.554l4.337 2.163v.565z" fill="#FFF5EB"/><path opacity=".5" d="M240.11 80.386l-4.347 2.174v-.565l4.347-2.163v.554z" fill="#F0D2B6"/></g><g opacity=".5"><path opacity=".5" d="M235.763 83.605l-4.337-2.174v-.564l4.337 2.174v.564z" fill="#FFF5EB"/><path opacity=".5" d="M240.11 81.431l-4.347 2.174v-.564l4.347-2.174v.564z" fill="#F0D2B6"/></g><g opacity=".5"><path opacity=".5" d="M235.763 84.64l-4.337-2.174v-.554l4.337 2.163v.565z" fill="#FFF5EB"/><path opacity=".5" d="M240.11 82.466l-4.347 2.174v-.564l4.347-2.164v.554z" fill="#F0D2B6"/></g><g opacity=".5"><path opacity=".5" d="M235.763 85.684l-4.337-2.173v-.565l4.337 2.174v.564z" fill="#FFF5EB"/><path opacity=".5" d="M240.11 83.51l-4.347 2.174v-.564l4.347-2.174v.565z" fill="#F0D2B6"/></g><g opacity=".5"><path opacity=".5" d="M235.763 86.719l-4.337-2.174v-.554l4.337 2.174v.554z" fill="#FFF5EB"/><path opacity=".5" d="M240.11 84.545l-4.347 2.174v-.554l4.347-2.174v.554z" fill="#F0D2B6"/></g><g opacity=".5"><path opacity=".5" d="M235.763 87.764l-4.337-2.173v-.565l4.337 2.174v.564z" fill="#FFF5EB"/><path opacity=".5" d="M240.11 85.59l-4.347 2.174V87.2l4.347-2.174v.565z" fill="#F0D2B6"/></g><g opacity=".5"><path opacity=".5" d="M235.763 88.799l-4.337-2.163v-.565l4.337 2.174v.554z" fill="#FFF5EB"/><path opacity=".5" d="M240.11 86.636l-4.347 2.163v-.554l4.347-2.174v.565z" fill="#F0D2B6"/></g><g opacity=".5"><path opacity=".5" d="M235.763 89.844l-4.337-2.174v-.564l4.337 2.173v.565z" fill="#FFF5EB"/><path opacity=".5" d="M240.11 87.67l-4.347 2.174v-.565l4.347-2.173v.564z" fill="#F0D2B6"/></g><g opacity=".5"><path opacity=".5" d="M235.763 90.88l-4.337-2.164v-.565l4.337 2.174v.554z" fill="#FFF5EB"/><path opacity=".5" d="M240.11 88.716l-4.347 2.163v-.554l4.347-2.174v.565z" fill="#F0D2B6"/></g><g opacity=".5"><path opacity=".5" d="M235.763 91.924l-4.337-2.174v-.554l4.337 2.164v.564z" fill="#FFF5EB"/><path opacity=".5" d="M240.11 89.75l-4.347 2.174v-.564l4.347-2.164v.554z" fill="#F0D2B6"/></g><g opacity=".5"><path opacity=".5" d="M235.763 92.958l-4.337-2.163v-.564l4.337 2.173v.554z" fill="#FFF5EB"/><path opacity=".5" d="M240.11 90.795l-4.347 2.163v-.554l4.347-2.173v.564z" fill="#F0D2B6"/></g><path d="M235.763 70.907l3.741 1.87-3.741 1.871-3.741-1.87 3.741-1.871zm0-.293l-4.337 2.174 4.337 2.174 4.337-2.174-4.337-2.174z" fill="#FFFFFD"/><path d="M178.224 60.821L144.491 77.69l-6.374-3.187 33.733-16.868 6.374 3.187z" fill="#FFF6EE"/><path opacity=".55" d="M178.245 77.397l-33.733 16.867-6.374-3.187 33.733-16.868 6.374 3.188z" fill="#817F7F"/><path d="M144.491 85.967l-6.374-3.198v-8.267l6.374 3.188v8.277z" fill="#DAB5A1"/><path d="M178.224 69.088l-33.733 16.878V77.69l33.733-16.868v8.267z" fill="#B99989"/><path d="M178.224 63.842L144.491 80.71v-.303l33.733-16.868v.303z" fill="#AA8E7E"/><path d="M178.224 63.538l-33.733 16.868v-.303l33.733-16.868v.303z" fill="#C9A792"/><path d="M178.224 66.674l-33.733 16.879v-.303l33.733-16.879v.303z" fill="#AA8E7E"/><path d="M178.224 66.37L144.491 83.25v-.303l33.733-16.879v.304z" fill="#C9A792"/><path d="M161.567 77.428l-.408.198V69.36l.408-.209v8.278z" fill="#AA8E7E"/><path d="M171.662 46.086l-32.709 16.367V43.526l32.709-16.356v18.916z" fill="#515154"/><path d="M140.082 60.75V44.09l30.441-15.227v16.66l-30.441 15.226z" fill="url(#paint16_linear)"/><mask id="d" maskUnits="userSpaceOnUse" x="138" y="27" width="34" height="36"><path d="M138.953 62.453V43.526l32.709-16.356-32.709 35.282z" fill="url(#paint17_linear)"/></mask><g mask="url(#d)"><path d="M138.953 62.453V43.526l32.709-16.356-32.709 35.282z" fill="url(#paint18_linear)"/></g><path d="M170.742 26.741l-32.709 16.356.92.428 32.709-16.355-.92-.429z" fill="#6E6E70"/><path d="M138.953 62.452V43.525l-.92-.428v18.916l.92.439z" fill="#59595C"/><path d="M164.932 66.392l-7.723 3.867-1.16-.052 4.065-6.219 4.818 2.404z" fill="#E7C2AB"/><path d="M163.782 65.326l-7.733 3.857-4.807-2.404 7.723-3.867 4.817 2.414z" fill="#6E6E70"/><path d="M163.782 66.34l-7.733 3.867v-1.024l7.733-3.857v1.014z" fill="#515154"/><path d="M163.782 65.944l-7.733 3.856v-.209l7.733-3.866v.22z" fill="#1B1B1C"/><path d="M157.282 69.444l-.658.324v-.146l.658-.324v.146zM158.098 69.036l-.659.324v-.146l.659-.324v.146z" fill="#6E6E70"/><path d="M156.416 69.799c0 .042-.032.083-.074.104-.042.021-.073 0-.073-.031 0-.042.031-.084.073-.105.042-.02.074-.01.074.032z" fill="#A35B4D"/><path d="M156.049 70.207l-4.807-2.414v-1.014l4.807 2.404v1.024z" fill="#59595C"/><path d="M155.809 69.873l-.104-.052v-.606l.104.052v.606zM155.579 69.769l-.094-.053v-.606l.094.053v.606zM155.36 69.653l-.094-.052v-.606l.094.052v.606zM155.14 69.549l-.094-.052v-.606l.094.052v.606zM154.92 69.434l-.104-.052v-.607l.104.053v.606z" fill="#1B1B1C"/><path d="M220.192 71.795L195.31 59.348V18.004l24.882 12.447v41.344z" fill="#fff"/><path d="M218.719 69.788l-21.935-10.974V20.01l21.935 10.973v38.805z" fill="url(#paint19_linear)"/><path d="M220.924 71.43l-.732.365V30.45l.732-.366v41.344z" fill="#EBEBEB"/><path d="M195.311 18.003l.731-.365 24.882 12.447-.732.366-24.881-12.448z" fill="#fff"/><path d="M218.719 69.788l-21.935-10.973 1.515-.763 20.42 10.22v1.516z" fill="#EBEBEB"/><path d="M208.112 64.49V25.695l1.515.753v37.289l-1.515.753zM196.784 58.814V20.01l1.515.763V58.05l-1.515.763z" fill="#EBEBEB"/><path d="M206.596 63.737V24.933l1.516.762V64.49l-1.516-.753z" fill="#fff"/><path d="M136.852 66.246l-4.295 2.153-3.02-1.474 4.306-2.153 3.009 1.474z" fill="#727275"/><path d="M132.557 98.822l-3.02-1.473V66.926l3.02 1.473v30.423z" fill="url(#paint20_linear)"/><path d="M136.852 96.669l-4.295 2.153V68.399l4.295-2.153V96.67z" fill="url(#paint21_linear)"/><path d="M132.818 68.566l3.762-1.881V96.5l-3.762 1.881V68.566z" fill="url(#paint22_linear)"/><mask id="e" maskUnits="userSpaceOnUse" x="132" y="66" width="5" height="27"><path d="M136.852 90.722l-4.295 2.143V68.399l4.295-2.153v24.476z" fill="url(#paint23_linear)"/></mask><g mask="url(#e)"><path d="M136.852 90.722l-4.295 2.143V68.399l4.295-2.153v24.476z" fill="url(#paint24_linear)"/><path d="M136.466 70.458c0 .95-.763 2.1-1.714 2.57-.951.47-1.714.095-1.714-.856s.763-2.101 1.714-2.571c.951-.47 1.714-.094 1.714.857z" fill="#8A8995"/><path d="M136.174 70.605c0 .783-.637 1.734-1.421 2.121s-1.421.073-1.421-.71c0-.784.637-1.735 1.421-2.122.784-.387 1.421-.073 1.421.71z" fill="#5E5D65"/><path d="M135.474 71.886c.515-.66.608-1.448.208-1.76-.401-.313-1.143-.032-1.658.628-.515.66-.608 1.448-.207 1.76.4.313 1.142.031 1.657-.628z" fill="#DEDCDE"/><path d="M135.306 72.088a2.326 2.326 0 0 1-.554.418 1.218 1.218 0 0 1-.533.136v-1.223l.533-.251.554.92z" fill="#F3F1F2"/><path d="M134.909 70.96c0 .219-.178.48-.397.595-.22.104-.397.02-.397-.199 0-.22.177-.48.397-.595.219-.105.397-.021.397.198z" fill="#5E5D65"/><path d="M136.466 75.725c0 .951-.763 2.1-1.714 2.57-.951.471-1.714.095-1.714-.856s.763-2.1 1.714-2.571c.951-.48 1.714-.094 1.714.857z" fill="#8A8995"/><path d="M136.174 75.872c0 .784-.637 1.735-1.421 2.122-.784.386-1.421.073-1.421-.711 0-.784.637-1.735 1.421-2.121.784-.387 1.421-.074 1.421.71z" fill="#5E5D65"/><path d="M135.933 75.987c0 .449-.251.972-.627 1.358a2.328 2.328 0 0 1-.554.418 1.217 1.217 0 0 1-.533.136c-.386 0-.648-.272-.648-.731 0-.649.533-1.453 1.181-1.777.659-.324 1.181-.052 1.181.596z" fill="#DEDCDE"/><path d="M135.306 77.344a2.328 2.328 0 0 1-.554.419 1.217 1.217 0 0 1-.533.135v-1.222l.533-.251.554.92z" fill="#F3F1F2"/><path d="M134.909 76.226c0 .22-.178.481-.397.596-.22.105-.397.021-.397-.198 0-.22.177-.481.397-.596.219-.115.397-.021.397.198z" fill="#5E5D65"/><path d="M135.933 80.742c0 .658-.533 1.452-1.181 1.776-.659.324-1.181.063-1.181-.595 0-.659.533-1.453 1.181-1.777.658-.314 1.181-.052 1.181.596z" fill="#7D7A86"/><path d="M135.734 80.846c0 .544-.439 1.192-.972 1.464-.543.271-.971.052-.971-.492 0-.543.438-1.191.971-1.463.533-.261.972-.042.972.491z" fill="#5E5D65"/><path d="M135.568 80.93c0 .45-.366 1.004-.815 1.224-.45.23-.815.041-.815-.408 0-.45.365-1.003.815-1.223.449-.23.815-.042.815.408z" fill="#000"/><path d="M133.363 74.556a.268.268 0 0 1-.147.22c-.084.041-.147.01-.147-.074 0-.084.063-.178.147-.22.084-.042.147-.01.147.074zM136.351 73.06a.267.267 0 0 1-.146.22c-.084.043-.147.011-.147-.073 0-.083.063-.178.147-.22.073-.041.146 0 .146.074zM133.363 79.99a.268.268 0 0 1-.147.22c-.084.041-.147.01-.147-.074 0-.084.063-.178.147-.22.084-.042.147-.01.147.073zM136.351 78.506a.267.267 0 0 1-.146.22c-.084.041-.147.01-.147-.074 0-.084.063-.178.147-.22.073-.052.146-.01.146.074zM133.363 69.465a.268.268 0 0 1-.147.22c-.084.042-.147.01-.147-.073 0-.084.063-.179.147-.22.084-.042.147-.011.147.073zM136.351 67.97a.267.267 0 0 1-.146.22c-.084.043-.147.011-.147-.073 0-.084.063-.178.147-.22.073-.041.146-.01.146.074z" fill="#45434B"/></g><path d="M233.443 102.824v-9.657L214.58 86.75v9.563c0 .156.115.303.345.418l14.547 7.211.282.146c.46.23 1.212.23 1.672 0l1.672-.836c.219-.125.345-.272.345-.428z" fill="#CF3A27"/><path d="M231.426 93.7v10.378c-.46.23-1.212.23-1.672 0l-.282-.147V93.689h1.954v.01z" fill="#D6463A"/><path d="M233.088 93.585l-1.672.836c-.46.23-1.213.23-1.673 0l-14.828-7.347c-.46-.23-.46-.606 0-.836l1.672-.836c.46-.23 1.212-.23 1.672 0l14.829 7.347c.47.23.47.606 0 .836z" fill="#FF8884"/><path d="M193.533 119.933l.293-.147 8.203-4.107 24.84-12.426c.92-.46.92-1.212 0-1.672l-8.799-4.4c-.919-.46-2.424-.46-3.344 0l-22.875 11.444-6.563-3.282c-1.087-.543-2.853-.543-3.939 0l-8.204 4.107c-1.087.544-1.087 1.422 0 1.965l8.235 4.118 8.496 4.253.293.147c.94.46 2.434.46 3.364 0z" fill="#EB5E57"/><path d="M180.816 106.932h-8.475v3.563h8.475v-3.563zM227.56 98.904h-8.476v3.564h8.476v-3.564z" fill="#EB5E57"/><path d="M193.533 116.421l.293-.146 8.203-4.108 24.84-12.426c.92-.46.92-1.212 0-1.672l-8.799-4.4c-.919-.46-2.424-.46-3.344 0l-22.875 11.444-6.563-3.282c-1.087-.543-2.853-.543-3.939 0l-8.204 4.108c-1.087.543-1.087 1.421 0 1.964l8.235 4.118 8.496 4.254.293.146c.94.47 2.434.47 3.364 0z" fill="#FF6C61"/><path d="M226.891 99.354l-8.799 4.4c-.92.46-2.425.46-3.344 0l-8.799-4.4c-.92-.46-.92-1.212 0-1.672l8.799-4.4c.919-.46 2.424-.46 3.344 0l8.799 4.4c.919.46.919 1.213 0 1.672z" fill="#FF6459"/><path d="M223.944 95.059h-18.685v3.344h18.685v-3.344z" fill="#FF6459"/><path d="M227.591 95.059h-5.33v3.344h5.33v-3.344z" fill="#FF6459"/><path d="M226.891 95.874l-8.799 4.4c-.92.46-2.425.46-3.344 0l-8.799-4.4c-.92-.46-.92-1.212 0-1.672l8.799-4.4c.919-.46 2.424-.46 3.344 0l8.799 4.4c.919.46.919 1.212 0 1.672z" fill="#FF6D63"/><path d="M211.038 94.85c.23.115.23.303 0 .418-.23.115-.606.115-.836 0-.23-.115-.23-.303 0-.418.23-.115.606-.115.836 0zM216.88 91.934c.229.115.229.303 0 .418-.23.115-.607.115-.836 0-.23-.115-.23-.303 0-.418.229-.115.606-.115.836 0zM216.838 97.745c.23.115.23.303 0 .418-.23.115-.606.115-.836 0-.23-.114-.23-.303 0-.418.23-.115.606-.115.836 0zM222.679 94.83c.23.114.23.302 0 .417-.23.115-.606.115-.836 0-.23-.115-.23-.303 0-.418.23-.115.596-.115.836 0zM216.859 94.84c.229.114.229.302 0 .417-.23.115-.607.115-.836 0-.23-.115-.23-.303 0-.418.229-.115.606-.115.836 0z" fill="#EB5E57"/><path d="M214.434 105.5l-8.799 4.4c-.919.46-2.424.46-3.344 0l-8.799-4.4c-.919-.46-.919-1.212 0-1.672l8.799-4.4c.92-.46 2.425-.46 3.344 0l8.799 4.4c.93.46.93 1.202 0 1.672z" fill="#FF6459"/><path d="M211.487 101.204h-18.685v3.344h18.685v-3.344z" fill="#FF6459"/><path d="M215.134 101.204h-5.329v3.344h5.329v-3.344z" fill="#FF6459"/><path d="M214.434 102.019l-8.799 4.4c-.919.46-2.424.46-3.344 0l-8.799-4.4c-.919-.459-.919-1.212 0-1.672l8.799-4.4c.92-.46 2.425-.46 3.344 0l8.799 4.4c.93.46.93 1.213 0 1.672z" fill="#FF6D63"/><path d="M198.592 100.995c.23.115.23.304 0 .418-.23.115-.606.115-.836 0-.23-.114-.23-.303 0-.418a.979.979 0 0 1 .836 0zM204.423 98.069c.23.115.23.303 0 .418-.23.115-.606.115-.836 0-.23-.115-.23-.303 0-.418.23-.115.606-.115.836 0zM204.381 103.891c.23.115.23.303 0 .418-.23.115-.606.115-.836 0-.23-.115-.23-.303 0-.418.23-.115.606-.115.836 0zM210.223 100.975c.23.115.23.303 0 .418-.23.115-.606.115-.836 0-.23-.115-.23-.303 0-.418.23-.115.606-.115.836 0zM204.402 100.985c.23.115.23.303 0 .418-.23.115-.606.115-.836 0-.23-.115-.23-.303 0-.418.23-.115.606-.115.836 0z" fill="#EB5E57"/><path d="M189.886 115.94l-16.741-8.372c-1.087-.543-1.087-1.421 0-1.964l8.204-4.108c1.086-.543 2.852-.543 3.939 0l16.741 8.372c1.087.543 1.087 1.421 0 1.965l-8.203 4.107c-1.087.543-2.853.543-3.94 0z" fill="#FF6459"/><path d="M175.758 103.514h-3.418v3.072h3.418v-3.072zM202.845 107.694h-3.418v3.073h3.418v-3.073z" fill="#FF6459"/><path d="M189.886 112.752l-16.741-8.371c-1.087-.543-1.087-1.421 0-1.965l8.204-4.107c1.086-.543 2.852-.543 3.939 0l16.741 8.371c1.087.544 1.087 1.422 0 1.965l-8.203 4.107c-1.087.544-2.853.544-3.94 0z" fill="#FF6D63"/><path d="M192.635 110.547c.23.115.23.303 0 .418-.23.115-.606.115-.836 0-.23-.115-.23-.303 0-.418.23-.115.606-.115.836 0zM198.466 107.631c.23.115.23.303 0 .418-.23.115-.606.115-.836 0-.23-.115-.23-.303 0-.418.23-.115.606-.115.836 0zM185.089 106.775c.23.115.23.303 0 .418a1.056 1.056 0 0 1-.836 0c-.229-.115-.229-.303 0-.418.23-.115.607-.115.836 0zM190.931 103.859c.23.115.23.303 0 .418-.23.115-.606.115-.836 0-.23-.115-.23-.303 0-.418.23-.115.606-.115.836 0zM177.127 103.503c.329 0 .596-.131.596-.292 0-.162-.267-.293-.596-.293-.329 0-.596.131-.596.293 0 .161.267.292.596.292zM183.387 100.085c.23.115.23.303 0 .418-.23.115-.606.115-.836 0-.23-.115-.23-.303 0-.418.23-.115.606-.115.836 0zM184.233 103.43c.23.115.23.303 0 .418-.23.115-.606.115-.836 0-.23-.115-.23-.303 0-.418.23-.115.606-.115.836 0zM191.778 107.202c.23.115.23.304 0 .418-.23.115-.606.115-.836 0-.23-.114-.23-.303 0-.418.23-.115.606-.115.836 0z" fill="#EB5E57"/><path d="M220.527 87.032s-1.766.627-3.093 2.111c-1.328 1.484-2.216 3.02-2.425 3.292-.198.272.136.47.564.67.429.198 2.352 2.016 2.623 2.35.272.335 8.423-4.211 8.423-4.211s-1.724-1.484-3.051-2.466c-1.317-.983-3.041-1.746-3.041-1.746z" fill="url(#paint25_linear)"/><path d="M184.735 107.913s-.032-2.027-.241-2.832c-.209-.805 2.049-.136 4.787.899 2.999 1.129 4.399 2.236 4.399 2.236l.408 3.972-9.353-4.275z" fill="url(#paint26_linear)"/><path d="M231.259 103.984V89.833l-39.042 16.763v14.151c0 .157.115.303.345.418l1.672.836a.303.303 0 0 0 .104.042c.439.178 1.077.178 1.505-.01.021-.011.053-.021.073-.032l35.008-17.516c.272-.136.387-.324.335-.501z" fill="#CF3A27"/><path d="M195.833 107.705v14.328c-.429.188-3.188-.972-3.626-1.16v-14.339l3.626 1.171z" fill="#F45748"/><path d="M194.234 107.851l-1.672-.836c-.459-.23-.459-.607 0-.836l35.008-17.516c.46-.23 1.213-.23 1.672 0l1.673.836c.459.23.459.606 0 .836l-35.009 17.516c-.459.23-1.212.23-1.672 0z" fill="#FF8E89"/><path d="M195.331 112.648v9.657c0 .157-.115.303-.345.418l-1.672.836c-.271.136-.627.188-.971.167a1.862 1.862 0 0 1-.701-.167l-.282-.146-21.59-10.817c-.23-.115-.345-.272-.345-.418v-9.563l24.297 9.406 1.609.627z" fill="#CF3A27"/><mask id="f" maskUnits="userSpaceOnUse" x="192" y="112" width="4" height="12"><path d="M195.331 112.648v9.657c0 .157-.115.303-.345.418l-1.672.836c-.271.136-.627.188-.971.167v-11.715h1.379l1.609.637z" fill="url(#paint27_linear)"/></mask><g mask="url(#f)"><path d="M195.331 112.648v9.657c0 .157-.115.303-.345.418l-1.672.836c-.271.136-.627.188-.971.167v-11.715h1.379l1.609.637z" fill="#CF3A27"/><path d="M194.986 113.066l-1.672.836c-.459.23-1.212.23-1.672 0l-21.872-10.963c-.46-.23-.46-.606 0-.836l1.672-.836c.46-.23 1.212-.23 1.672 0l21.872 10.963c.46.23.46.606 0 .836z" fill="#FF8884"/></g><path d="M164.43 111.707l-4.514 2.257-4.515-2.257 4.515-2.258 4.514 2.258z" fill="#B99989"/><path d="M165.642 104.82l-5.726 2.863-5.727-2.863 5.727-2.864 5.726 2.864z" fill="#FFF6EE"/><path d="M155.401 104.82l4.515-2.258 4.514 2.258-4.514 2.257-4.515-2.257z" fill="#9B6944"/><path d="M159.916 113.964v-6.281l5.727-2.864-1.213 6.888-4.514 2.257z" fill="#B99989"/><path d="M154.189 104.819l1.212 6.888 4.515 2.257v-6.281l-5.727-2.864z" fill="#DAB5A1"/><path d="M157.763 103.189s-.303-1.265-.073-2.331c.219-1.066.606-1.766.773-3.177.178-1.463.178-2.288.178-2.288s.574 1.045.794 2.696c.219 1.651.24 3.773.24 3.773l-1.912 1.327z" fill="url(#paint28_linear)"/><path d="M159.916 104.998l1.682-.794s.711-4.055.492-5.738c-.22-1.683-1.286-4.097-1.286-4.097s-.01 2.487-.104 4.066c-.094 1.567-.784 6.563-.784 6.563z" fill="url(#paint29_linear)"/><path d="M160.407 106.826s.533-1.902 1.401-5.058c.867-3.156-.429-6.856-.429-6.856s1.871 2.613 2.007 4.703c.135 2.101-.889 6.103-.889 6.103l-2.09 1.108z" fill="url(#paint30_linear)"/><path d="M159.916 107.077l.961-.481s-.282-2.853-.063-4.64c.356-2.895-1.17-6.27-1.17-6.27s.115 1.88.136 2.8c.01.93-.47 3.502-.732 5.059v3.093l.868.439z" fill="url(#paint31_linear)"/><path d="M157.721 105.729s-.595-1.62-.491-2.936c.105-1.317 1.139-2.185 1.212-3.48.073-1.297-.397-2.425-.397-2.425s.993 1.39 1.003 2.905c.011 1.515-.606 4.201-.428 5.288.178 1.077.428 1.568.428 1.568l-1.327-.92z" fill="url(#paint32_linear)"/><path d="M159.916 107.077s-.032-1.567.23-3.647c.344-2.696 1.64-5.445 2.299-6.95.658-1.505 1.201-2.122 1.201-2.122l-1.891 8.612c-.46 2.142-.146 3.261-.146 3.261l-1.693.846z" fill="url(#paint33_linear)"/><path d="M155.61 104.924s.251-.961-.219-2.372c-1.077-3.198.313-6.647.313-6.647s.011 3.25.721 5.048c.439 1.108.303 2.717.303 3.188v1.337l-1.118-.554z" fill="url(#paint34_linear)"/><path d="M164.43 104.82s-.157-2.028.868-4.87c.501-1.4-.398-2.718-.398-2.718s-.25 2.592-1.065 4.181c-.795 1.557-.471.909-.742 2.414-.115.669 0 1.672 0 1.672l1.337-.679z" fill="url(#paint35_linear)"/><path d="M158.317 106.283s-1.317-2.185-.188-5.445c.637-1.83-1.411-5.445-1.411-5.445s.637 2.132.24 3.919c-.303 1.369-.825 3.313-.825 4.065 0 .753.334 1.975.334 1.975l1.85.931z" fill="url(#paint36_linear)"/><path d="M158.954 106.597s-1.254-2.54-1.64-4.787a81.443 81.443 0 0 1-.575-3.835v4.577c0 1.965.731 3.292.731 3.292l1.484.753z" fill="url(#paint37_linear)"/><path d="M159.916 107.078s-.565-1.61-.429-3.543c.136-1.944.136-3.157-.021-4.515-.156-1.348.22-2.477.22-2.477s-1.15 1.484-.972 3.198c.178 1.714-.523 4.379-.533 5.069-.011.721.282 1.536.282 1.536l1.453.732z" fill="url(#paint38_linear)"/><path d="M161.933 106.064l.345-.178 1.442-.721s-.324-1.495.543-4.588c.533-1.902-.857-3.836-.857-3.836s.209 2.278-.47 3.898c-.637 1.537-.836 2.906-1.003 3.815-.157.92 0 1.61 0 1.61z" fill="url(#paint39_linear)"/><path d="M147.375 74.23l-2.184 1.098-.721-.042-1.463-1.055 2.184-1.087 2.184 1.087z" fill="#E7C2AB"/><path d="M146.194 74.429l-1.724.857-1.714-.857 1.714-.868 1.724.868z" fill="#B99989"/><path d="M146.655 71.795l-2.184 1.097-2.184-1.097 2.184-1.087 2.184 1.087z" fill="#FFF6EE"/><path d="M142.746 71.796l1.724-.858 1.725.858-1.725.867-1.724-.867z" fill="#9B6944"/><path d="M144.471 75.286v-2.394l2.184-1.097-.46 2.634-1.724.857z" fill="#B99989"/><path d="M142.287 71.795l.47 2.634 1.714.857v-2.394l-2.184-1.097z" fill="#DAB5A1"/><path d="M145.348 71.168s.115-.48.032-.888c-.084-.408-.23-1.87-.293-2.404-.062-.554-.062-.867-.062-.867s-.22.397-.304 1.024c-.083.627-.094 2.634-.094 2.634l.721.501z" fill="url(#paint40_linear)"/><path d="M144.533 71.858l-.637-.303s-.272-2.749-.188-3.387c.083-.647.491-1.557.491-1.557s.01.951.042 1.547c.031.596.292 3.7.292 3.7z" fill="url(#paint41_linear)"/><path d="M144.345 72.558s-.209-.722-.533-1.934c-.334-1.202.168-3.814.168-3.814s-.711.992-.763 1.797c-.052.794.334 3.522.334 3.522l.794.429z" fill="url(#paint42_linear)"/><path d="M144.533 72.652l-.366-.188s.105-1.087.021-1.766c-.135-1.108.45-3.595.45-3.595s-.042.71-.053 1.066c-.01.355.178 2.529.283 3.124v1.181l-.335.178z" fill="url(#paint43_linear)"/><path d="M145.37 72.14s.229-.616.188-1.118c-.042-.502-.429-2.027-.46-2.53-.031-.49.157-.919.157-.919s-.377.533-.377 1.108c0 .575.23 2.8.157 3.209-.063.407-.157.595-.157.595l.492-.345z" fill="url(#paint44_linear)"/><path d="M144.534 72.652s.01-.596-.084-1.39c-.125-1.024-.627-3.271-.878-3.846-.251-.575-.46-.805-.46-.805s.586 3.867.721 4.484c.178.815.053 1.243.053 1.243l.648.314z" fill="url(#paint45_linear)"/><path d="M146.174 71.826s-.094-.365.084-.898c.407-1.223-.052-2.279-.052-2.279s-.063.983-.335 1.662c-.167.429-.115 1.035-.115 1.212v.513l.418-.21z" fill="url(#paint46_linear)"/><path d="M142.809 71.784s.178-.564-.209-1.65c-.188-.534.157-1.035.157-1.035s.46 1.734.564 2.31c.042.25 0 .637 0 .637l-.512-.262z" fill="url(#paint47_linear)"/><path d="M145.14 72.349s.501-.836.073-2.08c-.241-.7.533-3.271.533-3.271s-.241.815-.094 1.495c.115.522.313 2.466.313 2.748 0 .282-.125.753-.125.753l-.7.355z" fill="url(#paint48_linear)"/><path d="M144.899 72.464s.481-.972.627-1.829c.146-.857.219-2.654.219-2.654v2.947c0 .752-.282 1.254-.282 1.254l-.564.282z" fill="url(#paint49_linear)"/><path d="M144.533 72.652s.105-3.752.167-4.264a2.414 2.414 0 0 0-.083-.952s.439.565.366 1.223c-.074.659.198 2.864.209 3.136 0 .271-.105.585-.105.585l-.554.272z" fill="url(#paint50_linear)"/><path d="M143.76 72.265l-.136-.062-.554-.272s.126-1.766-.209-2.947c-.198-.732.324-1.463.324-1.463s-.073.867.178 1.484c.24.585.324 2.31.387 2.654.073.345.01.606.01.606z" fill="url(#paint51_linear)"/><path d="M175.205 60.518l-2.184 1.087-.711-.031-1.474-1.056 2.185-1.097 2.184 1.097z" fill="#E7C2AB"/><path d="M174.034 60.706l-1.724.867-1.725-.867 1.725-.857 1.724.857z" fill="#B99989"/><path d="M174.494 58.083l-2.184 1.087-2.185-1.087 2.185-1.098 2.184 1.098z" fill="#FFF6EE"/><path d="M170.585 58.083l1.725-.867 1.724.867-1.724.857-1.725-.857z" fill="#9B6944"/><path d="M172.31 61.574V59.17l2.184-1.087-.46 2.623-1.724.868z" fill="#B99989"/><path d="M170.125 58.083l.46 2.623 1.725.868V59.17l-2.185-1.087z" fill="#DAB5A1"/><path d="M173.135 57.455s.115-.48.031-.888c-.083-.407-.229-1.87-.292-2.404-.063-.554-.063-.867-.063-.867s-.219.397-.303 1.024c-.083.627-.094 2.634-.094 2.634l.721.501z" fill="url(#paint52_linear)"/><path d="M172.237 58.208l-.638-.303s-.272-2.748-.188-3.386c.084-.648.491-1.557.491-1.557s.011.951.042 1.547c.031.595.293 3.7.293 3.7z" fill="url(#paint53_linear)"/><path d="M172.121 58.846s-.209-.721-.533-1.934c-.334-1.202-.136-2.905-.136-2.905s-.407.094-.459.888c-.053.794.334 3.522.334 3.522l.794.429z" fill="url(#paint54_linear)"/><path d="M172.32 58.94l-.366-.188s.105-1.087.021-1.766c-.136-1.108.449-3.595.449-3.595s-.041.71-.052 1.066c-.01.355.178 2.529.282 3.124v1.181l-.334.178z" fill="url(#paint55_linear)"/><path d="M173.145 58.427s.23-.616.189-1.118c-.042-.502-.429-2.027-.46-2.529-.032-.491.157-.92.157-.92s-.377.533-.377 1.108c0 .575.23 2.801.157 3.209-.063.407-.157.595-.157.595l.491-.345z" fill="url(#paint56_linear)"/><path d="M172.32 58.94s.011-.596-.083-1.39c-.126-1.025-.418-1.683-.669-2.258-.251-.575-.46-.805-.46-.805s.481 1.798.596 2.832c.094.826-.021 1.296-.021 1.296l.637.324z" fill="url(#paint57_linear)"/><path d="M173.95 58.115s-.094-.366.084-.9c.407-1.222-.053-2.278-.053-2.278s-.062.983-.334 1.662c-.167.429-.115 1.035-.115 1.213v.512l.418-.21z" fill="url(#paint58_linear)"/><path d="M170.596 58.073s.177-.565-.209-1.652c-.188-.533.156-1.034.156-1.034s.074 1.003.565 2.31c.094.24 0 .637 0 .637l-.512-.261z" fill="url(#paint59_linear)"/><path d="M172.926 58.637s-.146-.68-.167-1.996c-.021-.815.773-3.355.773-3.355s-.282 2.341-.125 3.03c.115.523.355.931.355 1.213 0 .282-.126.753-.126.753l-.71.355z" fill="url(#paint60_linear)"/><path d="M172.916 58.637s.334-.92.48-1.777c.147-.857.126-2.383.126-2.383s.24 1.798.24 2.29c0 .752-.282 1.588-.282 1.588l-.564.282z" fill="url(#paint61_linear)"/><path d="M172.32 58.94s.292-1.4.094-3.731c-.042-.523-.011-1.484-.011-1.484s.251.574.366 1.222c.126.7.303 1.014.209 3.136-.01.271-.104.585-.104.585l-.554.272z" fill="url(#paint62_linear)"/><path d="M171.547 58.553l-.136-.062-.554-.272s.125-1.766-.209-2.947c-.199-.732.324-1.463.324-1.463s-.094 1.891.564 4.138c.105.335.011.606.011.606z" fill="url(#paint63_linear)"/><path opacity=".55" d="M181.506 125.126l4.347-2.174-5.727-2.863-4.065 2.863 4.347 2.174h1.098z" fill="#817F7F"/><path d="M184.463 122.294l-4.337 2.174-4.347-2.174 4.347-2.174 4.337 2.174z" fill="#9B787A"/><path d="M180.126 125.189v-.721l4.337-2.174v.721l-4.337 2.174z" fill="#6E4A4C"/><path d="M175.779 123.015v-.721l4.347 2.174v.721l-4.347-2.174z" fill="#865D5F"/><path d="M180.565 122.075c.24.125.24.324 0 .438-.241.126-.638.126-.889 0-.24-.125-.24-.324 0-.438.251-.126.648-.126.889 0z" fill="#6E4A4C"/><path d="M180.753 117.946h-1.254v4.348h1.254v-4.348z" fill="#6E4A4C"/><path d="M180.753 117.946h-1.254v4.348h1.254v-4.348z" fill="url(#paint64_linear)"/><path d="M180.126 119.619l-4.347-2.174V99.062l4.347 2.173v18.384z" fill="#fff"/><mask id="g" maskUnits="userSpaceOnUse" x="176" y="105" width="4" height="9"><path d="M179.854 110.286c0 1.955-.846 3.115-1.902 2.592-1.045-.523-1.902-2.529-1.902-4.494 0-1.954.847-3.114 1.902-2.592 1.045.533 1.902 2.54 1.902 4.494z" fill="url(#paint65_radial)"/></mask><g mask="url(#g)"><path d="M179.854 110.286c0 1.955-.846 3.115-1.902 2.592-1.045-.523-1.902-2.529-1.902-4.494 0-1.954.847-3.114 1.902-2.592 1.045.533 1.902 2.54 1.902 4.494z" fill="url(#paint66_radial)"/></g><path d="M184.463 117.445l-4.337 2.174v-18.384l4.337-2.174v18.384z" fill="#FFF5EB"/><mask id="h" maskUnits="userSpaceOnUse" x="180" y="105" width="5" height="9"><path d="M184.191 108.394c0 1.954-.846 3.961-1.902 4.494-1.045.522-1.902-.638-1.902-2.592 0-1.954.847-3.961 1.902-4.494 1.056-.523 1.902.638 1.902 2.592z" fill="url(#paint67_radial)"/></mask><g mask="url(#h)"><path d="M184.191 108.394c0 1.954-.846 3.961-1.902 4.494-1.045.522-1.902-.638-1.902-2.592 0-1.954.847-3.961 1.902-4.494 1.056-.523 1.902.638 1.902 2.592z" fill="url(#paint68_radial)"/></g><path d="M184.463 99.062l-4.336 2.174-4.348-2.174 4.348-2.164 4.336 2.164z" fill="#fff"/><path d="M180.127 101.236l-4.348-2.174 4.348-2.164v4.338z" fill="#FFF5EB"/><g opacity=".5"><path opacity=".5" d="M180.126 102.605l-4.347-2.174v-.554l4.347 2.163v.565z" fill="#FFF5EB"/><path opacity=".5" d="M184.462 100.431l-4.337 2.174v-.565l4.337-2.163v.554z" fill="#F0D2B6"/></g><g opacity=".5"><path opacity=".5" d="M180.126 103.64l-4.347-2.164v-.564l4.347 2.174v.554z" fill="#FFF5EB"/><path opacity=".5" d="M184.462 101.476l-4.337 2.164v-.554l4.337-2.174v.564z" fill="#F0D2B6"/></g><g opacity=".5"><path opacity=".5" d="M180.126 104.685l-4.347-2.174v-.554l4.347 2.163v.565z" fill="#FFF5EB"/><path opacity=".5" d="M184.462 102.511l-4.337 2.174v-.565l4.337-2.163v.554z" fill="#F0D2B6"/></g><g opacity=".5"><path opacity=".5" d="M180.126 105.729l-4.347-2.173v-.565l4.347 2.174v.564z" fill="#FFF5EB"/><path opacity=".5" d="M184.462 103.556l-4.337 2.173v-.564l4.337-2.174v.565z" fill="#F0D2B6"/></g><g opacity=".5"><path opacity=".5" d="M180.126 106.764l-4.347-2.174v-.554l4.347 2.164v.564z" fill="#FFF5EB"/><path opacity=".5" d="M184.462 104.59l-4.337 2.174v-.564l4.337-2.164v.554z" fill="#F0D2B6"/></g><g opacity=".5"><path opacity=".5" d="M180.126 107.809l-4.347-2.173v-.565l4.347 2.174v.564z" fill="#FFF5EB"/><path opacity=".5" d="M184.462 105.636l-4.337 2.173v-.564l4.337-2.174v.565z" fill="#F0D2B6"/></g><g opacity=".5"><path opacity=".5" d="M180.126 108.844l-4.347-2.174v-.554l4.347 2.174v.554z" fill="#FFF5EB"/><path opacity=".5" d="M184.462 106.67l-4.337 2.174v-.554l4.337-2.174v.554z" fill="#F0D2B6"/></g><g opacity=".5"><path opacity=".5" d="M180.126 109.889l-4.347-2.174v-.565l4.347 2.174v.565z" fill="#FFF5EB"/><path opacity=".5" d="M184.462 107.715l-4.337 2.174v-.565l4.337-2.174v.565z" fill="#F0D2B6"/></g><g opacity=".5"><path opacity=".5" d="M180.126 110.924l-4.347-2.163v-.565l4.347 2.174v.554z" fill="#FFF5EB"/><path opacity=".5" d="M184.462 108.761l-4.337 2.163v-.554l4.337-2.174v.565z" fill="#F0D2B6"/></g><g opacity=".5"><path opacity=".5" d="M180.126 111.969l-4.347-2.174v-.565l4.347 2.174v.565z" fill="#FFF5EB"/><path opacity=".5" d="M184.462 109.795l-4.337 2.174v-.565l4.337-2.174v.565z" fill="#F0D2B6"/></g><g opacity=".5"><path opacity=".5" d="M180.126 113.003l-4.347-2.163v-.565l4.347 2.174v.554z" fill="#FFF5EB"/><path opacity=".5" d="M184.462 110.84l-4.337 2.163v-.554l4.337-2.174v.565z" fill="#F0D2B6"/></g><g opacity=".5"><path opacity=".5" d="M180.126 114.049l-4.347-2.174v-.564l4.347 2.173v.565z" fill="#FFF5EB"/><path opacity=".5" d="M184.462 111.875l-4.337 2.174v-.565l4.337-2.173v.564z" fill="#F0D2B6"/></g><g opacity=".5"><path opacity=".5" d="M180.126 115.083l-4.347-2.163v-.565l4.347 2.174v.554z" fill="#FFF5EB"/><path opacity=".5" d="M184.462 112.92l-4.337 2.163v-.554l4.337-2.174v.565z" fill="#F0D2B6"/></g><g opacity=".5"><path opacity=".5" d="M180.126 116.128l-4.347-2.174v-.554l4.347 2.164v.564z" fill="#FFF5EB"/><path opacity=".5" d="M184.462 113.954l-4.337 2.174v-.564l4.337-2.164v.554z" fill="#F0D2B6"/></g><g opacity=".5"><path opacity=".5" d="M180.126 117.174L175.779 115v-.564l4.347 2.173v.565z" fill="#FFF5EB"/><path opacity=".5" d="M184.462 115l-4.337 2.174v-.565l4.337-2.173V115z" fill="#F0D2B6"/></g><g opacity=".5"><path opacity=".5" d="M180.126 118.208l-4.347-2.174v-.554l4.347 2.164v.564z" fill="#FFF5EB"/><path opacity=".5" d="M184.462 116.034l-4.337 2.174v-.564l4.337-2.164v.554z" fill="#F0D2B6"/></g><g opacity=".5"><path opacity=".5" d="M180.126 119.253l-4.347-2.174v-.564l4.347 2.173v.565z" fill="#FFF5EB"/><path opacity=".5" d="M184.462 117.079l-4.337 2.174v-.565l4.337-2.173v.564z" fill="#F0D2B6"/></g><path d="M180.126 97.201l3.741 1.871-3.741 1.871-3.741-1.87 3.741-1.871zm0-.303l-4.337 2.174 4.337 2.174 4.337-2.174-4.337-2.174z" fill="#FFFFFD"/><defs><linearGradient id="paint0_linear" x1="255.186" y1="99.123" x2="255.186" y2="35.932" gradientUnits="userSpaceOnUse"><stop stop-color="#37829A"/><stop offset="1" stop-color="#2E6F83"/></linearGradient><linearGradient id="paint1_linear" x1="120.174" y1="98.995" x2="120.174" y2="35.855" gradientUnits="userSpaceOnUse"><stop stop-color="#3A879E"/><stop offset="1" stop-color="#4399B4"/></linearGradient><linearGradient id="paint2_linear" x1="122.347" y1="51.119" x2="192.026" y2="51.119" gradientUnits="userSpaceOnUse"><stop stop-color="#4494AD"/><stop offset="1" stop-color="#3A8195"/></linearGradient><linearGradient id="paint3_linear" x1="188.57" y1="68.227" x2="252.125" y2="36.445" gradientUnits="userSpaceOnUse"><stop stop-color="#489AB1"/><stop offset="1" stop-color="#52ACC7"/></linearGradient><linearGradient id="paint4_linear" x1="138.118" y1="78.499" x2="171.854" y2="78.499" gradientUnits="userSpaceOnUse"><stop stop-color="#2E6D82"/><stop offset="1" stop-color="#255B6C"/></linearGradient><linearGradient id="paint5_linear" x1="180.728" y1="73.825" x2="180.728" y2="41.925" gradientUnits="userSpaceOnUse"><stop stop-color="#565659"/><stop offset=".987" stop-color="#666669"/></linearGradient><linearGradient id="paint6_linear" x1="184.385" y1="41.252" x2="184.385" y2="73.824" gradientUnits="userSpaceOnUse"><stop offset=".013" stop-color="#47474C"/><stop offset="1" stop-color="#1D1D1E"/></linearGradient><linearGradient id="paint7_linear" x1="184.385" y1="41.687" x2="184.385" y2="73.389" gradientUnits="userSpaceOnUse"><stop offset=".013" stop-color="#545457"/><stop offset="1" stop-color="#434347"/></linearGradient><linearGradient id="paint8_linear" x1="184.385" y1="41.138" x2="184.385" y2="62.282" gradientUnits="userSpaceOnUse"><stop offset=".013"/><stop offset=".5" stop-color="#333"/><stop offset="1"/></linearGradient><linearGradient id="paint9_linear" x1="184.385" y1="41.138" x2="184.385" y2="62.282" gradientUnits="userSpaceOnUse"><stop offset=".013" stop-color="#fff"/><stop offset=".5" stop-color="#fff"/><stop offset="1" stop-color="#fff"/></linearGradient><linearGradient id="paint10_linear" x1="186.996" y1="76.213" x2="189.483" y2="81.187" gradientUnits="userSpaceOnUse"><stop offset=".008" stop-color="#FFCA53"/><stop offset=".619" stop-color="#FFDE6E"/><stop offset="1" stop-color="#FFE788"/></linearGradient><linearGradient id="paint11_linear" x1="235.767" y1="96.007" x2="235.767" y2="91.662" gradientUnits="userSpaceOnUse"><stop offset=".051" stop-color="#6E4A4C"/><stop offset=".995" stop-color="#817A59"/></linearGradient><radialGradient id="paint12_radial" cx="0" cy="0" r="1" gradientUnits="userSpaceOnUse" gradientTransform="rotate(26.572 -59.07 536.155) scale(3.25228 1.96579)"><stop stop-color="#fff"/><stop offset="1"/></radialGradient><radialGradient id="paint13_radial" cx="0" cy="0" r="1" gradientUnits="userSpaceOnUse" gradientTransform="rotate(26.572 -59.07 536.155) scale(3.25228 1.96579)"><stop stop-color="#fff"/><stop offset="1" stop-color="#fff"/></radialGradient><radialGradient id="paint14_radial" cx="0" cy="0" r="1" gradientUnits="userSpaceOnUse" gradientTransform="matrix(2.90875 -1.45483 .87935 1.75815 237.938 83.056)"><stop stop-color="#fff"/><stop offset="1"/></radialGradient><radialGradient id="paint15_radial" cx="0" cy="0" r="1" gradientUnits="userSpaceOnUse" gradientTransform="matrix(2.90875 -1.45483 .87935 1.75815 237.938 83.056)"><stop stop-color="#fff"/><stop offset="1" stop-color="#fff"/></radialGradient><linearGradient id="paint16_linear" x1="162.718" y1="53.942" x2="145.645" y2="38.098" gradientUnits="userSpaceOnUse"><stop stop-color="#55555C"/><stop offset=".451" stop-color="#656567"/><stop offset=".932" stop-color="#65646C"/></linearGradient><linearGradient id="paint17_linear" x1="148.627" y1="40.111" x2="169.047" y2="55.453" gradientUnits="userSpaceOnUse"><stop/><stop offset="1" stop-color="#333"/></linearGradient><linearGradient id="paint18_linear" x1="148.627" y1="40.111" x2="169.047" y2="55.453" gradientUnits="userSpaceOnUse"><stop stop-color="#fff"/><stop offset="1" stop-color="#fff"/></linearGradient><linearGradient id="paint19_linear" x1="198.797" y1="19.46" x2="214.882" y2="65.145" gradientUnits="userSpaceOnUse"><stop stop-color="#C7E0ED"/><stop offset=".974" stop-color="#BDD8EF"/><stop offset="1" stop-color="#C1DAEF"/></linearGradient><linearGradient id="paint20_linear" x1="131.046" y1="98.823" x2="131.046" y2="66.924" gradientUnits="userSpaceOnUse"><stop stop-color="#565659"/><stop offset=".987" stop-color="#666669"/></linearGradient><linearGradient id="paint21_linear" x1="134.703" y1="66.251" x2="134.703" y2="98.823" gradientUnits="userSpaceOnUse"><stop offset=".013" stop-color="#47474C"/><stop offset="1" stop-color="#1D1D1E"/></linearGradient><linearGradient id="paint22_linear" x1="134.703" y1="66.685" x2="134.703" y2="98.388" gradientUnits="userSpaceOnUse"><stop offset=".013" stop-color="#545457"/><stop offset="1" stop-color="#434347"/></linearGradient><linearGradient id="paint23_linear" x1="134.703" y1="66.137" x2="134.703" y2="87.28" gradientUnits="userSpaceOnUse"><stop offset=".013"/><stop offset=".5" stop-color="#333"/><stop offset="1"/></linearGradient><linearGradient id="paint24_linear" x1="134.703" y1="66.137" x2="134.703" y2="87.28" gradientUnits="userSpaceOnUse"><stop offset=".013" stop-color="#fff"/><stop offset=".5" stop-color="#fff"/><stop offset="1" stop-color="#fff"/></linearGradient><linearGradient id="paint25_linear" x1="220.594" y1="91.799" x2="215.988" y2="87.638" gradientUnits="userSpaceOnUse"><stop offset=".008" stop-color="#FFC55F"/><stop offset=".619" stop-color="#FFDB7E"/><stop offset="1" stop-color="#FFE59A"/></linearGradient><linearGradient id="paint26_linear" x1="189.497" y1="108.325" x2="182.778" y2="102.254" gradientUnits="userSpaceOnUse"><stop offset=".008" stop-color="#FFC55F"/><stop offset=".619" stop-color="#FFDB7E"/><stop offset="1" stop-color="#FFE59A"/></linearGradient><linearGradient id="paint27_linear" x1="192.334" y1="117.877" x2="195.33" y2="117.877" gradientUnits="userSpaceOnUse"><stop stop-color="#1A1A1A"/><stop offset="1" stop-color="#fff"/></linearGradient><linearGradient id="paint28_linear" x1="158.63" y1="103.186" x2="158.63" y2="95.396" gradientUnits="userSpaceOnUse"><stop stop-color="#81810D"/><stop offset="1" stop-color="#585903"/></linearGradient><linearGradient id="paint29_linear" x1="161.018" y1="104.993" x2="161.018" y2="94.362" gradientUnits="userSpaceOnUse"><stop stop-color="#888810"/><stop offset="1" stop-color="#616303"/></linearGradient><linearGradient id="paint30_linear" x1="160.408" y1="100.872" x2="163.406" y2="100.872" gradientUnits="userSpaceOnUse"><stop stop-color="#888810"/><stop offset="1" stop-color="#616303"/></linearGradient><linearGradient id="paint31_linear" x1="159.964" y1="107.078" x2="159.964" y2="95.679" gradientUnits="userSpaceOnUse"><stop stop-color="#888810"/><stop offset="1" stop-color="#616303"/></linearGradient><linearGradient id="paint32_linear" x1="158.138" y1="106.646" x2="158.138" y2="96.891" gradientUnits="userSpaceOnUse"><stop stop-color="#A7A914"/><stop offset="1" stop-color="#818308"/></linearGradient><linearGradient id="paint33_linear" x1="161.78" y1="107.078" x2="161.78" y2="94.362" gradientUnits="userSpaceOnUse"><stop stop-color="#919211"/><stop offset="1" stop-color="#6C6F05"/></linearGradient><linearGradient id="paint34_linear" x1="155.869" y1="105.486" x2="155.869" y2="95.914" gradientUnits="userSpaceOnUse"><stop stop-color="#6C6F05"/><stop offset="1" stop-color="#919211"/></linearGradient><linearGradient id="paint35_linear" x1="163.045" y1="101.358" x2="165.447" y2="101.358" gradientUnits="userSpaceOnUse"><stop stop-color="#919211"/><stop offset="1" stop-color="#6C6F05"/></linearGradient><linearGradient id="paint36_linear" x1="157.234" y1="106.281" x2="157.234" y2="95.396" gradientUnits="userSpaceOnUse"><stop stop-color="#919211"/><stop offset="1" stop-color="#6C6F05"/></linearGradient><linearGradient id="paint37_linear" x1="157.841" y1="106.596" x2="157.841" y2="97.977" gradientUnits="userSpaceOnUse"><stop stop-color="#A7A914"/><stop offset="1" stop-color="#818308"/></linearGradient><linearGradient id="paint38_linear" x1="159.05" y1="107.078" x2="159.05" y2="96.544" gradientUnits="userSpaceOnUse"><stop stop-color="#B2B314"/><stop offset="1" stop-color="#8B8F08"/></linearGradient><linearGradient id="paint39_linear" x1="163.123" y1="106.068" x2="163.123" y2="96.743" gradientUnits="userSpaceOnUse"><stop stop-color="#A7A914"/><stop offset="1" stop-color="#818308"/></linearGradient><linearGradient id="paint40_linear" x1="145.019" y1="71.167" x2="145.019" y2="66.999" gradientUnits="userSpaceOnUse"><stop stop-color="#81810D"/><stop offset="1" stop-color="#585903"/></linearGradient><linearGradient id="paint41_linear" x1="144.109" y1="71.856" x2="144.109" y2="66.604" gradientUnits="userSpaceOnUse"><stop stop-color="#888810"/><stop offset="1" stop-color="#616303"/></linearGradient><linearGradient id="paint42_linear" x1="144.342" y1="69.685" x2="143.198" y2="69.685" gradientUnits="userSpaceOnUse"><stop stop-color="#888810"/><stop offset="1" stop-color="#616303"/></linearGradient><linearGradient id="paint43_linear" x1="144.511" y1="72.651" x2="144.511" y2="67.106" gradientUnits="userSpaceOnUse"><stop stop-color="#888810"/><stop offset="1" stop-color="#616303"/></linearGradient><linearGradient id="paint44_linear" x1="145.207" y1="72.486" x2="145.207" y2="67.569" gradientUnits="userSpaceOnUse"><stop stop-color="#A7A914"/><stop offset="1" stop-color="#818308"/></linearGradient><linearGradient id="paint45_linear" x1="143.818" y1="72.651" x2="143.818" y2="66.604" gradientUnits="userSpaceOnUse"><stop stop-color="#919211"/><stop offset="1" stop-color="#6C6F05"/></linearGradient><linearGradient id="paint46_linear" x1="146.079" y1="72.044" x2="146.079" y2="68.654" gradientUnits="userSpaceOnUse"><stop stop-color="#6C6F05"/><stop offset="1" stop-color="#919211"/></linearGradient><linearGradient id="paint47_linear" x1="143.336" y1="70.573" x2="142.543" y2="70.573" gradientUnits="userSpaceOnUse"><stop stop-color="#919211"/><stop offset="1" stop-color="#6C6F05"/></linearGradient><linearGradient id="paint48_linear" x1="145.552" y1="72.347" x2="145.552" y2="66.998" gradientUnits="userSpaceOnUse"><stop stop-color="#919211"/><stop offset="1" stop-color="#6C6F05"/></linearGradient><linearGradient id="paint49_linear" x1="145.32" y1="72.467" x2="145.32" y2="67.982" gradientUnits="userSpaceOnUse"><stop stop-color="#A7A914"/><stop offset="1" stop-color="#818308"/></linearGradient><linearGradient id="paint50_linear" x1="144.86" y1="72.65" x2="144.86" y2="67.435" gradientUnits="userSpaceOnUse"><stop stop-color="#B2B314"/><stop offset="1" stop-color="#8B8F08"/></linearGradient><linearGradient id="paint51_linear" x1="143.306" y1="72.266" x2="143.306" y2="67.512" gradientUnits="userSpaceOnUse"><stop stop-color="#A7A914"/><stop offset="1" stop-color="#818308"/></linearGradient><linearGradient id="paint52_linear" x1="172.805" y1="57.452" x2="172.805" y2="53.284" gradientUnits="userSpaceOnUse"><stop stop-color="#81810D"/><stop offset="1" stop-color="#585903"/></linearGradient><linearGradient id="paint53_linear" x1="171.817" y1="58.209" x2="171.817" y2="52.957" gradientUnits="userSpaceOnUse"><stop stop-color="#616303"/><stop offset="1" stop-color="#888810"/></linearGradient><linearGradient id="paint54_linear" x1="172.127" y1="56.422" x2="170.983" y2="56.422" gradientUnits="userSpaceOnUse"><stop stop-color="#888810"/><stop offset="1" stop-color="#616303"/></linearGradient><linearGradient id="paint55_linear" x1="172.296" y1="58.937" x2="172.296" y2="53.392" gradientUnits="userSpaceOnUse"><stop stop-color="#888810"/><stop offset="1" stop-color="#616303"/></linearGradient><linearGradient id="paint56_linear" x1="172.992" y1="58.771" x2="172.992" y2="53.854" gradientUnits="userSpaceOnUse"><stop stop-color="#A7A914"/><stop offset="1" stop-color="#818308"/></linearGradient><linearGradient id="paint57_linear" x1="171.707" y1="58.936" x2="171.707" y2="54.479" gradientUnits="userSpaceOnUse"><stop stop-color="#A7A914"/><stop offset="1" stop-color="#818308"/></linearGradient><linearGradient id="paint58_linear" x1="173.864" y1="58.33" x2="173.864" y2="54.94" gradientUnits="userSpaceOnUse"><stop stop-color="#6C6F05"/><stop offset="1" stop-color="#919211"/></linearGradient><linearGradient id="paint59_linear" x1="171.141" y1="56.858" x2="170.327" y2="56.858" gradientUnits="userSpaceOnUse"><stop stop-color="#919211"/><stop offset="1" stop-color="#6C6F05"/></linearGradient><linearGradient id="paint60_linear" x1="173.251" y1="58.633" x2="173.251" y2="53.284" gradientUnits="userSpaceOnUse"><stop stop-color="#616303"/><stop offset="1" stop-color="#888810"/></linearGradient><linearGradient id="paint61_linear" x1="173.337" y1="58.633" x2="173.337" y2="54.48" gradientUnits="userSpaceOnUse"><stop stop-color="#A7A914"/><stop offset="1" stop-color="#818308"/></linearGradient><linearGradient id="paint62_linear" x1="172.659" y1="58.936" x2="172.659" y2="53.721" gradientUnits="userSpaceOnUse"><stop stop-color="#818308"/><stop offset="1" stop-color="#A7A914"/></linearGradient><linearGradient id="paint63_linear" x1="171.1" y1="58.551" x2="171.1" y2="53.798" gradientUnits="userSpaceOnUse"><stop stop-color="#919211"/><stop offset="1" stop-color="#6C6F05"/></linearGradient><linearGradient id="paint64_linear" x1="180.124" y1="122.292" x2="180.124" y2="117.947" gradientUnits="userSpaceOnUse"><stop offset=".051" stop-color="#6E4A4C"/><stop offset=".995" stop-color="#817A59"/></linearGradient><radialGradient id="paint65_radial" cx="0" cy="0" r="1" gradientUnits="userSpaceOnUse" gradientTransform="rotate(26.572 -142.55 431.478) scale(3.25228 1.96578)"><stop stop-color="#fff"/><stop offset="1"/></radialGradient><radialGradient id="paint66_radial" cx="0" cy="0" r="1" gradientUnits="userSpaceOnUse" gradientTransform="rotate(26.572 -142.55 431.478) scale(3.25228 1.96578)"><stop stop-color="#fff"/><stop offset="1" stop-color="#fff"/></radialGradient><radialGradient id="paint67_radial" cx="0" cy="0" r="1" gradientUnits="userSpaceOnUse" gradientTransform="rotate(-26.572 322.674 -331.33) scale(3.25228 1.96578)"><stop stop-color="#fff"/><stop offset="1"/></radialGradient><radialGradient id="paint68_radial" cx="0" cy="0" r="1" gradientUnits="userSpaceOnUse" gradientTransform="rotate(-26.572 322.674 -331.33) scale(3.25228 1.96578)"><stop stop-color="#fff"/><stop offset="1" stop-color="#fff"/></radialGradient></defs></svg>