<svg width="1600" height="400" fill="none" xmlns="http://www.w3.org/2000/svg" viewBox="0 0 1600 400"><g filter="url(#filter0_d)"><path fill="#F5FCFF" d="M1600 0H0v400h1600z"/></g><path d="M1283.55 357.9c126.22 0 228.55-38.257 228.55-85.45 0-47.193-102.33-85.45-228.55-85.45-126.22 0-228.55 38.257-228.55 85.45 0 47.193 102.33 85.45 228.55 85.45z" fill="#004EBB"/><g clip-path="url(#clip0)"><path d="M1343.44 323.47l44.21-26.55c3.77-2.33 3.72-7.82-.09-10.09l-131.08-77.93-17.23 54.49 104.19 60.08z" fill="#0032A5"/><path d="M1337.05 327.18l-92.13-61.1c-5.76-3.33-10.43-12.25-10.43-19.93V45.06c0-7.68 4.67-11.21 10.43-7.89l96.19 55.54c5.76 3.33 10.43 12.25 10.43 19.93v200.14c0 5.06-1.89 7.16-5.07 9l-9.42 5.4z" fill="#A8C9ED"/><path d="M1283.76 138.27s-49.32 115.35-49.32 107.67l-8.11-203.34 12.09-6.38c1.77-.84 4.01-.65 6.44.75l96.19 55.54c2.81 1.62 5.37 4.58 7.24 8.08l-64.53 37.68z" fill="#EBF3FF"/><path d="M1331.42 326.52l-95.96-55.54c-5.76-3.33-10.2-12.25-10.2-19.93V49.96c0-7.68 4.55-11.21 10.31-7.89l95.9 55.54c5.76 3.33 10.14 12.25 10.14 19.93v201.09c.01 7.69-4.43 11.22-10.19 7.89z" fill="#fff"/><path d="M1329.49 327.24l-95.95-55.54c-5.76-3.33-10.2-12.25-10.2-19.93V50.68c0-7.68 4.55-11.21 10.31-7.89l95.9 55.54c5.76 3.33 10.14 12.25 10.14 19.93v201.09c.01 7.68-4.43 11.21-10.2 7.89z" fill="#fff"/><path d="M1326.83 292.87l-93.56-54.02c-.97-.56-1.57-1.6-1.57-2.72V66.31c0-2.42 2.62-3.93 4.72-2.72l93.56 54.02c.97.56 1.57 1.6 1.57 2.72v169.82c0 2.42-2.62 3.93-4.72 2.72z" fill="#36A9E1"/><path d="M1297.88 93.12l-29.67-17.13c-1.04-.6-1.89-2.23-1.89-3.62 0-1.39.85-2.03 1.89-1.43l29.67 17.13c1.04.6 1.89 2.23 1.89 3.62 0 1.39-.85 2.03-1.89 1.43z" fill="#6899E3"/><path d="M1346.23 145.75c-1.57.67-2.86-.17-2.86-1.87v-11.45c0-1.7 1.29-3.64 2.86-4.31 1.57-.67 2.86.17 2.86 1.87v11.45c0 1.7-1.29 3.64-2.86 4.31z" fill="#E6F0FF"/><path d="M1347.46 145.9c-1.57.67-2.86-.17-2.86-1.87v-11.45c0-1.7 1.29-3.64 2.86-4.31 1.57-.67 2.86.17 2.86 1.87v11.45c0 1.7-1.29 3.64-2.86 4.31z" fill="#6899E3"/><path d="M1346.23 166.59c-1.57.67-2.86-.17-2.86-1.87v-11.45c0-1.7 1.29-3.64 2.86-4.31 1.57-.67 2.86.17 2.86 1.87v11.45c0 1.7-1.29 3.64-2.86 4.31z" fill="#E6F0FF"/><path d="M1347.46 166.74c-1.57.67-2.86-.17-2.86-1.87v-11.45c0-1.7 1.29-3.64 2.86-4.31 1.57-.67 2.86.17 2.86 1.87v11.45c0 1.7-1.29 3.64-2.86 4.31z" fill="#6899E3"/><path d="M1314.02 208.34l-57.49-33.74c-3.15-1.85-5.85.32-6 4.82l-.77 22.7v.07l-.85 25.27c-.14 4.18 2.02 8.1 5.63 10.22l52.74 30.95c4.79 2.81 10.84-.52 11.03-6.07l.29-8.71v-.04l1.17-34.54c.15-4.58-2.04-8.75-5.75-10.93zM1315.42 120.61l-54.86-31.39c-3-1.72-5.54.37-5.64 4.63l-.49 21.53v.07l-.87 38.25c-.09 4.04 1.88 7.69 5.16 9.56l50.39 28.83c4.6 2.63 10.51-1.15 10.64-6.81l.49-21.56v-.04l.74-32.76c.1-4.35-2.02-8.28-5.56-10.31z" fill="#0084C4"/><path d="M1306.24 128.87l-54.86-31.39c-3-1.72-5.54.37-5.64 4.63l-.49 21.53v.07l-.87 38.25c-.09 4.04 1.88 7.69 5.16 9.56l50.39 28.83c4.6 2.63 10.51-1.15 10.64-6.81l.49-21.56v-.04l.74-32.76c.1-4.35-2.02-8.28-5.56-10.31z" fill="#D9E9FF"/><path d="M1287.82 175.736c8.04-3.582 9.36-18.18 2.94-32.604s-18.15-23.212-26.2-19.63c-8.05 3.583-9.36 18.18-2.94 32.604s18.15 23.213 26.2 19.63z" fill="#fff"/><path d="M1283.27 166.86c1.6 1.06 3.47-.61 2.96-2.66-.49-2-1.11-3.88-1.61-4.7-.45-.74-1-1.32-1.48-1.83-.49-.53-1.14-1.27-1.77-1.99l-.63-.72-1.27-1.52c-.19-.27-.38-.54-.57-.82-.03-.05-.1-.13-.13-.19-.02-.1-.01-.21-.02-.31-.04-.65-.09-1.31-.13-1.96.48-.31.76-1.01.83-1.93.84.58.98-.67 1.02-1.55.03-.63.05-2.21-.61-2.8l.03-.28c.08-.52.14-1.06.12-1.66-.02-.6-.13-1.28-.38-1.95a2.09 2.09 0 0 0-.22-.45c0-.2-.06-.47-.13-.71-.54-1.87-1.56-3.55-2.6-4.58-1.04-1.03-2.09-1.49-3.07-1.64-.72-.11-1.66 0-1.62 1.48 0 .19.04.38.11.56-.14-.08-.24.03-.3.15-.19.38-.24.95-.21 1.56.04.61.16 1.27.3 1.93.02.1.04.21.06.33-.8-.55-.58 1.35-.46 2.13.14.97.43 2.42 1.18 2.98.07.43.16.87.29 1.31.19.64.44 1.21.73 1.73 0 .01-.01.01 0 .02.05.67.09 1.34.14 2.01 0 .06.02.17.02.23-.01-.05-.13.07-.16.08-.11.07-.22.13-.33.2v-.01l-.32-.06v-.01l-.08-.02c-.21-.05-.43-.08-.64-.1h-.03c-.27-.02-.55-.03-.82-.04-.49-.01-.99-.15-1.47-.14-1.19.03-2.76 1.3-2.88 4.56-.05 1.53.63 2.99 1.77 3.78l14.38 9.59zm-2.97-20.23c-.01.09-.01.16-.01.22 0-.06.01-.14.01-.22z" fill="#C74E10"/><path d="M1286.13 185.07c-3.19 0-6.64-1.05-10.16-3.13-13.26-7.84-23.83-28.22-23.56-45.43.14-8.97 3.26-15.82 8.56-18.78 4.6-2.58 10.46-2.04 16.48 1.52 13.26 7.84 23.83 28.22 23.56 45.43-.14 8.97-3.26 15.82-8.56 18.78-1.92 1.08-4.05 1.61-6.32 1.61zm-18.84-67.95c-2.11 0-4.07.49-5.84 1.48-4.98 2.79-7.92 9.33-8.05 17.94-.26 16.89 10.09 36.88 23.08 44.56 5.7 3.37 11.21 3.91 15.49 1.51 4.98-2.79 7.92-9.33 8.05-17.94l.49.01-.49-.01c.26-16.89-10.09-36.88-23.08-44.56-3.35-1.99-6.64-2.99-9.65-2.99z" fill="#fff"/><path d="M1316.23 152.063c4.24-2.478 4.2-10.436-.09-17.773-4.29-7.338-11.21-11.278-15.44-8.8-4.24 2.478-4.2 10.435.09 17.773 4.29 7.338 11.2 11.278 15.44 8.8z" fill="#C74E10"/><path d="M1308.2 144.48a.49.49 0 0 1-.49-.49v-11.4a.49.49 0 0 1 .98 0v11.4c0 .27-.22.49-.49.49z" fill="#fff"/><path d="M1312.17 142.83c-.1 0-.2-.03-.28-.09l-9.05-6.38a.496.496 0 0 1 .57-.81l9.05 6.38a.496.496 0 0 1-.29.9z" fill="#fff"/><path d="M1300.15 277.56c4.82 2.76 10.83-.64 10.96-6.19l.2-8.71v-.04l.78-34.55c.1-4.59-2.13-8.74-5.87-10.88l-57.86-33.1c-3.17-1.81-5.84.39-5.95 4.89l-.51 22.71v.07l-.57 25.28c-.09 4.18 2.11 8.08 5.74 10.16l53.08 30.36z" fill="#D9E9FF"/><path d="M1294.79 259.55l-40.84-23.15c-2.03-1.15-3.67-4.17-3.65-6.72l.04-5.02c.02-2.55 1.7-3.69 3.72-2.54l40.84 23.15c2.03 1.15 3.67 4.17 3.65 6.72l-.04 5.02c-.02 2.55-1.7 3.69-3.72 2.54zM1295.97 240.04l-40.84-23.15c-2.03-1.15-3.67-4.17-3.65-6.72l.04-5.02c.02-2.55 1.7-3.69 3.72-2.54l40.84 23.15c2.03 1.15 3.67 4.17 3.65 6.72l-.04 5.02c-.01 2.54-1.69 3.69-3.72 2.54z" fill="#ADD0FF"/><path d="M1261.76 234.31l-1.15-.62.83-.4-.8-1.28-.82.4.02-1.19-1.15-.62-.02 1.19-.8-1.28-.82.39.8 1.29-1.15-.63-.02 1.18 1.15.63-.82.4.79 1.27.83-.4-.02 1.19 1.14.63.02-1.2.8 1.29.82-.4-.8-1.28 1.15.62.02-1.18zM1269.29 238.41l-1.15-.63.83-.4-.8-1.27-.82.4.02-1.19-1.15-.63-.02 1.19-.79-1.28-.83.4.8 1.28-1.15-.62-.02 1.18 1.15.62-.82.4.79 1.28.83-.4-.02 1.19 1.14.62.02-1.19.8 1.28.82-.39-.8-1.29 1.15.63.02-1.18zM1276.82 242.5l-1.15-.62.83-.4-.8-1.28-.82.4.02-1.19-1.15-.62-.01 1.19-.8-1.28-.82.39.79 1.29-1.15-.63-.01 1.18 1.15.63-.83.4.79 1.27.83-.4-.02 1.19 1.14.63.02-1.19.8 1.28.82-.4-.8-1.28 1.15.62.02-1.18zM1284.35 246.6l-1.15-.63.83-.4-.8-1.27-.82.4.02-1.19-1.14-.63-.02 1.19-.8-1.28-.82.4.79 1.28-1.14-.62-.02 1.18 1.15.62-.83.4.79 1.28.83-.4-.02 1.19 1.14.62.02-1.19.8 1.28.82-.39-.8-1.29 1.15.63.02-1.18zM1291.88 250.69l-1.15-.62.83-.4-.79-1.28-.83.4.02-1.19-1.14-.62-.02 1.19-.8-1.28-.82.39.8 1.29-1.15-.63-.02 1.18 1.15.63-.83.4.79 1.27.83-.4-.02 1.19 1.14.63.02-1.19.8 1.28.82-.4-.8-1.28 1.15.62.02-1.18zM1290.29 232.33l-31.69-18.22c-.98-.56-1.84-1.89-1.91-2.95-.07-1.06.67-1.47 1.64-.91l31.69 18.21c.98.56 1.84 1.89 1.91 2.95.08 1.07-.66 1.48-1.64.92z" fill="#fff"/><path d="M1288.23 313.81l-.18-3.78-2.37.12-1.08.94-57.85-33.01c-1.64-.93-4.51-.8-6.39.3l-35.18 20.55-3.27-.75.16 3.81v.04c.04.57.4 1.11 1.1 1.51l60.4 34.47c1.64.93 4.51.8 6.39-.3l36.74-21.46c1.21-.7 1.72-1.62 1.53-2.44z" fill="#22009C"/><path d="M1226.55 273.84l60.41 34.47c1.64.93 1.44 2.6-.44 3.69l-36.74 21.46c-1.88 1.1-4.75 1.23-6.39.3l-60.42-34.47c-1.64-.93-1.44-2.6.44-3.69l36.74-21.46c1.89-1.1 4.76-1.24 6.4-.3z" fill="#85BAFF"/><path d="M1194.21 298.08l10.73 6.12c.52.3.45.82-.14 1.17-.59.35-1.5.39-2.02.09l-10.73-6.12c-.52-.3-.45-.82.14-1.17.6-.34 1.51-.38 2.02-.09zM1222.48 277.14l10.27 5.86c.64.37.57 1.02-.17 1.45-.74.43-1.87.48-2.51.12l-10.27-5.86c-.64-.37-.57-1.02.17-1.45.73-.43 1.87-.48 2.51-.12z" fill="#D9E9FF"/><path d="M1215.13 281.89l8.83 5.04c1.04.59.91 1.65-.28 2.35l-1.68.99c-1.19.7-3.02.78-4.06.19l-8.83-5.04c-1.04-.59-.91-1.65.28-2.35l1.69-.99c1.19-.7 3.01-.78 4.05-.19z" fill="#FFC248"/><path d="M1225.23 310.39l26.91 15.36c.52.3.45.82-.14 1.17-.59.35-1.5.39-2.02.09l-26.91-15.36c-.52-.3-.45-.82.14-1.17.6-.34 1.51-.38 2.02-.09zM1250.59 314.72l8.94 5.1c.78.45.69 1.24-.21 1.77-.9.52-2.27.59-3.06.14l-8.94-5.1c-.78-.45-.69-1.24.21-1.77.9-.52 2.28-.59 3.06-.14zM1235.48 306.1l8.94 5.1c.78.45.69 1.24-.21 1.77-.9.52-2.27.59-3.06.14l-8.94-5.1c-.78-.45-.69-1.24.21-1.77.9-.53 2.27-.59 3.06-.14zM1220.36 297.47l8.94 5.1c.78.45.69 1.24-.21 1.77-.9.52-2.27.59-3.06.14l-8.94-5.1c-.78-.45-.69-1.24.21-1.77.91-.52 2.28-.58 3.06-.14zM1205.25 288.85l8.94 5.1c.78.45.69 1.24-.21 1.77-.9.52-2.27.59-3.06.14l-8.94-5.1c-.78-.45-.69-1.24.21-1.77.9-.52 2.28-.59 3.06-.14z" fill="#D9E9FF"/><path d="M1266.86 305.51c2.34-1.37 6.17-1.38 8.54-.03 2.37 1.35 2.4 3.56.05 4.93-2.34 1.37-6.17 1.38-8.54.03-2.37-1.36-2.39-3.57-.05-4.93zM1316.23 237.204c4.24-2.478 4.2-10.435-.09-17.773-4.29-7.338-11.21-11.278-15.45-8.8-4.24 2.478-4.19 10.436.1 17.773 4.29 7.338 11.2 11.278 15.44 8.8z" fill="#C74E10"/><path d="M1311.06 231.66c-.27 0-.56-.08-.85-.25l-4.72-2.77c-.94-.55-1.71-1.92-1.75-3.11l-.13-3.68c-.02-.71.22-1.26.67-1.53.41-.25.94-.21 1.46.09l4.72 2.77c.94.55 1.71 1.92 1.75 3.11l.13 3.68c.02.71-.22 1.27-.67 1.53-.18.11-.39.16-.61.16zm-6.16-10.52c-.04 0-.08.01-.11.03-.1.06-.2.26-.19.65l.13 3.68c.03.84.62 1.91 1.27 2.29l4.72 2.77c.19.11.36.15.45.09.1-.06.2-.26.19-.65l-.13-3.68c-.03-.84-.62-1.91-1.27-2.29l-4.72-2.77a.697.697 0 0 0-.34-.12zM1309.92 222.18c-.26 0-.48-.21-.49-.48l-.05-1.47c-.03-.77-.67-1.81-1.37-2.23l-1.18-.69c-.31-.18-.52-.18-.61-.13-.1.06-.16.24-.15.49l.05 1.35c.01.27-.2.5-.48.51-.26 0-.5-.2-.51-.48l-.05-1.35c-.02-.62.21-1.12.63-1.37.44-.26 1.03-.22 1.61.12l1.18.69c1.01.59 1.82 1.93 1.86 3.04l.05 1.47c.01.27-.2.5-.48.51.01.02 0 .02-.01.02z" fill="#fff"/><path d="M1308.82 226c.02.53-.36.73-.84.45-.48-.28-.89-.94-.91-1.48-.02-.53.36-.73.84-.45.49.29.89.95.91 1.48z" fill="#fff"/><path d="M1308.01 227.77c-.26 0-.48-.21-.49-.48l-.07-2.03c-.01-.27.2-.5.48-.51.26 0 .5.2.51.48l.07 2.03c.01.27-.2.5-.48.51h-.02z" fill="#fff"/><path opacity=".2" d="M1232.42 60.06s-17.93 8.72-26.73-11.5c-5.75 7.23 15.56-7.46 7.48-4.73l-9.27 14.18c-.45-6.33-6.08-8.22-9.09-6.03-19.3 19.28 21.38 26.59 25.64 32.92 2.92 4.33 2.89 36.78 2.89 36.78 1.12 1.58 1.78 2.54 3.39 2.34 3.42-.43 9.31-1.33 12.26-2.7.08-.04.18-.09.27-.14 1.07-.54 5.15-2.65 9.03-5.39 2.94-2.07 16.79-13.63 16.77-35.66l-32.64-20.07z" fill="#000"/><path d="M1242.44 54.83s-15.74 3.73-24.54-16.49c-5.75 7.23-14.25 1.73-19.6-3.13l-4.98-5.21c-3.17 1.26-6.29 3.34-9.31 5.52l.67 4.92 1.55 2.04c-7.64 21.8 14.53 53.5 18.24 59.02 4.26 6.33 16.92 18.78 16.92 18.78s4.79-2.33 9.31-5.52c3.87-2.74 26.7-21.96 11.74-59.93z" fill="#7AA5F0"/><path d="M1233.13 60.35s-15.74 3.73-24.54-16.49c-8.94 11.25-24.57-8.34-24.57-8.34-19.3 19.28 6.89 65.17 11.15 71.5 2.92 4.33 7.15 10.35 9.53 13.72 1.12 1.58 2.82 2.44 4.43 2.24 3.42-.43 9.31-1.33 12.26-2.7 4.29-2.01 30.78-21.27 11.74-59.93z" fill="#D9E9FF"/><path d="M1226.88 65.4s-12.48 2.96-19.46-13.08c-7.09 8.92-19.49-6.62-19.49-6.62-15.31 15.3 5.46 51.69 8.84 56.71 1.82 2.71 4.33 6.53 6.26 9.48 1.75 2.67 4.63 4.02 7.19 3.37 2.54-.65 5.59-1.52 7.35-2.33 3.41-1.59 24.41-16.87 9.31-47.53z" fill="#34961E"/><path d="M1226.88 65.4s-12.48 2.96-19.46-13.07l.45 62.99c.79.15 1.58.13 2.35-.06 2.54-.65 5.59-1.52 7.35-2.33 3.41-1.59 24.41-16.87 9.31-47.53z" fill="#47B02C"/><path d="M1205.48 95.27h-.09c-.84-.03-1.62-.45-2.1-1.14l-10.83-15.61c-.84-1.2-.54-2.86.67-3.7 1.2-.84 2.86-.54 3.7.67l8.8 12.67 10.39-13.06a2.655 2.655 0 1 1 4.16 3.3l-12.62 15.87c-.5.64-1.27 1-2.08 1z" fill="#fff"/></g><defs><filter id="filter0_d" x="-4" y="-2" width="1608" height="408" filterUnits="userSpaceOnUse" color-interpolation-filters="sRGB"><feFlood flood-opacity="0" result="BackgroundImageFix"/><feColorMatrix in="SourceAlpha" values="0 0 0 0 0 0 0 0 0 0 0 0 0 0 0 0 0 0 127 0"/><feOffset dy="2"/><feGaussianBlur stdDeviation="2"/><feColorMatrix values="0 0 0 0 0 0 0 0 0 0 0 0 0 0 0 0 0 0 0.08 0"/><feBlend in2="BackgroundImageFix" result="effect1_dropShadow"/><feBlend in="SourceGraphic" in2="effect1_dropShadow" result="shape"/></filter><clipPath id="clip0"><path fill="#fff" transform="translate(1177 30)" d="M0 0h213.44v308.63H0z"/></clipPath></defs></svg>