<svg width="375" height="156" fill="none" xmlns="http://www.w3.org/2000/svg" viewBox="0 0 375 156"><path d="M375 0H0v156h375V0z" fill="#F5FCFF"/><mask id="a" maskUnits="userSpaceOnUse" x="0" y="0" width="375" height="156"><path transform="matrix(-1 0 0 1 375 0)" fill="#F5FCFF" d="M0 0h375v156H0z"/></mask><g mask="url(#a)"><path d="M481.001-5.706L374.813.097 176.849 20.841l-36.882 21.902 167.705 97.683 140.778 13.258 32.551-159.39z" fill="#00AD00"/><path d="M437.509-7.297S75.411 4.265 51.072 44.358C21.095 93.745 318.26 226.2 318.26 226.2l250.865-59.442s-397.638-99.299-379.744-129.2C208.081 6.31 578.295-2.295 578.295-2.295L437.509-7.297z" fill="#fff"/><path d="M346.422 206.702S52.672 89.192 79.234 44.358C103.14 4.01 465.671-5.998 465.671-5.998l81.019 1.535S176.252 6.173 157.777 37.553c-19.75 33.549 379.744 144.365 379.744 144.365l-191.099 24.784z" fill="#004EBB"/><path d="M325.671 55.067h-2.706v53.134h2.706V55.067z" fill="#5F6464"/><path d="M302.562 46.956l18.716-18.953a4.29 4.29 0 0 1 6.12 0l18.716 18.953a4.423 4.423 0 0 1 0 6.2l-18.716 18.948a4.29 4.29 0 0 1-6.12 0l-18.716-18.949a4.43 4.43 0 0 1 0-6.2z" fill="#fff"/><path d="M304.915 48.482l17.874-18.098a2.17 2.17 0 0 1 3.102 0l17.874 18.098a2.24 2.24 0 0 1 0 3.142l-17.874 18.1a2.17 2.17 0 0 1-3.102 0l-17.874-18.1a2.24 2.24 0 0 1 0-3.142z" fill="#fff"/><path d="M324.34 71.174a2.958 2.958 0 0 1-2.112-.886l-17.874-18.099a3.057 3.057 0 0 1 0-4.276l17.874-18.099a2.94 2.94 0 0 1 2.108-.885c.797 0 1.547.312 2.112.885l17.874 18.1a3.02 3.02 0 0 1 .874 2.135c0 .806-.313 1.567-.874 2.14l-17.874 18.099a2.944 2.944 0 0 1-2.108.886z" fill="#004EBB"/><path d="M332.644 58.442c4.589-4.645 4.589-12.176 0-16.82a11.644 11.644 0 0 0-16.612 0c-4.589 4.644-4.589 12.175 0 16.82a11.644 11.644 0 0 0 16.612 0z" fill="#fff"/><path d="M334.688 53.688c1.996-5.787-1.022-12.119-6.741-14.135-5.715-2.02-11.967 1.038-13.963 6.825-1.996 5.787 1.022 12.12 6.741 14.135 5.719 2.02 11.971-1.038 13.963-6.825z" fill="#fff"/><path d="M313.615 52.33A11.124 11.124 0 0 0 316 57.231c1.755-7.93 8.749-13.862 17.109-13.862-.164-.225-.341-.433-.521-.645a17.606 17.606 0 0 0-3.238-.309c-6.902.004-12.873 4.044-15.735 9.915z" fill="#0046B4"/><path d="M319.419 59.953a10.809 10.809 0 0 0 4.921 1.182c6.056 0 10.961-4.97 10.961-11.101 0-2.1-.577-4.064-1.575-5.735-7.61 1.39-13.514 7.755-14.307 15.654zM327.157 41.153c1.539 0 3.034.204 4.457.581a10.857 10.857 0 0 0-7.278-2.801c-5.226 0-9.594 3.703-10.692 8.656 3.222-3.931 8.079-6.436 13.513-6.436z" fill="#46B400"/></g><g clip-path="url(#clip0)"><path d="M228.006 112.573c-1.234.705-1.202 1.803.068 2.445l11.745 7.515 62.187 31.286c1.266.637 3.358.623 4.75.339 5.287-1.076 13.087-3.485 17.245-5.496 1.279-.619 3.127-1.803 4.27-2.643 1.925-1.41 5.143-4.461 6.259-6.77.619-1.279.786-2.345-.479-2.982l-76.413-38.453c-1.27-.638-3.313-.583-4.546.122l-25.086 14.637z" fill="#0032A5"/><path d="M229.818 99.047c-.384-2.206 1.166-3.792 1.166-3.792s.872-2.557 3.173-5.36c2.3-2.797 10.931-7.763 13.376-8.78 2.445-1.021 5.175-1.148 6.517-.962 1.342.185 7.614 2.164 7.614 2.164s7.597.606 13.906 3.114c6.304 2.508 13.141 6.277 18.207 8.975 2.951 1.572 8.36 5.676 12.364 8.83l.47-.298s-.388-1.844-.298-2.169c.09-.33 1.03-2.635 1.03-2.635s1.148 1.166 1.501 2.129c.348.962-.258 2.417-.443 3.122-.109.402-.344.881-.529 1.22-.004-.004-.009-.004-.013-.009a270.391 270.391 0 0 1 3.299 2.671c6.963 2.734 15.943 10.48 15.943 10.48 1.717.086 2.897 3.321 4.13 5.527 1.234 2.205 1.171 3.692 1.135 4.338-.037.646.822 9.906-6.689 15.107-7.515 5.202-16.481 6.359-20.476 6.092a19.871 19.871 0 0 1-4.541-.845c-.154-.75-.303-1.455-.33-1.943-.244-4.031-3.832-8.853-7.502-10.539-4.754-2.187-6.973.036-6.729 4.068.023.397.145 1.03.307 1.694l-36.229-18.243c-.158-.859-.33-1.745-.42-2.278-.597-3.67-3.458-7.805-6.648-9.716-5.098-3.055-6.62-.154-6.074 3.846v.004c-1.807-1.645-4.808-4.401-6.344-5.956-2.292-2.318-2.115-5.649-2.287-6.828-.185-1.184 1.414-3.028 1.414-3.028z" fill="#14AFEB"/><path d="M228.39 102.07c.172 1.18-.009 4.51 2.287 6.829 1.536 1.554 4.537 4.311 6.345 5.956v-.005c-.547-3.999.976-6.9 6.073-3.845 3.191 1.911 6.056 6.046 6.648 9.716.086.533.257 1.419.42 2.277l36.23 18.244c-.158-.66-.28-1.293-.308-1.695-.244-4.031 1.975-6.259 6.729-4.067 3.674 1.69 7.263 6.508 7.502 10.539.027.488.176 1.193.33 1.943 1.143.357 2.702.718 4.542.845 3.995.271 12.96-.89 20.476-6.092 6.819-4.718 6.742-12.775 6.697-14.714-.633 3.317-2.305 7.466-6.892 10.62-4.74 3.263-8.437 5.016-16.214 5.328-4.578.181-7.651-1.202-9.373-1.853l-.022-.343c1.721.65 4.754 1.405 9.332 1.224 7.772-.312 11.469-2.069 16.214-5.328 4.619-3.177 6.282-7.357 6.905-10.687.023.117.036.226.054.334.019-.755-.081-2.119-1.147-4.027-.344-.619-.687-1.315-1.04-2.001-.804 1.364-1.328.695-1.328.695-.041 1.487-.651 3.571-1.031 4.267-.379.695-1.568 3.14-4.88 5.504-3.313 2.363-7.073 3.615-9.224 4.306-2.151.692-4.198.611-4.198.611-2.522 1.265-5.102.176-5.102.176-.601-1.18-3.159-2.594-5.08-3.552-1.044-.52-2.878-1.6-4.55-2.657-1.401-.886-2.224-1.478-2.224-1.478-4.184-2.685-5.811-4.872-5.811-4.872-3.182-5.545-9.201-13.354-9.201-13.354-4.379-5.409-12.636-9.11-18.171-11.826-3.95-1.943-9.879-1.713-14.855-1.89l-5.897-.306s-5.979-1.596-6.096-4.745c-1.108 1.78-1.555 3.1-1.555 3.1s-1.55 1.586-1.166 3.791c0 0 2.549 5.419 5.129 8.573 0 0-4.718-3.724-6.439-6.413-.091.308-.145.606-.109.872zm47.437 17.878c1.546-.348 2.458-.904 3.046-.384l1.717 1.563s.899.877.262 1.293c-.637.416-2.747.542-4.483.646-1.735.104-1.871-1.473-1.907-1.726-.031-.262-.176-1.044 1.365-1.392z" fill="#0082C8"/><path d="M253.055 99.806c.321-.054.646-.086.967-.108 4.885-.294 9.829 2.802 11.533 3.746 2.73 1.519 7.85 4.275 10.805 7.723 3.615 4.217 2.766 3.873 8.234 13.232 0 0-1.555-.782-3.828-1.939.032-.013.059-.031.086-.045.637-.411-.262-1.292-.262-1.292l-1.717-1.564c-.588-.519-1.501.032-3.037.38-3.999-2.052-8.41-4.343-11.009-5.78a8092.972 8092.972 0 0 1-20.028-11.162s3.064-2.346 8.256-3.19z" fill="#0082C8"/><path d="M288.986 135.743l1.677-.994c.651.131 1.365.37 2.156.732 3.674 1.69 7.262 6.507 7.501 10.538.027.488.177 1.193.33 1.943h.005l-2.951 1.758c-1.012.61-2.431.583-4.045-.221-3.326-1.663-6.205-6.02-6.426-9.73-.122-2.015.565-3.425 1.753-4.026z" fill="#192D4B"/><path d="M290.663 134.744l-1.676.994c-1.189.601-1.876 2.011-1.754 4.031.023.384.077.777.154 1.175l-.994.294c-.159-.66-.281-1.293-.308-1.695-.198-3.358 1.311-5.463 4.578-4.799z" fill="#004687"/><path d="M287.233 139.769c.222 3.711 3.1 8.067 6.426 9.73 3.326 1.663 5.844 0 5.622-3.71-.221-3.71-3.1-8.067-6.431-9.73-3.326-1.658-5.843 0-5.617 3.71z" fill="#192D4B"/><path d="M287.586 140.121c.208 3.421 2.86 7.439 5.929 8.975 3.068 1.532 5.391 0 5.183-3.421-.208-3.421-2.86-7.438-5.929-8.975-3.068-1.532-5.387 0-5.183 3.421z" fill="#192D4B"/><path d="M289.014 140.913c.153 2.549 2.128 5.54 4.41 6.679 2.282 1.139 4.009 0 3.86-2.549-.154-2.549-2.129-5.536-4.411-6.679-2.287-1.143-4.013 0-3.859 2.549z" fill="#0082C8"/><path d="M292.218 142.142c.045.741.619 1.613 1.288 1.947.664.335 1.17 0 1.125-.741-.045-.741-.619-1.618-1.288-1.947-.669-.335-1.17-.005-1.125.741zM239.231 110.683l1.356-.804c.719.185 1.55.551 2.513 1.125 3.19 1.912 6.055 6.047 6.647 9.716.086.533.258 1.419.421 2.278l.316.158-2.535 1.509c-1.013.61-2.432.583-4.045-.221-3.326-1.663-6.205-6.019-6.431-9.73-.122-2.02.565-3.434 1.758-4.031z" fill="#192D4B"/><path d="M237.474 114.709c.221 3.711 3.104 8.067 6.43 9.73 3.326 1.663 5.843 0 5.622-3.71-.221-3.71-3.1-8.067-6.431-9.73-3.326-1.663-5.843 0-5.621 3.71z" fill="#192D4B"/><path d="M237.826 115.062c.208 3.421 2.86 7.439 5.929 8.975 3.068 1.532 5.391 0 5.183-3.421-.208-3.421-2.86-7.438-5.929-8.975-3.064-1.532-5.386 0-5.183 3.421z" fill="#192D4B"/><path d="M239.254 115.848c.154 2.549 2.129 5.536 4.411 6.68 2.282 1.138 4.008 0 3.855-2.545-.154-2.548-2.129-5.54-4.411-6.679-2.278-1.143-4.004 0-3.855 2.544z" fill="#0082C8"/><path d="M242.435 117.069c.046.759.633 1.644 1.311 1.983.678.339 1.193 0 1.148-.754-.045-.755-.633-1.645-1.311-1.984-.678-.344-1.193-.005-1.148.755z" fill="#192D4B"/><path d="M240.583 109.874l-1.356.805c-1.189.601-1.88 2.011-1.758 4.031 0 .018.004.036.004.05l-.456.09v-.005c-.443-3.244.479-5.766 3.566-4.971z" fill="#004687"/><path d="M288.991 103.123c3.733-2.612 7.818-6.101 7.818-6.101s6.467 4.307 8.577 5.988a88.707 88.707 0 0 0 5.767 4.252c.348.136.705.289 1.062.448 3.046 2.304-1.984 7.131-5.866 10.059-3.877 2.929-10.231 6.313-14.014 7.018a8.297 8.297 0 0 1-1.098.136c-2.991.181-4.266-1.419-4.266-1.419-2.897-5.08-9.237-13.499-9.237-13.499s7.524-4.27 11.257-6.882zM239.683 94.47c1.27-1.926 6.264-5.523 8.876-7.19 1.866-1.194 4.89-3.195 8.518-4.258a17.371 17.371 0 0 1 3.805-.682c.258-.014.52-.023.782-.027 0 0 3.733.298 8.139 1.342 0 0-6.06 3.326-8.785 5.251-2.72 1.921-7.976 6.124-8.568 6.711 0 0-.949 1.166-1.93 1.225-.985.059-10.877-.457-10.877-.457s-1.229.014.04-1.916z" fill="#0082C8"/><path d="M289.208 103.435c3.213-2.25 6.729-5.174 7.628-5.934 1.184.791 6.467 4.339 8.311 5.812 3.136 2.504 5.771 4.252 5.793 4.271l.032.022.036.014c.041.018.082.036.122.049.321.624.561 1.442.262 2.26-.601 1.672-3.66 4.822-6.638 6.788-2.874 1.898-8.356 6.286-15.609 7.632-1.175-.329-1.758-.94-1.866-1.062-2.554-4.46-7.773-11.528-8.989-13.164 1.573-.899 7.687-4.428 10.918-6.688zM264.376 103.335c.339.185.632.352.876.479-.931 2.517-1.816 7.221-2.133 8.966-3.086-1.713-7.402-4.122-11.049-6.155l2.029-6.548c4.022-.222 8.089 2.038 10.277 3.258z" fill="#94DAEE"/><path d="M253.119 100.181c.081-.013.162-.022.248-.036l-2.02 6.074a3931.848 3931.848 0 0 0-5.82-3.25c1.048-.668 3.728-2.16 7.592-2.788zM250.502 96.462c.665-.04 1.424-.795 1.659-1.085l.013-.018.014-.013c.628-.624 5.802-4.98 8.613-6.752 5.527-3.484 7.213-4.184 8.69-5.011-3.918-.904-7.235-1.216-7.754-1.261-.909.126-2.084.384-3.634.723-3.773.93-6.977 3.046-9.047 4.37l-.294.19c-2.933 1.87-7.596 5.31-8.767 7.081-.637.967-.501 1.252-.497 1.265.027.055.136.064.136.064h.027c3.421.171 10.077.492 10.841.447z" fill="#192D4B"/><path d="M330.084 130.012s-1.23-5.157-1.32-5.722c-.086-.564.84-3.9-1.577-6.534 1.559.185 2.675 2.96 3.805 5.088.081 1.591.122 5.157-.908 7.168zM315.202 140.221s-1.433-1.388-2.684-2.337c-1.252-.949-2.07-1.243-3.688-1.261-1.613-.018-4.117.059-5.351-.19-1.229-.248-2.228-.438-3.014-.542-.786-.104-1.432-.122-.904.759.529.882 1.18 2.757 3.109 3.29 1.935.538 2.974.615 5.387.633 2.418.018 7.145-.352 7.145-.352z" fill="#E1E8EC"/><path d="M319.066 139.615a2.94 2.94 0 0 0 .999-.239l.266-.113c1.51-.638 3.385-1.433 5.062-2.843 1.437-1.211 2.39-2.151 2.919-2.874.465-.637.655-1.311.578-2.056-.072-.701-.307-2.856-.438-4.076-.556.858-1.55 2.313-2.621 3.524-.908 1.022-2.82 2.888-5.45 3.878-.185.068-.366.144-.547.217-.181.072-.357.144-.538.212a62.035 62.035 0 0 1-5.246 1.704l3.488 2.323s.629.397 1.528.343zM307.528 146.33c1.053-.131 3.769-.389 5.066-.619.217-.036.425-.108.507.484.081.592-.742.714-.742.714-1.138.171-2.2.302-2.887.338 0 0-2.056.15-2.246.154-.24.009-.416-.126-.416-.126-.099-.371.063-.864.718-.945zM319.26 144.233l.262.646s.249.362.981-.005c.732-.366 3.737-1.979 5.477-3.28 1.292-.967 2.463-2.237 2.684-2.513.222-.276.425-.981.434-1.234.009-.253.158-.745-.407-.09-.564.655-2.58 2.372-3.927 3.267-1.346.895-4.722 2.594-5.296 2.816 0-.005-.316.122-.208.393z" fill="#006399"/><path d="M230.889 95.36s-.37.84.371 1.685c.736.845 2.377 2.305 2.377 2.305s.415.162-.348 1.089c-.76.922-.854.931-.854.931s-.113.131-.294.144c-.14.009-.316-.054-.511-.298-.452-.565-1.369-1.437-1.812-2.164-.325-1.876.737-3.3 1.071-3.693z" fill="#0082C8"/><path d="M278.873 119.564c-.511-.452-1.274-.09-2.481.239-3.389-1.735-7.127-3.674-9.824-5.124.04-3.399.316-8.135.429-9.96 4.053 2.182 7.172 4.478 9.079 6.697 2.368 2.766 2.797 3.548 4.397 6.462l.013.027-.122 3.01-1.491-1.351z" fill="#94DAEE"/><path d="M264.376 103.335c.339.185.632.352.876.479-.931 2.517-1.816 7.221-2.133 8.966-3.086-1.713-7.402-4.122-11.049-6.155l2.029-6.548c4.022-.222 8.089 2.038 10.277 3.258zM289.208 103.435c3.213-2.25 6.729-5.174 7.628-5.934 1.184.791 6.467 4.339 8.311 5.812 3.136 2.504 5.771 4.252 5.793 4.271l.032.022.036.014c.041.018.082.036.122.049.321.624.561 1.442.262 2.26-.601 1.672-3.66 4.822-6.638 6.788-2.874 1.898-8.356 6.286-15.609 7.632-1.175-.329-1.758-.94-1.866-1.062-2.554-4.46-7.773-11.528-8.989-13.164 1.573-.899 7.687-4.428 10.918-6.688zM278.873 119.564c-.511-.452-1.274-.09-2.481.239-3.389-1.735-7.127-3.674-9.824-5.124.04-3.399.316-8.135.429-9.96 4.053 2.182 7.172 4.478 9.079 6.697 2.368 2.766 2.797 3.548 4.397 6.462l.013.027-.122 3.01-1.491-1.351z" fill="#192D4B"/><path d="M110.035 81.346c-1.347.664-1.383 1.826-.086 2.58l11.908 8.686 63.597 37.016c1.297.755 3.507.872 4.994.664 5.649-.795 14.032-2.838 18.546-4.686 1.387-.57 3.417-1.704 4.677-2.513 2.124-1.365 5.713-4.374 7.041-6.738.737-1.306.981-2.426-.312-3.181L142.247 67.68c-1.297-.755-3.457-.827-4.804-.163l-27.408 13.829z" fill="#0032A5"/><path d="M111.919 66.844s0-5.455 3.096-8.184c3.095-2.73 14.081-10.245 20.639-12.166 0 0 1.667-.682 4.342.52 2.671 1.206 5.658 2.576 5.658 2.576s5.83-.023 10.909 1.446c5.08 1.469 20.942 9.775 28.439 15.23 7.497 5.454 14.199 13.918 14.199 13.918s12.382 9.599 18.8 15.962c0 0 3.633 5.793 2.327 11.699-1.306 5.907-9.657 12.211-17.268 14.312-7.61 2.102-11.587 2.274-15.961 1.022l-.976-.561-.547-1.893c-1.166-4.239-4.347-9.725-8.085-11.949-3.326-1.974-6.616-.036-6.543 3.765.009.492.054.989.131 1.487l-2.156-1.361-35.615-19.992-.854-.529-.565-2.047c-.971-4.099-3.583-9.255-7.321-11.479-3.326-1.979-6.616-.036-6.543 3.765.004.284.022.57.049.854-.171-.122-4.008-2.883-5.671-5.048-1.704-2.214-2.549-6.11-1.98-9.318l1.496-2.03z" fill="#141414"/><path opacity=".15" d="M111.26 70.152c1.491 1.197 8.64 5.41 8.64 5.41l-7.786-6.314s-.687-.741-.195-2.404c0 0 0-5.455 3.096-8.184.041-.036.086-.073.126-.109l7.258 4.352s10.503-.158 12.907.524c2.404.678 15.676 4.755 22.577 10.715 6.896 5.956 14.317 22.944 14.317 22.944s13.955 11.55 16.097 13.064c2.142 1.514 3.24 3.159 3.24 3.159l7.212-.858c2.093-.312 6.377-1.831 11.447-4.601 5.071-2.77 6.584-5.278 6.792-6.114.208-.836-.158-2.038.366-3.552.525-1.514.321-2.36.321-2.36.113.11.222.218.33.326 0 0 3.634 5.794 2.327 11.7-1.306 5.907-9.657 12.211-17.267 14.312-7.61 2.101-11.587 2.273-15.961 1.021l-.977-.56-.546-1.893c-1.166-4.239-4.348-9.726-8.085-11.949-3.326-1.975-6.616-.036-6.544 3.764.009.493.055.99.131 1.487l-2.155-1.36-35.615-19.992-.854-.53-.565-2.046c-.972-4.1-3.584-9.255-7.321-11.479-3.326-1.98-6.616-.036-6.544 3.764.005.285.023.57.05.855-.172-.122-4.009-2.884-5.672-5.048-1.703-2.215-2.548-6.11-1.979-9.319.054.38.267.823.832 1.275z" fill="#000"/><path d="M169.732 96.525s1.062 6.534.018 14.425l-.289-.24-13.39-7.569-21.814-12.342-1.613-.276s-1.812-9.092-8.717-12.847l2.838-8.09s6.729 5.853 15.884 11.343c6.67 4.004 20.119 11.452 20.119 11.452l6.964 4.144z" fill="#fff"/><path d="M151.321 52.391l-4.555-2.205c1.586.059 4.677.258 7.773.926-.845.308-1.948.732-3.218 1.28z" fill="#C5D0D3"/><path opacity=".2" d="M216.871 113.133c-3.087 3.06-7.75 5.025-9.327 5.636-.638.248-.565-.308-.565-.308l-.086-2.015c-.027-.606.524-.723.524-.723 5.473-2.011 8.338-4.56 9.341-5.599 0 0 .425-.398.425.149v2.06c0 .009-.018.507-.312.8z" fill="#000"/><path d="M124.939 76.51c4.822 2.865 8.188 9.517 9.445 14.805l.641 2.327-1.708-.958-.854-.529-.565-2.047c-.971-4.099-3.583-9.255-7.321-11.478-3.326-1.98-6.616-.036-6.543 3.764.004.285.022.57.049.854-.067-.05-.705-.506-1.55-1.175a12.96 12.96 0 0 1-.036-.71c-.09-4.903 4.158-7.402 8.442-4.853z" fill="#141414"/><path d="M124.939 76.51c4.822 2.865 8.188 9.517 9.445 14.805l.641 2.327-1.708-.958-.854-.529-.565-2.047c-.971-4.099-3.583-9.255-7.321-11.478-3.326-1.98-6.616-.036-6.543 3.764.004.285.022.57.049.854-.067-.05-.705-.506-1.55-1.175a12.96 12.96 0 0 1-.036-.71c-.09-4.903 4.158-7.402 8.442-4.853z" fill="#141414"/><path d="M178.187 106.136c4.822 2.866 8.189 9.518 9.441 14.805l.705 2.558a23.15 23.15 0 0 1-1.229-.316l-.977-.561-.546-1.893c-1.166-4.239-4.348-9.725-8.085-11.949-3.326-1.975-6.616-.036-6.544 3.765.009.492.055.989.131 1.486l-1.093-.691a14.972 14.972 0 0 1-.244-2.355c-.091-4.894 4.157-7.397 8.441-4.849z" fill="url(#paint0_linear)"/><path d="M178.187 106.136c4.822 2.866 8.189 9.518 9.441 14.805l.705 2.558a23.15 23.15 0 0 1-1.229-.316l-.977-.561-.546-1.893c-1.166-4.239-4.348-9.725-8.085-11.949-3.326-1.975-6.616-.036-6.544 3.765.009.492.055.989.131 1.486l-1.093-.691a14.972 14.972 0 0 1-.244-2.355c-.091-4.894 4.157-7.397 8.441-4.849z" fill="#141414"/><path opacity=".2" d="M219.045 107.995v-1.392c.727-1.369 1.206-2.752 1.428-3.461.131.94.185 1.934.113 2.946-.728 1.152-1.541 1.907-1.541 1.907z" fill="#000"/><path d="M174.861 107.435c.963 0 1.975.298 2.929.863 3.9 2.318 7.149 7.935 8.342 12.283l.709 2.449-.709-.407-.547-1.893c-1.166-4.239-4.347-9.725-8.085-11.949-3.326-1.975-6.615-.036-6.543 3.765.009.492.054.989.131 1.486l-.624-.393c-.04-.361-.068-.723-.077-1.084-.031-1.546.461-2.915 1.383-3.851a4.307 4.307 0 0 1 3.091-1.269zM118.852 78.549c.804-.823 1.902-1.275 3.091-1.275.962 0 1.974.299 2.928.864 3.837 2.282 6.571 7.583 7.583 11.826l.723 2.63-.709-.438-.565-2.047c-.972-4.1-3.584-9.255-7.321-11.479-3.326-1.98-6.616-.036-6.544 3.765.005.284.023.569.05.854-.041-.027-.262-.19-.606-.448a5.871 5.871 0 0 1-.013-.397c-.032-1.546.461-2.915 1.383-3.855z" fill="#141414"/><path opacity=".2" d="M110.261 70.992c1.41 1.916 6.616 4.962 6.616 4.962l-.606.506c-2.436-1.188-4.894-3.186-5.933-4.08a11.622 11.622 0 0 1-.077-1.388zM201.741 117.512l.483 1.509c-10.357 1.469-13.891-.533-13.891-.533l-.705-1.582c7.42 2.404 14.312.805 14.113.606z" fill="#000"/><path d="M177.501 108.786c3.737 2.223 6.918 7.709 8.084 11.948l.362 1.243-3.444 1.794c-1.148.529-2.612.452-4.09-.425-3.312-1.97-5.798-5.96-6.227-9.811l-1.098.497a11.035 11.035 0 0 1-.131-1.486c-.077-3.796 3.217-5.735 6.544-3.76zM124.577 78.63c3.737 2.223 6.35 7.379 7.321 11.478l.547 1.984-3.624 1.911c-1.148.529-2.612.452-4.09-.425-3.466-2.06-6.024-6.335-6.277-10.344l-.371.01a10.75 10.75 0 0 1-.049-.855c-.073-3.8 3.222-5.74 6.543-3.76z" fill="#343433"/><path d="M176.185 108.203c.434.131.873.321 1.311.583 2.865 1.704 5.4 5.323 6.955 8.83.149.71.239 1.419.253 2.115.072 3.656-3.096 5.523-6.295 3.62-3.593-2.137-6.214-6.657-6.295-10.787-.05-2.788 1.78-4.533 4.071-4.361zM118.436 82.796c.081 4.13 2.702 8.65 6.295 10.787 3.2 1.902 6.363.036 6.295-3.62-.077-4.135-2.702-8.65-6.295-10.787-3.195-1.903-6.363-.036-6.295 3.62z" fill="#3A3939"/><path d="M120.076 84.315c.055 2.829 1.821 5.92 4.248 7.384 2.16 1.301 4.298.027 4.248-2.477-.054-2.828-1.821-5.92-4.248-7.384-2.16-1.301-4.297-.027-4.248 2.477z" fill="#CCCBCA"/><path d="M122.865 85.924c.018.971.628 2.038 1.459 2.54.741.447 1.478.008 1.46-.855-.018-.971-.628-2.038-1.46-2.54-.741-.442-1.477-.004-1.459.855z" fill="#3A3939"/><path d="M173.573 113.883c.059 2.969 1.917 6.223 4.465 7.759 2.269 1.369 4.515.027 4.465-2.603-.054-2.974-1.916-6.218-4.465-7.755-2.268-1.374-4.514-.031-4.465 2.599z" fill="url(#paint1_linear)"/><path d="M176.366 115.708c.023 1.085.701 2.278 1.632 2.838.831.502 1.649.009 1.631-.953-.023-1.089-.701-2.278-1.631-2.838-.827-.497-1.65-.009-1.632.953z" fill="#3A3939"/><path d="M207.232 116.432c-.014-.307.226-.366.253-.375l.022-.004.023-.009c5.283-1.944 8.184-4.397 9.309-5.518v1.808c-.004.103-.054.397-.212.555-2.974 2.947-7.434 4.872-9.21 5.563a.522.522 0 0 1-.1.032v-.036l-.085-2.016z" fill="#fff"/><path d="M192.278 89.841c-7.384 4.488-14.131 6.928-20.074 7.24 0 0-4.32-9.892-9.436-17.222 0 0 15.401-7.036 21.33-12.961 0 0 8.419 5.902 15.067 13.806 0 0 .497 4.65-6.887 9.137z" fill="#141C1E"/><path d="M165.565 79.28a159.73 159.73 0 0 0 5.97-3.082c5.821-3.168 10.064-5.997 12.627-8.414 1.816 1.333 8.36 6.141 13.964 12.753-.01.37-.769 1.74-1.334 2.919-.727 1.008-2.598 3.077-6.204 5.27-7.1 4.315-12.658 6.358-18.361 6.764-.873-1.934-4.153-9.02-8.442-15.356.398-.18.962-.456 1.78-.854z" fill="#263338"/><path d="M195.938 78.087l-15.283-7.47c1.396-.999 2.567-1.943 3.511-2.833 1.582 1.161 6.756 4.966 11.772 10.303z" fill="#C5D0D3"/><path d="M170.952 92.765c3.326-1.848 8.139-4.722 8.139-4.722l13.919-7.945c1.374-.76 3.57-.108 5.107.533-.1.466-.796 1.731-1.32 2.83-.728 1.007-2.598 3.077-6.205 5.269-7.099 4.315-12.658 6.358-18.361 6.765a110.96 110.96 0 0 0-1.279-2.73zM166.786 78.675c1.315-.655 2.973-1.51 4.749-2.477.967-.524 1.885-1.043 2.766-1.55l1.902 6.458-8.007 4.614-1.41-7.045z" fill="#445459"/><path d="M179.091 88.043s-.596.357-1.514.9l-9.381-3.218 8.008-4.614 9.169 3.349-6.282 3.583z" fill="#303E42"/><path d="M190.552 78.142s-4.537-.086-6.82 4.51c.073.14-1.486 2.49-1.486 2.49l-.398 1.333 1.631-.931 1.984.646 8.559-5.264-3.47-2.784z" fill="#36464B"/><path d="M187.271 77.097c-1.632-.009-3.607 1.333-4.42 2.996a3.436 3.436 0 0 0-.194.484s-.317 1.785.619 2.946l.456-.876.163-.308c-.416-.41-.479-1.12-.086-1.925.615-1.265 2.12-2.282 3.353-2.277.488.004.859.167 1.094.438.28-.1.547-.172.791-.235-.172-.746-.8-1.238-1.776-1.243z" fill="#445459"/><path d="M169.732 96.471s-2.115-6.34-9.065-16.156c-6.955-9.815-20.63-13.589-25.47-14.271-4.84-.682-7.294.027-7.294.027l-1.138 3.416s4.519 4.972 21.221 14.511c16.703 9.545 21.746 12.473 21.746 12.473z" fill="#141C1E"/><path d="M128.342 66.554c.447-.09 1.419-.24 2.896-.24.647 0 1.325.032 2.02.086l-2.001 6.155c-2.224-1.694-3.39-2.774-3.842-3.217l.927-2.784zM146.603 82.543c-6.349-3.693-10.791-6.653-13.801-8.84l2.404-7.086c2.68.389 7.127 1.546 11.696 3.652.831.384 1.631.781 2.404 1.197l-2.703 11.077zM151.335 72.628c3.728 2.283 6.702 4.962 8.866 8.017 2.495 3.525 4.366 6.603 5.735 9.097l-.23 3.751a5991.133 5991.133 0 0 0-16.382-9.386l2.011-11.479z" fill="#303E42"/><path d="M156.568 51.04s-12.396 3.575-20.978 12.468a12.18 12.18 0 0 0-.28-.081c-2.404-.678-12.906-.524-12.906-.524s4.84-5.387 10.262-8.51c5.423-3.123 12.993-4.804 12.993-4.804s5.825-.018 10.909 1.451z" fill="#141C1E"/><path d="M132.947 54.891c5.034-2.901 12.052-4.564 12.775-4.727.515.005 4.664.05 8.817.954a58.542 58.542 0 0 0-5.491 2.313c-3.778 1.817-9.183 4.922-13.629 9.445-1.681-.452-6.607-.546-10.462-.546-.452 0-.868 0-1.22.004 1.64-1.686 5.296-5.188 9.21-7.443z" fill="#445459"/><path d="M132.947 54.89a31.33 31.33 0 0 1 3.068-1.531c.628.37 1.69 1.089 1.351 1.51-.474.591-4.559 3.072-4.894 3.145-.253.054-1.505-.7-2.182-1.388a29.955 29.955 0 0 1 2.657-1.735z" fill="#303E42"/><path d="M146.902 70.269c.831.384 1.631.782 2.404 1.197l-1.681 6.892-4.063 2.386c-3.624-2.183-6.517-4.067-8.794-5.649-.213-1.464-.552-3.28-1.017-4.184l.402-1.18 5.184-2.223a50.181 50.181 0 0 1 7.565 2.761zM150.946 78.833a.388.388 0 0 0-.339-.004l5.306-2.87c1.667 1.446 3.1 3.014 4.288 4.686.705.999 1.361 1.957 1.971 2.879l1.595 4.627-3.539 2.201a5807.993 5807.993 0 0 0-7.497-4.293c-.226-2.603-.75-6.756-1.785-7.226z" fill="#445459"/><path d="M161.602 93.154l2.567-1.523a.514.514 0 0 1 .416-.022l.569.325h.005c.104.063.167.19.167.366v.655c.384-.162.691-.244.768-.122 0 0 .384.461 0 .967-.14.186-.542.34-.999.461a.865.865 0 0 1-.379.276l-2.59.904a.487.487 0 0 1-.438-.036l-.411-.272a.489.489 0 0 1-.181-.38l-.032-.654c-.018-.357.222-.778.538-.945z" fill="#000"/><path opacity=".5" d="M161.602 93.154l2.567-1.523a.514.514 0 0 1 .416-.022l.569.325c-.104-.063-.244-.059-.402.023l-2.757 1.46c-.311.166-.555.591-.537.944l.031.655a.5.5 0 0 0 .199.393l-.411-.271a.489.489 0 0 1-.181-.38l-.032-.655c-.018-.361.222-.782.538-.949z" fill="#fff"/><path opacity=".1" d="M166.09 92.834s.384.46 0 .967c-.384.506-2.77.786-2.77.786s-.217-.37 0-.524c.216-.154 2.539-1.6 2.77-1.23z" fill="#000"/><path d="M197.158 74.87l-1.184 1.423c-.022.023-.04.045-.058.063-.393-.433-.818-.89-1.266-1.369v-.737c0-.352.231-.822.511-1.034l1.247-.963c.154-.118.281-.14.357-.077l.651.081c.009 0 .014 0 .018.005l.027.004v.005c.1.027.158.14.154.334l-.032 1.13c-.004.348-.199.863-.425 1.135z" fill="#000"/><path opacity=".1" d="M195.559 75.963c-.253-.276-.511-.556-.782-.845.547-.488 1.862-1.582 2.061-1.03 0 0 .113.226 0 .438-.064.118-.71.818-1.279 1.437z" fill="#000"/><path opacity=".5" d="M196.042 73.397c-.262.235-.479.719-.479 1.071-.307.226-.596.475-.791.65l-.122-.126v-.736c0-.353.231-.823.511-1.035l1.247-.963c.154-.117.281-.14.357-.076l.651.08c-.072 0-.163.041-.258.132l-1.116 1.003z" fill="#fff"/><path d="M215.99 110.128c-2.463 1.894-6.314 4.433-9.707 5.364-2.834.782-4.357-1.948-5.188-3.624 2.304-.719 5.504-2.052 9.106-4.018 3.809-2.083 5.612-4.017 6.362-5.201.511 1.374 1.144 2.992 1.297 3.466.199.646.588 2.124-1.87 4.013z" fill="#87969F"/><path d="M204.122 114.895a3.471 3.471 0 0 1-.519-.321c8.324-2.96 12.274-6.232 13.914-7.972.027.131.045.276.041.443-1.315 1.491-5.102 5.012-13.436 7.85zM201.985 112.581a16.04 16.04 0 0 1-.249-.447c2.567-.85 5.622-2.219 8.677-3.891 3.358-1.835 5.12-3.525 6.015-4.646l.176.466c-1.274 1.486-5.219 5.242-14.619 8.518z" fill="#141C1E"/><path d="M217.169 105.554c.077.212.145.388.194.524-1.5 1.636-5.472 5.093-14.158 8.152a5.634 5.634 0 0 1-.447-.497c8.717-3.032 12.771-6.426 14.411-8.179z" fill="#141C1E"/><path d="M216.794 104.56c.068.176.131.343.19.501-1.505 1.645-5.554 5.193-14.516 8.288a7.375 7.375 0 0 1-.244-.37c9.129-3.186 13.115-6.77 14.57-8.419zM217.309 107.994c-.249.511-.728 1.103-1.6 1.772-1.622 1.247-5.798 4.252-9.549 5.287a3.172 3.172 0 0 1-.849.122c-.163 0-.321-.018-.47-.045 7.099-2.495 10.782-5.428 12.468-7.136z" fill="#141C1E"/><path d="M197.055 111.759l-6.3.778s-1.785-.131-2.422 2.634c0 0 .985.629 5.698.814 4.714.181 6.761-.484 6.761-.484l-1.356-2.422c-.004 0-.637-1.532-2.381-1.32zM217.354 98.18c.511-1.488.33-2.328.321-2.36.109.109.226.217.33.321 0 0 1.198 1.912 1.97 4.65-.099.913-.411 2.16-1.256 3.611 0 0-.971-.42-1.658-3.448.004-.741-.082-1.677.293-2.775z" fill="#fff"/><path d="M200.042 111.537l-3.552-2.467-4.831-3.385-4.818-3.398a723.582 723.582 0 0 1-4.799-3.412 8.072 8.072 0 0 0-1.319-.538c-.461-.14-.936-.249-1.415-.32a11.038 11.038 0 0 0-2.915-.046l-.004-.04c.967-.181 1.961-.227 2.946-.123.493.055.981.145 1.46.271.483.132.949.285 1.41.52h.004l.009.005c1.632 1.098 3.259 2.2 4.881 3.312l4.867 3.331 4.858 3.344 3.932 2.729c-.253.082-.488.154-.714.217zM216.279 101.893l-8.862-9.187a272.465 272.465 0 0 0-4.673-4.74 32.426 32.426 0 0 0-1.206-1.135 5.15 5.15 0 0 1-1.053-1.347c-.534-1.012-.647-2.232-.299-3.298l.036.013a4.52 4.52 0 0 0 .498 3.154c.266.466.623.886 1.025 1.239.425.361.832.745 1.239 1.125 1.608 1.536 3.177 3.114 4.745 4.686a664.095 664.095 0 0 1 4.668 4.759c1.378 1.414 2.743 2.838 4.112 4.261a3.975 3.975 0 0 1-.23.47z" fill="#3A3939"/><path d="M153.952 77.843s-2.075.578-2.355-1.419c-.176-1.265.325-2.183 1.243-2.824a32.293 32.293 0 0 1 3.579 2.806c-.99.56-2.467 1.437-2.467 1.437z" fill="#445459"/><path opacity=".2" d="M192.771 87.279c2.209-1.618 3.461-3.037 4.026-3.819.565-1.18 1.324-2.553 1.333-2.919-5.608-6.616-12.147-11.424-13.964-12.753-1.902 1.794-4.74 3.819-8.46 6.042 8.668 4.537 13.946 9.544 17.065 13.449zM145.722 50.164a62.86 62.86 0 0 0-7.212 2.187c3.764.195 6.982.845 9.526 1.582a59.913 59.913 0 0 1 6.507-2.815c-4.157-.904-8.306-.954-8.821-.954z" fill="#fff"/><path opacity=".15" d="M217.476 95.626c.181.176.362.352.534.524 0 0 1.482 2.364 2.21 5.608-.199.99-.588 1.993-1.171 2.992l-.099.172-.186-.082c-.108-.049-1.098-.555-1.789-3.606l-.005-.027v-.027c0-.118 0-.235-.004-.362-.009-.682-.023-1.527.312-2.49.488-1.419.316-2.223.316-2.232l-.118-.47zM187.998 115.198c.655-2.833 2.459-2.91 2.739-2.901l6.272-.773c.127-.013.249-.023.371-.023 1.613 0 2.268 1.338 2.354 1.532l1.555 2.771-.393.126c-.068.023-1.677.533-5.274.533-.515 0-1.058-.009-1.604-.031-4.669-.181-5.758-.796-5.866-.863l-.204-.131.05-.24z" fill="#000"/><path d="M197.055 111.759l-6.3.778s-1.785-.131-2.422 2.634c0 0 .985.629 5.698.814 4.714.181 6.761-.484 6.761-.484l-1.356-2.422c-.004 0-.637-1.532-2.381-1.32zM217.354 98.18c.511-1.488.33-2.328.321-2.36.109.109.226.217.33.321 0 0 1.198 1.912 1.97 4.65-.099.913-.411 2.16-1.256 3.611 0 0-.971-.42-1.658-3.448.004-.741-.082-1.677.293-2.775z" fill="#F0F0F1"/><path d="M149.957 68.49c.131-.195 2.087-2.02 2.087-2.02l16.323-9.672 1.799 1.261 1.044 1.433-18.515 10.95-2.738-1.953z" fill="#000"/><path d="M149.957 68.336c.131-.194 2.087-2.02 2.087-2.02l16.323-9.67 1.799 1.26 1.044 1.433-18.515 10.954-2.738-1.957z" fill="#fff" stroke="#fff" stroke-width=".451" stroke-miterlimit="10"/><path d="M160.079 63.857s-1.392-1.351-1.523-1.496l-6.512 3.837s-1.956 1.826-2.087 2.02l2.738 1.957 7.646-4.528-.262-1.79z" fill="#ED1C24"/><path d="M164.174 61.435s.235 1.609.266 1.798l6.77-4.008-1.053-1.45-1.817-1.275-5.5 3.317c.127.122 1.334 1.618 1.334 1.618z" fill="#004EBB"/><path d="M137 89.484l.276-5.328 1.681.954c.637.361 1.053.623 1.243.786.294.249.533.565.718.945.186.38.271.786.249 1.206-.018.326-.091.57-.217.728a.722.722 0 0 1-.47.275c-.185.028-.371.01-.556-.054-.253-.09-.614-.27-1.089-.538l-.682-.388-.104 2.01-1.049-.596zm1.279-3.832l-.077 1.514.574.325c.411.235.692.362.832.385.14.022.257-.005.343-.077.086-.073.131-.19.14-.348a1.07 1.07 0 0 0-.14-.574 1.433 1.433 0 0 0-.411-.475c-.122-.095-.375-.248-.75-.465l-.511-.285zM141.759 89.476c.027-.543.131-.954.307-1.234.131-.203.307-.357.52-.457.217-.099.447-.13.696-.099.33.04.709.185 1.13.425a4.772 4.772 0 0 1 1.798 1.771c.434.746.628 1.555.583 2.423-.045.858-.307 1.405-.786 1.631-.479.226-1.103.127-1.867-.307a4.747 4.747 0 0 1-1.803-1.767 4.265 4.265 0 0 1-.578-2.386zm1.084.574c-.031.605.082 1.138.339 1.604.253.465.592.818 1.008 1.053.416.235.768.276 1.053.117.285-.158.443-.546.475-1.161.031-.61-.077-1.139-.321-1.59a2.587 2.587 0 0 0-1.017-1.04c-.434-.244-.786-.29-1.067-.136-.284.158-.438.542-.47 1.153zM147.507 95.44l.276-5.287 1.048.592-.226 4.388 2.608 1.478-.045.9-3.661-2.07zM151.877 97.913l.276-5.328 1.048.592-.275 5.328-1.049-.592zM157.345 98.997l.999.908c-.185.493-.466.777-.845.854-.375.077-.845-.04-1.401-.357-.692-.388-1.243-.953-1.663-1.69a4.248 4.248 0 0 1-.565-2.359c.045-.886.303-1.45.777-1.685.47-.24 1.071-.15 1.799.262a4.216 4.216 0 0 1 1.518 1.455c.226.361.384.79.479 1.283l-1.053-.334a2.04 2.04 0 0 0-.348-.872 2.09 2.09 0 0 0-.696-.642c-.384-.217-.705-.253-.958-.104-.253.149-.397.538-.429 1.175-.036.673.059 1.22.28 1.64.222.42.52.737.9.95.28.157.524.203.732.135.208-.077.366-.28.474-.62zM159.157 102.043l.276-5.328 3.85 2.183-.045.9-2.802-1.587-.058 1.18 2.607 1.477-.045.9-2.608-1.478-.076 1.451 2.901 1.645-.045.899-3.955-2.242z" fill="#000"/></g><g clip-path="url(#clip1)"><path d="M234.533 138.017c-2.931-1.684-7.66-1.684-10.572 0-2.931 1.684-2.931 4.42 0 6.109 2.912 1.689 7.646 1.689 10.572 0 2.926-1.689 2.926-4.425 0-6.109z" fill="#0032A5"/><path d="M242.141 110.769c-.124-.005-1.066 0-1.066 0l-.371.966s.476.475.457.68c.328 1.013.737 1.213.737 1.213l.847-2.436s-.2-.29-.604-.423z" fill="#F0C6B4"/><path d="M242.141 110.768l-.162.605.542.119s.419-.562.31-.667c-.11-.08-.69-.057-.69-.057z" fill="#F0C6B4"/><path d="M230.137 100.629l-1.161-.105s-1.78.257-1.666.467c.143.661-.157 1.251-.157 1.251v.552l.7 1.841.504 2.541 3.283-.504 1.585-1.609-2.118-2.788-.97-1.646z" fill="#C7A496"/><path d="M228.6 105.126l1.432 2.312 2.75-1.108-.899-2.655c-.69 1.575-3.283 1.451-3.283 1.451zM235.175 138.907c-.338-.257-2.731-.747-3.192-1.627-.186-.257-3.459.019-3.459.019s-.138 1.541 0 2.008c.157.476 2.869.181 2.869.181s2.564 1.122 4.063.442c.109-.167.062-.771-.281-1.023z" fill="#121214"/><path d="M228.857 121.06s.371 5.957.128 6.804c-1.289 3.982-.671 9.454-.628 9.787 1.342 1.299 3.963-.333 3.963-.333s-.732-3.312.138-9.621c.157-.499 2.189-5.01 2.156-10.719-.129-.31-5.757 4.082-5.757 4.082z" fill="#0F2034"/><path d="M226.226 140.229c.09-.399-2.532.186-2.532.186s.067 1.775.424 2.512c.728 1.485 2.693 1.29 2.883.838.347-.781-.875-2.532-.775-3.536z" fill="#121214"/><path d="M230.46 117.81l-4.358-.575s-.257.442-.552 1.27c-.309.833-.975 9.325-.975 10.819 0 1.142-1.066 2.256-1.261 3.183-.2.938-.238 7.052-.2 7.413.076.495.675 1.394 2.065 1.085 1.389-.295 1.656-1.427 1.656-1.427s-.096-6.695.846-8.117c1.171-1.727 2.779-9.54 2.779-9.54s2.817-.561 4.144-4.943c0-.3-.176-.743-.176-.743l-3.968 1.575z" fill="#1D374E"/><path d="M230.099 117.458s.085 1.018.085 1.346c.138.4 3.864-1.541 3.864-1.955 0-.262-.176-1.18-.176-1.18l-3.773 1.789z" fill="#121214"/><path d="M231.635 102.675l-.532 2.888-4.054-1.793 2.169 6.066.471 7.741s3.274-.366 4.178-2.032c-.01-.228-.424-8.764-.424-8.764l-1.808-4.106z" fill="#0F2034"/><path d="M236.455 107.752s-1.17-2.731-1.755-4.001c-.586-1.266-2.684-1.756-2.684-1.756l-.281 1.87 1.228.266 1.232 6.076s5.757 2.922 6.414 2.079c.219-.49.671-1.394.58-1.941-.142-1.118-4.734-2.593-4.734-2.593z" fill="#1D374E"/><path d="M233.048 118.091c1.385-.248 1.642-1.247 1.642-1.247v-1.456l-1.642 1.78v.923z" fill="#0F2034"/><path d="M231.635 102.099l-.742 1.751s1.056 1.094 1.323 2.503c.633 3.559.561 10.039.747 10.857.157.176 1.841-.671 1.841-2.093 0-1.237-.166-6.78-.285-8.588-.172-2.484-2.884-4.43-2.884-4.43z" fill="#174666"/><path d="M234.095 108.089l.086-.176-.148-.057c-.023-.014-.047-.024-.076-.038h-.009c-.043-.01-.091-.029-.095-.024-.024.014-.115.157-.153.186-.038.038-.138.024-.166.047-.043.024-.119.162-.157.195-.053.034-.148.029-.176.043-.01.024-.167.329-.157.357.014.029.085.014.104.119.01.076-.138.59-.028.818.019.038.038.048.057.077h.009c.01.019.039.019.048.023l.181.076.047-.114c.048-.028.086-.057.105-.057.029-.009.091.038.129.01.033-.029.071-.129.109-.176.033-.048.328-.262.371-.609.052-.343-.176-.59-.185-.671 0-.01.009-.019.009-.029h.095z" fill="#BA6000"/><path d="M234.249 107.946c0-.033-.2-.085-.219-.076-.019.01-.109.153-.147.181-.048.038-.138.029-.176.057-.029.019-.105.157-.157.186-.048.033-.148.028-.157.043-.02.014-.186.333-.167.361.01.024.086.01.1.114.005.081-.129.595-.019.819.105.238.4.019.442.009.043-.009.1.043.129.01.038-.024.071-.133.109-.181.034-.043.338-.267.371-.614.048-.338-.176-.58-.176-.661-.014-.114.057-.205.067-.248z" fill="#FF8400"/><path d="M231.045 103.18s-.299.228-.323.59c.442.418 1.042 1.398 1.042 1.398s.285-.789-.329-1.703c-.195-.228-.39-.285-.39-.285zM225.55 118.505c.095.618 2.94 2.374 5.886.447v-1.313l-5.886-.181v1.047zM227.168 101.947c-.324.519-.357.923-.357.923s2.308 1.618 3.44 3.274c.081-.148.385-.704.09-1.461-.295-.737-2.146-1.708-3.173-2.736z" fill="#0F2034"/><path d="M226.816 102.871s-1.861 1.827-2.95 2.517c-.076.532.851 5.685.851 5.685s.029 5.538.833 6.576c.799 1.023 2.041 1.156 2.94 1.156 1.675.005 2.403-.209 2.945-.876.386-.471-.204-7.436-.542-10.453-.252-2.407-4.077-4.605-4.077-4.605z" fill="#174666"/><path d="M231.45 97.327c-.138-.033-1.585-.5-1.585-.5h-1.398l-1.214 1.361-.2 1.675s.015.367.1.999c.134.904.966.961.966.961s.114.614.267.862c.166.233 1.608 1.479 2.455 1.627.48.085 1.047-.257 1.146-.524.096-.271.552-2.602.481-3.187 0 0 .205-.243.205-.386-.01-.133.066-1.808-1.223-2.888z" fill="#F0C6B4"/><path d="M231.635 102.87s.8.043.8-.157c0-.381-.424-1.247-.424-1.247l-.376 1.404z" fill="#F0C6B4"/><path d="M229.456 96.22c-1.537 0-2.25 1.075-2.445 1.784-.524 1.817.138 2.864.138 2.864s-.019-.762.385-.804c.423-.029.628 1.194 1.051 1.17.229-.014.457-.704.571-1.28.1-.49-.923-1.28-.456-1.789.461-.518 1.941.923 2.769.414.295-.1.433-2.26-2.013-2.36z" fill="#603913"/><path d="M230.541 101.966a.586.586 0 0 0-.048.262c0 .228.072.49.286.456.514-.147.79-.656.89-1.008.047-.205.047-.362.009-.381-.133-.033-1.056.471-1.137.671z" fill="#303033"/><path d="M230.669 101.947c-.047.019-.095.105-.1.176 0 .081.019.138.058.124.038-.024.066-.095.09-.176.009-.086-.019-.134-.048-.124z" fill="#fff"/><path d="M228.086 100.686l2.27 1.532.114-.243-2.512-1.503.128.214zM230.984 99.02l2.279 1.538.109-.248-2.507-1.499.119.21z" fill="#121212"/><path d="M233.21 100.291c-.066-.104-1.156.533-1.223.7a.166.166 0 0 1-.019.071l-.228.129c0-.015-.01-.029-.024-.048-.057-.09-1.151.523-1.218.714-.014.042-.024.085-.033.123l-.129.091.01.152.128-.057c.01.067.024.119.024.119 0-.124.01-.228.029-.281.09-.228 1.018-.747 1.146-.685.038.024.029.205-.028.438l.009-.005s.057-.105.081-.228l.248-.134a.361.361 0 0 0 .076.134l.014-.015c-.062-.166-.081-.337-.033-.404.128-.209 1.056-.766 1.146-.633.019.033.019.129.029.257 0 0 .019-.067.029-.152l.118-.091.015-.166-.129.071c-.009-.052-.019-.081-.038-.1zm-1.261.995l-.185.119v-.048l.185-.114v.043z" fill="#121212"/><path d="M232.04 101.086c-.048.071-.048.233.019.371.09.243.361.428.875-.014.229-.228.286-.562.286-.785-.01-.114-.019-.195-.038-.219-.091-.109-1.014.466-1.142.647z" fill="#303033"/><path d="M232.149 101.062c-.043.014-.076.1-.076.176 0 .086.019.133.067.105.038-.014.076-.095.076-.176 0-.081-.029-.124-.067-.105z" fill="#fff"/><path d="M228.667 100.467s1.755 1.999 3.844.4c.956-.733.128-2.013.128-2.013l-3.972 1.613z" fill="#000"/><path d="M231.764 96.695c-1.156-.671-3.036-.671-4.187 0-.581.333-.866.775-.866 1.213v.947c0 .442.281.885.866 1.208 1.156.671 3.035.671 4.187 0 .58-.323.875-.766.875-1.208v-.947c0-.438-.295-.88-.875-1.213z" fill="#0F2034"/><path d="M231.854 96.4c-1.213-.714-3.183-.714-4.401 0-1.218.699-.742 2.264-.076 2.987 1.29.638 3.074.405 4.187-.256 1.527-.904 1.998-2.25 1.998-2.25l-1.213-.12a1.99 1.99 0 0 0-.495-.361z" fill="#1D374E"/><path d="M232.501 96.23c-1.46-.847-3.835-1.133-5.31-.281-1.46.847-1.46 2.503 0 3.354 1.475.843 3.854-.98 5.31-1.831.738-.42 1.104-.548 1.104-.662v-.214h-.423c-.167-.09-.395-.205-.681-.366z" fill="#174666"/><path d="M232.501 95.948c-1.46-.847-3.835-.847-5.31 0-1.46.847-1.46 2.217 0 3.064 1.475.847 3.854-.885 5.31-1.732 1.48-.852 1.48-.485 0-1.332z" fill="#2B5E85"/><path d="M232.216 98.322c0-.03-.195-.105-.219-.105-.019.005-.129.147-.176.171-.052.033-.148.01-.186.033-.038.024-.128.157-.185.186-.043.019-.143.01-.172.019-.019.019-.218.328-.209.352 0 .029.091.029.1.129 0 .085-.209.599-.128.846.085.248.423.062.461.058.038-.01.09.042.129.023.038-.023.085-.128.128-.18.048-.048.376-.238.462-.59.09-.343-.119-.619-.11-.705.005-.114.081-.195.105-.237z" fill="#FF8400"/><path d="M228.271 112.895c-.48-.233-2.797.357-2.797.357l.932-4.635s.828-3.149-1.432-3.43c-1.86-.233-2.179 1.913-2.35 2.698-.238 1.037-1.009 7.141 0 7.979.994.837 5.467.057 6.118-.662.548-.59.034-2.069-.471-2.307z" fill="#1D374E"/><path d="M231.288 111.854l.11.813h.394s.195-.314 0-.599c-.195-.281-.504-.214-.504-.214z" fill="#C7A496"/><path d="M231.35 110.636c.1-.038.561-.166.561-.166l.129.509-.833.281c-.005 0-.224-.433.143-.624z" fill="#A7A9AC"/><path d="M231.331 110.95l1.931-1.118a.243.243 0 0 1 .196-.024l.028.014.133.076-.133.305v2.988a.673.673 0 0 1-.304.518l-1.761 1.023-.124.262-.157-.091c-.066-.023-.114-.095-.114-.199v-3.231a.67.67 0 0 1 .305-.523z" fill="#3C2415"/><path d="M231.502 111.045l1.932-1.109c.162-.1.299-.019.299.171v3.231a.68.68 0 0 1-.299.519l-1.932 1.108c-.162.1-.295.024-.295-.171v-3.231a.653.653 0 0 1 .295-.518z" fill="#603913"/><path d="M231.35 110.636l2.165-1.094c1.356.637.085 2.555.242 3.382-.209.119-2.279 1.318-2.279 1.318-.033-1.846 1.285-2.474-.128-3.606z" fill="#fff"/><path d="M231.121 112.453l-.09-.571a4.03 4.03 0 0 0-.59.119c-.39.143-.747.509-1.242.876-.499.361-.847 1.013-.847 1.013l.314.757h.876c.809-.176 1.656 0 2.169-.124.505-.138 1.794-1.385 1.138-2.522-.253-.347-1.533.809-1.728.452z" fill="#F0C6B4"/><path d="M229.199 112.876c-.085 0-.632.196-1.027.257-.4.048-.276 1.813.494 1.761.238 0 .876-.248.876-.248s-.923-.756-.343-1.77zM240.904 110.331c-.476-.005-.947 1.656-.652 1.818.29.166.914.266.914.266s-.024-1.085.98-1.646c-.286-.229-1.076-.39-1.242-.438z" fill="#0F2034"/><path d="M228.98 107.31l.362 2.641.619.257.48-3.293-.618-.257-.843.652z" fill="#303033"/><path d="M228.947 105.245l.276 1.994c.005.014.019.033.038.038a.169.169 0 0 0 .157-.014c.01-.015.024-.034.024-.048l-.267-1.998-.228.028z" fill="#121214"/><path d="M228.971 105.193c-.038.033-.029.076.01.086.048.024.12.014.158-.019.043-.029.034-.067-.01-.082-.048-.019-.105-.009-.158.015z" fill="#303033"/><path d="M229.608 107.566l.352 2.641.847-.652-.366-2.64-.833.651z" fill="#121214"/><path d="M229.77 107.785l.148 1.08.613-.471-.147-1.075-.614.466z" fill="#16A89F"/><path d="M243.601 111.678s-.59-.295-.927.575c-.619 1.551-.381 1.789-.381 1.789s.766.7 1.47-.733c.633-1.27-.162-1.631-.162-1.631z" fill="#F0C6B4"/><path d="M242.959 110.155l-.561 4.748.29.053.543-1.433.261-.252.757-1.984-1.047-1.066-.243-.066z" fill="#000"/><path d="M241.76 113.887l.638 1.018.523-1.642.29-.228.643-1.894-.89-.975-.828 2.293.029.376-.405 1.052z" fill="#4D4D4D"/><path d="M242.664 111.373l.628.757.262-.724-.638-.685-.252.652zM243.492 110.63s.057-.304.267-.209c.209.095 1.318 1.208 1.318 1.208l-.229.281-1.356-1.28z" fill="#fff"/><path d="M242.184 111.459c-.162.423-.129.828.066.894.2.081.5-.204.657-.623.162-.424.128-.823-.071-.904-.214-.067-.505.209-.652.633z" fill="#F0C6B4"/><path d="M242.502 113.214a.15.15 0 0 1-.133-.095c-.043-.1-.033-.267.034-.438.066-.171.166-.304.266-.347a.165.165 0 0 1 .124-.01.15.15 0 0 1 .085.086c.043.1.034.266-.033.438-.067.171-.167.304-.266.347a.17.17 0 0 1-.077.019zm.234-.795c-.01 0-.019.005-.029.01-.062.028-.147.128-.209.29-.062.162-.062.295-.034.357.01.019.019.029.029.033.009.005.024 0 .043-.004.062-.029.147-.129.209-.291.062-.161.062-.295.033-.357a.068.068 0 0 0-.028-.033c-.005-.005-.01-.005-.014-.005z" fill="#fff"/><path d="M252.242 147.918c-2.931-1.684-7.66-1.684-10.572 0-2.931 1.684-2.931 4.42 0 6.109 2.912 1.689 7.646 1.689 10.572 0 2.926-1.694 2.926-4.425 0-6.109z" fill="#0032A5"/><path d="M252.332 117.701c.219.409 1.014 2.854 1.266 5.295.114 1.128-1.994 7.27-1.994 7.27s-1.246-5.624-1.156-7.841c.091-2.217.133-4.096.133-4.096l1.751-.628z" fill="#F0C6B4"/><path d="M250.748 131.403s-.248-.147-.5-.309c-.319-.204-.87.176-.556.386.309.199.461.304.461.304l.595-.381z" fill="#DDD"/><path d="M247.313 146.467c.404-.252 2.464.947 2.464.947l2.655.89v1.898s-1.042 1.384-2.441.442c-.832-.561-2.298-1.436-2.764-2.393-.466-.961-.319-1.532.086-1.784zM240.98 149.588c.404-.252 2.464.947 2.464.947l2.841.951-.219 2.142s-1.009 1.08-2.412.138c-.833-.562-2.298-1.437-2.765-2.394-.461-.956-.314-1.527.091-1.784z" fill="#121214"/><path d="M250.976 125.894s1.147 2.25 1.352 4.962c.09 1.223-.581 8.089-.581 8.089s.309.894.562 2.631c.314 2.184.528 7.646.532 7.441 0 0-.704.961-1.655.98-1.152.019-2.046-1.38-2.046-1.38s-1.271-7.541-1.347-9.463c-.047-1.204.11-5.534.11-5.534s-1.233 5.743-1.137 7.209c.095 1.465-.186 10.091-.267 10.695-.243.881-.961 1.123-1.727 1.295-.971.214-2.246-1.585-2.246-1.585s.076-9.792 0-11.333c-.128-2.631 1.156-12.932 1.156-12.932l7.294-1.075z" fill="#3F1D28"/><path d="M250.667 118.823c-.152-.033-.414-1.722-.414-1.722l-.737-3.026s.571-.88 1.703.176c.419.395 1.703 2.403 1.703 4.115-.642.538-1.446.628-2.255.457z" fill="#40B32A"/><path d="M246.48 107.795c.775-.538 2.26-.372 2.907.994.357.756-.147 2.783-.228 4.211-.067 1.151.318 1.812.318 1.812l-.984.405c-.985.404-2.013 0-2.013 0l.033-1.756s-1.061-.157-1.246-.328c-.448-.409-.685-1.632-.476-3.202.304-2.341 1.403-1.941 1.689-2.136z" fill="#F0C6B4"/><path d="M243.815 121.079c-.551-1.29.752-3.574 1.133-4.401.38-.828 1.589-1.333 1.589-1.333l3.626-1.094s2.179 1.699 1.869 5.01c-.109 1.171-.109 5.619.024 8.869-.319 1.261-4.244 2.103-5.89 1.665-.509-.138-2.184-.342-2.717-1.356-.157-.69.243-1.27.433-2.564.233-1.632.271-4.007-.067-4.796z" fill="#54C735"/><path d="M246.656 114.86s1.903-.499 2.86-.994c.58-.3.932.994.932.994s-.685.847-1.684 1.166c-1.004.319-1.908.257-2.893-.228-.009-.648.785-.938.785-.938z" fill="#40B32A"/><path d="M243.259 119.285s-.928 2.688-1.332 3.635c-.405.947-.98 4.025-1.176 5.186-.195 1.161-1.113 1.994-1.084 3.207.028 1.213-.062 1.918.618 2.122.333.1.7-.081.971-.647.176-.361.138-.866.176-1.227.038-.348.152-.457.185-.357.167.48.295.761.419.837.395.243.29-.285.095-.97-.195-.686-.204-1.675.091-2.403 1.751-4.254 2.688-5.924 2.831-7.751.052-.623-1.794-1.632-1.794-1.632z" fill="#F0C6B4"/><path d="M241.789 120.36c.761-1.594 2.126-3.93 3.492-4.377.614-.205 1.27 1.313 1.085 2.812-.114.947-.433 2.669-1.061 3.721-1.218 0-2.926-1.061-3.516-2.156z" fill="#40B32A"/><path d="M248.892 106.834c.362-.229.819.076.876.475.333-.147.675.262.561.547.457-.047.605.491.329.847.547.214.461.633.166.995.39.328.39.766-.109.932.395.324.081.743-.148.743.271.352.01.751-.304.737.314.433 0 .89-.295.942.081.376-.148.681-.457.619-.162.723-.918.418-.98.152-.252.162-.676.157-.742-.243-.405.214-.904-.495-.681-.856-.49-.276-.637-.476-.342-.871-.605-.043-.738-.381-.524-.828-.342.148-.585.067-.723-.471-.385.062-.766-.447-.438-.899-.456-.162-.423-.633-.128-.785-.343-.1-.476-.866.1-.904-.262-.619.066-.847.495-.752.009-.499.318-.728.842-.428.261-.476 1.184-.757 1.337-.167.28-.447 1.037-.361 1.165.215z" fill="#3B230C"/></g><defs><linearGradient id="paint0_linear" x1="188.336" y1="114.312" x2="169.748" y2="114.312" gradientUnits="userSpaceOnUse"><stop stop-color="#fff"/><stop offset=".521" stop-color="#fff"/><stop offset="1" stop-color="#fff"/></linearGradient><linearGradient id="paint1_linear" x1="174.148" y1="112.311" x2="182.642" y2="121.372" gradientUnits="userSpaceOnUse"><stop stop-color="#C1C0C0"/><stop offset="1" stop-color="#DEDDDC"/></linearGradient><clipPath id="clip0"><path fill="#fff" transform="translate(109 46.305)" d="M0 0h226v108.038H0z"/></clipPath><clipPath id="clip1"><path fill="#fff" transform="translate(221.763 95.31)" d="M0 0h32.673v59.978H0z"/></clipPath></defs></svg>