<svg width="375" height="156" fill="none" xmlns="http://www.w3.org/2000/svg" viewBox="0 0 375 156"><path d="M375 0H0v156h375V0z" fill="#F5FCFF"/><path d="M187.5 139.244c61.027 0 110.5-18.496 110.5-41.313 0-22.816-49.473-41.312-110.5-41.312S77 75.115 77 97.932c0 22.816 49.473 41.312 110.5 41.312z" fill="#004EBB"/><path d="M263.871 93.511c2.807 1.631 2.798 4.287-.027 5.909l-58.653 35.854c-2.821 1.622-11.977 2.081-14.789.45l-87.303-50.647c-2.807-1.63-2.798-4.29.022-5.908l63.208-36.318c2.82-1.622 7.427-1.613 10.234.013l87.308 50.647z" fill="#0032A5"/><path d="M272.88 92.246l.12 2.87c-.182 1.029-.708 1.933-2.241 2.931l-63.207 36.318c-2.821 1.622-7.428 1.613-10.235-.013l-87.303-50.647c-1.43-.829-1.934-1.63-1.996-2.522l-.103-3.24 65.328-36.468c2.821-1.622 7.428-1.613 10.235.013l89.402 50.758z" fill="url(#paint0_linear)"/><path d="M270.786 89.444c2.807 1.63 2.798 4.286-.026 5.908l-63.208 36.318c-2.82 1.622-7.427 1.613-10.234-.014l-87.304-50.647c-2.807-1.63-2.798-4.29.023-5.908l63.207-36.318c3.101-1.875 7.125-1.817 10.235.014l87.307 50.647z" fill="#7DCDFF"/><path d="M202.45 132.463c-1.631 0-3.596-.459-4.34-.905l-87.303-50.647c-1.265-.735-2.063-1.724-2.063-2.954 0-1.207.811-2.018 2.085-2.753l63.208-36.318c1.163-.669 2.695-1.038 4.317-1.038 1.631 0 3.173.374 4.34 1.047l87.308 50.647c1.265.735 2.147 1.688 2.147 2.793 0 1.11-.891 2.18-2.17 2.914l-63.207 36.318c-.967.432-2.7.896-4.322.896z" fill="#3BB4FF"/><path d="M172.349 50.212l-2.616-1.52c-1.323-.77-3.35-.904-4.923-.405a.978.978 0 0 0-.348.031c-.004 0-.962-.552-.962-.552a.76.76 0 0 0-.749-.005l-39.173 22.26a.347.347 0 0 0 0 .602l.998.58c-1.613.926-1.591 2.499.013 3.43l2.62 1.52c1.604.93 4.237.935 5.85.008L172.34 53.59c1.608-.926 1.617-2.446.009-3.377zm-1.471 2.53l-39.28 22.573c-.807.463-2.121.463-2.923-.004l-2.62-1.52c-.802-.468-.802-1.225.009-1.689l.031-.017.089.049.214.124 1.8 1.043 39.855-22.902-2.196-1.274.223.129c.735-.156 1.595-.067 2.187.276l2.616 1.52c.806.468.802 1.225-.005 1.693z" fill="#97A2C9"/><path d="M169.3 50.07l-39.856 23.155-4.54-2.633a.497.497 0 0 1-.249-.45l.026-.877 39.473-22.176 5.146 2.98z" fill="#BFCCD9"/><path d="M262.488 92.83l-62.334 35.819-82.25-47.716 62.329-35.818 82.255 47.715z" fill="#D5D9EB"/><path d="M262.488 91.814l-62.334 35.819-82.25-47.715 62.329-35.819 82.255 47.715z" fill="#EAECF5"/><path d="M262.49 90.798l-62.334 35.819-82.251-47.715 62.33-35.819 82.255 47.715z" fill="#fff"/><path d="M173.77 52.916c-10.77 6.19-29.991 17.355-39.281 22.572-.94.53-2.807.303-2.807.303l42.988-24.283c0-.004.111.825-.9 1.408z" fill="#979797"/><path d="M172.643 53.75l-39.281 22.572c-1.613.927-4.241.922-5.845-.01l-2.545-1.474 1.466-.842 2.54 1.475c.802.468 2.116.468 2.927.004l39.277-22.572c.806-.463.81-1.22.004-1.689l-2.54-1.474 1.462-.843 2.544 1.475c1.608.931 1.604 2.45-.009 3.378z" fill="#D5D9EB"/><path d="M165.833 47.988l1.529.887c.735-.156 1.595-.067 2.187.276l2.616 1.52c.806.467.802 1.225-.009 1.688l-39.281 22.572c-.806.464-2.121.464-2.923-.004l-2.62-1.52c-.802-.467-.824-1.202-.017-1.666 0 0 .151-.205.151-.459 0-.307-.022-.303-.022-.303l-1.533-.124-1.234.855s-.058.232-.014.838c.045.614.393 1.234 1.199 1.702l2.62 1.52c1.604.93 4.237.935 5.85.008l39.281-22.572c.833-.481 1.212-1.119 1.212-1.751v-.802l-3.819-2.34c-1.39-.815-3.564-.922-5.173-.325z" fill="#BFCCD9"/><path d="M165.835 47.316l1.528.886c.735-.156 1.595-.066 2.188.277l2.615 1.519c.807.468.802 1.225-.008 1.689l-39.277 22.567c-.806.464-2.121.464-2.923-.004l-2.619-1.52c-.802-.467-.802-1.225.008-1.688l.032-.018 1.087-.65c-.067-.16-1.145-1.159-1.145-1.159l-1.462.927c-1.613.927-1.59 2.5.014 3.43l2.62 1.52c1.604.931 4.237.936 5.85.009l39.28-22.572c1.613-.927 1.618-2.446.014-3.378l-2.616-1.519c-1.403-.806-3.578-.913-5.186-.316z" fill="#E6EDF7"/><path d="M169.337 49.343L129.481 72.25l-1.8-1.042-.214-.125s-.026-.263-.164-.548a1.776 1.776 0 0 0-.121-.196 1.141 1.141 0 0 0-.361-.339c-.035-.017-.075-.04-.116-.058a.62.62 0 0 0-.445-.017c-.218.062-.401.227-.401.227l-1.003-.58a.348.348 0 0 1 0-.6l39.179-22.261a.748.748 0 0 1 .748.004l.958.557c.045-.009.281-.084.606.018a1.072 1.072 0 0 1 .227.098l.027.014c.013.004.031.022.054.035.049.031.089.067.129.103l.022.022c.062.062.111.125.156.183l.013.017c.067.098.112.188.138.245l.027.072 2.197 1.265z" fill="#F7F9FC"/><path d="M168.828 49.05l.508.293-39.855 22.907-.575-.335 39.922-22.866z" fill="#E6EDF7"/><path d="M166.788 48.154l-39.486 22.973s-.009-.285-.111-.508c-.036-.067-.232-.46-.575-.57a1.026 1.026 0 0 0-.758.097l39.793-22.777c.045-.009.303-.075.606.018a1.086 1.086 0 0 1 .228.098c.009.005.017.01.026.013.014.005.032.023.054.036a.993.993 0 0 1 .129.103l.022.022c.063.062.112.125.156.183.005.004.009.013.014.017.071.103-.098.294-.098.294z" fill="#BFCCD9"/><path d="M167.239 48.127l-39.771 22.95s-.076-.383-.152-.539c-.049-.098-.249-.499-.61-.597-.464-.125-.562.08-.847.21l-.026-.014 39.908-22.87c.045-.01.384-.335.843-.085.222.133.423.392.561.722.018.03.094.222.094.222z" fill="url(#paint1_linear)"/><path d="M147.08 69.104l-18.215 10.591 30.869 17.831 8.332-.418 17.648-10.556 5.383 3.204 7.365-.036-8.827-5.093-42.555-15.523z" fill="#EBF1FF"/><path d="M247.741 89.507c.392-.228.401.472.013.703-2.401 1.382-4.794 2.754-7.191 4.13a10.16 10.16 0 0 0-.388.237c-.102.062-.209.125-.312.192-.525.311-1.078.583-1.457.423-.414-.165-.334-.57-.325-.99-.601.914-1.591 2.206-2.259 2.603-.343.205-.606.174-.691-.263-.053-.276.054-.615.103-.931.027-.179-.049-.196-.174-.12-.263.155-.762.712-1.078 1.069a54.903 54.903 0 0 0-3.061 3.791.633.633 0 0 1-.147.139c-.134.08-.272.053-.303-.085a2.754 2.754 0 0 1-.076-.606c-1.016 1.243-2.214 2.464-3.342 3.128a5.189 5.189 0 0 1-.494.258c-1.399.62-2.932.771-3.351-.69-.347-1.217.063-3.012.615-4.599 1.319-3.742 3.881-7.213 6.715-9.299.387-.231.378.433.009.705-1.921 1.412-3.685 3.515-4.991 5.93-1.154 2.134-2.535 5.676-1.586 7.142.539.833 1.925.508 3.088-.178a6.38 6.38 0 0 0 .789-.548c.882-.726 1.817-1.747 2.619-2.767.058-.352.143-.722.241-1.114.267-1.065.561-2.38 1.069-3.44.219-.454.486-.77.731-.917.352-.21.66-.067.704.517.107 1.439-1.02 3.497-2 4.825l-.188.25a2.954 2.954 0 0 0-.017.396 55.728 55.728 0 0 1 4.362-5.088.382.382 0 0 1 .08-.063c.08-.049.169-.058.218-.022.267.183.285.481.218.967-.031.174-.066.347-.102.526-.076.36.067.41.285.28.201-.116.464-.383.695-.695.486-.66.963-1.443 1.332-2.01a.739.739 0 0 1 .223-.227c.125-.07.236-.053.294.08.103.241.049.522.054.727.031.606.45.65.802.454.044-.022.142-.08.285-.164.245-.143.61-.361 1.007-.597.419-.25.869-.517 1.247-.745.219-.129.415-.245.566-.33 1.711-.997 3.44-1.99 5.169-2.984zm-16.459 8.1a3.043 3.043 0 0 0-.049.205 9.127 9.127 0 0 0 1.007-1.938c.133-.366.303-.767.303-1.252-.005-.139-.045-.165-.103-.13-.116.067-.298.37-.383.513-.374.766-.584 1.849-.775 2.602z" fill="#004EBB"/><path d="M154.632 72.922l-11.424 6.599-2.05-1.185 11.425-6.6 2.049 1.186zM162.158 68.543l-5.543 3.199-2.05-1.185 5.543-3.2 2.05 1.186zM184.368 55.755l-19.814 11.424-2.05-1.18 19.814-11.425 2.05 1.181zM178.707 74.086l18.705-10.8-2.05-1.181L176.658 72.9l2.049 1.186zM158.727 85.617l17.319-9.994-2.049-1.186-17.319 9.999 2.049 1.18zM151.798 89.622l4.59-2.624-2.05-1.181-4.589 2.62 2.049 1.185zM167.585 70.276l-24.644 14.231-2.049-1.185 24.644-14.227 2.049 1.181zM192.929 60.696l-45.612 26.338-2.05-1.186 45.612-26.332 2.05 1.18zM192.05 77.25l-30.837 17.804-2.05-1.181 30.838-17.805 2.049 1.181zM188.553 58.17l-18.544 10.707-2.05-1.18 18.545-10.708 2.049 1.181zM177.362 80.136l24.617-14.213-2.049-1.18-24.618 14.213 2.05 1.18zM156.367 92.26L174.67 81.69l-2.049-1.185-18.304 10.569 2.05 1.185zM186.079 86.958L166.63 98.186 164.585 97l19.445-11.229 2.049 1.186zM197.909 80.091l-9.526 5.499-2.05-1.181 9.527-5.503 2.049 1.185zM212.243 71.85l-11.932 6.879-2.05-1.186 11.932-6.875 2.05 1.181zM206.586 90.18l18.704-10.797-2.049-1.185-18.705 10.8 2.05 1.181zM186.606 101.715l17.319-9.999-2.05-1.185-17.319 9.999 2.05 1.185zM179.677 105.716l4.59-2.62-2.05-1.185-4.589 2.62 2.049 1.185zM193.861 87.3l-23.04 13.301-2.049-1.18 23.04-13.305 2.049 1.185zM220.803 76.794l-45.612 26.333-2.049-1.185 45.612-26.333 2.049 1.185zM213.131 97.273l-24.043 13.879-2.049-1.185 24.042-13.88 2.05 1.186zM216.677 108.634l-10.729 6.198-2.05-1.185 10.729-6.198 2.05 1.185zM216.432 74.268l-20.148 11.634-2.05-1.185 20.149-11.634 2.049 1.185zM204.945 96.403l24.911-14.382-2.05-1.186-24.911 14.383 2.05 1.185zM184.245 108.353l18.304-10.568-2.05-1.181-18.304 10.564 2.05 1.185z" fill="#BFCCD9"/><path d="M226.263 73.67l-27.799 16.05V50.952l27.799-10.654v33.373z" fill="#EFF4FC"/><path d="M226.263 47.784l-11.71 1.381-16.089 16.432V50.952l27.799-10.654v7.486z" fill="#E1E6F0"/><path d="M198.464 89.72l-8.826-5.093-18.968-38.754 27.794 16.049V89.72z" fill="#BFCCD9"/><path d="M196.441 68.23L153.748 43.61l4.411-4.064 40.305 22.377v3.675l-2.023 2.634z" fill="#9DB2C9"/><path d="M189.638 84.627l-1.836 1.06-.704-.262-16.093 9.504.004.477-2.941 1.702V69.314l21.57-18.06v33.373z" fill="#EFF4FC"/><path d="M168.067 97.108l-29.473-16.606v-21.28l29.473 10.092v27.794z" fill="#BFCCD9"/><path d="M166.045 81.174l-27.451-15.848v-7.192l29.473 16.736v3.675l-2.022 2.63z" fill="#9DB2C9"/><path d="M156.25 82.163l5.511 3.257.201-6.844-5.628-3.19-.084 6.777z" fill="#BFCCD9"/><path d="M154.977 82.899l6.568 3.787.307-1.791-5.169-2.985-1.706.989z" fill="#F7F9FC"/><path d="M154.977 82.899l3.377-.023-1.671-.966-1.706.989zM154.977 82.898v-8.256l1.706.887v6.38l-1.706.99z" fill="#E6EDF7"/><path d="M154.949 77.917V74.95l1.733 1.016.005 3.038-1.738-1.087z" fill="#E6EDF7"/><path d="M162.114 81.187l-.009-.517-5.792-3.346-.442.259 6.243 3.604z" fill="#616B8C"/><path d="M155.871 77.583l.442-.259.022-1.938-.459.25-.005 1.947z" fill="#616B8C"/><path d="M155.875 75.39l-.004 2.192 6.086 3.516c0 .183 0 .36.005.543l-6.563-3.787.009-2.762c.084.062.401.258.467.298z" fill="#3D4663"/><path d="M161.32 86.316l.441-.254-6.372-3.68-.441.258 6.372 3.676z" fill="#7E87A8"/><path d="M154.948 82.64l.441-.258.023-7.32-.441.258-.023 7.32zM161.787 87.126l.441-.258.022-8.394-.441.254-.022 8.398z" fill="#616B8C"/><path d="M161.811 78.728l.441-.254-7.307-4.22-.441.254 7.307 4.22z" fill="#7E87A8"/><path d="M161.789 87.127l-7.308-4.22.023-8.398 7.307 4.22-.022 8.398zm-6.84-4.487l6.372 3.676.022-7.32-6.372-3.676-.022 7.32z" fill="#3D4663"/><path d="M157.676 78.109l.767.445-.143-1.31-.731-.423.107 1.288zM159.129 78.946l.276.16-.165-1.323-.245-.142.134 1.305zM144.086 75.142l5.512 3.257.2-6.84-5.627-3.194-.085 6.777z" fill="#BFCCD9"/><path d="M142.811 75.877l6.568 3.787.307-1.791-5.168-2.985-1.707.989z" fill="#F7F9FC"/><path d="M142.811 75.877l3.382-.022-1.675-.967-1.707.989z" fill="#E6EDF7"/><path d="M142.811 75.877v-8.252l1.707.887v6.376l-1.707.989z" fill="#E6EDF7"/><path d="M142.786 70.896v-2.968l1.733 1.016.004 3.043-1.737-1.091z" fill="#E6EDF7"/><path d="M149.955 74.165l-.014-.517-5.792-3.346-.441.259 6.247 3.604zM143.708 70.56l.441-.258.022-1.938-.459.25-.004 1.946z" fill="#616B8C"/><path d="M143.715 68.369l-.005 2.192 6.086 3.515c0 .183 0 .361.005.544l-6.563-3.787.009-2.763c.084.067.396.263.468.299z" fill="#3D4663"/><path d="M149.154 79.3l.441-.26-6.371-3.675-.441.254 6.371 3.68z" fill="#7E87A8"/><path d="M142.783 75.618l.441-.253.022-7.321-.441.254-.022 7.32zM149.623 80.105l.441-.254.023-8.398-.441.258-.023 8.394z" fill="#616B8C"/><path d="M149.645 71.71l.441-.258-7.307-4.22-.441.26 7.307 4.219z" fill="#7E87A8"/><path d="M149.625 80.106l-7.307-4.22.022-8.399 7.307 4.22-.022 8.399zm-6.84-4.487l6.372 3.676.022-7.32-6.371-3.677-.023 7.32z" fill="#3D4663"/><path d="M145.513 71.091l.766.442-.143-1.31-.73-.424.107 1.292zM146.97 71.929l.271.156-.164-1.319-.245-.142.138 1.305z" fill="#BFCCD9"/><path d="M165.064 79.165l-28.868-16.802-.744-1.582 28.868 16.802.744 1.582z" fill="#003382"/><path d="M190.743 58.281l-22.675 20.264-.009-3.065 22.118-20.67.566 3.471z" fill="#E1E6F0"/><path d="M164.32 77.583l-28.868-16.802 25.312-23.748 28.868 16.802-25.312 23.748z" fill="#0046B4"/><path d="M189.634 53.834l.009 2.366-24.578 22.965-.744-1.582 25.313-23.748z" fill="#507DCD"/><path d="M164.556 77.672l25.094-23.806-25.344 23.504-28.841-16.558 28.734 16.95.878 1.434-.521-1.523z" fill="#0046B4"/><path d="M213.432 44.665l-40.363-23.588 18.78-1.738 40.364 23.593-18.781 1.733z" fill="#0069DC"/><path d="M195.451 66.168L155.087 42.58l-.744-1.586 40.364 23.592.744 1.582z" fill="#003382"/><path d="M194.707 64.586l-40.364-23.593 18.727-19.916 40.363 23.588-18.726 19.92z" fill="#0046B4"/><path d="M213.433 44.665l18.781-1.733-.731 2.432-18.041 1.671-17.992 19.133-.744-1.582 18.727-19.921z" fill="#507DCD"/><path d="M184.469 24.147l3.979 2.281 2.294.633-3.176-4.754-3.097 1.84z" fill="#E6EDF7"/><path d="M195.412 19.696l-4.67 2.695-4.669-2.695L190.742 17l4.67 2.696z" fill="#F7F9FC"/><path d="M190.742 18.136l2.7 1.56-2.7 1.56v-3.12z" fill="#BFCCD9"/><path d="M195.411 25.769l-4.669 1.292v-4.67l4.669-2.695v6.073z" fill="#EFF4FC"/><path d="M190.742 27.06l-4.669-2.695v-4.67l4.669 2.696v4.67z" fill="#BFCCD9"/><path d="M188.037 19.696l2.704-1.56v3.12l-2.704-1.56z" fill="#E6EDF7"/><path d="M194.926 64.635l18.508-19.97-18.762 19.672-40.328-23.343 40.23 23.74.877 1.434-.525-1.533z" fill="#0046B4"/><path d="M187.097 85.425l-16.094 9.504V78.27l16.793-9.73-.699 16.886z" fill="#CAD8ED"/><path d="M187.802 85.688l-.704-.263V69.03l.699-.49.005 17.15z" fill="#BFCCD9"/><path d="M187.796 69.028l-16.793 9.731v-.49l16.793-9.73v.49zM187.098 73.893l-16.094 9.33v-.49l16.094-9.33v.49zM187.098 78.358l-16.094 9.33v-.49l16.094-9.33v.49zM187.098 82.823l-16.094 9.33v-.49l16.094-9.33v.49z" fill="#F7F9FC"/><path d="M180.349 88.392c0 .138-.116.32-.254.401-.138.08-.254.031-.254-.107s.116-.32.254-.4c.142-.081.254-.036.254.106z" fill="#BFCCD9"/><path d="M208.484 83.932l.548.312V63.392l-.552-.308.004 20.848z" fill="#3D4663"/><path d="M219.053 78.465V57.612l-10.03 5.784.009 20.847.931-.534-.004-.424 7.886-4.442.277.156.931-.534z" fill="#616B8C"/><path d="M209.963 83.41l8.158-4.704V59.22l-8.158 4.71v19.48z" fill="#E6EDF7"/><path d="M208.481 63.084l.543.312 10.03-5.783-.548-.317-10.025 5.788z" fill="#7E87A8"/><path d="M217.846 78.866l.276.134V59.22l-.276.16v19.485z" fill="#3D4663"/><path d="M210.412 74.271c0 .375.263.526.588.34.326-.188.589-.642.589-1.021 0-.374-.263-.526-.589-.339-.32.192-.588.646-.588 1.02z" fill="#BFCCD9"/><path d="M210.51 74.107c0-.325.227-.721.513-.886.138-.08.267-.09.356-.036.004 0 .218.125.218.125l-.744 1.239-.165-.094c-.111-.05-.178-.17-.178-.348z" fill="url(#paint2_linear)"/><path d="M210.658 74.192c0 .325.227.459.512.294.281-.165.513-.557.513-.887 0-.325-.228-.459-.513-.294-.285.165-.512.561-.512.887z" fill="#fff"/><path d="M210.7 74.219c0 .325.227.459.513.294.28-.165.512-.557.512-.887 0-.325-.227-.459-.512-.294-.281.165-.513.557-.513.887z" fill="#E6EDF7"/><path d="M211.034 74.032a.46.46 0 0 1 .205-.357c.058-.03.107-.035.143-.013l.089.093-.263.442-.107-.023c-.036-.022-.067-.071-.067-.142z" fill="url(#paint3_linear)"/><path d="M211.134 74.062c0 .116.08.165.183.107a.416.416 0 0 0 .196-.316c0-.116-.094-.165-.196-.107a.399.399 0 0 0-.183.316z" fill="#fff"/><path d="M211.156 74.071c0 .116.08.165.183.107a.4.4 0 0 0 .182-.316c0-.116-.08-.165-.182-.107a.42.42 0 0 0-.183.316z" fill="#E6EDF7"/><path d="M211.213 74.063c0-.094.067-.205.143-.25.04-.022.076-.026.102-.008l.437.253-.209.352-.419-.245c-.036-.018-.054-.053-.054-.102z" fill="url(#paint4_linear)"/><path d="M212.998 73.769c-.338-.196-.182-.24-.521-.437 0 0 .036-.053.093-.09.05-.03.099-.012.125 0 .076.041.165.086.223.135.205.182.08.387.08.392z" fill="#E6EDF7"/><path d="M212.919 73.858c-.338-.196-.262-.147-.311-.178-.205-.12-.205-.477 0-.357.338.196.258.13.325.165.205.12-.014.37-.014.37z" fill="#BFCCD9"/><path d="M211.894 74.054l-.12-.072c-.027.018-.054.032-.085.05a.316.316 0 0 0-.151.289l.142.085.214-.352z" fill="#E6EDF7"/><path d="M211.752 74.05c.325-.188.65-.375.971-.562.045-.036.04-.072-.013-.103l-.098-.053s-.085-.054-.027-.094c.045-.03.143.023.143.023l.138.08c.102.067.089.125.08.25-.031.133-.062.164-.187.235-.321.183-.998.664-.998.664l-.12-.062c-.085-.05-.049-.285.111-.379z" fill="#F7F9FC"/><path d="M211.871 74.468l1.015-.588c.237-.134.143-.481.049-.41-.338.196-.721.445-1.06.642-.209.12-.209.476-.004.356z" fill="#E6EDF7"/><path d="M211.874 74.437a.11.11 0 0 0 .063-.018c.058-.031.254-.2.374-.312.022-.022.005-.062-.027-.058a3.78 3.78 0 0 0-.307.036.259.259 0 0 0-.067.027.278.278 0 0 0-.129.218c.004.062.04.107.093.107z" fill="#F7F9FC"/><path d="M211.81 74.33c0 .071.049.103.116.067a.252.252 0 0 0 .116-.196c0-.072-.049-.103-.116-.067a.248.248 0 0 0-.116.196z" fill="#BFCCD9"/><path d="M211.873 74.397a.1.1 0 0 0 .045-.014.24.24 0 0 0 .107-.187c0-.044-.018-.067-.049-.067a.099.099 0 0 0-.045.014.24.24 0 0 0-.107.187c0 .04.018.067.049.067z" fill="#E6EDF7"/><defs><linearGradient id="paint0_linear" x1="107.916" y1="87.923" x2="273.002" y2="87.923" gradientUnits="userSpaceOnUse"><stop offset=".495" stop-color="#005EB0"/><stop offset=".619" stop-color="#0F98ED"/></linearGradient><linearGradient id="paint1_linear" x1="146.969" y1="59.828" x2="146.146" y2="58.403" gradientUnits="userSpaceOnUse"><stop stop-color="#BFCCD9"/><stop offset=".006" stop-color="#C0CDDA"/><stop offset=".116" stop-color="#D5DFEA"/><stop offset=".225" stop-color="#E2E9F4"/><stop offset=".328" stop-color="#E6EDF7"/><stop offset=".686" stop-color="#E4EBF6"/><stop offset=".82" stop-color="#DDE6F0"/><stop offset=".917" stop-color="#D1DBE7"/><stop offset=".995" stop-color="#C0CDDA"/><stop offset="1" stop-color="#BFCCD9"/></linearGradient><linearGradient id="paint2_linear" x1="210.583" y1="74.395" x2="211.306" y2="73.143" gradientUnits="userSpaceOnUse"><stop offset=".015" stop-color="#BFCCD9"/><stop offset=".467" stop-color="#F7F9FC"/></linearGradient><linearGradient id="paint3_linear" x1="211.077" y1="74.156" x2="211.369" y2="73.65" gradientUnits="userSpaceOnUse"><stop offset=".015" stop-color="#BFCCD9"/><stop offset=".467" stop-color="#F7F9FC"/></linearGradient><linearGradient id="paint4_linear" x1="211.42" y1="74.252" x2="211.625" y2="73.897" gradientUnits="userSpaceOnUse"><stop offset=".015" stop-color="#BFCCD9"/><stop offset=".467" stop-color="#F7F9FC"/></linearGradient></defs></svg>