<svg width="1600" height="400" fill="none" xmlns="http://www.w3.org/2000/svg" viewBox="0 0 1600 400"><g filter="url(#filter0_d)"><path fill="#F5FCFF" d="M1600 0H0v400h1600z"/></g><mask id="a" maskUnits="userSpaceOnUse" x="623" y="0" width="977" height="400"><path transform="matrix(-1 0 0 1 1600 0)" fill="#F5FCFF" d="M0 0h977v400H0z"/></mask><g mask="url(#a)"><path d="M1811.84 8.01l-221.16 12.087-412.3 43.203-76.81 45.616 349.28 203.445 293.2 27.611 67.79-331.961z" fill="#00AD00"/><path d="M1721.26 4.697S967.115 28.777 916.425 112.28C853.991 215.137 1472.9 491 1472.9 491l522.48-123.8s-828.17-206.809-790.9-269.085c38.95-65.08 809.99-83 809.99-83L1721.26 4.696z" fill="#fff"/><path d="M1531.55 450.392S919.755 205.655 975.078 112.279C1024.87 28.243 1779.91 7.401 1779.91 7.401l168.74 3.197s-771.51 22.153-809.99 87.508c-41.13 69.872 790.89 300.67 790.89 300.67l-398 51.616z" fill="#004EBB"/><path d="M1470.62 134.583h-5.63v110.662h5.63V134.583z" fill="#5F6464"/><path d="M1422.5 117.688l38.98-39.472a8.926 8.926 0 0 1 12.74 0l38.98 39.472c3.52 3.564 3.52 9.34 0 12.913l-38.98 39.463a8.925 8.925 0 0 1-12.74 0l-38.98-39.463c-3.52-3.573-3.52-9.349 0-12.913z" fill="#fff"/><path d="M1427.4 120.869l37.22-37.695a4.52 4.52 0 0 1 6.46 0l37.23 37.695c1.79 1.811 1.79 4.741 0 6.544l-37.23 37.694a4.52 4.52 0 0 1-6.46 0l-37.22-37.694c-1.79-1.812-1.79-4.741 0-6.544z" fill="#fff"/><path d="M1467.85 168.128c-1.66 0-3.22-.659-4.4-1.845l-37.22-37.694c-2.42-2.454-2.42-6.444 0-8.906l37.22-37.694a6.134 6.134 0 0 1 4.39-1.845c1.66 0 3.23.651 4.4 1.845l37.23 37.694a6.278 6.278 0 0 1 1.82 4.449 6.34 6.34 0 0 1-1.82 4.457l-37.23 37.694a6.131 6.131 0 0 1-4.39 1.845z" fill="#004EBB"/><path d="M1485.15 141.61c9.55-9.674 9.55-25.357 0-35.031a24.252 24.252 0 0 0-34.6 0c-9.56 9.674-9.56 25.357 0 35.031a24.253 24.253 0 0 0 34.6 0z" fill="#fff"/><path d="M1489.4 131.71c4.16-12.052-2.12-25.24-14.04-29.439-11.9-4.207-24.92 2.162-29.08 14.215-4.15 12.053 2.13 25.241 14.04 29.439 11.91 4.207 24.94-2.162 29.08-14.215z" fill="#fff"/><path d="M1445.52 128.881c.8 3.84 2.53 7.329 4.96 10.209 3.66-16.519 18.22-28.872 35.63-28.872-.34-.467-.7-.901-1.08-1.344a36.667 36.667 0 0 0-6.74-.643c-14.38.009-26.81 8.422-32.77 20.65z" fill="#0046B4"/><path d="M1457.6 144.757a22.513 22.513 0 0 0 10.25 2.462c12.61 0 22.83-10.35 22.83-23.121 0-4.374-1.2-8.464-3.28-11.944-15.85 2.896-28.15 16.151-29.8 32.603zM1473.72 105.602c3.21 0 6.32.426 9.28 1.21-4.03-3.622-9.34-5.834-15.16-5.834-10.88 0-19.98 7.712-22.27 18.029 6.72-8.188 16.83-13.405 28.15-13.405z" fill="#46B400"/></g><g clip-path="url(#clip0)"><path d="M1254.39 281.71c1.64-1.979 5.2-1.97 6.79.082 1.62 2.089-.08 5.264-.3 7.519-.21 2.181-.27 3.819-2.93 3.727-4.78-.147-6.14-8.209-3.56-11.328zM1471.49 353.113c18.31 10.565 4.58 18.488-13.73 29.062-17.81 10.289-31.06 19.455-49.36 8.89-22.91-13.233-116.37-67.594-129.08-74.937-13.73-7.924-4.57-18.489 13.73-29.053 18.31-10.565 30.79-20.228 49.05-9.534 31.29 18.313 125.19 73.143 129.39 75.572zM1200.58 293.425c11.43-5.476 42.45 8.981 24.87 14.199-6.17 1.841-19.43-9.975-25.01-13.012-.07-.405-.02-.801.14-1.187zM1360.67 231.684c6.72-7.464 33.13-1.546 21.91 7.067-3.95 3.028-22.4 4.795-21.68-5.981-.16-.341-.24-.7-.23-1.086zM1328.78 238.199c18.3 10.565 4.57 18.498-13.73 29.062-17.82 10.289-31.06 19.455-49.37 8.89-22.9-13.224-116.36-67.594-129.07-74.928-13.72-7.924-4.58-18.498 13.73-29.062 18.3-10.565 30.77-20.228 49.05-9.534 31.29 18.322 125.18 73.143 129.39 75.572z" fill="#0032A5"/><path d="M1261.37 282.446l-6.44-1.381-.23 1.151 1.61 2.3-.23 6.442 5.29-8.512z" fill="#7F0000"/><path d="M1256.45 236.929c1.25 1.068 2.5 2.135 3.73 3.23-5.38 3.737-11.6 7.178-17.83 9.994l-.09-2.125c-.05-1.519 1.71-8.504 3.1-11.099h11.09zM1160.38 179.108c1.25 1.068 2.5 2.135 3.73 3.231-5.38 3.736-11.6 7.03-17.83 9.846l-.08-1.978c-.07-1.519 1.7-8.503 3.09-11.099h11.09z" fill="#004687"/><path d="M1182.35 139.96l28.61-6.156c1.85.892 19.91 1.288 23.22 3.276 3.32 1.988-8.12 5.577-3.72 8.374 20.72 13.16 51.39 33.599 72.22 45.949 1.09.645 1.65.12.44-1.454-5.25-6.837-18.7-24.773-25.78-29.172 7.09 1.785 32.14 29.458 34.08 31.685-.18 1.509-.38 3.009-.54 4.527-.37 3.58-.64 7.178-.84 10.786-2.1 2.31-64.1 23.255-63.48 25.096.02-.01-147.23-70.189-64.21-92.911z" fill="#232323"/><path d="M1256.17 242.534c0-.24-.33-.433-.75-.433-.41 0-.74.193-.74.433 0 .239.33.432.74.432.42-.009.75-.202.75-.432z" fill="#14AFEB"/><path d="M1275.83 252.896c-2.66-6.589-10.57-12.691-17.66-13.629-3.55-.47-6.01.616-7.67 2.291-2.07 2.08-5.68 6.543-6.75 8.798-3.08 6.405 16.87 21.286 23.85 19.721 1.74-.386 6.33-7.086 7.96-9.341 1.34-1.877 1.57-4.61.27-7.84z" fill="#192D4B"/><path d="M1269.71 260.663c-2.66-6.589-10.57-12.691-17.66-13.629-7.1-.939-10.69 3.635-8.03 10.224s10.57 12.69 17.66 13.629c7.1.939 10.69-3.635 8.03-10.224z" fill="#192D4B"/><path d="M1160.02 187.142c0-.239-.33-.432-.75-.432-.41 0-.74.193-.74.432 0 .24.33.433.74.433.42 0 .75-.193.75-.433z" fill="#14AFEB"/><path d="M1179.09 201.489c0-7.104-5.05-15.727-11.27-19.252-3.11-1.767-5.8-1.675-7.97-.745-2.7 1.159-7.72 3.939-9.56 5.623-5.24 4.794 7.68 26.053 14.74 27.221 1.75.286 8.52-4.205 10.87-5.678 1.95-1.233 3.19-3.681 3.19-7.169z" fill="#192D4B"/><path d="M1170.51 206.394c0-7.104-5.04-15.727-11.26-19.252-6.22-3.524-11.27-.635-11.27 6.479 0 7.104 5.05 15.727 11.27 19.252 6.21 3.525 11.26.626 11.26-6.479z" fill="#192D4B"/><path d="M1205.17 152.439c-.21-4.895 17.78-13.656 25.65-8.687-1.11 28.933 23.25 29.78 25.86 32.348 1.51 1.481.88 7.831-.04 8.761-3.09 3.101-17.98 12.644-24.18 8.383-6.19-4.261-12.97-11.485-12.97-11.485s-13.97-21.166-14.32-29.32z" fill="#141414"/><path d="M1239.22 163.97c6.19 3.865 20.51 11.218 17.41 14.32-3.09 3.092-17.98 12.644-24.18 8.383-6.19-4.261-12.97-11.485-12.97-11.485l19.74-11.218z" fill="#333"/><path d="M1239.22 163.971c-2.17-7.685-7-18.866-8.4-20.209-1.68-1.611-22.56 6.81-21.94 10.334.61 3.525 10.6 21.102 10.6 21.102l19.74-11.227z" fill="#2E2E2C"/><path d="M1176.04 168.784c-.21-4.896 16.73-13.85 24.61-8.881-1.11 28.942 24.29 29.982 26.9 32.55 1.51 1.482.87 7.831-.05 8.761-3.09 3.092-17.98 12.644-24.17 8.384-6.2-4.261-12.98-11.485-12.98-11.485s-13.96-21.176-14.31-29.329z" fill="#141414"/><path d="M1229.65 169.409c6.19 3.865 20.3 12.608 17.21 15.7-3.1 3.101-37.34 22.169-43.53 17.908-6.2-4.26-12.98-11.485-12.98-11.485l39.3-22.123z" fill="#333"/><path d="M1229.65 169.409c-2.17-7.684-4.61-19.767-6.01-21.102-1.69-1.61-44.51 18.608-43.89 22.133.62 3.525 10.6 21.102 10.6 21.102l39.3-22.133z" fill="#2E2E2C"/><path d="M1239.23 173.081c-.21-4.896 17.78-13.657 25.65-8.678-1.11 28.933 23.25 29.78 25.86 32.347 1.51 1.482.88 7.832-.04 8.761-3.09 3.092-17.98 12.645-24.18 8.384-6.19-4.261-12.97-11.485-12.97-11.485s-13.97-21.176-14.32-29.329z" fill="#141414"/><path d="M1273.28 184.612c6.19 3.865 20.51 11.227 17.41 14.319-3.09 3.102-17.98 12.645-24.18 8.384-6.19-4.261-12.97-11.485-12.97-11.485l19.74-11.218z" fill="#333"/><path d="M1273.28 184.612c-2.17-7.684-7-18.866-8.4-20.209-1.68-1.611-22.56 6.801-21.94 10.334.61 3.525 10.6 21.102 10.6 21.102l19.74-11.227z" fill="#2E2E2C"/><path d="M1210.1 189.425c-.21-4.896 16.73-13.85 24.61-8.881-1.12 28.933 24.28 29.973 26.9 32.55 1.51 1.482.87 7.832-.05 8.761-3.09 3.101-17.98 12.644-24.17 8.393-6.2-4.261-12.98-11.485-12.98-11.485s-13.96-21.185-14.31-29.338z" fill="#141414"/><path d="M1244.15 200.956c6.19 3.874 20.51 11.218 17.41 14.319-3.09 3.092-17.98 12.644-24.17 8.384-6.2-4.261-12.98-11.485-12.98-11.485l19.74-11.218z" fill="#333"/><path d="M1244.15 200.955c-2.17-7.684-6.99-18.865-8.39-20.209-1.69-1.61-22.57 6.81-21.95 10.335.62 3.525 10.6 21.102 10.6 21.102l19.74-11.228z" fill="#2E2E2C"/><path d="M1249.05 206.542c-1.26 3.405 1.08 5.926 5.2 5.632 4.14-.295 8.49-3.285 9.74-6.69 1.25-3.405-1.08-5.927-5.21-5.632-4.12.285-8.48 3.285-9.73 6.69zm2.02-.101c.68-1.859 3.05-4.27 7.54-5.025 1.67-.276-.78 2.623-.05 3.451.66.755 4.64-.469 4.19.736-.94 2.549-4.31 4.795-7.54 5.025-3.22.239-5.08-1.638-4.14-4.187z" fill="#232323"/><path d="M1248.63 206.422c-1.34 3.663 1.16 6.369 5.6 6.056 4.43-.313 9.12-3.534 10.46-7.188 1.34-3.662-1.16-6.368-5.59-6.055-4.43.313-9.12 3.534-10.47 7.187zm1.45-.101c1.1-3 4.95-5.65 8.59-5.908 3.65-.258 5.71 1.969 4.6 4.969-1.1 3.01-4.95 5.651-8.59 5.909-3.66.266-5.71-1.961-4.6-4.97z" fill="#141414"/><path d="M1302.48 185.597c4.26 3.911 8.27 7.721 7.99 9.11-.27 1.39-41.71 28.004-55.06 26.053-13.34-1.942-10.62-6.331-8.54-9.341 6.58-9.515 51.29-29.789 55.61-25.822z" fill="#232323"/><path d="M1139.64 185.357c3.12 4.942 6.64 6.829 6.64 6.829s3.03-12.921 13.09-7.574c10.62 5.641 13.72 16.417 13.27 25.528.01-.166 69.7 40.243 69.7 40.243 0-3.8 2.16-17.393 13.4-10.905 11.24 6.488 14.76 20.025 14.32 26.927 20.82 8.32 23.63 12.166 33.8 9.792 6.96-1.62 18.5-5.43 27.84-10.924 14.69-8.623 24.02-16.178 26.82-23.218.44-1.123.97-7.335.37-11.669-.61-.156-1.85.092-1.85.092-1.02-3.994-.2-1.049-5.6-7.537-9.03-10.841-41.36-33.728-42.69-34.427 0 0-10.77-13.409-27.26-27.038-2.57-2.126-21.84-18.101-43.63-25.132-5.32-1.712-26.9-2.559-26.9-2.559s-16.06-8.429-17.79-7.748c-18.59 7.325-42.22 21.589-53.61 30.958-1.56 1.371-2.39 6.257-2.22 6.414-.16 1.399-.82 17.006 2.3 21.948zm98.9-.248c14.33-4.703 26.96-10.454 39.61-22.878 1.42-1.362 22.29 18.341 29.36 28.096 2.11 2.908-7.49 10.684-20.75 18.175-11.03 6.23-31.82 13.933-33.23 11.927-7.47-14.366-17.07-34.639-14.99-35.32zm-68.91-13.583c-.22-4.639 23.39-6.212 24.85-6.001 8.88 1.252 28.89 12.258 34.67 17.522 6.93 6.323 16.88 38.348 17.62 38.863-60.4-39.001-77.02-47.762-77.14-50.384zm-8.31-9.691c5.38-8.374 33.94-25.574 47.44-26.743 1.46-.129 14.95-.027 24.38 1.417.1.01.2.037.3.056-24.57 7.721-40.27 22.988-40.27 22.988-3.02.11-33.72 5.181-31.85 2.282z" fill="#14AFEB"/><path d="M1139.5 185.099c3.12 4.942 6.78 7.086 6.78 7.086s3.03-12.92 13.09-7.573c10.62 5.641 13.72 16.417 13.27 25.528.01-.166 69.7 40.243 69.7 40.243 0-3.8 2.16-17.393 13.4-10.905 11.24 6.488 14.76 20.025 14.32 26.927 11.57 4.62 17.58 7.335 22.38 8.89.91-9.157 1.98-18.304 2.32-27.498-3.22-3.349-6.34-6.773-9.48-10.178-3.2-3.46-6.58-6.617-10.13-9.709-3.58-3.129-6.98-6.432-10.39-9.745-.12-.129-.26-.258-.39-.387-5.74 1.97-9.22 1.371-9.86.479-7.47-14.366-17.18-30.498-16.1-33.609-21.87-20.503-45.24-25.638-45.24-25.638-3.02.119-33.72 5.19-31.85 2.282-9.71-3.387-19.13-5.733-21.76-4.841-1.56 1.372-2.39 6.258-2.22 6.424-.16 1.399-.96 17.292 2.16 22.224zm30.13-14.107c-.22-4.638 23.39-6.083 24.85-5.872 8.88 1.252 28.89 12.13 34.67 17.393 6.93 6.323 16.88 38.348 17.62 38.863-60.4-39.001-77.02-47.762-77.14-50.384z" fill="#0082C8"/><path d="M1350.96 222.729l-.44-.451c0 .01.45.46.45.46l-.01-.009z" fill="#fff"/><path d="M1349.78 240.38v-17.273l-46.53 28.657s-3.32 12.985-.12 14.872c11.52 6.81 46.65-26.256 46.65-26.256z" fill="#004687"/><path d="M1342.02 235.052s2.78 5.107 1.72 10.114c3.94-1.611 9.5-8.366 9.5-8.366l-6.97-6.193-4.25 4.445z" fill="#0082C8"/><path d="M1295.11 263.543c3.05.516 11.42.387 16.38-1.546 17.6-6.856 28.2-14.034 36.12-20.77 2.56-2.172 8.79-8.623 8.22-11.237 0-.248-4.68-6.175-5.41-7.647.13-.184 7.84 6.939 8.1 7.334.49.773.47 1.767.15 2.927-.75 2.678-9.26 13.132-24.12 21.691-15.66 9.018-29.7 14.163-37.78 14.549-6.08.295-21.72-5.31-26.79-15.46 0 0 1.63 1.177 10.55 5.484.01 0 4.91 3.046 14.58 4.675z" fill="#14AFEB"/><path d="M1350.34 222.067c2.95 3.083 5.04 6.552 5.49 7.887v.036c.56 2.614-5.73 8.945-6.29 9.433-.02.009-9.08-3.074-5.05-7.012 5.02-4.887 7.34-8.77 5.85-10.344z" fill="#CECECE"/><path d="M1161.04 162.323c-.07-.129-.12-.35.06-.635 2.57-4.012 10.73-10.353 20.76-16.16 10.66-6.166 20.71-10.169 26.87-10.703.3-.027 1.06-.046 2.08-.046 4.78 0 14.86.313 22.37 1.464.07.009.16.027.23.046l1.09.202-.99.313c-24.22 7.611-40.01 22.777-40.17 22.924l-.07.064-.1.009c-.74.028-3.26.378-6.45.81-6.92.948-17.39 2.375-22.5 2.375-2.48 0-3-.332-3.18-.663zm71.28-25.676c-7.38-1.058-16.91-1.343-21.51-1.343-.99 0-1.75.018-2.03.037-13.16 1.141-41.83 18.203-47.25 26.632-.03.037-.05.083-.04.111.04.064.33.395 2.74.395 5.08 0 15.52-1.426 22.43-2.365 3.19-.441 5.54-.754 6.4-.81 1.17-1.113 16.33-15.175 39.26-22.657z" fill="#004687"/><path d="M1308.75 188.523c-.52 2.126-1.18 2.908-1.18 2.908s.77 3.709 1.16 3.009c2.43-4.233.02-5.917.02-5.917z" fill="#00687F"/><path d="M1193.69 188.624c-19.2-12.055-24.37-15.295-24.45-17.08-.03-.534.19-1.049.64-1.518 3.41-3.571 20.84-4.905 24.14-4.905.24 0 .41.009.51.018 8.94 1.261 29.11 12.368 34.87 17.623 5.23 4.767 11.93 23.375 15.54 33.369 1.01 2.807 1.89 5.227 2.09 5.513 0 0-.02-.028-.05-.046l-.44.644c-23.91-15.461-40.64-25.952-52.85-33.618zm-23.24-18.074c-.31.322-.46.635-.44.948.07 1.38 7.1 5.798 24.1 16.464 12.01 7.546 28.41 17.835 51.75 32.899-.32-.837-.83-2.208-1.64-4.472-3.33-9.23-10.25-28.427-15.34-33.065-5.7-5.2-25.64-16.179-34.45-17.421-.03 0-.13-.009-.4-.009-3.93 0-20.52 1.444-23.58 4.656z" fill="#004687"/><path d="M1265.07 218.073c18.68-6.387 44.98-21.645 43.68-29.55 19.04 12.921 39.48 27.553 41.59 33.544.32.929.91 1.711.07 3.055-2.02 3.23-3.06 5.724-9.41 10.767-.94.746.96 8.283-.83 12.332-1.05 2.365-7.08 5.255-9.28 6.258-3.62 1.638-7.79 1.555-11.6-.157-2.34-1.049-1.48-2.172-4.03-1.095-1.74.736-2.69 2.319-4.78 3-4.99 1.629-12.84 5.789-18.19 4.896-5.36-.893-6.25-6.295-7.91-10.537-2.36-6.074-6.77-9.985-11.52-14.375a173.628 173.628 0 0 0-13.83-11.54c-1.12-.837-4.23-3.929-5.57-3.957-.01 0 3.66.083 11.61-2.641z" fill="url(#paint0_radial)"/><path d="M1292.24 261.298c-4.59-.764-5.95-4.712-7.28-8.531-.24-.709-.49-1.436-.76-2.117-2.25-5.797-6.46-9.672-10.91-13.785l-.57-.525c-4.5-4.16-9.14-8.043-13.81-11.531-.29-.221-.72-.589-1.2-1.012-1.33-1.151-3.34-2.89-4.26-2.908l.01-.35h.04c.4 0 4.05-.074 11.52-2.623 9.45-3.23 20.68-8.669 29.3-14.19 9.79-6.258 14.86-11.651 14.28-15.166l-.07-.405.34.23c16.82 11.411 39.43 27.313 41.65 33.636.06.147.11.285.17.423.31.773.64 1.574-.11 2.779-.26.405-.49.801-.73 1.187-1.62 2.669-3.14 5.2-8.73 9.636-.31.248-.21 1.813-.11 3.478.16 2.678.4 6.359-.67 8.789-1.05 2.383-6.91 5.227-9.37 6.34a13.532 13.532 0 0 1-5.59 1.197c-2.09 0-4.16-.451-6.15-1.353-.87-.387-1.31-.791-1.64-1.086-.32-.276-.48-.432-.81-.432-.31 0-.75.128-1.45.423-.76.322-1.36.81-1.99 1.325-.8.644-1.61 1.298-2.8 1.684-1.28.414-2.75 1.003-4.32 1.62-4.02 1.601-8.57 3.405-12.35 3.405-.58-.009-1.12-.055-1.63-.138zm25.57-8.163c.32.294.73.653 1.54 1.021 1.96.875 3.98 1.316 6.02 1.316 1.91 0 3.74-.386 5.45-1.159 1.9-.856 8.16-3.828 9.19-6.166 1.04-2.347.81-5.972.65-8.623-.14-2.245-.19-3.432.24-3.773 5.53-4.399 6.97-6.782 8.65-9.534.24-.386.48-.782.73-1.187.65-1.049.39-1.703.08-2.457l-.18-.442c-2.18-6.184-24.47-21.884-41.21-33.249.45 8.199-25.57 23.108-43.84 29.356-5.67 1.933-9.16 2.457-10.72 2.596 1.07.552 2.46 1.757 3.54 2.696.49.423.91.782 1.19.994 4.68 3.497 9.33 7.38 13.84 11.558l.56.525c4.49 4.141 8.72 8.052 11 13.914.27.691.53 1.418.76 2.126 1.29 3.718 2.62 7.565 7.01 8.301.49.083 1.01.12 1.56.12 3.71 0 8.23-1.795 12.22-3.387 1.57-.626 3.05-1.215 4.34-1.629 1.12-.368 1.91-1.003 2.68-1.629.62-.506 1.28-1.03 2.08-1.371.74-.313 1.22-.451 1.58-.451.46.009.72.239 1.04.534z" fill="#161615"/><path d="M1324.78 252.592c1.33.838 2.64 1.694 3.92 2.586.99-.451 1.98-.92 2.96-1.408.25-.129.5-.248.75-.386.25-.129.51-.258.75-.396.5-.267.98-.552 1.47-.837.49-.295.97-.589 1.43-.902.47-.313.93-.645 1.38-.985.23-.166.44-.35.67-.515.22-.175.43-.359.65-.534.43-.35.83-.718 1.25-1.086.33-.764.51-1.601.63-2.448.11-.856.15-1.721.15-2.595.01-1.739-.16-3.479-.23-5.227-.01-.442-.03-.884.03-1.335 0-.11.03-.23.06-.349.04-.12.07-.24.19-.368.19-.157.34-.277.52-.424.68-.543 1.34-1.104 2-1.684 1.29-1.159 2.54-2.374 3.64-3.727.55-.672 1.06-1.38 1.53-2.107.48-.727.92-1.482 1.38-2.227l.35-.562.15-.276c.05-.092.1-.184.13-.285.16-.387.2-.801.09-1.206-.09-.405-.28-.8-.44-1.214a6.503 6.503 0 0 0-.56-1.151c-.45-.736-.98-1.417-1.55-2.08a33.87 33.87 0 0 0-1.78-1.914 74.924 74.924 0 0 0-3.84-3.561c-2.63-2.292-5.37-4.463-8.13-6.599a360.127 360.127 0 0 0-8.41-6.248c-5.66-4.095-11.42-8.08-17.19-12.019l.03-.037c5.79 3.911 11.56 7.869 17.24 11.936 2.84 2.034 5.66 4.105 8.45 6.221 2.78 2.117 5.53 4.289 8.18 6.571a75.284 75.284 0 0 1 3.86 3.552 34.23 34.23 0 0 1 1.8 1.914c.57.663 1.12 1.353 1.58 2.108.23.377.44.773.59 1.196.15.405.34.792.45 1.252.11.451.07.938-.1 1.371-.04.11-.09.212-.14.313l-.16.294-.34.562c-.46.745-.91 1.5-1.39 2.236-.47.736-.99 1.454-1.54 2.135-1.11 1.371-2.37 2.604-3.66 3.773-.66.58-1.33 1.15-2.01 1.703-.17.138-.35.285-.5.404-.02.028-.07.129-.1.212-.03.092-.04.193-.05.295-.05.414-.04.846-.02 1.279.07 1.739.25 3.488.25 5.245 0 .875-.04 1.758-.15 2.641-.11.875-.3 1.758-.66 2.577l-.02.037-.03.028c-.42.386-.85.763-1.28 1.132-.22.184-.44.368-.66.543-.22.174-.44.358-.67.533-.45.341-.92.681-1.39.994-.47.322-.96.626-1.45.92-.48.295-.98.58-1.48.856-.25.138-.5.267-.75.405s-.51.258-.77.387a92.184 92.184 0 0 1-3.07 1.481l-.11.046-.1-.064c-1.29-.884-2.59-1.739-3.9-2.568.05-.128.09-.266.12-.414z" fill="#0082C8"/><path d="M1253.47 220.687c1.59 1.049 3.13 2.162 4.66 3.285 1.53 1.132 3.04 2.291 4.52 3.478 1.48 1.188 2.94 2.402 4.4 3.636 1.44 1.233 2.88 2.484 4.29 3.763 1.41 1.28 2.8 2.568 4.17 3.884 1.38 1.307 2.73 2.65 4.07 4.003 1.91 1.933 3.91 3.746 4.78 6.414-1.63-2.162-3.18-4.187-5.07-6.129-1.33-1.352-2.66-2.705-4.03-4.021a200.548 200.548 0 0 0-4.15-3.911 187.206 187.206 0 0 0-8.61-7.454 159.283 159.283 0 0 0-4.46-3.543 262.916 262.916 0 0 0-4.57-3.405z" fill="#007D99"/><path d="M1253.32 220.576l1.2-1.785c-5.74-11.034-17.53-30.866-16.43-33.553.09-.24.25-.332.37-.378 14.67-4.813 27.01-10.537 39.52-22.813.09-.092.22-.138.39-.138 2.81 0 22.85 19.289 29.35 28.27.32.442.42.994.28 1.629-.77 3.516-8.85 9.994-21.11 16.924-9.96 5.623-27.43 12.286-32.23 12.286-.7-.01-1.14-.157-1.34-.442zm25.02-58.152c-12.58 12.341-24.98 18.093-39.71 22.933-.01 0-.04.009-.06.074-.84 2.07 7.96 18.009 15.96 33.36.06.073-.51 1.702.15 1.702 4.64 0 22.27-6.736 31.97-12.212 11.94-6.746 20.13-13.261 20.86-16.583.11-.497.05-.893-.19-1.224-6.78-9.35-26.52-28.05-28.94-28.05h-.04z" fill="#004687"/><path opacity=".5" d="M1298.92 256.052c2.39 1.721 4.9 3.286 7.47 4.731 1.14.635 2.29 1.251 3.46 1.84 1.18-.377 2.29-.81 3.32-1.288.85-.433 1.56-2.098 1.96-3.939-2.57-1.104-5.09-2.328-7.51-3.727-2.3.773-4.61 1.509-5.99 1.85-1.01.239-1.9.414-2.71.533z" fill="#fff"/><path d="M1344.84 232.586c1.51-1.418 5.43-6.24 6.02-8.228a65.13 65.13 0 0 1 2.15 5.844c-1.05 2.706-4.06 6.414-5.63 8.218-2.36-1.224-6.1-2.512-2.54-5.834z" fill="#fff"/><path d="M1350.76 223.07c.03.368-.01.745-.1 1.104-.17.718-.47 1.399-.81 2.062-.68 1.306-1.55 2.512-2.47 3.653a33.71 33.71 0 0 1-1.46 1.666c-.49.543-1.02 1.067-1.54 1.573-.5.488-.92 1.096-.91 1.74-.01.653.41 1.251.92 1.721.51.478 1.12.865 1.75 1.205.64.341 1.3.626 1.98.884.34.129.68.248 1.02.359l.26.082.13.037.03.009.02.01h-.01a.14.14 0 0 0-.09.009c-.04.027.11-.055-.1.055h.01l.03-.018c.13-.12.26-.249.39-.378.51-.515 1.02-1.04 1.51-1.583.97-1.085 1.92-2.199 2.75-3.386.41-.598.8-1.206 1.12-1.85.16-.322.29-.644.4-.985.09-.331.14-.681.08-1.003V230v.036l-.01-.018-.01-.037-.03-.064-.04-.138a3.17 3.17 0 0 1-.11-.276c-.09-.184-.17-.359-.25-.543-.18-.359-.37-.709-.57-1.059-.21-.349-.42-.69-.63-1.03-.11-.166-.22-.332-.33-.507-.11-.165-.22-.331-.34-.506-.22-.331-.46-.662-.7-.984-.24-.322-.49-.645-.74-.967-.24-.313-.5-.625-.76-.938-.26-.313-.52-.617-.79-.911.25.266.38.644.4 1.012zm.43-.129c.28.295.54.598.81.902.26.313.52.617.77.939.26.313.51.635.75.966.23.322.47.653.7.985.23.34.45.681.67 1.021.21.35.42.699.6 1.058.1.175.19.369.28.553.05.092.08.184.13.285l.05.147.03.074.02.037.01.018c0 .009.01.046.01.074v-.037c.08.405.03.8-.07 1.178-.09.368-.24.727-.39 1.067-.31.681-.71 1.316-1.13 1.924-.84 1.214-1.79 2.355-2.76 3.46-.49.552-1 1.086-1.51 1.61-.13.129-.26.258-.41.396l-.03.028-.01.009c-.21.11-.06.027-.11.055a.269.269 0 0 1-.12 0l-.06-.009-.04-.009-.13-.037-.27-.083c-.36-.11-.71-.239-1.05-.368-.69-.267-1.37-.571-2.03-.93-.65-.359-1.28-.763-1.85-1.288-.27-.267-.53-.561-.72-.911-.2-.341-.33-.745-.32-1.16 0-.414.13-.809.33-1.15.2-.34.45-.635.72-.902.55-.506 1.06-1.003 1.58-1.527.5-.525 1-1.059 1.47-1.611.48-.552.93-1.123 1.36-1.712.43-.589.84-1.196 1.2-1.822.36-.635.68-1.288.88-1.988.1-.349.17-.708.16-1.076-.01-.359-.11-.727-.36-1.003.28.248.56.533.84.837z" fill="#0082C8"/><path d="M1326.73 261.62s12.18-5.862 18.96-11.77c1.24-1.077 2.57-.102 2.64 1.684l.1 2.273c-6.42 5.549-15.21 10.758-24 14.743l-.08-2.126c-.07-1.795 1-3.948 2.38-4.804z" fill="#004656"/><path d="M1346.48 252.997c1.05.368 1.95.718 1.95.81-6.39 5.457-15.34 10.813-24 14.743l-.07-1.951c7.97-3.718 16.07-8.596 22.12-13.602zM1305.94 273.354c2.41 1.886 12.98-1.942 12.98-3.286v-2.282c0-1.353-1.13-2.08-2.52-1.629-9.97 3.221-10.46 7.197-10.46 7.197z" fill="#0483A0"/><path d="M1306 273.105c.3-.92 1.92-4.196 10.4-6.957.28-.092.54-.129.79-.129.18.276.28.626.28 1.022v2.282c.01 1.159-7.71 4.123-11.47 3.782z" fill="#004656"/><path d="M1357.44 241.659c-.62 3.415-5.77 10.317-6 9.01l-.4-2.264c-.24-1.371.27-3.313 1.1-4.261 4.72-5.393 5.3-2.485 5.3-2.485z" fill="#004687"/><path d="M1316.4 266.148c.17-.056.32-.083.48-.111l.68.672c.03.028.06.055.09.092.19.212.32.497.35.865.12 1.187-.73 2.696-1.89 3.368-.88.506-1.69.405-2.08-.175l-1.11-1.086c-.26-.211-.44-.543-.49-.993a2.9 2.9 0 0 1 .15-1.151 32.666 32.666 0 0 1 3.82-1.481z" fill="#4F4A4A"/><path opacity=".6" d="M1315.02 271.099c.29 0 .62-.101.95-.295 1.08-.625 1.88-2.033 1.77-3.119-.06-.645-.43-1.013-1-1.013-.29 0-.62.102-.95.295-1.08.635-1.88 2.034-1.77 3.12.06.644.43 1.012 1 1.012z" fill="#D3D3D3"/><path d="M1315.33 270.142c-.41.239-.8.386-1.17.451a1.538 1.538 0 0 1-.15-.506c-.11-1.096.68-2.494 1.77-3.12.34-.193.66-.295.95-.295.55 0 .9.341 1 .939-.59 1.022-1.38 1.942-2.4 2.531z" fill="#D3D3D3"/><path d="M1355.79 241.024c.05.111.07.203.07.203-.43 2.347-3 6.341-4.64 8.181l-.17-1.012c-.24-1.371.27-3.313 1.1-4.261 1.68-1.933 2.84-2.798 3.64-3.111z" fill="#192D4B"/><path d="M1348.43 253.807s-.37.248-1.01.69c-.31.221-.7.488-1.14.8-.22.148-.45.332-.71.488-.25.166-.48.368-.76.562-.53.395-1.1.819-1.71 1.27-.63.423-1.28.874-1.96 1.343-.34.23-.69.469-1.04.709-.36.23-.72.46-1.09.69-.73.46-1.47.948-2.23 1.39-.75.45-1.51.892-2.26 1.334-.37.221-.74.432-1.12.635-.38.202-.75.405-1.11.607-.72.396-1.41.792-2.09 1.123-.68.341-1.31.672-1.91.966-.29.157-.58.276-.85.433-.26.147-.51.285-.74.423-.47.258-.88.497-1.22.681-.67.377-1.05.608-1.05.608s.41-.148 1.14-.433c.36-.138.8-.313 1.29-.506.25-.101.53-.203.8-.313.29-.11.56-.285.86-.423.59-.304 1.23-.626 1.91-.976.68-.331 1.38-.736 2.1-1.132.37-.193.74-.405 1.11-.607.37-.203.75-.414 1.12-.635.75-.442 1.51-.893 2.27-1.344.77-.451 1.5-.938 2.24-1.399.37-.23.74-.469 1.09-.699.35-.239.7-.478 1.05-.709.68-.469 1.35-.92 1.98-1.352.62-.451 1.19-.884 1.73-1.279.27-.203.54-.378.77-.571.24-.193.43-.396.63-.58.4-.368.74-.69 1.02-.957.56-.534.89-.837.89-.837z" fill="#11C6EF"/><path d="M1268.1 254.543s-.02-.119-.07-.349c-.04-.231-.09-.571-.2-.985-.06-.212-.11-.451-.18-.7-.06-.257-.14-.524-.23-.819-.17-.579-.38-1.233-.66-1.932-.27-.7-.59-1.445-.96-2.227-.19-.387-.4-.773-.61-1.178-.22-.396-.45-.801-.7-1.206-.13-.202-.25-.405-.38-.607-.13-.203-.27-.396-.4-.598-.27-.405-.57-.801-.88-1.197a23.377 23.377 0 0 0-2.02-2.263c-.75-.709-1.52-1.381-2.37-1.951-.2-.148-.42-.277-.63-.415l-.32-.202-.34-.175c-.22-.11-.43-.248-.66-.34-.23-.102-.45-.203-.68-.304-.91-.368-1.84-.607-2.73-.736-.9-.092-1.76-.102-2.53.027-.2.019-.38.065-.57.102-.18.046-.35.082-.53.119-.34.111-.65.212-.95.322-.28.129-.55.249-.79.368-.24.12-.44.258-.63.368-.1.056-.19.111-.27.157-.08.055-.16.11-.22.166-.14.101-.25.184-.35.257l-.29.221.34-.129c.22-.073.52-.221.93-.34.21-.055.43-.138.68-.203.24-.046.51-.119.8-.184.29-.037.59-.092.91-.129l.49-.027c.17-.009.35-.028.52-.009.17 0 .35.009.53.018.19 0 .37.037.56.055.36.028.74.129 1.13.194.76.193 1.54.487 2.33.855.77.387 1.53.865 2.27 1.408.74.543 1.44 1.169 2.12 1.823.69.653 1.32 1.362 1.93 2.07.6.727 1.17 1.454 1.69 2.181.27.359.51.736.77 1.086.23.368.47.718.69 1.068.44.699.85 1.38 1.2 2.015.19.313.36.617.52.911.15.295.31.571.45.837.14.267.26.516.38.746.12.23.22.442.33.635.19.386.34.69.44.902.08.184.14.294.14.294zM1204.28 194.44l3.69 2.365s3.18-13.611 7.73-22.436l-2.41-1.27c-7.12 6.847-9.01 21.341-9.01 21.341z" fill="#0082C8"/><path d="M1169.63 171.526l8.79 7.233s.32-4.169 2.74-12.019l-1.55.138c-7.07.948-9.98 4.648-9.98 4.648z" fill="#192D4B"/><path d="M1332.31 265.954l14.29-8.816-.67-5.071-14.29 8.817.67 5.07z" fill="#D6D6D6"/><path d="M1265.25 267.215c2.55-1.031 1.82-3.948 1.15-5.595-2.19-5.421-9.07-10.602-15.03-11.329-1.44-.174-2.7-.064-3.63.313-2.55 1.031-1.82 3.948-1.15 5.595 2.19 5.421 9.07 10.602 15.04 11.329 1.43.175 2.69.074 3.62-.313z" fill="#0082C8"/><path d="M1259.72 260.819c.93-.377.66-1.445.42-2.043-.8-1.979-3.3-3.865-5.48-4.132-.52-.064-.98-.028-1.33.11-.92.378-.66 1.445-.42 2.043.8 1.979 3.31 3.866 5.49 4.132.52.065.98.019 1.32-.11z" fill="#192D4B"/><path d="M1163.81 210.849c2.75 0 3.17-2.982 3.17-4.758 0-5.844-4.45-13.234-9.7-16.132-1.27-.7-2.48-1.077-3.48-1.077-2.75 0-3.17 2.982-3.17 4.758 0 5.843 4.45 13.233 9.7 16.132 1.27.699 2.48 1.077 3.48 1.077z" fill="#0082C8"/><path d="M1161.26 203.229c1.11 0 1.27-1.187 1.27-1.905 0-2.338-1.77-5.301-3.88-6.46-.51-.286-.99-.433-1.39-.433-1.11 0-1.27 1.197-1.27 1.905 0 2.338 1.77 5.301 3.88 6.46.51.286.99.433 1.39.433z" fill="#192D4B"/><path opacity=".45" d="M1232.33 136.647c-7.39-1.058-16.92-1.343-21.52-1.343-.99 0-1.75.018-2.03.037-13.16 1.141-41.83 18.202-47.25 26.632-.03.037-.05.083-.04.111.04.064.33.395 2.74.395 5.08 0 15.52-1.426 22.43-2.365 3.19-.442 5.54-.754 6.4-.81 1.17-1.113 16.33-15.175 39.27-22.657zm-61.88 33.903c-.31.322-.45.635-.44.948.07 1.38 7.1 5.798 24.1 16.464 12.01 7.546 28.41 17.834 51.75 32.899-.32-.837-.83-2.209-1.64-4.472-3.33-9.231-10.25-28.427-15.34-33.066-5.7-5.199-25.64-16.178-34.45-17.42-.03 0-.13-.01-.4-.01-3.93 0-20.52 1.445-23.58 4.657zm107.89-8.126c-12.58 12.341-24.98 18.093-39.71 22.933-.01 0-.04.009-.06.074-.84 2.07 6.8 16.868 14.78 32.228.06.064.66 2.834 1.32 2.834 4.64 0 22.27-6.736 31.97-12.212 11.94-6.746 20.13-13.261 20.86-16.583.11-.497.05-.893-.19-1.224-6.78-9.35-26.51-28.05-28.94-28.05h-.03z" fill="#004EBB"/><path d="M1432.4 357.476c5.47-4.97 48.57-35.394 52.65-32.182 2.35 1.399 2.87 15.212-2.33 24.654-3.74 3.46-42.98 34.648-54.54 30.019.31-4.776-3.87-13.408 4.22-22.491z" fill="#A00"/><path d="M1393.62 350.206c1.25 1.067 2.5 2.135 3.74 3.23-5.39 3.736-11.61 7.178-17.84 9.994l-.08-2.126c-.07-1.518 1.7-8.503 3.09-11.098h11.09zM1296.99 292.321c1.25 1.067 2.51 2.135 3.74 3.23-5.39 3.736-11.61 7.022-17.84 9.847l-.08-1.979c-.06-1.518 1.7-8.503 3.09-11.098h11.09z" fill="#7F0000"/><path d="M1342.93 266.295l28.6-6.156c1.85.892 19.92 1.279 23.23 3.276-1.04-.571-23.82.865-21.87 1.978 21.31 12.176 43.17 25.013 64.56 36.342 4.82 2.549 13.21 6.359 11.63 2.871 0 0-7.37-13.197-11.17-17.494 7.1 1.785 32.15 29.458 34.1 31.685-.19 1.509-.39 3.009-.54 4.527-.37 3.58-.64 7.178-.84 10.786-2.1 2.31-87.51 10.196-86.88 12.037-58.93-27.341-117.73-58.805-40.82-79.852z" fill="#232323"/><path d="M1443.5 315.134c-3.98 6.286-29.26 19.05-47.33 23.421-14.89-4.39-25.44-11.825-17.51-14.936 7.56-2.972 27.63-12.829 40.68-15.801 7.65-1.739 24.92 6.101 24.16 7.316z" fill="#333"/><path d="M1451.93 310.8c-3.98 6.285-29.26 19.049-47.33 23.421-14.89-4.39-7.73-8.945.18-12.056 7.57-2.972 22.39-11.954 35.44-14.917 7.64-1.74 12.47 2.346 11.71 3.552z" fill="#4F4A4A"/><path d="M1407.05 289.771c-3.98 6.286-1.46 12.995-19.52 17.366-14.89-4.39-28.28-12.332-21.85-17.899 1.98-1.712 3.12-5.715 16.17-8.678 7.64-1.731 25.96 7.997 25.2 9.211z" fill="#333"/><path d="M1413.42 296.83c-3.97 6.285-25.21 11.899-25.89 10.307-2.05-2.283-5.72-11.31 2.21-14.421 7.56-2.972 24.56-13.887 28.76-12 2.84 1.27-4.31 14.908-5.08 16.114z" fill="#333"/><path d="M1417.86 283.293c-3.96 4.288-6.53 4.84-24.49 10.932-14.8.58-7.68-3.395.19-6.727 7.51-3.184 3.38-2.788 16.35-7.077 7.6-2.521 8.71 2.043 7.95 2.872z" fill="#4F4A4A"/><path d="M1393.35 355.81c0-.239-.33-.433-.74-.433-.42 0-.75.194-.75.433s.33.433.75.433c.4-.01.74-.203.74-.433z" fill="#D80000"/><path d="M1412.42 370.157c0-7.104-5.04-15.727-11.26-19.252-3.11-1.767-5.81-1.675-7.97-.755-2.71 1.16-7.72 3.939-9.56 5.623-5.25 4.786 7.67 26.053 14.73 27.213 1.76.285 8.52-4.206 10.88-5.679 1.95-1.223 3.18-3.662 3.18-7.15z" fill="#192D4B"/><path d="M1403.84 375.062c0-7.104-5.05-15.727-11.27-19.252-6.22-3.534-11.26-.635-11.26 6.469 0 7.105 5.04 15.728 11.26 19.253 6.22 3.533 11.27.635 11.27-6.47z" fill="#192D4B"/><path d="M1377.29 306.704c-3.98 6.286-5.78 10.031-23.85 14.403-14.89-4.39-19.78-6.737-17.51-14.936.51-1.869 7.59-7.16 20.64-10.133 7.64-1.73 21.48 9.452 20.72 10.666z" fill="#333"/><path d="M1383.66 313.763c-3.97 6.285-25.21 11.899-25.89 10.307 1.82-5.006-5.72-11.301 2.21-14.412 7.56-2.972 24.56-13.886 28.76-12 2.84 1.261-4.31 14.899-5.08 16.105z" fill="#333"/><path d="M1388.1 300.226c-3.96 4.288-6.54 4.84-24.49 10.932-14.8.58-7.68-3.395.18-6.727 7.52-3.184 3.39-2.788 16.36-7.077 7.6-2.521 8.71 2.043 7.95 2.872z" fill="#4F4A4A"/><path d="M1296.63 300.355c0-.239-.33-.433-.74-.433-.42 0-.75.194-.75.433s.33.432.75.432c.4 0 .74-.193.74-.432z" fill="#D80000"/><path d="M1315.7 314.702c0-7.105-5.04-15.728-11.26-19.252-3.11-1.767-5.81-1.675-7.97-.746-2.71 1.16-7.72 3.939-9.56 5.623-5.25 4.786 7.67 26.053 14.73 27.212 1.76.295 8.52-4.205 10.88-5.678 1.95-1.224 3.18-3.671 3.18-7.159z" fill="#192D4B"/><path d="M1307.11 319.607c0-7.105-5.04-15.728-11.26-19.252-6.22-3.534-11.26-.626-11.26 6.478 0 7.105 5.04 15.728 11.26 19.252 6.22 3.525 11.26.626 11.26-6.478z" fill="#192D4B"/><path d="M1300.54 324.061c2.75 0 3.16-2.982 3.16-4.758 0-5.843-4.44-13.233-9.7-16.132-1.27-.699-2.47-1.077-3.48-1.077-2.75 0-3.16 2.982-3.16 4.758 0 5.844 4.44 13.233 9.7 16.132 1.27.709 2.46 1.077 3.48 1.077z" fill="#848484"/><path d="M1372.31 261.381c4.41 3.736 8.27 7.73 7.99 9.12-.27 1.389-41.71 28.004-55.06 26.053-13.34-1.951-11.57-7.528-4.9-16.979 6.67-9.452 43.48-25.372 51.97-18.194z" fill="#333"/><path d="M1366.92 275.59c0 3.599 2.85 6.277 6.35 5.964 3.51-.313 6.35-3.479 6.35-7.086 0-3.608-2.84-6.276-6.35-5.964-3.5.313-6.35 3.479-6.35 7.086zm1.73-.11c0-2.337-1.71-4.721 4.96-5.31 1.44-.129.17 2.779 1.07 3.654.82.8 3.89-.497 3.89.782 0 2.696-2.21 5.07-4.96 5.31-2.74.239-4.96-1.749-4.96-4.436z" fill="#232323"/><path d="M1366.53 275.461c0 3.875 3.05 6.737 6.82 6.406 3.76-.332 6.82-3.746 6.82-7.611 0-3.874-3.06-6.736-6.82-6.405-3.77.331-6.82 3.736-6.82 7.61zm1.21-.11c0-3.175 2.51-5.973 5.6-6.249 3.09-.276 5.59 2.08 5.59 5.264 0 3.175-2.5 5.973-5.59 6.249-3.09.267-5.6-2.08-5.6-5.264z" fill="#141414"/><path d="M1276.94 297.704c3.12 4.942 6.61 6.203 6.61 6.203s2.37-11.439 12.43-6.083c10.61 5.641 13.72 16.408 13.27 25.528.01-.156 70.27 40.308 70.27 40.308 0-3.801 2.16-17.393 13.4-10.905 11.24 6.488 35.9 5.595 39.48 4.721 22.09-5.402 53.29-26.081 52.65-32.182-10.24-8.227-19.95-14.789-20.61-15.129 0 0-5.89-8.725-22.37-22.345-2.57-2.125-21.84-18.101-43.64-25.123-5.32-1.721-26.9-2.558-26.9-2.558s-24.96-8.053-26.69-7.372c-18.6 7.326-33.32 21.194-44.7 30.563-1.57 1.371-6.55 4.003-6.39 4.168-.15 1.39-19.93 5.274-16.81 10.206zm117.08-34.804c-24.58 7.721-40.27 22.988-40.27 22.988-3.02.12-33.72 5.19-31.86 2.282 5.39-8.374 33.94-25.574 47.44-26.743 1.47-.129 14.96-.037 24.39 1.417.1.01.2.037.3.056zm5.1 48.544c14.34-4.703 26.97-10.454 39.62-22.878 1.42-1.362 16.57 11.991 23.54 22.068 2.04 2.945-12.58 12.24-23.19 18.221-16.84 9.488-27.29 12.525-28.71 10.519-5.71-11.402-13.35-27.249-11.26-27.93zm-79.71-17.633c.78.451 35.13-6.175 43.78-2.558 7.21 3.019 24.91 11.264 29.8 18.792.8 1.233 7.61 20.089 3.31 21.847-2.43.994-16.05.203-76.89-38.081z" fill="#D80000"/><path d="M1270.44 288.704c1.77 3.175 2.86 4.012 6.33 9.515 3.12 4.942 6.64 6.829 6.64 6.829s2.5-12.378 12.57-7.031c10.61 5.641 13.73 16.215 13.27 25.335.01-.157 70.27 40.308 70.27 40.308 0-3.801 2.96-16.97 14.19-10.473 11.25 6.488 14.49 19.252 14.05 26.154 11.57 4.629 17.95 1.095 23.23 1.095.91-9.157 1.59-14.117 1.93-23.301-2.94-5.632-21.78-16.988-22.4-17.881-2.95-5.65-11.71-23.402-11.41-27.81-21.87-20.504-44.85-25.906-44.85-25.906-3.02.12-34.23 5.531-32.37 2.632-15.07-8.853-27.75-28.243-30.39-27.341-2.03 5.328-4.14 9.377-9.47 1.242-3.28 2.908-9.74 4.574-11.59 26.633zm49.48 4.776c.78.451 30.01-5.374 39.93-3.175 13.34 2.954 28.71 15.681 32.32 20.964.82 1.214 8.26 18.506 4.13 20.623-3.35 1.721-32.67-13.767-76.38-38.412z" fill="#A00"/><path d="M1319.8 293.683l.25-.451c-.01-.009-.03-.009-.03-.009s.03.009.14.009c.83 0 3.75-.396 7.43-.902 7.77-1.058 19.5-2.669 26.7-2.669 1.64 0 2.98.083 3.98.258 11.35 1.896 30.91 15.424 34.11 21.221.57 1.04 6.8 15.065 5.19 19.639-.24.672-.64 1.132-1.19 1.353a1.16 1.16 0 0 1-.43.064c-4.33 0-35.4-14.651-76.15-38.513zm7.87-.838c-3.13.424-5.55.755-6.81.865 40.28 23.541 70.86 37.971 75.12 37.971.13 0 .21-.019.24-.028.41-.166.7-.515.89-1.049 1.47-4.169-4.28-17.623-5.16-19.215-2.85-5.172-21.83-18.976-33.73-20.964-.98-.166-2.29-.249-3.9-.249-7.17.01-18.9 1.611-26.65 2.669zM1410.17 339.531l-.02-.028c-6.99-13.417-11.81-26.89-11.32-28.096a.316.316 0 0 1 .21-.202c15.61-5.2 27.08-10.611 39.53-22.814a.55.55 0 0 1 .41-.156c2 0 10.72 8.926 20.26 18.875 1.18 1.233 2.28 2.365 3.23 3.349.31.322.43.727.36 1.206-.62 4.261-17.56 14.034-22.74 16.933-12.35 6.902-23.65 11.549-28.12 11.549-.93-.009-1.52-.211-1.8-.616zm28.76-50.781c-12.49 12.249-24 17.688-39.62 22.906-.12 1.334 4.03 13.611 11.3 27.58.18.249.66.378 1.37.378 3.65 0 13.69-3.553 27.87-11.476 10.57-5.908 22.02-13.353 22.49-16.556.04-.313-.03-.57-.22-.773-.96-.985-2.05-2.126-3.23-3.35-6.71-7.003-17.95-18.718-19.89-18.718-.07 0-.07.009-.07.009z" fill="#7F0000"/><path d="M1327.08 281.967c12.93-11.098 40.95-20.236 52.29-20.816-5.88-3.396-20.5-8.356-29.85-11.641-9.43-3.323-20.37-3.387-24.66-3.405-1.82-.01-4.7 6.846-9.63 7.941-1.58-1.26-27.71-1.113-26.81 2.964-6.01 2.834-3.91 13.767-6.47 16.123 19.62 7.224 38.35 16.224 38.35 16.224s2.32-3.552 6.78-7.39z" fill="#D80000"/><path d="M1284.53 295.753s-13.65-11.071-9.83-24.709c.81-3.276 7.34-8.982 7.34-8.982s-10.39 4.896-11.48 13.298c-.52 4.031-3.17 10.463 13.97 20.393z" fill="#D80000"/><path d="M1283.62 264.528c2.92-.543-6.22.939-5.94 12.746 4.33 7.555 13.04 5.199 11.57 3.368-3.4-4.261-5.38-6.239-6.37-8.236l.74-7.878z" fill="#fff"/><path d="M1396.91 331.837c-1.76 1.573-14.35-4.951-14.35-4.951s7.68-3.543 12.75-7.712l.64 1.417c2.62 6.617 1.82 10.491.96 11.246zM1355.59 313.524l4.25 2.291s5.88-12.24 10.42-21.065l-2.4-1.261c-7.11 6.847-12.27 20.035-12.27 20.035z" fill="#000"/><path d="M1485.81 325.671c.97 1.721 1.66 7.16.8 12.046-3.46 4.325-6.06 6.194-7.52 7.096 0-3.341-.9-10.832-.9-10.832l7.62-8.31zM1448.44 351.696c.88 3.092.53 8.991-.29 11.909-3.82 3.294-12.91 6.451-14.75 5.926-1.05-3.902-.36-11.991-.36-11.991l15.4-5.844z" fill="#75001C"/><path d="M1478.9 341.095c-.09-1.215-.21-2.466-.32-3.58 1.09-.92 2.14-1.877 3.15-2.89 1.64-1.656 3.56-3.644 4.96-5.853.17 1.123.28 2.43.31 3.81-2.29 3.185-5.04 6.019-8.1 8.513z" fill="#FF8C2E"/><path d="M1486.61 337.717c-.29.313-.59.635-.88.957l-.44.479-.45.46-.45.46c-.15.157-.3.313-.45.46l-.93.893c-.33.294-.65.57-.96.865-.16.147-.33.276-.5.414l-.49.405-.52.386c-.17.129-.34.258-.52.378-.17.119-.35.248-.52.359l-.54.34.38.221-.13-2.733c0-.23-.02-.46-.05-.681l-.07-.681-.13-1.353-.08-.672c-.02-.221-.04-.451-.07-.672l-.18-1.343-.21-1.344c-.06-.451-.14-.892-.22-1.343.02.451.06.902.09 1.352l.08 1.353c.06.902.13 1.804.18 2.706l.09 1.353.05.681c.02.23.03.451.04.671l.11 2.697.02.46.36-.239.56-.359c.18-.12.35-.249.54-.378.36-.248.7-.533 1.04-.8l.5-.433c.16-.147.33-.285.48-.432.32-.304.64-.598.94-.911l.89-.948c.15-.157.29-.331.44-.497l.42-.497.41-.506.4-.516c.26-.312.52-.662.77-1.012zM1448.44 351.696c.05.249.11.488.15.737.03.248.08.496.1.745.03.248.06.497.07.745.02.249.04.497.05.746.01.248.03.497.02.745 0 .249.01.497 0 .746-.01.497-.02.993-.05 1.49-.03.497-.05.994-.1 1.491-.02.249-.06.497-.07.746-.03.248-.07.497-.1.745-.06.497-.14.985-.24 1.473-.05.248-.11.487-.16.727l-.18.717.06-.101-.39.313-.39.294c-.27.194-.55.378-.82.562-.28.175-.56.35-.85.524-.28.166-.58.332-.87.488a37.615 37.615 0 0 1-3.63 1.693c-1.23.516-2.48.976-3.76 1.362-.64.194-1.28.369-1.93.497-.33.065-.66.12-.98.157-.32.027-.65.046-.92-.019l.16.157-.17-.718c-.05-.239-.09-.488-.13-.727-.04-.239-.06-.497-.1-.736-.04-.249-.05-.497-.08-.746-.02-.248-.06-.497-.07-.745l-.04-.745c-.02-.497-.05-1.003-.06-1.5-.02-.497-.01-1.004-.02-1.5 0-.507 0-1.004.01-1.501.01-.496.02-1.003.04-1.5.02-.497.03-1.003.05-1.5a50.492 50.492 0 0 0-.24 3 50.477 50.477 0 0 0-.11 3.01c-.01.506.01 1.003.01 1.509l.02.755c.01.248.03.506.05.754.02.249.03.506.06.755.03.248.05.506.09.754.03.249.07.507.12.755l.16.746.03.119.13.028c.38.092.73.073 1.08.046.34-.037.68-.083 1.03-.157a23.6 23.6 0 0 0 1.97-.487c1.3-.387 2.58-.838 3.83-1.344a39.868 39.868 0 0 0 3.66-1.758c.29-.156.58-.331.88-.506.29-.175.58-.359.86-.543.29-.184.57-.386.84-.589l.41-.313.39-.331.06-.046.02-.064c.05-.249.12-.497.17-.746.05-.248.1-.497.14-.745.08-.497.15-.994.2-1.5.03-.249.06-.497.07-.755.02-.248.05-.497.06-.755.04-.506.06-1.003.06-1.509l.01-.754-.01-.755c-.01-.248-.03-.506-.04-.755-.01-.248-.04-.506-.06-.754-.02-.249-.05-.497-.08-.746a19.11 19.11 0 0 0-.11-.745c-.03-.249-.1-.497-.15-.736-.06-.221-.14-.46-.21-.7z" fill="#560000"/><path d="M1448.96 355.801c.02 1.15-.01 2.356-.11 3.506-5 2.908-10.34 5.19-15.95 6.46a49.354 49.354 0 0 1-.05-4.362c5.53-1.27 10.9-3.23 16.11-5.604z" fill="#FF8C2E"/><path d="M1458.91 359.472l14.3-8.816-.67-5.071-14.3 8.817.67 5.07z" fill="#D6D6D6"/><path d="M1321.63 288.667c-.08-.138-.12-.359.05-.635 2.58-4.013 10.73-10.353 20.76-16.16 10.67-6.166 20.72-10.169 26.88-10.703.3-.027 1.05-.037 2.08-.037 4.77 0 14.86.304 22.37 1.464.07.009.15.027.23.036l1.08.203-.98.304c-24.22 7.61-40.01 22.776-40.17 22.923l-.07.065-.11.009c-.73.028-3.25.377-6.45.81-6.92.948-17.38 2.374-22.49 2.374-2.49 0-3.01-.331-3.18-.653zm71.28-25.685c-7.38-1.058-16.91-1.344-21.51-1.344-.99 0-1.75.019-2.04.037-13.15 1.141-41.82 18.203-47.24 26.633-.03.037-.05.083-.04.11.04.065.34.396 2.74.396 5.07 0 15.52-1.426 22.43-2.365 3.19-.433 5.54-.755 6.39-.81 1.16-1.113 16.33-15.175 39.27-22.657z" fill="#7F0000"/><path d="M1283.62 264.528c-2.92 2.844-4.63 5.181-4.48 11.421 2.06 3.607 5.55 5.54 8.47 6.368-2.53.571-8.13-.543-10.92-5.42 1.93-10.059 5.14-11.531 6.93-12.369z" fill="#848484"/><path d="M1297.81 316.063c1 0 1.16-1.086 1.16-1.739 0-2.135-1.63-4.841-3.55-5.908-.46-.258-.9-.396-1.27-.396-1.01 0-1.16 1.095-1.16 1.739 0 2.135 1.63 4.841 3.55 5.908.46.267.9.396 1.27.396z" fill="#192D4B"/><path d="M1397.17 379.571c2.75 0 3.17-2.982 3.17-4.758 0-5.844-4.45-13.233-9.7-16.132-1.27-.7-2.48-1.068-3.48-1.068-2.75 0-3.17 2.982-3.17 4.758 0 5.844 4.45 13.234 9.7 16.132 1.27.7 2.48 1.068 3.48 1.068z" fill="#848484"/><path d="M1394.65 371.997c1.11 0 1.28-1.205 1.28-1.923 0-2.365-1.79-5.356-3.92-6.525-.52-.285-1-.432-1.41-.432-1.11 0-1.28 1.205-1.28 1.923 0 2.365 1.8 5.356 3.92 6.525.51.285 1 .432 1.41.432z" fill="#192D4B"/><path opacity=".45" d="M1327.67 292.845c-3.13.423-5.55.755-6.81.865 40.28 23.541 70.86 37.97 75.12 37.97a.88.88 0 0 0 .24-.027c.41-.166.7-.516.89-1.049 1.47-4.169-4.28-17.624-5.16-19.216-2.85-5.171-21.83-18.976-33.73-20.963-.98-.166-2.29-.249-3.9-.249-7.17.009-18.9 1.611-26.65 2.669zm111.26-4.095c-12.49 12.249-24 17.687-39.62 22.905-.12 1.335 4.03 13.611 11.3 27.581.18.248.66.377 1.37.377 3.65 0 13.69-3.552 27.87-11.476 10.57-5.908 22.02-13.353 22.49-16.555.04-.313-.03-.571-.22-.773-.96-.985-2.05-2.126-3.22-3.35-6.72-7.003-17.96-18.718-19.9-18.718-.07 0-.07.009-.07.009zm-46.02-25.768c-7.38-1.058-16.91-1.343-21.51-1.343-.99 0-1.75.018-2.04.036-13.15 1.142-41.82 18.203-47.24 26.633-.03.037-.05.083-.04.111.04.064.34.395 2.74.395 5.07 0 15.52-1.426 22.43-2.365 3.19-.432 5.54-.754 6.39-.81 1.16-1.113 16.33-15.175 39.27-22.657z" fill="#004EBB"/><path d="M1313.36 255.068c1.02-.663 7.14 2.76 7.14 2.76l-.23 4.372 3.22 2.991-6.45-2.991-.92-3.912-2.76-3.22z" fill="#A00"/><path d="M1316.37 255.786l4.12 2.043 14.26-7.133s9.76-.064 10.35-.46c.59-.395-12.79-1.564-12.79-1.564l-15.94 7.114z" fill="#EF1111"/><path d="M1288.65 257.691l11.73-1.896s5.4.865 5.8.975c.39.111 2.46 1.28 2.46 1.28l-1.95-1.73 5.29-1.151c0 .019-19.37-1.454-23.33 2.522z" fill="#A00"/><path d="M1260.43 215.34c20.1-7.381 48.19-22.777 46.51-28.934 10.23 3.865 19.82 9.056 29.64 13.915 2.9 1.435 13.24 7.886 14.04 11.733.79 3.782-5.53 6.957-7.3 10.169.7 8.66.93 5.577-1.19 10.326-1.02 2.3-6.7 11.65-10.15 10.334-2.96-1.141-6.63-.092-9.81.295-3.94.478-6.65 3.653-10.3 4.316-5.68 1.03-11.92-1.482-17.71-.773-7.59.929-10.12-2.071-15.77-7.077-4.96-4.399-11.36-6.985-16.84-10.666a192.688 192.688 0 0 1-9.97-7.178c-.53-.405-6.1-1.859-3.7-2.936.02-.009 4-.386 12.55-3.524z" fill="#14AFEB"/><path d="M1306.95 186.406s.21.129.62.368c.4.24.99.589 1.74 1.031.37.221.79.469 1.25.727.44.276.92.571 1.43.884.52.312 1.06.653 1.63 1.003.58.349 1.16.745 1.78 1.141.61.405 1.26.81 1.91 1.251.65.442 1.32.902 2 1.381 5.28 3.644 10.68 6.138 15.05 11.071 3.34 3.773 7.75 13.748 8.65 18.699.18 1.013.27 1.915.31 2.66.03.745.03 1.334-.01 1.749-.03.404-.07.625-.07.625s.06-.211.14-.625c.09-.405.18-1.004.21-1.767.03-.378.03-.801.03-1.261-.02-.46-.03-.948-.08-1.473-.04-.524-.13-1.076-.21-1.656-.11-.58-.22-1.187-.39-1.804-1.24-4.638-2.56-11.448-5.23-15.368-2.72-4.003-9.47-5.494-13.29-8.448-.72-.553-1.47-1.059-2.2-1.556-.73-.497-1.44-.994-2.17-1.444-.71-.461-1.41-.902-2.08-1.326-.7-.414-1.38-.8-2.02-1.187-.32-.184-.64-.377-.95-.552a15.17 15.17 0 0 0-.92-.515c-.61-.332-1.19-.635-1.74-.93-.54-.285-1.05-.561-1.53-.81-.48-.239-.92-.451-1.33-.653a623.764 623.764 0 0 1-2.53-1.215z" fill="#5AC8F5"/><path d="M1249.25 219.131s1.28.276 3.51.764c2.24.478 5.44 1.15 9.3 1.932 1.92.396 4.01.819 6.23 1.252 1.1.221 2.24.442 3.4.672 1.16.23 2.34.487 3.54.736 2.4.497 4.88 1.021 7.41 1.537 6.01 1.214 12.82.598 18.57 2.125 4.82 1.289 7.06 2.191 12.29 2.54 5.38.369 11 4.602 16.28 6.194.29.083.49.166.63.221.14.055.22.073.22.073s-.08-.027-.2-.092c-.14-.055-.34-.156-.61-.257-4.82-1.813-8.7-6.976-13.26-8.191-2.6-.69-5.75 1.289-8.36 1.013-4.68-.507-6.68-3.691-12.46-3.654-4.35.028-8.34-.092-12.62-.948-2.53-.506-5.04-.975-7.46-1.445-1.21-.23-2.39-.478-3.57-.671-1.18-.203-2.32-.405-3.44-.599-2.24-.395-4.36-.745-6.32-1.076a1038.696 1038.696 0 0 0-13.08-2.126z" fill="#0082C8"/><path d="M1276.82 238.65l15.8 12.967 15.99-5.062-25.89-15.083-5.9 7.178z" fill="#14AFEB"/><path d="M1357.9 251.377c1.62-3.175 4.19-5.659 5.43-6.294.01-.01.02-.019.03-.019 2.59-.975 13.61 3.35 14.51 3.746.01.009 2.23 8.549-4.71 5.751-8.62-3.487-14.43-4.794-15.26-3.184z" fill="#0082C8"/><path d="M1373.14 254.23c-2.54-1.058-10.39-3.589-12.99-3.745a53.7 53.7 0 0 1 5.21-2.982c3.69.405 9.73 2.356 12.73 3.396.1 2.3.99 5.816-4.95 3.331z" fill="#14AFEB"/><path d="M1369.19 252.813c-3.27-1.077-7.31-2.227-9.04-2.328a53.7 53.7 0 0 1 5.21-2.982c1.6.175 3.65.653 5.7 1.205a52.9 52.9 0 0 0-1.87 4.105z" fill="#5AC8F5"/><path d="M1261.37 282.446l-3.45-3.451-2.99 2.07 1.61 2.301-.23 6.442 5.06-7.362zM1389.8 252.169l-2.96 1.242.51 2.338 1.81-.405 3.87 1.748-3.23-4.923zM1365.2 244.871l2.56-1.942-1.09-2.135-1.63.847-4.19-.727 4.35 3.957z" fill="#A00"/><path d="M1274.39 272.295c.77-2.807 2.28-5.255 4.02-7.344 1.35-1.242 2.63-2.015 3.63-2.889.16.248.32.46.48.69-1.42 1.601-4.28 3.727-4.93 4.969-9.31 17.826 6.94 28.032 6.94 28.032-15.27-11.421-11.42-18.82-10.14-23.458z" fill="#7F0000"/><path d="M1332.51 239.663h-10.59l-6.9 2.76-5.98 2.531-5.57-.442s-2.7.203-3.16.893c-.47.69-3.17 3.911-3.17 3.911h-5.35l3.45-7.822h12.43l8.97-3.681 3.91-.92 11.96 2.77z" fill="#11C6EF"/><path d="M1332.51 239.663h-10.59l-6.9 2.76-5.98 2.531-5.57-.442s-2.7.203-3.16.893c-.47.69-3.17 3.911-3.17 3.911l7.73-2.521 7.93.046 6.87-3.691 9.09-1.481 4.13 1.316-.38-3.322z" fill="#0082C8"/><path d="M1293.69 245.009l-3.52-5.484-6.34-1.353-2.69-4.776 4.05 3.193 7.27.561 4.96 4.353-3.73 3.506z" fill="#11C6EF"/><path d="M1331.46 250.853l3.52 6.285-2.14 6.755 5.36-5.218-2.91-7.206-1.84-1.84-1.99 1.224z" fill="#EF1111"/><path opacity=".3" d="M1311.17 245.258c.45.221.95.506 1.49.911 1.26.939.16 1.859 3.11 1.325 3.77-.681 1.88-2.88 4.16-4.804.79-.671 1.96-.883 2.21-2.043.2-.883-1.22-1.5-1.07-2.19.51-2.31 3.94-2.052 5.58-3.221 2.75-1.942.78-2.015-.02-4.187 1.84-.479 9.07-1.279 7.4-4.215-2.18-3.847-11.74.911-13.2-4.38 2.1-.819 10.87-.341 11.66-2.448 1.02-2.752-4.19-1.427-4.8-3.368-.27-.875 1.32-1.749 1.09-2.715-.3-1.298-2.66-1.436-2.85-2.522-.44-2.392 4.6-1.389 4.38-4.389-.12-1.629-2.07-1.988-2.55-3.359-.38-1.068.53-2.191 0-3.461-.99-2.365-4.97-3.984-7.27-4.509-2.22-.497-2.65.699-4.17-1.141-1.84-2.236-.5-3.782-4.12-4.813-2.12-.608-5.14.175-6.74 1.702-.8.764-.95 1.97-1.68 2.632-1.26 1.16-3.17 1.105-4.26 2.697-.64.938-.29 2.613-.93 3.34-2.03 2.31-8.05.313-9.02 4.473-.69 2.991 4.92 3.782 2.35 5.659-2.94 2.145-13.71-2.337-14.37 3.774-.76 7.03 14.21 8.981 18.4 9.35 1.14.101 6.94-.111 6.74 1.895-.18 1.712-4.01 1.187-4.51 2.347-.58 1.353 1.29 1.61 2.3 2.429 1.49 1.197 1.42 1.749 2.26 3.157.96 1.592.71 1.813 2.69 2.733 1.25.58 4.33.608 5.04 1.896.86 1.546-.59 2.42-.99 3.828-.79 2.715.06 2.798 1.69 3.617z" fill="#fff"/><path opacity=".1" d="M1312.65 212.247c-.24-.156-.51-.34-.8-.616-.66-.635-.08-1.261-1.64-.902-2 .46-1.01 1.951-2.21 3.258-.42.46-1.04.607-1.18 1.38-.1.598.65 1.022.57 1.482-.27 1.564-2.09 1.389-2.96 2.181-1.47 1.316-.42 1.362.01 2.843-.98.323-4.82.866-3.93 2.853 1.16 2.614 6.23-.616 7.01 2.973-1.11.561-5.77.23-6.18 1.665-.55 1.869 2.21.967 2.54 2.283.15.598-.69 1.187-.57 1.84.15.875 1.4.976 1.51 1.712.23 1.62-2.44.939-2.32 2.982.07 1.104 1.1 1.343 1.36 2.282.2.727-.29 1.491 0 2.347.52 1.601 2.63 2.705 3.85 3.064 1.18.341 1.41-.478 2.22.773.98 1.519.27 2.568 2.18 3.267 1.12.414 2.74-.12 3.58-1.15.43-.525.5-1.335.89-1.786.67-.782 1.68-.745 2.26-1.831.34-.635.16-1.776.5-2.264 1.07-1.564 4.28-.211 4.78-3.037.37-2.024-2.61-2.567-1.24-3.837 1.56-1.454 7.28 1.592 7.63-2.559.4-4.767-7.54-6.101-9.77-6.349-.61-.065-3.69.073-3.58-1.289.1-1.159 2.13-.8 2.4-1.592.31-.92-.68-1.095-1.23-1.647-.79-.81-.75-1.187-1.2-2.144-.51-1.077-.38-1.224-1.43-1.859-.66-.396-2.29-.414-2.68-1.289-.45-1.049.32-1.638.54-2.595.4-1.822-.05-1.877-.91-2.439z" fill="#fff"/><path opacity=".2" d="M1313.09 234.988c.28.156.61.34.96.616.81.635.11 1.261 2.02.902 2.45-.46 1.22-1.951 2.7-3.258.52-.451 1.28-.598 1.44-1.38.12-.598-.8-1.022-.7-1.482.33-1.564 2.56-1.398 3.63-2.19 1.78-1.316.51-1.362-.01-2.844 1.18-.322 5.88-.865 4.8-2.852-1.42-2.605-7.62.616-8.58-2.973 1.37-.561 7.06-.23 7.57-1.666.66-1.868-2.72-.966-3.11-2.282-.19-.598.85-1.187.71-1.84-.2-.884-1.73-.976-1.85-1.712-.28-1.62 2.99-.939 2.84-2.973-.08-1.113-1.33-1.343-1.66-2.282-.24-.727.35-1.481 0-2.346-.63-1.602-3.22-2.706-4.72-3.056-1.43-.34-1.72.479-2.7-.773-1.2-1.518-.32-2.567-2.67-3.267-1.38-.414-3.34.12-4.38 1.151-.53.515-.62 1.334-1.09 1.785-.82.782-2.06.745-2.77 1.831-.41.635-.19 1.776-.6 2.264-1.31 1.565-5.22.212-5.85 3.037-.45 2.025 3.2 2.568 1.53 3.838-1.91 1.454-8.91-1.593-9.33 2.558-.49 4.767 9.22 6.101 11.95 6.341.75.064 4.51-.074 4.37 1.288-.12 1.159-2.6.801-2.92 1.592-.38.92.83 1.095 1.5 1.647.96.81.92 1.187 1.47 2.144.63 1.077.46 1.234 1.74 1.859.81.396 2.81.415 3.27 1.289.55 1.049-.39 1.638-.65 2.595-.52 1.831.03 1.887 1.09 2.439z" fill="#fff"/><path opacity=".3" d="M1264.74 277.32c-7.02 1.638-4.88-4.997-5.64-5.237.23.074 7.13 4.887 5.64 5.237z" fill="#14AFEB"/><path d="M1230.51 298.661c-.18-.092.62-1.27.43-1.362-7.06-3.561-16.58 5.65-29.68-14.43l-.44 1.362s7.7 21.378 16.67 19.712c8.97-1.656 13.02-5.282 13.02-5.282z" fill="#A00"/><path d="M1209.2 283.78c.46-.193 2.17-1.095 2.17-1.095s.23 2.043.15 2.402c-.09.359 1.67.359 1.67.359l1.59 2.144s.2 5.825.44 5.77c.24-.055 1.96-1.638 1.96-1.638l.43 2.917 2.16-1.509.66 2.779.62-2.328 1.73.939-.4-1.537c2.77 1.638 5.88 2.926 8.56 4.325 0 0-4.04 3.626-13.02 5.282-8.97 1.666-16.66-19.712-16.66-19.712s1.24-.294 3.06-.699c2.28.856 4.64 1.693 4.88 1.601z" fill="#7F0000"/><path d="M1371.36 222.159c-1.46 1.675-2.5 5.384-2.52 6.856-.02 1.261.83 2.743.52 3.948-1.04 4.022-5.82.442-7.66 1.951-1.98 1.629 1.46 4.537 3.03 5.016 2.35.717 5.71-.277 7.97-.967 4.8-1.463 11.06-5.595 13.28-10.261 1.07-2.245-7.15-5.577-8.38-6.055-1.31-.506-3.81-1.785-5.25-1.252-.34.138-.67.405-.99.764z" fill="#14AFEB"/><path d="M1385.1 226.954c-3.35 7.058-23.07 18.138-25.52 5.853 1.51.727 3.62 1.675 3.29 1.362-.47-.461-1.47-2.227-1.47-2.227l4.43.819s-.89-.783-.73-1.224c.54-1.418.52-1.105 1.12-1.988.61-.893 1.13-1.997.62-2.144-.51-.148.84-3.672.84-3.672.78-1.371 1.57-2.614 2.68-3.442.27-.203.56-.387.87-.534 2.35-1.113 14.9 5.034 13.87 7.197z" fill="#192D4B"/><path opacity=".3" d="M1316.67 250.291c.21.249.45.553.71.994.59 1.022.07 2.025 1.47 1.445 1.79-.745.9-3.138 1.98-5.236.37-.727.94-.966 1.05-2.227.09-.966-.58-1.638-.52-2.384.24-2.512 1.87-2.245 2.66-3.506 1.31-2.117.38-2.199-.01-4.574.88-.524 4.31-1.389 3.52-4.592-1.04-4.196-5.59.994-6.28-4.776 1-.893 5.17-.368 5.54-2.669.49-3-1.99-1.555-2.28-3.672-.13-.957.62-1.905.51-2.963-.13-1.408-1.27-1.564-1.36-2.752-.2-2.604 2.19-1.509 2.08-4.785-.05-1.785-.98-2.163-1.21-3.672-.19-1.169.25-2.392 0-3.773-.47-2.577-2.37-4.353-3.46-4.914-1.05-.543-1.26.764-1.98-1.252-.88-2.438-.24-4.122-1.96-5.245-1.01-.654-2.45.193-3.21 1.85-.38.828-.46 2.144-.8 2.871-.59 1.261-1.5 1.205-2.02 2.945-.3 1.03-.14 2.852-.44 3.644-.97 2.512-3.83.34-4.29 4.877-.33 3.258 2.34 4.123 1.11 6.166-1.4 2.347-6.52-2.549-6.83 4.114-.36 7.666 6.75 9.791 8.75 10.196.54.111 3.3-.119 3.2 2.071-.08 1.859-1.91 1.288-2.14 2.549-.28 1.472.6 1.749 1.09 2.65.71 1.307.67 1.915 1.08 3.442.46 1.73.34 1.97 1.28 2.982.59.635 2.06.662 2.39 2.071.4 1.684-.29 2.631-.48 4.168-.33 2.982.07 3.065.85 3.957z" fill="#fff"/></g><defs><filter id="filter0_d" x="-4" y="-2" width="1608" height="408" filterUnits="userSpaceOnUse" color-interpolation-filters="sRGB"><feFlood flood-opacity="0" result="BackgroundImageFix"/><feColorMatrix in="SourceAlpha" values="0 0 0 0 0 0 0 0 0 0 0 0 0 0 0 0 0 0 127 0"/><feOffset dy="2"/><feGaussianBlur stdDeviation="2"/><feColorMatrix values="0 0 0 0 0 0 0 0 0 0 0 0 0 0 0 0 0 0 0.08 0"/><feBlend in2="BackgroundImageFix" result="effect1_dropShadow"/><feBlend in="SourceGraphic" in2="effect1_dropShadow" result="shape"/></filter><radialGradient id="paint0_radial" cx="0" cy="0" r="1" gradientUnits="userSpaceOnUse" gradientTransform="rotate(180 651.075 112.443) scale(42.973)"><stop stop-color="#494947"/><stop offset="1"/></radialGradient><clipPath id="clip0"><path fill="#fff" transform="translate(1130 126)" d="M0 0h357v269.749H0z"/></clipPath></defs></svg>