<svg width="375" height="156" fill="none" xmlns="http://www.w3.org/2000/svg" viewBox="0 0 375 156"><path d="M375 0H0v156h375V0z" fill="#F5FCFF"/><mask id="a" maskUnits="userSpaceOnUse" x="0" y="0" width="375" height="156"><path transform="matrix(-1 0 0 1 375 0)" fill="#F5FCFF" d="M0 0h375v156H0z"/></mask><g mask="url(#a)"><path d="M481.001-5.706L374.813.097 176.85 20.841l-36.883 21.902 167.705 97.683 140.778 13.258 32.551-159.39z" fill="#00AD00"/><path d="M437.509-7.297S75.41 4.265 51.072 44.358C21.094 93.745 318.26 226.2 318.26 226.2l250.865-59.442s-397.638-99.299-379.744-129.2C208.081 6.31 578.295-2.295 578.295-2.295L437.509-7.297z" fill="#fff"/><path d="M346.422 206.702S52.671 89.192 79.234 44.358C103.14 4.01 465.67-5.998 465.67-5.998l81.019 1.535S176.252 6.173 157.776 37.553c-19.749 33.549 379.745 144.365 379.745 144.365l-191.099 24.784z" fill="#004EBB"/><path d="M133.462 89.745c-1.571.901-1.535 2.304.084 3.118l14.993 9.594 79.388 39.945c1.62.813 4.289.793 6.068.437 6.753-1.371 16.708-4.453 22.014-7.014 1.631-.789 3.992-2.3 5.451-3.374 2.456-1.804 6.56-5.695 7.991-8.641.79-1.631 1.006-2.994-.613-3.811l-97.547-49.09c-1.619-.814-4.228-.746-5.799.156l-32.03 18.68z" fill="#0032A5"/><path d="M135.775 72.48c-.489-2.817 1.486-4.841 1.486-4.841s1.115-3.266 4.052-6.841c2.938-3.571 13.955-9.907 17.081-11.21 3.122-1.302 6.605-1.463 8.316-1.226 1.715.236 9.723 2.761 9.723 2.761s9.698.774 17.75 3.976c8.051 3.202 16.776 8.015 23.24 11.458 3.767 2.004 10.673 7.25 15.782 11.273l.598-.38s-.497-2.353-.385-2.77c.112-.42 1.314-3.366 1.314-3.366s1.467 1.487 1.916 2.717c.449 1.23-.325 3.086-.565 3.988-.136.513-.441 1.122-.673 1.555l-.016-.012a364.722 364.722 0 0 1 4.212 3.41c8.893 3.491 20.351 13.378 20.351 13.378 2.188.112 3.699 4.24 5.274 7.053 1.579 2.818 1.495 4.714 1.451 5.539-.048.826 1.05 12.644-8.541 19.285-9.594 6.637-21.04 8.12-26.138 7.775a25.502 25.502 0 0 1-5.799-1.078c-.2-.958-.385-1.856-.425-2.481-.308-5.146-4.889-11.298-9.578-13.454-6.072-2.793-8.901.044-8.589 5.194.032.509.185 1.315.389 2.16l-46.253-23.292c-.204-1.098-.424-2.224-.533-2.906-.761-4.685-4.416-9.963-8.488-12.404-6.508-3.9-8.452-.196-7.755 4.91v.008c-2.308-2.1-6.14-5.615-8.099-7.603-2.926-2.961-2.697-7.21-2.918-8.716-.22-1.507 1.82-3.86 1.82-3.86z" fill="#14AFEB"/><path d="M133.951 76.34c.22 1.506-.008 5.754 2.918 8.716 1.963 1.988 5.791 5.502 8.099 7.603v-.009c-.701-5.105 1.246-8.812 7.755-4.909 4.072 2.44 7.731 7.719 8.488 12.404.112.681.333 1.807.533 2.905l46.253 23.293c-.204-.846-.361-1.651-.389-2.16-.308-5.15 2.521-7.987 8.589-5.194 4.689 2.156 9.269 8.308 9.578 13.454.036.625.224 1.523.425 2.481 1.459.452 3.446.917 5.799 1.078 5.098.344 16.544-1.139 26.138-7.775 8.705-6.024 8.605-16.312 8.548-18.784-.805 4.232-2.941 9.53-8.796 13.558-6.052 4.164-10.773 6.404-20.696 6.805-5.847.232-9.767-1.535-11.963-2.365l-.028-.437c2.196.83 6.068 1.796 11.915 1.563 9.927-.396 14.644-2.641 20.695-6.801 5.896-4.055 8.02-9.394 8.813-13.642.028.148.048.289.068.425.021-.962-.104-2.705-1.466-5.142-.441-.789-.878-1.679-1.323-2.557-1.026 1.744-1.695.886-1.695.886-.052 1.9-.834 4.557-1.319 5.446-.485.89-1.999 4.012-6.232 7.03-4.228 3.018-9.029 4.613-11.774 5.494-2.745.882-5.358.778-5.358.778-3.223 1.619-6.513.224-6.513.224-.765-1.503-4.036-3.31-6.488-4.532-1.331-.666-3.679-2.04-5.808-3.391a65.942 65.942 0 0 1-2.837-1.888c-5.342-3.426-7.422-6.219-7.422-6.219-4.064-7.082-11.743-17.045-11.743-17.045-5.59-6.905-16.131-11.63-23.196-15.101-5.042-2.477-12.608-2.184-18.961-2.413l-7.526-.392s-7.635-2.04-7.783-6.056c-1.411 2.272-1.988 3.96-1.988 3.96s-1.975 2.027-1.487 4.84c0 0 3.255 6.918 6.549 10.946 0 0-6.024-4.753-8.22-8.188-.132.393-.2.774-.152 1.11zm60.556 22.819c1.972-.449 3.142-1.154 3.892-.489l2.192 1.996s1.146 1.118.336 1.647c-.809.529-3.506.693-5.723.826-2.216.132-2.388-1.88-2.432-2.205-.048-.328-.233-1.326 1.735-1.775z" fill="#0082C8"/><path d="M165.439 73.45c.413-.069.826-.113 1.239-.137 6.24-.376 12.552 3.575 14.72 4.785 3.483 1.94 10.019 5.455 13.795 9.86 4.616 5.382 3.526 4.945 10.512 16.892 0 0-1.98-.998-4.886-2.477.036-.02.076-.036.109-.06.809-.529-.337-1.647-.337-1.647l-2.192-1.996c-.75-.661-1.916.04-3.876.485-5.106-2.621-10.736-5.547-14.051-7.378-7.173-3.972-25.565-14.248-25.565-14.248s3.904-3.001 10.532-4.08z" fill="#0082C8"/><path d="M211.307 119.326l2.14-1.27c.83.168 1.743.473 2.749.937 4.689 2.157 9.27 8.308 9.579 13.454.036.625.224 1.523.425 2.481h.008l-3.772 2.244c-1.29.778-3.106.746-5.162-.28-4.248-2.124-7.919-7.683-8.203-12.42-.157-2.577.721-4.38 2.236-5.146z" fill="#192D4B"/><path d="M213.447 118.052l-2.14 1.27c-1.519.766-2.396 2.569-2.24 5.146.028.493.096.994.196 1.499l-1.266.377c-.204-.846-.361-1.651-.389-2.16-.26-4.293 1.667-6.978 5.839-6.132z" fill="#004687"/><path d="M209.067 124.469c.285 4.737 3.96 10.299 8.204 12.419 4.248 2.121 7.462 0 7.178-4.737-.285-4.737-3.96-10.299-8.208-12.419-4.244-2.12-7.458 0-7.174 4.737z" fill="#192D4B"/><path d="M209.52 124.917c.264 4.368 3.651 9.498 7.566 11.454 3.92 1.956 6.882.004 6.621-4.368-.264-4.369-3.651-9.499-7.57-11.454-3.916-1.956-6.878 0-6.617 4.368z" fill="#192D4B"/><path d="M211.343 125.923c.197 3.254 2.717 7.07 5.631 8.528 2.914 1.455 5.118 0 4.926-3.25-.197-3.254-2.718-7.069-5.631-8.524-2.918-1.463-5.122-.004-4.926 3.246z" fill="#0082C8"/><path d="M215.431 127.494c.056.949.794 2.059 1.643 2.488.85.425 1.495 0 1.435-.95-.056-.949-.794-2.063-1.643-2.488-.85-.425-1.491 0-1.435.95zM147.79 87.333l1.727-1.03c.914.236 1.98.701 3.206 1.439 4.072 2.44 7.731 7.718 8.488 12.403.113.682.333 1.808.533 2.906l.405.204-3.234 1.924c-1.29.777-3.106.745-5.162-.281-4.248-2.12-7.923-7.682-8.208-12.42-.152-2.576.726-4.376 2.245-5.145z" fill="#192D4B"/><path d="M145.545 92.478c.284 4.738 3.96 10.3 8.208 12.42 4.248 2.12 7.462.004 7.178-4.737-.285-4.737-3.96-10.3-8.208-12.42-4.248-2.12-7.463 0-7.178 4.737z" fill="#192D4B"/><path d="M145.997 92.927c.265 4.369 3.651 9.498 7.567 11.458 3.919 1.956 6.881 0 6.62-4.368-.264-4.369-3.651-9.498-7.57-11.454-3.915-1.96-6.877-.004-6.617 4.364z" fill="#192D4B"/><path d="M147.821 93.933c.196 3.25 2.717 7.07 5.631 8.528 2.917 1.455 5.117 0 4.925-3.25-.196-3.254-2.717-7.07-5.631-8.528-2.917-1.459-5.122-.004-4.925 3.25z" fill="#0082C8"/><path d="M151.881 95.488c.06.966.81 2.1 1.675 2.533.866.433 1.523 0 1.463-.966-.06-.966-.805-2.1-1.675-2.533-.866-.432-1.519 0-1.463.966z" fill="#192D4B"/><path d="M149.517 86.307l-1.728 1.03c-1.519.765-2.396 2.569-2.244 5.142 0 .02.004.044.004.064l-.581.116v-.008c-.569-4.144.609-7.362 4.549-6.344z" fill="#004687"/><path d="M211.312 77.686c4.765-3.334 9.983-7.787 9.983-7.787s8.256 5.495 10.949 7.647c4.032 3.222 7.362 5.426 7.362 5.426.445.177.902.37 1.359.574 3.887 2.945-2.533 9.101-7.487 12.84-4.953 3.735-13.065 8.056-17.886 8.957-.497.093-.962.149-1.403.177-3.819.228-5.446-1.812-5.446-1.812-3.699-6.484-11.791-17.233-11.791-17.233s9.595-5.454 14.36-8.789zM148.371 66.64c1.623-2.456 7.999-7.053 11.333-9.18 2.385-1.524 6.244-4.08 10.873-5.435 1.543-.453 3.17-.77 4.858-.87.328-.02.661-.032.998-.032 0 0 4.769.38 10.391 1.711 0 0-7.738 4.248-11.213 6.701-3.475 2.449-10.18 7.815-10.937 8.565 0 0-1.21 1.49-2.465 1.563-1.254.076-13.886-.581-13.886-.581s-1.575.016.048-2.441z" fill="#0082C8"/><path d="M211.588 78.078c4.104-2.87 8.588-6.608 9.739-7.574 1.51 1.01 8.255 5.538 10.608 7.422 4.004 3.198 7.366 5.43 7.398 5.45l.044.029.048.02c.048.02.104.044.157.064.408.793.713 1.84.336 2.885-.765 2.136-4.673 6.156-8.472 8.665-3.671 2.42-10.669 8.023-19.93 9.747-1.503-.421-2.245-1.199-2.381-1.355-3.258-5.695-9.923-14.72-11.474-16.804 2.004-1.154 9.807-5.663 13.927-8.549zM179.892 77.954c.428.237.805.45 1.122.614-1.186 3.214-2.321 9.217-2.721 11.445-3.936-2.188-9.447-5.258-14.107-7.859l2.593-8.36c5.125-.28 10.315 2.605 13.113 4.16zM165.52 73.927c.104-.016.208-.028.316-.044l-2.577 7.755c-3.378-1.884-6.188-3.455-7.43-4.148 1.335-.854 4.757-2.762 9.691-3.563zM162.177 69.181c.849-.052 1.815-1.017 2.116-1.386l.016-.02.02-.016c.801-.798 7.406-6.356 10.997-8.62 7.054-4.45 9.206-5.339 11.097-6.397-5.001-1.154-9.237-1.555-9.903-1.611-1.158.16-2.661.489-4.637.922-4.817 1.186-8.909 3.887-11.546 5.574l-.376.24c-3.748 2.393-9.695 6.778-11.19 9.038-.813 1.23-.637 1.6-.633 1.611.036.068.172.08.172.08h.032c4.365.233 12.865.646 13.835.585z" fill="#94DAEE"/><path d="M263.772 112.008s-1.571-6.584-1.683-7.302c-.112-.717 1.074-4.977-2.012-8.344 1.988.237 3.415 3.78 4.857 6.501.101 2.032.153 6.58-1.162 9.145zM244.775 125.041s-1.827-1.768-3.43-2.982c-1.599-1.214-2.641-1.587-4.705-1.611-2.06-.02-5.258.072-6.829-.245-1.571-.316-2.846-.557-3.848-.689-1.002-.136-1.827-.156-1.154.966.673 1.122 1.507 3.515 3.972 4.2 2.464.685 3.795.781 6.877.805 3.082.028 9.117-.444 9.117-.444z" fill="#E1E8EC"/><path d="M249.705 124.267a3.87 3.87 0 0 0 1.278-.304l.345-.145c1.928-.813 4.32-1.827 6.46-3.631 1.832-1.547 3.05-2.745 3.723-3.667.594-.813.838-1.671.742-2.625-.092-.897-.389-3.643-.561-5.202-.713 1.098-1.98 2.954-3.347 4.497-1.158 1.306-3.598 3.683-6.957 4.949-.232.089-.465.181-.697.277-.229.092-.457.184-.686.269a79.762 79.762 0 0 1-6.696 2.176l4.452 2.965c-.004.004.794.509 1.944.441zM234.981 132.844c1.342-.164 4.809-.497 6.468-.789.273-.048.541-.141.645.617.108.757-.946.914-.946.914-1.454.216-2.813.388-3.691.432 0 0-2.625.189-2.869.201-.305.012-.529-.161-.529-.161-.124-.481.08-1.11.922-1.214zM249.957 130.167l.333.821s.317.461 1.254-.004c.934-.465 4.769-2.529 6.99-4.188 1.647-1.23 3.146-2.857 3.426-3.21.281-.353.541-1.25.553-1.575.012-.325.201-.95-.521-.112-.721.837-3.294 3.026-5.013 4.168-1.72 1.142-6.028 3.31-6.761 3.591.004.004-.401.16-.261.509z" fill="#006399"/><path d="M137.142 67.775s-.469 1.07.473 2.152c.941 1.083 3.037 2.942 3.037 2.942s.529.209-.44 1.387c-.97 1.178-1.091 1.186-1.091 1.186s-.144.168-.376.18c-.177.013-.401-.068-.649-.38-.578-.722-1.752-1.836-2.317-2.766-.421-2.384.938-4.204 1.363-4.7z" fill="#0082C8"/><path d="M198.399 98.67c-.654-.577-1.623-.116-3.166.305-4.325-2.216-9.098-4.69-12.545-6.545.057-4.34.405-10.384.546-12.712 5.177 2.785 9.157 5.719 11.586 8.552 3.026 3.53 3.575 4.529 5.615 8.248.008.012.012.024.02.036l-.157 3.843-1.899-1.727z" fill="#94DAEE"/><path d="M208.398 96.72l4.793 2.047c.176-1.174.649-2.89.116-5.971-.525-3.03-2.056-5.138-2.056-5.138s.06-2.505-.998-5.479a5.316 5.316 0 0 0-1.487-2.224c-.837.537-1.723 1.09-2.617 1.64l2.249 15.124z" fill="#D4CDBF"/><path d="M221.022 82.087s.268-2.316-.79-5.286c-.601-1.687-1.619-2.741-2.472-3.374-1.816 1.447-4.044 3.166-6.168 4.657a82.667 82.667 0 0 1-2.818 1.871 5.315 5.315 0 0 1 1.487 2.225c1.058 2.973.998 5.478.998 5.478l9.763-5.57z" fill="url(#paint0_linear)"/><path d="M213.307 92.8c-.525-3.03-2.056-5.138-2.056-5.138l9.767-5.571s1.238 1.883 2.068 4.529c.529 1.683.729 4.777.553 5.947l-10.448 6.204c.176-1.174.653-2.894.116-5.972z" fill="url(#paint1_linear)"/><path d="M232.52 94.29c-2.264-.922-5.178-1.843-6.276-2.064-1.927-.388-2.617.325-2.617.325l-10.392 6.168c.217 1.122 2.425 2.865 4.661 4.2 6.108-2.417 10.781-6.056 13.55-7.883a22.04 22.04 0 0 0 1.074-.746z" fill="url(#paint2_linear)"/><path d="M200.202 90.086l3.543-2.02s.228-1.987-.677-4.536l-.024-.056c-2.393 1.426-4.481 2.629-5.383 3.15.465.62 1.391 1.871 2.541 3.462z" fill="url(#paint3_linear)"/><path d="M203.745 88.066l-3.543 2.02a272.435 272.435 0 0 1 5.15 7.35l.641-.38c.148-1.006-.02-3.66-.473-5.102-.713-2.268-1.775-3.888-1.775-3.888z" fill="url(#paint4_linear)"/><path d="M209.015 103.216c3.375-2.044 7.202-4.5 7.302-4.982.173-.821-6.981-3.11-8.821-3.462-1.839-.349-2.496.292-2.496.292l-.914.513c1.811 2.63 3.623 5.379 4.929 7.639z" fill="url(#paint5_linear)"/><path d="M221.534 86.952s2.77.73 4.505 2.128c1.735 1.399 4.028 4.08 4.028 4.08l-1.672 2.61s-5.843-2.862-7.454-3.728c-1.611-.866-3.002-3.515-3.002-3.515l3.595-1.575z" fill="#014B89"/><path d="M219.567 87.786s.913 1.54.845 1.996c-.068.457.297 1.33.297 1.33s2.805 2.137 3.587 3.239c.781 1.106 1.535 2.825 1.322 2.841-.212.016-3.194 1.219-3.194 1.219s-2.621-2.786-4.172-3.563c-1.551-.774-3.883-2.253-4.448-4.834l5.763-2.228z" fill="#1A64A3"/><path d="M229.498 81.894s.016.004.04.004c.184.029.946.137 1.286.217.389.092.613-.028 1.106.54.493.574.469.959.449 1.344-.024.384-.152.957-.276 1.09-.125.132-.177.264-.357.232s-.261-.124-.249-.112c.008.012-.24-.004-.224-.265.016-.256.156-.817.156-.817l-.144-.461s-.357-.245-.461-.213c-.104.032-1.098.08-1.098.08s-1.391.1-1.916-.035c-.529-.137-5.025-1.263-5.442-1.54-.413-.28-1.98-2.292-2.637-2.95-.657-.656-.894-2.86-1.274-2.977-.377-.112-1.251-.056-1.251-.056l-.661-1.33s1.843-1.852 3.01-.906c1.166.942 1.555 1.507 1.747 1.76.192.252 2.16 3.77 2.705 4.171.549.4 4.112 1.964 4.673 1.956.401 0 .818.268.818.268z" fill="#F2A983"/><path d="M219.446 77.827s1.916 2.28 2.497 2.661c.577.381 1.339-.505 1.194 0-.144.505.036 1.014.237 1.122.2.109 4.464 1.179 4.757 1.267.293.088 1.387-.661 1.944-.325.332.2.485.593.42.938-.324.024-.765.044-.765.044s-1.391.1-1.916-.036c-.529-.136-5.025-1.262-5.442-1.539-.413-.28-1.98-2.292-2.637-2.95-.192-.192-.349-.517-.485-.881l.196-.3z" fill="#D88F69"/><path d="M217.823 73.47s1.178-.468 2.044.29c.866.76 2.505 3.181 2.505 3.181s-1.683 2.613-2.954 2.954c-1.274.34-1.595-6.424-1.595-6.424z" fill="#F6C100"/><path d="M218.657 76.692c.225-.46 1.463-.384 1.792.562.196.573.436 1.094.597 1.414-.517.57-1.106 1.09-1.627 1.23-.533.14-.95-.945-1.263-2.26.233-.445.429-.805.501-.946z" fill="#DDA800"/><path d="M215.131 77.654c1.771.325 2.986.24 3.234-.725.249-.966-.805-2.994-.805-2.994l-.317-.1c-1.07.846-2.252 1.763-3.463 2.661.177.509.557 1.014 1.351 1.158z" fill="#D88F69"/><path d="M219.346 83.157c-.028-.365-.232-2.068-.232-2.068.328-.44.865-1.663.765-3.675-.1-2.012-1.382-3.787-1.382-3.787s-.473-.096-.858-.108c-.136.108-.281.22-.421.332.012.012.016.024.028.036.561.638.934 2.389-.168 2.974-.982.521-1.848-.064-2.381-.601l-.26-.26c-.942.709-1.904 1.414-2.85 2.075-.432.305-.905.626-1.41.958.168 2.072 2.264 5.587 2.693 6.292.497.818 1.17 5.33 1.17 5.33.669-.565 3.282-.937 5.45-1.595 2.173-.657 2.373-2.152 2.373-2.152s-.533-.288-.862-.613c-.324-.32-1.623-2.773-1.655-3.138z" fill="#F6C100"/><path d="M217.811 74.945c.734-.18.517-.805.521-1.266.004-.237.036-.505.068-.77-.757.61-1.607 1.283-2.508 1.98.689.164 1.422.18 1.919.056z" fill="#F2A983"/><path d="M218.168 74.773c.296-.269.164-.734.168-1.094.004-.237.036-.505.068-.77l-.044.036c.028.149.032.337-.18.357-.233.02-.092.425-.1.685 0 .14.028.485.088.786z" fill="#D88F69"/><path d="M213.479 81.257c-.104 1.087-.036 1.664.449 2.573.481.91.417 1.78 1.254 2.265.838.485 1.575-.028 2.425 0 .85.024.781-.012.689.56-.092.57-.044.915.666.71.713-.208 1.715-.54 1.518-.068-.156.38-2.079 1.503-2.697 2.232-.573.14-1.134.269-1.643.393a54.39 54.39 0 0 1-2.292-.465c-.237-1.398-.645-3.575-.974-4.12-.457-.753-2.637-3.967-2.521-5.951l2.353-.277c0-.008.877 1.062.773 2.148z" fill="#DDA800"/><path d="M225.65 91.216c.453 0 .994-.14 1.595-.433 2.076-1.014 4.088-3.494 4.489-5.542.285-1.455-.317-2.297-1.439-2.297-.453 0-.994.14-1.595.433-2.076 1.014-4.088 3.495-4.489 5.543-.284 1.455.321 2.296 1.439 2.296zm-.525-2.124c.337-1.703 2.092-3.86 3.84-4.713.449-.22.861-.333 1.19-.333.256 0 .441.069.553.205.172.208.212.621.116 1.126-.336 1.703-2.092 3.86-3.839 4.713-.449.22-.862.337-1.19.337-.257 0-.441-.068-.554-.205-.172-.212-.216-.625-.116-1.13z" fill="#39464A"/><path d="M239.918 86.375c.372-1.034.076-2.068-.325-2.857-2.978-.032-9.358 4.456-15.626 8.192-6.071 3.618-12.404 8.872-14.988 11.445.052.093.108.185.156.273.136.156.877.934 2.38 1.355 9.262-1.724 16.259-7.323 19.93-9.747 3.8-2.505 7.707-6.525 8.473-8.66z" fill="url(#paint6_linear)"/><path d="M238.359 88.848c-.337-1.996-1.736-3.784-1.736-3.784s-3.074-2.276-8.015 0c-4.941 2.277-5.695 7.174-5.695 7.174v.096c2.918 1.383 6.44 2.317 9.687 1.892 2.212-1.62 4.348-3.635 5.759-5.378z" fill="url(#paint7_linear)"/><path d="M216.02 96.952s-.457-2.842 2.793-4.585c3.251-1.743 5.828-.437 5.828-.437s4.104 2.81-.902 5.515c-5.002 2.705-7.719-.493-7.719-.493z" fill="url(#paint8_linear)"/><path d="M213.367 89.966c.248.273 1.098.946 1.266 1.395.169.449.381 1.13.305 1.59-.076.466-.04 1.067-.285 1.135-.244.068-.36.02-.36.02s-.02.317-.337.305c-.313-.013-.272-.14-.272-.14s-.257.196-.397.152c-.14-.044-.201-.538-.201-.538s-.224-1.158-.268-1.258c-.04-.1-.249-.653-.257-.46-.008.188.201.917.245 1.162.044.244.212.653.068.685-.144.028-.477-.373-.577-.718-.1-.344-.505-1.134-.513-1.37-.008-.233.124-1.207-.052-1.455-.176-.249-2.004-1.952-2.477-3.002-.473-1.054-.481-1.074-.561-1.55-.068-.413.144-.95.144-.95s.241-2.83.634-3.591c.392-.762.613-1.247.633-1.48.02-.232.204-1.157.934-1.25.729-.092 2.136 1.179 2.176 1.684.04.505-.565 1.054-.826 1.65-.26.598-.849 4.012-.849 4.012s1.374 3.475 1.827 3.972z" fill="#F2A983"/><path d="M214.654 94.086c-.244.068-.36.02-.36.02s-.021.317-.337.305c-.313-.012-.273-.14-.273-.14s-.256.196-.396.152c-.141-.044-.201-.537-.201-.537s-.164-.846-.24-1.154c.06-.193.573-.037.573-.037s.108-.1.344-.204c.237-.104.542-.04.542-.04s.136-.04.493-.164a.455.455 0 0 1 .1-.024c.048.248.072.489.04.693-.076.457-.04 1.062-.285 1.13zM212.049 92.672c.256 0 .497.028.613.04.056.236.12.485.144.61.044.244.213.652.068.684-.144.028-.477-.372-.577-.717-.044-.148-.148-.38-.248-.617z" fill="#D88F69"/><path d="M213.347 78.88c-.205-.68-.609-1.077-1.038-1.31-.241.173-.481.345-.718.51-.609.424-1.302.889-2.04 1.37-.228 1.042-.172 2.004-.172 2.004 1.631-.377 3.319.637 3.319.637s1.07-1.811.649-3.21z" fill="#F6C100"/><path d="M188.152 82.647a62.478 62.478 0 0 0-4.853-2.893l-.069.04c-.124 2.036-.392 6.697-.501 10.693l5.728-3.399c.128-.87.02-2.954-.305-4.44z" fill="url(#paint9_linear)"/><path d="M195.866 89.508c-.313-.376-.657-.785-1.042-1.234-.87-1.014-1.936-2.036-3.186-3.062-.814-.257-1.507-.449-1.916-.533-1.655-.333-2.244.28-2.244.28l-4.657 2.766a190.383 190.383 0 0 0-.136 4.713 452.61 452.61 0 0 0 4.785 2.533c1.859-1.106 6.003-3.74 8.396-5.463z" fill="url(#paint10_linear)"/><path d="M191.581 95.492s.052-2.152-.853-4.7c-1.014-2.85-3.904-3.103-3.904-3.103l1.114 7.515c1.551.81 3.174 1.651 4.781 2.477-.533-1.351-1.138-2.189-1.138-2.189z" fill="#D4CDBF"/><path d="M197.757 91.969c-.717-1.038-1.575-2.112-2.934-3.7-.909-1.057-2.031-2.132-3.354-3.206l-4.645 2.626s2.89.248 3.904 3.102c.905 2.548.853 4.7.853 4.7l6.176-3.522z" fill="url(#paint11_linear)"/><path d="M198.398 98.67l1.9 1.731.156-3.843a.162.162 0 0 0-.02-.037c-1.126-2.052-1.799-3.274-2.681-4.552l-6.176 3.523s.605.837 1.134 2.188l2.517 1.294c1.547-.42 2.517-.882 3.17-.304z" fill="url(#paint12_linear)"/><path d="M190.199 85.304c.256.301.284 1.908.28 2.714.072-.012.145-.032.217-.06l2.42-1.447a33.589 33.589 0 0 0-2.981-2.469 270.5 270.5 0 0 1-1.235.741c.437-.076.994.16 1.299.521z" fill="url(#paint13_linear)"/><path d="M188.905 84.78c.432-.069.985.164 1.294.524.256.301.284 1.908.28 2.714-.28.048-.513-.012-.513-.012s-1.466-.79-1.667-1.147c-.2-.356.557-2.047.557-2.047s.02-.016.049-.033z" fill="#D4CDBF"/><path d="M200.394 98.07l-1.607.953 1.515 1.379.092-2.333z" fill="url(#paint14_linear)"/><path d="M172.621 79.495c-1.014-2.85-3.903-3.102-3.903-3.102l1.338 9.037c1.76.982 3.499 1.952 5.118 2.85-.497-2.425-1.699-4.085-1.699-4.085s.052-2.152-.854-4.7z" fill="#D4CDBF"/><path d="M180.48 80.2l-7.005 3.995s1.198 1.663 1.699 4.084l3.118 1.735c.34-1.892 1.206-6.496 2.188-9.815z" fill="url(#paint15_linear)"/><path d="M180.48 80.2c.177-.59.353-1.147.533-1.632a42.73 42.73 0 0 1-1.122-.613c-1.811-1.01-4.637-2.573-7.795-3.474l-3.382 1.911s2.889.249 3.903 3.102c.906 2.549.854 4.701.854 4.701l7.009-3.996z" fill="url(#paint16_linear)"/><path d="M172.261 74.528c.104.625.116 1.615.116 2.188a1.09 1.09 0 0 0 .216-.06l2.12-1.266a25.625 25.625 0 0 0-2.452-.862z" fill="url(#paint17_linear)"/><path d="M170.197 75.558c.2.357 1.667 1.147 1.667 1.147s.232.06.513.012c0-.577-.012-1.563-.116-2.189a19.614 19.614 0 0 0-1.748-.432c-.2.52-.437 1.242-.316 1.462z" fill="#D4CDBF"/><path opacity=".45" d="M179.892 77.954c.428.237.805.45 1.122.614-1.186 3.214-2.321 9.217-2.721 11.445-3.936-2.188-9.447-5.258-14.107-7.859l2.593-8.36c5.125-.28 10.315 2.605 13.113 4.16zM211.588 78.078c4.104-2.87 8.588-6.608 9.739-7.574 1.51 1.01 8.255 5.538 10.608 7.422 4.004 3.198 7.366 5.43 7.398 5.45l.044.029.048.02c.048.02.104.044.157.064.408.793.713 1.84.336 2.885-.765 2.136-4.673 6.156-8.472 8.665-3.671 2.42-10.669 8.023-19.93 9.747-1.503-.421-2.245-1.199-2.381-1.355-3.258-5.695-9.923-14.72-11.474-16.804 2.004-1.154 9.807-5.663 13.927-8.549zM198.399 98.67c-.654-.577-1.623-.116-3.166.305-4.325-2.216-9.098-4.69-12.545-6.545.057-4.34.405-10.384.546-12.712 5.177 2.785 9.157 5.719 11.586 8.552 3.026 3.53 3.575 4.529 5.615 8.248.008.012.012.024.02.036l-.157 3.843-1.899-1.727z" fill="#94DAEE"/><path d="M325.67 55.067h-2.705v53.134h2.705V55.067z" fill="#5F6464"/><path d="M302.562 46.956l18.716-18.953a4.29 4.29 0 0 1 6.12 0l18.716 18.953a4.423 4.423 0 0 1 0 6.2l-18.716 18.948a4.29 4.29 0 0 1-6.12 0l-18.716-18.949a4.43 4.43 0 0 1 0-6.2z" fill="#fff"/><path d="M304.915 48.482l17.874-18.098a2.17 2.17 0 0 1 3.102 0l17.874 18.098a2.24 2.24 0 0 1 0 3.142l-17.874 18.1a2.17 2.17 0 0 1-3.102 0l-17.874-18.1a2.24 2.24 0 0 1 0-3.142z" fill="#fff"/><path d="M324.34 71.174a2.96 2.96 0 0 1-2.112-.886l-17.874-18.099a3.059 3.059 0 0 1 0-4.276l17.874-18.099a2.942 2.942 0 0 1 2.108-.885c.798 0 1.547.312 2.112.885l17.875 18.1a3.02 3.02 0 0 1 .873 2.135c0 .806-.312 1.567-.873 2.14l-17.875 18.099c-.561.57-1.31.886-2.108.886z" fill="#004EBB"/><path d="M332.644 58.442c4.589-4.645 4.589-12.176 0-16.82a11.644 11.644 0 0 0-16.612 0c-4.588 4.644-4.588 12.175 0 16.82a11.644 11.644 0 0 0 16.612 0z" fill="#fff"/><path d="M334.688 53.688c1.996-5.787-1.022-12.119-6.741-14.135-5.715-2.02-11.967 1.038-13.962 6.825-1.996 5.787 1.022 12.12 6.741 14.135 5.719 2.02 11.971-1.038 13.962-6.825z" fill="#fff"/><path d="M313.615 52.33A11.124 11.124 0 0 0 316 57.231c1.755-7.93 8.749-13.862 17.109-13.862a11.9 11.9 0 0 0-.521-.645 17.616 17.616 0 0 0-3.239-.309c-6.901.004-12.872 4.044-15.734 9.915z" fill="#0046B4"/><path d="M319.419 59.953a10.809 10.809 0 0 0 4.921 1.182c6.056 0 10.961-4.97 10.961-11.101 0-2.1-.577-4.064-1.575-5.735-7.61 1.39-13.514 7.755-14.307 15.654zM327.157 41.153c1.539 0 3.034.204 4.457.581a10.857 10.857 0 0 0-7.278-2.801c-5.226 0-9.594 3.703-10.692 8.656 3.222-3.931 8.079-6.436 13.513-6.436z" fill="#46B400"/></g><defs><linearGradient id="paint0_linear" x1="214.91" y1="87.659" x2="214.91" y2="73.426" gradientUnits="userSpaceOnUse"><stop offset=".003" stop-color="#C2B69C"/><stop offset=".505" stop-color="#E3DFD7"/><stop offset=".797" stop-color="#E6E6E6"/></linearGradient><linearGradient id="paint1_linear" x1="214.561" y1="86.007" x2="219.715" y2="94.933" gradientUnits="userSpaceOnUse"><stop stop-color="#E3DFD7"/><stop offset=".997" stop-color="#C2B69C"/></linearGradient><linearGradient id="paint2_linear" x1="213.236" y1="97.516" x2="232.519" y2="97.516" gradientUnits="userSpaceOnUse"><stop offset=".005" stop-color="#CCC1AB"/><stop offset=".182" stop-color="#D0C6B4"/><stop offset=".488" stop-color="#D3CBBC"/><stop offset=".997" stop-color="#D4CDBF"/></linearGradient><linearGradient id="paint3_linear" x1="197.662" y1="86.78" x2="203.771" y2="86.78" gradientUnits="userSpaceOnUse"><stop stop-color="#E3DFD7"/><stop offset=".997" stop-color="#C2B69C"/></linearGradient><linearGradient id="paint4_linear" x1="203.126" y1="97.437" x2="203.126" y2="88.066" gradientUnits="userSpaceOnUse"><stop offset=".003" stop-color="#C2B69C"/><stop offset="1" stop-color="#E3DFD7"/></linearGradient><linearGradient id="paint5_linear" x1="204.087" y1="98.943" x2="216.321" y2="98.943" gradientUnits="userSpaceOnUse"><stop offset=".003" stop-color="#C2B69C"/><stop offset="1" stop-color="#E3DFD7"/></linearGradient><linearGradient id="paint6_linear" x1="208.979" y1="94.15" x2="240.09" y2="94.15" gradientUnits="userSpaceOnUse"><stop offset=".003" stop-color="#389CC7"/><stop offset="1" stop-color="#2E7EC9"/></linearGradient><linearGradient id="paint7_linear" x1="222.915" y1="89.193" x2="238.36" y2="89.193" gradientUnits="userSpaceOnUse"><stop offset=".003" stop-color="#389CC7"/><stop offset="1" stop-color="#2E7EC9"/></linearGradient><linearGradient id="paint8_linear" x1="224.403" y1="92.577" x2="217.445" y2="97.784" gradientUnits="userSpaceOnUse"><stop stop-color="#2E7EC9"/><stop offset=".997" stop-color="#389CC7"/></linearGradient><linearGradient id="paint9_linear" x1="182.731" y1="85.121" x2="188.509" y2="85.121" gradientUnits="userSpaceOnUse"><stop stop-color="#E3DFD7"/><stop offset=".997" stop-color="#C2B69C"/></linearGradient><linearGradient id="paint10_linear" x1="182.689" y1="89.771" x2="195.867" y2="89.771" gradientUnits="userSpaceOnUse"><stop stop-color="#E3DFD7"/><stop offset=".997" stop-color="#C2B69C"/></linearGradient><linearGradient id="paint11_linear" x1="186.821" y1="90.279" x2="197.758" y2="90.279" gradientUnits="userSpaceOnUse"><stop offset=".203" stop-color="#E6E6E6"/><stop offset=".495" stop-color="#E3DFD7"/><stop offset=".997" stop-color="#C2B69C"/></linearGradient><linearGradient id="paint12_linear" x1="196.019" y1="100.399" x2="196.019" y2="91.969" gradientUnits="userSpaceOnUse"><stop stop-color="#E3DFD7"/><stop offset=".997" stop-color="#C2B69C"/></linearGradient><linearGradient id="paint13_linear" x1="188.906" y1="86.025" x2="193.12" y2="86.025" gradientUnits="userSpaceOnUse"><stop offset=".203" stop-color="#E6E6E6"/><stop offset=".495" stop-color="#E3DFD7"/><stop offset=".997" stop-color="#D4CDBF"/></linearGradient><linearGradient id="paint14_linear" x1="198.788" y1="99.235" x2="200.396" y2="99.235" gradientUnits="userSpaceOnUse"><stop stop-color="#E3DFD7"/><stop offset=".997" stop-color="#C2B69C"/></linearGradient><linearGradient id="paint15_linear" x1="173.475" y1="85.106" x2="180.481" y2="85.106" gradientUnits="userSpaceOnUse"><stop stop-color="#E3DFD7"/><stop offset=".997" stop-color="#C2B69C"/></linearGradient><linearGradient id="paint16_linear" x1="168.715" y1="79.339" x2="181.013" y2="79.339" gradientUnits="userSpaceOnUse"><stop offset=".203" stop-color="#E6E6E6"/><stop offset=".495" stop-color="#E3DFD7"/><stop offset=".997" stop-color="#C2B69C"/></linearGradient><linearGradient id="paint17_linear" x1="172.26" y1="75.621" x2="174.71" y2="75.621" gradientUnits="userSpaceOnUse"><stop offset=".203" stop-color="#E6E6E6"/><stop offset=".495" stop-color="#E3DFD7"/><stop offset=".997" stop-color="#D4CDBF"/></linearGradient></defs></svg>