<svg width="1920" height="600" fill="none" xmlns="http://www.w3.org/2000/svg" viewBox="0 0 1920 600"><mask id="a" maskUnits="userSpaceOnUse" x="-1" y="0" width="1922" height="600"><path d="M1921 0H-1v600h1922V0z" fill="#F5FCFF"/></mask><g mask="url(#a)"><path d="M1921 0H-1v600h1922V0z" fill="#F5FCFF"/><g opacity=".8"><path d="M1933.04 556.951h-740.09l83.16-13.05 133.67-.34 24.57-2.96s21.68-.4 28.91 1.7c7.23 2.11 78.56-1.37 78.56-1.37s29.17-3.33 34.6-3.75c5.43-.42 47.44-4.71 67.6-3.41 20.17 1.3 41.37-1.04 58.95.98 17.58 2.02 56.16-1.26 68.67-2.59 12.51-1.33 73.48 4.68 79.67 5.82 6.19 1.15 35.19 7.97 48.2 10.41 13.01 2.44 33.53 8.56 33.53 8.56z" fill="#8BB984"/><path d="M1689.36 479.511h-25.47v78.73h25.47v-78.73zM1657.82 441.61h-22.4v116.63h22.4V441.61z" fill="#8ED7F5"/><path d="M1652.63 491.041h-43.03v67.2h43.03v-67.2z" fill="#8ED7F5"/><path d="M1671.87 514.99h-25.25v43.25h25.25v-43.25zM1620.67 463.641h-16.79v94.61h16.79v-94.61zM1593.31 407.521h-37.41v150.72h37.41v-150.72zM1538.71 350.391h-22.36v207.86h22.36v-207.86zM1511.54 393.82h-27.26v164.43h27.26V393.82z" fill="#8ED7F5"/><path d="M1609.59 500.141h-39.81v58.1h39.81v-58.1zM1552.75 455.131h-21.95v103.12h21.95v-103.12z" fill="#8ED7F5"/><path d="M1560.66 525.711h-16.02v32.53h16.02v-32.53zM1697.37 525.711h-16.02v32.53h16.02v-32.53zM1538.71 493.171h-31.94v65.07h31.94v-65.07zM1487.73 471.131h-70.78v87.11h70.78v-87.11zM1285.71 544.141h-70.79v14.1h70.79v-14.1zM1416.94 521.331h-12.95v36.92h12.95v-36.92z" fill="#8ED7F5"/><path d="M1410.47 462.521h-46.19v95.72h46.19v-95.72z" fill="#8ED7F5"/><path d="M1372.06 394.32h-25.58v163.93h25.58V394.32z" fill="#8ED7F5"/><path d="M1357.38 498.261h-34.53v59.99h34.53v-59.99z" fill="#8ED7F5"/><path d="M1331.49 453.141h-19.86v105.1h19.86v-105.1z" fill="#8ED7F5"/><path d="M1315.94 422.641h-47.48v135.6h47.48v-135.6zM1475.65 378.791h-14.68v179.45h14.68v-179.45zM1434.61 500.471h-12.27v57.77h12.27v-57.77zM1878.1 479.511h-25.47v78.73h25.47v-78.73zM1846.55 441.611h-22.4v116.63h22.4v-116.63z" fill="#8ED7F5"/><path d="M1841.36 491.041h-43.03v67.2h43.03v-67.2z" fill="#8ED7F5"/><path d="M1860.61 514.991h-25.25v43.25h25.25v-43.25zM1809.41 463.641h-16.79v94.61h16.79v-94.61zM1782.05 407.521h-37.41v150.72h37.41v-150.72zM1727.44 381.471h-22.36v176.77h22.36v-176.77zM1700.27 393.821h-27.26v164.43h27.26v-164.43z" fill="#8ED7F5"/><path d="M1798.33 500.141h-39.81v58.1h39.81v-58.1zM1741.49 455.131h-21.95v103.12h21.95v-103.12z" fill="#8ED7F5"/><path d="M1749.4 525.711h-16.02v32.53h16.02v-32.53zM1886.11 525.711h-16.02v32.53h16.02v-32.53zM1727.45 493.171h-31.94v65.07h31.94v-65.07zM1676.47 471.131h-70.79v87.11h70.79v-87.11zM1474.44 471.131h-70.79v87.11h70.79v-87.11zM1605.68 521.331h-12.95v36.92h12.95v-36.92z" fill="#8ED7F5"/><path d="M1599.21 462.521h-46.19v95.72h46.19v-95.72z" fill="#8ED7F5"/><path d="M1560.78 414.211h-14.67v144.03h14.67v-144.03zM1546.11 498.261h-34.53v59.99h34.53v-59.99z" fill="#8ED7F5"/><path d="M1520.22 453.141h-19.86v105.1h19.86v-105.1z" fill="#8ED7F5"/><path d="M1504.68 422.641h-47.48v135.6h47.48v-135.6zM1664.39 378.791h-14.68v179.45h14.68v-179.45zM1623.35 500.471h-12.27v57.77h12.27v-57.77z" fill="#8ED7F5"/><path d="M1281.39 507.451h-31.49v60.79h31.49v-60.79zM1316.59 483.001h-27.69v85.24h27.69v-85.24z" fill="#5AC8F5"/><path d="M1348.52 514.891h-53.2v53.35h53.2v-53.35z" fill="#5AC8F5"/><path d="M1302.75 530.341h-31.22v37.9h31.22v-37.9zM1355.59 497.211h-20.76v71.03h20.76v-71.03zM1414.91 461.011h-46.25v107.23h46.25v-107.23zM1463.81 399.041h-27.65v169.2h27.65v-169.2zM1503.47 466.641h-33.71v101.61h33.71v-101.61z" fill="#5AC8F5"/><path d="M1397.75 520.761h-49.22v47.48h49.22v-47.48zM1445.94 491.721h-27.14v76.52h27.14v-76.52z" fill="#5AC8F5"/><path d="M1428.83 537.251h-19.81v30.99h19.81v-30.99zM1259.8 537.251h-19.81v30.99h19.81v-30.99zM1475.65 516.261h-39.49v51.98h39.49v-51.98zM1586.72 502.041h-87.52v66.2h87.52v-66.2zM1852.63 523.751h-103.65v44.49h103.65v-44.49zM1602.73 534.431h-16.01v33.82h16.01v-33.82z" fill="#5AC8F5"/><path d="M1651.83 496.491h-57.1v71.76h57.1v-71.76z" fill="#5AC8F5"/><path d="M1660.36 465.331h-18.14v102.92h18.14v-102.92zM1703.06 519.541h-42.7v48.7h42.7v-48.7z" fill="#5AC8F5"/><path d="M1716.93 490.441h-24.55v77.8h24.55v-77.8z" fill="#5AC8F5"/><path d="M1770.3 470.761h-58.7v97.48h58.7v-97.48zM1532.29 460.341h-18.15v107.91h18.15v-107.91zM1580.04 520.971h-15.17v47.27h15.17v-47.27z" fill="#5AC8F5"/><path d="M1452.34 389.721h-59.7v173.01h59.7v-173.01zM1664.98 336.95h-71.7v225.78h71.7V336.95zM1571.16 307.19h-81.15v255.54h81.15V307.19z" fill="#14AFEB"/><path opacity=".3" d="M1943.4 562.16h-750.45v3.38h750.45v-3.38z" fill="#385A27"/></g><path d="M2070.94 540.9c-77.06-3-135.59 31.78-135.59 31.78s-43.66 15.82-63.81 17.26c-85.64 11.5-132.65-12.94-199.81-31.63-218.28-61.82-387.87 11.5-387.87 11.5l-3.36 103.52 790.45-1.43v-131h-.01z" fill="#009400"/><path d="M1482.36 542.6c-.6-.26-1.32-.57-2.18-.95-3.21-1.29-6.31-2.42-9.29-3.4-6.01-1.81-11.88-2.89-16.81-3.53-9.4.57-18.51 1.31-27.28 2.21 27.91 3.63 32.3 6.9 48.55 20.77 17.3 14.77 33.2 55.84 33.2 55.84s52.95 12.41 54.07-4.61c1.08-16.37-60.45-57.15-80.26-66.33z" fill="#fff"/><path d="M1437.46 536.01s26.92-4.3 55.85 17.84c25.65 19.64 42.5 34.84 52.36 41.48l-25.23 5.49s-17.28-22.69-27.24-32.72c-3.12-3.14-27.66-33.56-64.44-31.35l8.7-.74z" fill="#004EBB"/><path d="M1662.35 560.729c-216.75 52.77-899.71 133.4-934.81 137.53v137.87h1337.82v-278.42c-26.78-7.99-185.29-50-403.01 3.02z" fill="#00AD00"/><path d="M1615.3 571.17c12.26 3.92 33.34 9.19 65.55 25.06 69.51 34.24 35.41 63.53 35.41 63.53l119.59 37.13s49.1-42.53-9.3-86.81c-40.79-30.92-121.63-43.8-166.69-48.76-13.26 3.2-28.2 6.49-44.56 9.85z" fill="#fff"/><path d="M1623.78 569.41s143.75 29.14 125.32 81.07c0 0 65.71 8.66 80.34 9.29 0 0 27.78-66.39-180.84-95.8l-24.82 5.44z" fill="#004EBB"/><path d="M1749.42 632.766c-93.39-16.624-246.64-48.221-398.26-75.776-102.81-18.688-214.32-38-296.81-42.063-193.52-9.534-354.418 57.48-373.35 63.819V836h1384V651.898c-25 1.354-166.66 7.375-315.58-19.132z" fill="#009E00"/><path d="M1660.61 836.13c-5.6-24.74-30.78-159.45 75.34-196.21 0 0-89.4-16.26-147.05-27.87 0 0-292.75-38.4-628.69 224.08h700.4z" fill="#fff"/><path d="M-14.83 590.93v-64.66s163.03-47.37 526.94-32.41c-103.19-1.05-300.93 11.04-526.94 97.07z" fill="#00AD00"/><path d="M669.66 504.97l34.12 3.04c.04 0 .07.01.1.01-328.86 21.21 347 406.44 347 406.44H669.66c0 .01-341.59-414.27 0-409.49z" fill="#fff"/><path d="M590.63 497.92l79.03 7.05c-341.59-4.77 0 409.5 0 409.5H-14.83V717.08C89.43 585.34 387.11 485.26 590.63 497.92z" fill="#004EBB"/><path d="M703.88 508.02c181.39 20.83 446.05 165.35 720.56 176.31 293.25 11.7 508.59 15.63 508.59 15.63v214.51h-882.15c.01 0-675.85-385.24-347-406.45z" fill="#00AD00"/><path d="M512.11 493.859c25.28 1.04 51.43 2.37 78.52 4.06-2.82-.18-5.62-.32-8.41-.44-2.02-.09-4.06-.17-6.1-.24l-.91-.03c-203.03-6.85-488.35 91.38-590.04 219.87v-126.15c226.01-86.03 423.75-98.12 526.94-97.07z" fill="#fff"/><path d="M1394.16 549.461c0 .46-3.59.83-8.02.83s-8.02-.37-8.02-.83c0-.46 3.59-.83 8.02-.83s8.02.37 8.02.83z" fill="#008B00"/><path d="M1376.73 538.4a3.763 3.763 0 0 1-1.53-3.03c0-1.36.71-2.54 1.78-3.2.04-2.57 2.04-4.67 4.58-4.75.6-.02 1.18.09 1.71.28.15-2.46 2.11-4.45 4.57-4.52 2.61-.07 4.78 2.03 4.85 4.7.03 1.09-.3 2.11-.88 2.93 0 .01.01.01.01.02 2.24.32 4 2.25 4.07 4.65.01.36-.02.72-.09 1.06.47.73.4 1.73-.23 2.41-.34.36-.78.57-1.23.63-.22 1.86-1.8 3.3-3.71 3.3a3.75 3.75 0 0 1-3.59-2.71c-.8.26-1.71.18-2.5-.29a4.624 4.624 0 0 1-5.29.75 1.699 1.699 0 0 1-3-1.09c.02-.43.2-.84.48-1.14z" fill="#73B400"/><path d="M1388.57 524.62c-2.17-.49-3.05-.06-4.45.63.83-1.21 2.18-2.02 3.73-2.06 2.61-.07 4.78 2.03 4.85 4.7.03 1.09-.3 2.11-.88 2.93 0 .01.01.01.01.02 2.24.32 4 2.25 4.07 4.65.01.24-.01.47-.03.7-.41-.91-2.32-4.28-5.06-3.66-1.67.38-2.02.32-2.93-.28-.33-.22-.01-.35 1.37-.78 3.01-.93 3.43-5.91-.68-6.85zM1385.27 528.61c.5.68-.07.73-1.4.37-.77-.21-2.24-.54-3.57-.43-.48.04-1.63.3-1.95.31a4.65 4.65 0 0 1 3.21-1.43c.6-.02 1.18.09 1.71.28.01 0 1.51.21 2 .9z" fill="#88BF26"/><path d="M1375.21 535.371c0-1.36.71-2.54 1.78-3.2.01-.44.08-.87.19-1.28.23.39.6.78 1.18.96 1.31.4.5 1.08.5 1.08s-1.74 3.01 1.12 4.73c1.21.73 3.01.88 4.52.52 1.81-.43 3.32-2.74 3.32-2.74s-.29 3.28 2.99 4.17c1.55.42 3.14-1.12 3.14-1.12s.23.09 1.1.11c.31.01.58.01.8.01-.07.13-.16.25-.26.36-.34.36-.78.57-1.23.63-.22 1.86-1.8 3.3-3.71 3.3a3.75 3.75 0 0 1-3.59-2.71c-.8.26-1.71.18-2.5-.29a4.624 4.624 0 0 1-5.29.75 1.699 1.699 0 1 1-2.54-2.25 3.754 3.754 0 0 1-1.52-3.03z" fill="#60A400"/><path d="M1385.28 543.181c-.01-.48-.02-.85.02-1.45-1.34-.46-2.12-4.17-2.12-4.17 1.01 2.17 1.82 3.28 2.24 3.4.05-.47.11-1.57.13-2.04.02-.41.05-.8.1-1.12.09-.51-.17-2.79.06-3 0 0 .42 3.33.6 2.96.55-1.16.85-1.33 1.51-2.32.08-.12-1.51 3.25-1.5 3.44.07.76.15 1.86.26 3.46.5-.28 1.26-.82 1.68-1.18-.29-.99.64-2.92.64-2.92-.03 1.04-.43 2.43-.24 2.56.41-.49 2.46-2.02 2.94-2.65 0 0-2.87 3.76-4.95 5.22.1 1.22.13 3.23.18 3.62.11.82.27 1.76.43 2.47h-2.43c.04-.35.13-.69.14-1.07.02-.75.04-3.4.12-3.92-3.03-1.5-5.57-5.13-5.57-5.13 2.2 2.13 4.86 3.76 5.76 3.84z" fill="#865040"/><path d="M1866.26 546.241c0 .98-7.64 1.77-17.06 1.77-9.42 0-17.06-.79-17.06-1.77s7.64-1.77 17.06-1.77c9.42 0 17.06.79 17.06 1.77z" fill="#008B00"/><path d="M1830.26 527.6a8.818 8.818 0 0 1-5.8-5.41c-1.1-2.98-.48-6.15 1.33-8.47-1.99-5.67.71-11.92 6.21-14.12 1.31-.52 2.66-.76 3.99-.76-1.66-5.54 1.05-11.48 6.39-13.62 5.66-2.27 12.13.59 14.45 6.39.95 2.37 1.04 4.87.45 7.15l.03.03c5.18-1.12 10.61 1.71 12.7 6.91.32.79.53 1.59.66 2.4 1.63 1.23 2.28 3.48 1.44 5.49a4.682 4.682 0 0 1-2.2 2.37c1.01 4.27-1.27 8.71-5.47 10.25-3.74 1.38-7.81.02-10.07-3.05a7.059 7.059 0 0 1-5.72 1.39c-1.16 2.3-3.1 4.2-5.66 5.23-1.76.7-3.59.91-5.36.69a3.946 3.946 0 0 1-2.36 2.4c-2.06.76-4.34-.3-5.1-2.36-.34-.99-.29-2.02.09-2.91z" fill="#73B400"/><path d="M1845.12 487.77c-5.17.67-6.74 2.33-9.27 4.99.84-3.32 3.15-6.19 6.53-7.54 5.66-2.27 12.13.59 14.45 6.39.95 2.37 1.04 4.87.45 7.15l.03.03c5.18-1.12 10.61 1.71 12.7 6.91.21.52.37 1.04.49 1.56-7-7.99-21.03-2.94-18.34-5 5.83-4.48 2.74-15.76-7.04-14.49zM1838.32 501.14c-1.86.17-5.36.63-8.18 1.93-1.03.48-3.33 1.97-4.05 2.25 1.12-2.53 3.16-4.63 5.9-5.73 1.31-.52 2.66-.76 3.99-.76.01 0 5.55 2.01 2.34 2.31z" fill="#88BF26"/><path d="M1824.46 522.19c-1.1-2.98-.48-6.15 1.33-8.47 2.55.97 4.72.14 4.72.14s-1.3 7.59 6.29 9.49c7 1.75 11.31-7.62 11.31-7.62s6.14 3.84 14.06 3.14c3.75-.33 3.8-4.49 5.44-6.96 1.64-2.46 1.1 1.96 3.03 1.3.69-.23 1.28-.45 1.76-.62-.06.33-.14.67-.28.99a4.682 4.682 0 0 1-2.2 2.37c1.01 4.27-1.27 8.71-5.47 10.25-3.74 1.38-7.81.02-10.07-3.05a7.059 7.059 0 0 1-5.72 1.39c-1.16 2.3-3.1 4.2-5.66 5.23-1.76.7-3.59.91-5.36.69a3.946 3.946 0 0 1-2.36 2.4c-2.06.76-4.34-.3-5.1-2.36-.36-.98-.3-2.01.07-2.91a8.765 8.765 0 0 1-5.79-5.4z" fill="#60A400"/><path d="M1847.4 531.53c-.03-1.12-.03-1.99.06-3.4-3.14-1.08-4.95-9.76-4.95-9.76 2.36 5.07 4.25 7.67 5.23 7.95.11-1.09.25-3.68.31-4.77.05-.97.11-1.87.24-2.62.2-1.19-.4-6.52.13-7.02 0 0 .99 7.8 1.4 6.93 1.3-2.71 2-3.12 3.54-5.42.19-.29-3.54 7.61-3.5 8.06.16 1.78.36 4.36.6 8.1 1.17-.65 2.95-1.91 3.93-2.76-.68-2.31 1.5-6.84 1.5-6.84-.06 2.44-1 5.69-.56 5.99.96-1.14 5.75-4.72 6.89-6.2 0 0-6.71 8.8-11.57 12.2.23 2.86.31 7.56.43 8.48.25 1.91.62 4.11 1.01 5.78h-5.68c.1-.83.3-1.61.32-2.5.04-1.76.09-7.95.29-9.18-7.08-3.52-13.02-12-13.02-12 5.07 4.99 11.29 8.82 13.4 8.98z" fill="#865040"/><path d="M1647.59 559.001c0 .54-4.23.98-9.46.98-5.22 0-9.46-.44-9.46-.98s4.23-.98 9.46-.98c5.23-.01 9.46.43 9.46.98z" fill="#008B00"/><path d="M1627.64 548.66a4.866 4.866 0 0 1-3.21-3c-.61-1.65-.27-3.41.74-4.69-1.1-3.15.39-6.61 3.44-7.83.73-.29 1.47-.42 2.21-.42-.92-3.07.58-6.36 3.54-7.55 3.14-1.26 6.72.33 8.01 3.54a6.3 6.3 0 0 1 .25 3.96c.01 0 .01.01.02.02 2.87-.62 5.88.95 7.04 3.83.18.44.29.88.37 1.33.9.68 1.27 1.93.8 3.04-.25.6-.69 1.05-1.22 1.32.56 2.37-.71 4.83-3.03 5.68-2.07.76-4.33.01-5.58-1.69-.86.68-2.01.99-3.17.77a5.991 5.991 0 0 1-3.14 2.9c-.97.39-1.99.51-2.97.38-.21.59-.67 1.1-1.31 1.33-1.14.42-2.41-.17-2.83-1.31-.2-.54-.17-1.11.04-1.61z" fill="#73B400"/><path d="M1635.87 526.58c-2.87.37-3.74 1.29-5.14 2.77.46-1.84 1.75-3.43 3.62-4.18 3.14-1.26 6.72.33 8.01 3.54a6.3 6.3 0 0 1 .25 3.96c.01 0 .01.01.02.02 2.87-.62 5.88.95 7.04 3.83.11.29.2.58.27.87-3.88-4.43-11.66-1.63-10.17-2.77 3.24-2.49 1.53-8.74-3.9-8.04zM1632.11 534.001c-1.03.1-2.97.35-4.53 1.07-.57.26-1.85 1.09-2.24 1.25.62-1.4 1.75-2.57 3.27-3.18.73-.29 1.47-.42 2.21-.42-.01 0 3.06 1.11 1.29 1.28z" fill="#88BF26"/><path d="M1624.42 545.66c-.61-1.65-.27-3.41.74-4.69 1.42.54 2.61.08 2.61.08s-.72 4.21 3.49 5.26c3.88.97 6.27-4.23 6.27-4.23s3.4 2.13 7.8 1.74c2.08-.18 2.11-2.49 3.02-3.86.91-1.36.61 1.08 1.68.72.38-.13.71-.25.97-.34-.03.19-.08.37-.16.55-.25.6-.69 1.05-1.22 1.32.56 2.37-.71 4.83-3.03 5.68-2.07.76-4.33.01-5.58-1.69-.86.68-2.01.99-3.17.77a5.991 5.991 0 0 1-3.14 2.9c-.97.39-1.99.51-2.97.38-.21.59-.67 1.1-1.31 1.33-1.14.42-2.41-.17-2.83-1.31-.2-.55-.17-1.12.04-1.61a4.909 4.909 0 0 1-3.21-3z" fill="#60A400"/><path d="M1637.14 550.841c-.02-.62-.02-1.1.03-1.88-1.74-.6-2.75-5.41-2.75-5.41 1.31 2.81 2.36 4.25 2.9 4.4.06-.61.14-2.04.17-2.64.03-.54.06-1.04.13-1.45.11-.66-.22-3.61.07-3.89 0 0 .55 4.32.78 3.84.72-1.5 1.11-1.73 1.96-3 .11-.16-1.96 4.22-1.94 4.46.09.99.2 2.42.33 4.49.65-.36 1.63-1.06 2.18-1.53-.38-1.28.83-3.79.83-3.79-.04 1.35-.55 3.15-.31 3.32.53-.63 3.19-2.62 3.82-3.44 0 0-3.72 4.88-6.42 6.76.13 1.58.17 4.19.24 4.7.14 1.06.35 2.28.56 3.2h-3.15c.05-.46.17-.89.18-1.39.02-.97.05-4.41.16-5.09-3.92-1.95-7.22-6.65-7.22-6.65 2.83 2.78 6.28 4.9 7.45 4.99z" fill="#865040"/><path d="M113.797 355.501h-7.352v151.461h7.352V355.501zM261.72 355.5h-7.353v138.437h7.353V355.5z" fill="#5F6464"/><path d="M270.01 453.214H99.065c-7.61 0-13.786-6.176-13.786-13.786v-75.363c0-7.61 6.176-13.786 13.786-13.786H270.01c7.609 0 13.785 6.176 13.785 13.786v75.363c0 7.61-6.166 13.786-13.785 13.786z" fill="#0047BB"/><path d="M270.01 455.493H99.065c-8.86 0-16.065-7.206-16.065-16.065v-75.363C83 355.205 90.205 348 99.065 348H270.01c8.859 0 16.065 7.205 16.065 16.065v75.363c0 8.859-7.206 16.065-16.065 16.065zM99.065 352.559c-6.341 0-11.507 5.165-11.507 11.506v75.363c0 6.341 5.166 11.506 11.507 11.506H270.01c6.341 0 11.506-5.165 11.506-11.506v-75.363c0-6.341-5.156-11.506-11.506-11.506H99.065z" fill="#fff"/><path d="M122.988 391.894c-1.406-1.599-2.178-3.988-2.307-7.168l4.927-.965c.073 1.994.395 3.511.946 4.558.552 1.048 1.425 1.572 2.619 1.572.883 0 1.535-.267 1.958-.791.423-.533.643-1.249.643-2.15 0-1.241-.275-2.289-.836-3.143-.551-.855-1.424-1.811-2.619-2.868l-3.952-3.446c-1.213-1.085-2.123-2.206-2.73-3.355-.606-1.149-.91-2.564-.91-4.246 0-2.481.726-4.393 2.169-5.735 1.443-1.342 3.447-2.012 6.011-2.012 2.684 0 4.614.772 5.772 2.306 1.167 1.535 1.838 3.612 2.012 6.222l-4.926.855c-.073-1.682-.303-2.959-.68-3.832-.377-.883-1.103-1.315-2.187-1.315-.883 0-1.572.276-2.077.818-.506.543-.754 1.25-.754 2.133 0 1.011.202 1.847.616 2.518.413.671 1.057 1.406 1.939 2.205l3.915 3.447c1.471 1.314 2.62 2.684 3.447 4.108.827 1.425 1.24 3.088 1.24 5 0 1.498-.33 2.83-.992 3.989a6.956 6.956 0 0 1-2.776 2.729c-1.185.662-2.555.993-4.108.993-2.821-.019-4.954-.827-6.36-2.427zM145.294 362.476h6.121l6.277 31.395h-5.312l-1.241-7.252h-5.468l-1.278 7.252h-5.385l6.286-31.395zm5.238 20.504L148.4 369.8l-2.132 13.18h4.264zM158.28 362.476h5.037l4.145 22.213 3.915-22.213h5.156l-6.314 31.395h-5.616l-6.323-31.395zM179.906 362.476h5.661v31.395h-5.661v-31.395zM190.411 362.476h3.988l7.638 17.903v-17.903h4.733v31.395h-3.796l-7.674-18.758v18.758h-4.88v-31.395h-.009zM212.992 391.527c-1.305-1.848-1.958-4.513-1.958-8.005V372.98c0-3.593.671-6.296 2.013-8.124 1.342-1.82 3.658-2.73 6.939-2.73 3.097 0 5.321.772 6.663 2.307 1.342 1.535 2.013 3.814 2.013 6.838v1.626h-5.469v-1.783c0-1.139-.073-2.04-.211-2.711-.138-.671-.441-1.185-.892-1.553-.45-.358-1.13-.542-2.031-.542-.956 0-1.663.229-2.132.698-.469.469-.772 1.057-.91 1.783s-.211 1.664-.211 2.831v13.142c0 1.783.239 3.116.717 3.989.478.882 1.378 1.314 2.692 1.314 1.296 0 2.188-.468 2.693-1.397.506-.928.754-2.325.754-4.181v-2.951h-3.373v-3.602h8.529v15.927h-3.722l-.386-3.06c-.984 2.325-2.748 3.492-5.313 3.492-2.968.009-5.109-.919-6.405-2.766zM234.727 391.894c-1.406-1.599-2.178-3.988-2.306-7.168l4.926-.965c.073 1.994.395 3.511.946 4.558.552 1.048 1.425 1.572 2.62 1.572.882 0 1.534-.267 1.957-.791.423-.533.644-1.249.644-2.15 0-1.241-.276-2.289-.837-3.143-.551-.855-1.424-1.811-2.619-2.868l-3.952-3.446c-1.213-1.085-2.123-2.206-2.73-3.355-.606-1.149-.91-2.564-.91-4.246 0-2.481.727-4.393 2.169-5.735 1.443-1.342 3.447-2.012 6.011-2.012 2.684 0 4.614.772 5.772 2.306 1.167 1.535 1.838 3.612 2.013 6.222l-4.927.855c-.073-1.682-.303-2.959-.68-3.832-.377-.883-1.103-1.315-2.187-1.315-.882 0-1.572.276-2.077.818-.506.543-.754 1.25-.754 2.133 0 1.011.202 1.847.616 2.518.414.671 1.057 1.406 1.939 2.205l3.915 3.447c1.471 1.314 2.62 2.684 3.447 4.108.827 1.425 1.241 3.088 1.241 5 0 1.498-.331 2.83-.993 3.989a6.956 6.956 0 0 1-2.776 2.729c-1.185.662-2.555.993-4.108.993-2.821-.019-4.944-.827-6.36-2.427zM140.919 408.989h6.121l6.277 31.395h-5.312l-1.24-7.251h-5.469l-1.277 7.251h-5.386l6.286-31.395zm5.23 20.504l-2.132-13.179-2.133 13.179h4.265zM156.534 408.989h5.698v13.097h6.396v-13.097h5.735v31.395h-5.735v-14.19h-6.396v14.19h-5.698v-31.395zM179.17 408.989h13.18v4.035h-7.481v9.034h5.891v3.989h-5.891v10.422h7.554v3.915H179.17v-31.395zM200.447 408.989h6.121l6.277 31.395h-5.312l-1.241-7.251h-5.468l-1.278 7.251h-5.386l6.287-31.395zm5.238 20.504l-2.132-13.179-2.132 13.179h4.264zM215.988 408.989h7.398c2.537 0 4.522.34 5.965 1.03 1.443.689 2.472 1.727 3.079 3.143.606 1.406.909 3.272.909 5.597v11.433c0 2.38-.303 4.301-.909 5.772-.607 1.47-1.618 2.573-3.042 3.317-1.425.736-3.346 1.103-5.772 1.103h-7.637v-31.395h.009zm7.481 27.407c1.268 0 2.187-.221 2.748-.662.57-.441.928-1.057 1.084-1.838.157-.791.23-1.958.23-3.511v-12.012c0-1.397-.092-2.454-.276-3.18-.183-.726-.56-1.259-1.139-1.608-.579-.35-1.489-.524-2.73-.524h-1.709v23.335h1.792z" fill="#fff"/><path d="M475.556 515.2s-114.46 19.45-140.5 22.48c-26.04 3.03-49.94 12.2-39.98 13.67 9.96 1.47 79.94 4.85 101.78 4.37 21.84-.48 40.76-1.46 67.08-7.97 21.62-5.35 78.37-19.94 99.45-26.11 3.92-1.14 3.15-1.65 2.54-1.71-3.43-.35-90.37-4.73-90.37-4.73z" fill="#0032A5"/><path d="M568.056 477.61c-1.89-6.73-9.26-12.1-9.26-12.1l-171.11-.96-19.17 52.9 69.87 1.94 44.75-3.21 59.22-9.21 26.32-13.38c0 .01 1.27-9.25-.62-15.98z" fill="#004687"/><path d="M448.287 480.88c7.82-.17 14.48 14.1 14.87 31.89.39 17.79-5.63 32.35-13.45 32.52-7.82.17-14.48-14.11-14.87-31.89-.39-17.78 5.63-32.35 13.45-32.52z" fill="#192D4B"/><path d="M449.707 545.3l18.15.39-1.78-65.2-17.79.39 1.42 64.42z" fill="#192D4B"/><path d="M466.417 480.49c8.13-.18 15.04 14.27 15.43 32.28.39 18.01-5.87 32.75-13.99 32.93-8.12.18-15.03-14.27-15.43-32.28-.4-18.01 5.86-32.75 13.99-32.93z" fill="#192D4B"/><path d="M467.537 488.11c5.99-.13 11.09 10.93 11.39 24.72.3 13.79-4.3 25.07-10.29 25.2-5.99.13-11.09-10.94-11.39-24.72-.31-13.79 4.3-25.07 10.29-25.2z" fill="#14AFEB"/><path d="M466.337 505.88c1.73-.04 3.21 3.16 3.3 7.15.09 3.99-1.24 7.25-2.98 7.29-1.74.04-3.21-3.16-3.3-7.15-.09-3.98 1.25-7.25 2.98-7.29z" fill="#192D4B"/><path d="M465.227 509.68c.82-.02 1.53 1.51 1.57 3.41.04 1.9-.59 3.46-1.42 3.48-.83.02-1.53-1.51-1.57-3.41-.04-1.9.6-3.46 1.42-3.48zM545.687 473.29c5.36-.12 9.94 10.69 10.24 24.14.29 13.45-3.81 24.45-9.16 24.57-5.36.12-9.94-10.69-10.24-24.14-.3-13.46 3.8-24.45 9.16-24.57z" fill="#192D4B"/><path d="M546.767 522l12.43.33-1.32-49.31-12.19.27 1.08 48.71z" fill="#192D4B"/><path d="M558.107 473.01c5.57-.12 10.33 10.82 10.62 24.44.3 13.61-3.97 24.76-9.54 24.88-5.56.12-10.32-10.82-10.62-24.44-.3-13.62 3.97-24.76 9.54-24.88z" fill="#192D4B"/><path d="M558.877 478.78c4.11-.09 7.62 8.29 7.85 18.72.23 10.43-2.91 18.95-7.01 19.04-4.1.09-7.61-8.29-7.84-18.71-.24-10.44 2.89-18.97 7-19.05z" fill="#14AFEB"/><path d="M558.087 492.22c1.19-.03 2.2 2.4 2.27 5.42.07 3.02-.84 5.48-2.03 5.51-1.19.03-2.21-2.4-2.27-5.42-.06-3.02.85-5.49 2.03-5.51z" fill="#192D4B"/><path d="M557.337 495.09c.57-.01 1.05 1.14 1.08 2.58.03 1.44-.4 2.61-.97 2.63-.57.02-1.05-1.14-1.08-2.58-.03-1.44.4-2.61.97-2.63zM324.801 482.165c8.57-.19 15.8 12.82 16.16 29.05.36 16.23-6.29 29.55-14.86 29.73-8.57.19-15.8-12.82-16.16-29.05-.35-16.23 6.29-29.54 14.86-29.73z" fill="#192D4B"/><path d="M326.101 540.945l19.87.29-1.68-59.5-19.49.43 1.3 58.78z" fill="#192D4B"/><path d="M344.661 481.725c8.9-.2 16.41 12.97 16.77 29.4.36 16.43-6.56 29.92-15.46 30.11-8.9.19-16.41-12.97-16.77-29.4-.36-16.43 6.57-29.91 15.46-30.11z" fill="#192D4B"/><path d="M345.851 488.685c6.56-.15 12.1 9.94 12.38 22.52.28 12.58-4.82 22.9-11.37 23.04-6.56.15-12.1-9.94-12.38-22.52-.28-12.58 4.81-22.9 11.37-23.04z" fill="#004687"/><path d="M344.471 504.905c1.9-.04 3.5 2.88 3.58 6.52.08 3.64-1.39 6.63-3.29 6.67-1.9.04-3.5-2.87-3.58-6.52-.08-3.64 1.39-6.63 3.29-6.67z" fill="#9CB3B2"/><path d="M343.241 508.385c.9-.02 1.67 1.37 1.71 3.11.04 1.74-.66 3.16-1.57 3.18-.91.02-1.67-1.37-1.71-3.11-.04-1.74.67-3.16 1.57-3.18z" fill="#F1F5F5"/><path d="M567.196 468.34c-1.34-4.84-2.48-6.96-7.48-11.24-4.99-4.28-16.93-8.33-16.93-8.33s-18.6-23.29-30.31-33.4c-11.71-10.11-36.1-20.04-57.03-21.02a577.05 577.05 0 0 0-64.43.66c-21.41 1.41-23.8 2.89-38.8 11.02-7.39 4-37.1 15.96-45.31 22.23-2.61 1.99-9.91 7.01-9.91 7.01l2.57 5.28s-7.53 35.34-9.95 39.88c-2.42 4.54 1.21 16.78 3.65 25.86 2.44 9.07 9.78 11.67 17.61 12.44 7.83.77 84.96 2.11 97.3 2.5 12.34.39 27.25-.07 30.22-1.83 2.96-1.76 5.36-10.99 7.12-20.14 1.76-9.15 6.1-30.51 21.48-29.52 20.01 1.29 18.09 32.71 17.93 38.14.03 2.87-.58 5.7-1.78 8.31 0 0 15.41-2.38 25.47-3.55 10.06-1.17 21.13-2.9 30.75-4.58 4.47-.78 5.8-12.54 6.86-20.84 1.06-8.3 3.88-19.26 12.65-18.12 7.22.94 9.73 18.82 9.73 18.82l.07 5.69c1.73-6.93 2.11-12.35-1.48-25.27z" fill="#14AFEB"/><path d="M366.666 449.03l-40.43 1.64-8.66-2.01 4.49 13.27c.3.9 1.16 1.5 2.11 1.48l41.63-.92c.7-.02 1.34-.37 1.74-.94l10.37-15.02-11.25 2.5zM412.086 480.51c-8.62 3.18-32.97 3.22-73.28 3.86-23.72.37-56.25-.76-47.65-2.64 6.58-1.44 17.44-1.67 48.34-2.48 27.13-.71 82.11-2.24 72.59 1.26zM512.366 416.6c-8.39-7.36-21.21-12.44-32.49-14.36-13.96-2.38-20.9.86-32.69 12.33-5.78 5.62-2 8.22 12.11 11.63 14.44 3.48 81.26 22.22 81.26 22.22s-17.25-22.22-28.19-31.82z" fill="#5AC8F5"/><path d="M459.296 426.2c14.44 3.48 81.26 22.22 81.26 22.22s-17.25-22.21-28.19-31.82c-8.39-7.36-21.21-12.44-32.49-14.36-2.77-.51-5.59-.75-8.41-.72-8.88.2-15.11 4.14-24.27 13.05-5.78 5.61-2.01 8.21 12.1 11.63zm-12.46-7.23c-.01-.03-.18-.77 1.91-2.8 9.49-9.23 15.02-12.25 22.77-12.42 2.68-.02 5.35.21 7.99.69 11.95 2.03 23.98 7.34 31.39 13.84 7.37 6.47 17.8 18.95 23.6 26.11-17.31-4.83-63.07-17.57-74.66-20.37-3.44-.74-6.82-1.76-10.09-3.05-2.61-1.14-2.89-1.91-2.91-2zM444.019 454.036c-2.76-4.11-5.09-7.54-5.86-8.55-2.31-3.03-8.98-9.04-17.41-9.54-11.22-.66-31.93-.3-35.17-.17a115.99 115.99 0 0 0-7.67 10.76s53.92 4.13 66.11 7.5zM312.329 439.196c-6.02.59-12.77 1.35-12.77 1.35l-2.72 12.36 20.73-4.24a46.313 46.313 0 0 0-5.24-9.47zM367.006 449.02l-40.76 1.65-2.02 10.69 41.29-.91 1.49-11.43z" fill="#0082C8"/><path d="M539.206 500.85c7.26.03-10.3 2.84-19.54 3.26-9.23.42-28.36 1.28-31.76-.4-3.4-1.68 17.32-2.11 29.35-2.83 10.56-.62 15.97-.06 21.95-.03zM370.566 396.82c5.86-.8 16.51-2.05 33.67-3.05 18.45-1.08 51.21.57 51.21.57-12.76-.51-29.95 17.21-44.1 28.57-16.8.18-40.26 1.07-65.43 2.57-22.45 1.34-39.01 2.78-39.01 2.78 28.86-17.7 47.31-29.21 63.66-31.44z" fill="#5AC8F5"/><path d="M306.906 428.26s16.55-1.44 39.01-2.78c20.93-1.25 40.67-2.07 56.4-2.42 3.18-.07 6.2-.12 9.03-.15 13.84-11.1 30.59-28.3 43.25-28.58.28-.01.57 0 .85.01 0 0-25.13-1.26-43.76-.85-2.64.06-5.15.15-7.44.28-17.17 1.01-27.82 2.25-33.67 3.05-16.36 2.23-34.81 13.74-63.67 31.44zm95.36-7.44c-16.29.36-36.36 1.22-56.49 2.42-12.17.72-22.68 1.48-29.71 2.03 23.97-14.67 40.46-24.27 54.81-26.23 9.17-1.25 20.44-2.27 33.5-3.03 2.16-.13 4.64-.22 7.36-.28 9.82-.22 21.55.04 30.37.32-7.5 4.13-15.4 10.9-23.12 17.52-2.94 2.52-5.73 4.91-8.44 7.11-2.61.03-5.39.08-8.28.14zM367.006 449.02l10.9-2.48a308.45 308.45 0 0 0-34.53-.75c-8.65.4-17.27 1.37-25.79 2.88l8.66 2 40.76-1.65z" fill="#0082C8"/><path d="M389.153 522.507c-12.89-.28-63.61-1.25-80.24-3.3-5.9-.73-12.75-4.64-12.8-6.6-.05-1.96-1.42-13.49 4.74-13.91 6.15-.42 76.67.43 83.68.56 7.01.13 13.05.97 15.75 2.64 4 2.57 7.71 5.59 11.03 8.99 1.59 1.55 30.87 1.87 30.87 1.87-.41 2.92-1.66 5.66-3.58 7.91 0-.01-36.56 2.12-49.45 1.84zM540.883 509.806c-1.29 1.39-5.05-.26-25.45 2.62-8.97 1.26-33.66 5.79-33.66 5.79l.05-1.96c.74-.21 1.34-.74 1.65-1.44.22-.55 1.36-5.55 1.36-5.55s17.19-.34 30.5-1.66c13.31-1.31 27.53-3.41 27.53-3.41s-.68 4.23-1.98 5.61z" fill="#192D4B"/><path d="M443.51 453.27c5.54 8.24 13.19 19.82 13.19 19.82M306.9 428.26l-6.44 6.43 1.49 5.34s-4.24 26.59-4.4 32.2c-.16 5.61.29 9.06 5.38 9.31 10.62.51 60.94-.07 93.41-.79 8.12-.18 9.16-4.74 9.59-10.05.6-7.41 1.18-34.45 1.18-34.45l-2.64-5.65 6.87-7.68M474.6 472.17l-8.93-25.35-.77-5.95-4.95-14.52 1.1-22.42M540.55 448.41l4.09 10.65c-.4 2.71-.62 5.45-.67 8.18-.3 7.01-3.06 33.57-3.06 33.57l.07 3.42-3.13 6.24M513.81 512.66s.16-.69 1.11-4.07c.95-3.38.36-4.35.36-4.35a5.232 5.232 0 0 1-2.11-2.82c-.89-2.23-.37-12.48-.24-19.49.12-7.01-2.65-24.65-2.65-24.65v-6.1l-3.73-12.25-14.6-33.6" stroke="#0082C8" stroke-width=".29" stroke-linejoin="round"/><path d="M343.956 438.86a2.583 2.583 0 1 1-3.17 2.25c.26-1.49 1.67-2.5 3.17-2.25z" fill="#0082C8"/><path fill-rule="evenodd" clip-rule="evenodd" d="M465.776 438.598l11.34 2.61.63 2.27-11.34-2.61-.63-2.27zM511.35 449.115l10.21 2.35.61 2.17-10.21-2.35-.61-2.17z" fill="#0082C8"/><path d="M539.836 444.06s-3.42 3.19-2.74 4.92a2.29 2.29 0 0 0 2.7 1.22l3.41-3.87s9.49-1.5 11.95-3.41c2.46-1.91-1.27-4.77-2.92-5.87-1.56-1.05-8.46-1.23-12.62-1.25-.29 0-.57.06-.84.17a2.14 2.14 0 0 0-1.15 2.8l2.21 5.29z" fill="#5AC8F5"/><path d="M541.156 445.5s-1.78 1.72-4.05 3.48a2.294 2.294 0 0 0 2.69 1.22l3.41-3.87s9.05-1.49 11.52-3.4c2.46-1.9-1.25-4.49-2.89-5.58-1.64-1.1-8.54-1.14-12.26-1.07a1.611 1.611 0 0 0-1.45 2.25l3.03 6.97z" fill="#14AFEB"/><path d="M552.166 443.24c4.11-1 2.54-3.34-.11-5.15-2.01-1.37-9.07-1.43-12.36-1.38-.16 0-.31.04-.45.11-.56.26-.8.92-.54 1.48l3.24 6.9c0-.01 5.45-.8 10.22-1.96z" fill="#0082C8"/></g><g clip-path="url(#clip0)" fill="#fff"><path d="M328 458v-7h3.885v1.128h-2.58v1.932h1.996v1.068h-1.996V458H328zM334.701 455.265h-.763v2.744h-1.297V451h1.96c1.433 0 2.246.701 2.246 2.051 0 .932-.342 1.564-.934 1.915l1.226 2.632v.411h-1.191l-1.247-2.744zm-.763-1.077h.627c.685 0 .97-.359.97-1.051 0-.684-.285-1.034-.97-1.034h-.627v2.085zM337.909 451h3.849v1.128h-2.559v1.778h1.832v1.068h-1.832v1.923h2.652V458h-3.942v-7zM342.642 451h3.85v1.128h-2.559v1.778h1.832v1.068h-1.832v1.923h2.652V458h-3.936v-7h-.007zM347.048 451.41V451h1.233l.898 5.068h.015l1.005-5.068h1.098l1.033 5.068h.015l.876-5.068h1.091v.41L353 458h-1.44l-.876-4.581h-.015L349.8 458h-1.455l-1.297-6.59zM354.269 457.59l1.939-6.59h1.34l1.947 6.59v.41h-1.262l-.485-1.778h-1.967L355.31 458h-1.041v-.41zm1.79-2.436h1.404l-.699-2.581h-.014l-.691 2.581zM361.006 458v-2.709l-1.811-3.855V451h1.219l1.312 2.94h.014l1.255-2.94h.998v.436l-1.697 3.812V458h-1.29z"/></g><defs><clipPath id="clip0"><path fill="#fff" transform="translate(328 451)" d="M0 0h36v7H0z"/></clipPath></defs></svg>