<svg width="80" height="80" fill="none" xmlns="http://www.w3.org/2000/svg" viewBox="0 0 80 80"><path d="M46.102 38.164c7.46 0 13.506-6.099 13.506-13.623 0-7.524-6.047-13.623-13.506-13.623-7.459 0-13.505 6.1-13.505 13.623 0 7.524 6.046 13.623 13.505 13.623z" fill="#46B400"/><path d="M47.182 31.08v2.18h-1.944v-2.18a6.733 6.733 0 0 1-3.782-1.962l1.513-1.852a5.233 5.233 0 0 0 3.35 1.416c.971 0 1.62-.436 1.62-1.198 0-.872-.648-1.2-2.161-1.635-2.161-.654-3.998-1.417-3.998-3.815 0-1.961 1.297-3.378 3.458-3.705V16.04h1.944v2.398a6.896 6.896 0 0 1 3.242 1.526l-1.513 1.852c-1.08-.763-2.053-1.09-2.917-1.09-.972 0-1.513.436-1.513 1.09 0 .654.649 1.09 2.053 1.526 2.485.763 4.214 1.417 4.214 3.924-.108 2.07-1.405 3.487-3.566 3.814z" fill="#fff"/><path d="M63.282 36.093l-8.536 8.61-14.802-1.526 8.212-2.834a2.611 2.611 0 0 0 1.421-1.26c.3-.586.372-1.264.2-1.9a2.565 2.565 0 0 0-1.172-1.475 2.528 2.528 0 0 0-1.854-.269l-13.506 3.597a5.214 5.214 0 0 0-1.296-.11 5.913 5.913 0 0 0-3.998 1.526h-.108L14.445 53.967l11.777 11.879 9.94-13.514h20.53l12.64-16.239a4.354 4.354 0 0 0-3.025-1.226c-1.127 0-2.211.44-3.025 1.226z" fill="#C8EBB4"/><path d="M28.707 69.007l6.159-6.212a1.052 1.052 0 0 0 .324-.763 1.061 1.061 0 0 0-.324-.763l-13.83-13.84a1.046 1.046 0 0 0-.756-.327 1.038 1.038 0 0 0-.757.326l-6.158 6.212a1.053 1.053 0 0 0-.324.763 1.062 1.062 0 0 0 .324.763l13.83 13.841a1.045 1.045 0 0 0 1.167.242c.13-.056.248-.139.345-.242z" fill="#64C800"/></svg>