<svg width="52" height="52" fill="none" xmlns="http://www.w3.org/2000/svg" viewBox="0 0 52 52"><g clip-path="url(#clip0)"><path d="M8.813 21.509v-4.29a12.795 12.795 0 0 1 25.59 0v4.29" fill="#FF8C00"/><path d="M10.63 23.618a2.389 2.389 0 1 0 0-4.777 2.389 2.389 0 0 0 0 4.777zM32.59 23.618a2.389 2.389 0 1 0 0-4.777 2.389 2.389 0 0 0 0 4.777z" fill="#FFDCB4"/><path d="M10.63 17.313a10.979 10.979 0 0 1 21.957 0v5.444a10.979 10.979 0 1 1-21.958 0v-5.444z" fill="#FFDCB4"/><path d="M31.348 10.051a3.388 3.388 0 0 0-.191-1.049c-.573-2.094-2.865-5.629-8.888-5.532-8.499.191-13.273 4.113-13.273 4.113l2.403 3.62s1.813 2.197 3.34 2.103a3.332 3.332 0 0 0 1.72-.587 3.261 3.261 0 0 0 3.055 1.624 3.194 3.194 0 0 0 2.006-.858 5.65 5.65 0 0 0 4.863 2.495 5.372 5.372 0 0 0 5.059-5.73.352.352 0 0 1-.095-.199z" fill="#FF8C00"/><path d="M11.869 18.747s-.588-6.684 9.739-6.684 9.74 6.684 9.74 6.684h1.239l1.243-2.389L30.2 9.102l-6.398-2.768-7.639.955-4.868 3.643-1.625 4.663.382 3.152h1.816z" fill="#FF8C00"/><path d="M25.237 26.098a.538.538 0 0 1 .587.67 4.262 4.262 0 0 1-8.402 0 .538.538 0 0 1 .587-.67h7.228z" fill="#fff"/><path d="M33.16 37.08H10.054a5.532 5.532 0 0 0-5.441 4.68l-1.146 6.777H39.75l-1.146-6.777a5.611 5.611 0 0 0-5.444-4.68z" fill="#FA0"/><path d="M21.608 47.583a12.926 12.926 0 0 1-3.82-9.264v-1.24h7.64v1.337a12.86 12.86 0 0 1-3.82 9.167z" fill="#fff"/><path d="M19.983 45.579a11.51 11.51 0 0 0 1.625 2.004 16.798 16.798 0 0 0 1.625-2.004l-.67-7.545-.955-.954-.955.954-.67 7.545zM39.75 48.537a9.548 9.548 0 1 0 0-19.096 9.548 9.548 0 0 0 0 19.096z" fill="#FF8C00"/><path d="M40.513 43.572V45.1H39.08v-1.528a5.091 5.091 0 0 1-2.674-1.337l1.052-1.336c.647.62 1.492.991 2.386 1.049.67 0 1.145-.294 1.145-.858 0-.564-.382-.861-1.524-1.146-1.528-.479-2.865-.955-2.865-2.674 0-1.336.858-2.388 2.48-2.579v-1.622h1.433v1.622a5.615 5.615 0 0 1 2.292 1.052l-1.052 1.337c-.764-.476-1.43-.764-2.1-.764-.67 0-1.05.293-1.05.764 0 .47.477.763 1.431 1.048 1.816.588 2.962 1.052 2.962 2.77 0 1.434-.955 2.483-2.483 2.674z" fill="#fff"/></g><defs><clipPath id="clip0"><path fill="#fff" transform="translate(3.467 3.467)" d="M0 0h45.831v45.07H0z"/></clipPath></defs></svg>