<svg width="80" height="80" fill="none" xmlns="http://www.w3.org/2000/svg" viewBox="0 0 80 80"><path d="M39.333 69.332c15.096 0 27.334-11.939 27.334-26.666 0-14.728-12.238-26.667-27.334-26.667C24.238 15.999 12 27.939 12 42.666c0 14.727 12.238 26.666 27.333 26.666z" fill="#FFDCB4"/><path d="M24 31.999v-5.028c0-3.97 1.616-7.779 4.491-10.587C31.367 13.576 35.267 12 39.333 12c4.067 0 7.967 1.577 10.843 4.385 2.875 2.808 4.49 6.616 4.49 10.587V32H24z" fill="#FF8C00"/><path d="M26 34.666c1.841 0 3.334-1.194 3.334-2.666 0-1.473-1.493-2.667-3.334-2.667-1.84 0-3.333 1.194-3.333 2.667 0 1.472 1.492 2.666 3.333 2.666zM52.666 34.666C54.507 34.666 56 33.472 56 32c0-1.473-1.493-2.667-3.334-2.667-1.84 0-3.333 1.194-3.333 2.667 0 1.472 1.492 2.666 3.333 2.666z" fill="#fff"/><path d="M25.333 27.488c0-3.4 1.405-6.662 3.905-9.066 2.5-2.405 5.892-3.756 9.428-3.756 3.537 0 6.928 1.35 9.428 3.756 2.5 2.404 3.906 5.666 3.906 9.066v6.356c0 3.4-1.405 6.662-3.906 9.066-2.5 2.405-5.891 3.756-9.428 3.756-3.536 0-6.927-1.35-9.428-3.755-2.5-2.405-3.905-5.667-3.905-9.067v-6.356z" fill="#fff"/><path d="M50.456 20.44c.076-.492.098-.992.068-1.49a.413.413 0 0 1-.113-.233 4.322 4.322 0 0 0-.225-1.283c-.677-2.566-3.385-6.882-10.493-6.766C29.641 10.902 24 15.684 24 15.684l2.671 4.197-1.881 5.602.451 3.85h2.144s-.424-5.13 5.469-7.259a3.909 3.909 0 0 0 1.522 1.46c.627.334 1.33.484 2.034.433.903 0 1.693-.467 2.37-1.05a6.753 6.753 0 0 0 2.498 2.284 6.495 6.495 0 0 0 3.255.749 6.33 6.33 0 0 0 3.898-1.683 6.971 6.971 0 0 1 1.489 2.324c.34.87.505 1.803.486 2.742h1.46l1.467-2.917-2.877-5.975z" fill="#FF8C00"/><path d="M43.254 37.336a.886.886 0 0 1 .32.034.71.71 0 0 1 .262.142.48.48 0 0 1 .146.216.388.388 0 0 1-.004.243c-.362 1.908-2.656 3.362-5.312 3.362s-4.95-1.454-5.312-3.361a.39.39 0 0 1-.003-.244.48.48 0 0 1 .145-.217.709.709 0 0 1 .263-.141.886.886 0 0 1 .32-.034h9.175z" fill="#FFDCB4"/><path d="M60 59.921l-1.039-5.059a7.095 7.095 0 0 0-2.45-3.988 6.863 6.863 0 0 0-4.362-1.54H26.518c-1.58.009-3.11.56-4.345 1.562a7.194 7.194 0 0 0-2.467 3.966l-1.039 5.06a27.772 27.772 0 0 0 9.348 6.951 27.3 27.3 0 0 0 11.319 2.46 27.3 27.3 0 0 0 11.318-2.46A27.772 27.772 0 0 0 60 59.921z" fill="#FA0"/><path d="M39.334 61.333a14.737 14.737 0 0 1-3.475-4.85 13.927 13.927 0 0 1-1.192-5.732v-1.418H44v1.527a13.872 13.872 0 0 1-1.209 5.675 14.68 14.68 0 0 1-3.457 4.798z" fill="#fff"/><path d="M37.333 59.08c.585.81 1.252 1.564 1.993 2.253a15.453 15.453 0 0 0 2.007-2.272l-.837-8.637-1.17-1.091-1.17 1.09-.823 8.657z" fill="#FF8C00"/></svg>