<svg width="60" height="60" fill="none" xmlns="http://www.w3.org/2000/svg" viewBox="0 0 60 60"><path d="M49.13 21H9.87c-.496 0-.972.198-1.322.55-.351.353-.548.83-.548 1.329V50.12c0 .498.197.976.548 1.329.35.352.826.55 1.322.55h39.26c.496 0 .972-.198 1.322-.55.351-.353.548-.83.548-1.329V22.88c0-.498-.197-.976-.548-1.329A1.865 1.865 0 0 0 49.13 21z" fill="#F5B4D7"/><path d="M28.354 37.578c.322.273.727.422 1.146.422.419 0 .824-.15 1.146-.422L50 22.122c-.367-.281-15.41-10.867-19.537-13.77a1.764 1.764 0 0 0-2.11 0C24.319 11.254 9.276 21.84 9 22.121l19.354 15.456z" fill="#D70073"/><path d="M43.032 14.002H15.968a.97.97 0 0 0-.379.054.923.923 0 0 0-.322.195.854.854 0 0 0-.208.302.81.81 0 0 0-.057.356v12.974l13.338 9.708c.34.264.767.409 1.208.409.442 0 .869-.145 1.209-.409l13.241-9.708V14.91a.81.81 0 0 0-.057-.356.854.854 0 0 0-.209-.302.923.923 0 0 0-.321-.195.97.97 0 0 0-.38-.054z" fill="#fff"/><path d="M36 21H23v2h13v-2zM36 26H23v2h13v-2z" fill="#F5B4D7"/></svg>