<svg width="60" height="60" fill="none" xmlns="http://www.w3.org/2000/svg" viewBox="0 0 60 60"><path d="M54.594 54.36L50.215 57 6 31.968l4.379-2.639 44.215 25.032z" fill="#0032A5"/><path d="M14.157 28.648l-3.495 2.03c-1.118.651-2.563.829-4.152.544l3.495-2.032c1.591.286 3.034.106 4.152-.543z" fill="#EB82B9"/><path d="M33.482 33.676c-.531.865-1.21 1.535-2.008 2l-3.495 2.032c.797-.465 1.477-1.135 2.008-2 1.048-.61 2.447-1.424 3.495-2.032z" fill="#A62F00"/><path d="M24.471 9.541a15.539 15.539 0 0 0-.98-.613c-3.102-1.791-5.96-1.979-8.029-.777l-3.495 2.03c2.069-1.202 4.926-1.015 8.029.777.324.188.65.391.98.613a20.01 20.01 0 0 1 2.863 2.372l3.495-2.031a20.114 20.114 0 0 0-2.863-2.37z" fill="#EB82B9"/><path d="M19.996 10.957c.325.188.65.392.98.613a20.01 20.01 0 0 1 2.863 2.373c.55 2.569 1.777 5.179 3.397 7.383-.544 1.718-1.96 2.65-3.745 2.701.312.212.63.413.95.599 2.208 1.275 4.603 1.897 6.326 1.67-.92 1.227-1.442 2.986-1.415 5.195.017 1.366.24 2.79.638 4.216-1.91 3.11-5.74 3.707-10.04 1.224a16.814 16.814 0 0 1-1.552-1.017c-1.931.592-5.093-.277-8.197-2.069a24.171 24.171 0 0 1-3.687-2.621c2.528.453 4.688-.268 5.756-2.192-2.457-4.05-3.867-8.728-3.546-12.695.522-6.472 5.47-8.73 11.272-5.38z" fill="#D70073"/><path d="M47.668 47.32l3.495-2.032c.207 2.987.706 6.515 3.088 8.924l-3.495 2.032c-2.382-2.412-2.881-5.94-3.088-8.925z" fill="#FFC882"/><path d="M39.161 25.708c5.322 3.073 9.668 10.493 9.741 16.683.025 2.059-.425 3.724-1.234 4.927.207 2.986.706 6.514 3.088 8.924-.867-.19-1.728-.538-2.568-1.022-2.078-1.2-4.023-3.235-5.593-5.765-1.039-.142-2.16-.53-3.334-1.184-.057-.032-.114-.063-.171-.098-4.148-2.394-7.704-7.43-9.104-12.468-.396-1.425-.621-2.85-.637-4.216-.026-2.21.494-3.968 1.418-5.184.531-.082.993-.232 1.368-.465.143.08.288.157.433.23 2.682 1.343 4.994 1.066 6.429-.455.057.031.11.062.164.093z" fill="#FF8C00"/><path d="M42.655 23.677c-.054-.03-.108-.062-.162-.091l-3.495 2.031c.054.031.108.06.161.092C44.481 28.782 48.827 36.2 48.9 42.39c.025 2.06-.425 3.724-1.234 4.927l3.496-2.031c.808-1.202 1.258-2.868 1.234-4.927-.074-6.189-4.42-13.61-9.741-16.683z" fill="#FFC882"/><path d="M44.027 18.211c-.284-5.344-4.017-11.47-8.463-14.037-.19-.109-.38-.212-.572-.308-2.159-1.08-4.078-1.113-5.493-.29l-3.495 2.031c1.415-.821 3.334-.79 5.492.29.193.097.382.2.573.309 4.445 2.566 8.179 8.694 8.462 14.037.128 2.388-.456 4.232-1.532 5.375-.28.296-.593.546-.938.746l3.496-2.031c.342-.199.657-.448.937-.747 1.078-1.143 1.66-2.986 1.533-5.375z" fill="#82D7F0"/><path d="M32.07 6.204c4.445 2.566 8.178 8.694 8.462 14.037.127 2.388-.456 4.232-1.532 5.375-1.435 1.523-3.748 1.798-6.429.455-.145-.074-.29-.15-.433-.23-.375.233-.837.383-1.358.453-1.735.23-4.13-.395-6.337-1.67a14.743 14.743 0 0 1-.95-.598c1.784-.05 3.2-.983 3.744-2.701-1.62-2.204-2.848-4.816-3.398-7.384a14.286 14.286 0 0 1-.301-2.217c-.297-5.57 3.269-8.182 7.962-5.83.19.098.38.2.57.31z" fill="#00AFE1"/><path d="M24.47 19.78l-.008 2.627-4.736-2.734-.01 3.236 4.427 2.557-.007 2.605-4.428-2.555-.014 5.697-2.8-1.616.041-14.167 7.536 4.35zM33.45 10.582l2.62 11.341-2.079-1.2-.652-2.898-2.445-1.412-.617 2.168-2.002-1.155 2.638-8.307 2.537 1.463zm-2.271 4.333l1.888 1.09-.527-2.39c-.15-.67-.3-1.486-.425-2.142l-.026-.014c-.13.508-.258 1.178-.398 1.666l-.512 1.79zM41.245 42.495c.771.703 1.634 1.404 2.42 2.046l-.66 1.637a69.069 69.069 0 0 1-3.946-3.903 3.92 3.92 0 0 0-.698-.574c-2.258-1.473-4.361-4.604-4.351-8.358.01-3.448 1.919-4.945 4.904-3.222 3.06 1.768 4.73 5.398 4.721 8.538-.008 2.612-1.068 3.846-2.392 3.765l.002.071zm-2.524-2.97s.317.42.42.533c1.328.546 2.098-.587 2.104-2.674.007-2.1-.851-4.338-2.395-5.23-1.545-.891-2.44.335-2.447 2.485-.02 1.974.734 3.971 2.004 4.979.145-.054.314-.093.314-.093z" fill="#fff"/></svg>