<svg width="26" height="35" fill="none" xmlns="http://www.w3.org/2000/svg" viewBox="0 0 26 35"><path d="M25.434 14.7c-.066-.102-.295-.034-.295-.034l-3.247 1.244a9.99 9.99 0 0 0-.885-1.783l1.05-2.96s.13-.303 0-.37c-.132-.067-.328.135-.328.135l-1.902 1.614a8.831 8.831 0 0 0-2.624-1.95 16.722 16.722 0 0 0-1.18-.438l-.59-2.354s-.066-.236-.197-.236-.197.236-.197.236l-.393 2.051c-.427-.067-.853-.067-1.28-.067-1.31 0-2.622.27-3.803.807-.459.202-.918.471-1.344.774-.066.067-.131.101-.197.168-.394-1.043-.721-1.883-.754-2.152.36-.404.623-.909.787-1.447.13-.504.13-1.076-.066-1.58-.131-.404-.36-.74-.328-1.01 0-.134.066-.303.164-.403a.495.495 0 0 0-.393-.404c-.164 0-.328 0-.492.034-.033-.068-.131-.068-.066-.337.099-.403.853-.605 1.476-.84.754-.27 1.246-.976 1.246-1.817A1.553 1.553 0 0 0 8.809.168a1.701 1.701 0 0 1-.754.774c-.263.134-.59.202-.886.134C7.235.64 7.04.202 6.645 0a1.24 1.24 0 0 1-1.18.47C4.84.438 4.774.304 3.89.304c-1.279 0-2.328.773-2.459 1.95-.098.673.033 1.279.36 1.783-.229.169-.426.37-.59.572-.163-.202-.459-.202-.655-.033.065.168.065.37.032.538-.032.202-.524 1.143-.557 1.883a2.37 2.37 0 0 0 1.213 2.389.577.577 0 0 0-.065.605c.098.168.262.27.426.236a.577.577 0 0 0-.098.638c.098.27.426.673.688.673 0 .337.066.673.131 1.01-.13.201-.196.403-.164.638 0 .303.197.606.492.673.033.168.131.303.197.438.098.134.23.269.36.37.197.134.427.235.69.235.196 0 .426 0 .622-.034 0 .067.033.807.066 1.615a19.898 19.898 0 0 0-1.017 6.492c0 4.271 1.18 8.072 3.443 10.494.132.168.296.303.492.404a37.026 37.026 0 0 1 1.771-2.657c.295-.37.59-.74.918-1.077.525-.47 1.05-.908 1.541-1.278a12.377 12.377 0 0 1 4.493-2.018c-1.705.908-2.656 1.379-4.263 2.792a15.915 15.915 0 0 0-3.738 4.642c.262.235.557.37.918.403.23-.269 1.443-2.556 3.279-4.373 3.738-3.565 8.132-4.406 10.427-4.372.131-1.01.197-2.018.197-3.028 0-1.614-.164-3.262-.525-4.843l2.722-3.128c.066.067.262-.101.197-.236z" fill="#000"/><path d="M4.972 16.195a2.43 2.43 0 0 0-.95-.302c-.328 0-.656.1-.951.269a.324.324 0 0 1-.066-.437c.066-.202.197-.236.197-.236l-.099-1.783c.197-.134.394-.269.623-.403.132-.034.197-.169.197-.303.262.202.525.47.721.74.164.236.263.505.263.774.033.336 0 .672-.033.975.098.101.197.168.23.336-.033.169-.066.303-.132.37zm15.904 5.584a3.664 3.664 0 0 0-.656-1.514l4.132-1.883-3.476 3.397zM9.498 14.716l3.508 3.262c-.426.27-.787.673-.984 1.144l-2.524-4.406zm2.065 6.458a1.512 1.512 0 0 0-.196.538c-.033.168-.033.37 0 .538l-1.083-.774a7.28 7.28 0 0 0-.065-.874V20.5l1.344.673z" fill="#fff"/><path d="M5.629 16.596c-.066-.135-.361-6.761-.394-6.997l.36-.269v-.067c-.229 0-.458-.068-.622-.236L4.874 7.01c-.295 0-.59-.1-.852-.269-.23-.168-.262-.505-.131-.74.36.168.721.27 1.115.27.098 0 .295.2.393.268.098.067.328.168.46.202.13.034.163.27.163.336 0 .068 3.246 8.611 3.28 8.712.032.101.229 1.514.261 1.648.164.471.361.909.59 1.346-.655.034-1.245.336-1.704.807a6.1 6.1 0 0 0-1.18 2.355c0-.303-1.575-5.214-1.64-5.348zm4.098 8.14c-.098 1.143-.393 2.253-.918 3.262-.295.538-1.147 1.581-1.443 1.985.328-.64.558-2.254.558-3.465 0-.807-.262-2.556-.033-3.733.23-1.245.558-1.951 1.377-2.725.689-.605 1.607-.84 2.492-.572l.984 1.918c-.59-.135-1.18 0-1.705.37-.885.672-1.18 1.614-1.312 2.96z" fill="#fff"/><path d="M9.826 28.36c.295-.875.492-1.75.656-2.658.098-.673.23-1.648 1.016-2.321.36-.27.82-.37 1.279-.303l1.115 2.321c.131.235.393.37.656.303-1.082.37-3.706 1.648-4.722 2.657zm9.476-7.434c-.13.235-.13.538 0 .74l.689 1.345c.131.37.295.74.492 1.076h1.016c-.393-.908-1.278-2.623-1.278-2.623l-.033-1.346c-.361.202-.656.505-.886.808zm-4.754-7.4c.59-.068 1.18 0 1.738.168L15.269 7.84l-.721 5.684zm-8.493-5.45c-.033-.067-.066-.302-.164-.336-.098-.034-.328-.168-.46-.202-.13-.033-.294-.269-.393-.269-.393 0-.754-.1-1.115-.269a.576.576 0 0 0 .099.74c.262.168.525.27.852.27l.099 2.017c.164.168.393.27.656.27v.067l-.361.269c0 .235.328 6.861.393 6.996.066.135 1.64 5.045 1.673 5.348a5.313 5.313 0 0 1 1.18-2.354c.46-.471 1.05-.774 1.705-.808a9.797 9.797 0 0 1-.59-1.345c0-.1-.197-1.547-.262-1.648-.066-.101-3.28-8.645-3.312-8.746z" fill="#fff"/><path d="M4.022 20.29c.557-.034 1.147.168 1.541.605.066-.302-.066-.639-.295-.84a1.917 1.917 0 0 0-1.279-.37c-.393 0-.787.1-1.115.37-.23.201-.328.504-.23.807.033-.27.624-.572 1.378-.572zm-1.64-4.877a1.55 1.55 0 0 0 .23.942c.098.134.295.37.459.37.23 0 .426-.471.984-.438.36 0 .557.505.852.539.23 0 .328-.202.59-.236.263-.034.263.067.394.202.098-.236.295-.404.492-.538.36-.27 1.574-.539 2.098-1.01.23-.268.328-.639.23-.975-.328.37-.787.572-1.279.605-.393 0-.787-.067-1.148-.235A.74.74 0 0 0 6.35 14c-.394.1-.787.202-1.213.168-.295 0-.853-.134-1.312-.1-.754 0-1.377.571-1.443 1.345zM4.054 7.38c2.099.033 3.05 1.042 3.083 1.85.098-.236.098-.505.065-.74 0-.203-.328-.842-.328-1.044 0-.168.033-.37.066-.538-.131.034-.59.202-.787.067-.197-.168-.066-.605-.36-.706-.296-.1-.722.236-.985.202C4.546 6.437 4.284 6 3.988 6c-.294 0-.426.37-.786.437-.295.068-.623-.1-.787-.1-.164 0-.295.168-.361.336s-.197.302-.36.336c-.165.034-.427-.1-.525-.067.098.235.13.47.065.706a3.283 3.283 0 0 0-.36.942c0 .235.065.47.163.673-.065-1.144 1.214-1.918 3.017-1.884zm-1.311 4.136c-.263.101-.46.303-.59.539.065.269.196.504.393.672.065-.202.164-.403.328-.538.13-.067.23-.168.36-.202.099-.033.164-.134.132-.235 0-.101-.033-.202-.066-.303.098 0 .295 0 .36-.1a.579.579 0 0 0 .1-.337c0-.135-.066-.168-.165-.168H2.94l.361-.168c.066-.034.098-.101.131-.202a.84.84 0 0 0 0-.404c-.459.067-.918.27-1.279.538l.132.37h-.296c-.032.202-.032.438.066.64.23-.068.46-.068.689-.102zm17.215 8.544c-.066-.27-.689-1.076-1.804-1.917-.852-.673-2.131-1.346-3.18-1.346-1.771 0-2.493 1.245-2.624 1.884-.065.336-.065.706.033 1.043-.23.168-.393.437-.426.74a.945.945 0 0 0 .164.672c.032-.269.13-.572.295-.773.197-.202.393-.37.656-.471l.033.504c-.23.135-.492.404-.525.572l.033.841.59-.37.131.235-.23 1.447.328-.067.623.269-.557.504v.202c.066-.1.197-.134.295-.1.262.067.525.134.754.268l-.033.135h-1.082c-.032.134.099.269.164.302.131-.033.23-.1.361-.1.066 0 .262.067.426.067l-.164.235c-.098.068-.196.068-.262.034-.098-.034-.197.134-.197.235 0 .135.033.27.066.404.098.471.557.37.623.37.426-.1.82-.235 1.246-.404l-.918 1.312.393 1.413a21.61 21.61 0 0 1 4.361-1.244c-.23-.37-.262-.505-.491-1.043l-.984-2.355.131-.336c.295.034.557-.068.787-.27.23-.201.426-.437.59-.706a.341.341 0 0 0-.393.034c-.131.067-.23.235-.394.168-.164-.067-.098-.269-.065-.47.032-.203-.197-.169-.361-.034-.262.134-.59.1-.754-.135a12.565 12.565 0 0 0-1.64-1.345c-.557-.303-1.213-.438-1.836-.337-.328.068-.525.202-.656.135l-.393-.64.065-.033c.131.067.263.168.46.101a4.23 4.23 0 0 1 1.278-.202c.754.034 1.509.168 2.197.471.033.538 1.05 1.211 1.541 1.278.295.034.623-.033.886-.201l-1.05-.909.525-.672s.853.84.984 1.009a.837.837 0 0 0 0-.404zm-6.132 1.076c.262-.134.557-.269.852-.336.623-.134 1.28.235 1.771.64l-.098.134-.689.168a.925.925 0 0 0-.656-.168.89.89 0 0 0-.426.1l.131.236-.328.067a1.29 1.29 0 0 0-.557-.47v-.37zm-1.05-1.614c-.163-.606.296-1.245.525-1.446l.328.807c-.295.168-.59.403-.852.639zm3.149-.673c-.328-.235-1.378-.168-1.804-.067l-.328-.942a2.139 2.139 0 0 1 1.115-.303c.426 0 .853.101 1.213.27l-.196 1.042zm2.098.942a11.64 11.64 0 0 0-1.574-.807l.394-1.01c.59.337 1.147.673 1.672 1.077l-.492.74zm-.131-2.657c.525.302.984.639 1.443 1.042l2.098-4.641-3.541 3.599z" fill="#fff"/></svg>