<svg width="30" height="30" fill="none" xmlns="http://www.w3.org/2000/svg" viewBox="0 0 30 30"><path d="M14.922 29.752c8.216 0 14.876-6.66 14.876-14.876S23.138 0 14.922 0C6.707 0 .047 6.66.047 14.876s6.66 14.876 14.875 14.876z" fill="#fff"/><path d="M16.226 19.247V15.72s.008-.642-.155-.898c-.169-.258-.66-.258-.66-.258H.057c-.003.103-.008.206-.008.312 0 2.53.634 4.909 1.746 6.996h13.402c.905-.142 1.029-.282 1.029-2.625zM16.086 13.086c.17-.264.13-.74.14-.988l-.008-1.947c.01-1.981.028-2.442-.119-2.78-.114-.264-.494-.316-.784-.34H2.291L2.29 7.03A14.785 14.785 0 0 0 .127 13.35l15.29.005c-.003 0 .509-.026.67-.269zM26.253 13.337c-.275.052-.549.155-.549.287 0 .077.137.158.383.207 1.58.323 2.985 1.133 3.636 2.532a14.88 14.88 0 0 0-.683-6.173c-.062 2.107-1.952 2.943-2.787 3.147zM21.38 23.082H2.516c2.664 4.016 7.224 6.667 12.406 6.667 5.615 0 10.503-3.111 13.035-7.704a5.466 5.466 0 0 1-1.048.478c-1.725.572-3.858.559-5.529.559zM27.155 6.781c.147.085.287.176.42.274C24.951 2.822 20.267 0 14.921 0c-4.802 0-9.07 2.278-11.79 5.811h18.346c2.628 0 4.472.292 5.677.97zM21.902 14.521c-1.505 0-1.505.026-1.505 1.066v3.07c0 2.03.275 3.305 2.408 3.305 2.025 0 3.093-1.485 3.093-3.59 0-2.263-1.368-3.85-3.995-3.85zM21.848 13.378c2.354 0 3.228-1.43 3.228-2.992 0-2.263-1.477-3.383-3.365-3.383-1.285 0-1.314.207-1.314 1.353v4.293c0 .675.029.729 1.451.729z" fill="#025AAA"/><path d="M26.087 13.831c-.246-.052-.383-.13-.383-.207 0-.13.274-.235.549-.287.835-.204 2.725-1.04 2.787-3.147a14.776 14.776 0 0 0-1.466-3.137 4.318 4.318 0 0 0-.419-.275c-1.205-.677-3.05-.97-5.677-.97H3.132c-.3.391-.582.797-.846 1.216l.003.003H15.31c.29.023.67.072.784.338.147.34.13.8.119 2.78l.008 1.948c-.008.248.033.724-.14.988-.158.246-.67.269-.67.269l-15.29-.005c-.04.4-.062.804-.07 1.213h15.355s.491 0 .66.258c.165.256.155.898.155.898v3.527c0 2.343-.125 2.486-1.03 2.623H1.795c.222.416.463.82.724 1.213h18.864c1.67 0 3.804.013 5.529-.559a5.394 5.394 0 0 0 1.047-.478 14.758 14.758 0 0 0 1.767-5.682c-.654-1.394-2.059-2.204-3.639-2.527zm-5.69-5.475c0-1.146.029-1.353 1.314-1.353 1.888 0 3.365 1.12 3.365 3.383 0 1.562-.877 2.992-3.228 2.992-1.422 0-1.45-.051-1.45-.729V8.356zm2.408 13.609c-2.133 0-2.408-1.275-2.408-3.305v-3.07c0-1.04 0-1.066 1.506-1.066 2.627 0 3.995 1.588 3.995 3.851 0 2.105-1.068 3.59-3.093 3.59z" fill="#fff"/></svg>