<svg width="37" height="32" fill="none" xmlns="http://www.w3.org/2000/svg" viewBox="0 0 37 32"><path fill-rule="evenodd" clip-rule="evenodd" d="M.17 11.95c-.02.01-.05.01-.06.01-.06 0-.11-.05-.11-.1v-.05l.02-.01C3.06 4.85 10.01 0 18.07 0s15.01 4.86 18.06 11.81v.01c.02.01.02.02.02.04 0 .06-.05.11-.11.11-.01 0-.03-.01-.05-.01l-.02-.01c-1.4-.82-3.36-1.33-5.53-1.33-2.49 0-4.7.68-6.11 1.74l-.02.01c-.02.01-.03.02-.06.02s-.05-.01-.06-.02l-.02-.01c-1.4-1.06-3.61-1.74-6.12-1.74-2.49 0-4.7.68-6.11 1.74l-.02.01c-.02.01-.03.02-.06.02s-.05-.01-.06-.02l-.01-.01c-1.41-1.06-3.63-1.74-6.12-1.74-2.15 0-4.09.5-5.49 1.32" fill="#F40105"/><path fill-rule="evenodd" clip-rule="evenodd" d="M19.08 12.1v-.02c0-.05-.03-.09-.08-.09-.32-.04-.65-.06-.98-.06-.27 0-.55.01-.82.04-.05 0-.08.04-.08.09V28.17c0 .92-.76 1.67-1.67 1.67-.71 0-1.33-.46-1.56-1.11a.983.983 0 0 0-.93-.67.99.99 0 0 0-.99.98c0 .09.01.18.05.27v.01a3.626 3.626 0 0 0 3.44 2.49c2 0 3.63-1.63 3.63-3.63V12.1h-.01z" fill="#F40105"/></svg>