<svg width="960" height="226" fill="none" xmlns="http://www.w3.org/2000/svg" viewBox="0 0 960 226"><path fill="#F5FCFF" d="M0 0h960v226H0z"/><g clip-path="url(#clip0)"><path opacity=".5" d="M644.5 222.14c119.57 0 216.5-6.263 216.5-13.99 0-7.726-96.93-13.989-216.5-13.989S428 200.424 428 208.15c0 7.727 96.93 13.99 216.5 13.99z" fill="#C3E1FF"/><path d="M736.943 188.547h4.843v-22.365l-2.426-2.294-2.417 2.294v22.365zM727.005 188.547h4.842v-22.365l-2.426-2.294-2.416 2.294v22.365zM717.066 188.547h4.842v-22.365l-2.426-2.294-2.416 2.294v22.365zM707.127 188.547h4.843v-22.365l-2.426-2.294-2.417 2.294v22.365zM697.188 188.547h4.843v-22.365l-2.426-2.294-2.417 2.294v22.365zM687.25 188.547h4.842v-22.365l-2.416-2.294-2.426 2.294v22.365zM677.311 188.547h4.843v-22.365l-2.417-2.294-2.426 2.294v22.365zM667.373 188.547h4.842v-22.365l-2.416-2.294-2.426 2.294v22.365zM657.434 188.547h4.842v-22.365l-2.416-2.294-2.426 2.294v22.365zM647.495 188.547h4.843v-22.365l-2.417-2.294-2.426 2.294v22.365zM637.556 188.547h4.843v-22.365l-2.417-2.294-2.426 2.294v22.365zM627.618 188.547h4.842v-22.365l-2.416-2.294-2.426 2.294v22.365zM617.679 188.547h4.842v-22.365l-2.416-2.294-2.426 2.294v22.365zM607.74 188.547h4.843v-22.365l-2.416-2.294-2.427 2.294v22.365zM597.801 188.547h4.843v-22.365l-2.416-2.294-2.427 2.294v22.365zM587.862 188.547h4.843v-22.365l-2.416-2.294-2.427 2.294v22.365zM577.924 188.547h4.852v-22.365l-2.426-2.294-2.426 2.294v22.365zM567.985 188.547h4.852v-22.365l-2.426-2.294-2.426 2.294v22.365zM558.046 188.547h4.853v-22.365l-2.426-2.294-2.427 2.294v22.365zM548.107 188.547h4.853v-22.365l-2.426-2.294-2.427 2.294v22.365zM538.169 188.547h4.853v-22.365l-2.427-2.294-2.426 2.294v22.365zM528.23 188.547h4.853v-22.365l-2.427-2.294-2.426 2.294v22.365z" fill="#96A6F6"/><path d="M518.292 188.547h4.852v-22.365l-2.426-2.294-2.426 2.294v22.365zM508.363 188.547h4.842v-22.365l-2.426-2.294-2.416 2.294v22.365zM498.424 188.547h4.842v-22.365l-2.426-2.294-2.416 2.294v22.365zM488.485 188.547h4.843v-22.365l-2.426-2.294-2.417 2.294v22.365zM478.546 188.547h4.843v-22.365l-2.426-2.294-2.417 2.294v22.365zM468.608 188.547h4.842v-22.365l-2.426-2.294-2.416 2.294v22.365z" fill="#9AC0E2"/><path d="M744.933 169.756H466.608v2.985h278.325v-2.985zM744.933 179.45H466.608v2.985h278.325v-2.985z" fill="#9AC0E2"/><path d="M529.093 184.963h247.311v-59.765H529.093v59.765z" fill="#D6ECFF"/><path d="M522.157 188.551h264.651v-4.538H522.157v4.538z" fill="#9AC0E2"/><path d="M538.321 73.557h122.351l16.162 51.632H522.149l16.172-51.632z" fill="#84ADD1"/><path d="M771.024 73.557l15.776 51.632H676.834l15.776-51.632h78.414z" fill="#9AC0E2"/><path opacity=".4" d="M648.51 73.557l-15.776 51.632h2.924l15.867-51.632h-3.015z" fill="#2762AA"/><path d="M740.68 184.002h22v-41.603h-22v41.603z" fill="#9AC0E2"/><path d="M566.98 103.911h83.317V42.949l-41.664-32.192-41.653 32.192v60.962z" fill="#D6ECFF"/><path d="M561.244 49.04c.467 0 .944-.153 1.34-.468l46.06-36.668 46.059 36.668a2.149 2.149 0 0 0 3.025-.345 2.15 2.15 0 0 0-.345-3.025L609.974 7.467a2.14 2.14 0 0 0-2.681 0l-47.399 37.735a2.15 2.15 0 0 0-.345 3.025 2.162 2.162 0 0 0 1.695.812z" fill="#9AC0E2"/><path d="M639.059 183.999h83.316V42.949l-41.663-32.192-41.653 32.192v141.05z" fill="#EBF6FF"/><path d="M633.323 49.04c.467 0 .944-.153 1.34-.468l46.059-36.668 46.06 36.668a2.149 2.149 0 0 0 3.025-.345 2.15 2.15 0 0 0-.345-3.025l-47.41-37.735a2.138 2.138 0 0 0-2.68 0l-47.399 37.735a2.148 2.148 0 0 0-.345 3.025 2.177 2.177 0 0 0 1.695.812z" fill="#9AC0E2"/><path d="M708.63 56.897h-55.826v36.617h55.826V56.898z" fill="#D6ECFF"/><g opacity=".7" fill="#fff"><path opacity=".7" d="M686.306 93.87h5.492l-13.167-37.694h-5.492l13.167 37.694zM678.022 93.87h3.705L668.55 56.176h-3.696l13.168 37.694zM675.037 93.87h1.594l-13.167-37.694h-1.604l13.177 37.694z"/></g><path d="M651.373 55.466h58.688v39.49h-58.688v-39.49zm57.257 1.431h-55.826v36.618h55.826V56.897z" fill="#9AC0E2"/><path d="M697.209 56.177h-1.431v38.05h1.431v-38.05zM665.657 56.177h-1.431v38.05h1.431v-38.05z" fill="#9AC0E2"/><path d="M709.34 74.49h-57.257v1.432h57.257V74.49z" fill="#9AC0E2"/><path d="M627.942 56.898h-38.608v36.617h38.608V56.899z" fill="#D6ECFF"/><path opacity=".7" d="M619.699 93.87h5.503l-13.178-37.693h-5.492l13.167 37.694zM611.425 93.87h3.696l-13.167-37.693h-3.706l13.177 37.694zM608.431 93.87h1.604l-13.178-37.693h-1.604l13.178 37.694z" fill="#fff"/><path d="M587.893 55.466h41.481v39.49h-41.481v-39.49zm40.049 1.431h-38.607v36.618h38.607V56.897z" fill="#9AC0E2"/><path d="M609.354 56.177h-1.431v38.05h1.431v-38.05z" fill="#9AC0E2"/><path d="M691.524 136.763h-38.608v36.618h38.608v-36.618z" fill="#D6ECFF"/><path opacity=".7" d="M682.408 174.314h5.502l-13.177-37.694h-5.492l13.167 37.694zM674.124 174.314h3.705l-13.177-37.694h-3.695l13.167 37.694zM671.139 174.314h1.604l-13.177-37.694h-1.604l13.177 37.694z" fill="#fff"/><path d="M651.475 135.331h41.48v39.491h-41.48v-39.491zm40.049 1.431h-38.608v36.618h38.608v-36.618z" fill="#9AC0E2"/><path d="M672.936 136.052h-1.432v38.059h1.432v-38.059zM639.059 103.91h83.317l6.649 21.279h-96.616l6.65-21.279z" fill="#9AC0E2"/><path d="M618.735 136.823h-75.307v51.724h75.307v-51.724z" fill="#D6ECFF"/><path d="M541.996 188.547h2.873v-50.282h72.434v50.282h2.873v-53.155h-78.18v53.155z" fill="#9AC0E2"/><path d="M544.925 141.925h72.322v-1.614h-72.322v1.614zM544.925 145.514h72.322V143.9h-72.322v1.614zM544.925 149.102h72.322v-1.615h-72.322v1.615zM544.925 152.681h72.322v-1.614h-72.322v1.614zM544.925 156.269h72.322v-1.615h-72.322v1.615zM544.925 159.857h72.322v-1.614h-72.322v1.614zM544.925 163.445h72.322v-1.614h-72.322v1.614zM544.925 167.034h72.322v-1.614h-72.322v1.614zM544.925 170.612h72.322v-1.614h-72.322v1.614zM544.925 174.201h72.322v-1.614h-72.322v1.614zM544.925 177.79h72.322v-1.614h-72.322v1.614zM544.925 181.378h72.322v-1.614h-72.322v1.614zM544.925 184.956h72.322v-1.614h-72.322v1.614zM544.925 188.545h72.322v-1.614h-72.322v1.614z" fill="#9AC0E2"/><path d="M515.54 179.878h-9.644a.633.633 0 0 1-.63-.63v-.274c0-.345.284-.629.63-.629h9.644c.345 0 .629.284.629.629v.274c0 .345-.284.63-.629.63zM516.108 184.436h-10.212a.633.633 0 0 1-.63-.63c0-.345.284-.629.63-.629h10.212c.346 0 .63.284.63.629 0 .345-.284.63-.63.63z" fill="#FFE3D4"/><path d="M517.144 181.147h-10.213a.633.633 0 0 1-.629-.63c0-.345.284-.629.629-.629h10.213c.345 0 .629.284.629.629 0 .345-.274.63-.629.63z" fill="#D3483C"/><path d="M517.987 183.167h-10.213a.633.633 0 0 1-.629-.63v-.761c0-.345.284-.63.629-.63h10.213c.345 0 .629.285.629.63v.761c0 .345-.274.63-.629.63z" fill="#E6BF32"/><path d="M517.296 178.416h-10.212a.633.633 0 0 1-.63-.63v-.761c0-.345.284-.629.63-.629h10.212c.346 0 .63.284.63.629v.761c0 .345-.284.63-.63.63z" fill="#324ACC"/><path d="M604.978 174.222s-1.665-3.604 0-5.654c1.665-2.051 3.229-1.614 4.802-3.472 1.574-1.858 2.599-4.112 4.579-3.158 1.979.955 1.979 4.711 1.025 6.701-.954 1.99-2.599 2.934-5.259 3.898-2.66.954-3.462 1.614-3.462 1.614l-1.685.071z" fill="#778200"/><path d="M603.547 174.132s-1.584-.122-3.482-2.65c-1.898-2.518-.325-5.218-.69-7.482-.366-2.254-3.158-3.584-2.691-5.746.467-2.162 3.168-1.716 5.371-.223 2.193 1.492 4.588 4.548 4.609 7.532.02 2.975-.518 3.472-.762 5.259-.254 1.787-.264 2.538-.264 2.538l-2.091.772z" fill="#778200"/><path d="M599.06 173.664c-.366.294.812 6.03 1.98 7.634.751 1.036 2.253 1.858 4.101 1.868 3.106.031 4.051-.853 4.65-1.36 1.472-1.269 2.598-6.904 2.182-8.142-.233-.701-11.817-.853-12.913 0z" fill="#D3483C"/><path d="M612.491 207.906c-.223.315-6.02.488-13.086.549-11.309.101-21.887.04-22.04-.346-.243-.619-.497-24.212-.253-24.75.101-.223 9.908-.812 22.334-.924 7.258-.061 13.207.224 13.279.396.172.457.111 24.608-.234 25.075z" fill="#F5A86C"/><path d="M599.852 208.455c6.863-.061 12.426-.234 12.639-.538.345-.477.406-24.619.234-25.075-.071-.183-6.02-.467-13.279-.396-.223 0-.447 0-.67.01l1.076 25.999z" fill="#DD8346"/><path d="M601.202 182.851c0-.173-.274-.183-.274 0-.051 8.386.152 16.771.294 25.157 0 .172.274.182.274 0-.142-8.386-.345-16.771-.294-25.157zM587.923 184.699a.325.325 0 0 0-.152-.112l-.061-.03c-.274-.071-.599.091-.64.385-.03.234.143.447.346.528.071.061.162.082.274.061a.51.51 0 0 0 .314-.284.556.556 0 0 0-.081-.548z" fill="#CC8869"/><path d="M638.967 207.602c-.132.183-3.584.345-7.797.436-6.74.153-15.42.163-15.512-.06-.152-.366-.477-14.843-.335-15.167.061-.132 8.832-.264 15.654-.285 4.335-.01 7.878.021 7.919.122.102.264.274 14.659.071 14.954z" fill="#F5A86C"/><path d="M632.043 192.516l.721 15.482c3.452-.092 6.081-.234 6.203-.396.203-.284.031-14.68-.081-14.954-.031-.101-3.015-.142-6.843-.132z" fill="#DD8346"/><path d="M637.749 192.588h-10.213a.633.633 0 0 1-.629-.63v-.761c0-.345.284-.63.629-.63h10.213c.345 0 .629.285.629.63v.761c0 .345-.284.63-.629.63z" fill="#D3483C"/><path d="M636.216 185.999h-9.644a.633.633 0 0 1-.63-.63v-.274c0-.345.285-.629.63-.629h9.644c.345 0 .63.284.63.629v.274a.615.615 0 0 1-.63.63z" fill="#A04490"/><path d="M637.059 190.557h-10.213a.634.634 0 0 1-.63-.63c0-.345.285-.629.63-.629h10.213c.345 0 .629.284.629.629a.62.62 0 0 1-.629.63z" fill="#FFE3D4"/><path d="M637.241 187.268h-10.213a.633.633 0 0 1-.629-.63c0-.345.284-.629.629-.629h10.213c.345 0 .63.284.63.629a.62.62 0 0 1-.63.63z" fill="#1A6885"/><path d="M637.81 189.299h-10.213a.633.633 0 0 1-.629-.63v-.761c0-.345.284-.63.629-.63h10.213c.345 0 .629.285.629.63v.761a.62.62 0 0 1-.629.63z" fill="#E6BF32"/><path d="M604.014 171.796c-.64-.903-1.31-1.837-1.635-2.903-.355-1.148-.101-2.193.153-3.32.193-.863.284-1.716.01-2.569-.305-.954-.924-1.766-1.523-2.548-.102-.142-.345 0-.233.142.67.874 1.39 1.807 1.614 2.914.223 1.157-.254 2.254-.427 3.391-.294 1.939.741 3.533 1.817 5.045.082.132.325 0 .224-.152zM613.608 163.715c-.122 2.406-1.624 4.061-3.706 5.086-1.543.752-3.35 1.574-3.725 3.432-.041.172.223.243.264.071.497-2.396 3.289-2.843 5.004-4.061 1.472-1.046 2.346-2.731 2.447-4.528-.01-.172-.274-.172-.284 0z" fill="#586200"/><path d="M591.263 208.495c-.091-1.98-1.817-2.832-3.573-3.056-2.051-.253-3.371 1.797-3.371 3.564 0 1.766 1.3 2.984 3.259 3.005 2.467.03 3.766-1.746 3.685-3.513zM626.094 208.495c-.091-1.979-1.857-3.187-3.573-3.055-2.061.172-3.371 1.796-3.371 3.563 0 1.766 1.3 2.984 3.259 3.005 2.467.03 3.767-1.746 3.685-3.513z" fill="#5F3A2B"/><path d="M579.335 169.552c-.457.203-.305 1.899.599 1.899.548 0 14.111.05 14.568 0 .802-.102 1.452-1.625.254-1.899s-14.802-.274-15.421 0z" fill="#F5DFD5"/><path d="M586.106 170.974s.457 36.496.69 37.826c.153.863 1.554.609 1.736.01.183-.599-.446-37.806-.446-37.806l-1.98-.03z" fill="#F5DFD5"/><path d="M587.791 198.709s6.071 8.802 6.914 9.055c.842.264 25.491.214 25.999.193.507-.02 2.629-.162 2.66.538.05 1.127-.071 1.056-2.995 1.087-2.924.03-25.817.101-26.192.091-.528-.02-6.843-8.396-6.843-8.396l.457-2.568z" fill="#F5DFD5"/><path d="M617.272 208.11s.66-2.132 1.868-3.177c1.208-1.046 3.29-1.259 3.472-1.016.183.254-1.279.549-2.345 1.493-1.066.944-1.685 2.771-1.685 2.883.01.122-1.31-.183-1.31-.183z" fill="#F5DFD5"/><path d="M591.01 169.167c-.102.071-.356.883-.336 1.36.031.478-.131 1.219 1.077 1.219s4.7.02 4.994 0c.66-.061.62-1.351.559-1.655-.061-.305.142-.843-.67-.873-.813-.02-5.391-.213-5.624-.051zM583.7 169.167c.102.071.356.883.335 1.36-.03.478.132 1.219-1.076 1.219-1.208 0-4.7.02-4.995 0-.659-.061-.619-1.351-.558-1.655.061-.305-.142-.843.67-.873.812-.02 5.401-.213 5.624-.051z" fill="#5F3A2B"/><path d="M462.049 181.39h-.954v3.309h.954v-3.309zM462.049 169.268h-.954v-2.832a.476.476 0 1 1 .954 0v2.832z" fill="#AB5838"/><path d="M465.674 185.024h-7.401c0-.447.365-.812.812-.812h5.777c.446 0 .812.365.812.812z" fill="#AB5838"/><path d="M469.319 176.071c0 2.04-.904 3.644-2.305 4.761-1.482 1.167-3.513 1.787-5.665 1.787-1.421 0-2.731-.264-3.857-.782h-.011c-2.203-1.015-3.654-2.975-3.654-5.756 0-.944.172-1.878.477-2.762a8.995 8.995 0 0 1 1.177-2.253c1.188-1.665 2.914-2.944 4.894-3.442.314-.081.639-.142.964-.183 2.772-.335 4.69.61 5.949 2.132 1.452 1.736 2.031 4.254 2.031 6.498z" fill="#1A6885"/><path d="M459.014 179.126c-.01.69-.234 1.786-.69 2.314-.224.254-.518.396-.823.386h-.01c-2.203-1.015-3.655-2.974-3.655-5.756 0-.944.173-1.878.478-2.761a.646.646 0 0 1 .223.324c.589 1.747 4.781.874 4.314 3.107-.06.294-.406.792-.324 1.086.03.132.243.224.294.366.102.325.193.588.193.934zM460.384 167.613c-.081.843-.274 1.665-.517 2.498-.203.72-.406 1.837-1.046 2.314-.64.477-1.462-.122-2.071-.416a3.978 3.978 0 0 1-1.259-.944c1.178-1.675 2.914-2.954 4.893-3.452zM469.318 176.07c0 2.04-.903 3.644-2.304 4.761-.031-.061-.061-.132-.092-.193-.365-.335-.944-.66-1.137-.883-.456-.548-.517-1.005-1.137-1.452-.507-.365-.548-.406-.842-.964a1.413 1.413 0 0 1-.163-.386c-.02-.01-.05-.02-.091-.041-.051-.02-.934-.142-1.035-.172-.498-.193-.65-.731-.305-1.147.548-.64.233-1.716.741-2.427.264-.365.589-.558.964-.67.102-.416.346-.751.731-1.086.467-.396 2.528-1.279 2.65-1.848 1.442 1.747 2.02 4.264 2.02 6.508z" fill="#A1DCAF"/><path d="M480.668 148.457h-1.228v12.538h1.228v-12.538z" fill="#AB5838"/><path d="M505.236 159.482s3.999-4.833 3.654-5.229c-.345-.396-10.243-.193-10.791.102-.396.213-3.34 4.822-3.34 4.822s3.218 1.533 3.451 1.736c.234.203 3.747.64 4 .589.254-.041 3.026-2.02 3.026-2.02z" fill="#BF662A"/><path d="M487.369 210.12c.233.304 6.03.375 13.095.304 11.31-.112 25.857-.558 26-.954.233-.63.06-24.213-.193-24.751-.112-.223-13.898-.426-26.324-.314-7.259.071-13.198.467-13.269.639-.162.467.345 24.609.691 25.076z" fill="#F5A86C"/><path d="M498.201 210.444c.741 0 1.492-.01 2.264-.02 11.309-.112 25.857-.558 25.999-.954.233-.63.061-24.213-.193-24.751-.112-.223-13.898-.426-26.324-.314-.589.01-1.178.01-1.746.02v26.019z" fill="#DD8346"/><path d="M448.446 210.211c.193.305 5.949.315 11.989.274 9.665-.05 22.101-.436 22.223-.832.193-.629-.061-24.212-.284-24.75-.092-.224-33.786-.031-33.847.142-.132.467-.375 24.699-.081 25.166z" fill="#F5A86C"/><path d="M469.166 210.364c7.106-.152 13.411-.427 13.492-.701.193-.629-.061-24.212-.284-24.75-.041-.102-6.437-.122-13.655-.091l.447 25.542z" fill="#DD8346"/><path d="M489.927 144.427l-5.553 17.725 6.548.132 5.411-16.425s-.518-2.163-2.802-2.559c-2.274-.385-3.604 1.127-3.604 1.127z" fill="#D3483C"/><path d="M498.424 138.417l-7.086 22.648 8.365.173 6.619-20.08a2.49 2.49 0 0 0-.244-2.112c-.507-.812-1.431-1.777-3.035-2.061-2.924-.507-4.619 1.432-4.619 1.432z" fill="#324ACC"/><path d="M466.334 184.882c.233.305 6.03.376 13.095.305 11.31-.112 25.857-.559 26-.955.233-.629.06-24.212-.193-24.75-.112-.223-13.898-.426-26.324-.315-7.259.071-13.198.467-13.269.64-.172.467.335 24.598.691 25.075z" fill="#F5A86C"/><path d="M477.379 185.197c.67 0 1.35-.01 2.051-.02 11.309-.112 25.857-.558 25.999-.954.233-.63.061-24.213-.193-24.751-.112-.223-13.898-.426-26.324-.314-.518 0-1.025.01-1.533.02v26.019zM477.166 159.187s-1.391-4.67-1.665-5.086c-.274-.406-11.472.091-11.949-.03-.487-.122 2.091 5.736 2.091 5.736l11.523-.62z" fill="#DD8346"/><path d="M504.545 184.263c-5.898-.193-11.756.589-17.654.609-.172 0-.172.274 0 .274 5.888-.02 11.756-.802 17.654-.609.183.01.183-.264 0-.274z" fill="#CC8869"/><path d="M492.089 143.716c-.173-.02-.244.244-.071.264.314.041.639.091.954.132.203.03.396.051.599.081.386.061.508.163.619.477.122.356-.061.508-.243.883-.071.143-.143.295-.214.437a10.45 10.45 0 0 0-.335.822c-.477 1.3-.771 2.65-1.106 3.99-.67 2.66-1.868 5.188-2.163 7.929-.02.172.254.172.275 0 .182-1.696.731-3.29 1.269-4.894.507-1.522.903-3.065 1.299-4.629.193-.751.396-1.492.66-2.213.162-.447.345-.883.558-1.31.122-.253.295-.517.335-.802.163-1.197-1.644-1.055-2.436-1.167z" fill="#B83521"/><path d="M504.901 138.854c-.102-.589-.995-.802-1.483-.965a7.543 7.543 0 0 0-3.157-.314c-.172.02-.172.294 0 .274 1.046-.112 2.081-.031 3.086.304.264.092.65.173.863.356.477.406.345.619.142 1.218-.152.467-.406.924-.599 1.37-.822 1.909-1.431 3.899-2.081 5.878l-2.02 6.152c-.629 1.919-1.289 3.797-1.421 5.828-.01.172.264.172.274 0 .152-2.396 1.045-4.64 1.787-6.904.761-2.304 1.512-4.609 2.274-6.913.355-1.087.71-2.173 1.137-3.229.243-.609.517-1.198.781-1.796.142-.366.477-.884.417-1.259z" fill="#002C83"/><path d="M487.378 148.68c.061.224-3.299.772-6.395.772-3.097-.01-7.381-.386-8.203-.995-.091-.071-.031-.731.132-1.736.02-.091.03-.183.051-.274.538-3.157 1.929-9.147 2.72-11.492a3.17 3.17 0 0 0 .082-.234c.162-.446.294-.71.375-.741.68-.274 8.924-.182 9.198.274.03.051.071.244.132.569.01.081.03.173.051.274.396 2.365 1.238 9.045 1.634 12.071l.03.274c.122.731.183 1.198.193 1.238z" fill="#E6BF32"/><path d="M485.531 135.087c-1.36.071-2.731.02-4.071.01-1.665-.01-3.34-.031-5.005-.102a9.81 9.81 0 0 1-.771-.051c.03-.081.061-.162.081-.233.609.061 1.248.03 1.776.051 1.401.04 2.792.05 4.193.061 1.229 0 2.498.05 3.746-.011.021.082.041.183.051.275zM487.206 147.432c-2.477.589-5.116.7-7.654.589-2.264-.092-4.518-.477-6.63-1.3.021-.091.031-.182.051-.274 2.173.863 4.497 1.229 6.832 1.31 2.447.081 4.985-.02 7.381-.599 0 .101.01.193.02.274z" fill="#fff"/><path d="M801.317 211.541h-6.903c-2.214 0-4.031-1.939-4.031-4.304v-17.979c0-2.366 1.817-4.305 4.031-4.305h6.903c2.213 0 4.03 1.939 4.03 4.305v17.979c0 2.365-1.817 4.304-4.03 4.304zM818.048 211.541h-6.833c-2.193 0-3.989-1.939-3.989-4.304v-17.979c0-2.366 1.796-4.305 3.989-4.305h6.833c2.192 0 3.989 1.939 3.989 4.305v17.979c0 2.365-1.797 4.304-3.989 4.304zM721.746 211.774h-6.914c-2.223 0-4.04-1.939-4.04-4.304v-17.979c0-2.365 1.817-4.304 4.04-4.304h6.914c2.223 0 4.04 1.939 4.04 4.304v17.979c0 2.365-1.817 4.304-4.04 4.304zM738.649 211.774h-6.914c-2.223 0-4.04-1.939-4.04-4.304v-17.979c0-2.365 1.817-4.304 4.04-4.304h6.914c2.223 0 4.04 1.939 4.04 4.304v17.979c0 2.365-1.817 4.304-4.04 4.304z" fill="#192D4B"/><path d="M700.478 46.288L707.33 176.1l.914 17.248h116.097l.498-48.892 1.025-100.91-125.386 2.74z" fill="#898989"/><path d="M822.422 156.65l-1.035-109.083-115.61 3.188 2.853 105.895h113.792z" fill="#DADADA"/><path d="M819.803 152.66l-1.269-99.824-109.945 2.01 2.974 98.88 108.24-1.066z" fill="#1B3A52"/><path d="M733.979 172.619h-22.202a.455.455 0 0 1-.457-.457v-6.233c0-.254.203-.457.457-.457h22.202c.254 0 .457.203.457.457v6.233a.455.455 0 0 1-.457.457zM820.981 172.619h-22.202a.455.455 0 0 1-.457-.457v-6.233c0-.254.203-.457.457-.457h22.202c.254 0 .457.203.457.457v6.233a.455.455 0 0 1-.457.457z" fill="#D8233D"/><path d="M784.15 172.385h-33.075v8.609h33.075v-8.609z" fill="#fff"/><path d="M831.996 186.496H700.782v7.848h131.214v-7.848zM824.676 52.197l24.182-4.63v115.854l-23.035-6.771-1.147-104.453z" fill="#B2B2B2"/><path d="M823.062 52.197l24.182-4.63v115.854l-23.035-6.771-1.147-104.453z" fill="#DBDBDB"/><path d="M701.625 52.5L677.26 49.02l5.492 115.732 22.68-7.868-3.807-104.382z" fill="#B2B2B2"/><path d="M703.239 52.42l-24.364-3.473 5.492 115.722 22.679-7.857-3.807-104.393z" fill="#DBDBDB"/><path d="M704.203 83.9a.96.96 0 0 1-.995-.903l-.558-12.203a.96.96 0 0 1 .904-.994.96.96 0 0 1 .995.903l.558 12.203a.94.94 0 0 1-.904.995z" fill="#A09F9F"/><path d="M706.305 156.649l118.371.691v2.314l-118.229-.264-.142-2.741z" fill="#777776"/><path d="M706.102 135.006c-.518.02-.975-.386-.995-.903l-.558-12.203a.958.958 0 0 1 .903-.995c.518-.02.975.386.995.904l.558 12.202a.945.945 0 0 1-.903.995zM823.549 83.403a.944.944 0 0 0 .934-.964l-.162-12.213a.945.945 0 0 0-.964-.934.944.944 0 0 0-.934.965l.162 12.212c0 .518.437.945.964.934zM824.382 138.122a.944.944 0 0 0 .934-.964l-.162-12.213a.945.945 0 0 0-.965-.934.96.96 0 0 0-.944.964l.163 12.213a.96.96 0 0 0 .974.934z" fill="#A09F9F"/><path d="M715.564 166.091h-3.584v6.01h3.584v-6.01zM820.433 166.05h-3.584v6.01h3.584v-6.01z" fill="#E94642"/><path d="M802.089 154.375l3.076-63.023-29.938-.782-.102 64.516 26.964-.711z" fill="#F5A86C"/><path d="M775.226 90.57l-46.932 1.107 4.578 63.023 42.253.386.101-64.516z" fill="#DD8346"/><path opacity=".5" d="M792.921 155.451l3.756-64.322-6.071-.152v64.738l2.315-.264z" fill="#FFF6D6"/><path opacity=".5" d="M803.773 119.757l-28.547 1.441-44.861-.964.325 4.365 44.536 2.305 28.547-3.574v-3.573z" fill="#FFF6D6"/><path opacity=".5" d="M753.765 91.078l2.863 65.206-3.604-.244-5.238-64.82 5.979-.142z" fill="#FFF6D6"/><path d="M787.652 147.36l-.548 5.838-10.152.873v-5.259l10.7-1.452z" fill="#FFF6D6"/><path d="M781.115 133.34c6.167 0 11.167-5 11.167-11.167s-5-11.167-11.167-11.167c-6.168 0-11.167 5-11.167 11.167s4.999 11.167 11.167 11.167z" fill="#FFA49F"/><path d="M780.658 133.645c6.167 0 11.167-5 11.167-11.167 0-6.168-5-11.167-11.167-11.167-6.168 0-11.167 4.999-11.167 11.167 0 6.167 4.999 11.167 11.167 11.167z" fill="#E63C2F"/><path d="M780.658 129.502a7.025 7.025 0 1 0 0-14.05 7.025 7.025 0 0 0 0 14.05z" fill="#9B0001"/><path d="M785.541 117.432a6.98 6.98 0 0 1 1.645 4.507 7.028 7.028 0 0 1-7.026 7.025 6.97 6.97 0 0 1-4.883-1.979 7.019 7.019 0 0 0 12.406-4.508 7.004 7.004 0 0 0-2.142-5.045z" fill="#87040B"/><path d="M778.759 132.681c6.168 0 11.168-5 11.168-11.167 0-6.168-5-11.167-11.168-11.167-6.167 0-11.167 4.999-11.167 11.167 0 6.167 5 11.167 11.167 11.167z" fill="#FFA49F"/><path d="M778.302 132.986c6.168 0 11.168-5 11.168-11.168 0-6.167-5-11.167-11.168-11.167-6.167 0-11.167 5-11.167 11.167 0 6.168 5 11.168 11.167 11.168z" fill="#E63C2F"/><path d="M778.302 128.843a7.026 7.026 0 1 0 0-14.051 7.026 7.026 0 0 0 0 14.051z" fill="#9B0001"/><path d="M783.185 116.772a6.978 6.978 0 0 1 1.645 4.508 7.027 7.027 0 0 1-7.025 7.025 6.967 6.967 0 0 1-4.883-1.98 7.016 7.016 0 0 0 5.38 2.518 7.028 7.028 0 0 0 7.026-7.025c0-1.98-.823-3.766-2.143-5.046z" fill="#87040B"/><path d="M770.648 132.529c6.167 0 11.167-5 11.167-11.168 0-6.167-5-11.167-11.167-11.167-6.168 0-11.168 5-11.168 11.167 0 6.168 5 11.168 11.168 11.168z" fill="#FFA49F"/><path d="M770.181 132.833c6.167 0 11.167-4.999 11.167-11.167 0-6.167-5-11.167-11.167-11.167-6.168 0-11.167 5-11.167 11.167 0 6.168 4.999 11.167 11.167 11.167z" fill="#E63C2F"/><path d="M770.181 128.691a7.025 7.025 0 1 0 0-14.05 7.025 7.025 0 0 0 0 14.05z" fill="#9B0001"/><path d="M775.064 116.62a6.98 6.98 0 0 1 1.644 4.508 7.027 7.027 0 0 1-7.025 7.025 6.972 6.972 0 0 1-4.883-1.98 7.018 7.018 0 0 0 12.406-4.507c0-1.98-.822-3.767-2.142-5.046z" fill="#87040B"/><path d="M776.881 132.497c6.168 0 11.168-4.999 11.168-11.167 0-6.167-5-11.167-11.168-11.167-6.167 0-11.167 5-11.167 11.167 0 6.168 5 11.167 11.167 11.167z" fill="#FFA49F"/><path d="M776.424 132.802c6.168 0 11.168-5 11.168-11.167 0-6.168-5-11.167-11.168-11.167-6.167 0-11.167 4.999-11.167 11.167 0 6.167 5 11.167 11.167 11.167z" fill="#E63C2F"/><path d="M776.425 128.66a7.026 7.026 0 1 0-.002-14.052 7.026 7.026 0 0 0 .002 14.052z" fill="#9B0001"/><path d="M781.308 116.589a6.98 6.98 0 0 1 1.644 4.507 7.027 7.027 0 0 1-7.025 7.025 6.97 6.97 0 0 1-4.883-1.979 7.016 7.016 0 0 0 5.38 2.518 7.029 7.029 0 0 0 7.026-7.026 7.008 7.008 0 0 0-2.142-5.045z" fill="#87040B"/><path d="M774.811 132.497c6.167 0 11.167-4.999 11.167-11.167 0-6.167-5-11.167-11.167-11.167-6.168 0-11.167 5-11.167 11.167 0 6.168 4.999 11.167 11.167 11.167z" fill="#FFA49F"/><path d="M774.354 132.802c6.167 0 11.167-5 11.167-11.167 0-6.168-5-11.167-11.167-11.167-6.168 0-11.167 4.999-11.167 11.167 0 6.167 4.999 11.167 11.167 11.167z" fill="#E63C2F"/><path d="M774.354 128.66a7.025 7.025 0 1 0 0-14.05 7.025 7.025 0 0 0 0 14.05z" fill="#9B0001"/><path d="M779.237 116.589a6.98 6.98 0 0 1 1.644 4.507 7.027 7.027 0 0 1-7.025 7.025 6.97 6.97 0 0 1-4.883-1.979 7.017 7.017 0 0 0 5.381 2.518 7.028 7.028 0 0 0 7.025-7.026 7.004 7.004 0 0 0-2.142-5.045z" fill="#87040B"/><path d="M773.105 132.529c6.168 0 11.167-5 11.167-11.168 0-6.167-4.999-11.167-11.167-11.167-6.167 0-11.167 5-11.167 11.167 0 6.168 5 11.168 11.167 11.168z" fill="#FFA49F"/><path d="M772.648 132.833c6.168 0 11.167-4.999 11.167-11.167 0-6.167-4.999-11.167-11.167-11.167-6.167 0-11.167 5-11.167 11.167 0 6.168 5 11.167 11.167 11.167z" fill="#E63C2F"/><path d="M772.648 128.691a7.025 7.025 0 1 0 0-14.05 7.025 7.025 0 0 0 0 14.05z" fill="#9B0001"/><path d="M777.531 116.62a6.976 6.976 0 0 1 1.645 4.508 7.027 7.027 0 0 1-7.025 7.025 6.968 6.968 0 0 1-4.883-1.98 7.016 7.016 0 0 0 5.38 2.518 7.027 7.027 0 0 0 7.025-7.025c0-1.98-.822-3.767-2.142-5.046z" fill="#87040B"/><path d="M771.236 132.681c6.168 0 11.168-5 11.168-11.167 0-6.168-5-11.167-11.168-11.167-6.167 0-11.167 4.999-11.167 11.167 0 6.167 5 11.167 11.167 11.167z" fill="#FFA49F"/><path d="M770.77 132.986c6.167 0 11.167-5 11.167-11.168 0-6.167-5-11.167-11.167-11.167-6.168 0-11.167 5-11.167 11.167 0 6.168 4.999 11.168 11.167 11.168z" fill="#E63C2F"/><path d="M770.77 128.843a7.025 7.025 0 1 0 0-14.05 7.025 7.025 0 0 0 0 14.05z" fill="#9B0001"/><path d="M775.653 116.772a6.983 6.983 0 0 1 1.644 4.508 7.027 7.027 0 0 1-7.025 7.025 6.967 6.967 0 0 1-4.883-1.98 7.017 7.017 0 0 0 5.381 2.518 7.027 7.027 0 0 0 7.025-7.025c0-1.98-.822-3.766-2.142-5.046z" fill="#87040B"/><path d="M766.527 133.564c6.167 0 11.167-5 11.167-11.167 0-6.168-5-11.168-11.167-11.168-6.168 0-11.168 5-11.168 11.168 0 6.167 5 11.167 11.168 11.167z" fill="#E63C2F"/><path d="M766.527 129.421a7.025 7.025 0 1 0 0-14.05 7.025 7.025 0 0 0 0 14.05z" fill="#9B0001"/><path d="M771.41 117.352a6.978 6.978 0 0 1 1.644 4.507 7.027 7.027 0 0 1-7.025 7.025 6.97 6.97 0 0 1-4.883-1.979 7.02 7.02 0 0 0 12.406-4.508c0-1.98-.823-3.776-2.142-5.045z" fill="#87040B"/><path d="M768.547 132.681c6.167 0 11.167-5 11.167-11.167 0-6.168-5-11.167-11.167-11.167-6.168 0-11.168 4.999-11.168 11.167 0 6.167 5 11.167 11.168 11.167z" fill="#FFA49F"/><path d="M768.08 132.986c6.167 0 11.167-5 11.167-11.168 0-6.167-5-11.167-11.167-11.167-6.168 0-11.167 5-11.167 11.167 0 6.168 4.999 11.168 11.167 11.168z" fill="#E63C2F"/><path d="M775.023 122.947a7.026 7.026 0 1 0-13.872-2.25 7.026 7.026 0 0 0 13.872 2.25z" fill="#9B0001"/><path d="M772.963 116.772a6.983 6.983 0 0 1 1.644 4.508 7.027 7.027 0 0 1-7.025 7.025 6.967 6.967 0 0 1-4.883-1.98 7.018 7.018 0 0 0 12.406-4.507c0-1.98-.822-3.766-2.142-5.046z" fill="#87040B"/><path fill-rule="evenodd" clip-rule="evenodd" d="M793.723 120.082h-22.486v33.542h20.091l2.395-33.542z" fill="#DD8346"/><path fill-rule="evenodd" clip-rule="evenodd" d="M771.237 120.082H748.75l2.406 33.542h20.081v-33.542z" fill="#F5A86C"/><path fill-rule="evenodd" clip-rule="evenodd" d="M793.723 120.082h-22.486l5.563 9.472h22.476l-5.553-9.472zM771.237 120.082H748.75l-8.091 11.726h22.487l8.091-11.726z" fill="#DD8346"/><path fill-rule="evenodd" clip-rule="evenodd" d="M770.831 120.082h-22.487l-7.837 11.116h22.486l7.838-11.116zM794.089 120.082h-22.487l5.492 9.116h22.487l-5.492-9.116z" fill="#F0C49C"/><path d="M731.7 141.183l-2.132-.019-.066 7.411 2.131.019.067-7.411z" fill="#A34926"/><path d="M729.786 115.007l-.233 26.151 23.441.213-.061 7.411 2.132.021.06-7.411.234-26.152-25.573-.233z" fill="#A34926"/><path d="M753.166 129.209l-21.44-.192-.102 10.882 10.944.102c3.502-1.787 7.126-3.33 10.538-5.066l.06-5.726z" fill="#8E3D12"/><path d="M753.115 134.935c-3.421 1.736-7.035 3.279-10.537 5.065l10.497.092.04-5.157z" fill="#7A2E0A"/><path d="M753.237 121.707c-4.101 2.112-8.203 4.061-11.979 6.609l11.918.112.061-6.721z" fill="#8E3D12"/><path d="M753.268 117.535l-21.441-.193-.101 10.883 9.512.081c3.787-2.548 7.878-4.497 11.979-6.609l.051-4.162z" fill="#8E3D12"/><path d="M756.618 113.575l-28.588-.256-.015 1.675 28.588.256.015-1.675zM743.837 123.128a1.084 1.084 0 0 1-1.086 1.066 1.083 1.083 0 0 1-1.066-1.086 1.083 1.083 0 0 1 1.086-1.066 1.09 1.09 0 0 1 1.066 1.086z" fill="#7A2E0A"/><path d="M743.471 134.57a1.084 1.084 0 0 1-1.086 1.066 1.084 1.084 0 0 1-1.066-1.087 1.084 1.084 0 0 1 1.086-1.066 1.078 1.078 0 0 1 1.066 1.087z" fill="#1D1D1B"/><path fill-rule="evenodd" clip-rule="evenodd" d="M760.313 132.731h-17.685v20.863h15.797l1.888-20.863z" fill="#DD8346"/><path fill-rule="evenodd" clip-rule="evenodd" d="M742.629 132.731h-17.675l1.878 20.863h15.797v-20.863z" fill="#F5A86C"/><path fill-rule="evenodd" clip-rule="evenodd" d="M760.313 132.731h-17.685l4.376 5.889h17.674l-4.365-5.889z" fill="#DD8346"/><path fill-rule="evenodd" clip-rule="evenodd" d="M742.629 132.731h-17.675l-6.365 7.29h17.674l6.366-7.29zM760.598 132.731h-17.685l4.325 5.675h17.674l-4.314-5.675z" fill="#F0C49C"/><path d="M724.629 153.593l88.109-.863.994 3.107-46.597.284h-19.888l-23.633-.518 1.015-2.01z" fill="#DADADA"/><path d="M651.545 210.587h9.645s.497-2.569-1.513-5.949l-6.497.081c-.01 0-1.807 2.66-1.635 5.868z" fill="#5E4738"/><path d="M661.058 210.587h-9.644v1.523h9.644v-1.523z" fill="#443227"/><path d="M656.287 209.094c2.007 0 3.634-.536 3.634-1.198 0-.661-1.627-1.198-3.634-1.198-2.007 0-3.635.537-3.635 1.198 0 .662 1.628 1.198 3.635 1.198z" fill="#917561"/><path d="M641.536 204.048s.751 3.838.182 6.538h-18.09s-.691-3.939 7.207-3.928l5.066-3.422 5.635.812z" fill="#5E4738"/><path d="M641.607 212.109h-5.848l-.071-1.056s-2.599 1.016-6.04 1.016c-1.675 0-6.142.06-6.142.06v-1.553h18.101v1.533z" fill="#443227"/><path d="M630.328 206.678s-.203 2.802-6.467 2.67c-.01 0 .792-2.559 6.467-2.67z" fill="#917561"/><path d="M632.866 141.573l-.335 63.064s4.934 2.477 9.583.538l1.777-52.496 1.37-.06 6.721 52.566s3.553 1.594 8.791-.335l-5.319-63.277h-22.588z" fill="#7C5F49"/><path d="M658.398 176.577c-3.482 9.452-8.091 3.391-10.071.01l3.655 28.608s3.553 1.615 8.791-.324l-2.375-28.294zM655.454 141.573h-22.639v8.802c1.858.812 5.604 2.122 11.015 3.066l.051-.762 1.38-.071.152 1.087c3.148.477 6.823.812 11.025.893l-.984-13.015z" fill="#6B513F"/><path d="M642.774 99.271l-.111 4.183 6.933.193.153-5.442c-2.914 1.32-5.797 1.208-6.975 1.066z" fill="#FAA284"/><path d="M649.739 98.205l.111-4.193-6.934-.193-.152 5.452c1.188.142 4.071.254 6.975-1.066z" fill="#EF8D72"/><path d="M645.637 104.407c4.101 0 5.086-2.274 5.228-2.984-2.913-.589-5.797-.823-9.39-.335-.082.812.132 3.319 4.162 3.319z" fill="#FAA284"/><path d="M660.093 104.479s-3.949-2.153-8.761-3.208c-.203-.041-.416-.092-.619-.132-.142.71-.914 2.893-5.015 2.893-4.03 0-4.162-2.315-4.081-3.147-.294.04-.599.081-.914.132-2.193.345-4.893 1.228-7.076 2.243 0 0-2.934 12.69-1.644 42.74 0 0 9.766 3.512 25.451.518 0 0-1.472-21.045.558-29.278 0 .02 1.462-7.584 2.101-12.761z" fill="#4972C4"/><path d="M660.093 104.479c-13.4 11.207-15.045 17.867-28.354 22.09-.112 3.655.122 15.786.254 19.441 0 0 9.766 3.513 25.451.518 0 0-1.472-21.045.558-29.278-.01.01 1.969-12.081 2.091-12.771z" fill="#4365A8"/><path d="M651.414 78.267s-6.68 3.177-8.284 3.005c-1.604-.173-6.761-2.64-6.761-2.64-.66 3.096.964 5.776.964 5.776l14.517 3.35 2.447.64c.66-2.619 1.228-5.31 1.218-6.842-2.995-.68-4.101-3.29-4.101-3.29z" fill="#3B221D"/><path d="M653.667 76.51c-1.309-5.259-10.273-5.614-10.273-5.614-4.721-2.863-2.944.802-2.944.802-7.889-2.822-4.132 4.284-4.132 4.284-2.924-.101.05 2.66.05 2.66s5.147 2.467 6.762 2.64c1.604.172 8.284-3.006 8.284-3.006s1.106 2.61 4.101 3.29c-.02-4.69-1.848-5.056-1.848-5.056z" fill="#502F26"/><path d="M653.668 86.5l-1.087.923a12.686 12.686 0 0 1-.568-1.685c-.883-3.31-.599-7.462-.599-7.462-7.614 2.955-14.122.823-14.122.823.366 3.776-.883 12.1 2.011 16.365.862 1.269 1.949 2.345 3.776 2.629 7.969 1.249 10.01-6.548 10.01-6.548s2.497.67 3.005-3.015c.416-3.056-2.426-2.03-2.426-2.03z" fill="#FAA284"/><path d="M650.287 79.627s.64 3.513 1.614 5.634c-.741-3.167-.487-6.994-.487-6.994-7.614 2.954-14.122.822-14.122.822.041.416.051.883.061 1.39 2.955.417 8.254.782 12.934-.852z" fill="#EF8D72"/><path d="M641.698 87.464c-.01.68-.426 1.208-.934 1.168-.508-.041-.914-.63-.903-1.31.01-.68.426-1.208.934-1.168.497.031.903.62.903 1.31zM648.652 87.261c-.01.68-.426 1.208-.934 1.168-.507-.041-.914-.63-.903-1.31.01-.69.426-1.208.934-1.168.507.03.913.62.903 1.31z" fill="#502F26"/><path d="M644.165 91.352c-1.543.62-2.365-.101-2.436-.832-.041-.477.233-.894.68-1.076.934-.366 1.604-1.808 1.604-1.828 0 .335-.335 1.584-1.523 2.274-.254.153-.416.305-.396.538.041.416.629 1.026 2.071.924z" fill="#DB7C65"/><path d="M638.561 83.93l-.071-.466c.102-.01 1.685-.437 3.553-.285l.021.731c-1.523-.233-3.472.01-3.503.02zM649.871 84.175c-1.249-.487-3.553-.569-3.584-.579l.152-.66c.092.02 2.183.092 3.584.843l-.152.396z" fill="#502F26"/><path d="M636.978 71.059s3.319 3.258 11.075 3.258c0 0-5.065 3.533-11.969 1.178 0-.01-1.756-4.193.894-4.436z" fill="#674434"/><path d="M652.479 90.621c-.68 1.97-3.197 6.833-8.639 6.538-2.944-.162-4.436-2.101-5.421-3.462.233.64.518 1.229.873 1.757.863 1.269 1.949 2.345 3.777 2.63 7.969 1.248 10.009-6.549 10.009-6.549s1.909.538 2.762-1.898c-1.483 2.467-3.361.984-3.361.984z" fill="#EF8D72"/><path d="M646.835 92.418s-2.904.589-5.594 0c0 0 .477 2.477 2.792 2.477 2.193 0 2.782-1.99 2.802-2.477z" fill="#CE3E3E"/><path d="M643.982 93.606c-1.786 0-2.304-.741-2.527-1.147 2.091.416 3.776.162 5.248-.02-.162.456-1.046 1.167-2.721 1.167z" fill="#fff"/><path d="M633.394 129.563s-5.777 1.655-6.294 1.635c0 0 0 5.188 7.847 2.711l1.137-2.538-2.69-1.808z" fill="#FAA284"/><path d="M660.093 104.479s-3.807-1.472-10.07 12.172l-2.894 5.553s-9.268 5.543-13.685 6.893c0 0-.558 3.594 1.939 5.117 0 0 12.721-1.949 17.36-7.34 3.939-4.578 12.832-17.471 7.35-22.395z" fill="#4972C4"/><path d="M636.48 98.022l-3.716 24.7-18.284-.609 1.269-25.238 20.731 1.147z" fill="#DD8346"/><path opacity=".5" d="M623.475 97.3l3.594.204-1.655 24.974-3.604-.122" fill="#FFF6D6"/><path d="M601.242 96.063l14.507.812-1.269 25.237-14.151-.477.913-25.573z" fill="#F5A86C"/><path opacity=".5" d="M606.572 96.356l3.827.214-1.584 25.349-3.837-.132 1.594-25.43z" fill="#FFF6D6"/><path d="M638.612 122.812l-3.33 24.253h-21.948l-1.503-25.583 26.781 1.33z" fill="#DD8346"/><path d="M593.882 120.579l17.949.904 1.502 25.582h-18.324l-1.127-26.486z" fill="#F5A86C"/><path d="M627.323 139.553l-.01-.02a.632.632 0 0 1 .091-.893l3.107-2.66c-.031-.03-.051-.071-.082-.112l-4.538 2.356c-.335.172-.751.06-.913-.264l-.01-.021c-.163-.325-.031-.72.314-.903l4.609-2.437c-.01-.03.011.031-.03-.122l-5.431 1.229c-.376.081-.65-.091-.731-.467l-.01-.02c-.082-.376.05-.802.426-.884l5.543-1.258.01.03-4.832-.173c-.386-.02-.68-.324-.66-.71v-.021a.684.684 0 0 1 .721-.659l4.609.152c.842-.152 1.167-.284 1.492-.355l.386-.092-1.614-1.37c-.437-.295-.579-.802-.346-1.158l.021-.01c.243-.355.7-.284 1.127.01l3.177 1.96c1.127.314 2.294.649 2.65 2.233a2.662 2.662 0 0 1-2.01 3.188s-2.244.639-2.731.781l-3.432 2.711c-.274.244-.68.223-.903-.041z" fill="#FAA284"/><path d="M650.601 121.666c.833-.203 1.696 0 2.366.507.172.122.264.213.294.234l.031.051c.091.101.182.203.264.324.05.071.152.224.274.488.01.02.01.04.02.061a2.51 2.51 0 0 1 .173 1.482 2.725 2.725 0 0 1-.427 1.106c-.061.102-.111.173-.132.214-.03.03-.081.071-.111.111a2.54 2.54 0 0 1-.559.477c-4.406 3.503-14.02 7.868-16.233 8.203-.517-.771-1.857-3.705-2.061-4.111 1.391-1.371 4.609-3.746 11.117-6.954 1.289-.64 2.274-1.137 3.086-1.564.721-.365 1.35-.558 1.898-.629z" fill="#4972C4"/><path d="M573.802 107.311s2.02-18.598-2.538-27.643c-3.543-7.026-7.736-3.462-7.736-3.462s-4.03-2.782-6.771.903c-2.731 3.685-7.188 12.883-.873 23.502 6.324 10.609 17.918 6.7 17.918 6.7z" fill="url(#paint0_linear)"/><path d="M554.361 81.333a22.143 22.143 0 0 1 1.908-3.543c6.122 3.015 11.198 1.3 13.797-.092.406.538.802 1.188 1.198 1.96.243.477.467.994.67 1.522-3.736.548-10.609 1.208-17.573.153z" fill="#674434"/><path d="M572.35 104.743s2.985.528 4.64 16.385l-5.777.63s-4.903-16.203 1.137-17.015z" fill="#AD7CC2"/><path d="M553.173 156.173l10.639 1.776c-.111 2.173-3.573 10-4.436 14.294-1.178 5.807-6.355 30.883-6.355 30.883l-3.848.233c-1.37-20.212 3.33-34.029 3.33-34.029.071-5.371-.193-8.152.67-13.157z" fill="#FAA284"/><path d="M563.813 157.949l-10.64-1.776c-.863 4.995-.599 7.776-.68 13.157 0 0-.751 2.02-1.553 5.756 1.868-.518 4.792-1.086 8.01-.782.172-.822.315-1.512.416-2.05.873-4.295 4.335-12.122 4.447-14.305z" fill="#EF8D72"/><path d="M565.457 158.102l10.538.548c-1.675 6.487-3.828 14.771-4.518 16.761-1.584 4.558-2.873 29.014-2.873 29.014h-4.314c.152-4.396-1.026-8.66-1.462-11.492-1.99-12.903 1.756-19.969 1.756-19.969-.366-3.472.558-11.441.873-14.862z" fill="#FAA284"/><path d="M575.995 158.639l-10.538-.548c-.315 3.431-1.249 11.4-.883 14.852 0 0-.741 1.391-1.391 4.071 1.767-.7 5.086-1.837 8.426-2.041.812-2.517 2.812-10.223 4.386-16.334z" fill="#EF8D72"/><path d="M565.741 110.053c5.432-.538 4.873-4.457 4.112-6.66-2.274-1.025-3.827-1.188-6.274-1.178-4.304.021-5.543.741-6.913 1.3.406 1.482 2.436 7.187 9.075 6.538z" fill="#FAA284"/><path d="M572.695 128.204l1.361-9.634s2.152-2.335 2.091-4.558c-.02-.985.01-2.599-3.096-5.279l-.711-4s-.772-.68-2.183-1.381c-1.269-.639-2.791-.974-2.893-1.025.64 1.848-.071 2.985-3.238 3.198-3.686.244-4.447-1.604-4.863-3.086-.061.02-1.625.497-2.701.964-.934.406-1.898.914-2.893 1.523l1.31 10.741s2.913 7.319 3.289 12.223c0 0-11.319 14.476-9.847 42.1 0 0 16.791 7.106 32.74-.173.01.01-3.056-30.862-8.366-41.613z" fill="#AD7CC2"/><path d="M565.721 100.977l.02 1.868s-.061 1.705-2.639 1.705c-2.589 0-2.619-1.685-2.619-1.685l-.021-3.157c2.183 1.431 4.366 1.391 5.259 1.269z" fill="#FAA284"/><path d="M560.452 99.707l-.02-4.304 5.259-.02.02 5.604c-.883.111-3.066.152-5.259-1.28z" fill="#EF8D72"/><path d="M573.599 118.945c1.797-.518 2.375-3.583 2.375-3.583-1.675.467-8.507.751-13.796.873-5.289.111-8.182-7.706-8.182-7.706h-.011l.894 7.259s2.913 7.269 3.289 12.172c0 0 .761.477 2.162.934l.792-.934c-4.538-13.695 10.68-8.497 12.477-9.015z" fill="#9658B0"/><path d="M555.031 87.545l.142.05s.762 5.452 2.62-1.147c4.375-3.35 5.735-8.395 5.735-8.395 1.655 3.695 5.716 8.822 7.807 9.654.071 1.239-.061 3.127-.213 4.822-.304 3.3-2.02 5.716-5.259 6.477-7.806 1.838-10.009-5.573-10.009-5.573s-2.934.06-3.279-3.736c-.275-3.106 2.456-2.152 2.456-2.152z" fill="#FAA284"/><path d="M563.335 80.754s-2.101 4.08-5.553 5.685c4.396-3.36 5.736-8.396 5.736-8.396 1.472 3.279 4.843 7.695 7.035 9.228-1.472-.599-4.091-2.213-7.218-6.517zM556.544 92.621s2.112 5.483 6.487 6.071c2.66.356 4.954-.771 6.335-1.725-.853.974-2.02 1.675-3.513 2.03-7.806 1.837-10.009-5.573-10.009-5.573s-2.325.03-3.076-2.61c1.969 2.711 3.776 1.808 3.776 1.808z" fill="#EF8D72"/><path opacity=".9" d="M568.391 92.855c0 .06.051.101.102.101.061 0 .101-.05.101-.101a.102.102 0 0 0-.101-.102c-.051-.01-.102.04-.102.102z" fill="#EA7460"/><path d="M566.848 94.327s-2.01.629-5.238-.01c0 0 .782 2.619 2.974 2.446 1.96-.142 2.264-2.436 2.264-2.436z" fill="#CE3E3E"/><path d="M566.767 94.458s-2.092.711-5.036-.01c0 0 .498 1.097 2.802 1.026 2.071-.061 2.234-1.016 2.234-1.016z" fill="#fff"/><path d="M567.102 86.55s1.523-.588 3.198.61c0 0 .02-.204-.325-.559-.345-.355-1.371-.883-2.447-.64 0 0-.649.376-.426.59zM562.96 87.018s-1.746-.731-3.705.578c0 0-.021-.233.385-.619s1.604-.954 2.833-.64c0 0 .751.447.487.68z" fill="#502F26"/><path d="M564.432 93.362c1.553.7 2.437-.01 2.528-.751.061-.487-.203-.924-.66-1.127-.944-.416-1.573-1.919-1.573-1.94-.021.336.274 1.635 1.472 2.397.253.162.416.335.385.568-.061.406-.69 1.016-2.152.853z" fill="#D3755F"/><path d="M560.919 88.327s.975-.03 1.087-.406c0 0 .152.507-.437.71.203.224.335.549.345.914.031.69-.365 1.28-.883 1.3-.518.02-.974-.518-1.005-1.208-.03-.7.366-1.29.893-1.31zM568.036 88.286s.975-.03 1.086-.406c0 0 .153.508-.436.71.203.224.335.549.345.914.03.69-.365 1.28-.883 1.3-.518.02-.975-.518-1.005-1.208-.031-.7.375-1.28.893-1.31z" fill="#502F26"/><path d="M553.336 205.785s2.761 4.518.944 6.254h-6.01s-1.543-1.381.579-6.051l2.923-.03 1.564-.173z" fill="#842D2D"/><path d="M553.011 203.135l.853 5.553c-1.543-1.126-3.746-.832-5.198.214 0 0-.244-2.274.528-5.655l1.949-1.076 1.868.964zM572.117 210.282c-.264.03-6.01-.873-7.055-1.716-.772-.619-1.209-.853-1.361-2.03.345-.833.579-2.122.579-2.122l2.061-1.411 2.253 1.411c1.442 1.533 4.65 4.426 4.65 4.426s-.863 1.411-1.127 1.442z" fill="#FAA284"/><path d="M565.67 207.997c1.28.569 6.102 1.929 6.366 1.899.264-.031.954-1.289.954-1.289 4.954.132 4.619 1.999 4.66 2.73.04.731-4.244.66-6.457.67-1.553 0-4.731-1.187-4.731-1.187l-.101 1.187h-2.234c-1.33-2.192-.944-4.223-.426-5.482.345.965 1.969 1.472 1.969 1.472z" fill="#842D2D"/><path d="M560.33 128.884s-8.7 12.761-11.238 24.131c0 0 1.878-15.065 9.076-25.065l2.162.934z" fill="#9658B0"/><path d="M553.579 104.935s-2.903 1.645-2.781 17.025l6.02 1.787c-.01 0 2.68-19.197-3.239-18.812z" fill="#AD7CC2"/><path d="M575.213 117.128s2.082.691 2.965-2.162c.883-2.853.254-4.376.071-5.269-.183-.893 1.837-2.112.538-6.183-.579-1.837.599-4.202-1.553-5.167-.884-.396-3.279 1.533-3.584 3.31-.304 1.776.65 2.406.355 3.705-.294 1.3-.954 3.401-.609 4.731s.731 2.436.752 4.264c.04 1.817 1.065 2.771 1.065 2.771z" fill="#778200"/><path d="M574.147 116.834s.102-1.919.244-3.106c.142-1.188-1.33-1.787-1.594-2.772-.162-.619.244-2.842.051-3.472-.193-.629-.701-1.299-1.279-1.868-.569-.568-1.99-1.685-2.812-1.695-1.432 0-2.427 1.614-1.137 3.573.913 1.391.142 3.371.599 4.569.456 1.208 2.68 2.507 3.015 2.7.335.193 2.913 2.071 2.913 2.071zM576.289 117.148s1.594.802 2.66.051c1.076-.741 1.401-1.31 1.543-2.193.153-.883 2.335-.761 3.168-2.213.517-.914.893-2.142 1.259-3.269.365-1.117 2.111-3.157 1.401-4.03-.711-.873-3.726-.741-5.452 1.086-1.228 1.31-.934 3.756-1.563 4.335-.63.579-1.32.69-2.305 1.492-.985.802-.711 4.741-.711 4.741z" fill="#778200"/><path d="M575.548 110.54c-.02-1.168.345-2.233.69-3.33.275-.893.508-1.817.335-2.751-.203-1.117-1.096-2.335-.345-3.431.082-.122-.111-.234-.193-.112-.578.853-.243 1.837.071 2.721.478 1.37.224 2.558-.203 3.898-.345 1.086-.629 2.142-.568 3.299a7.157 7.157 0 0 0 .954 3.168c.071.122.274.01.193-.112-.589-1.025-.924-2.162-.934-3.35zM584.563 107.047c-1.655.396-1.949 2.193-2.538 3.523-.406.923-1.005 1.411-1.878 1.868-.579.314-1.117.7-1.259 1.38-.03.142.193.203.223.061.173-.873 1.046-1.157 1.726-1.553a3.153 3.153 0 0 0 1.218-1.31c.701-1.319.843-3.35 2.569-3.756.142-.03.081-.244-.061-.213zM573.193 113.799a3.01 3.01 0 0 1-1.98-1.35c-.528-.853-.436-1.807-.325-2.752.153-1.238.132-3.005-1.4-3.34-.143-.03-.204.183-.061.224 2.203.477.913 3.533 1.198 5.005.243 1.238 1.279 2.203 2.507 2.446.142.021.203-.203.061-.233z" fill="#586200"/><path d="M569.427 115.362c-.284.304.111 4.111.609 6.172.497 2.061.711 5.868 1.716 6.376 1.005.507 7.969.253 8.273 0 .711-.599 1.33-5.178 1.675-7.675.346-2.498.488-4.081.254-4.873-.152-.518-12.02-.548-12.527 0z" fill="#D3483C"/><path d="M579.244 126.651l.345 1.604a.724.724 0 0 1-.549.852l-.172.041a.701.701 0 0 1-.619-.163.675.675 0 0 1-.467.396l-.173.041a.695.695 0 0 1-.68-.264.686.686 0 0 1-.528.477l-.173.041a.722.722 0 0 1-.527-.092.528.528 0 0 1-.214.183l-.132.071a.587.587 0 0 1-.781-.254l-.599-1.187a.588.588 0 0 1 .253-.782l.132-.071a.576.576 0 0 1 .711.152l-.041-.183a.724.724 0 0 1 .549-.852l.172-.041a.707.707 0 0 1 .559.112c-.021-.386.203-.721.548-.802l.172-.041c.325-.071.65.132.802.467a.674.674 0 0 1 .386-.223l.173-.041a.73.73 0 0 1 .853.559zM550.787 121.961s-.375 4.73 6.02 4.385c5.858-.314 9.787-1.269 9.787-1.269l-.406-3.248s-8.101-1.655-15.401.132z" fill="#FAA284"/><path d="M574.178 123.829c-.031-.274-.213-.396-.579-.335l.701-.122c.365-.061.629-.345.568-.731-.061-.386-.406-.569-.771-.508l.933-.203c.386-.152.61-.375.549-.751-.061-.376-.325-.528-.772-.507l-.812.06c.365-.06.609-.426.548-.802-.051-.314-.386-.507-.761-.446l-5.005.7.711-1.248c.223-.396.243-1.046-.072-1.29-.314-.243-.588-.071-.812.335l-2.203 2.487c-.69.711-1.38 1.625-1.137 3.016.244 1.451 1.594 2.02 2.873 2.02l1.219-.02 1.055-.041 3.056-.873c.355-.061.741-.447.711-.741z" fill="#FAA284"/><path d="M682.061 175.045l-.02.02a1.197 1.197 0 0 1-.426.244c-.102.041-.203.071-.295.101h-.02l-.051.011-.04.01c-1.757.396-3.574-1.99-6.122-5.675-.294-.416-.568-.823-.832-1.188l-.122-.173-.02-.203a2.338 2.338 0 0 1 .639-2.487l.01-.01.031-.02a2.319 2.319 0 0 1 2.923-.092c.031.021.061.041.082.061.01.01.02.021.04.031h-.01c.772.66 2.01 2.467 3.807 5.157l.041.051.172.264c.437.649.711 1.137.863 1.533.092.213.142.436.152.659.021.214-.01.417-.071.62-.05.172-.142.355-.253.538l-.011.01-.02.03-.02.031-.031.04c-.02.031-.05.071-.081.112l-.03.031-.041.05a1.508 1.508 0 0 1-.213.224l-.031.02z" fill="#F7A184"/><path d="M677.808 165.694c-.01-.01-.03-.02-.04-.03-.031-.021-.051-.041-.082-.061-.548-.416-1.248-.569-1.918-.416a2.295 2.295 0 0 0-1.005.507l-.031.021-.01.01a2.315 2.315 0 0 0-.639 2.487l.02.203.122.173c.264.365.538.771.832 1.187.954 1.371 1.797 2.559 2.569 3.493l3.563-3.016c-1.564-2.365-2.67-3.949-3.381-4.558z" fill="#FAE69E"/><path d="M681.341 183.979l.589-.091c.04-.01.132-.01.233-.031.457-.05.904-.101 1.208-.182l.498-.142.081-.508c.183-1.117-.233-7.36-1.066-9.644a1.957 1.957 0 0 0-.172-.406l-.021-.051-.04-.081-.071-.092c-.011-.02-.031-.04-.061-.071a2.005 2.005 0 0 0-1.036-.67 1.66 1.66 0 0 0-.67-.051 1.43 1.43 0 0 0-.406.082c-.101.03-.203.071-.274.111l-.061.031-.081.04c.01-.01.02-.02.04-.03-.04.02-.101.061-.182.122a1.997 1.997 0 0 0-.843 1.431c-.051.335-.051.69.01 1.076.061.376.132.822.224 1.411.426 2.924 1.38 6.335 1.817 7.218l.284.528z" fill="#F7A184"/><path d="M679.25 209.146l-1.127-10.974v-.041l-.03-.294c-.234-1.239-1.432-2.102-2.68-1.909l-.041.01-.041.011a2.352 2.352 0 0 0-1.522.984 2.343 2.343 0 0 0-.376 1.777s-.538 1.848.802 5.726l1.31 4.629.192.741 3.543-.528a.894.894 0 0 1-.03-.132z" fill="#FAA284"/><path d="M676.103 200.618h.06l.041-.01c1.259-.233 2.112-1.462 1.898-2.731v-.04l-1.096-9.472-.01-.041-.01-.05a2.651 2.651 0 0 0-2.995-2.112l-.051.01-.071.01a2.61 2.61 0 0 0-1.685 1.117 2.615 2.615 0 0 0-.406 1.99c.01.03.01.061.02.081l.01.031v.03l1.614 9.066v.04c.011.051.011.102.021.153.203 1.258 1.401 2.111 2.66 1.928z" fill="#FAA284"/><path d="M676.986 188.365l-.01-.041-.01-.05a2.651 2.651 0 0 0-2.995-2.112l-.051.01-.071.01a2.61 2.61 0 0 0-1.685 1.117 2.615 2.615 0 0 0-.406 1.99c.01.03.01.061.02.081l.01.031v.03l1.31 7.381 4.802-.721-.914-7.726z" fill="#EE8C72"/><path d="M678.397 194.476l-.711-5.908c0-.041-.01-.081-.01-.132a3.363 3.363 0 0 0-3.705-2.995l-.082.01a3.352 3.352 0 0 0-2.913 3.675v.071l.01.071 1.188 6.457c2.05-.294 4.193-.701 6.223-1.249z" fill="#2E3E49"/><path d="M666.022 209.034l.619-4.771c.751-4.03-.051-5.787-.051-5.787a2.37 2.37 0 0 0-.639-1.705 2.335 2.335 0 0 0-1.655-.751h-.081a2.395 2.395 0 0 0-2.376 2.284c0 .091 0 .193.011.294v.041l.507 11.025c0 .04 0 .081.01.122h3.584c.051-.153.071-.335.071-.508v-.244z" fill="#FAA284"/><path d="M664.215 200.771H664.113a2.368 2.368 0 0 1-2.274-2.416v-.041l-.315-9.523.011-.04v-.051a2.656 2.656 0 0 1 2.649-2.538h.122a2.656 2.656 0 0 1 2.538 2.761c0 .031 0 .061-.01.082v.061l-.254 9.207v.193c-.041 1.279-1.106 2.305-2.365 2.305z" fill="#FAA284"/><path d="M666.844 189.045v-.031c0-.03 0-.05.01-.081a2.636 2.636 0 0 0-.7-1.908 2.57 2.57 0 0 0-1.838-.853h-.122a2.65 2.65 0 0 0-2.649 2.538v.051l-.01.04.253 7.777h4.853l.203-7.493v-.04z" fill="#EE8C72"/><path d="M667.656 188.964a3.307 3.307 0 0 0-.883-2.416 3.375 3.375 0 0 0-2.335-1.087h-.081a3.342 3.342 0 0 0-3.422 3.208l-.01.072v.071l.203 6.091c1.462.152 3.736.345 6.355.426l.173-6.223c-.01-.061 0-.102 0-.142z" fill="#2E3E49"/><path d="M661.169 190.355c.985 1.401 3.543 2.213 6.751 1.969h2.477c2.883 0 5.381.315 6.355-.903 1.797-3.543.721-5.087.752-8.152l-16.599.03c.02 1.949-.335 3.837.264 7.056zM662.032 208.131s-1.401 1.431-3.817 2.335c0 0-4.345-1.574-3.198 2.304h11.746s.375-2.761-.366-4.609c0 0-.274-.142-.68.284-.406.427-2.172.681-2.842.437-.021-.01-.396-.893-.843-.751z" fill="#2E3E49"/><path d="M658.215 210.465s-4.345-1.573-3.198 2.305h11.746s.061-.457.081-1.026h-7.888c-.254-.68-.741-1.279-.741-1.279zM662.174 209.948a.253.253 0 0 1-.223-.142c-.355-.731-.863-1.015-.863-1.025-.122-.071-.172-.244-.112-.386.061-.142.214-.203.336-.132.03.01.649.366 1.086 1.259.071.142.02.315-.102.386a.196.196 0 0 1-.122.04zM661.159 210.516c-.092 0-.173-.051-.224-.152-.355-.731-.862-1.015-.862-1.025-.122-.072-.173-.244-.112-.386.061-.142.213-.203.335-.132.03.01.65.365 1.086 1.259.071.142.02.314-.101.385a.161.161 0 0 1-.122.051z" fill="#E9E6ED"/><path d="M660.144 211.085a.255.255 0 0 1-.224-.142c-.355-.731-.863-1.015-.863-1.025-.121-.071-.172-.244-.111-.386.061-.142.213-.203.335-.132.03.01.649.365 1.086 1.259.071.142.02.314-.102.386a.195.195 0 0 1-.121.04z" fill="#E9E6ED"/><path d="M675.138 212.77s.142-2.254.437-3.35c0 0 1.228.061 1.502-.315.274-.375 1.868-2.02 2.609-.01l.579 1.127s2.426-.812 1.655 2.548h-6.782z" fill="#2E3E49"/><path d="M680.214 210.232c-1.858.507-2.253 1.502-2.253 1.502h-2.731c-.061.569-.082 1.026-.082 1.026h6.782c.782-3.412-1.716-2.528-1.716-2.528zM678.306 209.45a.237.237 0 0 1-.213-.132.31.31 0 0 1 .071-.396c.02-.02.609-.436 1.522-.406.142.01.254.132.244.295 0 .152-.122.284-.264.274-.751-.031-1.218.314-1.228.314a.214.214 0 0 1-.132.051zM678.711 210.242a.24.24 0 0 1-.213-.132.312.312 0 0 1 .071-.396c.021-.02.609-.436 1.523-.406.142.01.254.132.244.295 0 .152-.122.284-.264.274-.751-.031-1.218.314-1.229.314a.166.166 0 0 1-.132.051z" fill="#E9E6ED"/><path d="M666.083 163.584s2.396-.619 5.523 0v1.766h-5.675l.152-1.766z" fill="#EAEAEA"/><path d="M656.946 181.401h-.599c-.04 0-.132 0-.233.01-.467.02-.904.04-1.229 0l-.517-.071-.163-.498c-.345-1.076-.863-7.319-.376-9.695.021-.142.051-.284.112-.426l.01-.051.031-.091.061-.102c.01-.02.03-.051.05-.081.143-.234.325-.437.559-.599a1.814 1.814 0 0 1 1.025-.365c.223-.011.366.01.416.01.112.02.214.04.285.071l.061.02.081.031c-.01 0-.021-.011-.041-.021.041.021.112.041.203.092.528.264.904.731 1.046 1.289.101.315.152.68.152 1.066-.01.375-.01.832-.01 1.421.01 2.954-.426 6.477-.731 7.411l-.193.579z" fill="#F7A184"/><path d="M654.357 172.152l-.02-.031a1.241 1.241 0 0 1-.183-.456 1.866 1.866 0 0 1-.051-.305V171.248c-.152-1.797 2.457-3.269 6.457-5.289l1.289-.66.183-.091h.203a2.328 2.328 0 0 1 2.376.975v.01l.02.03c.203.315.335.68.366 1.066.06.68-.183 1.36-.681 1.848-.03.03-.05.05-.081.071l-.04.04c-.752.681-2.721 1.655-5.625 3.066l-.061.031-.284.142c-.7.345-1.218.548-1.634.639a1.865 1.865 0 0 1-.67.061 1.49 1.49 0 0 1-.599-.152 2.093 2.093 0 0 1-.498-.325l-.01-.01-.02-.02-.02-.021-.041-.03-.091-.091-.031-.031-.041-.051a1.605 1.605 0 0 1-.192-.243l-.021-.061z" fill="#F7A184"/><path d="M664.621 166.193l-.02-.031v-.01a2.329 2.329 0 0 0-2.376-.974h-.203l-.183.091c-.395.213-.832.426-1.289.66-1.259.639-2.375 1.218-3.32 1.776l1.99 4.244c2.559-1.249 4.284-2.132 4.985-2.761.02-.01.03-.031.04-.041.031-.02.051-.051.082-.071a2.32 2.32 0 0 0 .68-1.848 2.749 2.749 0 0 0-.386-1.035z" fill="#FAE69E"/><path opacity=".15" d="M677.524 184.243a9.934 9.934 0 0 1-.02-.974l-16.599.03c.01.355 0 .7-.01 1.056 1.939.609 9.127 2.487 16.629-.112z" fill="#000"/><path d="M676.742 165.147c-2.649-.497-5.867-.578-5.867-.578l-4.538-.061s-1.056.152-4.193.802c0 0-1.33 17.735-1.33 18.334 4.396 1.35 10.426 1.675 16.832 0 .01-.101-.904-18.497-.904-18.497z" fill="#FAE69E"/><path d="M668.337 166.965c.071 0 .903-.031.954-.041 1.533-.264 2.599-1.198 2.67-2.284-1.543-.153-2.893-.01-2.893-.01l-.356.01s-1.38-.081-3.116.203c.172 1.127 1.086 2.152 2.741 2.122z" fill="#EE8C72"/><path d="M670.885 160.924h-4.579v4.68h4.579v-4.68z" fill="#EE8C72"/><path d="M670.885 164.132v-3.208h-4.579v2.528c.965.294 2.822.761 4.579.68z" fill="#DD725E"/><path d="M662.489 154.792s-2.294-.802-2.294 1.482c0 2.294 2.294 1.614 2.294 1.614v-3.096z" fill="#EE8C72"/><path d="M674.499 154.792s2.294-.802 2.294 1.482c0 2.294-2.294 1.614-2.294 1.614v-3.096z" fill="#F7A184"/><path d="M674.712 157.32c0 3.32-2.903 6.02-6.487 6.02s-6.487-2.69-6.487-6.02v-5.34c0-3.32 2.903-6.02 6.487-6.02s6.487 2.69 6.487 6.02v5.34z" fill="#F7A184"/><path d="M668.225 162.944c-3.584 0-6.487-2.69-6.487-6.02v.386c0 3.319 2.903 6.02 6.487 6.02s6.487-2.691 6.487-6.02v-.386c0 3.33-2.903 6.02-6.487 6.02zM668.225 145.96c-3.31 0-6.041 2.294-6.436 5.269.558-.416 1.431-1.005 1.979-1.127.853-.173 7.401-.477 8.162.284.528.528 1.554 2.69 2.792 3.564v-1.97c-.01-3.32-2.913-6.02-6.497-6.02z" fill="#EE8C72"/><path d="M665.991 159.767h3.594s.356-.011.102.538c-.163.345-.599 1.746-1.838 1.776-1.472.041-1.979-1.807-1.979-1.807s-.244-.507.121-.507z" fill="#D24646"/><path d="M669.737 160.152c.122-.396-.162-.385-.162-.385h-3.594c-.274 0-.203.284-.152.426.7.183 2.112.406 3.908-.041z" fill="#fff"/><path d="M667.149 157.513s-.985-.041-.985.812c0 .842 1.533.629 1.584 0 .04-.63.132-5.259-.599-.812z" fill="#EE8C72"/><path d="M671.524 155.005a2.412 2.412 0 0 0-.772-.111c-.263 0-.507.03-.69.06-.183.031-.284.051-.284.051a.263.263 0 0 1-.325-.193.263.263 0 0 1 .193-.325c.01 0 .508-.132 1.106-.132.305 0 .63.031.945.132a.273.273 0 0 1 .172.346.271.271 0 0 1-.254.182c-.04 0-.071 0-.091-.01zM663.037 154.812a.263.263 0 0 1 .193-.325c.01 0 .508-.132 1.106-.132.305 0 .63.031.945.132a.273.273 0 0 1 .172.346.272.272 0 0 1-.345.172 2.412 2.412 0 0 0-.772-.111c-.263 0-.507.03-.69.06-.183.031-.284.051-.284.051-.02.01-.041.01-.061.01a.27.27 0 0 1-.264-.203z" fill="#752B14"/><path d="M663.454 149.422s-1.107.863-1.35 2.213c-.224 1.279-.366 1.259-.346 4.619l-.061-1.604s-.355-2.954.011-4.649c.01.01 1.208-1.239 1.746-.579z" fill="#903D1F"/><path d="M673.961 156.538s-.071-4.639-.488-5.451c-.355-.691-.852-1.229-1.472-1.351-.609-.121-6.172-.609-7.583-.426 0 0-2.02 0-2.447 1.036l-.183.69s-.781-5.096 3.351-6.518c1.918-.659 3.949-1.187 7.847.264l-1.005.386s.173.051 1.005.477c.964.488 5.492 2.873 1.35 9.563l-.375 1.33z" fill="#903D1F"/><path d="M662.743 147.93s.66-4.366 8.426-3.208c0 0-3.705.01-5.919 3.543 0 0-2.802.842-2.507-.335z" fill="#752B14"/><path d="M681.737 188.506a.772.772 0 0 1-.538-.243c-.111.03-.223.05-.335.05a.523.523 0 0 1-.213-.03c-.365-.102-.457-.751-.467-1.279-.254.304-.518.386-.721.375a.873.873 0 0 1-.538-.203l-.101-.081.071-.111c.01-.011.65-1.005.761-1.747.092-.609 1.168-1.675 1.371-1.868.081-.162.487-.913 1.38-.903.071 0 .153.01.234.02 1.005.163 1.309.833 1.37.995.721.914.477 2.954.467 3.036v.02c-.325.995-.365 1.056-.71 1.533-.183.254-.376.304-.508.304a.52.52 0 0 1-.233-.061.645.645 0 0 1-.427.153.882.882 0 0 1-.416-.112.738.738 0 0 1-.447.152z" fill="#F7A184"/><path d="M655.444 171.126l.091 10.66 15.259-.234-.092-10.669-15.258.243z" fill="#DD8346"/><path d="M655.444 171.126l2.193 4.112 15.349-.548-2.284-3.807-15.258.243z" fill="#F5A86C"/><path d="M660.357 180.355a.78.78 0 0 0-.193-.558c.041-.102.071-.214.082-.325.01-.122-.001-.213-.011-.213-.071-.376-.71-.528-1.238-.579.335-.223.426-.477.446-.68a.867.867 0 0 0-.152-.559l-.071-.101-.112.061c-.01.01-1.065.548-1.807.589-.619.04-1.776 1.005-1.989 1.187-.173.061-.955.406-1.036 1.29a.908.908 0 0 0 0 .233c.061 1.015.711 1.381.863 1.462.843.802 2.893.751 2.985.751h.02c1.025-.233 1.086-.264 1.594-.568.274-.163.345-.345.355-.477a.464.464 0 0 0-.04-.244.628.628 0 0 0 .182-.406.972.972 0 0 0-.071-.426.867.867 0 0 0 .193-.437z" fill="#F7A184"/><path d="M663.078 156.213c.02-.02.528-.396 1.157-.284.416.071.812.244 1.086.802 0 0 .082.193-.01.274-.122.102-.253 0-.304-.071-.305-.376-.589-.437-.904-.487-.457-.082-.781.061-.792.071-.182.061-.294-.041-.304-.122 0-.112.071-.183.071-.183zM671.849 156.142c-.02-.02-.528-.386-1.157-.274-.416.081-.802.254-1.076.802 0 0-.081.193.02.274.122.101.254 0 .305-.071.304-.386.588-.437.893-.498.457-.081.782.061.792.061.183.061.294-.04.304-.121-.01-.102-.081-.173-.081-.173z" fill="#7C3E06"/><path d="M665.656 148.427s1.198-2.355 3.939-2.853c0 0-2.314 1.604-2.924 2.802 0 0-.659.051-1.015.051z" fill="#752B14"/><path d="M522.576 209.368l1.533-12.558v-.04l.03-.254a2.114 2.114 0 0 1 2.406-1.675l.041.01.04.01a2.137 2.137 0 0 1 1.351.894c.314.467.426 1.035.324 1.583 0 0 .021 4.447-1.197 7.888l-1.209 4.112-.172.66-3.147-.498c-.01-.071 0-.111 0-.132z" fill="#FAA284"/><path d="M523.134 204.851l3.888.619-1.127 3.858-.172.659-3.147-.497c.01-.061.01-.101.02-.112l.538-4.527z" fill="#E5E5E5"/><path d="M525.885 199.013H525.834l-.03-.01c-1.117-.214-1.868-1.32-1.665-2.447v-.041l1.3-10.009.01-.031.01-.041a2.362 2.362 0 0 1 2.69-1.857l.041.01.061.01a2.356 2.356 0 0 1 1.837 2.782c0 .03-.01.05-.02.071l-.01.02v.02l-1.757 9.655v.04c-.01.041-.01.092-.02.132-.203 1.117-1.279 1.868-2.396 1.696z" fill="#FAA284"/><path d="M525.449 186.506l.01-.031.01-.041a2.363 2.363 0 0 1 2.69-1.857l.041.01.061.01a2.356 2.356 0 0 1 1.837 2.782c0 .03-.01.05-.02.071l-.01.02v.02l-1.462 8.041c-1.502-.254-2.964-.549-4.223-.904l1.066-8.121z" fill="#EE8C72"/><path d="M534.291 209.307l-.548-4.253c-.67-3.594.05-7.98.05-7.98a2.072 2.072 0 0 1 .569-1.512c.386-.417.903-.65 1.472-.67h.081c1.127 0 2.071.913 2.112 2.03 0 .081 0 .173-.01.264v.041l-.457 12.639c0 .04 0 .071-.01.111h-3.188a1.336 1.336 0 0 1-.061-.456l-.01-.214z" fill="#FAA284"/><path d="M537.55 209.866v.112h-3.188a1.345 1.345 0 0 1-.061-.457v-.224l-.518-3.989h3.939l-.172 4.558z" fill="#E5E5E5"/><path d="M535.895 199.114h.081a2.123 2.123 0 0 0 2.031-2.152v-.04l.284-10.091-.01-.031v-.04a2.36 2.36 0 0 0-2.365-2.254H535.804a2.361 2.361 0 0 0-2.254 2.467c0 .03 0 .051.01.071v.04l.224 9.807v.183a2.128 2.128 0 0 0 2.111 2.04z" fill="#FAA284"/><path d="M533.56 187.074v-.02c0-.021 0-.051-.01-.071-.03-.63.193-1.239.619-1.706a2.32 2.32 0 0 1 1.635-.761H535.916c1.269 0 2.304.995 2.365 2.253v.041l.01.03-.223 8.142a131.15 131.15 0 0 1-4.315.234l-.183-8.122-.01-.02z" fill="#EE8C72"/><path d="M537.824 208.373s1.249 1.269 3.401 2.081c0 0 3.868-1.401 2.842 2.051h-10.456s-.335-2.457.325-4.101c0 0 .243-.132.609.253.365.376 1.939.599 2.538.386.01-.01.345-.802.741-.67z" fill="#F45B79"/><path d="M541.225 210.454s3.868-1.401 2.843 2.051h-10.457s-.051-.406-.071-.914h7.015c.234-.609.67-1.137.67-1.137zM526.352 212.504s-.122-1.999-.396-2.984c0 0-1.096.051-1.33-.284-.243-.336-1.664-1.797-2.314-.011l-.518 1.005s-2.162-.731-1.472 2.264h6.03v.01z" fill="#F45B79"/><path d="M521.835 210.251c1.654.447 2.01 1.34 2.01 1.34h2.436c.051.508.071.914.071.914h-6.03c-.721-3.046 1.513-2.254 1.513-2.254z" fill="#F45B79"/><path d="M524.789 180.344c.497-3.929 1.715-13.461 1.715-13.461.752-.143.843-.224 1.32-.275l.173 4.701h8.771l-.437-4.548c.396.04.792.101 1.188.162 0 0 1.767 10.162 2.335 13.736l2.477 12.71s-9.888 2.223-19.471-.254l1.929-12.771z" fill="#FC597F"/><path d="M528.23 144.914s-6.466 2.284-6.659 10.172c-.193 7.898 5.045 8.944 2 12.934 0 0 1.238.477 2.375-.477 0 0 4.437 6.314 12.71.507 0 0 1.554-1.553 1.178-4.314 0 0 .954 1.431.477 3.045 0 0 3.168-9.197-.639-13.187l-11.442-8.68z" fill="#903D1F"/><path d="M523.164 175.634l-.03-.011a1.294 1.294 0 0 1-.386-.213c-.081-.061-.142-.122-.213-.183l-.01-.01-.01-.01-.031-.03-.03-.031c-1.107-1.157-.112-3.614 1.533-7.228.182-.406.365-.802.528-1.167l.071-.173.142-.112a2.06 2.06 0 0 1 2.182-.639h.011l.03.01c.315.101.609.284.843.528.416.436.619 1.045.548 1.655 0 .03-.01.06-.01.091 0 .01 0 .03-.01.051v-.01c-.143.883-.965 2.649-2.183 5.238l-.02.051-.122.253c-.295.62-.538 1.056-.772 1.351a1.866 1.866 0 0 1-.426.416 1.467 1.467 0 0 1-.498.233 2.057 2.057 0 0 1-.517.051H523.672c-.03 0-.071-.01-.122-.01h-.04l-.061-.01a3.875 3.875 0 0 1-.274-.061l-.011-.03z" fill="#E5E5E5"/><path d="M520.728 182.679l-.477-.223c-.031-.02-.102-.041-.193-.081-.376-.152-.741-.305-.985-.457l-.385-.244.06-.456c.122-.995 2.01-6.203 3.279-7.939.072-.112.153-.213.244-.305l.031-.04.06-.061.082-.061c.02-.01.04-.031.071-.041.203-.142.426-.233.67-.274.111-.02.243-.041.375-.03.203 0 .396.04.579.121.183.071.294.143.325.163a1.2 1.2 0 0 1 .203.162l.041.041.06.051c-.01-.011-.01-.021-.03-.031.03.031.071.071.122.142.325.406.457.924.365 1.422-.03.294-.132.599-.274.913-.142.305-.314.66-.538 1.147-1.076 2.376-2.741 5.046-3.33 5.685l-.355.396z" fill="#F7A184"/><path d="M524.86 173.117c-.051-.072-.101-.122-.122-.143l.031.031-.061-.051-.041-.041c-.051-.05-.122-.101-.203-.162a1.738 1.738 0 0 0-.325-.162 1.618 1.618 0 0 0-.578-.122c-.132 0-.264.01-.376.03a1.947 1.947 0 0 0-.67.274.547.547 0 0 1-.071.041l-.081.061-.061.061-.031.04a1.809 1.809 0 0 0-.243.305c-.884 1.198-2.061 4.071-2.741 6.05.7.264 1.847.711 3.025 1.188.69-1.116 1.492-2.558 2.101-3.918.214-.478.386-.843.538-1.148.153-.314.244-.619.274-.913a1.761 1.761 0 0 0-.365-1.421z" fill="#E5E5E5"/><path d="M541.763 175.451l-.021.02c-.162.122-.325.163-.416.193a1.527 1.527 0 0 1-.284.061H540.94c-1.665.213-3.127-2.172-5.157-5.827-.233-.416-.457-.812-.66-1.178l-.091-.162v-.193a2.164 2.164 0 0 1 .822-2.244h.01l.031-.02c.284-.203.629-.335.974-.375a2.134 2.134 0 0 1 1.746.568c.031.02.051.051.072.071.01.01.02.02.04.031.66.68 1.635 2.466 3.056 5.126l.03.051.142.264c.346.64.549 1.117.66 1.502.071.204.092.417.082.62 0 .203-.041.386-.122.568a2.033 2.033 0 0 1-.285.467l-.01.01-.02.021-.02.02-.031.041c-.02.02-.05.061-.081.091l-.03.03-.041.041c-.081.071-.162.142-.223.193l-.071.01z" fill="#CCC"/><path d="M545.986 180.608l.254-.487c.02-.041.061-.102.111-.193.224-.376.427-.731.538-1.005l.173-.457-.335-.345c-.731-.762-5.634-3.919-7.807-4.558a1.72 1.72 0 0 0-.396-.102l-.051-.01-.091-.02-.101.01c-.021 0-.051 0-.082.01-.253.01-.507.081-.741.193a2.037 2.037 0 0 0-.335.203 1.889 1.889 0 0 0-.416.477c-.112.183-.152.305-.173.345-.03.102-.06.193-.071.264l-.01.061-.01.081v-.04c0 .04-.01.111-.01.203a1.85 1.85 0 0 0 .599 1.431c.213.223.487.427.812.589.315.162.69.355 1.178.619 2.416 1.31 5.512 2.487 6.416 2.65l.548.081z" fill="#F7A184"/><path d="M539.022 177.867c-.488-.264-.863-.456-1.178-.619a3.064 3.064 0 0 1-.812-.589 1.85 1.85 0 0 1-.599-1.431c0-.091.01-.162.01-.203v.041l.01-.082.01-.061a1.24 1.24 0 0 1 .071-.264c.011-.04.061-.172.173-.345.112-.182.244-.345.416-.477.112-.081.224-.162.335-.203a1.86 1.86 0 0 1 .741-.193c.031 0 .061 0 .082-.01l.101-.01.091.02.051.01c.132.021.274.051.396.102 1.482.436 4.244 2.061 6.081 3.279a74.071 74.071 0 0 1-1.726 2.964 37.352 37.352 0 0 1-4.253-1.929z" fill="#CCC"/><path d="M526.464 165.756c2.355-.437 3.228-.315 3.228-.315s4.051-.224 7.726.355c0 0 2.497 14.355 2.487 14.883-4.548 1.553-10.253 1.604-15.37.152 0-.091 1.929-15.075 1.929-15.075z" fill="#E5E5E5"/><path d="M524.748 179.177c.498-3.919 1.716-13.411 1.716-13.411.751-.142.842-.223 1.309-.274l.173 4.68h8.731l-.437-4.528c.396.041.792.102 1.188.163 0 0 1.756 10.121 2.325 13.675l.639 3.258s-6.761 2.782-16.314.325l.67-3.888z" fill="#FC597F"/><path d="M532.748 167.705c-1.645-.031-3.096-1.127-3.167-2.274 1.502-.153 2.822-.01 2.822-.01l.345.01s1.35-.081 3.046.193c-.163 1.116-1.422 2.111-3.046 2.081z" fill="#EE8C72"/><path d="M534.88 162.142h-4.051v4.152h4.051v-4.152z" fill="#EE8C72"/><path d="M530.829 164.883v-2.741h4.051v2.213c-.853.264-2.427.639-4.051.528z" fill="#DD725E"/><path d="M538.869 155.188s2.416-.853 2.416 1.563c0 2.417-2.416 1.696-2.416 1.696v-3.259z" fill="#EE8C72"/><path d="M526.24 155.188s-2.416-.853-2.416 1.563c0 2.417 2.416 1.696 2.416 1.696v-3.259z" fill="#F7A184"/><path d="M526.007 157.848c0 3.502 3.056 6.334 6.832 6.334 3.777 0 6.832-2.832 6.832-6.334v-5.625c0-3.502-3.055-6.334-6.832-6.334-3.776 0-6.832 2.832-6.832 6.334v5.625z" fill="#F7A184"/><path d="M532.839 163.635c3.777 0 6.832-2.833 6.832-6.335v.548c0 3.502-3.055 6.335-6.832 6.335-3.776 0-6.832-2.833-6.832-6.335v-.548c0 3.502 3.056 6.335 6.832 6.335zM535.326 153.492s-3.015-1.553-3.116-3.471c0 0-2.163 2.862-2.264 4.324 0 0-1.513-1.056-1.756-2.365 0 0-1.056.944-2.183 2.233v-1.99c0-3.502 3.056-6.334 6.832-6.334 3.777 0 6.832 2.832 6.832 6.334v3.96c-.71-.721-2.284-2.112-4.345-2.691z" fill="#EE8C72"/><path d="M535.194 160.436h-3.786s-.376-.011-.102.568c.173.366.63 1.127 1.929 1.157 1.553.041 2.081-1.187 2.081-1.187s.254-.538-.122-.538z" fill="#D24646"/><path d="M531.245 160.832c-.132-.416.173-.406.173-.406h3.786c.285 0 .214.294.163.446-.741.193-2.224.427-4.122-.04z" fill="#fff"/><path d="M533.966 158.061s1.036-.041 1.036.853c0 .893-1.614.659-1.665 0-.041-.67-.132-5.543.629-.853z" fill="#EE8C72"/><path d="M531.55 155.209a.282.282 0 0 0-.203-.346c-.01 0-.538-.132-1.167-.132-.315 0-.66.031-.995.143a.286.286 0 0 0-.183.365.288.288 0 0 0 .365.183c.244-.081.538-.112.813-.112a4.846 4.846 0 0 1 1.035.122c.02.01.051.01.071.01a.3.3 0 0 0 .264-.233zM538.301 155.209a.282.282 0 0 0-.203-.346c-.01 0-.538-.132-1.167-.132-.315 0-.66.031-.995.143a.286.286 0 0 0-.183.365.288.288 0 0 0 .365.183c.244-.081.538-.112.813-.112a4.846 4.846 0 0 1 1.035.122c.02.01.051.01.071.01.112-.01.223-.101.264-.233z" fill="#903D1F"/><path d="M525.784 156.02s.121.193.873 1.645c0 0-.549-3.868 1.868-7.168 0 0-.447.762 1.269 3.3.568-1.655 1.258-4.213 2.812-5.208-.274.903.731 2.111 1.198 2.822 1.401 2.152 4.497 2.132 5.746 4.447 0 0 1.776-1.046 1.208-5.229-.569-4.182-4.63-7.705-9.005-6.375-.01 0-11.208-.406-5.969 11.766z" fill="#903D1F"/><path d="M528.687 149.371c0 1.005.853 2.762.853 2.762.051-2.011 3.522-5.33 3.522-5.33 0 1.309 1.655 3.665 1.655 3.665 1.107 2.111 3.614 2.01 4.528 3.421.497.771.569 1.38.528 1.766a2.063 2.063 0 0 1-.234.193c-1.248-2.315-4.345-2.294-5.746-4.446-.467-.711-1.482-1.919-1.198-2.823-1.563.995-2.253 3.543-2.812 5.208-1.715-2.538-1.269-3.299-1.269-3.299a9.852 9.852 0 0 0-1.604 3.523c-.121-3.005 1.777-4.64 1.777-4.64z" fill="#752B14"/><path d="M526.017 146.406s-5.776-.538-5.055 1.37c.72 1.899 2.609 4.305 3.512 3.452.904-.853 1.929-4.04 1.929-4.04l-.386-.782zM526.647 145.97s1.523-5.594 3.056-4.254c1.533 1.34 3.116 3.949 2 4.508-1.117.548-4.457.385-4.457.385l-.599-.639z" fill="#FCD772"/><path d="M526.088 147.614a.493.493 0 0 0 .691.122l.913-.63a.49.49 0 0 0 .122-.69l-.721-1.035a.49.49 0 0 0-.69-.122l-.914.629a.491.491 0 0 0-.121.691l.72 1.035z" fill="#FFC127"/><path d="M525.611 146.508s-3.655.386-3.38.964c.284.579 3.38-.964 3.38-.964zM525.824 146.803c-.071.05-3.461 1.746-3.126 2.243.345.488 3.126-2.243 3.126-2.243zM525.987 147.036s-2.599 2.64-2.264 2.904c.335.274 2.264-2.904 2.264-2.904zM526.931 145.544s1.208-2.751 1.533-2.69c.325.06-.233 1.461-1.533 2.69zM527.165 145.807s2.162-2.477 2.578-1.868c.416.609-2.578 1.868-2.578 1.868zM527.53 146.345s2.294-1.594 2.487-.995c.193.599-2.487.995-2.487.995z" fill="#FFC127"/><path d="M538.037 155.99c-.051.183-.294.244-.426.254a.676.676 0 0 0-.366-.112c-.406 0-.731.376-.731.833 0 .457.325.832.731.832.406 0 .731-.375.731-.832a.869.869 0 0 0-.061-.325c.183-.244.122-.65.122-.65zM530.545 156.122a.692.692 0 0 0-.376.121c-.111-.01-.416-.05-.477-.264 0 0-.071.467.173.691a.798.798 0 0 0-.041.274c0 .457.325.832.731.832.406 0 .731-.375.731-.832-.02-.447-.345-.822-.741-.822z" fill="#602C05"/><path d="M538.26 172.659c-.447-.731-1.929-2.619-3.371-2.517-1.482.101-2.862 1.847-3.269 2.517l-.933-.568c.071-.122 1.786-2.883 4.131-3.036 2.406-.152 4.295 2.914 4.376 3.036l-.934.568z" fill="#FFE3D4"/><path d="M521.337 172.05c4.223-.162 21.948.102 23.471.081.954-.01 2.305 3.422 2.416 7.594.081 3.35-1.594 6.619-2.304 6.721-5.543.822-18.213.426-23.086.558-1.523.041-2.04-4.548-2.132-6.741-.101-2.183.285-8.162 1.635-8.213z" fill="#FFE3D4"/><path d="M531.864 179.471c0 .254-.01.498-.02.741-.01.224-.02.447-.04.67-.153 2-.579 3.777-.945 4.548l-.081.163c-.081.142-.152.233-.223.243-.071.021-.305.041-.66.051h-.01c-.944.031-2.69.031-4.325 0-.101 0-.203-.01-.294-.01-1.757-.041-3.3-.132-3.421-.264-.295-.315-1.188-4.507-1.077-6.375.132-2.224.752-5.472 1.117-6.02.305-.457 9.025-.193 9.34-.011.315.193.639 4.193.639 6.264z" fill="#CC8869"/><path d="M525.357 178.355s.518-.041 1.32-.061c.802-.021 1.147.213 1.36.132.213-.082.995-1.026 1.452-.924.457.101.406 1.391.457 1.634.05.244.213 1.371 0 2.224-.244.954-1.411 1.675-3.066 1.695-2.031.02-2.467-.345-2.863-.761-.751-.782-.447-2.549-.487-3.269-.041-.721.193-1.533.457-1.604.253-.071 1.37.934 1.37.934z" fill="#fff"/><path d="M531.844 180.212c-.01.223-.02.447-.04.67-.153 2-.579 3.776-.945 4.548l-.081.162c-.081.143-.152.234-.223.244-.071.02-.305.041-.66.051h-.01c-.944.03-2.69.03-4.325 0-.101 0-.203-.01-.294-.01-.467-.274-1.015-.741-.975-1.381.071-1.096.914-2.345.914-2.345l4.304-1.777c.071.112.508.356 1.432.142.314-.06.639-.223.903-.304z" fill="#fff"/><path d="M524.453 184.354s-.69.305-1.248.731c-.376.285-1.107 1.249-.548 1.676.558.426 1.197-.153 1.624-.447.426-.295 2.162-.833 2.162-.833l-1.99-1.127z" fill="#fff"/><path d="M527.509 184.354s-.69.305-1.249.731c-.375.285-1.106 1.249-.548 1.676.559.426 1.198-.153 1.625-.447.426-.295 2.162-.833 2.162-.833l-1.99-1.127z" fill="#fff"/><path d="M525.347 179.857c-.203-.274-.366.213-.193.396.213.224.294-.244.203-.386-.01 0-.01 0-.01-.01zM528.25 179.928c-.203-.275-.365.213-.193.395.203.214.295-.243.203-.375l-.01-.02zM527.448 181.218c-.121.061-.233.122-.365.04a.3.3 0 0 1-.142-.253c.02-.021.05-.031.071-.051.04-.041.061-.081.091-.132.01-.031.01-.061.01-.102a.122.122 0 0 0-.091-.142 1.26 1.26 0 0 0-.386-.03c-.061 0-.122.04-.132.101-.03.142.051.234.142.315-.04.132-.061.223-.193.264-.111.03-.223.051-.304-.051-.112-.132-.305.061-.193.193.142.173.376.183.569.112.081-.031.172-.061.233-.132.01-.01.02-.031.03-.041a.551.551 0 0 0 .132.132c.224.152.457.102.681-.02.132-.051 0-.284-.153-.203z" fill="#5F3A2B"/><path d="M544.321 185.39c-4.305.315-8.619.365-12.934.142-.172-.01-.172.264 0 .274 4.315.224 8.629.173 12.934-.142.183-.01.183-.284 0-.274zM534.484 174.385a.434.434 0 0 0-.366-.345c-.172-.02-.304.102-.355.254a.278.278 0 0 0 0 .254c.03.112.081.213.142.294a.31.31 0 0 0 .102.102c.01.02.02.04.04.051.122.111.315.061.396-.071.102-.132.081-.386.041-.539zM537.874 173.918c-.162-.101-.396-.071-.477.122-.081.193-.081.508.02.68a.28.28 0 0 0 .396.102c.142-.02.234-.142.244-.295.03-.213.02-.477-.183-.609zM541.458 173.868c-.041-.051-.122-.082-.183-.051a.255.255 0 0 0-.253.101c-.082.112-.102.315-.092.457a.4.4 0 0 0 .122.254s0 .01.01.01c.01.051.041.081.081.091.082.092.203.143.345.082.153-.061.204-.244.193-.406 0-.193-.111-.386-.223-.538zM545.153 174.324a.516.516 0 0 0-.132-.315c-.061-.091-.142-.162-.254-.162-.274-.021-.314.284-.304.497.01.223.152.447.406.437.223-.021.304-.264.284-.457z" fill="#F0B695"/><path d="M519.266 184.537a1.585 1.585 0 0 1-.477.112c-.386.03-1.147-.112-1.269-.863-.396-2.376-.274-2.813-.163-2.924 0-.305.183-.599.447-.711l2.498-.883.03-.01.03.01c.102.03.295.162.254.416-.051.386-.294.548-.558.66l-1.218.477c.67-.04 1.715-.111 2.213-.152h.061l.03.041c.01.01.163.233.081.446-.091.254-.274.366-.507.467l-.061.031h-.02l-.64.122 1.482.01h.02l.021.01a.17.17 0 0 1 .091.111c.031.102-.01.224-.112.386a.72.72 0 0 1-.355.285.877.877 0 0 1-.447.071l-1.096.121c.518.071 1.239.163 1.756.234l.051.01.031.041c.02.03.091.182-.132.446a.544.544 0 0 1-.203.142 1.502 1.502 0 0 1-.518.112h-.812c.01.467-.264.68-.508.782zM546.453 184.537c.132.061.295.091.477.112.386.03 1.147-.112 1.269-.863.396-2.376.274-2.813.163-2.924 0-.305-.183-.599-.447-.711l-2.497-.883-.031-.01-.03.01a.368.368 0 0 0-.254.416c.051.386.294.548.558.66l1.219.477c-.671-.04-1.716-.111-2.214-.152h-.061l-.03.041c-.01.01-.162.233-.081.446.091.254.274.366.507.467l.061.031H545.083l.639.122-1.482.01h-.02l-.021.01a.17.17 0 0 0-.091.111c-.03.102.01.224.112.386a.72.72 0 0 0 .355.285c.142.06.305.091.447.071l1.096.121c-.518.071-1.238.163-1.756.234l-.051.01-.03.041c-.021.03-.092.182.132.446.04.051.111.102.203.142.142.061.314.102.517.112h.813c-.011.467.263.68.507.782z" fill="#FAA284"/></g><defs><linearGradient id="paint0_linear" x1="563.314" y1="82.955" x2="563.546" y2="99.86" gradientUnits="userSpaceOnUse"><stop stop-color="#502F26"/><stop offset="1" stop-color="#3B221D"/></linearGradient><clipPath id="clip0"><path fill="#fff" transform="translate(428 7)" d="M0 0h433v215.13H0z"/></clipPath></defs></svg>