<svg width="375" height="135" fill="none" xmlns="http://www.w3.org/2000/svg" viewBox="0 0 375 135"><path fill="#F5FCFF" d="M0 0h375v135H0z"/><g clip-path="url(#clip0)"><path d="M121.476 109.822H32c2.092-26.021 24.827-22.199 27.124-21.837.09.012.181.03.272.042 4.359.754 8.241 2.785 11.87 4.956 1.11.663 2.322 1.368 3.679 1.302.645-.036 1.254-.247 1.857-.428a20.836 20.836 0 0 1 7.023-.82c1.616.084 3.31.404 4.48 1.344 2.013 1.622 8.549 4.468 10.237 6.337 2.279-2.532 6.656-2.78 10.4-2.412 2.599.254 5.221.712 7.488 1.815 2.267 1.109 4.642 7.518 5.046 9.701z" fill="url(#paint0_linear)"/><path d="M292.827 43.352v78.112h-47.189V39.898l.47-.133 1.929 1.272 16.236-3.847 15.26 3.298 1.085.23 5.197 1.12.621.133.47.103 5.921 1.278z" fill="#D6ECFF"/><path d="M280.528 48.615l-34.945 48.81.055-10.857 28.149-39.406 5.746 1.236.995.217zM292.827 55.669v11.027l-36.645 51.819-8.561.464 45.206-63.31z" fill="#EBF6FF"/><path d="M280.618 40.717v78.263h-1.085V40.488l1.085.23zM262.26 38.161h-1.085v80.819h1.085V38.161z" fill="#9AC0E2"/><path d="M292.824 62.156v-1.242h-50.156v1.242h50.156zM292.826 75.145v-1.242H242.67v1.242h50.156zM296.064 51.967l-3.237-.699-3.925-.844-1.996-.434-6.288-1.357-1.085-.235-33.895-7.313-5.921-1.278-.832-.181V31.71l17.846 3.852 6.819 1.472.723.156 15.26 3.298 1.085.23 5.197 1.12.621.133.47.103 5.921 1.278.771.169 2.466 8.446z" fill="#9AC0E2"/><path d="M240.206 33.042v5.824l54.695 11.805-1.809-6.216-52.886-11.413zM294.256 117.515h-48.618v3.949h48.618v-3.949z" fill="#9AC0E2"/><path opacity=".3" d="M249.569 121.464h-3.141v-80.21l3.141.675v79.535z" fill="#929DA3"/><path d="M152.803 67.963H87.231v53.531h65.572V67.963z" fill="#9AC0E2"/><path d="M146.364 88.153H93.52v33.341h52.844v-33.34z" fill="#1B3A52"/><path d="M146.364 119.275H93.52v2.219h52.844v-2.219z" fill="#324A4F"/><path d="M110.184 94.581c0 .066-.259.12-.579.12-.319 0-.579-.054-.579-.12s.26-.12.579-.12c.32-.007.579.048.579.12z" fill="#A3CF6F"/><path opacity=".85" d="M135.41 100.881h-29.928c-.429 0-.658-.331-.507-.729l2.382-7.609c.15-.404.621-.7 1.049-.73 2.14-.138 5.872-.259 8.916-.313 1.188-.024 2.279-.036 3.124-.036.687 0 1.537.006 2.471.018.971.012 2.032.03 3.105.054 1.912.049 3.859.115 5.372.205.368.024.706.048 1.013.073.428.036.904.325 1.055.73l2.448 7.608c.157.404-.072.729-.5.729z" fill="#5BC4F1"/><path d="M136.458 102.231a.39.39 0 0 1-.391.392h-31.008a.39.39 0 0 1-.392-.392v-2.942c0-.217.175-.392.392-.392h31.008a.39.39 0 0 1 .391.392v2.942z" fill="#0089CC"/><path d="M116.991 102.942c0 .615-.5 1.116-1.115 1.116h-7.175a1.117 1.117 0 0 1-1.115-1.116s-.247-2.538-.314-3.43c-.042-.615.501-1.115 1.116-1.115h7.795c.615 0 1.164.506 1.116 1.115-.067.964-.308 3.43-.308 3.43zM126.48 97.987c0 .217.175.392.392.392h3.527a.391.391 0 0 0 .392-.392V96.16a.391.391 0 0 0-.392-.391h-3.527a.391.391 0 0 0-.392.391v1.827zM114.435 97.987a.391.391 0 0 1-.392.392h-3.527a.391.391 0 0 1-.392-.392V96.16c0-.217.175-.391.392-.391h3.527c.217 0 .392.174.392.391v1.827zM123.906 102.942c0 .615.501 1.116 1.116 1.116h7.174c.615 0 1.115-.501 1.115-1.116 0 0 .223-2.484.314-3.43.054-.61-.501-1.115-1.115-1.115h-7.796c-.615 0-1.164.506-1.115 1.115.066 1.025.307 3.43.307 3.43z" fill="#0089CC"/><path d="M128.681 99.422c-1.911 0-3.461 1.194-3.461 2.671 0 1.477 1.55 2.671 3.461 2.671 1.911 0 3.461-1.194 3.461-2.671 0-1.477-1.55-2.671-3.461-2.671zm0 4.534c-1.333 0-2.418-.832-2.418-1.863 0-1.031 1.079-1.863 2.418-1.863 1.332 0 2.418.832 2.418 1.863 0 1.025-1.086 1.863-2.418 1.863z" fill="#007CC5"/><path d="M105.476 111.619v8.917c0 .422-.332.777-.79.91a1.311 1.311 0 0 1-.374.054h-3.346c-.133 0-.259-.018-.374-.054-.458-.127-.79-.488-.79-.91v-8.917c0-.223.09-.428.247-.591.079-.078.169-.151.272-.205.084-.048.175-.084.271-.109.121-.036.247-.054.374-.054h3.346c.133 0 .259.018.374.054.223.061.41.175.548.326a.838.838 0 0 1 .242.579zM135.446 120.536c0 .53.524.958 1.169.958h3.347c.645 0 1.169-.434 1.169-.958v-8.917c0-.531-.524-.959-1.169-.959h-3.347c-.645 0-1.169.434-1.169.959v8.917z" fill="#192D4B"/><path d="M103.721 100.049h-1.134v.832h1.134v-.832zM138.424 100.049h-1.133v.832h1.133v-.832z" fill="#14AFEB"/><path d="M140.878 111.378l-.018.253c-.054.657-.211 2.436-.434 3.605a5.979 5.979 0 0 1-.187.76c-.374 1.067-.326 1.525-1.61 1.525h-36.355c-1.284 0-1.236-.464-1.61-1.525a5.386 5.386 0 0 1-.186-.76c-.224-1.169-.38-2.948-.435-3.605a40.87 40.87 0 0 1-.018-.253l.284.018 4.919.259 15.23.808 15.229-.808 4.92-.259.271-.018z" fill="#0089CC"/><path d="M102.865 100.881s-1.972.036-2.617-.067c-.542-.09-1.236-.53-1.302-1.187-.048-.5.18-.899.977-1.212.512-.205 1.682-.308 2.381-.356a.507.507 0 0 1 .555.519c.006.572.006 2.303.006 2.303zM138.146 100.881s1.966.036 2.617-.067c.543-.09 1.236-.53 1.302-1.187.049-.5-.181-.899-.976-1.212-.513-.205-1.682-.308-2.382-.356a.507.507 0 0 0-.554.519c-.007.572-.007 2.303-.007 2.303zM140.962 107.543c0 .187-.006.446-.006.742-.006.53-.024 1.175-.036 1.742-.018.748-.036 1.351-.036 1.351l-.284.012-4.919.259-15.23.808-15.229-.808-4.92-.259-.283-.012s-.018-.603-.036-1.351c-.024-.886-.048-1.971-.048-2.484 0-.657.205-1.7.373-2.2a4.428 4.428 0 0 1 1.013-1.658l.127-.127c.561-.537 1.754-1.266 1.754-1.266s.302 1.61 17.243 1.941c16.942-.331 17.243-1.941 17.243-1.941s.597.368 1.146.772c.229.169.446.337.609.494.416.398.868.983 1.139 1.785.175.5.38 1.543.38 2.2z" fill="#14AFEB"/><path d="M136.277 102.942h-31.658v-2.013s7.199-.73 15.832-.7c8.634.031 15.832.658 15.832.658v2.055h-.006zM130.665 105.102h-20.409c-.5 0-.615.518-.524.88.096.386.289 1.181.458 1.839.187.735.983 1.121 1.604 1.175 2.152.199 8.615.742 8.615.742H120.512s6.463-.543 8.615-.742c.621-.06 1.417-.44 1.604-1.175.169-.658.362-1.453.458-1.839.084-.362-.024-.88-.524-.88z" fill="#0082C8"/><path d="M133.125 108.755l6.203-.56s.037-2.032.037-2.701c0-1.26-.808-1.821-1.508-1.869-1.187-.091-3.237.94-4.027 2.074-.886 1.266-.705 3.056-.705 3.056zM107.73 108.755l-6.204-.56s-.036-2.032-.036-2.701c0-1.26.814-1.984 1.514-2.032 1.187-.091 3.231 1.097 4.021 2.231.886 1.272.705 3.062.705 3.062z" fill="#fff"/><path d="M122.652 93.019a.78.78 0 0 1-.778.778h-2.827a.78.78 0 0 1-.778-.778.78.78 0 0 1 .778-.778h2.827a.78.78 0 0 1 .778.778z" fill="#0082C8"/><path d="M120.62 91.88h-.325v.573h.325v-.573z" fill="#0082C8"/><path d="M120.747 91.88a.283.283 0 1 1-.566 0 .283.283 0 0 1 .566 0z" fill="#0094DA"/><path d="M135.614 95.793c-.374-.899-.964-2.382-1.272-2.979-.747-1.477-1.676-2.212-2.846-2.538-.506-.145-1.055-.205-1.658-.223-.307-.006-.621-.018-.952-.024l-2.165-.054c-2.399-.055-4.853-.103-6.233-.103h-.091c-1.007 0-2.574.03-4.281.06-.898.019-1.832.037-2.737.06-.476.013-.94.025-1.386.03-.326.007-.639.019-.947.025-.603.012-1.157.078-1.658.223-1.17.326-2.092 1.061-2.84 2.538-.301.597-.898 2.062-1.272 2.978-.904 2.231-2.092 4.83-2.074 6.5 0 0 .055.289 1.411.651.826.217 2.128.464 4.184.681.446.048.923.091 1.441.139 2.448.211 5.752.386 10.201.476 4.45-.09 7.748-.265 10.195-.476a51.447 51.447 0 0 0 1.441-.139c2.062-.217 3.364-.464 4.184-.681 1.363-.362 1.417-.651 1.417-.651.03-1.664-1.025-4.01-2.062-6.493zm-.114 5.082c-.03.006-.055.006-.085.006h-29.928c-.03 0-.06 0-.09-.006-.368-.042-.555-.35-.416-.723l2.387-7.567c.151-.404.621-.741 1.049-.766.133-.006.272-.018.41-.024.79-.048 1.755-.09 2.792-.126.452-.018.922-.03 1.399-.043 2.689-.078 5.613-.12 7.427-.12 1.664 0 4.257.018 6.741.078.711.018 1.417.037 2.086.06 1.043.037 2.001.085 2.797.14.121.005.235.017.344.023.428.037.904.368 1.055.766l2.448 7.572c.138.38-.049.688-.416.73z" fill="#14AFEB"/><path d="M104.674 114.573a1.266 1.266 0 1 1-2.532 0 1.266 1.266 0 0 1 2.532 0zM136.217 114.573a1.266 1.266 0 1 0 2.532 0 1.266 1.266 0 0 0-2.532 0z" fill="#fff"/><path opacity=".3" d="M112.035 90.022l-.386 1.64-2.171 9.237-.645 2.743c-2.062-.223-3.37-.464-4.196-.681l.778-2.068 3.436-9.104.573-1.513c.507-.145 1.061-.211 1.664-.223.302-.019.621-.025.947-.03zM136.362 102.955c-.826.217-2.134.464-4.196.681l-.645-2.743-2.177-9.255-.38-1.616c.326.006.645.019.953.025.603.012 1.151.078 1.658.223l.573 1.513 3.436 9.104.778 2.068z" fill="#fff"/><path d="M130.719 103.774c-2.454.211-5.764.386-10.219.477-4.462-.091-7.772-.266-10.226-.477l.658-2.881h18.967l.82 2.881z" fill="#5AC8F5"/><path d="M146.364 77.108H93.52v11.045h52.844V77.108z" fill="url(#paint1_linear)"/><path d="M146.364 78.748H93.52v1.706h52.844v-1.706zM146.364 81.78H93.52v1.707h52.844V81.78zM146.364 84.808H93.52v1.706h52.844v-1.706z" fill="#ABCDEB"/><path opacity=".4" d="M152.797 70.82v17.333H87.231v-18.46l65.566 1.127z" fill="#929DA3"/><path d="M152.803 67.076H82.439v3.847h70.364v-3.847z" fill="#9AC0E2"/><path d="M152.803 24.428H86.538v42.649h66.265v-42.65z" fill="#EBF6FF"/><path d="M152.797 27.375H88.112v39.707l-4.72.133 1.313-45.308s20.457 1.073 26.643 1.2c6.185.127 41.449 1.326 41.449 1.326v2.942z" fill="#D6ECFF"/><path d="M153.37 19.128H82.439v51.608h4.793V24.62l66.138-.193v-5.3z" fill="#9AC0E2"/><path d="M144.091 36.04h-41.389v31.042h41.389V36.04z" fill="#D6ECFF"/><path d="M124.726 36.413l-22.024 27.89v-7.132l16.658-21.132 5.366.374zM143.018 36.413l-23.911 30.663h-5.896l24.448-31.037 5.359.374z" fill="#EBF6FF"/><path d="M144.091 43.545h-41.389v.693h41.389v-.693z" fill="#9AC0E2"/><path d="M112.738 67.079V36.856h-.693v30.223h.693zM123.843 67.08V36.856h-.694V67.08h.694zM134.947 67.08V36.858h-.693v30.224h.693z" fill="#9AC0E2"/><path d="M144.091 36.04h-41.389v1.325h41.389V36.04z" fill="#9AC0E2"/><path d="M152.797 27.376h-1.435v39.707h1.435V27.376z" fill="#D6ECFF"/><path opacity=".1" d="M151.362 66.45h-63.25v.626h63.25v-.627z" fill="#929DA3"/><path d="M152.484 34.44v87.024h93.944V12.694h-23.531l-69.979 21.608-.434.139z" fill="#EBF6FF"/><path d="M246.428 12.694h-1.441v108.601h1.441v-108.6z" fill="#D6ECFF"/><path d="M152.484 37.329v8.042l.434-.138 93.51-28.88v-3.659h-14.174l-6.548 2.02-2.809.868-69.979 21.614-.434.133z" fill="#D6ECFF"/><path d="M146.153 36.244v8.043l8.387-2.593.44-.133 93.51-28.878 5.311-1.64V3l-26.039 8.043-2.804.868-69.978 21.608-.44.139-8.387 2.586z" fill="#9AC0E2"/><path d="M252.77 10.295V4.381L147.178 36.99v5.915l105.592-32.61zM214.667 67.963H186.15v53.501h28.517V67.963z" fill="#9AC0E2"/><path d="M213.154 69.536h-25.425v50.843h25.425V69.536z" fill="#D6ECFF"/><path d="M208.343 69.543l-20.614 26.105v-7.132l14.952-18.973h5.662zM213.087 79.55v7.338l-25.358 32.521v-7.645l25.358-32.213z" fill="#EBF6FF"/><path d="M214.667 77.11H187.03v2.08h27.637v-2.08z" fill="#9AC0E2"/><path d="M232.513 67.969h-19.366v53.501h19.366V67.969z" fill="#9AC0E2"/><path d="M230.722 69.536h-15.778v51.934h15.778V69.536z" fill="#D6ECFF"/><path d="M227.153 69.536l-12.209 15.657-.03.037v-7.651l.03-.036 6.307-8.007h5.902z" fill="#EBF6FF"/><path d="M168.178 55.972h65.239v-8.96h-65.239v8.96z" fill="#9AC0E2"/><path d="M232.47 47.965h-63.346v7.066h63.346v-7.066z" fill="#D6ECFF"/><path d="M213.955 55.972h.946v-8.96h-.946v8.96zM186.694 55.972h.947v-8.96h-.947v8.96z" fill="#9AC0E2"/><path d="M183.539 47.965l-5.33 7.066h-5.552l5.323-7.066h5.559zM205.876 47.965l-5.329 7.066h-5.553l5.324-7.066h5.558zM229.601 47.965l-5.33 7.066h-5.553l5.324-7.066h5.559z" fill="#EBF6FF"/><path d="M232.188 77.108h-27.637v2.08h27.637v-2.08zM187.754 67.969h-19.378v53.501h19.378V67.969z" fill="#9AC0E2"/><path d="M185.963 69.536h-15.79v50.849h15.79V69.536z" fill="#D6ECFF"/><path d="M187.41 77.108h-18.738v2.08h18.738v-2.08z" fill="#9AC0E2"/><path d="M185.963 90.703v7.18l-15.79 20.017v-7.193l15.79-20.004zM185.963 113.97v6.415h-5.083l5.083-6.415zM213.087 105.631v6.644l-5.854 8.109h-5.619l11.473-14.753zM230.734 83.228v7.367l-15.79 20.245v-7.566l15.79-20.046z" fill="#EBF6FF"/><path d="M151.583 121.463h94.849v-1.079h-94.849v1.079z" fill="#9AC0E2"/><path opacity=".15" d="M144.489 77.809c.036.15 1.731 7.825 3.383 10.363.205.314.385.652.542 1.001.241.398.386.615.386.615l.259-1.453c-1.23-2.116-3.442-6.264-4.57-10.526zM149.059 88.335c.259.44.47.796.627 1.043 0-.048.006-.09.012-.132.308-4.22.464-6.168.537-7.054.006-.043-.061-.055-.067-.012l-1.109 6.155z" fill="#000"/><path d="M148.576 93.947c.133 2.237.097 20.366 2.261 27.547h-4.925s1.64-25.153 1.121-32.255c-.307-4.22-.464-6.168-.537-7.054-.006-.042.061-.054.067-.006l1.368 7.608s3.841-5.872 5.451-11.985c0 0-1.719 7.801-3.383 10.37-1.097 1.688-1.525 4.015-1.423 5.775z" fill="#A36868"/><path d="M148.185 89.378c.494 7.277-1.128 32.117-1.128 32.117h-1.145s1.64-25.153 1.121-32.255a738.18 738.18 0 0 0-.537-7.054c-.006-.042.061-.055.067-.012l1.368 7.608c-.006.006.091-.138.254-.404z" fill="#916464"/><path d="M137.586 88.654c.024 1.46.651 2.882 1.73 3.925.265.26.567.507.681.85.139.422-.036.875-.168 1.303-.67 2.134-.217 4.527 1.23 6.252 1.447 1.718 3.87 2.701 6.246 2.478a7.129 7.129 0 0 0 2.779-.869c1.049-.584 2.219-.952 3.298-1.477 1.254-.615 2.502-1.615 2.918-2.972a3.43 3.43 0 0 0 .133-.657c.036-.344.024-.73.223-1 .205-.272.554-.345.868-.435 1.447-.398 2.725-1.44 3.454-2.822.736-1.38.917-3.086.495-4.612-.706-2.538-2.864-4.262-4.878-5.818-.175-.138-.361-.283-.458-.494-.133-.302-.048-.651.036-.97.38-1.526.549-3.106.519-4.685-.036-1.7-.392-3.545-1.61-4.655-1.055-.964-2.526-1.163-3.925-1.236-.054 0-.114-.006-.169-.006-1.646-.072-3.352-.042-4.859.663l.018.043c-1.007-.042-2.002.416-2.737 1.073-.736.657-1.242 1.507-1.652 2.375-.314.67-.585 1.369-.615 2.086-.03.724.211 1.477.778 1.954.114.096.247.193.265.337.012.103-.042.205-.096.302-.851 1.495-1.96 2.852-2.882 4.31-.917 1.46-1.652 3.081-1.622 4.757z" fill="url(#paint2_linear)"/><path opacity=".2" d="M137.586 88.654c.024 1.46.651 2.882 1.73 3.925.265.26.567.507.681.85.139.422-.036.875-.168 1.303-.67 2.134-.217 4.527 1.23 6.252 1.447 1.718 3.87 2.701 6.246 2.478a7.129 7.129 0 0 0 2.779-.869c1.049-.584 2.219-.952 3.298-1.477 1.254-.615 2.502-1.615 2.918-2.972a3.581 3.581 0 0 1-1.447.398c-1.019.066-2.02-.241-2.978-.609-.103-.042-.211-.084-.32-.072-.151.018-.277.126-.398.229-1.29 1.14-3.099 1.742-4.727 1.254-1.627-.488-2.924-2.213-2.695-3.961.067-.513.254-1.02.217-1.538-.12-1.621-2.297-2.477-2.339-4.105-.036-1.188 1.067-2.002 1.851-2.858 1.869-2.038 2.219-5.384.898-7.85-.15-.277-.313-.542-.416-.844-.211-.627-.102-1.32.109-1.941.555-1.64 1.839-2.99 3.406-3.594 0 0 2.255-.904 3.69-1.893-.054 0-.114-.006-.169-.006-1.646-.072-3.352-.042-4.859.663l.018.043c-1.007-.042-2.002.416-2.737 1.073-.736.657-1.242 1.507-1.652 2.375-.314.67-.585 1.369-.615 2.086-.03.724.211 1.477.778 1.954.114.096.247.193.265.337.012.103-.042.205-.097.302-.85 1.495-1.959 2.852-2.881 4.31-.911 1.46-1.646 3.081-1.616 4.757z" fill="#6DBD73"/><path d="M289.233 90.53c.121 1.971.091 17.924 2.074 24.248h-4.521s1.507-22.144 1.025-28.39c-.483-6.252-.549-6.837-.549-6.837l1.369 7.319s3.424-5.179 5.824-5.1c0 0-2.394 1.416-3.919 3.677-1.001 1.483-1.399 3.533-1.303 5.083z" fill="#A36868"/><path d="M289.752 85.447c-1.001 1.483-1.399 3.533-1.302 5.089.12 1.971.09 17.924 2.074 24.249h.783c-1.983-6.319-1.953-22.278-2.074-24.25-.096-1.555.302-3.599 1.303-5.088 1.525-2.26 3.918-3.677 3.918-3.677-.482-.018-1.006.18-1.537.506h-.006c-.826.603-2.17 1.712-3.159 3.171z" fill="#916464"/><path d="M287.268 79.55c.006.055.084.833.549 6.838.012.138.018.277.03.428l.012.048s.235-.356.621-.874l-1.212-6.44z" fill="#5D488A"/><path d="M288.474 85.996l.162.874s2.183-3.298 4.281-4.588h.006c.452-.332.754-.506.754-.506-1.773-.067-4.106 2.743-5.203 4.22zM292.507 92.356s-3.008 5.04-3.189 6.729c-.187 1.688-.254-2.346-.254-2.346s3.075-5.1 3.443-4.383z" fill="#5D488A"/><path d="M292.507 92.356s-3.008 5.04-3.189 6.729c-.187 1.688-.254-2.346-.254-2.346s3.075-5.1 3.443-4.383zM288.142 95.226c.03-.09-3.177-6.264-6.354-8.2 0 0 5.01 5.276 6.228 9.864.844 3.165.126-1.664.126-1.664z" fill="#916464"/><path d="M302.026 83.855c-.802.694-1.688 1.32-2.665 1.797-.554.265-.693.952-.373 1.423.06.09.138.174.235.247.006.006.012.006.012.012.778.567 1.598 1.188 1.953 2.158.32.874.187 1.875-.036 2.786-.121.488-.271.988-.561 1.374-.385.507-.97.76-1.531.959-1.562.542-3.358.778-4.733-.217-.259-.187-.56-.422-.838-.278-.132.067-.223.206-.349.278-.26.157-.579 0-.832-.175-.055-.036-.103-.072-.151-.108-.048-.037-.097-.073-.139-.109-.006-.006-.012-.012-.024-.018l-.109-.09c-.012-.007-.018-.019-.03-.025l-.138-.12a7.661 7.661 0 0 1-.404-.386l-.006-.006-.067-.066a8.224 8.224 0 0 1-.723-.905c-.03-.042-.054-.084-.084-.126-.007-.013-.013-.025-.025-.03l-.066-.103c-.084-.139-.169-.277-.241-.422-.024-.042-.042-.084-.066-.127-.019-.036-.043-.078-.061-.114-.006-.018-.018-.036-.024-.055l-.054-.114c-.024-.048-.042-.097-.066-.145-.025-.048-.043-.096-.067-.144-.018-.049-.042-.097-.06-.145-.018-.048-.042-.097-.06-.15a7.441 7.441 0 0 1-.055-.152c-.018-.048-.036-.09-.048-.138l-.054-.163c0-.006-.006-.018-.006-.024 0-.006 0-.006-.006-.012 0-.006-.006-.012-.006-.018-.006-.006-.006-.018-.012-.024-.006-.006-.006-.013-.012-.025-.006-.012-.018-.018-.024-.03l-.012-.012a.379.379 0 0 0-.055-.042c-.006-.006-.012-.006-.024-.012l-.042-.018c-.006 0-.012-.006-.024-.006-.006 0-.012-.006-.024-.006-.006 0-.012 0-.024-.006a.32.32 0 0 0-.181.03h-.006a8.384 8.384 0 0 0-.597.338 6.608 6.608 0 0 1-.537.289l-.084.036-.048.018c-.024.006-.049.018-.067.024-.024.006-.048.019-.072.025a1.26 1.26 0 0 1-.145.042c-.018.006-.036.006-.048.012l-.09.018c-.151.09-.29.18-.422.271-.037.024-.079.048-.115.072-.024.019-.054.03-.078.049-.024.012-.049.03-.073.042-.03.018-.06.03-.09.048l-.072.036c-.019.006-.037.018-.055.024h-.006l-.048.018c-.018.007-.042.019-.06.025l-.049.018a1.43 1.43 0 0 1-.289.066c-.012 0-.018.006-.03.006l-.145.018c-.024 0-.048.006-.072.006h-.006c-.024 0-.054 0-.078.006h-.157c-.024 0-.055 0-.079-.006h-.03c-.03 0-.054-.006-.084-.006-.03 0-.054-.006-.085-.012a1.892 1.892 0 0 1-.253-.048c-.054-.012-.108-.03-.163-.042a2.877 2.877 0 0 1-.319-.115l-.079-.036-.078-.036c-.024-.012-.054-.024-.078-.042-.024-.013-.048-.025-.073-.043-.024-.012-.048-.03-.072-.042-.024-.012-.048-.03-.072-.042a.51.51 0 0 1-.073-.048c-.024-.018-.048-.03-.072-.049a4.808 4.808 0 0 1-.277-.21c-.024-.019-.043-.037-.067-.055-.066-.06-.132-.114-.193-.18-.024-.019-.042-.043-.06-.06a2.105 2.105 0 0 1-.114-.121c-.043-.043-.079-.09-.121-.133-.621-.73-1.025-1.616-1.447-2.478-.139-.283-.301-.59-.597-.712-.356-.15-.747.025-1.133.049-.627.042-1.212-.302-1.743-.64-.753-.476-1.531-.976-2.007-1.736a3.019 3.019 0 0 1-.416-2.062c.048-.307.156-.615.361-.85.043-.048.091-.09.139-.132a2.112 2.112 0 0 1-.524-.585c-.217-.368-.29-.802-.284-1.23.018-1.11.567-2.17 1.357-2.948.79-.784 1.796-1.308 2.839-1.694.356-.133.724-.254 1.025-.483.434-.343.657-.874.947-1.344.832-1.375 2.333-2.297 3.919-2.478a4.953 4.953 0 0 1 1.157 0c1.508.175 2.894 1.073 3.744 2.327.278-.742.694-1.471 1.423-1.869 1.218-.67 2.786-.163 4.021.476a19.647 19.647 0 0 1 2.641 1.634c.302.223.694.465 1.037.308.169-.079.278-.235.44-.32.344-.18.796-.012 1.092.235 5.311 4.45 1.887 9.375.982 10.153z" fill="url(#paint3_linear)"/><path opacity=".5" d="M275.704 82.667a3.025 3.025 0 0 0 .416 2.062c.471.753 1.254 1.26 2.002 1.736.53.338 1.115.687 1.742.639.38-.03.778-.199 1.134-.048.289.12.458.428.597.711.422.862.826 1.743 1.447 2.472.621.73 1.495 1.308 2.453 1.326.959.025 1.297-.373 1.851-.693.621-.09 1.134-.518 1.694-.796h.006a.33.33 0 0 1 .453.193c.518 1.622 1.507 3.057 2.809 3.95.253.174.573.33.832.174.127-.072.217-.217.35-.277.277-.139.585.096.838.277 1.374.995 3.177.76 4.733.217.566-.199 1.145-.446 1.531-.959.295-.385.446-.88.561-1.374.223-.91.349-1.911.036-2.785-.35-.971-1.176-1.592-1.954-2.159-.006-.006-.012-.006-.012-.012a1.033 1.033 0 0 1-.235-.247c-.12.368-.108.796-.03 1.182.133.645.416 1.272.386 1.923-.054 1.11-1.17 2.05-2.279 1.917-.959-.115-1.688-.862-2.472-1.417-.114-.084-.247-.163-.386-.157-.138.006-.259.097-.38.163-.482.247-1.091.055-1.507-.29-.416-.349-.693-.825-1.013-1.265a7.728 7.728 0 0 0-2.14-1.99c-.151-.096-.313-.187-.494-.18-.199 0-.374.12-.531.247-.573.458-1.079 1.079-1.797 1.205-.898.163-1.736-.53-2.188-1.32-.452-.79-.651-1.706-1.103-2.496a4.422 4.422 0 0 0-1.984-1.815c-.585-.271-1.224-.41-1.827-.65-.597-.242-1.181-.616-1.471-1.195-.392-.79-.114-1.778.452-2.441.567-.67 1.381-1.074 2.189-1.423.814-.35 1.658-.663 2.532-.814.597-.103 1.23-.139 1.761-.44.838-.477 1.205-1.52 1.242-2.484a5.568 5.568 0 0 0-.465-2.424c-1.585.187-3.093 1.11-3.919 2.478-.283.47-.512 1.007-.946 1.344-.302.236-.669.356-1.025.483-1.043.386-2.05.91-2.84 1.694-.789.784-1.344 1.839-1.356 2.948-.006.428.072.862.283 1.23.139.235.314.422.525.585a1.333 1.333 0 0 0-.139.133c-.205.24-.313.554-.362.862z" fill="#AACE21"/><path d="M321.133 121.47H241.99c-.91 0-1.417-.88-.862-1.483a9.35 9.35 0 0 1 .826-.802 11.59 11.59 0 0 1 1.694-1.23 12.724 12.724 0 0 1 4.835-1.676c2.11-.283 4.311-.03 6.276.669 2.732.971 5.855.754 8.375-.56.452-.235.91-.464 1.374-.688.024-.012.043-.024.067-.03.301-.144.603-.289.91-.428l.567-.253.066-.03c.066-.03.127-.054.193-.085.078-.036.157-.066.235-.102.121-.054.241-.103.368-.151l.181-.072a25.91 25.91 0 0 1 1.163-.44l.254-.091c.108-.036.217-.072.331-.108.416-.139.832-.265 1.254-.38a21.95 21.95 0 0 1 4.703-.784c.102-.006.205-.012.313-.012.103-.006.211-.006.32-.006h.157c.253-.006.506 0 .759 0 .145 0 .29.006.434.012.109.006.217.006.326.012.096 0 .199.006.301.012 1.55.061 3.123.151 4.576-.036a9.94 9.94 0 0 0 1.23-.235c.006-.006.018-.006.024-.006a6.132 6.132 0 0 0 1.737-.766c.82-.536 1.429-1.26 2.062-1.953.024-.024.042-.048.066-.072.036-.037.066-.073.103-.109a17.758 17.758 0 0 1 2.073-1.887c.236-.187.483-.368.73-.543 2.532-1.796 5.589-3.074 8.833-3.653.705-.127 11.31-3.009 18.219 5.956 4.07 5.27 4.106 11.938 4.07 12.01z" fill="url(#paint4_linear)"/><path opacity=".5" d="M69.53 128.313c15.494 0 28.053-1.104 28.053-2.466s-12.56-2.466-28.052-2.466c-15.494 0-28.054 1.104-28.054 2.466s12.56 2.466 28.054 2.466zM277.435 129.814c36.43 0 65.963-1.199 65.963-2.677 0-1.479-29.533-2.677-65.963-2.677-36.431 0-65.964 1.198-65.964 2.677 0 1.478 29.533 2.677 65.964 2.677z" fill="#C3E1FF"/><path d="M337.737 90.74a5.662 5.662 0 0 1 5.661 5.662v14.475a1.6 1.6 0 0 1-1.597 1.598h-5.481l1.417-21.735z" fill="#C9D0D8"/><path d="M339.051 108.978h1.374c.368 0 .67.301.67.669v2.038h-2.038v-2.707h-.006z" fill="#BF0000"/><path d="M341.089 111.685v3.123a.672.672 0 0 1-.669.669h-1.375v-3.792h2.044z" fill="#FBB03B"/><path d="M291.139 71.96h27.185c.464 0 .838.374.838.838v1.592h-28.861v-1.592c0-.464.374-.838.838-.838z" fill="#1B3A52"/><path d="M331.714 75.426l.742-.742-3.539-3.539a4.933 4.933 0 0 0-3.503-1.453h-63.679v1.05h63.673c1.043 0 2.025.403 2.761 1.145l3.545 3.539z" fill="#E4DFDB"/><path d="M213.099 118.908c.205.102.416.18.639.235.217.054.447.078.676.078h122.714a2.942 2.942 0 0 0 2.942-2.942v-38.2a5.083 5.083 0 0 0-5.082-5.082h-57.011s-3.623-.374-5.787-1.29c-2.165-.917-3.913-2.165-12.33-2.002-4.286.084-9.29.084-13.179.06a80.118 80.118 0 0 0-13.101 1.007 11.557 11.557 0 0 0-6.415 3.31 11.528 11.528 0 0 0-3.201 6.47 5.577 5.577 0 0 0 4.895 6.33l7.518.868-2.074 2.254-8.567 9.321-.561.61-3.611.916a6.733 6.733 0 0 0-4.986 5.42l-.735 4.407-1.484.265a2.903 2.903 0 0 0-2.333 2.327l-.464 2.533a2.9 2.9 0 0 0 1.537 3.105z" fill="#fff"/><path d="M213.099 118.907c.404.205.856.314 1.309.314h39.369v-8.537h-37.94l-1.484.265a2.902 2.902 0 0 0-2.333 2.327l-.464 2.532a2.909 2.909 0 0 0 1.543 3.099z" fill="#8B5E3C"/><path opacity=".25" d="M235.533 88.672h13.553c1.086 0 1.966.88 1.966 1.966v28.589h.983V89.721a1.966 1.966 0 0 0-1.966-1.965h-13.698l-.838.916z" fill="#C9D0D8"/><path d="M224.289 83.372a5.574 5.574 0 0 0 4.57 3.515l7.518.868h13.698c1.086 0 1.966.88 1.966 1.966v29.506h85.093a2.942 2.942 0 0 0 2.942-2.942v-38.2a5.083 5.083 0 0 0-5.082-5.082h-57.01s-3.624-.374-5.788-1.29c-2.165-.917-3.913-2.165-12.33-2.002-4.286.084-9.29.084-13.179.06h-.452c-4.239 0-8.465.338-12.649 1.007a11.556 11.556 0 0 0-6.415 3.31 11.528 11.528 0 0 0-3.201 6.469 5.517 5.517 0 0 0 .319 2.815z" fill="#fff"/><path d="M252.029 110.684v8.537h84.038a3.785 3.785 0 0 0 3.786-3.787v-4.75h-87.824z" fill="#8B5E3C"/><path d="M329.357 112.354h3.563c.338 0 .615.277.615.614a.617.617 0 0 1-.615.615h-3.563a.614.614 0 1 1 0-1.229z" stroke="#C7C7C7" stroke-width=".874" stroke-miterlimit="10"/><path d="M329.357 112.354h3.563c.338 0 .615.277.615.614a.617.617 0 0 1-.615.615h-3.563a.614.614 0 1 1 0-1.229z" fill="#BF0000"/><path d="M282.795 112.354h3.563c.338 0 .615.277.615.614a.617.617 0 0 1-.615.615h-3.563a.614.614 0 1 1 0-1.229z" stroke="#C7C7C7" stroke-width=".874" stroke-miterlimit="10"/><path d="M282.795 112.354h3.563c.338 0 .615.277.615.614a.617.617 0 0 1-.615.615h-3.563a.614.614 0 1 1 0-1.229z" fill="#BF0000"/><path d="M256.285 112.354h3.564c.337 0 .614.277.614.614a.617.617 0 0 1-.614.615h-3.564a.614.614 0 1 1 0-1.229z" stroke="#C7C7C7" stroke-width=".874" stroke-miterlimit="10"/><path d="M256.285 112.354h3.564c.337 0 .614.277.614.614a.617.617 0 0 1-.614.615h-3.564a.614.614 0 1 1 0-1.229z" fill="#BF0000"/><path d="M339.413 78.08H225.435v.656h113.978v-.657zM225.435 77.627h113.978v-1.309H226.218l-.783 1.309z" fill="#8B5E3C"/><path d="M318.209 112.354h-21.367v6.874h21.367v-6.874z" fill="#000004"/><path d="M312.61 125.319a7.911 7.911 0 1 0-10.087-12.19 7.911 7.911 0 0 0 10.087 12.19z" fill="#192D4B"/><path d="M303.137 125.786a7.915 7.915 0 0 0 10.985-2.14 7.915 7.915 0 0 0-6.554-12.335 7.911 7.911 0 0 0-6.571 3.49 7.904 7.904 0 0 0 2.14 10.985zm-3.027-5.112a7.566 7.566 0 0 1 1.152-5.692 7.577 7.577 0 0 1 6.3-3.346 7.55 7.55 0 0 1 4.233 1.296 7.53 7.53 0 0 1 3.207 4.842 7.564 7.564 0 0 1-1.152 5.691 7.575 7.575 0 0 1-6.3 3.346 7.544 7.544 0 0 1-4.232-1.296 7.532 7.532 0 0 1-3.208-4.841z" fill="#192D4B"/><path d="M311.49 122.326a4.999 4.999 0 1 0-7.85-6.191 4.999 4.999 0 0 0 7.85 6.191z" fill="#8C8F98"/><path d="M306.037 118.203a1.824 1.824 0 0 1 2.538-.495c.838.561 1.061 1.7.494 2.538a1.826 1.826 0 0 1-2.538.495 1.836 1.836 0 0 1-.494-2.538z" fill="#192D4B"/><path d="M295.763 111.209v8.019h1.706v-1.405a3.806 3.806 0 0 1 3.805-3.805h12.564a3.805 3.805 0 0 1 3.804 3.805v1.405h2.189v-8.019h-24.068z" fill="#8B5E3C"/><path d="M224.289 83.372a5.574 5.574 0 0 0 4.57 3.515l7.518.868h13.698c1.085 0 1.966.88 1.966 1.966v29.506h45.434v-1.309h-44.126V89.721a3.277 3.277 0 0 0-3.274-3.274h-13.619l-7.44-.856a4.268 4.268 0 0 1-3.497-2.69 4.301 4.301 0 0 1-.247-2.157 10.21 10.21 0 0 1 2.84-5.74 10.176 10.176 0 0 1 5.691-2.936c4.1-.657 8.29-.989 12.444-.989h.446c1.489.006 2.954.012 4.353.012 3.382 0 6.36-.024 8.856-.072.495-.012.983-.012 1.441-.012 2.744 0 4.878.174 6.524.524 1.392.302 2.231.675 3.123 1.073.229.103.464.211.705.308 2.321.983 6.005 1.374 6.162 1.386l.066.007H335a3.78 3.78 0 0 1 3.774 3.774v38.199c0 .905-.736 1.634-1.634 1.634h-19.486v1.309h19.486a2.943 2.943 0 0 0 2.942-2.943v-38.2A5.083 5.083 0 0 0 335 72.997h-57.011s-3.623-.373-5.787-1.29c-2.032-.862-3.702-2.014-10.859-2.014-.464 0-.952.006-1.465.012-2.803.055-5.92.073-8.832.073-1.531 0-3.009-.006-4.347-.012h-.452c-4.239 0-8.465.337-12.649 1.007a11.556 11.556 0 0 0-6.415 3.31 11.528 11.528 0 0 0-3.201 6.469c-.157.994-.03 1.959.307 2.821z" fill="#C9D0D8"/><path d="M238.186 118.021l-.687 2.364a1.493 1.493 0 0 1-1.429 1.073h-13.596a3.46 3.46 0 0 1-3.171-2.068l-.567-1.278 19.45-.091z" fill="#000004"/><path d="M221.884 112.607a9.313 9.313 0 0 1 6.614-2.743 9.297 9.297 0 0 1 6.613 2.743 9.294 9.294 0 0 1 2.738 6.614H219.141a9.324 9.324 0 0 1 2.743-6.614z" fill="#000004"/><path d="M234.566 124.314a7.91 7.91 0 0 0-.978-11.143 7.91 7.91 0 1 0-10.166 12.121 7.91 7.91 0 0 0 11.144-.978z" fill="#192D4B"/><path d="M224.084 125.786a7.913 7.913 0 1 0-2.14-10.985 7.905 7.905 0 0 0 2.14 10.985zm-3.026-5.112a7.577 7.577 0 0 1 7.451-9.038c1.508 0 2.973.446 4.233 1.296a7.53 7.53 0 0 1 3.207 4.842 7.577 7.577 0 0 1-7.452 9.037 7.544 7.544 0 0 1-4.232-1.296 7.527 7.527 0 0 1-3.207-4.841z" fill="#192D4B"/><path d="M233.351 120.45a4.997 4.997 0 1 0-9.694-2.436 4.997 4.997 0 0 0 9.694 2.436z" fill="#8C8F98"/><path d="M226.785 118.07a2.067 2.067 0 1 1 3.43 2.308 2.067 2.067 0 0 1-3.43-2.308z" fill="#192D4B"/><path d="M221.432 112.155a9.936 9.936 0 0 1 7.066-2.925 9.938 9.938 0 0 1 7.066 2.925 9.923 9.923 0 0 1 2.924 7.066h-1.309c0-4.251-3.05-7.79-7.084-8.538a8.736 8.736 0 0 0-1.597-.144c-.549 0-1.08.048-1.598.144a8.687 8.687 0 0 0-7.09 8.538h-1.309a9.96 9.96 0 0 1 2.931-7.066z" fill="#C9D0D8"/><path d="M217.464 108.543c-.795-.211-.813-1.157-.759-1.7.295-2.864 2.194-4.256 2.357-4.371.862-.669 1.447-.404 1.724-.193.76.597.887 2.261.266 3.63-.302.669-.893 1.386-1.586 1.929-.38.295-1.067.747-1.7.747a1.02 1.02 0 0 1-.302-.042zm1.996-5.552l-.018.012c-.018.012-1.815 1.278-2.086 3.906-.036.338-.042.917.277 1.001.302.085.862-.151 1.429-.591.603-.47 1.14-1.115 1.393-1.682.524-1.157.386-2.484-.079-2.845a.448.448 0 0 0-.277-.097c-.175 0-.392.103-.639.296z" fill="#C7C7C7"/><path d="M219.255 102.732s-1.935 1.332-2.231 4.141c-.289 2.81 2.894.748 3.726-1.103.862-1.893.163-4.329-1.495-3.038z" fill="#ECE7C8"/><path d="M217.941 104.733c-.748 1.411-.338 2.761-.018 2.695.331-.036.494-1.103 1.067-2.14.537-1.055 1.326-1.791 1.17-2.08-.127-.302-1.478.114-2.219 1.525z" fill="#F2F2F2"/><path d="M225.175 99.94h.561a4.302 4.302 0 0 0 3.195-1.423l6.313-6.994c.343-.38.422-.904.217-1.369a1.255 1.255 0 0 0-.688-.663l-.211.23-.265.289c.573 0 .874.681.495 1.109l-6.313 6.994a3.69 3.69 0 0 1-2.743 1.218l-.301.325-.26.283z" fill="#C7C7C7"/><path d="M225.736 99.33a3.702 3.702 0 0 0 2.743-1.217l6.312-6.994a.664.664 0 0 0-.494-1.11l-8.561 9.322z" fill="#1B3B52"/><path d="M225.435 99.656h.301c1.14 0 2.225-.483 2.984-1.327l6.313-6.993a.982.982 0 0 0 .169-1.067.992.992 0 0 0-.64-.555l-.265.29c.573 0 .874.68.495 1.109l-6.313 6.993a3.69 3.69 0 0 1-2.743 1.218l-.301.332z" fill="#152D40"/><path opacity=".25" d="M231.036 93.56l.814.815 2.634-2.918-.79-.79-2.658 2.894z" fill="#324A4F"/><path d="M229.673 79.11l2.134-2.068a9.425 9.425 0 0 1 6.56-2.66h17.454c.723 0 1.308.586 1.308 1.31v6.064c0 .724-.585 1.309-1.308 1.309h-24.55c-2.068 0-3.087-2.514-1.598-3.956z" fill="#1B3A52"/><path d="M228.715 81.8a2.72 2.72 0 0 1 .639-3.02l2.134-2.069a9.843 9.843 0 0 1 6.879-2.785h17.454c.977 0 1.766.79 1.766 1.766v6.065c0 .977-.789 1.767-1.766 1.767h-24.55a2.705 2.705 0 0 1-2.556-1.724zm9.652-6.958a8.924 8.924 0 0 0-6.24 2.526l-2.134 2.068c-.657.64-.651 1.46-.428 2.02a1.82 1.82 0 0 0 1.712 1.151h24.55c.47 0 .85-.38.85-.85v-6.065a.85.85 0 0 0-.85-.85h-17.46z" fill="#C9D0D8"/><path opacity=".25" d="M239.555 74.383l7.204 7.205c.38.385.887.572 1.387.572s1.007-.193 1.387-.572a1.963 1.963 0 0 0 0-2.774l-4.432-4.431h-5.546zM249.207 74.383l7.844 7.844c.054-.145.084-.302.084-.47v-3.148l-4.226-4.226h-3.702zM231.928 76.927l6.143 6.144h3.702l-7.663-7.663a9.146 9.146 0 0 0-2.182 1.52z" fill="#324A4F"/><path d="M231.271 83.065h24.55c.723 0 1.308-.585 1.308-1.309v-6.065c0-.723-.585-1.308-1.308-1.308h-17.454a9.414 9.414 0 0 0-6.56 2.659l-2.134 2.067c-1.489 1.442-.47 3.956 1.598 3.956zm-1.146-3.485l2.135-2.068a8.775 8.775 0 0 1 2.809-1.833 8.676 8.676 0 0 1 3.292-.639h17.454c.362 0 .657.295.657.657v6.065a.658.658 0 0 1-.657.657h-24.55c-.82 0-1.327-.53-1.526-1.03-.192-.507-.198-1.236.386-1.81z" fill="#152D40"/><path d="M240.135 83.227h.959v-9.303h-.959v9.303z" fill="#C9D0D8"/><path d="M287.226 101.092h13.065c.265 0 .482.217.482.482h-14.035a.493.493 0 0 1 .488-.482zM287.226 102.074h13.065c.265 0 .482.217.482.483h-14.035a.493.493 0 0 1 .488-.483zM287.226 103.063h13.065c.265 0 .482.218.482.483h-14.035a.494.494 0 0 1 .488-.483zM287.226 104.046h13.065c.265 0 .482.217.482.482h-14.035a.493.493 0 0 1 .488-.482zM287.226 105.035h13.065c.265 0 .482.217.482.482h-14.035a.493.493 0 0 1 .488-.482zM287.226 106.018h13.065c.265 0 .482.217.482.482h-14.035a.493.493 0 0 1 .488-.482zM256.436 101.092h3.262c.265 0 .482.217.482.482h-4.226c0-.265.217-.482.482-.482zM256.436 102.074h3.262c.265 0 .482.217.482.483h-4.226c0-.266.217-.483.482-.483zM256.436 103.063h3.262c.265 0 .482.218.482.483h-4.226c0-.265.217-.483.482-.483zM256.436 104.046h3.262c.265 0 .482.217.482.482h-4.226c0-.265.217-.482.482-.482zM256.436 105.035h3.262c.265 0 .482.217.482.482h-4.226c0-.265.217-.482.482-.482zM256.436 106.018h3.262c.265 0 .482.217.482.482h-4.226c0-.265.217-.482.482-.482z" fill="#C7C7C7"/><path d="M316.057 106.837v-6.722c0-1.085.88-1.966 1.965-1.966h14.03c1.085 0 1.965.88 1.965 1.966v6.722c0 1.085-.88 1.966-1.965 1.966h-14.036a1.965 1.965 0 0 1-1.959-1.966zm1.959-8.03c-.723 0-1.308.584-1.308 1.308v6.722c0 .724.585 1.308 1.308 1.308h14.03c.723 0 1.308-.584 1.308-1.308v-6.722c0-.724-.585-1.308-1.308-1.308h-14.03z" fill="#C9D0D8"/><path d="M331.135 104.54a1.061 1.061 0 1 0 0-2.122 1.061 1.061 0 0 0 0 2.122z" fill="#A19E9A"/><path d="M332.196 103.479c0 .585-.476 1.061-1.061 1.061v-2.122c.585 0 1.061.476 1.061 1.061z" fill="#D9D4D0"/><path d="M263.032 83.246v31.261a2.476 2.476 0 0 0 2.472 2.472h10.792a2.475 2.475 0 0 0 2.471-2.472v-31.26a2.475 2.475 0 0 0-2.471-2.473h-10.792a2.483 2.483 0 0 0-2.472 2.472zm.657 0c0-1 .814-1.814 1.815-1.814h10.792c1 0 1.814.814 1.814 1.814v31.261c0 1-.814 1.814-1.814 1.814h-10.792a1.817 1.817 0 0 1-1.815-1.814v-31.26z" fill="#C9D0D8"/><path d="M268.12 83.668h5.559c.904 0 1.634.73 1.634 1.634V95.52c0 .904-.73 1.634-1.634 1.634h-5.559c-.904 0-1.634-.73-1.634-1.634v-10.22a1.628 1.628 0 0 1 1.634-1.633z" fill="#1B3A52"/><path d="M266.022 85.302v10.22a2.1 2.1 0 0 0 2.098 2.097h5.559a2.1 2.1 0 0 0 2.098-2.098V85.302a2.1 2.1 0 0 0-2.098-2.098h-5.559a2.108 2.108 0 0 0-2.098 2.098zm8.826 10.225c0 .645-.524 1.176-1.175 1.176h-5.559a1.177 1.177 0 0 1-1.176-1.176V85.308c0-.645.525-1.175 1.176-1.175h5.559c.645 0 1.175.524 1.175 1.175v10.22z" fill="#C9D0D8"/><path opacity=".25" d="M269.971 88.274l5.342 5.342v-3.702l-3.491-3.49a1.306 1.306 0 0 0-1.851 0 1.307 1.307 0 0 0 0 1.85zM275.005 96.48l-8.519-8.52v3.703l5.499 5.498h1.796c.025 0 .055-.006.079-.006s.048-.006.072-.012c.024-.006.048-.006.072-.012h.007c.024-.006.042-.012.066-.012.006 0 .006 0 .012-.006l.054-.018c.006 0 .018-.006.024-.006.024-.006.049-.018.073-.024l.042-.018a.21.21 0 0 0 .054-.025.177.177 0 0 0 .048-.024c.024-.012.043-.018.061-.03.024-.012.048-.024.072-.042.03-.018.054-.036.078-.054.024-.012.043-.03.067-.048a.108.108 0 0 0 .03-.025c.018-.012.036-.024.048-.042l.012-.012c.024-.018.042-.042.066-.06l.067-.066c.018-.025.042-.049.06-.073.018-.018.036-.042.06-.066z" fill="#324A4F"/><path d="M266.48 85.302V95.52c0 .904.729 1.634 1.634 1.634h5.559a1.63 1.63 0 0 0 1.633-1.634v-10.22a1.63 1.63 0 0 0-1.633-1.633h-5.559c-.898 0-1.634.73-1.634 1.634zm.657 0c0-.543.44-.983.983-.983h5.559c.542 0 .982.44.982.983V95.52c0 .543-.44.983-.982.983h-5.559a.983.983 0 0 1-.983-.983v-10.22z" fill="#152D40"/><path d="M276.217 99.041v2.508a.325.325 0 0 1-.325.326h-1.164a.325.325 0 0 1-.326-.326v-2.508c0-.18.145-.325.326-.325h1.164c.18 0 .325.145.325.325z" fill="#A19E9A"/><path d="M276.217 99.043v2.508c0 .18-.144.325-.325.325h-.507v-3.165h.507c.181.006.325.15.325.332z" fill="#D9D4D0"/><path d="M316.141 85.844v-3.099c0-1.157.941-2.092 2.092-2.092h13.596c1.157 0 2.092.94 2.092 2.092v3.1a2.093 2.093 0 0 1-2.092 2.091h-13.596a2.097 2.097 0 0 1-2.092-2.092zm2.092-4.28c-.651 0-1.175.53-1.175 1.175v3.1c0 .65.53 1.175 1.175 1.175h13.596c.651 0 1.175-.53 1.175-1.176V82.74c0-.65-.53-1.175-1.175-1.175h-13.596z" fill="#C9D0D8"/><path d="M318.233 81.106h13.595c.905 0 1.634.729 1.634 1.633v3.1c0 .904-.729 1.633-1.634 1.633h-13.595c-.904 0-1.634-.73-1.634-1.634V82.74a1.64 1.64 0 0 1 1.634-1.633z" fill="#1B3A52"/><path opacity=".25" d="M322.833 81.106l6.373 6.372h2.628c.796 0 1.459-.567 1.604-1.32l-5.052-5.052h-5.553zM319.336 85.302l2.177 2.176h3.702l-4.028-4.027a1.306 1.306 0 0 0-1.851 0 1.318 1.318 0 0 0 0 1.85z" fill="#324A4F"/><path d="M316.599 82.745v3.1c0 .904.73 1.633 1.634 1.633h13.595c.905 0 1.634-.73 1.634-1.634v-3.099c0-.904-.729-1.634-1.634-1.634h-13.595a1.632 1.632 0 0 0-1.634 1.634zm.657 0c0-.542.44-.983.983-.983h13.595c.543 0 .983.44.983.983v3.1c0 .542-.44.982-.983.982h-13.595a.983.983 0 0 1-.983-.983v-3.099z" fill="#152D40"/><path d="M286.286 94.086V82.74c0-1.158.94-2.093 2.092-2.093h19.781c1.157 0 2.092.941 2.092 2.093v11.346a2.093 2.093 0 0 1-2.092 2.092h-19.781a2.085 2.085 0 0 1-2.092-2.092zm2.092-12.522c-.651 0-1.176.53-1.176 1.176v11.346c0 .651.531 1.176 1.176 1.176h19.781c.651 0 1.175-.53 1.175-1.176V82.74c0-.652-.53-1.176-1.175-1.176h-19.781z" fill="#C9D0D8"/><path d="M288.378 81.106h19.781c.904 0 1.634.729 1.634 1.633v11.347c0 .904-.73 1.634-1.634 1.634h-19.781c-.905 0-1.634-.73-1.634-1.634V82.739c0-.898.729-1.633 1.634-1.633z" fill="#1B3A52"/><path opacity=".25" d="M292.875 81.106l9.822 9.82a1.964 1.964 0 0 0 2.773 0 1.96 1.96 0 0 0 0-2.773l-7.042-7.041h-5.553v-.006zM286.834 82.21l13.517 13.517h3.702l-14.62-14.62h-1.055c-.718 0-1.326.464-1.544 1.103z" fill="#324A4F"/><path d="M286.744 82.745v11.347c0 .904.729 1.634 1.634 1.634h19.781c.904 0 1.634-.73 1.634-1.634V82.745c0-.904-.73-1.634-1.634-1.634h-19.781a1.627 1.627 0 0 0-1.634 1.634zm.651 0c0-.542.44-.983.983-.983h19.781c.542 0 .982.44.982.983v11.347c0 .542-.44.983-.982.983h-19.781a.983.983 0 0 1-.983-.983V82.745z" fill="#152D40"/><path d="M244.799 102.888h2.508c.181 0 .325.144.325.325v1.164a.323.323 0 0 1-.325.325h-2.508a.324.324 0 0 1-.326-.325v-1.164a.32.32 0 0 1 .326-.325z" fill="#A19E9A"/><path d="M244.8 102.888h2.508c.181 0 .325.144.325.325v.507h-3.165v-.507a.33.33 0 0 1 .332-.325z" fill="#D9D4D0"/><path d="M239.096 116.285l-.747-1.616a10.96 10.96 0 0 0-7.669-6.114 1.962 1.962 0 0 1-1.55-1.917v-6.885c0-.5.187-.977.531-1.338l7.584-8.11a1.958 1.958 0 0 1 1.435-.62h8.887c1.085 0 1.966.88 1.966 1.965v23.815a1.966 1.966 0 0 1-1.966 1.965h-6.686a1.984 1.984 0 0 1-1.785-1.145zm-.416-25.95c-.361 0-.711.151-.958.417l-7.585 8.109c-.229.24-.356.56-.356.892v6.885c0 .615.435 1.152 1.025 1.278a11.62 11.62 0 0 1 8.128 6.481l.747 1.616c.211.464.681.76 1.188.76h6.686c.723 0 1.308-.585 1.308-1.308V91.65c0-.724-.585-1.308-1.308-1.308h-8.875v-.006z" fill="#C9D0D8"/><path d="M231.892 99.487v-.482c0-.452.168-.88.476-1.212l5.715-6.083a1.766 1.766 0 0 1 1.291-.555h6.951c.977 0 1.767.79 1.767 1.767v6.565c0 .977-.79 1.767-1.767 1.767h-12.667a1.772 1.772 0 0 1-1.766-1.767zm7.482-7.415a.859.859 0 0 0-.621.265l-5.71 6.083a.84.84 0 0 0-.229.585v.482c0 .47.38.85.85.85h12.667c.47 0 .85-.38.85-.85v-6.565a.85.85 0 0 0-.85-.85h-6.957z" fill="#C7C7C7"/><path d="M232.705 98.108l5.71-6.084c.247-.265.591-.41.953-.41h6.951c.723 0 1.308.585 1.308 1.309v6.565c0 .724-.585 1.308-1.308 1.308h-12.667a1.307 1.307 0 0 1-1.308-1.308v-.482c.006-.338.132-.657.361-.898z" fill="#1B3B52"/><path opacity=".25" d="M236.787 93.76l-2.689 2.864 4.172 4.172h5.547l-7.03-7.036zM242.279 94.996l5.167 5.167c.121-.2.187-.428.187-.675v-2.84l-3.503-3.503a1.306 1.306 0 0 0-1.851 0 1.307 1.307 0 0 0 0 1.851z" fill="#324A4F"/><path d="M232.35 99.006v.482c0 .724.585 1.308 1.308 1.308h12.667c.724 0 1.309-.584 1.309-1.308v-6.565c0-.724-.585-1.309-1.309-1.309h-6.951c-.362 0-.706.151-.953.41l-5.709 6.084c-.235.24-.362.56-.362.898zm.657 0c0-.169.061-.326.175-.446l5.71-6.084a.64.64 0 0 1 .476-.205h6.951c.362 0 .657.296.657.658v6.565a.658.658 0 0 1-.657.657h-12.667a.659.659 0 0 1-.657-.657v-.488h.012z" fill="#152D40"/><path d="M232.874 95.262h.67c.108 0 .199.09.199.199v6.029a.201.201 0 0 1-.199.199h-.67a1.092 1.092 0 0 1-1.091-1.092v-4.244c0-.603.489-1.091 1.091-1.091z" fill="#333"/><path d="M233.537 95.262a.2.2 0 0 1 .199.199v6.029a.2.2 0 0 1-.199.199h-.464v-6.421h.464v-.006z" fill="#1A1A1A"/><path d="M50.394 117.87a3.149 3.149 0 1 0 6.102-1.557 3.149 3.149 0 0 0-6.102 1.557z" fill="#829EB0"/><path d="M56.224 116.586a3.15 3.15 0 0 0-5.142-1.573 3.14 3.14 0 0 1 1.585-.971 3.148 3.148 0 1 1 2.87 5.402 3.162 3.162 0 0 0 .687-2.858z" fill="#95AFC0"/><path d="M51.83 117.509a1.671 1.671 0 0 0 2.025 1.206 1.671 1.671 0 0 0 1.206-2.026 1.671 1.671 0 0 0-2.026-1.206 1.656 1.656 0 0 0-1.206 2.026z" fill="#95AFC0"/><path d="M52.577 117.315a.888.888 0 0 0 1.091.645.889.889 0 0 0 .645-1.091.889.889 0 0 0-1.09-.645.89.89 0 0 0-.646 1.091z" fill="#4C5C66"/><path d="M54.084 117.099a.889.889 0 0 0-1.375-.513.908.908 0 0 1 .513-.361.9.9 0 0 1 1.091.645.89.89 0 0 1-.362.958.901.901 0 0 0 .133-.729z" fill="#95AFC0"/><path d="M76.609 117.068c-.019 4.871 3.924 8.838 8.796 8.85 4.871.019 8.838-3.924 8.85-8.796.018-4.871-3.924-8.838-8.796-8.85-4.871-.019-8.833 3.918-8.85 8.796zm2.924.006a5.9 5.9 0 0 1 5.92-5.884 5.9 5.9 0 0 1 5.884 5.92 5.9 5.9 0 0 1-5.92 5.884 5.896 5.896 0 0 1-5.885-5.92z" fill="#192D4B"/><path d="M78.538 117.074a6.892 6.892 0 0 0 6.873 6.916 6.891 6.891 0 0 0 6.915-6.874 6.895 6.895 0 0 0-13.788-.042zm1.218 0a5.681 5.681 0 0 1 5.697-5.661 5.68 5.68 0 0 1 5.661 5.697 5.681 5.681 0 0 1-5.697 5.662 5.674 5.674 0 0 1-5.662-5.698z" fill="#95AFC0"/><g opacity=".5" fill="#E6F5FF"><path opacity=".5" d="M85.128 123.067a5.681 5.681 0 0 1-5.662-5.698 5.645 5.645 0 0 1 1.821-4.141 5.678 5.678 0 0 0-1.531 3.852 5.677 5.677 0 0 0 5.661 5.697 5.648 5.648 0 0 0 3.883-1.525 5.673 5.673 0 0 1-4.172 1.815z"/><path opacity=".5" d="M92.037 117.406a6.89 6.89 0 0 0-6.873-6.915 6.86 6.86 0 0 0-4.75 1.881 6.894 6.894 0 1 1 9.749 9.736 6.839 6.839 0 0 0 1.874-4.702z"/></g><path d="M89.794 121.065a5.9 5.9 0 0 0-8.332-8.332 5.9 5.9 0 0 1 10.261 3.991 5.854 5.854 0 0 1-1.929 4.341z" fill="#95AFC0"/><path d="M44.619 117.068c-.018 4.871 3.925 8.838 8.796 8.85 4.871.019 8.839-3.924 8.85-8.796.019-4.871-3.924-8.838-8.796-8.85a8.817 8.817 0 0 0-8.85 8.796zm2.924.006a5.9 5.9 0 0 1 5.92-5.884 5.9 5.9 0 0 1 5.885 5.92 5.9 5.9 0 0 1-5.92 5.884 5.895 5.895 0 0 1-5.885-5.92z" fill="#192D4B"/><path d="M46.548 117.074a6.891 6.891 0 0 0 6.873 6.916 6.891 6.891 0 0 0 6.915-6.874 6.895 6.895 0 0 0-13.788-.042zm1.212 0a5.681 5.681 0 0 1 5.697-5.661 5.681 5.681 0 0 1 5.661 5.697 5.681 5.681 0 0 1-5.697 5.662c-3.135-.006-5.667-2.557-5.661-5.698z" fill="#95AFC0"/><g opacity=".5" fill="#E6F5FF"><path opacity=".5" d="M53.132 123.067a5.681 5.681 0 0 1-5.662-5.698 5.646 5.646 0 0 1 1.821-4.141 5.678 5.678 0 0 0-1.531 3.852 5.677 5.677 0 0 0 5.66 5.697 5.648 5.648 0 0 0 3.884-1.525 5.663 5.663 0 0 1-4.172 1.815z"/><path opacity=".5" d="M60.047 117.406a6.89 6.89 0 0 0-6.873-6.915 6.86 6.86 0 0 0-4.751 1.881 6.894 6.894 0 0 1 11.913 4.744 6.881 6.881 0 0 1-2.164 4.992 6.867 6.867 0 0 0 1.875-4.702z"/></g><path d="M57.798 121.065a5.9 5.9 0 0 0-8.332-8.332 5.9 5.9 0 0 1 10.261 3.991 5.854 5.854 0 0 1-1.929 4.341z" fill="#95AFC0"/><path d="M82.384 117.864a3.15 3.15 0 0 0 6.102-1.556 3.15 3.15 0 0 0-6.102 1.556z" fill="#829EB0"/><path d="M88.215 116.575a3.149 3.149 0 0 0-5.143-1.574 3.147 3.147 0 0 1 5.414 1.302 3.147 3.147 0 0 1-.959 3.129 3.143 3.143 0 0 0 .688-2.857z" fill="#95AFC0"/><path d="M85.507 117.828a.935.935 0 0 0 .7-1.435L75.59 99.922c-.278-.434-2.267-.078-1.99.356L84.64 117.4c.186.308.53.458.867.428z" fill="#CEE6F5"/><path d="M81.962 113.819l2.092-1.338-7.265-11.251-2.092 1.339 7.265 11.25z" fill="#829EB0"/><path d="M53.45 113.619c.224 0 9.25 1.212 12.505 1.646v.669c-4.154-.56-12.203-1.634-12.51-1.652a2.816 2.816 0 0 0-2.816 2.804 2.817 2.817 0 0 0 3.057 2.809h.024c.103-.012.211-.024.338-.054l10.864-1.67v.669l-10.744 1.646c-.132.03-.265.048-.398.06-.12.013-.229.019-.331.019a3.473 3.473 0 1 1 .012-6.946z" fill="#354047"/><path d="M67.728 111.744l3.647-2.11-.772-1.332-3.647 2.11a1.417 1.417 0 0 1-1.393.012 2.967 2.967 0 0 0-2.912.024l-3.394 1.96c-.32.186-.712.235-1.073.138l-12.468-3.34.488 1.724 11.576 3.099a2.95 2.95 0 0 0 2.243-.295l3.394-1.96a1.417 1.417 0 0 1 1.393-.012c.904.507 2.02.501 2.918-.018z" fill="#4C5C66"/><path d="M46.735 111.883l.802-3.003a.298.298 0 0 1 .361-.211l8.236 2.207a.297.297 0 0 1 .211.361l-.802 3.003a.298.298 0 0 1-.361.211l-8.236-2.207a.293.293 0 0 1-.211-.361z" fill="#CEE6F5"/><path d="M56.508 105.915l1.58.675 2.393 5.342 3.66-4.564.91.73-4.202 5.245a5.22 5.22 0 0 0-.356 6.017l-.989.615a6.387 6.387 0 0 1 .163-7l-3.16-7.06z" fill="#354047"/><path d="M59.733 118.545h10.925c.132 0 .253-.09.29-.217l2.091-7.259 1.676.483-2.092 7.259a2.06 2.06 0 0 1-1.965 1.477H59.836a.264.264 0 0 1-.223-.127l-.115-.193.235-1.423zM65.196 114.675h.862v-3.467a.12.12 0 0 1 .12-.12h2.557v-.862h-2.556a.983.983 0 0 0-.983.982v3.467z" fill="#354047"/><path d="M67.667 110.756H71.9a.71.71 0 0 1 .705.802l-.506 3.913a.715.715 0 0 1-.706.621h-3.22a.715.715 0 0 1-.705-.621l-.506-3.913a.713.713 0 0 1 .705-.802z" fill="#4C5C66"/><path d="M72.31 113.854l-.048.35-3.527-.175 3.575-.175zM72.413 113.029l-.043.362-3.635-.181 3.678-.181zM72.605 111.558l-.024.205-3.84-.193 3.87-.193c0 .06 0 .121-.006.181zM72.201 114.675l-.042.343-3.424-.168 3.466-.175zM72.521 112.203l-.048.374-3.738-.187 3.786-.187z" fill="#95AFC0"/><path d="M67.834 110.759h3.895v-.995h-3.895v.995z" fill="#354047"/><path d="M62.085 119.208h7.084c.68 0 1.236-.555 1.236-1.236v-2.665c0-.681-.555-1.236-1.236-1.236h-7.084c-.682 0-1.236.555-1.236 1.236v2.665c0 .681.554 1.236 1.236 1.236z" fill="#829EB0"/><path d="M49.478 105.083l18.726 5.016 2.068 2.068h4.98l2.436-4.968 4.54-2.864v-2.912l-4.408-6.982-1.422.404.325 2.472a3.054 3.054 0 0 1-.464 2.068l-2.17-.066-6.843 1.899-1.761 2.846-15.066-.067-.941 1.086z" fill="#305F96"/><path d="M67.251 101.218l6.843-1.899 2.17.067-2.115 3.291a3.064 3.064 0 0 1-2.605 1.411l-6.06-.024 1.767-2.846zM55.7 102.671l9.031 2.394a.5.5 0 0 1 .356.615l-1.646 6.198a.5.5 0 0 1-.615.355l-9.031-2.393a.5.5 0 0 1-.356-.615l1.646-6.198a.511.511 0 0 1 .615-.356z" fill="#CEE6F5"/><path d="M62.995 107.476l.446.121a.263.263 0 0 1 .187.319l-.88 3.316a.263.263 0 0 1-.32.187l-.446-.12a.264.264 0 0 1-.187-.32l.88-3.316a.258.258 0 0 1 .32-.187zM61.506 107.085l.446.12a.264.264 0 0 1 .187.32l-.88 3.316a.264.264 0 0 1-.32.187l-.446-.121a.264.264 0 0 1-.187-.32l.88-3.316a.263.263 0 0 1 .32-.186zM60.023 106.692l.446.121a.263.263 0 0 1 .187.319l-.88 3.316a.263.263 0 0 1-.32.187l-.446-.12a.264.264 0 0 1-.187-.32l.88-3.316a.26.26 0 0 1 .32-.187zM58.54 106.295l.446.12a.264.264 0 0 1 .187.32l-.88 3.316a.263.263 0 0 1-.32.186l-.446-.12a.264.264 0 0 1-.187-.32l.88-3.316a.263.263 0 0 1 .32-.186zM57.056 105.903l.446.12a.264.264 0 0 1 .187.32l-.88 3.316a.263.263 0 0 1-.32.187l-.446-.121a.263.263 0 0 1-.187-.319l.88-3.316a.263.263 0 0 1 .32-.187zM55.573 105.511l.447.12a.264.264 0 0 1 .186.32l-.88 3.316a.264.264 0 0 1-.32.187l-.446-.121a.263.263 0 0 1-.186-.319l.88-3.316a.256.256 0 0 1 .32-.187z" fill="#95AFC0"/><path d="M54.505 104.704l10.25 2.719.25-.938-10.251-2.72-.249.939z" fill="#456A96"/><path opacity=".5" d="M56.206 111.703a.298.298 0 0 0-.21-.362l-8.236-2.207a.296.296 0 0 0-.332.145l.103-.392a.298.298 0 0 1 .361-.211l8.236 2.207a.297.297 0 0 1 .211.361l-.802 3.003c-.006.024-.018.042-.03.066l.7-2.61z" fill="#E6F5FF"/><path d="M46.873 111.425a.298.298 0 0 0 .212.362l8.235 2.206a.295.295 0 0 0 .332-.144l-.103.392a.298.298 0 0 1-.361.211l-8.236-2.207a.298.298 0 0 1-.211-.362l.802-3.002c.006-.024.018-.042.03-.067l-.7 2.611z" fill="#B4CCDB"/><path d="M54.193 104.016h.5l-.18.693.12.03-.428 1.61-.59-.157.578-2.176zM64.761 107.422l.248-.934-.121-.031.205-.771a.502.502 0 0 0-.356-.615l-3.852-1.025h.506l4.1 1.085a.5.5 0 0 1 .356.615l-.923 3.467-.711-.193.434-1.634.114.036z" fill="#264A75"/><path d="M82.227 101.423l-1.814.657-1.188-.44-2.2-6.964.801-.229 4.401 6.976z" fill="#CEE6F5"/><path d="M77.826 94.447l3.642 6.922v2.447l-4.112 2.864-1.14 3.521 1.472-3.002 4.54-2.864v-2.912l-4.401-6.976z" fill="#264A75"/><path opacity=".5" d="M80.413 102.08l-1.429-.205-2.128-7.15.169-.048 2.2 6.963 1.188.44z" fill="#E6F5FF"/><path d="M71.99 103.093c.11-.049.11-.205 0-.26-.331-.168-.904-.416-1.187-.337l-1.598.416a.375.375 0 0 1-.458-.272.374.374 0 0 1 .271-.458l1.598-.416a2.051 2.051 0 0 1 1.815.404l.096.079c.157.132.344.217.543.265a10.291 10.291 0 0 0 3.201-3.13l-2.116 3.293a3.066 3.066 0 0 1-2.605 1.41l-3.979-.018c1.55.012 3.057-.337 4.42-.976z" fill="#B4CCDB"/><path d="M72.225 102.165a1.485 1.485 0 0 0-1.326-.296l-1.85.483a.434.434 0 0 1-.532-.314.433.433 0 0 1 .314-.53l1.85-.483a2.37 2.37 0 0 1 2.105.47l.109.091c.416.35.994.44 1.5.241l.41-.163-.723 1.128c-.078.006-.156.012-.229.012a2.36 2.36 0 0 1-1.513-.549l-.115-.09z" fill="#354047"/><path d="M72.744 102.207c.356.229.597-.055.73-.326.3.078.62.066.922-.054l.41-.163-.724 1.127a2.36 2.36 0 0 1-1.742-.536l-.108-.091a1.485 1.485 0 0 0-1.327-.295l-.741.193c1.796-.73 1.983-.247 2.58.145z" fill="#B4CCDB"/><path opacity=".5" d="M63.923 106.204l-8.91-2.9-.133.5 9.043 2.4z" fill="#E6F5FF"/><path d="M63.996 107.398l-8.151-2.339 8.79 2.333-1.013 3.828.663-3.34a.418.418 0 0 0-.29-.482zM79.792 105.872v.006l-1.598 1.007 4.275 6.614-.506.319-4.275-6.62 2.104-1.326z" fill="#B4CCDB"/><path d="M54.368 109.007l.88-3.316a.264.264 0 0 1 .32-.187l.446.121c.114.03.186.133.192.247a.15.15 0 0 0-.054-.024l-.566-.151a.14.14 0 0 0-.17.097l-.91 3.43c-.006.024-.006.055-.006.079a.265.265 0 0 1-.132-.296zM55.857 109.406l.88-3.316a.263.263 0 0 1 .32-.187l.446.12a.265.265 0 0 1 .193.248.148.148 0 0 0-.054-.024l-.567-.151c-.073-.018-.151.024-.17.096l-.91 3.431c-.005.024-.005.054-.005.078a.263.263 0 0 1-.133-.295zM57.346 109.797l.88-3.316a.263.263 0 0 1 .32-.186l.446.12c.114.03.187.133.193.247a.15.15 0 0 0-.054-.024l-.567-.151a.14.14 0 0 0-.169.097l-.91 3.43c-.006.025-.006.055-.006.079a.25.25 0 0 1-.133-.296zM58.83 110.189l.88-3.316a.263.263 0 0 1 .319-.187l.446.121c.114.03.187.132.193.247a.15.15 0 0 0-.054-.024l-.567-.151a.14.14 0 0 0-.169.097l-.91 3.43c-.006.024-.006.054-.006.078a.263.263 0 0 1-.133-.295zM60.318 110.587l.88-3.316a.263.263 0 0 1 .32-.186l.446.12c.115.03.187.133.193.247a.15.15 0 0 0-.054-.024l-.567-.151a.14.14 0 0 0-.169.097l-.91 3.43c-.006.025-.006.055-.006.079-.109-.06-.169-.175-.133-.296zM61.801 110.979l.88-3.316a.263.263 0 0 1 .32-.187l.446.121c.115.03.187.132.193.247a.15.15 0 0 0-.054-.024l-.567-.151a.14.14 0 0 0-.169.097l-.91 3.43c-.006.024-.006.054-.006.078a.263.263 0 0 1-.133-.295z" fill="#95AFC0"/><path d="M66.425 120.236a3.473 3.473 0 1 0-1.596-6.76 3.473 3.473 0 0 0 1.596 6.76z" fill="#AEC5D4"/><path d="M63.285 116.863a2.344 2.344 0 0 0 2.345 2.345 2.344 2.344 0 0 0 2.345-2.345 2.344 2.344 0 0 0-2.345-2.345 2.344 2.344 0 0 0-2.345 2.345z" fill="#829EB0"/><path d="M63.285 116.863a2.344 2.344 0 0 0 2.345 2.345 2.344 2.344 0 0 0 2.345-2.345 2.344 2.344 0 0 0-2.345-2.345 2.344 2.344 0 0 0-2.345 2.345zm.458.229a1.886 1.886 0 1 1 3.774 0 1.886 1.886 0 1 1-3.774 0z" fill="#95AFC0"/><path d="M72.883 120.378l1.181-4.106h-2.586l-2.327 2.328-6.21 1.778v.724H73.07l-.187-.724z" fill="#305F96"/><path d="M73.703 116.272l-1.501 4.016.108.283-7.675.531h8.435l-.187-.724 1.182-4.106h-.362z" fill="#264A75"/></g><g clip-path="url(#clip1)"><path opacity=".5" d="M180.091 131.868c18.079 0 32.735-1.095 32.735-2.445 0-1.35-14.656-2.444-32.735-2.444-18.08 0-32.736 1.094-32.736 2.444 0 1.35 14.656 2.445 32.736 2.445z" fill="#C3E1FF"/><path d="M158.64 103.047c-.066-.108-.042-.203.113-.293l-.287.161c-.149.084-.328.054-.418-.101-.09-.162-.018-.323.137-.407l-.4.198c-.185.053-.329.041-.418-.12-.084-.155-.036-.287.131-.406l.317-.216c-.15.084-.347.018-.437-.137-.071-.125-.006-.299.15-.382l2.026-1.19-.616-.25c-.197-.085-.388-.312-.346-.491.042-.18.191-.191.388-.114l1.518.27c.455.06.969.19 1.285.77.329.598 0 1.196-.46 1.566l-.448.347-.395.287-1.362.568c-.156.083-.407.053-.478-.06z" fill="#FAA284"/><path d="M168.579 86.599s-1.38 1.297-3.819 7.967c0 0-2.982 3.293-4.238 4.751 0 0 .287 1.471 1.614 1.734 0 0 4.453-3.58 5.254-4.853.807-1.262 3.975-8.523 1.189-9.6z" fill="#EFC075"/><path d="M192.295 94.566c-.047-.156-.095-.311-.137-.46-.998.053-1.65.334-2.176.705.204.544.449 1.058.718 1.392.813.998 5.026 3.867 5.026 3.867l.957-1.416c-1.788-1.405-4.388-4.088-4.388-4.088z" fill="#FAA284"/><path d="M189.827 88.392c-1.16 1.428-.502 4.166-.502 4.166s.251 1.177.657 2.259a5.133 5.133 0 0 0 2.176-.705c-1.536-5.033-2.331-5.72-2.331-5.72z" fill="#FC6B6B"/><path d="M179.015 87.077s1.1 1.554 3.365 6.27c0 0 2.462 1.22 4.686 1.889l-.484 2.133s-3.503-.55-5.212-1.53c-1.71-.98-3.801-4.339-3.801-4.339s-.317-3.85 1.446-4.423z" fill="#FFD07D"/><path d="M181.627 88.996s-.257-7.184 1.739-10.52c1.554-2.593 3.06-1.111 3.06-1.111s1.626-.956 2.571.532c.944 1.488 2.396 5.134-.317 9.031-2.72 3.891-7.053 2.068-7.053 2.068z" fill="url(#paint5_linear)"/><path d="M189.797 79.583a8.331 8.331 0 0 0-.633-1.41c-2.427.986-4.327.185-5.284-.42a5.559 5.559 0 0 0-.813 1.286c1.417.31 4.035.753 6.73.544z" fill="#674434"/><path d="M175.644 128.952h3.801s.198-1.022-.597-2.355l-2.564.036s-.706 1.051-.64 2.319z" fill="#564437"/><path d="M179.457 128.951h-3.801v.598h3.801v-.598z" fill="#352A25"/><path d="M178.949 127.875c0 .263-.64.473-1.434.473-.795 0-1.435-.21-1.435-.473 0-.262.64-.472 1.435-.472.794 0 1.434.21 1.434.472z" fill="#776152"/><path d="M171.825 126.364s.293 1.518.071 2.588h-7.13s-.275-1.566 2.839-1.56l1.996-1.351 2.224.323z" fill="#564437"/><path d="M171.921 129.556h-2.367l-.03-.425s-.992.401-2.349.401c-.658 0-2.391.018-2.391.018v-.598h7.137v.604z" fill="#352A25"/><path d="M167.408 127.392s-.084 1.105-2.553 1.052c0 0 .317-1.005 2.553-1.052z" fill="#776152"/><path d="M169.583 128.952s.072-1.811 2.349-1.823c0 0 .12 1.225-.059 1.823h-2.29z" fill="#3F322A"/><path d="M168.275 101.727l-.132 24.87s1.949.974 3.783.209l.7-20.71.544-.024 2.647 20.734s1.399.639 3.473-.126l-2.098-24.953h-8.917z" fill="#484A4F"/><path d="M168.191 117.033l-.054 9.563s1.948.974 3.783.209l.43-12.79c-1.022 4.082-3.257 3.466-4.159 3.018z" fill="#3A3C3F"/><path d="M180.019 93.305c-.096.22-.191.448-.293.687 0 0-4.1 2.385-5.828 3.24l.491 1.876s5.737-2.27 6.825-3.383c.18-.185.413-.502.664-.902-.58-1.07-1.285-1.339-1.859-1.518z" fill="#FAA284"/><path d="M182.613 88.314s-1.058 1.44-2.588 4.991c.323.43.962 1.136 1.859 1.518 1.231-1.996 2.869-6.084.729-6.508z" fill="#EA6060"/><path d="M178.345 115.521c-1.374 3.73-3.191 1.333-3.974 0l1.44 11.285s1.399.633 3.473-.126l-.939-11.159zM177.186 101.727h-8.87v3.454c.736.323 2.182.837 4.316 1.214l.006-.299.538-.024.059.424c1.244.191 2.69.329 4.352.359l-.401-5.128z" fill="#3A3C3F"/><path d="M172.183 85.02l-.048 1.65 2.738.078.059-2.145c-1.147.52-2.283.472-2.749.418z" fill="#FAA284"/><path d="M174.932 84.603l.048-1.656-2.738-.078-.059 2.152c.466.054 1.601.101 2.749-.418z" fill="#EF8D72"/><path d="M173.313 87.047c1.62 0 2.008-.897 2.062-1.178a10.624 10.624 0 0 0-3.706-.131c-.03.323.054 1.309 1.644 1.309z" fill="#FAA284"/><path d="M179.015 87.077s-1.56-.849-3.455-1.267l-.245-.054c-.054.28-.359 1.141-1.978 1.141-1.59 0-1.644-.914-1.608-1.237l-.359.054c-.86.137-1.93.484-2.791.885 0 0-1.159 5.008-.651 16.86 0 0 3.855 1.387 10.035.204 0 0-.58-8.302.221-11.548.006.006.58-3 .831-5.038z" fill="#FFD07D"/><path d="M178.465 90.592c-2.128 4.775-4.74 10.447-10.627 9.784.048 1.154.036 1.644.09 3.09 0 0 3.855 1.387 10.035.203 0 0-.58-8.302.221-11.547.006 0 .233-1.261.281-1.53z" fill="#EFC075"/><path d="M189.983 108.074l-4.088.682c.041.836 1.374 3.843 1.703 5.492.454 2.236 2.439 11.865 2.439 11.865l1.476.089c.526-7.764-1.279-13.071-1.279-13.071-.024-2.068.077-3.132-.251-5.057z" fill="#FAA284"/><path d="M185.895 108.761l4.088-.681c.328 1.919.227 2.989.257 5.057 0 0 .287.777.597 2.211-.717-.203-1.84-.418-3.078-.299l-.161-.789c-.335-1.655-1.662-4.668-1.703-5.499z" fill="#EF8D72"/><path d="M185.261 108.815l-4.047.21c.64 2.492 1.471 5.678 1.734 6.437.609 1.751 1.105 11.147 1.105 11.147h1.662c-.06-1.686.394-3.323.562-4.417.765-4.955-.676-7.675-.676-7.675.138-1.326-.221-4.387-.34-5.702z" fill="#FAA284"/><path d="M181.214 109.025l4.047-.21c.119 1.315.478 4.382.34 5.708 0 0 .287.538.532 1.566-.681-.269-1.954-.705-3.233-.783-.317-.974-1.082-3.932-1.686-6.281z" fill="#EF8D72"/><path d="M185.153 90.353c-2.086-.21-1.871-1.71-1.578-2.559.873-.394 1.471-.46 2.409-.454 1.656.006 2.128.281 2.654.502-.156.568-.939 2.768-3.485 2.51z" fill="#FAA284"/><path d="M182.481 97.333l-.526-3.7s-.824-.896-.806-1.75c.012-.377-.006-.999 1.189-2.027l.269-1.536s.299-.257.837-.532c.49-.245 1.07-.376 1.111-.394-.245.71.024 1.147 1.244 1.225 1.416.096 1.709-.616 1.87-1.19.024.012.622.192 1.034.371.359.155.73.353 1.112.586l-.502 4.13s-1.118 2.809-1.267 4.698c0 0 4.351 5.564 3.783 16.173 0 0-6.449 2.732-12.575-.066.006 0 1.183-11.858 3.227-15.988z" fill="#FC6B6B"/><path d="M185.159 86.867l-.006.717s.024.658 1.016.658c.993 0 1.005-.646 1.005-.646l.005-1.213a3.022 3.022 0 0 1-2.02.484z" fill="#FAA284"/><path d="M187.179 86.383l.006-1.655-2.02-.006-.006 2.151c.346.042 1.183.06 2.02-.49z" fill="#EF8D72"/><path d="M182.129 93.77c-.688-.196-.915-1.374-.915-1.374.646.18 3.27.299 5.302.34 2.032.043 3.144-2.952 3.144-2.952h.006l-.341 2.78s-1.118 2.79-1.267 4.673c0 0-.293.18-.831.359l-.305-.359c1.746-5.26-4.1-3.263-4.793-3.466z" fill="#EA6060"/><path d="M189.367 81.942l-.054.013s-.442 2.067-.968-.515c-1.584-1.404-1.967-3.376-1.967-3.376-.741 1.368-2.438 3.221-3.257 3.484-.06.472-.066 1.201-.054 1.853.024 1.273.616 2.247 1.835 2.63 2.941.92 3.987-1.86 3.987-1.86s1.123.108 1.356-1.338c.198-1.177-.878-.89-.878-.89z" fill="#FAA284"/><path d="M186.373 79.115s.693 1.62 1.966 2.331c-1.59-1.41-1.966-3.377-1.966-3.377-.658 1.22-2.068 2.816-2.953 3.341.592-.19 1.638-.735 2.953-2.295zM188.65 83.85s-.963 2.044-2.654 2.145c-1.028.066-1.877-.436-2.379-.837.299.395.729.7 1.291.873 2.941.92 3.987-1.859 3.987-1.859s.89.078 1.249-.914c-.825.986-1.494.592-1.494.592z" fill="#EF8D72"/><path opacity=".9" d="M184.102 83.605c0 .024-.024.042-.042.036-.024 0-.042-.024-.036-.042 0-.024.024-.042.042-.036.024 0 .042.024.036.042zM187.305 83.79c0 .023-.024.047-.048.041-.024 0-.048-.024-.042-.048 0-.024.024-.048.048-.042.024 0 .048.024.042.048z" fill="#EA7460"/><path d="M184.651 84.22s.753.299 2.008.143c0 0-.37.98-1.207.855-.747-.114-.801-.998-.801-.998z" fill="#CE3E3E"/><path d="M184.681 84.268s.783.334 1.93.137c0 0-.221.406-1.106.317-.788-.084-.824-.454-.824-.454z" fill="#fff"/><path d="M184.771 81.225s-.568-.27-1.244.143c0 0 0-.077.138-.203.143-.125.55-.299.956-.173.006 0 .245.161.15.233zM186.348 81.524s.694-.233 1.405.323c0 0 .012-.09-.131-.251-.144-.162-.586-.407-1.07-.323 0 .006-.299.155-.204.25z" fill="#502F26"/><path d="M185.607 83.915c-.615.227-.932-.072-.95-.359a.404.404 0 0 1 .287-.412c.377-.132.657-.694.657-.7 0 .132-.149.616-.627.873-.102.054-.167.114-.161.21 0 .16.227.406.794.388z" fill="#D3755F"/><path d="M187.095 82.08s-.37-.042-.406-.186c0 0-.072.192.149.281a.56.56 0 0 0-.161.341c-.03.263.102.502.305.526.197.024.388-.173.418-.436.03-.27-.107-.502-.305-.526zM184.364 81.87s-.371-.041-.406-.184c0 0-.072.19.149.28a.554.554 0 0 0-.161.341c-.03.263.101.502.304.526.198.024.389-.173.419-.436.03-.27-.102-.502-.305-.526z" fill="#502F26"/><path d="M171.526 76.868s2.635 1.255 3.269 1.184c.634-.072 2.666-1.04 2.666-1.04.263 1.219-.383 2.277-.383 2.277l-5.726 1.32-.968.252c-.263-1.034-.484-2.092-.484-2.702 1.189-.263 1.626-1.29 1.626-1.29z" fill="#3B221D"/><path d="M170.635 76.175c.514-2.074 4.052-2.217 4.052-2.217 1.859-1.13 1.16.317 1.16.317 3.114-1.112 1.631 1.69 1.631 1.69 1.154-.04-.018 1.047-.018 1.047s-2.032.974-2.665 1.04c-.634.072-3.27-1.184-3.27-1.184s-.436 1.029-1.613 1.297c.006-1.846.723-1.99.723-1.99z" fill="#502F26"/><path d="M170.635 80.12l.43.364c.09-.215.162-.436.221-.663.347-1.31.24-2.947.24-2.947 3 1.166 5.57.323 5.57.323-.143 1.488.347 4.77-.789 6.455-.341.502-.771.92-1.488 1.034-3.144.49-3.951-2.582-3.951-2.582s-.986.263-1.183-1.19c-.174-1.2.95-.794.95-.794z" fill="#FAA284"/><path d="M171.968 77.406s-.251 1.387-.634 2.223c.293-1.249.192-2.755.192-2.755 3 1.166 5.57.323 5.57.323a5.086 5.086 0 0 0-.024.55c-1.165.155-3.257.299-5.104-.341z" fill="#EF8D72"/><path d="M175.357 80.497c0 .269.167.478.365.46.197-.018.358-.251.358-.52 0-.27-.167-.478-.364-.46-.198.018-.359.25-.359.52zM172.613 80.418c0 .27.168.479.365.46.197-.017.359-.25.359-.52 0-.268-.168-.477-.365-.46-.203.019-.365.246-.359.52z" fill="#502F26"/><path d="M174.389 82.033c.609.245.932-.042.962-.329a.413.413 0 0 0-.269-.424c-.371-.144-.634-.712-.634-.718 0 .132.132.622.598.897.102.06.167.12.156.215-.018.156-.251.395-.813.359z" fill="#DB7C65"/><path d="M176.594 79.104l.024-.186c-.042-.006-.669-.173-1.405-.113l-.005.287c.609-.09 1.374.012 1.386.012zM172.135 79.2c.49-.192 1.405-.228 1.411-.228l-.06-.263c-.036.006-.861.036-1.411.329l.06.161z" fill="#502F26"/><path d="M177.222 74.023s-1.309 1.285-4.369 1.285c0 0 1.996 1.393 4.721.467 0 0 .694-1.656-.352-1.752z" fill="#674434"/><path d="M171.101 81.74c.269.777 1.261 2.696 3.407 2.582 1.16-.066 1.751-.83 2.14-1.363-.09.251-.203.484-.347.694-.34.502-.771.92-1.488 1.034-3.144.49-3.951-2.582-3.951-2.582s-.753.209-1.088-.748c.592.969 1.327.383 1.327.383z" fill="#EF8D72"/><path d="M173.331 82.451s1.141.233 2.205 0c0 0-.191.98-1.106.974-.86 0-1.093-.783-1.099-.974z" fill="#CE3E3E"/><path d="M174.454 82.923c.705 0 .908-.293.998-.448-.825.161-1.488.066-2.068-.006.066.173.412.454 1.07.454z" fill="#fff"/><path d="M189.917 127.141s-1.064 1.739-.359 2.408h2.307s.592-.538-.221-2.337l-1.124-.012-.603-.059z" fill="#842D2D"/><path d="M190.042 126.119l-.329 2.133c.592-.436 1.441-.316 1.997.084 0 0 .095-.873-.204-2.176l-.747-.412-.717.371zM182.703 128.862c.101.011 2.313-.335 2.713-.658.293-.239.466-.329.526-.777-.131-.323-.221-.813-.221-.813l-.789-.544-.867.544c-.555.592-1.787 1.704-1.787 1.704s.323.532.425.544z" fill="#FAA284"/><path d="M185.177 127.989c-.49.221-2.343.741-2.444.729-.102-.012-.365-.496-.365-.496-1.901.048-1.775.765-1.793 1.052-.018.281 1.632.257 2.48.257.598 0 1.817-.455 1.817-.455l.036.455h.855c.514-.843.364-1.62.167-2.104-.131.364-.753.562-.753.562z" fill="#842D2D"/><path d="M187.227 97.59s3.341 4.901 4.315 9.27c0 0-.723-5.785-3.49-9.629l-.825.36z" fill="#EA6060"/><path d="M165.704 104.895s-.161-1.106-.323-1.351c0 0 .425-.227.55.442 0 0 .317-.203.682-.37v.006l.538-.317a.123.123 0 0 1 .173.054.13.13 0 0 1-.054.179l-.604.352c.006.018.012.036.024.048l.777-.281c.078-.03.156.012.186.084a.149.149 0 0 1-.09.185l-.747.269c.006.012.006.018.012.03l.711-.101a.134.134 0 0 1 .155.113c.012.078-.035.15-.107.162l-.699.101c0 .006 0 .012.006.018l.633.09c.066.006.12.059.114.131 0 .066-.06.12-.126.12l-.604-.09-.579.311c.113 2.283-1.285 4.865-2.074 5.875l-1.411-1.117c1.488-1.459 2.857-4.943 2.857-4.943z" fill="#FAA284"/><path d="M164.694 111.086s-.921-1.769-2.277-1.452l-1.172 1.524s-.143 1.799 1.285 2.624l2.164-2.696z" fill="#FF6364"/><path d="M161.342 126.752h-1.088v1.697h1.088v-1.697z" fill="#D1C7C8"/><path d="M160.14 129.537l3.502.018s.006-.006.006-.072h-3.502l-.006.054zM162.489 128.36s-.783-.49-.932-.831c0 0-.424-.012-.52.52 0 0-.568.287-.879-.143l-.012 1.315h3.467c-.113-.401-.203-.717-1.124-.861z" fill="#EE4B4D"/><path d="M160.157 127.9c.066.09.138.18.216.216.095.28.275.639.544 1.105h-.771l.011-1.321z" fill="#CE3A41"/><path d="M160.14 129.221l-.006.269h3.502c0-.132.018-.198-.03-.269h-3.466zM162.447 128.235s-.185.066-.335.382l-.137-.095s.131-.341.352-.365l.12.078zM162.148 128.038s-.185.066-.329.382l-.137-.089s.143-.359.358-.377l.108.084zM161.885 127.805s-.203.041-.364.388l-.15-.096s.155-.358.401-.388l.113.096z" fill="#EFEDED"/><path d="M157.594 128.551h-1.166l.233-1.745 1.094.024-.161 1.721z" fill="#D1C7C8"/><path d="M157.761 129.537l-3.503.018s-.006-.006-.006-.072h3.503l.006.054zM155.412 128.36s.783-.49.932-.831c0 0 .425-.012.52.52 0 0 .568.287.879-.143l.012 1.315h-3.467c.108-.401.197-.717 1.124-.861z" fill="#EE4B4D"/><path d="M157.743 127.9c-.066.09-.138.18-.215.216-.096.28-.275.639-.544 1.105h.771l-.012-1.321z" fill="#CE3A41"/><path d="M157.755 129.221l.006.269h-3.502c0-.132-.018-.198.03-.269h3.466zM155.448 128.235s.185.066.334.382l.138-.095s-.132-.341-.353-.365l-.119.078zM155.747 128.038s.185.066.328.382l.138-.089s-.144-.359-.359-.377l-.107.084zM156.016 127.805s.203.041.364.388l.15-.096s-.156-.358-.401-.388l-.113.096z" fill="#EFEDED"/><path d="M162.901 118.737s-.239 3.826-1.393 8.595c0 0-.442.424-1.434.042l.065-5.959h-.777l-1.44 6.12s-.49.138-1.548-.197c0 0 .831-7.065.837-8.565l5.69-.036z" fill="#585C63"/><path d="M161.885 111.421s1.297 3.502 1.004 7.309c0 0-1.769.927-5.678.036 0 0 0-1.231.006-2.893 0 0-.012-2.54-.006-4.267 0-.006 1.943-1.488 4.674-.185z" fill="#FF6364"/><path d="M153.248 105.928s-.036-1.076.078-1.333c0 0-.436-.143-.442.508 0 0-.329-.137-.7-.239v.006l-.555-.209c-.066-.024-.132.012-.156.084-.018.066.012.137.078.161l.621.233c-.006.018-.006.036-.011.048l-.772-.137a.135.135 0 0 0-.155.113.14.14 0 0 0 .114.156l.741.131c0 .012-.006.018-.006.03l-.67.024a.128.128 0 0 0-.125.131c0 .072.054.132.125.132l.67-.024v.012l-.574.191a.116.116 0 0 0-.084.144c.012.065.078.107.138.089l.544-.185.591.197c.275 2.182 1.997 4.399 2.899 5.224l1.13-1.297c-1.632-1.118-3.479-4.19-3.479-4.19z" fill="#FAA284"/><path d="M155.208 111.63s.562-1.829 1.883-1.763l1.172 1.255s.137 1.632-1.058 2.66l-1.997-2.152z" fill="#FF6364"/><path d="M160.51 110.805v.466s-.185.395-.777.395c-.526 0-.771-.383-.771-.383v-.699c.646.412 1.285.251 1.548.221z" fill="#FAA284"/><path d="M158.962 110.584v-1.392l1.548-.012.006 1.619c-.269.036-.908.198-1.554-.215z" fill="#EF8D72"/><path d="M155.789 105.062c-.281-.197-.502.143-.502.143.024-.538.555-.669.597-.675v-.012c-.394-.335-.185-1.016-.185-1.016-.006.215.257.621.287.669.018-.048.036-.095.048-.137.311-.801.896-1.16 1.452-1.476.084-.054.353-.186.389-.198 1.117-.544 1.554-1.237 1.554-1.237.239.454.059.765.059.765.795-.275 2.451-.012 2.451-.012a.989.989 0 0 1-.55.616c.789.568 1.178 1.357 1.178 1.357-.323.083-.634-.06-.634-.06.442 1.315.287 2.432.287 2.432l-5.17 2.636c-.723-2.319-1.447-2.66-1.261-3.795z" fill="#502F26"/><path d="M157.115 107.465s-.209-1.524-.239-1.961c.425.102 1.339-.083 1.339-.083.562-.09.401-.311.401-.311.526.072 1.147-.161 1.147-.161-.03-.359-.621-.712-.621-.712.866.514 2.02.455 2.02.455-.054-.246-.281-.574-.454-.801.836.442 1.159.962 1.159.962 1.237 3.227.687 4.823-.98 5.325-2.6.783-3.311-1.159-3.311-1.159s-.646.675-1.22-.407c-.585-1.129.562-1.213.759-1.147z" fill="#FAA284"/><path d="M161.419 108.003s-.789.329-1.877.448c0 0 .317 1.082 1.285.723.885-.334.592-1.171.592-1.171z" fill="#CE3E3E"/><path d="M161.389 108.015s-.766.31-1.806.43c0 0 .054.406 1.082.167.909-.215.724-.597.724-.597z" fill="#fff"/><path d="M160.463 107.811c-.024-.006-.042-.03-.042-.06 0-.036.03-.066.059-.066.216 0 .365-.066.431-.185.048-.09.036-.203-.03-.317-.132-.215-.448-.012-.454-.012l-.012.012h-.018c-.185.006-.275-.424-.293-.556a.061.061 0 0 1 .048-.071c.03-.006.066.018.071.053.036.216.114.419.162.449.155-.09.448-.18.598.059a.47.47 0 0 1 .035.449c-.047.095-.179.251-.532.251-.011 0-.017-.006-.023-.006z" fill="#D87C60"/><path d="M156.219 103.663c.173-.293.388-.508.627-.693 1.536.179 2.75-.55 3.509-1.213.765-.018 1.596.107 1.596.107a.989.989 0 0 1-.55.616c.077.054.149.113.221.173-1.955 1.1-4.525 1.064-5.403 1.01z" fill="#674434"/><path d="M158.694 107.495l-.192-.03c0-.012.054-.341.311-.478.174-.09.389-.072.64.053l-.084.174c-.191-.096-.353-.114-.466-.054-.167.09-.203.335-.209.335zM161.126 106.796l-.191-.03c0-.012.054-.341.311-.479.173-.089.388-.071.639.054l-.083.174c-.192-.096-.353-.114-.466-.054-.168.083-.21.329-.21.335zM161.694 105.563l-.012-.149c-.03.006-.562-.03-1.136.144l.042.227c.466-.174 1.1-.222 1.106-.222zM158.03 106.568c.359-.233 1.082-.413 1.088-.413l-.09-.197c-.03.012-.681.173-1.07.496l.072.114z" fill="#502F26"/><path d="M194.059 109.956l-1.028 1.19s-2.17-1.082-2.971-2.242l-.938.526s2.648 4.124 4.333 3.395c1.052-.454 1.841-1.912 1.841-1.912l-1.237-.957z" fill="#FAA284"/><path d="M190.03 109.706s.843-.293.413-1.71c0 0-.09-.472-.407-.442 0 0-.173-.867-.567-.616 0 0-1.19.7-.975 1.393.215.693.622 1.685 1.536 1.375z" fill="#FAA284"/><path d="M193.174 110.446s.305 1.644 2.367 1.387l.705-2.187s.783-1.662-.669-2.583l-2.403 3.383z" fill="#58CCB6"/><path d="M195.487 119.274l.777 8.344h1.172s1.052-5.941 0-8.344h-1.949z" fill="#F4A984"/><path d="M197.436 119.274h-1.949l.233 2.451a9.454 9.454 0 0 0 2.182 1.022c.018-1.327-.09-2.672-.466-3.473z" fill="#D88D6C"/><path d="M201.536 119.275l2.504 8.146-1.41.126s-2.899-5.009-2.995-8.278h1.901v.006z" fill="#F4A984"/><path d="M202.217 121.468l-.681-2.194h-1.907c.03 1.07.347 2.254.765 3.437a4.35 4.35 0 0 0 1.823-1.243z" fill="#D88D6C"/><path d="M200.813 113.124s.705-7.154-3.317-6.993c0 0-3.521-.508-2.977 6.904l-1.769 7.321s5.451 3.073 12.384-1.53l-4.321-5.702z" fill="#61E2CD"/><path d="M200.484 108.803c-.197 1.685-.884 4.279-2.002 4.859a9.63 9.63 0 0 0 2.325-.538c.006 0 .203-2.421-.323-4.321z" fill="#58CCB6"/><path d="M196.264 127.541l-.358.586s.837.55 1.739.06l-.108-.64s.174-1.745.198-1.948c0 0-1.142.334-1.68 0 .006-.006.144 1.303.209 1.942zM202.833 128.175l-.233-.676s-.7-1.255-.969-1.835c0 0 1.064.096 1.752-.406l.723 2.157s.215.604.143.76c0 0-.597.322-1.416 0z" fill="#D7DCE0"/><path d="M202.45 129.286h2.05s.198-.454-.227-1.172c0 0-.37-.155-.795-.155-.43 0-.699.131-.699.131s-.365.461-.329 1.196z" fill="#61E2CD"/><path d="M204.548 129.286h-2.068v.269h2.068v-.269z" fill="#52C1AC"/><path d="M197.639 128.097s.119.526 0 1.189h-3.855s-.132-.89 1.542-.884l.633-.455s.317.227.867.275c.544.048.813-.125.813-.125z" fill="#61E2CD"/><path d="M197.675 129.555h-1.273l-.018-.245s-.55.203-1.279.203h-1.303v-.227h3.873v.269z" fill="#52C1AC"/><path d="M194.722 99.683s-3.311-.861-2.976 3.323c0 0 .221.777-.771.334 0 0 .95 1.244 1.5 0 .018-.041.036-.077.06-.119-.036.4.083.657.137.89.126.55-.239.514-.239.514.173.15.651.479.717-.836a4.05 4.05 0 0 1 .102-.73c.095.305.287.616.657.783 0 0-.215-1.787.46-2.558.437-.43.7-.896.353-1.602z" fill="#3B221D"/><path d="M194.704 101.278c.314 0 .568-.366.568-.819 0-.452-.254-.818-.568-.818-.314 0-.568.366-.568.818 0 .453.254.819.568.819z" fill="#E23D3D"/><path d="M197.448 105.301s4.225.627 4.184-3.341c-.042-3.97-2.81-4.716-4.029-4.166 0 0-3.299-1.166-3.293 4.082-.006 0-.054 3.293 3.138 3.425z" fill="#502F26"/><path d="M194.68 99.353c.257-.67.61-1.082.992-1.327.413.377 1.034.724 1.931.777 1.141.066 1.823-.37 2.205-.777.508.293.987.771 1.321 1.483-1.303.155-3.921.352-6.449-.156z" fill="#674434"/><path d="M201.387 101.738c.313 0 .567-.366.567-.819 0-.452-.254-.818-.567-.818-.314 0-.568.366-.568.818 0 .453.254.819.568.819z" fill="#E23D3D"/><path d="M201.386 100.346s3.312-.861 2.977 3.323c0 0-.221.777.771.334 0 0-.95 1.244-1.5 0a1.207 1.207 0 0 0-.06-.119c.036.4-.084.657-.138.89-.125.55.24.515.24.515-.174.149-.652.478-.718-.837a4.03 4.03 0 0 0-.101-.729c-.096.304-.287.615-.658.783 0 0 .215-1.788-.46-2.559-.436-.43-.699-.896-.353-1.601z" fill="#502F26"/><path d="M200.227 101.661s-1.656-.108-2.63-2.439c0 0-1.548 1.775-2.666 1.769 0 0 1.482-.352 2.702-2.39.006-.006.526 2.175 2.594 3.06z" fill="#D88D6C"/><path d="M196.683 105.976v.484s.191.407.807.407c.543 0 .794-.395.794-.395l.006-.723c-.669.424-1.332.263-1.607.227z" fill="#FAA284"/><path d="M198.285 105.749v-1.434l-1.602-.012-.006 1.673c.281.036.944.198 1.608-.227z" fill="#EF8D72"/><path d="M200.317 102.3s-.042-.532-.084-.639c-2.008-.813-2.594-3.066-2.594-3.066s-1.082 1.93-2.702 2.39c-.962 2.977.18 4.34 2.027 4.674 2.492.455 3.084-1.619 3.084-1.619s.878.52 1.249-.58c.43-1.291-.765-1.249-.98-1.16z" fill="#FAA284"/><path d="M196.055 103.681s.957.263 2.248.263c0 0-.252 1.231-1.423.95-1.076-.257-.825-1.213-.825-1.213z" fill="#CE3E3E"/><path d="M196.091 103.687s.932.251 2.163.257c0 0-.018.454-1.249.316-1.094-.125-.914-.573-.914-.573z" fill="#fff"/><path d="M197.322 103.502c.024-.012.042-.048.036-.078-.006-.036-.048-.065-.083-.054-.245.048-.437.012-.532-.101-.072-.09-.084-.215-.03-.347.107-.263.52-.113.52-.113l.018.006.018-.006c.215-.036.227-.526.221-.676a.072.072 0 0 0-.144 0c.006.239-.042.484-.095.526-.198-.066-.556-.095-.676.203-.071.18-.054.365.054.497.078.089.263.233.669.149.012 0 .018 0 .024-.006z" fill="#D87C60"/><path d="M196.39 102.091c-.054.245-.263.401-.46.359-.203-.048-.323-.281-.263-.52.054-.245.263-.401.46-.359.197.042.317.275.263.52zM199.109 102.468c-.054.245-.263.401-.46.359-.203-.048-.323-.281-.263-.52.054-.245.263-.401.46-.359.203.042.317.275.263.52zM196.503 100.991s-.597-.047-.992.168c0 0 .144-.365.951-.335 0 0 .185.167.041.167zM198.38 101.321s.61.006 1.004.251c0 0-.137-.371-.956-.419 0 0-.191.156-.048.168z" fill="#502F26"/><path d="M204.811 100.143s.036-1.178-.084-1.459c0 0 .473-.16.479.556 0 0 .358-.15.759-.257v.006l.603-.227c.072-.024.144.018.168.09a.147.147 0 0 1-.084.18l-.675.256c.006.018.006.036.012.054l.842-.15a.154.154 0 0 1 .174.12.15.15 0 0 1-.126.173l-.813.144c0 .012.006.024.006.03l.741.024a.14.14 0 0 1 .138.143.14.14 0 0 1-.138.144l-.729-.024v.018l.628.209a.138.138 0 0 1 .095.155c-.018.072-.083.114-.149.096l-.598-.203-.645.215c-.299 2.391-2.188 4.811-3.168 5.708l-1.237-1.417c1.781-1.219 3.801-4.584 3.801-4.584z" fill="#FAA284"/><path d="M202.665 106.383s-.615-2.002-2.056-1.925l-1.93 2.206s.071 1.088 1.374 2.205l2.612-2.486z" fill="#61E2CD"/><path opacity=".9" d="M161.801 107.667c.006.019.03.025.042.019.018-.007.024-.031.018-.043-.006-.018-.03-.024-.042-.018-.018.006-.03.024-.018.042zM158.532 108.462c.006.018.03.024.048.018.018-.006.03-.03.018-.048-.006-.018-.03-.03-.048-.018-.018.006-.024.03-.018.048zM195.53 103.419c-.006.018-.024.03-.042.024-.018-.006-.031-.024-.025-.042.007-.018.025-.03.043-.024.018.006.03.024.024.042zM198.877 103.735c-.006.018-.024.03-.042.024-.018-.006-.03-.024-.024-.042.006-.018.024-.03.042-.024.018.006.03.024.024.042z" fill="#EA7460"/></g><defs><linearGradient id="paint0_linear" x1="32" y1="98.702" x2="121.478" y2="98.702" gradientUnits="userSpaceOnUse"><stop stop-color="#9EC23A"/><stop offset="1" stop-color="#9FC731"/></linearGradient><linearGradient id="paint1_linear" x1="119.943" y1="77.308" x2="119.943" y2="87.549" gradientUnits="userSpaceOnUse"><stop stop-color="#fff"/><stop offset="1" stop-color="#E5F6FF"/></linearGradient><linearGradient id="paint2_linear" x1="137.585" y1="87.108" x2="161.701" y2="87.108" gradientUnits="userSpaceOnUse"><stop stop-color="#9EC23A"/><stop offset="1" stop-color="#9FC731"/></linearGradient><linearGradient id="paint3_linear" x1="275.392" y1="82.976" x2="303.944" y2="82.976" gradientUnits="userSpaceOnUse"><stop stop-color="#9EC23A"/><stop offset="1" stop-color="#9FC731"/></linearGradient><linearGradient id="paint4_linear" x1="240.896" y1="112.21" x2="321.137" y2="112.21" gradientUnits="userSpaceOnUse"><stop stop-color="#9EC23A"/><stop offset="1" stop-color="#9FC731"/></linearGradient><linearGradient id="paint5_linear" x1="186.323" y1="79.957" x2="185.765" y2="86.428" gradientUnits="userSpaceOnUse"><stop stop-color="#502F26"/><stop offset="1" stop-color="#3B221D"/></linearGradient><clipPath id="clip0"><path fill="#fff" transform="translate(32 3)" d="M0 0h311.398v129.756H0z"/></clipPath><clipPath id="clip1"><path fill="#fff" transform="translate(147.355 73.527)" d="M0 0h65.465v58.341H0z"/></clipPath></defs></svg>