<svg width="375" height="135" fill="none" xmlns="http://www.w3.org/2000/svg" viewBox="0 0 375 135"><path fill="#F5FCFF" d="M0 0h375v135H0z"/><g clip-path="url(#clip0)"><path opacity=".5" d="M188 133.171c72.902 0 132-3.819 132-8.529 0-4.711-59.098-8.53-132-8.53s-132 3.819-132 8.53c0 4.71 59.098 8.529 132 8.529z" fill="#C3E1FF"/><path d="M244.363 112.689h2.952V99.053l-1.479-1.399-1.473 1.4v13.635zM238.303 112.689h2.953V99.053l-1.48-1.399-1.473 1.4v13.635zM232.243 112.689h2.953V99.053l-1.48-1.399-1.473 1.4v13.635zM226.184 112.689h2.952V99.053l-1.479-1.399-1.473 1.4v13.635zM220.124 112.689h2.952V99.053l-1.479-1.399-1.473 1.4v13.635zM214.064 112.689h2.953V99.053l-1.473-1.399-1.48 1.4v13.635zM208.005 112.689h2.952V99.053l-1.473-1.399-1.479 1.4v13.635zM201.945 112.689h2.953V99.053l-1.473-1.399-1.48 1.4v13.635zM195.886 112.689h2.952V99.053l-1.473-1.399-1.479 1.4v13.635zM189.826 112.689h2.952V99.053l-1.473-1.399-1.479 1.4v13.635zM183.766 112.689h2.953V99.053l-1.474-1.399-1.479 1.4v13.635zM177.707 112.689h2.952V99.053l-1.473-1.399-1.479 1.4v13.635zM171.647 112.689h2.952V99.053l-1.473-1.399-1.479 1.4v13.635zM165.587 112.689h2.953V99.053l-1.473-1.399-1.48 1.4v13.635zM159.528 112.689h2.952V99.053l-1.473-1.399-1.479 1.4v13.635zM153.468 112.689h2.952V99.053l-1.473-1.399-1.479 1.4v13.635zM147.408 112.689h2.959V99.053l-1.479-1.399-1.48 1.4v13.635zM141.349 112.689h2.958V99.053l-1.479-1.399-1.479 1.4v13.635zM135.289 112.689h2.959V99.053l-1.48-1.399-1.479 1.4v13.635zM129.229 112.689h2.959V99.053l-1.479-1.399-1.48 1.4v13.635zM123.17 112.689h2.959V99.053l-1.48-1.399-1.479 1.4v13.635zM117.11 112.689h2.958V99.053l-1.479-1.399-1.479 1.4v13.635z" fill="#96A6F6"/><path d="M111.05 112.689h2.959V99.053l-1.479-1.399-1.48 1.4v13.635zM104.997 112.689h2.953V99.053l-1.48-1.399-1.473 1.4v13.635zM98.938 112.689h2.952V99.053l-1.479-1.399-1.474 1.4v13.635zM92.878 112.689h2.952V99.053l-1.479-1.399-1.473 1.4v13.635zM86.818 112.689h2.952V99.053l-1.479-1.399-1.473 1.4v13.635zM80.758 112.689h2.953V99.053l-1.48-1.399-1.473 1.4v13.635z" fill="#9AC0E2"/><path d="M249.234 101.231H79.539v1.82h169.695v-1.82zM249.234 107.143H79.539v1.819h169.695v-1.819z" fill="#9AC0E2"/><path d="M117.636 110.504h150.786V74.066H117.636v36.438z" fill="#D6ECFF"/><path d="M113.408 112.691h161.357v-2.766H113.408v2.766z" fill="#9AC0E2"/><path d="M123.262 42.58h74.598l9.854 31.48h-94.312l9.86-31.48z" fill="#84ADD1"/><path d="M265.141 42.58l9.619 31.48h-67.046l9.619-31.48h47.808z" fill="#9AC0E2"/><path opacity=".4" d="M190.445 42.58l-9.619 31.48h1.783l9.674-31.48h-1.838z" fill="#2762AA"/><path d="M246.641 109.918h13.413V84.553h-13.413v25.365z" fill="#9AC0E2"/><path d="M140.736 61.086h50.798V23.917L166.132 4.29l-25.396 19.627v37.17z" fill="#D6ECFF"/><path d="M137.239 27.631c.285 0 .575-.092.817-.284L166.138 4.99l28.082 22.357a1.31 1.31 0 0 0 1.845-.21 1.31 1.31 0 0 0-.21-1.845L166.949 2.285a1.303 1.303 0 0 0-1.634 0l-28.899 23.007a1.31 1.31 0 0 0-.211 1.844c.266.328.644.495 1.034.495z" fill="#9AC0E2"/><path d="M184.682 109.916h50.798V23.917L210.078 4.29l-25.396 19.627v85.999z" fill="#EBF6FF"/><path d="M181.185 27.631c.285 0 .576-.092.817-.284L210.084 4.99l28.083 22.357a1.31 1.31 0 0 0 1.844-.21 1.31 1.31 0 0 0-.21-1.845L210.895 2.285a1.303 1.303 0 0 0-1.634 0l-28.899 23.007a1.31 1.31 0 0 0 .823 2.34z" fill="#9AC0E2"/><path d="M227.1 32.422h-34.037v22.326H227.1V32.422z" fill="#D6ECFF"/><g opacity=".7" fill="#fff"><path opacity=".7" d="M213.488 54.965h3.349l-8.028-22.983h-3.349l8.028 22.983zM208.438 54.965h2.259l-8.034-22.983h-2.253l8.028 22.983zM206.618 54.965h.972l-8.028-22.983h-.978l8.034 22.983z"/></g><path d="M192.19 31.55h35.783v24.077H192.19V31.55zm34.91.872h-34.037V54.75H227.1V32.421z" fill="#9AC0E2"/><path d="M220.136 31.983h-.872v23.2h.872v-23.2zM200.899 31.983h-.873v23.2h.873v-23.2z" fill="#9AC0E2"/><path d="M227.533 43.15h-34.909v.872h34.909v-.873z" fill="#9AC0E2"/><path d="M177.904 32.423h-23.539v22.326h23.539V32.423z" fill="#D6ECFF"/><path opacity=".7" d="M172.878 54.965h3.355l-8.034-22.982h-3.349l8.028 22.982zM167.833 54.965h2.253l-8.027-22.982h-2.26l8.034 22.982zM166.008 54.965h.978l-8.034-22.982h-.978l8.034 22.982z" fill="#fff"/><path d="M153.486 31.55h25.291v24.077h-25.291V31.55zm24.418.872h-23.539V54.75h23.539V32.421z" fill="#9AC0E2"/><path d="M166.571 31.983h-.873v23.2h.873v-23.2z" fill="#9AC0E2"/><path d="M216.67 81.116h-23.539v22.326h23.539V81.116z" fill="#D6ECFF"/><path opacity=".7" d="M211.111 104.011h3.355l-8.034-22.982h-3.349l8.028 22.982zM206.061 104.011h2.259l-8.034-22.982h-2.253l8.028 22.982zM204.241 104.011h.978l-8.034-22.982h-.978l8.034 22.982z" fill="#fff"/><path d="M192.252 80.243h25.291v24.078h-25.291V80.243zm24.418.873h-23.539v22.326h23.539V81.116z" fill="#9AC0E2"/><path d="M205.337 80.683h-.873v23.205h.873V80.683zM184.682 61.086h50.798l4.055 12.973h-58.907l4.054-12.973z" fill="#9AC0E2"/><path d="M172.291 81.153h-45.915v31.536h45.915V81.153z" fill="#D6ECFF"/><path d="M125.503 112.689h1.752V82.032h44.163v30.657h1.752V80.28h-47.667v32.409z" fill="#9AC0E2"/><path d="M127.289 84.264h44.095v-.984h-44.095v.984zM127.289 86.451h44.095v-.984h-44.095v.984zM127.289 88.64h44.095v-.984h-44.095v.984zM127.289 90.821h44.095v-.984h-44.095v.984zM127.289 93.009h44.095v-.984h-44.095v.984zM127.289 95.197h44.095v-.984h-44.095v.984zM127.289 97.385h44.095V96.4h-44.095v.984zM127.289 99.573h44.095v-.984h-44.095v.984zM127.289 101.755h44.095v-.984h-44.095v.984zM127.289 103.942h44.095v-.984h-44.095v.984zM127.289 106.131h44.095v-.984h-44.095v.984zM127.289 108.318h44.095v-.984h-44.095v.984zM127.289 110.5h44.095v-.984h-44.095v.984zM127.289 112.688h44.095v-.984h-44.095v.984z" fill="#9AC0E2"/><path d="M109.373 107.403h-5.88a.385.385 0 0 1-.384-.383v-.167c0-.211.173-.384.384-.384h5.88c.21 0 .384.173.384.384v.167c0 .21-.174.383-.384.383zM109.719 110.183h-6.226a.386.386 0 0 1-.384-.384c0-.211.173-.384.384-.384h6.226c.211 0 .384.173.384.384 0 .21-.173.384-.384.384z" fill="#FFE3D4"/><path d="M110.351 108.178h-6.227a.387.387 0 0 1-.384-.384c0-.211.174-.384.384-.384h6.227c.21 0 .384.173.384.384 0 .21-.168.384-.384.384z" fill="#D3483C"/><path d="M110.865 109.408h-6.227a.386.386 0 0 1-.384-.383v-.464c0-.211.174-.384.384-.384h6.227c.21 0 .384.173.384.384v.464c0 .21-.167.383-.384.383z" fill="#E6BF32"/><path d="M110.444 106.512h-6.227a.386.386 0 0 1-.384-.384v-.464c0-.21.174-.384.384-.384h6.227c.21 0 .384.174.384.384v.464a.386.386 0 0 1-.384.384z" fill="#324ACC"/><path d="M163.904 103.956s-1.015-2.198 0-3.448 1.968-.984 2.927-2.117c.96-1.133 1.585-2.507 2.792-1.925 1.207.582 1.207 2.872.625 4.085-.582 1.214-1.584 1.789-3.206 2.377-1.622.582-2.111.984-2.111.984l-1.027.044z" fill="#778200"/><path d="M163.031 103.9s-.965-.074-2.123-1.615c-1.157-1.535-.198-3.181-.421-4.562-.223-1.374-1.925-2.185-1.64-3.503.285-1.319 1.931-1.046 3.274-.136 1.337.91 2.798 2.773 2.81 4.592.013 1.814-.315 2.117-.464 3.207-.155 1.089-.161 1.547-.161 1.547l-1.275.47z" fill="#778200"/><path d="M160.295 103.616c-.223.179.495 3.676 1.207 4.654.458.632 1.374 1.133 2.501 1.139 1.894.019 2.469-.52 2.835-.829.897-.774 1.584-4.209 1.33-4.964-.142-.427-7.204-.52-7.873 0z" fill="#D3483C"/><path d="M168.484 124.493c-.136.192-3.67.297-7.978.334-6.896.062-13.345.025-13.438-.21-.149-.378-.303-14.763-.155-15.091.062-.136 6.041-.495 13.617-.563 4.426-.037 8.053.136 8.096.242.106.278.069 15.003-.142 15.288z" fill="#F5A86C"/><path d="M160.778 124.828c4.184-.038 7.576-.143 7.706-.329.211-.29.248-15.009.143-15.288-.044-.111-3.671-.285-8.096-.241-.137 0-.273 0-.409.006l.656 15.852z" fill="#DD8346"/><path d="M161.601 109.217c0-.105-.167-.111-.167 0-.031 5.113.093 10.225.18 15.338 0 .105.167.111.167 0-.087-5.113-.211-10.225-.18-15.338zM153.505 110.344a.194.194 0 0 0-.092-.068l-.038-.019c-.167-.043-.365.056-.389.235-.019.143.086.273.21.322.043.037.099.05.167.037a.308.308 0 0 0 .192-.173.338.338 0 0 0-.05-.334z" fill="#CC8869"/><path d="M184.627 124.307c-.081.111-2.185.21-4.754.266-4.11.093-9.402.099-9.458-.037-.093-.223-.291-9.049-.204-9.247.037-.081 5.385-.161 9.544-.174 2.643-.006 4.803.013 4.828.075.062.161.167 8.937.044 9.117z" fill="#F5A86C"/><path d="M180.405 115.109l.44 9.44c2.104-.056 3.707-.143 3.782-.242.123-.173.018-8.95-.05-9.117-.019-.062-1.838-.087-4.172-.081z" fill="#DD8346"/><path d="M183.884 115.153h-6.227a.387.387 0 0 1-.384-.384v-.464c0-.211.174-.384.384-.384h6.227c.21 0 .384.173.384.384v.464c0 .21-.174.384-.384.384z" fill="#D3483C"/><path d="M182.949 111.136h-5.88a.386.386 0 0 1-.384-.384v-.167c0-.211.173-.384.384-.384h5.88c.21 0 .384.173.384.384v.167a.374.374 0 0 1-.384.384z" fill="#A04490"/><path d="M183.463 113.915h-6.227a.385.385 0 0 1-.383-.384c0-.21.173-.384.383-.384h6.227c.211 0 .384.174.384.384a.378.378 0 0 1-.384.384z" fill="#FFE3D4"/><path d="M183.574 111.909h-6.226a.385.385 0 0 1-.384-.384c0-.21.173-.383.384-.383h6.226c.211 0 .384.173.384.383a.378.378 0 0 1-.384.384z" fill="#1A6885"/><path d="M183.921 113.148h-6.227a.386.386 0 0 1-.383-.384v-.464c0-.211.173-.384.383-.384h6.227c.211 0 .384.173.384.384v.464a.378.378 0 0 1-.384.384z" fill="#E6BF32"/><path d="M163.315 102.476c-.39-.551-.798-1.12-.996-1.77-.217-.7-.062-1.337.093-2.024.117-.526.173-1.046.006-1.566-.186-.582-.563-1.077-.929-1.554-.061-.086-.21 0-.142.087.409.532.848 1.102.984 1.776.136.706-.155 1.374-.26 2.068-.179 1.182.452 2.154 1.108 3.076.05.08.198 0 .136-.093zM169.165 97.55c-.075 1.467-.991 2.475-2.259 3.101-.941.458-2.043.959-2.272 2.092-.025.105.136.148.161.043.303-1.461 2.005-1.733 3.051-2.476.898-.637 1.43-1.665 1.492-2.76-.006-.106-.167-.106-.173 0z" fill="#586200"/><path d="M155.541 124.852c-.055-1.207-1.108-1.727-2.178-1.863-1.251-.155-2.055 1.095-2.055 2.172 0 1.077.792 1.82 1.986 1.832 1.505.019 2.297-1.064 2.247-2.141zM176.778 124.852c-.056-1.207-1.133-1.943-2.179-1.863-1.256.106-2.055 1.096-2.055 2.173s.793 1.82 1.987 1.832c1.504.019 2.297-1.065 2.247-2.142z" fill="#5F3A2B"/><path d="M148.269 101.109c-.279.124-.186 1.157.365 1.157.334 0 8.603.031 8.882 0 .489-.062.885-.99.155-1.157-.731-.167-9.025-.167-9.402 0z" fill="#F5DFD5"/><path d="M152.397 101.976s.279 22.251.421 23.062c.093.526.947.372 1.058.006.112-.365-.272-23.05-.272-23.05l-1.207-.018z" fill="#F5DFD5"/><path d="M153.425 118.885s3.701 5.366 4.215 5.521c.513.161 15.542.13 15.851.118.31-.013 1.603-.1 1.622.328.031.687-.043.643-1.826.662-1.783.018-15.74.062-15.969.056-.322-.013-4.172-5.119-4.172-5.119l.279-1.566z" fill="#F5DFD5"/><path d="M171.399 124.617s.403-1.3 1.139-1.937c.737-.638 2.006-.768 2.117-.619.112.154-.78.334-1.43.909-.65.576-1.027 1.69-1.027 1.758.006.075-.799-.111-.799-.111z" fill="#F5DFD5"/><path d="M155.387 100.873c-.062.044-.217.539-.205.83.019.291-.08.742.656.742.737 0 2.866.013 3.046 0 .402-.037.377-.823.34-1.008-.037-.186.087-.514-.408-.533-.496-.012-3.287-.13-3.429-.031zM150.93 100.873c.062.044.217.539.204.83-.018.291.081.742-.656.742-.736 0-2.866.013-3.045 0-.402-.037-.378-.823-.341-1.008.038-.186-.086-.514.409-.533.495-.012 3.293-.13 3.429-.031z" fill="#5F3A2B"/><path d="M76.76 108.326h-.582v2.018h.582v-2.018zM76.76 100.936h-.582v-1.727a.29.29 0 1 1 .582 0v1.727z" fill="#AB5838"/><path d="M78.97 110.542h-4.513c0-.272.223-.495.496-.495h3.522c.272 0 .495.223.495.495z" fill="#AB5838"/><path d="M81.192 105.083c0 1.244-.551 2.222-1.406 2.903-.903.711-2.141 1.089-3.453 1.089-.867 0-1.665-.161-2.352-.477h-.007c-1.343-.619-2.228-1.813-2.228-3.509 0-.576.105-1.145.291-1.684.173-.489.415-.953.718-1.374.724-1.015 1.776-1.795 2.983-2.098.192-.05.39-.087.588-.112 1.69-.204 2.86.372 3.628 1.3.885 1.059 1.238 2.594 1.238 3.962z" fill="#1A6885"/><path d="M74.91 106.945c-.007.421-.143 1.089-.422 1.411a.645.645 0 0 1-.501.236h-.006c-1.343-.619-2.229-1.814-2.229-3.51 0-.576.106-1.145.291-1.684a.397.397 0 0 1 .136.199c.36 1.064 2.916.532 2.631 1.894-.037.179-.248.482-.198.662.019.08.149.136.18.223.061.198.117.359.117.569zM75.745 99.927a8.222 8.222 0 0 1-.316 1.522c-.124.44-.248 1.121-.638 1.412-.39.291-.89-.075-1.262-.254a2.437 2.437 0 0 1-.768-.576c.718-1.021 1.777-1.801 2.984-2.104zM81.192 105.083c0 1.244-.551 2.222-1.405 2.903-.019-.037-.038-.081-.056-.118-.223-.204-.576-.402-.693-.538-.279-.335-.316-.613-.694-.885-.31-.223-.334-.248-.513-.589a.837.837 0 0 1-.1-.235l-.055-.024c-.031-.013-.57-.087-.632-.106-.303-.117-.396-.445-.185-.699.334-.39.142-1.046.452-1.479a1.06 1.06 0 0 1 .588-.409c.062-.254.21-.458.445-.662.285-.242 1.542-.78 1.616-1.127.879 1.065 1.232 2.6 1.232 3.968z" fill="#A1DCAF"/><path d="M88.112 88.246h-.75v7.644h.75v-7.644z" fill="#AB5838"/><path d="M103.09 94.968s2.439-2.946 2.229-3.187c-.211-.242-6.246-.118-6.58.062-.241.13-2.036 2.94-2.036 2.94s1.962.934 2.104 1.058c.142.124 2.284.39 2.439.36.155-.026 1.844-1.233 1.844-1.233z" fill="#BF662A"/><path d="M92.197 125.842c.142.186 3.676.229 7.984.186 6.896-.068 15.765-.341 15.852-.582.142-.384.037-14.762-.118-15.09-.068-.136-8.473-.26-16.05-.192-4.425.043-8.046.285-8.09.39-.098.284.211 15.003.422 15.288z" fill="#F5A86C"/><path d="M98.801 126.04c.452 0 .91-.006 1.381-.012 6.895-.068 15.765-.341 15.851-.582.143-.384.037-14.762-.117-15.09-.069-.136-8.474-.26-16.05-.192-.36.006-.718.006-1.065.012v15.864z" fill="#DD8346"/><path d="M68.466 125.898c.117.186 3.627.192 7.31.168 5.892-.031 13.475-.267 13.549-.508.117-.384-.037-14.762-.174-15.09-.055-.136-20.599-.019-20.636.086-.08.285-.229 15.06-.05 15.344z" fill="#F5A86C"/><path d="M81.099 125.991c4.333-.093 8.176-.26 8.226-.427.118-.384-.037-14.762-.173-15.09-.025-.062-3.924-.074-8.325-.056l.272 15.573z" fill="#DD8346"/><path d="M93.757 85.789L90.37 96.596l3.992.08 3.3-10.014s-.316-1.319-1.709-1.56c-1.386-.235-2.197.687-2.197.687z" fill="#D3483C"/><path d="M98.937 82.125l-4.32 13.809 5.1.105 4.036-12.243a1.522 1.522 0 0 0-.149-1.288 2.682 2.682 0 0 0-1.851-1.256c-1.782-.31-2.816.873-2.816.873z" fill="#324ACC"/><path d="M79.372 110.455c.142.186 3.676.229 7.984.186 6.896-.068 15.765-.34 15.852-.582.142-.383.037-14.762-.118-15.09-.068-.136-8.473-.26-16.05-.192-4.425.043-8.046.285-8.09.39-.104.285.205 14.997.422 15.288z" fill="#F5A86C"/><path d="M86.106 110.647c.409 0 .824-.007 1.25-.013 6.896-.068 15.766-.34 15.852-.582.143-.383.038-14.762-.117-15.09-.068-.136-8.474-.26-16.05-.192-.316 0-.625.006-.935.013v15.864zM85.976 94.789s-.848-2.847-1.015-3.101c-.167-.248-6.994.056-7.285-.019-.297-.074 1.275 3.498 1.275 3.498l7.025-.378z" fill="#DD8346"/><path d="M102.67 110.077c-3.596-.117-7.168.359-10.764.372-.105 0-.105.167 0 .167 3.59-.013 7.168-.489 10.764-.372.111.007.111-.161 0-.167z" fill="#CC8869"/><path d="M95.075 85.356c-.105-.012-.148.149-.043.161.192.025.39.056.582.08.123.02.241.032.365.05.235.037.31.1.377.291.075.217-.037.31-.148.538l-.13.267a6.062 6.062 0 0 0-.204.501c-.291.792-.47 1.615-.675 2.433-.409 1.621-1.139 3.162-1.319 4.834-.012.105.155.105.168 0 .111-1.034.445-2.006.773-2.984.31-.928.551-1.87.793-2.822.117-.458.241-.91.402-1.35a7.54 7.54 0 0 1 .34-.798c.075-.155.18-.316.205-.489.099-.73-1.003-.644-1.486-.712z" fill="#B83521"/><path d="M102.886 82.391c-.062-.359-.607-.489-.904-.588a4.602 4.602 0 0 0-1.925-.191c-.105.012-.105.18 0 .167a4.41 4.41 0 0 1 1.882.185c.161.056.396.106.526.217.291.248.211.378.087.743-.093.284-.248.563-.365.835-.502 1.164-.873 2.377-1.269 3.584l-1.232 3.751c-.384 1.17-.786 2.315-.867 3.553-.006.105.161.105.168 0 .093-1.46.637-2.829 1.089-4.209.464-1.405.922-2.81 1.386-4.215.217-.662.434-1.325.694-1.968.148-.372.315-.73.476-1.096.087-.223.291-.538.254-.768z" fill="#002C83"/><path d="M92.203 88.383c.037.136-2.012.47-3.9.47-1.887-.006-4.5-.235-5-.606-.056-.044-.02-.446.08-1.059.012-.056.018-.111.03-.167.329-1.925 1.177-5.577 1.66-7.007.018-.05.037-.099.05-.142.098-.272.179-.433.228-.452.415-.167 5.44-.111 5.608.167.019.031.043.149.08.347.007.05.019.105.031.167.242 1.442.756 5.515.997 7.36l.018.167c.075.445.112.73.118.755z" fill="#E6BF32"/><path d="M91.077 80.095c-.83.043-1.665.013-2.482.006a83.721 83.721 0 0 1-3.052-.061 6.24 6.24 0 0 1-.47-.031c.018-.05.037-.1.05-.143.37.037.76.019 1.082.031.855.025 1.703.031 2.557.037.749 0 1.522.031 2.284-.006.012.05.024.112.03.167zM92.098 87.622c-1.51.359-3.12.427-4.667.359-1.38-.056-2.754-.291-4.042-.792.013-.056.019-.112.031-.167 1.325.526 2.742.748 4.166.798 1.491.05 3.039-.012 4.5-.365 0 .062.006.117.012.167z" fill="#fff"/><path d="M283.612 126.709h-4.209c-1.35 0-2.458-1.183-2.458-2.625v-10.962c0-1.442 1.108-2.624 2.458-2.624h4.209c1.349 0 2.457 1.182 2.457 2.624v10.962c0 1.442-1.108 2.625-2.457 2.625zM293.812 126.709h-4.166c-1.337 0-2.432-1.183-2.432-2.625v-10.962c0-1.442 1.095-2.624 2.432-2.624h4.166c1.337 0 2.433 1.182 2.433 2.624v10.962c0 1.442-1.096 2.625-2.433 2.625zM235.097 126.852h-4.215c-1.356 0-2.464-1.182-2.464-2.624v-10.962c0-1.442 1.108-2.624 2.464-2.624h4.215c1.356 0 2.464 1.182 2.464 2.624v10.962c0 1.442-1.108 2.624-2.464 2.624zM245.403 126.851h-4.215c-1.356 0-2.464-1.182-2.464-2.624v-10.962c0-1.442 1.108-2.624 2.464-2.624h4.215c1.355 0 2.463 1.182 2.463 2.624v10.962c0 1.442-1.108 2.624-2.463 2.624z" fill="#192D4B"/><path d="M222.13 25.954l4.178 79.147.557 10.516h70.785l.303-29.809.625-61.525-76.448 1.671z" fill="#898989"/><path d="M296.48 93.242l-.632-66.508-70.487 1.944 1.739 64.564h69.38z" fill="#DADADA"/><path d="M294.883 90.809l-.774-60.863-67.034 1.226 1.814 60.287 65.994-.65z" fill="#1B3A52"/><path d="M242.555 102.979h-13.536a.278.278 0 0 1-.279-.279v-3.8c0-.155.124-.279.279-.279h13.536c.155 0 .279.124.279.279v3.8a.278.278 0 0 1-.279.279zM295.601 102.979h-13.537a.277.277 0 0 1-.278-.279v-3.8c0-.155.123-.279.278-.279h13.537c.155 0 .278.124.278.279v3.8a.277.277 0 0 1-.278.279z" fill="#D8233D"/><path d="M273.145 102.836h-20.166v5.249h20.166v-5.249z" fill="#fff"/><path d="M302.316 111.439h-80.001v4.785h80.001v-4.785zM297.854 29.557l14.743-2.823V97.37l-14.044-4.128-.699-63.685z" fill="#B2B2B2"/><path d="M296.87 29.557l14.743-2.823V97.37l-14.044-4.128-.699-63.685z" fill="#DBDBDB"/><path d="M222.829 29.742l-14.855-2.123 3.349 70.562 13.827-4.797-2.321-63.642z" fill="#B2B2B2"/><path d="M223.813 29.693l-14.855-2.117 3.349 70.556 13.827-4.791-2.321-63.648z" fill="#DBDBDB"/><path d="M224.402 48.887a.585.585 0 0 1-.607-.551l-.34-7.44a.584.584 0 0 1 .55-.607.585.585 0 0 1 .607.551l.34 7.44a.572.572 0 0 1-.55.607z" fill="#A09F9F"/><path d="M225.683 93.242l72.171.421v1.411l-72.085-.16-.086-1.672z" fill="#777776"/><path d="M225.559 80.045a.585.585 0 0 1-.607-.55l-.34-7.44a.584.584 0 0 1 .551-.607.584.584 0 0 1 .606.55l.341 7.44a.578.578 0 0 1-.551.607zM297.167 48.584a.576.576 0 0 0 .569-.588l-.099-7.446a.576.576 0 0 0-.588-.57.575.575 0 0 0-.569.589l.099 7.446c0 .315.266.575.588.57zM297.674 81.945a.576.576 0 0 0 .57-.587l-.099-7.447a.577.577 0 0 0-.588-.57.585.585 0 0 0-.576.589l.099 7.446a.585.585 0 0 0 .594.57z" fill="#A09F9F"/><path d="M231.328 98.998h-2.185v3.664h2.185v-3.664zM295.266 98.974h-2.184v3.664h2.184v-3.664z" fill="#E94642"/><path d="M284.081 91.855l1.876-38.425-18.253-.477-.062 39.335 16.439-.433z" fill="#F5A86C"/><path d="M267.704 52.953l-28.615.675 2.791 38.425 25.762.235.062-39.335z" fill="#DD8346"/><path opacity=".5" d="M278.492 92.511l2.29-39.217-3.701-.093v39.471l1.411-.16z" fill="#FFF6D6"/><path opacity=".5" d="M285.109 70.748l-17.405.879-27.352-.588.198 2.662 27.154 1.405 17.405-2.18v-2.178z" fill="#FFF6D6"/><path opacity=".5" d="M254.619 53.263l1.745 39.756-2.197-.149-3.194-39.52 3.646-.087z" fill="#FFF6D6"/><path d="M275.28 87.578l-.335 3.56-6.189.531v-3.206l6.524-.885z" fill="#FFF6D6"/><path d="M271.293 79.03a6.809 6.809 0 1 0 0-13.617 6.809 6.809 0 0 0 0 13.617z" fill="#FFA49F"/><path d="M271.015 79.218a6.81 6.81 0 1 0 0-13.618 6.81 6.81 0 0 0 0 13.618z" fill="#E63C2F"/><path d="M271.015 76.69a4.283 4.283 0 1 0 0-8.565 4.283 4.283 0 0 0 0 8.566z" fill="#9B0001"/><path d="M273.992 69.331a4.256 4.256 0 0 1 1.003 2.748 4.285 4.285 0 0 1-4.283 4.284 4.25 4.25 0 0 1-2.978-1.207 4.278 4.278 0 0 0 3.281 1.534 4.285 4.285 0 0 0 4.283-4.283 4.27 4.27 0 0 0-1.306-3.076z" fill="#87040B"/><path d="M269.857 78.628a6.808 6.808 0 1 0 .001-13.617 6.808 6.808 0 0 0-.001 13.617z" fill="#FFA49F"/><path d="M269.579 78.815a6.81 6.81 0 1 0 0-13.618 6.81 6.81 0 0 0 0 13.618z" fill="#E63C2F"/><path d="M269.579 76.288a4.283 4.283 0 1 0 0-8.565 4.283 4.283 0 0 0 0 8.565z" fill="#9B0001"/><path d="M272.557 68.929a4.256 4.256 0 0 1 1.002 2.748 4.285 4.285 0 0 1-4.283 4.283 4.248 4.248 0 0 1-2.977-1.207 4.278 4.278 0 0 0 3.28 1.535 4.285 4.285 0 0 0 4.284-4.283 4.274 4.274 0 0 0-1.306-3.076z" fill="#87040B"/><path d="M264.912 78.535a6.81 6.81 0 1 0 0-13.618 6.81 6.81 0 0 0 0 13.618z" fill="#FFA49F"/><path d="M264.627 78.723a6.808 6.808 0 1 0 .001-13.617 6.808 6.808 0 0 0-.001 13.617z" fill="#E63C2F"/><path d="M264.627 76.195a4.284 4.284 0 1 0 0-8.567 4.284 4.284 0 0 0 0 8.567z" fill="#9B0001"/><path d="M267.605 68.836a4.256 4.256 0 0 1 1.003 2.748 4.285 4.285 0 0 1-4.284 4.283 4.25 4.25 0 0 1-2.977-1.207 4.278 4.278 0 0 0 3.281 1.535 4.285 4.285 0 0 0 4.283-4.283 4.27 4.27 0 0 0-1.306-3.076z" fill="#87040B"/><path d="M268.713 78.517a6.808 6.808 0 1 0 0-13.617 6.808 6.808 0 0 0 0 13.617z" fill="#FFA49F"/><path d="M268.434 78.704a6.81 6.81 0 1 0 0-13.618 6.81 6.81 0 0 0 0 13.618z" fill="#E63C2F"/><path d="M268.434 76.177a4.283 4.283 0 1 0 0-8.566 4.283 4.283 0 0 0 0 8.566z" fill="#9B0001"/><path d="M271.411 68.817a4.25 4.25 0 0 1 1.003 2.749 4.285 4.285 0 0 1-4.283 4.283 4.248 4.248 0 0 1-2.977-1.207 4.277 4.277 0 0 0 3.28 1.535 4.285 4.285 0 0 0 4.284-4.283 4.27 4.27 0 0 0-1.307-3.077z" fill="#87040B"/><path d="M267.45 78.517a6.81 6.81 0 1 0 0-13.619 6.81 6.81 0 0 0 0 13.619z" fill="#FFA49F"/><path d="M267.171 78.704a6.808 6.808 0 1 0 .001-13.617 6.808 6.808 0 0 0-.001 13.617z" fill="#E63C2F"/><path d="M267.171 76.177a4.284 4.284 0 1 0 0-8.567 4.284 4.284 0 0 0 0 8.567z" fill="#9B0001"/><path d="M270.148 68.817a4.25 4.25 0 0 1 1.003 2.749 4.285 4.285 0 0 1-4.283 4.283 4.246 4.246 0 0 1-2.977-1.207 4.277 4.277 0 0 0 3.28 1.535 4.284 4.284 0 0 0 4.283-4.283 4.27 4.27 0 0 0-1.306-3.077z" fill="#87040B"/><path d="M266.41 78.535a6.81 6.81 0 1 0 0-13.618 6.81 6.81 0 0 0 0 13.618z" fill="#FFA49F"/><path d="M266.132 78.723a6.808 6.808 0 1 0 0-13.617 6.808 6.808 0 0 0 0 13.617z" fill="#E63C2F"/><path d="M266.132 76.195a4.283 4.283 0 1 0 0-8.566 4.283 4.283 0 0 0 0 8.566z" fill="#9B0001"/><path d="M269.109 68.836a4.256 4.256 0 0 1 1.003 2.748 4.285 4.285 0 0 1-4.283 4.283 4.247 4.247 0 0 1-2.977-1.207 4.278 4.278 0 0 0 7.563-2.748 4.27 4.27 0 0 0-1.306-3.076z" fill="#87040B"/><path d="M265.271 78.628a6.808 6.808 0 1 0 .001-13.617 6.808 6.808 0 0 0-.001 13.617z" fill="#FFA49F"/><path d="M264.987 78.815a6.808 6.808 0 1 0 0-13.616 6.808 6.808 0 0 0 0 13.616z" fill="#E63C2F"/><path d="M264.987 76.288a4.283 4.283 0 1 0 0-8.567 4.283 4.283 0 0 0 0 8.567z" fill="#9B0001"/><path d="M267.964 68.929a4.256 4.256 0 0 1 1.002 2.748 4.284 4.284 0 0 1-4.283 4.283 4.25 4.25 0 0 1-2.977-1.207 4.278 4.278 0 0 0 3.281 1.535 4.285 4.285 0 0 0 4.283-4.283 4.274 4.274 0 0 0-1.306-3.076z" fill="#87040B"/><path d="M262.399 79.166a6.808 6.808 0 1 0 .001-13.617 6.808 6.808 0 0 0-.001 13.617z" fill="#E63C2F"/><path d="M262.399 76.64a4.284 4.284 0 1 0 0-8.567 4.284 4.284 0 0 0 0 8.568z" fill="#9B0001"/><path d="M265.377 69.281a4.256 4.256 0 0 1 1.003 2.748 4.285 4.285 0 0 1-4.284 4.284 4.25 4.25 0 0 1-2.977-1.207 4.278 4.278 0 0 0 3.281 1.535 4.285 4.285 0 0 0 4.283-4.284 4.263 4.263 0 0 0-1.306-3.076z" fill="#87040B"/><path d="M263.631 78.628a6.808 6.808 0 1 0 0-13.617 6.808 6.808 0 0 0 0 13.617z" fill="#FFA49F"/><path d="M263.346 78.815a6.81 6.81 0 1 0 0-13.618 6.81 6.81 0 0 0 0 13.618z" fill="#E63C2F"/><path d="M267.58 72.693a4.283 4.283 0 1 0-8.456-1.372 4.283 4.283 0 0 0 8.456 1.372z" fill="#9B0001"/><path d="M266.323 68.929a4.256 4.256 0 0 1 1.003 2.748 4.285 4.285 0 0 1-4.283 4.283 4.25 4.25 0 0 1-2.978-1.207 4.281 4.281 0 0 0 3.281 1.535 4.285 4.285 0 0 0 4.283-4.283 4.27 4.27 0 0 0-1.306-3.076z" fill="#87040B"/><path fill-rule="evenodd" clip-rule="evenodd" d="M278.981 70.946h-13.71v20.45h12.249l1.461-20.45z" fill="#DD8346"/><path fill-rule="evenodd" clip-rule="evenodd" d="M265.271 70.946h-13.71l1.467 20.45h12.243v-20.45z" fill="#F5A86C"/><path fill-rule="evenodd" clip-rule="evenodd" d="M278.981 70.946h-13.71l3.392 5.775h13.704l-3.386-5.775z" fill="#DD8346"/><path fill-rule="evenodd" clip-rule="evenodd" d="M265.272 70.946h-13.71l-4.933 7.15h13.71l4.933-7.15z" fill="#DD8346"/><path fill-rule="evenodd" clip-rule="evenodd" d="M265.024 70.946h-13.71l-4.779 6.778h13.71l4.779-6.778zM279.204 70.946h-13.71l3.349 5.559h13.71l-3.349-5.559z" fill="#F0C49C"/><path d="M241.166 83.811l-1.3-.011-.04 4.518 1.3.012.04-4.519z" fill="#A34926"/><path d="M239.999 67.852l-.142 15.944 14.292.13-.037 4.519 1.299.012.038-4.519.142-15.944-15.592-.142z" fill="#A34926"/><path d="M254.254 76.511l-13.072-.117-.062 6.635 6.672.062c2.135-1.09 4.345-2.03 6.425-3.089l.037-3.49z" fill="#8E3D12"/><path d="M254.223 80.002c-2.086 1.058-4.289 2-6.425 3.089l6.4.055.025-3.144z" fill="#7A2E0A"/><path d="M254.297 71.938c-2.5 1.287-5.001 2.475-7.303 4.029l7.266.068.037-4.097z" fill="#8E3D12"/><path d="M254.316 69.393l-13.072-.118-.062 6.636 5.799.05c2.309-1.554 4.803-2.743 7.304-4.03l.031-2.538z" fill="#8E3D12"/><path d="M256.358 66.98l-17.43-.157-.009 1.022 17.43.156.009-1.022zM248.566 72.804a.661.661 0 0 1-.663.65.66.66 0 0 1-.65-.662.662.662 0 0 1 .663-.65c.359.006.65.303.65.662z" fill="#7A2E0A"/><path d="M248.343 79.78a.66.66 0 0 1-.662.65.66.66 0 0 1-.65-.663.657.657 0 0 1 1.312.012z" fill="#1D1D1B"/><path fill-rule="evenodd" clip-rule="evenodd" d="M258.611 78.658h-10.782v12.72h9.631l1.151-12.72z" fill="#DD8346"/><path fill-rule="evenodd" clip-rule="evenodd" d="M247.829 78.658h-10.776l1.145 12.72h9.631v-12.72z" fill="#F5A86C"/><path fill-rule="evenodd" clip-rule="evenodd" d="M258.611 78.658h-10.782l2.668 3.59h10.776l-2.662-3.59z" fill="#DD8346"/><path fill-rule="evenodd" clip-rule="evenodd" d="M247.829 78.658h-10.776l-3.881 4.444h10.776l3.881-4.444zM258.785 78.658h-10.783l2.637 3.46h10.776l-2.63-3.46z" fill="#F0C49C"/><path d="M236.855 91.379l53.72-.526.606 1.894-28.41.173h-12.126l-14.409-.316.619-1.225z" fill="#DADADA"/><path d="M192.297 126.127h5.88s.303-1.566-.922-3.627l-3.962.05c-.006 0-1.102 1.621-.996 3.577z" fill="#5E4738"/><path d="M198.096 126.127h-5.881v.928h5.881v-.928z" fill="#443227"/><path d="M195.187 125.218c1.223 0 2.215-.327 2.215-.731 0-.403-.992-.73-2.215-.73-1.224 0-2.216.327-2.216.73 0 .404.992.731 2.216.731z" fill="#917561"/><path d="M186.194 122.141s.458 2.339.111 3.986h-11.03s-.42-2.402 4.395-2.396l3.089-2.085 3.435.495z" fill="#5E4738"/><path d="M186.236 127.055h-3.565l-.043-.644s-1.585.619-3.683.619c-1.021 0-3.745.037-3.745.037v-.947h11.036v.935z" fill="#443227"/><path d="M179.36 123.744s-.124 1.708-3.943 1.628c-.006 0 .483-1.56 3.943-1.628z" fill="#917561"/><path d="M180.907 84.05l-.204 38.45s3.008 1.51 5.843.328l1.083-32.007.835-.037 4.098 32.05s2.166.972 5.36-.204l-3.243-38.58h-13.772z" fill="#7C5F49"/><path d="M196.474 105.392c-2.123 5.762-4.933 2.067-6.14.006l2.228 17.442s2.167.984 5.36-.198l-1.448-17.25zM194.679 84.05h-13.803v5.366c1.133.495 3.417 1.294 6.716 1.87l.031-.465.841-.043.093.662c1.919.291 4.16.495 6.722.545l-.6-7.935z" fill="#6B513F"/><path d="M186.948 58.257l-.068 2.55 4.227.118.093-3.318c-1.776.805-3.534.737-4.252.65z" fill="#FAA284"/><path d="M191.195 57.608l.068-2.557-4.228-.117-.093 3.323c.725.087 2.482.155 4.253-.65z" fill="#EF8D72"/><path d="M188.694 61.39c2.5 0 3.101-1.387 3.187-1.82-1.776-.36-3.534-.501-5.725-.204-.05.495.08 2.024 2.538 2.024z" fill="#FAA284"/><path d="M197.508 61.433s-2.408-1.312-5.342-1.956c-.124-.024-.254-.055-.378-.08-.086.433-.557 1.764-3.057 1.764-2.457 0-2.538-1.411-2.488-1.919-.18.025-.366.05-.558.08-1.336.211-2.983.75-4.314 1.369 0 0-1.788 7.737-1.002 26.058 0 0 5.954 2.142 15.517.316 0 0-.897-12.831.34-17.851 0 .012.892-4.624 1.282-7.78z" fill="#4972C4"/><path d="M197.508 61.433c-8.171 6.833-9.173 10.893-17.288 13.468-.068 2.228.074 9.625.155 11.853 0 0 5.954 2.142 15.517.316 0 0-.897-12.831.341-17.85-.007.005 1.2-7.367 1.275-7.787z" fill="#4365A8"/><path d="M192.215 45.451s-4.072 1.938-5.05 1.832c-.978-.105-4.123-1.609-4.123-1.609-.402 1.888.588 3.522.588 3.522l8.852 2.043 1.491.39c.403-1.597.749-3.238.743-4.172-1.826-.415-2.501-2.006-2.501-2.006z" fill="#3B221D"/><path d="M193.589 44.38c-.798-3.206-6.263-3.422-6.263-3.422-2.879-1.746-1.795.489-1.795.489-4.81-1.721-2.52 2.612-2.52 2.612-1.782-.062.031 1.621.031 1.621s3.138 1.504 4.123 1.61c.978.105 5.05-1.833 5.05-1.833s.675 1.591 2.501 2.006c-.012-2.86-1.127-3.083-1.127-3.083z" fill="#502F26"/><path d="M193.589 50.47l-.662.564a7.794 7.794 0 0 1-.347-1.028c-.538-2.017-.365-4.549-.365-4.549-4.642 1.801-8.61.501-8.61.501.223 2.303-.538 7.378 1.226 9.978.526.774 1.188 1.43 2.303 1.603 4.858.761 6.103-3.992 6.103-3.992s1.522.408 1.832-1.838c.253-1.864-1.48-1.238-1.48-1.238z" fill="#FAA284"/><path d="M191.528 46.28s.39 2.142.984 3.436c-.451-1.931-.297-4.265-.297-4.265-4.642 1.801-8.61.502-8.61.502.025.253.031.538.038.847 1.801.254 5.032.477 7.885-.52z" fill="#EF8D72"/><path d="M186.292 51.059c-.006.414-.26.736-.57.711-.309-.024-.557-.383-.55-.798.006-.415.259-.737.569-.712.303.019.551.378.551.799zM190.532 50.936c-.006.414-.26.736-.569.711-.31-.024-.557-.383-.551-.798.006-.421.26-.737.569-.712.31.019.557.378.551.799z" fill="#502F26"/><path d="M187.796 53.43c-.941.378-1.442-.062-1.485-.507a.643.643 0 0 1 .414-.657c.57-.222.978-1.101.978-1.114 0 .205-.204.966-.928 1.387-.155.093-.254.185-.242.328.025.254.384.625 1.263.563z" fill="#DB7C65"/><path d="M184.379 48.905l-.043-.285c.062-.006 1.027-.266 2.166-.173l.013.445c-.929-.142-2.117.007-2.136.013zM191.275 49.054c-.762-.297-2.167-.347-2.185-.353l.093-.402c.055.012 1.33.056 2.185.514l-.093.241z" fill="#502F26"/><path d="M183.414 41.057s2.024 1.986 6.752 1.986c0 0-3.088 2.154-7.297.718 0-.006-1.071-2.556.545-2.704z" fill="#674434"/><path d="M192.865 52.984c-.415 1.201-1.95 4.166-5.267 3.986-1.795-.099-2.705-1.28-3.306-2.11.143.39.316.749.533 1.07.526.774 1.188 1.43 2.302 1.604 4.859.76 6.103-3.993 6.103-3.993s1.164.328 1.684-1.157c-.904 1.504-2.049.6-2.049.6z" fill="#EF8D72"/><path d="M189.424 54.08s-1.771.358-3.411 0c0 0 .291 1.51 1.702 1.51 1.337 0 1.696-1.214 1.709-1.51z" fill="#CE3E3E"/><path d="M187.686 54.804c-1.09 0-1.405-.452-1.541-.7 1.275.254 2.302.1 3.2-.012-.099.278-.638.712-1.659.712z" fill="#fff"/><path d="M181.229 76.728s-3.522 1.008-3.838.996c0 0 0 3.163 4.785 1.653l.693-1.548-1.64-1.101z" fill="#FAA284"/><path d="M197.508 61.433s-2.321-.898-6.14 7.42l-1.764 3.387s-5.651 3.38-8.344 4.202c0 0-.34 2.192 1.182 3.12 0 0 7.756-1.188 10.585-4.475 2.401-2.792 7.823-10.653 4.481-13.654z" fill="#4972C4"/><path d="M183.11 57.496l-2.265 15.06-11.148-.372.774-15.387 12.639.7z" fill="#DD8346"/><path opacity=".5" d="M175.181 57.057l2.191.123-1.009 15.227-2.197-.074" fill="#FFF6D6"/><path d="M161.626 56.302l8.845.495-.774 15.387-8.628-.29.557-15.592z" fill="#F5A86C"/><path opacity=".5" d="M164.876 56.481l2.333.13-.966 15.456-2.339-.08.972-15.506z" fill="#FFF6D6"/><path d="M184.41 72.612l-2.03 14.787h-13.382l-.916-15.598 16.328.81z" fill="#DD8346"/><path d="M157.139 71.25l10.943.55.916 15.599h-11.172l-.687-16.149z" fill="#F5A86C"/><path d="M177.527 82.818l-.006-.012a.386.386 0 0 1 .056-.545l1.894-1.622c-.019-.018-.031-.043-.05-.068l-2.766 1.436c-.205.105-.458.037-.558-.16l-.006-.013a.414.414 0 0 1 .192-.551l2.81-1.486c-.006-.018.006.02-.018-.074l-3.312.75c-.229.049-.396-.056-.445-.285l-.007-.013c-.049-.229.031-.489.26-.538l3.38-.768.006.019-2.946-.106a.413.413 0 0 1-.403-.433v-.012a.419.419 0 0 1 .44-.403l2.81.093c.514-.093.712-.173.91-.216l.235-.056-.984-.836c-.266-.18-.353-.489-.21-.705l.012-.006c.148-.217.427-.174.687.006l1.937 1.194c.687.192 1.399.397 1.616 1.362a1.623 1.623 0 0 1-1.226 1.944s-1.368.39-1.665.476l-2.092 1.653a.385.385 0 0 1-.551-.025z" fill="#FAA284"/><path d="M191.72 71.912c.508-.124 1.034 0 1.442.31.105.074.161.13.18.142l.018.03a1.78 1.78 0 0 1 .328.495c.007.013.007.025.013.038.142.328.154.637.105.903-.037.242-.124.47-.26.675-.037.062-.068.105-.08.13-.019.019-.05.043-.069.068-.099.112-.21.21-.34.291-2.686 2.136-8.548 4.797-9.897 5.001-.316-.47-1.133-2.259-1.257-2.506.848-.836 2.81-2.284 6.778-4.24.786-.39 1.386-.694 1.882-.953.439-.223.823-.341 1.157-.384z" fill="#4972C4"/><path d="M144.895 63.16s1.232-11.34-1.547-16.855c-2.16-4.283-4.716-2.11-4.716-2.11s-2.458-1.696-4.129.55c-1.665 2.247-4.382 7.855-.532 14.33 3.856 6.468 10.924 4.085 10.924 4.085z" fill="url(#paint0_linear)"/><path d="M133.042 47.32c.366-.854.78-1.584 1.164-2.16 3.732 1.839 6.827.793 8.412-.055.247.328.489.724.73 1.194.149.291.285.607.409.928-2.278.335-6.468.737-10.715.093z" fill="#674434"/><path d="M144.01 61.594s1.82.322 2.829 9.99l-3.522.384s-2.99-9.88.693-10.374z" fill="#AD7CC2"/><path d="M132.318 92.95l6.487 1.083c-.068 1.325-2.179 6.097-2.705 8.715a11481.18 11481.18 0 0 1-3.875 18.829l-2.346.143c-.835-12.324 2.03-20.748 2.03-20.748.044-3.274-.117-4.97.409-8.022z" fill="#FAA284"/><path d="M138.805 94.033l-6.487-1.083c-.526 3.046-.365 4.741-.415 8.022 0 0-.458 1.232-.947 3.509 1.139-.315 2.922-.662 4.884-.476.105-.501.192-.922.253-1.25.533-2.619 2.643-7.39 2.712-8.722z" fill="#EF8D72"/><path d="M139.807 94.127l6.425.334c-1.021 3.955-2.333 9.006-2.754 10.219-.966 2.779-1.752 17.69-1.752 17.69h-2.63c.092-2.68-.626-5.28-.892-7.006-1.213-7.867 1.071-12.175 1.071-12.175-.223-2.117.341-6.976.532-9.062z" fill="#FAA284"/><path d="M146.232 94.454l-6.425-.334c-.192 2.092-.761 6.951-.538 9.056 0 0-.452.848-.848 2.482 1.077-.428 3.101-1.121 5.137-1.245.495-1.535 1.715-6.233 2.674-9.959z" fill="#EF8D72"/><path d="M139.981 64.831c3.311-.328 2.971-2.717 2.507-4.06-1.387-.625-2.334-.724-3.826-.718-2.624.012-3.379.452-4.215.792.248.904 1.486 4.383 5.534 3.986z" fill="#FAA284"/><path d="M144.221 75.898l.829-5.873s1.312-1.424 1.275-2.78c-.012-.6.006-1.584-1.888-3.218l-.433-2.439s-.47-.415-1.331-.842c-.773-.39-1.702-.594-1.764-.625.39 1.127-.043 1.82-1.974 1.95-2.247.148-2.711-.978-2.965-1.882-.037.013-.99.303-1.647.588-.569.248-1.157.557-1.764.929l.799 6.548s1.776 4.463 2.005 7.453c0 0-6.901 8.826-6.004 25.668 0 0 10.238 4.333 19.962-.105.006.006-1.863-18.817-5.1-25.371z" fill="#AD7CC2"/><path d="M139.968 59.297l.013 1.139s-.037 1.04-1.609 1.04c-1.579 0-1.597-1.028-1.597-1.028l-.013-1.925c1.331.873 2.662.848 3.206.774z" fill="#FAA284"/><path d="M136.756 58.523l-.012-2.624 3.206-.012.012 3.416c-.538.069-1.869.093-3.206-.78z" fill="#EF8D72"/><path d="M144.771 70.253c1.096-.316 1.449-2.185 1.449-2.185-1.022.285-5.187.458-8.412.532-3.225.068-4.989-4.698-4.989-4.698h-.006l.545 4.426s1.776 4.432 2.005 7.421c0 0 .464.291 1.319.57l.482-.57c-2.766-8.35 6.512-5.18 7.607-5.496z" fill="#9658B0"/><path d="M133.451 51.109l.086.03s.464 3.324 1.597-.699c2.668-2.042 3.497-5.119 3.497-5.119 1.009 2.253 3.485 5.38 4.76 5.887.043.755-.037 1.906-.13 2.94-.186 2.011-1.232 3.484-3.206 3.949-4.76 1.12-6.103-3.398-6.103-3.398s-1.789.037-1.999-2.278c-.167-1.894 1.498-1.312 1.498-1.312z" fill="#FAA284"/><path d="M138.514 46.968s-1.282 2.488-3.386 3.466c2.68-2.048 3.497-5.119 3.497-5.119.898 2 2.953 4.692 4.289 5.627-.897-.365-2.494-1.35-4.4-3.974zM134.373 54.203s1.287 3.343 3.955 3.702c1.622.216 3.021-.47 3.862-1.053-.52.595-1.231 1.022-2.141 1.238-4.76 1.12-6.103-3.398-6.103-3.398s-1.418.019-1.876-1.59c1.201 1.652 2.303 1.101 2.303 1.101z" fill="#EF8D72"/><path opacity=".9" d="M141.596 54.347a.063.063 0 1 0 .063-.063c-.032-.006-.063.025-.063.063z" fill="#EA7460"/><path d="M140.655 55.243s-1.225.384-3.194-.006c0 0 .477 1.597 1.814 1.492 1.195-.087 1.38-1.486 1.38-1.486z" fill="#CE3E3E"/><path d="M140.607 55.325s-1.275.433-3.07-.007c0 0 .303.669 1.708.626 1.263-.038 1.362-.62 1.362-.62z" fill="#fff"/><path d="M140.81 50.502s.929-.359 1.95.372c0 0 .012-.124-.198-.34-.211-.217-.836-.54-1.492-.39 0 0-.396.228-.26.358zM138.285 50.787s-1.065-.446-2.26.353c0 0-.012-.143.236-.378.247-.235.978-.582 1.727-.39 0 0 .458.273.297.415z" fill="#502F26"/><path d="M139.182 54.655c.947.428 1.486-.006 1.541-.458a.654.654 0 0 0-.402-.687c-.576-.253-.959-1.17-.959-1.182-.013.204.167.997.897 1.46.155.1.254.205.235.348-.037.247-.421.618-1.312.52z" fill="#D3755F"/><path d="M137.041 51.586s.594-.02.662-.248c0 0 .093.31-.266.433a.862.862 0 0 1 .21.557c.019.421-.222.78-.538.792-.316.013-.594-.315-.613-.736-.018-.427.223-.786.545-.798zM141.38 51.561s.594-.019.662-.248c0 0 .093.31-.266.434a.862.862 0 0 1 .21.557c.019.42-.223.78-.538.792-.316.013-.594-.316-.613-.736-.019-.428.229-.78.545-.799z" fill="#502F26"/><path d="M132.417 123.199s1.684 2.755.576 3.813h-3.665s-.94-.842.353-3.689l1.783-.019.953-.105z" fill="#842D2D"/><path d="M132.219 121.584l.52 3.386c-.941-.687-2.284-.508-3.169.13 0 0-.149-1.387.321-3.448l1.189-.656 1.139.588zM143.868 125.941c-.161.018-3.664-.532-4.302-1.046-.47-.378-.736-.52-.829-1.238.21-.508.353-1.294.353-1.294l1.256-.86 1.374.86c.879.935 2.835 2.699 2.835 2.699s-.526.86-.687.879z" fill="#FAA284"/><path d="M139.938 124.548c.78.347 3.72 1.176 3.881 1.157.16-.018.581-.786.581-.786 3.021.081 2.817 1.22 2.841 1.665.025.446-2.587.403-3.936.409-.947 0-2.885-.724-2.885-.724l-.061.724h-1.362c-.811-1.337-.576-2.575-.26-3.343.21.588 1.201.898 1.201.898z" fill="#842D2D"/><path d="M136.682 76.313s-5.305 7.78-6.852 14.712c0 0 1.145-9.185 5.533-15.282l1.319.57z" fill="#9658B0"/><path d="M132.565 61.712s-1.77 1.002-1.696 10.38l3.671 1.089c-.006 0 1.634-11.705-1.975-11.47z" fill="#AD7CC2"/><path d="M145.756 69.145s1.269.42 1.807-1.319c.539-1.739.155-2.667.043-3.212-.111-.545 1.121-1.288.328-3.77-.352-1.12.366-2.562-.947-3.15-.538-.242-1.999.935-2.184 2.018-.186 1.083.396 1.467.216 2.259-.179.792-.582 2.074-.371 2.884.21.811.445 1.486.458 2.6.025 1.108.65 1.69.65 1.69z" fill="#778200"/><path d="M145.106 68.965s.062-1.17.148-1.894c.087-.724-.81-1.09-.971-1.69-.099-.377.148-1.733.031-2.117-.118-.383-.427-.792-.78-1.139-.347-.346-1.213-1.027-1.715-1.033-.872 0-1.479.984-.693 2.178.557.848.087 2.056.365 2.786.279.736 1.634 1.529 1.839 1.646.204.118 1.776 1.263 1.776 1.263zM146.412 69.157s.972.49 1.622.031c.656-.451.854-.798.941-1.337.092-.538 1.423-.464 1.931-1.349.315-.557.544-1.306.767-1.993.223-.68 1.288-1.925.854-2.457-.433-.533-2.271-.452-3.323.662-.749.799-.57 2.29-.954 2.643-.383.353-.804.42-1.405.91-.6.489-.433 2.89-.433 2.89z" fill="#778200"/><path d="M145.96 65.127c-.012-.711.211-1.361.421-2.03.167-.544.31-1.108.204-1.677-.123-.681-.668-1.424-.21-2.092.049-.075-.068-.143-.118-.068-.352.52-.148 1.12.044 1.659.291.835.136 1.56-.124 2.376-.211.663-.384 1.306-.347 2.012.037.68.242 1.337.582 1.931.043.074.167.006.118-.068a4.158 4.158 0 0 1-.57-2.043zM151.456 62.999c-1.009.241-1.188 1.337-1.547 2.148-.248.563-.613.86-1.145 1.139-.353.191-.681.427-.768.841-.018.087.118.124.137.038.105-.533.637-.706 1.052-.948a1.93 1.93 0 0 0 .743-.798c.427-.805.513-2.043 1.565-2.29.087-.019.05-.149-.037-.13zM144.524 67.115c-.501-.1-.935-.39-1.207-.823-.322-.52-.266-1.102-.198-1.678.093-.755.08-1.832-.854-2.036-.087-.019-.124.111-.037.136 1.343.291.557 2.154.73 3.052.148.755.78 1.343 1.529 1.491.086.013.124-.124.037-.142z" fill="#586200"/><path d="M142.227 68.068c-.173.186.069 2.507.372 3.763.303 1.257.433 3.578 1.046 3.887.613.31 4.859.155 5.044 0 .434-.365.811-3.156 1.022-4.679.21-1.523.297-2.488.154-2.971-.092-.316-7.328-.334-7.638 0z" fill="#D3483C"/><path d="M148.213 74.951l.21.978a.441.441 0 0 1-.334.52l-.105.025a.43.43 0 0 1-.378-.099.41.41 0 0 1-.284.241l-.106.025a.423.423 0 0 1-.414-.16.42.42 0 0 1-.322.29l-.105.025a.442.442 0 0 1-.322-.056.335.335 0 0 1-.13.112l-.081.043a.358.358 0 0 1-.476-.155l-.366-.724a.36.36 0 0 1 .155-.477l.081-.043a.35.35 0 0 1 .433.093l-.025-.111a.442.442 0 0 1 .334-.52l.106-.025a.431.431 0 0 1 .34.068c-.012-.235.124-.44.334-.49l.106-.024c.198-.043.396.08.489.285a.409.409 0 0 1 .235-.136l.105-.025a.445.445 0 0 1 .52.34zM130.863 72.09s-.229 2.885 3.671 2.675c3.571-.192 5.967-.774 5.967-.774l-.248-1.98s-4.939-1.01-9.39.08z" fill="#FAA284"/><path d="M145.124 73.23c-.018-.167-.13-.241-.353-.204l.427-.074c.223-.037.384-.21.347-.446-.037-.235-.248-.346-.47-.31l.569-.123c.235-.093.371-.23.334-.458-.037-.23-.198-.322-.47-.31l-.495.037a.422.422 0 0 0 .334-.488c-.031-.192-.235-.31-.464-.273l-3.052.427.434-.761c.136-.241.148-.638-.044-.786-.192-.149-.359-.043-.495.204l-1.343 1.517c-.421.433-.842.99-.693 1.838.148.885.971 1.232 1.751 1.232l.743-.013.644-.025 1.863-.532c.217-.037.452-.272.433-.452z" fill="#FAA284"/><path d="M210.901 104.457l-.012.013a.735.735 0 0 1-.26.148c-.062.025-.124.043-.18.062h-.012l-.031.006-.025.006c-1.071.242-2.179-1.213-3.732-3.46-.18-.253-.347-.501-.508-.724l-.074-.105-.012-.124a1.425 1.425 0 0 1 .39-1.516l.006-.007.018-.012a1.414 1.414 0 0 1 1.783-.056c.018.013.037.025.049.037.007.007.013.013.025.02h-.006c.47.401 1.226 1.503 2.321 3.143l.025.031.105.161c.266.396.433.694.526.935.056.13.087.266.093.402a.987.987 0 0 1-.043.378 1.443 1.443 0 0 1-.155.328l-.006.006-.013.019-.012.018-.019.025c-.012.019-.03.043-.049.068l-.019.019-.024.031a1.018 1.018 0 0 1-.13.136l-.019.012z" fill="#F7A184"/><path d="M208.308 98.756c-.006-.006-.018-.013-.025-.019-.018-.012-.03-.024-.049-.037a1.414 1.414 0 0 0-1.783.056l-.018.012-.006.006a1.41 1.41 0 0 0-.39 1.517l.012.124.074.105c.161.223.328.47.508.724.582.836 1.095 1.56 1.566 2.129l2.172-1.838c-.953-1.442-1.628-2.408-2.061-2.78z" fill="#FAE69E"/><path d="M210.462 109.903l.359-.055c.025-.006.081-.006.143-.019.278-.031.55-.062.736-.111l.303-.087.05-.309c.111-.681-.142-4.488-.65-5.881a1.273 1.273 0 0 0-.105-.247l-.013-.031-.024-.05-.044-.055a.177.177 0 0 0-.037-.044 1.204 1.204 0 0 0-.631-.408 1.005 1.005 0 0 0-.409-.031.88.88 0 0 0-.247.049.85.85 0 0 0-.167.069l-.037.018-.05.025c.006-.006.012-.013.025-.019a.851.851 0 0 0-.112.075c-.291.204-.476.52-.513.872-.031.205-.031.421.006.656l.136.861c.26 1.782.842 3.862 1.108 4.401l.173.321z" fill="#F7A184"/><path d="M209.187 125.248l-.687-6.691v-.025l-.019-.179a1.455 1.455 0 0 0-1.634-1.164l-.025.006-.024.007a1.434 1.434 0 0 0-.929.6 1.434 1.434 0 0 0-.229 1.083s-.328 1.127.489 3.491l.799 2.823.117.452 2.16-.322a.577.577 0 0 1-.018-.081z" fill="#FAA284"/><path d="M207.268 120.048h.037l.025-.006a1.454 1.454 0 0 0 1.158-1.665v-.025l-.669-5.775-.006-.024-.006-.031a1.617 1.617 0 0 0-1.826-1.288l-.031.006-.044.007a1.59 1.59 0 0 0-1.027.681 1.598 1.598 0 0 0-.248 1.213c.007.018.007.037.013.049l.006.019v.018l.984 5.528v.024c.006.031.006.062.013.093a1.43 1.43 0 0 0 1.621 1.176z" fill="#FAA284"/><path d="M207.807 112.577l-.006-.024-.006-.031a1.617 1.617 0 0 0-1.826-1.288l-.031.006-.044.007c-.421.08-.786.322-1.027.681a1.593 1.593 0 0 0-.248 1.213c.006.018.006.037.013.049l.006.019v.018l.798 4.5 2.928-.439-.557-4.711z" fill="#EE8C72"/><path d="M208.667 116.304l-.433-3.602c0-.025-.006-.05-.006-.081a2.053 2.053 0 0 0-2.26-1.826l-.049.006a2.045 2.045 0 0 0-1.777 2.241v.043l.007.044.724 3.936a32.369 32.369 0 0 0 3.794-.761z" fill="#2E3E49"/><path d="M201.122 125.18l.377-2.909c.459-2.457-.03-3.528-.03-3.528a1.449 1.449 0 0 0-1.399-1.498h-.05a1.46 1.46 0 0 0-1.448 1.393c0 .055 0 .117.006.179v.025l.309 6.722c0 .025 0 .049.007.074h2.185c.031-.093.043-.204.043-.309v-.149z" fill="#FAA284"/><path d="M200.02 120.141h-.062a1.443 1.443 0 0 1-1.386-1.473v-.025l-.192-5.806.006-.024v-.031a1.62 1.62 0 0 1 1.616-1.548h.074a1.621 1.621 0 0 1 1.547 1.684c0 .019 0 .037-.006.049v.038l-.155 5.614V118.736a1.456 1.456 0 0 1-1.442 1.405z" fill="#FAA284"/><path d="M201.623 112.993v-.019c0-.018 0-.031.007-.049a1.617 1.617 0 0 0-.427-1.164 1.571 1.571 0 0 0-1.121-.52h-.074c-.867 0-1.578.681-1.616 1.548v.031l-.006.024.155 4.742h2.959l.123-4.568v-.025z" fill="#EE8C72"/><path d="M202.118 112.943a2.018 2.018 0 0 0-.538-1.473 2.06 2.06 0 0 0-1.424-.662h-.049a2.036 2.036 0 0 0-2.086 1.956l-.006.043v.043l.123 3.714c.892.093 2.278.211 3.875.26l.105-3.794c-.006-.037 0-.062 0-.087z" fill="#2E3E49"/><path d="M198.163 113.791c.601.854 2.16 1.349 4.116 1.201h1.511c1.757 0 3.28.192 3.874-.551 1.096-2.16.44-3.101.458-4.97l-10.12.018c.013 1.189-.204 2.34.161 4.302zM198.69 124.63s-.855.872-2.328 1.423c0 0-2.649-.959-1.949 1.405h7.161s.229-1.683-.223-2.81c0 0-.167-.087-.415.173-.247.26-1.324.415-1.733.267-.012-.007-.241-.545-.513-.458z" fill="#2E3E49"/><path d="M196.362 126.053s-2.649-.96-1.949 1.405h7.161s.037-.279.049-.625h-4.809c-.155-.415-.452-.78-.452-.78zM198.776 125.737a.156.156 0 0 1-.136-.087c-.216-.445-.526-.619-.526-.625-.074-.043-.105-.148-.068-.235.037-.087.13-.124.204-.08.019.006.396.222.663.767.043.087.012.192-.062.235a.119.119 0 0 1-.075.025zM198.157 126.084c-.055 0-.105-.031-.136-.093-.217-.445-.526-.619-.526-.625-.074-.043-.105-.149-.068-.235.037-.087.13-.124.204-.081.019.007.396.223.662.768.044.087.013.192-.061.235a.099.099 0 0 1-.075.031z" fill="#E9E6ED"/><path d="M197.538 126.43a.155.155 0 0 1-.136-.086c-.217-.446-.526-.619-.526-.625-.074-.044-.105-.149-.068-.236.037-.086.13-.123.204-.08.019.006.396.223.662.767.044.087.013.192-.062.236a.119.119 0 0 1-.074.024z" fill="#E9E6ED"/><path d="M206.68 127.458s.087-1.374.266-2.042c0 0 .749.037.916-.192.168-.229 1.139-1.232 1.591-.007l.353.688s1.479-.496 1.009 1.553h-4.135z" fill="#2E3E49"/><path d="M209.775 125.91c-1.133.31-1.374.916-1.374.916h-1.665c-.037.347-.049.626-.049.626h4.134c.477-2.08-1.046-1.542-1.046-1.542zM208.611 125.434a.147.147 0 0 1-.13-.081.19.19 0 0 1 .043-.241c.013-.013.372-.266.929-.248.087.006.155.081.148.18 0 .093-.074.173-.16.167-.459-.019-.743.192-.749.192a.136.136 0 0 1-.081.031zM208.859 125.917a.147.147 0 0 1-.13-.08.19.19 0 0 1 .043-.242c.012-.012.371-.266.928-.247.087.006.155.08.149.179 0 .093-.074.173-.161.167-.458-.018-.743.192-.749.192a.101.101 0 0 1-.08.031z" fill="#E9E6ED"/><path d="M201.159 97.469s1.461-.378 3.367 0v1.077h-3.46l.093-1.077z" fill="#EAEAEA"/><path d="M195.589 108.332h-.366c-.024 0-.08 0-.142.006-.285.012-.551.024-.749 0l-.316-.044-.099-.303c-.21-.656-.526-4.463-.229-5.911a1.04 1.04 0 0 1 .068-.26l.007-.031.018-.056.037-.062c.006-.012.019-.03.031-.049.087-.142.198-.266.341-.365a1.086 1.086 0 0 1 .625-.223c.136-.006.223.006.254.006.068.013.13.025.173.043l.037.013.05.018c-.007 0-.013-.006-.025-.012.025.012.068.025.124.056.321.161.55.445.637.786.062.192.093.415.093.65-.006.229-.006.507-.006.866.006 1.801-.26 3.949-.446 4.519l-.117.353z" fill="#F7A184"/><path d="M194.01 102.693l-.012-.019a.774.774 0 0 1-.112-.278c-.018-.069-.024-.124-.031-.186v-.068c-.092-1.096 1.498-1.993 3.937-3.225l.786-.402.112-.056h.123a1.42 1.42 0 0 1 1.449.594v.006l.012.019c.124.192.204.415.223.65a1.402 1.402 0 0 1-.464 1.17l-.025.024c-.458.415-1.659 1.009-3.429 1.87l-.037.018-.174.087c-.427.21-.742.334-.996.39a1.159 1.159 0 0 1-.409.037.904.904 0 0 1-.365-.093 1.25 1.25 0 0 1-.303-.198l-.006-.006-.013-.012-.012-.013-.025-.018a1.469 1.469 0 0 0-.056-.056l-.018-.019-.025-.031a.968.968 0 0 1-.117-.148l-.013-.037z" fill="#F7A184"/><path d="M200.268 99.06l-.013-.02v-.005a1.418 1.418 0 0 0-1.448-.595h-.124l-.111.056c-.242.13-.508.26-.786.403-.768.39-1.449.742-2.024 1.083l1.213 2.587c1.56-.761 2.612-1.3 3.039-1.684.012-.006.019-.018.025-.024.018-.013.031-.031.049-.044.297-.297.452-.705.415-1.126a1.67 1.67 0 0 0-.235-.632z" fill="#FAE69E"/><path opacity=".15" d="M208.135 110.065a6.026 6.026 0 0 1-.013-.594l-10.12.018c.006.217 0 .427-.006.644 1.182.371 5.565 1.516 10.139-.068z" fill="#000"/><path d="M207.658 98.422c-1.615-.303-3.577-.353-3.577-.353l-2.767-.037s-.644.093-2.556.49c0 0-.811 10.812-.811 11.178 2.68.823 6.357 1.021 10.262 0 .006-.062-.551-11.278-.551-11.278z" fill="#FAE69E"/><path d="M202.534 99.53c.043 0 .55-.019.581-.025.935-.161 1.585-.73 1.628-1.393-.941-.093-1.764-.006-1.764-.006l-.216.006s-.842-.05-1.901.124c.106.687.663 1.312 1.672 1.294z" fill="#EE8C72"/><path d="M204.087 95.847h-2.792V98.7h2.792v-2.853z" fill="#EE8C72"/><path d="M204.087 97.803v-1.956h-2.792v1.54c.588.18 1.721.465 2.792.416z" fill="#DD725E"/><path d="M198.968 92.109s-1.399-.49-1.399.903c0 1.4 1.399.984 1.399.984V92.11z" fill="#EE8C72"/><path d="M206.291 92.109s1.398-.49 1.398.903c0 1.4-1.398.984-1.398.984V92.11z" fill="#F7A184"/><path d="M206.421 93.65c0 2.024-1.771 3.67-3.956 3.67s-3.955-1.64-3.955-3.67v-3.256c0-2.024 1.77-3.67 3.955-3.67s3.956 1.64 3.956 3.67v3.256z" fill="#F7A184"/><path d="M202.465 97.079c-2.185 0-3.955-1.64-3.955-3.67v.234c0 2.024 1.77 3.67 3.955 3.67s3.956-1.64 3.956-3.67v-.235c0 2.03-1.771 3.67-3.956 3.67zM202.465 86.724c-2.018 0-3.683 1.398-3.924 3.212.34-.254.873-.613 1.207-.687.52-.105 4.512-.29 4.976.173.322.322.947 1.64 1.703 2.173v-1.2c-.007-2.025-1.777-3.671-3.962-3.671z" fill="#EE8C72"/><path d="M201.103 95.142h2.191s.217-.007.062.328c-.099.21-.365 1.064-1.12 1.083-.898.025-1.207-1.102-1.207-1.102s-.149-.31.074-.31z" fill="#D24646"/><path d="M203.388 95.377c.074-.242-.099-.235-.099-.235h-2.191c-.168 0-.124.173-.093.26.427.111 1.287.247 2.383-.025z" fill="#fff"/><path d="M201.809 93.767s-.601-.024-.601.496c0 .513.935.383.966 0 .025-.384.081-3.207-.365-.496z" fill="#EE8C72"/><path d="M204.477 92.239a1.473 1.473 0 0 0-.471-.068c-.161 0-.309.018-.421.037l-.173.03a.16.16 0 0 1-.198-.117.16.16 0 0 1 .118-.198c.006 0 .309-.08.674-.08.186 0 .384.018.576.08a.167.167 0 0 1 .105.21.166.166 0 0 1-.155.112c-.024 0-.043 0-.055-.006zM199.302 92.121a.16.16 0 0 1 .118-.198c.006 0 .309-.08.675-.08.185 0 .383.018.575.08a.166.166 0 0 1 .105.21.166.166 0 0 1-.21.106 1.467 1.467 0 0 0-.47-.068c-.161 0-.31.018-.421.037l-.174.03c-.012.007-.024.007-.037.007a.166.166 0 0 1-.161-.124z" fill="#752B14"/><path d="M199.556 88.834s-.675.526-.823 1.35c-.136.78-.223.767-.211 2.816l-.037-.978s-.217-1.801.006-2.835c.006.006.737-.755 1.065-.353z" fill="#903D1F"/><path d="M205.962 93.173s-.043-2.829-.297-3.324c-.217-.42-.52-.749-.897-.823-.372-.074-3.764-.371-4.624-.26 0 0-1.232 0-1.492.631l-.111.421s-.477-3.107 2.042-3.973c1.17-.403 2.408-.725 4.785.16l-.613.236s.105.03.613.29c.588.298 3.349 1.752.823 5.831l-.229.811z" fill="#903D1F"/><path d="M199.123 87.925s.402-2.662 5.137-1.956c0 0-2.259.006-3.609 2.16 0 0-1.708.514-1.528-.204z" fill="#752B14"/><path d="M210.704 112.664a.467.467 0 0 1-.328-.148.808.808 0 0 1-.205.031.32.32 0 0 1-.13-.019c-.222-.062-.278-.458-.284-.78-.155.186-.316.235-.44.229a.527.527 0 0 1-.328-.124l-.062-.049.044-.068c.006-.006.396-.613.464-1.065.055-.371.712-1.021.835-1.139.05-.099.298-.557.842-.55.044 0 .093.006.143.012.612.099.798.507.835.606.44.558.291 1.802.285 1.851V111.464c-.198.606-.223.643-.433.934-.112.155-.229.186-.31.186a.326.326 0 0 1-.142-.037.395.395 0 0 1-.26.093.542.542 0 0 1-.254-.069.446.446 0 0 1-.272.093z" fill="#F7A184"/><path d="M194.672 102.067l.056 6.5 9.303-.143-.056-6.505-9.303.148z" fill="#DD8346"/><path d="M194.672 102.067l1.337 2.507 9.359-.334-1.393-2.321-9.303.148z" fill="#F5A86C"/><path d="M197.668 107.694a.479.479 0 0 0-.117-.341.737.737 0 0 0 .049-.198c.006-.074 0-.13-.006-.13-.043-.229-.433-.322-.755-.352.204-.137.26-.291.272-.415a.523.523 0 0 0-.093-.341l-.043-.062-.068.038c-.006.006-.65.334-1.102.359-.377.024-1.083.612-1.213.724-.105.037-.582.247-.631.786a.562.562 0 0 0 0 .142c.037.619.433.842.526.892.514.489 1.764.458 1.82.458h.012c.625-.143.662-.161.972-.347.167-.099.21-.21.216-.291a.28.28 0 0 0-.024-.149.378.378 0 0 0 .111-.247.614.614 0 0 0-.043-.26.529.529 0 0 0 .117-.266z" fill="#F7A184"/><path d="M199.327 92.975a.964.964 0 0 1 .706-.173c.253.043.495.148.662.489 0 0 .049.117-.006.167-.075.062-.155 0-.186-.043-.186-.23-.359-.267-.551-.298a.839.839 0 0 0-.483.044c-.111.037-.179-.025-.185-.075 0-.068.043-.111.043-.111zM204.675 92.932a.976.976 0 0 0-.706-.167c-.253.05-.489.155-.656.489 0 0-.049.117.013.167.074.062.154 0 .185-.043.186-.236.359-.266.545-.304.278-.05.477.038.483.038.111.037.179-.025.185-.075-.006-.062-.049-.105-.049-.105z" fill="#7C3E06"/><path d="M200.899 88.228s.731-1.436 2.402-1.74c0 0-1.411.978-1.783 1.709 0 0-.402.03-.619.03z" fill="#752B14"/><path d="M113.662 125.384l.935-7.657v-.025l.019-.154a1.29 1.29 0 0 1 1.467-1.022l.024.007.025.006c.334.068.631.26.823.545.192.284.26.631.198.965 0 0 .013 2.711-.73 4.809l-.737 2.507-.105.403-1.919-.304c-.006-.043 0-.068 0-.08z" fill="#FAA284"/><path d="M114.003 122.63l2.371.377-.687 2.353-.106.402-1.918-.303c.006-.038.006-.062.012-.069l.328-2.76z" fill="#E5E5E5"/><path d="M115.681 119.07h-.031l-.019-.006a1.291 1.291 0 0 1-1.015-1.491v-.025l.792-6.103.006-.019.007-.025a1.439 1.439 0 0 1 1.64-1.132l.025.006.037.006a1.438 1.438 0 0 1 1.12 1.696c0 .019-.006.031-.012.043l-.007.013v.012l-1.07 5.887v.024c-.007.025-.007.056-.013.081a1.287 1.287 0 0 1-1.46 1.033z" fill="#FAA284"/><path d="M115.414 111.445l.006-.019.006-.025a1.44 1.44 0 0 1 1.641-1.132l.024.006.038.006c.371.074.699.297.909.613.211.322.291.706.211 1.083 0 .019-.006.031-.012.043l-.007.013v.012l-.891 4.902c-.916-.154-1.807-.334-2.575-.551l.65-4.951z" fill="#EE8C72"/><path d="M120.805 125.347l-.334-2.594c-.408-2.191.031-4.865.031-4.865a1.267 1.267 0 0 1 .347-.922c.235-.254.551-.396.897-.408h.05c.687 0 1.263.557 1.287 1.238 0 .049 0 .105-.006.16v.025l-.278 7.706c0 .025 0 .044-.007.068h-1.943a.814.814 0 0 1-.037-.278l-.007-.13z" fill="#FAA284"/><path d="M122.792 125.687v.068h-1.943a.814.814 0 0 1-.037-.278v-.136l-.316-2.433h2.402l-.106 2.779z" fill="#E5E5E5"/><path d="M121.784 119.132h.049a1.294 1.294 0 0 0 1.238-1.312v-.024l.173-6.153-.006-.019v-.024a1.438 1.438 0 0 0-1.442-1.374h-.068a1.436 1.436 0 0 0-1.368 1.547v.025l.136 5.979V117.888c.025.687.6 1.244 1.288 1.244z" fill="#FAA284"/><path d="M120.36 111.791v-.012c0-.013 0-.031-.006-.043a1.432 1.432 0 0 1 .377-1.04c.26-.285.619-.452.997-.465h.068c.774 0 1.405.607 1.442 1.375v.024l.006.019-.136 4.964c-.637.043-1.578.105-2.63.142l-.112-4.951-.006-.013z" fill="#EE8C72"/><path d="M122.959 124.778s.762.773 2.074 1.268c0 0 2.358-.854 1.733 1.251h-6.375s-.205-1.498.198-2.501c0 0 .148-.08.371.155.223.229 1.182.365 1.548.235.006-.006.21-.489.451-.408z" fill="#F45B79"/><path d="M125.033 126.046s2.358-.854 1.733 1.251h-6.375s-.031-.248-.043-.557h4.277c.142-.372.408-.694.408-.694zM115.965 127.297s-.075-1.22-.242-1.82c0 0-.668.031-.811-.173-.148-.205-1.015-1.096-1.411-.006l-.316.612s-1.318-.445-.897 1.381h3.677v.006z" fill="#F45B79"/><path d="M113.211 125.923c1.009.272 1.225.817 1.225.817h1.486c.031.309.043.557.043.557h-3.676c-.44-1.857.922-1.374.922-1.374z" fill="#F45B79"/><path d="M115.012 107.688c.303-2.395 1.046-8.207 1.046-8.207.458-.087.514-.137.805-.167l.105 2.865h5.348l-.266-2.773c.241.025.482.062.724.1 0 0 1.077 6.195 1.423 8.374l1.511 7.749s-6.029 1.356-11.872-.154l1.176-7.787z" fill="#FC597F"/><path d="M117.11 86.086s-3.942 1.393-4.06 6.202c-.118 4.816 3.076 5.453 1.219 7.886 0 0 .756.29 1.449-.291 0 0 2.705 3.85 7.749.309 0 0 .947-.947.718-2.63 0 0 .582.872.291 1.856 0 0 1.931-5.607-.39-8.04l-6.976-5.292z" fill="#903D1F"/><path d="M114.022 104.816l-.019-.006c-.111-.037-.185-.093-.235-.13-.049-.037-.087-.074-.13-.111l-.006-.007-.006-.006-.019-.018-.018-.019c-.675-.706-.069-2.203.934-4.407.112-.248.223-.489.322-.712l.043-.105.087-.068a1.257 1.257 0 0 1 1.331-.39h.006l.019.006c.191.062.371.173.513.322.254.266.378.637.335 1.009 0 .018-.007.037-.007.056 0 .006 0 .018-.006.031v-.007c-.087.539-.588 1.616-1.331 3.194l-.012.031-.074.155c-.18.377-.328.644-.471.823a1.118 1.118 0 0 1-.26.254.915.915 0 0 1-.303.142 1.26 1.26 0 0 1-.316.031h-.068c-.018 0-.043-.006-.074-.006h-.025l-.037-.006c-.062-.013-.124-.025-.167-.037l-.006-.019z" fill="#E5E5E5"/><path d="M112.536 109.112l-.291-.136c-.018-.012-.062-.025-.117-.049a4.322 4.322 0 0 1-.601-.279l-.235-.149.037-.278c.074-.607 1.226-3.782 1.999-4.84.044-.068.093-.13.149-.186l.018-.025.038-.037.049-.037c.013-.006.025-.019.043-.025a.986.986 0 0 1 .409-.167.932.932 0 0 1 .229-.019c.124 0 .241.025.353.075.111.043.179.086.198.099a.746.746 0 0 1 .124.099l.024.025.038.03c-.007-.006-.007-.012-.019-.018a.547.547 0 0 1 .074.087c.198.247.279.563.223.866-.018.18-.08.365-.167.557-.087.186-.192.403-.328.7-.656 1.448-1.671 3.076-2.03 3.466l-.217.241z" fill="#F7A184"/><path d="M115.055 103.282c-.031-.043-.062-.074-.074-.087l.019.019-.038-.031-.024-.025c-.031-.031-.075-.062-.124-.099-.019-.012-.087-.056-.198-.099a.987.987 0 0 0-.353-.074c-.08 0-.161.006-.229.018a1.184 1.184 0 0 0-.408.167.27.27 0 0 1-.044.025l-.049.037-.037.037-.019.025a1.126 1.126 0 0 0-.149.186c-.538.73-1.256 2.482-1.671 3.689.427.161 1.127.433 1.845.724.421-.681.91-1.56 1.281-2.389.13-.291.235-.514.328-.7.093-.191.149-.377.167-.557a1.074 1.074 0 0 0-.223-.866z" fill="#E5E5E5"/><path d="M125.361 104.704l-.013.012c-.099.075-.198.099-.253.118a.92.92 0 0 1-.174.037H124.859c-1.015.13-1.906-1.324-3.144-3.553l-.402-.718-.056-.099v-.117a1.318 1.318 0 0 1 .501-1.368h.007l.018-.013c.174-.123.384-.204.594-.229.39-.05.774.075 1.065.347.019.012.031.03.043.043.007.007.013.013.025.019.402.415.997 1.504 1.863 3.126l.019.031.086.161c.211.389.335.68.403.916a.998.998 0 0 1 .049.377.826.826 0 0 1-.074.347 1.229 1.229 0 0 1-.173.284l-.007.007-.012.012-.012.012-.019.025c-.012.013-.031.037-.049.056l-.019.018-.025.025a5.499 5.499 0 0 1-.136.118l-.043.006z" fill="#CCC"/><path d="M127.936 107.849l.155-.297c.012-.025.037-.062.068-.118.136-.229.26-.446.328-.613l.105-.278-.204-.211c-.446-.464-3.435-2.389-4.76-2.779a1.094 1.094 0 0 0-.241-.062l-.031-.006-.056-.012-.062.006c-.012 0-.031 0-.049.006a1.229 1.229 0 0 0-.656.241c-.1.081-.186.18-.254.291-.068.112-.093.186-.105.211-.019.062-.038.117-.044.161l-.006.037-.006.049v-.024c0 .024-.006.068-.006.123-.013.335.123.65.365.873.13.136.297.26.495.359.192.099.421.217.718.378 1.473.798 3.361 1.516 3.912 1.615l.334.05z" fill="#F7A184"/><path d="M123.69 106.178c-.297-.161-.526-.279-.718-.378a1.889 1.889 0 0 1-.495-.359 1.123 1.123 0 0 1-.365-.872c0-.056.006-.099.006-.124v.025l.006-.05.006-.037a.692.692 0 0 1 .044-.161.861.861 0 0 1 .105-.211 1.02 1.02 0 0 1 .458-.414c.142-.068.291-.112.452-.118.018 0 .037 0 .049-.006l.062-.006.056.012.031.006c.08.013.167.031.241.062.904.266 2.587 1.257 3.708 2a46.425 46.425 0 0 1-1.053 1.807 22.895 22.895 0 0 1-2.593-1.176z" fill="#CCC"/><path d="M116.033 98.793c1.436-.266 1.969-.192 1.969-.192s2.469-.136 4.71.217c0 0 1.523 8.752 1.517 9.074-2.773.947-6.252.978-9.372.093 0-.056 1.176-9.192 1.176-9.192z" fill="#E5E5E5"/><path d="M114.987 106.975c.303-2.389 1.046-8.176 1.046-8.176.458-.087.514-.136.799-.167l.105 2.853h5.323l-.266-2.76c.241.024.483.062.724.099 0 0 1.071 6.171 1.417 8.337l.39 1.987s-4.122 1.696-9.946.198l.408-2.371z" fill="#FC597F"/><path d="M119.865 99.982c-1.003-.018-1.888-.687-1.931-1.386.916-.093 1.72-.007 1.72-.007l.211.007s.823-.05 1.857.117c-.099.681-.867 1.288-1.857 1.27z" fill="#EE8C72"/><path d="M121.164 96.59h-2.469v2.531h2.469V96.59z" fill="#EE8C72"/><path d="M118.695 98.261V96.59h2.469v1.35c-.519.16-1.479.39-2.469.321z" fill="#DD725E"/><path d="M123.597 92.35s1.473-.52 1.473.953c0 1.473-1.473 1.034-1.473 1.034V92.35z" fill="#EE8C72"/><path d="M115.897 92.35s-1.473-.52-1.473.953c0 1.473 1.473 1.034 1.473 1.034V92.35z" fill="#F7A184"/><path d="M115.754 93.971c0 2.135 1.863 3.862 4.166 3.862 2.303 0 4.166-1.727 4.166-3.862v-3.429c0-2.135-1.863-3.862-4.166-3.862-2.303 0-4.166 1.727-4.166 3.862v3.43z" fill="#F7A184"/><path d="M119.92 97.499c2.303 0 4.166-1.727 4.166-3.862v.334c0 2.135-1.863 3.862-4.166 3.862-2.303 0-4.166-1.727-4.166-3.862v-.334c0 2.135 1.863 3.862 4.166 3.862zM121.436 91.316s-1.838-.947-1.9-2.117c0 0-1.318 1.745-1.38 2.637 0 0-.922-.644-1.071-1.442 0 0-.644.575-1.331 1.361v-1.213c0-2.135 1.863-3.862 4.166-3.862 2.303 0 4.166 1.727 4.166 3.862v2.414c-.434-.44-1.393-1.288-2.65-1.64z" fill="#EE8C72"/><path d="M121.356 95.549h-2.309s-.229-.006-.062.346c.106.223.384.688 1.176.706.947.025 1.269-.724 1.269-.724s.155-.328-.074-.328z" fill="#D24646"/><path d="M118.947 95.79c-.08-.253.106-.247.106-.247h2.308c.174 0 .13.18.099.272-.451.118-1.355.26-2.513-.024z" fill="#fff"/><path d="M120.607 94.101s.632-.025.632.52-.985.402-1.015 0c-.025-.408-.081-3.38.383-.52z" fill="#EE8C72"/><path d="M119.134 92.362a.172.172 0 0 0-.124-.21c-.006 0-.328-.08-.712-.08-.191 0-.402.018-.606.086a.176.176 0 1 0 .111.334c.149-.05.328-.068.495-.068a2.917 2.917 0 0 1 .632.074c.012.007.031.006.043.006a.183.183 0 0 0 .161-.142zM123.25 92.362a.172.172 0 0 0-.123-.21c-.007 0-.329-.08-.712-.08a1.92 1.92 0 0 0-.607.086.175.175 0 0 0-.111.223c.031.093.13.142.223.111.148-.05.328-.068.495-.068a2.914 2.914 0 0 1 .631.074c.012.007.031.006.043.006a.197.197 0 0 0 .161-.142z" fill="#903D1F"/><path d="M115.618 92.858s.075.117.533 1.002c0 0-.335-2.358 1.139-4.37 0 0-.273.465.773 2.012.347-1.009.768-2.569 1.715-3.175-.167.55.445 1.287.73 1.72.854 1.313 2.742 1.3 3.503 2.711 0 0 1.084-.637.737-3.187-.347-2.55-2.822-4.698-5.49-3.887-.006 0-6.834-.248-3.64 7.174z" fill="#903D1F"/><path d="M117.389 88.803c0 .613.52 1.684.52 1.684.031-1.226 2.148-3.25 2.148-3.25 0 .799 1.009 2.235 1.009 2.235.674 1.287 2.203 1.225 2.76 2.086.303.47.347.841.322 1.077-.087.08-.142.117-.142.117-.762-1.411-2.65-1.399-3.504-2.71-.284-.434-.903-1.17-.73-1.722-.953.607-1.374 2.16-1.715 3.176-1.046-1.548-.773-2.012-.773-2.012a6.002 6.002 0 0 0-.978 2.148c-.075-1.832 1.083-2.829 1.083-2.829z" fill="#752B14"/><path d="M115.761 86.996s-3.522-.328-3.082.835c.439 1.158 1.59 2.625 2.141 2.105.551-.52 1.176-2.464 1.176-2.464l-.235-.476zM116.145 86.73s.928-3.41 1.863-2.594c.934.817 1.9 2.408 1.219 2.748-.681.335-2.717.236-2.717.236l-.365-.39z" fill="#FCD772"/><path d="M115.804 87.732a.3.3 0 0 0 .421.075l.557-.384a.299.299 0 0 0 .075-.421l-.44-.631a.3.3 0 0 0-.421-.075l-.557.384a.3.3 0 0 0-.074.42l.439.632z" fill="#FFC127"/><path d="M115.513 87.058s-2.228.235-2.061.588c.174.353 2.061-.588 2.061-.588zM115.643 87.237c-.043.031-2.11 1.065-1.906 1.368.21.297 1.906-1.368 1.906-1.368zM115.743 87.38s-1.585 1.61-1.381 1.77c.205.167 1.381-1.77 1.381-1.77zM116.318 86.47s.736-1.677.935-1.64c.198.037-.143.891-.935 1.64zM116.46 86.63s1.319-1.51 1.573-1.139c.253.372-1.573 1.14-1.573 1.14zM116.683 86.958s1.399-.972 1.517-.606c.117.365-1.517.606-1.517.606z" fill="#FFC127"/><path d="M123.09 92.839c-.031.111-.18.148-.26.155a.412.412 0 0 0-.223-.069c-.248 0-.446.23-.446.508 0 .279.198.508.446.508.247 0 .445-.23.445-.508a.531.531 0 0 0-.037-.198c.112-.148.075-.396.075-.396zM118.521 92.92a.422.422 0 0 0-.229.074c-.068-.006-.253-.031-.291-.161 0 0-.043.285.106.42a.486.486 0 0 0-.025.168c0 .279.198.508.446.508.247 0 .445-.23.445-.508-.012-.272-.21-.501-.452-.501z" fill="#602C05"/><path d="M123.226 103.002c-.272-.445-1.176-1.597-2.055-1.535-.904.062-1.746 1.127-1.993 1.535l-.57-.346c.044-.074 1.09-1.758 2.52-1.851 1.467-.093 2.618 1.777 2.667 1.851l-.569.346z" fill="#FFE3D4"/><path d="M112.908 102.631c2.575-.099 13.382.062 14.31.05.582-.007 1.405 2.085 1.473 4.629.05 2.043-.971 4.036-1.405 4.098-3.379.501-11.104.26-14.075.34-.928.025-1.244-2.773-1.3-4.11-.062-1.33.174-4.976.997-5.007z" fill="#FFE3D4"/><path d="M119.326 107.156c0 .155-.006.303-.012.452a7.973 7.973 0 0 1-.025.408c-.093 1.22-.353 2.303-.575 2.773l-.05.099c-.05.087-.093.143-.136.149a2.527 2.527 0 0 1-.402.031h-.007c-.575.018-1.64.018-2.636 0-.062 0-.124-.006-.18-.006-1.071-.025-2.012-.081-2.086-.161-.179-.192-.724-2.749-.656-3.887.08-1.356.458-3.337.681-3.671.186-.278 5.502-.117 5.694-.006.192.118.39 2.556.39 3.819z" fill="#CC8869"/><path d="M115.359 106.475s.316-.025.805-.037c.489-.013.699.13.829.08.13-.049.607-.625.885-.563.279.062.248.848.279.997.031.148.13.835 0 1.355-.149.582-.861 1.021-1.869 1.034-1.238.012-1.505-.211-1.746-.464-.458-.477-.272-1.554-.297-1.994-.025-.439.118-.934.278-.977.155-.044.836.569.836.569z" fill="#fff"/><path d="M119.314 107.607a7.942 7.942 0 0 1-.025.409c-.093 1.219-.353 2.302-.575 2.773a4.847 4.847 0 0 0-.05.099c-.05.087-.093.142-.136.148a2.42 2.42 0 0 1-.403.031h-.006c-.575.019-1.64.019-2.636 0-.062 0-.124-.006-.18-.006-.285-.167-.619-.452-.594-.842.043-.668.557-1.429.557-1.429l2.624-1.084c.044.069.31.217.873.087.192-.037.39-.136.551-.186z" fill="#fff"/><path d="M114.808 110.133s-.421.186-.761.445c-.229.174-.675.762-.334 1.022.34.26.73-.093.99-.273.26-.179 1.318-.507 1.318-.507l-1.213-.687z" fill="#fff"/><path d="M116.671 110.133s-.421.186-.761.445c-.229.174-.675.762-.335 1.022.341.26.731-.093.991-.273.26-.179 1.318-.507 1.318-.507l-1.213-.687z" fill="#fff"/><path d="M115.352 107.391c-.123-.167-.222.13-.117.241.13.136.179-.148.124-.235-.007 0-.007 0-.007-.006zM117.123 107.434c-.124-.167-.223.13-.118.241.124.13.18-.148.124-.229l-.006-.012zM116.634 108.22c-.074.038-.142.075-.223.025a.183.183 0 0 1-.086-.155c.012-.012.03-.018.043-.031.025-.024.037-.049.056-.08.006-.019.006-.037.006-.062a.076.076 0 0 0-.056-.087c-.08-.018-.155-.024-.235-.018-.037 0-.074.025-.081.062-.018.086.031.142.087.192-.025.08-.037.136-.118.161-.068.018-.136.031-.185-.031-.068-.081-.186.037-.118.117.087.105.229.112.347.068.049-.018.105-.037.142-.08.006-.006.012-.019.019-.025.018.031.049.056.08.081.136.092.279.061.415-.013.08-.031 0-.173-.093-.124z" fill="#5F3A2B"/><path d="M126.921 110.764a63.066 63.066 0 0 1-7.886.086c-.105-.006-.105.161 0 .168 2.631.136 5.262.105 7.886-.087.111-.006.111-.173 0-.167zM120.923 104.055a.262.262 0 0 0-.222-.211c-.106-.012-.186.062-.217.155a.17.17 0 0 0 0 .155c.018.068.049.13.087.179a.19.19 0 0 0 .061.062c.007.012.013.025.025.031.074.068.192.037.242-.043.062-.081.049-.236.024-.328zM122.991 103.77c-.099-.062-.242-.043-.291.074-.05.118-.05.31.012.415a.172.172 0 0 0 .242.062c.086-.012.142-.087.148-.18.019-.13.012-.29-.111-.371zM125.175 103.739c-.024-.031-.074-.05-.111-.031a.155.155 0 0 0-.155.061.472.472 0 0 0-.055.279c.006.062.03.111.074.155 0 0 0 .006.006.006a.068.068 0 0 0 .05.056.176.176 0 0 0 .21.049c.093-.037.124-.148.118-.247 0-.118-.069-.236-.137-.328zM127.429 104.017a.32.32 0 0 0-.081-.192c-.037-.056-.087-.099-.155-.099-.167-.012-.192.173-.185.303.006.137.093.273.247.267.136-.013.186-.161.174-.279z" fill="#F0B695"/><path d="M111.645 110.244a.958.958 0 0 1-.291.068c-.235.019-.699-.068-.774-.526-.241-1.448-.167-1.715-.099-1.783 0-.185.112-.365.273-.433l1.522-.538.019-.007.018.007c.062.018.18.099.155.253-.031.236-.179.335-.34.403l-.743.291a84.114 84.114 0 0 0 1.349-.093h.037l.019.025c.006.006.099.142.05.272-.056.155-.168.223-.31.285l-.037.018h-.012l-.39.074.903.007h.013l.012.006c.025.012.05.037.056.068.018.062-.006.136-.068.235a.442.442 0 0 1-.217.173.523.523 0 0 1-.272.044l-.669.074c.316.043.755.099 1.071.142l.031.007.019.024c.012.019.055.112-.081.273a.325.325 0 0 1-.124.086.911.911 0 0 1-.315.068h-.496a.47.47 0 0 1-.309.477zM128.221 110.244c.08.037.179.056.291.068.235.019.699-.068.774-.526.241-1.448.167-1.715.099-1.783a.477.477 0 0 0-.273-.433l-1.522-.538-.019-.007-.018.007a.224.224 0 0 0-.155.253c.031.236.179.335.34.403l.743.291a83.315 83.315 0 0 1-1.349-.093h-.038l-.018.025c-.006.006-.099.142-.05.272.056.155.168.223.31.285l.037.018h.012l.39.074-.903.007h-.013l-.012.006a.102.102 0 0 0-.056.068c-.018.062.006.136.068.235a.442.442 0 0 0 .217.173.523.523 0 0 0 .272.044l.669.074c-.316.043-.755.099-1.071.142l-.031.007-.019.024c-.012.019-.055.112.081.273a.325.325 0 0 0 .124.086.911.911 0 0 0 .315.068h.496a.468.468 0 0 0 .309.477z" fill="#FAA284"/></g><defs><linearGradient id="paint0_linear" x1="138.501" y1="48.31" x2="138.643" y2="58.617" gradientUnits="userSpaceOnUse"><stop stop-color="#502F26"/><stop offset="1" stop-color="#3B221D"/></linearGradient><clipPath id="clip0"><path fill="#fff" transform="translate(56 2)" d="M0 0h264v131.164H0z"/></clipPath></defs></svg>