<svg width="960" height="226" fill="none" xmlns="http://www.w3.org/2000/svg" viewBox="0 0 960 226"><path d="M960 0H0v226h960V0z" fill="#F5FCFF"/><mask id="a" maskUnits="userSpaceOnUse" x="0" y="0" width="960" height="226"><path d="M960 0H0v226h960V0z" fill="#F5FCFF"/></mask><g mask="url(#a)"><path d="M-120.618 316.502l-14.944-73.507s95.351-52.689 282.85-64.257c98.242-9.901 345.542 28.289 345.49 41.128-.037 7.688-613.396 96.636-613.396 96.636z" fill="#00AA1D"/><path d="M977.808 213.505L287.745 243 6 227.299s633.359-93.919 674.11-94.127c69.493-.359 114.649-28.278 195.926-31.02 44.692-1.505 85.892 8.385 113.964 20.463l-12.192 90.89z" fill="#00AA1D"/><path d="M1048.41 314.923L505.617 385 284 347.697s498.191-223.141 530.245-223.636c54.662-.852 90.181-67.185 154.113-73.7 35.152-3.577 67.562 19.921 89.642 48.617l-9.59 215.945z" fill="#00AA1D"/><path d="M964.077 167.977v-22.619S903.723 128.789 769 134.022c38.201-.369 111.407 3.862 195.077 33.956" fill="#00AA1D"/><path d="M997.423 250.415l6.667-76.257s-110.482-42.011-315.735-31.368c-108.044 1.685-371.797 69.873-370.068 82.876 1.042 7.784 679.136 24.749 679.136 24.749z" fill="#EAEAEA"/><path fill-rule="evenodd" clip-rule="evenodd" d="M662.808 168.322h85.446v24.918h-85.446v-24.918z" fill="#787878"/><path fill-rule="evenodd" clip-rule="evenodd" d="M694.217 173.31h27.632v13.848h-27.632V173.31z" fill="#EABC86"/><path fill-rule="evenodd" clip-rule="evenodd" d="M665.31 96.872l70.158-52.877 36.428 27.452-40.973 30.886 4.562 6.049 15.271-11.51v71.45H665.31v-71.45zm94.504 71.45h36.771v-59.956c-13.979-8.273-26.062-7.668-36.771 0v59.956z" fill="#DBDAD5"/><path fill-rule="evenodd" clip-rule="evenodd" d="M735.468 59.365c7.292 0 13.195 5.903 13.195 13.195 0 7.292-5.903 13.194-13.195 13.194-7.292 0-13.195-5.902-13.195-13.194 0-7.292 5.919-13.195 13.195-13.195z" fill="#D2B174"/><path fill-rule="evenodd" clip-rule="evenodd" d="M902.796 122.231v71.009h-15.271v-49.9h-66.611v49.9h-15.271v-71.009h97.153z" fill="#EFEDEE"/><path fill-rule="evenodd" clip-rule="evenodd" d="M808.128 168.322h12.786v24.918h-12.786v-24.918z" fill="#42403D"/><path fill-rule="evenodd" clip-rule="evenodd" d="M805.643 116.182h109.285v6.049H805.643v-6.049z" fill="#BCBCBC"/><path fill-rule="evenodd" clip-rule="evenodd" d="M765.929 57.452h25.686v9.254h15.909v-9.254h107.404v58.73H805.643v-19.31l15.271 11.495 4.562-6.034-59.547-44.88z" fill="#CA4C26"/><path fill-rule="evenodd" clip-rule="evenodd" d="M799.07 168.322h9.058v24.918h-9.058v-24.918zM748.254 168.322h9.058v24.918h-9.058v-24.918z" fill="#484848"/><path fill-rule="evenodd" clip-rule="evenodd" d="M757.312 193.24h41.758v-4.987h-41.758v4.987z" fill="#959595"/><path fill-rule="evenodd" clip-rule="evenodd" d="M757.312 188.254h41.758v-4.971h-41.758v4.971z" fill="#818181"/><path fill-rule="evenodd" clip-rule="evenodd" d="M757.312 183.283h41.758v-4.987h-41.758v4.987z" fill="#A9A9A9"/><path fill-rule="evenodd" clip-rule="evenodd" d="M757.312 178.296h41.758v-4.986h-41.758v4.986z" fill="#959595"/><path fill-rule="evenodd" clip-rule="evenodd" d="M778.191 66.705l-42.723-32.193-89.991 67.82 4.561 6.034 85.43-64.371 36.428 27.452 6.295-4.742z" fill="#F0F0F0"/><path fill-rule="evenodd" clip-rule="evenodd" d="M793.495 34.512h12.148v15.173h-12.148V34.512z" fill="#B5A9A0"/><path fill-rule="evenodd" clip-rule="evenodd" d="M757.312 173.309h41.758v-4.987h-41.758v4.987z" fill="#BDBDBD"/><path fill-rule="evenodd" clip-rule="evenodd" d="M735.468 61.769c5.952 0 10.791 4.823 10.791 10.79 0 5.952-4.823 10.792-10.791 10.792-5.951 0-10.791-4.823-10.791-10.791.017-5.952 4.84-10.791 10.791-10.791z" fill="#405662"/><path fill-rule="evenodd" clip-rule="evenodd" d="M791.614 30h15.909v4.513h-15.909V30zM791.614 49.685h15.909v17.021h-15.909v-17.02z" fill="#A39891"/><path fill-rule="evenodd" clip-rule="evenodd" d="M710.55 159.116h17.773v-50.751H710.55v50.751z" fill="#787878"/><path fill-rule="evenodd" clip-rule="evenodd" d="M696.62 175.713h22.809v9.042H696.62v-9.042z" fill="#405662"/><path fill-rule="evenodd" clip-rule="evenodd" d="M687.726 159.116h17.789v-50.751h-17.789v50.751z" fill="#787878"/><path fill-rule="evenodd" clip-rule="evenodd" d="M820.914 135.933h66.611v13.734h-66.611v-13.734z" fill="#F5F5F5"/><path fill-rule="evenodd" clip-rule="evenodd" d="M750.739 96.872l27.452-20.683 27.452 20.683v71.451h-54.904v-71.45zm9.075 71.451h36.771v-59.956c-13.979-8.274-26.062-7.669-36.771 0v59.956z" fill="#BCBCBC"/><path fill-rule="evenodd" clip-rule="evenodd" d="M825.476 102.333l-47.285-35.627-47.268 35.627 4.545 6.033 42.723-32.177 42.723 32.177 4.562-6.033z" fill="#fff"/><path fill-rule="evenodd" clip-rule="evenodd" d="M665.31 96.872l70.158-52.877 36.428 27.452-4.512 3.4-27.714-20.895-7.864 5.92a13.378 13.378 0 0 0-7.521 5.656l-58.975 44.473v-13.13z" fill="#ADADAD"/><path fill-rule="evenodd" clip-rule="evenodd" d="M750.739 96.872l27.452-20.683 27.452 20.585v6.786l-23.184-17.462-31.72 23.904v-13.13z" fill="#A0A0A0"/><path fill-rule="evenodd" clip-rule="evenodd" d="M902.796 122.231v8.274h-65.172l2.338 5.428h-19.048v32.39h-15.271v-46.092h97.153z" fill="#888"/><path fill-rule="evenodd" clip-rule="evenodd" d="M820.914 135.933h66.611v5.117h-45.356l3.712 8.617h-24.967v-13.734z" fill="#BCBCBC"/><path fill-rule="evenodd" clip-rule="evenodd" d="M831.444 116.182h-25.801v-19.31l15.271 11.494 4.562-6.033 5.968 13.849z" fill="#4A2C26"/><path d="M829.008 116.182v-5.657l1.847 4.267v1.374h-1.847v.016zm-12.149 0v-10.84l1.848 1.373v9.467h-1.848z" fill="#6F3E33"/><path fill-rule="evenodd" clip-rule="evenodd" d="M735.468 61.769c.801 0 1.57.081 2.306.245l-13.081 9.859c.36-5.64 5.053-10.104 10.775-10.104z" fill="#27343A"/><path fill-rule="evenodd" clip-rule="evenodd" d="M690.146 122.231h12.949v34.466h-12.949v-34.466zm0-11.445h12.949v9.042h-12.949v-9.042z" fill="#405662"/><path fill-rule="evenodd" clip-rule="evenodd" d="M696.62 175.713h22.809v4.872h-22.073v4.17h-.736v-9.042z" fill="#27343A"/><path fill-rule="evenodd" clip-rule="evenodd" d="M807.523 66.706v-9.254h9.287l-9.287 9.254z" fill="#4A2C26"/><path fill-rule="evenodd" clip-rule="evenodd" d="M712.937 184.753l2.747-4.169h-5.722l-2.747 4.169h5.722zm-7.292 0l2.747-4.169h-2.714l-2.747 4.169h2.714z" fill="#759B99"/><path fill-rule="evenodd" clip-rule="evenodd" d="M730.449 82.108l11.804-17.936-.032-.016c-.049-.05-.115-.082-.164-.131l-.049-.033c-.049-.033-.098-.082-.147-.114l-.049-.033-.147-.098c-.016-.017-.049-.033-.066-.05-.049-.032-.081-.065-.13-.097-.033-.017-.066-.033-.082-.066-.049-.032-.082-.049-.131-.082-.033-.016-.065-.049-.098-.065s-.082-.049-.114-.065c-.033-.017-.082-.05-.115-.066a.34.34 0 0 1-.098-.065c-.049-.017-.082-.05-.131-.066a8.948 8.948 0 0 0-.098-.049c-.049-.032-.098-.049-.131-.065-.032-.016-.065-.033-.081-.05l-11.789 17.904c.033.033.065.066.098.082.033.033.066.05.098.082a.497.497 0 0 0 .115.082c.032.016.049.049.081.065.05.033.082.065.131.098.033.016.049.033.082.05l.147.097c.017.017.049.033.066.05.049.032.098.065.163.097l.049.033c.049.033.115.066.164.115l.032.016h.017c.065.049.13.082.196.13l.033.017c.065.033.13.066.179.114l.033.017c.016.016.082.049.164.098z" fill="#89B2B0"/><path fill-rule="evenodd" clip-rule="evenodd" d="M738.738 82.844l7.473-11.363a10.726 10.726 0 0 0-2.371-5.739l-11.315 17.2a10.773 10.773 0 0 0 6.213-.098z" fill="#759B99"/><path fill-rule="evenodd" clip-rule="evenodd" d="M766.762 116.182h22.858v52.14h-22.858v-52.14z" fill="#989898"/><path fill-rule="evenodd" clip-rule="evenodd" d="M771.716 122.231h12.95v34.467h-12.95v-34.467z" fill="#405662"/><path fill-rule="evenodd" clip-rule="evenodd" d="M771.716 122.231h12.95v7.799c-4.529.262-8.846 1.636-12.95 4.023v-11.822z" fill="#27343A"/><path fill-rule="evenodd" clip-rule="evenodd" d="M712.954 122.231h12.949v34.466h-12.949v-34.466zm0-11.445h12.949v9.042h-12.949v-9.042z" fill="#405662"/><path fill-rule="evenodd" clip-rule="evenodd" d="M710.55 159.116h3.14v-43.459h14.633v-7.292H710.55v50.751z" fill="#626262"/><path fill-rule="evenodd" clip-rule="evenodd" d="M712.954 122.231h.736v34.466h-.736v-34.466zm0-11.445h12.949v4.872h-12.23v4.17h-.735v-9.042h.016z" fill="#A39891"/><path fill-rule="evenodd" clip-rule="evenodd" d="M687.726 159.116h3.139v-43.459h14.65v-7.292h-17.789v50.751z" fill="#626262"/><path fill-rule="evenodd" clip-rule="evenodd" d="M690.145 122.231h.736v34.466h-.736v-34.466zm0-11.445h12.95v4.872h-12.23v4.17h-.736v-9.042h.016z" fill="#27343A"/><path fill-rule="evenodd" clip-rule="evenodd" d="M690.865 147.493l12.23-18.574v-4.137l-12.23 18.574v4.137z" fill="#89B2B0"/><path fill-rule="evenodd" clip-rule="evenodd" d="M692.238 156.698l10.857-16.498v-8.436l-12.23 18.59v6.344h1.373zM713.689 149.781l12.214-18.59v-4.136l-12.214 18.59v4.136z" fill="#759B99"/><path fill-rule="evenodd" clip-rule="evenodd" d="M717.254 156.698l8.649-13.162v-9.254l-12.214 18.59v3.826h3.565z" fill="#89B2B0"/><path fill-rule="evenodd" clip-rule="evenodd" d="M771.716 156.207l12.95-19.702v-4.137l-12.95 19.702v4.137zM779.957 156.698l4.709-7.162v-9.712l-11.102 16.874h6.393z" fill="#759B99"/><path fill-rule="evenodd" clip-rule="evenodd" d="M715.668 180.585l3.204-4.872h-5.722l-3.205 4.872h5.723zm-7.276 0l3.205-4.872h-2.715l-3.204 4.872h2.714zM713.69 152.872l-.736 1.112v2.731h.736v-3.843zm-.736-1.978l.736-1.112v-4.136l-.736 1.111v4.137zM690.865 150.354l-.736 1.112v5.232h.736v-6.344zm-.72-1.749l.736-1.112v-4.137l-.736 1.112v4.137z" fill="#4C6972"/><path fill-rule="evenodd" clip-rule="evenodd" d="M851.473 57.452h63.455v58.73h-38.129l-25.326-58.73z" fill="#CA4C26"/><path d="M901.864 116.182v-58.73h1.848v58.73h-1.848zm-48.576-54.495v-4.218h1.847v8.502l-1.847-4.284zm12.148 28.155v-32.39h1.847V94.11l-1.847-4.267zm12.148 26.34v-58.73h1.848v58.73h-1.848zm12.148 0v-58.73h1.848v58.73h-1.848z" fill="#A5A5A5"/><path d="M780.431 68.39V57.452h1.848v12.296l-1.848-1.358zm12.148 9.156v-10.84h1.848V78.92l-1.848-1.374zm12.132 9.14v-19.98h1.848v21.37l-1.848-1.39zm12.148 9.19V57.451h1.848v39.764l-1.848-1.34zm12.149 14.649V57.452h1.847v57.34l-1.847-4.267zm12.148 5.657v-58.73h1.847v58.73h-1.847zm12.132 0V61.687l1.847 4.267v50.228h-1.847zm12.148 0v-26.34l1.847 4.267v22.073h-1.847z" fill="#A5A5A5"/><path fill-rule="evenodd" clip-rule="evenodd" d="M820.914 149.667h66.611v43.573h-66.611v-43.573z" fill="#787878"/><path d="M628.723 142.621H592v52.604h36.723v-52.604z" fill="#DFB686"/><path d="M943.234 151.554H906.51v41.686h36.724v-41.686z" fill="#B5A9A0"/><path d="M908.496 136.666H886.66v24.813h21.836v-24.813z" fill="#EABC86"/><path d="M908.496 136.666h-22.829v5.955h22.829v-5.955z" fill="#DBA76A"/><path d="M912.466 161.479h-49.627v31.761h49.627v-31.761zM928.346 151.554h-4.963v41.686h4.963v-41.686z" fill="#A39891"/><path d="M917.428 170.412H867.63l-4.791-8.933h49.799l4.79 8.933z" fill="#B5A9A0"/><path d="M619.356 152.547h-10.288c-.721 0-1.307.445-1.307.992 0 .547.586.993 1.307.993h10.288c.721 0 1.308-.446 1.308-.993 0-.547-.587-.992-1.308-.992z" fill="#A88A6C"/><path d="M658.379 151.554h-29.775v43.671h29.775v-43.671z" fill="#EABC86"/><path d="M659.372 151.554h-30.768v6.947h30.768v-6.947zM630 142h-40v9h40v-9z" fill="#DBA76A"/><path d="M647.505 160.487h-8.027a.948.948 0 0 0-.949.937v.112c0 .514.429.936.949.936h8.027c.521 0 .95-.422.95-.936v-.112a.945.945 0 0 0-.95-.937zM900.528 144.606h-4.908c-.561 0-1.02.224-1.02.497s.459.496 1.02.496h4.908c.561 0 1.02-.223 1.02-.496-.008-.277-.466-.497-1.02-.497z" fill="#A88A6C"/><path d="M592.813 176h-23.82v18.858h23.82V176z" fill="#EABC86"/><path d="M593.806 176H568v4.963h25.806V176z" fill="#DBA76A"/><path d="M583.06 181.955h-5.306c-.452 0-.821.223-.821.496s.369.497.821.497h5.306c.451 0 .821-.224.821-.497s-.37-.496-.821-.496z" fill="#A88A6C"/></g><path d="M373.358 177.605h-2.376v10.19h2.376v-10.19z" fill="#8C5523"/><path d="M372.122 187.794c.271-1.541-.058-3.173-.215-4.709-.108-1.047.052-2.095.105-3.142.04-.776-.012-1.559-.061-2.339h-.425c.035.658.073 1.318.078 1.976.012 1.076-.177 2.138-.136 3.217.061 1.669.535 3.351.229 4.997h.425zM372.794 183.117a25.705 25.705 0 0 0-.099-2.988c-.046-.5-.029-.989.137-1.466.099-.285.221-.555.215-.861-.003-.128-.099-.192-.198-.198h-.023c-.099.006-.192.07-.189.198.015.652-.369 1.274-.372 1.964-.003.995.209 1.952.139 2.955-.122 1.69.07 3.389.233 5.076h.419c-.14-1.559-.297-3.115-.262-4.68z" fill="#723C15"/><path d="M381 169.561a9 9 0 0 1-18 0c0-4.971 4.477-27.561 9.445-27.561 4.971.003 8.555 22.593 8.555 27.561z" fill="#53B200"/><path d="M372.129 177.326c.041-.055.087-.105.131-.157a1.741 1.741 0 0 1-1.516-.797c-.456-.707-.349-1.611.213-2.167a2.487 2.487 0 0 1-1.507-1.076 2.47 2.47 0 0 1 .087-2.828 6.339 6.339 0 0 1-.055-.229 3.454 3.454 0 0 1-1.289-1.176c-.631-.974-.715-2.126-.325-3.054-.003-.012-.012-.02-.015-.029a1.741 1.741 0 0 1 .239-1.661 2.527 2.527 0 0 1-.763-1.068c-.477-1.282.149-2.696 1.397-3.159.072-.026.145-.04.221-.061l.043-.506a3.377 3.377 0 0 1-.832-1.259c-.596-1.609.088-3.348 1.528-3.91.011-.073.026-.145.037-.215a1.741 1.741 0 0 1-.643-1.353c0-.8.527-1.466 1.243-1.669.008-.044.02-.091.029-.134a2.5 2.5 0 0 1-.597-1.623 2.46 2.46 0 0 1 1.551-2.301c.029-.114.061-.224.09-.335a3.433 3.433 0 0 1-.393-1.597c0-1.303.701-2.423 1.708-2.932a1.673 1.673 0 0 0-.262-.026c-4.968 0-9.445 22.59-9.445 27.561 0 4.847 3.834 8.8 8.633 8.989a2.62 2.62 0 0 1 .492-1.228z" fill="#498E00"/><path d="M375.715 152.723a.878.878 0 0 1-.524-.175 1.321 1.321 0 0 1-2.464-.183.875.875 0 0 1-1.533-.215c0 .02-.006.037-.006.058a.871.871 0 0 0 1.574.518 1.308 1.308 0 0 0 2.435.18.87.87 0 0 0 1.373-.861.874.874 0 0 1-.855.678zM377.355 166.827c-.288 0-.55-.096-.762-.256a1.929 1.929 0 0 1-3.59-.268 1.28 1.28 0 0 1-2.234-.317c-.002.029-.008.055-.008.085 0 .704.57 1.274 1.274 1.274.419 0 .788-.207 1.021-.518a1.907 1.907 0 0 0 3.549.265c.212.157.471.253.756.253a1.274 1.274 0 0 0 1.251-1.513 1.3 1.3 0 0 1-1.257.995zM375.869 174.562c-.3 0-.57-.123-.765-.32a1.436 1.436 0 0 1-2.653-.62 1.442 1.442 0 0 0 1.434 1.577c.518 0 .969-.274 1.222-.684a1.078 1.078 0 0 0 1.832-.893c-.069.529-.523.94-1.07.94zM375.869 159.858c-.3 0-.57-.123-.765-.32a1.436 1.436 0 0 1-2.653-.62 1.442 1.442 0 0 0 1.434 1.577c.518 0 .969-.274 1.222-.684a1.078 1.078 0 0 0 1.832-.893c-.069.529-.523.94-1.07.94zM373.888 186.351c-.239 0-.471.015-.695.038a3.59 3.59 0 0 0-5.804.006 2.16 2.16 0 0 0-.424-.044c-1.03 0-1.865.721-1.865 1.612h12.179c-.206-.908-1.643-1.612-3.391-1.612z" fill="#498E00"/><path d="M424.067 160.664h-3.916v16.789h3.916v-16.789z" fill="#8C5523"/><path d="M422.03 177.452c.445-2.54-.096-5.229-.355-7.759-.177-1.726.086-3.451.173-5.177.067-1.279-.019-2.568-.101-3.853h-.7c.058 1.083.12 2.171.13 3.254.019 1.774-.293 3.523-.226 5.301.101 2.751.882 5.521.379 8.234h.7zM423.137 169.746a42.355 42.355 0 0 0-.163-4.922c-.077-.824-.048-1.629.225-2.415.163-.47.365-.916.355-1.419-.005-.211-.163-.316-.326-.326h-.038c-.163.01-.317.115-.312.326.024 1.074-.609 2.099-.613 3.235-.005 1.639.345 3.216.23 4.87-.202 2.784.115 5.583.383 8.363h.69c-.23-2.569-.488-5.133-.431-7.712z" fill="#723C15"/><path d="M436.658 147.411c0 8.187-6.638 14.829-14.829 14.829S407 155.602 407 147.411c0-8.19 7.376-45.411 15.562-45.411 8.191.005 14.096 37.225 14.096 45.411z" fill="#53B200"/><path d="M422.041 160.204c.067-.091.143-.172.215-.258a2.87 2.87 0 0 1-2.497-1.314c-.752-1.164-.575-2.655.35-3.57a4.102 4.102 0 0 1-2.482-1.774 4.067 4.067 0 0 1 .143-4.658c-.033-.125-.062-.254-.091-.379a5.674 5.674 0 0 1-2.123-1.936c-1.04-1.606-1.179-3.504-.537-5.032-.004-.02-.019-.034-.024-.048a2.874 2.874 0 0 1 .393-2.737 4.176 4.176 0 0 1-1.255-1.759c-.786-2.114.244-4.443 2.3-5.205.12-.043.24-.067.364-.101l.072-.833a5.54 5.54 0 0 1-1.37-2.076c-.983-2.65.143-5.516 2.516-6.441.019-.12.043-.24.062-.355a2.864 2.864 0 0 1-1.059-2.229c0-1.318.867-2.415 2.046-2.751.015-.071.034-.148.048-.22a4.125 4.125 0 0 1-.982-2.674 4.053 4.053 0 0 1 2.554-3.791c.048-.187.101-.37.149-.552a5.654 5.654 0 0 1-.647-2.631c0-2.147 1.155-3.992 2.813-4.831a2.623 2.623 0 0 0-.431-.043c-8.186 0-15.562 37.22-15.562 45.411 0 7.985 6.317 14.498 14.225 14.81a4.29 4.29 0 0 1 .81-2.023z" fill="#498E00"/><path d="M427.95 119.667a1.45 1.45 0 0 1-.863-.288 2.178 2.178 0 0 1-4.059-.302 1.443 1.443 0 0 1-1.165.594 1.457 1.457 0 0 1-1.361-.949c0 .034-.01.063-.01.096a1.436 1.436 0 0 0 2.593.853 2.157 2.157 0 0 0 2.066 1.534c.862 0 1.601-.503 1.946-1.237.239.178.532.288.853.288.795 0 1.438-.642 1.438-1.438 0-.091-.01-.182-.029-.268a1.442 1.442 0 0 1-1.409 1.117zM430.652 142.906a2.07 2.07 0 0 1-1.255-.422 3.176 3.176 0 0 1-5.915-.441 2.105 2.105 0 0 1-3.68-.522c-.005.048-.015.091-.015.139 0 1.159.939 2.099 2.099 2.099.69 0 1.299-.34 1.683-.853a3.14 3.14 0 0 0 5.847.436c.35.259.776.417 1.246.417a2.099 2.099 0 0 0 2.061-2.492 2.14 2.14 0 0 1-2.071 1.639zM428.203 155.651c-.494 0-.939-.202-1.26-.528a2.366 2.366 0 0 1-4.371-1.02 2.375 2.375 0 0 0 2.362 2.597c.854 0 1.596-.45 2.013-1.126a1.775 1.775 0 0 0 3.02-1.471 1.784 1.784 0 0 1-1.764 1.548zM428.203 131.423a1.76 1.76 0 0 1-1.26-.527 2.365 2.365 0 0 1-4.371-1.021 2.375 2.375 0 0 0 2.362 2.598c.854 0 1.596-.451 2.013-1.127.321.326.767.528 1.261.528a1.775 1.775 0 0 0 1.759-1.999 1.784 1.784 0 0 1-1.764 1.548zM424.939 175.075c-.393 0-.776.024-1.146.062a5.91 5.91 0 0 0-9.561.01 3.61 3.61 0 0 0-.7-.072c-1.697 0-3.072 1.188-3.072 2.655h20.067c-.34-1.496-2.708-2.655-5.588-2.655z" fill="#498E00"/></svg>