<svg width="960" height="226" fill="none" xmlns="http://www.w3.org/2000/svg" viewBox="0 0 960 226"><path d="M30.344 30L23.828.84h3.816l4.608 21.492L36.644.84h3.708L33.908 30h-3.564zm18.184.288c-1.632 0-2.892-.312-3.78-.936-.888-.648-1.512-1.584-1.872-2.808-.336-1.248-.504-2.772-.504-4.572V17.22c0-1.848.18-3.384.54-4.608.36-1.224.984-2.148 1.872-2.772.912-.624 2.16-.936 3.744-.936 1.752 0 3.036.36 3.852 1.08.84.72 1.392 1.764 1.656 3.132.264 1.344.396 2.964.396 4.86v1.692h-8.208v4.176c0 .84.072 1.524.216 2.052.168.528.42.924.756 1.188.36.24.816.36 1.368.36.576 0 1.008-.132 1.296-.396.312-.288.516-.684.612-1.188.12-.528.18-1.14.18-1.836v-1.26h3.744v.792c0 2.088-.444 3.732-1.332 4.932-.888 1.2-2.4 1.8-4.536 1.8zM46.224 17.58h4.428v-1.872c0-.864-.048-1.584-.144-2.16-.096-.6-.3-1.044-.612-1.332-.288-.312-.756-.468-1.404-.468-.624 0-1.104.144-1.44.432-.312.288-.528.78-.648 1.476-.12.672-.18 1.608-.18 2.808v1.116zM58.03 30V.84h3.852v10.512a11.14 11.14 0 0 1 2.34-1.728c.864-.48 1.824-.72 2.88-.72.816 0 1.44.216 1.872.648.456.432.768.972.936 1.62.192.648.288 1.308.288 1.98V30h-3.852V14.268c0-.744-.108-1.32-.324-1.728-.216-.408-.66-.612-1.332-.612-.456 0-.936.132-1.44.396-.48.264-.936.588-1.368.972V30h-3.852zm16.175 0V9.192h3.852V30h-3.852zm0-23.904V2.064h3.852v4.032h-3.852zm13.662 24.192c-1.704 0-3-.336-3.888-1.008-.864-.696-1.452-1.668-1.764-2.916-.288-1.248-.432-2.7-.432-4.356V17.22c0-1.752.156-3.24.468-4.464.312-1.248.9-2.196 1.764-2.844.888-.672 2.172-1.008 3.852-1.008 1.512 0 2.676.252 3.492.756.84.48 1.416 1.212 1.728 2.196.312.96.468 2.16.468 3.6v1.224h-3.492v-1.26c0-.912-.06-1.632-.18-2.16-.12-.528-.336-.912-.648-1.152-.312-.24-.756-.36-1.332-.36-.624 0-1.104.144-1.44.432-.336.288-.564.78-.684 1.476-.096.672-.144 1.596-.144 2.772v6.552c0 1.776.168 2.964.504 3.564.336.6.936.9 1.8.9.648 0 1.116-.144 1.404-.432.312-.312.504-.744.576-1.296.096-.552.144-1.176.144-1.872v-1.692h3.492v1.44c0 1.392-.168 2.592-.504 3.6-.312 1.008-.888 1.776-1.728 2.304-.816.528-1.968.792-3.456.792zM97.34 30V.84h3.852V30h-3.852zm13.627.288c-1.632 0-2.892-.312-3.78-.936-.888-.648-1.512-1.584-1.872-2.808-.336-1.248-.504-2.772-.504-4.572V17.22c0-1.848.18-3.384.54-4.608.36-1.224.984-2.148 1.872-2.772.912-.624 2.16-.936 3.744-.936 1.752 0 3.036.36 3.852 1.08.84.72 1.392 1.764 1.656 3.132.264 1.344.396 2.964.396 4.86v1.692h-8.208v4.176c0 .84.072 1.524.216 2.052.168.528.42.924.756 1.188.36.24.816.36 1.368.36.576 0 1.008-.132 1.296-.396.312-.288.516-.684.612-1.188.12-.528.18-1.14.18-1.836v-1.26h3.744v.792c0 2.088-.444 3.732-1.332 4.932-.888 1.2-2.4 1.8-4.536 1.8zm-2.304-12.708h4.428v-1.872c0-.864-.048-1.584-.144-2.16-.096-.6-.3-1.044-.612-1.332-.288-.312-.756-.468-1.404-.468-.624 0-1.104.144-1.44.432-.312.288-.528.78-.648 1.476-.12.672-.18 1.608-.18 2.808v1.116zm23.667 12.708c-.816 0-1.536-.228-2.16-.684a5.136 5.136 0 0 1-1.476-1.8 5.307 5.307 0 0 1-.54-2.34c0-1.296.216-2.388.648-3.276a6.451 6.451 0 0 1 1.764-2.232 12.434 12.434 0 0 1 2.628-1.62c1.008-.456 2.064-.9 3.168-1.332v-1.476c0-.84-.048-1.536-.144-2.088-.096-.552-.3-.96-.612-1.224-.288-.288-.732-.432-1.332-.432-.528 0-.96.12-1.296.36-.312.24-.54.588-.684 1.044-.144.432-.216.948-.216 1.548v1.044l-3.816-.144c.048-2.304.576-3.996 1.584-5.076 1.008-1.104 2.568-1.656 4.68-1.656 2.064 0 3.528.564 4.392 1.692.864 1.128 1.296 2.76 1.296 4.896v9.504c0 .648.012 1.272.036 1.872.048.6.096 1.164.144 1.692.072.504.132.984.18 1.44h-3.528a75.586 75.586 0 0 0-.288-1.44c-.096-.6-.168-1.14-.216-1.62-.24.816-.708 1.584-1.404 2.304-.672.696-1.608 1.044-2.808 1.044zm1.512-3.312c.384 0 .744-.108 1.08-.324.336-.216.636-.456.9-.72.264-.288.444-.516.54-.684v-5.904c-.6.336-1.164.672-1.692 1.008a9.418 9.418 0 0 0-1.404 1.08c-.384.36-.696.78-.936 1.26-.216.456-.324.984-.324 1.584 0 .84.156 1.5.468 1.98.312.48.768.72 1.368.72zM143.913 30V9.192h3.852v2.052c.696-.648 1.464-1.2 2.304-1.656a5.716 5.716 0 0 1 2.772-.684c.84 0 1.476.216 1.908.648.456.432.768.972.936 1.62.192.648.288 1.308.288 1.98V30h-3.852V14.268c0-.744-.108-1.32-.324-1.728-.216-.408-.66-.612-1.332-.612-.432 0-.888.132-1.368.396-.456.24-.9.54-1.332.9V30h-3.852zm20.644.288c-1.752 0-3.06-.636-3.924-1.908-.864-1.296-1.296-3.48-1.296-6.552v-4.032c0-1.584.132-3.048.396-4.392.264-1.368.756-2.46 1.476-3.276.744-.816 1.824-1.224 3.24-1.224a3.94 3.94 0 0 1 1.908.468 6.666 6.666 0 0 1 1.548 1.152V.84h3.852V30h-3.852v-1.332c-.456.48-.96.876-1.512 1.188-.528.288-1.14.432-1.836.432zm.972-3.024c.36 0 .744-.06 1.152-.18a5.831 5.831 0 0 0 1.224-.612V12.828a5.541 5.541 0 0 0-1.116-.612 3.089 3.089 0 0 0-1.332-.288c-.888 0-1.488.432-1.8 1.296-.312.84-.468 1.86-.468 3.06v5.868c0 .96.048 1.836.144 2.628.12.768.348 1.38.684 1.836.336.432.84.648 1.512.648zM184.209 30V.84h5.868c1.944 0 3.552.264 4.824.792 1.272.504 2.208 1.332 2.808 2.484.624 1.128.936 2.616.936 4.464 0 1.128-.12 2.16-.36 3.096-.24.912-.624 1.692-1.152 2.34-.528.624-1.224 1.08-2.088 1.368L199.185 30h-3.924l-3.816-13.68h-3.168V30h-4.068zm4.068-16.596h1.548c1.152 0 2.088-.144 2.808-.432a2.894 2.894 0 0 0 1.584-1.476c.336-.696.504-1.668.504-2.916 0-1.704-.312-2.928-.936-3.672-.624-.768-1.86-1.152-3.708-1.152h-1.8v9.648zm20.036 16.884c-1.632 0-2.892-.312-3.78-.936-.888-.648-1.512-1.584-1.872-2.808-.336-1.248-.504-2.772-.504-4.572V17.22c0-1.848.18-3.384.54-4.608.36-1.224.984-2.148 1.872-2.772.912-.624 2.16-.936 3.744-.936 1.752 0 3.036.36 3.852 1.08.84.72 1.392 1.764 1.656 3.132.264 1.344.396 2.964.396 4.86v1.692h-8.208v4.176c0 .84.072 1.524.216 2.052.168.528.42.924.756 1.188.36.24.816.36 1.368.36.576 0 1.008-.132 1.296-.396.312-.288.516-.684.612-1.188.12-.528.18-1.14.18-1.836v-1.26h3.744v.792c0 2.088-.444 3.732-1.332 4.932-.888 1.2-2.4 1.8-4.536 1.8zm-2.304-12.708h4.428v-1.872c0-.864-.048-1.584-.144-2.16-.096-.6-.3-1.044-.612-1.332-.288-.312-.756-.468-1.404-.468-.624 0-1.104.144-1.44.432-.312.288-.528.78-.648 1.476-.12.672-.18 1.608-.18 2.808v1.116zm17.385 12.708c-1.704 0-3-.336-3.888-1.008-.864-.696-1.452-1.668-1.764-2.916-.288-1.248-.432-2.7-.432-4.356V17.22c0-1.752.156-3.24.468-4.464.312-1.248.9-2.196 1.764-2.844.888-.672 2.172-1.008 3.852-1.008 1.512 0 2.676.252 3.492.756.84.48 1.416 1.212 1.728 2.196.312.96.468 2.16.468 3.6v1.224h-3.492v-1.26c0-.912-.06-1.632-.18-2.16-.12-.528-.336-.912-.648-1.152-.312-.24-.756-.36-1.332-.36-.624 0-1.104.144-1.44.432-.336.288-.564.78-.684 1.476-.096.672-.144 1.596-.144 2.772v6.552c0 1.776.168 2.964.504 3.564.336.6.936.9 1.8.9.648 0 1.116-.144 1.404-.432.312-.312.504-.744.576-1.296.096-.552.144-1.176.144-1.872v-1.692h3.492v1.44c0 1.392-.168 2.592-.504 3.6-.312 1.008-.888 1.776-1.728 2.304-.816.528-1.968.792-3.456.792zm9.221-.288V9.192h3.852v2.952c.768-1.272 1.536-2.124 2.304-2.556.768-.432 1.536-.648 2.304-.648h.252c.096 0 .216.012.36.036v4.248a5.049 5.049 0 0 0-1.008-.288 4.315 4.315 0 0 0-1.117-.144c-.599 0-1.151.144-1.655.432-.48.264-.96.792-1.44 1.584V30h-3.852zm17.218.288c-1.632 0-2.892-.312-3.78-.936-.888-.648-1.512-1.584-1.872-2.808-.336-1.248-.504-2.772-.504-4.572V17.22c0-1.848.18-3.384.54-4.608.36-1.224.984-2.148 1.872-2.772.912-.624 2.16-.936 3.744-.936 1.752 0 3.036.36 3.852 1.08.84.72 1.392 1.764 1.656 3.132.264 1.344.396 2.964.396 4.86v1.692h-8.208v4.176c0 .84.072 1.524.216 2.052.168.528.42.924.756 1.188.36.24.816.36 1.368.36.576 0 1.008-.132 1.296-.396.312-.288.516-.684.612-1.188.12-.528.18-1.14.18-1.836v-1.26h3.744v.792c0 2.088-.444 3.732-1.332 4.932-.888 1.2-2.4 1.8-4.536 1.8zm-2.304-12.708h4.428v-1.872c0-.864-.048-1.584-.144-2.16-.096-.6-.3-1.044-.612-1.332-.288-.312-.756-.468-1.404-.468-.624 0-1.104.144-1.44.432-.312.288-.528.78-.648 1.476-.12.672-.18 1.608-.18 2.808v1.116zm15.44 12.708c-.816 0-1.536-.228-2.16-.684a5.136 5.136 0 0 1-1.476-1.8 5.307 5.307 0 0 1-.54-2.34c0-1.296.216-2.388.648-3.276a6.451 6.451 0 0 1 1.764-2.232 12.434 12.434 0 0 1 2.628-1.62c1.008-.456 2.064-.9 3.168-1.332v-1.476c0-.84-.048-1.536-.144-2.088-.096-.552-.3-.96-.612-1.224-.288-.288-.732-.432-1.332-.432-.528 0-.96.12-1.296.36-.312.24-.54.588-.684 1.044-.144.432-.216.948-.216 1.548v1.044l-3.816-.144c.048-2.304.576-3.996 1.584-5.076 1.008-1.104 2.568-1.656 4.68-1.656 2.064 0 3.528.564 4.392 1.692.864 1.128 1.296 2.76 1.296 4.896v9.504c0 .648.012 1.272.036 1.872.048.6.096 1.164.144 1.692.072.504.132.984.18 1.44h-3.528a75.586 75.586 0 0 0-.288-1.44c-.096-.6-.168-1.14-.216-1.62-.24.816-.708 1.584-1.404 2.304-.672.696-1.608 1.044-2.808 1.044zm1.512-3.312c.384 0 .744-.108 1.08-.324.336-.216.636-.456.9-.72.264-.288.444-.516.54-.684v-5.904c-.6.336-1.164.672-1.692 1.008a9.418 9.418 0 0 0-1.404 1.08c-.384.36-.696.78-.936 1.26-.216.456-.324.984-.324 1.584 0 .84.156 1.5.468 1.98.312.48.768.72 1.368.72zm15.335 3.312c-1.08 0-1.956-.204-2.628-.612-.648-.408-1.128-.984-1.44-1.728-.288-.744-.432-1.62-.432-2.628V11.748h-2.196V9.192h2.196V3.108h3.852v6.084h3.348v2.556h-3.348v13.32c0 .816.132 1.404.396 1.764.264.336.768.504 1.512.504.192 0 .408-.012.648-.036.264-.024.516-.048.756-.072v2.844c-.48.072-.924.12-1.332.144a11.44 11.44 0 0 1-1.332.072zm5.782-.288V9.192h3.852V30h-3.852zm0-23.904V2.064h3.852v4.032h-3.852zm13.699 24.192c-1.536 0-2.748-.312-3.636-.936-.888-.624-1.524-1.512-1.908-2.664-.36-1.152-.54-2.508-.54-4.068v-6.048c0-1.56.18-2.916.54-4.068.384-1.152 1.02-2.04 1.908-2.664.888-.624 2.1-.936 3.636-.936s2.736.312 3.6.936c.888.624 1.512 1.512 1.872 2.664.384 1.152.576 2.508.576 4.068v6.048c0 1.56-.192 2.916-.576 4.068-.36 1.152-.984 2.04-1.872 2.664-.864.624-2.064.936-3.6.936zm0-2.844c.744 0 1.26-.216 1.548-.648.312-.432.492-.996.54-1.692.072-.72.108-1.464.108-2.232v-6.516c0-.792-.036-1.536-.108-2.232-.048-.696-.228-1.26-.54-1.692-.288-.456-.804-.684-1.548-.684s-1.272.228-1.584.684c-.312.432-.504.996-.576 1.692-.048.696-.072 1.44-.072 2.232v6.516c0 .768.024 1.512.072 2.232.072.696.264 1.26.576 1.692.312.432.84.648 1.584.648zM308.866 30V9.192h3.852v2.052c.696-.648 1.464-1.2 2.304-1.656a5.716 5.716 0 0 1 2.772-.684c.84 0 1.476.216 1.908.648.456.432.768.972.936 1.62.192.648.288 1.308.288 1.98V30h-3.852V14.268c0-.744-.108-1.32-.324-1.728-.216-.408-.66-.612-1.332-.612-.432 0-.888.132-1.368.396-.456.24-.9.54-1.332.9V30h-3.852zm19.564.288c-.816 0-1.536-.228-2.16-.684a5.136 5.136 0 0 1-1.476-1.8 5.307 5.307 0 0 1-.54-2.34c0-1.296.216-2.388.648-3.276a6.451 6.451 0 0 1 1.764-2.232 12.434 12.434 0 0 1 2.628-1.62c1.008-.456 2.064-.9 3.168-1.332v-1.476c0-.84-.048-1.536-.144-2.088-.096-.552-.3-.96-.612-1.224-.288-.288-.732-.432-1.332-.432-.528 0-.96.12-1.296.36-.312.24-.54.588-.684 1.044-.144.432-.216.948-.216 1.548v1.044l-3.816-.144c.048-2.304.576-3.996 1.584-5.076 1.008-1.104 2.568-1.656 4.68-1.656 2.064 0 3.528.564 4.392 1.692.864 1.128 1.296 2.76 1.296 4.896v9.504c0 .648.012 1.272.036 1.872.048.6.096 1.164.144 1.692.072.504.132.984.18 1.44h-3.528a75.586 75.586 0 0 0-.288-1.44c-.096-.6-.168-1.14-.216-1.62-.24.816-.708 1.584-1.404 2.304-.672.696-1.608 1.044-2.808 1.044zm1.512-3.312c.384 0 .744-.108 1.08-.324.336-.216.636-.456.9-.72.264-.288.444-.516.54-.684v-5.904c-.6.336-1.164.672-1.692 1.008a9.418 9.418 0 0 0-1.404 1.08c-.384.36-.696.78-.936 1.26-.216.456-.324.984-.324 1.584 0 .84.156 1.5.468 1.98.312.48.768.72 1.368.72zM340.374 30V.84h3.852V30h-3.852z" fill="#414648"/><path d="M960 226H0V0h960v226z" fill="#F5FCFF"/><mask id="a" maskUnits="userSpaceOnUse" x="0" y="0" width="960" height="226"><path d="M960 0H0v226h960V0z" fill="#F5FCFF"/></mask><g mask="url(#a)"><path fill-rule="evenodd" clip-rule="evenodd" d="M882.866 57.299v21.675h10.554v-.055h.911v19.138h.752v-33.64h4.116v-2.399h7.457v2.4h4.111v43.048h.933V95.923h3.462v-2.941h5.573v2.941h3.461v27.323h1.213V105.32h3.342v-1.953h6.063v1.953h3.347v34.592h2.135V125.12h.381v-2.7h2.22v-.868h4.031v.868h2.22v2.7h.604v9.512h1.059v-15.268h1.542v-6.6s3.507-1.181 7.988-1.26h.91c2.232.036 4.646.374 6.969 1.26v13.743h2.647v1.88h2.214v.073h.923v-1.272h5.624v1.272h3.103v4.484h1.281v-.868h2.123V112.86h7.697v19.957h8.478v18.011h3.15v5.334h.04v12.857h1.52v-29.318h3.78v-9.716h4.4v28.962h1.41v-21.543h1.72v-3.001h.95v-3.358h1.57v-2.296h3.77v2.296h1.57v3.358h.95v3.001h1.72v19.252h2.2v-6.889h6.12v11.127h1.42v-5.829h6.28v7.95h6.59v9.005h4.56v4.72H497.096v-4.057h4.554v-7.739h6.598v-6.829h6.285v5.009h1.418v-9.566h6.125v5.919h2.198v-16.539h1.731v-2.58h.944v-2.887h1.572V135.5h3.774v1.971h1.566v2.887h.945v2.58h1.725v18.51h1.412v-24.893h4.4v8.348h3.769v25.195h1.571v-15.636h3.143v-15.478h8.482v-17.149h7.697v25.798h3.404v-12.392h3.103v-1.097h5.619v1.097h3.103v17.98h2.681v-31.458c2.317-.765 4.736-1.049 6.968-1.085h.911c4.48.066 7.987 1.085 7.987 1.085v25.527h2.602v-14.907h3.211v-2.079h5.169v2.079h3.211v14.907h4.036v-40.542h3.814v-1.699h6.911v1.699h3.815v29.011h7.759v-9.023h1.241v-16.009h2.084V97.291h2.368v-6.413l.017-.03h13.748l.023.03v6.407h2.363v13.436h2.078v16.015h1.246v2.019h2.306v2.296h.974v-29.01h9.33v8.794h5.335v15.087h4.4v-15.455h5.932v-4.243h2.881V94.235h10.839v4.057h1.697v14.207h2.465V89.215c2.499-.929 5.106-1.272 7.514-1.315 5.295-.09 9.593 1.314 9.593 1.314v22.308c.342.012.683.024 1.008.049V92.668h1.343V74.085h24.446v18.583h1.343v2.622h.757V80.21h4.111v-2.068h7.452v2.067h4.11v36.997h.933v-9.915h3.462v-2.526h.336v-4.852h2.083V84.278h2.363v-7.462l.017-.036h13.748l.017.036v7.462h2.363v15.635h2.078v18.631h1.247v14.967h1.269v-3.454h2.004V89.805h9.331v10.241h5.328v17.558h4.407v-17.98h5.932v-4.936h2.88V80.74h10.845v4.72h1.697v16.527h2.465V74.899c2.499-1.079 5.107-1.489 7.515-1.53 5.288-.103 9.586 1.53 9.586 1.53v28.016h1.008V78.919h1.344V57.3h14.295z" fill="#A3DEF7" fill-opacity=".5"/><path d="M975.887 190.62v-22.618s-60.354-16.57-195.077-11.337c38.201-.368 111.407 3.863 195.077 33.957" fill="#00AA1D"/><path d="M698.098 160.549l-12.631 1.063-.039.005c121.746 7.419-128.463 142.181-128.463 142.181h141.132s126.459-144.92 0-143.25" fill="#fff"/><path d="M751.742 158.083l-53.644 2.465c126.459-1.669 0 143.251 0 143.251h277.79v-69.05c-38.596-46.084-148.8-81.093-224.146-76.666z" fill="#004EBB"/><path d="M685.429 161.616c121.745 7.419-128.464 155.343-128.464 155.343l-308.773-13.161 120.041-15.195s-98.797-1.576 9.767-5.672c121.931-21.109 240.279-114.029 307.429-121.315z" fill="#00AA1D"/><path d="M780.813 156.665c-9.36.364-19.05.837-29.068 1.42 1.04-.062 2.081-.11 3.114-.156.748-.032 1.503-.057 2.257-.083l.337-.011c75.163-2.397 180.793 31.966 218.437 76.916v-44.129c-83.669-30.092-156.875-34.325-195.077-33.957z" fill="#fff"/><path d="M-4.618 255.983l-10.418-51.246s66.475-36.733 197.193-44.798c68.49-6.903 240.899 19.722 240.863 28.674-.026 5.359-427.638 67.37-427.638 67.37z" fill="#00AA1D"/><path d="M681.5 226.5L200.42 247 4 236.087s441.549-65.277 469.959-65.421c48.447-.25 79.928-19.654 136.591-21.56 31.156-1.047 59.879 5.827 79.45 14.222l-8.5 63.172z" fill="#00AA1D"/><path d="M205.343 311.288c0-29.578 1.815-65.329 44.828-83.249 76.638-31.921 237.763-44.811 240.003-49.722 2.856-6.245-77.153-6.906-77.29-6.906 0 0 151.779-7.583 153.247 7.518.958 9.839-56.373 22.348-49.719 29.391 13.22 13.949 204.358 57.218 393.937 77.86l.747 24.853-705.753.255z" fill="#fff"/><path d="M434.845 172.365s115.755-3.225 110.37 10.226c-3.005 7.509-64.68 19.096-69.11 30.126-14.554 36.31 332.909 94.272 332.909 94.272l-24.593 6.188-497.098-1.589c-23.892-23.969-22.967-56.778-5.699-73.727 35.386-34.728 217.517-49.141 221.046-57.915 2.658-6.631-67.825-7.581-67.825-7.581z" fill="#0047B8"/><path d="M432.453 202.879c-.528-3.37 17.9-9.057 41.16-12.702 23.26-3.645 42.544-3.867 43.072-.497.528 3.371-17.9 9.058-41.16 12.703-23.26 3.644-42.544 3.867-43.072.496z" fill="#000" fill-opacity=".4"/><path d="M508.935 162.78c-.792 0-5.092.543-5.816.792 6.494-.204 11.45 6.788 11.45 13.713 0 6.924-2.444 14.097-10.997 14.21.746.226 4.593.43 5.385.43 5.635-.068 10.206-6.653 10.206-14.708 0-8.056-4.571-14.505-10.228-14.437z" fill="#00699B"/><path d="M504.363 162.848c.792 0 4.707-.294 5.454-.068-6.495-.023-11.065 7.807-11.065 14.708 0 6.925 2.534 14.528 11.087 14.414-.746.249-4.661.068-5.453.068-5.634.068-10.228-6.381-10.228-14.437 0-8.033 4.571-14.617 10.205-14.685z" fill="#00699B"/><path d="M508.981 192.015c6.019-.09 10.929-6.743 10.929-14.867 0-8.123-4.91-14.64-10.952-14.572-6.019.09-10.929 6.743-10.929 14.866 0 8.124 4.91 14.664 10.952 14.573zm-.136-27.154c4.82-.068 8.734 5.408 8.734 12.174 0 6.789-3.914 12.355-8.734 12.423-4.82.068-8.735-5.408-8.735-12.174.023-6.788 3.938-12.355 8.735-12.423z" fill="#0094DA"/><path d="M518.393 177.511c0-6.97-4.209-12.65-9.368-12.65-5.159 0-9.346 5.68-9.346 12.65 0 6.969 4.187 12.649 9.346 12.649s9.368-5.68 9.368-12.649zm-1.629 0c0 6.109-3.462 11.065-7.739 11.065-4.254 0-7.739-4.978-7.739-11.065 0-6.11 3.462-11.066 7.739-11.066 4.277 0 7.739 4.956 7.739 11.066z" fill="#12BAED"/><path d="M482.415 172.442l-1.29 4.457 26.973 3.689c.249.022.475.022.702 0a3.703 3.703 0 0 0 1.289-.385c.973-.498 1.652-1.403 1.946-2.557.295-1.177.136-2.466-.452-3.643-.883-1.742-2.58-2.829-4.299-2.783l-24.869 1.222zm-.792-1.041l25.615-1.268c2.059-.067 4.186 1.2 5.295 3.372 1.494 2.897.634 6.313-1.923 7.648a4.803 4.803 0 0 1-1.652.498c-.317.023-.611.046-.928 0l-28.262-3.847 1.855-6.403z" fill="#00699B"/><path d="M502.373 165.404l-1.606-3.146-.114-.249 6.178 12.401-27.358 3.824.227 1.244 29.846-3.824-6.539-13.871" fill="#00699B"/><path d="M502.667 177.058c.113 4.118 2.579 7.354 5.521 7.264 2.942-.091 5.227-3.44 5.114-7.513-.113-4.05-2.579-7.331-5.521-7.286-2.919.045-5.227 3.417-5.114 7.535z" fill="#00699B"/><path d="M503.595 177.035c.09 3.462 2.127 6.2 4.571 6.109 2.444-.09 4.322-2.919 4.231-6.335-.09-3.417-2.149-6.178-4.571-6.133-2.444.046-4.322 2.897-4.231 6.359z" stroke="#04BAEE" stroke-width="2.657" stroke-miterlimit="10"/><path d="M444.851 179.072l10.251-25.412-2.24-1.335L442 180.656l2.851-1.584z" fill="#0094DA"/><path d="M447.544 169.048l-4.707 11.857-.814-.113 5.023-14.301.498 2.557z" fill="#04BAEE"/><path d="M446.549 166.898l3.485.996.633-1.788-3.484-.996-.634 1.788z" fill="#0094DA"/><path d="M485.153 155.335s-11.314-6.404-13.283-4.005c-4.933 6.064-1.358 12.196-1.358 12.196l8.169 2.014 6.675-10.002-.203-.203z" fill="#626E97"/><path d="M458.292 132.705l-4.39-.746c-1.561-.272-3.032.724-3.303 2.217-.272 1.494.746 2.919 2.308 3.168l4.706.815c.385-.407.679-.883.883-1.403.543-1.29.453-2.829-.204-4.051z" fill="#796188"/><path d="M458.406 132.841a678.924 678.924 0 0 0 5.363 3.145 632.601 632.601 0 0 1 7.331-4.457c1.222-.747 2.308.181 2.422 2.013.09 1.856-.815 3.938-2.06 4.684a538.33 538.33 0 0 0-8.146 5.001c-.43.272-.86.34-1.222.227-.09-.023-.158-.068-.226-.091-2.082-1.177-4.141-2.353-6.223-3.53 1.29-1.788 2.489-4.571 2.761-6.992z" fill="#796188"/><path d="M483.342 158.751c-.452-1.154-.113-2.444.837-3.281 2.603-2.218 5.228-4.413 7.83-6.585l2.308-1.901c1.312-1.063 3.304-.928 4.503.294 1.177 1.222 1.086 3.078-.226 4.164l-3.055 2.512c-1.833 1.516-3.643 3.054-5.476 4.593.656 4.119 1.335 8.237 1.991 12.333-2.059.565-1.516.248-3.643.656-1.697-4.209-3.372-8.486-5.069-12.785z" fill="#455B8C"/><path d="M490.946 174.003s.815 3.327.452 4.073c-.339.747-4.457 3.938-7.761 4.096-3.304.158-1.991-2.919-.566-4.616 1.426-1.697.679-.77.679-.77-.498-1.493-.996-3.009-1.493-4.503 2.398-.905 4.819-1.787 7.218-2.67.498 1.471.996 2.942 1.471 4.39z" fill="#fff"/><path d="M468.34 140.242c2.512-3.1 4.956-6.268 7.762-9.074-.656 1.629.452 3.621 1.561 4.775-2.444 3.281-4.028 6.154-6.766 9.549-.701-1.494-1.697-3.281-2.557-5.25z" fill="#796188"/><path d="M476.102 131.168a43.44 43.44 0 0 1 2.376-2.218c1.199.226 2.557.679 3.801 1.607-1.538 1.425-3.484 3.869-4.729 5.544-1.109-1.154-2.15-2.987-1.448-4.933z" fill="#6C567C"/><path d="M476.983 128.771c.453.023.95.068 1.494.159-3.87 3.304-6.947 7.354-10.138 11.291-.792-1.832-1.425-3.846-1.539-5.973 3.236.678 8.486-2.738 10.183-5.477z" fill="#796188"/><path d="M475.309 128.837s.679-.113 1.697-.068c-2.104 3.327-5.928 6.427-10.16 5.499-.022-.294-.022-.566-.022-.86.045-3.53 4.073-4.231 8.485-4.571z" fill="#F7C6A5"/><path d="M471.666 147.483c-.136-.589-.498-1.381-.838-2.105 4.119-5.136 6.879-10.567 11.428-14.821 1.493 1.131 2.828 2.919 3.462 5.815 1.109 5.069 3.1 9.368 3.303 12.717-5.227.453-11.947 1.584-15.839 1.969a13.145 13.145 0 0 1-1.516-3.575z" fill="#796188"/><path d="M489.045 149.067c.09 1.38-.136 2.602-.815 3.643-.588.882-2.941 1.403-4.073 2.082-2.534 1.516-4.978 1.312-7.037.135-1.561-.882-2.919-2.308-3.892-3.914 5.136-1.358 10.477-2.037 15.817-1.946z" fill="#626E97"/><path d="M475.74 150.425c.543-.113 1.109-.227 1.652-.34 0-.022-1.041-3.394-3.033-8.191-1.946-4.707-2.353-8.011-2.398-8.35-.521.271-1.222.407-1.743.679.023.136.476 3.417 2.49 8.372 1.968 4.82 3.009 7.807 3.032 7.83z" fill="#6C567C"/><path d="M483.252 159c8.961-1.2 17.899-2.309 26.86-3.349a2.969 2.969 0 0 1 3.281 2.579 2.981 2.981 0 0 1-2.602 3.281c-5.25.657-10.522 1.335-15.772 2.037-1.358 1.674-2.331 4.254-2.037 8.146.815 10.386-.928 9.345-4.729 10.183-3.802.837-16.451 2.421-17.809 2.263-1.335-.181-6.697 1.335-7.422-1.109-.724-2.354-14.979-25.095-14.979-25.163 9.39.769 25.796.362 35.209 1.132zm-17.062 15.749l2.376-10.59-9.232.565 6.856 10.025z" fill="#00699B"/><path d="M474.834 115.508s2.127 1.471 2.874 3.983c.747 2.512 1.041 7.263.022 8.553-1.018 1.29-10.205 5.952-12.106 5.386-1.878-.589-3.009-2.127-3.236-2.965-.226-.837-.135-1.584-.135-1.584s-.566-2.149-.611-4.344c-.023-2.195.203-2.648.203-2.648s.385-3.937 3.463-6.245c4.231-3.145 9.526-.136 9.526-.136z" fill="#27365C"/><path d="M466.801 133.408c-.498.091-.905.113-1.154.046-1.878-.589-3.009-2.127-3.236-2.965-.226-.837-.135-1.584-.135-1.584s-.566-2.149-.611-4.344c-.023-2.195.203-2.648.203-2.648s.385-3.937 3.462-6.245c1.268-.951 2.625-1.335 3.915-1.426-1.697.973-3.824 2.716-4.367 5.386-.951 4.661-.068 9.096 1.063 11.789.385.928.657 1.561.86 1.991z" fill="#314474"/><path d="M461.869 121.913s0-.09.022-.226c1.154.023 3.168-.022 5.974-.498 3.44-.588 4.978-1.063 5.635-1.312 1.968.566 3.281 2.761 1.878 4.842-.815 1.087-1.154 1.652-3.462 2.603-2.173 1.018-6.676 3.349-9.685 1.719v-.135s-.566-2.15-.611-4.345c0-2.172.249-2.648.249-2.648z" fill="#D0E2E5"/><path d="M489.271 178.756c-.362.565-.181 1.335.384 1.697.566.362 1.335.181 1.697-.385l1.358-2.127c.362-.566.181-1.335-.385-1.697-.565-.362-1.335-.181-1.697.385l-1.357 2.127z" fill="#04BAEE"/><path d="M473.114 187.943c7.784-1.584 17.062-5.047 17.175-5.092l-.634-1.923c-.09.045-9.209 3.462-16.858 5.001-1.697.339-3.914-.34-5.136-2.399-1.267-2.172-2.738-5.589-3.53-7.829-.702-1.946-.724-2.784-.679-3.055l1.878-1.041-.905-1.788-2.014 1.109c-.204.091-.475.294-.656.679-.453.928-.272 2.444.588 4.797.86 2.421 2.354 5.884 3.711 8.169 2.014 3.575 5.295 3.734 7.06 3.372z" fill="#5BC4F1"/><path d="M464.38 181.493c1.335 2.014 1.946 3.666 4.231 5.069 2.286 1.403 4.617.294 9.165-.837 4.186-1.041 11.088-3.53 12.151-3.915l.34 1.041c-.091.045-9.391 3.507-17.175 5.091-1.743.362-5.046.204-7.128-3.349a38.723 38.723 0 0 1-1.584-3.1z" fill="#04BAEE"/><path d="M488.367 180.316l1.132-.86 22.673-8.667-1.629 7.535-19.867 6.223-1.539-.158c-.385.067-.86-.77-1.064-1.901-.226-1.132-.09-2.105.294-2.172z" fill="#04BAEE"/><path d="M511.853 171.627l-22.221 8.508s-.158.611.023.951l21.044-6.902 1.154-2.557z" fill="#5BC4F1"/><path d="M510.473 174.32c-.475 2.081-.452 3.869.068 4.005.521.136 1.358-1.448 1.833-3.53.475-2.082.453-3.87-.068-4.005-.068-.023-.136 0-.203.022-.543.249-1.222 1.675-1.63 3.508z" fill="#00699B"/><path d="M468.34 176.742s.928-.091 3.078-.679c2.014-.566 2.851-1.041 2.851-1.041.633-.407.973-.86.814-1.313l-2.421-6.652c-.339-.996-.679-1.313-1.335-1.132 0 0-2.082.317-4.39.996-2.421.701-3.643 1.199-3.643 1.199-1.063.475-.86 1.2-.611 1.697l3.394 6.449c.362.747 1.245.566 2.263.476z" fill="#04BAEE"/><path d="M471.078 166.174c.294-.158.634-.203.973-.203.226.158.43.497.611 1.041l2.421 6.652a.656.656 0 0 1 .023.294c-2.444 2.716-3.508-2.059-5.046-5.227-1.041-2.217.136-2.059 1.018-2.557z" fill="#5BC4F1"/><path d="M472.412 166.422c.068.136.136.317.227.498l-9.866 3.009-.091-.158-.136-.34 9.866-3.009zM473.001 167.938l-9.73 2.965-.249-.475 9.798-3.01.181.52zM473.363 168.956l-9.571 2.919-.272-.475 9.662-2.964.181.52zM473.748 169.976l-9.459 2.873-.248-.475 9.526-2.919.181.521zM474.11 170.97l-9.3 2.852-.249-.476 9.368-2.873.181.497zM474.495 171.989l-9.165 2.806-.271-.475 9.232-2.829.204.498zM474.856 173.009l-9.028 2.76-.249-.475 9.096-2.783.181.498zM475.038 173.527l.068.159a.74.74 0 0 1 .022.384l-8.576 2.625a1.025 1.025 0 0 1-.452-.43l8.938-2.738z" fill="#00699B"/><path d="M463.746 146.622a.883.883 0 0 0 .996-.497c.973-2.195 2.331-3.553 4.073-4.096 2.399-.724 4.73.384 4.752.384a.914.914 0 0 0 1.177-.384.84.84 0 0 0-.385-1.154c-.113-.068-2.964-1.426-6.042-.498-2.24.679-3.982 2.399-5.182 5.069-.203.43 0 .95.453 1.131a.41.41 0 0 0 .158.045z" fill="#5BC4F1"/><path d="M471.371 140.944a1.71 1.71 0 0 0 1.313 2.036l7.083 1.516c.927.204 1.878-.384 2.081-1.312a1.708 1.708 0 0 0-1.312-2.037l-7.083-1.516c-.95-.204-1.878.385-2.082 1.313z" fill="#00699B"/><path d="M458.609 143.002c-.362-.113-.543-.452-.384-.792.882-1.946.882-3.507-.046-4.616-1.267-1.561-3.869-1.81-3.892-1.81-.475-.046-.746-.408-.588-.792.158-.385.679-.679 1.154-.634.136.023 3.326.317 4.956 2.308 1.199 1.471 1.244 3.394.158 5.77-.181.385-.701.657-1.177.589-.068 0-.135 0-.181-.023z" fill="#5BC4F1"/><path d="M457.139 135.4c-.227.701-1.087 1.131-1.924.95l-6.245-1.403c-.837-.181-1.313-.905-1.086-1.629.226-.702 1.086-1.131 1.923-.95l6.245 1.403c.838.181 1.313.905 1.087 1.629z" fill="#00699B"/><path d="M494.543 161.942c.521-.792 1.539-1.72 4.277-3.281 2.489-1.426 5.974-2.693 10.228-2.467 2.851.159 5.566.657 7.558 1.516 2.534 1.087 3.869 2.784 2.783 5.137-.294.611-.588.996-.928 1.29 0 0-.475.384-1.131.565-1.765.476-5.454-2.127-9.165-2.262-3.326-.113-7.376 1.878-7.965 2.081-.701.249-1.425.453-2.127.725-1.109.43-2.715 1.719-3.598.248-.724-1.244-.294-2.986.068-3.552zM438.267 164.523s13.441-3.44 19.777 5.951c0 0 1.335 3.485 3.666 2.738 2.331-.747.905-5.725.136-7.445-1.358-3.009-7.92-6.426-13.305-6.743-5.386-.339-11.609 1.969-13.306 3.123-1.697 1.154-.656 3.688 3.032 2.376z" fill="#5BC4F1"/><path d="M454.876 133.927c-.181 1.109-1.357 1.924-2.625 1.81l-2.624-.248c-1.268-.114-2.15-1.109-1.969-2.218.181-1.109 1.358-1.923 2.625-1.81l2.625.249c1.267.113 2.149 1.108 1.968 2.217z" fill="#F7C6A5"/><path d="M486.125 171.061s6.291-1.335 6.494 2.535c.181 3.801.181 6.653-6.675 7.15-6.856.498-9.277-.724-10.296-2.104-.565-.769-1.652-3.236 2.059-4.956 3.87-1.787 5.205-1.968 8.418-2.625z" fill="#04BAEE"/><path d="M476.35 175.904a1.863 1.863 0 0 1 .272-1.629c.317-.204.679-.43 1.109-.634 3.847-1.787 5.182-1.946 8.395-2.624 0 0 2.082-.43 3.96-.068 1.018 1.041.995 2.104.86 2.964-.408 2.466-.385 4.232-6.246 4.616-4.005.294-7.558-.294-8.35-2.625z" fill="#5BC4F1"/><path d="M490.56 167.056s-.068 3.009-.52 3.711c-.453.701-.294.747-4.571 1.425-2.534.408-3.96.34-4.978.046a1.917 1.917 0 0 1-1.222-1.064l-1.494-3.349c-.384-.86.113-1.855 1.064-2.195 1.539-.52 3.869-1.086 6.132-1.267 4.82-.385 5.635-.882 5.589 2.693z" fill="#5BC4F1"/><path d="M478.976 167.259c1.244-1.312 8.304-2.127 9.956-1.855 1.652.271 1.584 2.896 1.584 2.896-.068.928-.203 2.059-.452 2.467-.453.701-.295.746-4.571 1.425-2.535.407-3.96.34-4.978.045a1.912 1.912 0 0 1-1.222-1.063l-.838-1.924c-.09-.678 0-1.448.521-1.991zM479.246 160.29s-5.476 3.259-10.183 3.802c-4.707.52-9.164.203-10.635-1.086-1.471-1.29-3.1-5.522-1.924-7.943 1.177-2.421 2.919-4.254 7.83-3.869 4.91.384 10.816 2.127 14.007 4.457 3.213 2.309 2.33 3.87.905 4.639z" fill="#04BAEE"/><path d="M510.587 150.108l-12.74 2.195a3.769 3.769 0 0 0-.701.135l-16.383 4.277c-.475.158-.905.43-1.245.792l-.701.747c-1.403 1.493-.702 3.824 1.312 4.344l2.399.634c.339.09.724.113 1.086.068l16.745-1.924c.136-.022.294-.045.43-.09l9.459-3.937c.52-.136.995-.408 1.357-.792l1.494-1.584c.882-.928.995-2.331.226-3.349l-.294-.385c-.543-.769-1.471-1.199-2.444-1.131z" fill="#5BC4F1"/><path d="M513.687 153.797s.52-.362 1.131.113c.475.362.453 1.086.068 1.584s-1.629 1.788-2.104 2.263c-.476.475-.543.498-2.648 1.403-2.15.928-7.558 3.281-8.576 3.553-1.018.248-.634.339-3.01.656s-6.041.792-6.041.792l-.204-1.403 19.211-7.151 2.173-1.81z" fill="#00699B"/><path d="M478.092 160.177c-.022-.339.249-.633.611-.656 1.471-.091 3.463.249 4.911.475 2.828.43 11.404-1.109 17.718-2.942 11.382-3.281 8.349-3.416 9.639-4.322.204-.135.951-.611 1.177-1.38.158-.52.113-.928.52-.566.136.136.521.566.679.815.928 1.494.521 2.557-.588 3.711l-1.154 1.222a2.846 2.846 0 0 1-1.358.792s-9.798 3.983-9.979 4.028c-2.15.565-16.518 1.901-16.518 1.901a3.784 3.784 0 0 1-1.336-.091l-2.285-.588c-1.245-.317-1.969-1.335-2.037-2.399z" fill="#04BAEE"/><path d="M457.659 162.056c-1.177-1.81-2.104-5.001-1.131-6.992 1.176-2.421 3.1-6.019 10.205-4.232 19.189 4.798 8.101 4.141 11.292 6.472.316.249.611.475.837.679 0 0-15.863-6.54-19.551-3.281-3.711 3.258-1.652 7.354-1.652 7.354z" fill="#5BC4F1"/><path d="M465.987 143.07c-.34.814-1.041 1.335-1.562 1.199l-8.214-2.308c-.52-.158-.679-.928-.339-1.72.339-.814 1.041-1.335 1.561-1.199l8.214 2.308c.521.136.679.905.34 1.72z" fill="#0094DA"/><path d="M492.506 173.053s1.358.905.747 2.059c-.769 1.426-1.878 2.964-3.869 5.205-1.2 1.335-2.422 2.421-3.327 2.421-.633 0-1.086-.611-1.335-1.516-.249-.928-.294-2.173-.113-3.395 1.267-3.122 4.209-4.231 5.363-6.901.837.701 1.697 1.425 2.534 2.127z" fill="#27365C"/><path d="M472.391 166.354c1.946-4.797 6.969-14.21 6.969-14.21l7.716-1.765c.43 6.562-4.82 13.781-10.884 17.243 4.028-.408 8.78.271 11.993 3.326-.181.317-.588 2.783-2.399 4.956-4.503-2.037-14.572-6.63-13.395-9.55z" fill="#626E97"/><path d="M476.192 167.623c6.064-3.462 11.291-10.704 10.884-17.243l1.222-.272s1.561 1.698 0 5.047c-1.561 3.348-7.626 11.336-7.626 11.336l7.784 3.734 1.494.724s.611 3.168-.43 4.209c-1.041 1.041-4.119 1.833-4.119 1.833s2.58-5.703 2.761-6.019c-3.19-3.078-7.942-3.757-11.97-3.349z" fill="#495584"/><path d="M494.77 143.999c-1.199-.227-2.421-.476-3.621-.702.363-1.244.747-2.489 1.109-3.734.838 1.471 1.675 2.965 2.512 4.436z" fill="#3D507B"/><path d="M500.54 120.713s-.023 5.906 1.697 6.223c1.697.339 2.444-1.697 4.978-1.086 2.535.611 3.417 1.267 3.236 2.104-.204.837-1.923-.113-2.331.272-.407.384 3.485.769 3.417 2.511-.068 1.765-3.711-.837-4.028.43-.316 1.268.611 1.494-.271 2.603-.883 1.108-16.903-.86-16.858-5.047.045-4.14-.091-12.128-.091-12.128s.634-1.245 2.082-1.992c1.199-.61 2.987-.882 5.431.159 2.353 1.063 2.738 5.951 2.738 5.951z" fill="#63413F"/><path d="M490.38 131.46c.135-.068.271-.136.384-.181.34-.159.656-.317.973-.453 3.304-1.425 5.68-1.584 7.4-1.29l.339.068c2.467.589 3.326 2.173 3.326 2.173s-1.04 10.024-1.108 13.396c0 .429.113 1.221.271 1.991.951 1.267 1.403 3.055.792 4.344-1.154 2.467-3.236 2.535-3.236 2.512-1.674 2.535-3.349 5.092-5.046 7.671 2.693 1.629 4.707 3.462 7.4 5.046-.86 1.607-.385 2.308-1.245 3.938-3.462-1.901-7.558-3.123-11.02-5.046-.792-.476-2.217-1.29-2.466-2.784-.159-.928.045-2.421.588-3.213 1.652-2.444 3.281-4.865 4.933-7.286.158-.227.317-.453.453-.679 0 0 .226-2.263.339-2.806.52-2.851.724-2.987.294-5.951-.339-2.354-4.774-3.643-4.978-5.205-.453-3.485 1.607-6.245 1.607-6.245z" fill="#455B8C"/><path d="M492.416 158.411s.77-1.154 1.2-1.81c.633-.995 1.312-2.014 1.991-3.1a86.504 86.504 0 0 1 1.923-2.919c1.177-1.697 1.245-1.81 1.2-3.145-.068-2.15.045-3.349.045-3.734l1.245.136c0 .09-.114 1.471-.046 3.575.068 1.743-.226 2.15-1.425 3.892a80.662 80.662 0 0 0-1.901 2.874c-.679 1.086-1.358 2.104-2.014 3.1-.362.566-.769 1.177-1.131 1.765-.611.928-1.222 1.969-1.132 2.24.181.634 5.816 4.119 8.237 5.431-.226.362-.249.136-.475.498-1.29-.702-8.554-4.096-8.984-5.544-.113-.385-.068-.815.136-1.335.226-.521.611-1.154 1.131-1.924z" fill="#626E97"/><path d="M498.277 170.222c.86-1.403 1.72-2.783 2.58-4.163.883.52 1.742 1.018 2.625 1.538 0 0 1.833 1.29 1.969 1.765.045.181-.023 1.267-.77 2.851-.384.792-.882 1.607-1.538 2.128-1.652 1.38-2.263-.589-2.241-1.946 0-.317 0-.521.023-.657-.883-.498-1.765-.995-2.648-1.516z" fill="#BF69A9"/><path d="M498.73 128.724c.09 1.108.181 2.217.294 3.326.113 1.245-1.131 2.308-2.738 2.376-1.629.09-3.032-.86-3.145-2.104-.068-.906-.159-1.833-.227-2.738 2.037 1.154 4.436 1.244 5.816-.86z" fill="#455B8C"/><path d="M492.915 129.582c-.113-1.448-.249-2.873-.362-4.322-.113-1.244 1.131-2.308 2.738-2.376 1.629-.045 3.032.905 3.123 2.15.113 1.222.203 2.444.316 3.688-1.38 2.105-3.778 2.014-5.815.86z" fill="#F7C6A5"/><path d="M489.701 122.342c.317 3.779 3.326 6.675 5.317 6.63 2.625-.068 4.481-3.213 4.164-6.947-.317-3.734-2.693-6.721-5.318-6.653-2.624.045-4.48 3.168-4.163 6.97z" fill="#A9A9A9"/><path d="M516.605 123.542c.34-1.267 1.698-1.991 3.055-1.584 1.358.408 2.195 1.743 1.856 3.01-.113.43-.543 1.991-1.29 3.96-1.72-.34-3.259-1.177-4.594-2.331a25.74 25.74 0 0 0 .973-3.055z" fill="#F7C6A5"/><path d="M500.336 130.512c1.109-.77 2.693-.498 3.53.633.475.611 3.032 3.507 7.173 1.629 2.376-1.086 3.825-3.96 5.182-7.648 1.313 1.154 2.874 1.969 4.616 2.308-1.448 3.847-3.416 7.92-7.467 9.775-2.353 1.087-4.548 1.29-6.449.973-3.372-.52-5.883-2.624-7.06-4.186-.86-1.154-.634-2.715.475-3.484z" fill="#BF69A9"/><path d="M504.228 135.557s.656 5.612.339 6.472c-.316.837-2.919 2.059-2.919 2.059-1.335-.136-2.67-.249-3.982-.385 0 0-.679-6.992.181-10.726.86-3.733.882-4.865.882-4.865.498.113.996.227 1.516.34 0 .294-.022.588-.022.86 0 0 .724.249 2.127 1.47 1.38 1.2 1.878 4.775 1.878 4.775zM491.76 129.221s.204.838.701 3.44c.498 2.602.34 10.952.34 10.952l-1.765-.679s-.679-.022-.566-1.335c.091-1.312-2.331-3.847-2.15-5.951.181-2.105-.045-4.413.453-4.82.52-.407 1.923-.882 1.923-.882-.113-.408-.226-.815-.316-1.222.452.135.927.316 1.38.497z" fill="#BF69A9"/><path d="M502.803 143.478c-1.742-.204-3.462-.385-5.205-.588 0 .565-.022 1.108-.022 1.674 0 0 4.933.588 4.933.566 0 0 .249-.317.384-.702.068-.294.091-.633-.09-.95zM492.823 142.232l.136 1.811c-.815-.272-1.652-.521-2.467-.792 0 0-.203-.521-.203-1.019 0-.52.181-.656.181-.656.769.226 1.561.453 2.353.656z" fill="#ECA5E1"/><path d="M504.296 137.436s-1.72-.769-2.602-1.607l-.86-.837s.384 1.516 1.719 2.693c1.313 1.177 2.014 1.29 2.014 1.29-.09-.521-.181-1.041-.271-1.539z" fill="#9C5789"/><path d="M503.029 161.263l-2.127.746 1.448 3.485 2.286-.317-1.607-3.914z" fill="#00699B"/><path d="M489.543 175.112c-1.041 1.018-4.322 1.584-4.322 1.584s2.783-5.431 2.964-5.748c-.022-.022 1.675 1.946 1.969 1.788 0 0 .407 1.358-.611 2.376z" fill="#626E97"/><path d="M440.258 182.421c-.317 4.865 2.037 9.029 5.25 9.3 3.213.272 6.042-3.462 6.358-8.327.317-4.865-2.036-9.028-5.249-9.3-3.214-.272-6.065 3.462-6.359 8.327z" fill="#00699B"/><path d="M448.337 164.409c-1.018-.09-4.39-.113-5.363.114 8.373.543 11.971 10.318 11.382 19.234-.588 8.915-4.186 17.582-15.183 16.677.927.384 5.702 1.403 6.72 1.493 7.264.588 13.69-7.331 14.369-17.673.679-10.363-4.661-19.256-11.925-19.845z" fill="#00699B"/><path d="M442.454 163.911c1.018-.068 6.087.181 7.014.565-8.35-.814-14.889 8.69-15.477 17.582-.589 8.916 2.036 19.031 13.033 19.936-.973.226-6.019-.34-7.014-.566-9.255-2.263-12.604-9.481-11.925-19.845.656-10.341 6.539-17.129 14.369-17.672z" fill="#00699B"/><path d="M458.362 182.602c0-8.87-5.25-16.088-11.676-16.088-6.449 0-11.677 7.218-11.677 16.088 0 8.871 5.25 16.089 11.677 16.089 6.449.023 11.676-7.196 11.676-16.089zm-2.014 0c0 7.762-4.322 14.098-9.662 14.098-5.318 0-9.663-6.314-9.663-14.098 0-7.761 4.322-14.097 9.663-14.097 5.317.023 9.662 6.336 9.662 14.097z" fill="#12BAED"/><path d="M445.916 202.062c7.761.633 14.617-7.355 15.296-17.809.679-10.454-5.091-19.46-12.83-20.094-7.761-.633-14.618 7.354-15.297 17.809-.701 10.431 5.069 19.46 12.831 20.094zm1.968-35.119c6.155.497 10.681 7.965 10.138 16.631-.566 8.667-6.019 15.297-12.174 14.799-6.155-.498-10.681-7.965-10.138-16.632.566-8.666 6.019-15.296 12.174-14.798z" fill="#0094DA"/><path d="M442.317 182.668c-.203 3.191 1.494 5.929 3.825 6.11 2.308.181 4.367-2.24 4.57-5.431.204-3.191-1.493-5.929-3.824-6.11-2.33-.203-4.367 2.241-4.571 5.431z" stroke="#04BAEE" stroke-width="2.929" stroke-miterlimit="10"/><path d="M444.806 182.76c.159 1.765 1.132 3.055 2.127 2.874 1.018-.158 1.697-1.72 1.516-3.462-.158-1.742-1.131-3.032-2.127-2.874-1.018.136-1.697 1.697-1.516 3.462z" fill="#04BAEE"/><path d="M448.405 182.511l12.649-29.892-2.15-1.629-12.898 30.548 2.399.973z" fill="#0094DA"/><path d="M453.745 165.652l-6.879 16.224-.86-.339 6.834-16.18.905.295z" fill="#04BAEE"/><path d="M452.432 165.246l3.417 1.267.815-2.104-3.417-1.267-.815 2.104z" fill="#0094DA"/><path d="M462.841 142.844l-5.635-1.087c-1.742-.339-3.756.77-4.48 2.489l-2.399 5.658c-.724 1.719 2.399 3.982 2.376 4.05 0 0 4.481.679 4.481.611l.633.113c1.743.339 3.757-.769 4.481-2.489l2.398-5.657c.724-1.697-.113-3.349-1.855-3.688z" fill="#00699B"/><path d="M453.704 151.758c-2.478-1.19-3.399-4.42-2.058-7.214 1.342-2.793 4.439-4.093 6.917-2.903 2.478 1.19 3.4 4.42 2.058 7.213-1.342 2.794-4.438 4.094-6.917 2.904z" fill="#0094DA"/><path d="M453.316 150.584c-2.084-1.001-2.782-3.876-1.559-6.422 1.222-2.546 3.903-3.798 5.987-2.797 2.084 1 2.782 3.876 1.56 6.422-1.223 2.545-3.904 3.798-5.988 2.797z" fill="#00699B"/><path d="M452.868 149.561c-1.645-.79-2.123-3.211-1.068-5.408 1.055-2.196 3.244-3.337 4.889-2.547 1.644.79 2.122 3.211 1.067 5.408-1.055 2.196-3.243 3.337-4.888 2.547z" fill="#5BC4F1"/><path d="M477.368 128.883c.951-1.086 2.512-1.494 3.96-.905 4.005 1.629 8.033 3.235 12.038 4.819a3.79 3.79 0 0 1 2.354 3.055 3.538 3.538 0 0 1-1.675 3.372 930.966 930.966 0 0 0-6.358 3.824c-.385-1.697-2.218-2.67-3.214-3.869a7.455 7.455 0 0 0-2.308-1.313c.589-.362 1.2-.724 1.788-1.086-1.358-.543-2.715-1.064-4.073-1.607 1.584-1.063 3.168-2.33 4.752-3.258-2.625-.294-5.182-1.448-7.264-3.032z" fill="#796188"/><path d="M476.689 130.014c.158-.43.385-.814.679-1.131.701.158 4.729 1.539 7.241 3.032-1.561.95-3.168 2.195-4.752 3.258-.339-.135-.679-.271-1.041-.407-1.855-.724-2.806-2.874-2.127-4.752z" fill="#796188"/><path d="M489.453 134.676l-5.703 2.036-1.629-.633 7.332-1.403z" fill="#6C567C"/><path d="M480.468 138.906c.566-.339 1.109-.679 1.675-1.018a7.71 7.71 0 0 1 2.308 1.312c.973 1.199 2.828 2.195 3.213 3.87-1.131.678-2.263 1.38-3.394 2.081a3.551 3.551 0 0 1-2.218.521 3.65 3.65 0 0 1-2.76-1.743c-1.041-1.742-.521-3.982 1.176-5.023z" fill="#F7C6A5"/><path d="M489.362 115.87s-1.584 1.471-1.856 3.666c-.271 2.195.181 6.223 1.222 7.196 1.064.973 9.549 3.666 11.065 2.941 1.516-.746 2.241-2.149 2.308-2.873.068-.724-.113-1.313-.113-1.313s.181-1.833-.113-3.643c-.294-1.788-.566-2.15-.566-2.15s-.882-3.168-3.846-4.752c-4.006-2.127-8.101.928-8.101.928z" fill="#27365C"/><path d="M502.191 125.239s.86.272.95 1.177c.091.905-1.267 3.168-1.901 3.507-.633.34-1.131.611-2.398.181-1.245-.43-3.666-.95-3.666-.95s2.942.385 3.394-.091c.475-.475 0-2.624 0-2.624s1.471.067 2.58-.136c.837-.181 1.426-.475 1.041-1.064z" fill="#C7C6C6"/><path d="M501.264 119.514c.045.113.068.181.068.181s.271.339.565 2.149c.295 1.788.453 3.395.453 3.395s.181.52-.204.701c-1.335.656-3.303.566-5.114.272-.135-2.105-.045-4.254.023-6.382 1.946 0 3.372-.181 4.209-.316z" fill="#D0E2E5"/><path d="M491.534 120.894c.566-.86 1.72-1.403 3.259-1.131.407.022.837.045 1.312.045h.905c.249 1.245.317 4.186-.023 6.381a26.761 26.761 0 0 1-3.235-.747c-1.087-.52-1.788-1.176-2.195-1.855-.543-.95-.498-1.946-.023-2.693z" fill="#D0E2E5"/><path d="M496.06 114.061s3.711.882 5.928 2.285c2.218 1.426 2.308 2.399 1.697 3.168-.588.77-6.132.362-7.58.294-1.448-.067-1.448-.045-1.448-.045s4.254-.452 3.303-1.652c-.973-1.199-2.602-2.195-4.186-2.625-1.584-.43-3.349-.248-3.349-.248s.702-.43 1.81-.77c1.019-.339 2.376-.588 3.825-.407z" fill="#C7C6C6"/><path d="M502.191 125.239s.86.272.95 1.177c.091.905-1.267 3.168-1.901 3.507-.633.34-1.131.611-2.398.181-1.245-.43-3.666-.95-3.666-.95s2.942.385 3.394-.091c.475-.475 0-2.624 0-2.624s1.471.067 2.58-.136c.837-.181 1.426-.475 1.041-1.064zM496.06 114.061s3.711.882 5.928 2.285c2.218 1.426 2.308 2.399 1.697 3.168-.588.77-6.132.362-7.58.294-1.448-.067-1.448-.045-1.448-.045s4.254-.452 3.303-1.652c-.973-1.199-2.602-2.195-4.186-2.625-1.584-.43-3.349-.248-3.349-.248s.702-.43 1.81-.77c1.019-.339 2.376-.588 3.825-.407z" fill="#314474"/><path d="M824.939 199.753c39.073 0 70.747-2.394 70.747-5.346s-31.674-5.345-70.747-5.345-70.747 2.393-70.747 5.345 31.674 5.346 70.747 5.346z" fill="#0032A5"/><path opacity=".7" d="M874.448 131.191v-4.264l-8.509-15.459-3.402-4.212-6.566-1.805h-62.132l-6.102 1.461-2.751 1.804-5.499 9.2-4.655 8.938.788 4.86 98.828-.523z" fill="#5BC4F1"/><path d="M797.413 127.201h-8.192c-2.53 0-4.6-2.07-4.6-4.601a4.614 4.614 0 0 1 4.6-4.602h8.192a4.614 4.614 0 0 1 4.601 4.602 4.614 4.614 0 0 1-4.601 4.601z" fill="#0082C8"/><path d="M800.784 134.545h-14.93a4.614 4.614 0 0 1-4.601-4.602 4.614 4.614 0 0 1 4.601-4.601h14.93c2.531 0 4.6 2.07 4.6 4.601a4.613 4.613 0 0 1-4.6 4.602z" fill="#0082C8"/><path d="M839.848 129.491h-32.863c-2.531 0-4.6-2.07-4.6-4.601a4.613 4.613 0 0 1 4.6-4.602h32.863a4.614 4.614 0 0 1 4.601 4.602 4.614 4.614 0 0 1-4.601 4.601z" fill="#0082C8"/><path d="M843.219 136.834h-39.602c-2.53 0-4.6-2.07-4.6-4.601a4.614 4.614 0 0 1 4.6-4.602h39.602a4.614 4.614 0 0 1 4.601 4.602 4.614 4.614 0 0 1-4.601 4.601z" fill="#0082C8"/><path d="M866.421 141.295h-83.832c-5.358 0-9.738-3.748-9.738-8.325 0-4.578 4.383-8.325 9.738-8.325h83.835c5.358 0 9.738 3.747 9.738 8.325 0 4.577-4.383 8.325-9.741 8.325z" fill="#0082C8"/><path d="M858.381 127.201h-8.192c-2.531 0-4.6-2.07-4.6-4.601a4.613 4.613 0 0 1 4.6-4.602h8.192c2.531 0 4.6 2.07 4.6 4.602a4.613 4.613 0 0 1-4.6 4.601z" fill="#0082C8"/><path d="M861.752 134.545h-14.93a4.614 4.614 0 0 1-4.601-4.602 4.614 4.614 0 0 1 4.601-4.601h14.93c2.531 0 4.6 2.07 4.6 4.601a4.616 4.616 0 0 1-4.6 4.602z" fill="#0082C8"/><path d="M796.552 119.934h-4.132v6.451h4.132v-6.451z" fill="#A96644"/><path d="M796.552 122.81v-2.876h-4.132v3.471c.806.1 2.621.183 4.132-.595z" fill="#914627"/><path d="M789.603 114.327s-.454-.592-.454-1.374c0 0-1.966.076-1.639-1.512.327-1.588 1.563-1.009 1.587-2.067.024-1.057 1.753-2.266 3.006-1.36 1.254.905 4.125-2.267 4.225 1.009 0 0 1.939-1.185 2.294.351.351 1.536 2.241.906 2.117 2.924 0 0-.203.655.579.755 0 0-.351.606-.682.478l-.799 2.453-4.903 2.738-5.331-4.395z" fill="#332A27"/><path d="M800.739 112.66c-.058-.186-.003-.362-.003-.362.048-.772-.2-1.157-.544-1.423-.961.638-2.831 1.557-5.01.91-2.101-.62-3.306-2.725-3.884-4.082-1.078-.11-2.18.827-2.197 1.671a.875.875 0 0 1-.076.354c4.576 3.841 9.393 3.448 11.714 2.932z" fill="#4C423F"/><path d="M798.901 116.014l-.62.524c-.131-.31-.038-.799-.124-1.126a6.854 6.854 0 0 1-.093-.431c-.706-.479-1.095-1.822-.981-2.986.127-1.309-1.763-.403-1.763-.403-.024-.73-2.142-2.015-2.091-.427.052 1.588-.957 1.26-1.666 1.512-.709.251-.282 1.305-.282 1.305-1.009-.141-1.285-.999-1.285-.999a1.01 1.01 0 0 1-.379-.027c0 2.397-.292 6.103 1.102 8.159.493.724 1.112 1.333 2.152 1.495 4.535.71 5.703-3.726 5.703-3.726s1.422.378 1.711-1.716c.238-1.739-1.384-1.154-1.384-1.154z" fill="#A96644"/><path d="M796.731 112.246c-.017.682.234 2.256 1.336 2.735-.706-.479-1.095-1.822-.981-2.987.127-1.308-1.763-.403-1.763-.403s1.425-.024 1.408.655zM791.563 114.327s-.197-1.351.523-1.282c.716.066 1.877-.251 1.76-1.277-.117-1.023 1.126-.741 1.477-.176-.024-.73-2.142-2.015-2.09-.427.051 1.588-.958 1.26-1.667 1.512-.709.251-.282 1.305-.282 1.305-1.009-.141-1.285-.999-1.285-.999a1.003 1.003 0 0 1-.378-.027 2.055 2.055 0 0 0 1.942 1.371z" fill="#914627"/><path d="M792.082 116.561c-.003.389-.241.689-.53.665-.289-.024-.52-.358-.516-.747.003-.39.241-.689.53-.665.293.021.523.358.516.747zM796.049 116.448c-.003.389-.241.689-.53.665-.289-.024-.52-.358-.517-.748.004-.389.242-.689.531-.664.289.02.52.354.516.747z" fill="#502F26"/><path d="M793.491 118.776c-.878.354-1.35-.059-1.385-.472a.598.598 0 0 1 .39-.613c.533-.211.912-1.03.915-1.041.004.19-.189.899-.867 1.295-.148.087-.238.176-.228.31.021.231.355.579 1.175.521z" fill="#914627"/><path d="M790.303 114.551l-.038-.265c.058-.004.96-.252 2.024-.162l.011.413c-.872-.127-1.984.011-1.997.014zM796.738 114.687c-.709-.275-2.025-.327-2.038-.331l.086-.378c.051.01 1.243.051 2.038.478l-.086.231z" fill="#332A27"/><path d="M798.229 118.359c-.386 1.123-1.822 3.895-4.921 3.727-1.677-.093-2.527-1.199-3.088-1.971.131.365.296.7.499.999.492.724 1.112 1.333 2.152 1.495 4.535.71 5.702-3.727 5.702-3.727s1.088.303 1.57-1.081c-.847 1.405-1.914.558-1.914.558z" fill="#914627"/><path d="M795.013 119.387s-1.649.337-3.185 0c0 0 .272 1.412 1.591 1.408 1.25 0 1.58-1.133 1.594-1.408z" fill="#722626"/><path d="M793.39 120.061c-1.016 0-1.312-.42-1.44-.651 1.192.234 2.152.093 2.989-.011-.093.259-.592.662-1.549.662z" fill="#fff"/><path d="M803.002 126.506s-2.555-.982-5.42-1.609c0 0-1.646 1.685-3.523 1.609-2.042-.086-2.806-1.553-2.806-1.553-1.305.206-3.419.733-4.721 1.339 0 0-.775 3.445-.007 21.352 0 0 5.069 1.781 14.407 0 0 0 .107-8.111 1.319-13.016.003 0 .368-5.039.751-8.122z" fill="#FFD07D"/><path opacity=".2" d="M792.321 128.796l1.625-1.598 1.057 2.091s2.727-1.677 3.089-4.274c-.169-.042-.338-.08-.51-.118-2.303 1.699-4.366 2.529-6.329.052a6.248 6.248 0 0 0-.303.052c0 .003-.241 1.643 1.371 3.795z" fill="#000"/><path d="M792.448 123.928s.217 1.678 1.539 2.263c0 0 2.417-.678 2.593-2.287l1.426 1.089s-.903 2.683-2.81 3.392l-1.192-1.818-1.618 1.498s-1.563-1.898-1.432-3.069l1.494-1.068z" fill="#FFD07D"/><path d="M802.685 145.509l-.902-.634-.679.138c-.64-.207-.926-.631-1.246-.679-.32-.048-.823-.386-.823-.386-.296.448.282.93.282.93-.044-.01-.089-.017-.134-.027l-.33-.066c-.142-.027-.283-.058-.421-.086-.134-.027-.272-.058-.406-.083-.107-.017-.21-.037-.317-.044a1.308 1.308 0 0 0-.327.041c-.138.028-.854.282-.974.31-.055.014-.172.038-.172.038-.052.138-.062.286.006.41.124.224.448.22.617.189a2.47 2.47 0 0 0 .41-.124c.103-.038.075-.058.254-.038.104.011.207.049.31.069.224.048.448.1.672.155l.151.035s-1.081.199-1.418.292c-.252.073-.961.755-.961.755-.513.489.289.678.289.678-.041.045-.096.124-.096.193 0 .059.041.103.072.138a.517.517 0 0 0 .217.114.779.779 0 0 0 .441.024.71.71 0 0 0 .12-.042l.117-.051c.048-.024.097-.049.145-.076.148-.083.293-.165.43-.269.018-.014.055-.055.076-.055l.84-.048c-.282.155-.575.668-.957.902a.724.724 0 0 0-.165.128c-.045.048-.097.12-.086.196.01.072.075.093.127.114a.829.829 0 0 0 .51.02c.089-.02.175-.055.258-.099a1.26 1.26 0 0 0 .248-.176c.509-.568 1.078-.851 1.804-.475 1.05.54 1.87-1.023 1.87-1.023l.148-1.388z" fill="#A96644"/><path d="M803.002 126.506s2.021.124 7.213 9.982c0 0 2.156 4.033-7.258 10.65 0 0-1.835-.555-1.835-2.58l4.652-6.138-3.444-3.796c0 .004-1.153-5.597.672-8.118z" fill="#FFD07D"/><path d="M786.852 145.287l.902-.634.679.138c.64-.207.926-.63 1.246-.679.32-.048.823-.385.823-.385.296.447-.282.93-.282.93.044-.011.089-.018.134-.028.11-.021.22-.045.33-.065.142-.028.283-.059.421-.087.134-.027.272-.058.406-.082.107-.017.21-.038.317-.045.11-.003.217.017.327.041.138.028.854.283.974.31.055.014.172.038.172.038.052.138.062.286-.006.41-.124.224-.448.221-.617.19a2.677 2.677 0 0 1-.41-.124c-.103-.038-.075-.059-.254-.038-.104.01-.207.048-.31.069-.224.048-.448.099-.672.155-.051.01-.1.024-.151.034 0 0 1.081.2 1.418.293.252.072.961.754.961.754.513.489-.289.679-.289.679.041.044.096.124.096.192 0 .059-.041.104-.072.138a.506.506 0 0 1-.217.114.77.77 0 0 1-.561-.017c-.038-.018-.079-.035-.117-.052-.048-.024-.097-.048-.145-.076a3.624 3.624 0 0 1-.43-.268c-.018-.014-.055-.056-.076-.056l-.84-.048c.282.155.575.668.957.903a.693.693 0 0 1 .165.127c.045.048.097.121.086.196-.01.073-.075.093-.127.114a.829.829 0 0 1-.51.021 1.175 1.175 0 0 1-.506-.276c-.509-.568-1.078-.851-1.804-.475-1.05.541-1.87-1.023-1.87-1.023l-.148-1.388z" fill="#A96644"/><path d="M786.532 126.288s-2.021.124-7.214 9.982c0 0-2.155 4.033 7.259 10.65 0 0 1.835-.555 1.835-2.58l-4.652-6.138 3.443-3.796s1.157-5.597-.671-8.118z" fill="#FFD07D"/><path d="M852.978 107.482s6.298-1.16 7.104 5.949c.768 6.771 1.529 13.488 1.37 18.327 0 0-6.236 2.015-13.425 0 0 0 .186-9.351-.417-15.854-.53-5.701 1.804-8.673 5.368-8.422z" fill="url(#paint0_linear)"/><path d="M859.201 110.379c-.682-1.281-1.646-2.021-2.61-2.442-.744 1.144-1.801 2.067-3.943 2.057-1.546-.007-1.907-1.196-1.945-2.16-.837.355-1.539.968-2.066 1.829 3.223 2.504 7.906 1.567 10.564.716z" fill="#994A3D"/><path d="M847.965 125.224s-1.715.303-2.673 9.509l3.351.362c.003.004 2.83-9.396-.678-9.871z" fill="#BDC7D6"/><path d="M857.261 140.389s4.349 4.164 5.272 21.537c0 0-8.377 2.319-19.21 0 0 0 1.88-17.869 5.144-21.696l8.794.159z" fill="#A52923"/><path d="M849.487 124.909s3.995-.896 7.693 0c0 0-.624 4.081-5.334 4.119-4.714.038-2.359-4.119-2.359-4.119z" fill="#D17462"/><path d="M857.097 124.743s-4.191 3.968-5.2 3.958c-1.009-.011-2.221-3.958-2.221-3.958-1.546.413-1.708.486-1.708.486l-.299 2.779c-1.581 2.022-1.567 2.591-1.567 3.483 0 1.55 1.371 2.497 1.371 2.497l.998 6.286c5.255 2.042 8.791.117 8.791.117.582-3.971 2.083-9.062 2.083-9.062v-5.897c-.802-.369-1.429-.455-2.248-.689z" fill="#D7E4F7"/><path d="M852.018 123.239l-.01 2.493 3.051.011.013-3.245a4.652 4.652 0 0 1-3.054.741z" fill="#D17462"/><path d="M855.076 122.497l.011-2.5-3.051-.011-.014 3.252c.52.065 1.787.089 3.054-.741z" fill="#BA5F50"/><path opacity=".1" d="M846.395 132.049s.399.337 1.267.413c1.749.151 5.43.465 7.961.058 1.061-.172 1.24-.706 2.039-1.332 0 0 .127 2.724-3.199 2.669-3.33-.059-7.858.351-8.068-1.808z" fill="#000"/><path d="M847.083 116.296c-.017 2.856.761 5.305.84 7.433.169 4.571-1.291 6.366-1.577 8.029 0 0 1.629.414 3.123.135 0 0 1.223-4.933 1.026-7.829-.196-2.897-1.497-7.454-1.497-7.454s-.62-5.666 3.65-6.617l.013-.895c-.354-.031-5.53-.352-5.578 7.198z" fill="#7C3425"/><path d="M857.952 115.605l-.079.028s-.561.368-.657-.665c-.479-4.412-4.542-4.981-4.542-4.981-4.153.438-4.008 3.21-3.936 5.026-.024 1.019.131 1.946.076 2.979-.145 2.576 2.028 4.254 3.96 4.25 3.708-.003 4.648-3.296 4.648-3.296s1.725.293 1.946-2.022c.172-1.891-1.416-1.319-1.416-1.319z" fill="#D17462"/><g opacity=".9" fill="#D15D54"><path opacity=".091" d="M850.528 116.789a1.569 1.569 0 1 1-.584 3.083 1.569 1.569 0 0 1 .584-3.083z"/><path opacity=".182" d="M850.499 116.938a1.418 1.418 0 1 1-.529 2.785 1.418 1.418 0 0 1 .529-2.785z"/><path opacity=".273" d="M850.472 117.086a1.268 1.268 0 1 1-.474 2.492 1.268 1.268 0 0 1 .474-2.492z"/><path opacity=".364" d="M850.44 117.233a1.114 1.114 0 1 1-.414 2.19 1.114 1.114 0 0 1 .414-2.19z"/><path opacity=".455" d="M850.412 117.381a.964.964 0 1 1-.358 1.894.964.964 0 0 1 .358-1.894z"/><path opacity=".545" d="M850.385 117.531a.814.814 0 1 1-.304 1.6.814.814 0 0 1 .304-1.6z"/><path opacity=".636" d="M850.357 117.678a.662.662 0 1 1-.246 1.3.662.662 0 0 1 .246-1.3z"/><path opacity=".727" d="M850.33 117.826a.51.51 0 0 1-.189 1.002.51.51 0 0 1 .189-1.002z"/><path opacity=".818" d="M850.303 117.975a.359.359 0 1 1-.135.706.356.356 0 0 1-.285-.42.36.36 0 0 1 .42-.286z"/><path opacity=".909" d="M850.272 118.123c.114.02.19.131.166.245a.208.208 0 0 1-.245.165.206.206 0 0 1-.166-.245.213.213 0 0 1 .245-.165z"/><path opacity=".9" d="M850.291 118.341a.06.06 0 0 1-.07.046.058.058 0 0 1-.046-.07.06.06 0 0 1 .07-.046.06.06 0 0 1 .046.07z"/></g><g opacity=".636" fill="#D15D54"><path opacity=".091" d="M855.503 116.676a1.68 1.68 0 0 1 1.339 1.963 1.679 1.679 0 1 1-3.302-.623 1.68 1.68 0 0 1 1.963-1.34z"/><path opacity=".182" d="M855.473 116.836a1.519 1.519 0 1 1-.568 2.983 1.519 1.519 0 0 1 .568-2.983z"/><path opacity=".273" d="M855.442 116.995a1.357 1.357 0 0 1-.503 2.666 1.357 1.357 0 0 1 .503-2.666z"/><path opacity=".364" d="M855.414 117.151a1.194 1.194 0 1 1-.446 2.346 1.194 1.194 0 0 1 .446-2.346z"/><path opacity=".455" d="M855.382 117.31a1.033 1.033 0 1 1-.384 2.03 1.033 1.033 0 0 1 .384-2.03z"/><path opacity=".545" d="M855.351 117.472a.873.873 0 0 1-.328 1.712.87.87 0 0 1-.692-1.016.874.874 0 0 1 1.02-.696z"/><path opacity=".636" d="M855.319 117.631a.71.71 0 1 1-.263 1.394.71.71 0 0 1 .263-1.394z"/><path opacity=".727" d="M855.292 117.789a.55.55 0 1 1-.204 1.08.55.55 0 0 1 .204-1.08z"/><path opacity=".818" d="M855.261 117.948c.21.038.348.241.307.451a.382.382 0 0 1-.451.306.384.384 0 0 1-.307-.451.388.388 0 0 1 .451-.306z"/><path opacity=".909" d="M855.231 118.106c.121.024.2.141.179.262a.229.229 0 0 1-.262.18.228.228 0 0 1-.179-.263c.024-.12.141-.2.262-.179z"/><path opacity=".636" d="M855.252 118.337a.06.06 0 0 1-.073.049.06.06 0 0 1-.049-.073.061.061 0 0 1 .073-.049c.032.007.053.042.049.073z"/></g><path d="M852.72 118.619c-.644.293-1.05.141-1.133-.293-.055-.282.11-.603.286-.761.361-.32.523-1.261.523-1.271.028.2-.014.988-.454 1.533a.477.477 0 0 0-.124.368c.027.324.337.572.902.424z" fill="#BA5F50"/><path d="M850.385 115.765s-.564.017-.647-.197c0 0-.066.3.279.396a.857.857 0 0 0-.169.541c.007.403.258.727.561.724.303-.004.544-.335.537-.741-.007-.406-.254-.73-.561-.723zM854.617 115.694s-.565.018-.647-.196c0 0-.066.3.279.396a.853.853 0 0 0-.169.541c.007.403.258.727.561.723.303-.003.544-.334.538-.74-.007-.407-.259-.727-.562-.724z" fill="#502F26"/><path d="M857.135 118.167s-.259 2.001-2.803 3.093c-2.242.961-4.429-.527-4.914-.893.761 1.185 2.104 1.881 3.347 1.878 3.708-.004 4.648-3.297 4.648-3.297s1.085.197 1.653-.909c-1.071 1.013-1.931.128-1.931.128z" fill="#BA5F50"/><path d="M851.353 114.63s-.909-.244-2.152.117c0 0-.007-.093.227-.292.22-.186 1.036-.39 1.739-.104 0 .004.365.197.186.279zM853.433 114.578s.905-.262 2.152.076c0 0 .007-.093-.231-.286-.224-.183-1.043-.372-1.742-.072 0 0-.362.203-.179.282z" fill="#7C3425"/><path d="M854.06 119.211s-1.44.317-2.786.045c0 0 .258 1.233 1.412 1.212 1.088-.021 1.363-1.016 1.374-1.257z" fill="#B22828"/><path d="M852.647 119.823c-.889.014-1.154-.351-1.271-.547 1.047.189 1.884.055 2.614-.048-.073.223-.507.582-1.343.595z" fill="#fff"/><path d="M857.953 115.605l-.079.028s-.562.368-.658-.665c-.479-4.412-4.542-4.981-4.542-4.981-3.698.39-3.991 2.632-3.956 4.402.217-1.099 1.029-3.716 3.839-4.216 0 0 3.833 1.268 4.604 9.403.186-.368.262-.626.262-.626s1.725.292 1.945-2.022c.172-1.895-1.415-1.323-1.415-1.323z" fill="#BA5F50"/><path d="M859.372 116.484s-.433-7.74-6.69-7.388c0 0-.007 0-.021-.004l-.014.896c.007 0 .014-.004.018-.004 0 0 3.515.427 4.362 6.624 1.099 8.001-3.467 15.486-3.467 15.486s2.479 0 3.292-.204c0 0 1.78-4.222 2.352-7.67.675-4.051.168-7.736.168-7.736z" fill="#7C3425"/><path d="M859.31 125.432s2.324.788 3.502 10.491l-3.492 1.037s-2.321-8.501-.01-11.528z" fill="#D7E4F7"/><path d="M862.809 135.923s.217 2.745-3.492 2.545c-3.395-.186-6.587-.74-6.587-.74l.234-1.884c.004 0 5.613-.954 9.845.079z" fill="#D17462"/><path d="M847.975 136.301c.065-.176.275-.124.51-.073l-.689-.241c-.158-.062-.331-.134-.265-.341.069-.217.251-.169.441-.12l-.469-.176c-.158-.062-.32-.148-.258-.375.052-.19.217-.173.406-.152l.403.055c-.23-.086-.399-.258-.358-.406.028-.097.158-.21.499-.179l2.197.127.782.145-.42-.403c-.355-.465-.069-.675-.069-.675.145-.114.403.099.771.327l1.195.851c.427.427 1.205 1.222 1.04 1.987-.172.796-.448 1.123-.999 1.154 0 0-.991-.024-1.535-.1-.544-.076-1.175-.272-1.175-.272l-1.659-.703c-.245-.124-.403-.272-.348-.43z" fill="#D17462"/><path d="M826.506 141.327c-.754-.272-1.013.599-1.013.599s-.527 1.295-.595 1.785c-.069.492.327 1.556.592 1.766 0 0 .651.465.812.61 0 0 .283.01.107-.482 0 0 .517.282.455-.169 0 0 .299-.196.361-.72 0 0-.127-.627-.296-.888 0 0 .345-.91.162-1.471 0 0 .169-.758-.585-1.03z" fill="#A96644"/><path d="M826.461 142.404s-.134.899-.293 1.402c0 0 .448.668.183.957 0 0-.348-.244-.813-.782 0 0 .258.889.307 1.023.051.135.371.348.557.606 0 0 .338-.117.362-.303 0 0 .303-.33.293-.561 0 0-.09-.51-.221-.871 0 0 .455-.896.221-1.509-.014-.038-.569.065-.596.038z" fill="#914627"/><path d="M827.332 132.021c.813.068 1.708.106 2.576.706-.031.899-.427 2.18-.513 2.841 0 0-.603 3.517-2.304 6.789 0 0-.926-.069-1.508-.637 0 0 .868-5.246 1.25-6.593 0-.003.358-1.577.499-3.106z" fill="#A96644"/><path d="M827.739 128.359c.778-2.463 1.79-2.965 1.79-2.965l.682 4.622s-.038 1.46-.093 3.034c-.854-.189-2.538-.499-3.364-.83.41-1.601.589-2.607.985-3.861z" fill="#9B2A2A"/><path d="M838.202 165.854l2.09-.183-.179-2.518-2.09.183.179 2.518z" fill="#A96644"/><path d="M841.094 167.167h-3.729v.606h3.729v-.606z" fill="#C1C1C1"/><path d="M841.026 167.167s.237-.606-.1-1.192l-.468-1.002s-.231.241-.438.144c-.217-.099-.829-1.267-1.725.007 0 0-.265-.158-.416-.11l-.286.937s-.489.916-.172 1.216h3.605z" fill="#A52923"/><path d="M839.824 166.233a.087.087 0 0 1-.031-.007c-.603-.23-1.216-.055-1.222-.051-.052.017-.107-.018-.121-.076-.014-.059.017-.117.069-.134.027-.007.678-.197 1.336.055.052.02.079.082.062.137-.014.049-.052.076-.093.076z" fill="#fff"/><path d="M839.824 165.943a.087.087 0 0 1-.031-.007c-.603-.23-1.216-.055-1.222-.051-.052.017-.107-.018-.121-.076-.014-.059.017-.117.069-.134.027-.007.678-.197 1.336.055.052.02.079.082.062.137-.014.049-.052.076-.093.076z" fill="#fff"/><path d="M839.824 165.654a.087.087 0 0 1-.031-.007c-.603-.231-1.216-.055-1.222-.051-.052.017-.107-.018-.121-.076a.113.113 0 0 1 .069-.135c.027-.006.678-.196 1.336.056.052.02.079.082.062.137-.014.049-.052.076-.093.076z" fill="#fff"/><path d="M839.824 165.365a.087.087 0 0 1-.031-.007c-.603-.231-1.216-.055-1.222-.052-.052.018-.107-.017-.121-.075a.113.113 0 0 1 .069-.135c.027-.007.678-.196 1.336.055a.114.114 0 0 1 .062.138c-.014.048-.052.076-.093.076z" fill="#fff"/><path d="M826.285 160.112h-2.218v2.418h2.218v-2.418z" fill="#A96644"/><path d="M826.546 161.72s.534.81.286 2.319h-7.344s-.596-1.041 1.58-1.251c1.408-.134 2.662-1.419 2.662-1.419s.413.069.592.589c.196.579 1.364.692 1.784.072.265-.389.44-.31.44-.31z" fill="#A52923"/><path d="M826.888 164.042h-7.355v.606h7.355v-.606z" fill="#C1C1C1"/><path d="M822.277 163.305a.144.144 0 0 1-.127-.086.735.735 0 0 0-.455-.434.143.143 0 0 1-.1-.176.139.139 0 0 1 .165-.106c.018.003.448.117.644.599a.146.146 0 0 1-.127.203zM822.828 163.088a.144.144 0 0 1-.127-.086.733.733 0 0 0-.455-.434c-.072-.017-.117-.096-.1-.176a.14.14 0 0 1 .166-.106c.017.003.447.117.643.599a.146.146 0 0 1-.072.189.112.112 0 0 1-.055.014zM823.237 162.799a.141.141 0 0 1-.127-.086.74.74 0 0 0-.455-.434c-.072-.017-.12-.096-.099-.176a.139.139 0 0 1 .165-.106c.017.003.448.117.644.599a.147.147 0 0 1-.073.189.094.094 0 0 1-.055.014zM823.65 162.509a.146.146 0 0 1-.127-.086.733.733 0 0 0-.454-.434.142.142 0 0 1-.1-.176.139.139 0 0 1 .165-.106c.017.003.448.12.644.599a.147.147 0 0 1-.072.189.106.106 0 0 1-.056.014z" fill="#fff"/><path d="M829.521 139.853l-.351 2.552s-5.075 6.276-5.499 7.754c-.423 1.484-.051 4.236.1 9.912 0 0 .999.634 2.837.073 0 0 .169-8.094.538-8.969.368-.875 6.621-7.316 6.621-7.316l1.095.024 2.82 19.802s1.367.365 2.707-.121l-1.75-23.714h-9.118v.003z" fill="#2E4056"/><path d="M829.481 142.219a.067.067 0 0 1-.062-.041.067.067 0 0 1 .034-.086c.011-.004 1.188-.5 1.36-1.829.004-.038.038-.062.076-.059.035.004.062.038.059.076-.186 1.409-1.429 1.932-1.443 1.936-.007.003-.017.003-.024.003zM834.543 143.858a.065.065 0 0 1-.065-.052c-.004-.013-.3-1.415-.331-3.334 0-.038.027-.065.065-.069a.07.07 0 0 1 .069.066c.031 1.904.327 3.293.327 3.306.007.035-.013.073-.051.08-.007.003-.011.003-.014.003z" fill="#566C82"/><path d="M834.377 143.245h-.004a.878.878 0 0 1-.619-.317c-.603-.699-.472-2.314-.469-2.38.004-.038.035-.062.073-.062a.064.064 0 0 1 .058.073c0 .017-.131 1.625.437 2.283a.74.74 0 0 0 .527.272c.038.004.066.035.062.069a.064.064 0 0 1-.065.062zM838.654 142.636h-.007c-2.135-.217-2.676-2.046-2.682-2.063a.067.067 0 0 1 .044-.083c.035-.01.073.01.083.045.003.017.527 1.76 2.569 1.966a.064.064 0 0 1 .058.073.064.064 0 0 1-.065.062z" fill="#566C82"/><path d="M823.665 159.644v.726s1.611.737 3.123.055v-.516s-2.118.386-3.123-.265zM837.466 163.126l.141.744s2.076.286 2.982-.365v-.568c.003 0-1.866.661-3.123.189z" fill="#ABC2D8"/><path d="M833.444 123.851l-.045 1.612 2.673.072.058-2.097c-1.122.509-2.231.468-2.686.413z" fill="#A96644"/><path d="M836.133 123.437l.045-1.616-2.672-.072-.059 2.105c.455.051 1.564.093 2.686-.417z" fill="#914627"/><path d="M834.546 125.826c1.581 0 1.963-.878 2.014-1.153a10.376 10.376 0 0 0-3.618-.131c-.031.323.051 1.284 1.604 1.284z" fill="#A96644"/><path d="M840.121 125.858s-1.522-.83-3.378-1.236c-.079-.017-.158-.035-.238-.048-.055.275-.351 1.112-1.931 1.112-1.553 0-1.605-.892-1.571-1.212-.113.013-.23.031-.351.051-.843.135-2.276.476-3.116.868 0 0-.117 4.381-.244 14.87 0 0 3.763 1.353 9.81.199.096-5.035.12-6.51.509-9.675-.01 0 .262-2.934.51-4.929z" fill="#B23232"/><path d="M838.922 115.68s.324.73.479 1.75c0 0 .585-1.75.833-2.942.268-1.278-.276-3.703-3.426-4.726-4.508-1.467-5.661.324-6.56 3.366.003 0 5.978-2.284 8.674 2.552z" fill="#D0D6D8"/><path d="M838.102 110.368c1.987 1.213 2.359 3.045 2.135 4.12-.248 1.191-.833 2.941-.833 2.941-.155-1.019-.479-1.75-.479-1.75a6.051 6.051 0 0 0-1.263-1.591 5.427 5.427 0 0 0 .44-3.72z" fill="#AAB6BA"/><path d="M838.922 115.68s-2.373-3.534-7.335-2.728c0 0-1.532.382-1.473 1.681 0 0-2.225-3.179-1.615-4.01.606-.826 7.186-.754 8.285.293 1.459 1.388 2.138 4.764 2.138 4.764z" fill="#C63939"/><path d="M828.905 113.782c.089-.186.144-.23.175-.217-.062-.323-.117-.912.262-1.078.214-.093.338-.093.427-.038-.027-.117-.024-.258.189-.437.173-.141.266-.145.334-.072a.352.352 0 0 1 .121-.338c.31-.262.826-.245 1.646.245-.127-.097-.258-.259-.024-.407.372-.238.551.097.616.162 0 0-.358-.389.066-.503.289-.079.571.214.888.465-.041-.076-.003-.162.196-.238.513-.192 1.405.056 1.898.903a.475.475 0 0 1 .21-.124c.582-.21 1.387.84 1.415 2.049 0 0 1.195.758 1.759 1.612 0 0 .389.927.324 1.667l-.479 1.437-8.79-1.413s-.338-1.209-.262-2.314c-.007 0-1.205-.872-.971-1.361z" fill="#332A27"/><path d="M834.821 114.013c.943.341 2.279.389 2.279.389.741 1.85 1.695 2.924 2.18 3.389l-.358 1.078-8.791-1.412s-.337-1.233-.262-2.335c.269-2.928 4.009-1.45 4.952-1.109z" fill="#191514"/><path d="M838.185 117.868l-.537.434c-.114-.255.055-.971.069-1.254.082-1.522-.73-2.549-.73-2.549-3.155.396-4.195-.644-5.152-.544-1.312.138-1.47 1.147-1.47 1.147-.331 1.181-.234 1.784-.234 1.784-.004 1.402-.035 3.782.974 5.205.424.599.961 1.102 1.863 1.236 3.926.589 4.931-3.086 4.931-3.086s1.229.313 1.481-1.419c.206-1.44-1.195-.954-1.195-.954z" fill="#A96644"/><path d="M836.874 114.871s-1.356.558-4.59-.713c0 0-.96-.317-1.725.483.193-.286.565-.617 1.274-.693.957-.1 1.997.941 5.151.544 0 0 .713.903.737 2.274-.124-.613-.379-1.485-.847-1.895zM837.6 119.804c-.334.93-1.577 3.22-4.256 3.083-1.45-.076-2.187-.992-2.672-1.63.114.3.255.579.434.827.423.599.96 1.102 1.863 1.237 3.925.589 4.931-3.087 4.931-3.087s.94.252 1.356-.895c-.73 1.164-1.656.465-1.656.465z" fill="#914627"/><path d="M832.286 118.316c-.003.324-.206.568-.457.551-.248-.02-.448-.296-.448-.62.003-.324.206-.568.458-.551.251.021.451.296.447.62zM835.716 118.221c-.004.324-.207.569-.458.552-.248-.021-.448-.297-.444-.62.003-.324.21-.569.458-.552.247.018.447.297.444.62z" fill="#502F26"/><path d="M833.502 120.148c-.757.293-1.167-.048-1.198-.393a.489.489 0 0 1 .337-.506c.462-.172.789-.854.792-.861.004.155-.162.744-.75 1.071-.128.069-.207.145-.197.255.018.196.31.482 1.016.434z" fill="#914627"/><path d="M830.744 116.904l-.035-.186c.049-.004.834-.176 1.753-.114l.007.293c-.751-.093-1.711.007-1.725.007zM836.339 116.927c-.637-.138-1.773-.076-1.783-.076l.038-.272c.044.004 1.074-.058 1.8.179l-.055.169z" fill="#332A27"/><path d="M834.821 120.653s-1.429.279-2.755 0c0 0 .234 1.168 1.377 1.168 1.078-.003 1.364-.944 1.378-1.168z" fill="#722626"/><path d="M833.413 121.211c-.878 0-1.136-.348-1.246-.537 1.03.193 1.863.079 2.586-.007-.079.21-.51.544-1.34.544z" fill="#fff"/><path d="M839.825 138.462a.847.847 0 0 0-.596-.417l-.448.093c-.423-.138-.609-.417-.823-.448-.213-.031-.544-.254-.544-.254-.192.296.186.613.186.613l-.089-.018c-.072-.013-.145-.031-.217-.044-.093-.018-.186-.038-.279-.055l-.269-.056c-.068-.013-.141-.027-.21-.027a.773.773 0 0 0-.217.027c-.089.018-.564.186-.644.207l-.113.024a.327.327 0 0 0 .003.272c.083.148.296.145.407.128a1.69 1.69 0 0 0 .272-.083c.069-.024.051-.038.168-.027.069.006.135.031.204.044.148.035.296.066.444.1.034.007.069.017.1.024 0 0-.713.131-.937.193-.165.048-.634.5-.634.5-.337.323.193.447.193.447-.027.031-.062.083-.062.128 0 .038.028.069.048.089a.339.339 0 0 0 .145.076.53.53 0 0 0 .372-.01c.028-.011.052-.024.076-.035l.096-.051c.097-.055.193-.107.286-.176.01-.007.034-.034.048-.038l.555-.031c-.186.103-.379.441-.634.596-.038.024-.076.048-.11.086-.031.031-.066.079-.059.131.007.048.052.062.086.076a.572.572 0 0 0 .338.014.817.817 0 0 0 .334-.183c.337-.375.713-.561 1.191-.313.692.358 1.236-.676 1.236-.676s.307-.554.097-.926z" fill="#A96644"/><path d="M843.678 130.988c.217.389.754 1.268.992 1.716 0 0 1.274 2.307-4.945 6.678 0 0-.744-.379-.496-1.34l2.638-4.264-.654-1.116c.902-1.019 1.677-1.405 2.465-1.674z" fill="#A96644"/><path d="M840.121 125.859s1.081-.138 4.004 5.128c-.485.52-1.553 1.733-2.992 2.229l-1.663-2.05s-.554-3.644.651-5.307z" fill="#B23232"/><path d="M815.456 165.249c-.193 0-1.088-.007-1.25-.007-.496 0-.899.575-.899 1.264 0 .693.403 1.264.899 1.264h1.174l.076-2.521z" fill="#1A2126"/><path d="M816.316 166.486c0-.692-.362-1.219-.861-1.219-.496 0-.94.53-.94 1.219 0 .692.369 1.319.868 1.319.496-.003.933-.63.933-1.319z" fill="#313C44"/><path d="M819.391 166.158h-.709c-.599-.303-.606-.689-.606-.689l-.448-.217-.537.227c-.058.51-.485.579-.678.682h-.747a.303.303 0 1 0 0 .606h3.729a.303.303 0 0 0 .303-.303.31.31 0 0 0-.307-.306z" fill="#7A8A96"/><path d="M819.026 164.948h-2.82v.503h2.82v-.503z" fill="#616F77"/><path d="M819.891 165.248c-.193 0-1.088-.007-1.25-.007-.496 0-.899.575-.899 1.264 0 .693.403 1.264.899 1.264h1.174l.076-2.521z" fill="#1A2126"/><path d="M820.748 166.489c0-.692-.362-1.219-.861-1.219-.496 0-.94.53-.94 1.219 0 .692.368 1.319.867 1.319.5-.003.934-.63.934-1.319z" fill="#313C44"/><path d="M829.563 165.249c-.193 0-1.088-.007-1.25-.007-.496 0-.899.575-.899 1.264 0 .693.403 1.264.899 1.264h1.174l.076-2.521z" fill="#1A2126"/><path d="M830.423 166.486c0-.692-.361-1.219-.86-1.219-.496 0-.94.53-.94 1.219 0 .692.368 1.319.867 1.319.496-.003.933-.63.933-1.319z" fill="#313C44"/><path d="M833.499 166.158h-.71c-.599-.303-.606-.689-.606-.689l-.448-.217-.537.227c-.058.51-.485.579-.678.682h-.747a.303.303 0 0 0 0 .606h3.729a.303.303 0 0 0 .303-.303.311.311 0 0 0-.306-.306z" fill="#7A8A96"/><path d="M833.134 164.948h-2.821v.503h2.821v-.503z" fill="#616F77"/><path d="M833.998 165.248c-.193 0-1.088-.007-1.25-.007-.496 0-.899.575-.899 1.264 0 .693.403 1.264.899 1.264h1.174l.076-2.521z" fill="#1A2126"/><path d="M834.856 166.489c0-.692-.362-1.219-.861-1.219-.496 0-.94.53-.94 1.219 0 .692.368 1.319.867 1.319.496-.003.934-.63.934-1.319z" fill="#313C44"/><path d="M833.599 165.052h-19.548s-1.033-.034-1.688-.689c-.654-.654.128-1.164.755-1.188.585-.024 3.009-.272 4.476 1.102.155.145.479.372.94.372h10.43s.806-.034 1.477-.499c.672-.465 3.492-1.536 4.804-.579 1.312.958-.872 1.481-1.646 1.481z" fill="#A08650"/><path d="M813.813 163.562c-.94.013-1.439.165-1.694.303 0 .148.072.32.248.499.654.655 1.687.689 1.687.689h4.473c-.616 0-.781-.121-1.308-.561-.534-.445-1.667-.958-3.406-.93z" fill="#A52923"/><path d="M833.901 164.649s1.343-.048 1.677-.751a1.278 1.278 0 0 0-.334-.337c-1.309-.958-4.132.117-4.804.582-.599.416-1.305.489-1.449.499v.01h4.91v-.003z" fill="#313C44"/><path d="M832.139 109.872v-1.209a1.77 1.77 0 0 0-1.763-1.764h-4.645v-1.536c-1.067.004-2.379.021-3.867.049v1.487h-4.645c-.971 0-1.76.793-1.76 1.764v1.209c0 .968.792 1.76 1.76 1.76h13.157a1.764 1.764 0 0 0 1.763-1.76z" fill="#0082C8"/><path d="M794.052 138.524a6.578 6.578 0 0 0 6.577-6.579 6.578 6.578 0 0 0-13.153 0 6.578 6.578 0 0 0 6.576 6.579z" stroke="#0082C8" stroke-width="6.427" stroke-miterlimit="10"/><path d="M789.301 126.572l-1.178-.585a.573.573 0 0 0-.768.258l-.065.127a.574.574 0 0 0 .003.514.537.537 0 0 0-.396.286l-.065.127c-.093.186-.059.403.069.579a.565.565 0 0 0-.475.313l-.066.128a.566.566 0 0 0-.031.43.422.422 0 0 0-.186.128l-.076.086a.464.464 0 0 0 .045.654l.802.703a.465.465 0 0 0 .655-.045l.075-.086a.462.462 0 0 0 .025-.582l.134.065a.574.574 0 0 0 .768-.258l.065-.128a.577.577 0 0 0 .021-.458c.296.09.602-.017.726-.265l.066-.127c.12-.241.027-.534-.2-.717a.555.555 0 0 0 .251-.251l.066-.128a.583.583 0 0 0-.265-.768zM798.325 126.186l1.178-.586a.574.574 0 0 1 .768.258l.065.128a.571.571 0 0 1-.003.513c.172.031.32.131.396.286l.065.127c.093.186.059.403-.069.579a.568.568 0 0 1 .475.313l.066.128a.566.566 0 0 1 .031.43.422.422 0 0 1 .186.128l.076.086a.464.464 0 0 1-.045.654l-.803.703a.463.463 0 0 1-.654-.045l-.076-.086a.463.463 0 0 1-.024-.582l-.134.065a.573.573 0 0 1-.768-.258l-.065-.127a.573.573 0 0 1-.021-.458c-.296.089-.602-.018-.726-.266l-.066-.127c-.12-.241-.027-.534.2-.716a.564.564 0 0 1-.252-.252l-.065-.127a.58.58 0 0 1 .265-.768z" fill="#A96644"/><path d="M813.744 166.994l-.537-1.082-1.577.217-.158 1.281 2.272.004v-.42z" fill="#D17462"/><path d="M806.376 154.985c.885 3.097 2.951 5.129 5.368 11.463l1.446-.531s-1.653-6.192-3.632-11.259c0 0 .155-4.354 1.518-9.162-2.149-.575-3.03-.768-4.28-.992-.857 3.344-.83 9.041-.42 10.481z" fill="#D17462"/><path d="M806.8 144.499c-.117.458-.22.961-.303 1.491.62.5 1.956 1.358 4.053 1.599.151-.682.327-1.385.53-2.098-2.148-.572-3.033-.768-4.28-.992z" fill="#BA5F50"/><path d="M814.11 168.874h-7.125v.823h7.125v-.823z" fill="#C1C1C1"/><path d="M806.996 168.875s-.486-1.347 1.629-1.54l.547 1.54h-2.176z" fill="#F2F2F2"/><path d="M808.642 167.331l2.816-.954s.338-.099.589.565c0 0 1.043.565 1.705-.151 0 0 .633-.055.358 1.043v1.044h-5.878l.41-1.547z" fill="#D6D8D8"/><path d="M813.735 166.791a1.078 1.078 0 0 1-.834.362l.066.382s.423-.079.626-.234c0 0 .169.424.483.524.275-1.082-.341-1.034-.341-1.034zM810.377 168.875h-.458l-.365-.92.393-.138.43 1.058zM811.2 168.874h-.458l-.458-1.171.42-.131.496 1.302zM812.02 168.874h-.455l-.526-1.398.409-.127.572 1.525z" fill="#3E4042"/><path d="M812.02 166.948l-3.144 1.075-.138-.383 2.61-.881c.004 0 .469-.183.672.189z" fill="#CECECE"/><path d="M809.158 166.998l-.257.089.238.69.257-.088-.238-.691zM809.705 166.816l-.257.088.238.691.257-.089-.238-.69zM810.257 166.632l-.257.089.237.69.257-.089-.237-.69zM810.894 166.45l-.257.089.237.69.258-.088-.238-.691z" fill="#F2F2F2"/><path d="M812.629 145.604c.241 3.95.85 14.225.792 21.627h1.567s1.284-12.858 1.928-22.092c-1.711.069-2.965.213-4.287.465z" fill="#D17462"/><path d="M816.92 145.167c-1.711.069-2.968.207-4.287.458.035.548.073 1.219.117 1.984 1.192-.11 2.545-.42 4.067-1.019l.103-1.423z" fill="#BA5F50"/><path d="M813.125 167.41l.299-1.55h1.698l.186 1.512-2.183.038z" fill="#D17462"/><path d="M815.856 168.874h-3.106v.823h3.109l-.003-.823z" fill="#CECECE"/><path d="M814.225 166.287s-.799-.003-.741.5c0 0-.733-.087-.733 2.028l3.109.045s-.062-2.046-.854-2.046c0 0 .121-.527-.781-.527z" fill="#E5E5E5"/><path d="M813.658 166.717v1.278l-.365.013v-1.019s.182-.221.365-.272zM814.75 166.714v1.278l.365.013v-1.019s-.089-.22-.365-.272z" fill="#CECECE"/><path d="M815.026 167.079c-.73-.327-1.553-.003-1.56 0l.007-.189c.031-.014.73-.365 1.553 0v.189z" fill="#F2F2F2"/><path d="M813.466 167.359l.007-.193c.024-.013.637-.358 1.55-.044v.189c-.82-.282-1.55.045-1.557.048z" fill="#F2F2F2"/><path d="M812.75 168.875s-.138-1.567 1.553-1.567c1.69 0 1.553 1.567 1.553 1.567h-3.106z" fill="#F2F2F2"/><path d="M818.083 129.546s-1.405-1.143-.571-2.59c.833-1.446 1.184-2.411.571-3.465-.616-1.054.658-3.306.878-4.181.221-.875-1.184-3.834-1.098-5.036.086-1.202-.792-3.923-3.165-3.661 0 0-5.14-1.791-6.456 2.245-1.319 4.037-.747 6.114 0 7.385.747 1.268 1.347 3.689.565 5.218-.785 1.53-.045 3.038 1.233 3.786 1.281.747 5.364 1.581 8.043.299z" fill="url(#paint1_linear)"/><path d="M817.87 114.137c.007-.755-.313-1.96-1.064-2.752-.771.926-2.589 1.973-4.418 1.47-1.629-.447-1.839-1.667-1.808-2.397-.826.269-1.591.806-2.083 1.784 3.171 2.408 7.176 2.236 9.373 1.895z" fill="#994A3D"/><path d="M818.995 127.512s-.055 2.314-.003 5.528c.051 3.213.716 2.852-.379 10.436h-1.432s-.744-7.743-.183-10.422l-.54-5.067 2.537-.475z" fill="url(#paint2_linear)"/><path d="M817.133 143.259c.272-.575.706-.389 1.25-.131.544.259.475.796.406 1.251l-.265.778c-.272.575-.679.548-1.223.286-.544-.258-.895-.658-.623-1.237l.455-.947z" fill="#BA5F50"/><path d="M817.102 144.61c.041.038.072.09.09.148.161.606 1.15 1.474 1.525 1.743.131.093.196.279.121.396-.08.117-.245.09-.372-.003-.159-.114-1.55-1.133-1.801-2.06-.042-.148.044-.286.192-.307.09-.013.18.021.245.083z" fill="#BA5F50"/><path d="M817.371 144.427a.268.268 0 0 1 .103.103c.513.847 2.014 1.533 2.032 1.54.148.058.316.22.261.365-.055.144-.31.124-.458.065-.069-.027-1.708-.675-2.324-1.694a.273.273 0 0 1 .096-.383.282.282 0 0 1 .29.004z" fill="#BA5F50"/><path d="M817.987 144.513a.369.369 0 0 1 .09.055c.606.517 1.515.847 1.525.851.231.093.334.255.279.382-.038.083-.255.076-.406.035-.042-.011-1.051-.304-1.763-.913-.121-.103-.135-.262-.031-.358.075-.08.199-.093.306-.052z" fill="#BA5F50"/><path d="M818.314 144.203c.028.007.059.007.079.028.365.362 1.254.585 1.261.585.158.018.251.104.237.252-.014.148-.131.12-.289.103a4.657 4.657 0 0 1-1.477-.468c-.141-.073-.196-.238-.121-.369.059-.107.186-.155.31-.131z" fill="#BA5F50"/><path d="M816.998 124.191s1.667.799 2.697 3.41c0 0-1.292 1.013-3.106 1.354-.004.003-.586-2.835.409-4.764z" fill="#86CF87"/><path d="M807.385 126.575s-.727 7.654.241 8.935c0 0 2.128 2.786 7.537 4.054l.441-1.326s-3.998-2.697-6.098-4.006l-.217-7.082-1.904-.575z" fill="url(#paint3_linear)"/><path d="M818.439 140.249c.017-.12-.121-.155-.272-.199l.468.072c.11.014.231.024.255-.114.027-.148-.093-.175-.217-.206l.324.041c.11.01.23.014.265-.138.027-.124-.073-.165-.186-.21l-.252-.093c.162.021.31-.027.331-.124.014-.062-.028-.169-.231-.255l-1.305-.603-.496-.155.365-.103c.348-.158.248-.368.248-.368-.048-.111-.261-.066-.544-.049l-.947.121c-.378.114-1.067.334-1.208.827-.145.509-.086.785.22.971 0 0 .579.289.916.413.337.124.758.207.758.207l1.17.107c.186.003.324-.035.338-.142z" fill="#D17462"/><path d="M808.607 124.039s-1.336.713-2.11 3.455c0 0 2.011 1.233 3.26 1.302-.003.003-.454-3.231-1.15-4.757z" fill="#86CF87"/><path d="M815.288 135.247l.182-2.201-6.57-.068.283 2.214-.579 2.208s2.514 2.039 7.672-.021c-.258-.909-.83-1.364-.988-2.132z" fill="#D17462"/><path d="M815.291 135.168l.175-2.122-6.57-.068.19 1.494c.943.486 3.185 1.368 6.205.696z" fill="#BA5F50"/><path d="M809.73 123.805s2.954-.662 5.685 0c0 0-.462 3.017-3.943 3.044-3.485.028-1.742-3.044-1.742-3.044z" fill="#D17462"/><path d="M814.606 123.602s-.648 1.701-2.565 1.667c-1.839-.035-1.371-1.667-1.371-1.667-1.143.192-2.059.437-2.059.437l-.22 2.053c-.751 1.099-.916 1.915-.882 2.576.052 1.003.193 1.846.193 1.846l.293 3.627c3.884 1.509 8.501-.113 8.501-.113-.082-3.772.548-5.477.548-5.477v-4.36c-.648-.273-1.808-.5-2.438-.589z" fill="#86CF87"/><path d="M811.6 122.568l-.007 1.842 2.255.011.01-2.398a3.415 3.415 0 0 1-2.258.545z" fill="#D17462"/><path d="M813.862 122.024l.007-1.846-2.255-.01-.01 2.401a3.415 3.415 0 0 0 2.258-.545z" fill="#BA5F50"/><path d="M815.412 117.541s.647 4.04-.231 5.686c-.878 1.647-1.153 1.998-.923 2.873.228.875.747 1.994-.654 3.079 0 0 2.617-.43 2.038-3.079 0 0 2.18-2.39 1.949-8.728l-2.179.169zM808.122 118.994s-.307 2.438.654 4.267c.961 1.829-.657 2.274-.351 3.72.306 1.447-.379 2.015-.882 2.211 0 0 1.626.235 1.956-1.725 0 0 .055-.999.307-1.275.251-.275 1.343-2.29.602-3.995-.74-1.705 0-3.207 0-3.207h-2.286v.004z" fill="#7C3425"/><path d="M816.059 116.607l-.065.02s-.203.972-.72-1.133c-.341-2.201-2.858-2.934-2.858-2.934-4.011.062-4.163 1.942-3.874 3.571.117.596.266 1.554.221 2.377-.114 2.056 1.618 3.393 3.157 3.389 2.955-.003 3.726-2.431 3.726-2.431s1.357.037 1.536-1.809c.144-1.508-1.123-1.05-1.123-1.05z" fill="#D17462"/><path d="M812.389 112.855s1.811.517 2.772 2.163c-.596-1.829-2.741-2.456-2.741-2.456-2.438.038-3.45.748-3.805 1.668.475-.62 1.512-1.296 3.774-1.375z" fill="#BA5F50"/><g opacity=".9"><path opacity=".091" d="M810.14 117.552c.679.127 1.126.782.996 1.46a1.247 1.247 0 0 1-1.46.996 1.248 1.248 0 0 1-.996-1.461 1.247 1.247 0 0 1 1.46-.995z" fill="#E8725F"/><path opacity=".182" d="M810.116 117.669a1.13 1.13 0 1 1-.423 2.221 1.13 1.13 0 1 1 .423-2.221z" fill="#E5705E"/><path opacity=".273" d="M810.095 117.786a1.013 1.013 0 0 1-.376 1.988 1.013 1.013 0 0 1 .376-1.988z" fill="#E36E5D"/><path opacity=".364" d="M810.071 117.907a.893.893 0 0 1 .709 1.04.894.894 0 0 1-1.039.71.894.894 0 0 1-.71-1.041.889.889 0 0 1 1.04-.709z" fill="#E16C5C"/><path opacity=".455" d="M810.05 118.023a.77.77 0 0 1-.285 1.512.77.77 0 0 1 .285-1.512z" fill="#DF6A5B"/><path opacity=".545" d="M810.026 118.139a.649.649 0 1 1-.242 1.274.649.649 0 0 1 .242-1.274z" fill="#DC6759"/><path opacity=".636" d="M810.005 118.26a.527.527 0 1 1-.196 1.036.527.527 0 0 1 .196-1.036z" fill="#DA6558"/><path opacity=".727" d="M809.981 118.377a.406.406 0 1 1-.152.798.406.406 0 0 1 .152-.798z" fill="#D86357"/><path opacity=".818" d="M809.961 118.496a.286.286 0 1 1-.106.563.286.286 0 0 1 .106-.563z" fill="#D66156"/><path opacity=".909" d="M809.937 118.614c.09.018.148.104.131.197a.164.164 0 0 1-.193.131.17.17 0 0 1-.135-.193.17.17 0 0 1 .197-.135z" fill="#D35F55"/><path opacity=".9" d="M809.952 118.788c-.003.025-.028.042-.056.039-.025-.004-.042-.028-.039-.056.004-.025.028-.043.057-.039.028.007.045.032.038.056z" fill="#D15D54"/></g><g opacity=".9"><path opacity=".091" d="M814.107 117.458a1.34 1.34 0 1 1-1.567 1.068 1.346 1.346 0 0 1 1.567-1.068z" fill="#E8725F"/><path opacity=".182" d="M814.083 117.588a1.21 1.21 0 1 1-.451 2.381 1.21 1.21 0 0 1 .451-2.381z" fill="#E5705E"/><path opacity=".273" d="M814.058 117.713a1.082 1.082 0 1 1-.403 2.124 1.082 1.082 0 0 1 .403-2.124z" fill="#E36E5D"/><path opacity=".364" d="M814.036 117.841a.949.949 0 0 1 .757 1.112.948.948 0 0 1-1.112.758.95.95 0 0 1-.757-1.113.95.95 0 0 1 1.112-.757z" fill="#E16C5C"/><path opacity=".455" d="M814.011 117.968a.822.822 0 1 1-.307 1.615.822.822 0 0 1 .307-1.615z" fill="#DF6A5B"/><path opacity=".545" d="M813.986 118.095a.698.698 0 0 1 .554.812.699.699 0 0 1-.813.555.694.694 0 1 1 .259-1.367z" fill="#DC6759"/><path opacity=".636" d="M813.962 118.219a.568.568 0 0 1 .451.661.567.567 0 1 1-.451-.661z" fill="#DA6558"/><path opacity=".727" d="M813.937 118.346a.435.435 0 1 1-.509.347.436.436 0 0 1 .509-.347z" fill="#D86357"/><path opacity=".818" d="M813.913 118.473a.308.308 0 0 1 .244.358.308.308 0 0 1-.358.245.307.307 0 0 1 .114-.603z" fill="#D66156"/><path opacity=".909" d="M813.89 118.602c.097.017.162.11.142.21a.178.178 0 0 1-.207.142.175.175 0 0 1-.142-.207.175.175 0 0 1 .207-.145z" fill="#D35F55"/><path opacity=".9" d="M813.909 118.785a.048.048 0 0 1-.06.039.048.048 0 0 1-.039-.06.048.048 0 0 1 .06-.039.058.058 0 0 1 .039.06z" fill="#D15D54"/></g><path d="M811.889 119.008c-.513.234-.837.113-.902-.231-.045-.224.086-.482.227-.606.289-.255.417-1.006.42-1.013.024.159-.01.786-.361 1.223a.381.381 0 0 0-.097.293c.014.255.262.454.713.334z" fill="#BA5F50"/><path d="M810.03 116.73s-.451.014-.517-.155c0 0-.051.238.221.314a.664.664 0 0 0-.135.43c.004.32.207.579.448.575.241-.003.434-.268.43-.589-.007-.32-.206-.578-.447-.575zM813.404 116.678s-.451.014-.517-.155c0 0-.055.238.221.314a.674.674 0 0 0-.135.43c.004.321.207.579.448.576.241-.004.434-.269.43-.589-.006-.324-.206-.579-.447-.576z" fill="#68413A"/><path d="M815.387 118.952s-.186 1.295-2.214 2.163c-1.788.764-3.53-.42-3.919-.713.606.943 1.677 1.498 2.669 1.498 2.954-.003 3.725-2.432 3.725-2.432s.861.024 1.302-.899c-.765.569-1.563.383-1.563.383z" fill="#BA5F50"/><path d="M810.88 115.827s-.723-.196-1.715.093c0 0-.007-.072.179-.234.176-.148.827-.31 1.388-.083 0 .004.292.159.148.224zM812.457 115.787s.723-.21 1.718.062c0 0 .004-.072-.186-.231-.179-.144-.833-.296-1.387-.055 0 0-.29.162-.145.224z" fill="#7C3425"/><path d="M812.956 119.482s-1.146.252-2.221.035c0 0 .204.982 1.126.964.868-.013 1.088-.809 1.095-.999z" fill="#B22828"/><path d="M811.832 119.972c-.71.011-.92-.279-1.013-.437.834.152 1.502.041 2.084-.038-.059.176-.403.465-1.071.475z" fill="#fff"/><path d="M816.473 137.293c-5.702.747-8.116 0-8.116 0s-1.198 3.61-2.266 7.44c.975.506 2.827 1.136 5.062 1.264.207-.617.375-1.206.479-1.467l.747-.014s.048.534.107 1.484c1.287-.041 3.13-.206 4.81-.558-.017-3.206.138-5.91-.823-8.149z" fill="#7D9CC9"/><path d="M812.169 139.221c-2.528 0-4.101-.441-4.125-.448a.092.092 0 0 1 .051-.176c.035.011 3.533.985 8.498-.003a.087.087 0 0 1 .107.072.09.09 0 0 1-.072.107 22.655 22.655 0 0 1-4.459.448z" fill="#9EB9D8"/><path d="M812.035 143.183h-.004c-.293-.014-.513-.11-.675-.293-.279-.31-.378-.861-.323-1.784.048-.813.168-3.283.168-3.307a.09.09 0 0 1 .097-.086.091.091 0 0 1 .086.097c0 .024-.124 2.493-.169 3.31-.048.857.038 1.384.279 1.649.131.145.31.221.551.235a.089.089 0 0 1 .086.096.1.1 0 0 1-.096.083zM812.262 144.298s-.004 0 0 0a.091.091 0 0 1-.093-.089c.079-2.542.186-6.355.186-6.393 0-.052.045-.089.093-.089a.09.09 0 0 1 .089.093c0 .037-.106 3.85-.186 6.392 0 .052-.041.086-.089.086zM816.896 140.738c-1.856 0-2.09-1.76-2.094-1.777-.007-.045.028-.083.072-.09.049-.007.087.028.093.076.007.065.221 1.636 1.925 1.639.045 0 .083.031.083.076.003.045-.035.076-.079.076zM807.53 140.527a.089.089 0 0 1-.086-.076c-.007-.048.028-.089.076-.096 1.763-.204 1.877-1.268 1.88-1.313.003-.048.048-.082.093-.079a.086.086 0 0 1 .079.093c-.003.052-.12 1.25-2.031 1.471h-.011z" fill="#9EB9D8"/><path d="M816.607 143.779a.517.517 0 0 1-.458.572l-1.966.22a.518.518 0 0 1-.572-.458l-.059-.513a.517.517 0 0 1 .458-.572l1.967-.22a.516.516 0 0 1 .571.458l.059.513zM810.347 144.133a.369.369 0 0 1-.431.289l-2.42-.475a.366.366 0 1 1 .141-.72l2.42.476c.2.041.328.234.29.43zM805.97 144.215s1.818 1.043 5.441 1.515l-.169.806s-3.533-.182-5.482-1.508l.21-.813zM812.254 145.736s1.673.103 5.327-.606v.844s-2.276.795-5.248.565l-.079-.803z" fill="#CAE0EF"/><path d="M814.6 137.579l-.455.049.176 1.634.455-.05-.176-1.633zM809.67 137.579l-.237 1.626.453.066.237-1.625-.453-.067z" fill="#6888AF"/><path d="M811.896 138.847a.376.376 0 1 0 0-.752.376.376 0 0 0 0 .752z" fill="#CAE0EF"/><path d="M761.034 166.532c.069 4.774.331 11.056 1.253 15.586.328 1.601.217 1.66 2.604 1.649 2.537-.013 11.828.052 14.234.045 4.752-.017 5.923-.014 7.955-.737 2.19-.782 3.794-1.536 5.957-2.314 2.124-.765 4.855-.572 7.258-.586 5.093-.028 16.015.255 24.431.214 8.415-.045 19.334-.438 24.427-.462 2.403-.014 5.134-.234 7.265.51 2.173.758 3.781 1.495 5.982 2.252 2.038.703 3.209.689 7.961.658 2.406-.017 11.697-.175 14.234-.189 2.387-.014 2.276-.073 2.586-1.674.878-4.54 1.075-10.822 1.095-15.596.021-4.946-1.05-16.984-1.253-19.326-.317-3.662-1.584-4.64-2.917-6.273-1.522-1.863-2.148-3.162-3.384-4.76-1.123-1.446-2.218-2.431-3.423-3.733-.599-.648-.95-1.571-1.116-2.442-.258-1.344-3.047-7.633-5.822-12.686-1.977-3.592-4.738-7.364-6.102-8.804-2.252-2.376-3.85-2.81-5.995-3.045-10.44-1.14-21.393-1.536-33.927-1.47-12.534.065-23.481.571-33.91 1.818-2.142.255-3.736.706-5.964 3.104-1.35 1.453-4.074 5.252-6.012 8.865-2.724 5.081-5.451 11.401-5.696 12.745-.158.871-.499 1.797-1.091 2.452-1.188 1.316-2.276 2.311-3.382 3.768-1.222 1.609-1.835 2.914-3.336 4.795-1.316 1.646-2.572 2.638-2.851 6.303-.186 2.338-1.137 14.39-1.061 19.333zm15.626-39.672c.947-2.577 2.259-6.169 3.819-9.272a55.736 55.736 0 0 1 5.03-8.136c1.092-1.447 1.45-1.581 3.433-1.794 7.576-.817 24.62-1.53 35.405-1.585 10.781-.055 27.833.482 35.418 1.223 1.984.193 2.345.324 3.451 1.76 1.232 1.598 3.302 4.567 5.113 8.084 1.591 3.089 2.937 6.665 3.912 9.234.323.854.444 1.843-.754 1.805-2.373-.076-18.77-.703-23.698-.865-5.457-.179-18.125-.31-23.335-.282-5.213.028-17.875.286-23.332.52-4.924.214-21.318 1.006-23.687 1.106-1.202.051-1.092-.937-.775-1.798z" fill="#14AFEB"/><path d="M887.56 178.332l-16.232.083.079 15.613a2.458 2.458 0 0 0 2.469 2.445l11.319-.058a2.458 2.458 0 0 0 2.444-2.47l-.079-15.613zM761.871 178.976l16.232-.082.079 15.613a2.456 2.456 0 0 1-2.445 2.469l-11.318.059a2.457 2.457 0 0 1-2.469-2.445l-.079-15.614z" fill="#192D4B"/><path d="M887.567 178.332l-125.69.644.038 7.302 125.689-.643-.037-7.303z" fill="#192D4B"/><path d="M874.671 130.618c.159.541.482.627 1.144.544 4.607-.554 9.245-1.354 12.898-2.049.689-.131 1.161-.148 1.577-.762.617-.909 1.223-1.835 1.164-2.889-.058-1.03-1.67-2.425-2.565-2.838-2.345-1.085-4.845-1.519-7.527-1.743a13.39 13.39 0 0 0-2.411.003c-.709.072-.885.551-1.046 1.209-.369 1.502-.538 3.045-.613 4.591-.809-.01-3.289-.175-3.206.762.069.978.32 2.252.585 3.172zM774.832 127.955c.068-.94-2.407-.747-3.217-.73-.092-1.543-.275-3.086-.661-4.584-.168-.655-.347-1.134-1.057-1.199a13.663 13.663 0 0 0-2.41.021c-2.682.251-5.179.713-7.51 1.822-.888.423-2.49 1.832-2.538 2.862-.048 1.054.568 1.974 1.192 2.879.42.61.895.62 1.584.744 3.656.658 8.305 1.409 12.916 1.919.664.072.988-.014 1.136-.558.262-.923.499-2.198.565-3.176z" fill="#14AFEB"/><path d="M762.659 173.552c.74-1.974 1.298-3.851 2.038-5.832.568-1.525 1.657-3.871 2.4-5.345.989-1.957 3.523-1.812 5.506-1.795 2.176.021 7.655.238 9.803.279 1.97.035 4.418-.051 5.09-2.548l37.112-.19 37.113-.189c.699 2.49 3.147 2.552 5.116 2.497 2.149-.062 7.624-.334 9.8-.379 1.984-.038 4.518-.207 5.523 1.739.761 1.468 1.87 3.799 2.455 5.322.761 1.97 1.336 3.844 2.097 5.81.3.779.755 1.199 1.281 1.619-.165 2.47-.423 4.888-.823 6.944-.309 1.602-.199 1.66-2.585 1.674-2.538.014-11.828.176-14.235.19-4.752.034-5.919.048-7.961-.658-2.197-.758-3.809-1.499-5.981-2.256-2.132-.741-4.862-.524-7.266-.51-5.093.027-16.012.42-24.427.465-8.416.041-19.338-.241-24.431-.214-2.403.014-5.137-.179-7.258.586-2.163.778-3.767 1.536-5.957 2.314-2.032.724-3.203.724-7.954.738-2.407.01-11.697-.059-14.235-.045-2.386.014-2.276-.048-2.603-1.647-.42-2.052-.703-4.467-.892-6.933.533-.427.981-.854 1.274-1.636z" fill="#0082C8"/><path d="M771.787 174.256c.142-.448 19.355 2.501 52.918 2.328 33.562-.172 52.745-3.316 52.89-2.872.403 1.233-18.002 5.366-52.876 5.545-34.875.179-53.324-3.768-52.932-5.001z" fill="#14AFEB"/><path d="M786.769 157.167c.455-1.708 2.497-2.927 4.053-3.978a71.037 71.037 0 0 1 3.777-2.383c.39-.228 1.243-.758 1.88-.872.744-.131 2.042.007 2.769.028 2.923.086 5.341.137 8.264.186 2.923.048 5.85.079 8.774.089 1.484.007 5.743-.017 8.284-.031 2.545-.014 6.801-.034 8.285-.055a676.082 676.082 0 0 0 17.034-.451c.723-.028 2.022-.179 2.765-.055.637.107 1.498.63 1.887.851a69.564 69.564 0 0 1 3.802 2.345c1.567 1.037 3.622 2.236 4.094 3.937.506 1.829-1.088 4.089-2.021 5.494-2.882 4.353-5.554 8.559-9.074 12.279-1.487 1.571-3.581 1.553-5.578 1.636-2.713.114-14.314.344-21.066.396-6.753.017-18.353-.096-21.07-.179-1.997-.062-4.091-.021-5.596-1.578-3.557-3.682-6.27-7.863-9.197-12.186-.936-1.398-2.555-3.64-2.066-5.473z" fill="#0082C8"/><path d="M809.01 171.055l31.331-.162a1.794 1.794 0 0 0 1.784-1.801l-.045-8.759a1.793 1.793 0 0 0-1.801-1.784l-31.331.162a1.794 1.794 0 0 0-1.783 1.801l.044 8.759a1.796 1.796 0 0 0 1.801 1.784z" fill="#14AFEB"/><path d="M810.422 167.414v-4.784h2.944v.575h-2.207v1.598h1.673v.555h-1.673v2.056h-.737zM815.79 165.413c-.069.007-.145.007-.224.007h-.675v1.994h-.737v-4.784h1.416c1.057 0 1.707.424 1.707 1.36 0 .655-.285 1.075-.785 1.278l1.033 1.919v.224h-.675l-1.06-1.998zm-.902-.541h.654c.647 0 .978-.231.978-.84 0-.596-.348-.834-.978-.834h-.654v1.674zM818.331 162.63h2.93v.575h-2.194v1.492h1.605v.547h-1.605v1.612h2.27v.562h-3.006v-4.788zM822.129 162.63h2.93v.575h-2.193v1.492h1.604v.547h-1.604v1.612h2.269v.562h-3.006v-4.788zM825.621 162.857v-.227h.702l.854 3.751h.014l.943-3.751h.654l.937 3.751h.014l.854-3.751h.633v.227l-1.126 4.557h-.785l-.874-3.606h-.014l-.895 3.606h-.785l-1.126-4.557zM831.354 167.187l1.577-4.557h.792l1.57 4.557v.224h-.702l-.444-1.34h-1.757l-.43 1.34h-.609v-.224h.003zm1.215-1.66h1.395l-.689-2.112h-.013l-.693 2.112zM836.708 167.415v-1.912l-1.46-2.632v-.237h.675l1.174 2.166h.007l1.147-2.166h.595v.237l-1.401 2.611v1.933h-.737zM824.65 149.141a3.775 3.775 0 1 0-.001-7.55 3.775 3.775 0 0 0 .001 7.55z" fill="#fff"/><path d="M824.649 148.891a3.523 3.523 0 1 0 0-7.047 3.523 3.523 0 0 0 0 7.047z" fill="#fff"/><path d="M821.207 146.098c.124.585.392 1.116.764 1.553a5.635 5.635 0 0 1 5.496-4.398 3.245 3.245 0 0 0-.169-.203 5.626 5.626 0 0 0-6.091 3.048z" fill="#0046B4"/><path d="M823.069 148.516a3.523 3.523 0 0 0 4.597-4.967 5.635 5.635 0 0 0-4.597 4.967zM825.559 142.55c.496 0 .975.065 1.433.182a3.519 3.519 0 0 0-5.771 1.857 5.627 5.627 0 0 1 4.338-2.039z" fill="#46B400"/><path d="M791.58 149.036c-.155-.396-2.201-.944-3.609-1.34-2.531-.71-7.255-2.101-9.624-2.852-2.28-.723-4.873-1.65-7.028-2.7-.992-.483-1.608-.82-2.738-.572-1.074.234-1.914.537-2.889.975-.482.217-1.108.582-1.422.978-.285.361-.461 1.105-.575 1.536-.32 1.216-.482 2.239-.53 3.327-.072 1.636.658 2.835 2.211 3.489 2.038.861 4.552 1.154 6.725 1.495 2.365.372 4.751.589 7.145.655 1.308.034 2.558.041 3.815-.369 1.136-.372 2.035-.823 3.113-1.34 1.132-.544 2.258-1.216 3.364-1.75.368-.179 2.272-.947 2.042-1.532z" fill="#BAE2EE"/><path d="M770.389 150.779a3.01 3.01 0 1 0-.001-6.021 3.01 3.01 0 0 0 .001 6.021zM780.757 151.346a2.866 2.866 0 0 0-4.052-4.053 2.865 2.865 0 1 0 4.052 4.053z" fill="#fff"/><path d="M764.106 149.153c.041.493.581 1.274.991 1.519 1.381.816 3.726 1.333 5.313 1.636 2.631.499 5.258.751 7.93.933 1.009.069 3.165.09 3.282-.175.069-.155-1.061-.203-2.331-.321-2.459-.227-4.972-.54-7.393-1.033-1.498-.306-3.905-.971-5.337-1.729-.737-.389-1.133-.895-1.147-1.491-.028-1.316.179-2.639.558-3.71.313-.882 1.78-1.898 1.425-1.887-.451.013-1.377.609-2.028 1.085-.251.186-.489.506-.564.713-.39 1.081-.83 2.827-.699 4.46z" fill="#fff"/><path d="M859.603 150.207c1.109.52 2.245 1.182 3.382 1.715 1.081.507 1.986.948 3.126 1.309 1.264.396 2.51.379 3.819.331a55.795 55.795 0 0 0 7.138-.727c2.169-.365 4.683-.682 6.711-1.564 1.546-.671 2.266-1.877 2.173-3.513-.059-1.088-.234-2.108-.565-3.32-.117-.431-.3-1.171-.589-1.529-.317-.39-.947-.751-1.432-.961-.982-.431-1.825-.724-2.9-.948-1.132-.234-1.745.107-2.734.603-2.145 1.071-4.727 2.025-6.996 2.773-2.359.775-7.07 2.215-9.594 2.952-1.405.41-3.44.978-3.595 1.374-.227.585 1.688 1.333 2.056 1.505z" fill="#BAE2EE"/><path d="M878.724 150.224a3.01 3.01 0 1 0-.002-6.02 3.01 3.01 0 0 0 .002 6.02zM872.419 150.878a2.867 2.867 0 0 0-.001-4.053 2.866 2.866 0 1 0 .001 4.053z" fill="#fff"/><path d="M884.271 144.082c-.076-.206-.317-.527-.572-.709-.654-.468-1.587-1.054-2.038-1.064-.355-.007 1.123.992 1.446 1.873.393 1.065.61 2.387.596 3.703-.007.596-.396 1.106-1.129 1.502-1.423.771-3.823 1.464-5.32 1.784-2.414.517-4.928.854-7.383 1.109-1.267.131-2.4.189-2.328.344.121.262 2.276.221 3.282.142 2.668-.21 5.296-.493 7.92-1.016 1.583-.317 3.925-.858 5.295-1.688.41-.248.944-1.037.978-1.526.117-1.636-.344-3.379-.747-4.454z" fill="#fff"/><path d="M801.118 127.553c5.458-.234 18.123-.492 23.332-.52 5.214-.028 17.878.103 23.336.282.634.021 1.46.049 2.417.083l1.598 6.999c-6.646.575-15.602 1.051-27.671 1.288-12.062-.237-21.011-.713-27.653-1.285l1.911-6.723c1.095-.052 2.028-.093 2.73-.124z" fill="#5AC8F5"/><path opacity=".3" d="M856.687 104.647l8.267 21.93 2.111 5.597c-2.231.592-5.764 1.254-11.353 1.85l-1.746-7.433-5.32-22.612c2.728.179 5.403.403 8.041.668zM799.558 104.266l-5.251 22.326-1.746 7.433c-5.585-.596-9.118-1.254-11.353-1.846l2.111-5.601 8.12-21.534c2.668-.306 5.368-.565 8.119-.778z" fill="#fff"/></g><defs><linearGradient id="paint0_linear" x1="854.376" y1="108.221" x2="854.443" y2="115.679" gradientUnits="userSpaceOnUse"><stop stop-color="#7C3425"/><stop offset="1" stop-color="#60261D"/></linearGradient><linearGradient id="paint1_linear" x1="813.159" y1="119.267" x2="814.653" y2="128.758" gradientUnits="userSpaceOnUse"><stop stop-color="#7C3425"/><stop offset="1" stop-color="#60261D"/></linearGradient><linearGradient id="paint2_linear" x1="817.867" y1="131.683" x2="818.095" y2="137.519" gradientUnits="userSpaceOnUse"><stop stop-color="#D17462"/><stop offset="1" stop-color="#BA5F50"/></linearGradient><linearGradient id="paint3_linear" x1="815.863" y1="135.301" x2="811.981" y2="133.474" gradientUnits="userSpaceOnUse"><stop stop-color="#D17462"/><stop offset="1" stop-color="#BA5F50"/></linearGradient></defs></svg>