<svg width="375" height="200" fill="none" xmlns="http://www.w3.org/2000/svg" viewBox="0 0 375 200"><path fill="#F5FCFF" d="M0 0h375v200H0z"/><g clip-path="url(#clip0)"><path d="M288.389 195.79c.099 1.407.229 2.809.384 4.21h7.283a28.244 28.244 0 0 0 2.528-3.364c-3.307 1.381-7.158 1.044-10.195-.846zM287.964 168.893c.031.27.057.545.083.825.425.856.877 1.827 1.37 2.953 3.369-.244 5.341-3.893 6.665-6.628 1.323-2.735 2.273-5.627 2.896-8.59-.955-3.816-2.533-6.426-4.339-8.196-.073 3.316-.338 6.644-.986 9.851-.779 3.815-2.523 7.464-5.689 9.785zM292.111 185.497a74.211 74.211 0 0 1-1.396 3.561c3.804.774 7.921.462 11.471-1.1.452-1.983.716-4.147.737-6.494a13.497 13.497 0 0 1-10.812 4.033z" fill="#2C9BD0"/><path d="M287.855 148.95c-.203 2.611-.898 5.835-2.16 8.902a52.18 52.18 0 0 1 1.537 6.115c.109.56.207 1.142.301 1.733.067.426.135.857.197 1.298 2.72-2.377 3.997-5.954 4.568-9.509.503-3.151.69-6.369.721-9.582a12.278 12.278 0 0 0-2.403-1.298c-.503.836-1.485 1.615-2.761 2.341zM292.573 180.089c.156.374.317.753.477 1.142.167.399-.015 1.381-.41 2.683 3.982.229 7.9-1.65 10.226-4.91-.135-2.232-.483-4.62-1.095-7.168-.011-.047-.026-.094-.037-.14-1.91 3.97-4.739 7.49-9.161 8.393z" fill="#2C9BD0"/><path d="M290.102 174.234c.54 1.261 1.142 2.694 1.827 4.329 4.776-.763 7.47-5.154 9.157-9.432a73.899 73.899 0 0 1-1.418-7.843 37.755 37.755 0 0 1-2.963 7.106c-1.428 2.627-3.566 5.342-6.603 5.84zM290.061 190.6a127.964 127.964 0 0 1-1.511 3.337c3.218 2.471 7.781 2.559 11.144.234a.733.733 0 0 1 .348-.135 27.412 27.412 0 0 0 1.625-4.106c-3.675 1.313-7.802 1.505-11.606.67z" fill="#2C9BD0"/><path d="M287.725 166.998c.088.618.166 1.246.239 1.895 3.166-2.315 4.91-5.964 5.689-9.785.654-3.213.918-6.535.986-9.851a11.94 11.94 0 0 0-1.625-1.345c-.031 3.213-.218 6.431-.721 9.582-.566 3.55-1.848 7.127-4.568 9.504z" fill="#fff"/><path d="M289.422 172.671c.218.494.441 1.013.68 1.563 3.037-.498 5.175-3.213 6.608-5.84a38.16 38.16 0 0 0 2.964-7.106c-.011-.093-.026-.192-.037-.285a30.153 30.153 0 0 0-.654-3.55c-.623 2.969-1.572 5.855-2.896 8.59-1.324 2.73-3.296 6.379-6.665 6.628z" fill="#0AB9B9"/><path d="M291.935 178.563c.207.493.415.996.638 1.526 4.422-.909 7.251-4.423 9.161-8.393a51.946 51.946 0 0 0-.301-1.194 68.595 68.595 0 0 1-.342-1.371c-1.692 4.283-4.381 8.674-9.156 9.432z" fill="#fff"/><path d="M292.64 183.914c-.15.488-.327 1.018-.529 1.583a13.508 13.508 0 0 0 10.817-4.033c.005-.799-.01-1.619-.062-2.46-2.331 3.26-6.244 5.144-10.226 4.91z" fill="#0AB9B9"/><path d="M290.715 189.058c-.213.514-.436 1.028-.654 1.537 3.804.835 7.931.643 11.611-.675.192-.633.369-1.287.519-1.962-3.555 1.562-7.666 1.874-11.476 1.1z" fill="#fff"/><path d="M288.55 193.937c-.083.177-.166.348-.244.519.011.229.026.462.042.691.015.213.026.431.041.643 3.042 1.895 6.888 2.227 10.189.846a27.388 27.388 0 0 0 1.469-2.605.82.82 0 0 0-.347.135c-3.369 2.33-7.932 2.237-11.15-.229z" fill="#0AB9B9"/><path d="M257.567 164.014c.042-.582.078-1.148.11-1.703.077-1.344.134-2.621.176-3.82-2.403.607-3.919.965-3.919.965s.182 3.623.353 8.736l3.265-4.023a.776.776 0 0 0 .015-.155z" fill="#2C9BD0"/><path d="M194.585 166.323h-.037a71.191 71.191 0 0 1-1.567-.098c1.884 2.86 3.327 4.713 3.327 4.713l-.083-4.563c-.555-.01-1.1-.026-1.64-.052z" fill="#FF8868"/><path d="M266.111 133.664c-1.562-1.458-2.564-3.618-2.746-6.493-1.505 4.749-2.429 10.786.826 14.331.571-.047 1.147-.088 1.723-.13l.197-7.708z" fill="#9F5E39"/><path d="M100.754 133.145c.296-.747.597-1.474.903-2.185-.363.441-.68 1.142-.903 2.185z" fill="#2C9BD0"/><path d="M107.71 195.251c-.078-.011-.161-.016-.239-.021l-.524-.047c-.094-.01-.182-.015-.276-.026a94.387 94.387 0 0 1-.529-.047c-.083-.005-.171-.015-.254-.02l-.634-.047a1.592 1.592 0 0 0-.155-.01c-.265-.021-.53-.037-.794-.058l-.213-.015c-.198-.01-.395-.026-.592-.036a25.337 25.337 0 0 0-.275-.016l-.545-.031-.28-.016-.597-.031c-.068-.005-.14-.005-.208-.01-.27-.016-.54-.026-.81-.037-.046 0-.093-.005-.14-.005-.223-.01-.446-.021-.664-.026-.088-.005-.177-.005-.265-.01-.182-.005-.363-.016-.545-.021-.093-.005-.187-.005-.28-.01a19.468 19.468 0 0 1-.55-.021c-.078 0-.156-.005-.234-.005a178.89 178.89 0 0 0-1.542-.042c-.072 0-.14-.005-.212-.005-.177-.005-.359-.01-.53-.01-.088 0-.182-.005-.27-.005-.16-.006-.322-.006-.477-.011-.078 0-.161-.005-.24-.005-.207-.005-.41-.005-.606-.01h-.078c-.234-.006-.462-.006-.685-.011h-.161c-.166 0-.327-.005-.488-.005h-.229c-.13 0-.26 0-.384-.005h-3.28a1.498 1.498 0 0 1-1.178.01s-.763 1.817-1.921 5.43h22.262c-.005-1.262.063-2.944.364-4.672-.244-.042-.493-.067-.742-.093z" fill="#063155"/><path d="M105.561 145.052l-.483-.327c-.223.078-.441.146-.649.213.322.036.701.073 1.132.114zM88.873 172.583c.187-.041.379-.078.576-.114h.01l.592-.109h.005c.01 0 .021-.005.032-.005.685-.12 1.427-.229 2.221-.343.265-.036.535-.072.815-.114.488-.067.997-.135 1.52-.202a290.155 290.155 0 0 0 3.452-.483c.68-.104 1.381-.213 2.108-.332.384-.063.773-.13 1.173-.203.296-.052.576-.114.857-.176a17.69 17.69 0 0 0 2.335-.696 14.316 14.316 0 0 0 3.068-1.583 12.839 12.839 0 0 0 1.386-1.09c.415-.379.789-.763 1.126-1.152-5.564-1.931-4.702-9.727-1.879-12.676-2.144-1.578-3.872-3.01-5.097-3.877a10.753 10.753 0 0 0-.675-.452c-.104-.062-.197-.119-.29-.171-.276-.15-.504-.234-.68-.249 0 0-.654.171-1.506.239a.417.417 0 0 0-.01.078c-.057.352-.114.7-.177 1.053-.01.042-.015.088-.025.13-.063.332-.125.664-.192.997 0 .01-.006.026-.01.036-.151.732-.323 1.458-.51 2.175-1.11 4.261-2.802 8.175-4.858 11.263-1.552 2.331-3.306 4.184-5.165 5.373l-.67 2.792.343-.078c.047-.01.083-.02.125-.031zM88.899 194.565H92.179c.125 0 .255 0 .384.006h.229c.16 0 .322.005.488.005h.16c.224.005.452.005.686.01h.078c.202.005.404.005.607.011.078 0 .16.005.239.005.155.005.316.005.477.01.088 0 .182.005.27.005.177.006.353.011.53.011.072 0 .14.005.212.005.504.01 1.023.026 1.542.041.078 0 .156.006.233.006.182.005.37.01.55.02.094.006.188.006.281.011.182.005.363.015.545.021.088.005.177.005.265.01.223.01.441.015.664.026.047 0 .094.005.14.005.27.01.54.026.81.036.068.006.14.006.208.011l.597.031.28.015.545.032.275.015c.197.011.394.026.592.037l.213.015c.264.016.529.036.794.057.052.005.104.011.155.011l.634.046c.083.005.171.016.254.021l.529.047c.094.01.182.015.276.026l.524.046c.078.006.161.016.239.021l.742.078c.073-.405.156-.815.254-1.225.296-1.225.722-2.424 1.339-3.478 2.601-4.443 2.876-12.436 2.876-12.436s-.145.046-.41.14c-.488.166-1.396.483-2.621.913-.67.234-1.438.509-2.289.81-.499.177-1.028.363-1.584.566l-1.993.716c-.482.177-.976.353-1.484.54-.68.244-1.376.504-2.092.763-.135.047-.265.099-.4.145-.903.333-1.718.566-2.46.727-.66.14-1.256.218-1.806.249-.27.016-.525.016-.769.005-.088-.005-.17-.005-.26-.01-.046-.005-.093-.005-.134-.005v-.005a6.567 6.567 0 0 1-1.905-.416 6.69 6.69 0 0 1-1.412-.757c-.836-.571-1.443-1.21-2.055-1.568a1.642 1.642 0 0 0-.488-.197l-.005.01c-1.516-.332-2.606 1.936-2.617 1.962 0 0-3.436 9.65 1.6 11.793.399.177.793.166 1.188.005z" fill="#2C9BD0"/><path d="M103.048 144.813s-1.157-1.52-2.533-2.626a41.966 41.966 0 0 1-.498 6.608c.857-.073 1.505-.239 1.505-.239l1.526-3.743z" fill="#FF8868"/><path d="M222.427 145.021c-.42-1.458-.695-3.26-.701-5.46-.949-1.308-.747-2.726.021-4.075-.638-9.172-7.827-11.44-11.035-11.175-4.246.353-9.39 2.683-10.942 12.794-.483 3.146-1.121 5.201-1.832 6.582 1.656.524 3.472 1.111 5.533 1.713 5.907 1.734 13.314.841 18.956-.379z" fill="#063155"/><path d="M174.554 145.172v-5.944c-4.246 3.883-9.54 6.499-13.495-1.967l-.769 7.34a66.137 66.137 0 0 1 14.264.571z" fill="#FF8868"/><path d="M174.554 139.228c1.713-1.567 3.26-3.342 4.469-4.671 4.589-5.035-.742-9.177-.742-9.177 17.617 1.038 10.651-17.025 5.331-11.695-.763.763-1.454 1.443-2.071 2.051-2.18 2.138-5.528 2.408-8.108.768-3.343-2.128-3.883 2.211-3.883 2.211-3.55-4.739-4.147 1.334-4.147 1.334-9.769-3.254-5.772 13.47-5.772 13.47a31.014 31.014 0 0 0 1.422 3.737c3.961 8.471 9.26 5.85 13.501 1.972z" fill="#063155"/><path d="M279.835 166.059c2.679-.161 5.3-.711 7.392-2.092a52.18 52.18 0 0 0-1.537-6.115c-1.308 3.177-3.234 6.193-5.855 8.207z" fill="#2C9BD0"/><path d="M276.975 167.709c-2.393.966-5.216 1.158-8.518.198-.804-.234-1.562-.701-2.278-1.34a52.724 52.724 0 0 1-8.612-2.553c-.005.051-.005.109-.01.16-.109 1.516-.244 3.11-.415 4.786a71.285 71.285 0 0 0 30.105 3.182c1.044-.114 1.033 1.521 0 1.63a72.47 72.47 0 0 1-30.282-3.156 158.251 158.251 0 0 1-.55 4.329 71.015 71.015 0 0 0 32.016 1.702 82.034 82.034 0 0 0-.374-6.934c-.026-.275-.057-.55-.083-.825a61.558 61.558 0 0 0-.239-1.895 43.77 43.77 0 0 0-.197-1.298c-3.026 1.775-6.929 2.087-10.563 2.014z" fill="#2C9BD0"/><path d="M256.171 176.575c-.145.981-.306 1.972-.477 2.995l-.089.55c4.496 1.443 9.297 1.915 14.01 2.346 6.239.576 12.81 1.106 18.754-1.188.036-1.023.057-2.014.062-2.98a72.694 72.694 0 0 1-32.26-1.723zM288.348 195.147c-2.123 1.277-4.584 1.65-7.059 1.749-3.203.125-6.426.052-9.629.01-5.528-.067-11.056-.337-16.522-1.116.291 1.023.634 2.414.961 4.21h32.674a105.968 105.968 0 0 1-.384-4.21c-.015-.212-.031-.43-.041-.643z" fill="#2C9BD0"/><path d="M280.245 195.287c2.788-.042 5.575-.291 7.911-1.962.031-.021.062-.036.093-.052-.15-3.41-.135-6.831.047-10.251-5.98 2.071-12.416 1.655-18.676 1.079-4.796-.441-9.675-.924-14.264-2.356l-.711 4.515c10.215 4.397 21.821 5.03 32.488 1.724 1.007-.312 1.433 1.261.436 1.572-10.843 3.364-22.626 2.746-33.048-1.588a136.058 136.058 0 0 1-.208 5.445s.104.203.27.649c5.44.836 10.947 1.121 16.454 1.204 3.063.047 6.135.073 9.208.021zM264.393 164.491c-1.303-1.879-2.414-4.303-3.337-6.815-1.179.306-2.258.581-3.198.82a167.606 167.606 0 0 1-.176 3.82 53.742 53.742 0 0 0 6.711 2.175z" fill="#2C9BD0"/><path d="M287.242 173.777c1.033-.114 1.044-1.744 0-1.63a71.445 71.445 0 0 1-30.105-3.182c-.057.545-.114 1.101-.182 1.661a72.574 72.574 0 0 0 30.287 3.151z" fill="#fff"/><path d="M256.41 174.95c-.078.535-.156 1.08-.239 1.63a72.84 72.84 0 0 0 32.26 1.723c.005-.555.005-1.111-.005-1.65a71.029 71.029 0 0 1-32.016-1.703z" fill="#0AB9B9"/><path d="M269.615 182.471c-4.708-.436-9.509-.903-14.01-2.346l-.254 1.625c4.589 1.427 9.468 1.91 14.264 2.356 6.265.576 12.696.992 18.676-1.079v-.026c.031-.582.052-1.153.072-1.713-5.943 2.284-12.509 1.754-18.748 1.183z" fill="#fff"/><path d="M254.515 187.968c10.428 4.334 22.211 4.952 33.049 1.589 1.002-.312.571-1.885-.436-1.573-10.667 3.306-22.273 2.673-32.488-1.724l-.109.701-.016 1.007z" fill="#0AB9B9"/><path d="M288.156 193.325c-2.336 1.671-5.118 1.92-7.911 1.962a301.01 301.01 0 0 1-9.213-.021c-5.507-.083-11.015-.368-16.454-1.204.145.384.337.955.56 1.723 5.471.784 10.994 1.049 16.522 1.116 3.203.042 6.426.109 9.628-.01 2.471-.094 4.937-.467 7.06-1.749-.016-.229-.026-.462-.042-.691a93.625 93.625 0 0 1-.057-1.183c-.031.021-.062.036-.093.057z" fill="#fff"/><path d="M264.393 164.491a51.983 51.983 0 0 1-6.716-2.18c-.032.555-.068 1.121-.109 1.703a52.683 52.683 0 0 0 8.611 2.553c-.628-.565-1.225-1.271-1.786-2.076zM276.975 167.709c3.639.073 7.537-.239 10.558-2.009a68.032 68.032 0 0 0-.301-1.733c-2.092 1.38-4.718 1.931-7.392 2.092a12.284 12.284 0 0 1-2.865 1.65z" fill="#0AB9B9"/><path d="M266.184 166.567c.711.639 1.474 1.106 2.279 1.34 3.296.96 6.124.763 8.517-.198a11.98 11.98 0 0 0 2.86-1.65c2.622-2.014 4.547-5.03 5.855-8.207 1.267-3.073 1.962-6.291 2.16-8.902-1.609.914-3.686 1.744-5.866 2.533-6.249 2.253-14.897 4.625-20.933 6.193.923 2.517 2.034 4.941 3.337 6.815.561.805 1.158 1.511 1.791 2.076z" fill="#2BF1FB"/><path d="M104.969 131.214a5.046 5.046 0 0 0-.903-.597c-5.18 6.914-2.871 11.347 1.012 14.108.156.114.317.223.483.327 2.574.265 7.111.774 13.511 1.64.358-1.271.555-2.849.534-4.827-.031-3.218.473-6.348 1.464-9-1.438-2.31-8.17-11.949-15.727-3.789.228.581.389 1.121.503 1.593.13.509-.467.877-.877.545z" fill="#063155"/><path d="M148.99 161.226c.135.519.234 1.028.302 1.521l.109-1.49c-.052-.01-.115-.015-.172-.026l-.239-.005zM149.188 194.918l.119-18.956c-.711-.56-.919-.903-.919-.903l.561-7.672c-2.024 6.748-10.215 9.816-10.215 9.816s8.741 14.98-8.663 17.606c-17.404 2.627-12.8-17.611-12.8-17.611-10.854 1.178-4.34-10.781-4.34-10.781a10.13 10.13 0 0 1-1.422-.109c-.55.981-3.535 7.402 1.002 12.026l.41-.14s-.28 7.994-2.876 12.437c-.617 1.054-1.043 2.258-1.339 3.478-.098.41-.182.815-.254 1.225-.301 1.728-.369 3.41-.364 4.671h40.664c.244-3.171.436-5.087.436-5.087zM96.244 171.478c-.55.078-1.085.15-1.6.218a94.63 94.63 0 0 1-1.81 3.996c-1.137 2.378 1.349 6.063 2.942 8.067.55-.032 1.148-.109 1.807-.25-.005 0-4.817-5.662-1.34-12.031z" fill="#FF4239"/><path d="M109.931 166.406c.104-.14.208-.275.306-.404a.441.441 0 0 0-.083-.026 11.79 11.79 0 0 1-1.126 1.152c-.14.124-.286.249-.431.374-.296.244-.618.488-.955.716a12.74 12.74 0 0 1-1.085.67c-.534 2.766-.991 7.189.618 10.277.176.332.317.628.436.888.851-.302 1.619-.571 2.289-.81-1.261-1.812-4.21-7.189.031-12.837zM92.304 172.012c-.79.109-1.531.223-2.222.343 0 0-1.998 4.381-1.339 8.455.156.037.322.099.488.198.613.358 1.22.991 2.056 1.567.41.28.872.545 1.411.758a16.498 16.498 0 0 1-1.858-2.907c-1.604-3.187.182-6.592 1.464-8.414zM104.569 169.801c-.716.27-1.495.509-2.336.696-.783 2.123-1.328 5.637 1.085 9.618.281.462.514.861.706 1.214l1.993-.716c-.378-.436-3.576-4.37-1.448-10.812zM100.204 170.875c-.727.12-1.427.234-2.107.333-.93 2.273-2.123 6.914 1.53 10.563.323.321.593.607.821.861.716-.265 1.417-.519 2.092-.763a1.344 1.344 0 0 1-.099-.098s-5.455-4.729-2.237-10.896z" fill="#FF4239"/><path d="M148.99 161.226c-.005-.01-.005-.021-.01-.031-5.398-.711-17.539 1.988-27.069-.727-5.419-1.541-10.096-4.557-13.641-7.168-2.823 2.948-3.685 10.745 1.879 12.676.026.01.057.02.083.026.005-.006.005-.011.011-.016.389.13.809.234 1.266.306 0 .005-.005.005-.005.011.441.067.919.103 1.422.109 0 0-6.514 11.959 4.34 10.781 0 0-4.605 20.243 12.8 17.611 17.404-2.626 8.663-17.606 8.663-17.606s8.19-3.068 10.215-9.816l.337-4.645a11.316 11.316 0 0 0-.291-1.511zM119.072 146.693c5.087.69 11.341 1.603 18.733 2.802a22.08 22.08 0 0 0 2.595.255 27.377 27.377 0 0 1 1.806-.903c-1.635-2.627-2.766-5.835-2.507-12.193.395-9.592-7.972-11.066-7.972-11.066-5.129-1.059-8.767 2.247-10.652 7.277-.991 2.652-1.494 5.782-1.463 9 .015 1.978-.182 3.556-.54 4.828z" fill="#9F5E39"/><path d="M201.924 182.938a31.53 31.53 0 0 1 3.151-.254c.047 0 .093 0 .14-.005.192-.005.379-.01.576-.01v.005c.934-.011 1.926.02 2.969.109a33.57 33.57 0 0 1 4.443.674l.54.125c.467.109.934.228 1.412.363.95-2.642 2.113-5.621 3.011-7.085a54.659 54.659 0 0 0 1.702-3l.291-2.901 1.116-11.072a30.844 30.844 0 0 1-6.437 1.059c-5.252 4.235-12.031 5.414-17.892 5.434-.244 0-.488 0-.726-.005l.083 4.563.249 13.329c.01-.005 1.998-.872 5.372-1.329z" fill="#fff"/><path d="M192.441 193.859l-.047.135c.016-.051.031-.098.052-.15-.005.005-.005.01-.005.015zM192.571 193.475l.046-.14c.016-.046.032-.088.047-.135l-.218.654c0-.005.005-.01.005-.015.037-.12.078-.239.12-.364z" fill="#9F5E39"/><path d="M192.664 193.195v.005a9.73 9.73 0 0 0-.047.135l.047-.14z" fill="#2C9BD0"/><path d="M205.957 198.754c.789-1.484 3.608-2.413 4.989-1.318.077.062.15.124.218.192a92.43 92.43 0 0 1 .633-2.761 1.613 1.613 0 0 1-.405-.462c-.597-1.028-1.671-2.746-1.199-4.018.462-1.251 2.05-.867 2.86-.135.234-.779.384-1.22.384-1.22-.005.016.104-.332.296-.913-.016-.063-.036-.125-.042-.187-.119-.737.172-1.63.779-2.004.213-.617.446-1.287.696-1.983-.478-.134-.95-.254-1.412-.363-.447.587-1.469.877-2.165.94-1.412.119-2.974-.566-3.711-1.801a31.032 31.032 0 0 0-2.087-.047c.016.244-.026.493-.161.752-.181 1.07-1.157 1.49-2.117 1.018-.618-.306-1.189-.862-1.594-1.5-3.374.456-5.362 1.318-5.362 1.318l-.01.021c-.005.005-.005.005-.011.015a.764.764 0 0 1-.046.078c-.005.006-.005.011-.011.021-.02.036-.046.083-.072.135l-.016.031c-.031.057-.062.12-.099.187-.005.01-.01.026-.02.036-.042.073-.083.156-.13.244l-.016.037c-.046.093-.098.192-.155.301a.301.301 0 0 0-.016.031l-.182.358c0 .005-.005.005-.005.01-.062.13-.135.27-.202.41-.005.016-.016.026-.021.042-.067.14-.14.285-.213.441-.01.021-.021.042-.031.068-.073.15-.145.306-.223.472-.016.026-.026.057-.042.083-.078.166-.155.332-.233.509-.016.031-.026.057-.042.088a30.95 30.95 0 0 0-.249.561l-.031.077c-.088.203-.177.405-.265.618a.162.162 0 0 1-.021.047c-.093.213-.181.436-.275.664l-.015.031c-.094.224-.187.457-.281.696-.01.026-.02.057-.031.083-.088.228-.181.462-.27.701a1.04 1.04 0 0 0-.041.114c-.088.239-.177.477-.265.721l-.047.125c-.088.244-.176.498-.264.753-.016.041-.026.083-.042.119a1.532 1.532 0 0 1-.093.28l-.125.369a1.483 1.483 0 0 1-.052.15.53.53 0 0 1-.036.104c-.093.28-.182.561-.27.846-.005.016-.01.037-.016.052a96.997 96.997 0 0 0-.285.94c-.083.295-.171.591-.249.892l-.031.12c-.078.29-.156.586-.234.887-.01.047-.026.094-.036.146-.073.296-.146.597-.213.898-.01.052-.026.104-.036.155-.068.301-.135.608-.203.914-.005.021-.005.036-.01.057h6.659c.504-.436 1.303-.337 1.947 0h7.142c-.524-.208-.919-.586-.566-1.246zm.042-12.379c1.038-.66 2.58-.987 3.758-.545 1.22.462 1.791 1.733.571 2.543-.748.493-1.703.69-2.569.841-.743.125-1.495.057-1.999-.555-1.043-.706-.721-1.672.239-2.284zm-8.783 12.12c-.7.451-1.578.654-2.387.799-.794.145-1.641.182-2.196-.514-1.022-.711-.664-1.635.296-2.221 1.043-.639 2.554-.961 3.737-.54 1.22.436 1.765 1.692.55 2.476zm1.298-3.701c-1.796.109-3.696-1.043-4.106-2.871-.322-1.437 1.137-1.801 2.269-1.661 1.437.177 3.316.93 4.048 2.264.005.01.005.015.011.026.005.01.015.02.02.031.602 1.412-1.121 2.143-2.242 2.211zm-.223-8.72c.098-.94.965-1.983 1.998-1.698 1.189.327 1.858 2.139 2.201 3.167.27.882.208 1.733-.867 1.858-1.578.187-3.493-1.77-3.332-3.327zm5.03 10.433c-1.454-.047-1.407-1.713-.945-2.741.68-1.516 2.279-2.382 3.903-2.403.587-.011 1.396.073 1.614.732.218.654-.285 1.438-.643 1.931-.872 1.209-2.258 2.346-3.795 2.481a.38.38 0 0 1-.134 0zM210.406 200h.285a.837.837 0 0 1 .021-.109 4.212 4.212 0 0 1-.306.109z" fill="#2C9BD0"/><path d="M197.434 190.984c-.721-.239-2.486-.706-2.356.581.14 1.407 1.588 2.549 2.912 2.72.934.12 2.574-.233 2.066-1.49-.53-.929-1.641-1.484-2.622-1.811zM195.753 196.335c-.945-.135-4.371.852-2.539 2.082a.15.15 0 0 1 .057.047c.566.731 1.558.41 2.31.212.483-.129 1.137-.296 1.48-.685.685-.789-.649-1.562-1.308-1.656zM206.321 188.249a.223.223 0 0 1 .072.072c.686.82 2.995.223 3.717-.483.784-.763-.587-1.536-1.246-1.624-.913-.114-4.36.82-2.543 2.035zM200.954 185.907c-.213-.342-.779-1.297-1.293-1.193-.467.093-.69 1.043-.67 1.469.016.394.161.773.359 1.11.415.717 1.136 1.376 1.915 1.677.119.047.296.13.431.119.135-.01.119.042.187-.15.135-.395.02-.82-.099-1.204a8.78 8.78 0 0 0-.83-1.828zM203.523 183.722c.223.187.612.509.924.509.353 0 .42-.415.472-.716 0-.011.011-.021.016-.032.005-.005.005-.015.01-.02.146-.265.171-.525.13-.779-.841.026-1.625.083-2.357.161.229.327.504.628.805.877zM210.857 184.169c.805.197 2.066.015 2.352-.712a33.584 33.584 0 0 0-4.444-.674c.52.68 1.308 1.194 2.092 1.386zM211.651 189.987c-.586-.223-.814.109-.835.732-.042 1.152.617 2.341 1.188 3.322.296-1.168.577-2.175.805-2.974-.244-.478-.654-.882-1.158-1.08zM210.421 197.83c-.342-.306-.789-.43-1.245-.415-.841.026-1.807.452-2.357 1.095-.659.769.057 1.168.831 1.262a8.925 8.925 0 0 0 1.863-.011c.379-.046.971-.114 1.298-.399.051-.265.103-.525.155-.784-.114-.301-.353-.576-.545-.748zM206.03 191.653c-1.51-.062-2.772 1.116-3.151 2.523-.212.789-.129 2.014.914 2.05 1.593-.197 5.211-4.448 2.237-4.573z" fill="#2C9BD0"/><path d="M205.76 188.659c.509.612 1.256.68 1.998.555.867-.151 1.822-.343 2.57-.841 1.22-.81.649-2.081-.571-2.543-1.178-.447-2.72-.115-3.758.545-.96.612-1.282 1.578-.239 2.284zm3.104-2.44c.659.088 2.03.862 1.246 1.625-.722.7-3.026 1.297-3.717.482a.224.224 0 0 0-.072-.072c-1.817-1.22 1.63-2.154 2.543-2.035zM197.44 200h1.946c-.644-.337-1.443-.436-1.946 0zM196.666 196.019c-1.178-.426-2.689-.104-3.737.54-.96.591-1.319 1.515-.296 2.221.555.696 1.401.665 2.196.514.809-.15 1.687-.348 2.387-.799 1.215-.784.67-2.04-.55-2.476zm.395 1.972c-.343.395-.997.561-1.48.685-.747.203-1.744.519-2.31-.212a.15.15 0 0 0-.057-.047c-1.837-1.235 1.594-2.216 2.539-2.082.659.094 1.993.867 1.308 1.656zM213.209 183.458c-.286.726-1.547.908-2.352.711a3.877 3.877 0 0 1-2.092-1.386 28.139 28.139 0 0 0-.882-.063c.737 1.236 2.3 1.916 3.711 1.802.696-.057 1.718-.348 2.165-.94-.192-.041-.374-.088-.55-.124zM200.736 192.551c-.006-.01-.006-.015-.011-.026-.732-1.334-2.616-2.086-4.049-2.263-1.131-.14-2.59.224-2.268 1.661.41 1.827 2.315 2.985 4.106 2.871 1.126-.068 2.85-.8 2.242-2.211-.01-.016-.015-.021-.02-.032zm-2.746 1.734c-1.324-.171-2.772-1.313-2.912-2.72-.13-1.287 1.635-.82 2.356-.581.981.322 2.087.877 2.616 1.811.514 1.257-1.126 1.609-2.06 1.49zM205.215 182.679c-.047 0-.093 0-.14.005.041.254.015.514-.13.779-.005.005-.005.015-.01.02-.005.011-.016.021-.016.032-.052.301-.119.716-.472.716-.317 0-.706-.322-.924-.509a4.485 4.485 0 0 1-.805-.877l-.794.093c.405.639.976 1.194 1.594 1.501.955.472 1.931.051 2.117-1.018.13-.259.172-.509.161-.752v-.006l-.581.016zM192.571 193.475c.041-.093.072-.186.093-.28a.08.08 0 0 1 .011-.026c-.006.005-.006.016-.011.026a5.741 5.741 0 0 1-.047.14l-.046.14zM210.811 199.351c-.327.286-.919.353-1.298.4a8.24 8.24 0 0 1-1.864.01c-.773-.093-1.489-.493-.83-1.261.55-.644 1.516-1.069 2.356-1.095.457-.016.898.109 1.246.415.192.171.431.446.545.737.063-.317.13-.633.197-.939a1.915 1.915 0 0 0-.218-.193c-1.385-1.095-4.199-.16-4.988 1.319-.353.659.042 1.038.571 1.246h3.872a3.19 3.19 0 0 0 .307-.109c.036-.172.067-.348.104-.53zM210.188 190.387c-.473 1.272.602 2.99 1.199 4.017.119.193.254.348.405.462.067-.28.134-.555.202-.82-.566-.981-1.23-2.169-1.189-3.322.021-.623.249-.955.836-.732.509.192.914.597 1.158 1.08.088-.306.171-.576.243-.82-.804-.732-2.387-1.116-2.854.135zM207.245 194.026c.358-.494.856-1.283.643-1.931-.218-.66-1.028-.737-1.614-.732-1.625.021-3.223.887-3.903 2.403-.462 1.028-.504 2.694.944 2.741a.578.578 0 0 0 .135 0c1.542-.13 2.923-1.272 3.795-2.481zm-3.452 2.195c-1.049-.031-1.127-1.256-.914-2.05.379-1.407 1.641-2.585 3.151-2.523 2.974.13-.644 4.381-2.237 4.573zM202.49 187.543c-.343-1.023-1.012-2.84-2.201-3.167-1.038-.285-1.905.753-1.998 1.698-.161 1.557 1.749 3.514 3.332 3.327 1.075-.125 1.137-.976.867-1.858zm-.607 1.396c-.068.192-.047.145-.187.15-.135.011-.306-.072-.431-.119-.779-.301-1.5-.96-1.915-1.677-.198-.337-.343-.716-.358-1.11-.021-.421.207-1.376.669-1.469.509-.104 1.08.846 1.293 1.193.347.571.617 1.194.83 1.828.114.384.234.809.099 1.204zM213.686 187.932c.01.062.031.124.042.187.181-.551.436-1.308.737-2.191-.613.369-.898 1.267-.779 2.004z" fill="#5DF7FE"/><path d="M149.188 194.918s-.198 1.911-.436 5.082h35.306a52.8 52.8 0 0 0-.021-2.891c-.005-.171-.015-.338-.02-.509-12.421 1.775-34.824-1.682-34.829-1.682zM254.573 194.062a8.098 8.098 0 0 0-.27-.649c-.026.405-21.386-8.627-40.876-4.386 0 0-.146.441-.384 1.22a85.834 85.834 0 0 0-1.251 4.614 96.398 96.398 0 0 0-.634 2.762c-.067.306-.129.623-.197.939l-.156.784c-.036.176-.067.358-.103.54-.006.036-.011.073-.021.109h45.407a46.326 46.326 0 0 0-.96-4.21 20.698 20.698 0 0 0-.555-1.723z" fill="#063155"/><path d="M185.21 179.398a2.139 2.139 0 0 1-.498-.41s-1.085 3.675-2.164 5.793c-.841 1.646-2.455 2.232-4.511 2.149-.82-.031-1.708-.166-2.647-.384a28.974 28.974 0 0 1-2.943-.857 59.003 59.003 0 0 1-2.606-.965 98.444 98.444 0 0 1-2.808-1.168c-.4-.171-.794-.342-1.189-.514-.586-.254-1.173-.508-1.749-.763-.477-.207-.95-.415-1.417-.617a94.752 94.752 0 0 0-2.985-1.231 37.3 37.3 0 0 0-2.117-.747c-.026-.01-.057-.016-.083-.026a49.016 49.016 0 0 1-2.845-.965 33.518 33.518 0 0 1-2.102-.872 22.564 22.564 0 0 1-1.703-.867c-.15-.089-.295-.172-.43-.255a13.459 13.459 0 0 1-.997-.674c-.031-.026-.062-.047-.093-.073l-.12 18.956c.005 0 22.408 3.457 34.829 1.677a27.503 27.503 0 0 0 2.621-.494l-1.359-16.667a.142.142 0 0 1-.084-.026zM182.158 148.187c-2.008-1.043-3.716-1.925-4.941-2.564a66.163 66.163 0 0 0-16.927-1.022 61.129 61.129 0 0 0-8.621 1.194l-2.268 15.462s1.214.727 3.197 1.817a143.474 143.474 0 0 0 4.116 2.165c.722.363 1.474.737 2.258 1.11.815.395 1.661.789 2.533 1.179.612.275 1.235.55 1.863.815.769.327 1.547.648 2.336.955.602.233 1.204.462 1.807.685.752.275 1.51.534 2.257.773.644.208 1.283.4 1.916.571.254.068.503.14.752.203a60.926 60.926 0 0 0 3.634.825c1.204.228 2.247.384 3.145.472.955.099 1.75.13 2.409.12a11.178 11.178 0 0 0 1.515-.12c1.21-.192 1.558-.534 1.558-.534l-.083-1.002-.141-1.718-.399-4.859h.005-.005l-1.916-16.527zM184.122 164.725c-.006 0-.012 0-.012-.006.006.006.006.006.012.006zM184.75 164.891c-.006 0-.011-.006-.017-.006.006.006.011.006.017.006z" fill="#fff"/><path d="M194.585 166.323a53.263 53.263 0 0 0 2.367.057c5.86-.02 12.644-1.199 17.892-5.434-4.257.228-9.281-.436-14.435-3.182a2168.782 2168.782 0 0 0-18.251-9.577l1.916 16.527h.005a1.006 1.006 0 0 0 .041.016c.026.01.068.021.12.036h.005a18.119 18.119 0 0 0 .498.13c1.293.327 4.36 1.017 8.233 1.329.508.041 1.033.072 1.567.098h.042z" fill="#F9BB30"/><path d="M185.101 170.066c.052.047.109.098.172.15a6.472 6.472 0 0 0-.779-.628c.026.021.088.063.171.125.104.078.255.192.436.353zM148.954 167.393l-.56 7.671s.207.343.918.904c.031.025.063.046.094.072l.171-.405c.021-.046.036-.093.062-.15.031-.078.068-.166.104-.26a28.218 28.218 0 0 0 .462-1.214c.021-.063.047-.125.068-.187.119-.332.244-.691.373-1.08.047-.14.094-.285.146-.436.083-.259.171-.534.254-.815.021-.072.047-.145.067-.223a46.16 46.16 0 0 0 .504-1.822c.057-.213.109-.431.161-.649.431-1.822.768-3.804.836-5.72-1.983-1.085-3.198-1.816-3.198-1.816l-.109 1.489-.353 4.641zM162.668 181.672c.192-.379.462-.851.83-1.433 1.947-3.078 2.258-7.739 2.201-10.941a95.218 95.218 0 0 1-2.336-.955c-.052 3.545-.675 8.953-3.685 12.104.95.363 1.952.779 2.99 1.225zM180.907 182.523c-.986 1.905-1.977 3.343-2.87 4.412 2.061.078 3.67-.503 4.511-2.149 1.085-2.123 2.164-5.792 2.164-5.792s1.407-3.774-.015-6.701c0 0-.348.347-1.558.534-.404.063-.903.109-1.515.12.649 2.74.939 6.374-.717 9.576z" fill="#FF4239"/><path d="M184.712 178.994c.171.181.338.316.498.41-.306-.255-.498-.41-.498-.41zM173.122 185.482s-.276.093-.68.213c1.017.347 2.008.638 2.943.856 1.941-2.554 5.102-7.365 4.396-10.817-.223-1.1-.415-2.066-.571-2.907a37.755 37.755 0 0 1-3.145-.472c2.844 7.505-2.943 13.127-2.943 13.127zM164.37 182.077s-.114.088-.28.213c.576.249 1.157.508 1.749.763.317-.514.784-1.184 1.454-2.071 2.984-3.971 2.948-7.838 2.475-10.226a58.492 58.492 0 0 1-2.257-.773c1.204 8.045-3.141 12.094-3.141 12.094z" fill="#FF4239"/><path d="M167.91 182.876s-.4.332-.887.691c.939.404 1.879.794 2.808 1.167.342-.373.83-.825 1.51-1.385 4.262-3.52 3.618-8.856 3.016-11.347a57.93 57.93 0 0 1-1.931-.467c-.249-.063-.503-.135-.753-.203 2.414 7.137-3.763 11.544-3.763 11.544zM157.477 179.674c.026.01.057.015.083.026 1.339-2.066 3.576-6.338 3.94-12.172a106.78 106.78 0 0 1-2.533-1.179c-.301 3.25-1.277 8.269-4.334 12.359.841.312 1.78.639 2.844.966zM152.53 177.831c1.397-2.642 3.847-7.874 4.184-12.598-.924-.467-1.785-.913-2.574-1.334-.187 2.429-.872 8.077-3.312 13.065.477.275 1.043.566 1.702.867z" fill="#FF4239"/><path d="M163.498 180.239a17 17 0 0 0-.83 1.433c.467.202.939.405 1.417.618.171-.125.28-.213.28-.213s4.345-4.044 3.135-12.094a66.507 66.507 0 0 1-1.806-.685c.062 3.202-.249 7.863-2.196 10.941z" fill="#F9BB30"/><path d="M167.287 180.976a31.382 31.382 0 0 0-1.453 2.072l1.189.513c.487-.358.887-.69.887-.69s6.172-4.407 3.763-11.549a63.951 63.951 0 0 1-1.915-.571c.478 2.393.514 6.255-2.471 10.225z" fill="#3DA2D0"/><path d="M171.346 183.343c-.68.561-1.168 1.018-1.51 1.386a59.85 59.85 0 0 0 2.606.966c.404-.12.68-.213.68-.213s5.787-5.627 2.948-13.132a43.088 43.088 0 0 1-1.703-.359c.597 2.497 1.241 7.833-3.021 11.352z" fill="#F9BB30"/><path d="M175.385 186.551c.939.213 1.832.353 2.647.384.893-1.074 1.884-2.507 2.87-4.412 1.656-3.202 1.365-6.841.717-9.576a20.38 20.38 0 0 1-2.409-.12c.161.846.348 1.806.571 2.907.706 3.452-2.455 8.269-4.396 10.817zM159.683 180.447c3.011-3.146 3.634-8.554 3.685-12.104-.628-.27-1.25-.54-1.863-.815-.363 5.834-2.6 10.106-3.94 12.172.66.202 1.371.456 2.118.747z" fill="#3DA2D0"/><path d="M154.638 178.708c3.057-4.09 4.038-9.109 4.334-12.359-.784-.373-1.536-.747-2.258-1.11-.332 4.723-2.782 9.95-4.184 12.597.613.275 1.314.571 2.108.872z" fill="#F9BB30"/><path d="M151.607 169.443a47.95 47.95 0 0 1-.504 1.822c-.021.072-.047.15-.067.223-.083.28-.172.555-.255.815-.046.15-.093.296-.145.436-.13.389-.254.747-.374 1.08-.021.062-.047.124-.067.186a37.904 37.904 0 0 1-.462 1.215l-.104.26-.062.15c-.104.26-.172.405-.172.405a14.118 14.118 0 0 0 .997.675c.135.083.28.166.431.254 2.439-4.988 3.119-10.635 3.311-13.065-.555-.296-1.069-.571-1.541-.83-.068 1.915-.4 3.898-.836 5.72-.047.223-.099.441-.15.654z" fill="#3DA2D0"/><path d="M184.697 172.293c1.427 2.927.015 6.701.015 6.701s.192.155.499.41c.02.01.046.02.067.031a.638.638 0 0 0 .14.062c.031.01.062.026.094.031l.062.016.083.015c.021.006.041.006.067.006.026 0 .052.005.078.005.021 0 .042 0 .068-.005.026 0 .052-.006.078-.011.02-.005.041-.005.067-.01a.451.451 0 0 0 .078-.021.252.252 0 0 0 .062-.021c.026-.01.052-.02.073-.031.021-.01.041-.015.062-.026a.344.344 0 0 0 .073-.041c.021-.011.036-.021.057-.031a.785.785 0 0 0 .078-.058c.015-.01.031-.02.047-.036.041-.031.083-.067.124-.099l.036-.036c.026-.026.058-.052.083-.083.016-.016.032-.036.052-.052.021-.026.047-.047.068-.073.015-.02.036-.041.052-.062l.062-.078c.016-.02.031-.046.052-.067a.487.487 0 0 0 .057-.083l.047-.073c.021-.026.036-.057.057-.088l.047-.078c.015-.031.036-.062.051-.093.016-.026.032-.052.042-.078.016-.031.036-.063.052-.099.015-.026.026-.052.041-.078.016-.036.037-.072.052-.109.011-.026.026-.046.037-.072a2.06 2.06 0 0 0 .057-.13c.01-.021.015-.036.026-.057l.078-.187c.01-.021.015-.047.026-.068l.046-.124c.011-.026.021-.057.031-.083.016-.037.026-.073.037-.109a.661.661 0 0 0 .026-.083c.01-.037.026-.073.036-.109.01-.026.016-.057.026-.083l.031-.104a.505.505 0 0 0 .021-.083c.01-.037.021-.073.026-.104.005-.026.015-.052.021-.083.01-.036.015-.073.026-.104l.015-.078a.806.806 0 0 0 .021-.109l.015-.067c.006-.037.016-.073.021-.114.005-.021.005-.042.011-.057.01-.058.015-.109.02-.161.021-.146.026-.291.021-.431a3.166 3.166 0 0 0-.119-.805c-.037-.124-.073-.249-.12-.363a10.38 10.38 0 0 0-1.63-2.829 10.048 10.048 0 0 0-1.079-1.152c-.057-.052-.114-.104-.171-.151a7.003 7.003 0 0 0-.436-.353c-.083-.062-.146-.104-.172-.124l-.02-.011.14 1.718.109 1.013zM266.111 133.664l-.197 7.708c4.355-.322 8.809-.545 12.665-.54v-7.09c-1.448 1.313-3.332 2.232-5.782 2.253-2.658.02-4.999-.748-6.686-2.331z" fill="#FF8868"/><path d="M277.463 112.31c2.242.659 3.431 1.355 4.044 1.967-.966-1.22-2.243-2.003-3.691-2.434l-.036.052c-.099.14-.208.275-.317.415zM275.776 111.869c.094-.12.197-.244.312-.369a11.218 11.218 0 0 0-1.329-.062c-.011.067-.016.135-.026.208.363.072.711.145 1.043.223zM272.797 135.995c2.45-.021 4.334-.94 5.782-2.253 3.727-3.379 4.547-9.369 4.547-9.369.068-.644.099-1.251.114-1.827.358-3.353-.166-5.834-1.256-7.589.286.67-.057 1.127-.057 1.127s-5.258 6.431-11.601 5.72c-2.336-.26-4.282-1.433-5.803-2.809-.119.431-.213.847-.28 1.225-.737 2.663-1.002 4.978-.883 6.951.182 2.875 1.184 5.029 2.746 6.493 1.692 1.583 4.033 2.351 6.691 2.331z" fill="#9F5E39"/><path d="M94.24 164.527c2.056-3.088 3.748-7.002 4.858-11.263.187-.717.359-1.443.51-2.175 0-.01.004-.026.01-.036.067-.333.13-.665.192-.997.01-.042.015-.088.025-.13.063-.348.12-.701.177-1.053.005-.026.01-.052.01-.078.333-2.175.509-4.397.499-6.608a46.625 46.625 0 0 0-.052-1.874c-.182-3.332-.042-5.626.29-7.163.224-1.043.54-1.744.904-2.185.705-.857 1.603-.753 2.408-.343.322.166.628.379.903.597.41.327 1.007-.036.883-.545a12.156 12.156 0 0 0-.504-1.593 10.91 10.91 0 0 0-1.521-2.689c-1.874-2.408-5.273-4.521-11.42-4.049-.212.016-.42.031-.638.052-13.9 1.428-7.334 12.343-9.597 18.645 0 0-18.852 16.35-2.517 21.78 0 0-6.483 5.445 2.87 8.242 2.227.665 4.454.172 6.55-1.162 1.859-1.189 3.613-3.042 5.16-5.373z" fill="#063155"/><path d="M254.531 186.966c.052-3.477.026-7.23-.036-10.806-.66.295-1.319.176-1.319.176l-.363-2.642s-12.286 10.713-20.28 8.383c-4.308-1.256-8.611-6.026-11.668-10.158a73.573 73.573 0 0 1-.992 1.941 51.57 51.57 0 0 1-1.702 3c-.898 1.464-2.061 4.438-3.011 7.085a185.44 185.44 0 0 0-1.728 5.087c19.491-4.24 40.85 4.796 40.876 4.386a146.13 146.13 0 0 0 .223-6.452z" fill="#FF4239"/><path d="M200.409 157.764c5.154 2.746 10.178 3.41 14.435 3.182a30.465 30.465 0 0 0 6.436-1.059v-.005c.493-.135.965-.275 1.401-.421 2.549-.835 4.07-1.697 4.07-1.697s-.504 1.448-1.35 3.649c6.058 5.108 9.945 13.522 9.945 13.522 8.368-1.48 17.462-7.252 17.462-7.252s.768.805 1.526 1.978l-.047-1.459a507.245 507.245 0 0 0-.353-8.735s1.516-.364 3.919-.966c.945-.239 2.019-.514 3.197-.82 6.037-1.568 14.685-3.945 20.934-6.192 2.18-.784 4.256-1.62 5.865-2.533 1.277-.727 2.258-1.5 2.762-2.341.742-1.251.425-2.642-1.573-4.231-1.412-1.121-5.424-1.531-10.464-1.547-3.857-.01-8.31.219-12.665.54-.576.042-1.153.089-1.724.13-2.844.228-5.605.488-8.081.737-3.421 6.369-16.148 20.596-26.363 4.085a11.545 11.545 0 0 0-2.217-2.59c-1.396.405-3.14.862-5.097 1.287-5.642 1.215-13.049 2.108-18.946.379-2.06-.607-3.877-1.188-5.533-1.713-1.583-.503-3.01-.95-4.365-1.318-3.042-.831-5.679-1.235-8.694-.872-1.796.218-3.722.701-5.949 1.542-1.759.659-3.805 1.51-3.805 1.51s.769.394 2.087 1.074c1.23.634 2.933 1.521 4.942 2.565a1841.466 1841.466 0 0 1 18.245 9.571z" fill="#FF4239"/><path d="M232.533 182.077c7.994 2.336 20.28-8.383 20.28-8.383l.363 2.642s.665.119 1.319-.176c.607-.27 1.209-.898 1.276-2.3.073-1.469-.674-3.021-1.437-4.204-.753-1.168-1.526-1.978-1.526-1.978s-9.094 5.772-17.462 7.251c0 0-3.887-8.414-9.945-13.521a20.04 20.04 0 0 0-2.72-1.952c-.436.14-.908.286-1.401.421v.005l-1.116 11.071c.223.317.457.634.695.961 3.063 4.131 7.366 8.902 11.674 10.163z" fill="#FF8868"/><path d="M106.552 168.888c-.602.332-1.261.638-1.983.913-2.128 6.442 1.07 10.376 1.448 10.817.556-.197 1.08-.384 1.584-.565-.12-.26-.26-.551-.436-.888-1.604-3.088-1.148-7.506-.613-10.277z" fill="#F9BB30"/><path d="M102.228 170.497c-.28.062-.56.124-.856.176-.4.073-.784.14-1.173.202-3.218 6.167 2.237 10.896 2.237 10.896l.099.098c.508-.181 1.001-.363 1.484-.54a38.577 38.577 0 0 0-.706-1.214c-2.413-3.981-1.868-7.49-1.085-9.618z" fill="#3DA2D0"/><path d="M98.097 171.213c-.639.093-1.257.182-1.853.265-3.478 6.368 1.339 12.031 1.339 12.031.742-.16 1.557-.394 2.46-.726.135-.052.27-.099.4-.146a23.137 23.137 0 0 0-.82-.861c-3.65-3.649-2.456-8.29-1.526-10.563z" fill="#F9BB30"/><path d="M92.828 175.692a88.237 88.237 0 0 0 1.812-3.996c-.525.072-1.033.14-1.521.202-.275.036-.55.073-.815.114-1.282 1.827-3.073 5.227-1.459 8.409a16.535 16.535 0 0 0 1.859 2.907 6.645 6.645 0 0 0 1.905.415l.135.016c.082.005.17.01.259.01.25.005.498.01.768-.005-1.593-2.009-4.08-5.694-2.943-8.072zM110.248 165.991c-.005.005-.005.01-.011.016-.098.129-.197.264-.306.405-4.241 5.647-1.292 11.019-.041 12.836 1.225-.431 2.133-.742 2.621-.914-4.537-4.624-1.552-11.045-1.002-12.026 0-.005.005-.011.005-.011a7.848 7.848 0 0 1-1.266-.306z" fill="#3DA2D0"/><path d="M221.732 139.566c.181.249.404.498.674.737a8.864 8.864 0 0 0 1.957 1.344 14.664 14.664 0 0 1 3.167 2.092 11.541 11.541 0 0 1 2.216 2.59c10.22 16.511 22.942 2.284 26.363-4.085.213-.394.389-.758.524-1.079 2.71-6.39-1.36-10.226-1.36-10.226 3.296.042 7.298-4.194 4.215-8.019-3.083-3.826-10.033-.945-10.033-.945s7.863-10.283-2.362-9.089c-10.226 1.194-1.267 9.374-8.632 5.497-7.366-3.877-8.456 4.677-8.456 4.677-10.671-1.89-8.554 5.668-6.457 10.163-.711.706-1.349 1.474-1.801 2.268-.763 1.345-.965 2.767-.015 4.075z" fill="#063155"/><path d="M88.743 180.815l.005-.01c-.664-4.08 1.334-8.455 1.34-8.455-.01 0-.021.005-.032.005h-.005l-.592.109h-.01c-.197.036-.39.078-.576.114l-.12.026-.342.078c-.031.005-.062.015-.094.021-.051.015-.103.026-.155.041-.125.031-.25.062-.369.094a2.223 2.223 0 0 0-.171.051c-.11.032-.218.063-.322.099-.062.021-.12.042-.176.057-.099.031-.192.068-.286.099-.057.021-.114.046-.171.067-.088.037-.177.068-.26.109-.057.026-.109.052-.166.073a5.062 5.062 0 0 0-.233.114c-.052.026-.104.057-.156.083a7.44 7.44 0 0 0-.208.125c-.046.031-.098.062-.145.093a4.372 4.372 0 0 0-.187.135c-.047.031-.088.068-.13.099a2.042 2.042 0 0 0-.166.145 2.482 2.482 0 0 0-.12.109c-.051.052-.098.104-.145.156-.036.041-.072.078-.103.119-.047.057-.088.114-.13.171-.031.042-.062.084-.088.13-.042.063-.073.125-.11.192-.025.047-.051.089-.072.135-.031.068-.062.14-.093.213-.021.047-.042.088-.058.135-.03.083-.051.166-.077.254-.01.042-.026.083-.037.125-.03.13-.057.265-.078.405-.036.275-.072.529-.103.768l-.208 1.521c-.01.083-.02.166-.031.239-.02.155-.042.295-.057.425-.01.063-.016.125-.026.187-.016.12-.031.223-.042.322-.02.145-.036.265-.052.368l-.072.545 2.813 2.072c.01-.021 1.1-2.29 2.616-1.963z" fill="#FF8868"/><path d="M274.759 111.438c.124-.966.472-1.863.732-2.471.794-1.848-.431-3.789-1.833 1.21a8.996 8.996 0 0 0-.254 1.209c.467.083.914.166 1.334.254 0-.067.01-.135.021-.202zM277.463 112.31c.109-.14.213-.275.317-.415.015-.016.026-.037.036-.052 1.111-1.563 1.235-3.208-1.23-.862a7.647 7.647 0 0 0-.498.519 6.075 6.075 0 0 0-.312.369c.618.145 1.184.29 1.687.441z" fill="#9F5E39"/><path d="M281.927 116.083s.343-.456.057-1.126a2.121 2.121 0 0 0-.483-.68c-.607-.612-1.796-1.308-4.043-1.967a29.432 29.432 0 0 0-1.692-.441 41.433 41.433 0 0 0-2.461-.499c-8.19-1.427-8.985-4.043-8.985-4.043s-3.835 4.801-.057 7.474l-3.727-1.116s1.371 2.954 3.982 5.31c1.521 1.376 3.462 2.544 5.803 2.808 6.353.712 11.606-5.72 11.606-5.72z" fill="#9F5E39"/><path d="M137.805 149.495a729.937 729.937 0 0 0-18.733-2.802c-6.4-.867-10.937-1.376-13.511-1.641a236.37 236.37 0 0 0-2.513-.244l-1.52 3.738c.176.015.404.103.68.249.093.052.186.104.29.171.203.125.431.275.675.452 1.225.872 2.959 2.299 5.097 3.877 3.545 2.611 8.222 5.627 13.641 7.168 9.53 2.715 21.671.016 27.069.727.083.01.166.026.249.036.057.011.114.016.172.026l2.268-15.463c-3.618.774-6.821 1.833-9.468 3.052a29.22 29.22 0 0 0-1.806.904 21.083 21.083 0 0 1-2.59-.25z" fill="#F9BB30"/></g><defs><clipPath id="clip0"><path fill="#fff" transform="translate(73 107)" d="M0 0h229.928v93H0z"/></clipPath></defs></svg>