<svg width="262" height="112" fill="none" xmlns="http://www.w3.org/2000/svg" viewBox="0 0 262 112"><g clip-path="url(#clip0)"><path d="M261.35 100.983l-159.577-25.95V41.758L261.35 53.25v47.732z" fill="#0046B4"/><path d="M261.35 42.655l-159.577-8.718v5.253L261.35 49.975v-7.32z" fill="#46B400"/><path d="M99.513 79.33L1.175 89.407 0 45.394l99.513-3.636V79.33z" fill="#0046B4"/><path d="M99.513 33.937L0 36.297v6.63l99.513-3.737v-5.253z" fill="#46B400"/><path d="M110.876 76.309L8.849 88.616l109.707 38.399 61.238-22.171-13.382-15.271-55.536-13.264zM186.452 17.933c-.029 6.21-4.693 10.679-10.548 10.148-5.856-.526-10.738-5.697-10.738-11.086 0-5.39 4.994-10.106 10.873-10.112 5.88-.012 10.443 4.84 10.413 11.05z" fill="#D9ECFF"/><path d="M185.762 17.903c-.029 5.768-4.386 9.953-9.852 9.463-5.466-.49-10.012-5.277-10.006-10.336.006-5.06 4.652-9.422 10.136-9.433 5.484-.006 9.752 4.54 9.722 10.306z" fill="#D9ECFF"/><path d="M166.123 18.942c.354 1.547 1.128 3.017 2.202 4.298 1.877-6.9 8.488-11.511 15.531-11.594a11.332 11.332 0 0 0-.461-.596 14.838 14.838 0 0 0-2.875-.295c-6.162-.024-11.723 3.477-14.397 8.187z" fill="#D9ECFF"/><path d="M171.447 25.902c1.346.79 2.863 1.316 4.457 1.464 5.466.49 9.823-3.69 9.852-9.463.012-1.977-.49-3.837-1.363-5.395-6.624 1.304-12.125 6.564-12.946 13.394zM178.566 9.604c1.382 0 2.716.183 3.973.531-1.706-1.594-3.973-2.538-6.505-2.538-4.734.006-8.849 3.34-9.882 7.42 3.017-3.164 7.533-5.42 12.414-5.413zM188.005 9.02c2.663-.006 3.985-.012 6.623-.024v1.972c-1.812 0-2.715-.006-4.539-.012-.006 1.423-.006 2.143-.012 3.595l3.796.077v2.054l-3.802-.118-.017 5.194c-.839-.053-1.258-.076-2.102-.13.024-5.058.03-7.691.053-12.608zM199.722 12.49c-1.251-.006-2.225 1.063-2.591 2.42h-.03s.03-.318.03-.672v-1.582c-.785-.006-1.175-.012-1.96-.018v9.439c.82.053 1.234.076 2.054.124 0-1.512-.006-2.285-.006-3.814 0-.566.047-1.098.177-1.564.384-1.423 1.364-1.995 2.226-1.977.271.005.484.047.484.047-.006-.95-.006-1.429-.006-2.361-.006 0-.183-.042-.378-.042zM204.368 12.42c2.35.012 3.637 2.09 3.654 4.805 0 .301-.041.986-.041.986-2.261-.077-3.394-.112-5.655-.19.136 1.742 1.251 2.693 2.473 2.758 1.317.065 2.356-1.004 2.356-1.004.318.744.484 1.116.802 1.86 0 0-1.245 1.375-3.288 1.251-2.721-.165-4.421-2.603-4.433-5.401 0-3.023 1.7-5.077 4.132-5.065zm1.6 3.996c-.041-1.37-.738-2.101-1.635-2.113-1.039-.012-1.759.744-1.942 2.025l3.577.088zM212.685 12.443c2.361 0 3.672 2.16 3.701 5.006.006.319-.035 1.033-.035 1.033l-5.685-.177c.148 1.824 1.269 2.822 2.497 2.875 1.322.059 2.361-1.063 2.361-1.063.325.78.49 1.17.815 1.942 0 0-1.246 1.447-3.3 1.329-2.733-.16-4.445-2.704-4.468-5.638-.024-3.176 1.67-5.313 4.114-5.307zm1.623 4.162c-.047-1.434-.749-2.19-1.653-2.202-1.044-.012-1.759.785-1.942 2.125 1.435.03 2.155.048 3.595.077zM234.698 16.924c.118 0 .171 0 .289.006v-.16c-.018-1.546-.732-2.054-1.676-2.06-1.228-.005-2.338 1.08-2.338 1.08-.331-.82-.496-1.221-.826-2.018 0 0 1.298-1.364 3.341-1.376 2.26-.011 3.618 1.577 3.642 4.587.023 2.975.041 4.534.065 7.45l-1.978-.1c-.006-.378-.006-.573-.012-.957-.005-.46.024-.826.024-.826h-.035c.017 0-.644 2.019-2.586 1.918-1.523-.082-2.904-1.405-2.934-3.707-.047-3.666 3.619-3.86 5.024-3.837zm-1.582 5.33c1.127.048 1.918-1.587 1.906-3.034v-.277c-.147-.006-.224-.006-.371-.012-1.098-.03-2.858.136-2.84 1.76.006.784.431 1.528 1.305 1.564zM243.919 12.65c-.691 2.663-1.028 4.109-1.701 6.919-.153.65-.289 1.605-.289 1.605h-.035s-.16-1.015-.337-1.67c-.749-2.816-1.121-4.238-1.871-6.824-.986.006-1.476.012-2.456.018 1.506 4.392 2.255 7.012 3.755 11.735-.112.348-.166.52-.272.862-.319 1.015-.897 1.446-1.493 1.41-.496-.029-.974-.525-.974-.525-.278.833-.419 1.24-.697 2.03 0 0 .768.75 1.807.821 1.275.089 2.455-.602 3.081-2.567l.006.006c1.541-5.225 2.32-8.483 3.931-13.837-.986.006-1.481.012-2.455.018zM227.242 12.738c-.549 2.81-.821 4.327-1.364 7.261-.106.596-.165 1.192-.165 1.192h-.036s-.076-.602-.194-1.204c-.656-2.963-.98-4.474-1.635-7.243h-1.866c-.572 2.745-.862 4.22-1.434 7.066-.106.579-.183 1.157-.183 1.157h-.036s-.059-.584-.177-1.169c-.614-2.886-.915-4.35-1.523-7.054h-2.166c1.057 4.091 1.582 6.429 2.65 10.738.927.053 1.388.076 2.314.13.532-2.438.797-3.725 1.323-6.252.124-.584.183-1.192.183-1.192h.035s.089.608.23 1.198c.596 2.55.897 3.879 1.494 6.417.926.047 1.393.077 2.325.124.963-4.368 1.441-6.848 2.415-11.175-.88 0-1.317 0-2.19.006zM186.565 23.452c.242.018.36.024.602.041-.006 1.44-.006 2.155-.012 3.56-.242-.018-.36-.03-.602-.053.006-1.4.006-2.113.012-3.548zM190.537 23.735c.242.018.36.024.596.042.496.885.744 1.322 1.246 2.201.124.219.272.585.272.585h.011s-.029-.348-.029-.56v-2.114c.236.018.354.023.59.041v3.642c-.236-.017-.354-.03-.596-.047-.502-.862-.75-1.299-1.246-2.172-.124-.219-.271-.585-.271-.585h-.012s.03.349.03.567c0 .832 0 1.252-.006 2.066-.242-.018-.36-.03-.602-.053.017-1.423.017-2.149.017-3.613zM196.907 26.953s.354.413.82.448c.248.018.478-.106.472-.401 0-.655-1.552-.661-1.552-1.8 0-.62.466-1.057 1.098-1.01.643.047.98.472.98.472-.101.219-.154.325-.254.537 0 0-.313-.354-.726-.383-.278-.018-.496.147-.49.413 0 .661 1.541.626 1.547 1.8 0 .585-.396 1.033-1.081.974a1.682 1.682 0 0 1-1.133-.584c.124-.189.189-.283.319-.466zM202.125 24.556c.236.017.354.023.596.041.006.992.012 1.482.018 2.438.006.502.289.803.732.838.437.036.726-.218.726-.726-.006-.962-.012-1.452-.018-2.45.236.018.354.024.596.042.006 1.003.012 1.493.018 2.461.006.844-.519 1.352-1.31 1.287-.797-.065-1.328-.655-1.334-1.493-.012-.963-.018-1.453-.024-2.438zM208.11 24.963c.425.03.632.041 1.057.07.354.024.519.072.661.16.331.2.543.602.549 1.122.006.472-.201.885-.543 1.02v.013s.047.059.112.195c.278.59.413.885.691 1.458-.266-.024-.402-.03-.667-.054-.266-.572-.402-.861-.667-1.452-.23-.017-.343-.023-.573-.041.006.567.006.85.012 1.399-.236-.018-.36-.03-.596-.047a703.54 703.54 0 0 1-.036-3.843zm1.146 1.918c.318.024.513-.183.513-.578-.006-.378-.142-.62-.608-.65l-.454-.029c.005.49.005.738.011 1.222.219.012.325.018.538.035zM216.033 28.452l-1.157-.089-.266.95c-.248-.017-.372-.029-.62-.046.443-1.453.667-2.232 1.11-3.837.248.017.378.023.626.041.484 1.67.726 2.491 1.216 4.026-.248-.018-.372-.03-.62-.047l-.289-.998zm-.608-2.296s-.071.395-.13.614c-.112.419-.165.625-.278 1.033.349.023.52.041.862.065-.124-.425-.183-.644-.307-1.08a8.518 8.518 0 0 1-.136-.632h-.011zM220.271 25.767l.602.04a133.46 133.46 0 0 0 1.292 2.457c.13.242.284.637.284.637h.012s-.036-.378-.042-.62c-.012-.926-.018-1.405-.035-2.379.242.018.36.024.602.036.024 1.694.035 2.515.059 4.037-.242-.017-.36-.03-.602-.047a71.785 71.785 0 0 1-1.293-2.361c-.13-.242-.283-.65-.283-.65h-.012s.041.396.041.632c.012.933.018 1.387.036 2.261-.242-.017-.36-.03-.602-.047-.024-1.511-.036-2.326-.059-3.996zM228.134 26.19c.82.054 1.251.668 1.251.668-.118.224-.171.336-.289.56 0 0-.39-.478-.927-.507-.714-.047-1.121.602-1.109 1.363.011.78.448 1.47 1.151 1.523.584.042.974-.43.974-.43.129.218.2.33.33.543 0 0-.46.596-1.316.53-1.027-.076-1.753-.99-1.771-2.195-.012-1.198.714-2.12 1.706-2.054zM232.933 26.557l1.906.118c0 .277.006.419.006.69-.513-.035-.773-.047-1.287-.082.006.454.006.684.012 1.127l1.151.077c0 .266.006.395.006.661a76.73 76.73 0 0 1-1.151-.083c.006.45.006.668.012 1.098.513.036.767.06 1.281.095 0 .254.006.372.006.62-.762-.06-1.14-.083-1.901-.142-.012-1.558-.018-2.414-.041-4.18zM243.806 28.175c-.03-.07-.041-.088-.041-.088v-.006c.082-.024.206-.142.206-.378 0-.29-.153-.496-.383-.508l-.49-.029c0 .614 0 .915.006 1.505.106.006.165.012.271.018v-.549c.059.006.095.006.154.012.082.224.118.336.2.56.118.006.183.012.301.018-.094-.224-.135-.336-.224-.555zm-.283-.277c-.059-.006-.089-.006-.148-.012v-.454c.059.006.095.006.154.012.1.005.165.088.165.236 0 .141-.065.224-.171.218z" fill="#D9ECFF"/><path d="M243.475 26.416c-.649-.035-1.168.638-1.168 1.464 0 .833.525 1.512 1.174 1.553.65.041 1.175-.573 1.175-1.411 0-.838-.531-1.57-1.181-1.606zm.006 2.65c-.484-.029-.879-.548-.879-1.168 0-.626.389-1.122.879-1.092.484.03.886.573.886 1.204-.006.626-.402 1.092-.886 1.057z" fill="#D9ECFF"/><path d="M184.445 17.974c.148 5.266-5.058 10.85-10.548 10.148-5.584-.715-10.608-5.425-10.738-11.086-.118-5.272 5.024-10.136 10.874-10.112 6.032.018 10.247 5.336 10.412 11.05z" fill="#fff"/><path d="M183.755 17.944c-.029 5.768-4.386 9.953-9.852 9.463-5.466-.49-10.011-5.277-10.006-10.336.006-5.06 4.652-9.421 10.136-9.433 5.484-.006 9.752 4.54 9.722 10.306z" fill="#fff"/><path d="M164.116 18.983c.354 1.547 1.128 3.017 2.202 4.298 1.877-6.9 8.489-11.511 15.531-11.594a8.827 8.827 0 0 0-.461-.596c-.926-.189-1.9-.277-2.874-.295-5.254-.1-11.836 3.477-14.398 8.188z" fill="#0046B4"/><path d="M169.44 25.943c1.346.79 2.863 1.316 4.457 1.464 5.466.49 9.823-3.69 9.852-9.463.012-1.977-.49-3.837-1.363-5.395-6.623 1.299-12.125 6.564-12.946 13.394zM176.56 9.645c1.381 0 2.715.183 3.972.531-1.706-1.594-3.972-2.538-6.505-2.538-4.734.006-8.848 3.34-9.881 7.42 3.016-3.164 7.532-5.42 12.414-5.413z" fill="#46B400"/><path d="M185.998 9.06c2.663-.005 3.985-.011 6.624-.023v1.972c-1.813 0-2.716-.006-4.54-.012-.006 1.422-.006 2.143-.012 3.595l3.796.077v2.054l-3.802-.118c-.005 2.078-.011 3.128-.017 5.194-.838-.053-1.258-.076-2.102-.13.024-5.064.036-7.691.053-12.608zM197.715 12.532c-1.251-.006-2.225 1.063-2.591 2.42h-.03s.03-.318.03-.672v-1.582c-.785-.006-1.175-.012-1.96-.018v9.439c.821.053 1.234.076 2.054.124 0-1.511-.006-2.285-.006-3.814 0-.566.048-1.098.177-1.564.384-1.423 1.364-1.995 2.226-1.977.271.005.484.047.484.047-.006-.95-.006-1.429-.006-2.361a1.584 1.584 0 0 0-.378-.042zM202.361 12.461c2.349.012 3.636 2.09 3.654 4.805 0 .301-.042.986-.042.986-2.261-.077-3.394-.112-5.655-.19.136 1.742 1.252 2.693 2.474 2.758 1.316.065 2.355-1.004 2.355-1.004.319.744.484 1.116.803 1.86 0 0-1.246 1.375-3.288 1.251-2.722-.165-4.422-2.603-4.433-5.401 0-3.023 1.705-5.077 4.132-5.065zm1.599 3.996c-.041-1.37-.738-2.101-1.635-2.113-1.039-.012-1.759.744-1.942 2.025l3.577.088zM210.678 12.479c2.361 0 3.672 2.16 3.701 5.005.006.319-.035 1.033-.035 1.033l-5.685-.177c.148 1.824 1.269 2.822 2.497 2.875 1.323.059 2.361-1.063 2.361-1.063.325.78.49 1.17.815 1.942 0 0-1.245 1.447-3.3 1.329-2.733-.16-4.445-2.704-4.468-5.638-.024-3.17 1.67-5.306 4.114-5.306zm1.623 4.161c-.047-1.434-.749-2.19-1.652-2.202-1.045-.011-1.759.785-1.942 2.125 1.44.036 2.154.048 3.594.077zM232.691 16.96c.118 0 .171 0 .289.005v-.16c-.018-1.546-.732-2.053-1.676-2.06-1.228-.005-2.338 1.08-2.338 1.08-.331-.82-.496-1.221-.826-2.018 0 0 1.298-1.364 3.341-1.375 2.261-.012 3.618 1.576 3.642 4.586.023 2.976.041 4.534.065 7.45l-1.978-.1c-.006-.378-.006-.573-.012-.957-.005-.46.024-.826.024-.826h-.035c.017 0-.644 2.019-2.586 1.918-1.523-.082-2.904-1.405-2.934-3.707-.041-3.665 3.619-3.854 5.024-3.837zm-1.582 5.336c1.127.047 1.918-1.588 1.906-3.034v-.278c-.147-.006-.224-.006-.371-.012-1.098-.03-2.857.136-2.84 1.76.006.779.437 1.528 1.305 1.564zM241.912 12.691c-.691 2.663-1.027 4.109-1.7 6.919-.154.65-.29 1.605-.29 1.605h-.035s-.159-1.015-.336-1.67c-.75-2.816-1.122-4.238-1.872-6.824-.986.006-1.475.012-2.455.018 1.505 4.392 2.255 7.012 3.754 11.735-.112.348-.165.52-.272.862-.318 1.015-.897 1.446-1.493 1.41-.496-.029-.974-.525-.974-.525-.277.833-.419 1.24-.697 2.03 0 0 .768.75 1.807.821 1.275.089 2.455-.602 3.081-2.567l.006.006c1.541-5.225 2.32-8.483 3.931-13.837-.985.006-1.475.012-2.455.018zM225.235 12.774c-.549 2.81-.821 4.326-1.364 7.26-.106.596-.165 1.193-.165 1.193h-.035s-.071-.602-.195-1.205c-.655-2.963-.98-4.474-1.635-7.243h-1.866c-.572 2.745-.861 4.221-1.434 7.066-.106.579-.183 1.157-.183 1.157h-.035s-.059-.584-.178-1.168c-.613-2.887-.915-4.351-1.523-7.055h-2.166c1.057 4.091 1.582 6.429 2.651 10.738.926.053 1.387.077 2.319.13.532-2.438.797-3.725 1.323-6.252.124-.584.183-1.192.183-1.192h.035s.089.608.23 1.198c.597 2.55.898 3.879 1.494 6.417.927.047 1.393.077 2.326.124.962-4.368 1.44-6.848 2.414-11.174-.886.005-1.322.005-2.196.005zM185.939 23.464c.242.018.36.024.602.041-.006 1.44-.006 2.155-.012 3.56-.242-.018-.36-.03-.602-.053.006-1.4.006-2.114.012-3.548zM189.911 23.753c.242.018.36.023.596.041.496.886.744 1.322 1.246 2.202.124.219.272.585.272.585h.011s-.029-.349-.029-.561v-2.114c.236.018.354.024.59.042v3.642c-.236-.018-.354-.03-.596-.047-.502-.862-.75-1.299-1.246-2.173a6.157 6.157 0 0 1-.271-.584h-.012s.03.348.03.567c0 .832 0 1.251-.006 2.066-.242-.018-.36-.03-.602-.053.011-1.423.017-2.15.017-3.613zM196.281 26.964s.354.414.82.449c.248.018.478-.106.472-.401 0-.656-1.552-.662-1.552-1.8 0-.62.466-1.058 1.098-1.01.643.047.98.472.98.472-.101.218-.154.325-.254.537 0 0-.313-.354-.726-.383-.278-.018-.496.147-.49.413 0 .66 1.541.625 1.547 1.8 0 .584-.396 1.033-1.081.974a1.682 1.682 0 0 1-1.133-.584l.319-.467zM201.499 24.567c.236.018.354.024.596.042.006.991.012 1.481.018 2.438.006.501.289.802.732.838.437.035.726-.219.726-.726-.006-.962-.012-1.452-.018-2.45.236.018.354.024.596.041.006 1.004.012 1.494.018 2.462.006.844-.519 1.352-1.31 1.287-.797-.065-1.328-.655-1.334-1.494-.018-.956-.018-1.446-.024-2.438zM207.479 24.98c.425.03.631.042 1.056.071.354.024.52.071.661.16.331.2.543.602.549 1.121.006.473-.2.886-.543 1.021v.012s.047.06.112.195c.278.59.414.886.691 1.458-.266-.024-.401-.03-.667-.053-.266-.573-.401-.862-.667-1.452-.23-.018-.342-.024-.573-.042.006.567.006.85.012 1.4-.236-.018-.36-.03-.596-.048-.012-1.481-.018-2.26-.035-3.843zm1.151 1.919c.318.024.513-.183.513-.579-.006-.377-.142-.62-.608-.649l-.454-.03c.006.49.006.739.011 1.223.213.005.325.017.538.035zM215.407 28.47l-1.157-.089-.266.95c-.248-.017-.372-.03-.62-.047.443-1.452.667-2.231 1.11-3.837.248.018.378.024.626.042.484 1.67.726 2.49 1.216 4.025-.248-.017-.372-.03-.62-.047a87.246 87.246 0 0 0-.289-.997zm-.608-2.297s-.071.396-.13.614c-.112.42-.165.626-.278 1.033.349.024.52.042.862.065-.124-.425-.183-.643-.307-1.08-.065-.23-.135-.632-.135-.632h-.012zM219.645 25.784c.242.018.36.024.602.042a133.46 133.46 0 0 0 1.292 2.455c.13.242.284.638.284.638h.012s-.036-.378-.042-.62c-.012-.927-.017-1.405-.035-2.38.242.019.36.025.602.036.024 1.695.035 2.515.059 4.038-.242-.018-.36-.03-.602-.047a71.888 71.888 0 0 1-1.293-2.361c-.13-.242-.283-.65-.283-.65h-.012s.041.396.041.632c.012.933.018 1.387.036 2.26-.242-.017-.36-.029-.602-.047a1587.32 1587.32 0 0 1-.059-3.996zM227.508 26.203c.82.053 1.251.667 1.251.667-.118.224-.171.336-.289.56 0 0-.39-.477-.927-.507-.714-.047-1.121.602-1.109 1.364.011.779.448 1.47 1.151 1.523.584.04.974-.431.974-.431.129.218.2.33.33.543 0 0-.46.596-1.316.531-1.027-.077-1.753-.992-1.771-2.196-.012-1.192.708-2.113 1.706-2.054zM232.307 26.575l1.906.118c0 .278.006.42.006.69-.513-.034-.773-.046-1.287-.082.006.455.006.685.012 1.128l1.151.077c0 .265.006.395.006.66-.46-.029-.69-.047-1.151-.082.006.449.006.667.012 1.098.513.035.767.059 1.281.094 0 .254.006.372.006.62-.762-.059-1.14-.082-1.901-.142-.012-1.564-.018-2.414-.041-4.179zM243.517 28.192a.813.813 0 0 0-.041-.088v-.006c.082-.024.206-.142.206-.378 0-.29-.153-.496-.384-.508l-.484-.03c0 .615 0 .916.006 1.506.107.006.166.012.272.018v-.55c.059.007.094.007.153.012.083.225.118.337.201.561.118.006.183.012.301.018-.1-.218-.142-.33-.23-.555zm-.283-.277c-.059-.006-.089-.006-.148-.012v-.455c.059.006.094.006.153.012.101.006.166.089.166.236 0 .142-.065.224-.171.219z" fill="#0046B4"/><path d="M243.186 26.439c-.649-.036-1.168.637-1.168 1.464 0 .832.525 1.511 1.174 1.552.65.042 1.175-.572 1.175-1.41 0-.839-.531-1.57-1.181-1.606zm.006 2.65c-.484-.03-.879-.549-.879-1.168 0-.626.389-1.122.879-1.093.484.03.886.573.886 1.205-.006.625-.402 1.092-.886 1.056z" fill="#0046B4"/><path d="M84.16 82.885l21.569-.644V7.267L84.159 4.05v78.834z" fill="#fff"/><path d="M103.492 42.154v37.915l-17.225.567V41.823l17.225.33zM86.267 39.474V6.582l17.225 2.633v30.524l-17.225-.265z" fill="#E0F1FF"/><path d="M86.267 13.022v-6.44l17.225 2.633-17.225 3.807z" fill="#ABCDEB"/><path d="M84.159 82.973L74.69 81.48V10.065L84.16 4.05v78.923z" fill="#ABC0EB"/><path d="M58.77 85.777l23.465-2.078V3.064L58.77 0v85.777z" fill="#fff"/><path d="M71.622 42.006l8.211.053v39.438l-8.21.744V42.006zM69.231 41.994v40.465l-8.146.738V41.94l8.146.054zM61.085 39.385V2.715l18.748 2.492v34.25l-18.748-.072z" fill="#E0F1FF"/><path d="M61.085 9.71V2.717l18.748 2.49-18.748 4.505zM58.77 85.77l-10.477-1.888V5.525L58.771 0v85.77z" fill="#ABCDEB"/><path d="M194.15 68.852l-2.101-.567-.384-22.33 2.107-.036.378 22.933z" fill="#697182"/><path d="M193.778 49.284a2.33 2.33 0 0 0-.944 1.895l.26 11.511c.011.732.425 1.328.997 1.688l.024 4.623-2.072-.72-.384-22.332 2.108 3.017.011.318z" fill="url(#paint0_linear)"/><path d="M182.073 39.196s7.19.543 9.616.844c1.523.189 5.661.974 5.508 3.129-.154 2.154-.715 8.435-.715 8.435s-1.275-2.503-5.401-2.828c-3.583-.283-8.282-.79-9.651-.944-.213-.024-.372-.213-1.458.053l.413-7.644c.059-.75.838-1.104 1.688-1.045z" fill="#D9DBDF"/><path d="M180.786 39.998l9.528.98s5.354.177 5.147 3.164c-.153 2.155-.224 7.958-.224 7.958s-1.34-2.497-5.579-2.798c-3.595-.254-8.181-.715-9.498-.85a.383.383 0 0 1-.342-.402l.543-7.697a.39.39 0 0 1 .425-.355z" fill="#414A5C"/><path d="M195.957 43.658l.933.313a.332.332 0 0 1 .23.343l-.59 8.347a.335.335 0 0 1-.455.289l-.933-.349a.334.334 0 0 1-.218-.342l.59-8.311c.012-.213.23-.355.443-.29z" fill="#C4C8CD"/><path d="M150.61 34.143c.986-.13 5.802.873 6.204 2.178.401 1.305 4.533 11.853 4.533 11.853 1.128 4.209 5.555 1.73 5.112-.555-.442-2.284-5.613-10.389-6.534-11.824-.927-1.434-.933-3.695-1.978-3.825-1.045-.13-2.355-.909-3.506-1.558-1.151-.655-2.521-.354-1.665 0 .856.354 1.641 1.175 1.641 1.175s-1.741-.543-2.757-.667c-1.015-.124-.802.62-.802.62-1.925-.325-1.925.649-1.765.602.159-.048.708.059.708.059-1.269-.071-1.936.968-1.216.861.72-.106 2.45.307 2.45.307-.638-.13-1.411.898-.425.774z" fill="#FAA284"/><path d="M161.749 38.7c1.954 2.55 5.165 5.78 4.705 9.191-.284 2.084-3.04 5.508-5.059 2.131-1.122-1.871-4.138-3.719-2.544-8.323.224-.094 2.113-1.434 2.898-2.999z" fill="#49A3FE"/><path d="M163.62 43.871c-2.072 3.058-1.169 7.196-.325 7.52 1.417.544 8.571-3.122 11.464-8.429 2.892-5.306 1.216-6.587-.195-7.733-1.606-1.31-7.337 3.318-10.944 8.642z" fill="#49A3FE"/><path d="M162.368 47.756a4.3 4.3 0 0 0 .909-.024c.178-.023.349-.059.502-.1.053-.012.095-.035.148-.047.106-.036.212-.071.307-.113l.141-.07c.095-.047.183-.089.272-.142.041-.024.083-.047.118-.077.094-.059.189-.118.277-.183l.071-.053c.408-.3.797-.65 1.234-.986.083-.065.159-.13.248-.189 1.009-.731 1.995-1.387 2.922-2.243.95-.88 2.078-1.505 3.04-2.39.98-.904 1.741-1.99 2.485-3.094.437-.649.478-1.44.26-2.178 1.11 1.08 1.818 2.722-.555 7.084-2.757 5.065-9.386 8.63-11.228 8.477-.714.076-1.463-.29-2.131-1.411-.92-1.535-3.116-3.058-2.992-6.104.714 1.93 1.93 3.666 3.972 3.843z" fill="#0074D4"/><path d="M188.253 62.124s-1.299-6.352-.838-11.96c.431-5.271 2.656-13.866-.384-15.66-3.128-1.854-8.299-1.11-10.578-.756-6.794 1.068-6.464 9.829-5.921 15.991.289 3.282.242 10.23-1.322 13.335 0 0 9.805 4.864 19.043-.95z" fill="#49A3FE"/><path d="M180.821 61.77c1.506-1.895 2.745-4.564 1.441-6.907-.921-1.659-2.733-3.111-4.333-4.08-1.063-.642-2.196-1.003-3.442-1.02h-.177c-.006-.012-.006-.024-.006-.03a.652.652 0 0 1-.035-.378c.195-.106.407-.165.62-.253.844-.343 1.729-.55 2.591-.839 2.297-.755 4.079-2.367 4.847-4.687.537-1.635.944-3.866.366-5.537-.762-2.196-2.686-3.677-4.929-4.492 2.585-.336 6.641-.608 9.261.945 3.035 1.794.815 10.389.384 15.66-.46 5.608.838 11.96.838 11.96-3.754 2.367-7.609 2.963-10.855 2.84 1.287-.833 2.455-1.949 3.429-3.183z" fill="#0074D4"/><path d="M188.413 36.781c-.561-2.054-1.765-2.739-2.58-2.928-4.893-1.145-3.577 7.303-4.71 8.353-1.145 1.057-1.175 2.131-1.175 2.131-.974.207-2.715 1.057-3.258 1.476-.543.42-.242 3.63 2.054 4.291 2.261.65 2.946-.354 5.283-1.357 2.296-.986-.266-2.35 1.907-3.725 2.137-1.352 1.186-2.26 1.434-3.477.242-1.21 1.6-2.715 1.045-4.764z" fill="#49A3FE"/><path d="M175.697 33.759c.366 2.096 1.848 3.843 1.848 3.843.466-.207 5.082-4.08 3.872-4.173-1.216-.095-.673-2.881-.673-3.649 0-1.965-4.521-.89-4.108.874.519 2.208-.939 3.105-.939 3.105z" fill="#FAA284"/><path d="M178.649 34.97c-.041-.762 1.376-3.807.744-3.27-.744.631-2.225.856-2.792.802 0 0 .372-.826.041-1.847-.56-1.724 4.109-2.84 4.109-.874 0 .768-.543 3.554.673 3.648.868.071-1.281 2.096-2.727 3.306.017-.584-.018-1.175-.048-1.765z" fill="#CE7C56"/><path d="M172.947 42.478s1.901-1.163 2.751-3.778c2.302-7.107-1.145-17.544-2.32-14.758-.856 2.025-1.263 6.553-.153 10.112.956 3.058-1.051 2.727-1.051 7.113 0 0 .785 0 1.635-1.21 0-.006-.136 1.742-.862 2.52z" fill="#713D22"/><path d="M174.281 24.285c-.614 1.157-.815 3.134.59 5.649 1.387 2.49 1.93 3.128 3.831 1.918 1.871-1.192 2.792-2.792 2.267-4.651-.532-1.866-4.18-7.633-6.688-2.916z" fill="#FAA284"/><path d="M180.745 27.915c-.797-3.27-3.961-8.347-6.464-3.63-.283.537-.572 2.774-.378 3.063.219.325.614-.448 1.045-.36.844.177 3.406-1.476 3.406-1.476s1.069 2.303 1.199 2.757c.271.95.312 2.113-.597 3.4 1.641-1.18 2.226-1.971 1.789-3.754z" fill="#CE7C56"/><path d="M184.93 37.673c.366.2.448 1.753.448 1.753 1.187-1.24 1.553-4.911.502-7.75-.578-1.559-1.116-2.438-.856-3.814.39-2.084-.885-3.553-1.416-5.265-.538-1.718-2.45-1.771-2.45-1.771-5.897-3.749-9.451 3.547-9.451 5.938 0 .413.661-.65 1.429-1.47-.526.561-.396 1.582-1.022 2.143 1.966-.065 2.444-1.67 3.56-3.2-.301.697-.077 1.719-.484 2.297 1.417-.336 2.609-1.346 3.483-2.591 0 0 1.717 2.957 1.753 3.618 0 1.806.519 1.924-.177 3.872-.349.974-.868 4.18 1.493 6.205 1.134.968.16 3.305.16 3.305 2.815-.867 3.028-3.27 3.028-3.27z" fill="#713D22"/><path d="M180.432 27.655c.059.077.124.148.201.225.383.39.991 1.387.986 1.954 0-.154-.396.631-.443.832-.112.448-.16.903-.142 1.37.042 1.115.484 2.089 1.021 3.051.183.33 1.057 1.387.998 1.653-.283 1.27.183 2.26.962 2.887-.448.513-1.115 1.009-2.107 1.316 0 0 .974-2.338-.16-3.306-2.361-2.025-1.841-5.23-1.493-6.204.679-1.912.195-2.072.177-3.778zM181.158 20.82s1.912.053 2.449 1.77c.018.054.036.107.054.166-.071-.03-.148-.047-.219-.07-.502-.65-1.287-1.099-2.337-1.099-.136 0-.26.006-.384.024-.756-.484-1.718-.655-2.568-.378-.661.219-1.216.266-1.865.614-.573.313-1.045.78-1.494 1.252-.448.472-.862 1.003-1.139 1.593-.39.833-.478 1.618-.39 2.462-.318.16-.69.26-1.145.271.626-.56.496-1.582 1.021-2.142-.767.826-1.428 1.889-1.428 1.47-.006-2.385 3.542-9.681 9.445-5.933z" fill="#452312"/><path d="M179.529 48.8c.425-.112 1.517-3.907-1.476-3.14 0 0-1.056.75-2.025.325-.974-.431-1.464-.744-2.19-.19-.726.562-.436.98-.678 1.229-.242.248-.703.75-.272 1.623 0 0-2.78.726-2.822.809-.041.082-.135.531.597.549 0 0-1.346-.077-1.913.248-.567.33.13.442.508.537.377.088.572.2.572.2s-1.517.597-1.222.697c.296.1.756-.077 1.122.006.366.083 3.01-.65 3.737-.578.726.076 1.357-.077 1.34-.697 0 0 1.092-.555.489-1.204-.602-.644 3.808-.301 4.233-.413z" fill="#FAA284"/><path d="M175.474 49.55c-.083-1.045 3.742-.667 4.055-.75.284-.077.862-1.783.337-2.686-.142.372-3.755 1.765-5.012 1.907-.254.03-.189-1.01-.307-1.045-.106-.03-.525.596-.59.767-.053.142-.248.768-.378.862-.26.201-.696.042-.696.042s-2.037.53-2.651.738c.03.017 2.344.242 2.946.236.265 0 .348.118.082.118-.649.006-2.721.26-3.016.26-.443 0-1.133.047-1.499.26a.738.738 0 0 0-.183.14c.33-.035.667.048.991.107 1.73.313 3.005-.189 3.105-.1.077.065-.679.342-1.051.413-.183.035-.879.189-1.056.195-.177.006-2.237.566-1.942.667.295.1.755-.077 1.121.006.177.041.874-.112 1.635-.266.119-.041 1.187-.206 1.582-.283.349-.071 1.441.295 1.73-.225.195-.348.236-.59.313-.613-.006-.03.561.212.484-.75z" fill="#CE7C56"/><path d="M175.915 29.645s.933.242 2.385-.118c0 0-.301 1.205-1.305 1.175-.891-.024-1.08-1.057-1.08-1.057z" fill="#56362E"/><path d="M175.95 29.704s.968.277 2.291-.112c0 0-.201.508-1.258.525-.932.018-1.033-.413-1.033-.413z" fill="#fff"/><path d="M175.62 26.133s-.82-.278-1.664.384c0 0-.018-.107.153-.296.171-.189.697-.484 1.269-.383 0 0 .36.177.242.295zM177.527 26.234s.779-.372 1.7.183c0 0 0-.107-.189-.272-.189-.165-.75-.395-1.305-.224 0-.006-.33.212-.206.313z" fill="#6A371A"/><path d="M176.996 29.15c-.697.354-1.11.047-1.169-.29a.489.489 0 0 1 .277-.525c.426-.207.673-.91.679-.915.018.153-.088.75-.619 1.121-.113.083-.183.16-.166.272.036.183.331.443.998.337z" fill="#D88D6C"/><path d="M175.083 26.788s-.442.006-.507-.16c0 0-.059.237.212.314a.691.691 0 0 0-.141.419c0 .319.194.572.43.572.237 0 .431-.26.431-.572.006-.319-.188-.573-.425-.573zM178.489 26.788s-.443.006-.508-.16c0 0-.059.237.213.314a.686.686 0 0 0-.142.419c0 .319.195.572.431.572s.431-.26.431-.572c.006-.319-.189-.573-.425-.573z" fill="#56362E"/><path d="M214.48 93.19l-34.686 11.653V61.639l34.686-3.642v35.194z" fill="#ABCDEB"/><path d="M217.892 58.475l-30.217 3.66v-3.223l30.217-2.75v2.313z" fill="#9AC0E2"/><path d="M179.794 104.844l-86.19-14.693V54.662l86.19 6.977v43.205z" fill="#F2F9FF"/><path d="M187.674 58.912v3.223L89.436 55.37V53.5l98.238 5.413z" fill="#D6ECFF"/><path d="M217.833 56.161l-30.159 2.822-98.238-5.484 30.159-2.916 98.238 5.578z" fill="#fff"/><path d="M176.429 54.797l-20.023 1.387-25.229-1.6 20.058-.873 25.194 1.086z" fill="#ABCDEB"/><path d="M176.459 55.21c.006.095-.041.177-.112.183l-19.693 1.346c-.112.006-.212-.059-.218-.147l-.065-.933 20.059-.874.029.425z" fill="#86B3DB"/><path d="M154.683 37.537c.673 4.126 2.686 16.487 2.804 17.325.142.998-.921 1.24-.921 1.24l-3.152-19.84c.868-.03 1.145.508 1.269 1.275z" fill="#92C4EF"/><path d="M128.326 36.97l24.934-.702c.384-.012.691.23.75.59l3.028 18.973-26.032-1.21-3.182-16.995c-.059-.325.189-.65.502-.655z" fill="#ABCDEB"/><path d="M128.975 37.891l23.6-.572c.361-.006.656.218.709.554l2.875 17.904-24.645-1.145-3.011-16.133a.51.51 0 0 1 .472-.608z" fill="#86B3DB"/><path d="M156.979 56.48c-.017.153-.165.265-.33.26l-25.49-1.276a.12.12 0 0 1-.112-.13l.042-.72 25.967 1.205-.077.66z" fill="#92C4EF"/><path d="M110.481 69.438l-16.552 4.74c-1.346.177-2.45.962-2.621 1.776l-3.46 29.049.933.431 3.95-28.494c.1-.478.796-2.09 1.493-2.025l15.973-4.787c.697.065 1.364.543 1.464 1.04l5.838 26.946 1.069.46-5.201-27.354c-.177-.85-1.706-1.67-2.886-1.782z" fill="#D9DBDF"/><path d="M111.62 69.544l-16.269 4.764c-1.588.295-2.467.95-2.691 1.747l-3.89 29.373 1.322-.531 3.547-28.618c.136-.478.986-1.127 1.707-1.263l16.262-4.764c.697.065 1.364.543 1.458 1.04l5.437 27.271 1.305-.69-5.75-26.594c-.159-.838-1.251-1.623-2.438-1.735z" fill="#C4C8CD"/><path d="M128.332 73.517l-16.121 5.631c-1.316.254-2.367 1.098-2.497 1.913l-1.901 29.196.921.342 2.432-28.635c.077-.484.679-2.125 1.37-2.102l15.548-5.655c.691.03 1.382.467 1.5.957l7.184 26.61 1.056.366-6.552-27.012c-.212-.826-1.765-1.564-2.94-1.611z" fill="#D9DBDF"/><path d="M129.466 73.564l-15.838 5.643c-1.558.383-2.391 1.086-2.568 1.889l-2.331 29.509 1.28-.602 2.031-28.736c.106-.484.915-1.18 1.623-1.358l15.832-5.643c.691.03 1.376.466 1.5.956l6.782 26.918 1.252-.756-7.054-26.227c-.207-.826-1.334-1.546-2.509-1.593z" fill="#C4C8CD"/><path d="M131.36 70.5l-19.905-2.851a.752.752 0 0 0-.543-.012l-20.773 4.244c-.88.349-.726 3.389.868 3.85l21.977 4.928c.189.07.378.077.537.012l17.963-6.842c.885-.342.915-2.945-.124-3.329z" fill="#697082"/><path d="M130.682 69.951l-19.291-4.078a.751.751 0 0 0-.543-.012l-20.502 5.525c-.88.348-1.198 2.054.585 2.58l21.994 4.94c.189.071.378.077.543.012l17.975-6.847c.88-.343.815-1.813-.761-2.12z" fill="#414A5C"/><path d="M130.681 69.951l-19.291-4.078a.751.751 0 0 0-.543-.012l-12.715 3.43v6.292l14.793 3.323c.189.071.378.077.543.012l17.975-6.847c.879-.343.814-1.813-.762-2.12z" fill="#414A5C"/><path d="M132.169 87.17s-2.119 4.699-1.387 6.593c.732 1.901 2.532 4.168 4.657 5.118 2.125.95 1.311 2.657.827 2.728-.484.07-5.685-.136-7.45-1.636-1.765-1.493-2.072-1.7-2.792-1.73-.72-.029-3.507-.63-4.056-2.053-.549-1.423.862-2.834 1.624-3.36.761-.525 4.48-9.344 4.48-9.344l4.097 3.684z" fill="#48476C"/><path d="M132.169 87.164s-1.34 3.2-4.604 2.75c-1.116 2.504-1.571 3.395-1.996 3.69-.761.525-2.172 1.936-1.629 3.359.171.449.567.815 1.051 1.11-1.104-.272-2.633-.874-3.023-1.883-.549-1.423.862-2.84 1.624-3.36.761-.525 4.48-9.344 4.48-9.344l4.097 3.678z" fill="#383838"/><path d="M121.856 95.34c.03-.136-.023-.118.16-.65 1.027 1.706 3.229 1.942 5.053 2.586 2.644 2.326 4.268 3.524 9.545 4.044-.537.625-2.544.135-3.766.029-2.22-.159-4.091-1.275-5.826-2.798-1.665-.726-5.166-.254-5.166-3.211z" fill="#202735"/><path d="M132.464 89.956s-3.784.266-6.317-2.202c0 0 3.637-11.57 7.55-18.151 2.179-3.666 2.987-5.844 2.987-5.844s8.164 1.399 8.164 3.754c0 6.789-10.017 16.87-12.384 22.443z" fill="#0046B4"/><path d="M103.764 63.764c-1.623 5.2 1.724 6.41 13.152 6.659 11.428.248 16.015.938 21.8 1.452 4.014.36 11.286-5.088.466-9.687-12.16-5.165-33.476-4.651-35.418 1.576z" fill="#0046B4"/><path d="M98.462 66.875c-1.15 5.714 2.285 6.7 13.689 5.868 11.405-.832 16.039-.525 21.842-.525 4.031 0 10.46-5.656-.726-9.54-6.506-2.255-15.661-5.147-22.839-4.055-6.694 1.015-11.299 4.953-11.966 8.252z" fill="#0069DC"/><path d="M139.116 90.316s.774 5.094 2.421 6.287c1.647 1.192 4.391 2.125 6.688 1.765 2.296-.36 2.544 1.517 2.178 1.836-.372.318-4.846 2.975-7.143 2.68-2.296-.296-2.662-.302-3.282.064-.62.372-3.288 1.376-4.522.479-1.233-.898-.82-2.852-.46-3.702.354-.855-1.316-10.277-1.316-10.277l5.436.868z" fill="#48476C"/><path d="M139.116 90.316s.614 3.412-2.373 4.81c.425 2.704.526 3.702.325 4.18-.354.856-.773 2.81.461 3.701.389.284.92.378 1.487.361-1.074.371-2.686.702-3.565.059-1.234-.898-.821-2.852-.467-3.702.355-.856-1.316-10.277-1.316-10.277l5.448.868z" fill="#383838"/><path d="M134.796 102.199c1.777.785 3.689-.183 5.543-.626 3.482.513 5.495.637 10.206-1.795-.112.833-2.285 1.618-3.471 2.22-1.895 1.033-3.996.921-6.192.679-1.824.46-5.343 2.615-6.193-.526.03.018.071.03.107.048z" fill="#202735"/><path d="M140.876 92.5s-3.028 2.279-6.499 1.588c0 0-3.235-11.688-3.524-19.338-.16-4.262-.667-6.529-.667-6.529l9.368-.885s.283 19.197 1.322 25.165z" fill="#0069DC"/><path d="M98.463 66.875c.065-.33.177-.65.337-.956.625.49 1.34.909 2.142 1.228 1.553.631 3.318.673 4.965.92a56.32 56.32 0 0 0 4.22.49c2.81.213 5.62.095 8.43.13 2.845.036 5.69.154 8.536.296 1.216.059 2.461.141 3.707.141-.012.065-.018.136-.024.207.189.065.384.124.579.13-.083 1.7-.207 3.365.248 5.076.301 1.134.844 2.179 1.168 3.306.355 1.251.662 2.55.898 3.831.46 2.45.047 5.053.921 7.426.661 1.795 1.953 3.247 2.863 4.911-.927.207-1.978.29-3.076.071 0 0-3.235-11.688-3.524-19.338a32.978 32.978 0 0 0-.195-2.55c-4.545-.053-9.333-.118-18.506.549-11.399.832-14.84-.148-13.689-5.868z" fill="#0046B4"/><path d="M117.264 31.594c-.868 1.222-1.606 3.046-4.764 3.648-3.158.602-8.471 6.464-9.728 13.128-1.252 6.67-6.47 7.025-5.714 16.15.755 9.127 2.756 7.22 2.756 7.22s9.575-4.215 13.542-9.026c3.961-4.81 5.667-4.462 6.818-6.67 1.151-2.208 3.654-10.307 2.969-14.026-.773-4.179-3.028-14.438-5.879-10.424z" fill="#52517B"/><path d="M102.772 48.37c1.251-6.67 6.57-12.533 9.728-13.129 3.158-.602 3.896-2.426 4.764-3.648.437-.62.885-.92 1.322-.98a6.465 6.465 0 0 0-.685 2.804c-.011 1.045.414 2.178 1.039 3.1-.076.017-.159.035-.236.058-1.375.366-2.715 1.565-3.382 2.792-.756 1.405-.809 2.987-.431 4.498 0 .012.006.018.006.03.141 1.635-.048 3.282.165 4.917.236 1.818.632 3.46 1.653 5.024.803 1.222 1.794 2.184 2.928 3.016-.608.744-8.43 4.77-9.522 5.632-5.572.708-3.748-8.052-5.047-8.064-1.552-.018-.171 6.316-1.245 7.373-1.033 1.021-2.887.543-2.834 1.972.047 1.351 5.637 3.541 6.316 3.937a62.916 62.916 0 0 1-7.49 4.044s-2.008 1.906-2.757-7.22c-.75-9.126 4.456-9.486 5.708-16.156z" fill="#343354"/><path d="M125.392 34.533s-4.569-.833-3.134 6.08c0 0-4.741-3.755-4.853-8.076 0 0 3.501-.2 3.949-1.587.443-1.388 4.038 3.583 4.038 3.583z" fill="#FAA284"/><path d="M124.247 34.58c-.018 0-.041-.006-.059-.006-1.848-.16-3.524.626-5.325.567-.307-.012-.602-.03-.897-.053-.33-.81-.549-1.665-.572-2.545 0 0 3.5-.2 3.949-1.588.448-1.387 4.037 3.584 4.037 3.584s-.501-.095-1.133.04z" fill="#CE7C56"/><path d="M128.821 32.484s-.679-.555-1.434-.585c.006.006.496.904 1.434.585z" fill="#B22828"/><path d="M128.839 31.227s.024.289 0 .419c0 0-.921.242-1.652 0v-.284l1.652-.135z" fill="#F2F0F2"/><path d="M122.163 23.063c6.517-1.393 6.163 5.537 6.169 5.59.183.337.619.803.797.921.383.266.407.36.407.36.147.643-.384.927-.685.95.024.177.041.349.053.52-.803.177-1.546.183-1.546.183.053.207.484 1.033 1.446.844.023-.006.071-.012.118-.024-.071.904.201 1.895-.502 2.185-2.987 1.221-6.056-2.899-6.056-2.899-1.34-1.11-3.3-1.877-3.3-1.877s-2.775-5.496 3.099-6.753z" fill="#FAA284"/><path d="M126.59 29.02c-.076-.349.03-.668.231-.709.2-.041.425.207.496.555.076.348-.03.667-.231.708-.2.042-.425-.206-.496-.555z" fill="#502F26"/><path d="M125.521 27.82l-.112-.365c.047-.018.779-.537 1.753-.614l.136.584c-.814-.023-1.765.39-1.777.396z" fill="#89493D"/><path d="M123.474 28.895s.472 0 .903 1.24c.431 1.239.136 1.41.047 1.475 0 0-1.086.567-1.889-1.251-.673-1.512.939-1.464.939-1.464z" fill="#FAA284"/><path d="M124.2 30.743s-.926-.242-.366-.803c0 0-.425-.915-.938-.579-.514.337.13 1.146.277 1.305.319.342 1.151.661 1.027.077z" fill="#DB7C65"/><path d="M124.737 22.803s.809.172 1.541.797c1.293 2.373-1.918 3.247-1.57 5.744.201 1.434-.266 3.465.909 4.268.838.578 1.812.891 2.81.974-.461.266-1.198.366-2.32.124-3.064-.655-3.648-2.013-3.979-2.704 0 0-3.866 1.53-4.752-1.115-.885-2.645.626-10.502 7.361-8.087z" fill="#CE7C56"/><path d="M123.544 26.848s-1.151.584-.679 1.706c.473 1.121.26 2.066-1.08.743-1.34-1.322-2.137.142-1.446 1.016.69.873 1.535 2.798-.88 3.465-2.408.661-2.839-1.198-2.615-2.066.225-.868-1.174-7.166 6.7-4.864z" fill="#452312"/><path d="M113.917 26.605s-1.039-1.08 1.606-2.615c2.65-1.535 1.546-3.235 4.557-2.768 3.01.46 3.553-1.783 5.974-.473 2.42 1.31.726 3.772-.939 4.097-1.665.319-11.198 1.76-11.198 1.76z" fill="#713D22"/><path d="M127.257 22.325s-1.593 2.822-4.858 2.273c-3.27-.55-10.1.555-8.477 3.772 1.624 3.217 2.474 1.535 2.503 3.353.03 1.824 3.554-1.098 3.194-3.217-.354-2.114 1.523-1.293 4.356-1.718 2.84-.42 3.666-3.058 3.282-4.463z" fill="#452312"/><path d="M113.439 55.004c-1.228-.295-3.194 6.15-2.279 6.718 2.467 1.54 16.086 3.742 16.788 4.51 1.175 1.286 2.172 3.352 3.489 3.718.366.1.608-.395 1.127-.507 1.388-.307.85-1.228 1.883-1.134 1.033.095 1.813.78 1.789-.637-.024-1.405-.714-1.6-1.127-1.547-.42.06-.065.927-.065.927-.673-.56-1.264-.154-1.671-.785-.407-.632.165-1.393 1.647-.679s1.983-1.304 1.322-1.057c-.661.248-.932-.017-2.101-.72-1.169-.702-1.328-.047-3.04.006s-13.642-7.827-17.762-8.813z" fill="#FAA284"/><path d="M116.319 37.083c-2.42-1.966-8.423-1.712-8.908 7.154-.478 8.719 1.494 16.257 3.342 17.71.324.253 7.437 2.797 7.437 2.797s-.295-3.636 3.312-6.434l-4.675-2.887s1.098-.495-.36-1.912c-1.47-1.41 4.108-12.969-.148-16.428z" fill="#fff"/><path d="M110.818 36.776c-.579 1.44-.596 3.265-.154 4.676.479 1.505 1.175 11.074 2.338 13.624.826 1.948 1.759 3.63 3.264 5.224.85.903 1.275.508 2.367 1.151-.602 1.34-.454 3.294-.454 3.294s-7.107-2.538-7.438-2.798c-1.842-1.446-3.813-8.99-3.341-17.71.236-4.173 1.688-6.44 3.418-7.46z" fill="#CFE6FF"/><path d="M93.51 73.953c-.195-.578-.419-1.393-.655-2.538-.035-.189-.089-.425-.142-.702-.56-2.851-1.83-9.811-2.036-11.322a66.956 66.956 0 0 0-.207-1.476v-.012l-.088-.496-1.022.065.083.496c.047.271.118.797.207 1.452.543 4.103 1.334 8.306 2.166 11.493.348 1.352.708 2.52 1.063 3.424l.861.236c-.064-.16-.135-.342-.212-.566-.006-.024-.012-.036-.018-.054z" fill="#D9DBDF"/><path d="M91.409 57.85l-1.021.064c.047.272.112.774.2 1.411.555 4.168 1.252 8.33 1.99 11.417.307 1.28.62 2.373.932 3.205l.018.047c.083.213.16.402.242.579l1.133.29c-2.378-4.346-3.441-16.724-3.494-17.013z" fill="#C4C8CD"/><path d="M110.475 77.968c-.206-.62-.454-1.506-.72-2.78-.307-1.494-1.051-5.59-1.588-8.678-.277-1.612-.502-2.952-.573-3.495a53.92 53.92 0 0 0-.183-1.293v-.005l-.082-.496-1.021.065.082.495c.042.242.101.697.177 1.27.166 1.233.355 2.473.555 3.689.75 4.599 1.712 8.872 2.621 11.352l.856.236a3.019 3.019 0 0 1-.118-.33c0-.007-.006-.019-.006-.03z" fill="#D9DBDF"/><path d="M108.35 61.669l-.932.059v.006l-.089.006c.047.277.112.79.195 1.446.142 1.128.295 2.26.46 3.377.685 4.622 1.559 8.966 2.491 11.41.006.012.012.03.018.041.041.112.089.225.136.325l1.003.254c-2.502-6.7-3.234-16.635-3.282-16.924z" fill="#C4C8CD"/><path d="M108.108 46.481c-.449-1.488-2.326-2.745-4.132-2.81l-16.493-.543c-2.297-.083-3.524 1.482-3.66 2.314-.041.236 1.83.171 1.889.443l3.96 14.574s20.738 2.007 21.653 2.16c.927.154 1.842-.595 1.122-2.337-.177-.425-4.339-13.8-4.339-13.8z" fill="#414A5C"/><path d="M102.359 45l-16.682-.733c-1.31-.059-2.137.886-1.872 2.108l3.666 13.718s7.981 2.834 23.854 2.527l-4.935-14.8c-.431-1.475-2.266-2.738-4.031-2.82z" fill="#697082"/><path d="M85.045 51.008c.413.307.844.579 1.305.768 1.346.549 3.01.171 4.374-.089 3.624-.696 6.452-.796 9.923.585 2.792 1.11 6.015 2.562 7.739 5.147.791 1.193 1.109 2.568 1.735 3.837.236.478.508.933.803 1.37.136 0 .266 0 .401-.006l-4.935-14.8c-.436-1.475-2.266-2.744-4.037-2.82l-16.682-.733c-1.31-.059-2.137.886-1.871 2.108l1.245 4.633z" fill="#777F94"/><path opacity=".5" d="M85.676 44.267l16.682.732c1.765.082 3.601 1.346 4.038 2.821l4.752 14.239c.283-.006.561-.006.844-.012l-4.935-14.8c-.431-1.475-2.267-2.744-4.038-2.82l-16.681-.733c-.756-.035-1.346.266-1.665.762.277-.136.62-.207 1.003-.19z" fill="url(#paint1_linear)"/><path d="M208.194 105.226c2.934 0 5.312-1.445 5.312-3.229 0-1.783-2.378-3.228-5.312-3.228-2.935 0-5.313 1.445-5.313 3.228 0 1.784 2.378 3.229 5.313 3.229z" fill="#D27474"/><path d="M214.811 93.74h-13.235l1.311 8.299c0 .26 2.373.472 5.306.472 2.928 0 5.307-.212 5.307-.472l1.311-8.3z" fill="#D27474"/><path d="M203.743 99.406c.974-.82 2.166-.041 3.441-.212 1.346-.183 2.71-1.458 3.902-.815 1.954 1.05 2.975-.224 3.034-.277l.691-4.363h-13.235l1.069 6.765c.425-.449.932-.962 1.098-1.098z" fill="#A35A5A"/><path d="M215.832 92.045l-1.246 3.317c0-.743-2.863-1.34-6.393-1.34s-6.393.602-6.393 1.34l-1.245-3.317h15.277z" fill="#D27474"/><path d="M208.193 97.494c3.547 0 6.422-.989 6.422-2.208 0-1.22-2.875-2.208-6.422-2.208-3.547 0-6.422.989-6.422 2.208 0 1.22 2.875 2.208 6.422 2.208z" fill="#D27474"/><path d="M208.193 94.519c4.219 0 7.639-1.107 7.639-2.473 0-1.366-3.42-2.474-7.639-2.474-4.218 0-7.638 1.108-7.638 2.474s3.42 2.473 7.638 2.473z" fill="#E6C1C1"/><path d="M208.193 94.176c3.945 0 7.143-.954 7.143-2.131 0-1.177-3.198-2.13-7.143-2.13-3.944 0-7.142.953-7.142 2.13s3.198 2.131 7.142 2.131z" fill="#785920"/><path d="M210.997 79.85c-.62 1.186-2.013 12.024-2.013 12.024l.526.26c.566-7.52.927-9.486 1.582-12.202.012-.047.525-1.269-.095-.082z" fill="#00783C"/><path d="M211.989 61.987c-3.737 9.31-.986 17.987-.986 17.987 4.221-1.683 4.598-6.765 4.598-6.765-4.663 2.627.231-1.682.231-1.682 1.953-7.007-3.843-9.54-3.843-9.54z" fill="#21A813"/><path d="M209.114 72.571s4.475 4.357.012 1.4c0 0-.49 4.58 1.871 6.003 0 0 3.902-8.548.844-18.105 0-.006-4.173 3.572-2.727 10.702zM215.271 77.519s-.72.914.626 2.006c1.346 1.093-1.387.644-1.552-1.31-.166-1.954-2.663.655-1.27 3.4 1.287 2.538-2.845 5.466-4.527 10.803.23-.089.466-.16.708-.219.921-2.432 2.757-6.7 5.254-9.905 3.689-4.734 10.342-4.628 10.342-4.628s-5.75-2.45-9.581-.147z" fill="#00783C"/><path d="M208.612 89.176c.118.537.626 1.948.986 2.946.106-.018.206-.03.313-.047-.307-.839-.709-1.612-.892-2.273-1.534-5.472.856-7.556 1.565-11.64-9.321 9.55-2.167 10.146-1.972 11.014z" fill="#00783C"/><path d="M216.83 80.723c-.355 1.192.442 2.497-.408 2.62-.85.125.703-2.425-.366-2.26-1.068.165-1.889 1.529-1.889 1.529.054 4.486-.501.525-.501.525-1.736 3.235-.419 4.864-.419 4.864-1.884 1.051-3.288 2.857-4.156 4.227.141-.036.283-.071.425-.1.956-1.577 2.656-3.649 5.442-4.794 4.918-2.025 6.889-6.558 6.889-6.558s-4.657-1.24-5.017-.053z" fill="#21A813"/><path d="M216.653 83.734c-3.353.761-3.4 4.273-3.4 4.273-1.978 1.163-3.353 2.91-4.186 4.233a5.62 5.62 0 0 1 .455-.106c.956-1.576 2.656-3.648 5.442-4.793 4.918-2.025 6.889-6.559 6.889-6.559s-1.847 2.19-5.2 2.952z" fill="#00783C"/><path d="M206.612 83.114c.242 2.674 2.137 7.314 2.869 9.032a6.16 6.16 0 0 1 .738-.1c-.744-1.216-2.881-4.965-3.43-8.648-.661-4.48 2.284-6.535-1.73-11.995 0 0-3.719 6.328-.838-1.045 0 0-1.706-1.346-2.32-2.178 0 0 .012.997-.785 1.965 0 0 .449-3.553-4.002-2.945 0 0-2.131 3.229 1.765 5.85 0 0 2.048 1.157 2.762 1.96 0 0-1.9-1.034-3.24-.396 0 0 .566 2.851 1.865 3.117s1.434.407 1.434.407.172.673 1.034.59c.861-.088.885.579.885.579s-1.458-.626-2.586-.219c0 0-.047 1.754 1.996 2.137 2.036.372 3.282-1.434 3.583 1.89z" fill="#21A813"/><path d="M206.612 83.114c.242 2.674 2.137 7.314 2.875 9.032a6 6 0 0 1 .738-.1c-.744-1.216-2.881-4.965-3.43-8.648-.171-1.151-.1-2.137.024-3.064.289-2.101.873-3.89-.301-6.505-.331-.732-.803-1.535-1.453-2.426 0 0-3.718 6.328-.838-1.045 0 0-1.706-1.346-2.32-2.178 0 0 .006.991-.785 1.965 0 0 .449-3.553-4.008-2.945 0 0-.342 2.721 3.548 5.342 0 0 5.903 7.12 4.775 7.526 0 0-4.451.774-2.408 1.157 2.036.372 3.282-1.434 3.583 1.89z" fill="#00783C"/><path d="M205.927 77.725c-.135 1.582.886 2.603.886 2.603.289-2.101.874-3.89-.301-6.505.484 2.32-.449 2.32-.585 3.902zM208.122 92.6c-.454-1.47-1.535-4.232-3.583-5.985 0 0 1.617-1.334.555-4.852 0 0-1.328 3.766-.384-.614 0 0-.531-1.494-1.546-1.871-1.016-.378-.006 2.432-.809 2.142-.803-.289.236-1.416.124-2.65-.112-1.234-4.941-.945-4.941-.945s1.039 4.835 5.449 7.798c3.27 2.196 4.421 5.567 4.793 7.16.118-.07.23-.13.342-.182z" fill="#21A813"/><path d="M208.14 92.594c-.425-1.422-1.452-4.055-3.601-5.98 0 0 .649-3.453-2.479-4.863-3.135-1.411-4.516-3.926-4.516-3.926s1.039 4.835 5.448 7.798c3.271 2.196 4.422 5.567 4.794 7.16.112-.07.23-.135.354-.189z" fill="#00783C"/><path d="M207.881 92.725c-1.984-3.14-5.201-4.192-4.864-6.021.354-1.93-1.642-3.082-1.388-1.854.248 1.228-1.34 1.995-.714 1.08.632-.909.024-1.34.024-1.34-2.757-.72-5.833 1.812-5.833 1.812s4.05-1.257 7.161.974c2.343 1.683 4.415 4.321 5.301 5.526.1-.065.206-.124.313-.177z" fill="#00783C"/></g><defs><linearGradient id="paint0_linear" x1="192.686" y1="52.127" x2="192.871" y2="57.474" gradientUnits="userSpaceOnUse"><stop offset="0" stop-color="#fff"/><stop offset="1" stop-color="#46495F"/></linearGradient><linearGradient id="paint1_linear" x1="84.667" y1="52.874" x2="111.987" y2="52.874" gradientUnits="userSpaceOnUse"><stop stop-color="#fff"/><stop offset="1"/></linearGradient><clipPath id="clip0"><path fill="#fff" d="M0 0h261.35v112H0z"/></clipPath></defs></svg>