<svg width="375" height="115" fill="none" xmlns="http://www.w3.org/2000/svg" viewBox="0 0 375 115"><path fill="#F5FCFF" d="M0 0h375v114H0z"/><g clip-path="url(#clip0)"><path d="M214.83 83.654c-4.77 1.689-10.519 1.515-14.859-1.27-4.264-2.733-8.15-4.709-13.396-4.617-4.689.087-8.564 2.621-13.109 3.159-3.604.43-7.259-1.142-9.869-3.66-2.55-2.458-4.239-6.204-3.133-9.567.578-1.761 1.848-3.215 2.57-4.92 1.668-3.936-2.724-6.311-1.633-10.452.931-3.522 4.796-6.035 4.74-9.68-.041-2.666-2.109-4.734-2.836-7.202-.732-2.487-.573-5.277.722-7.555a9.028 9.028 0 0 1 4.248-3.793c1.592-.676 3.368-.691 4.597-2.078 2.191-2.478 2.994-5.16 5.999-6.972 2.544-1.53 5.907-1.628 8.825-1.362 6.485.594 12.786 4.019 16.441 9.475 1.295 1.935 2.232 3.911 2.263 6.21.036 2.513.036 5.036 1.571 7.17 1.29 1.792 3.363 2.842 5.421 3.65 2.058.81 4.213 1.464 6.014 2.739 1.807 1.274 3.241 3.353 3.031 5.554-.174 1.843-1.449 3.44-1.623 5.282-.307 3.348 2.918 5.78 4.904 8.492 2.785 3.798 3.245 9.163 1.152 13.38-2.411 4.853-6.798 5.949-11.39 7.776-.209.082-.43.164-.65.24z" fill="#0B2D4E"/><path d="M203.113 61.407c.169 4.116-.783 7.207-4.545 9.24-3 1.622-6.588 2.154-9.895 2.231-5.549.138-11.727-1.295-15.878-5.19-.753-.707-1.475-1.577-1.531-2.606-.051-.936.466-1.822.512-2.759.077-1.581-1.152-2.892-1.705-4.376-.726-1.96-.23-4.152.42-6.138.65-1.986 1.469-3.992 1.372-6.08-.128-2.714-1.756-5.078-3.061-7.459-1.305-2.38-2.329-5.272-1.218-7.75.732-1.632 2.487-2.881 4.274-3.081 1.889-.21 3.588 1.95 4.801 3.143a29.38 29.38 0 0 0 5.401 4.197c2.702 1.638 5.666 2.846 8.205 4.725 1.536 1.136 3.189 2.698 3.921 4.51.829 2.042-.619 4.013 1.131 5.891 1.131 1.213 2.867 1.623 4.233 2.56 2.923 2.001 3.43 5.697 3.563 8.942z" fill="#061F33"/><path d="M172.477 84.432c3.896-6.004 6.317-13.37 2.933-20.147-.343-.686-.757-1.439-1.484-1.68-1.566-.521-3.691.042-5.052.84-4.725 2.774-7.617 7.99-10.274 12.633-2.759 4.822-5.154 9.844-7.923 14.66-1.121 1.95-2.258 3.926-2.857 6.097-.527 1.899-.583 4.074.133 5.932 3.113 8.037 11.666-1.807 14.271-4.78a118.902 118.902 0 0 0 10.253-13.555z" fill="#26A8D1"/><path d="M207.72 77.721c1.121-4.74 1.699-9.593-.84-12.823-1.146-1.458-3.189-2.472-4.857-3.194-3.261-1.407-6.588-3.301-10.079-3.915-3.675-.645-7.77-1.045-11.435-.123-2.329.588-4.505 1.674-6.588 2.85-1.807 1.02-4.024 1.895-4.899 3.794a128.338 128.338 0 0 0-5.574 14.194c-1.311 4.029-2.744 8.246-.681 12.326.671 1.32 1.638 2.452 2.406 3.716.85 1.408 1.167 2.729 1.28 4.351.255 3.701.153 7.417.143 11.128-.005 1.07.798 1.193 1.863 1.214 1.966.046 2.718-.236 4.525-.236 5.953-.01 8.513.435 14.466.425 2.477-.005 5.072-.952 7.396-.471 1.956.404 4.863 1.259 5.805-.563.891-1.725 1.745-.706 1.838-2.646a122.225 122.225 0 0 1 3.189-22.38c.501-2.073 1.366-4.79 2.042-7.647z" fill="#3DC8E8"/><path d="M193.935 63.926c1.402-2.36 1.72-5.303-.118-7.576-.839-1.039-2.324-1.157-3.593-1.177a30.325 30.325 0 0 0-7.438.788c-2.319.543-4.683 1.46-5.687 3.804-.747 1.74-.486 3.752.497 5.344a6.583 6.583 0 0 0 4.028 2.907c2.667.635 5.795.548 8.339-.517 1.597-.665 3.03-1.986 3.972-3.573zM209.828 99.456c-.02-3.635-.035-7.269-.056-10.903-.005-1.265.814-8.968-1.152-8.881-.21.01-.404.117-.578.24-.978.701-1.484 1.874-1.94 2.99-1.433 3.49-2.641 9.08-5.626 11.527-3.035 2.483-7.703 3.532-11.476 4.13-4.407.697-8.886.748-13.334 1.02-2.882.174-6.056.588-7.95 2.769-1.351 1.556-2.037 3.885-2.759 5.789-.629 1.659-1.3 1.321-.02 2.826.548.639 1.643-.804 2.406-.441 2.779 1.311 6.229-.066 9.26.441 8.476 1.417 17.127-.246 25.711-.656 1.838-.087 3.148 1.899 4.499.656 1.009-.927 2.155.819 2.493-.507 1.147-4.525.548-6.342.522-11z" fill="#26A8D1"/><path d="M169.227 37.37c-3.251 3.342-.302 11.507 4.878 10.324 5.564-1.27 4.73-9.945-.302-11.368-1.96-.553-3.527-.031-4.576 1.044z" fill="#93B1DB"/><path d="M222.799 87.841a407.93 407.93 0 0 1 2.959 5.406c1.971 3.675 5.636 11.839-.23 13.856-2.954 1.019-4.643.02-6.593-2.129a124.37 124.37 0 0 1-18.673-27.053c-1.859-3.645-6.788-13.14-.799-15.31a7.281 7.281 0 0 1 5.846.425c.808.435 1.53 1.023 2.216 1.632 4.325 3.855 7.402 8.83 10.14 13.877 1.684 3.123 3.42 6.204 5.134 9.296z" fill="#3DC8E8"/><path d="M188.857 65.13c1.781-.574 3.256-1.68 3.803-3.446.502-1.602-.286-3.398-.43-5.01a30.75 30.75 0 0 1-.051-4.654c.092-1.433.23-2.923.01-4.35-.123-.815-.573-.677-1.397-.999-.824-.322-1.751-.328-2.646-.322-1.838.005-6.624-.128-7.761 1.484-.522.742-.563 1.669-.588 2.55-.031 1.064-.22 2.44-.394 3.925-.077.66-.031 1.32-.133 1.976-.113.732-.395 1.438-.635 2.14-.922 2.662-.056 5.19 2.82 6.408 2.068.87 5.017 1.065 7.402.297z" fill="#FAA284"/><path d="M192.184 47.67c-.123-.815-.573-.677-1.397-.999-.824-.322-1.751-.328-2.647-.322-1.837.005-6.623-.128-7.76 1.484-.522.742-.563 1.669-.588 2.55-.031 1.064-.22 2.44-.395 3.925-.076.66-.03 1.32-.133 1.976-.087.558-.266 1.1-.46 1.638 1.781.66 3.788.809 5.646.353 3.347-.824 5.876-2.907 7.683-5.61.01-.21.015-.42.031-.63.102-1.448.24-2.938.02-4.366z" fill="#E5785C"/><path d="M194.851 37.185c-.015-2.451-.353-4.775-.983-6.71-2.723-8.334-13.119-10.391-19.379-4.413-6.982 6.67-4.31 22.62 3.045 28.225 1.966 1.5 4.638 2.022 7.023 1.382 7.223-1.935 10.335-10.82 10.294-18.483z" fill="#FAA284"/><path d="M193.485 37.39c3.199-1.75 4.182 2.678 3.634 4.884-.225.91-.589 1.796-1.152 2.549-.762 1.008-2.938 2.682-4.192 1.577-.568-.502-.63-1.352-.645-2.11-.051-2.032.184-5.712 2.355-6.9z" fill="#F8A17A"/><path d="M183.068 51.979c-.783 0-1.571-.056-2.365-.174l.143-.957c2.872.425 5.733.025 8.277-1.157.692-.323 1.28-.655 1.792-1.03a8.406 8.406 0 0 0 2.319-2.559l.834.492a9.387 9.387 0 0 1-2.59 2.851c-.563.41-1.203.778-1.95 1.126a15.354 15.354 0 0 1-6.46 1.408z" fill="#6382AB"/><path d="M194.867 30.823c-2.867-8.774-13.811-10.94-20.404-4.643-1.454 1.392-2.508 3.168-3.204 5.165.148.225.312.455.507.686.906 1.049 2.149 1.73 3.409 2.313 3.67 1.695 7.621 2.693 11.594 3.435.291.056.588.107.88.169 1.095.215 2.181.486 3.133 1.05 2.697 1.591 1.54 5.093 3.516 6.623.179.138.359.23.543.292.732-2.61 1.075-5.385 1.06-8.026-.016-2.585-.369-5.032-1.034-7.064z" fill="#E5785C"/><path d="M176.996 47.29s2.933.988 7.688.159c0 0-1.233 3.808-4.448 3.486-2.866-.287-3.24-3.645-3.24-3.645z" fill="#56362E"/><path d="M177.104 47.484s3.045 1.116 7.381.154c0 0-.758 1.587-4.152 1.408-3.014-.16-3.229-1.562-3.229-1.562z" fill="#fff"/><path d="M176.848 35.946s-2.569-1.07-5.431.855c0 0-.025-.343.563-.91.589-.569 2.35-1.398 4.157-.938.005-.005 1.105.645.711.993zM182.945 36.709s2.59-1.014 5.415.967c0 0 .031-.343-.547-.921-.579-.579-2.319-1.449-4.136-1.024 0-.005-1.116.624-.732.978z" fill="#6A371A"/><path d="M180.58 45.948c-2.304.973-3.573-.097-3.686-1.193-.072-.711.323-1.351 1.003-1.633 1.403-.573 2.365-2.758 2.375-2.784.016.496-.46 2.385-2.236 3.455-.384.23-.62.476-.584.824.061.614.967 1.52 3.128 1.331z" fill="#D88D6C"/><path d="M174.964 37.923s-1.428-.082-1.586-.63c0 0-.236.737.614 1.054-.297.318-.507.784-.543 1.321-.071 1.019.492 1.884 1.259 1.94.768.056 1.444-.727 1.516-1.745.071-1.019-.492-1.89-1.26-1.94zM185.903 38.69s-1.428-.082-1.587-.63c0 0-.235.738.614 1.055-.297.317-.506.783-.542 1.32-.072 1.02.491 1.884 1.259 1.94.768.057 1.443-.726 1.515-1.745.067-1.019-.496-1.884-1.259-1.94z" fill="#56362E"/><path d="M187.936 36.94c1.044.389 2.073.829 2.928 1.535 2.411 2.002.706 5.273 2.416 7.1 1.515 1.623 3.813-.522 4.412-2.017 1.111-2.759 1.044-5.83.962-8.799-.046-1.658-.097-3.337-.578-4.924-.532-1.73-1.561-3.271-2.79-4.597-3.547-3.829-8.906-5.82-14.092-5.492-4.054.256-11.169 3.665-7.99 8.825.727 1.177 1.848 2.052 2.994 2.825 3.353 2.258 7.095 3.875 10.898 5.242.277.097.558.2.84.302z" fill="#0B2D4E"/><path d="M194.826 36.13c-4.515 1.157-6.26 9.665-1.223 11.354 5.41 1.817 9.219-6.02 5.666-9.859-1.382-1.494-2.989-1.863-4.443-1.494z" fill="#93B1DB"/><path d="M196.305 37.227c-3.117.501-5.037 7.12-1.822 8.942 3.45 1.96 6.69-3.936 4.658-7.335-.794-1.326-1.833-1.771-2.836-1.607z" fill="#6382AB"/><path d="M196.934 36.73l-1.203-.138c.819-7.059.471-16.078-5.825-18.955-2.979-1.362-11.517-2.877-15.28 2.19-.45.508-.752.932-.752.932 2.329-7.191 13.314-5.702 16.534-4.228 6.956 3.184 7.391 12.74 6.526 20.199z" fill="#93B1DB"/><path d="M174.34 103.36h-24.754v4.848h24.754v-4.848z" fill="#9AC0E2"/><path d="M153.834 103.832l-6.25-31.808a1.792 1.792 0 0 0-1.756-1.449h-41.533a1.78 1.78 0 0 0-1.439.737l-.005-.005-1.919 2.268 1.699-.374 6.153 31.317a1.792 1.792 0 0 0 1.756 1.448h41.533a1.792 1.792 0 0 0 1.761-2.134z" fill="#9AC0E2"/><path d="M108.646 108.208h41.534a1.787 1.787 0 0 0 1.755-2.134l-6.25-31.808a1.79 1.79 0 0 0-1.755-1.449h-41.534a1.789 1.789 0 0 0-1.756 2.135l6.25 31.808a1.784 1.784 0 0 0 1.756 1.448z" fill="#D6ECFF"/><path d="M121.71 89.724c.383 2.145 2.431 3.885 4.576 3.885 2.145 0 3.547-1.74 3.138-3.885-.415-2.145-2.463-3.885-4.577-3.885s-3.521 1.74-3.137 3.885z" fill="#9AC0E2"/><path d="M240.92 89.218c.456-.947.374-1.94.087-2.841-.276-.921-.773-1.715-1.31-2.585-.543-.855-1.096-1.792-1.433-2.913-.343-1.136-.246-2.41.071-3.485.681-2.196 2.079-3.819 3.041-5.478.481-.839.875-1.689 1.034-2.63.174-.932.112-1.93-.343-2.867.793.696 1.182 1.822 1.234 2.913.051 1.105-.231 2.221-.651 3.204-.834 1.996-2.088 3.614-2.574 5.37-.277.864-.343 1.71-.149 2.549.164.86.614 1.73 1.019 2.677.43.921.844 1.986.931 3.081.093 1.08-.153 2.299-.957 3.005z" fill="#fff"/><path d="M244.12 108.106h-8.733a3.397 3.397 0 0 1-3.399-3.399V90.426h15.531v14.281a3.397 3.397 0 0 1-3.399 3.399z" fill="#0069DC"/><path d="M248.379 94.424c-2.959 0-5.359 2.436-5.359 5.436 0 3.005 2.4 5.436 5.359 5.436s5.359-2.436 5.359-5.436-2.395-5.436-5.359-5.436zm0 8.937c-1.904 0-3.45-1.566-3.45-3.496s1.546-3.496 3.45-3.496c1.904 0 3.45 1.566 3.45 3.496s-1.546 3.496-3.45 3.496z" fill="#0069DC"/><path d="M244.668 90.426v14.552a3.128 3.128 0 0 1-3.128 3.128h2.851a3.127 3.127 0 0 0 3.128-3.128V90.426h-2.851z" fill="#0046B4"/><path d="M234.245 100.97a1.914 1.914 0 1 0 .001-3.829 1.914 1.914 0 0 0-.001 3.829z" fill="#fff"/><path d="M234.245 100.843a1.786 1.786 0 1 0 .002-3.572 1.786 1.786 0 0 0-.002 3.572z" fill="#fff"/><path d="M232.495 99.425c.062.297.2.568.389.788a2.86 2.86 0 0 1 2.79-2.231.847.847 0 0 0-.087-.103 2.97 2.97 0 0 0-.527-.05c-1.121 0-2.094.65-2.565 1.596z" fill="#0046B4"/><path d="M233.442 100.653a1.785 1.785 0 0 0 2.59-1.597c0-.337-.092-.655-.255-.926a2.87 2.87 0 0 0-2.335 2.523zM234.706 97.623c.251 0 .497.03.727.092a1.79 1.79 0 0 0-2.933.947 2.863 2.863 0 0 1 2.206-1.039z" fill="#46B400"/><path d="M236.446 97.52h1.244v.338h-.85v.61h.712v.337h-.712v.87h-.389v-2.154h-.005zM238.647 98.103c-.235 0-.42.175-.491.395h-.005s.005-.052.005-.108v-.256h-.369v1.536h.384v-.61a.94.94 0 0 1 .031-.25.432.432 0 0 1 .419-.323c.052 0 .093.006.093.006v-.38a.198.198 0 0 0-.067-.01zM239.529 98.089c.445 0 .68.322.68.732 0 .046-.01.148-.01.148h-1.065c.026.272.231.41.461.41a.773.773 0 0 0 .445-.17l.149.277s-.236.22-.62.22c-.511 0-.829-.368-.829-.808.005-.476.328-.81.789-.81zm.291.62c-.005-.21-.138-.323-.307-.323-.194 0-.333.123-.368.322h.675zM241.094 98.089c.445 0 .681.322.681.732 0 .046-.01.148-.01.148H240.7c.025.272.23.41.46.41.246 0 .446-.17.446-.17l.148.277s-.235.22-.619.22c-.512 0-.829-.368-.829-.808.005-.476.327-.81.788-.81zm.297.62c-.005-.21-.138-.323-.307-.323-.195 0-.333.123-.369.322h.676zM245.133 98.703h.051v-.02c0-.205-.128-.272-.297-.272-.22 0-.424.149-.424.149l-.144-.277s.241-.19.604-.19c.405 0 .64.226.64.615v.962h-.353v-.128c0-.061.005-.107.005-.107h-.005c.005 0-.118.271-.471.271-.276 0-.522-.174-.522-.481.005-.491.665-.522.916-.522zm-.292.701c.205 0 .348-.22.348-.404v-.036h-.066c-.195 0-.512.026-.512.24-.005.103.072.2.23.2zM246.761 98.135l-.297.885c-.026.082-.051.205-.051.205h-.006s-.025-.128-.056-.21l-.322-.88h-.43l.645 1.51-.052.112c-.056.139-.158.2-.266.2-.087 0-.174-.061-.174-.061l-.128.286s.138.098.323.098c.225 0 .435-.118.547-.38l.686-1.765h-.419zM243.797 98.135l-.266 1.003c-.02.082-.031.164-.031.164h-.005s-.01-.082-.03-.164l-.282-1.003h-.343l-.281 1.003c-.021.082-.036.164-.036.164h-.005s-.011-.082-.031-.164l-.266-1.003h-.405l.471 1.535h.43l.261-.88c.026-.082.036-.164.036-.164h-.01s.015.087.041.164l.261.88h.425l.466-1.535h-.4zM236.446 99.978h.113v.615h-.113v-.615zM237.184 99.978h.112l.231.353c.025.036.051.097.051.097s-.005-.056-.005-.097v-.353h.112v.614h-.112l-.231-.353c-.025-.036-.051-.098-.051-.098s.005.057.005.098v.348h-.112v-.61zM238.371 100.433s.067.066.154.066c.046 0 .087-.025.087-.076 0-.108-.292-.093-.292-.282 0-.102.087-.18.205-.18a.26.26 0 0 1 .184.067l-.046.093s-.057-.052-.138-.052c-.052 0-.093.031-.093.072 0 .108.287.082.287.276 0 .098-.077.18-.2.18a.285.285 0 0 1-.209-.082l.061-.082zM239.349 99.978h.112v.394c0 .082.051.128.133.128.082 0 .139-.046.139-.128v-.394h.112v.394c0 .138-.097.23-.246.23-.148 0-.245-.092-.245-.23v-.394h-.005zM240.47 99.978h.199c.067 0 .098.005.123.015.062.025.103.087.103.169 0 .071-.041.143-.103.169 0 0 .01.01.021.03l.128.231h-.123l-.123-.231h-.108v.226h-.112v-.61h-.005zm.215.286c.061 0 .097-.036.097-.097 0-.056-.026-.097-.113-.097h-.087v.189h.103v.005zM241.944 100.433h-.215l-.051.159h-.113l.215-.614h.118l.215.614h-.112l-.057-.159zm-.107-.353l-.026.097-.056.164h.159l-.057-.164c-.005-.036-.02-.097-.02-.097zM242.737 99.978h.113l.23.353a.583.583 0 0 1 .051.097s-.005-.056-.005-.097v-.353h.113v.614h-.113l-.23-.353c-.026-.036-.051-.098-.051-.098s.005.057.005.098v.348h-.113v-.61zM244.181 99.967a.32.32 0 0 1 .225.082l-.051.082s-.072-.067-.169-.067c-.128 0-.205.097-.205.21 0 .118.077.22.205.22.107 0 .179-.077.179-.077l.056.082s-.087.097-.24.097a.306.306 0 0 1-.318-.317c0-.179.133-.312.318-.312zM245.046 99.978h.343v.097h-.23v.158h.204v.098h-.204v.164h.23v.092h-.343v-.61zM247.033 100.106l-.005-.01a.052.052 0 0 0 .036-.051c0-.041-.026-.067-.067-.067h-.087v.205h.046v-.077h.026l.036.077h.051l-.036-.077zm-.051-.035h-.026v-.062h.026c.015 0 .031.01.031.031a.03.03 0 0 1-.031.031z" fill="#fff"/><path d="M246.976 99.87a.206.206 0 0 0-.205.205c0 .112.093.205.205.205a.205.205 0 0 0 0-.41zm0 .358a.15.15 0 0 1-.153-.153.15.15 0 0 1 .153-.154.154.154 0 0 1 0 .307z" fill="#fff"/><path opacity=".2" d="M233.835 101.395a.667.667 0 0 1-.665-.665v-8.605c0-.368.302-.665.665-.665.369 0 .666.302.666.665v8.605a.667.667 0 0 1-.666.665z" fill="#fff"/><path d="M136.994 48.835h-39.42c-3.066 0-5.574-2.508-5.574-5.569V23.702c0-3.066 2.508-5.574 5.574-5.574h39.42c3.066 0 5.574 2.508 5.574 5.574v19.564c0 3.061-2.508 5.57-5.574 5.57z" fill="#FFC73C"/><path d="M151.291 42.698l-9.977-11.026-3.552 11.026h13.529z" fill="#FFC73C"/><path d="M111.057 34.867h22.584a1.23 1.23 0 0 0 1.224-1.224v-.23a1.23 1.23 0 0 0-1.224-1.223h-22.584a1.23 1.23 0 0 0-1.223 1.223v.23c0 .67.548 1.224 1.223 1.224zM100.927 34.867h5.759a1.23 1.23 0 0 0 1.223-1.224v-.23a1.23 1.23 0 0 0-1.223-1.223h-5.759a1.23 1.23 0 0 0-1.223 1.223v.23c0 .67.548 1.224 1.223 1.224zM123.511 26.102h-22.584a1.23 1.23 0 0 0-1.223 1.224v.23c0 .67.553 1.224 1.223 1.224h22.584a1.23 1.23 0 0 0 1.224-1.224v-.23c0-.67-.548-1.224-1.224-1.224zM133.641 26.102h-5.758a1.23 1.23 0 0 0-1.224 1.224v.23c0 .67.553 1.224 1.224 1.224h5.758a1.23 1.23 0 0 0 1.224-1.224v-.23c0-.67-.548-1.224-1.224-1.224zM118.505 40.43h15.136a1.23 1.23 0 0 0 1.223-1.223v-.23a1.23 1.23 0 0 0-1.223-1.224h-15.136a1.23 1.23 0 0 0-1.224 1.223v.23c0 .671.553 1.224 1.224 1.224z" fill="#fff"/><path d="M258.601 37.62c-1.132-.004-2.232-.153-3.01-1.263-1.52-2.181-3.85-4.136-6.455-1.92-1.505 1.28-.374 3.91-1.669 5.175-1.146 1.121-2.6.932-3.184 2.79-.859 2.733 1.853 5.129 2.724 7.489.732 1.98-.912 2.738-1.654 4.284-.568 1.193-.276 2.467.343 3.604 1.096 2.006 3.522 3.624 2.959 6.224-.471 2.17-.906 4.105 1.008 5.748 1.311 1.126 3.747 2.155 3.563 4.244-.067.737-.578 1.367-.717 2.093-.22 1.152.522 2.273 1.393 3.067 1.97 1.801 3.706 3.496 5.18 5.758.629.968 3.158 3.153 2.15 4.474 1.837-2.406 3.777-4.735 5.446-7.264 1.372-2.078 3.44-5.118 2.032-7.678-.44-.798-1.254-1.387-1.474-2.272-.404-1.592 1.162-3.067 1.74-4.418.911-2.124.241-4.591-1.366-6.188-.763-.753-1.587-1.587-1.7-2.652-.123-1.162.609-2.247.937-3.322.307-.988.496-2.043.609-3.071.077-.727.108-1.47-.061-2.176-.323-1.351-1.541-2.098-2.442-3.056-2.14-2.278-1.014-4.96-1.95-7.611-.829-2.365-2.657-2.048-4.402-2.058z" fill="#21A813"/><path d="M267.749 63.517c-.789.845-1.572 1.705-2.329 2.565-1.029 1.167-2.099 2.426-2.928 3.88a13.608 13.608 0 0 0-1.116 2.55 119.6 119.6 0 0 0-1.193-7.746c-.205-1.08-.409-2.129-.619-3.163l.046.02a35.117 35.117 0 0 1 7.878-10.78 5.187 5.187 0 0 0-.082-.486c-.026-.097-.062-.184-.092-.276a35.887 35.887 0 0 0-7.95 10.524 164.004 164.004 0 0 0-2.022-8.594l.138-.134c-.04-.046-.081-.082-.122-.122a39.404 39.404 0 0 1 3.486-13.78l-.62-.282a40.084 40.084 0 0 0-3.404 12.413c-1.075-3.818-2.247-7.34-3.562-10.672a81.294 81.294 0 0 0-2.57-5.851 3.37 3.37 0 0 0-.635.246 81.294 81.294 0 0 1 2.57 5.85c1.377 3.497 2.6 7.192 3.716 11.231-.179-.123-.358-.235-.553-.358-.225-.144-.466-.292-.747-.487a55.646 55.646 0 0 0-10.821-5.743c.061.282.148.563.256.84a54.881 54.881 0 0 1 10.181 5.461c.287.195.537.354.768.497.45.281.803.507 1.208.875a159.556 159.556 0 0 1 2.139 9.122c-4.141-2.534-8.824-4.295-13.61-5.083l-.031.194c.036.174.077.343.133.517a37.435 37.435 0 0 1 13.693 5.278c.189.937.373 1.883.558 2.856.512 2.718.916 5.395 1.223 8.031a32.314 32.314 0 0 0-12.474-6.377c-.006.235 0 .47.025.7a31.76 31.76 0 0 1 12.546 6.65l.011-.01c.532 4.924.706 9.684.522 14.255.133.4.138.784-.052 1.121v.036c.241-.312.482-.624.727-.936.19-4.602.026-9.393-.496-14.343l.112.025a12.926 12.926 0 0 1 1.418-3.741c.794-1.393 1.843-2.626 2.846-3.768.753-.855 1.531-1.715 2.314-2.554l-.486-.45z" fill="#00783C"/><path d="M272.508 54.236c.824.154 1.638.2 2.354-.501 1.408-1.372 3.363-2.467 4.945-.502.911 1.137-.271 2.887.492 3.983.675.972 1.755 1.039 1.924 2.467.246 2.104-2.052 3.46-3.01 5.057-.803 1.336.282 2.114.604 3.338.246.941-.143 1.827-.747 2.57-1.07 1.305-3.056 2.144-3.005 4.105.041 1.638.087 3.102-1.53 4.028-1.111.635-3.015 1.044-3.174 2.585-.056.543.231 1.07.231 1.618 0 .865-.697 1.576-1.434 2.032-1.679 1.034-3.168 2.021-4.555 3.46-.594.614-2.729 1.848-2.176 2.948-.998-1.996-2.083-3.957-2.943-6.02-.707-1.699-1.787-4.186-.41-5.85.43-.517 1.101-.835 1.382-1.444.512-1.1-.419-2.385-.65-3.445-.368-1.668.461-3.363 1.848-4.3.655-.44 1.372-.93 1.597-1.688.251-.83-.128-1.715-.22-2.54a12.364 12.364 0 0 1-.015-2.308c.041-.537.123-1.08.348-1.571.42-.932 1.408-1.31 2.191-1.879 1.868-1.356 1.423-3.46 2.467-5.252.942-1.607 2.216-1.126 3.486-.89z" fill="#00783C"/><path d="M273.337 63.676c-.225.097-.425.174-.604.246l-.23.092a81.206 81.206 0 0 1 4.141-7.412 59.99 59.99 0 0 1 2.667-3.88 2.649 2.649 0 0 0-.579-.364 61.913 61.913 0 0 0-2.666 3.875 82.258 82.258 0 0 0-3.87 6.86 29.727 29.727 0 0 0-.783-9.06l-.661.163c.84 3.414 1.044 6.92.625 10.412-.026.015-.046.03-.072.046l.077.102a118.932 118.932 0 0 0-2.58 5.769 26.56 26.56 0 0 0-4.279-8.554 2.224 2.224 0 0 0-.154.272 2.822 2.822 0 0 0-.159.45 25.792 25.792 0 0 1 4.167 8.825l.016-.005a125.63 125.63 0 0 0-.86 2.15 86.655 86.655 0 0 0-1.818 5.078 10.51 10.51 0 0 0-.404-1.628c-.404-1.172-1.008-2.242-1.597-3.235a83.652 83.652 0 0 0-1.336-2.186l-.573.363c.445.707.89 1.434 1.325 2.17.569.963 1.157 1.997 1.536 3.113.317.932.491 1.899.507 2.882h.092c-1.049 3.47-1.833 6.88-2.329 10.196.169.333.343.666.507.999-.185-.369-.062-.753.194-1.122.502-3.26 1.28-6.603 2.319-10.007a23.319 23.319 0 0 1 9.915-3.05c.077-.22.128-.45.164-.692a24.079 24.079 0 0 0-9.792 2.816 89.497 89.497 0 0 1 1.929-5.452c.261-.665.523-1.315.784-1.96a27.523 27.523 0 0 1 10.549-1.914c.082-.144.154-.292.215-.446l.005-.235a28.154 28.154 0 0 0-10.416 1.735 117.717 117.717 0 0 1 2.723-6.102c.328-.2.609-.307.962-.445.19-.072.394-.153.63-.256a40.317 40.317 0 0 1 8.041-2.534c.164-.25.297-.506.4-.773a41.647 41.647 0 0 0-8.728 2.698z" fill="#21A813"/><path d="M254.895 91.035h16.804l-2.948 16.815h-10.908l-2.948-16.815zM252.834 91.033h20.92v-4.72h-20.92v4.72z" fill="#D27474"/><path opacity=".1" d="M271.305 93.267h-16.021l-.389-2.232h16.804l-.394 2.232z" fill="#231F20"/><path d="M193.966 100.673c.506-.087 1.008-.169 1.515-.25 2.462-.384 4.909-.845 7.345-1.372 4.822-1.05 9.675-1.95 14.589-2.416a80.503 80.503 0 0 1 1.561-.133c2.201-.164 4.51-.22 6.521.834 2.017 1.054 3.619 3.542 3.128 5.943-.348 1.689-1.638 2.958-3.071 3.598-1.434.64-3.01.753-4.561.855l-15.044 1.014c-2.483.163-4.965.338-7.448.512-2.37.163-4.776.501-7.156.496-1.003 0-2.13-.189-2.974-.86-1.172-.931-1.884-2.918-1.996-4.469-.062-.803.097-1.786.716-2.283.333-.266.753-.348 1.157-.424 1.914-.354 3.808-.722 5.718-1.045z" fill="#3DC8E8"/><path d="M188.34 108.311c-1.213.251-2.16 1.315-3.368 1.674-.86.256-1.781.117-2.61-.19-.763-.286-1.536-.44-2.314-.686-.609-.194-1.428-.604-2.083-.471-1.715.359-3.425 1.577-4.976 2.37-.348.18-.732.364-1.116.287-.384-.072-.706-.537-.486-.865-.445.42-1.039 1.254-1.761.926-.297-.133-.471-.522-.307-.803-.246.271-.507.553-.85.686-.343.133-.793.077-.993-.231-.097-.143-.122-.322-.133-.496-.03-.594.149-1.183.4-1.725 1.223-2.672 3.992-4.653 6.347-6.245.414-.282.839-.568 1.32-.712.43-.133.886-.148 1.336-.148a26.657 26.657 0 0 1 8.61 1.392c.599.2 1.259.031 1.853-.082.44-.081.906-.163 1.336-.041.481.144.855.523 1.152.932.542.753.952 1.746.891 2.687-.052.717-.103 1.49-.947 1.638-.343.062-.691.026-1.04.062a3.11 3.11 0 0 0-.261.041z" fill="#FAA284"/><path d="M277.14 114.085H99.069c-1.813 0-3.287-1.403-3.287-3.133s1.47-3.133 3.287-3.133H277.14c1.812 0 3.286 1.403 3.286 3.133s-1.474 3.133-3.286 3.133z" fill="#ABCDEB"/><path d="M177.898 50.08c1.167-1.004 3.773-.917 4.627.122.635.773.441 1.751-.256 2.406-.829.773-1.853.727-2.881.497-1.295-.292-2.898-1.812-1.49-3.025z" fill="#6382AB"/></g><defs><clipPath id="clip0"><path fill="#fff" transform="translate(92 13.567)" d="M0 0h190.249v100.517H0z"/></clipPath></defs></svg>