<svg width="1600" height="320" fill="none" xmlns="http://www.w3.org/2000/svg" viewBox="0 0 1600 320"><path fill="#F5FCFF" d="M0 0h1600v320H0z"/><path d="M800 304.623c79.529 0 144-24.104 144-53.838s-64.471-53.839-144-53.839-144 24.105-144 53.839c0 29.734 64.471 53.838 144 53.838z" fill="#004EBB"/><g clip-path="url(#clip0)"><path d="M879.714 285.893l-13.21 7.963-133.391-75.516 13.211-7.963 133.39 75.516z" fill="#0032A5"/><path d="M757.724 208.321l-10.545 6.129c-3.374 1.962-7.731 2.498-12.527 1.637l10.545-6.128c4.801.861 9.153.32 12.527-1.638z" fill="#EB82B9"/><path d="M816.021 223.489c-1.603 2.612-3.654 4.633-6.059 6.035l-10.545 6.128c2.405-1.401 4.456-3.423 6.059-6.035 3.163-1.839 7.383-4.293 10.545-6.128z" fill="#A62F00"/><path d="M788.838 150.679a47.007 47.007 0 0 0-2.956-1.85c-9.36-5.405-17.981-5.971-24.223-2.346l-10.545 6.124c6.242-3.625 14.863-3.06 24.223 2.346.979.565 1.963 1.18 2.956 1.849 3.02 2.041 5.912 4.456 8.637 7.156l10.545-6.128c-2.725-2.695-5.617-5.11-8.637-7.151z" fill="#EB82B9"/><path d="M775.337 154.953a50.52 50.52 0 0 1 2.956 1.849c3.02 2.041 5.912 4.456 8.636 7.156 1.658 7.752 5.361 15.626 10.25 22.276-1.643 5.183-5.912 7.992-11.297 8.149.939.64 1.898 1.245 2.867 1.805 6.66 3.846 13.885 5.725 19.083 5.042-2.779 3.698-4.352 9.005-4.269 15.669.049 4.122.723 8.416 1.923 12.719-5.759 9.384-17.317 11.185-30.287 3.694a51.61 51.61 0 0 1-2.956-1.849 58.701 58.701 0 0 1-1.726-1.22c-5.828 1.785-15.365-.836-24.73-6.242a72.9 72.9 0 0 1-11.125-7.908c7.628 1.367 14.145-.807 17.367-6.61-7.412-12.218-11.667-26.333-10.698-38.3 1.574-19.525 16.501-26.337 34.006-16.23z" fill="#D70073"/><path d="M858.815 264.651l10.545-6.129c.625 9.011 2.13 19.654 9.316 26.923l-10.545 6.129c-7.186-7.275-8.691-17.918-9.316-26.923z" fill="#FFC882"/><path d="M833.152 199.453c16.054 9.271 29.166 31.655 29.387 50.33.074 6.211-1.283 11.233-3.723 14.863.625 9.01 2.13 19.653 9.315 26.923-2.616-.571-5.213-1.623-7.746-3.084-6.271-3.62-12.138-9.758-16.875-17.391-3.133-.428-6.517-1.599-10.058-3.571-.172-.098-.344-.192-.516-.295-12.512-7.225-23.239-22.418-27.464-37.616-1.195-4.298-1.874-8.597-1.923-12.718-.079-6.67 1.49-11.972 4.279-15.641 1.603-.246 2.995-.698 4.126-1.401.433.241.871.472 1.308.693 8.091 4.053 15.065 3.217 19.393-1.372.173.093.335.187.497.28z" fill="#FF8C00"/><path d="M843.697 193.325c-.162-.093-.325-.187-.487-.275l-10.545 6.128c.162.094.325.182.487.275 16.053 9.272 29.166 31.655 29.387 50.33.074 6.212-1.284 11.233-3.723 14.863l10.545-6.128c2.439-3.625 3.797-8.652 3.723-14.863-.221-18.67-13.334-41.059-29.387-50.33z" fill="#FFC882"/><path d="M847.833 176.834c-.856-16.122-12.119-34.605-25.531-42.347a32.777 32.777 0 0 0-1.726-.929c-6.512-3.261-12.301-3.36-16.57-.876l-10.545 6.128c4.269-2.478 10.058-2.385 16.57.876.58.29 1.151.6 1.726.93 13.412 7.741 24.675 26.229 25.531 42.346.384 7.206-1.377 12.768-4.623 16.216a12.643 12.643 0 0 1-2.828 2.253l10.545-6.128a12.502 12.502 0 0 0 2.828-2.253c3.251-3.448 5.007-9.01 4.623-16.216z" fill="#82D7F0"/><path d="M811.757 140.61c13.413 7.742 24.676 26.23 25.531 42.347.384 7.206-1.377 12.768-4.623 16.216-4.328 4.594-11.307 5.425-19.393 1.372a36.497 36.497 0 0 1-1.308-.693c-1.131.703-2.523 1.155-4.097 1.367-5.233.693-12.458-1.19-19.118-5.036a44.388 44.388 0 0 1-2.867-1.805c5.385-.153 9.655-2.966 11.297-8.15-4.889-6.65-8.592-14.529-10.25-22.275a43.057 43.057 0 0 1-.909-6.689c-.896-16.806 9.861-24.685 24.021-17.588.575.295 1.146.605 1.716.934z" fill="#00AFE1"/><path d="M788.838 181.57l-.025 7.924-14.287-8.248-.03 9.763 13.353 7.712-.019 7.859-13.359-7.707-.044 17.185-8.445-4.874.123-42.741 22.733 13.127zM815.923 153.816l7.904 34.217-6.271-3.62-1.967-8.745-7.378-4.259-1.859 6.541-6.04-3.487 7.958-25.059 7.653 4.412zm-6.851 13.073l5.696 3.29-1.589-7.21c-.453-2.021-.905-4.485-1.284-6.463l-.079-.044c-.388 1.535-.777 3.556-1.2 5.027l-1.544 5.4zM839.443 250.097c2.326 2.12 4.928 4.235 7.299 6.173l-1.987 4.938c-4.299-3.925-7.879-7.486-11.908-11.775a11.809 11.809 0 0 0-2.105-1.731c-6.812-4.446-13.156-13.889-13.127-25.216.03-10.403 5.789-14.918 14.795-9.719 9.231 5.332 14.273 16.285 14.243 25.757-.024 7.88-3.221 11.603-7.215 11.357l.005.216zm-7.614-8.961s.955 1.269 1.264 1.608c4.009 1.648 6.33-1.77 6.35-8.066.02-6.334-2.567-13.087-7.225-15.778-4.663-2.69-7.363 1.009-7.383 7.496-.059 5.956 2.214 11.981 6.045 15.02.438-.162.949-.28.949-.28z" fill="#fff"/></g><ellipse cx="741.818" cy="277.345" rx="21.532" ry="7.33" fill="#0032A5"/><g clip-path="url(#clip1)"><path d="M746.672 191.665c.428.889.921 2.048 1.095 2.493.17.445.323.884.143 1.281-.18.397-.513.752-.259 1.08.249.328.662.704.662.921 0 .217-.048.487-.408.603-.021.477-.032.752.021.879.058.127.058.572-.01.799-.069.228-.249.694-.249.842 0 .148.249.646.09.958-.17.344-.461.497-.821.376-.36-.122-1.656-1.419-1.572-2.7-.344.937-1.196-.286-1.323-.921-.296-1.503.651-2.477 1-1.752 0 0 .678-2.276 1.334-4.086l.297-.773z" fill="#FFC5A1"/><path d="M738.901 202.431c.466-.762.318-1.731.239-2.059 2.323-1.582 4.509-3.038 4.509-3.038l.35.095c-.027.254-.022.54.037.852.127.636.979 1.864 1.323.921-.085 1.281 1.212 2.578 1.572 2.7a.673.673 0 0 0 .408.011c-.44.169-1.07.28-1.578.476-1.286.503-1.101 2.419-.841 3.118-4.653-1.16-5.68-2.986-6.019-3.076z" fill="#FFC5A1"/><path d="M745.142 202.854c.037-.757-.032-1.646-.17-2.059-.159-.476-.947-1.762-1.979-2.117a7.468 7.468 0 0 0-.964-.254c.969-.651 1.625-1.085 1.625-1.085l.35.095c-.027.254-.022.54.037.852.127.636.979 1.864 1.323.921-.085 1.281 1.212 2.578 1.572 2.7a.68.68 0 0 0 .408.01c-.44.17-1.07.281-1.578.477a1.275 1.275 0 0 0-.624.46z" fill="#F0B28B"/><path d="M739.139 200.373c1.44-.98 2.827-1.911 3.674-2.477.174.063.349.137.518.238-.465 1.011-.476 4.028-.328 5.25l-.312 1.43c-2.774-1.08-3.51-2.303-3.785-2.377.461-.767.313-1.736.233-2.064z" fill="#F0B28B"/><path d="M736.133 197.011a5.534 5.534 0 0 0 1.964 2.732c.651.476 1.133.873 1.789 1.9.275-.207 1.021-.011 1.265-.117.476-.201.408-.524.635-1.238-.048.296-.01.572 0 .778.127.063.355.037.492-.016.572-1.111 1.191-2.789 1.71-3.065-.132-1.334.72-2.143 1.048-1.466.117.657.122 1.022.487 1.011.365-.01.582-.164.545-.598-.037-.439-.296-1.302.021-1.995.318-.699.821-.652.678-2.441.079-.042.153-.079.228-.127.852-.55 1.053-1.524.677-2.075-.561-.836-2.832-.719-4.081-.836-1.249-.122-3.605-.238-4.663.699-1.059.942-2.012 1.604-2.356 3.245-.338 1.646-.884 2.244-.439 3.609z" fill="#382F26"/><path d="M739.886 192.131c1.651-.545 5.594-.905 7.193.185a2.425 2.425 0 0 1-.307.185l.016.265c-1.223-1.011-5.277-.847-6.818-.466-.1.027-.27.064-.286-.016-.021-.079.143-.132.202-.153zM746.121 194.895c-.339.741-.079 1.603-.047 2.043.037.434-.18.593-.546.598-.365.01-.375-.355-.487-1.011-.328-.678-1.18.132-1.048 1.466-.518.275-1.138 1.953-1.709 3.065-.143.053-.371.079-.493.016-.01-.207-.047-.482 0-.778-.227.714-.158 1.037-.635 1.238-.243.106-.99-.09-1.265.117-.651-1.027-1.138-1.424-1.789-1.901a5.556 5.556 0 0 1-1.964-2.731c-.174-.54-.195-.958-.137-1.366 3.276 2.377 7.659 1.043 10.12-.756z" fill="#1F1A15"/><path d="M746.105 206.661c-.392-.784-.942-1.673-1.826-2.684-2.086-2.371-4.605-1.895-5.346-1.826-.254.36-.344.54-.625.794-.36.323-.995.349-1.016.709.513.291 1.757.307 2.461.376 2.864.281 4.24 1.297 6.352 2.631z" fill="#EDEDED"/><path d="M728.109 216.554c.238-.36.275-1.435.683-1.964.407-.529.254-1.027.561-1.588.307-.561.682-1.519.751-2.255.069-.735.683-3.382 1.657-4.61.974-1.228 2.287-1.503 3.213-1.71.767-.169 1.805-.566 2.34-.762.518.281 1.752.302 2.445.371 2.858.28 4.24 1.296 6.352 2.63.376.281 1.969 1.006 2.218 1.212.248.207 1.699 1.16 2.154 1.811.455.651 1.741 1.81 2.154 2.175.408.365 1.551.879 1.89 1.196.344.318.376.879.91 1.175.535.297.948.514 1.197.662.375.408.741.889 1.196 1.345.455.455.968 1.138.91 2.117-.058.979-.365 1.709-1.011 2.255-.651.545-1.445.751-1.821.651-.375-.101-1.217-.545-1.741-.572-.524-.021-1.927-.947-2.424-1.445a8.707 8.707 0 0 0-1.377-1.096c.117.99-.047 3.377-.047 4.298 0 .921-.053 3.743-.069 4.187-.016.445.307 2.631.476 3.536.17.905.561 3.79.276 4.166-.784-.223-1.895-.207-2.906-1.366-.821.958-2.403 2.716-3.907 3.832-1.503 1.117-4.213 1.938-5.923 1.414-1.709-.524-4.324-1.594-4.943-2.324-.614-.73-.18-3.372.296-4.875.476-1.503 1.524-3.414 1.572-4.303.048-.89-.18-3.372-.021-4.828.159-1.455-.932-3.054-1.228-3.668-.297.318-.535.72-.625.72.127.455-.296 1.048-.444 1.117.1.259.068.513-.022.603-.09.09-.603 1.027-1.683 1.403-1.08.376-1.948.344-2.265.286-.604-.778-1.276-1.599-1.286-2.35-.011-.752.248-3.092.492-3.446z" fill="#EDEDED"/><path d="M737.103 203.739c.074-.027.148-.053.206-.08.434.26 1.704.307 2.302.355 2.938.243 4.399 1.318 6.495 2.641-1.99-1.053-3.578-1.974-6.436-2.255-.641-.053-2.086-.249-2.567-.661zM745.423 214.981c.529.736 4.134 2.631 4.928 3.166.116.99-.048 3.377-.048 4.298 0 .921-.053 3.742-.069 4.187-.016.444.307 2.63.477 3.535.169.906.561 3.79.275 4.166-.784-.222-1.895-.206-2.906-1.365-.821.958-2.403 2.715-3.907 3.832-.524.391-1.196.741-1.921 1.016-.254-3.313 4.033-12.179 4.245-15.567.238-3.605-.767-5.971-1.074-7.268zM731.613 209.127c-.407 4.303 1.001 6.844 2.324 9.088-.297.318-.535.72-.625.72.127.455-.296 1.048-.444 1.117.1.259.068.513-.021.603-.09.09-.604 1.027-1.684 1.403a5.822 5.822 0 0 1-1.535.312c-.667-3.324.905-8.426 1.985-13.243z" fill="#DEDEDE"/><path d="M758.735 218.348c.059-.979-.455-1.662-.91-2.117-.455-.456-.821-.932-1.196-1.345l-.085-.047a43.636 43.636 0 0 0 1.831-2.112c.546-.72.98-1.096.911-2.007-.069-.91-.238-.804-.127-1.413.111-.609.407-1.249.386-1.736-.026-.487-.196-.572-.016-1.048.18-.476.572-.418.673-.408.1.011.402.376.407.779.011.402-.058.905.085 1.153.143.249.317.408.608.112.292-.297.72-.71.879-1.154a9.464 9.464 0 0 1 .556-1.16c.069-.121.593-.439.614.18.011.249-.138.72-.207 1.017-.068.296-.444 1.312-.502 1.821.296.084.434.598.153.989.085.588-.042.937-.344 1.408-.296.471-.81.89-.905 1.202-.095.317-.699 1.937-.752 2.255-.047.301-.852 2.879-2.17 4.383.058-.233.095-.482.111-.752z" fill="#FFC5A1"/><path d="M757.925 216.045c.455.455.969 1.138.91 2.117a4.066 4.066 0 0 1-.132.842l-.079.095c.053-.233.09-.482.105-.746.059-.98-.455-1.662-.91-2.118-.455-.455-.82-.931-1.196-1.344l-.085-.048c.048-.047.095-.105.148-.158.418.423.784.905 1.239 1.36z" fill="#F0B28B"/><path d="M756.628 214.886c-.027-.016-.059-.032-.085-.048a42.692 42.692 0 0 0 1.831-2.112c.546-.72.98-1.095.911-2.006-.069-.91-.238-.804-.127-1.413.111-.609.407-1.249.386-1.736-.026-.487-.196-.572-.016-1.048.085-.233.223-.339.355-.381.138.915.27 1.974.429 2.371.169.434.286 1.561-.17 2.493-.386.794-2.255 3.414-2.869 4.621-.227-.259-.434-.508-.645-.741z" fill="#F0B28B"/><path d="M731.158 222.054c1.08-.376 1.593-1.308 1.683-1.403a.227.227 0 0 0 .048-.085c.598.958 1.816 4.087 2.25 6.437-.191.905-.974 2.424-1.43 3.721-1.185-2.043-4.224-7.146-4.779-8.384.349.053 1.185.074 2.228-.286z" fill="#FFC5A1"/><path d="M734.646 228.438c-.302.73-.667 1.54-.932 2.286-1.185-2.043-4.224-7.145-4.779-8.384.344.053 1.18.074 2.223-.291.661-.228 1.111-.667 1.376-.995.376 1.995.487 5.007 2.112 7.384z" fill="#F0B28B"/><path d="M741.187 262.425c.477-1.673 1.742-4.68 1.742-5.362 0-.683.476-1.467.513-1.88.032-.407-.344-.958-.069-1.709.276-.752-1.402-8.062-1.466-9.258-.069-1.196.069-2.186-.582-3.038-.482-.635-2.043-1.424-3.033-2.964 1.71.508 4.399-.307 5.891-1.419 1.504-1.117 3.086-2.874 3.907-3.832.825.953 1.72 1.111 2.45 1.26.196 1.095.456 2.699.725 3.869.318 1.366.921 5.955.583 8.617-.344 2.663-.99 7.31-1.197 8.607-.206 1.297-1.741 5.155-2.117 6.32-.376 1.159-2.355 7.516-2.493 8.162-.137.651.477 1.778.307 2.493-.169.72-.958 1.81-.545 2.255.296.323.789.73 1.127.931a.373.373 0 0 1 .143.482c-.735 1.461-2.281 2.901-3.763 3.059-1.26.133-2.477.313-3.536.048-.487-.116-.789-.598-.715-1.096.36-2.376.911-6.674.969-7.526.069-.948.683-6.342 1.159-8.019z" fill="#785945"/><path d="M741.325 241.179c-.482-.636-2.043-1.424-3.033-2.965 1.71.509 4.399-.307 5.891-1.418 1.477-1.096 3.028-2.811 3.859-3.779-.625 4.954-.471 14.048-.058 15.641.476 1.842 1.027 8.13-.477 10.591-1.503 2.462-2.662 8.607-3.281 10.386-.556 1.603-1.61 4.541.047 9.12a3.188 3.188 0 0 1-.968.275c-1.26.132-2.478.312-3.536.053a.968.968 0 0 1-.715-1.096c.36-2.376.911-6.675.969-7.527.069-.958.683-6.351 1.159-8.029.476-1.673 1.741-4.68 1.741-5.362 0-.683.477-1.467.514-1.879.032-.408-.344-.958-.069-1.71.275-.752-1.403-8.062-1.466-9.258-.064-1.196.074-2.186-.577-3.043z" fill="#8F6A51"/><path d="M730.601 258.804c.101-1.673.959-3.414.99-4.647.032-1.228.784-3.589 1.059-4.441.275-.853.238-2.425.275-3.314.032-.889.17-5.944.514-7.31.296-1.196.074-1.895.016-3.08.788.72 3.202 1.699 4.811 2.191 1.022 1.551 2.578 2.334 3.065 2.97.46.603.524 1.275.55 2.037-.566 2.298-1.413 5.177-1.63 5.807-.297.863-1.413 4.303-1.821 5.854-.408 1.551-1.482 5.876-1.551 6.765-.069.889-.259 5.139-.466 5.843-.206.699-.386.863.138 1.197.72.455 1.074 1.439 1.127 2.689.053 1.249-.698 1.328-1.402 2.487-.699 1.16-2.239 1.504-2.885 1.625-.651.122-1.503-.169-1.863-.852.032-.392-.228-2.62-.365-3.372-.138-.751-.524-2.302-.731-3.975-.206-1.672.064-6.796.169-8.474z" fill="#785945"/><path d="M730.602 258.804c.101-1.673.958-3.414.99-4.647.032-1.228.784-3.589 1.059-4.441.275-.853.238-2.425.275-3.314.032-.889.169-5.944.513-7.31.297-1.196.075-1.895.016-3.08.789.72 3.203 1.699 4.812 2.191 1.021 1.551 2.578 2.334 3.065 2.97.46.603.524 1.275.55 2.037-.074.307-.153.62-.238.943-.926 1.677-2.038 3.355-2.461 4.959-.593 2.234-3.282 7.427-4.097 9.02-.821 1.593-1.324 6.103-.228 10.295.736 2.811 1.487 3.88 2.138 4.51a5.108 5.108 0 0 0-.714.915c-.699 1.16-2.239 1.504-2.885 1.625-.651.122-1.503-.169-1.863-.852.032-.392-.228-2.62-.365-3.372-.138-.751-.524-2.302-.731-3.975-.211-1.672.058-6.796.164-8.474z" fill="#8F6A51"/><path d="M743.305 279.029c1.482-.158 3.027-1.598 3.763-3.059a.312.312 0 0 0 .032-.18 17 17 0 0 0 3.477.54c1.049.048 1.731.365 1.98.773.021.931-.206 1.196-1.276 1.641-2.276.947-8.4.836-10.66.455.847.047 1.752-.074 2.684-.17z" fill="#292929"/><path d="M743.304 279.03c.969-.106 1.964-.757 2.742-1.604 1.207 1.101 3.695 1.201 5.791 1.064a5.836 5.836 0 0 1-.551.254c-2.276.947-8.4.836-10.66.455.842.048 1.747-.074 2.678-.169z" fill="#424242"/><path d="M739.6 279.019c.974.45 8.962.857 11.688-.276 1.069-.444 1.296-.704 1.275-1.64.297.285.328 1.095.318 1.365-.095 2.276-5.521 2.26-7.4 2.234-3.303-.048-4.621.069-5.452-.445-.497-.307-.566-.751-.429-1.238z" fill="#DEDEDE"/><path d="M749.244 279.23c-.291.387-.418.868-.418 1.355-1.308.133-2.605.127-3.351.117-3.303-.048-4.621.069-5.452-.445-.497-.307-.566-.751-.429-1.238.794.365 6.183.698 9.65.211z" fill="#B0B0B0"/><path d="M737.674 271.364a5.343 5.343 0 0 0-.169-1.185c1.037-.143 1.969-.18 2.53.222a42.89 42.89 0 0 1-.138 1.334c-.572.476-1.281.995-3.245 1.588.561-.699 1.059-.937 1.022-1.959z" fill="#292929"/><path d="M739.891 271.73c-.571.476-1.281.995-3.245 1.588.435-.535.826-.8.969-1.35.72-.037 1.63-.466 2.35-.895-.021.191-.042.413-.074.657z" fill="#424242"/><path d="M731.545 274.656c.37.657 1.201.937 1.836.821.651-.122 2.186-.461 2.885-1.625.127-.207.254-.381.376-.53 1.964-.598 2.673-1.117 3.244-1.588-.052.434-.111.937-.179 1.477a3.986 3.986 0 0 1-1.117.577c-.561.169-1.604.408-2.155 1.006-.545.598-1.503 1.334-2.614 1.297-1.112-.032-1.932-.101-2.356-.72-.058-.244.005-.503.08-.715z" fill="#DEDEDE"/><path d="M734.079 276.081c-.084.005-.169.01-.254.005-1.111-.032-1.932-.101-2.355-.72-.069-.244 0-.503.074-.715.37.657 1.201.937 1.837.821.201-.037.487-.095.804-.191-.1.254-.137.53-.106.8z" fill="#B0B0B0"/></g><defs><clipPath id="clip0"><path fill="#fff" transform="translate(733.113 130.946)" d="M0 0h146.601v162.91H0z"/></clipPath><clipPath id="clip1"><path fill="#fff" transform="translate(727.616 189.384)" d="M0 0h35.734v94.191H0z"/></clipPath></defs></svg>