<svg width="375" height="157" fill="none" xmlns="http://www.w3.org/2000/svg" viewBox="0 0 375 157"><path fill="#F5FCFF" d="M0 0h375v156H0z"/><g clip-path="url(#clip0)"><path fill-rule="evenodd" clip-rule="evenodd" d="M69.781 111.746h45.31v13.215h-45.31v-13.215z" fill="#7C7470"/><path fill-rule="evenodd" clip-rule="evenodd" d="M71.101 73.846l37.21-28.041 19.326 14.555-21.741 16.382 2.415 3.207 8.1-6.103v37.9h-45.31v-37.9zm50.121 37.9h19.502V79.95c-7.41-4.385-13.825-4.067-19.502 0v31.796z" fill="#F9E6AE"/><path fill-rule="evenodd" clip-rule="evenodd" d="M108.318 53.959a6.997 6.997 0 1 1-6.997 6.997c-.006-3.864 3.127-6.997 6.997-6.997z" fill="#D2B174"/><path fill-rule="evenodd" clip-rule="evenodd" d="M197.05 87.299v24.448h-8.1v-17.18h-35.322v17.18h-8.1V87.299h51.522z" fill="#F9E6AE"/><path fill-rule="evenodd" clip-rule="evenodd" d="M146.848 111.746h6.78v13.215h-6.78v-13.215z" fill="#42403D"/><path fill-rule="evenodd" clip-rule="evenodd" d="M145.528 84.09h57.963v3.208h-57.963v-3.207z" fill="#BCBCBC"/><path fill-rule="evenodd" clip-rule="evenodd" d="M124.463 52.943h13.622v4.906h8.445v-4.906h56.962v31.148h-57.964V73.846l8.1 6.103 2.416-3.207-31.581-23.799z" fill="#6F3E33"/><path fill-rule="evenodd" clip-rule="evenodd" d="M142.043 111.746h4.804v13.215h-4.804v-13.215zM115.091 111.746h4.811v13.215h-4.811v-13.215z" fill="#645F5C"/><path fill-rule="evenodd" clip-rule="evenodd" d="M188.95 111.746h9.426v13.215h-9.426v-13.215z" fill="#7C7470"/><path fill-rule="evenodd" clip-rule="evenodd" d="M119.902 124.962h22.141v-2.646h-22.141v2.646z" fill="#959595"/><path fill-rule="evenodd" clip-rule="evenodd" d="M119.902 122.316h22.141v-2.639h-22.141v2.639z" fill="#818181"/><path fill-rule="evenodd" clip-rule="evenodd" d="M119.902 119.677h22.141v-2.646h-22.141v2.646z" fill="#A9A9A9"/><path fill-rule="evenodd" clip-rule="evenodd" d="M119.902 117.032h22.141v-2.646h-22.141v2.646z" fill="#959595"/><path fill-rule="evenodd" clip-rule="evenodd" d="M130.973 57.85l-22.655-17.073-47.733 35.965 2.416 3.208 45.317-34.145 19.319 14.555 3.336-2.51z" fill="#692501"/><path fill-rule="evenodd" clip-rule="evenodd" d="M139.086 40.777h6.442v8.046h-6.442v-8.046z" fill="#F9E6AE"/><path fill-rule="evenodd" clip-rule="evenodd" d="M119.902 114.385h22.141v-2.639h-22.141v2.639z" fill="#BDBDBD"/><path fill-rule="evenodd" clip-rule="evenodd" d="M108.318 55.237a5.726 5.726 0 0 1 5.725 5.718 5.721 5.721 0 1 1-11.443 0c-.007-3.16 2.558-5.718 5.718-5.718z" fill="#405662"/><path fill-rule="evenodd" clip-rule="evenodd" d="M138.084 38.389h8.445v2.388h-8.445V38.39z" fill="#E7BF74"/><path fill-rule="evenodd" clip-rule="evenodd" d="M139.086 36h6.442v2.389h-6.442V36z" fill="#F9E6AE"/><path fill-rule="evenodd" clip-rule="evenodd" d="M138.084 48.823h8.445v9.027h-8.445v-9.027z" fill="#E7BF74"/><path fill-rule="evenodd" clip-rule="evenodd" d="M95.096 106.861h9.426v-26.91h-9.426v26.91zM82.997 106.861h9.426v-26.91h-9.426v26.91z" fill="#D2B174"/><path fill-rule="evenodd" clip-rule="evenodd" d="M153.628 94.565h35.322v7.288h-35.322v-7.288z" fill="#F5F5F5"/><path fill-rule="evenodd" clip-rule="evenodd" d="M116.417 73.846l14.556-10.969 14.555 10.969v37.9h-29.111v-37.9zm4.805 37.9h19.502V79.949c-7.41-4.385-13.825-4.066-19.502 0v31.797z" fill="#E7BF74"/><path fill-rule="evenodd" clip-rule="evenodd" d="M156.044 76.742L130.973 57.85l-25.077 18.892 2.422 3.208 22.655-17.073 22.655 17.073 2.416-3.208z" fill="#8B5347"/><path fill-rule="evenodd" clip-rule="evenodd" d="M71.101 73.846l37.21-28.041 19.326 14.555-2.395 1.807-14.705-11.078-4.168 3.14a6.992 6.992 0 0 0-3.985 3.005L71.101 80.809v-6.963z" fill="#B89966"/><path fill-rule="evenodd" clip-rule="evenodd" d="M116.417 73.846l14.556-10.969 14.555 10.921v3.593l-12.288-9.256-16.823 12.674v-6.963z" fill="#9F7E49"/><path fill-rule="evenodd" clip-rule="evenodd" d="M121.222 111.747h4.75V94.579c4.426-3.173 9.305-4.06 14.752-2.22V79.95c-7.41-4.384-13.825-4.066-19.502 0v31.798z" fill="#A58859"/><path fill-rule="evenodd" clip-rule="evenodd" d="M197.05 87.299v4.391h-34.558l1.238 2.876h-10.102v17.181h-8.1V87.299h51.522z" fill="#B89966"/><path fill-rule="evenodd" clip-rule="evenodd" d="M153.628 94.565h35.322v2.714h-24.049l1.969 4.574h-13.242v-7.288z" fill="#BCBCBC"/><path fill-rule="evenodd" clip-rule="evenodd" d="M159.21 84.091h-13.682V73.847l8.1 6.103 2.415-3.207 3.167 7.349z" fill="#4A2C26"/><path d="M157.918 84.09v-2.997l.974 2.267v.73h-.974zm-6.436 0v-5.744l.975.724v5.02h-.975z" fill="#6F3E33"/><path fill-rule="evenodd" clip-rule="evenodd" d="M108.318 53.959c.88 0 1.719.162 2.49.453l-9.466 7.133c-.014-.197-.028-.393-.028-.59a6.999 6.999 0 0 1 7.004-6.996z" fill="#77623A"/><path fill-rule="evenodd" clip-rule="evenodd" d="M108.318 55.237c.42 0 .832.048 1.225.136l-6.936 5.224a5.72 5.72 0 0 1 5.711-5.36z" fill="#27343A"/><path fill-rule="evenodd" clip-rule="evenodd" d="M84.276 87.298h6.868v18.284h-6.868V87.298zm0-6.07h6.868v4.791h-6.868v-4.79z" fill="#405662"/><path fill-rule="evenodd" clip-rule="evenodd" d="M146.529 57.85v-4.907h4.92l-4.92 4.906z" fill="#4A2C26"/><path fill-rule="evenodd" clip-rule="evenodd" d="M139.086 40.777h6.442v2.024h-6.442v-2.024z" fill="#B89966"/><path fill-rule="evenodd" clip-rule="evenodd" d="M142.043 111.746l4.804 11.145v2.07h-4.804v-13.215z" fill="#4C4847"/><path fill-rule="evenodd" clip-rule="evenodd" d="M105.652 66.024l6.259-9.514-.013-.014c-.028-.02-.061-.047-.088-.067l-.027-.02a5.833 5.833 0 0 1-.082-.061l-.027-.02c-.027-.021-.054-.035-.081-.055-.013-.007-.027-.02-.041-.027l-.067-.047a.21.21 0 0 1-.048-.034c-.02-.014-.047-.027-.067-.04l-.054-.035c-.021-.013-.041-.027-.061-.033-.021-.014-.041-.028-.061-.034-.02-.014-.034-.02-.054-.034-.021-.014-.048-.027-.068-.04-.02-.007-.034-.021-.054-.028-.027-.013-.047-.027-.075-.04-.013-.007-.033-.014-.047-.02l-6.246 9.5c.021.013.034.034.055.047.013.014.033.027.047.04.02.014.04.035.061.048.013.014.027.02.047.034.02.02.048.034.068.054.013.007.027.02.04.027l.075.054c.013.007.02.014.034.02a.57.57 0 0 0 .081.055l.027.02c.027.02.061.04.088.054l.013.007h.007c.034.02.075.047.108.068l.014.006a.74.74 0 0 0 .102.055l.013.006c.041.02.081.04.122.068z" fill="#89B2B0"/><path fill-rule="evenodd" clip-rule="evenodd" d="M110.043 66.41l3.966-6.022a5.708 5.708 0 0 0-1.259-3.045l-6.002 9.121a5.665 5.665 0 0 0 1.563.217c.609 0 1.184-.095 1.732-.27z" fill="#759B99"/><path fill-rule="evenodd" clip-rule="evenodd" d="M124.91 84.09h12.119v27.656H124.91V84.091z" fill="#7F4343"/><path fill-rule="evenodd" clip-rule="evenodd" d="M127.535 87.299h6.868v18.283h-6.868V87.299z" fill="#405662"/><path fill-rule="evenodd" clip-rule="evenodd" d="M124.91 84.09h12.119v7.424c-3.993-.46-7.66.63-11.064 3.065v17.161h-1.055V84.09z" fill="#5B3434"/><path fill-rule="evenodd" clip-rule="evenodd" d="M127.535 87.299h6.868v4.134c-2.409.136-4.689.866-6.868 2.132v-6.266z" fill="#27343A"/><path fill-rule="evenodd" clip-rule="evenodd" d="M96.374 87.298h6.869v18.284h-6.868V87.298zm0-6.07h6.869v4.791h-6.868v-4.79z" fill="#405662"/><path fill-rule="evenodd" clip-rule="evenodd" d="M95.096 106.861h1.664V83.814h7.762V79.95h-9.426v26.911z" fill="#77623A"/><path fill-rule="evenodd" clip-rule="evenodd" d="M96.374 87.298h.386v18.284h-.386V87.298zm0-6.07h6.869v2.585H96.76v2.206h-.386v-4.79z" fill="#27343A"/><path fill-rule="evenodd" clip-rule="evenodd" d="M82.997 106.861h1.664V83.814h7.762V79.95h-9.426v26.911z" fill="#77623A"/><path fill-rule="evenodd" clip-rule="evenodd" d="M84.276 87.298h.386v18.284h-.386V87.298zm0-6.07h6.868v2.585h-6.482v2.206h-.386v-4.79z" fill="#27343A"/><path fill-rule="evenodd" clip-rule="evenodd" d="M84.662 100.703l6.482-9.86v-2.192l-6.482 9.853v2.199z" fill="#89B2B0"/><path fill-rule="evenodd" clip-rule="evenodd" d="M85.386 105.583l5.758-8.75V92.36l-6.482 9.853v3.37h.724zM96.76 101.908l6.483-9.852v-2.193l-6.483 9.853v2.192z" fill="#759B99"/><path fill-rule="evenodd" clip-rule="evenodd" d="M98.648 105.582l4.595-6.983v-4.906l-6.483 9.859v2.03h1.888z" fill="#89B2B0"/><path fill-rule="evenodd" clip-rule="evenodd" d="M127.535 105.318l6.868-10.448v-2.192l-6.868 10.448v2.192zM131.907 105.582l2.497-3.803v-5.142l-5.887 8.945h3.39z" fill="#759B99"/><path fill-rule="evenodd" clip-rule="evenodd" d="M96.76 103.553l-.386.588v1.442h.386v-2.03zm-.386-1.056l.386-.589v-2.192l-.386.589v2.192zM84.662 102.212l-.386.589v2.781h.386v-3.37zm-.386-.92l.386-.589v-2.192l-.386.588v2.193z" fill="#4C6972"/><path fill-rule="evenodd" clip-rule="evenodd" d="M169.834 52.943h33.658v31.148h-20.226l-13.432-31.148z" fill="#8B5347"/><path d="M196.563 84.09V52.944h.974v31.148h-.974zm-25.761-28.9v-2.24h.974v4.507l-.974-2.267zm6.442 14.934v-17.18h.974v19.44l-.974-2.26zm6.442 13.967V52.943h.974v31.148h-.974zm6.435 0V52.943h.974v31.148h-.974z" fill="#9D6152"/><path d="M132.157 58.742v-5.799h.974v6.524l-.974-.725zm6.442 4.852V57.85h.974v6.483l-.974-.738zm6.442 4.859V57.849h.974v11.328l-.974-.724zm6.441 4.865V52.943h.975v21.085l-.975-.71zm6.436 7.775v-28.15h.974v30.41l-.974-2.26zm6.442 2.998V52.943h.974v31.148h-.974zm6.441 0V55.19l.975 2.267v26.64h-.975v-.006zm6.442 0V70.124l.975 2.267v11.7h-.975z" fill="#8B5347"/><path fill-rule="evenodd" clip-rule="evenodd" d="M153.628 101.854h35.322v23.108h-35.322v-23.108z" fill="#282E31"/><path fill-rule="evenodd" clip-rule="evenodd" d="M105.896 76.743l2.422 3.207 8.1-6.103v27.879l-10.522-24.983z" fill="#B89966"/><path d="M260 39.282h-73.831a3.877 3.877 0 0 0-3.877 3.878v109.038a3.877 3.877 0 0 0 3.877 3.878H260a3.878 3.878 0 0 0 3.878-3.878V43.153a3.876 3.876 0 0 0-3.878-3.87z" fill="#9AC0E2"/><path d="M257.889 47.917h-69.616v99.518h69.616V47.917z" fill="#fff"/><path d="M257.889 47.917h-69.616v21.586h69.616V47.917z" fill="#0046B4"/><path d="M218.189 134.408h-17.851v2.964h17.851v-2.964zM231.723 80.336h-35.329V83.3h35.329v-2.964z" fill="#667ABD"/><path d="M248.037 76.791h-9.426v9.426h9.426v-9.426z" fill="#DEE5FA"/><path d="M244.315 85.303l-3.843-5.068a1.186 1.186 0 0 1 .23-1.658 1.186 1.186 0 0 1 1.658.23l1.833 2.422 4.581-6.868a1.179 1.179 0 0 1 1.638-.325 1.18 1.18 0 0 1 .325 1.638l-6.422 9.63z" fill="#46B400"/><path d="M231.723 96.435h-35.329v2.963h35.329v-2.963z" fill="#667ABD"/><path d="M248.037 92.895h-9.426v9.427h9.426v-9.427z" fill="#DEE5FA"/><path d="M244.315 101.408l-3.843-5.069a1.186 1.186 0 0 1 .23-1.658 1.186 1.186 0 0 1 1.658.23l1.833 2.423 4.581-6.868a1.179 1.179 0 0 1 1.638-.325 1.18 1.18 0 0 1 .325 1.637l-6.422 9.63z" fill="#46B400"/><path d="M231.723 112.539h-35.329v2.964h35.329v-2.964z" fill="#667ABD"/><path d="M248.037 109.001h-9.426v9.426h9.426v-9.426z" fill="#DEE5FA"/><path d="M244.315 117.506l-3.843-5.068a1.186 1.186 0 0 1 .23-1.658 1.187 1.187 0 0 1 1.658.23l1.833 2.423 4.581-6.869a1.178 1.178 0 0 1 1.638-.324c.541.365.69 1.096.325 1.637l-6.422 9.629z" fill="#46B400"/><path d="M227.121 142.157c-.054 0-.109-.007-.156-.014-.453-.074-.961-.372-1.414-1.604-.826.298-1.462.386-1.922.203-.372-.149-.595-.494-.622-.94-.041-.826.656-2.247 1.712-3.796a57.68 57.68 0 0 1-.224-4.223c0-.297.237-.541.535-.541h.007c.297 0 .534.237.534.534 0 .021.014 1.293.122 2.903 1.732-2.219 3.965-4.425 5.657-5.298 1.11-.575 2.003-.616 2.639-.115.71.555 1.279 1.854-.054 4.879-.149.338-.325.697-.514 1.062 1.13-.521 1.915-.71 2.429-.467a.916.916 0 0 1 .514.724c.108.718.068 1.442.027 2.024-.02.365-.054.859 0 1.048.081-.006.278-.04.663-.223.785-.365 2.105-1.766 3.377-3.119 2.26-2.403 3.701-3.864 4.811-3.641.271.054.636.23.839.772.081.209.169.223.217.236.798.156 3.058-1.678 4.689-3.457a.536.536 0 1 1 .792.724c-.603.663-3.573 3.809-5.414 3.809-.094 0-.182-.006-.264-.027-.331-.061-.778-.27-1.021-.906-.027-.068-.048-.102-.055-.102-.554-.122-2.666 2.125-3.802 3.329-1.408 1.496-2.734 2.903-3.709 3.357-.541.25-1.224.493-1.732.148-.555-.379-.507-1.136-.453-2.016.034-.535.067-1.137-.007-1.719-.44-.027-1.638.548-2.876 1.218-1.692 2.659-3.972 5.238-5.325 5.238zm-.575-2.037c.318.9.588.961.595.961.46.054 1.813-1.184 3.18-2.991-1.495.859-2.747 1.556-3.775 2.03zm-2.47-.359c.23.061.649-.047 1.17-.243a19.75 19.75 0 0 1-.331-1.8c-.575.967-.893 1.725-.839 2.043zm1.759-3.444l.02.21a22.36 22.36 0 0 0 .4 2.551c1.157-.555 2.53-1.34 3.606-1.949.67-.379 1.279-.731 1.841-1.035a19.352 19.352 0 0 0 1.373-2.653c.704-1.692.792-2.903.258-3.322-.4-.312-1.32.006-2.477.852-1.854 1.34-3.722 3.492-5.021 5.346z" fill="#5166AD"/><path opacity=".3" d="M220.923 156.069c.703-4.209 16.416-15.286 12.505-20.869-2.93-4.182-39.058-23.101-39.058-23.101s-5.339 6.022-12.072 1.157v39.747a3.068 3.068 0 0 0 3.066 3.066h35.559z" fill="#000"/><path d="M203.539 141.02c0 7.68-6.226 13.899-13.899 13.899-7.68 0-13.899-6.226-13.899-13.899 0-7.68 6.226-13.899 13.899-13.899 7.673 0 13.899 6.219 13.899 13.899zM106.809 141.02c0 7.68-6.225 13.899-13.899 13.899-7.68 0-13.899-6.226-13.899-13.899 0-7.68 6.226-13.899 13.9-13.899 7.673 0 13.898 6.219 13.898 13.899z" fill="#192D4B"/><path d="M224.17 123.393l-152.257 1.285-15.32 22.127 3.22 2.91 7.485 1.834h137.838l12.146-3.011 12.099-4.656 3.065-4.919-8.276-15.57zM106.112 117.776c1.455-.69 19.528-9.879 24.928-12.41 3.6-1.685 8.425-2.679 8.425-2.679l-.271-.765c-17.235 2.301-39.632 15.624-39.632 15.624s5.095.92 6.55.23zM208.702 113.12c-1.902-.69-14.907-5.461-21.958-7.985-4.703-1.684-11.01-2.679-11.01-2.679l-1.955-.88c24.414 2.125 47.678 12.755 47.678 12.755s-10.854-.521-12.755-1.211z" fill="#192D4B"/><path d="M234.206 128.4l-2.497-1.455-.298-8.256.325-1.096a1.795 1.795 0 0 0-1.266-2.24l-13.377-3.512s-6.686.244-7.701.075c-24.665-9.649-35.457-11.375-50.933-11.375-16.849 0-24.509.156-52.888 16.47-.975.562-7.924-.386-7.924-.386-15.692.65-36.46 8.269-42.32 14.244-1.664 1.624-2.3 2.335-2.334 5.042-.034 2.706 1.76 10.15 1.76 10.15s1.15 1.529 4.608 1.651c3.457.122 7.687.277 7.687.277l2.578-.013 3.884.081v-5.779c0-8.939 7.315-16.429 16.253-16.254 8.662.17 15.632 7.241 15.632 15.943v6.658l74.034-.927v-5.42c0-8.939 7.315-16.429 16.254-16.254 8.661.17 15.631 7.241 15.631 15.943v5.014c11.449-1.753 19.833-4.195 21.579-6.922 2.206-3.431 1.313-11.659 1.313-11.659z" fill="#14AFEB"/><path d="M209.284 142.17c0 7.681-6.225 13.899-13.899 13.899-7.68 0-13.899-6.225-13.899-13.899 0-7.68 6.226-13.899 13.899-13.899 7.674-.006 13.899 6.219 13.899 13.899z" fill="#192D4B"/><path d="M205.704 142.171c0 5.704-4.621 10.326-10.326 10.326-5.704 0-10.326-4.622-10.326-10.326 0-5.705 4.622-10.326 10.326-10.326a10.323 10.323 0 0 1 10.326 10.326z" fill="#14AFEB"/><path d="M195.385 144.931a2.76 2.76 0 1 0 0-5.522 2.76 2.76 0 0 0 0 5.522zM103.358 142.17c0 7.681-6.226 13.899-13.9 13.899-7.68 0-13.898-6.225-13.898-13.899 0-7.68 6.225-13.899 13.899-13.899 7.68-.006 13.899 6.219 13.899 13.899z" fill="#192D4B"/><path d="M99.785 142.171c0 5.704-4.622 10.326-10.326 10.326-5.705 0-10.326-4.622-10.326-10.326 0-5.705 4.621-10.326 10.326-10.326a10.324 10.324 0 0 1 10.326 10.326z" fill="#14AFEB"/><path d="M92.22 142.17a2.764 2.764 0 0 1-2.76 2.761 2.764 2.764 0 0 1-2.762-2.761 2.76 2.76 0 1 1 5.522 0zM196.177 110.421c-18.899-6.733-27.683-7.43-38.827-7.471-16.66-.054-24.699 2.301-48.2 15.428-.358.352-.629 2.402-.629 2.402s58.248-3.471 81.566-5.081c1.57-.102 5.061-2.721 6.09-5.278z" fill="#192D4B"/><path d="M211.327 141.967v5.014c10.78-1.651 18.846-3.911 21.207-6.449l-21.22.677c.007.257.013.507.013.758zM73.516 148.057v-2.45l-18.628.596c.379.379 1.664 1.414 4.48 1.509 3.457.122 7.686.277 7.686.277l2.578-.013 3.884.081zM179.443 142.23l-74.042 2.362v4.033l74.042-.92v-5.475z" fill="#0082C8"/><path d="M232.352 140.715l.013-.014.007-.007-.02.021zM230.897 141.777c-.054.034-.108.061-.163.095.055-.034.109-.068.163-.095zM231.33 141.506l-.264.162c.095-.054.183-.108.264-.162zM230.524 141.987c.007-.007.014-.007.028-.013-.014 0-.021.006-.028.013zM232.215 140.843c-.027.02-.047.047-.073.067a.333.333 0 0 1 .073-.067zM231.613 141.311l-.121.08a.381.381 0 0 0 .121-.08zM231.863 141.127l-.087.067c.034-.02.061-.047.087-.067z" fill="#000"/><path d="M70.648 127.107s-2.842 4.697-4.405 5.475c-4.825 2.415-9.135 2.889-9.406 2.889-.69-2.51-.244-4.121-.244-4.121 3.424-2.395 8.736-3.904 14.055-4.243z" fill="#fff"/><path d="M58.434 140.451c-1.28 1.292-2.28 4.459-2.28 4.459s6.083-.399 7.402-1.028c1.82-.867 2.781-6.618 2.781-6.618s-6.733 2.009-7.903 3.187z" fill="#0082C8"/><path opacity=".4" d="M234.206 128.399l-2.497-1.455-15.638-1.042s2.165 1.015 7.281 1.523c6.638.656 10.854.974 10.854.974z" fill="#fff"/><path d="M231.411 118.696l.359-1.211c.23-.772-.426-1.523-1.225-1.408l-8.628 1.279 9.494 1.34z" fill="#0082C8"/><path d="M149.392 124.584h5.284l-.9-22.662h-3.579l-.805 22.662z" fill="#14AFEB"/><path d="M288.082 105.548c1.259-3.776.332-13.763 2.281-17.756 3.16-6.489 5.373-1.042 5.927 2.294.725 4.331-2.679 15.347-3.857 17.12-1.245 1.861-4.899-.027-4.351-1.658z" fill="#93C7DF"/><path d="M281.235 116.118c1.224-1.313 5.67-7.248 6.848-10.57.791-2.24 5.494-1.509 4.79.677-1.251 3.877-10.271 10.813-10.677 11.002-.738.345-1.509-.521-.961-1.109z" fill="#EDF3FA"/><path d="M280.883 156.067h7.808s.461-1.475-.595-2.185c-.453-.305-1.57-.643-3.566.135-1.739.684-3.945.893-3.647 2.05z" fill="#360F2C"/><path d="M286.946 152.089c-.372-.108-.697-.196-.954-.135-.048.588-.197 1.326-.217 1.793-.02.419 1.861.602 2.017.277.209-.433.406-.974.676-1.597-.284-.149-1.184-.237-1.522-.338z" fill="#FAA284"/><path d="M286.851 154.322c-.704-.129-.785-.738-1.089-.779-.339-.047-.278.021-1.53.643-.284.142.508.393 1.144.393.636 0 1.739-.21 1.475-.257z" fill="#360F2C"/><path d="M302.996 107.957c.42 2.104 1.225 4.175.203 7.281-1.171 3.552-6.043 15.259-6.719 17.519-.677 2.26-6.442 19.63-6.665 20.077-.474.96-5.001.067-5.001-.691 0-.548 2.95-16.443 3.952-22.526.927-5.671 4.648-21.437 4.865-23.169.372-2.923 8.844-1.151 9.365 1.509z" fill="#20307A"/><path d="M305.737 103.708a51.865 51.865 0 0 1-4.5.974c-2.903.501-4.425.589-6.516.569.629 4.195.954 8.147 5.596 8.201 6.496.075 6.638-5.44 5.596-9.033a18.03 18.03 0 0 1-.176-.711z" fill="#1A4EA0"/><path d="M303.842 156.068h7.491s.44-1.475-.569-2.186c-.433-.304-1.651-.785-3.566-.006-1.671.683-3.64 1.035-3.356 2.192z" fill="#360F2C"/><path d="M308.491 152.002c-.386.047-.717.101-.927.27.189.596.311 1.117.474 1.584.148.419 2.016.27 2.036-.115.021-.515.278-1.327.278-2.051-.325-.027-1.509.264-1.861.312z" fill="#FAA284"/><path d="M309.479 154.052c-.352.108-.718-.589-1.347-.589-.636 0-.291.169-1.543.785-.284.142.914.325 1.543.325.629.006 1.651-.616 1.347-.521z" fill="#360F2C"/><path d="M307.28 105.196c.852 2.003 2.077 3.877 1.739 7.193-.386 3.789-2.382 16.863-2.558 19.258-.183 2.395 4.967 18.263 4.967 19.732 0 1.515-4.568 1.915-4.703 1.407-.149-.555-6.835-14.305-8.1-21.004-1.854-9.832-1.137-20.097-.683-21.721.933-3.295 8.262-7.396 9.338-4.865z" fill="#1A4EA0"/><path d="M295.1 83.029c-1.225.71-3.648 2.097-4.71 4.703-1.062 2.605-.311 5.48 1.015 10.386 1.32 4.906 1.103 11.416 1.969 11.754 4.405 1.726 15.469-1.854 14.792-3.64-1.624-4.311-3.214-14.258-2.761-18.27.454-4.013-3.092-6.043-5.284-6.151a8.922 8.922 0 0 0-5.021 1.218z" fill="#BEE3F7"/><path d="M292.163 80.633s.859 1.976 1.089 2.727c.555 1.814.467 2.274 1.198 2.308 1.468.074 2.734-2.863 2.558-3.276-.772-1.806-2.416-4.411-2.416-4.411l-2.429 2.652z" fill="#EF8D72"/><path d="M289.936 80.044s-3.451 1.05-4.222-1.55c-.487-1.623.616-1.86.744-2.415.129-.548-.737-1.509.203-2.334 1.083-.948 2.463-.745 2.991-1.218.528-.474 1.191-1.733 2.754-.433.65.534 1.421.77 2.186.602 1.198-.264 2.138.812 2.084 1.908-.054 1.042-.386 1.083.196 1.773.589.704.339 1.888-.473 2.294-.63.311-.129 1.57-1.888 1.11-1.158-.298-4.575.263-4.575.263z" fill="#3B221D"/><path d="M250.426 130.029a.313.313 0 0 1 .108-.44l1.143-.703.339.548-1.144.704a.332.332 0 0 1-.446-.109z" fill="#4670BD"/><path d="M295.898 108.843c-19.4 11.869-42.887 23.271-44.518 20.605-1.631-2.666 19.204-18.392 38.604-30.26 19.4-11.87 30.024-15.402 31.655-12.736 1.631 2.666-6.341 10.516-25.741 22.391z" fill="#485991"/><path d="M276.058 108.187l5.481 8.952c.968-.527 1.935-1.062 2.91-1.603l-5.63-9.203c-.927.616-1.847 1.238-2.761 1.854z" fill="#FFB55C"/><path opacity=".3" d="M321.639 86.452c.825 1.347-7.802 8.127-27.203 20.003-19.4 11.875-42.231 24.339-43.056 22.993 1.631 2.666 25.118-8.729 44.518-20.605 19.4-11.875 27.371-19.725 25.741-22.39z" fill="#000"/><path d="M302.942 103.329c-9.419 6.008-18.378 10.075-18.798 9.412-.419-.663 7.85-5.799 17.269-11.808 9.419-6.009 16.429-10.617 16.849-9.96.419.663-5.901 6.347-15.32 12.356z" fill="#FFB55C"/><path d="M307.862 98.376c-.948-1.211-4.994-5.813-7.491-8.54-1.712-1.867-.447-8.709 1.99-7.389 5.88 3.194 9.804 13.033 9.818 14.799.007 2.246-3.228 2.53-4.317 1.13z" fill="#93C7DF"/><path d="M298.93 106.016c1.414-1.103 6.726-6.76 8.675-9.758 1.096-1.685 5.433-.203 4.391 1.84-1.854 3.634-11.868 9.041-12.295 9.163-.778.23-1.407-.751-.771-1.245z" fill="#93C7DF"/><path d="M299.471 106.313c-.108-.243-.311-.453-.914-.751-.602-.297-1.657-.616-1.813-.304-.156.304.771.413.609.724-.399.751-2.713-.413-2.619.325.203 1.549 1.773 1.888 2.558 1.908 1.144.034 1.983-.616 2.172-.887.237-.331.142-.717.007-1.015zM282.791 116.375c.311.223.122.71-.67 1.36-.792.65-2.801.785-2.944.074-.135-.71 1.712-1.522 2.45-1.448.738.088.92-.155 1.164.014z" fill="#FAA284"/><path d="M203.457 64.975a6.835 6.835 0 1 0 0-13.669 6.835 6.835 0 0 0 0 13.67z" fill="#fff"/><path d="M203.457 64.516a6.375 6.375 0 1 0 0-12.749 6.375 6.375 0 0 0 0 12.75z" fill="#fff"/><path d="M197.218 59.46a6.385 6.385 0 0 0 1.387 2.815c1.022-4.554 5.089-7.964 9.954-7.964a5.086 5.086 0 0 0-.304-.372 10.21 10.21 0 0 0-11.037 5.522z" fill="#0046B4"/><path d="M200.595 63.839a6.376 6.376 0 0 0 9.236-5.698 6.41 6.41 0 0 0-.913-3.295 10.195 10.195 0 0 0-8.323 8.993zM205.095 53.039c.893 0 1.766.115 2.592.331a6.371 6.371 0 0 0-10.448 3.363 10.163 10.163 0 0 1 7.856-3.694z" fill="#46B400"/><path d="M211.287 52.674h4.425v1.197h-3.038v2.166h2.531v1.198h-2.531v3.092h-1.387v-7.653zM219.136 54.758c-.839 0-1.496.622-1.746 1.414h-.02s.02-.183.02-.386v-.92h-1.313v5.468h1.367v-2.18c0-.324.034-.622.122-.893.257-.818.913-1.15 1.495-1.15.183 0 .325.02.325.02v-1.346a.885.885 0 0 0-.25-.027zM222.269 54.703c1.583 0 2.436 1.15 2.436 2.605 0 .163-.034.528-.034.528h-3.796c.088.961.832 1.455 1.651 1.455.886 0 1.583-.602 1.583-.602l.528.98s-.839.786-2.206.786c-1.82 0-2.95-1.313-2.95-2.876-.007-1.692 1.15-2.876 2.788-2.876zm1.056 2.192c-.021-.744-.488-1.143-1.09-1.143-.704 0-1.184.433-1.313 1.143h2.403zM227.858 54.703c1.584 0 2.436 1.15 2.436 2.605 0 .163-.034.528-.034.528h-3.796c.088.961.833 1.455 1.651 1.455.887 0 1.584-.602 1.584-.602l.528.98s-.84.786-2.206.786c-1.821 0-2.951-1.313-2.951-2.876 0-1.692 1.151-2.876 2.788-2.876zm1.056 2.192c-.02-.744-.487-1.143-1.09-1.143-.703 0-1.184.433-1.312 1.143h2.402zM242.258 56.875h.183v-.074c0-.724-.454-.968-1.056-.968-.785 0-1.509.528-1.509.528l-.514-.981s.852-.677 2.158-.677c1.442 0 2.287.799 2.287 2.186v3.437h-1.258v-.453c0-.217.02-.386.02-.386h-.02c.013 0-.42.968-1.672.968-.981 0-1.867-.616-1.867-1.712-.007-1.746 2.355-1.868 3.248-1.868zm-1.049 2.51c.724 0 1.238-.777 1.238-1.44v-.13h-.237c-.703 0-1.833.096-1.833.86.006.366.277.71.832.71zM248.05 54.86l-1.069 3.16a8.102 8.102 0 0 0-.183.723h-.02s-.095-.453-.203-.744l-1.143-3.14h-1.536l2.3 5.38-.176.406c-.203.487-.568.71-.947.71-.311 0-.616-.223-.616-.223l-.453 1.022s.487.358 1.143.358c.806 0 1.557-.412 1.949-1.36l2.443-6.293h-1.489zM237.494 54.86l-.954 3.579c-.074.29-.122.582-.122.582h-.02s-.041-.291-.122-.582l-1.008-3.58h-1.232l-1.008 3.58c-.074.29-.129.582-.129.582h-.02s-.034-.291-.108-.582l-.954-3.58h-1.442l1.672 5.468h1.529l.927-3.133c.088-.291.129-.596.129-.596h.02s.054.305.142.596l.927 3.133h1.523l1.658-5.468h-1.408zM211.287 61.417h.399v2.186h-.399v-2.186zM213.919 61.417h.399l.826 1.265c.081.129.182.339.182.339h.007s-.02-.21-.02-.339v-1.265h.392v2.186h-.392l-.826-1.259a4.297 4.297 0 0 1-.182-.338h-.007s.02.21.02.338v1.259h-.399v-2.186zM218.148 63.047s.237.23.548.23c.169 0 .318-.087.318-.263 0-.393-1.029-.325-1.029-.995 0-.365.312-.636.731-.636.433 0 .65.237.65.237l-.169.324s-.21-.189-.481-.189c-.182 0-.331.108-.331.264 0 .386 1.028.29 1.028.995 0 .345-.264.642-.717.642-.487 0-.751-.297-.751-.297l.203-.312zM221.64 61.417h.399v1.4c0 .292.189.46.48.46s.488-.168.488-.46v-1.4h.399v1.4c0 .488-.352.82-.88.82s-.886-.332-.886-.82v-1.4zM225.639 61.417h.703c.237 0 .345.02.44.06.217.102.359.312.359.596 0 .264-.136.508-.372.596v.007s.033.033.074.108l.447.819h-.447l-.433-.82h-.379v.82h-.399v-2.186h.007zm.751 1.029c.209 0 .345-.129.345-.346 0-.21-.088-.338-.399-.338h-.305v.684h.359zM230.883 63.048h-.765l-.182.561h-.413l.771-2.185h.413l.772 2.185h-.413l-.183-.561zm-.379-1.252s-.047.217-.095.338l-.196.582h.575l-.196-.582a4.177 4.177 0 0 1-.088-.338zM233.711 61.417h.4l.825 1.265c.081.129.183.339.183.339h.007s-.021-.21-.021-.339v-1.265h.393v2.186h-.393l-.825-1.259c-.081-.129-.183-.338-.183-.338h-.007s.021.21.021.338v1.259h-.4v-2.186zM238.854 61.383c.535 0 .806.297.806.297l-.19.298s-.25-.23-.595-.23c-.46 0-.731.345-.731.751 0 .413.277.785.737.785.379 0 .637-.277.637-.277l.209.284s-.304.352-.859.352c-.67 0-1.13-.494-1.13-1.137a1.09 1.09 0 0 1 1.116-1.123zM241.947 61.417h1.218v.345h-.819v.575h.738v.345h-.738v.59h.819v.344h-1.218v-2.199zM249.018 61.876c-.02-.034-.027-.04-.027-.04v-.007c.054-.014.128-.075.128-.19 0-.142-.094-.23-.236-.23h-.305v.731h.169v-.27h.095l.122.27h.189l-.135-.264zm-.176-.128h-.095v-.217h.095c.061 0 .102.04.102.108.006.068-.034.108-.102.108z" fill="#fff"/><path d="M248.815 61.05a.732.732 0 0 0-.731.732c0 .399.325.73.731.73a.732.732 0 0 0 .731-.73.728.728 0 0 0-.731-.731zm0 1.273a.545.545 0 0 1-.548-.548c0-.305.243-.548.548-.548.304 0 .548.243.548.548a.546.546 0 0 1-.548.548z" fill="#fff"/><path d="M292.934 73.008s-3.018 2.794-3.898 2.964c-.88.176-4.019-.285-4.019-.285.162 1.753 1.468 2.903 1.468 2.903l8.255-.622 1.408-.061c-.081-1.495-.23-3.018-.487-3.83-1.706.129-2.727-1.07-2.727-1.07z" fill="#3B221D"/><path d="M293.841 71.701c-1.564-2.571-6.381-1.278-6.381-1.278-2.978-.738-1.428.913-1.428.913-4.649-.19-1.482 2.957-1.482 2.957-1.563.426.467 1.4.467 1.4s3.14.454 4.019.285c.88-.176 3.898-2.964 3.898-2.964s.135.156.386.352c.913.704 2.03-.683 1.13-1.407-.352-.285-.609-.258-.609-.258z" fill="#502F26"/><path d="M295.499 77l-.427.67a7.64 7.64 0 0 1-.582-.798c-1.015-1.61-1.556-3.857-1.556-3.857-3.546 2.828-7.355 2.774-7.355 2.774.818 1.942 1.529 6.564 3.775 8.35.67.535 1.421.92 2.443.765 4.432-.657 4.229-5.13 4.229-5.13s1.435-.06 1.097-2.097c-.285-1.692-1.624-.677-1.624-.677z" fill="#FAA284"/><path d="M292.562 73.915s.92 1.759 1.786 2.727c-.913-1.557-1.414-3.627-1.414-3.627-3.546 2.828-7.355 2.774-7.355 2.774.088.21.176.46.264.73 1.637-.283 4.513-.967 6.719-2.604z" fill="#EF8D72"/><path d="M289.307 79.49c.108.365-.027.71-.298.772-.277.06-.588-.183-.697-.549-.108-.365.027-.71.298-.771.271-.061.589.183.697.548zM292.961 78.231c.108.366-.027.71-.298.772-.277.06-.589-.183-.697-.548-.108-.366.027-.71.298-.772.277-.06.589.183.697.548z" fill="#502F26"/><path d="M291.255 81.148c-.71.582-1.272.338-1.427-.04a.582.582 0 0 1 .182-.684c.44-.352.548-1.225.548-1.232.055.176.088.894-.433 1.455-.108.122-.169.23-.121.352.094.21.507.44 1.251.149z" fill="#DB7C65"/><path d="M287.06 78.136l-.115-.236c.054-.02.826-.515 1.841-.738l.128.386c-.845.128-1.84.582-1.854.588zM293.096 76.39c-.744-.046-1.983.285-1.996.285l-.027-.379c.054-.007 1.177-.311 2.037-.149l-.014.244z" fill="#502F26"/><path d="M284.09 71.573s2.3 1.184 6.414-.108c0 0-2.104 2.713-6.15 2.605-.007 0-1.631-1.928-.264-2.497z" fill="#674434"/><path d="M295.552 79.375c-.033 1.157-.568 4.154-3.498 4.899-1.59.399-2.7-.38-3.451-.94.23.297.48.568.758.784.67.535 1.421.92 2.443.765 4.432-.657 4.229-5.13 4.229-5.13s1.103-.033 1.15-1.461c-.392 1.563-1.631 1.083-1.631 1.083z" fill="#EF8D72"/><path d="M292.853 81.27s-1.442.791-2.964.927c0 0 .663 1.238 1.894.845 1.158-.365 1.137-1.515 1.07-1.773z" fill="#CE3E3E"/><path d="M291.533 82.373c-.948.298-1.347-.014-1.53-.19 1.178-.128 2.03-.534 2.782-.88-.014.265-.359.792-1.252 1.07z" fill="#fff"/></g><defs><clipPath id="clip0"><path fill="#fff" transform="translate(53 36)" d="M0 0h268.848v120.069H0z"/></clipPath></defs></svg>