<svg width="1608" height="328" fill="none" xmlns="http://www.w3.org/2000/svg" viewBox="0 0 1608 328"><g filter="url(#filter0_d)"><path fill="#F5FCFF" d="M1604 2H4v319.003h1600z"/></g><path d="M1034.91 303.15l-281.424-45.621v-58.501l281.424 20.206v83.916z" fill="#0046B4"/><path d="M1034.91 200.606l-281.424-15.329v9.237l281.424 18.96v-12.868z" fill="#46B400"/><path d="M749.499 265.084l-173.427 17.715L574 205.421l175.499-6.393v66.056z" fill="#0046B4"/><path d="M749.499 185.277L574 189.429v11.654l175.499-6.569v-9.237z" fill="#46B400"/><path d="M769.539 259.77l-179.934 21.638L706.5 322h151l33.58-12.063-23.6-26.848-97.941-23.319zM902.823 157.142c-.052 10.918-8.276 18.774-18.603 17.84-10.327-.923-18.937-10.015-18.937-19.49 0-9.475 8.807-17.767 19.176-17.777 10.369-.021 18.416 8.51 18.364 19.427z" fill="#D9ECFF"/><path d="M901.605 157.091c-.052 10.139-7.735 17.497-17.375 16.636-9.64-.862-17.656-9.278-17.646-18.172.01-8.894 8.203-16.564 17.875-16.584 9.671-.011 17.198 7.98 17.146 18.12z" fill="#D9ECFF"/><path d="M866.969 158.917c.624 2.719 1.988 5.303 3.883 7.555 3.31-12.132 14.97-20.237 27.39-20.382a20.44 20.44 0 0 0-.812-1.048 26.153 26.153 0 0 0-5.07-.519c-10.869-.042-20.675 6.112-25.391 14.394z" fill="#D9ECFF"/><path d="M876.359 171.152c2.374 1.391 5.049 2.314 7.86 2.574 9.64.861 17.323-6.486 17.375-16.636.021-3.477-.864-6.746-2.405-9.486-11.68 2.294-21.383 11.541-22.83 23.548zM888.915 142.499c2.436 0 4.788.322 7.006.934-3.009-2.802-7.006-4.462-11.473-4.462-8.349.01-15.605 5.874-17.427 13.045 5.32-5.563 13.284-9.527 21.894-9.517zM905.56 141.471c4.696-.01 7.028-.021 11.681-.041v3.466c-3.196 0-4.789-.01-8.006-.021-.01 2.501-.01 3.767-.02 6.32 2.685.052 4.028.083 6.693.135v3.612l-6.704-.208c-.01 3.653-.021 5.501-.031 9.133-1.478-.094-2.218-.135-3.706-.228.041-8.894.052-13.523.093-22.168zM926.226 147.573c-2.207-.01-3.925 1.868-4.571 4.255h-.052s.052-.56.052-1.183v-2.781c-1.384-.011-2.071-.021-3.456-.031v16.594c1.447.094 2.176.135 3.623.218 0-2.657-.01-4.016-.01-6.704 0-.996.083-1.93.312-2.75.677-2.501 2.405-3.508 3.925-3.477.479.01.853.083.853.083-.01-1.671-.01-2.511-.01-4.151-.01 0-.323-.073-.666-.073zM934.418 147.449c4.143.021 6.413 3.674 6.444 8.448 0 .529-.073 1.733-.073 1.733-3.987-.135-5.986-.197-9.973-.332.24 3.061 2.207 4.732 4.362 4.847 2.322.114 4.154-1.765 4.154-1.765.562 1.308.854 1.962 1.416 3.269 0 0-2.197 2.418-5.799 2.2-4.799-.29-7.797-4.576-7.818-9.495 0-5.314 2.998-8.925 7.287-8.905zm2.821 7.026c-.072-2.407-1.301-3.694-2.883-3.715-1.833-.021-3.103 1.308-3.425 3.56l6.308.155zM949.087 147.49c4.164 0 6.475 3.799 6.527 8.801.01.56-.063 1.816-.063 1.816l-10.025-.311c.26 3.206 2.238 4.96 4.404 5.054 2.332.103 4.164-1.868 4.164-1.868.573 1.37.864 2.054 1.437 3.414 0 0-2.197 2.543-5.82 2.335-4.82-.28-7.839-4.753-7.88-9.911-.042-5.583 2.946-9.34 7.256-9.33zm2.862 7.317c-.083-2.522-1.322-3.851-2.914-3.871-1.843-.021-3.103 1.38-3.426 3.736 2.53.052 3.8.083 6.34.135zM987.907 155.368c.208 0 .302 0 .51.011v-.281c-.031-2.719-1.291-3.611-2.957-3.622-2.165-.01-4.122 1.9-4.122 1.9a307.785 307.785 0 0 0-1.457-3.55s2.29-2.397 5.892-2.418c3.987-.02 6.381 2.771 6.423 8.064.042 5.23.073 7.97.115 13.097-1.406-.073-2.103-.104-3.488-.176-.01-.665-.01-1.007-.021-1.682-.01-.809.042-1.453.042-1.453h-.063c.032 0-1.134 3.55-4.559 3.373-2.686-.145-5.122-2.47-5.174-6.517-.084-6.445 6.381-6.787 8.859-6.746zm-2.79 9.372c1.988.083 3.383-2.792 3.363-5.335v-.488c-.261-.01-.396-.01-.656-.02-1.937-.052-5.039.238-5.008 3.092.011 1.381.76 2.688 2.301 2.751zM1004.17 147.853c-1.22 4.681-1.81 7.223-3 12.163-.27 1.142-.51 2.823-.51 2.823h-.06s-.28-1.785-.6-2.937c-1.318-4.95-1.974-7.451-3.296-11.997-1.739.011-2.603.021-4.331.031 2.655 7.722 3.977 12.329 6.621 20.632-.198.612-.291.913-.479 1.515-.562 1.785-1.582 2.543-2.634 2.48-.874-.052-1.717-.923-1.717-.923-.49 1.463-.739 2.179-1.229 3.57 0 0 1.354 1.318 3.186 1.442 2.248.156 4.329-1.058 5.439-4.514 0 0-.01 0 .01.01 2.71-9.184 4.09-14.913 6.93-24.326-1.74.011-2.61.021-4.33.031zM974.759 148.009c-.968 4.94-1.447 7.607-2.404 12.765-.188 1.048-.292 2.097-.292 2.097h-.062s-.136-1.059-.344-2.117c-1.155-5.21-1.728-7.867-2.884-12.734h-3.289c-1.01 4.826-1.52 7.42-2.53 12.422-.187 1.017-.323 2.034-.323 2.034h-.062s-.104-1.027-.313-2.055c-1.082-5.074-1.613-7.648-2.685-12.401h-3.821c1.863 7.192 2.79 11.301 4.674 18.877 1.635.094 2.447.135 4.081.229.937-4.286 1.406-6.549 2.332-10.991.219-1.027.323-2.096.323-2.096h.062s.156 1.069.406 2.107c1.052 4.483 1.583 6.818 2.634 11.281 1.635.083 2.457.134 4.102.218 1.697-7.68 2.54-12.039 4.258-19.646-1.552 0-2.322 0-3.863.01zM903.021 166.845c.427.031.635.041 1.062.072-.011 2.533-.011 3.788-.021 6.258-.427-.031-.635-.052-1.062-.093.01-2.46.01-3.715.021-6.237zM910.027 167.345c.427.031.635.041 1.052.072a440.296 440.296 0 0 0 2.196 3.871c.219.384.479 1.028.479 1.028h.021s-.052-.613-.052-.986v-3.715c.416.031.625.041 1.041.072v6.403c-.416-.031-.625-.051-1.051-.083a323.422 323.422 0 0 1-2.197-3.819c-.219-.384-.479-1.027-.479-1.027h-.021s.052.612.052.996c0 1.463 0 2.2-.01 3.632a34.573 34.573 0 0 1-1.062-.093c.031-2.501.031-3.778.031-6.351zM921.259 172.999s.625.726 1.447.788c.438.032.844-.186.833-.705 0-1.152-2.738-1.163-2.738-3.165 0-1.09.823-1.858 1.937-1.775 1.134.083 1.728.83 1.728.83-.177.384-.271.571-.448.945 0 0-.552-.623-1.28-.675-.49-.031-.875.259-.864.726 0 1.163 2.717 1.1 2.727 3.166 0 1.027-.697 1.816-1.905 1.712-1.291-.104-1.999-1.027-1.999-1.027.219-.332.333-.499.562-.82zM930.463 168.785c.416.031.625.042 1.051.073.011 1.743.021 2.605.032 4.286.01.882.51 1.411 1.29 1.474.771.062 1.281-.384 1.281-1.277-.01-1.692-.021-2.553-.031-4.307.416.031.624.042 1.051.073.011 1.764.021 2.626.031 4.327.011 1.485-.916 2.377-2.311 2.263-1.405-.114-2.342-1.152-2.352-2.626-.021-1.691-.032-2.553-.042-4.286zM941.02 169.502c.749.052 1.113.073 1.863.124.625.042.916.125 1.166.281.583.353.958 1.058.968 1.972.011.83-.354 1.556-.958 1.795v.021s.084.103.198.342c.489 1.038.729 1.557 1.218 2.563-.468-.041-.708-.051-1.176-.093-.469-1.007-.708-1.515-1.177-2.553-.406-.031-.603-.041-1.009-.073.01.997.01 1.495.02 2.46-.416-.031-.635-.052-1.051-.083-.031-2.605-.042-3.964-.062-6.756zm2.019 3.373c.562.041.906-.322.906-1.017-.011-.664-.25-1.09-1.072-1.142l-.802-.052c.01.862.01 1.298.021 2.149.385.02.572.031.947.062zM954.989 175.635l-2.041-.156c-.187.675-.281 1.007-.468 1.671-.437-.031-.656-.052-1.093-.083.78-2.553 1.176-3.923 1.957-6.746.437.031.666.042 1.103.073.854 2.937 1.281 4.379 2.145 7.078-.437-.031-.656-.052-1.093-.083-.198-.685-.302-1.038-.51-1.754zm-1.073-4.037s-.124.695-.229 1.079c-.197.737-.291 1.1-.489 1.816.614.042.916.073 1.52.114-.219-.747-.323-1.131-.541-1.899-.115-.405-.24-1.11-.24-1.11h-.021zM962.465 170.913c.427.031.635.042 1.062.073.916 1.764 1.363 2.625 2.28 4.317.229.425.499 1.121.499 1.121h.021s-.062-.664-.073-1.09c-.021-1.629-.031-2.47-.062-4.182.427.031.635.041 1.062.062.041 2.979.062 4.421.104 7.099-.427-.032-.635-.052-1.062-.083a127.132 127.132 0 0 1-2.28-4.152c-.229-.425-.5-1.141-.5-1.141h-.021s.073.695.073 1.11c.021 1.64.032 2.439.063 3.975-.427-.031-.635-.052-1.062-.083a3196.67 3196.67 0 0 1-.104-7.026zM976.331 171.661c1.447.093 2.207 1.173 2.207 1.173-.208.394-.302.591-.51.986 0 0-.687-.841-1.634-.893-1.26-.083-1.978 1.059-1.958 2.397.021 1.37.792 2.584 2.03 2.678 1.031.073 1.718-.758 1.718-.758.229.384.354.581.583.955 0 0-.812 1.048-2.321.934-1.812-.135-3.092-1.743-3.123-3.861-.021-2.106 1.259-3.725 3.008-3.611zM984.795 172.304l3.362.207c0 .488.011.737.011 1.214-.906-.062-1.364-.083-2.27-.145.011.799.011 1.204.021 1.982.812.052 1.218.083 2.03.135 0 .467.011.696.011 1.163-.812-.052-1.218-.083-2.03-.146.01.789.01 1.173.02 1.931.906.062 1.354.103 2.26.166 0 .446.01.654.01 1.089-1.343-.103-2.009-.145-3.352-.249-.021-2.739-.031-4.244-.073-7.347zM1003.97 175.148a1.146 1.146 0 0 0-.07-.156v-.01c.14-.042.36-.249.36-.665 0-.508-.27-.871-.68-.892l-.86-.052c0 1.079 0 1.609.01 2.646.19.011.29.021.48.032v-.966c.1.011.17.011.27.021.15.395.21.592.35.986.21.01.33.021.54.031-.17-.394-.24-.591-.4-.975zm-.5-.488c-.1-.01-.16-.01-.26-.021v-.799c.1.01.17.01.27.021.18.01.29.155.29.415 0 .249-.11.394-.3.384z" fill="#D9ECFF"/><path d="M1003.39 172.055c-1.15-.062-2.06 1.121-2.06 2.574 0 1.463.92 2.657 2.07 2.729 1.14.073 2.07-1.006 2.07-2.48s-.94-2.761-2.08-2.823zm.01 4.66c-.86-.052-1.55-.965-1.55-2.055 0-1.1.68-1.972 1.55-1.92.85.052 1.56 1.007 1.56 2.117-.01 1.1-.71 1.92-1.56 1.858z" fill="#D9ECFF"/><path d="M899.284 157.214c.26 9.257-8.922 19.075-18.604 17.84-9.848-1.256-18.707-9.538-18.936-19.49-.208-9.268 8.859-17.819 19.176-17.778 10.639.031 18.072 9.382 18.364 19.428z" fill="#fff"/><path d="M898.066 157.162c-.053 10.139-7.735 17.497-17.375 16.636-9.64-.862-17.656-9.278-17.646-18.172.01-8.894 8.203-16.563 17.875-16.584 9.671-.01 17.198 7.981 17.146 18.12z" fill="#fff"/><path d="M863.43 158.99c.624 2.719 1.988 5.303 3.883 7.555 3.31-12.132 14.97-20.237 27.39-20.383-.25-.363-.531-.705-.812-1.048-1.635-.332-3.353-.487-5.07-.519-9.266-.176-20.873 6.113-25.391 14.395z" fill="#0046B4"/><path d="M872.82 171.224c2.374 1.391 5.049 2.315 7.86 2.574 9.64.861 17.323-6.486 17.375-16.636.021-3.476-.864-6.745-2.405-9.485-11.68 2.283-21.383 11.54-22.83 23.547zM885.375 142.571c2.437 0 4.789.321 7.007.934-3.009-2.803-7.007-4.463-11.473-4.463-8.349.01-15.605 5.874-17.427 13.045 5.32-5.562 13.284-9.527 21.893-9.516z" fill="#46B400"/><path d="M902.021 141.544c4.696-.01 7.027-.02 11.681-.041v3.466c-3.196 0-4.789-.01-8.006-.021-.01 2.502-.01 3.768-.021 6.321 2.686.051 4.029.083 6.694.135v3.611l-6.704-.208c-.01 3.654-.021 5.501-.031 9.133-1.478-.093-2.218-.135-3.706-.228.041-8.905.062-13.523.093-22.168zM922.687 147.646c-2.207-.011-3.925 1.868-4.571 4.255h-.052s.052-.561.052-1.184v-2.781c-1.384-.01-2.071-.021-3.456-.031v16.594c1.447.094 2.176.135 3.623.218 0-2.656-.01-4.016-.01-6.704 0-.996.083-1.93.312-2.75.677-2.501 2.405-3.508 3.925-3.477.478.011.853.083.853.083-.01-1.67-.01-2.511-.01-4.151a2.845 2.845 0 0 0-.666-.072zM930.879 147.521c4.143.02 6.413 3.673 6.444 8.447 0 .53-.073 1.733-.073 1.733-3.987-.135-5.986-.197-9.973-.332.24 3.062 2.207 4.733 4.362 4.847 2.322.114 4.154-1.764 4.154-1.764.562 1.307.853 1.961 1.416 3.269 0 0-2.197 2.418-5.799 2.2-4.799-.291-7.797-4.577-7.818-9.496 0-5.314 3.008-8.925 7.287-8.904zm2.821 7.025c-.073-2.407-1.301-3.694-2.883-3.715-1.833-.021-3.103 1.308-3.425 3.56l6.308.155zM945.547 147.552c4.165 0 6.476 3.798 6.528 8.8.01.561-.063 1.816-.063 1.816l-10.025-.311c.26 3.207 2.238 4.961 4.404 5.054 2.332.104 4.164-1.868 4.164-1.868.572 1.37.864 2.055 1.437 3.414 0 0-2.197 2.543-5.82 2.336-4.82-.281-7.839-4.754-7.881-9.911-.041-5.573 2.947-9.33 7.256-9.33zm2.863 7.316c-.083-2.522-1.322-3.85-2.915-3.871-1.842-.021-3.102 1.381-3.425 3.736 2.541.063 3.8.083 6.34.135zM984.368 155.429c.208 0 .302 0 .51.01v-.28c-.031-2.719-1.291-3.612-2.957-3.622-2.165-.01-4.122 1.899-4.122 1.899a314.942 314.942 0 0 0-1.458-3.549s2.291-2.397 5.893-2.418c3.987-.021 6.381 2.771 6.423 8.064.041 5.23.073 7.97.114 13.097-1.405-.073-2.103-.104-3.487-.177-.011-.664-.011-1.007-.021-1.681-.01-.81.042-1.453.042-1.453h-.063c.031 0-1.135 3.549-4.56 3.373-2.685-.145-5.122-2.47-5.174-6.518-.072-6.444 6.382-6.776 8.86-6.745zm-2.79 9.381c1.988.083 3.383-2.791 3.362-5.334v-.488c-.26-.01-.395-.01-.656-.02-1.936-.052-5.038.238-5.007 3.092.01 1.37.77 2.688 2.301 2.75zM1000.63 147.926c-1.219 4.68-1.812 7.223-2.999 12.163-.271 1.141-.51 2.822-.51 2.822h-.063s-.281-1.785-.593-2.937c-1.322-4.95-1.978-7.451-3.3-11.996-1.739.01-2.603.02-4.331.031 2.655 7.721 3.977 12.329 6.621 20.631a112.6 112.6 0 0 0-.479 1.515c-.562 1.785-1.582 2.543-2.634 2.481-.874-.052-1.717-.924-1.717-.924-.49 1.463-.74 2.179-1.229 3.57 0 0 1.353 1.318 3.186 1.443 2.248.155 4.33-1.059 5.434-4.515l.01.01c2.714-9.184 4.094-14.913 6.934-24.325-1.74.01-2.6.02-4.33.031zM971.22 148.072c-.968 4.94-1.447 7.607-2.404 12.765-.188 1.048-.292 2.096-.292 2.096h-.062s-.125-1.058-.344-2.117c-1.156-5.21-1.728-7.866-2.884-12.734h-3.289c-1.01 4.826-1.52 7.421-2.53 12.423-.187 1.017-.323 2.034-.323 2.034h-.062s-.104-1.028-.313-2.055c-1.082-5.075-1.613-7.649-2.685-12.402h-3.821c1.863 7.192 2.79 11.302 4.674 18.878 1.635.093 2.447.135 4.092.228.936-4.286 1.405-6.548 2.331-10.99.219-1.028.323-2.096.323-2.096h.063s.156 1.068.406 2.106c1.051 4.484 1.582 6.819 2.633 11.281 1.635.083 2.457.135 4.102.218 1.697-7.68 2.54-12.038 4.258-19.645-1.562.01-2.332.01-3.873.01zM901.917 166.865c.427.031.635.042 1.062.073-.01 2.532-.01 3.788-.021 6.258-.426-.031-.635-.052-1.062-.094.011-2.459.011-3.715.021-6.237zM908.924 167.374c.427.031.635.042 1.051.073a502.604 502.604 0 0 0 2.197 3.871c.218.384.479 1.027.479 1.027h.021s-.053-.612-.053-.986v-3.715c.417.031.625.041 1.042.072v6.404c-.417-.031-.625-.052-1.052-.083a347.113 347.113 0 0 1-2.197-3.819c-.218-.384-.478-1.028-.478-1.028h-.021s.052.612.052.996c0 1.464 0 2.201-.011 3.633-.426-.031-.635-.052-1.061-.094.02-2.501.031-3.777.031-6.351zM920.156 173.019s.625.727 1.447.789c.437.031.843-.187.833-.706 0-1.152-2.738-1.162-2.738-3.165 0-1.09.822-1.858 1.936-1.775 1.135.083 1.728.831 1.728.831-.177.384-.27.57-.447.944 0 0-.552-.623-1.281-.675-.489-.031-.874.26-.864.727 0 1.162 2.717 1.1 2.728 3.165 0 1.028-.698 1.816-1.905 1.713-1.291-.104-1.999-1.028-1.999-1.028.218-.322.333-.488.562-.82zM929.359 168.806c.417.031.625.041 1.052.072.01 1.744.021 2.605.031 4.286.01.883.51 1.412 1.291 1.474.77.062 1.28-.384 1.28-1.276-.01-1.692-.02-2.553-.031-4.307.417.031.625.041 1.052.072.01 1.765.02 2.626.031 4.328.01 1.484-.916 2.377-2.311 2.262-1.406-.114-2.343-1.152-2.353-2.625-.031-1.681-.031-2.543-.042-4.286zM939.904 169.533c.75.052 1.114.073 1.864.125.624.041.916.124 1.166.28.583.353.957 1.058.968 1.972.01.83-.354 1.556-.958 1.795v.021s.083.104.198.342c.489 1.038.729 1.557 1.218 2.564-.469-.042-.708-.052-1.176-.094-.469-1.006-.708-1.515-1.177-2.553-.406-.031-.604-.041-1.01-.072.011.996.011 1.494.021 2.459-.416-.031-.635-.052-1.051-.083-.021-2.605-.031-3.975-.063-6.756zm2.03 3.373c.562.042.906-.322.906-1.017-.01-.664-.25-1.09-1.072-1.142l-.802-.051c.011.861.011 1.297.021 2.148.375.01.573.031.947.062zM953.885 175.666l-2.04-.156c-.188.675-.281 1.007-.469 1.671-.437-.031-.656-.052-1.093-.083a216.423 216.423 0 0 0 1.957-6.745c.438.031.667.041 1.104.072.854 2.937 1.28 4.38 2.144 7.078-.437-.031-.655-.052-1.093-.083-.197-.695-.302-1.048-.51-1.754zm-1.072-4.037s-.125.695-.229 1.079c-.198.737-.292 1.1-.489 1.816.614.042.916.073 1.52.115-.219-.748-.323-1.132-.542-1.9-.114-.404-.239-1.11-.239-1.11h-.021zM961.361 170.943c.427.031.635.042 1.062.073a233.029 233.029 0 0 0 2.28 4.317c.229.426.5 1.121.5 1.121h.021s-.063-.664-.073-1.09a666.36 666.36 0 0 0-.063-4.182c.427.031.635.042 1.062.062.042 2.979.063 4.421.104 7.099-.427-.031-.635-.052-1.062-.083a128.114 128.114 0 0 1-2.28-4.151c-.229-.426-.499-1.142-.499-1.142h-.021s.073.695.073 1.111c.021 1.639.031 2.438.062 3.974-.427-.031-.635-.052-1.062-.083-.041-2.657-.062-4.089-.104-7.026zM975.228 171.681c1.447.094 2.207 1.173 2.207 1.173-.209.395-.302.592-.51.986 0 0-.688-.841-1.635-.892-1.26-.083-1.978 1.058-1.957 2.397.021 1.37.791 2.584 2.03 2.677 1.031.073 1.718-.757 1.718-.757.229.384.354.581.583.955 0 0-.812 1.048-2.322.934-1.811-.135-3.092-1.744-3.123-3.861-.021-2.096 1.249-3.715 3.009-3.612zM983.691 172.335l3.363.208c0 .487.01.736.01 1.214-.905-.063-1.363-.083-2.269-.146.01.8.01 1.204.021 1.983.812.052 1.218.083 2.03.135 0 .467.01.695.01 1.162-.812-.052-1.218-.083-2.03-.145.011.788.011 1.172.021 1.93.906.062 1.353.104 2.259.166 0 .446.01.654.01 1.09-1.343-.104-2.009-.146-3.352-.249-.021-2.751-.031-4.245-.073-7.348zM1003.46 175.18a1.146 1.146 0 0 0-.07-.156v-.01c.14-.042.36-.249.36-.664 0-.509-.27-.872-.67-.893l-.86-.052c0 1.08 0 1.609.01 2.647.19.01.29.02.48.031v-.965c.11.01.17.01.27.02.15.395.21.592.36.986.2.011.32.021.53.031-.18-.384-.25-.581-.41-.975zm-.5-.488c-.1-.01-.15-.01-.26-.021v-.799c.11.011.17.011.27.021.18.01.29.156.29.415 0 .249-.11.395-.3.384z" fill="#0046B4"/><path d="M1002.88 172.097c-1.15-.062-2.06 1.121-2.06 2.574 0 1.463.92 2.657 2.07 2.729 1.14.073 2.07-1.006 2.07-2.48s-.94-2.761-2.08-2.823zm.01 4.66c-.86-.052-1.55-.965-1.55-2.055 0-1.1.68-1.972 1.55-1.92.85.052 1.56 1.007 1.56 2.117-.01 1.1-.71 1.92-1.56 1.858z" fill="#0046B4"/><path d="M722.422 271.331l38.039-1.131V138.389l-38.039-5.656v138.598z" fill="#fff"/><path d="M756.514 199.723v66.657l-30.377.997v-68.235l30.377.581zM726.137 195.011v-57.826l30.377 4.628v53.665l-30.377-.467z" fill="#E0F1FF"/><path d="M726.137 148.507v-11.322l30.377 4.628-30.377 6.694z" fill="#ABCDEB"/><path d="M722.421 271.487l-16.698-2.626V143.309l16.698-10.576v138.754z" fill="#ABC0EB"/><path d="M677.646 276.416l41.382-3.654V130.999l-41.382-5.386v150.803z" fill="#fff"/><path d="M700.311 199.463l14.48.093v69.335l-14.48 1.308v-70.736zM696.093 199.442v71.141l-14.366 1.297v-72.531l14.366.093zM681.727 194.856v-64.468l33.063 4.379v60.213l-33.063-.124z" fill="#E0F1FF"/><path d="M681.727 142.686v-12.298l33.063 4.379-33.063 7.919zM677.646 276.405l-18.478-3.321V135.327l18.478-9.714v150.792z" fill="#ABCDEB"/><path d="M916.398 246.662l-3.706-.996-.676-39.26 3.716-.062.666 40.318z" fill="#697182"/><path d="M915.743 212.26c-1.041.747-1.686 2.034-1.665 3.331l.458 20.237c.02 1.287.749 2.335 1.759 2.969l.042 8.125-3.654-1.266-.677-39.26 3.716 5.304.021.56z" fill="url(#paint0_linear)"/><path d="M895.099 194.524s12.68.955 16.958 1.484c2.686.332 9.984 1.712 9.713 5.5-.271 3.788-1.26 14.83-1.26 14.83s-2.248-4.4-9.525-4.971c-6.319-.498-14.606-1.39-17.021-1.66-.375-.042-.656-.374-2.571.093l.728-13.439c.104-1.318 1.479-1.941 2.978-1.837z" fill="#D9DBDF"/><path d="M892.83 195.935l16.802 1.722s9.442.312 9.078 5.563c-.271 3.788-.396 13.99-.396 13.99s-2.363-4.39-9.838-4.92c-6.34-.446-14.428-1.255-16.75-1.494a.674.674 0 0 1-.604-.706l.958-13.533a.687.687 0 0 1 .75-.622z" fill="#414A5C"/><path d="M919.583 202.37l1.645.55a.583.583 0 0 1 .406.602l-1.041 14.674a.59.59 0 0 1-.801.509l-1.645-.613a.587.587 0 0 1-.385-.602l1.041-14.612c.02-.373.406-.622.78-.508z" fill="#C4C8CD"/><path d="M839.612 185.641c1.739-.228 10.234 1.536 10.942 3.829.707 2.294 7.995 20.839 7.995 20.839 1.988 7.4 9.796 3.041 9.015-.975-.781-4.016-9.9-18.265-11.524-20.787-1.635-2.522-1.645-6.497-3.488-6.725-1.842-.229-4.153-1.598-6.183-2.74-2.03-1.152-4.446-.623-2.936 0 1.509.623 2.894 2.065 2.894 2.065s-3.071-.955-4.862-1.172c-1.79-.218-1.416 1.089-1.416 1.089-3.393-.571-3.393 1.142-3.112 1.059.281-.083 1.249.104 1.249.104-2.238-.125-3.415 1.702-2.145 1.515 1.27-.187 4.321.539 4.321.539-1.125-.228-2.488 1.578-.75 1.36z" fill="#FAA284"/><path d="M859.256 193.652c3.446 4.484 9.109 10.16 8.297 16.159-.5 3.663-5.361 9.682-8.922 3.746-1.978-3.29-7.297-6.538-4.487-14.633.396-.166 3.727-2.521 5.112-5.272z" fill="#49A3FE"/><path d="M862.557 202.743c-3.654 5.376-2.061 12.651-.572 13.222 2.498.955 15.116-5.49 20.217-14.82 5.101-9.33 2.144-11.582-.344-13.595-2.831-2.304-12.94 5.832-19.301 15.193z" fill="#49A3FE"/><path d="M860.349 209.572c.51.042 1.041.031 1.603-.041.313-.042.615-.104.885-.177.094-.021.167-.062.26-.083a6.33 6.33 0 0 0 .542-.197l.25-.125c.166-.083.322-.155.479-.249.072-.041.145-.083.208-.135a7.77 7.77 0 0 0 .489-.321l.125-.094c.718-.529 1.405-1.141 2.176-1.733.145-.114.281-.228.437-.332 1.78-1.287 3.519-2.439 5.153-3.943 1.676-1.547 3.665-2.647 5.361-4.204 1.729-1.587 3.072-3.497 4.383-5.438.771-1.141.843-2.532.458-3.829 1.957 1.899 3.207 4.784-.978 12.453-4.862 8.905-16.553 15.173-19.801 14.903-1.26.135-2.582-.508-3.758-2.48-1.624-2.698-5.497-5.376-5.278-10.731 1.26 3.394 3.404 6.445 7.006 6.756z" fill="#0074D4"/><path d="M906 234.832s-2.29-11.167-1.478-21.026c.76-9.268 4.684-24.378-.677-27.533-5.517-3.259-14.637-1.951-18.655-1.328-11.983 1.878-11.4 17.279-10.442 28.114.51 5.77.427 17.985-2.332 23.443 0 0 17.292 8.552 33.584-1.67z" fill="#49A3FE"/><path d="M892.893 234.209c2.655-3.331 4.841-8.022 2.54-12.142-1.624-2.916-4.82-5.469-7.641-7.171-1.874-1.132-3.872-1.765-6.069-1.796h-.312c-.011-.021-.011-.041-.011-.052a1.14 1.14 0 0 1-.062-.664c.343-.187.718-.29 1.093-.446 1.488-.602 3.05-.965 4.57-1.474 4.05-1.328 7.194-4.161 8.547-8.24.947-2.875 1.666-6.797.645-9.734-1.343-3.861-4.736-6.466-8.692-7.898 4.559-.592 11.711-1.069 16.334 1.66 5.351 3.155 1.436 18.266.676 27.533-.812 9.859 1.479 21.026 1.479 21.026-6.621 4.161-13.419 5.21-19.145 4.992 2.269-1.464 4.331-3.425 6.048-5.594z" fill="#0074D4"/><path d="M906.281 190.279c-.989-3.612-3.113-4.815-4.55-5.147-8.63-2.014-6.308 12.837-8.307 14.684-2.02 1.858-2.072 3.747-2.072 3.747-1.718.363-4.789 1.857-5.746 2.594-.958.737-.427 6.383 3.622 7.545 3.988 1.142 5.195-.623 9.318-2.387 4.049-1.733-.469-4.13 3.362-6.548 3.769-2.377 2.093-3.975 2.53-6.113.427-2.127 2.821-4.774 1.843-8.375z" fill="#49A3FE"/><path d="M883.855 184.966c.646 3.684 3.259 6.756 3.259 6.756.822-.363 8.963-7.171 6.829-7.337-2.144-.166-1.187-5.065-1.187-6.414 0-3.456-7.974-1.567-7.245 1.536.916 3.881-1.656 5.459-1.656 5.459z" fill="#FAA284"/><path d="M889.061 187.094c-.072-1.339 2.426-6.694 1.312-5.75-1.312 1.111-3.925 1.505-4.924 1.412 0 0 .656-1.453.073-3.249-.989-3.03 7.246-4.991 7.246-1.536 0 1.35-.958 6.248 1.186 6.414 1.531.125-2.259 3.684-4.809 5.812.031-1.028-.031-2.066-.084-3.103z" fill="#CE7C56"/><path d="M879.004 200.293s3.353-2.044 4.852-6.642c4.06-12.495-2.02-30.843-4.092-25.944-1.509 3.559-2.227 11.519-.27 17.777 1.686 5.376-1.853 4.795-1.853 12.505 0 0 1.384 0 2.883-2.127 0-.01-.239 3.062-1.52 4.431z" fill="#713D22"/><path d="M881.359 168.309c-1.083 2.034-1.437 5.51 1.041 9.931 2.446 4.38 3.404 5.501 6.756 3.373 3.3-2.096 4.924-4.909 3.998-8.178-.937-3.279-7.371-13.418-11.795-5.126z" fill="#FAA284"/><path d="M892.758 174.691c-1.406-5.749-6.986-14.674-11.4-6.382-.499.944-1.009 4.878-.666 5.386.385.571 1.083-.789 1.843-.633 1.488.311 6.007-2.594 6.007-2.594s1.884 4.047 2.113 4.846c.479 1.671.552 3.715-1.052 5.978 2.895-2.076 3.925-3.466 3.155-6.601z" fill="#CE7C56"/><path d="M900.138 191.846c.645.353.791 3.082.791 3.082 2.092-2.179 2.738-8.634.885-13.626-1.02-2.74-1.968-4.286-1.51-6.704.687-3.664-1.561-6.248-2.498-9.257-.948-3.02-4.321-3.114-4.321-3.114-10.4-6.59-16.667 6.238-16.667 10.441 0 .726 1.166-1.142 2.52-2.585-.927.986-.698 2.782-1.801 3.768 3.466-.114 4.31-2.937 6.277-5.625-.531 1.224-.135 3.02-.854 4.037 2.499-.592 4.602-2.366 6.143-4.556 0 0 3.029 5.199 3.091 6.362 0 3.175.917 3.383-.312 6.808-.614 1.712-1.53 7.347 2.634 10.907 1.999 1.702.281 5.811.281 5.811 4.966-1.525 5.341-5.749 5.341-5.749z" fill="#713D22"/><path d="M892.205 174.234c.104.135.219.26.354.395.677.685 1.749 2.439 1.739 3.435 0-.27-.698 1.11-.781 1.463a8.501 8.501 0 0 0-.25 2.408c.073 1.961.854 3.674 1.801 5.365.323.581 1.864 2.439 1.76 2.906-.5 2.231.322 3.975 1.696 5.075-.791.903-1.967 1.775-3.716 2.314 0 0 1.718-4.109-.281-5.811-4.164-3.56-3.248-9.195-2.634-10.908 1.197-3.362.344-3.642.312-6.642zM893.487 162.217s3.373.093 4.32 3.113c.031.093.062.187.094.291-.125-.052-.261-.083-.385-.125-.885-1.141-2.27-1.93-4.123-1.93-.239 0-.458.01-.677.041-1.332-.851-3.029-1.152-4.528-.664-1.166.384-2.145.467-3.29 1.079-1.01.55-1.843 1.37-2.634 2.201-.791.83-1.52 1.764-2.009 2.802-.687 1.463-.843 2.843-.687 4.327-.562.28-1.218.457-2.02.478 1.104-.986.875-2.782 1.801-3.768-1.353 1.453-2.519 3.321-2.519 2.585-.01-4.193 6.246-17.02 16.657-10.43z" fill="#452312"/><path d="M890.613 211.408c.75-.198 2.676-6.871-2.602-5.522 0 0-1.864 1.318-3.571.571-1.718-.757-2.582-1.307-3.862-.332-1.281.986-.771 1.723-1.198 2.159-.427.436-1.239 1.318-.479 2.854 0 0-4.903 1.276-4.976 1.421-.073.146-.239.934 1.052.966 0 0-2.374-.135-3.373.436-1 .581.229.778.895.944.666.156 1.01.353 1.01.353s-2.676 1.048-2.155 1.224c.52.177 1.332-.135 1.978.011.645.145 5.309-1.142 6.59-1.017 1.28.135 2.394-.135 2.363-1.225 0 0 1.926-.975.864-2.117-1.062-1.131 6.715-.529 7.464-.726z" fill="#FAA284"/><path d="M883.462 212.726c-.146-1.837 6.6-1.173 7.152-1.318.5-.135 1.52-3.135.593-4.722-.249.653-6.621 3.103-8.838 3.352-.448.052-.333-1.775-.541-1.837-.188-.052-.927 1.048-1.041 1.349-.094.249-.438 1.349-.667 1.515-.458.353-1.228.073-1.228.073s-3.592.934-4.674 1.297c.052.031 4.133.425 5.194.415.469 0 .615.208.146.208-1.145.01-4.799.456-5.32.456-.78 0-1.998.083-2.644.457-.156.093-.26.176-.323.249.583-.062 1.177.083 1.749.187 3.051.55 5.299-.332 5.476-.177.136.114-1.197.602-1.853.727-.322.062-1.551.332-1.863.342-.312.011-3.946.997-3.425 1.173.52.176 1.332-.135 1.978.01.312.073 1.54-.197 2.883-.467.209-.072 2.093-.363 2.79-.498.615-.124 2.541.519 3.051-.394.343-.612.416-1.038.551-1.079-.01-.052.989.373.854-1.318z" fill="#CE7C56"/><path d="M884.24 177.731s1.645.425 4.206-.208c0 0-.531 2.118-2.301 2.066-1.572-.042-1.905-1.858-1.905-1.858z" fill="#56362E"/><path d="M884.303 177.835s1.707.488 4.039-.197c0 0-.354.892-2.217.923-1.645.031-1.822-.726-1.822-.726z" fill="#fff"/><path d="M883.72 171.556s-1.447-.487-2.936.675c0 0-.031-.187.271-.519.302-.332 1.228-.851 2.238-.674 0 0 .635.311.427.518zM887.082 171.733s1.374-.653 2.998.322c0 0 0-.187-.333-.477-.333-.291-1.322-.696-2.3-.395 0-.01-.583.374-.365.55z" fill="#6A371A"/><path d="M886.145 176.86c-1.228.623-1.957.083-2.061-.508a.858.858 0 0 1 .489-.924c.75-.363 1.187-1.598 1.198-1.609.031.27-.157 1.318-1.093 1.972-.198.145-.323.28-.292.478.063.321.583.778 1.759.591z" fill="#D88D6C"/><path d="M882.772 172.709s-.781.01-.895-.28c0 0-.104.415.375.55-.146.187-.25.446-.25.737 0 .56.343 1.006.76 1.006.416 0 .76-.456.76-1.006.01-.561-.334-1.007-.75-1.007zM888.78 172.709s-.781.01-.895-.28c0 0-.105.415.374.55-.145.187-.25.446-.25.737 0 .56.344 1.006.76 1.006.417 0 .76-.456.76-1.006.011-.561-.333-1.007-.749-1.007z" fill="#56362E"/><path d="M952.252 289.451l-61.172 20.486V233.98l61.172-6.403v61.874z" fill="#ABCDEB"/><path d="M958.269 228.418l-53.29 6.434v-5.666l53.29-4.836v4.068z" fill="#9AC0E2"/><path d="M891.08 309.937l-152.002-25.831v-62.392l152.002 12.267v75.956z" fill="#F2F9FF"/><path d="M904.978 229.186v5.666l-173.249-11.893v-3.29l173.249 9.517z" fill="#D6ECFF"/><path d="M958.165 224.35l-53.187 4.961-173.249-9.641 53.186-5.127 173.25 9.807z" fill="#fff"/><path d="M885.146 221.953l-35.312 2.438-44.494-2.812 35.374-1.536 44.432 1.91z" fill="#ABCDEB"/><path d="M885.198 222.679c.01.166-.073.311-.198.322l-34.729 2.366c-.198.01-.375-.104-.385-.26l-.115-1.639 35.375-1.536.052.747z" fill="#86B3DB"/><path d="M846.795 191.607c1.187 7.254 4.737 28.986 4.945 30.459.25 1.754-1.624 2.18-1.624 2.18l-5.559-34.881c1.53-.052 2.019.893 2.238 2.242z" fill="#92C4EF"/><path d="M800.312 190.611l43.974-1.235c.677-.021 1.218.404 1.322 1.038l5.341 33.354-45.91-2.127-5.611-29.878c-.105-.571.333-1.142.884-1.152z" fill="#ABCDEB"/><path d="M801.457 192.23l41.621-1.007c.635-.011 1.156.384 1.249.975l5.07 31.477-43.463-2.014-5.309-28.363c-.115-.518.301-1.058.832-1.068z" fill="#86B3DB"/><path d="M850.845 224.91c-.031.27-.291.467-.583.457l-44.952-2.242a.21.21 0 0 1-.198-.228l.073-1.266 45.795 2.117-.135 1.162z" fill="#92C4EF"/><path d="M768.841 247.69l-29.191 8.334c-2.373.311-4.32 1.692-4.622 3.124l-6.1 51.07 1.645.757 6.964-50.094c.177-.841 1.406-3.674 2.634-3.56l28.17-8.416c1.229.114 2.405.954 2.582 1.826l10.296 47.376 1.884.809-9.171-48.091c-.312-1.495-3.009-2.937-5.091-3.135z" fill="#D9DBDF"/><path d="M770.849 247.878l-28.691 8.375c-2.8.519-4.351 1.671-4.747 3.072l-6.86 51.641 2.332-.934 6.256-50.313c.24-.84 1.739-1.982 3.009-2.221l28.681-8.375c1.228.114 2.404.955 2.571 1.827l9.588 47.946 2.301-1.214-10.14-46.753c-.281-1.474-2.207-2.854-4.3-3.051z" fill="#C4C8CD"/><path d="M800.323 254.861l-28.431 9.901c-2.321.446-4.174 1.93-4.403 3.362l-3.352 51.33 1.624.602 4.289-50.344c.135-.851 1.197-3.736 2.415-3.694l27.421-9.942c1.218.051 2.436.819 2.644 1.681l12.67 46.784 1.863.643-11.555-47.489c-.375-1.453-3.113-2.751-5.185-2.834z" fill="#D9DBDF"/><path d="M802.322 254.944l-27.931 9.922c-2.749.674-4.217 1.909-4.529 3.321l-4.112 51.879 2.259-1.058 3.581-50.52c.188-.851 1.614-2.076 2.863-2.387l27.921-9.922c1.218.052 2.425.82 2.644 1.682l11.962 47.323 2.207-1.328-12.441-46.11c-.364-1.453-2.353-2.719-4.424-2.802z" fill="#C4C8CD"/><path d="M805.664 249.558l-35.104-5.012c-.343-.125-.676-.135-.957-.021l-36.635 7.462c-1.551.612-1.28 5.957 1.531 6.766l38.758 8.666c.333.124.666.135.947.02l31.679-12.028c1.561-.602 1.614-5.178-.219-5.853z" fill="#697082"/><path d="M804.466 248.593l-34.021-7.171c-.344-.125-.677-.135-.958-.021l-36.155 9.714c-1.551.612-2.114 3.611 1.03 4.535l38.79 8.686c.333.125.666.135.957.021l31.7-12.039c1.551-.602 1.437-3.186-1.343-3.725z" fill="#414A5C"/><path d="M804.465 248.593l-34.021-7.171c-.343-.125-.676-.135-.958-.021l-22.424 6.029v11.063l26.089 5.843c.333.125.666.135.958.021l31.699-12.039c1.552-.602 1.437-3.186-1.343-3.725z" fill="#414A5C"/><path d="M807.09 278.866s-3.737 8.26-2.446 11.592c1.291 3.341 4.466 7.327 8.214 8.997 3.747 1.671 2.311 4.67 1.457 4.795-.854.125-10.025-.239-13.138-2.875-3.113-2.625-3.654-2.989-4.924-3.04-1.27-.052-6.184-1.111-7.152-3.612-.968-2.501 1.52-4.981 2.863-5.905 1.343-.924 7.901-16.428 7.901-16.428l7.225 6.476z" fill="#48476C"/><path d="M807.09 278.855s-2.363 5.625-8.12 4.836c-1.967 4.401-2.769 5.968-3.519 6.486-1.343.924-3.831 3.404-2.873 5.906.302.788 1 1.432 1.853 1.951-1.947-.478-4.643-1.536-5.33-3.311-.968-2.501 1.52-4.992 2.863-5.905 1.343-.924 7.901-16.428 7.901-16.428l7.225 6.465z" fill="#383838"/><path d="M788.902 293.228c.052-.238-.041-.207.281-1.141 1.812 2.999 5.695 3.414 8.912 4.545 4.664 4.089 7.526 6.196 16.833 7.109-.947 1.1-4.487.239-6.641.052-3.915-.28-7.215-2.241-10.276-4.919-2.935-1.276-9.109-.446-9.109-5.646z" fill="#202735"/><path d="M807.61 283.764s-6.673.467-11.139-3.871c0 0 6.413-20.34 13.315-31.912 3.841-6.444 5.267-10.274 5.267-10.274s14.398 2.46 14.398 6.6c0 11.935-17.667 29.661-21.841 39.457z" fill="#0046B4"/><path d="M756.995 237.717c-2.862 9.143 3.04 11.27 23.195 11.706 20.154.436 28.243 1.65 38.445 2.553 7.08.633 19.905-8.946.823-17.03-21.446-9.081-59.038-8.178-62.463 2.771z" fill="#0046B4"/><path d="M747.646 243.186c-2.03 10.046 4.029 11.779 24.142 10.315 20.113-1.463 28.285-.923 38.519-.923 7.11 0 18.447-9.942-1.281-16.771-11.472-3.964-27.619-9.05-40.278-7.13-11.805 1.785-19.925 8.707-21.102 14.509z" fill="#0069DC"/><path d="M819.342 284.397s1.364 8.956 4.268 11.052c2.905 2.097 7.745 3.736 11.795 3.103s4.487 2.667 3.842 3.228c-.656.56-8.547 5.23-12.597 4.711-4.05-.519-4.695-.529-5.788.115-1.093.653-5.799 2.418-7.975.84-2.175-1.577-1.447-5.012-.812-6.507.625-1.505-2.321-18.068-2.321-18.068l9.588 1.526z" fill="#48476C"/><path d="M819.343 284.397s1.083 5.998-4.185 8.458c.75 4.753.927 6.507.573 7.347-.625 1.505-1.364 4.94.812 6.507.687.498 1.624.664 2.623.633-1.895.654-4.737 1.235-6.288.104-2.175-1.577-1.447-5.012-.822-6.507.625-1.505-2.322-18.068-2.322-18.068l9.609 1.526z" fill="#383838"/><path d="M811.723 305.287c3.133 1.38 6.506-.322 9.775-1.1 6.142.903 9.692 1.121 17.999-3.155-.197 1.464-4.028 2.844-6.121 3.902-3.342 1.816-7.048 1.619-10.92 1.194-3.217.809-9.422 4.597-10.921-.924.052.031.125.052.188.083z" fill="#202735"/><path d="M822.445 288.237s-5.341 4.006-11.462 2.792c0 0-5.705-20.548-6.215-33.998-.281-7.493-1.176-11.478-1.176-11.478l16.521-1.557s.5 33.749 2.332 44.241z" fill="#0069DC"/><path d="M747.646 243.186a6.255 6.255 0 0 1 .593-1.681 15.294 15.294 0 0 0 3.779 2.159c2.738 1.11 5.851 1.183 8.756 1.618 2.467.374 4.955.675 7.443.862 4.955.373 9.911.166 14.866.228 5.018.062 10.036.27 15.053.519 2.145.104 4.342.249 6.538.249-.021.114-.031.239-.041.363.333.115.676.218 1.02.229-.146 2.989-.365 5.915.437 8.925.531 1.992 1.489 3.829 2.061 5.811a74.566 74.566 0 0 1 1.583 6.736c.812 4.307.083 8.883 1.624 13.055 1.166 3.155 3.446 5.708 5.049 8.635-1.635.363-3.488.508-5.424.124 0 0-5.705-20.548-6.215-33.998a58.422 58.422 0 0 0-.344-4.483c-8.016-.094-16.458-.208-32.636.965-20.103 1.463-26.172-.26-24.142-10.316z" fill="#0046B4"/><path d="M780.803 181.157c-1.53 2.148-2.831 5.355-8.401 6.413-5.57 1.059-14.939 11.364-17.156 23.081-2.207 11.727-11.41 12.35-10.078 28.394 1.333 16.044 4.862 12.692 4.862 12.692s16.886-7.41 23.881-15.868c6.986-8.458 9.994-7.845 12.024-11.727 2.031-3.881 6.445-18.12 5.237-24.658-1.364-7.347-5.341-25.384-10.369-18.327z" fill="#52517B"/><path d="M755.245 210.651c2.207-11.728 11.587-22.033 17.157-23.081 5.569-1.059 6.87-4.265 8.401-6.414.77-1.089 1.561-1.619 2.332-1.722a11.332 11.332 0 0 0-1.208 4.929c-.021 1.837.729 3.83 1.832 5.449-.135.031-.281.062-.416.103-2.426.644-4.789 2.751-5.965 4.909-1.333 2.47-1.426 5.251-.76 7.908 0 .021.01.031.01.052.25 2.875-.083 5.77.292 8.645.416 3.196 1.114 6.081 2.915 8.832 1.415 2.148 3.164 3.839 5.163 5.303-1.072 1.307-14.866 8.385-16.792 9.9-9.827 1.246-6.61-14.155-8.901-14.176-2.738-.031-.302 11.104-2.196 12.962-1.822 1.795-5.091.955-4.997 3.466.083 2.377 9.942 6.227 11.139 6.922-6.642 4.224-13.211 7.109-13.211 7.109s-3.54 3.352-4.862-12.692 7.86-16.677 10.067-28.404z" fill="#343354"/><path d="M795.138 186.326s-8.058-1.463-5.528 10.689c0 0-8.359-6.6-8.557-14.197 0 0 6.173-.353 6.964-2.792.781-2.438 7.121 6.3 7.121 6.3z" fill="#FAA284"/><path d="M793.118 186.408c-.032 0-.073-.01-.104-.01-3.259-.28-6.215 1.1-9.391.996a39.601 39.601 0 0 1-1.582-.093c-.583-1.422-.968-2.927-1.01-4.473 0 0 6.174-.353 6.965-2.792.791-2.439 7.121 6.3 7.121 6.3s-.885-.166-1.999.072z" fill="#CE7C56"/><path d="M801.188 182.724s-1.197-.976-2.53-1.028c.011.011.875 1.588 2.53 1.028z" fill="#B22828"/><path d="M801.218 180.514s.041.508 0 .737c0 0-1.624.425-2.915 0v-.499l2.915-.238z" fill="#F2F0F2"/><path d="M789.444 166.161c11.493-2.449 10.869 9.735 10.879 9.828.323.592 1.093 1.412 1.406 1.619.676.467.718.633.718.633.26 1.131-.677 1.629-1.208 1.671.042.311.073.612.094.913a14.8 14.8 0 0 1-2.727.322c.093.363.853 1.816 2.55 1.484.042-.01.125-.021.208-.041-.125 1.587.354 3.331-.885 3.839-5.267 2.149-10.681-5.095-10.681-5.095-2.363-1.951-5.819-3.3-5.819-3.3s-4.893-9.662 5.465-11.873z" fill="#FAA284"/><path d="M797.253 176.632c-.135-.612.052-1.173.406-1.245.354-.073.75.363.875.975.135.613-.052 1.173-.406 1.246-.354.072-.75-.364-.875-.976z" fill="#502F26"/><path d="M795.368 174.525l-.198-.643c.083-.031 1.374-.944 3.092-1.079l.239 1.027c-1.436-.041-3.112.685-3.133.695z" fill="#89493D"/><path d="M791.756 176.414s.832 0 1.592 2.18c.76 2.179.24 2.48.084 2.594 0 0-1.916.996-3.332-2.2-1.186-2.657 1.656-2.574 1.656-2.574z" fill="#FAA284"/><path d="M793.036 179.663s-1.634-.426-.645-1.412c0 0-.75-1.608-1.655-1.017-.906.592.229 2.014.489 2.294.562.602 2.03 1.162 1.811.135z" fill="#DB7C65"/><path d="M793.983 165.704s1.426.301 2.717 1.401c2.28 4.172-3.383 5.708-2.769 10.098.354 2.522-.469 6.092 1.603 7.503 1.478 1.017 3.196 1.567 4.955 1.712-.812.467-2.113.644-4.091.218-5.403-1.152-6.433-3.539-7.016-4.753 0 0-6.819 2.688-8.381-1.961-1.561-4.65 1.104-18.463 12.982-14.218z" fill="#CE7C56"/><path d="M791.881 172.813s-2.03 1.027-1.198 2.999c.833 1.972.458 3.632-1.905 1.308-2.363-2.325-3.768.249-2.55 1.785s2.706 4.919-1.551 6.092c-4.248 1.162-5.008-2.107-4.612-3.633.395-1.525-2.072-12.598 11.816-8.551z" fill="#452312"/><path d="M774.9 172.387s-1.833-1.899 2.831-4.597c4.675-2.698 2.728-5.687 8.037-4.867 5.309.809 6.267-3.134 10.535-.831 4.269 2.304 1.281 6.632-1.655 7.203-2.936.56-19.748 3.092-19.748 3.092z" fill="#713D22"/><path d="M798.427 164.863s-2.811 4.961-8.568 3.996c-5.767-.965-17.812.975-14.949 6.631 2.863 5.656 4.362 2.699 4.414 5.895.052 3.207 6.267-1.93 5.632-5.656-.625-3.715 2.686-2.273 7.683-3.02 5.007-.737 6.465-5.376 5.788-7.846z" fill="#452312"/><path d="M774.056 222.316c-2.165-.519-5.632 10.814-4.018 11.81 4.351 2.709 28.368 6.58 29.607 7.929 2.072 2.262 3.831 5.895 6.153 6.538.645.177 1.072-.695 1.988-.892 2.446-.54 1.499-2.159 3.321-1.993 1.822.166 3.196 1.37 3.154-1.121-.041-2.47-1.259-2.812-1.988-2.719-.739.104-.115 1.63-.115 1.63-1.186-.986-2.228-.27-2.946-1.381-.718-1.11.292-2.449 2.905-1.193 2.613 1.256 3.498-2.294 2.332-1.858-1.166.436-1.645-.031-3.707-1.266-2.061-1.235-2.342-.083-5.361.01-3.019.094-24.058-13.761-31.325-15.494z" fill="#FAA284"/><path d="M779.136 190.808c-4.268-3.456-14.855-3.01-15.709 12.578-.843 15.328 2.634 28.581 5.892 31.134.573.446 13.117 4.919 13.117 4.919s-.52-6.393 5.84-11.312l-8.245-5.075s1.937-.871-.635-3.362c-2.592-2.48 7.246-22.8-.26-28.882z" fill="#fff"/><path d="M769.434 190.27c-1.02 2.532-1.051 5.739-.271 8.219.844 2.646 2.072 19.469 4.123 23.952 1.457 3.425 3.102 6.383 5.757 9.185 1.499 1.588 2.248.892 4.174 2.023-1.061 2.356-.801 5.791-.801 5.791s-12.534-4.462-13.117-4.919c-3.248-2.542-6.725-15.805-5.893-31.134.417-7.337 2.978-11.322 6.028-13.117z" fill="#CFE6FF"/><path d="M738.912 255.628c-.343-1.017-.739-2.449-1.155-4.462-.063-.332-.156-.747-.25-1.235-.989-5.013-3.227-17.248-3.592-19.905a118.67 118.67 0 0 0-.364-2.594v-.021l-.156-.872-1.801.114.145.872c.084.477.209 1.401.365 2.553.958 7.213 2.353 14.602 3.82 20.206.615 2.376 1.25 4.431 1.874 6.019l1.52.415a19.16 19.16 0 0 1-.375-.996c-.01-.042-.02-.062-.031-.094z" fill="#D9DBDF"/><path d="M735.205 227.318l-1.801.115c.084.477.198 1.359.354 2.48.979 7.327 2.207 14.643 3.509 20.071.541 2.252 1.093 4.172 1.644 5.635l.032.083c.145.374.281.706.426 1.017l1.999.509c-4.195-7.639-6.069-29.401-6.163-29.91z" fill="#C4C8CD"/><path d="M768.832 262.686c-.364-1.089-.801-2.646-1.27-4.888-.541-2.625-1.853-9.828-2.8-15.255-.49-2.833-.885-5.189-1.01-6.144-.135-1.017-.25-1.806-.323-2.273v-.01l-.146-.872-1.801.114.146.872c.073.426.177 1.225.312 2.231.292 2.169.625 4.349.979 6.487 1.322 8.084 3.019 15.598 4.622 19.956l1.51.415a5.173 5.173 0 0 1-.208-.581c0-.01-.011-.031-.011-.052z" fill="#D9DBDF"/><path d="M765.084 234.032l-1.645.104v.01l-.156.011c.083.488.198 1.39.344 2.542.25 1.983.52 3.975.812 5.937 1.207 8.126 2.748 15.764 4.393 20.06l.031.073c.073.197.156.394.24.571l1.769.446c-4.414-11.779-5.705-29.245-5.788-29.754z" fill="#C4C8CD"/><path d="M764.658 207.33c-.791-2.615-4.102-4.826-7.288-4.94l-29.086-.955c-4.05-.145-6.215 2.605-6.455 4.068-.073.416 3.228.301 3.332.779l6.985 25.623s36.572 3.528 38.185 3.798c1.635.27 3.248-1.048 1.978-4.109-.312-.748-7.651-24.264-7.651-24.264z" fill="#414A5C"/><path d="M754.516 204.725l-29.419-1.287c-2.312-.104-3.769 1.557-3.301 3.705l6.465 24.119s14.075 4.981 42.069 4.441l-8.703-26.017c-.76-2.595-3.998-4.816-7.111-4.961z" fill="#697082"/><path d="M723.983 215.29c.729.54 1.489 1.017 2.301 1.349 2.374.965 5.309.301 7.714-.156 6.392-1.224 11.379-1.401 17.5 1.028 4.924 1.951 10.608 4.504 13.648 9.049 1.395 2.097 1.957 4.515 3.061 6.746.416.841.895 1.64 1.416 2.408.239 0 .468 0 .707-.011l-8.703-26.017c-.77-2.595-3.997-4.826-7.12-4.961l-29.42-1.287c-2.311-.104-3.769 1.557-3.3 3.705l2.196 8.147z" fill="#777F94"/><path opacity=".5" d="M725.098 203.438l29.42 1.287c3.112.146 6.35 2.366 7.12 4.961l8.381 25.032c.499-.011.989-.011 1.488-.021l-8.703-26.018c-.76-2.594-3.997-4.826-7.12-4.96l-29.42-1.287c-1.333-.063-2.374.467-2.936 1.338.489-.238 1.093-.363 1.77-.332z" fill="url(#paint1_linear)"/><path d="M941.164 310.611c5.175 0 9.37-2.541 9.37-5.676 0-3.136-4.195-5.677-9.37-5.677-5.174 0-9.369 2.541-9.369 5.677 0 3.135 4.195 5.676 9.369 5.676z" fill="#D27474"/><path d="M952.834 290.416h-23.34l2.311 14.591c0 .457 4.185.831 9.359.831 5.164 0 9.359-.374 9.359-.831l2.311-14.591z" fill="#D27474"/><path d="M933.315 300.379c1.717-1.443 3.82-.073 6.069-.374 2.374-.321 4.778-2.563 6.881-1.432 3.446 1.847 5.247-.394 5.351-.488l1.218-7.669h-23.34l1.884 11.893c.75-.789 1.645-1.691 1.937-1.93z" fill="#A35A5A"/><path d="M954.635 287.438l-2.196 5.832c0-1.308-5.049-2.356-11.275-2.356-6.225 0-11.274 1.059-11.274 2.356l-2.197-5.832h26.942z" fill="#D27474"/><path d="M941.164 297.017c6.256 0 11.327-1.738 11.327-3.882 0-2.143-5.071-3.881-11.327-3.881-6.255 0-11.326 1.738-11.326 3.881 0 2.144 5.071 3.882 11.326 3.882z" fill="#D27474"/><path d="M941.164 291.787c7.44 0 13.471-1.947 13.471-4.349 0-2.401-6.031-4.348-13.471-4.348-7.439 0-13.471 1.947-13.471 4.348 0 2.402 6.032 4.349 13.471 4.349z" fill="#E6C1C1"/><path d="M941.163 291.184c6.957 0 12.597-1.677 12.597-3.746s-5.64-3.747-12.597-3.747-12.597 1.678-12.597 3.747 5.64 3.746 12.597 3.746z" fill="#785920"/><path d="M946.109 265.996c-1.094 2.086-3.55 21.14-3.55 21.14l.926.457c1-13.222 1.635-16.678 2.79-21.451.021-.083.927-2.232-.166-.146z" fill="#00783C"/><path d="M947.857 234.593c-6.589 16.366-1.738 31.621-1.738 31.621 7.443-2.957 8.11-11.893 8.11-11.893-8.225 4.618.406-2.957.406-2.957 3.446-12.319-6.778-16.771-6.778-16.771z" fill="#21A813"/><path d="M942.787 253.2s7.891 7.659.021 2.46c0 0-.864 8.053 3.3 10.554 0 0 6.881-15.027 1.489-31.829 0-.011-7.36 6.278-4.81 18.815zM953.646 261.897s-1.27 1.609 1.104 3.529c2.374 1.919-2.446 1.131-2.738-2.304-.291-3.435-4.695 1.152-2.238 5.977 2.269 4.463-5.018 9.61-7.985 18.992.406-.156.822-.28 1.249-.384 1.624-4.276 4.862-11.779 9.266-17.414 6.506-8.323 18.239-8.137 18.239-8.137s-10.14-4.306-16.897-.259z" fill="#00783C"/><path d="M941.902 282.394c.209.944 1.104 3.424 1.739 5.178.187-.031.364-.052.552-.083-.542-1.473-1.25-2.833-1.572-3.995-2.707-9.621 1.509-13.284 2.758-20.466-16.438 16.792-3.82 17.84-3.477 19.366z" fill="#00783C"/><path d="M956.394 267.532c-.624 2.097.781 4.39-.718 4.608-1.499.218 1.239-4.265-.646-3.975-1.884.291-3.331 2.688-3.331 2.688.094 7.888-.885.924-.885.924-3.061 5.687-.739 8.551-.739 8.551-3.321 1.848-5.799 5.023-7.329 7.431.25-.062.5-.124.75-.176 1.686-2.771 4.684-6.414 9.598-8.427 8.672-3.56 12.149-11.53 12.149-11.53s-8.214-2.18-8.849-.094z" fill="#21A813"/><path d="M956.082 272.826c-5.913 1.338-5.996 7.513-5.996 7.513-3.487 2.045-5.913 5.117-7.381 7.441.26-.072.531-.135.802-.186 1.686-2.771 4.684-6.414 9.598-8.427 8.672-3.56 12.149-11.53 12.149-11.53s-3.258 3.85-9.172 5.189z" fill="#00783C"/><path d="M938.374 271.736c.427 4.701 3.768 12.858 5.059 15.878.427-.083.864-.145 1.301-.176-1.311-2.138-5.08-8.728-6.048-15.204-1.166-7.877 4.029-11.488-3.05-21.088 0 0-6.559 11.125-1.478-1.837 0 0-3.009-2.366-4.092-3.829 0 0 .021 1.753-1.384 3.455 0 0 .791-6.247-7.059-5.178 0 0-3.758 5.677 3.113 10.284 0 0 3.613 2.034 4.872 3.446 0 0-3.352-1.816-5.715-.695 0 0 .999 5.012 3.29 5.479 2.29.467 2.529.716 2.529.716s.302 1.183 1.822 1.038c1.52-.156 1.562 1.017 1.562 1.017s-2.572-1.1-4.56-.384c0 0-.083 3.082 3.519 3.757 3.591.654 5.788-2.522 6.319 3.321z" fill="#21A813"/><path d="M938.373 271.736c.427 4.701 3.769 12.858 5.07 15.878.427-.083.854-.145 1.301-.176-1.311-2.138-5.08-8.728-6.048-15.204-.302-2.024-.177-3.757.042-5.386.51-3.695 1.54-6.839-.531-11.437-.583-1.287-1.416-2.698-2.561-4.265 0 0-6.559 11.125-1.479-1.837 0 0-3.008-2.366-4.091-3.829 0 0 .011 1.743-1.384 3.455 0 0 .791-6.247-7.069-5.178 0 0-.604 4.784 6.257 9.392 0 0 10.41 12.516 8.422 13.232 0 0-7.85 1.359-4.248 2.034 3.592.654 5.788-2.522 6.319 3.321z" fill="#00783C"/><path d="M937.166 262.26c-.239 2.782 1.562 4.577 1.562 4.577.51-3.695 1.541-6.839-.531-11.437.854 4.079-.791 4.079-1.031 6.86zM941.039 288.413c-.802-2.584-2.707-7.441-6.319-10.524 0 0 2.852-2.345.978-8.53 0 0-2.342 6.621-.676-1.08 0 0-.937-2.625-2.728-3.289-1.79-.665-.01 4.275-1.426 3.767-1.416-.509.416-2.491.219-4.66-.198-2.169-8.714-1.66-8.714-1.66s1.832 8.499 9.609 13.709c5.767 3.86 7.797 9.786 8.453 12.588.208-.124.406-.228.604-.321z" fill="#21A813"/><path d="M941.069 288.402c-.749-2.501-2.56-7.129-6.35-10.513 0 0 1.145-6.071-4.372-8.551-5.528-2.48-7.964-6.901-7.964-6.901s1.832 8.499 9.609 13.709c5.767 3.86 7.797 9.786 8.453 12.588.198-.124.406-.238.624-.332z" fill="#00783C"/><path d="M940.612 288.631c-3.498-5.521-9.171-7.368-8.578-10.585.625-3.394-2.894-5.418-2.446-3.259.437 2.159-2.364 3.508-1.26 1.899 1.114-1.598.041-2.356.041-2.356-4.861-1.266-10.285 3.186-10.285 3.186s7.142-2.21 12.628 1.713c4.133 2.958 7.787 7.597 9.348 9.714a5.78 5.78 0 0 1 .552-.312z" fill="#00783C"/><defs><filter id="filter0_d" x="0" y="0" width="1608" height="327.003" filterUnits="userSpaceOnUse" color-interpolation-filters="sRGB"><feFlood flood-opacity="0" result="BackgroundImageFix"/><feColorMatrix in="SourceAlpha" values="0 0 0 0 0 0 0 0 0 0 0 0 0 0 0 0 0 0 127 0"/><feOffset dy="2"/><feGaussianBlur stdDeviation="2"/><feColorMatrix values="0 0 0 0 0 0 0 0 0 0 0 0 0 0 0 0 0 0 0.08 0"/><feBlend in2="BackgroundImageFix" result="effect1_dropShadow"/><feBlend in="SourceGraphic" in2="effect1_dropShadow" result="shape"/></filter><linearGradient id="paint0_linear" x1="913.817" y1="217.258" x2="914.141" y2="226.657" gradientUnits="userSpaceOnUse"><stop offset="0" stop-color="#fff"/><stop offset="1" stop-color="#46495F"/></linearGradient><linearGradient id="paint1_linear" x1="723.318" y1="218.571" x2="771.499" y2="218.571" gradientUnits="userSpaceOnUse"><stop stop-color="#fff"/><stop offset="1"/></linearGradient></defs></svg>