<svg width="1600" height="321" fill="none" xmlns="http://www.w3.org/2000/svg" viewBox="0 0 1600 321"><path fill="#F5FCFF" d="M0 0h1600v321H0z"/><g clip-path="url(#clip0)"><path d="M697.161 162.724H621v114.24h76.161v-114.24z" fill="#EBF6FF"/><path d="M683.125 193.997c0-13.069-10.596-23.665-23.664-23.665-13.069 0-23.665 10.596-23.665 23.665 0 13.069 10.596 23.664 23.665 23.664 13.073-.005 23.664-10.595 23.664-23.664z" fill="#A8CFE4"/><path d="M672.949 192.199s.689 5.182-2.128 8.83l-.255-1.42s-1.01 2.954-5.89 4.03c-4.876 1.076-12.654-.67-13.616-3.148 0 0 .542 1.652.868 1.959 0 0-4.224-3.837-4.083-6.679.147-2.841 3.578-8.212 3.578-8.212l8.127-8.83 4.866-.647s5.551 2.067 5.617 2.256c.061.189 2.916 11.861 2.916 11.861z" fill="#000"/><path d="M666.719 205.48c-1.68-1.548-.627-7.453-.627-7.453h-12.059s1.057 5.905-.628 7.453c-1.68 1.552-8.401 3.993-8.401 3.993l3.205 4.908h22.749l3.823-4.908c0-.005-6.381-2.445-8.062-3.993z" fill="#D8A681"/><path d="M659.843 202.61c1.831 0 3.242-1.09 4.894-2.284 1.657-1.194 2.813-2.846 3.672-6.65.859-3.804.33-5.097.595-6.32.264-1.222.972-7.093-2.02-10.388-2.563-2.832-5.82-2.978-7.146-2.978-1.326 0-4.583.146-7.145 2.978-2.988 3.295-2.285 9.161-2.02 10.388.264 1.223-.265 2.516.594 6.32.859 3.804 2.02 5.456 3.672 6.65 1.661 1.194 3.073 2.284 4.904 2.284z" fill="#FFCCA7"/><path opacity=".2" d="M667.961 192.354c-1.213 1.355-2.355 2.459-2.889 4.026-.377 1.105-.736 2.974-1.468 4.758.369-.255.746-.529 1.133-.807 1.657-1.195 2.813-2.846 3.672-6.65.269-1.185.401-2.124.463-2.894-.274.633-.586 1.199-.911 1.567z" fill="#D8A681"/><path opacity=".4" d="M667.262 178.356s-9.387-1.586-13.97-1.978a9.025 9.025 0 0 0-.595.595c-2.987 3.294-2.284 9.161-2.02 10.388.265 1.222-.264 2.516.595 6.32.859 3.804 2.02 5.456 3.672 6.65 1.576 1.132 2.926 2.175 4.635 2.274-.458-2.468-.227-6.296-.236-7.041-.01-.859-.378-2.285-.557-2.851-.166-.533.604-2.445.557-4.267-.416-4.082.566-5.479 1.231-6.631 1.327-2.293 3.262-2.001 5.924.958 3.044 3.375.764-4.417.764-4.417z" fill="#D8A681"/><path opacity=".2" d="M651.654 192.354c-.292-.325-.571-.816-.826-1.373.071.732.203 1.614.449 2.695.859 3.804 2.02 5.456 3.672 6.65.354.255.693.505 1.033.741-.708-1.761-1.066-3.596-1.439-4.687-.534-1.567-1.676-2.671-2.889-4.026z" fill="#D8A681"/><path d="M668.593 206.504c-1.038 1.312-3.558 7.556-8.745 7.556-5.14 0-7.83-6.107-8.982-7.367-2.393 1.359-8.255 3.846-8.255 3.846v.066c4.291 4.352 10.256 7.056 16.854 7.056 6.749 0 12.833-2.832 17.147-7.362-1.581-.685-6.065-2.639-8.019-3.795z" fill="#2E383B"/><path d="M650.913 188.645s-.307-1.157-.996-1.251c-.684-.09-1.411.779-.939 3.058.467 2.28.939 2.624 1.119 3.186.184.562.887 1.425 1.519.09l-.703-5.083z" fill="#D8A681"/><path d="M668.872 188.645s.306-1.157.995-1.251c.69-.09 1.412.779.94 3.058-.472 2.28-.94 2.624-1.124 3.186-.179.562-.887 1.425-1.519.09l.708-5.083z" fill="#FFCCA7"/><path d="M660.235 214.381l-8.963-8.307-2.242 1.119 5.952 10.039c.608.118 1.227.212 1.85.278l3.403-3.129z" fill="#414E52"/><path d="M659.89 214.381l3.294 2.988a24.422 24.422 0 0 0 2.209-.454l5.706-9.717-2.242-1.119-8.967 8.302z" fill="#414E52"/><path d="M662.585 179.135c-.094.042 4.167 1.189 5.324 5.149 1.156 3.959 2.209-8.51-5.324-5.149z" fill="#000"/><path d="M664.27 179.932s-2.402-2.194-4.012 1.227c-.996 2.124-2.482 7.278-6.891 8.93 0 0-4.408 4.72-1.623 9.057 0 0-2.601-1.152-2.889-3.379 0 0-.759 1.302-.217 2.992 0 0-2.274-2.19-1.661-5.645.614-3.455.543-10.761 2.926-14.267 2.384-3.507 9.789-9.109 14.593-4.734 0 0 4.409-.231 6.358 4.531 1.949 4.757 1.77 4.757 2.058 6.64.288 1.879-.505 9.138 1.916 9.713 0 0-1.789-.594-2.346-1.84 0 0-.038 4.837-3.615 5.72 0 0 2.204-2.686 1.878-5.296-.325-2.61-2.855-5.833-2.784-8.405.075-2.577-.151-8.161-3.691-5.244z" fill="#262626"/><path d="M691.125 237.012H629.25v1.85h61.875v-1.85zM691.125 242.189H629.25v1.85h61.875v-1.85zM691.125 247.367H629.25v1.85h61.875v-1.85zM691.125 252.544H629.25v1.85h61.875v-1.85zM664.633 257.726H629.25v1.85h35.383v-1.85z" fill="#A8CFE4"/><path d="M643.48 223.74l.972 1.968 2.171.316-1.572 1.534.373 2.162-1.944-1.02-1.945 1.02.373-2.162-1.572-1.534 2.172-.316.972-1.968zM651.834 223.74l.972 1.968 2.171.316-1.572 1.534.373 2.162-1.944-1.02-1.945 1.02.373-2.162-1.572-1.534 2.171-.316.973-1.968zM660.187 223.74l.973 1.968 2.171.316-1.572 1.534.373 2.162-1.945-1.02-1.944 1.02.373-2.162-1.572-1.534 2.171-.316.972-1.968zM668.541 223.74l.972 1.968 2.172.316-1.572 1.534.373 2.162-1.945-1.02-1.944 1.02.373-2.162-1.572-1.534 2.171-.316.972-1.968zM676.895 223.74l.972 1.968 2.171.316-1.571 1.534.372 2.162-1.944-1.02-1.945 1.02.373-2.162-1.571-1.534 2.171-.316.972-1.968z" fill="#D81159"/><path d="M978.005 162.724h-76.162v114.24h76.162v-114.24z" fill="#EBF6FF"/><path d="M964.11 193.737c0-13.149-10.657-23.806-23.806-23.806-13.149 0-23.806 10.657-23.806 23.806 0 13.149 10.657 23.806 23.806 23.806 13.149 0 23.806-10.657 23.806-23.806z" fill="#A8CFE4"/><path d="M948.346 207.268c-1.161-1.463 0-9.935 0-9.935H932.03s1.161 8.472 0 9.935c0 0 3.432 4.593 7.608 4.692 4.182.099 8.708-4.692 8.708-4.692z" fill="#D88F69"/><path d="M930.449 189.905s-.33-1.241-1.066-1.341c-.741-.094-1.515.836-1.01 3.285.505 2.45 1.01 2.818 1.203 3.422.194.604.954 1.534 1.633.094l-.76-5.46z" fill="#F2A983"/><path opacity=".5" d="M930.449 189.905s-.33-1.241-1.066-1.341c-.741-.094-1.515.836-1.01 3.285.505 2.45 1.01 2.818 1.203 3.422.194.604.954 1.534 1.633.094l-.76-5.46z" fill="#D88F69"/><path opacity=".5" d="M930.449 189.905s-.33-1.241-1.066-1.341c-.741-.094-1.515.836-1.01 3.285.505 2.45 1.01 2.818 1.203 3.422.194.604.954 1.534 1.633.094l-.76-5.46z" fill="#D88F69"/><path d="M949.753 189.905s.33-1.241 1.066-1.341c.741-.094 1.515.836 1.01 3.285-.505 2.45-1.01 2.818-1.203 3.422-.194.604-.954 1.534-1.633.094l.76-5.46z" fill="#F2A983"/><path d="M940.181 174.306c3.653 0 7.646 2.039 9.241 5.64 1.596 3.601.968 6.48.874 7.755-.095 1.274-.317 3.374-.633 5.012-.316 1.642-.406 4.498-1.038 6.405-.628 1.906-1.893 2.553-3.507 3.733-1.614 1.184-4.12 1.812-4.937 1.812-.816 0-3.322-.628-4.936-1.812-1.615-1.18-2.875-1.827-3.507-3.733-.633-1.907-.722-4.763-1.038-6.405-.312-1.638-.539-3.733-.628-5.012-.095-1.275-.727-4.154.873-7.755 1.59-3.601 5.579-5.64 9.236-5.64z" fill="#F2A983"/><path opacity=".5" d="M938.676 204.399c-4.272-1.704-4.786-5.923-4.876-7.684-.089-1.76-1.581-3.068-2.444-4.375-.864-1.307-.892-5.909-.892-5.909l-.534-.104c.047.562.113 1.024.137 1.369.09 1.274.316 3.375.628 5.012.316 1.643.41 4.498 1.038 6.405.633 1.907 1.893 2.553 3.507 3.733 1.01.741 2.364 1.265 3.436 1.553z" fill="#D88F69"/><path opacity=".2" d="M945.113 202.851c1.614-1.18 2.879-1.827 3.507-3.733.632-1.907.722-4.763 1.038-6.405.316-1.638.538-3.733.633-5.012.023-.35.089-.826.141-1.397l-.679.132s-.029 4.602-.892 5.909c-.864 1.303-2.355 2.615-2.445 4.375-.09 1.756-.604 5.975-4.876 7.684a2.178 2.178 0 0 0-.212.089c1.114-.264 2.667-.821 3.785-1.642z" fill="#D88F69"/><path opacity=".5" d="M939.86 195.498s-.717-.661-.717-1.223c0-.561.345-2.968.415-4.786.071-1.817-.424-1.746-1.798-2.274-1.373-.529-4.266-.954-5.328-1.058-.826-.08-.265-2.68.217-4.299.642.401 2.199 1.085 5.72 1.439 5.201.524 9.888-2.548 9.888-2.548l-15.802-.77-.075.576-1.454-.576c-1.581 3.592-.953 6.457-.864 7.731.09 1.274.317 3.375.628 5.012.316 1.643.411 4.498 1.038 6.405.633 1.907 1.893 2.553 3.507 3.733 1.609 1.18 4.106 1.808 4.927 1.813-.037-2.143-.193-6.938-.193-6.938l-.109-2.237z" fill="#D88F69"/><path d="M950.73 184.052c.434-2.43.406-10.907-10.563-10.789-10.968-.118-10.992 8.359-10.563 10.789.274 1.525-.42 4.172-.089 4.512 0 0 .467.109.58.529.114.415.298 1.756.298 1.756s.368-3.573.547-4.649c.179-1.072.297-1.279.425-2.983.127-1.699.651-2.832 1.959-3.578 1.312-.745 5.035.359 6.319.538h1.076c1.279-.179 5.008-1.279 6.32-.538 1.312.746 1.836 1.879 1.959 3.578.127 1.699.245 1.907.424 2.983.18 1.071.538 4.649.538 4.649s.17-1.341.284-1.756c.113-.415.58-.529.58-.529.326-.34-.368-2.987-.094-4.512z" fill="#262626"/><path d="M943.929 177.983h-9.6l-3.445 2.497c12.965 5.375 18.567-.675 18.567-.675l-5.522-1.822z" fill="#262626"/><path d="M930.449 206.466v8.939a23.694 23.694 0 0 0 9.855 2.138c3.62 0 7.056-.812 10.128-2.261v-8.816l-10.289 3.54-9.694-3.54z" fill="#D5DCE0"/><path d="M940.191 210.006l-4.201 2.043 2.978 4.012-.141 1.43c.486.029.981.052 1.477.052.33 0 .656-.009.986-.023l-.075-1.454 3.176-4.191-4.2-1.869z" fill="#B61617"/><path d="M940.191 210.01l-7.825-6.985-3.224 3.993 7.155 7.854 3.894-4.862z" fill="#E2E9ED"/><path d="M940.143 210.01l7.826-6.985 3.223 3.993-7.155 7.854-3.894-4.862z" fill="#E2E9ED"/><path d="M920.547 207.018a23.858 23.858 0 0 0 10.96 8.84c-1.294-7.24-.406-11.86-.406-11.86l-10.554 3.02zM959.933 207.207l-11.138-3.209s.892 4.649-.416 12.139a23.89 23.89 0 0 0 11.554-8.93z" fill="#1F404A"/><path d="M971.968 237.012h-61.874v1.85h61.874v-1.85zM971.968 242.189h-61.874v1.85h61.874v-1.85zM971.968 247.367h-61.874v1.85h61.874v-1.85zM971.968 252.549h-61.874v1.85h61.874v-1.85zM945.472 257.726h-35.378v1.85h35.378v-1.85z" fill="#A8CFE4"/><path d="M924.323 223.74l.968 1.968 2.176.316-1.572 1.534.368 2.162-1.94-1.02-1.944 1.02.373-2.162-1.572-1.534 2.171-.316.972-1.968zM932.677 223.74l.968 1.968 2.175.316-1.571 1.534.368 2.162-1.94-1.02-1.944 1.02.368-2.162-1.567-1.534 2.171-.316.972-1.968zM941.031 223.74l.967 1.968 2.176.316-1.576 1.534.373 2.162-1.94-1.02-1.945 1.02.373-2.162-1.576-1.534 2.176-.316.972-1.968z" fill="#D81159"/><path d="M949.38 223.74l.972 1.968 2.176.316-1.576 1.534.373 2.162-1.945-1.02-1.94 1.02.368-2.162-1.571-1.534 2.176-.316.967-1.968zM957.734 223.74l.972 1.968 2.171.316-1.572 1.534.373 2.162-1.944-1.02-1.94 1.02.368-2.162-1.572-1.534 2.171-.316.973-1.968z" fill="#A8CFE4"/><path d="M763.826 154.687h-86.879v130.314h86.879V154.687z" fill="#D9EEFD"/><path d="M747.817 190.358c0-14.905-12.082-26.992-26.991-26.992-14.91 0-26.992 12.087-26.992 26.992 0 14.909 12.082 26.992 26.992 26.992 14.904 0 26.991-12.083 26.991-26.992z" fill="#B8DFF4"/><path d="M735.121 201.119c-.609-1.822.302-4.229.378-4.885.075-.656.382-3.087-.453-4.149-.836-1.062-.161-4.139-.534-5.385-.372-1.246-.953-2.832-.953-2.832v-.854s-.675-2.667-1.303-2.836c-.627-.166-22.871 1.198-22.871 1.198s-1.992 1.487-1.222 2.488c.774 1 .986 3.115.075 4.601-.911 1.487-2.959 2.525-1.213 4.135 1.746 1.604 2.374 3.582 1.907 5.021-.467 1.445-3.884 1.369-3.276 3.342.609 1.973 1.426 4.101-.07 5.697-1.501 1.595 2.803 4.705 2.803 4.705s29.46-.019 29.611-2.246c.156-2.233-2.27-6.178-2.879-8z" fill="#FFE8BC"/><path opacity=".5" d="M732.568 198.83c.043-.605.774-1.072 1.581-2.346.807-1.279-.769-2.001-1.194-2.714-.425-.713.283-2.78 1.067-3.884.783-1.105-2.261-3.809-2.261-3.809l-6.471-3.068-3.785 17.18s8.67 7.056 11.7 6.088c3.025-.972-.684-6.839-.637-7.447zM709.819 186.695s.642 2.549 0 3.295c-.642.745-2.817-.071-.675 2.029 2.138 2.105 2.389 3.672 2.28 4.739-.104 1.066-1.067 2.138-2.247 2.638-1.175.5-2.709 2.35-2.246 3.242 0 0 .821-1.817 1.496-1.996.675-.179 2.095-.783 2.095-.783l2.252-1.959s-.392 2.638-1.175 3.351c-.784.713-2.153 1.817-2.219 2.138-.066.321-.448 2.879-.448 2.879l9.581-1.647 2.105-10.535-10.799-7.391z" fill="#D1B488"/><path d="M731.808 189.848s-18.331.095-18.959 1.355c-.627 1.26.642 5.309 1.308 6.664.665 1.354-.524 4.347-.987 5.026-.462.68-.642 1.959.987 1.959 1.628 0 15.801-.392 15.872-.571.071-.179.141-4.668-.142-5.782-.283-1.114.213-2.133 1.109-3.2.892-1.071.708-1.283.354-2.959-.358-1.671.458-2.492.458-2.492z" fill="#D1B488"/><path d="M711.315 184.255s-.349-1.321-1.132-1.425c-.784-.104-1.61.887-1.072 3.488.538 2.6 1.072 2.992 1.279 3.629.208.637 1.01 1.629 1.733.104l-.808-5.796z" fill="#D8A681"/><path d="M731.799 184.255s.349-1.321 1.137-1.425c.784-.104 1.61.887 1.072 3.488-.534 2.6-1.072 2.992-1.279 3.629-.208.637-1.011 1.629-1.733.104l.803-5.796z" fill="#FFCCA7"/><path d="M729.345 203.455c-1.917-1.77-.713-8.5-.713-8.5h-13.758s1.204 6.735-.713 8.5c-1.916 1.77-9.581 4.554-9.581 4.554l7.542 5.603h20.833l5.588-5.603c-.005 0-7.282-2.784-9.198-4.554z" fill="#D8A681"/><path d="M721.505 200.184c2.086 0 3.696-1.246 5.583-2.605 1.888-1.359 3.205-3.242 4.192-7.585.981-4.342.377-5.809.679-7.207.302-1.397 1.109-8.089-2.303-11.846-2.926-3.228-6.636-3.398-8.151-3.398-1.515 0-5.225.17-8.151 3.398-3.407 3.757-2.605 10.454-2.303 11.846.302 1.398-.302 2.87.68 7.207.981 4.343 2.303 6.226 4.191 7.585 1.883 1.359 3.488 2.605 5.583 2.605z" fill="#FFCCA7"/><path opacity=".2" d="M730.76 188.484c-1.382 1.544-2.685 2.808-3.294 4.597-.429 1.26-.84 3.394-1.671 5.423.42-.293.85-.604 1.294-.925 1.887-1.359 3.204-3.242 4.191-7.585.306-1.349.457-2.421.528-3.299-.321.727-.675 1.374-1.048 1.789z" fill="#D8A681"/><path opacity=".4" d="M729.963 172.517s-10.709-1.807-15.934-2.256a9.27 9.27 0 0 0-.679.68c-3.408 3.757-2.606 10.454-2.304 11.846.302 1.397-.302 2.87.68 7.207.982 4.342 2.303 6.226 4.191 7.585 1.794 1.293 3.337 2.482 5.286 2.596-.524-2.813-.26-7.184-.274-8.033-.014-.977-.434-2.601-.637-3.257-.193-.609.689-2.789.637-4.866-.472-4.653-.023-7.334.128-8.844.028-.284 4.998-1.006 8.037 2.374 3.474 3.86.869-5.032.869-5.032z" fill="#D8A681"/><path opacity=".2" d="M712.165 188.484c-.335-.373-.651-.93-.944-1.562.08.835.231 1.841.51 3.077.981 4.342 2.303 6.225 4.191 7.585.406.288.793.576 1.18.845-.812-2.006-1.218-4.102-1.643-5.348-.613-1.793-1.916-3.053-3.294-4.597z" fill="#D8A681"/><path d="M731.483 204.625c-1.251 6.405-9.978 8.982-9.978 8.982s-9.897-4.139-10.246-8.769c-2.733 1.553-9.411 4.384-9.411 4.384v.326c4.875 4.819 11.577 7.802 18.978 7.802 7.735 0 14.706-3.262 19.629-8.477-1.94-.831-6.811-2.969-8.972-4.248z" fill="#80B41C"/><path d="M714.298 176.69l.071-.038c0 .005-.028.014-.071.038zM728.65 176.69a1.59 1.59 0 0 0-.07-.038l.07.038z" fill="#FFE8BC"/><path d="M733.328 179.606s.245-.67 0-2.279c-.245-1.61-1.355-3.346-1.355-3.346.019-1.317-1.005-1.799-1.005-1.799-.722-2.048-2.671-2.864-2.671-2.864s-1.147-1.213-3.144-1.695c-1.991-.481-3.676-.5-3.676-.5s-1.685.019-3.677.5c-1.991.482-3.143 1.695-3.143 1.695s-1.954.816-2.671 2.864c0 0-1.029.482-1.006 1.799 0 0-1.109 1.736-1.354 3.346-.246 1.609 0 2.279 0 2.279s-.444 1.025-.109 3.035c.335 2.006-.358.312 2.016 6.296 0 0-1.02-5.418.292-8.599 1.133-2.737 2.204-3.488 2.478-3.648l-1.019.528s1.746-3.181 5.257-3.181l-.576-.292s2.077.146 3.125.25l-.378-.387s.387.269.77.434c0 0 .354-.109.674-.34l-.287.293c1.047-.104 3.124-.25 3.124-.25l-.576.292c3.512 0 5.258 3.181 5.258 3.181l-1.02-.528c.274.155 1.346.906 2.478 3.648 1.312 3.181.316 8.439.316 8.439 2.37-5.985 1.657-4.13 1.992-6.136.331-2.01-.113-3.035-.113-3.035z" fill="#FFE8BC"/><path d="M728.655 176.694a.412.412 0 0 0-.075-.037l.075.037z" fill="#D1B488"/><path d="M730.307 178.035c1.128 1.401 2.261 1.17 2.261 1.17-.68-.023-1.539-.689-2.096-1.633-.552-.944-2.402-2.699-2.402-2.699 1.029.316 3.002 1.316 3.002 1.316-2.549-1.944-5.447-2.407-5.447-2.407 2.629-.335 4.645-1.425 4.645-1.425-2.596 1.152-5.886 1.18-5.886 1.18.722-.458 1.817-1.85 1.817-1.85-1.383 1.685-3.653 1.916-3.653 1.916.279-.637.533-2.53.533-2.53-.372 1.572-1.345 2.53-1.345 2.53l-.16-.798-.099 1.001c-1.161-1.057-1.761-4.234-1.761-4.234s.095 2.379.77 3.573c0 0-1.369-.864-1.676-1.987 0 0 .043 1.326 1.208 2.341 0 0-2.482-.326-3.388-1.789 0 0 .453.987 1.397 1.624 0 0-3.941-.236-5.343-.972 0 0 2.011 1.09 4.639 1.425 0 0-2.897.458-5.446 2.407 0 0 1.973-1.005 3.002-1.317 0 0-1.85 1.756-2.403 2.7-.557.939-1.416 1.609-2.095 1.633 0 0 1.128.231 2.261-1.171 0 0-1.652 2.592-1.402 5.499.056-1.204.222-2.341.576-3.2 1.123-2.719 2.185-3.478 2.473-3.644l-1.015.529s1.746-3.181 5.258-3.181l-.576-.293s2.077.147 3.124.25l-.377-.387s.387.269.769.435c0 0 .359-.109.68-.345l-.293.297c1.048-.103 3.124-.25 3.124-.25l-.575.293c3.511 0 5.257 3.181 5.257 3.181l-1.014-.529c.288.166 1.349.925 2.473 3.644.354.859.519 1.996.576 3.2.259-2.912-1.393-5.503-1.393-5.503z" fill="#D1B488"/><path d="M714.293 176.694l.076-.037s-.028.009-.076.037z" fill="#D1B488"/><path d="M756.94 239.428h-70.582v2.11h70.582v-2.11zM756.94 245.337h-70.582v2.11h70.582v-2.11zM756.94 251.242h-70.582v2.109h70.582v-2.109zM756.94 257.151h-70.582v2.109h70.582v-2.109zM726.716 263.055h-40.358v2.11h40.358v-2.11z" fill="#B8DFF4"/><path d="M702.593 224.288l1.105 2.246 2.478.364-1.794 1.746.425 2.468-2.214-1.166-2.218 1.166.425-2.468-1.793-1.746 2.477-.364 1.109-2.246zM712.123 224.288l1.104 2.246 2.478.364-1.789 1.746.42 2.468-2.213-1.166-2.219 1.166.42-2.468-1.788-1.746 2.477-.364 1.11-2.246zM721.651 224.288l1.105 2.246 2.478.364-1.794 1.746.425 2.468-2.214-1.166-2.218 1.166.425-2.468-1.793-1.746 2.477-.364 1.109-2.246z" fill="#D81159"/><path d="M731.176 224.288l1.109 2.246 2.478.364-1.794 1.746.425 2.468-2.218-1.166-2.214 1.166.425-2.468-1.793-1.746 2.477-.364 1.105-2.246zM740.705 224.288l1.109 2.246 2.478.364-1.794 1.746.425 2.468-2.218-1.166-2.214 1.166.425-2.468-1.794-1.746 2.478-.364 1.105-2.246z" fill="#B8DFF4"/><path d="M923.186 154.687h-86.875v130.314h86.875V154.687z" fill="#D1E7F4"/><path d="M907.182 190.358c0-14.905-12.088-26.992-26.992-26.992-14.91 0-26.992 12.087-26.992 26.992 0 14.905 12.087 26.992 26.992 26.992 14.904 0 26.992-12.083 26.992-26.992z" fill="#A8CFE4"/><path d="M890.493 197.65c.132-3.521.594-12.125.373-13.494-.222-1.369-1.544-7.542-2.129-8.047-.585-.505-5.678-3.101-8.684-2.43-3.007.67-6.339 3.563-7.207 5.153-.869 1.591-4.017 7.075-3.993 8.128.024 1.052.061 9.599 0 10.902-.061 1.298-.731 4.149-.731 4.149l-3.573 5.451s2.105 1.071 7.971 1.43c5.867.363 23.042-1.6 23.042-1.6s-5.197-6.121-5.069-9.642z" fill="#803500"/><path d="M888.029 203.46c-1.916-1.77-.713-8.501-.713-8.501h-13.757s1.203 6.735-.713 8.501c-1.916 1.769-9.581 4.549-9.581 4.549v3.686h33.963v-3.686c-.005 0-7.278-2.784-9.199-4.549z" fill="#D8A681"/><path d="M880.19 200.184c2.086 0 3.695-1.246 5.583-2.605 1.888-1.359 3.205-3.247 4.191-7.585.982-4.337.378-5.809.68-7.206.302-1.397 1.104-8.09-2.303-11.852-2.927-3.228-6.636-3.398-8.151-3.398-1.515 0-5.225.17-8.151 3.398-3.408 3.757-2.605 10.455-2.303 11.852.302 1.397-.302 2.869.679 7.206.982 4.343 2.303 6.226 4.191 7.585 1.883 1.359 3.488 2.605 5.584 2.605z" fill="#FFCCA7"/><path opacity=".2" d="M889.45 188.484c-1.383 1.543-2.686 2.804-3.295 4.597-.429 1.26-.84 3.393-1.67 5.423.42-.293.849-.604 1.293-.92 1.888-1.36 3.204-3.248 4.191-7.585.307-1.35.458-2.421.528-3.299-.325.722-.674 1.369-1.047 1.784z" fill="#D8A681"/><path opacity=".4" d="M883.21 171.163s-5.272-.453-10.496-.906a8.326 8.326 0 0 0-.675.679c-3.408 3.757-2.605 10.455-2.303 11.852.302 1.397-.302 2.869.679 7.206.982 4.343 2.303 6.226 4.191 7.585 1.794 1.293 3.337 2.483 5.286 2.596-.524-2.813-.259-7.184-.269-8.033-.014-.977-.434-2.601-.637-3.252-.189-.609.689-2.789.633-4.866 2.1-1.024 6.159-3.304 8.16-6.475 2.775-4.39-4.569-6.386-4.569-6.386z" fill="#D8A681"/><path opacity=".2" d="M870.85 188.484c-.336-.373-.652-.93-.944-1.562.08.835.231 1.836.509 3.073.982 4.342 2.304 6.225 4.191 7.584.402.288.793.576 1.18.845-.811-2.011-1.217-4.102-1.642-5.348-.614-1.788-1.912-3.048-3.294-4.592z" fill="#D8A681"/><path d="M890.172 204.625c-1.185 1.496-4.059 4.026-9.978 4.026-5.861 0-8.929-2.378-10.246-3.813-2.416 1.373-7.91 3.742-9.156 4.276 4.908 5.073 11.78 8.231 19.398 8.231 7.631 0 14.522-3.172 19.431-8.269-1.431-.604-7.08-3.044-9.449-4.451z" fill="#D81159"/><path d="M864.544 207.462c6.513-3.601 7.712-9.43 6.334-14.112-1.383-4.682 1.501-9.383 3.61-9.812 11.125-2.275 12.215-7.5 12.215-7.5-.803 4.38-6.466 6.773-6.466 6.773s6.782-2.681 7.698-5.649c-.812 2.142.651 4.677 1.486 5.965 1.029 1.591.902 6.551-.736 10.851-1.633 4.299 2.855 11.218 6.872 13.319 0 0-3.474-8.68-2.775-16.241.694-7.565 1.949-9.85-1.836-17.963-1.78-3.808-5.801-6.659-10.558-6.659-4.753 0-10.364 3.776-12.153 9.491-3.177 10.138-.708 15.056-.708 20.309 0 2.732-1.846 9.661-2.983 11.228z" fill="#994E18"/><path d="M916.3 239.428h-70.578v2.11H916.3v-2.11zM916.3 245.337h-70.578v2.11H916.3v-2.11zM916.3 251.242h-70.578v2.109H916.3v-2.109zM916.3 257.151h-70.578v2.109H916.3v-2.109zM886.085 263.055h-40.363v2.11h40.363v-2.11z" fill="#A8CFE4"/><path d="M861.958 224.292l1.109 2.242 2.478.363-1.794 1.747.42 2.468-2.213-1.166-2.219 1.166.425-2.468-1.793-1.747 2.478-.363 1.109-2.242zM871.487 224.292l1.109 2.242 2.478.363-1.794 1.747.42 2.468-2.213-1.166-2.218 1.166.424-2.468-1.793-1.747 2.478-.363 1.109-2.242zM881.016 224.292l1.109 2.242 2.478.363-1.794 1.747.42 2.468-2.213-1.166-2.218 1.166.424-2.468-1.793-1.747 2.478-.363 1.109-2.242zM890.545 224.292l1.109 2.242 2.478.363-1.794 1.747.42 2.468-2.213-1.166-2.219 1.166.425-2.468-1.793-1.747 2.478-.363 1.109-2.242z" fill="#D81159"/><path d="M900.074 224.292l1.104 2.242 2.483.363-1.794 1.747.42 2.468-2.213-1.166-2.219 1.166.425-2.468-1.793-1.747 2.478-.363 1.109-2.242z" fill="#A8CFE4"/><path d="M850.63 144.672H750.399v150.344H850.63V144.672z" fill="#EBF6FF"/><path d="M842.687 242.439h-81.428v2.436h81.428v-2.436zM842.687 249.255h-81.428v2.435h81.428v-2.435zM842.687 256.07h-81.428v2.435h81.428v-2.435zM842.687 262.885h-81.428v2.435h81.428v-2.435zM807.823 269.695h-46.564v2.436h46.564v-2.436zM831.615 185.657c0-17.109-13.871-30.985-30.985-30.985-17.108 0-30.984 13.872-30.984 30.985 0 17.109 13.871 30.985 30.984 30.985 17.114 0 30.985-13.871 30.985-30.985z" fill="#A8CFE4"/><path d="M811.311 203.266c-1.51-1.907 0-12.932 0-12.932h-21.234s1.51 11.025 0 12.932c0 0 4.465 5.975 9.902 6.107 5.437.128 11.332-6.107 11.332-6.107z" fill="#D88F69"/><path d="M788.015 180.668s-.43-1.618-1.393-1.746c-.962-.127-1.972 1.09-1.316 4.276.656 3.186 1.316 3.667 1.567 4.455.254.784 1.241 1.997 2.123.123l-.981-7.108z" fill="#F2A983"/><path opacity=".5" d="M788.015 180.668s-.43-1.618-1.393-1.746c-.962-.127-1.972 1.09-1.316 4.276.656 3.186 1.316 3.667 1.567 4.455.254.784 1.241 1.997 2.123.123l-.981-7.108z" fill="#D88F69"/><path opacity=".5" d="M788.015 180.668s-.43-1.618-1.393-1.746c-.962-.127-1.972 1.09-1.316 4.276.656 3.186 1.316 3.667 1.567 4.455.254.784 1.241 1.997 2.123.123l-.981-7.108z" fill="#D88F69"/><path d="M800.678 160.369c4.757 0 9.949 2.653 12.025 7.339 2.077 4.687 1.256 8.434 1.138 10.096-.123 1.661-.411 4.389-.822 6.522-.41 2.133-.533 5.853-1.354 8.335-.821 2.483-2.464 3.323-4.564 4.861-2.1 1.539-5.362 2.36-6.423 2.36-1.062 0-4.324-.821-6.424-2.36-2.1-1.538-3.743-2.378-4.564-4.861-.821-2.482-.939-6.202-1.354-8.335-.411-2.133-.699-4.861-.822-6.522-.122-1.662-.944-5.404 1.133-10.096 2.081-4.686 7.273-7.339 12.031-7.339z" fill="#F2A983"/><path opacity=".5" d="M798.724 199.538c-5.565-2.219-6.23-7.712-6.348-10.001-.118-2.289-2.053-3.998-3.181-5.692-1.128-1.699-1.166-7.689-1.166-7.689l-.699-.136c.062.731.147 1.335.18 1.784.118 1.661.41 4.389.821 6.522s.533 5.853 1.354 8.335c.822 2.483 2.464 3.323 4.564 4.861 1.317.958 3.078 1.638 4.475 2.016z" fill="#D88F69"/><path opacity=".2" d="M807.101 197.522c2.1-1.538 3.743-2.378 4.564-4.861.821-2.483.944-6.202 1.354-8.335.411-2.133.699-4.861.822-6.523.033-.457.118-1.071.184-1.821l-.888.17s-.037 5.989-1.161 7.688c-1.123 1.699-3.063 3.403-3.181 5.692-.118 2.289-.783 7.778-6.348 10.001a3.745 3.745 0 0 0-.278.118c1.454-.34 3.474-1.062 4.932-2.129z" fill="#D88F69"/><path opacity=".5" d="M800.262 187.946s-.934-.859-.934-1.595c0-.732.448-3.866.542-6.23.095-2.365-.552-2.275-2.34-2.964-1.789-.689-5.556-1.241-6.934-1.378-1.076-.109-1.019-4.654.09-6.551 1.845-3.162 5.602-.986 10.185-.524 6.773.684 11.922-2.383 11.922-2.383l-19.077-3.597-2.544.647-2.53 4.37c-2.062 4.673-1.241 8.406-1.123 10.063.118 1.661.411 4.389.821 6.522.411 2.133.534 5.853 1.355 8.335.821 2.483 2.464 3.323 4.564 4.861 2.095 1.534 5.342 2.351 6.409 2.36-.047-2.789-.255-9.033-.255-9.033l-.151-2.903z" fill="#D88F69"/><path d="M814.407 173.051c.562-3.162.529-14.197-13.744-14.041-14.272-.156-14.31 10.879-13.748 14.041.354 1.987-.543 5.432-.118 5.871 0 0 .609.142.755.684.146.543.387 2.285.387 2.285s.482-4.654.713-6.051c.231-1.397.387-1.666.552-3.879.165-2.209.845-3.686 2.553-4.654 1.709-.968 6.556.467 8.222.698h1.397c1.671-.231 6.518-1.666 8.222-.698 1.704.968 2.388 2.445 2.548 4.654.166 2.213.321 2.482.553 3.879.236 1.397.698 6.051.698 6.051s.222-1.742.373-2.285c.146-.542.755-.684.755-.684.43-.439-.472-3.884-.118-5.871z" fill="#563317"/><path d="M788.015 202.223v11.729a30.852 30.852 0 0 0 12.615 2.685c4.8 0 9.336-1.09 13.39-3.035v-11.379l-13.39 4.607-12.615-4.607z" fill="#D5DCE0"/><path d="M800.692 206.834l-5.466 2.657 3.875 5.225-.594 1.845c.703.048 1.411.081 2.123.081.571 0 1.142-.019 1.704-.047l-.311-1.879 4.129-5.456-5.46-2.426z" fill="#2173D8"/><path d="M800.692 206.834l-10.185-9.085-4.196 5.191 9.317 10.223 5.064-6.329z" fill="#E2E9ED"/><path d="M800.63 206.834l10.185-9.085 4.196 5.191-9.316 10.223-5.065-6.329z" fill="#E2E9ED"/><path d="M775.272 203.45c3.62 5.149 8.755 9.147 14.767 11.332-2.595-8.382-1.18-15.773-1.18-15.773l-13.587 4.441zM826.117 203.271l-14.226-4.262s1.445 7.504-1.236 15.962a31.034 31.034 0 0 0 15.462-11.7z" fill="#1B6C7F"/><path d="M800.696 188.626c.685-.052 4.206.311 4.753 1.038.548.727 1.879 1.425 2.568 1.902.693.477 1.354.25 2.534-1.199.231-.288.958-2.383 1.19-3.11.231-.727 1.533-6.938 1.533-6.938l.383.227s-1.105 4.639-.906 5.673c.198 1.033-.015 6.565-2.044 9.142-2.03 2.577-.637 6.437-10.015 6.437s-7.986-3.86-10.015-6.437c-2.03-2.577-2.242-8.104-2.044-9.142.198-1.034-.906-5.673-.906-5.673l.382-.227s1.303 6.206 1.534 6.938c.231.727.958 2.822 1.189 3.11 1.18 1.449 1.841 1.671 2.535 1.199.694-.477 2.02-1.175 2.567-1.902.557-.732 4.078-1.095 4.762-1.038z" fill="#563317"/><path d="M800.173 193.888c1.585-.033 2.496 1.383 3.138 1.543.642.161 1.77-.453 2.063-1.128.288-.674-.515-1.703-1.223-2.251-.708-.547-3.086-.547-3.974-.613-.892.066-3.266.066-3.974.613-.708.548-1.515 1.577-1.222 2.251.293.675 1.416 1.289 2.062 1.128.638-.155 1.548-1.571 3.13-1.543z" fill="#F2A983"/><path d="M779.987 224.972l1.274 2.591 2.86.415-2.067 2.016.486 2.85-2.553-1.345-2.559 1.345.487-2.85-2.068-2.016 2.86-.415 1.28-2.591zM790.979 224.972l1.279 2.591 2.855.415-2.067 2.016.491 2.85-2.558-1.345-2.558 1.345.49-2.85-2.072-2.016 2.861-.415 1.279-2.591zM801.971 224.972l1.279 2.591 2.86.415-2.072 2.016.491 2.85-2.558-1.345-2.554 1.345.487-2.85-2.068-2.016 2.856-.415 1.279-2.591zM812.967 224.972l1.28 2.591 2.855.415-2.067 2.016.486 2.85-2.554-1.345-2.558 1.345.487-2.85-2.068-2.016 2.86-.415 1.279-2.591zM823.96 224.972l1.279 2.591 2.855.415-2.067 2.016.486 2.85-2.553-1.345-2.558 1.345.49-2.85-2.072-2.016 2.861-.415 1.279-2.591z" fill="#D81159"/><path d="M813.496 180.126s.434-1.638 1.407-1.766c.972-.127 1.991 1.1 1.331 4.324-.666 3.223-1.331 3.709-1.586 4.502-.255.793-1.251 2.02-2.148.128l.996-7.188z" fill="#F2A983"/><path d="M752.159 228.696l-30.822 30.83 8.918 8.916 30.822-30.83-8.918-8.916z" fill="#9AC0E2"/><path d="M732.429 241.208l-58.628 59.083 16.296 16.295 58.628-59.082-16.296-16.296z" fill="#2173D8"/><path opacity=".3" d="M756.223 242.477c-1.609-1.326-3.209-2.699-4.72-4.2-1.505-1.506-2.874-3.106-4.2-4.715l4.856-4.857 8.916 8.916-4.852 4.856z" fill="#84ADD1"/><path d="M799.875 125c-35.85 0-64.909 29.059-64.909 64.91 0 35.85 29.059 64.909 64.909 64.909 35.846 0 64.91-29.059 64.91-64.909 0-35.851-29.064-64.91-64.91-64.91zm0 124.122c-32.702 0-59.217-26.51-59.217-59.212 0-32.703 26.51-59.213 59.217-59.213 32.703 0 59.213 26.51 59.213 59.213 0 32.702-26.51 59.212-59.213 59.212z" fill="#fff"/><path d="M799.875 125.557c-35.544 0-64.352 28.809-64.352 64.348s28.808 64.352 64.352 64.352c35.539 0 64.353-28.813 64.353-64.352-.005-35.535-28.814-64.348-64.353-64.348zm0 123.565c-32.702 0-59.217-26.51-59.217-59.213 0-32.702 26.51-59.212 59.217-59.212 32.703 0 59.213 26.51 59.213 59.212 0 32.703-26.51 59.213-59.213 59.213z" fill="#84ADD1"/><g opacity=".2" fill="#fff"><path opacity=".2" d="M760.098 163.069l-6.688-4.092a55.525 55.525 0 0 0-9.35 30.928c0 15.674 6.462 29.833 16.864 39.971a56.865 56.865 0 0 1-11.2-33.977 56.816 56.816 0 0 1 10.374-32.83zM799.875 134.09c-16.736 0-31.749 7.367-41.981 19.034l6.603 4.437c10.454-11.535 25.552-18.78 42.344-18.78a56.9 56.9 0 0 1 26.742 6.636 55.603 55.603 0 0 0-33.708-11.327z"/></g></g><defs><clipPath id="clip0"><path fill="#fff" transform="translate(621 125)" d="M0 0h357v195.774H0z"/></clipPath></defs></svg>