<svg width="1600" height="600" fill="none" xmlns="http://www.w3.org/2000/svg" viewBox="0 0 1600 600"><path d="M1600 0H0v600h1600V0z" fill="#EFE8E4"/><path d="M1168 221.3v-6.7h-8v-6.4h-13.9v-7.3h-20v7.3h-10v6.4h-8.6v-2.3h-36.7v356.3h130V237.9l-32.8-16.6zM-19.4 349.7l-11.1-17h-79.8v10.8h-12.4v225.1H3.4V349.7h-22.8z" fill="#E8D0BF"/><path d="M109.7 321.8v-13.1H98.5v-10.9H82.3v-18.6h-5.5v18.6H60.6v10.9H49.4v13.1H33.6v246.8h91.9V321.8h-15.8z" fill="#CE7C72"/><path d="M1352.7 365v-35.8h-8.7v-36.9h-8.7l-19-40.6h-5.8l-19 40.6h-8.7v36.9h-8.8V365h-12.5v203.6h103.8V365h-12.6z" fill="#E8D0BF"/><path d="M428.3 445.4v-7.7h-23.9v7.7h-36.3V440c0-4.4-12.8-8-28.6-8s-28.6 3.6-28.6 8v5.4h-14.2v-16.1h-39.4v16.1h-50.5v-13.3h-52.7v13.3h-51.8v123.3h410.6V445.4h-84.6z" fill="#CE7C72"/><path d="M1663.6 420.6v-10.4h-.8v-5.5h-5.6c-.6-1.2-1.9-1.9-3.3-1.9h-1.6c-.9-3-3.6-5.2-6.9-5.2h-66.1c-3.3 0-6 2.2-6.8 5.2h-1.6c-1.4 0-2.6.8-3.3 1.9h-5.6v5.5h-.8v10.4h2.1v8.1h-2.3v139.9h102.7V428.7h-2.3v-8.1h2.2z" fill="#E8D0BF"/><path d="M794 406.1c.2-1.5.3-3 .3-4.6 0-8.8-3.5-15.9-7.8-15.9h-52.7c-2.7 0-5.1 2.8-6.4 7H720c-1.4-4.2-3.8-7-6.5-7h-52.7c-4.3 0-7.8 7.1-7.8 15.9 0 1.6.1 3.2.3 4.6h-10.7v162.6H802V406.1h-8z" fill="#CE7C72"/><path d="M951.3 463.3v-249H901v-5.8h-7.6v5.8h-90.6v249h-4.6v105.3h157.1V463.3h-4zM1582.3 293.9v-12H1527v-11.5h-21.6c-2.7-1.1-5.7-2-8.8-2.7-9.4-2.1-18.4-1.8-25.1.3h-7.6v2.4h5v16.5h-2.9v4.5h2.9v2.6h-1.9v274.8h116.8V293.9h-1.5z" fill="#E8D0BF"/><path d="M30 485.2v-13.6h-9.5v-18.7H11v-18.6H1.6v-18.7H-9.8v-20.9h-95.5v22.8h-3.8v6.3h-32.3v144.8H38.5v-83.4H30z" fill="#D6857B"/><path d="M448.8 492.9v-4.1h-1.9v-.9H399V485h-36.7v-7.6h6.4l-11.3-2.5v-6.1h11.3l-39.2-8.8h-38.4V325h1.8v-1.6h-1.8v-1.1h1.8v-1.6h-1.8v-1.9h1.1V316h-1.1v-2h-2.5v-10.4h1.7v-2.7h-2V299h-3.2v1.8h-1.7v1.9h-2.2v-13.3H279v-14.1h1.7v-5h-1.4v-2.8h-2.1v-3.4h-.7v-11.3h-1.1v11.3H274v-1.7h-2v-5.8h-.5v5.8h-5.2V258h-.5v4.4h-1.6v-3.8h-.5v3.8h-1.4v1.7h-1.6V252h-.9v12.2h-.7v3.4H257v2.8h-1.4v5h1.7v14.1h-2.2v13.3h-2.2v-1.9h-2V299h-3.2v1.8H246v2.7h1.7v10.4h-2.5v2h-1.1v2.8h1.1v1.9h-1.8v1.6h1.8v1.1h-1.8v1.6h1.8v135h-38.4l-39.2 8.8h11.3v6.1l-11.3 2.5h6.4v7.6h-36.7v2.8H89.4v.9h-1.9v4.1h1.9v33.8h-1.9v4.1h1.9v4.4h-1.9v4.1h1.9v29.3h357.3v-29.3h1.9V535h-1.9v-4.4h1.9v-4.1h-1.9v-33.8h2.1v.2zM242.3 275.4h1.5v14.1h-1.5v-14.1zm-15.5 0h1.4v14.1h-1.4v-14.1z" fill="#AF574B"/><path d="M583.6 353.4v-12.5h-9.9v-9.1H568l-54.3-27.2-54.2 27.2h-5.7v9.1h-9.9v12.5h-14.8v215.2h169.3V353.4h-14.8z" fill="#E8D0BF"/><path d="M908.1 490.6h1.6l2.1-2.2v-1.1h-3.7v-4.8c0-1.1-.9-2-2-2h-10.9V476h-.1l-17.1-6.1v-1.6h-.9v-1.1H876l-.4-6.1-.4 6.1h-1.1v1.1h-.9v1.6l-17.1 6.1h-.1v4.4h-11c-1.1 0-2 .9-2 2v4.8h-3.7v1.1l2.1 2.2h1.6v2.5h-84.7v-6.5l2.6-1.3h.1V484h-2.7v-6.9l4.5-3.2h.1v-1.7h-4.6v-32.7h-40.9l-13.9-6.2h-.8v-8.5h-.3v-.8h.8v-.7h-.8v-4h-.7v-1.1h-.6v-14.6h.4v-2.9h1V399h-1.7v-1.8h-2.3v-.8h-2.1V395h-.7v-7.9h.6v-1h.7v-.9h-.8v-1.9h-.9v-2.6h-.8v-1h-.8v-3h-.2c-.3-6.9-4.8-12.8-10.9-15.3h.1v-1.3h-.3V358h-1.3v-.5h-.3v-1.3h.4v-.8h-.5V354h-.7v-5.5h.3v-.8h.5v-.5h.8V346h-.4v-.6H680v-1.2h-.2v-1h.3v-.5h-.8c-.3-1.9-1.1-3.3-2.1-3.9v-.6h.2v-.6h.2v-.4h-.3c0-.1.1-.1.1-.2s-.1-.2-.2-.3v-.6c.2-.3.4-.5.5-.8.1-.1.4-.7.4-.8 0-.1.1-.3 0-.5 0-.1-.3-.3-.3-.4-.2-.2-.4-.3-.5-.5-.2-.2-.2-.7-.3-1 0-.2-.1-.3-.2-.4h-.2c-.1 0-.2-.1-.2-.2s0-.2.1-.3c0 0 .1-.1 0-.2l.1-.2c0-.1-.1-.1-.1-.2-.1-.2-.4-.3-.6-.3-.2 0-.3.1-.3.3-.1.1-.1.1-.1.2s.2.3.2.4c0 .1-.1.1-.1.2s-.1.1-.1.2c-.1.1-.1.1-.1.2-.2-.1-.4-.1-.6-.3-.2-.2-.4-.6-.4-.9-.1-.3-.3-.7-.3-1 .2-.2.2-.4.2-.7v-.2h-.1l-.1-.2v-.3c0-.1-.1-.2-.1-.2s-.1.1-.1.2-.1.1-.1.1c-.1 0-.2.2-.2.2v.1l-.1.2s.1.2.1.5c0 .1.2.4.3.4.1.4.1.7.3 1.1.1.5.3 1.1.8 1.3.1 0 .3.1.4.2.2.1.1.7.1.9v.2c-.1.3 0 2.2.1 2.2 0 .3-.1.5 0 .8v.2c-.2 0-.3.2-.3.3 0 .1 0 .1.1.2h-.4v.4h.2v.6h.2v.6c-1 .6-1.8 2-2.1 3.9h-.8v.5h.3v1h-.2v1.2h-1.2v.6h-.4v1.1h.8v.5h.5v.8h.3v5.5h-.7v1.7h-.5v.8h.4v1.3h-.3v.5h-1.3v2.1h-.3v1.3h.1c-6.2 2.4-10.6 8.3-10.9 15.3h-.2v3h-.8v1h-.8v2.6h-.9v1.9h-.8v.9h.7v1h.6v7.9h-.7v1.4H654v.8h-2.3v1.8H650v1.7h1v2.9h.4v14.6h-.6v1.1h-.7v4h-.8v.7h.8v.8h-.3v8.5h-.8l-13.9 6.2h-40.9v32.7h-4.6v1.7h.1l4.5 3.2v6.9h-2.7v1.2h.1l2.6 1.3v6.5h-84.7v-2.5h1.6l2.1-2.2v-1.1h-3.7v-4.8c0-1.1-.9-2-2-2h-10.9V476h-.1l-17.1-6.1v-1.6h-.9v-1.1h-1.1l-.4-6.1-.4 6.1h-1.1v1.1h-.9v1.6l-17.1 6.1h-.1v4.4h-10.9c-1.1 0-2 .9-2 2v4.8h-3.7v1.1l2.1 2.2h1.6v7.8h-1.2v2h1.2v32h-3.7v1.1l2.1 2.2h1.6V548h-2.6v20.5h468.8V548h-2.6v-12.4h1.6l2.1-2.2v-1.1h-3.7v-32h1.2v-2h-1.2v-7.7zm-254.2-72.2h-.7v-14.6h.7v14.6zm2.1 0h-.4v-14.6h.4v14.6zm18.7-64.4h-.7v-5.5h.7v5.5zm2.7-20c.1.1.4.1.5.2 0 .1-.5 1.1-.6 1.3v-.5-.2c0-.1 0-.1-.1-.2v-.2-.5-.2c.1.1.1.2.2.3zm-.7 20h-.7v-5.5h.7v5.5zm2 0h-.7v-5.5h.7v5.5zm18.4 64.4h-.4v-14.6h.4v14.6zm2.4 0h-.7v-14.6h.7v14.6zM1140.1 491.3v-34.9h-14.6v-33H1111v-32.9h-14.5v-33H1082v-33h-14.6v-33H1013v.2l-37.3 32.5v24.3l-10 8.7v24.3l-10 8.7v24.2l-9.9 8.8v24.2l-10 8.7v24.3l-10 8.7v79.5h230.6v-77.3h-16.3zM1269.8 283.6v-8.8h-2v-6.2h-4.3v-58.2l-22.5-18.5h-30.2l-22.5 18.5v58.2h-4.4v6.2h-1.9v8.8h1.9v2.6h-1.9v8.8h1.9v2.6h-1.9v8.8h1.9v2.6h-1.9v8.8h1.9v2.6h-1.9v8.8h1.9v2.6h-1.9v8.8h1.9v2.6h-1.9v8.8h1.9v2.6h-1.9v8.8h1.9v2.6h-1.9v8.8h1.9v2.6h-1.9v8.8h1.9v2.6h-1.9v8.8h1.9v2.6h-1.9v8.8h1.9v2.6h-1.9v8.8h1.9v2.6h-1.9v8.8h1.9v2.6h-1.9v8.8h1.9v2.6h-1.9v8.8h1.9v2.6h-1.9v8.8h1.9v2.6h-1.9v8.8h1.9v2.6h-1.9v8.8h1.9v2.6h-1.9v8.8h1.9v2.6h-1.9v8.8h1.9v2.6h-1.9v8.8h1.9v2.6h-1.9v8.8h1.9v2.6h-1.9v8.8h1.9v2.6h-1.9v8.8h1.9v2.6h-1.9v8.8H1269.8v-8.8h-2v-2.6h2v-8.8h-2v-2.6h2V537h-2v-2.6h2v-8.8h-2V523h2v-8.8h-2v-2.6h2v-8.8h-2v-2.6h2v-8.8h-2v-2.6h2V480h-2v-2.6h2v-8.8h-2V466h2v-8.8h-2v-2.6h2v-8.8h-2v-2.6h2v-8.8h-2v-2.6h2V423h-2v-2.6h2v-8.8h-2V409h2v-8.8h-2v-2.6h2v-8.8h-2v-2.6h2v-8.8h-2v-2.6h2V366h-2v-2.6h2v-8.8h-2V352h2v-8.8h-2v-2.6h2v-8.8h-2v-2.6h2v-8.8h-2v-2.6h2V309h-2v-2.6h2v-8.8h-2V295h2v-8.8h-2v-2.6h2zM1470.3 240.9v-19.5h-2.3v-21.9h-2.3v21.9h-2.3v19.5h-3.3v9.1l-23.3 12.9h-12.3v9.1h-7.3v-6.1h-6.4v-7.1h-29.4v7.1h-7.5v6.1h-2.2l-.3-1-20.9-5.1v6.1h-2v296.6h125.1V240.9h-3.3z" fill="#D6857B"/><path d="M220.5 461.3c-.2-.1-.6.2-.9.2-.2 0-.7-.2-.9-.2.5-1.1.8-1.5 1.1-2.7.7-1.1 1.4-2.5 1.9-2.6.4.4 2.2 1.7 3.4 1.8.1 0 .4.5.5.5.1.5 2.4 8.9 10.1 10.8-1.1 1.1-2.4 2.3-2.8 3.9-.3.9.1 1.8.4 2.6.4 1.3 1.5 3.7 1.2 4.7-.1.4-6.9 4.1-7.2 4.4-.7.8-.5.8-.8 1.2-.2.4-.9.5-1.3.8-.6.4-1.6 1.9-1.6 2.2 0 .4.9.6 1.9.7 1.2.1 2.5 0 3.2-.7.1-.1.1-.4.1-.4s-.5-1.3-.2-1.6c0 0 .1-.1.2-.1.4.1 1.4.2 1.4 0 .4-3 6.7-4.4 7-5.3.2-.5 0-1 0-1.5-.1-.8-.2-1.6 0-2.3.3-.9 1.7-2 2.5-2.6.5 3.6 4.1 5.8 4.5 6.7.6 1.4-4.4 6.1-4.7 6.4-.7.8-.2 1-.5 1.4-.2.4-.9.5-1.3.8-.6.4-1.5 2-1.5 2.3 0 .4 1 .8 2.2.9 1.2.1 2.3 0 3.1-1 .1-.1.1-.5-.1-.6 0 0-.7-1.4-.5-1.7.1-.1.2-.1.4-.1.4 0 1.1.2 1.4.2.3 0 .3-.4.3-.6-.6-1.5 1.1-3.9 2.4-5.7.9-1.2 2.3-2.4 2.5-2.8.2-.4 0-1.1-.7-1.6-1.3-1-2.3-3.1-1.6-4.3.6-1 2.4-1.9 3.1-2.7.3-.4.6-1.1.8-1.9.2.3.4.6.5.9.3.5.5 1.1.6 1.6v.8c0 .2-.1.5-.2.7-.2.5-.5.9-.9 1.3-.2.3-.5.5-.7.9-.2.3-.4.7-.5 1.1-.1.4-.1.8-.1 1.2 0 .2.1.4.2.6.1.2.2.4.3.5l.6.6c0 .1-.1.3-.1.4-.1.4-.2.8-.3 1.3-.1.4-.1.9-.2 1.3v1.4c.1 1 .3 2 .7 2.9.4 1 1.1 1.9 2 2.6.9.7 2 1 3 1.1h.2c1 .1 2-.1 2.9-.5.8-.4 1.6-1 2-1.8.5-.7.7-1.6.5-2.4h-.2c-.5.6-1 1-1.6 1.2-.5.2-.9.3-1.4.2h-.1c-.5-.1-1-.2-1.3-.5-.1-.1-.3-.2-.4-.3.2 0 .3.1.5.1.6.1 1.2 0 1.7-.2.4-.1.7-.3 1-.5.3-.2.5-.5.7-.8.1-.2.1-.3.2-.5s.1-.3.1-.5c0-.3 0-.6-.1-.9h-.2c-.3.5-.6.9-1 1.1-.3.1-.6.2-.8.2h-.2c-.4-.1-.7-.2-1-.4-.1-.1-.3-.2-.4-.4l.6.3c.3.1.6.2.8.2h.3c.2 0 .4 0 .5-.1.2-.1.3-.2.4-.4l-.1-.1h-.1l-.1-.1c-.1.1-.3.1-.4.1-.1 0-.2 0-.3-.1-.3-.1-.5-.2-.7-.4-.4-.3-.8-.8-1-1.2 0-.1-.1-.2-.1-.3v-.3c0-.2 0-.4.1-.6.2-.4.5-.8.9-1.2.5-.5 1-1.1 1.3-1.8.3-.7.3-1.6.1-2.3-.2-.7-.6-1.3-1-1.8l-.2-.2c-.1-.9-.4-1.8-.8-2.6-.4-.9-1-1.7-1.7-2.3-.7-.6-1.5-1.1-2.3-1.4-.8-.3-1.6-.5-2.4-.6-.2-1.1-.7-2.2-1.7-3-1-.8-1.9-1.4-2.9-2-2-1.3-4.3-4.3-4.2-5.9.2.1.4.2.5.3.1.1.3.3.3.4.1.2.1.3.2.5v1.3c0 .2.1.3.2.5.1.3.3.7.6.9.3.3.6.5.9.6.3.1.7.2 1 .2h.1c.7 0 1.3-.1 1.9-.4.3-.2.5-.4.7-.6.1-.1.2-.3.2-.4 0-.2.1-.3 0-.5h-.2c-.1.3-.3.4-.5.5-.2.1-.4.2-.7.2h-.6c-.2 0-.4-.1-.6-.1l-.6-.3c-.2-.1-.3-.2-.4-.4-.1-.1-.2-.3-.2-.5 0-.1-.1-.2-.1-.3v-.1-.1c.6.3 1.2.4 1.8.5h.1c.1 0 0 0 0 0 1 .1 1.9-.1 2.7-.5.8-.4 1.5-1 1.9-1.7l.3-.6c.1-.2.1-.4.2-.6.1-.4.1-.8 0-1.1h-.2c-.5.5-1 .9-1.5 1.1-.4.1-.8.2-1.2.2h-.2c-.5-.1-.9-.2-1.1-.5-.3-.2-.5-.5-.6-.7-.1-.2-.1-.4-.1-.5l.9.3c.1 0 .3 0 .4.1h.4c.3 0 .5-.1.8-.1.2-.1.5-.2.7-.4.2-.2.4-.4.5-.6.2-.4.2-.9.1-1.3h-.2c-.1.4-.4.7-.6.8-.1.1-.3.1-.4.2h-.3c-.3 0-.5-.1-.8-.3-.2-.1-.5-.3-.6-.6-.2-.2-.3-.4-.4-.6l.6.3c.1 0 .3.1.4.1h.6c.1 0 .3-.1.4-.1.1-.1.3-.1.4-.2l.3-.3c.1-.1.1-.3.1-.4h-.2c-.2.1-.4.2-.6.2h-.2c-.1 0-.2-.1-.3-.1-.2-.1-.3-.2-.4-.3-.1-.1-.2-.2-.2-.3v-.2c0-.1.1-.2.1-.3.1-.3.3-.6.5-.9l.1-.1c0-.1.1-.1.1-.2.1-.1.1-.2.2-.4.1-.3.3-.5.3-.8.1-.3.2-.6.2-.9 0-.3 0-.7-.1-1-.1-.3-.3-.6-.5-.9l-.2-.2h.1c.3-.1.6-.2.8-.4l.3-.3c.1-.1.2-.2.2-.4.1-.1.1-.3.1-.4 0-.1 0-.3-.1-.4h-.2c-.1.2-.2.3-.4.4-.1 0-.2.1-.2.1-.1 0-.2 0-.3.1h-.5c-.1-.4-.2-.8-.3-1.3V441.6v-.2-.4c0-.3-.1-.6-.1-.8-.1-.3-.2-.6-.4-.9-.2-.3-.4-.5-.6-.7-.3-.2-.5-.4-.8-.5-.3-.1-.6-.1-.9-.1h-.5s0-.1.1-.1c.1-.3.2-.6.1-.9 0-.1 0-.3-.1-.4 0-.1-.1-.3-.2-.4l-.3-.3c-.1-.1-.2-.2-.4-.2v.1c.1.2.1.4.1.6 0 .1 0 .2-.1.3 0 .1-.1.2-.1.2-.1.1-.2.3-.3.4-.1.1-.2.1-.3.1-.1 0-.1 0-.2-.1-.1 0-.2-.1-.3-.1-.2-.1-.5-.4-.8-.6l-.1-.1c-.1 0-.1-.1-.2-.1l-.3-.3c-.2-.2-.5-.3-.7-.4l-.9-.3c-.2 0-.5-.1-.7 0 .3-.1.5-.3.8-.4v-.1c-.2-.1-.3-.1-.5-.1h-.5c-.4 0-.7.1-1.1.3-.1.1-.3.1-.4.2.1-.3.3-.7.5-1v-.1s0-.1-.1 0c-.4.1-.7.4-1 .7-.2.2-.4.5-.5.8v-.4c0-.3.1-.7.2-1v-.1h-.1c-.3.2-.6.6-.7 1-.1.3-.2.6-.2.9-.1-.1-.1-.1-.1-.2-.2-.3-.4-.6-.5-.9h-.1c-.1.4-.1.8 0 1.2.1.2.1.3.2.5-.1 0-.1-.1-.2-.1-.2-.1-.4-.1-.7-.1-.2 0-.5.1-.7.2-.2.1-.4.3-.5.5-.1.2-.2.4-.2.6 0 .1 0 .2.1.3.1.1.1.2.2.2l.1-.1c-.1-.1-.1-.3-.1-.5s.1-.3.2-.4c.2-.2.5-.4.9-.3.3 0 .6.2.9.4.1 0 .1.1.2.1-.5.2-2 1.4-2.2 1.6-.1.2-.2.2-.2.5 0 .4-3.4 3.1-3.7 3.7-.3.6-.1 1.5.5 2 .2.2.6.5 1 .5h.2c.4 0 .6.2.9.2h.2c.8-.1 1.3-1 2-1.1 3-.6 2.7-.9 2.9-1 .4.1.9.5.6 1.2-.7 1.4-2.9 1.9-5.5 2.5-1.9.5-4.3 2.1-4.8 3.2-.4-.4-2.3-2.2-2.7-2.5-.3-.2-.5-.3-.8-.3-.4 0-.8.1-1.3 0H220.8c-1.2-.2-3.2 1.8-5.8 3-.1.1-.2.2-.3.5-.5.6-.9.9-1 1.3-.2.5-.7.7-1 1.1-.5.5-1.8 2.6-1.7 3 .1.2.5.4 1 .4 1.3.1 3.5-.3 4.4-1.5.1-.1 0-1.8.1-2.2.2-.6.2-.8.4-.8.3.1.5.3.7.3.1 0 .2 0 .2-.1.1-.4.1-.7.5-1.1.3-.3 1.7-.8 2.4-.8.1 0 .2 0 .3.1.2.5 2.6 2.5 2.6 2.6.4.6.5 1.1.6 1.2-.6-.5-2.2-1.8-3.2-1.8h-.4c-.3.1-.7.2-1 .5-1 1-4.5 6.5-4.5 6.5-.3.6-.7 1.6.2 3.1.2.4 1 2.1 1.1 2.5.1.2.3.6.6.6h.1c.3 0 .5-.1.7-.1.1 0 .3.1.5.1.5.3.4 1 .7 1.4.4.7 1.8 1.6 2.2 1.6h.1c.8 0 1.5-3.7.1-5.3-.1-.1-.3-.1-.4-.1h-.2s-.5.2-.9.1c-.1 0-.2 0-.3-.1 1-.7 1.1-2.6.9-2.7zm30.2 16.1c-.1.3-.2.5-.2.8-.1.3-.2.5-.3.8l-.1.2c-.1-.3-.1-.7 0-1 .1-.3.3-.7.6-1v.2z" fill="#C16553"/><path d="M277.3 482.4c-.2-.9-.7-1.7-1.4-2.2h-.1s-.1 0-.1.1c.1.8 0 1.5-.3 2.1-.3.6-.6 1-1.1 1.4-.4.3-.9.6-1.3.6-.2 0-.4.1-.5 0 .7-.4 1.2-1 1.6-1.8.2-.4.3-.8.3-1.2 0-.4 0-.8-.1-1.2-.1-.2-.1-.4-.2-.5-.1-.2-.2-.3-.3-.4-.2-.3-.5-.5-.8-.6h-.1s-.1.1 0 .1c.2.6.2 1.2.1 1.6-.1.4-.4.7-.7 1-.3.2-.7.3-1.1.4h-.8l.9-.3c.3-.2.7-.4.9-.7.1-.1.3-.3.3-.5.1-.2.1-.4 0-.6h-.1c0 .2-.1.3-.2.4-.1.1-.2.2-.4.3l-.9.3c-.6.1-1.2 0-1.7-.2-.1-.1-.2-.1-.3-.2-.1-.1-.2-.1-.3-.2-.2-.2-.3-.3-.4-.6-.2-.4-.2-1-.2-1.6.1-.8 0-1.6-.4-2.4-.3-.8-.9-1.4-1.6-1.8-.7-.4-1.5-.6-2.2-.6h-.3c-.8-.6-1.6-1-2.6-1.3-1-.3-2.1-.5-3.1-.5s-2 .3-2.8.6c-.9.4-1.6.8-2.3 1.4l-.6.6c-1.6-.8-3.4-1.2-5.2-1-1.3.1-4.5 1.1-5.8 1.4-1.7.4-4.6 0-7.3-1.7-.1-.1-.2-.1-.3-.2v-.1-.4c.2.2.4.4.6.5.3.2.7.4 1 .4.4.1.7.1 1.1 0 .2 0 .3-.1.5-.1.2-.1.3-.1.5-.2.6-.3 1.1-.7 1.4-1.2.2-.3.3-.6.3-.9v-.5c-.1-.2-.1-.3-.2-.4h-.1s-.1 0-.1.1c.1.3 0 .5-.2.7-.1.2-.3.3-.5.5-.4.3-.8.5-1.2.5-.4.1-.8.1-1.2 0-.2-.1-.4-.2-.5-.3.5-.1 1-.3 1.5-.5.9-.4 1.6-1 2.1-1.8.5-.7.8-1.6.8-2.5 0-.2 0-.4-.1-.6 0-.2-.1-.4-.2-.6-.1-.4-.4-.7-.6-.9 0 0-.1 0-.1.1-.1.7-.4 1.2-.8 1.6-.4.4-.8.6-1.2.7-.4.1-.8.1-1.2.1-.4-.1-.6-.2-.9-.4.2 0 .4-.1.6-.2.5-.2.9-.4 1.2-.8.2-.2.3-.4.4-.6.1-.2.2-.5.1-.8 0-.3-.1-.5-.2-.7-.1-.2-.3-.4-.4-.5h-.1s-.1 0-.1.1c.1.4.1.7-.1 1l-.3.3c-.1.1-.2.1-.3.2-.2.1-.5.1-.8.1-.3 0-.6-.1-.8-.1-.1 0-.1 0-.2-.1.1 0 .2-.1.3-.1.3-.1.6-.3.8-.5l.3-.3c.1-.1.2-.2.2-.4.1-.1.1-.3.1-.4 0-.1 0-.3-.1-.4h-.1c-.1.2-.3.3-.4.4-.2.1-.4.1-.5.1-.3 0-.7 0-.8-.2-.1-.1-.1-.1-.1-.2s0-.1-.1-.3v-1.1-.2-.4c0-.3-.1-.6-.2-.9-.1-.3-.2-.6-.4-.9-.2-.3-.4-.5-.7-.7-.3-.2-.6-.3-.9-.4.1-.2.3-.4.3-.6.1-.1.1-.3.1-.4v-.4c0-.1-.1-.3-.2-.4l-.3-.3s-.1 0-.1.1c0 .2 0 .4-.1.5l-.2.2-.2.2c-.1 0-.1.1-.2.1l-.3-.3c-.4-.4-.8-.7-1.2-1 0 0 0-.1-.1-.1-.1-.1-.1-.2-.2-.3l-.6-.6c-.4-.4-1-.7-1.7-.8-.6-.1-1.3.1-1.7.4h-.4c-.1-.3-.2-.5-.3-.7l-.3-.3c-.1-.1-.2-.2-.4-.2-.1-.1-.3-.1-.4-.1-.1 0-.3 0-.4.1v.1c.2.1.3.3.4.4 0 .1.1.2.1.3v.2c0 .2 0 .3-.1.4-.2.1-.3.1-.5.2h-.2c-.3 0-.6-.1-1-.1h-1.6c-.5.1-1.1.2-1.6.6v-.1c.1-.3.3-.6.4-.9 0 0 0-.1-.1-.1-.2 0-.4.1-.5.2-.2.1-.3.2-.5.3-.3.2-.6.5-.8.8-.1.1-.2.3-.2.5 0-.3-.1-.6 0-.9v-.1h-.1c-.3.3-.5.7-.6 1.1 0 .2-.1.4-.1.7v.1c-.1-.1-.1-.2-.2-.2-.2-.3-.3-.6-.4-.9h-.1c-.2.4-.2.8-.1 1.2 0 .2.1.5.3.7h-.1c-.3-.1-.6-.2-.9-.5h-.1s-.1.1 0 .1c.1.5.5.9 1 1.2-.2 0-.4.1-.6.2-.2.1-.4.3-.5.5-.1.2-.2.4-.2.7 0 .2 0 .5.2.7.1.1.2.2.3.2.1.1.2.1.3.1v-.1c-.3-.1-.4-.5-.4-.8.1-.3.3-.5.6-.7.3-.1.6-.1 1-.1.2 0 .3 0 .5.1.1 0 .1 0 .2.1l-.3.3-.9.9c-.1.2-.2.2-.2.6 0 .4-3.4 4.2-3.7 4.9-.3.7 0 1.6.6 2.1.3.3.7.5 1.1.5.8-.1.8.2 1.3.1.9-.1 1.3-1.2 2.1-1.4 1.4-.4 3.7-1.6 3.3-1.5.4-.1.6-.6 1.4 1 .7 1.6-1 7-2 8.2-1.4 1.7-2 6.9-1.4 8-.7.6-1.1 1-1.1 1s-5.1-.9-5.9-.8c-1 .1-1.8.4-2.3 1.2-.4.7 0 1.2 0 2.3 0 1.2 3.3 2.8 4.8 5.2.2.3.4.7.7 1v.1c0 .1-.1.3-1.2 1-.4.2-.8.6-1.1 1-2.3 3.2-6.1 6.6-6.3 6.8-.7.9-1.3 1.1-1.5 1.6-.2.5-.8.7-1.2 1-.6.5-2.2 2.6-2.1 2.9.1.8 4.1 1 5.6-.5.1-.1.2-1.9.4-2.3.8-1.7 1.5.2 1.7-.5.9-3.3 3.1-5.3 5.4-6.1 1.3-.5 1.9-1.6 2.7-2 .3.3.5.4.6.4.5 0 3.6 1.5 3.6 1.1-.2-4.1-1.6-3.6-1.2-3.8.9-.3 7.1-2.8 8.6-3.8 0 0 9 2.1 13.1-1.4.5-.5.3 1.6 1.4 3 1.2 1.5 5.1.9 5.6 2 .2.4-8.8 3.7-9.3 4.9-.5 1.1-1.2 2.2-1.3 2.8-.2.8-.6 3.1-.3 3.4.6.5 4.5-1.1 4.6-3.2 0-.1-.3-1.1-.4-1.1 0 0 .3-1 .3-1.4 0-.5 2.4.9 2.5.5.7-1.8 2.5-3.2 5.7-3.9 2.4-.5 4.1-1.6 3.8-2.7-.1-.5-3.6-1.8-3.5-2.9 4.9 2.9 6.4.9 8.5 2.1 4.1 2.5 3.7 9.1 3.1 10.8 0 .2 0 .6.1.6.1.3.1.6 0 .9-.2.5-1.6.8-2 1.1-.6.5-1.6 2.5-1.5 2.9.1.8 6.2.7 6.1-1.2 0-.1-.4-1.6-.2-1.9.3-.4.8-1 1.9-1.2.7-.2-2.2-7.9-2.6-10.3-.2-1.6-.3-3.6-.5-4-.2-.5-.6-1.3-1.6-1.1-1.7.2-4 .2-4.3-1.3-.3-1.2 1.2-2.6.8-5.8-.2-1.3-1.2-2.9-2.6-4.1.5.1 1 .2 1.4.3.6.2 1.2.4 1.6.8l.6.6c.2.2.3.4.4.7.2.5.3 1.1.3 1.6 0 .4 0 .8.1 1.2.1.4.2.8.5 1.2.2.4.5.7.9 1l.6.3c.2.1.4.1.6.2.3.1.6.1.9 0 .1.1.2.3.2.4.2.4.5.8.7 1.2.3.4.6.8.9 1.1.3.4.7.7 1.1 1.1.8.7 1.7 1.3 2.8 1.7 1.1.4 2.3.6 3.5.4 1.2-.2 2.3-.7 3.1-1.4.8-.7 1.4-1.6 1.8-2.6 1-1.9 1.1-3 .9-3.9zm-61.3 7.2c-.2.2-.5 0-1-.4-1.2-.9-3.3-3.8-2.4-4 .9-.3 2.8.9 4.2 1.7 1 .5 1.9.6 2 .6-.7.4-1.6.9-2.8 2.1zm45.4-8.5c-.2-.4-.3-.9-.3-1.5.1.1.1.2.2.3.1.2.3.5.4.8.1.3.3.5.4.8l.1.2.1.2c-.4-.1-.7-.4-.9-.8z" fill="#C16553"/><path d="M263 499.9s0-.1 0 0h-.1c-.2.8-.6 1.4-1.1 1.8-.5.4-1 .7-1.6.9-.5.1-1.1.2-1.6.1-.4-.1-.8-.3-1-.5h.5c.8-.1 1.6-.4 2.3-.8.3-.2.6-.5.8-.9.2-.3.4-.7.4-1.1 0-.2.1-.4.1-.6 0-.2 0-.4-.1-.5-.1-.3-.2-.6-.4-.9 0 0-.1 0-.1.1-.1.6-.3 1.2-.6 1.5-.3.4-.7.5-1.1.6-.4.1-.8 0-1.2-.1-.4-.1-.7-.3-1-.6-.1-.1-.2-.1-.2-.2.1.1.3.1.4.2.4.1.8.2 1.2.2.4 0 .8 0 1.2-.2.2-.1.4-.2.5-.3.1-.1.3-.3.3-.5h-.1c-.1.1-.2.2-.4.3-.2.1-.3.1-.4.1-.3 0-.6-.1-.9-.1-.6-.2-1.1-.5-1.5-.9-.1-.1-.2-.2-.2-.3-.1-.1-.1-.2-.2-.3-.1-.2-.1-.5-.1-.7 0-.3.1-.5.2-.8 0-.1.1-.3.2-.4 0-.1.1-.1.1-.2l.1-.1.1-.1c.4-.7.7-1.4.7-2.3.1-.8-.2-1.7-.6-2.4-.5-.7-1-1.2-1.7-1.6l-.6-.3c-.4-.7-.9-1.5-1.5-2.1-.7-.8-1.6-1.4-2.5-1.8-.9-.4-1.9-.7-2.8-.7-.9-.1-1.8 0-2.7.2-.4.1-.8.2-1.2.4-.1 0-.2.1-.3.1-1.8-1.2-4.1-2-6.4-1.8-1.3.1-6.1 1.2-7.4 1.2-2.3 0-3 .1-5.8-1.6-1.1-.6-2.6-.8-3-1.3-.1-.3-.2-.5-.3-.8h.2c.1 0 .2 0 .3.1h.4c.3.1.7.2 1.1.2.4 0 .8-.1 1.1-.2.4-.1.7-.4.9-.6l.4-.4c.1-.1.2-.3.3-.4.4-.6.5-1.3.5-1.9 0-.3-.1-.7-.2-1-.1-.2-.2-.3-.3-.4-.1-.1-.3-.2-.5-.2h-.1v.1c.2.2.3.4.3.7 0 .2 0 .5-.1.7-.2.5-.4.9-.7 1.3-.3.4-.7.6-1.1.8-.4.1-.8.1-1.2 0h-.1c.6-.5 1-1 1.3-1.6.5-.9.8-1.8.8-2.7 0-.9-.2-1.9-.7-2.6-.1-.2-.3-.4-.4-.5-.1-.2-.3-.3-.5-.4-.3-.2-.7-.4-1.1-.5v.1c.4.6.5 1.3.5 1.9-.1.6-.3 1.1-.5 1.5-.3.4-.6.8-1 1-.4.2-.7.4-1.1.4h-.8c.3-.3.7-.6.9-.9.2-.2.3-.4.4-.7.1-.2.2-.5.2-.8v-.8c-.1-.3-.2-.5-.3-.7-.2-.2-.4-.4-.6-.5-.2-.1-.4-.2-.6-.2h-.1v.1c.3.3.5.6.6.9v.4c0 .1-.1.3-.2.4-.2.3-.4.5-.6.7-.3.2-.6.3-.9.4-.3.1-.7.2-1 .2h.1c.4-.2.6-.4.8-.7.2-.3.3-.6.4-.9 0-.2.1-.3.1-.5v-.5c0-.2-.1-.3-.2-.4-.1-.1-.2-.3-.3-.3 0 0-.1 0 0 .1.1.2 0 .4-.1.6-.1.2-.2.4-.4.5-.1.1-.3.3-.4.3-.2.1-.3.1-.4.1-.1 0-.2 0-.3-.1-.1 0-.2-.1-.3-.2-.2-.2-.5-.5-.7-.9l-.1-.2c0-.1-.1-.1-.1-.2-.1-.1-.2-.2-.3-.4-.2-.2-.4-.5-.7-.7-.3-.2-.6-.4-.9-.5-.3-.1-.7-.2-1-.2-.4 0-.7.1-1 .2-.1 0-.2.1-.2.1.1-.3 0-.6 0-.9 0-.2-.1-.3-.2-.4-.1-.1-.2-.3-.3-.4-.1-.1-.2-.2-.4-.3-.1-.1-.3-.1-.4-.1v.1c.2.2.2.4.3.5v.3c0 .1 0 .2-.1.3-.1.2-.1.3-.2.4-.1.1-.2.2-.3.2h-.1c-.1 0-.2 0-.2-.1-.3-.1-.6-.1-.8-.1-.2-.1-.4-.1-.6-.2l-.2-.1c-.1 0-.1-.1-.2-.1s-.3-.1-.4-.1c-.3-.1-.6-.1-.9-.2-.6-.1-1.3 0-1.9.4-.6.3-1 .8-1.3 1.4-.1.2-.1.3-.2.5l-.1.1-.1-.1c-.3-.3-.5-.4-.8-.5-.1-.1-.3-.1-.5-.1h-.5c-.2 0-.3.1-.4.1l-.3.3s0 .1.1.1c.9-.1 1.5 1 1.3 1.2 0 .1-.1.1-.2.2l-.3.3c-.3.2-.6.4-1 .6l-.2.1c-.1 0-.1.1-.2.1-.1.1-.2.1-.4.2-.2.2-.5.3-.7.5-.2.2-.4.4-.6.7-.2.3-.3.6-.4.9 0 .1-.1.2-.1.4-.1-.2-.1-.4-.1-.7 0-.3-.1-.7-.1-1.1h-.1c-.1.2-.2.3-.3.5-.1.2-.2.3-.2.5-.1.4-.2.8-.2 1.2 0 .2 0 .4.1.7 0 .1 0 .1.1.2l-.1-.1c-.3-.2-.5-.6-.7-.9 0 0-.1 0-.1.1 0 .4 0 .9.2 1.3.1.2.2.4.4.6l.3.3c-.2 0-.4-.1-.6-.2-.3-.1-.6-.4-.9-.6h-.1s-.1 0 0 .1c.1.4.4.8.7 1.1.2.2.5.4.8.5-.1 0-.2.1-.3.1-.3.1-.7.1-1.1.1h-.1v.1c.5.4 1.1.5 1.8.4-.2.2-.4.4-.5.7-.1.2-.2.5-.2.7 0 .3.1.5.2.7.1.2.3.4.5.5.1 0 .2.1.4.1.1 0 .2-.1.3-.1l-.1-.1c-.2.1-.4 0-.5-.1-.1-.1-.3-.2-.3-.4-.1-.3-.1-.7.1-1 .2-.3.5-.5.8-.7 0 0 .1 0 .1-.1 0 .4.1.9.3 1.3.1.6.2 1.1.3 1.2.1.2.1.2.4.4.3.2 1.7 5.1 2.1 5.8.4.6 1.4.8 2.2.6.4-.1.8-.4 1-.7.4-.7.6-.6.8-1.1.3-.8-.3-1.8-.1-2.5.4-1.4 1-2.4 1-3.9 0-.7-.8-2-.8-2s5.4 1.4 3.9 7.2c-.1.6-.3 1.9-.4 2.7-.1 2.9.5 5.8.8 6.5-.7.6-4.5 2.3-5.4 2.4-1 .1-1.8.4-2.3 1.2-.4.7 0 1.2 0 2.3 0 1.2 2.2 3 3.7 5.3.1.1.3.2.5.3.7.4 1 .7 1.4.8.5.1.8.6 1.2.9.6.5 2.8 1.4 3.2 1.3.7-.3 0-4.1-1.8-5.1-.1-.1-1.8.3-2.2.2-1.7-.4-.2-1.3-.8-1.4-.4-.1-.6.1-1.1-.3-.5-.4-1.6-2.8-1-2.9.9-.3 5.9-.3 6-.3 1.8-.4 2-1 2.7-1 .9 1.1 1.2 2.7 1.7 4 .2.7.8 1.3.9 2.1.6 2.9.6 6.2.9 9.7-.2.2-.3.7-.3.7 0 1.2.3.7.1 1.2-.1.1-.1.2-.2.3-.3.2-.6.5-.9.6-1.5.8-2.2 3-2.2 3.1.1.8 4.4 1.1 5.4-.7.2-.3 0-2.2.2-2.5.8-1.7 1.2.2 1.4-.5.3-1.3-.6-2.3-.8-3.7-.3-1.5-.4-4.3-.2-6.2 0 0 .3-2.2.5-4.7.1-1.2.1-2.5.4-3.5 2.6.4 7.3.5 10.8-.4.8 2.6.3 3.2 1.7 4.4 4.2 3.5 2.4 5.1.3 11.4l-.3.3c-.7.9-1.3 1.1-1.5 1.6-.1.1-.1.2-.3.3-.3.2-.6.5-1 .6-1.6.8-2.3 3-2.3 3.1.1.8 4.7 1.1 5.8-.7.2-.3.2-1.9.4-2.3.8-1.7 2.1.3 2.3-.4.3-1.3.8-4.3.8-4.3.4-3.4 2.4-6.6 2.3-7.2-.1-.5-.7-2.3-.9-3.2-.5-1.6-.3-2.6.5-3.6 2.7 3.8 5.6 5.1 7.5 6.3 4.1 2.5 3.6 9.2 3 10.9 0 .2 0 .6.1.6 0 .1-.4.4-.9 1-.3.3-.6.8-.9 1.1-1.2.9-1.4 2.4-1.3 2.6.1.8 5.9.6 5.8-1.2 0-.1-.4-1.6-.2-1.9.3-.4.8-1 1.9-1.2.7-.2-2.1-8.1-2.5-10.5-.2-1.4-.6-1.8-.9-2.4-.2-.5-1-.2-1.6-1-1.6-2.1-.8-4.3-.2-7 .1.2.1.3.2.5s.2.4.4.6c.1.2.3.3.5.4.3.2.7.4 1.1.5v.5c0 .5.1.9.2 1.4.1.5.2.9.3 1.4.1.5.3.9.5 1.4.4.9.9 1.9 1.7 2.7.8.8 1.8 1.5 2.9 1.9 1.1.4 2.3.4 3.4.2 1.1-.3 2-.8 2.7-1.5.7-.7 1.3-1.6 1.5-2.5-.1-1.4-.2-2.4-.6-3.1zm-6.6-8.8v.8c0 .1-.1.3-.1.4 0-.4-.1-.8-.2-1.3s-.2-1-.4-1.5c.2.2.3.5.4.8.2.3.3.5.3.8zm-7.6-1c0 .5-.2 1.1-.4 1.6 0-.9-.1-1.9-.4-2.9-.2-.7-.5-1.3-1-2 .1.1.3.2.4.3.5.4.9.9 1.2 1.4.1.3.2.5.3.8-.1.3-.1.6-.1.8zm.5 4c0-.5.2-1.1.4-1.6l.3-.6v.3c0 .3.1.6.1.9V495.8c-.1-.1-.2-.1-.3-.2-.3-.5-.5-1-.5-1.5z" fill="#C16553"/><path d="M281.7 540.3v-11.9h-1.8c-.3-1.1-.8-2.2-1.5-3.1-1.4-1.8-3.5-2.3-5.5-3-.2-.1-.5-.2-.7-.2h-.1-.1c-.1-.1-.2-.1-.3-.2-.5-.2-1-.5-1.4-.8l-.2-.1-.2-.2-.5-.5c-.2-.2-.3-.3-.4-.5l-.1-.1c-.1-.1-.2-.2-.3-.4-.3-.4-.5-.8-.7-1.2l-.1-.2c0-.1-.1-.2-.1-.3-.1-.3-.2-.6-.3-.8-.3-1-.6-1.9-1.1-2.8-.8-1.7-2.3-2.7-3.8-3.6-2.2-1.2-4.5-2.2-6.9-3-4.7-1.6-9.7-2.3-14.6-2.5-4.9-.3-9.9 0-14.8.4-2.4.2-4.8.5-7.2.7-2.6.3-5.2.3-7.8.8-2.1.4-4.4 1.1-5.4 3.3-.7 1.7-.5 3.6-1.2 5.3-.3.9-1 2-1.6 3-.3.5-.6.9-.9 1.2-.4.5-.8.9-1.2 1.4l-1.2 1.2-.6.6c-.1.1-.2.1-.3.2l-.1.1c-.6.4-1.2.7-1.8.9-1.3.6-2.7 1.1-3.9 1.8-1 .6-2.4 1.4-2.6 2.7h-1.5v11.9h-3v28.3h98.8v-28.3h-3v-.1z" fill="#C16553"/><path d="M276.7 508.5c.2-1 .1-2.1-.3-3-.4-.9-.9-1.7-1.7-2.2h-.1l-.1.1c.4 1.7-.2 3.1-.9 4.1-.4.5-.8.9-1.3 1.1-.4.2-.7.2-1 .2.2-.2.5-.4.7-.5.6-.6 1.1-1.4 1.3-2.2.1-.4.1-.8.1-1.3 0-.4-.1-.8-.3-1.2-.3-.7-.9-1.3-1.5-1.6h-.1s-.1.1 0 .1c.2.6.3 1.2.2 1.7-.1.5-.3.9-.6 1.3-.3.3-.7.6-1 .7-.4.1-.8.2-1.1.1-.1 0-.2 0-.4-.1.1 0 .3 0 .4-.1.4-.1.8-.3 1.2-.5.3-.2.7-.5.9-.9.1-.2.2-.4.2-.6 0-.2 0-.4-.1-.6h-.1c0 .2-.1.3-.2.5l-.3.3c-.3.2-.6.3-.9.4-.6.2-1.3.2-1.8.1-.5-.2-.9-.5-1.1-1-.2-.5-.3-1.1-.4-1.8 0-.8-.2-1.7-.6-2.5-.4-.8-1-1.5-1.8-1.9-.8-.4-1.6-.6-2.4-.6-.2 0-.5 0-.7.1-.6-.3-1.3-.6-2-.9-1.1-.3-2.3-.5-3.4-.4-1.1.1-2.2.5-3.1 1-.9.5-1.7 1.1-2.3 1.8-2.8-2.5-7.6-2.4-11.8-2-3.7.3-4.4.3-7.4-.8.2 0 .5 0 .7-.1.7-.2 1.3-.5 1.8-1 .2-.2.4-.5.6-.9.1-.2.1-.4.1-.5 0-.2-.1-.3-.2-.5h-.1s-.1 0-.1.1c0 .3-.1.5-.3.7-.2.2-.4.3-.6.4-.4.2-.9.3-1.4.3-.5 0-.9-.1-1.2-.3-.2-.1-.3-.2-.5-.4.4 0 .9-.1 1.3-.2 1-.2 1.9-.7 2.6-1.3.7-.6 1.2-1.5 1.4-2.4 0-.2.1-.5.1-.7 0-.2 0-.4-.1-.6-.1-.4-.3-.8-.5-1.1 0 0-.1 0-.1.1-.1.4-.2.7-.4.9l-.3.3-.3.3c-.4.3-.9.4-1.4.4-.5 0-.9 0-1.3-.2-.3-.1-.6-.3-.8-.5h.4c.3 0 .5-.1.7-.2.2-.1.5-.2.7-.4.2-.2.4-.3.6-.6.2-.2.3-.5.3-.8 0-.3 0-.5-.1-.8-.1-.2-.2-.4-.4-.6h-.1s-.1 0-.1.1v.6c0 .2-.1.3-.2.4-.1.1-.2.2-.3.2-.1.1-.3.1-.4.1-.3 0-.6 0-.9-.1l-.9-.3s-.1 0-.1-.1h.2l.9-.3c.1-.1.3-.2.4-.3.1-.1.2-.2.3-.4.1-.1.2-.3.2-.4v-.5h-.1c-.1.1-.1.2-.2.2s-.2.1-.3.1c-.2 0-.4.1-.6 0-.4 0-.7-.2-.8-.3-.1-.1-.1-.2-.1-.2v-.3c0-.2 0-.6.1-1v-.2-.2-.5c0-.3 0-.6-.1-1-.1-.3-.2-.7-.4-1-.2-.3-.4-.6-.7-.8-.3-.2-.6-.4-.9-.5l.4-.4c.1-.1.2-.3.2-.4 0-.2.1-.3.1-.5s0-.3-.1-.5c-.1-.1-.2-.3-.3-.3 0 0-.1 0-.1.1 0 .2-.1.4-.2.5l-.2.2c-.1.1-.2.1-.2.1-.1 0-.1 0-.2.1-.2-.3-.4-.6-.6-.8-.3-.4-.6-.7-1-1-.2-.4-.5-.8-.8-1.1-.4-.5-1-.8-1.6-1-.6-.2-1.3-.1-1.8.1-.2 0-.4-.1-.6-.1 0-.3-.1-.5-.3-.7-.1-.1-.2-.3-.3-.4-.1-.1-.2-.2-.4-.3-.3-.2-.6-.2-.9-.1v.1c.2.2.3.3.3.5 0 .1 0 .2.1.3v.3c0 .1 0 .2-.1.3-.2 0-.4 0-.6.1h-.1c-.3-.1-.7-.2-1-.3l-.2-.1c-.1 0-.1 0-.2-.1-.1 0-.3-.1-.4-.1-.3-.1-.5-.1-.8-.1-.6 0-1.2 0-1.8.3-.1 0-.1.1-.2.1 0 0 .1-.1.1-.2.2-.3.4-.5.6-.8 0 0 0-.1-.1-.1-.2 0-.4 0-.6.1-.2 0-.4.1-.5.2-.4.2-.7.4-1 .7-.1.1-.3.3-.3.5 0-.3 0-.6.1-1v-.1h-.1c-.3.3-.6.6-.7 1.1-.1.2-.1.5-.1.7v.1c-.1-.1-.2-.2-.2-.3-.2-.3-.3-.7-.3-1v-.1h-.1c-.2.4-.3.8-.2 1.3 0 .2.1.4.2.7-.4-.2-.7-.4-1.1-.7h-.1s-.1 0-.1.1c.1.5.4 1 .9 1.4-.2 0-.4 0-.6.1-.2.1-.5.2-.6.4-.2.2-.3.4-.4.7 0 .2 0 .5.1.7.1.1.1.2.2.3.1.1.2.1.3.1v-.1c-.2-.1-.3-.2-.3-.4v-.5c.1-.3.4-.5.7-.5.3-.1.7 0 1.1.1.2.1.3.1.5.2-.7.6-1.7 1.7-1.9 1.9-.1.2-.2.2-.2.6 0 .4-3.7 4-4 4.8-.3.8.1 1.8.8 2.3.3.3.8.5 1.2.5.8-.1.9.2 1.5.1.9-.2 1.4-1.4 2.3-1.6 3.5-1 3.1-1.4 3.4-1.5 3 1.2 1.4 10.3.2 12.9-.5 1.2-1 2.7-1.2 4-1.3.2-2.9.5-3.6.6-1.1.1-1.5.4-2.8.8-1.4.4-2.7 3.7-4.9 6.4-.1.1-.1.4-.1.7-.2 1-.5 1.4-.4 2 .1.6-.3 1.2-.6 1.8-.3.9-.1 3 .2 3.3.7.8 4.1-1.4 4.5-3.9 0-.1-.8-1.5-.9-2-.3-2.2 1.8-.9 1.3-1.4-.4-.4-.8-.3-.2-1.4.3-.6 2.1-2 2.9-2 .1.1.7 0 1 0-.1.1-.4.5-.5.6-.7 1.6-2.3 6.6-2.3 6.6-.1.8-.5 2.8 1.4 4.4.5.4 1.3 1.4 1.7 1.9.2.2.6.6 1 .5.6-.2.1.6.7.7.7.1.2.4.8.8.8.6 3 1.3 3.4 1.1 1-.3.7-4.4-1.7-5.8-.1-.1-.5 0-.6.1 0 0-1.3.8-1.7.1-.2-.5-.7-.9-.1-1.7-.9-1-1.9-.7-1.4-2.8.4-1.8 2.1-4.1 2.6-4.3 1-.5 2.4.2 4.2-.2 2.8 1.8 10.2 5.7 17.6 2.9-.1.7.1 1.5.3 2.2.3 1.5 1.1 4.4.6 5.6-.2.4-8.5 3.6-8.8 3.9-.9.8-.7.9-1.1 1.3-.3.5-1.1.5-1.6.7-.8.4-2.1 1.9-2.2 2.3-.1.9 4.2 1.9 6 .6.1-.1.2-.4.1-.5 0 0-.2-1.1.1-1.4.4-.4 1.6 1.1 1.9.5 1-2.4 5.4-3.7 7.6-4.6-.4.3-.7.7-1.1.9-.1.1-.2.3-.2.6-.4.8-.8 1.2-.8 1.7-.1.6-.6 1-.9 1.5-.5.7-1.4 3.5-1.2 3.8.4.8 4.7-.2 5.6-2.3 0-.1-.4-2.1-.4-2.6 0-.9.4-.9.5-1 .4-.2 1 .7 1 .2 0-.4-.2-.8.1-1.2.3-.4 2.1-1.3 3-2 1.5-.9 3.9-1.8 4.3-2.2.4-.4.4-1.3-.1-2.2-.9-1.7.3-4.4 1.9-5.1.8-.4 4.6-3.6 4.1-8-.1-.7-.2-1.7-.8-2.7.6 0 1.1.1 1.7.2.7.1 1.3.4 1.8.7 1 .7 1.4 1.9 1.6 3.2.1.8.3 1.6.8 2.4.3.4.6.8 1 1 .2.1.4.2.7.3.2.1.5.1.7.1.4 0 .7 0 1-.1.3.5.7 1 1.1 1.5.6.8 1.4 1.5 2.3 2.2.4.3.9.7 1.5.9.3.1.5.3.8.4l.9.3c.6.2 1.3.3 2 .3s1.4-.1 2-.3c.6-.2 1.2-.5 1.7-.9s.9-.8 1.3-1.3c1.2-.7 1.7-1.7 1.8-2.8zm-34.5 8.9c-.8.1-1.8 1.1-3 2.3 0-.4-.1-.9-.1-1.2.1-.9.2-1.3.5-2.2.3-.7.9-1.6 1.6-2.4.5 1.4 1.1 2.4 1.1 3 0 .1-.1.3-.1.5zm22.2-18.1c-.4-.4-.7-.8-1.1-1.2.1.1.3.2.4.3.3.2.5.5.7.9zm-4.5 6.8c-.3-.5-.4-1.1-.5-1.8v-.1c.3.4.5.8.8 1.3.2.3.3.6.5.9l.3.6.1.1c-.6-.2-.9-.5-1.2-1zM171.3 549.8v-4.9h-67.2c-13.7-9.4-28.2-17.2-43.2-23.3-27.9-11.4-57.6-17.1-87.1-17.1-28.7 0-57.3 5.4-84.2 16.2-15.6 6.3-30.5 14.3-44.5 24.2h-66.3v4.9h59.6c-1.1.8-2.2 1.7-3.2 2.5h-56.4v16.3h5.2V555h5.9v13.7h5.2V555h5.9v13.7h5.2V555h5.9v13.7h15.4c5.3-4.9 10.8-9.4 16.4-13.7h31.6v5.4h4.3V555h17.4v5.4h4.3V555h17.4v5.4h4.3V555h17.4v5.4h4.3V555h17.4v5.4h4.3V555H-16v5.4h4.3V555H5.7v5.4H10V555h17v5.4h4.3V555h17.4v5.4H53V555h17.4v5.4h4.3V555h30.8c5.8 4.2 11.5 8.8 17 13.7h15.7V555h5.9v13.7h5.2V555h5.9v13.7h5.2V555h5.9v13.7h5.2v-16.3h-57c-1.1-.8-2.2-1.7-3.3-2.5h60.1v-.1zm-98.1-4.9v-9.5c5.8 2.9 11.6 6.1 17.2 9.5H73.2zm-1.5-10.2v10.2H51.6V526c2.2.8 4.3 1.7 6.5 2.5 4.5 1.9 9.1 4 13.6 6.2zm-85.1 10.2v-32.6c6.7.4 13.5 1.1 20.1 2.1v30.5h-20.1zm21.7 0v-30.2c6.8 1.1 13.5 2.4 20.1 4.1v26.1H8.3zm21.6 0v-25.7c6.8 1.8 13.5 3.9 20.1 6.3V545H29.9v-.1zm-44.8-32.6V545H-35v-32.8c2.9-.1 5.8-.2 8.8-.2 3.7 0 7.5.1 11.3.3zm-85 32.6v-20.2c6.6-2.4 13.3-4.4 20.1-6.1v26.3h-20.1zm21.6 0v-26.7c6.7-1.6 13.4-2.9 20.1-3.9v30.6h-20.1zm21.6 0v-30.8c6.7-.9 13.4-1.6 20.1-1.9v32.7h-20.1zm-51-17.2l6.3-2.4V545h-20.1v-11.1c4.5-2.3 9.1-4.4 13.8-6.2zm-15.4 6.9v10.3h-18.4c6-3.8 12.2-7.2 18.4-10.3zm-59.6 33.5V555h14.6c-5 4.1-9.9 8.5-14.6 13.1zm30.3-15.8c1.2-.8 2.4-1.7 3.6-2.5h24.4v2.5h-28zm32.2 0v-2.5h17.4v2.5h-17.4zm21.7 0v-2.5h17.4v2.5h-17.4zm21.6 0v-2.5h17.4v2.5h-17.4zm21.6 0v-2.5h17.4v2.5h-17.4zm21.7 0v-2.5h17.4v2.5h-17.4zm21.6 0v-2.5H5.4v2.5H-12zm21.6 0v-2.5H27v2.5H9.6zm21.7 0v-2.5h17.4v2.5H31.3zm21.6 0v-2.5h17.4v2.5H52.9zm79.9 2.7v13.2c-4.9-4.6-10-9-15.2-13.2h15.2zm-31.2-2.7H74.5v-2.5h23.4c1.3.8 2.5 1.6 3.7 2.5z" fill="#C16553"/><path d="M928 392.6v-43.8h-3v-9.7h-7.5L906 314.7l-1.9 4.8-7.8-27.2-9.3 15.4-9.3-15.4-7.8 27.2-1.8-4.8-11.5 24.4h-6.8v9.7h-5.2v43.8h-6.5v176h97.3v-176H928z" fill="#AF574B"/><path d="M577.2 568.6c-3.4-8.5-33.4-24.3-33.4-24.3h19v-5.8l-16.3-.8.1-3h9.4v-6.6h-9.2l.4-1.5 8.8-1.6-76.6-18.8-12.1 10.3-27.2-20.3h-8.2v-17.7h-2.2v14.8h-3.4v2.9H424v-2.9h-1.4v-22.6h-2.2v22.6H341l-2.2 17.7-9.6 16.1-.2 6.5-.2 17.3-2.2.2v17.7h250.6v-.2zM796.4 509.7v-1.5h-2v-4.1h-1.6V500l-22.6-10.5-22.6 10.5v4.1h-10.3v-5.4h-1.9v-2.6L706 482.4l-29.5 13.7v2.6h-1.9v5.4h-10.3V500l-22.6-10.5-22.6 10.5v4.1h-1.6v4.1h-2v1.5h2v32h-2v1.5h2v4.8h-2v1.5h2v19.1h176.9v-19.1h2V548h-2v-4.8h2v-1.5h-2v-32h2zM1585.3 446.2c.2-.3.5-.6.8-.9-.3-.2-.6-.4-.3-.5.1 0 .2 0 .3-.1-.4-.2-.8-.4-.5-.5.3-.1.6-.2 1-.3-.3-.2-.6-.4-.3-.4 1.3-.4 2.5-.7 3.8-1.1.2-.2.4-.3.6-.5-.3 0-.9-.3-.9-.5-.3-.1-.8-.4-.5-.5.5-.3 1-.5 1.4-.6.3-.4.5-.7.9-1-.3-.1-.8-.3-.7-.6.5-1.8 2.1-3 3.5-3.9.2-.2.5-.5.7-.8.2-.2.6-.5.9-.8-.6-.2-1.2-.4-1.7-.8-.3-.2-.2-.5.1-.6-.3-.1-.4-.4-.2-.5-1.6.3-3.2.3-4.9.3-.3 0-1.3-.7-.6-.8.2 0 .3 0 .5-.1-.4-.1-1.2-.5-.6-.7-.2 0-.3-.1-.5-.1s-.8-.5-.4-.6c.7-.2 1.3-.4 2-.5v-.3c-.2-.1-.5-.4-.3-.5.3-.2.6-.4 1-.5.3-.3.7-.5 1-.7-.1-.1-.1-.3.1-.4.5-.3 1-.3 1.5-.2.4-.1.7-.2 1-.2h.5c.1-.1.4-.2.6-.1.1.1.3.1.4.2 1.2.2 2.3.7 3.3 1.5.1 0 .2.1.3.1.3.1.3.2.3.4.1.1.1.1.2.1 0-.7 0-1.4.2-2v-.2c-.3-.6-.5-1.2-.6-1.9-.1-.1-.3-.2-.4-.2-.2-.1-.3-.2-.4-.3-.8.1-1.5 0-2.2-.2-.2-.1-.4-.2-.6-.4-.5 0-1.9-.9-1.1-1.3.6-.3 1.2-.5 1.8-.7-1 0-2-.1-2.7-.3-.4-.1-1.2-.8-.6-1.2.5-.3 1-.5 1.5-.8v-.2c-.5-.3-.9-.8-.5-1.1-.5-.2-1.1-.8-.5-1.2 1.6-1 3.5-1.5 5.4-1.5-.1 0-.2-.1-.3-.1-.9 0-1.8-.1-2.8-.3-.2-.1-1.1-.5-.4-.6.8-.2 1.7.1 2.6.3h.5c.1-.1.2-.1.4 0h.2c.8 0 1.6 0 2.3.1.5.1.9.1 1.4.3.6 0 1.2 0 1.7.1.7.1 1.4.3 2.1.6-.1-.5-.2-.9-.3-1.4-.1-.3.5-.2.6 0l.3.9c.1-.2.1-.5.2-.7v-1.1c0-.2.3-.3.4-.2h.1v-.2c0-.1.2-.1.3-.1v-.5c0-.2.3-.2.5-.2 0-.1.1-.2.1-.3.1-.3.6-.1.6.2v.1c.1-.1.1-.3.2-.5s.5-.1.9.1c.3-.7.5-1.3.8-1.9.1-.2.6-.1.9.1.1-.2.3-.4.4-.6.2-.2 1.2.1 1.2.4 0 .7-.2 1.5-.4 2.2.2.1.2.2.2.3l-.3.9c.1 0 .1.1.1.1.2-.2 1.2.1 1.2.4v.1h.1c.2-.3.5-.6.8-.9.1-.1.6 0 .9.1.1-.1.2-.3.3-.4.5-1.4 1.1-2.8 1.9-4 .2-.2 1.3.1 1.2.4l-.9 3c.1-.2.2-.3.4-.4.2-.2 1.3.3 1.2.5-.5.9-1.1 1.7-1.7 2.5l.1.1c.2-.1.3-.2.5-.3.2-.1.5.1.5.3 0 .2-.1.4-.2.6h.3c2.8-1.3 5.5-2.4 8.5-3.3.3-.1 2 .3 1.7.8-.1.4-.3.6-.6.9.7.1 1.6.6 1.3.8-.2.1-.4.3-.6.4.1 0 .2.1.2.1.8.2 1.5.6 2.1 1 .4.3.4.5.3.6.8.5 1.6 1 2.5 1.5.7.4.2.8-.4.7l.4.4c.3.3-.1.4-.6.3.2.3.4.6.5.9.2.4-.4.3-.9.2.1.3-.5.3-.6.3-.9-.1-1.6-.4-2.3-.8-.1 0-.1 0-.2.1h.1c.4.3.1.5-.2.6l.1.1c.3.3.2.5 0 .5.3.4-.5.3-1.1.2 0 .1.1.2.1.4v.2c1.6.2 3 .8 4.3 1.9.3.3.2.5 0 .6.1.1.2.1.3.2l2.1.3c.5.1 2.1 1.1.8 1.1l-1.2-.1c-.1 0-.2 0-.4-.1-.1.2-.3.4-.6.3-.5-.1-1-.3-1.5-.4 0 .2-.6.3-.8.2h-.2c.4.5.8 1 1 1.5.2.4-.2.5-.5.5.3.5.4 1 .3 1.5 0 .1 0 .1-.1.2 0 0 .1 0 .1.1.5.2.9.4 1.4.6l.1.1.1.1c.1.1.3.2.4.3 1.2.5 2.2 1.2 3.1 2.1.6.5-.2.9-.7.6-.1-.1-.2-.1-.3-.2v.1c.1.4-.2.5-.5.5-.1 0-.2 0-.3-.1-.1.2-.3.3-.6.3-.2-.1-.5-.1-.7-.2 0 .2.1.4.1.6.1.5-.7.4-.9.3 0 0-.1-.1-.2-.1h-.2v.2c0 .3-.2.4-.4.4h-.1c0 .3 0 .6.1.9.2.1.4.2.6.4.3.1.5.2.6.3.2.2.3.3.5.4.2.2.5.4.6.6.2.3.2.4.1.5.1.2.3.4.4.5.2.3.1.5-.1.6.6.7 1.1 1.4 1.4 2.3.1.3 0 .5-.2.5.1.1.1.3.2.5.1.4-.1.5-.5.6 0 .3-.1.6-.2.9 0 .6-.1 1.1-.5 1.5-.1.3-.1.7-.2 1-.2.6-1.2.3-1.4-.2v-.1c0 .1-.1.2-.3.2 0 .5-.9.2-1.1 0-.6-.7-.9-1.6-1.1-2.5 0-.1-.1-.2-.1-.3-.1-.1-.2-.1-.3-.2.1.4.1.7 0 .9.1.3.2.5.2.8 0 .1-.1.2-.2.2-.3 0-.6 0-.9-.1 0 .1 0 .1-.1.2.4.9.7 1.8.8 2.8 0 .3-.5.3-.7.2-.1 0-.2-.1-.2-.1.3 1 .6 1.9.4 3-.1.5-1 0-1.2-.2-.1-.1-.1-.1-.1-.2.1.3.1.7.1 1 .1.2.1.3.1.5 0 .1-.1.2-.1.3v.2c0 .1-.1.2-.2.2-.1.1-.2.3-.3.4-.1 1.3-.6 2.7-1 3.8 0 .2-.3.2-.5.1 0 .9-.1 1.8-.2 2.7-.1 1.2-.1 2.6-.9 3.5-.1.1-.4.1-.6 0-.1.7-.2 1.4-.4 2.1-.1.3-1.1-.1-1.2-.3-.4-1.3-.4-2.7-.2-4 0-.1.1-.1.1-.1 0-.6-.1-1.2-.2-1.8-.2-.1-.4-.2-.4-.3-.3-1-.4-2.1-.5-3.2-.2-.1-.3-.2-.3-.2-.3-.3-.4-.7-.5-1.1-.2 0-.6-.1-.8-.2 0 .1-.1.2-.1.3-.2.3-1.3-.1-1.2-.4.1-.6.2-1.2.4-1.8-.1-.1-.2-.2-.2-.3 0-.2 0-.4.1-.6-.3-.1-.5-.2-.6-.4v-.1c-.3-.1-.5-.2-.5-.4-.1-.4-.1-.7-.1-1.1h-.1c-.1.4-.4.7-.7 1-.1.1-.4.1-.6 0-.1.4-.1.8-.1 1.2 0 .2-.5.1-1 0-.3.1-1.1-.1-1.5-.4.4.5.9 1 1.3 1.5.9 1.1 2.1 2.7 2.1 4.3.5.8 1 1.7.9 2.6 0 .4-.4.5-.7.3-.5-.2-1-.5-1.4-.8-.1.1-.2.2-.3.2h-.1c0 .1.1.1.1.2.1.1 0 .2 0 .3 0 .2.1.3.1.5 0 .1 0 .2-.1.3.1.1.2.3.3.4.4.7-.6.7-.9.4l-.1-.1c.2.5.5 1 .7 1.5.2.4-.2.5-.5.4.1.1.1.3.2.4.2.4-.2.5-.6.4.5.7.8 1.5 1.1 2.2.2.6-.6.6-.8.4-1.3-.7-2.3-2.3-3.1-3.5-.4-.6-1-1.7-1.1-2.6-.1-.1-.2-.3-.3-.4-.5 9.7-1.3 28.5-2.2 48-.5 12.5-1 25.3-1.4 36.2-.4 10.5-.6 19.3-.7 24.5l-2-.1c.1-5.7.3-15.3.8-26.8 1-26.8 2.6-63.3 3.4-80-.2.7-.3 1.3-.6 2-.1.2-1.1-.1-1.2-.4-.2.4-.4.7-.7 1-.2.2-1.3-.2-1.2-.4.1-.3.2-.6.4-.9-.3.4-.7.9-1 1.3-.2.2-1.2-.2-1.2-.4.1-.4.4-.8.6-1.1-.2-.1-.4-.2-.4-.3l.9-1.2c-.1 0-.2-.1-.3-.1-.3.5-.6 1-.9 1.4 0 .1-.1.1-.2.1-.2.6-.5 1.1-.9 1.6h-.1c-.1.1-.7 0-1-.2-.1.3-.3.6-.5.9-.1.2-1.3-.2-1.2-.4 0-.1.1-.2.1-.2-.3-.1-.6-.2-.6-.4v-.1c-.3-.1-.5-.3-.5-.4.3-.6.5-1.3.7-1.9.1-.3.1-.5.2-.7-.5.2-.9.4-1.4.5-.3.1-1.2-.4-1.1-.5.6-.3 1.2-.5 1.8-.8-.1-.1-.3-.2-.2-.2.5-.3 1-.5 1.5-.7-.4-.1-.9-.3-.7-.4.2-.2.4-.3.6-.4-.2-.1-.4-.2-.4-.3.5-.7 1-1.4 1.7-2-.1 0-1.2-.3-.9-.5.7-.7 1.5-1.2 2.2-1.8 0-.3 0-.6.1-.9-.2-.1-.2-.2-.2-.2.2-.3.4-.5.6-.7.3-.5.7-1 1.1-1.5.1-.6.2-1.2.3-1.7 0-.3.1-.8-.1-1.2l-.1-.1h-.2c-.2 0-.4.1-.6.1 0 .4.1.8.1 1.2 0 0-.1.1-.3.1v.3c0 .1-.2.1-.5.1v.8c0 .2-.3.1-.7 0v.3c.1.1.2.1.2.2v.1c.2.1.4.3.4.4-.1.2-.1.2-.3.4 0 .1-.1.1-.2.1-.2.2-1.8-.3-1.9-.6 0-.1-.1-.2-.1-.3-.1.1-.4.1-.6 0-.2 1.9-.4 3.7-1 5.5-.2.6-1.3.2-1.2-.4v-.1c-.2.4-.3.8-.5 1.2-.2.4-.8.3-1.1 0v.1c-.3 1.5-.7 3-1.4 4.3-.2.5-1.2.3-1.2-.3v-.6c-.4.1-1-.2-.9-.7.2-.7.3-1.4.5-2.1-.4.3-1.3-.2-1-.7.4-.6.7-1.3 1.1-1.9-.1-.1-.2-.2-.1-.4v-.1l-.1.1c-.3.2-.8 0-1-.2-.4 0-1.2-.3-.8-.8l.6-.6c-.3-.2-.7-.5-.3-.8.3-.2.7-.5 1-.7 0-.1.1-.2.3-.3h.1c-.1-.1-.1-.3.1-.5-.3-.2-.5-.5-.2-.7-.3-.1-.7-.2-.8-.4-.1 0-.2 0-.2.1-.2.1-1.4-.3-1-.6.5-.4 1.1-.8 1.7-1.1 0 0-.1 0-.1-.1-.7.1-1.6.4-2.1.5-.2 0-1.1-.4-.8-.7.2-.2.4-.3.6-.4-.3-.1-.5-.3-.3-.5.5-.4 1.3-.8 1.9-1.4-1.1.5-2.2.9-3.2 1.4-.2.1-.6 0-.9-.2-1.2.3-2.4.5-3.7.2-.1-.6-.6-.8-.4-1.1z" fill="#C16553"/><path d="M1548.8 374c.2-.2.5-.3.7-.5-.5.5-1.1 1-1.3 1.8-.1.3.6.4.7.3.2-.1.3-.2.5-.2-.1.1-.1.2-.2.3-.2.3.5.4.7.3.3-.2.6-.3.9-.4-.4.4-.8.7-1.2 1.1-.3.3.5.4.6.4l.9-.3c.1.2.4.2.5.2.5-.1 1-.2 1.6-.3-.2.2-.5.3-.8.5-.3.2.3.4.5.4.5-.1.9-.2 1.4-.2-.3.2-.6.3-.9.5-.3.2.3.4.5.4 1.1-.1 2.3-.5 3.4-.6l-1.2.6c-.3.1.1.4.4.4-.5.2-.9.4-1.4.6-.8.3-1.8.5-2.1 1.4-.1.2.5.3.6.3h.1c-.8.5-1.6 1.2-2.3 2.2-.1.2.2.3.4.3-.6.5-1.2 1-1.4 1.9-.1.2.5.3.5.3h.1c-.5.5-.9 1.1-1.1 1.8-.1.2.6.3.7.2 1.1-.5 2.2-1.2 3.2-1.8.1-.1.2-.1.3-.2-.1.2-.2.4-.2.6-.1.2.6.3.8.2.4-.4.8-.7 1.3-1.1.5-.3 1-.6 1.4-1 .1.1.3.1.4.1.5-.2 1-.4 1.5-.7-.4.3-.7.5-1.1.8-.2.2.6.3.7.3.3-.1.7-.2 1-.3-.1.1-.3.2-.4.3-.2.1.6.3.6.3.4 0 .8-.1 1.2-.1h.4c-2.3 2-5.3 3.2-5.9 6.6 0 .2.5.3.7.3-.2.3-.3.5-.4.8-.1.2.6.3.7.3-.1 1.5-.8 2.8-.9 4.3 0 .2.6.3.8.2.3-.3.5-.6.7-.9.1 0 .1.1.2.1-.1.5-.2.9-.2 1.4 0 .3.6.4.8.2.2-.2.4-.5.6-.8-.2.8-.3 1.7-.4 2.6 0 .2.7.4.8.2.4-1.3.5-2.6.7-3.9 0-.1 0-.2.1-.3-.1 1.3-.1 2.5 0 3.8 0 .2.8.4.8.2 0-.4.1-.8.1-1.2.1.2.1.3.1.4.1.2.8.3.8.1v-1.1l.3.9c.1.2.8.3.8.1-.2-.8-.4-1.5-.6-2.3.2.5.4 1 .7 1.4.1.2.8.4.8.1-.1-.6-.4-1.1-.6-1.7.3.4.6.9.9 1.4.1.2.9.4.8.1-.2-.7-.4-1.3-.6-1.9 0 0 .1 0 .1-.1 0 0 .1 0 .1-.1.2.3.3.5.5.8 0 .1.3.2.5.2-.2.8-.2 1.7-.1 2.8 0 .2.7.4.8.2 0-.2.1-.4.1-.6.1-.7.2-1.4.3-2.2.3.1.6.1.6 0-.1-.1-.1-.2-.1-.3.1 0 .3 0 .3-.1 0-.5-.1-1-.2-1.6.1-.1.3-.3.5-.4.2.2.3.4.5.7.1.1.8.3.7.1 0-.5-.2-.9-.3-1.4h.1c0 .1.1.2.1.4l.1.1c.3 1.2.3 2.4.3 3.6 0 .2.2.3.3.3-.1 0-.2.1-.2.3.3 1 .4 2.1.4 3.1 0 .3-.1.7-.1 1 0 .2.2.3.3.4 0 .8-.1 1.7-.2 2.5-.2 1.3-.3 2.5.1 3.7.1.3.5.3.7.2.2-.2.4-.3.5-.5.1.6.1 1.1.2 1.7 0 .3.6.4.8.2.1-.1.2-.2.2-.4.2 19.8.9 75.9 1.8 116.2.4 16.6.8 30.5 1.1 38.2.1 1.1.1 2.1.2 2.9l2.8-.2c-.1-.8-.1-1.8-.2-2.9-.4-7.1-.7-19.8-1.1-35-.3-15.2-.7-33-.9-50.2-.5-30.2-.8-59.1-.9-70.8.2.6.3 1.1.5 1.7 0 .1.3.2.4.1.3-.4.6-.9.9-1.5v.2c0 .1.3.2.4.1.4-.8.5-1.5.5-2.4v-.8l.3-.9c.1.6.2 1.3.4 1.9.1.4.7.4.8.1.7-1.8.6-3.7.6-5.6.3.8.4 1.7.4 2.6 0 .3.7.5.8.1.9-4.8 1.9-8.8-1-13.1-.6-1-1.5-1.8-2.2-2.6-.5-.5-.9-.9-1.3-1.5.7-.2 1.2-.1 1.7.3 1.6 1.1 3.2 2.4 4.4 4 .3.8.4 1.6.6 2.4 0 .2.1.4.1.5.1.3.6.4.8.2l.3 2.1c.1.2.3.3.5.3 0 .5.1.9.3 1.4.1.3.7.5.8.1.1-.3.1-.7.1-1 .1.5.2.9.4 1.3.1.3.7.5.8.1.1-.3.2-.7.3-1v.3c.1.3.6.5.7.2.5-1 .4-1.9.4-2.9l.1-.1c.1.3.2.5.3.8.1.2.6.4.7.1.4-.9.5-1.8.5-2.7.2.1.3.1.4-.1.2-.5.4-1 .5-1.5l.3-.3c.1.1.1.2.2.4.1.3.7.3.8 0 .9-3 .3-6.2-1.5-8.6.2.1.3.3.5.4.1.1.8.3.7-.1-.1-.4-.2-.7-.3-1.1l2.1 1.5c.1.1.7.2.6-.2-.1-.4-.2-.7-.3-1.1.7.5 1.2 1.2 1.6 2.1.1.2.8.3.8 0-.2-.9-.4-2-1-2.8-.3-.4-.3-.5-.6-.7l1.4.5c.2.2.9.2.7-.2-1.7-2.6-4.5-4.8-7.5-4.8-.3-1-1-1.6-1.8-2 .1 0 .2 0 .2-.1.3-.7.7-1 1.3-1 .1 0 .3-.1.2-.2-.2-.3-.4-.6-.6-.8.2.1.4.1.6.1.3.1.7.2 1 .2h.2c.4.3.9.5 1.4.7.1 0 .6.1.5-.1-.1-.2-.1-.3-.1-.5.2.2.5.4.7.7.1.1.8.3.7 0 0-.1-.1-.2-.1-.3.4.3.9.5 1.4.7.1.1.6.1.5-.1 0-.1-.1-.2-.1-.3.5.1 1 .2 1.5.4.1 0 .7.1.5-.1-.3-.6-.9-1.9-1.6-2 .8.1 1.5-.1 2.3-.3.1 0 .2-.1.1-.2-.7-.9-1.7-1.3-2.6-1.6 0-.1-.1-.1-.2-.2s-.2-.2-.3-.2c.3 0 .3-.2.1-.4.1 0 .1-.1.1-.2 0 0 0-.1-.1-.1h.1c.6-.1-.1-.5-.5-.6-.2-.4-.5-.7-.8-.9.1-.1.1-.1-.1-.3-.3-.2-.5-.4-.8-.6.3-.1.3-.3-.3-.5-.2-.1-.4-.1-.6-.2-2.5-1.7-5-.3-6.5 2.3h-.1c-.7-.3-1.4 0-2.1.4-.1-.6-.1-1.2-.2-1.8v-.2c.3.1.6.2.8.3.1 0 .5.1.4-.2-.1-.3-.2-.6-.2-.9 0-.1.1-.1.1-.2s.1-.1.1-.2c.2 0 .5.1.7.1.1 0 .4 0 .3-.2-.1-.2-.2-.3-.3-.4.1 0 .2-.1.3-.1.3.1.7.2 1 .3.1 0 .5.1.4-.1-.1-.5-1.1-2-.4-1.9.8.1 1.5.2 2.3.1.1 0 .2 0 .2-.1V363.4c-.2-.9-1.1-1.3-2.1-1.5-.7-.1-1.4-.1-2.2-.1.4-.3 1-.6 1.3-1 .4 0 .8-.1.5-.6-.5-1.1-1.7-1.4-2.8-1.7.7-.6 1.5-1 2.3-1.3.1-.1.1-.2 0-.3-.5-.4-1.1-.6-1.6-.7-1.1-.4-2.4-.1-3.5.2-.4.1-.8.2-1.3.3l.3-1.2c.1-.3-.6-.4-.7-.3-.5.3-.9.7-1.2 1.1-.1-1.3.9-2.5.8-3.9 0-.3-.5-.4-.7-.3-1.6.8-1.8 2.5-2.8 3.8-1.4 1.8-1.1-1.3-1.9-2.1-.4-.4-1.3-.2-1.6-.6-.2-.2-.4-.5-.5-.6-.2-.5-.5-.9-.9-1.2-.9-.6-2-.1-3 0-.1 0-.2.1-.2.1h-.9c-.2 0-.3.1-.3.2H1565.5c-.5 0-.1.5.2.6h.3c-.7.5-1.3 1-1.8 1.8-.2.3.4.3.5.3.5 0 3.5.4 1.6.3-.5 0-.3.3 0 .4.1 0 .2 0 .3.1-.4.4-.7.7-1 1.3-.1.3.6.3.7.3.1-.1.2-.1.3-.1v.1c-.6.7-1.1 1.4-1.5 2.2-.1.3.6.3.7.3.3-.2.7-.3 1.1-.4-.3.7-.6 1.4-.7 2.1-.1.2.2.3.4.3-.2.4-.3.8-.4 1.2-.1.3.6.4.8.2.4-.4.8-.7 1.3-1-.1.7-.5 1.4-.5 2.1 0 .3.6.4.8.2 0-.1.1-.2.1-.3v1.1c-.1.1-.1.1-.2.1s-.2 0-.2.1c-.2.1-.4.2-.6.2-.2 0-.4-.1-.6-.1-.2 0-.3.1-.2.3 0 0 .1 0 .1.1-.3.1-.6.2-1 .3 0-.3 0-.6-.1-.9-.1-.5-.3-.9-.6-1.4-.1-.1-.1-.2-.2-.3 0-.5-.2-.9-.4-1.3-.1-.1-.2-.5-.4-.7 0-.3 0-.5.1-.7 0-.1-.1-.2-.2-.2 0-.2 0-.3-.1-.5 0-.1-.1-.2-.1-.3 0-.1 0-.1.1-.2 0-.1-.1-.2-.2-.2-.1-.2-.2-.3-.2-.5-.1-.4-.4-.7-.6-.9 0 0-.1-.1-.2-.1.1 0 .1-.1 0-.1-.8-.9-1.9-1.2-3-1.4-.1 0-.5 0-.3.2l.1.1c-.2 0-.4.1-.6.1h-.1c-.4-.1-.7-.1-1.1-.1-.4 0-.1.2.1.3-.4.1-.8.3-1.2.5-.2.1.3.2.5.3-.4.2-.8.3-1.2.5-.2.1.1.2.4.3l-.1.1c-1.3 1.5-1.5 2.8-2.1 4.8-.1.3.6.5.8.2.2-.4.5-.7.7-.9.1 0 .2 0 .3.1-.5.6-.9 1.1-1.1 1.9-.1.3.5.4.7.3.4-.3.7-.6 1.1-.9-.4 1-1.5 1.8-2 2.8-.1.3.3.4.5.4-.8.6-1.6 1.3-2.2 2.3-.2.3.4.4.6.4.3-.1.8-.1 1.2-.2-1.1.2-2.2.5-3.2.9-.1 0-.1 0-.2.1-1.5.6-2.8 1.9-4 3 .4.3 1.1.5 1.3.4zm20.8 25.1c.1 0 .2-.1.2-.2s.1-.3.1-.4v.8c0-.2-.1-.2-.3-.2zm-4.4-2.9c.1.2.2.3.3.5 0 .1-.1.2-.1.3 0-.3-.1-.6-.2-.8z" fill="#C16553"/><path d="M1569.6 416.5c-2.4-3-5.9-4-9.5-3.8-1 .1-1.9.3-2.8.5v-.1l.3-.3c.3-.2.6-.5.9-.8.3-.3.1-.6-.3-.6-.2 0-.3.1-.5.1l.1-.1c.3-.3.1-.6-.3-.6h-.1c.3-.2.5-.3.8-.5.5-.3.2-.8-.3-.6-.2.1-.3.1-.5.2.1-.1.3-.2.4-.3.3-.2.4-.6-.1-.7h-.7l.1-.1c.8-.2 1.7-.3 2.5-.5.5-.1.7-.8 0-.7-.5 0-1 .1-1.5.1.8-.3 1.6-.5 2.4-.6.5-.1.7-.8 0-.7h-.2c.6-.1 1.2-.2 1.8-.2.4 0 .7-.8.2-.8h-1.5c.3 0 .6-.1.9-.1.4-.1.8-.7.2-.8h-.5.1c1.1-.2 2.1-.1 3.1-.4.2-.1.6-.5.2-.7-.7-.3-1.4-.5-2.2-.6-.7-.2-1.6-.2-2.4.1h-.1c-2.1.1-3.8.8-5.7 1.8-.5.3-1.2.6-1.7 1.1.1-.2.1-.5.1-.8 0-.2-.3-.1-.6-.1v-.6c.1-.4.2-.8.3-1.1.2-.1.3-.2.5-.3.3 0 .6-.1.9-.2.3-.1.6-.5.1-.6h-.2c.2-.2.4-.3.6-.6.1-.2.1-.3-.1-.4h-.6c-.1-.2-.2-.3-.4-.4 0-.1-.1-.1-.2-.1-.1-.1-.3-.1-.4-.1-.2 0-.5 0-.7.1h-.1.3c.3 0 1-.6.3-.6-.5 0-.9.1-1.4.1l-.1-.1c.2-.1.4-.1.6-.1.3-.1.8-.6.2-.6-.7 0-1.4.1-2.1.2-.4-.1-.9-.1-1.4-.1 0-.1-.1-.3-.4-.3-.4 0-.9.1-1.2.3.2-.3.3-.6.5-1 .1-.3-.4-.2-1-.1.1-.2-.2-.2-.5-.2 0 0 0-.1.1-.1.2-.5-1.8.1-2.1.4-.4.5-.8.9-1.2 1.3-.4.1-1.2.3-1.4.6-.3 0-.7-.1-1-.1-1.2-.2-2.9-.4-3.7.8-.1.1 0 .1.1.2.8.3 1.7.4 2.6.3.1 0 .1.1.1.2-.8.3-1.5.7-2.2 1.3-.2.1-.2.4.1.3.5-.1.9-.1 1.4-.2l-.1.1-.2.2c-.1.1-.1.2-.1.2-.1.2-.2.4-.3.5-.2.3.5.2.6.1.3-.1.5-.3.8-.5-.3.4-.5.7-.7 1.1-.2.3.3.2.6.1-.1.1-.2.2-.3.4l-2.4.1c-.1 0-.4.1-.7.3-.1 0-.2-.1-.3-.1-.5-.1-2.5.8-1.7 1 .5.1.9.2 1.4.3.1 0 .2.1.4.1-1.3.4-2.5 1.1-3.6 2-.5.4.2.4.5.3 0 0 .1 0 .2-.1 0 .1-.1.2-.1.2-.5.4-1 .8-1.3 1.4-.1.2.1.3.3.3.2 0 .4 0 .6-.1-.3.4-.6.9-.7 1.4 0 .2.2.2.3.2.1 0 .3 0 .4-.1l-.3.6c-.1.2.1.3.3.3.2 0 .4 0 .5-.1-.1.2-.2.3-.3.5-.1.1 0 .3.2.3.4 0 .8 0 1.1-.2.2 0 .3.1.5.1 0 .1 0 .1-.1.2 0 .1.1.2.1.2.7.2 1.3.2 2 0 0 0 0 .1.1.1.1.1.2.2.3.2v.2c-.1 0-.1.1-.2.1-1.2-.3-2.3-.6-3.6-.5-.2 0-.5.1-.7.1h-.6c-1 0-2.2.3-3.2.8-.2 0-.4 0-.5.1-.5.4-.9.7-1.3 1.2-.1.1-.1.1-.1.2-.2.2-.3.5-.5.8-.1.2.1.3.3.4.2 0 .4 0 .6-.1v.1c0 .2.1.2.2.3l-.4.4c-.1.1.1.1.4.1-.2.3-.3.6-.3.9 0 .2.3.1.4.1.2-.1.5-.2.7-.2h.2c-.1.3-.3.5-.3.8 0 .1.1.1.2.1h.6c-.2.3-.4.7-.6 1.1 0 .1.1.1.3.1 0 0 0 .1-.1.2l-.3.9c0 .2.4.1.6.1.1.1.2.1.3.1 0 .1-.1.2-.1.3-.1.2.4.1.4.1.5-.1.9-.2 1.3-.4.2 0 .5-.1.7-.2-.2.4-.4.9-.4 1.4 0 .2.4.1.6 0-.1.3-.2.7-.3 1 0 .1 0 .1.1.1-.3.7-.6 1.3-.8 2 0 .2.3.1.6 0 0 .3-.1.5-.1.8 0 .2.5.1.7-.1-.2.5-.4 1-.4 1.5-.1.3.8 0 .9-.1.4-.8.9-1.5 1.4-2.3-.1.4-.1.8-.1 1.1 0 .2.5 0 .5 0 .8-.3 1.4-1 1.9-1.8.1 0 .1-.1.1-.1-.1.3-.2.6-.2.9-.3.4-.6.7-.8 1.2-.8 1.5-.3 3.6-.3 5.3 0 .3.3.4.6.3.3.1.7-.1.7-.4.1-.3.1-.5.2-.8h.1c0 .1.1.2.1.3 0 .2 0 .4.1.6 0 .2.7 0 .9-.2.1.3.3.6.4.9.1.1.3.1.6 0 0 .3.1.7.2 1 0 .2.9-.1.9-.3 0-.1.1-.3.1-.4 0 .1.1.2.1.3.2.4.6.2.9 0 .2 0 .4-.1.5-.3.4-.6.7-1.2 1-1.8.1 0 .1-.1.2-.1.1.2.5.1.6 0 .2-.1.3-.2.5-.3.2 0 .4-.1.5-.2.2-.2.3-.4.5-.6.1.3.6.1.8 0l.1-.1c.1.1.1.1.2.1-.3.9-.4 1.9-.5 2.9-.2.4-.3.9-.4 1.4 0 .1.1.2.2.2-.5.9-.9 1.8-1.2 2.8-.1.3.8.1.9-.1.1-.1.1-.2.2-.3 0 .1.1.1.1.2l-.6 1.2c-.1.4.8 0 .9-.1-.1.3-.1.7-.2 1V441.3c0 .1 0 .2.1.2v.6c0 .3.7 0 .8-.1l.4-.4v.4c0 .2.2.2.4.2-.1.3-.3.6-.4.9-.1.4.7.1.8 0l.1-.1c.2 0 .7-.2.7-.3.1-.1.1-.1.1-.2.1.2.4.1.6 0-.1.1-.1.2-.2.3-.2.4.7.2.9 0 .4-.7 1-1.4 1.5-2 .4 7.1 2 32.6 3.5 59.5.8 14 1.6 28.3 2.2 40.6.6 11.7 1 21.6 1.1 27.5l2.3-.1c-.1-6.3-.6-17.2-1.3-30-1.7-34.6-4.7-83.5-5.5-96.4.2.1.8-.1.9-.3.1-.6.3-1.2.4-1.7 0-.1 0-.1.1-.2 0 .5 0 1 .1 1.4 0 .3.9 0 .9-.3 0-.2.1-.5.1-.7.2.1.9-.1.9-.3 0-1.2 0-2.5.2-3.7h.1c.1.6.2 1.2.5 1.8.1.3.9 0 .9-.2.1-1.5.2-2.9.4-4.4 0 .3.1.6.2.8.2.3.9 0 .9-.3.1-.4.2-.9.3-1.5.2-.1.3-.2.4-.2l.3-.6c.3 0 .6-.2.6-.3.1-.3.1-.6.1-.9 0 .2 0 .5.1.7 0 .3.7.1.9-.1.1 0 .2 0 .3-.1 0 .2 0 .4-.1.6 0 .3.6.2.9 0 .2.1.6 0 .7-.2v.2c.1.3.5.1.8-.1 0 .4 0 .8.1 1.3.1.3.9 0 .9-.3.1-.3.2-.6.2-.9v1.6c0 .3.9 0 .9-.3v-.6h.3c.2 1 .4 2 .8 3 .1.3.9 0 .9-.3.9-5.1-2.2-11.1-6.7-13.5.3-.2.6-.3.9-.5h.1c.3.1 1.2-.3.7-.6h-.1c.3-.3.6-.7.8-1.1.2 0 .3-.2.4-.3h.6c.3 0 .8-.4.6-.6.2 0 .6-.2.6-.4h.4c.3 0 1-.5.4-.6-.4-.1-.7-.2-1-.3.4 0 .7-.1 1.1-.2.1 0 .3-.1.4-.2.7.1 1.3.2 2 .1-.5.4 0 .2-.2-.1zm-30.2-14.1c-.2.1-.3.2-.5.3-.1 0-.2.1-.3.1-.8.2.4-.3.8-.4 0-.1 0 0 0 0zm12.7 39.5v-.4c.1-.1.1-.2.2-.3-.1.2-.1.4-.2.7z" fill="#C16553"/><path d="M1599.3 555.7v-12.6l7.6 2.1-7.6-13.5v-27.4h3.7l-3.9-4.2h-2.3v-1.2h-3.4v-3h7.5l-1-4.2h-41.6l-1 4.2h4.5v3h-37.3V455.5h1v-2.1h2.1l-1.3-4.1H1516.1v-5h-9.6v5h-34.3l-1.3 4.1h2v2.1h1.2v21.7H1436l-2 4.2h3.5v18.7h-1.3l-2.4 4.2h3.7v64.3h171.8v-12.9h-10zM876.4 528.7v7.2c11.3 0 22.7 4.4 31.8 12.9v.6h-1.5c-1 0-1.8.8-1.8 1.8 0 .8.5 1.4 1.2 1.7l-1.8 15.8h13.2l-1.8-15.8c.7-.2 1.2-.9 1.2-1.7 0-1-.8-1.8-1.8-1.8h-1.3v-.6c4.2-3.9 8.9-6.9 13.8-9.1 6-2.6 12.3-3.9 18.6-3.9 11.4 0 22.8 4.4 31.9 13v.5h-1.6c-1 0-1.8.8-1.8 1.8 0 .8.5 1.4 1.2 1.7l-1.8 15.8h13.2l-1.8-15.8c.7-.2 1.2-.9 1.2-1.7 0-1-.8-1.8-1.8-1.8h-1.3v-.6c4.2-3.9 8.8-6.9 13.7-9 6-2.6 12.3-3.9 18.6-3.9 11.4 0 22.8 4.4 32 13v.5h-1.6c-1 0-1.8.8-1.8 1.8 0 .8.5 1.4 1.2 1.7l-1.8 15.8h13.2l-1.8-15.8c.7-.2 1.2-.9 1.2-1.7 0-1-.8-1.8-1.8-1.8h-1.3v-.6c4.2-3.9 8.8-6.9 13.7-9 6-2.6 12.3-3.9 18.6-3.9 11.4 0 22.8 4.4 32 13v.4h-1.6c-1 0-1.8.8-1.8 1.8 0 .8.5 1.4 1.2 1.7l-1.8 15.8h13.2l-1.8-15.8c.7-.2 1.2-.9 1.2-1.7 0-1-.8-1.8-1.8-1.8h-1.3v-.7c4.2-3.9 8.8-6.8 13.7-9 6-2.6 12.3-3.9 18.6-3.9 11.4 0 22.7 4.4 31.8 12.9v.6h-1.4c-1 0-1.8.8-1.8 1.8 0 .8.5 1.4 1.2 1.7l-1.8 15.8h13.2l-1.8-15.8c.7-.2 1.2-.9 1.2-1.7 0-1-.8-1.8-1.8-1.8h-1.5v-.5c4.2-3.9 8.9-7 13.8-9.1 6-2.6 12.3-3.9 18.6-3.9 11.4 0 22.7 4.4 31.9 12.9v.6h-1.4c-1 0-1.8.8-1.8 1.8 0 .8.5 1.4 1.2 1.7l-1.8 15.8h13.2l-1.8-15.8c.7-.2 1.2-.9 1.2-1.7 0-1-.8-1.8-1.8-1.8h-1.5v-.6c4.2-3.9 8.9-6.9 13.8-9.1 6-2.6 12.3-3.9 18.6-3.9h.1v-7.2H876.4v.4zm23.5 10.6c-3-1.7-6-3-9.2-4h9.2v4zm3.2 2c-.7-.5-1.4-.9-2.1-1.3v-4.7h2.1v6zm5.1 3.9c-1.3-1.1-2.6-2.2-4-3.1h.1v-6.8h3.9v9.9zm9.8-3.3c-1.4 1-2.8 2.1-4.2 3.2v-9.8h4.2v6.6zm3.2-2c-.7.4-1.4.8-2.1 1.3v-5.9h2.1v4.6zm5.4-2.8c-1.4.6-2.8 1.3-4.2 2.1v-3.9h9.1c-1.6.5-3.3 1.1-4.9 1.8zm43 2.2c-2.9-1.6-6-3-9.1-3.9h9.1v3.9zm3.3 1.9c-.7-.5-1.4-.9-2.1-1.3v-4.6h2.1v5.9zm5.2 4c-1.3-1.1-2.7-2.2-4.1-3.2v-6.7h4.1v9.9zm10.1-3.5c-1.5 1-3 2.2-4.4 3.4v-9.8h4.4v6.4zm3.2-2c-.7.4-1.4.8-2.1 1.3v-5.7h2.1v4.4zm5.1-2.6c-1.3.6-2.6 1.2-3.9 1.9v-3.7h8.8c-1.7.5-3.3 1.1-4.9 1.8zm42.7 2c-2.8-1.6-5.8-2.8-8.8-3.8h8.8v3.8zm3.3 1.9c-.7-.5-1.4-.9-2.1-1.3v-4.4h2.1v5.7zm5.6 4.2c-1.4-1.2-2.9-2.4-4.4-3.4v-6.5h4.4v9.9zm9.7-3.3c-1.4 1-2.8 2-4.1 3.2v-9.8h4.1v6.6zm3.2-2c-.7.4-1.4.8-2.1 1.3v-5.9h2.1v4.6zm5.4-2.8c-1.4.6-2.8 1.3-4.2 2.1v-3.9h9.1c-1.7.5-3.3 1.1-4.9 1.8zm42.8 2c-2.9-1.6-5.9-2.9-8.9-3.8h8.9v3.8zm3.3 2c-.7-.5-1.4-.9-2.1-1.3v-4.5h2.1v5.8zm5.5 4.2c-1.4-1.2-2.9-2.3-4.3-3.4v-6.6h4.3v10zm9.7-3.4c-1.4 1-2.8 2-4.2 3.2v-9.8h4.2v6.6zm3.3-2.1c-.7.4-1.4.8-2.1 1.3v-5.8h2.1v4.5zm5.3-2.7c-1.4.6-2.8 1.3-4.1 2v-3.8h9c-1.7.5-3.3 1.1-4.9 1.8zm42.5 1.9c-2.8-1.5-5.7-2.7-8.6-3.7h8.6v3.7zm3.3 1.9c-.7-.4-1.4-.9-2.1-1.3v-4.3h2.1v5.6zm5.6 4.2c-1.4-1.2-2.9-2.4-4.5-3.4v-6.4h4.5v9.8zm10.2-3.5c-1.6 1.1-3.1 2.3-4.6 3.5v-9.9h4.6v6.4zm3.3-2c-.7.4-1.4.8-2.1 1.3v-5.6h2.1v4.3zm5-2.5c-1.3.6-2.6 1.2-3.8 1.8v-3.7h8.7c-1.7.6-3.3 1.2-4.9 1.9zm42.8 2c-2.9-1.6-5.9-2.9-8.9-3.8h8.9v3.8zm3.3 2c-.7-.5-1.4-.9-2.1-1.3v-4.5h2.1v5.8zm5.3 4.1c-1.4-1.2-2.8-2.3-4.2-3.3v-6.6h4.2v9.9zm9.9-3.3c-1.5 1-2.9 2.1-4.3 3.3v-9.9h4.3v6.6zm3.3-2.1c-.7.4-1.4.8-2.1 1.3v-5.8h2.1v4.5zm5.2-2.7c-1.4.6-2.8 1.3-4.1 2v-3.8h9c-1.6.5-3.2 1.1-4.9 1.8z" fill="#C16553"/><path d="M1407.3 523.6c0-1-.4-1.9-1.1-2.5 9-5.5 15-15.6 15-27.1 0-17.4-19.2-28.2-30.4-28.2s-30.4 10.8-30.4 28.2c0 11.5 6 21.6 15 27.1-.7.6-1.1 1.5-1.1 2.5v1.8h-8.9v-1.9h-84.2v-6.3h-29.8v6.3h-17.9v45.1h187.9v-43.2h-13.8v-1.8h-.3zM1598.3 568.6h86.2c.1-.2.2-.3.3-.5 2.3-2 3-5.5 2-8.8-1.4-4.7-5.7-9.3-11.1-9.3-.2 0-.5 0-.7.1-3.1-1.2-6.6-1-9.8-.2-1.5.4-2.4 1.2-2.9 2.2-.6-1.1-1.6-1.9-2.9-2.2-1.8-.5-3.9-.6-5.7 0-.3.1-.7.3-1 .4-1.3-1.9-3.1-3.5-5.6-3.8-.4-.1-.7-.1-1.1-.1-2.9-1.7-6.4-1.9-9.4 0-1.1.7-1.9 1.7-2.2 2.9-1 .4-1.8.8-2.6 1.6-.6.5-1 1.2-1.4 1.9-.5.9-.7 1.8-.6 2.8-.5-.6-1.1-1.2-1.8-1.7-.8-.6-1.9-1-3-1.2-.1-1.5-.5-2.9-1.3-4.3-1.3-2.3-4.1-3.6-6.7-3.4-2.4.2-4.4 1.7-4.7 4.1-2.2-.2-4.4.3-6.3 1.2-2.6 1.3-3.8 3.6-4.1 6.1-1.7.6-3.2 1.7-4.2 3.2-1.6 2.4-1.5 5.4-.2 8 .3.3.5.7.8 1zM913.8 568.6H764.2c-.2-.3-.4-.5-.6-.8-3.9-3.5-5.2-9.6-3.5-15.3 2.5-8.2 9.9-16.2 19.2-16.1.4 0 .8.1 1.2.1 5.4-2.1 11.4-1.7 17-.3 2.6.7 4.2 2.1 5.1 3.9 1-1.8 2.8-3.3 5-3.9 3.2-.8 6.7-1.1 9.9-.1.6.2 1.1.4 1.7.7 2.2-3.3 5.4-6 9.7-6.7.6-.1 1.3-.1 1.9-.1 5-2.9 11.1-3.2 16.3-.1 1.9 1.2 3.2 3 3.8 5 1.8.7 3.1 1.4 4.6 2.7 1 .9 1.8 2.1 2.4 3.3.8 1.6 1.2 3.2 1.1 4.8.9-1.1 1.9-2.1 3.2-3 1.4-1.1 3.3-1.7 5.2-2 .2-2.6.9-5.1 2.2-7.4 2.3-4 7-6.3 11.6-5.9 4.2.3 7.7 3 8.2 7.1 3.8-.3 7.7.4 11 2.2 4.5 2.3 6.7 6.3 7.1 10.5 3 1 5.6 3 7.3 5.6 2.8 4.2 2.6 9.5.4 13.9-.5.7-.9 1.3-1.4 1.9zM138.3 568.6h129.4c.2-.2.4-.5.5-.7 3.4-3 4.5-8.3 3-13.2-2.2-7.1-8.6-14-16.6-13.9-.4 0-.7.1-1 .1-4.7-1.8-9.9-1.5-14.7-.3-2.2.6-3.7 1.8-4.4 3.4-.9-1.6-2.4-2.9-4.3-3.4-2.7-.7-5.8-1-8.5-.1-.5.2-1 .4-1.4.6-1.9-2.9-4.7-5.2-8.4-5.8-.6-.1-1.1-.1-1.7-.1-4.3-2.5-9.6-2.8-14.1-.1-1.7 1-2.8 2.6-3.3 4.3-1.5.6-2.7 1.2-3.9 2.4-.9.8-1.5 1.8-2 2.8-.7 1.4-1.1 2.7-.9 4.2-.8-.9-1.7-1.8-2.8-2.6-1.3-.9-2.9-1.5-4.5-1.8-.2-2.2-.7-4.4-1.9-6.4-2-3.4-6.1-5.5-10.1-5.1-3.6.3-6.7 2.6-7.1 6.2-3.3-.3-6.6.4-9.5 1.9-3.9 2-5.8 5.4-6.1 9.1-2.6.9-4.9 2.6-6.3 4.8-2.4 3.7-2.2 8.2-.4 12 .1.6.5 1.2 1 1.7z" fill="#C16553"/><path d="M1495.3 568.6c.3-.8.5-1.6.5-2.4-.1-3-1.1-5.9-3.2-8-1.2-7.5-10.3-12.9-17.7-11.2-1.4-1.3-2.9-2.3-4.7-2.7-2.3-.6-4.5-.2-6.7.8-1.7.8-2.9 2.4-3.7 4.1-4.8-5.1-11.9-8.5-18.2-6-3.6-1.6-7.5-2.8-11.4-1.7-4.3 1.2-6.3 4.9-7 8.8-4.2 0-8.3 1-11 4.1-1.2-.8-2.6-1.4-3.9-1.9-.7-3.6-2.1-6.8-5.4-9-3.3-2.3-7.4-1.4-10.9.2l-.9-.6c-3.2-2.1-7.9-2.2-11 .1-3.9 2.9-5 7.2-4.1 11.8-1 .5-1.9 1.3-2.5 2.4-1.8 3.6-2.4 8.1-.2 11.4h122v-.2z" fill="#C16553"/><path d="M1698 567.5H-253.2v39H1698v-39z" fill="#C16553"/></svg>