<svg width="1600" height="600" fill="none" xmlns="http://www.w3.org/2000/svg" viewBox="0 0 1600 600"><path d="M1883.51 0H0v600h1883.51V0z" fill="#F5FCFF"/><path d="M489.712 270.631v-13.34h21.994v-7.99h14.666v-4.26h25.653v4.26h40.319v7.99h76.243v13.34h20.532v145.66H463.313v-145.66h26.399z" fill="url(#paint0_linear)"/><path d="M1459.61 416.29v-4.66h-3.86v-1.65h3.86v-4.83h-3.86v-1.65h3.86v-4.83h-3.86v-1.65h3.86v-4.84h-3.86v-1.65h3.86v-4.83h-3.86v-1.65h3.86v-4.83h-3.86v-1.65h3.86v-4.83h-3.86v-1.66h3.86v-4.83h-3.86v-1.65h3.86v-4.83h-3.86v-1.65h3.86v-4.83h-3.86v-1.66h3.86v-4.83h-3.86v-1.65h3.86v-4.83h-3.86v-1.65h3.86v-4.83h-3.86v-1.65h3.86v-4.84h-3.86v-1.65h3.86v-4.83h-3.86v-1.65h3.86v-4.83h-3.86v-1.65h3.86v-4.84h-3.86v-1.65h3.86v-4.83h-3.86v-1.65h3.86v-4.83h-3.86v-1.65h3.86v-4.83h-3.86v-1.65h3.86v-4.84h-3.86v-1.65h3.86v-4.83h-3.86v-1.65h3.86v-4.83h-3.86v-1.65h3.86v-4.84h-3.86v-1.65h3.86v-4.83h-3.86v-1.65h3.86v-4.83h-3.86v-1.65h3.86v-4.83h-3.86v-1.65h3.86v-4.84h-3.86v-1.65h3.86v-4.83h-3.86v-1.65h3.86v-4.83h-3.86v-1.65h3.86v-4.84h-3.86v-1.65h3.86v-4.83h-3.86v-1.65h3.86v-4.83h-3.86v-1.65h3.86v-4.84h-3.86v-1.65h3.86v-4.83h-3.86v-1.65h3.86v-4.83h-3.86v-1.65h3.86v-4.83h-3.86v-4.54h-4.73v-22.05h-9.78v-20.24h-3.26v20.24h-23.12l-40.89 14.5v9.97h-5.04v28.09h-5.04v17.53h-3.56v194.54h99.28zM1222.07 155.01v-20.75h-16.21v20.75h-3.82v-20.75h-16.22v20.75h-18.6v261.28h73.46V155.01h-18.61zM836.562 416.29V279.08l-18.237-8.37v-24.97l-14.98-6.87h.304v-27.49h-25.77v4.45h-14.666v-4.45h-13.479v204.91h86.828z" fill="#D7EFFA"/><path d="M1093.23 176.921v-11.43h-16.67v-10.68h-27.02v10.68h-16.67v11.43h-17.56v239.37h95.48v-239.37h-17.56z" fill="#97D0E8"/><path d="M342.681 416.291v-192.84h-38.239v7.56H276.11v-10.59h-35.413v-6.05h-29.754v18.15h-29.744v13.24h-48.166v170.53h209.648z" fill="#D7EFFA"/><path d="M1052.76 416.29H923.321V104.51l129.439 21.53v290.25zM119.318 308.47v-5.9h-3.08v-8.83H95.294v-5.9h3.266v-5.89h-3.266v-12.96h3.266v-5.89h-3.266v-12.96h3.266v-5.9h-3.266v-12.96h3.266v-5.9h-3.266v-9.42h-4.16v-21.21H83.16v-15.33H17.903v36.54H8.29v9.42H5.033v5.9h3.256v12.96H5.033v5.9h3.256v12.96H5.033v5.89h3.256v12.96H5.033v5.89h3.256v5.9H.226v8.83h-3.08v5.9h3.08v13.19h-3.08v5.89h3.08v13.2h-3.08v5.89h3.08v13.2h-3.08v5.9h3.08v13.19h-3.08v5.9h3.08v13.19h-3.08v5.9h3.08v12.37h116.012v-12.37h3.08v-5.9h-3.08v-13.19h3.08v-5.9h-3.08v-13.19h3.08v-5.9h-3.08v-13.2h3.08v-5.89h-3.08v-13.2h3.08v-5.89h-3.08v-13.19h3.08zM1439.13 304.14v-6.48h3.6v-19.13h10.52v-27.55h27.07v-29.82h62.84v29.82h3.31v32.42h15.94v132.89h-119.68v-7.13h-3.6v-6.49h3.6v-14.51h-3.6v-6.49h3.6v-14.52h-3.6v-6.48h3.6v-14.52h-3.6v-6.49h3.6v-14.51h-3.6v-6.49h3.6v-14.52h-3.6z" fill="#97D0E8"/><path d="M434.325 220.07v-50.51h-11.321v-26.08h-15.372v4.97h-2.433v-4.97h-15.362v26.08h-11.87v50.51h-5.935v196.22h67.414V220.07h-5.121z" fill="#D7EFFA"/><path d="M1717.21 180.92v3.05h-4.95v-7.41h5.28l-23.71-53.18h-1.16v-14.17h-2.37v14.17h-17.69v-14.17h-2.37v14.17h-17.7v-14.17h-2.37v14.17h-17.7v-14.17h-2.36v14.17h-17.7v-14.17h-2.37v14.17h-17.7v-14.17h-2.37v14.17h-17.69v-14.17h-2.38v14.17h-17.69v-14.17h-2.37v14.17h-.92l-23.71 53.18h5.29v7.41h-4.97v-3.05h-4.13v235.37h199.94V180.92h-4.13zM210.041 156.77v-8.14h-34.345v8.14l-1.677.11v259.41h79.882v-221l-43.86-38.52z" fill="#97D0E8"/><path d="M387.502 201.51v-2.49h-1.618v-4.14h-7.319V167h-7.308v-18.22h-25.731v4.69h-9.477V167H312.76v27.88h-14.891v221.41h89.633v-2.48h-1.618v-3.66h1.618v-2.48h-1.618v-3.65h1.618v-2.49h-1.618v-3.65h1.618v-2.49h-1.618v-3.65h1.618v-2.48h-1.618v-3.65h1.618v-2.49h-1.618v-3.65h1.618v-2.48h-1.618v-3.66h1.618v-2.48h-1.618v-3.65h1.618v-2.49h-1.618v-3.65h1.618v-2.48h-1.618v-3.66h1.618v-2.48h-1.618v-3.65h1.618v-2.49h-1.618v-3.65h1.618v-2.48h-1.618v-3.66h1.618v-2.48h-1.618v-3.65h1.618v-2.49h-1.618v-3.65h1.618v-2.48h-1.618v-3.66h1.618v-2.48h-1.618v-3.65h1.618v-2.49h-1.618v-3.65h1.618v-2.48h-1.618v-3.66h1.618v-2.48h-1.618v-3.65h1.618v-2.49h-1.618v-3.65h1.618v-2.48h-1.618v-3.65h1.618v-2.49h-1.618v-3.65h1.618v-2.49h-1.618v-3.65h1.618v-2.48h-1.618v-3.65h1.618v-2.49h-1.618v-3.65h1.618v-2.49h-1.618v-3.65h1.618v-2.48h-1.618v-3.65h1.618v-2.49h-1.618v-3.65h1.618v-2.49h-1.618v-3.65h1.618v-2.48h-1.618v-3.65h1.618v-2.49h-1.618v-3.65h1.618v-2.49h-1.618v-3.65h1.618v-2.48h-1.618v-3.65h1.618v-2.49h-1.618v-3.65h1.618zM515.639 201.51v-2.48h-1.628v-4.15h-7.308V167h-7.309v-18.22h-25.731v4.69h-9.477V167h-23.288v27.88h-14.902v221.41h89.643v-2.48h-1.628v-3.66h1.628v-2.48h-1.628v-3.65h1.628v-2.49h-1.628v-3.65h1.628v-2.49h-1.628v-3.65h1.628v-2.48h-1.628v-3.65h1.628v-2.49h-1.628v-3.65h1.628v-2.48h-1.628v-3.66h1.628v-2.48h-1.628v-3.65h1.628v-2.49h-1.628v-3.65h1.628v-2.48h-1.628v-3.66h1.628v-2.48h-1.628v-3.65h1.628v-2.49h-1.628v-3.65h1.628v-2.48h-1.628v-3.66h1.628v-2.48h-1.628v-3.65h1.628v-2.49h-1.628v-3.65h1.628v-2.48h-1.628v-3.66h1.628v-2.48h-1.628v-3.65h1.628v-2.49h-1.628v-3.65h1.628v-2.48h-1.628v-3.66h1.628v-2.48h-1.628v-3.65h1.628v-2.49h-1.628v-3.65h1.628v-2.48h-1.628v-3.65h1.628v-2.49h-1.628v-3.65h1.628v-2.49h-1.628v-3.65h1.628v-2.48h-1.628v-3.65h1.628v-2.49h-1.628v-3.65h1.628v-2.49h-1.628v-3.65h1.628v-2.48h-1.628v-3.65h1.628v-2.49h-1.628v-3.65h1.628v-2.49h-1.628v-3.65h1.628v-2.48h-1.628v-3.65h1.628v-2.49h-1.628v-3.65h1.628v-2.49h-1.628v-3.65h1.628v-2.48h-1.628v-3.65h1.628v-2.49h-1.628v-3.65h1.628z" fill="#0A7BC0"/><path d="M1230.42 404.14v-10.27h-7.71V383.6h-7.7v-10.27h-3.46V244.3h-35.16v-7.65h-62.04v7.65h-3.56v171.99H1238.12v-12.15h-7.7z" fill="#97D0E8"/><path d="M1355.7 304.121v-67.17h-7.94v-5.49h-4.26v-6.64h-8.13l-2.35-3.4-2.34 3.4h-3.3l.15-.22-14.04-8.27-14.04 8.27.15.22h-3.4l-2.35-3.4-2.33 3.4h-8.03v6.64h-4.26v14.86h-25.32v57.8h-17.39v112.17h131.98v-112.17h-12.8zM152.584 154.51v-28.65h-10.046v-24.92h-7.759v-3.73h-12.92v3.73H90.271v24.92h-3.159v-4.92h-8.328v33.57h-9.477v261.78h85.003V154.51h-1.726z" fill="#97D0E8"/><path d="M1562.6 156.42v.24c-6.78 1.03-17.57 5.64-28.84 12.71-14.27 8.96-24.74 19.02-26.16 24.63h-1.7v222.29h93.97V156.42h-37.27zM1099.74 220.68c-.38-6.69-2.16-12.74-4.96-17.38-1.59-2.63-3.5-4.83-5.73-6.4-2.22-1.57-4.78-2.49-7.47-2.49-2.7 0-5.26.92-7.48 2.49-3.34 2.35-5.99 6.1-7.86 10.67-1.57 3.85-2.55 8.32-2.83 13.11h-23.08v195.61h82.48V220.68h-23.07zm-27.82-15.17c1.35-2.23 2.91-3.97 4.55-5.12 1.65-1.15 3.35-1.73 5.12-1.74 1.76 0 3.46.58 5.11 1.74 2.46 1.72 4.74 4.8 6.36 8.8 1.35 3.3 2.24 7.23 2.51 11.48h-1.41c-1.27-9.59-6.42-16.77-12.57-16.77-6.16 0-11.31 7.18-12.58 16.77h-1.42c.37-5.96 2-11.29 4.33-15.16zM741.582 182.811l-.638 6.04-39.387-32-39.396 32-.638-6.04-8.603 23.94v209.54h97.275v-209.54l-8.613-23.94zM936.191 184.4v-8.74h-5.925v-8.74h-5.925v-8.74h-5.925v-8.74h-19.522v-4.14h-41.731v-44.75c2.128-1.08 5.709-1.9 7.867-1.94 2.384-.04 4.611.85 6.818 1.64 2.717.97 5.719 1.28 8.643 1.13.098.01 2.648-.25 3.453-.39.206-.04.255-.28.176-.45-1.922-4.08-3.708-8.34-1.059-12.55.01-.01.01-.02.019-.03v-.01c.01-.02.03-.05.03-.08a.255.255 0 0 0-.098-.28.146.146 0 0 0-.039-.03.276.276 0 0 0-.305-.02c-3.021 1.74-6.199 2.82-9.702 2.79-2.913-.03-5.64-1.05-8.338-2.03-2.354-.86-5.327-1.76-7.475-.71v-4.04h-2.678v61.74h-15.117l-9.908 10.31h-1.943v260.69h114.58V184.4h-5.896zM214.936 369.171l-10.87-6.45-10.869 6.45-13.508 4.63v-103.57h-.824v-5.46h.549v-1.63h-5.229v1.63h.559v5.46h-6.435v-2.24l-13.645-4.68-10.87-6.46-10.869 6.46-13.646 4.68v2.24H103.74v-2.24l-13.645-4.68-10.88-6.46-10.87 6.46-13.645 4.68v2.24h-6.425v-5.46h.55v-1.63h-5.22v1.63h.55v5.46h-.834v146.06h185.27V373.851l-13.655-4.68z" fill="#0A7BC0"/><path d="M1755.62 338.71h2.64l-29.6-22.43h3.38l-29.92-19.19h-.01c-8.58-6.14-27.57-10.4-49.62-10.4-22.05 0-41.03 4.27-49.62 10.4h-.01l-29.92 19.19h3.39l-29.61 22.43h2.64v48.08h4.01v29.5h198.24v-29.5h4.01v-48.08z" fill="#0A7BC0"/><path d="M486.494 416.29h213.572v-45.9h1.482v-26.4h-8.045v3.67h-16.451v-9.92h.079c.382 0 .686-.31.686-.7 0-.39-.304-.7-.686-.7h-.157v-1.83h.157c.382 0 .686-.31.686-.7 0-.39-.304-.7-.686-.7h-.157v-1.4h.157c.382 0 .686-.31.686-.7 0-.39-.304-.7-.686-.7h-.157v-.97h-.089c.334-.43.53-.97.53-1.56 0-1.12-.706-2.06-1.687-2.4a.988.988 0 0 0 .431-.8c0-.35-.196-.66-.5-.85v-3.14c0-.41-.324-.74-.726-.74a.732.732 0 0 0-.726.74v3.14c-.304.19-.5.5-.5.85 0 .32.167.61.432.8a2.528 2.528 0 0 0-1.688 2.4c0 .59.197 1.13.53 1.56h-.088v.97h-.245c-2.728-13.3-14.137-23.9-28.802-26.93.157-.39.245-.83.245-1.31 0-1.13-.51-2.1-1.236-2.54a2.618 2.618 0 0 0-1.226-1.36V287.1c0-1.41-1.099-2.55-2.473-2.58v-.36c0-1.11-.686-2.06-1.657-2.43v-.38c0-.73-.344-1.39-.864-1.81.363-.36.579-.87.579-1.43 0-.66-.314-1.24-.785-1.61.265-.3.432-.69.432-1.13 0-.63-.343-1.17-.844-1.45v-10.06c0-.44-.343-.79-.775-.79a.778.778 0 0 0-.775.79v10.06c-.5.28-.843.83-.843 1.45 0 .44.166.83.431 1.13-.48.37-.785.95-.785 1.61 0 .56.226 1.06.579 1.43a2.308 2.308 0 0 0-.863 1.81v.38a2.584 2.584 0 0 0-1.658 2.43v.36c-1.373.04-2.472 1.18-2.472 2.58v11.06c-.559.28-1.001.77-1.226 1.36-.736.45-1.236 1.42-1.236 2.54 0 .47.088.92.245 1.31-13.999 2.89-25.035 12.69-28.38 25.14 0-1.12-.706-2.06-1.687-2.4a.991.991 0 0 0 .431-.8c0-.35-.196-.66-.5-.85v-3.13c0-.41-.324-.74-.726-.74a.732.732 0 0 0-.726.74v3.13c-.304.19-.5.5-.5.85 0 .32.166.61.431.8a2.45 2.45 0 0 0-1.157.84v-32.19c.618-.04 1.108-.48 1.108-1.02s-.48-.98-1.108-1.02v-6.8c.618-.04 1.108-.48 1.108-1.02 0-.57-.539-1.03-1.206-1.03h-1.874v-11.69c.598-.02 1.079-.47 1.079-1.02s-.481-1.01-1.079-1.02v-10.18h.49c.628 0 1.138-.46 1.138-1.03 0-.57-.51-1.03-1.138-1.03h-.49v-3.45h.49c.628 0 1.138-.46 1.138-1.03 0-.57-.51-1.03-1.138-1.03h-1.02c-.019-.9-.736-1.62-1.618-1.62v-5.33c.51-.06.912-.6.912-1.25 0-.7-.451-1.26-1.02-1.26h-1.521v-.62h.314c.324 0 .579-.27.579-.59 0-.32-.255-.59-.579-.59h-.314v-1.18h.314a.58.58 0 0 0 .579-.59.58.58 0 0 0-.579-.59h-.314v-.82h-.078c.284-.36.451-.82.451-1.32 0-.94-.598-1.73-1.423-2.02a.863.863 0 0 0 .363-.68c0-.3-.166-.56-.421-.72v-2.64c0-.34-.275-.62-.609-.62a.617.617 0 0 0-.608.62v2.64c-.255.16-.422.42-.422.72 0 .27.138.51.363.68-.206.07-.392.18-.569.3v-10.97h.471c.805 0 1.462-.5 1.462-1.11 0-.62-.657-1.11-1.462-1.11h-1.609v-2.31c.687-.04 1.236-.52 1.236-1.11 0-.62-.588-1.12-1.324-1.12h-2.884v-2.2c.549-.05.991-.52.991-1.11 0-.59-.432-1.06-.991-1.1v-7.5c.549-.05.991-.52.991-1.1 0-.58-.432-1.06-.991-1.11v-1.46c.559-.06.991-.53.991-1.1 0-.62-.491-1.11-1.089-1.11h-1.275v-.71c.294-.43.51-.88.627-1.35.295-.1.501-.38.501-.71 0-.31-.177-.57-.442-.69-.333-2.11-2.599-3.94-5.886-5.01v-7.14h-.265v-.01a.679.679 0 0 0 .599-.68c0-.37-.285-.67-.648-.68a6.592 6.592 0 0 0-5.846-5.65v-.79c1.118-.12 1.942-.52 1.942-1.01 0-.48-.824-.89-1.942-1.01v-1.08c.961-.11 1.658-.45 1.658-.86s-.697-.75-1.658-.86v-14.03c0-.38-.304-.68-.667-.68a.674.674 0 0 0-.667.68v14.03c-.962.11-1.658.45-1.658.86s.696.75 1.658.86v1.08c-1.119.12-1.943.52-1.943 1.01 0 .48.824.89 1.943 1.01v.79a6.592 6.592 0 0 0-5.847 5.65.678.678 0 0 0-.648.68c0 .35.265.64.599.68v.01h-.265v7.14c-3.286 1.07-5.552 2.9-5.886 5.01a.756.756 0 0 0 .059 1.4c.118.47.324.92.628 1.35v.71h-1.266c-.598 0-1.089.5-1.089 1.11 0 .58.432 1.05.991 1.1v1.46c-.549.05-.991.52-.991 1.11 0 .58.432 1.06.991 1.1v7.5c-.549.05-.991.52-.991 1.1 0 .58.432 1.06.991 1.11v2.2h-2.904c-.726 0-1.324.5-1.324 1.12 0 .59.549 1.07 1.236 1.11v2.31h-1.609c-.804 0-1.461.5-1.461 1.11 0 .62.657 1.11 1.461 1.11h.471v10.97a1.949 1.949 0 0 0-.569-.3c.226-.16.363-.4.363-.68 0-.3-.167-.56-.422-.72v-2.64c0-.34-.274-.62-.608-.62a.617.617 0 0 0-.608.62v2.64c-.255.16-.422.42-.422.72 0 .27.137.51.363.68a2.138 2.138 0 0 0-1.423 2.02c0 .5.167.95.452 1.32h-.079v.82h-.314a.585.585 0 0 0-.578.59c0 .33.255.59.578.59h.314v1.18h-.314a.58.58 0 0 0-.578.59c0 .33.255.59.578.59h.314v.62h-1.52c-.559 0-1.02.56-1.02 1.26 0 .65.402 1.19.922 1.25v5.33c-.883 0-1.599.72-1.619 1.62h-1.02c-.628 0-1.148.46-1.148 1.03 0 .57.51 1.03 1.148 1.03h.49v3.45h-.49c-.628 0-1.148.46-1.148 1.03 0 .57.51 1.03 1.148 1.03h.49v10.18c-.598.02-1.079.47-1.079 1.02 0 .56.481 1 1.079 1.02v11.69h-1.873c-.668 0-1.207.46-1.207 1.03 0 .54.49.98 1.108 1.02v6.8c-.618.04-1.108.48-1.108 1.02s.49.98 1.108 1.02v85.05h-4.414v-.86c0-1.43-1.138-2.59-2.541-2.59h-21.17c-1.402 0-2.54 1.16-2.54 2.59v.86h-18.943v3.67h-5.926l-5.817 5.5h6.455v27.31h-.01zm111.461-86.58c-.049.22-.098.44-.147.67v-.3h-.089c.089-.12.177-.24.236-.37z" fill="#0F529C"/><path d="M1448.6 333.63l-14.81-15.1-11.68 11.91v-12.4h-4.43s-35.87-16.7-49.19-16.7c-13.33 0-49.2 16.7-49.2 16.7h-4.42v12.4l-11.68-11.91-14.81 15.1h-2.83v82.66h165.87v-82.66h-2.82z" fill="#0A7BC0"/><path d="M1903.13 436.43H-24.8v195.03h1927.93V436.43z" fill="#0E9ACB"/><path d="M945.893 341.75v-2.18h-4.689v-18.73h2.286v-1.72h-2.286v-1.63h2.286v-1.72h-2.286v-2.3h-5.532V300.6h-2.943c-.157-3.98-3.473-8.97-8.221-11.48v-13.77h.314c.294 0 .53-.24.53-.54 0-.3-.236-.54-.53-.54h-.393c-.402-1.99-2.383-4.32-4.924-4.9v-.47a2.295 2.295 0 0 0 1.079-1.95c0-1.27-1.011-2.29-2.247-2.29s-2.246 1.03-2.246 2.29c0 .83.432 1.55 1.079 1.95v.47c-2.541.57-4.522 2.9-4.925 4.9h-.392c-.294 0-.53.24-.53.54 0 .3.236.54.53.54h.314v13.77c-4.748 2.51-8.054 7.51-8.221 11.48h-2.933v12.87h-5.533v2.3h-2.285v1.72h2.285v1.63h-2.285v1.72h2.285v18.73h-4.689v2.18h-1.56v2.83h1.56v5.88l-55.102-20.78-55.103 20.78v-5.88h1.56v-2.83h-1.56v-2.18h-4.689v-18.73h2.286v-1.72h-2.286v-1.63h2.286v-1.72h-2.286v-2.3h-5.533V300.6h-2.943c-.166-3.98-3.472-8.97-8.22-11.48v-13.77h.314c.294 0 .529-.24.529-.54 0-.3-.235-.54-.529-.54h-.393c-.402-1.99-2.384-4.32-4.924-4.9v-.47a2.295 2.295 0 0 0 1.079-1.95c0-1.27-1.001-2.29-2.247-2.29s-2.246 1.03-2.246 2.29c0 .83.431 1.55 1.079 1.95v.47c-2.541.57-4.523 2.9-4.925 4.9h-.392c-.294 0-.53.24-.53.54 0 .3.236.54.53.54h.314v13.77c-4.738 2.51-8.054 7.51-8.221 11.48h-2.943v12.87h-5.533v2.3h-2.266v1.72h2.286v1.63h-2.286v1.72h2.286v18.73h-4.689v2.18h-1.56v2.83h1.56v71.71h12.223v-15.48h.078c.766-2.34 7.299-5.29 15.265-5.29 7.965 0 14.499 2.95 15.254 5.29h.079v15.48h20.787v-25.03c0-23.41 20.826-42.39 46.519-42.39 25.692 0 46.518 18.98 46.518 42.39v25.03h20.797v-15.48h.079c.755-2.34 7.298-5.29 15.254-5.29 7.956 0 14.499 2.95 15.255 5.29h.078v15.48h12.213v-71.71h1.56v-2.83h-1.56zm-191.156-62.66c.059-1.11.481-2.52.991-2.52.52 0 .942 1.41.991 2.52h.01v7.37h-1.992v-7.37zm-2.727 0c.049-1.11.481-2.52.991-2.52.52 0 .942 1.41.991 2.52v7.37H752v-7.37h.01zm-2.737 0c.059-1.11.481-2.52.991-2.52.52 0 .942 1.41.991 2.52h.009v7.37h-1.991v-7.37zm9.947 60.52h-12.341v-15.48h.03c.304-2.34 2.933-5.29 6.141-5.29s5.837 2.96 6.141 5.29h.029v15.48zm160.814-60.52c.059-1.11.481-2.52.991-2.52.52 0 .942 1.41.991 2.52v7.37h-1.991v-7.37h.009zm-2.727 0c.049-1.11.481-2.52.991-2.52.52 0 .942 1.41.991 2.52v7.37h-1.991v-7.37h.009zm-2.737 0c.049-1.11.481-2.52 1.001-2.52.52 0 .942 1.41.991 2.52h.01v7.37h-1.992v-7.37h-.01zm9.948 60.52h-12.341v-15.48h.029c.304-2.34 2.933-5.29 6.141-5.29 3.198 0 5.837 2.96 6.141 5.29h.03v15.48zM206.45 416.29h262.426v-64.58l-67.414 11.71.068-58.6h-2.501s-.245.42-.608.69c-1.236.97-4.228.61-5.965.38-1.707-.23-12.301-8.25-14.028-11.61-1.726-3.36-2.688-5.66-5.925-5.66-3.247 0-4.729 4.01-5.592 4.81-.863.8-2.207 1.31-3.433 1.31-2.786 0-5.131-2-6.681-6.11-1.118-2.95-3.453-12.41-15.745-12.48-12.301.08-14.636 9.54-15.755 12.48-1.55 4.1-3.894 6.11-6.68 6.11-1.226 0-2.57-.51-3.434-1.31-.863-.8-2.354-4.81-5.591-4.81-3.247 0-4.199 2.3-5.925 5.66-1.727 3.36-12.312 11.38-14.029 11.61-1.746.23-4.728.59-5.974-.38-.363-.28-.608-.69-.608-.69h-2.502v3.43c-1.373-.81-2.236-2.55-3.306-5.7-1.442-4.25-1.707-10.65-2.07-17.66h.579v-2.41h-3.463c-1.922-.77-3.806-2.53-5.13-5.77-1.688-4.16-2.659-10.38-3.1-17.21v-2.41h-5.641c-1.285-.56-2.472-1.16-3.168-1.64-1.796-1.24-4.287-3.56-4.621-6.47h-2.325v-7.48h4.179v-2.02h-4.179v-4.26h-2.089v4.26h-4.179v2.02h4.179v7.48h-2.325c-.334 2.9-2.826 5.22-4.621 6.47-.706.49-1.883 1.08-3.169 1.64h-5.64v2.41c-.442 6.83-1.413 13.05-3.1 17.21-1.315 3.25-3.208 5-5.131 5.77h-3.472v2.41h.578c-.363 7.01-.618 13.4-2.07 17.66-1.079 3.17-1.942 4.91-3.335 5.72h-1.56v2.41h.805v20.21h-.805v2.41h.805v8.66l-6.75 6.31v2.49h-1.088v2.41h1.088v63.12h.02zM141.92 370.81l-25.211-26.45h-.442v-5.9h.981v-1.69H109.96v1.69h.981v5.9H94.509V333.5c2.305-.61 3.679-1.36 3.679-2.17 0-.13-.04-.26-.108-.39 2.276-.62 3.6-1.35 3.6-2.14 0-.17-.069-.34-.186-.51v-8.92a.858.858 0 0 0 .186-.5c0-1.2-3.041-2.27-7.838-2.99v-15.67h-.02c-.078-.48-.48-.93-1.138-1.36-.618-.81-1.766-1.54-3.306-2.13.01-.09.01-.18.01-.27 0-2.77-3.345-5.08-7.828-5.66v-3.08c.304-.44.48-.98.48-1.56 0-1.26-.833-2.31-1.962-2.64v-11.85h-1.471v11.85a2.743 2.743 0 0 0-1.962 2.64c0 .58.177 1.12.48 1.56v3.08c-4.482.58-7.828 2.9-7.828 5.66 0 .09.01.18.01.27-1.54.59-2.688 1.32-3.306 2.13-.736.47-1.148.99-1.148 1.54v15.49c-4.796.72-7.838 1.79-7.838 2.99 0 .17.069.34.187.5v8.92c-.118.17-.187.34-.187.51 0 .79 1.325 1.52 3.6 2.14a.837.837 0 0 0-.107.39c0 .81 1.363 1.56 3.678 2.17v10.85h-15.97v-6.74h.98v-1.69H41.91v1.69h.98v6.74h-.902L16.775 370.8h2.168v45.48h120.819V370.8h2.158v.01zm-43.36-52.25c.756.22 1.384.46 1.874.71v8.24c-.49-.25-1.118-.49-1.874-.71v-8.24zm-3.11-.72c.746.14 1.433.28 2.06.44v8.24c-.627-.15-1.314-.3-2.06-.44v-8.24zm-35.315 8.96c-.755.22-1.383.46-1.874.71v-8.24c.49-.25 1.119-.49 1.874-.71v8.24zm3.12-.72c-.746.14-1.433.28-2.06.44v-8.24c.627-.15 1.314-.3 2.06-.44v8.24zm4.169-.6v-8.24c.667-.07 1.353-.14 2.06-.2v8.24c-.716.06-1.403.13-2.06.2zm21.797-.2v-8.24c.707.06 1.393.13 2.06.2v8.24c-.667-.07-1.353-.14-2.06-.2zm5.17-7.62v8.24c-.647-.11-1.334-.2-2.06-.29v-8.24c.726.09 1.413.18 2.06.29zm-3.767-15.11c.922-.4 1.658-.76 2.158-1v6.18c-.54-.36-1.265-.7-2.158-1v-4.18zm0 5.87c.893.3 1.619.63 2.158.99v6.32c-.686-.09-1.412-.18-2.158-.25v-7.06zm-3.217-4.63c.775-.26 1.5-.53 2.158-.8v3.42a25.2 25.2 0 0 0-2.158-.48v-2.14zm0 3.83c.775.14 1.5.3 2.158.48v7.28c-.697-.06-1.423-.12-2.158-.17v-7.59zm-3.65-2.83c.893-.18 1.766-.41 2.59-.66v1.63c-.814-.12-1.687-.22-2.59-.3v-.67zm0 2.35c.903.08 1.776.18 2.59.3v7.7a102.8 102.8 0 0 0-2.59-.12v-7.88zm-11.409-3.01c.824.25 1.697.47 2.59.66v.67c-.902.08-1.776.18-2.59.3v-1.63zm0 3.32c.814-.12 1.688-.22 2.59-.3v7.88c-.883.03-1.746.07-2.59.12v-7.7zM69.131 303c.657.27 1.383.54 2.158.8v2.14c-.775.14-1.501.3-2.158.48V303zm0 5.1c.657-.18 1.383-.34 2.158-.48v7.59c-.736.05-1.462.11-2.158.17v-7.28zm-3.208-6.55c.5.24 1.236.6 2.158 1v4.18c-.893.3-1.619.64-2.158 1v-6.18zm0 7.87c.54-.36 1.275-.7 2.158-.99v7.06c-.746.08-1.472.16-2.158.25v-6.32zm-1.619 8.24c.657-.1 1.344-.2 2.06-.29v8.24c-.716.09-1.403.19-2.06.29v-8.24zM1108.37 317.6v6.19h-29.42V306.87h-25.83l-20.04-14.98-20.02 14.98h-9.37v9.36h-14.143v3.66h-8.093v96.4H1167.22V317.6h-58.85zM1881.31 379.87c-.21-.67-.51-1.23-.87-1.61h-2.25c-.36.38-.67.94-.87 1.61h-17.63c-.21-.67-.51-1.23-.87-1.61h-2.24c-.36.38-.67.94-.87 1.61h-17.63c-.21-.67-.51-1.23-.88-1.61h-2.24c-.37.38-.67.94-.88 1.61h-17.62c-.22-.67-.51-1.23-.88-1.61h-2.23c-.37.38-.67.94-.88 1.61h-17.63c-.2-.67-.51-1.23-.87-1.61h-2.24c-.37.38-.66.94-.88 1.61h-12.66c-7.76-7.14-33.53-13.72-64.14-13.72-13.86 0-32.41.91-50.14 2.5l-2.2-6.14h-3.41v6.67c-7.3.72-14.34 1.56-20.75 2.5l-3.27-9.17h-3.43v9.75c-7.49-5.03-13.84-11.13-16.72-14.05v-3.55c0-.75-.74-1.36-1.65-1.36-.91 0-1.65.61-1.65 1.36v3.65c-2.02 2.2-5.66 6.12-9.63 10.1-5.11-3.99-9.25-7.99-11.43-10.19v-3.55c0-.75-.74-1.36-1.66-1.36-.91 0-1.65.61-1.65 1.36v3.65c-2.02 2.2-5.66 6.12-9.63 10.1-5.11-3.99-9.25-7.99-11.43-10.19v-3.55c0-.75-.74-1.36-1.66-1.36-.91 0-1.65.61-1.65 1.36v3.65c-2.02 2.2-5.67 6.12-9.63 10.1-5.11-3.99-9.25-7.99-11.43-10.19v-3.55c0-.75-.73-1.36-1.65-1.36-.91 0-1.65.61-1.65 1.36v3.65c-2.02 2.2-5.66 6.12-9.64 10.1-5.11-3.99-9.26-7.99-11.43-10.19v-3.55c0-.75-.73-1.36-1.64-1.36-.92 0-1.65.61-1.65 1.36v3.65c-3.94 4.29-14.03 15.07-20.69 20.18l-5.85-16.34h-3.41v17.72h-6.38v-6.86h-3.19v6.86h-8.12l-6.35-17.72h-3.41v17.72h-4.67v-6.86h-3.19v6.86h-9.83l-6.34-17.72h-3.42v17.72h-2.96v-6.86h-3.19v6.86h-11.53l-6.35-17.72h-3.42v17.72h-1.25v-6.86h-3.19v6.86h-13.24l-6.35-17.72h-3.41v10.87h-2.73v6.86h-22.55v-6.86h-3.19v6.86h-22.56v-6.86h-3.18v6.86h-22.56v-6.86h-3.18v6.86h-2.4v5.34h-35.2v2.55h2.17v2.92h-3.98v2.91h-2.9v22.7h631.65v-36.42h-1.71v-.05z" fill="#0F529C"/><path d="M190.637 416.29c.529-.84.824-1.76.804-2.73-.088-3.35-1.795-6.64-5.17-8.95-1.942-8.33-16.559-14.36-28.302-12.49-2.177-1.43-4.659-2.55-7.583-3.06-3.767-.68-7.239-.17-10.693.94-2.736.89-4.581 2.67-5.876 4.53-7.612-5.66-19.07-9.5-29.214-6.7-5.797-1.75-12.066-3.1-18.256-1.88-6.847 1.34-10.026 5.44-11.213 9.86-6.73-.05-13.263 1.17-17.55 4.53-1.981-.85-4.12-1.55-6.307-2.17-1.158-3.99-3.424-7.59-8.682-10.08-5.278-2.52-11.91-1.6-17.482.18-.45-.26-.922-.5-1.412-.72-5.082-2.34-12.645-2.45-17.59.16-6.2 3.27-7.936 8.04-6.494 13.2-1.648.58-3.07 1.45-3.933 2.64-2.904 4-3.865 9.01-.255 12.74h195.208zM1090.27 416.29c-.46-.73-.72-1.52-.7-2.36.08-2.9 1.56-5.75 4.47-7.75 1.68-7.22 14.35-12.44 24.52-10.82 1.88-1.24 4.04-2.21 6.56-2.65 3.27-.59 6.28-.15 9.26.82 2.38.77 3.97 2.31 5.09 3.92 6.6-4.9 16.52-8.23 25.3-5.81 5.03-1.52 10.45-2.68 15.82-1.63 5.93 1.16 8.68 4.71 9.71 8.55 5.83-.05 11.49 1.01 15.2 3.92 1.72-.74 3.56-1.34 5.47-1.88 1-3.46 2.96-6.57 7.52-8.73 4.57-2.18 10.32-1.38 15.15.16.39-.22.79-.43 1.22-.62 4.41-2.02 10.95-2.12 15.24.14 5.37 2.84 6.88 6.96 5.63 11.43 1.42.5 2.66 1.25 3.4 2.29 2.53 3.47 3.36 7.8.23 11.03h-169.09v-.01zM527.225 416.29c1.825-3.6 1.727-7.95-.177-12.07a9.256 9.256 0 0 0-1.138-2.08c-2.776-4.43-6.916-6.05-10.928-5.77-.48-.36-.991-.69-1.54-.98-1.158-1.41-2.649-2.56-4.503-3.26-1.972-2.28-4.895-3.8-8.78-3.8-5.866 0-9.545 3.44-11.055 7.77a11.144 11.144 0 0 0-3.287 3.55 12.87 12.87 0 0 0-1.422-.18c-1.815-3.49-5.248-6.06-10.31-6.06-3.159 0-5.68 1.01-7.574 2.61h-.009c-2.943-1.01-5.641-.53-8.594-.09-.971.42-1.952.84-2.923 1.26-.442.27-.873.56-1.266.88-2.079-.31-4.228-.3-6.386-.27-.54.01-1.069.06-1.589.14-1.962-2.04-4.748-3.37-8.388-3.37-.706 0-1.363.07-2.011.16-1.952-1.92-4.679-3.17-8.191-3.17-7.387 0-11.311 5.46-11.792 11.28-.206.3-.412.6-.588.91-2.433 4.23-2.05 8.82.167 12.54h112.284zM925.047 416.29c-1.824-3.6-1.726-7.95.177-12.07.294-.74.667-1.44 1.138-2.08 2.776-4.43 6.916-6.05 10.928-5.77.481-.36.991-.69 1.54-.98 1.158-1.41 2.649-2.56 4.503-3.26 1.972-2.28 4.895-3.8 8.78-3.8 5.866 0 9.545 3.44 11.056 7.77a11.14 11.14 0 0 1 3.286 3.55c.461-.08.932-.15 1.423-.18 1.814-3.49 5.248-6.06 10.31-6.06 3.159 0 5.68 1.01 7.573 2.61h.01c2.943-1.01 5.641-.53 8.593-.09.972.42 1.953.84 2.924 1.26.441.27.873.56 1.265.88 2.077-.31 4.227-.3 6.387-.27.54.01 1.07.06 1.59.14 1.96-2.04 4.75-3.37 8.39-3.37.7 0 1.36.07 2.01.16 1.95-1.92 4.68-3.17 8.19-3.17 7.39 0 11.31 5.46 11.79 11.28.21.3.41.6.59.91 2.43 4.23 2.05 8.82-.17 12.54H925.047zM684.106 416.29h131.09c2.815-4.66 2.246-10.51-1.648-15.29-1.766-2.16-3.699-3.34-6.288-4.3a10.462 10.462 0 0 0-4.464-.89c-.275-.03-.5-.06-.696-.08a18.59 18.59 0 0 0-1.08-.44c-2.256-2.69-5.601-4.43-9.28-4.43h-.451c-4.483 0-8.466 2.57-10.605 6.33-.441.27-.882.55-1.285.87-.196-.01-.382-.03-.578-.03h-1.364c-1.727 0-3.365.38-4.866 1.06-.235-.3-.48-.6-.755-.87a12.201 12.201 0 0 0-6.759-3.49c-2.149-3.67-6.082-6.18-10.507-6.18h-.225c-4.67 0-8.79 2.79-10.85 6.79-.53.33-1.02.69-1.462 1.09-.127 0-.245-.02-.382-.02-3.708 0-6.544 1.39-8.505 3.5a12.155 12.155 0 0 0-4.925-2.32c-1.628-4.05-5.229-7.19-10.83-7.19-5.376 0-8.917 2.89-10.634 6.71-.147.09-.314.17-.461.27-.53.19-1.05.42-1.56.69-1.893-1.58-4.395-2.58-7.534-2.58-7.171 0-11.075 5.15-11.733 10.77-1.893 2.92-2.697 6.53-1.432 9.88.029.05.049.1.069.15z" fill="#0F529C"/><path d="M1903.13 415.76H-24.8v39.3h1927.93v-39.3zM177.854 399.061l.187 9.78-17.168-.37.196-9.83 16.785.42z" fill="#0F529C"/><path d="M159.765 421.13l.931-9.73 17.501.4-.294 9.72-18.138-.39zM163.826 344.781l.53-8.99 11.948.3.167 9-12.645-.31zM177.236 386.25l.196 9.81-16.196-.36.579-9.79 15.421.34zM176.628 373.471l.186 9.8-15.195-.35.549-9.78 14.46.33zM177.962 424.47l-1.57 16.7-18.844-2.22 2.03-14.88 18.384.4zM176.157 347.99l.186 9.79-13.253-.27.569-9.79 12.498.27zM176.402 360.721l.167 9.8-14.234-.3.579-9.79 13.488.29z" fill="#0F529C"/><path d="M129.766 331.68s8.583-20.72 20.62-22.01l-22.602-14.21s31.686-11.9 38.769 2.93c2.364-23.35 45.047-9.79 45.047-9.79l-17.54 12.44c17.786-4.82 24.986 28.93 26.036 34.41-1.364-6.1-9.3-10.88-17.727-14.31 10.163 7.9 12.92 30.41 13.361 34.83-1.167-8.7-15.352-16.48-26.065-21.16 2.865 13.39.697 29.91.108 33.9 1.177-10.01-10.889-23.62-20.993-33.06-1.589.84-2.502 1.17-1.629.18l-30.155 21.78s3.914-23.45 13.302-31.55c-2.335.6-4.876 1.21-6.475 1.49l-14.057 4.13zM220.105 335.45c.05.21.09.44.12.64-.02-.12-.06-.32-.12-.64zM220.223 336.09c0 .05.01.1.01.1 0-.05 0-.07-.01-.1zM215.74 355.97c.03.21.05.44.07.66-.01-.11-.03-.35-.07-.66zM215.809 356.63c.01.06.01.09.01.09.01-.03-.01-.05-.01-.09zM189.785 368.71c-.04.26-.08.52-.13.78.02-.13.07-.4.13-.78zM189.656 369.49l-.02.11c.01-.04.02-.07.02-.11z" fill="#0F529C"/><defs><linearGradient id="paint0_linear" x1="576.217" y1="416.291" x2="576.217" y2="245.045" gradientUnits="userSpaceOnUse"><stop offset=".261" stop-color="#71CAF3"/><stop offset="1" stop-color="#A0D9F7"/></linearGradient></defs></svg>