<svg width="375" height="150" fill="none" xmlns="http://www.w3.org/2000/svg" viewBox="0 0 375 150"><path d="M453.9-40.4H-78.9v192.5h532.8V-40.4z" fill="#EFE8E4"/><path fill-rule="evenodd" clip-rule="evenodd" d="M465.1-29.3H-94.4v191.4h559.5V-29.3z" fill="#EFE8E4"/><path d="M70.5 98.4H50.1v43.2h20.4V98.4z" fill="#CEB7A7"/><path d="M8.8 114.8h-23v26.8h23v-26.8zM269.4 97.6h-16.1v44h16.1v-44z" fill="#D9D9D9"/><path d="M115 93.1H85.9v48.5H115V93.1z" fill="#E8D0BF"/><path d="M172.9 97.3h-29.1v44.4h29.1V97.3zM211.3 98.4h-20.4v43.2h20.4V98.4z" fill="#D9D9D9"/><path opacity=".32" d="M196 50.4v-5.8h-.2l-1.2-1.2-1.2 1.2h-.2v5.8h-1.7V47h-1v-.7h-1.9v.7h-1v-2.6h-2.7v-1.9h-1.5V31.7h-.2l-1.2-1.2-1.2 1.2h-.2v10.8h-1.5v1.9h-2.7V47h-1v-.7h-1.9v.7h-1v3.3h-1.7v-5.8h-.2l-1.2-1.2-1.2 1.2h-.2v5.8h-3.6v91.3h34.7V50.4H196zm-13.7-9.8l.1 1.7h-.1v-1.7zm-1.1-.6h.7v.3h-.7V40zm1.1 0l.1.3h-.1V40zm-1.1-2.3h.7v.3h-.7v-.3zm1.1 0l.1.3h-.1v-.3zm1 .3h-.7v-.3h.7v.3zm-1 .3v1.4h-.1l.1-1.4zm1 2h-.7V40h.7v.3zm0 2.2h-.7v-1.9h.7v1.9zm0-2.8h-.7v-1.4h.7v1.4zm-.7-6.9l.7-.7v1.4h-.7v-.7zm0 1.1h.7v.1h-.7v-.1zm0 .4h.7v1h-.7v-1zm0 1.3h.7v.1h-.7v-.1zm.7.4v1.3h-.7V36h.7zm-1-2.9l.1.4h-.1v-.4zm0 .8l.1.2h-.1v-.2zm0 .4l.1 1h-.1v-1zm0 1.3l.1.1h-.1v-.1zm0 .4v1.3h-.1l.1-1.3zm-.3-.3h-.7v-.1h.7v.1zm0-1.7h-.7v-.2h.7v.2zm-.8-1.9l.7.7v.7h-.7v-1.4zm0 2.2h.7v1h-.7v-1zm0 1.7h.7v1.3h-.7V36zm0 2.3h.7v1.4h-.7v-1.4zm0 2.3h.7v1.9h-.7v-1.9zm7.9 6.1h1.2v.3h-1.2v-.3zm-14.9 0h1.2v.3h-1.2v-.3zm20.8-1l.7-.7v1.4h-.7v-.7zm0 1.1h.7v.2h-.7v-.2zm0 .5h.7v1h-.7v-1zm0 1.2h.7v.1h-.7v-.1zm.7.5v1.4h-.7V49h.7zm-1.4-.3h-.7v-.1h.7v.1zm0-1.8h-.7v-.2h.7v.2zm.3-.8l.1.4h-.1v-.4zm0 .7l.1.2h-.1v-.2zm0 .5l.1 1h-.1v-1zm0 1.2l.1.1h-.1v-.1zm.1.5v1.4h-.1l.1-1.4zm-1.1-4l.7.7v.7h-.7V45zm0 2.3h.7v1h-.7v-1zm0 1.7h.7v1.4h-.7V49zm-23.4-3.3l.8-.7v1.4h-.7v-.7h-.1zm0 1.1h.7v.2h-.7v-.2zm0 .5h.7v1h-.7v-1zm0 1.2h.7v.1h-.7v-.1zm.8.5v1.4h-.7V49h.7zm-1.4-.3h-.7v-.1h.7v.1zm0-1.8h-.7v-.2h.7v.2zm.3-.8l.1.4h-.1v-.4zm0 .7l.1.2h-.1v-.2zm0 .5l.1 1h-.1v-1zm0 1.2l.1.1h-.1v-.1zm0 .5v1.4h-.1l.1-1.4zm-1.1-4l.7.7v.7h-.7V45zm0 2.3h.7v1h-.7v-1zm0 1.7h.7v1.4h-.7V49z" fill="#CCA99B"/><path d="M273.6 59.3v.4h-.9v-.4h-2v.4h-1.3v-.4h-.7v-2.4h.1v-.7h-.1v-2h.3v-1.3h-.3v-.5h-.5v.5h-.4v1.3h.4v2.6h-.4v.9h.4v1.6h-.8v.4h-1.3v-.4h-2v.4h-.9v-.4h-2v82.3h14.4V59.3h-2z" fill="#B25447"/><path opacity=".32" d="M396.7 71v-4.7h-8.3v-2h-1.2v2h-.8v-2h-1.2v2h-.9v-2h-1.1v2h-.9v-2h-1.2v2h-8.3V71h1.9v1.8h-1.9v68.8h23.9V72.8h-1.9V71h1.9z" fill="#CEB7A7"/><path d="M170.9 87.4v-3.9H165v3.9h-2.9v-2.5H158v2.5h-2v54.2h17.3V87.4h-2.4z" fill="#B25447"/><path opacity=".32" d="M344.3 31.5a6.42 6.42 0 0 0-4.6-1.9c-1.8 0-3.4.7-4.6 1.9h-10.3v29.7h-10.5v10.1h-10.1v10.1h-10.1v60.3h60.5V31.5h-10.3z" fill="#978C84"/><path d="M340.3 66.3v-5.9h-3.6v-.6H334v.6h-2.1v4.3h-10.6v-4.4h-2v-.5h-2.7v.5h-4.8v6h-5.5v75.3h34.5V66.3h-.5zM144.5 84.8v-2.2h-1.1v-2.2h-4.5v2.2h-3.2V80h-5.9v-1.3h-.7V80h-4.8v-1.3h-.7V80h-4.9v-1.3h-.6V80h-2.8v2.6h-2.7v2.2h-2.8v56.8h38V84.8h-3.3z" fill="#B25447"/><path opacity=".32" d="M260.1 141.6V75.8h-2.2v-2.1h-.4v-1.6c-.1-2.9-2.6-5.3-5.6-5.3-3 0-5.4 2.3-5.6 5.3v1.6h-.4v2.1h-2.2v3.3h-1v-9.8h-5.9v-1.5H231c-.1-.2-.3-.3-.5-.3s-.4.1-.5.3h-1.7c-.1-.2-.3-.3-.6-.3 0-.1-.1-.2-.1-.4-.2-1-.4-2-.5-2.9-.3-1.9-.4-4-.6-6 0-.1.1-.2.1-.3 0-.1 0-.3-.1-.4v-3.2h.5v-.5h-.5v-.2h-.3v.2h-.5v.5h.5v3c-.1 0-.2-.1-.3-.1-.4 0-.7.3-.7.7 0 .4.3.7.7.7h.2c-.1 1.9-.2 3.8-.6 5.6-.2.9-.3 2-.5 2.9-.1.2-.1.4-.2.7h-.1c-.1-.2-.2-.2-.4-.2s-.3.1-.4.2H222c-.1-.2-.3-.3-.6-.3s-.5.1-.6.3h-1.3v1.5h-4.7v9.8H207v62.5h53.1zM231 68.8c.1-.1.2-.3.2-.5v-.2h5.4v1.1H231v-.4zm-.7.2h.4v.2h-.4V69zm-1.8-.7v-.2h1.4v.2c0 .2 0 .3.1.4v.5h-1.6c-.1-.1-.1-.2-.2-.4.2-.1.3-.3.3-.5zm-.8.7s.1 0 0 0h.1v.2h-.1V69zm-1.1-7.4l.3 2.7c.2.9.3 2 .5 2.9 0 .1.1.2.1.3-.1 0-.3.1-.3.3h-.6v-6.2zm0 6.5h.5v.2c0 .3.2.5.4.6v.3h-.8v-1.1h-.1zm-1.1-.9c.2-1 .4-2 .5-2.9l.3-2.7v6.2h-1c.1-.2.1-.4.2-.6zm-.6 1.9c.1-.3.3-.6.4-1h1.1v1.1h-1.5v-.1zm-2.9-.4c.1-.1.1-.3.1-.4v-.2h2v.2c0 .3.1.6.3.7v.2H222v-.5zm-.9.3h.3c.1 0 .2 0 .3-.1v.3h-.6V69zm-1.4-.9h.9v.2c0 .2.1.4.2.5v.4h-1.1v-1.1z" fill="#CCA99B"/><path d="M14.7 97.4v10.8H6.4v33.4h21.9V97.4H14.7z" fill="#CE7C72"/><path d="M349.5 74.8v66.9h24.2V74.8h-24.2zm9.4 4.1h-6.1v-3.6h6.1v3.6zM218.7 78.3v-2h-3.5v1.3H213v.8h-4.9c.2-.2.3-.4.3-.7 0-.5-.4-.9-.9-.9h-.1c.3-.2.4-.5.4-.8 0-.6-.5-1.1-1-1.1-.6 0-1.1.5-1.1 1.1 0 .4.3.8.7 1v.4c-.2-.2-.4-.3-.7-.3-.3 0-.6.2-.7.4V77c.4-.1.6-.4.6-.8 0-.5-.4-.8-.8-.8s-.8.4-.8.8.4.8.8.8v1.2h-.3c0-.1.1-.3.1-.4 0-.7-.5-1.2-1.2-1.2s-1.2.5-1.2 1.2c0 .1 0 .3.1.4h-3.5v63.4h22.5V78.3h-2.6zm-12.1-.7c0 .3.1.5.3.7h-.3v-.7zm.1-.7h.2c-.2.2-.3.4-.3.7v-.7h.1zM249.7 92.1v-2.8h-.3v-1.6h-13.2v1.6h-.3v2.8h.3v1.3h-.3v2.8h.3v1.3h-.3v2.8h.3v1.3h-.3v2.8h.3v1.3h-.3v2.8h.3v1.3h-.3v2.8h.3v1.2h-.3v2.9h.3v1.2h-.3v2.9h.3v1.2h-.3v2.9h.3v1.2h-.3v2.9h.3v1.2h-.3v2.9h.3v1.2h-.3v2.8h.3v1.3h-.3v2.8h.3v.4h13.2v-.4h.3v-2.8h-.3v-1.3h.3v-2.8h-.3v-1.2h.3v-2.9h-.3V129h.3v-2.9h-.3v-1.2h.3V122h-.3v-1.2h.3v-2.9h-.3v-1.2h.3v-2.9h-.3v-1.2h.3v-2.8h-.3v-1.3h.3v-2.8h-.3v-1.3h.3v-2.8h-.3v-1.3h.3v-2.8h-.3v-1.3h.3v-2.8h-.3v-1.3h.3z" fill="#B25447"/><path d="M19.9 80.8L5.4 57.5-9.1 80.8v60.8h29V80.8z" fill="#C16553"/><path d="M19.5 119v1.2H6.8V119h-1v1.2H-6.9V119h-1v1.2h-12.7V119h-1v1.2h-12.7V119h-1v1.2H-48V119h-1v1.2h-12.7V119h-1v1.2h-12.7V119h-1v22.5h1.9v-6.3h.6v-.4c-.3-.7-.5-1.4-.5-2.2 0-2.9 2.5-5.2 5.5-5.2s5.5 2.3 5.5 5.2c0 .8-.2 1.5-.5 2.2v.4h.6v6.3h2.6v-6.3h.6v-.4c-.3-.7-.5-1.4-.5-2.2 0-2.9 2.5-5.2 5.5-5.2s5.5 2.3 5.5 5.2c0 .8-.2 1.5-.5 2.2v.4h.6v6.3h2.6v-6.3h.6v-.4c-.3-.7-.5-1.4-.5-2.2 0-2.9 2.5-5.2 5.5-5.2s5.5 2.3 5.5 5.2c0 .8-.2 1.5-.5 2.2v.4h.6v6.3h2.6v-6.3h.6v-.4c-.3-.7-.5-1.4-.5-2.2 0-2.9 2.5-5.2 5.5-5.2s5.5 2.3 5.5 5.2c0 .8-.2 1.5-.5 2.2v.4h.6v6.3h2.6v-6.3h.6v-.4c-.3-.7-.5-1.4-.5-2.2 0-2.9 2.5-5.2 5.5-5.2s5.5 2.3 5.5 5.2c0 .8-.2 1.5-.5 2.2v.4h.6v6.3h2.6v-6.3h.6v-.4c-.3-.7-.5-1.4-.5-2.2 0-2.9 2.5-5.2 5.5-5.2s5.5 2.3 5.5 5.2c0 .8-.2 1.5-.5 2.2v.4h.6v6.3h2.6v-6.3H8v-.4c-.3-.7-.5-1.4-.5-2.2 0-2.9 2.5-5.2 5.5-5.2s5.5 2.3 5.5 5.2c0 .8-.2 1.5-.5 2.2v.4h.6v6.3h1.9V119h-1zm-84.8 2.4v1.7h-1.8v-1.7h1.8zm-5.6 0v1.7h-1.8v-1.7h1.8zm-4.4 1.7v-1.7h1.6v1.7h-1.6zm5.4 0v-1.7h1.8v1.7h-1.8zm7.3 0h-1.8v-1.7h1.8v1.7zm11-1.7v1.7h-1.8v-1.7h1.8zm-5.6 0v1.7H-59v-1.7h1.8zm-4.4 1.7v-1.7h1.7v1.7h-1.7zm5.4 0v-1.7h1.8v1.7h-1.8zm7.3 0h-1.8v-1.7h1.8v1.7zm11-1.7v1.7h-1.8v-1.7h1.8zm-5.6 0v1.7h-1.8v-1.7h1.8zm-4.4 1.7v-1.7h1.7v1.7h-1.7zm5.4 0v-1.7h1.8v1.7h-1.8zm7.3 0H-37v-1.7h1.8v1.7zm11-1.7v1.7H-26v-1.7h1.8zm-5.6 0v1.7h-1.8v-1.7h1.8zm-4.5 1.7v-1.7h1.7v1.7h-1.7zm5.5 0v-1.7h1.8v1.7h-1.8zm7.3 0h-1.7v-1.7h1.7v1.7zm11-1.7v1.7h-1.8v-1.7h1.8zm-5.6 0v1.7h-1.8v-1.7h1.8zm-4.5 1.7v-1.7h1.8v1.7h-1.8zm5.5 0v-1.7h1.8v1.7h-1.8zm7.2 0h-1.7v-1.7h1.7v1.7zm11.1-1.7v1.7H1.4v-1.7h1.8zm-5.6 0v1.7h-1.8v-1.7h1.8zm-4.5 1.7v-1.7h1.8v1.7h-1.8zm5.5 0v-1.7H.4v1.7h-1.8zm7.2 0H4.1v-1.7h1.7v1.7zm11.1-1.7v1.7h-1.8v-1.7h1.8zm-5.5 0v1.7H9.5v-1.7h1.9zm-4.6 1.7v-1.7h1.8v1.7H6.8zm5.5 0v-1.7h1.8v1.7h-1.8zm7.2 0h-1.6v-1.7h1.6v1.7z" fill="#C74E10"/><path d="M47.4 36c0-7.8-6.3-14.1-14.1-14.1S19.2 28.2 19.2 36c0 5.3 2.9 9.9 7.3 12.3l.2 93.3h13.7l-.2-93.3c4.4-2.4 7.3-7.1 7.2-12.3zm-2.7 7.2V42h-.9v-1.5l1.9.8c-.3.7-.6 1.3-1 1.9zm1.2-2.3l-1.2-.5h1v-4.2h1.2c-.1 1.6-.4 3.2-1 4.7zm.9-5.2h-1.2v-4.3H45l.9-.4c.6 1.5.9 3.1.9 4.7zm-1.1-5.1l-1.3.6v-.4h-3.2v-2.1H41l2.1-2.1c1 1.2 2 2.5 2.6 4zm-3-4.3l-2.3 2.3v-3.5h-2.3l.6-1.5c1.5.7 2.8 1.6 4 2.7zM30.1 44.5l.3-.7h.6v5.5c-.3-.1-.6-.1-.9-.2v-4.6zm5.6-.8h.6l.3.7V49c-.3.1-.6.1-.9.2v-5.5zm1.6-20.6c.3.1.7.2 1 .3l-.7 1.7h-.3v-2zm-3.7-.6c1.1 0 2.1.2 3.1.4h-2.6v1.2h-.6l.1-1.6zm-.5 0v1.6h-.6v-1.2L30 23c1-.3 2-.5 3.1-.5zm-3.7.6v2h-.3l-.7-1.7c.3-.1.6-.2 1-.3zm-1.4.5l.6 1.5h-2.3v3.5L24 26.3c1.1-1.1 2.5-2 4-2.7zm-4.3 3.1l2.1 2.1h-.2v2.1h-3.2v.4l-1.4-.6c.6-1.5 1.5-2.9 2.7-4zm-2.9 4.4l.9.4h-.6v4.3h-1.2c0-1.7.3-3.3.9-4.7zm-.9 5.2h1.2v4.2h1l-1.3.5c-.5-1.5-.9-3.1-.9-4.7zm2.1 6.9c-.4-.6-.7-1.2-1-1.9l1.9-.8V42H22v1.2zm.4.6h2.9l-1.6 1.6c-.5-.5-.9-1.1-1.3-1.6zm1.6 1.9l1.9-2h.6v3.8c-.9-.4-1.7-1.1-2.5-1.8zm7.2 51.6h-.9V92h.9v5.3zm0-5.9h-.9v-4.7h.9v4.7zm-.1-25.3h-.9v-4.4h.9v4.4zm0-5.1h-.9v-6.7h.9V61zm-1-7.3v-4c.3.1.6.1.9.2v3.8h-.9zm6.7 43.6h-.9V92h.9v5.3zm0-5.9h-.9v-4.7h.9v4.7zm-.1-25.3h-.9v-4.4h.9v4.4zm0-5.1h-.9v-6.7h.9V61zm0-7.3h-.9v-3.8c.3-.1.6-.1.9-.2v4zm3.6-6.1v-3.8h.6l1.9 1.9c-.8.7-1.6 1.3-2.5 1.9zm1.1-3.9h2.9c-.4.6-.8 1.1-1.3 1.6l-1.6-1.6zM295.8 101.5v-.6h-1v-3.2h.7l-3.9-3.9V91h-.6v-2.7h-1v-.8h.6l-.6-.4v-.4h.6l-1.3-1.1-1.3 1.1h.6v.4l-.6.4h.6v.8h-1.1V91h-1.7v-2.3h-3.3V91h-1l-1.1-6.6c.1-.1.3-.3.3-.4h.1c.2.1.3.2.5.3.2.1.5.1.7.1.2.1.4-.2.3-.4.3 0 .3-.5 0-.5-.4 0-.8.1-1.1 0 0-.2-.1-.4-.4-.6-.2-.1-.6-.2-.7-.4l-.1-.2c.3-.1.6 0 .8-.2l.1-.1c.1-.1.1-.2-.1-.3-.6-.3-.9-.3-1.4-.3-.1 0-.2.1-.2.2v.3l.2 1.1c-.1 0-.5-1.1-.6-1.1-.9 0-1.8.1-2.6-.3-.2-.1-.5.2-.3.4.3.3.8.5 1.3.6h-1.1c-.1 0-.3.3-.1.3.5.3.8.4 1.3.5.4 0 .9.1 1.4 0-.5.6-1.7.7-2.3.6-.3-.1-.4.4-.1.5.4.1 1 .1 1.5-.1-.2.1-.3.2-.4.3-.2.2.1.5.3.3.1-.1.3-.2.4-.3l-1.1 6.1h-1.5v2.7l-3.9 3.9h.7v3.2h-1v.6h-.5v1.2h.5v39h24.5v-39h.5v-1.2h-.5v.3zM281.3 91h-.3l-.8-6.3h.1l1 6.3zm-2.5-6.2l-.5 6.3h-.4l.7-6.3h.2zm.1 0h.3v6.3h-.8l.5-6.3zm.5 0h.4l.5 6.3h-.8v-6.3h-.1zm.5 0h.2l.7 6.3h-.4l-.5-6.3zm-1.6 0s.1 0 0 0h.1l-.8 6.3h-.3l1-6.3zM166.6 118.9h-11.9v22.7h11.9v-22.7z" fill="#C16553"/><path d="M184.7 129.7h-21.4v11.9h21.4v-11.9zM145.4 129.7h-33.6v11.9h33.6v-11.9z" fill="#C16553"/><path d="M230.1 133h-21.4v8.6h21.4V133zM159 103.7v-.8h-6.4v.8h-1.2v-1.5h-2.3v1.5h-1.2v37.9h12.4v-37.9H159z" fill="#CE7C72"/><path d="M208.5 110.6v-2.2h-5.3v2.2h-4v-2.2h-5.3v2.2H190v-2.2h-5.4v2.2h-1.8v-4.1h-2.9v-1h-2v1h-1.3v1.9h-1.2v2.2h-2.3v31h37.6v-31h-2.2zM262.9 117.3v-8.5h-8.7v1.2h-.6v-2.2h-1.2v2.2h-.9v1.9h-3.6v-1.4h1.9V106h-14.9v-1.7h-.7v1.7h-5.4v4.5h1.5v1.4H224v5.4h-4.6v24.3h46.2v-24.3h-2.7zm-31.9-6.8h2v1.4h-2v-1.4z" fill="#CE7C72"/><path d="M329.7 121.7v-2.6h-10.8v2.6h-10.5v19.9h31.8v-19.9h-10.5zM217.1 118.9h-11.9v22.7h11.9v-22.7z" fill="#C16553"/><path d="M293.8 129.7H257v11.9h36.8v-11.9z" fill="#CE7C72"/><path d="M378.4 97.6v-.2h-2v.2h-2.8v-.2H372v.2h-2.2v-.5h-5v.5h-1.3v44h17.1v-44h-2.2z" fill="#C16553"/><path d="M366.8 129.7h-33.6v11.9h33.6v-11.9z" fill="#C16553"/><path d="M54.7 128.2H35.8v13.4h18.9v-13.4zM102.2 126H91.4v15.7h10.8V126z" fill="#CE7C72"/><path d="M309 126h-18.5v15.7H309V126zM76.1 126.6H57.6v15.1h18.5v-15.1zM388 132.8h-23.5v8.9H388v-8.9z" fill="#C16553"/><path d="M460.2 141.1H-76.2v9.3h536.4v-9.3z" fill="#C74E10"/><path d="M370.4 139c-2.3-3-5.7-5.5-9.7-7.4-4.7-2.2-10.4-3.5-16.6-3.5-8.2 0-15.6 2.3-20.9 5.9-.4.3-.8.5-1.2.8-1.6-1.3-3.5-2.4-5.5-3.3-4.7-2.2-10.4-3.5-16.5-3.5-8.2 0-15.6 2.3-20.9 5.9-2.1 1.4-3.9 3.1-5.3 4.9h-1.9v2.6h100.6V139h-2.1zm-6.2-4.7c.2.1.3.2.5.3 1.9 1.3 3.5 2.8 4.9 4.4h-5.9l-1.9-2.1 1.5-2.6h.9zm-10.6-2.7c.7.5 1.4 1 2 1.5l.2.2-.2 1.6-2.5-2.7v-.4l.5-.2zm1.8 3.7l-3 2.5.6-5.1 2.4 2.6zm-2.6-3.9l-.3.3-1.2-1.3c.5.2 1 .5 1.5.8v.2zm-.1 1l-.6 5.7-1.1.9h-1.5l3.2-6.6zm-.7 6.2v.4h-.5l.5-.4zm.4-.3l3.3-2.8.5.6-.7 3h-3.2l.1-.8zm8.4-2.3l1.7-1.6h.3l-1.3 2.4-.7-.8zm.5 1l-1.1 2c-.2-.6-.4-1.2-.7-1.8l1-1 .8.8zm-.7-1.3l-1.2-1.3 2.6-.1-1.4 1.4zm-.3.3l-1 .9c-.4-.8-1-1.6-1.6-2.4h1.1l1.5 1.5zm-1.5 1.4l-.5.5-1.8-1.9.4-1.5c.8.9 1.4 1.8 1.9 2.9zm-1.6-3.6c-.3-.4-.7-.7-1-1l.2-1.1 1.9 2.1h-1.1zm-.6.4l-.7.7.2-1.2c.2.1.4.3.5.5zm-.1.6l-.2.8-.4-.4.6-.4zm0 1.5l1.6 1.7-1 1h-1.3l.7-2.7zm1.8 2l.7.7h-1.4l.7-.7zm.3-.2l.4-.4c.2.4.4.9.6 1.4h-.1l-.9-1zm3-.8l1.6 1.8h-2.6l1-1.8zm-5.9-6.8c2.6.8 5 1.8 7.1 3l-.2.2-3.9.1-3-3.3zm.4.9l-.2 1.1c-.5-.5-1.1-.9-1.6-1.3l1.1-.6.7.8zm-1.1-1.1l.1.1-1.2.6c-.1 0-.2-.1-.2-.1l.7-.8c.2.1.4.1.6.2zm-.9-.3l-.6.7c-.9-.5-1.8-1-2.8-1.4 1.1.2 2.2.5 3.4.7zm-5-.5c.6.2 1.1.3 1.6.6l1.7 1.8-3.2 3.4v-5.8h-.1zm0 6.3l3.3-3.5-3.3 6.7v-3.2zm-5-7c1.5 0 2.9.2 4.3.5v9.7h-8.5v-9.7c1.3-.3 2.8-.5 4.2-.5zm-18.4 9.6l1-1.1 1 1.8h-1.5c-.2-.3-.3-.5-.5-.7zm6-4.1c.2-.3.3-.5.5-.6l.2 1.2-.7-.6zm.6 1l-.4.4-.2-.8.6.4zm-.6.7l-1.8 1.9-.5-.5c.5-1 1.2-2 1.9-2.9l.4 1.5zm-.7-2.2h-1.1l1.9-2.1.2 1.1c-.3.3-.6.7-1 1zm-.5.7c-.6.7-1.1 1.5-1.6 2.4l-1-.9 1.4-1.5h1.2zm-1.7 2.7c-.3.6-.5 1.2-.7 1.8l-1.1-2 .8-.8 1 1zm-1.1-1.5l-1.4-1.3 2.6.1-1.2 1.2zm-.2.3l-.7.7-1.3-2.4h.3l1.7 1.7zm1.8 1.7l.4.4-.9.9h-.1c.2-.4.4-.9.6-1.3zm.6.6l.7.7h-1.4l.7-.7zm.3-.2l1.6-1.7.6 2.7h-1.3l-.9-1zm1.9-2.1l.5-.6 3.3 2.8.1.8h-3.2l-.7-3zm3.1-4.2v.4l-2.5 2.7-.2-1.6.2-.2c.6-.6 1.3-1.1 2-1.5l.5.2zm.6 6l-3-2.5 2.4-2.6.6 5.1zm-.4-6.7c.5-.3 1-.5 1.5-.8l-1.2 1.3-.3-.3v-.2zm.8 7.5l.5.5h-.5v-.5zm0-.5l-.6-5.7 3.3 6.6h-1.5l-1.2-.9zm-.3-5.8l3.3 3.5v3.2l-3.3-6.7zm3.3 3l-3.2-3.4 1.7-1.8c.5-.2 1.1-.4 1.6-.6v5.8h-.1zm-1.5-6c-1 .4-1.9.8-2.8 1.4l-.6-.7c1-.2 2.2-.5 3.4-.7zm-4.4 1c.2-.1.4-.1.6-.2l.7.8c-.1 0-.2.1-.2.1l-1.2-.6.1-.1zm.7.9c-.6.4-1.1.8-1.6 1.3l-.2-1.1.7-.7 1.1.5zm-6.1 1c1.5-.7 3-1.3 4.7-1.7l-3.1 3.3-3.9-.1-.2-.2c.8-.4 1.6-.9 2.5-1.3zm-3.8 2.1h1l1.5 2.6-1.1 1.1c-.8-1-1.8-1.9-2.9-2.8.5-.2 1-.5 1.5-.9zm1.3 4.7h-.4l.2-.2c.1.1.1.2.2.2zm-3.4-3.2c1.1.9 2.1 1.8 3 2.8l-.4.4h-5.1l-.4-.4c.8-1 1.8-1.9 2.9-2.8zm-12.6-4.2c.7.5 1.4 1 2 1.5l.2.2-.2 1.6-2.5-2.7v-.4l.5-.2zm1.8 3.7l-3 2.5.6-5.1 2.4 2.6zm-2.6-3.9l-.3.3-1.2-1.3c.5.2 1 .5 1.5.8v.2zm-.1 1l-.6 5.7-1.1.9h-1.5l3.2-6.6zm-.7 6.2l-.1.5h-.5l.6-.5zm.4-.3l3.3-2.8.5.6-.7 3h-3.2l.1-.8zm8.4-2.3l1.7-1.6h.3l-1.3 2.4-.7-.8zm.5 1l-1.1 2c-.2-.6-.4-1.2-.7-1.8l1-1 .8.8zm-.7-1.3l-1.2-1.3 2.6-.1-1.4 1.4zm-.3.3l-1 .9c-.4-.8-1-1.6-1.6-2.4h1.1l1.5 1.5zm-1.5 1.4l-.5.5-1.8-1.9.4-1.5c.8.9 1.4 1.8 1.9 2.9zm-1.6-3.6c-.3-.4-.7-.7-1-1l.2-1.1 1.9 2.1H313zm-.6.4l-.7.7.2-1.2c.2.1.4.3.5.5zm-.1.6l-.2.8-.4-.4.6-.4zm0 1.5l1.6 1.7-1 1h-1.3l.7-2.7zm1.8 2l.7.7h-1.4l.7-.7zm.3-.2l.4-.4c.2.4.4.9.6 1.4h-.1l-.9-1zm3-.8l1 1.1c-.2.2-.4.4-.5.7h-1.5l1-1.8zm2.6-3c.2.1.3.2.5.3.3.2.7.5 1 .7-1.1.9-2 1.8-2.9 2.8l-1.1-1.1 1.5-2.6 1-.1zm-1 4.7h-.3c0-.1.1-.1.1-.2l.2.2zm-7.5-8.5c2.6.8 5 1.8 7.1 3l-.2.2-3.9.1-3-3.3zm.4.9l-.2 1.1c-.5-.5-1.1-.9-1.6-1.3l1.1-.6.7.8zm-1.1-1.1l.1.1-1.2.6c-.1 0-.2-.1-.2-.1l.7-.8c.2.1.4.1.6.2zm-.9-.3l-.6.7c-.9-.5-1.8-1-2.8-1.4 1.1.2 2.2.5 3.4.7zm-5-.5c.6.2 1.1.3 1.6.6l1.7 1.8-3.2 3.4v-5.8h-.1zm0 6.3l3.3-3.5-3.3 6.7v-3.2zm-5-7c1.5 0 2.9.2 4.3.5v9.7h-8.5v-9.7c1.3-.3 2.8-.5 4.2-.5zm-12.4 5.5c.2-.3.3-.5.5-.6l.2 1.2-.7-.6zm.7 1l-.4.4-.2-.8.6.4zm-.7.7l-1.8 1.9-.5-.5c.5-1 1.2-2 1.9-2.9l.4 1.5zm-.7-2.2h-1.1l1.9-2.1.2 1.1c-.3.3-.6.7-1 1zm-.5.7c-.6.7-1.1 1.5-1.6 2.4l-1-.9 1.4-1.5h1.2zm-1.7 2.7c-.3.6-.5 1.2-.7 1.8l-1.1-2 .8-.8 1 1zm-1.1-1.5l-1.4-1.3 2.6.1-1.2 1.2zm-.2.3l-.7.7-1.3-2.4h.3l1.7 1.7zm.2 3h-2.6l1.6-1.8 1 1.8zm1.6-1.3l.4.4-.9.9h-.1c.2-.4.4-.9.6-1.3zm.6.6l.7.7H285l.7-.7zm.3-.2l1.6-1.7.6 2.7H287l-1-1zm1.9-2.1l.5-.6 3.3 2.8.1.8h-3.2l-.7-3zm3.1-4.2v.4l-2.5 2.7-.2-1.6.2-.2c.6-.6 1.3-1.1 2-1.5l.5.2zm.6 6l-3-2.5 2.4-2.6.6 5.1zm-.4-6.7c.5-.3 1-.5 1.5-.8l-1.2 1.3-.3-.3v-.2zm.8 7.5l.5.5h-.5v-.5zm0-.5l-.6-5.7 3.3 6.6h-1.5l-1.2-.9zm-.3-5.8l3.3 3.5v3.2l-3.3-6.7zm3.3 3l-3.2-3.4 1.7-1.8c.5-.2 1.1-.4 1.6-.6v5.8h-.1zm-1.5-6c-1 .4-1.9.8-2.8 1.4l-.7-.7c1.1-.2 2.3-.5 3.5-.7zm-4.4 1c.2-.1.4-.1.6-.2l.7.8c-.1 0-.2.1-.2.1l-1.2-.6.1-.1zm.7.9c-.6.4-1.1.8-1.6 1.3l-.2-1.1.7-.7 1.1.5zm-6.1 1c1.5-.7 3-1.3 4.7-1.7l-3.1 3.3-3.9-.1-.2-.2c.8-.4 1.6-.9 2.5-1.3zm-3.8 2.1h1l1.5 2.6-1.9 2.1h-5.9c1.3-1.7 3.2-3.3 5.3-4.7z" fill="#D79E8F"/></svg>