<svg width="1600" height="600" fill="none" xmlns="http://www.w3.org/2000/svg" viewBox="0 0 1600 600"><path d="M1788.76-88.69H-197.518v709.87H1788.76V-88.69z" fill="#EDDCCE"/><path fill-rule="evenodd" clip-rule="evenodd" d="M205.836 353.96s21.459-30.82 30.85-35.47c9.39-4.65 23.481-6.51 28.171-11.15 4.7-4.65 16.901-19.52 26.291-17.66 9.39 1.86 20.661 15.8 26.291 20.45 5.63 4.65 26.291.93 30.992 7.43 4.69 6.51 7.51 14.87 16.9 18.59 9.391 3.72 39.442 26.95 39.442 35.31 0 8.36-190.628 33.46-198.937-17.5z" fill="#C16553"/><path fill-rule="evenodd" clip-rule="evenodd" d="M263.826 407.11s66.501-20.9 81.461-37.35c14.96-16.45 48.438-13.33 55.918-14.98 7.48-1.64 18.275-16.44 25.755-17.27 7.48-.82 24.098-18.91 30.739-20.56 6.651-1.64 20.772-7.4 30.749-15.62 9.967-8.22 13.292 4.11 22.43 16.44 9.138 12.33 31.577 26.31 34.064 34.53 2.497 8.22 17.447 18.91 17.447 18.91l.657 140.6-299.22-104.7z" fill="#CE7C72"/><path fill-rule="evenodd" clip-rule="evenodd" d="M493.876 298.7s-4.559 12.8-2.052 17.32 5.843 12.74 5.843 12.74 2.506 8.63 2.092 10.69c-.414 2.06-5.014-2.06-6.267-4.11-1.253-2.05 0 8.22 1.668 11.51 1.668 3.29 7.935 6.99 8.774 10.69.839 3.7 7.52 11.51 7.934 15.62.415 4.11-4.174.82-8.349-3.7-4.175-4.52-10.027-4.11-10.027-.41s2.507 17.67 2.507 17.67-7.521-3.29-6.682 8.63c.839 11.92 2.507 18.49 2.507 18.49s7.935 4.52 8.349 11.51c.415 6.99-.414 7.4-3.76 9.86-3.346 2.47-3.143 17.87 3.022 25.99 6.166 8.12 63.884 20.45 63.884 20.45l-.122-25.89s-4.973-7.4-6.226-11.51c-1.254-4.11 10.785 1.44 10.785 1.44l211.845-1.43s-220.973-80.57-222.226-83.44c-1.253-2.88-8.359-8.22-8.774-11.92-.414-3.7-10.745-5.88-20.105-14.11-9.37-8.23-8.299-12.31-11.018-14.98-2.668-2.67-18.538-24.24-23.602-21.11zM67.102 364.23s-17.618 4.93-32.578-11.51c-14.96-16.45-49.136-28.48-56.606-30.13-7.48-1.64-39.391-12.21-46.871-13.03-7.48-.82-18.64-11.07-25.29-12.72-6.652-1.64-28.384-10.43-38.351-18.65-9.966-8.22-18.892 4.11-32.406 17.27-13.515 13.16-44.041 26.31-46.528 34.53-2.496 8.22-19.943-1.64-19.943-1.64l-.657 140.6 299.23-104.72z" fill="#C16553"/><path fill-rule="evenodd" clip-rule="evenodd" d="M-231.856 391.34s23.269-9.87 39.886-4.93c16.618 4.93 21.611-8.22 21.611-8.22s31.578-1.64 34.904-9.87c3.325-8.22 14.96-16.45 23.269-16.45 8.308 0 36.56-11.51 46.537-11.51 9.977 0 19.944-13.16 29.92-13.16 9.977 0 19.943-42.76 34.903-44.41 14.96-1.64 24.927-19.74 39.887-19.74s36.56-31.25 49.863-31.25c13.292 0 24.927 3.29 28.252 11.51 3.326 8.22 36.561 11.51 53.189 14.8 16.618 3.29 24.927 9.87 26.595 23.03 1.657 13.16 15.778 24.64 19.104 29.58 3.325 4.93 7.48 6.58 8.309 12.33.829 5.76 7.48 10.69 11.634 14.8 4.155 4.11 7.48 9.87 9.967 13.98 2.496 4.11 26.584-1.64 27.423-5.76.829-4.11 4.983-14.8 10.805-15.62 5.813-.82 14.122-10.69 14.122-10.69s14.121.82 16.617 11.51c2.497 10.69 21.601 11.51 22.43 19.73.829 8.22 19.114 18.91 20.772 23.84 1.658 4.93 3.326 10.69 14.96 16.44 11.635 5.76 43.202 18.09 49.853 22.2 6.651 4.11 15.789 11.51 19.944 11.51 4.154 0 16.617 15.62 16.617 15.62s35.732 13.16 39.887 20.56c4.154 7.4 63.984 7.4 63.984 7.4l-.829 185.82h-794.334l-.081-263.05z" fill="#CE7C72"/><path fill-rule="evenodd" clip-rule="evenodd" d="M88.915 231.81l7.51-5.8s26.585 18.91 31.568 19.73c4.983.82 44.435 6.17 49.004 7.4 4.569 1.23 11.625 6.17 17.447 8.63 5.812 2.47 9.552 23.02 13.706 27.13 4.155 4.11 20.348 24.66 22.845 30.82 2.486 6.17 15.364 25.48 19.518 25.89 4.155.41 1.274 21.03 11.241 32.54 9.966 11.51 30.738 55.09 34.064 61.67 3.325 6.58-.829 17.27 9.966 28.78 10.806 11.51 44.87 20.56 54.008 25.49 9.138 4.93 26.584 22.2 32.407 27.13 5.812 4.93 35.732 19.73 35.732 19.73s24.097 16.44 34.893 16.44c10.805 0-35.732 9.05-54.837-1.64-19.114-10.69-16.617 10.69-16.617 10.69s-11.635-1.64-17.447-6.58c-5.812-4.93.829 20.56 12.463 31.24 11.635 10.69 33.236 9.87 38.219 20.56 4.983 10.69 45.699 20.56 45.699 20.56s-13.292 13.98-25.756 6.58c-12.463-7.4-38.218-13.16-43.202-10.69-4.983 2.47-9.137 13.16-26.584 3.29-17.446-9.87-61.487-8.22-61.487-8.22s-20.773 14.8-34.894 3.29c-14.121-11.51-34.893-13.98-34.893-13.98s-19.114-34.53-28.252-43.58c-9.138-9.04-23.269-6.58-31.578-22.2-8.308-15.62 3.326-38.64-3.325-46.04-6.651-7.4-5.044-64.12-14.566-57.55-9.522 6.57-8.693 22.19-8.693 22.19l1.658 27.13s-26.584-6.58-25.756-22.2c.829-15.62-14.121-13.98-14.96-21.38-.828-7.4-9.966-51.8-9.966-51.8s4.983-40.29 0-55.09c-4.983-14.8 9.138-26.31 9.966-18.09.829 8.22 28.253 13.16 28.253 13.16s-2.497-13.98-14.121-27.96c-11.635-13.98-28.253-23.02-28.253-31.24 0-8.22.829-17.27-4.154-23.02-4.993-5.76-10.826-23.01-10.826-23.01z" fill="#C16553"/><path fill-rule="evenodd" clip-rule="evenodd" d="M301.013 320.15s10.968-.44 14.293 1.62c3.326 2.06 7.056 10.27 7.056 10.27l10.795 5.75s6.227 8.22 10.381 13.15c4.155 4.93 18.629 14.72 16.608 19.32-2.022 4.59 17.032 18.91 25.331 20.96 8.309 2.05 26.22 10.91 28.242 14.8 2.021 3.89 29.071 11.51 31.567 13.97 2.497 2.47 12.878 15.62 17.861 17.67 4.984 2.06 30.315 11.51 35.722 16.03 5.398 4.52 26.17 10.27 26.17 10.27l21.177 4.3s-7.47 5.56-18.68 5.56-4.569 23.43-1.658 24.25c2.911.82 23.673 7.4 25.331 11.51 1.658 4.11 4.569 11.1 4.569 11.1s-17.861.82-23.259-4.11c-5.398-4.93-21.176-3.7-23.259-4.52-2.072-.82-24.916-7.4-29.07-11.1-4.155-3.7-26.999-17.67-31.568-22.61-4.569-4.93-9.057-14.69-16.537-13.87-7.48.82-7.975.31-.91 8.12 7.056 7.81 17.447 8.63 19.934 13.97 2.496 5.34 18.689 18.91 26.169 20.14 7.48 1.23 18.69 11.51 18.69 11.51s-14.95 1.23-20.762-2.88c-5.812-4.11-19.518-11.51-19.518-11.51l-12.049 1.64s13.706 13.15 19.933 15.21c6.226 2.06 14.535 11.51 14.535 11.51s3.74 15.21 11.635 16.85c7.894 1.64 20.347 20.96 20.347 20.96l5.813 8.22s-28.243-10.27-32.811-15.62c-4.569-5.34-24.088-12.33-30.739-15.21-6.641-2.88-10.381-8.22-13.292-11.92-2.911-3.7-18.276-10.27-20.348-12.33-2.072-2.06-4.154-9.04-9.552-13.97-5.398-4.93-16.193-16.85-18.275-18.49-2.073-1.64-32.811-37.81-32.811-44.39 0-6.58-9.553-18.49-12.464-21.78-2.911-3.29-11.624-17.67-14.535-26.3-2.911-8.63-12.049-26.71-14.121-28.77-2.062-2.04-15.941-49.28-15.941-49.28zM-35.738 327.2s6.318 9.77 10.058 17.99c3.74 8.22 17.032 10.27 19.519 13.15 2.496 2.88 7.48 12.74 7.894 16.03.414 3.29 14.535 38.22 12.878 42.74-1.658 4.52 8.308 20.96 10.38 22.19 2.073 1.23 17.862 16.85 13.293 16.85-4.569 0-21.187-6.16-24.502-10.69-3.326-4.52-19.104-7.4-19.519-11.51-.414-4.11-3.325-9.86-3.325-9.86s-3.326 16.03 9.552 30c12.877 13.97 31.153 18.08 31.567 20.55.415 2.47 0 29.18 4.57 31.65 4.568 2.47 25.714 24.78 25.714 30.54 0 5.76-34.024-14.1-40.25-27.66-6.227-13.56-13.707-25.48-20.348-29.59-6.641-4.11-22.844-8.63-25.33-17.26-2.497-8.63-9.553-23.43-12.464-28.77-2.911-5.34-8.309-23.43-7.895-26.3.415-2.88 2.073-23.02-2.496-26.71-4.57-3.7-.415-8.22 0-16.03.414-7.81.414-18.49-1.658-21.78-2.072-3.29-2.588-8.95-2.588-8.95s6.247-7.81 14.95-6.58zM104.735 520.69s10.795 10.69 17.446 16.03c6.641 5.34 34.054 9.45 36.551 16.03 2.497 6.58 23.673 15.62 26.17 17.67 2.497 2.06 6.641 16.03 7.48 18.49.829 2.47 6.226 23.02 19.104 31.24 12.878 8.22 24.088 21.78 24.088 21.78l17.032 12.49h-52.33s-17.446-12.08-22.844-19.47c-5.398-7.4-19.104-18.91-21.177-22.6-2.072-3.7-8.723 10.69-4.568 18.49 4.154 7.81-14.536-.41-14.536-11.51s9.552-30-2.911-33.7c-12.463-3.7-17.447-11.1-18.69-16.03-1.243-4.93-12.049-17.67-12.049-17.67s-10.795-6.99-9.966-14.38c.829-7.39-3.326-16.03-9.552-18.91-6.247-2.88 20.752 2.05 20.752 2.05z" fill="#C16553"/><path fill-rule="evenodd" clip-rule="evenodd" d="M449.451 565.9s17.032-2.47 18.275 0c1.244 2.47 14.121 6.99 21.187 9.04 7.055 2.05 16.193 13.56 16.193 13.56s7.48 15.21 13.707 18.49c6.226 3.29 14.535 17.26 17.032 20.14 2.496 2.88 22.015 13.97 22.015 13.97s-2.072 4.93-24.502-3.7c-22.43-8.63-30.739-16.44-32.811-21.78-2.082-5.34-10.795-25.89-14.95-23.84-4.154 2.05 3.74 13.15 3.74 13.15s-8.308 2.88-12.463-9.04c-4.154-11.92-10.381-18.91-15.364-18.91-4.983 0-22.43-2.05-24.917-4.93-2.486-2.88-23.673-5.34-23.673-5.34s-14.97-6.15 36.531-.81zM127.993 245.74s2.497 15.21 5.812 18.08c3.326 2.88 14.121 9.86 14.121 9.86l7.48 12.33s.213-11.18-2.486-14.68c-2.699-3.49-7.056-6.78-8.299-8.22-1.243-1.44-5.024-15.7-5.024-15.7l-11.604-1.67zM111.618 253.88s2.487 8.42 2.487 10.27c0 1.85 2.072 7.6 3.315 9.04 1.243 1.44 7.268 2.05 7.268 2.05s-2.285-3.08-4.357-10.89c-2.072-7.8-4.356-8.21-4.569-10.68-.192-2.46-10.785-5.74-4.144.21zM118.451 332.95s9.097 6.89 9.097 11.39c0 4.5 2.406 27.01 4.286 29.4 1.87 2.38 12.039 21.98 12.039 21.98s10.967 7.94 12.039 10.06c1.071 2.12 4.013-1.32-.263-8.47-4.286-7.15-10.705-2.91-10.705-14.83s1.608-19.86-1.334-23.04c-2.941-3.18-3.214-13.77-5.62-18.27-2.416-4.52-19.539-8.22-19.539-8.22zM260.298 392.7s5.57 17.13 8.097 20.99c2.527 3.86 9.259 11.32 10.765 13.82 1.496 2.5 6.61 14.64 7.722 17.3s10.503 4.82 10.988 8.63c.475 3.81 1.799-.52-3.002-7.66-4.802-7.14-8.622-7.13-8.825-10.82-.202-3.7-3.942-16.84-7.004-18.25-3.073-1.42-8.542-20.3-18.741-24.01zM204.006 286.17s2.568 6.9 2.76 9.42c.192 2.52 2.607 7.4 3.74 8.84 1.132 1.44 2.981 5.6 3.133 7.62.152 2.02 1.152 8.52 2.578 10.45 1.425 1.92 8.43 1.91 9.623 4.22 1.202 2.32 1.122-2.11-2.174-5.03-3.295-2.92-8.076-1.93-7.116-4.41.961-2.48 1.122-5.4.152-6.46-.981-1.07-.738-.68-1.415-4.06-.678-3.38-6.197-8.67-5.54-10.11.678-1.44-2.587-10.69-5.741-10.48zM322.362 332.04s-2.103 6.62.667 8.08c2.78 1.47 3.477 10.41 4.316 13.29.829 2.88 4.367-.2 2.507-3.99-1.87-3.79-3.599-3.65-2.8-5.23.798-1.58-2.285-5.54-2.285-5.54l-.08-5.37-2.325-1.24zM336.907 352.6c.748-.23 2.073 4 2.8 6.46.728 2.46 2.072 4.41 2.588 5.23.515.82 4.872 1.85 5.802 4 .93 2.15 2.456-2.78-.637-4.11-3.093-1.33-3.477-1.97-4.356-3.47-.88-1.51-6.197-8.11-6.197-8.11zM388.822 602.07s-10.795 2.06-14.949-.82c-4.155-2.88-8.309-2.88-12.878-2.88-4.569 0-17.861-3.29-19.933-5.34-2.072-2.06.829-11.1-13.707-15.62-14.535-4.52-23.259-6.99-25.745-11.51-2.497-4.52-20.348-13.97-20.348-13.97s4.984-3.29 15.365 2.88c10.381 6.16 14.949 9.04 22.429 12.33 7.48 3.29 15.991 9.78 15.991 9.78s-3.527-13.48-10.178-17.18c-6.641-3.7 8.308-1.64 13.706 11.51s12.463 15.21 14.536 16.03c2.072.82 18.689 4.52 21.186 6.58 2.477 2.04 31.79 6.9 14.525 8.21zM316.55 488.63s20.762 3.29 22.429 7.4c1.658 4.11 6.641 8.63 8.724 9.45 2.072.82 7.48 8.22 7.48 8.22l9.552 9.86s11.291.79 13.575 3.05c2.284 2.26-3.942.21-7.884.82-3.942.62-11.625-3.08-14.111-4.93-2.487-1.85-5.398-5.13-9.754-7.19-4.357-2.05-8.097-3.29-10.169-5.96-2.072-2.67-4.771-9.45-9.755-12.53-4.983-3.06-30.718-7.79-10.087-8.19zM135.493 454.12c-.626-1.03 0-7.6-3.942-10.27s-5.185-9.65-5.185-10.88c0-1.23-4.155-7.6-4.155-7.6s3.114-2.05 6.641 6.37c3.528 8.42 10.381 8.01 11.412 11.09 1.042 3.08 1.042 8.42 1.042 11.71-.011 3.28 3.315 24.84-5.813-.42zM238.06 441.78s5.974 8.44 5.974 11.31c0 2.88 1.658 5.75 2.285 7.6.626 1.85 5.599 9.04 4.771 9.86-.829.82-4.357-3.08-6.641-5.34-2.285-2.26-4.771-7.8-4.771-10.27-.011-2.46-10.594-14.17-1.618-13.16zM401.286 401.11s10.916 1.73 11.786 3.89c.869 2.16 3.487 4.54 4.579 4.97 1.091.43 3.932 4.32 3.932 4.32l5.024 5.18s5.933.41 7.136 1.6c1.203 1.19-2.072.11-4.145.43-2.072.32-6.105-1.62-7.419-2.59-1.304-.97-2.83-2.7-5.125-3.78-2.294-1.08-4.255-1.73-5.347-3.13-1.092-1.4-2.507-4.96-5.125-6.58s-16.142-4.1-5.296-4.31zM444.458 456.61s-5.398 1.03-7.48-.41c-2.073-1.44-4.155-1.44-6.439-1.44-2.285 0-8.926-1.64-9.967-2.67-1.041-1.03.415-5.55-6.853-7.81s-11.625-3.49-12.878-5.75c-1.243-2.26-10.179-6.99-10.179-6.99s2.497-1.64 7.682 1.44c5.196 3.08 7.48 4.52 11.21 6.16 3.74 1.64 7.996 4.89 7.996 4.89s-1.769-6.74-5.085-8.59c-3.325-1.85 4.155-.82 6.854 5.75 2.699 6.58 6.226 7.6 7.267 8.01 1.042.41 9.34 2.26 10.594 3.29 1.253 1.04 15.91 3.47 7.278 4.12z" fill="#CE7C72"/><path fill-rule="evenodd" clip-rule="evenodd" d="M376.167 403.23s-5.448-.76-6.934-2.78c-1.496-2.03-3.457-2.69-5.62-3.42-2.163-.73-7.915-4.42-8.562-5.72-.647-1.31 2.214-5.12-3.932-9.58-6.135-4.47-9.855-7.03-10.3-9.57-.445-2.54-7.338-9.87-7.338-9.87s2.891-.76 6.802 3.82c3.902 4.58 5.59 6.67 8.592 9.43 3.002 2.75 5.964 7.19 5.964 7.19s.536-6.94-2.001-9.76c-2.537-2.82 4.194.55 4.599 7.64.404 7.09 3.406 9.19 4.255 9.91.849.72 8.107 5.13 8.946 6.5.839 1.36 13.909 8.35 5.529 6.21zM219.512 348.28c-.627-1.03 0-7.6-3.942-10.27s-5.186-9.65-5.186-10.89c0-1.23-4.154-7.6-4.154-7.6s3.113-2.05 6.641 6.37 10.381 8.01 11.412 11.09c1.041 3.08 1.041 8.42 1.041 11.71 0 3.28 3.326 24.85-5.812-.41zM152.313 255.05s7.248 9.59 10.149 15.34c2.911 5.75 2.072 12.74 3.74 18.08 1.658 5.34 9.966 13.56 10.381 16.03.414 2.47 4.569 9.04 5.812 12.74 1.243 3.7 10.381-2.06 6.227-8.22-4.155-6.17-6.641-13.15-6.641-17.67 0-4.52 4.983 0 7.894 4.52 2.911 4.52 6.641-.82 1.658-8.22-4.984-7.4-7.672-10.72-7.895-18.08-.222-7.36-8.713-8.51-13.292-11.45-4.559-2.93-27.817-10.29-18.033-3.07zM195.879 321.24s-.414 1.64 1.243 8.21c1.658 6.57 4.569 7.39 6.429 11.09 1.87 3.7 8.926 10.06 8.926 10.06s.414-5.96-2.072-10.27c-2.487-4.31-4.569-4.31-6.015-9.04-1.455-4.71-11.21-18.06-8.511-10.05zM241.537 350.41s3.114 3.49 4.984 8.21c1.87 4.72 8.501 6.45 10.037 10.17 1.536 3.72 5.115 15.29 6.56 17.35 1.456 2.05-7.884.21-9.754-2.26-1.87-2.46-3.528-11.3-6.227-13.35-2.699-2.05-9.34-5.75-9.34-10.27.011-4.51-7.045-15.4 3.74-9.85zM203.996 401.09s4.983 8.63 6.227 16.03c1.243 7.4 4.983 14.8 7.055 15.62 2.072.82 10.795-1.23 13.707 1.64 2.911 2.88 10.381 0 12.877 6.16 2.497 6.16 9.967 13.15 12.464 16.44 2.496 3.29 4.154-2.05-.829-8.63-4.984-6.58-4.407-13.75-6.692-16.62-2.284-2.88 4.155-5.75 5.398-4.11 1.243 1.64 1.455-1.23-1.87-7.19-3.326-5.96-4.771-9.04-6.853-11.09-2.073-2.05-1.87.82-2.487 5.75-.627 4.93 2.699 10.68-.202 10.47-2.901-.2-5.812-.41-7.682-4.11s-1.041-5.55-3.528-10.47c-2.487-4.93-9.34-5.55-9.542-6.78-.212-1.23-7.884-8.83-10.169-11.5-2.284-2.67.415 1.85-2.486 2.46-2.922.63-8.521-1.01-5.388 5.93zM323.615 508.77s-8.309-9.45-14.535-9.04c-6.227.41-11.635-2.47-15.365-6.16-3.74-3.71 2.901 17.26 29.9 15.2zM362.238 533.02s-15.364-5.75-20.762-8.63c-5.398-2.88-9.966-8.22-12.463-6.99-2.487 1.23-3.326 6.99 2.497 10.69 5.812 3.7 14.535.82 18.275 6.58 3.73 5.75 33.215 1.64 12.453-1.65zM456.516 533.84s-10.795-2.88-16.193-8.63c-5.398-5.75-10.381-13.56-13.292-15.62-2.911-2.06-10.795-11.1-12.049-13.97-1.243-2.88 10.381 2.88 15.365 7.4 4.983 4.52 14.535 12.33 19.518 14.39 4.984 2.06 15.779 7.4 17.447 13.56 1.658 6.16-8.309-3.29-14.95-5.75-6.641-2.48 4.154 8.62 4.154 8.62zM256.558 431.7s-.162.63.475 3.15 1.749 2.83 2.467 4.25c.717 1.42 3.416 3.85 3.416 3.85s.162-2.28-.798-3.93c-.951-1.65-1.749-1.65-2.305-3.46s-4.286-6.92-3.255-3.86zM308.827 514.29s.111 1.03 2.204 4.43c2.092 3.4 3.709 3.24 5.347 4.96 1.647 1.71 6.398 3.83 6.398 3.83s-.94-3.5-3.012-5.43c-2.072-1.93-3.113-1.48-4.751-3.87-1.627-2.38-9.077-7.92-6.186-3.92zM270.366 507.42s-12.656-13.33-16.446-18.72c-3.791-5.39-4.771-12.35-8.481-12.72-3.709-.37-9.047 3.91-5.428 10.21 3.619 6.3 15.516 8.79 15.253 15.63-.263 6.84 35.652 19.91 15.102 5.6z" fill="#CE7C72"/><path fill-rule="evenodd" clip-rule="evenodd" d="M1449.32 339.69s-19.46-27.97-27.99-32.18c-8.52-4.22-21.29-5.9-25.56-10.12-4.25-4.22-15.33-17.71-23.85-16.02-8.53 1.69-18.74 14.33-23.86 18.55-5.11 4.22-23.85.84-28.12 6.74-4.26 5.9-6.81 13.49-15.33 16.86-8.53 3.37-35.79 24.45-35.79 32.04 0 7.6 172.96 30.36 180.5-15.87z" fill="#C16553"/><path fill-rule="evenodd" clip-rule="evenodd" d="M1396.7 387.91s-60.33-18.97-73.91-33.89c-13.57-14.92-43.95-12.1-50.73-13.59-6.78-1.49-16.59-14.92-23.37-15.67-6.78-.75-21.87-17.16-27.89-18.65-6.04-1.49-18.85-6.71-27.9-14.17-9.05-7.46-12.06 3.73-20.36 14.92-8.29 11.19-28.64 23.87-30.91 31.33-2.26 7.46-15.83 17.16-15.83 17.16l-.59 127.57 271.49-95.01z" fill="#CE7C72"/><path fill-rule="evenodd" clip-rule="evenodd" d="M1187.98 289.55s4.13 11.61 1.86 15.71c-2.28 4.1-5.31 11.56-5.31 11.56s-2.27 7.83-1.89 9.7c.39 1.86 4.55-1.86 5.68-3.73 1.13-1.86 0 7.46-1.51 10.44-1.52 2.98-7.2 6.34-7.96 9.69-.76 3.36-6.82 10.44-7.2 14.17-.38 3.73 3.79.75 7.59-3.36 3.79-4.1 9.09-3.73 9.09-.37s-2.27 16.03-2.27 16.03 6.82-2.98 6.06 7.83c-.76 10.81-2.27 16.78-2.27 16.78s-7.2 4.1-7.58 10.44c-.38 6.34.38 6.71 3.4 8.95 3.04 2.24 2.85 16.22-2.75 23.58-5.59 7.37-57.96 18.55-57.96 18.55l-5.19-13s-17.81 4.33-16.68.6c1.14-3.73-30-1.02-30-1.02l-180.278 6.94S1129.2 348.5 1130.34 345.89c1.13-2.61 7.58-7.46 7.96-10.81.38-3.36 9.74-5.33 18.24-12.8 8.5-7.47 7.53-11.17 10-13.59 2.46-2.41 16.85-21.98 21.44-19.14zM1575.19 349.01s15.98 4.48 29.56-10.45c13.57-14.92 44.57-25.84 51.35-27.33 6.79-1.49 35.75-11.08 42.53-11.82 6.78-.75 16.91-10.04 22.94-11.54 6.04-1.49 25.75-9.46 34.8-16.92 9.04-7.46 17.13 3.73 29.4 15.67 12.26 11.94 39.96 23.87 42.22 31.33 2.27 7.46 18.1-1.49 18.1-1.49l.59 127.57-271.49-95.02z" fill="#C16553"/><path fill-rule="evenodd" clip-rule="evenodd" d="M1846.43 373.61s-21.12-8.95-36.19-4.48c-15.08 4.48-19.6-7.46-19.6-7.46s-28.64-1.49-31.67-8.95c-3.01-7.46-13.57-14.92-21.11-14.92-7.54 0-33.18-10.45-42.22-10.45-9.05 0-18.1-11.94-27.14-11.94-9.05 0-18.1-38.8-31.67-40.29-13.58-1.49-22.62-17.91-36.19-17.91-13.57 0-33.17-28.35-45.23-28.35-12.06 0-22.62 2.98-25.64 10.45-3.01 7.46-33.17 10.45-48.25 13.43-15.08 2.98-22.62 8.95-24.13 20.89-1.51 11.94-14.32 22.36-17.34 26.84-3.01 4.48-6.78 5.97-7.54 11.19-.75 5.22-6.78 9.7-10.55 13.43-3.77 3.73-6.78 8.95-9.05 12.68-2.26 3.73-24.11-1.49-24.87-5.22-.76-3.73-4.52-13.43-9.81-14.17-5.27-.75-12.81-9.7-12.81-9.7s-12.82.75-15.09 10.44c-2.26 9.7-19.59 10.44-20.35 17.9-.76 7.46-17.34 17.16-18.84 21.63-1.51 4.48-3.02 9.7-13.57 14.92-10.55 5.22-39.2 16.41-45.23 20.14-6.04 3.73-14.33 10.44-18.1 10.44-3.77 0-15.08 14.17-15.08 14.17s-32.41 11.94-36.18 18.65c-3.78 6.71-652.098 6.71-652.098 6.71l.758 168.6h1314.74l.05-238.67z" fill="#CE7C72"/><path fill-rule="evenodd" clip-rule="evenodd" d="M1555.4 228.86l-6.82-5.26s-24.11 17.15-28.63 17.9-40.32 5.59-44.47 6.71c-4.14 1.12-10.55 5.59-15.83 7.83-5.27 2.24-8.66 20.88-12.43 24.61-3.77 3.73-18.47 22.37-20.72 27.97-2.26 5.59-13.94 23.12-17.71 23.49-3.77.37-1.15 19.08-10.2 29.53-9.05 10.44-27.89 49.98-30.91 55.95-3.01 5.97.76 15.67-9.05 26.11-9.8 10.44-40.7 18.65-49 23.13-8.29 4.48-24.13 20.14-29.4 24.62-5.28 4.48-32.42 17.9-32.42 17.9s-21.87 14.92-31.66 14.92c-9.81 0 32.42 8.21 49.75-1.49 17.34-9.7 15.08 9.7 15.08 9.7s10.56-1.49 15.83-5.97c5.28-4.48-.76 18.65-11.31 28.35-10.55 9.7-30.15 8.95-34.68 18.65-4.53 9.7-41.46 18.65-41.46 18.65s12.06 12.68 23.37 5.97 34.68-11.94 39.2-9.7c4.51 2.24 8.28 11.94 24.12 2.98 15.83-8.95 55.79-7.46 55.79-7.46s18.84 13.43 31.66 2.98c12.82-10.44 31.66-12.68 31.66-12.68s17.33-31.33 25.63-39.54c8.29-8.21 21.11-5.97 28.65-20.14 7.54-14.17-3.01-35.06 3.01-41.78 6.04-6.71 4.58-58.17 13.22-52.21 8.64 5.96 7.89 20.14 7.89 20.14l-1.51 24.62s24.13-5.97 23.37-20.14c-.76-14.17 12.82-12.68 13.57-19.4.75-6.71 9.04-47 9.04-47s-4.52-36.55 0-49.98-8.29-23.87-9.04-16.41c-.76 7.46-25.64 11.94-25.64 11.94s2.27-12.68 12.82-25.36 25.63-20.89 25.63-28.35c0-7.46-.76-15.67 3.77-20.89 4.54-5.23 9.83-20.89 9.83-20.89z" fill="#C16553"/><path fill-rule="evenodd" clip-rule="evenodd" d="M1362.97 309.02s-9.96-.4-12.97 1.47c-3.01 1.86-6.41 9.32-6.41 9.32l-9.79 5.22s-5.65 7.46-9.42 11.93c-3.77 4.47-16.9 13.36-15.07 17.53 1.83 4.17-15.45 17.15-22.99 19.02-7.54 1.86-23.78 9.9-25.62 13.42-1.84 3.53-26.39 10.44-28.64 12.68-2.26 2.24-11.69 14.17-16.2 16.03-4.52 1.86-27.51 10.44-32.41 14.54-4.9 4.1-23.74 9.32-23.74 9.32l-19.22 3.9s6.77 5.05 16.95 5.05 4.15 21.25 1.51 22c-2.64.75-21.48 6.71-22.99 10.44-1.5 3.73-4.14 10.07-4.14 10.07s16.2.75 21.1-3.73c4.91-4.47 19.22-3.36 21.11-4.1 1.88-.75 22.61-6.71 26.38-10.07 3.77-3.36 24.49-16.03 28.64-20.51 4.14-4.47 8.22-13.33 15-12.59 6.78.75 7.24.28.83 7.37s-15.83 7.83-18.09 12.68-16.96 17.15-23.74 18.27c-6.78 1.12-16.96 10.44-16.96 10.44s13.56 1.12 18.84-2.61c5.28-3.73 17.71-10.44 17.71-10.44l10.93 1.49s-12.44 11.93-18.09 13.8c-5.65 1.86-13.19 10.44-13.19 10.44s-3.39 13.8-10.55 15.29c-7.16 1.49-18.47 19.02-18.47 19.02l-5.28 7.46s25.63-9.32 29.77-14.17c4.15-4.85 21.86-11.19 27.89-13.8 6.03-2.61 9.42-7.46 12.06-10.81 2.64-3.36 16.58-9.32 18.47-11.19 1.88-1.87 3.77-8.2 8.66-12.68 4.9-4.48 14.7-15.29 16.58-16.78 1.88-1.49 29.77-34.31 29.77-40.27 0-5.97 8.66-16.78 11.3-19.76 2.64-2.98 10.55-16.03 13.19-23.86 2.64-7.83 10.92-24.24 12.81-26.1 1.89-1.88 14.48-44.73 14.48-44.73zM1668.49 315.41s-5.73 8.87-9.13 16.33c-3.4 7.46-15.45 9.32-17.71 11.93-2.26 2.61-6.78 11.56-7.16 14.54-.37 2.98-13.19 34.68-11.68 38.78 1.5 4.1-7.54 19.02-9.42 20.14-1.88 1.12-16.21 15.29-12.06 15.29 4.14 0 19.21-5.59 22.23-9.69 3.01-4.1 17.33-6.71 17.71-10.44.37-3.73 3.01-8.95 3.01-8.95s3.01 14.54-8.66 27.22c-11.69 12.68-28.27 16.41-28.64 18.64-.37 2.24 0 26.47-4.14 28.71-4.15 2.24-23.34 22.48-23.34 27.7 0 5.22 30.87-12.79 36.52-25.09 5.65-12.31 12.43-23.12 18.46-26.85 6.03-3.73 20.73-7.83 22.99-15.66 2.26-7.83 8.66-21.25 11.3-26.1 2.64-4.85 7.54-21.25 7.16-23.87-.38-2.61-1.88-20.88 2.26-24.24 4.15-3.36.37-7.46 0-14.54-.37-7.09-.37-16.78 1.51-19.76 1.88-2.98 2.34-8.12 2.34-8.12s-5.65-7.09-13.55-5.97zM1541.04 490.96s-9.79 9.7-15.82 14.54c-6.03 4.85-30.91 8.58-33.16 14.54-2.26 5.97-21.48 14.17-23.74 16.03-2.27 1.86-6.03 14.54-6.79 16.78-.75 2.24-5.65 20.88-17.33 28.34-11.69 7.46-21.86 19.76-21.86 19.76l-15.44 11.33h47.48s15.83-10.96 20.72-17.67c4.9-6.71 17.33-17.15 19.21-20.51 1.88-3.36 7.92 9.69 4.15 16.78-3.77 7.08 13.19-.37 13.19-10.44s-8.66-27.22 2.64-30.58c11.3-3.36 15.83-10.07 16.96-14.54 1.13-4.47 10.93-16.03 10.93-16.03s9.79-6.34 9.04-13.05c-.74-6.71 3.02-14.54 8.67-17.15 5.65-2.6-18.85 1.87-18.85 1.87z" fill="#C16553"/><path fill-rule="evenodd" clip-rule="evenodd" d="M1228.29 531.98s-15.45-2.24-16.58 0c-1.13 2.24-12.81 6.34-19.21 8.2-6.41 1.86-14.7 12.31-14.7 12.31s-6.78 13.8-12.43 16.78c-5.65 2.98-13.19 15.66-15.45 18.27-2.26 2.61-19.97 12.68-19.97 12.68s1.88 4.47 22.23-3.36c20.34-7.83 27.88-14.92 29.76-19.76 1.88-4.85 9.8-23.49 13.57-21.63 3.77 1.86-3.4 11.93-3.4 11.93s7.54 2.61 11.3-8.2c3.77-10.81 9.42-17.15 13.94-17.15s20.35-1.86 22.61-4.48c2.27-2.61 21.48-4.85 21.48-4.85s13.57-5.59-33.15-.74zM1519.95 241.5s-2.27 13.8-5.28 16.41c-3.01 2.61-12.81 8.95-12.81 8.95l-6.79 11.19s-.19-10.15 2.26-13.31c2.44-3.17 6.4-6.15 7.53-7.45 1.13-1.3 4.56-14.25 4.56-14.25l10.53-1.54zM1534.8 248.89s-2.27 7.64-2.27 9.32c0 1.68-1.88 6.89-3.01 8.2-1.13 1.3-6.59 1.86-6.59 1.86s2.07-2.8 3.95-9.88c1.88-7.08 3.96-7.45 4.15-9.69.19-2.23 9.79-5.21 3.77.19zM1528.61 320.62s-8.26 6.25-8.26 10.33-2.18 24.51-3.88 26.67c-1.7 2.16-10.93 19.94-10.93 19.94s-9.95 7.21-10.92 9.13c-.97 1.92-3.64-1.2.24-7.69s9.71-2.64 9.71-13.45c0-10.81-1.45-18.02 1.22-20.9 2.67-2.88 2.91-12.49 5.09-16.58 2.19-4.08 17.73-7.45 17.73-7.45zM1399.92 374.84s-5.06 15.54-7.34 19.04c-2.29 3.5-8.4 10.27-9.77 12.54-1.36 2.27-5.99 13.28-7 15.69-1.01 2.41-9.53 4.37-9.97 7.83-.43 3.45-1.64-.47 2.72-6.95s7.82-6.47 8.01-9.82c.18-3.35 3.56-15.28 6.34-16.56 2.78-1.28 7.75-18.41 17.01-21.77zM1450.98 278.19s-2.33 6.26-2.51 8.55c-.17 2.28-2.36 6.72-3.39 8.02-1.03 1.3-2.71 5.08-2.84 6.91-.14 1.83-1.05 7.73-2.35 9.48-1.29 1.74-7.64 1.73-8.73 3.83-1.09 2.1-1.02-1.91 1.97-4.56 2.98-2.65 7.33-1.75 6.45-4-.87-2.25-1.02-4.9-.14-5.87.89-.97.66-.62 1.28-3.68.62-3.07 5.62-7.86 5.03-9.17-.59-1.31 2.36-9.7 5.23-9.51zM1343.59 319.81s1.91 6-.6 7.33c-2.52 1.33-3.17 9.45-3.92 12.06-.75 2.61-3.96-.18-2.27-3.62s3.27-3.31 2.54-4.75 2.07-5.02 2.07-5.02l.07-4.87 2.11-1.13zM1330.4 338.46c-.68-.21-1.88 3.63-2.54 5.86-.65 2.23-1.88 4-2.35 4.75-.47.74-4.42 1.68-5.27 3.63-.85 1.95-2.22-2.52.58-3.73 2.81-1.2 3.15-1.79 3.95-3.15.8-1.37 5.63-7.36 5.63-7.36zM1283.3 564.79s9.79 1.86 13.56-.75c3.77-2.61 7.54-2.61 11.69-2.61 4.14 0 16.2-2.98 18.08-4.85 1.88-1.86-.76-10.07 12.43-14.17 13.2-4.1 21.11-6.34 23.36-10.44 2.27-4.1 18.47-12.68 18.47-12.68s-4.52-2.98-13.94 2.61-13.56 8.2-20.35 11.19c-6.78 2.98-14.5 8.88-14.5 8.88s3.2-12.23 9.23-15.59c6.02-3.36-7.54-1.49-12.43 10.44-4.91 11.93-11.31 13.8-13.2 14.54-1.88.75-16.96 4.1-19.21 5.97-2.26 1.87-28.86 6.28-13.19 7.46zM1348.87 461.88s-18.84 2.98-20.35 6.71c-1.5 3.73-6.02 7.83-7.91 8.58-1.88.75-6.79 7.46-6.79 7.46l-8.66 8.95s-10.25.72-12.32 2.77c-2.07 2.05 3.58.19 7.16.75 3.57.56 10.54-2.8 12.8-4.47 2.26-1.68 4.9-4.66 8.85-6.52 3.95-1.86 7.35-2.98 9.23-5.4 1.88-2.42 4.32-8.57 8.85-11.37 4.51-2.82 27.86-7.1 9.14-7.46zM1513.15 430.56c.56-.93 0-6.89 3.57-9.32 3.58-2.42 4.71-8.76 4.71-9.87 0-1.12 3.77-6.89 3.77-6.89s-2.82-1.86-6.02 5.78c-3.2 7.64-9.41 7.27-10.36 10.06-.94 2.8-.94 7.64-.94 10.62-.01 2.98-3.02 22.54 5.27-.38zM1420.09 419.37s-5.42 7.66-5.42 10.26c0 2.6-1.5 5.22-2.07 6.89-.57 1.68-5.08 8.2-4.33 8.94.76.74 3.96-2.8 6.03-4.85 2.07-2.05 4.33-7.08 4.33-9.32 0-2.22 9.6-12.84 1.46-11.92zM1271.99 382.47s-9.9 1.57-10.7 3.53c-.79 1.96-3.16 4.11-4.15 4.51-.99.39-3.57 3.92-3.57 3.92l-4.56 4.7s-5.39.38-6.47 1.45c-1.09 1.08 1.88.1 3.76.39 1.88.29 5.54-1.47 6.73-2.35 1.19-.88 2.57-2.45 4.65-3.43 2.09-.98 3.87-1.57 4.86-2.84.99-1.27 2.27-4.5 4.65-5.97 2.37-1.47 14.64-3.72 4.8-3.91zM1232.83 432.82s4.9.93 6.78-.37c1.88-1.31 3.77-1.31 5.84-1.31 2.08 0 8.1-1.49 9.05-2.42.94-.93-.37-5.03 6.22-7.08s10.55-3.17 11.68-5.22c1.13-2.05 9.23-6.34 9.23-6.34s-2.26-1.49-6.97 1.3c-4.71 2.8-6.79 4.1-10.18 5.59-3.4 1.49-7.26 4.44-7.26 4.44s1.6-6.12 4.62-7.79c3.01-1.68-3.77-.75-6.22 5.22-2.44 5.97-5.65 6.9-6.59 7.27-.94.37-8.48 2.05-9.61 2.98-1.13.94-14.44 3.14-6.59 3.73z" fill="#CE7C72"/><path fill-rule="evenodd" clip-rule="evenodd" d="M1294.78 384.39s4.94-.69 6.3-2.53c1.35-1.84 3.14-2.44 5.09-3.11 1.96-.66 7.18-4.01 7.77-5.19.58-1.18-2.01-4.64 3.56-8.7 5.57-4.05 8.95-6.38 9.34-8.68.4-2.3 6.67-8.96 6.67-8.96s-2.63-.69-6.17 3.47-5.08 6.05-7.79 8.55c-2.72 2.5-5.41 6.52-5.41 6.52s-.49-6.3 1.82-8.85c2.3-2.55-3.81.5-4.18 6.93-.36 6.43-3.09 8.34-3.86 8.99-.77.66-7.35 4.66-8.12 5.9-.76 1.26-12.62 7.61-5.02 5.66zM1436.91 334.53c.57-.93 0-6.89 3.58-9.32 3.58-2.42 4.71-8.76 4.71-9.88 0-1.12 3.77-6.89 3.77-6.89s-2.82-1.86-6.02 5.78c-3.21 7.64-9.42 7.27-10.37 10.06-.94 2.79-.94 7.64-.94 10.62-.01 2.99-3.02 22.55 5.27-.37zM1497.87 249.95s-6.57 8.7-9.21 13.92c-2.63 5.22-1.88 11.56-3.39 16.41-1.51 4.85-9.05 12.31-9.42 14.54-.38 2.24-4.15 8.2-5.28 11.56-1.13 3.36-9.42-1.86-5.65-7.46 3.77-5.59 6.02-11.93 6.02-16.03 0-4.1-4.51 0-7.15 4.1-2.64 4.1-6.03-.75-1.51-7.46 4.52-6.71 6.97-9.72 7.16-16.41.2-6.68 7.9-7.73 12.06-10.39 4.15-2.65 25.26-9.33 16.37-2.78zM1458.35 310.01s.37 1.49-1.13 7.45c-1.51 5.96-4.15 6.71-5.83 10.06-1.7 3.35-8.1 9.13-8.1 9.13s-.38-5.4 1.88-9.32c2.26-3.91 4.14-3.91 5.46-8.2 1.32-4.28 10.17-16.39 7.72-9.12zM1416.93 336.46s-2.82 3.17-4.52 7.45c-1.7 4.29-7.71 5.85-9.11 9.23-1.39 3.38-4.64 13.88-5.95 15.74-1.32 1.86 7.15.19 8.85-2.05 1.7-2.24 3.21-10.25 5.65-12.11 2.45-1.86 8.47-5.22 8.47-9.32-.01-4.09 6.4-13.97-3.39-8.94zM1450.98 382.45s-4.52 7.83-5.65 14.54c-1.13 6.71-4.52 13.42-6.41 14.17-1.88.75-9.79-1.12-12.43 1.49-2.64 2.61-9.42 0-11.69 5.59-2.26 5.59-9.04 11.93-11.3 14.92-2.26 2.98-3.77-1.86.76-7.83 4.52-5.97 4-12.47 6.08-15.08 2.07-2.61-3.77-5.22-4.9-3.73-1.13 1.49-1.31-1.12 1.7-6.52 3.01-5.4 4.33-8.2 6.22-10.06 1.88-1.86 1.7.75 2.26 5.22.57 4.47-2.44 9.69.2 9.5 2.63-.19 5.27-.37 6.96-3.73 1.7-3.35.94-5.03 3.2-9.5 2.27-4.47 8.47-5.03 8.67-6.15.19-1.12 7.15-8.01 9.23-10.43 2.07-2.42-.38 1.68 2.26 2.24 2.61.55 7.69-.94 4.84 5.36zM1342.46 480.15s7.54-8.58 13.19-8.2c5.65.37 10.55-2.24 13.94-5.59 3.4-3.37-2.64 15.65-27.13 13.79zM1307.42 502.15s13.93-5.22 18.84-7.83c4.9-2.61 9.04-7.46 11.3-6.34 2.26 1.12 3.01 6.34-2.27 9.69-5.27 3.36-13.19.75-16.57 5.97-3.39 5.22-30.15 1.49-11.3-1.49zM1221.88 502.89s9.8-2.61 14.7-7.83c4.9-5.22 9.42-12.31 12.06-14.17 2.64-1.86 9.79-10.07 10.92-12.68 1.14-2.61-9.42 2.61-13.93 6.71-4.52 4.1-13.2 11.19-17.71 13.05-4.52 1.86-14.33 6.71-15.83 12.31-1.51 5.59 7.54-2.98 13.56-5.22 6.03-2.23-3.77 7.83-3.77 7.83zM1403.3 410.22s.14.57-.43 2.85c-.58 2.28-1.59 2.57-2.24 3.85-.64 1.28-3.1 3.5-3.1 3.5s-.14-2.07.72-3.57c.87-1.5 1.58-1.5 2.09-3.14.51-1.63 3.9-6.27 2.96-3.49zM1355.87 485.16s-.1.93-2 4.02c-1.9 3.09-3.36 2.94-4.85 4.5-1.5 1.55-5.8 3.48-5.8 3.48s.85-3.17 2.74-4.92c1.88-1.75 2.82-1.35 4.3-3.51 1.48-2.18 8.24-7.2 5.61-3.57zM1390.77 478.92s11.48-12.09 14.92-16.98c3.43-4.89 4.32-11.21 7.69-11.55 3.37-.34 8.21 3.55 4.92 9.27-3.28 5.72-14.08 7.98-13.84 14.18.25 6.21-32.33 18.07-13.69 5.08z" fill="#CE7C72"/></svg>