<svg width="1600" height="600" fill="none" xmlns="http://www.w3.org/2000/svg" viewBox="0 0 1600 600"><path d="M1600 0H0v600h1600V0z" fill="#F5FCFF"/><path d="M1543.7 393.9v-1.4h-83v1.4h-35.4v179.9h153.8V393.9h-35.4zM476.6 346.3v-4h-23.7v4H445v227.5h53.5V346.3h-21.9z" fill="#97D0E8"/><path d="M1337.6 368.8v-7.9h-6.1v-9.7h78.8v8.8h11.4v8.8h11.5v205h-105.5v-205h9.9z" fill="#97D0E8"/><path d="M143.4 371.9v-2.6h-42v-2.2H42.5v4.8h-75.8v201.9h208.5V371.9h-31.8z" fill="#D7EFFA"/><path d="M776 417.3v-5.5h-32v5.5h-33.4v-5.5h-31.9v5.5H572.6v156.5h329.3V417.3H776z" fill="#97D0E8"/><path d="M439.7 282.6v-22c-24.9 1-60-1.7-98.6-8.2-35.2-6-66.8-14-89.9-22.4l-1.1-.2h-33v52.7h15.3v2.4h-15.3v3.9h15.3v2.4h-15.3v3.9h15.3v2.4h-15.3v3.9h15.3v2.4h-15.3v3.9h15.3v2.4h-15.3v3.9h15.3v2.4h-15.3v3.9h15.3v2.4h-15.3v3.9h15.3v2.4h-15.3v3.9h15.3v2.4h-15.3v3.9h15.3v2.4h-15.3v3.9h15.3v2.4h-15.3v3.9h15.3v2.4h-15.3v3.9h15.3v2.4h-15.3v3.9h15.3v2.4h-15.3v3.9h15.3v2.4h-15.3v3.9h15.3v2.4h-15.3v3.9h15.3v2.4h-15.3v3.9h15.3v2.4h-15.3v3.9h15.3v2.4h-15.3v3.9h15.3v2.4h-15.3v3.9h15.3v2.4h-15.3v3.9h15.3v2.4h-15.3v3.9h15.3v2.4h-15.3v3.9h15.3v2.4h-15.3v3.9h15.3v2.4h-15.3v3.9h15.3v2.4h-15.3v3.9h15.3v2.4h-15.3v3.9h15.3v2.4h-15.3v3.9h15.3v2.4h-15.3v3.9h15.3v2.4h-15.3v3.9h15.3v2.4h-15.3v3.9h15.3v2.4h-15.3v3.9h15.3v2.4h-15.3v3.9h15.3v2.4h-15.3v3.9h15.3v2.4h-15.3v3.9h15.3v2.4h-15.3v3.9h15.3v2.4h-15.3v3.9h15.3v2.4h-15.3v3.9h15.3v2.4h-15.3v3.9h15.3v2.4h-15.3v3.9h15.3v2.4h-15.3v3.9h15.3v2.4h-15.3v3.9h15.3v2.4h-15.3v3.9h15.3v2.4h-15.3v3.9h15.3v2.4h-15.3v3.9h15.3v2.4h-15.3v5.6h222.6v-5.6h-14.6V566h14.6v-3.9h-14.6v-2.4h14.6v-3.9h-14.6v-2.4h14.6v-3.9h-14.6v-2.4h14.6V543h-14.6v-2.4h14.6v-3.9h-14.6v-2.4h14.6v-3.9h-14.6V528h14.6v-3.9h-14.6v-2.4h14.6v-3.9h-14.6v-2.4h14.6v-3.9h-14.6v-2.4h14.6v-3.9h-14.6v-2.4h14.6V499h-14.6v-2.4h14.6v-3.9h-14.6v-2.4h14.6v-3.9h-14.6V484h14.6v-3.9h-14.6v-2.4h14.6v-3.9h-14.6v-2.4h14.6v-3.9h-14.6v-2.4h14.6v-3.9h-14.6v-2.4h14.6v-3.9h-14.6v-2.4h14.6v-3.9h-14.6v-2.4h14.6v-3.9h-14.6v-2.4h14.6V436h-14.6v-2.4h14.6v-3.9h-14.6v-2.4h14.6v-3.9h-14.6V421h14.6v-3.9h-14.6v-2.4h14.6v-3.9h-14.6v-2.4h14.6v-3.9h-14.6v-2.4h14.6v-3.9h-14.6v-2.4h14.6V392h-14.6v-2.4h14.6v-3.9h-14.6v-2.4h14.6v-3.9h-14.6V377h14.6v-3.9h-14.6v-2.4h14.6v-3.9h-14.6v-2.4h14.6v-3.9h-14.6v-2.4h14.6v-3.9h-14.6v-2.4h14.6v-3.9h-14.6v-2.4h14.6v-3.9h-14.6v-2.4h14.6v-3.9h-14.6v-2.4h14.6V329h-14.6v-2.4h14.6v-3.9h-14.6v-2.4h14.6v-3.9h-14.6V314h14.6v-3.9h-14.6v-2.4h14.6v-3.9h-14.6v-2.4h14.6v-3.9h-14.6v-2.4h14.6v-3.9h-14.6v-2.4h14.6V285h-14.6v-2.4h14.6z" fill="#D7EFFA"/><path d="M1524.2 430.8v-15.1h-1.6v-88.1h-2.3v-11.1h1.9c.2 0 .4-.4.4-.9s-.2-.9-.4-.9h-2.4c.1-.3.1-.5.1-.8v-24.3c0-1.4-1-2.6-2.4-2.9.1-.7.1-1.5.1-2.3 0-3.8-.9-7.2-2.5-10 .2-3.5-.8-6.1-2-8.6.1-.6.2-1.1.1-1.7-.5-3.8-1.6-6.4-3.4-9v-.9c0-2-.6-3.9-1.6-5.1v-.9c0-3.8-.6-7.1-1.5-9-.1-4.1-.6-7.5-1.2-8.9 0-13.8-.3-24.8-.7-24.8-.4 0-.7 11-.7 24.8-.7 1.4-1.2 4.8-1.2 8.9-.9 2-1.5 5.3-1.5 9v.9c-1 1.3-1.6 3.1-1.6 5.1v.9c-1.6 2.2-2.9 5.1-3.4 9-.1.6 0 1.1.1 1.7-1.2 2.4-2.3 5.3-2 8.6-1.6 2.8-2.5 6.3-2.5 10 0 .8 0 1.5.1 2.3-1.4.2-2.4 1.5-2.4 2.9V314c0 .3 0 .5.1.8h-2.4c-.2 0-.4.4-.4.9s.2.9.4.9h1.9v11.1h-2.3v88.1h-1.6v15.1h-4.8v143H1528.8v-143h-4.6v-.1z" fill="#006FA6"/><path d="M1265.6 416.7h-3.7v-40.1h-3v-3.9h-3.2v-25.8h3.2v-4.2h-5.7l-18.8-45.5h-.3v-25.9h-4.6v25.9h-.4l-18.8 45.5h-5.7v4.2h3.2v25.8h-3.2v3.9h-3v40.1h-3.6v15.9h3.5v141.2h60.6V432.6h3.5v-15.9z" fill="#97D0E8"/><path d="M549.5 382v-55.2h-4.8v-20h-3.1v-8.7h-8.2v-3.2h3.2v-4.1h-12v-9.6l-1.9-1.9v-6.8l-2.2-2.1v-6.9l-1.6-1.6v-12.4l-2.8-2.8v-6.8l-3.8-2.5v-2.8l-2.9-2.8h.1v-9h-1v9l-2.8 2.8v2.8l-3.9 2.5v6.8l-2.8 2.8v12.4l-1.6 1.6v6.9l-2.1 2.1v6.8l-2 1.9v9.6h-11.9v4.1h3.1v3.2h-8.1v8.7h-3.2v20h-4.8V382h-2.6v191.8h86.3V382h-2.6z" fill="#D7EFFA"/><path d="M1152 496.3c0-2.4-1.4-4.5-3.3-5.1.1-.5.2-1 .2-1.5 0-2.1-1.2-3.9-2.8-4.5.2-.2.3-.4.3-.7 0-.4-.3-.8-.7-.9.1-.2.2-.4.2-.6 0-.5-.3-.9-.6-.9s-.6.4-.6.9c0 .3.1.5.2.7-.3.2-.5.5-.5.9 0 .2 0 .3.1.5l-2-4.5c.1-.5.2-1 .2-1.5 0-3.1-1.9-5.6-4.4-6.2v-.2c0-.3-.3-.6-.6-.6h-1.4c-.3 0-.6.3-.6.6v.1h-2.5v-.1c0-.5-.4-1-.8-1.1.1-.2.2-.4.2-.7v-.6c0-.6-.5-1.1-1.1-1.1-.3 0-.6.1-.8.3-.3-.2-.6-.3-.9-.3-.8 0-1.5.7-1.5 1.5v.3c-.1 0-.2-.1-.3-.1v-.3c0-.5-.4-.9-.9-.9h.9c.4 0 .8-.3.8-.7 0-.3-.1-.5-.4-.7h.2c.3 0 .6-.3.6-.6 0-.4-.3-.6-.6-.6h-2.2v-.2c0-.4-.3-.8-.8-.8h-.5c0-.1-.1-.2-.1-.2h.4c.2 0 .3-.1.3-.3 0-.2-.1-.3-.3-.3h-.4V464c0-.3-.3-.6-.6-.6s-.6.3-.6.6v1.3h-.7c-.2 0-.3.1-.3.3 0 .1.1.2.1.2-.1.1-.1.2-.2.3-.3.1-.6.4-.6.8v.2h-.3V459h.6v-.7h-.3v-.7h1.1v-1.7h.9V454h.7v-.9h-1.2v-.9h.7v-.9h.7v-1.1h-3.4c0-.8-.7-1.5-1.5-1.5s-1.5.7-1.5 1.5h-3c0-.8-.7-1.5-1.5-1.5s-1.5.7-1.5 1.5h-3c0-.8-.7-1.5-1.5-1.5s-1.5.7-1.5 1.5h-1V446h-.5v-2.6h-1.2v-.7h-3.4v-1.9h.9v-2.1h-.7c.3-.2.4-.4.2-.7-.1-.2-.3-.3-.4-.4-.1 0-.3-.1-.3-.1.3-.1.6-.9.7-1 .2-.2.6-.7.7-.8.3-.1.4-.2.6-.4.3-.3.3-.9 0-1.2-.3-.3-.8-.3-1.1-.5.6-.6.3-2.3-.6-2-.3.1-.5.9-.5.8-.1-.2-.2-.4-.3-.5-.2-.4-.3-.9-.5-1.3.8-.5 1.2-1.7 1.2-2.6 0-1.1-1.2-1.3-1.9-.8-.7.4-.4 1.4-.7 2-.1.2-.2.3-.3.4-.2-.1-.5-.3-.8-.4-.1 0-.3-.4-.4-.5-.1-.3-.4-.8-.5-1.2 0-.2-.1-.5-.1-.5.2-.9-.2-1.6-.6-2.4-.4-.8-.8-1.5-1.3-2.2.7-.5 1.6-1 2.3-1.5 1-.7 2.6-2.9 2.5-3 .2-.5.3-1 .2-1.5 0 0 0-.1-.1-.1 0-.1-.1-.2-.1-.3-.1-.1-.3-.2-.4-.1 0 0-.1 0-.1.1-.3.1-.3.6-.3.7-.2 1-.9 2-1.6 2.6-.7.6-1.5.7-2.2.9.7-.8 1.2-1.7 1.6-2.7.6-1.5 2.6-5.4 2.9-5.9.3-.5-.4-.9-.7-.4-.3.4-2.7 4.1-3.5 5.5-.5.8-1 1.7-1.4 2.5.1-.5.1-1.3-.2-1.9-.2-.6-1.7-.6-2.1.1-.4.6-.2 1.5 0 2.2h-.3c-.1-.1-4.2-8.3-5-8.5-.9-.2-.6.8-.6.9.9 1.8 1.5 3.8 2.3 5.7.2.5.5 1 .8 1.5-.1 1.1-.8 2-.7 3.2 0 .4.2.9.5 1.2.1.1.1.2.2.2v.4c-.3.1-.4.5-.2.7.4.3.5.8.5 1.3 0 .6-.6.7-1 1-.5.4-.8.8-.9 1.4v.8c-.1.2-.3.5-.3.5-.6 0-.8-.2-.5-.5 0-.1.1-.2.1-.3.1-.6-.1-1-.5-1.4-.8-.8-2.1-.2-2.3.8-.2 1.1.4 1.6 1.2 2.2 0 0-.3 1.4-.9 1.9-.2.2-.5.4-.7.7-.1.3-.2.5-.2.8 0 .3.1.7-.4.6-.2-.1-.6.1-.5.4.1.8 0 1.4.4 2.1.2.3.4.5.6.8.2.2.3.4.4.7.2.3.2.6.1.9-.3-.5-1-.1-.7.4.2.4.6.7 1.1.6v.6h1.7v1.9h-3.4v.7h-1.2v2.6h-.5v4.9l-2.9-1.3v-4.3h-.8V444h-.8c0-.1 0-.3-.1-.4-.8-.7-1.7-.5-2.7-.5.3-.4.6-.6 1-.9.3-.2.7-.4.9-.8.4-.9-.3-1.4-.4-2.2v-.1c.4-.3.8-.6 1.1-.9.4-.4.7-.7 1.1-1l.1-.1c.2.1.4.3.6.5.2.1.4.3.5.4-.1.1-.1.2-.1.3 0 .2.2.4.4.4h.6c.2 0 .4-.2.4-.4 0 0-.1-.3-.1-.4-.5-.5-1.1-.8-1.6-1.3-.3-.2-.7-.5-1.1-.4-.5.1-.8.4-1.2.8-.4-.3-1.2-1.2-1.4-1.1.2-.1.3-.6.3-.7 0-.5-.1-.9-.5-1.3-.3-.3-1-.5-1.1-1.1-.1-.7-.8-.4-.9-.3-.3.3-.6.6-.9.8 0-.2-.3-1.6-.6-1.5-.5.2-.9.6-1.2 1-.4.4-.9.8-1.2 1.2-.6.7-.9 1.5-.6 2.4.5 1.6 2.5 2.2 3.8 3 0 0-.1.1-.2.1-.2 0-.4 0-.6.1-.4.1-.9.6-1 .6-.7-.4-2 .2-2.2.6-.3.4 0 2.6 0 2.7 0 .4.1.9.2 1.4 0 .1.3.8.6.5.3-.3.4-.7.4-.8 0-.7.3-1.3.3-2v-.7c0-.1.5-.4.5-.6.2.5.5 1.1.9 1.4.2.1.5.2.7.3.6.3.2.8-.1 1.1h-.2v1.7h-.8v.9s-42.9-23-43.2-23.4c.1-.1.3-.2.4-.3.6-.6.7-1.3.3-1.7-.4-.4-1.2-.3-1.7.3-.1.1-.3.3-.3.5-.3-.2-.7-.4-1.1-.6.4-.5.4-1.1.1-1.5-.4-.4-1.2-.3-1.7.3-.1.1-.2.3-.3.4l-.9-.3c.2-.4.2-.9-.1-1.1-.4-.4-1.2-.3-1.7.3-.1.1-.2.2-.3.4-.1 0-.3 0-.4-.1v-1.2h.6V416c.3-.2.3-.7-.1-.8-.4-.1-.7 0-.9-.6-.1-.2-.1-.4-.3-.5-.4-.3-.2-.3 0-.7.1-.3.1-.6.1-.9-.1-2 .1-4.3 1.6-5.7.1-.1.1-.2.1-.3.5.3.9-.5.4-.7-.6-.3-1.2-.3-1.8-.1-.3.1-.7.3-1 .2-.3 0-1-.6-.6-1 0 0 .4-.1.5-.4.1-.5.1-2-1.2-1.9-.4 0-.6.8-.6.8-.2.3 0 .6-.1.9 0 .3-.3.5-.3.7v.5c-.1.1-.3.1-.4.2-.1-.4.3-1.4.4-1.6.1-.3.3-.8 0-1.2-.1-.1-.2-.4-.4-.5-.1 0-.3-.4-.4-.5v-1.1c.1-.2.2-.5.2-.8.1-.7.3-1.9 0-2.6-.1-.4-.4-.7-.6-1-.3-.4-.1-.7-.3-1.2 0-.2-.1-.3-.1-.4.5-.2.9-.6.9-1.2 0-.2-.2-.4-.4-.4-.3 0-.4.2-.4.4 0 .1 0 .1-.1.2-.1-.2-.4-.4-.7-.1l-.1.1c0-.2-.6-.2-.6 0l-.1-.1c-.2-.2-.6-.1-.7.1 0-.1-.1-.1-.1-.2 0-.2-.2-.4-.4-.4s-.5.2-.4.4c.1.6.4 1 .9 1.2-.1.1-.1.2-.2.4-.1.4 0 .7-.3 1.2-.2.4-.4.7-.6 1-.3.7-.1 1.8 0 2.6 0 .3.1.5.2.8v.1c0 .3.1.7 0 1-.1.1-.7.8-.8 1-.2.3-.1.8 0 1.2.1.2.5 1.2.4 1.6-.1-.1-.3-.2-.4-.2v-.5c0-.3-.3-.5-.3-.7 0-.3.1-.7-.1-.9 0 0-.2-.8-.6-.8-.3 0-1.4-.1-1.2 1.9 0 .2.5.3.5.4.4.3-.2.9-.6 1-.3 0-.7-.1-1-.2-.6-.2-1.2-.2-1.8.1-.5.3 0 1 .4.7 0 .1 0 .2.1.3 1.4 1.5 1.6 3.8 1.6 5.7 0 .3 0 .6.1.9.2.4.4.4 0 .7-.2.1-.3.3-.3.5-.2.6-.4.5-.9.6-.4.1-.4.6-.1.8v2.1h.6v1.2c-.1 0-.3 0-.4.1-.1-.1-.2-.2-.3-.4-.5-.6-1.3-.7-1.7-.3-.3.3-.3.7-.1 1.1l-.9.3c-.1-.2-.2-.3-.3-.4-.5-.5-1.3-.7-1.7-.3-.3.3-.3 1 .1 1.5-.4.2-.8.4-1.1.6-.1-.2-.2-.3-.3-.5-.5-.6-1.3-.7-1.7-.3-.4.4-.3 1.2.3 1.7.1.1.3.2.4.3-.3.4-43.2 23.4-43.2 23.4v-.9h-.8v-1.7h-.2c-.3-.3-.7-.8-.1-1.1.2-.1.5-.2.7-.3.5-.3.7-.9.9-1.4.1.2.5.5.5.6v.7c0 .7.2 1.3.3 2 0 .1.1.5.4.8.3.3.6-.4.6-.5.1-.4.2-.9.2-1.4 0 0 .2-2.3 0-2.7-.3-.4-1.5-1-2.2-.6 0 0-.6-.4-1-.6-.2-.1-.4-.1-.6-.1-.1 0-.1 0-.2-.1 1.4-.8 3.3-1.4 3.8-3 .3-.9.1-1.7-.6-2.4l-1.2-1.2c-.3-.4-.7-.8-1.2-1-.3-.1-.6 1.2-.6 1.5-.3-.3-.7-.5-.9-.8-.1-.1-.8-.4-.9.3-.1.5-.8.8-1.1 1.1-.4.3-.5.8-.5 1.3 0 .1.1.6.3.7-.2-.1-1 .7-1.4 1.1-.4-.3-.7-.6-1.2-.8-.4-.1-.8.1-1.1.4-.5.4-1.1.8-1.6 1.3-.1.1-.2.3-.2.4 0 .2.2.4.4.4h.6c.2 0 .4-.2.4-.4 0-.1 0-.2-.1-.3.2-.1.4-.2.5-.4.2-.2.4-.4.6-.5 0 0 0 .1.1.1.4.3.7.7 1.1 1 .3.3.8.6 1.1.9v.1c-.1.9-.8 1.4-.4 2.2.2.3.6.6.9.8.4.3.7.5 1 .9-.9 0-1.9-.2-2.7.5-.1.1-.1.3-.1.4h-.8v1.7h-.8v4.3l-2.9 1.3v-4.9h-.5v-2.6h-1.2v-.7h-3.4v-1.9h1.7v-.6c.5.1.9-.2 1.1-.6.2-.5-.5-.9-.7-.4-.1-.3-.1-.6.1-.9.1-.3.3-.5.4-.7.2-.3.5-.5.7-.8.4-.7.3-1.3.4-2.1 0-.3-.3-.5-.5-.4-.5.1-.4-.3-.4-.6s-.1-.5-.2-.8c-.1-.3-.4-.5-.7-.7-.6-.5-.9-1.9-.9-1.9.7-.5 1.4-1.1 1.2-2.2-.2-1-1.5-1.6-2.3-.8-.4.4-.6.8-.5 1.4 0 .1.1.2.1.3.3.3.1.5-.6.5 0 0-.3-.3-.3-.5v-.8c-.1-.6-.4-1-.9-1.4-.4-.3-1-.3-1-1 0-.5.1-1 .5-1.3.2-.2.1-.7-.2-.7v-.4c.1-.1.1-.2.2-.2.3-.3.5-.8.5-1.2.1-1.1-.6-2.1-.7-3.2.3-.5.6-1 .8-1.5.8-1.8 1.4-3.9 2.3-5.7 0-.1.3-1.1-.6-.9-.9.2-4.9 8.4-5 8.5h-.3c.2-.8.4-1.7 0-2.2-.5-.7-1.9-.7-2.2-.1-.2.6-.3 1.4-.2 1.9-.5-.9-.9-1.7-1.4-2.5-.8-1.4-3.2-5.1-3.5-5.5-.3-.4-1 0-.7.4.3.5 2.3 4.4 2.9 5.9.4 1 .9 1.9 1.6 2.7-.8-.1-1.5-.3-2.2-.9-.8-.6-1.5-1.6-1.6-2.6 0 0 0-.6-.3-.7-.1 0-.1 0-.1-.1-.1 0-.3 0-.4.1-.1.1-.1.2-.1.3 0 0 0 .1-.1.1-.1.5 0 1 .2 1.5 0 .1 1.5 2.2 2.5 3 .7.5 1.5 1 2.3 1.5-.6.7-1 1.4-1.4 2.2-.4.8-.8 1.5-.6 2.4 0 0 0 .4-.1.5-.1.4-.4.8-.5 1.2 0 .2-.3.5-.4.5-.3.1-.5.2-.8.4-.1-.1-.2-.2-.3-.4-.3-.6 0-1.6-.7-2-.8-.5-1.9-.3-1.9.8 0 .9.4 2.1 1.2 2.6-.2.4-.3.9-.5 1.3-.1.2-.2.4-.3.5-.1.1-.2-.7-.5-.8-.9-.3-1.2 1.4-.6 2-.3.2-.8.2-1.1.5-.3.3-.3.9 0 1.2.2.2.4.3.6.4.1 0 .5.5.7.8 0 .1.4.9.7 1 0 0-.2.1-.3.1-.2 0-.4.2-.4.4-.2.3 0 .6.2.7h-.7v2.1h1v1.9H919v.7h-1.2v2.6h-.5v4.2h-1c0-.8-.7-1.5-1.5-1.5s-1.5.7-1.5 1.5h-3c0-.8-.7-1.5-1.5-1.5s-1.5.7-1.5 1.5h-3c0-.8-.7-1.5-1.5-1.5s-1.5.7-1.5 1.5h-3.4v1.1h.7v.9h.7v.9h-1.2v.9h.7v1.8h.9v1.7h1.1v.7h-.3v.7h.6v8.1h-.3v-.2c0-.4-.3-.7-.6-.8 0-.1-.1-.2-.2-.3.1 0 .1-.1.1-.2 0-.2-.1-.3-.3-.3h-.7v-1.3c0-.3-.3-.6-.6-.6s-.6.3-.6.6v1.3h-.4c-.2 0-.3.1-.3.3 0 .2.1.3.3.3h.4c-.1.1-.1.1-.1.2h.2c-.4 0-.8.3-.8.8v.2H895c-.4 0-.6.3-.6.6 0 .4.3.6.6.6h.2c-.2.1-.4.4-.4.7 0 .4.3.7.7.7h.9c-.5 0-.9.4-.9.9v.3c-.1 0-.2 0-.4.1v-.3c0-.8-.7-1.5-1.5-1.5-.4 0-.7.1-.9.3-.2-.2-.5-.3-.8-.3-.6 0-1.1.5-1.1 1.1v.6c0 .3.1.5.2.7-.5.2-.8.6-.8 1.1v.1H888v-.1c0-.3-.3-.6-.6-.6H886c-.3 0-.6.3-.6.6v.2c-2.5.6-4.4 3.2-4.4 6.2 0 .5.1 1 .2 1.5l-2 4.5c.1-.1.1-.3.1-.5 0-.4-.2-.7-.5-.9.1-.2.2-.4.2-.7 0-.5-.3-.9-.6-.9s-.6.4-.6.9c0 .2.1.4.2.6-.4.1-.7.5-.7.9 0 .3.1.5.3.7-1.6.6-2.8 2.4-2.8 4.5 0 .5.1 1 .2 1.5-1.9.7-3.3 2.7-3.3 5.1 0 .3 0 .6.1.8h-.1V573H1152v-76.6h-.1c.1.5.1.2.1-.1zm-141.2-98.5c.3.3 2 .3 2.3 0 .1.4.2.8.2 1.3 0 .8-.2 1.5-.5 2.2.1-.7.3-1.7-.1-2.2-.2-.3-1.2-.3-1.3 0-.4.5-.2 1.5-.1 2.2-.4-.7-.5-1.4-.5-2.2-.2-.5-.1-.9 0-1.3z" fill="#006FA6"/><path d="M1043.3 569.6l-33.4-59.8v-7.5h1.3v-1.6h-1.7v-5.4h1.7v-1.6h-8.5c-5.6-13-13.3-45.4-15.1-52.5h3.8v-5.8h-1.9v-3h-2.9c-.1 0-.2-.1-.4-.1-4-1.3-12.2-141.1-12.9-152.2v-.2h1v-.8h2.4v-8.5h-1v-4.4h-1.3v-4.6H971l-.4-2.9h-.8v-.7c0-.8-.2-1.5-.4-1.5h-1V255h.5c.1 0 .3-.1.3-.3 0-.2-.1-.3-.3-.3h-.5v-1.2h.5c.1 0 .3-.1.3-.3 0-.1-.1-.3-.3-.3h-.5v-2.9h.5c.1 0 .3-.1.3-.3 0-.2-.1-.3-.3-.3h-.5v-1.6h.5c.1 0 .3-.1.3-.3 0-.2-.1-.3-.3-.3h-.5c0-.3-.2-.6-.5-.8v-11.2h.9v-1.7h-.9c0-.2-.2-.4-.4-.4s-.4.2-.4.4h-.9v1.7h.9v11.2c-.3.1-.5.4-.5.8h-.5c-.2 0-.3.1-.3.3 0 .2.1.3.3.3h.5v1.6h-.5c-.2 0-.3.1-.3.3 0 .1.1.3.3.3h.5v2.9h-.5c-.2 0-.3.1-.3.3 0 .2.1.3.3.3h.5v1.2h-.5c-.2 0-.3.1-.3.3 0 .1.1.3.3.3h.5v1.5h-1c-.2 0-.4.7-.4 1.5v.7h-.8l-.4 2.9h-3.4v4.6h-1.3v4.4h-1v8.5h2.5v.8h.9v.2c-.6 11.1-8.8 150.9-12.9 152.2-.2 0-.3.1-.4.1h-2.9v3h-1.9v5.8h3.4c-1.9 7.1-9.1 39.5-14.7 52.5h-8.5v1.6h1.7v5.4h-1.7v1.6h1.3v7.5l-33.4 59.8H890v4.2h35v-4.2h-2.1c1.5-23 21-41.3 44.9-41.3s43.4 18.2 44.9 41.3h-2.2v4.2h35v-4.2h-2.2zm-60.8-68.9h-9.7v-5.4h8.9l.8 5.4zm-7.8-57.6v2.4h-2.4v-2.4h2.4zm-5.3 2.4v-2.4h2.4v2.4h-2.4zm2.4.6v2.4h-2.4v-2.4h2.4zm-9.1-12.2l5-52.5 5 52.5h-10zm3.9 11.6v-2.4h2.4v2.4h-2.4zm2.4.6v2.4h-2.4v-2.4h2.4zm-5.3-.6v-2.4h2.4v2.4h-2.4zm2.5.6v2.4h-2.4v-2.4h2.4zm6 0h2.4v2.4h-2.4v-2.4zm-11.3-3h2.4v2.4h-2.4v-2.4zm0 3h2.4v2.4h-2.4v-2.4zm-1 4h15.7l5.8 43.7H954l5.9-43.7zm-6 45.3h8.9v5.4h-9.7l.8-5.4zM934.8 539l-1.8-1.9c.6-.6 1.3-1.2 2-1.8l1.7 2c-.6.5-1.2 1.1-1.9 1.7zm2.3-2l-1.7-2c.7-.6 1.4-1.1 2.1-1.7l1.6 2.1c-.7.5-1.3 1-2 1.6zm2.4-1.9l-1.6-2.1c.7-.5 1.5-1.1 2.2-1.5l1.4 2.2c-.6.4-1.3.9-2 1.4zm2.5-1.8l-1.4-2.2c.8-.5 1.5-.9 2.3-1.4l1.3 2.3c-.7.4-1.5.9-2.2 1.3zm2.7-1.5l-1.3-2.3 2.4-1.2 1.1 2.4c-.7.3-1.5.7-2.2 1.1zm2.7-1.4l-1.1-2.4c.8-.4 1.6-.7 2.5-1.1l1 2.4c-.9.4-1.6.8-2.4 1.1zm2.8-1.2l-.9-2.4c.8-.3 1.7-.6 2.5-.9l.8 2.5c-.8.2-1.6.5-2.4.8zm2.9-1l-.8-2.5c.9-.3 1.7-.5 2.6-.7l.7 2.5c-.9.2-1.7.4-2.5.7zm2.9-.8l-.6-2.5c.9-.2 1.7-.4 2.6-.6l.5 2.6c-.8.1-1.7.3-2.5.5zm3-.7l-.5-2.6c.9-.2 1.8-.3 2.7-.4l.3 2.6c-.8.1-1.6.3-2.5.4zm3-.4l-.3-2.6c.9-.1 1.8-.2 2.7-.2l.2 2.6c-.9 0-1.7.1-2.6.2zm5.6-.3c-.9 0-1.7 0-2.6.1l-.1-2.6c.9 0 1.8-.1 2.7-.1v2.6zm-3.5-25.3v-5.4h7.4v5.4h-7.4zm6.6 25.4c-.9-.1-1.7-.1-2.5-.1v-2.6c.9 0 1.8 0 2.7.1l-.2 2.6zm3 .2c-.8-.1-1.7-.2-2.5-.3l.2-2.6c.9.1 1.8.1 2.7.3l-.4 2.6zm3.1.5c-.8-.2-1.7-.3-2.5-.4l.4-2.6c.9.1 1.8.3 2.7.4l-.6 2.6zm.5.1l.5-2.6c.9.2 1.8.4 2.6.6l-.7 2.5c-.8-.1-1.6-.3-2.4-.5zm2.9.7l.7-2.5c.9.2 1.7.5 2.6.8l-.8 2.5c-.8-.3-1.6-.6-2.5-.8zm3 .9l.8-2.5c.9.3 1.7.6 2.5.9l-1 2.4c-.7-.2-1.5-.5-2.3-.8zm2.8 1.1l1-2.4c.8.3 1.6.7 2.5 1.1l-1.1 2.4c-.8-.4-1.6-.8-2.4-1.1zm2.8 1.2l1.2-2.3c.8.4 1.6.8 2.4 1.3l-1.3 2.3c-.8-.5-1.5-.9-2.3-1.3zm2.7 1.5l1.3-2.3c.8.5 1.5.9 2.3 1.4l-1.4 2.2c-.7-.4-1.5-.9-2.2-1.3zm2.6 1.6l1.5-2.2c.8.5 1.5 1 2.2 1.6l-1.6 2.1-2.1-1.5zm2.5 1.8l1.6-2.1c.7.6 1.4 1.1 2.1 1.7l-1.7 2c-.7-.6-1.4-1.1-2-1.6zm4.2 3.7c-.6-.6-1.2-1.2-1.9-1.7l1.7-2c.7.6 1.3 1.2 2 1.8l-1.8 1.9z" fill="#97D0E8"/><path d="M436.7 335.9v-8.8h-9.6v-6.3h-4.8v6.3h-14.1v-10h-3.7v8.1h-43.3v3.7h-7v-11.4H349v11.4h-4.4v7h-11.9v237.9h114V335.9h-10z" fill="#006FA6"/><path d="M1337 422.6h-3.1v5.1h-13v-5.1h-3.1v14h-5.6v-3h-2.1v3h-8.1v-3h-2.2v3h-8.1v-3h-2.1v3h-8.1v-3h-2.2v3h-8v-3h-2.2v3h-8.1v-3h-2.2v3h-5.6v-14h-3v5.1h-13.1v-5.1h-3v151h15.7v.2h71.5v-.2h15.7v-151z" fill="#97D0E8"/><path d="M190.3 359.7v-6.2h-5.4v-13.1c-3.5-4.6-9.4-8-16.4-9.3v9.7h-13.1V331c-7 1.3-12.9 4.8-16.4 9.3v13.1h-5.4v6.2h3.7v3.6h-3.7v3.8h3.7v2.2h-3.7v3.8h3.7v2.2h-3.7v3.8h3.7v2.2h-3.7v3.8h3.7v2.2h-3.7v3.8h3.7v2.2h-3.7v3.8h3.7v2.2h-3.7v3.8h3.7v2.2h-3.7v3.8h3.7v2.2h-3.7v3.8h3.7v2.2h-3.7v3.8h3.7v2.2h-3.7v3.8h3.7v2.2h-3.7v3.8h3.7v2.2h-3.7v3.8h3.7v2.2h-3.7v3.8h3.7v2.2h-3.7v3.8h3.7v2.2h-3.7v3.8h3.7v2.2h-3.7v3.8h3.7v2.2h-3.7v3.8h3.7v2.2h-3.7v3.8h3.7v2.2h-3.7v3.8h3.7v2.2h-3.7v3.8h3.7v2.2h-3.7v3.8h3.7v2.2h-3.7v3.8h3.7v2.2h-3.7v3.8h3.7v2.2h-3.7v3.8h3.7v2.2h-3.7v3.8h3.7v2.2h-3.7v3.8h3.7v2.2h-3.7v3.8h3.7v2.2h-3.7v3.8h3.7v2.2h-3.7v3.8h3.7v2.2h-3.7v3.8h3.7v2.2h-3.7v3.8h3.7v2.2h-3.7v3.8h3.7v2.2h-3.7v3.8h3.7v2.2h-3.7v3.8h56.8v-1h-3.7v-2.2h3.7V564h-3.7v-2.2h3.7V558h-3.7v-2.2h3.7V552h-3.7v-2.2h3.7V546h-3.7v-2.2h3.7V540h-3.7v-2.2h3.7V534h-3.7v-2.2h3.7V528h-3.7v-2.2h3.7V522h-3.7v-2.2h3.7V516h-3.7v-3h3.7v-3.8h-3.7V507h3.7v-3.8h-3.7V501h3.7v-4h-3.7v-2.2h3.7V491h-3.7v-2.2h3.7V485h-3.7v-2.2h3.7V479h-3.7v-2.2h3.7V473h-3.7v-2.2h3.7V467h-3.7v-2.2h3.7V461h-3.7v-2.2h3.7V455h-3.7v-2.2h3.7V449h-3.7v-2.2h3.7V443h-3.7v-2.2h3.7V437h-3.7v-3h3.7v-3.8h-3.7V428h3.7v-3.8h-3.7V422h3.7v-4h-3.7v-2.2h3.7V412h-3.7v-2.2h3.7V406h-3.7v-2.2h3.7V400h-3.7v-2.2h3.7V394h-3.7v-2.2h3.7V388h-3.7v-2.2h3.7V382h-3.7v-2.2h3.7V376h-3.7v-2.2h3.7V370h-3.7v-2.2h3.7V364h-3.7v-3.6h3.6v-.7z" fill="#D7EFFA"/><path d="M241.1 346.9v-6.6h-5.7v-13.9c-3.7-4.9-10-8.5-17.4-9.9v10.3h-14v-10.3c-7.5 1.4-13.7 5-17.4 9.9v13.9h-5.7v6.6h4v3.8h-4v4.1h4v2.4h-4v4.1h4v2.4h-4v4.1h4v2.4h-4v4.1h4v2.4h-4v4.1h4v2.4h-4v4.1h4v2.4h-4v4.1h4v2.4h-4v4.1h4v2.4h-4v4.1h4v2.4h-4v4.1h4v2.4h-4v4.1h4v2.4h-4v4.1h4v2.4h-4v4.1h4v2.4h-4v4.1h4v2.4h-4v4.1h4v2.4h-4v4.1h4v2.4h-4v4.1h4v2.4h-4v4.1h4v2.4h-4v4.1h4v2.4h-4v4.1h4v2.4h-4v4.1h4v2.4h-4v4.1h4v2.4h-4v4.1h4v2.4h-4v4.1h4v2.4h-4v4.1h4v2.4h-4v4.1h4v2.4h-4v4.1h4v2.4h-4v4.1h4v2.4h-4v4.1h4v2.4h-4v4.1h4v2.4h-4v4.1h4v2.4h-4v4.1h4v2.4h-4v4.1h4v2.4h-4v4.1h4v2.4h-4v4.1h60.2v-4.1h-4v-2.4h4v-4.1h-4v-2.4h4v-4.1h-4v-2.4h4v-4.1h-4V548h4v-4h-4v-2.4h4v-4.1h-4v-2.4h4V531h-4v-2.4h4v-4.1h-4v-2.4h4V518h-4v-2.4h4v-4.1h-4v-2.4h4V505h-4v-2.4h4v-4.1h-4v-2.4h4V492h-4v-2.4h4V486h-4v-2.4h4v-4.1h-4v-2.4h4V473h-4v-2.4h4v-4.1h-4v-2.4h4V460h-4v-2.4h4v-4.1h-4v-2.4h4V447h-4v-2h4v-4.1h-4v-2.4h4v-4.1h-4V432h4v-4h-4v-2.4h4v-4.1h-4v-2.4h4V415h-4v-2.4h4v-4.1h-4v-2.4h4V402h-4v-2.4h4v-4.1h-4v-2.4h4V389h-4v-2h4v-4.1h-4v-2.4h4v-4.1h-4V374h4v-4.1h-4v-2.4h4v-4.1h-4V361h4v-4.1h-4v-2.4h4v-4.1h-4v-3.8h4v.3zM57.2 359.7v-6.2h-5.4v-13.1c-3.5-4.6-9.4-8-16.4-9.3v9.7H22.3V331c-7 1.3-12.9 4.8-16.4 9.3v13.1H.5v6.2h3.7v3.6H.5v3.8h3.7v2.2H.5v3.8h3.7v2.2H.5v3.8h3.7v2.2H.5v3.8h3.7v2.2H.5v3.8h3.7v2.2H.5v3.8h3.7v2.2H.5v3.8h3.7v2.2H.5v3.8h3.7v2.2H.5v3.8h3.7v2.2H.5v3.8h3.7v2.2H.5v3.8h3.7v2.2H.5v3.8h3.7v2.2H.5v3.8h3.7v2.2H.5v3.8h3.7v2.2H.5v3.8h3.7v2.2H.5v3.8h3.7v2.2H.5v3.8h3.7v2.2H.5v3.8h3.7v2.2H.5v3.8h3.7v2.2H.5v3.8h3.7v2.2H.5v3.8h3.7v2.2H.5v3.8h3.7v2.2H.5v3.8h3.7v2.2H.5v3.8h3.7v2.2H.5v3.8h3.7v2.2H.5v3.8h3.7v2.2H.5v3.8h3.7v2.2H.5v3.8h3.7v2.2H.5v3.8h3.7v2.2H.5v3.8h3.7v2.2H.5v3.8h3.7v2.2H.5v3.8h3.7v2.2H.5v3.8h3.7v2.2H.5v3.8h3.7v2.2H.5v3.8h56.8v-1h-3.7v-2.2h3.7V564h-3.7v-2.2h3.7V558h-3.7v-2.2h3.7V552h-3.7v-2.2h3.7V546h-3.7v-2.2h3.7V540h-3.7v-2.2h3.7V534h-3.7v-2.2h3.7V528h-3.7v-2.2h3.7V522h-3.7v-2.2h3.7V516h-3.7v-3h3.7v-3.8h-3.7V507h3.7v-3.8h-3.7V501h3.7v-4h-3.7v-2.2h3.7V491h-3.7v-2.2h3.7V485h-3.7v-2.2h3.7V479h-3.7v-2.2h3.7V473h-3.7v-2.2h3.7V467h-3.7v-2.2h3.7V461h-3.7v-2.2h3.7V455h-3.7v-2.2h3.7V449h-3.7v-2.2h3.7V443h-3.7v-2.2h3.7V437h-3.7v-3h3.7v-3.8h-3.7V428h3.7v-3.8h-3.7V422h3.7v-4h-3.7v-2.2h3.7V412h-3.7v-2.2h3.7V406h-3.7v-2.2h3.7V400h-3.7v-2.2h3.7V394h-3.7v-2.2h3.7V388h-3.7v-2.2h3.7V382h-3.7v-2.2h3.7V376h-3.7v-2.2h3.7V370h-3.7v-2.2h3.7V364h-3.7v-3.6h3.6v-.7z" fill="#97D0E8"/><path d="M100.1 346.9v-6.6h-5.7v-13.9c-3.7-4.9-10-8.5-17.4-9.9v10.3H63v-10.3c-7.5 1.4-13.7 5-17.4 9.9v13.9h-5.7v6.6h4v3.8h-4v4.1h4v2.4h-4v4.1h4v2.4h-4v4.1h4v2.4h-4v4.1h4v2.4h-4v4.1h4v2.4h-4v4.1h4v2.4h-4v4.1h4v2.4h-4v4.1h4v2.4h-4v4.1h4v2.4h-4v4.1h4v2.4h-4v4.1h4v2.4h-4v4.1h4v2.4h-4v4.1h4v2.4h-4v4.1h4v2.4h-4v4.1h4v2.4h-4v4.1h4v2.4h-4v4.1h4v2.4h-4v4.1h4v2.4h-4v4.1h4v2.4h-4v4.1h4v2.4h-4v4.1h4v2.4h-4v4.1h4v2.4h-4v4.1h4v2.4h-4v4.1h4v2.4h-4v4.1h4v2.4h-4v4.1h4v2.4h-4v4.1h4v2.4h-4v4.1h4v2.4h-4v4.1h4v2.4h-4v4.1h4v2.4h-4v4.1h4v2.4h-4v4.1h4v2.4h-4v4.1h4v2.4h-4v4.1h4v2.4h-4v4.1h60.2v-4.1h-4v-2.4h4v-4.1h-4v-2.4h4v-4.1h-4v-2.4h4v-4.1h-4V548h4v-4h-4v-2.4h4v-4.1h-4v-2.4h4V531h-4v-2.4h4v-4.1h-4v-2.4h4V518h-4v-2.4h4v-4.1h-4v-2.4h4V505h-4v-2.4h4v-4.1h-4v-2.4h4V492h-4v-2.4h4V486h-4v-2.4h4v-4.1h-4v-2.4h4V473h-4v-2.4h4v-4.1h-4v-2.4h4V460h-4v-2.4h4v-4.1h-4v-2.4h4V447h-4v-2h4v-4.1h-4v-2.4h4v-4.1h-4V432h4v-4h-4v-2.4h4v-4.1h-4v-2.4h4V415h-4v-2.4h4v-4.1h-4v-2.4h4V402h-4v-2.4h4v-4.1h-4v-2.4h4V389h-4v-2h4v-4.1h-4v-2.4h4v-4.1h-4V374h4v-4h-4v-2.4h4v-4.1h-4v-2.4h4V357h-4v-2.4h4v-4.1h-4v-3.8h4v.2z" fill="#97D0E8"/><path d="M61.9 501.3v-3.6h-.7v-1.9H60l-.6-6.3h-2.9V487H34.4v5.4H21v-4.2h-6.6v-2.6h-33.8v5.4h-3.7v-4.7h-9v-2.5h-18v4.4h-8.6l-.7 7.6h-1.1v1.9h-.7v3.6h.7v7.9h-.7v3.6h.7V540h-.7v3.6h.7v30.2H61.2v-30.2h.7V540h-.7v-27.2h.7v-3.6h-.7v-7.9h.7zM313.6 573.8v-63.4h-10.1v-7.3h-11.8v-3.6h-15.8V497h-35.1v-2.5h-12.1v2.5h-4.3v2h-31.2v1.6h-3.7v53.6h-5.9v19.6h130z" fill="#0F529C"/><path d="M184.9 593.4c-5.9-56.6-22.2-230.8-17.8-283.6 2-23.9 11.3-62 11.3-62l-5-4.6 7.6-19.5h-1.2v-3.4h3.8l12.1-20.4h-7.9v-5.8h-9.3l-7.2-17.6h-5.2v-6.8h-9.5V81.1h-1.8V57h-4.6v24.1h-1.8v88.7h-9.5v6.8h-5.2l-7.2 17.6h-9.3v5.8h-7.9l12.1 20.4h3.8v3.4H124l7.6 19.5-5 4.6s9.3 38.1 11.3 62c4.5 52.9-11.9 227-17.8 283.6h-14.7v20.4h94.1v-20.4h-14.6v-.1zm-24.2-345.3l8.4-.2-6.2 25.4-2.4-.1.2-25.1zm.4 225.7l13.6 119.6h-16.4l-1-119.3 3.8-.3zm-25.2-226.3l8.4.2.2 25-2.4.1-6.2-25.3zm8 226.3l3.9.3-1 119.3h-16.4l13.5-119.6z" fill="#006FA6"/><path d="M461.4 540v-3.3h-12.6v3.3h-5.6v-3.3h-12.6v3.3H425v-3.3h-12.6v3.3h-5.6v-3.3h-12.6v3.3h-5.6v-3.3H376v3.3h-8.8c2.1-10.7 8.1-40.8 11.9-54.1 4.7-16.4 18.5-55 18.5-55l-9.1-3.1 2.2-8-10.6-2.9 2.2-8-10.6-2.9 2.2-7.8-11-3 2.3-8.4-13.1-3.6-8.8 31.9-8.8-31.9-13.1 3.6 2.3 8.4-11 3 2.2 7.8-10.6 2.9 2.2 8-10.6 2.9 2.2 8-9.1 3.1s13.9 38.6 18.5 55c3.8 13.3 9.8 43.4 11.9 54.1h-7.3v33.8h159.6V540h-10.3zM41.6 573.8H-71.1c-.1-.2-.3-.4-.4-.6-3-2.5-3.9-7-2.6-11.1 1.9-5.9 7.5-11.7 14.5-11.7.3 0 .6.1.9.1 4.1-1.5 8.6-1.3 12.8-.2 1.9.5 3.2 1.5 3.9 2.8.8-1.3 2.1-2.4 3.7-2.8 2.4-.6 5.1-.8 7.4 0 .4.1.9.3 1.3.5 1.7-2.4 4.1-4.3 7.3-4.8.5-.1 1-.1 1.4-.1 3.8-2.1 8.3-2.3 12.3 0 1.5.8 2.5 2.1 2.9 3.6 1.3.5 2.3 1 3.4 2 .7.7 1.3 1.5 1.8 2.4.6 1.1.9 2.3.8 3.5.7-.8 1.5-1.5 2.4-2.2 1.1-.8 2.5-1.2 3.9-1.5.2-1.9.6-3.7 1.7-5.3 1.7-2.9 5.3-4.6 8.8-4.3 3.1.2 5.8 2.2 6.2 5.2 2.8-.2 5.8.3 8.3 1.6 3.4 1.7 5 4.5 5.3 7.6 2.2.7 4.2 2.2 5.5 4 2.1 3.1 1.9 6.8.3 10-.4.4-.7.9-1.1 1.3zM1139.8 451c-1.5-11.8-6.1-21-10.2-20.5-1 .1-1.3.8-1.2 1.8-8.6-15.2-24.9-25.5-43.6-25.5-18.7 0-35 10.3-43.6 25.5.1-1-.2-1.7-1.2-1.8-4.1-.5-8.6 8.6-10.2 20.5-1.5 11.8.5 21.9 4.6 22.4 2.3.3 1.7-2.9 1-7.9 1.9 11.5 7.6 22.1 15.7 30.1l14.4 29.1h-17.2l4.4 49.1h64l4.4-49.1h-17.2l14.4-29.1c8.1-8 13.8-18.6 15.7-30.1-.7 5-1.3 8.2 1 7.9 4.3-.5 6.3-10.5 4.8-22.4zm-71.8 58.3v10.1l-8.5-17.2c5.4 3.5 11.5 6 18.1 7.1h-9.6zm42.3-7.2l-8.5 17.2v-10.1h-9.6c6.6-1 12.7-3.5 18.1-7.1z" fill="#0F529C"/><path d="M1225.5 425.4v-2.1h-1.3V408h1.1v-1.9h-.9v-19.3h.9V385h-4.5v-.1h.3v-1.8h-.7v-.1l-.2-.3v-7.9h.1c.1-.1.3-.4.4-.5.1-.1.1-.7.1-.7v-3l.3-.5v-.4h.4v-.3l.7-.4h.1v-.9h-.1v-.4h-.1l-.2.4h-.4v-.4h-.1l-.2.4h-.3v-1.5h-.3c-.7-4.2-5.3-7.6-11-7.8.1-.1.2-.2.2-.4s-.1-.3-.2-.4v-.1s0-.1-.1-.1c.1-.1.1-.2.1-.2 0-.2-.1-.3-.3-.4.1-.1.2-.2.2-.4.1 0 .1-.1.1-.1s0-.1-.1-.1c0-.2 0-.3-.1-.4-.1-.2-.3-.3-.4-.3-.1 0-.3.1-.4.3-.1.1-.1.3-.1.4l-.1.1c0 .1 0 .1.1.1 0 .2.1.3.2.4-.2.1-.3.2-.3.4 0 .1 0 .2.1.2-.1 0-.1.1-.1.1v.1c-.1.1-.2.3-.2.4 0 .2.1.3.2.4-5.7.2-10.3 3.5-11 7.8h-.3v1.5h-.3l-.2-.4h-.1v.4h-.4l-.2-.4h-.1v.4h-.1v.9h.1v.1l.7.4v.3h.4v.4l.3.5v3s0 .5.1.7c.1.1.2.4.4.5h.1v7.9l-.2.3v.1h-.7v1.8h.3v.1h-4.5v1.8h.9v19.3h-.9v1.9h1.1v15.3h-5.9l-11.8-8.8v-1.7h-1v-29c.1.1.2.2.4.3 2 .6 2.7 1.9 3.2 3.7.3 1.1 1.9 1.4 2.3 2.4.3.7.8-.8.7-1.3-.2-1.1-1-2-1.1-3.1-.1-1 .2-1.7.3-2.7 0-.3.5-1.2.3-1.3-2.3-1-3.5-3.3-6.1-3.7v-.2h-1.2v34.8h-.9v1.9l-11.6 8.6h-15.3v2.1h2.4v11.2h-2.4v2.1h2.4v40.8h-2.4v3.4h2.4v24h-14.1v5.8h-5.1v2.4h1.8v2.4h2v2.4h1.8v40.7h-5.5v13.1h96.4v-13.1h-1.3v-48h.4V507h-.5v-68.3h1.3v-2.1h-1.3v-11.2h1.1zm-7.6-50.4c.1-.1.3-.4.4-.6.1.1.2.3.3.4h.1v7.9l-.2.3h-.1v-.3l-.3-.6v-.1h-.2v-7zm.2 21.4v9.1h-5.3v-9.1c0-2 1.2-3.5 2.7-3.5 1.4 0 2.5 1.5 2.6 3.5zm-8.3-21.5c.1-.1.3-.4.4-.5.1-.2.1-.7.1-.7v-.3c0-1.5 1.2-2.7 2.6-2.7 1.5 0 2.6 1.2 2.6 2.7v.3s0 .6.1.8c.1.2.2.4.4.6v7h-.2v.2l-.3.6v.3h-.1v.2h-5v-.4h-.1v-.3l-.3-.6v-.1h-.2v-7.1zm-1.3 18c1.4 0 2.6 1.6 2.7 3.5v9.1h-5.3v-9.1c0-2 1.2-3.5 2.6-3.5zm-6.8-17.9c.1-.1.3-.4.4-.5.1-.2.1-.8.1-.8v-.3c0-1.5 1.2-2.7 2.7-2.7 1.5 0 2.6 1.2 2.6 2.7v.3s0 .6.1.7c.1.1.2.4.4.5v7.1h-.2v.2l-.3.6v.3h-.1v.2h-4.9v-.3h-.1v-.3l-.3-.6v-.1h-.2v-7h-.2zm-2.6-.2c.2-.1.3-.3.4-.4.1.1.2.4.4.5v7h-.2v.2l-.3.6v.3h-.1l-.2-.3v-7.9zm-.1 21.6c0-2 1.2-3.5 2.6-3.5 1.4 0 2.6 1.6 2.6 3.5v9.1h-5.3v-9.1h.1zM1023.3 534v-24.6h-2.7v-1.2h2.6v-1.7h1v-1.8h-8.2v-4.8h-2.7v-1.2h2.6v-1.8h.9v-1.7h-4v-2.9h.9v-1.5h-.4c-2-5.6-8.8-11.4-16.9-11.5v-1.8c.2-.1.4-.3.4-.5s-.2-.4-.4-.5v-.9c.1-.1.2-.3.2-.5s-.1-.7-.3-1.1v-.8c.1-.1.1-.1.1-.2s-.1-.2-.1-.2v-1c.1 0 .1-.1.1-.2s0-.2-.1-.2v-1.8c0-.1-.1-.2-.1-.2-.1 0-.1.1-.1.2v1.8c-.1 0-.1.1-.1.2s0 .1.1.2v1c-.1.1-.1.1-.1.2s0 .2.1.2v.8c-.2.3-.3.8-.3 1.1 0 .2.1.4.2.5v.9c-.2.1-.4.3-.4.5s.1.4.4.5v1.8c-5.5.1-10.3 2.8-13.5 6.2v-4.6h-2.7v-4.8h.8v-3.8h-1.1v-3.1h.8v-1.7h-.4V465c0-1-.7-1.8-1.6-2.1 0-.2-.1-.4-.3-.4v-.3c.2 0 .4-.2.4-.4s-.2-.4-.4-.4v-.4c.1 0 .1-.1.1-.2s-.1-.2-.2-.2v-.3c.1 0 .1-.1.1-.1 0-.1-.1-.1-.1-.1l-.1-1.5c0-.1-.1-.2-.1-.2-.1 0-.2.1-.2.2l-.1 1.5c-.1 0-.1.1-.1.1 0 .1.1.1.1.1v.3c-.1 0-.2.1-.2.2s.1.2.1.2v.4c-.2 0-.4.2-.4.4s.2.4.4.4v.3c-.2.1-.3.2-.3.4-.9.3-1.6 1.1-1.6 2.1v2.6h-.4v1.7h.8v3.1h-1.1v3.8h.8v4.8h-2.7v23.8h-8.2v1.8h.9v1.7h2.6v1.2h-2.7V534h-1.7v39.8h61V534h-1.4zM955.5 530.1V527h-.8v-2h-1.6v2h-3.5v-2H948v2h-3.5v-2h-1.6v2h-3.4v-2h-1.6v2h-3.5v-2h-1.6v2h-3.5v-2h-1.6v2h-3.4v-2h-1.6v2h-.8v3.1h-3.8v-2.7h-3.7v2.7h-6.8v-2.7H904v2.7h-6.8v-2.7h-3.7v2.7h-6.8v-2.7h-2.6V512h-1.8v-5h2.7c-.8-6.1-11.2-10.8-14.1-10.8-2.9 0-13.3 4.7-14.1 10.8h2.7v5h-1.8v61.7h98.5V530h-.7v.1zM490.6 453.6v-13.2h3.4l-.8-36h-2.6v-2.2h-18.1v-2.1H460v-37.2h-2.6v37.2h-12.5v2.1h-18.1v2.2h-2.6l-.7 36h3.3v13.2H419V486h7.8v87.8H450V486h7.8v-32.4H450v-11.4h17.4v11.4h-7.8V486h7.8v87.8h23.2V486h7.9v-32.4h-7.9z" fill="#0F529C"/><path d="M1690.3 573.8l-125.3-141-125.3 141h250.6z" fill="#006FA6"/><path d="M1633.4 564.1c.4-3.7.4-9.4-1.8-14.8-3.3-8-7.7-7.7-11.9-4.7-1.5-2.3-6.3-4.3-10.4-.1-5.9-5.9-10.4-.4-10.4-.4l-11.5-25.3s4.3-.9 4.3-3.2c0-2.3-14-23.7-14.6-24.3-.5-.5-.1-1.4-.6-3.1-.5-1.7-8.2-2.9-8.6-3.3-.4-.4 0-1-.4-1.4-.4-.4-1-.2-1-.2s-.5-1.8-.9-1.9c-.2-.1-.7-.1-.9 0-.4.1-.9 1.9-.9 1.9s-.6-.2-1 .2 0 1-.4 1.4c-.4.4-8.2 1.7-8.6 3.3-.5 1.7-.1 2.5-.6 3.1-.5.5-14.6 22-14.6 24.3 0 2.3 4.3 3.2 4.3 3.2l-11.5 25.3s-4.5-5.6-10.4.4c-4.1-4.1-8.9-2.2-10.4.1-4.2-3.1-8.6-3.4-11.9 4.7-2.2 5.4-2.2 11.1-1.8 14.8h-.7v9.7h138.1v-9.7h-.9z" fill="#0F529C"/><path d="M679.7 328.1h-.4l-4.9-10.9-3.3 7.3h-2.9v-3.1H665v3.1h-1.2v-3.1h-3.2v3.1h-2.2l-2.8-18.8h-17.9l-2.8 18.8h-2.2v-3.1h-3.2v3.1h-1.2v-3.1h-3.2v3.1h-2.9l-3.3-7.3-4.8 10.9h-.5v24.7h3v221h60.1v-221h3v-24.7zM852.9 328.1h-.4l-4.9-10.9-3.3 7.3h-2.9v-3.1h-3.2v3.1H837v-3.1h-3.2v3.1h-2.2l-2.8-18.8h-17.9l-2.8 18.8h-2.2v-3.1h-3.2v3.1h-1.2v-3.1h-3.2v3.1h-2.9l-3.3-7.3-4.8 10.9h-.5v24.7h3v221h60.1v-221h3v-24.7z" fill="#97D0E8"/><path d="M648.4 531h-1.5v42.8H831v-53h-1.7v-21.9h.5V497h1v-1.7h.9v-1h1.7V479h-.8v-4.6h-3.2v4.6h-2v-9.1h.1l4.6-5.4V462l-4.7-5.4V450l4.8-5.5h.7v-1.2h-.9l-14.3-16.6-14.3 16.6h-.9v1.2h.7l4.8 5.5v6.7l-4.6 5.4v2.5l4.6 5.4h.1v9.1h-2v-4.6h-3.2v4.6h-.8v15.3h1.7v1h.9v1.7h1v1.9h.5v22.8L790 500.7v-12.8h.1v-.1l5.7-9.2-5.7-9.1-7.3-36.8v-4h.9v-1.1h-.7v-1.5h.9V425h-.9v-2.7h-1.1v2.7h-.9v1.1h.9v1.5h-.9v1.1h.9v4l-7.3 36.8-5.7 9.1 3.1 5h-6.4V473h-1.3v-6.6H762v-4.8h-2.3v-5.1h-1.8v-8l5-8-5.4-8.7-7-34.9v-3.8h.8v-1h-.8v-1.4h.8v-1h-.8v-2.6h-1v2.6h-.8v1h.8v1.4h-.8v1h.8v3.8l-6.9 34.9-5.4 8.7 4.7 7.7v8.4h-2.3v6.2l-4.2-21.3v-4h.9v-1.1h-.9V435h.9v-1.1h-.9v-2.7h-1.1v2.7h-.9v1.1h.9v1.5h-.9v1.1h.9v4l-4.8 23.9v-15.7h2v-10.2h-2.1V437h.8v-.9h-.8v-1.3h.8v-.9h-.8v-2.4h-.9v2.4h-.8v.9h.8v1.3h-.8v.9h.8v2.5h-4l-1.7-2.7-7.3-36.7v-4h.9V395h-.9v-1.5h.9v-1.1h-.9v-2.7h-1.1v2.7h-.9v1.1h.9v1.5h-.9v1.1h.9v4l-7.3 36.6-1.7 2.7h-4V437h.8v-.9h-.8v-1.3h.8v-.9h-.8v-2.4h-.9v2.4h-.8v.9h.8v1.3h-.8v.9h.8v2.5h-2.1v4.3l-4.2-21.3v-4h.9v-1.1h-.9v-1.5h.9v-.9h-.9v-2.7h-1.1v2.7h-.9v1.1h.9v1.5h-.9v1.1h.9v4l-6.6 33.1h-1.6v2.1h-1.1v1.9h-1.6v-3h-1.9v-2.6h-3.4l-3.7-18.4v-4.3h1v-1.1h-1v-1.6h1v-1.1h-1v-2.9h-1.1v2.9h-.9v1.1h.9v1.6h-.9v1.1h.9v4.3l-3.9 19.6v-1.2h-3.6v2.6H663v3h-1.6v-1.9h-1.1v-2.1h-2v4h-.5V475h2.1v3.9h2.1v8.5h-6.4v36.1H654l-2.7-6.4-5 12.1h2.1v1.8zm170.2-81.5c0-.8 1.1-1.5 2.6-1.5 1.4 0 2.6.7 2.6 1.5v6c0 .1 0 .3-.1.4h-4.9c-.1-.1-.1-.2-.1-.4v-6h-.1zm-6.6 0c0-.8 1.1-1.5 2.6-1.5 1.4 0 2.6.7 2.6 1.5v6c0 .1 0 .3-.1.4h-4.9c-.1-.1-.1-.2-.1-.4v-6h-.1z" fill="#0F529C"/><path d="M617.6 555.5v-12.2h-15.3v-6.1h-1.9v-4.4h-1.6v-5.4h1.7v-1.7h-1.2v-.6h1.5v-3.3h-1.7v-.7h-1.8v-1.7h-.8v-1.8h-1v-2.3H593v-1.4h1.3v-.8H593v-9.4h.8v-1.2h-.8v-11.8h-.7v-2.4h.7v-1.4h-.7v-2.4h.7V482h1.4v-2.3h1.4v-2.2h1.1v-6.6h-3.1v1.1h-1.4v-1.1h-3.1v1.1h-1.8v-4.3h-1.2v-4h.6v-.7h.9v-2.3h-2.1v-4.6H582c.2-3.5.2-7-.1-10.5-.3-3.4-2.6-6.9-1.7-10.3.1-.3 1.9-1.3 2-1.5.2-.3-.9-6.1-1-8.9-.1-3.4.4-6.7.1-10.1-.4-5.3-2.4-11.9-4.5-16.7l3.3-4.7c.6-.3 1.2-.7 1.8-1.1.7-.4 1.9-1.1 2.2-1.9 1-.7 2.4-1.5 1.7-2.9.6-.5 1.1-1.1.7-1.9-.2-.4.9-.7.5-.9v-.1l2.7-4.8-13.2-7.5-2.7 4.8c-.6-2.6-1.2-5.2-2.9-7.3-1.3-1.6-2.9-2.8-4.1-4.5-1.4-2-2-4.1-3.5-7.9 1.2-1.9 1.5-2.7 1.9-7.1 0-.1.7-.7 1.2-1.3l6.5-.6-5.9-.9c0-.2 0-.4-.1-.6l5.9-3-6.5 1.5c-.1-.2-.3-.4-.4-.6l5.1-5.6-6.4 4.5-1.2-.6 1.4-6.4-3 5.9c-.4-.1-.8-.1-1.3-.1-.4 0-.7 0-1 .1l-3.3-5.5 1.8 5.9c-.5.2-.9.4-1.3.7l-2.6-1.2c.1-1.1.1-2.3.2-3.4.1-3.5.1-7 .2-10.4 2.2-1.5.1-6.1.1-6.2.4-.8.1-2.1 0-3h3.9v-4.8H555v-1.9h-.2c.9-.8 2.2-1.5 2.1-2.9-.2-2.5-1.7-2.9-2-5.4 0-.2-2.9-.1-2.8.4.2 2.4-1.3 2.1-1.8 4.4-.3 1.6.3 2.7 1.4 3.5h-.1v1.9h-3.8v4.8h2.8c-.3.7-1 1.2-1 2 0 .9.6 1.6.6 1.6.3.6-.2 1.3-.5 1.5-.4.3-.6.6-.8 1.1-.2.5.1 1.1.4 1.4.1.1.1.2.2.2.2 4.1.2 8.1-.6 12.2-.5 2.9-1.1 5.9-.6 8.9l-.1.1c-1.9 2-3.4 4.1-4 6.8-.3 1.2-.3 2.5-.1 3.7.1.5.4.9.6 1.3.4.6.3 1.4.2 2.1-.6 1.2-1.6 2.1-1.2 3.5.3 1 1.4 1.5 2.2 2.1 0 0-.1.1-.1.2-.4 2.3-1.3 4.5-1.2 6.9 0 .7.2 1.5.5 2.1.4.9 1.4 1.1 1.9 1.8v.1c-1.7 4.1-3.9 8.6-2.9 13.1.4 2.1 1.7 4.6 3.8 4.2-4.3 8.3-1.5 10.9.7 12.7-4.1 5.5-.3 8.4.9 9.2l-.1.1c-.9 1.1-1.6 2.2-2.1 3.6-.7 1.9-.1 3.9-1 5.8-.7 1.6-2.1 2.8-2.8 4.4-.7 1.4-.8 3.1-.9 4.7-.1 2-1.1 4-1.5 5.9-.5 2.1-.9 4.3-1.7 6.3-.8 1.8-2.2 2.7-3.3 4.2-.7 1-.6 1.9-.6 2.9h-2.1v4.6h-2.1v2.3h.9v.9h.6v4h-1.2v4.3H530v-1.1h-3.1v1.1h-1.4v-1.1h-3.1v6.6h1.1v2.2h1.4v2.3h1.4v2.5h.7v2.4h-.7v1.4h.7v2.4h-.7v11.8h-.8v1.2h.8v9.4H525v.8h1.3v1.4H524v2.3h-1v1.8h-.8v1.7h-1.8v.7h-1.7v3.3h1.5v.6H519v1.7h1.7v5.4H519v4.4h-2v6.1h-15.3v12.2h-33.4v18.3H651v-18.3h-33.4v-.3zm-63-208c-.1 0-.1.1-.2.1-.1-1.4 0-2.8.1-4.3l1.5 1.2c-.8.9-1.3 1.9-1.4 3zM1181.9 573.8h129.2c.2-.2.4-.5.5-.7 3.4-3 4.5-8.3 3-13.2-2.2-7.1-8.6-14-16.6-13.9-.4 0-.7.1-1 .1-4.7-1.8-9.9-1.5-14.7-.3-2.2.6-3.7 1.8-4.4 3.4-.9-1.6-2.4-2.9-4.3-3.4-2.7-.7-5.8-1-8.5-.1-.5.2-1 .4-1.4.6-1.9-2.9-4.7-5.2-8.3-5.8-.6-.1-1.1-.1-1.7-.1-4.3-2.5-9.6-2.8-14.1-.1-1.7 1-2.8 2.6-3.3 4.3-1.5.6-2.7 1.2-3.9 2.3-.9.8-1.5 1.8-2 2.8-.7 1.4-1.1 2.7-.9 4.2-.8-.9-1.7-1.8-2.8-2.6-1.3-.9-2.9-1.5-4.5-1.8-.2-2.2-.7-4.4-1.9-6.4-2-3.4-6.1-5.5-10.1-5.1-3.6.3-6.6 2.6-7.1 6.2-3.3-.3-6.6.4-9.5 1.9-3.9 2-5.8 5.4-6.1 9.1-2.6.9-4.9 2.6-6.3 4.8-2.4 3.7-2.2 8.2-.4 12 .3.7.7 1.3 1.1 1.8zM229.7 573.8h105.5c.1-.2.3-.4.4-.6 2.8-2.5 3.7-6.8 2.5-10.8-1.8-5.8-7-11.4-13.6-11.4-.3 0-.6.1-.8.1-3.8-1.5-8.1-1.2-12-.2-1.8.5-3 1.5-3.6 2.7-.7-1.3-2-2.3-3.5-2.7-2.2-.6-4.7-.8-7 0-.4.1-.8.3-1.2.5-1.6-2.4-3.8-4.2-6.8-4.7-.5-.1-.9-.1-1.4-.1-3.5-2.1-7.8-2.3-11.5 0-1.4.8-2.3 2.1-2.7 3.5-1.2.5-2.2 1-3.2 1.9-.7.6-1.2 1.5-1.7 2.3-.6 1.1-.9 2.2-.8 3.4-.6-.8-1.4-1.5-2.3-2.1-1-.8-2.3-1.2-3.7-1.5-.2-1.8-.6-3.6-1.5-5.2-1.6-2.8-5-4.4-8.2-4.2-2.9.2-5.4 2.1-5.8 5-2.7-.2-5.4.3-7.8 1.5-3.1 1.6-4.7 4.4-5 7.4-2.1.7-4 2.1-5.2 3.9-2 3-1.8 6.7-.3 9.8.5.6.9 1.1 1.2 1.5z" fill="#0F529C"/><path d="M242.7 573.8h-97.9c-.1-.2-.3-.3-.4-.5-2.6-2.3-3.4-6.3-2.3-10 1.6-5.4 6.5-10.6 12.6-10.5.3 0 .5 0 .8.1 3.6-1.4 7.5-1.1 11.2-.2 1.7.4 2.8 1.4 3.3 2.5.7-1.2 1.8-2.2 3.2-2.5 2.1-.5 4.4-.7 6.5 0 .4.1.7.3 1.1.4 1.5-2.2 3.6-3.9 6.3-4.4.4-.1.8-.1 1.3-.1 3.3-1.9 7.2-2.1 10.7 0 1.3.8 2.1 1.9 2.5 3.3 1.2.4 2 .9 3 1.8.7.6 1.2 1.4 1.6 2.1.5 1 .8 2.1.7 3.2.6-.7 1.3-1.4 2.1-2 .9-.7 2.2-1.1 3.4-1.3.1-1.7.6-3.3 1.4-4.8 1.5-2.6 4.6-4.1 7.6-3.9 2.7.2 5 2 5.3 4.7 2.5-.2 5 .3 7.2 1.4 2.9 1.5 4.4 4.1 4.6 6.9 1.9.7 3.7 2 4.8 3.6 1.8 2.8 1.7 6.2.3 9.1-.3.3-.6.7-.9 1.1zM826.2 573.8h77.5c.1-.1.2-.3.3-.4 2-1.8 2.7-5 1.8-7.9-1.3-4.2-5.1-8.4-10-8.3-.2 0-.4 0-.6.1-2.8-1.1-5.9-.9-8.8-.2-1.3.3-2.2 1.1-2.6 2-.5-1-1.4-1.7-2.6-2-1.6-.4-3.5-.6-5.1 0-.3.1-.6.2-.9.4-1.2-1.7-2.8-3.1-5-3.5-.3-.1-.7-.1-1-.1-2.6-1.5-5.7-1.7-8.5 0-1 .6-1.7 1.5-2 2.6-.9.4-1.6.7-2.4 1.4-.5.5-.9 1.1-1.2 1.7-.4.8-.6 1.6-.6 2.5-.5-.6-1-1.1-1.7-1.6-.8-.6-1.7-.9-2.7-1.1-.1-1.3-.4-2.6-1.1-3.8-1.2-2-3.6-3.3-6-3.1-2.2.2-4 1.6-4.2 3.7-2-.2-4 .2-5.7 1.1-2.3 1.2-3.5 3.2-3.7 5.5-1.5.5-2.9 1.6-3.8 2.9-1.4 2.2-1.3 4.9-.2 7.2.3.2.5.6.8.9z" fill="#0F529C"/><path d="M1021.3 573.8H905.6c-.1-.1-.3-.2-.4-.4-3-1.5-4-4.2-2.7-6.7 1.9-3.6 7.7-7.1 14.9-7.1.3 0 .6 0 .9.1 4.2-.9 8.8-.8 13.2-.1 2 .3 3.3.9 4 1.7.8-.8 2.1-1.5 3.8-1.7 2.4-.4 5.2-.5 7.6 0 .4.1.9.2 1.3.3 1.7-1.5 4.2-2.6 7.5-2.9.5 0 1-.1 1.5-.1 3.8-1.3 8.6-1.4 12.6 0 1.5.5 2.5 1.3 2.9 2.2 1.4.3 2.4.6 3.5 1.2.8.4 1.4.9 1.8 1.4.6.7.9 1.4.8 2.1.7-.5 1.5-.9 2.5-1.3 1.1-.5 2.6-.8 4-.9.2-1.1.7-2.2 1.7-3.3 1.8-1.7 5.4-2.8 9-2.6 3.2.1 5.9 1.3 6.3 3.1 2.9-.1 5.9.2 8.5 1 3.4 1 5.2 2.8 5.5 4.6 2.3.5 4.4 1.3 5.6 2.4 2.2 1.9 2 4.2.3 6.1-.1.3-.5.6-.9.9zM826.7 573.8h-104c-.1-.2-.3-.4-.4-.6-2.7-2.4-3.6-6.7-2.4-10.6 1.7-5.7 6.9-11.2 13.4-11.2.3 0 .6.1.8.1 3.8-1.4 7.9-1.2 11.8-.2 1.8.5 2.9 1.5 3.6 2.7.7-1.3 1.9-2.3 3.4-2.7 2.2-.6 4.7-.8 6.9 0 .4.1.8.3 1.2.5 1.6-2.3 3.8-4.2 6.7-4.6.4-.1.9-.1 1.3-.1 3.5-2 7.7-2.2 11.3 0 1.3.8 2.3 2.1 2.6 3.5 1.2.5 2.1 1 3.2 1.9.7.6 1.2 1.5 1.6 2.3.6 1.1.8 2.2.7 3.4.6-.8 1.4-1.5 2.2-2.1 1-.7 2.3-1.2 3.6-1.4.2-1.8.6-3.5 1.5-5.1 1.6-2.7 4.9-4.4 8.1-4.1 2.9.2 5.3 2.1 5.7 4.9 2.6-.2 5.3.3 7.7 1.5 3.1 1.6 4.6 4.3 4.9 7.3 2.1.7 3.9 2.1 5.1 3.9 1.9 2.9 1.8 6.6.3 9.6-.1.2-.4.7-.8 1.1z" fill="#0F529C"/><path d="M1136.3 573.8c.3-.7.5-1.5.5-2.3-.1-2.8-1-5.5-3-7.4-1.1-6.9-9.6-11.9-16.4-10.3-1.3-1.2-2.7-2.1-4.4-2.5-2.2-.6-4.2-.1-6.2.8-1.6.7-2.7 2.2-3.4 3.8-4.4-4.7-11-7.9-16.9-5.6-3.3-1.5-7-2.6-10.5-1.6-4 1.1-5.8 4.5-6.5 8.2-3.9 0-7.7 1-10.1 3.8-1.2-.7-2.4-1.3-3.7-1.8-.7-3.3-2-6.3-5-8.4-3.1-2.1-6.9-1.3-10.1.1-.3-.2-.5-.4-.8-.6-2.9-1.9-7.3-2-10.2.1-3.6 2.7-4.6 6.7-3.8 10.9-1 .5-1.8 1.2-2.3 2.2-1.7 3.3-2.2 7.5-.2 10.6h113zM151.8 573.8c.3-.7.5-1.5.5-2.3-.1-2.8-1-5.5-3-7.4-1.1-6.9-9.6-11.9-16.4-10.3-1.3-1.2-2.7-2.1-4.4-2.5-2.2-.6-4.2-.1-6.2.8-1.6.7-2.6 2.2-3.4 3.8-4.4-4.7-11-7.9-16.9-5.6-3.3-1.5-7-2.6-10.6-1.6-4 1.1-5.8 4.5-6.5 8.2-3.9 0-7.7 1-10.1 3.8-1.1-.7-2.4-1.3-3.6-1.8-.7-3.3-2-6.3-5-8.4-3.1-2.1-6.9-1.3-10.1.1-.3-.2-.5-.4-.8-.6-2.9-1.9-7.3-2-10.2.1-3.6 2.7-4.6 6.7-3.8 10.9-1 .5-1.8 1.2-2.3 2.2-1.7 3.3-2.2 7.5-.2 10.6h113zM1528.4 407.6c-1.3 0-2.6.3-3.7.9l-8.4-5.6c-.8-7.1-2.1-13.9-4.1-20.6l5.6-8.4c1.2.1 2.5-.1 3.7-.6 4.3-1.8 6.3-6.7 4.6-11-1.8-4.3-6.7-6.3-11-4.5-1.2.5-2.3 1.3-3.1 2.2l-9.9-2c-3.4-6.2-7.3-12-11.6-17.4l2-10c1.2-.4 2.3-1.1 3.2-2 3.3-3.3 3.3-8.6 0-11.9a8.39 8.39 0 0 0-11.9 0c-.9.9-1.6 2-2 3.2l-10 2c-5.4-4.4-11.3-8.3-17.4-11.7l-2-9.9c.9-.8 1.7-1.9 2.2-3.1 1.8-4.3-.3-9.2-4.5-11-4.3-1.8-9.2.3-11 4.5-.5 1.2-.7 2.5-.6 3.7l-8.4 5.6c-6.6-1.9-13.5-3.3-20.6-4.1l-5.6-8.4c.6-1.1.9-2.4.9-3.7 0-4.6-3.8-8.4-8.4-8.4-4.6 0-8.4 3.8-8.4 8.4 0 1.3.3 2.6.9 3.7l-5.6 8.4c-7.1.8-13.9 2.1-20.6 4.1l-8.4-5.6c.1-1.2-.1-2.5-.6-3.7-1.8-4.3-6.7-6.3-11-4.5-4.3 1.8-6.3 6.7-4.5 11 .5 1.2 1.3 2.3 2.2 3.1l-2 9.9c-6.1 3.4-12 7.3-17.4 11.6l-10-2c-.4-1.2-1.1-2.3-2-3.2a8.39 8.39 0 0 0-11.9 0 8.39 8.39 0 0 0 0 11.9c.9.9 2.1 1.6 3.2 2l2 10c-4.4 5.4-8.3 11.3-11.7 17.4l-9.9 2c-.8-.9-1.9-1.7-3.1-2.2-4.3-1.8-9.2.3-11 4.5-1.8 4.3.3 9.2 4.5 11 1.2.5 2.5.7 3.8.6l5.6 8.4c-1.9 6.6-3.3 13.5-4.1 20.6l-8.4 5.6c-1.1-.5-2.4-.9-3.7-.9-4.6 0-8.4 3.8-8.4 8.4 0 4.6 3.8 8.4 8.4 8.4 1.3 0 2.6-.3 3.7-.9l8.4 5.6c.8 7.1 2.1 13.9 4.1 20.6l-5.6 8.4c-1.2-.1-2.5.1-3.7.6-4.3 1.8-6.3 6.7-4.5 11 1.8 4.3 6.7 6.3 11 4.5 1.2-.5 2.3-1.3 3.1-2.2l9.9 2c3.4 6.1 7.3 12 11.7 17.4l-2 10c-1.2.4-2.3 1.1-3.2 2a8.39 8.39 0 0 0 0 11.9c3.3 3.3 8.6 3.3 11.9 0 .9-.9 1.6-2.1 2-3.2l10-2c5.4 4.4 11.3 8.3 17.4 11.7l2 9.9c-.9.8-1.7 1.9-2.2 3.1-1.8 4.3.3 9.2 4.6 11 1.5.6 3 .8 4.5.5l-5.6 15.9h-10.2v11.6h130.2v-11.6h-10.2l-5.6-15.9c1.5.2 3 .1 4.5-.5 4.3-1.8 6.3-6.7 4.5-11-.5-1.2-1.3-2.3-2.2-3.1l2-9.9c6.1-3.4 12-7.3 17.4-11.7l10 2c.4 1.2 1.1 2.3 2 3.2 3.3 3.3 8.6 3.3 11.9 0 3.3-3.3 3.3-8.6 0-11.9-.9-.9-2-1.6-3.2-2l-2-10c4.4-5.4 8.3-11.3 11.6-17.4l9.9-2c.8.9 1.9 1.7 3.1 2.2 4.3 1.8 9.2-.3 11-4.5 1.8-4.3-.3-9.2-4.6-11-1.2-.5-2.5-.7-3.7-.6l-5.6-8.4c1.9-6.6 3.3-13.5 4.1-20.6l8.4-5.6c1.1.6 2.4.9 3.7.9 4.6 0 8.4-3.8 8.4-8.4-.4-4.5-4.2-8.3-8.8-8.3zm-253.2-1.2l-2.8 6.8-1.6-3.8 4.4-3zm-4.5 16.3l1.6-3.8 2.8 6.8-4.4-3zm5.3-.8l-2.5-5.9 2.5-5.9c-.1 2-.1 3.9-.1 5.9-.1 2 0 3.9.1 5.9zm236.1-50.8l3 2.9-3 4.4v-7.3zm.1 32.4L1406.6 414l101.6-30.8c1.9 6.5 3.3 13.3 4 20.3zm-6.8-39l4.5 4.5v6.3c-1.3-3.7-2.8-7.3-4.5-10.8zm4.5-2.8v4.2l-5.2-5.2 5.2 1zm-2.3 19.6l-101.7 30.8 93.7-50.1c3.2 6.1 5.9 12.5 8 19.3zm-9-21.2l-93.6 50.1 82.1-67.3c4.3 5.4 8.2 11.1 11.5 17.2zm-8.6-28.2l-1.1 5.2-2.8-6.8 3.9 1.6zm-4.3 3.1c-2.6-2.9-5.4-5.7-8.4-8.3l5.9 2.4 2.5 5.9zm-5.2-12.6l1.6 3.8-6.8-2.8 5.2-1zm-1.7 11.2c2.5 2.5 4.8 5.1 7.1 7.7l-82.2 67.4 67.4-82.2c2.6 2.3 5.2 4.6 7.7 7.1zm-9.3-8.3l-67.3 82.1 50.1-93.6c6 3.3 11.8 7.1 17.2 11.5zM1435 532.4l-1.1-.8h.9l.2.8zm-76.1-.7l-1.1.8.3-.8h.8zm-5.5-3.1l-.3.9h-3.7l-4.5-4.5c2.8 1.3 5.6 2.5 8.5 3.6zm-11.1-9.4l42.4-79.2-29.9 84.8c-4.3-1.6-8.5-3.5-12.5-5.6zm31.6-32.5l-12.3 40.5-1.8-.6 14.1-39.9zm14.9-42l4.9-14v2.3l-9.8 98.8c-7-.7-13.8-2.1-20.3-4l25.2-83.1zm4.9 8.9v78.9c-2.6-.1-5.2-.2-7.8-.4l7.8-78.5zm-3.2 82.8c1.1.1 2.1.1 3.2.1v1.2l-3.2-1.3zm3.1 3.6l-3.8 1.6-3-4.4 6.8 2.8zm5.5-3.5c1.1 0 2.1-.1 3.2-.1l-3.2 1.3v-1.2zm6.9.7l-3 4.4-3.8-1.6 6.8-2.8zm-6.9-4.7v-78.9l7.8 78.5c-2.6.1-5.2.3-7.8.4zm0-99.5v-2.3l4.9 14 25.1 83c-6.5 1.9-13.3 3.3-20.3 4l-9.7-98.7zm19.8 53.7l14.1 39.9-1.8.6-12.3-40.5zm20.5 41.9c2.9-1.1 5.7-2.3 8.5-3.6l-4.5 4.5h-3.7l-.3-.9zm-1.4-3.8l-29.9-84.8 42.4 79.2c-4 2.1-8.2 4-12.5 5.6zm12.6-222.3l1 5.2-5.2-5.2h4.2zm-2.7 4.5c-3.5-1.7-7.1-3.2-10.8-4.5h6.3l4.5 4.5zm-9.6-9.6l2.9 3h-7.4l4.5-3zm-7.2 7.4c6.7 2.1 13.2 4.8 19.3 8l-50.1 93.7 30.8-101.7zm-1.9-.6l-30.8 101.6 10.5-105.6c7 .7 13.7 2.1 20.3 4zm-26.1-13.9l3 4.4-6.8-2.8 3.8-1.6zm-.8 5.3c-2-.1-3.9-.1-5.9-.1-2 0-3.9 0-5.9.1l5.9-2.5 5.9 2.5zm-12.6-5.3l3.8 1.6-6.8 2.8 3-4.4zm6.7 9.2c3.5 0 7 .2 10.5.5l-10.5 105.7-10.5-105.7c3.5-.3 7-.5 10.5-.5zm-12.5.7l10.5 105.6-30.8-101.6c6.5-1.9 13.3-3.3 20.3-4zm8.6 106.3l-50.1-93.7c6.1-3.2 12.6-5.9 19.3-8l30.8 101.7zm-38-109.1l4.4 3h-7.4l3-3zm1.2 5.1c-3.7 1.3-7.3 2.8-10.8 4.5l4.5-4.5h6.3zm-13.6 0h4.2l-5.2 5.2 1-5.2zm-1.6 11.2l50.1 93.6-67.3-82.1c5.4-4.3 11.1-8.1 17.2-11.5zm-28.2 8.7l5.2 1-6.8 2.8 1.6-3.8zm-2.8 6.7l5.9-2.4c-2.9 2.6-5.7 5.4-8.3 8.3l2.4-5.9zm4.5 4.5c2.5-2.5 5.1-4.8 7.7-7.1l67.4 82.2-82.2-67.4c2.3-2.6 4.6-5.2 7.1-7.7zm-7.3-3.3l-2.8 6.8-1.1-5.2 3.9-1.6zm-1 12.6l82.1 67.3-93.6-50.1c3.3-6.1 7.1-11.8 11.5-17.2zm-12.5 19l93.7 50.1-101.7-30.8c2.1-6.7 4.8-13.1 8-19.3zm-10.3 13.4V369l4.5-4.5c-1.7 3.5-3.2 7.1-4.5 10.8zm5.2-14.6l-5.2 5.2v-4.2l5.2-1zm-10.3 13.4l3-2.9v7.4l-3-4.5zm6.8 9.1l101.6 30.8-105.7-10.5c.8-7 2.2-13.8 4.1-20.3zm-4.7 32.8c0-3.5.2-7 .5-10.5l105.7 10.5-105.7 10.5c-.3-3.5-.5-7-.5-10.5zm.8 44.9l-2.9-2.9 3-4.4-.1 7.3zm-.1-32.4l105.6-10.5-101.6 30.8c-1.9-6.6-3.3-13.3-4-20.3zm6.8 39l-4.5-4.5v-6.3c1.3 3.7 2.8 7.3 4.5 10.8zm-4.5 2.7V466l5.2 5.2-5.2-1zm2.3-19.5l101.7-30.8-93.7 50.1c-3.2-6.1-5.9-12.5-8-19.3zm8.9 21.2l93.6-50.1-82.1 67.3c-4.3-5.4-8.1-11.2-11.5-17.2zm8.7 28.2l1.1-5.2 2.8 6.8-3.9-1.6zm4.3-3.1c2.6 2.9 5.4 5.7 8.3 8.3l-5.9-2.4-2.4-5.9zm5.2 12.6l-1.6-3.8 6.8 2.8-5.2 1zm1.7-11.2c-2.5-2.5-4.8-5.1-7.1-7.7l82.2-67.4-67.4 82.2c-2.6-2.3-5.2-4.7-7.7-7.1zm9.3 8.3l66.4-81-.6 1.7-48.6 90.8c-6.1-3.3-11.8-7.2-17.2-11.5zm18.8 22.8l-1-5.2 5.2 5.2h-4.2zm9.4 2.2h.8l-.2.6-.6-.6zm5.1 4.1l6.1-4.1c6.6 1.9 13.5 3.3 20.6 4.1l5.6 8.4c-.6 1.1-.9 2.4-.9 3.7 0 3.7 2.4 6.8 5.7 7.9v6.2h-46.4l9.3-26.2zm42.5 26.3v-6.2c3.3-1.1 5.7-4.3 5.7-7.9 0-1.3-.3-2.6-.9-3.7l5.6-8.4c7.1-.8 13.9-2.1 20.6-4.1l6.1 4.1 9.3 26.3h-46.4v-.1zm41.4-30.4h.8l-.6.6-.2-.6zm10.1-2.2h-4.2l5.2-5.2-1 5.2zm1.7-11.3l-48.6-90.8-.6-1.7 66.4 81c-5.4 4.3-11.2 8.2-17.2 11.5zm28.2-8.6l-5.2-1 6.8-2.8-1.6 3.8zm2.8-6.7l-5.9 2.4c2.9-2.6 5.7-5.4 8.3-8.3l-2.4 5.9zm-4.5-4.5c-2.5 2.5-5.1 4.8-7.7 7.1l-67.4-82.2 82.2 67.4c-2.3 2.6-4.7 5.2-7.1 7.7zm7.3 3.3l2.8-6.8 1 5.2-3.8 1.6zm1-12.6l-82.1-67.3 93.6 50.1c-3.3 6-7.2 11.8-11.5 17.2zm12.5-19l-93.7-50.1 101.7 30.8c-2.1 6.7-4.8 13.1-8 19.3zm10.3-13.4v6.3l-4.5 4.5c1.7-3.5 3.2-7.1 4.5-10.8zm-5.2 14.6l5.2-5.2v4.2l-5.2 1zm10.3-13.4l-3 2.9v-7.4l3 4.5zm-6.8-9.1L1406.6 418l105.6 10.5c-.7 7-2.1 13.7-4 20.3zm4.2-22.3L1406.7 416l105.7-10.5c.3 3.5.5 6.9.5 10.5 0 3.5-.2 7-.5 10.5zm4.4-16.4l2.5 5.9-2.5 5.9c.1-2 .1-3.9.1-5.9 0-2 0-4-.1-5.9zm.8 15.5l2.8-6.8 1.6 3.8-4.4 3zm2.8-12.4l-2.8-6.8 4.4 3-1.6 3.8z" fill="#0F529C"/><path d="M1528.2 573.8c.3-.7.5-1.5.5-2.4-.1-2.9-1.1-5.7-3.1-7.7-1.2-7.2-10-12.4-17-10.8-1.3-1.2-2.8-2.2-4.6-2.6-2.3-.6-4.4-.2-6.4.8-1.6.8-2.8 2.3-3.5 3.9-4.6-4.9-11.5-8.2-17.6-5.8-3.5-1.5-7.3-2.7-11-1.6-4.1 1.2-6 4.7-6.7 8.5-4 0-8 1-10.6 3.9-1.2-.7-2.5-1.3-3.8-1.9-.7-3.4-2.1-6.5-5.2-8.7-3.2-2.2-7.2-1.4-10.5.2l-.9-.6c-3.1-2-7.6-2.1-10.6.1-3.7 2.8-4.8 6.9-3.9 11.4-1 .5-1.8 1.2-2.4 2.3-1.8 3.5-2.3 7.8-.2 11h117.5z" fill="#0F529C"/><path d="M1849.8 571.8H-165.7v39h2015.5v-39z" fill="#0F529C"/></svg>