<svg width="1600" height="600" fill="none" xmlns="http://www.w3.org/2000/svg" viewBox="0 0 1600 600"><path fill-rule="evenodd" clip-rule="evenodd" d="M1939.5-43.5H-124v705.8h2063.5V-43.5z" fill="#F5FCFF"/><path d="M1919.8 511.7V506h-3.6v-1.4h-5.4v-.2h-7.1V475l-3-.7h-8.1v-3l-4.1-4.2-1.8-.1v-5.4h-8v3.7l-2.7 2.5h-6.9V511h-3.1v-44.2s-1.7-2-4.1-3c-2.4-1-3.9-.7-3.9-.7v1.3h-1.2V463s-3-.1-5 .6-4.5 1.9-4.5 1.9-3.6-1.6-5.2-2.1c-1.6-.4-4.5-.6-4.5-.6l-.1 1-1.5-1.3s-6.4 1.3-6.6 4.1c-.2 2.8 0 23.2 0 23.2h-11.2v2.4h-9.2V491h-8.1v1.5h-9.6v14.2h-2V483h-4.3v-1.2l-.7-.4v-2.3h-.7v2.2h-2.7v-2.2h-.9v2.2l-.8.7v.9h-8l-3.1.5h-8.9v-1.3h-6.4v1.1h-4v-1h-8.1v6.4h-.6v-3.4h-3.8V484h-3.5v1.6h-5.3v1.6h-8.9V486l.2-.2v-.8h-.5v-13.9h-3l-7.8-.6c-.1-.4-.2-.7-.3-.9l-52.7.3c-.5 1.4-.4 14.8-.4 14.8h-5.8v.9l-2.4.1v16.1c-1.2 2.1-2.7 4.5-3.7 6.2v-2h-3.6v-1.4h-9.1v2.3h-1.9v-34.8h-1.8v-2.5h-16.5v-2h-.8v-8.9h-29.1v5.5c-.2-.1-.5-.2-.7-.3-2.4-1-3.9-.7-3.9-.7v1.3h-1.2v-1.4s-3-.1-5 .6-4.5 1.9-4.5 1.9-3.6-1.6-5.2-2.1c-1-.3-2.4-.4-3.4-.5v-4.9h-5.9l-1.2-1.2v-2.3h-2.1v2.2l-1.4 1.3h-4.5v7.4h-5.5v1h-3.4v2.2h-7.9V491h-6v1.5h-1.4v-.6h-3.1v.6h-2.7V479l-3.1-.4h-7.8l-2.1-2-8.8.6v1.3h-14.2v3.8h-5.1v1.1h-4v-1h-8.1v1.4h-2.2v1.6h-.7v3.4h-.4v14.3l-3.3-1.5v-14.7h-15.4v-.9l.2-.2v-.8h-.5v-13.9h-3l-7.8-.6c-.1-.4-.2-.7-.3-.9l-52.7.3c-.5 1.4-.4 14.8-.4 14.8h-5.8v.9h.3v4.3h-.5v.8h-.5v1.3s.8 1.7.9 2.8c.1 1.1-.2 2.5-.3 2.9-.1.3-3.9 6.7-6 10.2v-2h-3.6v-1.4h-9.1v4.1h-1.9V472h-1.8v-2.5h-16.5v-2h-.8v-8.9H1296v10.9h-8.1v15.6l-2.8 1h-6.7v-9.5h-4.9v-.6h-1.4v-17.9h-5.9l-1.2-1.2v-2.3h-2.1v2.2l-1.4 1.3h-4.5v7.4h-5.5v1h-3.4v2.2h-7.9v37h-1.8V501h-2.2v-4.5h-3.4v-4.4h-3.1v.7h-2.7v-13.6l-3.1-.4h-7.8l-2.1-2-8.8.6v1.3H1191v26.8h-2.1l-.5.5h-9.6v-20.3h-3.8V484h-3.5v1.6h-5.3v19h-4l-10.8 1.8h-3.1l-4.5.4-1.2-1h-1.4l-1.1-1h-5.9V487h-3s-.9-1.9-1.6-1.9c-.7 0-1.3-.2-1.3-.2l-.3-7.9-.6 8.1s-1.7.1-1.9.8l-.2.7h-3.4v16.9h-2.5c-.1-.7-.1-1.9-1.3-2.2-1.6-.4-2 .1-2.9.7-.9.5-3.2.8-3.2.8l-.4-1.6-1.2 1.9s-.8-1.1-3.4-1.4c-2.6-.3-5.7 1.6-5.7 1.6v2.2h-2.8v-2.3l-1.3-1.2v-16.3h-6l-6.3.2v20.6l-2.3 1h-1.9l-.5.5h-3.4v3.7h-1.4v-3.6l-3.7.4v-1.3l-3.1-.3h-2.2v-2.5h-7.1V475l-3-.7h-8.1v-3l-4.1-4.2-1.8-.1v-5.4h-8v3.6l-2.7 2.5h-6.9V511h-.9l-1.2-.8h-1v-43.3s-1.7-2-4.1-3c-2.4-1-3.9-.7-3.9-.7v1.3h-1.2v-1.4s-3-.1-5 .6-4.5 1.9-4.5 1.9-3.6-1.6-5.2-2.1c-1.6-.4-4.5-.6-4.5-.6l-.1 1-1.5-1.3s-6.4 1.3-6.6 4.1c-.1 2.1-.1 13.8 0 19.7h-.2v3.5h-11v2.4h-9.2v-1.2h-8.1v1.5h-9.6V512h-2v-28.7h-4.3v-1.2l-.7-.4v-2.3h-.7v2.2h-2.7v-2.2h-.9v2.2l-.8.7v.9h-8l-3.1.5h-8.9v-1.3h-6.4v1.1h-4v-1h-8.1v6.4H893v14.3l-3.3-1.5V487h-15.4v-1l.2-.2v-.8h-.5v-13.9h-3l-7.8-.6c-.1-.4-.2-.7-.3-.9l-52.7.3c-.5 1.4-.4 14.8-.4 14.8H804v.9h.3v4.3h-.5v.8h-.5v1.3s.8 1.7.9 2.8c.1 1.1-.2 2.5-.3 2.9-.2.4-7.4 12.4-7.4 12.4l-1.7 3.1h-11.6v-41.3h-1.8v-2.5h-16.5v-2h-.8v-8.9H735v8.7l-.4.3h-6.9v1.9h-.8V485l-2.2.8v-19.2s-1.7-2-4.1-3c-2.4-1-3.9-.7-3.9-.7v1.3h-1.2v-1.4s-2.4-.1-4.3.4v-5.4h-6.6l-1.2-1.2v-2.3h-2.1v2.2l-1.4 1.3h-4.5v5.7l-1.4-1.1s-6 1.2-6.5 3.9h-.9v2.2h-7.9V490h-2.4v2.4h-5v-.3h-3.1v.3H667v-1.2h-1.4v-12l-3.1-.4h-7.8l-2.1-2-8.8.6v1.3h-14.2v4.6h-.4l-3.1.5h-8.9v-1.3h-6.4v1.1h-4v-1h-8.2v6.4h-3.3v14.3l-3.3-1.5v-14.7h-15.4V486l.2-.2v-.8h-.5v-13.9h-3l-7.8-.6c-.1-.4-.2-.7-.3-.9l-52.7.3c-.5 1.4-.4 14.8-.4 14.8h-5.8v.9h.3v4.3h-.5v.8h-.5v1.3s.8 1.7.9 2.8c.1 1.1-.2 2.5-.3 2.9-.1.2-1.9 3.2-3.7 6.3h-.3l-3.5.3-.9-.7h-1.1l-.9-.7h-4.5V491h-2.4s-.7-1.3-1.2-1.3c-.6 0-1-.2-1-.2l-.2-5.4-.5 5.5s-.3 0-.6.1V472h-1.8v-2.5h-16.5v-2h-.8v-8.9h-29.1v10.9h-8.1v12.7h-4.2v-2l-3.2-2.8-1.4-.1v-3.6h-6.2v2.3h-.9v-17.9h-5.9l-1.2-1.2v-2.3H404v2.2l-1.4 1.3h-4.5v7.4h-5.5v1h-3.4v2.2h-7.9v5.8l-.3-.2s-5 .9-5.1 2.8c-.1 1.9 0 15.8 0 15.8h-2.1v-1h-3.1v.7H368V479l-3.1-.4h-7.8l-2.1-2-8.3.5v-.4.4h-.4v1.3h-14.2v9.8H331l-2.4.4h-6.9v-.9h-1.8v-2.3h-3.8V484h-3.5v1.6h-2.9l-6.3.2v15.8l-1.2-.5v-10h-11.6v-.7l.2-.1v-.5h-.4v-9.4h-2.3l-6-.4c-.1-.2-.2-.5-.2-.6h-3.8V475l-3-.7H267v-3l-4.1-4.2-1.8-.1v-5.4h-8v3.6l-2.7 2.5h-6.9v11.6h-2.3c-.4 1-.3 10.1-.3 10.1h-.5v-22.7s-1.7-2-4.1-3c-2.4-1-3.9-.7-3.9-.7v1.3h-1.2v-1.4s-3-.1-5 .6-4.5 1.9-4.5 1.9-3.6-1.6-5.2-2.1c-1.6-.4-4.5-.6-4.5-.6l-.1 1-1.5-1.3s-6.4 1.3-6.6 4.1c0 .7-.1 2.6-.1 4.9h-20.5v7.5h-6.3v10.6l-2.2.7h-5.1v-6.4h-3.8v-.6h-1.1V471h-4.5l-1-.8v-1.5h-1.6v1.5l-1.1.9h-3.4v5h-4.2v.7h-2.6v1.5h-6.1v5.1h-6.8v-1.3H127v1.1h-4v-1h-8.1v1.8l-1.6.1v.9h-11v1.8h-9.4v-.8l.2-.2v-.8h-.5v-13.9h-3l-7.8-.6c-.1-.4-.2-.7-.3-.9l-52.7.4c-.5 1.4-.4 14.8-.4 14.8h-3.6v-1.9l-2.3-.5h-6.3v-2l-3.2-2.8-1.4-.1v-3.6h-6v2.5l-2.1 1.7H1.8v-5.9H0v-2.5h-16.5v-2h-.8v-8.9h-29.1v10.9h-8.1v15.6l-2.8 1h-3.4v80h838.8v-.1l1141.9.1v-54.7l-.2.1zm-1861-21.4h-3.5v-4.4h3.5v4.4zm483.6 0h-3.5v-4.4h3.5v4.4zm297.2 0h-3.5v-4.4h3.5v4.4zm561.3 0h-3.5v-4.4h3.5v4.4zm283.4-3.6h-1.4v3.6h-2v-4.4h3.5v.8h-.1z" fill="#97D0E8"/><path d="M1915.4 563.7v-1.4h-5.6l-1.4-.7-3.1 1.8-11.6-1.3V543l-2.1-1.1h-2.1l-.6-.8h-2l-.7-1.8-.7 1.9h-2.5l-3.3 1.8v4.4l-2.9 1.5V562l-2.4 1.4v6.3h-2.8l-.7 1h-3.7v-.5l-2.2-1.3v-8.3h-4.2v-11h-26.4v16.2h-6.6l-.9.5-2.4-1.3h-1.6v-3.4h-2.8l-5.1-4.6h-1.4l-3.1 2.3v-20.9h-26.4v11.2h-21.5v11l-4.2-.7-6.3 1.3-14.7.4v-7.2l-1.5-2.7V548l-2-.8V538l-7.8-5.6h-18.9v.8h-2.4l-4.5 4.6h-1.9v8.4h-5l-2.6 1v2.3h-7.3v-17h-7.6v-5.4h-5.8v-1.7h-3.6l-2.2 1.6h-1.7v-1.6h-2.5l-2 1.4h-10.8v-1.3h-1.1v1.4h-23.4v5.5h-6.4v3h-1v2.4h-5.7v29.8h-6.2v-9.3l-1.4-.3v-7.4l-2-1.4v-5l-3.3-1.1V542l-1.2-.6-4.7-5.3h-1.4l-1.6-2.8v-2.4h-1.2l-.6-1.4-1.1 3.8h-1.1l-7.4 8.5h-1.6v-2.2h-1.6v-.8l-3.8-2.6-4.8 3.4v2.1l-7.3 1.7v3h-2.1v18.5h-2.2v13.3h-6.7l-3.6 2.5h-2v-26.2h-16.2v-.9h-1.7v-1h-12.6v-.6l-2.1-1v-.7l-1.4-.8-.1-2.8-1.2-.8v-2.4h-1.7v-2.3h-1.5v-1.7h-1.4v-6.3h-1.6v-2.7h-1.5l-1-4.5-.5 4.6h-1.2v2.7h-1.9v6.3h-1.1v3h-1.4v1.4l-3.1.6-.1 7.2-11 .2-1.5.5-17.1.4-.1 2.1-3 .1-.2 4.7-2.7.6-.1 6.3-5.9-.1-.1.9h-1.2l.1-3.2-3.3-.1v-1.4l-2.8-.2v-27.7h-4.6v-1.6h-7.4v-3.8h-30.2v4.5h-25.3v8.8h-10v.6h-1.2v2.9h-1.6v-16.8h-1.2v-10.9h-1.5v-1h-2.8l-3-6.2-1.1-2.9-.6 2.9-3.1 6.5h-1.4v2.8h-.9l.1-4.5h-31.9l-1.6.8h-1.4l.4 33.8-.2 1.6h-3.6l-4.2-47.3h-29.2l-3 40.9h-7.7v-12.4l-5.3-4.2v-26l-13.1-6.3-26.4 5v30.2l-9.9 5.2v2.9h-10v-30l-10-5.2h-21.8v7.2l-10.3-5.9h-3.8l-28.6 8v.8h-25.7v-5.1h-35.7v22.6h-1.4v-27.3l-17.8-1.2v-1.9h1.5v-.7h-4.2v.7h1.5v1.9l-8.7-.5-20.2.2.4 33h-1.5v1.2h-3v2.3h-3.1v-1.4l-5-5.7-2.2.8v-5.4h-1.5V523h-1.5v-.5h-3l-7.3 2.3v3l-1.5.1-.1-7.7h-1.4v-3.3h-1.6v-3h-1.4l-5.8-6.5-2.7-8.1-2.4 8-5.4 6.7h-1.6v8.3h-1.5v1.4h-1.6v10.6h-1.7v-1.7h-4.3V523l-1.4-1.4v-4l-1.5-8.6h-2.8v-2.5l-3.3-3V502h-1.2l-1-3.2-.5 3.2h-1.2v1.5l-7.8 8.6h-17.5v.8l-5.5 2.5v-5.9h-2.9V508h-2.7v1.8h-4.1v21.5h-3.1l-8.3 2h-2.4l-3.5.5-.9-1.1h-1.1l-.9-1.2h-4v-13.7l-.6-.6v-5.9h-2.4s-.7-2.1-1.2-2.1c-.6 0-1-.3-1-.3l-.2-8.9-.5 9.2s-1.3.1-1.5.9l-.2.8h-1.1v-.2l-2.8-.8v-.6h-3v3.5l-4.2 3.8-.2 11.2h-4l-1.7-.8h-4.8v-17.3h-4.6l-4.9.2v18l-1.6.4-.1 4h1.7v.9l-1 .6h-8.2v1.6l-1.1.2v-1.5l-2.4-.3h-2v-2.9h-5.5v-33.3l-2.3-.8h-6.3v-3.4l-3.2-4.7-1.4-.2v-6.1h-6.2v4.1l-2.1 2.8h-5.4v48.9h-2.4v-50s-1.3-2.3-3.2-3.4c-1.9-1.1-3-.8-3-.8v1.5h-.9v-1.6s-2.3-.1-3.9.7c-1.6.8-3.5 2.2-3.5 2.2s-2.8-1.9-4-2.4c-1.2-.5-3.5-.7-3.5-.7l-.1 1.2-1.2-1.4s-5 1.4-5.1 4.6c-.1 3.2 0 26.2 0 26.2h-8.7v2.7h-7.1v-1.3h-6.3v1.7h-7.5v21.8h-1.6v-32.5h-3.3v-1.4l-.6-.4v-2.6h-.6v2.5h-2.1v-2.5h-.7v2.5l-.6.8v1h-6.2l-2.4.6h-6.9v-1.5h-5v1.3h-3.1v-1.1h-6.3v7.2h-2.6v16.2l-2.6-1.7V511h-12v-1.2l.2-.2v-.9h-.4V493h-2.3l-6.1-.7c-.1-.4-.2-.8-.2-1.1l-40.9.4c-.4 1.6-.3 16.7-.3 16.7h-4.5v1.1h.2v4.9h-.4v1h-.4v1.5s.6 1.9.7 3.2c0 1.3-.1 2.9-.2 3.3-.1.3-3.1 7.5-4.7 11.5v-2.3h-2.8v-1.6H600v4.6h-1.5V494h-1.4v-2.8h-12.8v-2.3h-.6v-10h-22.5v12.4h-6.3V509l-2.2 1.1h-5.1v-10.7h-3.8v-.4h-1.1v-20.2h-4.5l-1-1.3v-2.6h-1.6v2.4l-1.1 1.5H531v8.4h-4.2v1.2h-2.6v2.5h-6.1v41.8h-1.4v-5.5H515v-5.1h-2.6v-5H510v.8h-2.1v-15.3l-2.4-.5h-6l-1.7-2.2-6.8.6v1.4h-11v30.3h-1.6l-.4.6h-7.4v-22.9h-3V508h-2.7v1.8h-4.1v21.5h-3.1l-8.3 2H447l-3.5.5-.9-1.1h-1.1l-.9-1.2h-4.5v-20.1h-2.5s-.7-2.1-1.2-2.1c-.6 0-1-.3-1-.3l-.2-8.9-.5 9.2s-1.3.1-1.5.9l-.2.8h-2.6v19.1h-.6v-25.2h-27.4v5h-.8v23.3l-1.7 1.2h-1.5l-.4.6h-2.7v4.2h-1.1v-4l-2.9.5v-1.5l-2.4-.3h-1.7V531h-5.5v-33.3l-2.3-.8h-6.3v-3.4l-3.2-4.7-1.4-.2v-6.1h-6.2v4.1l-2.1 2.8h-5.4v48.9h-.7l-.9-.9h-.8v-49s-1.3-2.3-3.2-3.4c-1.9-1.1-3-.8-3-.8v1.5h-.9v-1.6s-2.3-.1-3.9.7c-1.6.8-3.5 2.2-3.5 2.2s-2.8-1.9-4-2.4c-1.2-.5-3.5-.7-3.5-.7l-.1 1.2-1.2-1.4s-5 1.4-5.1 4.6c-.1 2.4 0 15.6 0 22.3h-.1v3.9h-8.5v2.7h-7.2v-1.3h-6.3v1.7h-7.5v21.8h-1.6v-32.5h-3.2v-1.4l-.6-.4v-2.6h-.6v2.5h-2.1v-2.5h-.7v2.5l-.6.8v1h-6.2l-2.4.6h-6.9v-1.5h-5v1.3h-3.1v-1.1h-6.3v7.2h-2.5v16.2l-2.6-1.7v-16.6h-12V510l.2-.2v-.9h-.4v-15.7h-2.3l-6.1-.7c-.1-.4-.2-.8-.2-1.1l-40.9.4c-.4 1.6-.3 16.7-.3 16.7h-4.5v1.1h.2v4.9h-.4v1h-.4v1.5s.6 1.9.7 3.2c0 1.3-.1 2.9-.2 3.3-.1.4-5.7 14.1-5.7 14.1l-1.4 3.5h-9v-46.8h-1.4v-2.8h-12.8v-2.3h-.6v-10h-22.6v12.4h-6.3v17.7l-2.2 1.1h-2.6v-35.7H82.5v44.2h.1v24.3h-1.4V527h-1.6v-5.1H77v-5h-2.4v.8h-2v-15.3l-2.4-.5h-6l-1.7-2.2-6.8.6v1.4H44.6v31.4h-1v5.8h-3.5v.9h-3.4v-6.4h-1.6v-2.2h-9.5v1.1h-1.5v4.5h-2.9l-2.3-.6v-3.8h-1.4v-.7h-1.1v1h-4.9v-1.2h-2l-.4-.5H6.6l-.4.5H1.1v-1.1h-2v-.3h-9.5l-1.4.1v-.2l-.6-.7-.6.8v.1l-1.3.1v-.3h-4.5v.5l-2.5.1v2.6h-1.3v-3.3h-1.2l-.4-.5h-2.7l-.6.7H-30l-.3.4h-5.6v-15.6h-2.3v-1.3h-2v1.2h-3.2v-9.9h-17.3v96.2l877.3.1v.7H1920v-38.2h-4.6zM207.6 515.1h-2.7v-5h2.7v5z" fill="#97D0E8"/><path d="M1921.7 590.3H1910c-.5-.4.3-1.1-1.4-1.4 0-.1.1-.3-.2-.4-.9-.1-2.6 0-3.5-.1-.8-.2-1.1-.5-2.1-.7-2.3-.1-5.3 0-8.1 0-.7-.1-1.2-.2-1.5-.4h-3.7c-.3.1-1 .1-.8.3-1-.1-1.9.1-2.9.1h-6.4c-.6.2-.1.6-.6.9-1.3 0-1.4-.2-2.9-.1-.5.1-.6.2-1.5.2-.6.2.7.4-1 .4-1 0-.6-.2-.6-.3 0-.1.1-.3 0-.4-.1-.1-.5-.1-.6-.2-.3-.2.2-.3 0-.5-.1-.1-1.3-.1-1.5-.2v-2.4c0-.3.4-.6-.6-.7-1.4-.1-.8.2-1.2.3-1 0-1.9.1-1.6.3-.4-.2-.1-.5-.2-.8 1.2-.2.4-.3 1.2-.5-.1-.2-1.9-.1-2.1-.3.7-.2.8-.6.4-.9-.5-.1-1.9-.1-2.3-.1-.7-.8-.8-1.9-1.4-2.7-.1-.1.4-.3-.6-.4-1.1.1-.6.4-.6.6 0 .7.3 1.5 0 2.2-1.2 0-2.7 0-2.5.3-1.2-.1-2.8 0-4.3 0-1 0-.1-.3-1.5-.2-1 .1-.5.5-.6.7-.5-.2-.2-.4-1.2-.5-1 0-.9.2-1.2.4-.2.1-.4.4-.6.5-.5.2-1.3.2-1.9.4 0 .6-.2 1 .2 1.5.1.1-1.1 0-1 .2v1.8c-.3.1-1.5.1-1.7.2-1-.1-1-.2-2.1-.3-1-.1-2.4 0-3.7 0-.1-.3.2-.6 0-.9 0 0-.3-.1-.4-.2-.1-.1.1-.2 0-.3-.4-.1-1.4-.2-1.5-.3-.3-.2.3-.5.2-.7-.1-.2-.4-.4-.6-.6h-4.1c-.9.1-.6.4-1.7.5-.1.5.3 1.1-.2 1.5-1.8.1-.8-.3-2.1-.3-.1-.3.2-.6-.2-.9-2 0-3.9-.1-6-.1-1.8 0-4.9-.1-6.4-.1-.9 0-2.3.3-2.5.4-.8.5.9 1.3-.4 1.8-.8.1-2.1 0-2.9.1-.3.4.4 1 0 1.4-.1.2.2.3-1.2.3-.9 0 0-.3-.6-.4h-3.5c-.3.2-.4.4-1.9.4-.4-.3 0-.7.2-1 0-.1-.6-.1-.8-.3-.4-.3.4-.7 0-.9-.4-.2-1.4-.3-2.1-.4-.1-.3-.1-.7-.4-1-2.8-.1-6.2-.1-9.5-.1-.7 0-.4-.2-1-.2-2.5-.2-6.9 0-10.1 0-.5-.1.1-.4-.4-.5-2.4-.2-5.8-.2-9.3-.2-.5-.2-.4-.4-1.4-.5-1.8 0-3 .1-4.6 0-.1-.3.2-.6-.2-.9-.8-.1-2 0-3.1 0-.8 0-.1-.3-.8-.4-2.7-.1-7 0-9.1-.2-.6 0-.9.1-1.7.1-.6.1-.7-.1-1.4-.1-.5 0-.8.1-1.2.1-.6 0-1.1-.1-1.7-.1-5.6-.1-12.8 0-19-.1-.4-.4-.2-.8-.2-1.3 0-.4.5-.9-.2-1.3-.5-.3-2.8-.4-4.4-.6-1.3-.2-3.2-.5-4.6-.6-2.4-.1-6.1 0-9.1 0-1.1 0-2-.1-3.1 0-.5 1.5-.1 3.2-.2 4.8-3.8.1-8.6 0-12.2.1v.5c-1.7.1-4.8 0-6.2.1v1.9c-.6-.2-1.2-.5-1.9-.7-.1 0-.2-.1-.2-.1v-.1c-.6-.2-1.3-.3-1.5-.5-.7-.6.5-1.2 0-1.9-.7-.1-1.7-.1-2.3-.2.2-.8-.8-1.3-1.2-2 0-.1-14.3-1.4-14.1-.9-1.6-.1-3.3-.6-5-.8-.5-.1.5-.2 0-.3-2.9-.4-9.1-.4-13.7-.3-.8.1.4.2-.4.3-.9 0-1.1.2-1.9.2-.6 0-1.4-.1-2.1-.1-.7 0-.3-.2-.4-.3-.2-.1-.8-.1-1.2-.1l-.4-29 282 .1V523c-.5 0-142.7 6.5-143.2 6.6-16.8-3.5-33.3-9.1-49.6-16.7-57-26.9-90.5-70.7-90.9-71.1h-.1v-.7l-60.8-12.3-5.2 2.8v1.9c-5.3 11.4-38.2 78-88.3 86.7-3.9.7-7.9 1-11.9.9-12.2-6.1-24.4-15.7-36.6-28.6v-2.1l-33.6-6.8-2.9 1.6v1.6c-5.8 7.8-26.4 33.2-57.7 46.7l-.9-.3c-2.8-.5-8.7.3-12.1.5-3.9.2-7.6.4-11.4.8-.5 1.2-.4 2.9-.4 4.5-1.5-.2-3-.5-4.5-.8 0-2 .2-4.1 0-6-2.1-.5-1.6-2.8-3.3-3.5-2.1-.3-5.9-.5-7.7-.3-.4 1.7-1.1 6.3-1 6.9-6.2-1.8-12.7-4.2-19.2-7.1v-3.1c-1.2-1-2.8-1.4-3.7-2.8-.4-.7-.8-3.2-1.1-4-.5-1.2-.4-2.7-2.2-3-1.9.5-1.4 2.8-2.2 4-.2-1.9.7-4.7-1.1-5.6-.2 0-.3 0-.5-.1l.5-20.8-13.4-1.4-2.7.7c-.2-.3-.4-.5-.8-.7-1 .1-1.2.6-1.2 1.2l-12.9 3.3-.5 27.5c-2.5-1.5-4.9-3.1-7.4-4.8V498l-.4-.4v-6.9h-1.5v-.8h-1.1v-2h-.5v-.9h-2v-2.9l-13.9-11.4-14.6 8.1v3.3h-1.5v3.9h-1.3v6.6h-1.9v11.2h-8.5v2.5h-2.3v2.5h-2.1v3.8h-2v4h-2.4v5h-3.5v2.4h-2.5v3.2h-.9v3.3h-.7v2.9h-.8v11.8h-4.3s-.9-45.6-1.3-75.2c-.2-.4-1-.2-1-.8V456c-.8-.5-2.2-.4-3.1-.8-.1-2-1.4-7-1-8.8-.7-.5-1.6-.8-2.2-1.3-.1-.6.4-.8 0-1.2-.9-.7-2.3-2-2.7-3.5-.9-3.2.2-7.9-.5-11.6-.2-1.1-1-1.9-.5-3-.3-.6-1-.8-1.2-1.5 0-4.4-.7-9.1 0-13.1-.8-2.2-.8-5.9-1.1-8.6-.5 2.7-.1 6.5-1.2 8.7.7 1.8.3 9.9.3 12.9 0 .8-1.1 1.1-1.3 1.7.5 1.1-.3 1.9-.5 3-.6 3.4.1 7.5-.3 11.9 0 .7-4.9 16-5 17.1-.2 1.8.3 3.9-.2 6.1-.2.4-2.1 3.1-2.3 4.5-.5 3.8.5 8.6-.2 12.4-.2.9-1 1.9-1.2 2.8-.5 3 .1 27.2 0 35.9h-1.7l-2.5.3-.3-39.3-21.1-3.2-9.5 2.8.1 17.8-.7.1h-.2c.1-36.3.2-74.7.2-90.5 0-31-25.7-30.4-25.7-30.4l-8.4 2.4V517c-3.2-.4-6.3-.8-9.5-1.2-.9.3-.8 2.6-1.6 2.2-.4-29.5-.8-58.9-1.6-88-.5.7-.1 2.1-.9 2.4-.1-.7.2-1.7-.4-1.8-.3 1.7-.3 3.7-.7 5.3-.1-1.1.2-2.6-.2-3.3-1.2.4-.7 2.4-1.3 3.3-.3-2.6-.2-7.3-.4-10.7-4.1-.5-8.1-1.2-12.5-1.6.1-.8-.8-6-.9-7.8-.3-7.6-.4-16.2-.7-23.6v-4c-.5-.2-.1 2.4-.2 3.3v24.3c0 2.6.4 5.2-.7 7.3-2.8-.3-5.7-.6-8.2-1.1v11.4c0 1.1.4 2.6-.4 3.3-1.1-1.9.4-6.5-1.8-7.3-.2 5.7-.2 11.5-.7 16.9-.3-.3-1.1-.2-1.8-.2-1-6.4-.7-14.1-1.8-20.5-.7 19.2-.6 38.7-.4 58.4h-.8v-.6h-2v-14.1h-.7v-4.1h-.8v-4.1h-.7v-1.5h-.7v-2.3h-.6v-2h-.8v-.8h-.6v-2.7h-.6v-2.2h-.7v-3.5h-.8v-5h-.6l-.2-18-.5 18h-.6v5h-.7v3.6h-.8v2.2h-.5v2.7h-.9v1.5h-.6v2.9h-.7v2.1h-.8v4.2h-.6v4.2h-.7v14.7h-2v-.8h-.8V482h.7v-1.2h-.8v-1.5h.7V478h-.7v-2.1h.8v-1.5H997v-1.5h1.4v-1.3h-2.1v-1.3h.8v-1.5h-2.2v-1.1h1.3v-1.6h-2.1v-.8h1.4v-2h-2.1v-.7h.7v-2.1h-2v-.9h1.4v-1.9h-1.3v.4h-.8v-1.4h1.2v-1h-.5v-1h-.5v.7h-1v-.9l1 .2v-1.9h-2.3v-.8l-5.7-15.6-12.6-2.1-5.2 19.1h-.4v.6h-1.6v1.6h1v1.4H963v2h1v.7h-1.4v2.1h.7v1.3h-2.1v1.4h1.3v1.4h-2.1v2.2h1v.8h-1.5v2h.8v1.3H959v1.4h.8v1.4h-1.9v1.6h1.1v1.6h-2v1.4h.6v.7h.7v1.2h-.8v2.1h.9v.6h-.7v1.4h.8v1.4h-.9v1.4h.7v1.3h-.8v1.5h.9v.9h-.9v1.2h-1.2v2.9H955V493h-3.1v8.3c-.3.3-.5.3-.7.3v-45.3c.1-.9-1-.6-1.3-1.1.2-1.5-.3-2.5 0-3.6.4-1.5 2.1-1.7 1.9-3-1.5-.2-3.3.7-4.9-.2-.5-1 1.4-1.4 1.5-2.6-.7-.4-1.5-.1-2.1.2-.3-4.3.4-8.4-.2-12.1-.1-.5-.3-1-.6-1.5-.1-.5-.2-1.1-.3-1.6 0-1.1.2-2.1 0-3.2-.1-.8-.7-1.5-.9-2.3-.3-2 .3-4.2-1.1-6 .1-3.2-.5-5.6-1.9-7.2.2-3.1-1-4.8-2.3-6.4.5-2.2-1.2-3.6-1.7-5.5-.2-.7-.3-1.4-.3-2.2 0-.4 0-.9-.1-1.3 0-.3-.1-.6-.2-.9v-.1c-.3-1.6-.5-3.1-.6-4.7 0-.6.1-1.2 0-1.8 0-.4-.2-.8-.3-1.2-.2-2.1-.3-4.2-.4-6.3-.2-4.9-.1-10-.4-14.9 0-.6-.1-1.3-.1-1.9 0-.4 0-.8-.1-1.1v.6c-.1-.4-.2-.7-.3-1.1-.7 6-.4 12.4-.6 18.5-.2 4.7-.4 9.4-1.3 14.1-.3 1.6-.3 3.2-.6 4.5-.5 1.9-2.2 3.4-1.7 5.5-1.3 1.6-2.6 3.3-2.3 6.4-1.4 1.6-2.1 4.1-1.9 7.2-1.4 1.8-.7 4-1.1 6-.1.8-.7 1.6-.9 2.3-.2 1.3.2 2.5 0 3.8-.1.8-.7 1.5-.9 2.3-.6 3.7.1 7.9-.2 12.1-.6-.3-1.4-.6-2.1-.2.1 1.1 2 1.5 1.5 2.6-1.6.9-3.4.1-4.9.2-.2 1.2 1.5 1.5 1.9 3 .3 1.1-.2 2.1 0 3.6-.3.5-1.4.2-1.3 1.1-.1 18.5.3 13-.2 31.9-1.6.1-2.6.2-4.3.3-.6.3-.2 1.5-.6 1.9h-3.8c.1 2.5-.3 3.3-.2 6-.7.4-.9.9-1.1 1.7-.4 1.9-.3 4.6-.3 7.2 0 4.3.1 8.7.1 13.2 0 1.5.7 3.9-1.1 4.5.4-15.1-5-96-6-104.2-.1-1.3.1-2.7-.2-3.6-.7-2.3-3.9-3.9-4.5-6.4-.4-1.9 0-4.3 0-6.4 0-6.3-.2-12.4-.2-18.3-1.5.2-2.5 1.1-4 1.3.2-7.5-.2-14.5-.2-21.9-.8-2-.3-6.6-.4-9.8 0-.7.4-2-.4-2.3 0 4.8-.2 9.9-.2 14.9 0 5.4-1.6 18.5-1.1 20.2-2.4.6-4.4 1.4-6.6 2.1-1.8 6.6-3.3 14-4.9 21.3-.5 2.3-1.4 4.5-1.7 6.8-.7 4.8-.7 9.9-1.1 14.9-1.1 13.8-3.7 83.1-3.8 83.8v1.7h-1.2l-1-20.4-6.5-.5v-1.7l-.3-.3-8-193.6-5.6-1.5 3.3-4.5-6.5-4.2-5.9-.6s.3-48.7-2.4-59c0 0-2.1 12.5-2.1 59.3l-10.7 1.5-2.4 5.3 3 2.4-5.3 3.3-5.5 188.6H813l-1.4-.2v-84.9l-24.5-5.5-9.5 3.9-.9 52.4h-.4l-.3-1.8-.3 1.2-1.6.1-.1-2.6-.4-.1-.2-3.8-.3.1-.2-2.3-.5-.2-.1-.8h-.4l-.1.6-.3.5-.1 1.7-.1.5h-.5v-7l-.5-.1-.1-.5-.5-.4-.1-.9-.4-.1-.2-1.7-.4-.3-.5-.7-.2-2.4-1.3-1.7-.7-.1-.1-3h-.5v.5h-.4l-.1 2.5-.6.1-1.1 1.2-.1 1-.3.1-.1 1.3-.5.4-.1.9-.5.3v1.1l-.5.3v.9l-.9.3-.1 1.4-.5.4-.1 6.1h-.4l-.1-2.6h-.5l-.1-1.1-.3.1-.2.9-.4.1-.1 2.1-.5.1v3.8l-.5-.1-.2 1.1-.5.5-2 .1-.7.9-1.5.1v.5h-1.6v.6l-1.1.7v-164l-12.3-2.8-17 1.6v206.2l-.3-.1h-2.4l-9.4 1.4v-20.1H705v-8h-4.4v-10.3l-1.3-.2V385h-2.7v-15.2H693v-9.3h-1.7V357h-2.9l-.3-2.5-1.6-.2-.1-2-2-.2-.1-4.2-1.1-3.4-.1-3.1-.7-3.1-.1-3.5-1-3.2-.2-6.7-1.6-29.3-1.5 29.2-.1 6.9-.9 2.9v3.5l-.9 3.3-.1 3.3-1.3 3.2-.1 4.2H673l-.4 2.6h-1.7v2.7h-2.3v2.9h-1.9v9.3h-3.1v15.9h-1.5v76.8h-1.7v9.9h-2.7v3.1c-.2 0-.5.1-.7.1-.3 1.3-.3 3.1-.3 4.8h-2.1v2.7l-1 .2c0-3.6.1-7.4 0-10.9-1.4-.7-1.1-3.9-2.3-4.9-1.5-.5-5.4-.4-5.4-.4s-.1 12.7-.5 14.8c-.3 1.4-1.6 1.7-2 3.2v.1l-.7.1v3.2h-3.3v.5h-1.1v.5h-.6v1.5h-.5v-.5h-.9v.5h-.7v.6h-2.7v-10.5c.2-1.6-1.3-.7-1.3-2.1.1-6.2 0-10.3 0-16.6-.9-1.4-1.7-1.9-2.3-3.9-.3-.9-.5-4.5-.8-5.6-.3-1.6-.3-3.7-1.5-4.2-1.3.8-.9 3.9-1.5 5.7-.2-2.7.5-6.6-.8-7.8-1.9-.8-.8 2.5-2 2.5-1.9.1-5.6.4-5.6.4s-1.7-3-3.3-3.5c-.3-6.8-.4-17.2-.4-25.2 0-2.3-2.2-5.3-2.2-5.3s-.3 23.2-.8 34.5c-.5-.5-3.1.2-3.1.2l-.3 9.5-2 2.8 1.5 4.9s.3 6.4-.3 8.5c.5-2.8-.8-3.2-2-3.5.1-3.8-1.5-3.5-1.5-3.5s-.8 26.1-.8 34.6c-.3 1.2-1.9.4-2 1.8-.3 1.6.3 3.2 0 4.9-.2.8-.7 1.2-.8 2.1-.1 1.3.1 3.3 0 4.6 0 .8.6 3.2-.8 3.2-2.2.6-.5-2.6-1.3-4.2-.1 0-.2 0-.4-.1V482h-1v-8.5h-2.2v-4.3h-1.2v-1h-2.1v-.7h-.5c0-.7-5.4-10.9-15.9-10.9s-14.9 10.5-14.9 10.5h-.9v1.7h-1.2v3.6h-3.1l-.2 35.4c-7.3.1-15.6.3-22.6.2-40.7-10.3-68.5-44-76.5-54.7 0-1.5-.1-2.3-.1-2.3l-1.1-.2v-2.1l-1 .1-.3-2.3-2.2.2-.1 2.6-1.3.1v2.6l-5.3.1v-2l-1.5-.1.1-2.2h-2.8l.1 2.3h-1v2.6l-18.7 1.2v-1.8h-1v-2l-3 .1v2.3l-1.1.2v2h-4.9v-1.9l-.9-.1-.1-1.6-2.3.1v2l-.7.1v1.6l-1.1.6v1.4c-17.1 22-34.5 36.8-52.1 44.2-37.2-14.5-64.1-61.8-72.8-78.8-.1-4.9-.2-7.8-.2-7.8l-1.7-.4v-3.3l-1.5.2-.5-3.7-3.5.4-.2 4-2 .2v4l-8.4.2v-3.2l-2.4-.2.2-3.5h-4.4l.2 3.7h-1.5v4l-29.6 1.9V416h-1.5v-3.2l-4.7.2v3.7l-1.7.4v3.2H208v-3l-1.3-.2-.2-2.5-3.7.2v3.2l-1.2.2v1.6c-.4.4-.8.9-1.3 1.5l-.4.2v.2c-9.1 10.2-39.9 42.1-86.7 63.6-2.1.9-4.6 2.3-7.3 4-.2-3.7-.4-7.5-.6-10.9-.2-2.6-.7-5.8-.4-7.2.7-2.8 3.8-3.5 6.1-4.5.9-3.7 2.5-8.3 1.1-12.9-3-.8-3 1.3-4.9 1.5-2.2-.9-4.5.3-6.8-.8.7-3.8-1.4-4.9-2.3-7.2.4-3.4.7-6.9 2.3-9.1-2.7-.8-4.2-2.9-3.4-7.2-1.3-1-4.4-1.1-5.3-3-.6-1.3-.3-5.2-.4-9.1-.2-7.5-.7-19.7-1.1-26.5-.2-2.8 2.9-6.1 1.1-9.5.4-1.2 2.2-1.1 2.3-2.7-.8-6.9-1.1-16.7-2.3-23.9-.9-6-2.3-11.3 3.4-13.3 2.1-7.9 9.8-10.1 13.3-16.7-2.4-3.5.8-5.6 1.5-9.1-5.2-2.5-9.8-5.6-15.2-8-.5 1.6-2.3 1.8-3 3-1 1-1.2 2.9-2.6 3.4-1.9-.1-2.6-1.5-3.8-2.3-1.9-5.8-1.8-10.4-4.6-15.2-1.6-2.8-4.9-4.3-6.1-7.2-.8-1.9-1.7-5.1-1.5-6.8.1-1.2 1.1-2 1.1-3.4 0-1.6-.9-3.4-1.1-5.3-.4-1.8 2.3-.5 1.9-2.3.4-1.7-1.3-2.6-.4-3.8 2.6-.4 6.9.9 8.3-.8-2.5-1-6.8-.3-8-2.7 1-2.9 6-1.8 7.6-4.2-2.8-.1-6.9 2.2-8.3 0 .4-2.5 3.8-4.2 5.7-6.1.2-.2 2.3-1.3.8-1.5-3.7 1.4-6.7 6-11.4 4.2-.8-2.8.8-6.2.8-9.5-3.2 2.8-2.3 9.9-6.8 9.9-2.1 0-3.3-2.8-4.9-4.2 0 0-1-2-1.1-.4 1 1.6 2.1 3.2 2.7 5.3-1.8 2.1-6.8 2.4-9.5.8-.2-8.2-3-16.6-1.5-25.8.5-2.8 1.7-5 1.5-7.6-.2-3.1-3.4-5.3-1.9-8.3.4-2.2 4.5-.8 4.5-3.4.4-1.2 0-4.5 0-5.7-.8-1.6-4.4-.4-4.9-2.3-.2-2.7 2.6-2.5 2.3-5.3-.9-1.2-1.6-2.7-1.9-4.5-1.2.1-2.1-.9-3 0-2 .3.7-2-1.1-1.5-2.6.8-3.5 2.9-3.4 6.1 0 2.2 1.4 4.2.8 5.7-1.4.8-4 .3-4.9 1.5.2 2.5.1 3.1 0 5.7 0 1.6 2 1.2 2.3 2.7 1.1 4.2.5 8.6 1.1 12.9.3 1.7 1.3 3.2 1.5 4.9.5 4.5-1.5 10.1-1.5 15.5 0 4.7 1.5 9.6.8 13.3-.4 2.2-2.5 3.6-3.4 5.7-2.5 5.5-2.9 12.9 0 17.8-.4 1.3-1.2 2.4-1.1 4.2 1 2.4 3.6 3.2 4.5 5.7-.5 2.9-2.8 5.9-2.7 8.7.2 2.9 2.8 4 3.8 6.4.6 1.5 1.5 5.2 1.1 7.6-.4 2.5-4 5.9-4.5 9.5-.2 1.7-.2 3.7.4 6.4 1.2 1 4.5-.2 5.7.8 1.9 6.4-4.8 10.8-4.2 14.8.3 2.2 1.5 1.6 2.7 3.4-2.1 6.4-.5 13.5.4 19.7.5 3.6-3 6.8-2.3 10.2-6.7 9.3-3.6 22.7-8 33-.6 1.3-1.8 2.8-2.7 4.2-.8 1.4-2.1 2.8-2.7 4.2-.5 1.4-.1 3.2-.8 4.5-.7 1.5-2 2-2.7 3.4v4.9c-.7 1.7-3.3 1.5-3.8 3.4 3.3 3.1 2.4 10.9-1.1 13.3-3 .8-5.3 2.3-8.3 3-.5 3.8-2.1 9 0 12.1 1.5 1.5 4.5 1.5 5.3 3.8.1 17.4-2.7 31.9-2.3 49.6-1.6 2.8-3.7 5.1-4.5 8.7-3.2 1.1-3.1 5.4-4.2 8.7.4 1.1 1.2 1.8 1.5 3.4.8 4-.5 9.1-2.7 10.6 0 4.5-.6 8.5-1.1 12.5-5.6.9-11.3 1.7-16.8 2.7.1-3.2.2-6.4.2-9.6h-17.6V584c-10.6 1.5-31.4 4.6-31.4 4.6l.2 15.5s1696.1.3 1984 .3v-14.1zm-171.1-65.4c5.7 2 11.4 3.7 17.2 5.2-5.7 0-11.5-.3-17.2-.8v-4.4zm-11.2-4.3c3.3 1.4 6.7 2.6 10.1 3.8v4.7c-3.4-.3-6.7-.8-10.1-1.3v-7.2zm0 11.7c.5 0 1.1.1 1.6.1.7.2 1.4.5 2.2.7l-3.8.1v-.9zm-10.2-16.1c3 1.4 6.1 2.7 9.1 4v7.5c-1.4-.2-2.8-.5-4.3-.7-1.6-.6-3.3-1.2-4.9-1.8v-9h.1zm0 15c3 .4 6.1.7 9.1 1v1.1l-9.1.3v-2.4zM508 501c6.2 3.1 12.8 5.7 19.8 7.7-.4.1-.7.1-1.1.2-6.3-1.1-12.5-2.8-18.7-5.1V501zm0 4c4.7 1.7 9.7 3.2 14.9 4.3-1.8.2-3.5.3-5.3.4l-9.6-.1V505zm-6.2-7.4c1.7 1 3.5 1.9 5.2 2.8v2.9c-1.8-.7-3.5-1.4-5.2-2.2v-3.5zm0 5c1.7.7 3.5 1.4 5.2 2.1v5h-2.8c-.7 0-1.4-.1-2.1-.2-.1 0-.2 0-.3-.1v-6.8zm-7.9-9.8c2.3 1.5 4.6 2.9 7 4.3v3.7c-2.3-1.1-4.7-2.2-7-3.4v-4.6zm0 6c2.2 1.2 4.6 2.3 7 3.4v7.1c-2.3-.5-4.7-1-7-1.6v-8.9zm-7.9-11.6c2.2 1.7 4.6 3.4 7 5v4.7c-1.5-.8-2.9-1.6-4.4-2.5-.9-.5-1.7-1.1-2.6-1.6v-5.6zm0 7.1c.6.4 1.3.8 1.9 1.2 1.6 1 3.3 1.9 5 2.8v9.1c-2.3-.6-4.7-1.4-7-2.2v-10.9h.1zm0 12.2c1 .3 2 .7 3 1-1-.2-2-.4-3-.7v-.3zm0 1.5c2.3.6 4.6 1 7 1.5h-7V508zm-7.9-27.3c2.2 1.9 4.5 3.8 7 5.7v5.8c-2.4-1.5-4.7-3.1-7-4.7v-6.8zm0 8.3c2.2 1.6 4.6 3.2 7 4.7v11.2c-2.3-.8-4.7-1.8-7-2.8V489zm0 14.4c2.3 1 4.6 1.9 7 2.7v.4c-2.4-.6-4.7-1.3-7-2v-1.1zm0 2.4c2.3.7 4.6 1.4 7 2v1.7h-7v-3.7zm-7.7-32.1c2.1 2 4.3 4.1 6.7 6.2v6.9c-2.3-1.7-4.6-3.5-6.7-5.2v-7.9zm0 9.5c2.1 1.7 4.4 3.5 6.7 5.2v13.3c-2.2-1-4.5-2.1-6.7-3.2v-15.3zm0 16.7c2.1 1.1 4.4 2.1 6.7 3.2v1.2c-2.3-.8-4.5-1.6-6.7-2.5v-1.9zm0 3.2c2.2.9 4.4 1.7 6.7 2.4v3.9h-6.7v-6.3zm-7.9-37.7c2.1 2.3 4.4 4.8 7 7.3v8c-2.5-2.1-4.8-4.2-7-6.2v-9.1zm0 10.8c2.2 2 4.5 4.1 7 6.1v15.6c-1.4-.8-2.8-1.5-4.2-2.3-.9-.5-1.8-1.1-2.7-1.6v-17.8h-.1zm0 19.2l2.1 1.2c1.6.9 3.2 1.8 4.9 2.7v2c-2.4-1-4.7-2-7-3.1v-2.8zm0 4.2c2.2 1.1 4.6 2.1 7 3.1v6.7h-7v-9.8zm-.9-35.3v9.3c-2.6-2.5-4.9-4.8-7-7.1-.1-4.5-.2-8.3-.3-11 1.8 2.4 4.2 5.4 7.3 8.8zm-31.5 78.3c-.4.5.5.9 0 1.5-1.5 1.1-2.9 3.2-4.3 4 .1-2.5-.2-4.5-.2-7 0-.7-.8-.5-.7-1.3-.1-1 .2-2.3-.2-3-.1-.5-1-.2-1.4-.4l-.2-14.1h13.5c0 1.3-.3 14.4-.4 18.5-2.4.2-4.7.8-6.1 1.8zm-3.7-33.5h-5.5l-.3-20.4c3.5-2.9 7-6.1 10.5-9.6 1.8 1.5 3.7 3.1 5.7 4.6l-.3 25.4h-10.1zm10.3-27.1c-1.7-1.3-3.3-2.6-4.8-3.9 1.1-1.2 2.3-2.4 3.4-3.6.5.5 1 .9 1.5 1.4l-.1 6.1zm-6.2-5.1c-1.6-1.4-3.2-2.8-4.7-4.2l3.6-4.2c1.4 1.5 2.9 3 4.6 4.6-1.2 1.3-2.3 2.6-3.5 3.8zm-.9.9c-3 3-6.1 5.8-9.1 8.4l-.1-7.6c1.5-1.6 3.1-3.2 4.6-4.9 1.4 1.3 3 2.7 4.6 4.1zm25.7 18.1c.1.1.2.1.3.2 1.9 1.1 3.9 2.1 6 3.1v10.2h-6l-.3-13.5zm.9-.9c-.3-.2-.6-.4-1-.6 0-1.2-.1-2.5-.1-3.7 2.1 1.4 4.2 2.8 6.4 4.2v2.9c-1.8-1-3.6-1.9-5.3-2.8zm-1.1-5.8c-.2-7.5-.4-14.7-.5-20.7 2.1 2.2 4.4 4.5 6.9 6.9v18c-2.2-1.4-4.3-2.8-6.4-4.2zm-18.3-16.4v1.3l-.6-.6c.2-.2.4-.4.6-.7zm-.8-1.9c-.4.4-.8.9-1.2 1.3-1.6-1.6-3.2-3.2-4.6-4.7l1.5-1.8 4.3 5.2zm-9.3-8l2.3-.4 1.4 1.8c-.5.6-1.1 1.3-1.6 1.9-.9-1-1.7-1.9-2.5-2.8l.4-.5zm-1.1 1.5c.8.9 1.6 1.8 2.5 2.7-1.2 1.5-2.5 2.9-3.7 4.3-.8-.8-1.6-1.5-2.4-2.3l3.6-4.7zm-2 8c-1.1 1.2-2.2 2.4-3.3 3.5v-4.5l1-1.3c.7.8 1.5 1.5 2.3 2.3zm-20.8-10.7c.5-.6.9-1.1 1.4-1.7l-.1 7.2c-.4.5-.9.9-1.3 1.4v-6.9zm0 9.6l1.3-1.3-.2 20.8c-.4.3-.7.5-1.1.8v-20.3zm0 22.7c.4-.3.7-.5 1.1-.8v4.4c-.3.2-.7.4-1 .6V494h-.1zm0 6.2c.3-.2.7-.3 1-.5l-.1 9.2h-1v-8.7h.1zm-6.7-30.6c1.9-2.1 3.8-4.4 5.7-6.7v6.7c-1.9 1.9-3.8 3.8-5.7 5.6v-5.6zm0 8.1c1.9-1.8 3.8-3.6 5.7-5.5v20.1c-1.9 1.4-3.8 2.7-5.7 3.9v-18.5zm0 20.7c1.9-1.2 3.8-2.4 5.7-3.8v3.9c-1.9.9-3.8 1.8-5.7 2.5v-2.6zm0 4.8c1.9-.7 3.8-1.6 5.7-2.5v8.2h-5.7v-5.7zm-6.4-26.7c1.8-1.9 3.7-3.8 5.5-5.8v5.3c-1.8 1.7-3.7 3.3-5.5 4.9v-4.4zm0 6.8c1.8-1.5 3.7-3.1 5.5-4.8v18.2c-1.8 1.1-3.7 2.1-5.5 3.1v-16.5zm0 18.7c1.8-.9 3.7-1.9 5.5-3v2.5c-1.8.7-3.7 1.3-5.5 1.8V502zm0 3.2c1.8-.5 3.7-1.1 5.5-1.7v5.3h-5.5v-3.6zm-6.7-22.3c1.9-1.7 3.8-3.6 5.7-5.5v4.2c-1.9 1.6-3.8 3.1-5.7 4.6v-3.3zm0 5.7c1.9-1.4 3.8-2.9 5.7-4.5v16.2c-1.9 1-3.8 1.8-5.7 2.6v-14.3zm5.7 13.8v1.1c-1.6.4-3.2.8-4.8 1.1 1.6-.7 3.2-1.4 4.8-2.2zm-5.7 4.2c1.9-.3 3.8-.7 5.7-1.2v3.3H383v-2.1zm-6.7-18c1.9-1.5 3.8-3.1 5.7-4.8v3.2c-1.9 1.4-3.8 2.8-5.7 4.1v-2.5zm0 4.7c1.9-1.3 3.8-2.6 5.7-4v14c-1.9.7-3.8 1.4-5.7 1.9v-11.9zm0 14c1.9-.1 3.8-.2 5.7-.5v2h-5.7v-1.5zm-.9-18v2.3c-1.9 1.3-3.8 2.5-5.7 3.6v-1.4h-.5c2-1.4 4.1-2.9 6.2-4.5zm-5.8 16v-7.8c1.9-1.1 3.8-2.3 5.7-3.5v11.5c-1.8 0-3.8-.1-5.7-.2zm5.8 2.1v1.3h-5.5c1.8-.4 3.6-.8 5.5-1.3zm-12.2-9.8c1.8-1.1 3.7-2.2 5.5-3.5v1.6c-1.8 1.1-3.7 2-5.5 3v-1.1zm0 3.3c1.8-.9 3.7-1.9 5.5-2.9v7.2h-.3c-1.8-.2-3.5-.4-5.2-.8v-3.5zm0 5.4c1.6.3 3.2.5 4.8.7-1.6.2-3.2.4-4.8.5v-1.2zm-6.7-5.1c1.9-.9 3.8-1.9 5.7-3v1.1c-1.9.9-3.8 1.8-5.7 2.6v-.7zm5.8.1v2.9c-1.4-.3-2.7-.6-4.1-1 1.4-.6 2.7-1.2 4.1-1.9zm-5.8 3.4c1.9.6 3.8 1.1 5.7 1.4v1.5c-1.9.1-3.8.1-5.7 0v-2.9zm-.9-3.1v.6c-.1 0-.1.1-.2.1-.3-.1-.5-.2-.8-.3.3-.1.7-.2 1-.4zm-4.8 2.1c.4-.2.8-.3 1.3-.5.2.1.4.2.6.2-.6.2-1.2.4-1.9.7v-.4zm0 2.4c1.5-.5 3.1-1.1 4.6-1.7h.1v3.2c-.8 0-1.7-.1-2.5-.2s-1.5-.2-2.3-.3v-1h.1zm-6.1-.1c-.1 0-.2-.1-.3-.1 1.8-.5 3.6-1.1 5.5-1.8v.4c-1.7.5-3.4 1-5.2 1.5zm5.2.4v.6c-.4-.1-.8-.1-1.2-.2.4-.1.8-.3 1.2-.4zm-5.8-6.8c1.8.9 3.6 1.8 5.4 2.5-1.8.7-3.6 1.3-5.4 1.8v-4.3zm-6.4-3.7c1.8 1.1 3.6 2.2 5.5 3.2v5.1l-2.4.6c-1-.3-2.1-.7-3.1-1v-7.9zm5.5 12.4v.1h-.5c.2 0 .3 0 .5-.1zm-5.5-.8c1-.2 2-.4 3.1-.6.1 0 .1 0 .2.1-1.1.2-2.2.4-3.3.5zm-6.7-16.1c1.9 1.4 3.8 2.7 5.7 4v8.1c-1.9-.7-3.8-1.5-5.7-2.4v-9.7zm0 11.7c1.9.9 3.8 1.7 5.7 2.4v.2c-1.9.3-3.8.6-5.7.8v-3.4zm5.8 4.6c-1.4.3-2.8.6-4.3.7h-1.1c1.8-.2 3.6-.4 5.4-.7zM325.5 487c1.5 1.3 3 2.5 4.5 3.7v10c-1.5-.7-3-1.5-4.5-2.4V487zm0 13.4c1.5.8 3 1.6 4.5 2.3v3.9c-1.5.1-3 .2-4.5.2v-6.4zm-6.6-19.4c1.9 1.8 3.8 3.5 5.7 5.2v11.5c-1.9-1.1-3.9-2.3-5.7-3.6V481zm0 15.4c1.9 1.2 3.8 2.4 5.7 3.5v6.9c-1.9 0-3.8-.1-5.7-.3v-10.1zm-6.5-22.1c1.8 1.9 3.6 3.8 5.5 5.7v13.4c-1.9-1.3-3.7-2.6-5.5-4.1v-15zm0 17.5c1.8 1.4 3.6 2.7 5.5 4v10.6c-1.8-.2-3.7-.5-5.5-.9v-13.7zm0 15.6c1.8.4 3.6.6 5.5.8h-5.5v-.8zm-6.6-40.7c1.8 2.2 3.7 4.5 5.7 6.7v15.3c-2-1.6-3.9-3.2-5.7-4.9v-17.1zm0 19.5l5.7 4.8v14.3c-1.9-.4-3.8-.9-5.7-1.5v-17.6zm0 19.6c1.9.6 3.8 1 5.7 1.5v1c-1.9-.3-3.8-.6-5.7-1v-1.5zm-6-46.8c1.6 2.2 3.3 4.3 5 6.5v17.4c-1.7-1.6-3.4-3.2-5-4.8V459zm0 21.7c1.6 1.6 3.3 3.2 5 4.7v18.1c-1.7-.5-3.4-1.1-5-1.8v-21zm0 23c1.7.6 3.3 1.2 5 1.8v1.5c-1.7-.4-3.4-.8-5-1.3v-2zm0 4c.6.2 1.1.3 1.7.5h-1.7v-.5zm-6.7-58.1c1.8 2.7 3.7 5.4 5.7 8.2v19.3c-2-2-3.9-4.1-5.7-6.2v-21.3zm0 24.1c1.8 2 3.8 4.1 5.7 6v21.6c-1.9-.8-3.8-1.7-5.7-2.6v-25zm0 27.1c1.9.9 3.8 1.8 5.7 2.6v2.1c-1.9-.6-3.8-1.2-5.7-1.9v-2.8zm0 4.8c1.9.7 3.8 1.3 5.7 1.9v.7h-5.7v-2.6zm-6.4-66.1c1.7 2.8 3.5 5.7 5.5 8.7v21.6c-1.9-2.2-3.7-4.4-5.5-6.6v-23.7zm0 26.7c1.8 2.2 3.6 4.3 5.5 6.5v25.5c-1.9-1-3.7-2-5.5-3.1v-28.9zm0 31.1c1.8 1.1 3.6 2.1 5.5 3v2.9c-1.9-.7-3.7-1.5-5.5-2.3v-3.6zm0 5.7c1.8.8 3.6 1.5 5.5 2.2v2.9h-5.5V503zm-6.7-75.2c1.6 2.9 3.5 6.4 5.7 10.1V462c-2-2.6-3.9-5.1-5.7-7.6V427.8zm-90.3 154.6c-.9-.1-2.4-.1-3.7-.1-.9-.1-.1-.7-.9-.8-3.2-.3-8.3.1-10.7-.4-.8 0-1 .2-2.1.1-.8.2-.9-.2-1.6-.2-.6 0-.9.2-1.4.1-.7 0-1.3-.2-2.1-.2-6.7-.2-15.1 0-22.4-.1-.4-.9-.2-1.8-.2-2.7 0-1 .6-2-.2-2.7-.3-.2-.8-.4-1.6-.6-.1-2.2-.2-4.4-.3-6.4-6.4-.2-15.3-.1-22.4-.8-.3-5.2-1.7-9.2-1.5-14.8-.7-1.7-3.2-1.6-3.8-3.4-.1-2.7.2-5.8-.4-8 1.4-2.3 3.1-3.3 2.7-6.1-.4-2.6-3.4-3-4.5-4.9-.1-2.3-1.2-3.6-2.3-4.9 0-.4 0-.7-.1-1l89.1-.7-.3 2.5-.3 30.4s-2.9 18.7-7.5 26.5h-1.3c0-.4 0-.6-.2-.8zm-79.9-81.5c-1.1.2-2.2.4-3.3.5 0-.2 0-.3.1-.6-.1-1.3-.1-2.6-.2-4.1 1.2-.4 2.3-.8 3.5-1.2v5.4h-.1zm0 3.4v2.5h-3.1c-.1-.5-.1-.9-.2-1.4.1-.4.2-.7.4-.9 1-.1 1.9-.1 2.9-.2zM250 559.4c-.9.6-.5 2.4-.5 3.8v.4c-1.1 5.2-2.9 12.2-5 16.6-.8 0-1 .7-2 .5-.4-1.3.1-3.4-.5-4.5-1.8-.4-3.7.1-5.5-.2-.4-.1-.7-.2-1.1-.4-2.9-8-4.8-18.4-4.8-18.4l-.5-31.1h21.2c-.1 2.3-.7 29.2-.7 30.9 0 .2-.1 1-.3 2.2-.1.1-.2.1-.3.2zm1.3-82.3c-7.4-6.7-14-13.8-19.7-20.6 2.7-2 5.2-3.9 7.7-5.8 3.6 5.1 7.7 10.4 12.2 15.7l-.2 10.7zm0 2.5l-.3 25.8-24.6.2-.8-44.9c1.5-1 3-2.1 4.4-3.1 6.2 7.3 13.3 14.9 21.3 22zm30.1 28.4l-.1-1.8c0-1.9-.1-3.9-.1-5.9 1.5.8 3.1 1.5 4.6 2.2v5.5h-4.4zm-.3-9.8c0-1.5-.1-3.1-.1-4.6 1.6 1.1 3.2 2.1 4.8 3.1v3.8c-1.6-.7-3.2-1.5-4.7-2.3zm-.2-6.9c-.3-11.4-.5-23-.8-33.7 1.8 2.4 3.7 4.9 5.6 7.3v29.5c-1.6-.9-3.2-2-4.8-3.1zm-29.3-44l-.2 16.1c-3.9-4.7-7.5-9.5-10.7-14 2.7-2.1 5.2-4.2 7.6-6.2l3.3 4.1zm-4.9-6c-2.3 2-4.8 4-7.4 6.1-1.5-2.2-2.9-4.3-4.2-6.3 2.3-2.1 4.5-4.1 6.5-6l5.1 6.2zm-11.1-8.2l3.7-.7.7.8c-1.9 1.8-4.1 3.8-6.3 5.8-.4-.6-.8-1.2-1.1-1.8l3-4.1zm-4.3 5.7l.9 1.5c-1.8 1.6-3.8 3.3-5.8 4.9l4.9-6.4zm2.3 3.6c1.3 2 2.7 4.1 4.2 6.2-2.5 2-5.1 4-7.8 6-1.5-1.8-2.9-3.6-4.3-5.4 2.8-2.4 5.4-4.7 7.9-6.8zm-5.2 13.2c-.9.7-1.9 1.4-2.9 2l-.1-5.7c1 1.2 2 2.5 3 3.7zm-33.8-24.5c2.1-2.1 3.9-4 5.3-5.6l-.1 12.3c-1.6 1.5-3.4 3.1-5.2 4.7v-11.4zm0 14.7c1.8-1.6 3.5-3.1 5.2-4.5l-.2 23.7c-1.6 1.1-3.3 2.1-5 3.1v-22.3zm0 25.2c1.7-1 3.3-2 4.9-3.1l-.1 5.9c-1.6.9-3.2 1.7-4.9 2.6V471h.1zm0 8.3c1.6-.8 3.3-1.7 4.9-2.6l-.3 29.5.1 1.2h-4.7v-28.1zm-7.2-41.3c2.3-2.1 4.4-4.2 6.2-6v11.3c-2 1.7-4 3.4-6.2 5.2V438zm0 13.8c2.2-1.7 4.2-3.5 6.2-5.1v22c-2 1.2-4.1 2.5-6.2 3.7v-20.6zm0 23.4c2.1-1.2 4.2-2.4 6.2-3.6v5.4c-2 1-4.1 2.1-6.2 3.1v-4.9zm0 7.6c2.1-1 4.2-2 6.2-3v27.6h-6.2v-24.6zm-9-36.6c2.9-2.5 5.6-5 8.1-7.2v10.3c-2.6 2.1-5.3 4.2-8.1 6.3v-9.4zm0 12.5c2.8-2.1 5.5-4.2 8.1-6.2v20.4c-2.6 1.5-5.3 3-8.1 4.4v-18.6zm0 21.5c2.8-1.4 5.5-2.9 8.1-4.4v4.7c-.9.4-1.8.9-2.7 1.3l-5.4 2.4v-4zm0 6.7c2.2-.9 4.4-1.9 6.6-2.9.5-.2 1-.5 1.5-.7v24.1l-8.1-.1v-20.4zm-9.5-32.9c3-2.4 5.9-4.7 8.6-7v9.3c-2.7 2-5.6 4.1-8.6 6.1V454zm0 11.5c3-2 5.8-4.1 8.6-6.1v18.4c-2.8 1.4-5.7 2.9-8.6 4.2v-16.5zm0 19.3c2.9-1.4 5.8-2.8 8.6-4.2v3.9c-2.9 1.2-5.7 2.3-8.6 3.4v-3.1zm0 5.9c2.9-1.1 5.7-2.2 8.6-3.4v20l-8.6-.1v-16.5zm-9.1-29.8c2.8-2.1 5.5-4.1 8.1-6.1v8.3c-2.6 1.8-5.3 3.6-8.1 5.3v-7.5zm0 10.5c2.8-1.7 5.5-3.5 8.1-5.3v16.3l-1.2.6c-2.3 1.1-4.6 2.1-6.9 3v-14.6zm0 17.4c2.7-1.1 5.3-2.2 7.9-3.5.1 0 .1-.1.2-.1v3.1c-2.7 1-5.4 2-8.1 2.9v-2.4zm0 5.1c2.7-.9 5.4-1.8 8.1-2.8v16.2l-8.1-.1v-13.3zm-9.1-26.7c2.8-1.9 5.5-3.7 8.1-5.6v7.5c-2.6 1.6-5.3 3.3-8.1 4.9v-6.8zm0 9.6c2.8-1.6 5.5-3.2 8.1-4.8v14.5c-2.7 1.1-5.4 2.2-8.1 3.2v-12.9zm0 15.6c2.7-1 5.4-2.1 8.1-3.2v2.3c-2.7.9-5.4 1.7-8.1 2.5v-1.6zm0 4.3c2.7-.8 5.4-1.6 8.1-2.5v13l-8.1-.1v-10.4zm-10-23.1a724 724 0 0 0 9.1-5.7v6.6c-2.9 1.7-6 3.3-9.1 4.9v-5.8zm0 8.6c3.1-1.6 6.1-3.2 9.1-4.9V490c-3 1.1-6 2.2-9.1 3.1v-10.9zm0 13.6c3-1 6.1-2 9.1-3.1v1.6c-3 .9-6 1.7-9.1 2.4v-.9zm0 3.5c3-.7 6-1.5 9.1-2.3v10.1l-9.1-.1v-7.7zm-10-20c3.1-1.7 6.1-3.4 9.1-5.2v5.8c-2.9 1.5-6 3-9.1 4.4v-5zm0 7.8c3.1-1.4 6.1-2.9 9.1-4.4v10.8c-3 1-6 1.9-9.1 2.7v-9.1zm0 11.7c3-.8 6.1-1.7 9.1-2.7v.8c-3 .7-6 1.3-9.1 1.9zm0 2.6c3-.6 6-1.2 9.1-1.9v7.5l-9.1-.1v-5.5zm-9.5-17.1c2.9-1.5 5.8-2.9 8.6-4.5v4.9c-.1 0-.1.1-.2.1-2.8 1.3-5.6 2.5-8.4 3.6v-4.1zm0 6.9c2.9-1.2 5.7-2.4 8.6-3.7v8.9c-2.9.8-5.7 1.5-8.6 2.1v-7.3zm0 11.8c2.9-.4 5.7-.9 8.6-1.4v5.4l-8.6-.1V503zm-10.5-13.8c1.2-.5 2.4-1 3.6-1.6 2-.9 4-1.9 5.9-2.8v4.1c-3.2 1.3-6.3 2.5-9.5 3.7v-3.4zm0 6c3.2-1.1 6.4-2.3 9.5-3.6v7.1c-3.2.7-6.4 1.4-9.5 1.9v-5.4zm0 9c3.2-.3 6.4-.7 9.5-1.1v3.7l-9.5-.1v-2.5zm-.9-14.6v3.3l-3.6 1.2c0-1-.1-1.9-.1-2.9 1.2-.5 2.4-1 3.7-1.6zm281.9 47.9c-.9-.4-1.7 0-2.7 0-2.5.1-5.7-.3-7.8.2-1.3.3-2.9 2.2-4 3-1.4 1-3.3 1.8-3.8 3.1-.3 1-.3 2.2-.3 3.5v.3c-5.3.3-11.4-.2-16.2.3-.5.1-1 .4-1.5.5-.4 0-.6-.4-1-.3-.5.1-.6.9-1.2.5-.8.1-.9-.3-1.5-.3-1.8 1.2-5.5.4-7.8 1-.6.3 0 1.8-.7 2-.9 0-2-.1-2.7.2-.3 1.2-.1 3-.2 4.5-1.4.3-2.4-.2-4-.2-.8.8-.7 1.9-1.2 2.8-3-.2-5.9-.3-8 .8-.4.6.1 2.1-.3 2.7-2.7-.1-6.5-.7-8.6.2-.5.1-.3 1-.8 1-2.8 0-5.7 0-8.1.3-.3 1.6-.2 3.5-.3 5.3-.7.7-1.5.8-1.8 2-.3 1.3.3 3.5 0 4.8-.1.6-.6.7-.7 1.3 0 .2 0 .4.1.6-.1-.6-.3-1.1-.4-1.6-.1-.2.5-.7-.7-.8-1.2.3-.7.9-.7 1.3 0 1.2.2 2.5.1 3.7-.8 0-1.6 0-2.3.1v.1c-.2 0-.4 0-.6.1-.3.2-.1.8-.1 1.3-.1.1-.1.1-.1.3-.4 0-.8 0-1.2-.1-.1-.3-.1-.7-.1-1.1-.3-2 .2-5.1 0-7.1-.7-.3-1.8-.2-2.5-.5-1.1-2.5.4-6.8-.3-9.3-.2-.8-1.4-2-2.2-2.2-1.3-.3-3.9.2-5.5.3-1.8.1-3.4.2-5.1.5-.3 1.2-.1 3-.2 4.5-.7 0-.6.8-.8 1.3-.4-1.6-.8-3.3-1.1-5v-2.2c-.1-.1-.3-.1-.4-.2-.2-1.6-.3-3.1-.3-4.7 0-3.7-.2-15.1-.5-29.8l-.1-3.2 122-1v.2l-.2 19.3s-1 6.4-2.6 11.8c-2.9-.3-6.2-.1-8.9-.5-.1-8.3.3-7.8-.1-15.6zm137.5 8.9v-4.1l-1.2-.7-1.2-2.9-1 3.7-.4.4v3.3h-2.6v-3.5h-1.6l-.9-4-1 4.5h-.9l-2.6 5.9c-.6 0-1.1 14.5-1.7 14.5 0-.5.1-1.2-.2-1.5-1.3 0-2.8.2-3.6-.3-.4-14.8-.5-18.8-.8-33.6-7.3 0-14.2.3-21.5.2.1 13.6.3 16.1.2 29.8-.9-.1-2.3.2-3-.2-.2-4.1.2-8.6-.2-12.3-.1-.9-.7-1.5-.3-2.3-.5-.1-.8-.4-.7-1.2-.1-.6-1.2-.3-1.2-1-.1-1.1.1-2.4-.2-3.1-1.4.1-2.5.6-3.5 1.2.1 1 0 1.8-.2 2.7-1.3.2-2.5.5-3.6.8-.1.4-.3 1 0 1.3-.3.2-.8.3-.8.8.4.7-.3 1.1-.3 1.8-.6 4.9.1 10.9-.2 16.2-.7.3-1.9.1-2.2.8-.3.6-.1 1.5-.2 2.5 0 .7.3 1.9-.3 2.2-.4-8.1-.1-17-.5-25.2-1.5-1.3-2.8-2.6-6.1-2.5-.1-1.5.2-3.1 0-4.1-1-1-2.6-1.4-4.3-1.3-.5 0-.9.4-1.5.5-.7.1-1.6-.5-2 .2-.2-.3-.3-.7-.8-.7-.1-3.4-.1-7.8-.3-12.9v-.7l94.9-.6c-.3 2.2-.3 4.8-.4 7.4h-.7v4.1c-5.4-.1-10.9-.1-16.3 0v15.3h-1v-1.4h-3.1zm490.2-57.2l-.1-3.5h.8v-.7c0 1.4 0 2.8.1 4.2h-.8zm379.4 33.7v4.9c-1.6.8-3.3 1.7-5 2.5v-4.4c1.7-1 3.4-2 5-3zm-5 1.3v-16.3c2.1-1.9 3.8-3.6 5-4.9v18.2c-1.6 1-3.3 2-5 3zm5 5.3v14.6l-5 .2V532c1.7-.9 3.4-1.7 5-2.5zm36.9-12.8l-.1-3.9c1.7 1 3.4 1.9 5.2 2.7v3.7c-1.7-.7-3.4-1.6-5.1-2.5zm5.1 5v21.1l-4.7.2-.4-23.7 5.1 2.4zm-5.2-11.4l-.1-6.9c1.8 1.7 3.5 3.4 5.3 5v4.7c-1.7-.8-3.4-1.8-5.2-2.8zm.6 38.7h135.9v22.3c-.5.2-10.7 1.7-10.7 1.7s-.6.3-.5.6c-.2 1.3-1 2.4-.8 3.8-.5.2-1.2.3-1.6.4-.4 1.4.5 2.6 0 3.8-.1.3-.6.6-1.1 1v.2c-.1 0-.1.1-.2.1-.5.5-.9 1-1.4 1.4v-3.6c-1-.3-3.2 0-4.3-.2v-1.1c-2.5-.2-5.9-.1-8.6-.3-.1-3.1.2-6.3-.1-9.3-.7-.2-1.4 0-2.2 0-2.1 0-4.7-.1-6.4.1-1 .1-2.4.8-3.3 1.1-1.1.4-2.7.7-3.1 1.2-.5.6-.1 1.6-.1 2.4 0 .8.1 1.7-.1 2.4-4.3.1-9.4-.1-13.3.1-.4 0-.8.2-1.2.2-.3 0-.5-.1-.8-.1-.4 0-.5.4-1 .2-.6.1-.8-.1-1.2-.1-1.4.4-4.5.1-6.4.4-.5.1 0 .7-.5.8-.7 0-1.6 0-2.2.1-.3.5-.1 1.1-.1 1.7-1.2.1-2-.1-3.3-.1-.7.3-.6.7-1 1.1-2.4-.1-4.9-.1-6.5.3-.4.2.1.8-.3 1-2.2 0-5.3-.3-7.1.1-.4 0-.2.4-.7.4-2.3 0-4.7 0-6.7.1-.2.6-.2 1.3-.3 2-.5.2-1.2.3-1.5.8-.3.5.3 1.3 0 1.8-.1.2-.5.3-.5.5.1.6.5 1.4.1 2-1.1 0-1.1-.4-1.4-.8h-2.5c-.4.1.2.7-.4.7-1 0-.7-.2-.8-.6-.3-.8.2-1.9 0-2.7-.6-.1-1.5-.1-2-.2-.9-.9.3-2.6-.3-3.5-.2-.3-1.1-.7-1.8-.8-1-.1-3.2.1-4.5.1-1.4.1-2.8.1-4.2.2-.3.5-.1 1.1-.1 1.7-.9 0-.2.8-1.5.6-.3-.8 0-1.9-.1-2.9-.8-.1-.6-.7-1.2-.9-.8-.1-2.2-.1-2.9-.1-.1.4-.3.8-.4 1.3-.1.5.3 1 .1 1.4-.1.3-.8.3-1.1.6-.1.1.1.3 0 .5-.1.1-.3.2-.3.3-.1.5.1 1.1 0 1.8-.9.1-1.9 0-2.6.1-.2 0-.4.1-.5.1v-13h-8.3l-.1-25.2zm45-17.9c-1.7-.6-3.4-1.2-5.1-1.9 1.7 0 3.4-.2 5.1-.3v2.2zm12.6-2.6c-1.5-.2-3-.5-4.4-.9 1.5-.3 3-.7 4.4-1.1v2zm148.8 7.8l-3.1.1-.5-34.7c1.2.6 2.4 1.3 3.6 1.9v32.7zm0-36c-1.2-.7-2.5-1.3-3.7-2l-.1-9.6c1.3.9 2.5 1.8 3.8 2.7v8.9zm0-12.4c-1.3-.9-2.6-1.8-3.9-2.8l-.2-11.8c1 1 2.4 2.2 4.1 3.6v11zm75.9 23c3 1.6 6 3.1 9.1 4.5.2.1.3.2.5.2v9.1c-3.3-1.3-6.5-2.6-9.6-3.9v-9.9zm0 18.6c3.2.6 6.4 1.1 9.6 1.5v2.6l-9.6.3v-4.4zm-9.7-24c2.8 1.6 5.7 3.3 8.6 4.8v10.1c-2.9-1.3-5.8-2.6-8.6-3.9v-11zm0 14.2c2.3 1.1 4.6 2.1 7 3.1-2.3-.6-4.6-1.3-7-2v-1.1zm0 4.2c2.9.9 5.7 1.7 8.6 2.4-2.9-.5-5.8-1.1-8.6-1.7v-.7zm0 3.7c2.9.6 5.7 1.2 8.6 1.7v4.6l-8.6.3v-6.6zm-10.2-28.4c2.9 1.9 6 3.8 9.1 5.6V516c-3.1-1.5-6.2-3-9.1-4.6v-12.2zm0 15.5c2.9 1.5 6 3 9.1 4.5v1.3c-3-1-6.1-2-9.1-3.1v-2.7zm0 5.8c3 1.1 6.1 2.1 9.1 3.1v.8c-3-.7-6.1-1.4-9.1-2.2v-1.7zm0 4.7c3 .8 6.1 1.5 9.1 2.2v6.8l-9.1.3v-9.3zm-10.2-32.9c2.9 2.1 6 4.2 9.1 6.2v12.3c-3.1-1.7-6.2-3.3-9.1-5v-13.5zm0 16.9c2.9 1.7 6 3.3 9.1 5v2.9c-3-1.1-6.1-2.4-9.1-3.6v-4.3zm0 7.4c3 1.3 6.1 2.4 9.1 3.5v1.8c-3-.8-6.1-1.7-9.1-2.7v-2.6zm0 5.7c3 .9 6.1 1.8 9.1 2.6v9.7l-9.1.3v-12.6zm-9.2-36.9c2.6 2 5.3 4.1 8.1 6.1v13.7c-2.8-1.6-5.5-3.3-8.1-4.9v-14.9zm0 18.3c2.6 1.6 5.3 3.2 8.1 4.8v4.4c-2.7-1.2-5.4-2.4-8.1-3.7v-5.5zm0 8.8c2.7 1.3 5.4 2.5 8.1 3.6v2.8c-2.7-.9-5.4-1.7-8.1-2.7v-3.7zm0 6.8l8.1 2.7v12.9l-8.1.3v-15.9zm-9.3-41.3c2.6 2.2 5.3 4.4 8.1 6.6v15c-2.9-1.8-5.6-3.6-8.1-5.3V478zm0 19.8c2.6 1.7 5.3 3.5 8.1 5.3v5.7c-1.8-.9-3.6-1.7-5.4-2.6-.9-.5-1.9-1-2.8-1.5v-6.9h.1zm0 10.1c.5.2.9.5 1.4.7 2.3 1.2 4.5 2.3 6.8 3.3v3.9c-.1 0-.1 0-.2-.1-2.7-1-5.4-2-8-3v-4.8zm0 8c2.3.9 4.6 1.7 6.9 2.6.4.1.8.3 1.3.4v16.3l-8.1.3v-19.6h-.1zm-9.7-46.5c2.7 2.5 5.6 5 8.6 7.7v16.5c-3.1-2.1-6-4.2-8.6-6.1v-18.1zm0 21.6c2.7 2 5.5 4 8.6 6.1v7c-2.9-1.6-5.8-3.2-8.6-4.8V491zm0 11.6c2.8 1.6 5.7 3.2 8.6 4.8v5c-2.9-1.2-5.8-2.4-8.6-3.6v-6.2zm0 9.4c2.8 1.2 5.7 2.4 8.6 3.5v20l-8.6.3V512zm-9.2-51.6c2.4 2.5 5.2 5.1 8.1 7.9v18.2c-3-2.3-5.7-4.4-8.1-6.3v-19.8zm0 23.6c2.4 1.9 5.2 4 8.1 6.2v8.4c-2.8-1.7-5.5-3.3-8.1-5V484zm0 13c2.6 1.7 5.4 3.3 8.1 4.9v6.3c-2.8-1.2-5.5-2.5-8.1-3.8V497zm0 10.8c2.6 1.3 5.4 2.5 8.1 3.7v24.3l-8.1.3v-28.3zm-7.3-55c1.8 2 3.8 4.2 6.2 6.6v20c-2.4-2-4.5-3.8-6.2-5.3v-21.3zm0 25.1c1.8 1.5 3.8 3.3 6.2 5.1v9.7c-2.1-1.4-4.2-2.8-6.2-4.2v-10.6zm0 14.3c2 1.4 4.1 2.7 6.2 4.1v7.7c-2.1-1-4.2-2.1-6.2-3.1v-8.7zm0 12c2 1 4.1 2.1 6.2 3.1v28.8l-6.2.2v-32.1zm-1.1-52.7v21.6c-2-1.8-3.4-3.2-4.1-3.8l-.3-22.9c1 1.3 2.5 3.1 4.4 5.1zm-22.8 10.7l1.4-2.2 5.2 9.1v6.7c-2.3-1.9-4.5-3.7-6.6-5.5v-8.1zm0 11.9c2.1 1.8 4.3 3.6 6.6 5.4l.1 11.8c-2.3-1.4-4.5-2.8-6.7-4.2v-13zm0 16.5c2.2 1.4 4.4 2.7 6.7 4.1l.2 42.1-6.9.2v-46.4zm-1-26.6v5.3c-.7-.6-1.4-1.3-2.1-1.9l2.1-3.4zm-2.4 7.1l2.4 2.1v13.3c-.8-.5-1.6-1-2.4-1.6v-13.8zm0 17.2l2.4 1.5V537l-2.4.1v-48.8zm-12.9-12.4c-1.1-.8-2.2-1.7-3.3-2.5 1.3-1.9 2.4-3.6 3.3-5v7.5zm-4.6-17.2l4.1 6.4c-.9 1.5-2.3 3.7-4.1 6.4v-12.8zm0 17.3c1.5 1.1 3 2.3 4.6 3.4v58.1l-4.6.1V476zm-1.1-18.2v13.8c-2-1.6-3.9-3.1-5.5-4.4 2.1-3.4 3.9-6.6 5.5-9.4zm-6.2 12.5c1.6 1.3 3.4 2.7 5.3 4.2-1.5 2.2-3.3 4.7-5.3 7.2v-11.4zm0 15c2.3-3 4.4-5.8 6.2-8.4v60.8l-6.2.2v-52.6zm-24.5-37.2c2.1-3.7 3.7-6.9 5-9.5v17.1c-.9 1.5-2.6 4.3-5 7.9v-15.5zm0 19.4c2.1-3 3.7-5.6 5-7.5v31.4c-1.6 1.9-3.3 3.8-5 5.6v-29.5zm0 32.6c1.7-1.8 3.4-3.6 5-5.5v9.2c-1.6 1.6-3.3 3.1-5 4.6v-8.3zm0 11.3c1.7-1.5 3.4-3 5-4.5v31.7l-5 .2v-27.4zm-6.8-51.8c2.1-3.4 4-6.6 5.7-9.6v15.2c-1.6 2.4-3.5 5.1-5.7 7.9v-13.5zm0 17.1c2.1-2.7 4-5.3 5.7-7.7v29.1c-1.8 1.9-3.7 3.9-5.7 5.7v-27.1zm0 30.1c2-1.8 3.9-3.7 5.7-5.5v8.2c-1.8 1.6-3.8 3.2-5.7 4.7v-7.4zm0 10.1c2-1.5 3.9-3 5.7-4.6v26.5l-5.7.2v-22.1zm-6.6-47.4c2-2.8 3.8-5.5 5.5-8.2v13.3c-1.7 2.2-3.5 4.5-5.5 6.8v-11.9zm0 15.3c1.9-2.3 3.8-4.5 5.5-6.6v26.7c-1.8 1.6-3.6 3.2-5.5 4.8v-24.9zm0 27.6c1.9-1.5 3.7-3 5.5-4.6v7.2c-1.8 1.4-3.6 2.7-5.5 4v-6.6zm0 9.2c1.9-1.2 3.7-2.5 5.5-3.9V539l-5.5.2v-17.6zm-6.8-42.9c2-2.6 3.9-5.1 5.7-7.6v11.7c-1.8 2.1-3.7 4.2-5.7 6.4v-10.5zm0 13.6c2-2.1 3.9-4.2 5.7-6.2v24.5c-1.9 1.5-3.8 2.9-5.7 4.3v-22.6zm0 25.1c1.9-1.3 3.8-2.7 5.7-4.2v6.4l-5.7 3.6v-5.8zm0 8.4c1.9-1.1 3.8-2.3 5.7-3.5v16.9l-5.7.2v-13.6zm-6.1-39.8c1.7-2 3.4-4 5-6v10.2c-1.6 1.7-3.3 3.4-5 5V486zm0 12.3c1.7-1.6 3.4-3.3 5-4.9v22.2c-1.6 1.1-3.3 2.2-5 3.2v-20.5zm0 23c1.7-1 3.3-2 5-3.1v5.7c-1.6.9-3.3 1.8-5 2.7v-5.3zm0 7.7c1.7-.8 3.3-1.7 5-2.6v13l-5 .2V529zm-6.8-35.6c2-2 3.9-4 5.7-6.1v9.1c-1.8 1.8-3.7 3.5-5.7 5.2v-8.2zm0 11c2-1.7 3.9-3.3 5.7-5.1v20.1c-1.9 1.1-3.8 2.1-5.7 3v-18zm0 20.4c1.9-.9 3.8-1.9 5.7-2.9v5.2c-1.9.9-3.8 1.7-5.7 2.5v-4.8zm0 7.2c1.9-.8 3.8-1.6 5.7-2.5v10.1l-5.7.2V532zm-6.5-32.4c1.9-1.7 3.7-3.4 5.5-5.2v8c-1.8 1.5-3.6 3-5.5 4.4v-7.2zm0 10c1.9-1.4 3.7-2.8 5.5-4.3v17.6c-1.8.8-3.6 1.6-5.5 2.3v-15.6zm0 17.9c1.8-.7 3.7-1.4 5.5-2.2v4.7c-1.8.7-3.6 1.3-5.5 1.9v-4.4zm0 6.7c1.8-.6 3.7-1.2 5.5-1.9v7.4l-5.5.2v-5.7zm-6.8-28.9c2-1.5 3.9-3.1 5.7-4.7v7.1c-1.9 1.4-3.8 2.7-5.7 4v-6.4zm0 9c1.9-1.3 3.9-2.6 5.7-3.9v15.2c-1.9.7-3.8 1.3-5.7 1.8v-13.1zm0 15.3c1.9-.5 3.8-1.1 5.7-1.7v4.3c-1.9.5-3.8 1-5.7 1.4v-4zm-5.6-20.2c1.5-1 3-2.1 4.5-3.2v6.3c-1.5 1-3 1.9-4.5 2.8v-5.9zm0 8.3l4.5-2.7v12.6l-4.2.9h-.3v-10.8zm0 13.1c.2 0 .4-.1.7-.1 1.3-.2 2.6-.5 3.8-.8v4.1c-1.5.3-3 .5-4.5.7v-3.9zm0 6.1c1.5-.2 3-.4 4.5-.7v4h1.1V536c1.9-.4 3.8-.9 5.7-1.4v5.5l-11.3.4v-3.6zm-6.8-23.3c1.9-1.1 3.8-2.3 5.7-3.5v5.7c-1.9 1.1-3.8 2.1-5.7 3v-5.2zm0 7.6c1.9-.9 3.8-1.9 5.7-2.9v10.4c-1.9.3-3.8.5-5.7.6v-8.1zm0 10.3c1.9-.1 3.8-.3 5.7-.6v3.9c-1.9.2-3.8.4-5.7.4v-3.7zm0 5.9c1.9-.1 3.8-.2 5.7-.4v3.4l-5.7.2v-3.2zm-6.6-20.5c1.9-.8 3.7-1.8 5.5-2.7v5.1c-1.8.8-3.6 1.6-5.5 2.3v-4.7zm0 7.1c1.8-.7 3.7-1.5 5.5-2.3v7.7c-1.8.1-3.6.1-5.5 0V524zm0 7.5c.9 0 1.9.1 2.8.1.9 0 1.8 0 2.6-.1v3.7c-1.8 0-3.6 0-5.5-.1v-3.6h.1zm0 5.9c1.3.1 2.6.1 3.9.1.5 0 1.1 0 1.6-.1v3.2l-5.5.2v-3.4zm-6.8-17.8c1.9-.7 3.8-1.4 5.7-2.2v4.7c-1.9.7-3.8 1.3-5.7 1.9v-4.4zm0 6.7l5.7-1.8v4.9c-1.9-.1-3.8-.3-5.7-.6v-2.5zm0 4.6c1.9.3 3.8.5 5.7.6v3.6c-1.9-.1-3.8-.3-5.7-.6v-3.6zm0 5.8c1.9.3 3.8.5 5.7.6v3.5l-5.7.2v-4.3zm-5.8-15.3c1.6-.4 3.2-.9 4.7-1.4v4.3c-1.6.4-3.1.8-4.7 1.2v-4.1zm0 8.4c1.6.4 3.2.7 4.7.9v3.6c-1.6-.3-3.2-.6-4.7-.9v-3.6zm0 5.8c1.6.4 3.2.7 4.7.9v4.5l-4.7.2v-5.6zm-6.8-12.9c.6-.1 1.3-.2 1.9-.3 1.3-.2 2.5-.5 3.8-.8v4.1c-1.2.2-2.3.4-3.5.6-.7-.2-1.5-.5-2.2-.7v-2.9zm0 6c.3 0 .6-.1 1-.1s.7-.1 1.1-.2c1.2.4 2.4.7 3.6 1v3.6c-1.9-.5-3.8-1-5.7-1.6v-2.7zm0 5.1c1.9.6 3.8 1.1 5.7 1.6v5.9l-5.7.2v-7.7zm-1.1-11v2.3c-1.6-.6-3.2-1.2-4.7-1.9 1.5 0 3.1-.2 4.7-.4zm-5.5 2.5c1.2.5 2.5 1 3.7 1.5-1.2.1-2.5.2-3.7.2v-1.7zm0 6.1c1.8.7 3.6 1.4 5.5 2v8l-5.5.2v-10.2zm-6.8-8.2c.8.1 1.7.1 2.5.1 1.1.5 2.1 1 3.2 1.5v2.2c-1.1 0-2.3 0-3.4-.1-.8-.4-1.5-.8-2.3-1.2v-2.5zm0 5.8c.6 0 1.2.1 1.8.1l3.9 1.8v10.8l-5.7.2V529zm-1.1-3.8c-1.5-.8-3.1-1.7-4.6-2.6 1.5.2 3.1.4 4.6.5v2.1zm-5.7-7.2c1.6 1 3.1 1.9 4.7 2.8-1.6-.2-3.1-.4-4.7-.6V518zm0 6.5c1.2.7 2.4 1.4 3.6 2-1.2-.1-2.4-.3-3.6-.5v-1.5zm0 3.7c1.9.3 3.8.6 5.7.7v13l-5.7.2v-13.9zm-6.8-14.8c1.9 1.4 3.8 2.7 5.7 3.9v2.7c-.9-.2-1.8-.4-2.8-.6-1-.7-2-1.3-2.9-2v-4zm0 7.6c.7.2 1.3.3 2 .5 1.2.8 2.5 1.6 3.7 2.4v2c-1.9-.3-3.8-.8-5.7-1.3V521zm0 5.8c1.9.5 3.8.9 5.7 1.2v14.1l-5.7.2v-15.5zm-6.6-18.6c1.8 1.5 3.6 3 5.5 4.4v4.1c-1.8-1.3-3.6-2.8-5.5-4.2v-4.3zm0 7c1.1.9 2.2 1.7 3.3 2.5-1.1-.4-2.2-.7-3.3-1.2v-1.3zm0 3.7c1.8.7 3.6 1.3 5.5 1.8v3.6c-1.8-.5-3.6-1.1-5.5-1.7v-3.7zm0 5.9c1.8.6 3.6 1.2 5.5 1.7v15.8l-5.5.2v-17.7zm-6.8-22.6c1.9 1.8 3.8 3.5 5.7 5.1v4.2c-1.9-1.6-3.8-3.2-5.7-5v-4.3zm0 7.2c1.9 1.7 3.8 3.3 5.7 4.9v1.8c-1.9-.7-3.8-1.6-5.7-2.5v-4.2zm0 6.7c1.9.9 3.8 1.7 5.7 2.4v3.7c-1.9-.7-3.8-1.5-5.7-2.4v-3.7zm0 6.1c1.9.8 3.8 1.6 5.7 2.3v18.1l-5.7.2v-20.6zm-1.1-21v4.3c-1.8-1.7-3.6-3.4-5.3-5.2l-.1-4.5c1.8 1.9 3.6 3.7 5.4 5.4zm-11.9 11.5c-.6-.4-1.3-.8-1.9-1.3.7-.5 1.3-1.1 1.9-1.6v2.9zm-4-10c.5-.5 1-.9 1.4-1.4l2.6 4.6v.2l-4.2-3 .2-.4zm-1.6 2.6l.2-.3c1.6 1.2 3.3 2.3 4.9 3.4-.8.7-1.7 1.4-2.7 2.2-.8-.6-1.6-1.1-2.4-1.7v-3.6zm0 6.2c.2.1.4.3.6.4-.2.2-.4.3-.6.5v-.9zm0 2.7c.7-.5 1.3-1 1.9-1.4 1.2.8 2.5 1.7 3.7 2.4l.1 27.9-5.7.2v-29.1zm-10.6-15.6l2.4 3.7c-1-.9-2-1.7-3-2.6l.6-1.1zm-3.1 4.9l1.2-1.9c1.8 1.6 3.6 3.1 5.4 4.6v2.4c-2 1.7-4.2 3.5-6.6 5.2v-10.3zm0 12.1c2.3-1.7 4.5-3.5 6.6-5.2v7.1c-2 1.4-4.2 2.8-6.6 4.3v-6.2zm0 7.9c2.3-1.4 4.5-2.8 6.6-4.2v24.3l-6.6.2v-20.3zm-10.8-34.3v11.6c-1.1 1.2-2.8 2.9-5 5v-10.2c0 .1 3.7-4.6 5-6.4zm-13.1 14.9c2.6-2.6 5-5.2 7-7.4V507c-2 1.8-4.3 3.9-7 6.1v-9zm0 10.8c2.6-2.1 5-4.2 7-6v15.9c-1.9 1-3.8 2.1-5.8 3l-1.2.6v-13.5zm0 15.1c.6-.3 1.3-.6 1.9-.9 1.7-.9 3.5-1.8 5.1-2.7v4.3c-2.2 1-4.6 2-7 3V530zm0 5.4c2.4-.9 4.7-1.9 7-3v11.9l-7 .2v-9.1zm-7.8-24c2.4-2.1 4.6-4.2 6.7-6.2v8.8c-2.1 1.7-4.3 3.4-6.7 5.2v-7.8zm0 9.5c2.4-1.7 4.6-3.4 6.7-5.1v13.1c-2.1 1-4.4 2-6.7 2.9v-10.9zm0 12.5c2.3-.9 4.6-1.9 6.7-2.9v3.7c-.1.1-.3.1-.4.2-2 .8-4.1 1.5-6.3 2.2v-3.2zm0 4.8c2.3-.8 4.6-1.6 6.7-2.4v8.7l-6.7.2v-6.5zm-8.1-20.1c2.5-1.9 4.8-3.8 7-5.7v7.5c-2.2 1.6-4.5 3.2-7 4.7v-6.5zm0 8.3c2.5-1.6 4.8-3.1 7-4.7v10.6c-2.3.9-4.6 1.7-7 2.5v-8.4zm0 9.9c2.4-.8 4.7-1.6 7-2.4v3.2c-2.3.7-4.6 1.4-7 2.1v-2.9zm0 4.3c2.4-.6 4.7-1.3 7-2v6.2l-7 .2v-4.4zm-1-21.7v6.4c-2.2 1.4-4.6 2.8-7 4.1v-5.6c2.4-1.5 4.7-3.2 7-4.9zm-22.5 20.8c-.3 0-.6 0-.9.1v-1l.9-.3v1.2zm0 1.5v2c-.4 0-.8 0-1.2.1.1-.7.2-1.3.2-2 .3 0 .7 0 1-.1zm0 3.5v1.1h-1.4c0-.3 0-.7.1-1 .4-.1.8-.1 1.3-.1zm-55.9 7.1h-.4c-.2 0-.4 0-.6.1-.4.1-.7.2-1 .4v-1l-1.5.5-.1.5h-.7v-.6l-.9.1-.1-1.1h-3.1v-4.9c4.4.7 8.7 1.2 12.8 1.4v.2h-.5l-1.5 1.5h-.5l-.1 2.7c-.7.2-1.2.2-1.8.2zm21.8-7.9c-.1-.2-.1-.5-.1-.7.7.1 1.5.2 2.2.4-.3.2-.9.5-2.1.3zm-15.8.7c-.1.4-.1.8-.1 1.2h-.7l-.2-.1v-.5h-.4v.5c-4.2-.2-8.5-.7-12.9-1.5V542c5 .9 10 1.4 14.9 1.6-.2.4-.5.7-.6 1zm0 2.7h-.4v-.1c.1.1.2.1.4.1zm19.9-6.4c-1.5.2-2.9.5-4.4.6 0-.6-.1-1.2-.1-1.8 1.5.3 3 .5 4.5.8v.4zm-19.1.4c-.1.2-.1.5 0 .9-5-.2-10-.7-15.1-1.6v-3.4l-1.5-.2v-3.4c6.2 2.6 12.3 4.8 18.3 6.4-.6.4-1.4.8-1.7 1.3zm-59.7-5.8v18.9c-.4.8-2.8.3-2.9 1.3-.4 1.1-.1-9.6-.1-9.6h-3.2v-20.7c2.4 1.6 4.8 3 7.3 4.4-1.8 1-1.1 3.6-1.1 5.7zm124.3 9.8v-2.8c2.4-.5 4.7-1 7-1.6v4.2l-7 .2zm0-4.3v-2.5c2.4-.6 4.7-1.2 7-1.9v2.8c-2.3.6-4.6 1.1-7 1.6zm0-4v-5.9c2.4-1.3 4.8-2.7 7-4.1v8c-2.3.8-4.6 1.4-7 2zm-8.1-8.1c2.4-1.4 4.7-2.8 7-4.3v5.5c-2.3 1.2-4.6 2.4-7 3.6v-4.8zm0 6.4c2.4-1.1 4.7-2.3 7-3.5v5.5c-2.3.5-4.6 1-7 1.4v-3.4zm0 4.9c2.4-.4 4.7-.9 7-1.4v2.4c-2.3.4-4.6.8-7 1.2v-2.2zm0 3.7c2.4-.3 4.7-.7 7-1.2v2.6l-7 .2v-1.6zm-6.3-11.7c1.8-.9 3.5-1.8 5.2-2.7v4.7c-.7.3-1.5.7-2.2 1-1 .4-2 .9-3 1.3v-4.3zm0 5.9l3.6-1.5c.6-.2 1.1-.5 1.7-.8v3.1c-1.7.3-3.5.5-5.2.7v-1.5h-.1zm0 3c1.8-.2 3.5-.4 5.2-.7v2.2c-1.7.2-3.5.4-5.2.6v-2.1zm0 3.5c1.8-.2 3.5-.3 5.2-.6v1.6l-5.2.2v-1.2zm-1.1-11.8v4.1c-.3.1-.7.3-1 .4-.1-.3-.1-.5-.2-.8-.3-.7-1.2-1.5-2.2-2.2 1.1-.4 2.2-1 3.4-1.5zm-46.1 4.2c.1.7.1 1.4 0 1.9-6.3-1.7-12.8-4-19.4-6.8v-2.3c6.5 3.1 13 5.4 19.4 7.2zm-61.5-11.8l-.1 2.9c-2.4-1.4-4.9-2.9-7.3-4.5v-3.1c2.5 1.7 4.9 3.3 7.4 4.7zm146.7 31.1h-7.2v1.8h-.9l-.2 4.4h-1.2l.2 2.6-2-.1-.1 2.7-.6.3v7.6h-.9v3.2h-1.6l-.4-25.3-3.3-.9-.4-3.4-1.7-.1h33.7v29.2h-6.4v2.9h-1.7V563h-1.6v-1.8l-3.7-4.9z" fill="#0F529C"/></svg>