<svg width="1600" height="600" fill="none" xmlns="http://www.w3.org/2000/svg" viewBox="0 0 1600 600"><path fill-rule="evenodd" clip-rule="evenodd" d="M1603 0H-9v598h1612V0z" fill="#F5FCFF"/><path d="M464.2 507.9l-8.6-208.7-73.7-3.8-14.2 59 3.1 153.5h93.4z" fill="#B8CCDA"/><path d="M381.9 507.9V295.4l-29.4 16.4-4.2 78.9-24.4 13.8-.6 103.4h58.6z" fill="#7DA2B4"/><path d="M539.6 507.9V362l-58.3-1.6-22.1 47.2 4 100.3h76.4z" fill="#B8CCDA"/><path d="M481.3 507.9V360.4l-45.8 13.1-6.5 63.1-38.2 11-.7 60.3h91.2z" fill="#7DA2B4"/><path d="M537.7 507.9l-.1-74.8-23.9-.7-32.9 31.3 4 44.2h52.9z" fill="#B8CCDA"/><path d="M513.7 507.9v-75.5L456.9 465v15.5l-66.1-.6-.2 28h123.1z" fill="#7DA2B4"/><path d="M539.6 507.9V401.8l-1.9-.5v106.6h1.9zM348.1 507.9l2.9-167.8-23.1-2.2-3.4 46.2.8 123.8h22.8z" fill="#B8CCDA"/><path d="M327.9 507.9v-170l-7.1 12.9-1 61.9-6 10.8-.2 84.4h14.3z" fill="#7DA2B4"/><path d="M319.5 507.9l-2.2-121.7-18-2.2-3.5 33.5.8 90.4h22.9z" fill="#B8CCDA"/><path d="M299.3 507.9V384l-7.1 9.3-1.1 44.8-5.9 7.8-.2 62h14.3z" fill="#7DA2B4"/><path d="M218.3 374.6l5.9 133h-48.7l-6.1-4.2-2.1-98.4 8.2-32.5 42.8 2.1z" fill="#B8CCDA"/><path d="M156 425.1l2.5-43.6 17-9v135.1l-34.1-9.8.4-65.1 14.2-7.6z" fill="#7DA2B4"/><path d="M308.6 507.9l-8.4-97.8-66.9-1.7-12.9 26 3.2 73.5h85z" fill="#B8CCDA"/><path d="M233.3 507.9v-99.5l-26.6 7.2-3.8 34.8-22.2 6-.6 51.5h53.2z" fill="#7DA2B4"/><path d="M266.1 507.9l-.1-59.4-13.8-.5-19.2 17.3 4 42.6h29.1z" fill="#7DA2B4"/><path d="M252.2 507.9V448l-33.1 18v8.6l-38.4-.3-.2 33.6h71.7z" fill="#7DA2B4"/><path d="M342.3 507.9V369h-18.1L314 392.6l4.2 115.3h24.1z" fill="#B8CCDA"/><path d="M266.1 507.9h67V369h-14.7l-18.3 25.4.1 44.5-34.1-8v77z" fill="#7DA2B4"/><path d="M266.1 430.9l34.1-1.7v9.7l-34.1-8z" fill="#7DA2B4"/><path d="M154.6 397.6l1.4 106.2h-11.8l-1.5-3.3-.6-78.6 2.1-26 10.4 1.7z" fill="#B8CCDA"/><path d="M139.4 437.9l.6-34.7 4.2-7.3v107.9l-8.4-7.8.1-52 3.5-6.1z" fill="#7DA2B4"/><path d="M138 422.7l1.4 81.6h-11.9l-1.5-2.6-.5-60.4 2-19.9 10.5 1.3z" fill="#B8CCDA"/><path d="M122.8 453.6l.6-26.7 4.1-5.5v82.9l-8.3-6 .1-40 3.5-4.7z" fill="#7DA2B4"/><path d="M671.1 508l3-98.2-16.9-47.9-87.9 3.2-8.7 142.9h110.5z" fill="#B8CCDA"/><path d="M726.7 508l-.5-57.5-29.1-11.2-5-64.1-34.9-13.3V508h69.5z" fill="#7DA2B4"/><path d="M561.8 508l3.2-55-25.6-37.2V508h22.4z" fill="#C9C3C3"/><path d="M646.8 508l-.4-22.6-45.4-8.9-7.8-51.1-53.8-10.5V508h107.4z" fill="#7DA2B4"/><path d="M724.8 508l.7-74.1-4.1-37.4-21.4 2.4-2.1 109.1h26.9z" fill="#B8CCDA"/><path d="M738.4 508l-.1-42.1-7.1-8.8-1.3-50.2-8.5-10.4V508h17z" fill="#7DA2B4"/><path d="M759 508l.6-47-4.1-27.1-21.4 1.7-1.9 72.4H759z" fill="#B8CCDA"/><path d="M772.5 508l-.1-23.9-7.1-6.4-1.2-36.3-8.6-7.5V508h17z" fill="#7DA2B4"/><path d="M911.1 508l1.8-57.1-9.9-26.4-51 1.7-5.3 81.8h64.4z" fill="#C9C3C3"/><path d="M943.5 508l-.3-34.701-16.9-6.099-2.9-35.401L903 424.5V508h40.5z" fill="#ADACAC"/><path d="M847.4 508l2.1-33.3-15.4-21.1-79.7 1.4-6.7 53h99.7z" fill="#C9C3C3"/><path d="M897.1 508l-.3-15.4-26.4-4.9-4.5-28.2-31.8-5.9V508h63z" fill="#ADACAC"/><path d="M833.4 508l1.1-8.2-22.8-14-16.5.3-.1 21.9h38.3z" fill="#ADACAC"/><path d="M896.8 508v-.9l-45.8.2v-6.9l-39.3-14.6V508h85.1z" fill="#ADACAC"/><path d="M734.4 508l3.7-67.1-12.3-19.2h-21.5V508h30.1z" fill="#C9C3C3"/><path d="M795.1 508v-36.1l-40.7 6.5.2-36.1-21.8-20.6h-17.5V508h79.8z" fill="#ADACAC"/><path d="M795.1 471.9l-40.6-1.3-.1 7.8 40.7-6.5z" fill="#ADACAC"/><path d="M942.4 508l.4-43.4-2.4-21.1-12.5 1.4-1.2 63.1h15.7z" fill="#C9C3C3"/><path d="M950.3 508l-.1-25.5-4.1-4.9-.7-28.2-5-5.9V508h9.9z" fill="#ADACAC"/><path d="M962.3 508l.3-27.6-2.4-16.2-12.4 1-1.1 42.8h15.6z" fill="#C9C3C3"/><path d="M970.1 508l-.1-13.9-4.1-3.7-.7-21.7-5-4.5V508h9.9z" fill="#ADACAC"/><path d="M1366.2 508l-6.3-237.8-51.1-4.2-9.8 63.9 2.3 178.1h64.9z" fill="#B8CCDA"/><path d="M1308.8 508V266l-20.3 17.7-2.9 85.6-16.9 14.9-.5 123.8h40.6z" fill="#7DA2B4"/><path d="M1434 508V338.8l-56.3-2.3-15.3 51 3.1 120.5h68.5z" fill="#B8CCDA"/><path d="M1377.7 508V336.5l-31.7 14.2-4.5 68.3-26.5 11.9-.5 77.1h63.2z" fill="#7DA2B4"/><path d="M1416.7 508v-92.8l-16.5-.8-22.8 34 3.4 59.6h35.9z" fill="#7DA2B4"/><path d="M1400.2 508v-93.6l-39.4 35.4v16.8l-45.8-.7-.2 42.1h85.4zM1434 508V387.5l-17.2-6.7V508h17.2z" fill="#7DA2B4"/><path d="M1285.5 508l-1.6-192.6-12.4-3.3-2.4 51 .6 144.9h15.8z" fill="#B8CCDA"/><path d="M1271.5 508V312.1l-5 14.1-.7 68.3-4.1 12-.1 101.5h9.9z" fill="#7DA2B4"/><path d="M1265.6 508l-1.5-143.4-12.5-2.6-2.4 39.3.6 106.7h15.8z" fill="#B8CCDA"/><path d="M1251.6 508V362l-4.9 10.9-.7 52.5-4.2 9.2-.1 73.4h9.9z" fill="#7DA2B4"/><path d="M1137.6 508V384.4l-1.3 15.4.8 108.2h.5z" fill="#C9C3C3"/><path d="M1137.6 508V357.1l-5.7 8.8-1.3 62.8-7.1 11-.1 68.3h14.2z" fill="#ADACAC"/><path d="M1050.2 508l-6.3-168.3-51-3-9.9 45.6 2.3 125.7h64.9z" fill="#C9C3C3"/><path d="M992.9 508V336.7l-20.3 12.7-3 61-16.9 10.7-.4 86.9h40.6z" fill="#ADACAC"/><path d="M1137.6 508V389.3l-75.8-2.3-15.4 36.5 3.1 84.5h88.1z" fill="#C9C3C3"/><path d="M1061.8 508V387l-31.8 10.2-4.5 48.7-26.4 8.5-.6 53.6h63.3z" fill="#ADACAC"/><path d="M1100.8 508l-.1-64.8-16.5-.5-22.8 24.2 3.3 41.1h36.1z" fill="#ADACAC"/><path d="M1084.2 508v-65.3l-39.3 25.2v12l-45.8-.5-.2 28.6h85.3zM1137.6 508v-79.2l-36.8-10.1V508h36.8z" fill="#ADACAC"/><path d="M1137.6 416.5v12.3l-36.8-10.1 36.8-2.2z" fill="#ADACAC"/><path d="M969.5 508L968 372l-12.5-2.4-2.4 36.4.6 102h15.8z" fill="#C9C3C3"/><path d="M955.5 508V369.6l-4.9 10.1-.8 48.8-4.1 8.5-.1 71h9.9z" fill="#ADACAC"/><path d="M949.6 508l-1.5-100.9-12.4-1.8-2.4 28 .5 74.7h15.8z" fill="#C9C3C3"/><path d="M935.7 508V405.3l-5 7.7-.7 37.5-4.1 6.6-.1 50.9h9.9z" fill="#ADACAC"/><path d="M1262.4 508V385.5H1219l-.5-53.8h-17.4v-66h-4.7v-50.4h-11.3v-5.7h-.1c-2.5-7.7-5.2-10.7-7.7-11.3l-2.7-130.7v131.1c-4.7 2.1-8.3 10.9-8.3 10.9v2.9l-8.9 3.7-2.4-.3-9.3 3.6v48l-23.5.3v67.3l-16 .9v54.7h-18.5l-39.4-.5V508h214.1z" fill="#7DA2B4"/><path d="M1207.4 508h26.6V385.5h-48.8v9.1l22.2.3V508zM1176.8 508l2.8-113.1h-52.1l-2.7 113.1h52zM1086.2 508l1.7-117.2-39.5-.5V508h37.8zM1149.4 394.9l.6-127.5-27.7.4v67.3l-15.9 1v54.7l43 4.1zM1166.4 209.6l-1.1 55.7h-19.5v-45.8l27.5-19.9-6.9 10z" fill="#B8CCDA"/><path d="M612 28.2s.4-.4.4-1.6h-1.8c1.2.5 1.4 1.6 1.4 1.6z" fill="#999896"/><path d="M27.2 508V356.6l-33.1.6h-15.5v-66.6l-13.4-1.1v-81.9l-19.7-.4v-62.7h-7.9v-4.2l-9.5.1.1-3.5h-15.8v6.8H-97V205h-4v80.3h-14.5l-.4 65.4h-36.4V508H27.2z" fill="#B8CCDA"/><path d="M27.2 508V356.6l-33.1.6L-4.4 508h31.6zM1527.7 508l-8.6-207.5-73.7-3.8-14.2 59 3.1 152.3h93.4z" fill="#7DA2B4"/><path d="M1445.4 508V296.7l-29.3 16.4-4.2 78.9-24.4 13.8-.7 102.2h58.6z" fill="#B8CCDA"/><path d="M1603.2 508V363.3l-58.3-1.6-22.2 47.1 4 99.2h76.5z" fill="#7DA2B4"/><path d="M1544.9 508V361.7l-45.8 13.1-6.6 63.1-38.1 11-.7 59.1h91.2z" fill="#B8CCDA"/><path d="M1601.2 508l-.1-73.6-23.8-.8-32.9 31.4 3.8 43h53z" fill="#7DA2B4"/><path d="M1577.3 508v-74.4l-56.8 32.7v15.5l-66.1-.6-.2 26.8h123.1z" fill="#B8CCDA"/><path d="M1411.6 508l-2.1-165.8-18-3-3.5 46.2.8 122.6h22.8z" fill="#7DA2B4"/><path d="M1391.5 508V339.2l-7.2 12.8-1 62-6 10.8-.1 83.2h14.3z" fill="#B8CCDA"/><path d="M1383 508l-2.2-120.5-18-2.2-3.4 33.5.8 89.2h22.8z" fill="#7DA2B4"/><path d="M1362.8 508V385.3l-7.1 9.3-1 44.8-6 7.8-.1 60.8h14.2zM1237.8 508h49.9l-5.8-132.1-42.9-2.1-8.2 32.5 2.1 98.4 4.9 3.3z" fill="#B8CCDA"/><path d="M1239 508V373.8l-17 9-2.4 43.6-14.2 7.5-.5 65.2 31.1 8.9h3z" fill="#7DA2B4"/><path d="M1372.1 508l-8.3-96.6-66.9-1.7-12.9 25.9 3 72.4h85.1z" fill="#B8CCDA"/><path d="M1296.9 508v-98.3l-26.7 7.2-3.8 34.7-22.1 6.1-.7 50.3h53.3z" fill="#7DA2B4"/><path d="M1329.6 508v-58.3l-13.9-.4-19.1 17.3 3.9 41.4h29.1z" fill="#7DA2B4"/><path d="M1315.7 508v-58.7l-33 18v8.6l-38.4-.4-.3 32.5h71.7z" fill="#7DA2B4"/><path d="M1405.9 508V370.3h-18.1l-10.3 23.6 4.2 114.1h24.2z" fill="#B8CCDA"/><path d="M1329.6 508h67V370.3h-14.7l-18.3 25.4.2 44.5-34.2-8V508z" fill="#7DA2B4"/><path d="M1329.6 432.2l34.1-1.7.1 9.7-34.2-8z" fill="#7DA2B4"/><path d="M1218.2 398.9l1.4 106.2h-11.9l-1.5-3.3-.5-78.6 2-26 10.5 1.7z" fill="#B8CCDA"/><path d="M1202.9 439.2l.6-34.8 4.2-7.2v107.9l-8.3-7.8.1-52 3.4-6.1z" fill="#7DA2B4"/><path d="M1201.5 424l1.4 81.6h-11.8l-1.5-2.6-.6-60.4 2.1-20 10.4 1.4z" fill="#B8CCDA"/><path d="M1186.3 454.9l.6-26.7 4.2-5.6v83l-8.4-6 .1-40 3.5-4.7z" fill="#7DA2B4"/><path d="M767.4 435.2l-5.9-15.8-.7-56.9-5.1.2-.1 145.3h11.9l-.1-72.8z" fill="#ADACAC"/><path d="M883.7 508l1.7-155.3-8.3-65.6-42.8 4.3-4.7 216.6h54.1z" fill="#C9C3C3"/><path d="M911.1 508l-.3-99.6-14.2-15.3-2.4-87.7-17.1-18.3V508h34z" fill="#ADACAC"/><path d="M830.2 508l2-96.1-12.9-52.4-63.7 3.2V508h74.6z" fill="#C9C3C3"/><path d="M872.2 508l-.3-51.7-22.2-12.2-3.8-70.1-26.6-14.5V508h52.9z" fill="#ADACAC"/><path d="M818 508l1.6-33.7-19.1-34.9-13.9.9V508H818z" fill="#ADACAC"/><path d="M872 508l-.1-15.7-38.4.6v-17.2l-33-36.3V508H872zM786.5 508V404.9l-30.9 14.7V508h30.9z" fill="#ADACAC"/><path d="M755.6 401.9v17.7l30.9-14.7-30.9-3z" fill="#ADACAC"/><path d="M910.1 508l.4-121.2-2-52.4-13.6 1.3 2 172.3h13.2z" fill="#C9C3C3"/><path d="M916.8 508l-.1-76.7-3.5-12.2-.6-70.1-4.1-14.6V508h8.3z" fill="#ADACAC"/><path d="M926.8 508l.3-82.1-2-40.2-10.5 2.6-1 119.7h13.2z" fill="#C9C3C3"/><path d="M933.4 508l-.1-47.9-3.4-9.4-.6-53.8-4.2-11.2V508h8.3z" fill="#ADACAC"/><path d="M1090.7 508V357.9l-33 .6h-15.6v-66.6l-13.4-1.1v-81.9l-19.7-.4v-62.8l-7.8.1v-4.2l-9.5.1v-3.6h-15.8v6.9h-9.4v61.3h-3.9v80.2H948l-.4 65.5h-36.4v156h179.5z" fill="#7DA2B4"/><path d="M957.3 508V363.4l18.6-.3V352H935v156h22.3zM1026.7 508l-2.3-144.6h-43.7l2.4 144.6h43.6zM1090.7 508V357.9l-33 .6 1.4 149.5h31.6zM1006 363.4l-.5-155 23.2.5v81.9l13.4 1.1v66.6l-36.1 4.9zM991.7 138.1l1 67.7h16.3v-60.1l-7.8.1v-4.2l-9.5-3.5z" fill="#B8CCDA"/><path d="M731.8 505.6l-8.7-119.8-73.7-2.2-14.2 33.9 3.1 88.1h93.5z" fill="#C9C3C3"/><path d="M649.4 505.6v-122l-29.3 9.4-4.2 45.3-24.5 7.9-.6 59.4h58.6z" fill="#ADACAC"/><path d="M807.2 505.6v-83.8l-58.3-.9-22.2 27.1 4 57.6h76.5z" fill="#C9C3C3"/><path d="M748.9 505.6v-84.7l-45.8 7.5-6.6 36.2-38.1 6.3-.7 34.7h91.2z" fill="#ADACAC"/><path d="M805.2 505.6l-.1-43-23.9-.4-32.9 18 4 25.4h52.9z" fill="#C9C3C3"/><path d="M781.2 505.6v-43.4l-56.7 18.7v8.9l-66.1-.3-.2 16.1h123zM807.2 505.6v-60.9l-2-.3v61.2h2z" fill="#ADACAC"/><path d="M615.6 505.6l-2.2-95.9-17.9-1.7-3.5 26.5.8 71.1h22.8z" fill="#C9C3C3"/><path d="M595.5 505.6V408l-7.2 7.4-1 35.5-6 6.2-.1 48.5h14.3z" fill="#ADACAC"/><path d="M587 505.6l-2.2-69.9-18-1.3-3.4 19.3.8 51.9H587z" fill="#C9C3C3"/><path d="M566.8 505.6v-71.2l-7.1 5.4-1.1 25.7-5.9 4.5-.2 35.6h14.3z" fill="#ADACAC"/><path d="M485.9 429.1l5.8 76.3H443l-6.1-2.4-2.1-56.5 8.2-18.7 42.9 1.3z" fill="#C9C3C3"/><path d="M423.5 458l2.5-25 17-5.2v77.6l-34.1-5.6.4-37.4 14.2-4.4z" fill="#ADACAC"/><path d="M576.1 505.6l-8.3-56.2-67-1-12.8 14.9 3.1 42.3h85z" fill="#C9C3C3"/><path d="M500.8 505.6v-57.2l-26.6 4.2-3.8 19.9-22.1 3.5-.7 29.6h53.2z" fill="#ADACAC"/><path d="M533.6 505.6v-34.2l-13.9-.2-19.2 9.9 4 24.5h29.1z" fill="#ADACAC"/><path d="M519.7 505.6v-34.4l-33 10.3v4.9l-38.4-.2-.3 19.4h71.7z" fill="#ADACAC"/><path d="M609.8 505.6v-79.8h-18.1l-10.2 13.6 4.2 66.2h24.1z" fill="#C9C3C3"/><path d="M533.6 505.6h67v-79.8h-14.7l-18.3 14.6.2 25.6-34.2-4.6v44.2z" fill="#ADACAC"/><path d="M533.6 461.4l34.1-1 .1 5.6-34.2-4.6z" fill="#ADACAC"/><path d="M422.1 442.3l1.5 60.9h-11.9l-1.5-1.9-.5-45.1 2-14.9 10.4 1z" fill="#C9C3C3"/><path d="M406.9 465.4l.6-20 4.2-4.1v61.9l-8.3-4.5.1-29.8 3.4-3.5z" fill="#ADACAC"/><path d="M405.5 456.6l1.4 46.9H395l-1.5-1.5-.5-34.7 2-11.4 10.5.7z" fill="#C9C3C3"/><path d="M390.3 474.4l.6-15.3 4.1-3.2v47.6l-8.3-3.5.1-22.9 3.5-2.7z" fill="#ADACAC"/><path d="M938.6 506.3l3-57-16.9-27.5-87.8 1.8-8.8 82.7h110.5z" fill="#C9C3C3"/><path d="M994.2 506.3l-.5-33.7-29.1-6.4-5-36.8-34.9-7.6v84.5h69.5z" fill="#ADACAC"/><path d="M829.2 506.3l3.3-32.3-25.6-21.3v53.6h22.3z" fill="#C9C3C3"/><path d="M914.4 506.3l-.4-13.7-45.5-5.1-7.8-29.3-53.8-6v54.1h107.5z" fill="#ADACAC"/><path d="M835.2 506.3v-5.5l-28.3-6.4v11.9h28.3z" fill="#ADACAC"/><path d="M992.4 506.3l.7-43.2-4.2-21.5-21.4 1.4-2.1 63.3h27z" fill="#C9C3C3"/><path d="M1005.9 506.3l-.1-24.9-7.1-5-1.2-28.8-8.6-6v64.7h17z" fill="#ADACAC"/><path d="M1026.5 506.3l.7-27.7-4.2-15.6-21.4 1.1-1.9 42.2h26.8z" fill="#C9C3C3"/><path d="M1040 506.3l-.1-14.4-7.1-3.7-1.2-20.8-8.6-4.4v43.3h17z" fill="#ADACAC"/><path d="M1145.7 458.2l-26.2.5-5.3 47.6h31.5v-48.1z" fill="#C9C3C3"/><path d="M1114.9 506.299l2.1-19.8-15.3-12.1-79.8.8-6.8 31.1h99.8z" fill="#C9C3C3"/><path d="M1145.7 494.799l-7.8-.9-4.5-16.1-31.7-3.4v31.9h44v-11.5z" fill="#ADACAC"/><path d="M1100.7 506.299l1.3-5.4-22.8-8-16.5.1v13.3h38z" fill="#ADACAC"/><path d="M1145.7 505.099l-27.1.1v-4l-39.4-8.3v13.4h66.5v-1.2z" fill="#ADACAC"/><path d="M1001.9 506.3l3.7-39.2-12.2-11h-21.6v50.2h30.1z" fill="#C9C3C3"/><path d="M1062.6 506.3v-21.4l-40.7 3.7.2-20.7-21.8-11.8h-17.5v50.2h79.8z" fill="#ADACAC"/><path d="M1062.6 484.9l-40.6-.8-.1 4.5 40.7-3.7z" fill="#ADACAC"/><path d="M879.5 230.3s.4-.2.4-.9h-1.8c1.2.3 1.4.9 1.4.9z" fill="#999896"/><path d="M87.6 508l1.7-92.2-8.2-37.7-42.8 2.5L33.4 508h54.2z" fill="#7DA2B4"/><path d="M115.1 508l-.3-60.3-14.2-8.7-2.5-50.4-17-10.5V508h34z" fill="#B8CCDA"/><path d="M34 508l2.1-58.3-12.8-30.1-63.7 1.9V508H34z" fill="#7DA2B4"/><path d="M76.2 508l-.3-32.8-22.2-7-3.8-40.2-26.6-8.4V508h52.9z" fill="#B8CCDA"/><path d="M21.7 508l1.9-22.5-19.2-20-13.8.5-.1 42h31.2z" fill="#7DA2B4"/><path d="M76 508l-.1-12.2-38.4.4v-9.9L4.4 465.5V508H76z" fill="#B8CCDA"/><path d="M114 508l.5-72.7-2.1-30-13.6.5 2 102.2H114z" fill="#7DA2B4"/><path d="M120.7 508v-47.2l-3.5-7-.6-40.2-4.2-8.3V508h8.3z" fill="#B8CCDA"/><path d="M130.7 508l.4-50.2-2-23.1-10.5 1.5-1.1 71.8h13.2z" fill="#7DA2B4"/><path d="M137.4 508l-.1-30.6-3.5-5.4-.6-30.9-4.1-6.4V508h8.3z" fill="#B8CCDA"/><path d="M294.7 508v-89.3l-33.1.4h-15.5v-38.2l-13.4-.7v-47L213 333v-36l-7.8.1-.1-2.5-9.4.1v-2.1h-15.8v4h-9.4v35.1h-4v46.1H152l-.4 37.5h-36.4V508h179.5z" fill="#7DA2B4"/><path d="M161.3 508v-86.1l18.6-.2v-6.4H139V508h22.3zM230.8 508l-2.4-86.1h-43.7l2.5 86.1h43.6zM294.7 508v-89.3l-33.1.4 1.6 88.9h31.5zM210 421.9l-.5-88.9 23.2.2v47l13.4.7v38.2l-36.1 2.8zM195.7 292.6l1 38.9H213V297l-7.8.1-.1-2.5-9.4-2z" fill="#B8CCDA"/><path d="M158.9 433.6h2.4l.5 14.6h-2.9v57.2h945l-1-139.7-62.7-1.1-51.5 1.1v-34.9l-39.4-11.3h-71.9L837 329.9v58.6h-91.3v-13.3l-14.3-.2v-45.7l-2.9-6.3H720v-16h-3.8v-11.9h-43.9v12.7l-5.3.1v14.6l-12.1.2-1.9 70.6h-25.4v96.2l-134.8 1.3v-39.3h-9.5v-7.3l-12.1-4.9v-16.9l-3.8-.9v-6.4l-32.8.2v-38.9l-9.2.5v-6.4s-11.6-11.2-27.7-13.6l-9.8.2v-9.5l-83.5 1.2v3.4l-12.9.6L279 359l-1.5 71.1-118.7.8v2.7h.1z" fill="#B8CCDA"/><path d="M1103.1 367.1h-49.6v138.3h49.6V367.1z" fill="#7DA2B4"/><path d="M1103.8 382.7h-3.7v104.2h3.7V382.7zM927.7 337.7h-42v4.5h42v-4.5zM927.7 345.3h-42v4.5h42v-4.5zM927.7 353.1h-42v4.5h42v-4.5zM927.7 361.1h-42v4.5h42v-4.5zM927.7 368.6h-42v4.5h42v-4.5zM927.7 375.4h-42v4.5h42v-4.5zM927.7 382.1h-42v4.5h42v-4.5zM924.1 397.4h-8.9v3.8h8.9v-3.8zM924.1 404.2h-8.9v3.8h8.9v-3.8zM937.7 404.2h-8.9v3.8h8.9v-3.8zM937.7 397.5h-8.9v3.8h8.9v-3.8zM924.1 412.1h-8.9v3.8h8.9v-3.8zM924.1 418.9h-8.9v3.8h8.9v-3.8zM937.7 418.9h-8.9v3.8h8.9v-3.8zM937.7 412.3h-8.9v3.8h8.9v-3.8zM924.1 427.1h-8.9v3.8h8.9v-3.8zM924.1 433.9h-8.9v3.8h8.9v-3.8zM937.7 433.9h-8.9v3.8h8.9v-3.8zM937.7 427.3h-8.9v3.8h8.9v-3.8zM924.1 442.4h-8.9v3.8h8.9v-3.8zM924.1 449.2h-8.9v3.8h8.9v-3.8zM937.7 449.2h-8.9v3.8h8.9v-3.8zM937.7 442.6h-8.9v3.8h8.9v-3.8zM924.1 456.8h-8.9v3.8h8.9v-3.8zM924.1 463.6h-8.9v3.8h8.9v-3.8zM937.7 463.6h-8.9v3.8h8.9v-3.8zM937.7 457h-8.9v3.8h8.9V457zM924.1 471.1h-8.9v3.8h8.9v-3.8zM924.1 477.9h-8.9v3.8h8.9v-3.8zM937.7 477.9h-8.9v3.8h8.9v-3.8zM937.7 471.3h-8.9v3.8h8.9v-3.8z" fill="#ADADAD"/><path d="M964 401.4h-8.3v104h8.3v-104zM842.3 394.4h-98.8v111h98.8v-111zM734.9 394.6h-44.5v110.8h44.5V394.6zM1042.4 366.6h-46.7v138.8h46.7V366.6zM652.3 397.5h-24.6v107.9h24.6V397.5zM714.3 296.2h-23.9v11.9h23.9v-11.9zM720.1 310.5h-23.7V323h23.7v-12.5zM727 328.7h-18.7v58.8H727v-58.8zM743.5 377.6h-10.2v10.7h10.2v-10.7zM937.7 331.6h-52v173.8h52V331.6zM604.8 496.2H495.4v9.2h109.4v-9.2zM487.7 455.6h-19.5v49.8h19.5v-49.8zM461 419.2h-23.3v22.3H461v-22.3zM451.9 449.5h-21.6v56h21.6v-56zM293.1 505.4l-.7-152-12.9 6.3v145.7h13.6zM279.5 436.4H166.6v12.4h112.9v-12.4zM265.5 453H229v52.4h36.5V453zM404.6 357.2h-16.5v148.2h16.5V357.2zM425.5 377h-7.3v128.4h7.3V377zM207.4 451.1h-40.8v54.3h40.8v-54.3z" fill="#7DA2B4"/><path d="M511.8 463.4v-7.3l-12.1-4.9v-16.9l-3.8-.9V427l-32.8.2v-38.9l-9.2.5v-6.4s-11.6-11.2-27.7-13.6l-9.8.2v-9.5l-83.5 1.2v3.4l-12.9.6-12.5 6.2L306 442l-128 1v2.4l11.8.1.5 14.6H183l.6 35.8-24.7.2v9.4h358.5v-42h-5.6v-.1z" fill="#7DA2B4"/><path d="M516.2 467.4h-19.5v38h19.5v-38zM489.4 431h-23.3v22.3h23.3V431zM480.3 461.3h-21.6v44.1h21.6v-44.1zM321.5 505.4l-.7-140.2-12.9 6.4v133.8h13.6zM307.9 448.2H195v12.4h112.9v-12.4zM294 464.8h-36.5v40.6H294v-40.6zM433 369h-16.5v136.4H433V369zM453.9 388.8h-7.3v116.6h7.3V388.8zM235.8 462.9H195v42.5h40.8v-42.5z" fill="#B8CCDA"/><path d="M176.2 496.5h-17.3v8.9h17.3v-8.9z" fill="#ADADAD"/><path d="M1486.7 382.6h-74.5v-13.3l-14.3-.2v-45.7l-2.9-6.3h-8.5v-16h-3.8v-11.9h-43.9V302l-5.3.1v14.6l-12.1.2-1.9 70.6H1294v96.2l-134.8 1.3v-39.3h-9.5v-7.3l-12.1-4.9v-16.9l-3.8-.9v-6.4l-32.8.2v-38.9l-9.2.5v-6.4s-11.6-11.2-27.7-13.6l-9.8.2v-9.5l-83.5 1.2v3.4l-12.9.6-12.5 6.2-1.5 71.1-128 .9v2.4l11.8.1.5 14.6h-7.3l.6 35.8-101.5.7V505h-13.4v-7.3l-21-.7v-11.3l-26.7-.7v-18.9l-101.1-.4v6.5l-53-.1V377l-6.2-.7v-29.1h-9.5v-7.6l-4.8-.4V332h-67.1v8.4l-7 .2v7.5l-10.2.7v27.8l-15.6.2v128.6h1102.2V382.6h.1z" fill="#B8CCDA"/><path d="M1486.7 388.6h-76.9v116.8h76.9V388.6zM1401.3 388.7h-44.5v116.7h44.5V388.7zM1318.6 391.7H1294v113.7h24.6V391.7zM1380.7 290.4h-23.9v11.9h23.9v-11.9zM1386.4 304.7h-23.7v12.5h23.7v-12.5zM1393.3 322.9h-18.7v58.8h18.7v-58.8zM1409.8 371.8h-10.2v10.7h10.2v-10.7zM1271.1 490.3h-109.4v15.1h109.4v-15.1zM1154.1 449.7h-19.5v55.7h19.5v-55.7zM1127.3 413.4H1104v22.3h23.3v-22.3zM1118.2 443.6h-21.6v61.8h21.6v-61.8zM959.4 505.4l-.7-157.8-12.9 6.3v151.5h13.6zM945.8 430.5H832.9v12.4h112.9v-12.4zM931.9 447.2h-36.5v58.2h36.5v-58.2zM1070.9 351.4h-16.5v154h16.5v-154zM1091.8 371.2h-7.3v134.3h7.3V371.2zM873.7 445.2h-40.8v60.2h40.8v-60.2zM814.1 478.8H720v26.6h94.1v-26.6zM702.2 497h-16.5v8.4h16.5V497zM660.2 466h-19.7v39.4h19.7V466zM559.1 472.3h-10.2v33.1h10.2v-33.1zM505.2 377.1h-44.1v128.3h44.1V377.1zM491 347.6h-43.9v29.5H491v-29.5zM485.6 340.3h-45.2v7.3h45.2v-7.3zM479.5 332.8h-42.9v7.5h42.9v-7.5z" fill="#7DA2B4"/><path d="M453.5 505.4v-29.2l-95.3-.6.6-35.9h-7.3l.5-14.5 11.7-.1v-2.4l-99.4-.7v83.4h189.2z" fill="#C6C1C2"/><path d="M346.7 427.9h-82.4v12.4h82.4v-12.4zM284.3 444.5h-20v60.9h20v-60.9zM346.7 442.6h-40.8v62.8h40.8v-62.8zM453.5 476.2h-88v29.2h88v-29.2z" fill="#ADADAD"/><path d="M823.6 505.4V391.2l-15.6-.1v-27.9l-10.1-.7V355l-7-.1v-8.4h-67.1v7.1l-4.8.4v7.6h-9.6v29.1l-6.1.7v95.2l-53 .2v-6.6l-101.2.4v18.9l-26.7.7v5.2h301.2zM488.1 505.4v-12.1l-101.5-.6.6-35.9h-7.3l.5-14.5 11.8-.1v-2.4l-127.9-.9v66.5h223.8z" fill="#B8CCDA"/><path d="M375.2 445H264.3v12.4h110.9V445zM312.7 461.6h-36.5v43.8h36.5v-43.8zM375.1 459.7h-40.8v45.7h40.8v-45.7zM488 493.3h-94.1v12.1H488v-12.1zM567.6 480.5h-19.7v24.9h19.7v-24.9zM659.2 486.7H649v18.7h10.2v-18.7zM747 391.6h-44.1v113.8H747V391.6zM761 362h-43.9v29.5H761V362zM767.7 354.7h-45.2v7.3h45.2v-7.3z" fill="#7DA2B4"/><path d="M771.4 347.3h-42.9v7.5h42.9v-7.5z" fill="#7DA2B4"/><path d="M754.6 505.4h429.1v-47.9h-5.5v-7.3l-12.1-4.9v-16.9l-3.8-.9v-6.4l-32.8.2v-38.9l-9.2.5v-6.4s-11.6-11.2-27.7-13.6l-9.8.2v-9.5l-83.5 1.2v3.4l-12.9.6-12.5 6.2-1.5 71.1-128 .9v2.4l11.8.1.5 14.6h-7.3l.6 35.8-95.3.6v14.9h-.1z" fill="#C6C1C2"/><path d="M1182.5 461.6H1163v43.9h19.5v-43.9zM1155.8 425.2h-23.3v22.3h23.3v-22.3zM1146.7 455.4h-21.6v50h21.6v-50zM987.8 505.4l-.6-146-12.9 6.3v139.7h13.5zM974.3 442.3H861.4v12.4h112.9v-12.4zM960.3 459h-36.5v46.4h36.5V459zM1099.4 363.2h-16.5v142.2h16.5V363.2zM1120.3 383h-7.3v122.4h7.3V383zM902.2 457.1h-40.8v48.3h40.8v-48.3zM842.6 490.7h-88v14.7h88v-14.7z" fill="#ADADAD"/><path d="M158.9 433.8v71.6h1126l-1.2-177.8-62.7-1.1-51.5 1.1v-34.9l-39.4-11.3h-71.9l-40.4 10.4v58.6h-91.3v-13.3l-14.3-.2v-45.7l-2.9-6.3h-8.5v-16H897V257h-43.9v12.7l-5.3.1v14.6l-12.1.2-1.9 70.6h-25.4v96.2l-134.8 1.3v-39.3h-9.5v-7.3l-12.1-4.9v-16.9l-3.8-.9V377l-32.8.2v-38.9l-9.2.5v-6.4s-11.6-11.2-27.7-13.6l-9.8.2v-9.5l-83.5 1.2v3.4l-12.9.6-12.5 6.2-1.5 71.1-128 .9v2.4l11.8.1.5 14.6h-7.3l.6 35.8-101.5.6v26.2H221v-7.3l-21-.7v-11.3l-26.7-.7v-18.9l-14.4.1z" fill="#7DA2B4"/><path d="M1283.8 329h-49.6v176.4h49.6V329z" fill="#B8CCDA"/><path d="M1284.5 344.6h-3.7v104.2h3.7V344.6z" fill="#7DA2B4"/><path d="M1108.4 299.6h-42v4.5h42v-4.5zM1108.4 307.2h-42v4.5h42v-4.5zM1108.4 315h-42v4.5h42V315zM1108.4 323h-42v4.5h42V323zM1108.4 330.5h-42v4.5h42v-4.5zM1108.4 337.3h-42v4.5h42v-4.5zM1108.4 344h-42v4.5h42V344zM1104.8 359.3h-8.9v3.8h8.9v-3.8zM1104.8 366.1h-8.9v3.8h8.9v-3.8zM1118.4 366.1h-8.9v3.8h8.9v-3.8zM1118.4 359.4h-8.9v3.8h8.9v-3.8zM1104.8 374h-8.9v3.8h8.9V374zM1104.8 380.8h-8.9v3.8h8.9v-3.8zM1118.4 380.8h-8.9v3.8h8.9v-3.8zM1118.4 374.2h-8.9v3.8h8.9v-3.8zM1104.8 389h-8.9v3.8h8.9V389zM1104.8 395.8h-8.9v3.8h8.9v-3.8zM1118.4 395.8h-8.9v3.8h8.9v-3.8zM1118.4 389.2h-8.9v3.8h8.9v-3.8zM1104.8 404.3h-8.9v3.8h8.9v-3.8zM1104.8 411.1h-8.9v3.8h8.9v-3.8zM1118.4 411.1h-8.9v3.8h8.9v-3.8zM1118.4 404.5h-8.9v3.8h8.9v-3.8zM1104.8 418.7h-8.9v3.8h8.9v-3.8zM1104.8 425.5h-8.9v3.8h8.9v-3.8zM1118.4 425.5h-8.9v3.8h8.9v-3.8zM1118.4 418.9h-8.9v3.8h8.9v-3.8zM1104.8 433h-8.9v3.8h8.9V433zM1104.8 439.8h-8.9v3.8h8.9v-3.8zM1118.4 439.8h-8.9v3.8h8.9v-3.8zM1118.4 433.2h-8.9v3.8h8.9v-3.8z" fill="#ADADAD"/><path d="M1144.7 363.3h-8.3v142.1h8.3V363.3zM1023 356.3h-98.8v149.1h98.8V356.3zM915.6 356.5h-44.5v148.9h44.5V356.5zM1223.1 328.5h-46.7v176.9h46.7V328.5zM833 359.4h-24.6v146H833v-146zM895 258.1h-23.9V270H895v-11.9zM900.8 272.4h-23.7v12.5h23.7v-12.5zM907.7 290.6H889v58.8h18.7v-58.8zM924.2 339.5H914v10.7h10.2v-10.7zM1118.4 293.5h-52v211.9h52V293.5zM785.5 458.1H676.1v47.3h109.4v-47.3zM668.4 417.5h-19.5v87.9h19.5v-87.9zM641.7 381.1h-23.3v22.3h23.3v-22.3zM632.6 411.3H611v94.1h21.6v-94.1zM473.9 505.4l-.8-190.1-12.9 6.3v183.8h13.7z" fill="#B8CCDA"/><path d="M460.2 398.2H347.3v12.4h112.9v-12.4zM446.2 414.9h-36.5v90.5h36.5v-90.5zM585.3 319.1h-16.5v186.3h16.5V319.1zM606.2 338.9h-7.3v166.5h7.3V338.9zM388.1 413h-40.8v92.4h40.8V413zM328.5 446.6h-94.1v58.8h94.1v-58.8zM216.5 464.8H200v40.6h16.5v-40.6zM174.5 433.8h-15.6v71.6h15.6v-71.6z" fill="#B8CCDA"/><path d="M322.4 358.8V331l-10.2-.8v-7.4l-7-.2v-8.4h-67.1v7.1l-4.8.4v7.6h-9.5v29.1l-6.2.8v95.2l-53 .1v-6.6l-5.7.1v57.4H338V359l-15.6-.2z" fill="#B8CCDA"/><path d="M173.6 454.5h-10.2v50.9h10.2v-50.9zM261.3 359.3h-44.1v146.1h44.1V359.3zM275.3 329.8h-43.9v29.5h43.9v-29.5zM282 322.5h-45.2v7.3H282v-7.3zM285.8 315h-42.9v7.5h42.9V315zM269 505.4h429.1v-80.1h-5.5V418l-12.1-4.9v-16.9l-3.8-.9v-6.4l-32.8.2v-38.9l-9.2.5v-6.4s-11.6-11.2-27.7-13.6l-9.8.2v-9.5l-83.5 1.2v3.4l-12.9.6-12.5 6.2-1.5 71.1-128 .9v2.4l11.8.1.5 14.6h-7.3l.6 35.8-95.3.6v47.1h-.1z" fill="#7DA2B4"/><path d="M696.9 429.3h-19.5v76.1h19.5v-76.1zM670.1 392.9h-23.3v22.3h23.3v-22.3zM661 423.2h-21.6v82.2H661v-82.2zM502.3 505.401l-.8-178.3-12.9 6.3v172h13.7zM488.6 410.101H375.7v12.4h112.9v-12.4zM474.7 426.7h-36.5v78.7h36.5v-78.7zM613.7 330.9h-16.5v174.5h16.5V330.9zM634.6 350.7h-7.3v154.7h7.3V350.7zM416.5 424.8h-40.8v80.6h40.8v-80.6zM357 458.4h-88v47h88v-47z" fill="#B8CCDA"/><path d="M41.1 517.6l2.5 45.2 14.9-9v-36.2H41.1zM114.7 509.6l2.5 45.2 14.8-9v-36.2h-17.3z" fill="#4E4E57"/><path d="M111.1 507.2c-22.8 1.7-45.5 3.9-67.9 6.6-64 7.7-126.2 19.4-185 34.9-100.3 26.3-156.6 54.7-157.2 55l3.6 7.1c.5-.3 56.1-28.3 155.6-54.4 91.9-24.1 240.9-51.4 429-44.4l.2-4.7H111.1v-.1z" fill="#4E4E57"/><path d="M550.5 507.2H224.1C-103.4 534.6-248.7 623.6-286 650.6h881.4c-92.5-99.1-54.1-136.6-44.9-143.4z" fill="#4E4E57"/><path d="M-14.6 528l2.6 46 14.8-9v-44.6l-17.4 7.6z" fill="#4E4E57"/><path d="M376 507.2h-21.5c-4.3.6-8.9 1.2-13.7 1.9.2.8.3 1.6.3 2.4 13.6-2 25.6-3.4 34.9-4.3zM271.5 526.2c20.1-5.6 39.9-9.7 57.6-12.7-.3-.8-.4-1.6-.4-2.4-17.7 3-37.6 7.1-57.7 12.8.3.7.4 1.5.5 2.3zM145.2 592.8c-14.8 17.2-24 36.5-27.2 57.6l2.4.4c3.4-21.9 13-40.4 26.6-56.1-.7-.5-1.3-1.2-1.8-1.9zM155.6 585.5c12.1-11.7 26.5-21.7 41.8-30.1-.5-.7-.8-1.5-1-2.3-9.4 5.1-18 10.6-25.8 16.4-6.1 4.5-11.7 9.3-16.8 14.2.8.5 1.4 1.1 1.8 1.8zM208.4 549.7c16.9-8.3 34.6-14.9 51.5-20.1-.4-.7-.6-1.5-.7-2.3-19.1 5.9-36.4 12.6-51.8 20.2.4.6.8 1.4 1 2.2zM261 507.2c-33.8 2-67.6 5.6-101.1 10.7-48.9 7.4-97.4 17.9-145.2 31-47.8 13-94.9 28.6-141.1 46.4-23.1 8.9-46 18.4-68.6 28.5-11.3 5-22.6 10.2-33.7 15.6-6.4 3.1-12.8 6.3-19.2 9.5h13.6c2.7-1.4 5.5-2.8 8.2-4.1 11.1-5.5 22.2-10.8 33.4-15.9 22.4-10.3 45.1-20 68.1-29.1 45.9-18.2 92.7-34.2 140.2-47.8 47.5-13.5 95.8-24.5 144.6-32.5 36-5.9 72.3-10 108.8-12.3h-8zM534.2 585.7c-2.9-6.4-5.3-13.1-7.1-19.9-1.8-6.8-2.8-13.8-2.9-20.9-.1-7 .8-14.1 3-20.8 1.1-3.4 2.5-6.6 4.2-9.7 1.5-2.6 3.1-5 5.1-7.2h-.1c-2 2.1-3.7 4.6-5.3 7.1-1.8 3.1-3.3 6.3-4.5 9.7-2.4 6.7-3.5 13.9-3.6 21-.1 7.2.8 14.3 2.4 21.3 1.6 7 3.9 13.8 6.6 20.4 5.5 13.2 12.7 25.6 20.8 37.4 6.2 9 12.9 17.6 19.9 26h6.1c-8.2-9-16-18.3-23.1-28-8.2-11.5-15.7-23.5-21.5-36.4z" fill="#FCFAFA"/><path d="M1973.1 647.8c-36.1-26.1-173.4-110.4-479.3-140.6H1140c12 11.7 35.5 50.9-48.3 140.6h881.4z" fill="#4E4E57"/><path d="M1829 545.9c-58.8-15.4-121.1-27.2-185-34.9-11.6-1.4-23.4-2.7-35.1-3.8H1398l.1 1.9c188.1-6.9 337.1 20.3 429 44.4 99.4 26.1 155 54.1 155.6 54.4l3.6-7.1c-.7-.2-57-28.6-157.3-54.9z" fill="#4E4E57"/><path d="M1346.2 507.2h-10.7c3.4.5 6.9 1 10.6 1.5 0-.5 0-1 .1-1.5zM1415.7 523.4c-20.1-5.6-39.9-9.7-57.6-12.7.3-.8.4-1.6.4-2.4 17.7 3 37.6 7.1 57.7 12.8-.3.7-.5 1.5-.5 2.3zM1542 590c14.8 17.2 24 36.5 27.2 57.6l-2.4.4c-3.4-21.9-13-40.4-26.6-56.1.7-.5 1.3-1.2 1.8-1.9zM1531.6 582.8c-12.1-11.7-26.5-21.7-41.8-30.1.5-.7.8-1.5 1-2.3 9.4 5.1 18 10.6 25.8 16.4 6.1 4.5 11.7 9.3 16.8 14.2-.8.4-1.4 1-1.8 1.8zM1478.8 546.9c-16.9-8.3-34.6-14.9-51.5-20.1.4-.7.6-1.5.7-2.3 19.1 5.9 36.4 12.6 51.8 20.2-.4.6-.8 1.4-1 2.2zM1882.2 620.9c-22.6-10.1-45.5-19.6-68.6-28.5-46.2-17.8-93.3-33.3-141.1-46.4-47.8-13-96.2-23.5-145.2-31-21.3-3.2-42.7-5.9-64.1-7.9h-9.1c24.4 2.3 48.8 5.5 73 9.5 48.8 7.9 97 19 144.6 32.5 47.5 13.5 94.3 29.5 140.2 47.8 22.9 9.1 45.7 18.8 68.1 29.1 11.2 5.1 22.4 10.4 33.4 15.9 2.7 1.4 5.5 2.7 8.2 4.1h13.6c-6.4-3.2-12.8-6.4-19.2-9.5-11.2-5.4-22.4-10.6-33.8-15.6zM1156 511.5c-.9-1.5-1.9-2.9-2.9-4.3h-.2c1 1.4 2 2.9 2.8 4.4 1.7 3.1 3.1 6.3 4.2 9.7 2.2 6.7 3.1 13.8 3 20.8-.1 7-1.2 14-2.9 20.9-1.8 6.8-4.2 13.4-7.1 19.9-5.8 12.9-13.3 24.9-21.6 36.3-7.1 9.8-14.9 19.1-23.1 28h6.1c7-8.3 13.8-17 19.9-26 8.1-11.8 15.3-24.2 20.8-37.4 2.7-6.6 5-13.4 6.6-20.4 1.6-7 2.5-14.1 2.4-21.3-.1-7.1-1.2-14.3-3.6-21-1-3.3-2.5-6.5-4.4-9.6z" fill="#FCFAFA"/><path d="M1076.3 507.6H595.9c-11.9 14.2-36.2 60.1 50.9 141.1l393.1 2c.1.1 88.9-105.3 36.4-143.1zM1764.7 380.7c110.3 3.5 179.6 6.7 181 6.8l.1-3c-3.1-.1-314-14.8-673.1-15.1-210.9-.2-396.9 4.6-552.8 14.1-189.8 11.6-335.3 30.3-432.7 55.8V443.1c-72.1-2.9-153.6-4.3-243.1-4.3-52.6 0-103.4.6-149.6 1.4-83.9 1.5-153.1 3.8-191.8 5.2v1.6c17-.6 39.9-1.4 67.4-2.3V460c-22 1.5-44.4 3.2-67.4 5v29.4l2.9.8v12.2h22.2v-7.6h6v-11c34.7-3.2 82-7.1 138.9-10.4v1.8l10.3 2.7v24.6h22.2v-20h6V476c59.3-3.1 126.9-5.4 200.1-6.1v3.7l8.6 2.2v31.4h18.5v-27.5h5v-10c43.8-.1 89.3.5 136 1.8v3.6l8.3 2.1v29.9h17.9V481h4.8v-8.3c.3 0 .7-.1 1-.1 24 .9 48.4 2.1 72.9 3.5v2.5l6.7 1.7v26.9h14.5v-23.9h3.9v-5.7c19.7 1.3 39.4 2.7 59.3 4.3v25.3h23.9v-16.9h3.4v-6c15.4 1.4 30.9 2.9 46.4 4.5v3l5.2 1.3v14h11.3v-11.7h3V491c10.5 1.2 54 6.5 64.6 7.8l1-7.5-34-6.3v-9.6c-24.9-6.1-55.5-11.5-91.4-16.2v-6.9c38.8-3.4 77.5-6.4 115.9-9v10.9h7v53h26v-58.7l12-3.3v-4.8c44.6-2.7 88.9-4.9 132.6-6.6v16.1h8.6v57.4h32.1v-64.4l14.8-4.1v-6.9c83.8-2.6 165.5-3.7 244.1-3.5v19h8.9v59.9h33.2V440l15.4-4.2v-7.1c131.3 1.3 252.8 5.8 359.1 11.6v21.3h10.7v45.7h39.8v-54.5l18.4-5v-3.4c102.1 6.4 187.1 13.8 249.3 19.8v20.9h10.7v22.2h39.8v-30.9l18.4-5c30.6 3.4 47.1 5.5 47.1 5.5v-52.4c-62.2-5.6-122.5-10.5-181.1-14.7v-29.1h-.2zm-3.1 28.8c-76.4-5.5-149.8-9.9-220.2-13.4v-20.9c83 1.5 158 3.5 220.2 5.5v28.8zm-445.3-21.6v-15.4c78.1.3 153.3 1.3 222.9 2.5v21c-77.9-3.8-152.1-6.5-222.9-8.1zm-267.8-13.6v12.5c-58.5.9-114 2.5-166.4 4.7v-12.6c55.6-2.1 111.4-3.6 166.4-4.6zM877.3 379v12.6c-59.2 2.6-114.6 5.9-166.2 9.8v-14.2c54.3-3.4 110.1-6.1 166.2-8.2zm-378.9 81.5c8.1 1 16.1 2.1 23.8 3.2v9.3c-9.8-1.4-20.1-2.9-30.9-4.2v-6.3l7.1-2zm-36.1 4.7c-7.1-.8-14.3-1.6-21.7-2.4v-4.7c6.6-.7 13.2-1.3 19.8-1.9.6.1 1.3.1 1.9.2v8.8zm-173-13.7v-6.8c17.1.7 34 1.5 50.8 2.4-10.1 1.9-19.9 3.7-29.3 5.5-7-.4-14.2-.7-21.5-1.1zm125.7-17v-17.6c45.2-7 94.5-12.9 146.5-17.9v16.3c-54.3 6-103 12.5-146.5 19.2zm150.4-35.9c45.8-4.4 93.7-8.1 142.9-11.2v14.2c-51.3 3.9-98.9 8.4-142.9 13.2v-16.2zm-276.1 43.3c35.7-9.3 76.9-17.3 122.1-24.4v17.6c-22.9 3.6-44.2 7.1-64.2 10.7-18.6-1-37.9-2-57.9-2.8v-1.1zm-2 9.5c-7.4-.4-15-.7-22.7-1v-6.7c7.6.3 15.1.6 22.7.9v6.8zm-25.3-1.1c-29.2-1.2-60.1-2-92.7-2.5v-6.6c30.6.5 61.7 1.3 92.7 2.4v6.7zm-242-10v8.1c-39.4.8-80.8 2.2-124.2 4.2v-11c38.8-.6 80.7-1.1 124.2-1.3zm-248.1 4.3c34.7-1 76.4-2.1 122.7-2.9v11c-39.2 1.8-80.1 4.2-122.7 7.1v-15.2zm249.2 3.8v-8.1c7.7 0 15.4 0 23.2-.1h6.1c37.1 0 76.6.3 117 1v6.6c-45.4-.6-94.1-.5-146.3.6zm417.4 10v4.3c-6.9-.7-14-1.4-21.3-2.1 7.1-.8 14.2-1.5 21.3-2.2zm153.8 26.4c-19.3-3.8-42-7.7-68-11.5V464c25.2 3.7 48.1 8 68 12.8v8zm459.5-98.1v-12.5c72.5-1.3 143.4-1.8 210-1.8h11c14 0 27.8 0 41.6.1v15.4c-93.7-2.1-181.1-2.3-262.6-1.2z" fill="#4E4E57"/></svg>