<svg width="1600" height="600" fill="none" xmlns="http://www.w3.org/2000/svg" viewBox="0 0 1600 600"><path fill-rule="evenodd" clip-rule="evenodd" d="M1600 0H0v600h1600V0z" fill="#EDDCCE"/><path fill-rule="evenodd" clip-rule="evenodd" d="M896 220.4c75.4 0 136.5 60.5 136.5 135s-61.2 135-136.5 135-136.5-60.5-136.5-135 61.1-135 136.5-135z" fill="#FFEFE0"/><path fill-rule="evenodd" clip-rule="evenodd" d="M-176 494.7s30.2-119.5 75-125.7c13-1.8 7.9 41.2 43.4 38.2 22.1-1.9 47.1 9.2 73.8 5.9 11.8-1.5 15.6 14.2 47.6.6 13.2-5.6 38.6-2.8 47.2 1.4 29.1 14.4 30.8.6 71 5.9 10.2 1.3 56.2-4.8 70.8-1.6 19.1 4.2 32-4.4 47.6-4.3 15.5.1 36.3 1.4 51.4-9 8.8-6.1 24.2-5.5 36.7-3.2 8.2 1.5 19.9-.9 27.4 1.7 34.2 11.7 72.1 16.6 90 19.5 50.6 8.3 128.5 10.5 181.6-2.3 18.2-4.4 24.1-11.8 22.7-21.6-1.6-11.4 5-14 24.2-9.3 8.5 2.1 31-8 49.6-3 4.3 1.2-7.3 13.8-4.1 17.2 9.1 9.6 15.8 25.2 30.3 28.3 14.6 3.1 32.5 2.1 49.2-2.4 7-1.9 13.8 2.1 19.6 1 1.9-.4 4.3-1.1 6-1.8 1.7-.8 4.3-2.8 5.2-1.3 1 1.8 4.2 3.1 6.1 3.5 13.9 3.1 28.5-9.7 43.7-3.9 5.8 2.2 15.5 9.6 22 11.6 54.8 17.3 130.8 24.1 190.2 17.4 87-9.9 149.3-43.7 200.5-47.5 51.2-3.8 91.1-4.9 162.4-1 12.6.7 46.8 7.5 60.9 7.6 134.5 1.6 310.5-22.9 383.3 13.3 94.2 46.8-29.7 321.6-143.8 355.5-114.1 33.8-469.6 39-548.5 44.8-78.9 5.8-618.6-21.4-727.6-20.7-109 .7-368.1 4.9-430.5.9-62.4-4-147.5-11.6-208.8-47.8-61.3-36.2-115.5-186-128.9-238.3C-242 472-176 494.7-176 494.7z" fill="#F29161"/><path fill-rule="evenodd" clip-rule="evenodd" d="M-75.8 413.5c1.1-5 7.9-9.4 9.5-14.5 1.7-5.2-.6-13.5.4-16.5.7-2.1 4.4-2.2 5.6-1.6 1.2.6.5 3.9 1.4 5.4 1 1.5 3.5 4.2 4.3 3.7.7-.6-.5-4.9.2-7 .7-2.1 3.6-3.3 3.8-5.7.5-6.7-1.2-28.6-.5-34.4.2-1.9 3.6.8 4.8-.5 1.2-1.3 2.5-4.8 2.6-7.5.3-8.3-1.8-34.9-1-42.3.3-2.4 5.4 0 5.9-2.4 1.2-5.7.2-26.2 1-31.9.3-1.9 3-1.7 4.3-2.6 1.3-.9 3.4-4.8 3.7-3.1.6 4.1-.8 22.3.1 27.8.4 2.5 4.8 2.4 5 4.9.7 8.7-1.8 39-1.1 47.4.2 2.4 4.4 1.2 5.6 3.2 1.2 2.1 0 7.7 1.6 9.3 1.5 1.6 6 1.5 7.5.6s1.2-4.1 1.3-6.2c.3-8.6-1.7-37.3.2-45.2 1-4.2 8.9-.8 11-2.2 1.6-1 .9-4.9 1.9-6.1 1-1.2 3.9.8 4.3-.9.5-2.5-1.8-11.9-1-14.4.7-2.1 5.5-2.5 5.8-.3 1.4 10 1.4 49.6 2.5 60.3.2 2 3.5 5.5 4.2 3.7.6-1.8-1.6-11.9-.5-14.4s6.6-3.6 7.3-.8c1.3 5-.6 25.3.2 30.8.3 2 4.2.3 4.9 2.2 1.1 2.8 1.4 9.6 1.6 14.4.2 5.2-1.7 12.1-.4 16.6 1.3 4.5 7 6 8.4 10.6 1.9 6.4.5 21.7 3.1 28 2.2 5.3 14.9 5.5 12.6 9.6-2.3 4.1-16.7 12.6-26.3 15-11.1 2.7-26.9 2.9-40.2 1.2-13.7-1.7-31.4-8.2-41.9-11.3-7.1-2.1-17.1-3.6-21.1-7.4-3.4-3.4-3.7-10.5-2.6-15.5zM359 407.8s.9-28.9 1.5-35c.1-1 1.6-2.4 1.9-1.5.3.9-.2 5.3 0 6.8.1.9 1.1 1.2 1.2 2.1.2 1.8-.4 6.4.1 8.7.4 2 2.2 7.1 2.6 5.1.5-2.1 0-14.4.2-17.7.1-.9 1-1.5 1-2.5.1-3.1-.7-13.2-.5-16.2.1-1.2 1.3-1.8 2.1-2.3 1.9-1 7.3-3.4 9-3.6.8-.1.6 2.9 1.2 2.7.6-.1 1.1-3.2 2.2-3.5 1.1-.3 3.9-.4 4.3 1.6.8 3.9 0 17.7.6 21.7.2 1.5 2.3 4 2.7 2.6.6-2 .3-12 .9-14.7.2-1.2 2.1-3 2.2-1.9.3 2-.5 10.9-.4 14.1.1 1.7 1.1 3.1 1.1 4.8.1 3.9-.4 14.9-.2 18.4.1 1 1.4 1.4 1.4 2.4 0 3 2.7 14.8-1.1 15.7-5.8 1.2-34-7.8-34-7.8zM922.2 438.7c-8.7 2.9-24.5 7.9-28.7 6.8-3.9-1-1.2-14.7-1.1-18.2 0-1.2 1.3-1.6 1.4-2.8.2-4-.4-16.8-.2-21.3.1-1.9 1.1-3.6 1.1-5.5.1-3.6-.7-13.9-.4-16.3.2-1.4 2.1.8 2.3 2.2.5 3.2.3 14.8.9 17.1.4 1.6 2.6-1.3 2.8-3 .6-4.7-.2-20.7.6-25.2.4-2.3 3.3-2.2 4.4-1.8 1.1.4 1.6 4 2.2 4.1.6.2.4-3.3 1.2-3.2 1.7.2 7.2 3 9.1 4.1.9.5 2.1 1.2 2.2 2.6.3 3.6-.6 15.2-.5 18.8 0 1.1 1 1.8 1 2.9.2 3.9-.2 18.1.3 20.6.2 1 .6.5 1.1-.6.1-4.2-.1-10.6 0-12.8.1-.9 1-1.4 1-2.3.1-2.9-.8-12.2-.5-15 .1-1.1 1.3-1.7 2.2-2.1 1.9-.9 7.4-3.2 9.1-3.3.8-.1.6 2.7 1.2 2.5.6-.1 1.1-3 2.2-3.3 1.1-.3 4-.3 4.4 1.5.8 3.6.1 16.3.6 20.1.2 1.4 2.4 3.7 2.8 2.4.6-1.9.3-11.1.9-13.6.2-1.1 2.1-2.8 2.3-1.7.3 1.9-.5 10.1-.4 13 .1 1.5 1.1 2.9 1.1 4.4.1 3.6-.4 13.8-.2 17 .1.9 1.4 1.3 1.4 2.2 0 2.8 2.7 13.7-1.1 14.5-4.1.8-17.7-2.4-26.7-4.8zM1313.9 405.6s.2-4.9 2.6-5.6c3.8-1.1 16 .2 20.3-.8 2.8-.7 5.4-2.9 5.8-5.2 1.5-9.1 1.2-40.6 2.9-49.1.4-2 6.8-3.7 7.4-1.7 1.4 4.8.7 22.8 1.3 30.4.4 5-.7 12.2 2 15 2.8 2.8 13.1 5.6 14.6 2 2.1-5.2-3.1-22.1-2-33.1 1.6-14.5 7.6-44.9 11.3-54.1 1.1-2.7 7.7-.1 10.8-1.1 3.1-1 4.5-4.9 7.8-4.8 7.2.2 28.3 4.4 35.4 6 2.8.6 4.7 2.7 7.4 3.6 3.2 1 10.4-.4 11.7 2.5 2.8 6.9 3.8 31.3 5.2 38.7.4 2 3 3.6 3.2 5.6.4 6.1-2.2 24.8-.7 30.9.8 3.2 7.3 5.9 9.8 6.1 2.5.2 5.1-3 5.3-5.1.6-7.5-2.4-33.6-1.6-40 .2-1.7 6-.5 6.5 1.1 1.8 7 2.4 34.4 4.2 40.6.6 2 5.8-1.4 6.5-3.4.9-2.8-2.1-11-1.1-13.4.7-1.8 6.3-2.6 7.1-.8 1.2 2.6-1.8 11.2.2 16.5 2.1 5.3 17.8 11.2 12.2 15.4-8.6 6.4-64 23.2-64 23.2l-74.9-.9-57.2-18.5zM726.7 398.1s4.5-70.8 2.6-88.5c-.4-4 8.7 0 10.6 1.7 2 1.8-.8 6.8 1.1 8.8 2.2 2.3 13.2.3 12.3 5.1-2.4 13.7 5.3 71.5 5.3 71.5l-31.9 1.4zM763.8 393.5c3.1 0 3.8-48.8.2-59.5-.8-2.3 2.6-1.8 3.9-2.8.7-.5.9-2.5 1.9-3.1.8-.4 2.3-.5 2.7-.1 1.4 2 .4 7.1.7 13.8.6 14.7 1.2 36.2 2.2 43.2.5 3.2 6 4.2 6 4.2l-17.6 4.3z" fill="#F29161"/><path fill-rule="evenodd" clip-rule="evenodd" d="M730.2 395.8c-3.1.3-8.8-48.2-6.3-59.2.5-2.3-2.8-1.6-4.2-2.4-.8-.4-1.1-2.4-2.3-2.9-.8-.4-2.4-.3-2.7.2-1.2 2.1.4 7.1.8 13.8.9 14.7 2.6 36.2 2.3 43.2-.1 3.2-5.5 4.7-5.5 4.7l17.9 2.6z" fill="#F29161"/><path fill-rule="evenodd" clip-rule="evenodd" d="M1175.7 440.4c1-2-.1-7.5.4-8.9.3-.9 2.6.4 2.7 1.1.3 1.8.6 7.3-.7 9.5-1.3 2.2-7 3.9-7 3.9l-1.3-2.3s4.9-1.3 5.9-3.3zM1164.2 436.7c-1-1.9-.8-6.1-.6-7.4.1-.6 2-1.6 2.2-.9.4 1.1-.5 5.4.3 7.1.8 1.7 4.6 3.3 4.6 3.3l-1.3 1.7c0-.1-4.2-2-5.2-3.8z" fill="#F16220"/><path fill-rule="evenodd" clip-rule="evenodd" d="M1173.4 424.6c-.4-2.4-4.5-.4-4.9 1.9-.8 5 1 28.8 1 28.8h3.2s1.4-25.9.7-30.7zM1388.7 444.1c1.4-2.6-.1-9.8.5-11.6.4-1.2 3.4.5 3.5 1.4.4 2.3.8 9.5-.9 12.4-1.7 2.9-9.1 5.1-9.1 5.1l-1.7-3c.1 0 6.4-1.7 7.7-4.3zM1373.8 439.3c-1.2-2.4-1.1-7.9-.7-9.6.2-.7 2.6-2 2.9-1.1.5 1.5-.7 7 .4 9.2 1 2.2 5.9 4.3 5.9 4.3l-1.7 2.2c0-.1-5.5-2.6-6.8-5z" fill="#F16220"/><path fill-rule="evenodd" clip-rule="evenodd" d="M1385.7 423.6c-.5-3.1-5.9-.6-6.4 2.5-1.1 6.5 1.3 37.5 1.3 37.5h4.2c0-.1 1.8-33.8.9-40zM1580 384.4c.9-1.5-.1-5.5.3-6.6.2-.7 2.1.3 2.3.8.3 1.3.5 5.4-.6 7-1.1 1.6-5.8 2.9-5.8 2.9l-1.1-1.7c0 .1 4-.9 4.9-2.4zM1570.4 381.7c-.8-1.4-.7-4.5-.5-5.5.1-.4 1.7-1.2 1.9-.6.3.8-.4 3.9.2 5.2.6 1.2 3.8 2.4 3.8 2.4l-1.1 1.2c0 .1-3.5-1.3-4.3-2.7z" fill="#F16220"/><path fill-rule="evenodd" clip-rule="evenodd" d="M1578 372.8c-.3-1.8-3.8-.3-4.1 1.4-.7 3.7.9 21.2.9 21.2h2.7s1.1-19 .5-22.6zM1164.6 446.4c.7-1.2-.1-4.2.2-5 .2-.5 1.7.2 1.7.6.2 1 .4 4.1-.4 5.4-.8 1.3-4.5 2.2-4.5 2.2l-.8-1.3c.1-.1 3.2-.8 3.8-1.9zM1157.3 444.3c-.6-1.1-.5-3.5-.4-4.2.1-.3 1.3-.9 1.4-.5.2.6-.3 3 .2 4 .5.9 2.9 1.9 2.9 1.9l-.9.9c.1 0-2.6-1.1-3.2-2.1z" fill="#F16220"/><path fill-rule="evenodd" clip-rule="evenodd" d="M1163.1 437.4c-.2-1.4-2.9-.2-3.2 1.1-.5 2.8.7 16.3.7 16.3h2.1s.9-14.6.4-17.4zM833.6 456.2c.9-1.7-.1-6.4.3-7.6.3-.8 2.3.3 2.4.9.3 1.5.5 6.2-.6 8.1-1.1 1.9-6.2 3.3-6.2 3.3l-1.2-2c.1.1 4.4-1 5.3-2.7zM823.5 453c-.8-1.6-.7-5.2-.5-6.3.1-.5 1.8-1.3 2-.7.3 1-.5 4.5.3 6 .7 1.4 4 2.8 4 2.8l-1.2 1.4s-3.8-1.6-4.6-3.2z" fill="#F16220"/><path fill-rule="evenodd" clip-rule="evenodd" d="M831.5 442.8c-.3-2-4-.4-4.4 1.6-.7 4.3.9 24.4.9 24.4h2.8c.1.1 1.4-21.9.7-26zM394.8 456.3c1-1.9-.1-7.2.4-8.5.3-.9 2.6.4 2.7 1.1.3 1.7.6 7-.7 9.1-1.3 2.1-7 3.7-7 3.7l-1.3-2.2c0-.1 4.8-1.3 5.9-3.2zM383.3 452.7c-1-1.8-.8-5.8-.6-7.1.1-.6 2-1.5 2.2-.8.4 1.1-.5 5.1.3 6.8.8 1.6 4.5 3.2 4.5 3.2l-1.3 1.6c.1-.1-4.1-1.9-5.1-3.7z" fill="#F16220"/><path fill-rule="evenodd" clip-rule="evenodd" d="M392.4 441.2c-.4-2.3-4.5-.4-4.9 1.9-.8 4.8 1 27.5 1 27.5h3.2c.1 0 1.4-24.8.7-29.4zM86.3 463.2c1-1.8-.1-6.8.3-8.1.3-.8 2.4.3 2.6 1 .3 1.6.6 6.6-.6 8.6s-6.6 3.5-6.6 3.5l-1.2-2.1c-.1 0 4.6-1.1 5.5-2.9zM75.5 459.8c-.9-1.7-.8-5.5-.5-6.7.1-.5 1.9-1.4 2.1-.8.4 1-.5 4.8.3 6.4.7 1.5 4.3 3 4.3 3l-1.3 1.5s-4-1.7-4.9-3.4z" fill="#F16220"/><path fill-rule="evenodd" clip-rule="evenodd" d="M84.1 448.9c-.3-2.2-4.3-.4-4.7 1.8-.8 4.5 1 26.1 1 26.1h3c.1-.1 1.4-23.6.7-27.9z" fill="#F16220"/><path fill-rule="evenodd" clip-rule="evenodd" d="M982 420.7s1.7-45.6 2.8-55.2c.2-1.5 2.9-3.7 3.5-2.4.6 1.4-.4 8.4-.1 10.7.2 1.4 2 1.9 2.2 3.2.4 2.8-.7 10.1.2 13.7.7 3.2 4 11.2 4.9 8.1.9-3.3.1-22.7.5-28 .1-1.5 1.8-2.4 1.9-3.9.2-4.9-1.4-20.7-.9-25.6.2-1.9 2.4-2.9 4-3.6 3.4-1.5 13.4-5.4 16.6-5.6 1.4-.1 1.1 4.5 2.2 4.3 1-.2 2-5.1 4-5.6s7.2-.6 7.9 2.5c1.5 6.1.1 27.9 1.1 34.3.4 2.4 4.3 6.4 5.1 4.1 1.1-3.2.6-18.9 1.6-23.3.4-1.8 3.8-4.8 4.1-3 .6 3.2-1 17.2-.8 22.2.1 2.6 1.9 4.9 2.1 7.5.3 6.1-.8 23.5-.4 29 .1 1.6 2.5 2.2 2.5 3.8.1 4.7 5 23.3-2.1 24.7-11 2.3-62.9-11.9-62.9-11.9zM174.4 455.7s-1.6-53.2-2.5-64.4c-.2-1.8-2.7-4.4-3.2-2.7-.5 1.6.4 9.8.1 12.5-.2 1.6-1.8 2.2-2 3.8-.4 3.3.6 11.7-.2 15.9-.7 3.7-3.7 13.1-4.5 9.4-.8-3.9-.1-26.4-.4-32.6-.1-1.7-1.7-2.8-1.7-4.6-.2-5.7 1.3-24.2.8-29.9-.2-2.2-2.2-3.4-3.6-4.2-3.1-1.8-12.3-6.3-15.2-6.6-1.3-.1-1 5.3-2 5-.9-.2-1.9-5.9-3.7-6.5-1.8-.6-6.6-.6-7.3 2.9-1.4 7.1-.1 32.5-1 39.9-.3 2.7-3.9 7.4-4.6 4.8-1-3.7-.6-22-1.4-27.1-.4-2.1-3.5-5.6-3.8-3.4-.5 3.7.9 20.1.7 25.8-.1 3.1-1.8 5.7-1.9 8.7-.2 7.1.7 27.4.4 33.8-.1 1.9-2.3 2.6-2.3 4.4-.1 5.5-4.5 27.2 1.9 28.8 9.9 2.7 57.4-13.7 57.4-13.7zM446 457.5c-5.7-9.6 24.6-28.6 29.7-39.5 3.7-7.9-.1-21.5 1.2-26 .6-2 6.3 1.1 6.6-1 1.4-9.3.3-45.9 1.6-54.5.3-2.1 4 2.3 6.1 2.9 2 .6 5.9-1.2 6.3.8 1 4.8-.6 22.1-.2 28.2.2 2.9 2.8 5.4 2.7 8.2-.1 3.9-2.6 10-3.2 15.2-.7 5.7-1.6 14.3-.9 18.9.5 3.3 4.1 12.1 5.1 8.9 1-3.2.5-21.3.7-28.3.2-4.7.3-11.2.9-14.1.3-1.4 1.3-3 2.8-3.3 3-.5 10.6-.2 15.5.2 4.5.4 11.1-.7 13.5 2.6 2.4 3.2.2 11.2.7 16.7.5 6 1.5 12.7 2.1 19 .7 6.9 1.1 18.5 2.3 22.2.5 1.5 4.1 1.2 4.9-.2 1-1.7.7-6.6.9-9.9.4-5.6.7-18.1 1.4-23.5.4-3.1 1.8-8.4 2.9-9 1.2-.6 3.6 3.1 4.1 5.2.7 2.6-.1 7.1-.1 10.6 0 5.9-.4 18.1-.1 24.5.2 4.7.8 10.2 1.8 13.9.9 3.1 3 5.8 4.6 8.6 1.8 3.1 9.9 8.4 6.2 10-8.4 3.5-37.2 12.3-56.5 11.1-19.9-1.3-57.9-8.8-63.6-18.4z" fill="#ED6E3B"/><path fill-rule="evenodd" clip-rule="evenodd" d="M-81.5 514.4c10.2 14.1 81.6 5.8 140.1-35 10.9-7.6 33.8-6.5 43.7-11 8.4-3.8 10.8-11 19-14.2 13.2-5.1 32.2-6 45-13 11.5-6.3 45.1 9.1 80.3 4 22-3.2 25.2 20.5 47.3 23.1 11.8 1.4 30.7-8.2 41-1.5 12.3 8 36.2-3.6 51.1.8 31.3 9.3 53.2-28 96.4-38.5 10-2.4 13.7 16.9 28.5 19.4 19.4 3.4 50.6-6.7 66.2-7.5 26.1-1.3 64.1-18.4 95.3-14.1 8.3 1.1 5.5 14.3 13.3 16.6 34.8 10.5 74.3 18.9 92.3 21.1 51.1 6 129 4.1 181.2-12.3 17.9-5.6 23.4-13.8 21.4-24.1-2.3-12 4.1-15.1 23.6-11.2 8.6 1.7 30.5-10.2 49.3-5.9 4.4 1-6.5 15-3 18.5 9.7 9.7 17.3 25.9 31.9 28.3 26.1 4.4 62.5-9.9 85.8-5.7 14.1 2.5 27.8-11.8 43.4-6.5 5.9 2 16 9.3 22.7 11.1 31.7 8.7 50.9 4 94 1 13.4-.9 46.6-2.1 60.6-2.3 20.1-.3 39.5-.7 54.5-3.3 86.3-15.2 154.8-84 205.6-90.8 50.8-6.8 57.5-24.8 129.9-17.7 282.5 27.7 183.7 317.9 71.7 359.9-112 42.1-1308.2-49-1370.8-49.9-62.6-.7-633.8 32.2-650.3-22.4s89-116.9 89-116.9z" fill="#CC5A33"/><path fill-rule="evenodd" clip-rule="evenodd" d="M1210.1 500.6c1.2 0 2.4.1 3.6.3-2-.1-4 0-6 .5-1.9.4-3.7 1.1-5.3 2.1-1.3.8-2.6 1.7-3.7 2.8-.5.5-.9 1-1.4 1.5-.1.1-.1.1-.3.2-.3.1-.6.1-.9-.1-.1 0-.1-.1-.1-.1-.1-.1-.1-.1-.2-.3-.1-.3-.1-.6.1-.9.1-.1.1-.2.2-.3.5-.4 1-.9 1.5-1.3l.1-.1c1.2-1 2.5-1.8 4-2.5 1.7-.8 3.5-1.4 5.4-1.7 1-.1 2-.1 3-.1z" fill="#D24517"/><path fill-rule="evenodd" clip-rule="evenodd" d="M1182.3 500.4c.9 0 1.7.1 2.5.2 1.8.2 3.7.8 5.4 1.6 1.6.7 3.1 1.7 4.4 2.8l.1.1c.5.4 1.1.9 1.6 1.3.1.1.1.2.2.3.1.3.1.6-.1.8 0 .1-.1.1-.1.1-.1.1-.2.1-.3.2-.3.1-.6.1-.8-.1-.1 0-.1-.1-.1-.1l-.1-.1c-.4-.4-.8-.9-1.2-1.3-1.1-1.1-2.4-2-3.7-2.8-1.5-.9-3.2-1.6-4.9-2-2-.5-4-.7-6-.6h-.4c1-.2 2.2-.3 3.5-.4-.1 0-.1 0 0 0z" fill="#D24517"/><path fill-rule="evenodd" clip-rule="evenodd" d="M1210.3 503.5c1.6 0 3.3.1 4.9.3h.3c-2.1 0-4.3.1-6.4.4h-.1c-1.9.2-3.7.6-5.5 1.1h-.1c-1.5.4-3 1-4.4 1.6-.6.3-1.2.6-1.8 1-.2.1-.2.1-.4.1-.3 0-.6-.1-.8-.3 0 0-.1-.1-.1-.2-.1-.2-.1-.2-.1-.4 0-.3.1-.6.3-.8 0 0 .1-.1.2-.1 0 0 .1 0 .2-.1.6-.3 1.2-.5 1.8-.7 0 0 .2-.1.4-.1 1.4-.5 2.9-.9 4.4-1.2 1.9-.4 3.9-.6 5.8-.6h1.4z" fill="#D24517"/><path fill-rule="evenodd" clip-rule="evenodd" d="M1182.1 503.4h1.1c2 .1 3.9.3 5.8.6 1.6.3 3.3.8 4.8 1.3.7.2 1.4.5 2 .8.1.1.2.1.3.2.2.2.3.5.2.8 0 .1 0 .1-.1.2s-.1.2-.2.3c-.2.2-.5.3-.8.2-.1 0-.2-.1-.3-.1-.5-.3-1.1-.6-1.7-.9-1.5-.7-3-1.2-4.5-1.6-1.8-.5-3.7-.9-5.6-1.1h-.1c-2.1-.3-4.2-.4-6.3-.4 1.9-.2 3.7-.3 5.4-.3z" fill="#D24517"/><path fill-rule="evenodd" clip-rule="evenodd" d="M1208.5 497.6c.8 0 1.6.1 2.4.2-2-.1-4.1.2-5.9.9-1.6.6-3.1 1.6-4.3 2.8-1 1.1-1.9 2.4-2.6 3.8-.3.7-.5 1.3-.7 2-.1.1-.1.2-.2.3-.2.2-.5.3-.8.3h-.2c-.1-.1-.2-.1-.3-.2-.2-.2-.3-.5-.3-.8 0-.1.1-.2.1-.3.3-.6.6-1.2.9-1.7.1-.2.2-.3.3-.5.7-1.2 1.6-2.3 2.6-3.3 1.4-1.3 3.1-2.3 5-2.8 1.3-.5 2.7-.7 4-.7z" fill="#D24517"/><path fill-rule="evenodd" clip-rule="evenodd" d="M1183.9 497.5c1.3 0 2.5.2 3.7.5 1.8.5 3.5 1.5 4.9 2.7 1.3 1.1 2.3 2.5 3.1 4 .4.6.7 1.3.9 1.9 0 .2.1.2.1.4 0 .3-.2.6-.4.7-.1 0-.1.1-.2.1-.2 0-.2.1-.4.1-.3 0-.6-.2-.7-.4-.1-.1-.1-.2-.1-.3-.2-.5-.4-1.1-.6-1.6l-.3-.6c-.6-1.1-1.2-2.1-2.1-3.1-1.2-1.3-2.6-2.3-4.2-3-.8-.4-1.7-.6-2.6-.8-1.2-.2-2.4-.3-3.7-.3.9-.2 1.7-.3 2.6-.3z" fill="#D24517"/><path fill-rule="evenodd" clip-rule="evenodd" d="M1207.3 494.8h.5c-2 .1-3.9.9-5.4 2.1-.5.4-1.1.9-1.5 1.5-.7.8-1.4 1.8-1.9 2.8-.7 1.3-1.2 2.8-1.5 4.2-.1.6-.2 1.3-.3 1.9 0 .2 0 .2-.1.3-.2.2-.5.4-.7.4h-.2c-.2 0-.2 0-.3-.1-.2-.2-.4-.5-.4-.7v-.2-.2c.2-.6.3-1.2.5-1.8v-.1c.5-1.5 1.2-3 2-4.3 1-1.6 2.3-3 3.9-4 1.6-1.2 3.5-1.8 5.4-1.8z" fill="#D24517"/><path fill-rule="evenodd" clip-rule="evenodd" d="M1185.1 494.6c1.8 0 3.6.5 5.1 1.5 1.6 1 3 2.4 4.1 4 0 .1.1.1.1.2.3.4.5.8.7 1.3.5 1 1 2.1 1.3 3.2.2.7.4 1.3.6 2v.2c0 .3-.2.6-.4.7-.1.1-.2.1-.3.1h-.4c-.3-.1-.5-.3-.7-.6 0-.1-.1-.2-.1-.3-.1-.6-.2-1.2-.3-1.7-.3-1.4-.8-2.8-1.5-4.1v-.1c-.8-1.5-1.8-3-3.2-4.1-1.1-.9-2.4-1.6-3.7-2-.6-.2-1.3-.3-2-.3h.7z" fill="#D24517"/><path fill-rule="evenodd" clip-rule="evenodd" d="M1203.7 492.2h.3c-.3 0-.7.1-1 .2-.8.3-1.5.9-2 1.6-.5.6-.9 1.2-1.2 1.8-.8 1.6-1.4 3.3-1.8 5-.3 1.4-.5 2.9-.6 4.4v2.1c-.1.3-.3.5-.6.7-.2.1-.2.1-.4.1s-.2 0-.4-.1c-.3-.1-.5-.4-.5-.7v-.2-.2c.1-.9.2-1.8.3-2.8.2-1.2.5-2.4.8-3.5.6-1.8 1.4-3.6 2.4-5.2.8-1.2 1.8-2.3 3-2.9.6-.1 1.1-.2 1.7-.3z" fill="#D24517"/><path fill-rule="evenodd" clip-rule="evenodd" d="M1188.7 492.1c.8 0 1.7.4 2.3.9.9.6 1.6 1.5 2.2 2.4 1 1.5 1.8 3.3 2.4 5 .5 1.5.8 3 1 4.6v.1c.1.6.2 1.3.2 1.9 0 .2 0 .2-.1.4-.1.3-.4.5-.7.6h-.2c-.2 0-.2 0-.4-.1-.3-.1-.5-.4-.6-.7v-.4-1.7c-.1-1.5-.3-3-.6-4.4-.4-1.6-.9-3.2-1.6-4.6-.6-1.3-1.4-2.4-2.5-3.3-.6-.4-1.2-.7-1.9-.7h.5z" fill="#D24517"/><path fill-rule="evenodd" clip-rule="evenodd" d="M1199.3 490.9h-.1-.1c-.2.2-.4.4-.6.7-.4.7-.6 1.4-.7 2.1-.2.7-.3 1.3-.4 2-.3 1.7-.4 3.4-.5 5.1-.1 1.4-.1 2.9-.1 4.3 0 .6 0 1.2.1 1.8 0 .2 0 .2-.1.4-.1.3-.4.5-.7.5h-.2c-.2 0-.2 0-.4-.1-.3-.1-.5-.4-.5-.7v-.3c0-.6.1-1.2.1-1.7v-.1c.1-1.4.3-2.8.5-4.1.3-1.8.6-3.5 1.1-5.2.3-1.1.6-2.1 1.1-3.1.3-.6.5-1.1 1-1.5h.1c.2-.1.3-.1.4-.1.1 0 .1 0 0 0 .1 0 .1 0 0 0 0 0 .1 0 0 0z" fill="#D24517"/><path fill-rule="evenodd" clip-rule="evenodd" d="M1193.3 490.9c-.1-.1-.1 0-.1-.1h-.1c.3 0 .5.1.7.3.4.4.7.9.9 1.4.5 1 .8 2 1.1 3 .5 1.7.8 3.4 1.1 5.2.1.5.1.9.2 1.4.1 1 .2 2 .3 2.9v.1c.1.6.1 1.2.1 1.8 0 .2 0 .2-.1.4-.1.3-.4.5-.7.5h-.2c-.2 0-.2 0-.4-.1-.3-.1-.5-.4-.5-.7v-.4c0-.5.1-1.1.1-1.6 0-1.4 0-2.8-.1-4.3-.1-1.7-.2-3.4-.5-5.1-.2-1.2-.4-2.4-.9-3.5-.2-.4-.3-.8-.6-1.1-.1 0-.2-.1-.3-.1zM831.8 494.1c.9 0 1.7.1 2.5.2 1.8.2 3.7.8 5.4 1.6 1.6.7 3.1 1.7 4.4 2.8l.1.1c.5.4 1.1.9 1.6 1.3.1.1.1.2.2.3.1.3.1.6-.1.8 0 .1-.1.1-.1.1-.1.1-.2.1-.3.2-.3.1-.6.1-.8-.1-.1 0-.1-.1-.1-.1l-.1-.1c-.4-.4-.8-.9-1.2-1.3-1.1-1.1-2.4-2-3.7-2.8-1.5-.9-3.2-1.6-4.9-2-2-.5-4-.7-6-.6h-.4c1-.3 2.2-.4 3.5-.4z" fill="#D24517"/><path fill-rule="evenodd" clip-rule="evenodd" d="M859.8 497.1c1.6 0 3.3.1 4.9.3h.3c-2.1 0-4.3.1-6.4.4h-.1c-1.9.2-3.7.6-5.5 1.1h-.1c-1.5.4-3 1-4.4 1.6l-1.8.9c-.2.1-.2.1-.4.1-.3 0-.6-.1-.8-.3 0 0-.1-.1-.1-.2-.1-.2-.1-.2-.1-.4 0-.3.1-.6.3-.8 0 0 .1-.1.2-.1 0 0 .1 0 .2-.1.6-.3 1.2-.5 1.8-.7 0 0 .2-.1.4-.1 1.4-.5 2.9-.9 4.4-1.2 1.9-.4 3.9-.6 5.8-.6.6.1 1 .1 1.4.1z" fill="#D24517"/><path fill-rule="evenodd" clip-rule="evenodd" d="M831.7 497h1.1c2 .1 3.9.3 5.8.6 1.6.3 3.3.8 4.8 1.3.7.2 1.4.5 2 .8.1.1.2.1.3.2.2.2.3.5.2.8 0 .1 0 .1-.1.2s-.1.2-.2.3c-.2.2-.5.3-.8.2-.1 0-.2-.1-.3-.1-.5-.3-1.1-.6-1.7-.9-1.5-.7-3-1.2-4.5-1.6-1.8-.5-3.7-.9-5.6-1.1h-.1c-2.1-.3-4.2-.4-6.3-.4 1.8-.2 3.6-.3 5.4-.3z" fill="#D24517"/><path fill-rule="evenodd" clip-rule="evenodd" d="M858 491.3c.8 0 1.6.1 2.4.2-2-.1-4.1.2-5.9.9-1.6.6-3.1 1.6-4.3 2.8-1 1.1-1.9 2.4-2.6 3.8-.3.7-.5 1.3-.7 2-.1.1-.1.2-.2.3-.2.2-.5.3-.8.3h-.2c-.1-.1-.2-.1-.3-.2-.2-.2-.3-.5-.3-.8 0-.1.1-.2.1-.3.3-.6.6-1.2.9-1.7.1-.2.2-.3.3-.5.7-1.2 1.6-2.3 2.6-3.3 1.4-1.3 3.1-2.3 5-2.8 1.4-.6 2.7-.7 4-.7z" fill="#EA6C34"/><path fill-rule="evenodd" clip-rule="evenodd" d="M833.4 491.1c1.3 0 2.5.2 3.7.5 1.8.5 3.5 1.5 4.9 2.7 1.3 1.1 2.3 2.5 3.1 4 .4.6.7 1.3.9 1.9 0 .2.1.2.1.4 0 .3-.2.6-.4.7-.1 0-.1.1-.2.1-.2 0-.2.1-.4.1-.3 0-.6-.2-.7-.4-.1-.1-.1-.2-.1-.3-.2-.5-.4-1.1-.6-1.6l-.3-.6c-.6-1.1-1.2-2.1-2.1-3.1-1.2-1.3-2.6-2.3-4.2-3-.8-.4-1.7-.6-2.6-.8-1.2-.2-2.4-.3-3.7-.3 1-.2 1.8-.3 2.6-.3z" fill="#D24517"/><path fill-rule="evenodd" clip-rule="evenodd" d="M856.9 488.4h.5c-2 .1-3.9.9-5.4 2.1-.5.4-1.1.9-1.5 1.5-.7.8-1.4 1.8-1.9 2.8-.7 1.3-1.2 2.8-1.5 4.2-.1.6-.2 1.3-.3 1.9 0 .2 0 .2-.1.3-.2.2-.5.4-.7.4h-.2c-.2 0-.2 0-.3-.1-.2-.2-.4-.5-.4-.7v-.2-.2c.2-.6.3-1.2.5-1.8v-.1c.5-1.5 1.2-3 2-4.3 1-1.6 2.3-3 3.9-4 1.5-1.2 3.4-1.8 5.4-1.8-.1 0-.1 0 0 0z" fill="#EA6C34"/><path fill-rule="evenodd" clip-rule="evenodd" d="M834.6 488.3c1.8 0 3.6.5 5.1 1.5 1.6 1 3 2.4 4.1 4 0 .1.1.1.1.2.3.4.5.8.7 1.3.5 1 1 2.1 1.3 3.2.2.7.4 1.3.6 2v.2c0 .3-.2.6-.4.7-.1.1-.2.1-.3.1h-.4c-.3-.1-.5-.3-.7-.6 0-.1-.1-.2-.1-.3-.1-.6-.2-1.2-.3-1.7-.3-1.4-.8-2.8-1.5-4.1v-.1c-.8-1.5-1.8-3-3.2-4.1-1.1-.9-2.4-1.6-3.7-2-.6-.2-1.3-.3-2-.3h.7z" fill="#EA6C34"/><path fill-rule="evenodd" clip-rule="evenodd" d="M853.2 485.9h.3c-.3 0-.7.1-1 .2-.8.3-1.5.9-2 1.6-.5.6-.9 1.2-1.2 1.8-.8 1.6-1.4 3.3-1.8 5-.3 1.4-.5 2.9-.6 4.4v2.1c-.1.3-.3.5-.6.7-.2.1-.2.1-.4.1s-.2 0-.4-.1c-.3-.1-.5-.4-.5-.7v-.2-.2c.1-.9.2-1.8.3-2.8.2-1.2.5-2.4.8-3.5.6-1.8 1.4-3.6 2.4-5.2.8-1.2 1.8-2.3 3-2.9.6-.2 1.1-.3 1.7-.3z" fill="#EA6C34"/><path fill-rule="evenodd" clip-rule="evenodd" d="M838.2 485.7c.8 0 1.7.4 2.3.9.9.6 1.6 1.5 2.2 2.4 1 1.5 1.8 3.3 2.4 5 .5 1.5.8 3 1 4.6v.1c.1.6.2 1.3.2 1.9 0 .2 0 .2-.1.4-.1.3-.4.5-.7.6h-.2c-.2 0-.2 0-.4-.1-.3-.1-.5-.4-.6-.7v-.4-1.7c-.1-1.5-.3-3-.6-4.4-.4-1.6-.9-3.2-1.6-4.6-.6-1.3-1.4-2.4-2.5-3.3-.6-.4-1.2-.7-1.9-.7.3.1.4 0 .5 0z" fill="#EA6C34"/><path fill-rule="evenodd" clip-rule="evenodd" d="M848.9 484.5c-.1 0 0 0 0 0-.1 0-.1 0 0 0h-.1-.1c-.2.2-.4.4-.6.7-.4.7-.6 1.4-.7 2.1-.2.7-.3 1.3-.4 2-.3 1.7-.4 3.4-.5 5.1-.1 1.4-.1 2.9-.1 4.3 0 .6 0 1.2.1 1.8 0 .2 0 .2-.1.4-.1.3-.4.5-.7.5h-.2c-.2 0-.2 0-.4-.1-.3-.1-.5-.4-.5-.7v-.3c0-.6.1-1.2.1-1.7v-.1c.1-1.4.3-2.8.5-4.1.3-1.8.6-3.5 1.1-5.2.3-1.1.6-2.1 1.1-3.1.3-.6.5-1.1 1-1.5h.1c.1 0 .3-.1.4-.1.1 0 0 0 0 0z" fill="#EA6C34"/><path fill-rule="evenodd" clip-rule="evenodd" d="M842.9 484.5c-.1 0-.1 0 0 0-.1 0-.1 0 0 0-.1-.1-.1 0-.1-.1h-.1c.3 0 .5.1.7.3.4.4.7.9.9 1.4.5 1 .8 2 1.1 3 .5 1.7.8 3.4 1.1 5.2.1.5.1.9.2 1.4.1 1 .2 2 .3 2.9v.1c.1.6.1 1.2.1 1.8 0 .2 0 .2-.1.4-.1.3-.4.5-.7.5h-.2c-.2 0-.2 0-.4-.1-.3-.1-.5-.4-.5-.7v-.4c0-.5.1-1.1.1-1.6 0-1.4 0-2.8-.1-4.3-.1-1.7-.2-3.4-.5-5.1-.2-1.2-.4-2.4-.9-3.5-.2-.4-.3-.8-.6-1.1-.2 0-.3 0-.3-.1z" fill="#EA6C34"/><path fill-rule="evenodd" clip-rule="evenodd" d="M531.3 512.2c1.2 0 2.4.1 3.6.3-2-.1-4 0-6 .5-1.9.4-3.7 1.1-5.3 2.1-1.3.8-2.6 1.7-3.7 2.8-.5.5-.9 1-1.4 1.5-.1.1-.1.1-.3.2-.3.1-.6.1-.9-.1-.1 0-.1-.1-.1-.1-.1-.1-.1-.1-.2-.3-.1-.3-.1-.6.1-.9.1-.1.1-.2.2-.3.5-.4 1-.9 1.5-1.3l.1-.1c1.2-1 2.5-1.8 4-2.5 1.7-.8 3.5-1.4 5.4-1.7.9-.1 1.9-.1 3-.1-.1 0-.1 0 0 0z" fill="#D24517"/><path fill-rule="evenodd" clip-rule="evenodd" d="M503.4 512c.9 0 1.7.1 2.5.2 1.8.2 3.7.8 5.4 1.6 1.6.7 3.1 1.7 4.4 2.8l.1.1c.5.4 1.1.9 1.6 1.3.1.1.1.2.2.3.1.3.1.6-.1.8 0 .1-.1.1-.1.1-.1.1-.2.1-.3.2-.3.1-.6.1-.8-.1-.1 0-.1-.1-.1-.1l-.1-.1c-.4-.4-.8-.9-1.2-1.3-1.1-1.1-2.4-2-3.7-2.8-1.5-.9-3.2-1.6-4.9-2-2-.5-4-.7-6-.6h-.4c1-.2 2.2-.3 3.5-.4-.1 0 0 0 0 0z" fill="#D24517"/><path fill-rule="evenodd" clip-rule="evenodd" d="M531.4 515.1c1.6 0 3.3.1 4.9.3h.3c-2.1 0-4.3.1-6.4.4h-.1c-1.9.2-3.7.6-5.5 1.1h-.1c-1.5.4-3 1-4.4 1.6-.6.3-1.2.6-1.8 1-.2.1-.2.1-.4.1-.3 0-.6-.1-.8-.3 0 0-.1-.1-.1-.2-.1-.2-.1-.2-.1-.4 0-.3.1-.6.3-.8 0 0 .1-.1.2-.1 0 0 .1 0 .2-.1.6-.3 1.2-.5 1.8-.7 0 0 .2-.1.4-.1 1.4-.5 2.9-.9 4.4-1.2 1.9-.4 3.9-.6 5.8-.6h1.4z" fill="#D24517"/><path fill-rule="evenodd" clip-rule="evenodd" d="M503.2 515h1.1c2 .1 3.9.3 5.8.6 1.6.3 3.3.8 4.8 1.3.7.2 1.4.5 2 .8.1.1.2.1.3.2.2.2.3.5.2.8 0 .1 0 .1-.1.2s-.1.2-.2.3c-.2.2-.5.3-.8.2-.1 0-.2-.1-.3-.1-.5-.3-1.1-.6-1.7-.9-1.5-.7-3-1.2-4.5-1.6-1.8-.5-3.7-.9-5.6-1.1h-.1c-2.1-.3-4.2-.4-6.3-.4 1.9-.2 3.7-.3 5.4-.3z" fill="#D24517"/><path fill-rule="evenodd" clip-rule="evenodd" d="M529.6 509.2c.8 0 1.6.1 2.4.2-2-.1-4.1.2-5.9.9-1.6.6-3.1 1.6-4.3 2.8-1 1.1-1.9 2.4-2.6 3.8-.3.7-.5 1.3-.7 2-.1.1-.1.2-.2.3-.2.2-.5.3-.8.3h-.2c-.1-.1-.2-.1-.3-.2-.2-.2-.3-.5-.3-.8 0-.1.1-.2.1-.3.3-.6.6-1.2.9-1.7.1-.2.2-.3.3-.5.7-1.2 1.6-2.3 2.6-3.3 1.4-1.3 3.1-2.3 5-2.8 1.3-.5 2.7-.7 4-.7z" fill="#D24517"/><path fill-rule="evenodd" clip-rule="evenodd" d="M505 509.1c1.3 0 2.5.2 3.7.5 1.8.5 3.5 1.5 4.9 2.7 1.3 1.1 2.3 2.5 3.1 4 .4.6.7 1.3.9 1.9 0 .2.1.2.1.4 0 .3-.2.6-.4.7-.1 0-.1.1-.2.1-.2 0-.2.1-.4.1-.3 0-.6-.2-.7-.4-.1-.1-.1-.2-.1-.3-.2-.5-.4-1.1-.6-1.6l-.3-.6c-.6-1.1-1.2-2.1-2.1-3.1-1.2-1.3-2.6-2.3-4.2-3-.8-.4-1.7-.6-2.6-.8-1.2-.2-2.4-.3-3.7-.3.9-.2 1.8-.3 2.6-.3z" fill="#D24517"/><path fill-rule="evenodd" clip-rule="evenodd" d="M528.4 506.4h.5c-2 .1-3.9.9-5.4 2.1-.5.4-1.1.9-1.5 1.5-.7.8-1.4 1.8-1.9 2.8-.7 1.3-1.2 2.8-1.5 4.2-.1.6-.2 1.3-.3 1.9 0 .2 0 .2-.1.3-.2.2-.5.4-.7.4h-.2c-.2 0-.2 0-.3-.1-.2-.2-.4-.5-.4-.7v-.2-.2c.2-.6.3-1.2.5-1.8v-.1c.5-1.5 1.2-3 2-4.3 1-1.6 2.3-3 3.9-4 1.6-1.2 3.5-1.8 5.4-1.8z" fill="#D24517"/><path fill-rule="evenodd" clip-rule="evenodd" d="M506.2 506.2c1.8 0 3.6.5 5.1 1.5 1.6 1 3 2.4 4.1 4 0 .1.1.1.1.2.3.4.5.8.7 1.3.5 1 1 2.1 1.3 3.2.2.7.4 1.3.6 2v.2c0 .3-.2.6-.4.7-.1.1-.2.1-.3.1h-.4c-.3-.1-.5-.3-.7-.6 0-.1-.1-.2-.1-.3-.1-.6-.2-1.2-.3-1.7-.3-1.4-.8-2.8-1.5-4.1v-.1c-.8-1.5-1.8-3-3.2-4.1-1.1-.9-2.4-1.6-3.7-2-.6-.2-1.3-.3-2-.3h.7z" fill="#D24517"/><path fill-rule="evenodd" clip-rule="evenodd" d="M524.8 503.8h.3c-.3 0-.7.1-1 .2-.8.3-1.5.9-2 1.6-.5.6-.9 1.2-1.2 1.8-.8 1.6-1.4 3.3-1.8 5-.3 1.4-.5 2.9-.6 4.4v2.1c-.1.3-.3.5-.6.7-.2.1-.2.1-.4.1s-.2 0-.4-.1c-.3-.1-.5-.4-.5-.7v-.2-.2c.1-.9.2-1.8.3-2.8.2-1.2.5-2.4.8-3.5.6-1.8 1.4-3.6 2.4-5.2.8-1.2 1.8-2.3 3-2.9.6-.1 1.1-.2 1.7-.3z" fill="#D24517"/><path fill-rule="evenodd" clip-rule="evenodd" d="M509.8 503.7c.8 0 1.7.4 2.3.9.9.6 1.6 1.5 2.2 2.4 1 1.5 1.8 3.3 2.4 5 .5 1.5.8 3 1 4.6v.1c.1.6.2 1.3.2 1.9 0 .2 0 .2-.1.4-.1.3-.4.5-.7.6h-.2c-.2 0-.2 0-.4-.1-.3-.1-.5-.4-.6-.7v-.4-1.7c-.1-1.5-.3-3-.6-4.4-.4-1.6-.9-3.2-1.6-4.6-.6-1.3-1.4-2.4-2.5-3.3-.6-.4-1.2-.7-1.9-.7h.5z" fill="#D24517"/><path fill-rule="evenodd" clip-rule="evenodd" d="M520.5 502.5s-.1 0 0 0c-.1 0-.1 0 0 0-.1 0-.1 0 0 0h-.1-.1c-.2.2-.4.4-.6.7-.4.7-.6 1.4-.7 2.1-.2.7-.3 1.3-.4 2-.3 1.7-.4 3.4-.5 5.1-.1 1.4-.1 2.9-.1 4.3 0 .6 0 1.2.1 1.8 0 .2 0 .2-.1.4-.1.3-.4.5-.7.5h-.2c-.2 0-.2 0-.4-.1-.3-.1-.5-.4-.5-.7v-.3c0-.6.1-1.2.1-1.7v-.1c.1-1.4.3-2.8.5-4.1.3-1.8.6-3.5 1.1-5.2.3-1.1.6-2.1 1.1-3.1.3-.6.5-1.1 1-1.5h.1c.1-.1.3-.1.4-.1z" fill="#D24517"/><path fill-rule="evenodd" clip-rule="evenodd" d="M514.4 502.5c-.1-.1-.1 0-.1-.1h-.1c.3 0 .5.1.7.3.4.4.7.9.9 1.4.5 1 .8 2 1.1 3 .5 1.7.8 3.4 1.1 5.2.1.5.1.9.2 1.4.1 1 .2 2 .3 2.9v.1c.1.6.1 1.2.1 1.8 0 .2 0 .2-.1.4-.1.3-.4.5-.7.5h-.2c-.2 0-.2 0-.4-.1-.3-.1-.5-.4-.5-.7v-.4c0-.5.1-1.1.1-1.6 0-1.4 0-2.8-.1-4.3-.1-1.7-.2-3.4-.5-5.1-.2-1.2-.4-2.4-.9-3.5-.2-.4-.3-.8-.6-1.1-.1 0-.2-.1-.3-.1zM289.2 498.3c1.2 0 2.4.1 3.6.3-2-.1-4 0-6 .5-1.9.4-3.7 1.1-5.3 2.1-1.3.8-2.6 1.7-3.7 2.8-.5.5-.9 1-1.4 1.5-.1.1-.1.1-.3.2-.3.1-.6.1-.9-.1-.1 0-.1-.1-.1-.1-.1-.1-.1-.1-.2-.3-.1-.3-.1-.6.1-.9.1-.1.1-.2.2-.3.5-.4 1-.9 1.5-1.3l.1-.1c1.2-1 2.5-1.8 4-2.5 1.7-.8 3.5-1.4 5.4-1.7 1-.1 1.9-.1 3-.1-.1 0 0 0 0 0z" fill="#D24517"/><path fill-rule="evenodd" clip-rule="evenodd" d="M261.3 498.1c.9 0 1.7.1 2.5.2 1.8.2 3.7.8 5.4 1.6 1.6.7 3.1 1.7 4.4 2.8l.1.1c.5.4 1.1.9 1.6 1.3.1.1.1.2.2.3.1.3.1.6-.1.8 0 .1-.1.1-.1.1-.1.1-.2.1-.3.2-.3.1-.6.1-.8-.1-.1 0-.1-.1-.1-.1l-.1-.1c-.4-.4-.8-.9-1.2-1.3-1.1-1.1-2.4-2-3.7-2.8-1.5-.9-3.2-1.6-4.9-2-2-.5-4-.7-6-.6h-.4c1-.3 2.2-.4 3.5-.4z" fill="#D24517"/><path fill-rule="evenodd" clip-rule="evenodd" d="M289.3 501.2c1.6 0 3.3.1 4.9.3h.3c-2.1 0-4.3.1-6.4.4h-.1c-1.9.2-3.7.6-5.5 1.1h-.1c-1.5.4-3 1-4.4 1.6-.6.3-1.2.6-1.8 1-.2.1-.2.1-.4.1-.3 0-.6-.1-.8-.3 0 0-.1-.1-.1-.2-.1-.2-.1-.2-.1-.4 0-.3.1-.6.3-.8 0 0 .1-.1.2-.1 0 0 .1 0 .2-.1.6-.3 1.2-.5 1.8-.7 0 0 .2-.1.4-.1 1.4-.5 2.9-.9 4.4-1.2 1.9-.4 3.9-.6 5.8-.6h1.4z" fill="#D24517"/><path fill-rule="evenodd" clip-rule="evenodd" d="M261.2 501.1h1.1c2 .1 3.9.3 5.8.6 1.6.3 3.3.8 4.8 1.3.7.2 1.4.5 2 .8.1.1.2.1.3.2.2.2.3.5.2.8 0 .1 0 .1-.1.2s-.1.2-.2.3c-.2.2-.5.3-.8.2-.1 0-.2-.1-.3-.1-.5-.3-1.1-.6-1.7-.9-1.5-.7-3-1.2-4.5-1.6-1.8-.5-3.7-.9-5.6-1.1h-.1c-2.1-.3-4.2-.4-6.3-.4 1.8-.2 3.6-.3 5.4-.3z" fill="#D24517"/><path fill-rule="evenodd" clip-rule="evenodd" d="M287.5 495.3c.8 0 1.6.1 2.4.2-2-.1-4.1.2-5.9.9-1.6.6-3.1 1.6-4.3 2.8-1 1.1-1.9 2.4-2.6 3.8-.3.7-.5 1.3-.7 2-.1.1-.1.2-.2.3-.2.2-.5.3-.8.3h-.2c-.1-.1-.2-.1-.3-.2-.2-.2-.3-.5-.3-.8 0-.1.1-.2.1-.3.3-.6.6-1.2.9-1.7.1-.2.2-.3.3-.5.7-1.2 1.6-2.3 2.6-3.3 1.4-1.3 3.1-2.3 5-2.8 1.4-.5 2.7-.7 4-.7z" fill="#D24517"/><path fill-rule="evenodd" clip-rule="evenodd" d="M262.9 495.2c1.3 0 2.5.2 3.7.5 1.8.5 3.5 1.5 4.9 2.7 1.3 1.1 2.3 2.5 3.1 4 .4.6.7 1.3.9 1.9 0 .2.1.2.1.4 0 .3-.2.6-.4.7-.1 0-.1.1-.2.1-.2 0-.2.1-.4.1-.3 0-.6-.2-.7-.4-.1-.1-.1-.2-.1-.3-.2-.5-.4-1.1-.6-1.6l-.3-.6c-.6-1.1-1.2-2.1-2.1-3.1-1.2-1.3-2.6-2.3-4.2-3-.8-.4-1.7-.6-2.6-.8-1.2-.2-2.4-.3-3.7-.3 1-.2 1.8-.3 2.6-.3z" fill="#D24517"/><path fill-rule="evenodd" clip-rule="evenodd" d="M286.4 492.5h.5c-2 .1-3.9.9-5.4 2.1-.5.4-1.1.9-1.5 1.5-.7.8-1.4 1.8-1.9 2.8-.7 1.3-1.2 2.8-1.5 4.2-.1.6-.2 1.3-.3 1.9 0 .2 0 .2-.1.3-.2.2-.5.4-.7.4h-.2c-.2 0-.2 0-.3-.1-.2-.2-.4-.5-.4-.7v-.2-.2c.2-.6.3-1.2.5-1.8v-.1c.5-1.5 1.2-3 2-4.3 1-1.6 2.3-3 3.9-4 1.5-1.2 3.4-1.8 5.4-1.8-.1 0-.1 0 0 0z" fill="#D24517"/><path fill-rule="evenodd" clip-rule="evenodd" d="M264.1 492.3c1.8 0 3.6.5 5.1 1.5 1.6 1 3 2.4 4.1 4 0 .1.1.1.1.2.3.4.5.8.7 1.3.5 1 1 2.1 1.3 3.2.2.7.4 1.3.6 2v.2c0 .3-.2.6-.4.7-.1.1-.2.1-.3.1h-.4c-.3-.1-.5-.3-.7-.6 0-.1-.1-.2-.1-.3-.1-.6-.2-1.2-.3-1.7-.3-1.4-.8-2.8-1.5-4.1v-.1c-.8-1.5-1.8-3-3.2-4.1-1.1-.9-2.4-1.6-3.7-2-.6-.2-1.3-.3-2-.3h.7z" fill="#D24517"/><path fill-rule="evenodd" clip-rule="evenodd" d="M282.7 489.9h.3c-.3 0-.7.1-1 .2-.8.3-1.5.9-2 1.6-.5.6-.9 1.2-1.2 1.8-.8 1.6-1.4 3.3-1.8 5-.3 1.4-.5 2.9-.6 4.4v2.1c-.1.3-.3.5-.6.7-.2.1-.2.1-.4.1s-.2 0-.4-.1c-.3-.1-.5-.4-.5-.7v-.2-.2c.1-.9.2-1.8.3-2.8.2-1.2.5-2.4.8-3.5.6-1.8 1.4-3.6 2.4-5.2.8-1.2 1.8-2.3 3-2.9.6-.1 1.1-.3 1.7-.3z" fill="#D24517"/><path fill-rule="evenodd" clip-rule="evenodd" d="M267.7 489.8c.8 0 1.7.4 2.3.9.9.6 1.6 1.5 2.2 2.4 1 1.5 1.8 3.3 2.4 5 .5 1.5.8 3 1 4.6v.1c.1.6.2 1.3.2 1.9 0 .2 0 .2-.1.4-.1.3-.4.5-.7.6h-.2c-.2 0-.2 0-.4-.1-.3-.1-.5-.4-.6-.7v-.4-1.7c-.1-1.5-.3-3-.6-4.4-.4-1.6-.9-3.2-1.6-4.6-.6-1.3-1.4-2.4-2.5-3.3-.6-.4-1.2-.7-1.9-.7h.5z" fill="#D24517"/><path fill-rule="evenodd" clip-rule="evenodd" d="M278.4 488.6c-.1 0 0 0 0 0-.1 0-.1 0 0 0h-.1-.1c-.2.2-.4.4-.6.7-.4.7-.6 1.4-.7 2.1-.2.7-.3 1.3-.4 2-.3 1.7-.4 3.4-.5 5.1-.1 1.4-.1 2.9-.1 4.3 0 .6 0 1.2.1 1.8 0 .2 0 .2-.1.4-.1.3-.4.5-.7.5h-.2c-.2 0-.2 0-.4-.1-.3-.1-.5-.4-.5-.7v-.3c0-.6.1-1.2.1-1.7v-.1c.1-1.4.3-2.8.5-4.1.3-1.8.6-3.5 1.1-5.2.3-1.1.6-2.1 1.1-3.1.3-.6.5-1.1 1-1.5h.1c.1-.1.3-.1.4-.1.1 0 0 0 0 0z" fill="#D24517"/><path fill-rule="evenodd" clip-rule="evenodd" d="M272.4 488.6c-.1 0-.1 0 0 0-.1-.1-.1 0 0 0-.1-.1-.1 0-.1-.1h-.1c.3 0 .5.1.7.3.4.4.7.9.9 1.4.5 1 .8 2 1.1 3 .5 1.7.8 3.4 1.1 5.2.1.5.1.9.2 1.4.1 1 .2 2 .3 2.9v.1c.1.6.1 1.2.1 1.8 0 .2 0 .2-.1.4-.1.3-.4.5-.7.5h-.2c-.2 0-.2 0-.4-.1-.3-.1-.5-.4-.5-.7v-.4c0-.5.1-1.1.1-1.6 0-1.4 0-2.8-.1-4.3-.1-1.7-.2-3.4-.5-5.1-.2-1.2-.4-2.4-.9-3.5-.2-.4-.3-.8-.6-1.1-.2 0-.3-.1-.3-.1zM1333 476.6c1.2 0 2.4.1 3.6.3-2-.1-4 0-6 .5-1.9.4-3.7 1.1-5.3 2.1-1.3.8-2.6 1.7-3.7 2.8-.5.5-.9 1-1.4 1.5-.1.1-.1.1-.3.2-.3.1-.6.1-.9-.1-.1 0-.1-.1-.1-.1-.1-.1-.1-.1-.2-.3-.1-.3-.1-.6.1-.9.1-.1.1-.2.2-.3.5-.4 1-.9 1.5-1.3l.1-.1c1.2-1 2.5-1.8 4-2.5 1.7-.8 3.5-1.4 5.4-1.7 1-.1 2-.1 3-.1z" fill="#D24517"/><path fill-rule="evenodd" clip-rule="evenodd" d="M1305.1 476.4c.9 0 1.7.1 2.5.2 1.8.2 3.7.8 5.4 1.6 1.6.7 3.1 1.7 4.4 2.8l.1.1c.5.4 1.1.9 1.6 1.3.1.1.1.2.2.3.1.3.1.6-.1.8 0 .1-.1.1-.1.1-.1.1-.2.1-.3.2-.3.1-.6.1-.8-.1-.1 0-.1-.1-.1-.1l-.1-.1c-.4-.4-.8-.9-1.2-1.3-1.1-1.1-2.4-2-3.7-2.8-1.5-.9-3.2-1.6-4.9-2-2-.5-4-.7-6-.6h-.4c1.1-.3 2.3-.4 3.5-.4z" fill="#D24517"/><path fill-rule="evenodd" clip-rule="evenodd" d="M1333.2 479.5c1.6 0 3.3.1 4.9.3h.3c-2.1 0-4.3.1-6.4.4h-.1c-1.9.2-3.7.6-5.5 1.1h-.1c-1.5.4-3 1-4.4 1.6l-1.8.9c-.2.1-.2.1-.4.1-.3 0-.6-.1-.8-.3 0 0-.1-.1-.1-.2-.1-.2-.1-.2-.1-.4 0-.3.1-.6.3-.8 0 0 .1-.1.2-.1 0 0 .1 0 .2-.1.6-.3 1.2-.5 1.8-.7 0 0 .2-.1.4-.1 1.4-.5 2.9-.9 4.4-1.2 1.9-.4 3.9-.6 5.8-.6.6.1 1 .1 1.4.1z" fill="#D24517"/><path fill-rule="evenodd" clip-rule="evenodd" d="M1305 479.4h1.1c2 .1 3.9.3 5.8.6 1.6.3 3.3.8 4.8 1.3.7.2 1.4.5 2 .8.1.1.2.1.3.2.2.2.3.5.2.8 0 .1 0 .1-.1.2s-.1.2-.2.3c-.2.2-.5.3-.8.2-.1 0-.2-.1-.3-.1-.5-.3-1.1-.6-1.7-.9-1.5-.7-3-1.2-4.5-1.6-1.8-.5-3.7-.9-5.6-1.1h-.1c-2.1-.3-4.2-.4-6.3-.4 1.9-.2 3.6-.3 5.4-.3z" fill="#D24517"/><path fill-rule="evenodd" clip-rule="evenodd" d="M1331.4 473.6c.8 0 1.6.1 2.4.2-2-.1-4.1.2-5.9.9-1.6.6-3.1 1.6-4.3 2.8-1 1.1-1.9 2.4-2.6 3.8-.3.7-.5 1.3-.7 2-.1.1-.1.2-.2.3-.2.2-.5.3-.8.3h-.2c-.1-.1-.2-.1-.3-.2-.2-.2-.3-.5-.3-.8 0-.1.1-.2.1-.3.3-.6.6-1.2.9-1.7.1-.2.2-.3.3-.5.7-1.2 1.6-2.3 2.6-3.3 1.4-1.3 3.1-2.3 5-2.8 1.3-.5 2.6-.7 4-.7-.1 0-.1 0 0 0z" fill="#D24517"/><path fill-rule="evenodd" clip-rule="evenodd" d="M1306.8 473.5c1.3 0 2.5.2 3.7.5 1.8.5 3.5 1.5 4.9 2.7 1.3 1.1 2.3 2.5 3.1 4 .4.6.7 1.3.9 1.9 0 .2.1.2.1.4 0 .3-.2.6-.4.7-.1 0-.1.1-.2.1-.2 0-.2.1-.4.1-.3 0-.6-.2-.7-.4-.1-.1-.1-.2-.1-.3-.2-.5-.4-1.1-.6-1.6l-.3-.6c-.6-1.1-1.2-2.1-2.1-3.1-1.2-1.3-2.6-2.3-4.2-3-.8-.4-1.7-.6-2.6-.8-1.2-.2-2.4-.3-3.7-.3.9-.2 1.7-.3 2.6-.3-.1 0 0 0 0 0z" fill="#D24517"/><path fill-rule="evenodd" clip-rule="evenodd" d="M1330.2 470.8h.5c-2 .1-3.9.9-5.4 2.1-.5.4-1.1.9-1.5 1.5-.7.8-1.4 1.8-1.9 2.8-.7 1.3-1.2 2.8-1.5 4.2-.1.6-.2 1.3-.3 1.9 0 .2 0 .2-.1.3-.2.2-.5.4-.7.4h-.2c-.2 0-.2 0-.3-.1-.2-.2-.4-.5-.4-.7v-.2-.2c.2-.6.3-1.2.5-1.8v-.1c.5-1.5 1.2-3 2-4.3 1-1.6 2.3-3 3.9-4 1.5-1.2 3.4-1.8 5.4-1.8z" fill="#D24517"/><path fill-rule="evenodd" clip-rule="evenodd" d="M1307.9 470.6c1.8 0 3.6.5 5.1 1.5 1.6 1 3 2.4 4.1 4 0 .1.1.1.1.2.3.4.5.8.7 1.3.5 1 1 2.1 1.3 3.2.2.7.4 1.3.6 2v.2c0 .3-.2.6-.4.7-.1.1-.2.1-.3.1h-.4c-.3-.1-.5-.3-.7-.6 0-.1-.1-.2-.1-.3-.1-.6-.2-1.2-.3-1.7-.3-1.4-.8-2.8-1.5-4.1v-.1c-.8-1.5-1.8-3-3.2-4.1-1.1-.9-2.4-1.6-3.7-2-.6-.2-1.3-.3-2-.3h.7z" fill="#D24517"/><path fill-rule="evenodd" clip-rule="evenodd" d="M1326.5 468.2h.3c-.3 0-.7.1-1 .2-.8.3-1.5.9-2 1.6-.5.6-.9 1.2-1.2 1.8-.8 1.6-1.4 3.3-1.8 5-.3 1.4-.5 2.9-.6 4.4v2.1c-.1.3-.3.5-.6.7-.2.1-.2.1-.4.1s-.2 0-.4-.1c-.3-.1-.5-.4-.5-.7v-.2-.2c.1-.9.2-1.8.3-2.8.2-1.2.5-2.4.8-3.5.6-1.8 1.4-3.6 2.4-5.2.8-1.2 1.8-2.3 3-2.9.7-.1 1.2-.3 1.7-.3z" fill="#D24517"/><path fill-rule="evenodd" clip-rule="evenodd" d="M1311.6 468.1c.8 0 1.7.4 2.3.9.9.6 1.6 1.5 2.2 2.4 1 1.5 1.8 3.3 2.4 5 .5 1.5.8 3 1 4.6v.1c.1.6.2 1.3.2 1.9 0 .2 0 .2-.1.4-.1.3-.4.5-.7.6h-.2c-.2 0-.2 0-.4-.1-.3-.1-.5-.4-.6-.7v-.4-1.7c-.1-1.5-.3-3-.6-4.4-.4-1.6-.9-3.2-1.6-4.6-.6-1.3-1.4-2.4-2.5-3.3-.6-.4-1.2-.7-1.9-.7h.5z" fill="#D24517"/><path fill-rule="evenodd" clip-rule="evenodd" d="M1322.2 466.9s-.1 0 0 0h-.1-.1c-.2.2-.4.4-.6.7-.4.7-.6 1.4-.7 2.1-.2.7-.3 1.3-.4 2-.3 1.7-.4 3.4-.5 5.1-.1 1.4-.1 2.9-.1 4.3 0 .6 0 1.2.1 1.8 0 .2 0 .2-.1.4-.1.3-.4.5-.7.5h-.2c-.2 0-.2 0-.4-.1-.3-.1-.5-.4-.5-.7v-.3c0-.6.1-1.2.1-1.7v-.1c.1-1.4.3-2.8.5-4.1.3-1.8.6-3.5 1.1-5.2.3-1.1.6-2.1 1.1-3.1.3-.6.5-1.1 1-1.5h.1c.1-.1.3-.1.4-.1.1 0 .1 0 0 0 .1 0 0 0 0 0z" fill="#D24517"/><path fill-rule="evenodd" clip-rule="evenodd" d="M1316.2 466.9c-.1-.1 0 0 0 0-.1-.1-.1 0-.1-.1h-.1c.3 0 .5.1.7.3.4.4.7.9.9 1.4.5 1 .8 2 1.1 3 .5 1.7.8 3.4 1.1 5.2.1.5.1.9.2 1.4.1 1 .2 2 .3 2.9v.1c.1.6.1 1.2.1 1.8 0 .2 0 .2-.1.4-.1.3-.4.5-.7.5h-.2c-.2 0-.2 0-.4-.1-.3-.1-.5-.4-.5-.7v-.4c0-.5.1-1.1.1-1.6 0-1.4 0-2.8-.1-4.3-.1-1.7-.2-3.4-.5-5.1-.2-1.2-.4-2.4-.9-3.5-.2-.4-.3-.8-.6-1.1-.1 0-.2-.1-.3-.1zM606.5 486.9c2.3-4.9-.2-18 .8-21.4.6-2.2 5.6.9 5.9 2.7.7 4.3 1.3 17.5-1.5 22.9-2.8 5.4-15.2 9.4-15.2 9.4l-2.8-5.6c0-.1 10.6-3.2 12.8-8zM581.6 478c-2.1-4.5-1.8-14.7-1.2-17.8.3-1.4 4.3-3.8 4.9-2.1.8 2.7-1.1 12.8.6 17 1.7 4 9.9 7.9 9.9 7.9l-2.9 4s-9.2-4.6-11.3-9z" fill="#D24517"/><path fill-rule="evenodd" clip-rule="evenodd" d="M601.4 449c-.8-5.7-9.9-1-10.7 4.7-1.8 12 2.2 69.1 2.2 69.1l7-.1c.1.1 3.1-62.1 1.5-73.7zM1107.2 461.3c2.1-4.5-.2-16.6.7-19.7.6-2 5.2.8 5.5 2.5.7 3.9 1.2 16.1-1.4 21.1-2.6 5-14.1 8.6-14.1 8.6l-2.6-5.2s9.8-2.8 11.9-7.3zM1084.1 453.1c-1.9-4.1-1.7-13.5-1.1-16.4.2-1.3 4-3.5 4.5-1.9.8 2.5-1 11.8.6 15.7 1.6 3.7 9.2 7.3 9.2 7.3l-2.7 3.7s-8.5-4.3-10.5-8.4z" fill="#D24517"/><path fill-rule="evenodd" clip-rule="evenodd" d="M1102.5 426.5c-.7-5.3-9.2-1-9.9 4.3-1.7 11.1 2.1 63.7 2.1 63.7l6.5-.1s2.8-57.3 1.3-67.9zM30.2 441.1c2.3-4.6-.2-17.2.8-20.4.6-2.1 5.6.8 5.9 2.5.7 4.1 1.3 16.7-1.5 21.8-2.8 5.1-15.1 8.9-15.1 8.9l-2.8-5.3c0 .1 10.5-2.9 12.7-7.5z" fill="#D24517"/><path fill-rule="evenodd" clip-rule="evenodd" d="M30.2 441.2l-.1.1H21.9l1.6 3.1 1.2 2.2H34V421.3 433.3l-3.8 7.9zm0-.1l.1-.1V429 445.2H21l-1.2-2.2-1.6-3.1H26.4l3.8 1.2z" fill="#C74E10"/><path fill-rule="evenodd" clip-rule="evenodd" d="M5.4 432.6c-2.1-4.3-1.8-14-1.2-16.9.3-1.3 4.3-3.6 4.8-2 .8 2.6-1.1 12.2.6 16.2 1.7 3.8 9.8 7.5 9.8 7.5l-2.9 3.8c.2.1-9-4.3-11.1-8.6z" fill="#D24517"/><path fill-rule="evenodd" clip-rule="evenodd" d="M25.2 405.1c-.8-5.5-9.8-1-10.7 4.4-1.8 11.5 2.2 65.8 2.2 65.8l7-.1c0 .1 3-59.1 1.5-70.1z" fill="#D24517"/><path fill-rule="evenodd" clip-rule="evenodd" d="M22.4 402.6h.1V472.7h-7V408.1l6.9-5.5zm2.8 2.5v-.1V469.4h7V399.3l-7 5.8z" fill="#C74E10"/><path fill-rule="evenodd" clip-rule="evenodd" d="M3.8 449.3c1.1-2.3 1-7.5.6-9.1-.1-.7-2.3-1.9-2.6-1.1-.5 1.4.6 6.6-.3 8.7-.9 2-5.3 4.1-5.3 4.1l1.6 2c-.1.1 4.9-2.3 6-4.6z" fill="#D24517"/><path fill-rule="evenodd" clip-rule="evenodd" d="M3.8 449.4l-.1.1H2.4l-.2-.2-1.4-1.8H1.6V443.9l2.2 5.5zm0-.1l.1-.1V452.8H3.1l1.4 1.8.2.2H6l-2.2-5.5z" fill="#C74E10"/><path fill-rule="evenodd" clip-rule="evenodd" d="M1972.6 543.6s-32.3-106.3-80.4-102.1c-5.4.5 1.5 12.7-28.2 3.6-4-1.2-9.1 1.4-14.5 2.1-2.9.3-4.2-1.5-7.6-2.2-2.4-.5-6.8.4-9.2 0-2.1-.4-5.9 1.2-8.8 1.8-5.5 1.2-10.7 2.2-14.9 2.2-3.7 0-9.9-.5-13.4-1.6-2.3-.8-1.9-2.2-4.1-2.4-6.6-.6-12.6 1.8-18.4 2.4-11 1-19.5-5.2-31.2-3.7-5.6.7-13.8.1-17.2 1.8-4.1 2.2-3.1 7.1-9 10.2-3.6 1.9-6.1 6.4-11 8-5.3 1.7-13.1.3-18.6 1.3-7.4 1.3-16.1-3.5-19.9-2.1-6.3 2.3-12.1-1.2-18-1-5.3.2-10.6 4.3-17.7 3.5-10-1.2-25.8-2.7-35.7-5.2-9.3-2.4-14.5-8.9-24.3-9.8-5.3-.5-9.2-4.2-14.7-3.6-4.1.4-10.4 1.6-9.9 4.9 1.5 10.1-8.2 10.8-19.3 11.2-3.5.1-7.5 3.1-11.5 3-.7 0-.4-4.8-2-3.6-6.5 4.7-16.5 3.3-25.3 2.5-2.1-.2-1.2-2.6-2-3.4-1.1-1-4-.3-6.6-.8-1.9-.4-7.7 1.3-9.7 1.1-5.6-.6-10.6-1.8-14.1-1.8-2.5 0-4-2.2-6-2.2-7.1.2-11.4-1.6-19-4.9-1.6-.7-4.4-2.1-6.8-1.3-4.4 1.5-9.9-.7-13.9-1.6-1.6-.4-5.1-1-7.2-.9-2.8.1-4.3 1.1-6.9 1h-3.6c-1.8 0-3.8-.5-5.7-.4-3.1.1-6.3 1.8-9.7 2.5-2.9.6-6.2-.5-9.4.4-1.3.4-2.7.2-4.2.3-2.6.2-5.2.5-7.5.8-.9.1-1.8-.7-3-.3-2 .7-3.1 1.5-4.4 1.6-.9 0-1.5.5-1.9 1.1-.4.7.3 1.4.1 2.7-.1.5.2 1 .1 1.4-.1.7.5 1.4.5 2.1 0 .7-.5 1.5-.9 2.1-.4.6-1.6.8-2.7 1.1-1.4.4-2.9.8-4 1.1-.7.2-1.6.2-2.6.1-1.2-.1-3.3-.4-4.3-.4-1.3.1-1.4.3-2.4.7-.8.3-1.5.7-2.3.9-1.9.7-2 2.2-3.3 3.1-1.7 1.2-4.5 1.9-6.9 2.2-1.8.2-2.2-.5-4.3-1.2-1.4-.5-4.6 0-6.4.5-1.8.5-5.7 1.3-6.7 2.2-1.9 1.6-1.1 3.2-4.5 4.2-2.8.8-8 2.3-10.8 3-3.2.8-7.3.7-10.5 1.2-7.9 1.1-14.5 3.5-20.5 4.5-2.3.4-4.9-.1-7.2-.6-1.8-.4-3.6-.7-4.9-.4-3 .6-6.3 3.5-9.6 4.5-4.1 1.2-7.8.5-6.8 1.7 2.3 3-6.7 3.3-10.4 4.3-3.7.9-9.9-.2-13.9.5-3.3.6-9.7-.2-13.1.1-2.4.2-5.8.1-8.5.6-3.4.7-6.1 2-9.2 1.4-2.7-.5-5.5-1.8-8.7-2-3.4-.2-7.4.7-10.3-.7-1.4-.7-3.4-.3-5.1-.9-1.4-.4-4.6-.6-6-.6-3.3.1-6.3 1.8-9.6 1.8-2.6 0-3.3-1.5-6-2-3.1-.5-8.3.1-11.2-.1-1.8-.1-4.5-2.2-7.4-2.5-2.9-.3-6.2-.9-8-1.1-3.8-.3-8.6 1.9-12.4 1.6-3.5-.3-6.8-1.6-10.2-2-2.7-.3-5-2.1-7.8-2.8-3.4-.8-7.2-.5-10.4-1.1-1.8-.3-1.9-1.2-5.9-1.6-1.5-.1-2.9-.9-4.1-1.1-2.4-.5-4.7.1-6.6-.1-2-.2-3.6-1.2-5.3-1.6-1.3-.3-2.2-1.7-3.6-2.1-.8-.2-2.1-.4-2.9-.8-.7-.3-1.8-1.8-2.1-1-.6 1.3-10.7 2.3-23.9 2.1-9.8-.1-21.5-1.2-31.7-1.9-17.7-1.3-32.1 6.5-32.2 7.2-.2 1.4-2.2 1.3-4.2 1.8-1.7.4-2.3 2-3.5 2.9-2.2 1.6-5.9 3-9 2.2-.7-.2-4.7-.2-6.5.8-.8.5-2.1-.8-3.2-1-1.2-.2-5.7 2-7.1 2.3-.9.3-6.1.1-7.4 0-.7-.1-12-1.8-13.2-1.5-1.8.5-3 1.8-5 1.7-2.8-.2-5.6-1.6-8.2-1.6-2.8 0-7.5 1.9-10.4.4-1.2-.6-6.3-3.9-8.3-4.1-2.4-.2-6.6 1.5-9 1.4-1.5-.1-4 .5-5.5.4-1.6-.1-7.3-1.7-8.5-1.7-2.1 0-4.8 1.6-6.8 1.8-3 .2-4-2.6-8.1-2.6-2.4 0-5.4-.2-7.8-1-4.4-1.4-15.6 6.1-19.4 4.4-2.6-1.2-12.2 4.1-19.2 3.4-3.5-.4-7.2 1.7-10.8 1.7-1.9 0-3.4 1.2-5 1.6-3.1.7-7.1 8.4-13.3 11.7-7 3.7-16.2 3-16.9 3-.8 0-3.9 1.4-5.6 1.3-2.6-.2-3.2 1.3-4.7 1.7-1.5.4-3.2-.4-4.9-.7-2.7-.4-5.9 1-9.1.4-2.8-.5-5.3-.7-8.5-.7-.6 0-5.3-1.5-6.3-1.1-1.5.6-2 2.2-3.4 2.3-1.7 0-4.1.1-5.8-.7-1.1-.5-1.3-1.8-2.4-2.1-1.7-.4-3.6.4-5.6.4-2.2 0-4.6-.6-6.8-1.1-2.4-.6-6 0-8.6-.6-1.6-.4-4 .6-5.6.1-2.6-.6-5.9.1-8.7-.6-1.2-.3-2.5-.1-3.9-.2-2.2-.1-4.7.9-7 .8-1.1-.1-2-.6-3-1-1.1-.4-2.5-.1-3.8-.2-1.8-.1-3.8.7-5.7.6-.5 0-1.1-.2-1.6-.3-2-.3-4.3.1-6.4-.3-1.1-.2-2.8-.9-3.9-1.1-.9-.1-1.6.6-2.4 1-.6.2-1.3-.4-2-.4-1-.1-2.1.2-3.1.1-.6 0-2.4-.4-2.8-.7-.8-.6-2.2-.3-3.1.2-.4.3-1.2.1-1.7 0-1.2-.1-2.9.9-4 .8-.6-.1-1.5-.6-2-.6-.9-.1-2.2.4-2.9.2-.7-.1-1.4 0-2.1 0-1.5 0-3.1 1.2-4.7 1.2-1.5 0-2-.7-3.2-.8-1.2-.1-2.6.2-3.7.7-.5.2-1.2 0-1.7 0-.6 0-2.1-.3-2.7-.3-.7 0-1.6 1-2.3 1-.6 0-.9-.5-1.5-.7-.5-.2-1.3 0-1.9-.1-1.5-.1-3.3.6-4.8.6-1.2 0-2.4.3-3.3.1-1.6-.4-4-.5-6.1-.8-.2 0-.4-.1-.6-.2-.1-.1-.4.2-.7.2-.2 0-.6-.1-.7-.1-.7-.1-2 0-2.6-.1-1.1-.2-1-.9-2.2-1-3.4-.3-7.6.9-10.8.4-2.4-.4-4.9-1.4-7.4-1.7-2.8-.3-7.1 1.1-10.2.7-1-.1-4-.9-5-1.1-3.4-.4-8.2.4-11.8-.2-1.7-.3-2.2-1.1-4-1.4-2.3-.4-7.5.2-9.9-.3-1.3-.2-5.2-3.1-8.5-3.4-4-.4-7.8.4-10 .4-4 0-12.3 4.2-18.8 4.3-2.4 0-9.1 2-11.5 2.3-2.8.4-4.1-2-6.3-2-4.9-.1-15.8 3.9-20.6 3.8-7.8-.2-13.8-4.5-21.2-4.4-2.4 0-5-2.1-7.4-2-2.6.1-7.9-1-10.7-.3-5.6 1.5-8.8 5.4-13.7 5.7-7.3.5-13.2-5.8-19.9-4.7-7.2 1.2-14-3.1-20.3-3.5-5.5-.3-11.1-3-15.7-3.1-4.7-.1-9.1-5.8-14.8-7.1-8.8-1.9-19.5.1-29.7-1.3-6.8-1-14-4.2-20-2.4-13.8 4.3-29.7-2.4-34.7-6-2.6-1.9-7-1.5-10.4-2.1-7.4-1.4-16.4.4-22.1-.7-3.5-.7-8.3-1.8-11-2.2-3.1-.4-3.8-4.8-5.5-4.6-9.4.7-19.7.1-28.8-.6-3.4-.3-9.6-.6-15.8-1.2-1.9-.2-3.2-.8-3.7-1.5-1.4-1.8-5.3-.7-7.1 0-2.2.9-5.7-.1-6.8.2-.8.2-1.1-.8-1.3-1.6-.1-.7-2.5-.7-3.5-.6-1.8.1-3.1.4-4.5 1.6-2.7 2.4-10.3 3.4-14 2.1-1.1-.4-1.6-2.9-2.5-3.3-2.1-1.1-1.1-2.5-2.5-2.9-2.9-.9-6.3 1.8-9.9 1.8-6-.1-9.3 5-15.6 4.8-8.2-.3-16.1-3.1-23.4-4.2-6.9-1-13.1-4.8-20.4-4.8-3.6 0-5.9-2.5-9.6-2.5-101 1.1-220.6 15.1-287.4 28.9-108.4 22.8 32.3 261.5 154.6 289s503.2 31.6 587.8 36.4c84.6 4.7 662.9-17.4 779.7-16.8 116.8.6 394.5 4 461.4.7 66.9-3.3 158-9.4 223.7-38.9 65.7-29.4 123.7-151.1 138.1-193.6 14.4-42.4-56.4-24-56.4-24z" fill="#EA6C34"/><path fill-rule="evenodd" clip-rule="evenodd" d="M265.6 474.2c6.1-11.7-.6-43.3 2.1-51.4 1.7-5.3 15.1 2.1 15.9 6.4 2 10.2 3.5 42.1-4 55-7.5 12.9-40.9 22.5-40.9 22.5l-7.6-13.5s28.5-7.4 34.5-19zM198.7 452.7c-5.6-10.7-4.8-35.2-3.2-42.7.7-3.3 11.7-9.1 13.1-5 2.3 6.5-3 30.9 1.7 40.9 4.5 9.6 26.6 19 26.6 19l-7.8 9.6c-.1 0-24.9-11-30.4-21.8z" fill="#C74E10"/><path fill-rule="evenodd" clip-rule="evenodd" d="M252 383.2c-2.1-13.8-26.6-2.5-28.8 11.2-4.8 28.9 6.1 166.2 6.1 166.2l18.8-.1c-.1 0 8-149.6 3.9-177.3zM1523.1 471.3c-6-11.7.6-43-2-51-1.7-5.2-15 2.1-15.8 6.4-2 10.1-3.5 41.8 3.9 54.6 7.4 12.8 40.6 22.4 40.6 22.4l7.6-13.4c-.1-.2-28.4-7.5-34.3-19zM1589.5 450c5.6-10.7 4.8-35 3.2-42.4-.7-3.3-11.6-9-13-4.9-2.3 6.4 3 30.7-1.7 40.6-4.5 9.5-26.4 18.9-26.4 18.9l7.7 9.5c.1-.1 24.7-11.1 30.2-21.7z" fill="#C74E10"/><path fill-rule="evenodd" clip-rule="evenodd" d="M1536.6 381c2-13.7 26.4-2.5 28.6 11.1 4.8 28.7-6 165-6 165l-18.7-.1c0-.1-8-148.6-3.9-176zM1620.5 514.4c3.9-7-.4-25.7 1.3-30.6 1.1-3.1 9.8 1.3 10.3 3.8 1.3 6.1 2.3 25-2.6 32.7-4.8 7.7-26.5 13.4-26.5 13.4l-4.9-8c.1 0 18.5-4.4 22.4-11.3zM1577.1 501.7c-3.6-6.4-3.1-20.9-2.1-25.4.4-2 7.6-5.4 8.5-3 1.5 3.8-2 18.4 1.1 24.3 2.9 5.7 17.3 11.3 17.3 11.3l-5.1 5.7s-16.1-6.5-19.7-12.9z" fill="#C74E10"/><path fill-rule="evenodd" clip-rule="evenodd" d="M1611.7 460.4c-1.3-8.2-17.2-1.5-18.7 6.6-3.1 17.2 3.9 98.8 3.9 98.8l12.2-.1s5.3-88.9 2.6-105.3z" fill="#C74E10"/><path fill-rule="evenodd" clip-rule="evenodd" d="M802.4 540.1c2.7 0 5.4.2 8.1.4h.5c-3.5 0-7 .2-10.6.7h-.2c-3.1.4-6.1 1-9.1 1.9h-.2c-2.5.7-4.9 1.6-7.3 2.7-1 .5-2 1-3 1.6l-.6.2c-.5 0-1-.2-1.3-.6-.1-.1-.1-.2-.2-.3l-.2-.6c0-.5.2-1 .6-1.3.1-.1.2-.1.3-.2 0 0 .1-.1.3-.1 1-.4 2-.8 3.1-1.2l.6-.2c2.4-.8 4.8-1.5 7.3-2 3.2-.6 6.4-.9 9.6-1h2.3z" fill="#8B2C26"/><path fill-rule="evenodd" clip-rule="evenodd" d="M802.1 535.3c2 0 4 .2 6 .5-3.3-.2-6.7 0-9.9.8-3.1.7-6.1 1.9-8.8 3.5-2.2 1.3-4.2 2.9-6.1 4.6-.8.8-1.5 1.6-2.2 2.4-.2.2-.2.2-.5.3-.5.2-1 .1-1.4-.1-.1-.1-.2-.1-.2-.2-.2-.2-.2-.2-.3-.5-.2-.5-.1-1 .1-1.4.1-.2.2-.3.4-.4.8-.7 1.6-1.4 2.5-2.1l.1-.1c2-1.6 4.2-3 6.5-4.2 2.8-1.4 5.8-2.3 8.9-2.8 1.6-.2 3.2-.3 4.9-.3z" fill="#C74E10"/><path fill-rule="evenodd" clip-rule="evenodd" d="M756 535.1c1.4 0 2.8.1 4.2.3 3.1.4 6.1 1.3 8.9 2.6 2.6 1.2 5.1 2.8 7.3 4.6l.1.1c.9.7 1.7 1.4 2.6 2.2.2.2.2.3.3.5.2.5.1 1-.2 1.4-.1.1-.1.2-.2.2-.2.2-.3.2-.5.3-.5.2-1 .1-1.4-.2-.1-.1-.2-.1-.2-.2l-.2-.2c-.6-.7-1.3-1.5-2-2.1-1.9-1.8-3.9-3.3-6.1-4.6-2.5-1.5-5.3-2.6-8.1-3.4-3.3-.8-6.6-1.1-9.9-1h-.6c1.9-.4 3.9-.5 6-.5-.1 0 0 0 0 0z" fill="#C74E10"/><path fill-rule="evenodd" clip-rule="evenodd" d="M755.8 539.9h1.9c3.2.1 6.5.4 9.7 1 2.7.5 5.4 1.3 8 2.2 1.1.4 2.2.8 3.3 1.3.2.1.3.2.5.4.3.4.4.9.3 1.4 0 .1-.1.2-.1.3-.1.2-.2.3-.4.5-.4.3-.9.4-1.4.3-.2-.1-.4-.2-.5-.2-.9-.5-1.8-1-2.7-1.4-2.4-1.1-4.9-2-7.5-2.7-3-.9-6.2-1.5-9.3-1.9h-.2c-3.4-.4-6.9-.6-10.4-.6 2.9-.4 5.9-.6 8.8-.6z" fill="#C74E10"/><path fill-rule="evenodd" clip-rule="evenodd" d="M799.4 530.4c1.4 0 2.7.1 4 .3-3.4-.2-6.7.3-9.8 1.5-2.6 1-5.1 2.6-7.1 4.7-1.7 1.8-3.2 3.9-4.2 6.3-.5 1.1-.9 2.2-1.2 3.3-.1.2-.1.3-.3.5-.3.4-.9.5-1.3.5-.1 0-.2-.1-.3-.1-.2-.1-.3-.1-.5-.3-.4-.3-.5-.9-.5-1.3 0-.2.1-.4.2-.6.4-1 .9-1.9 1.4-2.9.2-.3.3-.6.5-.9 1.2-2 2.7-3.9 4.4-5.5 2.3-2.2 5.2-3.8 8.2-4.7 2.1-.5 4.3-.8 6.5-.8z" fill="#C74E10"/><path fill-rule="evenodd" clip-rule="evenodd" d="M758.7 530.2c2.1 0 4.2.3 6.1.8 3 .8 5.8 2.4 8.2 4.5 2.1 1.8 3.8 4.1 5.1 6.6.6 1 1.1 2.1 1.6 3.1.1.3.1.3.1.6 0 .5-.3 1-.7 1.2-.1.1-.2.1-.3.1-.3.1-.3.1-.6.1-.5 0-1-.3-1.2-.7-.1-.2-.2-.4-.2-.5-.3-.9-.6-1.8-1-2.7-.2-.4-.3-.7-.5-1.1-.9-1.8-2-3.5-3.4-5.1-1.9-2.1-4.3-3.9-7-5-1.4-.6-2.8-1-4.3-1.3-2-.4-4-.5-6.1-.4 1.4-.1 2.8-.2 4.2-.2z" fill="#C74E10"/><path fill-rule="evenodd" clip-rule="evenodd" d="M797.5 525.7h.9c-3.3.2-6.4 1.4-9 3.4-.9.7-1.8 1.5-2.5 2.4-1.2 1.4-2.3 2.9-3.1 4.6-1.2 2.2-2 4.6-2.5 7-.2 1-.4 2.1-.5 3.2l-.2.6c-.3.4-.7.7-1.2.7h-.3l-.6-.2c-.4-.3-.7-.7-.7-1.2v-.3s0-.1.1-.3c.3-1 .5-2 .9-3.1v-.1c.8-2.5 1.9-5 3.3-7.2 1.6-2.6 3.8-4.9 6.4-6.7 2.6-1.8 5.7-2.8 9-2.8-.1 0 0 0 0 0z" fill="#C74E10"/><path fill-rule="evenodd" clip-rule="evenodd" d="M760.6 525.4c2.9 0 5.9.9 8.4 2.4 2.7 1.6 5 4 6.7 6.6.1.1.1.2.2.3l1.2 2.1c.9 1.7 1.6 3.5 2.2 5.3v.1c.4 1.1.7 2.2 1 3.3v.3c0 .5-.3 1-.7 1.2-.2.1-.3.1-.6.2h-.6c-.5-.1-.9-.5-1.1-.9-.1-.2-.1-.4-.1-.6-.1-1-.3-1.9-.5-2.9-.5-2.3-1.3-4.6-2.4-6.8 0 0 0-.1-.1-.1-1.3-2.5-3.1-4.9-5.3-6.7-1.8-1.5-3.9-2.6-6.2-3.3-1.1-.3-2.2-.5-3.3-.5.6.1.9 0 1.2 0z" fill="#C74E10"/><path fill-rule="evenodd" clip-rule="evenodd" d="M791.4 521.5h.5c-.6 0-1.2.1-1.7.3-1.3.5-2.4 1.5-3.3 2.6-.8.9-1.4 1.9-2 3-1.4 2.6-2.4 5.4-3 8.4-.5 2.4-.9 4.9-1 7.3v3.5c-.1.5-.5.9-.9 1.1-.3.1-.3.1-.6.1s-.3 0-.6-.1c-.4-.2-.8-.6-.9-1.1v-.3-.3c.1-1.5.3-3.1.6-4.6.3-2 .8-3.9 1.4-5.8.9-3 2.2-6 4-8.6 1.3-1.9 2.9-3.7 5-4.8.7-.5 1.6-.7 2.5-.7z" fill="#C74E10"/><path fill-rule="evenodd" clip-rule="evenodd" d="M766.7 521.3c1.4 0 2.7.7 3.8 1.5 1.5 1.1 2.6 2.5 3.7 4 1.7 2.5 3 5.4 3.9 8.3.8 2.5 1.3 5 1.7 7.6v.2c.2 1.1.3 2.1.3 3.2 0 .3 0 .3-.1.6-.2.5-.6.8-1.1.9h-.3c-.3 0-.3 0-.6-.1-.5-.2-.8-.6-.9-1.1v-.6-2.8c-.1-2.5-.4-4.9-1-7.3-.6-2.7-1.4-5.3-2.6-7.7-1-2.1-2.3-4-4.2-5.4-.9-.7-2-1.1-3.2-1.1.2-.2.4-.2.6-.2z" fill="#C74E10"/><path fill-rule="evenodd" clip-rule="evenodd" d="M784.3 519.2s0 .1 0 0c-.1.1-.1.1 0 0H784h-.1c-.1 0 0 0-.1.1-.4.3-.7.7-.9 1.2-.6 1.1-.9 2.3-1.2 3.5-.3 1.1-.5 2.2-.7 3.3-.4 2.8-.7 5.6-.8 8.4-.1 2.4-.2 4.8-.2 7.1 0 1 .1 2 .1 3.1 0 .3 0 .3-.1.6-.2.5-.6.8-1.1.9h-.3c-.3 0-.3 0-.6-.1-.5-.2-.8-.6-.9-1.1v-.6c.1-1 .1-1.9.2-2.9v-.2c.2-2.3.4-4.6.8-6.9.4-2.9 1-5.8 1.8-8.7.5-1.8 1.1-3.5 1.8-5.2.4-.9.9-1.9 1.7-2.5 0 0 .1 0 .1-.1.3-.2.6-.3.9-.2 0 .3-.1.3-.1.3z" fill="#C74E10"/><path fill-rule="evenodd" clip-rule="evenodd" d="M774.3 519.2c-.1-.1-.1 0-.1-.1h-.4.1c.4 0 .8.2 1.1.5.7.6 1.1 1.5 1.5 2.3.8 1.6 1.3 3.3 1.8 5 .8 2.8 1.3 5.7 1.8 8.6.1.8.2 1.5.3 2.3.2 1.6.4 3.2.5 4.9V543c.1 1 .2 2 .2 3 0 .3 0 .3-.1.6-.2.5-.6.8-1.1.9h-.3c-.3 0-.3 0-.6-.1-.5-.2-.8-.6-.9-1.1v-.7c0-.9.1-1.8.1-2.6 0-2.4 0-4.7-.2-7.1v-.1c-.2-2.8-.4-5.6-.8-8.4-.3-2-.7-4-1.4-5.9-.3-.6-.5-1.3-1-1.8-.2-.3-.4-.4-.5-.5zM519 544.1c1.9.5 3.8 1.1 5.7 1.9-3.2-1-6.5-1.6-9.8-1.6-3.2 0-6.4.4-9.4 1.3-2.5.7-4.8 1.8-7 3-.9.6-1.9 1.2-2.8 1.8-.2.1-.3.2-.6.2-.5.1-1-.1-1.3-.5-.1-.1-.1-.2-.2-.2-.1-.2-.2-.3-.2-.6-.1-.5.1-1 .5-1.3.1-.1.3-.2.5-.3 1-.5 1.9-1 2.9-1.4 0 0 .1 0 .2-.1 2.4-1.1 4.8-1.9 7.4-2.5 3-.7 6.2-.8 9.3-.6 1.5.2 3.1.5 4.8.9-.1 0 0 0 0 0z" fill="#C74E10"/><path fill-rule="evenodd" clip-rule="evenodd" d="M474.3 532.8c1.4.3 2.7.8 4 1.3 2.9 1.1 5.6 2.7 8 4.7 2.2 1.8 4.2 3.9 5.9 6.2l.1.1c.7.9 1.3 1.8 1.9 2.7.1.2.2.3.2.6.1.5-.1 1-.5 1.3-.1.1-.2.1-.2.2-.2.1-.3.2-.6.2-.5.1-1-.1-1.3-.5-.1-.1-.1-.2-.2-.2 0 0-.1-.1-.1-.3-.4-.9-.9-1.7-1.4-2.6-1.4-2.2-3-4.2-4.8-6-2.1-2.1-4.5-3.8-7.1-5.2-3-1.6-6.1-2.7-9.4-3.3-.2 0-.4-.1-.6-.1 2.1 0 4.1.3 6.1.9-.1-.1 0-.1 0 0z" fill="#C74E10"/><path fill-rule="evenodd" clip-rule="evenodd" d="M518.1 548.9c2.6.7 5.2 1.5 7.8 2.4.2.1.3.1.5.2-3.4-.8-6.9-1.5-10.4-1.9h-.2c-3.1-.4-6.2-.5-9.3-.4h-.2c-2.6.1-5.2.3-7.7.8-1.1.2-2.2.5-3.3.8-.3 0-.3.1-.6 0-.5-.1-.9-.4-1.1-.9 0-.1-.1-.2-.1-.3 0-.3-.1-.3 0-.6.1-.5.4-.9.9-1.1.1 0 .2-.1.3-.1h.3c1.1-.2 2.2-.3 3.3-.4 0 0 .4 0 .7-.1 2.5-.2 5.1-.3 7.6-.2 3.2.2 6.4.6 9.6 1.3.6.1 1.2.3 1.9.5z" fill="#C74E10"/><path fill-rule="evenodd" clip-rule="evenodd" d="M472.9 537.4c.6.2 1.2.3 1.8.5 3.1.9 6.2 2 9.1 3.3 2.5 1.2 4.9 2.6 7.2 4.1 1 .6 2 1.3 2.9 2.1.2.2.2.2.4.5.2.4.2 1 0 1.4-.1.1-.1.2-.2.3-.2.2-.2.2-.5.4-.4.2-1 .2-1.4 0-.2-.1-.3-.2-.5-.4-.7-.7-1.5-1.4-2.3-2.1-2.1-1.7-4.3-3.1-6.6-4.4-2.7-1.6-5.6-2.9-8.6-4.1 0 0-.1 0-.1-.1-3.2-1.3-6.6-2.3-9.9-3.1 3 .3 5.9.9 8.7 1.6z" fill="#C74E10"/><path fill-rule="evenodd" clip-rule="evenodd" d="M517.6 538.7c1.3.3 2.6.8 3.8 1.3-3.2-1-6.6-1.3-9.8-.9-2.8.4-5.6 1.3-8 2.9-2.1 1.3-4 3.1-5.7 5-.8.9-1.4 1.9-2 2.9-.2.2-.2.3-.4.4-.4.3-1 .3-1.4.1-.1 0-.2-.1-.3-.1-.2-.2-.3-.2-.4-.4-.3-.4-.3-1-.1-1.4.1-.2.2-.3.3-.5.7-.8 1.4-1.7 2.1-2.4l.7-.7c1.7-1.7 3.5-3.1 5.6-4.3 2.8-1.5 5.9-2.4 9.1-2.6 2.1-.1 4.3.2 6.5.7-.1 0-.1 0 0 0z" fill="#C74E10"/><path fill-rule="evenodd" clip-rule="evenodd" d="M478.1 528.7c2 .5 4 1.3 5.8 2.3 2.7 1.5 5 3.8 6.8 6.4 1.6 2.3 2.7 4.9 3.4 7.6.3 1.1.6 2.3.7 3.4 0 .3 0 .3-.1.6-.1.5-.5.9-1 1-.1 0-.2 0-.3.1-.3 0-.3 0-.6-.1-.5-.1-.9-.5-1-1-.1-.2-.1-.4-.1-.6 0-.9-.1-1.9-.3-2.8-.1-.4-.1-.8-.2-1.2-.4-2-1.1-3.9-2.1-5.7-1.3-2.5-3.2-4.8-5.5-6.6-1.2-.9-2.5-1.7-3.9-2.3-1.8-.9-3.8-1.5-5.8-1.9 1.5.2 2.8.4 4.2.8z" fill="#C74E10"/><path fill-rule="evenodd" clip-rule="evenodd" d="M516.9 533.7c.3.1.6.2.9.2-3.3-.6-6.6-.2-9.6 1.2-1.1.5-2.1 1.1-3.1 1.7-1.5 1-2.9 2.3-4.1 3.7-1.7 1.9-3.1 4-4.2 6.1-.5 1-.9 1.9-1.3 2.9-.1.2-.2.3-.4.5-.4.3-.9.5-1.4.4-.1 0-.2-.1-.3-.1-.2-.1-.3-.2-.5-.4-.3-.4-.5-.9-.4-1.4 0-.1.1-.2.1-.3 0 0 .1-.1.1-.2.5-.9 1-1.9 1.6-2.7 0 0 0-.1.1-.1 1.4-2.3 3.1-4.3 5-6.2 2.2-2.1 4.9-3.9 7.9-4.9 3.1-1 6.4-1.2 9.6-.4-.1-.1-.1 0 0 0z" fill="#C74E10"/><path fill-rule="evenodd" clip-rule="evenodd" d="M481.2 524.6c2.9.7 5.5 2.3 7.6 4.4 2.2 2.2 3.8 5.1 4.9 8 0 .1.1.2.1.3.3.8.5 1.5.7 2.3.5 1.9.7 3.8.8 5.7v.1c.1 1.2.1 2.3.1 3.5 0 .1 0 .2-.1.3-.1.5-.5.9-1 1-.3.1-.3.1-.6.1s-.3 0-.6-.2c-.4-.2-.8-.7-.8-1.1v-.6c.1-1 .2-1.9.2-2.9.1-2.4-.2-4.8-.7-7.2v-.1c-.7-2.8-1.7-5.5-3.4-7.8-1.4-1.9-3.1-3.5-5.2-4.6-1-.5-2-1-3.1-1.3.5-.1.8 0 1.1.1z" fill="#C74E10"/><path fill-rule="evenodd" clip-rule="evenodd" d="M512 528.2c.2 0 .3.1.5.1-.6-.1-1.2-.2-1.7-.1-1.4.2-2.7.9-3.9 1.7-1 .7-1.9 1.5-2.7 2.4-2 2.2-3.6 4.7-5 7.4-1.1 2.2-2 4.5-2.8 6.9-.3 1-.5 2-.7 3.1 0 .1-.1.2-.1.3-.2.4-.7.8-1.2.8h-.6c-.3-.1-.3-.1-.5-.3-.4-.3-.6-.8-.6-1.3v-.3s0-.1.1-.3c.5-1.5 1.1-2.9 1.7-4.3.8-1.8 1.7-3.6 2.8-5.3 1.6-2.7 3.7-5.2 6-7.4 1.7-1.5 3.8-2.9 6-3.4.9-.2 1.8-.3 2.7 0 0-.1 0-.1 0 0z" fill="#C74E10"/><path fill-rule="evenodd" clip-rule="evenodd" d="M488.1 522c1.3.3 2.5 1.3 3.4 2.3 1.1 1.4 2 3 2.6 4.7 1 2.8 1.6 6 1.8 9 .2 2.6.1 5.2-.3 7.8v.2c-.1 1.1-.3 2.1-.5 3.2-.1.3-.1.3-.3.5-.3.4-.8.6-1.3.6h-.3c-.3-.1-.3-.1-.5-.3-.4-.3-.6-.8-.6-1.3 0-.2.1-.4.1-.6.3-.9.5-1.8.7-2.7.5-2.4.8-4.9.9-7.3.1-2.7-.1-5.5-.7-8.1-.5-2.3-1.2-4.5-2.7-6.3-.7-.9-1.7-1.6-2.8-1.9.1.1.3.1.5.2z" fill="#C74E10"/><path fill-rule="evenodd" clip-rule="evenodd" d="M505.6 524.3h-.5c-.5.2-.8.5-1.2.9-.8.9-1.5 2-2 3.1-.5 1-1 2-1.5 3.1-1.1 2.6-2.1 5.3-2.9 8-.7 2.3-1.4 4.6-1.9 6.9l-.6 3c-.1.3-.1.3-.3.5-.3.4-.8.6-1.3.6h-.3c-.3-.1-.3-.1-.5-.3-.4-.3-.6-.8-.6-1.3 0-.2.1-.4.1-.5l.9-2.7s0-.1.1-.2c.7-2.2 1.6-4.3 2.4-6.5 1.1-2.8 2.4-5.4 3.9-8 .9-1.6 1.9-3.2 3.1-4.6.7-.8 1.3-1.6 2.3-2h.1c.3-.1.6-.1.9 0h-.2z" fill="#C74E10"/><path fill-rule="evenodd" clip-rule="evenodd" d="M496 521.8c-.1 0 0 0 0 0-.1-.1-.1 0 0 0l-.2-.2h-.1-.2.1c.4.1.8.4 1 .8.5.8.7 1.7.9 2.6.3 1.7.5 3.5.5 5.3.1 2.9-.1 5.8-.4 8.7-.1.8-.2 1.6-.3 2.3-.2 1.6-.4 3.2-.7 4.8V546.4c-.2 1-.3 1.9-.5 2.9-.1.3-.1.3-.3.5-.3.4-.8.6-1.3.6h-.3c-.3-.1-.3-.1-.5-.3-.4-.3-.6-.8-.6-1.3 0-.2.1-.5.2-.7.3-.8.5-1.7.8-2.5.6-2.3 1.1-4.6 1.6-6.9v-.1c.5-2.8 1-5.6 1.3-8.4.2-2 .3-4 .1-6-.1-.7-.2-1.4-.5-2-.4-.1-.5-.2-.6-.4z" fill="#C74E10"/><path fill-rule="evenodd" clip-rule="evenodd" d="M137 538c4.3.3 8.5.9 12.6 1.6.2 0 .5.1.7.1-5.5-.4-11-.5-16.6-.2h-.3c-4.9.3-9.7.9-14.5 1.9 0 0-.2 0-.3.1-4 .8-7.9 1.9-11.7 3.4-1.7.6-3.3 1.4-4.9 2.1-.4.1-.5.2-.9.2-.8 0-1.5-.4-2-1-.1-.1-.2-.3-.2-.4-.1-.4-.2-.5-.2-.9 0-.8.4-1.5 1.1-2 .1-.1.3-.2.4-.2l.4-.2c1.6-.6 3.3-1.1 4.9-1.5 0 0 .5-.2 1-.3 3.8-1 7.7-1.8 11.7-2.3h.1c5-.6 10.1-.7 15.2-.5h.1c1.3 0 2.3.1 3.4.1z" fill="#8B2C26"/><path fill-rule="evenodd" clip-rule="evenodd" d="M137.1 530.5c3.1.2 6.2.7 9.3 1.5-5.2-.7-10.4-.7-15.5.1-4.9.8-9.7 2.3-14.2 4.5-3.6 1.8-7 4-10 6.5-1.3 1.1-2.6 2.3-3.8 3.5-.3.2-.4.3-.8.5-.7.2-1.6.1-2.2-.3-.1-.1-.2-.2-.4-.3-.2-.3-.3-.4-.5-.8-.2-.7-.1-1.6.3-2.2.2-.2.4-.4.7-.6 1.3-1 2.7-2 4.1-3 0 0 .1-.1.2-.1 3.4-2.3 6.9-4.3 10.7-5.8 4.5-1.8 9.3-3 14.2-3.4 2.5-.2 5.1-.2 7.6 0 .2-.1.3-.1.3-.1z" fill="#C74E10"/><path fill-rule="evenodd" clip-rule="evenodd" d="M65.1 524.9c2.2.2 4.4.5 6.6.9 4.7 1 9.4 2.7 13.6 5 3.9 2.2 7.6 4.9 10.9 8l.2.2c1.3 1.2 2.6 2.4 3.8 3.7.2.3.3.4.4.8.2.7.1 1.6-.4 2.2l-.3.3c-.3.2-.4.3-.8.4-.7.2-1.6.1-2.2-.4l-.3-.3s-.2-.2-.3-.4c-.9-1.2-1.9-2.4-2.9-3.6-2.7-3-5.7-5.6-9-7.9-3.7-2.6-7.9-4.7-12.3-6.2-5-1.6-10.2-2.5-15.4-2.7h-.9c3.1-.3 6.3-.3 9.4-.1-.2.1-.2.1-.1.1z" fill="#C74E10"/><path fill-rule="evenodd" clip-rule="evenodd" d="M64.2 532.4c1 .1 2 .2 2.9.3 5 .5 10.1 1.4 14.9 2.7 4.2 1.1 8.3 2.6 12.2 4.4 1.7.7 3.4 1.5 5.1 2.4.3.3.4.3.7.6.5.6.6 1.5.3 2.2-.1.2-.1.3-.2.4-.3.3-.3.4-.6.7-.6.5-1.5.6-2.2.3-.3-.1-.6-.3-.8-.4-1.3-.9-2.7-1.7-4.1-2.5-3.6-2-7.4-3.7-11.3-5.1-4.6-1.7-9.4-3-14.3-4h-.2c-5.3-1.1-10.8-1.8-16.2-2.2 4.7-.1 9.2-.1 13.8.2z" fill="#C74E10"/><path fill-rule="evenodd" clip-rule="evenodd" d="M133.4 522.6c2.1.2 4.2.5 6.3 1-5.2-.6-10.5-.3-15.4 1.2-4.2 1.3-8.2 3.6-11.6 6.6-2.9 2.6-5.4 5.8-7.3 9.3-.9 1.6-1.7 3.4-2.3 5.1-.2.4-.2.5-.6.8-.6.5-1.4.7-2.1.6-.2 0-.3-.1-.5-.2-.4-.2-.5-.2-.8-.6-.5-.6-.7-1.4-.6-2.1.1-.3.2-.6.4-.9.8-1.5 1.7-2.9 2.6-4.3.3-.4.6-.9.9-1.3 2.1-3 4.6-5.8 7.5-8.1 3.9-3.1 8.5-5.3 13.3-6.4 3.3-.8 6.7-1 10.2-.7-.1-.1 0 0 0 0z" fill="#C74E10"/><path fill-rule="evenodd" clip-rule="evenodd" d="M69.9 517.6c3.2.2 6.4.9 9.5 2 4.6 1.7 8.8 4.5 12.2 8 3 3.1 5.5 6.9 7.3 10.9.8 1.6 1.5 3.4 2.1 5.1.1.4.1.5.1.9-.1.8-.6 1.5-1.3 1.8-.1.1-.3.1-.4.2-.4.1-.5.1-.9.1-.8-.1-1.5-.6-1.8-1.3l-.3-.9c-.3-1.4-.7-2.9-1.2-4.3-.2-.6-.4-1.2-.7-1.7-1.2-3-2.8-5.8-4.8-8.3-2.8-3.6-6.2-6.5-10.3-8.6-2.1-1.1-4.3-1.9-6.6-2.6-3.1-.8-6.2-1.3-9.4-1.3 2.1-.2 4.2-.2 6.3-.1.1.1.1.1.2.1z" fill="#C74E10"/><path fill-rule="evenodd" clip-rule="evenodd" d="M130.9 514.9c.5 0 .9.1 1.4.1-5.2-.1-10.2 1.5-14.5 4.3-1.5 1-2.9 2.2-4.3 3.5-2.1 2-3.9 4.3-5.4 6.8-2.1 3.4-3.6 6.9-4.8 10.6-.5 1.6-.9 3.2-1.2 4.9-.1.4-.2.5-.4.8-.5.6-1.2 1-2 .9-.2 0-.3 0-.5-.1-.4-.1-.5-.2-.8-.4-.6-.5-1-1.2-.9-2 0-.2 0-.3.1-.5 0 0 .1-.2.1-.4.5-1.6 1.1-3.1 1.7-4.7 0 0 0-.1.1-.2 1.6-3.9 3.6-7.5 6-10.8 2.9-3.8 6.5-7.3 10.8-9.7 4.4-2.4 9.4-3.6 14.3-3.3.2.2.3.2.3.2z" fill="#C74E10"/><path fill-rule="evenodd" clip-rule="evenodd" d="M73.4 510.4c4.6.3 9.1 2 12.9 4.7 4.1 2.9 7.3 6.8 9.7 11.1.1.2.2.3.3.5.6 1.1 1.2 2.2 1.7 3.4 1.2 2.8 2.2 5.6 2.9 8.5v.1c.5 1.8.8 3.5 1.1 5.3v.5c-.1.8-.5 1.5-1.2 1.9-.4.2-.5.2-.9.3-.4 0-.5 0-.9-.1-.7-.2-1.3-.8-1.6-1.6-.1-.3-.1-.6-.1-.9-.1-1.5-.2-3-.4-4.5-.6-3.7-1.6-7.4-3-10.9 0-.1-.1-.1-.1-.2-1.8-4.1-4.2-8-7.4-11.1-2.7-2.6-5.8-4.6-9.2-5.8-1.6-.6-3.3-1-5.1-1.2h1.3z" fill="#C74E10"/><path fill-rule="evenodd" clip-rule="evenodd" d="M122 507.7c.3 0 .5.1.7.1-.9-.1-1.8.1-2.7.3-2.1.6-4 2-5.5 3.6-1.3 1.3-2.4 2.8-3.5 4.4-2.5 3.9-4.3 8.2-5.6 12.7-1.1 3.7-1.9 7.5-2.4 11.3-.2 1.6-.3 3.3-.3 4.9 0 .2 0 .3-.1.5-.2.7-.8 1.3-1.6 1.6-.4.1-.5.1-.9.1-.4-.1-.5-.1-.9-.3-.7-.4-1.2-1.1-1.3-1.8v-.5s0-.2.1-.4c.4-2.4.8-4.7 1.4-7.1.7-3 1.7-6 2.8-8.9 1.8-4.6 4.2-9.1 7.3-12.9 2.2-2.8 5-5.5 8.3-6.9 1.3-.5 2.7-.8 4.2-.7-.1 0 0 0 0 0z" fill="#C74E10"/><path fill-rule="evenodd" clip-rule="evenodd" d="M83.3 504.6c2.2.2 4.2 1.3 5.8 2.7 2.1 1.8 3.8 4.1 5.3 6.6 2.4 4.1 4.1 8.8 5.2 13.4 1 4 1.5 8 1.7 12.1v.2c.1 1.7.2 3.3.2 5-.1.4-.1.5-.2.9-.3.7-1 1.2-1.8 1.3H99c-.4-.1-.5-.1-.9-.2-.7-.3-1.2-1-1.3-1.8v-.9c.2-1.5.3-2.9.4-4.4.1-3.9-.1-7.7-.7-11.5-.6-4.2-1.6-8.4-3.2-12.3-1.4-3.4-3.1-6.6-5.9-8.9-1.4-1.1-3-2-4.9-2.1.3-.1.6-.1.8-.1z" fill="#C74E10"/><path fill-rule="evenodd" clip-rule="evenodd" d="M111.1 503.4s-.1 0 0 0h-.7c-.1.1 0 0-.2.1h-.1c-.7.4-1.2 1-1.6 1.7-1 1.6-1.7 3.5-2.3 5.3-.5 1.7-1 3.4-1.4 5.2-1 4.3-1.7 8.7-2.3 13.1-.5 3.7-.9 7.4-1.1 11.1-.1 1.6-.1 3.2-.1 4.8-.1.4-.1.5-.3.9-.4.7-1.1 1.2-1.8 1.3h-.5c-.4-.1-.5-.1-.9-.3-.7-.4-1.2-1.1-1.3-1.8v-.9c.2-1.5.5-3 .7-4.4v-.3c.6-3.6 1.2-7.1 2-10.6 1-4.5 2.3-9 3.8-13.4 1-2.7 2.1-5.4 3.5-7.9.8-1.4 1.6-2.8 3-3.7l.1-.1c.4-.2.9-.4 1.4-.3.2.2.1.2.1.2-.1 0 0 0 0 0z" fill="#C74E10"/><path fill-rule="evenodd" clip-rule="evenodd" d="M95.5 502.3c-.1 0 0 0 0 0-.1-.1-.1-.1-.2-.1l-.1-.1c-.1 0 0 0-.1-.1H95h-.4.1c.7 0 1.3.5 1.7.9 1 1.1 1.5 2.4 2.1 3.8 1 2.6 1.7 5.3 2.2 8 .9 4.4 1.4 9 1.8 13.6.1 1.2.2 2.4.2 3.7.1 2.5.2 5.1.2 7.6v5c-.1.4-.1.5-.3.9-.3.7-1 1.2-1.8 1.3h-.5c-.4-.1-.5-.1-.9-.2-.7-.3-1.2-1-1.3-1.8 0-.4 0-.7.1-1.1.2-1.4.3-2.7.5-4.1.3-3.7.5-7.4.6-11v-.1c.1-4.4 0-8.8-.3-13.3-.3-3.2-.6-6.3-1.5-9.3-.3-1-.7-2.1-1.4-2.9-.2-.3-.4-.5-.6-.7zM1213.3 572.2c2 0 4 .2 6 .5-3.3-.2-6.7 0-9.9.8-3.1.7-6.1 1.9-8.8 3.5-2.2 1.3-4.2 2.9-6.1 4.6-.8.8-1.5 1.6-2.2 2.4-.2.2-.2.2-.5.3-.5.2-1 .1-1.4-.1-.1-.1-.2-.1-.2-.2-.2-.2-.2-.2-.3-.5-.2-.5-.1-1 .1-1.4.1-.2.2-.3.4-.4.8-.7 1.6-1.4 2.5-2.1l.1-.1c2-1.6 4.2-3 6.5-4.2 2.8-1.4 5.8-2.3 8.9-2.8 1.6-.1 3.2-.3 4.9-.3-.1 0-.1 0 0 0z" fill="#C74E10"/><path fill-rule="evenodd" clip-rule="evenodd" d="M1167.1 572c1.4 0 2.8.1 4.2.3 3.1.4 6.1 1.3 8.9 2.6 2.6 1.2 5.1 2.8 7.3 4.6l.1.1c.9.7 1.7 1.4 2.6 2.2.2.2.2.3.3.5.2.5.1 1-.2 1.4-.1.1-.1.2-.2.2-.2.2-.3.2-.5.3-.5.2-1 .1-1.4-.2-.1-.1-.2-.1-.2-.2l-.2-.2c-.6-.7-1.3-1.5-2-2.1-1.9-1.8-3.9-3.3-6.1-4.6-2.5-1.5-5.3-2.6-8.1-3.4-3.3-.8-6.6-1.1-9.9-1h-.6c1.9-.3 3.9-.5 6-.5z" fill="#C74E10"/><path fill-rule="evenodd" clip-rule="evenodd" d="M1213.6 577.1c2.7 0 5.4.2 8.1.4h.5c-3.5 0-7 .2-10.6.7h-.2c-3.1.4-6.1 1-9.1 1.9h-.2c-2.5.7-4.9 1.6-7.3 2.7-1 .5-2 1-3 1.6l-.6.2c-.5 0-1-.2-1.3-.6-.1-.1-.1-.2-.2-.3l-.2-.6c0-.5.2-1 .6-1.3.1-.1.2-.1.3-.2 0 0 .1-.1.3-.1 1-.4 2-.8 3.1-1.2l.6-.2c2.4-.8 4.8-1.5 7.3-2 3.2-.6 6.4-.9 9.6-1h2.3z" fill="#C74E10"/><path fill-rule="evenodd" clip-rule="evenodd" d="M1166.9 576.9h1.9c3.2.1 6.5.4 9.7 1 2.7.5 5.4 1.3 8 2.2 1.1.4 2.2.8 3.3 1.3.2.1.3.2.5.4.3.4.4.9.3 1.4 0 .1-.1.2-.1.3-.1.2-.2.3-.4.5-.4.3-.9.4-1.4.3-.2-.1-.4-.2-.5-.2-.9-.5-1.8-1-2.7-1.4-2.4-1.1-4.9-2-7.5-2.7-3-.9-6.2-1.5-9.3-1.9h-.2c-3.4-.4-6.9-.6-10.4-.6 3-.5 5.9-.6 8.8-.6z" fill="#C74E10"/><path fill-rule="evenodd" clip-rule="evenodd" d="M1210.5 567.4c1.4 0 2.7.1 4 .3-3.4-.2-6.7.3-9.8 1.5-2.6 1-5.1 2.6-7.1 4.7-1.7 1.8-3.2 3.9-4.2 6.3-.5 1.1-.9 2.2-1.2 3.3-.1.2-.1.3-.3.5-.3.4-.9.5-1.3.5-.1 0-.2-.1-.3-.1-.2-.1-.3-.1-.5-.3-.4-.3-.5-.9-.5-1.3 0-.2.1-.4.2-.6.4-1 .9-1.9 1.4-2.9.2-.3.3-.6.5-.9 1.2-2 2.7-3.9 4.4-5.5 2.3-2.2 5.2-3.8 8.2-4.7 2.2-.5 4.3-.8 6.5-.8z" fill="#C74E10"/><path fill-rule="evenodd" clip-rule="evenodd" d="M1169.9 567.2c2.1 0 4.2.3 6.1.8 3 .8 5.8 2.4 8.2 4.5 2.1 1.8 3.8 4.1 5.1 6.6.6 1 1.1 2.1 1.6 3.1.1.3.1.3.1.6 0 .5-.3 1-.7 1.2-.1.1-.2.1-.3.1-.3.1-.3.1-.6.1-.5 0-1-.3-1.2-.7-.1-.2-.2-.4-.2-.5-.3-.9-.6-1.8-1-2.7-.2-.4-.3-.7-.5-1.1-.9-1.8-2-3.5-3.4-5.1-1.9-2.1-4.3-3.9-7-5-1.4-.6-2.8-1-4.3-1.3-2-.4-4-.5-6.1-.4 1.4-.1 2.7-.2 4.2-.2-.1 0-.1 0 0 0z" fill="#C74E10"/><path fill-rule="evenodd" clip-rule="evenodd" d="M1208.6 562.6h.9c-3.3.2-6.4 1.4-9 3.4-.9.7-1.8 1.5-2.5 2.4-1.2 1.4-2.3 2.9-3.1 4.6-1.2 2.2-2 4.6-2.5 7-.2 1-.4 2.1-.5 3.2l-.2.6c-.3.4-.7.7-1.2.7h-.3l-.6-.2c-.4-.3-.7-.7-.7-1.2v-.3s0-.1.1-.3c.3-1 .5-2 .9-3.1v-.1c.8-2.5 1.9-5 3.3-7.2 1.6-2.6 3.8-4.9 6.4-6.7 2.6-1.8 5.8-2.8 9-2.8z" fill="#C74E10"/><path fill-rule="evenodd" clip-rule="evenodd" d="M1171.8 562.4c2.9 0 5.9.9 8.4 2.4 2.7 1.6 5 4 6.7 6.6.1.1.1.2.2.3l1.2 2.1c.9 1.7 1.6 3.5 2.2 5.3v.1c.4 1.1.7 2.2 1 3.3v.3c0 .5-.3 1-.7 1.2-.2.1-.3.1-.6.2h-.6c-.5-.1-.9-.5-1.1-.9-.1-.2-.1-.4-.1-.6-.1-1-.3-1.9-.5-2.9-.5-2.3-1.3-4.6-2.4-6.8 0 0 0-.1-.1-.1-1.3-2.5-3.1-4.9-5.3-6.7-1.8-1.5-3.9-2.6-6.2-3.3-1.1-.3-2.2-.5-3.3-.5h1.2z" fill="#C74E10"/><path fill-rule="evenodd" clip-rule="evenodd" d="M1202.6 558.5h.5c-.6 0-1.2.1-1.7.3-1.3.5-2.4 1.5-3.3 2.6-.8.9-1.4 1.9-2 3-1.4 2.6-2.4 5.4-3 8.3-.5 2.4-.9 4.9-1 7.3v3.5c-.1.5-.5.9-.9 1.1-.3.1-.3.1-.6.1s-.3 0-.6-.1c-.4-.2-.8-.6-.9-1.1v-.3-.3c.1-1.5.3-3.1.6-4.6.3-2 .8-3.9 1.4-5.8.9-3 2.2-6 4-8.6 1.3-1.9 2.9-3.7 5-4.8.7-.4 1.5-.6 2.5-.6-.1 0 0 0 0 0z" fill="#C74E10"/><path fill-rule="evenodd" clip-rule="evenodd" d="M1177.8 558.3c1.4 0 2.7.7 3.8 1.5 1.5 1.1 2.6 2.5 3.7 4 1.7 2.5 3 5.4 3.9 8.3.8 2.5 1.3 5 1.7 7.6v.2c.2 1.1.3 2.1.3 3.2 0 .3 0 .3-.1.6-.2.5-.6.8-1.1.9h-.3c-.3 0-.3 0-.6-.1-.5-.2-.8-.6-.9-1.1v-.6-2.8c-.1-2.5-.4-4.9-1-7.3-.6-2.7-1.4-5.3-2.6-7.7-1-2.1-2.3-4-4.2-5.4-.9-.7-2-1.1-3.2-1.1.3-.2.4-.2.6-.2z" fill="#C74E10"/><path fill-rule="evenodd" clip-rule="evenodd" d="M1195.4 556.2c-.1 0 0 0 0 0H1195.1h-.1c-.1 0 0 0-.1.1-.4.3-.7.7-.9 1.2-.6 1.1-.9 2.3-1.2 3.5-.3 1.1-.5 2.2-.7 3.3-.4 2.8-.7 5.6-.8 8.4-.1 2.4-.2 4.8-.2 7.1 0 1 .1 2 .1 3.1 0 .3 0 .3-.1.6-.2.5-.6.8-1.1.9h-.3c-.3 0-.3 0-.6-.1-.5-.2-.8-.6-.9-1.1v-.6c.1-1 .1-1.9.2-2.9v-.2c.2-2.3.4-4.6.8-6.9.4-2.9 1-5.8 1.8-8.7.5-1.8 1.1-3.5 1.8-5.2.4-.9.9-1.9 1.7-2.5 0 0 .1 0 .1-.1.3-.2.6-.3.9-.2 0 .3 0 .3-.1.3z" fill="#C74E10"/><path fill-rule="evenodd" clip-rule="evenodd" d="M1185.4 556.2c-.1-.1-.1 0-.1-.1h-.4.1c.4 0 .8.2 1.1.5.7.6 1.1 1.5 1.5 2.3.8 1.6 1.3 3.3 1.8 5 .8 2.8 1.3 5.7 1.8 8.6.1.8.2 1.5.3 2.3.2 1.6.4 3.2.5 4.9V580c.1 1 .2 2 .2 3 0 .3 0 .3-.1.6-.2.5-.6.8-1.1.9h-.3c-.3 0-.3 0-.6-.1-.5-.2-.8-.6-.9-1.1v-.7c0-.9.1-1.8.1-2.6 0-2.4 0-4.7-.2-7.1v-.1c-.2-2.8-.4-5.6-.8-8.4-.3-2-.7-4-1.4-5.9-.3-.6-.5-1.3-1-1.8-.2-.3-.3-.4-.5-.5zM1312.1 574.3c-2.7-2.1 1.3-7.7 3.3-9.6 2-1.9 7-.6 8.9-1.7 1.7-.9 1-4.7 2.9-5 2.4-.3 8.7 1 11.5 2.9 2.8 1.9 4.8 6.5 5.3 8.6.4 1.5-1 3.2-2.3 4.1-2 1.4-6.2 4.1-9.7 4.2-4.9.1-17.1-1.3-19.9-3.5zM1096.7 576.1c-2.9-2.3 1.7-6.8 4.1-8.2 2.4-1.4 7.9.5 10.2-.2 1.9-.6 1.3-4.1 3.5-4.1 2.7 0 9.9 2.2 13 4.4 3.1 2.2 5.2 6.6 5.7 8.6.3 1.4-1.3 2.7-2.8 3.4-2.3.9-7.2 2.8-11.3 2.3-5.6-.6-19.3-3.8-22.4-6.2zM605.6 562.4c-1.7-1.2.7-4.3 1.9-5.4 1.2-1 4.3-.3 5.5-.9 1-.5.5-2.7 1.7-2.8 1.5-.2 5.4.6 7.1 1.7 1.7 1.1 3 3.7 3.3 4.9.2.9-.6 1.8-1.4 2.3-1.2.8-3.8 2.3-5.9 2.3-3 .1-10.5-.8-12.2-2.1z" fill="#C74E10"/><path fill-rule="evenodd" clip-rule="evenodd" d="M609.5 561.3c2.3-1.4-.7-4.8-2.3-5.9-1.6-1.1-5.8-.2-7.4-.8-1.4-.5-.6-2.9-2.2-3-2-.1-7.4.9-9.8 2.2-2.4 1.3-4.3 4.2-4.9 5.6-.4 1 .7 2 1.7 2.5 1.6.8 5 2.4 8 2.4 4.2-.2 14.5-1.5 16.9-3z" fill="#C74E10"/><path fill-rule="evenodd" clip-rule="evenodd" d="M616.9 539c-.8-2.6-4.9-.5-6.4.7-1.5 1.3-1.6 5.5-2.6 6.9-.9 1.2-3-.2-3.5 1.3-.6 1.9-1 7.3-.3 9.9.7 2.7 3.1 5.2 4.3 6.1.9.6 2.1-.2 2.9-1 1.2-1.3 3.6-4.2 4.3-7.1.8-3.9 2.1-14.1 1.3-16.8zM296.7 555.4c-2.7-2.1 1.3-7.7 3.3-9.6 2-1.9 7-.6 8.9-1.7 1.7-.9 1-4.7 2.9-5 2.4-.3 8.7 1 11.5 2.9 2.8 1.9 4.8 6.5 5.3 8.6.4 1.5-1 3.2-2.3 4.1-2 1.4-6.2 4.1-9.7 4.2-5 .2-17.1-1.3-19.9-3.5zM12.9 523.3c-1.7-1.6 1.1-5.9 2.5-7.4s4.8-.5 6.1-1.4c1.2-.7.8-3.6 2.1-3.8 1.6-.3 5.9.7 7.8 2.2 1.9 1.5 3.1 5 3.4 6.6.2 1.2-.8 2.5-1.7 3.1-1.4 1.1-4.4 3.2-6.8 3.3-3.4.1-11.6-.9-13.4-2.6zM-58.1 533.2c-5.3-4.2 2.2-16.3 6.1-20.4 3.9-4.1 13.6-1.8 17.4-4.3 3.2-2.1 1.7-10 5.4-10.7 4.7-.9 17.1 1.3 22.6 5.1S3 516.2 4 520.6c.7 3.2-1.9 6.8-4.4 8.8-3.9 3.1-12 9.2-18.9 9.7-9.5.6-33.3-1.5-38.8-5.9z" fill="#C74E10"/><path fill-rule="evenodd" clip-rule="evenodd" d="M-186 554.765s76.594-21.331 121.39-25.727c13-1.297 44.097-5.765 79.494-7.927 22.098-1.37 55.595 10.377 77.493 12.971 11.699 1.442 34.398-6.341 46.497-7.134 15.498-1.081 39.996 7.639 47.796 11.674 28.197 14.414 69.094 6.847 110.691 4.685 10.199-.577 105.491-.865 121.09-.937 17.099-.072 25.898-5.982 57.395-5.189 30.598.793 32.598 8.288 53.096 9.801 25.498 1.874 69.594 4.612 87.593 3.099 41.596-3.603 105.291-4.901 158.387-14.125 18.199-3.171 67.695-1.153 70.894 1.297 9.1 6.919 37.297 4.829 51.796 7.063 25.798 3.963 62.995-4.396 85.993-.649 13.899 2.234 28.495-6.99 43.695-2.81 5.8 1.585 15.5 6.918 22 8.359 54.8 12.467 130.79 17.368 190.18 12.539 87-7.134 161.09-18.232 212.09-14.845 47.39 3.171 129.39-20.467 196.68-4.612 90.49 21.331 300.78-19.53 398.27-.361 101.69 19.963-29.7 231.762-143.79 256.193-114.09 24.358-469.56 28.105-548.45 32.285-79 4.18-618.555-15.422-727.546-14.918-108.991.505-368.07 3.532-430.465.649-62.395-2.883-147.488-8.36-208.783-34.447-61.295-26.088-115.691-134.186-129.09-171.804-13.399-37.69-44.396-55.13-44.396-55.13z" fill="#C74E10"/></svg>