<svg width="100" height="69" fill="none" xmlns="http://www.w3.org/2000/svg" viewBox="0 0 100 69"><path d="M7.634 40.738C7.973 19.834 25.076 2.99 46.126 2.99c19.53 0 35.663 14.498 38.165 33.291h.748C83.694 16.021 66.785 0 46.126 0c-21.54 0-39 17.41-39 38.884 0 .637.018 1.266.05 1.896l.458-.042z" fill="#004F9E"/><path d="M29.563 11.586l.459-.007c.243-.003.508-.007.8-.007.294 0 .586-.003.879-.007.293-.003.53-.007.713-.007 1.171 0 2.046.25 2.631.746.586.496.879 1.189.879 2.072 0 .974-.328 1.705-.988 2.194-.66.49-1.56.732-2.702.732h-.413v3.542h-2.258v-9.258zm2.262 4.225h.575c.31 0 .582-.106.808-.32.229-.215.342-.55.342-1.006 0-.384-.096-.714-.283-1-.187-.28-.5-.428-.938-.435-.12 0-.219.003-.3.006-.081.004-.152.011-.205.022v2.733zM39.78 16.032a1.18 1.18 0 0 0-.343.253c-.109.113-.2.26-.275.437-.074.179-.109.39-.109.636v3.486h-2.166v-3.556c0-.549-.039-1-.117-1.361a4.596 4.596 0 0 0-.268-.883 2.24 2.24 0 0 0-.37-.616l1.743-.545c.074.092.151.197.233.313.063.102.134.229.204.383.074.155.134.335.18.535.23-.436.501-.753.815-.943.314-.19.688-.288 1.118-.288.19 0 .364.018.515.05.152.031.276.066.378.101l-.561 2.065a1.3 1.3 0 0 0-.646-.151.783.783 0 0 0-.331.084zM46.807 14.773c.497.619.748 1.477.748 2.571 0 .52-.067.999-.198 1.442a3.21 3.21 0 0 1-.603 1.147c-.268.323-.607.58-1.016.767-.406.186-.878.281-1.418.281-.547 0-1.023-.08-1.418-.24a2.404 2.404 0 0 1-.974-.689 2.981 2.981 0 0 1-.56-1.1 5.305 5.305 0 0 1-.184-1.457c0-.52.067-1.002.197-1.449.134-.446.335-.83.604-1.153.268-.324.606-.58 1.016-.767.405-.187.885-.282 1.432-.282 1.083 0 1.877.31 2.374.929zm-2.914.84a.924.924 0 0 0-.254.398 2.45 2.45 0 0 0-.123.594 6.917 6.917 0 0 0-.036.74c0 .274.015.534.043.78.028.246.074.46.144.644a.94.94 0 0 0 .297.429.73.73 0 0 0 .48.158.58.58 0 0 0 .412-.151.995.995 0 0 0 .254-.405c.06-.169.099-.366.124-.594.02-.229.035-.468.035-.725 0-.281-.014-.545-.042-.788a2.604 2.604 0 0 0-.145-.636.94.94 0 0 0-.296-.43.73.73 0 0 0-.48-.158.609.609 0 0 0-.413.145zM52.286 13.981h2.166v3.57c0 .546.035 1.003.11 1.369.074.366.158.657.26.876.11.263.237.47.385.615l-1.743.545a1.866 1.866 0 0 1-.247-.313 2.677 2.677 0 0 1-.399-.943c-.236.43-.564.743-.98.936a3.124 3.124 0 0 1-1.351.296c-.357 0-.66-.057-.91-.173a1.605 1.605 0 0 1-.618-.478 1.888 1.888 0 0 1-.342-.746 4.396 4.396 0 0 1-.102-.985v-4.569h2.18v4.281c0 .32.039.577.116.774a.429.429 0 0 0 .43.295c.258 0 .495-.172.713-.513.22-.341.328-.813.328-1.414V13.98h.004zM60.855 20.953l-.081-.095a1.323 1.323 0 0 1-.19-.26 3.014 3.014 0 0 1-.22-.43 2.562 2.562 0 0 1-.165-.58c-.155.43-.385.76-.684.992-.304.232-.699.348-1.193.348-.448 0-.84-.08-1.171-.246a2.253 2.253 0 0 1-.83-.69 3.035 3.035 0 0 1-.486-1.072 5.685 5.685 0 0 1-.159-1.393c0-.52.085-1.002.254-1.45.17-.446.406-.83.706-1.153a3.24 3.24 0 0 1 1.083-.76 3.463 3.463 0 0 1 1.665-.26c.095.01.194.018.296.028v-2.979l2.166.355v6.247c0 .538.04.989.117 1.354.078.366.162.658.254.883.092.225.176.38.26.471l.124.152-1.746.538zm-1.788-1.79c.123-.12.229-.278.32-.479.092-.2.163-.429.212-.69.05-.26.074-.534.074-.826v-1.586a1.217 1.217 0 0 0-.268-.074 1.678 1.678 0 0 0-.296-.035 1 1 0 0 0-.55.144 1.01 1.01 0 0 0-.35.398 1.932 1.932 0 0 0-.183.608 5.18 5.18 0 0 0-.057.767c0 .257.004.5.014.731.011.233.04.44.089.623.05.183.12.327.211.436a.475.475 0 0 0 .385.166.613.613 0 0 0 .398-.183zM26.074 22.402c.328 0 .646.028.953.08.307.057.592.124.857.205.265.08.505.176.72.281.215.106.399.211.554.32l-.794 1.506c-.11-.057-.244-.127-.399-.212a6.038 6.038 0 0 0-.5-.253c-.18-.08-.36-.15-.547-.204a1.867 1.867 0 0 0-.544-.08c-.32 0-.557.066-.712.196a.63.63 0 0 0-.233.5c.01.155.046.292.11.411.063.12.158.236.288.349.127.112.293.225.494.334.201.109.448.225.741.34.367.156.684.314.96.48.275.165.5.351.677.558.18.211.314.447.406.711.091.264.137.57.137.915 0 .418-.074.812-.226 1.181a2.78 2.78 0 0 1-.652.964 3.01 3.01 0 0 1-1.03.644 3.754 3.754 0 0 1-1.358.232c-.357 0-.699-.032-1.023-.095a5.77 5.77 0 0 1-.9-.246 7.58 7.58 0 0 1-1.344-.64l.74-1.615a7.12 7.12 0 0 0 .946.538c.219.106.445.197.67.282.23.08.434.123.618.123.384 0 .666-.088.843-.268.18-.179.268-.429.268-.76 0-.326-.113-.576-.335-.745-.226-.169-.543-.334-.953-.5a8.43 8.43 0 0 1-1.069-.52 3.449 3.449 0 0 1-.786-.616 2.402 2.402 0 0 1-.494-.766 2.64 2.64 0 0 1-.173-.985c0-.412.085-.777.254-1.101.17-.324.395-.602.677-.834a3.04 3.04 0 0 1 .981-.534 3.947 3.947 0 0 1 1.178-.176zM30.477 34.804v-6.577c0-.546-.039-1-.116-1.362a4.586 4.586 0 0 0-.269-.882 2.294 2.294 0 0 0-.37-.616l1.743-.545c.11.109.211.242.303.397a3.38 3.38 0 0 1 .385 1.16c.173-.52.412-.91.72-1.167.306-.26.705-.39 1.199-.39.43 0 .808.08 1.132.246.325.165.593.394.808.69.215.295.374.654.48 1.072.106.419.159.89.159 1.407 0 .51-.081.989-.247 1.428a3.492 3.492 0 0 1-.692 1.15c-.296.324-.645.58-1.048.767a3.059 3.059 0 0 1-1.301.281c-.258 0-.494-.028-.713-.08v2.652l-2.173.369zm2.776-8.227c-.123.112-.229.264-.32.45a2.622 2.622 0 0 0-.212.658c-.05.25-.074.514-.074.784v1.71c.063.017.151.038.26.063.11.025.212.035.304.035.219 0 .402-.05.55-.144a1.04 1.04 0 0 0 .35-.398c.088-.168.148-.369.183-.601a5.06 5.06 0 0 0 .057-.76c0-.253-.004-.5-.015-.738a2.946 2.946 0 0 0-.088-.63 1.121 1.121 0 0 0-.211-.436.475.475 0 0 0-.385-.165.599.599 0 0 0-.399.172zM42.877 25.712c.498.619.748 1.477.748 2.57 0 .521-.067 1-.197 1.443a3.211 3.211 0 0 1-.604 1.146c-.268.324-.606.58-1.016.767-.405.187-.878.282-1.418.282-.547 0-1.023-.081-1.418-.24a2.404 2.404 0 0 1-.974-.689 2.984 2.984 0 0 1-.56-1.1 5.31 5.31 0 0 1-.184-1.457c0-.52.067-1.003.198-1.45.134-.446.335-.83.603-1.153.268-.324.607-.58 1.016-.767.406-.186.885-.281 1.432-.281 1.083-.004 1.877.306 2.374.928zm-2.914.84a.924.924 0 0 0-.254.398c-.06.168-.102.365-.123.594a6.914 6.914 0 0 0-.035.739c0 .274.014.534.042.78.028.247.074.461.144.644a.939.939 0 0 0 .297.43.73.73 0 0 0 .48.158.58.58 0 0 0 .412-.152.995.995 0 0 0 .254-.404c.06-.17.1-.366.124-.595.021-.228.035-.467.035-.724 0-.282-.014-.545-.042-.788a2.608 2.608 0 0 0-.145-.637.94.94 0 0 0-.296-.429.73.73 0 0 0-.48-.158c-.166 0-.3.046-.413.144zM48.617 31.783v-4.267c0-.32-.039-.577-.116-.774a.429.429 0 0 0-.43-.295c-.258 0-.495.165-.713.5-.22.333-.328.798-.328 1.4v3.432h-2.166v-3.552c0-.546-.04-1-.117-1.362a4.586 4.586 0 0 0-.268-.882 2.294 2.294 0 0 0-.37-.616l1.742-.545c.081.091.166.197.247.313.074.102.145.228.212.39.067.159.127.341.173.542.236-.43.564-.742.98-.943.417-.2.872-.302 1.366-.302.712 0 1.22.218 1.52.65.304.433.452 1.01.452 1.731v4.58h-2.184zM54.28 24.794c.345 0 .67.028.966.087.296.06.56.127.79.197.265.092.508.187.727.289l-.685 1.53-.282-.137a6.371 6.371 0 0 0-.37-.166 3.085 3.085 0 0 0-.42-.137 1.824 1.824 0 0 0-.427-.056.69.69 0 0 0-.37.095c-.103.063-.152.165-.152.302 0 .145.095.289.282.43.187.14.438.274.748.404.547.229.97.5 1.27.813.296.313.445.735.445 1.266 0 .292-.053.573-.16.84a2.012 2.012 0 0 1-.465.704c-.204.2-.465.359-.776.478-.31.12-.667.18-1.069.18a6 6 0 0 1-.9-.067 6.067 6.067 0 0 1-.769-.173 9.294 9.294 0 0 1-.624-.204 4.72 4.72 0 0 1-.437-.183l.712-1.572c.046.018.127.06.24.123.113.064.247.127.399.19.151.064.31.12.48.173.169.049.331.073.486.073.19 0 .35-.035.473-.108a.357.357 0 0 0 .184-.328.613.613 0 0 0-.226-.464 1.853 1.853 0 0 0-.582-.341c-.685-.274-1.179-.58-1.475-.922-.296-.34-.444-.766-.444-1.276 0-.292.056-.56.165-.806.11-.246.268-.46.48-.644.212-.183.466-.327.762-.429.3-.109.642-.161 1.023-.161zM63.035 25.712c.498.619.748 1.477.748 2.57 0 .521-.067 1-.197 1.443a3.21 3.21 0 0 1-.603 1.146c-.269.324-.607.58-1.016.767-.406.187-.879.282-1.419.282-.55 0-1.023-.081-1.418-.24a2.404 2.404 0 0 1-.974-.689 2.982 2.982 0 0 1-.56-1.1 5.306 5.306 0 0 1-.184-1.457c0-.52.067-1.003.198-1.45.134-.446.335-.83.603-1.153.268-.324.607-.58 1.016-.767.406-.186.886-.281 1.432-.281 1.083-.004 1.877.306 2.374.928zm-2.913.84a.925.925 0 0 0-.255.398c-.06.168-.102.365-.123.594a6.914 6.914 0 0 0-.035.739c0 .274.014.534.042.78.028.247.074.461.145.644a.938.938 0 0 0 .296.43.73.73 0 0 0 .48.158.58.58 0 0 0 .413-.152.994.994 0 0 0 .254-.404c.06-.17.098-.366.123-.595.021-.228.035-.467.035-.724a6.86 6.86 0 0 0-.042-.788 2.603 2.603 0 0 0-.145-.637.939.939 0 0 0-.296-.429.73.73 0 0 0-.48-.158.591.591 0 0 0-.413.144zM67.91 26.967c-.12.057-.232.141-.341.254-.11.112-.201.26-.276.436-.074.18-.109.39-.109.636v3.486h-2.166v-3.552c0-.546-.039-1-.116-1.362a4.587 4.587 0 0 0-.269-.882 2.3 2.3 0 0 0-.37-.616l1.743-.545c.074.091.151.197.233.313.063.102.13.228.204.383.074.155.13.334.177.535.229-.436.5-.753.815-.943.314-.19.688-.288 1.118-.288.19 0 .363.017.515.049.152.032.275.067.377.102l-.56 2.065a1.297 1.297 0 0 0-.646-.152.83.83 0 0 0-.328.081zM45.802 36.76c.317.394.473.936.473 1.628 0 .331-.043.634-.127.915a2.047 2.047 0 0 1-.381.728 1.845 1.845 0 0 1-.642.485c-.258.12-.558.18-.9.18-.35 0-.65-.05-.9-.151a1.55 1.55 0 0 1-.617-.437 1.862 1.862 0 0 1-.356-.696 3.397 3.397 0 0 1-.117-.922c0-.33.043-.636.127-.918.085-.281.212-.527.381-.731.17-.204.385-.366.642-.486.258-.12.561-.179.91-.179.688-.007 1.193.19 1.507.584zm-1.849.531a.581.581 0 0 0-.162.25 1.538 1.538 0 0 0-.078.376 4.837 4.837 0 0 0 .004.96c.018.155.05.292.092.408a.625.625 0 0 0 .187.275.463.463 0 0 0 .303.098c.106 0 .19-.032.261-.095a.608.608 0 0 0 .162-.257c.04-.105.064-.232.078-.376.014-.144.021-.299.021-.46 0-.18-.007-.345-.024-.5a1.758 1.758 0 0 0-.092-.405.626.626 0 0 0-.187-.274.463.463 0 0 0-.304-.098.44.44 0 0 0-.26.098zM49.266 35.588a.556.556 0 0 0-.144-.144.38.38 0 0 0-.23-.074.472.472 0 0 0-.338.134c-.092.088-.138.218-.138.387 0 .134.01.253.035.362h1.112l-.173 1.041h-.773v3.166c0 .33-.05.608-.151.834-.103.225-.23.415-.389.573a2.296 2.296 0 0 1-.525.39c-.194.106-.381.2-.561.285l-.624-1.013c.278-.144.493-.299.649-.464a.825.825 0 0 0 .229-.577v-3.19h-.67v-1.041h.67a1.457 1.457 0 0 1-.081-.268 1.312 1.312 0 0 1-.032-.295c0-.215.039-.405.113-.566.074-.166.183-.306.32-.422.139-.117.304-.204.491-.264.187-.06.395-.092.621-.092.318 0 .572.053.762.155.187.106.353.236.49.39l-.663.693z" fill="#004F9E"/><path d="M100 66.559l-6.156-6.138c2.367-4.488 1.895-11.453-1.422-14.284H89.7l3.196-4.485-2.84-4.368h-7.698l-2.25 3.187 3.789 5.666h-9.709V39.88H57.253l-1.778 2.95 6.513.592v15.747c-.724.96-1.443 1.488-2.106 1.54a1.348 1.348 0 0 1-.946-.299l.56-11.206c-2.603.236-6.275-1.653-6.395-4.84l-17.643-.942-.945 16.408h.01c-.578.552-1.08.805-1.492.746-.773-.11-1.309-1.298-1.785-2.346-.095-.211-.19-.419-.293-.627l-.23-15.071 1.423-.12-.237-2.835L0 42.416l.236 2.775 1.718-.12.237 15.642 4.618-.412c-2.015 1.713-1.362 6.849 1.774 6.965 3.14.12 5.09-4.545 3.613-7.38l5.803-.53c-1.482 1.297-1.422 7.023 1.954 7.259 3.377.236 5.804-5.02 4.146-7.85l6.389-.497.112.246c.55 1.217 1.175 2.593 2.332 2.758.77.11 1.602-.359 2.544-1.414l2.536.085c-2.07.53-2.843 7.97 1.362 7.85 4.205-.12 5.387-5.786 4.145-7.615l5.091.296c-2.367 2.008-1.658 7.203 1.422 7.084 4.025-.176 4.498-5.491 3.432-6.905l5.07.327c.402.31.903.464 1.407.426.85-.064 1.697-.64 2.523-1.7h4.738c-1.895 1.183-1.895 7.792 2.13 7.676 4.026-.12 5.09-5.431 4.146-7.675h3.316l.592 3.07h4.975c-.593 1.773.12 4.605 2.014 4.485 1.895-.116 3.673-2.715 3.08-4.484h3.196v3.777H100v.004z" fill="#E52931"/><path d="M3.14 47.431l6.928-1.417-.06 2.775-1.241.471.472 7.791-2.31-.06-1.718-7.024-1.835.176-.236-2.712z" fill="#fff"/><path d="M13.617 46.724c-1.954.06-4.381 2.656-3.965 5.902.417 3.247 2.015 5.016 4.322 4.96 2.31-.06 4.145-3.247 3.849-6.082-.297-2.831-1.542-4.84-4.206-4.78 0 0 2.664-.06 0 0z" fill="#fff"/><path d="M14.034 49.26c-1.422 0-1.482 2.065-1.482 3.07 0 1.003.237 2.832 1.302 2.776 1.125 0 1.302-2.304 1.302-3.07 0-.767-.117-2.596-1.122-2.776 0 0 1.005.18 0 0z" fill="#E52931"/><path d="M14.863 44.776l3.729 5.726.296 4.604 2.723-.12.297-5.55 1.658-5.075-2.724-.827-1.301 3.247-1.126-2.48-3.552.475zm-8.29 17.59l1.54-.296.71-1.829.71 1.534 1.537.176-1.065 1.238-.06 1.829-1.242-.943-1.422 1.063.357-1.654-1.066-1.118zm12.315-2.005l1.482.06 1.241-1.477.177 1.948 1.302.471-1.186 1.003.12 1.593-1.245-.826-1.835.411.71-1.773-.766-1.41z" fill="#fff"/><path d="M28.244 47.667l.176-1.713c-.945-1.122-2.07-1.002-2.603-1.002-.533 0-2.664.826-2.724 2.596-.06 1.769.89 2.48 1.835 3.186.945.707 2.307 2.065 1.718 2.775-.593.71-2.191-.47-2.604-1.002l-.829 2.244c1.242 1.418 2.427 1.713 3.909 1.537 1.482-.176 2.31-1.889 2.25-3.07-.06-1.182.297-1.654-2.366-4.193-.953-.943-.953-2.36 1.238-1.358 0 0-2.191-1.002 0 0zm7.814 8.737l.829-9.8 6.156-.175-.416 2.775-2.84.116-.12 1.418 1.658-.12-.356 2.125-1.835.411-.829 3.482-2.247-.232zm10.538-8.322c-1.835-.176-4.206 1.238-4.498 4.545-.297 3.306 1.481 5.195 3.492 5.251 2.015.06 3.909-2.36 3.969-4.784.056-2.416-.889-4.6-2.963-5.012 0 0 2.074.412 0 0z" fill="#fff"/><path d="M46.36 50.382c-1.066-.06-1.422 1.534-1.539 2.54-.12 1.002-.003 2.831.83 2.831 1.065 0 1.301-1.769 1.36-2.775.057-.999.177-2.476-.652-2.596 0 0 .83.12 0 0z" fill="#E52931"/><path d="M49.259 57.881l1.245-8.501c3.257.12 4.844.236 5.684 2.656.532 1.533-.946 3.246-1.598 3.482L54.706 59l-1.834-.06-.71-3.07h-.356l-.472 2.124-2.075-.113z" fill="#fff"/><path d="M52.459 54.044l.12-2.42c1.185 0 1.478.826 1.478 1.182 0 .352-.533 1.118-1.598 1.238 0 0 1.065-.12 0 0z" fill="#E52931"/><path d="M37.656 62.25h1.895l1.718-1.418.06 1.474.949.296-1.126 1.238.06 1.888-1.658-.826-2.19.59 1.185-1.888-.893-1.354zm10.834.056l1.066 1.298-1.126 1.713 1.835-.236 1.301 1.238v-1.533l1.246-.71-1.01-1.003-.176-2.065-1.421 1.477-1.715-.179zM90.48 51.85l.356-1.685c-.826-1.213-1.959-1.213-2.487-1.27-.53-.056-2.738.546-2.982 2.3-.247 1.756.625 2.558 1.493 3.363.867.802 2.081 2.297 1.418 2.937-.663.644-2.127-.696-2.487-1.27l-1.059 2.146c1.09 1.537 2.237 1.956 3.726 1.935 1.492-.021 2.494-1.64 2.557-2.818.064-1.181.47-1.614-1.915-4.414-.843-1.041-.695-2.448 1.38-1.224 0 0-2.075-1.224 0 0zm-24.403-.696l-2.367.65-.413-2.48 7.282-1.828.356 2.36-1.422.826.653 5.843-2.427.707-1.662-6.078zm12.196-3.071v2.655h1.954v7.26h2.311l1.066-7.32h1.301l.653-2.715-7.285.12zm-3.966-.295c-2.367.175-3.848 3.306-3.432 5.606.413 2.304 1.835 4.664 4.322 4.369 2.487-.296 3.256-3.898 2.84-6.142-.417-2.24-1.835-4.013-3.73-3.833 0 0 1.895-.18 0 0z" fill="#fff"/><path d="M74.423 50.266c-1.009.236-.889 1.77-.889 2.656 0 .886.413 2.715 1.362 2.655.949-.06 1.065-2.124.889-3.07-.176-.943-.353-2.3-1.362-2.24 0 0 1.01-.06 0 0z" fill="#E52931"/><path d="M67.378 61.068l1.598.236.89-1.713.412 2.065 1.774.706-1.834 1.063-.473 2.363-1.005-1.593-1.422.471.83-1.888-.77-1.71zm16.578 2.36l-.946 1.478 1.241-.176.89 1.002.176-1.062 1.242-.355-.713-.767.297-1.418-1.186.591-1.421-.53.42 1.237z" fill="#fff"/><path d="M96.154 59.577h-.063v-.074c0-.12-.095-.183-.279-.183-.2 0-.328.102-.328.257 0 .355.462.19.667.323.07.053.113.137.113.229 0 .274-.233.464-.565.464a.882.882 0 0 1-.363-.07c.01-.095.018-.19.014-.282h.064v.046c0 .102 0 .116.035.144.07.056.17.085.286.085.226 0 .366-.113.366-.292 0-.44-.782-.018-.782-.573 0-.254.193-.405.507-.405.117 0 .23.025.357.08a.853.853 0 0 0-.029.25s.004-.123 0 0zm1.26.453c-.088.187-.176.37-.254.563h-.039c-.035-.077-.042-.095-.106-.229l-.091-.19-.332-.682v.9c0 .138.074.117.184.124v.063c-.075-.004-.152-.004-.227-.007-.077.003-.151.007-.229.007v-.063c.106-.007.184.007.184-.123v-.943c0-.137-.074-.116-.184-.123v-.063l.265.007c.031 0 .064-.007.091-.007l.17.369.088.18.244.499.23-.465c.09-.193.186-.386.267-.583.031.003.06.003.088.007.092 0 .183-.007.276-.007v.063c-.025.003-.05.003-.075.003-.088.004-.109.025-.109.12v.943c0 .095.021.116.11.12.024.003.049.003.074.003v.063c-.093 0-.18-.007-.273-.007-.091 0-.179.007-.271.007v-.063c.116-.007.184.003.184-.123v-.929l-.265.566z" fill="#E52931"/></svg>