<svg width="73" height="72" fill="none" xmlns="http://www.w3.org/2000/svg" viewBox="0 0 73 72"><g clip-path="url(#clip0)"><path d="M25.436 39.803c.335-.399 1.063-.397 1.388.017.332.421-.017 1.062-.062 1.516-.043.44-.054.77-.6.752-.977-.03-1.255-1.655-.726-2.285z" fill="#CDD5E9"/><path d="M69.829 54.205c3.743 2.13.935 3.729-2.808 5.861-3.643 2.075-6.35 3.924-10.094 1.793-4.685-2.669-23.795-13.632-26.394-15.113-2.807-1.598-.935-3.729 2.808-5.86 3.743-2.13 6.294-4.08 10.03-1.923a26323.76 26323.76 0 0 0 26.458 15.242zM14.432 42.167c2.338-1.105 8.68 1.811 5.085 2.863-1.263.372-3.973-2.011-5.115-2.624a.42.42 0 0 1 .03-.24zM47.166 29.715c1.376-1.505 6.777-.312 4.48 1.425-.807.611-4.58.967-4.433-1.206a.483.483 0 0 1-.047-.22zM40.646 31.03c3.743 2.13.935 3.73-2.807 5.86-3.643 2.075-6.351 3.924-10.094 1.793C23.06 36.016 3.95 25.051 1.35 23.572c-2.806-1.598-.935-3.73 2.807-5.861 3.743-2.131 6.293-4.08 10.03-1.923 6.398 3.695 25.598 14.751 26.458 15.241z" fill="#DFE7FB"/><path d="M26.862 39.952l-1.317-.278-.047.232.33.464-.048 1.299 1.082-1.717z" fill="#7F0000"/><path d="M25.857 30.773c.256.215.512.43.764.65a23.54 23.54 0 0 1-3.647 2.017l-.017-.43c-.011-.305.348-1.714.633-2.237h2.267zM6.213 19.11c.256.216.512.43.764.652-1.101.753-2.373 1.418-3.647 1.986l-.017-.4c-.013-.305.348-1.714.632-2.238h2.268z" fill="#004687"/><path d="M10.708 11.215l5.848-1.241c.378.18 4.072.26 4.75.66.677.401-1.662 1.125-.762 1.69 4.237 2.653 10.51 6.776 14.768 9.266.222.13.337.024.09-.293-1.074-1.379-3.824-4.996-5.273-5.883 1.451.36 6.573 5.94 6.97 6.39-.037.304-.077.607-.11.913a46.36 46.36 0 0 0-.172 2.175c-.429.466-13.108 4.69-12.98 5.061.003-.001-30.107-14.155-13.13-18.738z" fill="#232323"/><path d="M25.801 31.903c0-.049-.068-.088-.152-.088-.085 0-.153.04-.153.088 0 .048.068.087.152.087.085-.002.153-.04.153-.087z" fill="#14AFEB"/><path d="M29.82 33.993c-.543-1.33-2.16-2.56-3.61-2.75-.725-.094-1.23.125-1.568.463-.424.42-1.161 1.32-1.381 1.774-.629 1.292 3.45 4.293 4.877 3.978.356-.078 1.295-1.43 1.628-1.884.275-.379.322-.93.055-1.581z" fill="#192D4B"/><path d="M28.568 35.56c-.544-1.33-2.16-2.56-3.61-2.75-1.452-.189-2.186.734-1.642 2.063.544 1.329 2.16 2.56 3.611 2.748 1.451.19 2.185-.733 1.641-2.062z" fill="#192D4B"/><path d="M6.139 20.732c0-.049-.068-.087-.153-.087-.084 0-.152.038-.152.087 0 .048.068.087.152.087.085 0 .153-.039.153-.087z" fill="#14AFEB"/><path d="M10.038 23.625c0-1.433-1.031-3.172-2.303-3.883-.636-.356-1.188-.338-1.63-.15-.553.234-1.579.794-1.955 1.134-1.073.967 1.57 5.254 3.013 5.49.36.057 1.742-.848 2.224-1.145.399-.249.651-.743.651-1.446z" fill="#192D4B"/><path d="M8.284 24.613c0-1.433-1.03-3.172-2.303-3.882-1.272-.711-2.303-.129-2.303 1.306 0 1.433 1.03 3.172 2.303 3.883 1.27.71 2.303.126 2.303-1.307z" fill="#192D4B"/><path d="M15.371 13.732c-.043-.988 3.636-2.755 5.247-1.752-.228 5.835 4.753 6.006 5.288 6.523.308.3.178 1.58-.01 1.767-.632.626-3.677 2.55-4.943 1.691-1.267-.86-2.654-2.316-2.654-2.316s-2.856-4.269-2.928-5.913z" fill="#141414"/><path d="M22.333 16.058c1.267.78 4.195 2.262 3.56 2.888-.632.623-3.676 2.55-4.943 1.69-1.266-.859-2.653-2.316-2.653-2.316l4.036-2.262z" fill="#333"/><path d="M22.334 16.057c-.444-1.55-1.43-3.805-1.716-4.076-.345-.325-4.614 1.374-4.488 2.085.126.71 2.168 4.255 2.168 4.255l4.036-2.264z" fill="#2E2E2C"/><path d="M9.416 17.028c-.043-.987 3.421-2.793 5.032-1.791-.227 5.837 4.966 6.047 5.5 6.565.31.299.18 1.58-.009 1.767-.632.623-3.677 2.55-4.943 1.69-1.267-.859-2.653-2.316-2.653-2.316s-2.855-4.27-2.927-5.915z" fill="#141414"/><path d="M20.377 17.153c1.266.78 4.151 2.543 3.519 3.167-.632.625-7.634 4.47-8.9 3.611-1.267-.859-2.654-2.316-2.654-2.316l8.035-4.462z" fill="#333"/><path d="M20.378 17.154c-.444-1.55-.943-3.987-1.229-4.256-.344-.325-9.1 3.753-8.974 4.464.126.71 2.168 4.256 2.168 4.256l8.035-4.464z" fill="#2E2E2C"/><path d="M22.334 17.896c-.043-.988 3.636-2.755 5.247-1.75-.228 5.835 4.753 6.006 5.288 6.523.308.3.178 1.58-.01 1.767-.632.624-3.677 2.55-4.943 1.691-1.267-.86-2.654-2.316-2.654-2.316s-2.856-4.27-2.928-5.915z" fill="#141414"/><path d="M29.296 20.22c1.267.78 4.195 2.265 3.56 2.889-.632.625-3.677 2.55-4.943 1.69-1.266-.859-2.653-2.316-2.653-2.316l4.036-2.262z" fill="#333"/><path d="M29.297 20.221c-.444-1.55-1.43-3.805-1.716-4.076-.345-.324-4.614 1.372-4.488 2.085.126.71 2.167 4.255 2.167 4.255l4.037-2.264z" fill="#2E2E2C"/><path d="M16.38 21.192c-.044-.987 3.42-2.793 5.031-1.791-.228 5.835 4.966 6.045 5.5 6.565.31.299.18 1.58-.009 1.767-.632.625-3.677 2.55-4.943 1.692-1.267-.859-2.654-2.316-2.654-2.316s-2.854-4.273-2.926-5.917z" fill="#141414"/><path d="M23.341 23.518c1.267.781 4.195 2.262 3.56 2.887-.632.624-3.677 2.55-4.943 1.691-1.266-.859-2.653-2.316-2.653-2.316l4.036-2.262z" fill="#333"/><path d="M23.342 23.517c-.444-1.55-1.43-3.805-1.716-4.076-.345-.325-4.615 1.374-4.489 2.085.127.71 2.168 4.255 2.168 4.255l4.037-2.264z" fill="#2E2E2C"/><path d="M24.343 24.643c-.256.687.221 1.195 1.065 1.136.845-.06 1.735-.663 1.99-1.35.256-.686-.222-1.195-1.065-1.135-.843.057-1.735.662-1.99 1.35zm.413-.02c.14-.375.623-.861 1.542-1.014.342-.055-.158.53-.01.696.136.152.949-.094.856.149-.191.514-.88.967-1.54 1.013-.66.048-1.04-.33-.848-.844z" fill="#232323"/><path d="M24.258 24.62c-.275.738.237 1.284 1.144 1.22.907-.062 1.865-.712 2.14-1.449.274-.738-.238-1.284-1.145-1.221-.905.063-1.863.713-2.14 1.45zm.295-.02c.226-.606 1.013-1.14 1.758-1.192.745-.052 1.166.397.94 1.002-.225.607-1.012 1.14-1.757 1.191-.747.054-1.167-.395-.94-1.002z" fill="#141414"/><path d="M35.269 20.42c.871.789 1.692 1.557 1.635 1.837-.056.28-8.53 5.648-11.259 5.255-2.728-.392-2.173-1.277-1.748-1.884 1.346-1.92 10.49-6.008 11.372-5.208z" fill="#232323"/><path d="M1.974 20.371c.638.997 1.357 1.377 1.357 1.377s.619-2.606 2.676-1.527c2.171 1.137 2.805 3.31 2.713 5.148.002-.033 14.253 8.117 14.253 8.117 0-.767.442-3.508 2.74-2.2 2.3 1.309 3.018 4.039 2.928 5.431 4.258 1.678 4.832 2.454 6.912 1.975 1.424-.327 3.784-1.095 5.694-2.203 3.003-1.74 4.911-3.263 5.483-4.683.09-.227.198-1.48.076-2.353-.124-.032-.379.018-.379.018-.208-.805-.041-.212-1.146-1.52-1.846-2.186-8.456-6.802-8.727-6.943 0 0-2.204-2.704-5.574-5.453-.527-.429-4.468-3.651-8.924-5.069-1.087-.345-5.5-.516-5.5-.516s-3.284-1.7-3.638-1.563c-3.8 1.478-8.633 4.354-10.96 6.244-.32.277-.49 1.262-.454 1.293-.034.283-.168 3.43.47 4.427zm20.222-.05c2.931-.948 5.513-2.108 8.1-4.614.29-.275 4.559 3.699 6.004 5.666.43.587-1.532 2.155-4.244 3.666-2.254 1.256-6.507 2.81-6.795 2.405-1.528-2.897-3.49-6.986-3.065-7.123zm-14.091-2.74c-.045-.935 4.783-1.252 5.083-1.21 1.816.253 5.906 2.473 7.088 3.534 1.417 1.275 3.451 7.734 3.604 7.838C11.528 19.877 8.13 18.11 8.105 17.581zm-1.7-1.954c1.102-1.689 6.94-5.158 9.701-5.393.3-.026 3.058-.006 4.987.285.019.002.04.008.06.012-5.024 1.557-8.234 4.636-8.234 4.636-.618.022-6.895 1.045-6.513.46z" fill="#14AFEB"/><path d="M1.943 20.32c.638.996 1.387 1.428 1.387 1.428s.62-2.606 2.676-1.527c2.171 1.137 2.806 3.31 2.713 5.148.002-.033 14.253 8.117 14.253 8.117 0-.767.442-3.508 2.74-2.2 2.3 1.309 3.018 4.039 2.928 5.43 2.367.933 3.596 1.48 4.576 1.794.187-1.847.407-3.692.475-5.546-.657-.675-1.297-1.366-1.939-2.053a26.266 26.266 0 0 0-2.07-1.958 54.33 54.33 0 0 1-2.124-1.965l-.081-.078c-1.174.397-1.886.276-2.015.096-1.528-2.897-3.514-6.15-3.293-6.778-4.472-4.135-9.251-5.17-9.251-5.17-.618.024-6.895 1.046-6.513.46-1.985-.683-3.91-1.157-4.449-.977-.32.277-.489 1.262-.453 1.296-.034.282-.198 3.487.44 4.482zm6.161-2.846c-.045-.936 4.784-1.227 5.083-1.184 1.816.252 5.907 2.446 7.088 3.508 1.417 1.275 3.452 7.734 3.604 7.838-12.352-7.866-15.75-9.633-15.775-10.162z" fill="#0082C8"/><path d="M45.182 27.908l-.088-.09.09.092-.002-.002z" fill="#fff"/><path d="M44.943 31.468v-3.484l-9.515 5.78s-.679 2.619-.024 3c2.356 1.373 9.539-5.296 9.539-5.296z" fill="#004687"/><path d="M43.355 30.393s.569 1.03.352 2.04c.806-.325 1.942-1.687 1.942-1.687l-1.424-1.249-.87.896z" fill="#0082C8"/><path d="M33.762 36.14c.625.104 2.336.078 3.35-.312 3.6-1.382 5.767-2.83 7.386-4.189.523-.438 1.797-1.739 1.682-2.266 0-.05-.958-1.245-1.106-1.542.026-.037 1.603 1.4 1.656 1.479.1.156.096.356.03.59-.153.54-1.893 2.649-4.932 4.375-3.203 1.819-6.073 2.856-7.725 2.934-1.244.06-4.441-1.07-5.478-3.118 0 0 .333.238 2.157 1.106.001 0 1.004.615 2.98.943z" fill="#14AFEB"/><path d="M45.056 27.774c.605.622 1.032 1.322 1.122 1.591l.002.007c.113.527-1.172 1.805-1.287 1.903-.004.002-1.858-.62-1.033-1.414 1.027-.986 1.501-1.77 1.197-2.087z" fill="#CECECE"/><path d="M6.347 15.726c-.015-.026-.024-.07.012-.128.527-.81 2.194-2.088 4.245-3.26 2.181-1.243 4.236-2.05 5.495-2.158.062-.005.216-.01.425-.01.977 0 3.04.064 4.575.296a.429.429 0 0 1 .047.01l.222.04-.202.063c-4.952 1.535-8.182 4.594-8.213 4.623l-.016.014-.02.001c-.15.006-.666.076-1.32.164-1.415.19-3.554.479-4.6.479-.507 0-.612-.067-.65-.134zm14.577-5.178c-1.51-.214-3.459-.271-4.4-.271-.201 0-.358.003-.416.007-2.689.23-8.553 3.671-9.66 5.371-.007.008-.01.017-.008.023.007.013.067.08.56.08 1.04 0 3.173-.288 4.586-.477.653-.09 1.133-.153 1.308-.164.24-.224 3.34-3.06 8.03-4.57z" fill="#004687"/><path d="M36.553 21.01c-.107.428-.242.586-.242.586s.158.748.239.607c.494-.854.003-1.193.003-1.193z" fill="#00687F"/><path d="M13.026 21.03c-3.928-2.431-4.983-3.084-5-3.445a.406.406 0 0 1 .132-.306c.696-.72 4.26-.989 4.936-.989.048 0 .082.002.103.004 1.827.254 5.952 2.494 7.13 3.554 1.069.961 2.44 4.714 3.178 6.73.207.566.386 1.054.428 1.112 0 0-.004-.006-.012-.01l-.088.13c-4.89-3.118-8.31-5.234-10.807-6.78zm-4.754-3.645c-.062.065-.092.128-.088.191.013.279 1.45 1.17 4.926 3.32 2.458 1.523 5.811 3.598 10.584 6.636-.066-.169-.17-.446-.335-.902-.682-1.862-2.097-5.733-3.137-6.669-1.167-1.048-5.243-3.263-7.046-3.513-.005 0-.026-.002-.08-.002-.804 0-4.197.291-4.824.94z" fill="#004687"/><path d="M27.621 26.97c3.82-1.289 9.198-4.366 8.933-5.96 3.893 2.606 8.073 5.557 8.504 6.765.065.187.186.345.015.616-.414.652-.627 1.155-1.925 2.172-.192.15.195 1.67-.17 2.487-.214.477-1.447 1.06-1.897 1.262-.741.33-1.594.313-2.373-.032-.477-.211-.302-.438-.824-.22-.355.148-.55.467-.976.604-1.022.329-2.627 1.168-3.72.988-1.096-.18-1.278-1.27-1.617-2.125-.484-1.225-1.385-2.014-2.356-2.9a35.52 35.52 0 0 0-2.828-2.327c-.23-.169-.866-.792-1.139-.798-.002 0 .747.017 2.373-.533z" fill="url(#paint0_radial)"/><path d="M33.178 35.687c-.94-.154-1.218-.95-1.489-1.72a9.422 9.422 0 0 0-.156-.427c-.46-1.17-1.32-1.951-2.232-2.78l-.114-.106a35.37 35.37 0 0 0-2.825-2.326c-.06-.044-.147-.119-.246-.204-.271-.232-.682-.583-.87-.587l.002-.07h.008c.08 0 .828-.015 2.355-.53 1.933-.65 4.229-1.748 5.992-2.861 2-1.262 3.037-2.35 2.919-3.059l-.013-.081.07.046c3.437 2.301 8.06 5.509 8.516 6.784l.034.085c.064.156.132.317-.023.56-.052.082-.1.162-.148.24-.331.538-.644 1.049-1.786 1.943-.064.05-.043.366-.023.702.034.54.083 1.282-.137 1.772-.215.481-1.411 1.055-1.916 1.279-.36.16-.743.241-1.142.241-.427 0-.85-.09-1.259-.273-.177-.078-.267-.16-.335-.218-.064-.056-.098-.088-.165-.088-.063 0-.153.026-.296.086-.156.065-.278.163-.408.267-.162.13-.33.262-.572.34-.262.083-.563.202-.883.326-.822.323-1.752.687-2.525.687a2.313 2.313 0 0 1-.333-.028zm5.227-1.646c.066.06.15.132.316.206a3.03 3.03 0 0 0 1.231.265c.39 0 .764-.078 1.114-.234.388-.172 1.67-.772 1.88-1.243.213-.473.166-1.205.132-1.74-.028-.452-.04-.692.049-.76 1.13-.887 1.426-1.368 1.769-1.923l.148-.24c.134-.211.081-.343.017-.495l-.035-.09c-.447-1.246-5.004-4.413-8.427-6.705.092 1.654-5.23 4.66-8.965 5.92-1.16.39-1.874.496-2.192.524.218.112.502.355.724.544.1.085.185.158.243.2a35.14 35.14 0 0 1 2.83 2.332l.115.105c.916.836 1.782 1.624 2.249 2.807.054.139.107.285.156.428.263.75.534 1.526 1.432 1.675.1.016.207.024.32.024.758 0 1.682-.362 2.499-.683.32-.127.623-.245.886-.329.23-.074.392-.202.548-.328.128-.102.261-.208.425-.277.153-.063.25-.09.324-.09.094.001.147.047.212.107z" fill="#161615"/><path d="M39.83 33.932c.272.169.539.341.8.521.204-.09.407-.185.606-.284.051-.026.104-.05.155-.077.05-.026.103-.053.152-.08.102-.054.201-.112.301-.17a6.397 6.397 0 0 0 .574-.38c.047-.033.09-.07.138-.104l.133-.107c.087-.07.17-.145.254-.22a1.89 1.89 0 0 0 .13-.493c.023-.173.03-.347.03-.523.002-.351-.032-.702-.047-1.055-.002-.089-.006-.178.006-.269a.508.508 0 0 1 .013-.07.168.168 0 0 1 .04-.074c.037-.032.069-.056.105-.086.139-.11.275-.223.408-.34.265-.233.521-.478.745-.751.113-.136.217-.279.313-.425.097-.147.188-.299.282-.45l.071-.113.032-.055a.55.55 0 0 0 .027-.058.385.385 0 0 0 .019-.243c-.02-.082-.059-.161-.09-.245-.03-.08-.07-.158-.116-.232a3.252 3.252 0 0 0-.318-.42 7.086 7.086 0 0 0-.363-.385 15.853 15.853 0 0 0-.784-.719 36.81 36.81 0 0 0-1.664-1.33 71.246 71.246 0 0 0-1.72-1.26 156.345 156.345 0 0 0-3.513-2.425l.005-.007c1.184.789 2.364 1.587 3.525 2.407.581.41 1.157.828 1.727 1.255a35.67 35.67 0 0 1 1.673 1.325c.271.23.537.468.79.716.127.125.251.253.368.387.116.133.23.272.323.424.047.077.09.156.12.242.03.081.07.16.093.252a.45.45 0 0 1-.02.277c-.008.022-.02.042-.029.063l-.034.06-.07.112c-.092.15-.184.303-.282.451a5.102 5.102 0 0 1-.316.431 6.703 6.703 0 0 1-.749.761 12 12 0 0 1-.41.343l-.102.082a.153.153 0 0 0-.02.043.308.308 0 0 0-.012.06c-.009.083-.007.17-.003.257.015.35.05.703.05 1.058 0 .176-.007.355-.03.533a1.86 1.86 0 0 1-.135.52l-.004.007-.005.005c-.087.078-.174.154-.262.229l-.136.11c-.045.034-.09.072-.137.107a5.958 5.958 0 0 1-.58.386c-.1.06-.2.117-.303.172-.05.028-.103.054-.154.082-.05.028-.103.052-.156.078-.207.104-.418.202-.629.299l-.022.01-.02-.014c-.264-.178-.53-.35-.799-.518a.551.551 0 0 0 .027-.083z" fill="#0082C8"/><path d="M25.248 27.497c.324.212.64.436.952.663.313.228.621.462.924.701a41.828 41.828 0 0 1 1.777 1.492c.29.258.573.518.854.784.282.263.557.534.832.807.391.39.8.755.976 1.294-.333-.437-.649-.845-1.037-1.236a37.34 37.34 0 0 0-.824-.812 39.776 39.776 0 0 0-4.454-3.693z" fill="#007D99"/><path d="M25.217 27.474l.246-.36c-1.174-2.226-3.585-6.226-3.36-6.767a.126.126 0 0 1 .077-.077c3-.97 5.523-2.125 8.08-4.6a.108.108 0 0 1 .08-.028c.575 0 4.671 3.89 6.002 5.701.066.09.085.2.056.329-.156.709-1.81 2.015-4.316 3.413-2.037 1.134-5.608 2.478-6.59 2.478-.143-.002-.234-.032-.275-.09zm5.116-11.729c-2.572 2.49-5.107 3.65-8.12 4.626-.001 0-.007.002-.01.015-.174.417 1.627 3.632 3.262 6.728.012.014-.105.343.03.343.949 0 4.554-1.359 6.538-2.463 2.442-1.36 4.117-2.674 4.266-3.345.022-.1.01-.18-.04-.246-1.387-1.886-5.421-5.657-5.918-5.657h-.008z" fill="#004687"/><path opacity=".5" d="M34.541 34.63c.49.346 1.003.662 1.528.953.233.128.469.253.708.371.24-.076.468-.163.679-.26.173-.087.32-.423.4-.794-.524-.223-1.04-.47-1.535-.752-.47.156-.943.305-1.225.373a6.69 6.69 0 0 1-.555.108z" fill="#fff"/><path d="M43.93 29.897c.309-.286 1.11-1.259 1.233-1.66.203.475.348.897.438 1.179-.214.546-.83 1.293-1.151 1.657-.482-.247-1.246-.506-.52-1.176z" fill="#fff"/><path d="M45.143 27.978a.743.743 0 0 1-.02.222 1.887 1.887 0 0 1-.166.416 4.51 4.51 0 0 1-.506.737 7.192 7.192 0 0 1-.614.653c-.102.099-.188.221-.186.351-.002.132.084.252.188.347.105.097.23.174.36.243.13.069.265.126.404.178.07.026.14.05.209.073l.053.017.026.007.006.002.003.002h-.002a.026.026 0 0 0-.017.002l-.02.01h.002l.005-.003c.027-.024.053-.05.08-.076a8.376 8.376 0 0 0 .87-1.002c.085-.121.164-.244.23-.373.032-.066.06-.13.081-.2a.44.44 0 0 0 .017-.201v-.008.008l-.002-.004-.002-.008-.005-.012-.01-.028a32.117 32.117 0 0 1-.022-.056l-.051-.11a3.415 3.415 0 0 0-.117-.213c-.041-.07-.084-.14-.128-.208a4.764 4.764 0 0 1-.067-.102l-.07-.102a4.763 4.763 0 0 0-.143-.199l-.15-.195a13.7 13.7 0 0 0-.157-.189 5.266 5.266 0 0 0-.162-.184c.051.054.077.13.083.205zm.087-.026c.058.059.11.12.165.181.055.064.107.125.158.19a7.527 7.527 0 0 1 .297.393c.048.069.093.138.136.206.043.07.087.141.124.214.021.035.038.074.057.111.01.019.017.037.026.058l.011.03.006.014.004.008.002.003.002.015v-.007a.532.532 0 0 1-.014.237 1.233 1.233 0 0 1-.08.216 2.52 2.52 0 0 1-.232.387 8.449 8.449 0 0 1-.956 1.102l-.006.007-.002.001c-.043.023-.013.006-.022.011a.053.053 0 0 1-.024 0l-.014-.001-.007-.002-.028-.008-.055-.016a3.698 3.698 0 0 1-.628-.262 1.843 1.843 0 0 1-.379-.26.79.79 0 0 1-.148-.184.456.456 0 0 1-.066-.233.47.47 0 0 1 .067-.232.878.878 0 0 1 .15-.182c.11-.102.215-.203.32-.308.104-.106.206-.214.302-.325.098-.112.19-.227.279-.345.086-.12.17-.242.244-.368.074-.128.14-.26.18-.4a.706.706 0 0 0 .033-.218.308.308 0 0 0-.074-.202c.057.05.115.107.172.169z" fill="#0082C8"/><path d="M40.228 35.752s2.492-1.182 3.879-2.373c.252-.218.525-.02.54.34l.019.458c-1.312 1.119-3.109 2.17-4.906 2.973l-.017-.429c-.015-.361.203-.796.485-.968z" fill="#004656"/><path d="M44.266 34.013c.217.074.399.145.399.163-1.306 1.1-3.135 2.18-4.906 2.973l-.015-.393c1.63-.75 3.286-1.734 4.522-2.743zM35.977 38.119c.493.38 2.655-.392 2.655-.663v-.46c0-.273-.232-.42-.516-.328-2.038.65-2.14 1.451-2.14 1.451z" fill="#0483A0"/><path d="M35.99 38.068c.06-.186.392-.846 2.127-1.403a.515.515 0 0 1 .162-.026.379.379 0 0 1 .056.206v.46c.002.234-1.577.831-2.345.763z" fill="#004656"/><path d="M46.51 31.726c-.129.689-1.182 2.08-1.23 1.817l-.08-.456c-.05-.277.054-.668.225-.86.964-1.087 1.084-.5 1.084-.5z" fill="#004687"/><path d="M38.116 36.665a.666.666 0 0 1 .098-.022l.14.135c.005.006.012.011.018.019.038.042.064.1.072.174.024.24-.15.544-.388.68-.179.101-.344.081-.425-.036l-.226-.219a.28.28 0 0 1-.1-.2.558.558 0 0 1 .03-.232c.22-.102.478-.203.781-.3z" fill="#4F4A4A"/><path opacity=".6" d="M37.834 37.663c.06 0 .126-.02.194-.06.222-.125.386-.41.363-.628-.013-.13-.088-.205-.205-.205-.06 0-.126.02-.194.06-.222.128-.386.41-.363.63.013.129.089.203.205.203z" fill="#D3D3D3"/><path d="M37.898 37.47a.731.731 0 0 1-.24.091.326.326 0 0 1-.03-.102c-.023-.22.138-.503.362-.63a.395.395 0 0 1 .194-.059c.113 0 .184.07.203.19-.12.206-.28.391-.489.51z" fill="#D3D3D3"/><path d="M46.17 31.599a.18.18 0 0 1 .016.04c-.089.474-.614 1.28-.949 1.65l-.035-.204c-.05-.276.054-.668.225-.859.343-.39.58-.564.744-.627z" fill="#192D4B"/><path d="M44.666 34.176s-.076.05-.206.139c-.064.044-.143.098-.233.162-.045.03-.092.066-.145.098-.053.033-.1.074-.156.113-.107.08-.226.165-.35.256-.128.085-.262.176-.4.271l-.214.143-.222.14c-.15.092-.3.19-.455.28l-.463.269a5.426 5.426 0 0 1-.23.128c-.077.04-.152.081-.225.122-.149.08-.29.16-.43.227-.137.068-.267.135-.389.194-.06.032-.118.056-.173.088-.054.03-.105.057-.152.085-.096.052-.181.1-.249.138-.137.076-.216.122-.216.122s.084-.03.233-.087l.266-.102.163-.064c.058-.022.113-.057.175-.085.12-.061.252-.126.39-.197.139-.066.282-.148.43-.228.076-.039.151-.081.227-.122.077-.041.154-.084.23-.128l.464-.271c.156-.091.307-.19.457-.282l.224-.142c.072-.048.143-.096.215-.142l.404-.273.354-.258c.054-.041.11-.076.156-.115.05-.04.089-.08.13-.117.08-.074.15-.14.209-.193l.18-.17z" fill="#11C6EF"/><path d="M28.238 34.324s-.003-.024-.013-.07c-.01-.047-.019-.116-.041-.2l-.036-.14c-.013-.052-.03-.106-.047-.165a5.741 5.741 0 0 0-.333-.839c-.038-.078-.08-.156-.124-.238a6.868 6.868 0 0 0-.143-.243c-.027-.04-.051-.082-.077-.123l-.083-.12a4.725 4.725 0 0 0-.593-.698 3.748 3.748 0 0 0-.483-.393c-.042-.03-.087-.056-.13-.084l-.066-.04-.068-.036c-.045-.022-.088-.05-.135-.069l-.14-.061a2.45 2.45 0 0 0-.559-.148 2 2 0 0 0-.517.005c-.04.004-.077.013-.115.02-.038.01-.073.017-.109.025-.07.022-.134.042-.194.065-.058.026-.113.05-.162.074-.049.024-.09.052-.13.074l-.054.032a.494.494 0 0 0-.045.033l-.072.052-.058.045.068-.026c.045-.015.107-.045.192-.07.041-.01.086-.027.137-.04.05-.01.105-.024.164-.037.06-.008.12-.019.186-.026l.102-.006c.034-.002.07-.005.105-.002.036 0 .072.002.11.004.037 0 .074.008.112.011.075.006.152.026.232.04.156.038.316.098.476.172.158.078.314.174.464.284.15.11.296.236.435.367.14.132.27.275.393.418.123.147.24.293.347.44.054.072.103.148.156.219.049.074.098.145.14.215.091.141.176.279.247.407.038.063.074.124.106.183.032.06.064.116.092.17l.08.15c.023.046.044.089.065.128.04.078.07.139.09.182l.028.059zM15.191 22.203l.753.477s.651-2.744 1.58-4.524l-.49-.257c-1.457 1.381-1.843 4.304-1.843 4.304z" fill="#0082C8"/><path d="M8.104 17.582l1.799 1.46s.063-.842.558-2.425l-.316.028c-1.445.191-2.041.937-2.041.937z" fill="#192D4B"/><path d="M41.37 36.626l2.922-1.778-.137-1.023-2.923 1.778.138 1.023z" fill="#D6D6D6"/><path d="M27.658 36.88c.52-.207.372-.796.235-1.128-.448-1.093-1.856-2.138-3.075-2.285-.294-.035-.551-.012-.741.064-.522.208-.373.796-.236 1.128.448 1.093 1.856 2.138 3.075 2.285.294.035.552.015.742-.063z" fill="#0082C8"/><path d="M26.527 35.59c.19-.076.136-.29.087-.412-.164-.399-.676-.78-1.122-.833a.567.567 0 0 0-.27.022c-.19.076-.136.292-.087.412.163.4.677.78 1.121.834a.59.59 0 0 0 .271-.023z" fill="#192D4B"/><path d="M6.915 25.512c.563 0 .648-.601.648-.96 0-1.178-.91-2.668-1.984-3.253-.26-.14-.506-.217-.711-.217-.563 0-.647.601-.647.96 0 1.178.909 2.668 1.983 3.253.26.141.506.217.711.217z" fill="#0082C8"/><path d="M6.395 23.976c.225 0 .26-.24.26-.385 0-.471-.364-1.069-.795-1.303a.606.606 0 0 0-.284-.087c-.226 0-.26.241-.26.384 0 .472.364 1.07.795 1.303a.606.606 0 0 0 .284.087z" fill="#192D4B"/><path opacity=".45" d="M20.924 10.547c-1.51-.213-3.459-.27-4.4-.27a8.63 8.63 0 0 0-.416.007c-2.689.23-8.552 3.671-9.66 5.371-.006.008-.01.017-.008.022.007.013.068.08.56.08 1.04 0 3.173-.287 4.587-.477.653-.089 1.133-.152 1.308-.163.238-.225 3.34-3.06 8.029-4.57zM8.271 17.385c-.062.065-.092.128-.089.191.014.278 1.451 1.17 4.927 3.32 2.458 1.522 5.81 3.597 10.583 6.636-.066-.17-.17-.446-.335-.902-.681-1.862-2.096-5.734-3.137-6.669-1.166-1.049-5.242-3.263-7.045-3.513-.006 0-.027-.002-.081-.002-.804 0-4.196.291-4.823.939zm22.062-1.639c-2.572 2.489-5.107 3.649-8.12 4.625-.002 0-.008.002-.011.015-.173.418 1.388 3.402 3.022 6.5.011.013.134.571.269.571.948 0 4.554-1.358 6.537-2.463 2.443-1.36 4.118-2.674 4.266-3.344.023-.1.01-.18-.04-.247-1.386-1.886-5.42-5.657-5.917-5.657h-.006z" fill="#004EBB"/><path d="M61.835 55.085c1.118-1.002 9.932-7.138 10.765-6.49.482.282.588 3.068-.476 4.972-.765.698-8.787 6.988-11.153 6.054.064-.963-.79-2.704.864-4.536z" fill="#A00"/><path d="M53.904 53.62c.256.214.512.43.764.65a23.553 23.553 0 0 1-3.647 2.016l-.017-.428c-.013-.307.348-1.715.633-2.239h2.267zM34.146 41.944c.256.216.512.43.764.652-1.1.753-2.373 1.416-3.647 1.986l-.017-.4c-.013-.306.349-1.714.633-2.238h2.267z" fill="#7F0000"/><path d="M43.54 36.696l5.849-1.242c.378.18 4.072.258 4.75.66-.213-.114-4.87.175-4.474.4 4.359 2.455 8.828 5.044 13.203 7.33.984.513 2.7 1.282 2.379.578 0 0-1.508-2.661-2.285-3.528 1.451.36 6.573 5.941 6.972 6.39-.037.305-.079.607-.11.913-.076.722-.13 1.448-.172 2.176-.43.466-17.894 2.056-17.766 2.427-12.05-5.514-24.072-11.86-8.346-16.104z" fill="#232323"/><path d="M64.104 46.546c-.813 1.267-5.982 3.842-9.678 4.723-3.045-.885-5.201-2.385-3.581-3.012 1.547-.6 5.651-2.587 8.32-3.187 1.563-.35 5.095 1.23 4.94 1.476z" fill="#333"/><path d="M65.828 45.671c-.813 1.268-5.982 3.842-9.678 4.724-3.045-.886-1.58-1.804.038-2.432 1.546-.6 4.578-2.41 7.246-3.008 1.562-.351 2.55.473 2.394.716z" fill="#4F4A4A"/><path d="M56.65 41.431c-.813 1.268-.297 2.621-3.99 3.503-3.046-.886-5.784-2.487-4.468-3.61.404-.345.638-1.153 3.306-1.75 1.562-.35 5.309 1.613 5.152 1.858z" fill="#333"/><path d="M57.954 42.854c-.813 1.268-5.156 2.4-5.296 2.079-.42-.46-1.168-2.281.452-2.908 1.547-.6 5.022-2.801 5.882-2.42.58.256-.882 3.006-1.038 3.25z" fill="#333"/><path d="M58.861 40.124c-.809.865-1.336.976-5.007 2.205-3.026.117-1.571-.685.038-1.357 1.537-.642.692-.562 3.344-1.427 1.554-.508 1.782.412 1.626.58z" fill="#4F4A4A"/><path d="M53.85 54.748c0-.048-.068-.087-.153-.087-.084 0-.152.04-.152.087 0 .049.068.088.152.088.083-.002.153-.041.153-.088z" fill="#D80000"/><path d="M57.75 57.642c0-1.433-1.032-3.172-2.304-3.883-.636-.356-1.188-.338-1.63-.152-.553.234-1.579.794-1.955 1.134-1.073.965 1.57 5.254 3.013 5.488.36.058 1.742-.848 2.224-1.145.399-.247.651-.739.651-1.442z" fill="#192D4B"/><path d="M55.993 58.63c0-1.432-1.03-3.171-2.303-3.882-1.272-.713-2.303-.128-2.303 1.305 0 1.433 1.03 3.172 2.303 3.883 1.272.712 2.303.128 2.303-1.305z" fill="#192D4B"/><path d="M50.563 44.845c-.813 1.268-1.182 2.023-4.876 2.905-3.044-.886-4.045-1.359-3.58-3.013.105-.377 1.552-1.444 4.22-2.043 1.562-.35 4.392 1.906 4.236 2.15z" fill="#333"/><path d="M51.867 46.269c-.813 1.267-5.156 2.4-5.295 2.078.372-1.01-1.17-2.279.451-2.906 1.547-.6 5.023-2.801 5.883-2.42.58.254-.883 3.004-1.04 3.248z" fill="#333"/><path d="M52.776 43.538c-.81.865-1.337.977-5.008 2.205-3.026.117-1.571-.685.038-1.357 1.537-.642.692-.562 3.344-1.427 1.554-.508 1.782.412 1.626.58z" fill="#4F4A4A"/><path d="M34.072 43.565c0-.048-.067-.087-.152-.087-.085 0-.152.038-.152.087 0 .048.067.087.152.087.083 0 .152-.039.152-.087z" fill="#D80000"/><path d="M37.972 46.458c0-1.433-1.031-3.172-2.303-3.883-.636-.356-1.188-.338-1.63-.15-.553.234-1.579.794-1.955 1.134-1.073.965 1.57 5.254 3.012 5.488.36.06 1.743-.848 2.225-1.145.399-.247.65-.74.65-1.444z" fill="#192D4B"/><path d="M36.216 47.447c0-1.433-1.031-3.172-2.303-3.883-1.272-.713-2.304-.126-2.304 1.307 0 1.432 1.032 3.172 2.304 3.882 1.272.711 2.303.127 2.303-1.306z" fill="#192D4B"/><path d="M34.87 48.345c.563 0 .648-.601.648-.96 0-1.178-.91-2.668-1.984-3.253-.26-.14-.506-.217-.71-.217-.563 0-.648.601-.648.96 0 1.178.909 2.669 1.983 3.253.26.143.505.217.712.217z" fill="#848484"/><path d="M49.546 35.705c.904.753 1.692 1.559 1.636 1.84-.057.28-8.53 5.647-11.26 5.253-2.728-.393-2.366-1.518-1.002-3.424s8.891-5.117 10.626-3.67z" fill="#333"/><path d="M48.445 38.57c0 .726.582 1.266 1.299 1.203.717-.064 1.298-.702 1.298-1.43 0-.727-.581-1.265-1.298-1.202-.717.063-1.299.701-1.299 1.429zm.354-.022c0-.472-.35-.953 1.014-1.071.294-.026.034.56.219.737.167.161.796-.1.796.157 0 .544-.454 1.023-1.015 1.071-.56.048-1.014-.352-1.014-.894z" fill="#232323"/><path d="M48.365 38.544c0 .782.625 1.359 1.395 1.292.77-.067 1.394-.755 1.394-1.535 0-.781-.625-1.359-1.394-1.292-.77.067-1.395.754-1.395 1.535zm.249-.022c0-.64.512-1.205 1.144-1.26.632-.056 1.144.419 1.144 1.061 0 .64-.512 1.205-1.144 1.26a1.04 1.04 0 0 1-1.144-1.061z" fill="#141414"/><path d="M30.045 43.03c.638.997 1.35 1.251 1.35 1.251s.486-2.307 2.543-1.227c2.17 1.138 2.806 3.31 2.714 5.149.002-.032 14.369 8.13 14.369 8.13 0-.767.442-3.509 2.74-2.2 2.298 1.308 7.34 1.128 8.073.952 4.516-1.09 10.897-5.26 10.765-6.49-2.094-1.66-4.08-2.983-4.213-3.052 0 0-1.204-1.76-4.574-4.506-.527-.429-4.468-3.651-8.924-5.067-1.088-.347-5.5-.516-5.5-.516s-5.106-1.624-5.46-1.487c-3.802 1.478-6.811 4.275-9.14 6.164-.32.277-1.34.807-1.305.84-.032.281-4.076 1.064-3.438 2.06zm23.94-7.02c-5.024 1.558-8.235 4.637-8.235 4.637-.617.024-6.895 1.047-6.513.46 1.101-1.689 6.94-5.158 9.7-5.393.3-.026 3.059-.008 4.988.286.02.001.041.007.06.01zm1.044 9.791c2.932-.948 5.514-2.108 8.101-4.614.29-.275 3.387 2.419 4.814 4.45.418.595-2.573 2.47-4.742 3.676-3.444 1.913-5.581 2.526-5.871 2.121-1.167-2.3-2.729-5.495-2.302-5.633zm-16.3-3.556c.16.091 7.183-1.245 8.952-.516 1.475.609 5.094 2.272 6.093 3.79.164.249 1.556 4.052.678 4.406-.497.2-3.282.041-15.723-7.68z" fill="#D80000"/><path d="M28.717 41.215c.361.64.583.81 1.295 1.919.637.997 1.356 1.377 1.356 1.377s.512-2.496 2.57-1.418c2.17 1.138 2.808 3.27 2.714 5.11.002-.032 14.37 8.13 14.37 8.13 0-.767.604-3.423 2.901-2.113 2.3 1.308 2.962 3.883 2.872 5.275 2.367.933 3.671.22 4.751.22.187-1.846.326-2.847.394-4.699-.6-1.136-4.453-3.426-4.58-3.606-.603-1.14-2.394-4.72-2.332-5.609-4.473-4.135-9.172-5.225-9.172-5.225-.617.025-7 1.116-6.618.531-3.082-1.785-5.676-5.696-6.216-5.514-.414 1.075-.846 1.891-1.936.25-.67.587-1.991.923-2.37 5.372zm10.116.963c.16.091 6.137-1.084 8.165-.64 2.729.596 5.872 3.163 6.61 4.228.169.245 1.689 3.732.844 4.16-.685.346-6.68-2.778-15.619-7.748z" fill="#A00"/><path d="M38.809 42.22l.052-.092c-.003-.002-.007-.002-.007-.002s.007.002.03.002c.17 0 .766-.08 1.519-.182 1.588-.213 3.987-.538 5.459-.538.334 0 .61.017.814.052 2.32.383 6.32 3.11 6.974 4.28.117.21 1.39 3.038 1.062 3.96a.43.43 0 0 1-.243.274.242.242 0 0 1-.089.013c-.884 0-7.239-2.955-15.571-7.768zm1.61-.17c-.64.086-1.134.153-1.392.175 8.236 4.747 14.488 7.658 15.359 7.658a.167.167 0 0 0 .049-.006c.085-.033.145-.104.182-.211.302-.841-.875-3.555-1.053-3.876-.584-1.043-4.466-3.827-6.899-4.228-.2-.033-.468-.05-.798-.05-1.466.002-3.863.325-5.448.538zM57.288 51.465l-.004-.005c-1.428-2.706-2.414-5.423-2.314-5.666a.063.063 0 0 1 .043-.041c3.192-1.049 5.538-2.14 8.082-4.601a.115.115 0 0 1 .085-.032c.408 0 2.192 1.8 4.144 3.807.24.248.465.477.658.675a.275.275 0 0 1 .076.244c-.128.859-3.593 2.83-4.65 3.415-2.526 1.392-4.836 2.329-5.751 2.329-.19-.002-.31-.043-.369-.125zm5.88-10.24c-2.553 2.47-4.905 3.566-8.1 4.619-.025.269.824 2.745 2.31 5.562.038.05.136.076.28.076.748 0 2.801-.716 5.7-2.314 2.161-1.192 4.502-2.693 4.598-3.34a.175.175 0 0 0-.045-.155c-.196-.199-.418-.429-.659-.676-1.373-1.412-3.671-3.775-4.068-3.775-.013 0-.015.002-.015.002z" fill="#7F0000"/><path d="M40.3 39.856c2.643-2.238 8.373-4.081 10.693-4.198-1.203-.685-4.193-1.686-6.105-2.348-1.928-.67-4.166-.683-5.043-.687-.37-.002-.96 1.38-1.968 1.602-.324-.255-5.666-.225-5.484.597-1.227.572-.798 2.777-1.32 3.252 4.01 1.457 7.84 3.272 7.84 3.272s.475-.716 1.388-1.49z" fill="#D80000"/><path d="M31.599 42.637s-2.79-2.233-2.01-4.984c.166-.66 1.5-1.811 1.5-1.811s-2.125.987-2.347 2.682c-.107.813-.649 2.11 2.857 4.113z" fill="#D80000"/><path d="M31.412 36.34c.597-.11-1.272.189-1.213 2.57.884 1.524 2.664 1.049 2.365.68-.696-.86-1.1-1.26-1.302-1.662l.15-1.589z" fill="#fff"/><path d="M54.58 49.913c-.361.318-2.935-.998-2.935-.998s1.57-.715 2.608-1.556l.13.286c.536 1.335.372 2.116.197 2.268zM46.129 46.22l.87.462s1.202-2.468 2.131-4.248l-.49-.254c-1.455 1.38-2.511 4.04-2.511 4.04z" fill="#000"/><path d="M72.757 48.67c.198.347.34 1.444.164 2.43-.708.872-1.24 1.248-1.54 1.43 0-.673-.182-2.184-.182-2.184l1.558-1.676zM65.116 53.919c.18.624.109 1.813-.06 2.402-.781.664-2.639 1.3-3.015 1.195-.215-.787-.074-2.419-.074-2.419l3.149-1.178z" fill="#75001C"/><path d="M71.343 51.78a31.061 31.061 0 0 0-.066-.722c.222-.185.439-.379.644-.583.337-.334.728-.735 1.014-1.18.036.226.058.49.064.768a9.111 9.111 0 0 1-1.656 1.717z" fill="#FF8C2E"/><path d="M72.921 51.1c-.06.062-.12.127-.18.192l-.09.097-.093.092-.092.093c-.03.032-.06.063-.092.093l-.19.18c-.066.06-.132.115-.196.175-.032.03-.068.055-.102.083l-.102.082-.105.078c-.034.026-.07.052-.105.076-.036.024-.072.05-.108.072l-.11.069.079.044-.027-.55a1.653 1.653 0 0 0-.011-.138l-.013-.138-.028-.272-.016-.136-.015-.135-.037-.271-.042-.271c-.013-.091-.03-.18-.045-.271.004.09.012.182.017.273l.017.272.038.546.019.273.009.137c.004.047.006.091.007.136l.023.544.004.092.075-.048.113-.072c.038-.024.073-.05.111-.076.073-.05.143-.108.213-.162l.101-.087.1-.087c.064-.062.13-.121.192-.184l.182-.191c.03-.032.059-.067.089-.1l.086-.1.085-.103.081-.104c.053-.063.105-.133.158-.204zM65.115 53.919c.01.05.022.098.03.148.007.05.017.1.02.15.006.05.014.101.016.151l.009.15c.002.05.006.1.004.15 0 .05.002.101 0 .151-.002.1-.004.2-.01.3-.005.101-.01.201-.02.301-.004.05-.012.1-.015.15l-.02.151a3.925 3.925 0 0 1-.082.444c-.011.048-.025.096-.038.145l.013-.02-.079.062-.08.06a5.451 5.451 0 0 1-.168.113l-.173.106a7.828 7.828 0 0 1-.92.44 8.03 8.03 0 0 1-.77.274c-.13.04-.261.074-.395.1a2.501 2.501 0 0 1-.2.032.63.63 0 0 1-.188-.004l.032.032-.034-.145a3.992 3.992 0 0 1-.026-.147c-.01-.048-.013-.1-.02-.148-.008-.05-.012-.1-.018-.15-.003-.05-.01-.1-.013-.15l-.01-.151c-.003-.1-.009-.202-.01-.303-.004-.1-.002-.202-.004-.302 0-.102 0-.203.002-.303.002-.1.003-.202.007-.302.004-.1.006-.203.012-.303-.023.203-.04.403-.051.605-.012.203-.023.405-.023.607-.002.102.002.203.002.305l.006.152c.002.05.005.102.009.152.004.05.006.102.013.152.006.05.01.102.017.152.008.05.015.102.025.153l.033.15.006.024.027.006a.7.7 0 0 0 .221.009c.07-.008.14-.017.21-.032.137-.026.27-.061.404-.098.265-.078.527-.169.783-.271.254-.106.504-.223.747-.355.06-.031.12-.066.18-.102.06-.035.12-.072.177-.11.059-.036.115-.077.172-.118l.082-.063.081-.067.012-.01.003-.012c.012-.05.027-.1.036-.15.01-.05.02-.1.028-.15a5.353 5.353 0 0 0 .057-.456c.004-.05.01-.1.011-.152.008-.102.011-.202.013-.304l.002-.152-.004-.153c-.001-.05-.005-.102-.007-.152s-.008-.102-.011-.152c-.004-.05-.012-.1-.017-.15-.006-.05-.015-.1-.023-.15-.005-.05-.02-.1-.03-.149a10.345 10.345 0 0 0-.043-.141z" fill="#560000"/><path d="M65.222 54.747c.005.232-.002.475-.023.707-1.022.587-2.113 1.047-3.26 1.303a10.652 10.652 0 0 1-.01-.88c1.13-.256 2.228-.651 3.293-1.13z" fill="#FF8C2E"/><path d="M67.257 55.487l2.924-1.778-.138-1.023-2.924 1.779.138 1.022z" fill="#D6D6D6"/><path d="M39.183 41.206c-.015-.027-.024-.072.012-.128.526-.809 2.194-2.088 4.245-3.259 2.18-1.243 4.236-2.05 5.495-2.158a6.99 6.99 0 0 1 .425-.008c.977 0 3.04.062 4.575.295l.047.008.222.04-.202.062c-4.953 1.535-8.182 4.593-8.214 4.623l-.015.013-.02.002c-.15.006-.666.076-1.32.163-1.415.192-3.554.48-4.599.48-.51 0-.615-.068-.65-.133zm14.577-5.18c-1.51-.213-3.46-.27-4.4-.27a8.63 8.63 0 0 0-.416.007c-2.689.23-8.553 3.671-9.66 5.371-.007.008-.01.017-.008.022.007.013.07.08.56.08 1.037 0 3.173-.287 4.586-.477.653-.087 1.133-.152 1.308-.163.237-.225 3.338-3.06 8.03-4.57z" fill="#7F0000"/><path d="M31.413 36.339c-.596.573-.947 1.045-.916 2.303.421.728 1.134 1.117 1.733 1.284-.518.116-1.664-.109-2.234-1.093.395-2.028 1.05-2.325 1.417-2.494z" fill="#848484"/><path d="M34.314 46.733c.205 0 .237-.22.237-.351 0-.43-.333-.976-.726-1.192a.56.56 0 0 0-.26-.08c-.207 0-.237.221-.237.351 0 .43.333.976.726 1.192a.54.54 0 0 0 .26.08z" fill="#192D4B"/><path d="M54.632 59.54c.563 0 .648-.6.648-.959 0-1.178-.91-2.669-1.984-3.253-.26-.142-.506-.216-.711-.216-.563 0-.648.602-.648.96 0 1.178.91 2.669 1.984 3.253.26.142.506.216.711.216z" fill="#848484"/><path d="M54.117 58.014c.228 0 .262-.243.262-.388 0-.477-.367-1.08-.802-1.316a.626.626 0 0 0-.288-.087c-.228 0-.262.243-.262.388 0 .477.367 1.08.802 1.316a.613.613 0 0 0 .288.087z" fill="#192D4B"/><path opacity=".45" d="M40.42 42.05c-.64.085-1.135.152-1.393.174 8.237 4.748 14.488 7.658 15.36 7.658a.162.162 0 0 0 .048-.006c.085-.033.145-.104.183-.211.301-.841-.875-3.554-1.054-3.876-.583-1.043-4.465-3.827-6.898-4.228-.2-.033-.47-.05-.798-.05-1.466.002-3.864.325-5.448.539zm22.749-.826c-2.554 2.47-4.906 3.567-8.101 4.62-.025.268.824 2.744 2.31 5.562.038.05.136.076.28.076.748 0 2.801-.717 5.7-2.315 2.161-1.191 4.502-2.693 4.598-3.339a.175.175 0 0 0-.045-.156c-.196-.198-.418-.428-.659-.675-1.373-1.413-3.671-3.775-4.068-3.775-.013 0-.015.002-.015.002zm-9.41-5.197c-1.508-.214-3.458-.271-4.399-.271a8.63 8.63 0 0 0-.416.007c-2.689.23-8.552 3.672-9.66 5.372-.006.007-.01.016-.008.022.007.013.07.08.56.08 1.037 0 3.173-.288 4.586-.477.653-.088 1.133-.152 1.308-.164.237-.224 3.339-3.06 8.03-4.57z" fill="#004EBB"/><path d="M37.494 34.43c.207-.133 1.459.557 1.459.557l-.047.882.658.603-1.317-.603-.188-.79-.565-.649z" fill="#A00"/><path d="M38.11 34.575l.84.412 2.917-1.438s1.997-.013 2.117-.093c.12-.08-2.615-.315-2.615-.315l-3.26 1.434z" fill="#EF1111"/><path d="M32.441 34.96l2.398-.383s1.104.175 1.185.197c.081.022.505.258.505.258l-.4-.349 1.083-.232c0 .004-3.961-.293-4.77.509z" fill="#A00"/><path d="M26.67 26.417c4.11-1.488 9.854-4.593 9.511-5.835 2.093.78 4.054 1.826 6.062 2.806.592.29 2.706 1.59 2.87 2.367.161.762-1.13 1.403-1.493 2.05.143 1.747.19 1.125-.243 2.083-.209.464-1.37 2.35-2.075 2.084-.606-.23-1.355-.018-2.006.06-.806.096-1.36.737-2.106.87-1.161.208-2.439-.299-3.622-.156-1.551.188-2.069-.417-3.224-1.427-1.014-.887-2.324-1.409-3.444-2.151a38.739 38.739 0 0 1-2.04-1.448c-.107-.081-1.245-.375-.756-.592.006-.002.819-.078 2.567-.71z" fill="#14AFEB"/><path d="M36.184 20.582l.126.074.355.208c.078.045.162.095.256.147.09.055.188.115.294.178l.333.202c.118.07.237.15.363.23.126.082.258.164.392.253.131.089.269.182.408.278 1.08.735 2.185 1.238 3.077 2.233.683.76 1.586 2.773 1.768 3.771.038.204.057.386.064.537.006.15.006.269-.002.352-.005.082-.015.127-.015.127s.014-.043.03-.127c.017-.081.036-.202.044-.356.005-.076.005-.161.005-.254-.003-.093-.005-.191-.016-.297-.008-.106-.027-.217-.044-.334-.022-.117-.045-.24-.079-.364-.254-.936-.523-2.309-1.069-3.1-.557-.807-1.936-1.108-2.719-1.703a8.93 8.93 0 0 0-.45-.314c-.148-.1-.293-.2-.442-.291-.146-.093-.29-.182-.427-.268-.141-.083-.28-.161-.412-.24-.066-.036-.132-.075-.194-.11a3.866 3.866 0 0 0-.188-.104c-.124-.067-.243-.128-.356-.188-.11-.057-.214-.113-.312-.163l-.273-.132a47.189 47.189 0 0 1-.517-.245z" fill="#5AC8F5"/><path d="M24.385 27.182l.719.154a190.01 190.01 0 0 0 3.174.642l.696.135c.238.047.478.099.723.149.491.1.997.206 1.515.31 1.23.245 2.621.12 3.797.428.986.26 1.446.442 2.514.513 1.1.074 2.25.928 3.33 1.249.058.017.099.033.127.044.03.012.045.015.045.015s-.015-.005-.041-.018c-.028-.011-.068-.032-.124-.052-.986-.366-1.779-1.407-2.712-1.652-.53-.14-1.174.26-1.709.204-.957-.102-1.366-.744-2.547-.737-.89.006-1.705-.018-2.58-.19-.518-.103-1.032-.198-1.527-.292-.248-.047-.489-.097-.73-.136-.24-.04-.474-.082-.703-.12-.458-.08-.89-.15-1.291-.218-.8-.133-1.468-.239-1.939-.313-.468-.075-.737-.115-.737-.115z" fill="#0082C8"/><path d="M30.021 31.12l3.231 2.615 3.27-1.021-5.294-3.042-1.207 1.448z" fill="#14AFEB"/><path d="M46.602 33.686c.329-.64.856-1.142 1.108-1.27l.008-.003c.528-.197 2.783.675 2.965.755.004.002.457 1.724-.961 1.16-1.764-.703-2.951-.967-3.12-.642z" fill="#0082C8"/><path d="M49.716 34.262c-.518-.213-2.125-.724-2.656-.755.413-.266.802-.472 1.066-.602.754.082 1.989.475 2.602.685.02.464.203 1.173-1.012.672z" fill="#14AFEB"/><path d="M48.908 33.976c-.668-.217-1.494-.449-1.848-.47.413-.265.802-.47 1.066-.6.327.035.747.131 1.166.242-.14.271-.267.548-.384.828z" fill="#5AC8F5"/><path d="M26.862 39.952l-.705-.696-.612.417.33.465-.048 1.299 1.035-1.485zM53.123 33.846l-.605.25.105.472.369-.082.792.353-.66-.993zM48.095 32.374l.523-.392-.222-.43-.335.17-.856-.146.89.798z" fill="#A00"/><path d="M29.525 37.905c.158-.566.467-1.06.823-1.481.276-.251.538-.407.741-.583.034.05.066.093.098.139-.29.323-.875.752-1.007 1.002-1.904 3.595 1.42 5.654 1.42 5.654-3.125-2.304-2.336-3.796-2.075-4.731z" fill="#7F0000"/><path d="M41.409 31.323h-2.164l-1.411.557-1.224.51-1.138-.089s-.553.041-.647.18c-.095.14-.648.79-.648.79h-1.093l.706-1.578h2.54l1.835-.743.8-.185 2.444.558z" fill="#11C6EF"/><path d="M41.407 31.323h-2.164l-1.41.557-1.224.51-1.139-.089s-.553.041-.647.18c-.094.14-.647.79-.647.79l1.58-.51 1.623.01 1.403-.744 1.86-.3.844.266-.078-.67z" fill="#0082C8"/><path d="M33.471 32.402l-.719-1.106-1.296-.273-.552-.963.83.644 1.487.113 1.012.878-.762.707z" fill="#11C6EF"/><path d="M41.193 33.58l.721 1.267-.438 1.363 1.097-1.053-.595-1.453-.376-.371-.409.247z" fill="#EF1111"/><path opacity=".3" d="M37.046 32.452c.09.044.194.102.305.183.255.19.032.375.634.268.771-.138.386-.581.85-.97.162-.135.403-.177.454-.411.04-.178-.25-.303-.22-.442.105-.466.805-.414 1.142-.65.563-.391.16-.406-.004-.844.375-.096 1.854-.258 1.513-.85-.446-.776-2.401.184-2.7-.884.429-.165 2.224-.068 2.384-.493.209-.555-.856-.288-.98-.68-.057-.176.269-.352.222-.547-.06-.262-.544-.29-.584-.509-.088-.482.941-.28.896-.885-.024-.328-.422-.4-.521-.677-.078-.216.109-.442 0-.698-.202-.477-1.017-.804-1.487-.91-.453-.1-.542.142-.852-.23-.377-.45-.102-.763-.841-.97-.435-.123-1.052.035-1.38.343-.164.154-.194.397-.342.53-.258.235-.65.223-.872.545-.131.189-.06.527-.19.673-.416.466-1.646.063-1.844.902-.141.604 1.005.763.48 1.142-.602.432-2.804-.472-2.94.76-.154 1.419 2.906 1.812 3.764 1.886.234.02 1.42-.022 1.378.383-.036.345-.82.24-.922.473-.119.273.263.325.47.49.305.241.29.353.463.637.196.32.145.365.55.55.255.118.884.123 1.03.383.176.312-.122.488-.203.772-.161.548.014.564.347.73z" fill="#fff"/><path opacity=".1" d="M37.347 25.794a1.033 1.033 0 0 1-.162-.124c-.136-.128-.017-.254-.337-.182-.408.093-.205.393-.451.657-.087.093-.213.122-.241.278-.021.121.133.206.116.3-.056.315-.427.28-.606.44-.299.264-.084.274.002.573-.2.065-.984.174-.803.575.237.527 1.274-.124 1.434.6-.228.113-1.18.046-1.265.335-.111.377.454.195.521.46.03.121-.143.24-.118.372.032.176.288.197.31.345.047.327-.498.19-.474.601.013.223.224.271.277.46.041.147-.059.301 0 .474.107.323.538.546.788.618.241.069.288-.096.454.156.2.306.054.518.446.659.23.083.559-.024.732-.232.086-.106.101-.27.18-.36.138-.158.345-.15.463-.37.07-.128.032-.358.102-.456.22-.316.875-.043.978-.613.076-.408-.534-.517-.254-.774.32-.293 1.489.322 1.56-.515.083-.962-1.54-1.231-1.998-1.281-.124-.013-.753.015-.73-.26.018-.234.434-.162.489-.321.064-.186-.14-.221-.25-.332-.162-.164-.155-.24-.247-.433-.103-.217-.077-.247-.291-.375-.136-.08-.47-.083-.548-.26-.092-.211.064-.33.11-.523.082-.367-.01-.379-.187-.492z" fill="#fff"/><path opacity=".2" d="M37.438 30.381c.058.032.126.069.198.124.165.128.02.255.412.182.5-.093.25-.393.553-.657.105-.09.261-.12.294-.278.024-.12-.164-.206-.144-.299.068-.316.524-.282.742-.442.365-.265.105-.274-.002-.573.243-.065 1.203-.175.982-.576-.29-.525-1.558.125-1.754-.6.279-.112 1.444-.046 1.547-.335.136-.377-.555-.195-.636-.46-.037-.121.175-.24.145-.371-.04-.179-.354-.197-.378-.346-.056-.326.611-.19.581-.6-.017-.224-.273-.27-.338-.46-.051-.146.07-.298 0-.473-.13-.323-.659-.545-.966-.616-.293-.069-.352.097-.553-.156-.245-.306-.066-.518-.546-.659-.282-.083-.683.024-.895.232-.108.104-.126.27-.222.36-.168.158-.422.15-.567.37-.084.128-.04.358-.122.456-.27.316-1.069.043-1.197.613-.092.408.653.517.312.774-.391.293-1.821-.322-1.908.516-.1.961 1.886 1.23 2.445 1.278.152.013.922-.015.894.26-.025.234-.533.162-.599.321-.077.186.171.221.307.332.197.164.188.24.301.433.128.217.094.249.356.375.165.08.574.083.668.26.113.211-.08.33-.132.523-.107.37.006.38.222.492z" fill="#fff"/><path opacity=".3" d="M27.552 38.918c-1.434.33-.997-1.007-1.154-1.056.047.015 1.459.986 1.154 1.056z" fill="#14AFEB"/><path d="M20.553 43.223c-.038-.019.126-.256.088-.275-1.445-.718-3.39 1.14-6.07-2.91l-.089.275s1.574 4.311 3.408 3.975c1.835-.334 2.663-1.065 2.663-1.065z" fill="#A00"/><path d="M16.194 40.221c.094-.039.444-.22.444-.22s.047.412.03.484c-.016.072.343.072.343.072l.326.433s.04 1.175.088 1.163c.049-.01.4-.33.4-.33l.09.588.442-.304.133.56.128-.469.354.19-.083-.31c.566.33 1.203.59 1.752.872 0 0-.828.731-2.663 1.065-1.835.336-3.408-3.976-3.408-3.976s.254-.059.627-.14c.467.172.948.34.997.322z" fill="#7F0000"/><path d="M49.354 27.794c-.3.338-.512 1.086-.516 1.383-.004.254.171.553.108.796-.213.811-1.192.09-1.568.393-.405.329.3.916.62 1.012.48.145 1.168-.056 1.63-.195.981-.295 2.262-1.128 2.716-2.07.218-.452-1.462-1.124-1.714-1.22-.268-.103-.78-.36-1.073-.253a.58.58 0 0 0-.203.154z" fill="#14AFEB"/><path d="M52.163 28.76c-.684 1.424-4.717 3.659-5.218 1.181.309.147.74.338.674.275-.098-.093-.301-.45-.301-.45l.905.166s-.182-.158-.149-.247c.111-.286.106-.223.23-.401.124-.18.23-.403.126-.432-.103-.03.171-.741.171-.741.16-.277.322-.527.548-.694.056-.041.115-.078.179-.108.48-.224 3.046 1.015 2.835 1.452z" fill="#192D4B"/><path opacity=".3" d="M38.17 33.467c.043.05.092.111.144.2.123.206.016.409.301.292.367-.15.185-.633.405-1.056.077-.147.192-.195.215-.45.018-.194-.119-.33-.106-.48.05-.507.382-.453.544-.707.267-.427.077-.444-.002-.923.179-.105.88-.28.719-.926-.213-.846-1.142.2-1.283-.963.205-.18 1.057-.074 1.133-.538.1-.605-.407-.314-.467-.74-.027-.194.128-.385.105-.598-.028-.284-.26-.316-.278-.555-.042-.526.447-.305.425-.965-.011-.36-.201-.437-.248-.741-.038-.236.05-.483 0-.761-.096-.52-.484-.878-.708-.991-.215-.11-.258.154-.405-.253-.178-.491-.049-.831-.4-1.057-.207-.132-.501.039-.657.373-.077.167-.092.432-.162.579-.122.254-.309.243-.414.594-.062.208-.028.575-.09.735-.198.506-.783.068-.877.983-.068.657.478.832.227 1.244-.286.473-1.334-.514-1.398.83-.073 1.546 1.382 1.974 1.79 2.056.11.022.675-.024.655.418-.017.374-.39.26-.439.514-.056.297.124.352.224.534.145.264.138.386.22.694.094.35.07.397.262.602.122.128.422.133.49.417.082.34-.06.531-.099.841-.067.601.015.618.173.798z" fill="#fff"/></g><defs><radialGradient id="paint0_radial" cx="0" cy="0" r="1" gradientUnits="userSpaceOnUse" gradientTransform="matrix(-8.7872 0 0 -8.66683 35.203 28.343)"><stop stop-color="#494947"/><stop offset="1"/></radialGradient><clipPath id="clip0"><path fill="#fff" transform="translate(0 8.4)" d="M0 0h73v54.403H0z"/></clipPath></defs></svg>