<svg width="72" height="72" fill="none" xmlns="http://www.w3.org/2000/svg" viewBox="0 0 72 72"><g clip-path="url(#clip0)"><path d="M30.08 66.941l4.352-.348-2.035-2.331v.697l-.587.34v.7l-1.73.942z" fill="#0032A5"/><path d="M30.08 66.941l4.352-.348-2.035-2.331v.697l-.587.34v.7l-1.73.942z" fill="#CDD5E9"/><path d="M34.432 66.594l10.257-1.685 27.31-16.082-41.968-28.11L1.764 48.075l32.668 18.519z" fill="#DFE7FB"/><path d="M63.651 29.195l.098-5.502L34.641 7.109l-.149 5.154 29.159 16.931z" fill="#D1CAB3"/><path d="M63.65 29.194l2.153-1.062.16-5.578-2.214 1.139-.099 5.501z" fill="#D3AE97"/><path d="M34.64 7.11L36.572 6l29.392 16.554-2.215 1.139L34.641 7.109z" fill="#F2F2F2"/><path d="M3.559 50.654L1.016 49.15l-.002-16.27 2.545 2.137v15.637z" fill="#D6B98F"/><path d="M5.193 49.711l-1.634.943v-18.97l1.636 1.497-.002 16.53z" fill="#C3A581"/><path d="M63.665 44.886l-.004 4.828-27.476 15.864-.708.412-1.045.604v-4.855L5.189 44.886l.005-19.288 29.235 15.869L63.661 25.6l.004 19.286z" fill="#C7A199"/><path d="M5.195 25.598L34.43 8.716 63.664 25.6 34.431 41.467 5.195 25.598z" fill="#E8E6DC"/><path d="M34.431 61.739v4.855L5.19 49.714v-4.828l.005-19.288 29.235 15.869.002 20.272z" fill="#D6B98F"/><path d="M6.626 32.735L6.61 46.326l17.644 10.188.002-13.582L6.626 32.735z" fill="#CDDFF8"/><path d="M23.485 43.065v3.895l-.002 8.63-7.477-4.257-3.499-1.99-.33-.193-.751-.424-4.444-2.532.003-1.995v-.864l.002-.712.002-2.771.006-6.193 5.355 3.055 2.4 1.37.618.35.747.426 6.167 3.52.744.424.337.19.122.07z" fill="#82BEF2"/><path d="M23.485 43.065v3.895l-7.479 4.373-3.498-1.99 10.856-6.349.121.07zM14.75 38.083l-7.764 4.54.002-2.771 5.361-3.138 2.4 1.37zM23.026 42.804l-10.85 6.347-.75-.425 10.856-6.346.744.424zM16.114 38.86l-9.13 5.339v-.864l8.384-4.902.746.426z" fill="#A0CCF2"/><path d="M58.2 33.875l.016 13.59-17.644 10.189-.002-13.582L58.2 33.875z" fill="#CDDFF8"/><path d="M41.338 44.204V48.1l.004 8.631 7.475-4.258 3.498-1.99.333-.192.749-.424 4.446-2.532-.003-1.995v-.864l-.004-.712-.002-2.771-.006-6.193-5.355 3.057-2.398 1.367-.618.35-.747.427-6.169 3.52-.744.424-.337.19-.122.07z" fill="#82BEF2"/><path d="M41.338 44.204V48.1l7.479 4.373 3.498-1.99-10.855-6.348-.122.07zM50.076 39.223l7.76 4.54-.001-2.772-5.361-3.136-2.398 1.368zM41.797 43.944l10.852 6.346.748-.424-10.856-6.346-.744.424zM48.71 39.999l9.131 5.34v-.865l-8.383-4.902-.747.427z" fill="#A0CCF2"/><path d="M60.835 24.741L36.36 38.027l-.019.008-1.721.937-.8-.435-.683-.37h-.004l-.858-.467-.659-.358-.86-.465-.684-.373-.858-.465-.623-.34-.862-.467-.68-.369-.862-.467-.657-.36h-.004l-.858-.465h-.002l-.678-.372h-.005l-.86-.465-.62-.339-.858-.467h-.004l-.68-.371-.862-.467-.661-.359-.858-.465-.685-.373-.857-.465-.662-.359-.86-.467-.684-.37-.86-.468-.659-.358-.862-.465-.684-.374-.858-.465-2.509-1.36L34.62 9.6 60.835 24.74z" fill="#D6CDB1"/><path d="M34.426 9.784l-.004 1.95 24.587 14.08 1.634-.888L34.426 9.784z" fill="#B39688"/><path d="M34.426 9.784l-.004 1.95-23.557 13.463 1.946-2.93L34.426 9.785z" fill="#C4A796"/><path d="M34.425 41.466l-.06-5.376-29.17-15.578v5.085l29.23 15.87z" fill="#E8E6DC"/><path d="M34.425 41.467l2.095-1.108v-5.506l-2.153 1.187.058 5.427z" fill="#D3AE97"/><path d="M5.195 20.512l1.871-1.148 29.453 15.49-2.152 1.186L5.195 20.512z" fill="#F2F2F2"/><path d="M63.323 51.779l2.543-1.504.002-24.461-2.598 1.348.053 24.617z" fill="#C7A199"/><path d="M61.692 50.836l1.632.943-.054-24.618-1.583-.49.005 24.165z" fill="#9D7A76"/><path d="M61.688 26.67l1.582.491 2.599-1.348-1.788-.437-2.394 1.295z" fill="#C5A8A8"/><path d="M25.152 45.836L25.15 60.08l7.247 4.182V50.017l-7.244-4.181z" fill="#CDDFF8"/><path d="M31.969 50.354v13.049l-1.884-1.086-.38-.22-.627-.363-1.423-.82-2.325-1.343v-5.237l.002-7.814 6.637 3.834z" fill="#82BEF2"/><path d="M31.969 50.452v1.656L25.33 55.99v-1.655l6.639-3.883zM31.968 58.39v1.655l-2.89 1.69-1.424-.822 4.314-2.523zM31.968 60.773v.443l-1.883 1.1-.38-.219 2.263-1.325zM31.969 52.984v.779l-6.639 3.882v-.778l6.639-3.883z" fill="#A0CCF2"/><path opacity=".35" d="M5.154 36.813v1.992l29.28 15.666.01-8.863-29.29-8.795z" fill="#614CA0"/><path d="M25.025 36.2l-4.21 6.787-3.107-1.666-1.841-.994-3.121-1.674-2.3-1.233-2.973-1.598-2.014-1.082-2.935-1.576L0 31.807l4.45-6.61 2.528 1.348 2.707 1.45 2.248 1.201 2.748 1.47 2.525 1.352 2.895 1.549 2.078 1.107 2.846 1.525z" fill="#407BED"/><path d="M25.025 36.2l.128 4.185-4.337 2.602 4.21-6.788z" fill="#3774C3"/><path d="M1.764 32.735l2.653 1.427 4.147-6.764-2.353-1.274-4.447 6.61zM6.82 35.453l2.372 1.271 4.222-6.751-2.468-1.319-4.126 6.799zM11.592 38.014l2.372 1.274 4.202-6.773-2.385-1.276-4.19 6.775zM16.355 40.573l2.34 1.258 4.195-6.79-2.368-1.265-4.166 6.797z" fill="#CAE0F6"/><path d="M20.816 42.987l.07 2.334-2.099-1.142-2.361-1.284-2.394-1.3-2.37-1.285-2.395-1.302-2.379-1.294-2.402-1.304-2.654-1.44-1.764-.96L0 31.807l1.766.947v.004l2.652 1.423 2.402 1.288 2.37 1.274 2.402 1.29 2.37 1.274 2.393 1.282v.004l2.34 1.255 2.12 1.139z" fill="#4991F6"/><path d="M20.887 45.321l4.339-2.536-.073-2.4-4.337 2.602.07 2.334z" fill="#2D70DB"/><path d="M4.417 34.163l.069 2.248-2.654-1.44-.068-2.236 2.653 1.428zM9.267 39.01L6.89 37.713l-.069-2.272.002.002 2.368 1.28v.02l.077 2.265zM13.962 39.288l.07 2.308-2.37-1.286-.07-2.295 2.37 1.273zM18.787 44.18l-2.361-1.285-.07-2.334.002.003 2.338 1.265v.023l.091 2.327z" fill="#fff"/><path d="M34.444 41.42l-4.211 6.791-2.119-1.137v-.002l-2.34-1.254v-.004h-.002l-2.391-1.285v-.02l4.198-6.761 1.941 1.041.412.218 1.666.891.702.376 2.144 1.145z" fill="#407BED"/><path d="M34.443 41.422v4.185l-4.209 2.605 4.21-6.79z" fill="#3774C3"/><path d="M25.771 45.794l2.343 1.259 4.194-6.79-2.37-1.265-4.166 6.796z" fill="#CAE0F6"/><path d="M30.303 50.543l-2.097-1.14-2.363-1.283-2.372-1.289-.022-.01-.068-2.292 2.391 1.284h.002v.005l2.34 1.254 2.119 1.14.07 2.33z" fill="#4991F6"/><path d="M30.305 50.545l4.138-2.517v-2.422l-4.209 2.605.07 2.334z" fill="#2E6FED"/><path d="M28.203 49.402l-2.361-1.282-.07-2.336.004.002 2.336 1.265.002.024.09 2.327z" fill="#fff"/><path d="M24.564 61.118l-1.771.94 7.287 4.184 1.73-.943-7.246-4.18z" fill="#D6B98F"/><path d="M22.793 62.059v.712l7.287 4.17v-.7l-7.287-4.182z" fill="#BC9F7C"/><path d="M30.08 66.243l1.73-.943v.7l-1.73.942v-.7z" fill="#AE8F6F"/><path d="M25.151 60.081l-1.77.939 7.287 4.185 1.73-.943-7.247-4.18z" fill="#D6B98F"/><path d="M23.38 61.02v.714l7.288 4.168v-.697L23.38 61.02z" fill="#BC9F7C"/><path d="M30.668 65.205l1.73-.943v.697l-1.73.943v-.697z" fill="#AE8F6F"/><path d="M25.15 60.081L5.155 48.304l-1.595.847L23.38 61.02l1.77-.939z" fill="#E6E6E6"/><path d="M3.559 49.15v1.504l19.235 11.404.586-.324.081-.757L3.56 49.15z" fill="#D5D0CD"/><path opacity=".16" d="M36.518 34.853l4.565 3.002-4.565 2.504v-5.506z" fill="#766565"/><path opacity=".35" d="M37.53 48.067l.044 6.404 24.933-13.685.07-1.805-25.048 9.086z" fill="#614CA0"/><path d="M37.648 41.48l4.295 6.734 3.086-1.706 1.828-1.016 3.102-1.71 2.283-1.263 2.952-1.634 2.003-1.107 2.914-1.613 2.507-1.387-4.531-6.557-2.511 1.382-2.69 1.483-2.233 1.228-2.729 1.502-2.51 1.385-2.874 1.584-2.065 1.135-2.827 1.56z" fill="#407BED"/><path d="M37.649 41.477l-.075 4.188 4.369 2.55-4.294-6.738z" fill="#3774C3"/><path d="M60.867 37.727l-2.637 1.46L54 32.473l2.338-1.303 4.529 6.557zM55.846 40.507l-2.358 1.301-4.304-6.698 2.453-1.35 4.209 6.747zM51.104 43.13l-2.353 1.3-4.288-6.72 2.37-1.305 4.27 6.724zM46.374 45.744l-2.325 1.287-4.28-6.737 2.356-1.295 4.249 6.745z" fill="#CAE0F6"/><path d="M41.943 48.215l-.043 2.333 2.087-1.167 2.344-1.312 2.377-1.329 2.355-1.316 2.38-1.33 2.36-1.324 2.387-1.335 2.634-1.472 1.754-.981.04-2.204-1.753.969v.002l-2.635 1.457-2.387 1.318-2.353 1.304-2.387 1.318-2.353 1.303-2.376 1.312v.005l-2.326 1.284-2.105 1.165z" fill="#4991F6"/><path d="M41.9 50.55l-4.37-2.483.044-2.402 4.369 2.55-.043 2.335z" fill="#2D70DB"/><path d="M58.23 39.187l-.04 2.248 2.634-1.472.04-2.236-2.634 1.46zM53.443 44.093l2.36-1.323.042-2.276-.004.004-2.35 1.31v.02l-.048 2.265zM48.75 44.43l-.043 2.31 2.355-1.316.04-2.297-2.352 1.303zM43.986 49.381l2.345-1.312.042-2.336-.004.003-2.32 1.294v.022l-.063 2.33z" fill="#fff"/><path d="M34.432 66.593l-2.035-2.331v.697l-.424.233 2.46 1.401z" fill="#BBADAB"/></g><defs><clipPath id="clip0"><path fill="#fff" transform="translate(0 6)" d="M0 0h72v60.941H0z"/></clipPath></defs></svg>