<svg width="72" height="72" fill="none" xmlns="http://www.w3.org/2000/svg" viewBox="0 0 72 72"><g clip-path="url(#clip0)"><path d="M.604 32.481c-.823.47-.802 1.203.045 1.631l7.838 5.015 41.496 20.876c.844.426 2.24.416 3.169.227 3.528-.718 8.733-2.325 11.507-3.667.853-.413 2.087-1.203 2.85-1.764 1.284-.941 3.431-2.977 4.176-4.517.413-.854.525-1.565-.32-1.99l-50.988-25.66c-.848-.425-2.21-.389-3.034.082L.604 32.48z" fill="#DFE7FB"/><path d="M1.813 23.455c-.256-1.471.778-2.53.778-2.53s.582-1.707 2.117-3.576c1.535-1.867 7.294-5.18 8.926-5.86 1.631-.68 3.453-.765 4.348-.642.896.124 5.081 1.445 5.081 1.445s5.07.404 9.279 2.078c4.206 1.673 8.769 4.188 12.15 5.988 1.968 1.05 5.578 3.788 8.25 5.893l.313-.2s-.26-1.23-.199-1.447c.06-.22.688-1.758.688-1.758s.766.778 1 1.42c.233.643-.171 1.614-.295 2.084-.072.268-.229.588-.352.814-.003-.003-.006-.003-.01-.006 1.312 1.047 2.202 1.782 2.202 1.782 4.647 1.825 10.638 6.993 10.638 6.993 1.146.058 1.933 2.217 2.757 3.688.823 1.472.78 2.464.757 2.895-.025.431.548 6.61-4.463 10.08-5.015 3.472-10.998 4.244-13.664 4.066a13.279 13.279 0 0 1-3.03-.564c-.103-.5-.202-.971-.22-1.297-.163-2.69-2.557-5.907-5.006-7.032-3.172-1.46-4.653.024-4.49 2.714.015.265.096.688.205 1.13L15.398 39.44c-.106-.573-.22-1.164-.28-1.52-.399-2.448-2.307-5.207-4.436-6.483-3.402-2.038-4.418-.102-4.053 2.566v.003C5.423 32.91 3.42 31.07 2.395 30.032.866 28.485.984 26.262.87 25.476c-.123-.79.944-2.02.944-2.02z" fill="#14AFEB"/><path d="M.861 25.473c.115.787-.006 3.009 1.526 4.556 1.025 1.037 3.027 2.877 4.234 3.974V34c-.365-2.668.651-4.604 4.053-2.566 2.128 1.276 4.04 4.035 4.435 6.483.057.356.172.947.28 1.52l24.176 12.174c-.106-.44-.187-.863-.205-1.131-.163-2.69 1.318-4.176 4.49-2.714 2.451 1.128 4.846 4.342 5.005 7.032.019.326.118.796.22 1.297.764.238 1.804.48 3.031.564 2.666.18 8.649-.594 13.663-4.065 4.55-3.148 4.5-8.525 4.47-9.819-.423 2.214-1.539 4.982-4.6 7.087-3.163 2.177-5.63 3.347-10.819 3.555-3.055.12-5.105-.802-6.254-1.236l-.015-.23c1.149.435 3.172.938 6.227.818 5.187-.208 7.653-1.381 10.82-3.555 3.081-2.12 4.191-4.91 4.607-7.132.015.078.024.15.036.223.012-.504-.054-1.414-.766-2.687-.229-.413-.458-.877-.693-1.336-.537.911-.887.465-.887.465-.027.992-.434 2.382-.687 2.846-.254.465-1.047 2.096-3.257 3.673s-4.72 2.413-6.155 2.874c-1.435.461-2.801.407-2.801.407-1.683.844-3.404.118-3.404.118-.401-.787-2.108-1.731-3.39-2.37-.697-.347-1.92-1.068-3.037-1.774-.934-.59-1.483-.986-1.483-.986-2.792-1.79-3.878-3.25-3.878-3.25-2.123-3.7-6.14-8.911-6.14-8.911-2.921-3.61-8.43-6.08-12.125-7.892-2.635-1.296-6.592-1.142-9.912-1.26l-3.935-.205s-3.99-1.065-4.068-3.166c-.739 1.188-1.037 2.068-1.037 2.068s-1.034 1.059-.778 2.53c0 0 1.7 3.616 3.423 5.72 0 0-3.149-2.484-4.298-4.278-.06.205-.096.404-.072.582zm31.654 11.929c1.03-.232 1.64-.603 2.032-.257l1.146 1.044s.6.585.175.862c-.425.278-1.834.362-2.992.431-1.157.07-1.248-.983-1.272-1.151-.021-.175-.118-.697.91-.93z" fill="#0082C8"/><path d="M17.32 23.962c.214-.036.431-.057.645-.072 3.26-.196 6.559 1.87 7.696 2.5 1.821 1.013 5.237 2.852 7.21 5.153 2.412 2.814 1.845 2.585 5.494 8.83 0 0-1.037-.522-2.554-1.294l.057-.03c.425-.275-.175-.863-.175-.863l-1.146-1.043c-.392-.347-1 .021-2.026.253-2.669-1.369-5.612-2.898-7.346-3.857-3.751-2.074-13.365-7.448-13.365-7.448s2.045-1.565 5.51-2.129z" fill="#0082C8"/><path d="M41.297 47.94l1.118-.663c.434.088.91.248 1.439.489 2.451 1.128 4.846 4.342 5.005 7.032.018.326.118.796.22 1.297h.004l-1.97 1.173c-.675.407-1.622.389-2.699-.148-2.219-1.11-4.14-4.017-4.288-6.492-.08-1.345.377-2.286 1.17-2.687z" fill="#192D4B"/><path d="M42.414 47.274l-1.119.663c-.793.401-1.251 1.342-1.17 2.69.015.256.051.519.103.784l-.664.196c-.105-.44-.187-.862-.205-1.13-.132-2.241.875-3.646 3.055-3.203z" fill="#004687"/><path d="M40.127 50.627c.147 2.475 2.068 5.382 4.288 6.492 2.219 1.11 3.899 0 3.75-2.476-.147-2.476-2.068-5.382-4.29-6.492-2.22-1.107-3.9 0-3.748 2.476z" fill="#192D4B"/><path d="M40.362 50.862c.139 2.283 1.909 4.963 3.956 5.989 2.048 1.022 3.598 0 3.459-2.283-.139-2.283-1.909-4.964-3.956-5.989-2.048-1.022-3.595 0-3.46 2.283z" fill="#192D4B"/><path d="M41.313 51.39c.102 1.701 1.42 3.697 2.943 4.457 1.523.76 2.675 0 2.575-1.7-.102-1.701-1.42-3.694-2.943-4.457-1.526-.763-2.677 0-2.575 1.7z" fill="#0082C8"/><path d="M43.451 52.21c.03.495.413 1.077.86 1.3.443.223.78 0 .75-.494-.03-.495-.413-1.08-.859-1.3-.446-.223-.781-.003-.75.495zM8.094 31.22L9 30.684c.48.123 1.034.367 1.677.75 2.129 1.276 4.04 4.035 4.435 6.484.058.356.172.947.28 1.52l.212.105-1.692 1.007c-.675.407-1.622.39-2.699-.147-2.219-1.11-4.14-4.017-4.29-6.493-.082-1.348.376-2.292 1.172-2.69z" fill="#192D4B"/><path d="M6.921 33.907c.148 2.476 2.072 5.383 4.291 6.493 2.22 1.11 3.9 0 3.752-2.476-.148-2.476-2.07-5.383-4.292-6.492-2.219-1.11-3.899 0-3.75 2.475z" fill="#192D4B"/><path d="M7.157 34.142c.138 2.283 1.909 4.964 3.956 5.989 2.048 1.022 3.598 0 3.459-2.283-.139-2.282-1.909-4.963-3.956-5.988-2.045-1.023-3.595 0-3.46 2.282z" fill="#192D4B"/><path d="M8.11 34.667c.102 1.7 1.42 3.694 2.943 4.456 1.522.76 2.674 0 2.572-1.697-.103-1.7-1.42-3.697-2.943-4.457-1.52-.763-2.672 0-2.572 1.698z" fill="#0082C8"/><path d="M10.232 35.48c.03.507.423 1.098.875 1.325.452.226.796 0 .766-.504-.03-.504-.422-1.098-.875-1.324-.452-.229-.796-.003-.766.504z" fill="#192D4B"/><path d="M8.996 30.68l-.905.537c-.793.402-1.254 1.342-1.173 2.69 0 .012.003.024.003.033l-.304.06v-.002c-.296-2.165.32-3.848 2.379-3.317z" fill="#004687"/><path d="M41.299 26.174c2.49-1.742 5.217-4.07 5.217-4.07s4.315 2.873 5.723 3.995a59.25 59.25 0 0 0 3.848 2.838c.232.09.47.193.708.298 2.033 1.538-1.324 4.759-3.914 6.713-2.587 1.954-6.827 4.212-9.35 4.683-.26.048-.504.078-.734.09-1.996.12-2.846-.947-2.846-.947-1.933-3.39-6.164-9.007-6.164-9.007s5.02-2.85 7.512-4.593zM8.397 20.4c.848-1.284 4.18-3.684 5.923-4.797 1.245-.796 3.263-2.132 5.684-2.84a11.587 11.587 0 0 1 2.54-.456c.171-.009.346-.015.52-.018 0 0 2.491.2 5.432.896 0 0-4.044 2.22-5.862 3.504-1.816 1.281-5.323 4.086-5.718 4.478 0 0-.633.778-1.287.817-.658.039-7.259-.305-7.259-.305s-.82.01.027-1.278z" fill="#0082C8"/><path d="M41.444 26.383c2.144-1.502 4.49-3.453 5.09-3.96.79.529 4.315 2.896 5.545 3.879 2.093 1.67 3.851 2.837 3.866 2.85l.021.014.024.01c.027.012.055.024.082.033.214.416.374.962.175 1.507-.401 1.116-2.443 3.218-4.43 4.53-1.918 1.266-5.576 4.194-10.416 5.093-.784-.22-1.173-.627-1.245-.709-1.704-2.976-5.187-7.692-5.998-8.784 1.05-.6 5.13-2.955 7.286-4.463zM24.873 26.317c.226.124.422.235.585.32-.62 1.68-1.212 4.819-1.423 5.982-2.06-1.142-4.94-2.75-7.373-4.107l1.354-4.37c2.684-.147 5.398 1.36 6.857 2.175z" fill="#94DAEE"/><path d="M17.36 24.212c.055-.01.11-.015.167-.024l-1.348 4.052c-1.764-.986-3.233-1.806-3.884-2.168.7-.446 2.488-1.441 5.066-1.86zM15.614 21.73c.444-.027.95-.53 1.107-.723l.01-.012.008-.01c.42-.416 3.872-3.322 5.748-4.505 3.688-2.325 4.813-2.792 5.799-3.344a40.447 40.447 0 0 0-5.175-.841c-.606.084-1.39.256-2.425.482-2.517.622-4.655 2.033-6.037 2.916l-.195.127c-1.958 1.248-5.07 3.543-5.85 4.725-.426.646-.335.836-.332.845.018.036.09.042.09.042h.018c2.283.114 6.725.329 7.234.298z" fill="#192D4B"/><path d="M68.718 44.117s-.82-3.441-.88-3.818c-.058-.377.56-2.602-1.053-4.36 1.04.123 1.785 1.975 2.54 3.395.053 1.061.08 3.44-.607 4.782zM58.788 50.93s-.956-.926-1.791-1.56c-.836-.633-1.382-.829-2.461-.84-1.077-.013-2.747.038-3.57-.127a32.224 32.224 0 0 0-2.012-.362c-.525-.07-.956-.082-.603.506s.787 1.84 2.075 2.196c1.29.358 1.984.41 3.594.422 1.613.012 4.768-.235 4.768-.235z" fill="#E1E8EC"/><path d="M61.367 50.526a1.96 1.96 0 0 0 .666-.16l.178-.076c1.007-.425 2.259-.956 3.377-1.896.96-.808 1.596-1.436 1.948-1.918.311-.425.438-.875.386-1.372-.048-.468-.205-1.906-.292-2.72-.371.573-1.034 1.544-1.75 2.352-.605.681-1.88 1.927-3.636 2.587-.123.045-.244.097-.365.145-.12.048-.238.096-.358.142a41.34 41.34 0 0 1-3.502 1.136l2.328 1.55s.42.266 1.02.23zM53.667 55.006c.703-.087 2.515-.26 3.38-.413.145-.024.284-.073.338.322.055.395-.494.477-.494.477-.76.114-1.469.202-1.927.226 0 0-1.372.1-1.499.103-.16.006-.277-.085-.277-.085-.067-.247.042-.576.48-.63zM61.496 53.607l.174.431s.166.242.655-.003c.488-.244 2.494-1.32 3.655-2.189a12.411 12.411 0 0 0 1.79-1.676c.148-.184.284-.655.29-.824.006-.168.106-.497-.271-.06s-1.722 1.583-2.62 2.18c-.9.597-3.152 1.731-3.535 1.879 0-.003-.21.081-.138.262z" fill="#006399"/><path d="M2.527 20.995s-.247.561.247 1.125c.492.564 1.586 1.538 1.586 1.538s.278.108-.232.726c-.506.616-.57.622-.57.622s-.075.087-.196.096c-.093.006-.21-.036-.34-.199-.302-.377-.914-.959-1.21-1.444-.217-1.252.492-2.201.715-2.464z" fill="#0082C8"/><path d="M34.545 37.146c-.34-.302-.85-.06-1.655.16a404.578 404.578 0 0 1-6.556-3.42c.027-2.267.211-5.428.286-6.646 2.705 1.457 4.786 2.989 6.059 4.47 1.58 1.845 1.866 2.366 2.934 4.311l.009.018-.082 2.009-.995-.902z" fill="#94DAEE"/><path d="M24.873 26.317c.226.124.422.235.585.32-.62 1.68-1.212 4.819-1.423 5.982-2.06-1.142-4.94-2.75-7.373-4.107l1.354-4.37c2.684-.147 5.398 1.36 6.857 2.175zM41.444 26.383c2.144-1.502 4.49-3.453 5.09-3.96.79.529 4.315 2.896 5.545 3.879 2.093 1.67 3.851 2.837 3.866 2.85l.021.014.024.01c.027.012.055.024.082.033.214.416.374.962.175 1.507-.401 1.116-2.443 3.218-4.43 4.53-1.918 1.266-5.576 4.194-10.416 5.093-.784-.22-1.173-.627-1.245-.709-1.704-2.976-5.187-7.692-5.998-8.784 1.05-.6 5.13-2.955 7.286-4.463zM34.545 37.146c-.34-.302-.85-.06-1.655.16a404.578 404.578 0 0 1-6.556-3.42c.027-2.267.211-5.428.286-6.646 2.705 1.457 4.786 2.989 6.059 4.47 1.58 1.845 1.866 2.366 2.934 4.311l.009.018-.082 2.009-.995-.902z" fill="#192D4B"/></g><defs><clipPath id="clip0"><path fill="#fff" d="M0 0h72v72H0z"/></clipPath></defs></svg>