<svg width="72" height="72" fill="none" xmlns="http://www.w3.org/2000/svg" viewBox="0 0 72 72"><g clip-path="url(#clip0)"><path d="M59.872 43.784l12.127 5.623-24.034 14.53-9.82-1.438 3.051-16.13 18.676-2.585z" fill="#DFE7FB"/><path d="M43.31 61.928L2.18 38.065v-14.63l41.13 23.863v14.63z" fill="#E6DED4"/><path d="M2.096 37.09l41.213 23.803v1.035L2.096 38.124V37.09z" fill="#997665"/><path d="M17.716 36.327l3.803 2.179v10.876L17.51 47.1V36.43l.207-.103z" fill="#73594C"/><path d="M17.51 36.43l3.8 2.18v10.669l-3.8-2.179V36.43z" fill="#9F7C69"/><path d="M17.822 47.231v-8.916l3.18 1.823v8.914l-3.18-1.82z" fill="#8A6B5B"/><path d="M17.994 47.337l-.172-.106v-8.916l.172.106v8.916zM21.001 39.818l-3.179-1.82v-1.031l3.18 1.82v1.03z" fill="#73594C"/><path d="M17.994 37.896v-.822l3.007 1.715v.822l-3.007-1.715z" fill="#436099"/><path d="M18.42 44.678l-.426-.206v-1.57l.425.207v1.57z" fill="#B3B3B3"/><path d="M12.243 41.254l-5.151-2.949v-8.25l5.151 2.949v8.25z" fill="#A8826F"/><path d="M7.506 38.064V30.77l4.321 2.473v7.294l-4.321-2.473z" fill="#48302E"/><path d="M7.922 37.84v-6.815l3.906 2.236v6.814l-3.906-2.236z" fill="#436099"/><path d="M11.827 40.536l-4.321-2.472.415-.225 3.906 2.235v.462z" fill="#BF947E"/><path d="M11.828 35.122V33.26l-3.906-2.236v1.965c1.668.2 3.088 1.006 3.906 2.132z" fill="#617EC7"/><path d="M9.876 39.062l-.419-.243v-6.915l.42.24v6.918z" fill="#947261"/><path d="M9.938 32.178l-.061-.034v6.919l.06-.071v-6.814z" fill="#48302E"/><path opacity=".2" d="M2.385 28.434L43.308 52.03v-2.284L2.385 26.147v2.287z" fill="#000"/><path d="M43.29 48.13L58.746 32.8l7.387 2.31v13.697L43.29 61.827V48.13z" fill="#B3A58F"/><path d="M54.21 52.14l5.152-2.95v-8.249l-5.151 2.949v8.25z" fill="#906F5F"/><path d="M58.946 48.95v-7.292l-4.321 2.473v7.291l4.321-2.472z" fill="#30201F"/><path d="M58.531 48.727v-6.816l-3.906 2.236v6.814l3.906-2.234z" fill="#385181"/><path d="M54.625 51.423l4.321-2.473-.415-.223-3.906 2.234v.462z" fill="#A7816E"/><path d="M56.578 49.948l.42-.243V42.79l-.42.239v6.92z" fill="#7C6051"/><path d="M56.516 43.063l.062-.035v6.92l-.062-.071v-6.814z" fill="#30201F"/><path d="M38.145 48.804l3.051-1.8V60.7l-3.051 1.798V48.804z" fill="#B3A58F"/><path d="M58.747 32.8L14.422 7.2l8.197 2.49 45.488 26.25-9.36-3.14z" fill="#9C5336"/><path d="M44.346 49.373L0 23.81 14.421 7.2l44.326 25.6-14.401 16.573z" fill="#E38D5A"/><path d="M44.346 50.503L0 24.94v-1.13l44.346 25.564v1.13z" fill="#544643"/><path d="M19.629 40.293l6.206-2.656L38.16 51.42v11.016l-18.53-10.789V40.293z" fill="#F9F1E6"/><path d="M19.629 50.716l18.53 10.79v1.035l-18.53-10.79v-1.035z" fill="#997665"/><path d="M23.927 42.843l10.25 6.014v10.892l-10.456-6.117V42.946l.206-.103z" fill="#73594C"/><path d="M23.72 42.946L33.97 48.96v10.686L23.72 53.632V42.946z" fill="#9F7C69"/><path d="M24.238 53.853v-10l9.212 5.405v10l-9.212-5.405z" fill="#8A6B5B"/><path d="M24.478 44.468l-.052.089 8.998 5.28.052-.09-8.998-5.28zM24.478 45.325l-.052.09 8.998 5.279.052-.09-8.998-5.279zM24.478 46.181l-.052.09 8.998 5.28.052-.09-8.998-5.28zM24.478 47.038l-.052.089 8.998 5.28.052-.09-8.998-5.28zM24.478 47.894l-.052.09 8.998 5.28.052-.09-8.998-5.28zM24.48 48.753l-.052.089 8.998 5.28.052-.09-8.998-5.28zM24.478 49.61l-.052.088 8.998 5.28.052-.089-8.998-5.28zM24.478 50.466l-.052.089 8.998 5.28.052-.09-8.998-5.28zM24.478 51.322l-.052.09 8.998 5.279.052-.09-8.998-5.279zM24.478 52.18l-.052.089 8.998 5.28.052-.09-8.998-5.28zM24.48 53.038l-.052.089 8.998 5.28.052-.09-8.998-5.28zM24.48 53.894l-.052.09 8.998 5.28.052-.09-8.998-5.28z" fill="#544138"/><path d="M24.538 44.06l-.3-.207v10.105l.3.103v-10z" fill="#695145"/><path opacity=".2" d="M26.874 38.335v-.123l-7.3 2.3v3.325l7.3-2.298L38.16 54.634v-3.203L26.874 38.335z" fill="#000"/><path d="M23.286 37.291l18.944-9.039-16.394 9.489-7.43 2.36 4.88-2.81z" fill="#D17249"/><path d="M37.27 50.992l4.96-2.803V28.252l-16.394 9.489L37.27 50.99z" fill="#B35F3F"/><path d="M25.836 37.74l-7.379 2.319v1.11l7.379-2.32L37.27 52.126v-1.11L25.836 37.74z" fill="#544643"/><path d="M42.23 48.19l-4.958 2.802v1.134l4.959-2.803V48.19z" fill="#3D3331"/><path d="M14.691 26.523l3.955-1.452-3.955 4.621v-3.169z" fill="#9C8F7C"/><path d="M4.787 22.026l3.319-1.421 6.593 7.372v1.738l-9.912-5.773v-1.916z" fill="#F9F1E6"/><path d="M12.243 27.517l-5.151-2.946v-4.515l5.151 2.948v4.513z" fill="#A8826F"/><path d="M7.506 24.33v-3.557l4.321 2.472v3.558L7.506 24.33z" fill="#48302E"/><path d="M7.922 24.105v-3.08l3.906 2.236v3.08l-3.906-2.236z" fill="#436099"/><path d="M11.827 26.803L7.506 24.33l.415-.224 3.906 2.235v.462z" fill="#BF947E"/><path d="M9.876 25.326l-.419-.24v-3.182l.42.24v3.182z" fill="#947261"/><path d="M9.936 22.178l-.061-.034v3.183l.06-.071v-3.078z" fill="#48302E"/><path opacity=".2" d="M8.679 20.848v-.067l-3.892 1.227v1.774l3.892-1.227 6.02 6.984v-1.707l-6.02-6.984z" fill="#000"/><path d="M8.578 19.264l10.13-4.833-10.602 6.174-3.973 1.263 4.445-2.604z" fill="#D17249"/><path d="M14.223 27.694l4.485-2.6V14.43L8.105 20.605l6.118 7.089z" fill="#B35F3F"/><path d="M8.105 20.605l-3.947 1.24v.594l3.947-1.241 6.117 7.101v-.593l-6.117-7.101z" fill="#544643"/><path d="M18.708 25.094l-4.485 2.6v.605l4.485-2.6v-.605z" fill="#3D3331"/><path d="M66.135 47.772L43.31 60.893v1.035l22.825-13.122v-1.034zM41.196 59.666l-3.051 1.798V62.5l3.051-1.798v-1.035z" fill="#664F43"/><path opacity=".1" d="M42.05 25.982l-2.468 1.81-3.533.316 1.231-3.981 2.594.126 2.177 1.729z" fill="#000"/><path d="M39.137 20.934l-3.088 1.781v5.393l3.088-3.651v-3.523z" fill="#B3A58F"/><path d="M33.994 21.482l2.055 1.234v5.392l-2.055-1.235v-5.39z" fill="#F9F1E6"/><path d="M37.08 19.7l-3.086 1.782 2.055 1.233 3.089-1.782L37.08 19.7z" fill="#EDE6DB"/><path d="M35.016 21.49l1.038.624 1.019-.59v-1.222l-2.057 1.188z" fill="#7A7871"/><path d="M37.074 20.302v1.223l1.041-.6-1.04-.623z" fill="#B3A58F"/><path d="M58.747 32.8L44.346 49.374v1.11l14.401-16.575 9.36 3.141v-1.11l-9.36-3.14z" fill="#3D3331"/></g><defs><clipPath id="clip0"><path fill="#fff" transform="translate(0 7.2)" d="M0 0h72v56.736H0z"/></clipPath></defs></svg>