<svg width="72" height="72" fill="none" xmlns="http://www.w3.org/2000/svg" viewBox="0 0 72 72"><g clip-path="url(#clip0)"><path d="M22.078 61.598c8.217 0 14.878-2.49 14.878-5.564 0-3.072-6.661-5.563-14.878-5.563S7.199 52.96 7.199 56.034c0 3.073 6.662 5.564 14.879 5.564z" fill="#DFE7FB"/><path d="M32.449 63.368c6.47 0 11.717-1.962 11.717-4.381 0-2.42-5.246-4.382-11.717-4.382-6.47 0-11.717 1.962-11.717 4.382s5.246 4.38 11.717 4.38z" fill="#DFE7FB"/><path d="M38.573 72c7.572 0 13.71-2.295 13.71-5.126 0-2.83-6.139-5.125-13.71-5.125-7.572 0-13.71 2.295-13.71 5.125 0 2.831 6.138 5.126 13.71 5.126z" fill="#DFE7FB"/><path d="M47.346 66.17c9.823 0 17.787-2.978 17.787-6.651 0-3.673-7.964-6.65-17.787-6.65-9.824 0-17.787 2.977-17.787 6.65 0 3.673 7.963 6.65 17.787 6.65z" fill="#DFE7FB"/><path d="M28.867 9.2l-.274 2.372 1.096.736 2.071-.45 1.372-1.407-.589-1.96-2.482-1.928-1.627 1.605.433 1.032z" fill="#DE8767"/><path d="M33.68 23.828s2.19 2.393 2.666 4.28c.478 1.887 1.359 22.005 1.62 24.343-.078 2.712-2.608 4.088-5.663 3.84-3.052-.25-7.89-3.368-7.87-5.1 1.156-12.215.158-26.251.987-27.365.488-.721 8.26.002 8.26.002z" fill="#EDEFE8"/><path d="M23.648 13.447L21.41 17.44l1.86 1.313 3.104-3.99-2.726-1.316z" fill="#E89A82"/><path d="M26.779 8.333c-.872.301-1.489.904-1.802 1.591-.312.685-1.922 4.327-2.006 4.496 1.71.506 3.082 2.321 3.082 2.321s2.58-7.556.726-8.408z" fill="#FF597F"/><path d="M33.68 23.828s-.438 1.162-2.343 1.436c-3.324.472-5.917-1.436-5.917-1.436l.073-1.477 5.351 1.13 2.256-.343.58.69z" fill="#303030"/><path d="M34.555 18.614c-1.897 2.582-1.456 4.525-1.456 4.525s-.034.746-1.555.929c-3.587.646-6.073-1.363-6.073-1.363s-1.367-4.966-1.628-6.84c-.164-1.208 1.041-2.735 2.01-4.584.778-1.491 2.139-2.525 2.728-2.788h1.054c-1.08 2.276.103 2.827.103 2.827s1.94.963 2.607-1.455c.37.29 3.035 2.975 3.035 2.975s1.737 1.9-.825 5.774z" fill="#FF85A1"/><path d="M24.867 17.388s4.772 2.742 5.833 1.077c-.7 2.35-5.833-1.077-5.833-1.077z" fill="#FF6387"/><path d="M15.426 23.225c-.116.304.188 5.375-.27 7.034-.097.448-1.17 1.957-1.246 2.263-.07.306 0 1.374 0 1.374s.309.975.514 1.071c.208.096 1.632-.338 1.86-.626-.527-1.111.603-11.492.603-11.492s-1.342.073-1.46.376z" fill="#E89A82"/><path d="M21.733 15.68s.013 1.062.477 1.633c.027.365-1.114 1.399-1.114 1.399l-1.457 1.73-1.945-.23-.571-1.226.72-2.418 1.666-1.573 2.198-.23.026.915z" fill="#DE8767"/><path d="M17.653 51.656c-.867 1.312-2.662 1.547-3.253 1.954-.571.39-.637 1.404-.174 1.593 1.776.507 3.973-.842 3.973-.842s1.205.167 2.347-.466c.312-.173-.21-2.342-.21-2.342s-2.283.103-2.683.103z" fill="#fff"/><path d="M16.912 41.245s.527.968.544 1.708c-.08.888.573 5.303.196 8.703.358.171 2.173.424 2.682-.103-.045-1.712.656-5.534.656-6.23 0-.697-.356-1.987-.356-1.987l.164-2.45-3.886.36z" fill="#E89A82"/><path d="M15.613 30.27c.25 5.525.877 10.317 1.256 11.187.22.5 2.44 1.432 4.267.252.413-.172.18-7.964.18-7.964s-5.584-3.721-5.703-3.474z" fill="#000"/><path d="M23.693 54.031s-.245 1.162-.744 2.37c-.427 1.023-1.163 2.08-.745 2.534.907.993 2.628.137 3.085-.726.296-.573.422-1.237.474-1.386.05-.146.685-.564.59-1.342-.094-.774-.701-1.868-.701-1.868l-1.96.418zM40.418 65.265s-.247 1.162-.747 2.368c-.427 1.025-1.162 2.08-.744 2.536.909.993 2.63.137 3.084-.728.3-.571.423-1.238.475-1.384.053-.146.687-.564.592-1.342-.094-.776-.56-2.014-.56-2.014l-2.1.564z" fill="#fff"/><path d="M21.382 42.775c.28.242.838 3.14 1.438 3.5-.21 1.671.726 4.863.872 7.753.635.276 1.964.224 1.962-.417-.229-2.057.488-4.975.354-6.56-.094-1.07-.542-1.646-1.142-5.025-.345.048-3.77.507-3.484.75z" fill="#E89A82"/><path d="M23.648 30.832s.62.81 1.082 2.297c.459 1.486 1.032 9.216.902 9.572-.233 1.098-4.688 1.162-5.01.172-.125-.576-1.37-6.382-1.495-6.877-2.79-.856-3.516-5.724-3.516-5.724l8.037.56z" fill="#292929"/><path d="M16.784 15.75c-2.217.539-1.584 3.858-1.584 3.858l-.126 3.24s.56.982 1.71.47c.012-.436.222-7.598 0-7.568z" fill="#A62626"/><path d="M18.358 19.429c.56.253 3.025-2.543 3.933-2.206.95.72 1.103 1.14 2.137 1.877.213.267-1.639 8.865-1.182 10.956-.096.359-1.039 1-2.377 1.151-2.952.48-5.258-1.779-5.258-1.893.003-1.068 0-9.41.137-10.244.053-2.111 2.576-2.589 2.576-2.589s-.526 2.692.034 2.948z" fill="#D63A3A"/><path d="M17.122 17.358s-.735.712-.888.632c-.153-.08-.676-.993-.655-1.511.022-.516.673-1.192.673-1.192l.87 2.07z" fill="#DE8767"/><path d="M42.249 54.551c-.315.43-3.208 1.37-3.669 1.911-.461.541-.249 1.352-.064 1.58.183.222 1.968.368 3.164-.1.717-.279 1.831-.77 2.293-.955.46-.182 2.086-.09 2.575-.728.365-.504.08-2.436.08-2.436s-4.062.297-4.38.728z" fill="#1A1A1A"/><path d="M40.932 32.478c-.528 4.459 1.591 11.819 1.591 11.819s.541 5.637-.11 9.988c.204.754 3.325 1.361 4.27-.04.205-.99 1.043-8.026.47-9.487-.205-1.767.187-10.068.187-10.068s-4.78-5.402-6.548-5.721c-.002-.003-.018 1.897.14 3.509z" fill="#575757"/><path d="M50.516 59.726c-.114 1.174-1.815 3.585-1.192 4.68.366.637 2.825.873 3.758-.2.628-.724.69-2.252.69-2.252s.303-.71.303-1.257c0-.55-.221-1.178-.221-1.178s-3.064.032-3.338.207z" fill="#1A1A1A"/><path d="M52.43 35.102l.553 11.072s.821 2.443 1.111 3.327c.708 3.205.457 9.705.457 9.705-.153.548-1.249 1.009-2.92.963-.733-.018-1.644-.415-1.614-.895.03-.484-.08-7.757-1.014-10.883 0 0-2.637-5.678-3.395-11.878.023 0-5.02-3.984-4.817-7.544 0-.274 9.087 2 10.351 1.206 1.594 2.696 1.288 4.927 1.288 4.927z" fill="#666"/><path d="M50.839 29.442l.303.73s-.66 1.423-2.799 1.505c-4.431.121-7.552-2.71-7.552-2.71v-1.123l10.048 1.598z" fill="#78431C"/><path d="M41.844 29.66l1.146.665v-.797l-1.146-.662v.795z" fill="#969696"/><path d="M36.634 17.95c.253.612.495 3.612.495 3.612s.827 1.436 1.034 2.345c.128.378-.554 5.85-.554 5.85s-2.222-5.198-2.411-5.915c-.192-.716-.108-1.543-.108-1.543s-1.077-2.132-1.328-3.886c.04-.378 2.616-1.077 2.872-.463z" fill="#F79673"/><path d="M35.387 12.51c1.246 1.306 1.317 5.439 1.415 5.82-.36.824-2.75 1.358-3.296.603-.644-2.322-1.014-2.482-1.288-3.756-.091-.603-.381-1.927.105-2.461.489-.534 1.817-1.511 3.064-.206z" fill="#FF597F"/><path d="M39.168 30.22c.245.941.993 1.626.386 2.247-.12.066-.112-.068-.49-.278-.482.123-1-.288-1.206.945-.014.082.36.607.317.69-.45.104-.735.063-.927-.042-.19-.105-.19-.424-.253-1.182-.206-.32.379-1.676.379-2.614.351-1.697-.135-6.854.557-8.034.623-1.067 2.753-.06 3.388 1.031l-.57 1.742c-.572 2.124-1.332 2.393-1.647 4.941.071.018.06.534.066.555z" fill="#994E28"/><path d="M43.211 12.191c-2.077.103-3.164 2.907-4.063 5.484-.822 2.347-1.325 3.706-1.43 4.112-.221.856 2.88 2.333 3.375 1.694.075-.21 3.212-9.67 3.212-9.67s-.61-1.62-1.094-1.62z" fill="#BABABA"/><path d="M39.326 31.662s-.706-.744-1.196-.329c-.489.416-.599 1.265-.621 1.53-.078.765.217.9.536.918.317.018 1.306-.781 1.546-1.206.237-.425-.265-.913-.265-.913z" fill="#C2A091"/><path d="M39.343 31.81s-.667-.704-1.13-.309c-.464.393-.569 1.197-.592 1.45-.073.721.206.85.507.865.301.018 1.237-.737 1.463-1.139.226-.402-.248-.867-.248-.867z" fill="#F0C6B4"/><path d="M48.991 13.24l.153.429v.708l-1.038 1.607-2.918.486-1.516-.801v-1.797l1.014-2.014 3.004-.351 1.454.685-.153 1.048z" fill="#994E28"/><path d="M49.144 13.669c.48.77 4.359 3.975 4.359 3.975l-2.126 8.07-.598 2.012s0 1.105.06 1.716c-2.564 2.88-9.982-1.013-10.048-1.6-.044-2.379-.482-3.367-.893-8.584-.28-2.792 3.957-6.498 4.388-6.251-.644 1.922.93 2.422.93 2.422s1.791.87 3.928-1.76z" fill="#EDEFE8"/><path d="M42.827 7.74c-.404.509-.507 2.299-.507 2.299s0 .075.183.18c-.196.77.297 3.893.345 4.178.045.285.96.767 1.367.754.407-.016 2.569-.633 3.263-1.911.127-.238 0-.555 0-.555l.69-.409 1.17-.66-.42-2.436-1.669-1.712-3.052-1.05s-1.176 1.217-1.37 1.322z" fill="#B2663B"/><path d="M42.867 7.799c.09.102.489.54.653 1.036.603-.301 2.39 0 2.39 0s-.045.902.195 1.233c.242.33.393.24.676.301.255.315.24 1.128.24 1.128s.495-.69 1.202-.6c.188.025.496.134.482.6-.016.466-.77.706-.783.872-.062.797 1.069.872 1.069.872s1.155-.698 1.216-3.002c.005-.552-.465-4.333-3.125-4.634 0 0-1.082-1.482-4.276.753-.306.237-.121 1.23.061 1.44z" fill="#280D02"/><path d="M42.737 6.633c.082-.235.151-.041.4-.263.249-.22.386-.676.84-.84.454-.164.523.014.827-.358.303-.373.648-.414.963-.233.317.178.813.054 1.089-.028s.096.151.29.25c.194.095.607-.042.826.027.22.068.25.317.566.44.318.126.717-.082.939.304.221.386.027.662.235.924.208.263.621.373.495.923-.123.55-.11.591-.054.895.054.303.054.799-.304 1.42-.358.62-.317.703-.249.993.069.29-.068.358-.235.55-.164.194-2.632-2.342-2.605-2.605.027-.262-.235-.772-.662-.772-.427 0-.372-.235-.51-.44-.136-.208-.55-.112-.73.014-.178.123-.317-.083-.607-.263-.29-.178-.482.249-.55.345-.069.096-1.046-1.048-.964-1.283z" fill="#280D02"/><path d="M36.807 63.655c-.867 1.308-2.51 1.493-3.02 2-.495.496-.443 1.466.023 1.653 1.774.507 4.262-1.089 4.262-1.089s.875.08 2.048-.728c.585-1.119-.452-2.343-.452-2.343s-2.459.507-2.86.507z" fill="#fff"/><path d="M35.07 54.196c.092.932.612 1.295.913 2.046.03 1.742 1.425 5.164.822 7.413 1.204.73 2.617-.128 2.861-.507-.422-2.913.032-5.103-.032-8.557-.208-.034-4.525-.915-4.564-.395z" fill="#DE8767"/><path d="M38.305 55.356s.038 1.02.687 1.74c.792 2.038 1.235 7.467 1.427 8.168.123.455 1.013.386 1.013.386s.982-.064 1.09-.952c-.644-2.434.78-5.418-.802-8.666-.288-.491-.192-1.409-.192-1.409l-3.223.733zM32.013 32.144s.16 4.981.116 5.102c-.434.322-.56 5.183-1.214 6.797-.274.678-1.096 1.383-1.236 2.059-.16 1.477.729 2.537.729 2.537s1.5-.197 1.721-1.27c.15-.715 2.365-10.123 2.365-10.123l-1.221-4.808-1.26-.294z" fill="#E89A82"/><path d="M40.372 42.362s.813.722 1.57 2.44c.822 1.88 1.482 9.386 1.482 9.386s-1.123.998-3.052 1.352c-3.49.637-7.49-2.527-7.49-2.527s-2.261-9.676-.43-11.566c.619-.728 7.92.915 7.92.915z" fill="#FFBC00"/><path d="M40.23 40.971l.141 1.39s-.324.967-2.74 1.27c-3.009.38-5.18-2.187-5.18-2.187l.09-1.877 7.689 1.404zM32.012 30.709v1.434c.107.338.975.422 1.26.294.283-.125.41-1.308.41-1.308l-1.67-.42z" fill="#F90"/><path d="M31.883 30.004c0 1.077.872 1.947 1.945 1.947a1.946 1.946 0 1 0 0-3.893 1.945 1.945 0 0 0-1.945 1.946z" fill="#FFBC00"/><path d="M38.497 27.844c-.137.496.105.898.105.898l.107 1.324-1.226 1.37-1.562.518-1.511-.466-.256-.95.14-1.15 1.785-1.288 1.879-.76c.002-.002.58.144.539.504z" fill="#DE8767"/><path d="M39.382 26.255s1.409 1.79 1.313 4.454c-.57.863-1.36.21-1.58-.005.552-2.614-.025-4.077-.025-4.077l.292-.372z" fill="#302625"/><path d="M39.571 26.364c0 .342-.265.72-.468.72-.205 0-.294-.412-.294-.412l.395-.719s.367.176.367.411z" fill="#FF85A1"/><path d="M39.238 29.595l2.393 2.6s-.448 7.922-1.402 8.776c-.502.45-1.171 1.037-3.039 1.055-1.87.023-4.141-1.6-4.648-2.457-.51-.856-.484-6.17-.244-7.627.36-2.178 2.42-2.726 2.42-2.726s-.272 2.292.582 2.463c.854.171 3.938-2.084 3.938-2.084z" fill="#FFBC00"/><path d="M34.769 29.165c-.301 1.33.267 2.366.267 2.366s-1.242.644-1.603-.064c-.427-.838.126-2.313.126-2.313s1.354-.119 1.21.011z" fill="#fff"/><path d="M38.601 28.741s.918.475.918 1.023c-.125 1.443-2.682 2.87-3.11 2.902-.639.05-1.328-.607-1.374-1.135 3.034-.678 3.566-2.79 3.566-2.79z" fill="#fff"/><path d="M32.443 25.418c-.03.26.168.838.168.838s-.077.465-.04 1.084c.038.619.506 2.454 1.433 2.671 1.678.388 3.534-1.299 3.676-2.03 0 0 1.187.238 1.431-1.12.053-.295-.434-2.096-.434-2.096l-3.945-2.123-2.09 1.915c0 .002-.174.6-.2.86z" fill="#E89A82"/><path d="M33.872 24.834c.096 2.082 3.675 2.468 3.79 2.22.059-.096.328-.615.75-.701.423-.083.697.509.697.509s1.794-4.624-2.112-4.836c-3.19-2.027-5.28 2.735-4.52 3.431.128.103.71.233 1.395-.623z" fill="#302625"/><path d="M36.593 22.173C35.37 22.09 34 24.465 34 24.465s1.708-2.004 2.593-2.292z" fill="#000"/><path d="M15.616 13.128c-.027.258.171.838.171.838s-.075.465-.039 1.084c.04.619.507 2.452 1.434 2.671 1.676.386 3.532-1.301 3.676-2.027 0 0 1.187.235 1.429-1.119.055-.297-.432-2.098-.432-2.098l-3.945-2.125-2.09 1.917s-.177.598-.204.859z" fill="#E89A82"/><path d="M18.952 13.871c.28.845 1.886.89 1.886.89.057-.095.326-.613.75-.695.423-.085.695.506.695.506s1.427-2.725-.623-4.063c-2.834-3.473-6.619.885-6.018 2.445.128.41 1.69 1.614 3.31.917z" fill="#78431C"/><path d="M21.411 10.664c-1.226-.084-2.265 2.293-2.265 2.293s1.38-2.005 2.265-2.293z" fill="#613617"/><path d="M40.336 37.101c.511 1.904 1.075 3.534 1.308 4.08-.324 1.294.199 5.968 0 7.096-.42.632-1.06 1.072-1.29 1.248-.228.178-.835 1.5-.655 1.67.178.17 1.082-.679 1.267-.592.308.381-.655 2.833-.655 2.833s1.881-.422 2.514-2.365c.189-.527.21-2.132.21-2.132s1.406-4.97 1.141-8.683c-.37-.977-1.142-4.077-1.142-4.077s-2.687.506-2.698.922z" fill="#E89A82"/><path d="M42.99 34.528s.14 1.541.142 1.67c.035 1.202-2.78 1.22-2.897.796l-.532-1.959 3.288-.507z" fill="#F90"/><path d="M48.245 28.059c-2.174.011-4.596 1.59-7.153 1.8-1.146.145-3.523.697-3.829.914-.31.215-1.141.74-1.397 1.29-.254.548.018 1.35.233 1.65.422.587 1.881.99 2.176.777.296-.21-.108-.907-.108-.907s2.555-1.015 3.427-1.899c.945-.169 7.344.676 8.465-.409.496-.479 1.014-2.783 1.014-2.783s-2.47-.363-2.828-.433z" fill="#B2663B"/><path d="M53.086 17.516c1.92.379 1.317 2.627 1.317 2.627s-2.945 8.53-3.23 8.74c-1.126.998-3.557-.537-3.482-.89.126-.599 1.877-7.567 1.877-7.567s.794-3.451 3.518-2.91z" fill="#BABABA"/><path d="M39.238 34.089a1.946 1.946 0 1 0 3.893 0c0-1.076-.87-1.945-1.948-1.945-1.075 0-1.945.87-1.945 1.945z" fill="#FFBC00"/><path d="M25.952 5.275c.107.25.148.336.148.336s-.114.194-.168.438c-.053.24.42 3.21.548 3.473.127.258.828.589 1.184.589.352 0 2.277-.813 2.792-1.44.587-.715.777-3.25.777-3.25l-2.557-3.335-3.041 1.14s.207 1.798.317 2.05z" fill="#E89A82"/><path d="M27.178 3.778c2.299.612.004 2.56 3.737 4.484.973.662-.564 3.032-.294 3.92.315-.76 2.07-1.134 2.956-1.139 0 0 1.119-1.162.952-3.169-.169-2.004.548-6.821-3.358-7.182 0 0-.756-1.31-2.895-.324-1.943.895-3.085 2.71-3.085 3.45 0 .739.614 1.31.76 1.458-.317-2.05.402-1.966.402-1.966s.382-.063.825.468z" fill="#915422"/><path d="M30.808.945c-.19-.126-3.146 2.114-3.146 2.114s3.336-1.987 3.146-2.114z" fill="#78431C"/><path d="M23.646 26.988l.446 1.071s-.023.623.061 1.698c.082 1.076.952 5.238.952 5.238s-1.1.822-1.255 1.436c-.16.61.045 1.34.157 1.31.272-.018.254-.748.557-.666.3.084.331 1.26.331 1.26s-.637 1.15-.253 1.35c.221.116 1.12-.761 1.12-.761s.61-.614.802-1.539c.192-.931 0-2.662 0-2.662s.548-4.838.087-6.253c-.3-.874-.783-2.3-.783-2.3l-2.221.818z" fill="#E89A82"/><path d="M23.755 18.896c1.872 0 2.505 4.265 2.505 4.265s.314 3.01.39 3.356c.114.88-3.306 1.153-3.431.484-.071-.365-.763-4.219-.763-4.219s-1.087-3.81 1.299-3.886zM23.248 30.053s-.507.982-2.836 1.206c-2.33.221-4.799-1.948-4.799-1.948v.96s2.233 2.05 4.88 1.87c2.116-.145 3.157-1.311 3.157-1.311l-.402-.776z" fill="#A62626"/><path d="M42.809 12.384c.397.379 1.066.507 1.808.568 0 0-.34.74-1.153.555-.507-.116-.655-1.123-.655-1.123z" fill="#fff"/><path d="M45.633 10.722l-.886-.288a.2.2 0 0 1 .123-.38l.886.288a.2.2 0 0 1-.123.38zM43.439 10.011l-.907-.271a.193.193 0 0 1-.13-.24c.03-.1.14-.16.24-.13l.906.272c.103.03.16.139.13.24-.03.1-.139.16-.24.13z" fill="#280D02"/><path d="M45 11.099c0 .232-.091.376-.203.322-.112-.055-.203-.288-.203-.521 0-.233.091-.377.203-.322.112.055.203.288.203.52zM43.219 10.665c0 .233-.092.376-.204.322-.111-.055-.2-.286-.2-.519 0-.233.09-.376.203-.322.111.055.2.288.2.519z" fill="#302625"/><path d="M43.904 10.389c-.048.032-.665.915-.984 1.379-.176.253.02.605.328.575a.641.641 0 0 0 .332-.146l.324-1.808z" fill="#994E28"/><path d="M26.293 7.722c.363.344.97.46 1.646.516 0 0-.31.673-1.05.506-.461-.102-.596-1.022-.596-1.022z" fill="#fff"/><path d="M28.924 5.909l-1.053-.34a.113.113 0 0 1 .069-.215l1.052.34c.06.018.091.082.073.141-.02.06-.084.094-.141.074zM26.668 5.279l-.877-.26a.112.112 0 0 1-.075-.14.112.112 0 0 1 .14-.075l.876.26c.06.018.093.08.075.14a.11.11 0 0 1-.14.075z" fill="#915422"/><path d="M28.332 6.505c0 .233-.091.377-.203.322-.112-.055-.203-.288-.203-.52 0-.234.091-.377.203-.323.112.055.203.288.203.52zM26.407 6.405c.107-.014.168-.22.136-.458-.032-.239-.145-.42-.253-.406-.107.015-.168.22-.136.459.032.238.145.42.253.405z" fill="#302625"/><path d="M27.243 5.852c-.053.036-.964 1.353-.964 1.353.32.466.694.126.694.126l.27-1.48z" fill="#E58567"/><path d="M33.045 28.303c.306.29.82.39 1.39.436 0 0-.262.568-.886.427-.39-.087-.504-.863-.504-.863z" fill="#fff"/><path d="M35.232 26.888l-.931-.284a.093.093 0 0 1-.064-.118c.016-.048.073-.076.125-.06l.932.284c.053.015.08.068.064.118-.016.048-.073.076-.126.06zM33.478 26.42l-.872-.247a.092.092 0 0 1-.067-.116.101.101 0 0 1 .124-.064l.872.246a.092.092 0 0 1 .066.117.097.097 0 0 1-.123.064zM34.823 27.42c0 .194-.08.312-.178.267-.098-.046-.178-.24-.178-.432 0-.191.08-.313.178-.267.098.044.178.238.178.432zM33.247 27.058c0 .195-.08.313-.178.268-.099-.046-.178-.24-.178-.432 0-.194.08-.313.178-.267.098.046.178.24.178.431z" fill="#302625"/><path d="M33.86 26.876c-.049.03-.85 1.125-.85 1.125.28.389.614.103.614.103l.235-1.228z" fill="#DE8767"/><path d="M16.303 16.148c.306.29.82.39 1.39.436 0 0-.262.568-.886.426-.39-.089-.504-.863-.504-.863z" fill="#fff"/><path d="M18.49 14.732l-.931-.283a.093.093 0 0 1-.064-.118c.016-.048.073-.076.125-.06l.932.283c.052.016.08.069.064.119-.016.048-.073.075-.126.06zM16.736 14.264l-.873-.246a.092.092 0 0 1-.066-.117.101.101 0 0 1 .124-.063l.872.246a.092.092 0 0 1 .066.117.1.1 0 0 1-.123.063z" fill="#78431C"/><path d="M18.08 15.264c0 .195-.08.313-.177.268-.098-.046-.178-.24-.178-.432 0-.194.08-.313.178-.267.098.043.178.237.178.431zM16.506 14.903c0 .194-.08.313-.178.267-.098-.045-.178-.24-.178-.431 0-.194.08-.313.178-.267.096.045.178.237.178.431z" fill="#302625"/><path d="M17.119 14.72c-.048.03-.85 1.126-.85 1.126.281.388.615.103.615.103l.235-1.228z" fill="#DE8767"/></g><defs><clipPath id="clip0"><path fill="#fff" transform="translate(7.2)" d="M0 0h57.934v72H0z"/></clipPath></defs></svg>