<svg width="72" height="72" fill="none" xmlns="http://www.w3.org/2000/svg" viewBox="0 0 72 72"><g clip-path="url(#clip0)"><path d="M49.816 66.474L2.013 39.454c-2.684-1.548-2.684-5.415 0-6.963l15.344-8.32 53.799 33.155a1 1 0 0 1-.057 1.735l-13.983 7.411a7.312 7.312 0 0 1-7.3.002z" fill="#DFE7FB"/><path d="M65.04 40.136s-.323-.223-.409-.26c-.102-.044-.168-.159-.168-.33v-2.458c0-.31.218-.687.487-.842l.76-.44c.235-.135.445-.138.59-.032.123.09.384.245.384.245l-1.645 4.117z" fill="#262729"/><path d="M66.111 39.652l-.755.435c-.271.156-.49.03-.49-.284v-2.459c0-.309.217-.686.486-.841l.761-.44c.436-.25.787-.047.787.454v1.771c-.002.504-.353 1.113-.789 1.364z" fill="#36373B"/><path d="M18.978 33.266l-6.435 3.707v4.124l6.435-3.92v-3.911zM51.925 51.384l-6.435 3.709v4.122l6.435-3.917v-3.914z" fill="#808285"/><path d="M51.506 55.249c-.96-.554-1.831-.606-2.459-.24l-1.967 1.14c.628-.364 5.517 8.05 4.897 8.41l1.967-1.14c.62-.36 1.004-1.125 1.008-2.212.003-2.192-1.537-4.858-3.446-5.958z" fill="url(#paint0_linear)"/><path d="M49.188 54.935z" fill="#231F20"/><path d="M55.019 60.728a6.197 6.197 0 0 0-.254-1.328 7.546 7.546 0 0 0-.544-1.323 8.263 8.263 0 0 0-.364-.631c-.156-.244-.207-.311-.42-.595-.001-.002-.202-.267-.468-.547a7.606 7.606 0 0 0-.243-.245c-.079-.075-.188-.172-.269-.245a3.855 3.855 0 0 0-.302-.242 9.438 9.438 0 0 0-.51-.339 3.274 3.274 0 0 0-.348-.18c-.11-.046-.252-.11-.366-.147a4.233 4.233 0 0 0-.423-.112 3.663 3.663 0 0 0-.346-.042 2.197 2.197 0 0 0-.52.033c-.202.046-.202.046-.334.095-.038.015-.08.033-.124.055.614-.282 1.427-.201 2.32.313 1.908 1.1 3.45 3.766 3.445 5.956-.003 1.087-.388 1.853-1.008 2.212a1.95 1.95 0 0 0 .63-.595c.082-.126.151-.24.24-.464.078-.19.125-.395.145-.5.072-.335.094-.746.063-1.129z" fill="#303030"/><path d="M49.54 56.388c-.96-.555-1.832-.606-2.46-.24-.164.099-.665.403-.93 1.228-.163.509-.16.997-.16 1.156 0 .137.01.36.048.639.047.357.126.657.126.66a7.108 7.108 0 0 0 .476 1.328c.047.098.108.231.16.326.054.096.122.226.177.32.054.096.131.218.188.312.088.142.318.472.419.594.07.086.16.205.234.288.14.155.33.358.478.505.077.077.186.174.269.245.075.064.177.144.254.207.002.002.262.205.558.373.103.059.242.13.346.18.07.032.166.07.238.1.002.002.249.1.549.157.18.035.357.05.525.044a2.05 2.05 0 0 0 .673-.13c.08-.033.187-.086.266-.126.62-.36 1.004-1.125 1.008-2.212.009-2.189-1.534-4.855-3.442-5.954z" fill="#262729"/><path d="M49.342 56.73c-1.799-1.037-3.262-.204-3.27 1.86-.005 2.064 1.45 4.578 3.248 5.615 1.799 1.038 3.263.203 3.268-1.859.007-2.066-1.447-4.58-3.246-5.615z" fill="#1F2023"/><path d="M51.8 62.34c0 .053-.002.113-.005.177-.03.507-.203 1.34-1.01 1.34-.311 0-.681-.117-1.067-.34-1.552-.895-2.856-3.151-2.853-4.93.002-.456.103-1.519 1.016-1.519.073 0 .148.006.227.02.258.04.543.15.84.32 1.551.9 2.856 3.155 2.852 4.932z" fill="#8C8F98"/><path d="M50.124 61.067c0 .016 0 .036-.002.056-.01.163-.064.43-.324.43a.714.714 0 0 1-.342-.11c-.498-.287-.917-1.01-.915-1.58 0-.147.033-.487.326-.487.024 0 .047.002.073.006a.797.797 0 0 1 .269.102c.498.289.915 1.014.915 1.583z" fill="#1F2023"/><path d="M18.903 36.402c-.96-.554-1.832-.605-2.46-.24l-1.966 1.14c.627-.364 5.516 8.05 4.896 8.41l1.967-1.14c.62-.36 1.005-1.125 1.008-2.212.006-2.192-1.537-4.858-3.445-5.958z" fill="url(#paint1_linear)"/><path d="M16.584 36.089z" fill="#231F20"/><path d="M22.417 41.882a6.173 6.173 0 0 0-.254-1.328 7.532 7.532 0 0 0-.543-1.323 8.296 8.296 0 0 0-.365-.632c-.155-.243-.206-.311-.419-.595-.002-.002-.203-.267-.468-.547a7.813 7.813 0 0 0-.243-.245c-.08-.075-.189-.172-.27-.245a3.898 3.898 0 0 0-.301-.242 9.456 9.456 0 0 0-.51-.338 3.248 3.248 0 0 0-.349-.181c-.11-.046-.252-.11-.366-.147a4.24 4.24 0 0 0-.422-.111 3.667 3.667 0 0 0-.346-.042 2.197 2.197 0 0 0-.52.032c-.203.046-.203.046-.335.096-.038.014-.08.033-.124.055.615-.282 1.427-.202 2.32.312 1.909 1.1 3.451 3.766 3.444 5.956-.004 1.087-.388 1.854-1.008 2.212a1.945 1.945 0 0 0 .63-.595c.081-.125.15-.239.24-.464.077-.19.125-.395.145-.5.071-.334.093-.746.064-1.128z" fill="#303030"/><path d="M16.936 37.541c-.96-.554-1.831-.606-2.459-.24-.164.1-.666.403-.931 1.228-.163.509-.16.997-.16 1.156 0 .138.01.361.048.64.048.356.127.656.127.66a7.131 7.131 0 0 0 .476 1.328c.047.097.107.23.16.326.053.095.121.225.176.32.055.095.132.218.188.311.086.143.319.472.42.595.069.086.159.205.234.287.139.155.329.359.477.505.077.077.187.174.27.245.074.064.177.145.253.207.002.002.262.205.559.373.102.059.241.13.345.18.07.032.167.07.238.1.002.002.25.1.55.157.18.035.356.05.524.044a2.045 2.045 0 0 0 .674-.13 3.46 3.46 0 0 0 .263-.126c.62-.36 1.005-1.125 1.008-2.212.011-2.188-1.531-4.854-3.44-5.954z" fill="#262729"/><path d="M16.738 37.882c-1.798-1.038-3.262-.205-3.27 1.859-.005 2.064 1.45 4.578 3.249 5.615 1.798 1.038 3.262.204 3.268-1.858.007-2.064-1.448-4.579-3.247-5.616z" fill="#1F2023"/><path d="M19.197 43.493c0 .053-.002.114-.006.178-.03.507-.203 1.34-1.01 1.34-.311 0-.68-.118-1.067-.341-1.551-.895-2.856-3.151-2.852-4.93.002-.455.102-1.518 1.015-1.518.073 0 .149.005.227.02.258.04.544.15.84.32 1.552.898 2.856 3.155 2.853 4.931z" fill="#8C8F98"/><path d="M17.512 42.214c0 .017 0 .037-.002.057-.01.161-.064.426-.32.426a.697.697 0 0 1-.339-.108c-.492-.283-.907-1-.906-1.566 0-.144.033-.481.322-.481.024 0 .048.002.072.005a.789.789 0 0 1 .267.103c.492.284.906 1 .906 1.564z" fill="#1F2023"/><path d="M36.675 53.933l-.929.536-.29-19.364 1.487.783-.267 18.045zM71.706 51.996c-.218 1.14-.593 2.42-1.564 3.5-.174.194-12.44 7.305-13.601 7.892l-2.781-6.497-16.803-21.664 15.765-9.49 7.197 4.148c.201.117.417.271.615.42.393.294.86.848 1.45 1.72.154.224.313.47.485.737 1.153 1.81 2.708 4.635 5.001 8.744.674.906 1.314 1.766 1.885 2.562 1.178 1.643 2.058 3.012 2.316 3.94.127.45.401 2.078.035 3.988z" fill="#EBEEF4"/><path d="M55.963 57.072c-1.603-1.21-2.98-3.61-4.541-6.28-4.09-6.99-5.755-10.318-6.937-11.202a6.308 6.308 0 0 0-.615-.419l-7.196-4.148v18.91s4.393 2.508 8.814 5.079c0 0-.152-5.107 2.624-3.728l2.457 1.402c2.942 1.843 2.763 6.862 2.763 6.862 1.13.547 3.26-.13 3.725-.352 3.956-1.884 11.736-6.314 13.085-7.697 1.557-1.598 1.963-4.286 1.83-5.58 0 0-1.376 1.973-6.483 4.831-5.96 3.334-7.99 3.478-9.526 2.322z" fill="#C9D0D8"/><path d="M50.025 51.657L42 47.03c-1.618-.931-2.93-3.198-2.93-5.063V39.12c0-.455.32-.64.716-.411l3.89 2.241c.653.377 1.279 1.045 1.733 1.85l4.966 8.113c.298.527.078.992-.35.745z" fill="#EBEEF4"/><path d="M49.136 50.238L42 46.127c-1.618-.931-2.93-3.199-2.93-5.063v-2.85c0-.455.32-.64.716-.41l3.89 2.24c.653.378 1.453 1.064 2.249 2.515 1.604 2.92 3.56 6.936 3.56 6.936.297.524.079.99-.35.743z" fill="#36373B"/><path d="M49.58 50l-7.136-4.111c-1.617-.931-2.93-3.199-2.93-5.063v-2.849c0-.1.017-.188.047-.262-.286-.055-.49.136-.49.5v2.849c0 1.864 1.311 4.132 2.929 5.063l7.136 4.111c.269.156.455.03.483-.218-.013-.005-.026-.012-.039-.02z" fill="#BEBCC2"/><path d="M44.347 56.284c-.013-.714.09-1.438.371-2.121.147-.338.346-.668.644-.928.297-.26.705-.408 1.102-.406.399.002.772.12 1.112.273.084.036.172.082.253.124l.232.134.463.267 1.855 1.067c.308.186.619.34.92.565.297.216.58.445.84.7a7.551 7.551 0 0 1 1.314 1.73c.35.633.62 1.306.791 2.004.17.695.28 1.409.262 2.12a9.328 9.328 0 0 0-1.287-3.99 7.42 7.42 0 0 0-1.325-1.607 7.227 7.227 0 0 0-.81-.648c-.273-.197-.604-.356-.908-.534l-1.853-1.05-.463-.264-.233-.131c-.076-.04-.146-.08-.224-.114-.304-.143-.626-.243-.943-.249a1.306 1.306 0 0 0-.873.282c-.256.192-.457.47-.616.772-.322.61-.505 1.303-.624 2.004z" fill="#EBEEF4"/><path d="M65.554 44.45c-1.001.722-3.464 2.17-5.063 3.103l-.23.133c-1.58.91-2.405 1.362-3.48 1.887-.043.022-.087.042-.13.062-2.389 1.1-4.872.348-6.149-1.976l14.816-8.594c.113.243.225.484.333.724.814 1.81 1.55 3.473-.097 4.66z" fill="#fff"/><path d="M65.317 43.995c-1 .723-3.464 2.17-5.063 3.104l-.23.133c-1.58.908-2.405 1.362-3.479 1.885l-.13.062c-2.39 1.1-4.904.366-6.18-1.958-1.712-3.11-4.145-6.439-4.145-6.439l9.617-5.352 5.078-2.825.816-.454s3.046 5.526 3.478 6.458c.114.243.225.484.333.724.816 1.812 1.554 3.475-.095 4.662z" fill="#36373B"/><path d="M64.733 41.432l-7.136-4.111c-.72-.415-1.381-1.098-1.892-1.888l5.078-2.826c.243.317.492.694.739 1.144 1.605 2.92 3.56 6.937 3.56 6.937.299.525.08.991-.349.744z" fill="#4F4E52"/><path d="M46.088 40.782s.432.646.99 1.387c.293-.135 3.906-2.005 8.309-4.464 3.787-2.115 6.448-3.996 6.889-4.32-.425-.749-.677-1.234-.677-1.234l-15.511 8.631zM65.226 44.061c-1.014.706-3.37 2.104-4.972 3.037l-.23.134c-1.58.907-2.404 1.361-3.479 1.885l-.13.062c-2.073.944-4.338.6-5.772-1.323l8.294-4.732.293-.834c.128-.368.384-.675.722-.871l2.38-1.372c.328-.189.71-.258 1.084-.196l.873.146 1.127-.666c.813 1.813 1.609 3.477-.19 4.73z" fill="#262729"/><path d="M62.47 32.762l-15.495 8.905a2.052 2.052 0 0 1-2.062-.01l-8.448-4.983.294-.84 9.471 5.246 15.758-9.057c.15.224.311.471.481.739z" fill="#E1E2E3"/><path d="M57.593 21.489l-11.906-6.862c-.525-.302-1.024-.336-1.38-.097l-1.505 1.018L22.73 3.982c-.847-.489-1.607-.493-2.119-.105-.424.322-16.067 9.248-16.067 9.248L19.93 26.684l26.76 14.343s15.815-8.964 16.067-9.184c.19-.162.302-.444.302-.821v-.08c.002-3.48-2.446-7.713-5.466-9.453z" fill="#EBEEF4"/><path d="M42.8 15.547L26.57 24.889l-.401-.223 16.234-9.34.398.223z" fill="#F0F1F2"/><path d="M46.86 40.276v.08c0 .877-.623 1.235-1.384.798l-7.725-4.452a1.335 1.335 0 0 0-2.004 1.157V54.47l-15.359-8.85c0-.057 0-.11.002-.138.002-.816-.112-5.063-2.765-6.724l-2.457-1.402c-2.487-1.235-2.626 2.734-2.626 3.574v.168L3.77 36.042a.62.62 0 0 1-.311-.538v-2.299l.269-.155V14.93c0-.353.05-.665.143-.93.07-.204.166-.381.281-.528.498-.627 1.378-.73 2.377-.155L26.6 24.885l1.506-1.017c.355-.24.854-.205 1.38.097l11.906 6.862c3.008 1.73 5.467 5.983 5.467 9.449z" fill="#C9D0D8"/><path d="M35.25 45.949L3.73 27.785V23.69l31.52 18.165v4.093zM45.665 37.36v.69L3.87 13.998c.07-.203.167-.38.282-.527l41.512 23.89z" fill="#8B5E3C"/><path d="M7.764 12.862c7.533 4.342 10.864 6.254 18.395 10.597.494.285 1.065-.043.569-.328-7.533-4.342-10.863-6.254-18.395-10.596-.494-.286-1.063.042-.569.327z" fill="#F1F2F2"/><path d="M8.334 12.745c7.533 4.342 10.863 6.254 18.394 10.596a.5.5 0 0 1 .148.12c.08-.085.06-.211-.148-.328-7.533-4.342-10.863-6.255-18.394-10.597-.427-.245-.906-.036-.718.209.114-.124.429-.168.718 0z" fill="#C9D0D8"/><path d="M10.03 11.565c7.533 4.342 10.863 6.254 18.394 10.596.495.285 1.065-.042.57-.328-7.532-4.342-10.862-6.256-18.393-10.596-.496-.285-1.065.042-.571.328z" fill="#F1F2F2"/><path d="M10.601 11.445c7.533 4.342 10.864 6.254 18.395 10.596a.5.5 0 0 1 .148.121c.079-.086.059-.212-.148-.33-7.533-4.341-10.863-6.255-18.395-10.595-.426-.246-.905-.037-.717.208.112-.122.426-.166.717 0z" fill="#C9D0D8"/><path d="M12.296 10.268c7.533 4.342 10.863 6.254 18.394 10.596.494.285 1.065-.042.57-.328-7.534-4.342-10.864-6.254-18.395-10.596-.494-.285-1.063.042-.57.328z" fill="#F1F2F2"/><path d="M12.867 10.148C20.4 14.49 23.73 16.403 31.262 20.744a.5.5 0 0 1 .148.121c.078-.086.058-.212-.148-.33-7.534-4.341-10.864-6.253-18.395-10.595-.427-.245-.906-.037-.717.208.111-.122.426-.166.717 0z" fill="#C9D0D8"/><path d="M14.562 8.97c7.533 4.342 10.864 6.254 18.395 10.596.494.285 1.065-.042.569-.328-7.533-4.342-10.863-6.254-18.395-10.596-.495-.287-1.065.042-.569.328z" fill="#F1F2F2"/><path d="M15.13 8.85c7.534 4.343 10.864 6.255 18.395 10.597.07.04.117.08.148.12.08-.086.059-.212-.148-.329-7.533-4.342-10.863-6.254-18.395-10.596-.426-.245-.905-.037-.717.208.112-.124.427-.166.717 0z" fill="#C9D0D8"/><path d="M16.828 7.671c7.533 4.342 10.863 6.254 18.394 10.596.495.286 1.065-.042.57-.327-7.534-4.342-10.864-6.255-18.395-10.597-.496-.285-1.065.043-.57.328z" fill="#F1F2F2"/><path d="M17.396 7.554c7.533 4.342 10.863 6.254 18.395 10.596a.5.5 0 0 1 .148.12c.079-.085.059-.212-.148-.329-7.533-4.342-10.863-6.254-18.395-10.596-.426-.245-.906-.037-.717.209.112-.125.426-.169.717 0z" fill="#C9D0D8"/><path d="M19.093 6.373c7.534 4.342 10.864 6.254 18.395 10.596.494.286 1.065-.042.57-.327-7.534-4.342-10.864-6.254-18.395-10.596-.496-.286-1.065.042-.57.327z" fill="#F1F2F2"/><path d="M19.662 6.254c7.533 4.342 10.863 6.254 18.394 10.596a.5.5 0 0 1 .149.12c.078-.085.058-.211-.149-.329-7.533-4.342-10.863-6.254-18.394-10.596-.427-.245-.906-.036-.717.209.111-.123.428-.167.717 0z" fill="#C9D0D8"/><path d="M21.357 5.076c7.533 4.342 10.864 6.254 18.395 10.596.494.286 1.065-.042.569-.327-7.531-4.342-10.862-6.256-18.395-10.596-.496-.286-1.065.042-.569.327z" fill="#F1F2F2"/><path d="M21.925 4.957C29.46 9.299 32.79 11.21 40.32 15.553c.07.04.117.08.148.12.079-.085.059-.211-.148-.329C32.79 11.003 29.46 9.09 21.925 4.748c-.426-.245-.905-.036-.717.209.114-.123.428-.167.718 0z" fill="#C9D0D8"/><path d="M25.544 11.15l-3.011-1.748c-.332-.192-.871-.192-1.206 0l-5.654 3.259c-.333.192-.335.505-.004.697l3.012 1.747c.331.192.87.192 1.206 0l5.654-3.258c.334-.194.334-.505.003-.698z" fill="#F1F2F2"/><path d="M26.088 11.277c0 .127-5.907 3.354-5.907 3.354-.333.192-.874.192-1.205 0 0 0-3.26-1.7-3.26-1.826v.207c0 .126.083.25.25.346l3.011 1.747c.332.192.871.192 1.206 0l5.654-3.259c.169-.097.253-.225.253-.35l-.002-.219z" fill="#C9D0D8"/><path d="M25.841 10.944L22.83 9.197c-.33-.192-.87-.192-1.205 0l-5.654 3.259c-.333.192-.335.505-.004.697l3.012 1.747c.331.192.87.192 1.206 0l5.654-3.259c.333-.192.334-.505.003-.697zM51.185 22.457l-3.012-1.748c-.331-.192-.87-.192-1.206 0l-5.654 3.26c-.333.191-.334.504-.003.697l3.011 1.747c.332.192.872.192 1.206 0l5.654-3.259c.333-.192.335-.505.004-.697z" fill="#F1F2F2"/><path d="M51.728 22.585c0 .126-5.906 3.354-5.906 3.354-.333.192-.875.192-1.206 0 0 0-3.259-1.7-3.259-1.826v.207c0 .126.083.25.25.345l3.011 1.748c.331.192.871.192 1.206 0l5.654-3.259c.168-.097.252-.225.252-.351l-.002-.218z" fill="#C9D0D8"/><path d="M51.48 22.254l-3.01-1.748c-.331-.192-.87-.192-1.206 0l-5.654 3.26c-.333.191-.335.504-.003.696l3.011 1.748c.332.192.871.192 1.206 0l5.654-3.259c.333-.194.335-.505.002-.697z" fill="#F1F2F2"/><path d="M45.217 26.054a.932.932 0 0 1-.452-.104l-3.012-1.747c-.075-.044-.075-.134.002-.18l5.654-3.258a.945.945 0 0 1 .454-.105c.174 0 .338.039.452.105l3.012 1.747c.075.044.075.133-.004.18l-5.654 3.258a.932.932 0 0 1-.452.104z" fill="#36373B"/><path d="M41.753 24.203l.143.082 5.513-3.178a.945.945 0 0 1 .454-.105c.174 0 .338.039.452.105l2.867 1.663.141-.08c.079-.047.079-.136.004-.18l-3.012-1.748a.932.932 0 0 0-.452-.104.945.945 0 0 0-.454.104l-5.654 3.26c-.077.047-.077.137-.002.18z" fill="#BEBCC2"/><path d="M44.485 51.885c-2.421-1.343-5.56-3.716-5.56-3.716l9.287 5.295c.002-.002-1.345-.26-3.727-1.579zM45.49 59.215s-5.907-3.54-7.938-4.379c-1.15-.476-1.804-.366-1.804-.366l.928-2.744s-.094 1.302.675 1.842c3.595 2.527 8.139 4.575 8.139 4.575v1.072zM11.564 37.803a6.376 6.376 0 0 1 .342-2.258c.135-.364.32-.722.6-1.024.278-.3.686-.52 1.115-.55.428-.027.834.092 1.194.257.189.084.348.183.513.276l.492.284 1.967 1.134c.163.097.328.189.49.29.161.113.326.223.474.347.306.242.588.51.84.803.51.584.91 1.252 1.224 1.949.31.7.538 1.433.677 2.181.14.747.222 1.504.2 2.26-.101-1.504-.47-2.988-1.115-4.328-.657-1.334-1.663-2.484-2.991-3.161l-1.967-1.115-.492-.278c-.165-.093-.33-.19-.485-.263-.32-.152-.665-.251-.994-.235a1.33 1.33 0 0 0-.887.398c-.251.237-.443.55-.595.881-.306.668-.483 1.406-.602 2.152zM23.276 34.974L16.7 31.176c-.381-.22-.69-.754-.69-1.193v-4.006c0-.439.309-.616.69-.396l6.576 3.798c.38.22.69.754.69 1.193v4.005c0 .44-.31.617-.69.398z" fill="#EBEEF4"/><path d="M23.452 34.67l-6.577-3.8c-.272-.157-.514-.572-.514-.887v-4.005c0-.08.084-.135.161-.093l6.577 3.798c.272.158.514.573.514.888v4.005a.106.106 0 0 1-.161.093z" fill="#36373B"/><path d="M17.229 30.714c-.273-.157-.514-.572-.514-.887v-3.832l-.193-.111a.106.106 0 0 0-.16.093v4.005c0 .315.239.73.514.888l6.576 3.798a.106.106 0 0 0 .16-.093v-.174l-6.383-3.687z" fill="#BEBCC2"/><path d="M39.9 36.888l-4.554-2.595c-.38-.22-.69-.754-.69-1.193v-4.005c0-.44.31-.617.69-.397l4.554 2.594c.381.22.69.754.69 1.193v4.006c0 .439-.309.616-.69.397z" fill="#EBEEF4"/><path d="M40.076 36.583l-4.554-2.595c-.273-.157-.514-.573-.514-.888v-4.005c0-.08.084-.135.16-.093l4.555 2.594c.273.158.514.573.514.888v4.005a.106.106 0 0 1-.16.094z" fill="#36373B"/><path d="M35.875 33.831c-.273-.157-.514-.572-.514-.887v-3.832l-.192-.111a.106.106 0 0 0-.161.093V33.1c0 .314.24.73.514.887l4.554 2.595a.106.106 0 0 0 .161-.094v-.173l-4.362-2.483z" fill="#BEBCC2"/><path d="M28.283 37.82l-1.285-.731c-.38-.22-.69-.754-.69-1.193v-3.31c0-.44.31-.617.69-.397l1.285.732c.38.22.69.754.69 1.193v3.31c0 .439-.308.617-.69.397z" fill="#EBEEF4"/><path d="M28.46 37.518l-1.284-.732c-.272-.158-.514-.573-.514-.888v-3.31c0-.08.084-.135.161-.093l1.285.732c.272.157.514.573.514.887v3.31a.107.107 0 0 1-.161.094z" fill="#36373B"/><path d="M27.53 36.63c-.273-.158-.515-.573-.515-.888v-3.136l-.192-.112a.106.106 0 0 0-.16.093v3.31c0 .315.239.73.513.888l1.285.732a.106.106 0 0 0 .16-.094v-.173l-1.092-.62z" fill="#BEBCC2"/><path d="M3.459 33.203l8.104 4.691v-.316l-7.835-4.53-.269.154zM21.691 43.75l4.14 2.384v-.316l-4.14-2.37v.302zM25.92 46.167l5.312 3.058v-.317l-5.312-3.057v.316zM31.318 49.29l4.525 2.617v-.317l-4.525-2.616v.316z" fill="#EBEEF4"/><path d="M25.92 40.572l5.312 3.06V39.54l-5.312-3.062v4.094z" fill="#8B5E3C"/><path d="M60.437 57.252l8.704-5.012s.913.298.11 1.663c-.803 1.366-7.517 4.749-7.517 4.749l-1.482.159v-.924l.185-.635z" fill="#36373B"/><path d="M69.184 52.215l-8.748 5.037-.14.476.365-.172 8.722-5.028-.199-.313z" fill="#36373B"/><path d="M56.02 58.837s4.545-1.225 4.784-.957c.364.404 1.675.245 1.993.066.683-.383 5.453-3.09 5.645-3.225 1.694-1.18.686-2.506.686-2.506l.49-.25s2.218.014 2.2.092c-.125.57-1.795 2.266-2.933 2.954-.473.285-6.64 3.827-6.64 3.827s-1.541.859-3.327.727c-1.674-.126-2.898-.728-2.898-.728z" fill="#EBEEF4"/><path d="M12.37 27.955l-8.64-4.979V21.71l6.813 3.925 1.828 2.32zM9.932 24.537L3.73 20.964v-4.597l6.202 8.17z" fill="#8B5E3C"/><path d="M67.857 57.487l-4.062 2.343v-1.39l4.062-2.34v1.387z" fill="#EBEEF4"/><path d="M53.318 54.69c-.139-.313-.644-1.676-.335-1.396.891.803 2.756 1.846 4.223 2.426 1.715.679 3.524 1.275 3.552 1.352.047.132.084 1.116-.033 1.407-.212.527-4.084 1-4.895.225-.287-.274-1.546-1.828-2.512-4.014z" fill="#fff"/><path d="M60.758 57.072c-.009-.028-.241-.12-.613-.257.019.354.01.871-.071 1.069-.194.481-3.42.915-4.61.403.167.208.295.35.365.417.81.774 4.682.303 4.895-.225.119-.29.082-1.276.034-1.407z" fill="#F5F6F7"/><path d="M71.817 52.057c-.358.395-1.158.845-1.583 1.07a.26.26 0 0 1-.367-.152l-.34-.962s.327-1.888.301-3.392c-.02-1.177-.578-4.7-.578-4.7 1.178 1.644 2.28 3.082 2.536 4.01.124.448.397 2.216.031 4.126z" fill="#fff"/><path d="M71.786 47.93c-.258-.927-1.358-2.365-2.536-4.008l.01.058c.947 1.466 1.67 3.023 1.891 3.823.106.384.322 1.734.152 3.314-.06.569-.373 1.08-.855 1.39-.21.136-.426.262-.612.364l.03.105a.257.257 0 0 0 .368.151c.425-.223 1.225-.675 1.583-1.07.366-1.91.094-3.678-.031-4.126z" fill="#F5F6F7"/><path d="M39.826 48.062a.39.39 0 0 1-.192-.055l-.377-.218a.717.717 0 0 1-.335-.58v-1.238c0-.198.12-.335.295-.335a.39.39 0 0 1 .192.055l.377.217c.192.11.334.36.334.58v1.24c0 .197-.12.334-.294.334z" fill="#F9FAFA"/><path d="M39.97 46.488v.899c0 .166-.116.232-.26.15l-.376-.218a.574.574 0 0 1-.262-.45v-.898c0-.16.108-.227.244-.16l.018.01.377.217c.143.083.26.284.26.45z" fill="#EBEEF4"/><path d="M39.97 46.489v.885l-.019-.009-.377-.218a.572.572 0 0 1-.26-.45v-.886c.006.002.011.006.019.01l.377.217c.142.083.26.284.26.45z" fill="#C9D0D8"/><path d="M27.212 40.819a.39.39 0 0 1-.192-.055l-.377-.218a.717.717 0 0 1-.334-.58v-1.239c0-.197.12-.334.294-.334a.39.39 0 0 1 .192.054l.377.218c.192.11.335.36.335.58v1.239c0 .198-.12.335-.295.335z" fill="#F9FAFA"/><path d="M27.357 39.245v.899c0 .166-.117.232-.26.15l-.376-.218a.574.574 0 0 1-.262-.45v-.899c0-.159.108-.227.243-.159.006.002.011.006.019.01l.377.217a.57.57 0 0 1 .26.45z" fill="#EBEEF4"/><path d="M27.358 39.245v.886l-.018-.01-.377-.217a.572.572 0 0 1-.26-.45v-.886c.006.002.011.006.018.01l.377.217a.57.57 0 0 1 .26.45z" fill="#C9D0D8"/><path d="M47.18 44.914c.876 1.641 2.305 4.58 2.305 4.58.297.527.079.992-.35.746l-1.955-1.127v-4.199z" fill="#1F2023"/><path d="M45.724 51.137l1.642-4.123s-.295-.19-.372-.214c-.119-.034-.23-.093-.39 0l-.76.44c-.436.25-.787.86-.787 1.36v1.772c0 .247.086.42.223.505l.444.26z" fill="#262729"/><path d="M46.275 51.08l.756-.435c.27-.156.49-.536.49-.849v-2.46c0-.308-.218-.435-.487-.28l-.76.44c-.436.25-.788.86-.788 1.361v1.772c.002.497.354.7.789.452z" fill="#36373B"/><path d="M46.977 47.914a.238.238 0 0 1-.031-.474l.865-.117a.238.238 0 1 1 .062.47l-.865.118c-.01.003-.02.003-.031.003zM47.137 49.753a.238.238 0 0 1-.051-.47l.81-.181a.238.238 0 0 1 .103.465l-.811.18c-.017.006-.035.006-.051.006z" fill="#36373B"/></g><defs><linearGradient id="paint0_linear" x1="48.908" y1="62.787" x2="52.822" y2="56.009" gradientUnits="userSpaceOnUse"><stop stop-color="#262729"/><stop offset="1" stop-color="#3D3E42"/></linearGradient><linearGradient id="paint1_linear" x1="16.305" y1="43.94" x2="20.218" y2="37.162" gradientUnits="userSpaceOnUse"><stop stop-color="#262729"/><stop offset="1" stop-color="#3D3E42"/></linearGradient><clipPath id="clip0"><path fill="#fff" transform="translate(0 3.6)" d="M0 0h72v64.286H0z"/></clipPath></defs></svg>