<svg width="72" height="72" fill="none" xmlns="http://www.w3.org/2000/svg" viewBox="0 0 72 72"><g clip-path="url(#clip0)"><path d="M31.006 23.46l9.737 1.84s3.707.406 3 4.822c-.494 3.1-1.788 13.419-1.788 13.419s-2.98 1.205-4.103-.446c-1.124-1.651.321-12.186.321-12.186l-10.788-4.16c.002.002.076-3.156 3.621-3.289z" fill="#132D3D"/><path d="M61.483 70.77c1.4-2.667-9.05-10.91-23.34-18.409-14.29-7.499-27.01-11.416-28.41-8.748-1.399 2.667 9.05 10.909 23.34 18.408 14.291 7.5 27.01 11.416 28.41 8.749z" fill="#DFE7FB"/><path d="M14.714 38.511l.021-.345.038-.333.05-.317.063-.304.077-.29.09-.276.102-.26.116-.248.127-.231.138-.217.149-.201.16-.184.17-.168.18-.153.19-.136.198-.118 2.056-1.218-.199.118-.19.135-.18.154-.17.168-.16.184-.148.2-.138.217-.127.232-.114.247-.103.26-.09.276-.076.29-.063.305-.05.317-.038.332-.021.346-.007.359.007.367.021.37.038.374.05.376.063.378.077.378.09.379.102.378.114.379.127.376.138.374.148.372.16.367.17.365.18.359.19.354.2.348.207.341.216.335.226.325.166.226s.932 1.194 1.487 1.668v-.002l.12.11.278.238.282.225.287.21.29.195.296.18.295.161.291.14.287.12.282.1.277.082.272.061.266.041.26.025.254.004.247-.013.241-.03.232-.051.225-.068.217-.085.203-.099-1.852 1.098-.2.118-.207.103-.217.085-.225.068-.232.05-.24.031-.247.013-.254-.004-.26-.024-.267-.042-.271-.06-.278-.082-.282-.1-.287-.12-.29-.14-.296-.162-.295-.18-.291-.194-.287-.21-.282-.226-.277-.238-.099-.09-.002-.002-.02-.017-.153-.143-.267-.264-.26-.276-.253-.286-.248-.298-.24-.308-.232-.317-.225-.326-.217-.335-.207-.34-.2-.349-.19-.354-.18-.358-.17-.366-.16-.367-.148-.372-.138-.374-.127-.376-.116-.378-.102-.379-.09-.378-.077-.379-.063-.378-.05-.376-.037-.374-.022-.372-.007-.367.007-.359zM26.35 48.384l-.004.004.203-.122-.199.118z" fill="#192D4B"/><path fill-rule="evenodd" clip-rule="evenodd" d="M19.431 40.348l2.056-1.218-.092.072-.083.087-.07.103-.061.118-.048.134-.035.148-.022.162-.007.175.007.182.022.188.035.188.048.188.061.188.07.186.083.182.092.177.1.173.112.163.116.156.125.144.131.136.138.12.142.11.144.091.147.077.142.055.136.034.13.016.125-.002.119-.02.109-.037.1-.055-2.055 1.218-.1.055-.11.04-.118.019-.125.002-.131-.017-.136-.035-.142-.055-.146-.074-.145-.094-.142-.108-.138-.122-.13-.133-.123-.147-.119-.155-.111-.164-.1-.17-.092-.178-.081-.184-.073-.186-.06-.188-.047-.188-.037-.188-.02-.186-.008-.184.008-.175.02-.161.037-.149.046-.133.061-.118.073-.103.08-.088.092-.072z" fill="#CACACA"/><path fill-rule="evenodd" clip-rule="evenodd" d="M21.662 44.374l2.056-1.218.111-.088.1-.107.086-.125.074-.144.057-.162.044-.18.026-.194.009-.212-.009-.223-.026-.225-.044-.23-.057-.227-.074-.228-.085-.225-.1-.221-.112-.214-.123-.208-.133-.2-.142-.19-.151-.174-.16-.164-.164-.147-.173-.131-.177-.114-.177-.09-.17-.067-.167-.042-.157-.02-.153.003-.142.024-.134.046-.122.065-2.056 1.22.122-.067.134-.046.144-.024.15-.002.158.02.167.043.17.066.177.092.177.111.173.131.164.149.16.162.15.177.143.188.133.2.123.207.111.214.101.221.085.225.075.228.056.23.044.227.026.227.01.221-.01.212-.026.197-.044.18-.056.161-.075.142-.085.127-.1.105-.112.088z" fill="#14AFEB"/><path fill-rule="evenodd" clip-rule="evenodd" d="M24.744 49.934l2.055-1.22.201-.143.19-.161.182-.18.17-.194.158-.213.147-.23.133-.244.123-.26.11-.278.095-.293.081-.309.068-.321.055-.337.04-.352.02-.367.01-.38-.01-.39-.02-.394-.04-.396-.055-.398-.068-.402-.08-.403-.097-.402-.11-.402-.122-.4-.133-.4-.147-.399-.157-.394-.17-.391-.182-.387-.19-.38-.202-.377-.212-.37-.22-.36-.23-.354-.239-.348-.247-.335-.254-.328-.262-.315-.271-.306-.276-.293-.282-.28-.289-.267-.295-.254-.3-.238-.303-.223-.311-.206-.313-.19-.312-.17-.309-.15-.306-.126-.3-.107-.293-.085-.288-.066-.285-.046-.275-.024-.27-.006-.262.015-.255.033-.248.052-.238.07-.23.09-.22.11-2.056 1.217.22-.107.23-.09.239-.072.247-.052.256-.033.262-.015.269.006.278.024.282.046.289.066.293.085.301.107.304.127.309.151.313.168.312.19.31.208.305.224.3.238.295.251.288.267.282.282.276.293.271.304.263.318.253.325.248.337.238.346.23.354.22.363.213.367.2.377.191.382.181.385.171.392.158.393.146.398.136.4.12.403.11.402.096.403.08.402.068.4.055.398.04.398.021.394.009.39-.009.378-.022.367-.04.352-.054.337-.067.324-.081.306-.097.293-.109.278-.12.26-.136.245-.146.23-.158.212-.17.197-.182.177-.19.161-.201.145z" fill="#CACACA"/><path fill-rule="evenodd" clip-rule="evenodd" d="M19.017 32.58l2.056-1.218-.326-.006-2.056 1.218.326.006zM18.692 32.573l2.056-1.218-.352-.177-2.056 1.22.352.175zM18.34 32.398l2.055-1.22-.306.041-2.056 1.218.306-.039z" fill="#192D4B"/><path fill-rule="evenodd" clip-rule="evenodd" d="M18.035 32.437l2.056-1.218-.346-.131-2.056 1.218.346.131zM17.689 32.306l2.055-1.218-.284.085-2.056 1.218.285-.085z" fill="#192D4B"/><path fill-rule="evenodd" clip-rule="evenodd" d="M17.405 32.392l2.056-1.219-.337-.087-2.056 1.218.337.088zM17.067 32.304l2.056-1.218-.263.129-2.055 1.218.262-.129zM15.715 32.77l2.056-1.22-.297.041-2.056 1.22.297-.04z" fill="#192D4B"/><path fill-rule="evenodd" clip-rule="evenodd" d="M15.927 32.558l2.056-1.218-.212.21-2.056 1.22.212-.212z" fill="#192D4B"/><path fill-rule="evenodd" clip-rule="evenodd" d="M16.238 32.56l2.056-1.218-.312-.002-2.056 1.218.312.002z" fill="#192D4B"/><path fill-rule="evenodd" clip-rule="evenodd" d="M16.479 32.39l2.055-1.221-.238.173-2.056 1.218.239-.17z" fill="#192D4B"/><path fill-rule="evenodd" clip-rule="evenodd" d="M16.804 32.433l2.056-1.218-.326-.046-2.055 1.22.325.044zM20.439 33.227l2.055-1.218-.358-.108-2.056 1.219.359.107zM20.08 33.12l2.056-1.219-.363-.264-2.056 1.218.363.265z" fill="#192D4B"/><path fill-rule="evenodd" clip-rule="evenodd" d="M19.718 32.856l2.056-1.218-.341-.055-2.056 1.218.341.055zM19.376 32.8l2.056-1.218-.359-.22-2.055 1.218.358.22zM24.951 51.777l2.056-1.218.214-.21-2.055 1.218-.215.21z" fill="#192D4B"/><path fill-rule="evenodd" clip-rule="evenodd" d="M25.166 51.567l2.056-1.218.297-.041-2.056 1.218-.297.041z" fill="#192D4B"/><path fill-rule="evenodd" clip-rule="evenodd" d="M25.463 51.526l2.056-1.218.186-.25-2.056 1.22-.186.248z" fill="#192D4B"/><path fill-rule="evenodd" clip-rule="evenodd" d="M25.648 51.278l2.056-1.22.282-.085-2.055 1.22-.283.085z" fill="#192D4B"/><path fill-rule="evenodd" clip-rule="evenodd" d="M25.93 51.193l2.055-1.22.16-.283-2.056 1.219-.16.284z" fill="#192D4B"/><path fill-rule="evenodd" clip-rule="evenodd" d="M26.092 50.91l2.056-1.219.26-.127-2.056 1.219-.26.127z" fill="#192D4B"/><path fill-rule="evenodd" clip-rule="evenodd" d="M26.352 50.782l2.055-1.219.132-.319-2.056 1.22-.131.318z" fill="#192D4B"/><path fill-rule="evenodd" clip-rule="evenodd" d="M26.482 50.465l2.056-1.22.239-.169-2.056 1.218-.239.17z" fill="#192D4B"/><path fill-rule="evenodd" clip-rule="evenodd" d="M26.72 50.295l2.056-1.218.103-.35-2.056 1.218-.102.35zM26.822 49.944l2.056-1.218.214-.212-2.055 1.22-.215.21z" fill="#192D4B"/><path fill-rule="evenodd" clip-rule="evenodd" d="M27.037 49.734l2.056-1.22.07-.378-2.054 1.218-.072.38z" fill="#192D4B"/><path fill-rule="evenodd" clip-rule="evenodd" d="M27.11 49.354l2.053-1.218.19-.254-2.056 1.22-.188.252z" fill="#192D4B"/><path fill-rule="evenodd" clip-rule="evenodd" d="M27.299 49.103l2.056-1.22.039-.407-2.056 1.218-.04.409zM27.338 48.694l2.056-1.218.162-.295-2.056 1.218-.162.295zM27.5 48.398l2.056-1.219.004-.435-2.056 1.22-.004.434zM27.502 47.965l2.056-1.22.13-.335-2.055 1.22-.131.335z" fill="#192D4B"/><path fill-rule="evenodd" clip-rule="evenodd" d="M27.634 47.63l2.056-1.22-.029-.459-2.056 1.22.029.46z" fill="#192D4B"/><path fill-rule="evenodd" clip-rule="evenodd" d="M27.605 47.172l2.056-1.22.099-.375-2.056 1.218-.099.377z" fill="#192D4B"/><path fill-rule="evenodd" clip-rule="evenodd" d="M27.704 46.795l2.056-1.218-.064-.483-2.055 1.218.063.483zM27.64 46.312l2.056-1.218.064-.41-2.056 1.219-.063.409zM27.704 45.902l2.056-1.218-.099-.49-2.056 1.22.099.488z" fill="#192D4B"/><path fill-rule="evenodd" clip-rule="evenodd" d="M27.605 45.415l2.056-1.22.029-.426-2.056 1.22-.029.426z" fill="#192D4B"/><path fill-rule="evenodd" clip-rule="evenodd" d="M27.633 44.99l2.056-1.221-.131-.486-2.056 1.218.131.488z" fill="#192D4B"/><path fill-rule="evenodd" clip-rule="evenodd" d="M27.504 44.5l2.056-1.217-.004-.442-2.056 1.22.004.44z" fill="#192D4B"/><path fill-rule="evenodd" clip-rule="evenodd" d="M27.5 44.062l2.055-1.22-.161-.48-2.056 1.218.162.482z" fill="#192D4B"/><path fill-rule="evenodd" clip-rule="evenodd" d="M27.338 43.58l2.056-1.218-.04-.453-2.055 1.218.04.453zM27.297 43.127l2.056-1.218-.19-.472-2.054 1.22.188.47z" fill="#192D4B"/><path fill-rule="evenodd" clip-rule="evenodd" d="M27.11 42.657l2.053-1.22-.07-.46-2.056 1.219.072.461z" fill="#192D4B"/><path fill-rule="evenodd" clip-rule="evenodd" d="M27.037 42.196l2.055-1.218-.214-.46-2.056 1.219.215.459z" fill="#192D4B"/><path fill-rule="evenodd" clip-rule="evenodd" d="M26.823 41.737l2.056-1.218-.103-.468-2.055 1.22.102.466zM26.72 41.27l2.057-1.22-.239-.444-2.056 1.219.239.446z" fill="#192D4B"/><path fill-rule="evenodd" clip-rule="evenodd" d="M26.483 40.825l2.056-1.218-.132-.468-2.055 1.218.13.468z" fill="#192D4B"/><path fill-rule="evenodd" clip-rule="evenodd" d="M26.352 40.357l2.056-1.218-.26-.429-2.056 1.22.26.427zM26.09 39.93l2.055-1.22-.16-.466-2.055 1.218.16.468z" fill="#192D4B"/><path fill-rule="evenodd" clip-rule="evenodd" d="M25.93 39.462l2.056-1.218-.282-.409-2.056 1.22.283.407z" fill="#192D4B"/><path fill-rule="evenodd" clip-rule="evenodd" d="M25.649 39.055l2.056-1.22-.186-.462-2.056 1.218.186.464z" fill="#192D4B"/><path fill-rule="evenodd" clip-rule="evenodd" d="M25.463 38.591l2.056-1.218-.297-.385-2.056 1.218.297.385z" fill="#192D4B"/><path fill-rule="evenodd" clip-rule="evenodd" d="M25.166 38.206l2.055-1.218-.214-.457-2.056 1.22.215.456z" fill="#192D4B"/><path fill-rule="evenodd" clip-rule="evenodd" d="M24.951 37.752l2.056-1.22-.313-.36-2.055 1.221.312.359z" fill="#192D4B"/><path fill-rule="evenodd" clip-rule="evenodd" d="M24.639 37.393l2.056-1.22-.239-.445-2.056 1.219.239.446z" fill="#192D4B"/><path fill-rule="evenodd" clip-rule="evenodd" d="M24.4 36.947l2.056-1.218-.326-.33-2.056 1.218.326.33zM24.073 36.617l2.055-1.218-.26-.431-2.055 1.218.26.43z" fill="#192D4B"/><path fill-rule="evenodd" clip-rule="evenodd" d="M23.815 36.186l2.056-1.218-.339-.3-2.053 1.218.336.3zM23.476 35.886l2.053-1.218-.282-.413-2.056 1.218.285.413z" fill="#192D4B"/><path fill-rule="evenodd" clip-rule="evenodd" d="M23.194 35.473l2.055-1.218-.348-.267-2.055 1.22.348.265z" fill="#192D4B"/><path fill-rule="evenodd" clip-rule="evenodd" d="M22.845 35.209l2.056-1.22-.304-.392-2.056 1.218.304.394z" fill="#192D4B"/><path fill-rule="evenodd" clip-rule="evenodd" d="M22.542 34.815l2.056-1.218-.355-.23-2.055 1.218.354.23z" fill="#192D4B"/><path fill-rule="evenodd" clip-rule="evenodd" d="M22.187 34.586l2.056-1.219-.324-.367-2.056 1.218.324.368zM21.863 34.218L23.918 33l-.358-.192-2.056 1.218.359.192zM21.503 34.025l2.056-1.218-.343-.34-2.056 1.219.343.339z" fill="#192D4B"/><path fill-rule="evenodd" clip-rule="evenodd" d="M21.16 33.687l2.055-1.218-.36-.154-2.056 1.22.36.152z" fill="#192D4B"/><path fill-rule="evenodd" clip-rule="evenodd" d="M20.8 33.535l2.056-1.22-.36-.306-2.056 1.218.36.308z" fill="#192D4B"/><path fill-rule="evenodd" clip-rule="evenodd" d="M20.439 33.227l.359.306.36.151.344.34.358.192.326.367.355.23.304.391.345.267.284.414.337.3.263.43.326.33.238.444.313.359.212.455.297.385.188.463.28.407.16.468.26.426.132.469.238.446.1.465.217.46.07.461.19.473.04.452.161.481.007.442.131.486-.028.426.098.488-.063.409.063.483-.098.374.028.46-.131.334-.007.435-.161.293-.04.41-.19.253-.07.38-.216.213-.101.35-.238.168-.132.317-.26.127-.16.284-.28.085-.188.248-.297.041-.212.21-.313-.002-.238.17-.326-.043-.263.129-.337-.088-.284.086-.345-.132-.304.042-.355-.177-.326-.007-.358-.22-.343-.055-.361-.265-.359-.107-.359-.306-.363-.151-.343-.34-.359-.192-.323-.367-.355-.232-.304-.391-.345-.267-.284-.413-.337-.3-.263-.43-.326-.331-.238-.444-.313-.359-.212-.455-.297-.385-.188-.463-.28-.407-.16-.468-.26-.429-.131-.468-.239-.446-.1-.466-.217-.459-.07-.461-.19-.473-.04-.452-.161-.482-.007-.441-.131-.486.028-.426-.098-.488.063-.409-.063-.483.098-.374-.028-.46.131-.334.007-.435.161-.296.04-.406.19-.254.07-.38.217-.213.1-.35.239-.17.13-.317.261-.127.16-.285.28-.085.188-.247.297-.041.212-.21.313.002.238-.17.326.043.263-.13.337.088.284-.085.345.131.306-.041.353.177.325.006.36.221.343.055.36.265.359.113zm-5.734 5.64c0 3.893 2.567 8.526 5.734 10.347 3.167 1.822 5.734.145 5.734-3.746 0-3.89-2.567-8.525-5.734-10.347-3.167-1.822-5.734-.144-5.734 3.747z" fill="#192D4B"/><path fill-rule="evenodd" clip-rule="evenodd" d="M20.44 34.688c3.361 1.933 6.086 6.85 6.086 10.981s-2.725 5.911-6.086 3.976c-3.362-1.933-6.087-6.85-6.087-10.981.003-4.129 2.728-5.91 6.087-3.976zm-5.734 4.18c0 3.892 2.567 8.524 5.734 10.346 3.167 1.822 5.734.144 5.734-3.746s-2.567-8.525-5.734-10.347c-3.167-1.822-5.734-.144-5.734 3.746z" fill="#14AFEB"/><path fill-rule="evenodd" clip-rule="evenodd" d="M20.439 40.044c.956.549 1.73 1.946 1.73 3.119 0 1.174-.774 1.68-1.73 1.13-.956-.549-1.73-1.946-1.73-3.12.002-1.173.776-1.68 1.73-1.129zM53.147 48.398l-1.716.044-4.812-8.965 1.717-.043 4.811 8.964z" fill="#0082C8"/><path fill-rule="evenodd" clip-rule="evenodd" d="M48.336 39.434l.558-.319 4.811 8.967-.558.317-4.811-8.965z" fill="#14AFEB"/><path d="M58.471 65.668l-.006.004.205-.122-.199.118zM46.834 55.795l.022-.345.038-.333.05-.317.063-.304.077-.29.09-.276.102-.26.116-.248.127-.231.138-.217.149-.201.16-.184.17-.168.18-.153.19-.136.198-.118 2.056-1.218-.199.118-.19.136-.18.153-.17.168-.16.184-.148.199-.138.216-.127.232-.114.245-.103.26-.09.276-.076.29-.063.305-.05.317-.038.332-.022.346-.006.358.006.368.022.37.037.373.05.377.064.378.077.378.09.379.102.378.114.378.127.377.137.373.15.372.159.368.17.365.18.359.19.354.2.348.207.34.216.335.226.326.166.226s.91 1.176 1.487 1.668v-.002l.12.11.278.238.282.225.287.21.29.195.296.179.295.16.29.14.287.12.282.1.278.081.271.062.267.041.26.024.254.005.247-.013.24-.031.233-.05.225-.068.216-.085.202-.099-1.85 1.096-.2.118-.207.103-.217.085-.225.068-.232.05-.24.03-.248.014-.253-.005-.26-.024-.267-.041-.272-.061-.277-.081-.282-.101-.287-.12-.29-.14-.296-.162-.295-.18-.291-.194-.287-.21-.161-.129-.053.01-1.043-.38.035-.614-.136-.145-.253-.286-.248-.297-.24-.309-.232-.317-.225-.326-.217-.334-.208-.342-.199-.347-.19-.355-.18-.358-.17-.365-.16-.368-.148-.372-.138-.374-.127-.376-.116-.378-.102-.379-.09-.378-.077-.378-.063-.379-.05-.376-.038-.374-.021-.37-.007-.367.005-.35z" fill="#192D4B"/><path fill-rule="evenodd" clip-rule="evenodd" d="M53.783 61.658l2.056-1.218.111-.088.1-.107.086-.124.075-.145.056-.162.044-.179.026-.195.01-.212-.01-.223-.026-.225-.044-.23-.056-.227-.075-.228-.085-.225-.1-.22-.112-.215-.123-.208-.133-.199-.142-.19-.151-.175-.16-.164-.166-.147-.17-.13-.178-.115-.177-.09-.17-.067-.167-.042-.157-.02-.153.003-.142.024-.134.046-.122.066-2.056 1.218.122-.066.134-.046.144-.024.151-.002.157.02.167.043.17.066.177.092.178.111.172.132.164.148.16.162.15.177.143.188.133.2.123.207.111.214.101.221.085.225.075.228.057.23.043.227.027.225.008.223-.008.212-.027.197-.043.18-.057.162-.075.142-.085.127-.1.105-.112.087z" fill="#14AFEB"/><path fill-rule="evenodd" clip-rule="evenodd" d="M56.863 67.218l2.055-1.22.202-.142.192-.162.18-.18.17-.194.157-.212.147-.23.133-.245.123-.262.11-.276.095-.293.081-.308.068-.322.055-.337.04-.352.021-.367.009-.38-.009-.39-.022-.394-.04-.395-.054-.4-.068-.401-.08-.402-.097-.403-.11-.402-.122-.4-.133-.4-.147-.399-.157-.393-.17-.392-.18-.387-.192-.38-.202-.377-.212-.37-.22-.36-.23-.354-.239-.348-.247-.335-.253-.328-.263-.315-.271-.306-.276-.293-.282-.28-.288-.267-.296-.253-.3-.239-.303-.22-.31-.208-.314-.19-.312-.171-.309-.149-.306-.127-.3-.107-.293-.085-.288-.066-.284-.046-.276-.024-.27-.006-.261.015-.256.033-.248.052-.238.07-.23.09-.22.11-2.056 1.217.22-.107.23-.09.24-.072.246-.052.256-.033.262-.015.27.006.277.024.282.046.289.066.295.085.297.107.306.127.309.149.313.17.312.19.311.209.304.223.3.238.295.252.288.266.283.28.275.295.271.305.263.314.254.329.247.336.238.346.23.354.22.361.213.37.2.376.193.383.18.384.17.392.158.394.146.398.136.4.12.402.11.403.096.402.08.4.068.403.055.398.04.398.021.391.009.39-.009.38-.022.367-.039.352-.055.337-.067.324-.081.306-.097.293-.109.278-.12.26-.136.245-.146.23-.158.212-.17.195-.18.179-.192.162-.201.144z" fill="#CACACA"/><path fill-rule="evenodd" clip-rule="evenodd" d="M51.138 49.864l2.056-1.218-.326-.006-2.056 1.218.326.006zM50.813 49.857l2.056-1.218-.352-.177-2.056 1.22.352.175zM50.46 49.682l2.056-1.22-.306.041-2.056 1.219.306-.04z" fill="#192D4B"/><path fill-rule="evenodd" clip-rule="evenodd" d="M50.156 49.721l2.056-1.218-.346-.13-2.056 1.217.346.131zM49.808 49.59l2.056-1.218-.285.085-2.056 1.218.285-.085z" fill="#192D4B"/><path fill-rule="evenodd" clip-rule="evenodd" d="M49.526 49.676l2.056-1.218-.337-.088-2.055 1.218.336.088zM49.188 49.588l2.056-1.218-.262.13-2.056 1.217.262-.129zM47.837 50.052l2.055-1.218-.297.041-2.056 1.22.297-.043z" fill="#192D4B"/><path fill-rule="evenodd" clip-rule="evenodd" d="M48.048 49.842l2.056-1.218-.212.21-2.056 1.218.212-.21z" fill="#192D4B"/><path fill-rule="evenodd" clip-rule="evenodd" d="M48.362 49.844l2.055-1.22h-.312l-2.056 1.218.313.002z" fill="#192D4B"/><path fill-rule="evenodd" clip-rule="evenodd" d="M48.6 49.673l2.056-1.22-.239.17-2.056 1.221.239-.17z" fill="#192D4B"/><path fill-rule="evenodd" clip-rule="evenodd" d="M48.925 49.717l2.056-1.218-.326-.046-2.055 1.22.325.044zM52.56 50.51l2.056-1.217-.36-.108-2.055 1.219.359.107z" fill="#192D4B"/><path fill-rule="evenodd" clip-rule="evenodd" d="M52.2 50.404l2.057-1.219-.363-.264-2.056 1.218.363.265z" fill="#192D4B"/><path fill-rule="evenodd" clip-rule="evenodd" d="M51.84 50.14l2.055-1.218-.341-.055-2.056 1.218.341.055zM51.497 50.084l2.056-1.218-.359-.22-2.055 1.218.358.22zM57.072 69.06l2.056-1.217.214-.21-2.055 1.218-.215.21z" fill="#192D4B"/><path fill-rule="evenodd" clip-rule="evenodd" d="M57.287 68.85l2.056-1.217.297-.044-2.056 1.22-.297.042z" fill="#192D4B"/><path fill-rule="evenodd" clip-rule="evenodd" d="M57.584 68.81l2.056-1.22.186-.247-2.056 1.218-.186.25z" fill="#192D4B"/><path fill-rule="evenodd" clip-rule="evenodd" d="M57.77 68.56l2.055-1.218.282-.085-2.055 1.22-.282.083z" fill="#192D4B"/><path fill-rule="evenodd" clip-rule="evenodd" d="M58.053 68.477l2.056-1.22.16-.282-2.057 1.218-.16.284z" fill="#192D4B"/><path fill-rule="evenodd" clip-rule="evenodd" d="M58.213 68.193l2.056-1.218.26-.13-2.056 1.221-.26.127z" fill="#192D4B"/><path fill-rule="evenodd" clip-rule="evenodd" d="M58.473 68.066l2.055-1.22.132-.318-2.056 1.22-.131.318z" fill="#192D4B"/><path fill-rule="evenodd" clip-rule="evenodd" d="M58.603 67.75l2.056-1.221.239-.169-2.056 1.219-.239.17z" fill="#192D4B"/><path fill-rule="evenodd" clip-rule="evenodd" d="M58.842 67.579l2.056-1.218.102-.35-2.055 1.218-.103.35zM58.943 67.23L61 66.01l.215-.212-2.056 1.22-.215.21z" fill="#192D4B"/><path fill-rule="evenodd" clip-rule="evenodd" d="M59.158 67.019l2.056-1.22.07-.38-2.054 1.22-.072.38z" fill="#192D4B"/><path fill-rule="evenodd" clip-rule="evenodd" d="M59.23 66.638l2.054-1.218.19-.254-2.055 1.218-.188.254z" fill="#192D4B"/><path fill-rule="evenodd" clip-rule="evenodd" d="M59.42 66.385l2.056-1.218.039-.407-2.056 1.218-.04.407zM59.457 65.978l2.056-1.218.162-.295-2.056 1.218-.162.295z" fill="#192D4B"/><path fill-rule="evenodd" clip-rule="evenodd" d="M59.621 65.682l2.056-1.219.004-.435-2.055 1.22-.005.434z" fill="#192D4B"/><path fill-rule="evenodd" clip-rule="evenodd" d="M59.623 65.25l2.056-1.221.131-.335-2.056 1.22-.131.335z" fill="#192D4B"/><path fill-rule="evenodd" clip-rule="evenodd" d="M59.755 64.915l2.056-1.22-.029-.46-2.055 1.22.028.46z" fill="#192D4B"/><path fill-rule="evenodd" clip-rule="evenodd" d="M59.727 64.456l2.055-1.22.099-.375-2.056 1.218-.098.377z" fill="#192D4B"/><path fill-rule="evenodd" clip-rule="evenodd" d="M59.825 64.08l2.056-1.219-.063-.483-2.056 1.218.063.483z" fill="#192D4B"/><path fill-rule="evenodd" clip-rule="evenodd" d="M59.762 63.596l2.056-1.218.063-.41-2.056 1.219-.063.409zM59.825 63.187l2.056-1.219-.099-.49-2.055 1.22.098.489z" fill="#192D4B"/><path fill-rule="evenodd" clip-rule="evenodd" d="M59.727 62.7l2.055-1.22.029-.427-2.056 1.22-.028.426zM59.754 62.273l2.056-1.22-.131-.486-2.056 1.218.131.488z" fill="#192D4B"/><path fill-rule="evenodd" clip-rule="evenodd" d="M59.626 61.785l2.055-1.218-.004-.442-2.056 1.22.005.44zM59.619 61.346l2.056-1.22-.162-.48-2.056 1.219.162.48z" fill="#192D4B"/><path fill-rule="evenodd" clip-rule="evenodd" d="M59.46 60.864l2.055-1.218-.04-.453-2.055 1.218.04.453zM59.419 60.411l2.055-1.218-.19-.472-2.053 1.22.188.47z" fill="#192D4B"/><path fill-rule="evenodd" clip-rule="evenodd" d="M59.23 59.941l2.054-1.22-.07-.46-2.056 1.219.072.461z" fill="#192D4B"/><path fill-rule="evenodd" clip-rule="evenodd" d="M59.158 59.48l2.056-1.218-.215-.46-2.056 1.219.215.46z" fill="#192D4B"/><path fill-rule="evenodd" clip-rule="evenodd" d="M58.945 59.021L61 57.803l-.102-.468-2.056 1.22.103.466z" fill="#192D4B"/><path fill-rule="evenodd" clip-rule="evenodd" d="M58.842 58.555l2.056-1.22-.239-.444-2.056 1.218.239.446z" fill="#192D4B"/><path fill-rule="evenodd" clip-rule="evenodd" d="M58.604 58.109l2.056-1.218-.132-.468-2.055 1.218.13.468z" fill="#192D4B"/><path fill-rule="evenodd" clip-rule="evenodd" d="M58.473 57.64l2.056-1.217-.26-.429-2.056 1.22.26.427z" fill="#192D4B"/><path fill-rule="evenodd" clip-rule="evenodd" d="M58.212 57.215l2.056-1.22-.16-.467-2.055 1.218.16.468zM58.052 56.746l2.055-1.218-.282-.409-2.056 1.22.283.407z" fill="#192D4B"/><path fill-rule="evenodd" clip-rule="evenodd" d="M57.77 56.339l2.056-1.22-.186-.462-2.056 1.218.186.464z" fill="#192D4B"/><path fill-rule="evenodd" clip-rule="evenodd" d="M57.584 55.876l2.056-1.219-.297-.384-2.056 1.218.297.385z" fill="#192D4B"/><path fill-rule="evenodd" clip-rule="evenodd" d="M57.287 55.49l2.055-1.218-.214-.457-2.056 1.22.215.456z" fill="#192D4B"/><path fill-rule="evenodd" clip-rule="evenodd" d="M57.072 55.036l2.056-1.22-.313-.359-2.055 1.22.313.359zM56.758 54.677l2.056-1.22-.239-.444-2.056 1.218.239.446z" fill="#192D4B"/><path fill-rule="evenodd" clip-rule="evenodd" d="M56.521 54.231l2.056-1.218-.326-.33-2.056 1.218.326.33zM56.194 53.9l2.056-1.217-.26-.431-2.056 1.218.26.43z" fill="#192D4B"/><path fill-rule="evenodd" clip-rule="evenodd" d="M55.935 53.47l2.055-1.218-.339-.3-2.055 1.218.339.3zM55.595 53.17l2.055-1.218-.282-.413-2.056 1.218.283.413z" fill="#192D4B"/><path fill-rule="evenodd" clip-rule="evenodd" d="M55.315 52.756l2.055-1.218-.347-.266-2.056 1.218.348.266z" fill="#192D4B"/><path fill-rule="evenodd" clip-rule="evenodd" d="M54.966 52.49l2.056-1.218-.304-.391-2.056 1.218.304.392z" fill="#192D4B"/><path fill-rule="evenodd" clip-rule="evenodd" d="M54.663 52.1l2.056-1.219-.355-.232-2.055 1.22.354.23z" fill="#192D4B"/><path fill-rule="evenodd" clip-rule="evenodd" d="M54.308 51.87l2.056-1.22-.324-.366-2.056 1.218.324.368z" fill="#192D4B"/><path fill-rule="evenodd" clip-rule="evenodd" d="M53.984 51.502l2.055-1.218-.358-.192-2.056 1.218.359.192zM53.625 51.31l2.055-1.22-.343-.338-2.056 1.218.344.34z" fill="#192D4B"/><path fill-rule="evenodd" clip-rule="evenodd" d="M53.28 50.97l2.056-1.217-.36-.153-2.056 1.22.36.15z" fill="#192D4B"/><path fill-rule="evenodd" clip-rule="evenodd" d="M52.921 50.82l2.056-1.22-.36-.307-2.056 1.218.36.308z" fill="#192D4B"/><path fill-rule="evenodd" clip-rule="evenodd" d="M52.56 50.512l.358.306.361.15.343.34.36.192.323.368.352.23.306.39.346.268.284.413.337.3.262.43.326.33.239.445.312.358.212.455.298.385.188.464.28.407.16.468.26.428.13.468.24.446.1.466.216.46.07.46.19.473.04.453.162.481.006.442.132.485-.029.427.099.488-.064.408.064.484-.099.376.029.46-.132.334-.006.435-.162.293-.04.41-.19.253-.07.38-.216.213-.1.35-.24.168-.13.317-.26.127-.16.284-.28.085-.188.248-.298.041-.212.21-.313-.002-.238.17-.326-.043-.262.129-.337-.088-.284.085-.346-.13-.304.04-.354-.174-.324-.007-.358-.22-.344-.055-.36-.265-.36-.107-.358-.306-.36-.151-.344-.34-.359-.191-.324-.368-.354-.232-.306-.391-.346-.267-.284-.413-.337-.3-.262-.43-.326-.331-.238-.444-.313-.359-.212-.455-.298-.384-.186-.464-.28-.407-.16-.468-.26-.426-.13-.468-.239-.447-.1-.465-.217-.46-.07-.461-.19-.473-.04-.452-.162-.481-.004-.442-.131-.486.028-.426-.098-.488.063-.409-.063-.483.098-.374-.028-.46.131-.334.004-.435.162-.295.04-.41.19-.253.07-.38.216-.213.101-.35.238-.17.132-.317.26-.127.16-.285.28-.085.185-.247.298-.041.212-.21.313.002.238-.17.326.043.262-.13.337.088.284-.085.346.131.306-.041.354.175.326.006.359.221.343.057.363.265.355.107zm-5.735 5.64c0 3.893 2.568 8.525 5.735 10.347 3.166 1.821 5.734.144 5.734-3.747 0-3.89-2.568-8.525-5.734-10.346-3.167-1.822-5.735-.145-5.735 3.746z" fill="#192D4B"/><path fill-rule="evenodd" clip-rule="evenodd" d="M52.559 51.972c3.361 1.934 6.086 6.85 6.086 10.981s-2.725 5.912-6.086 3.976c-3.361-1.933-6.086-6.85-6.086-10.98.002-4.13 2.727-5.91 6.086-3.977zm-5.734 4.18c0 3.892 2.567 8.525 5.734 10.346 3.167 1.822 5.734.145 5.734-3.746 0-3.89-2.567-8.525-5.734-10.347-3.167-1.822-5.734-.144-5.734 3.747z" fill="#14AFEB"/><path fill-rule="evenodd" clip-rule="evenodd" d="M52.56 57.328c.955.55 1.73 1.947 1.73 3.119 0 1.174-.775 1.68-1.73 1.13-.956-.548-1.728-1.946-1.728-3.118 0-1.175.774-1.682 1.728-1.13z" fill="#0082C8"/><path fill-rule="evenodd" clip-rule="evenodd" d="M14.06 24.28l1.675-.924-.798-.46-1.675.926.798.459z" fill="#14AFEB"/><path fill-rule="evenodd" clip-rule="evenodd" d="M14.264 23.795l1.675-.927.08-.03.095-.003.114.028.107.031.127.024.146.015.166.011.18.005.194.002h.208l.217-.002.225-.003.234-.002h.478l.244.007.242.009.239.015.238.022-1.677.927-.236-.022-.239-.015-.243-.011-.242-.004-.241-.003h-.238l-.234.003-.226.004-.216.002h-.208l-.195-.002-.179-.007-.166-.01-.147-.016-.127-.024-.107-.03-.113-.029-.094.002-.081.033z" fill="#14AFEB"/><path fill-rule="evenodd" clip-rule="evenodd" d="M41.357 54.22l1.676-.927.153-.12.111-.16.081-.19.048-.214.027-.23.004-.234-.009-.232-.022-.22-.028-.2-.029-.17-.026-.131-.02-.088-.008-.033L41.64 52l.006.03.02.088.028.133.029.17.028.2.022.218.009.232-.005.234-.026.23-.05.214-.079.193-.111.16-.154.12z" fill="#5AC8F5"/><path fill-rule="evenodd" clip-rule="evenodd" d="M39.615 49.826l1.675-.925 2.18-.061-1.674.927-2.18.06z" fill="#CACACA"/><path fill-rule="evenodd" clip-rule="evenodd" d="M41.795 49.765l1.675-.927.71 2.224-1.674.927-.711-2.224z" fill="#5AC8F5"/><path fill-rule="evenodd" clip-rule="evenodd" d="M34.227 50.787l1.2-.662-2.182-1.074-.81.446.055.048.083.066.105.083.125.092.14.102.15.108.04.028.04.028.039.029.04.028.039.026.039.029.04.028.039.029.078.055.04.028.037.026.04.026.037.027.037.026.037.026.035.024.035.024.033.024.035.024.03.022.033.022.029.022.03.02.026.02.027.017.026.017.024.016.022.015.02.015.02.013.017.011.015.011.013.009.011.009.011.006.007.005.013.006z" fill="#0082C8"/><path fill-rule="evenodd" clip-rule="evenodd" d="M41.128 52.16l-.081-.033-.206-.083-.022-.009-.492.013-.078-.249-.066-.028-.232-.099-.236-.1-.239-.103-.24-.105-.24-.105-.241-.105-.239-.107-.236-.105-.234-.105-.092-.042-1.098.029-1.439-.707-1.2.665.111.05.127.06.142.065.156.072.168.077.18.083.19.087.2.092.21.096.217.099.223.1.23.103.234.105.236.105.239.107.24.105.24.105.241.105.239.103.236.1.232.099.227.096.221.092.214.088.206.083.197.076.186.072.175.066.161.06.15.05.133.043.118.035c.811.219.717-.818.632-1.301zM32.436 49.496l.807-.446-1.608-.79-.133.075.035.029.044.043.05.057c.017.022.037.044.057.068l.061.079.066.085.067.09.018.024.018.024.017.024.018.024.017.024.018.024.017.024.017.024.018.024.017.024.018.024.017.024.018.024.017.022.018.022.017.022.066.085.061.079.057.07.05.059.04.04z" fill="#0082C8"/><path fill-rule="evenodd" clip-rule="evenodd" d="M32.498 32.116l1.675-.925a26.454 26.454 0 0 1-6.34-4.468 7.798 7.798 0 0 1-1.07-1.303c-.393-.615-.612-1.07-1.237-1.49-.584-.374-1.181-.726-1.778-1.08-.83-.486-1.66-.967-2.494-1.444-1.15-.658-3.037-1.727-3.037-1.727l-2.52 1.358s2.762 1.566 4.394 2.51c.883.514 1.771 1.028 2.637 1.57.217.14.4.248.584.43l.088.093c.29.342.503.705.743 1.08l.08.121c.362.536.73.936 1.2 1.382 1.894 1.704 4.813 2.754 7.075 3.893z" fill="#14AFEB"/><path fill-rule="evenodd" clip-rule="evenodd" d="M56.265 54.133l2.454-1.338a17.456 17.456 0 0 0-1.822-2.093c-.988-.94-1.885-1.59-3.118-2.185l-.388-.162-.38-.135c-1.017-.298-1.724-.383-2.767-.162-.337.1-.562.188-.877.341l-2.722 1.498.268-.16.28-.137.294-.114c.721-.216 1.185-.25 1.968-.18 1.047.167 1.732.449 2.661.954 1.085.637 1.973 1.387 2.84 2.294.471.51.894 1.024 1.31 1.58z" fill="#5AC8F5"/><path fill-rule="evenodd" clip-rule="evenodd" d="M37.657 43.458l1.675-.925-.2.12-.193.116-.184.114-.17.112-.156.105-.142.1-.123.094-.104.086-.086.078-.061.073-.04.059-.01.05.015.04.044.04.074.055.103.068.127.079.15.09.171.1.193.107.207.116.224.125.238.129.25.133.255.138.265.14.27.142.274.145.274.142.273.144.271.14.265.136.258.133.25.13.238.122.225.115.21.108.192.098.175.088.153.078.13.066.104.052.077.04.046.024.017.006.484 2.841-1.676.928-.483-2.841-.017-.01-.046-.023-.077-.04-.105-.052-.129-.066-.153-.078-.175-.088-.192-.098-.21-.107-.226-.116-.238-.123-.25-.127-.257-.133-.265-.138-.271-.14-.273-.142-.274-.144-.273-.142-.271-.145-.265-.14-.256-.137-.25-.134-.238-.129-.223-.122-.207-.116-.193-.11-.17-.1-.151-.09-.127-.079-.103-.068-.074-.052-.044-.042-.016-.039.011-.05.04-.061.061-.07.085-.08.105-.087.123-.094.142-.1.155-.105.17-.11.184-.116.193-.115.201-.12z" fill="#14AFEB"/><path fill-rule="evenodd" clip-rule="evenodd" d="M44.621 39.094l1.675-.925-.096-.15-.096-.15-.1-.155-.101-.153-.103-.158-.103-.157-.105-.16-.107-.157-.11-.16-.109-.16-.111-.16-.114-.159-.114-.16-.118-.157-.118-.155-.118-.156-.123-.153-.122-.15-.125-.15-.124-.144-.13-.142-.128-.14-.13-.136-.133-.133-.133-.129-.136-.122-.138-.12-.137-.114-.14-.11-.143-.105-.144-.098-.144-.092-1.675.927.144.092.144.099.142.102.14.11.138.113.138.12.136.125.133.127.133.134.13.135.128.14.13.142.124.147.125.149.122.15.123.151.118.156.118.157.118.158.114.157.114.16.111.16.11.159.109.16.107.16.105.157.103.16.102.155.101.155.098.153.099.151.096.149z" fill="#5AC8F5"/><path fill-rule="evenodd" clip-rule="evenodd" d="M44.168 41.665l1.675-.925.11-.072.1-.09.096-.111.09-.134.083-.16.079-.185.035-.097.028-.102.024-.108.022-.111.016-.116.008-.118.007-.12-.002-.123-.007-.122-.013-.123-.02-.12-.026-.118-.033-.116-.041-.114-.048-.11-.055-.102-1.675.925.054.105.049.107.041.114.033.116.026.118.02.122.013.12.006.123.003.123-.007.12-.009.118-.015.116-.022.111-.024.11-.028.103-.035.096-.08.186-.082.16-.09.133-.096.11-.1.091-.11.07z" fill="#0082C8"/><path fill-rule="evenodd" clip-rule="evenodd" d="M40.767 34.55l1.675-.927-.273-.164-.276-.162-.273-.157-.271-.153-.274-.147-.27-.142-.272-.138-.269-.13-.269-.127-.269-.12-.267-.117-.267-.11-.264-.104-.265-.096-.262-.092-.26-.085-.26-.08-.259-.071-.258-.066-.256-.057-.253-.052-.254-.044-.252-.037-.249-.029-.247-.021-.245-.016-.245-.006-.24.002-.241.01-.238.018-.237.027-.234.035-1.675.925.234-.035.236-.027.239-.017.24-.011h.24l.246.004.245.016.247.021.25.029.25.037.254.044.254.052.256.06.258.063.258.072.26.079.26.085.263.092.265.098.264.103.267.11.267.115.269.12.269.127.269.134.271.135.271.145.274.146.27.151.274.158.276.162.273.166z" fill="#5AC8F5"/><path fill-rule="evenodd" clip-rule="evenodd" d="M40.997 41.43s.18.43-.134.427c-.315-.002-4.97 2.388-4.658 2.747.313.358 6.003 3.23 6.003 3.23l.484 2.84-5.837.15-8.206-4.033s.505-4.046.481-4.238c-.024-.193-2.108-5.466-2.108-5.466l-2.25-4.536c.096-.098.251-.146.454-.15.18-.431.368-.89.536-1.289.812 1.09.956 1.223 6.826 4.073 2.738 2.167 5.754 5.211 8.409 6.245z" fill="#0082C8"/><path d="M29.65 46.74s.06-3.586 2.106-2.587c2.047 1 7.248 3.742 6.408 5.457-.84 1.715-2.237 2.508-5.476.418-3.239-2.093-3.197-2.058-3.038-3.287z" fill="#14AFEB"/><path d="M33.297 49.01c-1.933-1.405-3-3.231-2.384-4.08.287-.396.892-.505 1.651-.37 1.45.746 3.53 1.918 4.733 3.066 1.491 1.31 1.002 1.864.614 2.393-.614.849-2.68.396-4.614-1.008z" fill="#5AC8F5"/><path fill-rule="evenodd" clip-rule="evenodd" d="M52.117 50.261c-4.274-2.46-7.738-.194-7.738 5.057 0 .9.321 3.971 1.087 2.215 1.87-4.29 5.966-5.77 10.804-3.4-1.203-1.63-2.627-2.992-4.154-3.872zM44.725 40.915c.19-.499.213-1.282-.105-1.822-1.014-1.573-2.298-3.593-3.853-4.542-2.93-1.792-5.787-2.854-8.269-2.432.483 1.397.78 2.644.09 3.07 3.324 2.629 7.062 6.559 10.06 6.605 1.054.013 1.673.188 2.077-.88z" fill="#14AFEB"/><path fill-rule="evenodd" clip-rule="evenodd" d="M15.695 21.037c.02.442.075 1.067.228 1.319.247.404 5.992 4.695 6.804 5.452 5.44 5.08.745 2.953 9.863 7.379.69-.426.393-1.67-.09-3.07-2.261-1.142-5.183-2.192-7.08-3.896-.47-.446-.837-.846-1.2-1.382l-.078-.12c-.241-.376-.453-.74-.744-1.08l-.088-.095c-.185-.181-.367-.288-.583-.428-.867-.543-1.755-1.056-2.638-1.57-1.46-.842-2.926-1.68-4.394-2.509z" fill="#0082C8"/><path fill-rule="evenodd" clip-rule="evenodd" d="M34.34 51.578c1.18.547 5.1 2.345 6.29 2.673 1.712.472 1.012-2.246 1.01-2.253-.055-.223-.228-.422-.383-.441-.155-.022-.236.142-.181.365.002.004.468 1.824-.589 1.533-1.176-.326-5.185-2.17-6.274-2.675l.01.007c.209.354.244.654.117.791z" fill="#14AFEB"/><path fill-rule="evenodd" clip-rule="evenodd" d="M49.852 49.602l-.94.027 2.44 7.643.941-.026-2.44-7.644z" fill="#0082C8"/><path fill-rule="evenodd" clip-rule="evenodd" d="M50.246 49.592l-1.726.048-3.077-9.636 1.726-.048 3.077 9.636zM22.372 36.633l.72.732-2.296 5.186-.72-.73 2.296-5.188z" fill="#0082C8"/><path fill-rule="evenodd" clip-rule="evenodd" d="M22.07 36.329l1.323 1.34 1.61-5.073-1.32-1.343-1.613 5.076z" fill="#0082C8"/><path fill-rule="evenodd" clip-rule="evenodd" d="M24.65 33.713c-1.853-1.898-5.59-4.564-7.465-4.7-2.552-.186-2.633 1.881-4.47 2.421-.709.21-1.498-.135-1.498-.135 1.52-.348 2.5-1.853 2.817-3.657.116-.654.142-1.35.078-2.043-.078-.844-.21-2.049.44-1.81.507.188 1.999-.003 3.245.135 1.831 1.437 4.407 3.396 4.93 3.884 1.935 1.809 2.59 2.703 3.038 3.307-.169.398-.357.857-.536 1.288-.31.009-.51.116-.558.35-.028.142.02.363.13.647a9.42 9.42 0 0 1-.152.313z" fill="#0082C8"/><path fill-rule="evenodd" clip-rule="evenodd" d="M14.06 24.28l-.798-.459.282 2.253.604.348a8.019 8.019 0 0 0-.035-.823c-.04-.424-.092-.94-.053-1.318z" fill="#0082C8"/><path fill-rule="evenodd" clip-rule="evenodd" d="M40.326 52.048l-.416-1.3 2.18-.056.416 1.297-2.18.06zM34.622 44.621c-.908-.052-1.85-.435-2.817-1.039C30.66 42 24.4 34.058 24.669 32.752c.36-1.758 9.12 3.57 10.83 4.985 1.692 1.4 1.605 1.117.408 2.753-.747 1.023-1.274 2.292-1.285 4.131z" fill="#14AFEB"/><path d="M24.67 32.752c.36-1.758 9.12 3.57 10.83 4.985 1.692 1.4 1.605 1.117.409 2.753a7.017 7.017 0 0 0-.248.36c-6.703-8.631-11.094-7.595-10.991-8.098z" fill="#5AC8F5"/><path fill-rule="evenodd" clip-rule="evenodd" d="M47.168 39.957l.617-.344 3.077 9.638-.617.342-3.077-9.636z" fill="#14AFEB"/><path fill-rule="evenodd" clip-rule="evenodd" d="M44.238 37.49l1.675-.925 2.533-.07-1.675.925-2.533.07z" fill="#0082C8"/><path fill-rule="evenodd" clip-rule="evenodd" d="M45.063 40.073l-.825-2.583 2.533-.07.824 2.583-2.532.07z" fill="#0082C8"/><path fill-rule="evenodd" clip-rule="evenodd" d="M46.772 37.42l1.675-.925.824 2.583-1.675.925-.824-2.583zM21.929 27.309l.09.085c.312.328.553.713.813 1.087l.092.13c1.515 2.048 4.105 1.121 6.386 2.007l.015-.048c-2.283-1.164-4.886-.761-6.401-2.997l-.092-.14c-.26-.406-.503-.82-.814-1.185l-.09-.096c-.185-.18-.389-.304-.605-.442a86.327 86.327 0 0 0-2.81-1.677c-.412-.239-.556-.582-.414-.928-.441.5-.133 2.253.414 2.5.944.431 1.89.868 2.81 1.337.216.111.42.212.606.367z" fill="#14AFEB"/><path fill-rule="evenodd" clip-rule="evenodd" d="M21.93 26.153l.09.096c.312.365.552.778.813 1.185l.091.14c1.516 2.235 4.119 1.833 6.402 2.996l1.859-1.102c-1.048-.746-2.148-3.884-2.898-5.04-.47-.727-.737-1.272-1.491-1.775a71.986 71.986 0 0 0-2.885-1.734c-.58-.335-1.277-.52-1.938-.332-1.441.409-2.63 1.172-3.639 2.187-.442.444-.367.947.18 1.262.944.544 1.889 1.098 2.81 1.677.216.136.42.26.605.44z" fill="#5AC8F5"/><path d="M34.447 43.445s.59 1.577.468 1.949c-.194.584.208 1.585.313 1.793.234.468.779.702.779.702s.794-.28 1.714-.742c.105-.052.145-.46.145-.46l.402-.123 2.889-2.566s.943-.745.551-1.253c-.639-.831-1.658-1.18-2.742-.533-.576.345-1.216.802-1.337.83-.155.04-.35-.949-.415-.962-1.402-.273-2.767 1.365-2.767 1.365z" fill="#231F20"/><path d="M28.72 25.131s4.661 3.064 6.339 4.208c2.038 1.389 1.662 3.119 1.662 3.119l.96 10.366s-.545-.558-1.949.492c-.81.606-1.028 1.98-1.05 1.929-2.764-6.3-2.729-9.561-2.768-10.941-.027-.937-.74-1.26-.74-1.26s-1.753-.742-4.402-2.222c-4.43-2.476-2.624-7.119-2.624-7.119l4.573 1.428z" fill="#294F6D"/><path d="M30.28 8.764c1.87-1.247 4.052-2.078 4.052-2.078s5.98-.814 5.754 3.703c-.207 4.157-5.65 7.783-6.235 13.364 0 0-2.2 2.557-5.104 3.663-3.274 1.247-4.748.274-5.067-1.17-.32-1.443 1.526-9.425 1.948-11.612.857-4.44 3.198-4.9 4.652-5.87z" fill="#AD501B"/><path d="M27.81 10.739c.897-.234 2.832.367 2.806 2.571-.024 1.864-.857 7.716-.857 7.716s-.04 1.402.313 2.18c1.004 2.231 2.924 6.72 2.924 6.72s-1.833 1.11-3.032 1.71c-.242.122-2.484-4.856-3.555-6.599-.624-1.012-.82-2.707-.82-2.707s-.114-2.933-.114-5.516c-.003-3.348.415-5.575 2.335-6.075z" fill="#CE6428"/><path d="M41.746 43.02c-.304-.51-2.712.897-3.675 2.1-.798.995-1.454 1.778-1.454 1.778s1.695-.667 2.513-.986L41 44.249s.97-.85.746-1.229z" fill="#4C575E"/><path d="M36.773 7.465s2.323-2.194 4.755.623c2.467 2.859 4.754 4.52 4.754 4.52l10.607 2.507s-1.255 1.122-2.417 2.616c-.42.54-9.594-.993-9.594-.993s-5.572-2.961-7.208-4.755c-.903-.988-2.299-2.959-.897-4.518z" fill="#AD501B"/><path d="M40.798 9.982s.01-.234-.188-.461c-.551-.63-2.778-1.873-2.778-1.873l-2.267 2.949 2.097 2.125 2.182-.737.954-2.003z" fill="#000"/><path d="M37.553 4.03l-2.744-.48-.934 4.94c-.022.346-.092.65-.088.947.005.326.094.645.427 1.004 0 0 .461.422 1.012.866.223.18.919.794 1.527.693.225-.037.689-.19.689-.19.422-.16.645-.302.896-.757.326-.586 1.698-5.397 1.698-5.397l.426-1.605-2.909-.02z" fill="#D6BBA1"/><path d="M40.16 3.281c.442.551.403 1.203.2 1.669-.182.415-.287.715-.32.708 0 0-.265-1.043-1.043-.562-.753.466-1.142.849-1.199.818 0 0 .077-.861.12-.892.042-.03-.776.759-.776.759-.046.022-.155-.416-.24-.411-.9.048-1.218 1.076-1.271 1.513l-.079.433c-.04.225-.044.473-.264.424-.175-.039-.228-.181-.333-.415 0 0-.332-.936-.936-.792-.527.125-.32 1.479-.3 1.546l-.41.635c-.213.024 0 0-.186-.427-.462-1.06-.547-1.712-.624-2.051-.383-1.734.28-3.263 1.461-4.099.37-.26 1.83-.818 1.868-1.02.004-.027.24.209.581.262 1.098.17.7-.399.7-.399.29 0 .897.696.94.746.338.385.45-.116.45-.116.338.24 1.661 1.671 1.661 1.671z" fill="#633A11"/><path opacity=".49" d="M30.533 6.97s-.76-4.437 2.799-6.303c3.145-1.646 5.693.19 6.465.853.907.779 2.119 2.896 1.763 4.965-.392 2.266-1.19 5.13-1.19 5.13s-.077 1.05-1.864 1.477c-.925.22-1.926.137-3.21-.645-1.564-.956-3.672-3.047-3.672-3.047s-1.01-.9-1.091-2.43z" fill="#2E3C3F"/><path d="M40.326 10.713c-.354.415-1.275.652-1.93.708-.71.064-1.176.024-1.814-.395-.285-.186-1.061-.722-1.702-1.36-.595-.596-.51-1.107-.51-1.107s-.056-.482.053-1.481c.184-1.695 1.255-.95 1.255-.95s.827.611 1.507 1.038c.72.45 1.192.531 2.369.511 1.303-.022 1.791-.575 1.975-1.03.01-.052.02-.105.028-.157.357-2.07-.855-4.188-1.763-4.965-.772-.662-3.32-2.5-6.464-.853-3.556 1.866-2.8 6.303-2.8 6.303.08 1.529 1.094 2.432 1.094 2.432s2.108 2.09 3.672 3.047c1.284.785 2.283.866 3.21.645 1.787-.427 1.864-1.476 1.864-1.476s.19-.678.428-1.636c-.177.313-.37.608-.472.726z" fill="#14456D"/><path d="M41.508 4.66a4.01 4.01 0 0 1-.206.823c-.162.448-.444.846-.837 1.09-.392.229-.882.249-1.32.106-.445-.133-.83-.406-1.206-.713-.757-.597-1.43-1.299-2.161-1.953a14.631 14.631 0 0 0-.558-.479 2.21 2.21 0 0 0-.651-.38 1.039 1.039 0 0 0-.753.01c-.234.101-.418.29-.527.506.136-.201.332-.36.553-.437a.956.956 0 0 1 .678.05c.433.18.761.555 1.111.888.69.682 1.363 1.397 2.137 2.012.38.302.805.61 1.303.748.49.142 1.063.12 1.505-.173.429-.29.713-.754.855-1.227.06-.208.097-.42.12-.634-.01-.081-.028-.16-.043-.236z" fill="#5D7082"/><path fill-rule="evenodd" clip-rule="evenodd" d="M43.34 34.393c.053 2.583 2.684 3.202 3.965 2.46 1.282-.741 2.32-2.663 2.32-4.295 0-1.953-1.478-2.386-3.072-1.734-1.56.634-3.24 2.318-3.213 3.569z" fill="#1B91D0"/><path fill-rule="evenodd" clip-rule="evenodd" d="M47.305 30.947c-1.282.741-2.323 2.664-2.323 4.295 0 1.631 1.04 2.353 2.323 1.614 1.282-.741 2.32-2.664 2.32-4.295.003-1.634-1.038-2.356-2.32-1.614z" fill="#004687"/><path fill-rule="evenodd" clip-rule="evenodd" d="M47.44 31.176c1.228-.709 1.922.144 1.922 1.382 0 1.446-.919 3.333-2.19 4.066-1.227.708-1.922-.145-1.922-1.382 0-1.446.919-3.333 2.19-4.066z" fill="#fff"/><path fill-rule="evenodd" clip-rule="evenodd" d="M47.178 31.766c.875-.505 1.37.103 1.37.985 0 1.027-.655 2.37-1.558 2.893-.873.505-1.369-.103-1.369-.984 0-1.028.654-2.371 1.557-2.894z" fill="#F0F0F0"/><path fill-rule="evenodd" clip-rule="evenodd" d="M49.369 26.875l-.847-.493-.087-.028-.096-.004-.1.021-.108.05-4.785 2.888-.053.035-.05.039-.046.046-.046.048-.041.055-.038.054-.035.062-.032.06-.027.064-.024.066-.02.066-.012.067-.011.068-.005.066v.065l.007.066.717 5.242.846.492-.717-5.244-.006-.064v-.065l.004-.068.01-.066.014-.068.02-.065.024-.066.026-.065.033-.062.035-.059.037-.056.042-.053.046-.05.045-.044.05-.041.053-.035 4.785-2.885.108-.05.1-.024.096.004.088.03z" fill="#14AFEB"/><path fill-rule="evenodd" clip-rule="evenodd" d="M48.977 26.913L44.192 29.8c-.285.17-.48.589-.433.928l.717 5.242.468-.27-.717-5.255c-.005-.032.015-.076.043-.091l4.691-2.828c.029-.018.057-.002.062.03L49.782 33l.542-.31-.741-5.472c-.05-.34-.322-.477-.606-.305z" fill="#5AC8F5"/><path fill-rule="evenodd" clip-rule="evenodd" d="M48.303 27.92l.383 2.795c.048.022.093.048.14.076.441.232.736.755.791 1.505.002.028.005.057.005.085.002.029.002.06.002.088V32.655l-.003.039V32.882l-.002.022v.031l.169.096-.718-5.242-.006-.064v-.065l.004-.066.009-.068.009-.044a.058.058 0 0 0-.027.007l-.756.43z" fill="#14AFEB"/><path fill-rule="evenodd" clip-rule="evenodd" d="M43.833 29.846l-2.128-1.293.776-2.45.027-.047.024.02.092.135.09.142.087.149.087.157.086.162.085.17.083.18.08.188.082.197.078.203.08.215.104.297.096.273.084.252.07.225.054.201.035.173.018.149-.005.118-.026.092-.052.061.043-.026-.05.057z" fill="#004687"/><path fill-rule="evenodd" clip-rule="evenodd" d="M42.243 27.679l-4.845.356c.41-.006.917.825.812 1.05l-.064.024 4.6-.356c.62-.134-.005-1.129-.503-1.074z" fill="#0082C8"/><path fill-rule="evenodd" clip-rule="evenodd" d="M37.773 28.142c.291.182.527.523.527.76 0 .238-.236.281-.527.1-.29-.182-.527-.523-.527-.759-.002-.236.236-.282.527-.1z" fill="#000"/><path fill-rule="evenodd" clip-rule="evenodd" d="M37.487 27.972l-3.294 2.003.077-.037.09-.01.1.017.105.048.055.033.052.041.05.046.049.05.046.055.043.059.042.063.037.066.035.068.029.07.028.07.022.072.017.072.014.072.006.073.004.072-.01.129-.031.11-.05.087-.064.063 3.294-2.003.065-.064.048-.087.031-.11.011-.129-.002-.072-.009-.072-.013-.072-.018-.072-.021-.073-.027-.07-.03-.07-.035-.067-.037-.066-.04-.063-.044-.06-.046-.054-.05-.05-.05-.046-.053-.042-.052-.033-.107-.048-.099-.017-.09.01-.078.038z" fill="#0082C8"/><path fill-rule="evenodd" clip-rule="evenodd" d="M34.566 29.993c.291.169.527.608.527.982s-.236.542-.527.374c-.29-.168-.527-.608-.527-.982s.236-.542.527-.374z" fill="#E5E6DC"/><path fill-rule="evenodd" clip-rule="evenodd" d="M33.796 29.622l-5.273 3.206.127-.062.142-.017.16.028.17.077.086.054.083.066.081.072.079.081.074.09.068.094.066.1.06.103.055.11.049.111.041.114.035.116.028.116.022.116.013.113.005.114-.018.21-.05.175-.076.14-.103.1 5.27-3.206.103-.1.079-.14.048-.175.017-.208-.004-.114-.013-.116-.02-.115-.028-.116-.035-.116-.044-.114-.048-.111-.055-.108-.059-.105-.065-.1-.07-.094-.075-.088-.076-.08-.081-.075-.083-.066-.088-.054-.17-.077-.158-.026-.144.017-.125.06z" fill="#0EB8EC"/><path fill-rule="evenodd" clip-rule="evenodd" d="M29.122 32.854c.465.27.844.971.844 1.57 0 .6-.379.869-.845.6-.465-.27-.844-.971-.844-1.57-.002-.6.377-.869.845-.6z" fill="#5AC8F5"/><path fill-rule="evenodd" clip-rule="evenodd" d="M59.92 13.993l-5.272 3.16.125-.06.144-.015.158.029.17.076.086.057.085.066.081.074.077.081.074.09.07.094.065.1.06.105.054.11.048.111.044.114.035.116.029.116.02.116.012.116.005.113-.018.208-.048.177-.079.138-.102.1 5.272-3.162.103-.1.077-.138.05-.175.017-.21-.004-.114-.013-.113-.022-.118-.028-.117-.035-.115-.042-.114-.05-.112-.053-.109-.06-.105-.066-.1-.068-.095-.075-.09-.078-.08-.081-.075-.083-.065-.088-.055-.168-.079-.16-.028-.142.015-.127.062z" fill="#0EB8EC"/><path fill-rule="evenodd" clip-rule="evenodd" d="M55.246 17.184c.466.27.845.977.845 1.579 0 .599-.379.863-.845.592-.465-.27-.844-.98-.844-1.579s.379-.864.844-.592z" fill="#0082C8"/><path fill-rule="evenodd" clip-rule="evenodd" d="M54.483 17.809l-3.293 1.975.078-.037.09-.011.098.02.107.047.053.035.052.04.05.048.051.05.046.055.044.059.039.063.037.066.035.068.03.07.027.072.022.072.017.072.014.072.008.073.002.072-.01.129-.031.11-.048.087-.066.063 3.296-1.977.063-.061.049-.088.03-.11.011-.13-.002-.07-.009-.072-.013-.073-.017-.074-.022-.072-.027-.07-.03-.07-.033-.068-.04-.066-.039-.063-.044-.059-.045-.057-.049-.05-.052-.046-.05-.042-.055-.035-.107-.048-.099-.017-.09.01-.078.038z" fill="#0082C8"/><path fill-rule="evenodd" clip-rule="evenodd" d="M51.564 19.803c.291.171.527.613.527.987s-.236.54-.527.37c-.29-.171-.527-.613-.527-.987-.002-.374.234-.54.527-.37z" fill="#0082C8"/><path fill-rule="evenodd" clip-rule="evenodd" d="M50.8 20.381l-3.048 4.035.074-.087.086-.066.096-.044.105-.017h.054l.053.009.053.015.048.02.048.026.046.033.041.037.042.042.037.048.033.05.03.055.024.059.022.06.018.064.01.068.01.07-.003.136-.024.129-.041.118-.057.103 3.048-4.035.057-.103.042-.118.024-.13.002-.135-.006-.07-.014-.068-.017-.063-.022-.061-.024-.06-.03-.054-.033-.05-.038-.048-.039-.042-.044-.037-.046-.033-.048-.026-.048-.022-.052-.013-.053-.009h-.055l-.105.017-.096.044-.085.066-.074.087z" fill="#0082C8"/><path fill-rule="evenodd" clip-rule="evenodd" d="M48.112 24.202c.29-.014.545.282.569.656.022.374-.195.689-.486.7-.29.013-.544-.283-.569-.657-.021-.373.195-.689.486-.7z" fill="#000"/><path fill-rule="evenodd" clip-rule="evenodd" d="M43.84 29.816l5.31-3.237.053-.061.026-.092.004-.12-.017-.147-.037-.175-.055-.201-.07-.226-.083-.249-.096-.273-.105-.298-.08-.214-.078-.206-.08-.196-.082-.188-.083-.18-.083-.17-.085-.164-.088-.156-.087-.148-.09-.142-.092-.136-.028-.04c-2.26-.579-3.95.77-5.31 3.237l.028.04.092.135.09.142.087.15.088.154.085.164.085.171.084.18.08.187.081.197.08.206.078.214.105.298.096.273.083.25.07.224.055.202.037.175.017.146-.004.12-.026.092-.055.062z" fill="#0082C8"/><path fill-rule="evenodd" clip-rule="evenodd" d="M56.089 18.771l5.27-3.162.002-.009-.004-.114-.013-.113-.022-.118-.028-.116-.035-.116-.042-.114-.05-.112-.055-.109-.059-.105-.048-.074-5.27 3.162.047.075.06.105.054.109.048.111.044.114.035.116.028.116.02.116.013.116.005.113v.01z" fill="#5AC8F5"/><path fill-rule="evenodd" clip-rule="evenodd" d="M19.879 41.35c-.05.197.07.398.269.446.197.05.398-.07.446-.269 0-.002.302-1.146.525-2.327l.048-.254c.208-1.086.306-1.602.125-2.053-.173-.426-.53-.656-1.21-1.093-.146-.095-.31-.2-.479-.311a337.316 337.316 0 0 0-4.017-2.61c-.149-.095-.23-.178-.254-.262-.028-.091-.007-.223.05-.398l1.054-3.193a2.654 2.654 0 0 0-.861.254l-.895 2.708c-.105.317-.133.586-.057.84.08.262.259.476.563.673.577.372 1.46.94 2.274 1.467.58.377 1.185.772 1.736 1.135.188.125.346.226.488.318.551.354.84.54.925.75.1.249.015.697-.164 1.638l-.048.256c-.216 1.137-.518 2.28-.518 2.285z" fill="#0082C8"/><path fill-rule="evenodd" clip-rule="evenodd" d="M34.224 51.646c.25-.072.256-.427 0-.86 0 0-1.579-1.084-1.789-1.292-.21-.208-.765-1.054-.934-1.163-.168-.11-13.3-7.784-13.3-7.784-.99-.558-1.989 1.262-1.435 2.432.067.4 17.458 8.667 17.458 8.667z" fill="#14AFEB"/><path fill-rule="evenodd" clip-rule="evenodd" d="M33.922 51.062a1072.105 1072.105 0 0 1-8.308-3.996 393.795 393.795 0 0 1-5.702-2.812 93.453 93.453 0 0 1-1.975-1.021c-.199-.108-.634-.326-.835-.477-.302-.761.278-2.218.903-1.864 2.224 1.282 4.435 2.592 6.65 3.887l4.488 2.626c.709.416 1.453.827 2.126 1.247.287.247.582.818.888 1.124.38.38 1.247.938 1.765 1.286z" fill="#5AC8F5"/><path d="M30.482 30.813l1.68-1.009s.76-.664 1.801.486c.58.64.79 1.052.79 1.052s.461.53-.193.861c-.225.114-.2.114-.63.272-.914.334-1.102.435-1.865.076-.453-.212-1.041-.632-1.45-.69-.295-.042-.831.213-.831.213s-.186-.605.698-1.261zM55.36 15.883l1.68-1.008s.761-.665 1.802.485c.58.641.79 1.052.79 1.052s.461.53-.193.862c-.225.114-.201.114-.63.271-.914.335-1.102.435-1.865.077-.453-.213-1.041-.633-1.45-.692-.295-.041-.831.215-.831.215s-.186-.608.698-1.262z" fill="#DDBEA4"/></g><defs><clipPath id="clip0"><path fill="#fff" d="M0 0h72v72H0z"/></clipPath></defs></svg>