<svg width="86" height="62" fill="none" xmlns="http://www.w3.org/2000/svg" viewBox="0 0 86 62"><g clip-path="url(#clip0)"><path d="M3.324 29.804L14.035 17.2l69.936 32.907c1.526.715 1.468 2.903-.087 3.544L65.59 61.168l-9.652-5.938-9.91 4.214-7.609-14.959-35.094-14.68z" fill="#CDD5E9"/><path d="M63.604 61.168l-16.703-8.192-.873 6.468-8.143-10.89L3.788 31.832c-1.522-.749-2.759-2.771-2.759-4.516V2.092c0-1.75 1.233-2.56 2.759-1.811l59.816 29.337c1.522.749 2.758 2.771 2.758 4.516v25.223c0 1.75-1.236 2.56-2.758 1.811z" fill="#A5DC82"/><path d="M62.575 61.722L45.87 53.529l.157 5.918-9.172-10.338L2.758 32.38C1.232 31.632 0 29.61 0 27.86V2.642C0 .892 1.232.082 2.758.826L62.58 30.168c1.522.748 2.758 2.77 2.758 4.516v25.223c-.004 1.749-1.24 2.56-2.762 1.815z" fill="#00AD00"/><path d="M38.689 33.684L7.255 18.267a.608.608 0 1 0-.538 1.092L38.151 34.78a.613.613 0 0 0 .819-.281.61.61 0 0 0-.281-.815zM38.689 37.1L7.255 21.681a.608.608 0 1 0-.538 1.092L38.151 38.19a.613.613 0 0 0 .819-.281.607.607 0 0 0-.281-.81zM38.689 40.52L17.048 29.904a.608.608 0 1 0-.538 1.092L38.155 41.61a.613.613 0 0 0 .819-.281.611.611 0 0 0-.285-.81zM38.689 30.012L7.255 14.594a.608.608 0 1 0-.538 1.092l31.434 15.417a.613.613 0 0 0 .819-.281.606.606 0 0 0-.281-.81zM6.721 12.167l31.434 15.417a.613.613 0 0 0 .819-.281.608.608 0 0 0-.277-.815L7.255 11.071a.61.61 0 1 0-.533 1.096z" fill="#A5DC82"/><path d="M58.329 50.605c3.467-2.016 3.654-8.164.417-13.732-3.238-5.568-8.673-8.448-12.14-6.432-3.467 2.016-3.654 8.164-.416 13.732 3.237 5.568 8.672 8.448 12.139 6.432z" fill="#fff"/><path d="M58.329 50.605c3.467-2.016 3.654-8.164.417-13.732-3.238-5.568-8.673-8.448-12.14-6.432-3.467 2.016-3.654 8.164-.416 13.732 3.237 5.568 8.672 8.448 12.139 6.432z" fill="#fff"/><path d="M57.691 49.54c-.206-1.018-.872-2.031-1.687-2.569l-.64-.421c-1.924-1.274-3.876-2.23-5.799-2.846l-.64-.202c-.816-.26-1.481.099-1.688.914l-.257 1.009c3.164 4.578 7.792 6.856 10.968 5.38l-.257-1.266z" fill="#D70073"/><path d="M55.49 48.12s0-3.154-3.031-4.64c-3.031-1.484-3.031-.516-3.031-.516l-.563-4.404 7.61 3.734-.985 5.827z" fill="#332009"/><path d="M51.012 44.543l.004.008c.798 1.307 2.097 1.94 2.89 1.41l-.223-2.191-2.452-1.204-.22 1.977z" fill="#FAD5A8"/><path opacity=".68" d="M51.313 41.88c.343.302.736.57 1.15.773.413.203.806.319 1.15.356l.19 1.857c-.389-.017-1.762-.323-2.713-.96l.223-2.026z" fill="#FAD5A8"/><path d="M51.338 43.41l2.254 1.104c1.05.517 1.902-.046 1.902-1.253v-5.335c0-.773-.546-1.67-1.22-2.002l-3.618-1.774c-.675-.33-1.22.03-1.22.803v5.339c-.005 1.207.847 2.6 1.902 3.118z" fill="#FAD5A8"/><path opacity=".68" d="M54.563 42.137c-.244-2.457-.855-4.64-2.994-6.8l-.053-.082 1.369-1.009 3.192 5.513-1.514 2.378zM50.002 39.899c.174 1.228.534 2.138 1.005 2.924-.938-1.05-1.575-2.51-1.575-3.826v-5.446s.703.885.537 2.758c-.095 1.08-.107 1.998-.05 2.796l.083.794z" fill="#FAD5A8"/><path d="M56.015 49.01l-.52-7.486-.68.993-.094-.43c.57-3.102-1.133-5.678-4.012-7.275l-.686 1.725c-.17.422-.302.877-.397 1.356-.207 1.038-.12 2.267.223 3.528l.798 2.936c-1.724-2.146-2.762-4.867-2.762-7.237v-1.348c0-2.903 2.051-4.252 4.578-3.01 2.53 1.24 4.578 4.598 4.578 7.505v1.6c0 2.354-.29 4.554-.856 6.539l-.17.604z" fill="#422C10"/></g><defs><clipPath id="clip0"><path fill="#fff" d="M0 0h85.089v62H0z"/></clipPath></defs></svg>