<svg width="99" height="72" fill="none" xmlns="http://www.w3.org/2000/svg" viewBox="0 0 99 72"><path d="M3.861 34.612L16.3 19.974l81.216 38.214c1.772.83 1.705 3.371-.1 4.115l-21.247 8.731-11.21-6.896-11.506 4.894-8.837-17.371L3.86 34.61z" fill="#CDD5E9"/><path d="M73.863 71.035L54.465 61.52l-1.013 7.511-9.456-12.645L4.399 36.965c-1.768-.869-3.204-3.217-3.204-5.244V2.431C1.195.398 2.626-.544 4.4.326l69.464 34.07c1.767.868 3.203 3.217 3.203 5.244v29.29c0 2.032-1.436 2.973-3.203 2.104z" fill="#A5DC82"/><path d="M72.668 71.678L53.27 62.164l.182 6.873L42.8 57.03 3.203 37.605C1.431 36.734 0 34.386 0 32.355V3.069C0 1.037 1.431.096 3.203.96l69.47 34.074c1.767.869 3.203 3.218 3.203 5.244V69.57c-.005 2.032-1.441 2.973-3.208 2.108z" fill="#00AD00"/><path d="M44.928 39.117L8.424 21.213a.706.706 0 1 0-.625 1.268l36.505 17.908a.712.712 0 0 0 .95-.327.708.708 0 0 0-.326-.945zM44.928 43.084L8.424 25.18a.706.706 0 1 0-.625 1.268L44.304 44.35a.712.712 0 0 0 .95-.327.705.705 0 0 0-.326-.94zM44.928 47.056L19.797 34.727a.706.706 0 1 0-.624 1.268l25.136 12.329a.712.712 0 0 0 .95-.327.71.71 0 0 0-.33-.941zM44.928 34.852L8.424 16.948a.706.706 0 1 0-.625 1.268L44.304 36.12a.712.712 0 0 0 .95-.327.704.704 0 0 0-.326-.94zM7.804 14.129l36.504 17.904a.712.712 0 0 0 .95-.327.706.706 0 0 0-.32-.946L8.422 12.856a.708.708 0 1 0-.62 1.273z" fill="#A5DC82"/><path d="M67.736 58.769c4.027-2.341 4.243-9.481.484-15.947-3.76-6.466-10.07-9.81-14.097-7.47-4.027 2.341-4.243 9.48-.484 15.947 3.76 6.466 10.07 9.81 14.097 7.47z" fill="#fff"/><path d="M67.736 58.769c4.027-2.341 4.243-9.481.484-15.947-3.76-6.466-10.07-9.81-14.097-7.47-4.027 2.341-4.243 9.48-.484 15.947 3.76 6.466 10.07 9.81 14.097 7.47z" fill="#fff"/><path d="M66.995 57.53c-.24-1.182-1.013-2.358-1.96-2.983l-.744-.49c-2.233-1.479-4.5-2.588-6.733-3.304l-.744-.235c-.946-.303-1.72.115-1.96 1.061l-.297 1.172c3.674 5.317 9.048 7.963 12.736 6.248l-.298-1.47z" fill="#D70073"/><path d="M64.442 55.883s0-3.665-3.52-5.389c-3.52-1.724-3.52-.6-3.52-.6l-.654-5.115 8.837 4.337-1.143 6.767z" fill="#332009"/><path d="M59.24 51.728l.005.01c.927 1.517 2.435 2.252 3.357 1.638l-.26-2.546-2.847-1.397-.255 2.295z" fill="#FAD5A8"/><path opacity=".68" d="M59.59 48.636c.398.35.854.662 1.334.898.48.235.937.37 1.336.413l.22 2.156c-.45-.019-2.045-.374-3.15-1.114l.26-2.353z" fill="#FAD5A8"/><path d="M59.62 50.413l2.617 1.283c1.22.6 2.209-.053 2.209-1.456v-6.195c0-.898-.634-1.94-1.417-2.324l-4.202-2.06c-.783-.385-1.417.033-1.417.931v6.2c-.005 1.402.985 3.021 2.21 3.621z" fill="#FAD5A8"/><path opacity=".68" d="M63.366 48.934c-.284-2.853-.995-5.389-3.477-7.896l-.063-.096 1.59-1.172 3.707 6.402-1.757 2.762zM58.069 46.336c.202 1.426.62 2.483 1.167 3.395-1.09-1.22-1.83-2.915-1.83-4.442v-6.325s.817 1.028.625 3.203c-.11 1.254-.125 2.32-.058 3.247l.096.922z" fill="#FAD5A8"/><path d="M65.051 56.916l-.605-8.693-.788 1.153-.11-.5c.663-3.602-1.316-6.594-4.659-8.447l-.797 2.002a8.826 8.826 0 0 0-.46 1.575c-.24 1.206-.14 2.632.259 4.097l.927 3.41c-2.003-2.493-3.209-5.653-3.209-8.405v-1.565c0-3.372 2.382-4.937 5.317-3.497 2.939 1.441 5.316 5.34 5.316 8.717v1.859c0 2.732-.336 5.287-.994 7.593l-.197.7z" fill="#422C10"/></svg>