<svg width="73" height="72" fill="none" xmlns="http://www.w3.org/2000/svg" viewBox="0 0 73 72"><g clip-path="url(#clip0)"><path d="M60.447 65.509C53.747 67.515 19.4 53.813.754 39.42a1.92 1.92 0 0 1 .289-3.233l20.096-10.51c9.078 5.066 40.447 21.876 39.308 39.83z" fill="#DFE7FB"/><path d="M18.15 17.401c-.855-.494-2.645-.618-3.781-.018.037-.222 1.709-1.53 4.451-.334.194.08.659.285 1 .565 2.063.528 4.073 1.542 5.863 2.894-3.233.825-9.322 4.408-10.679 4.545l-1.538-2.477c-.415-4.383 3.029-5.312 4.685-5.175zM1.467 32.29c-.129 1.682-.344 1.216.83 3.693.073.593 51.263 40.678 69.992 25.822C46.89 57.394 30.033 45.33 4.77 30.423l-3.304 1.866z" fill="#192D4B"/><path d="M70.04 63.254c-2.131.686-6.341 1.92-27.235-8.576-14.17-6.976-27.957-13.976-41.424-21.483l.086-.93 41.88 21.714c0 .003 15.63 8.59 26.693 9.275z" fill="#192D4B"/><path d="M72.046 62.806c-2.62 1.43-12.299-.491-24.755-6.792C31.586 47.849 9.038 37.1 1.47 32.268c6.929-4.152 22.364-11.302 25.007-12.342C40.344 27.35 55.553 37.43 65.443 46.982c4.596 5.115 9.724 14.043 6.603 15.824z" fill="#E6E7E8"/><path d="M16.344 30.94l-2.777-5.035a298.45 298.45 0 0 0-8.684 4.44l8.952 4.56 2.51-3.965z" fill="#0082C8"/><path d="M14.8 20.378c1.08-2.23 4.121-3.629 8.935-.944 2.504 1.149 14.267 8.1 19.613 12.197l-10.742 6.612-9.866-3.513-2.968-3.81-2.368-1.68c-1.034-2.038-2.008-4.09-2.763-6.25-.48-1.115-.024-2.267.16-2.611z" fill="#F1F2F2"/><path d="M41.196 36.59s.137.732.504 1.2c.367.47 1.394 1.145 2.034 1.507.64.363 1.688.792 1.604 1.903 0 0 .178.582-1.024.642-1.202.057-1.785-.101-2.383-.686-.601-.582-.997-.689-1.761-.828-.764-.14-1.032-.236-1.032-.236s-.296-.481-.26-1.007c.037-.526.444-1.08.252-1.7-.194-.622-.616-1.657-.616-1.657l2.333-.43.349 1.292z" fill="#F2A983"/><path d="M41.7 37.624s-.126-3.732-.764-5.273c-.638-1.542-.821-5.104-1.302-5.938-.48-.833-2.632-1.501-4.585-1.644-1.955-.142-5.438.632-5.438.632s-.38 3-.38 3.192c0 .191 4.196.331 5.199.31 1.002-.02 2.577.534 2.577.534s-.388 1.933.346 3.412c.733 1.478 1.486 4.742 1.486 4.742s.75 1.097 2.86.033z" fill="#065380"/><path d="M25.473 20.322c-1.832-1.217-6.43-3.624-9.396-1.572-1.195 1.121-3.444 3.18.74 7.19-1.499-1.774-2.433-9.882 8.656-5.618z" fill="#E6E7E8"/><path d="M14.234 22.835c1.056 3.689 11.625 10.24 16.517 11.783v3.065c-3.974-1.75-11.315-5.193-11.315-5.193l-1.456-2.958c-1.166-2.102-3.328-4.823-3.746-6.697z" fill="#0082C8"/><path d="M30.283 31.764c13.698 10.39 25.285 21.063 33.828 25.894 3.328 1.597 4.94.706 5.59-.138-.27 2.253-5.251 2.721-8.12.987-8.986-4.856-17.104-10.992-30.828-21.75l-.47-4.993z" fill="#0082C8"/><path d="M4.88 30.345l1.043-.554 5.015 2.19 5.407-1.038-6.46-11.709c-2.049-5.037 4.16-8.035 7.725-5.356 2.648 2.152 5.716 4.909 7.903 6.472-.853-.476-2.717-1.98-5.69-2.734-3.25-2.197-8.084-1.053-5.19 4.481 1.415 2.16 3.541 7.158 5.15 9.848l10.968 4.817c11.17 8.713 32.637 22.529 31.634 22.156-16.876-6.43-44.24-21.864-57.504-28.573z" fill="#14AFEB"/><path d="M43.197 27.766l-.305-3.53-10.519 5.04c1.058 3.054 3.528 5.767 5.942 7.677l-3.509-5.032 8.39-4.155z" fill="#414042"/><path d="M37.032 29.555l-.006.018-.472 1.44-2.543 1.39s-1.247-1.73-1.638-3.174l1.207-.407 1.764.01 1.688.723z" fill="#808285"/><path d="M29.448 29.52l2.108-.961-.635-.083c-.948-.124-1.027-.577-.174-1.005l6.745-3.388c.854-.427 2.315-.608 3.247-.404l.278.062 2.893-1.364a.617.617 0 0 1 .336-.057c.12.01.228.057.317.124l.257.195a.345.345 0 0 1-.066.595l-1.97.898.128.029c.389.085.625.227.709.393.05.101.047.21-.016.321l-.543 1.525-6.034 3.155-1.685-.722c-.514.073-1.024.088-1.433.034l-.328-.044-3.354 1.581a.673.673 0 0 1-.699-.07l-.157-.116a.41.41 0 0 1-.163-.373.412.412 0 0 1 .24-.326z" fill="#627072"/><path d="M43.608 24.875l-.544 1.525-6.034 3.155-1.685-.722c-.01.003-.018.003-.029.003l8.339-4.16a.378.378 0 0 1-.047.2z" fill="#58595B"/><path d="M30.283 31.763c11.62 8.905 23.658 19.858 33.246 25.785 3.59 2.209 7.837 1.204 5.989-2.899-4.987-10.916-14.112-22.987-22.115-31.146l-17.12 8.26z" fill="#14AFEB"/><path d="M60.674 53.777c2.753 1.763 7.716 2.011 5.475-2.65-4.35-9.52-12.134-19.993-19.194-27.41l.446-.214c8.005 8.16 17.128 20.23 22.115 31.146 1.85 4.103-2.399 5.108-5.99 2.9C53.94 51.62 41.9 40.668 30.282 31.762l1.239-.598C41.756 39.12 52.252 48.57 60.674 53.777z" fill="#192D4B"/><path d="M50.688 32.985c-.297-1.198-1.586-5.617-4.89-8.708-4.703-.383-10.139 1.81-12.876 6.213 1.863 1.287 5.07 3.197 11.821 5.144 2.412.603 7.233 1.804 5.945-2.649z" fill="#004687"/><path d="M20.598 32.185L30.75 36.76l31.203 21.798-31.56-20.892-8.969-4.111 4.082 7.639-1.753-.924c-3.722-7.323-6.759-12.653-9.118-18.172 1.994 3.103 3.207 6.344 5.963 10.087zM6.405 29.532l4.627 1.936 5.312-.528 2.268 4.114-2.583-3.529-5.092.456-5.015-2.193.483-.256z" fill="#192D4B"/><path d="M64.111 59.415c-6.719-.689-31.565-11.292-61.785-27.655l2.554-1.418c14.39 7.318 46.022 25.03 59.231 29.073z" fill="#A7A9AC"/><path d="M14.52 27.632l-5.87 2.84-2.246-.94a251.56 251.56 0 0 1 7.163-3.627l.953 1.727z" fill="#004687"/><path d="M52.827 54.895L30.3 39.045l-5.984-2.589 3.37 5.879c7.633 4.23 17.711 9.228 25.141 12.56z" fill="#E6E7E8"/><path d="M30.538 34.507c-3.407-.673-11.037-3.135-13.722-8.568 3.927 3.595 8.601 6.329 13.722 8.568z" fill="#192D4B"/><path d="M36.333 45.429s.183-.66-.116-1.092c-.302-.433-1.06-1.09-1.52-1.491-.459-.402-1.729-1.929-1.894-3.707l-2.084.476s.559 1.44.546 1.936c-.014.497.018 1.339.144 2.081 0 0 .33.33.65.813.321.484.458.888 1.615 1.313 1.157.422 2.283.111 2.659-.329z" fill="#F2A983"/><path d="M34.16 42.144s-.121.758-1.35.618c-1.228-.14-1.779-.82-1.779-.82s-.438-.911-.472-1.53c-.034-.619-.837-2.009-.95-2.439-.113-.43-1.06-2.542-1.16-3.484-.1-.942-.027-2.024-.027-2.024s-2.233-1.261-2.984-1.836c-.75-.574-2.008-1.853-2.042-2.961-.034-1.11.415-2.653.415-2.653s1.488.955 2.457 1.087c.968.132 4.223.43 4.663.862.119.116.588 1.651.55 2.104-.103 1.238-.23 1.32.049 2.183.383 1.177.338 2.637.661 3.867s1.06 3.106 1.341 4.274c.284 1.17.628 2.752.628 2.752z" fill="#065380"/><path d="M28.449 34.489c-.1-.942-.027-2.024-.027-2.024s-2.233-1.26-2.984-1.836c-.75-.574-2.008-1.853-2.042-2.961-.034-1.11.415-2.653.415-2.653s.53.339 1.163.642c.07.3.097.636.015.978-.236.973-.821 1.499.084 1.843.903.345 1.727.101 2.121.707.394.606-.126.875.152 1.248.276.372.777.385 1.084.662.307.277 1.402.772 1.095 1.626-.307.854-.428 1.131-.09 1.9.34.769.754 2.275.594 2.858-.158.582.706.996 1.084 1.7.378.705.643.894.477 1.58-.165.686-.044.996.418 1.473.086.09.133.227.152.393-.77-.246-1.12-.68-1.12-.68s-.44-.912-.473-1.53c-.034-.62-.837-2.01-.95-2.44-.121-.431-1.069-2.546-1.168-3.486z" fill="#003A67"/><path d="M27.94 14.091s.625-.478.717-1.384c.092-.904 2.055-.58 2.055-.58l1.375 1.385s-.745 6.287-1.493 6.598c-.748.31-1.312-1.116-1.37-1.131-.058-.016-1.585-2.824-1.585-2.824l.302-2.064z" fill="#D88F69"/><path d="M42.89 22.538s.298.212.658.256c.36.044.682.075.724.241.045.166.003.51.037.544.034.033.415.044.772-.044.357-.088.756-.48.75-.635-.005-.155.124-.554.006-.784-.118-.233-.181-.551-.465-.621-.286-.07-.89-.324-1.081-.528-.194-.207-.4-.536-.538-.616-.14-.08-1.289-1.165-1.91-1.776-.623-.611-2.048-1.867-2.308-2.027-.257-.16-.86-.422-1.055-.487-.192-.062-.94-.805-1.761-1.196-.822-.39-3.181-1.776-4.034-1.424-.85.353-.895 2.41-.835 2.59.06.178 1.042.199 1.173.258.132.06.89.63 2.037 1.09 1.15.46 2.352.794 2.722.991.37.197 1.625 1.137 2.625 1.69.997.555 2.314 1.292 2.433 1.546.118.251.05.932.05.932z" fill="#F2A983"/><path d="M31.852 16.03c-.06-.179-.018-2.237.835-2.589.152-.062.352-.07.58-.039.1.58.375 1.916 1.147 2.656.995.956 1.659 1.158 2.472 1.36.814.199 1.05-.08 1.342.232.29.314.37.573 1.144 1.272.774.698 2.456 1.703 3.026 1.928.57.225 1.097.73 1.223 1.056.123.326.643.841.869 1.124.226.282.947.124 1.16-.676.034-.124.079-.251.131-.368.019.044.037.088.058.127.118.233-.01.63-.005.785.005.155-.394.546-.751.634-.357.088-.74.078-.772.044-.034-.034.008-.378-.036-.544-.045-.166-.368-.197-.725-.24-.36-.045-.658-.257-.658-.257s.068-.678-.048-.932c-.118-.253-1.433-.991-2.433-1.545-.997-.554-2.254-1.494-2.624-1.69-.37-.197-1.575-.531-2.722-.992-1.15-.46-1.908-1.03-2.037-1.09-.133-.057-1.115-.077-1.175-.256z" fill="#D88F69"/><path d="M31.229 13.15s1.136-.43 2.572.173c1.435.6 2.333 1.175 2.333 1.175l-.803 3.055-2.685-.78-1.418-3.624z" fill="#065380"/><path d="M27.984 13.934s-.126.996.52 1.548c1.606 1.372 1.89 3.947 1.89 3.947s1.66-3.559 1.015-5.482l1.622-.642s.806 2.601.247 4.587c-.56 1.985-1.247 2.718-1.247 2.718s.617 2.563-.118 4.312c-.735 1.75-2.659 2.724-5.01 2.027-2.35-.696-3.095-1.933-3.095-1.933s.633-2.268.36-3.14c-.273-.873-.966-4.246.037-5.579 1.002-1.338 3.779-2.363 3.779-2.363z" fill="#003A67"/><path d="M27.701 13.53s.714-.598.856-1.385l3.777.686s.052 1.45-.294 2.252c-.347.802-2.893.347-3.607-.083-.716-.43-.732-1.47-.732-1.47z" fill="#D88F69"/><path d="M32.942 15.502l-.22-1.9-.927-.212s.59 1.82-1.021 1.85c-1.98.037-3.074-1.71-3.074-1.71s-2.84 1.115-2.99 1.157c-.151.041-.251 4.69-.251 4.69l.157.394s-.33.53 1.893 1.115c2.225.585 6.241-.823 6.241-.823l.192-4.561z" fill="#065380"/><path d="M27.688 16.504c-.64-.523-2.268-.396-2.417-.298l-.486.318a179.651 179.651 0 0 0-.328 2.853l.157.393s-.33.531 1.893 1.116c.07.018.144.036.22.05l.777-.59c.003.002.824-3.32.184-3.842z" fill="#003A67"/><path d="M31.577 26.696c.443-.54.79-2.177.656-2.506l.173-1.017c.21-.228.898-2.775.712-3.02l.194-.997s.21-.107.288-.422c.43-1.686.04-3.094-.157-3.363l-1.522-.35c-.339 1.724-1.1 2.493-1.1 2.493a11.674 11.674 0 0 0-1.54-2.135l-2.045 1.025c.564 1.688.317 3.632-.131 4.168-.686.815-2.35.29-2.35.29-.225.075-.32 1.234-.068 2.034.042.13.205.282.205.282.163.347.105.513-.144.777-.313.334-.457 1.59-.457 1.59s2 2.2 5.315 1.723c1.477-.212 1.97-.572 1.97-.572z" fill="#F4872A"/><path d="M26.588 24.248c-.168-1.59.415-3.166.415-3.166l-.394-.17c-.777.287-1.848-.05-1.848-.05-.225.075-.32 1.235-.068 2.035.042.13.205.282.205.282.163.347.105.513-.144.777-.313.334-.457 1.59-.457 1.59s.556.61 1.567 1.12l.724-2.418z" fill="#F4872A"/><path opacity=".5" d="M31.404 21.567l-.493-.272c.084.986-.392 2.889-.392 2.889l.567-.466c.203-.528.318-2.151.318-2.151zM31.443 19.884c.218-1.317-.181-2.228-.181-2.228.648-1.01.898-2.265.898-2.265l-.234-.37c-.339 1.723-1.1 2.492-1.1 2.492.517 1.168.126 2.907.126 2.907l.491-.536zM27.11 20.57l-.063.07.341.05.496-.449s.333-.59.252-1.646c-.081-1.056-.367-1.892-.367-1.892l-.528-.3c.564 1.684.32 3.631-.131 4.167z" fill="#F4872A"/><path opacity=".3" d="M29.285 15.377l-2.045 1.025.528.3 1.858-.929a10.83 10.83 0 0 0-.341-.396zM33.574 15.68a1.021 1.021 0 0 0-.126-.313l-1.522-.35.233.37 1.415.293zM30.91 21.295l-.145.039c-1.606.427-2.9.427-3.868.277l-.016.015.46.38s.091.086 1.02.115c.93.026 2.478-.218 2.538-.313.058-.091.01-.513.01-.513zM33.12 20.148s-.203.588-2.208 1.145l.494.271c.9-.204 1.47-.701 1.727-.976.026-.222.026-.385-.014-.44z" fill="#F4872A"/><path opacity=".5" d="M26.306 26.866l.787-2.5c-.183-.787.247-2.356.247-2.356l-.454-.399-.031-.044c-.16.588-.376 1.631-.265 2.682l-.725 2.415c.137.068.284.138.441.202z" fill="#F4872A"/><path opacity=".3" d="M32.233 24.19s-.147.496-1.659.856l.305.324c.71-.145 1.141-.417 1.357-.593.034-.272.039-.49-.003-.588zM32.259 24.044l-.027.145.027-.145z" fill="#F4872A"/><path opacity=".5" d="M30.412 27.12c.153-.438.415-1.233.468-1.75l-.305-.324c-.05.013-.102.023-.157.036-.055.407-.218 1.421-.549 2.146.202-.036.38-.072.543-.109z" fill="#F4872A"/><path opacity=".3" d="M30.274 25.11a7.286 7.286 0 0 1-3.388-.1l.002.007-.128.407s1.12.528 3.567.223l.089-.565c-.047.008-.095.018-.142.029z" fill="#F4872A"/><path d="M27.302 13.55l-1.69.658c.818.502 1.335 1.313 1.63 2.193l2.044-1.025c-1.03-1.144-1.984-1.825-1.984-1.825zM32.983 13.377l-.897-.207a9.11 9.11 0 0 1-.16 1.848l1.522.35c-.16-1.217-.465-1.991-.465-1.991zM32.409 23.17s-.226.688-2.097 1.058c-1.554.306-2.822.109-3.74-.197-.063-.955.126-1.876.273-2.43.976.158 2.286.165 3.924-.27 2.144-.569 2.354-1.185 2.354-1.185l.2-1.02s-.192.712-2.337 1.279c-3.942 1.046-6.367-.637-6.367-.637l.145 1.087s.495.368 1.47.616c-.16.3-.352.953-.282 2.317-.682-.305-1.052-.616-1.052-.616l-.152.805s.37.308 1.04.624l-.481 1.742c.165.106.352.212.556.316l.54-1.804c.95.336 2.274.572 3.87.25 1.792-.36 1.96-.92 1.96-.92l.176-1.016z" fill="#414E52"/><path d="M26.782 24.1l-.212-.066c-.063-.955.126-1.876.273-2.43l.191.028c.1-.367.242-.701.36-.942-1.25-.153-2.118-.546-2.522-.766l-.24-.031.13.968s.495.367 1.47.616c-.16.3-.352.952-.282 2.317-.682-.306-1.052-.617-1.052-.617l-.152.806s.37.308 1.039.623l-.48 1.743c.165.106.351.212.556.315l.54-1.804.137.047.244-.808zM26.895 13.576l-1.102.43a4.86 4.86 0 0 1 1.727 1.853l1.186-.466c-.588-.98-1.81-1.817-1.81-1.817zM33.153 15.078l-.973-.223.2-1.654.487.08.286 1.797z" fill="#344145"/><path d="M29.422 7.46c.916-.335 2.163.01 2.911.791.75.782.822 1.533.824 1.864.005.332.04.624.06.88.022.257-.304.497-.304.497.2.401-.207 1.152-.31 1.333.014.083.019.15.003.192a.22.22 0 0 1-.205.163c-.12.246-.247.541-.278.67-.045.192-.17.842-.955.674-.785-.166-1.809-.87-2.389-1.582-.582-.71-1.065-1.986-1.018-3.14.047-1.15.745-2.009 1.661-2.343z" fill="#F2A983"/><path d="M32.065 13.147c.02-.04.189.049.338.036-.12.246-.246.541-.278.67-.034.148-.115.562-.504.673.152-.95.444-1.38.444-1.38zM32.364 11.816c-.016-.355.75-.53.75-.53-.09.12-.205.206-.205.206.2.401-.207 1.152-.31 1.333-.046-.277-.22-.732-.235-1.01z" fill="#D88F69"/><path opacity=".25" d="M29.422 7.46c.916-.335 2.162.01 2.91.791.751.782.822 1.533.825 1.864.002.104.005.205.013.3-1.444.617-2.342-.261-2.733-.238-.32.018-.435.21-.585.694-.15.484-.506.58-.535 1.152-.026.494.504 1.367.58 1.915a5.282 5.282 0 0 1-1.116-.99c-.582-.71-1.065-1.986-1.018-3.14.045-1.155.743-2.015 1.659-2.349z" fill="#F2A983"/><path d="M30.057 9.833s1.325.6 2.304.616c.977.013 1.092-.665.995-1.061-.097-.397-.346-1.21-1.795-1.9-1.449-.692-3.192-.063-3.57 1.107-.378 1.173-.349 1.812.053 3.078 0 0-.021-1.183.278-1.038.3.148.457.616.473.826l.194.12s-.019-.231.16-.376c.178-.143.795-.474.908-1.372z" fill="#563317"/><path d="M28.638 12.129c-.107.036-.351.07-.677-.474-.328-.543-.22-.963.026-1.053.247-.091.433.041.507.227.07.19.144 1.3.144 1.3z" fill="#F2A983"/><path opacity=".25" d="M28.638 12.129c-.107.036-.351.07-.677-.474-.328-.543-.22-.963.026-1.053.247-.091.433.041.507.227.07.19.144 1.3.144 1.3z" fill="#F2A983"/><path d="M29.621 11.096c.365.114.599.176.898.254.252-.138.695.026 1.22.02.108 0 .404.01.478.205a.337.337 0 0 1 .273-.01c.1-.27.349-.252.488-.303.627-.233.659.015.525.411-.147.425-.449.624-.835.642-.265.013-.28-.238-.21-.64a.577.577 0 0 1 .008-.033.262.262 0 0 0-.233.016.408.408 0 0 1-.016.132c-.11.396-.496.756-1.168.722-.759-.036-.869-.616-.68-1.002l.026-.044c-.233-.078-.517-.17-.755-.256-.229-.083-.956-.334-1.134-.422l-.145-.143c.599.26.995.368 1.26.45z" fill="#2E383B"/><path d="M30.676 12.385c.105.05.231.078.378.083.677.034 1.024-.334 1.12-.689.043-.15.003-.25-.123-.308a.707.707 0 0 0-.31-.052c-.207.003-.404-.023-.577-.044-.37-.046-.638-.077-.75.158a.692.692 0 0 0-.04.534c.05.14.155.248.302.318zM32.566 12.256c.026.013.06.018.102.016.388-.018.661-.228.793-.611.112-.329.052-.399-.006-.425-.055-.026-.18-.033-.459.07-.034.013-.074.02-.116.031-.152.034-.322.07-.372.35-.063.352-.047.523.058.57z" fill="#212B2E"/><mask id="a" maskUnits="userSpaceOnUse" x="31" y="11" width="2" height="2"><path d="M31.191 11.378c.166.02.352.041.549.041.126 0 .234.018.31.052.123.057.162.158.123.308a.914.914 0 0 1-.51.585 2.083 2.083 0 0 0-.472-.986z" fill="url(#paint0_linear)"/></mask><g mask="url(#a)"><path opacity=".44" d="M31.191 11.378c.166.02.352.041.549.041.126 0 .234.018.31.052.123.057.162.158.123.308a.914.914 0 0 1-.51.585 2.083 2.083 0 0 0-.472-.986z" fill="url(#paint1_linear)"/></g><mask id="b" maskUnits="userSpaceOnUse" x="32" y="11" width="2" height="2"><path d="M32.978 11.313c.006-.002.014-.002.019-.005.28-.103.404-.096.46-.07.054.026.115.099.004.425a.943.943 0 0 1-.294.437c.006-.2-.031-.468-.189-.787z" fill="url(#paint2_linear)"/></mask><g mask="url(#b)"><path opacity=".44" d="M32.978 11.313c.006-.002.014-.002.019-.005.28-.103.404-.096.46-.07.054.026.115.099.004.425a.943.943 0 0 1-.294.437c.006-.2-.031-.468-.189-.787z" fill="url(#paint3_linear)"/></g><path d="M30.38 25.561s.696 1.035.843 1.157c.147.122.94.663 1.236 1.007.297.347.389.74.247 1.121-.142.38-.268 1.007-.517 1.03-.25.024-.286-.018-.286-.018s-.103.207-.37.104c0 0-.373.191-.54.088 0 0-.334.168-.505.121-.17-.049-.501-.445-.514-.698-.013-.254 0-.609-.045-.847-.047-.238-.186-1.11-.289-1.186-.1-.075-2.635-2.635-2.97-3.023-.337-.388-.746-1.535-.746-1.535s-1.184-1.372-1.483-2.301c-.3-.927-.443-1.59-.614-1.794-.173-.205-.68-2.333.622-2.77 1.302-.438 2.102.078 2.506 1.175a8.687 8.687 0 0 1 .468 2.221s.026.135.422 1.007c.396.872.544 1.483.544 1.483s.38.668.721 1.297c.339.627 1.27 2.361 1.27 2.361z" fill="#F2A983"/><path d="M24.442 20.576c-.3-.927-.444-1.59-.614-1.794-.045-.054-.113-.243-.166-.497.323.438.816.712.966 1.45.192.952 1.357 2.41 1.449 2.407.092-.005.438.039.588.26.15.222-.258.628.191 1.428.449.8 2.478 2.943 2.75 3.163.274.22.329.466.345.82.018.356.34 1.042.43 1.078.09.036.451.13.611.039.16-.091.436.067.64-.091.206-.158.332-.05.63-.05.169 0 .366-.12.507-.227a1.076 1.076 0 0 1-.063.28c-.141.38-.267 1.007-.517 1.03-.249.023-.286-.018-.286-.018s-.102.207-.37.103c0 0-.373.192-.54.088 0 0-.334.168-.504.122-.171-.05-.502-.445-.515-.699-.013-.254 0-.608-.044-.846-.048-.239-.187-1.111-.29-1.186-.099-.075-2.634-2.635-2.97-3.024-.336-.388-.746-1.535-.746-1.535s-1.18-1.372-1.482-2.3z" fill="#D88F69"/><path d="M24.09 20.014s1.571.184 3.56-.803c0 0-.5-2.715-.647-3.267-.29-1.082-1.27-1.703-2.693-1.1-1.425.603-1.118 2.602-.22 5.17z" fill="#065380"/></g><defs><linearGradient id="paint0_linear" x1="31.616" y1="11.248" x2="31.783" y2="12.197" gradientUnits="userSpaceOnUse"><stop stop-color="#fff"/><stop offset="1" stop-color="gray"/></linearGradient><linearGradient id="paint1_linear" x1="31.616" y1="11.248" x2="31.783" y2="12.197" gradientUnits="userSpaceOnUse"><stop stop-color="#fff"/><stop offset="1" stop-color="#fff"/></linearGradient><linearGradient id="paint2_linear" x1="33.199" y1="11.194" x2="33.332" y2="11.95" gradientUnits="userSpaceOnUse"><stop stop-color="#fff"/><stop offset="1" stop-color="gray"/></linearGradient><linearGradient id="paint3_linear" x1="33.199" y1="11.194" x2="33.332" y2="11.95" gradientUnits="userSpaceOnUse"><stop stop-color="#fff"/><stop offset="1" stop-color="#fff"/></linearGradient><clipPath id="clip0"><path fill="#fff" transform="translate(0 7.2)" d="M0 0h73v58.505H0z"/></clipPath></defs></svg>