<svg width="1600" height="503" fill="none" xmlns="http://www.w3.org/2000/svg" viewBox="0 0 1600 503"><mask id="a" maskUnits="userSpaceOnUse" x="0" y="0" width="1600" height="503"><path d="M1600 0H0v503h1600V0z" fill="#F5FCFF"/></mask><g mask="url(#a)"><path d="M1761 0H-161v600h1922V0z" fill="#F5FCFF"/><g opacity=".2"><path d="M1662.39 466.381H1119l61.06-9.582 98.14-.249 18.04-2.174s15.92-.293 21.23 1.248c5.31 1.55 57.68-1.005 57.68-1.005s21.42-2.445 25.4-2.754c3.99-.308 34.84-3.458 49.64-2.504 14.81.955 30.37-.763 43.28.72s41.23-.925 50.42-1.902c9.18-.976 53.95 3.437 58.5 4.274 4.54.844 25.83 5.851 35.38 7.643 9.56 1.791 24.62 6.285 24.62 6.285z" fill="#8BB984"/><path d="M1482.35 415.803h-18.71v57.805h18.71v-57.805zM1459.19 387.977h-16.45v85.632h16.45v-85.632z" fill="#8ED7F5"/><path d="M1455.38 424.269h-31.6v49.34h31.6v-49.34z" fill="#8ED7F5"/><path d="M1469.51 441.853h-18.54v31.755h18.54v-31.755zM1431.91 404.15h-12.33v69.466h12.33V404.15zM1411.82 362.946h-27.46v110.663h27.46V362.946zM1371.73 321h-16.41v152.616h16.41V321zM1351.79 352.887h-20.02v120.729h20.02V352.887z" fill="#8ED7F5"/><path d="M1423.78 430.951h-29.23v42.659h29.23v-42.659zM1382.04 397.903h-16.11v75.714h16.11v-75.714z" fill="#8ED7F5"/><path d="M1387.85 449.725h-11.76v23.884h11.76v-23.884zM1488.23 449.725h-11.77v23.884h11.77v-23.884zM1371.74 425.833h-23.46v47.776h23.46v-47.776zM1334.3 409.651h-51.96v63.959h51.96v-63.959zM1185.98 463.257H1134v10.352h51.98v-10.352zM1282.33 446.509h-9.51v27.107h9.51v-27.107z" fill="#8ED7F5"/><path d="M1277.58 403.328h-33.92v70.28h33.92v-70.28z" fill="#8ED7F5"/><path d="M1249.38 353.254h-18.79v120.362h18.79V353.254z" fill="#8ED7F5"/><path d="M1238.6 429.57h-25.35v44.047h25.35V429.57z" fill="#8ED7F5"/><path d="M1219.59 396.441h-14.58v77.168h14.58v-77.168z" fill="#8ED7F5"/><path d="M1208.17 374.048h-34.86v99.561h34.86v-99.561zM1325.43 341.853h-10.77v131.756h10.77V341.853zM1295.3 431.192h-9.01v42.417h9.01v-42.417zM1597.76 387.978h-16.45v85.632h16.45v-85.632z" fill="#8ED7F5"/><path d="M1593.95 424.27h-31.59v49.34h31.59v-49.34z" fill="#8ED7F5"/><path d="M1608.08 441.854h-18.54v31.755h18.54v-31.755zM1570.49 404.151h-12.33v69.465h12.33v-69.465zM1550.4 362.947h-27.47V473.61h27.47V362.947zM1510.31 343.82h-16.42v129.789h16.42V343.82zM1490.36 352.888h-20.02v120.728h20.02V352.888z" fill="#8ED7F5"/><path d="M1562.36 430.951h-29.23v42.659h29.23v-42.659zM1520.62 397.903h-16.11v75.714h16.11v-75.714z" fill="#8ED7F5"/><path d="M1526.43 449.725h-11.76v23.884h11.76v-23.884zM1510.31 425.833h-23.45v47.776h23.45v-47.776zM1472.88 409.651h-51.97v63.959h51.97v-63.959zM1324.55 409.651h-51.98v63.959h51.98v-63.959zM1420.91 446.509h-9.51v27.107h9.51v-27.107z" fill="#8ED7F5"/><path d="M1416.16 403.329h-33.92v70.28h33.92v-70.28z" fill="#8ED7F5"/><path d="M1387.94 367.859h-10.77V473.61h10.77V367.859zM1377.17 429.57h-25.35v44.047h25.35V429.57z" fill="#8ED7F5"/><path d="M1358.16 396.442h-14.58v77.168h14.58v-77.168z" fill="#8ED7F5"/><path d="M1346.75 374.048h-34.86v99.561h34.86v-99.561zM1464.01 341.853h-10.77v131.756h10.77V341.853zM1433.88 431.193h-9.01v42.417h9.01v-42.417z" fill="#8ED7F5"/><path d="M1182.8 436.318h-23.12v44.634h23.12v-44.634zM1208.65 418.366h-20.33v62.586h20.33v-62.586z" fill="#5AC8F5"/><path d="M1232.09 441.781h-39.06v39.171h39.06v-39.171z" fill="#5AC8F5"/><path d="M1198.49 453.125h-22.93v27.827h22.93v-27.827zM1237.28 428.8h-15.24v52.152h15.24V428.8zM1280.84 402.221h-33.96v78.731h33.96v-78.731zM1316.74 356.721h-20.3v124.231h20.3V356.721zM1345.86 406.354h-24.75v74.604h24.75v-74.604z" fill="#5AC8F5"/><path d="M1268.24 446.09h-36.14v34.861h36.14V446.09zM1303.62 424.769h-19.93v56.183h19.93v-56.183z" fill="#5AC8F5"/><path d="M1291.06 458.198h-14.55v22.754h14.55v-22.754zM1166.95 458.198h-14.54v22.754h14.54v-22.754zM1325.43 442.786h-28.99v38.165h28.99v-38.165zM1406.99 432.347h-64.26v48.605h64.26v-48.605zM1602.22 448.286h-76.1v32.666h76.1v-32.666z" fill="#5AC8F5"/><path d="M1418.74 456.128h-11.76v24.831h11.76v-24.831z" fill="#5AC8F5"/><path d="M1454.79 428.271h-41.92v52.689h41.92v-52.689z" fill="#5AC8F5"/><path d="M1461.05 405.393h-13.32v75.566h13.32v-75.566zM1492.4 445.195h-31.35v35.757h31.35v-35.757z" fill="#5AC8F5"/><path d="M1502.59 423.829h-18.03v57.123h18.03v-57.123z" fill="#5AC8F5"/><path d="M1541.77 409.379h-43.1v71.572h43.1v-71.572zM1367.02 401.729h-13.33v79.23h13.33v-79.23zM1402.08 446.245h-11.14v34.707h11.14v-34.707z" fill="#5AC8F5"/><path d="M1309.45 343.596h-43.83v127.028h43.83V343.596zM1465.58 304.851h-52.65v165.773h52.65V304.851zM1396.69 283h-59.58v187.624h59.58V283z" fill="#14AFEB"/><path opacity=".3" d="M1670 470.205h-551v2.482h551v-2.482z" fill="#385A27"/></g><path d="M1888.94 450.9c-77.06-3-135.59 31.78-135.59 31.78s-43.66 15.82-63.81 17.26c-85.64 11.5-132.65-12.94-199.81-31.63-218.28-61.82-387.87 11.5-387.87 11.5l-3.36 103.52 790.45-1.43v-131h-.01z" fill="#009400"/><path d="M1300.36 452.6c-.6-.26-1.32-.57-2.18-.95-3.21-1.29-6.31-2.42-9.29-3.4-6.01-1.81-11.88-2.89-16.81-3.53-9.4.57-18.51 1.31-27.28 2.21 27.91 3.63 32.3 6.9 48.55 20.77 17.3 14.77 33.2 55.84 33.2 55.84s52.95 12.41 54.07-4.61c1.08-16.37-60.45-57.15-80.26-66.33z" fill="#fff"/><path d="M1255.46 446.01s26.92-4.3 55.85 17.84c25.65 19.64 42.5 34.84 52.36 41.48l-25.23 5.49s-17.28-22.69-27.24-32.72c-3.12-3.14-27.66-33.56-64.44-31.35l8.7-.74z" fill="#004EBB"/><path d="M1415.81 470.729c-216.75 52.77-899.71 133.4-934.81 137.53v137.87h1337.82v-278.42c-26.78-7.99-185.29-50-403.01 3.02z" fill="#00AD00"/><path d="M1368.76 481.17c12.26 3.92 33.34 9.19 65.55 25.06 69.51 34.24 35.41 63.53 35.41 63.53l119.59 37.13s49.1-42.53-9.3-86.81c-40.79-30.92-121.63-43.8-166.69-48.76-13.26 3.2-28.2 6.49-44.56 9.85z" fill="#fff"/><path d="M1377.24 479.41s143.75 29.14 125.32 81.07c0 0 65.71 8.66 80.34 9.29 0 0 27.78-66.39-180.84-95.8l-24.82 5.44z" fill="#004EBB"/><path d="M1567.42 542.766c-93.39-16.624-246.64-48.221-398.26-75.776-102.81-18.688-214.32-38-296.812-42.063-193.518-9.534-354.416 57.48-373.348 63.819V746h1384V561.898c-25 1.354-166.66 7.375-315.58-19.132z" fill="#009E00"/><path d="M1478.61 746.13c-5.6-24.74-30.78-159.45 75.34-196.21 0 0-89.4-16.26-147.05-27.87 0 0-292.75-38.4-628.69 224.08h700.4z" fill="#fff"/><path d="M-257.787 542.209v-96.487s207.174-70.687 669.621-48.363c-131.131-1.567-382.414 16.474-669.621 144.85z" fill="#00AD00"/><path d="M584.376 408.45l37.374 3.33c.043 0 .076.011.109.011-360.219 23.233 380.091 445.198 380.091 445.198H584.376c0 .011-374.164-453.775 0-448.539z" fill="#fff"/><path d="M497.809 400.728l86.566 7.722c-374.163-5.225 0 448.55 0 448.55h-749.762V640.787c114.202-144.303 440.269-253.926 663.196-240.059z" fill="#004EBB"/><path d="M621.859 411.791c198.688 22.816 488.581 181.118 789.271 193.123 321.21 12.815 557.09 17.12 557.09 17.12v234.965h-966.27c.01 0-740.299-421.975-380.091-445.208z" fill="#00AD00"/><path d="M397.684 394.299a4003.718 4003.718 0 0 1 97.853 5.845 439.57 439.57 0 0 0-10.481-.634 662.203 662.203 0 0 0-7.602-.345l-1.134-.043C223.3 389.259-132.272 530.686-259 715.68V534.055C22.658 410.193 269.086 392.787 397.684 394.299z" fill="#fff"/><path d="M1234.16 459.461c0 .46-3.59.83-8.02.83s-8.02-.37-8.02-.83c0-.46 3.59-.83 8.02-.83s8.02.37 8.02.83z" fill="#008B00"/><path d="M1216.73 448.4a3.763 3.763 0 0 1-1.53-3.03c0-1.36.71-2.54 1.78-3.2.04-2.57 2.04-4.67 4.58-4.75.6-.02 1.18.09 1.71.28.15-2.46 2.11-4.45 4.57-4.52 2.61-.07 4.78 2.03 4.85 4.7.03 1.09-.3 2.11-.88 2.93 0 .01.01.01.01.02 2.24.32 4 2.25 4.07 4.65.01.36-.02.72-.09 1.06.47.73.4 1.73-.23 2.41-.34.36-.78.57-1.23.63-.22 1.86-1.8 3.3-3.71 3.3a3.75 3.75 0 0 1-3.59-2.71c-.8.26-1.71.18-2.5-.29a4.624 4.624 0 0 1-5.29.75 1.699 1.699 0 0 1-3-1.09c.02-.43.2-.84.48-1.14z" fill="#73B400"/><path d="M1228.57 434.62c-2.17-.49-3.05-.06-4.45.63.83-1.21 2.18-2.02 3.73-2.06 2.61-.07 4.78 2.03 4.85 4.7.03 1.09-.3 2.11-.88 2.93 0 .01.01.01.01.02 2.24.32 4 2.25 4.07 4.65.01.24-.01.47-.03.7-.41-.91-2.32-4.28-5.06-3.66-1.67.38-2.02.32-2.93-.28-.33-.22-.01-.35 1.37-.78 3.01-.93 3.43-5.91-.68-6.85zM1225.27 438.61c.5.68-.07.73-1.4.37-.77-.21-2.24-.54-3.57-.43-.48.04-1.63.3-1.95.31a4.65 4.65 0 0 1 3.21-1.43c.6-.02 1.18.09 1.71.28.01 0 1.51.21 2 .9z" fill="#88BF26"/><path d="M1215.21 445.371c0-1.36.71-2.54 1.78-3.2.01-.44.08-.87.19-1.28.23.39.6.78 1.18.96 1.31.4.5 1.08.5 1.08s-1.74 3.01 1.12 4.73c1.21.73 3.01.88 4.52.52 1.81-.43 3.32-2.74 3.32-2.74s-.29 3.28 2.99 4.17c1.55.42 3.14-1.12 3.14-1.12s.23.09 1.1.11c.31.01.58.01.8.01-.07.13-.16.25-.26.36-.34.36-.78.57-1.23.63-.22 1.86-1.8 3.3-3.71 3.3a3.75 3.75 0 0 1-3.59-2.71c-.8.26-1.71.18-2.5-.29a4.624 4.624 0 0 1-5.29.75 1.699 1.699 0 1 1-2.54-2.25 3.754 3.754 0 0 1-1.52-3.03z" fill="#60A400"/><path d="M1225.28 453.181c-.01-.48-.02-.85.02-1.45-1.34-.46-2.12-4.17-2.12-4.17 1.01 2.17 1.82 3.28 2.24 3.4.05-.47.11-1.57.13-2.04.02-.41.05-.8.1-1.12.09-.51-.17-2.79.06-3 0 0 .42 3.33.6 2.96.55-1.16.85-1.33 1.51-2.32.08-.12-1.51 3.25-1.5 3.44.07.76.15 1.86.26 3.46.5-.28 1.26-.82 1.68-1.18-.29-.99.64-2.92.64-2.92-.03 1.04-.43 2.43-.24 2.56.41-.49 2.46-2.02 2.94-2.65 0 0-2.87 3.76-4.95 5.22.1 1.22.13 3.23.18 3.62.11.82.27 1.76.43 2.47h-2.43c.04-.35.13-.69.14-1.07.02-.75.04-3.4.12-3.92-3.03-1.5-5.57-5.13-5.57-5.13 2.2 2.13 4.86 3.76 5.76 3.84z" fill="#865040"/><path d="M1487.59 469.001c0 .54-4.23.98-9.46.98-5.22 0-9.46-.44-9.46-.98s4.23-.98 9.46-.98c5.23-.01 9.46.43 9.46.98z" fill="#008B00"/><path d="M1467.64 458.66a4.866 4.866 0 0 1-3.21-3c-.61-1.65-.27-3.41.74-4.69-1.1-3.15.39-6.61 3.44-7.83.73-.29 1.47-.42 2.21-.42-.92-3.07.58-6.36 3.54-7.55 3.14-1.26 6.72.33 8.01 3.54a6.3 6.3 0 0 1 .25 3.96c.01 0 .01.01.02.02 2.87-.62 5.88.95 7.04 3.83.18.44.29.88.37 1.33.9.68 1.27 1.93.8 3.04-.25.6-.69 1.05-1.22 1.32.56 2.37-.71 4.83-3.03 5.68-2.07.76-4.33.01-5.58-1.69-.86.68-2.01.99-3.17.77a5.991 5.991 0 0 1-3.14 2.9c-.97.39-1.99.51-2.97.38-.21.59-.67 1.1-1.31 1.33-1.14.42-2.41-.17-2.83-1.31-.2-.54-.17-1.11.04-1.61z" fill="#73B400"/><path d="M1475.87 436.58c-2.87.37-3.74 1.29-5.14 2.77.46-1.84 1.75-3.43 3.62-4.18 3.14-1.26 6.72.33 8.01 3.54a6.3 6.3 0 0 1 .25 3.96c.01 0 .01.01.02.02 2.87-.62 5.88.95 7.04 3.83.11.29.2.58.27.87-3.88-4.43-11.66-1.63-10.17-2.77 3.24-2.49 1.53-8.74-3.9-8.04zM1472.11 444.001c-1.03.1-2.97.35-4.53 1.07-.57.26-1.85 1.09-2.24 1.25.62-1.4 1.75-2.57 3.27-3.18.73-.29 1.47-.42 2.21-.42-.01 0 3.06 1.11 1.29 1.28z" fill="#88BF26"/><path d="M1464.42 455.66c-.61-1.65-.27-3.41.74-4.69 1.42.54 2.61.08 2.61.08s-.72 4.21 3.49 5.26c3.88.97 6.27-4.23 6.27-4.23s3.4 2.13 7.8 1.74c2.08-.18 2.11-2.49 3.02-3.86.91-1.36.61 1.08 1.68.72.38-.13.71-.25.97-.34-.03.19-.08.37-.16.55-.25.6-.69 1.05-1.22 1.32.56 2.37-.71 4.83-3.03 5.68-2.07.76-4.33.01-5.58-1.69-.86.68-2.01.99-3.17.77a5.991 5.991 0 0 1-3.14 2.9c-.97.39-1.99.51-2.97.38-.21.59-.67 1.1-1.31 1.33-1.14.42-2.41-.17-2.83-1.31-.2-.55-.17-1.12.04-1.61a4.909 4.909 0 0 1-3.21-3z" fill="#60A400"/><path d="M1477.14 460.841c-.02-.62-.02-1.1.03-1.88-1.74-.6-2.75-5.41-2.75-5.41 1.31 2.81 2.36 4.25 2.9 4.4.06-.61.14-2.04.17-2.64.03-.54.06-1.04.13-1.45.11-.66-.22-3.61.07-3.89 0 0 .55 4.32.78 3.84.72-1.5 1.11-1.73 1.96-3 .11-.16-1.96 4.22-1.94 4.46.09.99.2 2.42.33 4.49.65-.36 1.63-1.06 2.18-1.53-.38-1.28.83-3.79.83-3.79-.04 1.35-.55 3.15-.31 3.32.53-.63 3.19-2.62 3.82-3.44 0 0-3.72 4.88-6.42 6.76.13 1.58.17 4.19.24 4.7.14 1.06.35 2.28.56 3.2h-3.15c.05-.46.17-.89.18-1.39.02-.97.05-4.41.16-5.09-3.92-1.95-7.22-6.65-7.22-6.65 2.83 2.78 6.28 4.9 7.45 4.99z" fill="#865040"/></g><path d="M1356.13 278.187h-7.37V472.2h7.37V278.187z" fill="#5F6464"/><path d="M1403.27 304.605h-89.97a5.183 5.183 0 0 1-5.18-5.184v-24.237a5.183 5.183 0 0 1 5.18-5.184h89.97l21 16.957c.21.183.21.506 0 .689l-21 16.959z" fill="#fff"/><path d="M1402.8 302.683h-88.17c-2.53 0-4.59-2.063-4.59-4.608v-21.544c0-2.545 2.06-4.608 4.59-4.608h88.17l18.61 15.072c.18.164.18.45 0 .614l-18.61 15.074z" fill="#00AD00"/><path d="M1401.83 396.885h-75.55a5.19 5.19 0 0 1-5.19-5.184v-24.236a5.191 5.191 0 0 1 5.19-5.185h75.55l21 16.957c.21.184.21.506 0 .69l-21 16.958z" fill="#fff"/><path d="M1401.36 394.962h-73.75c-2.54 0-4.59-2.063-4.59-4.608V368.81c0-2.545 2.05-4.608 4.59-4.608h73.75l18.61 15.073c.18.163.18.449 0 .613l-18.61 15.074z" fill="#C74E10"/><path d="M1301.16 316.14h104.39c2.86 0 5.18 2.321 5.18 5.184v24.237a5.183 5.183 0 0 1-5.18 5.184h-104.39l-21.01-16.956a.472.472 0 0 1 0-.69l21.01-16.959z" fill="#fff"/><path d="M1301.63 318.063h102.58c2.54 0 4.6 2.063 4.6 4.608v21.544a4.604 4.604 0 0 1-4.6 4.608h-102.58l-18.61-15.072a.417.417 0 0 1 0-.614l18.61-15.074z" fill="#0047BB"/><path d="M1321.48 295.954l3.15-15.767h3.08l3.15 15.767h-2.67l-.62-3.641h-2.74l-.65 3.641h-2.7zm3.64-5.47h2.14l-1.07-6.619-1.07 6.619zM1332.37 295.954v-15.767h2.88v13.781h3.82v1.986h-6.7zM1339.77 295.954l3.15-15.767h3.07l3.16 15.767h-2.67l-.62-3.641h-2.75l-.64 3.641h-2.7zm3.64-5.47h2.14l-1.07-6.619-1.07 6.619zM1350.66 295.954v-15.767h3.87c.7 0 1.33.064 1.89.194.57.13 1.06.351 1.46.662.41.298.73.707.95 1.226.22.519.33 1.175.33 1.966 0 .636-.09 1.181-.27 1.635-.17.455-.42.818-.76 1.09-.34.26-.76.435-1.26.526.62.104 1.13.324 1.53.662.42.324.72.753.92 1.285.21.532.31 1.174.31 1.927 0 .752-.1 1.421-.29 2.005a3.55 3.55 0 0 1-.84 1.44c-.36.376-.82.662-1.38.857-.55.194-1.19.292-1.93.292h-4.53zm2.88-2.025h1.09c.87 0 1.46-.208 1.77-.623.31-.428.47-1.083.47-1.966 0-.636-.08-1.148-.24-1.538-.14-.402-.39-.7-.74-.895-.33-.195-.79-.292-1.36-.292h-.99v5.314zm0-7.299h.97c.57 0 1.01-.085 1.33-.253.31-.169.52-.429.64-.779.13-.35.19-.792.19-1.324 0-.558-.1-.986-.29-1.284-.18-.312-.46-.52-.84-.623-.37-.117-.85-.176-1.44-.176h-.56v4.439zM1360.68 295.954l3.15-15.767h3.07l3.16 15.767h-2.67l-.62-3.641h-2.75l-.64 3.641h-2.7zm3.64-5.47h2.14l-1.07-6.619-1.07 6.619zM1371.6 295.954l.28-15.767h2.98l2.23 10.92 2.34-10.92h2.88l.29 15.767h-2.14l-.23-10.96-2.24 10.96h-1.73l-2.28-10.998-.21 10.998h-2.17zM1384.13 295.954l3.16-15.767h3.07l3.16 15.767h-2.67l-.62-3.641h-2.75l-.64 3.641h-2.71zm3.64-5.47h2.14l-1.07-6.619-1.07 6.619zM1309.94 343.029c-1.15 0-2.06-.227-2.72-.681-.65-.454-1.1-1.071-1.36-1.849-.26-.792-.39-1.7-.39-2.725v-5.626c0-1.077.13-2.011.39-2.803.26-.791.71-1.401 1.36-1.83.66-.428 1.57-.642 2.72-.642 1.09 0 1.94.188 2.55.565.63.363 1.07.888 1.33 1.576.26.688.39 1.486.39 2.394v1.324h-2.77v-1.362c0-.442-.02-.844-.08-1.207-.03-.364-.16-.649-.37-.857-.19-.22-.53-.331-1.03-.331-.49 0-.85.117-1.09.351-.22.22-.36.525-.42.915-.07.376-.1.804-.1 1.284v6.852c0 .571.04 1.045.13 1.421.09.363.26.642.49.837.25.182.58.273.99.273.48 0 .82-.111 1.02-.331.2-.234.33-.539.38-.915.06-.377.08-.798.08-1.265v-1.421h2.77v1.265c0 .934-.13 1.765-.37 2.491a3.252 3.252 0 0 1-1.31 1.694c-.61.402-1.47.603-2.59.603zM1315.41 342.815l3.16-15.767h3.07l3.16 15.767h-2.67l-.62-3.64h-2.75l-.64 3.64h-2.71zm3.64-5.47h2.15l-1.07-6.618-1.08 6.618zM1326.31 342.815v-15.767h2.88v13.782h3.81v1.985h-6.69zM1334.5 342.815v-15.767h2.84v15.767h-2.84zM1339.78 342.815v-15.767h6.49v1.986h-3.61v4.594h2.94v2.004h-2.94v7.183h-2.88zM1352.11 343.029c-1.12 0-2.01-.207-2.67-.623-.66-.415-1.14-1.012-1.42-1.79-.29-.779-.43-1.7-.43-2.764v-5.898c0-1.065.14-1.973.43-2.726.28-.765.76-1.349 1.42-1.752.66-.402 1.55-.603 2.67-.603 1.14 0 2.03.201 2.68.603.67.403 1.14.987 1.42 1.752.3.753.45 1.661.45 2.726v5.917c0 1.051-.15 1.966-.45 2.745a3.476 3.476 0 0 1-1.42 1.79c-.65.416-1.54.623-2.68.623zm0-2.121c.48 0 .83-.104 1.05-.312.23-.207.39-.493.47-.856.07-.364.11-.759.11-1.188v-7.26c0-.442-.04-.837-.11-1.188-.08-.35-.24-.623-.47-.817-.22-.208-.57-.312-1.05-.312-.46 0-.8.104-1.03.312-.24.194-.39.467-.47.817-.08.351-.12.746-.12 1.188v7.26c0 .429.03.824.1 1.188.08.363.23.649.47.856.23.208.58.312 1.05.312zM1358.79 342.815v-15.767h3.78c1.06 0 1.96.13 2.69.39.74.246 1.29.674 1.67 1.284.39.61.58 1.441.58 2.492 0 .636-.05 1.207-.17 1.713-.12.506-.32.941-.61 1.304-.27.35-.65.623-1.14.818l2.2 7.766h-2.88l-1.91-7.221h-1.33v7.221h-2.88zm2.88-9.032h.9c.56 0 1-.078 1.32-.233.34-.169.58-.429.72-.779.15-.363.22-.824.22-1.382 0-.792-.15-1.382-.45-1.771-.29-.403-.84-.604-1.65-.604h-1.06v4.769zM1369.67 342.815v-15.767h2l3.84 8.993v-8.993h2.37v15.767h-1.91l-3.85-9.421v9.421h-2.45zM1380.35 342.815v-15.767h2.84v15.767h-2.84zM1384.84 342.815l3.15-15.767h3.07l3.16 15.767h-2.67l-.62-3.64h-2.75l-.64 3.64h-2.7zm3.64-5.47h2.14l-1.07-6.618-1.07 6.618zM1344.87 388.955v-14.15h-2.61v-2.2h8.16v2.2h-2.56v14.15h-2.99zM1351.91 388.955v-16.35h6.86v2.099h-3.87v4.703h3.04v2.08h-3.04v5.409h3.91v2.059h-6.9zM1359.51 388.955l3.29-8.68-3.19-7.67h2.79l2.12 5.066 1.86-5.066h2.58l-3.15 8.236 3.39 8.114h-2.78l-2.33-5.49-2.01 5.49h-2.57zM1369.79 388.955l3.27-16.35h3.19l3.27 16.35h-2.77l-.64-3.774h-2.85l-.67 3.774h-2.8zm3.77-5.672h2.22l-1.11-6.863-1.11 6.863zM1385.2 389.178c-.98 0-1.8-.189-2.46-.566-.66-.39-1.16-.955-1.5-1.695-.33-.741-.52-1.649-.56-2.726l2.56-.504c.03.632.1 1.191.23 1.675.13.485.32.862.58 1.131.27.255.62.383 1.05.383.48 0 .83-.141 1.03-.424.2-.296.3-.666.3-1.11 0-.713-.16-1.299-.48-1.756a8.12 8.12 0 0 0-1.29-1.373l-2.06-1.817a6.41 6.41 0 0 1-1.4-1.655c-.33-.619-.5-1.379-.5-2.281 0-1.292.38-2.288 1.13-2.987.75-.7 1.78-1.05 3.09-1.05.77 0 1.4.121 1.92.363.51.229.91.552 1.21.969.31.417.54.895.68 1.433.15.525.25 1.084.29 1.676l-2.55.444a6.855 6.855 0 0 0-.18-1.373c-.08-.403-.23-.72-.46-.948-.22-.229-.54-.344-.97-.344-.45 0-.79.148-1.03.444-.23.283-.34.64-.34 1.07 0 .552.11 1.01.34 1.373.23.35.56.713.99 1.09l2.04 1.797a8.19 8.19 0 0 1 1.71 1.998c.49.754.73 1.669.73 2.745 0 .781-.18 1.474-.53 2.08a3.617 3.617 0 0 1-1.43 1.433c-.6.336-1.32.505-2.14.505z" fill="#fff"/><path d="M297.712 473.777c65.563 0 118.713-4.016 118.713-8.97 0-4.954-53.15-8.97-118.713-8.97-65.563 0-118.712 4.016-118.712 8.97 0 4.954 53.149 8.97 118.712 8.97z" fill="#0032A5"/><path opacity=".7" d="M380.787 358.731v-7.155l-14.277-25.939-5.709-7.068-11.018-3.029H245.527l-10.239 2.451-4.616 3.028-9.228 15.437-7.811 14.998 1.323 8.155 165.831-.878z" fill="#5BC4F1"/><path d="M251.524 352.036h-13.745c-4.247 0-7.719-3.474-7.719-7.722s3.472-7.721 7.719-7.721h13.745c4.247 0 7.72 3.473 7.72 7.721s-3.473 7.722-7.72 7.722z" fill="#0082C8"/><path d="M257.181 364.359h-25.053c-4.246 0-7.719-3.474-7.719-7.721 0-4.248 3.473-7.722 7.719-7.722h25.053c4.247 0 7.72 3.474 7.72 7.722 0 4.247-3.473 7.721-7.72 7.721z" fill="#0082C8"/><path d="M322.731 355.879h-55.145c-4.246 0-7.719-3.474-7.719-7.722s3.473-7.721 7.719-7.721h55.145c4.246 0 7.719 3.473 7.719 7.721s-3.473 7.722-7.719 7.722z" fill="#0082C8"/><path d="M328.387 368.2h-66.451c-4.247 0-7.719-3.474-7.719-7.722s3.472-7.721 7.719-7.721h66.451c4.247 0 7.72 3.473 7.72 7.721s-3.473 7.722-7.72 7.722z" fill="#0082C8"/><path d="M367.318 375.684H226.649c-8.99 0-16.339-6.288-16.339-13.969 0-7.681 7.355-13.969 16.339-13.969h140.675c8.99 0 16.339 6.288 16.339 13.969 0 7.681-7.355 13.969-16.345 13.969z" fill="#0082C8"/><path d="M353.826 352.036h-13.745c-4.247 0-7.72-3.474-7.72-7.722s3.473-7.721 7.72-7.721h13.745c4.247 0 7.719 3.473 7.719 7.721s-3.472 7.722-7.719 7.722z" fill="#0082C8"/><path d="M359.483 364.359H334.43c-4.247 0-7.719-3.474-7.719-7.721 0-4.248 3.472-7.722 7.719-7.722h25.053c4.247 0 7.719 3.474 7.719 7.722 0 4.247-3.478 7.721-7.719 7.721z" fill="#0082C8"/><path d="M242.842 339.841h6.933v10.825h-6.933v-10.825z" fill="#A96644"/><path d="M242.842 344.667v-4.826h6.933v5.826c-1.352.167-4.397.306-6.933-1z" fill="#914627"/><path d="M254.502 330.434s.762-.994.762-2.306c0 0 3.299.127 2.751-2.538-.549-2.664-2.624-1.693-2.664-3.467-.04-1.775-2.941-3.803-5.044-2.283-2.103 1.52-6.922-3.803-7.09 1.693 0 0-3.253-1.988-3.848.59-.589 2.577-3.761 1.52-3.553 4.906 0 0 .341 1.099-.971 1.266 0 0 .59 1.017 1.144.804l1.341 4.115 8.227 4.594 8.945-7.374z" fill="#332A27"/><path d="M235.815 327.634c.099-.312.006-.606.006-.606-.081-1.295.335-1.942.913-2.387 1.612 1.069 4.749 2.612 8.407 1.525 3.524-1.04 5.547-4.571 6.517-6.848 1.809-.185 3.658 1.387 3.687 2.803.005.242.052.433.127.595-7.679 6.444-15.762 5.785-19.657 4.918z" fill="#4C423F"/><path d="M238.901 333.265l1.04.878c.22-.52.064-1.34.208-1.89.058-.225.11-.468.156-.722 1.185-.803 1.838-3.057 1.647-5.011-.214-2.196 2.958-.676 2.958-.676.041-1.225 3.594-3.381 3.508-.717-.087 2.665 1.606 2.116 2.796 2.537 1.19.422.474 2.191.474 2.191 1.693-.237 2.155-1.676 2.155-1.676.196.023.445.011.636-.046 0 4.022.491 10.241-1.849 13.691-.827 1.214-1.867 2.237-3.612 2.509-7.609 1.19-9.568-6.254-9.568-6.254s-2.386.636-2.871-2.878c-.399-2.919 2.322-1.936 2.322-1.936z" fill="#A96644"/><path d="M242.541 326.941c.029 1.144-.393 3.785-2.242 4.589 1.185-.804 1.838-3.058 1.647-5.011-.214-2.197 2.958-.677 2.958-.677s-2.392-.04-2.363 1.099zM251.214 330.433s.329-2.266-.878-2.15c-1.202.11-3.149-.422-2.953-2.144.197-1.717-1.889-1.243-2.479-.295.041-1.225 3.594-3.381 3.508-.717-.087 2.665 1.606 2.116 2.796 2.537 1.19.422.474 2.191.474 2.191 1.693-.237 2.155-1.676 2.155-1.676.196.023.445.011.636-.046.005 0-.671 2.225-3.259 2.3z" fill="#914627"/><path d="M250.342 334.182c.006.653.405 1.156.89 1.116.485-.041.872-.601.867-1.254-.006-.654-.405-1.156-.89-1.116-.491.035-.878.601-.867 1.254zM243.686 333.994c.006.653.404 1.156.89 1.115.485-.04.872-.601.866-1.254-.005-.653-.404-1.156-.89-1.115-.485.034-.872.595-.866 1.254z" fill="#502F26"/><path d="M247.979 337.897c1.473.595 2.265-.098 2.323-.792.04-.451-.22-.855-.653-1.029-.896-.352-1.531-1.728-1.537-1.745-.006.318.318 1.509 1.456 2.173.248.145.398.295.381.52-.035.388-.595.971-1.97.873z" fill="#914627"/><path d="M253.328 330.81l.064-.445c-.099-.006-1.612-.422-3.398-.272l-.017.694c1.462-.214 3.328.017 3.351.023zM242.53 331.037c1.19-.462 3.397-.549 3.42-.555l-.144-.635c-.087.017-2.086.086-3.421.803l.145.387z" fill="#332A27"/><path d="M240.028 337.199c.648 1.884 3.057 6.537 8.257 6.253 2.814-.156 4.241-2.011 5.183-3.305a7.483 7.483 0 0 1-.838 1.676c-.826 1.213-1.866 2.236-3.611 2.508-7.61 1.191-9.568-6.254-9.568-6.254s-1.826.509-2.635-1.814c1.421 2.358 3.212.936 3.212.936z" fill="#914627"/><path d="M245.424 338.924s2.768.566 5.345 0c0 0-.457 2.369-2.67 2.364-2.097 0-2.652-1.902-2.675-2.364z" fill="#722626"/><path d="M248.148 340.054c1.705 0 2.202-.705 2.415-1.092-1.999.393-3.611.156-5.015-.018.156.434.994 1.11 2.6 1.11z" fill="#fff"/><path d="M260.902 350.867s-4.287-1.647-9.094-2.699c0 0-2.762 2.826-5.911 2.699-3.426-.144-4.709-2.607-4.709-2.607-2.19.347-5.737 1.231-7.921 2.249 0 0-1.3 5.779-.012 35.827 0 0 8.505 2.988 24.175 0 0 0 .179-13.611 2.213-21.841.006 0 .618-8.455 1.259-13.628z" fill="#FFD07D"/><path opacity=".2" d="M242.98 354.71l2.727-2.681 1.774 3.508s4.576-2.815 5.183-7.173a41.273 41.273 0 0 0-.855-.196c-3.866 2.849-7.327 4.242-10.62.087-.162.023-.329.052-.508.086 0 .006-.405 2.757 2.299 6.369z" fill="#000"/><path d="M243.193 346.543s.364 2.815 2.582 3.798c0 0 4.056-1.139 4.351-3.838l2.392 1.826s-1.514 4.503-4.715 5.693l-1.999-3.051-2.715 2.514s-2.624-3.185-2.404-5.15l2.508-1.792z" fill="#FFD07D"/><path d="M260.369 382.756l-1.513-1.064-1.139.232c-1.074-.347-1.554-1.058-2.091-1.139-.538-.081-1.381-.647-1.381-.647-.497.751.474 1.56.474 1.56-.076-.017-.151-.029-.226-.046-.185-.035-.37-.075-.554-.11-.237-.046-.474-.098-.705-.144-.226-.047-.457-.099-.682-.139-.179-.029-.353-.064-.532-.075a2.244 2.244 0 0 0-.549.069c-.231.046-1.433.474-1.635.52-.092.023-.289.064-.289.064-.086.231-.104.48.012.688.208.375.751.37 1.034.318.208-.035.486-.133.688-.209.173-.063.127-.098.427-.063.174.017.347.081.52.115.376.081.751.168 1.127.261.087.017.168.04.254.057 0 0-1.814.336-2.38.492-.422.121-1.612 1.265-1.612 1.265-.861.821.485 1.139.485 1.139-.069.075-.162.208-.162.324 0 .098.07.173.122.231.104.104.237.15.364.19.237.076.491.11.739.041a1.2 1.2 0 0 0 .202-.069l.197-.087c.081-.041.162-.081.243-.127a6.39 6.39 0 0 0 .722-.451c.029-.023.092-.093.127-.093l1.41-.08c-.474.26-.965 1.121-1.607 1.514a1.231 1.231 0 0 0-.277.214c-.075.081-.162.202-.144.329.017.121.127.156.213.191.272.11.567.104.856.034.15-.034.294-.092.433-.167a2.037 2.037 0 0 0 .416-.295c.855-.954 1.808-1.427 3.028-.797 1.762.907 3.137-1.717 3.137-1.717l.248-2.329z" fill="#A96644"/><path d="M260.902 350.869s3.391.208 12.104 16.749c0 0 3.617 6.768-12.179 17.871 0 0-3.08-.931-3.08-4.329l7.806-10.299-5.778-6.369c0 .005-1.935-9.392 1.127-13.623z" fill="#FFD07D"/><path d="M233.803 382.383l1.514-1.064 1.138.232c1.074-.347 1.554-1.058 2.091-1.139.538-.081 1.381-.647 1.381-.647.497.751-.473 1.56-.473 1.56.075-.017.15-.029.225-.046.185-.035.37-.075.555-.11.236-.046.473-.098.704-.144.226-.047.457-.099.682-.139.179-.029.353-.064.532-.075.185-.006.364.029.549.069.231.046 1.433.474 1.635.52.092.023.289.064.289.064.086.231.104.48-.012.688-.208.375-.751.37-1.034.317a4.142 4.142 0 0 1-.688-.208c-.173-.063-.127-.098-.427-.063-.174.017-.347.081-.52.115a38.16 38.16 0 0 0-1.127.261c-.087.017-.167.04-.254.057 0 0 1.814.336 2.38.492.422.121 1.612 1.265 1.612 1.265.861.821-.485 1.139-.485 1.139.069.075.162.208.162.324 0 .098-.07.173-.122.231-.104.104-.236.15-.364.19-.236.076-.491.11-.739.041a1.232 1.232 0 0 1-.202-.069l-.197-.087c-.081-.041-.162-.081-.242-.127a6.315 6.315 0 0 1-.723-.451c-.029-.023-.092-.093-.127-.093l-1.41-.08c.474.26.965 1.121 1.607 1.514.098.058.196.127.277.214.075.081.162.202.144.329-.017.121-.127.156-.213.191-.272.11-.567.104-.855.034a1.974 1.974 0 0 1-.85-.462c-.855-.954-1.808-1.427-3.027-.798-1.763.908-3.138-1.716-3.138-1.716l-.248-2.329z" fill="#A96644"/><path d="M233.266 350.502s-3.391.208-12.104 16.749c0 0-3.617 6.768 12.179 17.871 0 0 3.08-.931 3.08-4.329l-7.806-10.3 5.778-6.369s1.941-9.391-1.127-13.622z" fill="#FFD07D"/><path d="M346.133 320.448s-10.568-1.948-11.92 9.981c-1.288 11.363-2.565 22.633-2.299 30.753 0 0 10.464 3.382 22.528 0 0 0-.312-15.691.699-26.603.89-9.565-3.028-14.553-9.008-14.131z" fill="url(#paint0_linear)"/><path d="M335.692 325.308c1.144-2.15 2.762-3.392 4.38-4.098 1.248 1.919 3.022 3.468 6.616 3.451 2.594-.012 3.201-2.006 3.264-3.624 1.404.595 2.583 1.624 3.467 3.069-5.408 4.202-13.266 2.63-17.727 1.202z" fill="#994A3D"/><path d="M336.35 348.717s-2.878.508-4.484 15.957l5.622.607c.006.006 4.75-15.767-1.138-16.564z" fill="#BDC7D6"/><path d="M351.949 374.165s7.298 6.988 8.846 36.14c0 0-14.057 3.89-32.234 0 0 0 3.154-29.984 8.632-36.406l14.756.266z" fill="#A52923"/><path d="M338.903 348.188s6.703-1.502 12.908 0c0 0-1.046 6.849-8.95 6.913-7.91.063-3.958-6.913-3.958-6.913z" fill="#D17462"/><path d="M351.672 347.909s-7.031 6.658-8.724 6.641c-1.693-.017-3.727-6.641-3.727-6.641-2.594.694-2.866.815-2.866.815l-.502 4.664c-2.652 3.393-2.629 4.346-2.629 5.843 0 2.601 2.299 4.191 2.299 4.191l1.676 10.547c8.817 3.428 14.751.197 14.751.197.976-6.664 3.495-15.206 3.495-15.206v-9.895c-1.346-.618-2.397-.763-3.773-1.156z" fill="#D7E4F7"/><path d="M343.151 345.386l-.017 4.185 5.119.017.023-5.444c-2.126 1.392-4.252 1.352-5.125 1.242z" fill="#D17462"/><path d="M348.283 344.142l.018-4.196-5.12-.017-.023 5.456c.873.109 2.999.15 5.125-1.243z" fill="#BA5F50"/><path opacity=".1" d="M333.716 360.168s.67.566 2.126.693c2.935.254 9.112.78 13.359.098 1.779-.289 2.08-1.184 3.42-2.236 0 0 .214 4.571-5.368 4.479-5.587-.098-13.185.589-13.537-3.034z" fill="#000"/><path d="M354.561 333.737c.029 4.791-1.277 8.9-1.409 12.472-.284 7.669 2.166 10.68 2.646 13.472 0 0-2.733.694-5.241.225 0 0-2.051-8.276-1.722-13.137.33-4.86 2.514-12.507 2.514-12.507s1.04-9.507-6.125-11.102l-.023-1.503c.595-.052 9.279-.589 9.36 12.08z" fill="#7C3425"/><path d="M336.323 332.579l.133.046s.942.618 1.104-1.115c.803-7.404 7.621-8.358 7.621-8.358 6.968.734 6.725 5.387 6.604 8.433.041 1.71-.219 3.265-.127 4.999.243 4.323-3.403 7.138-6.645 7.132-6.222-.006-7.8-5.531-7.8-5.531s-2.894.491-3.264-3.393c-.289-3.173 2.374-2.213 2.374-2.213z" fill="#D17462"/><g opacity=".9" fill="#D15D54"><path opacity=".091" d="M348.782 334.563a2.633 2.633 0 0 0 .976 5.172 2.633 2.633 0 0 0 2.098-3.074 2.633 2.633 0 0 0-3.074-2.098z"/><path opacity=".182" d="M348.831 334.813a2.381 2.381 0 0 0-1.895 2.78 2.38 2.38 0 0 0 2.779 1.895 2.382 2.382 0 0 0 1.895-2.78 2.37 2.37 0 0 0-2.779-1.895z"/><path opacity=".273" d="M348.875 335.061a2.13 2.13 0 0 0-1.693 2.486 2.124 2.124 0 0 0 2.485 1.693 2.125 2.125 0 0 0 1.693-2.485 2.124 2.124 0 0 0-2.485-1.694z"/><path opacity=".364" d="M348.932 335.309a1.87 1.87 0 1 0 2.184 1.491 1.866 1.866 0 0 0-2.184-1.491z"/><path opacity=".455" d="M348.978 335.557a1.616 1.616 0 0 0-1.288 1.89 1.617 1.617 0 1 0 1.288-1.89z"/><path opacity=".545" d="M349.02 335.807a1.366 1.366 0 0 0 .509 2.682 1.366 1.366 0 0 0-.509-2.682z"/><path opacity=".636" d="M349.069 336.054a1.112 1.112 0 1 0 .416 2.185 1.112 1.112 0 0 0-.416-2.185z"/><path opacity=".727" d="M349.116 336.302a.857.857 0 0 0-.682 1 .858.858 0 0 0 .999.682.858.858 0 0 0 .682-1 .854.854 0 0 0-.999-.682z"/><path opacity=".818" d="M349.162 336.553a.601.601 0 0 0-.48.705.6.6 0 0 0 .705.48.6.6 0 0 0 .48-.705.606.606 0 0 0-.705-.48z"/><path opacity=".909" d="M349.213 336.802a.346.346 0 0 0-.278.411.35.35 0 0 0 .411.278.346.346 0 0 0 .278-.411.357.357 0 0 0-.411-.278z"/><path opacity=".9" d="M349.178 337.167a.1.1 0 0 0 .118.077.098.098 0 0 0 .077-.118.1.1 0 0 0-.118-.077.1.1 0 0 0-.077.118z"/></g><g opacity=".636" fill="#D15D54"><path opacity=".091" d="M340.435 334.375a2.818 2.818 0 0 0-2.247 3.294 2.819 2.819 0 1 0 5.541-1.046 2.818 2.818 0 0 0-3.294-2.248z"/><path opacity=".182" d="M340.488 334.643a2.547 2.547 0 1 0 .949 5.005 2.547 2.547 0 0 0-.949-5.005z"/><path opacity=".273" d="M340.537 334.911a2.277 2.277 0 0 0-1.814 2.658 2.28 2.28 0 0 0 2.658 1.815 2.276 2.276 0 1 0-.844-4.473z"/><path opacity=".364" d="M340.585 335.172a2.003 2.003 0 1 0 .746 3.936 2.003 2.003 0 0 0-.746-3.936z"/><path opacity=".455" d="M340.637 335.438a1.733 1.733 0 1 0 .644 3.405 1.733 1.733 0 0 0-.644-3.405z"/><path opacity=".545" d="M340.692 335.712a1.463 1.463 0 1 0 .55 2.873 1.463 1.463 0 0 0-.55-2.873z"/><path opacity=".636" d="M340.743 335.975a1.19 1.19 0 1 0 .443 2.34 1.19 1.19 0 0 0-.443-2.34z"/><path opacity=".727" d="M340.789 336.242a.922.922 0 0 0 .341 1.809.92.92 0 0 0-.341-1.809z"/><path opacity=".818" d="M340.842 336.507a.642.642 0 0 0-.514.757.642.642 0 0 0 .757.514.645.645 0 0 0 .514-.757.65.65 0 0 0-.757-.514z"/><path opacity=".909" d="M340.892 336.774a.384.384 0 0 0-.301.44.385.385 0 0 0 .44.302.384.384 0 0 0 .301-.441.383.383 0 0 0-.44-.301z"/><path opacity=".636" d="M340.856 337.162a.1.1 0 0 0 .122.082.102.102 0 0 0 .082-.123.102.102 0 0 0-.122-.082c-.053.012-.088.071-.082.123z"/></g><path d="M345.104 337.633c1.08.491 1.762.237 1.9-.492.093-.474-.184-1.011-.479-1.277-.607-.537-.878-2.115-.878-2.133-.047.336.023 1.659.762 2.572a.81.81 0 0 1 .208.619c-.046.543-.566.959-1.513.711z" fill="#BA5F50"/><path d="M349.022 332.846s.947.029 1.086-.329c0 0 .11.502-.468.664.179.226.289.549.283.908-.012.676-.433 1.219-.942 1.213-.508-.005-.912-.56-.901-1.242.012-.682.428-1.226.942-1.214zM341.922 332.729s.948.029 1.086-.33c0 0 .11.503-.468.665.179.225.289.549.283.907-.011.677-.433 1.22-.942 1.214-.508-.006-.912-.56-.901-1.242.012-.682.433-1.22.942-1.214z" fill="#502F26"/><path d="M337.696 336.876s.434 3.358 4.703 5.19c3.762 1.613 7.431-.884 8.246-1.497-1.277 1.988-3.531 3.156-5.617 3.15-6.222-.006-7.8-5.531-7.8-5.531s-1.82.329-2.773-1.526c1.797 1.699 3.241.214 3.241.214z" fill="#BA5F50"/><path d="M347.399 330.942s1.525-.41 3.611.197c0 0 .011-.156-.382-.492-.369-.312-1.739-.653-2.917-.173 0 .006-.613.329-.312.468zM343.909 330.855s-1.52-.439-3.611.128c0 0-.012-.156.387-.48.375-.306 1.75-.624 2.923-.121 0 0 .607.341.301.473z" fill="#7C3425"/><path d="M342.856 338.626s2.415.532 4.674.075c0 0-.433 2.069-2.369 2.035-1.825-.035-2.288-1.705-2.305-2.11z" fill="#B22828"/><path d="M345.227 339.655c1.491.023 1.936-.589 2.132-.919-1.756.318-3.16.093-4.385-.081.121.376.849.977 2.253 1z" fill="#fff"/><path d="M336.323 332.579l.133.046s.941.618 1.103-1.115c.803-7.404 7.621-8.358 7.621-8.358 6.206.653 6.697 4.416 6.639 7.387-.364-1.844-1.727-6.237-6.442-7.075 0 0-6.431 2.127-7.725 15.779a6.947 6.947 0 0 1-.439-1.052s-2.895.491-3.265-3.393c-.289-3.179 2.375-2.219 2.375-2.219z" fill="#BA5F50"/><path d="M333.94 334.053s.728-12.986 11.227-12.397c0 0 .011 0 .034-.006l.024 1.503c-.012 0-.024-.006-.029-.006 0 0-5.9.717-7.321 11.114-1.843 13.426 5.818 25.985 5.818 25.985s-4.16 0-5.523-.341c0 0-2.987-7.085-3.947-12.871-1.132-6.796-.283-12.981-.283-12.981z" fill="#7C3425"/><path d="M355.388 349.067s3.9 1.324 5.876 17.605l-5.859 1.74s-3.894-14.264-.017-19.345z" fill="#D7E4F7"/><path d="M361.259 366.673s.364 4.606-5.859 4.271c-5.697-.312-11.053-1.243-11.053-1.243l.393-3.161c.005 0 9.418-1.601 16.519.133z" fill="#D17462"/><path d="M336.366 367.304c.11-.295.462-.208.855-.121l-1.156-.405c-.265-.104-.554-.225-.444-.572.115-.364.421-.283.739-.202l-.786-.295c-.266-.104-.537-.249-.433-.63.087-.318.364-.289.682-.254l.676.092c-.387-.144-.67-.433-.601-.682.046-.162.266-.352.838-.3l3.686.213 1.311.243-.704-.676c-.596-.78-.116-1.133-.116-1.133.243-.191.676.168 1.294.549l2.005 1.428c.717.716 2.022 2.052 1.745 3.335-.289 1.335-.751 1.884-1.675 1.936 0 0-1.664-.041-2.577-.168s-1.971-.456-1.971-.456l-2.785-1.18c-.41-.208-.676-.456-.583-.722z" fill="#D17462"/><path d="M300.341 375.738c-1.266-.457-1.699 1.005-1.699 1.005s-.884 2.173-1 2.994c-.115.827.549 2.613.994 2.965 0 0 1.092.78 1.364 1.023 0 0 .473.017.179-.809 0 0 .866.474.762-.283 0 0 .503-.33.607-1.208 0 0-.214-1.052-.497-1.491 0 0 .578-1.526.272-2.468 0 0 .283-1.272-.982-1.728z" fill="#A96644"/><path d="M300.265 377.545s-.225 1.508-.491 2.352c0 0 .751 1.121.306 1.607 0 0-.583-.411-1.363-1.312 0 0 .433 1.491.514 1.716.087.226.624.584.936 1.017 0 0 .566-.196.607-.508 0 0 .508-.555.491-.942 0 0-.15-.856-.37-1.463 0 0 .763-1.502.37-2.531-.023-.064-.953.11-1 .064z" fill="#914627"/><path d="M301.726 360.122c1.364.116 2.866.179 4.322 1.185-.052 1.508-.716 3.658-.861 4.768 0 0-1.011 5.901-3.865 11.392 0 0-1.555-.116-2.531-1.07 0 0 1.456-8.802 2.097-11.062 0-.006.601-2.647.838-5.213z" fill="#A96644"/><path d="M302.409 353.979c1.306-4.132 3.005-4.976 3.005-4.976l1.144 7.756s-.064 2.451-.156 5.092c-1.433-.318-4.258-.838-5.645-1.393.687-2.687.988-4.375 1.652-6.479z" fill="#9B2A2A"/><path d="M319.967 416.894l3.508-.306-.301-4.225-3.507.307.3 4.224z" fill="#A96644"/><path d="M324.821 419.098h-6.258v1.017h6.258v-1.017z" fill="#C1C1C1"/><path d="M324.706 419.098s.399-1.017-.168-2l-.785-1.682s-.387.405-.734.243c-.364-.167-1.393-2.127-2.895.012 0 0-.445-.266-.699-.185l-.479 1.572s-.821 1.537-.289 2.04h6.049z" fill="#A52923"/><path d="M322.689 417.53a.158.158 0 0 1-.052-.012c-1.011-.387-2.04-.092-2.051-.087-.087.029-.179-.029-.203-.127-.023-.098.029-.196.116-.225.046-.012 1.138-.33 2.242.092a.19.19 0 0 1 .104.231c-.023.081-.087.128-.156.128z" fill="#fff"/><path d="M322.689 417.046c-.018 0-.035-.006-.052-.011-1.011-.388-2.04-.093-2.051-.087-.087.029-.179-.029-.203-.127-.023-.098.029-.197.116-.226.046-.011 1.138-.329 2.242.093a.19.19 0 0 1 .104.231c-.023.081-.087.127-.156.127z" fill="#fff"/><path d="M322.689 416.559c-.018 0-.035-.006-.052-.012-1.011-.387-2.04-.092-2.051-.086-.087.029-.179-.029-.203-.127-.023-.099.029-.197.116-.226.046-.011 1.138-.329 2.242.093a.19.19 0 0 1 .104.231c-.023.081-.087.127-.156.127z" fill="#fff"/><path d="M322.689 416.074c-.018 0-.035-.006-.052-.012-1.011-.387-2.04-.092-2.051-.087-.087.029-.179-.029-.203-.127-.023-.098.029-.196.116-.225.046-.012 1.138-.33 2.242.092a.19.19 0 0 1 .104.231c-.023.081-.087.128-.156.128z" fill="#fff"/><path d="M299.97 407.26h-3.721v4.057h3.721v-4.057z" fill="#A96644"/><path d="M300.409 409.96s.896 1.358.48 3.889h-12.324s-1-1.745 2.652-2.098c2.363-.225 4.466-2.381 4.466-2.381s.693.116.994.988c.329.971 2.288 1.162 2.993.122.445-.653.739-.52.739-.52z" fill="#A52923"/><path d="M300.982 413.853h-12.341v1.017h12.341v-1.017z" fill="#C1C1C1"/><path d="M293.245 412.617a.247.247 0 0 1-.214-.144 1.227 1.227 0 0 0-.763-.729.238.238 0 0 1-.167-.294.234.234 0 0 1 .277-.179 1.7 1.7 0 0 1 1.081 1.005.247.247 0 0 1-.214.341zM294.171 412.253a.245.245 0 0 1-.214-.145 1.228 1.228 0 0 0-.763-.728c-.121-.029-.196-.162-.167-.295a.234.234 0 0 1 .277-.179c.029.006.751.197 1.081 1.006a.247.247 0 0 1-.214.341zM294.857 411.768a.24.24 0 0 1-.214-.145 1.239 1.239 0 0 0-.762-.728.24.24 0 0 1-.168-.295.234.234 0 0 1 .277-.179c.029.006.752.196 1.081 1.006a.246.246 0 0 1-.121.317.166.166 0 0 1-.093.024zM295.551 411.281a.245.245 0 0 1-.214-.144 1.227 1.227 0 0 0-.763-.729.238.238 0 0 1-.167-.294.234.234 0 0 1 .277-.179c.029.005.751.202 1.08 1.005a.246.246 0 0 1-.121.318.187.187 0 0 1-.092.023z" fill="#fff"/><path d="M305.401 373.267l-.589 4.282s-8.516 10.531-9.227 13.01c-.711 2.491-.087 7.109.167 16.634 0 0 1.676 1.063 4.761.121 0 0 .284-13.582.902-15.05.618-1.468 11.111-12.276 11.111-12.276l1.837.041 4.732 33.226s2.294.613 4.542-.202l-2.936-39.792h-15.3v.006z" fill="#2E4056"/><path d="M305.334 377.237a.113.113 0 0 1-.104-.069.114.114 0 0 1 .058-.145c.017-.006 1.993-.838 2.282-3.069.006-.063.063-.104.127-.098.058.006.104.064.098.127-.312 2.364-2.398 3.242-2.421 3.248-.011.006-.029.006-.04.006zM313.828 379.984a.11.11 0 0 1-.11-.086c-.006-.023-.503-2.376-.555-5.595 0-.063.046-.11.11-.115.058 0 .11.046.115.109.052 3.196.549 5.526.549 5.549a.112.112 0 0 1-.086.133c-.012.005-.018.005-.023.005z" fill="#566C82"/><path d="M313.549 378.957h-.006a1.48 1.48 0 0 1-1.04-.532c-1.011-1.173-.791-3.884-.786-3.994.006-.063.058-.104.122-.104.063.006.104.058.098.122 0 .028-.22 2.727.734 3.831.237.278.537.434.884.457.063.006.11.058.104.116-.006.063-.052.104-.11.104zM320.726 377.935h-.011c-3.583-.364-4.49-3.433-4.502-3.462a.113.113 0 0 1 .076-.138.112.112 0 0 1 .138.075c.006.029.884 2.953 4.311 3.3a.107.107 0 0 1 .098.121c-.006.064-.052.104-.11.104z" fill="#566C82"/><path d="M295.574 406.474v1.219s2.704 1.237 5.241.093v-.867s-3.554.647-5.241-.445zM318.732 412.316l.237 1.248s3.484.48 5.004-.612v-.954c.006 0-3.132 1.11-5.241.318z" fill="#ABC2D8"/><path d="M311.982 346.416l-.075 2.705 4.484.121.098-3.519c-1.883.855-3.744.786-4.507.693z" fill="#A96644"/><path d="M316.495 345.719l.075-2.711-4.483-.121-.099 3.531c.763.087 2.624.156 4.507-.699z" fill="#914627"/><path d="M313.833 349.728c2.652 0 3.293-1.473 3.38-1.936-1.884-.381-3.75-.532-6.072-.219-.052.543.086 2.155 2.692 2.155z" fill="#A96644"/><path d="M323.187 349.781s-2.554-1.392-5.668-2.074a9.398 9.398 0 0 0-.399-.081c-.092.462-.589 1.866-3.241 1.866-2.606 0-2.693-1.496-2.635-2.034-.191.023-.387.052-.589.087-1.416.225-3.819.797-5.229 1.456 0 0-.197 7.352-.41 24.951 0 0 6.315 2.271 16.461.335.162-8.45.202-10.924.855-16.235-.017 0 .439-4.924.855-8.271z" fill="#B23232"/><path d="M305.814 332.703s-.544 1.226-.804 2.936c0 0-.982-2.936-1.398-4.935-.451-2.145.462-6.213 5.749-7.93 7.563-2.462 9.499.543 11.007 5.647-.006 0-10.03-3.832-14.554 4.282z" fill="#D0D6D8"/><path d="M307.189 323.79c-3.334 2.034-3.958 5.109-3.582 6.912.416 2 1.398 4.936 1.398 4.936.26-1.711.803-2.936.803-2.936.613-1.092 1.329-1.971 2.121-2.67a9.1 9.1 0 0 1-.74-6.242z" fill="#AAB6BA"/><path d="M305.813 332.703s3.981-5.929 12.307-4.577c0 0 2.571.642 2.473 2.82 0 0 3.733-5.334 2.71-6.727-1.017-1.387-12.058-1.266-13.902.491-2.449 2.329-3.588 7.993-3.588 7.993z" fill="#C63939"/><path d="M322.621 329.521c-.15-.313-.243-.388-.295-.365.104-.543.197-1.531-.439-1.809-.358-.156-.566-.156-.716-.063.046-.197.04-.434-.318-.734-.289-.237-.445-.243-.56-.122a.593.593 0 0 0-.203-.566c-.52-.439-1.386-.41-2.761.41.213-.161.433-.433.04-.682-.624-.398-.924.162-1.034.272 0 0 .601-.653-.11-.844-.485-.133-.959.359-1.491.78.07-.127.006-.271-.329-.398-.861-.324-2.358.092-3.184 1.514a.82.82 0 0 0-.352-.208c-.977-.353-2.329 1.41-2.375 3.439 0 0-2.005 1.271-2.952 2.705 0 0-.653 1.554-.544 2.797l.804 2.41 14.751-2.37s.566-2.028.439-3.884c.011 0 2.022-1.462 1.629-2.282z" fill="#332A27"/><path d="M312.694 329.906c-1.583.572-3.825.653-3.825.653-1.242 3.104-2.842 4.907-3.657 5.687l.601 1.809 14.751-2.369s.566-2.069.439-3.919c-.451-4.913-6.726-2.433-8.309-1.861z" fill="#191514"/><path d="M307.049 336.374l.902.728c.19-.428-.093-1.63-.116-2.104-.138-2.554 1.225-4.277 1.225-4.277 5.293.665 7.038-1.08 8.644-.913 2.201.231 2.467 1.925 2.467 1.925.555 1.982.393 2.994.393 2.994.006 2.352.058 6.346-1.635 8.733-.711 1.005-1.612 1.849-3.126 2.074-6.587.989-8.274-5.178-8.274-5.178s-2.063.526-2.485-2.381c-.346-2.416 2.005-1.601 2.005-1.601z" fill="#A96644"/><path d="M309.249 331.346s2.277.937 7.702-1.196c0 0 1.612-.532 2.895.809-.324-.479-.948-1.034-2.138-1.161-1.606-.168-3.351 1.577-8.644.913 0 0-1.196 1.514-1.236 3.814.208-1.029.635-2.491 1.421-3.179zM308.031 339.624c.561 1.56 2.646 5.404 7.142 5.173 2.432-.127 3.669-1.665 4.483-2.734-.19.503-.427.971-.728 1.387-.71 1.006-1.612 1.85-3.126 2.075-6.586.988-8.274-5.179-8.274-5.179s-1.577.422-2.276-1.502c1.225 1.953 2.779.78 2.779.78z" fill="#914627"/><path d="M316.947 337.127c.006.543.347.953.769.924.416-.034.751-.497.751-1.04-.006-.543-.347-.953-.769-.925-.421.035-.757.497-.751 1.041zM311.193 336.969c.006.543.347.953.769.924.416-.034.751-.497.745-1.04-.006-.543-.353-.954-.769-.925-.416.029-.751.497-.745 1.041z" fill="#502F26"/><path d="M314.907 340.199c1.271.492 1.958-.08 2.01-.658.035-.376-.19-.711-.566-.85-.774-.289-1.323-1.433-1.329-1.445-.006.26.272 1.248 1.26 1.798.214.115.347.242.329.427-.029.33-.52.809-1.704.728z" fill="#914627"/><path d="M319.534 334.756l.058-.312c-.081-.006-1.398-.295-2.941-.191l-.012.491c1.26-.156 2.872.012 2.895.012zM310.145 334.794c1.069-.231 2.975-.127 2.993-.127l-.064-.457c-.075.006-1.803-.098-3.022.301l.093.283z" fill="#332A27"/><path d="M312.694 341.048s2.398.468 4.622 0c0 0-.392 1.959-2.311 1.959-1.808-.006-2.288-1.583-2.311-1.959z" fill="#722626"/><path d="M315.055 341.983c1.473 0 1.907-.583 2.091-.901-1.727.324-3.125.133-4.339-.012.133.353.855.913 2.248.913z" fill="#fff"/><path d="M322.691 370.93c-.347-.624-1-.699-1-.699l-.751.156c-.71-.231-1.022-.699-1.381-.751-.358-.052-.913-.428-.913-.428-.323.497.312 1.029.312 1.029-.052-.012-.098-.018-.15-.029-.121-.023-.242-.052-.364-.075-.156-.029-.312-.064-.468-.093-.15-.029-.3-.063-.451-.092a1.836 1.836 0 0 0-.352-.046 1.299 1.299 0 0 0-.364.046c-.15.029-.948.312-1.081.347-.063.011-.19.04-.19.04-.058.15-.07.318.006.457.138.248.496.242.681.213.139-.023.318-.086.457-.138.115-.041.087-.064.283-.046.116.011.225.052.341.075.248.057.497.109.745.167.058.012.116.029.168.041 0 0-1.196.219-1.572.323-.277.081-1.063.838-1.063.838-.566.544.324.752.324.752-.047.052-.104.138-.104.214 0 .063.046.115.08.15.07.069.157.098.243.127a.89.89 0 0 0 .491.029.942.942 0 0 0 .133-.046c.046-.018.087-.041.127-.058.052-.029.104-.058.162-.087.162-.092.324-.179.48-.295.017-.011.057-.057.081-.063l.93-.052c-.312.173-.636.74-1.063 1a.842.842 0 0 0-.185.144c-.052.052-.11.133-.098.22.011.081.086.104.144.127a.949.949 0 0 0 .566.023c.098-.023.197-.064.283-.11.07-.034.133-.081.197-.127.029-.023.052-.04.081-.069.566-.63 1.196-.942 1.999-.526 1.161.601 2.074-1.133 2.074-1.133s.514-.93.162-1.555z" fill="#A96644"/><path d="M329.156 358.391c.364.653 1.266 2.127 1.664 2.878 0 0 2.138 3.872-8.297 11.206 0 0-1.248-.635-.832-2.248l4.426-7.155-1.098-1.873c1.514-1.71 2.814-2.358 4.137-2.808z" fill="#A96644"/><path d="M323.186 349.783s1.815-.231 6.72 8.606c-.815.872-2.606 2.907-5.021 3.739l-2.791-3.439s-.93-6.115 1.092-8.906z" fill="#B23232"/><path d="M281.8 415.88c-.324 0-1.826-.012-2.098-.012-.832 0-1.508.965-1.508 2.121 0 1.162.676 2.121 1.508 2.121h1.971l.127-4.23z" fill="#1A2126"/><path d="M283.242 417.956c0-1.162-.606-2.046-1.444-2.046-.832 0-1.577.89-1.577 2.046 0 1.162.618 2.214 1.456 2.214.832-.006 1.565-1.058 1.565-2.214z" fill="#313C44"/><path d="M288.403 417.405h-1.191c-1.005-.509-1.017-1.156-1.017-1.156l-.751-.364-.901.381c-.098.856-.815.971-1.138 1.145h-1.254a.509.509 0 0 0 0 1.017h6.257a.51.51 0 0 0 .509-.509.519.519 0 0 0-.514-.514z" fill="#7A8A96"/><path d="M287.79 415.376h-4.732v.844h4.732v-.844z" fill="#616F77"/><path d="M289.242 415.879c-.323 0-1.826-.012-2.097-.012-.832 0-1.508.965-1.508 2.121 0 1.162.676 2.121 1.508 2.121h1.97l.127-4.23z" fill="#1A2126"/><path d="M290.68 417.959c0-1.162-.607-2.046-1.444-2.046-.832 0-1.578.89-1.578 2.046 0 1.162.618 2.214 1.456 2.214.838-.006 1.566-1.058 1.566-2.214z" fill="#313C44"/><path d="M305.471 415.88c-.324 0-1.826-.012-2.098-.012-.832 0-1.508.965-1.508 2.121 0 1.162.676 2.121 1.508 2.121h1.97l.128-4.23z" fill="#1A2126"/><path d="M306.916 417.956c0-1.162-.606-2.046-1.444-2.046-.832 0-1.577.89-1.577 2.046 0 1.162.618 2.214 1.456 2.214.832-.006 1.565-1.058 1.565-2.214z" fill="#313C44"/><path d="M312.076 417.405h-1.191c-1.005-.509-1.017-1.156-1.017-1.156l-.751-.364-.901.381c-.098.856-.815.971-1.138 1.145h-1.254a.51.51 0 0 0 0 1.017h6.257a.51.51 0 0 0 .509-.509.523.523 0 0 0-.514-.514z" fill="#7A8A96"/><path d="M311.463 415.376h-4.733v.844h4.733v-.844z" fill="#616F77"/><path d="M312.913 415.879c-.324 0-1.826-.012-2.097-.012-.832 0-1.508.965-1.508 2.121 0 1.162.676 2.121 1.508 2.121h1.97l.127-4.23z" fill="#1A2126"/><path d="M314.353 417.959c0-1.162-.607-2.046-1.445-2.046-.832 0-1.577.89-1.577 2.046 0 1.162.618 2.214 1.456 2.214.832-.006 1.566-1.058 1.566-2.214z" fill="#313C44"/><path d="M312.242 415.55h-32.801s-1.733-.058-2.831-1.156c-1.098-1.098.214-1.953 1.266-1.994.982-.04 5.049-.456 7.511 1.85.26.242.803.624 1.577.624h17.501s1.352-.058 2.479-.838c1.127-.78 5.859-2.578 8.06-.971 2.202 1.607-1.462 2.485-2.762 2.485z" fill="#A08650"/><path d="M279.043 413.049c-1.577.023-2.415.277-2.843.508 0 .249.122.538.416.838 1.098 1.098 2.831 1.156 2.831 1.156h7.506c-1.034 0-1.312-.202-2.196-.942-.895-.745-2.796-1.607-5.714-1.56z" fill="#A52923"/><path d="M312.751 414.873s2.253-.081 2.814-1.26a2.143 2.143 0 0 0-.561-.566c-2.195-1.607-6.933.197-8.06.977-1.005.699-2.19.82-2.432.838v.017h8.239v-.006z" fill="#313C44"/><path d="M309.793 322.957v-2.029a2.968 2.968 0 0 0-2.959-2.959h-7.794v-2.577c-1.791.005-3.992.034-6.488.081v2.496h-7.795a2.96 2.96 0 0 0-2.952 2.959v2.029a2.962 2.962 0 0 0 2.952 2.953h22.077a2.96 2.96 0 0 0 2.959-2.953z" fill="#0082C8"/><path d="M245.885 371.035c6.095 0 11.036-4.942 11.036-11.039 0-6.097-4.941-11.039-11.036-11.039-6.094 0-11.035 4.942-11.035 11.039 0 6.097 4.941 11.039 11.035 11.039z" stroke="#0082C8" stroke-width="3.43" stroke-miterlimit="10"/><path d="M237.912 350.98l-1.976-.983a.962.962 0 0 0-1.288.434l-.11.213a.96.96 0 0 0 .006.862.9.9 0 0 0-.665.479l-.11.214c-.156.312-.098.676.116.971a.954.954 0 0 0-.797.526l-.11.214a.952.952 0 0 0-.052.722.705.705 0 0 0-.312.214l-.127.145a.778.778 0 0 0 .075 1.098l1.346 1.179a.779.779 0 0 0 1.098-.075l.127-.145a.777.777 0 0 0 .04-.977l.226.11a.962.962 0 0 0 1.288-.433l.11-.214a.97.97 0 0 0 .035-.769c.496.151 1.011-.029 1.219-.445l.109-.214c.203-.404.047-.895-.335-1.202a.923.923 0 0 0 .422-.422l.11-.214a.977.977 0 0 0-.445-1.288zM253.055 350.332l1.976-.982a.962.962 0 0 1 1.288.433l.11.214a.959.959 0 0 1-.006.861.9.9 0 0 1 .665.48l.11.214c.156.312.098.676-.116.971a.954.954 0 0 1 .797.526l.11.213a.955.955 0 0 1 .052.723c.116.04.225.11.312.214l.127.144a.778.778 0 0 1-.075 1.098l-1.346 1.179a.777.777 0 0 1-1.098-.075l-.127-.144a.777.777 0 0 1-.041-.977l-.225.11a.962.962 0 0 1-1.288-.434l-.11-.214a.967.967 0 0 1-.035-.768c-.497.15-1.011-.029-1.219-.445l-.11-.214c-.202-.405-.046-.896.335-1.202a.93.93 0 0 1-.421-.422l-.11-.214a.973.973 0 0 1 .445-1.289z" fill="#A96644"/><path d="M278.927 418.807l-.902-1.815-2.646.364-.266 2.15 3.814.006v-.705z" fill="#D17462"/><path d="M266.564 398.656c1.485 5.195 4.952 8.605 9.008 19.234l2.426-.89s-2.773-10.392-6.095-18.893c0 0 .26-7.306 2.548-15.374-3.606-.965-5.085-1.289-7.182-1.665-1.439 5.612-1.393 15.172-.705 17.588z" fill="#D17462"/><path d="M267.274 381.062c-.196.768-.37 1.612-.508 2.502 1.04.838 3.281 2.277 6.8 2.682.254-1.145.549-2.324.89-3.52-3.605-.959-5.09-1.289-7.182-1.664z" fill="#BA5F50"/><path d="M279.538 421.963h-11.954v1.381h11.954v-1.381z" fill="#C1C1C1"/><path d="M267.602 421.963s-.815-2.259 2.733-2.583l.919 2.583h-3.652z" fill="#F2F2F2"/><path d="M270.364 419.375l4.727-1.601s.566-.168.988.947c0 0 1.75.948 2.86-.254 0 0 1.063-.092.601 1.751v1.752h-9.863l.687-2.595z" fill="#D6D8D8"/><path d="M278.91 418.468a1.808 1.808 0 0 1-1.398.607l.11.642s.71-.133 1.051-.393c0 0 .283.711.809.878.462-1.815-.572-1.734-.572-1.734zM273.276 421.966h-.768l-.612-1.543.658-.232.722 1.775zM274.657 421.966h-.768l-.769-1.965.705-.22.832 2.185zM276.033 421.965h-.762l-.884-2.347.687-.214.959 2.561z" fill="#3E4042"/><path d="M276.032 418.731l-5.275 1.803-.232-.641 4.38-1.48c.006 0 .786-.306 1.127.318z" fill="#CECECE"/><path d="M271.229 418.815l-.431.149.399 1.158.431-.148-.399-1.159zM272.149 418.509l-.431.148.399 1.159.431-.149-.399-1.158zM273.075 418.201l-.431.149.398 1.158.432-.149-.399-1.158zM274.144 417.897l-.432.149.399 1.158.431-.148-.398-1.159z" fill="#F2F2F2"/><path d="M277.056 382.915c.404 6.629 1.427 23.87 1.329 36.29h2.629s2.155-21.575 3.235-37.07c-2.871.115-4.975.358-7.193.78z" fill="#D17462"/><path d="M284.256 382.182c-2.872.115-4.981.346-7.194.768.058.919.122 2.046.197 3.329 1.999-.185 4.27-.705 6.824-1.71.057-.81.115-1.607.173-2.387z" fill="#BA5F50"/><path d="M277.888 419.506l.502-2.601h2.849l.312 2.537-3.663.064z" fill="#D17462"/><path d="M282.469 421.962h-5.211v1.381h5.217l-.006-1.381z" fill="#CECECE"/><path d="M279.732 417.621s-1.341-.006-1.243.838c0 0-1.23-.144-1.23 3.404l5.217.075s-.104-3.433-1.433-3.433c0 0 .202-.884-1.311-.884z" fill="#E5E5E5"/><path d="M278.781 418.343v2.144l-.612.023v-1.711s.306-.37.612-.456zM280.615 418.337v2.144l.613.023v-1.71s-.151-.37-.613-.457z" fill="#CECECE"/><path d="M281.077 418.951c-1.225-.549-2.605-.006-2.617 0l.012-.318c.052-.023 1.224-.613 2.605 0v.318z" fill="#F2F2F2"/><path d="M278.46 419.42l.012-.324c.04-.023 1.068-.601 2.6-.075v.318c-1.376-.474-2.6.075-2.612.081z" fill="#F2F2F2"/><path d="M277.257 421.964s-.231-2.63 2.606-2.63c2.837 0 2.606 2.63 2.606 2.63h-5.212z" fill="#F2F2F2"/><path d="M269.884 355.97s2.358-1.919.96-4.346c-1.399-2.428-1.988-4.046-.96-5.815 1.035-1.768-1.103-5.548-1.473-7.016-.37-1.468 1.988-6.433 1.843-8.45-.144-2.017 1.329-6.583 5.31-6.143 0 0 8.627-3.006 10.834 3.768 2.213 6.773 1.253 10.259 0 12.391-1.254 2.127-2.259 6.19-.948 8.756 1.317 2.566.075 5.098-2.068 6.352-2.15 1.254-9.002 2.653-13.498.503z" fill="url(#paint1_linear)"/><path d="M270.243 330.115c-.011-1.266.526-3.289 1.786-4.618 1.294 1.555 4.345 3.312 7.413 2.468 2.733-.751 3.085-2.797 3.033-4.023 1.387.451 2.669 1.353 3.496 2.994-5.322 4.04-12.041 3.751-15.728 3.179z" fill="#994A3D"/><path d="M287.738 352.556s-.093 3.884-.006 9.276c.087 5.392 1.202 4.785-.636 17.512h-2.403s-1.248-12.993-.306-17.489l-.908-8.502 4.259-.797z" fill="url(#paint2_linear)"/><path d="M284.613 378.982c.456-.966 1.184-.654 2.097-.22.913.433.798 1.335.682 2.098l-.445 1.306c-.456.965-1.138.919-2.051.48-.913-.434-1.502-1.104-1.046-2.075l.763-1.589z" fill="#BA5F50"/><path d="M284.56 381.247a.553.553 0 0 1 .15.249c.272 1.017 1.93 2.473 2.56 2.924.219.156.329.468.202.665-.133.196-.41.15-.624-.006-.266-.191-2.6-1.901-3.022-3.456-.069-.249.075-.48.324-.514a.49.49 0 0 1 .41.138z" fill="#BA5F50"/><path d="M285.013 380.939a.459.459 0 0 1 .173.174c.861 1.422 3.38 2.572 3.409 2.583.249.098.532.37.439.613-.092.243-.52.208-.768.11-.116-.047-2.866-1.133-3.9-2.844a.457.457 0 0 1 .161-.641.473.473 0 0 1 .486.005z" fill="#BA5F50"/><path d="M286.047 381.084a.587.587 0 0 1 .151.093c1.017.866 2.542 1.421 2.559 1.427.387.156.561.428.468.642-.063.138-.427.127-.682.057-.069-.017-1.762-.508-2.958-1.531-.202-.174-.225-.439-.052-.601.127-.133.335-.156.514-.087z" fill="#BA5F50"/><path d="M286.596 380.565c.046.011.098.011.133.046.612.607 2.103.983 2.114.983.266.029.422.173.399.422-.023.248-.22.202-.485.173a7.851 7.851 0 0 1-2.479-.786c-.237-.121-.329-.399-.202-.618.098-.18.312-.261.52-.22z" fill="#BA5F50"/><path d="M284.388 346.986s2.796 1.341 4.524 5.722c0 0-2.167 1.699-5.212 2.271-.006.006-.982-4.756.688-7.993z" fill="#86CF87"/><path d="M268.257 350.986s-1.219 12.843.404 14.993c0 0 3.571 4.675 12.648 6.802l.74-2.225s-6.709-4.525-10.233-6.722l-.364-11.882-3.195-.966z" fill="url(#paint3_linear)"/><path d="M286.807 373.93c.029-.202-.203-.26-.457-.335l.786.121c.185.023.387.041.427-.191.047-.248-.156-.294-.364-.346l.544.069c.185.017.387.023.445-.231.046-.208-.122-.278-.312-.353l-.422-.156c.271.035.52-.046.554-.208.024-.104-.046-.283-.387-.428l-2.19-1.011-.832-.26.613-.173c.583-.266.416-.619.416-.619-.081-.185-.439-.11-.913-.081l-1.589.203c-.635.19-1.791.56-2.028 1.387-.243.855-.144 1.317.37 1.629 0 0 .97.486 1.537.694a9.917 9.917 0 0 0 1.271.347l1.964.179c.312.006.544-.058.567-.237z" fill="#D17462"/><path d="M270.308 346.729s-2.241 1.196-3.541 5.796c0 0 3.374 2.07 5.471 2.185-.005.006-.762-5.421-1.93-7.981z" fill="#86CF87"/><path d="M281.517 365.534l.306-3.693-11.024-.115.473 3.716-.97 3.705s4.218 3.421 12.873-.035c-.433-1.526-1.393-2.289-1.658-3.578z" fill="#D17462"/><path d="M281.522 365.401l.294-3.56-11.024-.115.318 2.508c1.583.815 5.344 2.294 10.412 1.167z" fill="#BA5F50"/><path d="M272.19 346.335s4.957-1.11 9.539 0c0 0-.774 5.063-6.615 5.109-5.848.046-2.924-5.109-2.924-5.109z" fill="#D17462"/><path d="M280.372 345.995s-1.086 2.855-4.304 2.797c-3.086-.057-2.3-2.797-2.3-2.797-1.918.324-3.455.734-3.455.734l-.37 3.445c-1.259 1.843-1.537 3.213-1.479 4.323a30.6 30.6 0 0 0 .324 3.098l.491 6.086c6.517 2.531 14.265-.191 14.265-.191-.138-6.329.919-9.19.919-9.19v-7.317c-1.086-.456-3.033-.838-4.091-.988z" fill="#86CF87"/><path d="M275.327 344.259l-.012 3.092 3.785.017.017-4.022c-1.577 1.028-3.143 1-3.79.913z" fill="#D17462"/><path d="M279.125 343.348l.012-3.098-3.785-.018-.017 4.029c.647.086 2.213.115 3.79-.913z" fill="#BA5F50"/><path d="M274.366 335.827s-1.086 6.78.387 9.542c1.473 2.763 1.936 3.352 1.549 4.82-.382 1.468-1.254 3.347 1.097 5.167 0 0-4.391-.722-3.42-5.167 0 0-3.658-4.011-3.27-14.645l3.657.283zM286.599 338.265s.514 4.091-1.098 7.16 1.103 3.815.589 6.242c-.514 2.428.636 3.381 1.479 3.711 0 0-2.727.393-3.282-2.896 0 0-.092-1.676-.514-2.138-.422-.463-2.253-3.844-1.011-6.704 1.242-2.861 0-5.381 0-5.381h3.837v.006z" fill="#7C3425"/><path d="M273.281 334.259l.109.034s.341 1.63 1.208-1.901c.572-3.693 4.795-4.924 4.795-4.924 6.732.104 6.986 3.259 6.501 5.993-.197 1-.445 2.607-.37 3.988.19 3.45-2.716 5.693-5.298 5.687-4.958-.006-6.252-4.08-6.252-4.08s-2.277.063-2.577-3.034c-.243-2.532 1.884-1.763 1.884-1.763z" fill="#D17462"/><path d="M279.438 327.966s-3.039.867-4.651 3.629c.999-3.069 4.599-4.12 4.599-4.12 4.091.063 5.789 1.254 6.385 2.797-.798-1.04-2.537-2.173-6.333-2.306z" fill="#BA5F50"/><g opacity=".9"><path opacity=".091" d="M283.211 335.844a2.093 2.093 0 0 0-1.67 2.45 2.093 2.093 0 0 0 2.45 1.671 2.092 2.092 0 0 0 1.67-2.451 2.092 2.092 0 0 0-2.45-1.67z" fill="#E8725F"/><path opacity=".182" d="M283.252 336.041a1.896 1.896 0 0 0-1.508 2.219 1.896 1.896 0 1 0 3.727-.711 1.9 1.9 0 0 0-2.219-1.508z" fill="#E5705E"/><path opacity=".273" d="M283.287 336.237a1.7 1.7 0 0 0-1.352 1.982 1.7 1.7 0 0 0 1.982 1.352 1.698 1.698 0 0 0 1.352-1.982 1.698 1.698 0 0 0-1.982-1.352z" fill="#E36E5D"/><path opacity=".364" d="M283.327 336.44a1.501 1.501 0 0 0-1.19 1.746 1.498 1.498 0 0 0 1.745 1.19 1.5 1.5 0 0 0 1.19-1.745 1.49 1.49 0 0 0-1.745-1.191z" fill="#E16C5C"/><path opacity=".455" d="M283.364 336.636a1.292 1.292 0 1 0 1.508 1.029 1.293 1.293 0 0 0-1.508-1.029z" fill="#DF6A5B"/><path opacity=".545" d="M283.405 336.829a1.09 1.09 0 0 0-.867 1.272c.11.589.682.976 1.271.867a1.09 1.09 0 0 0 .867-1.272 1.093 1.093 0 0 0-1.271-.867z" fill="#DC6759"/><path opacity=".636" d="M283.439 337.033a.885.885 0 1 0 .329 1.739.885.885 0 0 0-.329-1.739z" fill="#DA6558"/><path opacity=".727" d="M283.48 337.23a.681.681 0 1 0 .253 1.34.681.681 0 0 0-.253-1.34z" fill="#D86357"/><path opacity=".818" d="M283.513 337.426a.48.48 0 1 0 .562.383.487.487 0 0 0-.562-.383z" fill="#D66156"/><path opacity=".909" d="M283.553 337.627a.28.28 0 0 0 .105.55.284.284 0 0 0 .225-.324.285.285 0 0 0-.33-.226z" fill="#D35F55"/><path opacity=".9" d="M283.528 337.918c.006.042.047.071.094.065.041-.006.071-.047.065-.094-.006-.041-.047-.071-.094-.065-.048.012-.077.053-.065.094z" fill="#D15D54"/></g><g opacity=".9"><path opacity=".091" d="M276.557 335.687a2.251 2.251 0 0 0-1.791 2.629 2.251 2.251 0 0 0 2.629 1.792 2.252 2.252 0 0 0 1.791-2.63 2.258 2.258 0 0 0-2.629-1.791z" fill="#E8725F"/><path opacity=".182" d="M276.598 335.906a2.03 2.03 0 0 0-1.618 2.375 2.03 2.03 0 0 0 2.374 1.618 2.03 2.03 0 0 0 1.618-2.375 2.038 2.038 0 0 0-2.374-1.618z" fill="#E5705E"/><path opacity=".273" d="M276.638 336.117a1.818 1.818 0 0 0-1.445 2.121 1.82 1.82 0 0 0 2.121 1.445 1.82 1.82 0 0 0 1.445-2.122 1.821 1.821 0 0 0-2.121-1.444z" fill="#E36E5D"/><path opacity=".364" d="M276.676 336.33c-.867.162-1.439 1-1.271 1.867a1.593 1.593 0 0 0 1.866 1.272c.867-.162 1.439-1 1.271-1.867a1.597 1.597 0 0 0-1.866-1.272z" fill="#E16C5C"/><path opacity=".455" d="M276.717 336.543a1.377 1.377 0 0 0-1.097 1.612 1.376 1.376 0 0 0 1.612 1.098 1.377 1.377 0 0 0 1.097-1.612 1.374 1.374 0 0 0-1.612-1.098z" fill="#DF6A5B"/><path opacity=".545" d="M276.76 336.756a1.175 1.175 0 0 0-.931 1.364c.122.63.729 1.046 1.364.931a1.167 1.167 0 1 0-.433-2.295z" fill="#DC6759"/><path opacity=".636" d="M276.801 336.966a.95.95 0 1 0 1.109.757.954.954 0 0 0-1.109-.757z" fill="#DA6558"/><path opacity=".727" d="M276.841 337.176a.732.732 0 1 0 0 0z" fill="#D86357"/><path opacity=".818" d="M276.882 337.392a.517.517 0 0 0-.41.601.517.517 0 0 0 .601.41.517.517 0 0 0 .41-.601.517.517 0 0 0-.601-.41z" fill="#D66156"/><path opacity=".909" d="M276.922 337.606a.296.296 0 0 0-.238.354.297.297 0 0 0 .348.237.292.292 0 0 0 .237-.347.297.297 0 0 0-.347-.244z" fill="#D35F55"/><path opacity=".9" d="M276.891 337.914a.079.079 0 0 0 .1.065.08.08 0 0 0 .065-.1.08.08 0 0 0-.1-.065.095.095 0 0 0-.065.1z" fill="#D15D54"/></g><path d="M280.28 338.289c.861.393 1.404.191 1.514-.387.075-.376-.145-.809-.382-1.017-.485-.428-.699-1.688-.705-1.699-.04.265.018 1.317.607 2.051a.64.64 0 0 1 .162.492c-.023.427-.439.762-1.196.56z" fill="#BA5F50"/><path d="M283.398 334.467s.757.023.867-.26c0 0 .087.399-.37.526.145.179.231.439.225.722-.005.538-.346.971-.751.966-.404-.006-.728-.451-.722-.989.012-.537.347-.971.751-.965zM277.736 334.379s.757.023.867-.26c0 0 .092.399-.37.526.144.179.231.439.225.723-.005.537-.346.97-.751.965-.404-.006-.728-.451-.722-.989.012-.543.347-.971.751-.965z" fill="#68413A"/><path d="M274.408 338.193s.312 2.173 3.715 3.63c2.999 1.283 5.922-.705 6.575-1.197-1.017 1.584-2.814 2.515-4.478 2.515-4.957-.006-6.251-4.081-6.251-4.081s-1.445.041-2.185-1.508c1.283.953 2.624.641 2.624.641z" fill="#BA5F50"/><path d="M281.971 332.95s1.214-.329 2.878.156c0 0 .011-.121-.301-.393-.295-.248-1.387-.52-2.328-.139 0 .006-.491.266-.249.376zM279.326 332.883s-1.214-.352-2.884.104c0 0-.005-.121.312-.387.301-.243 1.399-.497 2.329-.093 0 0 .485.272.243.376z" fill="#7C3425"/><path d="M278.488 339.084s1.924.422 3.727.058c0 0-.341 1.647-1.89 1.618-1.456-.023-1.825-1.358-1.837-1.676z" fill="#B22828"/><path d="M280.375 339.908c1.19.017 1.542-.468 1.698-.734-1.398.254-2.519.069-3.495-.064.098.295.676.781 1.797.798z" fill="#fff"/><path d="M283.506 368.97c-9.568 1.254-13.618 0-13.618 0s-2.011 6.057-3.802 12.484c1.635.849 4.744 1.907 8.493 2.121.347-1.035.63-2.023.804-2.462l1.253-.024s.081.896.18 2.491c2.16-.069 5.252-.346 8.071-.936-.029-5.381.231-9.918-1.381-13.674z" fill="#7D9CC9"/><path d="M276.284 372.205c-4.241 0-6.882-.74-6.922-.752a.154.154 0 0 1-.104-.19.154.154 0 0 1 .191-.104c.057.017 5.928 1.652 14.26-.006.086-.018.161.034.179.121a.151.151 0 0 1-.122.179c-2.814.567-5.35.752-7.482.752z" fill="#9EB9D8"/><path d="M276.058 378.853h-.006c-.491-.023-.86-.185-1.132-.491-.468-.52-.635-1.445-.543-2.994.081-1.364.283-5.508.283-5.548.006-.087.069-.151.162-.145a.15.15 0 0 1 .144.162c0 .04-.208 4.184-.283 5.554-.081 1.439.064 2.324.468 2.769.22.242.52.369.925.393a.15.15 0 0 1 .144.161.167.167 0 0 1-.162.139zM276.44 380.726s-.006 0 0 0a.155.155 0 0 1-.156-.151c.133-4.265.312-10.663.312-10.726 0-.087.075-.151.156-.151.087 0 .151.075.151.156 0 .064-.18 6.462-.313 10.727 0 .087-.069.145-.15.145zM284.215 374.752c-3.114 0-3.507-2.953-3.512-2.982-.012-.075.046-.139.121-.15.081-.012.144.046.156.127.012.11.37 2.745 3.23 2.751.075 0 .138.052.138.127.006.075-.057.127-.133.127zM268.5 374.397a.148.148 0 0 1-.144-.127.143.143 0 0 1 .127-.162c2.958-.341 3.149-2.127 3.155-2.202a.147.147 0 0 1 .156-.133.144.144 0 0 1 .133.156c-.006.087-.203 2.098-3.409 2.468h-.018z" fill="#9EB9D8"/><path d="M283.731 379.854a.866.866 0 0 1-.769.959l-3.299.37a.87.87 0 0 1-.959-.769l-.098-.861a.866.866 0 0 1 .768-.959l3.299-.37a.867.867 0 0 1 .96.769l.098.861zM273.228 380.447a.618.618 0 0 1-.722.485l-4.062-.797a.615.615 0 1 1 .237-1.208l4.061.798a.62.62 0 0 1 .486.722zM265.884 380.586s3.05 1.751 9.129 2.543l-.283 1.352s-5.928-.306-9.199-2.531l.353-1.364zM276.428 383.136s2.808.174 8.938-1.017v1.416s-3.819 1.335-8.805.948l-.133-1.347z" fill="#CAE0EF"/><path d="M280.364 369.449l-.764.082.295 2.741.764-.082-.295-2.741zM272.092 369.451l-.399 2.728.761.111.398-2.728-.76-.111z" fill="#6888AF"/><path d="M275.828 371.577a.63.63 0 1 0 0-1.26.63.63 0 0 0 0 1.26z" fill="#CAE0EF"/><path d="M190.481 418.032c.115 8.01.555 18.552 2.103 26.152.549 2.688.364 2.786 4.368 2.769 4.258-.023 19.847.086 23.886.075 7.973-.029 9.938-.023 13.347-1.237 3.674-1.312 6.367-2.578 9.995-3.884 3.565-1.283 8.147-.959 12.18-.982 8.546-.047 26.873.427 40.994.358 14.122-.075 32.443-.734 40.989-.774 4.033-.024 8.614-.393 12.191.855 3.646 1.271 6.344 2.508 10.036 3.78 3.421 1.179 5.385 1.156 13.359 1.104 4.038-.029 19.627-.295 23.885-.318 4.005-.023 3.82-.122 4.34-2.809 1.473-7.618 1.802-18.159 1.837-26.17.035-8.299-1.762-28.499-2.103-32.429-.532-6.144-2.658-7.785-4.894-10.525-2.554-3.126-3.605-5.305-5.68-7.987-1.883-2.427-3.721-4.08-5.743-6.265-1.005-1.087-1.595-2.636-1.872-4.098-.433-2.254-5.113-12.807-9.77-21.286-3.317-6.028-7.951-12.357-10.239-14.772-3.779-3.988-6.459-4.717-10.059-5.11-17.519-1.913-35.898-2.577-56.93-2.467-21.031.109-39.399.959-56.9 3.051-3.594.428-6.269 1.185-10.007 5.208-2.265 2.438-6.836 8.813-10.089 14.876-4.57 8.525-9.146 19.13-9.556 21.385-.266 1.462-.838 3.016-1.832 4.115-1.993 2.207-3.819 3.878-5.674 6.322-2.051 2.699-3.079 4.89-5.599 8.046-2.207 2.762-4.316 4.427-4.784 10.576-.312 3.924-1.906 24.147-1.779 32.441zm26.22-66.569c1.589-4.323 3.79-10.351 6.408-15.559 2.981-5.935 6.401-10.946 8.441-13.651 1.832-2.428 2.433-2.653 5.761-3.011 12.711-1.37 41.311-2.566 59.408-2.659 18.09-.092 46.702.809 59.431 2.052 3.328.324 3.935.543 5.789 2.953 2.069 2.682 5.542 7.664 8.581 13.565 2.669 5.184 4.928 11.183 6.563 15.495.544 1.433.746 3.092-1.265 3.028-3.981-.127-31.495-1.179-39.763-1.45-9.158-.301-30.415-.52-39.157-.474-8.748.046-29.993.48-39.151.873-8.262.358-35.771 1.687-39.746 1.855-2.017.086-1.832-1.572-1.3-3.017z" fill="#14AFEB"/><path d="M402.79 437.832l-27.237.139.133 26.199a4.122 4.122 0 0 0 4.142 4.103l18.992-.098a4.125 4.125 0 0 0 4.103-4.144l-.133-26.199zM191.884 438.914l27.237-.139.133 26.199a4.124 4.124 0 0 1-4.103 4.144l-18.992.098a4.122 4.122 0 0 1-4.142-4.103l-.133-26.199z" fill="#192D4B"/><path d="M402.8 437.833l-210.904 1.079.062 12.253 210.904-1.079-.062-12.253z" fill="#192D4B"/><path d="M381.161 357.769c.266.907.809 1.052 1.919.913 7.73-.931 15.513-2.271 21.643-3.439 1.156-.219 1.948-.248 2.647-1.277 1.034-1.526 2.051-3.081 1.953-4.849-.099-1.728-2.803-4.069-4.305-4.763-3.935-1.82-8.129-2.548-12.63-2.924-1.3-.11-2.745-.127-4.045.006-1.19.121-1.485.924-1.756 2.028-.618 2.52-.902 5.11-1.029 7.705-1.357-.018-5.518-.295-5.379 1.277.116 1.641.537 3.78.982 5.323zM213.633 353.3c.116-1.578-4.039-1.254-5.397-1.225-.156-2.589-.462-5.179-1.109-7.693-.283-1.098-.584-1.901-1.774-2.011-1.3-.116-2.744-.087-4.044.035-4.501.422-8.69 1.196-12.602 3.057-1.491.711-4.177 3.075-4.258 4.803-.081 1.768.953 3.312 1.999 4.832.705 1.023 1.502 1.04 2.658 1.248 6.136 1.104 13.936 2.364 21.673 3.219 1.115.122 1.658-.023 1.906-.936.439-1.549.838-3.687.948-5.329z" fill="#14AFEB"/><path d="M193.206 429.811c1.242-3.312 2.178-6.462 3.421-9.785.953-2.56 2.779-6.496 4.027-8.97 1.658-3.283 5.911-3.04 9.239-3.011 3.651.035 12.844.399 16.449.468 3.305.058 7.413-.086 8.54-4.277l62.274-.318 62.274-.317c1.173 4.178 5.281 4.282 8.586 4.19 3.605-.104 12.792-.561 16.444-.636 3.328-.064 7.58-.347 9.268 2.919 1.276 2.462 3.137 6.375 4.119 8.929 1.277 3.306 2.242 6.45 3.519 9.75.503 1.306 1.265 2.012 2.149 2.717-.277 4.144-.71 8.201-1.381 11.651-.52 2.688-.335 2.786-4.339 2.809-4.258.023-19.847.295-23.886.318-7.973.058-9.932.081-13.358-1.104-3.686-1.271-6.39-2.514-10.036-3.786-3.577-1.242-8.159-.878-12.192-.855-8.545.046-26.867.705-40.988.78-14.121.07-32.448-.404-40.994-.358-4.033.023-8.621-.301-12.18.983-3.628 1.306-6.321 2.577-9.995 3.883-3.409 1.214-5.374 1.214-13.347 1.237-4.039.018-19.628-.098-23.886-.075-4.004.023-3.819-.081-4.368-2.763-.705-3.444-1.179-7.496-1.497-11.634.896-.716 1.647-1.433 2.138-2.745z" fill="#0082C8"/><path d="M208.525 430.993c.237-.751 32.477 4.196 88.795 3.907 56.317-.289 88.505-5.566 88.748-4.82.676 2.069-30.207 9.004-88.725 9.305-58.519.301-89.477-6.323-88.818-8.392z" fill="#14AFEB"/><path d="M233.664 402.319c.762-2.867 4.189-4.913 6.8-6.676a120.075 120.075 0 0 1 6.339-3.999c.653-.382 2.086-1.272 3.154-1.463 1.248-.219 3.427.012 4.646.047 4.905.144 8.961.231 13.867.312 4.905.081 9.816.133 14.722.15 2.49.012 9.637-.029 13.901-.052 4.27-.023 11.412-.058 13.902-.092 4.905-.07 9.817-.168 14.722-.301 4.905-.133 8.961-.26 13.861-.457 1.213-.046 3.392-.3 4.64-.092 1.069.179 2.513 1.058 3.166 1.428a116.29 116.29 0 0 1 6.379 3.935c2.629 1.74 6.078 3.751 6.87 6.606.849 3.069-1.826 6.861-3.392 9.219-4.836 7.305-9.32 14.362-15.225 20.604-2.496 2.635-6.009 2.607-9.36 2.745-4.553.191-24.018.578-35.349.665-11.33.029-30.796-.162-35.355-.301-3.351-.104-6.864-.034-9.389-2.647-5.968-6.178-10.521-13.194-15.432-20.448-1.572-2.346-4.288-6.109-3.467-9.183z" fill="#0082C8"/><path d="M270.984 425.621l52.573-.271a3.012 3.012 0 0 0 2.993-3.023l-.076-14.697a3.01 3.01 0 0 0-3.021-2.994l-52.573.271a3.011 3.011 0 0 0-2.993 3.023l.075 14.698a3.014 3.014 0 0 0 3.022 2.993z" fill="#14AFEB"/><path d="M273.353 419.513v-8.028h4.94v.966h-3.704v2.681h2.808v.931h-2.808v3.45h-1.236zM282.359 416.155c-.116.012-.243.012-.376.012h-1.132v3.346h-1.237v-8.028h2.375c1.774 0 2.866.711 2.866 2.283 0 1.098-.48 1.803-1.318 2.144l1.734 3.22v.375h-1.133l-1.779-3.352zm-1.514-.907h1.098c1.086 0 1.641-.387 1.641-1.41 0-1-.584-1.399-1.641-1.399h-1.098v2.809zM286.623 411.485h4.917v.966h-3.68v2.502h2.692v.919h-2.692v2.705h3.807v.942h-5.044v-8.034zM292.997 411.485h4.917v.966h-3.68v2.502h2.692v.919h-2.692v2.705h3.807v.942h-5.044v-8.034zM298.855 411.867v-.382h1.179l1.433 6.294h.023l1.583-6.294h1.098l1.572 6.294h.023l1.433-6.294h1.063v.382l-1.89 7.646h-1.317l-1.467-6.051h-.024l-1.502 6.051h-1.317l-1.89-7.646zM308.476 419.132l2.646-7.647h1.329l2.634 7.647v.375h-1.178l-.746-2.248h-2.946l-.723 2.248h-1.022v-.375h.006zm2.039-2.786h2.34l-1.155-3.543h-.024l-1.161 3.543zM317.461 419.514v-3.207l-2.45-4.416v-.399h1.132l1.971 3.636h.011l1.924-3.636h1v.399l-2.352 4.381v3.242h-1.236zM297.228 388.848a6.334 6.334 0 0 0 0-12.669 6.333 6.333 0 0 0-6.332 6.334 6.333 6.333 0 0 0 6.332 6.335z" fill="#fff"/><path d="M297.227 388.432a5.911 5.911 0 0 0 5.911-5.912 5.912 5.912 0 1 0-5.911 5.912z" fill="#fff"/><path d="M291.45 383.744a5.916 5.916 0 0 0 1.283 2.606c.947-4.225 4.715-7.38 9.221-7.38a4.779 4.779 0 0 0-.283-.341 9.444 9.444 0 0 0-10.221 5.115z" fill="#0046B4"/><path d="M294.577 387.799a5.911 5.911 0 0 0 7.713-8.334 9.455 9.455 0 0 0-7.713 8.334zM298.755 377.792c.832 0 1.635.11 2.403.307a5.905 5.905 0 0 0-9.683 3.115 9.442 9.442 0 0 1 7.28-3.422z" fill="#46B400"/><path d="M241.737 388.674c-.26-.664-3.692-1.583-6.055-2.248-4.247-1.191-12.174-3.525-16.149-4.785-3.825-1.214-8.176-2.769-11.793-4.532-1.664-.809-2.698-1.375-4.593-.959-1.803.393-3.213.902-4.848 1.636-.809.364-1.861.976-2.386 1.641-.48.607-.775 1.855-.965 2.578-.538 2.04-.809 3.756-.89 5.583-.121 2.745 1.104 4.756 3.709 5.854 3.421 1.445 7.639 1.937 11.285 2.509 3.969.624 7.973.988 11.989 1.098 2.195.058 4.293.069 6.402-.619 1.906-.624 3.414-1.381 5.223-2.248 1.901-.913 3.79-2.04 5.645-2.936.618-.3 3.813-1.589 3.426-2.572z" fill="#BAE2EE"/><path d="M206.179 391.598a5.051 5.051 0 1 0-.002-10.102 5.051 5.051 0 0 0 .002 10.102zM223.576 392.55a4.81 4.81 0 0 0-6.798-6.801 4.807 4.807 0 1 0 6.798 6.801z" fill="#fff"/><path d="M195.634 388.872c.069.826.977 2.138 1.664 2.549 2.317 1.369 6.252 2.236 8.915 2.745 4.415.838 8.823 1.26 13.307 1.566 1.693.116 5.31.15 5.506-.295.116-.26-1.779-.341-3.911-.537-4.126-.382-8.344-.908-12.405-1.734-2.514-.514-6.553-1.63-8.956-2.901-1.237-.654-1.901-1.503-1.924-2.503-.046-2.208.3-4.427.936-6.225.526-1.479 2.987-3.184 2.392-3.167-.757.023-2.311 1.023-3.403 1.821-.422.312-.821.849-.948 1.196-.653 1.815-1.392 4.745-1.173 7.485z" fill="#fff"/><path d="M355.877 390.64c1.861.873 3.767 1.982 5.674 2.878 1.814.85 3.334 1.59 5.246 2.196 2.121.665 4.212.636 6.408.555 4.016-.15 8.02-.555 11.978-1.219 3.64-.613 7.858-1.145 11.261-2.624 2.594-1.127 3.802-3.15 3.646-5.895-.099-1.827-.393-3.537-.948-5.572-.196-.722-.503-1.965-.988-2.566-.532-.653-1.589-1.26-2.404-1.612-1.646-.723-3.062-1.214-4.865-1.59-1.9-.393-2.929.179-4.587 1.012-3.6 1.797-7.933 3.398-11.741 4.652-3.958 1.301-11.862 3.716-16.097 4.953-2.357.688-5.772 1.642-6.032 2.306-.382.983 2.831 2.237 3.449 2.526z" fill="#BAE2EE"/><path d="M387.963 390.667a5.051 5.051 0 1 0-.002-10.104 5.051 5.051 0 0 0 .002 10.104zM377.382 391.765a4.81 4.81 0 0 0 0-6.8 4.808 4.808 0 1 0 0 6.8z" fill="#fff"/><path d="M397.27 380.361c-.127-.346-.532-.884-.959-1.19-1.098-.786-2.664-1.769-3.421-1.786-.595-.012 1.884 1.664 2.427 3.144.658 1.786 1.022 4.005.999 6.213-.011 1-.664 1.855-1.895 2.52-2.386 1.294-6.413 2.456-8.927 2.994-4.05.867-8.268 1.433-12.387 1.861-2.127.219-4.028.318-3.906.578.202.439 3.819.369 5.506.237 4.478-.353 8.886-.827 13.289-1.705 2.658-.532 6.587-1.44 8.887-2.832.687-.417 1.583-1.74 1.64-2.561.197-2.745-.577-5.669-1.253-7.473z" fill="#fff"/><path d="M257.742 352.628c9.158-.393 30.409-.827 39.151-.873 8.747-.046 29.998.174 39.156.474 1.063.035 2.45.081 4.056.139l2.681 11.744c-11.151.965-26.179 1.763-46.431 2.161-20.24-.398-35.256-1.196-46.402-2.155l3.207-11.282c1.837-.087 3.403-.156 4.582-.208z" fill="#5AC8F5"/><path opacity=".3" d="M350.985 314.191l13.872 36.798 3.542 9.392c-3.744.994-9.672 2.104-19.05 3.103l-2.929-12.472-8.927-37.943c4.576.301 9.066.677 13.492 1.122zM255.124 313.55l-8.811 37.463-2.929 12.472c-9.372-1-15.3-2.104-19.05-3.098l3.542-9.397 13.624-36.134c4.478-.514 9.008-.948 13.624-1.306z" fill="#fff"/><defs><linearGradient id="paint0_linear" x1="343.789" y1="321.687" x2="343.676" y2="334.202" gradientUnits="userSpaceOnUse"><stop stop-color="#7C3425"/><stop offset="1" stop-color="#60261D"/></linearGradient><linearGradient id="paint1_linear" x1="278.148" y1="338.721" x2="275.64" y2="354.647" gradientUnits="userSpaceOnUse"><stop stop-color="#7C3425"/><stop offset="1" stop-color="#60261D"/></linearGradient><linearGradient id="paint2_linear" x1="285.844" y1="359.554" x2="286.227" y2="369.347" gradientUnits="userSpaceOnUse"><stop stop-color="#D17462"/><stop offset="1" stop-color="#BA5F50"/></linearGradient><linearGradient id="paint3_linear" x1="282.483" y1="365.628" x2="275.968" y2="362.563" gradientUnits="userSpaceOnUse"><stop stop-color="#D17462"/><stop offset="1" stop-color="#BA5F50"/></linearGradient></defs></svg>