<svg width="154" height="25" fill="none" xmlns="http://www.w3.org/2000/svg" viewBox="0 0 154 25"><path d="M13.094 18.855l5.027-3.615 3.04 9.486-8.067-5.87zm13.094-9.447H16.173L13.094 0l-3.079 9.408H0l8.106 5.832-3.079 9.408 8.067-5.793 5.027-3.615 8.067-5.832zM44.983 18.855l5.027-3.615 3.04 9.486-8.067-5.87zm13.094-9.447H48.06L44.983 0l-3.079 9.408H31.89l8.106 5.832-3.08 9.408 8.068-5.793 5.027-3.615 8.067-5.832zM76.872 18.855L81.9 15.24l3.04 9.486-8.068-5.87zm13.094-9.447H79.951L76.872 0l-3.078 9.408H63.778l8.106 5.832-3.079 9.408 8.067-5.793L81.9 15.24l8.066-5.832zM108.761 18.855l5.027-3.615 3.04 9.486-8.067-5.87zm13.094-9.447H111.84L108.761 0l-3.079 9.408H95.667l8.106 5.832-3.079 9.408 8.067-5.793 5.027-3.615 8.067-5.832zM140.65 18.855l5.027-3.615 3.04 9.486-8.067-5.87zm13.094-9.447h-10.016L140.65 0l-3.079 9.408h-10.015l8.106 5.832-3.079 9.408 8.067-5.793 5.027-3.615 8.067-5.832z" fill="#F2C94C"/></svg>