<svg width="80" height="80" fill="none" xmlns="http://www.w3.org/2000/svg" viewBox="0 0 80 80"><g clip-path="url(#clip0)"><path d="M13.559 33.09v-6.599a19.684 19.684 0 1 1 39.367 0v6.6" fill="#FF8C00"/><path d="M16.352 36.336a3.675 3.675 0 1 0 0-7.35 3.675 3.675 0 0 0 0 7.35zM50.138 36.336a3.675 3.675 0 1 0 0-7.35 3.675 3.675 0 0 0 0 7.35z" fill="#FFDCB4"/><path d="M16.352 26.636a16.89 16.89 0 0 1 33.782 0v8.375a16.89 16.89 0 1 1-33.782 0v-8.375z" fill="#FFDCB4"/><path d="M48.227 15.463a5.209 5.209 0 0 0-.294-1.614c-.882-3.222-4.407-8.66-13.673-8.51-13.075.293-20.42 6.327-20.42 6.327l3.697 5.569s2.789 3.38 5.14 3.236a5.126 5.126 0 0 0 2.643-.904 5.017 5.017 0 0 0 4.7 2.5 4.913 4.913 0 0 0 3.088-1.32 8.693 8.693 0 0 0 7.48 3.837 8.261 8.261 0 0 0 7.783-8.814.543.543 0 0 1-.144-.307z" fill="#FF8C00"/><path d="M18.26 28.842s-.904-10.283 14.983-10.283 14.983 10.283 14.983 10.283h1.907l1.912-3.675-5.582-11.164-9.844-4.257-11.751 1.468-7.49 5.605-2.5 7.173.588 4.85h2.794z" fill="#FF8C00"/><path d="M38.825 40.15a.827.827 0 0 1 .904 1.031 6.558 6.558 0 0 1-12.927 0 .826.826 0 0 1 .904-1.03h11.12z" fill="#fff"/><path d="M51.015 57.045H15.466a8.51 8.51 0 0 0-8.37 7.2L5.333 74.672h55.82L59.39 64.245a8.633 8.633 0 0 0-8.375-7.2z" fill="#FA0"/><path d="M33.242 73.203a19.886 19.886 0 0 1-5.875-14.25v-1.908h11.751V59.1a19.783 19.783 0 0 1-5.876 14.102z" fill="#fff"/><path d="M30.743 70.12a17.691 17.691 0 0 0 2.5 3.083 25.84 25.84 0 0 0 2.5-3.082l-1.031-11.607-1.47-1.47-1.468 1.47-1.03 11.607zM61.152 74.673c8.113 0 14.69-6.577 14.69-14.69 0-8.112-6.577-14.69-14.69-14.69-8.112 0-14.69 6.578-14.69 14.69 0 8.113 6.578 14.69 14.69 14.69z" fill="#FF8C00"/><path d="M62.328 67.034v2.35h-2.206v-2.35a7.833 7.833 0 0 1-4.113-2.056l1.618-2.057a5.848 5.848 0 0 0 3.67 1.614c1.03 0 1.763-.452 1.763-1.32 0-.868-.588-1.324-2.346-1.763-2.35-.736-4.407-1.469-4.407-4.113 0-2.056 1.32-3.674 3.815-3.968v-2.495h2.206v2.495a8.637 8.637 0 0 1 3.525 1.618l-1.618 2.056c-1.175-.732-2.201-1.175-3.232-1.175-1.03 0-1.613.452-1.613 1.175 0 .724.732 1.176 2.2 1.614 2.794.904 4.557 1.618 4.557 4.262 0 2.206-1.47 3.82-3.82 4.113z" fill="#fff"/></g><defs><clipPath id="clip0"><path fill="#fff" transform="translate(5.333 5.333)" d="M0 0h70.509v69.338H0z"/></clipPath></defs></svg>