<svg width="375" height="156" fill="none" xmlns="http://www.w3.org/2000/svg" viewBox="0 0 375 156"><path d="M375 0H0v156h375V0z" fill="#F5FCFF"/><mask id="a" maskUnits="userSpaceOnUse" x="0" y="0" width="375" height="156"><path transform="matrix(-1 0 0 1 375 0)" fill="#F5FCFF" d="M0 0h375v156H0z"/></mask><g mask="url(#a)"><path d="M481.001-5.706L374.813.097 176.849 20.841l-36.882 21.902 167.705 97.683 140.778 13.258 32.551-159.39z" fill="#00AD00"/><path d="M437.509-7.297S75.411 4.265 51.072 44.358C21.095 93.745 318.26 226.2 318.26 226.2l250.865-59.442s-397.638-99.299-379.744-129.2C208.081 6.31 578.295-2.295 578.295-2.295L437.509-7.297z" fill="#fff"/><path d="M346.422 206.702S52.672 89.192 79.234 44.358C103.14 4.01 465.671-5.998 465.671-5.998l81.019 1.535S176.252 6.173 157.777 37.553c-19.75 33.549 379.744 144.365 379.744 144.365l-191.099 24.784z" fill="#004EBB"/><path d="M325.671 55.067h-2.706v53.134h2.706V55.067z" fill="#5F6464"/><path d="M302.562 46.956l18.716-18.953a4.29 4.29 0 0 1 6.12 0l18.716 18.953a4.423 4.423 0 0 1 0 6.2l-18.716 18.948a4.29 4.29 0 0 1-6.12 0l-18.716-18.949a4.43 4.43 0 0 1 0-6.2z" fill="#fff"/><path d="M304.915 48.482l17.874-18.098a2.17 2.17 0 0 1 3.102 0l17.874 18.098a2.24 2.24 0 0 1 0 3.142l-17.874 18.1a2.17 2.17 0 0 1-3.102 0l-17.874-18.1a2.24 2.24 0 0 1 0-3.142z" fill="#fff"/><path d="M324.34 71.174a2.958 2.958 0 0 1-2.112-.886l-17.874-18.099a3.057 3.057 0 0 1 0-4.276l17.874-18.099a2.94 2.94 0 0 1 2.108-.885c.797 0 1.547.312 2.112.885l17.874 18.1a3.02 3.02 0 0 1 .874 2.135c0 .806-.313 1.567-.874 2.14l-17.874 18.099a2.944 2.944 0 0 1-2.108.886z" fill="#004EBB"/><path d="M332.644 58.442c4.589-4.645 4.589-12.176 0-16.82a11.644 11.644 0 0 0-16.612 0c-4.589 4.644-4.589 12.175 0 16.82a11.644 11.644 0 0 0 16.612 0z" fill="#fff"/><path d="M334.688 53.688c1.996-5.787-1.022-12.119-6.741-14.135-5.715-2.02-11.967 1.038-13.963 6.825-1.996 5.787 1.022 12.12 6.741 14.135 5.719 2.02 11.971-1.038 13.963-6.825z" fill="#fff"/><path d="M313.615 52.33A11.124 11.124 0 0 0 316 57.231c1.755-7.93 8.749-13.862 17.109-13.862-.164-.225-.341-.433-.521-.645a17.606 17.606 0 0 0-3.238-.309c-6.902.004-12.873 4.044-15.735 9.915z" fill="#0046B4"/><path d="M319.419 59.953a10.809 10.809 0 0 0 4.921 1.182c6.056 0 10.961-4.97 10.961-11.101 0-2.1-.577-4.064-1.575-5.735-7.61 1.39-13.514 7.755-14.307 15.654zM327.157 41.153c1.539 0 3.034.204 4.457.581a10.857 10.857 0 0 0-7.278-2.801c-5.226 0-9.594 3.703-10.692 8.656 3.222-3.931 8.079-6.436 13.513-6.436z" fill="#46B400"/></g><g clip-path="url(#clip0)"><path d="M170.195 74.15l27-13.648c1.499-.745 3.907-.664 5.354.178l86.926 51.14c1.443.838 1.172 2.086.351 3.542-1.215 2.158-4.325 4.456-6.708 6.056-2.234 1.388-8.794 4.757-12.412 6.255-4.101 1.782-8.718 3.631-12.883 4.219-1.654.233-4.117.106-5.565-.736l-6.602-3.868c-.025-1.058-.732-3.373-5.501-6.234-4.283-2.569-7.309-2.543-8.905-2.213l-46.315-27.153-15.18-10.64c-5.679-3.757-1.054-6.153.44-6.897z" fill="#0032A5"/><path d="M241.314 108.312c3.022 1.744 5.629 5.286 6.856 8.942-1.883-1.388-5.205-3.792-6.352-4.299-1.634-.72-2.531-.462-2.531-.462l-5.417 2.027a11.808 11.808 0 0 1-.148-1.824c-.004-4.841 3.398-6.805 7.592-4.384z" fill="#004687"/><path d="M181.376 77.194l2.658-1.528a8.86 8.86 0 0 1 2.129.91c4.193 2.42 7.596 7.914 7.596 12.755 0 .406.076 1.07.22 1.765l-3.149 1.807c-1.18.745-2.843.677-4.693-.39-3.58-2.069-6.483-7.096-6.483-11.231 0-1.964.651-3.369 1.722-4.088z" fill="#192D4B"/><path d="M179.675 81.205c0 4.135 2.903 9.163 6.483 11.232 3.581 2.07 6.484.39 6.484-3.745s-2.903-9.163-6.484-11.232c-3.576-2.065-6.483-.39-6.483 3.745z" fill="#192D4B"/><path d="M181.431 82.725c0 2.844 1.998 6.301 4.461 7.723 2.463 1.422 4.46.271 4.46-2.573s-1.997-6.301-4.46-7.723c-2.463-1.422-4.461-.271-4.461 2.573z" fill="#0082C8"/><path d="M184.461 84.287c0 .956.652 2.115 1.456 2.594.804.478 1.456.089 1.456-.864 0-.956-.652-2.116-1.456-2.594-.804-.478-1.456-.093-1.456.864z" fill="#192D4B"/><path d="M184.03 75.666l-2.658 1.527c-.978.656-1.608 1.892-1.706 3.602l-1.096.067a7.325 7.325 0 0 1-.008-.296c.004-3.99 2.311-5.755 5.468-4.9z" fill="#004687"/><path d="M218.3 117.135l.491-.283v-1.181l-.491.283v1.181zM227.213 103.733l2.154-1.244v-.665l-2.154 1.244v.665z" fill="#008B40"/><path d="M213.201 113.669l.427-.469a.433.433 0 0 1 .284-.089c.347 0 .732.3.863.673.072.207.051.393-.047.516l-.452.504a.437.437 0 0 1-.301.105c-.347 0-.732-.3-.863-.672-.085-.237-.042-.449.089-.568z" fill="#212020"/><path d="M213.112 114.236c.131.373.516.673.863.673s.521-.3.389-.673c-.131-.372-.516-.673-.863-.673s-.52.301-.389.673z" fill="#3A3939"/><path d="M213.455 114.237c.059.165.232.3.389.3s.233-.135.173-.3c-.059-.166-.232-.301-.385-.301-.156 0-.232.131-.177.301z" fill="#5098D9"/><path d="M226.219 106.056l-.771-.436c-.156-.089-.372-.076-.605.064-.474.275-.859.944-.859 1.489 0 .276.097.47.254.559l.77.436c.157.089.368.076.605-.063.474-.276.864-.944.864-1.49-.005-.275-.102-.47-.258-.559z" fill="#3A3939"/><path d="M226.472 106.615c0 .55-.385 1.218-.863 1.489-.237.136-.448.148-.605.064-.157-.089-.254-.284-.254-.559 0-.55.385-1.219.859-1.489.237-.136.453-.153.605-.064.161.089.258.284.258.559z" fill="#575656"/><path d="M226.405 106.686c0 .491-.343 1.084-.766 1.329-.212.123-.402.136-.542.055-.14-.08-.229-.254-.229-.499 0-.491.343-1.084.766-1.329.212-.123.402-.135.542-.055.14.08.229.254.229.499z" fill="#3A3939"/><path d="M226.168 106.822c0 .339-.237.749-.533.923-.149.084-.28.093-.373.038-.097-.055-.156-.174-.156-.347 0-.339.237-.753.533-.923.144-.084.279-.093.372-.038.098.059.157.178.157.347z" fill="#212020"/><path d="M225.258 107.541a.614.614 0 0 1-.131.055.608.608 0 0 1-.021-.165c0-.338.237-.753.533-.922a.593.593 0 0 1 .131-.055.608.608 0 0 1 .021.165c-.004.342-.241.753-.533.922z" fill="#5098D9"/><path d="M213.611 111.832l1.782-1.024 10.33-4.321.182.119v.986l-13.03 7.52-.182-.118v-2.095l.918-1.067z" fill="#EABD00"/><path d="M212.875 113.021v2.091l-.182-.119v-2.095l.182.123z" fill="#CCA500"/><path d="M213.611 111.832l1.782-1.024 10.33-4.321.182.119-10.334 4.321-1.778 1.028-.918 1.067-.182-.123.918-1.067z" fill="#E0DC90"/><path d="M213.07 114.384l4.278 2.603v-.999l-4.278-2.607v1.003z" fill="#414E52"/><path d="M214.132 112.451l4.279 2.602-1.063.936-4.278-2.607 1.062-.931z" fill="#5B686C"/><path d="M214.132 112.451l4.279 2.602 2.082-.698-4.283-2.603-2.078.699z" fill="#4E5B5F"/><path d="M229.926 109.945a.24.24 0 0 0 .211-.122.246.246 0 0 0-.089-.335l-4.524-2.611a.246.246 0 0 0-.334.089.242.242 0 0 0 .089.334l4.524 2.612c.038.025.08.033.123.033z" fill="#5098D9"/><path opacity=".3" d="M229.926 109.878a.18.18 0 0 0 .152-.085.173.173 0 0 0-.063-.237l-4.524-2.611a.172.172 0 0 0-.237.063.172.172 0 0 0 .063.237l4.524 2.612a.205.205 0 0 0 .085.021z" fill="#5098D9"/><path opacity=".3" d="M229.926 109.806a.106.106 0 0 0 .093-.051.105.105 0 0 0-.038-.144L225.457 107a.104.104 0 0 0-.144.038.104.104 0 0 0 .038.144l4.524 2.611a.107.107 0 0 0 .051.013z" fill="#5098D9"/><path opacity=".3" d="M229.926 109.738a.035.035 0 0 0 .029-.017c.009-.017.005-.038-.012-.047l-4.524-2.611c-.017-.008-.038-.004-.047.013-.008.017-.004.038.013.047l4.524 2.611c.008 0 .013.004.017.004z" fill="#5098D9"/><path d="M227.501 104.99v-1.427l-2.319-1.375-8.155 10.076 2.323 1.38 1.291.961 6.86-9.615z" fill="#D8CF21"/><path d="M227.501 103.563l-2.319-1.375-8.155 10.076 2.323 1.38 8.151-10.081z" fill="#E0DC90"/><path d="M226.527 103.161l-1.434-.863-.182.22v-.466l1.494-.859 2.56 1.541v1.426l-1.49.859-.101-.059v-1.291l-.847-.508z" fill="#5098D9"/><path opacity=".6" d="M226.405 101.193l-1.494.859 2.564 1.545 1.49-.863-2.56-1.541z" fill="#5098D9"/><path opacity=".5" d="M226.836 103.347l-1.743-1.049-.089-.055v.161l-.093.114v-.466l2.564 1.545v1.422l-.101-.059v-1.291l-.538-.322z" fill="#5098D9"/><path d="M228.995 103.897h.089v.462l-7.318 8.79h-.093v-.462l7.322-8.79z" fill="#EABD00"/><path opacity=".6" d="M228.995 103.897h.089l-7.318 8.79v.462h-.093v-.462l7.322-8.79z" fill="#5098D9"/><path d="M217.945 114.313l1.782-1.029 10.33-4.321.182.123v.986l-13.03 7.52-.182-.118v-2.095l.918-1.066z" fill="#EABD00"/><path d="M217.209 115.497v2.095l-.182-.118v-2.095l.182.118z" fill="#CCA500"/><path d="M217.945 114.313l1.782-1.029 10.33-4.321.182.123-10.335 4.321-1.777 1.024-.918 1.067-.182-.119.918-1.066z" fill="#E0DC90"/><path d="M231.568 109.015l-.77-.436c-.157-.089-.369-.077-.606.059-.474.275-.859.944-.859 1.494 0 .275.098.47.254.558l.77.436c.157.089.369.076.606-.063.474-.275.859-.944.859-1.49.004-.275-.093-.465-.254-.558z" fill="#3A3939"/><path d="M231.826 109.574c0 .55-.385 1.218-.859 1.489-.237.136-.449.153-.605.064-.157-.089-.254-.284-.254-.559 0-.55.385-1.219.863-1.494.237-.135.453-.152.605-.063.153.097.25.287.25.563z" fill="#575656"/><path d="M231.754 109.645c0 .491-.343 1.084-.766 1.329-.212.123-.402.136-.542.055-.139-.08-.228-.254-.228-.499 0-.491.342-1.084.766-1.329.211-.123.402-.135.541-.055.144.08.229.254.229.499z" fill="#3A3939"/><path d="M231.521 109.781c0 .338-.237.753-.533.922-.144.085-.279.093-.372.038-.098-.055-.157-.173-.157-.347 0-.338.237-.753.533-.922.148-.085.28-.093.377-.038.089.059.152.177.152.347z" fill="#212020"/><path d="M230.607 110.5a.51.51 0 0 1-.131.055.61.61 0 0 1-.021-.161c0-.338.237-.753.533-.922a.46.46 0 0 1 .131-.055.596.596 0 0 1 .021.16c0 .343-.237.754-.533.923z" fill="#5098D9"/><path d="M226.248 100.296c.783-.453 2.048-.453 2.831 0 .39.224.589.521.589.817v.728c0 .296-.195.592-.589.817-.783.452-2.048.452-2.831 0-.389-.225-.588-.521-.588-.817v-.728c.004-.296.199-.593.588-.817z" fill="url(#paint0_linear)"/><path d="M226.249 100.296c-.783.453-.783 1.185 0 1.634.782.453 2.048.453 2.831 0 .783-.453.783-1.185 0-1.634-.779-.453-2.049-.453-2.831 0z" fill="#B8BFC3"/><path d="M226.379 100.372c-.711.411-.711 1.075 0 1.482.711.41 1.858.41 2.569 0 .711-.411.711-1.075 0-1.482-.706-.41-1.858-.41-2.569 0z" fill="#414E52"/><path d="M218.283 116.869l.428-.47a.44.44 0 0 1 .283-.093c.347 0 .733.3.864.673.072.207.051.393-.047.516l-.453.503a.43.43 0 0 1-.3.106c-.347 0-.732-.3-.863-.673-.085-.232-.043-.444.088-.562z" fill="#212020"/><path d="M218.195 117.436c.131.372.516.672.863.672s.52-.3.389-.672c-.131-.373-.516-.673-.863-.673s-.521.3-.389.673z" fill="#3A3939"/><path d="M218.537 117.435c.06.165.233.301.39.301.156 0 .232-.136.173-.301-.059-.165-.233-.3-.389-.3-.152-.004-.233.131-.174.3z" fill="#5098D9"/><path d="M218.415 117.296l1.633-.944v-.508l-.698-.876-1.638.944v.804l.703.58z" fill="#EABD00"/><path d="M218.415 116.788l1.633-.944-.698-.876-1.638.944.703.876z" fill="#E0DC90"/><path d="M218.415 117.295l-.703-.579v-.804l.703.876v.507z" fill="#CCA500"/><path d="M214.521 112.611l.169-.055 1.397-.072-.131.098.275.897-1.71-.868z" fill="#EABD00"/><path d="M214.69 112.556l1.397-.072-.131.098-1.435.029.169-.055z" fill="#E0DC90"/><path d="M216.29 112.637l.169-.055 1.46 1.714-.131.102-1.193-.665-.305-1.096z" fill="#EABD00"/><path d="M216.459 112.582l1.46 1.714-.131.102-1.498-1.761.169-.055z" fill="#E0DC90"/><path d="M171.422 64.68s0-.919.089-3.064c.089-2.146 1.926-3.894 1.926-3.894 4.333-3.5 14.571-10.677 20.525-13.217 4.266-1.82 6.044-2.374 7.186-2.488.411-.042 1.147-.013 1.651.229l1.312.596 6.212 2.933c4.376.305 9.717 1.926 9.717 1.926 9.67 3.152 26.916 15.23 26.916 15.23 7.088 5.426 16.978 15.579 16.978 15.579 8.579 5.468 17.813 14.308 17.813 14.308 4.071 2.844 4.596 5.866 4.596 5.866s1.663 1.663 1.925 3.021c.263 1.359-.088 5.032-.088 5.032.876 2.671.482 4.025-1.575 6.391-2.056 2.365-9.365 7.613-15.315 10.283-5.951 2.671-8.883 3.809-11.905 4.025-3.022.22-9.933-3.017-9.933-3.017l-.101-.064c-.267-1.007-.44-2.133-.44-2.882 0-4.845-3.399-10.732-7.597-13.153-4.194-2.421-7.596-.457-7.596 4.384 0 .597.051 1.207.148 1.824l-39.294-22.797-.538-.36c-.182-.783-.279-1.57-.279-2.031 0-4.842-3.398-10.335-7.597-12.756-4.194-2.42-7.596-.855-7.596 3.987 0 .097.004.199.008.296-2.103-1.84-7.6-6.67-8.024-7.478-.524-1.007-1.311-3.589-1.358-4.418-.042-.834 2.234-4.291 2.234-4.291z" fill="#14AFEB"/><path d="M284.129 107.055l-.148-2.708s1.647-4.08 2.315-5.862c.034.127.047.195.047.195s.939.94 1.515 1.981c-.186 1.379-.885 4.088-3.729 6.394z" fill="#14AFEB"/><path d="M284.129 107.055l-.148-2.708s1.647-4.08 2.315-5.862c.034.127.047.195.047.195s.939.94 1.515 1.981c-.186 1.379-.885 4.088-3.729 6.394z" fill="#14AFEB"/><path d="M247.171 113.593s5.845 3.944 8.147 4.825c1.236.474 2.167.931 5.265.495 3.097-.436 6.039-1.706 6.039-1.706 9.661-3.047 17.503-10.152 17.503-10.152 2.84-2.307 3.542-5.015 3.729-6.395.19.347.343.703.41 1.041.263 1.359-.089 5.032-.089 5.032.876 2.671.483 4.025-1.574 6.39-2.057 2.366-9.365 7.614-15.316 10.284-5.95 2.671-8.883 3.809-11.904 4.025-3.022.22-9.933-3.018-9.933-3.018l-.101-.063c-.267-1.007-.441-2.133-.441-2.882 0-2.725-1.074-5.781-2.763-8.367l1.028.491z" fill="#14AFEB"/><path d="M247.171 113.593s5.845 3.944 8.147 4.825c1.236.474 2.167.931 5.265.495 3.097-.436 6.039-1.706 6.039-1.706l-2.59-1.083-7.258.618-4.296-.631-5.307-2.518z" fill="#14AFEB"/><path d="M247.171 113.593s5.845 3.944 8.147 4.825c1.236.474 2.167.931 5.265.495 3.097-.436 6.039-1.706 6.039-1.706l-2.59-1.083-7.258.618-4.296-.631-5.307-2.518z" fill="#14AFEB"/><path d="M171.422 64.68s0-.92.089-3.065c.072-1.786 1.359-3.297 1.786-3.754l7.533 4.169s10.716-.982 16.158.245c5.442 1.228 20.919 7.813 26.34 15.625 2.958 4.262 10.187 18.08 10.187 18.08s7.981 5.687 11.989 8.467c4.003 2.781 9.446 6.873 10.876 9.163.373.596.804 1.697 1.211 3.059l-.817.072-4.296-.63-5.307-2.518s5.845 3.944 8.147 4.824c.846.322 1.549.639 2.899.669.635 2.823 1.045 6.069.753 8.358-3.191-.063-9.522-3.026-9.522-3.026l-.101-.063c-.267-1.007-.441-2.133-.441-2.882 0-4.846-3.398-10.733-7.596-13.153-4.194-2.421-7.596-.457-7.596 4.384 0 .597.05 1.206.148 1.824L194.567 91.73l-.537-.36c-.182-.782-.279-1.57-.279-2.03 0-4.842-3.399-10.336-7.597-12.756-4.194-2.42-7.596-.855-7.596 3.986 0 .098.004.2.008.297-2.099-1.841-7.596-6.67-8.02-7.478-.524-1.008-1.311-3.59-1.358-4.419-.042-.833 2.234-4.29 2.234-4.29z" fill="#0082C8"/><path d="M177.271 79.724c.072-5.874 4.245-8.23 9.387-5.264 5.184 2.992 9.391 10.275 9.391 16.26 0 .634-.051 1.222-.14 1.777l-1.333-.775-.538-.36c-.182-.782-.279-1.57-.279-2.031 0-4.841-3.398-10.335-7.596-12.755-4.194-2.421-7.597-.855-7.597 3.986 0 .098.004.2.009.297-.356-.3-.8-.694-1.304-1.135z" fill="url(#paint1_linear)"/><path d="M177.271 79.724c.072-5.874 4.245-8.23 9.387-5.264 5.184 2.992 9.391 10.275 9.391 16.26 0 .634-.051 1.222-.14 1.777l-1.333-.775-.538-.36c-.182-.782-.279-1.57-.279-2.031 0-4.841-3.398-10.335-7.596-12.755-4.194-2.421-7.597-.855-7.597 3.986 0 .098.004.2.009.297-.356-.3-.8-.694-1.304-1.135zM241.814 106.094c5.184 2.993 9.39 10.276 9.386 16.264 0 .999-.118 1.892-.338 2.683-.864-.368-1.414-.626-1.414-.626l-.101-.064c-.267-1.007-.441-2.133-.441-2.882 0-4.845-3.398-10.732-7.596-13.153-4.194-2.42-7.597-.457-7.597 4.385 0 .596.051 1.206.149 1.824l-1.253-.728a14.566 14.566 0 0 1-.191-2.281c.009-5.989 4.211-8.418 9.396-5.422z" fill="#0082C8"/><path d="M241.814 106.094c5.184 2.993 9.39 10.276 9.386 16.264 0 .999-.118 1.892-.338 2.683-.864-.368-1.414-.626-1.414-.626l-.101-.064c-.267-1.007-.441-2.133-.441-2.882 0-4.845-3.398-10.732-7.596-13.153-4.194-2.42-7.597-.457-7.597 4.385 0 .596.051 1.206.149 1.824l-1.253-.728a14.566 14.566 0 0 1-.191-2.281c.009-5.989 4.211-8.418 9.396-5.422zM236.79 70.575c4.558-2.704 10.216-6.61 10.216-6.61 4.96 2.903 16.776 14.824 16.776 14.824 1.401 1.85-1.401 6.111-7.914 10.216-6.509 4.105-15.675 7.563-18.481 7.71-.22.014-.428.018-.627.018-1.95 0-2.907-.525-3.174-.698-.05-.038-.076-.055-.076-.055s-7.22-13.818-10.182-18.08l-.186-.262c4.359-1.833 9.302-4.482 13.648-7.063z" fill="#0082C8"/><path d="M233.862 95.68c-.69-1.317-7.123-13.564-10.035-17.843 4.825-2.078 9.81-4.867 13.196-6.873 3.991-2.37 8.879-5.692 10.004-6.462 4.88 3.013 15.849 14.012 16.421 14.584.228.317-.123.93-.381 1.392-.995 1.76-3.196 4.046-8.617 7.465-6.589 4.156-14.486 7.453-17.127 7.597-.004-.005-2.789.46-3.461.14z" fill="#192D4B"/><path d="M229.338 86.957c.922-1.883 3-3.356 4.731-3.356.783 0 1.409.313 1.76.876.445.711.398 1.727-.126 2.797-.889 1.812-2.844 3.242-4.533 3.348-.127-.233-.254-.47-.385-.715.059.004.123.008.19.008 1.456 0 3.289-1.324 4.088-2.958.407-.83.466-1.612.161-2.103-.22-.352-.618-.538-1.155-.538-1.456 0-3.288 1.325-4.088 2.959a3.774 3.774 0 0 0-.258.68 61.967 61.967 0 0 1-.457-.837c.021-.055.046-.11.072-.16z" fill="#192D4B"/><path d="M192.997 63.563c.783 0 1.646.093 2.59.25 4.698.79 11.346 3.656 15.35 5.818 4.003 2.163 7.804 5.404 10.796 8.934 2.992 3.534 9.64 17.58 9.64 17.58v.791l-43.391-27.512c.131-4.414 1.909-5.862 5.015-5.862zM195.773 50.744c8.363-4.406 14.554-4.969 14.554-4.969 4.376.305 9.717 1.926 9.717 1.926.199.063.398.135.601.203-2.599.584-7.364 2.053-12.747 5.646-6.509 4.342-10.275 7.516-11.511 8.603-2.023-.372-4.617-.495-7.106-.495-4.388 0-8.447.373-8.447.373s6.577-6.882 14.939-11.287z" fill="#0082C8"/><path d="M195.985 51.138c7.863-4.144 14.393-5.125 14.897-5.18 3.199.228 6.991 1.231 8.696 1.697-2.683.757-7.393 2.5-11.925 5.522-6.23 4.156-9.95 7.237-11.397 8.498-1.773-.309-4.118-.461-6.975-.461-2.924 0-5.726.165-7.266.275 2.036-1.968 7.491-6.936 13.97-10.351zM212.642 71.159c3.128 1.993 6.179 4.668 8.744 7.698 1.549 1.828 4.134 6.597 6.225 10.694-.301 1.05-.694 2.527-1.037 3.817l-15.409-9.771c.072-5.176 1.046-10.377 1.477-12.438zM192.667 71.866l-3.479-2.205c.589-2.196 1.867-4.32 2.717-5.578.335-.05.699-.076 1.088-.076v-.448.448c.504 0 1.062.042 1.693.123-.563 1.464-1.549 4.359-2.019 7.736zM195.232 64.21c.093.013.186.03.279.047 4.511.757 11.041 3.521 15.201 5.768-1.269 2.768-2.361 8.845-2.801 11.511l-14.749-9.352c.462-3.526 1.511-6.547 2.07-7.974z" fill="#192D4B"/><path d="M215.325 49.136l-4.448-3.178c3.2.228 6.992 1.231 8.697 1.697-1.117.317-2.59.804-4.249 1.48z" fill="#233135"/><path opacity=".2" d="M210.878 45.958c3.199.228 6.991 1.231 8.696 1.697-1.439.406-3.461 1.096-5.726 2.116-3.491-.817-9.035-1.025-17.474 1.168 7.686-3.974 14.013-4.926 14.504-4.981z" fill="#fff"/><path d="M263.063 80.474c-.995 1.76-3.196 4.046-8.617 7.465-6.589 4.156-14.486 7.453-17.127 7.597 0 0-2.785.465-3.457.144-.271-.512-1.41-2.683-2.874-5.4 8.151-6.297 25.506-15.261 25.506-15.261l6.954 4.063c.228.317-.123.93-.385 1.392z" fill="#192D4B"/><path d="M238.534 85.159l7.059 4.325-11.122 6.301c-.258-.012-.478-.046-.609-.11-.314-.6-1.824-3.47-3.648-6.826 6.343-4.973 8.32-3.69 8.32-3.69z" fill="#192D4B"/><path opacity=".7" d="M254.378 72.91l-10.288-6.436a279.234 279.234 0 0 0 2.933-1.976c.673.414 1.46.981 2.323 1.65 1.719 1.46 3.517 3.276 5.032 4.9v1.863z" fill="#C5D0D3"/><path opacity=".2" d="M247.023 64.498c4.88 3.013 15.849 14.012 16.42 14.583.229.317-.122.931-.381 1.392-.414.737-1.045 1.57-2.035 2.535-4.414-4.113-12.235-10.245-22.095-13.212 3.512-2.18 7.143-4.65 8.091-5.298z" fill="#fff"/><path d="M260.35 74.93c-.474-.466-.986-.965-1.528-1.486l.246-.228 1.155-.237s.47.508.495.694c.025.182-.101.952-.101.952l-.267.305z" fill="#14AFEB"/><path d="M267.967 115.502s-.664.212-1.168-.579c-.507-.792-1.134-2.104-1.134-2.104s-.757-1.109.462-1.693c1.24-.592 4.689-1.959 8.121-4.143 2.531-1.608 5.413-3.694 6.119-4.312.707-.622 1.524-.791 1.608.453.085 1.24.254 3.216.254 3.216s.11.411-.681 1.27c-.741.808-2.387 2.048-5.002 3.762-3.263 2.137-8.579 4.13-8.579 4.13z" fill="#006399"/><path d="M260.257 70.08s1.528 0 1.608.415c.08.419.08 2.404-.157 2.84-.237.435-1.091 1.29-1.091 1.29s-.022-.833-.259-1.032c-.237-.2-1.29-.377-1.29-.377s.296-1.904 1.189-3.136z" fill="#14AFEB"/><path d="M261.865 70.495c.08.419.08 2.404-.157 2.84-.237.435-1.092 1.29-1.092 1.29s-.021-.834-.258-1.032c.563-.563 1.228-2.315 1.469-3.183a.213.213 0 0 1 .038.085zM226.392 92.226l1.49-.377s.736.495.833 1.105c.098.61-.241 1.316-1.599 1.443-1.354.127-.724-2.171-.724-2.171z" fill="#0082C8"/><path d="M225.973 91.697s.601-.085 1.029.364c.427.448.601.943.579 1.587-.021.643-.258 1.028-1.138 1.265-.88.237-3.348.559-4.075-.106-.728-.664-.559-1.244-.47-1.566.089-.321 1.46-1.311 4.075-1.544z" fill="#14AFEB"/><path d="M226.447 94.913c-.88.237-3.347.559-4.075-.106a1.846 1.846 0 0 1-.432-.558c2.836.685 4.228-.462 4.66-1.16.3-.487-.335-1.054-.792-1.375.055-.004.11-.013.169-.017 0 0 .601-.085 1.029.364.427.448.601.943.58 1.587-.026.643-.259 1.028-1.139 1.265z" fill="#0082C8"/><path d="M270.672 116.28c5.239-2.403 8.586-4.718 10.47-6.242a.352.352 0 0 1 .16-.059c.115 0 .127.25.127.355v1.418c0 .576-.537.935-.541.935-1.85 1.477-5.1 3.72-10.136 6.048-.008.004-.203.102-.368.102-.102 0-.207-.022-.207-.263v-1.549a.747.747 0 0 1 .495-.745zM263.714 114.96s.707 1.075-.419 1.401c-1.13.326-3.931 1.151-6.513.922-2.581-.228-4.257-1.252-4.257-1.252l-1.6-4.507s-.364-1.164 1.257-1.257c1.621-.089 7.004 1.506 8.278 2.035 1.269.529 2.272 1.168 3.254 2.658zM281.848 92.89c3.974 2.823 4.495 5.794 4.495 5.794s.698 1.413-.364 3.043c-1.062 1.633-1.981 2.547-1.981 2.547s-.867-2.818-1.235-3.415c-.373-.592-.246-1.138-.225-1.51.021-.335-1.269-4.601-.69-6.459z" fill="#fff"/><path d="M242.668 114.82l2.248-1.193c.152-.068.355-.042.575.085.487.279.88.96.88 1.523 0 .254-.08.44-.211.542l-2.264 1.206c-.153.063-.356.042-.572-.085-.486-.279-.88-.96-.88-1.523-.004-.267.085-.457.224-.555z" fill="#192D4B"/><path d="M240.036 113.872l1.155-.626c.424-.182.974-.123 1.579.228 1.329.771 2.408 2.637 2.408 4.173 0 .694-.22 1.202-.584 1.477l-1.21.665c-.419.177-.97.114-1.57-.233-1.329-.766-2.408-2.637-2.408-4.173 0-.719.241-1.24.63-1.511z" fill="#7D8287"/><path d="M239.406 115.388c0-1.537 1.079-2.159 2.408-1.393 1.328.766 2.408 2.637 2.408 4.173s-1.08 2.158-2.408 1.392c-1.329-.77-2.408-2.636-2.408-4.172z" fill="#A0A5AA"/><path d="M240.916 116.259c0-.571.402-.804.897-.516.496.283.898.977.898 1.549 0 .571-.402.804-.898.516-.495-.284-.897-.978-.897-1.549zM240.273 114.6c0-.194.135-.275.305-.177a.678.678 0 0 1 .309.533c0 .195-.14.275-.309.178a.675.675 0 0 1-.305-.534zM242.711 118.713c0-.194.139-.275.309-.177a.678.678 0 0 1 .309.533c0 .194-.14.275-.309.177a.671.671 0 0 1-.309-.533zM242.77 116.081c0-.194.14-.275.309-.177a.678.678 0 0 1 .309.533c0 .195-.14.275-.309.178a.674.674 0 0 1-.309-.534zM240.303 117.283c0-.195.139-.275.309-.178a.687.687 0 0 1 .308.534c0 .194-.135.275-.308.177a.682.682 0 0 1-.309-.533z" fill="#192D4B"/><path d="M254.632 90.453c9.298-5.235 10.352-10.182 10.466-11.185 8.227 5.489 16.649 13.55 16.649 13.55a13.605 13.605 0 0 1 .025.017l-.008.03c-.449 1.435.186 4.194.525 5.675.088.398.169.74.165.808l-.013.165c-.034.364-.085.864.25 1.397.017.03.038.064.059.106-.279.309-.516.491-.516.491-.584-.55-1.985.351-1.985.351s-4.211 3.166-6.937 4.782c-2.725 1.621-6.534 3.551-7.736 4.118-1.202.567-1.079 1.278-1.079 1.278l-2.632 1.007a8.12 8.12 0 0 0-1.409-.732c-1.274-.529-6.657-2.129-8.278-2.035-.622.033-.952.228-1.122.452a2.167 2.167 0 0 0-.093-.025l-16.911-12.142c0-.004 10.157-2.243 20.58-8.108z" fill="#414646"/><path d="M236.016 98.057c3.449-.943 10.961-3.296 18.612-7.605 7.796-4.388 9.793-8.574 10.305-10.406 3.225 2.133 13.978 11.227 13.978 11.227s1.52 1.88 1.473 2.59c-.046.716.758 4.914.957 5.604.194.689-.864.863-.864.863-2.264.618-4.621 1.896-8.739 4.38-4.553 2.747-9.001 6.179-9.543 6.577-.542.397-1.82.309-2.556-.127-.732-.436-5.214-1.304-6.094-1.452-.88-.148-2.662-.575-2.662-.575l-14.867-11.076z" fill="#29383D"/><path d="M269.305 88.65c1.671-.965 4.384-.965 6.06 0 .838.482 1.253 1.117 1.253 1.748v2.378c0 .635-.419 1.266-1.253 1.748-1.676.965-4.389.965-6.06 0-.838-.483-1.257-1.117-1.257-1.748v-2.378c.004-.635.423-1.266 1.257-1.748z" fill="#303E42"/><path d="M269.305 88.65c-1.672.965-1.672 2.53 0 3.5 1.671.965 4.384.965 6.06 0 1.672-.965 1.672-2.531 0-3.5-1.672-.97-4.384-.97-6.06 0zM279.284 94.88a1.016 1.016 0 0 0-.148-.873l-1.101-1.375a.626.626 0 0 0-.761-.148l-3.983 2.21c-.245.135-.275.397-.068.587l4.114 3.72c.207.186.453.123.542-.14l1.405-3.982z" fill="#3D4B4F"/><path d="M273.088 95.002c0 .097.042.194.136.275l4.113 3.72c.207.186.453.122.542-.14l1.401-3.978c.016-.055.029-.114.038-.178l-.005 2.408c.017.14.009.28-.033.398l-1.325 3.762c-.216.098-.44.203-.664.313l-4.067-3.677c-.115-.102-.157-.229-.132-.343l-.029-2.56h.025z" fill="#303E42"/><path d="M259.85 103.178c1.685 1.168 6.09 1.033 6.09 1.033l8.587-4.876s.389-.279.394-.778v4.287c-.94.529-1.985 1.151-3.179 1.87-2.226 1.342-4.422 2.844-6.153 4.08-1.075.004-4.342-.068-5.739-1.041-1.21-.838-5.023-4.169-7.084-5.988 0 0-.461-.551-.491-1.109v-4.588c.026.559.491 1.118.491 1.118 2.061 1.82 5.874 5.15 7.084 5.992z" fill="#303E42"/><path d="M252.77 95.256l10.75-5.9s.469-.46 2.526.898l8.278 7.148c1.214 1.214.203 1.934.203 1.934l-8.587 4.875s-4.405.136-6.09-1.033c-1.21-.837-5.023-4.172-7.084-5.988.004 0-1.105-1.329.004-1.934zM252.58 99.344c.237-.144.258-.406.042-.584l-4.389-3.597a.759.759 0 0 0-.825-.055l-3.648 2.23c-.237.144-.262.419-.055.605l4.114 3.716c.207.186.571.22.808.076l3.953-2.391z" fill="#3D4B4F"/><path d="M243.578 97.736c.017.072.06.144.127.203l4.114 3.716c.207.186.571.22.808.076l3.953-2.391a.363.363 0 0 0 .186-.263v3.094c-.013.097-.076.19-.19.258l-3.953 2.391a.725.725 0 0 1-.808-.076l-4.114-3.716a.387.387 0 0 1-.14-.321v-2.976l.017.005z" fill="#303E42"/><path d="M259.135 105.129c.237-.144.258-.406.042-.584l-4.388-3.597a.759.759 0 0 0-.825-.055l-3.648 2.23c-.237.144-.263.419-.055.605l4.113 3.72c.207.187.571.22.808.077l3.953-2.396z" fill="#3D4B4F"/><path d="M250.121 106.496v-2.975h.013a.39.39 0 0 0 .127.203l4.113 3.72c.207.186.571.22.808.076l3.953-2.391a.36.36 0 0 0 .186-.262v3.093c-.012.098-.076.191-.19.259l-3.225 1.95a73.274 73.274 0 0 0-2.361-.457c-.034-.004-.072-.012-.11-.016l-3.183-2.878c-.097-.098-.144-.212-.131-.322zM272.585 98.197l-4.634-4.025.296-.16 4.816 4.185-9.273 5.302-.186-.165 8.981-5.137z" fill="#303E42"/><path d="M251.056 105.917c.25-.127.275-.377.064-.559l-4.025-3.386c-.211-.177-.597-.237-.851-.122l-2.137.931c-.254.11-.283.338-.063.507l4.486 3.416c.22.169.605.203.855.076l1.671-.863z" fill="#3D4B4F"/><path d="M261.988 98.896l-2.815-2.387.263-.127 2.966 2.514-1.489.766-.157-.136 1.232-.63zM264.408 97.647l-2.818-2.382.266-.127 2.967 2.51-1.49.765-.156-.13 1.231-.636zM266.545 96.424l-2.814-2.387.263-.127 2.966 2.514-1.489.766-.157-.135 1.231-.631zM268.501 95.383L265.682 93l.267-.127 2.966 2.51-1.489.766-.157-.132 1.232-.634zM244.302 104.228c-.224-.165-.406-.5-.406-.737v-.431s.012.038.029.08.301.288.521.457l3.682 2.802c.22.169.541.351.706.406.165.055.754-.131 1.003-.258l.771-.398c.249-.127.495-.267.546-.313.055-.043.105.046.105.326v1.519c0 .279-.017.55-.038.605-.021.055-.309.237-.486.326-.178.093-.508.03-.728-.135l-5.705-4.249zM258.695 107.943c0-.376.25-.749.745-1.036.99-.572 2.598-.572 3.593 0 .495.287.745.66.745 1.036v2.171c-.834.618-1.401 1.05-1.575 1.177-.541.398-1.819.309-2.556-.127-.161-.097-.503-.212-.952-.339v-2.882z" fill="#303E42"/><path d="M259.436 106.907c-.991.571-.991 1.502 0 2.073.99.572 2.598.572 3.593 0 .99-.571.99-1.502 0-2.073-.995-.576-2.599-.576-3.593 0z" fill="#3D4B4F"/><path d="M254.421 94.668c.977-.563 2.56-.563 3.538 0 .486.283.732.651.732 1.02v.364c0 .368-.246.74-.732 1.02-.978.562-2.561.562-3.538 0-.487-.284-.732-.652-.732-1.02v-.364c0-.368.245-.74.732-1.02z" fill="#303E42"/><path d="M254.421 94.668c-.978.563-.978 1.477 0 2.044.977.563 2.56.563 3.538 0 .977-.563.977-1.477 0-2.044-.974-.563-2.561-.563-3.538 0z" fill="#3D4B4F"/><path opacity=".2" d="M236.016 98.057c3.449-.943 10.961-3.296 18.612-7.605 7.796-4.388 9.793-8.574 10.305-10.406 3.225 2.133 13.978 11.227 13.978 11.227s.292.36.618.83c-2.704 1.73-25.641 15.963-27.216 16.154-.825.101-3.817-1.537-7.52-3.661l-8.777-6.539z" fill="#000"/><path d="M234.052 98.557l13.327-1.671s.736-.195 1.18-.64c.445-.444 3.936-2.556 6.149-2.801 2.214-.245 6.001-1.13 7.28-2.264 0 0 9.098-5.654 11.015-6.835 1.918-1.18 6.687-3.445 6.738-4.376.051-.935-.69-1.083-.567-1.549.122-.465.122-.761.122-.761s-4.477-1.232-14.41.838c0 0-12.738 7.13-17.804 10.182-5.065 3.051-11.117 7.033-11.117 7.033s-1.519 1.173-1.913 2.844z" fill="#14AFEB"/><path d="M240.099 94.474c7.576-2.311 15.443-3.15 17.462-3.543 2.014-.393 5.595-.478 5.595-.478l-1.169.728c-1.011.893-3.584 1.634-5.709 2.027-5.692-.982-16.179 1.266-16.179 1.266zM279.174 78.439c-.093.448.618.609.571 1.527-.008.174-.178.39-.461.635-.038-.537-.254-1.058-.868-1.325-1.489-.651-9.911-.287-13.301.292 2.171-.406 10.588-1.887 14.059-1.13z" fill="#0082C8"/><path d="M265.115 79.573c-.334.063-.521.101-.521.101a6.4 6.4 0 0 1 .521-.101z" fill="#97051B"/><path d="M216.455 113.733a.352.352 0 0 0 .322-.487l-6.378-15.007a.352.352 0 0 0-.457-.186.351.351 0 0 0-.186.457l6.378 15.011a.35.35 0 0 0 .321.212z" fill="#C8CDD2"/><path d="M209.681 98.079a.64.64 0 0 1 .541-.208c.093.017.153.06.174.115l1.045 2.556c.021.055.004.127-.055.199a.643.643 0 0 1-.542.207c-.093-.017-.152-.059-.169-.114l-1.049-2.556c-.017-.06 0-.128.055-.2z" fill="#414E52"/><path d="M209.68 98.079c-.119.144-.064.283.118.313a.637.637 0 0 0 .542-.208c.119-.144.064-.283-.118-.313a.646.646 0 0 0-.542.208z" fill="#758286"/><path d="M236.016 134.943c-6.082 0-11.012 1.803-11.012 4.021 0 .918.842 1.765 2.256 2.437h-.004s1.43 1.109.211 2.028c-1.219.918-2.531 4.346-.084 4.596 2.446.253 5.484-2.519 5.654-2.544.165-.025 2.416-1.727 2.416-1.727l.025-.778c.178.004.356.004.534.004 6.081 0 11.011-1.803 11.011-4.025 0-2.221-4.926-4.012-11.007-4.012z" fill="#0032A5"/><path d="M237.285 117.766a.55.55 0 0 0-.05-.144.903.903 0 0 0 .008-.241c-.046-.457-.017-1.689.224-1.647.149.026.132.17.157.326.212-.584.554-1.1 1.096-1.066h.009c.088 0 .177.025.275.084.372.237.232.876-.203 1.664a14.445 14.445 0 0 0-.707 1.527c-.347-.059-.749-.186-.809-.503z" fill="#FDD1D0"/><path d="M231.987 121.646c.173 1.033.102 2.379 1.735 1.448 1.629-.932 4.088-4.431 4.423-4.867.334-.436-.504-1.359-.919-1.075-1.024.698-3.741 2.619-5.387 3.787.127.331.148.707.148.707z" fill="url(#paint2_linear)"/><path d="M229.786 113.686c-.647.14-1.866 1.151-.228 4.528 1.638 3.377 2.662 5.155 3.043 5.189.38.038 2.746-.093 1.312-3.399-.893-2.048-2.121-6.754-4.127-6.318z" fill="url(#paint3_linear)"/><path d="M238.085 138.329c1.172-.634 3.026-.351 4.055-.304 1.032.046 1.007.939.232 1.451-.774.516-1.853.868-2.861 1.244-1.007.377-2.509.728-2.509-.609.008-1.337 1.083-1.782 1.083-1.782z" fill="#2E373A"/><path d="M237.163 116.145c-1.617-1.257-8.21-5.053-8.722-.275-.512 4.778.275 11.926.194 12.84-.084.918 3.949 3.813 8.092 2.014.068-1.976 2.708-12.814.436-14.579z" fill="#F7C200"/><path d="M236.375 131.118s2.548-2.378 3.077-.703c.529 1.676.593 8.122.593 8.122s-.699 1.527-2.057.719c-.169-2.797-.931-5.637-.931-5.637l-.682-2.501z" fill="#1B5B8A"/><path d="M228.407 134.41c.143 3.166 4.325 2.857 4.325 2.857l.74 5.971s-5.353 3.288-6.081 4.795c.817.99 2.184 1.05 2.184 1.05l7.812-4.19v-18.507l-8.76 2.298c-.005.004-.364 2.62-.22 5.726z" fill="#216EA6"/><path d="M237.819 123.386c-.385 3.17-1.058 6.357-1.096 7.343-4.144 1.794-8.172-1.101-8.092-2.015.068-.728-.415-5.366-.364-9.636.11-.178.19-.36.216-.529a9.856 9.856 0 0 1 1.858-4.977c.529-.084.77-.11 1.392.03-.135.076-.309.195-.652.478-.347.279-1.151 1.418-1.151 3.957.906 1.1 3.128 1.003 3.128 1.003.406-2.954 1.392-3.441 2.056-4.173.301.161.584.322.843.478-1.075 1.274-1.397 4.076-1.27 5.43.119 1.198 2.218 2.222 3.132 2.611z" fill="#216EA6"/><path d="M235.508 113.318s-.808.516-.47 1.515c-.981.064-2.124.368-2.882-.22-1.13-.872-.465-.829-.169-1.198.423-.524.161-.893.161-.893l3.36.796z" fill="#F4BEBE"/><path d="M237.074 109.488s-.351 2.328-.775 3.331c-.423 1.003-.778 1.316-1.946.749-1.168-.567-3.052-2.518-2.531-3.398.516-.876 3.432-3.602 5.252-.682z" fill="#FDD1D0"/><path d="M237.717 109.357c-.161 1.028-.956 1.274-1.447 1.49l-.487.22s-.025 1.392-1.244 2.052c-1.223.66-1.735.457-2.501-.262-.766-.72-.986-1.888-.631-2.933.356-1.045.969-3.064 3.132-2.962 2.158.106 3.432.774 3.178 2.395z" fill="#3B2A00"/><path d="M235.512 112.154s.11-.897-.423-.698c-.529.199-.838 1.011-.381 1.38.461.364.906.097.804-.682z" fill="#FDD1D0"/><path d="M236.867 110.364l2.086-1.033s1.443-.487.529-1.671c-.918-1.185-1.697-1.211-2.222-1.029-.525.182-1.803.453-1.803.453l1.41 3.28z" fill="#F7C200"/><path d="M236.147 110.999c-1.011.453-2.467 1.066-4.304-.364-1.617-1.261.33-3.826 1.735-4.046.859-.135 3.047-.368 3.898 1.532.855 1.9-1.329 2.878-1.329 2.878z" fill="#F7C200"/><path d="M243.701 120.157a.444.444 0 0 0-.051-.144.899.899 0 0 0 .009-.241c-.047-.457-.017-1.688.224-1.646.148.025.131.169.157.326.211-.584.554-1.1 1.096-1.067h.008a.52.52 0 0 1 .275.085c.373.237.233.876-.203 1.663a14.864 14.864 0 0 0-.707 1.528c-.342-.059-.749-.186-.808-.504z" fill="#FDD1D0"/><path d="M238.407 124.038c.173 1.032.101 2.378 1.735 1.447 1.629-.931 4.088-4.431 4.423-4.867.334-.436-.504-1.358-.919-1.075-1.024.699-3.741 2.62-5.387 3.788.123.33.148.707.148.707z" fill="#F7C200"/><path d="M236.202 116.078c-.648.139-1.866 1.151-.229 4.528 1.638 3.377 2.662 5.155 3.043 5.188.381.038 2.747-.093 1.312-3.398-.893-2.048-2.12-6.754-4.126-6.318z" fill="#F7C200"/><path d="M228.859 145.134c1.02-.33 2.303.923.974 3.149s-2.467 3.102-3.132 2.929c-.668-.17-.029-2.904.233-3.45.267-.537.762-2.251 1.925-2.628z" fill="#2E373A"/><path d="M216.426 132.925h-.005c0-.004 0 0 .005 0zm-3.538-.275c.004 0 .004 0 0 0 .004 0 .004 0 0 0z" fill="#636C9E"/><path d="M216.455 132.836l-.004-.004c-.004 0-.004-.004-.008-.004 0 0 .004 0 .008.004l-.47-.275a.472.472 0 0 1 .005-.817l.254-.144c.004 0 .004-.004.004-.004.004-.004.008-.004.012-.009.005 0 .005-.004.009-.004.004-.004.008-.004.013-.008l.008-.009c.004-.004.009-.008.009-.012l.008-.009c.004-.004.004-.008.008-.013 0-.004.005-.008.005-.008.004-.004.004-.009.008-.017 0-.004.004-.009.004-.013s.005-.012.005-.017c0-.004.004-.008.004-.012 0-.005 0-.013.004-.017l2.188-1.261.271.101c.004 0 .008.004.013.004.012.005.029.013.042.017.004 0 .004 0 .008.005.009 0 .013.004.022.004l.016.004a.102.102 0 0 0 .034.004h.068c.009 0 .017 0 .03-.004.004 0 .008-.004.017-.004a.03.03 0 0 0 .021-.009c.004 0 .008-.004.017-.004.004 0 .008-.004.012-.004l.017-.009.999-.579c.114-.047.186-.17.186-.356 0-.334-.237-.741-.529-.91-.135-.08-.262-.093-.355-.046l-1.663.448a.503.503 0 0 0-.085.021.186.186 0 0 0-.038.022l-1.007.579-.005.005s-.004.004-.008.004c-.004.004-.008.008-.013.008-.004.005-.008.005-.008.009-.009.008-.021.017-.03.029l-.004.005c-.009.008-.013.017-.021.025-.004.004-.004.008-.009.013l-.012.025c-.005.004-.005.013-.009.017a.06.06 0 0 0-.008.025c-.005.009-.005.013-.005.022-.004.008-.004.016-.008.029 0 .009-.004.013-.004.021 0 .005-.004.009-.004.017 0 .009 0 .017-.005.026l-.038.317-2.183 1.257c-.005 0-.005 0-.009-.004-.004 0-.008-.004-.013-.004-.004 0-.008-.005-.017-.005-.004 0-.008 0-.012-.004-.005 0-.009 0-.013-.004h-.051c-.004 0-.008.004-.012.004-.005 0-.009 0-.009.004-.004 0-.008.005-.013.005-.004 0-.004.004-.012.004l-.123.067-.817-.469s-.004 0-.004-.005c-.004-.004-.009-.004-.013-.008-.004 0-.008-.004-.008-.004-.004 0-.009-.004-.013-.004s-.008-.005-.008-.005c-.005 0-.009 0-.013-.004h-.072l-.017.004c-.004 0-.008 0-.013.005-.004 0-.004.004-.008.004l-2.298-1.325-.038-.313c0-.008 0-.017-.004-.025 0-.005 0-.009-.005-.017 0-.009-.004-.017-.004-.021 0-.009-.004-.017-.008-.03 0-.009-.005-.013-.005-.021-.004-.009-.008-.017-.008-.026-.004-.004-.004-.012-.008-.017l-.013-.025c-.004-.004-.004-.008-.009-.013-.008-.008-.012-.017-.021-.025l-.004-.004c-.009-.009-.017-.021-.03-.03-.004-.004-.008-.004-.008-.008a.048.048 0 0 0-.017-.013l-.004-.004-.005-.005-1.007-.579a.283.283 0 0 0-.156-.047.473.473 0 0 0-.199.051l-1.604.423a.509.509 0 0 0-.178.068c-.292.169-.529.575-.529.91 0 .186.072.309.186.355l.999.58.017.008c.004 0 .008.005.013.005.004 0 .008.004.017.004.008.004.017.004.021.008.004 0 .008.005.017.005.008 0 .017.004.029.004h.068c.008 0 .021-.004.034-.004.004 0 .013-.005.017-.005.008 0 .013-.004.021-.004.004 0 .004 0 .008-.004.013-.004.03-.009.043-.017.004 0 .008-.004.012-.004l.271-.102 2.298 1.325v.008l.013.047c0 .004 0 .004.004.008a.09.09 0 0 0 .021.034l.005.004c.008.009.017.022.029.03.009.004.017.013.03.017l.135.076a.476.476 0 0 1 .013.817c-.004 0-.004.004-.008.004-.005 0-.009.004-.017.013l-.009.008c-.004.004-.004.004-.008.013 0 0-.005.004-.005.008l-.008.009c-.004.004-.004.008-.009.013 0 .004-.004.004-.004.008a.258.258 0 0 0-.012.034v.008c-.005.009-.005.022-.009.034l-2.272 1.312-.593-.055a.3.3 0 0 0-.152.021.203.203 0 0 0-.038.021l-1.008.58c-.004 0-.004.004-.008.004l-.009.005c-.088.059-.143.169-.143.33 0 .334.237.74.529.91.088.05.169.072.245.072a.247.247 0 0 0 .11-.026s.017-.008.021-.012l1.651-.441a.295.295 0 0 0 .063-.017l.017-.004.017-.008.999-.58a.28.28 0 0 0 .144-.144l.237-.533 2.221-1.282s1.194.689 1.198.694l.021.012c.005 0 .005.005.009.005.008.004.017.004.029.008.009 0 .022.004.034.004h.038c.005 0 .009 0 .013-.004.004 0 .004 0 .008-.004.005 0 .009 0 .013-.004.004 0 .009-.005.017-.005l1.541.889.317.245s.199.453.203.449a.267.267 0 0 0 .144.144l.999.58.017.008a.281.281 0 0 0 .19.017l.009.009 1.777-.491a.679.679 0 0 0 .123-.055c.292-.17.529-.576.529-.91 0-.161-.055-.275-.144-.33l-.009-.005c-.004 0-.004-.004-.008-.004l-1.007-.58c-.013-.008-.026-.016-.038-.021-.047-.021-.098-.029-.153-.021l-.592.055-1.807-1.041c0-.004 0-.013-.005-.017V132.916v-.008c0-.004 0-.004-.004-.008 0-.005-.004-.009-.004-.009 0-.004-.004-.008-.004-.013 0 0 0-.004-.004-.004 0-.004-.005-.004-.005-.008-.004-.005-.004-.009-.008-.013 0 0-.004-.004-.004-.008l-.013-.013-.047.004zm-.029-.013h-.004c0-.004 0 0 .004 0zm-2.231 1.075v0z" fill="#0032A5"/><path d="M209.481 128.426c-.013-.008-.025-.016-.038-.021-.093-.042-.22-.029-.356.047-.292.169-.529.575-.529.91 0 .186.072.309.187.355l1.015.588.741-1.29-1.02-.589z" fill="#F0F0F0"/><path d="M210.645 129.345c0 .334-.237.74-.529.91-.292.169-.529.033-.529-.301 0-.334.237-.74.529-.91.292-.165.529-.034.529.301z" fill="url(#paint4_linear)"/><path d="M210.294 129.374a.037.037 0 0 0-.017-.008c-.043-.022-.102-.013-.165.021a.534.534 0 0 0-.246.423c0 .085.034.144.085.165l9.065 5.226.343-.596-9.065-5.231z" fill="#F0F0F0"/><path d="M219.426 134.753c0 .157-.11.343-.245.423-.136.076-.246.017-.246-.139 0-.157.11-.343.246-.424.135-.076.245-.012.245.14z" fill="url(#paint5_linear)"/><path d="M217.949 134.47a.61.61 0 0 1 .246-.423c.055-.039.106-.047.148-.03l.592-.055-.689 1.189-.237-.533c-.038-.026-.06-.076-.06-.148z" fill="#C8CDD2"/><path d="M219.126 134.008c-.013-.008-.026-.017-.038-.021-.093-.042-.22-.03-.356.046-.292.17-.529.576-.529.91 0 .186.072.309.186.356l1.016.588.741-1.291-1.02-.588z" fill="#F0F0F0"/><path d="M220.136 135.448c.208-.355.21-.74.004-.86-.206-.121-.541.07-.749.425-.207.355-.209.74-.003.861.206.12.541-.07.748-.426zM210.116 129.044c.262-.152.482-.055.52.211 0 .009 0 .017.005.026l.038.313c-.047-.034-.114-.034-.191.008a.538.538 0 0 0-.245.419c0 .081.029.14.08.161l-.271.102-.063.025c-.233.068-.402-.072-.402-.355.004-.335.237-.741.529-.91z" fill="#C8CDD2"/><path d="M219.532 135.773l.457-.262.237-.529-.228-.271-.457.262-.237.529.228.271z" fill="#7D8287"/><path d="M219.371 128.426c.013-.008.026-.016.038-.021.093-.042.22-.029.356.047.292.169.529.575.529.91 0 .186-.072.309-.187.355l-1.015.588-.741-1.29 1.02-.589z" fill="#F0F0F0"/><path d="M218.203 129.345c0 .334.237.74.529.91.292.169.529.033.529-.301 0-.334-.237-.74-.529-.91-.292-.165-.529-.034-.529.301z" fill="url(#paint6_linear)"/><path d="M218.556 129.374a.03.03 0 0 1 .017-.008c.042-.022.101-.013.165.021a.535.535 0 0 1 .245.423c0 .085-.034.144-.085.165l-9.065 5.226-.342-.596 9.065-5.231z" fill="#F0F0F0"/><path d="M209.422 134.753c0 .157.11.343.245.423.136.076.246.017.246-.139a.543.543 0 0 0-.246-.424c-.135-.076-.245-.012-.245.14z" fill="url(#paint7_linear)"/><path d="M210.899 134.47a.61.61 0 0 0-.246-.423c-.055-.039-.105-.047-.148-.03l-.592-.055.69 1.189.237-.533c.042-.026.063-.076.059-.148z" fill="#C8CDD2"/><path d="M209.722 134.008c.013-.008.026-.017.038-.021.093-.042.22-.03.356.046.292.17.529.576.529.91 0 .186-.072.309-.186.356l-1.016.588-.741-1.291 1.02-.588z" fill="#F0F0F0"/><path d="M209.464 135.874c.206-.12.204-.506-.003-.861-.208-.355-.543-.546-.749-.425-.206.12-.204.506.003.861.208.355.543.545.749.425zM218.732 129.044c-.262-.152-.482-.055-.52.211 0 .009 0 .017-.005.026l-.038.313c.047-.034.115-.034.191.008a.538.538 0 0 1 .245.419c0 .081-.029.14-.08.161l.271.102.063.025c.233.068.402-.072.402-.355 0-.335-.237-.741-.529-.91z" fill="#C8CDD2"/><path d="M209.32 135.773l-.461-.262-.233-.529.225-.271.461.262.233.529-.225.271z" fill="#7D8287"/><path d="M212.922 130.948c.089-.05.169-.055.224-.016l1.024.588c.144.08.318.084.466.004l1.197-.664c.055-.03.132-.026.212.021.165.097.3.326.3.516 0 .106-.038.174-.101.199l-.254.144a.471.471 0 0 0-.004.817l.469.275c-.055-.03-.131-.026-.211.021a.664.664 0 0 0-.301.516c0 .085.026.144.068.178l-1.346-.779a.468.468 0 0 0-.469 0l-.889.512c.046-.034.076-.097.076-.186a.656.656 0 0 0-.3-.516c-.081-.047-.157-.051-.208-.021a.471.471 0 0 0-.008-.817l-.136-.076c-.012-.005-.021-.013-.034-.017-.046-.034-.072-.098-.072-.182a.645.645 0 0 1 .297-.517z" fill="#FF5A72"/><path d="M259.618 148.114c6.67 0 12.078-2.147 12.078-4.795s-5.408-4.795-12.078-4.795c-6.671 0-12.078 2.147-12.078 4.795s5.407 4.795 12.078 4.795z" fill="#0032A5"/><path d="M253.206 137.846h2.721c3.56-2.031 9.277-2.031 12.802 0h2.637v4.347c.038 1.375-.855 2.759-2.679 3.813-3.559 2.052-9.306 2.065-12.84.021-1.875-1.084-2.751-2.523-2.628-3.944l-.013-.005v-4.232z" fill="#101D30"/><path d="M257.455 135.172c.656-.381 1.422-.673 2.273-.872a11.313 11.313 0 0 1 2.581-.296c.44 0 .881.021 1.312.072.436.047.859.118 1.27.216.846.199 1.608.487 2.264.867.652.377 1.155.817 1.498 1.308.165.237.288.483.373.732.08.25.122.504.122.758s-.046.508-.131.757c-.085.25-.212.5-.381.732-.347.491-.855.931-1.515 1.312-.656.381-1.422.673-2.272.872a11.33 11.33 0 0 1-2.582.296c-.44 0-.88-.021-1.312-.072a10.165 10.165 0 0 1-1.27-.215c-.846-.199-1.608-.487-2.264-.868-.651-.377-1.159-.817-1.498-1.308a2.89 2.89 0 0 1-.372-.732 2.443 2.443 0 0 1-.123-.757c0-.254.047-.508.131-.758a2.77 2.77 0 0 1 .381-.732c.347-.491.855-.931 1.515-1.312zm-1.57-.906c-3.559 2.053-3.576 5.375-.042 7.415 3.534 2.04 9.285 2.031 12.84-.021 3.559-2.053 3.576-5.375.038-7.415-3.53-2.04-9.277-2.031-12.836.021z" fill="#192D4B"/><path d="M258.09 140.631h-.008a.352.352 0 0 0-.187.051 2.366 2.366 0 0 0-.059.046 2.96 2.96 0 0 1-.393-.449c-.03-.046-.06-.088-.089-.135.186.148.393.292.626.423.034.021.072.043.11.064z" fill="url(#paint8_linear)"/><path d="M266.884 140.335c.017-.025.034-.046.051-.072.25-.355.381-.727.381-1.113 0-.385-.123-.757-.368-1.113-.254-.364-.631-.694-1.122-.977a6.14 6.14 0 0 0-1.688-.648 8.176 8.176 0 0 0-1.926-.211c-.664 0-1.316.076-1.93.22a6.225 6.225 0 0 0-1.697.651c-.491.284-.872.614-1.13.982-.25.356-.381.728-.381 1.113 0 .335.093.665.28.978-1.71-1.367-1.49-3.293.656-4.533 2.378-1.375 6.225-1.379 8.586-.017 2.239 1.295 2.345 3.352.33 4.736-.016 0-.029 0-.042.004z" fill="url(#paint9_linear)"/><path d="M257.421 135.176c-2.704 1.562-2.717 4.084-.029 5.637 2.687 1.553 7.059 1.545 9.763-.017 2.704-1.561 2.717-4.084.03-5.637-2.692-1.553-7.059-1.545-9.764.017z" fill="#0082C8"/><path d="M262.291 138.106c1.064-.006 1.923-.509 1.92-1.123-.004-.615-.868-1.109-1.932-1.103-1.063.006-1.923.509-1.919 1.124.003.614.868 1.108 1.931 1.102z" fill="#192D4B"/><path d="M306.398 129.776l-1.637-.952-14.554 8.401 1.638.952 14.553-8.401z" fill="#F43459"/><path d="M299.081 119.493l-1.638-.952 7.318 10.283 1.637.953-7.317-10.284zM288.065 138.935l1.638.952c-.148.376-.144.74.004.948a.417.417 0 0 0 .127.118l-1.638-.952a.384.384 0 0 1-.126-.118c-.149-.208-.149-.568-.005-.948z" fill="#F43459"/><path d="M288.065 138.935l8.655-22.35c.148-.376.419-.715.711-.884.224-.127.436-.148.588-.059l1.638.952c-.153-.089-.364-.072-.589.059-.296.169-.567.508-.711.884l-8.654 22.35-1.638-.952z" fill="#F43459"/><path d="M298.362 117.538c.148-.377.419-.715.711-.885.296-.169.567-.148.715.06l8.752 12.298c.148.207.148.567.004.948-.148.376-.419.715-.711.884l-17.411 10.051c-.296.17-.567.148-.715-.059-.148-.207-.148-.567-.004-.948l8.659-22.349zm8.036 12.239l-7.317-10.28-7.237 18.68 14.554-8.4z" fill="#FF5A72"/><path d="M299.386 117.537c-.009-.008-.021-.012-.034-.021-.08-.038-.186-.025-.305.043a1.002 1.002 0 0 0-.453.783c0 .16.064.266.161.304l.263.148.639-1.108-.271-.149z" fill="url(#paint10_linear)"/><path d="M299.775 117.973a1 1 0 0 1-.453.783c-.249.144-.452.03-.452-.258 0-.288.203-.639.452-.783.246-.148.453-.03.453.258z" fill="url(#paint11_linear)"/><path d="M307.871 129.154c-.008-.008-.021-.013-.034-.021-.08-.038-.186-.025-.304.042a1 1 0 0 0-.453.783c0 .161.063.267.161.305l.262.148.639-1.109-.271-.148z" fill="url(#paint12_linear)"/><path d="M308.256 129.59c0 .287-.203.639-.452.783-.25.144-.453.029-.453-.259 0-.287.203-.639.453-.782.249-.149.452-.03.452.258z" fill="url(#paint13_linear)"/><path d="M291.163 138.803c-.008-.008-.021-.013-.034-.021-.08-.038-.186-.025-.304.042a1 1 0 0 0-.453.783c0 .161.063.267.161.305l.262.148.639-1.109-.271-.148z" fill="url(#paint14_linear)"/><path d="M291.552 139.235c0 .288-.203.639-.452.783-.25.144-.453.029-.453-.258a1 1 0 0 1 .453-.783c.249-.144.452-.03.452.258z" fill="url(#paint15_linear)"/><path d="M275.374 142.35c-.149.376-.144.74.004.947.034.051.08.089.127.119l1.638.952c-.017-.008-.03-.021-.047-.034.118.093.284.115.465.051l-.004.038 12.514-3.415a.793.793 0 0 0 .347-.11l17.411-10.051c.296-.169.567-.508.711-.885.148-.376.144-.74-.004-.948l-1.198-1.684-12.692 3.415s-2.586 1.494-2.581 1.494c0 0-11.969 6.911-11.969 6.907l-4.49 2.59-.232.614z" fill="#0032A5"/><path d="M306.398 129.776l-1.637-.952-14.554 8.401 1.638.952 14.553-8.401z" fill="#F43459"/><path d="M299.081 119.493l-1.638-.952 7.318 10.283 1.637.953-7.317-10.284zM288.065 138.935l1.638.952c-.148.376-.144.74.004.948a.417.417 0 0 0 .127.118l-1.638-.952a.384.384 0 0 1-.126-.118c-.149-.208-.149-.568-.005-.948z" fill="#F43459"/><path d="M288.065 138.935l8.655-22.35c.148-.376.419-.715.711-.884.224-.127.436-.148.588-.059l1.638.952c-.153-.089-.364-.072-.589.059-.296.169-.567.508-.711.884l-8.654 22.35-1.638-.952z" fill="#F43459"/><path d="M298.362 117.538c.148-.377.419-.715.711-.885.296-.169.567-.148.715.06l8.752 12.298c.148.207.148.567.004.948-.148.376-.419.715-.711.884l-17.411 10.051c-.296.17-.567.148-.715-.059-.148-.207-.148-.567-.004-.948l8.659-22.349zm8.036 12.239l-7.317-10.28-7.237 18.68 14.554-8.4z" fill="#FF5A72"/><path d="M299.386 117.537c-.009-.008-.021-.012-.034-.021-.08-.038-.186-.025-.305.043a1.002 1.002 0 0 0-.453.783c0 .16.064.266.161.304l.263.148.639-1.108-.271-.149z" fill="url(#paint16_linear)"/><path d="M299.775 117.973a1 1 0 0 1-.453.783c-.249.144-.452.03-.452-.258 0-.288.203-.639.452-.783.246-.148.453-.03.453.258z" fill="url(#paint17_linear)"/><path d="M307.871 129.154c-.008-.008-.021-.013-.034-.021-.08-.038-.186-.025-.304.042a1 1 0 0 0-.453.783c0 .161.063.267.161.305l.262.148.639-1.109-.271-.148z" fill="url(#paint18_linear)"/><path d="M308.256 129.59c0 .287-.203.639-.452.783-.25.144-.453.029-.453-.259 0-.287.203-.639.453-.782.249-.149.452-.03.452.258z" fill="url(#paint19_linear)"/><path d="M291.163 138.803c-.008-.008-.021-.013-.034-.021-.08-.038-.186-.025-.304.042a1 1 0 0 0-.453.783c0 .161.063.267.161.305l.262.148.639-1.109-.271-.148z" fill="url(#paint20_linear)"/><path d="M291.552 139.235c0 .288-.203.639-.452.783-.25.144-.453.029-.453-.258a1 1 0 0 1 .453-.783c.249-.144.452-.03.452.258z" fill="url(#paint21_linear)"/></g><defs><linearGradient id="paint0_linear" x1="229.669" y1="101.476" x2="225.663" y2="101.476" gradientUnits="userSpaceOnUse"><stop stop-color="#B9BCBE"/><stop offset="1" stop-color="#A0A3A5"/></linearGradient><linearGradient id="paint1_linear" x1="196.046" y1="82.837" x2="177.271" y2="82.837" gradientUnits="userSpaceOnUse"><stop stop-color="#fff"/><stop offset=".508" stop-color="#fff"/><stop offset="1" stop-color="#fff"/></linearGradient><linearGradient id="paint2_linear" x1="243.928" y1="114.539" x2="223.399" y2="128.107" gradientUnits="userSpaceOnUse"><stop stop-color="#FF5A72"/><stop offset="1" stop-color="#FEAE6E"/></linearGradient><linearGradient id="paint3_linear" x1="238.2" y1="133.749" x2="228.351" y2="111.198" gradientUnits="userSpaceOnUse"><stop stop-color="#FF5A72"/><stop offset="1" stop-color="#FEAE6E"/></linearGradient><linearGradient id="paint4_linear" x1="209.09" y1="129.745" x2="212.27" y2="129.455" gradientUnits="userSpaceOnUse"><stop stop-color="#D0D4F9"/><stop offset="1" stop-color="#636C9E"/></linearGradient><linearGradient id="paint5_linear" x1="218.707" y1="134.94" x2="220.18" y2="134.805" gradientUnits="userSpaceOnUse"><stop stop-color="#D0D4F9"/><stop offset="1" stop-color="#636C9E"/></linearGradient><linearGradient id="paint6_linear" x1="219.76" y1="129.745" x2="216.58" y2="129.455" gradientUnits="userSpaceOnUse"><stop stop-color="#D0D4F9"/><stop offset="1" stop-color="#636C9E"/></linearGradient><linearGradient id="paint7_linear" x1="210.143" y1="134.94" x2="208.67" y2="134.805" gradientUnits="userSpaceOnUse"><stop stop-color="#D0D4F9"/><stop offset="1" stop-color="#636C9E"/></linearGradient><linearGradient id="paint8_linear" x1="272.425" y1="131.897" x2="265.011" y2="144.737" gradientUnits="userSpaceOnUse"><stop stop-color="#D0D4F9"/><stop offset="1" stop-color="#636C9E"/></linearGradient><linearGradient id="paint9_linear" x1="272.706" y1="132.057" x2="265.291" y2="144.899" gradientUnits="userSpaceOnUse"><stop stop-color="#D0D4F9"/><stop offset="1" stop-color="#636C9E"/></linearGradient><linearGradient id="paint10_linear" x1="298.844" y1="118.457" x2="299.323" y2="117.529" gradientUnits="userSpaceOnUse"><stop stop-color="#191468"/><stop offset="1" stop-color="#383097"/></linearGradient><linearGradient id="paint11_linear" x1="298.976" y1="119.285" x2="299.433" y2="117.886" gradientUnits="userSpaceOnUse"><stop stop-color="#191468"/><stop offset="1" stop-color="#383097"/></linearGradient><linearGradient id="paint12_linear" x1="307.328" y1="130.074" x2="307.807" y2="129.146" gradientUnits="userSpaceOnUse"><stop stop-color="#191468"/><stop offset="1" stop-color="#383097"/></linearGradient><linearGradient id="paint13_linear" x1="307.46" y1="130.902" x2="307.917" y2="129.503" gradientUnits="userSpaceOnUse"><stop stop-color="#191468"/><stop offset="1" stop-color="#383097"/></linearGradient><linearGradient id="paint14_linear" x1="290.622" y1="139.72" x2="291.1" y2="138.793" gradientUnits="userSpaceOnUse"><stop stop-color="#191468"/><stop offset="1" stop-color="#383097"/></linearGradient><linearGradient id="paint15_linear" x1="290.753" y1="140.549" x2="291.21" y2="139.15" gradientUnits="userSpaceOnUse"><stop stop-color="#191468"/><stop offset="1" stop-color="#383097"/></linearGradient><linearGradient id="paint16_linear" x1="298.844" y1="118.457" x2="299.323" y2="117.529" gradientUnits="userSpaceOnUse"><stop stop-color="#191468"/><stop offset="1" stop-color="#383097"/></linearGradient><linearGradient id="paint17_linear" x1="298.976" y1="119.285" x2="299.433" y2="117.886" gradientUnits="userSpaceOnUse"><stop stop-color="#191468"/><stop offset="1" stop-color="#383097"/></linearGradient><linearGradient id="paint18_linear" x1="307.328" y1="130.074" x2="307.807" y2="129.146" gradientUnits="userSpaceOnUse"><stop stop-color="#191468"/><stop offset="1" stop-color="#383097"/></linearGradient><linearGradient id="paint19_linear" x1="307.46" y1="130.902" x2="307.917" y2="129.503" gradientUnits="userSpaceOnUse"><stop stop-color="#191468"/><stop offset="1" stop-color="#383097"/></linearGradient><linearGradient id="paint20_linear" x1="290.622" y1="139.72" x2="291.1" y2="138.793" gradientUnits="userSpaceOnUse"><stop stop-color="#191468"/><stop offset="1" stop-color="#383097"/></linearGradient><linearGradient id="paint21_linear" x1="290.753" y1="140.549" x2="291.21" y2="139.15" gradientUnits="userSpaceOnUse"><stop stop-color="#191468"/><stop offset="1" stop-color="#383097"/></linearGradient><clipPath id="clip0"><path fill="#fff" transform="translate(167 42)" d="M0 0h141.654v109.237H0z"/></clipPath></defs></svg>