<svg width="1600" height="400" fill="none" xmlns="http://www.w3.org/2000/svg" viewBox="0 0 1600 400"><g filter="url(#filter0_d)"><path fill="#F5FCFF" d="M1600 0H0v400h1600z"/></g><mask id="a" maskUnits="userSpaceOnUse" x="623" y="0" width="977" height="400"><path transform="matrix(-1 0 0 1 1600 0)" fill="#F5FCFF" d="M0 0h977v400H0z"/></mask><g mask="url(#a)"><path d="M1811.84 8.01l-221.16 12.087-412.3 43.203-76.81 45.616 349.28 203.445 293.2 27.611 67.79-331.961z" fill="#00AD00"/><path d="M1721.26 4.697S967.115 28.777 916.425 112.28C853.991 215.137 1472.9 491 1472.9 491l522.48-123.8s-828.17-206.809-790.9-269.085c38.95-65.08 809.99-83 809.99-83L1721.26 4.696z" fill="#fff"/><path d="M1531.55 450.392S919.755 205.655 975.078 112.279C1024.87 28.243 1779.91 7.401 1779.91 7.401l168.74 3.197s-771.51 22.153-809.99 87.508c-41.13 69.872 790.89 300.67 790.89 300.67l-398 51.616z" fill="#004EBB"/><path d="M1470.62 134.583h-5.63v110.662h5.63V134.583z" fill="#5F6464"/><path d="M1422.5 117.688l38.98-39.472a8.926 8.926 0 0 1 12.74 0l38.98 39.472c3.52 3.564 3.52 9.34 0 12.913l-38.98 39.463a8.925 8.925 0 0 1-12.74 0l-38.98-39.463c-3.52-3.573-3.52-9.349 0-12.913z" fill="#fff"/><path d="M1427.4 120.869l37.22-37.695a4.52 4.52 0 0 1 6.46 0l37.23 37.695c1.79 1.811 1.79 4.741 0 6.544l-37.23 37.694a4.52 4.52 0 0 1-6.46 0l-37.22-37.694c-1.79-1.812-1.79-4.741 0-6.544z" fill="#fff"/><path d="M1467.85 168.128c-1.66 0-3.22-.659-4.4-1.845l-37.22-37.694c-2.42-2.454-2.42-6.444 0-8.906l37.22-37.694a6.134 6.134 0 0 1 4.39-1.845c1.66 0 3.23.651 4.4 1.845l37.23 37.694a6.278 6.278 0 0 1 1.82 4.449 6.34 6.34 0 0 1-1.82 4.457l-37.23 37.694a6.131 6.131 0 0 1-4.39 1.845z" fill="#004EBB"/><path d="M1485.15 141.61c9.55-9.674 9.55-25.357 0-35.031a24.252 24.252 0 0 0-34.6 0c-9.56 9.674-9.56 25.357 0 35.031a24.253 24.253 0 0 0 34.6 0z" fill="#fff"/><path d="M1489.4 131.71c4.16-12.052-2.12-25.24-14.04-29.439-11.9-4.207-24.92 2.162-29.08 14.215-4.15 12.053 2.13 25.241 14.04 29.439 11.91 4.207 24.94-2.162 29.08-14.215z" fill="#fff"/><path d="M1445.52 128.881c.8 3.84 2.53 7.329 4.96 10.209 3.66-16.519 18.22-28.872 35.64-28.872-.35-.467-.71-.901-1.09-1.344a36.667 36.667 0 0 0-6.74-.643c-14.38.009-26.81 8.422-32.77 20.65z" fill="#0046B4"/><path d="M1457.6 144.757a22.513 22.513 0 0 0 10.25 2.462c12.61 0 22.83-10.35 22.83-23.121 0-4.374-1.2-8.464-3.28-11.944-15.85 2.896-28.15 16.151-29.8 32.603zM1473.72 105.602c3.21 0 6.32.426 9.28 1.21-4.03-3.622-9.34-5.834-15.16-5.834-10.88 0-19.98 7.712-22.27 18.029 6.72-8.188 16.83-13.405 28.15-13.405z" fill="#46B400"/></g><g clip-path="url(#clip0)"><path d="M1303.66 335.737l-217.5-122.942c-12.22-7.043-12.22-24.635 0-31.678l45.38-26.159 261.59 148.351-56.25 32.42a33.274 33.274 0 0 1-33.22.008z" fill="#0032A5"/><path d="M1396.32 225.242s-1.46-1.016-1.85-1.182c-.47-.2-.77-.724-.77-1.499v-11.189c0-1.407.99-3.122 2.21-3.83l3.47-1.998c1.06-.616 2.02-.633 2.68-.15.56.408 1.75 1.116 1.75 1.116l-7.49 18.732z" fill="#262729"/><path d="M1401.2 223.036l-3.44 1.981c-1.23.708-2.23.134-2.23-1.29v-11.189c0-1.407.99-3.122 2.22-3.83l3.46-1.998c1.98-1.141 3.58-.217 3.58 2.065v8.059c-.01 2.289-1.61 5.061-3.59 6.202z" fill="#36373B"/><path d="M1186.75 193.98l-29.28 16.867v18.766l29.28-17.833v-17.8zM1336.65 276.418l-29.28 16.876v18.757l29.28-17.824v-17.809z" fill="#808285"/><path d="M1334.76 294.002c-4.38-2.523-8.34-2.756-11.19-1.091l-8.95 5.187c2.85-1.657 25.1 36.623 22.28 38.264l8.94-5.187c2.83-1.64 4.58-5.12 4.59-10.066.02-9.973-6.99-22.104-15.67-27.107z" fill="url(#paint0_linear)"/><path d="M1324.2 292.578c-.22.1-.43.208-.64.325.19-.1.41-.217.64-.325z" fill="#231F20"/><path d="M1350.73 318.936c-.05-.691-.12-1.548-.4-2.997-.21-1.115-.26-1.299-.76-3.047 0-.017-.37-1.307-1.08-3.039a33.742 33.742 0 0 0-1.39-2.98 38.604 38.604 0 0 0-1.65-2.872c-.71-1.108-.95-1.416-1.91-2.706-.01-.009-.93-1.216-2.13-2.489a43.29 43.29 0 0 0-1.11-1.116c-.36-.341-.86-.783-1.22-1.116a16.42 16.42 0 0 0-1.38-1.099c-.68-.483-1.6-1.107-2.32-1.54a15.41 15.41 0 0 0-1.58-.824c-.5-.208-1.15-.5-1.67-.666a19.09 19.09 0 0 0-1.92-.508c-.47-.092-1.1-.15-1.57-.191-.63-.059-1.82.025-2.37.149-.92.209-.92.209-1.52.433-.18.067-.37.15-.57.25 2.8-1.282 6.5-.916 10.56 1.424 8.68 5.003 15.7 17.133 15.68 27.099-.02 4.945-1.77 8.434-4.59 10.065.55-.333.96-.599 1.64-1.24a9.289 9.289 0 0 0 1.22-1.465c.38-.575.69-1.091 1.1-2.115.35-.866.57-1.798.66-2.273.32-1.523.42-3.397.28-5.137z" fill="#303030"/><path d="M1325.81 299.188c-4.38-2.522-8.34-2.755-11.19-1.09-.75.449-3.03 1.831-4.24 5.586-.74 2.315-.73 4.537-.73 5.262 0 .624.05 1.64.22 2.905.22 1.624.58 2.989.58 3.006.24.916.59 2.123.91 3.014.62 1.723 1.24 3.022 1.25 3.03.22.441.49 1.049.73 1.482.24.433.55 1.024.8 1.457.25.433.6.991.86 1.415.4.65 1.45 2.148 1.91 2.706.31.391.72.932 1.06 1.307.63.708 1.5 1.632 2.17 2.298.35.35.85.791 1.23 1.115.34.292.81.658 1.16.941 0 .009 1.19.933 2.53 1.699.47.266 1.1.591 1.58.816.31.149.76.324 1.08.457.01.009 1.13.458 2.5.716.82.159 1.62.225 2.39.2a9.402 9.402 0 0 0 2.24-.324c.25-.067.58-.167.82-.267.37-.15.85-.391 1.21-.574 2.82-1.64 4.57-5.12 4.59-10.066.04-9.957-6.98-22.087-15.66-27.091z" fill="#262729"/><path d="M1324.91 300.745c-8.19-4.72-14.85-.932-14.88 8.459-.03 9.391 6.59 20.83 14.78 25.551 8.18 4.72 14.84.924 14.87-8.459.03-9.399-6.59-20.838-14.77-25.551z" fill="#1F2023"/><path d="M1336.09 326.271c0 .242-.01.516-.03.808-.13 2.306-.92 6.094-4.59 6.094-1.42 0-3.1-.533-4.86-1.549-7.06-4.071-12.99-14.336-12.98-22.428.01-2.073.47-6.91 4.62-6.91.34 0 .68.025 1.04.091 1.17.183 2.47.683 3.82 1.457 7.06 4.088 12.99 14.353 12.98 22.437z" fill="#8C8F98"/><path d="M1328.46 320.476c0 .075 0 .167-.01.258-.04.741-.29 1.957-1.47 1.957-.46 0-.99-.175-1.56-.5-2.26-1.307-4.17-4.595-4.16-7.193 0-.666.15-2.214 1.48-2.214.11 0 .22.008.33.025.38.058.8.216 1.23.466 2.26 1.315 4.16 4.612 4.16 7.201z" fill="#1F2023"/><path d="M1186.41 208.25c-4.37-2.523-8.33-2.756-11.19-1.091l-8.95 5.187c2.86-1.657 25.11 36.624 22.28 38.264l8.95-5.187c2.82-1.64 4.57-5.12 4.59-10.066.02-9.973-6.99-22.104-15.68-27.107z" fill="url(#paint1_linear)"/><path d="M1175.86 206.826c-.22.1-.44.208-.64.325.19-.1.41-.217.64-.325z" fill="#231F20"/><path d="M1202.4 233.184c-.05-.691-.13-1.548-.4-2.997-.22-1.115-.27-1.298-.76-3.047 0-.016-.37-1.307-1.08-3.039a36.865 36.865 0 0 0-1.39-2.98 38.921 38.921 0 0 0-1.66-2.872c-.71-1.108-.94-1.416-1.91-2.706 0-.008-.92-1.216-2.13-2.489-.32-.342-.76-.791-1.1-1.116-.36-.341-.86-.783-1.23-1.116-.39-.349-.94-.791-1.37-1.099a45.027 45.027 0 0 0-2.32-1.54c-.45-.266-1.06-.599-1.59-.824-.5-.208-1.14-.5-1.66-.666-.57-.183-1.34-.391-1.92-.508-.47-.092-1.1-.15-1.58-.191-.62-.059-1.81.025-2.36.149-.93.209-.93.209-1.53.433-.17.067-.36.15-.56.25 2.8-1.282 6.49-.916 10.55 1.424 8.69 5.003 15.71 17.134 15.67 27.099-.01 4.945-1.76 8.434-4.58 10.065.55-.333.96-.599 1.64-1.24a9.289 9.289 0 0 0 1.22-1.465c.37-.575.69-1.091 1.1-2.115.35-.866.56-1.798.66-2.273.32-1.523.42-3.397.29-5.137z" fill="#303030"/><path d="M1177.46 213.436c-4.37-2.522-8.33-2.755-11.19-1.09-.75.449-3.03 1.831-4.23 5.586-.74 2.315-.73 4.537-.73 5.262a21 21 0 0 0 .22 2.905c.21 1.624.57 2.989.57 3.006.24.916.6 2.123.92 3.014.61 1.723 1.24 3.022 1.25 3.03.21.441.49 1.049.73 1.482.24.433.55 1.024.8 1.457.25.433.6.991.86 1.415.39.65 1.45 2.148 1.9 2.706.32.391.73.933 1.07 1.307.63.708 1.5 1.632 2.17 2.298.35.35.85.791 1.23 1.116.34.291.8.657 1.15.94.01.009 1.19.933 2.54 1.699.47.266 1.1.591 1.58.816.31.149.75.324 1.08.458.01.008 1.13.457 2.5.716.82.158 1.62.224 2.39.199a9.246 9.246 0 0 0 2.23-.324c.25-.067.59-.167.83-.267.37-.15.85-.391 1.2-.574 2.82-1.64 4.57-5.12 4.59-10.066.05-9.957-6.97-22.087-15.66-27.091z" fill="#262729"/><path d="M1176.56 214.985c-8.18-4.72-14.84-.932-14.87 8.459-.03 9.391 6.59 20.83 14.77 25.551 8.19 4.72 14.85.924 14.87-8.459.04-9.391-6.58-20.83-14.77-25.551z" fill="#1F2023"/><path d="M1187.75 240.519c0 .242-.01.516-.03.808-.13 2.306-.92 6.094-4.6 6.094-1.41 0-3.09-.533-4.85-1.549-7.06-4.071-13-14.336-12.98-22.428.01-2.073.47-6.91 4.62-6.91.34 0 .68.025 1.03.091 1.18.183 2.48.683 3.83 1.457 7.06 4.088 12.99 14.353 12.98 22.437z" fill="#8C8F98"/><path d="M1180.09 234.7c0 .075 0 .166-.01.258-.04.733-.29 1.94-1.46 1.94-.45 0-.98-.167-1.54-.492-2.24-1.29-4.13-4.554-4.12-7.126 0-.658.15-2.19 1.46-2.19.11 0 .22.009.33.025.37.059.78.217 1.21.467 2.24 1.29 4.13 4.554 4.13 7.118z" fill="#1F2023"/><path d="M1267.27 288.016l-4.23 2.439-1.32-88.108 6.76 3.563-1.21 82.106zM1426.66 279.207c-.99 5.187-2.7 11.006-7.12 15.927-.79.882-56.6 33.235-61.88 35.907L1345 301.478l-76.45-98.573 71.73-43.176 32.75 18.874c.91.533 1.9 1.232 2.79 1.906 1.79 1.341 3.92 3.863 6.61 7.826.7 1.024 1.42 2.14 2.2 3.355 5.25 8.234 12.32 21.089 22.76 39.788 3.06 4.121 5.97 8.034 8.57 11.655 5.36 7.476 9.37 13.704 10.54 17.925.58 2.048 1.83 9.457.16 18.149z" fill="#EBEEF4"/><path d="M1355.04 302.302c-7.3-5.503-13.57-16.426-20.67-28.573-18.6-31.803-26.18-46.947-31.56-50.968-.9-.674-1.88-1.382-2.8-1.906l-32.74-18.874v86.035s19.99 11.414 40.1 23.111c0 0-.69-23.236 11.94-16.959l11.18 6.378c13.39 8.383 12.57 31.22 12.57 31.22 5.15 2.489 14.84-.591 16.95-1.598 18-8.576 53.4-28.732 59.54-35.026 7.08-7.268 8.93-19.498 8.33-25.384 0 0-6.27 8.975-29.5 21.979-27.12 15.169-36.36 15.827-43.34 10.565z" fill="#C9D0D8"/><path d="M1328.01 277.659l-36.51-21.047c-7.36-4.237-13.33-14.552-13.33-23.036v-12.963c0-2.073 1.45-2.914 3.25-1.873l17.7 10.199c2.97 1.715 5.82 4.753 7.89 8.417l22.59 36.915c1.36 2.397.36 4.512-1.59 3.388z" fill="#EBEEF4"/><path d="M1323.97 271.207L1291.5 252.5c-7.36-4.238-13.33-14.553-13.33-23.037V216.5c0-2.073 1.45-2.913 3.25-1.873l17.7 10.199c2.97 1.715 6.61 4.837 10.23 11.439 7.31 13.287 16.21 31.562 16.21 31.562 1.34 2.381.35 4.504-1.59 3.38z" fill="#36373B"/><path d="M1325.99 270.124l-32.47-18.707c-7.36-4.238-13.33-14.553-13.33-23.036v-12.963c0-.458.08-.858.21-1.191-1.3-.249-2.23.617-2.23 2.273v12.963c0 8.484 5.97 18.799 13.33 23.036l32.47 18.708c1.22.707 2.07.133 2.19-.991a3.937 3.937 0 0 1-.17-.092z" fill="#BEBCC2"/><path d="M1302.18 298.714c-.06-3.247.41-6.544 1.69-9.649.66-1.54 1.57-3.039 2.93-4.221 1.35-1.182 3.2-1.857 5.01-1.848 1.82.008 3.51.541 5.06 1.24.39.167.79.375 1.15.566l1.06.608 2.11 1.216 8.44 4.853c1.4.849 2.81 1.549 4.18 2.573 1.35.982 2.64 2.023 3.83 3.189 2.38 2.306 4.36 4.995 5.97 7.867 1.59 2.881 2.83 5.944 3.6 9.116.77 3.164 1.27 6.411 1.19 9.65a42.477 42.477 0 0 0-5.85-18.158c-1.67-2.706-3.69-5.187-6.03-7.31-1.15-1.082-2.41-2.048-3.69-2.947-1.24-.899-2.75-1.624-4.13-2.431l-8.43-4.779-2.11-1.199-1.05-.599c-.35-.183-.67-.358-1.03-.516-1.38-.65-2.85-1.108-4.29-1.133a5.948 5.948 0 0 0-3.97 1.282c-1.16.875-2.08 2.14-2.8 3.514-1.47 2.772-2.3 5.927-2.84 9.116z" fill="#EBEEF4"/><path d="M1305.92 304.75l-.15-.092-28.36-16.343-.01-.05c-.05-.224-5.3-22.928-5.88-44.108-.28-10.406.27-30.804 4.37-33.559.59-.392 1.23-.442 1.91-.142l22.64 13.179c2.79 1.624 6.56 5.778 8.59 9.458l12.84 24.085c.35.65.53 1.382.53 2.123l-.02 10.982-1.64 3.255-.18 12.613-.67 1.69v4.571l-1.49-.925c-2.75-1.565-5.42-.716-6.76-.066-2.35 1.132-4.13 3.238-4.44 5.237l-1.28 8.092zm-28.3-16.584l28.11 16.201 1.23-7.734c.31-2.074 2.15-4.255 4.57-5.42 2.4-1.158 4.88-1.124 6.98.075l1.13.699.01-4.204.68-1.69.18-12.63 1.64-3.255V259.31c0-.7-.17-1.391-.5-2.007l-12.84-24.085c-1.98-3.589-5.79-7.793-8.5-9.366l-22.62-13.171c-.59-.258-1.14-.217-1.65.125-4.02 2.697-4.55 23.003-4.27 33.36.55 20.672 5.57 42.792 5.85 44z" fill="#6D6E71"/><path d="M1398.66 244.865c-4.55 3.289-15.76 9.874-23.03 14.12-.36.208-.7.408-1.05.608-7.19 4.137-10.94 6.194-15.83 8.583-.2.1-.4.192-.59.283-10.87 5.004-22.17 1.582-27.98-8.991l67.41-39.105c.51 1.108 1.02 2.207 1.51 3.297 3.71 8.234 7.05 15.802-.44 21.205z" fill="#fff"/><path d="M1397.59 242.8c-4.56 3.289-15.76 9.874-23.04 14.12-.36.208-.7.408-1.05.608-7.18 4.129-10.94 6.194-15.82 8.575-.2.1-.4.192-.6.283-10.87 5.004-22.31 1.665-28.12-8.908-7.78-14.153-18.86-29.297-18.86-29.297l43.76-24.352 23.11-12.855 3.71-2.064s13.86 25.142 15.83 29.38c.51 1.107 1.02 2.206 1.51 3.297 3.71 8.242 7.07 15.81-.43 21.213z" fill="#36373B"/><path d="M1394.93 231.136l-32.47-18.707c-3.28-1.89-6.28-4.995-8.61-8.592l23.11-12.854c1.1 1.44 2.24 3.155 3.36 5.203 7.3 13.288 16.2 31.562 16.2 31.562 1.36 2.389.36 4.512-1.59 3.388z" fill="#4F4E52"/><path d="M1310.1 228.181s1.96 2.939 4.5 6.31c1.33-.616 17.77-9.124 37.81-20.314 17.23-9.624 29.33-18.182 31.34-19.656-1.93-3.405-3.08-5.611-3.08-5.611l-70.57 39.271zM1397.17 243.1c-4.61 3.213-15.33 9.574-22.62 13.82-.36.208-.7.408-1.05.608-7.18 4.129-10.94 6.194-15.82 8.575-.2.1-.4.191-.6.283-9.43 4.296-19.73 2.731-26.26-6.019l37.74-21.53 1.33-3.796a7.37 7.37 0 0 1 3.29-3.963l10.83-6.244a7.429 7.429 0 0 1 4.93-.891l3.97.666 5.13-3.03c3.69 8.25 7.32 15.818-.87 21.521z" fill="#262729"/><path d="M1384.63 191.691l-70.5 40.519a9.33 9.33 0 0 1-9.38-.049l-38.44-22.671 1.34-3.821 43.1 23.869 71.69-41.211c.69 1.024 1.42 2.148 2.19 3.364z" fill="#E1E2E3"/><path d="M1362.45 140.398l-54.18-31.221c-2.39-1.373-4.66-1.532-6.27-.441l-6.86 4.629-91.32-52.625c-3.85-2.223-7.31-2.24-9.64-.475-1.93 1.466-73.1 42.077-73.1 42.077l70 61.691 121.75 65.263s71.96-40.786 73.11-41.785c.87-.741 1.37-2.023 1.37-3.738v-.366c.01-15.835-11.13-35.092-24.86-43.009z" fill="#EBEEF4"/><path d="M1295.14 113.365l-73.85 42.501-1.83-1.016 73.87-42.501 1.81 1.016z" fill="#F0F1F2"/><path d="M1313.61 225.874v.367c0 3.988-2.83 5.619-6.3 3.63l-35.15-20.256c-4.05-2.34-9.11.583-9.11 5.262v75.586l-69.88-40.27v-.624c.01-3.714-.5-23.037-12.58-30.596l-11.18-6.378c-11.31-5.619-11.94 12.439-11.94 16.26v.766l-39.92-23.012a2.828 2.828 0 0 1-1.41-2.447v-10.457l1.22-.708v-82.438c0-1.607.23-3.03.65-4.238.32-.924.76-1.731 1.28-2.397 2.27-2.856 6.27-3.322 10.82-.708l91.32 52.633 6.85-4.629c1.62-1.09 3.89-.932 6.28.442l54.17 31.22c13.69 7.876 24.88 27.224 24.88 42.992z" fill="#C9D0D8"/><path d="M1260.78 251.692l-143.41-82.647v-18.624l143.41 82.647v18.624zM1308.17 212.612v3.139l-190.16-109.438c.32-.924.76-1.731 1.28-2.397l188.88 108.696z" fill="#8B5E3C"/><path d="M1135.73 101.143c34.27 19.757 49.43 28.457 83.69 48.213 2.25 1.299 4.85-.192 2.59-1.49-34.27-19.757-49.43-28.457-83.69-48.213-2.25-1.299-4.84.192-2.59 1.49z" fill="#F1F2F2"/><path d="M1138.32 100.611c34.27 19.756 49.42 28.456 83.69 48.212.32.183.54.367.68.55.35-.392.26-.966-.68-1.499-34.27-19.756-49.43-28.456-83.69-48.212-1.94-1.116-4.12-.167-3.27.949.52-.566 1.95-.766 3.27 0z" fill="#C9D0D8"/><path d="M1146.03 95.24c34.28 19.757 49.43 28.457 83.7 48.213 2.25 1.299 4.85-.191 2.59-1.49-34.27-19.756-49.42-28.465-83.69-48.213-2.25-1.299-4.84.192-2.6 1.49z" fill="#F1F2F2"/><path d="M1148.63 94.7c34.28 19.756 49.43 28.456 83.7 48.212.31.183.53.366.67.55.36-.392.27-.966-.67-1.499-34.28-19.756-49.43-28.465-83.7-48.213-1.94-1.115-4.12-.166-3.26.95.51-.558 1.94-.758 3.26 0z" fill="#C9D0D8"/><path d="M1156.34 89.338c34.28 19.756 49.43 28.456 83.7 48.212 2.24 1.299 4.84-.191 2.59-1.49-34.28-19.756-49.43-28.456-83.7-48.213-2.25-1.298-4.84.192-2.59 1.49z" fill="#F1F2F2"/><path d="M1158.94 88.797c34.28 19.756 49.43 28.456 83.69 48.212.32.183.54.367.68.55.36-.392.27-.966-.68-1.499-34.27-19.756-49.42-28.456-83.69-48.212-1.94-1.116-4.12-.167-3.26.949.5-.558 1.94-.758 3.26 0z" fill="#C9D0D8"/><path d="M1166.66 83.435c34.27 19.756 49.42 28.456 83.69 48.213 2.25 1.298 4.85-.192 2.59-1.491-34.27-19.756-49.43-28.456-83.69-48.212-2.26-1.307-4.85.191-2.59 1.49z" fill="#F1F2F2"/><path d="M1169.25 82.894c34.27 19.756 49.42 28.456 83.69 48.212.32.184.53.367.68.55.35-.391.26-.966-.68-1.499-34.27-19.756-49.43-28.456-83.69-48.212-1.94-1.116-4.13-.167-3.27.949.51-.566 1.94-.758 3.27 0z" fill="#C9D0D8"/><path d="M1176.96 77.524c34.28 19.756 49.43 28.457 83.7 48.213 2.25 1.299 4.84-.192 2.59-1.491-34.28-19.756-49.43-28.456-83.7-48.212-2.25-1.299-4.84.191-2.59 1.49z" fill="#F1F2F2"/><path d="M1179.55 76.992c34.28 19.756 49.43 28.456 83.7 48.212.31.183.53.366.67.55.36-.392.27-.966-.67-1.499-34.28-19.756-49.43-28.456-83.7-48.213-1.94-1.115-4.12-.166-3.26.95.51-.567 1.94-.766 3.26 0z" fill="#C9D0D8"/><path d="M1187.27 71.621c34.28 19.757 49.43 28.457 83.7 48.213 2.24 1.299 4.84-.192 2.58-1.49-34.27-19.757-49.42-28.457-83.69-48.213-2.26-1.299-4.85.192-2.59 1.49z" fill="#F1F2F2"/><path d="M1189.86 71.08c34.28 19.757 49.43 28.457 83.7 48.213.31.183.53.366.67.549.36-.391.27-.965-.67-1.498-34.28-19.756-49.43-28.456-83.7-48.213-1.94-1.115-4.12-.166-3.26.95.5-.558 1.94-.758 3.26 0z" fill="#C9D0D8"/><path d="M1197.58 65.719c34.27 19.756 49.43 28.456 83.69 48.212 2.25 1.299 4.85-.191 2.59-1.49-34.27-19.756-49.42-28.465-83.69-48.213-2.26-1.298-4.85.192-2.59 1.49z" fill="#F1F2F2"/><path d="M1200.17 65.178c34.27 19.756 49.43 28.456 83.69 48.212.32.183.54.366.68.55.36-.392.26-.966-.68-1.499-34.26-19.756-49.42-28.465-83.69-48.213-1.94-1.115-4.12-.166-3.27.95.52-.558 1.95-.758 3.27 0z" fill="#C9D0D8"/><path d="M1216.63 93.35l-13.71-7.95c-1.5-.874-3.96-.874-5.48 0l-25.73 14.827c-1.51.875-1.52 2.298-.02 3.172l13.71 7.951c1.5.874 3.96.874 5.48 0l25.73-14.828c1.52-.882 1.52-2.297.02-3.172z" fill="#F1F2F2"/><path d="M1219.1 93.933c0 .575-26.88 15.261-26.88 15.261-1.51.874-3.98.874-5.48 0 0 0-14.83-7.735-14.83-8.309v.941c0 .574.37 1.14 1.13 1.573l13.71 7.951c1.5.874 3.96.874 5.48 0l25.73-14.828c.76-.44 1.15-1.024 1.15-1.598l-.01-.99z" fill="#C9D0D8"/><path d="M1217.97 92.418l-13.7-7.95c-1.51-.875-3.96-.875-5.49 0l-25.72 14.827c-1.52.874-1.52 2.298-.02 3.172l13.71 7.951c1.5.874 3.96.874 5.48 0l25.73-14.828c1.51-.874 1.52-2.298.01-3.172zM1333.29 144.802l-13.7-7.951c-1.51-.874-3.97-.874-5.49 0l-25.73 14.828c-1.51.874-1.52 2.297-.01 3.172l13.7 7.95c1.51.874 3.96.874 5.49 0l25.72-14.827c1.52-.874 1.53-2.298.02-3.172z" fill="#F1F2F2"/><path d="M1335.76 145.384c0 .575-26.87 15.261-26.87 15.261-1.52.874-3.98.874-5.49 0 0 0-14.83-7.735-14.83-8.309v.941c0 .574.38 1.14 1.14 1.573l13.7 7.951c1.51.874 3.96.874 5.49 0l25.72-14.828c.77-.441 1.15-1.024 1.15-1.598l-.01-.991z" fill="#C9D0D8"/><path d="M1334.63 143.877l-13.69-7.95c-1.51-.875-3.97-.875-5.49 0l-25.73 14.827c-1.51.874-1.52 2.298-.01 3.172l13.7 7.951c1.51.874 3.96.874 5.49 0l25.72-14.828c1.52-.882 1.53-2.297.01-3.172z" fill="#F1F2F2"/><path d="M1306.14 161.169c-.79 0-1.54-.174-2.06-.474l-13.7-7.951c-.34-.2-.34-.608.01-.816l25.72-14.827c.53-.3 1.28-.475 2.07-.475.79 0 1.54.175 2.06.475l13.7 7.95c.34.2.34.608-.02.816l-25.72 14.828c-.52.3-1.27.474-2.06.474z" fill="#36373B"/><path d="M1290.38 152.744l.65.375 25.08-14.462c.53-.299 1.28-.474 2.07-.474.79 0 1.54.175 2.06.474l13.04 7.568.64-.366c.36-.208.36-.616.02-.816l-13.7-7.951c-.52-.299-1.27-.474-2.06-.474s-1.54.175-2.07.474l-25.72 14.828c-.35.216-.35.624-.01.824z" fill="#BEBCC2"/><path d="M1302.8 278.699c-11.01-6.11-25.29-16.908-25.29-16.908l42.25 24.093c.01-.008-6.12-1.182-16.96-7.185zM1307.37 312.051s-26.87-16.11-36.11-19.923c-5.24-2.164-8.21-1.665-8.21-1.665l4.22-12.488s-.43 5.928 3.07 8.384c16.36 11.497 37.03 20.813 37.03 20.813v4.879zM1153.01 214.627c-.07-3.447.38-6.935 1.56-10.273.61-1.657 1.46-3.289 2.73-4.663 1.26-1.365 3.12-2.364 5.07-2.497 1.95-.125 3.8.416 5.44 1.165.85.383 1.58.833 2.33 1.257l2.24 1.291 8.95 5.162c.74.441 1.49.857 2.23 1.315.73.516 1.48 1.016 2.15 1.582a28.013 28.013 0 0 1 3.83 3.655c2.32 2.656 4.13 5.694 5.56 8.866a45.198 45.198 0 0 1 3.09 9.924c.63 3.397 1 6.844.9 10.282-.46-6.843-2.14-13.595-5.07-19.69-2.99-6.069-7.57-11.305-13.61-14.386l-8.95-5.07-2.24-1.265c-.75-.425-1.5-.866-2.21-1.199-1.45-.691-3.02-1.141-4.52-1.066-1.5.042-2.92.716-4.03 1.807-1.14 1.082-2.02 2.506-2.71 4.012-1.39 3.039-2.2 6.394-2.74 9.791z" fill="#EBEEF4"/><path d="M1238.44 272.097l-16.06-9.232c-2.47-1.416-4.46-4.871-4.46-7.71v-67.111c0-2.839 2-3.988 4.46-2.573l16.05 9.233c2.46 1.416 4.45 4.871 4.45 7.71v67.111c.02 2.847-1.98 3.996-4.44 2.572z" fill="#58595B"/><path d="M1242.5 202.414v67.111c0 1.715-.79 2.781-2.06 2.781-.54 0-1.17-.192-1.79-.558l-16.05-9.233c-2.35-1.349-4.26-4.654-4.26-7.36v-67.111c0-1.715.79-2.773 2.07-2.773.54 0 1.16.192 1.79.558l16.05 9.233c2.34 1.349 4.25 4.646 4.25 7.352z" fill="#C9D0D8"/><path d="M1206.3 201.756l-29.92-17.283c-1.73-1-3.14-3.431-3.14-5.429V160.82c0-1.998 1.41-2.806 3.14-1.807l29.92 17.284c1.73.999 3.14 3.43 3.14 5.428v18.225c0 1.998-1.41 2.805-3.14 1.806z" fill="#EBEEF4"/><path d="M1207.1 200.366l-29.92-17.284c-1.24-.716-2.34-2.606-2.34-4.038V160.82c0-.367.38-.616.73-.425l29.93 17.284c1.24.716 2.33 2.606 2.33 4.038v18.224a.48.48 0 0 1-.73.425z" fill="#36373B"/><path d="M1178.79 182.375c-1.24-.716-2.34-2.606-2.34-4.038v-17.434l-.88-.508a.482.482 0 0 0-.73.425v18.224c0 1.432 1.09 3.322 2.34 4.038l29.92 17.284c.34.2.73-.05.73-.425v-.791l-29.04-16.775z" fill="#BEBCC2"/><path d="M1281.95 210.464l-20.72-11.805c-1.74-.999-3.14-3.43-3.14-5.428v-18.225c0-1.998 1.4-2.805 3.14-1.806l20.72 11.805c1.73.999 3.14 3.43 3.14 5.429v18.224c0 1.998-1.41 2.806-3.14 1.806z" fill="#EBEEF4"/><path d="M1282.75 209.074l-20.73-11.805c-1.24-.716-2.33-2.606-2.33-4.038v-18.225c0-.366.38-.616.73-.424l20.72 11.805c1.24.716 2.34 2.606 2.34 4.038v18.224a.48.48 0 0 1-.73.425z" fill="#36373B"/><path d="M1263.63 196.561c-1.24-.716-2.34-2.606-2.34-4.038V175.09l-.87-.508c-.34-.2-.73.05-.73.425v18.224c0 1.432 1.09 3.322 2.33 4.038l20.73 11.805c.34.2.73-.05.73-.424v-.791l-19.85-11.298z" fill="#BEBCC2"/><path d="M1229.09 214.71l-5.85-3.33c-1.73-.999-3.13-3.43-3.13-5.428v-15.061c0-1.998 1.4-2.805 3.13-1.806l5.85 3.33c1.73.999 3.14 3.43 3.14 5.428v15.061c0 1.998-1.4 2.805-3.14 1.806z" fill="#EBEEF4"/><path d="M1229.9 213.328l-5.85-3.33c-1.24-.716-2.34-2.606-2.34-4.038v-15.061c0-.366.39-.616.74-.424l5.84 3.33c1.24.716 2.34 2.606 2.34 4.038v15.061c-.01.374-.39.616-.73.424z" fill="#36373B"/><path d="M1225.66 209.29c-1.24-.716-2.34-2.605-2.34-4.037v-14.27l-.87-.508c-.35-.2-.74.05-.74.425v15.06c0 1.432 1.09 3.322 2.34 4.038l5.85 3.33c.34.2.73-.05.73-.424v-.791l-4.97-2.823z" fill="#BEBCC2"/><path d="M1141.73 202.373l-14.37-8.359a2.325 2.325 0 0 1-1.16-2.023v-28.206c0-1.008 1.09-1.641 1.96-1.133l14.37 8.359a2.314 2.314 0 0 1 1.17 2.023v28.207c0 1.007-1.09 1.631-1.97 1.132z" fill="#C9D0D8"/><path d="M1142.39 202.672c-.25 0-.49-.067-.72-.192l-14.37-8.359a2.436 2.436 0 0 1-1.22-2.122v-28.207c0-.516.27-.982.71-1.241.45-.258.99-.258 1.44 0l14.37 8.359a2.46 2.46 0 0 1 1.22 2.123v28.207c0 .516-.27.982-.72 1.24-.22.125-.47.192-.71.192zm-.6-.4c.37.217.81.217 1.19 0 .37-.216.59-.599.59-1.032v-28.207c0-.791-.42-1.523-1.11-1.915l-14.37-8.358a1.169 1.169 0 0 0-1.19 0c-.37.216-.59.599-.59 1.032v28.207c0 .79.43 1.523 1.11 1.914l14.37 8.359z" fill="#6D6E71"/><path d="M1116.14 193.697l36.87 21.346v-1.44l-35.65-20.605-1.22.699zM1199.09 241.685l18.83 10.848v-1.441l-18.83-10.781v1.374zM1218.33 252.682l24.17 13.912v-1.44l-24.17-13.912v1.44zM1242.9 266.894l20.59 11.905v-1.44l-20.59-11.905v1.44zM1210.34 165.998c-33.2-19.14-52.1-30.005-85.3-49.145-1.64-.941-1.64-3.771 0-2.831 33.21 19.141 52.1 30.005 85.31 49.145 1.63.941 1.63 3.772-.01 2.831z" fill="#EBEEF4"/><path d="M1218.33 227.224l24.17 13.928v-18.624l-24.17-13.928v18.624z" fill="#8B5E3C"/><path d="M1375.38 303.118l39.61-22.804s4.15 1.358.5 7.568c-3.66 6.211-34.2 21.605-34.2 21.605l-6.75.724v-4.204l.84-2.889z" fill="#36373B"/><path d="M1415.19 280.198l-39.81 22.92-.63 2.165 1.66-.783 39.69-22.878-.91-1.424z" fill="#36373B"/><path d="M1355.29 310.328s20.68-5.57 21.77-4.354c1.65 1.84 7.61 1.115 9.06.299 3.11-1.74 24.81-14.053 25.69-14.669 7.71-5.37 3.12-11.406 3.12-11.406l2.23-1.132s10.09.058 10.01.416c-.57 2.589-8.17 10.307-13.35 13.437-2.15 1.299-30.21 17.417-30.21 17.417s-7.01 3.905-15.14 3.305c-7.61-.574-13.18-3.313-13.18-3.313z" fill="#EBEEF4"/><path d="M1156.68 169.819l-39.31-22.653v-5.761l31 17.858 8.31 10.556zM1145.58 154.268l-28.21-16.26v-20.913l28.21 37.173z" fill="#8B5E3C"/><path d="M1409.14 304.192l-18.48 10.657v-6.319l18.48-10.649v6.311z" fill="#EBEEF4"/><path d="M1343 291.463c-.64-1.424-2.93-7.627-1.53-6.353 4.06 3.655 12.54 8.401 19.22 11.04 7.8 3.088 16.03 5.803 16.16 6.152.22.6.38 5.079-.15 6.402-.97 2.398-18.58 4.546-22.27 1.025-1.31-1.249-7.04-8.318-11.43-18.266z" fill="#fff"/><path d="M1376.86 302.302c-.04-.125-1.1-.541-2.79-1.165.08 1.607.04 3.963-.33 4.862-.88 2.189-15.56 4.162-20.97 1.831.76.949 1.34 1.599 1.66 1.899 3.69 3.521 21.3 1.382 22.27-1.024.54-1.316.37-5.803.16-6.403z" fill="#F5F6F7"/><path d="M1427.17 279.482c-1.63 1.798-5.27 3.846-7.2 4.871-.65.341-1.46.008-1.68-.691l-1.55-4.38s1.49-8.592 1.38-15.435c-.09-5.353-2.63-21.38-2.63-21.38 5.36 7.477 10.37 14.02 11.54 18.241.56 2.04 1.8 10.082.14 18.774z" fill="#fff"/><path d="M1427.03 260.708c-1.18-4.221-6.18-10.764-11.54-18.241 0 0 .01.092.04.267 4.31 6.668 7.6 13.753 8.61 17.392.48 1.748 1.46 7.892.69 15.077a8.622 8.622 0 0 1-3.89 6.327c-.96.616-1.94 1.191-2.79 1.657l.14.474a1.177 1.177 0 0 0 1.68.691c1.93-1.015 5.57-3.072 7.2-4.87 1.66-8.692.42-16.734-.14-18.774z" fill="#F5F6F7"/><path d="M1281.61 261.308c-.29 0-.59-.084-.88-.25l-1.71-.991c-.88-.499-1.53-1.64-1.53-2.639v-5.636c0-.9.55-1.524 1.34-1.524.29 0 .59.083.88.25l1.71.991c.88.499 1.53 1.64 1.53 2.639v5.636c0 .899-.55 1.524-1.34 1.524z" fill="#F9FAFA"/><path d="M1282.26 254.147v4.088c0 .758-.53 1.058-1.18.683l-1.71-.991c-.66-.374-1.19-1.299-1.19-2.048v-4.088c0-.724.49-1.032 1.1-.724.03.008.05.025.09.042l1.71.99c.65.375 1.18 1.291 1.18 2.048z" fill="#EBEEF4"/><path d="M1282.26 254.148v4.029c-.02-.008-.05-.025-.08-.041l-1.71-.991c-.66-.375-1.19-1.299-1.19-2.048v-4.03c.03.009.05.025.09.042l1.71.991c.65.374 1.18 1.29 1.18 2.048z" fill="#C9D0D8"/><path d="M1224.22 228.347c-.28 0-.58-.083-.88-.25l-1.71-.99c-.87-.5-1.52-1.64-1.52-2.64v-5.636c0-.899.55-1.523 1.34-1.523.28 0 .58.083.87.249l1.72.991c.87.5 1.52 1.64 1.52 2.639v5.637c0 .899-.55 1.523-1.34 1.523z" fill="#F9FAFA"/><path d="M1224.88 221.187v4.088c0 .757-.54 1.057-1.19.683l-1.71-.991c-.66-.375-1.19-1.299-1.19-2.048v-4.088c0-.724.49-1.032 1.11-.724.02.008.05.025.08.041l1.71.991c.66.375 1.19 1.29 1.19 2.048z" fill="#EBEEF4"/><path d="M1224.88 221.187v4.03c-.03-.008-.05-.025-.09-.042l-1.71-.991c-.66-.374-1.18-1.298-1.18-2.048v-4.029a.81.81 0 0 1 .08.042l1.71.99c.66.375 1.19 1.291 1.19 2.048z" fill="#C9D0D8"/><path d="M1315.07 246.979c3.98 7.468 10.49 20.839 10.49 20.839 1.34 2.398.35 4.512-1.59 3.397l-8.9-5.129v-19.107z" fill="#1F2023"/><path d="M1308.45 275.294l7.46-18.757s-1.34-.866-1.69-.974c-.54-.158-1.04-.425-1.77 0l-3.46 1.998c-1.98 1.141-3.58 3.913-3.58 6.194v8.059c0 1.124.39 1.915 1.01 2.298.65.383 1.94 1.141 2.03 1.182z" fill="#262729"/><path d="M1310.95 275.036l3.44-1.981c1.23-.708 2.23-2.44 2.23-3.863v-11.19c0-1.407-.99-1.981-2.21-1.274l-3.47 1.999c-1.98 1.14-3.58 3.912-3.58 6.194v8.059c.01 2.264 1.61 3.188 3.59 2.056z" fill="#36373B"/><path d="M1314.14 260.633c-.53 0-1-.391-1.07-.941-.09-.591.33-1.14.93-1.215l3.94-.533c.59-.075 1.14.333 1.21.924.09.591-.33 1.141-.93 1.216l-3.94.532c-.04.017-.09.017-.14.017zM1314.87 269c-.5 0-.94-.341-1.05-.849-.14-.583.24-1.157.82-1.291l3.69-.824a1.083 1.083 0 0 1 .47 2.115l-3.69.824c-.08.025-.16.025-.24.025z" fill="#36373B"/></g><defs><filter id="filter0_d" x="-4" y="-2" width="1608" height="408" filterUnits="userSpaceOnUse" color-interpolation-filters="sRGB"><feFlood flood-opacity="0" result="BackgroundImageFix"/><feColorMatrix in="SourceAlpha" values="0 0 0 0 0 0 0 0 0 0 0 0 0 0 0 0 0 0 127 0"/><feOffset dy="2"/><feGaussianBlur stdDeviation="2"/><feColorMatrix values="0 0 0 0 0 0 0 0 0 0 0 0 0 0 0 0 0 0 0.08 0"/><feBlend in2="BackgroundImageFix" result="effect1_dropShadow"/><feBlend in="SourceGraphic" in2="effect1_dropShadow" result="shape"/></filter><linearGradient id="paint0_linear" x1="1322.93" y1="328.299" x2="1340.74" y2="297.458" gradientUnits="userSpaceOnUse"><stop stop-color="#262729"/><stop offset="1" stop-color="#3D3E42"/></linearGradient><linearGradient id="paint1_linear" x1="1174.59" y1="242.546" x2="1192.4" y2="211.705" gradientUnits="userSpaceOnUse"><stop stop-color="#262729"/><stop offset="1" stop-color="#3D3E42"/></linearGradient><clipPath id="clip0"><path fill="#fff" transform="translate(1077 59)" d="M0 0h351v281.175H0z"/></clipPath></defs></svg>