<svg width="1600" height="400" fill="none" xmlns="http://www.w3.org/2000/svg" viewBox="0 0 1600 400"><g filter="url(#filter0_d)"><path fill="#F5FCFF" d="M1600 0H0v400h1600z"/></g><path d="M1283.55 354.9c126.22 0 228.55-38.257 228.55-85.45 0-47.193-102.33-85.45-228.55-85.45-126.22 0-228.55 38.257-228.55 85.45 0 47.193 102.33 85.45 228.55 85.45z" fill="#004EBB"/><g clip-path="url(#clip0)"><path d="M1222.17 295.81c35.99 0 65.17-10.911 65.17-24.37 0-13.459-29.18-24.37-65.17-24.37S1157 257.981 1157 271.44c0 13.459 29.18 24.37 65.17 24.37z" fill="#0032A5"/><path d="M1267.6 303.56c28.34 0 51.32-8.592 51.32-19.19 0-10.599-22.98-19.19-51.32-19.19s-51.32 8.591-51.32 19.19c0 10.598 22.98 19.19 51.32 19.19z" fill="#0032A5"/><path d="M1294.42 341.37c33.16 0 60.05-10.051 60.05-22.45s-26.89-22.45-60.05-22.45-60.05 10.051-60.05 22.45 26.89 22.45 60.05 22.45z" fill="#0032A5"/><path d="M1332.85 315.83c43.03 0 77.91-13.042 77.91-29.13s-34.88-29.13-77.91-29.13c-43.03 0-77.91 13.042-77.91 29.13s34.88 29.13 77.91 29.13z" fill="#0032A5"/><path d="M1251.9 66.3l-1.2 10.39 4.8 3.22 9.07-1.97 6.01-6.16-2.58-8.59-10.87-8.44-7.13 7.03 1.9 4.52z" fill="#DE8767"/><path d="M1272.98 130.37s9.59 10.48 11.68 18.75c2.09 8.26 5.95 96.38 7.09 106.62-.34 11.88-11.42 17.91-24.8 16.82-13.37-1.09-34.56-14.75-34.47-22.34 5.06-53.5.69-114.98 4.32-119.86 2.14-3.16 36.18.01 36.18.01z" fill="#fff"/><path d="M1229.04 84.9l-9.8 17.49 8.15 5.75 13.59-17.48-11.94-5.76z" fill="#E89A82"/><path d="M1242.76 62.5c-3.82 1.32-6.52 3.96-7.89 6.97-1.37 3-8.42 18.95-8.79 19.69 7.49 2.22 13.5 10.17 13.5 10.17s11.3-33.1 3.18-36.83z" fill="#FF597F"/><path d="M1272.98 130.37s-1.92 5.09-10.26 6.29c-14.56 2.07-25.92-6.29-25.92-6.29l.32-6.47 23.44 4.95 9.88-1.5 2.54 3.02z" fill="#303030"/><path d="M1276.82 107.53c-8.31 11.31-6.38 19.82-6.38 19.82s-.15 3.27-6.81 4.07c-15.71 2.83-26.6-5.97-26.6-5.97s-5.99-21.75-7.13-29.96c-.72-5.29 4.56-11.98 8.8-20.08 3.41-6.53 9.37-11.06 11.95-12.21h4.62c-4.73 9.97.45 12.38.45 12.38s8.5 4.22 11.42-6.37c1.62 1.27 13.29 13.03 13.29 13.03s7.61 8.32-3.61 25.29z" fill="#FF85A1"/><path d="M1234.38 102.16s20.9 12.01 25.55 4.72c-3.07 10.29-25.55-4.72-25.55-4.72z" fill="#FF6387"/><path d="M1193.03 127.73c-.51 1.33.82 23.54-1.18 30.81-.43 1.96-5.13 8.57-5.46 9.91-.31 1.34 0 6.02 0 6.02s1.35 4.27 2.25 4.69c.91.42 7.15-1.48 8.15-2.74-2.31-4.87 2.64-50.34 2.64-50.34s-5.88.32-6.4 1.65z" fill="#E89A82"/><path d="M1220.65 94.68s.06 4.65 2.09 7.15c.12 1.6-4.88 6.13-4.88 6.13l-6.38 7.58-8.52-1.01-2.5-5.37 3.15-10.59 7.3-6.89 9.63-1.01.11 4.01z" fill="#DE8767"/><path d="M1202.78 252.26c-3.8 5.75-11.66 6.78-14.25 8.56-2.5 1.71-2.79 6.15-.76 6.98 7.78 2.22 17.4-3.69 17.4-3.69s5.28.73 10.28-2.04c1.37-.76-.92-10.26-.92-10.26s-10 .45-11.75.45z" fill="#fff"/><path d="M1199.54 206.66s2.31 4.24 2.38 7.48c-.35 3.89 2.51 23.23.86 38.12 1.57.75 9.52 1.86 11.75-.45-.2-7.5 2.87-24.24 2.87-27.29 0-3.05-1.56-8.7-1.56-8.7l.72-10.73-17.02 1.57z" fill="#E89A82"/><path d="M1193.85 158.59c1.09 24.2 3.84 45.19 5.5 49 .96 2.19 10.69 6.27 18.69 1.1 1.81-.75.79-34.88.79-34.88s-24.46-16.3-24.98-15.22z" fill="#000"/><path d="M1229.24 262.66s-1.07 5.09-3.26 10.38c-1.87 4.48-5.09 9.11-3.26 11.1 3.97 4.35 11.51.6 13.51-3.18 1.3-2.51 1.85-5.42 2.08-6.07.22-.64 3-2.47 2.58-5.88-.41-3.39-3.07-8.18-3.07-8.18l-8.58 1.83zM1302.5 311.87s-1.08 5.09-3.27 10.37c-1.87 4.49-5.09 9.11-3.26 11.11 3.98 4.35 11.52.6 13.51-3.19 1.31-2.5 1.85-5.42 2.08-6.06.23-.64 3.01-2.47 2.59-5.88-.41-3.4-2.45-8.82-2.45-8.82l-9.2 2.47z" fill="#fff"/><path d="M1219.12 213.36c1.23 1.06 3.67 13.75 6.3 15.33-.92 7.32 3.18 21.3 3.82 33.96 2.78 1.21 8.6.98 8.59-1.83-1-9.01 2.14-21.79 1.55-28.73-.41-4.69-2.37-7.21-5-22.01-1.51.21-16.51 2.22-15.26 3.28z" fill="#E89A82"/><path d="M1229.04 161.05s2.72 3.55 4.74 10.06c2.01 6.51 4.52 40.37 3.95 41.93-1.02 4.81-20.53 5.09-21.94.75-.55-2.52-6-27.95-6.55-30.12-12.22-3.75-15.4-25.07-15.4-25.07l35.2 2.45z" fill="#292929"/><path d="M1198.98 94.99c-9.71 2.36-6.94 16.9-6.94 16.9l-.55 14.19s2.45 4.3 7.49 2.06c.05-1.91.97-33.28 0-33.15z" fill="#A62626"/><path d="M1205.87 111.1c2.45 1.11 13.25-11.14 17.23-9.66 4.16 3.15 4.83 4.99 9.36 8.22.93 1.17-7.18 38.83-5.18 47.99-.42 1.57-4.55 4.38-10.41 5.04-12.93 2.1-23.03-7.79-23.03-8.29.01-4.68 0-41.22.6-44.87.23-9.25 11.28-11.34 11.28-11.34s-2.3 11.79.15 12.91z" fill="#D63A3A"/><path d="M1200.46 102.03s-3.22 3.12-3.89 2.77c-.67-.35-2.96-4.35-2.87-6.62.1-2.26 2.95-5.22 2.95-5.22l3.81 9.07z" fill="#DE8767"/><path d="M1310.52 264.94c-1.38 1.88-14.05 6-16.07 8.37-2.02 2.37-1.09 5.92-.28 6.92.8.97 8.62 1.61 13.86-.44 3.14-1.22 8.02-3.37 10.04-4.18 2.02-.8 9.14-.4 11.28-3.19 1.6-2.21.35-10.67.35-10.67s-17.79 1.3-19.18 3.19z" fill="#1A1A1A"/><path d="M1304.75 168.26c-2.31 19.53 6.97 51.77 6.97 51.77s2.37 24.69-.48 43.75c.89 3.3 14.56 5.96 18.7-.18.9-4.33 4.57-35.15 2.06-41.55-.9-7.74.82-44.1.82-44.1s-20.94-23.66-28.68-25.06c-.01-.01-.08 8.31.61 15.37z" fill="#575757"/><path d="M1346.73 287.61c-.5 5.14-7.95 15.7-5.22 20.5 1.6 2.79 12.37 3.82 16.46-.88 2.75-3.17 3.02-9.86 3.02-9.86s1.33-3.11 1.33-5.51c0-2.41-.97-5.16-.97-5.16s-13.42.14-14.62.91z" fill="#1A1A1A"/><path d="M1355.11 179.75l2.42 48.5s3.6 10.7 4.87 14.57c3.1 14.04 2 42.51 2 42.51-.67 2.4-5.47 4.42-12.79 4.22-3.21-.08-7.2-1.82-7.07-3.92.13-2.12-.35-33.98-4.44-47.67 0 0-11.55-24.87-14.87-52.03.1 0-21.99-17.45-21.1-33.04 0-1.2 39.8 8.76 45.34 5.28 6.98 11.81 5.64 21.58 5.64 21.58z" fill="#666"/><path d="M1348.14 154.96l1.33 3.2s-2.89 6.23-12.26 6.59c-19.41.53-33.08-11.87-33.08-11.87v-4.92l44.01 7z" fill="#78431C"/><path d="M1308.74 155.92l5.02 2.91v-3.49l-5.02-2.9v3.48z" fill="#969696"/><path d="M1285.92 104.62c1.11 2.68 2.17 15.82 2.17 15.82s3.62 6.29 4.53 10.27c.56 1.66-2.43 25.63-2.43 25.63s-9.73-22.77-10.56-25.91c-.84-3.14-.47-6.76-.47-6.76s-4.72-9.34-5.82-17.02c.18-1.66 11.46-4.72 12.58-2.03z" fill="#F79673"/><path d="M1280.46 80.8c5.46 5.72 5.77 23.82 6.2 25.49-1.58 3.61-12.05 5.95-14.44 2.64-2.82-10.17-4.44-10.87-5.64-16.45-.4-2.64-1.67-8.44.46-10.78 2.14-2.34 7.96-6.62 13.42-.9z" fill="#FF597F"/><path d="M1297.02 158.37c1.07 4.12 4.35 7.12 1.69 9.84-.53.29-.49-.3-2.15-1.22-2.11.54-4.38-1.26-5.28 4.14-.06.36 1.58 2.66 1.39 3.02-1.97.46-3.22.28-4.06-.18-.83-.46-.83-1.86-1.11-5.18-.9-1.4 1.66-7.34 1.66-11.45 1.54-7.43-.59-30.02 2.44-35.19 2.73-4.67 12.06-.26 14.84 4.52l-2.5 7.63c-2.5 9.3-5.83 10.48-7.21 21.64.31.08.26 2.34.29 2.43z" fill="#994E28"/><path d="M1314.73 79.4c-9.1.45-13.86 12.73-17.8 24.02-3.6 10.28-5.8 16.23-6.26 18.01-.97 3.75 12.61 10.22 14.78 7.42.33-.92 14.07-42.36 14.07-42.36s-2.67-7.09-4.79-7.09z" fill="#BABABA"/><path d="M1297.71 164.68s-3.09-3.26-5.24-1.44c-2.14 1.82-2.62 5.54-2.72 6.7-.34 3.35.95 3.94 2.35 4.02 1.39.08 5.72-3.42 6.77-5.28 1.04-1.86-1.16-4-1.16-4z" fill="#C2A091"/><path d="M1297.79 165.33s-2.92-3.08-4.95-1.35c-2.03 1.72-2.49 5.24-2.59 6.35-.32 3.16.9 3.72 2.22 3.79 1.32.08 5.42-3.23 6.41-4.99.99-1.76-1.09-3.8-1.09-3.8z" fill="#F0C6B4"/><path d="M1340.05 83.99l.67 1.88v3.1l-4.55 7.04-12.78 2.13-6.64-3.51v-7.87l4.44-8.82 13.16-1.54 6.37 3-.67 4.59z" fill="#994E28"/><path d="M1340.72 85.87c2.1 3.37 19.09 17.41 19.09 17.41l-9.31 35.35-2.62 8.81s0 4.84.26 7.52c-11.23 12.61-43.72-4.44-44.01-7.01-.19-10.42-2.11-14.75-3.91-37.6-1.23-12.23 17.33-28.46 19.22-27.38-2.82 8.42 4.07 10.61 4.07 10.61s7.85 3.81 17.21-7.71z" fill="#EDEFE8"/><path d="M1313.05 59.9c-1.77 2.23-2.22 10.07-2.22 10.07s0 .33.8.79c-.86 3.37 1.3 17.05 1.51 18.3.2 1.25 4.21 3.36 5.99 3.3 1.78-.07 11.25-2.77 14.29-8.37.56-1.04 0-2.43 0-2.43l3.02-1.79 5.13-2.89-1.84-10.67-7.31-7.5-13.37-4.6s-5.15 5.33-6 5.79z" fill="#B2663B"/><path d="M1313.23 60.16c.39.45 2.14 2.37 2.86 4.54 2.64-1.32 10.47 0 10.47 0s-.2 3.95.85 5.4c1.06 1.45 1.72 1.05 2.96 1.32 1.12 1.38 1.05 4.94 1.05 4.94s2.17-3.02 5.27-2.63c.82.11 2.17.59 2.11 2.63-.07 2.04-3.37 3.09-3.43 3.82-.27 3.49 4.68 3.82 4.68 3.82s5.06-3.06 5.33-13.15c.02-2.42-2.04-18.98-13.69-20.3 0 0-4.74-6.49-18.73 3.3-1.34 1.04-.53 5.39.27 6.31z" fill="#280D02"/><path d="M1312.66 55.05c.36-1.03.66-.18 1.75-1.15 1.09-.96 1.69-2.96 3.68-3.68 1.99-.72 2.29.06 3.62-1.57 1.33-1.63 2.84-1.81 4.22-1.02 1.39.78 3.56.24 4.77-.12 1.21-.36.42.66 1.27 1.09.85.42 2.66-.18 3.62.12s1.09 1.39 2.48 1.93c1.39.55 3.14-.36 4.11 1.33.97 1.69.12 2.9 1.03 4.05s2.72 1.63 2.17 4.04c-.54 2.41-.48 2.59-.24 3.92s.24 3.5-1.33 6.22c-1.57 2.72-1.39 3.08-1.09 4.35.3 1.27-.3 1.57-1.03 2.41-.72.85-11.53-10.26-11.41-11.41.12-1.15-1.03-3.38-2.9-3.38-1.87 0-1.63-1.03-2.23-1.93-.6-.91-2.41-.49-3.2.06-.78.54-1.39-.36-2.66-1.15-1.27-.78-2.11 1.09-2.41 1.51-.3.42-4.58-4.59-4.22-5.62z" fill="#280D02"/><path d="M1286.68 304.82c-3.8 5.73-11 6.54-13.23 8.76-2.17 2.17-1.94 6.42.1 7.24 7.77 2.22 18.67-4.77 18.67-4.77s3.83.35 8.97-3.19c2.56-4.9-1.98-10.26-1.98-10.26s-10.77 2.22-12.53 2.22z" fill="#fff"/><path d="M1279.07 263.39c.4 4.08 2.68 5.67 4 8.96.13 7.63 6.24 22.62 3.6 32.47 5.27 3.2 11.46-.56 12.53-2.22-1.85-12.76.14-22.35-.14-37.48-.91-.15-19.82-4.01-19.99-1.73z" fill="#DE8767"/><path d="M1293.24 268.47s.17 4.47 3.01 7.62c3.47 8.93 5.41 32.71 6.25 35.78.54 1.99 4.44 1.69 4.44 1.69s4.3-.28 4.77-4.17c-2.82-10.66 3.42-23.73-3.51-37.96-1.26-2.15-.84-6.17-.84-6.17l-14.12 3.21zM1265.68 166.79s.7 21.82.51 22.35c-1.9 1.41-2.45 22.7-5.32 29.77-1.2 2.97-4.8 6.06-5.41 9.02-.7 6.47 3.19 11.11 3.19 11.11s6.57-.86 7.54-5.56c.66-3.13 10.36-44.34 10.36-44.34l-5.35-21.06-5.52-1.29z" fill="#E89A82"/><path d="M1302.29 211.55s3.56 3.16 6.88 10.69c3.6 8.23 6.49 41.11 6.49 41.11s-4.92 4.37-13.37 5.92c-15.29 2.79-32.81-11.07-32.81-11.07s-9.9-42.38-1.88-50.66c2.71-3.19 34.69 4.01 34.69 4.01z" fill="#FFBC00"/><path d="M1301.67 205.46l.62 6.09s-1.42 4.23-12 5.56c-13.18 1.66-22.69-9.58-22.69-9.58l.39-8.22 33.68 6.15zM1265.68 160.51v6.28c.47 1.48 4.27 1.85 5.52 1.29 1.24-.55 1.8-5.73 1.8-5.73l-7.32-1.84z" fill="#F90"/><path d="M1265.11 157.42c0 4.72 3.82 8.53 8.52 8.53 4.71 0 8.54-3.82 8.54-8.53 0-4.71-3.82-8.52-8.54-8.52a8.52 8.52 0 0 0-8.52 8.52z" fill="#FFBC00"/><path d="M1294.08 147.96c-.6 2.17.46 3.93.46 3.93l.47 5.8-5.37 6-6.84 2.27-6.62-2.04-1.12-4.16.61-5.04 7.82-5.64 8.23-3.33c.01-.01 2.54.63 2.36 2.21z" fill="#DE8767"/><path d="M1297.96 141s6.17 7.84 5.75 19.51c-2.5 3.78-5.96.92-6.92-.02 2.42-11.45-.11-17.86-.11-17.86l1.28-1.63z" fill="#302625"/><path d="M1298.79 141.48c0 1.5-1.16 3.15-2.05 3.15-.9 0-1.29-1.8-1.29-1.8l1.73-3.15s1.61.77 1.61 1.8z" fill="#FF85A1"/><path d="M1297.33 155.63l10.48 11.39s-1.96 34.7-6.14 38.44c-2.2 1.97-5.13 4.54-13.31 4.62-8.19.1-18.14-7.01-20.36-10.76-2.23-3.75-2.12-27.03-1.07-33.41 1.58-9.54 10.6-11.94 10.6-11.94s-1.19 10.04 2.55 10.79c3.74.75 17.25-9.13 17.25-9.13z" fill="#FFBC00"/><path d="M1277.75 153.75c-1.32 5.82 1.17 10.36 1.17 10.36s-5.44 2.82-7.02-.28c-1.87-3.67.55-10.13.55-10.13s5.93-.52 5.3.05zM1294.54 151.89s4.02 2.08 4.02 4.48c-.55 6.32-11.75 12.57-13.62 12.71-2.8.22-5.82-2.66-6.02-4.97 13.29-2.97 15.62-12.22 15.62-12.22z" fill="#fff"/><path d="M1267.56 137.33c-.13 1.14.74 3.67.74 3.67s-.34 2.04-.18 4.75c.17 2.71 2.22 10.75 6.28 11.7 7.35 1.7 15.48-5.69 16.1-8.89 0 0 5.2 1.04 6.27-4.91.23-1.29-1.9-9.18-1.9-9.18l-17.28-9.3-9.16 8.39c0 .01-.76 2.63-.87 3.77z" fill="#E89A82"/><path d="M1273.82 134.78c.42 9.12 16.1 10.81 16.6 9.72.26-.42 1.44-2.69 3.29-3.07 1.85-.36 3.05 2.23 3.05 2.23s7.86-20.25-9.25-21.18c-13.97-8.88-23.13 11.98-19.8 15.03.56.45 3.11 1.02 6.11-2.73z" fill="#302625"/><path d="M1285.75 123.12c-5.36-.37-11.36 10.04-11.36 10.04s7.48-8.78 11.36-10.04z" fill="#000"/><path d="M1193.86 83.5c-.12 1.13.75 3.67.75 3.67s-.33 2.04-.17 4.75c.17 2.71 2.22 10.74 6.28 11.7 7.34 1.69 15.47-5.7 16.1-8.88 0 0 5.2 1.03 6.26-4.9.24-1.3-1.89-9.19-1.89-9.19l-17.28-9.31-9.16 8.4s-.77 2.62-.89 3.76z" fill="#E89A82"/><path d="M1208.48 86.76c1.23 3.7 8.26 3.9 8.26 3.9.25-.42 1.43-2.69 3.29-3.05 1.85-.37 3.04 2.22 3.04 2.22s6.25-11.94-2.73-17.8c-12.41-15.21-28.99 3.88-26.36 10.71.56 1.8 7.4 7.07 14.5 4.02z" fill="#78431C"/><path d="M1219.24 72.71c-5.37-.37-9.92 10.04-9.92 10.04s6.04-8.78 9.92-10.04z" fill="#613617"/><path d="M1302.14 188.51c2.24 8.34 4.71 15.48 5.73 17.87-1.42 5.67.87 26.14 0 31.08-1.84 2.77-4.64 4.7-5.65 5.47-1 .78-3.66 6.57-2.87 7.31.78.75 4.74-2.97 5.55-2.59 1.35 1.67-2.87 12.41-2.87 12.41s8.24-1.85 11.01-10.36c.83-2.31.92-9.34.92-9.34s6.16-21.77 5-38.03c-1.62-4.28-5-17.86-5-17.86s-11.77 2.22-11.82 4.04z" fill="#E89A82"/><path d="M1313.76 177.24s.61 6.75.62 7.31c.15 5.27-12.18 5.35-12.69 3.49-.5-1.85-2.33-8.58-2.33-8.58l14.4-2.22z" fill="#F90"/><path d="M1336.78 148.9c-9.52.05-20.13 6.97-31.33 7.89-5.02.63-15.43 3.05-16.77 4-1.36.94-5 3.24-6.12 5.65-1.11 2.4.08 5.91 1.02 7.23 1.85 2.57 8.24 4.33 9.53 3.4 1.3-.92-.47-3.97-.47-3.97s11.19-4.45 15.01-8.32c4.14-.74 32.17 2.96 37.08-1.79 2.17-2.1 4.44-12.19 4.44-12.19s-10.82-1.59-12.39-1.9z" fill="#B2663B"/><path d="M1357.99 102.72c8.41 1.66 5.77 11.51 5.77 11.51s-12.9 37.36-14.15 38.28c-4.93 4.37-15.58-2.35-15.25-3.9.55-2.62 8.22-33.14 8.22-33.14s3.48-15.12 15.41-12.75z" fill="#BABABA"/><path d="M1297.33 175.31c0 4.72 3.81 8.54 8.52 8.54 4.72 0 8.53-3.82 8.53-8.54 0-4.71-3.81-8.52-8.53-8.52-4.71 0-8.52 3.81-8.52 8.52z" fill="#FFBC00"/><path d="M1239.13 49.11c.47 1.09.65 1.47.65 1.47s-.5.85-.74 1.92c-.23 1.05 1.84 14.06 2.4 15.21.56 1.13 3.63 2.58 5.19 2.58 1.54 0 9.97-3.56 12.23-6.31 2.57-3.13 3.4-14.23 3.4-14.23l-11.2-14.61-13.32 4.99s.91 7.88 1.39 8.98z" fill="#E89A82"/><path d="M1244.5 42.55c10.07 2.68.02 11.21 16.37 19.64 4.26 2.9-2.47 13.28-1.29 17.17 1.38-3.33 9.07-4.97 12.95-4.99 0 0 4.9-5.09 4.17-13.88-.74-8.78 2.4-29.88-14.71-31.46 0 0-3.31-5.74-12.68-1.42-8.51 3.92-13.51 11.87-13.51 15.11s2.69 5.74 3.33 6.39c-1.39-8.98 1.76-8.61 1.76-8.61s1.67-.28 3.61 2.05z" fill="#915422"/><path d="M1260.41 30.14c-.83-.55-13.78 9.26-13.78 9.26s14.61-8.7 13.78-9.26z" fill="#78431C"/><path d="M1229.04 144.21l1.95 4.69s-.1 2.73.27 7.44c.36 4.71 4.17 22.94 4.17 22.94s-4.82 3.6-5.5 6.29c-.7 2.67.2 5.87.69 5.74 1.19-.08 1.11-3.28 2.44-2.92 1.31.37 1.45 5.52 1.45 5.52s-2.79 5.04-1.11 5.91c.97.51 4.91-3.33 4.91-3.33s2.67-2.69 3.51-6.74c.84-4.08 0-11.66 0-11.66s2.4-21.19.38-27.39c-1.31-3.83-3.43-10.07-3.43-10.07l-9.73 3.58z" fill="#E89A82"/><path d="M1229.51 108.77c8.2 0 10.97 18.68 10.97 18.68s1.38 13.18 1.71 14.7c.5 3.85-14.48 5.05-15.03 2.12-.31-1.6-3.34-18.48-3.34-18.48s-4.76-16.69 5.69-17.02zM1227.29 157.64s-2.22 4.3-12.42 5.28c-10.21.97-21.02-8.53-21.02-8.53v4.2s9.78 8.98 21.37 8.19c9.27-.63 13.83-5.74 13.83-5.74l-1.76-3.4z" fill="#A62626"/><path d="M1312.98 80.24c1.74 1.66 4.67 2.22 7.92 2.49 0 0-1.49 3.24-5.05 2.43-2.22-.51-2.87-4.92-2.87-4.92z" fill="#fff"/><path d="M1325.35 72.96l-3.88-1.26a.875.875 0 0 1-.56-1.1c.15-.46.65-.71 1.1-.56l3.88 1.26c.46.15.71.65.56 1.1-.15.45-.64.71-1.1.56zM1315.74 69.85l-3.97-1.19a.847.847 0 0 1-.57-1.05c.13-.44.61-.7 1.05-.57l3.97 1.19c.45.13.7.61.57 1.05-.13.44-.61.7-1.05.57z" fill="#280D02"/><path d="M1322.58 74.61c0 1.02-.4 1.65-.89 1.41s-.89-1.26-.89-2.28c0-1.02.4-1.65.89-1.41s.89 1.26.89 2.28zM1314.77 72.71c0 1.02-.4 1.65-.89 1.41s-.88-1.25-.88-2.27.4-1.65.89-1.41.88 1.26.88 2.27z" fill="#302625"/><path d="M1317.78 71.5c-.21.14-2.91 4.01-4.31 6.04-.77 1.11.09 2.65 1.44 2.52.83-.08 1.45-.64 1.45-.64l1.42-7.92z" fill="#994E28"/><path d="M1240.64 59.82c1.59 1.51 4.25 2.02 7.21 2.26 0 0-1.36 2.95-4.6 2.22-2.02-.45-2.61-4.48-2.61-4.48z" fill="#fff"/><path d="M1252.16 51.88l-4.61-1.49a.494.494 0 0 1 .3-.94l4.61 1.49c.26.08.4.36.32.62-.09.26-.37.41-.62.32zM1242.28 49.12l-3.84-1.14a.489.489 0 0 1-.33-.61c.08-.26.35-.41.61-.33l3.84 1.14c.26.08.41.35.33.61-.07.26-.35.41-.61.33z" fill="#915422"/><path d="M1249.57 54.49c0 1.02-.4 1.65-.89 1.41s-.89-1.26-.89-2.28c0-1.02.4-1.65.89-1.41s.89 1.26.89 2.28zM1241.13 54.056c.48-.064.74-.963.6-2.008s-.64-1.841-1.11-1.778c-.47.064-.73.963-.59 2.008s.63 1.841 1.1 1.778z" fill="#302625"/><path d="M1244.8 51.63c-.23.16-4.22 5.93-4.22 5.93 1.4 2.04 3.04.55 3.04.55l1.18-6.48z" fill="#E58567"/><path d="M1270.21 149.97c1.34 1.27 3.59 1.71 6.09 1.91 0 0-1.15 2.49-3.88 1.87-1.71-.38-2.21-3.78-2.21-3.78z" fill="#fff"/><path d="M1279.79 143.77l-4.08-1.24a.41.41 0 0 1-.28-.52c.07-.21.32-.33.55-.26l4.08 1.24c.23.07.35.3.28.52-.07.21-.32.33-.55.26zM1272.11 141.72l-3.82-1.08a.401.401 0 0 1-.29-.51c.07-.22.31-.34.54-.28l3.82 1.08c.23.06.36.29.29.51-.07.23-.31.35-.54.28zM1278 146.1c0 .85-.35 1.37-.78 1.17-.43-.2-.78-1.05-.78-1.89 0-.84.35-1.37.78-1.17.43.19.78 1.04.78 1.89zM1271.1 144.52c0 .85-.35 1.37-.78 1.17-.43-.2-.78-1.05-.78-1.89 0-.85.35-1.37.78-1.17.43.2.78 1.05.78 1.89z" fill="#302625"/><path d="M1273.78 143.72c-.21.13-3.72 4.93-3.72 4.93 1.23 1.7 2.69.45 2.69.45l1.03-5.38z" fill="#DE8767"/><path d="M1196.87 96.73c1.34 1.27 3.59 1.71 6.09 1.91 0 0-1.15 2.489-3.88 1.869-1.71-.39-2.21-3.78-2.21-3.78z" fill="#fff"/><path d="M1206.45 90.53l-4.08-1.24a.41.41 0 0 1-.28-.52c.07-.21.32-.33.55-.26l4.08 1.24c.23.07.35.3.28.52-.07.21-.32.33-.55.26zM1198.77 88.48l-3.82-1.08a.401.401 0 0 1-.29-.51c.07-.22.31-.34.54-.28l3.82 1.08c.23.06.36.29.29.51-.07.22-.31.35-.54.28z" fill="#78431C"/><path d="M1204.66 92.86c0 .85-.35 1.37-.78 1.17-.43-.2-.78-1.05-.78-1.89 0-.85.35-1.37.78-1.17.43.19.78 1.04.78 1.89zM1197.77 91.28c0 .85-.35 1.37-.78 1.17-.43-.2-.78-1.05-.78-1.89 0-.85.35-1.37.78-1.17.42.2.78 1.04.78 1.89z" fill="#302625"/><path d="M1200.45 90.48c-.21.13-3.72 4.93-3.72 4.93 1.23 1.7 2.69.45 2.69.45l1.03-5.38z" fill="#DE8767"/></g><defs><filter id="filter0_d" x="-4" y="-2" width="1608" height="408" filterUnits="userSpaceOnUse" color-interpolation-filters="sRGB"><feFlood flood-opacity="0" result="BackgroundImageFix"/><feColorMatrix in="SourceAlpha" values="0 0 0 0 0 0 0 0 0 0 0 0 0 0 0 0 0 0 127 0"/><feOffset dy="2"/><feGaussianBlur stdDeviation="2"/><feColorMatrix values="0 0 0 0 0 0 0 0 0 0 0 0 0 0 0 0 0 0 0.08 0"/><feBlend in2="BackgroundImageFix" result="effect1_dropShadow"/><feBlend in="SourceGraphic" in2="effect1_dropShadow" result="shape"/></filter><clipPath id="clip0"><path fill="#fff" transform="translate(1157 26)" d="M0 0h253.76v315.37H0z"/></clipPath></defs></svg>