<svg width="375" height="156" fill="none" xmlns="http://www.w3.org/2000/svg" viewBox="0 0 375 156"><path d="M375 0H0v156h375V0z" fill="#F5FCFF"/><path d="M187.5 146.244c61.027 0 110.5-18.496 110.5-41.313 0-22.816-49.473-41.312-110.5-41.312S77 82.115 77 104.93c0 22.817 49.473 41.313 110.5 41.313z" fill="#004EBB"/><g clip-path="url(#clip0)"><path d="M255.185 91.578l28.82 13.363-63.015 36.89-23.339-3.416 7.252-38.334 50.282-8.503z" fill="#0032A5"/><path d="M209.922 137.058l-97.744-56.711V45.579l97.744 56.711v34.768z" fill="#E6DED4"/><path d="M111.98 78.032l97.942 56.567v2.459L111.98 80.491v-2.459z" fill="#997665"/><path d="M149.101 76.218l9.037 5.178v25.846l-9.528-5.424V76.463l.491-.245z" fill="#73594C"/><path d="M148.61 76.463l9.033 5.178v25.355l-9.033-5.178V76.463z" fill="#9F7C69"/><path d="M149.352 102.131V80.943l7.555 4.331v21.183l-7.555-4.326z" fill="#8A6B5B"/><path d="M149.761 102.381l-.409-.25V80.943l.409.25v21.188zM156.907 84.514l-7.555-4.326v-2.45l7.555 4.326v2.45z" fill="#73594C"/><path d="M149.761 79.947v-1.953l7.146 4.076v1.953l-7.146-4.076z" fill="#436099"/><path d="M150.771 96.063l-1.01-.49v-3.73l1.01.49v3.73z" fill="#B3B3B3"/><path d="M136.094 87.925l-12.242-7.006V61.315l12.242 7.006v19.605z" fill="#A8826F"/><path d="M124.838 80.347V63.013l10.269 5.876v17.333l-10.269-5.875z" fill="#48302E"/><path d="M125.825 79.812V63.62l9.283 5.312v16.193l-9.283-5.313z" fill="#436099"/><path d="M135.107 86.222l-10.269-5.875.987-.534 9.282 5.312v1.097z" fill="#BF947E"/><path d="M135.108 73.355v-4.423l-9.283-5.312v4.667c3.965.477 7.339 2.392 9.283 5.068z" fill="#617EC7"/><path d="M130.469 82.719l-.996-.578V65.708l.996.568v16.443z" fill="#947261"/><path d="M130.613 66.358l-.144-.082v16.443l.144-.168V66.358z" fill="#48302E"/><path opacity=".2" d="M112.668 57.46l97.254 56.076v-5.428l-97.254-56.08v5.432z" fill="#000"/><path d="M209.874 104.268l36.736-36.433 17.554 5.49v32.55l-54.29 30.942v-32.549z" fill="#B3A58F"/><path d="M235.83 113.796l12.242-7.007V87.185L235.83 94.19v19.605z" fill="#906F5F"/><path d="M247.086 106.217V88.888l-10.269 5.876v17.328l10.269-5.875z" fill="#30201F"/><path d="M246.099 105.687V89.49l-9.282 5.312v16.193l9.282-5.308z" fill="#385181"/><path d="M236.817 112.092l10.269-5.876-.987-.529-9.282 5.308v1.097z" fill="#A7816E"/><path d="M241.456 108.589l.996-.577V91.578l-.996.568v16.443z" fill="#7C6051"/><path d="M241.306 92.228l.15-.082v16.443l-.15-.168V92.228z" fill="#30201F"/><path d="M197.651 105.87l7.252-4.278v32.55l-7.252 4.273V105.87z" fill="#B3A58F"/><path d="M246.61 67.835L141.272 7l19.479 5.919 108.1 62.38-22.241-7.464z" fill="#9C5336"/><path d="M212.386 107.222L107 46.469 141.272 7 246.61 67.835l-34.224 39.387z" fill="#E38D5A"/><path d="M212.386 109.908L107 49.154V46.47l105.386 60.753v2.686z" fill="#544643"/><path d="M153.649 85.645l14.749-6.314 29.287 32.756v26.178l-44.036-25.639V85.645z" fill="#F9F1E6"/><path d="M153.649 110.413l44.036 25.643v2.459l-44.036-25.643v-2.459z" fill="#997665"/><path d="M163.865 91.703l24.359 14.292v25.885l-24.85-14.538V91.948l.491-.245z" fill="#73594C"/><path d="M163.374 91.949l24.354 14.292v25.393l-24.354-14.292V91.949z" fill="#9F7C69"/><path d="M164.606 117.867V94.104l21.89 12.844v23.762l-21.89-12.843z" fill="#8A6B5B"/><path d="M165.176 95.566l-.124.212 21.383 12.547.125-.212-21.384-12.547zM165.176 97.602l-.124.212 21.383 12.547.124-.212-21.383-12.547zM165.175 99.638l-.124.212 21.383 12.547.124-.212-21.383-12.547zM165.174 101.674l-.124.211 21.383 12.548.125-.212-21.384-12.547zM165.174 103.71l-.125.211 21.384 12.548.124-.212-21.383-12.547zM165.177 105.748l-.124.212 21.383 12.547.124-.211-21.383-12.548zM165.176 107.784l-.124.212 21.383 12.547.124-.211-21.383-12.548zM165.175 109.82l-.124.212 21.383 12.547.125-.212-21.384-12.547zM165.174 111.856l-.124.212 21.383 12.547.125-.212-21.384-12.547zM165.174 113.892l-.124.212 21.383 12.547.124-.212-21.383-12.547zM165.177 115.93l-.124.212 21.383 12.547.125-.211-21.384-12.548zM165.176 117.966l-.124.212 21.383 12.547.125-.212-21.384-12.547z" fill="#544138"/><path d="M165.318 94.595l-.712-.49v24.012l.712.245V94.595z" fill="#695145"/><path opacity=".2" d="M170.867 80.991v-.293l-17.348 5.466v7.902l17.348-5.462 26.818 31.12v-7.613l-26.818-31.12z" fill="#000"/><path d="M162.339 78.508l45.018-21.481-38.959 22.55-17.656 5.61 11.597-6.679z" fill="#D17249"/><path d="M195.572 111.067l11.785-6.66v-47.38l-38.959 22.55 27.174 31.49z" fill="#B35F3F"/><path d="M168.398 79.577l-17.536 5.51v2.637l17.536-5.51 27.174 31.548v-2.637l-27.174-31.548z" fill="#544643"/><path d="M207.357 104.407l-11.785 6.66v2.695l11.785-6.66v-2.695z" fill="#3D3331"/><path d="M141.912 52.922l9.398-3.45-9.398 10.981v-7.53z" fill="#9C8F7C"/><path d="M118.376 42.234l7.887-3.378 15.668 17.52v4.13l-23.555-13.72v-4.552z" fill="#F9F1E6"/><path d="M136.094 55.285l-12.242-7.002v-10.73l12.242 7.006v10.726z" fill="#A8826F"/><path d="M124.838 47.71v-8.454l10.269 5.876v8.454l-10.269-5.875z" fill="#48302E"/><path d="M125.825 47.177v-7.32l9.283 5.313v7.32l-9.283-5.313z" fill="#436099"/><path d="M135.107 53.586l-10.269-5.876.987-.534 9.282 5.313v1.097z" fill="#BF947E"/><path d="M130.469 50.078l-.996-.572v-7.56l.996.568v7.564z" fill="#947261"/><path d="M130.613 42.596l-.144-.082v7.564l.144-.168v-7.314z" fill="#48302E"/><path opacity=".2" d="M127.625 39.434v-.16l-9.249 2.917v4.215l9.249-2.916 14.306 16.597v-4.056l-14.306-16.597z" fill="#000"/><path d="M127.384 35.67l24.075-11.486-25.196 14.672-9.441 3.003 10.562-6.188z" fill="#D17249"/><path d="M140.801 55.703l10.659-6.178v-25.34l-25.197 14.671 14.538 16.847z" fill="#B35F3F"/><path d="M126.263 38.856l-9.379 2.95v1.41l9.379-2.95 14.538 16.876v-1.41l-14.538-16.876z" fill="#544643"/><path d="M151.46 49.525l-10.659 6.179v1.438l10.659-6.178v-1.44z" fill="#3D3331"/><path d="M264.164 103.416l-54.242 31.183v2.459l54.242-31.183v-2.459zM204.903 131.682l-7.252 4.273v2.459l7.252-4.273v-2.459z" fill="#664F43"/><path opacity=".1" d="M206.934 51.633l-5.866 4.302-8.398.75 2.926-9.46 6.165.298 5.173 4.11z" fill="#000"/><path d="M200.009 39.636l-7.339 4.235v12.815l7.339-8.677v-8.373z" fill="#B3A58F"/><path d="M187.786 40.94l4.884 2.931v12.815l-4.884-2.936V40.94z" fill="#F9F1E6"/><path d="M195.12 36.706l-7.334 4.234 4.884 2.93 7.339-4.234-4.889-2.93z" fill="#EDE6DB"/><path d="M190.216 40.96l2.469 1.482 2.42-1.4v-2.907l-4.889 2.825z" fill="#7A7871"/><path d="M195.105 38.135v2.906l2.474-1.424-2.474-1.482z" fill="#B3A58F"/><path d="M246.61 67.835l-34.224 39.387v2.637l34.224-39.387 22.241 7.464v-2.637l-22.241-7.464z" fill="#3D3331"/></g><defs><clipPath id="clip0"><path fill="#fff" transform="translate(107 7)" d="M0 0h177.005v134.831H0z"/></clipPath></defs></svg>