<svg width="375" height="156" fill="none" xmlns="http://www.w3.org/2000/svg" viewBox="0 0 375 156"><path d="M375 0H0v156h375V0z" fill="#F5FCFF"/><mask id="a" maskUnits="userSpaceOnUse" x="0" y="0" width="375" height="156"><path transform="matrix(-1 0 0 1 375 0)" fill="#F5FCFF" d="M0 0h375v156H0z"/></mask><g mask="url(#a)"><path d="M481.001-5.706L374.813.097 176.85 20.841l-36.883 21.902 167.705 97.683 140.778 13.258 32.551-159.39z" fill="#00AD00"/><path d="M437.509-7.297S75.41 4.265 51.072 44.358C21.094 93.745 318.26 226.2 318.26 226.2l250.865-59.442s-397.638-99.299-379.744-129.2C208.081 6.31 578.295-2.295 578.295-2.295L437.509-7.297z" fill="#fff"/><path d="M346.422 206.702S52.671 89.192 79.234 44.358C103.14 4.01 465.67-5.998 465.67-5.998l81.019 1.535S176.252 6.173 157.776 37.553c-19.749 33.549 379.745 144.365 379.745 144.365l-191.099 24.784z" fill="#004EBB"/><path d="M325.671 55.067h-2.706v53.134h2.706V55.067z" fill="#5F6464"/><path d="M302.562 46.956l18.716-18.953a4.29 4.29 0 0 1 6.12 0l18.716 18.953a4.423 4.423 0 0 1 0 6.2l-18.716 18.948a4.29 4.29 0 0 1-6.12 0l-18.716-18.949a4.43 4.43 0 0 1 0-6.2z" fill="#fff"/><path d="M304.915 48.482l17.874-18.098a2.17 2.17 0 0 1 3.102 0l17.874 18.098a2.24 2.24 0 0 1 0 3.142l-17.874 18.1a2.17 2.17 0 0 1-3.102 0l-17.874-18.1a2.24 2.24 0 0 1 0-3.142z" fill="#fff"/><path d="M324.34 71.174a2.958 2.958 0 0 1-2.112-.886l-17.874-18.099a3.057 3.057 0 0 1 0-4.276l17.874-18.099a2.94 2.94 0 0 1 2.108-.885c.797 0 1.547.312 2.112.885l17.874 18.1a3.02 3.02 0 0 1 .874 2.135c0 .806-.313 1.567-.874 2.14l-17.874 18.099a2.944 2.944 0 0 1-2.108.886z" fill="#004EBB"/><path d="M332.644 58.442c4.589-4.645 4.589-12.176 0-16.82a11.644 11.644 0 0 0-16.612 0c-4.588 4.644-4.588 12.175 0 16.82a11.644 11.644 0 0 0 16.612 0z" fill="#fff"/><path d="M334.688 53.688c1.996-5.787-1.022-12.119-6.741-14.135-5.715-2.02-11.967 1.038-13.963 6.825-1.996 5.787 1.022 12.12 6.741 14.135 5.719 2.02 11.971-1.038 13.963-6.825z" fill="#fff"/><path d="M313.615 52.33A11.124 11.124 0 0 0 316 57.231c1.755-7.93 8.749-13.862 17.109-13.862a11.9 11.9 0 0 0-.521-.645 17.616 17.616 0 0 0-3.239-.309c-6.901.004-12.872 4.044-15.734 9.915z" fill="#0046B4"/><path d="M319.419 59.953a10.809 10.809 0 0 0 4.921 1.182c6.056 0 10.961-4.97 10.961-11.101 0-2.1-.577-4.064-1.575-5.735-7.61 1.39-13.514 7.755-14.307 15.654zM327.157 41.153c1.539 0 3.034.204 4.457.581a10.857 10.857 0 0 0-7.278-2.801c-5.226 0-9.594 3.703-10.692 8.656 3.222-3.931 8.079-6.436 13.513-6.436z" fill="#46B400"/></g><g clip-path="url(#clip0)"><path d="M230.384 147.667l-101.126-57.16c-5.679-3.275-5.679-11.454 0-14.73l21.1-12.161 121.626 68.974-26.156 15.073a15.467 15.467 0 0 1-15.444.004z" fill="#0032A5"/><path d="M273.466 96.293s-.681-.472-.863-.55c-.217-.092-.356-.336-.356-.696v-5.203c0-.654.461-1.451 1.03-1.78l1.61-.93c.495-.286.941-.293 1.246-.069.26.19.813.519.813.519l-3.48 8.71z" fill="#262729"/><path d="M275.735 95.268l-1.599.92c-.572.33-1.037.063-1.037-.6v-5.201c0-.655.461-1.452 1.03-1.781l1.61-.93c.921-.53 1.664-.1 1.664.96v3.748c-.003 1.064-.747 2.353-1.668 2.884z" fill="#36373B"/><path d="M176.025 81.758l-13.613 7.843v8.725l13.613-8.292v-8.276zM245.724 120.087l-13.614 7.847v8.721l13.614-8.288v-8.28z" fill="#808285"/><path d="M244.842 128.262c-2.033-1.173-3.875-1.281-5.203-.507l-4.161 2.412c1.328-.771 11.671 17.028 10.358 17.79l4.162-2.411c1.312-.763 2.125-2.381 2.132-4.68.008-4.638-3.251-10.277-7.288-12.604z" fill="url(#paint0_linear)"/><path d="M239.933 127.601z" fill="#231F20"/><path d="M252.27 139.856c-.023-.322-.058-.72-.186-1.394-.101-.519-.124-.604-.352-1.417 0-.007-.174-.607-.503-1.412a15.887 15.887 0 0 0-.647-1.386 17.658 17.658 0 0 0-.77-1.336c-.329-.515-.437-.658-.887-1.258a15.602 15.602 0 0 0-1.505-1.676c-.167-.158-.399-.364-.569-.518a8.124 8.124 0 0 0-.639-.511 20.003 20.003 0 0 0-1.08-.717 7.232 7.232 0 0 0-.735-.383c-.233-.097-.535-.232-.775-.309a8.912 8.912 0 0 0-.894-.237 8.102 8.102 0 0 0-.731-.089 4.667 4.667 0 0 0-1.1.07c-.429.097-.429.097-.708.201-.081.031-.17.07-.263.117 1.3-.597 3.019-.426 4.908.661 4.037 2.327 7.3 7.967 7.289 12.6-.008 2.299-.821 3.921-2.133 4.68a3.86 3.86 0 0 0 .763-.577c.24-.224.472-.53.569-.681.174-.267.321-.507.511-.983a6.11 6.11 0 0 0 .305-1.057c.151-.708.198-1.579.132-2.388z" fill="#303030"/><path d="M240.68 130.674c-2.032-1.173-3.874-1.281-5.202-.507-.348.209-1.409.851-1.97 2.597-.345 1.076-.337 2.11-.337 2.447 0 .29.019.762.101 1.35.1.755.267 1.39.267 1.398.112.426.278.987.425 1.401.287.801.577 1.405.581 1.409.101.205.228.488.341.689.112.201.255.476.371.677.116.202.279.461.399.658.186.302.674.999.886 1.259.148.181.337.433.496.607.294.329.697.759 1.01 1.069.163.162.395.367.569.518.159.136.376.306.538.438.004.004.554.433 1.181.789.217.124.511.275.731.38.148.069.353.151.504.213a6.73 6.73 0 0 0 1.161.332c.383.074.755.105 1.111.093a4.295 4.295 0 0 0 1.424-.274c.171-.07.395-.182.562-.268 1.312-.762 2.125-2.38 2.132-4.679.02-4.63-3.243-10.27-7.281-12.596z" fill="#262729"/><path d="M240.262 131.398c-3.805-2.195-6.901-.434-6.917 3.933-.011 4.366 3.066 9.685 6.871 11.879 3.805 2.195 6.902.43 6.913-3.932.016-4.371-3.062-9.689-6.867-11.88z" fill="#1F2023"/><path d="M245.461 143.266c0 .112-.004.24-.012.375-.062 1.072-.43 2.834-2.137 2.834-.658 0-1.44-.248-2.256-.72-3.283-1.893-6.043-6.666-6.035-10.428.004-.964.217-3.213 2.148-3.213.155 0 .314.011.48.042.546.086 1.15.318 1.777.678 3.283 1.9 6.042 6.673 6.035 10.432z" fill="#8C8F98"/><path d="M241.915 140.572c0 .035 0 .077-.004.12-.019.344-.135.909-.685.909-.213 0-.46-.081-.724-.232-1.053-.608-1.939-2.137-1.935-3.344 0-.31.07-1.03.689-1.03.05 0 .101.004.155.012.174.027.367.1.569.217 1.053.611 1.935 2.144 1.935 3.348z" fill="#1F2023"/><path d="M175.871 88.393c-2.032-1.173-3.875-1.282-5.203-.507l-4.161 2.411c1.328-.77 11.671 17.028 10.359 17.79l4.161-2.411c1.312-.763 2.125-2.381 2.133-4.68.011-4.637-3.252-10.277-7.289-12.603z" fill="url(#paint1_linear)"/><path d="M170.963 87.731z" fill="#231F20"/><path d="M183.303 99.986c-.023-.321-.058-.72-.186-1.394-.1-.518-.124-.603-.352-1.416a16.063 16.063 0 0 0-1.15-2.799 17.12 17.12 0 0 0-.77-1.335c-.329-.515-.437-.658-.886-1.258-.004-.004-.43-.566-.991-1.158a15.942 15.942 0 0 0-.515-.518c-.167-.16-.399-.364-.569-.52a8.078 8.078 0 0 0-.639-.51 19.87 19.87 0 0 0-1.08-.716 6.882 6.882 0 0 0-.735-.383c-.232-.097-.534-.233-.774-.31a9.025 9.025 0 0 0-.895-.236 7.62 7.62 0 0 0-.731-.09 4.648 4.648 0 0 0-1.099.07c-.43.097-.43.097-.709.202a2.95 2.95 0 0 0-.263.116c1.301-.596 3.019-.426 4.908.662 4.037 2.326 7.301 7.966 7.285 12.599-.008 2.3-.82 3.922-2.133 4.68.256-.155.449-.278.763-.577.24-.224.472-.53.569-.681.174-.267.321-.507.511-.983.162-.403.263-.836.306-1.057.151-.708.197-1.579.135-2.388z" fill="#303030"/><path d="M171.71 90.804c-2.033-1.173-3.875-1.281-5.203-.507-.348.21-1.409.852-1.97 2.597-.345 1.077-.337 2.11-.337 2.447 0 .29.02.762.101 1.35.1.756.267 1.39.267 1.398.112.426.279.987.426 1.401.286.802.576 1.406.58 1.409.101.206.229.488.341.689.112.202.255.477.372.678.116.201.278.46.398.658.182.302.674.999.887 1.258.147.182.336.433.495.608.294.329.697.758 1.01 1.068.163.163.395.368.569.519.159.135.376.305.539.437.003.004.553.434 1.18.79.217.124.511.275.732.379.147.07.352.151.503.213.004.004.526.213 1.161.333a5.1 5.1 0 0 0 1.111.093 4.345 4.345 0 0 0 1.425-.275c.17-.07.394-.182.557-.267 1.312-.763 2.125-2.381 2.133-4.68.023-4.63-3.24-10.27-7.277-12.596z" fill="#262729"/><path d="M171.292 91.524c-3.805-2.194-6.902-.433-6.917 3.933-.012 4.367 3.065 9.685 6.87 11.88 3.805 2.195 6.902.429 6.914-3.933.015-4.366-3.062-9.685-6.867-11.88z" fill="#1F2023"/><path d="M176.49 103.396c0 .112-.004.24-.012.376-.062 1.072-.429 2.833-2.136 2.833-.658 0-1.44-.248-2.257-.72-3.283-1.893-6.042-6.666-6.035-10.428.004-.964.217-3.213 2.149-3.213.154 0 .313.012.48.043.545.085 1.149.317 1.776.677 3.283 1.9 6.043 6.673 6.035 10.432z" fill="#8C8F98"/><path d="M172.929 100.69c0 .035 0 .078-.004.12-.019.341-.135.902-.677.902-.209 0-.457-.077-.716-.228-1.041-.6-1.92-2.117-1.916-3.314 0-.305.069-1.018.681-1.018.05 0 .101.004.151.012.174.027.364.1.565.217 1.041.6 1.916 2.117 1.916 3.309z" fill="#1F2023"/><path d="M213.464 125.479l-1.966 1.135-.616-40.966 3.147 1.657-.565 38.174zM287.572 121.384c-.461 2.412-1.254 5.117-3.31 7.405-.368.41-26.318 15.452-28.772 16.695l-5.883-13.745-35.546-45.831 33.351-20.075 15.224 8.776c.426.247.882.573 1.3.886.833.623 1.82 1.796 3.07 3.639.325.476.662.995 1.026 1.56 2.438 3.828 5.729 9.805 10.579 18.498 1.424 1.917 2.779 3.736 3.987 5.42 2.493 3.476 4.354 6.371 4.9 8.334.267.952.848 4.397.074 8.438z" fill="#EBEEF4"/><path d="M254.271 132.122c-3.391-2.559-6.306-7.637-9.608-13.285-8.651-14.787-12.173-21.828-14.674-23.697a13.311 13.311 0 0 0-1.301-.887l-15.224-8.775v40.001s9.294 5.307 18.646 10.746c0 0-.321-10.804 5.551-7.885l5.199 2.965c6.224 3.898 5.845 14.516 5.845 14.516 2.392 1.157 6.897-.275 7.881-.744 8.368-3.987 24.827-13.358 27.68-16.284 3.294-3.379 4.153-9.066 3.871-11.802 0 0-2.911 4.172-13.715 10.219-12.607 7.052-16.904 7.358-20.151 4.912z" fill="#C9D0D8"/><path d="M241.706 120.664l-16.978-9.785c-3.421-1.971-6.197-6.767-6.197-10.711v-6.027c0-.964.678-1.355 1.514-.87l8.229 4.74c1.382.798 2.706 2.211 3.666 3.914l10.505 17.164c.631 1.114.167 2.098-.739 1.575z" fill="#EBEEF4"/><path d="M239.825 117.664l-15.097-8.698c-3.421-1.97-6.197-6.766-6.197-10.71v-6.027c0-.964.678-1.355 1.514-.871l8.229 4.742c1.382.797 3.074 2.249 4.757 5.318 3.395 6.178 7.533 14.675 7.533 14.675.627 1.107.167 2.094-.739 1.571z" fill="#36373B"/><path d="M240.765 117.161l-15.096-8.698c-3.422-1.97-6.197-6.766-6.197-10.71v-6.027c0-.213.035-.4.097-.554-.604-.116-1.038.287-1.038 1.057v6.027c0 3.944 2.776 8.74 6.197 10.71l15.097 8.698c.569.329.964.062 1.022-.461-.027-.011-.055-.027-.082-.042z" fill="#BEBCC2"/><path d="M229.695 130.454c-.027-1.51.189-3.043.785-4.487.31-.716.732-1.412 1.363-1.962a3.575 3.575 0 0 1 2.33-.859c.844.003 1.634.251 2.354.576.178.078.364.174.534.264l.491.282.98.565 3.925 2.257c.65.395 1.308.72 1.947 1.196.627.457 1.227.941 1.777 1.483 1.107 1.072 2.028 2.322 2.779 3.657a17.289 17.289 0 0 1 1.672 4.239c.36 1.471.592 2.981.554 4.486a19.73 19.73 0 0 0-2.722-8.442 15.7 15.7 0 0 0-2.802-3.399 15.3 15.3 0 0 0-1.715-1.37c-.577-.418-1.277-.755-1.92-1.13l-3.921-2.222-.979-.557-.492-.279c-.163-.085-.31-.167-.476-.24-.643-.302-1.324-.515-1.994-.526a2.758 2.758 0 0 0-1.846.596c-.542.406-.968.994-1.304 1.633-.682 1.289-1.069 2.756-1.32 4.239z" fill="#EBEEF4"/><path d="M231.433 133.26l-.07-.043-13.184-7.598-.004-.024c-.023-.104-2.466-10.66-2.733-20.507-.131-4.839.124-14.322 2.032-15.604.271-.182.569-.205.887-.066l10.525 6.128c1.296.755 3.05 2.686 3.994 4.397l5.969 11.199c.163.302.248.642.248.987l-.008 5.105-.762 1.514-.086 5.864-.313.786v2.125l-.693-.43c-1.277-.727-2.516-.332-3.143-.031-1.092.527-1.92 1.506-2.063 2.435l-.596 3.763zm-13.157-7.711l13.071 7.533.569-3.596c.148-.964 1.003-1.978 2.126-2.52 1.114-.538 2.268-.523 3.247.035l.527.325.003-1.955.314-.786.085-5.872.763-1.513v-5.067c0-.326-.082-.647-.233-.933l-5.968-11.199c-.922-1.668-2.694-3.623-3.953-4.354l-10.517-6.124a.761.761 0 0 0-.77.058c-1.866 1.254-2.113 10.695-1.986 15.511.26 9.611 2.594 19.896 2.722 20.457z" fill="#6D6E71"/><path d="M274.554 105.417c-2.117 1.529-7.328 4.591-10.711 6.565l-.487.282c-3.341 1.924-5.087 2.88-7.359 3.991-.093.047-.186.089-.275.132-5.055 2.326-10.308.735-13.01-4.181l31.343-18.181c.24.515.476 1.026.704 1.533 1.723 3.828 3.279 7.347-.205 9.859z" fill="#fff"/><path d="M274.056 104.457c-2.118 1.529-7.328 4.591-10.711 6.565a53.96 53.96 0 0 1-.488.282c-3.34 1.92-5.086 2.88-7.358 3.987-.093.047-.186.089-.275.132-5.055 2.326-10.374.774-13.076-4.142-3.619-6.58-8.767-13.621-8.767-13.621l20.345-11.323 10.742-5.976 1.726-.96s6.445 11.69 7.358 13.66c.24.515.477 1.026.705 1.533 1.726 3.832 3.286 7.351-.201 9.863z" fill="#36373B"/><path d="M272.82 99.034l-15.096-8.698c-1.525-.879-2.923-2.323-4.003-3.995l10.742-5.976c.515.67 1.041 1.467 1.564 2.419 3.394 6.178 7.532 14.674 7.532 14.674.631 1.111.167 2.098-.739 1.576z" fill="#4F4E52"/><path d="M233.376 97.66s.913 1.366 2.094 2.934c.619-.287 8.264-4.243 17.578-9.445 8.012-4.475 13.64-8.454 14.573-9.14-.898-1.582-1.432-2.608-1.432-2.608L233.376 97.66zM273.861 104.596c-2.144 1.495-7.13 4.452-10.517 6.426l-.487.283c-3.341 1.92-5.087 2.88-7.359 3.987-.093.046-.186.089-.275.131-4.385 1.998-9.178 1.27-12.212-2.798l17.546-10.01.62-1.766a3.431 3.431 0 0 1 1.529-1.842l5.036-2.903a3.451 3.451 0 0 1 2.291-.414l1.847.31 2.384-1.41c1.719 3.836 3.402 7.355-.403 10.006z" fill="#262729"/><path d="M268.031 80.694l-32.778 18.84a4.339 4.339 0 0 1-4.362-.024l-17.872-10.54.623-1.777 20.036 11.098 33.335-19.161c.318.476.659.999 1.018 1.564z" fill="#E1E2E3"/><path d="M257.716 56.846L232.528 42.33c-1.111-.639-2.168-.712-2.919-.205l-3.185 2.152-42.459-24.468c-1.793-1.033-3.399-1.041-4.483-.22-.898.68-33.99 19.563-33.99 19.563l32.546 28.683 56.611 30.343s33.456-18.963 33.99-19.427c.403-.345.639-.941.639-1.738v-.17c.004-7.363-5.175-16.316-11.562-19.998z" fill="#EBEEF4"/><path d="M226.424 44.277l-34.338 19.76-.848-.472 34.342-19.76.844.472z" fill="#F0F1F2"/><path d="M235.009 96.588v.17c0 1.854-1.316 2.613-2.926 1.688l-16.343-9.418c-1.885-1.088-4.238.27-4.238 2.446v35.144l-32.492-18.724c0-.12 0-.232.004-.29.004-1.726-.236-10.71-5.849-14.225l-5.199-2.966c-5.26-2.612-5.554 5.784-5.554 7.56v.356L143.855 87.63a1.312 1.312 0 0 1-.658-1.138v-4.861l.569-.33V42.973c0-.747.104-1.409.302-1.97.147-.43.352-.805.596-1.115 1.053-1.327 2.915-1.544 5.028-.329l42.459 24.472 3.186-2.152c.751-.507 1.808-.434 2.919.205l25.187 14.516c6.364 3.661 11.566 12.657 11.566 19.989z" fill="#C9D0D8"/><path d="M210.449 108.591L143.77 70.165v-8.66l66.679 38.427v8.659zM232.482 90.421v1.46l-88.414-50.883a3.77 3.77 0 0 1 .596-1.115l87.818 50.538z" fill="#8B5E3C"/><path d="M152.306 38.594c15.937 9.186 22.982 13.23 38.914 22.416 1.045.604 2.253-.089 1.204-.693-15.936-9.185-22.981-13.23-38.914-22.416-1.045-.604-2.249.09-1.204.693z" fill="#F1F2F2"/><path d="M153.509 38.348c15.936 9.186 22.981 13.23 38.914 22.416.147.085.247.17.313.256.167-.182.124-.45-.313-.697-15.937-9.186-22.982-13.23-38.914-22.416-.902-.519-1.916-.078-1.517.441.24-.263.905-.356 1.517 0z" fill="#C9D0D8"/><path d="M157.097 35.85c15.937 9.185 22.982 13.23 38.914 22.416 1.045.604 2.253-.089 1.204-.693-15.933-9.185-22.978-13.234-38.91-22.416-1.049-.604-2.253.09-1.208.693z" fill="#F1F2F2"/><path d="M158.306 35.599c15.937 9.185 22.982 13.23 38.914 22.416.147.085.248.17.313.255.167-.182.124-.449-.313-.697-15.936-9.185-22.981-13.234-38.914-22.416-.902-.518-1.916-.077-1.517.442.236-.26.902-.353 1.517 0z" fill="#C9D0D8"/><path d="M161.889 33.105c15.937 9.186 22.982 13.23 38.914 22.416 1.045.604 2.253-.089 1.204-.692-15.936-9.186-22.981-13.231-38.914-22.416-1.045-.604-2.249.089-1.204.692z" fill="#F1F2F2"/><path d="M163.098 32.854c15.937 9.185 22.982 13.23 38.914 22.416.147.085.248.17.313.255.167-.181.124-.449-.313-.696-15.936-9.186-22.981-13.23-38.914-22.416-.902-.519-1.916-.078-1.517.44.236-.258.902-.351 1.517 0z" fill="#C9D0D8"/><path d="M166.685 30.361c15.936 9.186 22.981 13.23 38.914 22.416 1.045.604 2.253-.089 1.204-.693-15.937-9.185-22.982-13.23-38.914-22.416-1.049-.608-2.253.09-1.204.693z" fill="#F1F2F2"/><path d="M167.889 30.11c15.937 9.185 22.982 13.23 38.914 22.416.147.085.248.17.313.255.167-.182.124-.449-.313-.696-15.936-9.186-22.981-13.231-38.914-22.416-.902-.52-1.916-.078-1.517.44.236-.262.902-.352 1.517 0z" fill="#C9D0D8"/><path d="M171.477 27.613c15.936 9.185 22.981 13.23 38.914 22.416 1.045.604 2.253-.09 1.204-.693-15.937-9.186-22.982-13.23-38.914-22.416-1.049-.604-2.253.089-1.204.693z" fill="#F1F2F2"/><path d="M172.682 27.367c15.936 9.185 22.981 13.23 38.913 22.416.147.085.248.17.314.255.166-.182.124-.449-.314-.697-15.936-9.185-22.981-13.23-38.913-22.416-.902-.518-1.916-.077-1.518.442.237-.264.902-.357 1.518 0z" fill="#C9D0D8"/><path d="M176.27 24.868c15.936 9.186 22.981 13.23 38.913 22.416 1.045.604 2.253-.089 1.204-.693-15.936-9.185-22.981-13.23-38.914-22.416-1.049-.604-2.252.09-1.203.693z" fill="#F1F2F2"/><path d="M177.474 24.617c15.936 9.185 22.981 13.23 38.913 22.416.147.085.248.17.314.255.166-.182.124-.449-.314-.697-15.936-9.185-22.981-13.23-38.913-22.416-.902-.518-1.916-.077-1.518.442.237-.26.906-.353 1.518 0z" fill="#C9D0D8"/><path d="M181.062 22.124c15.936 9.186 22.981 13.23 38.913 22.416 1.045.604 2.253-.089 1.204-.693-15.932-9.185-22.977-13.234-38.914-22.416-1.049-.604-2.252.09-1.203.693z" fill="#F1F2F2"/><path d="M182.266 21.872c15.936 9.186 22.981 13.231 38.913 22.416.147.086.248.17.314.256.166-.182.124-.449-.314-.697-15.932-9.185-22.977-13.234-38.913-22.416-.902-.518-1.916-.077-1.518.441.24-.259.906-.352 1.518 0z" fill="#C9D0D8"/><path d="M189.918 34.971l-6.372-3.696c-.7-.407-1.842-.407-2.55 0l-11.961 6.894c-.705.406-.709 1.068-.008 1.474l6.371 3.697c.701.406 1.843.406 2.551 0l11.961-6.894c.709-.41.709-1.068.008-1.475z" fill="#F1F2F2"/><path d="M191.067 35.242c0 .267-12.495 7.095-12.495 7.095-.704.407-1.85.407-2.551 0 0 0-6.894-3.596-6.894-3.863v.438c0 .267.175.53.527.731l6.371 3.697c.701.406 1.843.406 2.551 0l11.961-6.894c.356-.205.534-.476.534-.743l-.004-.46z" fill="#C9D0D8"/><path d="M190.545 34.538l-6.371-3.697c-.701-.407-1.843-.407-2.551 0l-11.961 6.894c-.704.406-.708 1.068-.008 1.475l6.372 3.696c.7.407 1.842.407 2.551 0l11.961-6.894c.704-.406.708-1.068.007-1.474zM244.16 58.893l-6.371-3.697c-.701-.406-1.843-.406-2.551 0l-11.961 6.894c-.705.407-.708 1.069-.008 1.475l6.372 3.697c.7.406 1.842.406 2.55 0l11.961-6.894c.705-.407.709-1.069.008-1.475z" fill="#F1F2F2"/><path d="M245.31 59.164c0 .267-12.496 7.095-12.496 7.095-.704.407-1.85.407-2.55 0 0 0-6.894-3.596-6.894-3.863v.438c0 .267.174.53.526.731l6.371 3.697c.701.406 1.843.406 2.551 0l11.961-6.894c.356-.205.534-.476.534-.743l-.003-.46z" fill="#C9D0D8"/><path d="M244.784 58.463l-6.368-3.696c-.7-.407-1.842-.407-2.551 0l-11.961 6.894c-.704.406-.708 1.068-.007 1.474l6.371 3.697c.701.407 1.843.407 2.551 0l11.961-6.894c.704-.41.708-1.068.004-1.475z" fill="#F1F2F2"/><path d="M231.538 66.504c-.368 0-.716-.082-.956-.221l-6.372-3.697c-.158-.093-.158-.282.004-.38l11.961-6.893c.244-.14.592-.22.96-.22s.716.08.956.22l6.372 3.697c.158.093.158.282-.008.379l-11.961 6.894c-.24.14-.588.22-.956.22z" fill="#36373B"/><path d="M224.21 62.586l.302.174 11.663-6.723c.244-.14.592-.22.96-.22s.716.08.956.22l6.066 3.518.298-.17c.166-.097.166-.286.008-.38l-6.372-3.696c-.24-.14-.588-.22-.956-.22s-.716.08-.96.22l-11.961 6.894c-.162.1-.162.29-.004.383z" fill="#BEBCC2"/><path d="M229.985 121.148c-5.121-2.841-11.759-7.862-11.759-7.862l19.644 11.202c.004-.004-2.845-.549-7.885-3.34zM232.11 136.654s-12.495-7.49-16.791-9.263c-2.435-1.006-3.817-.774-3.817-.774l1.962-5.806s-.197 2.756 1.429 3.898c7.606 5.346 17.217 9.677 17.217 9.677v2.268zM160.341 91.358c-.031-1.603.174-3.224.724-4.777.286-.77.677-1.529 1.269-2.167.589-.635 1.452-1.1 2.358-1.162.906-.058 1.765.194 2.527.542.399.178.736.388 1.084.585l1.041.6 4.162 2.4c.344.205.693.398 1.037.611.341.24.689.473 1.003.736.646.51 1.242 1.08 1.776 1.7 1.08 1.234 1.924 2.647 2.59 4.122a20.892 20.892 0 0 1 1.432 4.614c.294 1.579.468 3.181.422 4.78-.213-3.182-.995-6.321-2.357-9.154-1.39-2.822-3.519-5.257-6.329-6.69l-4.161-2.357-1.042-.588c-.348-.197-.696-.403-1.025-.557-.678-.322-1.405-.53-2.102-.496-.701.02-1.359.333-1.878.84-.53.503-.936 1.165-1.258 1.866-.646 1.413-1.021 2.973-1.273 4.552z" fill="#EBEEF4"/><path d="M200.06 118.078l-7.467-4.293c-1.146-.658-2.071-2.264-2.071-3.584V78.998c0-1.32.929-1.854 2.071-1.196l7.463 4.293c1.146.658 2.071 2.264 2.071 3.584v31.203c.008 1.324-.921 1.858-2.067 1.196z" fill="#58595B"/><path d="M201.949 85.68v31.202c0 .798-.368 1.293-.96 1.293-.252 0-.542-.089-.832-.259l-7.463-4.293c-1.092-.627-1.978-2.164-1.978-3.422V78.999c0-.798.368-1.29.96-1.29.251 0 .542.09.832.26l7.463 4.293c1.088.627 1.978 2.16 1.978 3.418z" fill="#C9D0D8"/><path d="M185.118 85.373l-13.912-8.035c-.805-.465-1.459-1.595-1.459-2.524V66.34c0-.929.654-1.304 1.459-.84l13.912 8.036c.805.465 1.46 1.595 1.46 2.524v8.473c0 .93-.655 1.305-1.46.84z" fill="#EBEEF4"/><path d="M185.49 84.728l-13.912-8.036c-.576-.333-1.087-1.212-1.087-1.878v-8.473c0-.17.178-.286.34-.197l13.912 8.035c.577.333 1.088 1.212 1.088 1.878v8.473c0 .174-.178.29-.341.198z" fill="#36373B"/><path d="M172.326 76.362c-.577-.333-1.088-1.211-1.088-1.877v-8.106l-.407-.236a.224.224 0 0 0-.34.198v8.473c0 .666.507 1.544 1.087 1.877l13.912 8.036a.225.225 0 0 0 .341-.197v-.368l-13.505-7.8z" fill="#BEBCC2"/><path d="M220.289 89.422l-9.635-5.488c-.805-.465-1.459-1.595-1.459-2.524v-8.473c0-.93.654-1.305 1.459-.84l9.635 5.489c.805.464 1.459 1.594 1.459 2.523v8.474c0 .929-.654 1.304-1.459.84z" fill="#EBEEF4"/><path d="M220.661 88.777l-9.635-5.49c-.577-.332-1.088-1.21-1.088-1.877v-8.473c0-.17.179-.286.341-.197l9.635 5.489c.576.332 1.087 1.211 1.087 1.877v8.473c0 .174-.178.29-.34.198z" fill="#36373B"/><path d="M211.773 82.959c-.576-.333-1.087-1.212-1.087-1.877v-8.106l-.407-.236a.225.225 0 0 0-.341.197v8.474c0 .665.508 1.544 1.088 1.877l9.635 5.489a.224.224 0 0 0 .34-.198v-.367l-9.228-5.253z" fill="#BEBCC2"/><path d="M195.713 91.397l-2.718-1.549c-.805-.464-1.459-1.594-1.459-2.523v-7.003c0-.929.654-1.304 1.459-.84l2.718 1.549c.805.464 1.459 1.594 1.459 2.523v7.003c0 .929-.65 1.304-1.459.84z" fill="#EBEEF4"/><path d="M196.089 90.755l-2.718-1.548c-.576-.333-1.087-1.212-1.087-1.878v-7.002c0-.17.178-.287.34-.198l2.718 1.549c.576.333 1.087 1.211 1.087 1.877v7.002a.226.226 0 0 1-.34.198z" fill="#36373B"/><path d="M194.118 88.877c-.576-.333-1.087-1.211-1.087-1.877v-6.635l-.407-.236a.224.224 0 0 0-.34.197v7.003c0 .666.507 1.544 1.087 1.877l2.718 1.548a.224.224 0 0 0 .34-.197v-.368l-2.311-1.312z" fill="#BEBCC2"/><path d="M155.098 85.661l-6.682-3.886a1.08 1.08 0 0 1-.541-.94V67.72c0-.468.507-.763.913-.526l6.681 3.886c.337.194.542.55.542.94v13.115a.609.609 0 0 1-.913.526z" fill="#C9D0D8"/><path d="M155.402 85.8a.68.68 0 0 1-.333-.09l-6.681-3.886a1.138 1.138 0 0 1-.569-.987V67.722c0-.24.124-.456.333-.576a.661.661 0 0 1 .666 0l6.681 3.886c.352.201.569.58.569.987v13.114c0 .24-.124.457-.333.577a.694.694 0 0 1-.333.09zm-.279-.186c.174.1.379.1.554 0a.544.544 0 0 0 .274-.48V72.019c0-.368-.197-.708-.514-.89l-6.681-3.887a.546.546 0 0 0-.554 0 .545.545 0 0 0-.275.48v13.115c0 .368.198.708.515.89l6.681 3.886z" fill="#6D6E71"/><path d="M143.197 81.626l17.144 9.925v-.67l-16.575-9.58-.569.325zM181.766 103.938l8.756 5.044v-.67l-8.756-5.013v.639zM190.711 109.051l11.237 6.469v-.67l-11.237-6.468v.669zM202.134 115.659l9.573 5.535v-.669l-9.573-5.536v.67zM186.995 68.748c-15.437-8.899-24.223-13.95-39.66-22.85-.763-.437-.763-1.753 0-1.316 15.44 8.9 24.223 13.951 39.664 22.85.759.438.759 1.754-.004 1.316z" fill="#EBEEF4"/><path d="M190.711 97.215l11.237 6.476v-8.66l-11.237-6.475v8.659z" fill="#8B5E3C"/><path d="M263.731 132.501l18.414-10.602s1.931.631.232 3.519c-1.699 2.887-15.901 10.044-15.901 10.044l-3.136.337v-1.955l.391-1.343z" fill="#36373B"/><path d="M282.238 121.845l-18.507 10.656-.294 1.007.77-.364 18.453-10.637-.422-.662z" fill="#36373B"/><path d="M254.387 135.853s9.615-2.589 10.122-2.024c.77.855 3.542.519 4.215.139 1.444-.809 11.535-6.534 11.942-6.82 3.584-2.497 1.451-5.303 1.451-5.303l1.038-.527s4.691.027 4.653.194c-.264 1.204-3.798 4.792-6.205 6.247-.999.604-14.048 8.098-14.048 8.098s-3.259 1.816-7.037 1.537c-3.542-.267-6.131-1.541-6.131-1.541z" fill="#EBEEF4"/><path d="M162.048 70.525L143.77 59.992v-2.678l14.411 8.302 3.867 4.909zM156.888 63.294l-13.118-7.56v-9.723l13.118 17.283z" fill="#8B5E3C"/><path d="M279.427 133.001l-8.593 4.954v-2.938l8.593-4.951v2.935z" fill="#EBEEF4"/><path d="M248.674 127.082c-.295-.662-1.363-3.546-.709-2.954 1.885 1.7 5.83 3.906 8.934 5.133 3.627 1.436 7.455 2.698 7.513 2.861.101.278.179 2.361-.069 2.976-.449 1.115-8.64 2.114-10.355.477-.607-.581-3.271-3.867-5.314-8.493z" fill="#fff"/><path d="M264.416 132.122c-.019-.059-.511-.252-1.297-.542.039.747.02 1.842-.151 2.26-.41 1.018-7.234 1.936-9.75.852.352.441.623.743.77.882 1.715 1.638 9.906.643 10.355-.476.251-.611.174-2.698.073-2.976z" fill="#F5F6F7"/><path d="M287.808 121.512c-.759.836-2.45 1.788-3.349 2.264a.549.549 0 0 1-.778-.321l-.72-2.036s.693-3.995.639-7.177c-.042-2.489-1.223-9.94-1.223-9.94 2.493 3.476 4.823 6.518 5.365 8.481.263.948.84 4.687.066 8.729z" fill="#fff"/><path d="M287.742 112.783c-.546-1.963-2.872-5.005-5.365-8.481 0 0 .008.042.019.124 2.005 3.1 3.534 6.394 4.003 8.086.224.813.681 3.669.321 7.01a4.003 4.003 0 0 1-1.808 2.942 22.74 22.74 0 0 1-1.296.77l.065.221a.544.544 0 0 0 .778.321c.899-.472 2.59-1.428 3.349-2.264.774-4.042.197-7.781-.066-8.729z" fill="#F5F6F7"/><path d="M220.13 113.062a.824.824 0 0 1-.406-.116l-.798-.461c-.406-.232-.708-.762-.708-1.227v-2.62c0-.418.255-.709.623-.709.132 0 .271.039.406.116l.798.461c.406.232.708.763.708 1.227v2.621c0 .418-.255.708-.623.708z" fill="#F9FAFA"/><path d="M220.436 109.733v1.901c0 .352-.248.491-.55.317l-.797-.461c-.306-.174-.554-.603-.554-.952v-1.9c0-.337.229-.48.515-.337.012.004.023.011.039.019l.797.461c.302.174.55.6.55.952z" fill="#EBEEF4"/><path d="M220.436 109.733v1.873c-.012-.003-.023-.011-.039-.019l-.797-.46c-.306-.175-.55-.604-.55-.953v-1.873c.012.004.024.011.039.019l.797.461c.302.174.55.6.55.952z" fill="#C9D0D8"/><path d="M193.448 97.737a.823.823 0 0 1-.406-.116l-.798-.46c-.406-.233-.708-.763-.708-1.228v-2.62c0-.418.256-.709.623-.709.132 0 .271.04.407.117l.797.46c.407.233.709.763.709 1.227v2.62c0 .419-.256.71-.624.71z" fill="#F9FAFA"/><path d="M193.754 94.408v1.901c0 .352-.248.492-.55.317l-.797-.46c-.306-.174-.553-.604-.553-.953v-1.9c0-.337.228-.48.514-.337.012.004.024.012.039.02l.797.46c.306.174.55.6.55.952z" fill="#EBEEF4"/><path d="M193.754 94.408v1.874c-.011-.004-.023-.012-.038-.02l-.798-.46c-.305-.174-.549-.604-.549-.952v-1.874c.011.004.023.012.038.02l.798.46c.306.174.549.6.549.952z" fill="#C9D0D8"/><path d="M235.687 106.4c1.854 3.472 4.877 9.689 4.877 9.689.627 1.114.166 2.098-.74 1.579l-4.137-2.384V106.4z" fill="#1F2023"/><path d="M232.61 119.565l3.472-8.721s-.623-.403-.786-.453c-.252-.074-.488-.198-.824 0l-1.611.929c-.921.53-1.664 1.819-1.664 2.88v3.747c0 .522.182.89.472 1.068.302.178.902.53.941.55z" fill="#262729"/><path d="M233.775 119.445l1.599-.921c.573-.329 1.037-1.135 1.037-1.796v-5.203c0-.654-.46-.921-1.029-.592l-1.611.929c-.921.53-1.664 1.819-1.664 2.88v3.747c.004 1.053.747 1.482 1.668.956z" fill="#36373B"/><path d="M235.257 112.748a.504.504 0 0 1-.066-1.002l1.831-.248a.502.502 0 1 1 .132.995l-1.831.247c-.019.008-.043.008-.066.008zM235.598 116.638a.504.504 0 0 1-.109-.995l1.715-.383a.503.503 0 1 1 .217.983l-1.715.383a.332.332 0 0 1-.108.012z" fill="#36373B"/></g><defs><linearGradient id="paint0_linear" x1="239.346" y1="144.208" x2="247.624" y2="129.869" gradientUnits="userSpaceOnUse"><stop stop-color="#262729"/><stop offset="1" stop-color="#3D3E42"/></linearGradient><linearGradient id="paint1_linear" x1="170.375" y1="104.339" x2="178.654" y2="89.999" gradientUnits="userSpaceOnUse"><stop stop-color="#262729"/><stop offset="1" stop-color="#3D3E42"/></linearGradient><clipPath id="clip0"><path fill="#fff" transform="translate(125 19)" d="M0 0h163.195v130.73H0z"/></clipPath></defs></svg>