<svg width="375" height="156" fill="none" xmlns="http://www.w3.org/2000/svg" viewBox="0 0 375 156"><path d="M375 0H0v156h375V0z" fill="#F5FCFF"/><path d="M187.5 148.245c61.027 0 110.5-18.497 110.5-41.313 0-22.817-49.473-41.313-110.5-41.313S77 84.115 77 106.932c0 22.816 49.473 41.313 110.5 41.313z" fill="#004EBB"/><path d="M187.643 136.267c30.573 0 55.357-9.266 55.357-20.696 0-11.43-24.784-20.696-55.357-20.696s-55.357 9.266-55.357 20.696c0 11.43 24.784 20.696 55.357 20.696z" fill="#0032A5"/><g clip-path="url(#clip0)"><path d="M189.521 16.755l-34.764 9.022a16.312 16.312 0 0 0-4.667 2.049c-1.521.971-2.94 2.218-4.223 3.702-2.668 3.087-4.729 7.163-6.129 12.112-1.397 4.95-2.046 10.47-1.925 16.405.059 2.856.297 5.792.708 8.74l34.76-9.026a73.125 73.125 0 0 1-.708-8.74c-.121-5.934.528-11.455 1.925-16.404s3.46-9.022 6.129-12.112c1.283-1.485 2.702-2.731 4.223-3.703a16.226 16.226 0 0 1 4.671-2.045z" fill="#575756"/><path d="M178.233 116.177l34.76-9.025-.128.033a16.392 16.392 0 0 1-5.228.429c-1.803-.14-3.655-.565-5.498-1.265-3.835-1.459-7.611-4.069-11.225-7.764-3.615-3.692-6.845-8.241-9.601-13.516a74.03 74.03 0 0 1-3.589-8.018 79.521 79.521 0 0 1-2.698-8.526 80.554 80.554 0 0 1-1.738-8.77l-34.76 9.026a80.726 80.726 0 0 0 4.436 17.296 74.813 74.813 0 0 0 3.589 8.017c2.757 5.275 5.986 9.821 9.601 13.516 3.614 3.692 7.39 6.305 11.225 7.764 1.844.701 3.691 1.126 5.499 1.265a16.33 16.33 0 0 0 5.227-.429l.128-.033z" fill="#575756"/><path d="M187.152 7.616c8.106-2.104 17.608 1.166 26.545 10.298 17.765 18.15 26.6 52.58 19.73 76.902-3.413 12.083-10.059 19.4-18.062 21.475l-34.76 9.025c8.003-2.078 14.649-9.392 18.062-21.474 6.87-24.323-1.965-58.753-19.73-76.903-8.941-9.132-18.439-12.402-26.544-10.297l34.759-9.026z" fill="#3C3C3B"/><path d="M198.671 103.838c-6.87 24.323-26.842 29.327-44.61 11.177-17.769-18.146-26.6-52.576-19.73-76.899 6.87-24.323 26.842-29.327 44.61-11.177 17.765 18.146 26.6 52.576 19.73 76.899zm-60.15-35.053a80.726 80.726 0 0 0 4.436 17.295 74.616 74.616 0 0 0 3.589 8.017c2.757 5.276 5.986 9.821 9.601 13.517 3.614 3.691 7.39 6.305 11.225 7.764 1.844.7 3.691 1.125 5.498 1.265a16.392 16.392 0 0 0 5.228-.429 16.168 16.168 0 0 0 4.802-2.086c1.522-.972 2.94-2.214 4.223-3.703 2.669-3.086 4.729-7.163 6.13-12.112 1.396-4.949 2.045-10.466 1.928-16.4a74.67 74.67 0 0 0-.708-8.74 80.487 80.487 0 0 0-4.435-17.296 74.486 74.486 0 0 0-3.589-8.017c-2.757-5.275-5.987-9.821-9.601-13.516-3.615-3.692-7.394-6.306-11.229-7.765-1.844-.7-3.691-1.125-5.498-1.264a16.357 16.357 0 0 0-5.228.429 16.152 16.152 0 0 0-4.802 2.085c-1.522.972-2.94 2.218-4.223 3.703-2.669 3.087-4.729 7.163-6.13 12.112-1.396 4.949-2.045 10.47-1.924 16.405.055 2.848.293 5.788.707 8.736z" fill="#000"/><path d="M168.306 12.616c8.106-2.104 17.607 1.166 26.549 10.298 17.768 18.15 26.599 52.58 19.729 76.902-3.413 12.083-10.059 19.4-18.061 21.475l-3.974 1.03c8.002-2.078 14.649-9.392 18.061-21.475 6.87-24.323-1.964-58.753-19.729-76.902-8.941-9.132-18.44-12.402-26.548-10.298l3.973-1.03z" fill="url(#paint0_radial)"/><path d="M176.474 10.39c8.105-2.104 17.607 1.166 26.548 10.298 17.768 18.15 26.599 52.58 19.73 76.903-3.413 12.082-10.06 19.4-18.062 21.474l-3.974 1.03c8.003-2.078 14.649-9.391 18.062-21.474 6.87-24.323-1.965-58.753-19.73-76.903-8.941-9.132-18.439-12.401-26.548-10.297l3.974-1.03z" fill="url(#paint1_radial)"/><path d="M196.57 109.417l5.587 3.047 2.449-4.968-6.767-4.197-1.324 6.085.055.033z" fill="url(#paint2_radial)"/><path d="M206.556 101.866l-8.691-5.503 3.024-5.213 7.035 4.594-1.368 6.122z" fill="url(#paint3_radial)"/><path d="M200.983 84.2l7.673 4.937.198-6.969-9.843-5.939 1.972 7.97z" fill="url(#paint4_radial)"/><path d="M208.404 75.197l-9.737-5.565-.557-6.507 9.286 5.026 1.008 7.046z" fill="url(#paint5_radial)"/><path d="M205.852 61.104l-2.068-6.917-11.386-5.092 3.659 7.093 9.795 4.916z" fill="url(#paint6_radial)"/><path d="M201.244 47.545l-13.754-5.558-.448-4.81 11.255 4.074 2.947 6.294z" fill="url(#paint7_radial)"/><path d="M194.755 35.161l-3.878-5.41-12.387-2.857 4.692 4.85 11.573 3.417z" fill="url(#paint8_radial)"/><path d="M186.72 24.978l-4.443-4.036-12.853-1.188 5.243 3.23 12.053 1.994z" fill="url(#paint9_radial)"/><path d="M177.746 17.836l-4.722-2.192-13.38.88 5.576 1.165 12.526.147z" fill="url(#paint10_radial)"/><path d="M168.607 14.497l-5.07-.26-11.229 2.503 6.199-.63 10.1-1.613z" fill="url(#paint11_radial)"/><path d="M194.18 114.329l5.128 2.152-3.416 3.098-7.09-1.676 5.378-3.574z" fill="url(#paint12_radial)"/><path d="M192.548 121.771l-6.246 2.174-2.522.03 4.399-2.772 4.369.568z" fill="url(#paint13_radial)"/><path d="M233.5 94.889l-8.845 7.39-2.486 4.861 9.385-6.657 1.946-5.594z" fill="url(#paint14_radial)"/><path d="M229.09 105.352l-9.817 5.898-3.241 3.178 10.092-4.971 2.966-4.105z" fill="url(#paint15_radial)"/><path d="M222.693 112.632l-10.719 4.337-5.403 1.679 12.412-3.608 3.71-2.408z" fill="url(#paint16_radial)"/><path d="M226.645 96.675l1.397-6.17 7.61-8.38-.773 6.591-8.234 7.959z" fill="url(#paint17_radial)"/><path d="M228.745 83.862l.173-6.943 6.418-8.754.477 6.987-7.068 8.71z" fill="url(#paint18_radial)"/><path d="M228.482 70.067l-1.023-7.104 5.415-8.86 1.536 7.064-5.928 8.9z" fill="url(#paint19_radial)"/><path d="M225.985 55.84l4.832-8.676-2.559-6.588-4.362 8.41 2.089 6.855z" fill="url(#paint20_radial)"/><path d="M221.333 42.32l3.974-8.115-3.505-6.053-3.424 7.834 2.955 6.335z" fill="url(#paint21_radial)"/><path d="M214.819 29.938l3.072-7.182-4.19-4.806-2.742 6.617 3.86 5.37z" fill="url(#paint22_radial)"/><path d="M206.901 19.754l2.416-5.84-4.531-3.116-2.413 4.967 4.528 3.989z" fill="url(#paint23_radial)"/><path d="M197.791 12.674l2.394-4.036-4.454-1.286-2.566 3.094 4.626 2.228z" fill="url(#paint24_radial)"/><path d="M191.446 7.044l-2.651 2.232-4.699-.274 1.268-.807 6.082-1.151z" fill="url(#paint25_radial)"/><path d="M146.861 85.306l4.293-1.114a.052.052 0 0 1-.007-.018l-4.293 1.114a.026.026 0 0 1 .007.019z" fill="#878787"/><path d="M146.855 85.285l4.293-1.115-.044-.113-4.293 1.114c.014.04.029.077.044.114z" fill="#848484"/><path d="M146.811 85.171l4.293-1.114-.033-.103-4.293 1.115.033.102z" fill="gray"/><path d="M146.777 85.069l4.293-1.115c-.011-.032-.019-.066-.03-.098l-4.292 1.114c.011.033.018.066.029.099z" fill="#7D7D7D"/><path d="M146.747 84.965l4.293-1.114-.022-.099-4.293 1.114.022.1z" fill="#797979"/><path d="M146.727 84.87l4.292-1.114c-.007-.033-.014-.066-.018-.099l-4.293 1.115a.863.863 0 0 0 .019.099z" fill="#757575"/><path d="M146.708 84.771l4.293-1.114c-.007-.033-.011-.066-.015-.1l-4.293 1.115c.004.033.008.066.015.099z" fill="#727272"/><path d="M146.689 84.672l4.293-1.114a3.57 3.57 0 0 1-.011-.103l-4.293 1.115.011.102z" fill="#6E6E6E"/><path d="M146.679 84.57l4.293-1.115a1.019 1.019 0 0 1-.008-.106l-4.292 1.114c0 .037.003.07.007.106z" fill="#6B6B6B"/><path d="M146.671 84.463l4.293-1.114c-.004-.04-.004-.077-.004-.114l-4.293 1.115c0 .036 0 .077.004.113z" fill="#676767"/><path d="M146.667 84.35l4.293-1.114c0-.044 0-.085.004-.129l-4.293 1.115c0 .04-.004.084-.004.128z" fill="#646464"/><path d="M146.672 84.222l4.292-1.115c.004-.051.008-.102.015-.15l-4.293 1.115c-.003.047-.011.098-.014.15z" fill="#606060"/><path d="M146.687 84.071l4.293-1.114c.055-.37.212-.66.465-.763l-4.293 1.115c-.252.102-.414.392-.465.762z" fill="#5D5D5D"/><path d="M144.687 75.354l4.292-1.115h-.007l-4.293 1.115c.004.003.008.003.008 0z" fill="#6E6E6E"/><path d="M144.684 75.358l4.293-1.115-.059.011-4.293 1.115c.019-.004.037-.008.059-.011z" fill="#727272"/><path d="M144.625 75.368l4.293-1.114c-.019.004-.041.004-.059.004l-4.293 1.114c.019 0 .037 0 .059-.004z" fill="#757575"/><path d="M144.566 75.372l4.292-1.114c-.022 0-.04 0-.062-.004l-4.293 1.114a.343.343 0 0 0 .063.004z" fill="#797979"/><path d="M144.503 75.369l4.293-1.115c-.022-.004-.044-.004-.062-.01l-4.293 1.114c.018.007.04.01.062.01z" fill="#7D7D7D"/><path d="M144.441 75.357l4.293-1.114c-.022-.004-.044-.011-.07-.018l-4.292 1.114a.392.392 0 0 0 .069.018z" fill="gray"/><path d="M144.372 75.34l4.293-1.115a.43.43 0 0 1-.074-.03l-4.293 1.115c.022.014.048.022.074.03z" fill="#848484"/><path d="M144.299 75.31l4.293-1.115-.088-.044-4.293 1.115a.495.495 0 0 0 .088.044z" fill="#878787"/><path d="M144.211 75.266l4.293-1.115a.918.918 0 0 1-.11-.077l-4.293 1.115c.037.029.073.055.11.077z" fill="#8B8B8B"/><path d="M144.101 75.192l4.293-1.114a1.744 1.744 0 0 1-.396-.477l-4.293 1.115c.081.14.172.264.271.363.041.04.081.077.125.114z" fill="#8E8E8E"/><path d="M143.705 74.712l4.292-1.114c-.025-.048-.055-.1-.077-.15l-4.292 1.114c.025.055.051.102.077.15z" fill="#8B8B8B"/><path d="M143.628 74.566l4.293-1.114-.055-.12-4.293 1.113.055.121z" fill="#878787"/><path d="M143.573 74.441l4.293-1.114a1.215 1.215 0 0 1-.04-.11l-4.293 1.114c.011.037.025.074.04.11z" fill="#848484"/><path d="M143.533 74.331l4.292-1.114-.033-.107-4.292 1.115a.474.474 0 0 0 .033.106z" fill="gray"/><path d="M143.496 74.225l4.293-1.114c-.011-.034-.018-.07-.029-.103l-4.293 1.114c.011.037.018.07.029.103z" fill="#7D7D7D"/><path d="M143.467 74.122l4.293-1.114-.011-.04a62.453 62.453 0 0 1-.385-1.657l-4.293 1.114c.121.557.249 1.107.385 1.657.004.015.007.03.011.04z" fill="#797979"/><path d="M143.07 72.43l4.293-1.115c-.194-.88-.37-1.767-.531-2.662l-4.293 1.115c.161.89.341 1.778.531 2.661z" fill="#757575"/><path d="M142.543 69.763l4.293-1.114a64.234 64.234 0 0 1-.429-2.716l-4.293 1.114c.125.91.268 1.818.429 2.716z" fill="#727272"/><path d="M142.114 67.047l4.293-1.115c-.033-.234-.063-.473-.096-.707-.088-.7-.165-1.393-.231-2.082l-4.292 1.114c.066.69.143 1.382.231 2.082.029.235.062.47.095.708z" fill="#6E6E6E"/><path d="M141.788 64.257l4.292-1.114a67.812 67.812 0 0 1-.209-2.881l-4.292 1.114c.047.946.117 1.906.209 2.881z" fill="#6B6B6B"/><path d="M141.579 61.372l4.292-1.114a60.042 60.042 0 0 1-.069-2.262l-4.293 1.114c.007.745.033 1.5.07 2.262z" fill="#676767"/><path d="M141.509 59.11l4.293-1.114v-.03l-4.293 1.115v.03z" fill="#676767"/><path d="M141.509 59.082l4.293-1.115c0-.044 0-.088.003-.128l-4.292 1.114c-.004.04-.004.085-.004.129z" fill="#646464"/><path d="M141.513 58.953l4.293-1.114c.004-.052.007-.103.015-.154l-4.293 1.114a2.153 2.153 0 0 0-.015.154z" fill="#606060"/><path d="M141.53 58.799l4.293-1.114c.062-.422.263-.704.527-.774l-4.292 1.115c-.264.07-.466.351-.528.773z" fill="#5D5D5D"/><path d="M154.804 98.269l4.293-1.115h-.007l-4.293 1.115h.007z" fill="#6E6E6E"/><path d="M154.798 98.269l4.292-1.115-.058.011-4.293 1.115c.022 0 .04-.004.059-.011z" fill="#727272"/><path d="M154.739 98.28l4.292-1.114c-.018.004-.04.004-.058.004l-4.293 1.114c.018 0 .04 0 .059-.004z" fill="#757575"/><path d="M154.68 98.284l4.293-1.114c-.022 0-.04 0-.062-.004l-4.293 1.115c.022.003.04.007.062.003z" fill="#797979"/><path d="M154.618 98.284l4.293-1.115-.066-.01-4.293 1.114.066.01z" fill="#7D7D7D"/><path d="M154.552 98.272l4.293-1.114c-.022-.004-.044-.011-.07-.018l-4.293 1.114c.026.007.048.015.07.018z" fill="gray"/><path d="M154.486 98.254l4.293-1.114a.436.436 0 0 1-.073-.03l-4.293 1.115a.454.454 0 0 0 .073.03z" fill="#848484"/><path d="M154.409 98.225l4.293-1.115c-.03-.01-.055-.029-.085-.044l-4.292 1.115c.029.014.055.03.084.044z" fill="#878787"/><path d="M154.324 98.18l4.293-1.114c-.036-.022-.073-.047-.11-.073l-4.293 1.115.11.073z" fill="#8B8B8B"/><path d="M154.215 98.105l4.292-1.115c-.04-.033-.08-.07-.121-.11a2.844 2.844 0 0 1-.132-.154 52.74 52.74 0 0 1-3.746-5.707l-4.293 1.114a52.596 52.596 0 0 0 3.747 5.708 1.433 1.433 0 0 0 .253.264z" fill="#8E8E8E"/><path d="M150.215 92.132l4.293-1.114-.198-.349a63.206 63.206 0 0 1-1.936-3.746l-4.293 1.114a63.206 63.206 0 0 0 2.134 4.095z" fill="#8B8B8B"/><path d="M148.082 88.038l4.292-1.115a64.418 64.418 0 0 1-1.22-2.734l-4.293 1.114c.388.924.795 1.837 1.221 2.735z" fill="#878787"/><path d="M144.014 49.355l4.292-1.114c-.007-.004-.014-.011-.022-.018l-4.292 1.114.022.018z" fill="#8B8B8B"/><path d="M143.991 49.337l4.293-1.114c-.044-.033-.084-.073-.128-.114l-4.293 1.115c.044.044.084.08.128.113z" fill="#8E8E8E"/><path d="M147.15 83.31l4.293-1.115 11.672-4.788-4.293 1.115-11.672 4.787z" fill="#595959"/><path d="M158.823 78.521l4.293-1.114a.255.255 0 0 1 .07-.022l-4.293 1.114a.255.255 0 0 0-.07.022z" fill="#5D5D5D"/><path d="M143.866 49.225l4.293-1.115a1.798 1.798 0 0 1-.268-.359l-4.293 1.114c.077.136.165.257.268.36z" fill="#8E8E8E"/><path d="M143.599 48.865l4.292-1.114a2.866 2.866 0 0 1-.08-.154l-4.293 1.114c.022.052.051.103.081.154z" fill="#8B8B8B"/><path d="M143.518 48.712l4.293-1.115c-.019-.04-.037-.084-.055-.124l-4.293 1.114c.015.04.033.084.055.125z" fill="#878787"/><path d="M143.463 48.587l4.293-1.115-.044-.114-4.293 1.115c.015.037.026.077.044.114z" fill="#848484"/><path d="M143.419 48.473l4.293-1.115c-.011-.036-.026-.07-.037-.106l-4.292 1.114c.011.037.022.07.036.107z" fill="gray"/><path d="M143.382 48.367l4.292-1.115c-.011-.033-.018-.07-.029-.103l-4.293 1.115c.011.033.019.07.03.102z" fill="#7D7D7D"/><path d="M143.353 48.264l4.293-1.114c-.008-.033-.019-.066-.026-.1l-4.293 1.115a.903.903 0 0 1 .026.1z" fill="#797979"/><path d="M143.331 48.162l4.293-1.115a1.144 1.144 0 0 1-.018-.099l-4.293 1.115c.004.033.011.066.018.099z" fill="#757575"/><path d="M143.309 48.062l4.293-1.114c-.008-.033-.011-.066-.015-.1l-4.293 1.115c.004.033.011.066.015.1z" fill="#727272"/><path d="M143.294 47.963l4.293-1.114a3.57 3.57 0 0 1-.011-.103l-4.293 1.114.011.103z" fill="#6E6E6E"/><path d="M143.284 47.86l4.292-1.114c-.003-.037-.007-.07-.007-.106l-4.293 1.114c0 .037.004.07.008.106z" fill="#6B6B6B"/><path d="M143.276 47.754l4.293-1.114c-.004-.037-.004-.077-.004-.114l-4.293 1.115c0 .037 0 .077.004.113z" fill="#676767"/><path d="M143.272 47.64l4.293-1.114c0-.04 0-.084.004-.125l-4.293 1.115c-.004.04-.004.084-.004.124z" fill="#646464"/><path d="M143.276 47.516l4.293-1.115c.004-.051.007-.102.015-.15l-4.293 1.114a2.275 2.275 0 0 0-.015.15z" fill="#606060"/><path d="M143.293 47.366l4.293-1.115c.011-.062.022-.128.036-.186.558-2.06 1.265-4.004 2.134-5.796.817-1.694 1.741-3.179 2.757-4.465a.567.567 0 0 1 .304-.21l-4.293 1.115a.576.576 0 0 0-.304.21c-1.012 1.282-1.936 2.77-2.757 4.464-.869 1.793-1.576 3.736-2.133 5.796a2.265 2.265 0 0 0-.037.187z" fill="#5D5D5D"/><path d="M156.986 59.008l4.293-1.114-12.974-9.653-4.292 1.115 12.973 9.652z" fill="#979797"/><path d="M157.551 59.158l4.293-1.114h-.008l-4.292 1.114c.003.004.007.004.007 0z" fill="#6E6E6E"/><path d="M157.548 59.161l4.292-1.114-.055.01-4.292 1.115.055-.01z" fill="#727272"/><path d="M157.49 59.173l4.292-1.114c-.018.003-.036.003-.058.003l-4.293 1.115c.022 0 .04-.004.059-.004z" fill="#757575"/><path d="M157.434 59.177l4.293-1.115c-.018 0-.04 0-.059-.003l-4.292 1.114c.018.004.036.004.058.004z" fill="#797979"/><path d="M157.375 59.172l4.292-1.114c-.022-.004-.04-.004-.062-.011l-4.293 1.114c.019.008.041.008.063.011z" fill="#7D7D7D"/><path d="M157.313 59.162l4.293-1.114c-.022-.004-.044-.011-.066-.019l-4.293 1.115c.022.007.044.014.066.018z" fill="gray"/><path d="M157.246 59.143l4.293-1.115a.61.61 0 0 1-.077-.029l-4.293 1.114c.026.011.051.022.077.03z" fill="#848484"/><path d="M157.169 59.114L161.462 58a.896.896 0 0 1-.088-.048l-4.293 1.115a.473.473 0 0 0 .088.047z" fill="#878787"/><path d="M157.078 59.066l4.293-1.114a.944.944 0 0 1-.092-.062l-4.293 1.114c.033.026.063.044.092.062z" fill="#8B8B8B"/><path d="M159.175 68.136l4.292-1.114c.114-.4.33-.638.594-.708l-4.293 1.115c-.26.07-.48.311-.593.707z" fill="#5D5D5D"/><path d="M160.7 71.006l4.293-1.114c-.004 0-.004 0-.008.003l-4.292 1.115s.003 0 .007-.004z" fill="#6E6E6E"/><path d="M160.693 71.01l4.292-1.115a.428.428 0 0 1-.073.015l-4.293 1.115a.523.523 0 0 0 .074-.015z" fill="#727272"/><path d="M160.619 71.025l4.293-1.115c-.026.004-.048.004-.074.004l-4.292 1.114c.025 0 .047-.003.073-.003z" fill="#757575"/><path d="M160.546 71.028l4.293-1.114c-.026 0-.052 0-.077-.004l-4.293 1.115c.026.003.051.003.077.003z" fill="#797979"/><path d="M160.472 71.025l4.293-1.115-.077-.01-4.293 1.114.077.01z" fill="#7D7D7D"/><path d="M160.392 71.013l4.293-1.114-.085-.022-4.293 1.114.085.022z" fill="gray"/><path d="M160.307 70.988l4.293-1.114c-.029-.011-.062-.022-.092-.037l-4.293 1.114c.033.015.063.03.092.037z" fill="#848484"/><path d="M160.216 70.955l4.292-1.115a.687.687 0 0 1-.102-.055l-4.293 1.115c.033.018.07.036.103.055z" fill="#878787"/><path d="M160.113 70.9l4.293-1.115c-.044-.026-.088-.059-.136-.092l-4.293 1.115c.044.033.092.062.136.091z" fill="#8B8B8B"/><path d="M159.978 70.805l4.292-1.115a1.405 1.405 0 0 1-.154-.139 2.26 2.26 0 0 1-.329-.444l-4.293 1.118c.095.17.205.32.33.444.051.051.102.095.154.136z" fill="#8E8E8E"/><path d="M159.494 70.225l4.293-1.114a2.454 2.454 0 0 1-.096-.187l-4.292 1.114c.029.063.062.125.095.187z" fill="#8B8B8B"/><path d="M159.398 70.039l4.292-1.115a1.698 1.698 0 0 1-.066-.154l-4.292 1.115c.018.051.04.103.066.154z" fill="#878787"/><path d="M159.329 69.885l4.293-1.115a1.473 1.473 0 0 1-.052-.14l-4.293 1.115c.019.048.033.096.052.14z" fill="#848484"/><path d="M159.277 69.749l4.293-1.115-.044-.128-4.293 1.114c.015.04.03.085.044.129z" fill="gray"/><path d="M159.237 69.617l4.293-1.114-.037-.125-4.293 1.115c.011.044.022.084.037.124z" fill="#7D7D7D"/><path d="M159.201 69.492l4.292-1.114c-.011-.04-.022-.081-.029-.125l-4.293 1.114c.008.044.019.085.03.125z" fill="#797979"/><path d="M159.171 69.371l4.293-1.114c-.008-.04-.019-.08-.026-.121l-4.293 1.114c.007.037.015.077.026.121z" fill="#757575"/><path d="M159.146 69.247l4.293-1.115c-.007-.04-.015-.08-.018-.124l-4.293 1.114c.004.044.011.085.018.125z" fill="#727272"/><path d="M159.127 69.122l4.292-1.115a1.32 1.32 0 0 1-.014-.124l-4.293 1.114c.004.04.007.085.015.125z" fill="#6E6E6E"/><path d="M159.113 68.998l4.293-1.115a5.869 5.869 0 0 1-.011-.132l-4.293 1.114.011.133z" fill="#6B6B6B"/><path d="M159.101 68.865l4.293-1.114c-.004-.048-.004-.092-.004-.14l-4.292 1.115c0 .047.003.091.003.14z" fill="#676767"/><path d="M159.098 68.726l4.292-1.114c0-.051 0-.103.004-.154l-4.293 1.114c0 .052-.003.103-.003.154z" fill="#646464"/><path d="M159.104 68.572l4.293-1.114c.004-.063.011-.125.018-.184l-4.292 1.115c-.008.059-.015.12-.019.183z" fill="#606060"/><path d="M159.121 68.389l4.293-1.115c.011-.088.029-.172.051-.252l-4.293 1.114c-.022.08-.04.165-.051.253z" fill="#5D5D5D"/><path d="M170.935 109.777l4.293-1.114h-.008l-4.292 1.114h.007z" fill="#6E6E6E"/><path d="M170.927 109.777l4.293-1.114-.059.011-4.292 1.115a1.44 1.44 0 0 0 .058-.012z" fill="#727272"/><path d="M170.873 109.788l4.293-1.114c-.018.003-.04.003-.059.003l-4.292 1.115c.018 0 .036 0 .058-.004z" fill="#757575"/><path d="M170.81 109.792l4.293-1.115c-.022 0-.041 0-.063-.003l-4.293 1.114a.35.35 0 0 0 .063.004z" fill="#797979"/><path d="M170.748 109.788l4.292-1.114c-.007 0-.014-.004-.025-.004a15.52 15.52 0 0 1-1.063-.191l-4.293 1.115c.355.077.711.139 1.063.191.011.003.018.003.026.003z" fill="#7D7D7D"/><path d="M169.664 109.598l4.293-1.115a17.534 17.534 0 0 1-1.833-.495l-4.293 1.115c.616.201 1.228.366 1.833.495z" fill="gray"/><path d="M167.83 109.103l4.293-1.115a19.61 19.61 0 0 1-1.95-.755l-.081-.037-4.293 1.115.081.036c.653.294 1.305.543 1.95.756z" fill="#848484"/><path d="M165.799 108.31l4.293-1.114a23.43 23.43 0 0 1-2.325-1.214l-4.292 1.115c.762.454 1.539.861 2.324 1.213z" fill="#878787"/><path d="M163.471 107.097l4.293-1.115a26.104 26.104 0 0 1-2.166-1.437l-.03-.022-4.292 1.115c.011.007.018.015.029.022.715.52 1.437 1.001 2.166 1.437z" fill="#8B8B8B"/><path d="M161.279 105.638l4.293-1.114a.941.941 0 0 1-.125-.114 1.84 1.84 0 0 1-.264-.355l-4.292 1.114a1.62 1.62 0 0 0 .388.469z" fill="#8E8E8E"/><path d="M160.891 105.169l4.293-1.114c-.03-.048-.055-.099-.081-.151l-4.293 1.115c.026.051.052.102.081.15z" fill="#8B8B8B"/><path d="M160.81 105.019l4.293-1.114-.055-.125-4.293 1.115.055.124z" fill="#878787"/><path d="M160.756 104.894l4.292-1.114-.044-.114-4.292 1.114.044.114z" fill="#848484"/><path d="M160.712 104.78l4.292-1.114c-.011-.037-.025-.07-.036-.106l-4.293 1.114c.015.037.026.07.037.106z" fill="gray"/><path d="M160.678 104.674l4.293-1.114c-.011-.033-.019-.07-.03-.103l-4.292 1.114c.007.033.018.07.029.103z" fill="#7D7D7D"/><path d="M160.648 104.572l4.293-1.115c-.007-.033-.018-.066-.026-.099l-4.293 1.115c.008.033.015.066.026.099z" fill="#797979"/><path d="M160.624 104.469l4.292-1.114c-.007-.033-.014-.066-.018-.099l-4.293 1.114a.863.863 0 0 0 .019.099z" fill="#757575"/><path d="M160.605 104.37l4.293-1.114a1.019 1.019 0 0 1-.015-.103l-4.292 1.115a.809.809 0 0 0 .014.102z" fill="#727272"/><path d="M160.586 104.268l4.293-1.115-.011-.102-4.293 1.114.011.103z" fill="#6E6E6E"/><path d="M160.576 104.165l4.293-1.114c-.004-.037-.008-.074-.008-.107l-4.292 1.115c0 .036.003.069.007.106z" fill="#6B6B6B"/><path d="M160.568 104.058l4.293-1.114c-.004-.037-.004-.077-.004-.114l-4.293 1.115c0 .036 0 .076.004.113z" fill="#676767"/><path d="M160.564 103.945l4.293-1.114c0-.044 0-.085.004-.125l-4.293 1.114c0 .041-.004.081-.004.125z" fill="#646464"/><path d="M160.569 103.816l4.292-1.114c.004-.051.008-.103.015-.15l-4.293 1.114c-.003.051-.011.099-.014.15z" fill="#606060"/><path d="M160.584 103.666l4.293-1.114c.011-.066.022-.132.04-.195l-4.293 1.115a1.131 1.131 0 0 0-.04.194z" fill="#5D5D5D"/><path d="M160.626 103.471l4.293-1.114 4.688-17.09-4.292 1.114-4.689 17.09z" fill="#5F5F5F"/><path d="M165.315 86.381l4.293-1.114c.095-.348.271-.535.48-.59l-4.293 1.114c-.209.055-.388.242-.48.59z" fill="#5D5D5D"/><path d="M163.75 79.786l4.293-1.115a2.224 2.224 0 0 1-.33-.444l-4.293 1.115c.096.165.206.315.33.444z" fill="#8E8E8E"/><path d="M163.421 79.338l4.292-1.114a2.134 2.134 0 0 1-.095-.187l-4.293 1.114c.026.066.059.129.096.187z" fill="#8B8B8B"/><path d="M163.322 79.155l4.293-1.114a1.274 1.274 0 0 1-.066-.154L163.256 79c.018.051.044.103.066.154z" fill="#878787"/><path d="M163.256 79l4.292-1.114a1.81 1.81 0 0 1-.051-.139l-4.293 1.115c.015.047.033.095.052.139z" fill="#848484"/><path d="M163.2 78.862l4.293-1.115-.044-.128-4.289 1.115c.011.044.026.088.04.128z" fill="gray"/><path d="M163.16 78.733l4.292-1.114-.036-.125-4.293 1.115c.011.04.022.084.037.124z" fill="#7D7D7D"/><path d="M163.123 78.61l4.293-1.115c-.011-.04-.022-.08-.029-.125l-4.293 1.115c.011.044.018.084.029.124z" fill="#797979"/><path d="M163.094 78.484l4.293-1.114c-.008-.04-.019-.08-.026-.121l-4.293 1.114c.008.04.019.081.026.121z" fill="#757575"/><path d="M163.069 78.363l4.293-1.114a1.18 1.18 0 0 1-.019-.125l-4.292 1.114c.007.044.011.085.018.125z" fill="#727272"/><path d="M163.05 78.24l4.292-1.115a1.32 1.32 0 0 1-.014-.125l-4.293 1.114.015.125z" fill="#6E6E6E"/><path d="M163.035 78.114l4.293-1.115-.011-.132-4.293 1.115.011.132z" fill="#6B6B6B"/><path d="M163.028 77.982l4.293-1.114c-.004-.048-.004-.092-.004-.14l-4.293 1.115c0 .048 0 .092.004.14z" fill="#676767"/><path d="M163.024 77.843l4.293-1.115c0-.051 0-.102.004-.154l-4.293 1.115c-.004.051-.004.102-.004.154z" fill="#646464"/><path d="M163.029 77.69l4.292-1.115c.004-.062.011-.125.019-.183l-4.293 1.114c-.007.059-.015.12-.018.183z" fill="#606060"/><path d="M163.044 77.506l4.293-1.115c.011-.088.029-.172.051-.253.114-.396.33-.638.594-.707l-4.293 1.114c-.264.07-.484.308-.594.708-.022.08-.036.165-.051.253z" fill="#5D5D5D"/><path d="M164.622 80.123l4.293-1.114c-.003 0-.003 0-.007.004l-4.293 1.114c.004-.004.004-.004.007-.004z" fill="#6E6E6E"/><path d="M164.615 80.127l4.293-1.114c-.022.007-.048.01-.073.014l-4.293 1.115a.54.54 0 0 1 .073-.015z" fill="#727272"/><path d="M164.542 80.138l4.292-1.115c-.025.004-.047.004-.073.004l-4.293 1.114c.026.004.052 0 .074-.003z" fill="#757575"/><path d="M164.469 80.145l4.293-1.114c-.026 0-.052 0-.077-.004l-4.293 1.115c.029 0 .051.003.077.003z" fill="#797979"/><path d="M164.395 80.142l4.293-1.114-.077-.011-4.293 1.114.077.011z" fill="#7D7D7D"/><path d="M164.315 80.128l4.293-1.115-.084-.022-4.293 1.115a.41.41 0 0 0 .084.022z" fill="gray"/><path d="M164.231 80.105l4.293-1.114c-.03-.011-.063-.022-.092-.037l-4.293 1.115c.033.014.063.025.092.036z" fill="#848484"/><path d="M164.138 80.069l4.293-1.115a.707.707 0 0 1-.103-.055l-4.292 1.115c.033.022.069.04.102.055z" fill="#878787"/><path d="M164.036 80.014l4.293-1.115c-.044-.025-.088-.058-.136-.091l-4.293 1.114a.984.984 0 0 0 .136.092z" fill="#8B8B8B"/><path d="M163.9 79.922l4.293-1.114a1.341 1.341 0 0 1-.15-.136l-4.293 1.114c.048.052.099.096.15.136z" fill="#8E8E8E"/><path d="M161.393 60.159l4.292-1.115c.114-.395.33-.637.594-.707l-4.292 1.114c-.264.07-.481.312-.594.708z" fill="#5D5D5D"/><path d="M162.917 63.03l4.293-1.115c-.004 0-.004 0-.007.004l-4.293 1.114c0-.004.004-.004.007-.004z" fill="#6E6E6E"/><path d="M162.906 63.033l4.293-1.114c-.022.007-.048.01-.074.015l-4.292 1.114c.025-.007.051-.011.073-.015z" fill="#727272"/><path d="M162.836 63.044l4.293-1.114c-.026.003-.048.003-.073.003l-4.293 1.115c.022 0 .048 0 .073-.004z" fill="#757575"/><path d="M162.763 63.052l4.293-1.115c-.026 0-.051 0-.077-.003l-4.293 1.114c.026 0 .052.004.077.004z" fill="#797979"/><path d="M162.686 63.048l4.293-1.114a14.382 14.382 0 0 1-.077-.011l-4.293 1.114.077.011z" fill="#7D7D7D"/><path d="M162.609 63.034l4.293-1.114-.084-.023-4.293 1.115a.323.323 0 0 0 .084.022z" fill="gray"/><path d="M162.525 63.011l4.292-1.114c-.029-.011-.062-.022-.091-.037l-4.293 1.115a.678.678 0 0 0 .092.036z" fill="#848484"/><path d="M162.433 62.975l4.293-1.114a.696.696 0 0 1-.103-.055l-4.293 1.114c.033.022.066.04.103.055z" fill="#878787"/><path d="M162.326 62.92l4.293-1.114c-.044-.026-.088-.06-.135-.092l-4.293 1.114c.047.037.091.066.135.092z" fill="#8B8B8B"/><path d="M162.195 62.828l4.293-1.114a1.563 1.563 0 0 1-.154-.136 2.227 2.227 0 0 1-.33-.443l-4.293 1.114c.095.165.205.32.33.444a1.7 1.7 0 0 0 .154.135z" fill="#8E8E8E"/><path d="M161.711 62.245l4.293-1.115a2.132 2.132 0 0 1-.095-.187l-4.293 1.115c.029.066.062.128.095.187z" fill="#8B8B8B"/><path d="M161.615 62.062l4.293-1.114a1.267 1.267 0 0 1-.066-.154l-4.293 1.114c.018.052.04.103.066.154z" fill="#878787"/><path d="M161.546 61.908l4.293-1.114a1.852 1.852 0 0 1-.051-.136l-4.293 1.115c.015.044.033.091.051.135z" fill="#848484"/><path d="M161.495 61.77l4.293-1.115-.044-.129-4.293 1.115c.014.044.029.088.044.128z" fill="gray"/><path d="M161.45 61.64l4.293-1.114c-.011-.04-.026-.084-.037-.125l-4.292 1.115c.014.04.025.084.036.124z" fill="#7D7D7D"/><path d="M161.418 61.515l4.293-1.114a1.448 1.448 0 0 1-.03-.125l-4.292 1.115c.007.044.018.084.029.124z" fill="#797979"/><path d="M161.388 61.39l4.293-1.114c-.007-.04-.018-.08-.026-.12l-4.292 1.114c.007.04.014.08.025.12z" fill="#757575"/><path d="M161.364 61.27l4.292-1.114a1.513 1.513 0 0 1-.018-.125l-4.293 1.115c.004.04.011.084.019.124z" fill="#727272"/><path d="M161.344 61.145l4.293-1.114c-.008-.04-.011-.084-.015-.125l-4.293 1.115c.004.04.008.084.015.124z" fill="#6E6E6E"/><path d="M161.33 61.02l4.293-1.114-.011-.132-4.293 1.115c.004.044.004.088.011.132z" fill="#6B6B6B"/><path d="M161.319 60.89l4.292-1.115c-.003-.048-.003-.092-.003-.14l-4.293 1.115c0 .048 0 .092.004.14z" fill="#676767"/><path d="M161.315 60.75l4.293-1.115c0-.05 0-.102.003-.154l-4.292 1.115c0 .051-.004.103-.004.154z" fill="#646464"/><path d="M161.319 60.596l4.293-1.115c.004-.062.011-.125.018-.183l-4.292 1.114c-.008.059-.011.121-.019.184z" fill="#606060"/><path d="M161.339 60.412l4.292-1.114c.011-.088.03-.172.052-.253l-4.293 1.114a1.68 1.68 0 0 0-.051.253z" fill="#5D5D5D"/><path d="M165.127 74.995l4.293-1.114a6.914 6.914 0 0 1-1.052-1.415l-4.293 1.114c.305.532.66 1.012 1.052 1.415z" fill="#8E8E8E"/><path d="M164.075 73.58l4.293-1.115a8.038 8.038 0 0 1-.308-.59l-4.293 1.114c.099.202.202.4.308.59z" fill="#8B8B8B"/><path d="M163.768 72.99l4.292-1.115a12.004 12.004 0 0 1-.216-.487l-4.293 1.114c.07.165.143.326.217.488z" fill="#878787"/><path d="M163.555 72.502l4.293-1.115a8.281 8.281 0 0 1-.165-.436l-4.293 1.115c.047.142.106.29.165.436z" fill="#848484"/><path d="M163.386 72.063l4.293-1.115a12.787 12.787 0 0 1-.136-.414l-4.293 1.115c.044.139.088.278.136.414z" fill="gray"/><path d="M163.251 71.652l4.293-1.115c-.04-.132-.077-.264-.114-.4l-4.293 1.115c.037.132.074.268.114.4z" fill="#7D7D7D"/><path d="M163.137 71.253l4.293-1.115c-.033-.128-.066-.26-.096-.392l-4.292 1.115c.033.132.062.263.095.392z" fill="#797979"/><path d="M163.045 70.86l4.293-1.114a7.62 7.62 0 0 1-.077-.389l-4.293 1.115c.022.128.048.26.077.388z" fill="#757575"/><path d="M162.968 70.472l4.293-1.115c-.022-.132-.044-.264-.062-.392l-4.293 1.114c.018.129.037.26.062.393z" fill="#727272"/><path d="M162.907 70.075l4.292-1.114a13.872 13.872 0 0 1-.047-.403l-4.293 1.114c.011.136.029.271.048.403z" fill="#6E6E6E"/><path d="M162.858 69.676l4.293-1.115c-.015-.139-.022-.278-.03-.417l-4.292 1.114c.007.14.014.279.029.418z" fill="#6B6B6B"/><path d="M162.829 69.258l4.293-1.114a8.303 8.303 0 0 1-.011-.444l-4.293 1.115c0 .146.004.293.011.443z" fill="#676767"/><path d="M162.818 68.815l4.293-1.115c0-.165.007-.33.014-.491l-4.292 1.114a7.178 7.178 0 0 0-.015.492z" fill="#646464"/><path d="M162.832 68.32l4.293-1.115c.011-.198.033-.392.059-.583l-4.293 1.115c-.026.19-.048.384-.059.582z" fill="#606060"/><path d="M162.891 67.737l4.293-1.115a6.34 6.34 0 0 1 .169-.799c.359-1.265 1.056-2.034 1.891-2.25l-4.292 1.114c-.84.216-1.536.986-1.892 2.25-.07.257-.128.525-.169.8z" fill="#5D5D5D"/><path d="M167.911 76.073l4.293-1.114c-.007.004-.018.004-.026.007l-4.292 1.115c.011-.004.018-.004.025-.008z" fill="#6E6E6E"/><path d="M167.885 76.08l4.293-1.114a2.385 2.385 0 0 1-.231.044l-4.293 1.114c.081-.01.158-.025.231-.044z" fill="#727272"/><path d="M167.658 76.124l4.292-1.114a1.643 1.643 0 0 1-.234.014l-4.293 1.115c.081 0 .158-.007.235-.015z" fill="#757575"/><path d="M167.424 76.139l4.293-1.114c-.081 0-.158-.004-.242-.011l-4.293 1.114c.085.007.165.011.242.011z" fill="#797979"/><path d="M167.186 76.128l4.292-1.114a1.955 1.955 0 0 1-.249-.04l-4.293 1.114c.081.018.165.033.25.04z" fill="#7D7D7D"/><path d="M166.932 76.088l4.292-1.114a2.605 2.605 0 0 1-.267-.074l-4.293 1.115c.092.03.18.055.268.073z" fill="gray"/><path d="M166.664 76.014l4.293-1.114a3.142 3.142 0 0 1-.289-.114l-4.293 1.115c.099.044.194.084.289.113z" fill="#848484"/><path d="M166.375 75.9l4.292-1.114a4.282 4.282 0 0 1-.333-.176l-4.293 1.115c.114.07.224.128.334.176z" fill="#878787"/><path d="M166.041 75.729l4.293-1.115a3.768 3.768 0 0 1-.429-.297l-4.293 1.115c.143.114.286.212.429.297z" fill="#8B8B8B"/><path d="M165.616 75.431l4.293-1.114a5.338 5.338 0 0 1-.484-.436l-4.293 1.114c.158.162.319.308.484.436z" fill="#8E8E8E"/><path d="M162.18 53.66l4.293-1.115-8.384-19.326-4.293 1.114 8.384 19.327z" fill="#8F8F8F"/><path d="M153.797 34.333l4.293-1.115-.022-.051-4.293 1.114.022.052z" fill="#878787"/><path d="M153.775 34.282l4.293-1.115-.044-.113-4.293 1.114.044.114z" fill="#848484"/><path d="M153.731 34.168l4.293-1.114c-.011-.037-.026-.07-.037-.107l-4.292 1.115c.014.036.025.073.036.106z" fill="gray"/><path d="M153.698 34.062l4.293-1.115c-.011-.033-.019-.066-.03-.102l-4.293 1.114c.008.037.019.07.03.103z" fill="#7D7D7D"/><path d="M153.668 33.962l4.293-1.114c-.007-.033-.018-.066-.022-.099l-4.293 1.114a.503.503 0 0 0 .022.1z" fill="#797979"/><path d="M153.643 33.864l4.293-1.115c-.007-.033-.014-.066-.018-.099l-4.293 1.115.018.099z" fill="#757575"/><path d="M153.625 33.764l4.293-1.114c-.008-.033-.011-.066-.015-.1l-4.293 1.115c.004.033.008.066.015.1z" fill="#727272"/><path d="M153.61 33.665l4.292-1.114a3.577 3.577 0 0 0-.011-.103l-4.292 1.115a.47.47 0 0 0 .011.102z" fill="#6E6E6E"/><path d="M153.596 33.563l4.292-1.115c-.003-.037-.007-.07-.007-.106l-4.293 1.114c.004.033.004.07.008.106z" fill="#6B6B6B"/><path d="M153.588 33.457l4.293-1.115c-.004-.04-.004-.077-.004-.114l-4.293 1.115c.004.033.004.073.004.114z" fill="#676767"/><path d="M153.588 33.34l4.293-1.115c0-.044 0-.084.004-.128l-4.293 1.114c-.004.044-.004.084-.004.128z" fill="#646464"/><path d="M153.591 33.21l4.293-1.114c.003-.055.007-.106.014-.157l-4.293 1.114a2.095 2.095 0 0 0-.014.158z" fill="#606060"/><path d="M153.605 33.053l4.293-1.114c.051-.352.201-.63.436-.74.785-.375 1.598-.671 2.445-.891l-4.293 1.114c-.846.22-1.66.517-2.445.89-.234.11-.385.39-.436.741z" fill="#5D5D5D"/><path d="M163.281 54.525l4.292-1.115h-.007l-4.293 1.115c0 .003.004.003.008 0z" fill="#6E6E6E"/><path d="M163.273 54.529l4.292-1.115-.062.011-4.293 1.114.063-.01z" fill="#727272"/><path d="M163.21 54.54l4.293-1.115c-.022.004-.04.004-.062.004l-4.293 1.114c.022 0 .044 0 .062-.004z" fill="#757575"/><path d="M163.149 54.543l4.292-1.114c-.022 0-.04 0-.062-.004l-4.293 1.114c.022.004.044.004.063.004z" fill="#797979"/><path d="M163.085 54.54l4.293-1.115a15.13 15.13 0 0 0-.066-.01l-4.293 1.114a.209.209 0 0 0 .066.01z" fill="#7D7D7D"/><path d="M163.021 54.528l4.292-1.114a.476.476 0 0 1-.069-.019l-4.293 1.115a.489.489 0 0 0 .07.018z" fill="gray"/><path d="M162.95 54.51l4.293-1.114c-.026-.008-.051-.019-.077-.03l-4.293 1.115a.73.73 0 0 0 .077.029z" fill="#848484"/><path d="M162.873 54.48l4.293-1.114c-.029-.014-.059-.03-.084-.044l-4.293 1.115c.026.014.055.033.084.044z" fill="#878787"/><path d="M162.789 54.437l4.293-1.115a1.056 1.056 0 0 1-.107-.073l-4.292 1.114c.033.026.069.052.106.074z" fill="#8B8B8B"/><path d="M162.679 54.36l4.292-1.115a1.023 1.023 0 0 1-.117-.106 1.725 1.725 0 0 1-.264-.36l-4.293 1.115c.081.143.173.264.264.359.041.04.077.077.118.106z" fill="#8E8E8E"/><path d="M162.298 53.897l4.292-1.114c-.029-.052-.055-.103-.084-.158l-4.293 1.114c.03.055.055.107.085.158z" fill="#8B8B8B"/><path d="M162.217 53.74l4.293-1.114c-.011-.026-.026-.052-.037-.081l-4.293 1.114c.011.026.022.055.037.081z" fill="#878787"/><path d="M177.441 108.571l4.293-1.115a1.748 1.748 0 0 1-.271-.366l-4.293 1.114c.077.143.172.268.271.367z" fill="#8E8E8E"/><path d="M177.167 108.204l4.292-1.114a1.801 1.801 0 0 1-.08-.151l-4.289 1.115c.022.051.051.102.077.15z" fill="#8B8B8B"/><path d="M177.09 108.054l4.292-1.115a8.932 8.932 0 0 1-.055-.125l-4.292 1.115c.018.044.036.084.055.125z" fill="#878787"/><path d="M177.035 107.929l4.293-1.114-.044-.11-4.293 1.115c.015.036.029.076.044.109z" fill="#848484"/><path d="M176.99 107.819l4.293-1.114-.033-.106-4.293 1.114.033.106z" fill="gray"/><path d="M176.958 107.713l4.292-1.114c-.011-.033-.018-.07-.029-.103l-4.293 1.115c.011.036.019.069.03.102z" fill="#7D7D7D"/><path d="M176.929 107.614l4.292-1.115c-.007-.033-.018-.066-.025-.103l-4.293 1.115c.007.037.018.07.026.103z" fill="#797979"/><path d="M176.903 107.511l4.292-1.114-.003-.022-4.293 1.114a.045.045 0 0 1 .004.022z" fill="#757575"/><path d="M169.332 78.514l4.293-1.114c.114-.4.33-.638.594-.708l-4.293 1.115c-.26.07-.48.308-.594.707z" fill="#5D5D5D"/><path d="M170.859 81.384l4.292-1.115c-.003 0-.003 0-.007.004l-4.293 1.115c0-.004.004-.004.008-.004z" fill="#6E6E6E"/><path d="M170.851 81.388l4.293-1.115c-.022.008-.048.011-.073.015l-4.293 1.115a.539.539 0 0 1 .073-.015z" fill="#727272"/><path d="M170.778 81.399l4.292-1.115c-.025.004-.047.004-.073.004l-4.293 1.114c.026 0 .048 0 .074-.003z" fill="#757575"/><path d="M170.705 81.406l4.293-1.114c-.026 0-.052 0-.077-.004l-4.293 1.115c.025 0 .051.003.077.003z" fill="#797979"/><path d="M170.627 81.403l4.293-1.115-.077-.01-4.293 1.114.077.01z" fill="#7D7D7D"/><path d="M170.551 81.388l4.292-1.114-.084-.022-4.293 1.114c.03.011.055.019.085.022z" fill="gray"/><path d="M170.466 81.366l4.293-1.115c-.03-.01-.063-.022-.092-.036l-4.293 1.114c.029.015.062.026.092.037z" fill="#848484"/><path d="M170.374 81.33l4.293-1.115a.915.915 0 0 1-.106-.055l-4.293 1.115c.036.022.073.04.106.055z" fill="#878787"/><path d="M170.272 81.274l4.292-1.114c-.044-.026-.088-.059-.135-.092l-4.293 1.115a.791.791 0 0 0 .136.091z" fill="#8B8B8B"/><path d="M170.136 81.183l4.293-1.115a1.687 1.687 0 0 1-.154-.135 2.266 2.266 0 0 1-.33-.444l-4.293 1.115c.096.165.206.319.33.443.052.052.103.096.154.136z" fill="#8E8E8E"/><path d="M169.653 80.6l4.292-1.115a2.132 2.132 0 0 1-.095-.187l-4.293 1.114c.03.066.063.129.096.187z" fill="#8B8B8B"/><path d="M169.556 80.417l4.293-1.115a1.267 1.267 0 0 1-.066-.154l-4.293 1.115c.019.051.041.102.066.154z" fill="#878787"/><path d="M169.487 80.263l4.293-1.115a2.492 2.492 0 0 1-.051-.135l-4.293 1.114c.018.044.033.088.051.136z" fill="#848484"/><path d="M169.436 80.124l4.293-1.115c-.015-.044-.03-.084-.044-.128l-4.293 1.114.044.129z" fill="gray"/><path d="M169.395 79.995l4.293-1.115-.037-.124-4.292 1.114c.011.04.022.085.036.125z" fill="#7D7D7D"/><path d="M169.359 79.87l4.293-1.115c-.011-.04-.022-.08-.029-.124l-4.293 1.114c.007.044.018.085.029.125z" fill="#797979"/><path d="M169.329 79.745l4.293-1.114c-.007-.04-.018-.08-.025-.121l-4.293 1.114c.007.04.014.08.025.121z" fill="#757575"/><path d="M169.305 79.625l4.293-1.115a1.176 1.176 0 0 1-.019-.124l-4.292 1.114c.003.04.011.084.018.125z" fill="#727272"/><path d="M169.285 79.5l4.293-1.115c-.007-.04-.011-.084-.015-.124l-4.292 1.114c.003.04.007.085.014.125z" fill="#6E6E6E"/><path d="M169.271 79.375l4.293-1.114-.011-.132-4.293 1.114.011.132z" fill="#6B6B6B"/><path d="M169.26 79.243l4.293-1.114c-.004-.048-.004-.092-.004-.14l-4.293 1.115c0 .044.004.091.004.139z" fill="#676767"/><path d="M169.256 79.104l4.293-1.114c0-.051 0-.103.004-.154l-4.293 1.114c0 .052-.004.103-.004.154z" fill="#646464"/><path d="M169.263 78.95l4.293-1.114c.003-.063.011-.125.018-.184l-4.293 1.115c-.011.058-.014.12-.018.183z" fill="#606060"/><path d="M169.28 78.767l4.293-1.115a1.82 1.82 0 0 1 .051-.253l-4.293 1.115c-.022.08-.04.165-.051.253z" fill="#5D5D5D"/><path d="M178.149 108.849l4.293-1.115h-.008l-4.292 1.115h.007z" fill="#6E6E6E"/><path d="M178.142 108.849l4.293-1.115a1.03 1.03 0 0 1-.059.011l-4.293 1.115a.171.171 0 0 0 .059-.011z" fill="#727272"/><path d="M178.083 108.861l4.293-1.115c-.018.004-.04.004-.059.004l-4.292 1.114c.018 0 .04 0 .058-.003z" fill="#757575"/><path d="M178.025 108.864l4.293-1.114c-.019 0-.041 0-.059-.004l-4.293 1.115a.395.395 0 0 0 .059.003z" fill="#797979"/><path d="M177.966 108.864l4.293-1.115c-.022-.003-.041-.003-.063-.011l-4.292 1.115.062.011z" fill="#7D7D7D"/><path d="M177.899 108.852l4.293-1.114a.54.54 0 0 1-.066-.018l-4.293 1.114c.022.007.044.015.066.018z" fill="gray"/><path d="M177.835 108.834l4.292-1.114c-.025-.008-.047-.019-.073-.03l-4.293 1.115c.026.011.048.022.074.029z" fill="#848484"/><path d="M177.76 108.805l4.293-1.115a1.093 1.093 0 0 1-.084-.044l-4.293 1.115c.025.015.055.033.084.044z" fill="#878787"/><path d="M177.677 108.761l4.293-1.115a.844.844 0 0 1-.11-.077l-4.293 1.115c.037.029.073.055.11.077z" fill="#8B8B8B"/><path d="M177.566 108.684l4.293-1.114a.877.877 0 0 1-.124-.114l-4.293 1.114c.04.044.08.081.124.114z" fill="#8E8E8E"/><path d="M176.9 107.489l4.292-1.114-4.443-21.138-4.292 1.115 4.443 21.137z" fill="#818181"/><path d="M172.455 86.352l4.293-1.114a.828.828 0 0 1-.015-.085l-4.292 1.115c0 .025.007.055.014.084z" fill="#757575"/><path d="M172.438 86.268l4.293-1.115c-.008-.037-.011-.073-.019-.106l-4.292 1.114c.007.033.011.07.018.107z" fill="#727272"/><path d="M172.419 86.161l4.293-1.114a6.096 6.096 0 0 1-.011-.107l-4.293 1.115.011.106z" fill="#6E6E6E"/><path d="M172.409 86.05l4.293-1.114c-.004-.036-.008-.073-.008-.106l-4.292 1.115c0 .036.003.07.007.106z" fill="#6B6B6B"/><path d="M172.401 85.945l4.293-1.114c-.004-.037-.004-.074-.004-.11l-4.293 1.114c0 .037.004.074.004.11z" fill="#676767"/><path d="M172.397 85.835l4.293-1.115c0-.044 0-.084.004-.124l-4.293 1.114c0 .04-.004.08-.004.125z" fill="#646464"/><path d="M172.402 85.71l4.292-1.114c.004-.052.008-.103.015-.15l-4.293 1.114c-.003.047-.011.099-.014.15z" fill="#606060"/><path d="M172.418 85.56l4.293-1.115c.062-.425.271-.707.539-.773l-4.293 1.114c-.268.07-.477.352-.539.774z" fill="#5D5D5D"/><path d="M169.094 64.158l4.293-1.114c-.004 0-.004 0-.008.004l-4.292 1.114c.003-.004.003-.004.007-.004z" fill="#6E6E6E"/><path d="M169.086 64.158l4.293-1.114c-.022.007-.048.01-.073.015l-4.293 1.114a.42.42 0 0 0 .073-.015z" fill="#727272"/><path d="M169.014 64.173l4.292-1.114c-.025.003-.047.003-.073.003l-4.293 1.115c.026 0 .052 0 .074-.004z" fill="#757575"/><path d="M168.94 64.177l4.293-1.115c-.026 0-.051 0-.077-.003l-4.293 1.114a.587.587 0 0 0 .077.004z" fill="#797979"/><path d="M168.866 64.173l4.293-1.114-.077-.011-4.293 1.114a.265.265 0 0 0 .077.011z" fill="#7D7D7D"/><path d="M168.785 64.162l4.293-1.115-.084-.022-4.293 1.115c.029.007.059.014.084.022z" fill="gray"/><path d="M168.701 64.14l4.293-1.114c-.03-.011-.063-.022-.092-.037l-4.293 1.115c.033.014.063.025.092.036z" fill="#848484"/><path d="M168.61 64.103l4.292-1.114a.698.698 0 0 1-.102-.055l-4.293 1.114c.033.022.07.04.103.055z" fill="#878787"/><path d="M168.507 64.049l4.293-1.115c-.044-.025-.088-.058-.136-.091l-4.293 1.114c.048.033.092.066.136.092z" fill="#8B8B8B"/><path d="M168.371 63.957l4.293-1.114a1.687 1.687 0 0 1-.154-.136 2.227 2.227 0 0 1-.33-.443l-4.293 1.114c.096.169.205.319.33.444.055.047.103.095.154.135z" fill="#8E8E8E"/><path d="M167.892 63.374l4.292-1.115a2.118 2.118 0 0 1-.095-.187l-4.293 1.115c.026.066.059.128.096.187z" fill="#8B8B8B"/><path d="M167.793 63.187l4.293-1.114a1.267 1.267 0 0 1-.066-.154l-4.293 1.114c.022.055.044.107.066.154z" fill="#878787"/><path d="M167.727 63.037l4.292-1.114a2.495 2.495 0 0 1-.051-.136l-4.293 1.114c.015.044.033.088.052.136z" fill="#848484"/><path d="M167.675 62.897l4.293-1.114-.044-.129-4.293 1.115c.015.044.026.088.044.128z" fill="gray"/><path d="M167.631 62.77l4.292-1.115-.036-.125-4.293 1.115c.011.04.022.084.037.124z" fill="#7D7D7D"/><path d="M167.594 62.644l4.293-1.114a1.153 1.153 0 0 1-.029-.125l-4.293 1.115c.011.04.018.084.029.124z" fill="#797979"/><path d="M167.565 62.52l4.293-1.115c-.008-.04-.019-.08-.026-.12l-4.293 1.114c.011.04.019.08.026.12z" fill="#757575"/><path d="M167.544 62.4l4.292-1.115a1.517 1.517 0 0 1-.018-.125l-4.293 1.115c.004.04.011.084.019.124z" fill="#727272"/><path d="M167.521 62.274l4.293-1.114c-.008-.04-.011-.084-.015-.125l-4.293 1.115.015.124z" fill="#6E6E6E"/><path d="M167.506 62.15l4.293-1.115a5.869 5.869 0 0 0-.011-.132l-4.293 1.115.011.132z" fill="#6B6B6B"/><path d="M167.499 62.017l4.293-1.114c-.004-.048-.004-.092-.004-.14l-4.293 1.115c0 .044 0 .092.004.14z" fill="#676767"/><path d="M167.495 61.878l4.293-1.115c0-.051 0-.102.004-.154l-4.293 1.115c-.004.051-.004.102-.004.154z" fill="#646464"/><path d="M167.5 61.724l4.292-1.114a2.59 2.59 0 0 1 .019-.183l-4.293 1.114c-.007.059-.015.121-.018.184z" fill="#606060"/><path d="M167.515 61.537l4.293-1.114c.011-.088.029-.172.051-.253l-4.293 1.114c-.022.085-.036.169-.051.253z" fill="#5D5D5D"/><path d="M167.573 61.288l4.293-1.115c.114-.4.33-.638.594-.707l-4.293 1.114c-.264.066-.484.308-.594.708z" fill="#5D5D5D"/><path d="M173.068 73.297l4.293-1.114c-.003 0-.003 0-.007.003l-4.297 1.111h.011z" fill="#6E6E6E"/><path d="M173.058 73.297l4.292-1.114a.428.428 0 0 1-.073.014l-4.293 1.115a.431.431 0 0 0 .074-.015z" fill="#727272"/><path d="M172.988 73.312l4.292-1.115c-.025.004-.047.004-.073.004l-4.293 1.114c.022 0 .048 0 .074-.003z" fill="#757575"/><path d="M172.915 73.315l4.293-1.114c-.026 0-.052 0-.077-.004l-4.293 1.115c.026.003.051.007.077.003z" fill="#797979"/><path d="M172.838 73.312l4.292-1.114-.077-.011-4.292 1.114a.275.275 0 0 0 .077.01z" fill="#7D7D7D"/><path d="M172.761 73.302l4.293-1.115-.085-.022-4.292 1.114c.025.008.055.019.084.023z" fill="gray"/><path d="M172.676 73.279l4.293-1.114c-.03-.011-.063-.022-.092-.037l-4.293 1.114c.03.015.063.026.092.037z" fill="#848484"/><path d="M172.584 73.243l4.293-1.115a.697.697 0 0 1-.103-.055l-4.292 1.115c.033.022.066.04.102.055z" fill="#878787"/><path d="M172.478 73.188l4.293-1.115c-.044-.026-.088-.059-.135-.092l-4.293 1.115c.047.036.091.066.135.091z" fill="#8B8B8B"/><path d="M172.346 73.096l4.293-1.115a1.848 1.848 0 0 1-.154-.135l-4.292 1.114c.051.048.102.095.153.136zM172.192 72.956l4.293-1.114a2.304 2.304 0 0 1-.33-.444l-4.292 1.115c.095.168.205.319.329.443z" fill="#8E8E8E"/><path d="M171.863 72.513l4.293-1.114a2.454 2.454 0 0 1-.096-.187l-4.292 1.114c.029.066.062.129.095.187z" fill="#8B8B8B"/><path d="M171.767 72.33l4.292-1.114a1.698 1.698 0 0 1-.066-.154l-4.292 1.114c.018.051.04.102.066.154z" fill="#878787"/><path d="M171.698 72.176l4.293-1.115a1.883 1.883 0 0 1-.052-.135l-4.293 1.114c.015.044.033.088.052.136z" fill="#848484"/><path d="M171.646 72.037l4.293-1.115c-.014-.044-.029-.084-.044-.128l-4.293 1.114.044.129z" fill="gray"/><path d="M171.602 71.908l4.293-1.114-.037-.125-4.293 1.114c.015.04.026.085.037.125z" fill="#7D7D7D"/><path d="M171.57 71.784l4.292-1.114c-.011-.04-.022-.081-.029-.125l-4.293 1.114c.008.044.019.085.03.125z" fill="#797979"/><path d="M171.54 71.66l4.293-1.115c-.008-.04-.019-.08-.026-.121l-4.293 1.114c.007.04.015.08.026.121z" fill="#757575"/><path d="M171.514 71.538l4.293-1.114c-.007-.04-.015-.081-.018-.125l-4.293 1.114c.004.04.011.085.018.125z" fill="#727272"/><path d="M171.495 71.414l4.293-1.115a1.32 1.32 0 0 1-.014-.124l-4.293 1.114c.004.04.007.085.014.125z" fill="#6E6E6E"/><path d="M171.482 71.288l4.292-1.114-.011-.132-4.292 1.114.011.132z" fill="#6B6B6B"/><path d="M171.47 71.157l4.293-1.114c-.004-.048-.004-.092-.004-.14l-4.292 1.115c0 .044 0 .091.003.14z" fill="#676767"/><path d="M171.467 71.017l4.292-1.114c0-.051 0-.103.004-.154l-4.293 1.114c0 .052-.003.103-.003.154z" fill="#646464"/><path d="M171.473 70.864l4.293-1.114c.004-.063.011-.125.018-.184l-4.292 1.115c-.011.058-.015.12-.019.183z" fill="#606060"/><path d="M171.49 70.68l4.293-1.114c.011-.088.029-.172.051-.253.114-.4.33-.638.594-.707l-4.293 1.114c-.264.07-.484.308-.594.707-.022.081-.04.165-.051.253z" fill="#5D5D5D"/><path d="M170.758 57.923l4.293-1.114h-.007l-4.293 1.114h.007z" fill="#6E6E6E"/><path d="M170.755 57.927l4.293-1.114a5.346 5.346 0 0 0-.055.01l-4.293 1.115c.014-.004.036-.007.055-.011z" fill="#727272"/><path d="M170.697 57.934l4.292-1.115c-.018.004-.036.004-.058.004l-4.293 1.114c.022 0 .04 0 .059-.003z" fill="#757575"/><path d="M170.641 57.937l4.293-1.114c-.018 0-.04 0-.058-.004l-4.293 1.115c.018.003.036.003.058.003z" fill="#797979"/><path d="M170.582 57.938l4.293-1.114c-.022-.004-.04-.004-.062-.011l-4.293 1.114c.018.004.04.007.062.01z" fill="#7D7D7D"/><path d="M170.52 57.927l4.293-1.115a.44.44 0 0 1-.066-.018l-4.293 1.114a.345.345 0 0 0 .066.019z" fill="gray"/><path d="M170.451 57.908l4.292-1.114a.464.464 0 0 1-.073-.03l-4.293 1.115.074.03z" fill="#848484"/><path d="M170.378 57.88l4.292-1.115a7.215 7.215 0 0 0-.088-.044l-4.292 1.114.088.044z" fill="#878787"/><path d="M170.289 57.835l4.293-1.114a1.042 1.042 0 0 1-.114-.077l-4.293 1.114c.041.026.077.051.114.077z" fill="#8B8B8B"/><path d="M170.179 57.754l4.293-1.114a.937.937 0 0 1-.128-.118 1.889 1.889 0 0 1-.279-.374l-4.292 1.115c.084.143.176.271.278.374a.83.83 0 0 0 .128.117z" fill="#8E8E8E"/><path d="M169.772 57.267l4.293-1.115c-.026-.047-.055-.099-.077-.15l-4.293 1.114c.022.052.048.1.077.15z" fill="#8B8B8B"/><path d="M169.691 57.116l4.293-1.114c-.018-.04-.037-.08-.051-.121l-4.293 1.114c.015.04.033.08.051.121z" fill="#878787"/><path d="M169.641 56.995l4.293-1.114c-.015-.037-.03-.074-.041-.11l-4.292 1.114c.011.037.025.073.04.11z" fill="#848484"/><path d="M169.601 56.885l4.292-1.114-.033-.103-4.292 1.114c.007.037.018.07.033.103z" fill="gray"/><path d="M169.567 56.787l4.292-1.115c-.011-.033-.018-.066-.029-.099l-4.293 1.115c.008.033.019.066.03.099z" fill="#7D7D7D"/><path d="M169.537 56.687l4.293-1.114-.022-.096-4.293 1.115.022.095z" fill="#797979"/><path d="M169.516 56.592l4.293-1.115c-.007-.033-.015-.062-.018-.095l-4.293 1.114c.004.03.011.063.018.096z" fill="#757575"/><path d="M169.498 56.497l4.293-1.115c-.008-.033-.011-.066-.015-.099l-4.293 1.115c.004.033.008.066.015.099z" fill="#727272"/><path d="M169.479 56.398l4.293-1.115a3.57 3.57 0 0 1-.011-.102l-4.293 1.114.011.103z" fill="#6E6E6E"/><path d="M169.468 56.292l4.293-1.115a1.017 1.017 0 0 1-.007-.11l-4.293 1.115c0 .036.003.073.007.11z" fill="#6B6B6B"/><path d="M169.461 56.178l4.293-1.114c-.004-.04-.004-.08-.004-.124l-4.293 1.114c0 .044 0 .084.004.124z" fill="#676767"/><path d="M169.457 56.057l4.293-1.115v-.029l-4.293 1.115v.029z" fill="#646464"/><path d="M176.66 79.357l4.293-1.114a1.867 1.867 0 0 1-.15-.227l-4.293 1.114c.044.08.095.158.15.227z" fill="#8E8E8E"/><path d="M176.506 79.134l4.293-1.115a3.736 3.736 0 0 1-.081-.154l-4.292 1.115c.025.051.055.102.08.154z" fill="#8B8B8B"/><path d="M176.425 78.976l4.293-1.114c-.018-.04-.037-.08-.055-.125l-4.293 1.115.055.124z" fill="#878787"/><path d="M176.371 78.856l4.293-1.115c-.015-.037-.029-.07-.04-.106l-4.293 1.114c.015.033.026.07.04.107z" fill="#848484"/><path d="M176.331 78.745l4.293-1.114-.033-.103-4.293 1.115.033.102z" fill="gray"/><path d="M176.297 78.646l4.293-1.114c-.011-.033-.019-.066-.03-.1l-4.292 1.115c.011.033.018.066.029.1z" fill="#7D7D7D"/><path d="M176.272 78.548l4.292-1.115c-.007-.033-.014-.066-.022-.095l-4.292 1.114c.003.03.011.063.022.096z" fill="#797979"/><path d="M176.247 78.448l4.292-1.114c-.007-.033-.014-.066-.018-.096l-4.293 1.115a.678.678 0 0 0 .019.095z" fill="#757575"/><path d="M176.228 78.353l4.293-1.114a1.127 1.127 0 0 1-.015-.1l-4.292 1.115a.837.837 0 0 0 .014.099z" fill="#727272"/><path d="M176.213 78.254l4.292-1.114a3.577 3.577 0 0 0-.011-.103l-4.292 1.114c0 .034.003.067.011.103z" fill="#6E6E6E"/><path d="M176.199 78.148l4.293-1.114c-.004-.037-.008-.074-.008-.11l-4.292 1.114c.003.04.003.077.007.11z" fill="#6B6B6B"/><path d="M176.191 78.041l4.293-1.114c-.004-.04-.004-.081-.004-.121l-4.292 1.114c0 .04.003.08.003.121z" fill="#676767"/><path d="M176.188 77.92l4.292-1.114c0-.044 0-.088.004-.132l-4.293 1.114-.003.132z" fill="#646464"/><path d="M176.194 77.788l4.293-1.114c.003-.055.011-.11.018-.161l-4.293 1.114c-.011.055-.014.107-.018.162z" fill="#606060"/><path d="M176.207 77.627l4.293-1.114c.058-.396.234-.7.516-.774l-4.292 1.115c-.279.077-.458.381-.517.773z" fill="#5D5D5D"/><path d="M176.026 68.085l4.292-1.115c-.014-.003-.033-.003-.047-.007l-4.293 1.114c.015 0 .029.004.048.008z" fill="#7D7D7D"/><path d="M175.978 68.074l4.292-1.114c-.025-.004-.047-.011-.073-.019l-4.293 1.115c.026.007.048.014.074.018z" fill="gray"/><path d="M175.905 68.056l4.293-1.115c-.026-.007-.051-.018-.077-.029l-4.293 1.114c.026.011.051.023.077.03z" fill="#848484"/><path d="M175.828 68.027l4.293-1.115-.084-.044-4.293 1.115c.029.014.055.029.084.044z" fill="#878787"/><path d="M175.744 67.983l4.293-1.115a.932.932 0 0 1-.107-.073l-4.292 1.114c.036.026.069.052.106.074z" fill="#8B8B8B"/><path d="M175.637 67.909l4.293-1.115a3.197 3.197 0 0 1-.121-.106 1.892 1.892 0 0 1-.264-.352l-4.289 1.11a1.637 1.637 0 0 0 .381.463z" fill="#8E8E8E"/><path d="M175.256 67.447l4.293-1.115a2.401 2.401 0 0 1-.081-.157l-4.292 1.114c.025.055.051.106.08.158z" fill="#8B8B8B"/><path d="M175.174 67.29l4.293-1.115c-.018-.04-.04-.084-.055-.128l-4.292 1.114a.735.735 0 0 0 .054.129z" fill="#878787"/><path d="M175.117 67.161l4.292-1.114a15.94 15.94 0 0 1-.044-.117l-4.292 1.114c.014.04.029.08.044.117z" fill="#848484"/><path d="M175.072 67.048l4.293-1.115c-.011-.036-.026-.073-.037-.11l-4.293 1.115c.015.036.026.073.037.11z" fill="gray"/><path d="M175.036 66.938l4.292-1.115c-.01-.036-.021-.07-.029-.106l-4.293 1.114c.011.037.022.07.03.106z" fill="#7D7D7D"/><path d="M175.006 66.831l4.293-1.114c-.008-.033-.019-.07-.026-.103l-4.293 1.115c.011.033.019.07.026.102z" fill="#797979"/><path d="M174.981 66.729l4.293-1.115-.022-.102-4.293 1.114c.011.033.015.07.022.103z" fill="#757575"/><path d="M174.962 66.626l4.293-1.114c-.008-.033-.011-.07-.015-.103l-4.293 1.115c.004.033.007.07.015.102z" fill="#727272"/><path d="M174.947 66.524l4.293-1.115-.011-.102-4.293 1.114c0 .033.004.07.011.103z" fill="#6E6E6E"/><path d="M174.934 66.42l4.292-1.114c-.003-.036-.007-.07-.007-.106l-4.293 1.115c.004.033.004.07.008.106z" fill="#6B6B6B"/><path d="M174.926 66.314l4.293-1.114c-.004-.037-.004-.074-.004-.11l-4.293 1.114c0 .033.004.074.004.11z" fill="#676767"/><path d="M174.922 66.2l4.293-1.114c0-.04 0-.08.004-.121l-4.293 1.114c0 .04-.004.08-.004.121z" fill="#646464"/><path d="M174.926 66.08l4.293-1.114c.004-.052.007-.1.015-.15l-4.293 1.114c-.004.051-.011.099-.015.15z" fill="#606060"/><path d="M174.942 65.93l4.292-1.115c.03-.198.092-.381.195-.528l-4.293 1.114c-.103.147-.165.33-.194.528z" fill="#5D5D5D"/><path d="M169.457 56.032l4.293-1.115.275-20.206-4.293 1.114-.275 20.207z" fill="#6F6F6F"/><path d="M169.733 35.825l4.292-1.115c0-.037 0-.07.004-.103l-4.293 1.115c-.003.033-.003.066-.003.102z" fill="#646464"/><path d="M169.737 35.719l4.292-1.115c.004-.051.008-.102.015-.154l-4.293 1.115a2.002 2.002 0 0 0-.014.154z" fill="#606060"/><path d="M169.753 35.568l4.293-1.114c.062-.429.264-.711.528-.777l-4.293 1.114c-.264.066-.465.348-.528.777z" fill="#5D5D5D"/><path d="M188.23 94.373l4.293-1.114-11.57-15.016-4.292 1.115 11.569 15.015z" fill="#999"/><path d="M188.354 94.516l4.293-1.114c-.04-.044-.084-.092-.124-.143l-4.293 1.114c.04.051.084.1.124.143z" fill="#8E8E8E"/><path d="M189.07 94.79l4.292-1.114h-.007l-4.293 1.114h.008z" fill="#6E6E6E"/><path d="M189.063 94.794l4.293-1.114-.059.01-4.293 1.115.059-.01z" fill="#727272"/><path d="M189.004 94.806l4.293-1.115c-.019.004-.041.004-.059.004l-4.293 1.115c.019 0 .041-.004.059-.004z" fill="#757575"/><path d="M188.946 94.81l4.293-1.115c-.022 0-.041 0-.063-.004l-4.292 1.115c.018 0 .04.004.062.004z" fill="#797979"/><path d="M188.883 94.805l4.292-1.114-.066-.011-4.292 1.114.066.011z" fill="#7D7D7D"/><path d="M188.816 94.795l4.293-1.115c-.022-.003-.044-.01-.069-.018l-4.293 1.114c.025.008.047.015.069.019z" fill="gray"/><path d="M188.748 94.777l4.292-1.115a.454.454 0 0 1-.073-.03l-4.293 1.115c.026.011.048.022.074.03z" fill="#848484"/><path d="M188.675 94.746l4.292-1.114-.084-.044-4.293 1.114c.026.015.055.03.085.044z" fill="#878787"/><path d="M188.586 94.703l4.293-1.114a1.005 1.005 0 0 1-.11-.077l-4.293 1.114c.037.03.074.055.11.077z" fill="#8B8B8B"/><path d="M188.48 94.626l4.292-1.115a1.64 1.64 0 0 1-.12-.11l-4.293 1.115c.036.04.077.077.121.11z" fill="#8E8E8E"/><path d="M175.139 65.401l4.293-1.114 8.424-12.079-4.292 1.114-8.425 12.08z" fill="#595959"/><path d="M183.563 53.322l4.293-1.115a.59.59 0 0 1 .337-.249l-4.293 1.114a.575.575 0 0 0-.337.25z" fill="#5D5D5D"/><path d="M189.099 69.928l4.293-1.114-13.073-1.844-4.292 1.114 13.072 1.844z" fill="#828282"/><path d="M189.308 69.918l4.292-1.114h-.007l-4.293 1.114c.004.004.004.004.008 0z" fill="#6E6E6E"/><path d="M189.301 69.922l4.293-1.114-.059.01-4.293 1.115a1.44 1.44 0 0 0 .059-.011z" fill="#727272"/><path d="M189.242 69.933l4.292-1.115c-.018.004-.04.004-.058.004l-4.293 1.114.059-.003z" fill="#757575"/><path d="M189.182 69.936l4.293-1.115c-.022 0-.041 0-.063-.004l-4.292 1.115c.022.004.04.004.062.004z" fill="#797979"/><path d="M189.121 69.936l4.293-1.114c-.008 0-.015 0-.022-.004l-4.293 1.115c.007.003.015.003.022.003z" fill="#7D7D7D"/><path d="M193.363 98.346c-5.741 20.328-22.432 24.51-37.282 9.341-14.847-15.17-22.23-43.943-16.489-64.27 5.74-20.327 22.431-24.51 37.281-9.34 14.847 15.165 22.23 43.942 16.49 64.27zm-29.54-44.866l.15-20.342c.004-.616-.245-1.247-.594-1.598a.928.928 0 0 0-.469-.28 14.964 14.964 0 0 0-4.458-.197 13.703 13.703 0 0 0-4.413 1.25c-.488.23-.605 1.191-.246 2.02l8.384 19.326c.11.253.242.451.385.598.561.568 1.254.282 1.261-.777zm25.976 14.872a70.77 70.77 0 0 0-1.961-7.214 67.351 67.351 0 0 0-2.867-7.259 1.96 1.96 0 0 0-.355-.531c-.359-.367-.788-.407-1.052-.026l-8.425 12.08c-.432.619-.164 1.843.382 2.397.15.154.322.256.506.282l13.072 1.847c.561.081.895-.67.7-1.576zm-48.29-9.242c.029 2.328.194 4.744.509 7.226a68.733 68.733 0 0 0 1.441 7.746c.103.414.293.762.517.993.26.264.561.37.821.235l11.284-5.818c.674-.348.538-1.899-.14-2.595a1.528 1.528 0 0 0-.209-.176l-13.16-8.59c-.568-.362-1.074.1-1.063.98zm35.933 49.46c.245.25.528.36.777.253a14.9 14.9 0 0 0 3.798-2.338c1.279-1.071 2.423-2.35 3.435-3.813.359-.521.242-1.576-.25-2.229l-11.404-15.217a1.803 1.803 0 0 0-.147-.172c-.711-.726-1.47.007-1.199 1.294l4.447 21.137c.095.455.301.84.543 1.085zm2.174-64.746a43.625 43.625 0 0 0-4.117-4.898c-1.544-1.576-3.113-2.914-4.685-4.01-.557-.389-1.074.044-1.085.909l-.275 20.206c-.008.66.256 1.265.594 1.61.337.344.747.428 1.033.05l8.743-11.635c.374-.502.279-1.565-.208-2.232zm8.739 50.692c.473.483 1.023.359 1.202-.32.521-1.95.917-4.058 1.177-6.312a55.28 55.28 0 0 0 .341-7.302c-.011-.602-.26-1.2-.594-1.54-.154-.158-.326-.26-.502-.286l-13.029-1.914c-.85-.124-1.044 1.536-.289 2.511l11.573 15.016c.037.055.081.103.121.147zm-44.489-45.292c.048.047.095.091.147.132l12.973 9.652c.847.63 1.452-.616.913-1.888l-8.27-19.524a1.898 1.898 0 0 0-.393-.609c-.344-.352-.751-.407-1.019-.07-1.011 1.283-1.935 2.772-2.756 4.465-.869 1.793-1.577 3.736-2.134 5.796-.176.664.073 1.573.539 2.046zm16.76 54.247c-.183.664.066 1.58.528 2.053.048.051.099.095.154.136 1.481 1.085 3.006 1.99 4.571 2.687 1.657.74 3.278 1.213 4.847 1.437.557.08.891-.664.704-1.566l-4.374-21.06c-.099-.473-.3-.843-.531-1.081-.444-.455-1.008-.426-1.21.304l-4.689 17.09zm-13.765-18.164a62.543 62.543 0 0 0 3.156 6.477 53.02 53.02 0 0 0 3.945 6.056c.044.06.088.11.132.154.465.477 1.004.36 1.195-.297l4.839-16.848c.209-.722-.092-1.627-.535-2.082-.235-.238-.51-.352-.77-.246l-11.672 4.788c-.503.205-.638 1.158-.29 1.998zm18.267-10.312c1.862 1.902 3.955 1.378 4.674-1.17.718-2.547-.205-6.158-2.068-8.061-1.862-1.902-3.955-1.378-4.674 1.173-.718 2.548.209 6.155 2.068 8.058zm4.205 3.519c-.228.8.066 1.936.649 2.533.586.598 1.242.433 1.47-.367.227-.799-.066-1.935-.649-2.533-.587-.597-1.243-.432-1.47.367zm-10.158-10.378c-.228.799.066 1.935.648 2.533.587.597 1.243.433 1.47-.367.228-.799-.062-1.935-.648-2.533-.587-.597-1.243-.432-1.47.367zm4.575 11.65c.582.597 1.242.433 1.47-.367.227-.799-.066-1.935-.649-2.533-.587-.597-1.243-.432-1.47.367-.228.799.062 1.936.649 2.533zm3.823-18.498c-.227.8.062 1.936.649 2.533.583.598 1.243.433 1.47-.366.227-.803-.066-1.936-.649-2.534-.586-.6-1.246-.436-1.47.367zm4.619 11.669c.583.597 1.243.432 1.47-.367.227-.8-.066-1.936-.649-2.533-.583-.598-1.242-.433-1.47.366-.227.803.066 1.94.649 2.534zm-10.8-12.798c-.227.8.066 1.935.649 2.533.583.598 1.243.433 1.47-.367.228-.799-.066-1.935-.649-2.533-.586-.597-1.242-.432-1.47.367z" fill="#DADADA"/></g><defs><radialGradient id="paint0_radial" cx="0" cy="0" r="1" gradientUnits="userSpaceOnUse" gradientTransform="rotate(-164.389 97.835 21.094) scale(44.0069)"><stop offset=".574" stop-color="#161412"/><stop offset=".798" stop-color="#161412"/><stop offset="1" stop-color="#161412"/></radialGradient><radialGradient id="paint1_radial" cx="0" cy="0" r="1" gradientUnits="userSpaceOnUse" gradientTransform="rotate(-164.389 101.767 19.421) scale(44.0069)"><stop offset=".574" stop-color="#161412"/><stop offset=".798" stop-color="#161412"/><stop offset="1" stop-color="#161412"/></radialGradient><radialGradient id="paint2_radial" cx="0" cy="0" r="1" gradientUnits="userSpaceOnUse" gradientTransform="rotate(-164.389 107.648 40.267) scale(3.82734)"><stop offset=".574" stop-color="#161412"/><stop offset=".798" stop-color="#161412"/><stop offset="1" stop-color="#161412"/></radialGradient><radialGradient id="paint3_radial" cx="0" cy="0" r="1" gradientUnits="userSpaceOnUse" gradientTransform="rotate(-164.389 108.098 34.238) scale(4.66873)"><stop offset=".574" stop-color="#161412"/><stop offset=".798" stop-color="#161412"/><stop offset="1" stop-color="#161412"/></radialGradient><radialGradient id="paint4_radial" cx="0" cy="0" r="1" gradientUnits="userSpaceOnUse" gradientTransform="rotate(-164.389 107.585 27.37) scale(5.69585)"><stop offset=".574" stop-color="#161412"/><stop offset=".798" stop-color="#161412"/><stop offset="1" stop-color="#161412"/></radialGradient><radialGradient id="paint5_radial" cx="0" cy="0" r="1" gradientUnits="userSpaceOnUse" gradientTransform="rotate(-164.389 106.37 20.648) scale(5.60812)"><stop offset=".574" stop-color="#161412"/><stop offset=".798" stop-color="#161412"/><stop offset="1" stop-color="#161412"/></radialGradient><radialGradient id="paint6_radial" cx="0" cy="0" r="1" gradientUnits="userSpaceOnUse" gradientTransform="rotate(-164.389 103.34 13.9) scale(6.37645)"><stop offset=".574" stop-color="#161412"/><stop offset=".798" stop-color="#161412"/><stop offset="1" stop-color="#161412"/></radialGradient><radialGradient id="paint7_radial" cx="0" cy="0" r="1" gradientUnits="userSpaceOnUse" gradientTransform="rotate(-164.389 99.975 7.873) scale(6.21721)"><stop offset=".574" stop-color="#161412"/><stop offset=".798" stop-color="#161412"/><stop offset="1" stop-color="#161412"/></radialGradient><radialGradient id="paint8_radial" cx="0" cy="0" r="1" gradientUnits="userSpaceOnUse" gradientTransform="rotate(-164.389 95.458 2.577) scale(6.49455)"><stop offset=".574" stop-color="#161412"/><stop offset=".798" stop-color="#161412"/><stop offset="1" stop-color="#161412"/></radialGradient><radialGradient id="paint9_radial" cx="0" cy="0" r="1" gradientUnits="userSpaceOnUse" gradientTransform="rotate(-164.389 90.604 -1.27) scale(6.54189)"><stop offset=".574" stop-color="#161412"/><stop offset=".798" stop-color="#161412"/><stop offset="1" stop-color="#161412"/></radialGradient><radialGradient id="paint10_radial" cx="0" cy="0" r="1" gradientUnits="userSpaceOnUse" gradientTransform="rotate(-164.389 85.554 -3.183) scale(6.48338)"><stop offset=".574" stop-color="#161412"/><stop offset=".798" stop-color="#161412"/><stop offset="1" stop-color="#161412"/></radialGradient><radialGradient id="paint11_radial" cx="0" cy="0" r="1" gradientUnits="userSpaceOnUse" gradientTransform="rotate(-164.389 81.3 -3.189) scale(5.81686)"><stop offset=".574" stop-color="#161412"/><stop offset=".798" stop-color="#161412"/><stop offset="1" stop-color="#161412"/></radialGradient><radialGradient id="paint12_radial" cx="0" cy="0" r="1" gradientUnits="userSpaceOnUse" gradientTransform="rotate(-164.389 105.083 45.121) scale(3.85116)"><stop offset=".574" stop-color="#161412"/><stop offset=".798" stop-color="#161412"/><stop offset="1" stop-color="#161412"/></radialGradient><radialGradient id="paint13_radial" cx="0" cy="0" r="1" gradientUnits="userSpaceOnUse" gradientTransform="rotate(-164.389 102.503 48.539) scale(3.19675)"><stop offset=".574" stop-color="#161412"/><stop offset=".798" stop-color="#161412"/><stop offset="1" stop-color="#161412"/></radialGradient><radialGradient id="paint14_radial" cx="0" cy="0" r="1" gradientUnits="userSpaceOnUse" gradientTransform="rotate(-164.389 120.84 34.891) scale(5.89978)"><stop offset=".574" stop-color="#161412"/><stop offset=".798" stop-color="#161412"/><stop offset="1" stop-color="#161412"/></radialGradient><radialGradient id="paint15_radial" cx="0" cy="0" r="1" gradientUnits="userSpaceOnUse" gradientTransform="rotate(-164.389 118.812 39.69) scale(5.62275)"><stop offset=".574" stop-color="#161412"/><stop offset=".798" stop-color="#161412"/><stop offset="1" stop-color="#161412"/></radialGradient><radialGradient id="paint16_radial" cx="0" cy="0" r="1" gradientUnits="userSpaceOnUse" gradientTransform="rotate(-164.389 115.242 43.107) scale(6.0842)"><stop offset=".574" stop-color="#161412"/><stop offset=".798" stop-color="#161412"/><stop offset="1" stop-color="#161412"/></radialGradient><radialGradient id="paint17_radial" cx="0" cy="0" r="1" gradientUnits="userSpaceOnUse" gradientTransform="rotate(-164.389 121.88 28.88) scale(6.19806)"><stop offset=".574" stop-color="#161412"/><stop offset=".798" stop-color="#161412"/><stop offset="1" stop-color="#161412"/></radialGradient><radialGradient id="paint18_radial" cx="0" cy="0" r="1" gradientUnits="userSpaceOnUse" gradientTransform="rotate(-164.389 121.39 22.124) scale(6.35807)"><stop offset=".574" stop-color="#161412"/><stop offset=".798" stop-color="#161412"/><stop offset="1" stop-color="#161412"/></radialGradient><radialGradient id="paint19_radial" cx="0" cy="0" r="1" gradientUnits="userSpaceOnUse" gradientTransform="rotate(-164.389 119.716 15.247) scale(6.25218)"><stop offset=".574" stop-color="#161412"/><stop offset=".798" stop-color="#161412"/><stop offset="1" stop-color="#161412"/></radialGradient><radialGradient id="paint20_radial" cx="0" cy="0" r="1" gradientUnits="userSpaceOnUse" gradientTransform="rotate(-164.389 116.96 8.55) scale(5.83874)"><stop offset=".574" stop-color="#161412"/><stop offset=".798" stop-color="#161412"/><stop offset="1" stop-color="#161412"/></radialGradient><radialGradient id="paint21_radial" cx="0" cy="0" r="1" gradientUnits="userSpaceOnUse" gradientTransform="rotate(-164.389 113.313 2.447) scale(5.33971)"><stop offset=".574" stop-color="#161412"/><stop offset=".798" stop-color="#161412"/><stop offset="1" stop-color="#161412"/></radialGradient><radialGradient id="paint22_radial" cx="0" cy="0" r="1" gradientUnits="userSpaceOnUse" gradientTransform="rotate(-164.389 108.813 -2.708) scale(4.538)"><stop offset=".574" stop-color="#161412"/><stop offset=".798" stop-color="#161412"/><stop offset="1" stop-color="#161412"/></radialGradient><radialGradient id="paint23_radial" cx="0" cy="0" r="1" gradientUnits="userSpaceOnUse" gradientTransform="rotate(-164.389 103.912 -6.48) scale(3.59167)"><stop offset=".574" stop-color="#161412"/><stop offset=".798" stop-color="#161412"/><stop offset="1" stop-color="#161412"/></radialGradient><radialGradient id="paint24_radial" cx="0" cy="0" r="1" gradientUnits="userSpaceOnUse" gradientTransform="rotate(-164.389 98.962 -8.494) scale(2.74464)"><stop offset=".574" stop-color="#161412"/><stop offset=".798" stop-color="#161412"/><stop offset="1" stop-color="#161412"/></radialGradient><radialGradient id="paint25_radial" cx="0" cy="0" r="1" gradientUnits="userSpaceOnUse" gradientTransform="rotate(-164.389 94.435 -8.859) scale(2.68951)"><stop offset=".574" stop-color="#161412"/><stop offset=".798" stop-color="#161412"/><stop offset="1" stop-color="#161412"/></radialGradient><clipPath id="clip0"><path fill="#fff" transform="translate(132 7)" d="M0 0h103.814v118.932H0z"/></clipPath></defs></svg>