<svg width="375" height="156" fill="none" xmlns="http://www.w3.org/2000/svg" viewBox="0 0 375 156"><path d="M375 0H0v156h375V0z" fill="#F5FCFF"/><path d="M187.5 136.244c61.027 0 110.5-18.496 110.5-41.313 0-22.816-49.473-41.312-110.5-41.312S77 72.115 77 94.932c0 22.816 49.473 41.312 110.5 41.312z" fill="#004EBB"/><g clip-path="url(#clip0)"><path d="M112.317 68.227l43.401-13.346c.817-.468 5.208.178 7.212-1.683l76.372 41.419c.224.135.422.301.598.494l12.074 13.531c.5.557.734 1.301.64 2.045l-1.202 9.929a2.598 2.598 0 0 1-2.076 2.238l-17.517 3.466c-.219.042-.448.057-.672.042l-17.153-1.104c-1.863-.119-3.242 1.707-2.617 3.466a2521.49 2521.49 0 0 1 1.473 4.169c.754 2.133-1.39 4.142-3.472 3.258l-3.845-1.629a2.577 2.577 0 0 1-1.218-1.062l-6.235-10.445a2.598 2.598 0 0 0-1.171-1.04l-33.41-14.947a2.522 2.522 0 0 1-.385-.213L112.155 72.65c-1.608-1.077-1.519-3.466.162-4.423z" fill="#0032A5"/><path d="M177.301 87.091l7.192 12.11c.864 1.343 1.415 2.92 1.415 4.33 0 2.54-1.785 3.57-3.981 2.3l-53.43-30.85c-2.202-1.27-3.981-4.355-3.981-6.895 0-1.723.817-2.743 2.029-2.831l15.613.822c1.42.125 3.278.994 4.439 1.665l27.019 15.597c1.707.984 3.211 2.95 3.685 3.752z" fill="#2E383B"/><path d="M128.497 74.357c-1.9-1.093-3.44-3.767-3.44-5.958 0-1.421.666-2.358 1.733-2.446l15.591.822c1.265.11 3.008.895 4.215 1.592l27.02 15.597c1.504.87 2.878 2.644 3.31 3.367l7.208 12.13.01.022c.775 1.207 1.223 2.57 1.223 3.741 0 2.191-1.54 3.081-3.44 1.988l-53.43-30.855z" fill="#151F22"/><path d="M128.819 71.255l52.562 30.346v-5.22l-8.998-12.12-27.358-14.978-16.206-1.02v2.992z" fill="#586770"/><path d="M185.908 103.526c0-1.41-.551-2.987-1.415-4.33l-7.192-12.11c-.474-.801-1.978-2.768-3.68-3.752l-27.019-15.597c-1.161-.67-3.019-1.54-4.439-1.665l-15.613-.822c-.296.02-.567.099-.806.229l7.629-4.465c.25-.136.531-.219.833-.24l15.612.823c1.421.125 3.278.994 4.439 1.665l27.02 15.602c1.701.983 3.205 2.95 3.679 3.752l7.192 12.11c.864 1.343 1.415 2.92 1.415 4.33 0 1.249-.431 2.128-1.129 2.555l-7.676 4.486c.713-.427 1.15-1.312 1.15-2.571z" fill="#414E52"/><path d="M127.425 65.297l1.639.088 7.749-4.475-1.639-.089-7.749 4.476zM130.896 65.48l1.639.088 7.749-4.476-1.639-.083-7.749 4.47zM134.362 65.666l1.639.084 7.754-4.476-1.644-.083-7.749 4.475zM137.833 65.849l1.639.083 7.749-4.476-1.639-.083-7.749 4.476zM141.304 66.025l.859.047c.213.016.437.057.666.104l7.728-4.465a4.375 4.375 0 0 0-.739-.12l-.77-.041-7.744 4.475zM144.146 66.572c.353.13.702.28 1.04.432l7.713-4.455a13.09 13.09 0 0 0-1.036-.437l-7.717 4.46zM146.248 67.545c.125.067.239.13.354.198l.546.317 7.708-4.45-.599-.343c-.099-.057-.198-.114-.302-.172l-7.707 4.45zM148.147 68.633l.896.515 7.707-4.45-.895-.515-7.708 4.45zM150.042 69.725l.895.516 7.707-4.45-.895-.515-7.707 4.45zM151.936 70.818l.89.515 7.712-4.45-.9-.514-7.702 4.45zM153.831 71.911l.889.516 7.708-4.45-.895-.52-7.702 4.454zM155.72 73.004l.895.515 7.707-4.45-.895-.514-7.707 4.45zM157.608 74.097l.901.516 7.707-4.45-.895-.52-7.713 4.454zM159.508 75.19l.89.515 7.712-4.45-.895-.515-7.707 4.45zM161.397 76.283l.895.515 7.707-4.45-.895-.52-7.707 4.455zM163.292 77.376l.895.515 7.707-4.45-.895-.52-7.707 4.455zM165.181 78.468l.9.516 7.707-4.45-.895-.52-7.712 4.454zM167.075 79.561l.895.515 7.712-4.449-.895-.515h-.005l-7.707 4.45zM168.969 80.654l.895.515 7.708-4.45-.895-.52-7.708 4.455zM170.858 81.747l.901.515 7.707-4.45-.895-.52-7.713 4.455zM172.752 82.84l.864.5c.011.005.021.01.032.02l7.707-4.454-.078-.047-.817-.468-7.708 4.45zM174.527 83.964c.245.198.484.406.713.62l7.697-4.44a10.312 10.312 0 0 0-.708-.625l-7.702 4.445zM176.146 85.535c.213.245.405.484.572.703l7.686-4.434a15.295 15.295 0 0 0-.567-.708l-7.691 4.44zM177.426 87.305l.458.77 7.686-4.439-.458-.765-7.686 4.434zM178.54 89.173l.458.77 7.681-4.433-.458-.77-7.681 4.433zM179.648 91.042l.458.77 7.686-4.44-.458-.764-7.686 4.434zM180.756 92.91l.458.77 7.687-4.44-.458-.764-7.687 4.433zM181.87 94.778l.458.77 7.681-4.433-.458-.77-7.681 4.433zM182.979 96.646l.457.77 7.682-4.433-.453-.77-7.686 4.433zM184.087 98.514l.406.687.052.084 7.681-4.44-.078-.124-.38-.64-7.681 4.433zM185.159 100.409c.13.276.245.557.338.838l7.677-4.429a9.504 9.504 0 0 0-.334-.843l-7.681 4.434zM185.825 102.532c.057.333.083.661.083.984l7.661-4.424v-.046c0-.308-.026-.62-.078-.943l-7.666 4.429zM184.764 106.097l7.676-4.491c.302-.188.562-.463.749-.812l-7.619 4.397a2.108 2.108 0 0 1-.806.906z" fill="#283539"/><path d="M178.753 99.4c0 2.107 1.483 4.672 3.31 5.729 1.826 1.056 3.31.198 3.31-1.91s-1.484-4.673-3.31-5.73c-1.827-1.056-3.31-.203-3.31 1.91z" fill="#AEBFC8"/><path d="M180.059 100.148c0 1.281.9 2.837 2.004 3.472 1.108.64 2.003.119 2.003-1.161s-.895-2.836-2.003-3.471c-1.109-.635-2.004-.12-2.004 1.16z" fill="#414E52"/><path d="M164.978 91.442c0 2.108 1.483 4.674 3.309 5.73 1.827 1.056 3.31.198 3.31-1.91s-1.483-4.673-3.31-5.73c-1.826-1.05-3.309-.197-3.309 1.91z" fill="#AEBFC8"/><path d="M166.278 92.197c0 1.28.901 2.836 2.004 3.471 1.108.64 2.003.12 2.003-1.155 0-1.28-.895-2.831-2.003-3.472-1.103-.64-2.004-.124-2.004 1.156z" fill="#414E52"/><path d="M150.916 83.323c0 2.108 1.483 4.674 3.31 5.73 1.826 1.057 3.31.198 3.31-1.91 0-2.107-1.484-4.673-3.31-5.73-1.832-1.056-3.31-.197-3.31 1.91z" fill="#AEBFC8"/><path d="M152.217 84.073c0 1.28.895 2.83 2.003 3.471 1.109.64 2.004.12 2.004-1.155 0-1.28-.895-2.837-2.004-3.471-1.108-.64-2.003-.12-2.003 1.155z" fill="#414E52"/><path d="M138.411 76.106c0 2.107 1.483 4.673 3.309 5.73 1.827 1.056 3.31.197 3.31-1.91 0-2.108-1.483-4.674-3.31-5.73-1.831-1.057-3.309-.203-3.309 1.91z" fill="#AEBFC8"/><path d="M139.711 76.855c0 1.28.901 2.831 2.004 3.471 1.108.64 2.004.12 2.004-1.155 0-1.28-.896-2.836-2.004-3.471-1.108-.64-2.004-.125-2.004 1.155z" fill="#414E52"/><path d="M125.192 68.471c0 2.108 1.484 4.673 3.31 5.73 1.827 1.056 3.31.198 3.31-1.91s-1.478-4.673-3.31-5.73c-1.832-1.051-3.31-.198-3.31 1.91z" fill="#AEBFC8"/><path d="M126.493 69.226c0 1.28.9 2.83 2.004 3.47 1.108.64 2.003.12 2.003-1.154 0-1.28-.9-2.837-2.003-3.472-1.104-.64-2.004-.125-2.004 1.156z" fill="#414E52"/><path d="M152.436 37.95l-14.411-5.736-15.138 8.358 15.138 13.52 14.411-16.143zM177.446 101.627l-46.498-38.994 4.486-2.17 2.269-1.843 40.571 27.795-.828 15.212z" fill="#AEBFC8"/><path d="M180.767 77.677l-42.742-23.585s2.899-9.903 3.721-11.256c.828-1.353 12.053-6.812 13.557-7.832 1.504-1.02 2.555-.942 4.881 1.16 2.327 2.103 27.093 20.676 27.093 20.676s2.488 4.22 2.56 6.838c.073 2.613-1.842 8.717-9.07 14z" fill="#2E383B"/><path d="M122.887 40.572l15.138 13.52 42.773 21.473-3.315 14.259-42.049-29.362-14.546-14.93 1.999-4.96z" fill="#94A5AE"/><path d="M141.798 42.768c1.124-1.452 12.022-6.76 13.5-7.76 1.504-1.02 2.555-.941 4.881 1.161 2.326 2.103 27.093 20.676 27.093 20.676s2.487 4.22 2.56 6.838c.026.973-.224 2.43-.916 4.148-1.592.687-3.018.968-4.09.609-5.543-1.853-33.988-20.145-39.858-23.616a45.56 45.56 0 0 1-3.17-2.056z" fill="#485255"/><path d="M176.119 43.248s14.077 7.691 15.81 9.424c1.733 1.733 4.621 7.687 4.595 9.7-.026 2.015-3.622 6.495-4.304 6.48-.681-.021-6.281-7.859-6.281-7.859l-15.342-6.697-3.315-8.405 8.837-2.643zM154.34 44.548c.687-1.072 1.681-1.629 2.805-1.863l2.128 3.409s.146 3.617.583 5.094c.437 1.484 3.534 2.873 4.434 3.3.901.427 8.837 2.774 7.577 5.131-1.254 2.358-.494 3.445 1.015 3.737 1.509.291 5.48-.656 3.242 1.197-2.237 1.852-2.987 2.29-2.831 3.814.156 1.525 1.827 3.633.156 6.105-1.134 1.675-1.363 6.01-1.394 8.732-.411.099-.672.151-.672.151l-2.227-3.19s-.931-2.05-.864-3.367c.068-1.317 1.962-11.033 2.004-11.225.041-.193-3.955-4.21-6.485-5.423-2.534-1.212-12.391-11.048-9.471-15.602z" fill="#003966"/><path d="M176.509 81.315s-.364 6.13-.364 6.823c0 .692 4.97 8.592 4.803 9.622-.161 1.025-4.085 2.202-6.297 1.525-2.212-.676-5.225-6.349-5.683-7.228-.458-.875-.681-2.212-.681-2.977 0-.765.416-1.884.416-1.884l.442-7.421c0 .005 2.035 2.071 7.364 1.54z" fill="#1C292D"/><path d="M244.464 96.319l4.486 13.051s.047.693-1.316 1.125c-1.364.431-1.91 0-1.91 0l-5.641-16.086 4.381 1.91z" fill="#C3D6E0"/><path d="M243.314 96.183l4.065 13.094s1.618.791.26 1.218c-1.363.431-1.91 0-1.91 0l-5.641-16.086 3.226 1.774z" fill="#AEBFC8"/><path d="M231.225 101.268l4.132 1.394s22.815 13.026 31.256 17.902c1.332.771 2.295 1.197 2.977 1.416-1.884 1.483-3.758 5.194-9.087 2.113-8.576-4.949-31.255-17.902-31.255-17.902l-2.571-2.295 4.548-2.628z" fill="#485255"/><path d="M252.416 113.565c6.058 3.851 10.159 7.515 11.46 8.467 2.659 1.951 5.87.166 5.87.166-3.773 3.081-4.377 1.567-9.144-1.186-9.471-5.464-28.325-16.211-28.325-16.211l-3.586-2.071.442-.094 3.144 1.103 6.401 2.655 3.934.031 5.948 3.435 3.856 3.705z" fill="#2E383B"/><path d="M263.876 122.032c-1.301-.953-5.397-4.616-11.46-8.467l-3.861-3.7-5.948-3.435-3.935-.031-6.401-2.655-3.143-1.103-.442.094.78-.453.448-.094 3.143 1.104 6.401 2.654 3.934.031 5.949 3.43 3.861 3.7c6.058 3.851 9.94 7.733 11.241 8.685 2.056 1.504 4.101.927 4.923.583-.932.401-3.383 1.202-5.49-.343z" fill="#626C6F"/><path d="M262.626 116.011c.646-.64 2.472-1.036 4.341.14.988.625 2.482 2.243 2.779 5.912l-.765.422c.197-1.942-.885-4.679-2.051-5.413-1.618-1.015-3.174-.583-3.643-.119-1.176 1.155-2.284 1.826-3.325 2.008-.547-.348-1.15-.733-1.795-1.155 1.248.474 2.773-.14 4.459-1.795z" fill="#2E383B"/><path d="M269.59 121.975c.13-.104.26-.198.395-.276.661-.395 1.255.167.921.38l-4.194 2.441.005-.006c1.166-.739 2.019-1.868 2.873-2.539z" fill="#2E383B"/><path d="M197.419 98.041l17.164 7.801-2.384 9.55-11.886-3.196-22.466-9.575-4.538-11.236-.021-.078 24.131 6.734z" fill="#1C292D"/><path d="M214.666 105.197l28.211-1.556-5.979 6.812-8.592 3.284-16.107 1.655 2.467-10.195z" fill="#0F1C20"/><path d="M206.298 118.15l4.486 13.052s.046.692-1.317 1.124c-1.363.432-1.915 0-1.915 0l-5.641-16.086 4.387 1.91z" fill="#AEBFC8"/><path d="M203.711 117.463l4.684 14.368s2.44.063 1.077.495c-1.364.432-1.915 0-1.915 0l-5.641-16.086 1.795 1.223z" fill="#C3D6E0"/><path d="M193.064 123.099l4.132 1.394s22.814 13.026 31.255 17.902c1.333.771 2.295 1.197 2.977 1.416-1.884 1.483-3.757 5.194-9.086 2.113-8.577-4.949-31.256-17.902-31.256-17.902l-2.571-2.295 4.549-2.628z" fill="#485255"/><path d="M214.255 135.396c6.057 3.851 10.158 7.514 11.459 8.467 2.66 1.946 5.87.161 5.87.161-3.773 3.081-4.376 1.572-9.143-1.186-9.472-5.465-28.326-16.211-28.326-16.211l-3.586-2.071.443-.094 3.143 1.103 6.401 2.654 3.934.032 5.943 3.434 3.862 3.711z" fill="#2E383B"/><path d="M225.714 143.863c-1.301-.953-5.396-4.616-11.459-8.467l-3.862-3.7-5.943-3.435-3.934-.031-6.401-2.654-3.143-1.104-.443.094.781-.453.447-.093 3.144 1.103 6.401 2.654 3.934.031 5.948 3.435 3.862 3.7c6.057 3.851 9.94 7.728 11.241 8.686 2.055 1.504 4.1.926 4.923.582-.937.396-3.388 1.197-5.496-.348z" fill="#626C6F"/><path d="M224.46 137.842c.645-.64 2.472-1.036 4.34.14.989.625 2.482 2.243 2.779 5.912l-.765.427c.198-1.941-.885-4.679-2.056-5.412-1.618-1.02-3.174-.583-3.643-.12-1.176 1.155-2.284 1.826-3.325 2.009-.546-.349-1.15-.734-1.795-1.156 1.254.469 2.784-.145 4.465-1.8z" fill="#2E383B"/><path d="M231.428 143.806c.13-.104.26-.193.396-.276.661-.391 1.249.166.921.385l-4.195 2.441.005-.006c1.166-.744 2.02-1.873 2.873-2.544z" fill="#2E383B"/><path d="M173.288 91.307l4.559 11.314-24.246-20.988V79.54l19.687 11.767z" fill="#1C292D"/><path d="M240.234 77.678l-.594-2.363-4.408-3.804 5.002 6.167z" fill="#101D21"/><path d="M240.234 77.678l-.593-2.363 1.597-1.868 1.171 6.26-2.175-2.03z" fill="#101D21"/><path d="M176.473 80.05l4.783-4.959 1.332-6.807 5.136-3.731 3.034 1.244 9.8-5.813 10.413-3.003 4.47.234 10.757 6.464 9.034 7.832 3.425 3.69 4.975 5.656 4.652 11.835-5.407 7.878-12.885 3.071-14.983-.947-15.841-5.09-4.07 5.074-21.81-11.37 3.185-11.257z" fill="#14AFEB"/><path d="M219.308 64.168l27.655 26.02-5.397 7.374-25.563-25.297 3.305-8.097zM242.878 100.57l-1.312-3.007-12.167 3.007.593 3.071 12.886-3.071z" fill="#5AC8F5"/><path d="M246.963 90.189l1.321 2.503-5.407 7.879-1.311-3.008 5.397-7.374zM183.4 72.869l16.008 9.19 11.709 8.556 18.282 9.955-29.086-26.197-13.041-6.51.453-3.31-5.137 3.731-1.332 6.807 2.144-2.222z" fill="#0082C8"/><path d="M190.41 85.853l24.386 13.765v3.019l-15.628-5.033-8.758-11.75z" fill="#5AC8F5"/><path d="M229.399 100.571l-14.603-.953v3.019l15.196 1.004-.593-3.07zM176.473 80.05l10.231 7.073 8.394 15.555-21.81-11.37 3.185-11.257z" fill="#0082C8"/><path d="M222.92 92.056l-9.264-7.842 7.203.775 6.416 6.412-4.355.655zM237.881 82.918l-8.279-7.915.39 4.757 6.895 6.093.994-2.935z" fill="#4E5B5F"/><path d="M226.198 63.679l15.04 9.768-1.598 1.868-4.407-3.804-10.268-6.604 1.233-1.228zM242.878 100.57l.754 1.744-13.473 3.221-.167-1.894 12.886-3.071z" fill="#5B686C"/><path d="M242.877 100.57l.755 1.744 5.881-8.764-1.229-.859-5.407 7.879zM214.796 102.637l-.213 1.899 15.575.999-.166-1.894-15.196-1.004z" fill="#4E5B5F"/><path d="M243.632 102.314v1.978l-13.473 3.346v-2.103l13.473-3.221zM243.632 102.314v1.978l5.73-8.499.15-2.243-5.88 8.764zM214.583 104.536l-15.415-6.932.516 2.488 14.899 6.395 15.576 1.151v-2.103l-15.576-.999z" fill="#29363A"/><path d="M199.168 97.604l15.415 6.932.213-1.9-15.628-5.032z" fill="#4E5B5F"/><path d="M208.686 117.879l-5.787-20.546-3.216 1.88 6.323 20.254 2.68-1.588z" fill="#101D21"/><path d="M190.41 94.409l10.606 22.398 4.99 2.659-6.323-20.254-9.273-4.803z" fill="#29363A"/><path d="M190.41 85.853l12.49 11.48-3.216 1.88-9.274-4.804-3.705-7.13 3.705-1.425z" fill="#5B686C"/><path d="M192.855 64.553s6.943-6.063 14.327-7.4c6.714-1.213 7.213-.172 7.213-.172s5.022 8.571-1.79 10.2c-6.812 1.629-19.75-2.628-19.75-2.628z" fill="#758286"/><path d="M204.513 54.295l3.377 7.76s-.884 2.05-5.063 1.962c-4.179-.094-10.409-3.695-10.409-3.695l12.095-6.027z" fill="#2E383B"/><path d="M171.378 83.355l-2.227-3.19s-.932-2.05-.864-3.367c.068-1.317 1.962-11.033 2.004-11.225.041-.193-3.956-4.21-6.485-5.423-2.529-1.212-12.385-11.048-9.466-15.602 2.919-4.553 11.454.083 11.475-.047.026-.13 15.383 14.941 15.441 16.872.052 1.93-3.477 18.667-4.752 19.942-1.27 1.27-5.126 2.04-5.126 2.04z" fill="#065380"/><path d="M173.891 66.104c.084 0 .167-.01.25-.026.802-.172 19.641-4.294 24.158-6.849 4.902-2.774 10.382-13.26 10.913-16.351a1.163 1.163 0 1 0-2.295-.39c-.463 2.695-5.73 12.437-9.763 14.717-4.216 2.383-23.315 6.557-23.507 6.599a1.162 1.162 0 0 0-.89 1.384c.12.546.598.916 1.134.916z" fill="#2E383B"/><path d="M205.6 46.37l-1.254 1.478s-1.806.312-2.555.41c-2.05.276-7.411-4.069-9.857-5.719-2.393-1.608-3.216-2.753-3.788-3.008-.573-.255-11.434-10.85-11.434-10.85l5.715-8.498s1.732 2.596 4.355 5.375c2.623 2.78 6.25 6.615 6.698 7.671.312.74 5.667 5.012 8.634 8.077 1.254 1.296 1.821 3.19 1.821 3.19s3.206.723 1.665 1.874z" fill="#508ECF"/><path d="M182.421 20.188s1.535 2.305 3.908 4.891c-.577 1.905-1.087 4.086-.874 5.418.437 2.732 2.134 4.72 3.83 4.501 1.697-.223 2.951-.374 3.102.843.146 1.223-1.182 2.108.812 3.732 1.993 1.623 3.174.224 4.059 1.623.885 1.4.515 2.654 1.624 3.836 1.108 1.181 1.587-.947 1.993-.531.406.416 2.95 2.155 3.247 2.519.068.083-.021.421-.187.895a94.92 94.92 0 0 1-2.139.343c-2.051.276-7.411-4.07-9.857-5.719-2.394-1.608-3.216-2.753-3.788-3.008-.573-.255-11.434-10.85-11.434-10.85l5.704-8.494z" fill="#3775B6"/><path d="M203.935 44.502s2.373.072 4.127.54c1.754.47.218 6.147-.77 6.147-.994 0-2.264-1.223-3.357-1.286-1.093-.057-2.076-1.061-2.144-1.644-.063-.583 2.144-3.758 2.144-3.758z" fill="#051F41"/><path d="M180.797 23.919c.027.187 1.302 4.59-.775 7.645-2.076 3.055-3.039 4.97-2.425 7.338.614 2.367.088 3.778-1.093 5.6-1.181 1.82-12.714 4.319-14.592 4.319-1.884 0-8.014-2.285-8.087-6.068-.068-3.789 3.632-17.002 4.59-19.932.957-2.93 9.69-6.734 13.27-5.933 3.581.802 9.112 7.031 9.112 7.031z" fill="#DCC920"/><path d="M164.244 22.858c-1.104-.214-5.064.239-5.902 5.375-.838 5.137-.297 10.226.489 13.656.786 3.435 1.853 5.995 2.446 6.541.593.547 2.165 4.95 4.944 7.588 2.779 2.633 6.412 3.84 6.651 4.064.239.224 1.785 1.655 1.785 1.655l3.815-2.956-1.78-1.805s-1.187-2.618-2.082-4.19c-.895-1.571-5.756-8.415-6.141-8.94-.385-.526-1.264-8.462-.936-10.05.327-1.581 1.727-9.97-3.289-10.938z" fill="#508ECF"/><path d="M181.953 60.192s1.358 2.154 1.551 3.237c.192 1.077-.567 2.222-.734 2.326-.172.104-2.909 1.322-3.731 1.062-.822-.26-1.572-.968-1.77-1.863-.192-.896-.499-.682-.77-.682-.265 0-1.853-2.53-1.853-2.53l3.815-2.955 3.492 1.405z" fill="#051F41"/><path d="M158.342 28.239c.031-.182.062-.354.099-.52.01-.053.026-.1.036-.152.026-.12.057-.234.088-.348.016-.052.032-.099.047-.151.031-.11.068-.219.104-.328.016-.041.026-.078.042-.12.047-.13.099-.255.146-.374l.015-.037c.25-.572.547-1.051.875-1.452.889 1.853.145 4.955-.365 5.97-.739 1.483-.51 6.994.604 10.47 1.114 3.476 3.06 3.893 4.725 3.383 1.671-.51 1.947 1.202.229 2.503-1.712 1.296-1.993 3.289-.51 5.282 1.483 1.993 4.632 2.685 5.975 3.518 1.342.833.65 1.53 2.222 1.853 1.577.322 2.316-.323 2.316-.323s-.651 1.296-.651 1.53c0 .151 1.051 1.056 1.78 1.665l-1.468 1.135s-1.551-1.431-1.785-1.655c-.239-.224-3.872-1.426-6.651-4.065-2.779-2.633-4.35-7.04-4.943-7.587-.594-.547-1.655-3.112-2.446-6.542-.786-3.434-1.322-8.519-.484-13.655z" fill="#3775B6"/><path d="M166.523 37.533c.182-.593.526-1.16.957-1.696.115 2.92.698 7.613.989 8.009.385.526 5.246 7.369 6.141 8.94.619 1.088 1.379 2.68 1.79 3.555l-.447-.104s-1.379-1.207-2.654-2.639c-1.281-1.43-1.166-4.012-2.483-4.777-1.316-.77-2.914-1.223-2.914-2.196 0-.973.135-1.431-.874-2.8-1.02-1.374-1.452-3.21-.505-6.292z" fill="#4381C2"/><path d="M172.356 40.442c-.187-3.471 1.712-4.439 3.164-7.63 1.452-3.19 0-9.106 0-9.106l1.213-3.752a46.163 46.163 0 0 1 4.064 3.96c.026.187 1.301 4.59-.775 7.645-2.076 3.055-3.039 4.97-2.425 7.338.614 2.367.088 3.778-1.093 5.6-.437.67-2.285 1.435-4.533 2.133.437-1.863.5-4.101.385-6.188z" fill="#C5B41F"/><path d="M171.685 16.889c2.123.473 4.934 2.862 6.87 4.72a70.38 70.38 0 0 1 1.077 5.407l-3.149 1.254s-5.568.146-7.65-1.363c-1.603-1.161-4.595-5.262-5.589-8.072 2.94-1.431 6.474-2.389 8.441-1.946z" fill="#C5B41F"/><path d="M176.483 28.275s-4.267-1.155-6.349-2.66c-2.081-1.503-5.615-5.635-4.98-7.806.64-2.165 3.039-5.167 8.738-5.162 3.554.005 5.74 14.374 5.74 14.374l-3.149 1.254z" fill="#DCC920"/><path d="M183.077 24.856s.021-1.749-1.842-2.889c-1.863-1.14-3.773.864-3.773.864v3.617s5.277.385 5.615-1.592z" fill="#192D4B"/><path d="M179.241 14.417l-4.22-.74-2.311 5.538c-.036.53.734 3.055.739 3.513.005.5.146.994.656 1.545 0 0 .713.65 1.556 1.332.343.276 1.41 1.223 2.347 1.067.349-.057 1.062-.291 1.062-.291.65-.245.988-.463 1.379-1.16.505-.9 2.607-8.296 2.607-8.296l.656-2.467-4.471-.041z" fill="#D6BBA1"/><path d="M183.243 13.261c.682.848.62 1.853.308 2.566-.282.64-.443 1.098-.49 1.087 0 0-.406-1.603-1.603-.864-1.155.713-1.753 1.307-1.842 1.255 0 0 .12-1.327.188-1.369.062-.047-1.192 1.166-1.192 1.166-.073.031-.24-.64-.37-.63-1.384.073-1.873 1.655-1.951 2.326l-.12.666c-.062.35-.068.729-.406.65-.27-.062-.348-.28-.51-.64 0 0-.51-1.436-1.436-1.217-.812.193-.489 2.269-.458 2.373l-.63.973c-.328.037 0 0-.286-.655-.708-1.63-.843-2.634-.958-3.154-.588-2.665.432-5.017 2.249-6.297.567-.4 2.815-1.254 2.872-1.572.005-.041.37.323.895.401 1.686.265 1.078-.614 1.078-.614.442 0 1.379 1.072 1.446 1.145.521.593.687-.177.687-.177.5.385 2.529 2.581 2.529 2.581z" fill="#633A11"/><path opacity=".49" d="M173.205 18.637c.057-.92 0-1.254.895-1.254.208 0 1.176.27 1.42.328 3.347.765 5.725.422 6.282.442l2.123-.374c.011.177 1.103-1.239 1.114-1.057.151 3.867-.979 6.568-1.853 8.061l-.125-.156c-.177-.229-.364-.359-.51-.359a.393.393 0 0 0-.104.016 6.941 6.941 0 0 0-.619.255c-.812.359-2.04.895-3.435.895-.224 0-.447-.016-.666-.042-1.795-.218-4.647-4.735-4.522-6.755z" fill="#2E383B"/><path d="M175.521 17.71s3.913.766 9.445-1.113c0 0 4.429 3.58 1.01 4.325-8.899 1.951-10.455-3.211-10.455-3.211z" fill="#192D4B"/><path d="M195.177 55.232c-3.196 1.848-4.429 4.127-2.753 5.09 1.675.968 5.62.255 8.821-1.593 3.195-1.847 4.428-4.127 2.753-5.09-1.676-.967-5.626-.254-8.821 1.593z" fill="#414E52"/><path d="M212.772 65.36c-3.685 1.956-16.987-.807-16.987-.807l-8.061-6.495-.453 9.8 13.51 7.701s12.605 1.37 17.611-1.03c2.342-1.119.911-10.367.911-10.367l-5.048-9.086c.005.01.577 9.19-1.483 10.283z" fill="#5B686C"/><path opacity=".3" d="M212.771 65.36c-3.684 1.956-16.986-.807-16.986-.807l-8.061-6.495s.193-4.215.255-5.516c.057-1.306.864-2.987 1.541-4.34.713-1.421 4.329-7.229 7.238-8.592 2.91-1.364 9.67 1.306 11.096 3.913a3047.372 3047.372 0 0 0 6.406 11.564s.572 9.18-1.489 10.273z" fill="#303E42"/><path d="M212.771 65.36c2.061-1.094 1.489-10.274 1.489-10.274l5.048 9.087s1.431 9.242-.911 10.366c-.042.021-.089.037-.13.058l-5.667-9.15c.062-.03.119-.056.171-.088zM187.724 58.058l8.061 6.495 4.996 11.012-13.51-7.702.453-9.805z" fill="#414E52"/><path d="M198.096 66.811l3.195 7.302c.13.291.411.49.729.5l6.38.28a.835.835 0 0 0 .848-.64l.479-1.951a.84.84 0 0 0-.416-.937l-5.246-2.841a.614.614 0 0 0-.172-.068l-5.797-1.645zM218.688 63.767l-3.257-6.037.562 4.497c.005.036.01.073.021.11l1.29 4.834a.837.837 0 0 0 1.645-.265l-.162-2.79a.783.783 0 0 0-.099-.349z" fill="#fff"/><path opacity=".3" d="M187.979 52.542c.047-1.02.547-2.27 1.088-3.414 3.07 5.98 6.718 15.425 6.718 15.425l-8.061-6.495s.193-4.21.255-5.516z" fill="#303E42"/><path opacity=".3" d="M212.771 65.36c-3.684 1.956-16.986-.807-16.986-.807l-8.061-6.495s.193-4.215.255-5.516c.057-1.306.864-2.987 1.541-4.34.713-1.421 4.329-7.229 7.238-8.592 2.91-1.364 9.67 1.306 11.096 3.913a3047.372 3047.372 0 0 0 6.406 11.564s.572 9.18-1.489 10.273z" fill="url(#paint0_linear)"/><path opacity=".3" d="M192.054 44.236c1.405-1.915 3.154-3.903 4.705-4.626 2.909-1.364 9.669 1.306 11.095 3.913a3047.372 3047.372 0 0 0 6.406 11.564s.5 7.978-1.103 9.945c-2.94-4.299-11.101-15.285-21.103-20.796z" fill="#fff"/><path d="M184.675 20.911c.01-.052.026-.109.036-.161-.01.052-.026.11-.036.161zM184.477 21.713l.016-.052c-.005.015-.011.031-.016.052zM184.877 19.829l-.015.109.015-.11z" fill="#FFCF13"/><path d="M183.181 24.783l-.125-.156c-.177-.23-.364-.36-.51-.36a.393.393 0 0 0-.104.016 6.941 6.941 0 0 0-.619.255c-.812.36-2.04.895-3.435.895-.224 0-.447-.015-.666-.041-1.79-.23-4.647-4.746-4.517-6.765.057-.922 0-1.255.895-1.255.208 0 1.176.27 1.421.328 3.346.765 5.724.422 6.281.442l2.123-.374c.011.177 1.104-1.239 1.114-1.057-.234-5.969-2.363-8.41-6.974-8.7-9.559-.6-8.243 11.88-8.243 11.88s.396 1.822 3.773 5.876c2.051 2.456 5.693 1.868 7.546 1.176.786-.297 1.067-.786 1.067-.786s.442-.469.983-1.384c-.005.01-.01.01-.01.01z" fill="#192D4B"/><path d="M184.971 19.012l.016-.14-.016.14zM184.227 22.504c.016-.047.031-.1.052-.146-.021.047-.036.099-.052.146zM183.389 24.413c.026-.052.052-.104.083-.156-.026.052-.057.104-.083.156zM185.039 17.94c0-.063.005-.13.005-.198 0 .067 0 .13-.005.197zM183.946 23.237c.021-.047.042-.093.058-.14-.021.046-.037.093-.058.14zM183.696 23.805z" fill="#FFCF13"/><path d="M184.508 12.902s.453 3.576 1.608 4.85c1.15 1.276-1.696.365-1.696.365l-1.213-3.034 1.301-2.18z" fill="#192D4B"/></g><defs><linearGradient id="paint0_linear" x1="212.322" y1="47.708" x2="197.32" y2="57.151" gradientUnits="userSpaceOnUse"><stop stop-color="#fff"/><stop offset="1"/></linearGradient><clipPath id="clip0"><path fill="#fff" transform="translate(111 8)" d="M0 0h160v139.111H0z"/></clipPath></defs></svg>