<svg width="375" height="156" fill="none" xmlns="http://www.w3.org/2000/svg" viewBox="0 0 375 156"><path d="M375 0H0v156h375V0z" fill="#F5FCFF"/><path d="M187.5 151.244c61.027 0 110.5-18.496 110.5-41.313 0-22.816-49.473-41.312-110.5-41.312S77 87.115 77 109.93c0 22.817 49.473 41.313 110.5 41.313z" fill="#004EBB"/><g clip-path="url(#clip0)"><path d="M159.478 127.041c16.28 0 29.478-4.935 29.478-11.023s-13.198-11.023-29.478-11.023S130 109.93 130 116.018s13.198 11.023 29.478 11.023z" fill="#0032A5"/><path d="M180.027 130.546c12.82 0 23.213-3.886 23.213-8.68s-10.393-8.68-23.213-8.68c-12.821 0-23.214 3.886-23.214 8.68s10.393 8.68 23.214 8.68z" fill="#0032A5"/><path d="M192.158 147.648c15.001 0 27.162-4.546 27.162-10.154 0-5.609-12.161-10.155-27.162-10.155s-27.162 4.546-27.162 10.155c0 5.608 12.161 10.154 27.162 10.154z" fill="#0032A5"/><path d="M209.541 136.096c19.463 0 35.241-5.899 35.241-13.176s-15.778-13.176-35.241-13.176-35.24 5.899-35.24 13.176 15.777 13.176 35.24 13.176z" fill="#0032A5"/><path d="M172.925 23.229l-.542 4.7 2.171 1.456 4.102-.891 2.719-2.787-1.167-3.885-4.917-3.818-3.225 3.18.859 2.045z" fill="#DE8767"/><path d="M182.46 52.209s4.338 4.74 5.283 8.481c.946 3.736 2.692 43.595 3.207 48.227-.153 5.373-5.165 8.101-11.217 7.608-6.048-.493-15.632-6.672-15.592-10.105 2.289-24.2.312-52.008 1.954-54.216.968-1.429 16.365.005 16.365.005z" fill="#fff"/><path d="M162.585 31.641l-4.433 7.911 3.687 2.601 6.147-7.907-5.401-2.605z" fill="#E89A82"/><path d="M168.791 21.51c-1.728.597-2.949 1.791-3.568 3.152-.62 1.357-3.809 8.572-3.976 8.907 3.387 1.004 6.106 4.6 6.106 4.6s5.111-14.972 1.438-16.66z" fill="#FF597F"/><path d="M182.46 52.208s-.868 2.303-4.641 2.845c-6.585.937-11.724-2.845-11.724-2.845l.145-2.926 10.602 2.239 4.469-.679 1.149 1.366z" fill="#303030"/><path d="M184.197 41.878c-3.758 5.115-2.885 8.965-2.885 8.965s-.068 1.479-3.081 1.84c-7.106 1.28-12.032-2.7-12.032-2.7s-2.709-9.838-3.225-13.551c-.325-2.393 2.063-5.42 3.981-9.083 1.542-2.954 4.238-5.003 5.405-5.523h2.09c-2.14 4.51.203 5.6.203 5.6s3.845 1.909 5.166-2.881c.733.574 6.011 5.893 6.011 5.893s3.442 3.764-1.633 11.44z" fill="#FF85A1"/><path d="M165.001 39.449s9.454 5.432 11.557 2.135c-1.389 4.654-11.557-2.135-11.557-2.135z" fill="#FF6387"/><path d="M146.297 51.015c-.23.602.371 10.648-.534 13.936-.194.887-2.32 3.876-2.469 4.483-.14.606 0 2.722 0 2.722s.61 1.932 1.017 2.122c.412.19 3.235-.67 3.687-1.24-1.045-2.202 1.194-22.77 1.194-22.77s-2.66.145-2.895.747z" fill="#E89A82"/><path d="M158.79 36.065s.027 2.104.945 3.234c.055.724-2.207 2.773-2.207 2.773l-2.886 3.429-3.853-.457-1.131-2.43 1.425-4.79 3.301-3.116 4.356-.456.05 1.813z" fill="#DE8767"/><path d="M150.707 107.342c-1.719 2.601-5.274 3.066-6.445 3.872-1.131.773-1.262 2.781-.344 3.157 3.519 1.004 7.87-1.669 7.87-1.669s2.389.33 4.65-.923c.62-.344-.416-4.641-.416-4.641s-4.523.204-5.315.204z" fill="#fff"/><path d="M149.242 86.716s1.045 1.918 1.076 3.384c-.158 1.76 1.136 10.507.389 17.242.71.34 4.306.842 5.315-.203-.09-3.393 1.298-10.964 1.298-12.344 0-1.38-.705-3.935-.705-3.935l.325-4.854-7.698.71z" fill="#E89A82"/><path d="M146.668 64.973c.493 10.946 1.737 20.44 2.488 22.164.434.99 4.835 2.836 8.454.497.818-.339.357-15.777.357-15.777s-11.064-7.373-11.299-6.884z" fill="#000"/><path d="M162.676 112.047s-.484 2.302-1.475 4.695c-.846 2.026-2.302 4.12-1.474 5.02 1.795 1.968 5.206.272 6.11-1.438.588-1.135.837-2.452.941-2.746.1-.289 1.357-1.117 1.167-2.659-.185-1.534-1.388-3.7-1.388-3.7l-3.881.828zM195.813 134.305s-.489 2.303-1.479 4.691c-.846 2.031-2.303 4.12-1.475 5.025 1.8 1.968 5.211.272 6.111-1.443.593-1.131.837-2.451.941-2.741.104-.289 1.361-1.117 1.171-2.66-.185-1.537-1.108-3.989-1.108-3.989l-4.161 1.117z" fill="#fff"/><path d="M158.098 89.747c.557.48 1.66 6.22 2.85 6.934-.416 3.311 1.438 9.635 1.728 15.361 1.257.548 3.89.444 3.885-.827-.452-4.076.968-9.857.701-12.996-.185-2.121-1.072-3.261-2.261-9.955-.683.095-7.468 1.004-6.903 1.483z" fill="#E89A82"/><path d="M162.585 66.086s1.231 1.606 2.144 4.55c.91 2.945 2.045 18.26 1.787 18.966-.461 2.176-9.286 2.302-9.924.34-.249-1.14-2.714-12.643-2.963-13.625-5.527-1.696-6.965-11.34-6.965-11.34l15.921 1.109z" fill="#292929"/><path d="M148.988 36.205c-4.392 1.068-3.139 7.645-3.139 7.645l-.248 6.418s1.108 1.945 3.387.932c.023-.864.439-15.053 0-14.995z" fill="#A62626"/><path d="M152.105 43.492c1.108.502 5.993-5.039 7.794-4.37 1.881 1.426 2.184 2.258 4.233 3.719.421.53-3.247 17.564-2.343 21.707-.19.71-2.058 1.981-4.708 2.28-5.849.95-10.417-3.524-10.417-3.75.004-2.117 0-18.645.271-20.296.104-4.184 5.102-5.13 5.102-5.13s-1.04 5.334.068 5.84z" fill="#D63A3A"/><path d="M149.658 39.39s-1.456 1.411-1.76 1.253c-.303-.158-1.338-1.968-1.298-2.994.046-1.023 1.335-2.361 1.335-2.361l1.723 4.102z" fill="#DE8767"/><path d="M199.441 113.078c-.625.85-6.356 2.714-7.269 3.786-.914 1.072-.493 2.677-.127 3.13.362.438 3.899.728 6.269-.199 1.421-.552 3.628-1.525 4.542-1.891.913-.362 4.134-.181 5.102-1.443.724-1 .158-4.826.158-4.826s-8.047.588-8.675 1.443z" fill="#1A1A1A"/><path d="M196.831 69.347c-1.045 8.834 3.152 23.416 3.152 23.416s1.072 11.168-.217 19.79c.403 1.492 6.586 2.695 8.459-.082.407-1.958 2.067-15.899.931-18.794-.407-3.5.371-19.947.371-19.947s-9.471-10.702-12.972-11.336c-.005-.004-.036 3.76.276 6.953z" fill="#575757"/><path d="M215.819 123.332c-.226 2.324-3.596 7.101-2.361 9.272.724 1.262 5.595 1.728 7.445-.398 1.244-1.434 1.366-4.46 1.366-4.46s.602-1.407.602-2.492c0-1.09-.439-2.334-.439-2.334s-6.07.063-6.613.412z" fill="#1A1A1A"/><path d="M219.61 74.544l1.094 21.938s1.629 4.84 2.203 6.59c1.402 6.351.905 19.228.905 19.228-.303 1.086-2.475 2-5.786 1.909-1.451-.036-3.256-.823-3.197-1.773.058-.959-.159-15.37-2.009-21.562 0 0-5.224-11.25-6.726-23.534.045 0-9.946-7.894-9.544-14.945 0-.543 18.003 3.962 20.508 2.388 3.158 5.342 2.552 9.761 2.552 9.761z" fill="#666"/><path d="M216.457 63.331l.602 1.448s-1.308 2.818-5.546 2.98c-8.779.24-14.963-5.368-14.963-5.368v-2.226l19.907 3.166z" fill="#78431C"/><path d="M198.635 63.766l2.271 1.316v-1.579l-2.271-1.312v1.575z" fill="#969696"/><path d="M188.313 40.562c.502 1.212.982 7.155.982 7.155s1.637 2.845 2.049 4.646c.253.75-1.099 11.593-1.099 11.593s-4.401-10.3-4.777-11.72c-.38-1.42-.212-3.058-.212-3.058s-2.135-4.224-2.633-7.698c.081-.751 5.184-2.135 5.69-.918z" fill="#F79673"/><path d="M185.843 29.787c2.47 2.587 2.61 10.774 2.805 11.53-.715 1.633-5.451 2.69-6.532 1.194-1.275-4.6-2.008-4.917-2.551-7.441-.181-1.194-.755-3.818.208-4.876.968-1.058 3.601-2.994 6.07-.407z" fill="#FF597F"/><path d="M193.334 64.874c.484 1.863 1.968 3.22.765 4.45-.24.132-.222-.135-.973-.552-.954.245-1.981-.57-2.388 1.873-.027.163.715 1.203.629 1.366-.891.208-1.457.127-1.837-.081-.375-.208-.375-.842-.502-2.343-.407-.634.751-3.32.751-5.18.697-3.36-.267-13.578 1.104-15.917 1.235-2.112 5.455-.117 6.712 2.045l-1.131 3.451c-1.13 4.207-2.637 4.74-3.261 9.788.14.036.118 1.059.131 1.1z" fill="#994E28"/><path d="M201.345 29.153c-4.116.204-6.269 5.758-8.052 10.865-1.628 4.65-2.623 7.341-2.831 8.146-.439 1.697 5.704 4.623 6.685 3.357.149-.416 6.364-19.16 6.364-19.16s-1.207-3.208-2.166-3.208z" fill="#BABABA"/><path d="M193.646 67.728s-1.397-1.474-2.37-.651c-.968.823-1.185 2.506-1.23 3.03-.154 1.516.43 1.783 1.063 1.819.629.036 2.587-1.547 3.062-2.388.471-.842-.525-1.81-.525-1.81z" fill="#C2A091"/><path d="M193.682 68.022s-1.32-1.394-2.239-.611c-.918.778-1.126 2.37-1.171 2.872-.145 1.43.407 1.683 1.004 1.715.597.036 2.452-1.462 2.899-2.258.448-.796-.493-1.718-.493-1.718z" fill="#F0C6B4"/><path d="M212.798 31.23l.303.85v1.402l-2.058 3.184-5.781.964-3.003-1.588v-3.56l2.008-3.989 5.952-.697 2.882 1.357-.303 2.077z" fill="#994E28"/><path d="M213.101 32.08c.95 1.525 8.635 7.875 8.635 7.875l-4.211 15.99-1.185 3.985s0 2.19.117 3.401c-5.079 5.704-19.775-2.008-19.907-3.17-.086-4.714-.954-6.672-1.768-17.008-.557-5.532 7.839-12.873 8.693-12.384-1.275 3.808 1.841 4.799 1.841 4.799s3.551 1.723 7.785-3.487z" fill="#EDEFE8"/><path d="M200.585 20.333c-.801 1.009-1.004 4.555-1.004 4.555s0 .15.362.357c-.389 1.525.588 7.713.683 8.278.09.565 1.904 1.52 2.709 1.493.805-.032 5.089-1.253 6.464-3.786.253-.47 0-1.1 0-1.1l1.366-.809 2.32-1.307-.832-4.826-3.307-3.393-6.047-2.08s-2.33 2.41-2.714 2.618z" fill="#B2663B"/><path d="M200.666 20.45c.177.204.968 1.073 1.294 2.054 1.194-.597 4.736 0 4.736 0s-.091 1.787.384 2.443c.48.656.778.475 1.339.597.507.624.475 2.234.475 2.234s.982-1.366 2.384-1.19c.371.05.981.267.954 1.19-.031.923-1.524 1.398-1.551 1.728-.122 1.579 2.117 1.728 2.117 1.728s2.289-1.384 2.411-5.948c.009-1.095-.923-8.585-6.193-9.182 0 0-2.144-2.936-8.472 1.492-.606.47-.239 2.439.122 2.855z" fill="#280D02"/><path d="M200.409 18.14c.162-.466.298-.082.791-.52.493-.435.765-1.34 1.665-1.665.9-.326 1.036.027 1.637-.71.602-.737 1.285-.819 1.909-.461.629.352 1.61.108 2.158-.055.547-.162.19.299.574.493.384.19 1.203-.081 1.637.055.435.135.493.628 1.122.873.629.248 1.42-.163 1.859.601.439.765.054 1.312.466 1.832.412.52 1.23.737.982 1.828-.245 1.09-.217 1.171-.109 1.773.109.601.109 1.583-.602 2.813-.71 1.23-.628 1.393-.493 1.968.136.574-.135.71-.465 1.09-.326.384-5.216-4.641-5.161-5.161.054-.52-.466-1.53-1.312-1.53-.846 0-.737-.465-1.009-.872-.271-.412-1.09-.222-1.447.027-.353.244-.629-.163-1.203-.52-.575-.353-.955.493-1.091.683-.135.19-2.071-2.076-1.908-2.542z" fill="#280D02"/><path d="M188.657 131.116c-1.719 2.592-4.975 2.958-5.984 3.962-.981.982-.877 2.904.045 3.275 3.515 1.004 8.445-2.157 8.445-2.157s1.733.158 4.057-1.443c1.158-2.217-.895-4.641-.895-4.641s-4.872 1.004-5.668 1.004z" fill="#fff"/><path d="M185.215 112.376c.181 1.846 1.212 2.565 1.809 4.053.059 3.451 2.823 10.232 1.628 14.687 2.384 1.448 5.184-.253 5.668-1.004-.837-5.772.063-10.109-.063-16.953-.412-.068-8.965-1.814-9.042-.783z" fill="#DE8767"/><path d="M191.625 114.674s.076 2.022 1.361 3.447c1.57 4.039 2.447 14.795 2.827 16.184.244.9 2.008.764 2.008.764s1.945-.126 2.158-1.886c-1.276-4.822 1.547-10.733-1.588-17.17-.57-.972-.38-2.791-.38-2.791l-6.386 1.452zM179.158 68.682s.317 9.87.231 10.11c-.859.637-1.108 10.267-2.406 13.465-.543 1.344-2.171 2.741-2.447 4.08-.317 2.927 1.443 5.025 1.443 5.025s2.971-.389 3.41-2.514c.299-1.416 4.686-20.056 4.686-20.056l-2.42-9.526-2.497-.584z" fill="#E89A82"/><path d="M195.718 88.928s1.61 1.43 3.112 4.835c1.628 3.723 2.935 18.596 2.935 18.596s-2.225 1.976-6.047 2.677c-6.916 1.262-14.841-5.007-14.841-5.007s-4.478-19.17-.85-22.915c1.226-1.443 15.691 1.814 15.691 1.814z" fill="#FFBC00"/><path d="M195.437 86.173l.281 2.755s-.642 1.913-5.428 2.515c-5.962.75-10.263-4.333-10.263-4.333l.176-3.718 15.234 2.781zM179.159 65.841v2.84c.212.67 1.931.838 2.497.584.56-.248.814-2.591.814-2.591l-3.311-.833z" fill="#F90"/><path d="M178.901 64.444a3.855 3.855 0 0 0 3.854 3.858 3.863 3.863 0 0 0 3.863-3.858 3.856 3.856 0 0 0-3.863-3.854 3.854 3.854 0 0 0-3.854 3.854z" fill="#FFBC00"/><path d="M192.005 60.165a2.442 2.442 0 0 0 .208 1.778l.212 2.623-2.429 2.714-3.094 1.027-2.994-.923-.507-1.881.276-2.28 3.537-2.551 3.723-1.506c.005-.005 1.149.285 1.068 1z" fill="#DE8767"/><path d="M193.759 57.017s2.791 3.546 2.601 8.825c-1.131 1.71-2.696.416-3.13-.01 1.095-5.178-.05-8.078-.05-8.078l.579-.737z" fill="#302625"/><path d="M194.135 57.234c0 .678-.525 1.424-.927 1.424-.408 0-.584-.814-.584-.814l.783-1.425s.728.349.728.815z" fill="#FF85A1"/><path d="M193.475 63.634l4.74 5.152s-.887 15.696-2.777 17.387c-.995.891-2.321 2.054-6.021 2.09-3.704.045-8.205-3.17-9.209-4.867-1.009-1.696-.959-12.226-.484-15.112.715-4.315 4.795-5.4 4.795-5.4s-.539 4.54 1.153 4.88c1.692.34 7.803-4.13 7.803-4.13z" fill="#FFBC00"/><path d="M184.618 62.784c-.597 2.632.529 4.686.529 4.686s-2.46 1.275-3.175-.127c-.846-1.66.249-4.582.249-4.582s2.682-.235 2.397.023zM192.213 61.942s1.818.941 1.818 2.027c-.249 2.858-5.315 5.685-6.161 5.749-1.266.1-2.632-1.203-2.723-2.248 6.012-1.344 7.066-5.528 7.066-5.528z" fill="#fff"/><path d="M180.009 55.357c-.059.516.335 1.66.335 1.66s-.154.923-.082 2.149c.077 1.226 1.004 4.862 2.841 5.292 3.324.769 7.002-2.574 7.282-4.021 0 0 2.352.47 2.836-2.221.104-.584-.859-4.153-.859-4.153l-7.816-4.206-4.144 3.795c0 .004-.343 1.19-.393 1.705z" fill="#E89A82"/><path d="M182.84 54.203c.19 4.125 7.283 4.89 7.509 4.397.117-.19.651-1.217 1.488-1.389.837-.163 1.38 1.009 1.38 1.009s3.555-9.16-4.184-9.58c-6.319-4.017-10.463 5.418-8.956 6.798.253.203 1.406.461 2.763-1.235z" fill="#302625"/><path d="M188.237 48.93c-2.425-.168-5.139 4.541-5.139 4.541s3.384-3.971 5.139-4.541z" fill="#000"/><path d="M146.673 31.009c-.055.51.339 1.66.339 1.66s-.149.922-.077 2.148c.077 1.226 1.004 4.858 2.841 5.292 3.32.765 6.997-2.578 7.282-4.016 0 0 2.352.465 2.831-2.217.109-.588-.854-4.157-.854-4.157l-7.817-4.21-4.143 3.799s-.348 1.185-.402 1.7z" fill="#E89A82"/><path d="M153.286 32.483c.556 1.673 3.736 1.764 3.736 1.764.113-.19.647-1.217 1.488-1.38.837-.167 1.375 1.004 1.375 1.004s2.827-5.4-1.235-8.051c-5.613-6.88-13.113 1.755-11.923 4.844.253.814 3.347 3.198 6.559 1.819z" fill="#78431C"/><path d="M158.153 26.128c-2.429-.168-4.487 4.541-4.487 4.541s2.732-3.971 4.487-4.541z" fill="#613617"/><path d="M195.65 78.506c1.013 3.772 2.131 7.002 2.592 8.083-.642 2.565.393 11.824 0 14.058-.832 1.253-2.099 2.126-2.556 2.475-.452.352-1.655 2.971-1.298 3.306.353.339 2.144-1.343 2.511-1.172.61.756-1.299 5.614-1.299 5.614s3.727-.837 4.98-4.686c.376-1.045.417-4.225.417-4.225s2.786-9.847 2.261-17.202c-.733-1.936-2.261-8.078-2.261-8.078s-5.324 1.004-5.347 1.827z" fill="#E89A82"/><path d="M200.906 73.41s.276 3.052.281 3.306c.068 2.383-5.51 2.42-5.74 1.578-.226-.837-1.054-3.88-1.054-3.88l6.513-1.005z" fill="#F90"/><path d="M211.319 60.59c-4.306.023-9.106 3.153-14.172 3.57-2.27.284-6.979 1.379-7.585 1.808-.615.426-2.262 1.466-2.768 2.556-.502 1.086.036 2.673.461 3.27.837 1.163 3.727 1.959 4.311 1.538.588-.416-.213-1.795-.213-1.795s5.062-2.013 6.79-3.764c1.872-.334 14.551 1.34 16.772-.81.981-.95 2.008-5.513 2.008-5.513s-4.894-.72-5.604-.86z" fill="#B2663B"/><path d="M220.912 39.702c3.804.75 2.61 5.206 2.61 5.206s-5.835 16.899-6.4 17.315c-2.23 1.977-7.047-1.063-6.898-1.764.249-1.185 3.718-14.99 3.718-14.99s1.574-6.84 6.97-5.767z" fill="#BABABA"/><path d="M193.474 72.536a3.856 3.856 0 1 0 7.712 0 3.852 3.852 0 0 0-3.858-3.854 3.852 3.852 0 0 0-3.854 3.854z" fill="#FFBC00"/><path d="M167.149 15.453c.213.493.294.665.294.665s-.226.384-.334.868c-.105.475.832 6.36 1.085 6.88.253.511 1.642 1.167 2.348 1.167.696 0 4.509-1.61 5.532-2.854 1.162-1.416 1.537-6.437 1.537-6.437l-5.066-6.608-6.024 2.257s.411 3.564.628 4.062z" fill="#E89A82"/><path d="M169.578 12.486c4.555 1.212.009 5.07 7.405 8.883 1.927 1.312-1.117 6.007-.584 7.767.625-1.507 4.103-2.248 5.858-2.258 0 0 2.216-2.302 1.886-6.278-.335-3.971 1.086-13.515-6.654-14.23 0 0-1.497-2.596-5.735-.642-3.849 1.773-6.111 5.369-6.111 6.835 0 1.465 1.217 2.596 1.506 2.89-.628-4.062.796-3.895.796-3.895s.756-.126 1.633.928z" fill="#915422"/><path d="M176.775 6.872c-.375-.249-6.233 4.188-6.233 4.188s6.608-3.935 6.233-4.188z" fill="#78431C"/><path d="M162.585 58.469l.882 2.121s-.045 1.235.123 3.366c.162 2.13 1.886 10.376 1.886 10.376s-2.18 1.628-2.488 2.845c-.317 1.208.09 2.655.312 2.596.538-.036.502-1.483 1.104-1.32.592.167.656 2.496.656 2.496s-1.262 2.28-.502 2.674c.438.23 2.22-1.507 2.22-1.507s1.208-1.216 1.588-3.048c.38-1.846 0-5.274 0-5.274s1.086-9.585.172-12.39c-.593-1.732-1.551-4.554-1.551-4.554l-4.402 1.619z" fill="#E89A82"/><path d="M162.798 42.438c3.709 0 4.962 8.45 4.962 8.45s.624 5.961.773 6.648c.226 1.742-6.549 2.285-6.798.96-.14-.724-1.511-8.36-1.511-8.36s-2.153-7.549 2.574-7.698zM161.794 64.543s-1.005 1.945-5.618 2.389c-4.618.438-9.508-3.859-9.508-3.859v1.9s4.424 4.062 9.666 3.704c4.193-.284 6.256-2.596 6.256-2.596l-.796-1.538z" fill="#A62626"/><path d="M200.553 29.534c.788.75 2.113 1.004 3.583 1.126 0 0-.674 1.466-2.284 1.1-1.005-.232-1.299-2.226-1.299-2.226z" fill="#fff"/><path d="M206.149 26.24l-1.755-.57a.396.396 0 0 1-.254-.497.396.396 0 0 1 .498-.253l1.755.57a.395.395 0 0 1-.244.75zM201.802 24.834l-1.796-.538a.383.383 0 0 1-.258-.475.387.387 0 0 1 .475-.258l1.796.538a.384.384 0 0 1 .258.475.387.387 0 0 1-.475.258z" fill="#280D02"/><path d="M204.896 26.988c0 .46-.181.746-.403.637-.221-.108-.402-.57-.402-1.031 0-.461.181-.746.402-.638.222.109.403.57.403 1.032zM201.363 26.128c0 .46-.181.746-.402.637-.222-.108-.399-.565-.399-1.027 0-.46.181-.746.403-.637.222.108.398.57.398 1.027z" fill="#302625"/><path d="M202.725 25.58c-.095.064-1.317 1.814-1.95 2.733-.348.502.041 1.198.651 1.14.376-.037.656-.29.656-.29l.643-3.582z" fill="#994E28"/><path d="M167.833 20.297c.719.683 1.922.914 3.261 1.022 0 0-.615 1.335-2.081 1.004-.914-.203-1.18-2.026-1.18-2.026z" fill="#fff"/><path d="M173.043 16.706l-2.085-.674a.223.223 0 0 1 .135-.426l2.086.674a.224.224 0 0 1-.136.425zM168.574 15.457l-1.737-.515a.222.222 0 1 1 .127-.425l1.737.515a.222.222 0 0 1 .149.276.22.22 0 0 1-.276.15z" fill="#915422"/><path d="M171.872 17.886c0 .462-.181.747-.403.638-.222-.108-.403-.57-.403-1.031 0-.461.181-.746.403-.638.222.109.403.57.403 1.031zM168.056 17.69c.213-.029.333-.435.27-.908-.064-.473-.289-.833-.502-.804-.212.028-.333.435-.269.908.063.473.288.833.501.804z" fill="#302625"/><path d="M169.714 16.593c-.104.072-1.909 2.682-1.909 2.682.633.923 1.375.249 1.375.249l.534-2.931z" fill="#E58567"/><path d="M181.208 61.073c.606.575 1.623.774 2.754.864 0 0-.52 1.127-1.755.846-.773-.172-.999-1.71-.999-1.71z" fill="#fff"/><path d="M185.541 58.269l-1.846-.56a.185.185 0 0 1-.126-.236c.031-.095.144-.15.248-.118l1.846.561a.185.185 0 0 1 .126.235c-.031.095-.144.15-.248.118zM182.067 57.342l-1.728-.488a.181.181 0 0 1-.131-.231c.031-.1.14-.154.244-.127l1.728.489a.181.181 0 0 1 .131.23.193.193 0 0 1-.244.127zM184.731 59.323c0 .385-.158.62-.353.53-.194-.091-.353-.476-.353-.855 0-.38.159-.62.353-.53.195.086.353.47.353.855zM181.61 58.608c0 .385-.158.62-.353.53-.194-.091-.353-.476-.353-.855 0-.385.159-.62.353-.53.195.09.353.475.353.855z" fill="#302625"/><path d="M182.822 58.247c-.095.058-1.682 2.23-1.682 2.23.556.769 1.216.203 1.216.203l.466-2.433z" fill="#DE8767"/><path d="M148.034 36.992c.606.575 1.624.774 2.755.864 0 0-.52 1.126-1.755.846-.774-.176-1-1.71-1-1.71z" fill="#fff"/><path d="M152.367 34.188l-1.845-.561a.186.186 0 0 1-.127-.235c.032-.095.145-.15.249-.118l1.845.561a.184.184 0 0 1 .127.235c-.032.095-.145.15-.249.118zM148.893 33.261l-1.727-.489a.182.182 0 0 1-.132-.23.201.201 0 0 1 .245-.127l1.728.489a.182.182 0 0 1 .131.23.197.197 0 0 1-.245.127z" fill="#78431C"/><path d="M151.558 35.242c0 .384-.159.62-.353.53-.195-.091-.353-.476-.353-.856 0-.384.158-.62.353-.529.194.086.353.47.353.855zM148.441 34.527c0 .384-.158.62-.352.53-.195-.091-.353-.476-.353-.856 0-.384.158-.62.353-.529.19.09.352.47.352.855z" fill="#302625"/><path d="M149.653 34.166c-.095.058-1.682 2.23-1.682 2.23.556.768 1.216.203 1.216.203l.466-2.433z" fill="#DE8767"/></g><defs><clipPath id="clip0"><path fill="#fff" transform="translate(130 5)" d="M0 0h114.781v142.649H0z"/></clipPath></defs></svg>