<svg width="1600" height="400" fill="none" xmlns="http://www.w3.org/2000/svg" viewBox="0 0 1600 400"><g filter="url(#filter0_d)"><path fill="#F5FCFF" d="M1600 0H0v400h1600z"/></g><mask id="a" maskUnits="userSpaceOnUse" x="623" y="0" width="977" height="400"><path transform="matrix(-1 0 0 1 1600 0)" fill="#F5FCFF" d="M0 0h977v400H0z"/></mask><g mask="url(#a)"><path d="M1811.84 8.01l-221.16 12.087-412.3 43.203-76.81 45.616 349.28 203.445 293.2 27.611 67.79-331.961z" fill="#00AD00"/><path d="M1721.26 4.697S967.115 28.777 916.425 112.28C853.991 215.137 1472.9 491 1472.9 491l522.48-123.8s-828.17-206.809-790.9-269.085c38.95-65.08 809.99-83 809.99-83L1721.26 4.696z" fill="#fff"/><path d="M1531.55 450.392S919.755 205.655 975.078 112.279C1024.87 28.243 1779.91 7.401 1779.91 7.401l168.74 3.197s-771.51 22.153-809.99 87.508c-41.13 69.872 790.89 300.67 790.89 300.67l-398 51.616z" fill="#004EBB"/><path d="M1470.62 134.583h-5.63v110.662h5.63V134.583z" fill="#5F6464"/><path d="M1422.5 117.688l38.98-39.472a8.926 8.926 0 0 1 12.74 0l38.98 39.472c3.52 3.564 3.52 9.34 0 12.913l-38.98 39.463a8.925 8.925 0 0 1-12.74 0l-38.98-39.463c-3.52-3.573-3.52-9.349 0-12.913z" fill="#fff"/><path d="M1427.4 120.869l37.22-37.695a4.52 4.52 0 0 1 6.46 0l37.23 37.695c1.79 1.811 1.79 4.741 0 6.544l-37.23 37.694a4.52 4.52 0 0 1-6.46 0l-37.22-37.694c-1.79-1.812-1.79-4.741 0-6.544z" fill="#fff"/><path d="M1467.85 168.128c-1.66 0-3.22-.659-4.4-1.845l-37.22-37.694c-2.42-2.454-2.42-6.444 0-8.906l37.22-37.694a6.134 6.134 0 0 1 4.39-1.845c1.66 0 3.23.651 4.4 1.845l37.23 37.694a6.278 6.278 0 0 1 1.82 4.449 6.34 6.34 0 0 1-1.82 4.457l-37.23 37.694a6.131 6.131 0 0 1-4.39 1.845z" fill="#004EBB"/><path d="M1485.15 141.61c9.55-9.674 9.55-25.357 0-35.031a24.252 24.252 0 0 0-34.6 0c-9.56 9.674-9.56 25.357 0 35.031a24.253 24.253 0 0 0 34.6 0z" fill="#fff"/><path d="M1489.4 131.71c4.16-12.052-2.12-25.24-14.04-29.439-11.9-4.207-24.92 2.162-29.08 14.215-4.15 12.053 2.13 25.241 14.04 29.439 11.91 4.207 24.94-2.162 29.08-14.215z" fill="#fff"/><path d="M1445.52 128.881c.8 3.84 2.53 7.329 4.96 10.209 3.66-16.519 18.22-28.872 35.64-28.872-.35-.467-.71-.901-1.09-1.344a36.667 36.667 0 0 0-6.74-.643c-14.38.009-26.81 8.422-32.77 20.65z" fill="#0046B4"/><path d="M1457.6 144.757a22.513 22.513 0 0 0 10.25 2.462c12.61 0 22.83-10.35 22.83-23.121 0-4.374-1.2-8.464-3.28-11.944-15.85 2.896-28.15 16.151-29.8 32.603zM1473.72 105.602c3.21 0 6.32.426 9.28 1.21-4.03-3.622-9.34-5.834-15.16-5.834-10.88 0-19.98 7.712-22.27 18.029 6.72-8.188 16.83-13.405 28.15-13.405z" fill="#46B400"/></g><g clip-path="url(#clip0)"><path d="M1222.14 185.327c2.51-1.451 6.61-1.451 9.12 0l136.35 78.916c2.51 1.451 11.73 7.248 1.04 12.764l-71.93 41.231c-2.51 1.444-11.73 8.625-25.71-.17l-126.2-72.756c-12.94-6.856-3.03-13.69-.52-15.141l77.85-44.844z" fill="#0032A5"/><path d="M1244.05 263.355c-.39 2.332 0 9.913 0 9.913l20.29-7.581 10.6-12.276s-16.77-11.275-22.17-7.322c-5.4 3.946-8.72 17.266-8.72 17.266z" fill="#000508"/><path d="M1154.65 207.449l17.48-9.95c3.82-2.177 9.08-1.844 14.89 1.51 11.66 6.737 21.12 23.114 21.12 36.589 0 6.775-2.39 11.528-6.26 13.712l-17.48 9.95c-3.82 2.162-9.07 1.829-14.86-1.517-11.67-6.738-21.13-23.115-21.13-36.589 0-6.76 2.38-11.506 6.24-13.705z" fill="#2C2D30"/><path d="M1148.41 221.161c0 13.467 9.45 29.852 21.12 36.589 5.8 3.347 11.04 3.68 14.87 1.518 3.86-2.192 6.25-6.937 6.25-13.712 0-13.475-9.45-29.852-21.12-36.589-5.81-3.354-11.06-3.687-14.88-1.51-3.86 2.191-6.24 6.937-6.24 13.704z" fill="#4A4F54"/><path d="M1158.82 226.713c0 6.827 4.79 15.126 10.71 18.539 2.94 1.696 5.6 1.866 7.54.77 1.96-1.11 3.16-3.516 3.16-6.952 0-6.826-4.79-15.126-10.7-18.539-2.94-1.695-5.61-1.865-7.55-.762-1.95 1.11-3.16 3.517-3.16 6.944z" fill="#D1D6DD"/><path d="M1159.31 227.002c0 6.516 4.58 14.43 10.22 17.688 2.8 1.621 5.34 1.784 7.19.733 1.86-1.059 3.03-3.354 3.03-6.634 0-6.515-4.58-14.437-10.22-17.687-2.81-1.622-5.35-1.785-7.2-.733-1.86 1.066-3.02 3.361-3.02 6.633z" fill="#2C2D30"/><path d="M1179.73 238.5c-.16.148-.33.267-.52.378-1.21.688-2.88.585-4.73-.481-3.71-2.14-6.72-7.36-6.72-11.646 0-2.155.76-3.665 1.98-4.361.34-.2.74-.319 1.15-.378 4.92 3.591 8.72 10.565 8.84 16.488z" fill="#D1D6DD"/><path d="M1195.84 252.656a186.72 186.72 0 0 0 7.98-5.101l.88-.511c-.67.711-1.43 1.318-2.26 1.807l-.88.511-.11.059c-3.1 1.807-6.2 3.613-9.31 5.412.19-.111.38-.237.58-.363l3.12-1.814zM1190.14 253.034c2.17-.585 3.41-.985 5.1-1.555l3.13-1.814c-.57.822-1.23 1.547-1.97 2.169l-3.13 1.814c-.01.008-1.52.792-4.69 2.007l-.88.51a13.39 13.39 0 0 0 1.56-2.62l.88-.511zM1195.8 250.598c.51-.888.92-1.865 1.26-2.917l3.12-1.814c2.85-2.48 4.55-4.042 6.88-6.234l.88-.51a17.301 17.301 0 0 1-.85 3.287l-.88.511a199.713 199.713 0 0 1-7.28 5.863l-3.13 1.814zM1191.69 243.675c2.66-.229 4.17-.399 6.22-.644l3.12-1.814a21.516 21.516 0 0 1-.54 3.532l-3.12 1.821c-.01 0-1.84.378-5.8.933l-.88.511a28.1 28.1 0 0 0 .12-3.82l.88-.519zM1201.09 239.914l-3.12 1.814c.03-1.281-.04-2.621-.2-4.005l3.13-1.814c2.38-2.784 3.8-4.516 5.74-6.93l.88-.511c.29 1.444.5 2.851.61 4.213l-.88.511c-2.47 2.806-4.02 4.464-6.16 6.722zM1189.6 237.094a40.22 40.22 0 0 0-1.37-4.457l.88-.511c3.55-.067 5.52-.119 7.38-.17l3.12-1.814c.41 1.473.72 2.924.93 4.331l-3.12 1.814s-2.2.126-6.94.296l-.88.511zM1199.14 228.609l-3.13 1.814a43.98 43.98 0 0 0-1.69-4.524l3.13-1.813c2.04-3.11 3.09-4.813 4.56-7.182l.88-.511c.14.259.27.526.41.785a49.745 49.745 0 0 1 1.72 3.776l-.88.511c-2 2.961-3.26 4.723-5 7.144zM1191.23 219.858l3.12-1.814a48.485 48.485 0 0 1 1.82 3.287c.2.393.4.792.59 1.185l-3.12 1.814c-.22.059-.53.007-.75.007-3.41.037-4.33.052-7.35.133l-.88.511c-.89-1.555-.96-1.651-2.68-4.175l.88-.511c3.39-.222 5.56-.326 8.37-.437zM1193.45 216.667l-3.12 1.814c-.97-1.473-1.03-1.562-2.85-3.939l3.13-1.814c1.41-2.332 2.72-4.479 3.88-6.374l.89-.511a45.26 45.26 0 0 1 3.03 3.576l-.88.518c-.28.452-3.31 5.457-4.08 6.73zM1183.45 209.922l3.12-1.814c1.16 1.096 1.24 1.178 3.16 3.302l-3.13 1.814c-.23.074-.57.06-.81.082-3.42.355-6.44.755-7.89.947l-.88.511a38.401 38.401 0 0 0-3.27-2.895l.88-.51c3.56-.637 5.84-.992 8.82-1.437zM1185.45 207.094l-3.13 1.821c-1.17-1.014-1.25-1.073-3.33-2.576l3.13-1.814c1.67-2.48 2.6-3.783 3.63-5.227l.88-.511c1.13.607 2.26 1.311 3.38 2.118l-.88.51c-1.43 2.155-2.4 3.658-3.68 5.679zM1174.59 203.718l3.12-1.814c1.13.481 2.26 1.073 3.38 1.762l-3.12 1.814c-.24.096-.59.133-.84.192-3.51.807-6.58 1.629-8.05 2.021l-.88.511a21.387 21.387 0 0 0-3.36-1.258l.88-.511c3.57-1.17 5.87-1.858 8.87-2.717zM1176.41 201.393l-3.12 1.814a17.743 17.743 0 0 0-3.3-.866l3.12-1.814a78.919 78.919 0 0 1 3.79-3.813l.88-.511c1.04-.022 2.11.082 3.21.304l-.88.511c-1.49 1.68-2.44 2.828-3.7 4.375zM1157.82 206.117c3.39-1.807 5.6-2.902 8.5-4.279l3.13-1.814c1-.171 2.03-.208 3.1-.126l-3.12 1.814c-2.84 1.377-5.82 2.384-8.69 3.665l-.88.51c-.91.097-1.78.304-2.63.615-.1.037-.2.074-.29.118l.88-.503zM1167.56 200.534l-3.12 1.814c-.32.089-.63.185-.94.304-.54.199-1.05.444-1.54.725 3.42-1.992 6.84-3.976 10.27-5.967.1-.067.22-.126.33-.185l-.88.51a47.247 47.247 0 0 0-4.12 2.799zM1172.74 228.853c0 1.415 1 3.14 2.22 3.843.61.348 1.17.385 1.56.163.41-.23.66-.733.66-1.444 0-1.414-.99-3.139-2.22-3.842-.6-.356-1.16-.385-1.56-.156-.41.23-.66.726-.66 1.436z" fill="#43474C"/><path d="M1253.74 263.132l17.48-9.95c3.82-2.177 9.08-1.844 14.88 1.51 11.67 6.738 21.12 23.115 21.12 36.589 0 6.782-2.39 11.528-6.26 13.719l-17.48 9.951c-3.82 2.162-9.07 1.829-14.87-1.518-11.67-6.737-21.12-23.114-21.12-36.589.01-6.774 2.39-11.52 6.25-13.712z" fill="#2C2D30"/><path d="M1247.5 276.837c0 13.475 9.45 29.852 21.12 36.589 5.8 3.346 11.05 3.68 14.87 1.518 3.86-2.192 6.25-6.938 6.25-13.719 0-13.475-9.45-29.852-21.12-36.589-5.8-3.354-11.07-3.687-14.88-1.511-3.86 2.199-6.24 6.945-6.24 13.712z" fill="#4A4F54"/><path d="M1257.91 282.397c0 6.826 4.79 15.126 10.71 18.539 2.94 1.695 5.6 1.865 7.54.77 1.96-1.111 3.17-3.517 3.17-6.952 0-6.827-4.79-15.126-10.71-18.539-2.94-1.703-5.61-1.866-7.54-.763-1.96 1.111-3.17 3.517-3.17 6.945z" fill="#D1D6DD"/><path d="M1258.4 282.678c0 6.516 4.57 14.438 10.22 17.695 2.81 1.622 5.34 1.784 7.19.733 1.86-1.059 3.03-3.354 3.03-6.634 0-6.515-4.58-14.437-10.21-17.687-2.81-1.621-5.36-1.777-7.2-.733-1.87 1.066-3.03 3.361-3.03 6.626z" fill="#2C2D30"/><path d="M1278.82 294.176c-.16.148-.33.267-.52.378-1.21.688-2.88.585-4.73-.482-3.71-2.147-6.72-7.359-6.72-11.646 0-2.154.76-3.664 1.98-4.36.35-.2.74-.319 1.15-.378 4.92 3.598 8.72 10.572 8.84 16.488z" fill="#D1D6DD"/><path d="M1294.93 308.34c2.76-1.681 4.75-2.925 7.98-5.102l.88-.51a9.895 9.895 0 0 1-2.27 1.806l-.88.511-.1.059-9.32 5.412c.2-.111.39-.237.58-.363l3.13-1.813zM1289.23 308.717c2.17-.585 3.41-.985 5.1-1.555l3.13-1.814c-.57.822-1.23 1.548-1.97 2.169l-3.13 1.814c-.01.008-1.51.793-4.68 2.007l-.88.511c.6-.778 1.12-1.659 1.56-2.621l.87-.511zM1294.89 306.281c.5-.888.92-1.865 1.26-2.917l3.12-1.814c2.85-2.48 4.55-4.042 6.88-6.233l.88-.511a18.062 18.062 0 0 1-.84 3.287l-.89.511a198.649 198.649 0 0 1-7.28 5.863l-3.13 1.814zM1290.78 299.359c2.66-.23 4.17-.4 6.22-.644l3.12-1.814c-.09 1.244-.26 2.428-.54 3.531l-3.12 1.814c-.01 0-1.84.378-5.8.933l-.88.511c.13-1.214.17-2.495.12-3.82l.88-.511zM1300.18 295.59l-3.12 1.814c.03-1.281-.04-2.621-.2-4.005l3.13-1.814c2.38-2.784 3.8-4.517 5.74-6.93l.88-.511c.29 1.444.5 2.85.62 4.213l-.88.511a209.405 209.405 0 0 1-6.17 6.722zM1288.69 292.769a43.059 43.059 0 0 0-1.37-4.457l.88-.511c3.55-.066 5.52-.118 7.38-.162l3.12-1.814c.41 1.473.72 2.924.93 4.331l-3.12 1.814s-2.2.133-6.94.296l-.88.503zM1298.23 284.285l-3.13 1.814a44.596 44.596 0 0 0-1.69-4.524l3.13-1.814c2.04-3.102 3.09-4.812 4.56-7.181l.88-.511c.14.259.27.518.41.785a49.567 49.567 0 0 1 1.72 3.776l-.88.51c-2 2.962-3.26 4.731-5 7.145zM1290.32 275.541l3.12-1.814a53.666 53.666 0 0 1 1.83 3.287c.2.393.39.792.58 1.185l-3.12 1.814c-.22.059-.53.007-.75.007-3.41.037-4.33.052-7.35.133l-.88.511c-.89-1.554-.96-1.651-2.68-4.183l.88-.511a319.1 319.1 0 0 1 8.37-.429zM1292.54 272.35l-3.12 1.814c-.97-1.473-1.03-1.562-2.85-3.939l3.13-1.814c1.41-2.332 2.72-4.479 3.89-6.374l.88-.511a46.36 46.36 0 0 1 3.04 3.583l-.88.511c-.28.444-3.32 5.457-4.09 6.73zM1282.54 265.605l3.12-1.813c1.17 1.095 1.24 1.177 3.16 3.302l-3.13 1.813c-.23.074-.57.06-.8.082-3.42.355-6.44.755-7.89.948l-.88.51a39.795 39.795 0 0 0-3.27-2.894l.88-.511c3.55-.637 5.83-1 8.81-1.437zM1284.54 262.777l-3.12 1.814c-1.18-1.014-1.25-1.073-3.33-2.576l3.12-1.814c1.68-2.48 2.6-3.783 3.65-5.235l.88-.51a29.12 29.12 0 0 1 3.37 2.117l-.88.511a414.65 414.65 0 0 0-3.69 5.693zM1273.68 259.393l3.13-1.813c1.12.481 2.26 1.073 3.38 1.762l-3.12 1.814c-.24.096-.59.133-.84.192-3.51.807-6.58 1.629-8.05 2.021l-.89.511a20.523 20.523 0 0 0-3.35-1.258l.88-.511c3.56-1.163 5.87-1.851 8.86-2.718zM1275.51 257.076l-3.12 1.814a17.636 17.636 0 0 0-3.31-.866l3.12-1.814a78.919 78.919 0 0 1 3.79-3.813l.88-.511c1.04-.022 2.11.082 3.21.304l-.88.511a106.718 106.718 0 0 0-3.69 4.375zM1256.91 261.8a184.93 184.93 0 0 1 8.5-4.279l3.13-1.814c1-.17 2.03-.207 3.1-.126l-3.12 1.814c-2.83 1.377-5.82 2.384-8.69 3.672l-.88.511c-.91.096-1.78.303-2.63.622-.09.037-.2.074-.29.118l.88-.518zM1266.65 256.218l-3.12 1.813a10.613 10.613 0 0 0-2.48 1.03c3.42-1.992 6.84-3.984 10.27-5.968l.33-.177-.88.51c-1.47.896-2.45 1.54-4.12 2.792zM1271.84 284.537c0 1.414.99 3.139 2.22 3.842.61.355 1.16.385 1.56.163.41-.23.66-.733.66-1.444 0-1.414-.99-3.139-2.22-3.842-.61-.356-1.16-.385-1.56-.163-.41.237-.66.733-.66 1.444z" fill="#43474C"/><path d="M1312.57 229.216l17.48-9.951c3.82-2.176 9.08-1.843 14.88 1.511 11.67 6.737 21.12 23.114 21.12 36.589 0 6.774-2.4 11.527-6.26 13.711l-17.48 9.951c-3.82 2.162-9.07 1.829-14.87-1.518-11.67-6.737-21.12-23.114-21.12-36.589.01-6.767 2.39-11.513 6.25-13.704z" fill="#2C2D30"/><path d="M1306.33 242.921c0 13.467 9.45 29.851 21.12 36.589 5.8 3.346 11.05 3.679 14.87 1.517 3.86-2.191 6.25-6.937 6.25-13.711 0-13.475-9.45-29.852-21.12-36.589-5.81-3.354-11.07-3.68-14.88-1.511-3.86 2.192-6.24 6.938-6.24 13.705z" fill="#2C2D30"/><path d="M1316.74 248.481c0 6.826 4.79 15.125 10.71 18.538 2.94 1.696 5.6 1.866 7.53.77 1.95-1.11 3.17-3.516 3.17-6.952 0-6.826-4.79-15.125-10.71-18.539-2.94-1.695-5.6-1.865-7.54-.762-1.95 1.103-3.16 3.509-3.16 6.945z" fill="#43474C"/><path d="M1317.23 248.762c0 6.515 4.58 14.437 10.22 17.688 2.81 1.621 5.34 1.784 7.19.733 1.86-1.059 3.03-3.354 3.03-6.634 0-6.515-4.58-14.437-10.21-17.688-2.81-1.621-5.36-1.784-7.2-.733-1.87 1.067-3.03 3.362-3.03 6.634z" fill="#2C2D30"/><path d="M1337.65 260.26c-.16.141-.33.267-.52.378-1.21.688-2.88.584-4.73-.482-3.71-2.139-6.72-7.359-6.72-11.646 0-2.154.76-3.664 1.98-4.36.35-.2.74-.319 1.15-.378 4.92 3.591 8.72 10.565 8.84 16.488z" fill="url(#paint0_linear)"/><path d="M1353.76 274.423c2.76-1.681 4.75-2.924 7.98-5.101l.88-.511a9.872 9.872 0 0 1-2.27 1.807l-.88.51-.1.06c-3.11 1.799-6.21 3.605-9.31 5.412.2-.119.39-.237.58-.363l3.12-1.814zM1348.06 274.8c2.17-.584 3.41-.984 5.1-1.562l3.13-1.814c-.57.822-1.23 1.548-1.97 2.17l-3.13 1.821c-.01.007-1.52.792-4.69 2.006l-.88.511a13.37 13.37 0 0 0 1.56-2.621l.88-.511zM1353.72 272.358c.5-.889.92-1.866 1.26-2.925l3.12-1.814c2.85-2.48 4.55-4.042 6.87-6.234l.88-.51a18.083 18.083 0 0 1-.84 3.287l-.88.511a199.444 199.444 0 0 1-7.29 5.863l-3.12 1.822zM1349.61 265.435c2.66-.23 4.17-.4 6.22-.645l3.12-1.813c-.09 1.243-.26 2.421-.54 3.531l-3.12 1.814c-.01 0-1.84.378-5.8.933l-.88.511c.12-1.214.17-2.495.12-3.821l.88-.51zM1359.01 261.674l-3.12 1.814c.03-1.281-.04-2.621-.2-4.006l3.13-1.814c2.38-2.784 3.8-4.516 5.74-6.93l.88-.51c.29 1.443.5 2.85.62 4.212l-.88.511a230.625 230.625 0 0 1-6.17 6.723zM1347.52 258.853a42.468 42.468 0 0 0-1.37-4.457l.88-.511c3.55-.067 5.52-.118 7.38-.17l3.12-1.814c.41 1.473.72 2.924.93 4.331l-3.12 1.814s-2.2.126-6.94.296l-.88.511zM1357.06 250.368l-3.13 1.814a43.88 43.88 0 0 0-1.69-4.523l3.13-1.814c2.04-3.102 3.09-4.813 4.56-7.182l.88-.511c.14.259.27.519.41.785a54.211 54.211 0 0 1 1.72 3.776l-.88.511c-2 2.961-3.26 4.731-5 7.144zM1349.15 241.617l3.12-1.814a53.666 53.666 0 0 1 1.83 3.287c.2.393.39.793.58 1.185l-3.12 1.814c-.22.059-.53.007-.75.007-3.42.037-4.33.045-7.35.134l-.88.51c-.89-1.554-.96-1.651-2.67-4.183l.88-.51c3.38-.215 5.55-.319 8.36-.43zM1351.37 238.426l-3.12 1.814c-.97-1.466-1.03-1.562-2.85-3.939l3.13-1.814c1.41-2.332 2.71-4.479 3.88-6.374l.89-.511a46.55 46.55 0 0 1 3.04 3.583l-.88.511c-.29.452-3.32 5.464-4.09 6.73zM1341.37 231.682l3.12-1.814c1.16 1.095 1.24 1.177 3.16 3.302l-3.13 1.814c-.23.074-.57.059-.81.081-3.42.355-6.44.755-7.88.948l-.88.511a38.373 38.373 0 0 0-3.27-2.895l.88-.511c3.55-.637 5.83-.992 8.81-1.436zM1343.37 228.853l-3.13 1.822c-1.17-1.015-1.26-1.074-3.33-2.577l3.13-1.814c1.67-2.48 2.6-3.783 3.64-5.234l.88-.511c1.12.6 2.26 1.311 3.38 2.118l-.89.51a469.91 469.91 0 0 0-3.68 5.686zM1332.51 225.477l3.12-1.814c1.13.481 2.26 1.074 3.38 1.762l-3.12 1.814c-.24.096-.59.133-.84.193-3.51.807-6.57 1.628-8.05 2.021l-.88.511a20.72 20.72 0 0 0-3.36-1.259l.88-.511c3.57-1.17 5.87-1.858 8.87-2.717zM1334.34 223.152l-3.12 1.814a17.636 17.636 0 0 0-3.31-.866l3.12-1.814a78.919 78.919 0 0 1 3.79-3.813l.88-.511c1.04-.022 2.11.082 3.21.304l-.88.511c-1.49 1.68-2.44 2.835-3.69 4.375zM1315.74 227.876a184.93 184.93 0 0 1 8.5-4.279l3.13-1.814c1-.17 2.03-.207 3.1-.126l-3.12 1.814c-2.83 1.377-5.82 2.384-8.7 3.665l-.88.511c-.91.096-1.78.303-2.63.622-.09.037-.2.074-.29.118l.89-.511zM1325.48 222.294l-3.12 1.814c-.32.088-.63.185-.94.303-.55.2-1.06.444-1.54.726 3.42-1.992 6.84-3.976 10.27-5.968l.33-.177-.88.511c-1.47.895-2.45 1.54-4.12 2.791z" fill="#43474C"/><path opacity=".3" d="M1327.45 253.293c0 .777.55 1.732 1.22 2.125.67.392 1.23.074 1.23-.711 0-.777-.55-1.732-1.23-2.125-.67-.385-1.22-.074-1.22.711zM1326.22 248.873c0 .777.55 1.733 1.23 2.125.67.392 1.22.074 1.22-.711 0-.777-.55-1.732-1.22-2.125-.68-.385-1.23-.074-1.23.711zM1330.8 257.143c0 .785.54 1.732 1.22 2.125.67.392 1.23.074 1.23-.711 0-.778-.55-1.733-1.23-2.125-.68-.385-1.22-.067-1.22.711zM1334.96 257.55c0 .785.55 1.733 1.23 2.125.68.392 1.22.074 1.22-.711 0-.777-.55-1.732-1.22-2.125-.68-.392-1.23-.074-1.23.711zM1328.1 245.275c0 .777.55 1.732 1.22 2.124.68.393 1.23.074 1.23-.71 0-.778-.55-1.733-1.23-2.125-.67-.385-1.22-.067-1.22.711z" fill="#6D6F71"/><path d="M1330.66 250.613c0 1.414.99 3.139 2.22 3.842.61.356 1.17.385 1.57.163.4-.229.65-.733.65-1.444 0-1.414-.99-3.139-2.22-3.842-.6-.355-1.16-.385-1.56-.156-.41.23-.66.726-.66 1.437z" fill="url(#paint1_linear)"/><path d="M1210.2 153.913s-4.64-2.376-7.83-.674c-3.18 1.703-21.08 12.801-21.08 12.801s-2.08 2.962-1.41 5.405c.67 2.443 14.21 12.135 14.21 12.135l32.18-22.789-16.07-6.878z" fill="#43474C"/><path d="M1194.09 183.573s-13.54-9.692-14.21-12.135c-.61-2.214 1.04-4.842 1.35-5.316l17.54 14.134-4.68 3.317z" fill="#151F22"/><path d="M1166.36 185.297l27.05-3.85 33.99-17.82s4.86-13.875 6.58-17.177c1.72-3.302 4.23-2.643 4.23-2.643s12.54 7.137 23.12 20.345c8.87 11.091 9.27 23.485 9.17 27.179 1.28.222 2.61.548 3.98 1.007 7.63 2.525 19.9 9.27 29.89 15.326l16.93-9.336 6.43.896s8.56 5.234 10.56 6.715c1.99 1.473 13.67 14.319 14.75 16.629 1.07 2.317 2.02 14.141-.46 19.693-2.49 5.553-10.15 8.677-10.15 8.677l-.91-.414.09.414-19.79 11.18-3.1-.985 5.07 5.546-4.21 3.428s-20.89.17-21.09 0c-.12-.111-2.45-2.118-4.11-3.554l1.95-.563c-1.43-2.976-3.77-6.004-7.12-8.633-3.17-2.487-12.84-9.136-19.17-13.274l-23.42 3.346-19.23-12.127s-11.9 5.923-18.38 8.151c0 0-3.95-18.724-13.73-31.214-9.78-12.482-27.05-23.099-29.34-24.869-2.29-1.762.42-2.073.42-2.073z" fill="#14AFEB"/><path d="M1339.78 242.032l-6.92-7.544s-8.98-12.831-12.56-16.192c-1.57-1.488-8.04-5.842-15.93-10.632l16.93-9.336 6.43.896s8.56 5.234 10.56 6.715c1.99 1.473 13.67 14.319 14.75 16.629 1.07 2.317 2.02 14.141-.46 19.694-2.49 5.552-10.15 8.677-10.15 8.677l-.91-.415-1.74-8.492zM1221.75 202.267c.76.251 21.91 0 22.42 0 .16 0 2.94.54 6.67 1.273 1.74 7.011 11.62 22.507 14.9 27.542-.21.089-.42.177-.63.281-4.01 2.029-10.76 7.411-13.78 9.884 1.22-.844 1.68 1.488 1.85 5.249l-6.56.933-19.22-12.127s-2.55-12.601-5.77-19.805c-1.79-4.005-4.82-8.514-8.29-12.949 0 0 7.65-.541 8.41-.281z" fill="#0082C8"/><path d="M1303.45 207.109c8.31 5.005 15.21 9.639 16.85 11.187 3.58 3.361 12.56 16.192 12.56 16.192l6.92 7.544 1.83 8.907-19.79 11.179-3.1-.984.5.155a94.363 94.363 0 0 0-2.93-5.419l18.97-9.781-9.05-7.403-15.34 8.78c-6.86-9.661-14.95-17.835-21.33-21.5-2.13-1.222-5.34-3.228-9.05-5.597l22.96-13.26z" fill="#14AFEB"/><path d="M1265.75 231.082c-3.74-5.73-16.02-25.01-15.12-29.911.03-.155.07-.311.1-.474 6.73 4.539 30.7 20.627 38.81 25.276 9.29 5.339 22.17 20.22 29.68 35.323l-.5-.155-10.65-11.639s-17.65-11.979-24.44-15.466c-6.5-3.346-12.72-5.183-17.88-2.954zM1325.01 230.934c.08-.052.15-.089.19-.118 1.04-.667 2.56 1.421 5.21 4.812s4.85 10.469 4.85 10.469-6.17-4.842-8.64-6.945c-1.58-1.347-1.72-5.449-1.61-8.218z" fill="#0082C8"/><path d="M1325.01 230.934c-.1 2.503 0 6.101 1.2 7.759 0 0-9.56 5.523-15.34 8.781a118.933 118.933 0 0 0-4.68-6.145c1.26-.689 16.74-9.173 18.82-10.395z" fill="#0082C8"/><path d="M1244.08 224.811l17.46 8.707c-3.69 2.48-7.96 5.893-10.2 7.722 1.22-.844 1.68 1.488 1.84 5.249l-6.55.933-19.23-12.127s-.94-4.635-2.39-9.892l19.07-.592z" fill="#151F22"/><path d="M1227.4 235.302l20.5 12.934-4.25 14.563-23.19-11.505-23.86-5.198 12.41-2.643 18.39-8.151z" fill="#43474C"/><path d="M1220.46 251.294l23.19 11.505v2.888l-23.19-11.505-23.86-5.198v-2.887l23.86 5.197z" fill="#151F22"/><path d="M1350.99 221.731s.82 4.62 1.03 8.499c.22 3.88-6.37 14.578-6.37 14.578l1.94 7.967s6.54-8.507 8.05-14.993c1.51-6.485-4.65-16.051-4.65-16.051zM1317.27 261.252l-23.83-2.443-3.9-.704s4.76 14.415 9.86 15.067c5.09.651 21.35-2.006 22.27-3.139.92-1.14-2.76-8.381-2.76-8.381l-1.64-.4z" fill="#43474C"/><path d="M1304.54 257.535c5.44.437 10.12 1.267 11.91 2.851 1.79 1.584 3.24 4.612 1.34 5.508-1.89.896-15.92 3.28-18.3 1.799-2.39-1.48-5.8-7.144-7.17-8.203-1.37-1.059-2.19-1.866 1.72-1.962 3.92-.081 8.17-.178 10.5.007zM1343.86 239.122s4.39-11.09 4.86-13.156c.47-2.066 1.05-4.124 2.77-1.681 1.72 2.436 3.34 9.114 1.29 14.215-2.05 5.109-5.35 8.885-6.25 9.551-.9.667-2.67-8.929-2.67-8.929z" fill="#fff"/><path d="M1340.46 248.925l1.46 2.576-17.05 10.106-1.08-2.932 16.67-9.75z" fill="#43474C"/><path d="M1330.41 228.935l2.96 7.707 6.61 9.618.48 2.665 1.46 2.576v-3.331l-4.77-13.682-6.74-5.553z" fill="#151F22"/><path d="M1296.33 265.99c.33.696.62 1.392.87 2.073 1.26 3.613 4.88 3.332 4.88 3.332 8.53-.03 14.46-1.562 17.35-2.436 1.18-.355 1.73-1.525 1.15-2.932l-1.67-4.39-7.02-12.142-6.87-5.583 4.88-2.961 6.76 5.716 7.13 12.016 1.08 2.932 17.05-10.114v-3.324l-4.77-13.689-6.74-5.553 4.89-2.962 6.62 5.679 4.89 13.556 1.02 6.345c1.58-1.903 5.95-9.336 7.12-13.66 1.08-3.976-.22-8.381-2.71-13.141l2.95-5.346c3.18 4.968 3.38 8.026 3.38 8.026.23 10.817-11.35 30.977-11.35 30.977l-24.72 14.267s-22.56 8.744-34.84 1.547c-1.24-.725-2.45-2.695-3.63-4.686l12.3-3.547z" fill="#2C2D30"/><path d="M1311.89 249.495l4.77-2.836-6.76-5.708-4.88 2.962 6.87 5.582zM1337.15 234.487l4.77-2.835-6.62-5.679-4.89 2.962 6.74 5.552zM1355.19 219.407l-2.95 5.345a60.565 60.565 0 0 0-1.74-3.08c-3.58-5.96-7.95-11.194-13.32-15.599-5.38-4.406-9.44-6.849-9.44-6.849l3.67.889 20.11 14.422a43.96 43.96 0 0 1 3.67 4.872zM1247.24 246.134c3.59-7.448 11.93-8.663 18.26-4.931 4.42 2.606 19.58 12.912 23.71 16.155 3.35 2.628 5.68 5.656 7.12 8.632l-12.3 3.547c-.79-1.34-1.57-2.695-2.35-3.673-1.92-2.435-8.71-8.492-17.75-15.222-9.05-6.729-13.68-1.806-16.08 3.591-2.63 5.894-3.3 21.064-3.3 21.064l-2.11-1.414c.71-19.435 1.5-20.886 4.8-27.749z" fill="#43474C"/><path d="M1305.02 243.913l3.48 7.907 8.77 9.432 1.64.392-7.02-12.149-6.87-5.582z" fill="#151F22"/><path d="M1196.6 246.096s-4.13-24.809-11.93-33.649-28.51-23.514-28.51-23.514l-8.11 4.368-.52-1.562 7.18-6.553s6.04-13.423 26.32-14.355l12.38 10.609-27.05 3.85s-2.7.311-.41 2.08c2.28 1.77 19.56 12.379 29.34 24.869 9.78 12.483 13.73 31.214 13.73 31.214l-12.42 2.643z" fill="#43474C"/><path d="M1217.74 208.627c-7.23-10.921-19.47-23.011-24.33-27.179 0 0-1.69-1.451-1.98-2.703-.29-1.251.37-8.173 6.96-12.653 5.32-3.62 16.45-9.491 25.41-6.011 8.96 3.479 23.3 15.918 27.54 21.367 4.24 5.441 16.01 9.536 16.01 9.536-9.65-.408-15.86 5.478-16.72 10.187-.4 2.206 1.86 7.33 4.82 12.816-13.75-3.68-30.67-4.968-37.71-5.36z" fill="#252E30"/><path d="M1193.41 181.448s-1.7-1.451-1.99-2.703c-.09-.436-.08-1.562.26-3.028 1.96 4.405 4.02 7.352 12.71 11.994 9.83 5.249 32.37 8.329 41.44 9.914 2.35.407 4.14.91 5.52 1.429-.35.718-.6 1.429-.72 2.117-.4 2.206 1.86 7.33 4.82 12.816-13.74-3.672-30.66-4.961-37.71-5.36-7.23-10.928-19.47-23.011-24.33-27.179z" fill="#151F22"/><path d="M1270.5 191.331c.1-3.694-.3-16.088-9.17-27.178-10.58-13.216-23.12-20.346-23.12-20.346s-2.51-.659-4.23 2.643c-1.37 2.636-4.73 11.965-6.04 15.652l-17.74-8.189s3.48-7.848 11.12-13.119c3.27-2.258 13.95-3.998 13.95-3.998s22.47 15.873 30.05 27.194c6.56 9.817 7.58 24.247 7.73 27.919a30.48 30.48 0 0 0-2.55-.578z" fill="url(#paint2_linear)"/><path d="M1295.38 202.022s3.39 3.014 6.08 6.597c2.7 3.583 9.82 10.758 2.96 14.859-6.86 4.102-13.72 0-18.19-2.443-4.47-2.443-17.77-10.861-21.25-15.066-3.48-4.213-5.56-8.626.36-11.328 5.93-2.702 15.91-2.081 30.04 7.381z" fill="#344145"/><path d="M1304.42 223.478c-6.86 4.102-13.72 0-18.19-2.443-4.47-2.443-17.77-10.861-21.25-15.066-2.88-3.48-4.79-7.1-2.03-9.773 1.24 7.322 13.04 14.037 18.6 14.918 5.56.881 9.78-2.125 13.88-4.464 1.37-.785 2.06-1.555 2.38-2.251 1.12 1.155 2.45 2.636 3.65 4.228 2.7 3.576 9.83 10.75 2.96 14.851z" fill="url(#paint3_linear)"/><path d="M1293.38 188.163v-5.709l-.25-2.672-4.88.326.69 4.094.38 4.657 4.06-.696z" fill="#414E52"/><path d="M1296.77 175.48l3.39-6.471s0-1.429-1.43-1.777c-1.43-.348-2.12.511-2.6 1.207-.47.696-3.36 5.805-3.36 5.805l4 1.236z" fill="url(#paint4_linear)"/><path d="M1272.58 200.941s-2.85-.029-4.82-.858c-1.97-.822-7.57-2.347-8.71-1.933-1.14.415.58 2.14.74 2.295.16.156 3.91 2.555 3.91 2.555s4.13.096 6.65 1.11c2.52 1.014 4.33 1.014 4.33 1.014l-2.1-4.183z" fill="#414E52"/><path d="M1293.96 186.919s6.05 15.814-.95 19.894c-6.99 4.079-19.3-1.459-19.3-1.459l-3.36-5.753c0-.007 5.47-9.039 23.61-12.682z" fill="#151F22"/><path d="M1301.46 179.271l-4.08-2.258v-1.97s-4.08-2.332-5.39-1.162c-1.31 1.162-4 5.39-4.08 6.197-.07.8-.17 2.828 1.03 4.131 0 0-.32-3.487.67-3.835.98-.348 3.61-.511 3.76 2.429l4.39 1.636 3.71-2.629v-2.539h-.01z" fill="#3B4548"/><path d="M1297.75 184.424l-4.39-1.637c-.14-2.931-2.77-2.776-3.76-2.428-.98.348-.66 3.835-.66 3.835-1.21-1.303-1.11-3.324-1.03-4.131 0-.052.02-.126.05-.215.69-.511 1.72-1.021 2.91-.866 2.15.274 2.85 1.347 2.85 1.347l3.9 1.489 3.83-2.555v2.518l-3.7 2.643z" fill="#151F22"/><path d="M1300.64 179.774c.37 0 .7-.266.78-.644.08-.4.35-1.066.68-1.244.82-.444 8.48-4.834 8.8-5.019a.788.788 0 0 0 .29-1.081.785.785 0 0 0-1.08-.289c-.08.044-7.96 4.568-8.77 4.997-1.12.608-1.44 2.17-1.48 2.347-.08.43.2.844.63.926.05.007.11.007.15.007z" fill="#414E52"/><path d="M1259.71 196.721s.86.444 1.27 1.266c.41.822.79 1.266.92 1.429.12.156 2.53 2.725 2.53 2.725v2.539l-3.81 1.681s-3.74-2.377-4.79-2.184c-1.04.192-3.42.511-3.42.511s-1.69.503-1.78-1.17c0 0 1.14-.541 1.04-1.71a2.156 2.156 0 0 0-1.04-1.681v-.985l9.08-2.421z" fill="#3B4548"/><path d="M1260.63 206.361s-3.74-2.377-4.79-2.184c-1.04.192-3.43.51-3.43.51s-1.68.504-1.77-1.169c0 0 1.14-.541 1.04-1.711-.1-1.177-1.04-1.68-1.04-1.68v-.985c1.93.6 1.9 3.517 1.9 3.517s3.26-.289 5-.126c1.72.155 2.48 1.488 2.48 1.488l4.41-1.873v2.539l-3.8 1.674z" fill="#151F22"/><path d="M1239.1 202.208l11.54-2.096s.95.511 1.05 1.681c.09 1.17-1.05 1.71-1.05 1.71s-7.93 1.614-9.54 1.873c-1.61.252-2-.251-2.38-1.081-.37-.821.38-2.087.38-2.087z" fill="url(#paint5_linear)"/><path d="M1245.92 211.114c.14 0 .27-.037.41-.111 1.3-.777 7.84-4.686 8.55-5.271.32-.267 2.09-.77 3.54-1.066.43-.089.7-.504.61-.933a.79.79 0 0 0-.93-.615c-.79.163-3.44.748-4.22 1.4-.47.392-5.38 3.353-8.35 5.13a.788.788 0 0 0-.28 1.081c.14.245.4.385.67.385z" fill="#414E52"/><path d="M1274.66 243.12c.07.052.13.104.21.141l18.99 10.069c.16.089.35.133.53.133.04 0 .08 0 .11-.007l17.65-1.725c.17-.015.32-.067.47-.156l4.37-2.561 31.58-18.532c.26-.148.45-.4.53-.681l3.16-11.409c.12-.429-.02-.881-.36-1.177-.4-.348-9.95-8.596-13.4-11.091-1.6-1.148-3.65-1.732-6.14-1.732-1.97 0-3.48.377-3.55.399a.895.895 0 0 0-.32.141l-13.04 8.152c-.28.17-.46.444-.52.762l-1.44 7.633-11.77 6.878-12.37.563a1.05 1.05 0 0 0-.5.141c-.03.022-1.73.947-3.91 2.162h-.01c-2.66 1.48-6.04 3.376-8.01 4.575-2.18 1.318-3.34 2.784-3.47 4.353-.14 1.762 1.08 2.858 1.21 2.969zm42.45-28.356l2.68-1.68 10.28 9.025-28.85 16.873-13.28-6.79c.82-.459 1.46-.807 1.79-.984l12.39-.563c.19-.007.36-.059.53-.155l12.46-7.286c.29-.17.49-.451.55-.777l1.45-7.663zm-.74 31.962l-12.72-6.508 28.24-16.518 9.51 8.344-25.03 14.682zm27.95-32.954l-12.16 7.115-10.34-9.069 7.73-4.828c.4-.089 1.5-.288 2.82-.288 1.37 0 3.31.222 4.79 1.295 1.56 1.118 4.47 3.51 7.16 5.775zm2.7 14.97l-3.54 2.081-9.5-8.344 12.21-7.137c1.6 1.355 2.95 2.517 3.68 3.139l-2.85 10.261zm-57.46 19.716l11.73-6.863 12.72 6.508-2.34 1.37-17.05 1.665-5.06-2.68zm-13.82-8.129c.08-.77.92-1.673 2.37-2.562 1.81-1.103 4.86-2.82 7.4-4.234l13.35 6.826-11.68 6.833-11.08-5.878c-.13-.141-.4-.511-.36-.985zM1148.67 176.191c-.03 1.688 1.19 2.584 1.34 2.68.98.689 24.18 16.962 27.88 19.006 1.62.895 3.6 1.347 5.87 1.347 1.96 0 3.43-.348 3.49-.363a.92.92 0 0 0 .29-.111c.05-.022 4.22-2.354 8.44-4.657 1.77-.962 2.82-2.176 3.1-3.598.37-1.829-.68-3.22-.8-3.369-.04-.044-.07-.081-.11-.118l-13.97-13.238 32.94-19.782c3.21 1.591 18.51 9.18 21.18 10.246 1 .4 2.14.6 3.42.6 2.08 0 3.8-.548 3.88-.578.06-.014.11-.044.17-.066.22-.111 5.44-2.777 9.33-5.309 1.65-1.073 2.05-2.347 2.11-3.235.14-2.502-2.31-4.598-2.59-4.835-.02-.022-.05-.037-.07-.059-.99-.681-24.18-16.762-28.26-19.094-1.25-.711-2.52-1.074-3.79-1.074-2.32 0-3.91 1.237-4.36 1.629-3.61 2.11-59.21 34.627-65.22 38.529-2.8 1.836-4.24 3.665-4.27 5.449zm86.72-35.811l-18.33 10.979-14.33-7.433c9.43-5.531 16.5-9.662 16.7-9.78.09-.052.16-.111.24-.178.03-.037 1.13-1.074 2.86-1.074.86 0 1.76.26 2.65.77 1.46.83 5.57 3.569 10.21 6.716zm-5.31 17.413c-3.98-1.94-8.22-4.035-10.59-5.205l17.99-10.78c3.12 2.133 6.34 4.339 9.05 6.205l-16.26 9.639a.643.643 0 0 0-.19.141zm2.44 1.185l16.1-9.536c2.52 1.74 4.29 2.969 4.59 3.176.51.429 1.79 1.784 1.72 2.91-.01.192-.04.777-1.07 1.436-3.51 2.288-8.32 4.775-9.03 5.138-.32.096-1.61.437-3.09.437-.98 0-1.84-.148-2.56-.437-.92-.37-3.54-1.614-6.66-3.124zm-50 13.126l-9.99-10.417c8.73-5.167 19.09-11.253 27.86-16.391l14.37 7.455-32.24 19.353zm7.07 9.921l-16.41 10.069c-2.72-1.828-6-4.087-9.19-6.285l18.18-10.817 7.42 7.033zm-14.32 11.476l16.03-9.839 5.22 4.938c.1.163.46.77.31 1.458-.19.896-1.16 1.592-1.94 2.014a948.698 948.698 0 0 0-8.31 4.583c-.38.074-1.47.267-2.82.267-1.89 0-3.49-.356-4.76-1.067-.66-.348-1.99-1.199-3.73-2.354zm-24.3-17.302c.01-.437.37-1.659 3.23-3.525 1.78-1.162 8.16-4.975 16.29-9.787l10.01 10.424-18.58 11.061c-5.64-3.909-10.49-7.307-10.6-7.381a.961.961 0 0 1-.35-.792z" fill="#BBD2E0"/><path d="M1224.2 230.194s.15 2.095 1.03 2.132c.9.037 2.2-2.169 3.65-2.132 1.44.037 2.39-.133 2.81 3.198.42 3.332 2.51 6.812 4.19 8.922 1.67 2.11 4.41 4.901 4.84 7.255.44 2.355.76 4.331-2.29 4.65-3.05.318-6.35.659-8.93-1.436-2.59-2.096-7.01-8.841-7.84-10.455-.83-1.614-1.59-3.953-.78-6.13.81-2.184 2.6-3.502 3.32-6.004z" fill="#DFE6EA"/><path d="M1224.2 230.194s.15 2.095 1.03 2.132c.9.037 2.2-2.169 3.65-2.132 1.44.037 2.39-.133 2.81 3.198.42 3.332 2.51 6.812 4.19 8.922 1.67 2.11 4.41 4.901 4.84 7.255.44 2.355.76 4.331-2.29 4.65-3.05.318-6.35.659-8.93-1.436-2.59-2.096-7.01-8.841-7.84-10.455-.83-1.614-1.59-3.953-.78-6.13.81-2.184 2.6-3.502 3.32-6.004z" fill="#231F20"/><path d="M1220.89 236.191c.1-.289.23-.563.37-.822-.08 1.081-.09 2.769.12 3.584.33 1.221 2 2.591 2.52 4.338.53 1.747 3.64 8.722 7.76 9.536 3.56.703 6.83.644 9.33-.859-.06 1.192-.65 2.044-2.57 2.244-3.05.318-6.35.658-8.93-1.437s-7.01-8.84-7.84-10.454c-.81-1.614-1.58-3.953-.76-6.13z" fill="#4C575E"/><path d="M1226.22 235.354c2.16-2.221 5.01-1.392 5.04-1.384l.14-.445c-.12-.037-3.15-.932-5.51 1.503l.33.326zM1226.75 236.975c2.16-2.221 5.02-1.392 5.04-1.384l.14-.452c-.12-.037-3.14-.933-5.51 1.503l.33.333z" fill="#2E383B"/><path d="M1230.56 166.344s7.58-2.014 9.03-7.996l2.18 6.064s20.07 8.359 29.54 14.57c6.99 4.591 4.1 13.053 4.85 13.949 0 0-6.67-1.696-8.95-1.947-3.37-.378-3.03-.918-5.6-.889-5.46-1.392-17.67-1.407-20.32-2.562-3.71-1.614-13.58-18.272-13.58-18.272l2.85-2.917z" fill="#132D3D"/><path d="M1233.84 235.362s-.26 2.169-4.38 2.169c-5.14 0-8.97-3.162-8.97-3.162s5.7-18.205 6.33-21.929c.63-3.724 7.96-10.847 7.96-10.847s-14.76-10.446-17.5-12.771c-2.74-2.317-6.96-8.359-7.45-11.809-.48-3.443-.35-13.208 2.11-16.725 0 0 7.24 9.062 18.62 6.042l2.4 9.343s18.76 11.942 18.97 21.078c.21 9.159-17.15 32.184-18.09 38.611z" fill="#294F6D"/><path d="M1244 121.211s-13.22-.829-21.25 8.618c-8.03 9.447-7.21 16.91-8.03 20.686-.83 3.776-2.17 4.998-3.17 7.833-1.72 4.879-1.94 9.973-1.94 9.973s10.19 3.213 18.45 2.91c8.26-.304 13.71-6.819 13.71-6.819l-.38-6.064s-.2-4.523 1.26-5.471c1.46-.948 9.26-5.923 9.85-14.896.59-8.974-5.67-15.467-8.5-16.77z" fill="#BA001F"/><path d="M1248.76 206.865c1.27-.045 3.6-.778 4.7-1.281 1.09-.503 1.34-2.058 1.26-3.198-.09-1.141-1.46-3.347-1.46-3.347s-1.03-2.169-1.45-2.591c-.42-.422-6.73-3.406-8.03-3.783 0 0-4.12 2.102-4.38 3.072-.25.97 1.73 6.649 4.84 7.278 0 0 .4.4.69.696.3.296.29.844.46 1.155.59 1.051.81 2.088 3.37 1.999z" fill="#DDBEA4"/><path d="M1227.66 134.819c2.54.896 6.15 4.331 4.25 9.877-1.89 5.553-1.89 10.076-1.89 14.8 0 4.723 1.41 10.232 1.41 10.232l16.07 24.513s-1.73.97-3.81 2.473c-.61.444-4.14 2.051-4.14 2.051s-16.49-19.079-18.49-24.869c-2.01-5.79-4.49-24.558-4.01-29.171.45-4.59 3.22-12.527 10.61-9.906z" fill="#C42F2F"/><path d="M1296.55 175.555c-.53-.726-2.38-.844-2.38-.844l-2.88.096-3.41-2.466c-.17-2.339 2.94-4.553 2.94-4.553s4.25.652 5.43.437c1.18-.215 2.34 0 4.24.8 1.91.799 1.31 3.316 1.31 3.316-.62 2.88-2.91 4.08-4.34 4.561-.35-.533-.71-1.059-.91-1.347z" fill="#DDBEA4"/><path d="M1249.84 129s8.12-.799 12.79 4.694c4.67 5.494 11.93 12.549 15.1 15.237 6.73 5.701 13.7 18.228 13.7 18.228s-2.58 3.257-3.19 5.545c0 0-5.57-3.05-6.98-4.027-2.2-1.526-12.85-14.919-12.85-14.919s-15.88-10.698-19.54-13.082c-3.66-2.392.97-11.676.97-11.676z" fill="#BA001F"/><path d="M1256.79 127.993s.03-.681-.55-1.34c-1.6-1.829-8.07-5.434-8.07-5.434l-6.59 8.566 6.09 6.175 6.35-2.148 2.77-5.819z" fill="#000"/><path d="M1247.37 110.713l-7.97-1.4-2.71 14.356c-.07 1-.27 1.888-.25 2.754.01.948.27 1.874 1.24 2.917 0 0 1.34 1.229 2.95 2.518.65.525 2.66 2.31 4.43 2.014.65-.104 2-.556 2-.556 1.23-.466 1.87-.881 2.61-2.199.94-1.703 4.93-15.681 4.93-15.681l1.23-4.657-8.46-.066z" fill="#D6BBA1"/><path d="M1254.94 108.529c1.29 1.599 1.17 3.494.58 4.849-.53 1.207-.83 2.081-.93 2.059 0 0-.77-3.029-3.04-1.629-2.18 1.347-3.31 2.465-3.48 2.376 0 0 .23-2.502.36-2.591.12-.089-2.26 2.199-2.26 2.199-.13.059-.45-1.207-.7-1.192-2.62.141-3.54 3.124-3.69 4.39l-.23 1.259c-.12.651-.12 1.377-.77 1.229-.51-.119-.66-.526-.96-1.207 0 0-.96-2.717-2.72-2.302-1.53.362-.92 4.294-.86 4.486l-1.2 1.844c-.61.066 0 0-.54-1.237-1.34-3.08-1.59-4.975-1.8-5.96-1.12-5.034.81-9.476 4.24-11.905 1.07-.755 5.32-2.376 5.43-2.969.01-.074.69.607 1.68.763 3.19.496 2.04-1.155 2.04-1.155.84 0 2.61 2.021 2.73 2.169.99 1.118 1.31-.34 1.31-.34.97.71 4.81 4.864 4.81 4.864z" fill="#633A11"/><path opacity=".49" d="M1226.97 119.249s-2.2-12.89 8.13-18.309c9.14-4.783 16.54.555 18.78 2.48 2.63 2.258 6.16 8.418 5.12 14.423-1.13 6.581-3.46 14.911-3.46 14.911s-.22 3.05-5.41 4.286c-2.68.644-5.59.4-9.32-1.873-4.54-2.776-10.67-8.847-10.67-8.847s-2.94-2.629-3.17-7.071z" fill="#2E3C3F"/><path d="M1255.42 130.117c-1.03 1.207-3.71 1.896-5.61 2.058-2.06.186-3.41.067-5.27-1.147-.82-.541-3.08-2.095-4.94-3.954-1.74-1.732-1.48-3.213-1.48-3.213s-.17-1.399.14-4.301c.54-4.924 3.65-2.755 3.65-2.755s2.4 1.77 4.38 3.006c2.1 1.311 3.46 1.548 6.89 1.488 3.78-.066 5.2-1.673 5.73-2.991.03-.155.06-.311.08-.459 1.04-6.011-2.48-12.164-5.12-14.422-2.24-1.925-9.65-7.263-18.77-2.48-10.34 5.419-8.13 18.309-8.13 18.309.23 4.442 3.17 7.063 3.17 7.063s6.13 6.071 10.67 8.848c3.73 2.28 6.64 2.517 9.32 1.873 5.19-1.237 5.41-4.287 5.41-4.287s.55-1.969 1.25-4.753c-.51.918-1.07 1.777-1.37 2.117z" fill="#104257"/></g><defs><filter id="filter0_d" x="-4" y="-2" width="1608" height="408" filterUnits="userSpaceOnUse" color-interpolation-filters="sRGB"><feFlood flood-opacity="0" result="BackgroundImageFix"/><feColorMatrix in="SourceAlpha" values="0 0 0 0 0 0 0 0 0 0 0 0 0 0 0 0 0 0 127 0"/><feOffset dy="2"/><feGaussianBlur stdDeviation="2"/><feColorMatrix values="0 0 0 0 0 0 0 0 0 0 0 0 0 0 0 0 0 0 0.08 0"/><feBlend in2="BackgroundImageFix" result="effect1_dropShadow"/><feBlend in="SourceGraphic" in2="effect1_dropShadow" result="shape"/></filter><linearGradient id="paint0_linear" x1="1329.82" y1="265.05" x2="1333.2" y2="244.886" gradientUnits="userSpaceOnUse"><stop stop-color="#AAACAE"/><stop offset="1" stop-color="#606365"/></linearGradient><linearGradient id="paint1_linear" x1="1333.13" y1="248.863" x2="1332.68" y2="254.436" gradientUnits="userSpaceOnUse"><stop stop-color="#B7B9BB"/><stop offset="1" stop-color="#6D7072"/></linearGradient><linearGradient id="paint2_linear" x1="1232.63" y1="152.559" x2="1266.52" y2="194.021" gradientUnits="userSpaceOnUse"><stop stop-color="#485255"/><stop offset="1"/></linearGradient><linearGradient id="paint3_linear" x1="1289.54" y1="209.088" x2="1278.28" y2="211.268" gradientUnits="userSpaceOnUse"><stop stop-color="#283539"/><stop offset="1" stop-color="#151F22"/></linearGradient><linearGradient id="paint4_linear" x1="1294.8" y1="170.207" x2="1298.37" y2="172.067" gradientUnits="userSpaceOnUse"><stop stop-color="#414E52"/><stop offset="1" stop-color="#2E383B"/></linearGradient><linearGradient id="paint5_linear" x1="1244.88" y1="201.366" x2="1245.47" y2="204.484" gradientUnits="userSpaceOnUse"><stop stop-color="#414E52"/><stop offset="1" stop-color="#2E383B"/></linearGradient><clipPath id="clip0"><path fill="#fff" transform="translate(1138.3 99)" d="M0 0h235.4v223.369H0z"/></clipPath></defs></svg>