<svg width="375" height="156" fill="none" xmlns="http://www.w3.org/2000/svg" viewBox="0 0 375 156"><path d="M375 0H0v156h375V0z" fill="#F5FCFF"/><path d="M187.5 146.244c61.027 0 110.5-18.496 110.5-41.313 0-22.816-49.473-41.312-110.5-41.312S77 82.115 77 104.93c0 22.817 49.473 41.313 110.5 41.313z" fill="#004EBB"/><g clip-path="url(#clip0)"><path d="M179.636 139.002l9.641-.77-4.509-5.165v1.545l-1.299.752v1.55l-3.833 2.088z" fill="#0032A5"/><path d="M179.636 139.002l9.641-.77-4.509-5.165v1.545l-1.299.752v1.55l-3.833 2.088z" fill="#0032A5"/><path d="M189.277 138.232l49.378-3.96L293 102.114 179.528 36.602l-62.62 60.607 72.369 41.023z" fill="#0032A5"/><path d="M254.004 55.382l.217-12.188L189.74 6.457l-.331 11.417 64.595 37.508z" fill="#D1CAB3"/><path d="M254.004 55.382l4.768-2.353.355-12.358-4.905 2.524-.218 12.187z" fill="#D3AE97"/><path d="M189.74 6.457L194.017 4l65.11 36.671-4.905 2.523L189.74 6.457z" fill="#F2F2F2"/><path d="M120.882 102.921l-5.633-3.331-.004-36.043 5.637 4.736v34.638z" fill="#D6B98F"/><path d="M124.502 100.833l-3.62 2.089V60.897l3.625 3.317-.005 36.619z" fill="#C3A581"/><path d="M254.037 90.144l-.009 10.694-60.867 35.145-1.569.912-2.315 1.337v-10.755l-64.779-37.333.009-42.73 64.765 35.155 64.756-35.15.009 42.725z" fill="#C7A199"/><path d="M124.507 47.414l64.76-37.398 64.765 37.403-64.76 35.15-64.765-35.155z" fill="#E8E6DC"/><path d="M189.277 127.477v10.755l-64.779-37.394V90.144l.009-42.73 64.765 35.155.005 44.908z" fill="#D6B98F"/><path d="M127.678 63.227l-.038 30.107 39.086 22.569.005-30.088-39.053-22.588z" fill="#CDDFF8"/><path d="M165.025 86.108v8.63l-.005 19.119-16.563-9.432-7.75-4.409-.733-.425-1.663-.94-9.844-5.61.005-4.419V86.71l.005-1.579.004-6.138.015-13.72 11.861 6.768 5.316 3.034 1.371.775 1.654.945 13.662 7.797 1.649.94.747.421.269.156z" fill="#82BEF2"/><path d="M165.025 86.108v8.63l-16.568 9.687-7.75-4.409 24.048-14.064.27.156zM145.673 75.073L128.477 85.13l.004-6.139 11.876-6.951 5.316 3.033zM164.009 85.532L139.974 99.59l-1.663-.94 24.048-14.06 1.65.94zM148.697 76.794l-20.225 11.828v-1.914l18.571-10.86 1.654.946z" fill="#A0CCF2"/><path d="M241.925 65.75l.038 30.107-39.086 22.57-.004-30.088 39.052-22.589z" fill="#CDDFF8"/><path d="M204.574 88.632v8.629l.009 19.12 16.559-9.433 7.75-4.409.737-.425 1.659-.94 9.848-5.61-.005-4.418v-1.914l-.009-1.578-.005-6.14-.014-13.718-11.861 6.772-5.312 3.03-1.37.774-1.654.945-13.667 7.798-1.649.94-.747.42-.269.157z" fill="#82BEF2"/><path d="M204.574 88.632v8.629l16.568 9.687 7.75-4.409-24.049-14.063-.269.156zM223.93 77.597l17.192 10.056-.005-6.138-11.875-6.947-5.312 3.029zM205.59 88.055l24.039 14.059 1.659-.94-24.049-14.06-1.649.941zM220.906 79.317l20.226 11.829v-1.914l-18.572-10.86-1.654.945z" fill="#A0CCF2"/><path d="M247.345 45.926l-54.217 29.431-.042.02-3.814 2.074-1.772-.964-1.512-.818h-.01l-1.9-1.035-1.46-.794-1.904-1.03-1.517-.827-1.9-1.03-1.38-.751-1.909-1.035-1.507-.818-1.91-1.035-1.455-.798h-.01l-1.899-1.03h-.005l-1.503-.823h-.009l-1.905-1.03-1.375-.751-1.899-1.035h-.01l-1.507-.823-1.91-1.035-1.465-.793-1.899-1.03-1.517-.828-1.9-1.03-1.465-.794-1.904-1.035-1.517-.822-1.905-1.035-1.46-.794-1.909-1.03-1.517-.827-1.9-1.03-5.557-3.015 58.083-33.543 58.073 33.543z" fill="#D6CDB1"/><path d="M192.565 18.602l-53.919 31.37-1.9-1.03 54.184-31.294 1.635.954zM195.944 20.478l-53.877 31.35-1.9-1.03 54.142-31.27 1.635.95zM199.233 22.36l-53.796 31.297-1.905-1.035 54.057-31.217 1.644.954zM202.617 24.235l-53.759 31.28-1.904-1.035 54.019-31.2 1.644.955zM205.892 26.111L152.218 57.34l-1.89-1.026 53.933-31.151 1.631.95zM209.276 27.992l-53.637 31.204-1.899-1.03 53.901-31.128 1.635.954zM212.565 29.868l-53.551 31.156-1.91-1.035 53.816-31.075 1.645.954zM215.943 31.744L162.43 62.881l-1.9-1.035 53.769-31.056 1.644.954zM231.987 41.262l-52.79 30.721-1.9-1.03 53.05-30.641 1.64.95zM235.366 43.138l-52.748 30.703-1.904-1.03 53.017-30.618 1.635.945zM238.655 45.014l-52.667 30.655h-.01l-1.899-1.035 52.932-30.565 1.644.945zM242.034 46.895l-48.906 28.463-.042.019-3.814 2.074-1.772-.964 52.889-30.542 1.645.95zM219.143 33.568l-53.424 31.095h-.009l-1.905-1.03 53.702-31.01 1.636.945zM222.521 35.45l-53.385 31.066h-.01l-1.899-1.03 53.659-30.987 1.635.95zM225.815 37.325L172.5 68.349l-1.909-1.035 53.575-30.934 1.649.945zM229.194 39.202l-53.277 31-1.909-1.035 53.541-30.91 1.645.945z" fill="#D4C8AC"/><path d="M189.267 12.383l-.009 4.32 54.468 31.189 3.619-1.966-58.078-33.543z" fill="#B39688"/><path d="M189.267 12.383l-.009 4.32-52.186 29.823 4.31-6.488 47.885-27.655z" fill="#C4A796"/><path d="M189.258 82.569l-.133-11.91-64.618-34.51v11.265l64.751 35.154z" fill="#E8E6DC"/><path d="M189.257 82.569l4.641-2.453V67.919l-4.768 2.627.127 12.022z" fill="#D3AE97"/><path d="M124.507 36.148l4.144-2.542 65.247 34.313-4.768 2.627-64.623-34.398z" fill="#F2F2F2"/><path d="M253.281 105.412l5.633-3.331.005-54.19-5.756 2.987.118 54.534z" fill="#C7A199"/><path d="M249.666 103.324l3.615 2.088-.118-54.534-3.507-1.087.01 53.533z" fill="#9D7A76"/><path d="M249.656 49.791l3.507 1.087 5.756-2.986-3.961-.97-5.302 2.87z" fill="#C5A8A8"/><path d="M168.72 92.247l-.005 31.557 16.053 9.263v-31.558l-16.048-9.262z" fill="#CDDFF8"/><path d="M183.819 102.256v28.906l-4.173-2.405-.841-.487-1.39-.803-3.152-1.819-5.151-2.973v-11.601l.005-17.31 14.702 8.492z" fill="#82BEF2"/><path d="M183.819 102.473v3.667l-14.707 8.601v-3.667l14.707-8.601zM183.818 120.057v3.667l-6.403 3.743-3.152-1.819 9.555-5.591zM183.819 125.336v.983l-4.173 2.438-.841-.486 5.014-2.935zM183.819 108.083v1.724l-14.707 8.601v-1.725l14.707-8.6z" fill="#A0CCF2"/><path opacity=".35" d="M124.417 72.257v4.414l64.864 34.705.019-19.635-64.883-19.484z" fill="#614CA0"/><path d="M168.437 70.9l-9.324 15.038-6.885-3.69-4.079-2.203-6.913-3.71-5.094-2.731-6.588-3.54-4.461-2.396-6.503-3.492-5.59-3.005 9.858-14.645 5.6 2.986 5.996 3.214 4.981 2.66 6.087 3.256 5.595 2.996 6.413 3.431 4.603 2.453 6.304 3.379z" fill="#407BED"/><path d="M168.437 70.9l.283 9.273-9.607 5.765 9.324-15.037z" fill="#3774C3"/><path d="M116.908 63.226l5.879 3.162 9.187-14.985-5.213-2.822-9.853 14.645zM128.108 69.247l5.255 2.816 9.352-14.957-5.468-2.92-9.139 15.06zM138.679 74.922l5.255 2.821 9.31-15.003-5.284-2.826-9.281 15.008zM149.231 80.589l5.184 2.788 9.291-15.042-5.245-2.802-9.23 15.056z" fill="#CAE0F6"/><path d="M159.113 85.938l.156 5.17-4.65-2.529-5.231-2.845-5.303-2.878-5.25-2.85-5.307-2.882-5.269-2.868-5.321-2.888-5.879-3.19-3.908-2.126L113 61.17l3.913 2.099v.009l5.874 3.152 5.321 2.854 5.25 2.822 5.321 2.859 5.25 2.82 5.303 2.84v.01l5.184 2.779 4.697 2.523z" fill="#4991F6"/><path d="M159.269 91.108l9.612-5.62-.161-5.316-9.607 5.766.156 5.17z" fill="#2D70DB"/><path d="M122.787 66.388l.151 4.98-5.879-3.189-.151-4.952 5.879 3.161zM133.528 77.124l-5.269-2.868-.151-5.033.005.005 5.245 2.835v.043l.17 5.018zM143.929 77.744l.156 5.113-5.25-2.85-.156-5.085 5.25 2.822zM154.619 88.58l-5.232-2.846-.156-5.17.005.005 5.179 2.802v.053l.204 5.155z" fill="#fff"/><path d="M189.3 82.465l-9.328 15.046-4.693-2.518v-.005l-5.184-2.779v-.01h-.005l-5.297-2.844v-.047l9.3-14.976 4.3 2.306.912.482 3.691 1.975 1.555.832 4.749 2.538z" fill="#407BED"/><path d="M189.3 82.47v9.271l-9.323 5.77L189.3 82.47z" fill="#3774C3"/><path d="M170.09 92.157l5.189 2.788 9.291-15.042-5.25-2.802-9.23 15.056z" fill="#CAE0F6"/><path d="M180.128 102.677l-4.646-2.524-5.236-2.845-5.255-2.854-.047-.024-.151-5.075 5.297 2.845h.005v.01l5.184 2.778 4.693 2.523.156 5.166z" fill="#4991F6"/><path d="M180.133 102.681l9.167-5.576V91.74l-9.323 5.77.156 5.17z" fill="#2E6FED"/><path d="M175.478 100.148l-5.232-2.84-.156-5.174.01.004 5.174 2.803.005.052.199 5.155z" fill="#fff"/><path d="M167.416 126.102l-3.922 2.084 16.142 9.267 3.833-2.089-16.053-9.262z" fill="#D6B98F"/><path d="M163.494 128.186v1.578l16.142 9.239v-1.55l-16.142-9.267z" fill="#BC9F7C"/><path d="M179.637 137.453l3.832-2.089v1.55l-3.832 2.089v-1.55z" fill="#AE8F6F"/><path d="M168.715 123.805l-3.922 2.079 16.143 9.272 3.832-2.089-16.053-9.262z" fill="#D6B98F"/><path d="M164.793 125.884v1.583l16.143 9.234v-1.546l-16.143-9.271z" fill="#BC9F7C"/><path d="M180.936 135.156l3.833-2.089v1.546l-3.833 2.088v-1.545z" fill="#AE8F6F"/><path d="M168.715 123.805l-44.298-26.09-3.535 1.875 43.911 26.294 3.922-2.079z" fill="#E6E6E6"/><path d="M120.882 99.59v3.332l42.612 25.263 1.299-.718.18-1.678-44.091-26.199z" fill="#D5D0CD"/><path opacity=".16" d="M193.898 67.92l10.113 6.648-10.113 5.548V67.92z" fill="#766565"/><path opacity=".35" d="M196.138 97.19l.1 14.186 55.233-30.315.156-3.998-55.489 20.126z" fill="#614CA0"/><path d="M196.403 82.597l9.513 14.92 6.838-3.781 4.05-2.25 6.871-3.79 5.056-2.797 6.541-3.62 4.437-2.453 6.455-3.572 5.553-3.072-10.037-14.527-5.563 3.063-5.959 3.284-4.947 2.722-6.044 3.327-5.563 3.067-6.365 3.51-4.574 2.515-6.262 3.454z" fill="#407BED"/><path d="M196.403 82.593l-.165 9.276 9.678 5.647-9.513-14.923z" fill="#3774C3"/><path d="M247.837 74.285l-5.841 3.232-9.371-14.871 5.18-2.888 10.032 14.527zM236.713 80.442l-5.222 2.883-9.536-14.838 5.434-2.992 9.324 14.947zM226.208 86.25l-5.213 2.883-9.498-14.886 5.25-2.892 9.461 14.895zM215.731 92.044l-5.151 2.85-9.48-14.925 5.217-2.868 9.414 14.943z" fill="#CAE0F6"/><path d="M205.916 97.516l-.095 5.17 4.622-2.585 5.193-2.906 5.265-2.945 5.217-2.915 5.274-2.95 5.226-2.929 5.288-2.958 5.837-3.261 3.884-2.174.09-4.881-3.885 2.145v.005l-5.836 3.227-5.288 2.92-5.212 2.888-5.288 2.92-5.213 2.888-5.264 2.906v.01l-5.151 2.845-4.664 2.58z" fill="#4991F6"/><path d="M205.821 102.69l-9.683-5.5.1-5.321 9.678 5.647-.095 5.174z" fill="#2D70DB"/><path d="M241.996 77.517l-.09 4.98 5.836-3.26.09-4.952-5.836 3.232zM231.392 88.386l5.226-2.93.095-5.042-.01.01-5.207 2.901v.043l-.104 5.018zM220.995 89.133l-.094 5.118 5.217-2.916.09-5.09-5.213 2.888zM210.443 100.101l5.193-2.906.095-5.174-.01.004-5.141 2.869v.047l-.137 5.16z" fill="#fff"/><path d="M189.277 138.232l-4.508-5.165v1.545l-.941.515 5.449 3.105z" fill="#BBADAB"/></g><defs><clipPath id="clip0"><path fill="#fff" transform="translate(113 4)" d="M0 0h180v135.002H0z"/></clipPath></defs></svg>