<svg width="1600" height="400" fill="none" xmlns="http://www.w3.org/2000/svg" viewBox="0 0 1600 400"><g filter="url(#filter0_d)"><path fill="#F5FCFF" d="M1600 0H0v400h1600z"/></g><mask id="a" maskUnits="userSpaceOnUse" x="623" y="0" width="977" height="400"><path transform="matrix(-1 0 0 1 1600 0)" fill="#F5FCFF" d="M0 0h977v400H0z"/></mask><g mask="url(#a)"><path d="M1811.84 8.01l-221.16 12.087-412.3 43.203-76.81 45.616 349.28 203.445 293.2 27.611 67.79-331.961z" fill="#00AD00"/><path d="M1721.26 4.697S967.115 28.777 916.425 112.28C853.991 215.137 1472.9 491 1472.9 491l522.48-123.8s-828.17-206.809-790.9-269.085c38.95-65.08 809.99-83 809.99-83L1721.26 4.696z" fill="#fff"/><path d="M1531.55 450.392S919.755 205.655 975.078 112.279C1024.87 28.243 1779.91 7.401 1779.91 7.401l168.74 3.197s-771.51 22.153-809.99 87.508c-41.13 69.872 790.89 300.67 790.89 300.67l-398 51.616z" fill="#004EBB"/><path d="M1470.62 134.583h-5.63v110.662h5.63V134.583z" fill="#5F6464"/><path d="M1422.5 117.688l38.98-39.472a8.926 8.926 0 0 1 12.74 0l38.98 39.472c3.52 3.564 3.52 9.34 0 12.913l-38.98 39.463a8.925 8.925 0 0 1-12.74 0l-38.98-39.463c-3.52-3.573-3.52-9.349 0-12.913z" fill="#fff"/><path d="M1427.4 120.869l37.22-37.695a4.52 4.52 0 0 1 6.46 0l37.23 37.695c1.79 1.811 1.79 4.741 0 6.544l-37.23 37.694a4.52 4.52 0 0 1-6.46 0l-37.22-37.694c-1.79-1.812-1.79-4.741 0-6.544z" fill="#fff"/><path d="M1467.85 168.128c-1.66 0-3.22-.659-4.4-1.845l-37.22-37.694c-2.42-2.454-2.42-6.444 0-8.906l37.22-37.694a6.134 6.134 0 0 1 4.39-1.845c1.66 0 3.23.651 4.4 1.845l37.23 37.694a6.278 6.278 0 0 1 1.82 4.449 6.34 6.34 0 0 1-1.82 4.457l-37.23 37.694a6.131 6.131 0 0 1-4.39 1.845z" fill="#004EBB"/><path d="M1485.15 141.61c9.55-9.674 9.55-25.357 0-35.031a24.252 24.252 0 0 0-34.6 0c-9.56 9.674-9.56 25.357 0 35.031a24.253 24.253 0 0 0 34.6 0z" fill="#fff"/><path d="M1489.4 131.71c4.16-12.052-2.12-25.24-14.04-29.439-11.9-4.207-24.92 2.162-29.08 14.215-4.15 12.053 2.13 25.241 14.04 29.439 11.91 4.207 24.94-2.162 29.08-14.215z" fill="#fff"/><path d="M1445.52 128.881c.8 3.84 2.53 7.329 4.96 10.209 3.66-16.519 18.22-28.872 35.64-28.872-.35-.467-.71-.901-1.09-1.344a36.667 36.667 0 0 0-6.74-.643c-14.38.009-26.81 8.422-32.77 20.65z" fill="#0046B4"/><path d="M1457.6 144.757a22.513 22.513 0 0 0 10.25 2.462c12.61 0 22.83-10.35 22.83-23.121 0-4.374-1.2-8.464-3.28-11.944-15.85 2.896-28.15 16.151-29.8 32.603zM1473.72 105.602c3.21 0 6.32.426 9.28 1.21-4.03-3.622-9.34-5.834-15.16-5.834-10.88 0-19.98 7.712-22.27 18.029 6.72-8.188 16.83-13.405 28.15-13.405z" fill="#46B400"/></g><path fill-rule="evenodd" clip-rule="evenodd" d="M1395.98 303.323c-5.79 19.218-67.46 42.218-111.96 25.462l-175.84-87.931 62.4-31.204 225.4 93.673z" fill="#0032A5"/><path fill-rule="evenodd" clip-rule="evenodd" d="M1347.83 184.718c0-1.455.94-3.1 2.1-3.684l9.09-4.546c1.16-.584 2.1.126 2.1 1.581v5.256c0 1.456-.94 3.1-2.1 3.684l-9.09 4.546c-1.16.584-2.1-.126-2.1-1.581v-5.256z" fill="#545960"/><path fill-rule="evenodd" clip-rule="evenodd" d="M1360.29 176.389l-2.59-1.293c-.36-.18-.82-.171-1.32.081l-9.08 4.546c-1.16.584-2.1 2.228-2.1 3.683v5.256c0 .737.24 1.285.63 1.564.1.072.2.125.32.161l2.41 1.213c-.45-.26-.73-.826-.73-1.626v-5.256c0-1.455.94-3.1 2.1-3.684l9.09-4.546c.48-.233.92-.26 1.27-.099z" fill="#747A83"/><path fill-rule="evenodd" clip-rule="evenodd" d="M1273.35 298.579l46.31-31.563-56.31-8.49 10 40.053zM1135.37 227.161l46.31-31.563-56.32-8.49 10.01 40.053z" fill="#1E1915"/><path fill-rule="evenodd" clip-rule="evenodd" d="M1291.39 285.821c-5.45-2.803-9.87 1.356-9.87 9.281 0 7.924 4.43 16.639 9.87 19.442 5.45 2.803 9.87-1.356 9.87-9.281 0-7.924-4.42-16.639-9.87-19.442z" fill="#D1D6DD"/><path fill-rule="evenodd" clip-rule="evenodd" d="M1291.39 291.975c-3.12-1.599-5.65.773-5.65 5.31 0 4.529 2.53 9.515 5.65 11.114 3.12 1.599 5.65-.773 5.65-5.31-.01-4.528-2.53-9.514-5.65-11.114z" fill="#EBEEF4"/><path fill-rule="evenodd" clip-rule="evenodd" d="M1290.22 294.644c-2.32-1.195-4.21.575-4.21 3.953s1.89 7.089 4.21 8.284c2.33 1.195 4.22-.575 4.22-3.954 0-3.369-1.89-7.088-4.22-8.283z" fill="#545960"/><path fill-rule="evenodd" clip-rule="evenodd" d="M1291.39 278.642c8.18 4.205 14.82 17.278 14.82 29.164 0 11.896-6.64 18.131-14.82 13.926s-14.82-17.277-14.82-29.173c0-11.886 6.64-18.121 14.82-13.917zm0 7.179c5.45 2.803 9.87 11.518 9.87 19.442 0 7.925-4.43 12.085-9.87 9.281-5.45-2.803-9.87-11.518-9.87-19.442 0-7.924 4.42-12.084 9.87-9.281z" fill="#43474C"/><path fill-rule="evenodd" clip-rule="evenodd" d="M1299.85 322.226l10.7-5.345c3.84-1.923 6.36-7.098 6.36-14.412 0-11.895-6.64-24.959-14.82-29.172-3.14-1.617-6.06-1.689-8.46-.494l-10.7 5.354c2.4-1.204 5.32-1.123 8.46.494 8.18 4.205 14.82 17.278 14.82 29.164 0 7.314-2.52 12.489-6.36 14.411z" fill="#2C2D30"/><path fill-rule="evenodd" clip-rule="evenodd" d="M1153.61 216.936c-5.45-2.803-9.87 1.357-9.87 9.281 0 7.925 4.43 16.64 9.87 19.443 5.46 2.803 9.88-1.357 9.88-9.281.01-7.924-4.42-16.639-9.88-19.443z" fill="#D1D6DD"/><path fill-rule="evenodd" clip-rule="evenodd" d="M1153.61 223.091c-3.11-1.599-5.65.773-5.65 5.31 0 4.528 2.54 9.515 5.65 11.114 3.12 1.599 5.65-.773 5.65-5.31 0-4.528-2.53-9.515-5.65-11.114z" fill="#EBEEF4"/><path fill-rule="evenodd" clip-rule="evenodd" d="M1152.45 225.759c-2.32-1.195-4.21.575-4.21 3.954 0 3.378 1.89 7.088 4.21 8.283 2.33 1.195 4.22-.575 4.22-3.953-.01-3.378-1.9-7.089-4.22-8.284z" fill="#545960"/><path fill-rule="evenodd" clip-rule="evenodd" d="M1153.61 209.749c8.18 4.205 14.82 17.277 14.82 29.164 0 11.895-6.64 18.131-14.82 13.926-8.17-4.205-14.81-17.277-14.81-29.164 0-11.886 6.64-18.131 14.81-13.926zm0 7.188c5.46 2.803 9.88 11.518 9.88 19.442 0 7.925-4.43 12.084-9.88 9.281-5.45-2.803-9.87-11.518-9.87-19.442 0-7.925 4.42-12.084 9.87-9.281z" fill="#43474C"/><path fill-rule="evenodd" clip-rule="evenodd" d="M1162.08 253.333l10.7-5.346c3.83-1.923 6.35-7.098 6.35-14.411 0-11.896-6.64-24.959-14.82-29.164-3.14-1.617-6.06-1.689-8.46-.494l-10.7 5.346c2.4-1.204 5.32-1.123 8.46.494 8.18 4.205 14.82 17.277 14.82 29.164 0 7.322-2.51 12.497-6.35 14.411z" fill="#2C2D30"/><path fill-rule="evenodd" clip-rule="evenodd" d="M1217.34 150.388c22.88 13.908 50.74 49.783 67.54 87.68 16.64 12.174 22.41 17.394 36.91 33.36 6.1 6.72 8.03 16.046 8.34 22.641 0 0 .76 1.123 1.59 2.345 1.3 1.922 2.19 4.51 2.09 6.729-.34 6.837.01 17.592.01 17.592l-24.01-5.984v-8.625c0-14.609-8.17-30.556-18.23-35.588-10.06-5.031-18.23 2.75-18.23 17.358v10.674l-101.53-50.763v-10.673c0-14.609-8.17-30.557-18.23-35.588-10.07-5.031-18.23 2.749-18.23 17.358v8.248l-.1-.054-14.41-10.107c-2.05-1.699-4.13-18.446-1.57-18.14-1.47-31.195 3.09-61.284 11.72-80.888.89-2.021 2.13-3.872 4.12-4.834 2-.961 4.3-1.033 6.35-.206 24.68 10.197 54.14 24.249 75.87 37.465z" fill="#C9D0D8"/><path fill-rule="evenodd" clip-rule="evenodd" d="M1213.38 148.232c-1.43.934-2.02 2.821-2.56 4.519-1.84 5.795-2.4 11.932-2.99 18.041-1.65 17.143-1.9 34.348-1.77 51.544.1 14.259.53 28.481 1.64 42.776l.06.674c.55.296 1.12.557 1.12.557l-.04-.324c-2.05-25.938-2.34-52.73-1.07-79.091.42-8.786.99-17.6 2.38-26.234.57-3.495 1.08-7.125 2.72-10.189.27-.53.61-1.06 1.09-1.374 0 0 .42-.081.15-.737l-.34-.234c0-.009-.19-.018-.39.072z" fill="#B9C5CF"/><path fill-rule="evenodd" clip-rule="evenodd" d="M1210.2 154.979c.22-.134.46-.269.68-.404l.11.036c8.99 2.929 16.88 8.275 23.79 14.573 10.63 9.694 19.09 21.527 26.55 33.881.42.7.94 1.365 1.06 2.138.3 2.057.59 4.124.87 6.199 3.31 25.418 3.54 51.356-.93 76.18l-.76.386-54.18-27.088c-.05-.916-.1-1.824-.16-2.74-1.13-20.045-1.55-40.197-.95-60.25.43-14.421 1.11-28.877 3.92-42.911zm.99.818a.253.253 0 0 0-.07-.027c-1.9 9.802-2.69 19.82-3.26 29.811-1.39 24.761-.92 49.657.56 74.616l52.99 26.496.02-.099c.1-.62.21-1.249.32-1.869 4.39-26.307 3.48-53.422-.45-79.657-5.56-9.344-11.74-18.427-18.93-26.603-8.57-9.739-18.9-18.526-31.18-22.668zM1173.94 126.445c-.39.197-.37.251-.49.35-2.29 2.04-3.38 5.22-4.37 8.401-1.73 5.57-2.67 11.347-3.44 17.151-2.56 19.461-2.77 39.55-1.59 59.235.46.629.81 1.276 1.19 1.914 0 0-.1-1.716-.16-2.696-1.08-18.499-.88-37.115 1.25-55.452.87-7.403 1.91-14.905 4.42-21.797.84-2.291 1.77-4.689 3.66-6.172l.2-.359-.11-.396-.36-.197c-.06 0-.12.009-.2.018z" fill="#B9C5CF"/><path fill-rule="evenodd" clip-rule="evenodd" d="M1268.73 279.055c0-2.749-1.79-5.866-3.98-6.963l-84.94-42.469c-2.2-1.097-3.98.242-3.98 2.982 0 2.75 1.79 5.867 3.98 6.963l84.94 42.47c2.2 1.105 3.98-.233 3.98-2.983z" fill="#545960"/><path fill-rule="evenodd" clip-rule="evenodd" d="M1214.2 161.889c28.05 11.033 41.31 37.573 62.32 75.119l-65.25-32.245c.4-17.709 1.28-31.15 2.93-42.874z" fill="#242D3E"/><path fill-rule="evenodd" clip-rule="evenodd" d="M1258.78 205.787v22.452l17.74 8.769c-6.42-11.473-12.12-21.922-17.74-31.221z" fill="#1E1915"/><path fill-rule="evenodd" clip-rule="evenodd" d="M1137.35 207.889c-1.27 2.974-1.98 6.694-1.98 11.024v8.248l-.1-.054-14.41-10.108c-2.05-1.698-4.31-3.513-5.31-5.381-1.92-3.621-1.58-9.425-1.42-12.237.02-.503.3-.962.74-1.213 1.3-.737 2.61-1.456 4.3-2.192.07.979.01 1.608.11 2.893l18.07 9.02z" fill="#545960"/><path fill-rule="evenodd" clip-rule="evenodd" d="M1123.88 163.874c1.61.809 2.92 3.36 2.92 5.705l-.87 13.369c0 2.345-1.31 3.585-2.92 2.785l-3.97-1.985c.13-7.996.61-15.139 1.28-21.653l3.56 1.779z" fill="#A93C40"/><path fill-rule="evenodd" clip-rule="evenodd" d="M1195.69 205.347c1.69.844 3.05 3.522 3.05 5.965 0 2.453-1.36 3.756-3.05 2.911-1.69-.844-3.06-3.522-3.06-5.965 0-2.444 1.38-3.756 3.06-2.911zM1217.27 216.137c1.69.845 3.05 3.522 3.05 5.966 0 2.453-1.36 3.755-3.05 2.911-1.69-.845-3.06-3.522-3.06-5.966 0-2.444 1.37-3.755 3.06-2.911z" fill="#1E1915"/><path fill-rule="evenodd" clip-rule="evenodd" d="M1333.81 320.735c26.55 3.71 76.7-21.895 77.67-38.831.46-8.113 1.26-10.045 1.44-16.11.15-4.779 1.27-5.22-.03-7.151-.83-1.222-1.59-2.345-1.59-2.345-.32-6.595-5.06-17.331-11.16-24.043-14.49-15.965-20.27-21.185-36.92-33.359-24.73-35.597-54.22-68.992-77.1-82.9-21.74-13.217-51.13-27.44-75.87-37.448-11.78-4.762-60.58 22.785-76.53 35.291l.12.108c.38-.314.81-.584 1.27-.809 2-.961 4.3-1.033 6.35-.206 24.67 10.179 54.13 24.231 75.86 37.447 22.89 13.908 50.74 49.784 67.54 87.68 16.64 12.174 22.41 17.394 36.92 33.36 6.1 6.72 8.02 16.046 8.33 22.641 0 0 .76 1.123 1.59 2.345 1.31 1.922 2.2 4.51 2.09 6.729-.33 6.846.02 17.601.02 17.601z" fill="#EBEEF4"/><path fill-rule="evenodd" clip-rule="evenodd" d="M1284.88 238.068c47.41-.961 78.82-17.762 78.36-39.181-15.1-23.648-34.61-43.818-56.83-67.241-8.6 15.364-32.1 26.846-69.45 34.726 19.73 22.865 36.05 46.674 47.92 71.696z" fill="#3D4A62"/><path fill-rule="evenodd" clip-rule="evenodd" d="M1329.92 294.006c-4.58-1.258-8.79-3.208-12.62-5.93l-3.49-7.214c-3.39 2.129-7.55 1.329-12.04-.701 4.85 7.187 8.04 16.837 8.04 25.974v8.787l24.01 5.471c26.54 3.711 79.52-20.493 80.48-37.429.46-8.113 1.27-9.694 1.45-15.768.14-4.78-1.55-6.63-2.85-8.553-.83-1.222-1.59-2.345-1.59-2.345l-.04.09c-1.28 17.555-49.77 42.137-81.14 37.681l-.21-.063z" fill="#545960"/><path fill-rule="evenodd" clip-rule="evenodd" d="M1330.21 294.185c8.35.647 19.49 1.689 34.06-3.827-.79-2.956-4.24-6.774-8.17-7.233-10.99.584-20.6-1.437-26.49-3.692-4.65-1.788-13.13-5.795-17.05-8.068-.63-.36-1.42-.234-1.94.269a1.647 1.647 0 0 0-.34 1.932 9308.7 9308.7 0 0 1 7.03 14.519c4.55 4.375 12.9 6.1 12.9 6.1zM1404.87 267.978c-.52-2.372-1.8-7.368-.24-10.288 3.73-6.963 1.47-11.976-.44-19.595 2.71 4.537 6.95 11.617 7.07 18.293.06 2.093-1.05 7.115-6.39 11.59z" fill="#fff"/><path fill-rule="evenodd" clip-rule="evenodd" d="M1328.88 305.497s2.14 5.229 3.58 8.742a5.036 5.036 0 0 0 4.76 3.127c25-.692 70.9-16.801 77.19-36.181l1.17-10.97c-8.18 22.371-64.69 42.281-86.7 35.282z" fill="#1E1915"/><path fill-rule="evenodd" clip-rule="evenodd" d="M1404.87 267.978c-7.26 8.427-25.16 17.843-40.8 22.425-.65-2.192-2.26-4.375-4.38-6.055 17.36-4.187 33.35-12.74 44.19-22.983.12 2.498.49 4.654.99 6.613zM1363.08 199.085c-13.03 16.729-40.04 29.37-77.76 38.867l-.45.107c47.41-.961 78.82-17.762 78.36-39.181l-.15.207z" fill="#1E1915"/><path fill-rule="evenodd" clip-rule="evenodd" d="M1169.78 134.081c-.41.144-.54.728-.11.998l40.86 20.431c.51.197 1.08-.584.48-.953l-40.87-20.431c-.25-.107-.27-.054-.36-.045z" fill="#B9C5CF"/><path fill-rule="evenodd" clip-rule="evenodd" d="M1263.52 271.472l1.01.504c-.33 3.135-.71 6.262-1.17 9.37l-1-.503c.46-3.108.85-6.235 1.16-9.371zm-57.04-28.516l1.12.557c.14 3.396.29 6.792.47 10.188l-1.14-.566c-.18-3.396-.33-6.792-.45-10.179zM1262.21 211.573c.83 6.397 1.46 12.839 1.89 19.299l1.11.548c-.36-5.831-.91-11.653-1.62-17.457-.47-.8-.92-1.6-1.38-2.39z" fill="#1E1915"/><path fill-rule="evenodd" clip-rule="evenodd" d="M1133.73 114.046c3.38-2.579 6.81-2.857 10.32-1.779 24.2 9.002 72.2 29.047 96.04 53.431 22.92 27.861 33.56 49.37 45.23 72.253-13.53-25.309-33.63-54.679-48.72-71.93-14.17-16.208-52.03-33.728-78.13-45.785-12.63-5.822-19.28-10.062-24.74-6.19z" fill="#F9FAFB"/><path fill-rule="evenodd" clip-rule="evenodd" d="M1200.8 212.346c0-.917-.59-1.968-1.33-2.336l-8.99-4.493c-.74-.368-1.33.081-1.33.998 0 .916.59 1.967 1.33 2.336l8.99 4.492c.73.368 1.33-.081 1.33-.997zM1222.37 223.127c0-.916-.59-1.968-1.33-2.336l-8.99-4.492c-.74-.369-1.33.081-1.33.997s.59 1.968 1.33 2.336l8.99 4.492c.73.369 1.33-.072 1.33-.997z" fill="#545960"/><path fill-rule="evenodd" clip-rule="evenodd" d="M1164.28 207.458c-.81.296.17 1.482.53 1.967 3.91 5.292 6.83 11.339 8.1 17.799 1.05 5.381 1.21 10.907 1.18 16.405v.71l33.47 16.738c.54.207 1.09-.566.48-.952l-32.88-16.442v-.79c.02-7.853-.44-15.822-3.28-23.117-1.55-3.972-3.77-7.682-6.31-11.105-.21-.288-.79-1.294-1.29-1.213z" fill="#B9C5CF"/><path fill-rule="evenodd" clip-rule="evenodd" d="M1253.45 231.905c0-1.455.94-3.1 2.1-3.684l9.08-4.546c1.16-.584 2.11.126 2.11 1.581v5.256c0 1.456-.95 3.1-2.11 3.684l-9.08 4.546c-1.16.584-2.1-.126-2.1-1.581v-5.256z" fill="#545960"/><path fill-rule="evenodd" clip-rule="evenodd" d="M1265.91 223.585l-2.6-1.293c-.36-.18-.81-.171-1.31.08l-9.08 4.547c-1.16.584-2.1 2.228-2.1 3.683v5.256c0 .737.24 1.285.63 1.563.09.072.2.126.32.162l2.41 1.213c-.45-.26-.73-.826-.73-1.626v-5.256c0-1.456.94-3.1 2.1-3.684l9.08-4.546c.49-.242.93-.26 1.28-.099z" fill="#747A83"/><path fill-rule="evenodd" clip-rule="evenodd" d="M1139.24 125.232c-1.17-.027-2.08.907-2.55 2.524-2.84 9.703-4.91 20.674-6.39 30.934-.44 3.073 1.75 6.469 3.88 7.538 10.81 5.409 66.93 33.467 66.93 33.467l.06-1.698c-9.41-4.699-55.57-27.78-65.26-32.632-2.13-1.069-4.33-4.465-3.88-7.538 1.48-10.251 3.55-21.221 6.39-30.924.2-.692.48-1.258.82-1.671zM1140.31 303.044h-13.91l-26.39 20.144h-19.35l-37.96-18.985 22.98-11.491-37.68-18.84 39.82-19.91 72.49 49.082z" fill="#EBEEF4"/><path fill-rule="evenodd" clip-rule="evenodd" d="M1048.64 235.543l34.07 17.035v38.696l-34.07-17.034v-38.697z" fill="#D49F8E"/><path fill-rule="evenodd" clip-rule="evenodd" d="M1116.77 235.543l-34.06 17.035v38.696l34.06-17.034v-38.697z" fill="#AE8476"/><path fill-rule="evenodd" clip-rule="evenodd" d="M1082.71 218.509l-34.07 17.034 34.07 17.035 34.06-17.035-34.06-17.034z" fill="#F6DDC7"/><path fill-rule="evenodd" clip-rule="evenodd" d="M1061.73 242.093l34.07-17.034 7.88 3.944-34.06 17.034-7.89-3.944z" fill="#B8BDC7"/><path fill-rule="evenodd" clip-rule="evenodd" d="M1061.73 242.093l7.89 3.944v16.514l-7.89-3.935v-16.523z" fill="#545960"/><path fill-rule="evenodd" clip-rule="evenodd" d="M1100.73 259.775l3.85 2.507v-3.235l-4.8-3.126-.02.027-.06-.036-4.8 7.933v3.216l.01.009 3.83-6.352v7.502l-3.38 1.698v2.283l8.77-4.376v-2.291l-3.4 1.698v-7.457z" fill="#F6DDC7"/><path fill-rule="evenodd" clip-rule="evenodd" d="M1106.24 247.313l34.07 17.035v38.696l-34.07-17.034v-38.697z" fill="#AE8476"/><path fill-rule="evenodd" clip-rule="evenodd" d="M1174.38 247.313l-34.07 17.035v38.696l34.07-17.034v-38.697z" fill="#E2B29A"/><path fill-rule="evenodd" clip-rule="evenodd" d="M1140.31 230.279l-34.07 17.034 34.07 17.035 34.07-17.035-34.07-17.034z" fill="#F6DDC7"/><path fill-rule="evenodd" clip-rule="evenodd" d="M1119.33 253.863l34.07-17.035 7.88 3.935-34.06 17.035-7.89-3.935z" fill="#B8BDC7"/><path fill-rule="evenodd" clip-rule="evenodd" d="M1119.33 253.863l7.89 3.935v16.523l-7.89-3.936v-16.522z" fill="#545960"/><path fill-rule="evenodd" clip-rule="evenodd" d="M1158.33 271.545l3.84 2.506v-3.234l-4.78-3.136-.03.036-.05-.036-4.81 7.925v3.225h.01l3.84-6.343v7.502l-3.39 1.689v2.291l8.77-4.375v-2.291l-3.4 1.698v-7.457z" fill="#F6DDC7"/><path fill-rule="evenodd" clip-rule="evenodd" d="M1129.2 283.763l-11.86-5.93v6.505l11.86 5.93v-6.505z" fill="#F8FAFD"/><path fill-rule="evenodd" clip-rule="evenodd" d="M1118.63 279.092l-.4-.198v5.256l.4.198v-5.256zm.43.224l-.17-.09v5.256l.17.09v-5.256zm5.23 2.606l-.17-.09v5.256l.17.09v-5.256zm-2.65-1.321l-.17-.09v5.256l.17.09v-5.256zm5.23 2.615l-.18-.09v5.256l.18.09v-5.256zm-6.36-3.181l-.24-.126v5.256l.24.126v-5.256zm5.22 2.615l-.24-.126v5.256l.24.126v-5.256zm-2.64-1.321l-.24-.126v5.256l.24.126v-5.256zm5.22 2.614l-.24-.125v5.255l.24.126v-5.256zm-4.46-2.237l-.4-.197v5.255l.4.198v-5.256zm-2.64-1.321l-.4-.197v5.256l.4.197v-5.256zm5.22 2.606l-.4-.198v5.256l.4.198v-5.256zm-6.54-3.261l-.55-.279v5.256l.55.279v-5.256zm5.22 2.614l-.55-.278v5.256l.55.278v-5.256zm-2.64-1.33l-.55-.278v5.256l.55.278v-5.256zm5.22 2.615l-.55-.279v5.256l.55.279v-5.256z" fill="#545960"/><path fill-rule="evenodd" clip-rule="evenodd" d="M1065.95 267.457l34.06 17.034v38.697l-34.06-17.035v-38.696z" fill="#D49F8E"/><path fill-rule="evenodd" clip-rule="evenodd" d="M1134.08 267.457l-34.07 17.034v38.697l34.07-17.035v-38.696z" fill="#E2B29A"/><path fill-rule="evenodd" clip-rule="evenodd" d="M1100.01 250.422l-34.06 17.035 34.06 17.034 34.07-17.034-34.07-17.035z" fill="#F6DDC7"/><path fill-rule="evenodd" clip-rule="evenodd" d="M1079.04 274.006l34.07-17.034 7.88 3.944-34.07 17.035-7.88-3.945z" fill="#B8BDC7"/><path fill-rule="evenodd" clip-rule="evenodd" d="M1079.04 274.006l7.88 3.945v16.513l-7.88-3.935v-16.523z" fill="#545960"/><path fill-rule="evenodd" clip-rule="evenodd" d="M1118.04 291.688l3.85 2.507v-3.235l-4.8-3.126-.02.027-.06-.036-4.8 7.933v3.225l3.85-6.352v7.503l-3.39 1.698v2.282l8.76-4.376v-2.291l-3.39 1.698v-7.457z" fill="#F6DDC7"/><path fill-rule="evenodd" clip-rule="evenodd" d="M1111.27 263.126h-16.75l-9.95-4.977 10.37-5.185-6.73-3.369-1.75 1.123-3.75 1.86-18.63-9.308 20.49-10.242 20.39 10.197 6.31 19.901z" fill="#E2C8B6"/><path fill-rule="evenodd" clip-rule="evenodd" d="M1109.84 258.607l-9.04 4.519h10.47l-1.43-4.519zM1064.08 243.27l5.54 2.767 20.48-10.251-5.53-2.758-20.49 10.242z" fill="#8D9299"/><path fill-rule="evenodd" clip-rule="evenodd" d="M1077.21 207.395l34.06 17.035v38.696l-34.06-17.035v-38.696z" fill="#D49F8E"/><path fill-rule="evenodd" clip-rule="evenodd" d="M1145.34 207.395l-34.07 17.035v38.696l34.07-17.035v-38.696z" fill="#E2B29A"/><path fill-rule="evenodd" clip-rule="evenodd" d="M1111.27 190.36l-34.06 17.035 34.06 17.035 34.07-17.035-34.07-17.035z" fill="#F6DDC7"/><path fill-rule="evenodd" clip-rule="evenodd" d="M1090.3 213.945l34.07-17.035 7.88 3.944-34.07 17.026-7.88-3.935z" fill="#B8BDC7"/><path fill-rule="evenodd" clip-rule="evenodd" d="M1090.3 213.945l7.88 3.935v16.523l-7.88-3.936v-16.522z" fill="#545960"/><path fill-rule="evenodd" clip-rule="evenodd" d="M1129.3 231.626l3.85 2.507v-3.235l-4.8-3.126-.02.027-.06-.036-4.8 7.933v3.225l3.85-6.352v7.502l-3.39 1.699v2.282l8.76-4.376v-2.291l-3.39 1.698v-7.457z" fill="#F6DDC7"/><defs><filter id="filter0_d" x="-4" y="-2" width="1608" height="408" filterUnits="userSpaceOnUse" color-interpolation-filters="sRGB"><feFlood flood-opacity="0" result="BackgroundImageFix"/><feColorMatrix in="SourceAlpha" values="0 0 0 0 0 0 0 0 0 0 0 0 0 0 0 0 0 0 127 0"/><feOffset dy="2"/><feGaussianBlur stdDeviation="2"/><feColorMatrix values="0 0 0 0 0 0 0 0 0 0 0 0 0 0 0 0 0 0 0.08 0"/><feBlend in2="BackgroundImageFix" result="effect1_dropShadow"/><feBlend in="SourceGraphic" in2="effect1_dropShadow" result="shape"/></filter></defs></svg>