<svg width="1600" height="400" fill="none" xmlns="http://www.w3.org/2000/svg" viewBox="0 0 1600 400"><g filter="url(#filter0_d)"><path fill="#F5FCFF" d="M1600 0H0v400h1600z"/></g><path d="M1283.55 318.06c126.22 0 228.55-38.257 228.55-85.45 0-47.193-102.33-85.45-228.55-85.45-126.22 0-228.55 38.257-228.55 85.45 0 47.193 102.33 85.45 228.55 85.45z" fill="#004EBB"/><g clip-path="url(#clip0)"><path d="M1129.76 174.384l91.08-28.005c1.71-.983 10.93.374 15.13-3.531l160.27 86.914c.47.284.88.634 1.25 1.038l25.34 28.393a5.39 5.39 0 0 1 1.34 4.292l-2.52 20.837a5.456 5.456 0 0 1-4.36 4.696l-36.76 7.273c-.46.087-.94.12-1.41.087l-35.99-2.315c-3.91-.251-6.8 3.582-5.49 7.273 1.03 2.927 2.1 5.952 3.09 8.747 1.58 4.478-2.92 8.693-7.29 6.837l-8.07-3.418a5.394 5.394 0 0 1-2.55-2.228l-13.09-21.918a5.453 5.453 0 0 0-2.45-2.184l-70.11-31.364a4.946 4.946 0 0 1-.81-.448l-106.94-71.693c-3.37-2.261-3.18-7.273.34-9.283z" fill="#0032A5"/><path d="M1266.13 213.971l15.09 25.412c1.81 2.818 2.97 6.127 2.97 9.086 0 5.33-3.74 7.492-8.35 4.827l-112.12-64.737c-4.62-2.665-8.36-9.141-8.36-14.47 0-3.614 1.72-5.755 4.26-5.941l32.76 1.726c2.98.262 6.88 2.086 9.32 3.494l56.7 32.729c3.58 2.064 6.74 6.192 7.73 7.874z" fill="#2E383B"/><path d="M1163.72 187.249c-3.99-2.294-7.22-7.907-7.22-12.505 0-2.981 1.39-4.947 3.63-5.132l32.72 1.725c2.66.23 6.31 1.879 8.85 3.342l56.7 32.729c3.15 1.824 6.04 5.548 6.94 7.066l15.13 25.456.02.043c1.63 2.534 2.57 5.395 2.57 7.852 0 4.598-3.24 6.465-7.22 4.172l-112.12-64.748z" fill="#151F22"/><path d="M1164.39 180.74l110.3 63.678v-10.954l-18.88-25.434-57.41-31.429-34.01-2.141v6.28z" fill="#586770"/><path d="M1284.19 248.458c0-2.959-1.16-6.268-2.97-9.086l-15.09-25.412c-.99-1.682-4.15-5.81-7.72-7.874l-56.7-32.729c-2.44-1.408-6.34-3.232-9.32-3.494l-32.76-1.726c-.62.044-1.19.208-1.69.481l16.01-9.37a4.221 4.221 0 0 1 1.75-.502l32.76 1.725c2.98.262 6.88 2.086 9.31 3.495l56.7 32.74c3.57 2.064 6.73 6.192 7.72 7.873l15.1 25.413c1.81 2.817 2.97 6.126 2.97 9.085 0 2.621-.91 4.467-2.37 5.363l-16.11 9.413c1.49-.895 2.41-2.752 2.41-5.395z" fill="#414E52"/><path d="M1161.47 168.235l3.44.186 16.26-9.392-3.44-.185-16.26 9.391zM1168.75 168.618l3.44.185 16.26-9.391-3.44-.175-16.26 9.381zM1176.02 169.011l3.44.175 16.27-9.392-3.45-.175-16.26 9.392zM1183.31 169.393l3.44.175 16.26-9.392-3.44-.175-16.26 9.392zM1190.59 169.764l1.8.099c.45.032.92.12 1.4.218l16.22-9.37a9.268 9.268 0 0 0-1.55-.251l-1.62-.087-16.25 9.391zM1196.55 170.911c.75.273 1.48.59 2.19.907l16.18-9.348a27.95 27.95 0 0 0-2.17-.918l-16.2 9.359zM1200.97 172.953c.26.142.5.273.74.415l1.15.666 16.17-9.337-1.26-.72c-.2-.121-.41-.241-.63-.361l-16.17 9.337zM1204.95 175.236l1.88 1.081 16.17-9.337-1.87-1.082-16.18 9.338zM1208.93 177.529l1.88 1.081 16.17-9.337-1.88-1.081-16.17 9.337zM1212.9 179.822l1.87 1.082 16.18-9.338-1.89-1.081-16.16 9.337zM1216.88 182.116l1.86 1.081 16.18-9.337-1.88-1.092-16.16 9.348zM1220.84 184.409l1.88 1.081 16.17-9.337-1.88-1.081-16.17 9.337zM1224.81 186.702l1.88 1.081 16.18-9.337-1.88-1.092-16.18 9.348zM1228.79 188.995l1.87 1.081 16.18-9.337-1.88-1.081-16.17 9.337zM1232.76 191.289l1.87 1.081 16.18-9.337-1.88-1.092-16.17 9.348zM1236.73 193.582l1.88 1.082 16.17-9.338-1.88-1.092-16.17 9.348zM1240.69 195.875l1.89 1.081 16.18-9.337-1.88-1.092-16.19 9.348zM1244.67 198.169l1.88 1.081 16.18-9.337-1.88-1.081h-.01l-16.17 9.337zM1248.65 200.462l1.87 1.081 16.18-9.337-1.88-1.092-16.17 9.348zM1252.61 202.755l1.89 1.081 16.17-9.337-1.88-1.092-16.18 9.348zM1256.58 205.049l1.82 1.048c.02.011.04.022.06.044l16.18-9.348c-.06-.033-.11-.066-.17-.099l-1.71-.983-16.18 9.338zM1260.31 207.408c.51.415 1.01.852 1.49 1.299l16.16-9.315c-.47-.448-.97-.895-1.49-1.31l-16.16 9.326zM1263.7 210.706c.45.513.86 1.015 1.21 1.474l16.13-9.304c-.35-.459-.75-.961-1.19-1.485l-16.15 9.315zM1266.39 214.419l.96 1.616 16.13-9.315-.96-1.606-16.13 9.305zM1268.73 218.339l.96 1.616 16.12-9.304-.96-1.616-16.12 9.304zM1271.05 222.259l.97 1.617 16.12-9.316-.96-1.605-16.13 9.304zM1273.38 226.18l.96 1.617 16.13-9.316-.96-1.605-16.13 9.304zM1275.72 230.101l.96 1.616 16.12-9.304-.96-1.617-16.12 9.305zM1278.04 234.021l.96 1.616 16.12-9.304-.95-1.616-16.13 9.304zM1280.37 237.942l.85 1.441c.03.055.08.12.11.175l16.12-9.315a3.699 3.699 0 0 1-.16-.263l-.8-1.343-16.12 9.305zM1282.62 241.917c.27.578.51 1.168.71 1.758l16.11-9.294c-.2-.589-.44-1.179-.7-1.769l-16.12 9.305zM1284.02 246.373c.12.698.17 1.386.17 2.064l16.08-9.283v-.098c0-.645-.06-1.3-.17-1.977l-16.08 9.294zM1281.79 253.853l16.11-9.425a4.482 4.482 0 0 0 1.57-1.703l-15.99 9.228c-.4.829-.98 1.474-1.69 1.9z" fill="#283539"/><path d="M1269.18 239.798c0 4.423 3.11 9.807 6.94 12.024 3.83 2.216 6.95.415 6.95-4.008s-3.12-9.807-6.95-12.024c-3.83-2.217-6.94-.426-6.94 4.008z" fill="#AEBFC8"/><path d="M1271.92 241.37c0 2.687 1.89 5.952 4.2 7.284 2.33 1.344 4.21.252 4.21-2.435 0-2.686-1.88-5.952-4.21-7.284-2.32-1.332-4.2-.251-4.2 2.435z" fill="#414E52"/><path d="M1240.27 223.101c0 4.423 3.11 9.807 6.94 12.023 3.84 2.217 6.95.415 6.95-4.007 0-4.423-3.11-9.807-6.95-12.024-3.83-2.206-6.94-.415-6.94 4.008z" fill="#AEBFC8"/><path d="M1243 224.684c0 2.687 1.89 5.952 4.2 7.284 2.33 1.344 4.21.252 4.21-2.424 0-2.686-1.88-5.941-4.21-7.284-2.31-1.343-4.2-.262-4.2 2.424z" fill="#414E52"/><path d="M1210.76 206.065c0 4.422 3.11 9.806 6.95 12.023 3.83 2.217 6.94.415 6.94-4.008s-3.11-9.806-6.94-12.023c-3.85-2.217-6.95-.415-6.95 4.008z" fill="#AEBFC8"/><path d="M1213.49 207.637c0 2.686 1.88 5.941 4.21 7.284 2.32 1.343 4.2.251 4.2-2.424 0-2.687-1.88-5.952-4.2-7.284-2.33-1.344-4.21-.252-4.21 2.424z" fill="#414E52"/><path d="M1184.52 190.918c0 4.422 3.11 9.806 6.95 12.023 3.83 2.217 6.94.415 6.94-4.008 0-4.422-3.11-9.806-6.94-12.023-3.85-2.217-6.95-.426-6.95 4.008z" fill="#AEBFC8"/><path d="M1187.25 192.49c0 2.687 1.89 5.941 4.2 7.284 2.33 1.343 4.21.251 4.21-2.424 0-2.687-1.88-5.952-4.21-7.284-2.32-1.344-4.2-.262-4.2 2.424z" fill="#414E52"/><path d="M1156.78 174.897c0 4.423 3.11 9.807 6.95 12.024 3.83 2.217 6.94.415 6.94-4.008s-3.1-9.807-6.94-12.024c-3.85-2.206-6.95-.415-6.95 4.008z" fill="#AEBFC8"/><path d="M1159.51 176.481c0 2.686 1.89 5.941 4.21 7.284 2.32 1.343 4.2.251 4.2-2.425 0-2.686-1.89-5.951-4.2-7.284-2.32-1.343-4.21-.262-4.21 2.425z" fill="#414E52"/><path d="M1213.95 110.848l-30.24-12.034-31.77 17.538 31.77 28.372 30.24-33.876zM1266.43 244.472l-97.57-81.828 9.41-4.554 4.76-3.865 85.14 58.326-1.74 31.921z" fill="#AEBFC8"/><path d="M1273.4 194.216l-89.69-49.493s6.08-20.781 7.81-23.621c1.74-2.839 25.29-14.295 28.45-16.435 3.15-2.141 5.36-1.977 10.24 2.435s56.85 43.388 56.85 43.388 5.22 8.856 5.38 14.349c.15 5.482-3.87 18.292-19.04 29.377z" fill="#2E383B"/><path d="M1151.94 116.352l31.77 28.372 89.76 45.058-6.96 29.923-88.24-61.614-30.52-31.332 4.19-10.407z" fill="#94A5AE"/><path d="M1191.63 120.961c2.36-3.047 25.22-14.186 28.33-16.283 3.15-2.14 5.36-1.977 10.24 2.435s56.85 43.388 56.85 43.388 5.22 8.856 5.38 14.349c.05 2.043-.47 5.1-1.93 8.704-3.34 1.442-6.33 2.031-8.58 1.278-11.63-3.888-71.32-42.274-83.64-49.558-2.75-1.649-4.94-3.079-6.65-4.313z" fill="#485255"/><path d="M1263.65 121.965s29.54 16.14 33.18 19.777c3.63 3.637 9.69 16.13 9.64 20.356-.06 4.226-7.6 13.629-9.03 13.596-1.43-.044-13.18-16.49-13.18-16.49l-32.2-14.055-6.95-17.637 18.54-5.547zM1217.95 124.695c1.44-2.249 3.52-3.418 5.88-3.909l4.47 7.153s.31 7.589 1.22 10.691c.92 3.112 7.42 6.028 9.31 6.924 1.89.895 18.54 5.82 15.9 10.767-2.63 4.947-1.04 7.23 2.13 7.841 3.16.612 11.5-1.376 6.8 2.512s-6.27 4.805-5.94 8.005c.33 3.199 3.83 7.622.33 12.81-2.38 3.516-2.86 12.613-2.93 18.324-.86.208-1.41.317-1.41.317l-4.67-6.694s-1.96-4.303-1.81-7.066c.14-2.763 4.11-23.152 4.2-23.556.09-.404-8.3-8.834-13.61-11.379-5.32-2.544-26-23.184-19.87-32.74z" fill="#003966"/><path d="M1264.47 201.849s-.77 12.865-.77 14.317c0 1.453 10.43 18.03 10.08 20.192-.33 2.152-8.57 4.62-13.21 3.2-4.64-1.42-10.96-13.323-11.93-15.169-.96-1.834-1.43-4.641-1.43-6.246 0-1.606.88-3.954.88-3.954l.93-15.572c0 .011 4.27 4.346 15.45 3.232z" fill="#1C292D"/><path d="M1407.07 233.334l9.41 27.388s.1 1.453-2.76 2.359c-2.86.907-4.01 0-4.01 0l-11.84-33.755 9.2 4.008z" fill="#C3D6E0"/><path d="M1404.66 233.05l8.53 27.476s3.39 1.66.54 2.555c-2.86.907-4.01 0-4.01 0l-11.83-33.755 6.77 3.724z" fill="#AEBFC8"/><path d="M1379.29 243.719l8.67 2.927s47.87 27.334 65.59 37.567c2.79 1.616 4.81 2.512 6.24 2.97-3.95 3.113-7.88 10.899-19.06 4.434-18-10.386-65.59-37.567-65.59-37.567l-5.4-4.816 9.55-5.515z" fill="#485255"/><path d="M1423.76 269.525c12.71 8.081 21.31 15.769 24.04 17.767 5.58 4.096 12.32.35 12.32.35-7.92 6.465-9.18 3.287-19.19-2.49-19.87-11.467-59.44-34.018-59.44-34.018l-7.52-4.346.93-.197 6.59 2.315 13.44 5.57 8.25.065 12.48 7.208 8.1 7.776z" fill="#2E383B"/><path d="M1447.8 287.293c-2.73-1.999-11.32-9.687-24.04-17.768l-8.11-7.765-12.48-7.207-8.26-.066-13.43-5.569-6.59-2.316-.93.197 1.64-.95.94-.197 6.59 2.316 13.43 5.569 8.26.066 12.48 7.196 8.1 7.765c12.72 8.081 20.86 16.228 23.59 18.226 4.32 3.156 8.61 1.944 10.33 1.223-1.95.841-7.09 2.523-11.52-.72z" fill="#626C6F"/><path d="M1445.18 274.657c1.36-1.343 5.19-2.173 9.11.295 2.07 1.311 5.21 4.707 5.83 12.406l-1.6.885c.41-4.074-1.86-9.818-4.31-11.358-3.39-2.129-6.66-1.223-7.64-.251-2.47 2.424-4.8 3.833-6.98 4.215-1.15-.731-2.41-1.539-3.77-2.424 2.62.994 5.82-.295 9.36-3.768z" fill="#2E383B"/><path d="M1459.79 287.172c.28-.218.55-.415.83-.579 1.39-.83 2.64.35 1.94.797l-8.81 5.122.02-.011c2.44-1.55 4.23-3.92 6.02-5.329z" fill="#2E383B"/><path d="M1308.35 236.948l36.01 16.37-5 20.039-24.94-6.705-47.15-20.094-9.52-23.577-.04-.164 50.64 14.131z" fill="#1C292D"/><path d="M1344.54 251.964l59.2-3.265-12.55 14.295-18.03 6.891-33.8 3.472 5.18-21.393z" fill="#0F1C20"/><path d="M1326.98 279.146l9.41 27.388s.1 1.453-2.76 2.359c-2.86.907-4.02 0-4.02 0l-11.84-33.755 9.21 4.008z" fill="#AEBFC8"/><path d="M1321.55 277.704l9.83 30.152s5.12.131 2.26 1.037c-2.86.907-4.02 0-4.02 0l-11.84-33.755 3.77 2.566z" fill="#C3D6E0"/><path d="M1299.21 289.531l8.67 2.927s47.87 27.334 65.59 37.567c2.79 1.616 4.81 2.512 6.24 2.97-3.95 3.113-7.88 10.899-19.06 4.434-18-10.386-65.59-37.567-65.59-37.567l-5.4-4.816 9.55-5.515z" fill="#485255"/><path d="M1343.68 315.337c12.71 8.081 21.31 15.769 24.04 17.768 5.58 4.084 12.32.338 12.32.338-7.92 6.465-9.18 3.298-19.19-2.49-19.87-11.466-59.44-34.017-59.44-34.017l-7.52-4.347.93-.196 6.59 2.315 13.43 5.569 8.26.066 12.47 7.207 8.11 7.787z" fill="#2E383B"/><path d="M1367.72 333.105c-2.73-1.999-11.32-9.687-24.04-17.768l-8.11-7.765-12.47-7.207-8.26-.066-13.43-5.569-6.59-2.316-.93.197 1.64-.95.94-.197 6.59 2.316 13.43 5.569 8.26.066 12.48 7.207 8.11 7.765c12.71 8.081 20.85 16.217 23.58 18.226 4.32 3.156 8.61 1.944 10.33 1.223-1.96.83-7.1 2.512-11.53-.731z" fill="#626C6F"/><path d="M1365.09 320.469c1.35-1.343 5.19-2.173 9.11.295 2.07 1.311 5.21 4.707 5.83 12.406l-1.61.896c.42-4.074-1.85-9.818-4.31-11.358-3.4-2.14-6.66-1.223-7.64-.251-2.47 2.424-4.8 3.833-6.98 4.215-1.15-.731-2.42-1.54-3.77-2.424 2.63.983 5.84-.306 9.37-3.779z" fill="#2E383B"/><path d="M1379.71 332.984c.28-.218.55-.404.83-.579 1.39-.819 2.62.35 1.94.809l-8.81 5.121.02-.011c2.44-1.561 4.23-3.931 6.02-5.34z" fill="#2E383B"/><path d="M1257.71 222.817l9.57 23.741-50.88-44.042v-4.391l41.31 24.692z" fill="#1C292D"/><path d="M1398.19 194.216l-1.24-4.958-9.25-7.983 10.49 12.941z" fill="#101D21"/><path d="M1398.19 194.216l-1.24-4.958 3.35-3.921 2.46 13.138-4.57-4.259z" fill="#101D21"/><path d="M1264.39 199.196l10.04-10.408 2.79-14.284 10.78-7.83 6.37 2.61 20.56-12.198 21.85-6.301 9.39.491 22.57 13.563 18.96 16.436 7.18 7.743 10.44 11.87 9.77 24.834-11.35 16.534-27.04 6.443-31.44-1.988-33.24-10.68-8.54 10.647-45.77-23.861 6.68-23.621z" fill="#14AFEB"/><path d="M1354.28 165.866l58.03 54.603-11.32 15.475-53.65-53.085 6.94-16.993z" fill="#5AC8F5"/><path d="M1403.74 242.255l-2.75-6.312-25.54 6.312 1.25 6.444 27.04-6.444z" fill="#5AC8F5"/><path d="M1412.31 220.469l2.78 5.253-11.35 16.533-2.75-6.312 11.32-15.474zM1278.93 184.125l33.59 19.286 24.57 17.954 38.36 20.891-61.03-54.975-27.37-13.661.95-6.946-10.78 7.83-2.79 14.285 4.5-4.664z" fill="#0082C8"/><path d="M1293.64 211.372l51.17 28.885v6.334l-32.79-10.56-18.38-24.659z" fill="#5AC8F5"/><path d="M1375.45 242.256l-30.64-1.999v6.334l31.89 2.108-1.25-6.443zM1264.39 199.196l21.47 14.841 17.62 32.641-45.77-23.861 6.68-23.621z" fill="#0082C8"/><path d="M1361.86 224.389l-19.44-16.457 15.11 1.627 13.47 13.454-9.14 1.376zM1393.26 205.213l-17.38-16.61.82 9.981 14.47 12.788 2.09-6.159z" fill="#4E5B5F"/><path d="M1368.74 164.839l31.56 20.498-3.35 3.921-9.25-7.983-21.55-13.858 2.59-2.578zM1403.74 242.255l1.58 3.659-28.27 6.76-.35-3.975 27.04-6.444z" fill="#5B686C"/><path d="M1403.74 242.255l1.58 3.659 12.34-18.39-2.57-1.802-11.35 16.533zM1344.81 246.591l-.45 3.986 32.69 2.097-.35-3.976-31.89-2.107z" fill="#4E5B5F"/><path d="M1405.32 245.914v4.15l-28.27 7.022v-4.412l28.27-6.76zM1405.32 245.914v4.15l12.03-17.834.31-4.707-12.34 18.391zM1344.36 250.577l-32.34-14.546 1.08 5.22 31.26 13.421 32.69 2.414v-4.412l-32.69-2.097z" fill="#29363A"/><path d="M1312.02 236.031l32.34 14.546.45-3.986-32.79-10.56z" fill="#4E5B5F"/><path d="M1331.99 278.577l-12.14-43.114-6.75 3.942 13.27 42.503 5.62-3.331z" fill="#101D21"/><path d="M1293.64 229.326l22.25 47.002 10.48 5.58-13.27-42.503-19.46-10.079z" fill="#29363A"/><path d="M1293.64 211.372l26.21 24.091-6.75 3.942-19.46-10.08-7.78-14.961 7.78-2.992z" fill="#5B686C"/><path d="M1298.77 166.674s14.57-12.723 30.06-15.529c14.09-2.545 15.14-.361 15.14-.361s10.54 17.986-3.76 21.405c-14.29 3.418-41.44-5.515-41.44-5.515z" fill="#758286"/><path d="M1323.23 145.149l7.09 16.283s-1.86 4.303-10.63 4.117c-8.77-.196-21.84-7.754-21.84-7.754l25.38-12.646z" fill="#2E383B"/><path d="M1253.7 206.13l-4.67-6.694s-1.96-4.303-1.82-7.066c.15-2.763 4.12-23.151 4.21-23.556.09-.404-8.3-8.834-13.61-11.379-5.31-2.544-25.99-23.184-19.86-32.74 6.12-9.555 24.03.175 24.08-.098.05-.273 32.28 31.353 32.4 35.405.11 4.051-7.3 39.172-9.97 41.847-2.67 2.665-10.76 4.281-10.76 4.281z" fill="#065380"/><path d="M1258.98 169.928c.17 0 .34-.021.52-.054 1.68-.361 41.21-9.01 50.69-14.372 10.29-5.82 21.79-27.825 22.9-34.312a2.434 2.434 0 0 0-2-2.818 2.433 2.433 0 0 0-2.81 1.999c-.97 5.657-12.03 26.1-20.49 30.883-8.85 5.002-48.92 13.76-49.33 13.847a2.444 2.444 0 0 0-1.87 2.905 2.448 2.448 0 0 0 2.39 1.922z" fill="#2E383B"/><path d="M1325.51 128.517l-2.63 3.102s-3.79.655-5.36.863c-4.3.578-15.55-8.54-20.68-12.002-5.03-3.375-6.75-5.777-7.95-6.312-1.2-.535-24-22.77-24-22.77l12-17.833s3.63 5.45 9.14 11.28c5.5 5.832 13.11 13.881 14.05 16.098.66 1.551 11.89 10.516 18.12 16.949 2.63 2.719 3.82 6.694 3.82 6.694s6.73 1.518 3.49 3.931z" fill="#508ECF"/><path d="M1276.87 73.576s3.23 4.838 8.21 10.266c-1.22 3.996-2.29 8.572-1.84 11.368.92 5.733 4.48 9.905 8.04 9.446 3.56-.469 6.19-.786 6.51 1.769.3 2.567-2.48 4.423 1.7 7.83 4.18 3.408 6.66.47 8.52 3.408 1.86 2.937 1.08 5.569 3.41 8.048 2.32 2.479 3.33-1.987 4.18-1.114.85.874 6.19 4.521 6.81 5.286.15.174-.04.884-.39 1.878-1.21.208-3.4.568-4.49.721-4.3.579-15.55-8.54-20.68-12.002-5.03-3.374-6.75-5.777-7.95-6.312-1.2-.535-23.99-22.77-23.99-22.77l11.96-17.822z" fill="#3775B6"/><path d="M1322.02 124.597s4.98.153 8.66 1.136c3.68.983.46 12.897-1.62 12.897s-4.75-2.566-7.04-2.697c-2.29-.12-4.36-2.228-4.5-3.451-.13-1.223 4.5-7.885 4.5-7.885z" fill="#051F41"/><path d="M1273.47 81.406c.05.393 2.73 9.632-1.63 16.043-4.36 6.41-6.38 10.429-5.09 15.398 1.29 4.968.19 7.928-2.29 11.75s-26.68 9.064-30.62 9.064c-3.96 0-16.82-4.794-16.97-12.733-.15-7.95 7.62-35.678 9.63-41.826 2.01-6.148 20.33-14.131 27.85-12.45 7.51 1.682 19.12 14.754 19.12 14.754z" fill="#DCC920"/><path d="M1238.73 79.178c-2.32-.448-10.63.502-12.39 11.281-1.75 10.779-.62 21.459 1.03 28.656 1.65 7.207 3.89 12.58 5.13 13.727 1.25 1.147 4.55 10.385 10.38 15.922 5.83 5.526 13.45 8.059 13.96 8.529.5.47 3.74 3.473 3.74 3.473l8.01-6.203-3.74-3.79s-2.49-5.493-4.37-8.791-12.08-17.658-12.88-18.761c-.81-1.103-2.66-17.757-1.97-21.088.69-3.32 3.63-20.924-6.9-22.955z" fill="#508ECF"/><path d="M1275.89 157.522s2.85 4.521 3.26 6.793c.4 2.26-1.19 4.663-1.54 4.881-.36.219-6.11 2.774-7.83 2.228-1.73-.546-3.3-2.031-3.72-3.909-.4-1.879-1.05-1.431-1.61-1.431s-3.89-5.307-3.89-5.307l8-6.203 7.33 2.948z" fill="#051F41"/><path d="M1226.35 90.47c.06-.382.13-.743.2-1.092.02-.11.06-.208.08-.317.05-.251.12-.491.18-.732.04-.109.07-.207.1-.316.07-.23.14-.459.22-.688.03-.088.06-.164.09-.251.1-.273.21-.535.3-.787.02-.022.03-.054.04-.076.52-1.201 1.14-2.206 1.83-3.047 1.87 3.888.31 10.397-.76 12.526-1.55 3.112-1.07 14.677 1.26 21.972 2.34 7.295 6.43 8.169 9.92 7.099 3.51-1.071 4.08 2.522.48 5.252-3.59 2.72-4.18 6.902-1.07 11.085 3.11 4.182 9.72 5.635 12.54 7.382 2.81 1.747 1.36 3.211 4.66 3.888 3.31.677 4.86-.677 4.86-.677s-1.37 2.719-1.37 3.21c0 .317 2.21 2.217 3.74 3.495l-3.08 2.381s-3.25-3.003-3.75-3.473c-.5-.47-8.12-2.992-13.95-8.529-5.83-5.526-9.13-14.776-10.38-15.922-1.24-1.147-3.47-6.531-5.13-13.727-1.65-7.208-2.77-17.877-1.01-28.656z" fill="#3775B6"/><path d="M1243.51 109.974c.38-1.245 1.11-2.435 2.01-3.56.24 6.127 1.46 15.977 2.08 16.807.8 1.103 11 15.463 12.88 18.761 1.3 2.283 2.9 5.625 3.76 7.459l-.94-.218s-2.89-2.534-5.57-5.537c-2.69-3.003-2.45-8.42-5.21-10.025-2.76-1.616-6.11-2.566-6.11-4.609 0-2.042.28-3.003-1.84-5.875-2.14-2.883-3.05-6.738-1.06-13.203z" fill="#4381C2"/><path d="M1255.75 116.079c-.39-7.284 3.6-9.315 6.64-16.01 3.05-6.694 0-19.11 0-19.11l2.55-7.874c4.69 3.996 8.53 8.31 8.53 8.31.05.393 2.73 9.632-1.63 16.042-4.36 6.411-6.38 10.43-5.09 15.398 1.29 4.969.19 7.929-2.29 11.751-.92 1.409-4.8 3.014-9.51 4.477.91-3.909 1.04-8.605.8-12.984z" fill="#C5B41F"/><path d="M1254.35 66.652c4.45.994 10.35 6.007 14.41 9.905a149.494 149.494 0 0 1 2.26 11.347l-6.61 2.632s-11.68.305-16.05-2.862c-3.36-2.435-9.64-11.04-11.73-16.938 6.17-3.003 13.59-5.012 17.72-4.084z" fill="#C5B41F"/><path d="M1264.41 90.546s-8.95-2.424-13.32-5.58c-4.37-3.156-11.78-11.827-10.45-16.38 1.34-4.544 6.38-10.845 18.34-10.834 7.45.01 12.04 30.163 12.04 30.163l-6.61 2.631z" fill="#DCC920"/><path d="M1278.25 83.372s.04-3.67-3.87-6.061c-3.9-2.392-7.91 1.813-7.91 1.813v7.59s11.07.808 11.78-3.342z" fill="#192D4B"/><path d="M1270.2 61.465l-8.85-1.55-4.85 11.619c-.08 1.113 1.54 6.41 1.55 7.371.01 1.048.3 2.086 1.37 3.243 0 0 1.5 1.365 3.27 2.796.72.579 2.96 2.566 4.92 2.239.74-.12 2.23-.612 2.23-.612 1.37-.513 2.08-.972 2.9-2.435 1.05-1.89 5.47-17.407 5.47-17.407l1.37-5.177-9.38-.087z" fill="#D6BBA1"/><path d="M1278.6 59.04c1.43 1.78 1.3 3.888.64 5.384-.59 1.344-.92 2.305-1.02 2.283 0 0-.85-3.364-3.37-1.813-2.42 1.496-3.68 2.741-3.86 2.632 0 0 .25-2.785.39-2.872.13-.099-2.5 2.446-2.5 2.446-.15.066-.5-1.343-.77-1.321-2.91.153-3.94 3.472-4.1 4.881l-.25 1.398c-.13.732-.14 1.529-.85 1.365-.57-.131-.73-.59-1.07-1.343 0 0-1.07-3.014-3.02-2.556-1.7.404-1.02 4.762-.96 4.98l-1.32 2.042c-.69.077 0 0-.6-1.376-1.49-3.418-1.77-5.526-2.01-6.618-1.23-5.59.91-10.527 4.72-13.214 1.19-.84 5.91-2.631 6.03-3.297.01-.088.77.677 1.87.84 3.54.557 2.26-1.288 2.26-1.288.93 0 2.9 2.25 3.04 2.402 1.09 1.245 1.44-.371 1.44-.371 1.05.808 5.31 5.417 5.31 5.417z" fill="#633A11"/><path opacity=".49" d="M1257.53 70.321c.12-1.933 0-2.632 1.88-2.632.44 0 2.47.568 2.98.689 7.03 1.605 12.02.884 13.19.928l4.45-.787c.02.372 2.32-2.599 2.34-2.216.31 8.114-2.06 13.781-3.89 16.916l-.26-.328c-.37-.48-.77-.754-1.07-.754-.07 0-.14.011-.22.033-.34.11-.79.306-1.3.535-1.7.754-4.28 1.879-7.21 1.879-.47 0-.94-.033-1.4-.088-3.76-.458-9.75-9.937-9.49-14.175z" fill="#2E383B"/><path d="M1262.39 68.377s8.22 1.606 19.82-2.337c0 0 9.3 7.514 2.12 9.075-18.67 4.096-21.94-6.737-21.94-6.737z" fill="#192D4B"/><path d="M1303.64 147.115c-6.7 3.877-9.29 8.66-5.78 10.68 3.52 2.032 11.8.536 18.51-3.341 6.71-3.877 9.3-8.66 5.78-10.681-3.52-2.031-11.8-.535-18.51 3.342z" fill="#414E52"/><path d="M1340.56 168.367c-7.73 4.106-35.64-1.693-35.64-1.693L1288 153.045l-.95 20.564 28.35 16.162s26.45 2.872 36.96-2.162c4.91-2.348 1.91-21.754 1.91-21.754l-10.59-19.067c.01.021 1.21 19.285-3.12 21.579z" fill="#5B686C"/><path opacity=".3" d="M1340.56 168.367c-7.73 4.106-35.64-1.693-35.64-1.693L1288 153.045s.41-8.846.54-11.576c.12-2.741 1.81-6.268 3.23-9.108 1.5-2.981 9.09-15.168 15.19-18.029 6.11-2.862 20.29 2.741 23.28 8.212 3 5.482 13.45 24.265 13.45 24.265s1.2 19.264-3.13 21.558z" fill="#303E42"/><path d="M1340.56 168.367c4.33-2.294 3.13-21.557 3.13-21.557l10.59 19.067s3 19.395-1.91 21.754c-.09.043-.19.076-.27.12l-11.9-19.199c.13-.065.25-.12.36-.185zM1288 153.045l16.92 13.629 10.48 23.108-28.35-16.163.95-20.574z" fill="#414E52"/><path d="M1309.77 171.414l6.7 15.321c.28.612.87 1.027 1.53 1.049l13.39.589c.84.033 1.58-.524 1.78-1.343l1-4.095a1.752 1.752 0 0 0-.87-1.966l-11.01-5.963a1.352 1.352 0 0 0-.36-.142l-12.16-3.45zM1352.98 165.025l-6.84-12.668 1.18 9.435c.01.077.02.153.05.23l2.7 10.145c.16.557.57 1.005 1.12 1.201a1.76 1.76 0 0 0 2.34-1.758l-.34-5.854a1.658 1.658 0 0 0-.21-.731z" fill="#fff"/><path opacity=".3" d="M1288.54 141.469c.1-2.14 1.14-4.761 2.28-7.164 6.44 12.548 14.1 32.369 14.1 32.369L1288 153.045s.41-8.835.54-11.576z" fill="#303E42"/><path opacity=".3" d="M1340.56 168.367c-7.73 4.106-35.64-1.693-35.64-1.693L1288 153.045s.41-8.846.54-11.576c.12-2.741 1.81-6.268 3.23-9.108 1.5-2.981 9.09-15.168 15.19-18.029 6.11-2.862 20.29 2.741 23.28 8.212 3 5.482 13.45 24.265 13.45 24.265s1.2 19.264-3.13 21.558z" fill="url(#paint0_linear)"/><path opacity=".3" d="M1297.09 124.04c2.95-4.019 6.62-8.19 9.87-9.708 6.11-2.862 20.29 2.741 23.28 8.212 3 5.482 13.45 24.265 13.45 24.265s1.04 16.742-2.32 20.87c-6.17-9.021-23.29-32.074-44.28-43.639z" fill="#fff"/><path d="M1281.6 75.094c.02-.11.06-.23.08-.339-.02.11-.06.23-.08.339zM1281.19 76.776l.03-.11c-.01.034-.02.066-.03.11zM1282.03 72.822l-.03.23.03-.23z" fill="#FFCF13"/><path d="M1278.47 83.219l-.26-.328c-.37-.48-.77-.753-1.07-.753-.07 0-.15.01-.22.032-.34.11-.79.306-1.3.536-1.71.753-4.28 1.878-7.21 1.878-.47 0-.94-.033-1.4-.087-3.75-.48-9.75-9.96-9.48-14.197.12-1.933 0-2.632 1.88-2.632.44 0 2.47.568 2.98.688 7.03 1.605 12.02.885 13.18.928l4.46-.786c.02.371 2.32-2.6 2.34-2.217-.49-12.526-4.96-17.648-14.64-18.26-20.06-1.255-17.29 24.933-17.29 24.933s.83 3.822 7.91 12.329c4.31 5.154 11.95 3.92 15.84 2.468 1.65-.623 2.24-1.65 2.24-1.65s.92-.982 2.06-2.904c-.01.022-.02.022-.02.022z" fill="#192D4B"/><path d="M1282.23 71.108l.03-.295-.03.295zM1280.66 78.436c.04-.099.07-.208.11-.306-.04.098-.07.207-.11.306zM1278.91 82.443c.05-.109.1-.218.17-.327-.05.109-.12.218-.17.327zM1282.37 68.858c0-.13.01-.273.01-.415 0 .142 0 .273-.01.415zM1280.07 79.975c.05-.098.09-.196.12-.294-.04.098-.07.196-.12.294zM1279.55 81.166c.03-.077.07-.153.1-.23-.03.077-.07.153-.1.23z" fill="#FFCF13"/><path d="M1281.25 58.287s.95 7.503 3.38 10.178c2.41 2.676-3.56.764-3.56.764l-2.55-6.366 2.73-4.576z" fill="#192D4B"/></g><defs><filter id="filter0_d" x="-4" y="-2" width="1608" height="408" filterUnits="userSpaceOnUse" color-interpolation-filters="sRGB"><feFlood flood-opacity="0" result="BackgroundImageFix"/><feColorMatrix in="SourceAlpha" values="0 0 0 0 0 0 0 0 0 0 0 0 0 0 0 0 0 0 127 0"/><feOffset dy="2"/><feGaussianBlur stdDeviation="2"/><feColorMatrix values="0 0 0 0 0 0 0 0 0 0 0 0 0 0 0 0 0 0 0.08 0"/><feBlend in2="BackgroundImageFix" result="effect1_dropShadow"/><feBlend in="SourceGraphic" in2="effect1_dropShadow" result="shape"/></filter><linearGradient id="paint0_linear" x1="1339.62" y1="131.325" x2="1308.14" y2="151.141" gradientUnits="userSpaceOnUse"><stop stop-color="#fff"/><stop offset="1"/></linearGradient><clipPath id="clip0"><path fill="#fff" transform="translate(1127 48)" d="M0 0h335.754v291.918H0z"/></clipPath></defs></svg>