<svg width="375" height="156" fill="none" xmlns="http://www.w3.org/2000/svg" viewBox="0 0 375 156"><path d="M375 0H0v156h375V0z" fill="#F5FCFF"/><mask id="a" maskUnits="userSpaceOnUse" x="0" y="0" width="375" height="156"><path transform="matrix(-1 0 0 1 375 0)" fill="#F5FCFF" d="M0 0h375v156H0z"/></mask><g mask="url(#a)"><path d="M481.001-5.706L374.813.097 176.849 20.841l-36.882 21.902 167.705 97.683 140.778 13.258 32.551-159.39z" fill="#00AD00"/><path d="M437.509-7.297S75.411 4.265 51.072 44.358C21.095 93.745 318.26 226.2 318.26 226.2l250.865-59.442s-397.638-99.299-379.744-129.2C208.081 6.31 578.295-2.295 578.295-2.295L437.509-7.297z" fill="#fff"/><path d="M346.422 206.702S52.672 89.192 79.234 44.358C103.14 4.01 465.671-5.998 465.671-5.998l81.019 1.535S176.252 6.173 157.777 37.553c-19.75 33.549 379.744 144.365 379.744 144.365l-191.099 24.784z" fill="#004EBB"/><path d="M325.671 55.067h-2.706v53.134h2.706V55.067z" fill="#5F6464"/><path d="M302.562 46.956l18.716-18.953a4.29 4.29 0 0 1 6.12 0l18.716 18.953a4.423 4.423 0 0 1 0 6.2l-18.716 18.948a4.29 4.29 0 0 1-6.12 0l-18.716-18.949a4.43 4.43 0 0 1 0-6.2z" fill="#fff"/><path d="M304.915 48.482l17.874-18.098a2.17 2.17 0 0 1 3.102 0l17.874 18.098a2.24 2.24 0 0 1 0 3.142l-17.874 18.1a2.17 2.17 0 0 1-3.102 0l-17.874-18.1a2.24 2.24 0 0 1 0-3.142z" fill="#fff"/><path d="M324.34 71.174a2.958 2.958 0 0 1-2.112-.886l-17.874-18.099a3.057 3.057 0 0 1 0-4.276l17.874-18.099a2.94 2.94 0 0 1 2.108-.885c.797 0 1.547.312 2.112.885l17.874 18.1a3.02 3.02 0 0 1 .874 2.135c0 .806-.313 1.567-.874 2.14l-17.874 18.099a2.944 2.944 0 0 1-2.108.886z" fill="#004EBB"/><path d="M332.644 58.442c4.589-4.645 4.589-12.176 0-16.82a11.644 11.644 0 0 0-16.612 0c-4.589 4.644-4.589 12.175 0 16.82a11.644 11.644 0 0 0 16.612 0z" fill="#fff"/><path d="M334.688 53.688c1.996-5.787-1.022-12.119-6.741-14.135-5.715-2.02-11.967 1.038-13.963 6.825-1.996 5.787 1.022 12.12 6.741 14.135 5.719 2.02 11.971-1.038 13.963-6.825z" fill="#fff"/><path d="M313.615 52.33A11.124 11.124 0 0 0 316 57.231c1.755-7.93 8.749-13.862 17.109-13.862-.164-.225-.341-.433-.521-.645a17.606 17.606 0 0 0-3.238-.309c-6.902.004-12.873 4.044-15.735 9.915z" fill="#0046B4"/><path d="M319.419 59.953a10.809 10.809 0 0 0 4.921 1.182c6.056 0 10.961-4.97 10.961-11.101 0-2.1-.577-4.064-1.575-5.735-7.61 1.39-13.514 7.755-14.307 15.654zM327.157 41.153c1.539 0 3.034.204 4.457.581a10.857 10.857 0 0 0-7.278-2.801c-5.226 0-9.594 3.703-10.692 8.656 3.222-3.931 8.079-6.436 13.513-6.436z" fill="#46B400"/></g><g clip-path="url(#clip0)"><path d="M177.548 107.029c.705-.852 2.238-.848 2.923.036.698.899-.035 2.266-.13 3.236-.091.939-.115 1.644-1.264 1.605-2.056-.064-2.642-3.534-1.529-4.877zM271.004 137.766c7.879 4.548 1.969 7.959-5.911 12.511-7.669 4.429-13.37 8.374-21.249 3.827-9.864-5.697-50.094-29.098-55.564-32.259-5.911-3.411-1.969-7.959 5.91-12.507 7.88-4.547 13.251-8.707 21.115-4.104a55250.832 55250.832 0 0 0 55.699 32.532zM154.385 112.072c4.92-2.357 18.27 3.867 10.704 6.113-2.658.792-8.363-4.294-10.768-5.602a.92.92 0 0 1 .064-.511zM223.295 85.494c2.896-3.213 14.266-.666 9.433 3.042-1.7 1.304-9.642 2.064-9.333-2.575a1.05 1.05 0 0 1-.1-.467zM209.569 88.299c7.879 4.548 1.969 7.963-5.911 12.51-7.669 4.429-13.37 8.375-21.249 3.827-9.861-5.692-50.094-29.097-55.565-32.254-5.906-3.411-1.968-7.963 5.911-12.51 7.879-4.549 13.247-8.708 21.115-4.105a48293.95 48293.95 0 0 0 55.699 32.532z" fill="#0032A5"/><path d="M180.551 107.346l-2.773-.595-.099.496.693.99-.099 2.773 2.278-3.664z" fill="#7F0000"/><path d="M178.431 87.752c.539.46 1.078.919 1.609 1.39-2.318 1.609-4.996 3.09-7.678 4.303l-.035-.915c-.024-.654.732-3.66 1.331-4.778h4.773zM137.077 62.862c.539.46 1.078.919 1.608 1.39-2.317 1.609-4.995 3.027-7.677 4.24l-.036-.853c-.027-.653.733-3.66 1.331-4.777h4.774z" fill="#004687"/><path d="M146.537 46.01l12.313-2.65c.796.384 8.572.554 9.998 1.41 1.427.855-3.498 2.4-1.604 3.605 8.921 5.665 22.125 14.463 31.09 19.78.467.277.709.051.19-.626-2.262-2.944-8.05-10.665-11.1-12.558 3.054.768 13.838 12.68 14.673 13.64-.079.649-.162 1.294-.233 1.948a99.43 99.43 0 0 0-.361 4.643c-.903.994-27.596 10.01-27.326 10.803.008-.004-63.381-30.214-27.64-39.995z" fill="#232323"/><path d="M178.312 90.165c0-.103-.142-.186-.32-.186-.179 0-.321.083-.321.186s.142.186.321.186c.178-.004.32-.087.32-.186z" fill="#14AFEB"/><path d="M186.774 94.626c-1.145-2.837-4.548-5.463-7.602-5.867-1.525-.202-2.587.265-3.3.986-.891.895-2.444 2.817-2.908 3.787-1.323 2.758 7.266 9.163 10.269 8.49.748-.167 2.725-3.05 3.426-4.021.579-.808.678-1.985.115-3.375z" fill="#192D4B"/><path d="M184.14 97.969c-1.145-2.837-4.548-5.463-7.602-5.867-3.055-.404-4.6 1.565-3.455 4.401 1.145 2.837 4.548 5.463 7.602 5.867 3.055.404 4.6-1.565 3.455-4.401z" fill="#192D4B"/><path d="M136.923 66.32c0-.103-.143-.186-.321-.186-.179 0-.321.083-.321.186s.142.186.321.186c.178 0 .321-.083.321-.186z" fill="#14AFEB"/><path d="M145.131 72.496c0-3.058-2.171-6.77-4.849-8.287-1.339-.761-2.5-.721-3.431-.321-1.164.499-3.324 1.695-4.116 2.42-2.258 2.064 3.304 11.215 6.343 11.718.756.123 3.668-1.81 4.682-2.444.84-.53 1.371-1.584 1.371-3.086z" fill="#192D4B"/><path d="M141.439 74.608c0-3.059-2.171-6.77-4.849-8.288-2.678-1.517-4.849-.273-4.849 2.79 0 3.057 2.171 6.77 4.849 8.287 2.674 1.517 4.849.269 4.849-2.79z" fill="#192D4B"/><path d="M156.358 51.381c-.092-2.107 7.653-5.879 11.044-3.74-.479 12.456 10.007 12.82 11.132 13.925.65.638.377 3.372-.02 3.772-1.331 1.335-7.74 5.443-10.407 3.609-2.666-1.834-5.585-4.944-5.585-4.944s-6.014-9.112-6.164-12.622z" fill="#141414"/><path d="M171.015 56.345c2.666 1.664 8.831 4.83 7.495 6.164-1.331 1.331-7.74 5.444-10.406 3.61-2.667-1.835-5.586-4.945-5.586-4.945l8.497-4.829z" fill="#333"/><path d="M171.015 56.345c-.935-3.308-3.011-8.12-3.613-8.7-.725-.693-9.713 2.932-9.448 4.45.265 1.517 4.564 9.083 4.564 9.083l8.497-4.833z" fill="#2E2E2C"/><path d="M143.819 58.417c-.091-2.108 7.202-5.962 10.594-3.823-.48 12.459 10.454 12.907 11.579 14.012.65.638.376 3.371-.02 3.771-1.331 1.331-7.741 5.443-10.407 3.61-2.666-1.835-5.585-4.945-5.585-4.945s-6.01-9.115-6.161-12.625z" fill="#141414"/><path d="M166.895 58.687c2.666 1.663 8.739 5.427 7.408 6.758-1.331 1.335-16.072 9.543-18.738 7.709-2.666-1.834-5.585-4.944-5.585-4.944l16.915-9.523z" fill="#333"/><path d="M166.895 58.687c-.935-3.308-1.984-8.51-2.587-9.084-.725-.694-19.157 8.01-18.892 9.527.265 1.517 4.564 9.084 4.564 9.084l16.915-9.527z" fill="#2E2E2C"/><path d="M171.019 60.267c-.091-2.107 7.654-5.879 11.045-3.736-.479 12.456 10.007 12.82 11.132 13.925.649.638.376 3.371-.02 3.772-1.331 1.33-7.741 5.443-10.407 3.609-2.666-1.835-5.586-4.945-5.586-4.945s-6.013-9.115-6.164-12.625z" fill="#141414"/><path d="M185.677 65.231c2.666 1.664 8.83 4.833 7.495 6.164-1.331 1.335-7.741 5.443-10.407 3.609-2.666-1.834-5.586-4.944-5.586-4.944l8.498-4.829z" fill="#333"/><path d="M185.677 65.231c-.935-3.308-3.011-8.121-3.613-8.7-.725-.693-9.714 2.928-9.448 4.45.265 1.517 4.563 9.083 4.563 9.083l8.498-4.833z" fill="#2E2E2C"/><path d="M158.481 67.303c-.091-2.108 7.202-5.962 10.593-3.823-.479 12.455 10.455 12.903 11.58 14.012.649.638.376 3.371-.02 3.771-1.331 1.335-7.741 5.444-10.407 3.613-2.666-1.834-5.586-4.944-5.586-4.944s-6.009-9.12-6.16-12.629z" fill="#141414"/><path d="M173.139 72.267c2.666 1.667 8.83 4.829 7.495 6.164-1.331 1.33-7.741 5.443-10.407 3.609-2.666-1.835-5.586-4.944-5.586-4.944l8.498-4.83z" fill="#333"/><path d="M173.139 72.267c-.935-3.308-3.011-8.121-3.613-8.7-.725-.693-9.714 2.932-9.448 4.449.265 1.517 4.563 9.084 4.563 9.084l8.498-4.833z" fill="#2E2E2C"/><path d="M175.246 74.671c-.538 1.466.468 2.552 2.242 2.425 1.779-.127 3.653-1.415 4.192-2.88.539-1.466-.468-2.551-2.242-2.425-1.775.123-3.653 1.415-4.192 2.88zm.872-.043c.293-.8 1.311-1.838 3.244-2.163.721-.12-.332 1.129-.02 1.485.286.325 1.997-.202 1.803.317-.404 1.098-1.854 2.064-3.245 2.163-1.386.103-2.186-.705-1.782-1.802z" fill="#232323"/><path d="M175.068 74.62c-.578 1.576.499 2.741 2.409 2.606 1.909-.134 3.925-1.52 4.504-3.094.578-1.576-.499-2.741-2.409-2.606-1.905.134-3.922 1.521-4.504 3.094zm.622-.044c.475-1.291 2.131-2.432 3.7-2.543 1.569-.111 2.456.848 1.981 2.139-.476 1.295-2.132 2.432-3.7 2.543-1.573.115-2.456-.844-1.981-2.139z" fill="#141414"/><path d="M198.247 65.655c1.834 1.683 3.561 3.323 3.442 3.922-.119.598-17.957 12.055-23.701 11.215-5.745-.836-4.576-2.726-3.681-4.021 2.833-4.097 22.082-12.824 23.94-11.116z" fill="#232323"/><path d="M128.152 65.552c1.343 2.127 2.856 2.94 2.856 2.94s1.304-5.563 5.634-3.261c4.571 2.428 5.906 7.067 5.712 10.99.004-.072 30.005 17.323 30.005 17.323 0-1.636.931-7.487 5.768-4.694 4.841 2.792 6.354 8.62 6.164 11.591 8.965 3.581 10.173 5.237 14.551 4.215 2.998-.697 7.966-2.337 11.987-4.702 6.323-3.712 10.34-6.965 11.544-9.995.19-.484.416-3.158.158-5.023-.261-.068-.796.04-.796.04-.44-1.72-.087-.453-2.412-3.245-3.887-4.667-17.803-14.52-18.374-14.82 0 0-4.639-5.772-11.734-11.64-1.109-.914-9.405-7.792-18.785-10.818-2.29-.737-11.58-1.102-11.58-1.102s-6.913-3.628-7.658-3.335c-8.002 3.153-18.175 9.294-23.075 13.326-.674.59-1.03 2.694-.955 2.762-.071.602-.353 7.32.99 9.448zm42.571-.107c6.172-2.024 11.607-4.5 17.054-9.848.61-.587 9.595 7.895 12.637 12.094.907 1.252-3.224 4.6-8.933 7.824-4.746 2.682-13.699 5.998-14.305 5.134-3.217-6.184-7.349-14.911-6.453-15.204zm-29.664-5.847c-.095-1.997 10.07-2.674 10.7-2.583 3.823.538 12.435 5.276 14.923 7.543 2.983 2.721 7.265 16.507 7.586 16.729-26.003-16.789-33.158-20.56-33.209-21.69zm-3.577-4.172c2.317-3.605 14.61-11.009 20.421-11.512.63-.056 6.438-.012 10.498.61.04.004.083.016.127.024-10.577 3.324-17.336 9.896-17.336 9.896-1.299.047-14.515 2.23-13.71.982z" fill="#14AFEB"/><path d="M128.088 65.44c1.343 2.128 2.92 3.051 2.92 3.051s1.303-5.562 5.633-3.26c4.572 2.428 5.907 7.067 5.713 10.989.004-.071 30.004 17.324 30.004 17.324 0-1.636.931-7.488 5.768-4.695 4.841 2.793 6.355 8.62 6.164 11.592 4.984 1.988 7.571 3.157 9.635 3.826.392-3.941.855-7.879.998-11.837-1.382-1.442-2.729-2.915-4.08-4.381-1.375-1.49-2.833-2.848-4.358-4.18-1.541-1.346-3.007-2.769-4.472-4.195-.056-.055-.115-.11-.171-.166-2.472.848-3.969.59-4.243.206-3.216-6.184-7.396-13.129-6.932-14.468-9.413-8.826-19.475-11.036-19.475-11.036-1.299.051-14.515 2.234-13.711.982-4.179-1.458-8.232-2.468-9.365-2.084-.673.59-1.03 2.694-.955 2.766-.071.602-.416 7.443.927 9.567zm12.97-6.072c-.095-1.997 10.071-2.619 10.7-2.528 3.823.539 12.436 5.221 14.923 7.487 2.983 2.722 7.266 16.508 7.587 16.73-26.004-16.789-33.158-20.56-33.21-21.69z" fill="#0082C8"/><path d="M219.116 81.64l-.186-.194c0 .004.19.198.19.198l-.004-.004z" fill="#fff"/><path d="M218.609 89.238v-7.436L198.58 94.138s-1.43 5.59-.052 6.402c4.96 2.932 20.081-11.302 20.081-11.302z" fill="#004687"/><path d="M215.269 86.944s1.197 2.198.741 4.353c1.696-.693 4.088-3.6 4.088-3.6L217.1 85.03l-1.831 1.914z" fill="#0082C8"/><path d="M195.074 99.209c1.315.222 4.916.166 7.051-.666 7.578-2.951 12.142-6.04 15.549-8.94 1.101-.936 3.783-3.713 3.542-4.838 0-.107-2.017-2.658-2.33-3.292.056-.079 3.375 2.987 3.486 3.157.21.333.202.761.064 1.26-.321 1.153-3.985 5.653-10.383 9.338-6.743 3.882-12.784 6.096-16.262 6.263-2.619.127-9.35-2.286-11.532-6.656 0 0 .701.508 4.54 2.362.004 0 2.115 1.31 6.275 2.012z" fill="#14AFEB"/><path d="M218.851 81.355c1.271 1.327 2.171 2.82 2.361 3.394a.03.03 0 0 1 .004.016c.237 1.125-2.468 3.851-2.71 4.06-.008.005-3.91-1.322-2.175-3.018 2.163-2.103 3.161-3.775 2.52-4.453z" fill="#CECECE"/><path d="M137.362 55.636c-.031-.055-.051-.15.024-.273 1.109-1.727 4.619-4.457 8.937-6.957 4.592-2.654 8.918-4.377 11.568-4.607.131-.012.455-.02.895-.02 2.056 0 6.398.135 9.631.63a.912.912 0 0 1 .099.02l.467.087-.424.135c-10.427 3.276-17.225 9.805-17.292 9.868l-.032.028-.043.004c-.317.011-1.402.162-2.777.348-2.979.408-7.483 1.022-9.686 1.022-1.066 0-1.288-.142-1.367-.285zm30.686-11.053c-3.177-.455-7.281-.578-9.262-.578-.424 0-.753.008-.875.016-5.661.491-18.005 7.836-20.339 11.465-.012.015-.02.035-.016.047.016.028.143.17 1.181.17 2.187 0 6.679-.614 9.654-1.018 1.375-.19 2.385-.325 2.753-.348.503-.48 7.032-6.533 16.904-9.754z" fill="#004687"/><path d="M200.949 66.915c-.226.915-.511 1.251-.511 1.251s.332 1.597.503 1.296c1.041-1.823.008-2.547.008-2.547z" fill="#00687F"/><path d="M151.418 66.958c-8.268-5.19-10.49-6.584-10.526-7.352-.012-.23.083-.452.277-.654 1.466-1.537 8.969-2.112 10.391-2.112.103 0 .175.004.218.008 3.847.543 12.531 5.325 15.01 7.587 2.251 2.052 5.139 10.062 6.691 14.364.436 1.208.813 2.25.9 2.373 0 0-.008-.012-.024-.02l-.186.278c-10.296-6.656-17.494-11.172-22.751-14.472zm-10.007-7.78c-.131.138-.194.273-.186.408.027.594 3.054 2.495 10.371 7.087 5.174 3.248 12.233 7.677 22.28 14.162-.139-.36-.357-.95-.706-1.925-1.434-3.974-4.413-12.237-6.603-14.234-2.457-2.238-11.037-6.964-14.832-7.499-.012 0-.056-.004-.171-.004-1.691 0-8.834.622-10.153 2.005z" fill="#004687"/><path d="M182.143 79.635c8.042-2.75 19.364-9.318 18.806-12.72 8.196 5.561 16.995 11.86 17.902 14.439.138.4.392.737.031 1.315-.871 1.39-1.319 2.464-4.052 4.635-.404.32.412 3.565-.357 5.308-.451 1.019-3.046 2.262-3.993 2.694-1.561.705-3.355.67-4.995-.067-1.007-.452-.638-.935-1.736-.472-.748.317-1.156.999-2.056 1.292-2.151.701-5.53 2.492-7.832 2.108-2.305-.385-2.689-2.71-3.402-4.537-1.019-2.614-2.916-4.298-4.96-6.187a75.295 75.295 0 0 0-5.954-4.968c-.484-.36-1.823-1.692-2.397-1.704-.004 0 1.573.036 4.995-1.136z" fill="url(#paint0_radial)"/><path d="M193.842 98.242c-1.977-.329-2.564-2.028-3.134-3.672a20.412 20.412 0 0 0-.329-.911c-.97-2.496-2.781-4.164-4.698-5.935l-.242-.226a74.795 74.795 0 0 0-5.946-4.963c-.127-.096-.309-.254-.519-.436-.57-.495-1.434-1.244-1.83-1.252l.004-.15h.016c.17 0 1.743-.032 4.959-1.13 4.069-1.39 8.902-3.731 12.614-6.108 4.211-2.694 6.394-5.016 6.144-6.529l-.028-.174.147.099c7.238 4.912 16.971 11.758 17.93 14.48l.071.181c.135.333.277.678-.047 1.197-.111.174-.21.345-.313.51-.698 1.15-1.355 2.24-3.76 4.149-.134.107-.091.78-.047 1.497.071 1.153.174 2.737-.29 3.783-.451 1.026-2.971 2.25-4.032 2.73a5.818 5.818 0 0 1-2.405.515 6.399 6.399 0 0 1-2.65-.583c-.373-.166-.563-.34-.705-.467-.135-.119-.206-.186-.349-.186-.131 0-.321.055-.622.182-.329.139-.586.349-.86.57-.34.278-.693.559-1.204.725-.551.179-1.184.432-1.858.698-1.731.689-3.688 1.465-5.316 1.465a4.787 4.787 0 0 1-.701-.059zm11.005-3.514c.138.127.313.281.665.44.84.376 1.712.566 2.591.566.82 0 1.608-.166 2.345-.499.816-.368 3.514-1.648 3.958-2.654.447-1.01.348-2.571.277-3.712-.059-.967-.083-1.478.103-1.624 2.381-1.894 3.003-2.92 3.724-4.104l.313-.511c.281-.452.17-.733.036-1.058-.024-.064-.052-.127-.076-.19-.939-2.662-10.533-9.42-17.739-14.313.194 3.53-11.009 9.947-18.873 12.637-2.44.832-3.946 1.058-4.615 1.117.459.238 1.058.757 1.525 1.16.21.183.388.338.511.429a74.274 74.274 0 0 1 5.958 4.975l.242.226c1.929 1.783 3.751 3.467 4.734 5.99.115.297.226.61.329.915.554 1.6 1.125 3.257 3.014 3.573.21.036.436.052.674.052 1.596 0 3.541-.772 5.261-1.458.673-.27 1.311-.523 1.866-.701.483-.158.824-.432 1.152-.701.27-.218.551-.444.896-.59.321-.135.527-.195.681-.195.198.004.309.103.448.23z" fill="#161615"/><path d="M207.85 94.495c.57.36 1.133.729 1.683 1.113.428-.194.856-.396 1.276-.606.107-.055.218-.107.325-.166.107-.056.218-.111.321-.17.213-.116.423-.239.633-.361a13.44 13.44 0 0 0 1.209-.812c.099-.072.19-.15.289-.222.095-.076.186-.155.281-.23.182-.15.357-.309.535-.468.143-.328.222-.689.273-1.053.048-.369.064-.741.064-1.117.004-.75-.068-1.498-.099-2.25-.004-.19-.012-.38.011-.575.004-.047.016-.099.028-.15a.37.37 0 0 1 .083-.159c.08-.067.147-.119.222-.182.293-.234.579-.476.86-.725.558-.5 1.097-1.022 1.569-1.605.237-.289.455-.594.657-.907.206-.313.396-.637.595-.958l.15-.242.067-.119c.02-.04.04-.08.056-.123a.832.832 0 0 0 .039-.519c-.039-.174-.122-.344-.19-.523a2.982 2.982 0 0 0-.241-.495 6.887 6.887 0 0 0-.67-.895 14.969 14.969 0 0 0-.764-.824 33.939 33.939 0 0 0-1.652-1.533c-1.133-.987-2.314-1.921-3.502-2.84a151.813 151.813 0 0 0-3.621-2.69 330.505 330.505 0 0 0-7.396-5.174l.012-.016a330.73 330.73 0 0 1 7.419 5.138c1.225.875 2.437 1.767 3.637 2.678a75.043 75.043 0 0 1 3.522 2.828c.57.492 1.129.999 1.664 1.53.265.265.527.538.772.824.246.285.484.582.682.907.099.162.19.333.253.515.064.174.147.34.194.539a.97.97 0 0 1-.043.59c-.016.047-.04.091-.06.135l-.071.126-.147.242c-.194.32-.388.646-.594.963-.206.317-.428.626-.665.919-.476.59-1.018 1.12-1.577 1.624-.281.25-.57.495-.864.733-.071.06-.15.123-.214.174a.36.36 0 0 0-.043.091.648.648 0 0 0-.024.127c-.02.178-.016.365-.008.55.032.75.107 1.502.107 2.259 0 .376-.016.756-.063 1.137a4.047 4.047 0 0 1-.285 1.109l-.008.016-.012.012c-.183.166-.365.328-.551.487-.095.08-.19.158-.285.234-.095.075-.19.154-.289.23-.194.146-.397.293-.599.427-.202.139-.412.27-.622.396-.209.127-.423.25-.637.369-.107.06-.218.115-.325.174-.107.06-.218.111-.329.166-.436.222-.879.432-1.323.638l-.048.02-.043-.028a51.077 51.077 0 0 0-1.68-1.105c.024-.055.04-.115.056-.178z" fill="#0082C8"/><path d="M177.152 80.76c.681.452 1.347.931 2.004 1.414.658.488 1.308.987 1.945 1.498a87.539 87.539 0 0 1 1.894 1.565c.622.53 1.24 1.07 1.846 1.62.61.55 1.208 1.105 1.799 1.672.594.562 1.172 1.14 1.751 1.723.824.832 1.683 1.612 2.056 2.761-.702-.93-1.367-1.802-2.183-2.638a81.155 81.155 0 0 0-1.735-1.731 83.755 83.755 0 0 0-5.491-4.892 73.41 73.41 0 0 0-1.921-1.526c-.65-.495-1.304-.982-1.965-1.466z" fill="#007D99"/><path d="M177.084 80.713l.519-.769c-2.472-4.75-7.546-13.287-7.075-14.444a.268.268 0 0 1 .163-.162c6.314-2.072 11.627-4.536 17.01-9.82.04-.04.095-.06.167-.06 1.212 0 9.836 8.303 12.637 12.17.139.19.178.428.119.701-.329 1.513-3.811 4.302-9.088 7.285-4.286 2.42-11.805 5.289-13.873 5.289-.301-.004-.491-.068-.579-.19zm10.772-25.033c-5.416 5.312-10.752 7.788-17.094 9.872-.004 0-.016.004-.024.032-.364.891 3.427 7.752 6.869 14.36.024.032-.221.733.064.733 1.996 0 9.587-2.9 13.762-5.257 5.142-2.904 8.668-5.709 8.981-7.139.047-.214.02-.384-.083-.526-2.92-4.025-11.413-12.075-12.459-12.075h-.016z" fill="#004687"/><path opacity=".5" d="M196.714 95.984c1.03.74 2.111 1.414 3.216 2.036.492.274.987.539 1.49.793.507-.163.986-.349 1.43-.555.365-.186.674-.903.844-1.696a30.694 30.694 0 0 1-3.233-1.604c-.99.333-1.984.65-2.579.796-.435.103-.82.178-1.168.23z" fill="#fff"/><path d="M216.482 85.882c.649-.61 2.337-2.686 2.594-3.541a28.87 28.87 0 0 1 .923 2.515c-.451 1.165-1.747 2.762-2.424 3.538-1.014-.527-2.622-1.082-1.093-2.512z" fill="#fff"/><path d="M219.033 81.786c.012.159-.008.321-.044.476a4.064 4.064 0 0 1-.348.887c-.293.563-.67 1.082-1.066 1.573a15.88 15.88 0 0 1-1.291 1.394c-.214.21-.397.472-.393.749-.004.281.179.539.397.74.221.207.483.373.756.52a7.2 7.2 0 0 0 .852.38c.146.056.293.107.44.155l.111.035.055.016.012.004.008.004h-.004a.053.053 0 0 0-.036.004c-.02.012.048-.024-.043.024h.004l.011-.008c.056-.052.111-.107.167-.163.222-.221.44-.447.65-.681.419-.467.828-.947 1.184-1.458a6.51 6.51 0 0 0 .483-.796c.068-.139.127-.277.171-.424a.953.953 0 0 0 .035-.432v-.016.016l-.004-.008-.004-.016-.011-.027-.02-.06-.048-.119c-.035-.079-.071-.154-.107-.233a7.157 7.157 0 0 0-.245-.456c-.088-.15-.179-.297-.27-.444-.047-.07-.095-.142-.142-.217-.048-.072-.095-.143-.147-.218a10.262 10.262 0 0 0-.301-.424c-.103-.139-.21-.278-.317-.416a29.18 29.18 0 0 0-.329-.404 12.07 12.07 0 0 0-.34-.392.723.723 0 0 1 .174.435zm.182-.055c.123.127.234.257.349.388.115.135.226.266.332.404a16.278 16.278 0 0 1 .626.84c.099.147.195.293.286.44.091.15.182.3.261.455.044.076.079.159.119.238.02.04.036.08.055.123l.024.063.012.032.008.016.004.008c0 .004.004.02.004.031v-.016c.036.175.012.345-.028.508a2.636 2.636 0 0 1-.17.46 5.447 5.447 0 0 1-.487.827 16 16 0 0 1-1.189 1.49 17.824 17.824 0 0 1-.824.863l-.012.012-.004.004c-.091.048-.027.012-.047.024a.117.117 0 0 1-.052 0l-.028-.004-.015-.004-.06-.016-.115-.036a7.539 7.539 0 0 1-.451-.158 7.2 7.2 0 0 1-.872-.4 3.895 3.895 0 0 1-.796-.555 1.674 1.674 0 0 1-.313-.392.987.987 0 0 1-.139-.5c0-.177.06-.348.143-.494.087-.147.194-.274.313-.389.234-.217.455-.431.677-.657.218-.226.432-.456.634-.693.206-.238.4-.484.586-.737.183-.254.361-.515.515-.785.155-.273.294-.554.381-.855.043-.15.071-.305.067-.464a.663.663 0 0 0-.154-.432c.118.107.241.23.36.36z" fill="#0082C8"/><path d="M208.685 98.38s5.245-2.523 8.165-5.066c.531-.463 1.105-.044 1.137.725l.04.978c-2.762 2.39-6.545 4.632-10.328 6.347l-.036-.915c-.031-.773.428-1.7 1.022-2.068z" fill="#004656"/><path d="M217.187 94.669c.455.158.84.309.84.349-2.75 2.349-6.6 4.654-10.328 6.346l-.032-.84c3.431-1.6 6.917-3.7 9.52-5.855zM199.736 103.432c1.038.812 5.59-.836 5.59-1.414v-.983c0-.582-.487-.895-1.085-.701-4.291 1.386-4.505 3.098-4.505 3.098z" fill="#0483A0"/><path d="M199.764 103.325c.127-.396.824-1.807 4.477-2.995.118-.04.233-.056.34-.056.076.119.119.27.119.44v.983c.004.499-3.32 1.774-4.936 1.628z" fill="#004656"/><path d="M221.909 89.788c-.269 1.47-2.488 4.441-2.587 3.879l-.17-.975c-.103-.59.115-1.426.475-1.834 2.028-2.322 2.282-1.07 2.282-1.07z" fill="#004687"/><path d="M204.241 100.33c.071-.024.138-.036.206-.048l.293.289c.012.012.027.024.039.04.08.091.135.214.151.372.051.511-.313 1.161-.816 1.45-.377.218-.725.175-.896-.075l-.475-.467a.603.603 0 0 1-.21-.428 1.19 1.19 0 0 1 .064-.495 13.865 13.865 0 0 1 1.644-.638z" fill="#4F4A4A"/><path opacity=".6" d="M203.646 102.461a.814.814 0 0 0 .408-.127c.468-.269.813-.875.765-1.343-.028-.277-.186-.435-.432-.435a.825.825 0 0 0-.408.126c-.467.274-.812.876-.764 1.343.027.278.186.436.431.436z" fill="#D3D3D3"/><path d="M203.781 102.049a1.512 1.512 0 0 1-.507.194.663.663 0 0 1-.063-.218c-.048-.471.293-1.073.764-1.343a.825.825 0 0 1 .408-.126c.238 0 .388.146.428.404-.253.439-.59.836-1.03 1.089z" fill="#D3D3D3"/><path d="M221.196 89.515a.385.385 0 0 1 .032.087c-.187 1.01-1.292 2.73-1.997 3.522l-.075-.436c-.103-.59.115-1.426.475-1.834.721-.832 1.22-1.204 1.565-1.339z" fill="#192D4B"/><path d="M218.027 95.018s-.159.106-.432.297l-.491.344c-.095.064-.194.143-.305.21-.111.072-.21.159-.329.242-.226.17-.476.352-.737.547-.269.182-.551.376-.844.578l-.447.305c-.155.1-.309.198-.468.297-.317.198-.634.408-.959.598-.324.194-.653.385-.974.575-.159.095-.321.186-.483.273-.163.087-.321.174-.476.262-.313.17-.61.34-.903.483-.289.146-.563.289-.82.416-.127.067-.25.119-.365.186a11.46 11.46 0 0 0-.32.182c-.202.111-.381.214-.523.293-.29.163-.456.262-.456.262s.178-.063.491-.186l.559-.218c.107-.044.226-.087.345-.135.122-.047.237-.123.368-.182.253-.131.531-.269.82-.42.293-.143.594-.317.907-.487.159-.084.317-.175.476-.262.162-.087.324-.178.483-.273.325-.19.65-.384.978-.579.329-.194.646-.404.963-.602.158-.099.317-.202.471-.3.151-.104.301-.207.452-.306.293-.202.578-.396.852-.582.265-.194.511-.38.745-.55.114-.088.229-.163.328-.246.103-.084.187-.17.274-.25.17-.158.317-.297.439-.412l.381-.36z" fill="#11C6EF"/><path d="M183.447 95.334s-.008-.051-.028-.15c-.02-.1-.04-.246-.087-.424l-.076-.301c-.027-.111-.063-.226-.099-.353a12.18 12.18 0 0 0-.701-1.79c-.079-.167-.17-.333-.261-.508-.095-.17-.194-.344-.301-.518-.056-.088-.107-.175-.163-.262-.055-.087-.115-.17-.174-.257-.115-.175-.246-.345-.376-.515a10.16 10.16 0 0 0-.872-.975 7.946 7.946 0 0 0-1.018-.84c-.087-.063-.182-.119-.273-.178l-.139-.087-.143-.075c-.095-.048-.186-.107-.285-.147l-.293-.13a5.089 5.089 0 0 0-1.177-.318 4.148 4.148 0 0 0-1.089.012c-.083.008-.162.028-.242.044a6.07 6.07 0 0 1-.229.051c-.147.048-.282.091-.408.139-.123.055-.238.107-.341.158-.103.052-.19.111-.274.159a4.405 4.405 0 0 1-.114.067.883.883 0 0 0-.095.072l-.151.11c-.079.06-.123.096-.123.096l.143-.056c.095-.032.226-.095.404-.147.087-.023.182-.059.289-.087.107-.02.222-.051.345-.079.126-.016.253-.04.392-.055l.214-.012c.071-.004.146-.012.222-.004.075 0 .15.004.229.008.08 0 .159.016.238.023.159.012.321.056.487.084.329.083.666.21 1.003.368.332.167.661.373.978.606.317.234.622.503.915.785.293.28.567.586.828.89.258.314.503.627.729.94.115.154.218.317.329.467.103.159.206.31.297.46.19.3.368.594.519.867.079.135.154.266.222.393.067.126.135.245.194.36l.166.32c.052.1.095.191.139.274a21.56 21.56 0 0 1 .25.515zM155.977 69.462l1.585 1.018s1.371-5.86 3.328-9.658l-1.034-.547c-3.066 2.947-3.879 9.187-3.879 9.187z" fill="#0082C8"/><path d="M141.058 59.598l3.788 3.113s.134-1.794 1.176-5.173l-.665.059c-3.043.408-4.299 2-4.299 2z" fill="#192D4B"/><path d="M211.09 100.247l6.152-3.795-.289-2.183-6.152 3.795.289 2.183z" fill="#D6D6D6"/><path d="M182.222 100.789c1.098-.443.785-1.7.496-2.408-.943-2.334-3.906-4.564-6.474-4.877-.617-.075-1.16-.028-1.56.135-1.098.444-.785 1.7-.496 2.408.943 2.334 3.907 4.564 6.474 4.877.618.075 1.16.032 1.56-.135z" fill="#0082C8"/><path d="M179.841 98.036c.401-.162.286-.622.183-.88-.345-.851-1.422-1.663-2.361-1.778-.226-.028-.424-.012-.571.047-.4.163-.285.623-.182.88.345.852 1.426 1.664 2.361 1.779.226.027.424.008.57-.048z" fill="#192D4B"/><path d="M138.555 76.525c1.184 0 1.362-1.284 1.362-2.048 0-2.516-1.913-5.697-4.175-6.945-.547-.3-1.066-.463-1.498-.463-1.184 0-1.362 1.283-1.362 2.048 0 2.515 1.913 5.697 4.175 6.944.547.302 1.066.464 1.498.464z" fill="#0082C8"/><path d="M137.457 73.245c.476 0 .547-.511.547-.82 0-1.007-.765-2.282-1.672-2.781-.218-.123-.424-.187-.598-.187-.475 0-.547.516-.547.82 0 1.007.765 2.282 1.672 2.781.218.123.424.187.598.187z" fill="#192D4B"/><path opacity=".45" d="M168.048 44.584c-3.177-.456-7.281-.579-9.262-.579-.424 0-.753.008-.875.016-5.661.491-18.005 7.836-20.339 11.465-.012.016-.02.036-.016.047.016.028.143.17 1.181.17 2.187 0 6.679-.613 9.654-1.017 1.375-.19 2.385-.325 2.753-.349.503-.48 7.032-6.533 16.904-9.753zm-26.637 14.594c-.131.139-.194.273-.186.408.027.594 3.054 2.496 10.371 7.087 5.174 3.249 12.233 7.678 22.28 14.163-.139-.36-.357-.951-.706-1.926-1.434-3.973-4.413-12.237-6.603-14.233-2.457-2.239-11.037-6.965-14.832-7.5-.012 0-.056-.004-.171-.004-1.691 0-8.834.622-10.153 2.005zm46.445-3.498c-5.416 5.312-10.752 7.788-17.094 9.872-.004 0-.016.004-.024.032-.364.891 2.924 7.261 6.362 13.873.024.028.281 1.22.567 1.22 1.996 0 9.587-2.9 13.762-5.257 5.142-2.904 8.668-5.708 8.981-7.138.047-.214.02-.385-.083-.527-2.92-4.025-11.414-12.075-12.459-12.075h-.012z" fill="#004EBB"/><path d="M254.176 139.644c2.353-2.139 20.909-15.236 22.664-13.854 1.014.603 1.236 6.549-1.003 10.613-1.612 1.49-18.5 14.915-23.48 12.923.135-2.056-1.663-5.772 1.819-9.682z" fill="#A00"/><path d="M237.482 136.514c.539.46 1.077.919 1.608 1.391-2.317 1.608-4.995 3.09-7.677 4.302l-.036-.915c-.028-.654.733-3.661 1.331-4.778h4.774zM195.886 111.596c.539.46 1.077.919 1.608 1.391-2.317 1.608-4.995 3.022-7.677 4.239l-.036-.852c-.027-.654.733-3.661 1.331-4.778h4.774z" fill="#7F0000"/><path d="M215.662 100.393l12.312-2.65c.796.384 8.573.55 9.999 1.41-.448-.245-10.252.373-9.417.852 9.175 5.241 18.584 10.768 27.794 15.644 2.072 1.098 5.685 2.738 5.008 1.236 0 0-3.173-5.681-4.809-7.531 3.054.769 13.837 12.681 14.677 13.64-.079.65-.166 1.295-.234 1.949-.158 1.541-.273 3.09-.36 4.643-.903.994-37.67 4.389-37.401 5.182-25.366-11.77-50.676-25.315-17.569-34.375z" fill="#232323"/><path d="M258.953 121.417c-1.711 2.706-12.593 8.2-20.374 10.082-6.409-1.89-10.949-5.091-7.539-6.43 3.257-1.279 11.897-5.522 17.514-6.801 3.292-.749 10.728 2.626 10.399 3.149z" fill="#333"/><path d="M262.582 119.551c-1.711 2.706-12.594 8.2-20.374 10.082-6.41-1.89-3.328-3.851.079-5.19 3.256-1.279 9.638-5.146 15.256-6.421 3.288-.749 5.368 1.01 5.039 1.529z" fill="#4F4A4A"/><path d="M243.262 110.499c-1.712 2.706-.626 5.594-8.403 7.476-6.409-1.89-12.173-5.309-9.404-7.706.851-.736 1.343-2.46 6.96-3.735 3.288-.745 11.176 3.442 10.847 3.965z" fill="#333"/><path d="M246.007 113.538c-1.711 2.705-10.855 5.122-11.148 4.437-.883-.983-2.46-4.869.951-6.208 3.256-1.28 10.573-5.978 12.384-5.166 1.22.547-1.858 6.418-2.187 6.937z" fill="#333"/><path d="M247.917 107.71c-1.704 1.846-2.813 2.084-10.542 4.707-6.37.249-3.308-1.462.079-2.896 3.237-1.371 1.458-1.201 7.04-3.047 3.272-1.085 3.751.88 3.423 1.236z" fill="#4F4A4A"/><path d="M237.367 138.927c0-.103-.143-.186-.321-.186-.178 0-.321.083-.321.186s.143.187.321.187c.174-.004.321-.088.321-.187z" fill="#D80000"/><path d="M245.575 145.103c0-3.058-2.171-6.77-4.849-8.287-1.339-.761-2.499-.721-3.43-.325-1.165.499-3.324 1.695-4.116 2.42-2.258 2.06 3.304 11.215 6.342 11.715.757.122 3.668-1.811 4.683-2.445.839-.526 1.37-1.576 1.37-3.078z" fill="#192D4B"/><path d="M241.879 147.215c0-3.058-2.171-6.77-4.849-8.287-2.678-1.522-4.849-.274-4.849 2.784 0 3.059 2.171 6.771 4.849 8.288 2.678 1.521 4.849.273 4.849-2.785z" fill="#192D4B"/><path d="M230.45 117.788c-1.711 2.706-2.488 4.318-10.264 6.2-6.41-1.89-8.517-2.9-7.539-6.43.222-.804 3.268-3.082 8.886-4.361 3.288-.745 9.246 4.068 8.917 4.591z" fill="#333"/><path d="M233.195 120.827c-1.711 2.705-10.854 5.122-11.147 4.437.784-2.156-2.46-4.865.951-6.204 3.256-1.28 10.573-5.978 12.383-5.166 1.22.543-1.858 6.414-2.187 6.933z" fill="#333"/><path d="M235.105 114.999c-1.704 1.846-2.813 2.084-10.542 4.707-6.37.249-3.308-1.462.08-2.896 3.236-1.371 1.457-1.201 7.039-3.047 3.272-1.085 3.752.88 3.423 1.236z" fill="#4F4A4A"/><path d="M195.731 115.055c0-.103-.142-.186-.321-.186-.178 0-.321.083-.321.186s.143.186.321.186c.175 0 .321-.083.321-.186z" fill="#D80000"/><path d="M203.94 121.231c0-3.058-2.171-6.77-4.849-8.287-1.339-.761-2.5-.721-3.431-.321-1.165.499-3.324 1.695-4.116 2.42-2.258 2.06 3.304 11.215 6.342 11.714.757.127 3.669-1.81 4.683-2.444.84-.527 1.371-1.581 1.371-3.082z" fill="#192D4B"/><path d="M200.243 123.343c0-3.059-2.17-6.771-4.848-8.288-2.678-1.521-4.849-.269-4.849 2.789 0 3.058 2.171 6.77 4.849 8.288 2.678 1.517 4.848.269 4.848-2.789z" fill="#192D4B"/><path d="M197.411 125.26c1.184 0 1.363-1.284 1.363-2.048 0-2.516-1.914-5.697-4.176-6.945-.546-.301-1.065-.463-1.497-.463-1.185 0-1.363 1.283-1.363 2.048 0 2.515 1.913 5.696 4.175 6.944.547.305 1.062.464 1.498.464z" fill="#848484"/><path d="M228.307 98.278c1.901 1.608 3.561 3.328 3.442 3.926-.118.598-17.957 12.055-23.701 11.215-5.744-.84-4.984-3.241-2.112-7.309 2.872-4.069 18.718-10.922 22.371-7.832z" fill="#333"/><path d="M225.99 104.394c0 1.549 1.224 2.702 2.733 2.567 1.509-.135 2.733-1.497 2.733-3.05 0-1.553-1.224-2.702-2.733-2.567-1.509.134-2.733 1.497-2.733 3.05zm.744-.047c0-1.007-.737-2.033 2.136-2.286.618-.056.071 1.196.459 1.572.353.345 1.676-.213 1.676.337 0 1.161-.955 2.183-2.135 2.286-1.181.103-2.136-.753-2.136-1.909z" fill="#232323"/><path d="M225.819 104.339c0 1.667 1.315 2.9 2.936 2.757 1.62-.143 2.935-1.612 2.935-3.276 0-1.668-1.315-2.9-2.935-2.757-1.621.142-2.936 1.608-2.936 3.276zm.523-.048c0-1.367 1.078-2.571 2.409-2.69 1.331-.119 2.408.896 2.408 2.266 0 1.367-1.077 2.571-2.408 2.69-1.327.115-2.409-.895-2.409-2.266z" fill="#141414"/><path d="M187.254 113.914c1.343 2.127 2.844 2.67 2.844 2.67s1.022-4.924 5.352-2.619c4.568 2.429 5.907 7.064 5.713 10.99.004-.068 30.25 17.351 30.25 17.351 0-1.636.931-7.487 5.768-4.694s15.454 2.408 16.995 2.032c9.507-2.325 22.941-11.227 22.664-13.853-4.41-3.542-8.589-6.367-8.87-6.513 0 0-2.536-3.756-9.631-9.619-1.109-.915-9.404-7.792-18.785-10.815-2.29-.74-11.58-1.101-11.58-1.101s-10.747-3.466-11.492-3.173c-8.006 3.153-14.341 9.123-19.241 13.156-.674.59-2.821 1.723-2.75 1.795-.067.598-8.58 2.27-7.237 4.393zm50.398-14.983c-10.577 3.324-17.335 9.896-17.335 9.896-1.3.052-14.515 2.235-13.711.983 2.317-3.605 14.61-11.01 20.421-11.512.63-.056 6.438-.016 10.498.61.044.004.088.016.127.023zm2.199 20.897c6.172-2.024 11.607-4.5 17.054-9.848.61-.586 7.131 5.162 10.134 9.5.879 1.268-5.416 5.269-9.983 7.844-7.25 4.084-11.75 5.391-12.36 4.528-2.456-4.909-5.744-11.73-4.845-12.024zm-34.315-7.59c.337.194 15.121-2.658 18.845-1.101 3.106 1.299 10.724 4.849 12.827 8.089.345.531 3.277 8.648 1.427 9.405-1.046.428-6.909.087-33.099-16.393z" fill="#D80000"/><path d="M184.457 110.04c.761 1.367 1.228 1.727 2.725 4.096 1.343 2.127 2.857 2.94 2.857 2.94s1.077-5.329 5.411-3.027c4.568 2.428 5.911 6.98 5.713 10.906.004-.067 30.25 17.351 30.25 17.351 0-1.636 1.271-7.305 6.108-4.508 4.841 2.793 6.236 8.288 6.046 11.259 4.983 1.993 7.729.471 10.003.471.392-3.941.685-6.077.827-10.03-1.263-2.425-9.372-7.313-9.642-7.698-1.268-2.432-5.039-10.074-4.908-11.971-9.417-8.826-19.309-11.152-19.309-11.152-1.299.052-14.736 2.381-13.932 1.133-6.489-3.811-11.948-12.158-13.085-11.77-.872 2.294-1.783 4.037-4.077.535-1.41 1.252-4.191 1.969-4.987 11.465zm21.297 2.056c.337.194 12.919-2.314 17.189-1.367 5.744 1.272 12.36 6.751 13.913 9.025.356.522 3.557 7.966 1.779 8.877-1.442.741-14.064-5.926-32.881-16.535z" fill="#A00"/><path d="M205.703 112.183l.11-.194c-.007-.004-.015-.004-.015-.004s.015.004.063.004c.357 0 1.612-.171 3.197-.388 3.343-.456 8.394-1.149 11.492-1.149.705 0 1.284.035 1.716.111 4.884.816 13.302 6.639 14.681 9.135.246.447 2.928 6.485 2.234 8.454-.103.289-.273.487-.511.582a.492.492 0 0 1-.186.028c-1.862 0-15.24-6.307-32.781-16.579zm3.391-.361c-1.347.183-2.389.325-2.932.373 17.34 10.133 30.5 16.345 32.334 16.345a.34.34 0 0 0 .103-.012c.178-.071.305-.222.384-.452.634-1.794-1.842-7.586-2.218-8.271-1.228-2.227-9.401-8.169-14.523-9.025-.42-.071-.987-.106-1.68-.106-3.086.003-8.133.693-11.468 1.148zM244.605 131.919l-.008-.011c-3.007-5.776-5.083-11.576-4.873-12.095a.134.134 0 0 1 .091-.087c6.719-2.238 11.659-4.568 17.015-9.821a.245.245 0 0 1 .178-.067c.86 0 4.615 3.843 8.723 8.125.508.531.979 1.018 1.387 1.442a.592.592 0 0 1 .158.519c-.269 1.834-7.562 6.041-9.788 7.289-5.317 2.971-10.182 4.972-12.107 4.972-.4-.004-.654-.091-.776-.266zm12.379-21.859c-5.375 5.273-10.327 7.614-17.054 9.86-.051.574 1.735 5.859 4.865 11.873.079.107.285.162.59.162 1.573 0 5.895-1.529 12-4.94 4.547-2.543 9.475-5.748 9.678-7.127a.376.376 0 0 0-.096-.332c-.412-.424-.879-.916-1.386-1.442-2.892-3.015-7.729-8.058-8.565-8.058-.028 0-.032.004-.032.004z" fill="#7F0000"/><path d="M208.84 107.14c5.562-4.778 17.625-8.712 22.509-8.961-2.531-1.462-8.826-3.597-12.851-5.012-4.06-1.43-8.771-1.457-10.617-1.465-.78-.004-2.02 2.947-4.143 3.419-.682-.543-11.929-.48-11.544 1.275-2.583 1.22-1.68 5.926-2.781 6.941 8.442 3.109 16.507 6.984 16.507 6.984s.999-1.529 2.92-3.181z" fill="#D80000"/><path d="M190.522 113.074s-5.875-4.766-4.231-10.637c.349-1.41 3.157-3.866 3.157-3.866s-4.472 2.107-4.94 5.724c-.225 1.735-1.366 4.504 6.014 8.779z" fill="#D80000"/><path d="M190.13 99.632c1.255-.233-2.678.405-2.556 5.487 1.862 3.253 5.61 2.239 4.98 1.45-1.466-1.834-2.317-2.686-2.741-3.545l.317-3.392z" fill="#fff"/><path d="M238.9 128.607c-.761.677-6.18-2.131-6.18-2.131s3.308-1.526 5.491-3.32l.273.61c1.129 2.848.784 4.516.416 4.841zM221.109 120.724l1.83.986s2.531-5.269 4.488-9.068l-1.034-.542c-3.062 2.947-5.284 8.624-5.284 8.624z" fill="#000"/><path d="M277.168 125.953c.416.741.713 3.082.345 5.186-1.49 1.862-2.611 2.666-3.241 3.054 0-1.438-.384-4.663-.384-4.663l3.28-3.577zM261.08 137.156c.381 1.331.23 3.871-.126 5.126-1.644 1.419-5.554 2.777-6.347 2.552-.451-1.68-.154-5.162-.154-5.162l6.627-2.516z" fill="#75001C"/><path d="M274.193 132.593a66.917 66.917 0 0 0-.139-1.541c.468-.397.923-.809 1.355-1.244.709-.713 1.533-1.569 2.136-2.52.075.483.122 1.046.134 1.64-.986 1.371-2.171 2.591-3.486 3.665z" fill="#FF8C2E"/><path d="M277.513 131.138c-.127.135-.254.274-.38.412l-.191.206-.194.198-.194.198a4.03 4.03 0 0 1-.194.198l-.4.385c-.139.126-.277.245-.412.372-.067.063-.143.119-.214.178l-.214.175-.222.166a3.605 3.605 0 0 1-.222.162c-.075.052-.15.107-.225.155l-.234.147.166.095-.055-1.177a3.472 3.472 0 0 0-.024-.293l-.028-.293-.059-.583-.032-.289c-.012-.095-.02-.194-.031-.289l-.08-.578-.087-.579c-.028-.194-.063-.384-.095-.578.008.194.024.388.036.582l.035.583c.028.388.056.776.08 1.164l.039.583.02.293c.008.099.012.194.016.289l.047 1.161.008.198.159-.103.238-.155c.079-.051.154-.107.233-.162.155-.107.301-.23.448-.345l.214-.186c.071-.063.142-.123.21-.186.134-.131.273-.258.404-.392l.384-.408c.063-.068.123-.143.186-.214l.183-.214.178-.218.17-.222c.111-.135.222-.285.333-.436zM261.08 137.156c.02.107.048.21.064.317.016.107.036.214.043.321.012.107.028.214.032.321.008.107.016.214.02.321.004.107.012.214.008.321 0 .107.004.214 0 .321-.004.214-.008.427-.02.641-.012.214-.024.428-.044.642-.007.107-.023.214-.031.321-.012.107-.028.214-.04.321a8.384 8.384 0 0 1-.107.634c-.02.107-.043.21-.067.313-.024.103-.052.206-.079.309l.027-.044-.166.135-.17.127c-.115.083-.234.162-.353.241l-.364.226c-.123.071-.25.143-.377.21-.507.273-1.03.511-1.561.729-.53.222-1.069.42-1.62.586a8.456 8.456 0 0 1-.832.214 4.642 4.642 0 0 1-.42.067c-.138.012-.281.02-.396-.007l.068.067-.072-.309a8.546 8.546 0 0 1-.055-.313c-.02-.103-.028-.214-.044-.317-.016-.107-.024-.214-.035-.321-.008-.107-.024-.214-.028-.321l-.02-.321c-.008-.214-.02-.431-.024-.645-.008-.214-.004-.432-.008-.646 0-.218 0-.432.004-.646.004-.214.008-.432.016-.646.008-.213.012-.431.024-.645-.048.432-.083.859-.107 1.291a23.38 23.38 0 0 0-.048 1.296c-.004.217.004.431.004.649l.012.325c.004.107.012.218.02.325.008.107.012.218.028.325.012.107.02.218.035.325.016.107.032.218.052.325l.071.32.012.052.056.012c.166.039.316.031.467.02.147-.016.293-.036.44-.068.289-.055.57-.13.851-.21.559-.166 1.11-.36 1.648-.578a16.7 16.7 0 0 0 1.573-.757 11.698 11.698 0 0 0 .753-.451c.123-.08.242-.167.36-.254l.175-.135.17-.142.024-.02.008-.028c.023-.107.055-.214.075-.321.02-.107.044-.214.059-.321.036-.213.064-.427.088-.645.011-.107.023-.214.031-.325.008-.107.02-.214.024-.325.016-.218.024-.432.028-.65l.004-.324-.008-.325c-.004-.107-.012-.218-.016-.325-.004-.107-.016-.218-.024-.325-.008-.107-.024-.214-.035-.321-.012-.107-.032-.214-.048-.321-.012-.107-.044-.214-.063-.317l-.092-.301z" fill="#560000"/><path d="M261.302 138.923a13.83 13.83 0 0 1-.047 1.509c-2.151 1.252-4.449 2.234-6.866 2.781a23.307 23.307 0 0 1-.019-1.878c2.381-.546 4.69-1.39 6.932-2.412z" fill="#FF8C2E"/><path d="M265.589 140.504l6.156-3.795-.289-2.183-6.157 3.795.29 2.183z" fill="#D6D6D6"/><path d="M206.491 110.024c-.032-.06-.052-.155.024-.274 1.109-1.727 4.619-4.456 8.937-6.956 4.591-2.654 8.917-4.377 11.567-4.607.131-.012.456-.016.896-.016 2.056 0 6.398.13 9.63.63.032.004.067.012.099.016l.468.087-.424.13c-10.427 3.277-17.225 9.805-17.292 9.869l-.032.027-.044.004c-.316.012-1.402.163-2.777.349-2.979.408-7.483 1.022-9.682 1.022-1.073 0-1.295-.143-1.37-.281zm30.686-11.057c-3.177-.455-7.282-.578-9.262-.578-.424 0-.753.008-.876.016-5.661.49-18.005 7.836-20.338 11.464-.012.016-.02.036-.016.048.016.028.146.17 1.18.17 2.183 0 6.68-.614 9.655-1.018 1.374-.186 2.384-.325 2.753-.349.499-.479 7.028-6.532 16.904-9.753z" fill="#7F0000"/><path d="M190.13 99.633c-1.256 1.224-1.993 2.23-1.93 4.916.888 1.553 2.389 2.385 3.649 2.741-1.089.246-3.502-.233-4.702-2.333.832-4.33 2.21-4.964 2.983-5.324z" fill="#848484"/><path d="M196.238 121.817c.432 0 .499-.467.499-.748 0-.919-.701-2.084-1.529-2.544a1.166 1.166 0 0 0-.546-.17c-.436 0-.5.471-.5.749 0 .919.702 2.083 1.53 2.543.198.115.388.17.546.17z" fill="#192D4B"/><path d="M239.011 149.156c1.184 0 1.363-1.284 1.363-2.048 0-2.516-1.914-5.697-4.176-6.945-.546-.301-1.065-.459-1.497-.459-1.185 0-1.363 1.283-1.363 2.048 0 2.515 1.913 5.696 4.175 6.944.547.301 1.066.46 1.498.46z" fill="#848484"/><path d="M237.925 145.895c.48 0 .551-.519.551-.828 0-1.018-.772-2.305-1.688-2.809-.221-.122-.431-.186-.606-.186-.479 0-.55.519-.55.828 0 1.018.772 2.306 1.687 2.809.218.123.428.186.606.186z" fill="#192D4B"/><path opacity=".45" d="M209.094 111.822c-1.347.182-2.389.325-2.932.373 17.34 10.133 30.5 16.345 32.334 16.345a.34.34 0 0 0 .103-.012c.178-.071.305-.222.384-.452.634-1.794-1.842-7.586-2.218-8.271-1.228-2.227-9.401-8.169-14.523-9.025-.42-.071-.987-.107-1.68-.107-3.086.004-8.133.694-11.468 1.149zm47.89-1.763c-5.375 5.273-10.327 7.614-17.054 9.861-.052.574 1.735 5.859 4.865 11.872.079.107.285.163.59.163 1.573 0 5.895-1.53 11.999-4.94 4.548-2.544 9.476-5.749 9.678-7.127a.374.374 0 0 0-.095-.333c-.412-.424-.879-.915-1.386-1.442-2.892-3.015-7.729-8.058-8.565-8.058-.028 0-.032.004-.032.004zm-19.807-11.092c-3.177-.456-7.282-.578-9.262-.578-.424 0-.753.008-.876.016-5.661.49-18.005 7.835-20.338 11.464-.012.016-.02.036-.016.048.016.027.146.17 1.18.17 2.183 0 6.68-.614 9.655-1.018 1.374-.186 2.385-.325 2.753-.349.499-.479 7.028-6.532 16.904-9.753z" fill="#004EBB"/><path d="M202.933 95.56c.436-.285 3.07 1.189 3.07 1.189l-.099 1.881 1.387 1.288-2.773-1.288-.396-1.683-1.189-1.387z" fill="#A00"/><path d="M204.229 95.869l1.77.88 6.141-3.07s4.203-.029 4.456-.199c.254-.17-5.506-.673-5.506-.673l-6.861 3.062z" fill="#EF1111"/><path d="M192.297 96.69l5.047-.817s2.325.373 2.495.42c.171.048 1.062.55 1.062.55l-.84-.744 2.278-.495c0 .008-8.339-.626-10.042 1.085z" fill="#A00"/><path d="M180.147 78.458c8.652-3.177 20.742-9.804 20.021-12.455 4.405 1.664 8.533 3.899 12.76 5.99 1.248.618 5.697 3.395 6.041 5.051.341 1.628-2.376 2.995-3.141 4.378.301 3.727.4 2.4-.511 4.445-.44.99-2.884 5.015-4.37 4.448-1.275-.491-2.852-.04-4.223.127-1.695.206-2.864 1.573-4.433 1.858-2.444.444-5.134-.638-7.625-.333-3.265.4-4.354-.891-6.787-3.046-2.135-1.894-4.892-3.007-7.249-4.592a81.502 81.502 0 0 1-4.294-3.09c-.226-.174-2.623-.8-1.593-1.263.012-.004 1.723-.167 5.404-1.518z" fill="#14AFEB"/><path d="M200.172 66.003s.091.056.266.159l.748.444c.163.095.341.202.539.313.19.118.396.245.618.38.222.134.456.281.701.432.25.15.499.32.765.49.265.175.543.35.824.54.277.19.566.388.859.594 2.274 1.569 4.6 2.642 6.478 4.766 1.438 1.624 3.339 5.918 3.723 8.05.08.435.119.823.135 1.144.012.321.012.575-.004.753-.012.174-.032.27-.032.27s.028-.092.064-.27c.035-.174.075-.432.091-.76.012-.163.012-.345.012-.543-.008-.198-.012-.408-.036-.634-.016-.226-.055-.464-.091-.713-.048-.25-.095-.511-.166-.777-.535-1.996-1.102-4.928-2.251-6.616-1.172-1.723-4.076-2.365-5.724-3.636-.309-.238-.63-.456-.947-.67-.313-.214-.618-.427-.931-.622-.309-.198-.61-.388-.899-.57-.297-.178-.59-.345-.868-.511-.138-.08-.277-.163-.408-.238a7.705 7.705 0 0 0-.396-.222c-.261-.142-.511-.273-.748-.4-.234-.123-.452-.241-.658-.348-.21-.103-.4-.195-.574-.282-.349-.166-.622-.297-.809-.388l-.281-.135z" fill="#5AC8F5"/><path d="M175.333 80.09l1.514.33c.962.206 2.341.495 4.001.831.828.17 1.727.353 2.682.54l1.466.288c.499.1 1.006.21 1.521.317 1.034.214 2.099.44 3.189.662 2.591.523 5.518.257 7.994.915 2.076.555 3.043.943 5.293 1.094 2.313.158 4.734 1.98 7.008 2.666.122.035.21.07.269.095a.983.983 0 0 0 .095.031s-.032-.011-.087-.04c-.059-.023-.143-.067-.262-.11-2.075-.78-3.743-3.003-5.708-3.526-1.117-.297-2.472.555-3.597.436-2.017-.218-2.876-1.589-5.364-1.573-1.874.012-3.589-.04-5.431-.408-1.09-.218-2.171-.42-3.213-.622-.523-.099-1.03-.206-1.537-.29-.507-.086-.998-.173-1.482-.257-.962-.17-1.874-.32-2.717-.463a436.766 436.766 0 0 0-5.634-.915z" fill="#0082C8"/><path d="M187.202 88.493l6.802 5.582 6.881-2.179-11.144-6.493-2.539 3.09z" fill="#14AFEB"/><path d="M222.107 93.972c.693-1.367 1.802-2.437 2.333-2.71.008-.004.012-.008.016-.008 1.113-.42 5.859 1.442 6.243 1.612.008.004.963 3.68-2.024 2.476-3.712-1.501-6.212-2.064-6.568-1.37z" fill="#0082C8"/><path d="M228.663 95.2c-1.089-.456-4.472-1.545-5.589-1.613a22.863 22.863 0 0 1 2.242-1.283c1.588.174 4.187 1.014 5.479 1.462.043.99.427 2.503-2.132 1.434z" fill="#14AFEB"/><path d="M226.964 94.59c-1.407-.464-3.146-.96-3.89-1.003a22.863 22.863 0 0 1 2.242-1.283c.689.075 1.573.281 2.456.519a22.653 22.653 0 0 0-.808 1.767z" fill="#5AC8F5"/><path d="M180.551 107.345l-1.486-1.485-1.287.891.693.991-.099 2.773 2.179-3.17zM235.838 94.313l-1.276.534.222 1.007.776-.175 1.668.753-1.39-2.12zM225.248 91.171l1.102-.836-.468-.919-.705.365-1.802-.314 1.873 1.704z" fill="#A00"/><path d="M186.156 102.976c.333-1.208.983-2.262 1.731-3.161.583-.535 1.133-.868 1.561-1.244.072.107.139.198.206.297-.61.69-1.842 1.604-2.119 2.139-4.009 7.674 2.987 12.067 2.987 12.067-6.576-4.916-4.916-8.101-4.366-10.098z" fill="#7F0000"/><path d="M211.173 88.928h-4.556l-2.971 1.189-2.575 1.09-2.396-.191s-1.165.087-1.363.384c-.198.297-1.363 1.684-1.363 1.684h-2.302l1.486-3.367h5.348l3.863-1.585 1.683-.396 5.146 1.192z" fill="#11C6EF"/><path d="M211.173 88.929h-4.556l-2.971 1.188-2.575 1.09-2.396-.19s-1.165.087-1.363.384c-.198.297-1.363 1.683-1.363 1.683L199.277 92l3.415.02 2.955-1.589 3.914-.638 1.779.567-.167-1.43z" fill="#0082C8"/><path d="M194.463 91.23l-1.513-2.36-2.729-.583-1.161-2.056 1.747 1.375 3.13.241 2.131 1.874-1.605 1.51z" fill="#11C6EF"/><path d="M210.722 93.746l1.517 2.706-.923 2.908 2.309-2.247-1.251-3.102-.793-.792-.859.527z" fill="#EF1111"/><path opacity=".3" d="M201.99 91.337c.191.095.408.218.642.393.539.404.068.8 1.335.57 1.624-.293.812-1.24 1.791-2.068.341-.29.848-.38.955-.88.083-.38-.527-.645-.464-.942.222-.995 1.696-.884 2.405-1.387 1.184-.836.336-.867-.008-1.802.788-.206 3.902-.55 3.185-1.815-.939-1.656-5.055.393-5.685-1.885.903-.353 4.683-.147 5.019-1.054.44-1.184-1.802-.614-2.064-1.45-.119-.376.567-.753.468-1.169-.127-.558-1.145-.618-1.228-1.085-.186-1.03 1.98-.598 1.885-1.89-.051-.7-.887-.855-1.097-1.446-.162-.46.23-.943 0-1.49-.424-1.017-2.139-1.715-3.13-1.94-.954-.214-1.14.3-1.794-.492-.792-.962-.214-1.628-1.771-2.071-.915-.262-2.214.075-2.904.733-.344.328-.408.847-.721 1.132-.542.5-1.366.476-1.834 1.161-.277.404-.127 1.125-.4 1.438-.875.995-3.466.135-3.882 1.925-.297 1.288 2.115 1.629 1.01 2.437-1.268.923-5.903-1.006-6.188 1.624-.325 3.027 6.117 3.867 7.923 4.025.491.043 2.987-.048 2.9.816-.075.737-1.727.511-1.941 1.01-.25.583.554.694.99 1.046.642.515.61.753.975 1.359.412.685.305.78 1.156 1.176.539.25 1.862.262 2.171.816.369.666-.257 1.042-.428 1.648-.34 1.17.028 1.205.729 1.557z" fill="#fff"/><path opacity=".1" d="M202.624 77.128a2.187 2.187 0 0 1-.341-.266c-.285-.273-.035-.543-.709-.388-.859.198-.431.84-.95 1.402-.183.198-.448.262-.507.594-.044.258.281.44.245.638-.119.674-.899.599-1.275.94-.63.566-.179.585.004 1.223-.42.139-2.072.373-1.692 1.228.499 1.125 2.682-.265 3.019 1.28-.48.242-2.484.099-2.663.717-.233.804.955.416 1.098.982.063.258-.301.512-.25.793.068.376.606.42.654.737.099.697-1.05.404-.998 1.283.027.475.471.579.582.983.087.313-.123.641 0 1.01.226.69 1.133 1.164 1.66 1.319.507.147.606-.206.955.333.419.653.114 1.105.938 1.406.484.178 1.177-.052 1.541-.495.183-.226.214-.575.381-.769.289-.336.725-.32.974-.788.147-.273.068-.765.214-.975.464-.673 1.842-.09 2.06-1.307.159-.871-1.125-1.105-.535-1.652.674-.626 3.134.686 3.284-1.101.175-2.052-3.244-2.627-4.207-2.734-.261-.027-1.584.032-1.537-.554.04-.5.915-.345 1.03-.686.135-.396-.293-.47-.527-.709-.34-.348-.324-.51-.519-.923-.217-.463-.162-.526-.614-.8-.285-.17-.986-.178-1.152-.555-.195-.451.134-.705.229-1.117.175-.784-.019-.808-.392-1.05z" fill="#fff"/><path opacity=".2" d="M202.814 86.916c.123.068.266.147.416.266.349.273.044.542.868.388 1.054-.198.527-.84 1.165-1.403.222-.194.55-.257.618-.594.051-.257-.345-.44-.301-.638.142-.673 1.101-.602 1.56-.942.769-.567.222-.587-.004-1.224.512-.14 2.532-.373 2.068-1.229-.61-1.12-3.28.266-3.692-1.28.587-.24 3.039-.098 3.257-.716.285-.804-1.169-.416-1.339-.983-.08-.257.368-.51.305-.792-.084-.38-.745-.42-.797-.737-.118-.697 1.288-.404 1.224-1.28-.035-.479-.574-.578-.713-.982-.107-.313.147-.638 0-1.01-.273-.69-1.386-1.165-2.032-1.315-.618-.147-.741.206-1.165-.333-.515-.654-.138-1.105-1.148-1.406-.595-.179-1.438.051-1.886.495-.226.222-.265.574-.467.768-.353.337-.888.321-1.193.789-.178.273-.083.764-.257.974-.567.674-2.251.091-2.52 1.308-.194.871 1.375 1.105.658 1.651-.824.626-3.835-.685-4.017 1.102-.21 2.052 3.969 2.626 5.146 2.73.321.027 1.941-.032 1.881.554-.051.499-1.121.344-1.259.685-.163.396.36.472.645.71.416.348.397.51.634.922.27.464.198.531.749.8.349.17 1.208.179 1.406.555.238.452-.166.705-.277 1.117-.226.789.012.813.467 1.05z" fill="#fff"/><path opacity=".3" d="M182.001 105.139c-3.019.705-2.1-2.151-2.429-2.254.099.032 3.07 2.104 2.429 2.254z" fill="#14AFEB"/><path d="M167.268 114.326c-.079-.04.265-.547.186-.587-3.042-1.533-7.139 2.433-12.78-6.211l-.186.586s3.312 9.203 7.174 8.486c3.863-.713 5.606-2.274 5.606-2.274z" fill="#A00"/><path d="M158.093 107.92c.198-.083.935-.471.935-.471s.099.879.063 1.034c-.035.154.721.154.721.154l.686.923s.083 2.508.186 2.484c.103-.024.843-.705.843-.705l.187 1.256.931-.65.281 1.197.269-1.003.745.404-.174-.661c1.192.705 2.531 1.26 3.688 1.862 0 0-1.743 1.561-5.606 2.274-3.862.717-7.174-8.486-7.174-8.486s.535-.127 1.319-.301c.983.368 1.997.729 2.1.689z" fill="#7F0000"/><path d="M227.899 81.394c-.63.721-1.078 2.318-1.086 2.951-.008.543.361 1.18.226 1.7-.448 1.731-2.508.19-3.3.84-.852.7.63 1.953 1.307 2.159 1.011.309 2.457-.12 3.431-.416 2.064-.63 4.762-2.409 5.717-4.417.459-.967-3.078-2.401-3.609-2.607-.563-.218-1.64-.769-2.258-.539a1.21 1.21 0 0 0-.428.33z" fill="#14AFEB"/><path d="M233.813 83.458c-1.442 3.038-9.931 7.808-10.985 2.52.65.312 1.557.72 1.418.586-.206-.199-.634-.96-.634-.96l1.906.353s-.384-.336-.313-.526c.234-.61.222-.476.483-.856.262-.384.484-.86.266-.923-.218-.064.36-1.58.36-1.58.337-.591.678-1.126 1.153-1.482.119-.088.242-.167.376-.23 1.01-.48 6.414 2.167 5.97 3.098z" fill="#192D4B"/><path opacity=".3" d="M204.355 93.504c.092.107.195.238.305.428.258.44.032.872.634.622.773-.32.389-1.35.852-2.254.162-.313.404-.416.452-.959.039-.416-.25-.705-.222-1.026.103-1.081.804-.966 1.145-1.51.562-.91.162-.946-.004-1.968.376-.226 1.854-.598 1.513-1.977-.448-1.806-2.405.428-2.702-2.056.432-.384 2.227-.158 2.385-1.149.21-1.291-.856-.67-.982-1.58-.056-.412.269-.82.221-1.276-.059-.606-.546-.673-.586-1.184-.087-1.121.943-.65.895-2.06-.023-.769-.423-.931-.522-1.581-.08-.503.107-1.03 0-1.624-.202-1.11-1.019-1.874-1.49-2.116-.452-.233-.543.33-.852-.538-.376-1.05-.103-1.775-.844-2.258-.435-.282-1.053.083-1.382.796-.163.356-.194.923-.341 1.236-.257.543-.649.519-.871 1.267-.131.444-.06 1.229-.19 1.57-.416 1.08-1.648.146-1.847 2.099-.142 1.402 1.007 1.775.48 2.654-.602 1.01-2.809-1.097-2.944 1.77-.154 3.3 2.908 4.216 3.768 4.39.234.048 1.422-.051 1.378.892-.035.8-.82.554-.923 1.097-.118.634.262.752.472 1.14.305.563.289.825.463 1.482.198.745.147.848.551 1.284.257.273.887.285 1.03.891.174.725-.123 1.133-.206 1.795-.143 1.283.032 1.319.364 1.703z" fill="#fff"/></g><defs><radialGradient id="paint0_radial" cx="0" cy="0" r="1" gradientUnits="userSpaceOnUse" gradientTransform="rotate(180 99.053 41.284) scale(18.4988)"><stop stop-color="#494947"/><stop offset="1"/></radialGradient><clipPath id="clip0"><path fill="#fff" transform="translate(124 40)" d="M0 0h153.679v116.12H0z"/></clipPath></defs></svg>