<svg width="1600" height="400" fill="none" xmlns="http://www.w3.org/2000/svg" viewBox="0 0 1600 400"><g filter="url(#filter0_d)"><path fill="#F5FCFF" d="M1600 0H0v400h1600z"/></g><path d="M1283.55 313.06c126.22 0 228.55-38.257 228.55-85.45 0-47.193-102.33-85.45-228.55-85.45-126.22 0-228.55 38.257-228.55 85.45 0 47.193 102.33 85.45 228.55 85.45z" fill="#004EBB"/><path d="M1441.86 220.718c5.83 3.383 5.81 8.892-.05 12.256l-121.67 74.377c-5.86 3.365-24.85 4.317-30.68.934l-181.11-105.064c-5.82-3.382-5.8-8.9.05-12.256l131.12-75.338c5.85-3.364 15.41-3.346 21.23.028l181.11 105.063z" fill="#0032A5"/><path d="M1460.55 218.094l.25 5.952c-.38 2.135-1.47 4.011-4.65 6.082l-131.12 75.338c-5.85 3.365-15.41 3.346-21.23-.028l-181.1-105.063c-2.97-1.719-4.01-3.383-4.14-5.231l-.22-6.72 135.52-75.652c5.85-3.365 15.41-3.346 21.23.027l185.46 105.295z" fill="url(#paint0_linear)"/><path d="M1456.21 212.28c5.82 3.383 5.8 8.892-.06 12.256l-131.12 75.338c-5.85 3.365-15.4 3.346-21.23-.027l-181.1-105.064c-5.82-3.383-5.81-8.901.04-12.256l131.12-75.338c6.44-3.891 14.78-3.771 21.23.028l181.12 105.063z" fill="#7DCDFF"/><path d="M1314.45 301.519c-3.38 0-7.46-.952-9-1.876L1124.34 194.58c-2.62-1.526-4.28-3.577-4.28-6.128 0-2.505 1.69-4.187 4.33-5.713l131.12-75.338c2.41-1.386 5.59-2.153 8.96-2.153 3.38 0 6.58.776 9 2.172l181.11 105.063c2.63 1.525 4.46 3.503 4.46 5.795 0 2.302-1.85 4.52-4.5 6.045l-131.12 75.338c-2.01.897-5.6 1.858-8.97 1.858z" fill="#3BB4FF"/><path d="M1252.01 130.897l-5.43-3.152c-2.74-1.599-6.95-1.876-10.21-.841-.4-.028-.67.046-.72.065-.01 0-2-1.147-2-1.147a1.572 1.572 0 0 0-1.55-.009l-81.27 46.177a.72.72 0 0 0 0 1.248l2.07 1.202c-3.34 1.922-3.3 5.185.03 7.117l5.44 3.151c3.32 1.932 8.79 1.941 12.13.019l81.49-46.824c3.33-1.923 3.35-5.075.02-7.006zm-3.05 5.25l-81.49 46.824c-1.67.961-4.4.961-6.06-.009l-5.44-3.152c-1.66-.971-1.66-2.542.02-3.503l.07-.037.18.101.44.259 3.74 2.163 82.68-47.508-4.56-2.644.46.269c1.53-.324 3.31-.139 4.54.573l5.43 3.151c1.67.971 1.66 2.542-.01 3.513z" fill="#97A2C9"/><path d="M1245.68 130.601l-82.67 48.035-9.42-5.463a1.016 1.016 0 0 1-.52-.933l.06-1.821 81.88-46.002 10.67 6.184z" fill="#BFCCD9"/><path d="M1439 219.304l-129.31 74.303-170.62-98.981 129.29-74.303L1439 219.304z" fill="#D5D9EB"/><path d="M1439 217.197L1309.69 291.5l-170.62-98.982 129.29-74.303L1439 217.197z" fill="#EAECF5"/><path d="M1439 215.09l-129.31 74.303-170.62-98.981 129.3-74.304L1439 215.09z" fill="#fff"/><path d="M1254.96 136.507c-22.34 12.838-62.22 36.001-81.49 46.824-1.95 1.1-5.82.629-5.82.629l89.17-50.374c0-.009.23 1.71-1.86 2.921z" fill="#979797"/><path d="M1252.62 138.236l-81.49 46.824c-3.34 1.923-8.8 1.913-12.12-.018l-5.28-3.06 3.04-1.747 5.27 3.06c1.66.97 4.39.97 6.07.009l81.48-46.824c1.67-.962 1.68-2.533.01-3.503l-5.27-3.06 3.03-1.747 5.28 3.06c3.33 1.932 3.32 5.083-.02 7.006z" fill="#D5D9EB"/><path d="M1238.49 126.285l3.17 1.839c1.53-.324 3.31-.139 4.54.573l5.43 3.152c1.67.97 1.66 2.542-.02 3.503l-81.49 46.824c-1.67.961-4.4.961-6.06-.009l-5.43-3.152c-1.67-.97-1.71-2.496-.04-3.457 0 0 .31-.425.31-.952 0-.638-.04-.628-.04-.628l-3.18-.259-2.56 1.774s-.12.481-.03 1.738c.09 1.276.81 2.56 2.49 3.531l5.43 3.152c3.33 1.931 8.79 1.941 12.14.018l81.48-46.824c1.73-.998 2.51-2.32 2.51-3.632v-1.664l-7.92-4.853c-2.88-1.691-7.39-1.913-10.73-.674z" fill="#BFCCD9"/><path d="M1238.5 124.889l3.17 1.839c1.52-.324 3.3-.139 4.53.573l5.43 3.152c1.67.97 1.66 2.542-.02 3.503l-81.47 46.815c-1.68.961-4.4.961-6.07-.009l-5.43-3.152c-1.67-.971-1.67-2.542.02-3.503l.06-.037 2.26-1.35c-.14-.332-2.38-2.403-2.38-2.403l-3.03 1.923c-3.35 1.922-3.3 5.185.03 7.117l5.43 3.151c3.33 1.932 8.79 1.941 12.14.019l81.48-46.824c3.35-1.923 3.36-5.075.03-7.006l-5.43-3.152c-2.91-1.673-7.42-1.895-10.75-.656z" fill="#E6EDF7"/><path d="M1245.76 129.094l-82.68 47.518-3.73-2.163-.45-.259s-.05-.545-.34-1.137a2.517 2.517 0 0 0-.25-.407 2.278 2.278 0 0 0-.75-.702c-.07-.037-.15-.083-.24-.12-.33-.139-.65-.13-.92-.037-.45.129-.83.471-.83.471l-2.08-1.201a.72.72 0 0 1 0-1.248l81.27-46.177a1.547 1.547 0 0 1 1.55.009l1.99 1.155c.09-.018.58-.175 1.26.037.01 0 .03 0 .03.009.15.047.29.111.44.195.02.009.04.018.05.027.03.01.07.046.12.074.1.065.18.139.26.213l.05.046c.13.129.23.259.32.379.01.009.02.028.03.037.14.203.23.388.29.508.02.074.05.148.05.148l4.56 2.625z" fill="#F7F9FC"/><path d="M1244.7 128.484l1.06.61-82.68 47.518-1.19-.693 82.81-47.435z" fill="#E6EDF7"/><path d="M1240.47 126.627l-81.91 47.656s-.02-.592-.23-1.054c-.07-.139-.48-.952-1.19-1.183-.34-.111-1-.12-1.57.203L1238.11 125c.1-.019.63-.157 1.26.037.01 0 .03 0 .04.009.15.046.28.111.43.194l.06.028c.03.009.06.046.11.074.1.064.18.138.27.212a.36.36 0 0 0 .04.047c.13.129.23.258.33.379.01.009.01.027.02.037.15.212-.2.61-.2.61z" fill="#BFCCD9"/><path d="M1241.41 126.571l-82.51 47.61s-.15-.795-.31-1.119c-.1-.203-.52-1.035-1.27-1.238-.96-.259-1.16.166-1.75.434l-.06-.027 82.79-47.444c.09-.018.79-.693 1.75-.176.46.278.87.814 1.16 1.498.04.065.2.462.2.462z" fill="url(#paint1_linear)"/><path d="M1199.59 170.086l-37.79 21.971 64.04 36.989 17.28-.868 36.61-21.897 11.17 6.646 15.28-.074-18.31-10.565-88.28-32.202z" fill="#EBF1FF"/><path d="M1408.4 212.409c.82-.471.84.98.03 1.461-4.98 2.865-9.94 5.712-14.92 8.568-.26.148-.52.314-.8.49-.21.129-.44.259-.65.397-1.09.647-2.23 1.211-3.02.878-.86-.342-.69-1.183-.68-2.052-1.24 1.895-3.3 4.576-4.68 5.398-.71.425-1.26.361-1.43-.545-.11-.573.11-1.276.21-1.932.05-.37-.1-.407-.36-.249-.55.323-1.58 1.478-2.24 2.218-2.21 2.486-4.32 5.12-6.35 7.865-.09.121-.2.222-.3.287-.28.166-.57.111-.63-.176-.1-.406-.15-.822-.16-1.257-2.11 2.579-4.59 5.112-6.93 6.489-.34.203-.69.379-1.03.536-2.9 1.285-6.08 1.599-6.95-1.433-.72-2.523.13-6.248 1.28-9.538 2.73-7.764 8.05-14.964 13.93-19.29.8-.481.78.896.02 1.46-3.99 2.93-7.65 7.293-10.36 12.302-2.39 4.428-5.26 11.776-3.29 14.817 1.12 1.728 4 1.053 6.41-.37.58-.342 1.13-.73 1.63-1.137 1.83-1.506 3.77-3.623 5.44-5.74.12-.73.29-1.497.5-2.31.55-2.209 1.16-4.936 2.22-7.136.45-.943 1-1.599 1.51-1.904.73-.434 1.37-.139 1.46 1.072.22 2.986-2.11 7.256-4.15 10.01-.13.176-.26.342-.39.518-.02.277-.04.554-.03.822 2.86-3.771 5.88-7.283 9.05-10.555.04-.046.1-.092.16-.129.17-.102.35-.12.46-.046.55.379.59.998.45 2.005-.07.361-.14.721-.21 1.091-.16.749.13.85.59.582.41-.24.96-.795 1.44-1.442 1.01-1.368 2-2.994 2.76-4.168.15-.222.31-.379.46-.472.26-.147.49-.11.61.167.22.499.11 1.081.12 1.506.06 1.257.93 1.35 1.66.943.09-.046.29-.166.59-.342.51-.296 1.27-.749 2.09-1.238l2.59-1.544c.45-.268.86-.508 1.17-.684 3.55-2.07 7.14-4.131 10.72-6.193zm-34.14 16.804c-.04.139-.07.286-.1.425.84-1.257 1.58-2.616 2.09-4.021.27-.758.63-1.589.63-2.597-.01-.286-.1-.342-.22-.268-.24.139-.62.767-.79 1.063-.78 1.59-1.21 3.836-1.61 5.398z" fill="#004EBB"/><path d="M1215.26 178.006l-23.7 13.689-4.25-2.459 23.7-13.688 4.25 2.458zM1230.87 168.921l-11.5 6.637-4.25-2.459 11.5-6.636 4.25 2.458zM1276.94 142.394l-41.1 23.699-4.25-2.45 41.1-23.698 4.25 2.449zM1265.2 180.42l38.8-22.405-4.25-2.449-38.8 22.395 4.25 2.459zM1223.75 204.34l35.93-20.732-4.26-2.458-35.92 20.741 4.25 2.449zM1209.38 212.649l9.52-5.444-4.25-2.45-9.52 5.435 4.25 2.459zM1242.13 172.517L1191 202.038l-4.25-2.458 51.12-29.513 4.26 2.45zM1294.7 152.645l-94.62 54.635-4.25-2.459 94.62-54.625 4.25 2.449zM1292.88 186.982l-63.97 36.934-4.25-2.449 63.97-36.935 4.25 2.45zM1285.62 147.404l-38.47 22.21-4.25-2.449 38.47-22.21 4.25 2.449zM1262.4 192.971l51.07-29.485-4.25-2.449-51.07 29.485 4.25 2.449zM1218.85 218.121l37.97-21.924-4.25-2.459-37.97 21.924 4.25 2.459zM1280.49 207.122l-40.34 23.292-4.25-2.459 40.34-23.292 4.25 2.459zM1305.03 192.879l-19.76 11.405-4.25-2.449 19.76-11.415 4.25 2.459zM1334.77 175.779l-24.76 14.271-4.25-2.458 24.75-14.262 4.26 2.449zM1323.03 213.804l38.8-22.395-4.25-2.459-38.8 22.405 4.25 2.449zM1281.58 237.734l35.93-20.741-4.25-2.458-35.93 20.741 4.25 2.458zM1267.21 246.034l9.52-5.434-4.25-2.459-9.52 5.435 4.25 2.458zM1296.63 207.834l-47.79 27.59-4.25-2.449 47.79-27.6 4.25 2.459zM1352.52 186.039l-94.62 54.625-4.25-2.459 94.62-54.625 4.25 2.459zM1336.6 228.519l-49.87 28.792-4.25-2.459 49.87-28.791 4.25 2.458zM1343.96 252.088l-22.25 12.857-4.25-2.458 22.25-12.857 4.25 2.458zM1343.46 180.798l-41.8 24.133-4.25-2.459 41.79-24.133 4.26 2.459zM1319.63 226.716l51.67-29.836-4.25-2.458-51.68 29.836 4.26 2.458zM1276.68 251.506l37.97-21.924-4.25-2.449-37.97 21.915 4.25 2.458z" fill="#BFCCD9"/><path d="M1363.85 179.559l-57.67 33.293V132.43l57.67-22.099v69.228z" fill="#EFF4FC"/><path d="M1363.85 125.859l-24.29 2.865-33.38 34.087V132.43l57.67-22.099v15.528z" fill="#E1E6F0"/><path d="M1306.18 212.852l-18.31-10.565-39.35-80.394 57.66 33.293v57.666z" fill="#BFCCD9"/><path d="M1301.98 168.274l-88.56-51.075 9.15-8.43 83.61 46.418v7.625l-4.2 5.462z" fill="#9DB2C9"/><path d="M1287.87 202.288l-3.81 2.2-1.46-.546-33.38 19.715.01.989-6.1 3.531V170.52l44.74-37.461v69.229z" fill="#EFF4FC"/><path d="M1243.12 228.177l-61.14-34.448v-44.144l61.14 20.935v57.657z" fill="#BFCCD9"/><path d="M1238.93 195.124l-56.95-32.876V147.33l61.14 34.716v7.625l-4.19 5.453z" fill="#9DB2C9"/><path d="M1218.61 197.176l11.43 6.757.42-14.197-11.68-6.618-.17 14.058z" fill="#BFCCD9"/><path d="M1215.97 198.701l13.62 7.857.64-3.716-10.72-6.193-3.54 2.052z" fill="#F7F9FC"/><path d="M1215.97 198.701l7-.046-3.46-2.006-3.54 2.052z" fill="#E6EDF7"/><path d="M1215.97 198.701v-17.127l3.54 1.84v13.235l-3.54 2.052z" fill="#E6EDF7"/><path d="M1215.91 188.368v-6.156l3.59 2.108.01 6.303-3.6-2.255z" fill="#E6EDF7"/><path d="M1230.77 195.152l-.01-1.072-12.02-6.941-.91.536 12.94 7.477z" fill="#616B8C"/><path d="M1217.83 187.675l.91-.536.05-4.021-.96.518v4.039z" fill="#616B8C"/><path d="M1217.83 183.127l-.01 4.548 12.63 7.292c0 .379 0 .749.01 1.128l-13.62-7.857.02-5.73c.18.129.83.536.97.619z" fill="#3D4663"/><path d="M1229.12 205.79l.92-.527-13.22-7.635-.91.537 13.21 7.625z" fill="#7E87A8"/><path d="M1215.91 198.165l.91-.536.05-15.186-.92.536-.04 15.186zM1230.1 207.473l.91-.537.05-17.413-.92.527-.04 17.423z" fill="#616B8C"/><path d="M1230.14 190.05l.92-.527-15.16-8.753-.91.527 15.15 8.753z" fill="#7E87A8"/><path d="M1230.1 207.473l-15.16-8.753.05-17.423 15.15 8.753-.04 17.423zm-14.19-9.307l13.22 7.625.04-15.186-13.21-7.625-.05 15.186z" fill="#3D4663"/><path d="M1221.57 188.765l1.59.925-.3-2.718-1.51-.878.22 2.671zM1224.58 190.503l.58.333-.35-2.745-.51-.296.28 2.708zM1193.38 182.61l11.43 6.756.42-14.188-11.68-6.627-.17 14.059z" fill="#BFCCD9"/><path d="M1190.73 184.134l13.63 7.856.64-3.715-10.73-6.193-3.54 2.052z" fill="#F7F9FC"/><path d="M1190.73 184.134l7.02-.046-3.48-2.006-3.54 2.052z" fill="#E6EDF7"/><path d="M1190.73 184.135v-17.118l3.54 1.839v13.227l-3.54 2.052z" fill="#E6EDF7"/><path d="M1190.68 173.801v-6.155l3.59 2.107.01 6.313-3.6-2.265z" fill="#E6EDF7"/><path d="M1205.55 180.585l-.03-1.072-12.01-6.941-.92.536 12.96 7.477z" fill="#616B8C"/><path d="M1192.59 173.108l.92-.536.05-4.021-.96.518-.01 4.039z" fill="#616B8C"/><path d="M1192.61 168.561l-.01 4.547 12.63 7.293c0 .379 0 .748.01 1.127l-13.62-7.856.02-5.731c.17.139.82.546.97.62z" fill="#3D4663"/><path d="M1203.89 191.234l.92-.536-13.22-7.626-.91.527 13.21 7.635z" fill="#7E87A8"/><path d="M1190.68 183.599l.91-.527.05-15.186-.92.527-.04 15.186zM1204.86 192.907l.92-.527.05-17.423-.92.536-.05 17.414z" fill="#616B8C"/><path d="M1204.91 175.493l.92-.536-15.16-8.753-.92.536 15.16 8.753z" fill="#7E87A8"/><path d="M1204.87 192.906l-15.16-8.753.04-17.423 15.16 8.753-.04 17.423zm-14.19-9.307l13.22 7.625.04-15.186-13.22-7.625-.04 15.186z" fill="#3D4663"/><path d="M1196.34 174.208l1.59.915-.3-2.718-1.52-.878.23 2.681zM1199.36 175.945l.56.324-.34-2.736-.51-.296.29 2.708z" fill="#BFCCD9"/><path d="M1236.89 190.956l-59.88-34.854-1.54-3.282 59.88 34.855 1.54 3.281z" fill="#003382"/><path d="M1290.16 147.635l-47.03 42.036-.02-6.359 45.88-42.877 1.17 7.2z" fill="#E1E6F0"/><path d="M1235.35 187.675l-59.88-34.855 52.5-49.264 59.89 34.854-52.51 49.265z" fill="#0046B4"/><path d="M1287.86 138.411l.02 4.908-50.98 47.637-1.55-3.281 52.51-49.264z" fill="#507DCD"/><path d="M1235.84 187.86l52.06-49.384-52.58 48.756-59.83-34.347 59.61 35.16 1.82 2.976-1.08-3.161z" fill="#0046B4"/><path d="M1337.23 119.389l-83.73-48.931 38.96-3.605 83.73 48.941-38.96 3.595z" fill="#0069DC"/><path d="M1299.93 163.995l-83.73-48.932-1.55-3.29 83.73 48.941 1.55 3.281z" fill="#003382"/><path d="M1298.38 160.713l-83.73-48.941 38.85-41.315 83.73 48.932-38.85 41.324z" fill="#0046B4"/><path d="M1337.23 119.389l38.96-3.596-1.51 5.047-37.43 3.466-37.32 39.689-1.54-3.281 38.84-41.325z" fill="#507DCD"/><path d="M1277.15 76.826l8.25 4.732 4.76 1.312-6.59-9.862-6.42 3.818z" fill="#E6EDF7"/><path d="M1299.85 67.592l-9.69 5.592-9.68-5.592 9.68-5.592 9.69 5.592z" fill="#F7F9FC"/><path d="M1290.16 64.357l5.6 3.235-5.6 3.235v-6.47z" fill="#BFCCD9"/><path d="M1299.85 80.19l-9.69 2.68v-9.686l9.69-5.592V80.19z" fill="#EFF4FC"/><path d="M1290.16 82.87l-9.68-5.591v-9.687l9.68 5.592v9.687z" fill="#BFCCD9"/><path d="M1284.55 67.592l5.61-3.235v6.47l-5.61-3.235z" fill="#E6EDF7"/><path d="M1298.84 160.815l38.39-41.426-38.92 40.807-83.65-48.424 83.45 49.246 1.82 2.976-1.09-3.179z" fill="#0046B4"/><path d="M1282.6 203.942l-33.39 19.715v-34.559l34.84-20.186-1.45 35.03z" fill="#CAD8ED"/><path d="M1284.06 204.488l-1.46-.546v-34.013l1.45-1.017.01 35.576z" fill="#BFCCD9"/><path d="M1284.05 169.929l-34.83 20.186v-1.017l34.83-20.186v1.017zM1282.6 180.022l-33.39 19.355v-1.017l33.39-19.355v1.017zM1282.6 189.284l-33.39 19.354v-1.016l33.39-19.355v1.017zM1282.6 198.544l-33.39 19.355v-1.017l33.39-19.355v1.017z" fill="#F7F9FC"/><path d="M1268.6 210.097c0 .287-.24.666-.53.832-.28.167-.52.065-.52-.222 0-.286.24-.665.52-.831.3-.167.53-.074.53.221z" fill="#BFCCD9"/><path d="M1326.97 200.846l1.13.647v-43.257l-1.14-.637.01 43.247z" fill="#3D4663"/><path d="M1348.89 189.504v-43.256l-20.81 11.997.02 43.247 1.93-1.109v-.878l16.36-9.215.57.323 1.93-1.109z" fill="#616B8C"/><path d="M1330.03 199.764l16.93-9.761v-40.419l-16.93 9.77v40.41z" fill="#E6EDF7"/><path d="M1326.96 157.598l1.12.647 20.81-11.997-1.14-.656-20.79 12.006z" fill="#7E87A8"/><path d="M1346.39 190.336l.57.277v-41.029l-.57.333v40.419z" fill="#3D4663"/><path d="M1330.97 180.804c0 .776.54 1.091 1.22.702.67-.388 1.22-1.331 1.22-2.116 0-.777-.55-1.091-1.22-.703-.67.398-1.22 1.341-1.22 2.117z" fill="#BFCCD9"/><path d="M1331.17 180.466c0-.675.47-1.498 1.06-1.84.29-.166.56-.185.74-.074.01 0 .45.259.45.259l-1.54 2.57-.34-.194c-.23-.102-.37-.352-.37-.721z" fill="url(#paint2_linear)"/><path d="M1331.48 180.641c0 .675.47.952 1.06.61.58-.342 1.06-1.156 1.06-1.839 0-.675-.47-.953-1.06-.611-.59.342-1.06 1.165-1.06 1.84z" fill="#fff"/><path d="M1331.57 180.696c0 .675.47.952 1.06.61.58-.342 1.06-1.155 1.06-1.839 0-.675-.47-.952-1.06-.61-.58.342-1.06 1.155-1.06 1.839z" fill="#E6EDF7"/><path d="M1332.26 180.309c0-.278.19-.601.42-.74.12-.064.22-.074.3-.027l.18.194-.54.915-.23-.047c-.07-.046-.13-.147-.13-.295z" fill="url(#paint3_linear)"/><path d="M1332.46 180.373c0 .24.17.342.38.222.21-.12.41-.416.41-.657 0-.24-.2-.342-.41-.221a.837.837 0 0 0-.38.656z" fill="#fff"/><path d="M1332.51 180.391c0 .241.16.342.38.222.21-.12.38-.416.38-.656 0-.24-.17-.342-.38-.222-.21.13-.38.416-.38.656z" fill="#E6EDF7"/><path d="M1332.63 180.373c0-.194.14-.425.29-.517.09-.046.16-.056.22-.019l.9.527-.43.73-.87-.508c-.08-.037-.11-.111-.11-.213z" fill="url(#paint4_linear)"/><path d="M1336.34 179.763c-.71-.406-.38-.499-1.09-.905 0 0 .08-.111.2-.185.1-.065.2-.028.26 0 .15.083.34.175.46.277.42.379.17.804.17.813z" fill="#E6EDF7"/><path d="M1336.17 179.948c-.7-.407-.54-.305-.65-.37-.42-.249-.42-.989 0-.739.71.406.54.268.68.342.42.249-.03.767-.03.767z" fill="#BFCCD9"/><path d="M1334.04 180.354l-.25-.147c-.05.037-.11.064-.17.101-.23.13-.33.407-.32.601l.3.176.44-.731z" fill="#E6EDF7"/><path d="M1333.75 180.346c.68-.388 1.35-.776 2.02-1.165.09-.074.08-.147-.03-.212l-.2-.111s-.18-.111-.06-.194c.09-.065.3.046.3.046l.28.166c.21.139.19.259.17.518-.07.277-.13.342-.39.49-.67.379-2.07 1.377-2.07 1.377l-.25-.129c-.18-.102-.1-.592.23-.786z" fill="#F7F9FC"/><path d="M1334 181.214l2.1-1.22c.49-.277.3-.998.11-.85-.71.406-1.5.924-2.2 1.331-.44.249-.44.989-.01.739z" fill="#E6EDF7"/><path d="M1334 181.149a.23.23 0 0 0 .13-.037c.12-.065.53-.416.78-.647.04-.046.01-.129-.06-.12-.22.018-.56.055-.64.074a.522.522 0 0 0-.13.055.575.575 0 0 0-.27.453c.01.13.08.222.19.222z" fill="#F7F9FC"/><path d="M1333.87 180.928c0 .148.1.212.24.138a.525.525 0 0 0 .24-.406c0-.148-.1-.213-.24-.139a.512.512 0 0 0-.24.407z" fill="#BFCCD9"/><path d="M1334 181.066c.03 0 .05-.009.09-.027a.499.499 0 0 0 .22-.389c0-.092-.03-.138-.1-.138-.03 0-.05.009-.09.027a.499.499 0 0 0-.22.389c0 .083.03.138.1.138z" fill="#E6EDF7"/><defs><filter id="filter0_d" x="-4" y="-2" width="1608" height="408" filterUnits="userSpaceOnUse" color-interpolation-filters="sRGB"><feFlood flood-opacity="0" result="BackgroundImageFix"/><feColorMatrix in="SourceAlpha" values="0 0 0 0 0 0 0 0 0 0 0 0 0 0 0 0 0 0 127 0"/><feOffset dy="2"/><feGaussianBlur stdDeviation="2"/><feColorMatrix values="0 0 0 0 0 0 0 0 0 0 0 0 0 0 0 0 0 0 0.08 0"/><feBlend in2="BackgroundImageFix" result="effect1_dropShadow"/><feBlend in="SourceGraphic" in2="effect1_dropShadow" result="shape"/></filter><linearGradient id="paint0_linear" x1="1118.35" y1="209.125" x2="1460.8" y2="209.125" gradientUnits="userSpaceOnUse"><stop offset=".495" stop-color="#005EB0"/><stop offset=".619" stop-color="#0F98ED"/></linearGradient><linearGradient id="paint1_linear" x1="1199.36" y1="150.845" x2="1197.65" y2="147.889" gradientUnits="userSpaceOnUse"><stop stop-color="#BFCCD9"/><stop offset=".006" stop-color="#C0CDDA"/><stop offset=".116" stop-color="#D5DFEA"/><stop offset=".225" stop-color="#E2E9F4"/><stop offset=".328" stop-color="#E6EDF7"/><stop offset=".686" stop-color="#E4EBF6"/><stop offset=".82" stop-color="#DDE6F0"/><stop offset=".917" stop-color="#D1DBE7"/><stop offset=".995" stop-color="#C0CDDA"/><stop offset="1" stop-color="#BFCCD9"/></linearGradient><linearGradient id="paint2_linear" x1="1331.32" y1="181.062" x2="1332.82" y2="178.465" gradientUnits="userSpaceOnUse"><stop offset=".015" stop-color="#BFCCD9"/><stop offset=".467" stop-color="#F7F9FC"/></linearGradient><linearGradient id="paint3_linear" x1="1332.34" y1="180.566" x2="1332.95" y2="179.517" gradientUnits="userSpaceOnUse"><stop offset=".015" stop-color="#BFCCD9"/><stop offset=".467" stop-color="#F7F9FC"/></linearGradient><linearGradient id="paint4_linear" x1="1333.06" y1="180.767" x2="1333.48" y2="180.029" gradientUnits="userSpaceOnUse"><stop offset=".015" stop-color="#BFCCD9"/><stop offset=".467" stop-color="#F7F9FC"/></linearGradient></defs></svg>