<svg width="1600" height="400" fill="none" xmlns="http://www.w3.org/2000/svg" viewBox="0 0 1600 400"><g filter="url(#filter0_d)"><path fill="#F5FCFF" d="M1600 0H0v400h1600z"/></g><mask id="a" maskUnits="userSpaceOnUse" x="623" y="0" width="977" height="400"><path transform="matrix(-1 0 0 1 1600 0)" fill="#F5FCFF" d="M0 0h977v400H0z"/></mask><g mask="url(#a)"><path d="M1811.84 8.01l-221.16 12.087-412.3 43.203-76.81 45.616 349.28 203.445 293.2 27.611 67.79-331.961z" fill="#00AD00"/><path d="M1721.26 4.697S967.115 28.777 916.425 112.28C853.991 215.137 1472.9 491 1472.9 491l522.48-123.8s-828.17-206.809-790.9-269.085c38.95-65.08 809.99-83 809.99-83L1721.26 4.696z" fill="#fff"/><path d="M1531.55 450.392S919.755 205.655 975.078 112.279C1024.87 28.243 1779.91 7.401 1779.91 7.401l168.74 3.197s-771.51 22.153-809.99 87.508c-41.13 69.872 790.89 300.67 790.89 300.67l-398 51.616z" fill="#004EBB"/><path d="M1470.62 134.583h-5.63v110.662h5.63V134.583z" fill="#5F6464"/><path d="M1422.5 117.688l38.98-39.472a8.926 8.926 0 0 1 12.74 0l38.98 39.472c3.52 3.564 3.52 9.34 0 12.913l-38.98 39.463a8.925 8.925 0 0 1-12.74 0l-38.98-39.463c-3.52-3.573-3.52-9.349 0-12.913z" fill="#fff"/><path d="M1427.4 120.869l37.22-37.695a4.52 4.52 0 0 1 6.46 0l37.23 37.695c1.79 1.811 1.79 4.741 0 6.544l-37.23 37.694a4.52 4.52 0 0 1-6.46 0l-37.22-37.694c-1.79-1.812-1.79-4.741 0-6.544z" fill="#fff"/><path d="M1467.85 168.128c-1.66 0-3.22-.659-4.4-1.845l-37.22-37.694c-2.42-2.454-2.42-6.444 0-8.906l37.22-37.694a6.134 6.134 0 0 1 4.39-1.845c1.66 0 3.23.651 4.4 1.845l37.23 37.694a6.278 6.278 0 0 1 1.82 4.449 6.34 6.34 0 0 1-1.82 4.457l-37.23 37.694a6.131 6.131 0 0 1-4.39 1.845z" fill="#004EBB"/><path d="M1485.15 141.61c9.55-9.674 9.55-25.357 0-35.031a24.252 24.252 0 0 0-34.6 0c-9.56 9.674-9.56 25.357 0 35.031a24.253 24.253 0 0 0 34.6 0z" fill="#fff"/><path d="M1489.4 131.71c4.16-12.052-2.12-25.24-14.04-29.439-11.9-4.207-24.92 2.162-29.08 14.215-4.15 12.053 2.13 25.241 14.04 29.439 11.91 4.207 24.94-2.162 29.08-14.215z" fill="#fff"/><path d="M1445.52 128.881c.8 3.84 2.53 7.329 4.96 10.209 3.66-16.519 18.22-28.872 35.64-28.872-.35-.467-.71-.901-1.09-1.344a36.667 36.667 0 0 0-6.74-.643c-14.38.009-26.81 8.422-32.77 20.65z" fill="#0046B4"/><path d="M1457.6 144.757a22.513 22.513 0 0 0 10.25 2.462c12.61 0 22.83-10.35 22.83-23.121 0-4.374-1.2-8.464-3.28-11.944-15.85 2.896-28.15 16.151-29.8 32.603zM1473.72 105.602c3.21 0 6.32.426 9.28 1.21-4.03-3.622-9.34-5.834-15.16-5.834-10.88 0-19.98 7.712-22.27 18.029 6.72-8.188 16.83-13.405 28.15-13.405z" fill="#46B400"/></g><path d="M1232.62 162.413l33.78 6.383s12.87 1.411 10.42 16.734c-1.72 10.762-6.21 46.569-6.21 46.569s-10.34 4.182-14.24-1.548c-3.9-5.73 1.12-42.288 1.12-42.288l-37.44-14.435c.01.007.26-10.952 12.57-11.415z" fill="#132D3D"/><path d="M1338.38 325.001c4.86-9.257-31.41-37.858-81-63.882-49.59-26.025-93.73-39.618-98.58-30.361-4.86 9.257 31.4 37.858 80.99 63.882 49.59 26.025 93.73 39.618 98.59 30.361z" fill="#0032A5"/><path d="M1176.08 214.643l.07-1.199.13-1.153.17-1.101.22-1.055.27-1.009.31-.956.36-.904.4-.857.44-.805.48-.751.51-.698.56-.638.59-.584.62-.531.66-.471.69-.41 7.14-4.227-.69.41-.66.47-.63.532-.59.584-.55.637-.52.699-.48.751-.44.805-.39.857-.36.903-.31.957-.26 1.009-.22 1.055-.18 1.1-.13 1.154-.07 1.199-.03 1.245.03 1.275.07 1.282.13 1.298.18 1.306.22 1.312.26 1.313.31 1.313.36 1.313.39 1.313.44 1.306.48 1.298.52 1.29.55 1.275.59 1.267.63 1.245.66 1.229.69 1.207.72 1.184.75 1.161.78 1.131.58.782s3.23 4.144 5.16 5.79v-.007l.42.379.96.828.98.781.99.729 1.01.675 1.03.623 1.02.561 1.01.486 1 .417.98.35.96.28.94.213.93.144.9.084.88.015.86-.046.83-.106.81-.175.78-.235.75-.296.71-.341-6.43 3.809-.69.41-.72.357-.76.296-.78.235-.8.175-.84.106-.85.046-.88-.016-.91-.083-.92-.144-.94-.213-.97-.281-.98-.349-.99-.417-1.01-.486-1.03-.561-1.02-.623-1.01-.675-.99-.729-.98-.782-.97-.827-.34-.311-.01-.008-.06-.06-.54-.494-.92-.918-.9-.956-.89-.994-.85-1.033-.84-1.07-.8-1.1-.78-1.131-.76-1.161-.72-1.184-.69-1.207-.66-1.229-.62-1.245-.59-1.267-.56-1.275-.51-1.291-.48-1.297-.44-1.306-.4-1.313-.36-1.313-.31-1.313-.27-1.313-.22-1.313-.17-1.305-.13-1.298-.07-1.29-.03-1.275.03-1.245zM1216.46 248.902l-.02.015.71-.425-.69.41z" fill="#192D4B"/><path fill-rule="evenodd" clip-rule="evenodd" d="M1192.45 221.019l7.13-4.227-.32.25-.29.304-.24.356-.21.41-.17.463-.12.516-.08.562-.02.607.02.63.08.652.12.653.17.653.21.653.24.645.29.63.32.614.35.6.39.569.4.539.43.501.46.47.47.418.5.379.5.319.51.266.49.189.47.122.46.053.43-.008.41-.068.38-.129.35-.19-7.14 4.228-.35.189-.38.137-.41.068-.43.008-.45-.061-.47-.121-.5-.19-.51-.258-.5-.326-.49-.372-.48-.425-.45-.463-.43-.509-.41-.539-.39-.569-.34-.592-.32-.615-.28-.637-.25-.645-.22-.653-.16-.653-.13-.652-.06-.645-.03-.638.03-.607.06-.562.13-.516.16-.463.22-.409.25-.357.28-.304.32-.25z" fill="#CACACA"/><path fill-rule="evenodd" clip-rule="evenodd" d="M1200.19 234.991l7.13-4.228.39-.303.35-.372.29-.433.26-.501.2-.561.15-.623.09-.675.03-.736-.03-.774-.09-.782-.15-.797-.2-.789-.26-.79-.29-.781-.35-.767-.39-.744-.42-.721-.47-.69-.49-.66-.52-.608-.56-.569-.57-.508-.6-.456-.61-.394-.62-.312-.59-.235-.58-.144-.54-.068-.53.007-.5.084-.46.159-.42.228-7.14 4.235.43-.236.46-.159.5-.083.52-.008.55.068.58.152.59.228.61.319.62.387.6.455.57.516.55.562.52.614.5.653.46.691.43.721.38.744.35.766.3.782.26.789.19.797.16.789.09.79.03.766-.03.736-.09.683-.16.623-.19.561-.26.494-.3.44-.35.364-.38.304z" fill="#14AFEB"/><path fill-rule="evenodd" clip-rule="evenodd" d="M1210.88 254.283l7.13-4.235.7-.493.66-.562.63-.622.59-.676.55-.736.51-.797.46-.85.43-.903.38-.964.33-1.017.28-1.07.24-1.115.19-1.169.13-1.222.08-1.275.03-1.321-.03-1.351-.08-1.366-.13-1.373-.19-1.382-.24-1.396-.28-1.397-.33-1.396-.38-1.396-.43-1.389-.46-1.389-.51-1.381-.55-1.367-.59-1.358-.63-1.343-.66-1.321-.7-1.305-.73-1.283-.77-1.252-.8-1.23-.82-1.206-.86-1.162-.88-1.138-.91-1.093-.94-1.062-.96-1.017-.98-.972-1-.926-1.02-.88-1.04-.827-1.06-.774-1.08-.714-1.08-.66-1.09-.592-1.07-.516-1.06-.44-1.04-.372-1.02-.296-1-.228-.99-.159-.95-.084-.94-.023-.91.054-.88.113-.86.183-.83.242-.8.312-.76.379-7.14 4.227.77-.372.8-.311.82-.25.86-.182.89-.114.91-.053.93.023.97.083.98.159 1 .228 1.02.296 1.04.372 1.06.44 1.07.524 1.08.584 1.09.66 1.08.721 1.05.775 1.04.827 1.03.873 1 .925.98.98.95 1.017.94 1.054.91 1.101.88 1.131.86 1.169.83 1.199.8 1.229.76 1.26.74 1.275.7 1.305.66 1.329.63 1.335.59 1.359.55 1.366.5 1.381.48 1.389.41 1.396.38 1.397.34 1.396.28 1.397.23 1.389.19 1.381.14 1.381.07 1.366.03 1.351-.03 1.313-.07 1.275-.14 1.222-.19 1.169-.23 1.123-.28 1.063-.34 1.017-.38.963-.41.904-.48.85-.5.797-.55.736-.59.683-.63.614-.66.562-.7.501z" fill="#CACACA"/><path fill-rule="evenodd" clip-rule="evenodd" d="M1191.01 194.061l7.13-4.227-1.13-.023-7.13 4.227 1.13.023z" fill="#192D4B"/><path fill-rule="evenodd" clip-rule="evenodd" d="M1189.88 194.038l7.13-4.227-1.22-.615-7.13 4.235 1.22.607z" fill="#192D4B"/><path fill-rule="evenodd" clip-rule="evenodd" d="M1188.66 193.431l7.13-4.235-1.06.144-7.13 4.228 1.06-.137z" fill="#192D4B"/><path fill-rule="evenodd" clip-rule="evenodd" d="M1187.6 193.568l7.13-4.227-1.2-.456-7.13 4.228 1.2.455z" fill="#192D4B"/><path fill-rule="evenodd" clip-rule="evenodd" d="M1186.4 193.113l7.13-4.228-.99.296-7.13 4.228.99-.296zM1185.41 193.408l7.13-4.227-1.16-.304-7.14 4.228 1.17.303z" fill="#192D4B"/><path fill-rule="evenodd" clip-rule="evenodd" d="M1184.24 193.105l7.14-4.228-.92.448-7.13 4.228.91-.448zM1179.55 194.721l7.14-4.235-1.04.145-7.13 4.234 1.03-.144z" fill="#192D4B"/><path fill-rule="evenodd" clip-rule="evenodd" d="M1180.29 193.985l7.13-4.227-.74.728-7.13 4.235.74-.736z" fill="#192D4B"/><path fill-rule="evenodd" clip-rule="evenodd" d="M1181.37 193.993l7.14-4.228-1.09-.007-7.13 4.227 1.08.008z" fill="#192D4B"/><path fill-rule="evenodd" clip-rule="evenodd" d="M1182.2 193.401l7.13-4.235-.82.6-7.14 4.227.83-.592z" fill="#192D4B"/><path fill-rule="evenodd" clip-rule="evenodd" d="M1183.33 193.553l7.13-4.228-1.13-.159-7.13 4.235 1.13.152zM1195.94 196.308l7.14-4.228-1.25-.372-7.13 4.228 1.24.372z" fill="#192D4B"/><path fill-rule="evenodd" clip-rule="evenodd" d="M1194.7 195.936l7.13-4.228-1.26-.918-7.13 4.227 1.26.919z" fill="#192D4B"/><path fill-rule="evenodd" clip-rule="evenodd" d="M1193.44 195.017l7.13-4.227-1.18-.19-7.13 4.227 1.18.19z" fill="#192D4B"/><path fill-rule="evenodd" clip-rule="evenodd" d="M1192.26 194.828l7.13-4.227-1.24-.767-7.14 4.227 1.25.767zM1211.6 260.681l7.14-4.227.74-.729-7.13 4.227-.75.729z" fill="#192D4B"/><path fill-rule="evenodd" clip-rule="evenodd" d="M1212.34 259.952l7.14-4.227 1.03-.144-7.13 4.227-1.04.144z" fill="#192D4B"/><path fill-rule="evenodd" clip-rule="evenodd" d="M1213.38 259.808l7.13-4.227.65-.865-7.14 4.235-.64.857z" fill="#192D4B"/><path fill-rule="evenodd" clip-rule="evenodd" d="M1214.02 258.95l7.14-4.235.98-.296-7.14 4.235-.98.296z" fill="#192D4B"/><path fill-rule="evenodd" clip-rule="evenodd" d="M1215 258.655l7.13-4.235.56-.979-7.14 4.227-.55.987z" fill="#192D4B"/><path fill-rule="evenodd" clip-rule="evenodd" d="M1215.56 257.668l7.13-4.227.9-.441-7.13 4.228-.9.44z" fill="#192D4B"/><path fill-rule="evenodd" clip-rule="evenodd" d="M1216.46 257.227l7.13-4.227.46-1.108-7.14 4.235-.45 1.1z" fill="#192D4B"/><path fill-rule="evenodd" clip-rule="evenodd" d="M1216.91 256.127l7.14-4.235.82-.584-7.13 4.227-.83.592z" fill="#192D4B"/><path fill-rule="evenodd" clip-rule="evenodd" d="M1217.74 255.535l7.14-4.227.35-1.214-7.13 4.227-.36 1.214z" fill="#192D4B"/><path fill-rule="evenodd" clip-rule="evenodd" d="M1218.1 254.321l7.13-4.227.75-.737-7.14 4.235-.74.729z" fill="#192D4B"/><path fill-rule="evenodd" clip-rule="evenodd" d="M1218.84 253.593l7.14-4.235.24-1.313-7.13 4.227-.25 1.321z" fill="#192D4B"/><path fill-rule="evenodd" clip-rule="evenodd" d="M1219.09 252.272l7.13-4.227.66-.88-7.14 4.234-.65.873z" fill="#192D4B"/><path fill-rule="evenodd" clip-rule="evenodd" d="M1219.75 251.399l7.13-4.234.14-1.412-7.14 4.227-.13 1.419z" fill="#192D4B"/><path fill-rule="evenodd" clip-rule="evenodd" d="M1219.88 249.98l7.14-4.227.56-1.025-7.14 4.227-.56 1.025z" fill="#192D4B"/><path fill-rule="evenodd" clip-rule="evenodd" d="M1220.44 248.955l7.14-4.227.01-1.51-7.13 4.235-.02 1.502zM1220.46 247.453l7.13-4.235.46-1.161-7.14 4.235-.45 1.161z" fill="#192D4B"/><path fill-rule="evenodd" clip-rule="evenodd" d="M1220.91 246.292l7.14-4.235-.1-1.594-7.14 4.235.1 1.594zM1220.81 244.698l7.14-4.235.34-1.298-7.13 4.227-.35 1.306z" fill="#192D4B"/><path fill-rule="evenodd" clip-rule="evenodd" d="M1221.16 243.392l7.13-4.227-.22-1.677-7.13 4.227.22 1.677z" fill="#192D4B"/><path fill-rule="evenodd" clip-rule="evenodd" d="M1220.94 241.715l7.13-4.227.22-1.42-7.13 4.228-.22 1.419z" fill="#192D4B"/><path fill-rule="evenodd" clip-rule="evenodd" d="M1221.16 240.296l7.13-4.227-.34-1.7-7.14 4.235.35 1.692zM1220.81 238.604l7.14-4.235.1-1.48-7.14 4.235-.1 1.48zM1220.91 237.123l7.14-4.235-.46-1.684-7.13 4.227.45 1.692z" fill="#192D4B"/><path fill-rule="evenodd" clip-rule="evenodd" d="M1220.46 235.431l7.13-4.228-.01-1.533-7.14 4.235.02 1.526zM1220.44 233.905l7.14-4.235-.56-1.662-7.14 4.228.56 1.669z" fill="#192D4B"/><path fill-rule="evenodd" clip-rule="evenodd" d="M1219.88 232.236l7.14-4.227-.14-1.571-7.13 4.227.13 1.571zM1219.74 230.665l7.14-4.227-.66-1.64-7.13 4.235.65 1.632zM1219.09 229.033l7.13-4.235-.24-1.593-7.14 4.227.25 1.601z" fill="#192D4B"/><path fill-rule="evenodd" clip-rule="evenodd" d="M1218.84 227.432l7.14-4.227-.75-1.594-7.13 4.227.74 1.594zM1218.1 225.838l7.13-4.228-.35-1.624-7.14 4.235.36 1.617zM1217.74 224.221l7.13-4.235-.82-1.54-7.14 4.227.83 1.548z" fill="#192D4B"/><path fill-rule="evenodd" clip-rule="evenodd" d="M1216.91 222.673l7.14-4.227-.46-1.624-7.13 4.227.45 1.624z" fill="#192D4B"/><path fill-rule="evenodd" clip-rule="evenodd" d="M1216.46 221.049l7.13-4.227-.9-1.488-7.13 4.235.9 1.48zM1215.55 219.569l7.14-4.235-.56-1.616-7.13 4.227.55 1.624z" fill="#192D4B"/><path fill-rule="evenodd" clip-rule="evenodd" d="M1215 217.945l7.14-4.227-.98-1.42-7.14 4.235.98 1.412zM1214.02 216.533l7.14-4.235-.65-1.601-7.13 4.227.64 1.609z" fill="#192D4B"/><path fill-rule="evenodd" clip-rule="evenodd" d="M1213.38 214.924l7.13-4.227-1.03-1.336-7.14 4.228 1.04 1.335z" fill="#192D4B"/><path fill-rule="evenodd" clip-rule="evenodd" d="M1212.35 213.588l7.13-4.227-.74-1.586-7.14 4.235.75 1.578zM1211.6 212.01l7.13-4.235-1.08-1.245-7.13 4.235 1.08 1.245z" fill="#192D4B"/><path fill-rule="evenodd" clip-rule="evenodd" d="M1210.52 210.765l7.13-4.235-.83-1.54-7.13 4.227.83 1.548z" fill="#192D4B"/><path fill-rule="evenodd" clip-rule="evenodd" d="M1209.69 209.217l7.13-4.227-1.13-1.146-7.13 4.227 1.13 1.146zM1208.56 208.071l7.13-4.227-.9-1.495-7.14 4.227.91 1.495z" fill="#192D4B"/><path fill-rule="evenodd" clip-rule="evenodd" d="M1207.65 206.576l7.14-4.227-1.18-1.04-7.12 4.227 1.16 1.04zM1206.49 205.536l7.12-4.227-.98-1.434-7.13 4.227.99 1.434z" fill="#192D4B"/><path fill-rule="evenodd" clip-rule="evenodd" d="M1205.5 204.102l7.13-4.227-1.2-.926-7.14 4.235 1.21.918zM1204.29 203.184l7.14-4.235-1.06-1.359-7.13 4.228 1.05 1.366z" fill="#192D4B"/><path fill-rule="evenodd" clip-rule="evenodd" d="M1203.24 201.818l7.13-4.228-1.23-.797-7.13 4.228 1.23.797zM1202.01 201.02l7.13-4.227-1.12-1.275-7.14 4.227 1.13 1.275z" fill="#192D4B"/><path fill-rule="evenodd" clip-rule="evenodd" d="M1200.88 199.745l7.14-4.227-1.25-.668-7.13 4.227 1.24.668z" fill="#192D4B"/><path fill-rule="evenodd" clip-rule="evenodd" d="M1199.64 199.077l7.13-4.227-1.19-1.176-7.13 4.227 1.19 1.176z" fill="#192D4B"/><path fill-rule="evenodd" clip-rule="evenodd" d="M1198.45 197.901l7.13-4.227-1.25-.531-7.13 4.234 1.25.524z" fill="#192D4B"/><path fill-rule="evenodd" clip-rule="evenodd" d="M1197.2 197.378l7.13-4.235-1.25-1.063-7.14 4.227 1.26 1.071z" fill="#192D4B"/><path fill-rule="evenodd" clip-rule="evenodd" d="M1195.94 196.308l1.25 1.062 1.25.524 1.19 1.176 1.25.668 1.13 1.275 1.23.797 1.05 1.358 1.2.926.99 1.435 1.17 1.039.91 1.496 1.13 1.146.83 1.54 1.08 1.245.74 1.578 1.03 1.336.65 1.609.97 1.412.56 1.624.9 1.48.46 1.624.82 1.548.35 1.617.75 1.594.25 1.601.66 1.639.13 1.571.57 1.67.02 1.533.45 1.685-.1 1.48.35 1.692-.22 1.419.22 1.678-.35 1.297.1 1.594-.45 1.161-.02 1.511-.57 1.017-.13 1.419-.66.88-.25 1.321-.75.736-.35 1.214-.82.585-.46 1.1-.9.44-.56.987-.97.296-.65.858-1.03.144-.74.728-1.08-.007-.83.592-1.13-.152-.91.448-1.17-.304-.99.296-1.2-.455-1.05.144-1.23-.615-1.13-.023-1.25-.766-1.19-.19-1.25-.918-1.25-.372-1.24-1.062-1.26-.524-1.19-1.177-1.25-.667-1.12-1.275-1.23-.805-1.05-1.358-1.2-.926-.99-1.435-1.17-1.039-.91-1.496-1.13-1.146-.83-1.54-1.08-1.245-.74-1.578-1.03-1.336-.65-1.609-.98-1.412-.55-1.624-.9-1.487-.46-1.625-.83-1.548-.34-1.616-.76-1.594-.24-1.602-.66-1.639-.14-1.571-.56-1.67-.02-1.533-.46-1.684.1-1.48-.34-1.693.22-1.419-.22-1.677.34-1.298-.1-1.594.46-1.161.02-1.51.56-1.025.14-1.412.66-.88.24-1.32.76-.737.34-1.214.83-.592.46-1.1.9-.441.55-.986.98-.296.65-.858 1.03-.144.74-.729 1.08.008.83-.592 1.13.152.91-.448 1.17.304.99-.296 1.2.455 1.06-.144 1.22.615 1.13.022 1.25.767 1.19.19 1.25.918 1.24.395zm-19.9 19.573c0 13.509 8.91 29.583 19.9 35.905 10.99 6.322 19.9.501 19.9-13 0-13.502-8.91-29.584-19.9-35.906-10.99-6.322-19.9-.501-19.9 13.001z" fill="#192D4B"/><path fill-rule="evenodd" clip-rule="evenodd" d="M1195.94 201.377c11.67 6.709 21.13 23.77 21.13 38.107 0 14.336-9.46 20.514-21.13 13.797-11.66-6.709-21.12-23.77-21.12-38.106.01-14.329 9.47-20.507 21.12-13.798zm-19.89 14.504c0 13.509 8.91 29.583 19.89 35.905 10.99 6.322 19.9.501 19.9-13 0-13.502-8.91-29.584-19.9-35.906-10.98-6.322-19.89-.501-19.89 13.001z" fill="#14AFEB"/><path fill-rule="evenodd" clip-rule="evenodd" d="M1195.94 219.964c3.32 1.905 6.01 6.754 6.01 10.822 0 4.076-2.69 5.829-6.01 3.924-3.31-1.905-6-6.755-6-10.83.01-4.068 2.7-5.829 6-3.916zM1309.45 248.955l-5.96.152-16.69-31.109 5.95-.152 16.7 31.109z" fill="#0082C8"/><path fill-rule="evenodd" clip-rule="evenodd" d="M1292.75 217.846l1.94-1.108 16.7 31.117-1.94 1.1-16.7-31.109z" fill="#14AFEB"/><path d="M1327.92 308.881l-.02.016.71-.425-.69.409zM1287.54 274.623l.08-1.199.13-1.154.17-1.1.22-1.055.27-1.01.31-.956.35-.903.41-.858.44-.804.47-.751.52-.699.55-.637.6-.585.62-.531.66-.47.69-.41 7.13-4.228-.69.41-.66.471-.62.531-.59.584-.56.638-.51.691-.48.751-.44.804-.39.85-.36.904-.31.956-.27 1.009-.22 1.055-.17 1.101-.13 1.153-.08 1.199-.02 1.245.02 1.275.08 1.283.13 1.297.17 1.306.22 1.313.27 1.313.31 1.313.36 1.313.39 1.313.44 1.305.48 1.298.51 1.29.56 1.275.59 1.268.62 1.244.66 1.23.69 1.206.72 1.184.76 1.162.78 1.13.57.782s3.16 4.083 5.17 5.791v-.008l.41.38.97.827.98.782.99.728 1.01.676 1.02.622 1.03.554 1.01.486.99.417.98.349.96.281.95.213.92.144.9.083.89.015.85-.045.84-.106.8-.175.78-.235.76-.296.69-.342-6.42 3.803-.69.409-.72.357-.75.296-.78.235-.81.175-.83.106-.86.046-.88-.015-.9-.084-.93-.144-.94-.213-.96-.28-.98-.35-1-.417-1.01-.486-1.02-.561-1.02-.623-1.01-.675-1-.729-.56-.447-.18.037-3.62-1.32.12-2.133-.47-.501-.88-.994-.86-1.032-.83-1.07-.81-1.101-.78-1.13-.75-1.162-.72-1.183-.69-1.207-.66-1.23-.63-1.244-.59-1.268-.55-1.275-.52-1.29-.48-1.298-.44-1.305-.4-1.313-.36-1.313-.31-1.313-.26-1.313-.22-1.313-.18-1.305-.13-1.298-.07-1.283-.02-1.275.01-1.214z" fill="#192D4B"/><path fill-rule="evenodd" clip-rule="evenodd" d="M1311.65 294.97l7.14-4.228.38-.303.35-.372.3-.433.26-.501.19-.561.16-.623.09-.675.03-.736-.03-.774-.09-.782-.16-.797-.19-.789-.26-.79-.3-.781-.35-.767-.38-.744-.43-.721-.46-.69-.49-.66-.53-.608-.55-.569-.58-.508-.59-.456-.62-.394-.61-.311-.59-.236-.58-.144-.55-.068-.53.007-.49.084-.46.159-.43.228-7.13 4.227.42-.228.47-.159.5-.083.52-.008.55.068.57.152.6.228.61.319.61.387.6.455.57.516.56.562.52.614.49.653.47.691.42.721.39.744.35.766.29.782.26.789.2.797.15.789.09.782.03.774-.03.736-.09.683-.15.623-.2.561-.26.494-.29.44-.35.364-.39.304z" fill="#14AFEB"/><path fill-rule="evenodd" clip-rule="evenodd" d="M1322.35 314.262l7.13-4.235.7-.493.67-.562.62-.622.59-.676.55-.736.51-.797.46-.85.42-.91.38-.957.34-1.017.28-1.07.23-1.115.19-1.169.14-1.222.07-1.275.04-1.321-.04-1.351-.07-1.366-.14-1.373-.19-1.389-.23-1.389-.28-1.397-.34-1.396-.38-1.396-.42-1.389-.46-1.389-.51-1.381-.55-1.367-.59-1.358-.62-1.343-.67-1.321-.7-1.305-.74-1.283-.76-1.252-.8-1.23-.83-1.206-.85-1.162-.89-1.138-.91-1.093-.94-1.062-.95-1.017-.98-.972-1-.926-1.03-.88-1.04-.827-1.05-.767-1.08-.721-1.09-.66-1.08-.592-1.07-.516-1.06-.44-1.04-.372-1.02-.296-1-.228-.99-.159-.96-.084-.93-.023-.91.054-.89.113-.86.183-.82.242-.8.312-.77.379-7.13 4.227.77-.372.79-.311.84-.25.85-.182.89-.114.91-.053.93.023.96.083.98.159 1.01.228 1.02.296 1.03.372 1.06.44 1.07.516 1.09.592 1.09.66 1.07.721 1.06.775 1.04.827 1.02.873 1 .925.98.972.96 1.024.94 1.055.91 1.093.88 1.139.86 1.169.83 1.199.79 1.229.77 1.252.74 1.283.69 1.305.67 1.328.62 1.336.6 1.359.54 1.366.51 1.381.47 1.389.42 1.396.38 1.397.33 1.396.28 1.389.24 1.397.19 1.381.13 1.381.08 1.359.03 1.351-.03 1.32-.08 1.275-.13 1.222-.19 1.169-.24 1.123-.28 1.063-.33 1.017-.38.963-.42.904-.47.85-.51.797-.54.736-.6.675-.62.622-.67.562-.69.501z" fill="#CACACA"/><path fill-rule="evenodd" clip-rule="evenodd" d="M1302.48 254.04l7.13-4.228-1.13-.022-7.13 4.227 1.13.023z" fill="#192D4B"/><path fill-rule="evenodd" clip-rule="evenodd" d="M1301.35 254.017l7.13-4.227-1.22-.615-7.14 4.235 1.23.607z" fill="#192D4B"/><path fill-rule="evenodd" clip-rule="evenodd" d="M1300.12 253.41l7.14-4.235-1.06.144-7.14 4.228 1.06-.137z" fill="#192D4B"/><path fill-rule="evenodd" clip-rule="evenodd" d="M1299.06 253.547l7.13-4.227-1.19-.456-7.14 4.228 1.2.455z" fill="#192D4B"/><path fill-rule="evenodd" clip-rule="evenodd" d="M1297.86 253.092l7.14-4.228-.99.296-7.13 4.228.98-.296z" fill="#192D4B"/><path fill-rule="evenodd" clip-rule="evenodd" d="M1296.88 253.387l7.13-4.227-1.17-.304-7.13 4.228 1.17.303z" fill="#192D4B"/><path fill-rule="evenodd" clip-rule="evenodd" d="M1295.71 253.084l7.13-4.228-.91.448-7.13 4.228.91-.448zM1291.02 254.693l7.13-4.228-1.03.145-7.14 4.234 1.04-.151z" fill="#192D4B"/><path fill-rule="evenodd" clip-rule="evenodd" d="M1291.75 253.964l7.14-4.227-.74.728-7.13 4.228.73-.729z" fill="#192D4B"/><path fill-rule="evenodd" clip-rule="evenodd" d="M1292.84 253.972l7.13-4.235h-1.08l-7.14 4.227 1.09.008z" fill="#192D4B"/><path fill-rule="evenodd" clip-rule="evenodd" d="M1293.67 253.38l7.13-4.235-.83.592-7.13 4.235.83-.592z" fill="#192D4B"/><path fill-rule="evenodd" clip-rule="evenodd" d="M1294.8 253.532l7.13-4.228-1.13-.159-7.13 4.235 1.13.152zM1307.41 256.287l7.13-4.228-1.24-.371-7.13 4.227 1.24.372zM1306.16 255.915l7.14-4.228-1.26-.918-7.14 4.227 1.26.919z" fill="#192D4B"/><path fill-rule="evenodd" clip-rule="evenodd" d="M1304.9 254.996l7.14-4.227-1.19-.19-7.13 4.227 1.18.19z" fill="#192D4B"/><path fill-rule="evenodd" clip-rule="evenodd" d="M1303.72 254.806l7.14-4.227-1.25-.767-7.13 4.228 1.24.766zM1323.07 320.66l7.13-4.227.74-.729-7.13 4.227-.74.729z" fill="#192D4B"/><path fill-rule="evenodd" clip-rule="evenodd" d="M1323.81 319.931l7.13-4.227 1.04-.152-7.14 4.235-1.03.144z" fill="#192D4B"/><path fill-rule="evenodd" clip-rule="evenodd" d="M1324.84 319.787l7.14-4.235.64-.858-7.13 4.228-.65.865z" fill="#192D4B"/><path fill-rule="evenodd" clip-rule="evenodd" d="M1325.49 318.922l7.13-4.228.98-.296-7.13 4.235-.98.289z" fill="#192D4B"/><path fill-rule="evenodd" clip-rule="evenodd" d="M1326.47 318.634l7.13-4.235.55-.979-7.13 4.227-.55.987z" fill="#192D4B"/><path fill-rule="evenodd" clip-rule="evenodd" d="M1327.02 317.647l7.13-4.228.91-.447-7.14 4.235-.9.44z" fill="#192D4B"/><path fill-rule="evenodd" clip-rule="evenodd" d="M1327.92 317.206l7.14-4.234.45-1.101-7.13 4.235-.46 1.1zM1328.38 316.106l7.13-4.235.83-.584-7.13 4.227-.83.592z" fill="#192D4B"/><path fill-rule="evenodd" clip-rule="evenodd" d="M1329.21 315.514l7.13-4.227.36-1.214-7.14 4.227-.35 1.214z" fill="#192D4B"/><path fill-rule="evenodd" clip-rule="evenodd" d="M1329.56 314.3l7.14-4.227.74-.737-7.13 4.235-.75.729z" fill="#192D4B"/><path fill-rule="evenodd" clip-rule="evenodd" d="M1330.31 313.571l7.13-4.235.24-1.313-7.12 4.228-.25 1.32zM1330.56 312.251l7.12-4.228.66-.88-7.13 4.227-.65.881z" fill="#192D4B"/><path fill-rule="evenodd" clip-rule="evenodd" d="M1331.21 311.37l7.13-4.227.14-1.412-7.13 4.228-.14 1.411z" fill="#192D4B"/><path fill-rule="evenodd" clip-rule="evenodd" d="M1331.35 309.959l7.13-4.227.56-1.025-7.13 4.227-.56 1.025z" fill="#192D4B"/><path fill-rule="evenodd" clip-rule="evenodd" d="M1331.91 308.934l7.13-4.227.02-1.51-7.14 4.235-.01 1.502zM1331.92 307.432l7.14-4.235.45-1.161-7.13 4.235-.46 1.161z" fill="#192D4B"/><path fill-rule="evenodd" clip-rule="evenodd" d="M1332.38 306.271l7.13-4.235-.1-1.594-7.13 4.235.1 1.594zM1332.28 304.677l7.13-4.235.35-1.298-7.14 4.227-.34 1.306z" fill="#192D4B"/><path fill-rule="evenodd" clip-rule="evenodd" d="M1332.62 303.371l7.14-4.227-.22-1.678-7.14 4.228.22 1.677z" fill="#192D4B"/><path fill-rule="evenodd" clip-rule="evenodd" d="M1332.4 301.694l7.14-4.227.22-1.42-7.14 4.228-.22 1.419zM1332.62 300.275l7.14-4.228-.35-1.7-7.13 4.235.34 1.693z" fill="#192D4B"/><path fill-rule="evenodd" clip-rule="evenodd" d="M1332.28 298.583l7.13-4.235.1-1.48-7.13 4.235-.1 1.48zM1332.38 297.102l7.13-4.235-.45-1.684-7.14 4.227.46 1.692z" fill="#192D4B"/><path fill-rule="evenodd" clip-rule="evenodd" d="M1331.92 295.41l7.14-4.228-.02-1.533-7.13 4.235.01 1.526z" fill="#192D4B"/><path fill-rule="evenodd" clip-rule="evenodd" d="M1331.91 293.884l7.13-4.235-.56-1.662-7.13 4.228.56 1.669zM1331.35 292.215l7.13-4.228-.14-1.57-7.13 4.227.14 1.571z" fill="#192D4B"/><path fill-rule="evenodd" clip-rule="evenodd" d="M1331.21 290.644l7.13-4.227-.66-1.64-7.12 4.235.65 1.632zM1330.56 289.012l7.12-4.235-.24-1.593-7.13 4.227.25 1.601z" fill="#192D4B"/><path fill-rule="evenodd" clip-rule="evenodd" d="M1330.31 287.411l7.13-4.227-.74-1.594-7.14 4.227.75 1.594zM1329.56 285.817l7.14-4.228-.36-1.624-7.13 4.235.35 1.617z" fill="#192D4B"/><path fill-rule="evenodd" clip-rule="evenodd" d="M1329.21 284.2l7.13-4.235-.83-1.54-7.13 4.227.83 1.548z" fill="#192D4B"/><path fill-rule="evenodd" clip-rule="evenodd" d="M1328.38 282.652l7.13-4.227-.45-1.624-7.14 4.227.46 1.624z" fill="#192D4B"/><path fill-rule="evenodd" clip-rule="evenodd" d="M1327.92 281.028l7.14-4.227-.91-1.488-7.13 4.235.9 1.48zM1327.02 279.548l7.13-4.235-.55-1.616-7.13 4.227.55 1.624z" fill="#192D4B"/><path fill-rule="evenodd" clip-rule="evenodd" d="M1326.47 277.924l7.13-4.227-.98-1.42-7.13 4.235.98 1.412z" fill="#192D4B"/><path fill-rule="evenodd" clip-rule="evenodd" d="M1325.49 276.512l7.13-4.235-.64-1.601-7.14 4.227.65 1.609z" fill="#192D4B"/><path fill-rule="evenodd" clip-rule="evenodd" d="M1324.84 274.903l7.14-4.227-1.04-1.336-7.13 4.228 1.03 1.335z" fill="#192D4B"/><path fill-rule="evenodd" clip-rule="evenodd" d="M1323.81 273.568l7.13-4.227-.74-1.587-7.13 4.235.74 1.579zM1323.07 271.989l7.13-4.235-1.08-1.245-7.14 4.235 1.09 1.245z" fill="#192D4B"/><path fill-rule="evenodd" clip-rule="evenodd" d="M1321.98 270.744l7.14-4.235-.83-1.54-7.14 4.227.83 1.548z" fill="#192D4B"/><path fill-rule="evenodd" clip-rule="evenodd" d="M1321.15 269.196l7.14-4.227-1.13-1.146-7.14 4.227 1.13 1.146z" fill="#192D4B"/><path fill-rule="evenodd" clip-rule="evenodd" d="M1320.02 268.05l7.14-4.227-.91-1.495-7.13 4.227.9 1.495z" fill="#192D4B"/><path fill-rule="evenodd" clip-rule="evenodd" d="M1319.12 266.555l7.13-4.227-1.17-1.04-7.14 4.227 1.18 1.04z" fill="#192D4B"/><path fill-rule="evenodd" clip-rule="evenodd" d="M1317.94 265.515l7.14-4.227-.98-1.434-7.14 4.227.98 1.434z" fill="#192D4B"/><path fill-rule="evenodd" clip-rule="evenodd" d="M1316.96 264.081l7.14-4.227-1.21-.926-7.13 4.227 1.2.926zM1315.76 263.155l7.13-4.227-1.05-1.359-7.14 4.228 1.06 1.358zM1314.7 261.796l7.14-4.227-1.23-.804-7.14 4.235 1.23.796zM1313.47 260.999l7.14-4.234-1.13-1.268-7.13 4.227 1.12 1.275zM1312.35 259.724l7.13-4.227-1.24-.668-7.13 4.227 1.24.668z" fill="#192D4B"/><path fill-rule="evenodd" clip-rule="evenodd" d="M1311.11 259.056l7.13-4.227-1.19-1.176-7.14 4.227 1.2 1.176z" fill="#192D4B"/><path fill-rule="evenodd" clip-rule="evenodd" d="M1309.91 257.88l7.14-4.227-1.25-.531-7.14 4.234 1.25.524z" fill="#192D4B"/><path fill-rule="evenodd" clip-rule="evenodd" d="M1308.66 257.357l7.14-4.235-1.26-1.063-7.13 4.227 1.25 1.071z" fill="#192D4B"/><path fill-rule="evenodd" clip-rule="evenodd" d="M1307.41 256.287l1.24 1.062 1.26.524 1.19 1.176 1.24.668 1.13 1.275 1.22.797 1.06 1.359 1.2.925.99 1.435 1.17 1.04.91 1.495 1.13 1.146.82 1.54 1.09 1.245.74 1.579 1.03 1.335.65 1.609.97 1.412.56 1.624.9 1.488.45 1.624.83 1.548.35 1.617.75 1.593.24 1.602.67 1.639.13 1.571.56 1.67.03 1.533.45 1.685-.1 1.48.34 1.692-.22 1.419.22 1.677-.34 1.306.1 1.594-.45 1.161-.03 1.51-.56 1.017-.13 1.419-.67.881-.24 1.32-.75.736-.35 1.215-.83.584-.45 1.101-.9.44-.56.986-.97.296-.65.858-1.03.144-.74.729-1.09-.008-.82.592-1.13-.152-.91.448-1.17-.303-.99.296-1.2-.456-1.05.144-1.23-.607-1.13-.023-1.24-.766-1.19-.19-1.26-.918-1.24-.372-1.24-1.063-1.26-.523-1.19-1.177-1.24-.667-1.13-1.275-1.23-.805-1.06-1.358-1.2-.926-.98-1.435-1.17-1.039-.91-1.496-1.13-1.146-.83-1.54-1.09-1.245-.73-1.579-1.04-1.335-.64-1.609-.97-1.412-.56-1.624-.9-1.48-.45-1.624-.83-1.548-.35-1.617-.75-1.594-.25-1.601-.66-1.639-.13-1.571-.56-1.67-.02-1.533-.45-1.685.09-1.48-.34-1.692.22-1.419-.22-1.678.34-1.298-.09-1.593.45-1.162.02-1.51.56-1.024.13-1.42.66-.88.25-1.321.75-.736.35-1.214.83-.592.45-1.1.9-.441.56-.986.97-.296.64-.858 1.04-.144.73-.729 1.09.008.83-.592 1.13.152.91-.448 1.17.304.98-.296 1.2.455 1.06-.144 1.23.607 1.13.023 1.25.766 1.19.198 1.26.918 1.23.372zm-19.9 19.573c0 13.509 8.91 29.583 19.9 35.905 10.99 6.322 19.9.501 19.9-13 0-13.502-8.91-29.584-19.9-35.906-10.99-6.322-19.9-.501-19.9 13.001z" fill="#192D4B"/><path fill-rule="evenodd" clip-rule="evenodd" d="M1307.41 261.356c11.66 6.709 21.12 23.77 21.12 38.107 0 14.336-9.46 20.514-21.12 13.797-11.67-6.709-21.12-23.77-21.12-38.106.01-14.329 9.46-20.507 21.12-13.798zm-19.9 14.504c0 13.509 8.91 29.583 19.9 35.905 10.99 6.322 19.9.501 19.9-13 0-13.502-8.91-29.584-19.9-35.906-10.99-6.322-19.9-.501-19.9 13.001z" fill="#14AFEB"/><path fill-rule="evenodd" clip-rule="evenodd" d="M1307.41 279.943c3.32 1.905 6 6.754 6 10.822 0 4.076-2.68 5.829-6 3.924-3.32-1.905-6-6.755-6-10.823 0-4.075 2.69-5.836 6-3.923z" fill="#0082C8"/><path fill-rule="evenodd" clip-rule="evenodd" d="M1173.81 165.259l5.81-3.21-2.77-1.594-5.81 3.21 2.77 1.594z" fill="#14AFEB"/><path fill-rule="evenodd" clip-rule="evenodd" d="M1174.51 163.574l5.82-3.217.28-.107.32-.007.4.098.37.107.44.083.51.053.57.038.63.015.67.008h.72l.75-.008.79-.007.81-.008h1.66l.84.023.85.03.82.053.83.076-5.82 3.218-.82-.076-.83-.053-.84-.038-.84-.015-.84-.008h-.83l-.81.008-.78.015-.75.008h-.72l-.68-.008-.62-.023-.58-.037-.5-.054-.44-.083-.38-.106-.39-.099-.33.008-.28.113z" fill="#14AFEB"/><path fill-rule="evenodd" clip-rule="evenodd" d="M1268.54 269.158l5.81-3.218.53-.417.39-.554.28-.66.17-.744.09-.797.01-.812-.03-.805-.07-.766-.1-.691-.1-.592-.09-.455-.07-.304-.03-.114-5.81 3.218.02.107.07.303.1.463.09.592.1.691.08.759.03.804-.02.812-.09.797-.17.744-.27.668-.39.554-.53.417z" fill="#5AC8F5"/><path fill-rule="evenodd" clip-rule="evenodd" d="M1262.49 253.904l5.81-3.211 7.57-.212-5.82 3.218-7.56.205z" fill="#CACACA"/><path fill-rule="evenodd" clip-rule="evenodd" d="M1270.05 253.698l5.82-3.218 2.46 7.719-5.81 3.218-2.47-7.719z" fill="#5AC8F5"/><path fill-rule="evenodd" clip-rule="evenodd" d="M1243.79 257.243l4.17-2.3-7.58-3.726-2.81 1.548.19.167.29.228.37.288.43.319.48.357.53.371.13.099.14.099.14.098.13.099.14.091.14.099.13.098.14.099.27.19.14.099.13.091.14.091.12.091.13.091.13.091.12.083.13.084.11.083.12.084.11.076.11.076.1.076.11.068.09.068.09.061.09.061.08.053.08.053.07.053.06.045.07.038.05.038.04.031.04.03.04.023.02.015.05.023z" fill="#0082C8"/><path fill-rule="evenodd" clip-rule="evenodd" d="M1267.73 262.009l-.28-.114-.71-.288-.08-.031-1.71.046-.27-.865-.23-.099-.8-.342-.82-.349-.83-.356-.83-.365-.84-.364-.83-.364-.83-.372-.82-.364-.81-.365-.32-.144-3.81.099-4.99-2.452-4.17 2.308.39.174.44.205.49.228.54.25.58.266.63.288.66.304.69.319.73.333.75.342.78.349.8.357.81.364.82.364.82.372.84.365.83.364.84.364.83.357.82.349.8.342.79.333.77.319.74.304.71.288.69.266.64.25.61.228.56.205.52.174.46.152c.14.046.28.084.41.122 2.81.759 2.49-2.839 2.19-4.516zM1237.57 252.765l2.8-1.548-5.58-2.74-.46.258c.04.023.08.061.12.099.05.045.1.091.15.152.06.06.12.121.18.197.06.076.13.152.2.235l.21.273.23.296.23.312.06.083.06.083.06.084.06.083.07.084.06.083.06.084.06.083.06.084.06.083.06.084.06.083.06.084.06.076.06.076.06.075.23.296.21.274.2.243.18.204.13.137z" fill="#0082C8"/><path fill-rule="evenodd" clip-rule="evenodd" d="M1237.79 192.452l5.82-3.21a91.813 91.813 0 0 1-22.01-15.505c-1.48-1.488-2.57-2.786-3.71-4.524-1.36-2.132-2.12-3.711-4.29-5.168-2.03-1.298-4.1-2.52-6.17-3.749a905.394 905.394 0 0 0-8.66-5.009c-3.99-2.285-10.54-5.996-10.54-5.996l-8.74 4.713s9.59 5.434 15.25 8.713c3.06 1.783 6.14 3.567 9.15 5.449.75.486 1.39.858 2.03 1.487l.3.327c1.01 1.184 1.75 2.444 2.58 3.749l.27.417c1.26 1.86 2.54 3.249 4.17 4.797 6.57 5.912 16.7 9.555 24.55 13.509z" fill="#14AFEB"/><path fill-rule="evenodd" clip-rule="evenodd" d="M1320.27 268.855l8.52-4.645c-1.96-2.626-3.98-4.971-6.32-7.263-3.43-3.263-6.55-5.518-10.83-7.582l-1.34-.561-1.32-.471c-3.53-1.032-5.98-1.328-9.6-.562a17.9 17.9 0 0 0-3.04 1.184l-9.45 5.199.93-.554.97-.478 1.02-.395c2.5-.751 4.11-.865 6.83-.622 3.64.577 6.01 1.556 9.24 3.309 3.76 2.208 6.84 4.812 9.85 7.961a66.13 66.13 0 0 1 4.54 5.48z" fill="#5AC8F5"/><path fill-rule="evenodd" clip-rule="evenodd" d="M1255.7 231.811l5.81-3.21-.7.417-.67.402-.63.395-.6.387-.54.364-.49.349-.42.327-.37.296-.29.273-.22.25-.13.205-.04.175.05.136.15.145.26.189.36.236.44.273.52.311.59.349.67.372.72.402.78.433.82.448.87.463.89.478.92.485.94.494.95.501.94.493.95.501.94.486.92.47.9.463.86.448.83.425.78.402.73.372.67.342.61.303.53.273.44.228.37.182.26.137.16.083.06.023 1.68 9.859-5.81 3.218-1.68-9.859-.06-.03-.16-.084-.26-.137-.37-.182-.45-.227-.53-.274-.6-.303-.67-.342-.73-.372-.78-.402-.83-.425-.87-.44-.89-.463-.92-.478-.94-.486-.95-.493-.95-.501-.95-.493-.94-.501-.92-.486-.88-.478-.87-.463-.83-.448-.77-.425-.72-.402-.67-.38-.59-.349-.52-.311-.45-.273-.35-.235-.26-.182-.15-.145-.05-.136.03-.175.14-.212.21-.243.3-.273.36-.304.43-.326.49-.349.54-.365.59-.379.64-.402.67-.403.7-.417z" fill="#14AFEB"/><path fill-rule="evenodd" clip-rule="evenodd" d="M1279.86 216.662l5.81-3.21-.33-.516-.33-.524-.35-.539-.35-.531-.36-.546-.36-.547-.36-.554-.37-.546-.38-.554-.38-.554-.39-.554-.39-.554-.4-.554-.41-.547-.41-.539-.41-.539-.42-.531-.43-.523-.43-.517-.43-.5-.45-.494-.45-.485-.45-.471-.46-.463-.46-.448-.47-.425-.48-.417-.48-.395-.48-.379-.5-.365-.5-.341-.5-.319-5.81 3.218.5.319.5.341.49.357.49.38.48.394.47.418.48.432.46.44.46.463.45.471.45.486.44.493.44.508.43.516.42.524.43.524.41.539.41.546.41.547.39.546.4.554.39.554.38.554.37.554.38.554.36.547.36.554.35.538.35.539.34.532.35.523.33.516z" fill="#5AC8F5"/><path fill-rule="evenodd" clip-rule="evenodd" d="M1278.29 225.587l5.81-3.21.38-.251.35-.311.34-.387.31-.463.28-.554.28-.645.12-.334.1-.357.08-.371.08-.388.05-.402.03-.41.02-.417v-.425l-.03-.425-.04-.425-.07-.417-.09-.41-.12-.403-.14-.394-.17-.38-.19-.356-5.81 3.21.19.364.17.372.14.395.11.402.1.41.06.425.05.417.02.425.01.425-.02.418-.03.41-.06.402-.07.387-.09.379-.09.357-.13.334-.27.645-.29.554-.31.463-.33.38-.35.318-.38.243z" fill="#0082C8"/><path fill-rule="evenodd" clip-rule="evenodd" d="M1266.49 200.899l5.81-3.218-.95-.569-.95-.562-.95-.546-.94-.531-.95-.509-.94-.493-.94-.478-.94-.456-.93-.44-.93-.417-.93-.403-.93-.379-.92-.364-.91-.334-.91-.319-.91-.296-.9-.273-.9-.251-.89-.227-.89-.198-.88-.182-.88-.152-.87-.129-.87-.098-.86-.076-.85-.053-.85-.023-.83.007-.84.038-.82.061-.82.091-.81.122-5.82 3.21.81-.122.82-.091.83-.06.84-.038h.83l.85.015.85.053.86.076.86.099.88.129.88.151.88.183.89.204.89.221.9.25.9.273.9.296.91.319.92.342.92.356.93.38.92.402.94.417.93.441.93.462.94.471.94.501.95.508.94.524.95.547.96.561.95.577z" fill="#5AC8F5"/><path fill-rule="evenodd" clip-rule="evenodd" d="M1267.28 224.776s.62 1.487-.47 1.48c-1.09-.008-17.25 8.287-16.16 9.532 1.08 1.245 20.83 11.209 20.83 11.209l1.68 9.859-20.26.516-28.47-13.995s1.75-14.04 1.67-14.708c-.09-.668-7.32-18.966-7.32-18.966l-7.81-15.74c.34-.342.87-.509 1.58-.524.62-1.495 1.27-3.089 1.86-4.47 2.81 3.779 3.32 4.242 23.69 14.131 9.5 7.521 19.96 18.086 29.18 21.676z" fill="#0082C8"/><path d="M1227.91 243.202s.21-12.446 7.31-8.978 25.15 12.986 22.24 18.936c-2.92 5.95-7.77 8.705-19.01 1.449-11.24-7.263-11.09-7.141-10.54-11.407z" fill="#14AFEB"/><path d="M1240.56 251.08c-6.71-4.88-10.41-11.217-8.27-14.162.99-1.373 3.1-1.753 5.73-1.282 5.03 2.588 12.25 6.656 16.42 10.64 5.18 4.546 3.48 6.466 2.14 8.303-2.14 2.945-9.31 1.374-16.02-3.499z" fill="#5AC8F5"/><path fill-rule="evenodd" clip-rule="evenodd" d="M1305.87 255.421c-14.83-8.538-26.85-.675-26.85 17.547 0 3.127 1.11 13.782 3.77 7.688 6.49-14.89 20.7-20.021 37.49-11.801-4.17-5.654-9.11-10.383-14.41-13.434zM1280.22 222.984c.66-1.73.74-4.447-.36-6.322-3.52-5.457-7.98-12.469-13.37-15.763-10.17-6.216-20.08-9.904-28.7-8.44 1.68 4.85 2.71 9.176.31 10.656 11.54 9.122 24.51 22.761 34.91 22.92 3.66.046 5.81.653 7.21-3.051z" fill="#14AFEB"/><path fill-rule="evenodd" clip-rule="evenodd" d="M1179.48 154.004c.07 1.533.26 3.704.79 4.576.86 1.404 20.8 16.295 23.61 18.921 18.89 17.63 2.59 10.245 34.23 25.606 2.4-1.479 1.37-5.798-.31-10.655-7.85-3.962-17.99-7.605-24.57-13.517-1.63-1.548-2.9-2.937-4.16-4.796l-.28-.418c-.83-1.305-1.57-2.565-2.58-3.749l-.3-.326c-.65-.63-1.28-1.002-2.03-1.488-3-1.882-6.08-3.666-9.15-5.449-5.07-2.922-10.15-5.829-15.25-8.705z" fill="#0082C8"/><path fill-rule="evenodd" clip-rule="evenodd" d="M1244.18 259.99c4.1 1.898 17.7 8.136 21.83 9.275 5.94 1.639 3.51-7.795 3.51-7.817-.19-.775-.79-1.465-1.33-1.534-.54-.075-.82.494-.63 1.268.01.015 1.62 6.329-2.04 5.32-4.09-1.131-18-7.529-21.78-9.282l.04.023c.72 1.229.84 2.269.4 2.747z" fill="#14AFEB"/><path fill-rule="evenodd" clip-rule="evenodd" d="M1298.01 253.137l-3.26.091 8.47 26.525 3.26-.091-8.47-26.525z" fill="#0082C8"/><path fill-rule="evenodd" clip-rule="evenodd" d="M1299.38 253.099l-5.99.167-10.68-33.439 5.99-.167 10.68 33.439zM1202.65 208.124l2.5 2.542-7.97 17.995-2.5-2.535 7.97-18.002zM1201.61 207.069l4.59 4.652 5.58-17.607-4.58-4.66-5.59 17.615z" fill="#0082C8"/><path fill-rule="evenodd" clip-rule="evenodd" d="M1210.55 197.992c-6.42-6.587-19.39-15.839-25.9-16.309-8.86-.645-9.14 6.527-15.51 8.401-2.46.729-5.2-.47-5.2-.47 5.27-1.207 8.67-6.429 9.77-12.69.41-2.269.5-4.683.28-7.088-.28-2.93-.73-7.112 1.52-6.284 1.76.652 6.94-.008 11.27.47 6.35 4.986 15.29 11.787 17.1 13.479 6.72 6.276 8.99 9.38 10.54 11.475-.58 1.381-1.23 2.975-1.86 4.47-1.07.031-1.76.403-1.93 1.215-.1.493.07 1.259.45 2.246-.2.425-.37.789-.53 1.085z" fill="#0082C8"/><path fill-rule="evenodd" clip-rule="evenodd" d="M1173.81 165.259l-2.77-1.593.97 7.817 2.1 1.206c.01-.948-.03-1.897-.12-2.853-.14-1.473-.32-3.264-.18-4.577z" fill="#0082C8"/><path fill-rule="evenodd" clip-rule="evenodd" d="M1264.95 261.622l-1.44-4.516 7.57-.189 1.44 4.5-7.57.205zM1245.16 235.848c-3.15-.182-6.42-1.51-9.77-3.605-3.97-5.494-25.7-33.051-24.77-37.582 1.25-6.102 31.65 12.386 37.58 17.296 5.88 4.857 5.58 3.878 1.42 9.555-2.59 3.552-4.42 7.954-4.46 14.336z" fill="#14AFEB"/><path d="M1210.62 194.661c1.25-6.102 31.65 12.386 37.58 17.296 5.88 4.857 5.58 3.878 1.42 9.555-.29.402-.58.827-.85 1.252-23.27-29.955-38.5-26.358-38.15-28.103z" fill="#5AC8F5"/><path fill-rule="evenodd" clip-rule="evenodd" d="M1288.7 219.66l2.14-1.191 10.68 33.446-2.14 1.184-10.68-33.439z" fill="#14AFEB"/><path fill-rule="evenodd" clip-rule="evenodd" d="M1278.53 211.099l5.82-3.21 8.78-.243-5.81 3.21-8.79.243zM1281.39 220.062l-2.86-8.963 8.79-.243 2.86 8.964-8.79.242z" fill="#0082C8"/><path fill-rule="evenodd" clip-rule="evenodd" d="M1287.32 210.856l5.81-3.21 2.87 8.963-5.82 3.21-2.86-8.963zM1201.11 175.77l.31.296c1.09 1.139 1.92 2.475 2.83 3.772l.32.448c5.26 7.111 14.24 3.894 22.16 6.967l.05-.167c-7.92-4.037-16.95-2.641-22.21-10.397l-.32-.486c-.91-1.412-1.75-2.846-2.83-4.113l-.31-.334c-.64-.623-1.35-1.055-2.1-1.533-3.2-2.012-6.47-3.932-9.75-5.821-1.43-.828-1.93-2.019-1.44-3.218-1.53 1.73-.46 7.817 1.44 8.674 3.28 1.495 6.56 3.013 9.75 4.637.75.387 1.46.737 2.1 1.275z" fill="#14AFEB"/><path fill-rule="evenodd" clip-rule="evenodd" d="M1201.11 171.756l.31.333c1.09 1.268 1.92 2.702 2.83 4.114l.32.486c5.25 7.756 14.29 6.36 22.21 10.397l6.45-3.825c-3.63-2.588-7.45-13.479-10.06-17.494-1.63-2.519-2.55-4.409-5.17-6.155-3.26-2.094-6.64-4.067-10.01-6.018-2.01-1.161-4.43-1.806-6.73-1.154-5 1.42-9.13 4.068-12.62 7.59-1.54 1.541-1.28 3.286.62 4.379 3.28 1.89 6.55 3.81 9.75 5.821.75.471 1.46.903 2.1 1.526z" fill="#5AC8F5"/><path d="M1244.56 231.765s2.05 5.472 1.63 6.763c-.68 2.026.72 5.502 1.08 6.223.81 1.624 2.7 2.436 2.7 2.436s2.76-.971 5.95-2.573c.37-.182.5-1.601.5-1.601l1.4-.425 10.03-8.902s3.27-2.588 1.91-4.349c-2.22-2.884-5.75-4.098-9.52-1.852-1.99 1.199-4.22 2.785-4.64 2.884-.53.137-1.21-3.294-1.44-3.339-4.86-.949-9.6 4.735-9.6 4.735z" fill="#231F20"/><path d="M1224.69 168.212s16.17 10.633 21.99 14.602c7.07 4.819 5.77 10.822 5.77 10.822l3.33 35.974s-1.89-1.935-6.76 1.708c-2.81 2.102-3.57 6.868-3.65 6.694-9.59-21.865-9.47-33.181-9.6-37.97-.1-3.248-2.57-4.372-2.57-4.372s-6.09-2.573-15.28-7.711c-15.37-8.591-9.1-24.703-9.1-24.703l15.87 4.956z" fill="#294F6D"/><path d="M1230.1 111.412c6.49-4.326 14.06-7.21 14.06-7.21s20.75-2.823 19.97 12.849c-.72 14.428-19.61 27.011-21.64 46.379 0 0-7.64 8.872-17.71 12.713-11.37 4.326-16.48.948-17.59-4.061-1.11-5.009 5.3-32.71 6.76-40.3 2.98-15.406 11.1-17 16.15-20.37z" fill="#AD501B"/><path d="M1221.53 118.265c3.11-.812 9.83 1.275 9.74 8.926-.09 6.466-2.98 26.775-2.98 26.775s-.14 4.865 1.09 7.567c3.48 7.741 10.14 23.314 10.14 23.314s-6.36 3.856-10.52 5.935c-.84.425-8.62-16.848-12.34-22.897-2.16-3.514-2.84-9.396-2.84-9.396s-.4-10.177-.4-19.14c-.01-11.62 1.44-19.346 8.11-21.084z" fill="#CE6428"/><path d="M1269.89 230.293c-1.06-1.769-9.41 3.111-12.75 7.286-2.77 3.453-5.05 6.17-5.05 6.17s5.88-2.315 8.72-3.423l6.49-5.768s3.37-2.952 2.59-4.265z" fill="#4C575E"/><path d="M1252.63 106.904s8.06-7.612 16.5 2.163c8.56 9.919 16.5 15.687 16.5 15.687l36.81 8.698s-4.36 3.893-8.39 9.077c-1.46 1.874-33.29-3.446-33.29-3.446s-19.34-10.276-25.02-16.499c-3.13-3.431-7.98-10.269-3.11-15.68z" fill="#AD501B"/><path d="M1266.6 115.639s.04-.812-.65-1.601c-1.91-2.186-9.64-6.496-9.64-6.496l-7.87 10.23 7.28 7.377 7.57-2.558 3.31-6.952z" fill="#000"/><path d="M1255.34 94.989l-9.52-1.67-3.25 17.144c-.07 1.199-.31 2.254-.3 3.287.02 1.13.33 2.238 1.48 3.483 0 0 1.6 1.465 3.51 3.006.78.622 3.19 2.754 5.3 2.405.78-.129 2.39-.66 2.39-.66 1.47-.554 2.24-1.047 3.11-2.626 1.14-2.034 5.89-18.731 5.89-18.731l1.48-5.57-10.09-.069z" fill="#D6BBA1"/><path d="M1264.39 92.385c1.53 1.913 1.39 4.175.69 5.791-.63 1.442-1 2.482-1.11 2.459 0 0-.92-3.62-3.62-1.95-2.61 1.616-3.96 2.944-4.16 2.838 0 0 .27-2.99.42-3.096.14-.107-2.7 2.633-2.7 2.633-.16.076-.54-1.442-.83-1.427-3.12.167-4.23 3.734-4.41 5.252l-.27 1.503c-.14.782-.16 1.639-.92 1.472-.61-.136-.79-.63-1.16-1.442 0 0-1.15-3.248-3.24-2.747-1.83.433-1.11 5.13-1.04 5.366l-1.43 2.201c-.74.083 0 0-.65-1.48-1.6-3.681-1.89-5.943-2.16-7.119-1.33-6.019.97-11.324 5.07-14.223 1.28-.903 6.35-2.838 6.48-3.544.02-.091.84.728 2.02.91 3.81.593 2.43-1.38 2.43-1.38 1 0 3.11 2.413 3.26 2.587 1.17 1.336 1.56-.402 1.56-.402 1.17.835 5.77 5.798 5.77 5.798z" fill="#633A11"/><path opacity=".49" d="M1230.98 105.189s-2.64-15.399 9.71-21.873c10.92-5.715 19.76.66 22.44 2.96 3.15 2.702 7.35 10.049 6.11 17.228-1.35 7.863-4.12 17.805-4.12 17.805s-.27 3.643-6.47 5.123c-3.21.766-6.69.478-11.14-2.239-5.43-3.317-12.74-10.572-12.74-10.572s-3.51-3.127-3.79-8.432z" fill="#2E3C3F"/><path d="M1264.96 118.175c-1.23 1.442-4.42 2.262-6.69 2.459-2.47.22-4.08.083-6.3-1.374-.99-.645-3.68-2.504-5.9-4.72-2.07-2.065-1.77-3.841-1.77-3.841s-.2-1.669.18-5.138c.64-5.882 4.36-3.294 4.36-3.294s2.86 2.118 5.22 3.598c2.5 1.563 4.14 1.844 8.22 1.776 4.53-.076 6.22-1.996 6.86-3.575.04-.182.07-.364.1-.546 1.23-7.18-2.97-14.534-6.12-17.228-2.68-2.3-11.52-8.675-22.44-2.96-12.34 6.474-9.71 21.873-9.71 21.873.27 5.305 3.79 8.439 3.79 8.439s7.32 7.256 12.75 10.572c4.45 2.725 7.92 3.006 11.14 2.239 6.2-1.48 6.46-5.123 6.46-5.123s.66-2.353 1.49-5.677c-.61 1.086-1.28 2.11-1.64 2.52z" fill="#14456D"/><path d="M1269.06 97.175c-.15.979-.36 1.943-.71 2.853-.56 1.556-1.54 2.937-2.91 3.78-1.36.797-3.06.865-4.57.372-1.55-.463-2.89-1.412-4.19-2.474-2.63-2.072-4.97-4.509-7.5-6.778-.63-.57-1.28-1.123-1.94-1.662-.67-.546-1.42-1.025-2.26-1.32-.83-.289-1.79-.327-2.61.038-.81.349-1.45 1.001-1.83 1.753.47-.699 1.15-1.253 1.92-1.518.77-.258 1.62-.144 2.35.174 1.51.623 2.64 1.928 3.86 3.082 2.39 2.368 4.73 4.849 7.41 6.982 1.32 1.047 2.8 2.117 4.53 2.595 1.7.494 3.69.418 5.22-.599 1.49-1.01 2.47-2.618 2.97-4.258.2-.72.33-1.457.41-2.2-.03-.282-.1-.555-.15-.82z" fill="#5D7082"/><path fill-rule="evenodd" clip-rule="evenodd" d="M1275.42 200.353c.18 8.963 9.31 11.111 13.76 8.538 4.45-2.573 8.05-9.244 8.05-14.906 0-6.777-5.13-8.28-10.66-6.018-5.41 2.201-11.24 8.045-11.15 12.386z" fill="#1B91D0"/><path fill-rule="evenodd" clip-rule="evenodd" d="M1289.18 188.392c-4.45 2.573-8.06 9.244-8.06 14.905 0 5.662 3.61 8.167 8.06 5.601 4.45-2.572 8.05-9.244 8.05-14.905.01-5.67-3.6-8.174-8.05-5.601z" fill="#004687"/><path fill-rule="evenodd" clip-rule="evenodd" d="M1289.64 189.189c4.27-2.459 6.67.501 6.67 4.796 0 5.017-3.18 11.567-7.59 14.109-4.26 2.459-6.67-.501-6.67-4.796 0-5.017 3.18-11.567 7.59-14.109z" fill="#fff"/><path fill-rule="evenodd" clip-rule="evenodd" d="M1288.74 191.238c3.04-1.753 4.75.357 4.75 3.415 0 3.567-2.27 8.227-5.4 10.041-3.03 1.753-4.75-.357-4.75-3.415 0-3.567 2.27-8.227 5.4-10.041z" fill="#F0F0F0"/><path fill-rule="evenodd" clip-rule="evenodd" d="M1296.34 174.26l-2.94-1.707-.3-.099-.34-.015-.35.076-.37.174-16.6 10.018-.19.122-.17.136-.16.16-.16.167-.14.19-.13.189-.12.213-.12.212-.09.22-.08.228-.07.228-.05.235-.03.235-.02.228v.228l.02.227 2.49 18.192 2.94 1.708-2.49-18.2-.02-.22v-.227l.01-.236.04-.227.05-.236.06-.227.09-.228.09-.228.11-.212.12-.205.13-.197.15-.183.16-.174.16-.152.17-.144.18-.122 16.61-10.01.37-.175.35-.083.33.015.31.106z" fill="#14AFEB"/><path fill-rule="evenodd" clip-rule="evenodd" d="M1294.98 174.397l-16.61 10.018c-.98.592-1.66 2.042-1.5 3.218l2.49 18.192 1.62-.934-2.49-18.237c-.01-.114.06-.266.16-.319l16.27-9.813c.1-.06.2-.007.22.106l2.63 18.891 1.88-1.078-2.57-18.989c-.17-1.176-1.12-1.654-2.1-1.055z" fill="#5AC8F5"/><path fill-rule="evenodd" clip-rule="evenodd" d="M1292.64 177.888l1.33 9.7c.17.076.33.167.48.265 1.54.805 2.56 2.619 2.75 5.222.01.099.02.197.02.296V195.109l-.01.076V195.291l.58.334-2.49-18.192-.02-.22v-.228l.02-.227.03-.236.03-.151c-.03 0-.06.007-.09.022l-2.63 1.495z" fill="#14AFEB"/><path fill-rule="evenodd" clip-rule="evenodd" d="M1277.13 184.574l-7.39-4.485 2.7-8.5.09-.167.08.068.32.471.31.493.31.516.3.547.3.561.29.592.29.622.28.653.28.683.27.706.28.744.36 1.032.34.949.28.872.25.782.19.698.12.6.06.516-.02.41-.09.319-.18.212.15-.091-.17.197z" fill="#004687"/><path fill-rule="evenodd" clip-rule="evenodd" d="M1271.61 177.053l-16.81 1.237c1.42-.022 3.18 2.862 2.81 3.643l-.22.084 15.97-1.237c2.15-.463-.02-3.916-1.75-3.727z" fill="#0082C8"/><path fill-rule="evenodd" clip-rule="evenodd" d="M1256.1 178.662c1.01.63 1.83 1.814 1.83 2.634 0 .827-.82.979-1.83.349-1.01-.63-1.83-1.814-1.83-2.634-.01-.82.82-.979 1.83-.349z" fill="#000"/><path fill-rule="evenodd" clip-rule="evenodd" d="M1255.1 178.07l-11.43 6.952.27-.129.31-.038.35.061.36.167.19.114.19.144.17.159.17.175.16.19.15.205.14.22.13.227.12.236.1.242.1.243.08.251.06.25.04.251.03.25.01.251-.04.447-.1.38-.18.303-.22.22 11.43-6.951.23-.221.17-.303.1-.38.04-.447-.01-.251-.03-.25-.04-.251-.06-.25-.08-.251-.09-.242-.11-.243-.12-.236-.13-.227-.13-.22-.16-.205-.16-.19-.17-.175-.17-.159-.19-.144-.18-.114-.37-.167-.34-.061-.31.038-.28.129z" fill="#0082C8"/><path fill-rule="evenodd" clip-rule="evenodd" d="M1244.96 185.083c1.01.584 1.83 2.11 1.83 3.407 0 1.298-.82 1.883-1.83 1.298-1.01-.584-1.83-2.11-1.83-3.407 0-1.298.82-1.883 1.83-1.298z" fill="#E5E6DC"/><path fill-rule="evenodd" clip-rule="evenodd" d="M1242.29 183.792l-18.3 11.127.44-.213.5-.061.55.099.59.266.3.189.29.228.28.251.27.28.26.311.24.327.22.349.22.357.19.379.16.387.15.395.12.402.1.402.07.403.05.394.01.395-.06.728-.17.608-.27.485-.35.349 18.29-11.126.35-.349.28-.486.16-.607.06-.721-.01-.394-.05-.403-.06-.402-.1-.402-.12-.402-.16-.395-.16-.387-.19-.372-.21-.364-.23-.349-.24-.327-.26-.303-.26-.281-.28-.258-.29-.228-.31-.189-.59-.266-.54-.091-.5.061-.44.204z" fill="#0EB8EC"/><path fill-rule="evenodd" clip-rule="evenodd" d="M1226.07 195.01c1.62.933 2.93 3.369 2.93 5.449 0 2.079-1.31 3.013-2.93 2.079-1.61-.933-2.93-3.369-2.93-5.449 0-2.079 1.31-3.013 2.93-2.079z" fill="#5AC8F5"/><path fill-rule="evenodd" clip-rule="evenodd" d="M1332.95 129.559l-18.29 10.966.43-.205.5-.053.55.099.59.266.29.197.3.228.28.258.27.28.26.312.24.326.23.349.2.364.19.38.17.387.15.395.12.402.1.402.07.402.04.402.02.395-.06.721-.17.615-.27.478-.36.349 18.3-10.974.36-.349.26-.478.18-.608.06-.728-.02-.395-.04-.394-.08-.41-.1-.403-.12-.402-.14-.394-.18-.387-.18-.38-.21-.364-.23-.349-.24-.327-.25-.311-.28-.281-.28-.258-.29-.227-.3-.19-.59-.273-.55-.099-.49.053-.44.213z" fill="#0EB8EC"/><path fill-rule="evenodd" clip-rule="evenodd" d="M1316.73 140.632c1.62.941 2.93 3.392 2.93 5.479 0 2.08-1.31 2.998-2.93 2.057-1.62-.941-2.93-3.4-2.93-5.48 0-2.079 1.31-2.997 2.93-2.056z" fill="#0082C8"/><path fill-rule="evenodd" clip-rule="evenodd" d="M1314.09 142.802l-11.43 6.853.27-.129.31-.038.34.069.38.167.18.121.18.137.17.167.18.174.16.19.15.205.14.22.13.228.12.235.1.243.09.25.08.251.06.25.05.251.03.25.01.251-.04.447-.11.38-.17.303-.22.221 11.43-6.861.22-.213.17-.303.11-.38.03-.455v-.243l-.03-.251-.05-.25-.06-.258-.08-.25-.09-.243-.1-.243-.12-.235-.13-.228-.14-.22-.15-.205-.16-.198-.17-.174-.18-.159-.17-.145-.19-.121-.38-.167-.34-.061-.31.038-.27.129z" fill="#0082C8"/><path fill-rule="evenodd" clip-rule="evenodd" d="M1303.96 149.724c1 .592 1.82 2.125 1.82 3.423s-.82 1.874-1.82 1.282c-1.01-.592-1.83-2.125-1.83-3.422-.01-1.298.81-1.875 1.83-1.283z" fill="#0082C8"/><path fill-rule="evenodd" clip-rule="evenodd" d="M1301.3 151.727l-10.58 14.003.26-.304.29-.228.34-.151.36-.061h.19l.18.03.19.053.16.069.17.091.16.114.14.129.15.144.13.167.11.174.11.19.08.205.08.212.06.221.04.235.03.243-.01.47-.09.448-.14.41-.2.357 10.58-14.003.2-.357.14-.409.09-.448.01-.471-.03-.243-.04-.235-.06-.22-.08-.213-.08-.204-.11-.19-.11-.175-.13-.167-.14-.144-.15-.129-.16-.114-.17-.091-.16-.076-.19-.045-.18-.031h-.19l-.36.061-.34.152-.29.228-.26.303z" fill="#0082C8"/><path fill-rule="evenodd" clip-rule="evenodd" d="M1291.97 164.986c1.01-.046 1.89.979 1.98 2.277.07 1.297-.68 2.39-1.69 2.428-1.01.046-1.89-.979-1.97-2.277-.08-1.297.67-2.39 1.68-2.428z" fill="#000"/><path fill-rule="evenodd" clip-rule="evenodd" d="M1277.15 184.468l18.43-11.232.18-.213.09-.319.02-.417-.06-.508-.13-.608-.19-.698-.25-.782-.28-.865-.34-.948-.36-1.033-.28-.743-.27-.714-.28-.683-.28-.652-.29-.623-.29-.592-.29-.569-.31-.539-.3-.516-.31-.493-.32-.471-.1-.136c-7.84-2.012-13.71 2.671-18.43 11.232l.1.137.32.47.31.493.31.517.3.538.3.57.29.592.29.622.28.653.28.683.27.713.28.744.36 1.032.34.949.28.865.25.782.19.698.13.607.06.508-.02.418-.09.319-.19.212z" fill="#0082C8"/><path fill-rule="evenodd" clip-rule="evenodd" d="M1319.66 146.141l18.29-10.974.01-.03-.02-.395-.04-.395-.08-.409-.1-.403-.12-.402-.14-.395-.18-.387-.19-.379-.2-.364-.17-.258-18.29 10.974.17.258.2.364.19.38.17.387.15.394.12.403.1.402.07.402.04.402.02.395v.03z" fill="#5AC8F5"/><path fill-rule="evenodd" clip-rule="evenodd" d="M1194 224.494c-.17.683.24 1.382.93 1.549.69.174 1.39-.243 1.55-.934 0-.007 1.05-3.977 1.82-8.075l.17-.88c.72-3.772 1.06-5.563.43-7.127-.6-1.48-1.83-2.277-4.19-3.795-.51-.326-1.08-.69-1.67-1.077-1.74-1.154-3.88-2.55-6.04-3.954-3.25-2.118-6.12-3.962-7.9-5.1-.51-.334-.79-.623-.88-.911-.1-.319-.02-.774.18-1.381l3.66-11.081c-1.16.144-2.14.455-2.99.88l-3.11 9.396c-.36 1.101-.46 2.034-.2 2.914.28.911.9 1.655 1.95 2.338 2.01 1.29 5.07 3.263 7.9 5.092 2.01 1.306 4.11 2.68 6.02 3.939.66.433 1.2.782 1.7 1.101 1.91 1.229 2.91 1.874 3.21 2.603.35.865.05 2.421-.57 5.685l-.17.887c-.75 3.947-1.8 7.916-1.8 7.931z" fill="#0082C8"/><path fill-rule="evenodd" clip-rule="evenodd" d="M1243.78 260.226c.87-.251.89-1.48 0-2.983 0 0-5.48-3.764-6.21-4.485-.73-.721-2.65-3.658-3.24-4.038-.58-.379-46.16-27.011-46.16-27.011-3.43-1.935-6.9 4.379-4.98 8.44.24 1.389 60.59 30.077 60.59 30.077z" fill="#14AFEB"/><path fill-rule="evenodd" clip-rule="evenodd" d="M1242.73 258.199c0 .008 0 .008.01.008a3669.65 3669.65 0 0 1-28.84-13.874c-6.61-3.21-13.23-6.443-19.79-9.76-2.29-1.161-4.59-2.33-6.85-3.544-.69-.372-2.2-1.131-2.9-1.655-1.05-2.641.97-7.695 3.14-6.466 7.72 4.448 15.39 8.994 23.08 13.487 5.19 3.035 10.38 6.071 15.57 9.115 2.46 1.442 5.04 2.868 7.38 4.326.99.857 2.02 2.838 3.08 3.9 1.32 1.321 4.32 3.256 6.12 4.463z" fill="#5AC8F5"/><path d="M1230.8 187.929l5.82-3.499s2.65-2.307 6.26 1.685c2.01 2.224 2.74 3.651 2.74 3.651s1.6 1.836-.67 2.99c-.78.395-.7.395-2.19.941-3.17 1.161-3.82 1.51-6.47.266-1.57-.737-3.61-2.194-5.03-2.399-1.03-.144-2.89.744-2.89.744s-.64-2.102 2.43-4.379zM1317.13 136.116l5.83-3.499s2.64-2.307 6.25 1.685c2.02 2.224 2.74 3.651 2.74 3.651s1.61 1.836-.66 2.99c-.79.395-.7.395-2.19.941-3.17 1.161-3.82 1.51-6.47.266-1.57-.737-3.62-2.194-5.04-2.399-1.02-.144-2.88.744-2.88.744s-.64-2.11 2.42-4.379z" fill="#DDBEA4"/><defs><filter id="filter0_d" x="-4" y="-2" width="1608" height="408" filterUnits="userSpaceOnUse" color-interpolation-filters="sRGB"><feFlood flood-opacity="0" result="BackgroundImageFix"/><feColorMatrix in="SourceAlpha" values="0 0 0 0 0 0 0 0 0 0 0 0 0 0 0 0 0 0 127 0"/><feOffset dy="2"/><feGaussianBlur stdDeviation="2"/><feColorMatrix values="0 0 0 0 0 0 0 0 0 0 0 0 0 0 0 0 0 0 0.08 0"/><feBlend in2="BackgroundImageFix" result="effect1_dropShadow"/><feBlend in="SourceGraphic" in2="effect1_dropShadow" result="shape"/></filter></defs></svg>