<svg width="375" height="156" fill="none" xmlns="http://www.w3.org/2000/svg" viewBox="0 0 375 156"><path d="M375 0H0v156h375V0z" fill="#F5FCFF"/><path d="M187.5 151.244c61.027 0 110.5-18.496 110.5-41.313 0-22.816-49.473-41.312-110.5-41.312S77 87.115 77 109.93c0 22.817 49.473 41.313 110.5 41.313z" fill="#004EBB"/><path d="M211.922 134.487l-49.186 9.548 5.208-27.486 49.475-27.197 44.709 24.454c3.003 1.643 2.69 6.053-.515 7.255l-38.118 14.294-11.573-.868z" fill="#0032A5"/><path fill-rule="evenodd" clip-rule="evenodd" d="M154 9.091c0-.918.49-1.768 1.298-2.252a2.829 2.829 0 0 1 2.666-.12c9.899 4.758 35.608 17.11 45.154 21.7 2.362 1.135 4.271 2.987 5.435 5.273l11.748 23.055a11.3 11.3 0 0 1 1.238 5.132v72.827a2.63 2.63 0 0 1-1.298 2.252 2.829 2.829 0 0 1-2.666.121c-11.781-5.669-46.532-22.385-59.031-28.401-2.786-1.338-4.544-4.084-4.544-7.087v-92.5z" fill="#E7F3FF"/><path fill-rule="evenodd" clip-rule="evenodd" d="M166.021 80.86v2.28c0 .814.534 1.731 1.194 2.048l41.107 19.856c.661.317 1.195-.083 1.195-.897v-2.279c0-.814-.534-1.732-1.195-2.049l-41.107-19.856c-.66-.317-1.194.087-1.194.898zm0-11.747v2.279c0 .814.534 1.731 1.194 2.048l41.107 19.856c.661.317 1.195-.083 1.195-.897v-2.28c0-.813-.534-1.73-1.195-2.048l-41.107-19.856c-.66-.317-1.194.087-1.194.898zm0-12.406v2.28c0 .813.534 1.73 1.194 2.048l41.107 19.856c.661.317 1.195-.084 1.195-.898v-2.279c0-.814-.534-1.731-1.195-2.048L167.215 55.81c-.66-.317-1.194.087-1.194.897z" fill="#6589AC"/><path fill-rule="evenodd" clip-rule="evenodd" d="M220.071 137.052c.057-.03.114-.06.167-.094a2.63 2.63 0 0 0 1.298-2.252V61.879a11.29 11.29 0 0 0-1.238-5.132L208.55 33.692c-1.164-2.286-3.073-4.138-5.435-5.272-9.543-4.591-35.251-16.943-45.151-21.701a2.822 2.822 0 0 0-2.405-.017l4.954-2.392a2.828 2.828 0 0 1 2.506-.034c9.9 4.758 35.608 17.11 45.154 21.701 2.362 1.135 4.271 2.987 5.435 5.272l11.748 23.056a11.3 11.3 0 0 1 1.238 5.132v72.827a2.628 2.628 0 0 1-1.475 2.349l-.003.003c-.023.014-.05.024-.073.037l-4.972 2.399zM155.472 6.742l.003-.003-.003.003z" fill="#A6C8EB"/><path fill-rule="evenodd" clip-rule="evenodd" d="M204.055 130.576v-11.468c0-8.008-11.648-8.401-11.648-8.401s-.013-4.681 0-7.734c.027-5.926-12.235-7.661-12.262-1.959-.033 7.32 0 17.971 0 17.971l23.91 11.591z" fill="#BED4EB"/><path fill-rule="evenodd" clip-rule="evenodd" d="M177.56 123.205v2.376c0 2.399-3.754 4.344-8.375 4.344h-.054c-4.597-.017-8.321-1.955-8.321-4.344v-2.376c0 2.399 3.754 4.344 8.375 4.344s8.375-1.945 8.375-4.344z" fill="#E8B300"/><path fill-rule="evenodd" clip-rule="evenodd" d="M169.185 118.861c4.621 0 8.375 1.945 8.375 4.344s-3.754 4.344-8.375 4.344c-4.625 0-8.375-1.945-8.375-4.344-.003-2.396 3.75-4.344 8.375-4.344z" fill="#FFF0A6"/><path fill-rule="evenodd" clip-rule="evenodd" d="M178.1 120.315v2.376c0 2.399-3.753 4.344-8.374 4.344h-.054c-4.598-.016-8.321-1.955-8.321-4.344v-2.376c0 2.399 3.753 4.345 8.375 4.345 4.624 0 8.374-1.946 8.374-4.345z" fill="#E8B300"/><path fill-rule="evenodd" clip-rule="evenodd" d="M169.726 115.972c4.624 0 8.374 1.945 8.374 4.344s-3.753 4.344-8.374 4.344c-4.622 0-8.375-1.945-8.375-4.344 0-2.396 3.75-4.344 8.375-4.344z" fill="#FFF0A6"/><path fill-rule="evenodd" clip-rule="evenodd" d="M177.215 117.126v2.376c0 2.399-3.754 4.344-8.375 4.344h-.053c-4.598-.017-8.322-1.955-8.322-4.344v-2.376c0 2.399 3.754 4.344 8.375 4.344s8.375-1.945 8.375-4.344z" fill="#E8B300"/><path fill-rule="evenodd" clip-rule="evenodd" d="M168.84 112.782c4.625 0 8.375 1.945 8.375 4.344s-3.754 4.344-8.375 4.344-8.375-1.945-8.375-4.344 3.751-4.344 8.375-4.344z" fill="#FFF0A6"/><path fill-rule="evenodd" clip-rule="evenodd" d="M177.755 114.26v2.375c0 2.399-3.753 4.345-8.374 4.345h-.054c-4.598-.017-8.321-1.956-8.321-4.345v-2.375c0 2.399 3.754 4.344 8.375 4.344s8.374-1.945 8.374-4.344z" fill="#E8B300"/><path fill-rule="evenodd" clip-rule="evenodd" d="M169.378 109.916c4.624 0 8.375 1.945 8.375 4.344s-3.754 4.344-8.375 4.344-8.375-1.945-8.375-4.344 3.754-4.344 8.375-4.344z" fill="#FFF0A6"/><path fill-rule="evenodd" clip-rule="evenodd" d="M176.683 111.911v2.375c0 2.399-3.754 4.345-8.375 4.345h-.053c-4.598-.017-8.322-1.956-8.322-4.345v-2.375c0 2.399 3.754 4.344 8.375 4.344s8.375-1.949 8.375-4.344z" fill="#E8B300"/><path fill-rule="evenodd" clip-rule="evenodd" d="M168.308 107.566c4.621 0 8.375 1.946 8.375 4.345s-3.754 4.344-8.375 4.344c-4.625 0-8.375-1.945-8.375-4.344-.003-2.399 3.75-4.345 8.375-4.345z" fill="#FFF0A6"/><path fill-rule="evenodd" clip-rule="evenodd" d="M177.222 109.022v2.376c0 2.399-3.753 4.344-8.374 4.344h-.054c-4.598-.014-8.321-1.955-8.321-4.344v-2.376c0 2.399 3.753 4.344 8.375 4.344 4.621 0 8.374-1.948 8.374-4.344z" fill="#E8B300"/><path fill-rule="evenodd" clip-rule="evenodd" d="M168.848 104.677c4.624 0 8.374 1.945 8.374 4.344s-3.753 4.345-8.374 4.345c-4.622 0-8.375-1.946-8.375-4.345s3.75-4.344 8.375-4.344z" fill="#FFF0A6"/><path fill-rule="evenodd" clip-rule="evenodd" d="M176.336 105.828v2.376c0 2.399-3.754 4.344-8.375 4.344h-.053c-4.598-.017-8.322-1.955-8.322-4.344v-2.376c0 2.399 3.754 4.344 8.375 4.344s8.375-1.945 8.375-4.344z" fill="#E8B300"/><path fill-rule="evenodd" clip-rule="evenodd" d="M167.961 101.488c4.621 0 8.375 1.945 8.375 4.344s-3.754 4.344-8.375 4.344c-4.625 0-8.375-1.945-8.375-4.344-.003-2.399 3.75-4.344 8.375-4.344z" fill="#FFF0A6"/><path fill-rule="evenodd" clip-rule="evenodd" d="M176.878 102.962v2.376c0 2.399-3.753 4.344-8.374 4.344h-.054c-4.598-.016-8.321-1.955-8.321-4.344v-2.376c0 2.399 3.753 4.345 8.375 4.345 4.621 0 8.374-1.946 8.374-4.345z" fill="#E8B300"/><path fill-rule="evenodd" clip-rule="evenodd" d="M168.501 98.618c4.624 0 8.375 1.945 8.375 4.344s-3.754 4.345-8.375 4.345-8.375-1.946-8.375-4.345 3.754-4.344 8.375-4.344z" fill="#FFF0A6"/><path fill-rule="evenodd" clip-rule="evenodd" d="M177.42 100.076v2.376c0 2.399-3.754 4.344-8.375 4.344h-.053c-4.598-.017-8.322-1.955-8.322-4.344v-2.376c0 2.399 3.754 4.344 8.375 4.344 4.621-.003 8.375-1.948 8.375-4.344z" fill="#E8B300"/><path fill-rule="evenodd" clip-rule="evenodd" d="M169.045 95.732c4.621 0 8.375 1.945 8.375 4.344s-3.754 4.344-8.375 4.344-8.375-1.945-8.375-4.344c-.003-2.399 3.751-4.344 8.375-4.344z" fill="#FFF0A6"/><path fill-rule="evenodd" clip-rule="evenodd" d="M176.878 96.883v2.376c0 2.398-3.753 4.344-8.374 4.344h-.054c-4.598-.017-8.321-1.956-8.321-4.344v-2.376c0 2.399 3.753 4.344 8.375 4.344 4.621 0 8.374-1.945 8.374-4.344z" fill="#E8B300"/><path fill-rule="evenodd" clip-rule="evenodd" d="M168.501 92.539c4.624 0 8.375 1.945 8.375 4.344s-3.754 4.344-8.375 4.344-8.375-1.945-8.375-4.344c0-2.396 3.754-4.344 8.375-4.344z" fill="#FFF0A6"/><path fill-rule="evenodd" clip-rule="evenodd" d="M177.42 93.643v2.376c0 2.399-3.754 4.344-8.375 4.344h-.053c-4.598-.017-8.322-1.955-8.322-4.344v-2.376c0 2.4 3.754 4.344 8.375 4.344s8.375-1.948 8.375-4.344z" fill="#E8B300"/><path fill-rule="evenodd" clip-rule="evenodd" d="M169.045 89.299c4.621 0 8.375 1.945 8.375 4.344 0 2.4-3.754 4.344-8.375 4.344s-8.375-1.945-8.375-4.344c-.003-2.399 3.751-4.344 8.375-4.344z" fill="#FFF0A6"/><path fill-rule="evenodd" clip-rule="evenodd" d="M161.821 93.897a2.169 2.169 0 0 1-.017-.257c0-2.072 3.243-3.753 7.24-3.753 3.998 0 7.241 1.681 7.241 3.753 0 .087-.007.17-.017.257-.254-1.952-3.393-3.5-7.224-3.5-3.83.004-6.97 1.548-7.223 3.5zM193.519 132.761v2.375c0 2.399-3.753 4.345-8.375 4.345h-.053c-4.598-.017-8.321-1.956-8.321-4.345v-2.375c0 2.399 3.753 4.344 8.374 4.344 4.622 0 8.375-1.949 8.375-4.344z" fill="#F8CB00"/><path fill-rule="evenodd" clip-rule="evenodd" d="M185.14 128.417c4.624 0 8.374 1.945 8.374 4.344s-3.753 4.344-8.374 4.344-8.375-1.945-8.375-4.344 3.754-4.344 8.375-4.344z" fill="#FFF0A6"/><path fill-rule="evenodd" clip-rule="evenodd" d="M192.444 130.409v2.375c0 2.399-3.754 4.345-8.375 4.345h-.053c-4.598-.014-8.322-1.956-8.322-4.345v-2.375c0 2.399 3.754 4.344 8.375 4.344s8.375-1.945 8.375-4.344z" fill="#F8CB00"/><path fill-rule="evenodd" clip-rule="evenodd" d="M184.069 126.064c4.621 0 8.375 1.946 8.375 4.345s-3.754 4.344-8.375 4.344-8.375-1.945-8.375-4.344c-.003-2.396 3.75-4.345 8.375-4.345z" fill="#FFF0A6"/><path fill-rule="evenodd" clip-rule="evenodd" d="M192.986 127.522v2.376c0 2.399-3.753 4.344-8.375 4.344h-.053c-4.598-.016-8.321-1.955-8.321-4.344v-2.376c0 2.399 3.753 4.345 8.374 4.345 4.625 0 8.375-1.949 8.375-4.345z" fill="#F8CB00"/><path fill-rule="evenodd" clip-rule="evenodd" d="M184.611 123.179c4.622 0 8.375 1.945 8.375 4.344s-3.753 4.344-8.375 4.344c-4.624 0-8.374-1.945-8.374-4.344s3.75-4.344 8.374-4.344z" fill="#FFF0A6"/><path fill-rule="evenodd" clip-rule="evenodd" d="M192.097 124.33v2.376c0 2.399-3.754 4.344-8.375 4.344h-.053c-4.598-.013-8.322-1.955-8.322-4.344v-2.376c0 2.399 3.754 4.344 8.375 4.344s8.375-1.945 8.375-4.344z" fill="#F8CB00"/><path fill-rule="evenodd" clip-rule="evenodd" d="M183.722 119.985c4.621 0 8.375 1.946 8.375 4.345s-3.754 4.344-8.375 4.344c-4.624 0-8.375-1.945-8.375-4.344 0-2.396 3.751-4.345 8.375-4.345z" fill="#FFF0A6"/><path fill-rule="evenodd" clip-rule="evenodd" d="M192.64 121.463v2.376c0 2.399-3.753 4.344-8.374 4.344h-.054c-4.598-.016-8.321-1.955-8.321-4.344v-2.376c0 2.399 3.753 4.345 8.375 4.345 4.621 0 8.374-1.946 8.374-4.345z" fill="#F8CB00"/><path fill-rule="evenodd" clip-rule="evenodd" d="M184.264 117.119c4.621 0 8.374 1.945 8.374 4.344s-3.753 4.345-8.374 4.345c-4.625 0-8.375-1.946-8.375-4.345 0-2.395 3.753-4.344 8.375-4.344z" fill="#FFF0A6"/><path fill-rule="evenodd" clip-rule="evenodd" d="M193.181 118.574v2.375c0 2.399-3.754 4.345-8.375 4.345h-.053c-4.598-.017-8.322-1.956-8.322-4.345v-2.375c0 2.399 3.754 4.344 8.375 4.344s8.375-1.945 8.375-4.344z" fill="#F8CB00"/><path fill-rule="evenodd" clip-rule="evenodd" d="M184.806 114.23c4.625 0 8.375 1.945 8.375 4.344s-3.754 4.344-8.375 4.344-8.375-1.945-8.375-4.344c-.003-2.395 3.751-4.344 8.375-4.344z" fill="#FFF0A6"/><path fill-rule="evenodd" clip-rule="evenodd" d="M192.64 115.384v2.376c0 2.399-3.753 4.344-8.374 4.344h-.054c-4.598-.017-8.321-1.955-8.321-4.344v-2.376c0 2.399 3.753 4.345 8.375 4.345 4.621 0 8.374-1.946 8.374-4.345z" fill="#F8CB00"/><path fill-rule="evenodd" clip-rule="evenodd" d="M184.264 111.04c4.621 0 8.374 1.945 8.374 4.344s-3.753 4.344-8.374 4.344c-4.625 0-8.375-1.945-8.375-4.344 0-2.395 3.753-4.344 8.375-4.344z" fill="#FFF0A6"/><path fill-rule="evenodd" clip-rule="evenodd" d="M193.181 112.141v2.376c0 2.399-3.754 4.344-8.375 4.344h-.053c-4.598-.017-8.322-1.955-8.322-4.344v-2.376c0 2.399 3.754 4.344 8.375 4.344s8.375-1.945 8.375-4.344z" fill="#F8CB00"/><path fill-rule="evenodd" clip-rule="evenodd" d="M184.806 107.8c4.625 0 8.375 1.946 8.375 4.345s-3.754 4.344-8.375 4.344-8.375-1.945-8.375-4.344c-.003-2.399 3.751-4.345 8.375-4.345z" fill="#FFF0A6"/><path fill-rule="evenodd" clip-rule="evenodd" d="M177.585 112.398a2.16 2.16 0 0 1-.017-.257c0-2.072 3.243-3.753 7.24-3.753 3.997 0 7.241 1.681 7.241 3.753 0 .087-.007.171-.017.257-.254-1.952-3.393-3.5-7.224-3.5-3.83.004-6.97 1.548-7.223 3.5zM172.024 137.129v2.376c0 2.399-3.754 4.344-8.375 4.344h-.053c-4.598-.017-8.322-1.955-8.322-4.344v-2.376c0 2.399 3.754 4.344 8.375 4.344 4.624 0 8.375-1.945 8.375-4.344z" fill="#F8CB00"/><path fill-rule="evenodd" clip-rule="evenodd" d="M163.649 132.784c4.624 0 8.375 1.945 8.375 4.344s-3.754 4.345-8.375 4.345-8.375-1.946-8.375-4.345c0-2.395 3.75-4.344 8.375-4.344z" fill="#FFF0A6"/><path fill-rule="evenodd" clip-rule="evenodd" d="M171.483 134.253v2.376c0 2.399-3.754 4.344-8.375 4.344h-.053c-4.598-.017-8.321-1.955-8.321-4.344v-2.376c0 2.399 3.753 4.344 8.374 4.344s8.375-1.945 8.375-4.344z" fill="#F8CB00"/><path fill-rule="evenodd" clip-rule="evenodd" d="M163.108 129.909c4.621 0 8.375 1.945 8.375 4.344s-3.754 4.344-8.375 4.344c-4.624 0-8.374-1.945-8.374-4.344s3.75-4.344 8.374-4.344z" fill="#FFF0A6"/><path fill-rule="evenodd" clip-rule="evenodd" d="M172.024 131.363v2.376c0 2.399-3.754 4.344-8.375 4.344h-.053c-4.598-.017-8.322-1.955-8.322-4.344v-2.376c0 2.399 3.754 4.345 8.375 4.345 4.624 0 8.375-1.946 8.375-4.345z" fill="#F8CB00"/><path fill-rule="evenodd" clip-rule="evenodd" d="M163.649 127.022c4.624 0 8.375 1.946 8.375 4.345s-3.754 4.344-8.375 4.344-8.375-1.945-8.375-4.344 3.75-4.345 8.375-4.345z" fill="#FFF0A6"/><path fill-rule="evenodd" clip-rule="evenodd" d="M171.483 128.173v2.376c0 2.399-3.754 4.344-8.375 4.344h-.053c-4.598-.017-8.321-1.956-8.321-4.344v-2.376c0 2.399 3.753 4.344 8.374 4.344s8.375-1.945 8.375-4.344z" fill="#F8CB00"/><path fill-rule="evenodd" clip-rule="evenodd" d="M163.108 123.829c4.621 0 8.375 1.945 8.375 4.344s-3.754 4.345-8.375 4.345c-4.624 0-8.374-1.946-8.374-4.345-.004-2.395 3.75-4.344 8.374-4.344z" fill="#FFF0A6"/><path fill-rule="evenodd" clip-rule="evenodd" d="M172.024 124.934v2.375c0 2.399-3.754 4.344-8.375 4.344h-.053c-4.598-.016-8.322-1.955-8.322-4.344v-2.375c0 2.399 3.754 4.344 8.375 4.344 4.624 0 8.375-1.949 8.375-4.344z" fill="#F8CB00"/><path fill-rule="evenodd" clip-rule="evenodd" d="M163.649 120.589c4.624 0 8.375 1.946 8.375 4.345s-3.754 4.344-8.375 4.344-8.375-1.945-8.375-4.344 3.75-4.345 8.375-4.345z" fill="#FFF0A6"/><path fill-rule="evenodd" clip-rule="evenodd" d="M156.425 125.187a2.176 2.176 0 0 1-.016-.257c0-2.072 3.243-3.754 7.24-3.754 3.997 0 7.241 1.682 7.241 3.754 0 .087-.007.17-.017.257-.254-1.952-3.393-3.5-7.224-3.5-3.83 0-6.97 1.548-7.224 3.5z" fill="#F8CB00"/><path d="M178.54 31.163l-.01 3.894-4.868-2.81-.046 16.606-4.054-2.339.05-16.606-4.795-2.77.013-3.893 13.71 7.918zM188.233 36.758l5.475 23.7-4.341-2.51-1.361-6.058-5.109-2.95-1.284 4.531-4.184-2.415 5.512-17.357 5.292 3.06zm-4.748 9.05l3.944 2.278-1.098-4.992c-.314-1.4-.627-3.106-.891-4.474l-.053-.03c-.271 1.064-.541 2.462-.831 3.48l-1.071 3.737zM209.31 48.927l-5.062 7.103 5.266 13.55-4.662-2.689-1.604-4.645c-.658-1.808-1.082-3.12-1.579-4.594l-.053-.03c-.374.974-.828 1.778-1.388 2.886l-1.492 2.856-4.607-2.659 5.191-7.394-4.948-13.006 4.635 2.676 1.551 4.645a119.11 119.11 0 0 1 1.342 4.187c.48-1.034.827-1.748 1.281-2.676l1.518-2.87 4.611 2.66z" fill="#6589AC"/></svg>