<svg width="375" height="157" fill="none" xmlns="http://www.w3.org/2000/svg" viewBox="0 0 375 157"><path d="M375 0H0v156h375V0z" fill="#F5FCFF"/><mask id="a" maskUnits="userSpaceOnUse" x="0" y="0" width="375" height="156"><path transform="matrix(-1 0 0 1 375 0)" fill="#F5FCFF" d="M0 0h375v156H0z"/></mask><g mask="url(#a)"><path d="M481.001-5.706L374.813.097 176.85 20.841l-36.883 21.902 167.705 97.683 140.778 13.258 32.551-159.39z" fill="#00AD00"/><path d="M437.509-7.297S75.41 4.265 51.072 44.358C21.094 93.745 318.26 226.2 318.26 226.2l250.865-59.442s-397.638-99.299-379.744-129.2C208.081 6.31 578.295-2.295 578.295-2.295L437.509-7.297z" fill="#fff"/><path d="M346.422 206.702S52.671 89.192 79.234 44.358C103.14 4.01 465.67-5.998 465.67-5.998l81.019 1.535S176.252 6.173 157.776 37.553c-19.749 33.549 379.745 144.365 379.745 144.365l-191.099 24.784z" fill="#004EBB"/><path d="M325.671 55.067h-2.706v53.134h2.706V55.067z" fill="#5F6464"/><path d="M302.562 46.956l18.716-18.953a4.29 4.29 0 0 1 6.12 0l18.716 18.953a4.423 4.423 0 0 1 0 6.2l-18.716 18.948a4.29 4.29 0 0 1-6.12 0l-18.716-18.949a4.43 4.43 0 0 1 0-6.2z" fill="#fff"/><path d="M304.915 48.482l17.874-18.098a2.17 2.17 0 0 1 3.102 0l17.874 18.098a2.24 2.24 0 0 1 0 3.142l-17.874 18.1a2.17 2.17 0 0 1-3.102 0l-17.874-18.1a2.24 2.24 0 0 1 0-3.142z" fill="#fff"/><path d="M324.34 71.174a2.958 2.958 0 0 1-2.112-.886l-17.874-18.099a3.057 3.057 0 0 1 0-4.276l17.874-18.099a2.94 2.94 0 0 1 2.108-.885c.797 0 1.547.312 2.112.885l17.874 18.1a3.02 3.02 0 0 1 .874 2.135c0 .806-.313 1.567-.874 2.14l-17.874 18.099a2.944 2.944 0 0 1-2.108.886z" fill="#004EBB"/><path d="M332.644 58.442c4.589-4.645 4.589-12.176 0-16.82a11.644 11.644 0 0 0-16.612 0c-4.588 4.644-4.588 12.175 0 16.82a11.644 11.644 0 0 0 16.612 0z" fill="#fff"/><path d="M334.688 53.688c1.996-5.787-1.022-12.119-6.741-14.135-5.715-2.02-11.967 1.038-13.963 6.825-1.996 5.787 1.022 12.12 6.741 14.135 5.719 2.02 11.971-1.038 13.963-6.825z" fill="#fff"/><path d="M313.615 52.33A11.124 11.124 0 0 0 316 57.231c1.755-7.93 8.749-13.862 17.109-13.862a11.9 11.9 0 0 0-.521-.645 17.616 17.616 0 0 0-3.239-.309c-6.901.004-12.872 4.044-15.734 9.915z" fill="#0046B4"/><path d="M319.419 59.953a10.809 10.809 0 0 0 4.921 1.182c6.056 0 10.961-4.97 10.961-11.101 0-2.1-.577-4.064-1.575-5.735-7.61 1.39-13.514 7.755-14.307 15.654zM327.157 41.153c1.539 0 3.034.204 4.457.581a10.857 10.857 0 0 0-7.278-2.801c-5.226 0-9.594 3.703-10.692 8.656 3.222-3.931 8.079-6.436 13.513-6.436z" fill="#46B400"/></g><path d="M207.319 64.313l17.307 3.27s6.59.722 5.334 8.572c-.879 5.512-3.18 23.854-3.18 23.854s-5.295 2.142-7.293-.793c-1.998-2.935.571-21.662.571-21.662l-19.177-7.394c.004.004.136-5.61 6.438-5.847z" fill="#132D3D"/><path d="M261.494 147.596c2.489-4.741-16.086-19.392-41.488-32.722-25.402-13.331-48.012-20.294-50.5-15.552-2.489 4.741 16.086 19.392 41.488 32.723 25.402 13.33 48.012 20.293 50.5 15.551z" fill="#0032A5"/><path d="M178.356 91.067l.039-.614.066-.591.09-.564.113-.54.136-.517.159-.49.183-.463.206-.439.225-.412.245-.385.264-.358.284-.326.303-.3.319-.272.339-.24.353-.21 3.655-2.166-.354.21-.338.241-.319.272-.303.3-.284.326-.265.358-.244.385-.226.412-.202.44-.183.462-.159.49-.136.517-.113.54-.089.564-.067.59-.038.615-.012.637.012.653.038.658.067.664.089.669.113.672.136.673.159.672.183.673.202.673.226.668.244.665.265.661.284.653.303.65.319.637.338.63.354.618.369.606.385.595.4.579.296.401s1.656 2.122 2.643 2.966v-.004l.214.194.494.424.501.401.51.373.517.346.524.319.525.287.517.249.509.214.502.179.494.144.482.108.474.074.463.043.451.008.439-.024.428-.054.412-.089.4-.121.385-.152.361-.174-3.292 1.951-.354.21-.369.183-.385.151-.401.121-.412.089-.427.055-.44.023-.451-.008-.462-.043-.475-.073-.482-.109-.493-.144-.502-.179-.509-.214-.517-.249-.525-.287-.525-.319-.517-.346-.509-.373-.502-.401-.493-.423-.175-.16-.004-.004-.035-.031-.272-.252-.475-.471-.462-.49-.451-.509-.439-.529-.428-.548-.412-.563-.401-.58-.384-.595-.37-.606-.353-.618-.339-.63-.319-.637-.303-.65-.284-.653-.264-.66-.245-.665-.225-.67-.206-.672-.183-.672-.159-.673-.136-.672-.113-.673-.09-.669-.066-.664-.039-.661-.011-.653.011-.638zM199.042 108.616l-.007.007.361-.217-.354.21z" fill="#192D4B"/><path fill-rule="evenodd" clip-rule="evenodd" d="M186.742 94.333l3.654-2.165-.163.128-.148.155-.125.183-.108.21-.086.237-.062.264-.039.288-.012.311.012.323.039.334.062.334.086.335.108.334.125.33.148.323.163.315.179.307.198.292.206.276.222.256.233.241.245.214.252.195.257.163.26.136.253.097.241.062.233.027.222-.003.21-.035.194-.066.179-.098-3.654 2.166-.179.097-.194.07-.21.035-.222.004-.233-.031-.241-.062-.253-.098-.26-.132-.257-.167-.253-.191-.244-.217-.234-.237-.217-.26-.21-.277-.199-.291-.178-.304-.164-.314-.144-.327-.128-.33-.109-.335-.081-.334-.066-.335-.035-.33-.016-.327.016-.31.035-.288.066-.265.081-.237.109-.21.128-.182.144-.156.164-.128z" fill="#CACACA"/><path fill-rule="evenodd" clip-rule="evenodd" d="M190.707 101.49l3.654-2.166.199-.155.179-.19.151-.222.132-.257.101-.287.078-.32.047-.345.015-.377-.015-.397-.047-.4-.078-.408-.101-.405-.132-.404-.151-.4-.179-.393-.199-.381-.217-.37-.237-.353-.253-.338-.268-.311-.284-.292-.292-.26-.307-.234-.315-.202-.315-.16-.303-.12-.295-.074-.28-.035-.272.004-.253.043-.237.082-.218.116-3.654 2.17.218-.121.237-.082.256-.042.269-.004.279.035.296.078.303.116.315.163.315.199.307.233.292.264.283.288.269.315.252.334.237.354.218.37.198.38.179.393.152.4.132.405.101.408.078.404.046.404.016.393-.016.377-.046.35-.078.319-.101.288-.132.252-.152.226-.179.186-.198.156z" fill="#14AFEB"/><path fill-rule="evenodd" clip-rule="evenodd" d="M196.185 111.372l3.654-2.169.358-.253.338-.287.323-.319.303-.346.28-.377.261-.408.237-.436.217-.463.195-.493.171-.521.144-.548.12-.572.097-.598.07-.626.039-.653.016-.677-.016-.692-.039-.7-.07-.703-.097-.708-.12-.715-.144-.716-.171-.715-.195-.715-.217-.712-.237-.71-.261-.709-.28-.7-.303-.695-.323-.688-.338-.677-.358-.668-.377-.657-.392-.642-.409-.63-.423-.618-.44-.594-.451-.584-.466-.56-.482-.544-.49-.52-.501-.498-.514-.474-.524-.451-.533-.424-.54-.397-.552-.365-.556-.338-.556-.304-.548-.264-.545-.225-.532-.19-.521-.153-.513-.116-.506-.082-.49-.043-.478-.011-.466.027-.455.058-.439.094-.424.124-.408.16-.393.194-3.654 2.165.392-.19.409-.16.423-.128.44-.093.454-.059.467-.027.478.012.494.043.501.081.514.117.52.151.537.19.54.226.548.269.556.299.556.338.552.37.541.396.532.424.525.447.513.474.502.502.49.52.482.541.466.564.451.579.439.599.424.614.408.63.393.645.377.653.358.669.338.68.323.684.303.696.28.7.26.707.241.712.214.715.194.716.172.715.143.715.121.712.097.707.07.708.039.699.015.692-.015.673-.039.653-.07.626-.097.599-.121.575-.143.544-.172.521-.194.494-.214.462-.241.436-.26.408-.28.377-.303.35-.323.315-.338.288-.358.256z" fill="#CACACA"/><path fill-rule="evenodd" clip-rule="evenodd" d="M186.007 80.524l3.654-2.165-.579-.012-3.654 2.166.579.011z" fill="#192D4B"/><path fill-rule="evenodd" clip-rule="evenodd" d="M185.429 80.513l3.654-2.165-.626-.315-3.654 2.169.626.311zM184.802 80.202l3.654-2.17-.544.075-3.654 2.165.544-.07z" fill="#192D4B"/><path fill-rule="evenodd" clip-rule="evenodd" d="M184.258 80.272l3.654-2.166-.614-.233-3.654 2.165.614.234zM183.643 80.038l3.654-2.165-.505.152-3.654 2.165.505-.152z" fill="#192D4B"/><path fill-rule="evenodd" clip-rule="evenodd" d="M183.138 80.19l3.654-2.165-.599-.156-3.654 2.165.599.156z" fill="#192D4B"/><path fill-rule="evenodd" clip-rule="evenodd" d="M182.539 80.034l3.655-2.165-.467.23-3.654 2.165.466-.23zM180.137 80.863l3.654-2.17-.529.074-3.654 2.17.529-.074z" fill="#192D4B"/><path fill-rule="evenodd" clip-rule="evenodd" d="M180.514 80.485l3.654-2.165-.377.373-3.654 2.17.377-.378z" fill="#192D4B"/><path fill-rule="evenodd" clip-rule="evenodd" d="M181.07 80.49l3.654-2.166-.556-.004-3.654 2.165.556.004z" fill="#192D4B"/><path fill-rule="evenodd" clip-rule="evenodd" d="M181.493 80.186l3.654-2.17-.423.308-3.655 2.165.424-.303z" fill="#192D4B"/><path fill-rule="evenodd" clip-rule="evenodd" d="M182.072 80.264l3.655-2.166-.58-.081-3.654 2.169.579.078zM188.534 81.675l3.654-2.165-.638-.19-3.654 2.165.638.19zM187.896 81.484l3.655-2.165-.646-.47-3.654 2.165.645.47z" fill="#192D4B"/><path fill-rule="evenodd" clip-rule="evenodd" d="M187.251 81.014l3.654-2.165-.606-.098-3.654 2.166.606.097z" fill="#192D4B"/><path fill-rule="evenodd" clip-rule="evenodd" d="M186.644 80.917l3.655-2.166-.638-.392-3.654 2.165.637.393zM196.554 114.649l3.655-2.165.38-.373-3.654 2.165-.381.373z" fill="#192D4B"/><path fill-rule="evenodd" clip-rule="evenodd" d="M196.935 114.276l3.654-2.165.529-.074-3.655 2.165-.528.074z" fill="#192D4B"/><path fill-rule="evenodd" clip-rule="evenodd" d="M197.463 114.202l3.655-2.165.33-.443-3.654 2.169-.331.439z" fill="#192D4B"/><path fill-rule="evenodd" clip-rule="evenodd" d="M197.794 113.763l3.655-2.169.501-.152-3.654 2.17-.502.151z" fill="#192D4B"/><path fill-rule="evenodd" clip-rule="evenodd" d="M198.296 113.612l3.654-2.17.284-.501-3.654 2.165-.284.506z" fill="#192D4B"/><path fill-rule="evenodd" clip-rule="evenodd" d="M198.579 113.106l3.654-2.165.463-.226-3.654 2.166-.463.225z" fill="#192D4B"/><path fill-rule="evenodd" clip-rule="evenodd" d="M199.042 112.88l3.654-2.165.233-.568-3.654 2.17-.233.563z" fill="#192D4B"/><path fill-rule="evenodd" clip-rule="evenodd" d="M199.275 112.317l3.654-2.17.424-.299-3.654 2.166-.424.303z" fill="#192D4B"/><path fill-rule="evenodd" clip-rule="evenodd" d="M199.699 112.013l3.654-2.165.183-.622-3.654 2.165-.183.622z" fill="#192D4B"/><path fill-rule="evenodd" clip-rule="evenodd" d="M199.882 111.392l3.654-2.166.381-.377-3.654 2.169-.381.374z" fill="#192D4B"/><path fill-rule="evenodd" clip-rule="evenodd" d="M200.262 111.019l3.655-2.17.124-.672-3.651 2.165-.128.677z" fill="#192D4B"/><path fill-rule="evenodd" clip-rule="evenodd" d="M200.391 110.342l3.65-2.165.338-.451-3.654 2.169-.334.447z" fill="#192D4B"/><path fill-rule="evenodd" clip-rule="evenodd" d="M200.725 109.895l3.654-2.169.07-.724-3.654 2.166-.07.727z" fill="#192D4B"/><path fill-rule="evenodd" clip-rule="evenodd" d="M200.795 109.168l3.654-2.166.288-.524-3.654 2.165-.288.525zM201.083 108.643l3.654-2.165.008-.774-3.655 2.169-.007.77z" fill="#192D4B"/><path fill-rule="evenodd" clip-rule="evenodd" d="M201.091 107.873l3.654-2.169.233-.595-3.654 2.17-.233.594zM201.323 107.279l3.655-2.17-.051-.816-3.654 2.169.05.817zM201.273 106.462l3.654-2.169.175-.665-3.654 2.166-.175.668z" fill="#192D4B"/><path fill-rule="evenodd" clip-rule="evenodd" d="M201.449 105.794l3.654-2.166-.113-.859-3.654 2.165.113.86zM201.336 104.934l3.654-2.165.113-.727-3.654 2.165-.113.727z" fill="#192D4B"/><path fill-rule="evenodd" clip-rule="evenodd" d="M201.448 104.208l3.654-2.166-.175-.871-3.654 2.17.175.867zM201.273 103.34l3.654-2.169.051-.758-3.655 2.169-.05.758z" fill="#192D4B"/><path fill-rule="evenodd" clip-rule="evenodd" d="M201.324 102.583l3.654-2.17-.233-.863-3.654 2.166.233.867zM201.09 101.715l3.655-2.165-.008-.785-3.654 2.169.007.781z" fill="#192D4B"/><path fill-rule="evenodd" clip-rule="evenodd" d="M201.083 100.934l3.654-2.17-.288-.85-3.654 2.165.288.855zM200.795 100.078l3.654-2.165-.07-.805-3.654 2.166.07.804z" fill="#192D4B"/><path fill-rule="evenodd" clip-rule="evenodd" d="M200.725 99.274l3.654-2.165-.338-.84-3.65 2.17.334.835z" fill="#192D4B"/><path fill-rule="evenodd" clip-rule="evenodd" d="M200.39 98.438l3.651-2.169-.124-.816-3.655 2.165.128.82z" fill="#192D4B"/><path fill-rule="evenodd" clip-rule="evenodd" d="M200.263 97.618l3.654-2.165-.381-.817-3.654 2.166.381.816z" fill="#192D4B"/><path fill-rule="evenodd" clip-rule="evenodd" d="M199.882 96.802l3.654-2.166-.183-.832-3.654 2.17.183.828zM199.699 95.974l3.654-2.17-.424-.789-3.654 2.165.424.794z" fill="#192D4B"/><path fill-rule="evenodd" clip-rule="evenodd" d="M199.275 95.18l3.654-2.165-.233-.832-3.654 2.165.233.832zM199.042 94.348l3.654-2.165-.463-.762-3.654 2.17.463.757zM198.58 93.59l3.654-2.17-.284-.827-3.654 2.165.284.832z" fill="#192D4B"/><path fill-rule="evenodd" clip-rule="evenodd" d="M198.296 92.759l3.654-2.166-.501-.727-3.655 2.17.502.723zM197.794 92.035l3.654-2.169-.33-.82-3.655 2.165.331.824zM197.463 91.211l3.655-2.165-.529-.684-3.654 2.165.528.684z" fill="#192D4B"/><path fill-rule="evenodd" clip-rule="evenodd" d="M196.935 90.527l3.654-2.165-.38-.813-3.655 2.17.381.808zM196.554 89.718l3.654-2.169-.556-.637-3.654 2.169.556.637z" fill="#192D4B"/><path fill-rule="evenodd" clip-rule="evenodd" d="M195.998 89.081l3.655-2.17-.424-.788-3.654 2.165.423.793zM195.574 88.288l3.654-2.166-.579-.587-3.654 2.166.579.587z" fill="#192D4B"/><path fill-rule="evenodd" clip-rule="evenodd" d="M194.995 87.7l3.655-2.165-.463-.766-3.654 2.166.462.766z" fill="#192D4B"/><path fill-rule="evenodd" clip-rule="evenodd" d="M194.532 86.935l3.655-2.166-.603-.532-3.65 2.165.598.533zM193.934 86.402l3.65-2.165-.502-.735-3.654 2.165.506.735z" fill="#192D4B"/><path fill-rule="evenodd" clip-rule="evenodd" d="M193.428 85.668l3.654-2.166-.618-.474-3.654 2.17.618.47zM192.81 85.197l3.655-2.17-.541-.695-3.654 2.165.54.7zM192.27 84.497l3.654-2.165-.63-.408-3.654 2.165.63.408zM191.639 84.089l3.655-2.165-.576-.654-3.654 2.166.575.653z" fill="#192D4B"/><path fill-rule="evenodd" clip-rule="evenodd" d="M191.065 83.436l3.654-2.165-.637-.342-3.655 2.165.638.342z" fill="#192D4B"/><path fill-rule="evenodd" clip-rule="evenodd" d="M190.427 83.094l3.655-2.165-.611-.603-3.654 2.166.61.602zM189.817 82.491l3.654-2.165-.641-.272-3.655 2.169.642.268z" fill="#192D4B"/><path fill-rule="evenodd" clip-rule="evenodd" d="M189.175 82.223l3.654-2.169-.641-.544-3.654 2.165.641.548z" fill="#192D4B"/><path fill-rule="evenodd" clip-rule="evenodd" d="M188.534 81.675l.638.544.641.269.611.602.637.342.579.653.63.409.54.695.615.475.505.735.599.532.466.766.58.587.423.79.556.637.377.808.529.685.334.824.498.723.284.832.462.758.234.832.423.793.179.828.385.816.124.82.339.84.07.805.287.855.012.786.233.863-.05.758.175.867-.113.727.113.859-.175.665.05.816-.233.595-.012.773-.287.521-.07.727-.339.451-.124.677-.385.377-.179.622-.423.299-.234.564-.462.225-.284.506-.498.151-.334.44-.529.073-.377.374-.556-.004-.423.303-.58-.078-.466.23-.599-.156-.505.152-.615-.234-.54.074-.63-.315-.579-.011-.637-.393-.611-.097-.641-.47-.638-.191-.637-.544-.646-.268-.61-.603-.638-.342-.575-.653-.63-.412-.54-.696-.614-.475-.506-.734-.598-.533-.467-.766-.579-.587-.424-.789-.556-.637-.377-.809-.529-.684-.334-.824-.498-.724-.283-.831-.463-.762-.233-.832-.424-.793-.179-.829-.385-.816-.124-.82-.338-.84-.07-.805-.288-.855-.012-.785-.233-.863.051-.758-.175-.867.112-.727-.112-.86.175-.664-.051-.816.233-.595.012-.774.288-.525.07-.723.338-.45.124-.677.385-.377.179-.622.424-.304.233-.563.463-.226.283-.505.498-.152.334-.439.529-.074.377-.373.556.004.424-.303.579.077.467-.23.598.156.506-.151.614.233.544-.074.626.315.579.012.638.392.61.098.642.47.637.202zm-10.193 10.026c0 6.92 4.564 15.154 10.193 18.392 5.629 3.239 10.193.257 10.193-6.659 0-6.916-4.564-15.154-10.193-18.392-5.629-3.239-10.193-.257-10.193 6.66z" fill="#192D4B"/><path fill-rule="evenodd" clip-rule="evenodd" d="M188.534 84.272c5.975 3.436 10.819 12.176 10.819 19.519 0 7.344-4.844 10.508-10.819 7.068-5.975-3.437-10.819-12.176-10.819-19.52.004-7.34 4.848-10.504 10.819-7.067zM178.341 91.7c0 6.92 4.564 15.154 10.193 18.392 5.629 3.238 10.193.257 10.193-6.659 0-6.916-4.564-15.154-10.193-18.392-5.629-3.239-10.193-.257-10.193 6.659z" fill="#14AFEB"/><path fill-rule="evenodd" clip-rule="evenodd" d="M188.534 93.793c1.699.976 3.075 3.46 3.075 5.543 0 2.088-1.376 2.986-3.075 2.01-1.699-.975-3.075-3.46-3.075-5.547.004-2.084 1.38-2.986 3.075-2.006zM246.677 108.643l-3.052.078-8.553-15.935 3.052-.078 8.553 15.935z" fill="#0082C8"/><path fill-rule="evenodd" clip-rule="evenodd" d="M238.124 92.708l.991-.568 8.553 15.939-.991.564-8.553-15.935z" fill="#14AFEB"/><path d="M256.14 139.339l-.012.008.365-.218-.353.21zM235.454 121.791l.039-.614.066-.591.089-.564.113-.54.136-.517.16-.49.182-.463.206-.439.226-.412.245-.385.264-.358.284-.326.303-.3.319-.272.338-.241.354-.21 3.654-2.165-.353.21-.339.241-.319.272-.303.299-.284.327-.264.354-.245.384-.225.413-.202.435-.183.463-.16.489-.136.517-.112.541-.09.563-.066.591-.039.615-.011.637.011.653.039.657.066.665.09.669.112.672.136.673.16.672.183.673.202.672.225.669.245.665.264.661.284.653.303.649.319.638.339.629.353.619.37.606.384.595.401.579.295.401s1.618 2.091 2.644 2.966v-.004l.214.194.493.424.502.4.509.374.517.346.525.318.525.284.517.249.509.214.502.179.493.143.482.109.475.074.462.043.451.008.44-.024.427-.054.412-.089.401-.121.385-.152.357-.175-3.289 1.948-.353.21-.37.183-.385.151-.4.121-.412.089-.428.055-.439.023-.451-.008-.463-.042-.474-.074-.482-.109-.494-.144-.501-.179-.509-.214-.517-.248-.525-.288-.525-.319-.517-.346-.509-.373-.288-.229-.093.019-1.855-.676.062-1.093-.241-.256-.451-.51-.439-.528-.427-.549-.413-.563-.4-.58-.385-.594-.369-.607-.354-.618-.338-.63-.319-.637-.303-.649-.284-.654-.264-.66-.245-.665-.226-.669-.206-.672-.182-.673-.16-.673-.136-.672-.113-.673-.089-.668-.066-.665-.039-.657-.012-.653.008-.622z" fill="#192D4B"/><path fill-rule="evenodd" clip-rule="evenodd" d="M247.804 132.213l3.655-2.165.198-.156.179-.19.151-.222.133-.257.101-.287.077-.319.047-.346.016-.377-.016-.397-.047-.4-.077-.408-.101-.405-.133-.404-.151-.4-.179-.393-.198-.381-.218-.369-.237-.354-.253-.338-.268-.311-.284-.292-.295-.26-.304-.234-.315-.202-.314-.159-.304-.121-.295-.073-.28-.035-.272.003-.253.043-.237.082-.218.116-3.654 2.166.218-.117.237-.081.256-.043.269-.004.28.035.295.078.303.116.315.164.315.198.307.233.292.264.284.288.268.315.252.334.238.354.217.369.199.381.178.393.152.4.132.405.101.408.078.404.047.401.015.396-.015.377-.047.35-.078.319-.101.288-.132.252-.152.226-.178.186-.199.156z" fill="#14AFEB"/><path fill-rule="evenodd" clip-rule="evenodd" d="M253.282 142.095l3.654-2.169.358-.253.342-.287.319-.319.303-.346.28-.377.26-.408.237-.436.218-.466.194-.49.172-.521.143-.548.121-.572.097-.598.07-.626.039-.653.015-.677-.015-.692-.039-.7-.07-.703-.097-.712-.121-.711-.143-.715-.172-.716-.194-.715-.218-.711-.237-.712-.26-.707-.28-.7-.303-.696-.319-.688-.342-.677-.358-.668-.377-.657-.393-.642-.408-.629-.424-.619-.439-.594-.451-.583-.466-.56-.482-.545-.49-.52-.502-.498-.513-.474-.525-.451-.532-.424-.541-.393-.552-.369-.556-.338-.556-.303-.548-.265-.544-.225-.533-.191-.52-.151-.514-.117-.505-.082-.49-.042-.478-.012-.467.027-.454.058-.44.094-.423.124-.409.16-.392.194-3.655 2.165.393-.19.408-.16.428-.128.435-.093.455-.059.467-.027.478.012.494.043.501.081.513.117.525.152.529.19.544.226.548.264.556.303.556.338.552.37.54.396.533.424.525.447.513.474.501.498.49.525.482.54.467.56.451.583.439.599.424.614.408.63.393.641.377.657.357.669.343.68.318.684.304.696.279.7.261.708.241.711.214.715.194.716.171.715.144.711.121.716.097.707.07.708.039.696.015.692-.015.676-.039.653-.07.626-.097.599-.121.575-.144.544-.171.521-.194.494-.214.463-.241.435-.261.408-.279.377-.304.346-.318.319-.343.288-.357.256z" fill="#CACACA"/><path fill-rule="evenodd" clip-rule="evenodd" d="M243.104 111.247l3.654-2.165-.579-.012-3.654 2.166.579.011z" fill="#192D4B"/><path fill-rule="evenodd" clip-rule="evenodd" d="M242.525 111.236l3.654-2.165-.626-.315-3.654 2.169.626.311z" fill="#192D4B"/><path fill-rule="evenodd" clip-rule="evenodd" d="M241.899 110.925l3.655-2.169-.545.074-3.654 2.165.544-.07zM241.355 110.995l3.654-2.166-.614-.233-3.654 2.166.614.233z" fill="#192D4B"/><path fill-rule="evenodd" clip-rule="evenodd" d="M240.74 110.762l3.655-2.166-.506.152-3.654 2.165.505-.151z" fill="#192D4B"/><path fill-rule="evenodd" clip-rule="evenodd" d="M240.235 110.913l3.655-2.165-.599-.156-3.654 2.166.598.155zM239.636 110.758l3.655-2.166-.467.23-3.654 2.165.466-.229zM237.234 111.582l3.654-2.165-.529.073-3.654 2.17.529-.078z" fill="#192D4B"/><path fill-rule="evenodd" clip-rule="evenodd" d="M237.611 111.209l3.654-2.166-.377.374-3.654 2.165.377-.373z" fill="#192D4B"/><path fill-rule="evenodd" clip-rule="evenodd" d="M238.166 111.213l3.655-2.17h-.556l-3.655 2.166.556.004z" fill="#192D4B"/><path fill-rule="evenodd" clip-rule="evenodd" d="M238.591 110.91l3.654-2.17-.424.303-3.654 2.17.424-.303z" fill="#192D4B"/><path fill-rule="evenodd" clip-rule="evenodd" d="M239.17 110.987l3.654-2.165-.579-.082-3.655 2.17.58.077zM245.631 112.398l3.654-2.165-.638-.191-3.654 2.166.638.19z" fill="#192D4B"/><path fill-rule="evenodd" clip-rule="evenodd" d="M244.993 112.208l3.654-2.166-.645-.47-3.654 2.165.645.471z" fill="#192D4B"/><path fill-rule="evenodd" clip-rule="evenodd" d="M244.348 111.737l3.654-2.165-.606-.097-3.655 2.165.607.097z" fill="#192D4B"/><path fill-rule="evenodd" clip-rule="evenodd" d="M243.742 111.641l3.654-2.166-.638-.392-3.654 2.165.638.393zM253.651 145.373l3.655-2.166.381-.373-3.655 2.165-.381.374z" fill="#192D4B"/><path fill-rule="evenodd" clip-rule="evenodd" d="M254.032 144.999l3.654-2.165.529-.078-3.655 2.17-.528.073z" fill="#192D4B"/><path fill-rule="evenodd" clip-rule="evenodd" d="M254.561 144.925l3.654-2.169.33-.439-3.654 2.165-.33.443z" fill="#192D4B"/><path fill-rule="evenodd" clip-rule="evenodd" d="M254.892 144.482l3.654-2.165.501-.152-3.654 2.169-.501.148z" fill="#192D4B"/><path fill-rule="evenodd" clip-rule="evenodd" d="M255.393 144.335l3.654-2.169.284-.502-3.654 2.165-.284.506z" fill="#192D4B"/><path fill-rule="evenodd" clip-rule="evenodd" d="M255.676 143.829l3.655-2.165.462-.229-3.654 2.169-.463.225z" fill="#192D4B"/><path fill-rule="evenodd" clip-rule="evenodd" d="M256.139 143.604l3.654-2.17.234-.563-3.655 2.169-.233.564zM256.372 143.04l3.654-2.169.424-.299-3.654 2.165-.424.303z" fill="#192D4B"/><path fill-rule="evenodd" clip-rule="evenodd" d="M256.796 142.737l3.654-2.166.183-.622-3.654 2.166-.183.622z" fill="#192D4B"/><path fill-rule="evenodd" clip-rule="evenodd" d="M256.979 142.115l3.654-2.166.381-.377-3.654 2.17-.381.373zM257.359 141.742l3.655-2.17.124-.672-3.65 2.165-.129.677z" fill="#192D4B"/><path fill-rule="evenodd" clip-rule="evenodd" d="M257.488 141.065l3.65-2.165.338-.451-3.654 2.165-.334.451z" fill="#192D4B"/><path fill-rule="evenodd" clip-rule="evenodd" d="M257.822 140.614l3.655-2.165.07-.723-3.655 2.165-.07.723zM257.892 139.891l3.654-2.165.288-.525-3.654 2.165-.288.525z" fill="#192D4B"/><path fill-rule="evenodd" clip-rule="evenodd" d="M258.18 139.366l3.654-2.165.008-.774-3.654 2.17-.008.769z" fill="#192D4B"/><path fill-rule="evenodd" clip-rule="evenodd" d="M258.188 138.597l3.654-2.17.233-.594-3.654 2.169-.233.595zM258.421 138.002l3.654-2.169-.051-.817-3.654 2.169.051.817z" fill="#192D4B"/><path fill-rule="evenodd" clip-rule="evenodd" d="M258.37 137.186l3.654-2.17.175-.664-3.654 2.165-.175.669zM258.545 136.517l3.655-2.166-.113-.859-3.654 2.166.112.859z" fill="#192D4B"/><path fill-rule="evenodd" clip-rule="evenodd" d="M258.433 135.657l3.654-2.165.113-.727-3.655 2.166-.112.726zM258.545 134.931l3.654-2.166-.175-.87-3.654 2.169.175.867zM258.37 134.064l3.654-2.17.051-.758-3.654 2.169-.051.759z" fill="#192D4B"/><path fill-rule="evenodd" clip-rule="evenodd" d="M258.421 133.306l3.654-2.17-.233-.863-3.654 2.166.233.867zM258.188 132.438l3.654-2.165-.008-.785-3.654 2.169.008.781z" fill="#192D4B"/><path fill-rule="evenodd" clip-rule="evenodd" d="M258.18 131.657l3.654-2.169-.288-.851-3.654 2.165.288.855z" fill="#192D4B"/><path fill-rule="evenodd" clip-rule="evenodd" d="M257.892 130.802l3.655-2.165-.07-.805-3.655 2.165.07.805z" fill="#192D4B"/><path fill-rule="evenodd" clip-rule="evenodd" d="M257.822 129.997l3.654-2.165-.338-.84-3.65 2.169.334.836z" fill="#192D4B"/><path fill-rule="evenodd" clip-rule="evenodd" d="M257.488 129.161l3.65-2.169-.124-.816-3.655 2.165.129.82z" fill="#192D4B"/><path fill-rule="evenodd" clip-rule="evenodd" d="M257.36 128.341l3.654-2.165-.381-.817-3.654 2.166.381.816zM256.979 127.525l3.654-2.166-.183-.832-3.654 2.17.183.828zM256.796 126.697l3.654-2.17-.424-.789-3.654 2.166.424.793z" fill="#192D4B"/><path fill-rule="evenodd" clip-rule="evenodd" d="M256.372 125.904l3.655-2.166-.234-.832-3.654 2.166.233.832z" fill="#192D4B"/><path fill-rule="evenodd" clip-rule="evenodd" d="M256.139 125.072l3.654-2.166-.462-.761-3.655 2.169.463.758z" fill="#192D4B"/><path fill-rule="evenodd" clip-rule="evenodd" d="M255.677 124.314l3.654-2.17-.284-.828-3.654 2.166.284.832z" fill="#192D4B"/><path fill-rule="evenodd" clip-rule="evenodd" d="M255.393 123.482l3.654-2.166-.501-.727-3.654 2.17.501.723zM254.891 122.759l3.654-2.17-.33-.82-3.654 2.165.33.825z" fill="#192D4B"/><path fill-rule="evenodd" clip-rule="evenodd" d="M254.56 121.935l3.655-2.166-.529-.684-3.654 2.165.528.685z" fill="#192D4B"/><path fill-rule="evenodd" clip-rule="evenodd" d="M254.032 121.25l3.655-2.165-.381-.813-3.655 2.17.381.808zM253.651 120.442l3.654-2.17-.555-.637-3.655 2.169.556.638z" fill="#192D4B"/><path fill-rule="evenodd" clip-rule="evenodd" d="M253.095 119.804l3.654-2.169-.423-.789-3.655 2.165.424.793zM252.671 119.011l3.654-2.166-.579-.587-3.654 2.166.579.587z" fill="#192D4B"/><path fill-rule="evenodd" clip-rule="evenodd" d="M252.092 118.424l3.654-2.165-.462-.766-3.655 2.165.463.766zM251.629 117.658l3.655-2.165-.603-.533-3.654 2.165.602.533z" fill="#192D4B"/><path fill-rule="evenodd" clip-rule="evenodd" d="M251.027 117.126l3.654-2.166-.501-.734-3.655 2.165.502.735z" fill="#192D4B"/><path fill-rule="evenodd" clip-rule="evenodd" d="M250.525 116.391l3.655-2.166-.618-.474-3.655 2.165.618.475z" fill="#192D4B"/><path fill-rule="evenodd" clip-rule="evenodd" d="M249.908 115.916l3.654-2.165-.541-.696-3.654 2.166.541.695z" fill="#192D4B"/><path fill-rule="evenodd" clip-rule="evenodd" d="M249.367 115.221l3.654-2.166-.629-.412-3.655 2.169.63.409z" fill="#192D4B"/><path fill-rule="evenodd" clip-rule="evenodd" d="M248.737 114.813l3.654-2.17-.575-.649-3.654 2.166.575.653zM248.161 114.159l3.654-2.165-.637-.342-3.655 2.165.638.342z" fill="#192D4B"/><path fill-rule="evenodd" clip-rule="evenodd" d="M247.524 113.817l3.655-2.165-.611-.603-3.654 2.166.61.602zM246.914 113.215l3.654-2.166-.641-.272-3.655 2.17.642.268zM246.272 112.946l3.655-2.169-.642-.544-3.654 2.165.641.548z" fill="#192D4B"/><path fill-rule="evenodd" clip-rule="evenodd" d="M245.631 112.398l.638.545.641.268.611.602.637.343.576.653.626.408.544.696.614.474.505.735.599.532.467.766.579.587.424.789.555.638.378.809.528.684.335.824.497.723.284.832.463.762.233.832.424.793.178.828.385.816.125.821.338.839.07.805.288.855.011.786.234.863-.051.758.175.867-.113.727.113.859-.175.669.051.816-.234.595-.011.773-.288.521-.07.727-.338.451-.125.677-.385.377-.178.622-.424.299-.233.564-.463.225-.284.506-.497.151-.335.44-.528.073-.378.374-.555-.004-.424.303-.579-.078-.467.23-.599-.156-.505.152-.614-.234-.541.074-.629-.311-.576-.011-.637-.393-.611-.097-.641-.471-.638-.19-.637-.544-.642-.269-.61-.602-.638-.342-.575-.653-.63-.412-.544-.696-.614-.475-.506-.734-.598-.533-.467-.766-.579-.587-.424-.789-.556-.638-.377-.808-.529-.684-.33-.825-.498-.723-.283-.832-.463-.758-.233-.832-.424-.793-.179-.828-.385-.816-.124-.82-.338-.84-.07-.805-.288-.855-.008-.785-.233-.863.051-.759-.175-.866.112-.727-.112-.86.175-.664-.051-.817.233-.595.008-.773.288-.525.07-.727.338-.451.124-.676.385-.377.179-.622.424-.304.233-.563.463-.226.283-.505.498-.152.33-.439.529-.074.377-.373.556.004.424-.304.579.078.467-.229.598.155.506-.151.614.233.544-.074.63.311.579.012.638.392.61.101.646.471.629.19zm-10.193 10.026c0 6.92 4.564 15.154 10.193 18.392 5.63 3.239 10.194.257 10.194-6.659 0-6.916-4.564-15.154-10.194-18.392-5.629-3.238-10.193-.257-10.193 6.659z" fill="#192D4B"/><path fill-rule="evenodd" clip-rule="evenodd" d="M245.632 114.995c5.975 3.437 10.819 12.176 10.819 19.519 0 7.344-4.844 10.509-10.819 7.068-5.976-3.437-10.82-12.176-10.82-19.519.004-7.34 4.848-10.505 10.82-7.068zm-10.194 7.429c0 6.92 4.564 15.154 10.194 18.392 5.629 3.239 10.193.257 10.193-6.659 0-6.916-4.564-15.154-10.193-18.392-5.63-3.239-10.194-.257-10.194 6.659z" fill="#14AFEB"/><path fill-rule="evenodd" clip-rule="evenodd" d="M245.632 124.516c1.699.976 3.075 3.46 3.075 5.544 0 2.087-1.376 2.985-3.075 2.009-1.699-.975-3.071-3.459-3.071-5.543 0-2.088 1.376-2.99 3.071-2.01z" fill="#0082C8"/><path fill-rule="evenodd" clip-rule="evenodd" d="M177.194 65.77l2.978-1.644-1.419-.816-2.978 1.644 1.419.817z" fill="#14AFEB"/><path fill-rule="evenodd" clip-rule="evenodd" d="M177.556 64.908l2.978-1.648.144-.055.167-.004.202.05.191.055.225.043.261.027.295.02.319.007.346.004h.369l.385-.004.4-.004.416-.003h.852l.431.011.432.016.424.027.423.039-2.981 1.648-.42-.039-.424-.027-.432-.02-.431-.007-.428-.004h-.423l-.416.004-.401.008-.385.003h-.369l-.346-.003-.319-.012-.295-.02-.261-.027-.225-.042-.191-.055-.202-.05-.167.004-.144.058z" fill="#14AFEB"/><path fill-rule="evenodd" clip-rule="evenodd" d="M225.719 118.992l2.978-1.649.272-.213.199-.284.143-.339.086-.38.047-.409.007-.416-.015-.412-.039-.392-.051-.354-.05-.303-.047-.234-.035-.155-.015-.058-2.978 1.648.011.054.035.156.051.237.05.303.051.354.039.389.015.412-.007.416-.047.408-.089.381-.14.342-.199.284-.272.214z" fill="#5AC8F5"/><path fill-rule="evenodd" clip-rule="evenodd" d="M222.62 111.178l2.978-1.645 3.876-.109-2.978 1.649-3.876.105z" fill="#CACACA"/><path fill-rule="evenodd" clip-rule="evenodd" d="M226.496 111.073l2.977-1.649 1.264 3.954-2.978 1.648-1.263-3.953z" fill="#5AC8F5"/><path fill-rule="evenodd" clip-rule="evenodd" d="M213.042 112.888l2.135-1.178-3.88-1.909-1.439.793.098.086.147.116.187.148.221.163.249.183.269.191.07.05.07.051.069.05.07.051.07.046.07.051.07.051.07.05.14.097.07.051.066.046.07.047.066.047.067.046.066.047.062.043.062.043.058.042.063.043.054.039.058.039.051.039.054.035.047.035.047.031.046.031.043.027.039.027.035.028.035.023.031.019.027.02.023.015.02.016.019.012.012.007.023.012z" fill="#0082C8"/><path fill-rule="evenodd" clip-rule="evenodd" d="M225.308 115.33l-.144-.059-.366-.147-.038-.016-.875.023-.14-.443-.117-.05-.412-.175-.42-.179-.423-.183-.428-.186-.428-.187-.427-.187-.424-.19-.42-.187-.416-.186-.163-.074-1.952.05-2.558-1.255-2.134 1.182.198.089.226.105.252.117.276.128.3.136.319.148.338.155.357.163.374.171.384.175.397.179.408.183.416.187.42.186.424.191.427.186.428.187.428.186.423.183.42.179.412.175.405.171.392.163.381.156.366.148.35.136.33.128.311.116.288.105.264.09.237.078c.074.023.144.042.21.062 1.442.389 1.275-1.454 1.124-2.313zM209.858 110.594l1.435-.793-2.858-1.403-.237.132c.02.012.039.031.062.051.024.023.051.046.078.077.027.032.058.063.09.102l.101.12.109.14.116.152.121.159.031.043.031.042.031.043.031.043.031.043.031.043.031.042.031.043.032.043.031.043.031.042.031.043.031.043.031.039.031.039.031.039.117.151.109.14.101.124.089.105.07.07z" fill="#0082C8"/><path fill-rule="evenodd" clip-rule="evenodd" d="M209.971 79.7l2.978-1.645a47.018 47.018 0 0 1-11.27-7.942c-.759-.762-1.318-1.427-1.901-2.317-.7-1.092-1.089-1.9-2.201-2.647-1.038-.665-2.099-1.29-3.16-1.92a513.998 513.998 0 0 0-4.432-2.566c-2.045-1.17-5.4-3.072-5.4-3.072l-4.479 2.414s4.91 2.784 7.811 4.463c1.57.914 3.149 1.828 4.688 2.792.385.248.711.439 1.038.762l.155.167c.517.606.895 1.252 1.322 1.92l.14.214c.646.953 1.299 1.664 2.134 2.457 3.367 3.028 8.557 4.894 12.577 6.92z" fill="#14AFEB"/><path fill-rule="evenodd" clip-rule="evenodd" d="M252.221 118.836l4.361-2.379a31.04 31.04 0 0 0-3.238-3.72c-1.757-1.672-3.351-2.827-5.544-3.884l-.688-.288-.676-.241c-1.808-.529-3.064-.68-4.918-.288a9.273 9.273 0 0 0-1.559.607l-4.84 2.663.478-.284.498-.245.521-.202c1.283-.385 2.107-.443 3.499-.319 1.862.296 3.079.797 4.731 1.695 1.928 1.132 3.506 2.465 5.046 4.078.84.906 1.59 1.82 2.329 2.807z" fill="#5AC8F5"/><path fill-rule="evenodd" clip-rule="evenodd" d="M219.141 99.86l2.978-1.644-.357.214-.343.206-.326.202-.303.199-.276.186-.253.179-.218.167-.186.152-.152.14-.109.128-.07.105-.019.089.027.07.078.074.132.097.183.121.225.14.268.159.304.179.342.191.369.206.396.221.424.23.443.237.455.245.471.248.482.253.486.257.486.252.486.257.482.249.47.241.459.237.443.229.424.218.4.206.373.191.342.175.311.155.273.14.229.117.186.093.137.07.081.043.031.011.859 5.05-2.977 1.649-.86-5.05-.031-.016-.081-.043-.136-.07-.187-.093-.229-.117-.273-.14-.31-.155-.343-.175-.373-.19-.4-.206-.424-.218-.443-.226-.459-.237-.47-.245-.482-.249-.486-.252-.486-.257-.486-.252-.482-.257-.471-.249-.454-.245-.444-.237-.423-.229-.397-.218-.369-.206-.342-.194-.304-.179-.268-.16-.225-.14-.183-.12-.132-.093-.078-.074-.027-.07.019-.09.07-.109.109-.124.152-.14.186-.155.218-.168.253-.178.276-.187.303-.194.327-.206.342-.206.357-.214z" fill="#14AFEB"/><path fill-rule="evenodd" clip-rule="evenodd" d="M231.519 92.101l2.978-1.644-.171-.265-.171-.268-.179-.276-.179-.272-.183-.28-.183-.28-.186-.284-.191-.28-.194-.283-.194-.284-.199-.284-.202-.284-.202-.283-.21-.28-.21-.276-.21-.276-.217-.272-.218-.269-.222-.264-.221-.257-.23-.252-.229-.25-.229-.24-.238-.237-.237-.23-.241-.217-.245-.214-.245-.202-.248-.195-.253-.186-.257-.175-.256-.164-2.978 1.649.257.163.256.175.253.183.249.194.245.202.244.214.241.222.238.225.237.237.229.241.229.25.23.252.221.26.222.265.218.268.217.268.21.276.21.28.21.28.202.28.203.284.198.283.194.284.195.284.19.284.187.28.182.284.183.275.179.276.175.273.175.268.171.264z" fill="#5AC8F5"/><path fill-rule="evenodd" clip-rule="evenodd" d="M230.714 96.673l2.978-1.645.195-.128.178-.16.172-.198.159-.237.148-.284.14-.33.062-.171.05-.183.043-.19.039-.199.027-.206.016-.21.011-.213-.003-.218-.012-.218-.024-.217-.034-.214-.047-.21-.058-.206-.074-.202-.086-.195-.097-.182-2.978 1.644.097.187.086.19.074.202.058.206.047.21.035.218.023.214.012.217.004.218-.012.214-.016.21-.027.206-.039.198-.043.195-.05.182-.062.171-.14.33-.148.285-.159.237-.171.194-.179.163-.195.125z" fill="#0082C8"/><path fill-rule="evenodd" clip-rule="evenodd" d="M224.67 84.027l2.978-1.649-.486-.291-.49-.288-.486-.28-.482-.272-.486-.26-.482-.253-.482-.245-.479-.233-.478-.226-.478-.214-.474-.206-.474-.194-.471-.187-.47-.17-.467-.164-.462-.151-.463-.14-.459-.129-.458-.116-.455-.102-.451-.093-.451-.078-.447-.066-.443-.05-.44-.039-.435-.027-.436-.012-.427.004-.428.02-.424.03-.419.047-.416.062-2.978 1.645.416-.062.42-.047.423-.031.428-.02h.428l.435.008.435.027.44.04.443.05.447.066.451.078.451.093.455.105.458.113.459.128.463.14.462.151.467.164.47.175.471.183.474.194.474.206.478.214.479.225.478.237.482.241.482.257.486.26.482.269.486.28.49.287.486.296z" fill="#5AC8F5"/><path fill-rule="evenodd" clip-rule="evenodd" d="M225.074 96.257s.319.762-.237.758c-.56-.004-8.837 4.245-8.281 4.883.556.637 10.672 5.742 10.672 5.742l.859 5.05-10.376.264-14.586-7.169s.898-7.191.855-7.534c-.043-.342-3.748-9.715-3.748-9.715l-4-8.063c.171-.174.447-.26.809-.268.318-.766.653-1.582.952-2.29 1.442 1.936 1.699 2.174 12.133 7.24 4.867 3.852 10.228 9.263 14.948 11.102z" fill="#0082C8"/><path d="M204.909 105.696s.105-6.375 3.744-4.599c3.639 1.777 12.883 6.652 11.39 9.7-1.492 3.048-3.977 4.459-9.734.742-5.758-3.72-5.684-3.658-5.4-5.843z" fill="#14AFEB"/><path d="M211.39 109.731c-3.437-2.499-5.334-5.745-4.237-7.254.509-.703 1.586-.898 2.935-.657 2.577 1.326 6.274 3.41 8.412 5.451 2.652 2.328 1.781 3.312 1.093 4.253-1.093 1.508-4.766.703-8.203-1.793z" fill="#5AC8F5"/><path fill-rule="evenodd" clip-rule="evenodd" d="M244.842 111.955c-7.596-4.374-13.754-.346-13.754 8.988 0 1.602.571 7.06 1.932 3.938 3.324-7.627 10.605-10.255 19.205-6.045-2.139-2.896-4.669-5.318-7.383-6.881zM231.706 95.34c.338-.886.377-2.278-.186-3.239-1.804-2.795-4.086-6.387-6.85-8.074-5.21-3.184-10.287-5.073-14.699-4.323.859 2.484 1.388 4.7.159 5.458 5.909 4.673 12.553 11.659 17.883 11.74 1.874.024 2.974.335 3.693-1.562z" fill="#14AFEB"/><path fill-rule="evenodd" clip-rule="evenodd" d="M180.102 60.005c.035.786.132 1.898.404 2.345.44.719 10.652 8.346 12.095 9.691 9.672 9.031 1.325 5.249 17.533 13.117 1.228-.758.699-2.97-.16-5.458-4.02-2.03-9.213-3.896-12.584-6.924-.836-.793-1.489-1.504-2.134-2.457l-.14-.214c-.428-.668-.805-1.314-1.322-1.92l-.155-.167c-.331-.323-.654-.514-1.038-.762-1.54-.964-3.118-1.878-4.689-2.792a1029.62 1029.62 0 0 0-7.81-4.459z" fill="#0082C8"/><path fill-rule="evenodd" clip-rule="evenodd" d="M213.245 114.295c2.099.972 9.065 4.168 11.18 4.751 3.044.84 1.8-3.993 1.796-4.004-.097-.397-.404-.75-.68-.785-.276-.039-.42.252-.323.649.004.008.832 3.242-1.046 2.725-2.091-.579-9.217-3.857-11.153-4.755l.019.012c.37.63.432 1.163.207 1.407z" fill="#14AFEB"/><path fill-rule="evenodd" clip-rule="evenodd" d="M240.819 110.785l-1.672.046 4.339 13.587 1.672-.046-4.339-13.587z" fill="#0082C8"/><path fill-rule="evenodd" clip-rule="evenodd" d="M241.519 110.765l-3.068.086-5.47-17.129 3.068-.085 5.47 17.128zM191.971 87.728l1.279 1.302-4.082 9.218-1.279-1.299 4.082-9.221z" fill="#0082C8"/><path fill-rule="evenodd" clip-rule="evenodd" d="M191.435 87.188l2.352 2.383 2.861-9.02-2.348-2.386-2.865 9.023z" fill="#0082C8"/><path fill-rule="evenodd" clip-rule="evenodd" d="M196.018 82.538c-3.293-3.374-9.937-8.113-13.268-8.354-4.537-.33-4.681 3.343-7.946 4.303-1.26.373-2.663-.24-2.663-.24 2.701-.619 4.443-3.294 5.007-6.5.206-1.163.252-2.4.14-3.632-.14-1.5-.373-3.642.781-3.219.902.335 3.553-.004 5.769.241 3.254 2.554 7.834 6.038 8.763 6.905 3.44 3.215 4.603 4.805 5.4 5.878-.3.707-.634 1.523-.953 2.29-.552.015-.906.205-.991.621-.051.253.035.646.229 1.151-.101.218-.19.404-.268.556z" fill="#0082C8"/><path fill-rule="evenodd" clip-rule="evenodd" d="M177.194 65.771l-1.419-.816.502 4.004 1.073.618c.004-.486-.016-.972-.062-1.462-.07-.754-.164-1.671-.094-2.344z" fill="#0082C8"/><path fill-rule="evenodd" clip-rule="evenodd" d="M223.884 115.131l-.738-2.313 3.875-.097.739 2.306-3.876.104zM213.745 101.929c-1.613-.093-3.289-.773-5.007-1.846-2.033-2.815-13.163-16.93-12.685-19.252.641-3.125 16.211 6.345 19.251 8.86 3.009 2.488 2.854 1.987.727 4.895-1.329 1.819-2.266 4.074-2.286 7.343z" fill="#14AFEB"/><path d="M196.053 80.831c.642-3.125 16.212 6.345 19.252 8.86 3.009 2.488 2.853 1.987.727 4.895-.152.206-.3.423-.44.641-11.915-15.344-19.721-13.502-19.539-14.396z" fill="#5AC8F5"/><path fill-rule="evenodd" clip-rule="evenodd" d="M236.049 93.637l1.096-.61 5.47 17.132-1.096.606-5.47-17.128z" fill="#14AFEB"/><path fill-rule="evenodd" clip-rule="evenodd" d="M230.839 89.252l2.978-1.645 4.502-.124-2.978 1.644-4.502.125z" fill="#0082C8"/><path fill-rule="evenodd" clip-rule="evenodd" d="M232.305 93.843l-1.466-4.591 4.502-.125 1.466 4.592-4.502.124z" fill="#0082C8"/><path fill-rule="evenodd" clip-rule="evenodd" d="M235.341 89.127l2.978-1.644 1.465 4.591-2.978 1.645-1.465-4.592zM191.182 71.155l.16.152c.555.583.983 1.267 1.446 1.932l.163.23c2.694 3.642 7.297 1.993 11.352 3.568l.027-.086c-4.059-2.068-8.685-1.352-11.379-5.326l-.163-.248c-.463-.724-.894-1.458-1.446-2.108l-.16-.17c-.33-.32-.692-.54-1.077-.786a153.702 153.702 0 0 0-4.995-2.982c-.731-.423-.988-1.034-.735-1.648-.785.887-.237 4.004.735 4.444 1.679.765 3.359 1.543 4.995 2.375.385.198.747.377 1.077.653z" fill="#14AFEB"/><path fill-rule="evenodd" clip-rule="evenodd" d="M191.182 69.099l.16.17c.556.65.983 1.384 1.446 2.108l.163.248c2.694 3.974 7.32 3.258 11.379 5.326l3.304-1.959c-1.862-1.326-3.817-6.904-5.151-8.96-.835-1.291-1.31-2.26-2.651-3.154-1.668-1.073-3.401-2.083-5.128-3.083-1.03-.594-2.27-.925-3.444-.59-2.562.727-4.677 2.083-6.469 3.887-.785.79-.653 1.683.319 2.243 1.679.968 3.359 1.952 4.995 2.982.385.241.747.463 1.077.782z" fill="#5AC8F5"/><path d="M213.438 99.838s1.05 2.803.832 3.464c-.346 1.038.37 2.818.556 3.187.416.832 1.384 1.248 1.384 1.248s1.411-.497 3.048-1.318c.187-.093.257-.82.257-.82l.715-.218 5.136-4.56s1.675-1.325.979-2.227c-1.135-1.477-2.947-2.1-4.875-.949-1.022.614-2.161 1.427-2.375 1.478-.276.07-.622-1.688-.739-1.711-2.492-.486-4.918 2.426-4.918 2.426z" fill="#231F20"/><path d="M203.257 67.283s8.285 5.447 11.266 7.48c3.624 2.468 2.955 5.544 2.955 5.544l1.707 18.427s-.968-.992-3.464.874c-1.439 1.077-1.827 3.519-1.866 3.429-4.914-11.2-4.852-16.996-4.922-19.45-.047-1.663-1.314-2.239-1.314-2.239s-3.118-1.317-7.826-3.95c-7.876-4.4-4.665-12.653-4.665-12.653l8.129 2.538z" fill="#294F6D"/><path d="M206.029 38.189c3.324-2.216 7.203-3.694 7.203-3.694s10.629-1.446 10.229 6.582c-.37 7.39-10.046 13.836-11.084 23.757 0 0-3.911 4.545-9.073 6.512-5.82 2.216-8.44.486-9.008-2.08-.568-2.566 2.714-16.756 3.464-20.643 1.524-7.892 5.683-8.708 8.269-10.434z" fill="#AD501B"/><path d="M201.64 41.7c1.594-.417 5.034.652 4.987 4.571-.042 3.312-1.523 13.715-1.523 13.715s-.07 2.492.555 3.876c1.785 3.965 5.198 11.943 5.198 11.943s-3.258 1.975-5.388 3.04c-.432.218-4.416-8.63-6.321-11.729-1.108-1.8-1.458-4.813-1.458-4.813s-.202-5.213-.202-9.804c-.004-5.952.738-9.91 4.152-10.8z" fill="#CE6428"/><path d="M226.411 99.083c-.54-.906-4.82 1.594-6.531 3.732-1.419 1.769-2.585 3.161-2.585 3.161s3.013-1.186 4.467-1.753l3.324-2.955s1.726-1.512 1.325-2.185z" fill="#4C575E"/><path d="M217.571 35.88s4.129-3.9 8.452 1.108c4.385 5.08 8.451 8.035 8.451 8.035l18.855 4.455s-2.232 1.995-4.296 4.65c-.746.96-17.055-1.765-17.055-1.765s-9.905-5.264-12.813-8.452c-1.606-1.757-4.086-5.26-1.594-8.031z" fill="#AD501B"/><path d="M224.728 40.354s.019-.416-.335-.82c-.979-1.12-4.937-3.328-4.937-3.328l-4.031 5.24 3.728 3.78 3.88-1.31 1.695-3.562z" fill="#000"/><path d="M218.958 29.776l-4.879-.856-1.66 8.782c-.039.615-.163 1.155-.155 1.684.007.579.167 1.147.758 1.784 0 0 .82.75 1.8 1.54.396.318 1.632 1.41 2.713 1.232.401-.066 1.225-.338 1.225-.338.75-.284 1.147-.537 1.594-1.345.579-1.042 3.016-9.595 3.016-9.595l.758-2.853-5.17-.035z" fill="#D6BBA1"/><path d="M223.593 28.442c.785.98.715 2.138.354 2.966-.323.74-.51 1.272-.568 1.26 0 0-.47-1.854-1.854-1-1.338.829-2.03 1.51-2.131 1.455 0 0 .136-1.532.214-1.586.074-.055-1.38 1.349-1.38 1.349-.082.039-.276-.739-.428-.731-1.597.085-2.165 1.913-2.258 2.69l-.14.77c-.07.4-.078.84-.471.754-.311-.07-.404-.323-.591-.739 0 0-.59-1.663-1.663-1.407-.937.222-.568 2.628-.533 2.749l-.731 1.127c-.377.043 0 0-.33-.758-.821-1.886-.972-3.044-1.108-3.647-.681-3.083.497-5.8 2.597-7.285.657-.463 3.254-1.454 3.32-1.815.007-.047.427.373 1.034.466 1.951.303 1.244-.707 1.244-.707.513 0 1.594 1.236 1.671 1.325.599.684.797-.206.797-.206.603.428 2.955 2.97 2.955 2.97z" fill="#633A11"/><path opacity=".49" d="M206.48 35s-1.349-7.887 4.976-11.203c5.59-2.928 10.119.338 11.492 1.516 1.613 1.384 3.767 5.147 3.133 8.825-.696 4.027-2.115 9.12-2.115 9.12s-.136 1.866-3.312 2.624c-1.644.393-3.425.245-5.707-1.147-2.779-1.699-6.527-5.415-6.527-5.415s-1.796-1.602-1.94-4.32z" fill="#2E3C3F"/><path d="M223.888 41.653c-.63.739-2.266 1.158-3.429 1.26-1.263.112-2.091.042-3.226-.704-.506-.33-1.886-1.283-3.025-2.418-1.057-1.058-.906-1.967-.906-1.967s-.101-.856.094-2.632c.326-3.013 2.231-1.687 2.231-1.687s1.47 1.084 2.679 1.842c1.279.801 2.118.945 4.21.91 2.317-.039 3.184-1.022 3.51-1.831.02-.093.035-.187.051-.28.634-3.678-1.52-7.445-3.133-8.825-1.373-1.178-5.902-4.443-11.492-1.516-6.321 3.316-4.976 11.204-4.976 11.204.14 2.718 1.944 4.323 1.944 4.323s3.747 3.717 6.527 5.416c2.282 1.395 4.058 1.539 5.707 1.146 3.176-.758 3.312-2.624 3.312-2.624s.338-1.205.762-2.908c-.315.556-.657 1.081-.84 1.29z" fill="#14456D"/><path d="M225.987 30.896a7.064 7.064 0 0 1-.365 1.462c-.288.796-.789 1.504-1.489 1.936-.696.408-1.567.443-2.344.19-.793-.237-1.477-.723-2.146-1.267-1.345-1.062-2.543-2.31-3.841-3.472a26.427 26.427 0 0 0-.991-.851c-.346-.28-.727-.525-1.159-.677-.427-.147-.917-.167-1.337.02a1.913 1.913 0 0 0-.937.898c.241-.358.591-.642.983-.778.397-.132.829-.074 1.206.09.769.318 1.353.987 1.975 1.578 1.224 1.213 2.421 2.484 3.798 3.577.676.536 1.43 1.084 2.317 1.329.87.253 1.889.214 2.674-.307.762-.517 1.268-1.341 1.52-2.181.105-.37.171-.746.214-1.127-.019-.144-.05-.284-.078-.42z" fill="#5D7082"/><path fill-rule="evenodd" clip-rule="evenodd" d="M229.246 83.747c.093 4.591 4.77 5.692 7.048 4.374 2.278-1.318 4.125-4.735 4.125-7.635 0-3.472-2.628-4.242-5.463-3.083-2.771 1.127-5.757 4.12-5.71 6.344z" fill="#1B91D0"/><path fill-rule="evenodd" clip-rule="evenodd" d="M236.294 77.62c-2.278 1.318-4.129 4.735-4.129 7.635 0 2.9 1.847 4.183 4.129 2.87 2.278-1.319 4.124-4.736 4.124-7.636.004-2.904-1.846-4.187-4.124-2.869z" fill="#004687"/><path fill-rule="evenodd" clip-rule="evenodd" d="M236.531 78.028c2.184-1.26 3.417.257 3.417 2.457 0 2.57-1.633 5.925-3.892 7.227-2.181 1.26-3.417-.256-3.417-2.457 0-2.57 1.633-5.924 3.892-7.227z" fill="#fff"/><path fill-rule="evenodd" clip-rule="evenodd" d="M236.068 79.078c1.555-.898 2.434.182 2.434 1.75 0 1.826-1.163 4.213-2.768 5.142-1.551.898-2.434-.182-2.434-1.749 0-1.827 1.163-4.214 2.768-5.143z" fill="#F0F0F0"/><path fill-rule="evenodd" clip-rule="evenodd" d="M239.959 70.382l-1.505-.875-.155-.05-.171-.008-.179.039-.19.089-8.506 5.132-.094.062-.089.07-.082.081-.081.086-.074.097-.066.097-.063.11-.058.108-.047.113-.042.116-.035.117-.024.12-.019.121-.008.117v.116l.012.117 1.275 9.318 1.504.875-1.275-9.322-.011-.113v-.117l.007-.12.02-.117.023-.12.035-.117.043-.117.047-.116.058-.109.062-.105.066-.101.074-.093.082-.09.081-.078.09-.073.093-.063 8.506-5.127.191-.09.178-.042.171.007.156.055z" fill="#14AFEB"/><path fill-rule="evenodd" clip-rule="evenodd" d="M239.264 70.451l-8.506 5.132c-.506.303-.852 1.046-.77 1.648l1.275 9.319.832-.478-1.275-9.342c-.008-.058.027-.136.078-.163l8.339-5.027c.05-.031.101-.004.108.054l1.349 9.677.964-.552-1.317-9.727c-.09-.603-.572-.848-1.077-.54z" fill="#5AC8F5"/><path fill-rule="evenodd" clip-rule="evenodd" d="M238.066 72.24l.68 4.968c.086.04.167.086.249.136.785.412 1.31 1.342 1.407 2.675.004.05.008.101.008.152.004.05.004.104.004.155V80.656l-.004.07V81.061l-.004.039V81.154l.3.171-1.276-9.318-.011-.113v-.117l.008-.116.015-.12.016-.079a.105.105 0 0 0-.047.012l-1.345.766z" fill="#14AFEB"/><path fill-rule="evenodd" clip-rule="evenodd" d="M230.12 75.665l-3.783-2.298 1.381-4.354.046-.085.043.035.163.24.16.253.155.265.156.28.151.287.152.304.148.318.143.335.144.35.14.361.14.381.187.529.171.486.148.447.124.4.097.358.062.307.031.264-.007.21-.047.164-.093.109.077-.047-.089.1z" fill="#004687"/><path fill-rule="evenodd" clip-rule="evenodd" d="M227.293 71.812l-8.611.634c.727-.012 1.629 1.465 1.442 1.866l-.112.042 8.175-.633c1.104-.237-.008-2.006-.894-1.909z" fill="#0082C8"/><path fill-rule="evenodd" clip-rule="evenodd" d="M219.348 72.636c.517.323.936.93.936 1.349 0 .424-.419.502-.936.179-.518-.323-.937-.93-.937-1.35-.004-.419.419-.5.937-.178z" fill="#000"/><path fill-rule="evenodd" clip-rule="evenodd" d="M218.839 72.333l-5.855 3.561.136-.066.159-.02.179.032.187.085.097.059.093.073.09.082.085.09.082.097.078.105.073.112.067.117.062.12.05.125.051.124.039.129.031.128.023.128.012.128.008.129-.02.23-.054.194-.09.155-.112.113 5.854-3.561.117-.113.085-.155.055-.195.019-.23-.004-.128-.015-.128-.023-.128-.032-.128-.038-.129-.047-.124-.055-.124-.062-.121-.066-.117-.07-.112-.078-.105-.081-.098-.09-.089-.089-.082-.093-.073-.094-.059-.19-.085-.175-.031-.159.019-.14.066z" fill="#0082C8"/><path fill-rule="evenodd" clip-rule="evenodd" d="M213.645 75.925c.517.3.937 1.081.937 1.746s-.42.964-.937.665c-.517-.3-.937-1.081-.937-1.746s.42-.964.937-.665z" fill="#E5E6DC"/><path fill-rule="evenodd" clip-rule="evenodd" d="M212.276 75.264l-9.373 5.7.225-.11.253-.03.284.05.303.136.152.097.147.117.144.128.14.144.132.16.121.167.116.179.109.182.098.195.085.198.074.202.062.206.051.206.039.206.023.202.008.203-.031.373-.09.31-.136.25-.183.178 9.369-5.699.183-.179.14-.248.086-.311.031-.37-.008-.202-.023-.206-.035-.206-.051-.206-.062-.206-.078-.202-.085-.198-.098-.19-.105-.188-.116-.178-.125-.167-.132-.156-.136-.144-.144-.132-.147-.117-.156-.097-.303-.136-.28-.047-.257.031-.221.105z" fill="#0EB8EC"/><path fill-rule="evenodd" clip-rule="evenodd" d="M203.968 81.01c.828.478 1.501 1.726 1.501 2.791 0 1.066-.673 1.544-1.501 1.066-.828-.478-1.5-1.726-1.5-2.791-.004-1.066.668-1.544 1.5-1.066z" fill="#5AC8F5"/><path fill-rule="evenodd" clip-rule="evenodd" d="M258.714 47.484l-9.369 5.617.221-.105.257-.027.28.05.303.137.152.1.151.117.144.133.136.143.132.16.125.167.116.179.105.186.098.195.085.198.078.202.062.206.051.206.035.206.023.206.008.203-.031.369-.086.315-.14.245-.183.178 9.373-5.621.183-.179.136-.245.089-.31.032-.374-.008-.202-.024-.202-.038-.21-.051-.206-.062-.206-.074-.202-.089-.199-.094-.194-.109-.187-.116-.178-.121-.168-.132-.159-.14-.144-.144-.132-.147-.117-.156-.097-.299-.14-.284-.05-.253.027-.225.109z" fill="#0EB8EC"/><path fill-rule="evenodd" clip-rule="evenodd" d="M250.406 53.156c.828.482 1.5 1.737 1.5 2.806 0 1.066-.672 1.536-1.5 1.054s-1.501-1.742-1.501-2.807.673-1.536 1.501-1.053z" fill="#0082C8"/><path fill-rule="evenodd" clip-rule="evenodd" d="M249.053 54.268l-5.855 3.51.14-.066.16-.02.175.036.19.085.093.062.094.07.089.086.089.09.082.096.078.105.07.113.066.117.062.12.055.125.046.128.039.128.031.129.023.128.016.128.004.128-.02.23-.054.194-.085.156-.117.112 5.858-3.514.113-.109.086-.155.054-.195.02-.233-.004-.124-.016-.129-.023-.128-.031-.132-.039-.128-.047-.125-.054-.124-.059-.12-.07-.117-.069-.113-.078-.105-.082-.101-.085-.09-.094-.081-.089-.074-.097-.062-.191-.086-.175-.03-.159.019-.14.066z" fill="#0082C8"/><path fill-rule="evenodd" clip-rule="evenodd" d="M243.863 57.813c.517.303.937 1.089.937 1.753 0 .665-.42.96-.937.657-.517-.303-.937-1.088-.937-1.753-.004-.665.416-.96.937-.657z" fill="#0082C8"/><path fill-rule="evenodd" clip-rule="evenodd" d="M242.503 58.84l-5.42 7.172.133-.156.151-.116.171-.078.187-.03h.097l.093.015.094.027.085.035.086.046.081.059.074.066.074.074.066.085.059.09.054.097.043.105.039.109.031.112.019.12.016.125-.004.241-.043.23-.074.21-.101.182 5.419-7.172.101-.183.074-.21.043-.23.004-.24-.012-.125-.023-.12-.031-.113-.039-.109-.043-.105-.054-.097-.058-.09-.067-.085-.07-.074-.077-.066-.082-.058-.085-.047-.086-.039-.093-.023-.094-.015h-.097l-.186.03-.171.078-.152.117-.132.156z" fill="#0082C8"/><path fill-rule="evenodd" clip-rule="evenodd" d="M237.725 65.631c.517-.023.968.502 1.01 1.166.039.665-.346 1.225-.863 1.244-.517.024-.968-.501-1.01-1.166-.039-.665.346-1.224.863-1.244z" fill="#000"/><path fill-rule="evenodd" clip-rule="evenodd" d="M230.132 75.61l9.439-5.753.093-.109.047-.163.007-.214-.031-.26-.066-.312-.097-.357-.124-.4-.148-.444-.171-.486-.187-.528-.14-.382-.14-.365-.143-.35-.144-.334-.148-.319-.148-.303-.151-.292-.156-.276-.155-.264-.16-.253-.163-.24-.051-.07c-4.015-1.031-7.021 1.368-9.439 5.753l.051.07.163.24.16.254.155.264.156.276.151.291.152.304.148.319.143.334.144.35.14.365.14.381.187.529.171.486.148.443.124.4.097.358.066.311.031.26-.008.214-.046.164-.097.108z" fill="#0082C8"/><path fill-rule="evenodd" clip-rule="evenodd" d="M251.906 55.978l9.369-5.621.004-.016-.008-.202-.023-.202-.039-.21-.05-.206-.063-.206-.073-.202-.09-.199-.097-.194-.105-.187-.086-.132-9.369 5.622.086.132.105.187.097.194.086.198.077.202.063.206.05.206.035.206.023.206.008.203v.015z" fill="#5AC8F5"/><path fill-rule="evenodd" clip-rule="evenodd" d="M187.539 96.114a.65.65 0 0 0 .478.792.65.65 0 0 0 .793-.478c0-.004.536-2.037.933-4.136l.085-.451c.37-1.932.545-2.85.222-3.65-.307-.758-.941-1.167-2.15-1.944-.26-.167-.552-.354-.851-.552-.894-.591-1.991-1.306-3.095-2.026a740.653 740.653 0 0 0-4.047-2.612c-.264-.171-.408-.319-.451-.467-.05-.163-.011-.396.09-.707l1.873-5.676a4.724 4.724 0 0 0-1.531.451l-1.59 4.813c-.187.563-.237 1.042-.101 1.493.14.466.458.847.999 1.197 1.026.66 2.597 1.672 4.043 2.609 1.03.668 2.107 1.372 3.087 2.017.334.222.614.4.867.564.979.63 1.492.96 1.644 1.333.179.444.027 1.24-.292 2.912l-.085.455c-.385 2.022-.921 4.055-.921 4.063z" fill="#0082C8"/><path fill-rule="evenodd" clip-rule="evenodd" d="M213.037 114.416c.443-.128.455-.758 0-1.528 0 0-2.807-1.928-3.18-2.297-.373-.37-1.36-1.874-1.66-2.068-.299-.195-23.644-13.836-23.644-13.836-1.757-.992-3.534 2.243-2.55 4.323.12.711 31.034 15.406 31.034 15.406z" fill="#14AFEB"/><path fill-rule="evenodd" clip-rule="evenodd" d="M212.501 113.378a1906.61 1906.61 0 0 1-14.769-7.103 694.798 694.798 0 0 1-10.135-4.999 168.048 168.048 0 0 1-3.51-1.816c-.354-.19-1.127-.579-1.485-.847-.537-1.353.494-3.942 1.605-3.312 3.954 2.278 7.884 4.606 11.823 6.908 2.659 1.555 5.318 3.11 7.977 4.669 1.259.739 2.581 1.469 3.779 2.216.509.439 1.034 1.454 1.578 1.998.676.676 2.216 1.668 3.137 2.286z" fill="#5AC8F5"/><path d="M206.386 77.383l2.986-1.792s1.353-1.182 3.203.863c1.031 1.139 1.404 1.87 1.404 1.87s.82.94-.342 1.531c-.401.203-.358.203-1.12.482-1.625.595-1.959.774-3.316.136-.805-.377-1.851-1.123-2.578-1.228-.524-.074-1.477.381-1.477.381s-.33-1.077 1.24-2.243zM250.611 50.842l2.986-1.792s1.352-1.182 3.203.863c1.03 1.14 1.403 1.87 1.403 1.87s.821.94-.342 1.532c-.4.202-.357.202-1.119.482-1.625.595-1.96.774-3.316.136-.805-.377-1.851-1.123-2.578-1.228-.525-.074-1.477.38-1.477.38s-.331-1.08 1.24-2.243z" fill="#DDBEA4"/></svg>