<svg width="1604" height="406" fill="none" xmlns="http://www.w3.org/2000/svg" viewBox="0 0 1604 406"><path fill="#F5FCFF" d="M1600 0H0v400h1600z"/><mask id="a" maskUnits="userSpaceOnUse" x="623" y="0" width="977" height="400"><path transform="matrix(-1 0 0 1 1600 0)" fill="#F5FCFF" d="M0 0h977v400H0z"/></mask><g mask="url(#a)"><path d="M1811.84 8.01l-221.16 12.087-412.3 43.203-76.81 45.616 349.28 203.445 293.2 27.611 67.79-331.961z" fill="#00AD00"/><path d="M1721.26 4.697S967.115 28.777 916.425 112.28C853.991 215.137 1472.9 491 1472.9 491l522.48-123.8s-828.17-206.809-790.9-269.085c38.95-65.08 809.99-83 809.99-83L1721.26 4.696z" fill="#fff"/><path d="M1531.55 450.392S919.755 205.655 975.078 112.279C1024.87 28.243 1779.91 7.401 1779.91 7.401l168.74 3.197s-771.51 22.153-809.99 87.508c-41.13 69.872 790.89 300.67 790.89 300.67l-398 51.616z" fill="#004EBB"/><path d="M1088.02 206.807c-3.27 1.878-3.2 4.8.17 6.494l31.23 19.982 165.34 83.193c3.37 1.695 8.93 1.653 12.64.91 14.06-2.855 34.8-9.273 45.85-14.607 3.4-1.644 8.31-4.791 11.35-7.028 5.12-3.756 13.66-11.861 16.64-17.996 1.65-3.397 2.1-6.235-1.27-7.938l-203.17-102.24c-3.37-1.694-8.8-1.552-12.07.326l-66.71 38.904z" fill="#0032A5"/><path d="M1092.83 170.849c-1.01-5.868 3.1-10.083 3.1-10.083s2.32-6.802 8.44-14.248c6.12-7.437 29.06-20.633 35.57-23.346 6.51-2.713 13.76-3.046 17.32-2.554 3.58.493 20.25 5.751 20.25 5.751s20.2 1.611 36.97 8.28 34.94 16.694 48.4 23.864c7.85 4.173 22.23 15.099 32.87 23.479l1.25-.793s-1.04-4.899-.8-5.767c.23-.877 2.73-7.012 2.73-7.012s3.06 3.097 3.99 5.659c.94 2.563-.67 6.428-1.17 8.306-.29 1.068-.92 2.337-1.4 3.238-.01-.008-.03-.017-.04-.025 5.23 4.174 8.77 7.103 8.77 7.103 18.53 7.27 42.39 27.862 42.39 27.862 4.56.234 7.7 8.831 10.98 14.69 3.29 5.868 3.12 9.816 3.03 11.536-.1 1.719 2.18 26.334-17.79 40.165-19.98 13.822-43.82 16.91-54.44 16.192a53.15 53.15 0 0 1-12.08-2.245c-.41-1.995-.8-3.864-.88-5.167-.64-10.717-10.19-23.529-19.95-28.02-12.65-5.818-18.54.092-17.89 10.818.07 1.06.39 2.737.81 4.499l-96.33-48.512c-.42-2.287-.88-4.633-1.11-6.052-1.59-9.757-9.2-20.75-17.68-25.833-13.55-8.121-17.6-.409-16.15 10.225v.017c-4.81-4.374-12.79-11.694-16.87-15.834-6.09-6.169-5.62-15.016-6.07-18.155-.46-3.138 3.78-8.038 3.78-8.038z" fill="#14AFEB"/><path d="M1089.04 178.887c.46 3.139-.02 11.986 6.07 18.155 4.09 4.14 12.07 11.46 16.87 15.834v-.017c-1.46-10.634 2.6-18.355 16.15-10.225 8.48 5.083 16.1 16.076 17.68 25.833.24 1.419.7 3.765 1.11 6.052l96.33 48.512c-.42-1.762-.75-3.439-.81-4.499-.64-10.726 5.25-16.636 17.89-10.818 9.77 4.491 19.31 17.303 19.95 28.02.08 1.303.47 3.172.88 5.167a53.15 53.15 0 0 0 12.08 2.245c10.62.718 34.46-2.37 54.44-16.192 18.13-12.546 17.92-33.972 17.8-39.122-1.67 8.814-6.12 19.849-18.32 28.237-12.6 8.673-22.43 13.339-43.1 14.173-12.18.484-20.34-3.197-24.92-4.924l-.05-.91c4.57 1.728 12.63 3.739 24.81 3.255 20.68-.826 30.5-5.5 43.1-14.164 12.28-8.447 16.71-19.565 18.36-28.413.06.309.1.601.14.885.04-2.004-.22-5.634-3.05-10.709-.92-1.645-1.83-3.498-2.76-5.326-2.14 3.631-3.53 1.845-3.53 1.845-.11 3.956-1.74 9.49-2.75 11.343-1.01 1.853-4.16 8.356-12.97 14.641s-18.81 9.607-24.53 11.443c-5.72 1.837-11.16 1.62-11.16 1.62-6.71 3.372-13.56.467-13.56.467-1.6-3.13-8.41-6.895-13.51-9.44-2.78-1.386-7.67-4.249-12.1-7.062-3.72-2.362-5.91-3.931-5.91-3.931-11.12-7.137-15.46-12.954-15.46-12.954-8.46-14.749-24.45-35.499-24.45-35.499-11.65-14.382-33.6-24.223-48.31-31.451-10.5-5.159-26.26-4.549-39.49-5.025l-15.68-.818s-15.9-4.249-16.21-12.612c-2.94 4.733-4.14 8.247-4.14 8.247s-4.11 4.223-3.09 10.083c0 0 6.77 14.406 13.63 22.795 0 0-12.54-9.9-17.12-17.053-.27.818-.41 1.611-.31 2.312zm126.12 47.527c4.1-.935 6.54-2.404 8.1-1.018l4.57 4.156s2.39 2.329.7 3.431c-1.69 1.102-7.3 1.444-11.92 1.719-4.62.276-4.97-3.914-5.07-4.59-.1-.685-.48-2.763 3.62-3.698z" fill="#0082C8"/><path d="M1154.62 172.869a24.84 24.84 0 0 1 2.58-.283c12.99-.785 26.14 7.445 30.66 9.966 7.25 4.04 20.86 11.36 28.73 20.533 9.61 11.21 7.34 10.3 21.89 35.182 0 0-4.12-2.078-10.18-5.158.08-.042.16-.076.23-.126 1.69-1.101-.7-3.43-.7-3.43l-4.57-4.157c-1.56-1.377-3.99.084-8.07 1.01-10.63-5.459-22.36-11.552-29.26-15.366-14.94-8.272-53.25-29.673-53.25-29.673s8.13-6.252 21.94-8.498z" fill="#0082C8"/><path d="M1250.15 268.415l4.46-2.645c1.72.35 3.63.984 5.72 1.953 9.77 4.49 19.31 17.303 19.95 28.02.08 1.302.47 3.172.88 5.167h.02l-7.85 4.674c-2.69 1.619-6.47 1.552-10.75-.584-8.85-4.424-16.5-16.001-17.09-25.867-.33-5.367 1.5-9.123 4.66-10.718z" fill="#192D4B"/><path d="M1254.61 265.761l-4.46 2.646c-3.17 1.594-4.99 5.35-4.67 10.717.06 1.027.2 2.07.41 3.122l-2.64.785c-.42-1.762-.75-3.439-.81-4.499-.54-8.94 3.48-14.532 12.17-12.771z" fill="#004687"/><path d="M1245.48 279.124c.59 9.866 8.25 21.451 17.09 25.867 8.85 4.415 15.54 0 14.95-9.866-.6-9.866-8.25-21.452-17.1-25.867-8.84-4.416-15.53 0-14.94 9.866z" fill="#192D4B"/><path d="M1246.43 280.058c.55 9.098 7.6 19.782 15.75 23.855 8.17 4.074 14.34.009 13.79-9.098-.55-9.098-7.6-19.782-15.76-23.855s-14.33 0-13.78 9.098z" fill="#192D4B"/><path d="M1250.22 282.154c.41 6.777 5.66 14.724 11.73 17.762 6.07 3.03 10.66 0 10.26-6.769-.41-6.778-5.66-14.724-11.73-17.754-6.08-3.047-10.67-.008-10.26 6.761z" fill="#0082C8"/><path d="M1258.74 285.426c.11 1.978 1.65 4.29 3.42 5.183 1.77.885 3.11 0 2.99-1.978-.12-1.978-1.66-4.299-3.43-5.183-1.76-.885-3.1 0-2.98 1.978zM1117.86 201.782l3.6-2.145c1.9.492 4.12 1.46 6.67 2.996 8.48 5.083 16.11 16.076 17.68 25.834.24 1.419.7 3.764 1.11 6.051l.85.426-6.74 4.006c-2.69 1.62-6.47 1.553-10.75-.584-8.85-4.415-16.5-16.001-17.1-25.867-.31-5.367 1.52-9.115 4.68-10.717z" fill="#192D4B"/><path d="M1113.18 212.5c.6 9.866 8.25 21.451 17.1 25.866 8.85 4.416 15.54.009 14.95-9.865-.59-9.866-8.25-21.452-17.1-25.867-8.84-4.416-15.54 0-14.95 9.866z" fill="#192D4B"/><path d="M1114.13 213.435c.55 9.098 7.6 19.782 15.76 23.863 8.16 4.073 14.33 0 13.79-9.098-.56-9.098-7.61-19.782-15.77-23.855-8.16-4.082-14.32-.008-13.78 9.09z" fill="#192D4B"/><path d="M1117.93 215.53c.4 6.769 5.65 14.723 11.72 17.762 6.08 3.029 10.66 0 10.26-6.77-.41-6.777-5.66-14.723-11.73-17.762-6.07-3.038-10.66-.008-10.25 6.77z" fill="#0082C8"/><path d="M1126.38 218.769c.13 2.011 1.69 4.373 3.49 5.275 1.8.901 3.17 0 3.05-2.012-.13-2.011-1.68-4.374-3.49-5.275-1.81-.901-3.17 0-3.05 2.012z" fill="#192D4B"/><path d="M1121.46 199.646l-3.6 2.145c-3.16 1.594-4.99 5.35-4.67 10.709v.134l-1.21.242v-.017c-1.18-8.631 1.27-15.333 9.48-13.213z" fill="#004687"/><path d="M1250.16 181.692c9.92-6.944 20.79-16.217 20.79-16.217s17.19 11.443 22.8 15.925c8.4 6.711 15.33 11.302 15.33 11.302.93.367 1.88.768 2.83 1.194 8.1 6.134-5.27 18.955-15.59 26.743-10.31 7.779-27.21 16.777-37.25 18.655-1.03.192-2 .309-2.92.367-7.96.476-11.34-3.773-11.34-3.773-7.71-13.505-24.56-35.891-24.56-35.891s19.98-11.36 29.91-18.305zM1119.07 158.688c3.38-5.117 16.66-14.69 23.6-19.123 4.97-3.171 13.01-8.497 22.65-11.318 3.21-.943 6.6-1.602 10.12-1.811a33.55 33.55 0 0 1 2.07-.067s9.94.793 21.65 3.564c0 0-16.12 8.848-23.36 13.956-7.23 5.1-21.2 16.276-22.78 17.837 0 0-2.52 3.105-5.13 3.256-2.61.158-28.92-1.211-28.92-1.211s-3.28.034.1-5.083z" fill="#0082C8"/><path d="M1250.73 182.51c8.55-5.976 17.89-13.764 20.29-15.776 3.14 2.104 17.19 11.536 22.09 15.459 8.34 6.66 15.34 11.31 15.41 11.351l.09.059.1.042.32.133c.86 1.653 1.49 3.831.71 6.01-1.6 4.449-9.74 12.821-17.65 18.046-7.64 5.041-22.22 16.71-41.51 20.299-3.13-.876-4.67-2.496-4.96-2.821-6.78-11.861-20.66-30.658-23.89-34.998 4.17-2.404 20.42-11.794 29-17.804zM1184.72 182.251c.89.492 1.67.934 2.33 1.277-2.47 6.694-4.83 19.197-5.66 23.838-8.2-4.557-19.68-10.951-29.38-16.368l5.4-17.411c10.67-.585 21.48 5.425 27.31 8.664zM1154.79 173.862c.21-.033.43-.058.65-.091l-5.36 16.151c-7.04-3.923-12.89-7.195-15.48-8.639 2.78-1.778 9.91-5.751 20.19-7.421zM1147.82 163.98c1.77-.109 3.79-2.12 4.41-2.888l.03-.042.05-.033c1.67-1.661 15.42-13.238 22.9-17.954 14.69-9.265 19.17-11.118 23.11-13.322-10.41-2.404-19.24-3.238-20.62-3.355-2.41.334-5.55 1.018-9.66 1.92-10.03 2.47-18.55 8.096-24.05 11.61l-.78.501c-7.81 4.983-20.19 14.114-23.31 18.822-1.69 2.562-1.32 3.33-1.31 3.355.07.142.35.167.35.167H1119.01c9.09.484 26.79 1.344 28.81 1.219z" fill="#94DAEE"/><path d="M1359.42 253.174s-3.28-13.714-3.51-15.208c-.23-1.494 2.24-10.367-4.19-17.378 4.14.492 7.11 7.871 10.12 13.538.21 4.232.31 13.706-2.42 19.048zM1319.85 280.318s-3.8-3.681-7.14-6.21c-3.33-2.529-5.5-3.305-9.8-3.355-4.29-.042-10.95.15-14.22-.51-3.28-.659-5.93-1.16-8.02-1.435-2.08-.284-3.8-.326-2.4 2.011s3.14 7.32 8.27 8.748c5.13 1.427 7.9 1.627 14.32 1.677 6.42.059 18.99-.926 18.99-.926z" fill="#E1E8EC"/><path d="M1330.12 278.707a8.02 8.02 0 0 0 2.66-.634l.72-.301c4.01-1.694 9-3.806 13.45-7.562 3.82-3.222 6.36-5.717 7.76-7.637 1.23-1.695 1.74-3.481 1.54-5.467-.19-1.87-.81-7.588-1.17-10.835-1.48 2.288-4.12 6.152-6.97 9.366-2.41 2.721-7.49 7.67-14.49 10.308-.48.184-.96.376-1.45.576-.47.192-.95.384-1.43.559-5.65 2.145-11.21 3.781-13.94 4.532l9.27 6.177c-.01.008 1.65 1.06 4.05.918zM1299.45 296.569c2.8-.343 10.02-1.035 13.47-1.645.57-.1 1.13-.292 1.35 1.286.22 1.577-1.97 1.903-1.97 1.903-3.03.451-5.86.809-7.69.901 0 0-5.47.393-5.98.418-.63.025-1.1-.334-1.1-.334-.26-1.002.17-2.312 1.92-2.529zM1330.64 290.993l.7 1.711s.66.96 2.61-.008c1.94-.968 9.93-5.267 14.56-8.723 3.43-2.562 6.55-5.951 7.13-6.685.59-.735 1.13-2.605 1.15-3.281.03-.676.42-1.978-1.08-.233-1.5 1.744-6.86 6.301-10.44 8.68-3.58 2.379-12.56 6.895-14.08 7.479 0 .008-.84.334-.55 1.06z" fill="#006399"/><path d="M1095.68 161.05s-.98 2.228.99 4.482c1.96 2.254 6.32 6.127 6.32 6.127s1.1.434-.92 2.888c-2.02 2.454-2.27 2.47-2.27 2.47s-.3.351-.78.376c-.37.025-.83-.142-1.35-.793-1.2-1.502-3.65-3.823-4.83-5.759-.87-4.967 1.96-8.756 2.84-9.791z" fill="#0082C8"/><path d="M1223.26 225.396c-1.36-1.202-3.38-.242-6.59.634-9.01-4.615-18.95-9.765-26.13-13.63.12-9.04.85-21.627 1.14-26.476 10.78 5.801 19.07 11.911 24.13 17.812 6.3 7.354 7.44 9.432 11.69 17.178.02.025.03.05.04.075l-.32 8.004-3.96-3.597z" fill="#94DAEE"/><path d="M1244.09 221.331l9.98 4.265c.37-2.446 1.35-6.018.24-12.437-1.09-6.31-4.28-10.7-4.28-10.7s.13-5.217-2.08-11.41a11.11 11.11 0 0 0-3.09-4.633c-1.75 1.118-3.59 2.27-5.45 3.414l4.68 31.501z" fill="#D4CDBF"/><path d="M1270.38 190.857s.56-4.825-1.64-11.01c-1.26-3.514-3.38-5.709-5.15-7.028-3.78 3.014-8.43 6.594-12.85 9.699-1.7 1.194-3.71 2.521-5.87 3.898 1.23 1.094 2.36 2.579 3.1 4.633 2.2 6.193 2.08 11.41 2.08 11.41l20.33-11.602z" fill="url(#paint0_linear)"/><path d="M1254.31 213.168c-1.09-6.31-4.28-10.701-4.28-10.701l20.34-11.602s2.58 3.923 4.31 9.432c1.1 3.506 1.52 9.95 1.15 12.387l-21.76 12.921c.37-2.446 1.36-6.027.24-12.437z" fill="url(#paint1_linear)"/><path d="M1294.33 216.274c-4.72-1.92-10.79-3.84-13.07-4.299-4.02-.81-5.45.676-5.45.676l-21.65 12.846c.45 2.337 5.05 5.968 9.71 8.747 12.72-5.033 22.45-12.612 28.22-16.418.75-.484 1.49-1.01 2.24-1.552z" fill="url(#paint2_linear)"/><path d="M1227.02 207.517l7.38-4.206s.47-4.14-1.41-9.449c-.02-.042-.04-.075-.05-.117-4.99 2.972-9.34 5.476-11.21 6.561.96 1.293 2.89 3.898 5.29 7.211z" fill="url(#paint3_linear)"/><path d="M1234.4 203.311l-7.38 4.206c3.11 4.307 7.03 9.825 10.72 15.308l1.34-.793c.31-2.095-.04-7.62-.99-10.625-1.48-4.724-3.69-8.096-3.69-8.096z" fill="url(#paint4_linear)"/><path d="M1245.37 234.861c7.03-4.257 15-9.374 15.21-10.375.36-1.712-14.54-6.478-18.37-7.212-3.83-.726-5.2.609-5.2.609l-1.9 1.069c3.77 5.475 7.54 11.201 10.26 15.909z" fill="url(#paint5_linear)"/><path d="M1271.45 200.99s5.77 1.519 9.38 4.432c3.61 2.913 8.39 8.497 8.39 8.497l-3.48 5.434s-12.17-5.959-15.53-7.762c-3.35-1.803-6.25-7.32-6.25-7.32l7.49-3.281z" fill="#014B89"/><path d="M1267.35 202.727s1.9 3.205 1.76 4.156c-.14.952.62 2.771.62 2.771s5.84 4.449 7.47 6.745c1.63 2.303 3.2 5.884 2.75 5.918-.44.033-6.65 2.537-6.65 2.537s-5.46-5.801-8.69-7.42c-3.23-1.611-8.09-4.691-9.26-10.067l12-4.64z" fill="#1A64A3"/><path d="M1288.03 190.456s.04.009.09.009c.38.058 1.97.283 2.68.45.81.192 1.27-.058 2.3 1.127 1.03 1.194.98 1.995.93 2.796-.05.802-.31 1.995-.57 2.271-.26.275-.37.551-.74.484-.38-.067-.55-.259-.52-.234.02.025-.5-.008-.47-.551.03-.534.33-1.702.33-1.702l-.3-.96s-.75-.51-.96-.443c-.22.067-2.29.167-2.29.167s-2.9.209-3.99-.075c-1.1-.284-10.47-2.629-11.34-3.205-.86-.584-4.12-4.775-5.49-6.143-1.37-1.369-1.86-5.96-2.65-6.202-.79-.234-2.61-.117-2.61-.117l-1.37-2.771s3.84-3.856 6.27-1.886c2.42 1.961 3.23 3.138 3.63 3.664.4.526 4.5 7.854 5.64 8.689 1.14.835 8.56 4.09 9.73 4.073.84 0 1.7.559 1.7.559z" fill="#F2A983"/><path d="M1267.1 181.985s3.99 4.75 5.2 5.543c1.2.793 2.79-1.052 2.49 0-.3 1.051.07 2.111.49 2.337.42.225 9.3 2.454 9.91 2.637.61.184 2.89-1.377 4.05-.676.69.418 1.01 1.236.87 1.953-.67.05-1.59.092-1.59.092s-2.9.209-3.99-.075c-1.1-.284-10.47-2.629-11.34-3.205-.86-.584-4.12-4.774-5.49-6.143-.4-.401-.73-1.077-1.01-1.837l.41-.626z" fill="#D88F69"/><path d="M1263.72 172.912s2.45-.976 4.26.601c1.8 1.586 5.21 6.627 5.21 6.627s-3.5 5.443-6.15 6.152c-2.65.71-3.32-13.38-3.32-13.38z" fill="#F6C100"/><path d="M1265.46 179.623c.46-.96 3.04-.802 3.73 1.168a25.8 25.8 0 0 0 1.24 2.947c-1.08 1.185-2.3 2.27-3.39 2.562-1.11.292-1.98-1.97-2.63-4.708.49-.926.9-1.677 1.05-1.969z" fill="#DDA800"/><path d="M1258.11 181.626c3.69.676 6.22.501 6.74-1.51.51-2.012-1.68-6.235-1.68-6.235l-.66-.209a305.062 305.062 0 0 1-7.21 5.542c.36 1.06 1.16 2.112 2.81 2.412z" fill="#D88F69"/><path d="M1266.89 193.086c-.06-.76-.48-4.307-.48-4.307.68-.918 1.8-3.464 1.59-7.654-.21-4.19-2.88-7.888-2.88-7.888s-.98-.2-1.78-.225c-.29.225-.59.459-.88.693.02.025.03.05.06.075 1.17 1.327 1.94 4.974-.35 6.193-2.05 1.085-3.85-.134-4.96-1.252-.19-.192-.37-.367-.54-.543a205.554 205.554 0 0 1-5.94 4.324c-.9.634-1.88 1.302-2.94 1.995.35 4.315 4.72 11.635 5.61 13.104 1.04 1.703 2.44 11.102 2.44 11.102 1.39-1.177 6.84-1.953 11.35-3.322 4.53-1.369 4.94-4.483 4.94-4.483s-1.11-.601-1.79-1.277c-.68-.667-3.38-5.776-3.45-6.535z" fill="#F6C100"/><path d="M1263.69 175.983c1.53-.375 1.08-1.677 1.09-2.637.01-.493.07-1.052.14-1.603a407.497 407.497 0 0 1-5.22 4.123c1.43.343 2.96.376 3.99.117z" fill="#F2A983"/><path d="M1264.44 175.624c.61-.559.34-1.527.35-2.278.01-.493.07-1.052.14-1.603l-.09.075c.06.309.06.701-.38.743-.48.042-.19.885-.21 1.427 0 .293.06 1.01.19 1.636z" fill="#D88F69"/><path d="M1254.67 189.129c-.22 2.262-.07 3.464.94 5.359 1 1.895.86 3.706 2.61 4.716 1.74 1.01 3.28-.059 5.05 0 1.77.05 1.63-.025 1.43 1.168-.19 1.186-.09 1.903 1.39 1.478 1.49-.434 3.57-1.127 3.16-.142-.32.793-4.33 3.13-5.61 4.649-1.2.292-2.37.559-3.43.818-1.35-.234-3.03-.584-4.77-.968-.49-2.913-1.34-7.446-2.03-8.581-.95-1.569-5.49-8.263-5.25-12.395l4.9-.576c0-.016 1.83 2.212 1.61 4.474z" fill="#DDA800"/><path d="M1280.02 209.871c.94 0 2.07-.292 3.32-.901 4.33-2.112 8.52-7.278 9.35-11.544.59-3.03-.66-4.782-3-4.782-.94 0-2.07.292-3.32.901-4.32 2.112-8.51 7.278-9.35 11.544-.59 3.03.67 4.782 3 4.782zm-1.09-4.423c.7-3.548 4.35-8.038 7.99-9.816.94-.459 1.8-.693 2.48-.693.54 0 .92.142 1.15.426.36.434.45 1.293.25 2.345-.71 3.547-4.36 8.038-8 9.816-.93.459-1.79.701-2.48.701-.53 0-.92-.142-1.15-.426-.36-.442-.45-1.302-.24-2.353z" fill="#39464A"/><path d="M1309.73 199.789c.78-2.154.16-4.307-.67-5.952-6.2-.067-19.49 9.282-32.55 17.061-12.64 7.537-25.83 18.48-31.21 23.839.11.192.22.384.32.567.29.326 1.83 1.945 4.96 2.822 19.29-3.59 33.86-15.25 41.51-20.3 7.91-5.217 16.05-13.589 17.64-18.037z" fill="url(#paint6_linear)"/><path d="M1306.49 204.938c-.7-4.157-3.62-7.88-3.62-7.88s-6.4-4.741-16.69 0c-10.29 4.741-11.86 14.941-11.86 14.941v.2c6.08 2.88 13.41 4.825 20.17 3.94 4.61-3.372 9.06-7.57 12-11.201z" fill="url(#paint7_linear)"/><path d="M1259.96 221.815s-.95-5.917 5.82-9.548c6.77-3.631 12.14-.91 12.14-.91s8.54 5.851-1.88 11.485c-10.42 5.634-16.08-1.027-16.08-1.027z" fill="url(#paint8_linear)"/><path d="M1254.44 207.267c.52.567 2.28 1.97 2.64 2.905.35.934.79 2.353.63 3.313-.16.969-.08 2.221-.59 2.362-.51.142-.75.042-.75.042s-.05.66-.71.635c-.65-.026-.56-.293-.56-.293s-.54.409-.83.318c-.29-.092-.42-1.119-.42-1.119s-.46-2.412-.56-2.621c-.08-.208-.51-1.36-.53-.96-.02.393.42 1.912.51 2.421.09.509.44 1.36.14 1.427-.3.059-.99-.776-1.2-1.494-.21-.718-1.05-2.362-1.07-2.855-.02-.484.26-2.512-.11-3.029-.37-.518-4.17-4.065-5.16-6.252-.98-2.195-1-2.237-1.16-3.23-.15-.86.3-1.979.3-1.979s.5-5.892 1.31-7.478c.82-1.586 1.28-2.596 1.32-3.08.05-.484.43-2.413 1.95-2.605 1.52-.192 4.45 2.454 4.53 3.506.08 1.052-1.18 2.195-1.72 3.439-.54 1.244-1.77 8.355-1.77 8.355s2.86 7.237 3.81 8.272z" fill="#F2A983"/><path d="M1257.12 215.848c-.51.141-.75.041-.75.041s-.05.66-.71.635c-.65-.025-.56-.292-.56-.292s-.54.409-.83.317c-.29-.092-.42-1.119-.42-1.119s-.34-1.761-.5-2.404c.13-.4 1.2-.075 1.2-.075s.22-.208.71-.425c.5-.217 1.13-.084 1.13-.084s.28-.083 1.03-.342a.827.827 0 0 1 .21-.05c.1.517.15 1.018.08 1.444-.16.951-.08 2.212-.59 2.354zM1251.69 212.901c.54 0 1.04.059 1.28.084.12.492.25 1.01.3 1.269.09.509.44 1.36.14 1.427-.3.058-.99-.776-1.2-1.494-.09-.309-.31-.793-.52-1.286z" fill="#D88F69"/><path d="M1254.4 184.18c-.43-1.419-1.27-2.246-2.17-2.73-.5.359-1 .718-1.49 1.06-1.27.885-2.71 1.853-4.25 2.855-.47 2.17-.36 4.173-.36 4.173 3.4-.784 6.91 1.327 6.91 1.327s2.23-3.772 1.36-6.685z" fill="#F6C100"/><path d="M1201.92 192.024c-3.06-2.028-6.44-4.048-10.11-6.026l-.14.084c-.26 4.24-.82 13.947-1.04 22.269l11.92-7.078c.27-1.812.05-6.152-.63-9.249z" fill="url(#paint9_linear)"/><path d="M1217.99 206.315c-.65-.785-1.37-1.636-2.17-2.571-1.81-2.112-4.03-4.24-6.64-6.377-1.69-.534-3.14-.935-3.99-1.11-3.45-.693-4.67.584-4.67.584l-9.7 5.759a406.12 406.12 0 0 0-.29 9.816c2.94 1.586 6.36 3.381 9.97 5.275 3.87-2.303 12.5-7.787 17.49-11.376z" fill="url(#paint10_linear)"/><path d="M1209.06 218.776s.11-4.483-1.77-9.791c-2.11-5.935-8.13-6.461-8.13-6.461l2.32 15.651c3.23 1.686 6.61 3.439 9.96 5.158-1.11-2.813-2.38-4.557-2.38-4.557z" fill="#D4CDBF"/><path d="M1221.93 211.438c-1.5-2.162-3.28-4.399-6.11-7.704-1.9-2.203-4.23-4.44-6.99-6.677l-9.67 5.467s6.02.517 8.13 6.46c1.88 5.309 1.77 9.791 1.77 9.791l12.87-7.337z" fill="url(#paint11_linear)"/><path d="M1223.26 225.395l3.96 3.606.32-8.004c0-.025-.02-.051-.04-.076-2.34-4.273-3.74-6.819-5.58-9.482l-12.86 7.337s1.26 1.745 2.36 4.558c1.76.909 3.52 1.811 5.24 2.696 3.22-.877 5.24-1.837 6.6-.635z" fill="url(#paint12_linear)"/><path d="M1206.19 197.558c.53.626.59 3.973.58 5.651.15-.025.3-.067.45-.125l5.04-3.014a70.752 70.752 0 0 0-6.21-5.141c-1.26.759-2.26 1.36-2.57 1.544.91-.159 2.07.334 2.71 1.085z" fill="url(#paint13_linear)"/><path d="M1203.49 196.465c.9-.142 2.05.342 2.7 1.094.53.626.59 3.973.58 5.65-.58.101-1.07-.025-1.07-.025s-3.05-1.644-3.47-2.387c-.42-.743 1.16-4.265 1.16-4.265s.04-.034.1-.067z" fill="#D4CDBF"/><path d="M1227.42 224.143l-3.35 1.986 3.16 2.871.19-4.857z" fill="url(#paint14_linear)"/><path d="M1169.58 185.458c-2.12-5.935-8.13-6.461-8.13-6.461l2.78 18.822c3.67 2.045 7.29 4.065 10.66 5.935-1.03-5.05-3.54-8.506-3.54-8.506s.11-4.482-1.77-9.79z" fill="#D4CDBF"/><path d="M1185.94 186.927l-14.59 8.322s2.5 3.463 3.54 8.505c2.31 1.285 4.5 2.504 6.5 3.614.71-3.94 2.51-13.53 4.55-20.441z" fill="url(#paint15_linear)"/><path d="M1185.94 186.927c.37-1.227.74-2.388 1.11-3.398-.66-.342-1.44-.776-2.33-1.277-3.78-2.103-9.66-5.358-16.24-7.236l-7.04 3.981s6.02.518 8.13 6.461c1.88 5.308 1.78 9.79 1.78 9.79l14.59-8.321z" fill="url(#paint16_linear)"/><path d="M1168.82 175.115c.22 1.302.25 3.364.25 4.558.15-.025.3-.067.45-.126l4.41-2.637a52.061 52.061 0 0 0-5.11-1.795z" fill="url(#paint17_linear)"/><path d="M1164.53 177.26c.41.743 3.47 2.388 3.47 2.388s.48.125 1.07.025c0-1.202-.03-3.256-.25-4.558-1.19-.35-2.4-.659-3.63-.901-.42 1.085-.91 2.587-.66 3.046z" fill="#D4CDBF"/><path opacity=".45" d="M1184.72 182.251c.89.492 1.67.934 2.33 1.277-2.47 6.694-4.83 19.197-5.66 23.838-8.2-4.557-19.68-10.951-29.38-16.368l5.4-17.411c10.67-.585 21.48 5.425 27.31 8.664zM1250.73 182.51c8.55-5.976 17.89-13.764 20.29-15.776 3.14 2.104 17.19 11.536 22.09 15.459 8.34 6.66 15.34 11.31 15.41 11.351l.09.059.1.042.32.133c.86 1.653 1.49 3.831.71 6.01-1.6 4.449-9.74 12.821-17.65 18.046-7.64 5.041-22.22 16.71-41.51 20.299-3.13-.876-4.67-2.496-4.96-2.821-6.78-11.861-20.66-30.658-23.89-34.998 4.17-2.404 20.42-11.794 29-17.804zM1223.26 225.396c-1.36-1.202-3.38-.242-6.59.634-9.01-4.615-18.95-9.765-26.13-13.63.12-9.04.85-21.627 1.14-26.476 10.78 5.801 19.07 11.911 24.13 17.812 6.3 7.354 7.44 9.432 11.69 17.178.02.025.03.05.04.075l-.32 8.004-3.96-3.597z" fill="#94DAEE"/><path d="M1470.62 134.582h-5.63v110.662h5.63V134.582z" fill="#5F6464"/><path d="M1422.5 117.688l38.98-39.472a8.926 8.926 0 0 1 12.74 0l38.98 39.472c3.52 3.564 3.52 9.34 0 12.913l-38.98 39.463a8.925 8.925 0 0 1-12.74 0l-38.98-39.463c-3.52-3.573-3.52-9.349 0-12.913z" fill="#fff"/><path d="M1427.4 120.868l37.22-37.694a4.52 4.52 0 0 1 6.46 0l37.23 37.694c1.79 1.811 1.79 4.741 0 6.544l-37.23 37.694a4.518 4.518 0 0 1-6.46 0l-37.22-37.694c-1.79-1.811-1.79-4.741 0-6.544z" fill="#fff"/><path d="M1467.85 168.128c-1.66 0-3.22-.659-4.4-1.844l-37.22-37.694c-2.42-2.454-2.42-6.444 0-8.907l37.22-37.694a6.134 6.134 0 0 1 4.39-1.845c1.66 0 3.23.652 4.4 1.845l37.23 37.694a6.28 6.28 0 0 1 1.82 4.449c0 1.678-.65 3.264-1.82 4.458l-37.23 37.694a6.134 6.134 0 0 1-4.39 1.844z" fill="#004EBB"/><path d="M1485.15 141.61c9.55-9.674 9.55-25.357 0-35.031a24.252 24.252 0 0 0-34.6 0c-9.56 9.674-9.56 25.357 0 35.031a24.253 24.253 0 0 0 34.6 0z" fill="#fff"/><path d="M1489.4 131.71c4.16-12.052-2.12-25.24-14.04-29.439-11.9-4.207-24.92 2.162-29.08 14.215-4.15 12.053 2.13 25.241 14.04 29.439 11.91 4.207 24.94-2.162 29.08-14.215z" fill="#fff"/><path d="M1445.52 128.881c.8 3.84 2.53 7.329 4.96 10.209 3.66-16.519 18.22-28.872 35.64-28.872-.35-.467-.71-.901-1.09-1.344a36.667 36.667 0 0 0-6.74-.643c-14.38.009-26.81 8.422-32.77 20.65z" fill="#0046B4"/><path d="M1457.6 144.757a22.513 22.513 0 0 0 10.25 2.462c12.61 0 22.83-10.35 22.83-23.12 0-4.374-1.2-8.464-3.28-11.945-15.85 2.897-28.15 16.151-29.8 32.603zM1473.72 105.603c3.21 0 6.32.425 9.28 1.21-4.03-3.623-9.34-5.834-15.16-5.834-10.88 0-19.98 7.712-22.27 18.029 6.72-8.189 16.83-13.405 28.15-13.405z" fill="#46B400"/></g><defs><linearGradient id="paint0_linear" x1="1257.65" y1="202.46" x2="1257.65" y2="172.817" gradientUnits="userSpaceOnUse"><stop offset=".003" stop-color="#C2B69C"/><stop offset=".505" stop-color="#E3DFD7"/><stop offset=".797" stop-color="#E6E6E6"/></linearGradient><linearGradient id="paint1_linear" x1="1256.92" y1="199.021" x2="1267.66" y2="217.612" gradientUnits="userSpaceOnUse"><stop stop-color="#E3DFD7"/><stop offset=".997" stop-color="#C2B69C"/></linearGradient><linearGradient id="paint2_linear" x1="1254.16" y1="222.993" x2="1294.32" y2="222.993" gradientUnits="userSpaceOnUse"><stop offset=".005" stop-color="#CCC1AB"/><stop offset=".182" stop-color="#D0C6B4"/><stop offset=".488" stop-color="#D3CBBC"/><stop offset=".997" stop-color="#D4CDBF"/></linearGradient><linearGradient id="paint3_linear" x1="1221.73" y1="200.632" x2="1234.45" y2="200.632" gradientUnits="userSpaceOnUse"><stop stop-color="#E3DFD7"/><stop offset=".997" stop-color="#C2B69C"/></linearGradient><linearGradient id="paint4_linear" x1="1233.11" y1="222.826" x2="1233.11" y2="203.31" gradientUnits="userSpaceOnUse"><stop offset=".003" stop-color="#C2B69C"/><stop offset="1" stop-color="#E3DFD7"/></linearGradient><linearGradient id="paint5_linear" x1="1235.11" y1="225.961" x2="1260.59" y2="225.961" gradientUnits="userSpaceOnUse"><stop offset=".003" stop-color="#C2B69C"/><stop offset="1" stop-color="#E3DFD7"/></linearGradient><linearGradient id="paint6_linear" x1="1245.3" y1="215.98" x2="1310.09" y2="215.98" gradientUnits="userSpaceOnUse"><stop offset=".003" stop-color="#389CC7"/><stop offset="1" stop-color="#2E7EC9"/></linearGradient><linearGradient id="paint7_linear" x1="1274.32" y1="205.657" x2="1306.49" y2="205.657" gradientUnits="userSpaceOnUse"><stop offset=".003" stop-color="#389CC7"/><stop offset="1" stop-color="#2E7EC9"/></linearGradient><linearGradient id="paint8_linear" x1="1277.42" y1="212.705" x2="1262.93" y2="223.55" gradientUnits="userSpaceOnUse"><stop stop-color="#2E7EC9"/><stop offset=".997" stop-color="#389CC7"/></linearGradient><linearGradient id="paint9_linear" x1="1190.63" y1="197.176" x2="1202.66" y2="197.176" gradientUnits="userSpaceOnUse"><stop stop-color="#E3DFD7"/><stop offset=".997" stop-color="#C2B69C"/></linearGradient><linearGradient id="paint10_linear" x1="1190.54" y1="206.862" x2="1217.99" y2="206.862" gradientUnits="userSpaceOnUse"><stop stop-color="#E3DFD7"/><stop offset=".997" stop-color="#C2B69C"/></linearGradient><linearGradient id="paint11_linear" x1="1199.15" y1="207.919" x2="1221.93" y2="207.919" gradientUnits="userSpaceOnUse"><stop offset=".203" stop-color="#E6E6E6"/><stop offset=".495" stop-color="#E3DFD7"/><stop offset=".997" stop-color="#C2B69C"/></linearGradient><linearGradient id="paint12_linear" x1="1218.31" y1="228.998" x2="1218.31" y2="211.44" gradientUnits="userSpaceOnUse"><stop stop-color="#E3DFD7"/><stop offset=".997" stop-color="#C2B69C"/></linearGradient><linearGradient id="paint13_linear" x1="1203.49" y1="199.059" x2="1212.27" y2="199.059" gradientUnits="userSpaceOnUse"><stop offset=".203" stop-color="#E6E6E6"/><stop offset=".495" stop-color="#E3DFD7"/><stop offset=".997" stop-color="#D4CDBF"/></linearGradient><linearGradient id="paint14_linear" x1="1224.07" y1="226.57" x2="1227.42" y2="226.57" gradientUnits="userSpaceOnUse"><stop stop-color="#E3DFD7"/><stop offset=".997" stop-color="#C2B69C"/></linearGradient><linearGradient id="paint15_linear" x1="1171.35" y1="197.147" x2="1185.95" y2="197.147" gradientUnits="userSpaceOnUse"><stop stop-color="#E3DFD7"/><stop offset=".997" stop-color="#C2B69C"/></linearGradient><linearGradient id="paint16_linear" x1="1161.44" y1="185.134" x2="1187.05" y2="185.134" gradientUnits="userSpaceOnUse"><stop offset=".203" stop-color="#E6E6E6"/><stop offset=".495" stop-color="#E3DFD7"/><stop offset=".997" stop-color="#C2B69C"/></linearGradient><linearGradient id="paint17_linear" x1="1168.82" y1="177.391" x2="1173.93" y2="177.391" gradientUnits="userSpaceOnUse"><stop offset=".203" stop-color="#E6E6E6"/><stop offset=".495" stop-color="#E3DFD7"/><stop offset=".997" stop-color="#D4CDBF"/></linearGradient></defs></svg>