<svg width="1600" height="400" fill="none" xmlns="http://www.w3.org/2000/svg" viewBox="0 0 1600 400"><g filter="url(#filter0_d)"><path fill="#F5FCFF" d="M1600 0H0v400h1600z"/></g><path d="M1283.55 341.9c126.22 0 228.55-38.257 228.55-85.45 0-47.193-102.33-85.45-228.55-85.45-126.22 0-228.55 38.257-228.55 85.45 0 47.193 102.33 85.45 228.55 85.45z" fill="#004EBB"/><path d="M1317.19 304.022L1214.28 324l10.9-57.511 103.51-56.905 101.92 55.743c3 1.642 2.69 6.053-.52 7.255l-88.68 33.257-24.22-1.817z" fill="#0032A5"/><path fill-rule="evenodd" clip-rule="evenodd" d="M1196 41.652c0-1.92 1.03-3.7 2.72-4.713a5.903 5.903 0 0 1 5.57-.25c20.72 9.954 74.51 35.799 94.48 45.405 4.94 2.374 8.94 6.248 11.37 11.03 6.37 12.497 19.12 37.51 24.58 48.241a23.555 23.555 0 0 1 2.59 10.737v152.379c0 1.92-1.02 3.7-2.71 4.712a5.923 5.923 0 0 1-5.58.252c-24.65-11.861-97.36-46.837-123.51-59.425-5.83-2.799-9.51-8.545-9.51-14.828V41.652z" fill="#E7F3FF"/><path fill-rule="evenodd" clip-rule="evenodd" d="M1221.15 191.818v4.768c0 1.704 1.12 3.624 2.5 4.287l86.01 41.545c1.38.663 2.5-.174 2.5-1.878v-4.768c0-1.703-1.12-3.623-2.5-4.287l-86.01-41.545c-1.38-.663-2.5.182-2.5 1.878zm0-24.581v4.768c0 1.704 1.12 3.624 2.5 4.287l86.01 41.545c1.38.663 2.5-.174 2.5-1.878v-4.768c0-1.703-1.12-3.623-2.5-4.286l-86.01-41.546c-1.38-.663-2.5.182-2.5 1.878zm0-25.956v4.768c0 1.704 1.12 3.623 2.5 4.287l86.01 41.545c1.38.663 2.5-.175 2.5-1.878v-4.768c0-1.704-1.12-3.623-2.5-4.287l-86.01-41.545c-1.38-.663-2.5.182-2.5 1.878z" fill="#6589AC"/><path fill-rule="evenodd" clip-rule="evenodd" d="M1334.24 309.389c.12-.063.24-.125.35-.195 1.69-1.013 2.72-2.793 2.72-4.713V152.102c0-3.721-.89-7.4-2.59-10.737-5.47-10.73-18.22-35.744-24.58-48.24-2.44-4.782-6.43-8.657-11.38-11.03-19.96-9.607-73.75-35.451-94.47-45.407a5.9 5.9 0 0 0-5.03-.034l10.37-5.006a5.909 5.909 0 0 1 5.24-.07c20.71 9.955 74.5 35.8 94.48 45.406 4.94 2.374 8.93 6.248 11.37 11.03 6.37 12.497 19.11 37.511 24.58 48.241a23.683 23.683 0 0 1 2.59 10.737v152.379c0 1.92-1.03 3.7-2.71 4.713-.12.069-.25.139-.37.202l-.01.007c-.05.028-.11.049-.16.077l-10.4 5.019zM1199.08 36.737l.01-.007-.01.007z" fill="#A6C8EB"/><path fill-rule="evenodd" clip-rule="evenodd" d="M1300.73 295.839v-23.994c0-16.755-24.37-17.579-24.37-17.579s-.03-9.795 0-16.182c.06-12.399-25.6-16.029-25.66-4.098-.07 15.316 0 37.6 0 37.6l50.03 24.253z" fill="#BED4EB"/><path fill-rule="evenodd" clip-rule="evenodd" d="M1245.29 280.416v4.971c0 5.02-7.85 9.09-17.52 9.09h-.11c-9.62-.035-17.41-4.091-17.41-9.09v-4.971c0 5.02 7.85 9.09 17.52 9.09s17.52-4.07 17.52-9.09z" fill="#E8B300"/><path fill-rule="evenodd" clip-rule="evenodd" d="M1227.77 271.328c9.67 0 17.52 4.07 17.52 9.089 0 5.02-7.85 9.09-17.52 9.09s-17.52-4.07-17.52-9.09c-.01-5.012 7.85-9.089 17.52-9.089z" fill="#FFF0A6"/><path fill-rule="evenodd" clip-rule="evenodd" d="M1246.43 274.371v4.971c0 5.019-7.86 9.089-17.53 9.089h-.11c-9.62-.035-17.41-4.091-17.41-9.089v-4.971c0 5.02 7.85 9.09 17.52 9.09 9.68 0 17.53-4.07 17.53-9.09z" fill="#E8B300"/><path fill-rule="evenodd" clip-rule="evenodd" d="M1228.9 265.282c9.68 0 17.53 4.07 17.53 9.09 0 5.019-7.86 9.089-17.53 9.089-9.67 0-17.52-4.07-17.52-9.089 0-5.013 7.85-9.09 17.52-9.09z" fill="#FFF0A6"/><path fill-rule="evenodd" clip-rule="evenodd" d="M1244.57 267.697v4.971c0 5.019-7.85 9.089-17.52 9.089h-.11c-9.62-.034-17.41-4.091-17.41-9.089v-4.971c0 5.02 7.85 9.09 17.52 9.09s17.52-4.07 17.52-9.09z" fill="#E8B300"/><path fill-rule="evenodd" clip-rule="evenodd" d="M1227.05 258.607c9.67 0 17.52 4.07 17.52 9.09 0 5.019-7.85 9.09-17.52 9.09s-17.52-4.071-17.52-9.09c0-5.02 7.84-9.09 17.52-9.09z" fill="#FFF0A6"/><path fill-rule="evenodd" clip-rule="evenodd" d="M1245.7 261.7v4.971c0 5.019-7.85 9.089-17.52 9.089h-.11c-9.62-.035-17.41-4.091-17.41-9.089V261.7c0 5.02 7.85 9.09 17.52 9.09s17.52-4.07 17.52-9.09z" fill="#E8B300"/><path fill-rule="evenodd" clip-rule="evenodd" d="M1228.18 252.611c9.67 0 17.52 4.07 17.52 9.089 0 5.02-7.85 9.09-17.52 9.09s-17.53-4.07-17.53-9.09c0-5.019 7.86-9.089 17.53-9.089z" fill="#FFF0A6"/><path fill-rule="evenodd" clip-rule="evenodd" d="M1243.46 256.786v4.97c0 5.02-7.85 9.09-17.52 9.09h-.11c-9.63-.035-17.42-4.091-17.42-9.09v-4.97c0 5.019 7.86 9.089 17.53 9.089 9.67 0 17.52-4.077 17.52-9.089z" fill="#E8B300"/><path fill-rule="evenodd" clip-rule="evenodd" d="M1225.94 247.696c9.67 0 17.52 4.07 17.52 9.089 0 5.02-7.85 9.09-17.52 9.09-9.68 0-17.53-4.07-17.53-9.09 0-5.019 7.85-9.089 17.53-9.089z" fill="#FFF0A6"/><path fill-rule="evenodd" clip-rule="evenodd" d="M1244.59 250.74v4.971c0 5.019-7.86 9.089-17.52 9.089h-.12c-9.62-.028-17.41-4.091-17.41-9.089v-4.971c0 5.02 7.86 9.09 17.53 9.09 9.66 0 17.52-4.077 17.52-9.09z" fill="#E8B300"/><path fill-rule="evenodd" clip-rule="evenodd" d="M1227.07 241.65c9.67 0 17.52 4.07 17.52 9.09 0 5.019-7.86 9.089-17.52 9.089-9.67 0-17.53-4.07-17.53-9.089 0-5.02 7.85-9.09 17.53-9.09z" fill="#FFF0A6"/><path fill-rule="evenodd" clip-rule="evenodd" d="M1242.73 244.058v4.971c0 5.019-7.85 9.089-17.52 9.089h-.11c-9.62-.035-17.41-4.091-17.41-9.089v-4.971c0 5.02 7.85 9.09 17.52 9.09s17.52-4.07 17.52-9.09z" fill="#E8B300"/><path fill-rule="evenodd" clip-rule="evenodd" d="M1225.21 234.977c9.67 0 17.52 4.07 17.52 9.09 0 5.019-7.85 9.089-17.52 9.089-9.68 0-17.52-4.07-17.52-9.089-.01-5.02 7.84-9.09 17.52-9.09z" fill="#FFF0A6"/><path fill-rule="evenodd" clip-rule="evenodd" d="M1243.87 238.062v4.971c0 5.019-7.86 9.089-17.52 9.089h-.12c-9.62-.035-17.41-4.091-17.41-9.089v-4.971c0 5.02 7.86 9.09 17.53 9.09 9.66 0 17.52-4.07 17.52-9.09z" fill="#E8B300"/><path fill-rule="evenodd" clip-rule="evenodd" d="M1226.34 228.973c9.68 0 17.52 4.07 17.52 9.089 0 5.02-7.85 9.09-17.52 9.09s-17.52-4.07-17.52-9.09c0-5.019 7.85-9.089 17.52-9.089z" fill="#FFF0A6"/><path fill-rule="evenodd" clip-rule="evenodd" d="M1245 232.023v4.971c0 5.02-7.85 9.09-17.52 9.09h-.11c-9.62-.035-17.41-4.091-17.41-9.09v-4.971c0 5.02 7.85 9.09 17.52 9.09 9.67-.007 17.52-4.077 17.52-9.09z" fill="#E8B300"/><path fill-rule="evenodd" clip-rule="evenodd" d="M1227.48 222.934c9.67 0 17.52 4.07 17.52 9.089 0 5.02-7.85 9.09-17.52 9.09s-17.52-4.07-17.52-9.09c-.01-5.019 7.84-9.089 17.52-9.089z" fill="#FFF0A6"/><path fill-rule="evenodd" clip-rule="evenodd" d="M1243.87 225.342v4.971c0 5.019-7.86 9.089-17.52 9.089h-.12c-9.62-.034-17.41-4.091-17.41-9.089v-4.971c0 5.02 7.86 9.09 17.53 9.09 9.66 0 17.52-4.07 17.52-9.09z" fill="#E8B300"/><path fill-rule="evenodd" clip-rule="evenodd" d="M1226.34 216.252c9.68 0 17.52 4.071 17.52 9.09s-7.85 9.09-17.52 9.09-17.52-4.071-17.52-9.09c0-5.013 7.85-9.09 17.52-9.09z" fill="#FFF0A6"/><path fill-rule="evenodd" clip-rule="evenodd" d="M1245 218.563v4.971c0 5.019-7.85 9.089-17.52 9.089h-.11c-9.62-.035-17.41-4.091-17.41-9.089v-4.971c0 5.019 7.85 9.09 17.52 9.09s17.52-4.077 17.52-9.09z" fill="#E8B300"/><path fill-rule="evenodd" clip-rule="evenodd" d="M1227.48 209.474c9.67 0 17.52 4.07 17.52 9.09 0 5.019-7.85 9.089-17.52 9.089s-17.52-4.07-17.52-9.089c-.01-5.02 7.84-9.09 17.52-9.09z" fill="#FFF0A6"/><path fill-rule="evenodd" clip-rule="evenodd" d="M1212.36 219.095a4.757 4.757 0 0 1-.03-.538c0-4.335 6.78-7.854 15.15-7.854 8.36 0 15.15 3.519 15.15 7.854 0 .182-.02.356-.04.538-.53-4.084-7.1-7.324-15.11-7.324-8.02.007-14.59 3.24-15.12 7.324zM1278.69 300.411v4.971c0 5.019-7.86 9.089-17.52 9.089h-.12c-9.62-.035-17.41-4.091-17.41-9.089v-4.971c0 5.02 7.86 9.09 17.53 9.09 9.66 0 17.52-4.077 17.52-9.09z" fill="#F8CB00"/><path fill-rule="evenodd" clip-rule="evenodd" d="M1261.16 291.322c9.67 0 17.52 4.07 17.52 9.09 0 5.019-7.85 9.089-17.52 9.089s-17.53-4.07-17.53-9.089c0-5.02 7.86-9.09 17.53-9.09z" fill="#FFF0A6"/><path fill-rule="evenodd" clip-rule="evenodd" d="M1276.44 295.489v4.971c0 5.019-7.86 9.09-17.53 9.09h-.11c-9.62-.028-17.41-4.091-17.41-9.09v-4.971c0 5.02 7.86 9.09 17.52 9.09 9.67 0 17.53-4.07 17.53-9.09z" fill="#F8CB00"/><path fill-rule="evenodd" clip-rule="evenodd" d="M1258.91 286.4c9.67 0 17.53 4.07 17.53 9.089 0 5.02-7.86 9.09-17.53 9.09-9.66 0-17.52-4.07-17.52-9.09-.01-5.012 7.85-9.089 17.52-9.089z" fill="#FFF0A6"/><path fill-rule="evenodd" clip-rule="evenodd" d="M1277.57 289.451v4.97c0 5.02-7.85 9.09-17.52 9.09h-.11c-9.62-.035-17.41-4.091-17.41-9.09v-4.97c0 5.019 7.85 9.089 17.52 9.089s17.52-4.077 17.52-9.089z" fill="#F8CB00"/><path fill-rule="evenodd" clip-rule="evenodd" d="M1260.05 280.361c9.67 0 17.52 4.07 17.52 9.09 0 5.019-7.85 9.089-17.52 9.089-9.68 0-17.52-4.07-17.52-9.089 0-5.02 7.84-9.09 17.52-9.09z" fill="#FFF0A6"/><path fill-rule="evenodd" clip-rule="evenodd" d="M1275.71 282.77v4.971c0 5.019-7.85 9.089-17.52 9.089h-.11c-9.62-.028-17.41-4.091-17.41-9.089v-4.971c0 5.02 7.85 9.09 17.52 9.09s17.52-4.07 17.52-9.09z" fill="#F8CB00"/><path fill-rule="evenodd" clip-rule="evenodd" d="M1258.19 273.68c9.67 0 17.52 4.07 17.52 9.09 0 5.019-7.85 9.089-17.52 9.089-9.68 0-17.52-4.07-17.52-9.089 0-5.013 7.84-9.09 17.52-9.09z" fill="#FFF0A6"/><path fill-rule="evenodd" clip-rule="evenodd" d="M1276.85 276.773v4.971c0 5.019-7.85 9.089-17.52 9.089h-.11c-9.62-.035-17.41-4.091-17.41-9.089v-4.971c0 5.019 7.85 9.09 17.52 9.09s17.52-4.071 17.52-9.09z" fill="#F8CB00"/><path fill-rule="evenodd" clip-rule="evenodd" d="M1259.32 267.683c9.67 0 17.53 4.07 17.53 9.09 0 5.019-7.86 9.089-17.53 9.089-9.67 0-17.52-4.07-17.52-9.089 0-5.013 7.85-9.09 17.52-9.09z" fill="#FFF0A6"/><path fill-rule="evenodd" clip-rule="evenodd" d="M1277.98 270.727v4.971c0 5.019-7.85 9.089-17.52 9.089h-.11c-9.62-.035-17.41-4.091-17.41-9.089v-4.971c0 5.02 7.85 9.09 17.52 9.09s17.52-4.07 17.52-9.09z" fill="#F8CB00"/><path fill-rule="evenodd" clip-rule="evenodd" d="M1260.46 261.638c9.67 0 17.52 4.07 17.52 9.089 0 5.02-7.85 9.09-17.52 9.09s-17.52-4.07-17.52-9.09c-.01-5.012 7.84-9.089 17.52-9.089z" fill="#FFF0A6"/><path fill-rule="evenodd" clip-rule="evenodd" d="M1276.85 264.053v4.97c0 5.02-7.85 9.09-17.52 9.09h-.11c-9.62-.035-17.41-4.091-17.41-9.09v-4.97c0 5.019 7.85 9.089 17.52 9.089s17.52-4.07 17.52-9.089z" fill="#F8CB00"/><path fill-rule="evenodd" clip-rule="evenodd" d="M1259.32 254.963c9.67 0 17.53 4.07 17.53 9.09 0 5.019-7.86 9.09-17.53 9.09-9.67 0-17.52-4.071-17.52-9.09 0-5.013 7.85-9.09 17.52-9.09z" fill="#FFF0A6"/><path fill-rule="evenodd" clip-rule="evenodd" d="M1277.98 257.267v4.971c0 5.019-7.85 9.089-17.52 9.089h-.11c-9.62-.035-17.41-4.091-17.41-9.089v-4.971c0 5.02 7.85 9.09 17.52 9.09s17.52-4.07 17.52-9.09z" fill="#F8CB00"/><path fill-rule="evenodd" clip-rule="evenodd" d="M1260.46 248.185c9.67 0 17.52 4.07 17.52 9.089 0 5.02-7.85 9.09-17.52 9.09s-17.52-4.07-17.52-9.09c-.01-5.019 7.84-9.089 17.52-9.089z" fill="#FFF0A6"/><path fill-rule="evenodd" clip-rule="evenodd" d="M1245.35 257.805a3.193 3.193 0 0 1-.04-.538c0-4.335 6.79-7.853 15.15-7.853s15.15 3.518 15.15 7.853c0 .182-.02.357-.04.538-.53-4.084-7.1-7.323-15.11-7.323-8.01.007-14.58 3.239-15.11 7.323zM1233.71 309.55v4.97c0 5.02-7.85 9.09-17.52 9.09h-.11c-9.62-.035-17.41-4.091-17.41-9.09v-4.97c0 5.019 7.85 9.089 17.52 9.089s17.52-4.07 17.52-9.089z" fill="#F8CB00"/><path fill-rule="evenodd" clip-rule="evenodd" d="M1216.19 300.46c9.67 0 17.52 4.07 17.52 9.09 0 5.019-7.85 9.089-17.52 9.089s-17.52-4.07-17.52-9.089c0-5.013 7.84-9.09 17.52-9.09z" fill="#FFF0A6"/><path fill-rule="evenodd" clip-rule="evenodd" d="M1232.58 303.532v4.97c0 5.02-7.85 9.09-17.52 9.09h-.11c-9.62-.035-17.41-4.091-17.41-9.09v-4.97c0 5.019 7.85 9.089 17.52 9.089s17.52-4.07 17.52-9.089z" fill="#F8CB00"/><path fill-rule="evenodd" clip-rule="evenodd" d="M1215.06 294.442c9.67 0 17.52 4.07 17.52 9.09 0 5.019-7.85 9.09-17.52 9.09-9.68 0-17.52-4.071-17.52-9.09 0-5.02 7.84-9.09 17.52-9.09z" fill="#FFF0A6"/><path fill-rule="evenodd" clip-rule="evenodd" d="M1233.71 297.486v4.971c0 5.019-7.85 9.09-17.52 9.09h-.11c-9.62-.035-17.41-4.091-17.41-9.09v-4.971c0 5.02 7.85 9.09 17.52 9.09s17.52-4.07 17.52-9.09z" fill="#F8CB00"/><path fill-rule="evenodd" clip-rule="evenodd" d="M1216.19 288.404c9.67 0 17.52 4.07 17.52 9.089 0 5.02-7.85 9.09-17.52 9.09s-17.52-4.07-17.52-9.09c0-5.019 7.84-9.089 17.52-9.089z" fill="#FFF0A6"/><path fill-rule="evenodd" clip-rule="evenodd" d="M1232.58 290.812v4.971c0 5.019-7.85 9.089-17.52 9.089h-.11c-9.62-.035-17.41-4.091-17.41-9.089v-4.971c0 5.02 7.85 9.09 17.52 9.09s17.52-4.07 17.52-9.09z" fill="#F8CB00"/><path fill-rule="evenodd" clip-rule="evenodd" d="M1215.06 281.723c9.67 0 17.52 4.07 17.52 9.089 0 5.02-7.85 9.09-17.52 9.09-9.68 0-17.52-4.07-17.52-9.09-.01-5.012 7.84-9.089 17.52-9.089z" fill="#FFF0A6"/><path fill-rule="evenodd" clip-rule="evenodd" d="M1233.71 284.033v4.971c0 5.019-7.85 9.089-17.52 9.089h-.11c-9.62-.035-17.41-4.091-17.41-9.089v-4.971c0 5.02 7.85 9.09 17.52 9.09s17.52-4.077 17.52-9.09z" fill="#F8CB00"/><path fill-rule="evenodd" clip-rule="evenodd" d="M1216.19 274.944c9.67 0 17.52 4.07 17.52 9.089 0 5.02-7.85 9.09-17.52 9.09s-17.52-4.07-17.52-9.09c0-5.019 7.84-9.089 17.52-9.089z" fill="#FFF0A6"/><path fill-rule="evenodd" clip-rule="evenodd" d="M1201.08 284.564a3.193 3.193 0 0 1-.04-.538c0-4.335 6.79-7.854 15.15-7.854s15.15 3.519 15.15 7.854c0 .182-.02.356-.04.538-.53-4.084-7.1-7.324-15.11-7.324s-14.58 3.24-15.11 7.324z" fill="#F8CB00"/><path d="M1247.35 87.833l-.02 8.147-10.19-5.878-.1 34.746-8.48-4.894.1-34.746-10.03-5.794.03-8.147 28.69 16.566zM1267.63 99.54l11.45 49.589-9.08-5.25-2.85-12.678-10.69-6.172-2.68 9.481-8.76-5.054 11.53-36.317 11.08 6.402zm-9.94 18.934l8.25 4.768-2.29-10.444c-.66-2.932-1.31-6.499-1.87-9.362l-.11-.062c-.56 2.227-1.13 5.152-1.74 7.281l-2.24 7.819zM1311.73 125.001l-10.59 14.863 11.01 28.351-9.75-5.627-3.36-9.718c-1.37-3.784-2.26-6.527-3.3-9.613l-.11-.063c-.78 2.039-1.73 3.721-2.9 6.039l-3.12 5.976-9.65-5.564 10.87-15.471-10.36-27.213 9.7 5.599 3.25 9.718c1.1 3.253 1.92 5.83 2.8 8.762 1.01-2.164 1.73-3.658 2.68-5.599l3.18-6.004 9.65 5.564z" fill="#6589AC"/><defs><filter id="filter0_d" x="-4" y="-2" width="1608" height="408" filterUnits="userSpaceOnUse" color-interpolation-filters="sRGB"><feFlood flood-opacity="0" result="BackgroundImageFix"/><feColorMatrix in="SourceAlpha" values="0 0 0 0 0 0 0 0 0 0 0 0 0 0 0 0 0 0 127 0"/><feOffset dy="2"/><feGaussianBlur stdDeviation="2"/><feColorMatrix values="0 0 0 0 0 0 0 0 0 0 0 0 0 0 0 0 0 0 0.08 0"/><feBlend in2="BackgroundImageFix" result="effect1_dropShadow"/><feBlend in="SourceGraphic" in2="effect1_dropShadow" result="shape"/></filter></defs></svg>