<svg width="375" height="156" fill="none" xmlns="http://www.w3.org/2000/svg" viewBox="0 0 375 156"><path d="M375 0H0v156h375V0z" fill="#F5FCFF"/><mask id="a" maskUnits="userSpaceOnUse" x="0" y="0" width="375" height="156"><path transform="matrix(-1 0 0 1 375 0)" fill="#F5FCFF" d="M0 0h375v156H0z"/></mask><g mask="url(#a)"><path d="M481.001-5.706L374.813.097 176.85 20.841l-36.883 21.902 167.705 97.683 140.778 13.258 32.551-159.39z" fill="#00AD00"/><path d="M437.509-7.297S75.41 4.265 51.072 44.358C21.094 93.745 318.26 226.2 318.26 226.2l250.865-59.442s-397.638-99.299-379.744-129.2C208.081 6.31 578.295-2.295 578.295-2.295L437.509-7.297z" fill="#fff"/><path d="M346.422 206.702S52.671 89.192 79.234 44.358C103.14 4.01 465.67-5.998 465.67-5.998l81.019 1.535S176.252 6.173 157.776 37.553c-19.749 33.549 379.745 144.365 379.745 144.365l-191.099 24.784z" fill="#004EBB"/><path d="M325.671 55.067h-2.706v53.134h2.706V55.067z" fill="#5F6464"/><path d="M302.562 46.956l18.716-18.953a4.29 4.29 0 0 1 6.12 0l18.716 18.953a4.423 4.423 0 0 1 0 6.2l-18.716 18.948a4.29 4.29 0 0 1-6.12 0l-18.716-18.949a4.43 4.43 0 0 1 0-6.2z" fill="#fff"/><path d="M304.915 48.482l17.874-18.098a2.17 2.17 0 0 1 3.102 0l17.874 18.098a2.24 2.24 0 0 1 0 3.142l-17.874 18.1a2.17 2.17 0 0 1-3.102 0l-17.874-18.1a2.24 2.24 0 0 1 0-3.142z" fill="#fff"/><path d="M324.34 71.174a2.958 2.958 0 0 1-2.112-.886l-17.874-18.099a3.057 3.057 0 0 1 0-4.276l17.874-18.099a2.94 2.94 0 0 1 2.108-.885c.797 0 1.547.312 2.112.885l17.874 18.1a3.02 3.02 0 0 1 .874 2.135c0 .806-.313 1.567-.874 2.14l-17.874 18.099a2.944 2.944 0 0 1-2.108.886z" fill="#004EBB"/><path d="M332.644 58.442c4.589-4.645 4.589-12.176 0-16.82a11.644 11.644 0 0 0-16.612 0c-4.589 4.644-4.589 12.175 0 16.82a11.644 11.644 0 0 0 16.612 0z" fill="#fff"/><path d="M334.688 53.688c1.996-5.787-1.022-12.119-6.741-14.135-5.715-2.02-11.967 1.038-13.963 6.825-1.996 5.787 1.022 12.12 6.741 14.135 5.719 2.02 11.971-1.038 13.963-6.825z" fill="#fff"/><path d="M313.615 52.33A11.124 11.124 0 0 0 316 57.231c1.755-7.93 8.749-13.862 17.109-13.862-.164-.225-.341-.433-.521-.645a17.606 17.606 0 0 0-3.238-.309c-6.902.004-12.873 4.044-15.735 9.915z" fill="#0046B4"/><path d="M319.419 59.953a10.809 10.809 0 0 0 4.921 1.182c6.056 0 10.961-4.97 10.961-11.101 0-2.1-.577-4.064-1.575-5.735-7.61 1.39-13.514 7.755-14.307 15.654zM327.157 41.153c1.539 0 3.034.204 4.457.581a10.857 10.857 0 0 0-7.278-2.801c-5.226 0-9.594 3.703-10.692 8.656 3.222-3.931 8.079-6.436 13.513-6.436z" fill="#46B400"/></g><g clip-path="url(#clip0)"><path d="M146.36 88.624c-1.171.677-1.171 1.781 0 2.459l95.623 55.266c2.857 1.516 9.107.815 14.55-1.445 3.516-1.459 10.3-5.074 13.546-6.95 3.217-1.862 9.556-5.586 12.342-7.979 2.748-2.354 4.501-6.462-.933-8.945L188.01 66.995c-1.17-.672-3.084-.672-4.255 0L146.36 88.624z" fill="#0032A5"/><path d="M147.776 81.091c-.801.46-2.103.46-2.904 0l-.275-.156c-.801-.46-.801-1.218 0-1.678l29.811-17.212c.796-.46 2.103-.46 2.904 0l.275.156c.8.46.8 1.218 0 1.677l-29.811 17.213z" fill="#62747F"/><path d="M147.776 80.631c-.801.46-2.103.46-2.904 0l-.275-.156c-.801-.46-.801-1.218 0-1.677l29.811-17.213c.796-.46 2.103-.46 2.904 0l.275.156c.8.46.8 1.218 0 1.678L147.776 80.63z" fill="#889AA5"/><path opacity=".1" d="M147.776 87.269c-.801.46-2.103.46-2.904 0l-.275-.157c-.801-.46-.801-1.217 0-1.677l29.811-17.212c.796-.46 2.103-.46 2.904 0l.275.156c.8.46.8 1.218 0 1.677L147.776 87.27z" fill="#000"/><path d="M235.478 122.03l-5.206 6.292-4.951 1.62-.863-1.952-.829-5.349 11.849-.611z" fill="#222B2E"/><path d="M229.087 124.584l3.828-1.758c1.133-.383 2.568-.175 4.127.725 3.676 2.123 6.657 7.282 6.657 11.527 0 2.227-.82 3.757-2.133 4.402l-3.596 1.668c-1.165.497-2.691.326-4.358-.64-3.677-2.123-6.652-7.282-6.652-11.522-.005-2.227.815-3.758 2.127-4.402z" fill="#3B4447"/><path d="M227.542 129.445c0 3.866 2.715 8.57 6.065 10.503 3.35 1.934 6.064.365 6.064-3.501 0-3.866-2.714-8.571-6.064-10.504-3.35-1.937-6.065-.369-6.065 3.502z" fill="#3B4447"/><path d="M229.414 130.809c.052 2.663 1.715 5.577 4.003 6.955 2.033 1.228 4.047.024 3.999-2.331-.047-2.667-1.715-5.576-3.999-6.955-2.032-1.227-4.046-.023-4.003 2.331z" fill="url(#paint0_linear)"/><path d="M229.58 131.004c.047 2.535 1.635 5.311 3.809 6.619 1.938 1.17 3.852.024 3.809-2.222-.047-2.54-1.634-5.307-3.809-6.619-1.938-1.166-3.852-.024-3.809 2.222z" fill="#CCCBCA"/><path opacity=".5" d="M231.764 128.322c-1.047.223-1.8 1.194-1.772 2.601.048 2.507 1.616 5.245 3.762 6.539.824.497 1.649.568 2.312.312-.72.441-1.696.441-2.677-.151-2.175-1.313-3.762-4.084-3.809-6.619-.033-1.597.929-2.634 2.184-2.682z" fill="#fff"/><path d="M231.148 132.131c.024 1.351.872 2.829 2.028 3.525 1.028.621 2.051.014 2.028-1.184-.024-1.351-.867-2.824-2.028-3.525-1.033-.621-2.052-.01-2.028 1.184z" fill="#3B4447"/><path d="M157.911 88.808l.971 2.203 4.941-1.019 5.008-5.008h-12.489l1.569 3.824z" fill="#222B2E"/><path d="M162.634 86.582l3.828-1.758c1.132-.384 2.568-.175 4.127.725 3.676 2.122 6.656 7.282 6.656 11.527 0 2.227-.819 3.757-2.132 4.401l-3.596 1.668c-1.165.498-2.691.327-4.358-.635-3.677-2.122-6.657-7.282-6.657-11.522 0-2.227.824-3.757 2.132-4.406z" fill="#3B4447"/><path d="M161.094 91.443c0 3.866 2.715 8.571 6.065 10.504 3.349 1.933 6.064.364 6.064-3.502 0-3.866-2.715-8.57-6.064-10.503-3.35-1.933-6.065-.365-6.065 3.5z" fill="#3B4447"/><path d="M162.966 92.812c.052 2.663 1.715 5.576 4.003 6.955 2.033 1.227 4.046.024 4.003-2.331-.052-2.668-1.715-5.577-4.003-6.955-2.033-1.227-4.046-.024-4.003 2.33z" fill="url(#paint1_linear)"/><path d="M163.132 93.006c.047 2.535 1.634 5.311 3.809 6.619 1.938 1.17 3.852.024 3.809-2.222-.047-2.54-1.635-5.307-3.809-6.619-1.938-1.17-3.852-.024-3.809 2.222z" fill="#CCCBCA"/><path opacity=".5" d="M165.316 90.325c-1.047.222-1.801 1.194-1.772 2.6.047 2.502 1.615 5.246 3.762 6.539.824.498 1.648.569 2.312.313-.72.44-1.696.44-2.677-.152-2.175-1.312-3.762-4.084-3.809-6.619-.033-1.596.928-2.634 2.184-2.681z" fill="#fff"/><path d="M164.695 94.134c.023 1.35.871 2.829 2.027 3.525 1.028.62 2.052.014 2.028-1.184-.024-1.35-.872-2.829-2.028-3.525-1.028-.621-2.046-.015-2.027 1.184z" fill="#3B4447"/><path d="M146.89 70.184s.445-10.878 1.706-17.137c1.26-6.259 3.33-12.55 4.553-14.403 1.222-1.853 7.737-6.889 10.665-8.514 2.923-1.63 13.365-6.704 14.441-6.813 1.075-.11 3.368 1.038 3.368 1.038l46.554 26.148s10.22 5.96 14.327 9.442c4.113 3.482 10.888 12.811 10.888 12.811l12.404 19.515s4.96 5.297 6.481 7.074c1.521 1.777 5.112 6.406 5.813 8.144.702 1.739.905 6.756.905 6.756s.981.981.981 1.649.739 4.667-2.369 8.922c-3.108 4.259-9.788 7.784-14.697 10.679-4.903 2.894-12.261 4.955-14.564 4.709-1.9-.204-4.956-1.469-5.979-1.909-.436-1.322-1.573-4.264-4.117-8.164-3.506-5.377-7.709-7.121-10.746-6.083-2.392.815-2.316 4.406-2.179 5.894l-49.648-29.327h-.459c-.398-1.569-1.128-3.838-2.445-6.538-2.554-5.231-7.424-8.604-11.006-8.06-2.739.417-2.938 3.544-2.876 4.994-1.113-.763-3.307-2.795-4.998-3.9-1.815-1.184-6.368-4.258-6.7-5.628-.331-1.369-.109-6.481-.109-6.481l-.194-4.818z" fill="#EEF5F9"/><path d="M150.273 46.196a66.41 66.41 0 0 1 1.137-3.572l2.871 1.61s37.96 21.467 55.708 32.08c2.321 1.389 6.661 4.099 7.992 7.287.332.692 1.488 3.459 1.488 3.459l-7.448-4.544L152.68 47.67l-2.407-1.473z" fill="#D00001"/><path d="M147.075 75.007l-.185-4.823s.052-1.299.175-3.255l2.27 1.487 48.591 29.806 25.608 17.393s18.828 11.522 21.856 12.456c3.027.933 8.765-1.303 8.765-1.303l1.052-.1c.71.929 1.265 1.791 1.61 2.341.507.8 1.237 1.345 1.588 1.573.137-.048.26-.09.379-.128l.27.303s-1.398 3.113-1.398 3.146c0 .033-11.721 1.824-11.721 1.824l-5.203-1.294a43.75 43.75 0 0 0-2.482-4.297c-3.506-5.377-7.709-7.121-10.746-6.083a2.667 2.667 0 0 0-1.34 1.023l-27.887-17.009-26.523-15.786c-2.691-4.179-6.841-6.733-9.987-6.254a2.873 2.873 0 0 0-.374.085l-14.384-8.566c.014-1.369.066-2.54.066-2.54z" fill="#E30001"/><path d="M252.482 126.569c.36.071.64.128.796.156.697.133 2.052-.038 3.151-.265.01.009.014.024.019.033.512.886 2.08 3.463 3.98 3.179 1.9-.279 6.472-2.62 8.703-4.117 2.232-1.497 6.126-3.876 6.491-6.799.365-2.923.265-4.292.265-4.292v-.038c1.071-1.417 2.08-2.999 2.753-4.34a54.32 54.32 0 0 1 .351 4.16s.98.98.98 1.649c0 .668.739 4.666-2.369 8.921-3.108 4.259-9.788 7.784-14.696 10.679-2.601 1.535-5.899 2.838-8.761 3.681l-1.663-12.607z" fill="#E30001"/><path opacity=".2" d="M243.556 138.788c.005 0 .005.005.005.005l-.005-.005zM243.561 138.792l.289.114-.289-.114z" fill="#000"/><path opacity=".2" d="M147.075 75.007s-.223 5.108.109 6.481c.332 1.37 4.885 4.445 6.699 5.63 1.692 1.103 3.885 3.136 4.999 3.898-.057-1.45.137-4.577 2.875-4.993 3.582-.545 8.458 2.833 11.006 8.059 1.318 2.696 2.047 4.97 2.445 6.538h.46l49.648 29.327c-.143-1.488-.218-5.074 2.179-5.894 3.042-1.037 7.239.711 10.745 6.084 2.545 3.899 3.686 6.841 4.118 8.163.274.118.691.294 1.189.493.019-.095.047-.138.085-.124l-2.393-8.532c-.014-.034-1.843-4.648-7.083-7.875-1.696-1.047-3.335-1.573-4.87-1.573-2.165 0-3.373 1.076-3.383 1.09l-.08.071-52.794-30.483-.019-.047c-.019-.048-1.834-4.563-6.354-7.031-1.738-.948-3.354-1.431-4.804-1.431-1.35 0-2.056.436-2.065.44l-.076.048-12.655-7.837c0-.056.005-.113.005-.16l12.65 7.826s2.397-1.54 7.016.986c4.625 2.525 6.42 7.102 6.42 7.102l52.666 30.393s3.08-2.824 8.429.469c5.349 3.297 7.144 7.96 7.144 7.96l2.469 8.817c1.359.526 3.193 1.16 4.486 1.298 2.303.246 9.661-1.815 14.565-4.71 4.903-2.894 11.584-6.419 14.696-10.679 3.108-4.259 2.369-8.258 2.369-8.921 0-.668-.98-1.649-.98-1.649s-.086-2.174-.351-4.16c-.678 1.341-1.682 2.919-2.753 4.34v.038s.1 1.369-.265 4.293c-.365 2.923-4.259 5.301-6.491 6.798-2.231 1.498-6.803 3.838-8.703 4.118-1.9.279-3.468-2.298-3.98-3.18-.005-.009-.01-.023-.019-.033-1.099.232-2.454.403-3.151.266-1.028-.199-7.045-1.374-7.391-2.033-.346-.654-10.726-10.821-11.432-11.589-.706-.767-1.142-1.852-1.142-1.852s-13.484-26.485-15.422-30.938c-1.866-4.278-4.657-7.32-7.192-8.765-18.15-10.371-54.504-31.72-55.745-32.492-.706-.436-1.194-.63-1.777-.45l-.033.047c-1.222 1.852-3.297 8.144-4.553 14.403-1.26 6.254-1.701 17.132-1.701 17.132l.185 4.823zm3.534-10.906s1.81-8.348 2.35-11.404c.157-.882.583-1.294 1.081-1.455-.289.237-.517.616-.621 1.208-.54 3.056-2.35 11.404-2.35 11.404s-.507 1.677.9 2.464c1.412.786 50.704 30.038 50.704 30.038s.74.237 1.483-.038c-.867.63-1.942.284-1.942.284s-49.293-29.251-50.704-30.038c-1.412-.786-.901-2.463-.901-2.463zm61.412 18.42l-.085.147-59.351-34.847.085-.146 59.351 34.846zm5.226 22.245c-1.947-1.54-5.245-3.165-5.823-7.245-.578-4.084-.095-11.086-.095-11.086l21.752 28.512 10.447 9.391-9.651-7.301s-14.683-10.732-16.63-12.271zm-68.031-35.932l.114-.417v.488l48.288 29.654 25.911 17.056-26.408-15.81L149.33 71.34v-2.435l-.114-.071zm26.575 31.312l.085-.147 48.435 28.479-.085.147-48.435-28.479z" fill="#000"/><path d="M227.5 124.048c-.948.323-1.507 1.076-1.829 1.962l-1.625-1.199-50.444-28.905a36.543 36.543 0 0 0-.834-1.824 17.755 17.755 0 0 0-2.099-3.303l2.478.493 52.666 30.393 2.18 2.246a4.675 4.675 0 0 0-.493.137zM161.757 86.017c-1.132.171-1.828.806-2.25 1.597l-8.557-5.543.166 3.15c-1.829-1.321-3.724-2.866-3.932-3.733-.28-1.156-.166-4.965-.123-6.135l12.65 7.826 2.335 2.805c-.099.01-.194.02-.289.033z" fill="#404B4D"/><path opacity=".2" d="M149.33 68.417l48.591 29.806 25.608 17.392-25.906-17.056-48.407-29.725.114-.417zM154.281 44.23s2.492 1.88 6.576 4.24c14.896 8.6 35.203 19.96 49.132 28.29 2.321 1.388 6.732 4.122 7.992 6.837-1.336-3.189-5.675-5.899-7.992-7.287-17.748-10.613-55.708-32.08-55.708-32.08zM152.738 47.573l-.086.147 59.407 34.748.086-.147-59.407-34.748zM259.646 130.127c-.199.08-.616.237-1.241.45-.346-.228-1.08-.773-1.587-1.573-.683-1.085-2.185-3.388-4.07-5.022-1.194-1.033-10.286-7.78-10.286-7.78s8.23 5.714 10.106 7.116c1.99 1.488 3.226 3.089 3.705 3.81l.004.004c1.09 1.772 2.222 2.772 3.369 2.995 0 0 0 .004 0 0zM276.375 114.454a.926.926 0 0 0-.137-.497c-.076-1.644-.123-3.326-.881-5.117-.763-1.791-5.089-9.642-5.089-9.642s5.003 8.68 5.544 9.964c.54 1.284 1.032 5.723 1.032 5.723l-.454.356c.004-.446-.01-.706-.015-.787z" fill="#000"/><path d="M241.216 82.46c5.524-3.118 9.802-6.719 12.152-9.732.014.019.019.029.019.029l12.404 19.515s.066.07.175.19c0 0 2.033 3.913-10.973 11.953-13.01 8.045-19.927 6.969-19.927 6.969l-10.499-21.022c.005.005 9.528-3.88 16.649-7.902z" fill="#141C1E"/><path d="M241.457 82.886c4.961-2.8 9.239-6.169 11.869-9.324l11.716 18.435-.184.587c-.318.621-.664 2.706-12.172 9.822-10.139 6.268-13.015 6.728-15.587 7.22l-1.284.067c-.261 0-1.024-.147-1.161-.157l-9.414-18.918c2.032-.853 10.058-4.26 16.217-7.732z" fill="#303E42"/><path d="M231.963 101.956c.426 0 .947-.114 1.53-.351 2.09-.843 4.259-2.956 4.847-4.719.422-1.27-.09-2.009-1.189-2.009-.427 0-.943.114-1.531.351-2.089.843-4.259 2.956-4.846 4.719-.427 1.265.09 2.009 1.189 2.009zm-.351-1.73c.507-1.52 2.492-3.434 4.34-4.178.578-.233.971-.285 1.199-.285.232 0 .369.052.407.105.043.061.09.293-.061.739-.507 1.52-2.493 3.43-4.34 4.179-.583.236-.972.284-1.199.284-.232 0-.369-.052-.407-.104-.043-.062-.086-.294.061-.74z" fill="#3D4B4F"/><path d="M213.443 85.075s-2.189-1.668-2.123.89c.066 2.563.284 7.363.54 9.168.251 1.805.825 3.69 3.184 5.577 2.359 1.885 18.099 14.355 18.099 14.355l-5.596-12.252s-4.449-9.182-5.695-11.205c-1.25-2.018-8.409-6.533-8.409-6.533z" fill="#141C1E"/><path d="M227.135 109.693c-1.582-1.256-3.288-2.606-4.908-3.89V93.286c1.715 3.221 4.842 9.67 4.875 9.736l.033.071v6.6zM211.974 85.084c.019-.019.057-.057.171-.057.312 0 .781.266 1.004.436l.019.014.019.01c1.966 1.241 7.282 4.8 8.253 6.382.062.1.133.218.209.35v13.119a3577.78 3577.78 0 0 1-6.302-5.003c-2.245-1.795-2.771-3.591-3.008-5.263-.247-1.768-.464-6.482-.536-9.111-.018-.635.124-.834.171-.877z" fill="#303E42"/><g opacity=".7" fill="#C5D0D3"><path opacity=".7" d="M254.482 85.345l-7.604-5.941c2.459-1.791 4.567-3.672 6.145-5.491l1.459 11.432zM253.657 74.083l4.179 6.571c.564 3.34 1.441 8.439 1.441 8.439l-4.179-3.265-1.441-11.745z"/></g><path d="M252.686 102.401c-10.139 6.268-13.015 6.728-15.587 7.221l-1.284.066c-.261 0-1.024-.147-1.161-.156l-2.341-4.752c2.616-2.132 7.643-5.942 13.015-8.837 6.434-3.468 14.636-7.239 14.636-7.239 2.207.303 5.074 3.288 5.074 3.288l-.185.588c-.313.62-.659 2.705-12.167 9.821z" fill="#39464A"/><path d="M238.927 97.09s4.184 4.875 3.966 5.87c-.218.995-5.112 3.814-6.761 3.857-1.644.042-5.164-4.089-5.183-4.776-.019-.682 2.951-5.065 7.978-4.95z" fill="#3D4B4F"/><path opacity=".2" d="M253.326 73.557l11.716 18.435-.184.587c-.185.36-.379 1.218-2.772 3.27a52.475 52.475 0 0 0-20.358-13.124c4.846-2.767 9.016-6.07 11.598-9.168z" fill="#fff"/><path opacity=".2" d="M204.715 95.347c.744-2.07 2.469-11.632 2.469-12.532 0-.9-.507-1.724-1.763-2.43-1.255-.706-49.306-28.584-49.306-28.584s-1.535-.843-2.559-.294c1.005-.862 2.8.128 2.8.128s48.051 27.878 49.307 28.584c1.255.706 1.762 1.525 1.762 2.43 0 .9-1.724 10.466-2.468 12.532-.232.649-.592 1.033-.971 1.25.284-.231.545-.573.729-1.084z" fill="#000"/><path d="M241.391 130.089l4.961 2.208s1.814.857 6.282-.152c4.146-.933 6.439-1.796 7.012-2.023.166.033.332.052.498.052.118 0 .241-.009.36-.028 2.051-.304 6.718-2.725 8.902-4.193.161-.109.332-.223.512-.341 2.132-1.417 5.268-3.502 6.041-6.108.838-1.113 2.549-3.52 3.032-5.263 0 0 .98.98.98 1.648 0 .669.74 4.667-2.368 8.922-3.108 4.259-9.789 7.784-14.697 10.679-4.904 2.895-12.262 4.956-14.564 4.709-1.9-.203-4.956-1.468-5.979-1.909-.436-1.322-1.573-4.264-4.118-8.163-.052-.076-.104-.152-.151-.228l3.297.19z" fill="#404B4D"/><path d="M256.884 125.157c2.426-1.203 6.889-3.615 9.514-5.164 2.714-1.602 7.978-5.217 8.75-5.714.133-.085.237-.133.327-.156.005.033 0 .052 0 .052s.1 1.369-.265 4.292-4.259 5.302-6.491 6.799c-2.227 1.497-6.803 3.838-8.703 4.117-.545.081-1.057-.076-1.531-.355-.976-.763-1.71-1.985-2.032-2.54-.512-.881.113-1.175.431-1.331z" fill="#1B2628"/><path d="M258.334 128.905c.052.042.099.085.151.128.01.004.015.004.019.009l.062-.27.431.142-.076.332c.062.024.123.047.19.066l.076-.336.431.142-.062.279c.066.005.133.01.199.005l.052-.227.431.142-.004.028c.128-.028.27-.061.417-.099l-.181-.062.109-.478.432.142-.071.313c.071-.024.142-.048.217-.071l.043-.181.246.081c.143-.052.285-.104.436-.161l.086-.389.431.143-.01.047c.114-.047.228-.095.346-.147l-.104-.033.109-.479.431.143-.047.199.227-.1.01-.038.042.014c.09-.038.176-.08.266-.123l-.261-.085.109-.479.431.142-.076.332c.076-.038.152-.071.228-.109l.038-.161.175.057c.085-.043.17-.081.256-.123l-.389-.128.109-.479.431.142-.099.441.227-.114.057-.265.28.09.412-.213.076-.346.355.118c.109-.056.218-.118.322-.175l.09-.412.408.133c.09-.053.175-.1.26-.152l.1-.455.431.142c.08-.047.156-.094.232-.142l.104-.469.422.137c.085-.052.166-.108.246-.161l.1-.45.384.128c.094-.066.194-.128.293-.194l.09-.398.341.114.351-.237.076-.346.289.095c.137-.1.279-.199.421-.299l.057-.265.214.071c.066-.047.127-.095.194-.147l-.36-.118.109-.479.431.142-.085.389c.08-.062.165-.123.246-.19l.033-.142.104.033c.062-.047.124-.099.185-.147l-.246-.08.109-.479.431.142-.048.218c.128-.104.252-.213.375-.322l-.09-.028.104-.479.393.128c.104-.099.209-.203.308-.308l.066-.289.157.052c.047-.052.099-.109.142-.161l-.261-.085.109-.479.432.143-.024.118c.099-.128.199-.261.289-.388l.076-.342.118.038c.038-.057.071-.113.104-.175l-.18-.057.109-.478.299.094c.028-.061.052-.123.08-.184l-.331-.109.109-.479.383.128c.019-.066.034-.128.048-.194l-.384-.128.109-.479.36.119c.009-.066.014-.133.024-.199l-.337-.109.109-.479.289.095c.005-.066.015-.137.019-.199l-.265-.085.109-.479.204.067c.004-.071.014-.138.019-.204l-.18-.057.104-.474.109.038.014-.204-.081-.028.1-.445h.005c.019-.455.023-.796.019-1.028l-.029.127-.431-.142.043-.194-.422.28.147.047-.1.445-.431-.142.024-.113c-.104.071-.213.142-.327.222l.071.024-.099.445-.432-.142.005-.024c-.08.053-.156.105-.237.162l-.104.469-.398-.133a8.054 8.054 0 0 0-.279.189l-.09.413-.356-.119c-.109.076-.222.147-.336.223l-.081.36-.312-.1-.389.261-.071.313-.27-.09c-.147.094-.289.194-.436.289l-.062.27-.236-.076c-.071.047-.143.095-.214.137l.403.133-.109.479-.431-.143.099-.45c-.08.052-.156.105-.236.157l-.053.232-.203-.067a5.117 5.117 0 0 1-.213.138l.374.123-.109.479-.431-.143.094-.417c-.08.053-.156.105-.236.152l-.048.204-.18-.057c-.071.047-.147.09-.218.137l.351.114-.109.479-.431-.143.085-.388c-.081.052-.161.099-.237.147l-.038.18-.161-.052c-.076.047-.147.09-.218.137l.337.109-.105.479-.431-.142.085-.38c-.08.048-.156.1-.236.147l-.038.171-.157-.052c-.076.047-.151.09-.222.132l.336.109-.109.479-.431-.142.085-.379c-.042.023-.085.052-.123.076-.038.019-.071.042-.109.061l-.043.18-.17-.057c-.076.043-.152.09-.228.133l.356.118-.109.479-.431-.142.09-.403c-.076.043-.152.09-.232.133l-.048.208-.199-.066c-.076.043-.151.085-.232.133l.388.128-.108.478-.432-.142.1-.436-.232.133-.052.241-.237-.08c-.076.042-.157.085-.232.132l.426.143-.109.478-.431-.142.109-.479-.232.128-.062.285-.284-.09-.412.227-.076.336-.332-.109c-.114.062-.232.128-.35.19l-.086.388-.388-.127-.28.151-.099.446-.431-.143.004-.019c-.09.048-.18.095-.265.143l.028.009-.109.479-.431-.143.019-.085-.35.185.099.033-.109.479-.431-.143.033-.156c-.147.076-.294.156-.44.232l.17.057-.109.479-.431-.142.052-.233c-.076.038-.151.081-.232.119l-.009.047-.053-.019c-.085.043-.165.086-.246.128l.256.085-.109.479-.431-.142.071-.313c-.081.038-.157.081-.228.119l-.028.132-.137-.047c-.086.042-.166.085-.247.128l.341.113-.109.479-.431-.142.09-.398-.227.114-.048.222-.236-.08c-.015.009-.029.014-.048.023-.057.029-.128.062-.199.105l.441.142-.109.478-.711-.232a.587.587 0 0 0-.042.194l.71.233-.109.478-.455-.152c.015.029.024.053.043.081.033.052.066.114.104.175l.266.086-.057.255c.047.076.099.152.151.233l.095-.427.431.142-.109.479-.365-.119c.062.09.124.18.19.27l.137.043-.023.109c.052.066.104.137.156.204l.057-.251.431.142-.109.478-.095-.033c.09.104.185.204.28.299l.393.128-.047.232zm-.81-1.403l.109-.478.431.142-.109.478-.431-.142zm.066-1.217l-.109.478-.431-.142.109-.478.431.142zm.151-.673l-.108.478-.432-.142.109-.478.431.142zm.47.876l-.109.479-.432-.142.109-.479.432.142zm.151-.672l-.109.478-.431-.142.109-.478.431.142zm.038.734l.431.142-.109.479-.431-.142.109-.479zm.109-1.412l-.109.479-.431-.142.109-.479.431.142zm.469.881l-.109.479-.431-.142.109-.479.431.142zm15.081-8.068l-.105.478-.431-.142.109-.478.427.142zm-.384-.337l.109-.478.431.142-.109.479-.431-.143zm.237 1.01l-.109.478-.431-.142.109-.479.431.143zm-.578-.398l-.431-.142.104-.479.431.142-.104.479zm-.043.194l-.109.478-.431-.142.104-.478.436.142zm-.152.677l-.109.479-.431-.142.109-.479.431.142zm-.573-.398l-.431-.142.109-.478.431.142-.109.478zm.427 1.071l-.109.479-.432-.142.109-.479.432.142zm-.578-.398l-.432-.142.109-.478.432.142-.109.478zm-.043.194l-.109.479-.431-.142.109-.479.431.142zm-.573-.398l-.431-.142.108-.478.432.142-.109.478zm.421 1.071l-.109.479-.431-.142.104-.479.436.142zm-.573-.398l-.431-.142.109-.478.431.142-.109.478zm-.043.195l-.109.478-.431-.142.109-.479.431.143zm-.578-.398l-.431-.143.109-.478.431.142-.109.479zm.427 1.07l-.109.479-.431-.142.109-.479.431.142zm-.578-.393l-.431-.142.109-.479.431.143-.109.478zm-.043.194l-.109.479-.431-.142.109-.479.431.142zm-.147.673l-.109.479-.431-.143.109-.478.431.142zm-.578-.398l-.431-.142.109-.479.431.143-.109.478zm.427 1.071l-.105.478-.431-.142.109-.478.427.142zm-.578-.398l-.432-.142.109-.479.432.142-.109.479zm-.043.194l-.109.479-.431-.143.109-.478.431.142zm-.573-.398l-.431-.142.104-.479.431.143-.104.478zm.426 1.071l-.109.478-.431-.142.109-.478.431.142zm-.578-.398l-.431-.142.109-.479.431.142-.109.479zm-.043.194l-.108.479-.432-.142.109-.479.431.142zm-.578-.393l-.431-.142.109-.479.431.142-.109.479zm.427 1.071l-.109.478-.431-.142.109-.478.431.142zm-.573-.398l-.432-.142.109-.479.432.142-.109.479zm-.043.194l-.109.478-.431-.142.109-.478.431.142zm-.578-.398l-.431-.142.109-.479.431.142-.109.479zm.426 1.071l-.109.478-.431-.142.109-.478.431.142zm-.578-.398l-.431-.142.109-.479.431.142-.109.479zm-.042.194l-.109.479-.431-.143.109-.478.431.142zm-.574-.398l-.431-.142.109-.479.431.142-.109.479zm.427 1.071l-.109.478-.431-.142.109-.478.431.142zm-.578-.393l-.431-.143.109-.478.431.142-.109.479zm-.043.189l-.109.479-.431-.143.109-.478.431.142zm-.573-.393l-.431-.142.109-.479.431.142-.109.479zm.422 1.071l-.105.478-.431-.142.109-.479.427.143zm-.574-.398l-.431-.143.109-.478.431.142-.109.479zm-.042.194l-.109.478-.431-.142.108-.478.432.142zm-.578-.398l-.432-.142.109-.479.432.142-.109.479zm.426 1.071l-.109.478-.431-.142.109-.479.431.143zm-.578-.398l-.431-.143.109-.478.431.142-.109.479zm-.043.194l-.109.478-.431-.142.109-.478.431.142zm-.573-.398l-.431-.142.109-.479.431.142-.109.479zm.426 1.071l-.109.478-.431-.142.109-.479.431.143zm-.578-.394l-.431-.142.109-.478.431.142-.109.478zm-.469-.876l-.431-.142.109-.479.431.142-.109.479zm.427 1.071l-.109.478-.431-.142.109-.478.431.142zm-.578-.398l-.431-.142.109-.479.431.142-.109.479zm-.043.194l-.109.478-.431-.142.109-.478.431.142zm-.573-.398l-.431-.142.109-.479.431.142-.109.479zm.422 1.071l-.105.478-.431-.142.109-.478.427.142zm-.574-.398l-.431-.142.104-.479.431.142-.104.479zm-.042.194l-.109.478-.431-.142.108-.478.432.142zm-.578-.398l-.432-.142.109-.479.432.142-.109.479zm.426 1.071l-.109.478-.431-.142.109-.478.431.142zm-.573-.398l-.431-.142.109-.479.431.142-.109.479zm-.043.194l-.109.479-.431-.143.109-.478.431.142zm-.578-.398l-.431-.142.104-.479.431.143-.104.478zm.426 1.076l-.108.478-.432-.142.109-.479.431.143zm-.578-.398l-.431-.143.109-.478.431.142-.109.479zm-.042.194l-.109.478-.431-.142.109-.478.431.142zm-.573-.398l-.432-.142.109-.479.432.142-.109.479zm.426 1.071l-.109.478-.431-.142.109-.479.431.143zm-.578-.398l-.431-.138.109-.478.431.142-.109.474zm-.043.194l-.109.478-.431-.142.109-.478.431.142zm-.573-.398l-.431-.142.109-.479.431.142-.109.479zm-.047.194l-.109.479-.431-.143.108-.478.432.142zm-.147.678l-.109.478-.431-.142.109-.479.431.143zm-.578-.398l-.431-.142.109-.479.431.142-.109.479zm-.043.194l-.109.478-.431-.142.109-.478.431.142zm-.317-1.554l-.109.478-.431-.142.109-.478.431.142zm.151-.673l-.109.479-.431-.143.109-.478.431.142zm.465.877l-.105.478-.431-.142.109-.479.427.143zm-.28-.815l.431.142-.109.478-.431-.142.109-.478zm.583-.531l-.109.479-.431-.143.109-.478.431.142zm.469.877l-.104.478-.432-.142.109-.479.427.143zm-.28-.815l.431.142-.108.478-.432-.142.109-.478zm.578-.531l-.109.479-.431-.143.109-.478.431.142zm.469.877l-.109.478-.431-.142.105-.479.435.143zm-.279-.815l.431.142-.109.478-.431-.142.109-.478zm.578-.536l-.104.479-.431-.142.108-.479.427.142zm.469.877l-.109.478-.431-.142.109-.478.431.142zm-.275-.815l.431.142-.109.478-.431-.142.109-.478zm.578-.531l-.109.479-.431-.142.109-.479.431.142zm.469.877l-.109.478-.431-.142.109-.478.431.142zm-.279-.815l.431.142-.109.478-.431-.142.109-.478zm.578-.536l-.109.479-.431-.142.104-.479.436.142zm.469.877l-.109.478-.431-.142.109-.478.431.142zm-.28-.81l.431.142-.109.478-.431-.142.109-.478zm.583-.536l-.109.479-.431-.142.109-.479.431.142zm.469.877l-.109.478-.431-.142.109-.478.431.142zm.147-.673l-.104.479-.432-.143.109-.478.427.142zm.469.877l-.109.478-.431-.142.104-.479.436.143zm.152-.673l-.109.478-.432-.142.109-.478.432.142zm.151-.673l-.109.479-.431-.143.109-.478.431.142zm.464.877l-.109.478-.431-.142.109-.479.431.143zm.152-.678l-.109.479-.431-.143.109-.478.431.142zm.152-.673l-.109.479-.431-.142.109-.479.431.142zm.469.877l-.109.478-.431-.142.109-.478.431.142zm.147-.673l-.109.479-.432-.143.109-.478.432.142zm.151-.673l-.109.479-.431-.142.109-.479.431.142zm.469.877l-.109.478-.431-.142.109-.478.431.142zm.152-.673l-.109.478-.431-.142.109-.478.431.142zm.147-.673l-.109.479-.431-.142.109-.479.431.142zm.469.872l-.109.478-.431-.142.109-.478.431.142zm.151-.673l-.109.479-.431-.142.104-.479.436.142zm.152-.673l-.109.479-.431-.142.109-.479.431.142zm.469.877l-.109.478-.431-.142.109-.478.431.142zm.147-.673l-.104.479-.431-.143.109-.478.426.142zm.152-.673l-.109.479-.432-.142.109-.479.432.142zm.469.877l-.109.478-.432-.142.109-.478.432.142zm.151-.673l-.109.479-.431-.143.109-.478.431.142zm.147-.677l-.109.478-.431-.142.109-.479.431.143zm.469.876l-.109.479-.431-.143.109-.478.431.142zm.152-.673l-.109.479-.431-.142.109-.479.431.142zm-.28-.815l.431.143-.109.478-.431-.142.109-.479zm.583-.53l-.109.478-.431-.142.109-.478.431.142zm.464.876l-.109.479-.431-.142.109-.479.431.142zm-.279-.815l.431.142-.109.479-.431-.142.109-.479zm.582-.53l-.109.478-.431-.142.109-.478.431.142zm.47.876l-.109.479-.432-.142.109-.479.432.142zm-.28-.819l.431.142-.109.478-.431-.142.109-.478zm.578-.531l-.104.478-.431-.142.109-.478.426.142zm.469.876l-.104.479-.431-.142.109-.479.426.142zm-.279-.815l.431.143-.105.478-.431-.142.105-.479zm.582-.53l-.109.478-.431-.142.109-.478.431.142zm.469.876l-.109.479-.431-.142.109-.479.431.142zm-.279-.815l.431.143-.109.478-.431-.142.109-.479zm.578-.525l-.104.473-.432-.142.105-.474.431.143zm.469.871l-.109.479-.431-.142.109-.479.431.142zm-.284-.81l.431.142-.105.474-.431-.142.105-.474zm.573-.497l-.1.445-.431-.142.1-.445.431.142zm.663.009l-.431-.142.099-.445.432.142-.1.445zm-.573.498l.099-.446.432.142-.1.446-.431-.142zm-.147.668l.104-.474.431.142-.104.474-.431-.142zm-.152.672l.109-.478.431.142-.108.479-.432-.143zm-.151.673l.109-.478.431.142-.109.478-.431-.142zm-.147.673l.109-.479.431.143-.109.478-.431-.142zm-.152.677l.109-.478.431.142-.109.479-.431-.143zm.28.811l-.431-.142.109-.479.431.142-.109.479zm-.578.535l.109-.478.431.142-.109.478-.431-.142zm-.469-.876l.109-.479.431.142-.109.479-.431-.142zm-.152.672l.109-.478.431.142-.109.478-.431-.142zm.28.815l-.431-.142.108-.478.432.142-.109.478zm-.583.531l.109-.479.431.142-.109.479-.431-.142zm-.464-.877l.109-.478.431.142-.109.478-.431-.142zm.279.815l-.431-.142.109-.478.431.142-.109.478zm-.583.536l.109-.479.432.142-.109.479-.432-.142zm-.469-.877l.105-.478.431.142-.109.478-.427-.142zm-.151.673l.109-.479.431.143-.109.478-.431-.142zm-.147.673l.109-.479.431.142-.104.479-.436-.142zm-.469-.877l.109-.478.431.142-.109.478-.431-.142zm-.152.673l.109-.479.431.143-.109.478-.431-.142zm.28.815l-.431-.142.109-.479.431.142-.109.479zm-.578.535l.109-.478.431.142-.109.478-.431-.142zm-.469-.876l.109-.479.431.142-.109.479-.431-.142zm.279.815l-.431-.142.109-.479.431.142-.109.479zm-.583.53l.109-.478.432.142-.109.478-.432-.142zm-.464-.876l.109-.479.431.142-.109.479-.431-.142zm.28.815l-.431-.142.109-.479.431.142-.109.479zm-.583.53l.109-.478.431.142-.109.478-.431-.142zm-.469-.876l.109-.479.431.142-.109.479-.431-.142zm.279.815l-.431-.142.109-.479.431.142-.109.479zm-.578.535l.109-.478.432.142-.109.478-.432-.142zm-.469-.876l.109-.479.431.142-.109.479-.431-.142zm.28.815l-.431-.143.109-.478.431.142-.109.479zm-.583.53l.109-.478.431.142-.109.478-.431-.142zm-.464-.876l.104-.479.431.142-.109.479-.426-.142zm.279.815l-.431-.143.104-.478.432.142-.105.479zm-.582.53l.109-.478.431.142-.109.478-.431-.142zm-.469-.876l.109-.479.431.142-.109.479-.431-.142zm.279.815l-.431-.143.109-.478.431.142-.109.479zm-.578.535l.109-.479.431.143-.109.478-.431-.142zm-.469-.877l.109-.478.431.142-.109.479-.431-.143zm.28.815l-.432-.142.109-.478.432.142-.109.478zm-.583.531l.109-.478.431.142-.109.478-.431-.142zm-.469-.876l.109-.479.431.142-.109.479-.431-.142zm-.147.672l.109-.478.431.142-.109.478-.431-.142zm-.469-.876l.109-.479.431.142-.109.479-.431-.142zm-.152.673l.109-.479.431.142-.109.479-.431-.142zm-.151.672l.109-.478.431.142-.109.478-.431-.142zm-.465-.871l.109-.479.431.142-.109.479-.431-.142zm-.151.672l.109-.478.431.142-.109.478-.431-.142zm-.152.673l.104-.478.431.142-.109.478-.426-.142zm-.469-.876l.109-.479.431.142-.109.479-.431-.142zm.28.815l-.432-.143.109-.478.432.142-.109.479zm-.578.53l.109-.478.431.142-.109.478-.431-.142zm-.47-.876l.109-.479.432.142-.109.479-.432-.142zm.28.815l-.431-.143.109-.478.431.142-.109.479zm-.583.535l.109-.479.431.143-.109.478-.431-.142zm-.464-.877l.109-.478.431.142-.109.479-.431-.143zm-.152.673l.109-.478.431.142-.108.478-.432-.142zm-.469-.876l.109-.479.431.142-.109.479-.431-.142zm.28.815l-.431-.142.109-.479.431.142-.109.479zm-.583.53l.109-.478.431.142-.109.478-.431-.142zm-.469-.876l.109-.479.431.142-.109.479-.431-.142zm-.147.673l.109-.479.431.142-.109.479-.431-.142zm-.469-.877l.109-.478.431.142-.109.478-.431-.142zm-.151.673l.108-.479.432.142-.109.479-.431-.142zm-.47-.872l.109-.478.432.142-.109.478-.432-.142zm.28.81l-.431-.142.109-.478.431.142-.109.478z" fill="#354042"/><path d="M227.58 105.85s1.564.626 1.592 1.521c.029.896.085 3.383.085 3.383s.029.829-.611.677c-.639-.151-1.322-.45-1.322-.45s-1.88 1.038-2.752 1.209c-.877.17-2.227.284-2.526-.228-.298-.512-.08-3.392.072-4.453.151-1.057.284-2.019 1.336-2.559 1.051-.54 1.677-.753 1.677-.753s.824-.27 1.464.256c.639.526.526 1.592.526 1.592l.459-.195z" fill="#5A6567"/><path opacity=".3" d="M229.149 107.201a.71.71 0 0 1 .023.17c.029.896.086 3.383.086 3.383s.028.829-.612.678c-.639-.152-1.322-.451-1.322-.451l-.199-2.747s1.204-.616 2.024-1.033zM221.938 109.527c.043-.786.119-1.563.185-2.013.076-.526.147-1.033.327-1.469a5.893 5.893 0 0 0 1.895.431 1.45 1.45 0 0 0-.204.246c-.715 1.085-.672 1.801-.734 3.36-1.132-.128-1.469-.555-1.469-.555z" fill="#5A6567"/><path opacity=".3" d="M221.937 109.527c0 .005.237.858.787.948.208.033.455-.014.673-.081a8.823 8.823 0 0 0 .137 1.933c-.658.038-1.289-.028-1.483-.36-.175-.298-.175-1.374-.114-2.44z" fill="#5A6567"/><path opacity=".5" d="M224.055 110.109a6.66 6.66 0 0 1-.653-.033c.061-1.559.018-2.274.734-3.359.54-.82 2.099-1.336 2.899-1.559.133.45.09.891.09.891v2.184s1.204-.616 2.024-1.033a.718.718 0 0 1 .023.171c.029.895.085 3.383.085 3.383s.029.829-.611.677c-.639-.152-1.322-.45-1.322-.45s-1.88 1.038-2.752 1.208a7.39 7.39 0 0 1-1.043.133 8.834 8.834 0 0 1-.137-1.933c.365-.109.663-.28.663-.28z" fill="#5A6567"/><path d="M263.943 89.357l-2.312-3.638c0-1.019.052-2.7.37-3.189.469-.715 1.738-1.625 1.738-1.625s.744-.194 1.104.36c.36.55.635 3.392.692 4.634.038 1.028-.535 2.43-1.592 3.458z" fill="#5A6567"/><path opacity=".5" d="M263.394 84.246c.014-.957.454-1.275.454-1.275l1.228-.976c.236 1.085.407 2.952.45 3.895.047 1.037-.526 2.44-1.583 3.468l-.554-.872a355.34 355.34 0 0 1 .005-4.24z" fill="#5A6567"/><path opacity=".3" d="M262.361 86.87l1.028-.436-1.478-.275-.28-.44c0-.877.038-2.237.251-2.914.389.312.981.71 1.592.843-.043.166-.071.36-.076.597-.009.56-.009 2.62-.004 4.24l-1.033-1.615z" fill="#5A6567"/><path d="M256.874 127.18a11.001 11.001 0 0 1-.203-.323c2.359-.923 7.485-3.662 10.428-5.334 4.216-2.398 8.57-5.961 8.57-5.961l.038.389s-4.354 3.563-8.57 5.96c-2.876 1.635-7.832 4.288-10.263 5.269zM258.452 129.004a4.994 4.994 0 0 1-.303-.265c2.615-1.227 6.372-3.255 8.732-4.591 4.216-2.397 8.571-5.96 8.571-5.96l.037.388s-4.354 3.563-8.57 5.961c-2.279 1.298-5.866 3.231-8.467 4.467z" fill="#404B4D"/><path d="M266.81 120.633c4.216-2.398 8.57-5.961 8.57-5.961l.289.886s-4.354 3.563-8.57 5.961c-2.943 1.672-8.069 4.41-10.428 5.334-.086-.137-.157-.265-.218-.364a1.388 1.388 0 0 1-.18-.479c2.302-.872 7.547-3.677 10.537-5.377zM258.149 128.739a7.244 7.244 0 0 1-.611-.654c2.615-1.189 6.728-3.402 9.248-4.833 4.217-2.397 8.571-5.96 8.571-5.96l.095.895c-.01.01-4.359 3.563-8.571 5.961-2.36 1.34-6.117 3.364-8.732 4.591z" fill="#5A6567"/><mask id="b" maskUnits="userSpaceOnUse" x="238" y="114" width="43" height="21"><path d="M241.391 130.089l4.961 2.208s1.814.857 6.282-.152c4.146-.933 6.439-1.796 7.012-2.023.166.033.332.052.497.052.119 0 .242-.009.361-.028 2.051-.304 6.718-2.725 8.902-4.193.161-.109.332-.223.512-.341 2.132-1.417 5.268-3.502 6.04-6.108.839-1.113 2.549-3.52 3.033-5.263 0 0 .98.98.98 1.648 0 .199.067.692.076 1.393-2.402 3.791-6.548 7.363-10.542 9.988-4.837 3.174-13.692 6.325-17.458 6.974-3.767.649-6.799-.649-6.799-.649l-7.135-3.696 3.278.19z" fill="url(#paint2_linear)"/></mask><g mask="url(#b)"><path d="M241.391 130.089l4.961 2.208s1.814.857 6.282-.152c4.146-.933 6.439-1.796 7.012-2.023.166.033.332.052.497.052.119 0 .242-.009.361-.028 2.051-.304 6.718-2.725 8.902-4.193.161-.109.332-.223.512-.341 2.132-1.417 5.268-3.502 6.04-6.108.839-1.113 2.549-3.52 3.033-5.263 0 0 .98.98.98 1.648 0 .199.067.692.076 1.393-2.402 3.791-6.548 7.363-10.542 9.988-4.837 3.174-13.692 6.325-17.458 6.974-3.767.649-6.799-.649-6.799-.649l-7.135-3.696 3.278.19z" fill="url(#paint3_linear)"/><path d="M253.349 134.23c-1.004.042-3.397.336-3.325 1.852.08 1.663 2.909 1.606 6.694.886 3.786-.72 7.358-2.738 7.358-2.738s-5.344 2.283-9.334 2.042c.005 0 .199-2.104-1.393-2.042z" fill="#4D585A"/><path d="M252.866 134.268c.095.383.171 1.018-.26 1.326-.531.379-1.673.706-2.526.806a1.127 1.127 0 0 1-.056-.318c-.062-1.307 1.71-1.705 2.842-1.814zM259.409 132.681c.128-.1.242-.147.242-.147 1.596-.592 6.325-2.682 9.357-4.558 1.687-1.042 3.25-2.184 4.487-3.146a1.943 1.943 0 0 1-.716 1.237c-.829.672-3.288 2.473-5.685 3.776-2.62 1.431-6.055 3.529-7.685 2.838z" fill="#273234"/></g><mask id="c" maskUnits="userSpaceOnUse" x="259" y="122" width="18" height="13"><path d="M259.409 132.68c1.63.692 5.065-1.407 7.685-2.833 2.393-1.303 4.856-3.108 5.685-3.776a1.95 1.95 0 0 0 .716-1.237 61.781 61.781 0 0 0 2.212-1.809c1.024-.882 1.005-.147.683.909-.322 1.057-2.019 3.426-5.927 6.022-3.909 2.596-6.847 3.89-8.709 4.487-1.866.597-2.525-.318-2.681-.948-.095-.393.137-.663.336-.815z" fill="url(#paint4_linear)"/></mask><g mask="url(#c)"><path opacity=".5" d="M259.409 132.68c1.63.692 5.065-1.407 7.685-2.833 2.393-1.303 4.856-3.108 5.685-3.776a1.95 1.95 0 0 0 .716-1.237 61.781 61.781 0 0 0 2.212-1.809c1.024-.882 1.005-.147.683.909-.322 1.057-2.019 3.426-5.927 6.022-3.909 2.596-6.847 3.89-8.709 4.487-1.866.597-2.525-.318-2.681-.948-.095-.393.137-.663.336-.815z" fill="url(#paint5_linear)"/><path d="M276.555 125.072s2.758-2.947 3.099-5.321c.341-2.374-.237-.962-.815-.289-.583.673-.9 1.199-1.104 1.98-.208.777.043 1.649-1.18 3.63z" fill="#4D585A"/><path d="M263.683 133.628l8.755-5.273a.391.391 0 0 1 .209-.062c.147 0 .298.105.303.346l.043 1.706a.812.812 0 0 1-.365.659l-8.708 5.197a.392.392 0 0 1-.209.061c-.175 0-.303-.137-.313-.341l-.071-1.62a.812.812 0 0 1 .356-.673z" fill="#404B4D"/><path d="M263.816 133.846l8.755-5.278a.154.154 0 0 1 .076-.028c.043 0 .047.066.047.095l.043 1.705a.562.562 0 0 1-.242.436l-8.708 5.193a.198.198 0 0 1-.076.024c-.047 0-.057-.062-.057-.1l-.071-1.62a.57.57 0 0 1 .233-.427z" fill="#fff"/></g></g><g clip-path="url(#clip1)"><path d="M180.652 24.663c-.715-.44-1.89-.479-2.634-.08-.37.198-.559.469-.569.743l-.009.294c-.01.275.166.554.521.777.715.44 1.89.479 2.634.08.37-.198.559-.468.569-.743l.009-.294c.01-.28-.166-.56-.521-.777z" fill="#6D807D"/><path d="M180.52 22.682c.004-.165-.1-.336-.313-.469-.431-.265-1.142-.289-1.587-.047-.223.118-.337.284-.346.45l-.607 2.454c-.009.247.147.493.465.692.635.393 1.682.426 2.335.071.327-.175.498-.417.507-.659l-.454-2.492z" fill="#0F53B9"/><path d="M160.474 37.038c-.716-.44-1.891-.479-2.635-.08-.369.198-.559.468-.568.743l-.005.29c-.009.274.166.554.521.776.716.44 1.891.479 2.634.08.37-.198.559-.468.569-.743l.009-.294c.005-.27-.165-.554-.525-.772z" fill="#6D807D"/><path d="M160.341 35.062c.005-.166-.1-.336-.313-.469-.431-.265-1.142-.289-1.587-.047-.223.118-.336.284-.341.45l-.611 2.45c-.01.246.147.492.464.691.635.393 1.682.426 2.336.071.327-.175.497-.417.507-.658l-.455-2.488z" fill="#0F53B9"/><path opacity=".2" d="M206.611 67.18l24.144-13.943 5.334 3.08-24.148 13.943-5.33-3.08z" fill="#000"/><path d="M207.482 65.901l10.713-6.197c.293-.256 1.123-.09 2.094.474 1.217.706 2.208 1.762 2.208 2.36 0 .137-.052.24-.152.307l-10.75 6.226c-.322.218-1.123.038-2.056-.498-1.218-.706-2.208-1.762-2.208-2.36 0-.141.057-.246.151-.312zM225.595 60.755c0-.601-.99-1.658-2.208-2.359-.833-.483-1.591-.668-1.97-.545l10.086-5.832c.294-.256 1.118-.09 2.09.474 1.222.706 2.208 1.762 2.208 2.36a.349.349 0 0 1-.152.307l-10.191 5.894a.375.375 0 0 0 .137-.299z" fill="#0F53B9"/><path d="M207.331 66.209c0 .597.99 1.658 2.208 2.36 1.217.705 2.207.79 2.207.189 0-.597-.99-1.659-2.207-2.36-1.218-.706-2.208-.791-2.208-.19z" fill="#5099DA"/><path d="M222.345 62.845c.099-.066.152-.166.152-.308 0-.602-.991-1.658-2.208-2.36-.839-.483-1.569-.672-1.943-.549l2.947-1.7c.294-.257 1.118-.09 2.094.473 1.218.706 2.208 1.762 2.208 2.36 0 .137-.052.241-.152.307l-3.103 1.796.005-.019z" fill="url(#paint6_linear)"/><path d="M164.326 63.584l1.227-1.644 2.061 2.62v-2.777l2.373 1.374v2.777l2.061-.242 1.223 3.056-2.165.256 2.165 2.752-1.223 1.644-2.061-2.62v2.777l-2.373-1.37v-2.776l-2.061.242-1.227-3.06 2.17-.252-2.17-2.757z" fill="#004ECD"/><path d="M168.826 74.732c-3.392-1.957-6.149-6.737-6.149-10.655 0-2.743 1.393-4.515 3.544-4.515.876 0 1.819.288 2.8.852 3.392 1.957 6.149 6.737 6.149 10.656 0 2.743-1.392 4.515-3.543 4.515-.877 0-1.82-.29-2.801-.853zm-5.761-10.655c0 3.795 2.672 8.419 5.956 10.319.919.53 1.795.8 2.606.8 1.947 0 3.155-1.582 3.155-4.126 0-3.79-2.672-8.42-5.956-10.314-.919-.531-1.795-.801-2.605-.801-1.948-.005-3.156 1.578-3.156 4.122z" fill="#004ECD"/><path d="M231.523 70.094l-1.123-1.69 1.26-.726 1.123 1.692.687-1.569 1.473.91-.687 1.568 1.81.124.218 1.634-1.81-.118 1.119 1.686-1.256.725-1.123-1.686-.687 1.568-1.478-.915.692-1.563-1.81-.123-.218-1.64 1.81.123z" fill="#0080FF"/><path d="M229.617 72.936c1.436 2.16 4.108 3.052 5.956 1.986 1.848-1.066 2.184-3.696.749-5.856-1.436-2.16-4.108-3.052-5.956-1.986-1.848 1.067-2.184 3.696-.749 5.856zm.91-5.61c1.734-.999 4.236-.165 5.581 1.863 1.346 2.028 1.033 4.487-.701 5.49-1.734 1-4.236.167-5.581-1.861-1.346-2.028-1.028-4.492.701-5.491z" fill="#0080FF"/><path d="M272.59 110.242l.725-.412-4.591-3.283-.649.369 3.032 4.174.72-.412-.668-.881.469-.27.962.715zm-1.853-.938l-1.231-1.487 1.606 1.274-.375.213zM266.189 107.997l2.151 2.705-2.952-2.25-.843.483 3.809 3.729.536-.308-2.663-2.63c.313.247.834.644 1.549 1.189.716.545 1.237.943 1.549 1.19l.55-.313-2.25-2.89 2.71 2.629.54-.308-3.81-3.728-.876.502zM263.37 109.607a2.347 2.347 0 0 0-.332.223.916.916 0 0 0-.213.256.465.465 0 0 0-.066.308.814.814 0 0 0 .128.365c.08.137.199.284.36.44.199.195.398.322.601.384.204.062.432.071.687.029-.317.355-.213.791.318 1.307.384.374.753.602 1.108.682.356.081.716.019 1.071-.184l.891-.512-3.809-3.729-.744.431zm1.947 1.995l.071-.043 1.26 1.232-.066.038a.788.788 0 0 1-.265.1.508.508 0 0 1-.256-.043 1.121 1.121 0 0 1-.251-.152 3.143 3.143 0 0 1-.303-.274c-.199-.195-.318-.365-.365-.512-.043-.137.014-.256.175-.346zm-.554-.469a.422.422 0 0 1-.427 0 1.551 1.551 0 0 1-.218-.133 3.252 3.252 0 0 1-.227-.199 1.452 1.452 0 0 1-.152-.17c-.038-.052-.071-.095-.09-.133a.193.193 0 0 1-.028-.109.276.276 0 0 1 .019-.085.144.144 0 0 1 .066-.071c.033-.029.067-.048.09-.067.024-.014.062-.033.114-.061l.981.962-.128.066zM265.028 113.791a2.309 2.309 0 0 0-.204-.317 3.405 3.405 0 0 0-.27-.322c-.09-.1-.199-.209-.317-.327l-2.393-2.341-.729.417 2.369 2.322c.132.133.232.227.293.289.062.061.133.137.214.227.08.09.137.152.156.195.024.042.043.09.062.142.019.052.014.094-.015.128a.36.36 0 0 1-.118.099.444.444 0 0 1-.156.057.279.279 0 0 1-.171-.024c-.066-.023-.118-.052-.171-.08a1.325 1.325 0 0 1-.213-.166c-.095-.081-.17-.152-.232-.209-.062-.056-.156-.151-.294-.284l-.014-.014-2.369-2.322-.729.417 2.392 2.341c.119.118.237.222.341.317.105.095.223.185.346.28.123.09.242.166.355.232.114.062.233.114.361.152.127.042.251.066.374.071.118.004.246-.01.379-.038.128-.033.26-.086.388-.157.128-.071.233-.156.304-.237a.723.723 0 0 0 .151-.265.651.651 0 0 0 .005-.289 1.037 1.037 0 0 0-.095-.294zM258.589 112.336l3.284 3.213-.72.412.525.516 1.45-.829-3.809-3.729-.73.417zM256.41 113.587l3.032 4.174.721-.412-.669-.881.47-.27.957.715.724-.417-4.59-3.278-.645.369zm3.032 2.175l-.374.213-1.232-1.487 1.606 1.274zM254.87 114.464l1.199 2.402-1.995-1.947-.601.346 3.809 3.728.507-.289-1.322-2.52 2.113 2.065.625-.36-3.809-3.728-.526.303zM256.022 118.401a4.543 4.543 0 0 0-.394-.431l-1.26-1.237c-.9-.881-1.701-1.123-2.397-.72-.147.085-.256.18-.332.284a.64.64 0 0 0-.114.332.867.867 0 0 0 .081.374c.057.133.137.27.242.403.104.137.232.275.383.426l.327.323.716-.413-.351-.345c-.071-.067-.123-.124-.175-.176a1.484 1.484 0 0 1-.261-.36.249.249 0 0 1-.019-.151.18.18 0 0 1 .095-.119c.213-.123.502 0 .881.37l1.644 1.611c.375.364.455.606.242.729a.304.304 0 0 1-.218.033.682.682 0 0 1-.251-.104 1.976 1.976 0 0 1-.242-.18 3.188 3.188 0 0 1-.241-.218l-.394-.384-.715.408.322.313c.152.142.294.265.436.374.142.109.294.204.46.294.161.085.322.146.473.18.157.038.313.042.479.023.166-.023.327-.076.478-.161a.96.96 0 0 0 .346-.308.633.633 0 0 0 .109-.355.95.95 0 0 0-.099-.398 1.95 1.95 0 0 0-.251-.417zM249.18 117.719l.526.516.782-.445 1.033 1.018-.55.313.545.531.55-.313 1.17 1.142-.777.445.53.521 1.507-.862-3.809-3.729-1.507.863z" fill="#E30001"/></g><defs><linearGradient id="paint0_linear" x1="229.931" y1="129.404" x2="237.547" y2="137.527" gradientUnits="userSpaceOnUse"><stop stop-color="#C1C0C0"/><stop offset="1" stop-color="#DEDDDC"/></linearGradient><linearGradient id="paint1_linear" x1="163.481" y1="91.404" x2="171.097" y2="99.528" gradientUnits="userSpaceOnUse"><stop stop-color="#C1C0C0"/><stop offset="1" stop-color="#DEDDDC"/></linearGradient><linearGradient id="paint2_linear" x1="255.759" y1="124.842" x2="242.905" y2="125.571" gradientUnits="userSpaceOnUse"><stop stop-color="#333"/><stop offset=".524" stop-color="#999"/><stop offset="1" stop-color="#333"/></linearGradient><linearGradient id="paint3_linear" x1="255.759" y1="124.842" x2="242.905" y2="125.571" gradientUnits="userSpaceOnUse"><stop stop-color="#fff"/><stop offset=".524" stop-color="#fff"/><stop offset="1" stop-color="#fff"/></linearGradient><linearGradient id="paint4_linear" x1="270.907" y1="122.207" x2="268.684" y2="126.654" gradientUnits="userSpaceOnUse"><stop stop-color="#333"/><stop offset=".524" stop-color="#999"/><stop offset="1" stop-color="#333"/></linearGradient><linearGradient id="paint5_linear" x1="270.907" y1="122.207" x2="268.684" y2="126.654" gradientUnits="userSpaceOnUse"><stop stop-color="#fff"/><stop offset=".524" stop-color="#fff"/><stop offset="1" stop-color="#fff"/></linearGradient><linearGradient id="paint6_linear" x1="223.22" y1="62.307" x2="220.801" y2="58.004" gradientUnits="userSpaceOnUse"><stop stop-color="#BCC2C7"/><stop offset=".543" stop-color="#E6ECF2"/><stop offset=".787" stop-color="#E4EAF0"/><stop offset=".914" stop-color="#DCE2E8"/><stop offset="1" stop-color="#D2D8DD"/></linearGradient><clipPath id="clip0"><path fill="#fff" transform="translate(144 22)" d="M0 0h141.031v125.15H0z"/></clipPath><clipPath id="clip1"><path fill="#fff" transform="translate(157.266 22)" d="M0 0h116.049v99.447H0z"/></clipPath></defs></svg>