<svg width="375" height="156" fill="none" xmlns="http://www.w3.org/2000/svg" viewBox="0 0 375 156"><path d="M375 0H0v156h375V0z" fill="#F5FCFF"/><mask id="a" maskUnits="userSpaceOnUse" x="0" y="0" width="375" height="156"><path transform="matrix(-1 0 0 1 375 0)" fill="#F5FCFF" d="M0 0h375v156H0z"/></mask><g mask="url(#a)"><path d="M481.001-5.706L374.813.097 176.85 20.841l-36.883 21.902 167.705 97.683 140.778 13.258 32.551-159.39z" fill="#00AD00"/><path d="M437.509-7.297S75.41 4.265 51.072 44.358C21.094 93.745 318.26 226.2 318.26 226.2l250.865-59.442s-397.638-99.299-379.744-129.2C208.081 6.31 578.295-2.295 578.295-2.295L437.509-7.297z" fill="#fff"/><path d="M346.422 206.702S52.671 89.192 79.234 44.358C103.14 4.01 465.67-5.998 465.67-5.998l81.019 1.535S176.252 6.173 157.776 37.553c-19.749 33.549 379.745 144.365 379.745 144.365l-191.099 24.784z" fill="#004EBB"/><path d="M325.671 55.067h-2.706v53.134h2.706V55.067z" fill="#5F6464"/><path d="M302.562 46.956l18.716-18.953a4.29 4.29 0 0 1 6.12 0l18.716 18.953a4.423 4.423 0 0 1 0 6.2l-18.716 18.948a4.29 4.29 0 0 1-6.12 0l-18.716-18.949a4.43 4.43 0 0 1 0-6.2z" fill="#fff"/><path d="M304.915 48.482l17.874-18.098a2.17 2.17 0 0 1 3.102 0l17.874 18.098a2.24 2.24 0 0 1 0 3.142l-17.874 18.1a2.17 2.17 0 0 1-3.102 0l-17.874-18.1a2.24 2.24 0 0 1 0-3.142z" fill="#fff"/><path d="M324.34 71.174a2.958 2.958 0 0 1-2.112-.886l-17.874-18.099a3.057 3.057 0 0 1 0-4.276l17.874-18.099a2.94 2.94 0 0 1 2.108-.885c.797 0 1.547.312 2.112.885l17.874 18.1a3.02 3.02 0 0 1 .874 2.135c0 .806-.313 1.567-.874 2.14l-17.874 18.099a2.944 2.944 0 0 1-2.108.886z" fill="#004EBB"/><path d="M332.644 58.442c4.589-4.645 4.589-12.176 0-16.82a11.644 11.644 0 0 0-16.612 0c-4.588 4.644-4.588 12.175 0 16.82a11.644 11.644 0 0 0 16.612 0z" fill="#fff"/><path d="M334.688 53.688c1.996-5.787-1.022-12.119-6.741-14.135-5.715-2.02-11.967 1.038-13.963 6.825-1.996 5.787 1.022 12.12 6.741 14.135 5.719 2.02 11.971-1.038 13.963-6.825z" fill="#fff"/><path d="M313.615 52.33A11.124 11.124 0 0 0 316 57.231c1.755-7.93 8.749-13.862 17.109-13.862a11.9 11.9 0 0 0-.521-.645 17.616 17.616 0 0 0-3.239-.309c-6.901.004-12.872 4.044-15.734 9.915z" fill="#0046B4"/><path d="M319.419 59.953a10.809 10.809 0 0 0 4.921 1.182c6.056 0 10.961-4.97 10.961-11.101 0-2.1-.577-4.064-1.575-5.735-7.61 1.39-13.514 7.755-14.307 15.654zM327.157 41.153c1.539 0 3.034.204 4.457.581a10.857 10.857 0 0 0-7.278-2.801c-5.226 0-9.594 3.703-10.692 8.656 3.222-3.931 8.079-6.436 13.513-6.436z" fill="#46B400"/></g><g clip-path="url(#clip0)"><path d="M187.412 71.918c1.248-.721 3.287-.721 4.535 0l67.789 39.233c1.247.722 5.83 3.604.515 6.346l-35.763 20.498c-1.247.718-5.83 4.289-12.779-.084l-62.743-36.171c-6.434-3.409-1.505-6.806-.258-7.527l38.704-22.295z" fill="#0032A5"/><path d="M198.303 110.71c-.191 1.159 0 4.929 0 4.929l10.089-3.77 5.268-6.102s-8.337-5.606-11.021-3.641c-2.683 1.962-4.336 8.584-4.336 8.584z" fill="#000508"/><path d="M153.858 82.916l8.694-4.947c1.899-1.082 4.513-.916 7.398.751 5.801 3.35 10.502 11.491 10.502 18.19 0 3.368-1.189 5.731-3.111 6.817l-8.69 4.947c-1.899 1.075-4.509.909-7.391-.754-5.801-3.35-10.501-11.492-10.501-18.19-.004-3.361 1.181-5.72 3.099-6.814z" fill="#2C2D30"/><path d="M150.755 89.733c0 6.695 4.7 14.841 10.501 18.19 2.882 1.664 5.492 1.83 7.391.755 1.922-1.09 3.11-3.449 3.11-6.817 0-6.699-4.7-14.84-10.501-18.19-2.886-1.668-5.499-1.833-7.398-.751-1.918 1.09-3.103 3.449-3.103 6.813z" fill="#4A4F54"/><path d="M155.934 92.494c0 3.393 2.382 7.52 5.322 9.216 1.462.843 2.783.928 3.748.383.975-.552 1.575-1.748 1.575-3.456 0-3.394-2.382-7.52-5.323-9.217-1.461-.843-2.79-.927-3.75-.379-.972.552-1.572 1.749-1.572 3.453z" fill="#D1D6DD"/><path d="M156.177 92.637c0 3.24 2.274 7.174 5.079 8.794 1.395.806 2.658.887 3.574.364.928-.526 1.506-1.667 1.506-3.298 0-3.239-2.275-7.177-5.08-8.793-1.395-.806-2.661-.887-3.577-.365-.928.53-1.502 1.671-1.502 3.298z" fill="#2C2D30"/><path d="M166.328 98.353a1.586 1.586 0 0 1-.257.188c-.604.342-1.436.29-2.352-.24-1.848-1.063-3.343-3.658-3.343-5.789 0-1.071.38-1.822.987-2.168.169-.1.364-.158.57-.188 2.444 1.785 4.333 5.253 4.395 8.197z" fill="#D1D6DD"/><path d="M174.338 105.391a93.96 93.96 0 0 0 3.964-2.536l.438-.254a5.001 5.001 0 0 1-1.122.898l-.438.254-.052.03c-1.542.898-3.085 1.796-4.63 2.69.095-.055.191-.118.287-.18l1.553-.902zM171.504 105.579a37.05 37.05 0 0 0 2.536-.773l1.553-.902a5.46 5.46 0 0 1-.979 1.079l-1.553.902c-.008.003-.755.393-2.334.997l-.438.254a6.38 6.38 0 0 0 .777-1.303l.438-.254zM174.316 104.368a7.41 7.41 0 0 0 .626-1.45l1.553-.902a101.813 101.813 0 0 0 3.419-3.1l.438-.253a9.02 9.02 0 0 1-.419 1.634l-.438.254a100.276 100.276 0 0 1-3.622 2.915l-1.557.902zM172.273 100.926a83.299 83.299 0 0 0 3.092-.32l1.553-.902a10.862 10.862 0 0 1-.268 1.756l-1.554.905c-.003 0-.912.188-2.882.464l-.438.254c.063-.604.085-1.24.059-1.899l.438-.258zM176.948 99.057l-1.553.901a14.994 14.994 0 0 0-.096-1.99l1.553-.903a120.773 120.773 0 0 0 2.853-3.445l.438-.254c.147.718.25 1.417.305 2.095l-.438.254a109.547 109.547 0 0 1-3.062 3.342zM171.235 97.654a20.753 20.753 0 0 0-.681-2.216l.438-.254c1.763-.033 2.742-.059 3.666-.084l1.554-.902c.202.732.357 1.454.463 2.153l-1.553.902s-1.093.062-3.449.147l-.438.254zM175.976 93.436l-1.553.902a22.67 22.67 0 0 0-.84-2.25l1.554-.9c1.016-1.547 1.538-2.393 2.267-3.571l.438-.254c.07.129.136.261.203.39.32.626.603 1.255.857 1.877l-.438.254a120.785 120.785 0 0 1-2.488 3.552zM172.045 89.085l1.553-.901c.317.526.619 1.07.906 1.634.099.195.195.394.291.589l-1.554.902c-.106.029-.261.003-.371.003-1.694.019-2.15.026-3.652.067l-.438.253c-.445-.773-.478-.82-1.332-2.076l.438-.253c1.686-.11 2.764-.162 4.159-.218zM173.149 87.499l-1.553.902c-.478-.733-.512-.777-1.413-1.958l1.553-.902a723.61 723.61 0 0 1 1.932-3.17l.438-.253a22.313 22.313 0 0 1 1.509 1.778l-.438.257c-.139.225-1.645 2.713-2.028 3.346zM168.176 84.146l1.554-.902c.577.545.614.585 1.568 1.642l-1.554.902c-.114.036-.283.029-.405.04-1.7.177-3.198.376-3.92.471l-.438.254a19.321 19.321 0 0 0-1.627-1.439l.439-.254c1.77-.317 2.904-.493 4.383-.714zM169.17 82.74l-1.553.905c-.585-.504-.622-.533-1.657-1.28l1.554-.902c.832-1.234 1.295-1.881 1.807-2.6l.438-.253c.559.302 1.123.651 1.678 1.053l-.438.254a203.165 203.165 0 0 0-1.829 2.823zM163.771 81.061l1.553-.902c.559.24 1.123.534 1.682.876l-1.553.902c-.118.048-.291.066-.416.096-1.745.4-3.272.81-4.005 1.004l-.438.254a10.636 10.636 0 0 0-1.667-.625l.438-.254c1.774-.582 2.919-.924 4.406-1.351zM164.68 79.905l-1.554.902a8.789 8.789 0 0 0-1.641-.43l1.553-.902a36.887 36.887 0 0 1 1.885-1.896l.438-.254a7.26 7.26 0 0 1 1.594.151l-.439.254a57.767 57.767 0 0 0-1.836 2.175zM155.434 82.254a90.83 90.83 0 0 1 4.229-2.127l1.553-.902a6.302 6.302 0 0 1 1.542-.063l-1.553.902c-1.41.685-2.893 1.185-4.317 1.822l-.438.254a5.4 5.4 0 0 0-1.307.305c-.048.019-.1.037-.147.06l.438-.25zM160.277 79.478l-1.553.902a4.918 4.918 0 0 0-.464.151c-.268.1-.522.22-.765.36 1.7-.99 3.401-1.976 5.105-2.966.051-.033.107-.063.162-.092l-.438.254c-.729.449-1.219.77-2.047 1.391zM162.854 93.557c0 .703.497 1.56 1.104 1.91.302.174.578.192.777.082.202-.115.327-.365.327-.718 0-.703-.493-1.56-1.104-1.91-.302-.177-.578-.192-.776-.078-.203.114-.328.36-.328.714z" fill="#43474C"/><path d="M203.122 110.6l8.69-4.947c1.899-1.082 4.513-.917 7.398.751 5.801 3.349 10.502 11.491 10.502 18.19 0 3.372-1.189 5.731-3.114 6.82l-8.691 4.947c-1.899 1.075-4.509.91-7.391-.754-5.801-3.35-10.501-11.491-10.501-18.191.004-3.367 1.189-5.727 3.107-6.816z" fill="#2C2D30"/><path d="M200.019 117.412c0 6.699 4.7 14.841 10.501 18.191 2.882 1.664 5.492 1.829 7.391.754 1.921-1.089 3.11-3.449 3.11-6.82 0-6.699-4.7-14.841-10.501-18.191-2.886-1.667-5.503-1.833-7.399-.75-1.917 1.093-3.102 3.452-3.102 6.816z" fill="#4A4F54"/><path d="M205.198 120.177c0 3.394 2.381 7.52 5.322 9.217 1.461.842 2.783.927 3.747.382.976-.552 1.576-1.748 1.576-3.456 0-3.394-2.382-7.52-5.323-9.217-1.461-.846-2.79-.927-3.751-.379-.971.552-1.571 1.749-1.571 3.453z" fill="#D1D6DD"/><path d="M205.44 120.317c0 3.239 2.271 7.177 5.08 8.797 1.395.806 2.657.887 3.574.364.928-.526 1.505-1.667 1.505-3.298 0-3.239-2.274-7.177-5.075-8.793-1.395-.806-2.662-.884-3.578-.365-.931.53-1.506 1.672-1.506 3.295z" fill="#2C2D30"/><path d="M215.592 126.033a1.56 1.56 0 0 1-.258.188c-.603.342-1.435.291-2.352-.239-1.844-1.068-3.342-3.659-3.342-5.79 0-1.071.379-1.822.987-2.168.173-.1.364-.159.57-.188 2.444 1.789 4.332 5.256 4.395 8.197z" fill="#D1D6DD"/><path d="M223.601 133.074a90.413 90.413 0 0 0 3.965-2.536l.438-.254a4.913 4.913 0 0 1-1.127.898l-.438.254-.051.03c-1.543.898-3.085 1.792-4.631 2.69.096-.055.192-.117.287-.18l1.557-.902zM220.767 133.262a36.878 36.878 0 0 0 2.536-.773l1.553-.902a5.46 5.46 0 0 1-.979 1.079l-1.553.902c-.007.003-.754.393-2.33.997l-.438.254a6.38 6.38 0 0 0 .777-1.303l.434-.254zM223.579 132.051c.25-.442.46-.928.626-1.45l1.553-.902a103.362 103.362 0 0 0 3.42-3.099l.438-.254a9.103 9.103 0 0 1-.42 1.634l-.438.254a102.974 102.974 0 0 1-3.622 2.915l-1.557.902zM221.536 128.609a83.299 83.299 0 0 0 3.092-.32l1.554-.902a10.46 10.46 0 0 1-.269 1.756l-1.553.902c-.004 0-.913.187-2.882.464l-.438.253c.062-.603.084-1.24.058-1.899l.438-.254zM226.211 126.736l-1.553.902a15.009 15.009 0 0 0-.096-1.992l1.553-.901a118.935 118.935 0 0 0 2.853-3.446l.438-.254c.147.718.25 1.418.309 2.095l-.438.254a107.551 107.551 0 0 1-3.066 3.342zM220.498 125.334a21.742 21.742 0 0 0-.681-2.216l.438-.254c1.763-.033 2.743-.059 3.666-.081l1.554-.902c.202.733.357 1.454.464 2.154l-1.554.901s-1.093.067-3.449.148l-.438.25zM225.239 121.115l-1.553.902a24.046 24.046 0 0 0-.839-2.249l1.553-.902c1.016-1.542 1.539-2.392 2.267-3.57l.438-.254a24.319 24.319 0 0 1 1.06 2.267l-.438.254a113.572 113.572 0 0 1-2.488 3.552zM221.308 116.768l1.554-.901c.316.526.618 1.071.905 1.634.099.195.195.394.291.589l-1.554.902c-.106.029-.261.003-.371.003-1.693.019-2.15.026-3.652.067l-.438.254c-.445-.773-.478-.821-1.332-2.08l.438-.254c1.686-.107 2.764-.158 4.159-.214zM222.413 115.182l-1.554.902c-.478-.733-.511-.777-1.413-1.958l1.553-.902c.703-1.16 1.351-2.227 1.932-3.169l.439-.254a22.792 22.792 0 0 1 1.512 1.781l-.438.254c-.14.221-1.649 2.713-2.031 3.346zM217.44 111.829l1.553-.902c.578.545.615.585 1.568 1.642l-1.553.902c-.114.036-.284.029-.401.04-1.701.177-3.199.376-3.92.471l-.439.254a19.538 19.538 0 0 0-1.626-1.439l.438-.254c1.766-.316 2.9-.497 4.38-.714zM218.437 110.423l-1.553.902c-.585-.505-.622-.534-1.656-1.281l1.553-.902a92.262 92.262 0 0 1 1.811-2.602l.438-.254c.559.298 1.122.651 1.678 1.052l-.438.254a155.21 155.21 0 0 0-1.833 2.831zM213.037 108.741l1.554-.902c.559.239 1.122.534 1.682.876l-1.554.902c-.117.048-.29.066-.416.095-1.744.402-3.272.81-4.004 1.005l-.438.254a10.3 10.3 0 0 0-1.668-.626l.438-.253c1.771-.578 2.916-.921 4.406-1.351zM213.947 107.589l-1.554.901a8.729 8.729 0 0 0-1.645-.43l1.553-.902a37.28 37.28 0 0 1 1.885-1.896l.438-.254a7.284 7.284 0 0 1 1.594.151l-.438.254a50.519 50.519 0 0 0-1.833 2.176zM204.697 109.937a90.888 90.888 0 0 1 4.229-2.127l1.553-.902a6.32 6.32 0 0 1 1.543-.063l-1.554.902c-1.406.685-2.893 1.185-4.317 1.826l-.438.254a5.266 5.266 0 0 0-1.307.309c-.048.018-.099.037-.147.059l.438-.258zM209.54 107.162l-1.553.901a5.52 5.52 0 0 0-.467.151c-.269.1-.523.221-.762.361 1.7-.99 3.401-1.98 5.105-2.967a7.91 7.91 0 0 1 .162-.088l-.438.254c-.729.445-1.218.766-2.047 1.388zM212.121 121.241c0 .703.493 1.56 1.104 1.91.302.177.578.191.777.081.202-.114.328-.365.328-.718 0-.703-.494-1.561-1.105-1.91-.301-.177-.578-.192-.776-.081-.203.118-.328.364-.328.718z" fill="#43474C"/><path d="M232.369 93.738l8.691-4.947c1.899-1.082 4.512-.917 7.398.75 5.801 3.35 10.501 11.492 10.501 18.191 0 3.368-1.192 5.731-3.114 6.817l-8.69 4.947c-1.899 1.075-4.509.909-7.391-.755-5.801-3.349-10.501-11.491-10.501-18.19.003-3.364 1.189-5.724 3.106-6.813z" fill="#2C2D30"/><path d="M229.266 100.551c0 6.696 4.7 14.841 10.501 18.191 2.882 1.663 5.492 1.829 7.391.754 1.922-1.089 3.111-3.449 3.111-6.817 0-6.699-4.701-14.84-10.502-18.19-2.885-1.668-5.502-1.83-7.398-.751-1.918 1.09-3.103 3.449-3.103 6.813z" fill="#2C2D30"/><path d="M234.445 103.315c0 3.394 2.382 7.52 5.323 9.217 1.461.843 2.782.927 3.743.382.972-.552 1.575-1.748 1.575-3.456 0-3.394-2.381-7.52-5.322-9.216-1.465-.843-2.786-.928-3.751-.38-.968.549-1.568 1.745-1.568 3.453z" fill="#43474C"/><path d="M234.688 103.455c0 3.239 2.275 7.177 5.079 8.793 1.395.806 2.654.887 3.575.365.927-.527 1.505-1.668 1.505-3.298 0-3.239-2.275-7.178-5.076-8.794-1.395-.806-2.661-.887-3.578-.364-.931.53-1.505 1.671-1.505 3.298z" fill="#2C2D30"/><path d="M244.84 109.171a1.83 1.83 0 0 1-.258.188c-.604.342-1.436.291-2.352-.239-1.848-1.064-3.342-3.659-3.342-5.79 0-1.071.379-1.822.986-2.168.173-.1.365-.158.571-.188 2.444 1.785 4.332 5.253 4.395 8.197z" fill="url(#paint0_linear)"/><path d="M252.849 116.213a91.368 91.368 0 0 0 3.964-2.536l.438-.254a4.913 4.913 0 0 1-1.126.898l-.438.254-.048.029c-1.546.895-3.088 1.793-4.63 2.691.099-.059.195-.118.287-.18l1.553-.902zM250.015 116.401a35.292 35.292 0 0 0 2.536-.777l1.553-.902a5.489 5.489 0 0 1-.979 1.079l-1.553.905c-.007.004-.758.394-2.334.998l-.438.254c.302-.387.56-.825.777-1.303l.438-.254zM252.827 115.186c.25-.442.46-.928.626-1.454l1.553-.902a101.879 101.879 0 0 0 3.416-3.099l.438-.254a9.081 9.081 0 0 1-.42 1.634l-.438.254a98.347 98.347 0 0 1-3.622 2.915l-1.553.906zM250.784 111.744a83.525 83.525 0 0 0 3.092-.32l1.553-.902a10.336 10.336 0 0 1-.269 1.756l-1.553.902c-.004 0-.913.187-2.882.463l-.438.254c.063-.603.085-1.24.059-1.899l.438-.254zM255.459 109.875l-1.553.901a14.994 14.994 0 0 0-.096-1.991l1.553-.902a118.98 118.98 0 0 0 2.853-3.445l.438-.254c.147.718.25 1.417.309 2.094l-.438.254a115.36 115.36 0 0 1-3.066 3.343zM249.746 108.472a21.438 21.438 0 0 0-.681-2.216l.438-.254c1.764-.033 2.743-.059 3.667-.085l1.553-.901c.202.732.357 1.454.464 2.153l-1.554.902s-1.093.062-3.449.147l-.438.254zM254.487 104.254l-1.553.902a23.633 23.633 0 0 0-.839-2.249l1.553-.902c1.016-1.542 1.539-2.392 2.267-3.57l.438-.254a25.9 25.9 0 0 1 1.06 2.267l-.438.254a122.106 122.106 0 0 1-2.488 3.552zM250.556 99.903l1.553-.902c.317.527.619 1.072.906 1.635.099.195.195.394.291.589l-1.554.901c-.106.03-.261.004-.371.004-1.697.019-2.15.022-3.652.066l-.438.254c-.445-.773-.478-.82-1.329-2.079l.438-.254a155.84 155.84 0 0 1 4.156-.214zM251.66 98.317l-1.553.902c-.479-.73-.512-.777-1.414-1.959l1.554-.901c.703-1.16 1.351-2.227 1.932-3.17l.438-.253a22.613 22.613 0 0 1 1.513 1.781l-.438.254c-.144.224-1.649 2.716-2.032 3.346zM246.687 94.964l1.554-.902c.577.545.614.585 1.568 1.642l-1.554.902c-.117.036-.283.029-.405.04-1.696.177-3.198.375-3.916.471l-.438.254a18.834 18.834 0 0 0-1.627-1.44l.438-.253c1.767-.317 2.901-.493 4.38-.714zM247.681 93.557l-1.553.906c-.585-.504-.626-.534-1.656-1.281l1.553-.902c.832-1.233 1.296-1.88 1.811-2.602l.438-.254c.559.298 1.123.651 1.678 1.052l-.438.255a190.915 190.915 0 0 0-1.833 2.826zM242.281 91.879l1.554-.902c.559.24 1.122.534 1.682.876l-1.553.902c-.118.048-.291.066-.416.096-1.745.4-3.269.81-4.005 1.004l-.438.254a10.314 10.314 0 0 0-1.667-.625l.438-.254c1.774-.582 2.918-.924 4.405-1.351zM243.194 90.723l-1.553.902a8.775 8.775 0 0 0-1.645-.43l1.553-.902a36.952 36.952 0 0 1 1.884-1.896l.438-.254a7.248 7.248 0 0 1 1.594.151l-.438.254a56.74 56.74 0 0 0-1.833 2.175zM233.945 93.072a91.028 91.028 0 0 1 4.229-2.128l1.553-.901a6.307 6.307 0 0 1 1.542-.063l-1.553.902c-1.406.684-2.893 1.185-4.321 1.822l-.438.254c-.453.048-.887.15-1.307.309-.048.018-.099.037-.147.059l.442-.254zM238.789 90.296l-1.554.902a5.279 5.279 0 0 0-.467.151c-.269.1-.523.221-.762.36 1.7-.99 3.401-1.976 5.105-2.966.052-.03.107-.059.162-.088l-.438.254c-.729.445-1.218.765-2.046 1.387z" fill="#43474C"/><path opacity=".3" d="M239.768 105.708c0 .386.272.861.607 1.056.335.195.611.037.611-.353 0-.387-.272-.862-.611-1.057-.335-.191-.607-.036-.607.354zM239.156 103.51c0 .387.273.862.611 1.057.335.195.608.037.608-.354 0-.386-.273-.861-.608-1.056-.338-.191-.611-.037-.611.353zM241.431 107.622c0 .39.273.861.607 1.056.335.195.611.037.611-.353 0-.387-.272-.862-.611-1.057-.334-.191-.607-.033-.607.354zM243.503 107.824c0 .39.273.861.608 1.056.338.196.607.037.607-.353 0-.386-.272-.861-.607-1.056-.335-.195-.608-.037-.608.353zM240.091 101.721c0 .387.273.862.608 1.057.338.195.611.036.611-.354 0-.386-.273-.861-.611-1.056-.335-.192-.608-.033-.608.353z" fill="#6D6F71"/><path d="M241.365 104.375c0 .703.493 1.561 1.104 1.91.302.177.578.192.777.081.202-.114.327-.364.327-.717 0-.703-.493-1.561-1.104-1.911-.302-.176-.578-.191-.777-.077-.202.114-.327.361-.327.714z" fill="url(#paint1_linear)"/><path d="M181.479 56.3s-2.312-1.18-3.895-.334c-1.582.846-10.483 6.364-10.483 6.364s-1.03 1.472-.699 2.687c.331 1.214 7.063 6.032 7.063 6.032l16.001-11.329-7.987-3.42z" fill="#43474C"/><path d="M173.466 71.046s-6.732-4.818-7.064-6.033c-.302-1.1.516-2.407.67-2.643l8.724 7.027-2.33 1.649z" fill="#151F22"/><path d="M159.681 71.903l13.449-1.914 16.895-8.86s2.418-6.897 3.272-8.539c.854-1.641 2.102-1.314 2.102-1.314s6.239 3.548 11.495 10.115c4.413 5.514 4.612 11.675 4.561 13.512.636.11 1.295.272 1.98.5 3.791 1.256 9.894 4.609 14.859 7.62l8.418-4.642 3.195.446s4.255 2.602 5.249 3.338c.99.733 6.798 7.119 7.332 8.267.534 1.152 1.005 7.03-.228 9.791-1.237 2.761-5.047 4.314-5.047 4.314l-.449-.206.041.206-9.839 5.558-1.538-.489 2.521 2.756-2.094 1.705s-10.388.084-10.483 0c-.063-.056-1.219-1.053-2.047-1.767l.972-.28c-.714-1.48-1.874-2.985-3.541-4.292-1.575-1.236-6.382-4.542-9.53-6.599l-11.646 1.663-9.559-6.029s-5.915 2.945-9.135 4.053c0 0-1.966-9.309-6.828-15.518-4.862-6.206-13.45-11.484-14.587-12.364-1.137-.876.21-1.03.21-1.03z" fill="#14AFEB"/><path d="M245.9 100.109l-3.442-3.75s-4.465-6.379-6.243-8.05c-.784-.74-3.997-2.904-7.921-5.286l8.418-4.641 3.195.445s4.255 2.603 5.249 3.339c.99.732 6.799 7.118 7.332 8.267.534 1.152 1.005 7.03-.228 9.791-1.237 2.76-5.046 4.313-5.046 4.313l-.449-.206-.865-4.222zM187.221 80.34c.375.125 10.891 0 11.141 0 .081 0 1.465.268 3.32.633.865 3.485 5.776 11.19 7.406 13.692-.107.044-.21.089-.313.14-1.995 1.009-5.348 3.685-6.85 4.914.608-.42.836.74.917 2.61l-3.258.463-9.559-6.029s-1.266-6.264-2.867-9.846c-.891-1.991-2.396-4.233-4.122-6.438 0 0 3.806-.268 4.185-.14z" fill="#0082C8"/><path d="M227.838 82.747c4.13 2.488 7.561 4.792 8.378 5.562 1.777 1.67 6.242 8.05 6.242 8.05l3.442 3.75.905 4.428-9.838 5.558-1.539-.489.247.077a46.429 46.429 0 0 0-1.454-2.694l9.43-4.863-4.502-3.68-7.623 4.365c-3.412-4.803-7.431-8.867-10.608-10.689-1.056-.607-2.654-1.605-4.498-2.783l11.418-6.592z" fill="#14AFEB"/><path d="M209.092 94.665c-1.859-2.848-7.961-12.433-7.516-14.87.015-.077.033-.154.051-.235 3.346 2.256 15.261 10.254 19.291 12.566 4.623 2.654 11.024 10.052 14.757 17.561l-.247-.078-5.293-5.786s-8.779-5.955-12.15-7.689c-3.232-1.664-6.324-2.576-8.893-1.469zM238.553 94.591c.041-.025.077-.044.096-.058.519-.332 1.273.706 2.591 2.392 1.318 1.686 2.411 5.205 2.411 5.205s-3.066-2.407-4.296-3.453c-.784-.67-.853-2.709-.802-4.086z" fill="#0082C8"/><path d="M238.553 94.592c-.048 1.244.004 3.033.596 3.857 0 0-4.752 2.746-7.626 4.366a56.613 56.613 0 0 0-2.327-3.055c.63-.343 8.323-4.56 9.357-5.168z" fill="#0082C8"/><path d="M198.322 91.548l8.679 4.328c-1.836 1.233-3.96 2.93-5.072 3.84.608-.42.836.739.917 2.609l-3.258.464-9.559-6.03s-.467-2.303-1.189-4.917l9.482-.294z" fill="#151F22"/><path d="M190.025 96.763l10.196 6.431-2.113 7.24-11.531-5.72-11.864-2.584 6.173-1.314 9.139-4.053z" fill="#43474C"/><path d="M186.577 104.714l11.531 5.72v1.435l-11.531-5.72-11.864-2.584v-1.435l11.864 2.584z" fill="#151F22"/><path d="M251.472 90.017s.405 2.296.512 4.225c.107 1.929-3.169 7.248-3.169 7.248l.968 3.96s3.25-4.229 4.001-7.454c.751-3.224-2.312-7.98-2.312-7.98zM234.706 109.664l-11.848-1.214-1.94-.35s2.37 7.167 4.903 7.49c2.532.324 10.615-.997 11.072-1.56.456-.567-1.373-4.167-1.373-4.167l-.814-.199z" fill="#43474C"/><path d="M228.379 107.817c2.702.217 5.028.629 5.919 1.417.891.787 1.612 2.293.67 2.738-.942.445-7.917 1.631-9.103.895-1.185-.737-2.882-3.552-3.563-4.079-.681-.526-1.089-.927.858-.975 1.947-.041 4.06-.089 5.219.004zM247.924 98.662s2.183-5.513 2.419-6.54c.235-1.027.522-2.05 1.376-.836.854 1.211 1.66 4.531.641 7.067-1.02 2.54-2.658 4.417-3.107 4.749-.449.331-1.329-4.44-1.329-4.44z" fill="#fff"/><path d="M246.235 103.536l.728 1.281-8.476 5.024-.538-1.458 8.286-4.847z" fill="#43474C"/><path d="M241.24 93.598l1.468 3.831 3.291 4.782.236 1.325.728 1.281v-1.657l-2.374-6.802-3.349-2.76z" fill="#151F22"/><path d="M224.297 112.02c.166.346.31.692.431 1.031.629 1.796 2.429 1.656 2.429 1.656 4.237-.014 7.185-.776 8.624-1.211.586-.176.862-.758.571-1.457l-.832-2.183-3.489-6.036-3.416-2.776 2.429-1.472 3.361 2.841 3.544 5.974.538 1.458 8.477-5.028v-1.653l-2.374-6.805-3.35-2.761 2.429-1.472 3.295 2.823 2.429 6.739.508 3.155c.784-.946 2.956-4.642 3.537-6.791.537-1.977-.107-4.167-1.347-6.534l1.469-2.657c1.582 2.47 1.678 3.99 1.678 3.99.118 5.377-5.643 15.4-5.643 15.4l-12.286 7.093s-11.215 4.347-17.322.769c-.618-.36-1.218-1.339-1.803-2.33l6.113-1.763z" fill="#2C2D30"/><path d="M232.031 103.819l2.374-1.409-3.361-2.838-2.429 1.472 3.416 2.775zM244.589 96.358l2.374-1.41-3.294-2.822-2.429 1.472 3.349 2.76zM253.56 88.861l-1.469 2.657c-.261-.5-.552-1.012-.861-1.53-1.782-2.964-3.954-5.566-6.626-7.756-2.672-2.19-4.693-3.405-4.693-3.405l1.826.442 9.997 7.17c.762.88 1.354 1.693 1.826 2.422zM199.894 102.148c1.781-3.703 5.929-4.306 9.073-2.451 2.197 1.296 9.736 6.419 11.789 8.031 1.668 1.307 2.824 2.812 3.541 4.292l-6.113 1.763c-.394-.666-.784-1.34-1.171-1.825-.953-1.211-4.329-4.222-8.826-7.568-4.498-3.346-6.799-.898-7.991 1.785-1.307 2.93-1.642 10.472-1.642 10.472l-1.049-.703c.353-9.662.743-10.384 2.389-13.796z" fill="#43474C"/><path d="M228.615 101.044l1.733 3.931 4.358 4.689.814.195-3.489-6.04-3.416-2.775z" fill="#151F22"/><path d="M174.713 102.13s-2.05-12.334-5.929-16.73c-3.88-4.394-14.171-11.69-14.171-11.69l-4.035 2.172-.257-.776 3.57-3.258s3-6.673 13.085-7.137l6.155 5.275-13.45 1.913s-1.343.155-.206 1.035c1.137.88 9.725 6.154 14.587 12.364 4.862 6.205 6.828 15.518 6.828 15.518l-6.177 1.314z" fill="#43474C"/><path d="M185.226 83.501c-3.596-5.429-9.681-11.44-12.095-13.512 0 0-.843-.721-.987-1.343-.143-.622.184-4.064 3.46-6.29 2.647-1.8 8.179-4.72 12.633-2.99 4.453 1.73 11.583 7.914 13.692 10.623 2.109 2.706 7.958 4.74 7.958 4.74-4.796-.201-7.884 2.725-8.311 5.066-.199 1.097.927 3.644 2.396 6.371-6.835-1.83-15.246-2.47-18.746-2.665z" fill="#252E30"/><path d="M173.127 69.99s-.843-.722-.987-1.344c-.048-.217-.04-.777.129-1.505.975 2.19 1.999 3.655 6.32 5.962 4.888 2.61 16.092 4.141 20.601 4.93 1.167.201 2.058.452 2.743.71-.173.357-.295.71-.358 1.052-.198 1.097.928 3.644 2.397 6.372-6.832-1.826-15.242-2.466-18.747-2.665-3.596-5.433-9.68-11.44-12.098-13.512z" fill="#151F22"/><path d="M211.455 74.903c.051-1.837-.147-7.998-4.561-13.512-5.256-6.57-11.495-10.115-11.495-10.115s-1.248-.327-2.101 1.314c-.681 1.31-2.353 5.948-3.004 7.781l-8.815-4.07s1.729-3.902 5.524-6.523c1.627-1.122 6.935-1.987 6.935-1.987s11.171 7.891 14.94 13.519c3.265 4.88 3.769 12.055 3.843 13.88a14.692 14.692 0 0 0-1.266-.287z" fill="url(#paint2_linear)"/><path d="M223.826 80.218s1.682 1.498 3.022 3.28c1.343 1.781 4.88 5.348 1.472 7.387-3.412 2.04-6.82 0-9.044-1.214-2.223-1.215-8.833-5.4-10.567-7.49-1.73-2.095-2.764-4.289.18-5.632 2.949-1.344 7.91-1.035 14.937 3.67z" fill="#344145"/><path d="M228.32 90.885c-3.412 2.04-6.82 0-9.043-1.215-2.224-1.214-8.834-5.4-10.568-7.49-1.428-1.73-2.381-3.53-1.008-4.859.618 3.64 6.485 6.979 9.249 7.417 2.765.438 4.859-1.056 6.898-2.22.681-.39 1.027-.772 1.185-1.118.556.574 1.219 1.31 1.815 2.101 1.344 1.778 4.884 5.345 1.472 7.384z" fill="url(#paint3_linear)"/><path d="M222.829 73.328V70.49l-.122-1.329-2.429.162.346 2.036.188 2.315 2.017-.346z" fill="#414E52"/><path d="M224.514 67.022l1.686-3.217s0-.71-.71-.883c-.71-.173-1.056.254-1.292.6s-1.671 2.886-1.671 2.886l1.987.614z" fill="url(#paint4_linear)"/><path d="M212.489 79.68s-1.417-.014-2.396-.426c-.979-.409-3.765-1.167-4.332-.96-.567.205.291 1.063.368 1.14.081.078 1.947 1.27 1.947 1.27s2.054.048 3.305.552c1.252.504 2.15.504 2.15.504l-1.042-2.08z" fill="#414E52"/><path d="M223.119 72.71s3.008 7.862-.471 9.89c-3.478 2.028-9.599-.725-9.599-.725l-1.668-2.86c0-.004 2.717-4.495 11.738-6.305z" fill="#151F22"/><path d="M226.848 68.907l-2.028-1.122v-.98s-2.028-1.159-2.68-.577c-.651.578-1.991 2.68-2.028 3.08-.037.398-.088 1.406.512 2.054 0 0-.158-1.733.331-1.906.49-.173 1.796-.254 1.87 1.207l2.183.814 1.844-1.307v-1.263h-.004z" fill="#3B4548"/><path d="M225.004 71.469l-2.183-.813c-.07-1.458-1.38-1.38-1.87-1.208-.489.173-.331 1.907-.331 1.907-.6-.648-.548-1.653-.512-2.054a.622.622 0 0 1 .026-.107c.342-.254.854-.508 1.447-.43 1.071.136 1.417.67 1.417.67l1.94.74 1.906-1.27v1.25l-1.84 1.315z" fill="#151F22"/><path d="M226.439 69.157c.184 0 .35-.132.387-.32.04-.199.173-.53.338-.618.409-.221 4.215-2.404 4.377-2.496a.39.39 0 0 0 .143-.537.391.391 0 0 0-.537-.144c-.04.022-3.957 2.271-4.358 2.485-.559.302-.718 1.078-.736 1.167a.393.393 0 0 0 .313.46.51.51 0 0 0 .073.004z" fill="#414E52"/><path d="M206.092 77.582s.427.221.629.63c.207.409.394.63.457.71.062.078 1.259 1.355 1.259 1.355v1.262l-1.892.836s-1.859-1.182-2.382-1.086c-.519.096-1.704.254-1.704.254s-.835.25-.883-.582c0 0 .567-.268.519-.85-.048-.585-.519-.835-.519-.835v-.49l4.516-1.204z" fill="#3B4548"/><path d="M206.549 82.375s-1.859-1.182-2.382-1.086c-.519.096-1.704.254-1.704.254s-.836.25-.883-.582c0 0 .566-.268.519-.85-.048-.585-.519-.835-.519-.835v-.49c.96.298.946 1.748.946 1.748s1.623-.143 2.484-.062c.858.077 1.237.74 1.237.74l2.19-.931v1.262l-1.888.832z" fill="#151F22"/><path d="M195.845 80.31l5.738-1.041s.471.253.519.835c.048.582-.519.85-.519.85s-3.942.803-4.744.932c-.803.125-.994-.126-1.182-.538-.188-.408.188-1.038.188-1.038z" fill="url(#paint5_linear)"/><path d="M199.235 84.738c.07 0 .136-.019.202-.055.648-.387 3.902-2.33 4.252-2.621.162-.132 1.038-.383 1.759-.53a.394.394 0 0 0-.158-.77c-.394.082-1.712.373-2.098.696-.232.195-2.672 1.668-4.152 2.551a.39.39 0 0 0-.136.537.374.374 0 0 0 .331.192z" fill="#414E52"/><path d="M213.523 100.65a.624.624 0 0 0 .103.07l9.442 5.006a.557.557 0 0 0 .265.066c.018 0 .036 0 .055-.003l8.771-.858a.54.54 0 0 0 .236-.077l2.171-1.274 15.703-9.213a.578.578 0 0 0 .261-.339l1.572-5.672a.58.58 0 0 0-.177-.585c-.203-.173-4.947-4.273-6.666-5.514-.791-.57-1.815-.861-3.051-.861-.979 0-1.73.188-1.763.199a.483.483 0 0 0-.162.07l-6.482 4.052a.564.564 0 0 0-.258.38l-.714 3.794-5.852 3.42-6.151.28a.523.523 0 0 0-.247.07c-.018.01-.861.47-1.947 1.074h-.003c-1.322.736-3.004 1.679-3.983 2.275-1.082.655-1.66 1.384-1.726 2.164-.067.876.537 1.421.603 1.476zm21.102-14.097l1.336-.836 5.109 4.487-14.344 8.389-6.603-3.376c.412-.228.729-.4.891-.49l6.161-.279a.554.554 0 0 0 .262-.077l6.198-3.622a.564.564 0 0 0 .272-.387l.718-3.81zm-.368 15.89l-6.323-3.236 14.042-8.211 4.726 4.148-12.445 7.299zm13.899-16.383l-6.048 3.537-5.138-4.51 3.843-2.4a6.884 6.884 0 0 1 1.402-.143c.681 0 1.645.11 2.381.645.773.555 2.22 1.744 3.56 2.87zm1.34 7.442l-1.76 1.034-4.722-4.148 6.069-3.548c.795.673 1.469 1.251 1.83 1.56l-1.417 5.102zm-28.563 9.802l5.83-3.412 6.324 3.235-1.164.681-8.476.828-2.514-1.332zm-6.872-4.041c.036-.383.456-.832 1.178-1.274.901-.549 2.414-1.402 3.68-2.106l6.637 3.394-5.809 3.398-5.51-2.923a.672.672 0 0 1-.176-.49zM150.887 67.376c-.014.839.593 1.284.663 1.332.49.343 12.021 8.433 13.862 9.449.806.445 1.789.67 2.919.67.975 0 1.708-.173 1.737-.18a.489.489 0 0 0 .144-.056c.022-.01 2.098-1.17 4.196-2.315.879-.479 1.398-1.082 1.542-1.789.184-.91-.342-1.601-.401-1.675-.019-.022-.033-.04-.056-.059l-6.941-6.58 16.375-9.836c1.594.791 9.202 4.564 10.531 5.094.493.2 1.064.298 1.697.298a6.737 6.737 0 0 0 1.929-.287c.029-.007.055-.022.084-.033.111-.055 2.706-1.38 4.642-2.639.821-.534 1.019-1.167 1.045-1.608.07-1.245-1.145-2.286-1.284-2.404-.012-.011-.026-.018-.037-.03-.49-.338-12.022-8.333-14.046-9.492-.622-.353-1.255-.534-1.885-.534a3.373 3.373 0 0 0-2.168.81c-1.796 1.049-29.439 17.215-32.424 19.155-1.395.912-2.109 1.822-2.124 2.709zM194 49.572l-9.113 5.458-7.126-3.695c4.689-2.75 8.204-4.803 8.304-4.862a.675.675 0 0 0 .117-.089 2.18 2.18 0 0 1 1.425-.533c.427 0 .872.128 1.318.382.725.413 2.768 1.775 5.075 3.339zm-2.642 8.657c-1.977-.964-4.086-2.006-5.264-2.588l8.944-5.359a1303.15 1303.15 0 0 1 4.502 3.085l-8.087 4.792a.329.329 0 0 0-.095.07zm1.214.589l8.006-4.74c1.251.864 2.131 1.475 2.282 1.578.25.214.887.887.854 1.447-.007.095-.022.386-.53.714-1.748 1.137-4.137 2.374-4.491 2.554a5.854 5.854 0 0 1-1.538.217c-.486 0-.913-.073-1.27-.217-.46-.184-1.763-.802-3.313-1.553zm-24.856 6.526l-4.969-5.179a4227.73 4227.73 0 0 1 13.851-8.15l7.144 3.707-16.026 9.622zm3.511 4.932l-8.156 5.006a531.588 531.588 0 0 1-4.568-3.125l9.036-5.377 3.688 3.496zm-7.114 5.705l7.968-4.891 2.592 2.455c.051.08.232.383.158.725-.096.445-.578.791-.968 1.001-1.877 1.023-3.74 2.061-4.13 2.278a7.55 7.55 0 0 1-1.402.133c-.939 0-1.734-.177-2.367-.53-.328-.173-.986-.596-1.851-1.17zm-12.084-8.602c.007-.217.184-.824 1.604-1.752.887-.578 4.06-2.473 8.102-4.866l4.976 5.183-9.239 5.499c-2.804-1.943-5.212-3.633-5.267-3.67a.483.483 0 0 1-.176-.394z" fill="#BBD2E0"/><path d="M188.439 94.224s.07 1.041.511 1.06c.446.018 1.094-1.079 1.811-1.06.718.018 1.189-.066 1.399 1.59.21 1.656 1.248 3.386 2.083 4.435.832 1.049 2.19 2.437 2.408 3.607.217 1.171.379 2.154-1.141 2.312-1.517.158-3.155.328-4.439-.714-1.285-1.042-3.486-4.395-3.898-5.197-.413-.803-.788-1.966-.387-3.048.405-1.086 1.292-1.741 1.653-2.985z" fill="#DFE6EA"/><path d="M188.439 94.224s.07 1.041.511 1.06c.446.018 1.094-1.079 1.811-1.06.718.018 1.189-.066 1.399 1.59.21 1.656 1.248 3.386 2.083 4.435.832 1.049 2.19 2.437 2.408 3.607.217 1.171.379 2.154-1.141 2.312-1.517.158-3.155.328-4.439-.714-1.285-1.042-3.486-4.395-3.898-5.197-.413-.803-.788-1.966-.387-3.048.405-1.086 1.292-1.741 1.653-2.985z" fill="#231F20"/><path d="M186.79 97.205c.051-.143.118-.28.184-.408-.037.537-.044 1.377.063 1.781.161.608.99 1.289 1.251 2.157.261.869 1.807 4.336 3.857 4.741 1.771.35 3.394.32 4.638-.427-.029.593-.32 1.016-1.277 1.115-1.516.159-3.154.328-4.439-.714-1.285-1.041-3.486-4.394-3.898-5.197-.405-.802-.784-1.965-.379-3.048z" fill="#4C575E"/><path d="M189.44 96.79c1.075-1.105 2.492-.693 2.507-.689l.07-.22c-.063-.02-1.565-.465-2.743.746l.166.162zM189.705 97.596c1.074-1.105 2.495-.692 2.506-.689l.07-.224c-.062-.019-1.564-.464-2.742.747l.166.166z" fill="#2E383B"/><path d="M191.601 62.48s3.765-1 4.487-3.975l1.085 3.015s9.975 4.155 14.683 7.244c3.478 2.282 2.039 6.489 2.411 6.934 0 0-3.313-.843-4.446-.968-1.679-.188-1.506-.456-2.787-.441-2.713-.692-8.782-.7-10.1-1.274-1.848-.802-6.75-9.084-6.75-9.084l1.417-1.45z" fill="#132D3D"/><path d="M193.231 96.793s-.132 1.078-2.179 1.078c-2.554 0-4.461-1.571-4.461-1.571s2.834-9.051 3.147-10.903c.313-1.851 3.957-5.392 3.957-5.392s-7.336-5.194-8.698-6.35c-1.362-1.152-3.46-4.155-3.703-5.87-.243-1.712-.176-6.567 1.049-8.315 0 0 3.6 4.505 9.258 3.003l1.188 4.645s9.328 5.938 9.434 10.48c.103 4.553-8.528 16-8.992 19.195z" fill="#294F6D"/><path d="M198.283 40.042s-6.574-.412-10.568 4.285c-3.99 4.697-3.581 8.407-3.99 10.284-.412 1.877-1.078 2.485-1.575 3.894-.854 2.426-.964 4.958-.964 4.958s5.064 1.598 9.172 1.447c4.108-.151 6.817-3.39 6.817-3.39l-.192-3.015s-.099-2.249.626-2.72c.725-.471 4.605-2.944 4.899-7.406.295-4.46-2.819-7.689-4.225-8.337z" fill="#BA001F"/><path d="M200.648 82.625c.629-.022 1.789-.386 2.334-.637.544-.25.67-1.023.625-1.59-.04-.566-.721-1.663-.721-1.663s-.512-1.079-.721-1.289c-.21-.21-3.346-1.693-3.994-1.88 0 0-2.05 1.045-2.175 1.527-.126.482.857 3.305 2.403 3.618l.346.346c.147.147.144.42.228.574.291.523.402 1.038 1.675.994z" fill="#DDBEA4"/><path d="M190.158 46.808c1.262.445 3.055 2.153 2.112 4.91-.938 2.76-.938 5.01-.938 7.358s.699 5.086.699 5.086l7.991 12.188s-.861.482-1.895 1.229c-.306.22-2.062 1.02-2.062 1.02s-8.193-9.486-9.191-12.364c-.997-2.879-2.23-12.21-1.995-14.502.229-2.283 1.605-6.228 5.279-4.925z" fill="#C42F2F"/><path d="M224.404 67.06c-.261-.361-1.182-.42-1.182-.42l-1.431.048-1.697-1.226c-.085-1.163 1.465-2.264 1.465-2.264s2.112.324 2.698.217c.585-.106 1.163 0 2.109.398.949.397.648 1.649.648 1.649-.306 1.432-1.443 2.028-2.157 2.267-.173-.265-.35-.526-.453-.67z" fill="#DDBEA4"/><path d="M201.182 43.915s4.038-.398 6.36 2.333c2.323 2.732 5.93 6.24 7.505 7.575 3.346 2.835 6.813 9.063 6.813 9.063s-1.284 1.619-1.586 2.756c0 0-2.768-1.516-3.467-2.002-1.097-.758-6.39-7.417-6.39-7.417s-7.895-5.319-9.717-6.504c-1.819-1.189.482-5.804.482-5.804z" fill="#BA001F"/><path d="M204.637 43.414s.015-.338-.272-.666c-.795-.91-4.012-2.702-4.012-2.702l-3.276 4.26 3.029 3.069 3.155-1.068 1.376-2.893z" fill="#000"/><path d="M199.955 34.823l-3.964-.696-1.347 7.137c-.033.497-.132.94-.125 1.37.007.47.136.931.618 1.45 0 0 .667.611 1.465 1.251.324.262 1.325 1.149 2.205 1.002.324-.052.994-.277.994-.277.611-.231.931-.438 1.296-1.093.471-.846 2.451-7.796 2.451-7.796l.615-2.315-4.208-.033z" fill="#D6BBA1"/><path d="M203.717 33.737c.641.795.582 1.737.288 2.411-.262.6-.413 1.034-.461 1.023 0 0-.382-1.505-1.509-.81-1.086.67-1.649 1.226-1.73 1.182 0 0 .111-1.244.177-1.288a85.586 85.586 0 0 1-1.123 1.093c-.066.03-.224-.6-.349-.593-1.3.07-1.76 1.554-1.833 2.183l-.114.626c-.059.324-.063.684-.383.61-.254-.058-.328-.26-.479-.6 0 0-.478-1.35-1.351-1.144-.762.18-.46 2.135-.43 2.23l-.593.917c-.305.033 0 0-.269-.614-.666-1.532-.791-2.474-.898-2.964-.555-2.503.405-4.711 2.109-5.918.534-.376 2.643-1.182 2.698-1.476.008-.037.346.302.84.379 1.582.246 1.012-.574 1.012-.574.416 0 1.296 1.005 1.358 1.078.49.556.648-.17.648-.17.482.354 2.392 2.42 2.392 2.42z" fill="#633A11"/><path opacity=".49" d="M189.817 39.067s-1.097-6.408 4.041-9.103c4.543-2.377 8.223.277 9.335 1.234 1.31 1.122 3.062 4.184 2.547 7.17-.563 3.272-1.719 7.413-1.719 7.413s-.11 1.516-2.691 2.13c-1.336.321-2.782.2-4.634-.93-2.26-1.38-5.304-4.399-5.304-4.399s-1.461-1.306-1.575-3.515z" fill="#2E3C3F"/><path d="M203.957 44.472c-.512.6-1.844.942-2.787 1.023-1.026.092-1.696.034-2.62-.57-.409-.269-1.531-1.042-2.459-1.966-.861-.861-.736-1.597-.736-1.597s-.081-.696.073-2.139c.265-2.447 1.815-1.369 1.815-1.369s1.193.88 2.175 1.494c1.042.652 1.719.77 3.424.74 1.88-.033 2.587-.832 2.852-1.487.015-.077.026-.154.041-.228.515-2.989-1.237-6.047-2.547-7.17-1.116-.957-4.797-3.611-9.335-1.233-5.138 2.694-4.041 9.102-4.041 9.102.114 2.209 1.579 3.512 1.579 3.512s3.044 3.018 5.304 4.398c1.851 1.134 3.298 1.252 4.634.932 2.58-.615 2.69-2.132 2.69-2.132s.273-.979.619-2.363c-.254.457-.534.884-.681 1.053z" fill="#104257"/></g><defs><linearGradient id="paint0_linear" x1="240.947" y1="111.553" x2="242.624" y2="101.528" gradientUnits="userSpaceOnUse"><stop stop-color="#AAACAE"/><stop offset="1" stop-color="#606365"/></linearGradient><linearGradient id="paint1_linear" x1="242.593" y1="103.505" x2="242.367" y2="106.276" gradientUnits="userSpaceOnUse"><stop stop-color="#B7B9BB"/><stop offset="1" stop-color="#6D7072"/></linearGradient><linearGradient id="paint2_linear" x1="192.629" y1="55.627" x2="209.474" y2="76.24" gradientUnits="userSpaceOnUse"><stop stop-color="#485255"/><stop offset="1"/></linearGradient><linearGradient id="paint3_linear" x1="220.92" y1="83.731" x2="215.322" y2="84.814" gradientUnits="userSpaceOnUse"><stop stop-color="#283539"/><stop offset="1" stop-color="#151F22"/></linearGradient><linearGradient id="paint4_linear" x1="223.538" y1="64.401" x2="225.308" y2="65.326" gradientUnits="userSpaceOnUse"><stop stop-color="#414E52"/><stop offset="1" stop-color="#2E383B"/></linearGradient><linearGradient id="paint5_linear" x1="198.719" y1="79.892" x2="199.009" y2="81.442" gradientUnits="userSpaceOnUse"><stop stop-color="#414E52"/><stop offset="1" stop-color="#2E383B"/></linearGradient><clipPath id="clip0"><path fill="#fff" transform="translate(145.73 29)" d="M0 0h117.03v111.049H0z"/></clipPath></defs></svg>