<svg width="375" height="156" fill="none" xmlns="http://www.w3.org/2000/svg" viewBox="0 0 375 156"><path d="M375 0H0v156h375V0z" fill="#F5FCFF"/><path d="M187.5 150.245c61.027 0 110.5-18.497 110.5-41.313 0-22.817-49.473-41.313-110.5-41.313S77 86.115 77 108.932c0 22.816 49.473 41.313 110.5 41.313z" fill="#004EBB"/><g clip-path="url(#clip0)"><path d="M214.64 138.371l20.092-12.066c1.713-1.059 1.691-3.554-.041-4.586l-59.57-35.416-7.831 24.764 47.35 27.304z" fill="#0032A5"/><path d="M211.736 140.056l-41.869-27.767c-2.618-1.514-4.74-5.567-4.74-9.058V11.844c0-3.49 2.122-5.095 4.74-3.586l43.715 25.24c2.617 1.514 4.74 5.568 4.74 9.058v90.956c0 2.3-.859 3.254-2.305 4.09l-4.281 2.454z" fill="#A8C9ED"/><path d="M187.518 54.205s-22.414 52.422-22.414 48.931l-3.685-92.41 5.494-2.9c.804-.38 1.822-.295 2.927.342l43.714 25.24c1.277.737 2.441 2.082 3.291 3.672l-29.327 17.125z" fill="#EBF3FF"/><path d="M209.178 139.757l-43.61-25.241c-2.618-1.513-4.636-5.567-4.636-9.057V14.071c0-3.49 2.068-5.094 4.686-3.585l43.583 25.24c2.617 1.514 4.608 5.568 4.608 9.058v91.387c.004 3.495-2.013 5.099-4.631 3.586z" fill="#fff"/><path d="M208.301 140.084l-43.606-25.241c-2.618-1.513-4.635-5.567-4.635-9.057V14.398c0-3.49 2.067-5.094 4.685-3.586l43.583 25.241c2.618 1.514 4.608 5.567 4.608 9.058v91.387c.005 3.49-2.013 5.094-4.635 3.586z" fill="#fff"/><path d="M207.092 124.464l-42.519-24.55a1.43 1.43 0 0 1-.714-1.236V21.502a1.43 1.43 0 0 1 2.145-1.236l42.519 24.55c.441.254.714.727.714 1.236v77.176a1.43 1.43 0 0 1-2.145 1.236z" fill="#36A9E1"/><path d="M193.935 33.686L180.451 25.9c-.472-.273-.859-1.014-.859-1.645 0-.632.387-.923.859-.65l13.484 7.785c.473.272.859 1.013.859 1.645 0 .631-.386.922-.859.65z" fill="#6899E3"/><path d="M215.908 57.604c-.713.304-1.299-.078-1.299-.85V51.55c0-.772.586-1.654 1.299-1.958.714-.305 1.3.077 1.3.85v5.203c0 .773-.586 1.654-1.3 1.959z" fill="#E6F0FF"/><path d="M216.467 57.672c-.713.304-1.299-.078-1.299-.85v-5.204c0-.772.586-1.654 1.299-1.959.714-.304 1.3.078 1.3.85v5.204c0 .773-.586 1.654-1.3 1.959z" fill="#6899E3"/><path d="M215.908 67.075c-.713.304-1.299-.078-1.299-.85V61.02c0-.773.586-1.654 1.299-1.959.714-.304 1.3.078 1.3.85v5.204c0 .772-.586 1.654-1.3 1.959z" fill="#E6F0FF"/><path d="M216.467 67.143c-.713.304-1.299-.077-1.299-.85v-5.204c0-.772.586-1.654 1.299-1.958.714-.305 1.3.077 1.3.85v5.203c0 .773-.586 1.654-1.3 1.959z" fill="#6899E3"/><path d="M201.27 86.048l-26.127-15.333c-1.431-.84-2.658.145-2.726 2.19l-.35 10.317v.031l-.387 11.485a5.186 5.186 0 0 0 2.559 4.644l23.968 14.066c2.177 1.277 4.926-.237 5.013-2.759l.132-3.958v-.018l.531-15.697c.069-2.082-.927-3.977-2.613-4.968zM201.906 46.179l-24.931-14.266c-1.364-.782-2.518.168-2.563 2.104l-.223 9.785v.032l-.396 17.383c-.04 1.836.855 3.495 2.345 4.344l22.901 13.102c2.09 1.196 4.776-.522 4.835-3.094l.223-9.799v-.018l.336-14.888c.046-1.977-.918-3.763-2.527-4.685z" fill="#0084C4"/><path d="M197.735 49.932l-24.932-14.265c-1.364-.782-2.518.168-2.563 2.104l-.223 9.785v.032l-.395 17.383c-.041 1.836.854 3.494 2.345 4.344l22.9 13.102c2.09 1.195 4.776-.522 4.835-3.095l.223-9.798v-.018l.336-14.888c.046-1.977-.918-3.763-2.526-4.686z" fill="#D9E9FF"/><path d="M189.362 71.232c3.657-1.629 4.256-8.262 1.337-14.818-2.918-6.555-8.249-10.549-11.906-8.92-3.657 1.627-4.256 8.261-1.337 14.816 2.918 6.556 8.249 10.55 11.906 8.922z" fill="#fff"/><path d="M187.296 67.198c.727.481 1.577-.277 1.345-1.21-.223-.908-.505-1.763-.732-2.135-.204-.336-.454-.6-.673-.832-.222-.24-.518-.577-.804-.904l-.286-.327-.577-.691a20.25 20.25 0 0 1-.259-.373c-.014-.023-.046-.059-.06-.086-.009-.046-.004-.096-.009-.141-.018-.296-.041-.595-.059-.89.218-.142.346-.46.378-.878.381.264.445-.304.463-.704.014-.287.023-1.005-.277-1.273l.013-.127c.037-.236.064-.482.055-.755a2.816 2.816 0 0 0-.173-.886.934.934 0 0 0-.1-.204c0-.091-.027-.214-.059-.323-.245-.85-.709-1.613-1.181-2.081-.473-.468-.95-.677-1.396-.746-.327-.05-.754 0-.736.673a.7.7 0 0 0 .05.255c-.063-.037-.109.013-.136.068-.086.172-.109.431-.096.709.019.277.073.577.137.877l.027.15c-.364-.25-.264.613-.209.968.064.44.195 1.1.536 1.354.032.195.073.395.132.595.086.291.2.55.332.787 0 .004-.005.004 0 .009.023.304.041.609.063.913 0 .027.01.077.01.105-.005-.023-.06.032-.073.036-.05.032-.1.06-.15.09v-.004l-.146-.027v-.004l-.036-.01a2.115 2.115 0 0 0-.291-.045h-.013c-.123-.01-.25-.014-.373-.018-.223-.005-.45-.068-.668-.064-.541.014-1.254.591-1.309 2.073-.023.695.286 1.358.804 1.717l6.536 4.359zm-1.35-9.194c-.005.04-.005.073-.005.1 0-.027.005-.064.005-.1z" fill="#C74E10"/><path d="M188.595 75.473c-1.449 0-3.017-.477-4.617-1.422-6.026-3.563-10.83-12.825-10.707-20.646.063-4.077 1.481-7.19 3.89-8.535 2.091-1.172 4.754-.927 7.49.69 6.026 3.564 10.829 12.826 10.707 20.647-.064 4.077-1.482 7.19-3.891 8.535a5.78 5.78 0 0 1-2.872.731zm-8.562-30.88a5.36 5.36 0 0 0-2.654.672c-2.263 1.268-3.599 4.24-3.658 8.154-.118 7.675 4.585 16.76 10.489 20.25 2.59 1.532 5.094 1.777 7.039.686 2.264-1.267 3.6-4.24 3.659-8.153l.222.005-.222-.005c.118-7.675-4.586-16.76-10.489-20.25-1.523-.905-3.018-1.36-4.386-1.36z" fill="#fff"/><path d="M202.275 60.473c1.926-1.127 1.907-4.743-.042-8.078-1.95-3.334-5.092-5.125-7.018-3.998-1.927 1.126-1.908 4.742.042 8.077 1.949 3.334 5.091 5.125 7.018 3.999z" fill="#C74E10"/><path d="M198.625 57.027a.223.223 0 0 1-.223-.223v-5.18a.223.223 0 0 1 .446 0v5.18c0 .123-.1.223-.223.223z" fill="#fff"/><path d="M200.429 56.277a.214.214 0 0 1-.127-.041l-4.113-2.9a.225.225 0 0 1 .259-.368l4.113 2.9a.225.225 0 0 1-.132.409z" fill="#fff"/><path d="M194.967 117.506c2.19 1.255 4.922-.291 4.981-2.813l.091-3.958v-.018l.354-15.702c.046-2.086-.968-3.972-2.668-4.945L171.43 75.028c-1.44-.823-2.654.177-2.704 2.222l-.231 10.321v.032l-.26 11.489a5.195 5.195 0 0 0 2.609 4.617l24.123 13.797z" fill="#D9E9FF"/><path d="M192.531 109.322l-18.56-10.521c-.923-.523-1.668-1.895-1.659-3.054l.018-2.282c.009-1.158.773-1.677 1.691-1.154l18.56 10.521c.922.522 1.668 1.895 1.659 3.054l-.018 2.281c-.01 1.159-.773 1.677-1.691 1.155zM193.067 100.455l-18.56-10.52c-.923-.523-1.668-1.896-1.659-3.055l.018-2.281c.009-1.16.773-1.677 1.691-1.155l18.56 10.521c.923.523 1.668 1.895 1.659 3.054l-.018 2.281c-.005 1.155-.768 1.677-1.691 1.155z" fill="#ADD0FF"/><path d="M177.52 97.851l-.523-.282.378-.182-.364-.581-.373.181.01-.54-.523-.282-.009.54-.364-.581-.372.177.363.587-.522-.287-.01.537.523.286-.373.182.359.577.378-.182-.009.54.518.287.009-.545.363.586.373-.182-.364-.581.523.281.009-.536zM180.942 99.714l-.522-.286.377-.182-.364-.577-.372.182.009-.54-.523-.287-.009.54-.359-.581-.377.182.363.581-.522-.281-.009.536.522.282-.372.181.359.582.377-.182-.009.541.518.282.009-.541.363.582.373-.177-.364-.587.523.287.009-.537zM184.364 101.573l-.522-.282.377-.182-.364-.582-.372.182.009-.541-.523-.281-.005.54-.363-.581-.373.177.359.586-.522-.286-.005.536.523.286-.378.182.36.577.377-.181-.009.54.518.287.009-.541.363.582.373-.182-.364-.582.523.282.009-.536zM187.786 103.436l-.522-.286.377-.182-.364-.577-.372.182.009-.541-.518-.287-.009.541-.364-.581-.373.181.359.582-.518-.282-.009.537.523.281-.377.182.359.582.377-.182-.009.541.518.282.009-.541.363.582.373-.178-.363-.586.522.286.009-.536zM191.209 105.295l-.523-.281.377-.182-.359-.582-.377.182.009-.541-.518-.282-.009.541-.364-.582-.372.178.363.586-.522-.286-.01.536.523.286-.377.182.359.577.377-.182-.009.541.518.286.009-.54.364.581.372-.182-.363-.581.522.282.01-.537zM190.486 96.951l-14.402-8.28c-.445-.255-.836-.859-.868-1.34-.032-.483.304-.669.745-.414l14.402 8.275c.445.255.836.86.868 1.341.036.486-.3.673-.745.418z" fill="#fff"/><path d="M189.55 133.98l-.082-1.718-1.077.055-.491.427-26.29-15.002c-.746-.423-2.05-.363-2.904.136l-15.988 9.34-1.486-.341.072 1.731V128.626c.018.259.182.505.5.687l27.45 15.665c.745.423 2.049.363 2.904-.136l16.696-9.753c.55-.318.782-.736.696-1.109z" fill="#22009C"/><path d="M161.519 115.815l27.454 15.666c.745.422.654 1.181-.2 1.676l-16.697 9.753c-.855.5-2.159.559-2.904.137l-27.459-15.666c-.745-.422-.654-1.181.2-1.677l16.697-9.752c.859-.5 2.163-.564 2.909-.137z" fill="#85BAFF"/><path d="M146.821 126.832l4.877 2.781c.236.136.204.373-.064.532-.268.159-.681.177-.918.041l-4.876-2.782c-.236-.136-.205-.372.063-.531.273-.155.687-.173.918-.041zM159.669 117.315l4.667 2.663c.291.168.259.464-.077.659-.336.196-.85.218-1.141.055l-4.667-2.664c-.291-.168-.259-.463.077-.658.332-.196.85-.219 1.141-.055z" fill="#D9E9FF"/><path d="M156.329 119.474l4.013 2.29c.472.268.413.75-.128 1.068l-.763.45c-.541.318-1.373.354-1.845.086l-4.013-2.29c-.473-.268-.414-.75.127-1.068l.768-.45c.541-.318 1.368-.355 1.841-.086z" fill="#FFC248"/><path d="M160.919 132.426l12.229 6.98c.237.137.205.373-.063.532-.268.159-.682.177-.918.041l-12.23-6.98c-.236-.137-.204-.373.064-.532.272-.155.686-.173.918-.041zM172.444 134.393l4.063 2.318c.354.204.313.564-.096.804-.409.237-1.031.269-1.39.064l-4.063-2.318c-.355-.204-.314-.563.095-.804.409-.236 1.036-.268 1.391-.064zM165.577 130.476l4.063 2.318c.354.204.313.563-.096.804-.409.236-1.031.268-1.39.064l-4.063-2.318c-.355-.205-.314-.564.095-.805.409-.24 1.032-.268 1.391-.063zM158.705 126.553l4.063 2.318c.355.205.314.564-.095.805-.409.236-1.032.268-1.391.063l-4.063-2.317c-.354-.205-.313-.564.096-.805.413-.236 1.036-.263 1.39-.064zM151.839 122.636l4.063 2.318c.354.205.313.564-.096.805-.409.236-1.032.268-1.391.063l-4.062-2.318c-.355-.204-.314-.563.095-.804.409-.236 1.036-.268 1.391-.064z" fill="#D9E9FF"/><path d="M179.838 130.208c1.063-.622 2.804-.627 3.881-.013 1.077.613 1.091 1.617.023 2.24-1.064.623-2.804.627-3.881.014-1.077-.618-1.087-1.623-.023-2.241zM202.274 99.166c1.926-1.126 1.907-4.742-.043-8.077-1.949-3.335-5.091-5.125-7.017-4-1.927 1.127-1.908 4.743.042 8.078 1.949 3.335 5.091 5.125 7.018 3.999z" fill="#C74E10"/><path d="M199.925 96.646a.762.762 0 0 1-.386-.114l-2.145-1.258c-.428-.25-.778-.873-.796-1.414l-.059-1.672c-.009-.323.1-.573.305-.695.186-.114.427-.096.663.04l2.145 1.26c.427.25.777.872.796 1.413l.059 1.672c.009.323-.1.577-.305.695a.526.526 0 0 1-.277.073zm-2.8-4.78a.094.094 0 0 0-.05.013c-.045.027-.09.118-.086.295l.059 1.673c.014.381.282.868.577 1.04l2.145 1.26c.087.05.164.067.205.04.045-.027.091-.118.086-.295l-.059-1.673c-.013-.381-.282-.868-.577-1.04l-2.145-1.26a.318.318 0 0 0-.155-.054zM199.407 92.338a.226.226 0 0 1-.223-.218l-.022-.668c-.014-.35-.305-.823-.623-1.014l-.536-.313c-.141-.082-.237-.082-.278-.06-.045.028-.072.11-.068.223l.023.614a.224.224 0 0 1-.218.232.23.23 0 0 1-.232-.219l-.023-.613c-.009-.282.096-.509.287-.623.2-.118.468-.1.731.055l.537.314c.459.268.827.877.845 1.381l.023.668a.224.224 0 0 1-.219.232c.005.009 0 .009-.004.009z" fill="#fff"/><path d="M198.907 94.074c.009.24-.164.332-.382.204-.218-.127-.404-.427-.413-.672-.01-.241.163-.332.381-.205.223.132.405.432.414.673z" fill="#fff"/><path d="M198.539 94.878a.226.226 0 0 1-.223-.218l-.032-.922a.224.224 0 0 1 .218-.232.23.23 0 0 1 .232.218l.032.923a.224.224 0 0 1-.218.231h-.009z" fill="#fff"/><path opacity=".2" d="M164.186 18.66s-8.148 3.963-12.147-5.226c-2.614 3.286 7.071-3.39 3.399-2.15l-4.213 6.445c-.204-2.877-2.763-3.736-4.131-2.74-8.771 8.762 9.716 12.084 11.652 14.96 1.327 1.968 1.314 16.715 1.314 16.715.509.718.809 1.155 1.54 1.064 1.555-.196 4.231-.605 5.572-1.227.036-.018.082-.041.123-.064.486-.245 2.34-1.204 4.104-2.45 1.336-.94 7.63-6.194 7.621-16.205l-14.834-9.121z" fill="#000"/><path d="M168.74 16.284s-7.153 1.695-11.153-7.494c-2.613 3.286-6.476.786-8.907-1.422L146.417 5c-1.441.573-2.859 1.518-4.231 2.509l.304 2.236.705.927c-3.472 9.907 6.603 24.313 8.289 26.822 1.936 2.877 7.69 8.535 7.69 8.535s2.176-1.06 4.231-2.509c1.758-1.245 12.134-9.98 5.335-27.236z" fill="#7AA5F0"/><path d="M164.509 18.793s-7.153 1.695-11.153-7.494c-4.062 5.113-11.166-3.79-11.166-3.79-8.771 8.762 3.132 29.617 5.068 32.494a401.948 401.948 0 0 0 4.331 6.235c.509.718 1.281 1.109 2.013 1.018 1.554-.196 4.231-.605 5.572-1.227 1.949-.914 13.988-9.667 5.335-27.236z" fill="#D9E9FF"/><path d="M161.669 21.088s-5.672 1.345-8.844-5.944c-3.222 4.054-8.858-3.009-8.858-3.009-6.957 6.954 2.482 23.491 4.018 25.773a482.865 482.865 0 0 1 2.845 4.308c.795 1.213 2.104 1.827 3.267 1.532 1.155-.296 2.541-.691 3.341-1.06 1.549-.722 11.093-7.666 4.231-21.6z" fill="#34961E"/><path d="M161.669 21.088s-5.672 1.345-8.844-5.94l.204 28.627c.359.068.718.059 1.068-.027 1.155-.296 2.541-.691 3.34-1.06 1.55-.722 11.094-7.666 4.232-21.6z" fill="#47B02C"/><path d="M151.943 34.663h-.041a1.215 1.215 0 0 1-.954-.518l-4.922-7.095a1.206 1.206 0 0 1 .305-1.681 1.206 1.206 0 0 1 1.681.305l3.999 5.758 4.722-5.936a1.206 1.206 0 0 1 1.891 1.5l-5.736 7.212c-.227.291-.577.455-.945.455z" fill="#fff"/></g><defs><clipPath id="clip0"><path fill="#fff" transform="translate(139 5)" d="M0 0h97v140.26H0z"/></clipPath></defs></svg>