<svg width="96" height="33" fill="none" xmlns="http://www.w3.org/2000/svg" viewBox="0 0 96 33"><rect width="33.509" height="33" rx="6" fill="#fff"/><path d="M88.942 28.602V4.322c0-2.2-1.82-3.984-4.064-3.984H30.652v32.25h54.226c1.077 0 2.112-.42 2.873-1.167.377-.37.676-.808.88-1.292a3.93 3.93 0 0 0 .31-1.527z" fill="#016597"/><path d="M84.878 32.926h-54.57V0h54.57c2.433.002 4.405 1.937 4.408 4.323v24.28c-.003 2.386-1.975 4.32-4.408 4.323zm-53.88-.676h53.88c2.054-.002 3.717-1.633 3.72-3.647V4.323C88.595 2.31 86.932.677 84.878.676h-53.88V32.25z" fill="#016597"/><path fill-rule="evenodd" clip-rule="evenodd" d="M13.428 10.883l-1.417 1.919c-.711.96-.49 2.661.48 3.349l2.63 1.86c.45.32.485.64.272.974l.382.278 1.331-1.808c.823-1.118.752-2.638-.469-3.51l-2.653-1.896c-.317-.227-.35-.543-.175-.895l-.382-.267.001-.004zm2.274-8.467l-2.207 2.995c-1.036 1.403-.66 3.798.757 4.821l3.63 2.614c.735.528.831 1.878.295 2.569l.308.227 2.505-3.454c1.124-1.552 1.06-3.844-.707-5.1L16.399 4.32c-.543-.384-.814-1.044-.362-1.673l-.334-.231zm-5.818 18.78h2.926l.521 1.74h4.782l.522-1.74h2.927l-.384-1.278h-10.91l-.384 1.278zm1.371 5.82c.514-.295.83-.729.83-1.323 0-1.188-.993-1.674-2.077-1.674H6.982v6.31h3c1.28 0 2.638-.549 2.419-1.994-.131-.827-.465-1.023-1.144-1.32h-.002zm-2.907-1.79h1.575c.983 0 1.019 1.346.062 1.346H8.348v-1.345zm1.757 3.91H8.348v-1.438h1.757c1.29 0 1.21 1.439 0 1.439zm7.158-2.12c.514-.295.83-.729.83-1.323 0-1.188-.993-1.674-2.077-1.674H12.99v6.31h3c1.28 0 2.638-.549 2.419-1.994-.131-.827-.465-1.023-1.144-1.32h-.002.001zm-2.902-1.792h1.572c.982 0 1.017 1.346.06 1.346H14.36V25.224zm1.753 3.911H14.36v-1.437h1.753c1.288 0 1.21 1.439 0 1.439v-.002zm8.3-.8c-.13-.827-.463-1.022-1.143-1.32.514-.294.83-.728.83-1.322 0-1.188-.993-1.674-2.077-1.674h-3.026v6.31h3c1.28 0 2.637-.549 2.418-1.994h-.001zm-4.041-3.11h1.566c.983 0 1.018 1.345.062 1.345h-1.634l.006-1.344zm1.753 3.911h-1.759v-1.438h1.753c1.289 0 1.21 1.439 0 1.439h.006z" fill="#016597"/><path d="M39.193 15.142l-.294-.794h-2.05l-.302.794h-1.162l1.85-4.691h1.278l1.842 4.69h-1.162zm-1.319-3.694l-.745 2.018h1.491l-.746-2.018zm2.746 1.35c0-1.44 1.113-2.43 2.547-2.43.409-.012.813.09 1.167.293.354.204.643.501.834.859l-.875.421a1.288 1.288 0 0 0-.465-.493 1.309 1.309 0 0 0-.654-.191c-.868 0-1.5.653-1.5 1.534s.633 1.535 1.5 1.535c.233-.003.46-.067.658-.187s.36-.291.467-.495l.87.426c-.344.583-.946 1.152-2 1.152-1.43 0-2.548-.98-2.548-2.423zm4.98 0c0-1.44 1.111-2.43 2.546-2.43.41-.011.813.09 1.167.294.353.203.642.5.834.858l-.876.421a1.29 1.29 0 0 0-.467-.494 1.31 1.31 0 0 0-.658-.19c-.868 0-1.498.653-1.498 1.534s.63 1.535 1.498 1.535c.233-.003.46-.067.658-.187s.36-.291.467-.495l.876.414c-.345.584-.947 1.152-2 1.152-1.434.012-2.547-.969-2.547-2.411zm7.912 2.344l-.94-1.663h-.745v1.663h-1.019V10.45h2.238c.997 0 1.607.639 1.607 1.511 0 .83-.53 1.279-1.043 1.393l1.077 1.79-1.175-.003zm.097-3.18c0-.393-.308-.633-.718-.633h-1.069v1.267h1.069c.414 0 .718-.24.718-.634zm1.862 3.18V10.45h3.392v.878H56.49v.991h2.316v.879H56.49v1.062h2.367v.878l-3.386.003zm4.233 0V10.45h1.886c1.499 0 2.54.934 2.54 2.35 0 1.413-1.044 2.34-2.54 2.34h-1.886zm3.391-2.342c0-.83-.521-1.47-1.499-1.47h-.867v2.932h.868c.94 0 1.493-.668 1.493-1.463l.005.001zm1.811 2.342V10.45h1.018v4.69h-1.018zm3.12 0v-3.813h-1.4v-.878h3.816v.878h-1.391v3.813h-1.025zm3.12 0V10.45h3.39v.878h-2.371v.991h2.313v.879h-2.313v1.062h2.367v.878l-3.386.003zm4.232 0V10.45h1.887c1.498 0 2.538.934 2.538 2.35 0 1.413-1.043 2.34-2.539 2.34h-1.886zM78.77 12.8c0-.83-.522-1.47-1.498-1.47h-.868v2.932h.869c.94 0 1.492-.668 1.492-1.463l.005.001zM35.894 23.2v-4.692h2.518c.913 0 1.377.57 1.377 1.197 0 .59-.373.985-.824 1.075.508.077.913.563.913 1.151 0 .704-.48 1.267-1.392 1.267l-2.592.002zm2.855-3.325a.505.505 0 0 0-.348-.484.53.53 0 0 0-.211-.028h-1.278v1.023h1.278c.343 0 .559-.211.559-.506v-.005zm.093 1.919c0-.297-.215-.55-.617-.55h-1.31v1.09h1.311c.383 0 .617-.206.617-.54zm1.854-.465v-2.82h1.043v2.785c0 .654.392 1.104 1.125 1.104.735 0 1.12-.45 1.12-1.104v-2.786h1.043v2.815c0 1.167-.703 1.961-2.158 1.961-1.456 0-2.173-.802-2.173-1.955zm4.99 1.21l.552-.76c.397.406.946.635 1.52.633.56 0 .833-.255.833-.52 0-.344-.445-.443-.968-.57-.782-.174-1.786-.383-1.786-1.455 0-.78.689-1.427 1.815-1.427.76 0 1.392.224 1.865.653l-.568.733a2.078 2.078 0 0 0-1.391-.512c-.437 0-.68.19-.68.47 0 .304.436.402.953.521.782.183 1.793.416 1.793 1.478 0 .858-.624 1.505-1.915 1.505-.918-.008-1.578-.306-2.023-.75v.001zm4.677.66v-4.69h1.019V23.2h-1.019zm5.315 0l-2.28-3.059v3.06h-1.019v-4.692h1.044l2.216 2.942v-2.942h1.018V23.2h-.979zm1.98 0v-4.69h3.392v.879h-2.373v.991h2.316v.88h-2.316v1.06h2.366v.88h-3.385zm3.907-.66l.551-.76a2.12 2.12 0 0 0 1.522.633c.56 0 .832-.255.832-.52 0-.344-.445-.443-.968-.57-.782-.174-1.786-.383-1.786-1.455 0-.78.689-1.427 1.815-1.427.76 0 1.392.224 1.865.653l-.563.733a2.08 2.08 0 0 0-1.392-.512c-.438 0-.681.19-.681.47 0 .304.438.402.953.521.783.183 1.794.416 1.794 1.478 0 .858-.624 1.505-1.915 1.505-.918-.008-1.578-.306-2.027-.75v.001zm4.36 0l.55-.76a2.12 2.12 0 0 0 1.522.633c.56 0 .832-.255.832-.52 0-.344-.444-.443-.968-.57-.782-.174-1.785-.383-1.785-1.455 0-.78.688-1.427 1.814-1.427.76 0 1.392.224 1.865.653l-.567.733a2.08 2.08 0 0 0-1.392-.512c-.437 0-.681.19-.681.47 0 .304.438.402.954.521.782.183 1.793.416 1.793 1.478 0 .858-.623 1.505-1.915 1.505-.919-.008-1.58-.306-2.023-.75v.001z" fill="#fff"/><path d="M90.217 30.154v-.015c-.005-1.535 1.26-2.782 2.825-2.786 1.565-.004 2.836 1.236 2.84 2.77v.016c.005 1.534-1.26 2.781-2.825 2.786-1.564.004-2.836-1.237-2.84-2.771zm5.407-.015v-.016a2.5 2.5 0 0 0-.35-1.263 2.537 2.537 0 0 0-.944-.92 2.615 2.615 0 0 0-2.575.008c-.39.222-.713.54-.938.925a2.497 2.497 0 0 0-.342 1.266v.015c.002.444.122.88.35 1.263.227.384.552.7.944.92.798.448 1.78.445 2.575-.009.39-.22.713-.54.938-.924a2.5 2.5 0 0 0 .342-1.265zm-3.686-1.504h1.305c.315-.015.624.092.86.299a.746.746 0 0 1 .235.552v.016c0 .46-.313.737-.751.837l.9 1.143h-.532l-.837-1.075h-.743v1.075h-.431l-.006-2.847zm1.26 1.397c.407 0 .69-.185.69-.512v-.016c0-.299-.251-.491-.666-.491h-.853v1.013l.83.006zm-62.2 2.894H4.408C1.975 32.923.003 30.989 0 28.603V4.323C.003 1.937 1.975.003 4.408 0h26.59v32.926zM4.408.676C2.355.676.69 2.31.688 4.323v24.28c.003 2.013 1.667 3.645 3.72 3.647H30.31V.677H4.408z" fill="#016597"/></svg>