<svg width="80" height="12" fill="none" xmlns="http://www.w3.org/2000/svg" viewBox="0 0 80 12"><path fill-rule="evenodd" clip-rule="evenodd" d="M5.67 9.343l-3.504 1.925.669-4.077L0 4.304l3.917-.595L5.67 0l1.752 3.709 3.918.595L8.504 7.19l.669 4.077-3.504-1.925zm17.637 0l-3.504 1.925.67-4.077-2.835-2.887 3.917-.595L23.307 0l1.752 3.709 3.917.595-2.834 2.887.669 4.077-3.504-1.925zm17.008 0l-3.504 1.925.67-4.077-2.835-2.887 3.917-.595L40.315 0l1.752 3.709 3.917.595L43.15 7.19l.669 4.077-3.504-1.925zm17.008 0l-3.504 1.925.67-4.077-2.835-2.887 3.917-.595L57.323 0l1.752 3.709 3.917.595-2.835 2.887.67 4.077-3.504-1.925z" fill="#FFCE00"/><path fill-rule="evenodd" clip-rule="evenodd" d="M74.33 9.343l-3.503 1.925.67-4.077-2.836-2.887 3.918-.595L74.33 0l1.751 3.709L80 4.304 77.165 7.19l.67 4.077-3.504-1.925z" fill="#D5E3F1"/></svg>