<svg width="94" height="37" fill="none" xmlns="http://www.w3.org/2000/svg" viewBox="0 0 94 37"><path fill="#AF231C" d="M0 0h94v37H0z"/><path d="M71.879 15.499c.52 1.453 1.04 2.942 1.584 4.419a553.443 553.443 0 0 0 2.96 7.909c.1.258.468.41.711.612.116-.262.33-.523.333-.785.024-3.153.017-6.306.014-9.459 0-.89-.19-1.126-1.049-1.364-.175-.05-.344-.124-.517-.187l.039-.203h7.632c-.067.113-.087.199-.133.216-1.384.524-1.384.522-1.384 2.02 0 2.828.02 5.653-.014 8.478-.008.71.303.969.92 1.02.847.07 1.58-.21 2.234-.748.874-.717 1.758-1.424 2.637-2.136l-.224-.294c-.014.139-.001.286-.046.413-.367 1.056-.722 2.117-1.137 3.152-.084.212-.401.469-.613.47-4.976.027-9.954.021-14.93.017-.144 0-.288-.063-.463-.251.142-.066.278-.156.427-.192.847-.21.932-.28.728-1.142a16.195 16.195 0 0 0-.709-2.188c-.066-.168-.366-.332-.567-.34a28.304 28.304 0 0 0-2.625.002c-.212.011-.517.208-.598.398a6.742 6.742 0 0 0-.45 1.535c-.128.757-.06 1.466.825 1.764.064.023.1.135.233.326-.3.04-.506.09-.71.09-1.752.008-3.503-.008-5.253.013-.432.006-.657-.158-.857-.534-1.59-2.972-3.199-5.934-4.805-8.898-.028-.052-.089-.085-.222-.209v2.864c0 1.681.045 3.365-.019 5.044-.029.76.293 1.054.94 1.185.266.055.523.156.783.236-.014.07-.03.139-.043.209h-9.666c.2-.216.296-.397.443-.461.53-.237.666-.654.636-1.195a6.758 6.758 0 0 0-1.022-3.232 12.341 12.341 0 0 0-1.216-1.608c-.179-.204-.497-.28-.921-.502v2.301c0 1.027.036 2.058-.012 3.082-.034.676.204 1.064.844 1.224.154.037.293.131.44.199l-.04.189H40.29l-.054-.146c.174-.074.343-.182.525-.217.58-.114.857-.397.856-1.047-.002-3.224.052-6.447.036-9.67-.002-.376-.224-.907-.515-1.094-.658-.422-1.367.06-1.327.894.075 1.538.304 3.068.339 4.606.03 1.344.003 2.712-.22 4.032-.29 1.721-1.454 2.775-3.149 2.974-1.1.13-2.27.098-3.35-.133-2.22-.475-3.49-2.04-3.572-4.362-.057-1.624.103-3.258.178-4.887.02-.465.085-.929.127-1.394.124-1.419.123-1.419-1.048-2.068h7.067c-.242.124-.356.22-.48.237-.753.112-1.172.554-1.36 1.293-.555 2.179-1.004 4.372-.726 6.639.07.567.24 1.146.48 1.663.468 1.006 1.24 1.578 2.412 1.51 1.16-.065 1.866-.747 2.313-1.723.257-.56.411-1.194.487-1.812.26-2.102.084-4.19-.304-6.268-.161-.871-.882-1.11-1.55-1.544.154-.034.306-.097.46-.095 3.456.008 6.913-.009 10.367.061.76.016 1.593.194 2.25.56 1.465.82 1.66 2.871.489 4.096-.238.25-.515.463-.754.676 1.322 1.737 2.222 3.684 3.008 5.698.12.308.313.645.567.834.583.433 1.293.045 1.295-.685.01-3.27-.004-6.54.011-9.81.003-.6-.337-.824-.818-.944-.311-.079-.63-.13-.946-.194l.014-.232c.231-.021.46-.06.691-.062 1.428-.006 2.858.027 4.286-.018.551-.017.83.216 1.083.657 1.217 2.115 2.454 4.219 3.686 6.324.103.177.225.34.363.548.06-.095.12-.147.12-.198.007-1.984.036-3.97-.017-5.955-.009-.3-.365-.635-.635-.866-.188-.161-.5-.172-.746-.397h3.583c.013.035.029.07.043.104-.234.08-.465.17-.703.237-.467.132-.774.381-.773.924.006 3.456.005 6.913.009 10.37 0 .109.04.217.102.54.22-.36.378-.557.472-.782 1.2-2.877 2.37-5.768 3.598-8.634.337-.785-.123-1.215-.532-1.688l3.85-2.011zm-26.113 5.804c1.99.002 2.823-1.11 2.22-2.792-.275-.768-1.12-1.263-1.874-1.065-.134.035-.328.22-.329.339-.026 1.159-.017 2.32-.017 3.518zm23.277-.998l-1.548 4.001h2.927c-.418-1.31-.8-2.523-1.192-3.733-.026-.08-.1-.145-.187-.268zM38.65 14.615c1.018-.07 1.15-.62 1.14-1.368-.03-2.521-.012-5.044-.012-7.567 0-.501-.156-.88-.728-.9-.531-.02-.871.333-.871.928 0 .373.034.746.07 1.117.107 1.116.32 2.232.304 3.344a10.91 10.91 0 0 1-.453 3.01c-.328 1.069-1.147 1.774-2.303 1.828-.955.045-1.945.08-2.871-.113-1.9-.395-2.857-1.68-2.903-3.945-.03-1.534.159-3.073.275-4.606.091-1.215.108-1.214-.887-1.712.35-.326 5.006-.391 5.646-.08-.013.042-.023.117-.044.122-1.008.173-1.363.891-1.527 1.809-.3 1.68-.59 3.357-.304 5.073.254 1.535 1.17 2.342 2.511 2.204.812-.085 1.358-.52 1.676-1.27.553-1.308.551-2.685.471-4.065-.046-.79-.175-1.576-.27-2.364-.095-.803-.613-1.205-1.396-1.355l.04-.187c.166-.047.334-.137.5-.137 2.926.023 5.85.021 8.775.101 1.533.042 2.45.883 2.557 2.136.073.858-.3 1.52-1.168 2.172.84 1.625 1.672 3.23 2.538 4.903.565-1.354 1.142-2.716 1.704-4.086.31-.754.57-1.529.9-2.272.29-.653.585-1.27-.289-1.817l3.276-1.672c.49 1.45.935 2.867 1.446 4.259.69 1.878 1.43 3.736 2.154 5.602.084.216.167.462.329.605.15.133.419.226.607.19.145-.029.297-.27.354-.446.067-.215.048-.461.048-.694.003-2.405.003-4.811.001-7.216 0-1.09-.06-1.16-1.118-1.382-.084-.019-.164-.058-.278-.236.16-.052.318-.148.479-.15 1.244-.012 2.49-.03 3.73.014.233.009.544.24.668.457.973 1.69 1.91 3.403 2.86 5.107.107.192.228.376.463.519 0-1.647.02-3.295-.023-4.942-.006-.224-.292-.478-.502-.65-.16-.13-.408-.15-.643-.229.415-.353 2.437-.406 3.086-.119-.012.044-.01.117-.036.128-1.137.497-1.137.497-1.137 1.767v8.477c-.82 0-1.574.039-2.32-.024-.198-.017-.422-.318-.544-.538-1.279-2.322-2.538-4.654-3.804-6.981-.04-.073-.104-.135-.261-.337v4.387c0 .654.038 1.31-.011 1.96-.052.675.232 1.003.86 1.105.183.03.357.108.536.164l-.03.18h-8.147c.039-.118.04-.187.068-.2 1.026-.465 1.027-.463.69-1.62-.436-1.498-.436-1.498-1.98-1.498h-.069c-1.407 0-1.733.311-1.82 1.74-.035.561.047.687 1.068 1.579h-6.91c.014-.093-.002-.188.036-.217.828-.662 1.09-1.25.65-2.262-.448-1.033-1.102-1.978-1.7-2.94-.08-.13-.363-.193-.54-.173-.084.01-.196.286-.198.443-.015 1.331.013 2.662-.016 3.992-.017.752.629.74 1.088.976-.467.363-4.869.378-5.49-.028zM43.13 5.48v3.054c1.352.024 1.916-.524 1.829-1.714-.08-1.09-.651-1.525-1.83-1.34zm10.66 5.456c-.369-1.132-.7-2.148-1.092-3.345l-1.295 3.345h2.387zM22.286 29.42c-3.797-.004-6.703-2.866-6.702-6.595.002-3.906 3.065-6.703 6.717-6.692 3.568.011 6.677 2.657 6.633 6.731-.042 3.754-2.864 6.56-6.648 6.557zm2.577-6.735c-.144-1.238-.227-2.544-.465-3.82-.233-1.254-1.082-1.974-2.088-1.988-.985-.014-1.853.723-2.176 1.916-.574 2.11-.379 4.26-.273 6.4.028.574.173 1.157.36 1.7.294.86.808 1.51 1.812 1.579 1.353.09 2.133-.496 2.41-2.034.215-1.21.279-2.448.42-3.753z" fill="#fff"/><path d="M9.58 16.41h6.673l.061.15c-.13.081-.249.194-.39.237-.945.296-1.005.369-1.005 1.366 0 3.55.009 7.1-.008 10.65a7.764 7.764 0 0 1-.188 1.734c-.307 1.3-1.135 2.156-2.367 2.618-1.62.608-3.236.768-4.769-.22-.876-.565-1.336-1.408-1.219-2.492.072-.663.516-1.073 1.132-1.117.696-.05 1.185.258 1.334.94.12.542.136 1.108.2 1.663.066.579.317 1.006.956.957.612-.047.867-.48.868-1.065.005-4.671.001-9.343.01-14.014.001-.54-.303-.799-.743-.967-.196-.075-.4-.133-.6-.2l.054-.24zM20.714 10.477c0-1.63.022-3.26-.023-4.888-.007-.243-.304-.512-.524-.7-.155-.133-.405-.152-.613-.222l.018-.174h3.084c-.044.097-.056.19-.1.207-1.097.432-1.097.43-1.097 1.639v8.57c-.82 0-1.595.027-2.363-.021-.162-.01-.353-.268-.454-.454-1.285-2.342-2.557-4.692-3.833-7.04-.043-.08-.101-.153-.221-.332-.026.27-.056.436-.056.601-.002 1.845-.002 3.689 0 5.533 0 1.06.003 1.063 1 1.329a.513.513 0 0 1 .35.283H12.55c-.01-.045-.023-.091-.034-.136.15-.056.297-.144.452-.162.75-.09.96-.525.95-1.256-.035-2.334-.013-4.669-.013-7.004 0-1.208-.002-1.206-1.156-1.49-.077-.019-.146-.076-.23-.268.218-.04.435-.111.653-.113 1.106-.01 2.212.016 3.316-.015.475-.013.744.143.974.577.822 1.562 1.686 3.102 2.54 4.646.179.323.387.627.582.94.04-.017.085-.034.13-.05zM86.013 4.194l.71 2.653-.212.118c-.123-.13-.27-.245-.368-.392-.77-1.16-1.906-1.555-3.211-1.584-.332-.007-.66.046-.658.517.004 1.023.001 2.045.001 3.121 1.189.12 2.197.024 2.664-1.36l.137.158v3.282c-.142-.095-.28-.137-.33-.228-.43-.8-1.243-1.242-2.102-1.051-.153.033-.345.333-.354.518-.037.838-.019 1.68-.013 2.52.01 1.54 1.065 2.3 2.44 1.617.753-.374 1.361-1.056 2.008-1.63.225-.2.372-.49.554-.74.072.029.143.055.215.083-.089.451-.168.904-.269 1.353-.4 1.768-.402 1.767-2.175 1.767-2.118 0-4.237.001-6.355-.002-.238 0-.475-.027-.71-.041.008-.134 0-.213.013-.218.89-.227.944-.881.93-1.666-.038-2.194-.013-4.388-.013-6.582 0-1.247 0-1.247-1.117-1.893.385-.063.622-.135.858-.136 1.727-.01 3.455.011 5.18-.013.702-.01 1.4-.108 2.177-.17z" fill="#fff"/><path d="M28.288 7.703c-.094-.34-.178-.683-.284-1.02-.367-1.175-1.425-1.932-2.554-1.828-.568.052-1.048.286-1.216.869-.162.553-.04 1.138.445 1.44.796.497 1.639.934 2.504 1.294.991.412 1.865.883 2.245 1.994.6 1.75-.41 3.87-2.155 4.391-1.643.49-3.28.325-4.89-.182-.157-.049-.371-.265-.374-.408-.025-1.166-.008-2.332.004-3.498 0-.052.078-.104.21-.268.155.331.294.593.406.867.503 1.225 1.17 2.284 2.55 2.633.223.056.452.107.679.11.883.013 1.34-.61 1.009-1.439-.387-.97-1.18-1.485-2.108-1.878-.748-.316-1.608-.605-2.133-1.177-1.602-1.746-.53-4.649 1.862-5.249 1.191-.298 2.372-.207 3.541.145.35.105.545.269.526.682-.03.676-.003 1.353-.013 2.03-.003.16-.058.322-.09.483l-.164.009zM76.93 7.986c-.164-.398-.287-.82-.5-1.188-.287-.498-.575-1.028-.981-1.416-1.305-1.246-3.196-.751-3.652.997a12.384 12.384 0 0 0 .027 6.437c.447 1.635 2.08 2.117 3.471 1.157.877-.604 1.265-1.512 1.622-2.455.081-.215.184-.42.276-.63l.27.043v1.963c0 1.47.008 1.501-1.385 1.887-2.106.584-4.203.585-5.997-.822-3.328-2.608-2.755-7.338 1.06-9.156 1.76-.838 3.564-.794 5.38-.182.47.158.708.416.67.97-.052.776-.013 1.56-.013 2.34-.08.022-.164.038-.249.055zM6.432 4.454h5.622c-.006.107 0 .188-.01.19-1.048.217-1.14.947-1.116 1.876.057 2.213.045 4.43.004 6.645-.013.756.135 1.282.963 1.391.067.009.125.1.329.272h-5.8c.019-.11.019-.15.026-.151 1.162-.216 1.135-1.071 1.115-1.999-.04-2.026-.012-4.056-.012-6.085 0-1.397 0-1.397-1.121-2.139z" fill="#fff"/></svg>