<svg width="125" height="25" fill="none" xmlns="http://www.w3.org/2000/svg" viewBox="0 0 125 25"><path fill-rule="evenodd" clip-rule="evenodd" d="M60.69 17.916h-3.026V6.483h3.027v11.433zm19.409 0h-3.027V6.483H80.1v11.433zm16.916 0h-3.027V6.483h3.027v11.433zm-50.083 0h-3.034v-6.208c0-2.917 1.858-5.467 5.576-5.467 3.454 0 5.452 2.567 5.452 5.467v6.208H51.89v-6.325c0-1.416-1.093-2.5-2.491-2.5a2.373 2.373 0 0 0-1.77.709 2.436 2.436 0 0 0-.706 1.791v6.333l.008-.008zm69.449 0h-3.026v-6.208c0-2.917 1.859-5.467 5.576-5.467 3.454 0 5.444 2.567 5.444 5.467v6.208h-3.018v-6.325c0-1.416-1.102-2.5-2.492-2.5a2.375 2.375 0 0 0-1.775.706 2.437 2.437 0 0 0-.709 1.794v6.333-.008zm-47.5-4.45l3.093-6.983h3.141l-5.18 11.433h-2.098L62.664 6.483h3.125l3.1 6.983h-.007zm15.116.967a4.724 4.724 0 0 0 3.092 1.125c.814 0 1.439-.4 1.439-.958 0-1.726-5.46-1.109-5.46-4.792 0-2.2 2.088-3.567 4.325-3.567 1.464 0 3.067.567 3.816 1.159l-1.415 2.216a3.792 3.792 0 0 0-2.17-.775c-.831 0-1.539.334-1.539.917 0 1.492 5.47.892 5.47 4.867 0 2.191-2.114 3.533-4.491 3.533-1.554 0-3.207-.542-4.523-1.534l1.456-2.191zm21.192.892c1.768 0 2.977-1.392 2.977-3.109 0-1.725-1.209-3.141-2.977-3.141-1.76 0-2.977 1.416-2.977 3.141 0 1.717 1.217 3.109 2.977 3.109zm0-9.084c3.421 0 5.995 2.667 5.995 5.975a5.984 5.984 0 0 1-.454 2.308 5.928 5.928 0 0 1-1.305 1.947 5.834 5.834 0 0 1-1.949 1.278 5.778 5.778 0 0 1-2.287.409 5.843 5.843 0 0 1-4.158-1.745 6 6 0 0 1-1.722-4.213 6 6 0 0 1 1.722-4.214 5.843 5.843 0 0 1 4.158-1.745zm-66.793.242h3.027v6.208c0 2.917-1.867 5.467-5.584 5.467a5.161 5.161 0 0 1-2.108-.351 5.215 5.215 0 0 1-1.793-1.177 5.298 5.298 0 0 1-1.178-1.806 5.355 5.355 0 0 1-.365-2.133V6.483h3.018v6.333a2.53 2.53 0 0 0 .731 1.777 2.463 2.463 0 0 0 1.76.723c1.316 0 2.492-.942 2.492-2.5V6.483z" fill="#6D6D6D"/><path fill-rule="evenodd" clip-rule="evenodd" d="M9.885 0v13.817c.674 0 4.465.1 7.673-.192a33.392 33.392 0 0 0 2.352-.317c1.842-.358 3.396-.916 3.939-1.375V1.375C22.442.317 16.529 0 9.885 0z" fill="#00C56E"/><path fill-rule="evenodd" clip-rule="evenodd" d="M23.849 12.117v-.183c-.543.458-2.097 1.016-3.948 1.375-.74.125-1.538.233-2.343.316-3.208.292-6.99.192-7.673.192v.242l.016 1.55.017.441c.016.667.05 1.334.09 1.984.083 1.366.239 2.65.469 3.716.263 1.192.633 2.125 1.151 2.617l.025.025.51.017c3.964 0 7.459-2 9.572-5.059a12.26 12.26 0 0 0 1.703-4.058c.27-1 .41-2.067.41-3.167v-.008z" fill="#1717EF"/><path fill-rule="evenodd" clip-rule="evenodd" d="M11.628 24.366c-.518-.491-.888-1.416-1.151-2.616a25.92 25.92 0 0 1-.469-3.717 56.498 56.498 0 0 1-.123-3.983v-.234c-3.076 0-5.749-.233-7.023-.466-1.34-.25-2.229-.75-2.385-1-.047 2.509.7 4.967 2.13 7.016a11.723 11.723 0 0 0 3.945 3.58 11.553 11.553 0 0 0 5.1 1.445l-.024-.025z" fill="#FF161F"/><path fill-rule="evenodd" clip-rule="evenodd" d="M.93.816a.46.46 0 0 0-.453.459V12.35c.156.25 1.044.75 2.385 1l.732.108c1.422.192 3.709.358 6.29.358V5.3C6.975 1.5 2.468.816.93.816z" fill="#E621BB"/></svg>