<svg width="82" height="82" fill="none" xmlns="http://www.w3.org/2000/svg" viewBox="0 0 82 82"><path d="M68.333 35.533h-22.46a4.023 4.023 0 0 0-2.808 1.212l-9.124 9.456a4.25 4.25 0 0 0-1.141 2.91c0 1.086.41 2.13 1.141 2.909L44.586 63.05c.35.374.767.671 1.23.874a3.63 3.63 0 0 0 2.922 0c.462-.203.88-.5 1.23-.874l9.358-11.637h9.007v-15.88z" fill="#64C800"/><path d="M56.23 53.375L39.446 36.73a4.2 4.2 0 0 0-2.878-1.198h-22.9V51.1h9.232l16.906 18.8a3.837 3.837 0 0 0 5.515 0l10.91-10.897c1.56-1.436 1.56-4.07 0-5.627z" fill="#C8EBB4"/><path d="M32.464 50.371l-2.398-2.473 10.79-11.128c.77-.778 1.8-1.221 2.877-1.237H57.4v8.656H45.53l-5.874 6.059c-.45.52-1 .937-1.614 1.227a4.772 4.772 0 0 1-3.926.068 4.895 4.895 0 0 1-1.653-1.172zM30.395 52.77a3.65 3.65 0 0 0-1.141-.62 4.25 4.25 0 0 0-1.35-.217 4.25 4.25 0 0 0-1.349.217 3.65 3.65 0 0 0-1.141.62l-.83.669c-.866.716-1.35 1.677-1.35 2.677s.484 1.961 1.35 2.678l1.66 1.339 4.151-3.347a2.88 2.88 0 0 0 .768-.92c.179-.345.27-.715.27-1.088a2.36 2.36 0 0 0-.27-1.088 2.878 2.878 0 0 0-.768-.92z" fill="#64C800"/><path d="M34.557 56.87a3.378 3.378 0 0 0-1.074-.62 3.78 3.78 0 0 0-1.27-.217c-.435 0-.866.074-1.268.218a3.377 3.377 0 0 0-1.074.619L26 59.966l4.652 4.267 3.905-3.347a2.85 2.85 0 0 0 .722-.92c.168-.345.254-.715.254-1.088 0-.373-.086-.743-.254-1.088a2.85 2.85 0 0 0-.722-.92z" fill="#64C800"/><path d="M38.59 60.976a3.301 3.301 0 0 0-4.685 0L30.5 64l5 4.5 3.09-2.838a3.3 3.3 0 0 0 0-4.686z" fill="#64C800"/><path d="M42.977 65.098a2.855 2.855 0 0 0-.93-.64 2.803 2.803 0 0 0-2.2 0 2.855 2.855 0 0 0-.93.64L35.5 68.5l1.387 1.442a3.835 3.835 0 0 0 2.707 1.125 3.835 3.835 0 0 0 2.706-1.125l.677-.692a3.213 3.213 0 0 0 .757-2.076c0-.762-.269-1.5-.757-2.076z" fill="#64C800"/><path d="M41 32.8c6.038 0 10.933-4.896 10.933-10.934 0-6.038-4.895-10.933-10.933-10.933-6.039 0-10.934 4.895-10.934 10.933S34.961 32.799 41 32.799z" fill="#46B400"/><path fill-rule="evenodd" clip-rule="evenodd" d="M46.467 19.18l-6.647 6.787-4.286-4.552 1.411-1.386 2.903 3.082 5.235-5.344 1.384 1.413z" fill="#fff"/></svg>