<svg width="80" height="80" fill="none" xmlns="http://www.w3.org/2000/svg" viewBox="0 0 80 80"><path d="M61.633 31.01l.295 10.503-10.04 8.508 2.895-6.26a3.334 3.334 0 0 0 .176-1.9 3.373 3.373 0 0 0-.897-1.693 1.697 1.697 0 0 0-2.194-.192c-.217.157-.392.361-.51.598l-6.26 11.232a5.142 5.142 0 0 0-.863.73 5.245 5.245 0 0 0-1.477 3.478l-.07.104.295 10.549h13.926l-1.512-8.787L68 44.782l-2.681-17.677a3.87 3.87 0 0 0-2.667 1.204 3.727 3.727 0 0 0-1.019 2.702zM17.08 31.01l-.33 10.491 10.016 8.509-2.882-6.248a3.334 3.334 0 0 1-.176-1.9 3.373 3.373 0 0 1 .897-1.694c.185-.196.416-.344.672-.432a1.7 1.7 0 0 1 1.544.23c.219.158.395.367.512.608l6.248 11.232c.314.212.604.457.863.73a5.245 5.245 0 0 1 1.476 3.478v.104l-.212 10.537H21.734l1.512-8.786-12.579-13.087 2.658-17.677c.509.01 1.01.12 1.477.322.465.203.885.495 1.235.858.35.364.622.792.8 1.26.18.468.263.966.244 1.466z" fill="#B4E6F5"/><path d="M49.822 13.333H28.56c-.313 0-.614.122-.835.34a1.148 1.148 0 0 0-.346.82v16.97a5.718 5.718 0 0 0 .952 3.125 5.875 5.875 0 0 0 2.52 2.125l8.34 3.652 8.338-3.652a5.876 5.876 0 0 0 2.521-2.125c.616-.931.946-2.016.952-3.126v-16.97c0-.307-.124-.602-.346-.82a1.193 1.193 0 0 0-.835-.339z" fill="#00AFE1"/><path d="M37.917 30.67l-5.71-5.62 1.673-1.637 4.037 3.976 7.072-6.955 1.674 1.64-8.746 8.595z" fill="#fff"/></svg>