<svg width="52" height="52" fill="none" xmlns="http://www.w3.org/2000/svg" viewBox="0 0 52 52"><g clip-path="url(#clip0)"><path d="M49.417 10.34H2.106v34.968h47.31V10.34z" fill="#C8EBB4"/><path d="M10.33 19.591H2.104a2.06 2.06 0 0 1-2.054-2.054V14.45H10.33v5.141z" fill="#64C800"/><path d="M20.618 14.453H10.334v5.144h10.284v-5.144z" fill="#fff"/><path d="M30.904 14.453H20.619v5.144h10.285v-5.144z" fill="#64C800"/><path d="M41.189 14.453H30.904v5.144h10.285v-5.144z" fill="#fff"/><path d="M49.416 19.591H41.19v-5.14H51.47v3.086a2.06 2.06 0 0 1-2.055 2.054z" fill="#64C800"/><path d="M11.364 10.34H2.106L.049 14.452h10.285l1.03-4.114zM30.904 10.34H20.619v4.113h10.285V10.34zM51.474 14.453H41.189l-1.027-4.114h9.255l2.057 4.114z" fill="#46B400"/><path d="M49.417 10.336H2.103V7.25a2.063 2.063 0 0 1 2.06-2.054h43.194a2.063 2.063 0 0 1 2.06 2.054v3.087zM31.934 23.708H19.592v21.6h12.342v-21.6z" fill="#64C800"/><path d="M45.305 23.708h-9.258V37.08h9.258V23.708zM15.478 23.708H6.22V37.08h9.258V23.708zM27.817 30.906h-4.114a.97.97 0 0 1-1.03-1.027v-2.06a.97.97 0 0 1 1.03-1.027h4.114a.972.972 0 0 1 1.03 1.027v2.06a.973.973 0 0 1-1.03 1.027zM22.676 36.053a1.03 1.03 0 1 0 0-2.06 1.03 1.03 0 0 0 0 2.06z" fill="#fff"/><path d="M33.99 48.392H17.536l2.057-3.084h12.342l2.057 3.084z" fill="#C8EBB4"/></g><defs><clipPath id="clip0"><path fill="#fff" transform="translate(.049 5.195)" d="M0 0h51.425v43.197H0z"/></clipPath></defs></svg>