<svg width="60" height="60" fill="none" xmlns="http://www.w3.org/2000/svg" viewBox="0 0 60 60"><path d="M22.982 54L41 41.935 24.979 35 3 41.69 22.982 54z" fill="#0032A5"/><path d="M22.693 17.686L4.434 7.146c-.295-.17-.563-.186-.754-.075l-1.276.743c.194-.112.461-.096.755.074l18.257 10.54c.586.34 1.06 1.16 1.06 1.832l-.094 32.993c0 .336-.12.571-.31.683l1.276-.743c.191-.11.309-.347.309-.682l.094-32.993c.002-.673-.471-1.493-1.058-1.832z" fill="#9AABC8"/><path d="M21.414 18.423c.587.339 1.06 1.16 1.06 1.832l-.094 32.993c-.002.674-.479.946-1.065.606L3.058 43.314c-.587-.34-1.06-1.158-1.058-1.834l.094-32.993c.002-.673.479-.946 1.064-.607l18.256 10.543z" fill="#fff"/><path d="M11.36 13.56a.71.71 0 0 1 .324.561c0 .208-.146.29-.325.186a.71.71 0 0 1-.324-.561c0-.206.148-.287.325-.186zM10.913 44.713c.519.3.938 1.026.936 1.623-.002.596-.423.838-.944.537-.52-.3-.938-1.028-.936-1.623.004-.597.425-.837.944-.537z" fill="#8BA7D3"/><path d="M21.668 21.087L2.378 9.95v29.125l19.29 11.137V21.086z" fill="#00AFE1"/><path d="M4.964 25.503c.308.178.545.383.66.516l-.113.43a2.253 2.253 0 0 0-.554-.439c-.45-.259-.789-.164-.79.43a1.537 1.537 0 0 0 .745 1.328c.124.072.223.113.265.113l.001-.571-.366-.212.001-.484.887.512-.004 1.442a2.689 2.689 0 0 1-.795-.304c-.435-.252-.747-.557-.965-.927a2.282 2.282 0 0 1-.332-1.189c.003-.909.58-1.096 1.36-.645zM6.662 26.512l-.006 2.216.946.547-.002.52-1.485-.858.007-2.736.54.311zM8.845 27.727c.731.422 1.128 1.281 1.127 2.036-.002.897-.478 1.167-1.174.766-.707-.408-1.118-1.26-1.116-2.038.001-.822.46-1.17 1.163-.764zm-.018 2.327c.363.21.573-.068.573-.6.002-.49-.203-1.03-.573-1.244-.363-.21-.577.065-.58.597 0 .536.22 1.039.58 1.247zM11.167 29.069c.268.154.465.334.607.489l-.122.43a2.016 2.016 0 0 0-.496-.418c-.234-.134-.347-.077-.347.063 0 .175.133.33.44.642.42.42.617.787.615 1.172-.002.458-.31.67-.963.295a2.754 2.754 0 0 1-.674-.556l.11-.447c.145.169.366.383.596.514.248.144.38.102.38-.078 0-.17-.114-.332-.398-.616-.395-.387-.652-.787-.65-1.185 0-.469.339-.63.902-.305zM13.075 30.17c.268.154.465.332.606.488l-.121.43a1.993 1.993 0 0 0-.498-.417c-.234-.133-.347-.077-.347.063 0 .174.133.329.44.642.42.42.617.787.615 1.172-.002.458-.309.672-.963.294a2.79 2.79 0 0 1-.674-.555l.111-.447c.144.168.367.38.595.514.248.143.38.102.38-.078 0-.17-.114-.332-.398-.616-.395-.387-.652-.788-.65-1.185.001-.469.343-.629.904-.305zM15.4 31.558l.732 3.161-.58-.334-.182-.807-.681-.394-.17.604-.558-.321.735-2.316.705.407zm-.632 1.208l.527.303-.146-.667a19.104 19.104 0 0 1-.118-.596l-.008-.004c-.036.142-.072.329-.111.464l-.144.5zM18.058 35.057c.074.352.146.751.193.884l-.55-.318c-.04-.099-.096-.356-.164-.733-.063-.378-.165-.53-.385-.66l-.161-.094-.004 1.075-.534-.307.007-2.7c.173.068.432.192.717.358.353.203.6.406.77.66.142.212.22.447.217.699-.002.348-.217.464-.422.43v.012c.163.172.257.408.316.694zm-.857-1.246c.268.155.428.092.428-.145 0-.252-.148-.464-.394-.61a1.578 1.578 0 0 0-.244-.12l-.002.755.212.12zM20.358 34.419l-.79 1.143-.003 1.14-.538-.311.004-1.12-.748-2.051.615.356.24.798c.074.242.123.417.184.629.061-.135.117-.26.189-.415l.243-.52.604.35z" fill="#fff"/><path d="M51.441 54L59 41.864 52.623 39l-17.86 4.233L33 47.474l10.556 6.34 7.886.186z" fill="#0032A5"/><path d="M34.342 44.751l3.775-2.194-1.348 3.028-3.775 2.193 1.348-3.027z" fill="#FF8E00"/><path d="M35.617 41.933l3.773-2.195 5.375 3.103-3.775 2.194-5.373-3.102z" fill="#FFDF82"/><path d="M38.337 35.89l3.775-2.193-2.722 6.042-3.773 2.194 2.72-6.043z" fill="#FF8E00"/><path d="M36.48 30.199l3.775-2.193 3.964 2.288-3.775 2.193-3.964-2.288z" fill="#FFDF82"/><path d="M40.443 32.487l3.775-2.193 7.213 23.756-3.774 2.193-7.214-23.756z" fill="#FF8E00"/><path d="M40.444 32.486l7.215 23.756-4.11-2.372-1.326-4.572-7.878-4.547-1.348 3.027-3.964-2.288 7.447-15.292 3.964 2.288zm-4.825 9.446l5.375 3.103-2.653-9.144-2.722 6.041z" fill="#FEC107"/><path opacity=".47" d="M35.405 32.418c.577 1.296.9 2.567.897 3.712-.008 2.698-1.825 4.006-4.501 3.69l3.604-7.402z" fill="#FF8E00"/><path d="M26.75 22.444c-2.787-1.54-5.255-1.817-6.758-.98l-.992.551c1.503-.835 3.972-.56 6.758.981 4.567 2.524 8.262 7.486 8.25 11.081-.004 1.401-.57 2.389-1.53 2.923l.992-.552c.96-.535 1.527-1.522 1.53-2.923.012-3.595-3.681-8.558-8.25-11.081z" fill="#B54061"/><path d="M26.043 22.577c4.823 2.785 8.725 8.26 8.712 12.227-.007 2.856-2.042 4.154-4.98 3.618l-4.095 1.562.009-3.22c-4.68-2.837-8.413-8.16-8.402-12.042.015-3.97 3.933-4.929 8.756-2.145z" fill="#F34F70"/><path d="M25.762 28.959c.606.348 1.095 1.197 1.093 1.892-.002.696-.494.976-1.1.628-.606-.35-1.095-1.198-1.093-1.893.002-.696.494-.976 1.1-.627zM29.381 31.047c.606.35 1.095 1.198 1.093 1.893-.002.696-.494.976-1.1.627-.606-.348-1.095-1.197-1.093-1.892.002-.696.495-.976 1.1-.628zM22.145 26.87c.606.348 1.095 1.197 1.093 1.892-.002.696-.494.976-1.1.628-.606-.35-1.095-1.198-1.093-1.893.002-.696.494-.978 1.1-.628z" fill="#fff"/></svg>