<svg width="60" height="60" fill="none" xmlns="http://www.w3.org/2000/svg" viewBox="0 0 60 60"><path d="M48.234 34.304a3.175 3.175 0 0 0-.954-2.295v-3.253c0-9.947-8.305-18.078-18.328-17.695-9.545.382-16.99 8.513-16.99 18.174v2.774a3.352 3.352 0 0 0-.955 2.295c.01.885.366 1.73.99 2.356a3.378 3.378 0 0 0 2.35.992c.197.015.393-.017.574-.096a15.268 15.268 0 0 0 4.846 10 15.207 15.207 0 0 0 10.33 4.05c3.83 0 7.519-1.446 10.332-4.05a15.268 15.268 0 0 0 4.846-10 3.227 3.227 0 0 0 2.116-1.044 3.24 3.24 0 0 0 .843-2.208z" fill="#FFDCB4"/><path d="M35.157 38.609c.477 0 .954.478.859.956a5.95 5.95 0 0 1-2.005 3.553 5.928 5.928 0 0 1-3.818 1.421c-2.864 0-5.536-2.104-5.918-4.974a.83.83 0 0 1 .5-.895.826.826 0 0 1 .359-.061h10.023z" fill="#fff"/><path d="M49.188 26.72a19.073 19.073 0 0 0-5.679-13.251A18.994 18.994 0 0 0 30.193 8h-.096a18.992 18.992 0 0 0-13.296 5.456 19.07 19.07 0 0 0-5.69 13.22 6.846 6.846 0 0 0-3.144 2.773 6.867 6.867 0 0 0 .67 7.963 6.84 6.84 0 0 0 3.563 2.206 15.043 15.043 0 0 0 5.132 8.871A14.987 14.987 0 0 0 26.947 52h3.628c.633 0 1.24-.252 1.687-.7a2.394 2.394 0 0 0-1.687-4.083h-1.91a2.384 2.384 0 0 0-2.333 1.897 12.126 12.126 0 0 1-8.168-3.767 12.175 12.175 0 0 1-3.34-8.364v-.766a1.438 1.438 0 0 0-1.16-1.408 1.429 1.429 0 0 0-.653.026V30h.955v-2.965a16.16 16.16 0 0 1 5.209-11.885 1.914 1.914 0 0 0 1.854 1.459c.42 0 .83-.14 1.162-.397a13.056 13.056 0 0 1 7.906-2.76c2.861-.03 5.644.935 7.875 2.731a1.907 1.907 0 0 0 3.072-1.107 16.16 16.16 0 0 1 5.288 11.956v2.012h.954v10.713a6.836 6.836 0 0 0 3.893-1.92 6.86 6.86 0 0 0 1.195-8.159 6.848 6.848 0 0 0-3.179-2.959h-.007z" fill="#FA0"/><path d="M14.347 42.435c-.633 0-1.24-.252-1.687-.7a2.394 2.394 0 0 1-.7-1.692V26.652c0-.634.252-1.242.7-1.69a2.384 2.384 0 0 1 4.074 1.69v13.391c0 .635-.252 1.243-.7 1.691-.447.449-1.054.7-1.687.7zM45.847 42.435c-.633 0-1.24-.252-1.687-.7a2.394 2.394 0 0 1-.7-1.692V26.652c0-.634.252-1.242.7-1.69a2.384 2.384 0 0 1 4.074 1.69v13.391c0 .635-.252 1.243-.7 1.691-.447.449-1.054.7-1.687.7z" fill="#FF8C00"/></svg>