<svg width="80" height="80" fill="none" xmlns="http://www.w3.org/2000/svg" viewBox="0 0 80 80"><path d="M48.19 64.232V53.647a10.53 10.53 0 0 0-1.37-5.169 10.14 10.14 0 0 0-3.706-3.759l-4.952-2.806a2.133 2.133 0 0 1-.814-.797 2.217 2.217 0 0 1 0-2.231c.196-.337.477-.613.814-.798l4.952-2.806a10.14 10.14 0 0 0 3.707-3.758 10.53 10.53 0 0 0 1.37-5.17V15.769a2.44 2.44 0 0 0 1.75-.747 2.59 2.59 0 0 0 .726-1.803 2.59 2.59 0 0 0-.726-1.804 2.44 2.44 0 0 0-1.75-.747H18.476a2.44 2.44 0 0 0-1.75.747A2.59 2.59 0 0 0 16 13.218c0 .676.26 1.325.725 1.803a2.44 2.44 0 0 0 1.751.747v10.586a10.53 10.53 0 0 0 1.37 5.169 10.14 10.14 0 0 0 3.706 3.759l4.953 2.805c.324.2.595.48.79.813.193.334.305.712.324 1.1.007.395-.094.783-.29 1.121a2.07 2.07 0 0 1-.824.792l-4.953 2.806a10.14 10.14 0 0 0-3.706 3.76 10.53 10.53 0 0 0-1.37 5.168v10.585a2.44 2.44 0 0 0-1.75.747A2.59 2.59 0 0 0 16 66.783c0 .676.26 1.325.725 1.804a2.44 2.44 0 0 0 1.751.747h29.715a2.44 2.44 0 0 0 1.75-.747 2.59 2.59 0 0 0 .726-1.804 2.59 2.59 0 0 0-.726-1.804 2.44 2.44 0 0 0-1.75-.747z" fill="#B4E6F5"/><path d="M22.667 60.745V64H44v-3.255a2.335 2.335 0 0 0-.338-1.244c-.228-.38-.561-.7-.966-.927-8.888-5.21-9.718-5.21-18.606 0a2.53 2.53 0 0 0-1.051.898c-.252.384-.38.825-.372 1.273zM25.731 31.573l2.24 1.205c5.304 2.518 5.304 2.518 10.726 0l2.239-1.204a5.816 5.816 0 0 0 2.23-2.026c.539-.846.826-1.809.834-2.792v-1.423H22.667v1.423c.008.983.295 1.946.834 2.792a5.817 5.817 0 0 0 2.23 2.026z" fill="#00C8F5"/><path d="M51.334 69.333c6.995 0 12.666-5.67 12.666-12.666S58.33 44 51.334 44s-12.667 5.671-12.667 12.667c0 6.995 5.671 12.666 12.667 12.666z" fill="#00AFE1"/><path d="M53.816 62.137V64h-2.029v-1.863c-1.423-.205-2.742-.772-3.787-1.63l1.488-1.629c1.082.815 2.3 1.28 3.382 1.28.946 0 1.623-.349 1.623-1.047 0-.699-.541-1.048-2.165-1.397-2.164-.582-4.058-1.164-4.058-3.26 0-1.629 1.218-2.91 3.517-3.142v-1.979h2.03v1.979a8.64 8.64 0 0 1 3.246 1.28l-1.488 1.63c-1.082-.582-2.03-.931-2.976-.931-.947 0-1.488.349-1.488.93 0 .583.676.932 2.03 1.281 2.57.699 4.192 1.28 4.192 3.376 0 1.746-1.352 3.026-3.517 3.26z" fill="#fff"/></svg>