<svg width="80" height="80" fill="none" xmlns="http://www.w3.org/2000/svg" viewBox="0 0 80 80"><path d="M66.974 62.745H11.692V23.843a2.508 2.508 0 0 1 2.513-2.51h50.257a2.514 2.514 0 0 1 2.512 2.51v38.902z" fill="#C8EBB4"/><path d="M51.897 56.47H25.513v3.764h26.384V56.47z" fill="#46B400"/><path d="M50.641 56.47a2.508 2.508 0 0 1-2.512 2.51h-17.59a2.514 2.514 0 0 1-2.513-2.51H6.667v5.02A2.508 2.508 0 0 0 9.18 64h60.307A2.514 2.514 0 0 0 72 61.49v-5.02H50.641z" fill="#64C800"/><path d="M55.667 46.682c0-9.16-7.288-16.565-16.334-16.565S23 37.521 23 46.682v1.004a2.508 2.508 0 0 0 2.513 2.51h27.64a2.514 2.514 0 0 0 2.514-2.51v-1.004z" fill="#fff"/><path d="M38.202 45.051l8.292-7.78a.445.445 0 0 1 .628.627l-6.784 9.035a1.433 1.433 0 0 1-2.262-1.757.124.124 0 0 0 .09-.035.123.123 0 0 0 .036-.09z" fill="#46B400"/></svg>