<svg width="53" height="52" fill="none" xmlns="http://www.w3.org/2000/svg" viewBox="0 0 53 52"><g clip-path="url(#clip0)"><path d="M36.33 2.404l10.39 10.355-8.79 2.338s-3.252-5.57-3.167-5.765c.086-.195 1.568-6.928 1.568-6.928z" fill="#F00082"/><path d="M45.203 12.084h-6.235c-.55 0-1.079-.218-1.468-.607a2.066 2.066 0 0 1-.609-1.463V3.802c0-.55-.219-1.076-.608-1.464a2.081 2.081 0 0 0-1.469-.606h-22.86c-.55 0-1.079.218-1.468.606-.39.388-.609.915-.609 1.464v43.482c0 .55.22 1.075.609 1.464.39.388.918.606 1.469.606h33.248c.551 0 1.08-.218 1.47-.606.389-.389.608-.915.608-1.464V14.156c0-.549-.219-1.075-.608-1.464a2.084 2.084 0 0 0-1.47-.608z" fill="#F5B4D7"/><path d="M36.892 36.93H20.267V39h16.625v-2.07zM36.892 31.755H20.267v2.07h16.625v-2.07zM36.891 26.578H26.502v2.07h10.39v-2.07zM36.891 21.4H26.502v2.07h10.39V21.4zM36.891 16.226H26.502v2.07h10.39v-2.07z" fill="#fff"/><path d="M21.515 11.049H6.553a.834.834 0 0 0-.833.83v12.225c-.002.8.23 1.583.665 2.255a4.153 4.153 0 0 0 1.789 1.531l5.858 2.628 5.861-2.628a4.156 4.156 0 0 0 1.787-1.532 4.135 4.135 0 0 0 .664-2.254V11.88a.825.825 0 0 0-.83-.83z" fill="#D70073"/><path d="M13.13 23.84L8.79 19.516l1.47-1.464 2.868 2.858 5.016-5 1.47 1.464-6.486 6.464z" fill="#fff"/></g><defs><clipPath id="clip0"><path fill="#fff" transform="translate(5.72 1.732)" d="M0 0h41.561v47.622H0z"/></clipPath></defs></svg>