<svg width="80" height="80" fill="none" xmlns="http://www.w3.org/2000/svg" viewBox="0 0 80 80"><path d="M18.667 20v46.927c0 .638.25 1.25.694 1.701a2.352 2.352 0 0 0 1.676.705h37.926c.629 0 1.232-.253 1.676-.704a2.425 2.425 0 0 0 .695-1.702V20H18.667z" fill="#F5B4D7"/><path d="M58.963 14.667H21.037c-.628 0-1.231.28-1.676.781a2.845 2.845 0 0 0-.694 1.886v5.333h42.667v-5.333c0-.708-.25-1.386-.695-1.886-.444-.5-1.047-.781-1.676-.781z" fill="#F00082"/><path d="M52 17.334H28v-4c0-.708.253-1.386.703-1.886.45-.5 1.06-.781 1.697-.781h19.2c.636 0 1.247.28 1.697.781.45.5.703 1.178.703 1.886v4z" fill="#D70073"/><path d="M53.333 52h-12v2.667h12V52zM53.333 33.333h-12V36h12v-2.667zM53.333 42.667h-12v2.667h12v-2.667zM32.07 38.667L28 34.762l1.687-1.618 2.384 2.287L35.647 32l1.686 1.618-5.262 5.049zM32.07 48L28 44.095l1.687-1.618 2.384 2.287 3.576-3.431 1.686 1.618L32.071 48zM32.07 57.334L28 53.429l1.687-1.619 2.384 2.287 3.576-3.43 1.686 1.618-5.262 5.049z" fill="#fff"/></svg>