<svg width="60" height="60" fill="none" xmlns="http://www.w3.org/2000/svg" viewBox="0 0 60 60"><path d="M52.077 44H8.923V14c0-.53.207-1.04.574-1.414A1.943 1.943 0 0 1 10.884 12h39.231c.52 0 1.02.21 1.387.586.368.375.575.884.575 1.414v30z" fill="#B4E6F5"/><path d="M39.327 40c0 .53-.207 1.04-.575 1.414a1.943 1.943 0 0 1-1.387.586h-13.73c-.52 0-1.02-.21-1.387-.586A2.02 2.02 0 0 1 21.673 40H5v5c0 .53.207 1.04.575 1.414.367.375.866.586 1.387.586h47.077c.52 0 1.019-.21 1.386-.586A2.02 2.02 0 0 0 56 45v-5H39.327z" fill="#00AFE1"/><path d="M26.576 22H15.788v12h10.788V22z" fill="#fff"/><path d="M25.596 18h-1.962v-2h1.962v2zm-3.923 0H19.71v-2h1.962v2zm-3.923 0h-1.962v-2h1.962v2z" fill="#00C8F5"/><path d="M45.212 22H30.5v2h14.712v-2zM45.212 27H30.5v2h14.712v-2zM45.212 32H30.5v2h14.712v-2z" fill="#fff"/></svg>