<svg width="80" height="80" fill="none" xmlns="http://www.w3.org/2000/svg" viewBox="0 0 80 80"><path d="M69 20H11v43h58V20z" fill="#C8EBB4"/><path d="M21 31h-9.6A2.4 2.4 0 0 1 9 28.6V25h12v6z" fill="#64C800"/><path d="M34 25H21v6h13v-6z" fill="#fff"/><path d="M46 25H34v6h12v-6z" fill="#64C800"/><path d="M59 25H46v6h13v-6z" fill="#fff"/><path d="M68.6 31H59v-6h12v3.6a2.4 2.4 0 0 1-2.4 2.4z" fill="#64C800"/><path d="M23 20H11.546L9 25h12.727L23 20zM46 20H34v5h12v-5zM71 25H59.182L58 20h10.636L71 25z" fill="#46B400"/><path d="M69 20H11v-3.6c0-.636.266-1.247.739-1.697A2.588 2.588 0 0 1 13.522 14h52.956c.67 0 1.31.253 1.783.703.473.45.739 1.06.739 1.697V20zM48 36H33v27h15V36z" fill="#64C800"/><path d="M64 36H53v17h11V36zM28 36H16v17h12V36zM42.665 44.998h-5.33a1.337 1.337 0 0 1-.523-.075 1.272 1.272 0 0 1-.443-.269 1.175 1.175 0 0 1-.287-.416 1.113 1.113 0 0 1-.08-.49v-2.497c-.01-.167.017-.333.08-.49.063-.156.16-.297.287-.415.126-.118.277-.21.444-.27.166-.058.344-.084.522-.074h5.33c.178-.01.356.016.523.075.166.059.317.15.443.269.126.118.224.26.287.416.063.156.09.322.08.49v2.497c.01.167-.017.333-.08.49a1.175 1.175 0 0 1-.287.415c-.126.118-.277.21-.444.27-.166.058-.344.084-.522.074zM36.5 51c.828 0 1.5-.448 1.5-1s-.672-1-1.5-1-1.5.448-1.5 1 .672 1 1.5 1z" fill="#fff"/><path d="M50 66H30l2.5-3h15l2.5 3z" fill="#C8EBB4"/></svg>