<svg width="33" height="30" fill="none" xmlns="http://www.w3.org/2000/svg" viewBox="0 0 33 30"><path d="M27.145 6.372c-1.366-.21-2.725-.535-4.096-.612-6.542-.375-13.086-.683-19.631-1.015-.303-.016-.606.003-.908-.019C.836 4.613.66 4.228 1.453 2.767 2.573.697 3.945-.352 6.545.107c7.937 1.402 15.935 2.454 23.878 3.82 3.148.541 3.245 1.138 1.187 3.642-5.803 7.062-12.148 13.564-19.277 19.246-.905.723-1.883 1.393-2.918 1.898-1.357.66-2.098.181-1.995-1.354.154-2.242.49-4.475.79-6.709.454-3.398.947-6.794 1.417-10.19.22-1.609 3.09-3.833 4.673-3.485.273.058.609.84.56 1.246-.435 3.608-.953 7.207-1.437 10.808-.058.434-.076.874.084 1.44 5.201-3.922 9.366-8.853 13.807-13.497a44.9 44.9 0 0 1-.17-.6z" fill="#36255E"/></svg>