<svg width="27" height="29" fill="none" xmlns="http://www.w3.org/2000/svg" viewBox="0 0 27 29"><path d="M23.294 10.215c-.08-.726-.152-1.438-.24-2.147-.723-5.594-4.853-8.14-10.007-5.872-1.803.792-3.58 2.164-4.78 3.729-3.526 4.59-4.492 9.965-3.349 15.589 1.06 5.21 6.386 7.556 11.053 5.123.295-.153.765-.295.825-.53.66-2.513 1.287-5.036 1.794-7.584.046-.229-.78-.767-1.278-.94-.754-.26-1.574-.324-2.866-.567.607-.492.94-.995 1.281-.998 3.672-.058 7.343-.035 11.015-.035l.258.356c-.358.312-.7.865-1.08.9-2.382.202-3.403 1.6-3.7 3.841-.159 1.19-.649 2.34-.732 3.53-.117 1.7-.926 2.629-2.522 2.93-2.798.523-5.592 1.406-8.398 1.458-5.773.107-9.688-3.63-10.43-9.399C-1.02 10.57 5.267 1.753 14.023.255c3.517-.602 6.943-.162 9.875 1.582L26.34.49c.123.116.246.229.37.344-.582 2.8-1.221 5.592-1.714 8.41-.207 1.16-.72 1.301-1.703.972z" fill="#CD2027"/></svg>