<svg width="26" height="36" fill="none" xmlns="http://www.w3.org/2000/svg" viewBox="0 0 26 36"><path d="M19.538 29.599H26V8.19h-5.914v13.337l-1.715-1.686V9.21c-.03-6.25.711-9.211.711-9.211-2 0-3.038 1.904-3.272 2.466-1.123.124-2.044.774-2.662 2.037a7.296 7.296 0 0 0-.585 1.746c-2.367.55-2.573 4.784-2.417 5.546L6.466 8.19H.022v21.406h5.914V16.662s2.859 2.72 2.859 2.718c.259.78.512 1.092.512 1.092l-1.122-.966c-.203 2.1.387 3.177.933 3.973l-1.365-1.162c-.106 2.086.896 3.364 1.512 3.914l-1.805-.888c-.124 1.248 1.124 3.076 1.847 3.43l-1.522-.228c.33 1.72 1.522 2.34 1.522 2.34s-2.6-.054-3.796-.054c-3.327 0-5.511.316-5.511.316s1.472 1.47 3.353 1.537l-1.675 1.038c1.217.398 2.373.26 2.373.26l-.969 1.162s3.047-1.176 4.332-1.086C8.438 34.13 13.216 36 16.424 36c2.152 0 3.712-.826 4.965-1.492.765-.406 1.425-.734 2.075-.834 1.163-.18 1.685.246 1.685.246.12-.49.478-1.73-1.407-2.034-.073-.337-.4-.777-.888-.851-1.014-.154-5.276-.484-5.402-.492-.366-.022-1.596-.26-.464-1.886.086-.122.657-.846.657-.846l1.893 1.788zm-.151 1.6c1.399.107 2.393.201 3.393.327.379.049.528.486.578.692-.478-.118-1.233-.15-1.233-.15l-.042.454s.647-.186 1.355-.194c0 0 1.452-.006 1.382.978-.396-.276-1.207-.166-1.436-.128-.73.12-1.423.46-2.226.886-.735.39-1.528.808-2.459 1.092.409-.398 1.473-1.578 1.473-1.578l-1.42-.496 1.163-1.018-1.787-.97c.446.037.868.075 1.259.104zm-2.064-3.836c-.658.766-1.513 1.856-1.327 2.65.137.658 1.062 1.061 1.062 1.061l1.988 1.082-1.29 1.13 1.547.49s-1.418 1.462-1.582 1.608c-.404.068-.835.11-1.297.11-3.285 0-7.854-1.946-8.984-1.96-1.363-.016-3.074.772-3.074.772l.894-.972s-1.17.238-2.303.142l1.6-1.09c-1.405-.046-2.634-.466-3.214-.878 0 0 2.586-.206 6.093-.168 1.419.017 3.826.159 3.826.159-1.19-.508-2.302-1.176-2.778-2.35l2.268.344c-.953-.586-2.336-2.05-2.589-3.184l2.529.89c-.449-.488-2.013-1.958-2.294-3.662l2 1.264c-.523-.53-1.946-3.345-1.703-4.17l1.865 1.26c-.892-1.107-1.939-4.045-1.227-5.189.568 2.214 1.829 3.02 1.829 3.02-.829-1.206-2.616-5.474-.909-7.353.449 4.257 2.252 5.693 2.252 5.693-1.493-2.388-3.192-9.715-.022-11.197-.622 4.708.877 7.267.877 7.267-.947-4.337-.915-10.482 2.297-11.044-1.578 4.633-.456 8.207-.456 8.207C14.968.455 18.446.64 18.446.64s-.571 3.078-.571 8.563v15.84c0 1.094-.094 1.746-.552 2.32z" fill="#0C57A5"/><path d="M19.387 31.198c1.399.108 2.393.202 3.393.328.379.048.528.486.578.692-.478-.118-1.233-.15-1.233-.15l-.042.454s.647-.186 1.355-.194c0 0 1.452-.006 1.382.978-.396-.276-1.207-.166-1.436-.128-.73.12-1.423.46-2.226.886-.735.39-1.528.808-2.459 1.092.409-.398 1.473-1.578 1.473-1.578l-1.42-.496 1.163-1.018-1.787-.97c.446.037.868.075 1.259.104zm-2.064-3.835c-.658.766-1.513 1.856-1.327 2.65.137.657 1.062 1.061 1.062 1.061l1.988 1.082-1.291 1.13 1.548.49s-1.419 1.462-1.582 1.608c-.404.068-.835.11-1.297.11-3.286 0-7.854-1.946-8.984-1.96-1.363-.016-3.075.772-3.075.772l.895-.972s-1.17.238-2.303.142l1.6-1.09c-1.405-.046-2.634-.466-3.214-.878 0 0 2.586-.206 6.093-.168 1.419.016 3.825.158 3.825.158-1.189-.508-2.3-1.175-2.777-2.35l2.267.345c-.952-.586-2.335-2.05-2.588-3.184l2.529.89c-.449-.488-2.013-1.958-2.294-3.662l2 1.264c-.523-.53-1.946-3.345-1.703-4.17l1.865 1.26c-.892-1.107-1.939-4.045-1.227-5.189.568 2.214 1.829 3.02 1.829 3.02-.829-1.206-2.616-5.474-.909-7.354.449 4.258 2.252 5.694 2.252 5.694-1.493-2.388-3.192-9.715-.022-11.197-.622 4.708.877 7.267.877 7.267-.947-4.337-.915-10.482 2.297-11.044-1.578 4.633-.456 8.207-.456 8.207C14.967.455 18.446.64 18.446.64s-.571 3.077-.571 8.563v15.84c0 1.094-.094 1.746-.552 2.32z" fill="#fff"/></svg>