<svg width="28" height="29" fill="none" xmlns="http://www.w3.org/2000/svg" viewBox="0 0 28 29"><g clip-path="url(#clip0)"><path d="M8.346 2.535c2.324-3.064 4.938-3.35 7.51-.846 3.592 3.495 7.164 7.012 10.72 10.547 1.853 1.841 1.903 3.085.125 4.901a678.727 678.727 0 0 1-10.325 10.346c-1.89 1.85-4.059 1.975-5.887.582-1.185-.902-1.47-1.718-.252-2.91 2.168-2.125 4.227-4.36 6.324-6.56 2.538-2.658 2.61-4.676.105-7.38-2.45-2.642-5.009-5.18-7.513-7.766-.294-.295-.55-.62-.807-.914z" fill="#085CA7"/><path d="M0 6.735c2.097-2.256 3.311-2.38 5.177-.59 2.29 2.197 4.488 4.492 6.779 6.693 1.277 1.23 1.344 2.359.067 3.615-2.215 2.176-4.35 4.436-6.61 6.56C3.47 24.838 2.307 24.63.378 22.07c1.542-1.453 3.165-2.91 4.703-4.449 2.31-2.312 2.29-3.509-.05-5.893C3.4 10.073 1.735 8.453 0 6.735z" fill="#F08126"/></g><defs><clipPath id="clip0"><path fill="#fff" d="M0 0h28v29H0z"/></clipPath></defs></svg>