<svg width="24" height="31" fill="none" xmlns="http://www.w3.org/2000/svg" viewBox="0 0 24 31"><path d="M24 0H0v30.857h24V0z" fill="#15417A"/><path d="M6.479 19.35c.065.97.275 1.793.582 2.472.323.678.727 1.228 1.227 1.664.501.42 1.083.743 1.729.92.662.195 1.357.291 2.1.291.872 0 1.632-.129 2.278-.371.63-.242 1.163-.566 1.55-.986.405-.42.695-.904.89-1.437.193-.55.29-1.131.29-1.729 0-.856-.178-1.535-.517-2.068-.34-.533-.792-.953-1.357-1.292-.55-.34-1.195-.598-1.906-.808a73.019 73.019 0 0 0-2.213-.598c-.76-.194-1.503-.42-2.214-.678a6.542 6.542 0 0 1-1.922-1.066 5.13 5.13 0 0 1-1.34-1.729c-.356-.695-.518-1.583-.518-2.666 0-.743.146-1.486.42-2.197a5.25 5.25 0 0 1 1.26-1.89c.55-.533 1.244-.969 2.084-1.292.84-.323 1.81-.485 2.892-.485 1.115 0 2.084.178 2.908.517.824.34 1.518.808 2.068 1.422.549.598.953 1.292 1.227 2.084.275.791.388 1.001.388 1.89l-1.745.63c0-.824-.129-1.55-.403-2.165a3.905 3.905 0 0 0-1.067-1.486 4.231 4.231 0 0 0-1.567-.856 6.11 6.11 0 0 0-1.793-.275c-.953 0-1.745.146-2.39.436-.647.307-1.164.679-1.552 1.147A3.937 3.937 0 0 0 7.077 8.3a4.017 4.017 0 0 0-.081 1.696c.113.711.355 1.293.76 1.713.403.42.888.775 1.47 1.05.58.275 1.227.5 1.922.662.694.178 1.421.356 2.148.55.727.193 1.438.42 2.117.678a6.231 6.231 0 0 1 1.825 1.066c.533.453.953 1.018 1.276 1.713.323.694.485 1.583.485 2.633 0 2.035-.63 3.602-1.89 4.717-1.26 1.115-3.021 1.68-5.299 1.68a8.964 8.964 0 0 1-2.843-.436 6.21 6.21 0 0 1-2.278-1.34c-.646-.598-1.13-1.342-1.486-2.214-.356-.889-.533-1.292-.533-2.488l1.809-.63z" fill="#fff"/></svg>