<svg width="960" height="226" fill="none" xmlns="http://www.w3.org/2000/svg" viewBox="0 0 960 226"><path fill="#F5FCFF" d="M0 0h960v226H0z"/><path d="M699 215.114c92.784 0 168-28.121 168-62.811s-75.216-62.812-168-62.812-168 28.122-168 62.812 75.216 62.811 168 62.811z" fill="#004EBB"/><g clip-path="url(#clip0)"><path d="M645.182 161.565l8.839-4.899 12.431 7.025-10.287 5.779s14.178 7.232 7.361 15.595c-6.817 8.363-20.525 13.659-30.879 7.514-10.354-6.146-9.81-18.363-3.836-21.961 6.084-3.671 16.371-9.053 16.371-9.053z" fill="#0032A5"/><path d="M652.17 161.076l-.024 8.913-13.958 8.112.024-8.913 13.958-8.112z" fill="#6B9C41"/><path d="M645.628 177.827l-.025 8.912c.007-1.38-.904-2.596-2.73-3.653-1.949-1.124-4.233-1.649-6.836-1.576-2.608.08-4.978.733-7.116 1.973-2.205 1.283-3.36 2.67-3.464 4.172-.006.074-.006.147-.006.22l.025-8.912c0-.074 0-.147.006-.22.104-1.503 1.264-2.889 3.463-4.172 2.132-1.24 4.508-1.9 7.117-1.973 2.602-.074 4.887.446 6.835 1.576 1.827 1.056 2.731 2.278 2.731 3.653z" fill="#6B9C41"/><path d="M615.58 182.347l-.031 8.913-7.642-4.417.025-8.912 7.648 4.416z" fill="#95C172"/><path d="M619.422 180.105l-.025 8.913-3.848 2.242.03-8.913 3.843-2.242z" fill="#6B9C41"/><path d="M655.279 181.785c-1.026 1.808-2.889 3.488-5.583 5.058a27.016 27.016 0 0 1-8.57 3.195c-3.048.58-6.066.66-9.053.232-2.981-.427-5.718-1.362-8.198-2.798-1.851-1.069-3.146-2.223-3.879-3.469-.501-.837-.745-1.705-.739-2.596l-.025 8.912c0 .892.245 1.759.74 2.596.733 1.24 2.028 2.401 3.879 3.47 2.486 1.435 5.216 2.364 8.197 2.798 2.987.427 6.011.348 9.053-.232a27.079 27.079 0 0 0 8.571-3.195c2.694-1.57 4.557-3.25 5.583-5.058.586-1.033.88-2.053.886-3.067l.024-8.912c0 1.014-.299 2.034-.886 3.066z" fill="#95C172"/><path d="M655.28 181.785c-1.027 1.808-2.89 3.488-5.584 5.058a27.064 27.064 0 0 1-8.57 3.195c-3.048.58-6.066.659-9.053.232-2.981-.428-5.718-1.362-8.198-2.798-1.851-1.069-3.146-2.224-3.879-3.47-.733-1.24-.922-2.541-.568-3.897l-3.848 2.236-7.648-4.417 36.59-21.264 7.648 4.417-13.958 8.112c2.309-.226 4.539-.134 6.689.287 2.144.422 4.111 1.142 5.901 2.181 2.48 1.429 4.105 3.03 4.881 4.783.757 1.759.629 3.537-.403 5.345zm-20.22 2.462c2.584-.086 4.966-.758 7.135-2.022 2.132-1.24 3.274-2.609 3.415-4.111.14-1.497-.764-2.81-2.719-3.94-1.948-1.124-4.233-1.65-6.835-1.576-2.609.079-4.979.733-7.117 1.973-2.205 1.282-3.36 2.669-3.463 4.172-.104 1.503.818 2.81 2.767 3.94 1.961 1.13 4.227 1.655 6.817 1.564z" fill="#AEE08B"/><path d="M678.426 152.378l54.886-35.931-48.802-20.653-66.95 19.926 60.866 36.658z" fill="#0032A5"/><path d="M676.422 43.706l-55.881-32.26c-.904-.519-1.723-.568-2.309-.226l-3.904 2.273c.593-.343 1.411-.294 2.309.226l55.876 32.26c1.796 1.038 3.243 3.548 3.243 5.607l-.287 100.975c0 1.027-.366 1.747-.947 2.09l3.904-2.273c.586-.336.947-1.063.947-2.089l.287-100.975c.006-2.06-1.442-4.57-3.238-5.608z" fill="#9AABC8"/><path d="M672.512 45.96c1.796 1.038 3.244 3.55 3.244 5.608l-.287 100.975c-.006 2.065-1.466 2.896-3.262 1.857l-55.876-32.259c-1.796-1.039-3.243-3.543-3.237-5.614l.287-100.976c.006-2.058 1.466-2.895 3.256-1.857l55.875 32.266z" fill="#fff"/><path d="M641.737 31.079c.55.318.996 1.087.99 1.717 0 .635-.446.885-.996.568-.55-.318-.996-1.088-.99-1.717 0-.63.452-.88.996-.568zM640.369 126.423c1.588.916 2.871 3.14 2.865 4.966-.006 1.827-1.295 2.566-2.89 1.643-1.588-.916-2.871-3.145-2.864-4.966.012-1.826 1.301-2.559 2.889-1.643z" fill="#8BA7D3"/><path d="M673.294 54.115l-59.033-34.08v89.137l59.033 34.086V54.115z" fill="#00AFE1"/><path d="M619.77 67.083c1.045.605 1.851 1.301 2.242 1.753l-.385 1.46a7.648 7.648 0 0 0-1.881-1.49c-1.527-.88-2.682-.556-2.688 1.46-.006 1.918 1.032 3.646 2.535 4.514.422.244.758.385.898.385l.006-1.943-1.246-.72.006-1.644 3.012 1.741-.012 4.9c-.562-.105-1.631-.416-2.7-1.033-1.479-.855-2.542-1.894-3.281-3.152-.745-1.234-1.148-2.676-1.13-4.038.012-3.09 1.973-3.726 4.624-2.193zM625.543 70.51l-.019 7.532 3.213 1.857-.006 1.765-5.045-2.913.024-9.298 1.833 1.057zM632.952 74.639c2.487 1.435 3.837 4.355 3.83 6.921-.006 3.048-1.624 3.965-3.989 2.602-2.4-1.386-3.799-4.282-3.793-6.927.006-2.792 1.564-3.977 3.952-2.596zm-.061 7.91c1.234.715 1.949-.232 1.949-2.04.006-1.667-.69-3.5-1.949-4.227-1.234-.715-1.961.22-1.967 2.028 0 1.82.745 3.531 1.967 4.24zM640.851 79.202a8.721 8.721 0 0 1 2.065 1.662l-.416 1.46c-.323-.367-.898-.966-1.686-1.418-.794-.458-1.179-.262-1.179.214 0 .593.452 1.118 1.497 2.18 1.423 1.43 2.095 2.677 2.089 3.984-.006 1.557-1.05 2.278-3.274 1.002-.922-.532-1.839-1.338-2.291-1.888l.373-1.521c.495.574 1.246 1.301 2.028 1.747.843.489 1.289.348 1.289-.263 0-.58-.385-1.13-1.35-2.095-1.344-1.313-2.218-2.675-2.211-4.026 0-1.594 1.154-2.144 3.066-1.038zM647.333 82.94a8.385 8.385 0 0 1 2.058 1.662l-.409 1.46c-.324-.367-.898-.965-1.692-1.417-.794-.452-1.179-.263-1.179.214 0 .592.452 1.118 1.497 2.18 1.423 1.43 2.095 2.676 2.089 3.983-.006 1.558-1.051 2.285-3.274 1.002-.923-.531-1.833-1.338-2.291-1.888l.379-1.52c.488.574 1.246 1.294 2.022 1.746.843.49 1.288.349 1.288-.262 0-.58-.384-1.13-1.35-2.095-1.343-1.314-2.217-2.676-2.211-4.026.006-1.594 1.167-2.138 3.073-1.038zM655.243 87.657l2.486 10.745-1.973-1.136-.617-2.743-2.315-1.338-.581 2.053-1.893-1.094 2.498-7.868 2.395 1.38zm-2.151 4.105l1.79 1.032-.495-2.266a67.349 67.349 0 0 1-.403-2.028l-.024-.012c-.122.482-.245 1.118-.379 1.576l-.489 1.698zM664.266 99.55c.25 1.197.494 2.553.653 3.005l-1.869-1.081c-.134-.336-.324-1.209-.556-2.492-.214-1.283-.562-1.802-1.307-2.242l-.55-.318-.012 3.653-1.814-1.044.024-9.175c.586.232 1.466.653 2.437 1.215 1.198.69 2.041 1.38 2.615 2.242.482.72.745 1.521.739 2.376-.006 1.185-.739 1.576-1.436 1.46v.043c.556.586.874 1.387 1.076 2.358zm-2.914-4.233c.91.525 1.454.311 1.454-.495 0-.855-.501-1.576-1.338-2.071a5.368 5.368 0 0 0-.831-.41l-.006 2.566.721.41zM672.084 97.382l-2.681 3.885-.012 3.873-1.827-1.057.012-3.805-2.541-6.97 2.089 1.21.819 2.711c.25.825.415 1.418.623 2.138.208-.458.397-.885.641-1.41l.825-1.766 2.052 1.191z" fill="#fff"/><path d="M586.937 161.657c2.346 2.046 9.542.849 13.653 6.976 3.635 5.418-13.195 13.756-25.931 4.966-15.162-10.464-.538-16.353 5.638-15.571 2.67.336 4.148 1.454 6.64 3.629z" fill="#0032A5"/><path fill-rule="evenodd" clip-rule="evenodd" d="M579.185 161.376c.928-.091 3.011-1.154 6.188-1.606 1.246-.177 2.981.171 2.425 1.967-.745 2.413-2.926 4.166-5.064 5.021-.758.299-1.711.373-2.621.806-.702.336-.861.892-1.386 1.265-1.143.812-2.468.733-3.409.427-1.13-.366-1.539-.818-1.808-2.119-.244-1.192-.293-3.348.012-4.191.428-1.991 5.095-2.181 5.663-1.57z" fill="#5AADCD"/><path fill-rule="evenodd" clip-rule="evenodd" d="M587.499 160.179c.361.311.525.812.293 1.557-.745 2.413-2.926 4.166-5.064 5.022-.757.299-1.71.372-2.62.806-.703.336-.862.892-1.387 1.264-1.142.813-2.468.734-3.409.428-1.13-.366-1.539-.818-1.808-2.12a9.72 9.72 0 0 1-.152-1.124c.873.654 1.722.862 2.522.843 1.405-.03 2.175-.8 3.892-1.472 1.124-.44 2.443-.794 3.83-1.368 2.126-.874 4.105-2.089 3.903-3.836z" fill="#4799BA"/><path fill-rule="evenodd" clip-rule="evenodd" d="M587.615 160.289c.593.66.208 1.79-.134 2.492-.929 1.919-2.92 3.372-4.747 4.099-.757.3-1.698.471-2.608.904-.702.336-.849.807-1.368 1.179-1.143.813-2.548.758-3.482.452-1.063-.348-1.448-.916-1.711-2.07.269.58.678.934 1.424 1.172.94.306 2.339.361 3.482-.452.525-.372.665-.843 1.368-1.179.91-.433 1.979-.531 2.743-.83 2.138-.849 4.453-2.371 5.198-4.783a1.15 1.15 0 0 0-.165-.984z" fill="#FFEBBE"/><path fill-rule="evenodd" clip-rule="evenodd" d="M573.602 162.952c.354-1.191-.19-3.903-.483-7.074l6.28-1.637c-.464 3.61-.526 5.889.049 7.77-.41 2.358-4.728 3.659-5.846.941z" fill="#F1B287"/><path fill-rule="evenodd" clip-rule="evenodd" d="M573.602 162.952c.354-1.191-.19-3.903-.483-7.073l2.633-.52.446 9.114c-1.081.062-2.12-.372-2.596-1.521z" fill="#E8A476"/><path fill-rule="evenodd" clip-rule="evenodd" d="M580.895 160.881c.129.183.245.391.348.623.159.354.294.764.404 1.222l-.3.067a6.36 6.36 0 0 0-.385-1.167 3.569 3.569 0 0 0-.372-.647l.305-.098zM581.708 160.618c.122.177.232.373.33.599.159.354.293.763.403 1.222l-.299.067a6.36 6.36 0 0 0-.385-1.167 3.314 3.314 0 0 0-.361-.623c.098-.031.202-.061.312-.098zM582.478 160.387c.11.171.219.36.311.568.159.354.293.763.403 1.222l-.299.067a6.36 6.36 0 0 0-.385-1.167 4.049 4.049 0 0 0-.342-.605c.104-.024.208-.055.312-.085zM583.21 160.19c.11.165.214.355.306.556.158.355.293.764.403 1.222l-.299.067a6.438 6.438 0 0 0-.385-1.167 4.036 4.036 0 0 0-.342-.604 3.5 3.5 0 0 0 .317-.074zM584.096 159.989c.085.141.165.293.244.458.159.355.294.764.403 1.222l-.299.067a6.35 6.35 0 0 0-.385-1.166 4.013 4.013 0 0 0-.281-.52c.098-.012.208-.036.318-.061z" fill="#FFEBBE"/><path fill-rule="evenodd" clip-rule="evenodd" d="M572.856 156.648c1.503 2.334 6.787 1.198 7.306-1.698.294-1.857-8.21-1.099-7.306 1.698z" fill="#7D3607"/><path fill-rule="evenodd" clip-rule="evenodd" d="M573.858 157.026c-.208-1.466-.409-.122-.623-2.749-.501-6.029-.855-12.455.043-15.742.427-1.569 1.014-2.938 1.35-6.12.476-4.454-.605-8.76-1.106-13.219-.03-.116-.055-.239-.085-.361v-.006c-.251-1.161-.361-2.462-.33-3.812-.018-2.926.489-6.823 2.553-10.867l3.794-.495c.073.159.14.318.213.465.147.299.288.568.434.818.025.043.049.086.073.122l.147.238c.049.08.098.153.141.227.036.061.073.116.116.177l.055.085c.03.043.055.086.085.128.055.086.11.165.171.245l.092.128c.104.147.201.287.299.422l.104.152.092.129c.079.116.158.226.232.342.159.244.317.494.458.763.037.067.067.129.104.196v.006c.116.232.22.476.324.745.03.086.061.177.091.269.012.049.031.091.043.14l.073.239c.019.067.037.14.055.213l.019.074.091.397.037.201c.012.055.018.11.03.171.013.055.019.116.031.178.012.061.018.122.03.183.007.061.019.122.025.183.006.061.018.128.024.189.691 5.743.929 10.342.471 17.282-.324 4.868-.636 4.795-1.399 6.902-.764 2.108-1.973 5.449-2.163 7.96-.195 2.627-.439 9.847-.482 11.674.024 1.728-1.24 3.06-2.499 3.042-1.13.152-2.333-.202-3.213-1.314z" fill="#CC5C1A"/><path fill-rule="evenodd" clip-rule="evenodd" d="M573.498 157.302c-.794-5.571-1.705-13.36-.226-18.766.427-1.57 1.014-2.938 1.35-6.121.476-4.453-.605-8.759-1.106-13.219-.061-.25-.116-.507-.165-.763a16.99 16.99 0 0 1-.25-3.409c-.019-2.926.488-6.823 2.553-10.867l3.794-.495c.073.159.14.318.213.464a12.47 12.47 0 0 0 .507.941l.147.238c.049.08.098.153.14.226.037.061.074.116.117.177l.054.086c.031.043.055.086.086.128.055.086.11.165.171.245l.092.128c.104.147.201.287.299.421l.104.153.091.128c.08.116.159.226.233.342.158.245.317.495.458.764l.104.196v.006c.116.232.22.476.323.745.031.085.061.177.092.269.012.049.031.091.043.14l.073.238.055.214.018.074c.031.128.061.262.092.397l.037.201c.012.055.018.11.03.171.012.055.018.116.031.177.012.061.018.123.03.184.006.061.019.122.025.183.006.061.018.128.024.189.525 4.392.739 7.954.629 12.566-.36.378-3.115.837-5.742-.868-.324 4.869 1.118 9.719.355 11.827-2.004 5.516-3.941 3.28-1.864 23.029-1.117.153-2.132.373-3.017-.739z" fill="#AC4E11"/><path fill-rule="evenodd" clip-rule="evenodd" d="M578.679 124.712c.439 3.011 1.295 6.518 1.093 9.145-.208 2.706-2.535 4.447-2.847 7.171-.702 6.084.129 8.613.141 16.163 1.484-.494 2.077-.977 2.297-2.241-.098-3.269-.507-5.639.11-11.833.452-4.532 2.547-8.167 2.486-8.876l-.66-8.21-2.62-1.319z" fill="#E6702B"/><path fill-rule="evenodd" clip-rule="evenodd" d="M573.082 160.105c-.055-.58-.152-2.376-.226-3.463 1.436 1.545 6.714.305 7.306-1.699.013.672.11 2.279.135 3.079.195 2.639-5.406 4.459-7.215 2.083z" fill="#9F460C"/><path fill-rule="evenodd" clip-rule="evenodd" d="M580.529 162.439c1.503 2.334 6.787 1.198 7.306-1.698.293-1.857-8.216-1.099-7.306 1.698z" fill="#7D3607"/><path fill-rule="evenodd" clip-rule="evenodd" d="M586.858 167.167c.928-.091 3.011-1.154 6.188-1.606 1.246-.177 2.981.171 2.425 1.967-.745 2.413-2.926 4.166-5.064 5.021-.758.299-1.711.373-2.621.806-.702.336-.861.892-1.387 1.265-1.142.812-2.467.733-3.408.427-1.13-.366-1.54-.818-1.808-2.119-.245-1.192-.294-3.348.012-4.191.428-1.985 5.095-2.181 5.663-1.57z" fill="#5AADCD"/><path fill-rule="evenodd" clip-rule="evenodd" d="M595.172 165.97c.36.311.525.812.293 1.557-.745 2.413-2.926 4.166-5.064 5.022-.757.299-1.71.372-2.62.806-.703.336-.862.892-1.387 1.265-1.142.812-2.468.733-3.409.427-1.13-.366-1.539-.818-1.808-2.12a9.926 9.926 0 0 1-.153-1.124c.874.654 1.723.862 2.523.843 1.405-.03 2.175-.8 3.891-1.472 1.124-.44 2.444-.794 3.831-1.368 2.125-.874 4.105-2.089 3.903-3.836z" fill="#4799BA"/><path fill-rule="evenodd" clip-rule="evenodd" d="M595.281 166.08c.593.66.208 1.79-.134 2.492-.929 1.919-2.92 3.372-4.747 4.099-.757.3-1.698.471-2.608.904-.702.336-.849.807-1.368 1.179-1.143.813-2.548.758-3.482.452-1.063-.348-1.448-.916-1.711-2.07.269.58.679.934 1.424 1.172.94.306 2.339.361 3.482-.452.525-.372.666-.843 1.368-1.179.91-.433 1.979-.531 2.743-.83 2.138-.849 4.453-2.371 5.198-4.783a1.129 1.129 0 0 0-.165-.984z" fill="#FFEBBE"/><path fill-rule="evenodd" clip-rule="evenodd" d="M581.275 168.743c.354-1.191-.19-3.903-.483-7.074l6.28-1.637c-.465 3.604-.526 5.889.049 7.77-.41 2.358-4.729 3.659-5.846.941z" fill="#F1B287"/><path fill-rule="evenodd" clip-rule="evenodd" d="M581.275 168.743c.354-1.191-.19-3.903-.483-7.073l2.633-.52.446 9.114c-1.081.062-2.126-.372-2.596-1.521z" fill="#E8A476"/><path fill-rule="evenodd" clip-rule="evenodd" d="M588.568 166.679c.128.183.244.391.348.623.159.354.294.763.403 1.221l-.299.068a6.36 6.36 0 0 0-.385-1.167 3.675 3.675 0 0 0-.372-.648l.305-.097zM589.374 166.409c.122.177.232.373.33.599.159.354.293.763.403 1.222l-.299.067a6.36 6.36 0 0 0-.385-1.167 3.314 3.314 0 0 0-.361-.623c.104-.031.208-.061.312-.098zM590.15 166.184c.11.171.214.36.312.568.159.354.293.763.403 1.221l-.299.068a6.36 6.36 0 0 0-.385-1.167 4.049 4.049 0 0 0-.342-.605 3.87 3.87 0 0 1 .311-.085zM590.883 165.988c.11.165.214.355.306.556.158.354.293.764.403 1.222l-.3.067a6.363 6.363 0 0 0-.384-1.167 3.952 3.952 0 0 0-.343-.604c.098-.019.208-.049.318-.074zM591.763 165.78c.085.141.165.293.244.458.159.355.294.764.403 1.222l-.299.067a6.35 6.35 0 0 0-.385-1.166 4.013 4.013 0 0 0-.281-.52c.104-.012.208-.036.318-.061z" fill="#FFEBBE"/><path fill-rule="evenodd" clip-rule="evenodd" d="M581.751 107.742l6.958-.818c1.368 3.445 3.079 3.683 3.39 7.825 1.216 8.308-.091 14.905-1.606 22.883-.287 1.527-.959 4.038-1.185 5.992-1.143 9.652-2.071 8.052-1.748 18.32.135 2.224-2.803 3.195-3.457 2.541-1.155.11-2.376 0-3.048-.488-.299-3.079-.953-15.052-.8-17.862.183-3.225 1.631-6.298 2.089-9.053.488-2.895-.733-10.867-1.045-15.485-5.369-4.722-2.987-10.33.452-13.855z" fill="#CC5C1A"/><path fill-rule="evenodd" clip-rule="evenodd" d="M581.054 163.996c-.299-3.078-.952-15.051-.8-17.861.184-3.226 1.631-6.298 2.089-9.053.489-2.896-.733-10.867-1.044-15.486-5.376-4.721-2.987-10.329.452-13.848l6.958-.818c1.368 3.445 3.078 3.683 3.39 7.825.104 1.399.171 2.871.183 4.398l-.391.446c-.757 6.86-.66 6.671-5.748 6.512 0 4.374.336 8.008.055 11.197-.287 3.219-1.576 4.649-2.034 7.281-1.081 6.201-1.32 12.193-.159 19.914-1.13.086-2.297-.03-2.951-.507z" fill="#AC4E11"/><path fill-rule="evenodd" clip-rule="evenodd" d="M575.905 79.307c-2.095.867-3.042 2.578-3.378 4.57-.984 5.827 2.199 9.712 2.425 14.648.269 5.827-3.427 9.505-2.016 18.637.568 2.743 11.436 7.666 15.449 7.208 2.956-.287 3.091-6.451 3.256-8.717.598 2.157.934 4.905.959 6.457.574-2.786.159-5.699-.263-8.479-.55-3.604-1.368-5.436-.879-9.077.733-5.455 4.19-12.48 2.522-16.774-.36-.923-.989-1.369-1.698-1.937-1.16-.928-4.538-2.529-6.896-3.732l.006.177c-2.603-1.503-5.461-2.853-7.575-3.128-.751-.103-1.399-.067-1.912.147z" fill="#B1DBF1"/><path fill-rule="evenodd" clip-rule="evenodd" d="M581.708 122.941c2.591.983 5.138 1.6 6.677 1.423 2.957-.287 3.091-6.45 3.256-8.717.599 2.157.935 4.905.959 6.457.574-2.785.159-5.699-.263-8.479-.549-3.604-1.368-5.436-.879-9.077.733-5.455 4.19-12.48 2.523-16.774-.361-.923-.99-1.369-1.699-1.937-1.16-.928-4.538-2.529-6.896-3.732l.006.177c-2.602-1.503-5.461-2.853-7.575-3.128a6.338 6.338 0 0 0-.739-.048c1.735 3.06 3.232 4.465 10.342 7.214-1.087 2.901-.134 9.322.544 15.473.745 6.762 4.086 17.574.22 21.252-1.069 1.014-4.191.543-6.476-.104z" fill="#93C7DF"/><path fill-rule="evenodd" clip-rule="evenodd" d="M589.533 79.692c-.531.262-3.213-.116-3.134.122.037 1.197.397 1.93.514 3.573-2.951-.409-6.818-.837-6.977-3.103.013-.183.025-.36.031-.537.006-.019.006-.043.012-.061h-.006c.031-.825-.006-1.57-.238-1.937-.623-1.008-1.906-2.138-2.364-3.665-.727-2.45-.464-5.168 1.82-6.976 4.166-3.311 9.493-.953 10.843 3.885.263.947-.483 1.454-.458 2.266.006.16.214.324.385.672.238.483.22 5.443-.428 5.76z" fill="#E8A476"/><path fill-rule="evenodd" clip-rule="evenodd" d="M589.503 79.667c-.532.263-3.183-.091-3.104.147.037 1.197.397 1.93.514 3.573-.318-.042-.648-.091-.978-.134-1.295-1.826-2.486-3.024-5.956-4.227-.012-.55-.079-1.014-.244-1.277-.623-1.008-1.906-2.138-2.364-3.665-.727-2.45-.464-5.168 1.82-6.976 4.166-3.311 9.493-.953 10.843 3.885.263.947-.483 1.454-.458 2.266.006.16.214.324.385.672.238.483.189 5.412-.458 5.736z" fill="#DB9669"/><path fill-rule="evenodd" clip-rule="evenodd" d="M589.423 79.692c-.281.153-1.441.049-2.303-.281-.543-.208-.934-.678-1.02-.709-.36-.146-1.148-1.27.079-3.066 1.198-1.747-6.059 2.73-6.444 2.107-.623-1.008-1.906-2.138-2.364-3.665-.727-2.45-.464-5.168 1.82-6.976 4.166-3.31 9.493-.953 10.843 3.885.263.947-.483 1.454-.458 2.266.006.16.214.324.385.672.238.489.097 5.425-.538 5.767z" fill="#E8A476"/><path fill-rule="evenodd" clip-rule="evenodd" d="M589.546 79.673c-.116.068-.764.043-1.088-.067-.366-.397-.751-1.234-.733-1.65.049-1.594.855-2.889.849-3.53-.006-1.362-.464-.684.061-2.156.397-1.13-.122-1.301-.354-2.273.574-.213.843-.653.941-.94.348.586.623 1.234.818 1.936.263.947-.482 1.454-.458 2.266.006.16.214.324.385.672.232.483.196 5.37-.421 5.742z" fill="#F1B287"/><path fill-rule="evenodd" clip-rule="evenodd" d="M586.436 75.69c-1.49-1.393-2.932 3.036-.531 2.987-.935-.99-.226-2.56.531-2.987z" fill="#DB9669"/><path fill-rule="evenodd" clip-rule="evenodd" d="M586.43 76.338c.226-.617.036-.843-.239-.776-.299.073-.727.501-.946 1.142-.355 1.033.152 2.34 1.154 1.833-.861.049-.782-.983-.519-1.625.171-.434.446-.739.55-.574z" fill="#F1B287"/><path fill-rule="evenodd" clip-rule="evenodd" d="M586.033 76.62c.238.445.323.714.244.867-.055.103-.22.226-.489-.037-.006-.306.104-.593.245-.83z" fill="#DB9669"/><path fill-rule="evenodd" clip-rule="evenodd" d="M579.863 78.354c-.69-1.454-1.924-2.352-2.492-4.276-.727-2.45-.464-5.168 1.82-6.976 3.274-2.603 7.269-1.705 9.481 1.148.116.183-1.136.776-.721 1.692.593 1.558.58 2.254.342 2.596-.928 1.326-.947 1.515-.898 3.531l-.525.422c-.22-1.582-.923-1.46-1.607-.929-1.191.923-1.655 3.018-3.641 3.427a1.706 1.706 0 0 1-1.759-.635z" fill="#361D07"/><path fill-rule="evenodd" clip-rule="evenodd" d="M587.377 75.623c.159.99.226 1.613.654 2.108.165.189.592.25 1.02.336a5.86 5.86 0 0 1 .22-1.088c.153-.52.434-.94.849-1.197.031.128.037.568-.037.641-.195.196-.232.428-.33.745-.097.33-.116.556-.116.996.104.012.196.03.269.037.037.006.043-.281.116-.275.037.819.049 1.918-.14 1.985-.239.092-1.625-.19-2.34-.476-.745-.3-.525-.464-.592-1.344-.055-.727-.055-1.546-.153-2.315l.58-.153z" fill="#361D07"/><path fill-rule="evenodd" clip-rule="evenodd" d="M587.774 77.346c.067.14.153.269.257.385.165.19.592.25 1.02.336.055-.464.116-.733.22-1.087.152-.52.433-.941.849-1.198.03.129.036.568-.037.642-.195.195-.232.427-.33.745-.098.33-.116.556-.116.996.104.012.196.03.269.036.037.006.043-.28.116-.275.037.819.049 1.918-.141 1.986-.177.073-1.02-.074-1.722-.275-.251-.568-.446-1.375-.434-1.68 0-.208.025-.415.049-.611z" fill="#4F2B0C"/><path fill-rule="evenodd" clip-rule="evenodd" d="M580.486 72.514c.025 1.222.116 1.668.532 2.78.11-.703.208-1.418.342-2.114.043-.232.098-.464.153-.69.165 1.038.281 2.089.415 3.134.238-1.112.495-2.23.684-3.348.416.635.532 1.967.69 2.792.214-1.039.434-2.022.501-3.079.446.452.575 1.655.697 2.315.195-.88.342-1.668.44-2.572.281.41.366 1.387.446 1.894.164-.605.427-1.393.427-2.004.452.782.464 1.693.55 2.566.171-.91.44-1.949.36-2.871.196.312.422 1.222.538 1.613.049-.697.11-1.411.104-2.108.372.416.751 1.191.812 1.784.33-.703.171-2.083-.25-3.018l-.049-.11-.122.006c-.709.043-1.418.092-2.126.135-.464.03-.935.06-1.399.085-.226.013-.483.037-.703.037-.091-.006-.207-.024-.305-.037l-.678-.091-1.967-.275c-.99-.14-1.93-.385-2.926-.525-1.381 2.43-.348 4.8.202 5.986-.049-.77-.165-1.588-.049-2.346.061.66.433 1.534.672 2.181 0-.77-.031-1.436.152-2.2-.036 1.076.147 1.705.678 2.64-.055-.977-.152-1.747.117-2.755.036 1.228.262 1.973.629 3.103.091-.965.134-1.985.433-2.908z" fill="#54321E"/><path fill-rule="evenodd" clip-rule="evenodd" d="M577.322 72.501c.739-.537 2.425-1.08 5.596-1.307 2.193-.153 3.72-.66 5.052-1.368 2.003-1.07 1.692-3.28.843-4.032-1.637-1.454-5.865-1.301-8.681.147-2.058 1.056-3.195 3.158-2.81 6.56z" fill="#361D07"/><path fill-rule="evenodd" clip-rule="evenodd" d="M577.322 72.501c.739-.537 2.425-1.08 5.596-1.307 2.193-.153 3.72-.66 5.052-1.368 2.003-1.07 1.692-3.28.843-4.032a2.641 2.641 0 0 0-.532-.366c-.513 3.818-2.407 2.785-6.17 4.11.55-.525.288-.427.782-.738-1.197.433-2.113.354-3.463 1.234.427-.391.537-.63.806-.837-.592.153-1.808.525-2.645 1.826l-.11-1.796c-.201 1.112-.147 2.132-.159 3.274z" fill="#241304"/><path fill-rule="evenodd" clip-rule="evenodd" d="M589.026 68.892c-.617.775-3.274-1.014-6.988-.33.794-2.456 1.258-2.975 2.37-3.696 1.454-.935 3.904-.556 4.673.74.739 1.227.44 2.663-.055 3.286z" fill="#4F2B0C"/><path fill-rule="evenodd" clip-rule="evenodd" d="M583.815 68.183c1.137-1.124 2.853-.923 4.393-.507-.892-.843-2.725-.526-3.605-.068 1.198-1.111 1.986-1.069 3.488-.873-1.105-.568-2.529-.403-3.317.226 1.076-1.27 1.534-1.173 3.11-1.081-1.1-.587-2.743-.38-3.415.25.806-.947 1.436-1.154 2.938-1.154-1.289-.391-2.284-.355-3.347.745.831-1.466 2.596-1.478 3.757-1.02 1.02.403 1.679 1.484 1.704 2.443.024.886-.342 1.442-.593 1.497-1.209.268-1.814-.715-5.113-.458z" fill="#361D07"/><path fill-rule="evenodd" clip-rule="evenodd" d="M580.755 165.896c-.055-.58-.152-2.376-.226-3.463 1.436 1.545 6.714.305 7.306-1.699.012.672.11 2.279.135 3.079.195 2.639-5.407 4.459-7.215 2.083z" fill="#9F460C"/><path fill-rule="evenodd" clip-rule="evenodd" d="M591.61 126.508l-4.16 1.093c.318 6.946.483 8.626-.342 12.053-2.095 8.698-2.852 11.258-2.504 20.573.965-.158 1.631-.36 2.352-1.179.103-9.553.69-10.464 2.675-19.657.904-4.154 1.625-8.314 1.979-12.883z" fill="#E6702B"/><path fill-rule="evenodd" clip-rule="evenodd" d="M577.335 81.47c1.417 2.088 2.779 3.249 6.127 4.617 2.81 1.149 2.272.898 2.205 4.062a87.11 87.11 0 0 0 .519 11.546c.623 5.748 2.181 10.665 1.704 17.538-.391 5.662-8.649 1.942-11.759-.055-1.948-1.253-3.036-2.798-2.602-6.305.904-7.312 2.718-9.114 2.639-13.909-.122-7.422-5.131-12.858-1.765-17.544 1.301-1.814 2.119-1.148 2.932.05z" fill="#BEE3F7"/><path fill-rule="evenodd" clip-rule="evenodd" d="M587.804 88.06c-.446 3.006 1.088 9.451 4.215 13.33l.63-2.272c-2.487-3.476-3.195-13.158-4.845-11.057z" fill="#83BCD6"/><path fill-rule="evenodd" clip-rule="evenodd" d="M608.391 91.854c2.211-1.136 5.326-3.488 7.08-3.17 1.514.274 1.74 2.278 1.447 3.408-.238.922-2.382 1.961-3.738 2.73-1.204.685-2.535.007-3.354.557-1.27-.697-1.374-2.242-1.435-3.525z" fill="#F1B287"/><path fill-rule="evenodd" clip-rule="evenodd" d="M615.33 88.665l.14.018c1.515.275 1.741 2.279 1.448 3.409-.238.922-2.382 1.96-3.739 2.73-1.203.685-2.535.007-3.353.556-.519-.287-.807-.757-.972-1.288 1.43-.636 2.774-.318 3.824-.727 1.454-.569 2.487-1.314 2.804-1.98.092-.207-.042-1.588-.152-2.718z" fill="#DB9669"/><path fill-rule="evenodd" clip-rule="evenodd" d="M614.835 88.72c1.167-.482 2.999-1.35 4.148-1.85.812-.355 1.044 1.02.342 1.41-.69.385-2.541 1.344-2.547 1.35-.776.263-1.76.086-1.943-.91z" fill="#F1B287"/><path fill-rule="evenodd" clip-rule="evenodd" d="M619.654 87.456c.116.36.055.61-.329.825-.691.385-2.542 1.344-2.548 1.35-.452.153-.971.159-1.362-.061l4.239-2.114z" fill="#DB9669"/><path fill-rule="evenodd" clip-rule="evenodd" d="M598.061 104.303c.69-.11 1.393-.574 2.254-.91 3.341-1.307 6.451-5.7 10-8.344-1.191-1.204-1.692-2.517-1.289-3.489-4.142 1.852-7.391 4.246-11.197 6.427-2.609 1.484-1.937 5.998.232 6.316z" fill="#F1B287"/><path fill-rule="evenodd" clip-rule="evenodd" d="M598.061 104.303c.691-.11 1.393-.574 2.254-.91 3.342-1.307 6.451-5.7 10-8.344a6.007 6.007 0 0 1-.916-1.167c-2.315.727-7.813 7.055-12.914 9.022.324.746.868 1.295 1.576 1.399z" fill="#DB9669"/><path fill-rule="evenodd" clip-rule="evenodd" d="M594.066 87.694c2.187 2.315 3.787 6.298 5.907 10.195 1.448 2.664 1.472 4.289.69 5.346-.348.47-2.089 1.069-2.517 1.075-.995.024-2.022-.672-3.695-2.841-2.175-2.822-8.467-11.1-6.39-13.701 1.863-2.328 4.178-2.004 6.005-.074z" fill="#B1DBF1"/><path fill-rule="evenodd" clip-rule="evenodd" d="M599.771 103.803c-.623.281-1.368.501-1.625.507-.995.024-2.022-.672-3.695-2.841-2.175-2.822-8.467-11.1-6.39-13.701.403-.501.825-.886 1.265-1.149 1.722 4.062 7.654 15.064 10.445 17.184z" fill="#93C7DF"/><path fill-rule="evenodd" clip-rule="evenodd" d="M589.985 86.808c3.097-.537 4.661 2.34 6.414 5.443 1.619 3.396 5.736 9.053 3.22 10.592-4.429-5.528-6.482-9.236-9.634-16.035z" fill="#BEE3F7"/><path d="M697.564 170.618s14.404-10.543 28.039-3.988c14.52 6.976 10.464 18.393 10.464 18.393l-9.377 5.192-9.505-.892-7.062 10.763s-1.319-.024-9.004-4.832c-7.684-4.807-9.658-16.645-7.281-20.225 2.37-3.586 3.726-4.411 3.726-4.411z" fill="#0032A5"/><path d="M717.282 178.982l-.024 9.566c.006-1.79-1.142-3.348-3.445-4.673-2.065-1.191-4.441-1.753-7.129-1.692-2.694.061-5.18.757-7.471 2.089-2.297 1.332-3.519 2.779-3.671 4.349-.012.104-.012.214-.019.318l.025-9.566c0-.104.006-.208.018-.318.153-1.57 1.375-3.018 3.671-4.349 2.291-1.332 4.784-2.028 7.471-2.089 2.694-.068 5.064.501 7.129 1.692 2.297 1.331 3.451 2.889 3.445 4.673z" fill="#C93A87"/><path d="M726.72 180.643l-.03 9.566-9.505-.892.024-9.566 9.511.892z" fill="#E650A0"/><path d="M727.056 178.646l-.024 9.566c0 .665-.116 1.331-.342 1.997l.024-9.566a6.004 6.004 0 0 0 .342-1.997z" fill="#2741DC"/><path d="M684.51 187.913l.024-9.566c0 1.014.251 2.028.764 3.036 1.002 1.967 2.938 3.781 5.815 5.442a29.526 29.526 0 0 0 9.285 3.458c3.281.629 6.524.702 9.744.232l-.025 9.566c-3.219.47-6.463.391-9.743-.232a29.548 29.548 0 0 1-9.285-3.457c-2.877-1.662-4.82-3.476-5.816-5.443-.507-1.014-.763-2.022-.763-3.036z" fill="#E650A0"/><path d="M720.282 170.002c2.736 1.576 4.648 3.286 5.742 5.119 1.087 1.832 1.319 3.677.696 5.522l-9.505-.892c.379-2.113-.751-3.928-3.378-5.443-2.065-1.191-4.441-1.753-7.129-1.692-2.694.061-5.18.758-7.47 2.089-2.297 1.332-3.519 2.78-3.672 4.35-.146 1.57.77 2.926 2.761 4.074 2.987 1.723 6.317 2.358 9.994 1.906l1.839 5.474c-3.22.47-6.463.39-9.744-.233a29.524 29.524 0 0 1-9.285-3.457c-2.877-1.662-4.819-3.476-5.815-5.443-1.002-1.967-1.02-3.94-.061-5.925.965-1.979 2.871-3.8 5.73-5.461 2.895-1.68 6.053-2.81 9.48-3.385a31.055 31.055 0 0 1 10.306 0c3.427.587 6.603 1.717 9.511 3.397z" fill="#EB82B9"/><path d="M821.489 180.196l14.588-8.973 4.569-2.651L851 161.925l-22.919-14.422-6.06 4.227-14.081 20.641 13.549 7.825z" fill="#0032A5"/><path d="M825.875 158.119l-.024 8.51-12.602-7.331.024-8.509 12.602 7.33z" fill="#28A1D3"/><path d="M840.67 160.062l-.024 8.51-4.569 2.651.024-8.509 4.569-2.652z" fill="#1F76AB"/><path d="M836.101 162.714l-.024 8.509-28.137 1.149.025-8.504 28.136-1.154z" fill="#2292CA"/><path d="M815.772 175.023l-.025 8.509-22.601-13.103.018-8.503 22.608 13.097z" fill="#28A1D3"/><path d="M821.514 171.687l-.024 8.509-5.742 3.335.024-8.509 5.742-3.335z" fill="#1F76AB"/><path d="M840.67 160.062l-4.569 2.651-28.136 1.155 13.549 7.819-5.742 3.335-22.608-13.097 4.569-2.657 28.142-1.148-12.602-7.331 5.651-3.286 21.746 12.559z" fill="#61D4F8"/><path d="M781.081 170.893l25.681-39.638-21.668-9.353-60.677 13.824-5.992 13.854 35.863 20.709 26.793.604z" fill="#0032A5"/><path d="M723.006 139.294l12.828-7.459-4.581 10.293-12.828 7.453 4.581-10.287z" fill="#FF8E00"/><path d="M727.343 129.715l12.822-7.458L758.43 132.8l-12.828 7.459-18.259-10.544z" fill="#FFDF82"/><path d="M736.586 109.178l12.828-7.452-9.249 20.531-12.822 7.458 9.243-20.537z" fill="#FF8E00"/><path d="M730.27 89.838l12.828-7.452 13.469 7.776-12.828 7.453-13.469-7.777z" fill="#FFDF82"/><path d="M743.739 97.615l12.828-7.453 24.514 80.732-12.828 7.452-24.514-80.731z" fill="#FF8E00"/><path d="M743.739 97.614l24.52 80.732-13.964-8.064-4.509-15.534-26.774-15.455-4.581 10.287-13.47-7.776 25.308-51.966 13.47 7.776zm-16.396 32.101l18.265 10.543-9.016-31.074-9.249 20.531z" fill="#FEC107"/><path opacity=".47" d="M726.616 97.383c1.961 4.404 3.061 8.723 3.049 12.614-.025 9.169-6.201 13.616-15.296 12.541l12.247-25.155z" fill="#FF8E00"/><path d="M698.365 61.866c-10.006-5.773-18.864-6.811-24.258-3.677l-3.561 2.07c5.394-3.133 14.257-2.1 24.257 3.678 16.39 9.462 29.651 28.07 29.609 41.551-.013 5.253-2.047 8.955-5.492 10.959l3.561-2.071c3.446-2.004 5.48-5.706 5.492-10.959.043-13.482-13.213-32.089-29.608-41.55z" fill="#B54061"/><path d="M694.803 63.937c16.389 9.462 29.651 28.069 29.608 41.551-.024 9.706-6.939 14.117-16.926 12.296l-13.916 5.309.031-10.947c-15.901-9.639-28.589-27.727-28.552-40.922.049-13.487 13.366-16.75 29.755-7.287z" fill="#F34F70"/><path d="M693.85 85.623c2.059 1.185 3.72 4.068 3.714 6.432-.006 2.364-1.68 3.317-3.738 2.132-2.059-1.185-3.72-4.068-3.714-6.433.006-2.364 1.68-3.317 3.738-2.131zM706.147 92.721c2.058 1.185 3.72 4.069 3.714 6.433-.006 2.364-1.68 3.317-3.739 2.132-2.058-1.186-3.72-4.069-3.714-6.433.006-2.364 1.68-3.317 3.739-2.132zM681.553 78.525c2.059 1.185 3.721 4.068 3.714 6.432-.006 2.364-1.679 3.317-3.738 2.132s-3.72-4.068-3.714-6.432c.006-2.364 1.68-3.323 3.738-2.132z" fill="#fff"/></g><defs><clipPath id="clip0"><path fill="#fff" transform="translate(568 11)" d="M0 0h283v189.385H0z"/></clipPath></defs></svg>