<svg width="32" height="32" fill="none" xmlns="http://www.w3.org/2000/svg" viewBox="0 0 32 32"><path d="M8.03 1.457C9.656.187 12.782-.175 14.068.073c1.288.246 1.96.96 1.968 1.832L16.11 13c.006.872-.45 1.672-1.014 1.78-.566.106-1.4-.412-1.86-1.154L7.37 4.111c-.454-.742-1.37-1.07.66-2.654zm-1.948 21.1l5.906-2.074c.822-.29 1.56-1.096 1.642-1.796.08-.7-.518-1.532-1.33-1.85l-6.238-2.454c-.812-.32-1.75.436-1.996 1.672 0 0-.148 4.306 0 5.196.15.892 1.192 1.598 2.016 1.306zm10.302 1.038c.016-.874-.452-1.628-1.044-1.682-.592-.054-1.532.446-2.094 1.112l-4.12 4.904c-.56.666-.282 2.23.536 2.528l4.308 1.484c.82.296 2.264-.58 2.28-1.452l.134-6.894zm10.238-1.142l-5.166-1.474c-.838-.24-1.788-.216-2.11.054-.322.266-.242 1.112.18 1.876l3.26 5.922c.42.762 2.108.632 2.572-.108 0 0 1.964-2.876 2.326-3.956.362-1.082-.224-2.076-1.062-2.314zm1.258-8.328c-.232-.75-1.848-2.958-2.722-3.71-.874-.754-1.874-.66-2.436.002l-3.33 3.938c-.564.662-.716 1.714-.34 2.33.376.618 1.378.968 2.23.778l5.758-1.06c1.04-.248 1.078-1.528.84-2.278z" fill="#DC1F00"/></svg>