<svg width="32" height="32" fill="none" xmlns="http://www.w3.org/2000/svg" viewBox="0 0 32 32"><path d="M7.092 19.339l-1.114 4.158-4.071.086A15.928 15.928 0 0 1 0 16.001c0-2.653.645-5.155 1.789-7.358l3.625.664 1.588 3.603A9.51 9.51 0 0 0 6.49 16c0 1.175.213 2.3.603 3.339z" fill="#FBBC05"/><path d="M31.72 13.012c.184.968.28 1.967.28 2.989 0 1.145-.12 2.263-.35 3.34a15.996 15.996 0 0 1-5.633 9.137h-.001l-4.566-.234-.646-4.033a9.535 9.535 0 0 0 4.103-4.87h-8.555v-6.33H31.72z" fill="#4285F4"/><path d="M26.016 28.476v.001A15.933 15.933 0 0 1 16 32c-6.093 0-11.39-3.406-14.093-8.418l5.185-4.244A9.514 9.514 0 0 0 16 25.51a9.46 9.46 0 0 0 4.804-1.301l5.212 4.266z" fill="#28B446"/><path d="M26.213 3.683l-5.184 4.244a9.516 9.516 0 0 0-14.027 4.982L1.79 8.642C4.451 3.508 9.815 0 16 0c3.882 0 7.442 1.383 10.213 3.683z" fill="#EA4335"/></svg>