<svg width="32" height="32" fill="none" xmlns="http://www.w3.org/2000/svg" viewBox="0 0 32 32"><path d="M16 0C7.164 0 0 7.164 0 16s7.164 16 16 16 16-7.164 16-16S24.836 0 16 0zm0 30.72C7.87 30.72 1.28 24.13 1.28 16S7.87 1.28 16 1.28 30.72 7.87 30.72 16 24.13 30.72 16 30.72z" fill="#000"/><path d="M16.48 17.76h2.88v5.76h1.28v-5.76h2.88v-1.28h-7.04v1.28zM14.775 16.32L12 19.095 9.225 16.32l-.905.906L11.095 20 8.32 22.775l.905.905L12 20.905l2.775 2.775.905-.905L12.905 20l2.775-2.774-.905-.906zM19.92 15.52a3.6 3.6 0 0 0 3.6-3.6h-1.28a2.32 2.32 0 0 1-3.34 2.084l3.104-3.103.937-.937a3.6 3.6 0 1 0-3.021 5.556zm0-5.92c.45 0 .87.128 1.225.35l-3.195 3.195A2.32 2.32 0 0 1 19.92 9.6zM12 11.537L9.3 8.32l-.98.823 3.04 3.623v2.754h1.28v-2.754l3.04-3.623-.98-.823-2.7 3.217zM28 28.818a1.28 1.28 0 1 0 0 2.56 1.28 1.28 0 0 0 0-2.56zm0 2.458a1.178 1.178 0 1 1 0-2.355 1.178 1.178 0 0 1 0 2.355z" fill="#000"/><path d="M28.501 30.738h-.117l-.001-.001-.305-.522h-.398v.523h-.102v-1.28h.506c.209 0 .379.17.379.38a.38.38 0 0 1-.28.364l.318.536zm-.821-.62h.403a.28.28 0 0 0 .278-.28.28.28 0 0 0-.278-.284h-.403v.565z" fill="#000"/></svg>