<svg width="960" height="226" fill="none" xmlns="http://www.w3.org/2000/svg" viewBox="0 0 960 226"><path fill="#F5FCFF" d="M0 0h960v226H0z"/><path d="M552.703 183.724H403c3.5-43.536 41.539-37.141 45.382-36.536.151.021.303.051.454.071 7.293 1.261 13.789 4.66 19.861 8.292 1.856 1.109 3.884 2.289 6.154 2.179 1.079-.061 2.098-.414 3.106-.717 3.753-1.119 7.778-1.583 11.752-1.372 2.703.142 5.538.676 7.495 2.25 3.369 2.713 14.303 7.474 17.128 10.601 3.813-4.236 11.136-4.65 17.4-4.034 4.347.423 8.735 1.19 12.528 3.036 3.793 1.856 7.767 12.578 8.443 16.23z" fill="url(#paint0_linear)"/><path d="M839.389 72.513v130.689h-78.952V66.733l.787-.222 3.228 2.129 27.164-6.436 25.531 5.518 1.816.383 8.695 1.876 1.039.222.786.172 9.906 2.138z" fill="#D6ECFF"/><path d="M818.812 81.32l-58.465 81.665.09-18.167 47.097-65.93 9.613 2.069 1.665.363zM839.39 93.122v18.449l-61.31 86.699-14.324.777L839.39 93.122z" fill="#EBF6FF"/><path d="M818.963 68.105v130.941h-1.816V67.722l1.816.383zM788.247 63.828h-1.815v135.218h1.815V63.828z" fill="#9AC0E2"/><path d="M839.384 103.974v-2.078h-83.915v2.078h83.915zM839.388 125.706v-2.078h-83.915v2.078h83.915zM844.806 86.928l-5.417-1.17-6.567-1.412-3.338-.727-10.521-2.27-1.816-.393-56.71-12.235-9.905-2.139-1.392-.302V53.035l29.858 6.446 11.408 2.461 1.211.262 25.53 5.518 1.816.383 8.695 1.876 1.039.222.787.172 9.905 2.138 1.291.283 4.126 14.132z" fill="#9AC0E2"/><path d="M751.349 55.265v9.744l91.51 19.75-3.026-10.4-88.484-19.094zM841.78 196.595h-81.343v6.607h81.343v-6.607z" fill="#9AC0E2"/><path opacity=".3" d="M767.014 203.202h-5.255v-134.2l5.255 1.13v133.07z" fill="#929DA3"/><path d="M605.116 113.688H495.408v89.564h109.708v-89.564z" fill="#9AC0E2"/><path d="M594.343 147.471h-88.414v55.781h88.414v-55.781z" fill="#1B3A52"/><path d="M594.343 199.54h-88.414v3.712h88.414v-3.712z" fill="#324A4F"/><path d="M533.81 158.223c0 .111-.434.202-.969.202-.534 0-.968-.091-.968-.202 0-.111.434-.202.968-.202.535-.01.969.081.969.202z" fill="#A3CF6F"/><path opacity=".85" d="M576.015 168.765h-50.073c-.716 0-1.099-.555-.847-1.221l3.984-12.73c.252-.675 1.039-1.17 1.755-1.22 3.581-.232 9.825-.434 14.919-.525 1.987-.04 3.813-.06 5.225-.06 1.15 0 2.572.01 4.136.03 1.624.02 3.399.05 5.195.091 3.197.081 6.456.191 8.987.343.616.04 1.181.08 1.695.121.716.06 1.513.545 1.765 1.22l4.096 12.73c.262.676-.121 1.221-.837 1.221z" fill="#5BC4F1"/><path d="M577.769 171.023a.654.654 0 0 1-.655.656h-51.878a.654.654 0 0 1-.656-.656v-4.922c0-.363.293-.656.656-.656h51.878c.363 0 .655.293.655.656v4.922z" fill="#0089CC"/><path d="M545.198 172.214a1.868 1.868 0 0 1-1.866 1.866h-12.003a1.869 1.869 0 0 1-1.867-1.866s-.413-4.247-.524-5.739c-.071-1.029.837-1.867 1.866-1.867h13.043c1.029 0 1.947.848 1.866 1.867-.111 1.613-.515 5.739-.515 5.739zM561.075 163.923c0 .363.293.656.656.656h5.901a.654.654 0 0 0 .655-.656v-3.056a.654.654 0 0 0-.655-.656h-5.901a.654.654 0 0 0-.656.656v3.056zM540.921 163.923a.654.654 0 0 1-.655.656h-5.901a.655.655 0 0 1-.656-.656v-3.056c0-.364.293-.656.656-.656h5.901c.363 0 .655.292.655.656v3.056zM556.768 172.214c0 1.029.837 1.866 1.866 1.866h12.004a1.868 1.868 0 0 0 1.866-1.866s.373-4.156.524-5.739c.091-1.019-.837-1.867-1.866-1.867H558.12c-1.029 0-1.947.848-1.867 1.867.111 1.714.515 5.739.515 5.739z" fill="#0089CC"/><path d="M564.757 166.323c-3.198 0-5.79 1.998-5.79 4.469s2.592 4.468 5.79 4.468c3.197 0 5.79-1.997 5.79-4.468s-2.593-4.469-5.79-4.469zm0 7.586c-2.229 0-4.045-1.392-4.045-3.117s1.805-3.117 4.045-3.117c2.229 0 4.045 1.392 4.045 3.117 0 1.715-1.816 3.117-4.045 3.117z" fill="#007CC5"/><path d="M525.931 186.73v14.919c0 .706-.554 1.301-1.321 1.523-.202.06-.414.091-.625.091h-5.599c-.222 0-.433-.031-.625-.091-.767-.212-1.322-.817-1.322-1.523V186.73c0-.373.152-.716.414-.989.131-.131.282-.252.454-.343a1.78 1.78 0 0 1 .454-.181c.202-.061.413-.091.625-.091h5.599c.222 0 .433.03.625.091.373.101.686.292.918.544.252.263.403.606.403.969zM576.075 201.649c0 .887.877 1.604 1.957 1.604h5.598c1.079 0 1.957-.727 1.957-1.604V186.73c0-.888-.878-1.604-1.957-1.604h-5.598c-1.08 0-1.957.726-1.957 1.604v14.919z" fill="#192D4B"/><path d="M522.996 167.373H521.1v1.392h1.896v-1.392zM581.058 167.373h-1.896v1.392h1.896v-1.392z" fill="#14AFEB"/><path d="M585.163 186.326s-.01.162-.03.424c-.091 1.099-.353 4.075-.726 6.032-.101.514-.202.958-.313 1.271-.625 1.785-.545 2.552-2.693 2.552h-60.826c-2.148 0-2.067-.777-2.693-2.552a8.91 8.91 0 0 1-.312-1.271c-.374-1.957-.636-4.933-.727-6.032l-.03-.424.474.03 8.231.434 25.48 1.352 25.48-1.352 8.231-.434.454-.03z" fill="#0089CC"/><path d="M521.564 168.764s-3.299.061-4.378-.11c-.908-.152-2.068-.888-2.179-1.988-.08-.837.303-1.503 1.634-2.027.858-.343 2.815-.515 3.985-.595.555-.041.928.383.928.867.01.958.01 3.853.01 3.853zM580.594 168.764s3.288.061 4.378-.11c.907-.152 2.067-.888 2.178-1.988.081-.837-.302-1.503-1.634-2.027-.857-.343-2.814-.515-3.984-.595-.555-.041-.928.383-.928.867-.01.958-.01 3.853-.01 3.853zM585.304 179.911c0 .313-.01.746-.01 1.241-.01.887-.04 1.967-.06 2.915-.03 1.251-.061 2.259-.061 2.259l-.474.02-8.231.434-25.48 1.352-25.48-1.352-8.231-.434-.474-.02s-.03-1.008-.061-2.259c-.04-1.483-.08-3.299-.08-4.156 0-1.1.343-2.845.625-3.682a7.406 7.406 0 0 1 1.906-2.986c.939-.897 2.936-2.118 2.936-2.118s.504 2.693 28.849 3.248c28.345-.555 28.849-3.248 28.849-3.248s.999.615 1.917 1.291c.383.283.746.565 1.019.827a7.413 7.413 0 0 1 1.906 2.986c.293.837.635 2.582.635 3.682z" fill="#14AFEB"/><path d="M577.467 172.215H524.5v-3.37s12.044-1.22 26.488-1.17c14.445.051 26.489 1.1 26.489 1.1v3.44h-.01zM568.076 175.826H533.931c-.838 0-1.029.868-.878 1.473.161.645.484 1.977.767 3.076.312 1.231 1.644 1.877 2.683 1.967 3.601.333 14.414 1.241 14.414 1.241H551.089s10.813-.908 14.414-1.241c1.039-.1 2.371-.736 2.684-1.967.282-1.099.605-2.431.766-3.076.141-.605-.04-1.473-.877-1.473z" fill="#0082C8"/><path d="M572.191 181.938l10.38-.938s.061-3.399.061-4.519c0-2.108-1.352-3.046-2.522-3.127-1.987-.151-5.417 1.574-6.738 3.47-1.483 2.118-1.181 5.114-1.181 5.114zM529.704 181.939l-10.379-.938s-.061-3.4-.061-4.519c0-2.109 1.362-3.319 2.532-3.4 1.987-.151 5.407 1.836 6.728 3.733 1.483 2.128 1.18 5.124 1.18 5.124z" fill="#fff"/><path d="M554.67 155.611c0 .716-.585 1.301-1.301 1.301h-4.731a1.304 1.304 0 0 1-1.302-1.301c0-.716.585-1.301 1.302-1.301h4.731c.716 0 1.301.585 1.301 1.301z" fill="#0082C8"/><path d="M551.27 153.705h-.544v.958h.544v-.958z" fill="#0082C8"/><path d="M551.482 153.705a.473.473 0 1 1-.948 0c0-.263.212-.475.474-.475a.48.48 0 0 1 .474.475z" fill="#0094DA"/><path d="M576.357 160.251c-.625-1.503-1.614-3.984-2.128-4.983-1.251-2.471-2.804-3.702-4.761-4.246-.848-.243-1.766-.343-2.774-.374-.515-.01-1.039-.03-1.594-.04-1.16-.03-2.381-.061-3.621-.091-4.015-.091-8.12-.171-10.43-.171h-.152c-1.684 0-4.307.05-7.162.101-1.503.03-3.066.06-4.579.1-.797.021-1.574.041-2.32.051-.545.01-1.069.03-1.584.04-1.009.02-1.937.131-2.774.373-1.957.545-3.5 1.776-4.751 4.247-.504.999-1.503 3.45-2.128 4.983-1.513 3.732-3.501 8.08-3.47 10.874 0 0 .091.484 2.36 1.09 1.382.363 3.561.776 7.001 1.139.746.081 1.543.152 2.41.232 4.096.353 9.624.646 17.068.797 7.444-.151 12.962-.444 17.057-.797.868-.07 1.675-.151 2.411-.232 3.45-.363 5.629-.776 7-1.139 2.28-.606 2.371-1.09 2.371-1.09.05-2.784-1.715-6.708-3.45-10.864zm-.191 8.504c-.051.01-.091.01-.142.01h-50.072c-.051 0-.101 0-.152-.01-.615-.071-.928-.585-.696-1.211l3.995-12.659c.252-.676 1.039-1.241 1.755-1.281.222-.01.454-.03.686-.041 1.321-.08 2.935-.151 4.67-.211.757-.031 1.544-.051 2.341-.071 4.498-.131 9.391-.202 12.427-.202 2.784 0 7.121.031 11.277.131 1.191.031 2.371.061 3.49.101 1.746.061 3.349.142 4.681.232.202.01.393.031.575.041.716.06 1.513.615 1.765 1.281l4.096 12.669c.232.636-.081 1.15-.696 1.221z" fill="#14AFEB"/><path d="M524.59 191.672a2.118 2.118 0 1 1-4.235 0 2.118 2.118 0 0 1 4.235 0zM577.366 191.672a2.118 2.118 0 1 0 4.236 0 2.118 2.118 0 0 0-4.236 0z" fill="#fff"/><path opacity=".3" d="M536.907 150.598l-.646 2.743-3.631 15.454-1.08 4.589c-3.449-.373-5.638-.776-7.02-1.139l1.301-3.46 5.75-15.232.958-2.532c.847-.242 1.775-.353 2.784-.373.504-.03 1.039-.04 1.584-.05zM577.608 172.235c-1.382.363-3.57.776-7.02 1.139l-1.08-4.589-3.641-15.484-.636-2.703c.545.01 1.08.03 1.594.04 1.009.02 1.927.131 2.774.373l.958 2.532 5.75 15.232 1.301 3.46z" fill="#fff"/><path d="M568.166 173.606c-4.105.353-9.643.645-17.097.797-7.465-.152-13.003-.444-17.108-.797l1.099-4.822h31.735l1.371 4.822z" fill="#5AC8F5"/><path d="M594.343 128.991h-88.414v18.48h88.414v-18.48z" fill="url(#paint1_linear)"/><path d="M594.343 131.734h-88.414v2.855h88.414v-2.855zM594.343 136.809h-88.414v2.854h88.414v-2.854zM594.343 141.872h-88.414v2.855h88.414v-2.855z" fill="#ABCDEB"/><path opacity=".4" d="M605.106 118.47v29.001H495.408v-30.887l109.698 1.886z" fill="#929DA3"/><path d="M605.115 112.206H487.389v6.436h117.726v-6.436z" fill="#9AC0E2"/><path d="M605.116 40.85H494.248v71.356h110.868V40.85z" fill="#EBF6FF"/><path d="M605.105 45.783H496.881v66.434l-7.899.222 2.199-75.805s34.226 1.795 44.575 2.007c10.35.212 69.349 2.22 69.349 2.22v4.922z" fill="#D6ECFF"/><path d="M606.064 31.983H487.389V118.33h8.019V41.173l110.656-.323v-8.867z" fill="#9AC0E2"/><path d="M590.54 60.277h-69.248v51.939h69.248V60.277z" fill="#D6ECFF"/><path d="M558.14 60.903l-36.848 46.663V95.633l27.87-35.356 8.978.626zM588.744 60.903l-40.005 51.303h-9.865l40.903-51.929 8.967.626z" fill="#EBF6FF"/><path d="M590.54 72.836h-69.248v1.16h69.248v-1.16z" fill="#9AC0E2"/><path d="M538.083 112.21V61.644h-1.16v50.566h1.16zM556.662 112.212V61.645h-1.16v50.567h1.16zM575.241 112.213V61.647h-1.16v50.566h1.16z" fill="#9AC0E2"/><path d="M590.54 60.277h-69.248v2.22h69.248v-2.22z" fill="#9AC0E2"/><path d="M605.105 45.782h-2.4v66.434h2.4V45.782z" fill="#D6ECFF"/><path opacity=".1" d="M602.705 111.157H496.881v1.049h105.824v-1.049z" fill="#929DA3"/><path d="M604.581 57.604v145.598h157.178V21.22h-39.37L605.307 57.372l-.726.232z" fill="#EBF6FF"/><path d="M761.759 21.22h-2.411v181.699h2.411v-181.7z" fill="#D6ECFF"/><path d="M604.581 62.436v13.456l.726-.232 156.452-48.317V21.22h-23.715l-10.955 3.379-4.7 1.453-117.082 36.162-.726.222z" fill="#D6ECFF"/><path d="M593.99 60.62v13.457l14.031-4.338.736-.222L765.209 21.2l8.886-2.744V5l-43.566 13.456-4.69 1.453L608.757 56.06l-.736.232-14.031 4.327z" fill="#9AC0E2"/><path d="M772.37 17.205V7.31L595.705 61.87v9.896L772.37 17.205zM708.62 113.688h-47.712v89.514h47.712v-89.514z" fill="#9AC0E2"/><path d="M706.088 116.321h-42.537v85.065h42.537v-85.065z" fill="#D6ECFF"/><path d="M698.039 116.331l-34.488 43.677v-11.933l25.016-31.744h9.472zM705.977 133.076v12.276l-42.426 54.41v-12.79l42.426-53.896z" fill="#EBF6FF"/><path d="M708.62 128.99h-46.24v3.48h46.24v-3.48z" fill="#9AC0E2"/><path d="M738.477 113.699h-32.399v89.513h32.399v-89.513z" fill="#9AC0E2"/><path d="M735.481 116.322h-26.398v86.891h26.398v-86.891z" fill="#D6ECFF"/><path d="M729.51 116.322l-20.426 26.197-.051.06v-12.801l.051-.06 10.551-13.396h9.875z" fill="#EBF6FF"/><path d="M630.839 93.626h109.153v-14.99H630.839v14.99z" fill="#9AC0E2"/><path d="M738.407 80.23H632.421v11.822h105.986V80.229z" fill="#D6ECFF"/><path d="M707.429 93.626h1.583v-14.99h-1.583v14.99zM661.818 93.626h1.583v-14.99h-1.583v14.99z" fill="#9AC0E2"/><path d="M656.54 80.23l-8.917 11.822h-9.29l8.906-11.823h9.301zM693.913 80.23l-8.917 11.822h-9.29l8.906-11.823h9.301zM733.605 80.23l-8.917 11.822h-9.29l8.907-11.823h9.3z" fill="#EBF6FF"/><path d="M737.933 128.991h-46.239v3.48h46.239v-3.48zM663.591 113.699h-32.42v89.513h32.42v-89.513z" fill="#9AC0E2"/><path d="M660.595 116.322h-26.418v85.075h26.418v-85.075z" fill="#D6ECFF"/><path d="M663.016 128.991h-31.351v3.48h31.351v-3.48z" fill="#9AC0E2"/><path d="M660.595 151.737v12.014l-26.418 33.489v-12.034l26.418-33.469zM660.595 190.664v10.733h-8.504l8.504-10.733zM705.977 176.713v11.116l-9.795 13.567h-9.401l19.196-24.683zM735.502 139.229v12.327l-26.418 33.873v-12.66l26.418-33.54z" fill="#EBF6FF"/><path d="M603.075 203.2h158.691v-1.805H603.075v1.805z" fill="#9AC0E2"/><path opacity=".15" d="M591.206 130.161c.06.252 2.895 13.093 5.658 17.34.343.524.646 1.089.908 1.674.404.666.646 1.029.646 1.029l.434-2.431c-2.058-3.54-5.76-10.48-7.646-17.612zM598.852 147.774c.433.736.786 1.331 1.049 1.745 0-.081.01-.152.02-.222.514-7.061.776-10.319.898-11.802.01-.071-.101-.091-.111-.02l-1.856 10.299z" fill="#000"/><path d="M598.044 157.165c.222 3.742.162 34.074 3.783 46.088h-8.241s2.744-42.084 1.876-53.966c-.514-7.061-.777-10.319-.898-11.802-.01-.071.101-.091.111-.01l2.29 12.73s6.426-9.825 9.119-20.054c0 0-2.875 13.053-5.659 17.35-1.836 2.825-2.552 6.718-2.381 9.664z" fill="#A36868"/><path d="M597.389 149.518c.827 12.175-1.887 53.734-1.887 53.734h-1.916s2.744-42.083 1.876-53.966c-.514-7.061-.777-10.319-.898-11.802-.01-.071.101-.091.111-.02l2.29 12.73c-.01.01.151-.232.424-.676z" fill="#916464"/><path d="M579.656 148.308c.04 2.441 1.089 4.822 2.895 6.567.444.433.948.847 1.14 1.422.232.706-.061 1.463-.283 2.179-1.119 3.571-.363 7.575 2.058 10.46 2.421 2.875 6.476 4.519 10.45 4.146a11.918 11.918 0 0 0 4.65-1.453c1.756-.978 3.712-1.593 5.518-2.471 2.098-1.029 4.186-2.703 4.882-4.973.111-.353.182-.716.222-1.099.061-.575.04-1.221.373-1.675.343-.454.928-.575 1.453-.726 2.421-.666 4.559-2.411 5.78-4.721 1.23-2.31 1.533-5.165.827-7.717-1.18-4.246-4.791-7.131-8.161-9.734-.292-.232-.605-.474-.766-.827-.222-.504-.081-1.089.06-1.624.636-2.552.918-5.195.868-7.838-.061-2.844-.656-5.931-2.693-7.787-1.766-1.614-4.227-1.947-6.567-2.068-.091 0-.192-.01-.283-.01-2.753-.121-5.608-.07-8.13 1.11l.031.07c-1.685-.07-3.349.696-4.58 1.796-1.231 1.099-2.078 2.522-2.764 3.974-.524 1.12-.978 2.29-1.029 3.49-.05 1.211.353 2.472 1.301 3.269.192.161.414.322.444.565.02.171-.07.342-.161.504-1.422 2.501-3.278 4.771-4.822 7.212-1.533 2.441-2.764 5.155-2.713 7.959z" fill="url(#paint2_linear)"/><path opacity=".2" d="M579.656 148.308c.04 2.441 1.089 4.822 2.895 6.567.444.433.948.847 1.14 1.422.232.706-.061 1.463-.283 2.179-1.119 3.571-.363 7.575 2.058 10.46 2.421 2.875 6.476 4.519 10.45 4.146a11.918 11.918 0 0 0 4.65-1.453c1.756-.978 3.712-1.593 5.518-2.471 2.098-1.029 4.186-2.703 4.882-4.973a6 6 0 0 1-2.421.666c-1.704.111-3.379-.404-4.983-1.019-.171-.071-.353-.141-.534-.121-.253.03-.464.212-.666.383-2.159 1.907-5.185 2.915-7.908 2.098-2.724-.817-4.893-3.702-4.509-6.627.111-.857.423-1.705.363-2.572-.202-2.714-3.843-4.146-3.914-6.869-.061-1.988 1.785-3.349 3.097-4.782 3.127-3.409 3.712-9.008 1.503-13.133-.252-.464-.525-.908-.696-1.412-.353-1.049-.172-2.209.181-3.248.928-2.744 3.077-5.004 5.699-6.012 0 0 3.773-1.513 6.174-3.168-.091 0-.192-.01-.283-.01-2.753-.121-5.608-.07-8.13 1.11l.03.07c-1.684-.07-3.349.696-4.579 1.796-1.231 1.099-2.078 2.522-2.764 3.974-.525 1.12-.978 2.29-1.029 3.49-.05 1.211.353 2.472 1.301 3.269.192.161.414.322.444.565.02.171-.07.342-.161.504-1.423 2.501-3.279 4.771-4.822 7.212-1.523 2.441-2.754 5.155-2.703 7.959z" fill="#6DBD73"/><path d="M833.377 151.445c.202 3.298.151 29.989 3.47 40.57h-7.565s2.521-37.05 1.715-47.5c-.807-10.46-.918-11.439-.918-11.439l2.289 12.246s5.73-8.665 9.745-8.534c0 0-4.005 2.371-6.557 6.153-1.675 2.482-2.34 5.911-2.179 8.504z" fill="#A36868"/><path d="M834.245 142.941c-1.675 2.482-2.34 5.911-2.179 8.514.202 3.298.151 29.989 3.47 40.57h1.311c-3.318-10.571-3.268-37.272-3.47-40.57-.161-2.603.505-6.022 2.179-8.514 2.552-3.782 6.557-6.153 6.557-6.153-.807-.03-1.685.303-2.573.847h-.01c-1.382 1.009-3.631 2.865-5.285 5.306z" fill="#916464"/><path d="M830.089 133.076c.01.091.141 1.392.918 11.439.02.232.03.464.05.716l.02.081s.394-.595 1.039-1.463l-2.027-10.773z" fill="#5D488A"/><path d="M832.106 143.86l.272 1.462s3.652-5.517 7.162-7.676h.01a15.655 15.655 0 0 1 1.261-.847c-2.965-.111-6.869 4.589-8.705 7.061zM838.854 154.501s-5.033 8.433-5.336 11.258c-.312 2.824-.423-3.924-.423-3.924s5.144-8.534 5.759-7.334z" fill="#5D488A"/><path d="M838.854 154.501s-5.033 8.433-5.336 11.258c-.312 2.824-.423-3.924-.423-3.924s5.144-8.534 5.759-7.334zM831.551 159.302c.051-.151-5.316-10.48-10.632-13.718 0 0 8.383 8.826 10.42 16.503 1.413 5.295.212-2.785.212-2.785z" fill="#916464"/><path d="M854.782 140.278c-1.342 1.16-2.825 2.209-4.459 3.006-.928.444-1.16 1.594-.625 2.381a1.7 1.7 0 0 0 .393.413c.01.011.02.011.02.021 1.302.948 2.673 1.987 3.269 3.611.534 1.462.312 3.137-.061 4.66-.202.817-.454 1.654-.938 2.3-.646.847-1.624 1.271-2.562 1.604-2.613.908-5.619 1.301-7.919-.363-.433-.313-.938-.706-1.402-.464-.222.111-.373.343-.585.464-.433.262-.968 0-1.392-.293-.091-.06-.171-.121-.252-.181a5.38 5.38 0 0 1-.232-.182c-.01-.01-.02-.02-.04-.03l-.182-.152c-.02-.01-.03-.03-.05-.04-.081-.071-.152-.131-.232-.202a13.173 13.173 0 0 1-.676-.645l-.01-.01-.111-.111a13.837 13.837 0 0 1-1.211-1.513c-.05-.071-.09-.142-.141-.212-.01-.02-.02-.041-.04-.051-.041-.06-.071-.111-.111-.171-.141-.232-.283-.464-.404-.706-.04-.071-.07-.141-.111-.212-.03-.061-.07-.131-.1-.192-.011-.03-.031-.06-.041-.091-.03-.06-.06-.131-.091-.191-.04-.081-.07-.162-.111-.242-.04-.081-.07-.162-.111-.242-.03-.081-.07-.162-.1-.242-.031-.081-.071-.162-.101-.253a5.113 5.113 0 0 1-.091-.252c-.03-.08-.061-.151-.081-.232l-.091-.272c0-.01-.01-.03-.01-.04 0-.011 0-.011-.01-.021 0-.01-.01-.02-.01-.03-.01-.01-.01-.03-.02-.04-.01-.01-.01-.02-.02-.041-.01-.02-.03-.03-.041-.05l-.02-.02a.508.508 0 0 0-.09-.071c-.011-.01-.021-.01-.041-.02s-.05-.02-.07-.03c-.011 0-.021-.01-.041-.01-.01 0-.02-.01-.04-.01-.01 0-.02 0-.04-.011a.534.534 0 0 0-.303.051h-.01c-.343.171-.666.363-.999.565-.292.171-.595.343-.898.484-.05.02-.09.04-.141.06-.03.011-.05.021-.08.031-.041.01-.081.03-.111.04-.041.01-.081.03-.121.04a2.025 2.025 0 0 1-.243.071c-.03.01-.06.01-.08.02l-.152.03a15.26 15.26 0 0 0-.706.454c-.06.041-.131.081-.191.121-.041.031-.091.051-.131.081-.041.02-.081.051-.122.071-.05.03-.1.05-.151.08l-.121.061c-.03.01-.06.03-.091.04h-.01c-.03.01-.05.02-.08.031-.031.01-.071.03-.101.04-.031.01-.051.02-.081.03a2.375 2.375 0 0 1-.484.111c-.02 0-.03.01-.051.01l-.242.03c-.04 0-.08.011-.121.011h-.01c-.04 0-.091 0-.131.01h-.262c-.041 0-.091 0-.131-.01h-.051c-.05 0-.091-.011-.141-.011-.05 0-.091-.01-.141-.02-.141-.02-.283-.04-.424-.08-.091-.021-.181-.051-.272-.071a4.658 4.658 0 0 1-.535-.192c-.04-.02-.091-.04-.131-.06-.04-.02-.091-.041-.131-.061-.041-.02-.091-.04-.131-.07a.72.72 0 0 1-.121-.071c-.041-.02-.081-.05-.121-.071-.041-.02-.081-.05-.121-.07-.041-.02-.081-.051-.121-.081-.041-.03-.081-.05-.121-.081-.162-.11-.313-.232-.465-.353-.04-.03-.07-.06-.11-.09-.111-.101-.222-.192-.323-.303-.041-.03-.071-.071-.101-.101a3.262 3.262 0 0 1-.192-.202c-.07-.07-.131-.151-.202-.221-1.039-1.221-1.714-2.704-2.42-4.146-.232-.474-.505-.989-.999-1.191-.595-.252-1.251.041-1.896.081-1.049.071-2.028-.504-2.916-1.069-1.261-.797-2.562-1.634-3.359-2.905a5.064 5.064 0 0 1-.696-3.45c.081-.514.263-1.029.606-1.422.07-.081.151-.152.232-.222a3.558 3.558 0 0 1-.878-.979c-.363-.615-.484-1.341-.474-2.057.03-1.856.948-3.632 2.27-4.933 1.321-1.311 3.005-2.189 4.751-2.835.595-.221 1.21-.423 1.714-.807.727-.574 1.1-1.462 1.584-2.249 1.392-2.3 3.904-3.843 6.557-4.146a8.357 8.357 0 0 1 1.936 0c2.522.293 4.842 1.796 6.264 3.894.464-1.241 1.161-2.461 2.381-3.127 2.038-1.12 4.66-.272 6.728.797a32.983 32.983 0 0 1 4.418 2.733c.505.374 1.16.777 1.735.515.283-.131.464-.394.737-.535.575-.302 1.331-.02 1.825.394 8.887 7.444 3.158 15.685 1.645 16.986z" fill="url(#paint3_linear)"/><path opacity=".5" d="M810.742 138.291a5.053 5.053 0 0 0 .696 3.45c.786 1.261 2.098 2.108 3.348 2.905.888.565 1.867 1.15 2.916 1.069.635-.05 1.301-.333 1.896-.081.484.202.767.717.999 1.191.706 1.442 1.382 2.915 2.421 4.135 1.039 1.221 2.501 2.189 4.105 2.22 1.604.04 2.169-.626 3.097-1.16 1.039-.152 1.896-.868 2.834-1.332h.01a.55.55 0 0 1 .757.323c.867 2.713 2.522 5.114 4.7 6.607.424.292.959.555 1.393.292.211-.121.363-.363.585-.464.464-.232.978.162 1.402.464 2.3 1.665 5.316 1.271 7.918.364.948-.333 1.917-.747 2.562-1.604.494-.646.747-1.473.938-2.3.373-1.523.585-3.198.061-4.66-.585-1.624-1.967-2.663-3.268-3.612-.011-.01-.021-.01-.021-.02a1.7 1.7 0 0 1-.393-.413c-.202.615-.182 1.331-.05 1.977.221 1.079.696 2.128.645 3.218-.091 1.856-1.957 3.429-3.813 3.207-1.604-.191-2.824-1.442-4.136-2.37-.191-.141-.413-.273-.645-.262-.232.01-.434.161-.636.272-.807.413-1.825.091-2.521-.484-.696-.585-1.16-1.382-1.695-2.119a12.94 12.94 0 0 0-3.581-3.328c-.252-.162-.524-.313-.827-.303-.333 0-.625.202-.888.414-.958.766-1.805 1.805-3.006 2.017-1.503.272-2.905-.888-3.661-2.209-.757-1.321-1.09-2.855-1.846-4.176a7.385 7.385 0 0 0-3.319-3.036c-.978-.454-2.048-.686-3.056-1.09-.999-.403-1.977-1.029-2.462-1.997-.655-1.321-.191-2.976.757-4.085.948-1.12 2.31-1.796 3.662-2.381 1.361-.585 2.774-1.109 4.236-1.362.999-.171 2.058-.232 2.946-.736 1.402-.797 2.017-2.542 2.078-4.156a9.326 9.326 0 0 0-.777-4.055c-2.653.313-5.175 1.856-6.557 4.146-.474.787-.857 1.684-1.583 2.249-.505.394-1.12.595-1.715.807-1.745.646-3.43 1.523-4.751 2.835-1.322 1.311-2.25 3.076-2.27 4.932-.01.717.121 1.443.474 2.058.232.394.525.706.878.979-.081.07-.162.141-.232.222-.343.403-.525.928-.605 1.442z" fill="#AACE21"/><path d="M886.748 203.212H754.335c-1.524 0-2.371-1.473-1.443-2.481.434-.475.888-.918 1.382-1.342a19.361 19.361 0 0 1 2.835-2.058 21.28 21.28 0 0 1 8.089-2.804c3.531-.474 7.213-.05 10.501 1.12 4.57 1.624 9.795 1.261 14.011-.938a79.5 79.5 0 0 1 2.3-1.15c.04-.021.071-.041.111-.051a70.961 70.961 0 0 1 1.523-.716c.313-.141.636-.282.948-.424.041-.02.071-.03.111-.05.111-.051.212-.091.323-.141.131-.061.262-.111.394-.172.201-.091.403-.171.615-.252l.302-.121a46.228 46.228 0 0 1 1.947-.736l.424-.152c.181-.06.363-.121.555-.181a38.91 38.91 0 0 1 2.098-.636c2.552-.706 5.175-1.17 7.868-1.311.171-.01.343-.02.524-.02.172-.01.353-.01.535-.01h.262c.424-.01.848 0 1.271 0 .242 0 .484.01.726.02.182.01.364.01.545.02.162 0 .333.01.505.02 2.592.101 5.225.252 7.656-.06a16.77 16.77 0 0 0 2.057-.394c.011-.01.031-.01.041-.01a10.24 10.24 0 0 0 2.905-1.281c1.372-.898 2.39-2.108 3.45-3.268.04-.04.07-.081.111-.121.06-.061.111-.121.171-.182a29.59 29.59 0 0 1 3.47-3.157c.393-.313.807-.615 1.221-.908 4.236-3.006 9.35-5.144 14.777-6.113 1.18-.211 18.924-5.033 30.484 9.966 6.808 8.817 6.869 19.973 6.808 20.094z" fill="url(#paint4_linear)"/><path opacity=".5" d="M465.792 214.66c25.922 0 46.936-1.847 46.936-4.125 0-2.279-21.014-4.126-46.936-4.126-25.921 0-46.935 1.847-46.935 4.126 0 2.278 21.014 4.125 46.935 4.125zM813.637 217.172c60.952 0 110.363-2.005 110.363-4.478 0-2.474-49.411-4.479-110.363-4.479s-110.364 2.005-110.364 4.479c0 2.473 49.412 4.478 110.364 4.478z" fill="#C3E1FF"/><path d="M914.528 151.798c5.235 0 9.472 4.247 9.472 9.472v24.219c0 1.473-1.2 2.673-2.673 2.673h-9.169l2.37-36.364z" fill="#C9D0D8"/><path d="M916.727 182.312h2.299c.616 0 1.12.504 1.12 1.119v3.41h-3.409v-4.529h-.01z" fill="#BF0000"/><path d="M920.136 186.841v5.225c0 .615-.504 1.12-1.119 1.12h-2.3v-6.345h3.419z" fill="#FBB03B"/><path d="M836.565 120.377h45.483a1.4 1.4 0 0 1 1.402 1.402v2.663h-48.287v-2.663c0-.777.625-1.402 1.402-1.402z" fill="#1B3A52"/><path d="M904.451 126.177l1.241-1.241-5.922-5.921a8.246 8.246 0 0 0-5.86-2.431H787.37v1.755H893.9a6.46 6.46 0 0 1 4.62 1.917l5.931 5.921z" fill="#E4DFDB"/><path d="M705.997 198.925c.343.172.696.303 1.069.394.363.09.746.131 1.13.131h205.313a4.923 4.923 0 0 0 4.923-4.923v-63.912a8.505 8.505 0 0 0-8.504-8.503h-95.384s-6.062-.626-9.683-2.159c-3.622-1.533-6.547-3.621-20.628-3.349-7.172.141-15.545.141-22.051.101-7.343-.04-14.667.525-21.919 1.685a19.34 19.34 0 0 0-10.733 5.537 19.298 19.298 0 0 0-5.356 10.824 9.993 9.993 0 0 0-.091 1.331 9.33 9.33 0 0 0 8.282 9.26l12.578 1.453-3.47 3.773-14.334 15.594-.938 1.019-6.042 1.533a11.267 11.267 0 0 0-8.342 9.069l-1.231 7.373-2.481.444a4.856 4.856 0 0 0-3.904 3.894l-.776 4.236a4.85 4.85 0 0 0 2.572 5.195z" fill="#fff"/><path d="M705.997 198.925a4.858 4.858 0 0 0 2.189.524h65.869v-14.283h-63.479l-2.481.444a4.855 4.855 0 0 0-3.904 3.893l-.776 4.237a4.865 4.865 0 0 0 2.582 5.185z" fill="#8B5E3C"/><path opacity=".25" d="M743.531 148.338h22.676a3.289 3.289 0 0 1 3.288 3.288v47.833h1.645v-49.366a3.289 3.289 0 0 0-3.289-3.288h-22.918l-1.402 1.533z" fill="#C9D0D8"/><path d="M724.718 139.471a9.325 9.325 0 0 0 7.646 5.881l12.579 1.453h22.918a3.288 3.288 0 0 1 3.288 3.288v49.367h142.37a4.924 4.924 0 0 0 4.923-4.923v-63.912a8.505 8.505 0 0 0-8.504-8.503h-95.384s-6.062-.626-9.683-2.159c-3.622-1.533-6.547-3.621-20.628-3.349-7.172.141-15.545.141-22.051.101h-.756c-7.092 0-14.163.565-21.163 1.684a19.336 19.336 0 0 0-10.733 5.538 19.295 19.295 0 0 0-5.356 10.824 9.233 9.233 0 0 0 .534 4.71z" fill="#fff"/><path d="M771.129 185.166v14.283h140.605c3.5 0 6.335-2.834 6.335-6.334v-7.949h-146.94z" fill="#8B5E3C"/><path d="M900.507 187.96h5.961c.565 0 1.029.464 1.029 1.029s-.464 1.029-1.029 1.029h-5.961a1.033 1.033 0 0 1-1.029-1.029c0-.575.464-1.029 1.029-1.029z" stroke="#C7C7C7" stroke-width=".874" stroke-miterlimit="10"/><path d="M900.507 187.96h5.961c.565 0 1.029.464 1.029 1.029s-.464 1.029-1.029 1.029h-5.961a1.033 1.033 0 0 1-1.029-1.029c0-.575.464-1.029 1.029-1.029z" fill="#BF0000"/><path d="M822.604 187.96h5.962c.564 0 1.028.464 1.028 1.029s-.464 1.029-1.028 1.029h-5.962a1.033 1.033 0 0 1-1.029-1.029c0-.575.464-1.029 1.029-1.029z" stroke="#C7C7C7" stroke-width=".874" stroke-miterlimit="10"/><path d="M822.604 187.96h5.962c.564 0 1.028.464 1.028 1.029s-.464 1.029-1.028 1.029h-5.962a1.033 1.033 0 0 1-1.029-1.029c0-.575.464-1.029 1.029-1.029z" fill="#BF0000"/><path d="M778.251 187.96h5.962c.564 0 1.028.464 1.028 1.029s-.464 1.029-1.028 1.029h-5.962a1.033 1.033 0 0 1-1.029-1.029c0-.575.464-1.029 1.029-1.029z" stroke="#C7C7C7" stroke-width=".874" stroke-miterlimit="10"/><path d="M778.251 187.96h5.962c.564 0 1.028.464 1.028 1.029s-.464 1.029-1.028 1.029h-5.962a1.033 1.033 0 0 1-1.029-1.029c0-.575.464-1.029 1.029-1.029z" fill="#BF0000"/><path d="M917.332 130.615H726.635v1.1h190.697v-1.1zM726.635 129.859h190.697v-2.189H727.947l-1.312 2.189z" fill="#8B5E3C"/><path d="M881.856 187.961h-35.749v11.499h35.749v-11.499z" fill="#000004"/><path d="M872.488 209.653c5.632-4.66 6.42-13.003 1.76-18.634-4.659-5.632-13.002-6.42-18.633-1.761-5.632 4.66-6.42 13.003-1.761 18.634 4.66 5.632 13.003 6.42 18.634 1.761z" fill="#192D4B"/><path d="M856.638 210.435a13.24 13.24 0 0 0 18.379-3.581c4.085-6.062 2.482-14.293-3.581-18.379a13.244 13.244 0 0 0-18.379 3.581c-4.095 6.063-2.491 14.294 3.581 18.379zm-5.063-8.554a12.66 12.66 0 0 1 1.926-9.522 12.678 12.678 0 0 1 10.541-5.598c2.522 0 4.973.746 7.081 2.168a12.596 12.596 0 0 1 5.367 8.1 12.665 12.665 0 0 1-1.927 9.522 12.674 12.674 0 0 1-10.541 5.599c-2.522 0-4.973-.747-7.081-2.169a12.592 12.592 0 0 1-5.366-8.1z" fill="#192D4B"/><path d="M870.614 204.645a8.363 8.363 0 1 0-13.132-10.359 8.363 8.363 0 0 0 13.132 10.359z" fill="#8C8F98"/><path d="M861.49 197.745a3.054 3.054 0 0 1 4.247-.827 3.054 3.054 0 0 1 .827 4.247 3.054 3.054 0 0 1-4.247.827 3.074 3.074 0 0 1-.827-4.247z" fill="#192D4B"/><path d="M844.302 186.044v13.416h2.854v-2.35a6.365 6.365 0 0 1 6.365-6.365h21.022a6.365 6.365 0 0 1 6.365 6.365v2.35h3.662v-13.416h-40.268z" fill="#8B5E3C"/><path d="M724.719 139.472a9.322 9.322 0 0 0 7.646 5.88l12.578 1.453h22.918a3.29 3.29 0 0 1 3.289 3.288v49.367h76.016v-2.189h-73.827v-47.178a5.483 5.483 0 0 0-5.478-5.477h-22.786l-12.448-1.432a7.14 7.14 0 0 1-5.85-4.499 7.194 7.194 0 0 1-.414-3.611 17.09 17.09 0 0 1 4.751-9.603 17.03 17.03 0 0 1 9.522-4.913 132.06 132.06 0 0 1 20.82-1.654h.746c2.492.01 4.943.02 7.283.02 5.659 0 10.642-.04 14.818-.121.828-.02 1.645-.02 2.411-.02 4.59 0 8.161.293 10.914.878 2.331.504 3.733 1.129 5.226 1.795.383.172.776.353 1.18.515 3.883 1.644 10.047 2.299 10.309 2.32l.111.01h95.495a6.323 6.323 0 0 1 6.314 6.314v63.912a2.736 2.736 0 0 1-2.734 2.734h-32.601v2.189h32.601a4.923 4.923 0 0 0 4.923-4.923v-63.912a8.504 8.504 0 0 0-8.503-8.503h-95.384s-6.063-.626-9.684-2.159c-3.399-1.442-6.193-3.369-18.167-3.369-.777 0-1.594.01-2.451.02-4.69.091-9.906.121-14.778.121-2.562 0-5.033-.01-7.272-.02h-.757c-7.091 0-14.162.565-21.163 1.685a19.332 19.332 0 0 0-10.732 5.537 19.293 19.293 0 0 0-5.357 10.824 9.04 9.04 0 0 0 .515 4.721z" fill="#C9D0D8"/><path d="M747.969 197.442l-1.15 3.955a2.495 2.495 0 0 1-2.39 1.795h-22.747a5.79 5.79 0 0 1-5.306-3.46l-.948-2.138 32.541-.152z" fill="#000004"/><path d="M720.694 188.385a15.871 15.871 0 0 1 2.925-2.31 15.574 15.574 0 0 1 8.14-2.28 15.552 15.552 0 0 1 11.066 4.59 15.55 15.55 0 0 1 4.579 11.065H716.104a15.598 15.598 0 0 1 4.59-11.065z" fill="#000004"/><path d="M741.912 207.972c4.697-5.6 3.965-13.948-1.636-18.644-5.6-4.697-13.947-3.965-18.644 1.635-4.697 5.601-3.965 13.948 1.636 18.645 5.6 4.697 13.947 3.964 18.644-1.636z" fill="#192D4B"/><path d="M724.376 210.435a13.24 13.24 0 0 0 18.378-3.581c4.086-6.062 2.482-14.293-3.581-18.379a13.241 13.241 0 0 0-18.378 3.581c-4.096 6.063-2.492 14.294 3.581 18.379zm-5.064-8.554a12.656 12.656 0 0 1 1.927-9.522 12.676 12.676 0 0 1 10.541-5.598c2.521 0 4.973.746 7.081 2.168a12.595 12.595 0 0 1 5.366 8.1 12.656 12.656 0 0 1-1.927 9.522 12.674 12.674 0 0 1-10.541 5.599c-2.521 0-4.973-.747-7.081-2.169a12.592 12.592 0 0 1-5.366-8.1z" fill="#192D4B"/><path d="M739.879 201.508a8.362 8.362 0 1 0-16.22-4.078 8.362 8.362 0 0 0 16.22 4.078z" fill="#8C8F98"/><path d="M728.894 197.524a3.46 3.46 0 1 1 5.74 3.864 3.46 3.46 0 0 1-5.74-3.864z" fill="#192D4B"/><path d="M719.937 187.628a16.513 16.513 0 0 1 3.127-2.462 16.622 16.622 0 0 1 8.695-2.431c3.117 0 6.103.848 8.695 2.431a17.263 17.263 0 0 1 3.127 2.462 16.597 16.597 0 0 1 4.892 11.822h-2.188c0-7.112-5.104-13.033-11.853-14.284a14.587 14.587 0 0 0-2.673-.242c-.918 0-1.805.081-2.673.242-6.748 1.251-11.862 7.172-11.862 14.284h-2.189a16.67 16.67 0 0 1 4.902-11.822z" fill="#C9D0D8"/><path d="M713.3 181.585c-1.331-.353-1.362-1.937-1.271-2.844.494-4.792 3.672-7.122 3.944-7.314 1.443-1.119 2.421-.675 2.885-.322 1.271.998 1.483 3.782.444 6.072-.504 1.12-1.493 2.32-2.653 3.228-.635.494-1.785 1.251-2.845 1.251-.171 0-.343-.02-.504-.071zm3.339-9.29l-.03.02c-.031.02-3.037 2.139-3.49 6.537-.061.564-.071 1.533.464 1.674.504.141 1.442-.252 2.39-.988 1.009-.787 1.907-1.867 2.33-2.815.878-1.937.646-4.156-.131-4.761a.759.759 0 0 0-.464-.161c-.292 0-.656.171-1.069.494z" fill="#C7C7C7"/><path d="M716.296 171.861s-3.238 2.23-3.732 6.93c-.484 4.701 4.842 1.251 6.234-1.846 1.442-3.167.272-7.242-2.502-5.084z" fill="#ECE7C8"/><path d="M714.097 175.21c-1.251 2.36-.565 4.62-.03 4.509.554-.061.827-1.846 1.785-3.581.898-1.765 2.219-2.996 1.957-3.48-.212-.505-2.471.191-3.712 2.552z" fill="#F2F2F2"/><path d="M726.202 167.192h.938a7.201 7.201 0 0 0 5.346-2.381l10.561-11.701a2.102 2.102 0 0 0 .363-2.289 2.097 2.097 0 0 0-1.15-1.11l-.353.383-.444.484c.959 0 1.463 1.14.828 1.856l-10.562 11.702a6.174 6.174 0 0 1-4.589 2.037l-.505.545-.433.474z" fill="#C7C7C7"/><path d="M727.14 166.173a6.195 6.195 0 0 0 4.589-2.038l10.562-11.701c.645-.716.141-1.856-.828-1.856l-14.323 15.595z" fill="#1B3B52"/><path d="M726.635 166.718h.505a6.715 6.715 0 0 0 4.993-2.22l10.561-11.701c.444-.494.555-1.18.282-1.785a1.655 1.655 0 0 0-1.069-.928l-.444.484c.959 0 1.463 1.14.827 1.856l-10.561 11.701a6.175 6.175 0 0 1-4.589 2.038l-.505.555z" fill="#152D40"/><path opacity=".25" d="M736.006 156.52l1.362 1.361 4.408-4.882-1.321-1.321-4.449 4.842z" fill="#324A4F"/><path d="M733.726 132.341l3.571-3.46a15.766 15.766 0 0 1 10.975-4.448h29.202c1.211 0 2.189.978 2.189 2.189v10.147a2.186 2.186 0 0 1-2.189 2.189H736.4c-3.46 0-5.165-4.206-2.674-6.617z" fill="#1B3A52"/><path d="M732.123 136.84c-.716-1.776-.313-3.712 1.069-5.054l3.571-3.46a16.467 16.467 0 0 1 11.509-4.66h29.202a2.953 2.953 0 0 1 2.956 2.956v10.147a2.954 2.954 0 0 1-2.956 2.956H736.4c-1.917 0-3.561-1.1-4.277-2.885zm16.149-11.641a14.928 14.928 0 0 0-10.44 4.227l-3.571 3.46c-1.099 1.069-1.089 2.441-.716 3.379.373.928 1.332 1.926 2.865 1.926h41.075a1.42 1.42 0 0 0 1.422-1.422v-10.147c0-.787-.636-1.423-1.422-1.423h-29.213z" fill="#C9D0D8"/><path opacity=".25" d="M750.259 124.433l12.054 12.054a3.246 3.246 0 0 0 2.32.958 3.28 3.28 0 0 0 2.32-5.598l-7.414-7.414h-9.28zM766.409 124.433l13.123 13.123c.091-.242.141-.504.141-.787v-5.265l-7.071-7.071h-6.193zM737.499 128.689l10.279 10.279h6.193l-12.82-12.821a15.352 15.352 0 0 0-3.652 2.542z" fill="#324A4F"/><path d="M736.4 138.958h41.074a2.186 2.186 0 0 0 2.189-2.189v-10.147a2.186 2.186 0 0 0-2.189-2.189h-29.202a15.748 15.748 0 0 0-10.975 4.448l-3.571 3.46c-2.491 2.411-.786 6.617 2.674 6.617zm-1.917-5.83l3.571-3.46a14.688 14.688 0 0 1 4.7-3.067 14.52 14.52 0 0 1 5.508-1.069h29.202c.605 0 1.1.494 1.1 1.1v10.147c0 .605-.495 1.1-1.1 1.1h-41.075c-1.371 0-2.219-.888-2.552-1.725-.322-.847-.332-2.068.646-3.026z" fill="#152D40"/><path d="M751.231 139.229h1.603v-15.565h-1.603v15.565z" fill="#C9D0D8"/><path d="M830.018 169.118h21.859a.81.81 0 0 1 .807.807h-23.483a.824.824 0 0 1 .817-.807zM830.018 170.763h21.859a.81.81 0 0 1 .807.807h-23.483a.824.824 0 0 1 .817-.807zM830.018 172.417h21.859a.81.81 0 0 1 .807.807h-23.483a.824.824 0 0 1 .817-.807zM830.018 174.061h21.859a.81.81 0 0 1 .807.807h-23.483a.824.824 0 0 1 .817-.807zM830.018 175.715h21.859a.81.81 0 0 1 .807.807h-23.483a.824.824 0 0 1 .817-.807zM830.018 177.359h21.859a.81.81 0 0 1 .807.807h-23.483a.825.825 0 0 1 .817-.807zM778.503 169.118h5.457a.81.81 0 0 1 .807.807h-7.071a.81.81 0 0 1 .807-.807zM778.503 170.763h5.457a.81.81 0 0 1 .807.807h-7.071a.81.81 0 0 1 .807-.807zM778.503 172.417h5.457a.81.81 0 0 1 .807.807h-7.071a.81.81 0 0 1 .807-.807zM778.503 174.061h5.457a.81.81 0 0 1 .807.807h-7.071a.81.81 0 0 1 .807-.807zM778.503 175.715h5.457a.81.81 0 0 1 .807.807h-7.071a.81.81 0 0 1 .807-.807zM778.503 177.359h5.457a.81.81 0 0 1 .807.807h-7.071a.81.81 0 0 1 .807-.807z" fill="#C7C7C7"/><path d="M878.255 178.732v-11.247a3.29 3.29 0 0 1 3.288-3.289h23.473a3.289 3.289 0 0 1 3.288 3.289v11.247a3.288 3.288 0 0 1-3.288 3.288h-23.483a3.286 3.286 0 0 1-3.278-3.288zm3.278-13.436c-1.21 0-2.189.978-2.189 2.189v11.247c0 1.21.979 2.189 2.189 2.189h23.473c1.21 0 2.189-.979 2.189-2.189v-11.247a2.187 2.187 0 0 0-2.189-2.189h-23.473z" fill="#C9D0D8"/><path d="M903.483 174.889a1.776 1.776 0 1 0-.001-3.551 1.776 1.776 0 0 0 .001 3.551z" fill="#A19E9A"/><path d="M905.258 173.113c0 .979-.797 1.776-1.775 1.776v-3.551c.978 0 1.775.797 1.775 1.775z" fill="#D9D4D0"/><path d="M789.539 139.261v52.301a4.141 4.141 0 0 0 4.135 4.136h18.056a4.141 4.141 0 0 0 4.136-4.136v-52.301a4.141 4.141 0 0 0-4.136-4.136h-18.056c-2.279.01-4.135 1.866-4.135 4.136zm1.099 0a3.04 3.04 0 0 1 3.036-3.037h18.056a3.04 3.04 0 0 1 3.036 3.037v52.301a3.04 3.04 0 0 1-3.036 3.037h-18.056a3.04 3.04 0 0 1-3.036-3.037v-52.301z" fill="#C9D0D8"/><path d="M798.053 139.967h9.3a2.728 2.728 0 0 1 2.733 2.733v17.098a2.73 2.73 0 0 1-2.733 2.734h-9.3a2.73 2.73 0 0 1-2.734-2.734V142.7a2.722 2.722 0 0 1 2.734-2.733z" fill="#1B3A52"/><path d="M794.542 142.701v17.097a3.513 3.513 0 0 0 3.51 3.511h9.301a3.513 3.513 0 0 0 3.51-3.511v-17.097a3.513 3.513 0 0 0-3.51-3.511h-9.301c-1.936.011-3.51 1.584-3.51 3.511zm14.768 17.108a1.97 1.97 0 0 1-1.967 1.966h-9.301a1.97 1.97 0 0 1-1.967-1.966v-17.098a1.97 1.97 0 0 1 1.967-1.967h9.301a1.97 1.97 0 0 1 1.967 1.967v17.098z" fill="#C9D0D8"/><path opacity=".25" d="M801.149 147.673l8.938 8.938v-6.194l-5.841-5.84a2.185 2.185 0 0 0-3.097 0 2.185 2.185 0 0 0 0 3.096zM809.572 161.402l-14.253-14.254v6.194l9.199 9.199h3.006c.041 0 .091-.01.131-.01.041 0 .081-.01.121-.02.041-.01.081-.01.121-.02h.011c.04-.01.07-.02.111-.02.01 0 .01 0 .02-.01l.091-.031c.01 0 .03-.01.04-.01.04-.01.081-.03.121-.04.02-.01.05-.02.07-.03a.32.32 0 0 0 .091-.041.29.29 0 0 0 .081-.04c.04-.02.071-.03.101-.05.04-.021.081-.041.121-.071.05-.03.091-.061.131-.091.04-.02.071-.05.111-.08.02-.011.03-.021.05-.041a.262.262 0 0 0 .081-.07l.02-.021c.041-.03.071-.07.111-.1l.111-.111c.03-.041.071-.081.101-.121.03-.031.061-.071.101-.111z" fill="#324A4F"/><path d="M795.309 142.7v17.098a2.73 2.73 0 0 0 2.733 2.734h9.301a2.73 2.73 0 0 0 2.733-2.734V142.7a2.728 2.728 0 0 0-2.733-2.733h-9.301a2.735 2.735 0 0 0-2.733 2.733zm1.099 0c0-.907.736-1.644 1.644-1.644h9.301c.907 0 1.644.737 1.644 1.644v17.098c0 .908-.737 1.644-1.644 1.644h-9.301a1.644 1.644 0 0 1-1.644-1.644V142.7z" fill="#152D40"/><path d="M811.599 165.688v4.197a.542.542 0 0 1-.544.544h-1.947a.542.542 0 0 1-.545-.544v-4.197c0-.302.242-.544.545-.544h1.947c.302 0 .544.242.544.544z" fill="#A19E9A"/><path d="M811.599 165.689v4.196a.543.543 0 0 1-.545.545h-.847v-5.296h.847c.303.01.545.252.545.555z" fill="#D9D4D0"/><path d="M878.396 143.608v-5.185c0-1.937 1.574-3.5 3.5-3.5h22.747c1.936 0 3.5 1.573 3.5 3.5v5.185c0 1.937-1.574 3.5-3.5 3.5h-22.747a3.508 3.508 0 0 1-3.5-3.5zm3.5-7.162a1.97 1.97 0 0 0-1.967 1.967v5.185a1.97 1.97 0 0 0 1.967 1.967h22.747a1.97 1.97 0 0 0 1.967-1.967v-5.185a1.97 1.97 0 0 0-1.967-1.967h-22.747z" fill="#C9D0D8"/><path d="M881.896 135.68h22.747a2.728 2.728 0 0 1 2.733 2.733v5.185a2.73 2.73 0 0 1-2.733 2.734h-22.747a2.73 2.73 0 0 1-2.733-2.734v-5.185a2.741 2.741 0 0 1 2.733-2.733z" fill="#1B3A52"/><path opacity=".25" d="M889.592 135.68l10.662 10.662h4.398a2.73 2.73 0 0 0 2.684-2.209l-8.453-8.453h-9.291zM883.742 142.701l3.641 3.641h6.194l-6.738-6.738a2.187 2.187 0 0 0-3.097 0 2.205 2.205 0 0 0 0 3.097z" fill="#324A4F"/><path d="M879.163 138.423v5.185a2.73 2.73 0 0 0 2.733 2.734h22.747a2.73 2.73 0 0 0 2.733-2.734v-5.185a2.728 2.728 0 0 0-2.733-2.733h-22.747c-1.503-.011-2.733 1.22-2.733 2.733zm1.099 0c0-.908.736-1.644 1.644-1.644h22.747c.908 0 1.644.736 1.644 1.644v5.185c0 .908-.736 1.644-1.644 1.644h-22.747a1.644 1.644 0 0 1-1.644-1.644v-5.185z" fill="#152D40"/><path d="M828.445 157.397v-18.984c0-1.936 1.573-3.5 3.5-3.5h33.096c1.937 0 3.5 1.574 3.5 3.5v18.984a3.502 3.502 0 0 1-3.5 3.501h-33.096c-1.937.01-3.5-1.564-3.5-3.501zm3.5-20.951a1.97 1.97 0 0 0-1.967 1.967v18.984a1.97 1.97 0 0 0 1.967 1.967h33.096a1.97 1.97 0 0 0 1.967-1.967v-18.984a1.97 1.97 0 0 0-1.967-1.967h-33.096z" fill="#C9D0D8"/><path d="M831.945 135.68h33.096a2.73 2.73 0 0 1 2.734 2.733v18.984a2.73 2.73 0 0 1-2.734 2.734h-33.096a2.73 2.73 0 0 1-2.734-2.734v-18.984a2.736 2.736 0 0 1 2.734-2.733z" fill="#1B3A52"/><path opacity=".25" d="M839.47 135.68l16.432 16.432a3.263 3.263 0 0 0 2.32.958c.837 0 1.685-.323 2.32-.958a3.282 3.282 0 0 0 0-4.64L848.76 135.69h-9.29v-.01zM829.363 137.527l22.615 22.615h6.194l-24.462-24.461h-1.765c-1.2 0-2.219.776-2.582 1.846z" fill="#324A4F"/><path d="M829.211 138.423v18.984a2.73 2.73 0 0 0 2.734 2.734h33.096a2.73 2.73 0 0 0 2.734-2.734v-18.984a2.73 2.73 0 0 0-2.734-2.733h-33.096a2.722 2.722 0 0 0-2.734 2.733zm1.09 0c0-.908.736-1.644 1.644-1.644h33.096c.908 0 1.644.736 1.644 1.644v18.984c0 .908-.736 1.644-1.644 1.644h-33.096a1.644 1.644 0 0 1-1.644-1.644v-18.984z" fill="#152D40"/><path d="M759.035 172.124h4.196c.303 0 .545.242.545.545v1.947a.542.542 0 0 1-.545.544h-4.196a.542.542 0 0 1-.544-.544v-1.947a.535.535 0 0 1 .544-.545z" fill="#A19E9A"/><path d="M759.035 172.124h4.196c.303 0 .545.242.545.545v.847h-5.296v-.847c0-.303.253-.545.555-.545z" fill="#D9D4D0"/><path d="M749.493 194.538l-1.251-2.704c-2.411-5.225-7.202-9.048-12.831-10.228-1.503-.313-2.592-1.664-2.592-3.208v-11.519c0-.838.313-1.634.888-2.24l12.689-13.567a3.272 3.272 0 0 1 2.401-1.039h14.868a3.29 3.29 0 0 1 3.289 3.289v39.844a3.29 3.29 0 0 1-3.289 3.288h-11.186a3.317 3.317 0 0 1-2.986-1.916zm-.696-43.415c-.605 0-1.19.252-1.604.696l-12.69 13.567a2.167 2.167 0 0 0-.595 1.493v11.519c0 1.029.727 1.927 1.715 2.139 5.962 1.25 11.045 5.306 13.598 10.843l1.25 2.704a2.189 2.189 0 0 0 1.987 1.271h11.187a2.187 2.187 0 0 0 2.189-2.189v-39.844a2.186 2.186 0 0 0-2.189-2.189h-14.848v-.01z" fill="#C9D0D8"/><path d="M737.439 166.435v-.807c0-.757.282-1.473.797-2.028l9.562-10.178a2.953 2.953 0 0 1 2.159-.928h11.631a2.953 2.953 0 0 1 2.955 2.956v10.985a2.952 2.952 0 0 1-2.955 2.955h-21.193a2.966 2.966 0 0 1-2.956-2.955zm12.518-12.408c-.393 0-.767.162-1.039.444l-9.552 10.178a1.403 1.403 0 0 0-.384.979v.807c0 .786.636 1.422 1.423 1.422h21.193c.786 0 1.422-.636 1.422-1.422V155.45c0-.787-.636-1.423-1.422-1.423h-11.641z" fill="#C7C7C7"/><path d="M738.801 164.125l9.552-10.178a2.167 2.167 0 0 1 1.594-.686h11.63c1.211 0 2.189.978 2.189 2.189v10.985c0 1.21-.978 2.188-2.189 2.188h-21.193a2.187 2.187 0 0 1-2.189-2.188v-.807c.01-.565.222-1.1.606-1.503z" fill="#1B3B52"/><path opacity=".25" d="M745.63 156.852l-4.499 4.791 6.98 6.98h9.28l-11.761-11.771zM754.819 158.919l8.644 8.645c.202-.333.313-.716.313-1.13v-4.751l-5.86-5.86a2.185 2.185 0 0 0-3.097 0 2.184 2.184 0 0 0 0 3.096z" fill="#324A4F"/><path d="M738.206 165.628v.807c0 1.21.978 2.188 2.188 2.188h21.193a2.186 2.186 0 0 0 2.189-2.188V155.45a2.186 2.186 0 0 0-2.189-2.189h-11.63c-.605 0-1.18.252-1.594.686l-9.552 10.178a2.134 2.134 0 0 0-.605 1.503zm1.099 0c0-.283.101-.545.293-.747l9.552-10.178c.202-.222.494-.343.797-.343h11.63c.606 0 1.1.495 1.1 1.1v10.985c0 .605-.494 1.099-1.1 1.099h-21.193a1.102 1.102 0 0 1-1.099-1.099v-.817h.02z" fill="#152D40"/><path d="M739.083 159.364h1.12c.181 0 .333.152.333.333v10.087a.336.336 0 0 1-.333.333h-1.12a1.825 1.825 0 0 1-1.826-1.826v-7.101c0-1.009.817-1.826 1.826-1.826z" fill="#333"/><path d="M740.193 159.364c.181 0 .333.152.333.333v10.087a.336.336 0 0 1-.333.333h-.777v-10.743h.777v-.01z" fill="#1A1A1A"/><path d="M433.776 197.19a5.27 5.27 0 0 0 6.405 3.803 5.268 5.268 0 1 0-6.405-3.803z" fill="#829EB0"/><path d="M443.53 195.041a5.27 5.27 0 0 0-6.405-3.803 5.144 5.144 0 0 0-2.199 1.171 5.253 5.253 0 0 1 2.653-1.624 5.273 5.273 0 0 1 6.405 3.802 5.27 5.27 0 0 1-1.604 5.236 5.29 5.29 0 0 0 1.15-4.782z" fill="#95AFC0"/><path d="M436.177 196.585a2.794 2.794 0 0 0 3.389 2.017 2.796 2.796 0 0 0 2.018-3.389 2.796 2.796 0 0 0-3.39-2.017 2.77 2.77 0 0 0-2.017 3.389z" fill="#95AFC0"/><path d="M437.427 196.262a1.489 1.489 0 0 0 1.826 1.08 1.488 1.488 0 0 0 1.079-1.826 1.488 1.488 0 0 0-1.825-1.08 1.488 1.488 0 0 0-1.08 1.826z" fill="#4C5C66"/><path d="M439.949 195.899a1.487 1.487 0 0 0-2.3-.857 1.52 1.52 0 0 1 .858-.606 1.509 1.509 0 0 1 1.826 1.08 1.491 1.491 0 0 1-.606 1.604 1.51 1.51 0 0 0 .222-1.221z" fill="#95AFC0"/><path d="M477.635 195.848c-.03 8.15 6.567 14.788 14.717 14.808 8.15.03 14.788-6.567 14.808-14.717.03-8.151-6.567-14.788-14.717-14.808-8.151-.03-14.778 6.557-14.808 14.717zm4.892.01c.02-5.457 4.449-9.865 9.906-9.845 5.457.02 9.865 4.449 9.845 9.906-.02 5.457-4.449 9.865-9.906 9.845-5.457-.01-9.865-4.449-9.845-9.906z" fill="#192D4B"/><path d="M480.863 195.858c-.02 6.375 5.124 11.55 11.499 11.57 6.375.02 11.55-5.125 11.57-11.5.02-6.375-5.124-11.549-11.499-11.57-6.365-.02-11.55 5.125-11.57 11.5zm2.037 0c.021-5.246 4.287-9.492 9.533-9.472 5.245.02 9.492 4.287 9.472 9.532-.021 5.246-4.287 9.492-9.533 9.472-5.245-.01-9.492-4.277-9.472-9.532z" fill="#95AFC0"/><g opacity=".5" fill="#E6F5FF"><path opacity=".5" d="M491.888 205.884c-5.245-.02-9.492-4.287-9.472-9.532a9.449 9.449 0 0 1 3.046-6.93 9.506 9.506 0 0 0-2.562 6.446c-.02 5.245 4.227 9.522 9.472 9.532a9.46 9.46 0 0 0 6.496-2.552c-1.745 1.866-4.226 3.046-6.98 3.036z"/><path opacity=".5" d="M503.448 196.413c.02-6.376-5.124-11.55-11.499-11.57A11.482 11.482 0 0 0 484 187.99a11.476 11.476 0 0 1 8.433-3.632c6.375.021 11.519 5.205 11.499 11.57a11.517 11.517 0 0 1-3.621 8.353c1.937-2.058 3.137-4.822 3.137-7.868z"/></g><path d="M499.695 202.536a9.84 9.84 0 0 0 2.583-6.618c.02-5.457-4.388-9.885-9.845-9.905a9.844 9.844 0 0 0-6.678 2.582c1.816-1.987 4.418-3.238 7.323-3.228 5.457.02 9.865 4.449 9.845 9.906 0 2.885-1.251 5.457-3.228 7.263z" fill="#95AFC0"/><path d="M424.112 195.848c-.03 8.15 6.567 14.788 14.718 14.808 8.15.03 14.787-6.567 14.807-14.717.031-8.151-6.566-14.788-14.717-14.808-8.15-.03-14.787 6.557-14.808 14.717zm4.893.01c.02-5.457 4.448-9.865 9.905-9.845 5.457.02 9.865 4.449 9.845 9.906-.02 5.457-4.448 9.865-9.905 9.845-5.457-.01-9.866-4.449-9.845-9.906z" fill="#192D4B"/><path d="M427.34 195.858c-.02 6.375 5.125 11.55 11.5 11.57 6.375.02 11.549-5.125 11.57-11.5.02-6.375-5.125-11.549-11.5-11.57-6.365-.02-11.549 5.125-11.57 11.5zm2.028 0c.02-5.246 4.287-9.492 9.532-9.472 5.246.02 9.492 4.287 9.472 9.532-.02 5.246-4.287 9.492-9.532 9.472-5.246-.01-9.482-4.277-9.472-9.532z" fill="#95AFC0"/><g opacity=".5" fill="#E6F5FF"><path opacity=".5" d="M438.356 205.884c-5.246-.02-9.492-4.287-9.472-9.532a9.449 9.449 0 0 1 3.046-6.93 9.506 9.506 0 0 0-2.562 6.446c-.02 5.245 4.227 9.522 9.472 9.532a9.46 9.46 0 0 0 6.496-2.552c-1.745 1.866-4.216 3.046-6.98 3.036z"/><path opacity=".5" d="M449.926 196.413c.02-6.376-5.125-11.55-11.5-11.57a11.48 11.48 0 0 0-7.948 3.147 11.475 11.475 0 0 1 8.432-3.632c6.375.021 11.52 5.205 11.5 11.57a11.514 11.514 0 0 1-3.622 8.353 11.5 11.5 0 0 0 3.138-7.868z"/></g><path d="M446.163 202.536a9.84 9.84 0 0 0 2.582-6.618c.021-5.457-4.388-9.885-9.845-9.905a9.843 9.843 0 0 0-6.677 2.582c1.815-1.987 4.418-3.238 7.323-3.228 5.457.02 9.865 4.449 9.845 9.906 0 2.885-1.251 5.457-3.228 7.263z" fill="#95AFC0"/><path d="M487.298 197.179a5.268 5.268 0 1 0 3.803-6.405 5.27 5.27 0 0 0-3.803 6.405z" fill="#829EB0"/><path d="M497.053 195.021a5.27 5.27 0 0 0-6.406-3.803 5.148 5.148 0 0 0-2.199 1.17 5.257 5.257 0 0 1 2.653-1.624 5.266 5.266 0 1 1 4.802 9.038 5.265 5.265 0 0 0 1.15-4.781z" fill="#95AFC0"/><path d="M492.523 197.119c.243-.02.475-.101.696-.242a1.564 1.564 0 0 0 .475-2.159L475.93 167.16c-.464-.726-3.793-.131-3.329.596l18.47 28.647a1.53 1.53 0 0 0 1.452.716z" fill="#CEE6F5"/><path d="M486.592 190.412l3.5-2.24-12.155-18.822-3.5 2.239 12.155 18.823z" fill="#829EB0"/><path d="M438.89 190.078c.373 0 15.474 2.028 20.921 2.754v1.12c-6.95-.938-20.417-2.734-20.931-2.764a4.712 4.712 0 0 0-4.711 4.69 4.714 4.714 0 0 0 4.691 4.721c.151 0 .302-.01.424-.02h.04c.171-.02.353-.04.565-.091l18.177-2.794v1.12l-17.976 2.753a4.902 4.902 0 0 1-.665.101 5.64 5.64 0 0 1-.555.031c-3.208-.011-5.81-2.623-5.8-5.831 0-3.197 2.623-5.8 5.82-5.79z" fill="#354047"/><path d="M462.776 186.941l6.103-3.53-1.291-2.229-6.103 3.53a2.366 2.366 0 0 1-2.33.02 4.96 4.96 0 0 0-4.872.041l-5.679 3.278a2.371 2.371 0 0 1-1.796.232l-20.86-5.588.817 2.885 19.368 5.184a4.933 4.933 0 0 0 3.752-.494l5.679-3.278a2.366 2.366 0 0 1 2.33-.02 4.954 4.954 0 0 0 4.882-.031z" fill="#4C5C66"/><path d="M427.653 187.173l1.342-5.023a.498.498 0 0 1 .605-.353l13.779 3.692c.262.07.424.343.353.605l-1.342 5.023a.497.497 0 0 1-.605.353l-13.779-3.691a.49.49 0 0 1-.353-.606z" fill="#CEE6F5"/><path d="M444.004 177.188l2.643 1.129 4.005 8.937 6.123-7.635 1.523 1.22-7.031 8.776a8.732 8.732 0 0 0-.595 10.067l-1.654 1.029A10.683 10.683 0 0 1 449.29 189l-5.286-11.812z" fill="#354047"/><path d="M449.401 198.32h18.278a.51.51 0 0 0 .484-.364l3.5-12.144 2.804.806-3.5 12.145a3.447 3.447 0 0 1-3.288 2.472h-18.107a.441.441 0 0 1-.373-.212l-.192-.323.394-2.38zM458.54 191.844h1.442v-5.8c0-.111.091-.202.202-.202h4.277v-1.443h-4.277c-.908 0-1.644.737-1.644 1.645v5.8z" fill="#354047"/><path d="M462.676 185.287h7.081c.716 0 1.271.626 1.18 1.342l-.847 6.546a1.195 1.195 0 0 1-1.18 1.039h-5.387a1.195 1.195 0 0 1-1.18-1.039l-.847-6.546a1.194 1.194 0 0 1 1.18-1.342z" fill="#4C5C66"/><path d="M470.443 190.472l-.081.585-5.901-.293 5.982-.292zM470.614 189.09l-.071.605-6.082-.303 6.153-.302zM470.937 186.629l-.041.343-6.425-.323 6.476-.323c0 .101 0 .202-.01.303zM470.261 191.844l-.071.575-5.729-.283 5.8-.292zM470.796 187.708l-.081.625-6.254-.312 6.335-.313z" fill="#95AFC0"/><path d="M462.955 185.291h6.516v-1.664h-6.516v1.664z" fill="#354047"/><path d="M453.335 199.429h11.852a2.07 2.07 0 0 0 2.068-2.068v-4.458a2.07 2.07 0 0 0-2.068-2.068h-11.852a2.07 2.07 0 0 0-2.068 2.068v4.458a2.07 2.07 0 0 0 2.068 2.068z" fill="#829EB0"/><path d="M432.243 175.795l31.33 8.392 3.46 3.46h8.332l4.075-8.311 7.596-4.792v-4.872l-7.374-11.681-2.38.676.544 4.136a5.11 5.11 0 0 1-.776 3.46l-3.632-.111-11.449 3.177-2.945 4.761-25.208-.111-1.573 1.816z" fill="#305F96"/><path d="M461.979 169.329l11.449-3.178 3.632.111-3.541 5.508a5.128 5.128 0 0 1-4.358 2.36l-10.137-.04 2.955-4.761zM442.652 171.76l15.111 4.004a.838.838 0 0 1 .595 1.029l-2.754 10.37a.838.838 0 0 1-1.029.595l-15.11-4.005a.838.838 0 0 1-.595-1.029l2.754-10.369a.853.853 0 0 1 1.028-.595z" fill="#CEE6F5"/><path d="M454.858 179.799l.747.202a.44.44 0 0 1 .312.535l-1.472 5.547a.441.441 0 0 1-.535.313l-.746-.202a.44.44 0 0 1-.313-.534l1.473-5.548a.431.431 0 0 1 .534-.313zM452.367 179.144l.746.202a.44.44 0 0 1 .313.534l-1.473 5.548a.442.442 0 0 1-.535.313l-.746-.202a.44.44 0 0 1-.313-.534l1.473-5.548a.44.44 0 0 1 .535-.313zM449.885 178.488l.747.202a.44.44 0 0 1 .312.535l-1.472 5.548a.44.44 0 0 1-.535.312l-.747-.201a.44.44 0 0 1-.312-.535l1.473-5.548a.433.433 0 0 1 .534-.313zM447.404 177.822l.746.201a.442.442 0 0 1 .313.535l-1.473 5.548a.441.441 0 0 1-.535.313l-.746-.202a.442.442 0 0 1-.313-.535l1.473-5.548a.44.44 0 0 1 .535-.312zM444.922 177.166l.747.202a.44.44 0 0 1 .312.535l-1.472 5.548a.44.44 0 0 1-.535.312l-.746-.201a.441.441 0 0 1-.313-.535l1.473-5.548a.44.44 0 0 1 .534-.313zM442.441 176.511l.746.202a.44.44 0 0 1 .313.534l-1.473 5.548a.44.44 0 0 1-.534.313l-.747-.202a.442.442 0 0 1-.313-.535l1.473-5.548a.428.428 0 0 1 .535-.312z" fill="#95AFC0"/><path d="M440.654 175.161l17.15 4.549.417-1.57-17.151-4.549-.416 1.57z" fill="#456A96"/><path opacity=".5" d="M443.5 186.87a.499.499 0 0 0-.353-.605l-13.779-3.692a.497.497 0 0 0-.555.242l.171-.655a.498.498 0 0 1 .606-.353l13.779 3.692c.262.07.423.342.353.605l-1.342 5.023c-.01.041-.03.071-.05.111l1.17-4.368z" fill="#E6F5FF"/><path d="M427.885 186.407a.498.498 0 0 0 .353.605l13.779 3.692a.497.497 0 0 0 .555-.242l-.172.655a.498.498 0 0 1-.605.354l-13.779-3.692a.499.499 0 0 1-.353-.606l1.342-5.023c.01-.04.03-.071.05-.111l-1.17 4.368z" fill="#B4CCDB"/><path d="M440.131 174.01h.837l-.302 1.16.201.05-.716 2.693-.988-.262.968-3.641zM457.814 179.708l.413-1.563-.202-.051.343-1.291a.841.841 0 0 0-.595-1.029l-6.445-1.714h.847l6.859 1.815a.838.838 0 0 1 .595 1.029l-1.543 5.8-1.19-.323.726-2.733.192.06z" fill="#264A75"/><path d="M487.036 169.672L484 170.771l-1.988-.736-3.681-11.651 1.341-.383 7.364 11.671z" fill="#CEE6F5"/><path d="M479.672 158.001l6.093 11.58v4.095l-6.88 4.792-1.906 5.891 2.461-5.024 7.596-4.791v-4.872l-7.364-11.671z" fill="#264A75"/><path opacity=".5" d="M484 170.772l-2.391-.343-3.561-11.964.283-.08 3.682 11.65 1.987.737z" fill="#E6F5FF"/><path d="M469.908 172.466c.182-.08.182-.343 0-.433-.555-.283-1.513-.696-1.987-.565l-2.673.696a.627.627 0 0 1-.767-.454.626.626 0 0 1 .454-.767l2.673-.696a3.433 3.433 0 0 1 3.036.676l.162.131c.262.222.575.363.908.444a17.218 17.218 0 0 0 5.356-5.235l-3.541 5.507a5.129 5.129 0 0 1-4.357 2.361l-6.658-.031a17.084 17.084 0 0 0 7.394-1.634z" fill="#B4CCDB"/><path d="M470.301 170.912a2.484 2.484 0 0 0-2.219-.494l-3.097.807a.724.724 0 0 1-.887-.524.725.725 0 0 1 .524-.888l3.097-.807a3.962 3.962 0 0 1 3.52.787l.182.151a2.496 2.496 0 0 0 2.512.404l.686-.273-1.211 1.887a3.951 3.951 0 0 1-2.915-.898l-.192-.152z" fill="#354047"/><path d="M471.169 170.983c.595.383.998-.091 1.22-.545a2.468 2.468 0 0 0 1.544-.09l.686-.273-1.211 1.886a4.7 4.7 0 0 1-.383.021 3.951 3.951 0 0 1-2.532-.918l-.182-.152a2.484 2.484 0 0 0-2.219-.494l-1.24.323c3.006-1.221 3.318-.414 4.317.242z" fill="#B4CCDB"/><path opacity=".5" d="M456.411 177.671l-14.908-4.852-.222.838 15.13 4.014z" fill="#E6F5FF"/><path d="M456.532 179.669l-13.637-3.914 14.707 3.904-1.695 6.405 1.11-5.588a.701.701 0 0 0-.485-.807zM482.961 177.116v.01l-2.673 1.685 7.152 11.065-.848.535-7.152-11.076 3.521-2.219z" fill="#B4CCDB"/><path d="M440.423 182.362l1.473-5.548a.441.441 0 0 1 .535-.313l.746.202c.192.05.313.222.323.414a.244.244 0 0 0-.091-.041l-.948-.252a.234.234 0 0 0-.283.162l-1.523 5.739c-.01.04-.01.091-.01.131a.442.442 0 0 1-.222-.494zM442.915 183.027l1.473-5.548a.44.44 0 0 1 .534-.313l.747.202a.443.443 0 0 1 .322.414.248.248 0 0 0-.09-.041l-.949-.252c-.121-.03-.252.041-.282.162l-1.523 5.739c-.01.04-.01.091-.01.131a.44.44 0 0 1-.222-.494zM445.406 183.683l1.473-5.548a.44.44 0 0 1 .535-.312l.746.201a.442.442 0 0 1 .323.414.252.252 0 0 0-.091-.04l-.948-.253a.235.235 0 0 0-.283.162l-1.523 5.739c-.01.041-.01.091-.01.132a.42.42 0 0 1-.222-.495zM447.888 184.339l1.472-5.548a.441.441 0 0 1 .535-.313l.746.202c.192.05.313.222.323.413a.245.245 0 0 0-.091-.04l-.948-.252a.232.232 0 0 0-.282.161l-1.523 5.74c-.011.04-.011.09-.011.131a.44.44 0 0 1-.221-.494zM450.379 185.005l1.473-5.548a.441.441 0 0 1 .535-.313l.746.202c.192.05.313.222.323.413a.245.245 0 0 0-.091-.04l-.948-.252a.232.232 0 0 0-.282.161l-1.524 5.74c-.01.04-.01.09-.01.131-.181-.101-.282-.293-.222-.494zM452.861 185.66l1.472-5.548a.442.442 0 0 1 .535-.313l.746.202c.192.05.313.222.323.413a.245.245 0 0 0-.091-.04l-.948-.252c-.121-.03-.252.04-.282.161l-1.523 5.74c-.01.04-.01.091-.01.131a.44.44 0 0 1-.222-.494z" fill="#95AFC0"/><path d="M460.597 201.149a5.81 5.81 0 1 0-2.669-11.31 5.81 5.81 0 0 0 2.669 11.31z" fill="#AEC5D4"/><path d="M455.342 195.505a3.922 3.922 0 0 0 3.924 3.924 3.922 3.922 0 0 0 3.924-3.924 3.922 3.922 0 0 0-3.924-3.924 3.922 3.922 0 0 0-3.924 3.924z" fill="#829EB0"/><path d="M455.342 195.505a3.922 3.922 0 0 0 3.924 3.924 3.922 3.922 0 0 0 3.924-3.924 3.922 3.922 0 0 0-3.924-3.924 3.922 3.922 0 0 0-3.924 3.924zm.767.383a3.155 3.155 0 0 1 3.157-3.157 3.155 3.155 0 0 1 3.157 3.157 3.156 3.156 0 0 1-3.157 3.158c-1.745-.011-3.157-1.423-3.157-3.158z" fill="#95AFC0"/><path d="M471.401 201.386l1.977-6.869h-4.328l-3.893 3.893-10.39 2.976v1.21h16.946l-.312-1.21z" fill="#305F96"/><path d="M472.773 194.517l-2.512 6.718.181.474-12.84.887h14.111l-.312-1.21 1.977-6.869h-.605z" fill="#264A75"/><g clip-path="url(#clip0)"><path opacity=".5" d="M650.77 220.61c30.249 0 54.77-1.831 54.77-4.09s-24.521-4.09-54.77-4.09c-30.249 0-54.77 1.831-54.77 4.09s24.521 4.09 54.77 4.09z" fill="#C3E1FF"/><path d="M614.88 172.39c-.11-.18-.07-.34.19-.49l-.48.27c-.25.14-.55.09-.7-.17-.15-.27-.03-.54.23-.68l-.67.33c-.31.09-.55.07-.7-.2-.14-.26-.06-.48.22-.68l.53-.36c-.25.14-.58.03-.73-.23-.12-.21-.01-.5.25-.64l3.39-1.99-1.03-.42c-.33-.14-.65-.52-.58-.82.07-.3.32-.32.65-.19l2.54.45c.76.1 1.62.32 2.15 1.29.55 1 0 2-.77 2.62l-.75.58-.66.48-2.28.95c-.26.14-.68.09-.8-.1z" fill="#FAA284"/><path d="M631.51 144.87s-2.31 2.17-6.39 13.33c0 0-4.99 5.51-7.09 7.95 0 0 .48 2.46 2.7 2.9 0 0 7.45-5.99 8.79-8.12 1.35-2.11 6.65-14.26 1.99-16.06z" fill="#EFC075"/><path d="M671.19 158.2c-.08-.26-.16-.52-.23-.77-1.67.09-2.76.56-3.64 1.18.34.91.75 1.77 1.2 2.33 1.36 1.67 8.41 6.47 8.41 6.47l1.6-2.37c-2.99-2.35-7.34-6.84-7.34-6.84z" fill="#FAA284"/><path d="M667.06 147.87c-1.94 2.39-.84 6.97-.84 6.97s.42 1.97 1.1 3.78c.89-.08 2.27-.35 3.64-1.18-2.57-8.42-3.9-9.57-3.9-9.57z" fill="#FC6B6B"/><path d="M648.97 145.67s1.84 2.6 5.63 10.49c0 0 4.12 2.04 7.84 3.16l-.81 3.57s-5.86-.92-8.72-2.56c-2.86-1.64-6.36-7.26-6.36-7.26s-.53-6.44 2.42-7.4z" fill="#FFD07D"/><path d="M653.34 148.879s-.43-12.02 2.91-17.6c2.6-4.34 5.12-1.86 5.12-1.86s2.72-1.6 4.3.89c1.58 2.49 4.01 8.59-.53 15.11-4.55 6.51-11.8 3.46-11.8 3.46z" fill="url(#paint5_linear)"/><path d="M667.01 133.129c-.32-.93-.7-1.73-1.06-2.36-4.06 1.65-7.24.31-8.84-.7-.28.33-.57.72-.86 1.2-.18.3-.35.61-.5.95 2.37.52 6.75 1.26 11.26.91z" fill="#674434"/><path d="M643.33 215.73h6.36s.33-1.71-1-3.94l-4.29.06s-1.18 1.76-1.07 3.88z" fill="#564437"/><path d="M649.71 215.73h-6.36v1h6.36v-1z" fill="#352A25"/><path d="M648.86 213.93c0 .44-1.07.79-2.4.79-1.33 0-2.4-.35-2.4-.79 0-.44 1.07-.79 2.4-.79 1.33 0 2.4.35 2.4.79z" fill="#776152"/><path d="M636.94 211.399s.49 2.54.12 4.33h-11.93s-.46-2.62 4.75-2.61l3.34-2.26 3.72.54z" fill="#564437"/><path d="M637.1 216.739h-3.96l-.05-.71s-1.66.67-3.93.67c-1.1 0-4 .03-4 .03v-1h11.94v1.01z" fill="#352A25"/><path d="M629.55 213.119s-.14 1.85-4.27 1.76c0 0 .53-1.68 4.27-1.76z" fill="#776152"/><path d="M633.19 215.73s.12-3.03 3.93-3.05c0 0 .2 2.05-.1 3.05h-3.83z" fill="#3F322A"/><path d="M631 170.18l-.22 41.61s3.26 1.63 6.33.35l1.17-34.65.91-.04 4.43 34.69s2.34 1.07 5.81-.21l-3.51-41.75H631z" fill="#484A4F"/><path d="M630.86 195.789l-.09 16s3.26 1.63 6.33.35l.72-21.4c-1.71 6.83-5.45 5.8-6.96 5.05z" fill="#3A3C3F"/><path d="M650.65 156.09c-.16.37-.32.75-.49 1.15 0 0-6.86 3.99-9.75 5.42l.82 3.14s9.6-3.8 11.42-5.66c.3-.31.69-.84 1.11-1.51-.97-1.79-2.15-2.24-3.11-2.54z" fill="#FAA284"/><path d="M654.99 147.739s-1.77 2.41-4.33 8.35c.54.72 1.61 1.9 3.11 2.54 2.06-3.34 4.8-10.18 1.22-10.89z" fill="#EA6060"/><path d="M647.85 193.26c-2.3 6.24-5.34 2.23-6.65 0l2.41 18.88s2.34 1.06 5.81-.21l-1.57-18.67zM645.91 170.18h-14.84v5.78c1.23.54 3.65 1.4 7.22 2.03l.01-.5.9-.04.1.71c2.08.32 4.5.55 7.28.6l-.67-8.58z" fill="#3A3C3F"/><path d="M637.54 142.23l-.08 2.76 4.58.13.1-3.59c-1.92.87-3.82.79-4.6.7z" fill="#FAA284"/><path d="M642.14 141.53l.08-2.77-4.58-.13-.1 3.6c.78.09 2.68.17 4.6-.7z" fill="#EF8D72"/><path d="M639.43 145.62c2.71 0 3.36-1.5 3.45-1.97-1.92-.39-3.83-.54-6.2-.22-.05.54.09 2.19 2.75 2.19z" fill="#FAA284"/><path d="M648.97 145.67s-2.61-1.42-5.78-2.12l-.41-.09c-.09.47-.6 1.91-3.31 1.91-2.66 0-2.75-1.53-2.69-2.07l-.6.09c-1.44.23-3.23.81-4.67 1.48 0 0-1.94 8.38-1.09 28.21 0 0 6.45 2.32 16.79.34 0 0-.97-13.89.37-19.32.01.01.97-5.02 1.39-8.43z" fill="#FFD07D"/><path d="M648.05 151.55c-3.56 7.99-7.93 17.48-17.78 16.37.08 1.93.06 2.75.15 5.17 0 0 6.45 2.32 16.79.34 0 0-.97-13.89.37-19.32.01 0 .39-2.11.47-2.56z" fill="#EFC075"/><path d="M667.32 180.8l-6.84 1.14c.07 1.4 2.3 6.43 2.85 9.19.76 3.74 4.08 19.85 4.08 19.85l2.47.15c.88-12.99-2.14-21.87-2.14-21.87-.04-3.46.13-5.24-.42-8.46z" fill="#FAA284"/><path d="M660.48 181.95l6.84-1.14c.55 3.21.38 5 .43 8.46 0 0 .48 1.3 1 3.7-1.2-.34-3.08-.7-5.15-.5-.11-.53-.2-.97-.27-1.32-.56-2.77-2.78-7.81-2.85-9.2z" fill="#EF8D72"/><path d="M659.42 182.04l-6.77.35c1.07 4.17 2.46 9.5 2.9 10.77 1.02 2.93 1.85 18.65 1.85 18.65h2.78c-.1-2.82.66-5.56.94-7.39 1.28-8.29-1.13-12.84-1.13-12.84.23-2.22-.37-7.34-.57-9.54z" fill="#FAA284"/><path d="M652.65 182.39l6.77-.35c.2 2.2.8 7.33.57 9.55 0 0 .48.9.89 2.62-1.14-.45-3.27-1.18-5.41-1.31-.53-1.63-1.81-6.58-2.82-10.51z" fill="#EF8D72"/><path d="M659.24 151.15c-3.49-.35-3.13-2.86-2.64-4.28 1.46-.66 2.46-.77 4.03-.76 2.77.01 3.56.47 4.44.84-.26.95-1.57 4.63-5.83 4.2z" fill="#FAA284"/><path d="M654.77 162.829l-.88-6.19s-1.38-1.5-1.35-2.93c.02-.63-.01-1.67 1.99-3.39l.45-2.57s.5-.43 1.4-.89c.82-.41 1.79-.63 1.86-.66-.41 1.19.04 1.92 2.08 2.05 2.37.16 2.86-1.03 3.13-1.99.04.02 1.04.32 1.73.62.6.26 1.22.59 1.86.98l-.84 6.91s-1.87 4.7-2.12 7.86c0 0 7.28 9.31 6.33 27.06 0 0-10.79 4.57-21.04-.11.01 0 1.98-19.84 5.4-26.75z" fill="#FC6B6B"/><path d="M659.25 145.32l-.01 1.2s.04 1.1 1.7 1.1 1.68-1.08 1.68-1.08l.01-2.03c-1.4.92-2.8.89-3.38.81z" fill="#FAA284"/><path d="M662.63 144.509l.01-2.77-3.38-.01-.01 3.6c.58.07 1.98.1 3.38-.82z" fill="#EF8D72"/><path d="M654.18 156.869c-1.15-.33-1.53-2.3-1.53-2.3 1.08.3 5.47.5 8.87.57 3.4.07 5.26-4.94 5.26-4.94h.01l-.57 4.65s-1.87 4.67-2.12 7.82c0 0-.49.3-1.39.6l-.51-.6c2.92-8.8-6.86-5.46-8.02-5.8z" fill="#EA6060"/><path d="M666.29 137.08l-.09.02s-.74 3.46-1.62-.86c-2.65-2.35-3.29-5.65-3.29-5.65-1.24 2.29-4.08 5.39-5.45 5.83-.1.79-.11 2.01-.09 3.1.04 2.13 1.03 3.76 3.07 4.4 4.92 1.54 6.67-3.11 6.67-3.11s1.88.18 2.27-2.24c.33-1.97-1.47-1.49-1.47-1.49z" fill="#FAA284"/><path d="M661.28 132.35s1.16 2.71 3.29 3.9c-2.66-2.36-3.29-5.65-3.29-5.65-1.1 2.04-3.46 4.71-4.94 5.59.99-.32 2.74-1.23 4.94-3.84zM665.09 140.27s-1.61 3.42-4.44 3.59c-1.72.11-3.14-.73-3.98-1.4.5.66 1.22 1.17 2.16 1.46 4.92 1.54 6.67-3.11 6.67-3.11s1.49.13 2.09-1.53c-1.38 1.65-2.5.99-2.5.99z" fill="#EF8D72"/><path opacity=".9" d="M657.48 139.86c0 .04-.04.07-.07.06-.04 0-.07-.04-.06-.07 0-.04.04-.07.07-.06.04 0 .07.04.06.07zM662.84 140.169c0 .04-.04.08-.08.07-.04 0-.08-.04-.07-.08 0-.04.04-.08.08-.07.04 0 .08.04.07.08z" fill="#EA7460"/><path d="M658.4 140.89s1.26.5 3.36.24c0 0-.62 1.64-2.02 1.43-1.25-.19-1.34-1.67-1.34-1.67z" fill="#CE3E3E"/><path d="M658.45 140.97s1.31.56 3.23.23c0 0-.37.68-1.85.53-1.32-.14-1.38-.76-1.38-.76z" fill="#fff"/><path d="M658.6 135.88s-.95-.45-2.08.24c0 0 0-.13.23-.34.24-.21.92-.5 1.6-.29.01 0 .41.27.25.39zM661.24 136.38s1.16-.39 2.35.54c0 0 .02-.15-.22-.42s-.98-.68-1.79-.54c0 .01-.5.26-.34.42z" fill="#502F26"/><path d="M660 140.38c-1.03.38-1.56-.12-1.59-.6-.02-.31.17-.59.48-.69.63-.22 1.1-1.16 1.1-1.17 0 .22-.25 1.03-1.05 1.46-.17.09-.28.19-.27.35 0 .27.38.68 1.33.65z" fill="#D3755F"/><path d="M662.49 137.31s-.62-.07-.68-.31c0 0-.12.32.25.47a.93.93 0 0 0-.27.57c-.05.44.17.84.51.88.33.04.65-.29.7-.73.05-.45-.18-.84-.51-.88zM657.92 136.959s-.62-.07-.68-.31c0 0-.12.32.25.47a.93.93 0 0 0-.27.57c-.05.44.17.84.51.88.33.04.65-.29.7-.73.05-.45-.17-.84-.51-.88z" fill="#502F26"/><path d="M636.44 128.59s4.41 2.1 5.47 1.98c1.06-.12 4.46-1.74 4.46-1.74.44 2.04-.64 3.81-.64 3.81l-9.58 2.21-1.62.42c-.44-1.73-.81-3.5-.81-4.52 1.99-.44 2.72-2.16 2.72-2.16z" fill="#3B221D"/><path d="M634.95 127.43c.86-3.47 6.78-3.71 6.78-3.71 3.11-1.89 1.94.53 1.94.53 5.21-1.86 2.73 2.83 2.73 2.83 1.93-.07-.03 1.75-.03 1.75s-3.4 1.63-4.46 1.74c-1.06.12-5.47-1.98-5.47-1.98s-.73 1.72-2.7 2.17c.01-3.09 1.21-3.33 1.21-3.33z" fill="#502F26"/><path d="M634.95 134.03l.72.61c.15-.36.27-.73.37-1.11.58-2.19.4-4.93.4-4.93 5.02 1.95 9.32.54 9.32.54-.24 2.49.58 7.98-1.32 10.8-.57.84-1.29 1.54-2.49 1.73-5.26.82-6.61-4.32-6.61-4.32s-1.65.44-1.98-1.99c-.29-2.01 1.59-1.33 1.59-1.33z" fill="#FAA284"/><path d="M637.18 129.49s-.42 2.32-1.06 3.72c.49-2.09.32-4.61.32-4.61 5.02 1.95 9.32.54 9.32.54-.03.27-.04.58-.04.92-1.95.26-5.45.5-8.54-.57z" fill="#EF8D72"/><path d="M642.85 134.66c0 .45.28.8.61.77.33-.03.6-.42.6-.87s-.28-.8-.61-.77c-.33.03-.6.42-.6.87zM638.26 134.53c0 .45.28.8.61.77.33-.03.6-.42.6-.87s-.28-.8-.61-.77c-.34.03-.61.41-.6.87z" fill="#502F26"/><path d="M641.23 137.23c1.02.41 1.56-.07 1.61-.55a.69.69 0 0 0-.45-.71c-.62-.24-1.06-1.19-1.06-1.2 0 .22.22 1.04 1 1.5.17.1.28.2.26.36-.03.26-.42.66-1.36.6z" fill="#DB7C65"/><path d="M644.92 132.33l.04-.31c-.07-.01-1.12-.29-2.35-.19l-.01.48c1.02-.15 2.3.02 2.32.02zM637.46 132.49c.82-.32 2.35-.38 2.36-.38l-.1-.44c-.06.01-1.44.06-2.36.55l.1.27z" fill="#502F26"/><path d="M645.97 123.83s-2.19 2.15-7.31 2.15c0 0 3.34 2.33 7.9.78 0 0 1.16-2.77-.59-2.93z" fill="#674434"/><path d="M635.73 136.74c.45 1.3 2.11 4.51 5.7 4.32 1.94-.11 2.93-1.39 3.58-2.28-.15.42-.34.81-.58 1.16-.57.84-1.29 1.54-2.49 1.73-5.26.82-6.61-4.32-6.61-4.32s-1.26.35-1.82-1.25c.99 1.62 2.22.64 2.22.64z" fill="#EF8D72"/><path d="M639.46 137.93s1.91.39 3.69 0c0 0-.32 1.64-1.85 1.63-1.44 0-1.83-1.31-1.84-1.63z" fill="#CE3E3E"/><path d="M641.34 138.72c1.18 0 1.52-.49 1.67-.75-1.38.27-2.49.11-3.46-.01.11.29.69.76 1.79.76z" fill="#fff"/><path d="M667.21 212.7s-1.78 2.91-.6 4.03h3.86s.99-.9-.37-3.91l-1.88-.02-1.01-.1z" fill="#842D2D"/><path d="M667.42 210.99l-.55 3.57c.99-.73 2.41-.53 3.34.14 0 0 .16-1.46-.34-3.64l-1.25-.69-1.2.62zM655.14 215.58c.17.02 3.87-.56 4.54-1.1.49-.4.78-.55.88-1.3-.22-.54-.37-1.36-.37-1.36l-1.32-.91-1.45.91c-.93.99-2.99 2.85-2.99 2.85s.54.89.71.91z" fill="#FAA284"/><path d="M659.28 214.12c-.82.37-3.92 1.24-4.09 1.22-.17-.02-.61-.83-.61-.83-3.18.08-2.97 1.28-3 1.76-.03.47 2.73.43 4.15.43 1 0 3.04-.76 3.04-.76l.06.76h1.43c.86-1.41.61-2.71.28-3.52-.22.61-1.26.94-1.26.94z" fill="#842D2D"/><path d="M662.71 163.26s5.59 8.2 7.22 15.51c0 0-1.21-9.68-5.84-16.11l-1.38.6z" fill="#EA6060"/><path d="M626.7 175.48s-.27-1.85-.54-2.26c0 0 .71-.38.92.74 0 0 .53-.34 1.14-.62v.01l.9-.53c.1-.06.24-.02.29.09.06.11.02.24-.09.3l-1.01.59c.01.03.02.06.04.08l1.3-.47c.13-.05.26.02.31.14a.25.25 0 0 1-.15.31l-1.25.45c.01.02.01.03.02.05l1.19-.17c.12-.02.24.06.26.19.02.13-.06.25-.18.27l-1.17.17c0 .01 0 .02.01.03l1.06.15c.11.01.2.1.19.22 0 .11-.1.2-.21.2l-1.01-.15-.97.52c.19 3.82-2.15 8.14-3.47 9.83l-2.36-1.87c2.49-2.44 4.78-8.27 4.78-8.27z" fill="#FAA284"/><path d="M625.01 185.839s-1.54-2.96-3.81-2.43l-1.96 2.55s-.24 3.01 2.15 4.39l3.62-4.51z" fill="#FF6364"/><path d="M619.4 212.05h-1.82v2.84h1.82v-2.84z" fill="#D1C7C8"/><path d="M617.39 216.71l5.86.03s.01-.01.01-.12h-5.86l-.01.09zM621.32 214.74s-1.31-.82-1.56-1.39c0 0-.71-.02-.87.87 0 0-.95.48-1.47-.24l-.02 2.2h5.8c-.19-.67-.34-1.2-1.88-1.44z" fill="#EE4B4D"/><path d="M617.42 213.97c.11.15.23.3.36.36.16.47.46 1.07.91 1.85h-1.29l.02-2.21z" fill="#CE3A41"/><path d="M617.39 216.18l-.01.45h5.86c0-.22.03-.33-.05-.45h-5.8zM621.25 214.529s-.31.11-.56.64l-.23-.16s.22-.57.59-.61l.2.13zM620.75 214.2s-.31.11-.55.64l-.23-.15s.24-.6.6-.63l.18.14zM620.31 213.809s-.34.07-.61.65l-.25-.16s.26-.6.67-.65l.19.16z" fill="#EFEDED"/><path d="M613.13 215.06h-1.95l.39-2.92 1.83.04-.27 2.88z" fill="#D1C7C8"/><path d="M613.41 216.71l-5.86.03s-.01-.01-.01-.12h5.86l.01.09zM609.48 214.74s1.31-.82 1.56-1.39c0 0 .71-.02.87.87 0 0 .95.48 1.47-.24l.02 2.2h-5.8c.18-.67.33-1.2 1.88-1.44z" fill="#EE4B4D"/><path d="M613.38 213.97c-.11.15-.23.3-.36.36-.16.47-.46 1.07-.91 1.85h1.29l-.02-2.21z" fill="#CE3A41"/><path d="M613.4 216.18l.01.45h-5.86c0-.22-.03-.33.05-.45h5.8zM609.54 214.529s.31.11.56.64l.23-.16s-.22-.57-.59-.61l-.2.13zM610.04 214.2s.31.11.55.64l.23-.15s-.24-.6-.6-.63l-.18.14zM610.49 213.809s.34.07.61.65l.25-.16s-.26-.6-.67-.65l-.19.16z" fill="#EFEDED"/><path d="M622.01 198.64s-.4 6.4-2.33 14.38c0 0-.74.71-2.4.07l.11-9.97h-1.3l-2.41 10.24s-.82.23-2.59-.33c0 0 1.39-11.82 1.4-14.33l9.52-.06z" fill="#585C63"/><path d="M620.31 186.399s2.17 5.86 1.68 12.23c0 0-2.96 1.55-9.5.06 0 0 0-2.06.01-4.84 0 0-.02-4.25-.01-7.14 0-.01 3.25-2.49 7.82-.31z" fill="#FF6364"/><path d="M605.86 177.209s-.06-1.8.13-2.23c0 0-.73-.24-.74.85 0 0-.55-.23-1.17-.4v.01l-.93-.35c-.11-.04-.22.02-.26.14-.03.11.02.23.13.27l1.04.39c-.01.03-.01.06-.02.08l-1.29-.23a.226.226 0 0 0-.26.19c-.02.12.07.24.19.26l1.24.22c0 .02-.01.03-.01.05l-1.12.04c-.12 0-.21.1-.21.22s.09.22.21.22l1.12-.04v.02l-.96.32c-.1.02-.17.13-.14.24.02.11.13.18.23.15l.91-.31.99.33c.46 3.65 3.34 7.36 4.85 8.74l1.89-2.17c-2.73-1.87-5.82-7.01-5.82-7.01z" fill="#FAA284"/><path d="M609.14 186.75s.94-3.06 3.15-2.95l1.96 2.1s.23 2.73-1.77 4.45l-3.34-3.6z" fill="#FF6364"/><path d="M618.01 185.369v.78s-.31.66-1.3.66c-.88 0-1.29-.64-1.29-.64v-1.17c1.08.69 2.15.42 2.59.37z" fill="#FAA284"/><path d="M615.42 184.999v-2.33l2.59-.02.01 2.71c-.45.06-1.52.33-2.6-.36z" fill="#EF8D72"/><path d="M610.11 175.76c-.47-.33-.84.24-.84.24.04-.9.93-1.12 1-1.13v-.02c-.66-.56-.31-1.7-.31-1.7-.01.36.43 1.04.48 1.12.03-.08.06-.16.08-.23.52-1.34 1.5-1.94 2.43-2.47.14-.09.59-.31.65-.33 1.87-.91 2.6-2.07 2.6-2.07.4.76.1 1.28.1 1.28 1.33-.46 4.1-.02 4.1-.02-.19.6-.61.89-.92 1.03 1.32.95 1.97 2.27 1.97 2.27-.54.14-1.06-.1-1.06-.1.74 2.2.48 4.07.48 4.07l-8.65 4.41c-1.21-3.88-2.42-4.45-2.11-6.35z" fill="#502F26"/><path d="M612.33 179.78s-.35-2.55-.4-3.28c.71.17 2.24-.14 2.24-.14.94-.15.67-.52.67-.52.88.12 1.92-.27 1.92-.27-.05-.6-1.04-1.19-1.04-1.19 1.45.86 3.38.76 3.38.76-.09-.41-.47-.96-.76-1.34 1.4.74 1.94 1.61 1.94 1.61 2.07 5.4 1.15 8.07-1.64 8.91-4.35 1.31-5.54-1.94-5.54-1.94s-1.08 1.13-2.04-.68c-.98-1.89.94-2.03 1.27-1.92z" fill="#FAA284"/><path d="M619.53 180.68s-1.32.55-3.14.75c0 0 .53 1.81 2.15 1.21 1.48-.56.99-1.96.99-1.96z" fill="#CE3E3E"/><path d="M619.48 180.699s-1.28.52-3.02.72c0 0 .09.68 1.81.28 1.52-.36 1.21-1 1.21-1z" fill="#fff"/><path d="M617.93 180.36c-.04-.01-.07-.05-.07-.1 0-.06.05-.11.1-.11.36 0 .61-.11.72-.31.08-.15.06-.34-.05-.53-.22-.36-.75-.02-.76-.02l-.02.02h-.03c-.31.01-.46-.71-.49-.93-.01-.06.03-.11.08-.12.05-.01.11.03.12.09.06.36.19.7.27.75.26-.15.75-.3 1 .1.15.25.17.53.06.75-.08.16-.3.42-.89.42-.02 0-.03-.01-.04-.01z" fill="#D87C60"/><path d="M610.83 173.419c.29-.49.65-.85 1.05-1.16 2.57.3 4.6-.92 5.87-2.03 1.28-.03 2.67.18 2.67.18-.19.6-.61.89-.92 1.03.13.09.25.19.37.29-3.27 1.84-7.57 1.78-9.04 1.69z" fill="#674434"/><path d="M614.97 179.829l-.32-.05c0-.02.09-.57.52-.8.29-.15.65-.12 1.07.09l-.14.29c-.32-.16-.59-.19-.78-.09-.28.15-.34.56-.35.56zM619.04 178.66l-.32-.05c0-.02.09-.57.52-.8.29-.15.65-.12 1.07.09l-.14.29c-.32-.16-.59-.19-.78-.09-.28.14-.35.55-.35.56zM619.99 176.6l-.02-.25c-.05.01-.94-.05-1.9.24l.07.38c.78-.29 1.84-.37 1.85-.37zM613.86 178.28c.6-.39 1.81-.69 1.82-.69l-.15-.33c-.05.02-1.14.29-1.79.83l.12.19z" fill="#502F26"/><path d="M674.14 183.949l-1.72 1.99s-3.63-1.81-4.97-3.75l-1.57.88s4.43 6.9 7.25 5.68c1.76-.76 3.08-3.2 3.08-3.2l-2.07-1.6z" fill="#FAA284"/><path d="M667.4 183.53s1.41-.49.69-2.86c0 0-.15-.79-.68-.74 0 0-.29-1.45-.95-1.03 0 0-1.99 1.17-1.63 2.33.36 1.16 1.04 2.82 2.57 2.3z" fill="#FAA284"/><path d="M672.66 184.769s.51 2.75 3.96 2.32l1.18-3.66s1.31-2.78-1.12-4.32l-4.02 5.66z" fill="#58CCB6"/><path d="M676.53 199.54l1.3 13.96h1.96s1.76-9.94 0-13.96h-3.26z" fill="#F4A984"/><path d="M679.79 199.54h-3.26l.39 4.1c.73.46 2.02 1.2 3.65 1.71.03-2.22-.15-4.47-.78-5.81z" fill="#D88D6C"/><path d="M686.65 199.539l4.19 13.63-2.36.21s-4.85-8.38-5.01-13.85h3.18v.01z" fill="#F4A984"/><path d="M687.79 203.21l-1.14-3.67h-3.19c.05 1.79.58 3.77 1.28 5.75 1.53-.53 2.54-1.5 3.05-2.08z" fill="#D88D6C"/><path d="M685.44 189.249s1.18-11.97-5.55-11.7c0 0-5.89-.85-4.98 11.55l-2.96 12.25s9.12 5.14 20.72-2.56l-7.23-9.54z" fill="#61E2CD"/><path d="M684.89 182.02c-.33 2.82-1.48 7.16-3.35 8.13 1.18-.12 2.49-.39 3.89-.9.01 0 .34-4.05-.54-7.23z" fill="#58CCB6"/><path d="M677.83 213.37l-.6.98s1.4.92 2.91.1l-.18-1.07s.29-2.92.33-3.26c0 0-1.91.56-2.81 0 .01-.01.24 2.18.35 3.25zM688.82 214.43l-.39-1.13s-1.17-2.1-1.62-3.07c0 0 1.78.16 2.93-.68l1.21 3.61s.36 1.01.24 1.27c0 0-1 .54-2.37 0z" fill="#D7DCE0"/><path d="M688.18 216.289h3.43s.33-.76-.38-1.96c0 0-.62-.26-1.33-.26-.72 0-1.17.22-1.17.22s-.61.77-.55 2z" fill="#61E2CD"/><path d="M691.69 216.289h-3.46v.45h3.46v-.45z" fill="#52C1AC"/><path d="M680.13 214.3s.2.88 0 1.99h-6.45s-.22-1.49 2.58-1.48l1.06-.76s.53.38 1.45.46c.91.08 1.36-.21 1.36-.21z" fill="#61E2CD"/><path d="M680.19 216.74h-2.13l-.03-.41s-.92.34-2.14.34h-2.18v-.38h6.48v.45z" fill="#52C1AC"/><path d="M675.25 166.759s-5.54-1.44-4.98 5.56c0 0 .37 1.3-1.29.56 0 0 1.59 2.08 2.51 0 .03-.07.06-.13.1-.2-.06.67.14 1.1.23 1.49.21.92-.4.86-.4.86.29.25 1.09.8 1.2-1.4.02-.46.09-.87.17-1.22.16.51.48 1.03 1.1 1.31 0 0-.36-2.99.77-4.28.73-.72 1.17-1.5.59-2.68z" fill="#3B221D"/><path d="M675.22 169.429c.525 0 .95-.613.95-1.37 0-.756-.425-1.37-.95-1.37-.525 0-.95.614-.95 1.37 0 .757.425 1.37.95 1.37z" fill="#E23D3D"/><path d="M679.81 176.159s7.07 1.05 7-5.59c-.07-6.64-4.7-7.89-6.74-6.97 0 0-5.52-1.95-5.51 6.83-.01 0-.09 5.51 5.25 5.73z" fill="#502F26"/><path d="M675.18 166.209c.43-1.12 1.02-1.81 1.66-2.22.69.63 1.73 1.21 3.23 1.3 1.91.11 3.05-.62 3.69-1.3.85.49 1.65 1.29 2.21 2.48-2.18.26-6.56.59-10.79-.26z" fill="#674434"/><path d="M686.4 170.199c.525 0 .95-.613.95-1.37 0-.757-.425-1.37-.95-1.37-.524 0-.95.613-.95 1.37 0 .757.426 1.37.95 1.37z" fill="#E23D3D"/><path d="M686.4 167.869s5.54-1.44 4.98 5.56c0 0-.37 1.3 1.29.56 0 0-1.59 2.08-2.51 0-.03-.07-.06-.13-.1-.2.06.67-.14 1.1-.23 1.49-.21.92.4.86.4.86-.29.25-1.09.8-1.2-1.4-.02-.46-.09-.87-.17-1.22-.16.51-.48 1.03-1.1 1.31 0 0 .36-2.99-.77-4.28-.73-.72-1.17-1.5-.59-2.68z" fill="#502F26"/><path d="M684.46 170.069s-2.77-.18-4.4-4.08c0 0-2.59 2.97-4.46 2.96 0 0 2.48-.59 4.52-4 .01-.01.88 3.64 4.34 5.12z" fill="#D88D6C"/><path d="M678.53 177.289v.81s.32.68 1.35.68c.91 0 1.33-.66 1.33-.66l.01-1.21c-1.12.71-2.23.44-2.69.38z" fill="#FAA284"/><path d="M681.21 176.909v-2.4l-2.68-.02-.01 2.8c.47.06 1.58.33 2.69-.38z" fill="#EF8D72"/><path d="M684.61 171.139s-.07-.89-.14-1.07c-3.36-1.36-4.34-5.13-4.34-5.13s-1.81 3.23-4.52 4c-1.61 4.98.3 7.26 3.39 7.82 4.17.76 5.16-2.71 5.16-2.71s1.47.87 2.09-.97c.72-2.16-1.28-2.09-1.64-1.94z" fill="#FAA284"/><path d="M677.48 173.449s1.6.44 3.76.44c0 0-.42 2.06-2.38 1.59-1.8-.43-1.38-2.03-1.38-2.03z" fill="#CE3E3E"/><path d="M677.54 173.459s1.56.42 3.62.43c0 0-.03.76-2.09.53-1.83-.21-1.53-.96-1.53-.96z" fill="#fff"/><path d="M679.6 173.149c.04-.02.07-.08.06-.13-.01-.06-.08-.11-.14-.09-.41.08-.73.02-.89-.17-.12-.15-.14-.36-.05-.58.18-.44.87-.19.87-.19l.03.01.03-.01c.36-.06.38-.88.37-1.13 0-.07-.06-.12-.12-.12-.07 0-.12.06-.12.12.01.4-.07.81-.16.88-.33-.11-.93-.16-1.13.34-.12.3-.09.61.09.83.13.15.44.39 1.12.25.02 0 .03 0 .04-.01z" fill="#D87C60"/><path d="M678.04 170.79c-.09.41-.44.67-.77.6-.34-.08-.54-.47-.44-.87.09-.41.44-.67.77-.6.33.07.53.46.44.87zM682.59 171.419c-.09.41-.44.67-.77.6-.34-.08-.54-.47-.44-.87.09-.41.44-.67.77-.6.34.07.53.46.44.87zM678.23 168.95s-1-.08-1.66.28c0 0 .24-.61 1.59-.56 0 0 .31.28.07.28zM681.37 169.5s1.02.01 1.68.42c0 0-.23-.62-1.6-.7 0 0-.32.26-.08.28z" fill="#502F26"/><path d="M692.13 167.529s.06-1.97-.14-2.44c0 0 .79-.27.8.93 0 0 .6-.25 1.27-.43v.01l1.01-.38c.12-.04.24.03.28.15.04.12-.03.26-.14.3l-1.13.43c.01.03.01.06.02.09l1.41-.25c.14-.02.26.07.29.2.02.14-.07.27-.21.29l-1.36.24c0 .02.01.04.01.05l1.24.04c.13 0 .23.11.23.24s-.1.24-.23.24l-1.22-.04v.03l1.05.35c.11.03.18.15.16.26-.03.12-.14.19-.25.16l-1-.34-1.08.36c-.5 4-3.66 8.05-5.3 9.55l-2.07-2.37c2.98-2.04 6.36-7.67 6.36-7.67z" fill="#FAA284"/><path d="M688.54 177.97s-1.03-3.35-3.44-3.22l-3.23 3.69s.12 1.82 2.3 3.69l4.37-4.16z" fill="#61E2CD"/><path opacity=".9" d="M620.17 180.12c.01.03.05.04.07.03.03-.01.04-.05.03-.07-.01-.03-.05-.04-.07-.03-.03.01-.05.04-.03.07zM614.7 181.449c.01.03.05.04.08.03.03-.01.05-.05.03-.08-.01-.03-.05-.05-.08-.03-.03.01-.04.05-.03.08zM676.6 173.01c-.01.03-.04.05-.07.04-.03-.01-.05-.04-.04-.07.01-.03.04-.05.07-.04.03.01.05.04.04.07zM682.2 173.54c-.01.03-.04.05-.07.04-.03-.01-.05-.04-.04-.07.01-.03.04-.05.07-.04.03.01.05.04.04.07z" fill="#EA7460"/></g><defs><linearGradient id="paint0_linear" x1="403" y1="165.119" x2="552.706" y2="165.119" gradientUnits="userSpaceOnUse"><stop stop-color="#9EC23A"/><stop offset="1" stop-color="#9FC731"/></linearGradient><linearGradient id="paint1_linear" x1="550.137" y1="129.326" x2="550.137" y2="146.459" gradientUnits="userSpaceOnUse"><stop stop-color="#fff"/><stop offset="1" stop-color="#E5F6FF"/></linearGradient><linearGradient id="paint2_linear" x1="579.655" y1="145.72" x2="620.003" y2="145.72" gradientUnits="userSpaceOnUse"><stop stop-color="#9EC23A"/><stop offset="1" stop-color="#9FC731"/></linearGradient><linearGradient id="paint3_linear" x1="810.22" y1="138.808" x2="857.991" y2="138.808" gradientUnits="userSpaceOnUse"><stop stop-color="#9EC23A"/><stop offset="1" stop-color="#9FC731"/></linearGradient><linearGradient id="paint4_linear" x1="752.505" y1="187.719" x2="886.756" y2="187.719" gradientUnits="userSpaceOnUse"><stop stop-color="#9EC23A"/><stop offset="1" stop-color="#9FC731"/></linearGradient><linearGradient id="paint5_linear" x1="661.197" y1="133.756" x2="660.264" y2="144.583" gradientUnits="userSpaceOnUse"><stop stop-color="#502F26"/><stop offset="1" stop-color="#3B221D"/></linearGradient><clipPath id="clip0"><path fill="#fff" transform="translate(596 123)" d="M0 0h109.53v97.61H0z"/></clipPath></defs></svg>