<svg width="375" height="135" fill="none" xmlns="http://www.w3.org/2000/svg" viewBox="0 0 375 135"><path fill="#F5FCFF" d="M0 0h375v135H0z"/><g clip-path="url(#clip0)"><path fill-rule="evenodd" clip-rule="evenodd" d="M128.8 48.563h210.002c.648 0 1.186-.532 1.186-1.186V44.86c0-.648-.532-1.186-1.186-1.186H128.8c-.648 0-1.186.532-1.186 1.186v2.518a1.195 1.195 0 0 0 1.186 1.186z" fill="#D6ECFF"/><path fill-rule="evenodd" clip-rule="evenodd" d="M191.622 48.563h-58.867v71.222h58.867V48.564zM334.853 48.563h-59.014v71.222h59.014V48.564z" fill="#D6ECFF"/><path fill-rule="evenodd" clip-rule="evenodd" d="M191.622 48.563h-58.867v5.184h58.867v-5.184zM334.853 48.563h-59.014v5.184h59.014v-5.184zM281.115 62.794h11.584c.361 0 .654.293.654.654v16.321c0 .361-.293.655-.654.655h-11.584a.655.655 0 0 1-.654-.655V63.448a.65.65 0 0 1 .654-.654z" fill="#9AC0E2"/><path fill-rule="evenodd" clip-rule="evenodd" d="M281.451 63.839h10.906v15.539h-10.906v-15.54z" fill="#D6ECFF"/><g opacity=".7" fill="#fff"><path opacity=".7" d="M286.598 63.839l-4.193 15.539h1.247l4.193-15.54h-1.247zM289.637 63.839l-4.188 15.539h2.097l4.193-15.54h-2.102z"/></g><path fill-rule="evenodd" clip-rule="evenodd" d="M299.936 62.794h11.584c.361 0 .654.293.654.654v16.321c0 .361-.293.655-.654.655h-11.584a.655.655 0 0 1-.654-.655V63.448c0-.36.294-.654.654-.654z" fill="#9AC0E2"/><path fill-rule="evenodd" clip-rule="evenodd" d="M300.279 63.839h10.905v15.539h-10.905v-15.54z" fill="#D6ECFF"/><g opacity=".7" fill="#fff"><path opacity=".7" d="M305.42 63.839l-4.194 15.539h1.247l4.194-15.54h-1.247zM308.464 63.839l-4.193 15.539h2.102l4.188-15.54h-2.097z"/></g><path fill-rule="evenodd" clip-rule="evenodd" d="M281.115 90.473h11.584c.361 0 .654.293.654.654v16.321a.654.654 0 0 1-.654.654h-11.584a.654.654 0 0 1-.654-.654V91.127a.65.65 0 0 1 .654-.654z" fill="#9AC0E2"/><path fill-rule="evenodd" clip-rule="evenodd" d="M281.451 91.518h10.906v15.539h-10.906v-15.54z" fill="#D6ECFF"/><g opacity=".7" fill="#fff"><path opacity=".7" d="M286.598 91.518l-4.193 15.539h1.247l4.193-15.54h-1.247zM289.637 91.518l-4.188 15.539h2.097l4.193-15.54h-2.102z"/></g><path fill-rule="evenodd" clip-rule="evenodd" d="M299.936 90.473h11.584c.361 0 .654.293.654.654v16.321a.654.654 0 0 1-.654.654h-11.584a.655.655 0 0 1-.654-.654V91.127c0-.36.294-.654.654-.654z" fill="#9AC0E2"/><path fill-rule="evenodd" clip-rule="evenodd" d="M300.279 91.518h10.905v15.539h-10.905v-15.54z" fill="#D6ECFF"/><g opacity=".7" fill="#fff"><path opacity=".7" d="M305.42 91.518l-4.194 15.539h1.247l4.194-15.54h-1.247zM308.464 91.518l-4.193 15.539h2.102l4.188-15.54h-2.097z"/></g><path fill-rule="evenodd" clip-rule="evenodd" d="M318.758 62.794h11.584c.361 0 .654.293.654.654v16.321c0 .361-.293.655-.654.655h-11.584a.655.655 0 0 1-.654-.655V63.448c0-.36.293-.654.654-.654z" fill="#9AC0E2"/><path fill-rule="evenodd" clip-rule="evenodd" d="M319.101 63.839h10.905v15.539h-10.905v-15.54z" fill="#D6ECFF"/><g opacity=".7" fill="#fff"><path opacity=".7" d="M324.242 63.839l-4.188 15.539h1.247l4.188-15.54h-1.247zM327.286 63.839l-4.194 15.539h2.103l4.194-15.54h-2.103z"/></g><path fill-rule="evenodd" clip-rule="evenodd" d="M318.758 90.473h11.584c.361 0 .654.293.654.654v16.321a.654.654 0 0 1-.654.654h-11.584a.654.654 0 0 1-.654-.654V91.127c0-.36.293-.654.654-.654z" fill="#9AC0E2"/><path fill-rule="evenodd" clip-rule="evenodd" d="M319.101 91.518h10.905v15.539h-10.905v-15.54z" fill="#D6ECFF"/><g opacity=".7" fill="#fff"><path opacity=".7" d="M324.242 91.518l-4.188 15.539h1.247l4.188-15.54h-1.247zM327.286 91.518l-4.194 15.539h2.103l4.194-15.54h-2.103z"/></g><path fill-rule="evenodd" clip-rule="evenodd" d="M137.119 62.794h11.584c.361 0 .654.293.654.654v16.321c0 .361-.293.655-.654.655h-11.584a.655.655 0 0 1-.654-.655V63.448c0-.36.294-.654.654-.654z" fill="#9AC0E2"/><path fill-rule="evenodd" clip-rule="evenodd" d="M137.462 63.839h10.905v15.539h-10.905v-15.54z" fill="#D6ECFF"/><g opacity=".7" fill="#fff"><path opacity=".7" d="M142.603 63.839l-4.187 15.539h1.247l4.187-15.54h-1.247zM145.647 63.839l-4.193 15.539h2.102l4.194-15.54h-2.103z"/></g><path fill-rule="evenodd" clip-rule="evenodd" d="M155.947 62.794h11.584c.361 0 .654.293.654.654v16.321c0 .361-.293.655-.654.655h-11.584a.655.655 0 0 1-.654-.655V63.448a.65.65 0 0 1 .654-.654z" fill="#9AC0E2"/><path fill-rule="evenodd" clip-rule="evenodd" d="M156.283 63.839h10.906v15.539h-10.906v-15.54z" fill="#D6ECFF"/><g opacity=".7" fill="#fff"><path opacity=".7" d="M161.43 63.839l-4.193 15.539h1.247l4.193-15.54h-1.247zM164.469 63.839l-4.188 15.539h2.097l4.193-15.54h-2.102z"/></g><path fill-rule="evenodd" clip-rule="evenodd" d="M137.119 90.473h11.584c.361 0 .654.293.654.654v16.321a.654.654 0 0 1-.654.654h-11.584a.655.655 0 0 1-.654-.654V91.127c0-.36.294-.654.654-.654z" fill="#9AC0E2"/><path fill-rule="evenodd" clip-rule="evenodd" d="M137.462 91.518h10.905v15.539h-10.905v-15.54z" fill="#D6ECFF"/><g opacity=".7" fill="#fff"><path opacity=".7" d="M142.603 91.518l-4.187 15.539h1.247l4.187-15.54h-1.247zM145.647 91.518l-4.193 15.539h2.102l4.194-15.54h-2.103z"/></g><path fill-rule="evenodd" clip-rule="evenodd" d="M155.947 90.473h11.584c.361 0 .654.293.654.654v16.321a.654.654 0 0 1-.654.654h-11.584a.654.654 0 0 1-.654-.654V91.127a.65.65 0 0 1 .654-.654z" fill="#9AC0E2"/><path fill-rule="evenodd" clip-rule="evenodd" d="M156.283 91.518h10.906v15.539h-10.906v-15.54z" fill="#D6ECFF"/><g opacity=".7" fill="#fff"><path opacity=".7" d="M161.43 91.518l-4.193 15.539h1.247l4.193-15.54h-1.247zM164.469 91.518l-4.188 15.539h2.097l4.193-15.54h-2.102z"/></g><path fill-rule="evenodd" clip-rule="evenodd" d="M174.769 62.794h11.584c.36 0 .654.293.654.654v16.321c0 .361-.294.655-.654.655h-11.584a.655.655 0 0 1-.654-.655V63.448c0-.36.293-.654.654-.654z" fill="#9AC0E2"/><path fill-rule="evenodd" clip-rule="evenodd" d="M175.105 63.839h10.905v15.539h-10.905v-15.54z" fill="#D6ECFF"/><g opacity=".7" fill="#fff"><path opacity=".7" d="M180.252 63.839l-4.193 15.539h1.247l4.193-15.54h-1.247zM183.296 63.839l-4.193 15.539h2.103l4.187-15.54h-2.097z"/></g><path fill-rule="evenodd" clip-rule="evenodd" d="M174.769 90.473h11.584c.36 0 .654.293.654.654v16.321a.655.655 0 0 1-.654.654h-11.584a.654.654 0 0 1-.654-.654V91.127c0-.36.293-.654.654-.654z" fill="#9AC0E2"/><path fill-rule="evenodd" clip-rule="evenodd" d="M175.105 91.518h10.905v15.539h-10.905v-15.54z" fill="#D6ECFF"/><g opacity=".7" fill="#fff"><path opacity=".7" d="M180.252 91.518l-4.193 15.539h1.247l4.193-15.54h-1.247zM183.296 91.518l-4.193 15.539h2.103l4.187-15.54h-2.097z"/></g><path fill-rule="evenodd" clip-rule="evenodd" d="M191.622 13.805h84.218v105.979h-84.218V13.804z" fill="#EBF6FF"/><path fill-rule="evenodd" clip-rule="evenodd" d="M191.622 13.805h84.218v29.867h-84.218V13.805z" fill="#EBF6FF"/><path fill-rule="evenodd" clip-rule="evenodd" d="M188.578 13.805h90.312c.648 0 1.186-.532 1.186-1.186v-2.512c0-.654-.532-1.186-1.186-1.186h-90.312c-.648 0-1.186.532-1.186 1.186v2.518c0 .648.532 1.18 1.186 1.18zM192.698 124.595h82.066c.593 0 1.076-.531 1.076-1.186v-2.518c0-.654-.483-1.186-1.076-1.186h-82.066c-.593 0-1.076.532-1.076 1.186v2.518c0 .655.483 1.186 1.076 1.186z" fill="#D6ECFF"/><path fill-rule="evenodd" clip-rule="evenodd" d="M191.622 13.805h84.218v5.19h-84.218v-5.19z" fill="#EBF6FF"/><path fill-rule="evenodd" clip-rule="evenodd" d="M198.438 62.794h11.584c.36 0 .654.293.654.654v16.321c0 .361-.294.655-.654.655h-11.584a.655.655 0 0 1-.654-.655V63.448c0-.36.293-.654.654-.654z" fill="#9AC0E2"/><path fill-rule="evenodd" clip-rule="evenodd" d="M198.78 63.839h10.906v15.539H198.78v-15.54z" fill="#D6ECFF"/><g opacity=".7" fill="#fff"><path opacity=".7" d="M203.921 63.839l-4.187 15.539h1.247l4.187-15.54h-1.247zM206.965 63.839l-4.193 15.539h2.103l4.193-15.54h-2.103z"/></g><path fill-rule="evenodd" clip-rule="evenodd" d="M217.859 62.794h11.584c.36 0 .654.293.654.654v16.321c0 .361-.294.655-.654.655h-11.584a.655.655 0 0 1-.654-.655V63.448c0-.36.293-.654.654-.654z" fill="#9AC0E2"/><path fill-rule="evenodd" clip-rule="evenodd" d="M218.201 63.839h10.906v15.539h-10.906v-15.54z" fill="#D6ECFF"/><g opacity=".7" fill="#fff"><path opacity=".7" d="M223.342 63.839l-4.194 15.539h1.247l4.194-15.54h-1.247zM226.386 63.839l-4.193 15.539h2.103l4.187-15.54h-2.097z"/></g><path fill-rule="evenodd" clip-rule="evenodd" d="M237.31 62.794h11.584c.36 0 .654.293.654.654v16.321c0 .361-.294.655-.654.655H237.31a.655.655 0 0 1-.654-.655V63.448c0-.36.293-.654.654-.654z" fill="#9AC0E2"/><path fill-rule="evenodd" clip-rule="evenodd" d="M237.652 63.839h10.906v15.539h-10.906v-15.54z" fill="#D6ECFF"/><g opacity=".7" fill="#fff"><path opacity=".7" d="M242.793 63.839L238.6 79.378h1.247l4.193-15.54h-1.247zM245.837 63.839l-4.193 15.539h2.103l4.187-15.54h-2.097z"/></g><path fill-rule="evenodd" clip-rule="evenodd" d="M256.694 62.794h11.584c.361 0 .654.293.654.654v16.321c0 .361-.293.655-.654.655h-11.584a.655.655 0 0 1-.654-.655V63.448c0-.36.293-.654.654-.654z" fill="#9AC0E2"/><path fill-rule="evenodd" clip-rule="evenodd" d="M257.037 63.839h10.905v15.539h-10.905v-15.54z" fill="#D6ECFF"/><g opacity=".7" fill="#fff"><path opacity=".7" d="M262.177 63.839l-4.193 15.539h1.247l4.193-15.54h-1.247zM265.222 63.839l-4.194 15.539h2.103l4.187-15.54h-2.096z"/></g><path fill-rule="evenodd" clip-rule="evenodd" d="M198.438 22.523h11.584c.36 0 .654.293.654.654v16.321c0 .36-.294.654-.654.654h-11.584a.655.655 0 0 1-.654-.654V23.177c0-.361.293-.654.654-.654z" fill="#9AC0E2"/><path fill-rule="evenodd" clip-rule="evenodd" d="M198.78 23.567h10.906v15.54H198.78v-15.54z" fill="#D6ECFF"/><g opacity=".7" fill="#fff"><path opacity=".7" d="M203.921 23.567l-4.187 15.54h1.247l4.187-15.54h-1.247zM206.965 23.567l-4.193 15.54h2.103l4.193-15.54h-2.103z"/></g><path fill-rule="evenodd" clip-rule="evenodd" d="M217.859 22.523h11.584c.36 0 .654.293.654.654v16.321c0 .36-.294.654-.654.654h-11.584a.655.655 0 0 1-.654-.654V23.177c0-.361.293-.654.654-.654z" fill="#9AC0E2"/><path fill-rule="evenodd" clip-rule="evenodd" d="M218.201 23.567h10.906v15.54h-10.906v-15.54z" fill="#D6ECFF"/><g opacity=".7" fill="#fff"><path opacity=".7" d="M223.342 23.567l-4.194 15.54h1.247l4.194-15.54h-1.247zM226.386 23.567l-4.193 15.54h2.103l4.187-15.54h-2.097z"/></g><path fill-rule="evenodd" clip-rule="evenodd" d="M237.31 22.523h11.584c.36 0 .654.293.654.654v16.321c0 .36-.294.654-.654.654H237.31a.655.655 0 0 1-.654-.654V23.177c0-.361.293-.654.654-.654z" fill="#9AC0E2"/><path fill-rule="evenodd" clip-rule="evenodd" d="M237.652 23.567h10.906v15.54h-10.906v-15.54z" fill="#D6ECFF"/><g opacity=".7" fill="#fff"><path opacity=".7" d="M242.793 23.567l-4.193 15.54h1.247l4.193-15.54h-1.247zM245.837 23.567l-4.193 15.54h2.103l4.187-15.54h-2.097z"/></g><path fill-rule="evenodd" clip-rule="evenodd" d="M256.694 22.523h11.584c.361 0 .654.293.654.654v16.321c0 .36-.293.654-.654.654h-11.584a.655.655 0 0 1-.654-.654V23.177c0-.361.293-.654.654-.654z" fill="#9AC0E2"/><path fill-rule="evenodd" clip-rule="evenodd" d="M257.037 23.567h10.905v15.54h-10.905v-15.54z" fill="#D6ECFF"/><g opacity=".7" fill="#fff"><path opacity=".7" d="M262.177 23.567l-4.193 15.54h1.247l4.193-15.54h-1.247zM265.222 23.567l-4.194 15.54h2.103l4.187-15.54h-2.096z"/></g><path fill-rule="evenodd" clip-rule="evenodd" d="M208.39 85.559h50.688v1.21H208.39v-1.21z" fill="#9AC0E2"/><path fill-rule="evenodd" clip-rule="evenodd" d="M208.39 119.784h50.688V86.769H208.39v33.015z" fill="#D6ECFF"/><path fill-rule="evenodd" clip-rule="evenodd" d="M233.067 119.784h1.333V86.769h-1.333v33.015z" fill="#9AC0E2"/><path opacity=".7" d="M221.753 86.769l-8.656 33.015h2.573l8.662-33.015h-2.579zM228.037 86.769l-8.656 33.015h4.34l8.656-33.015h-4.34zM243.759 86.769l-8.662 33.015h2.579l8.656-33.015h-2.573zM250.043 86.769l-8.662 33.015h4.34l8.662-33.015h-4.34z" fill="#fff"/><path fill-rule="evenodd" clip-rule="evenodd" d="M233.734 41.809a9.368 9.368 0 0 1 9.371 9.37c0 5.172-4.193 9.372-9.371 9.372a9.368 9.368 0 0 1-9.371-9.371c0-5.172 4.193-9.371 9.371-9.371z" fill="#9AC0E2"/><path fill-rule="evenodd" clip-rule="evenodd" d="M232.224 44.877h3.02c.238 0 .434.196.434.434v3.93h3.93c.239 0 .434.196.434.435v3.02a.435.435 0 0 1-.434.433h-3.93v3.931a.436.436 0 0 1-.434.434h-3.02a.436.436 0 0 1-.434-.434v-3.93h-3.931a.436.436 0 0 1-.434-.435v-3.02c0-.238.196-.433.434-.433h3.931V45.31c0-.238.196-.434.434-.434z" fill="#fff"/><path fill-rule="evenodd" clip-rule="evenodd" d="M208.39 118.574h50.688v1.211H208.39v-1.211z" fill="#9AC0E2"/><path d="M69.064 71.56a3.415 3.415 0 0 0-6.742-.777 8.406 8.406 0 0 0-3.197-4.958 4.133 4.133 0 0 0 .978-7.036c.262-.532.415-1.13.415-1.76a3.993 3.993 0 0 0-5.153-3.82 3.754 3.754 0 0 0-1.119-.172 3.702 3.702 0 0 0-3.563 4.707 5.51 5.51 0 0 0-1.284-.153 5.695 5.695 0 0 0-5.697 5.697c0 1.125.33 2.164.892 3.05a4.396 4.396 0 0 0-4.291.954 2.99 2.99 0 1 0-1.302 5.679c.19 0 .373-.018.55-.055a4.41 4.41 0 0 0 3.723 2.048 4.4 4.4 0 0 0 2.573-.831c.068.354.16.703.276 1.045a3.964 3.964 0 0 0-1.284 2.922v.006c-.05 0-.092-.006-.14-.006a6.692 6.692 0 0 0-3.259 12.538 3.703 3.703 0 0 0 2.457 3.772 4.99 4.99 0 0 0 2.39 3.013c.056.666.263 1.29.581 1.834a3.564 3.564 0 0 0-4.31 3.484c0 .935.361 1.779.948 2.415a.648.648 0 0 1 .11-.031c1.92-.416 3.845-.782 5.79-1.015a3.498 3.498 0 0 0-.056-2.848c.416.128.862.202 1.327.202a4.412 4.412 0 0 0 4.413-4.414 4.398 4.398 0 0 0-1.48-3.289c.031-.226.056-.458.056-.697 0-.574-.104-1.13-.281-1.644a5.819 5.819 0 0 0 3.557 1.216 5.844 5.844 0 0 0 5.844-5.843 5.81 5.81 0 0 0-.923-3.143 6.267 6.267 0 0 0 4.915-6.119 6.25 6.25 0 0 0-.575-2.616 3.39 3.39 0 0 0 2.861-3.356zM45.132 55.892c2.2 0 3.992-1.785 3.992-3.991 0-.294-.037-.581-.098-.862.03 0 .061.006.098.006a2.851 2.851 0 0 0 2.848-2.849 2.851 2.851 0 0 0-2.848-2.848 2.848 2.848 0 0 0-2.843 2.732 3.919 3.919 0 0 0-1.143-.171 3.993 3.993 0 0 0-3.991 3.992 3.98 3.98 0 0 0 3.985 3.991zM59.094 48.483c.71 0 1.333-.33 1.755-.837a3.844 3.844 0 1 0 7.36 1.553 3.848 3.848 0 0 0-2.183-3.466c.3-.538.471-1.15.471-1.81a3.702 3.702 0 0 0-3.704-3.704 3.702 3.702 0 0 0-3.705 3.704 2.28 2.28 0 0 0-2.28 2.28 2.29 2.29 0 0 0 2.286 2.28zM72.91 61.59c-.16 0-.319.018-.471.049a3 3 0 0 0 .042-.471 2.99 2.99 0 1 0-2.989 2.99c.349 0 .685-.062.996-.178v.03a2.418 2.418 0 0 0 2.421 2.421 2.418 2.418 0 0 0 2.421-2.42 2.418 2.418 0 0 0-2.42-2.421z" fill="#D6ECFF"/><path opacity=".5" d="M39.609 120.061c0-1.157 14.226-2.098 31.776-2.098 17.551 0 31.777.941 31.777 2.098s-14.226 2.099-31.777 2.099c-17.544 0-31.776-.942-31.776-2.099z" fill="#C3E1FF"/><path d="M53.342 105.909l1.333-8.015h-.22l-1.315 7.972.202.043z" fill="#006399"/><path d="M53.42 105.927l.826-4.958-.367-.085-.819 4.963.36.08zM57.462 101.617h-.685v1.235h.684v-1.235zM56.013 100.853c-1.76-3.453-4.291-5.568-6.168-6.944-2.03-1.491-3.307-2.072-3.325-2.078l-.19-.605c.067.03 1.693.77 3.766 2.292 1.913 1.406 4.633 3.82 6.437 7.36l-.52-.025z" fill="#006399"/><path d="M56.954 101.739c-2.06-4.101-5.068-6.663-7.36-8.344-2.482-1.821-4.059-2.549-4.077-2.555l-.501-.642c.085.037 2.378.887 4.908 2.745 2.342 1.712 5.57 4.64 7.678 8.839l-.648-.043z" fill="#14AFEB"/><path d="M59.32 103.476h5.508l6.076-.288 4.42-.262.709-4.004.544-3.057h-3.02l-4.035.642-2.47 1.07-3.031 1.76-3.075 2.232-1.626 1.907zM77.61 95.883l-1.033 6.846 3.3-.049 3.785-.14 3.02-.257 2.982-.361 1.003-.391v-1.724l-.459-1.999-.83-1.79-3.999-.135H77.61z" fill="#192D4B"/><path d="M62.756 100.333v3.35h-3.62l.184-1.003 3.436-2.347z" fill="#04242B"/><path d="M74.04 111.459a46.489 46.489 0 0 0-.202 1.498l-8.723.281-.226-1.779h9.15z" fill="#0A2024"/><path d="M76.216 96.018s-1.223 4.738-1.65 6.663l2.842-.153s.397-5.135.58-6.663l-1.772.153z" fill="#14AFEB"/><path d="M87.427 96.018l1.449 3.025v2.88l4.634-1.015v-.948l-2.354-3.588-3.729-.354z" fill="#192D4B"/><path d="M43.86 115.848l1.791.807 12.587-.159.898-.366v-1.425l-.244-1.571-.917-2.054-1.528-1.772-1.895-1.192-2.55-.337-2.823.428-2.018 1.101-1.436 2.536-.856 1.95-1.009 2.054zM84.86 115.328l1.455.862 12.819-.348.666-.593.305-1.088-.458-1.59-.611-1.35-.917-1.217-1.314-1.161-2.22-.795-1.65-.52-1.632.245-1.877.397-1.485 1.039s-1.529 1.315-1.62 1.376c-.092.061-.886 1.773-.886 1.773l-.575 2.97z" fill="#004687"/><path d="M103.333 106.948c-.012-.074-.012-.111-.012-.111-.948-.825-1.009-1.925-1.009-1.925.012-.043.024-.092.037-.135.244-.904.14-1.589.043-1.931-.043-.165-.086-.251-.086-.251-.018-.024-.037-.043-.049-.067 0 0 0-.006-.006-.006a25.34 25.34 0 0 0-1.003-1.223c-.415-.483-.874-.99-1.32-1.485-.238-.263-.477-.52-.703-.764-.947-1.021-1.718-1.804-1.718-1.804h.006c.141-.036.263-.067.367-.104 1.89-.574-.648-.874-.648-.874a61.886 61.886 0 0 0-3.001-.348c-1.174-.11-2.348-.202-3.136-.25-3.68-.209-7.189-.3-10.02-.337-3.82-.049-7.69.11-9.59.391a17.366 17.366 0 0 0-3.032.721c-.312.11-.587.215-.826.312-.69.288-1.039.514-1.039.514a67.588 67.588 0 0 0-3.612 2.097c-1.816 1.118-3.204 2.06-3.204 2.06-.25.171-.525.311-.807.44-.813.366-1.687.568-2.298.672-.055.012-.104.018-.153.025-.397.061-.648.085-.648.085-5.043.703-8.588 1.345-8.588 1.345-.343.067-.673.141-.985.214-3.79.892-5.611 2.17-5.611 2.17a.98.98 0 0 0-.104.196c-.226.55-.08 1.393-.08 1.393l-1.143 1.743-.018.03a3.5 3.5 0 0 0-.129.367c-.385 1.339-.207 3.301-.207 3.301.006.116.018.232.03.336.22 1.608 1.406 1.987 1.406 1.987 2.69.764 4.616.929 4.616.929s.207 0 .599-.006a6.594 6.594 0 0 1-.239-1.748c0-1.81.734-3.442 1.926-4.622a6.508 6.508 0 0 1 9.163-.006 6.493 6.493 0 0 1 1.718 6.278l1.92-.018h.097c4.805-.043 10.227-.092 15.466-.147h.091c3.705-.043 7.311-.086 10.539-.128a6.514 6.514 0 0 1 5.165-7.758l.104-.018a6.534 6.534 0 0 1 1.1-.092c1.144 0 2.22.294 3.155.813a6.51 6.51 0 0 1 3.27 6.694c1.797-.312 2.629-1.406 2.629-1.406 1.314-1.314 1.559-2.995 1.559-2.995.293-2.018.079-4.065.018-4.554zm-10.808-6.425s-.513.134-1.24.312c-.031.006-.062.018-.098.024-1.156.281-2.788.66-3.686.77 0 0-.257.037-.68.092h-.005c-.483.061-1.18.141-1.95.202 0 0-5.08.293-8.711.495-.03 0-.061.006-.092.006-1.51.086-2.75.153-3.252.171 0 0-10.166.52-12.158.593 0 0-.324.018-.502-.024-.036-.013-.067-.019-.085-.037-.037-.025-.037-.061.006-.11 0 0 .25-.232.709-.617a45.923 45.923 0 0 1 4.285-3.222c.129-.086.257-.171.385-.25 0 0 1.749-1.26 3.943-1.908 1.504-.446 3.478-.672 6.033-.752 0 0 5.044-.14 10.478.11.636.03 1.272.061 1.913.104.801.05 2.666.147 3.197.38.257.11.416.293.722.837 0 0 .312.556.63 1.13.14.257.287.514.403.722.049.092.098.171.134.244.013-.006.343.526-.379.728z" fill="#14AFEB"/><path d="M67.933 96.843c-3.918 1.834-8.179 5.061-8.179 5.061a2.19 2.19 0 0 1-.782-.043c.28-.128.556-.269.807-.44 0 0 3.606-2.445 6.815-4.157 0 0 .349-.226 1.04-.513.275.049.3.092.3.092z" fill="#192D4B"/><path d="M45.413 114.907c0 .605.086 1.192.239 1.748-.392 0-.6.006-.6.006s-1.925-.165-4.615-.929c0 0-1.18-.373-1.406-1.987a5.157 5.157 0 0 1-.03-.336s-.178-1.962.208-3.301c.024-.079.048-.153.073-.226.018-.049.037-.092.055-.14l.018-.031c2.531.348 5.208.538 7.984.581a6.47 6.47 0 0 0-1.926 4.615z" fill="#0082C8"/><path d="M101.255 101.293a5.455 5.455 0 0 1-1.345-.006 3.594 3.594 0 0 1-.544-.11c-1.186-.318-1.681-1.021-1.681-1.021-.404-.471-2.042-3.002-2.042-3.002.312.019.55.03.74.043.208.012.354.018.477.025.262.012.39.012.66.018h-.006s2.17 2.231 3.741 4.053z" fill="#192D4B"/><path d="M86.192 114.906c0 .465.05.917.14 1.357-3.22.049-6.833.092-10.538.129h-.091c-5.24.055-10.661.11-15.466.146h-.098l-1.92.019a6.493 6.493 0 0 0-1.718-6.278c4.482-.08 25.901-.489 32.888-.978a6.5 6.5 0 0 0-3.197 5.605zM103.315 111.507s-.245 1.682-1.559 2.996c0 0-.831 1.1-2.629 1.406a6.495 6.495 0 0 0-3.27-6.694c1.62-.367 4.768-.703 7.476-2.268.061.489.275 2.537-.018 4.56z" fill="#0082C8"/><path d="M102.312 104.906c-.501.183-1.058.324-1.058.324-1.192.25-1.247.183-1.467-.117-.483-.66-.917-1.51-.917-1.51-.336-.739.086-.965.343-1.075 1.008-.441 2.365-.184 3.044-.006.018.024.037.048.049.067.006 0 .428.911.006 2.317z" fill="#C20909"/><path d="M40.859 113.244v.048c-.025.404-.116.502-.336.526-.538.061-1.168.067-1.217.061a5.222 5.222 0 0 1-.03-.336s-.178-1.87.207-3.209c.655-.067 1.034-.067 1.1.214.031.128.062.25.08.385.061.318.098.654.135 1.057v.013c.018.195.03.409.042.641.019.227.025.428.019.6z" fill="#006399"/><path d="M64.828 101.757a3.49 3.49 0 0 1-.16.63 2.897 2.897 0 0 1-.073.183c-.085.184-.177.306-.275.337-.434.128-2.353.483-2.732-.068a.533.533 0 0 1-.03-.048c-.3-.551.427-1.339 1.203-1.871.795-.556 1.266-.611 1.767-.471.147.043.245.184.293.379.068.251.062.593.007.929z" fill="#14AFEB"/><path d="M48.384 104.747a.537.537 0 0 1-.14.159c-.263.195-.624.379-1.027.556-.245.11-.496.214-.746.318-.575.238-1.131.471-1.473.715-.007.006-.013.006-.013.012a.464.464 0 0 0-.14.569c.006.018.018.036.024.049.245.391-.098.44-.098.44-1.467.226-1.693.214-1.693.214-1.418.098-2.133-.122-2.133-.122a1.34 1.34 0 0 1-.068-.318c-.03-.434.11-.893.11-.893 1.694-1.021 5.086-1.699 6.853-1.889.556-.061.611.074.544.19z" fill="#F2F2F2"/><path d="M102.349 104.772c-.227.067-.41.116-.41.116-.874.183-.911.134-1.07-.086-.354-.483-.672-1.106-.672-1.106-.245-.544.061-.703.25-.789.618-.269 1.406-.183 1.944-.073.098.348.202 1.033-.042 1.938z" fill="#D11212"/><path d="M57.45 114.986a5.59 5.59 0 1 1-11.181.091 5.59 5.59 0 0 1 11.18-.091z" fill="#192D4B"/><path d="M55.793 114.998a3.93 3.93 0 0 1-.917 2.561c-.3.355-.66.661-1.063.893a3.905 3.905 0 0 1-1.914.513 3.933 3.933 0 0 1-1.907-.47 4.06 4.06 0 0 1-1.088-.868 3.906 3.906 0 0 1-.899-3.338 3.82 3.82 0 0 1 .49-1.271 3.914 3.914 0 0 1 2.646-1.84 3.71 3.71 0 0 1 .691-.068 3.948 3.948 0 0 1 3.393 1.877c.232.379.403.801.495 1.253.043.239.073.495.073.758z" fill="#0082C8"/><path d="M51.863 116.306a1.277 1.277 0 1 0 0-2.555 1.277 1.277 0 0 0 0 2.555zM98.314 114.986a5.59 5.59 0 1 1-11.18.091 5.59 5.59 0 0 1 11.18-.091z" fill="#192D4B"/><path d="M96.663 114.998a3.929 3.929 0 0 1-.916 2.561c-.3.355-.66.661-1.064.893a3.906 3.906 0 0 1-1.914.513 3.933 3.933 0 0 1-1.907-.47 4.06 4.06 0 0 1-1.088-.868 3.906 3.906 0 0 1-.898-3.338 3.82 3.82 0 0 1 .489-1.271 3.914 3.914 0 0 1 2.647-1.84 3.71 3.71 0 0 1 .69-.068 3.948 3.948 0 0 1 3.393 1.877c.232.379.403.801.495 1.253.043.239.067.495.073.758z" fill="#0082C8"/><path d="M92.727 116.306a1.277 1.277 0 1 0 0-2.555 1.277 1.277 0 0 0 0 2.555z" fill="#192D4B"/><path d="M262.079 4h-58.622v12.703h58.622V4z" fill="#9AC0E2"/><path d="M214.276 7.559v6.058h-1.662v-2.372h-2.03v2.372h-1.663V7.559h1.663v2.237h2.03V7.559h1.662zM218.904 13.665c-.459 0-.88-.086-1.253-.263a3.177 3.177 0 0 1-.966-.697 3.136 3.136 0 0 1-.844-2.127c0-.398.08-.783.233-1.15.152-.366.366-.696.641-.978a3.107 3.107 0 0 1 2.226-.923c.458 0 .88.086 1.253.263.373.177.697.41.966.697s.47.617.617.99c.147.373.22.746.22 1.137a3.064 3.064 0 0 1-.874 2.121 3.183 3.183 0 0 1-.978.68c-.379.164-.795.25-1.241.25zm-1.376-3.069c0 .208.031.403.086.593.055.19.141.36.257.507.116.147.257.27.428.361.171.092.379.134.617.134.239 0 .446-.048.624-.14.177-.092.317-.214.428-.367.11-.153.195-.324.244-.513a2.155 2.155 0 0 0-.006-1.18 1.406 1.406 0 0 0-.263-.501 1.273 1.273 0 0 0-.434-.349 1.364 1.364 0 0 0-.611-.134 1.3 1.3 0 0 0-.618.134 1.385 1.385 0 0 0-.434.36 1.547 1.547 0 0 0-.25.514 2.549 2.549 0 0 0-.068.581zM227.224 9.532a4.473 4.473 0 0 0-.532-.275 4.12 4.12 0 0 0-.514-.19 1.823 1.823 0 0 0-.556-.091.816.816 0 0 0-.355.067c-.085.043-.134.122-.134.232 0 .08.024.147.079.196a.73.73 0 0 0 .22.14c.098.043.214.086.355.123.141.042.3.085.471.146.281.086.532.178.758.282.226.103.415.226.574.36.159.14.282.306.367.508.086.201.128.44.128.727 0 .367-.067.673-.201.917a1.669 1.669 0 0 1-.532.593c-.22.147-.465.257-.74.318a3.51 3.51 0 0 1-.831.098c-.22 0-.452-.019-.685-.05a5.71 5.71 0 0 1-.697-.146 5.677 5.677 0 0 1-.666-.22 4.901 4.901 0 0 1-.593-.287l.715-1.461c.202.122.41.238.624.33.183.085.391.165.617.232.233.067.465.104.703.104.184 0 .306-.024.379-.073a.21.21 0 0 0 .104-.19.288.288 0 0 0-.104-.22 1.085 1.085 0 0 0-.293-.159 6.03 6.03 0 0 0-.428-.134 5.044 5.044 0 0 1-.514-.165 4.641 4.641 0 0 1-.69-.294 1.735 1.735 0 0 1-.477-.36 1.263 1.263 0 0 1-.275-.459 1.742 1.742 0 0 1-.092-.587c0-.336.061-.63.183-.886.123-.257.288-.47.502-.642.208-.171.452-.3.721-.391.269-.086.556-.135.856-.135.22 0 .44.019.648.061a5.677 5.677 0 0 1 1.161.379c.171.08.324.147.459.22l-.715 1.382zM229.675 13.616V7.558h2.61c.293 0 .569.06.819.183.251.122.465.281.642.477.177.195.318.422.422.672.104.25.153.508.153.764a2.252 2.252 0 0 1-.551 1.455 1.936 1.936 0 0 1-.629.47c-.245.117-.52.178-.813.178h-.99v1.859h-1.663zm1.663-3.314h.88c.104 0 .195-.049.287-.14.086-.092.135-.263.135-.508 0-.25-.049-.421-.153-.513a.468.468 0 0 0-.306-.135h-.837v1.296h-.006zM235.843 13.616V7.558h1.662v6.058h-1.662zM244.12 9.006h-1.743v4.61h-1.662v-4.61h-1.749V7.558h5.154v1.448zM247.151 7.558h1.516l2.097 6.058h-1.687l-.367-1.186h-1.614l-.36 1.186h-1.7l2.115-6.058zm1.296 3.76l-.538-1.878-.562 1.877h1.1zM252.121 13.616V7.558h1.663v4.609h2.751v1.449h-4.414z" fill="#fff"/></g><g clip-path="url(#clip1)"><path opacity=".5" d="M193.096 129.361c0 1.655-22.148 2.998-49.463 2.998-27.316 0-49.464-1.343-49.464-2.998 0-1.655 22.148-2.998 49.464-2.998 27.315-.006 49.463 1.343 49.463 2.998z" fill="#C3E1FF"/><path d="M160.762 70.7c-.198-.018-.402.15-.468.293 0 0-.563 1.098-.719 1.062-.144-.036-.24-.516-.24-.516-.06-.378-.348-1.187-.348-1.187l-.305-2.416a.3.3 0 0 0-.366-.21c-.156.042-.258.246-.216.407l.204 2.207s.006.066-.06.084c-.036.012-.09.024-.12-.042l-.672-2.542c-.041-.156-.203-.264-.359-.216a.293.293 0 0 0-.21.36l.647 2.638c.024.078-.066.15-.114.072l-.995-2.237a.278.278 0 0 0-.342-.198.278.278 0 0 0-.197.342l.965 2.524c.036.114-.06.15-.09.078l-1.037-1.66c-.102-.139-.228-.246-.36-.169-.132.079-.15.18-.09.33l.995 1.985c.396 2.278 1.241 2.956 1.241 2.956 1.511 1.139 1.961-.618 1.961-.618s.438-.444.713-1.163c.108-.288.396-1.145.624-1.643.078-.174.18-.33.18-.33.054-.102-.042-.174-.222-.192z" fill="#FAA284"/><path d="M156.553 71.605s.768-.911 2.332-1.097c0 0-1.313.27-2.332 1.097z" fill="#EF8D72"/><path d="M180.314 122.304h-2.207v5.564h2.207v-5.564z" fill="#C6C6C6"/><path d="M177.508 129.324s.132-1.888.414-2.812c0 0 .893.054 1.145-.27.257-.317 1.762-1.696 2.458-.006l.497.942s2.357-.726 1.607 2.146h-6.121z" fill="#8E6942"/><path d="M183.635 129.324h-6.127s.024-.384.072-.767h6.187a4.472 4.472 0 0 1-.132.767z" fill="#D3D3D3"/><path d="M171.548 122.405h-2.206v5.564h2.206v-5.564z" fill="#C6C6C6"/><path d="M168.694 125.691s-1.223 1.085-3.321 1.793c0 0-3.784-1.199-2.782 1.804h9.844s.33-2.14-.317-3.579c0 0-.246-.108-.594.222-.354.33-1.523.522-2.11.336-.006.006-.336-.684-.72-.576z" fill="#8E6942"/><path d="M172.501 128.587c-.024.444-.071.707-.071.707h-9.845a2.987 2.987 0 0 1-.162-.707h10.078z" fill="#D3D3D3"/><path d="M174.288 92.913c.006-.054.018-.108.018-.162a3.105 3.105 0 0 0-6.193-.438h-.018l.132 17.424v.018a2.583 2.583 0 1 0 5.156.311 1.523 1.523 0 0 0 0-.234l.905-16.92z" fill="#492E17"/><path d="M168.173 124.132a.351.351 0 0 1-.012-.078c0-.018.006-.036.012-.06l.072-13.843c-.012-.132-.018-.264-.012-.396a2.586 2.586 0 0 1 2.734-2.422 2.586 2.586 0 0 1 2.422 2.734v.006l-.588 14.137h-.042v.042c-.018.408-1.061.696-2.332.642-1.127-.048-2.051-.348-2.236-.702h-.024l.006-.06zM181.597 93.159c.006-.054.012-.108.012-.162a3.103 3.103 0 0 0-3.028-3.178 3.097 3.097 0 0 0-3.172 3.01h-.018l.887 17.405v.018a2.58 2.58 0 0 0 2.537 2.626 2.58 2.58 0 0 0 2.626-2.536c0-.078 0-.156-.006-.234l.162-16.95z" fill="#492E17"/><path d="M176.284 110.252a2.58 2.58 0 0 1 2.626-2.536 2.58 2.58 0 0 1 2.536 2.626v.006l.036 13.736h-.042c0 .012.006.03.006.042 0 .414-1.031.744-2.302.744-1.127 0-2.062-.264-2.26-.606h-.024v-.06a.351.351 0 0 1-.012-.078c0-.018.006-.036.006-.06l-.546-13.424a2.097 2.097 0 0 1-.024-.39zM168.161 90.467s-1.247 6.535 5.672 6.002h1.978c2.302 0 3.999-.216 4.773-1.188 1.6-1.516.905-4.856.905-4.856-.126-.51-.03-.755 0-1.043l-13.268.03c.042.294.03.491-.06 1.055z" fill="#492E17"/><path opacity=".15" d="M181.627 91.6c-.036-.69-.138-1.175-.138-1.175-.126-.51-.03-.755 0-1.043l-13.268.03c.042.3.03.491-.06 1.061 0 0-.108.57-.084 1.355 2.32.348 8.573 1.097 13.55-.228z" fill="#000"/><path d="M184.061 84.148c-.234-.39-.486-.984-.792-1.919l-.125-.39c-1.038-3.207-2.129-6.565-2.171-7.842v-.054-.09a1.944 1.944 0 0 1 1.589-1.888 1.961 1.961 0 0 1 2.08.97c.024.025.048.043.078.073 1.158 3.98 3.4 10.204 1.739 11.547l-.006.006c-.018.012-.03.03-.048.042l-.048.042a1.261 1.261 0 0 1-.198.132c-.084.048-.168.102-.257.114-.018 0-.03.006-.048.006a1.43 1.43 0 0 1-.282.03h-.114c-.042 0-.084 0-.126-.006-.018 0-.036 0-.054-.006-.018 0-.036 0-.054-.006a1.82 1.82 0 0 1-.468-.102.999.999 0 0 1-.359-.234 1.324 1.324 0 0 1-.336-.425z" fill="#73BC55"/><path d="M188 92.188c-.815.018-1.001.84-1.001.84s-.792 1.09-.78 1.564c.012.612-.347 1.487-.347 1.487s.665.39.929-.671c0 0 .126 1.229.492 1.259 0 0 .203.018.419-.114 0 0 .36.347.72-.048 0 0 .437.192.635-.162 0 0 .282.204.474-.192.198-.408.21-.438.318-1.241 0 0-.09-1.63-.756-2.194-.006.006-.288-.546-1.103-.528z" fill="#F7A184"/><path d="M183.851 83.518c0-.461.21-.899.563-1.187.084-.072.15-.114.162-.126l.03-.012c.066-.036.132-.072.204-.102.042-.017.138-.053.294-.084.012 0 .024 0 .03-.006.312-.06.587 0 .809.096.204.084.384.204.534.36.048.042.078.078.096.096.012.024.03.048.042.072.078.108.138.228.186.354 1.307 2.764 2.41 8.394 2.32 9.605-.474.174-2.194.521-2.428.575-.552-.905-1.409-2.902-2.297-6.745a60.609 60.609 0 0 0-.443-1.828 3.017 3.017 0 0 1-.102-1.068z" fill="#73BC55"/><path d="M189.121 92.602c-.474.174-2.194.522-2.428.576a6.765 6.765 0 0 1-.366-.684l2.77-.641c.024.317.036.575.024.749z" fill="#E5E5E5"/><path d="M162.225 82.145c.072-.45.27-1.06.648-1.972l.155-.378c1.296-3.112 2.657-6.367 3.454-7.368.012-.018.024-.03.036-.042a.645.645 0 0 1 .06-.066 1.958 1.958 0 0 1 1.523-.666c.318.012.635.096.911.258a1.967 1.967 0 0 1 .947 2.093c.006.035.012.066.012.101-1.714 3.778-4.059 9.965-6.199 9.9h-.138a1 1 0 0 1-.234-.03c-.096-.019-.192-.03-.276-.085-.012-.006-.024-.018-.036-.024a1.439 1.439 0 0 1-.227-.162c-.018-.012-.036-.03-.048-.042-.012-.012-.024-.024-.036-.03-.03-.03-.066-.053-.096-.084l-.036-.035-.036-.037a1.834 1.834 0 0 1-.288-.383 1.084 1.084 0 0 1-.126-.408 1.654 1.654 0 0 1 .03-.54z" fill="#5CA33B"/><path d="M165.199 82.103c.126.444.042.924-.216 1.296-.06.095-.114.15-.12.161l-.03.018c-.054.054-.108.108-.168.156-.036.03-.12.09-.258.162-.012.006-.018.006-.03.012a1.37 1.37 0 0 1-.803.132 1.574 1.574 0 0 1-.612-.204c-.053-.03-.095-.054-.119-.066l-.06-.06a1.571 1.571 0 0 1-.276-.287c-2.009-2.303-4.617-7.417-4.857-8.61.408-.3 1.967-1.097 2.183-1.217.779.72 2.146 2.41 4.047 5.857.378.684.677 1.206.923 1.637.228.378.342.72.396 1.013z" fill="#5CA33B"/><path d="M157.656 74.807c.407-.3 1.966-1.097 2.182-1.217.156.144.336.33.54.557l-2.488 1.38c-.12-.306-.204-.552-.234-.72z" fill="#E5E5E5"/><path d="M176.332 68.943h-3.825l-.042.432 1.511 1.973.72-.078 1.589-1.733.047-.594z" fill="#B7B6B6"/><path d="M181.543 80.556c.143-1.99 1.57-4.904 2.266-6.793.665-1.798-1.379-2.23-1.379-2.23-2.021-1.277-5.738-1.277-5.738-1.277l-4.299.108s-2.29.102-4.952 1.343c0 0 .084 2.17.108 4.077.012 1.157.983 7.734.953 9.359.114 1.145-.018 4.077-.144 5.882 0 .024.012.047.03.066.138.341 3.052.611 6.631.611 3.538 0 6.643-.264 6.835-.6h.012v-.035c.018-1.128-.575-4.06-.539-5.15.072-1.787.09-3.58.216-5.36z" fill="#E0E0E0"/><path d="M181.543 80.556c.143-1.99 1.57-4.904 2.266-6.793.665-1.798-1.379-2.23-1.379-2.23-.917-.582-2.189-.893-3.298-1.067-1.253 1.81-2.356 2.83-4.952 2.83-2.134 0-3.238-1.907-3.567-2.656-.87.192-1.985.515-3.172 1.073 0 0 .084 2.17.108 4.077.012 1.157.983 7.734.953 9.359.114 1.145-.018 4.077-.144 5.882 0 .024.012.048.03.066.138.341 3.052.611 6.631.611 3.538 0 6.643-.264 6.835-.6h.012v-.035c.018-1.127-.575-4.06-.539-5.15.072-1.793.09-3.586.216-5.367z" fill="#5CA33B"/><path d="M181.945 80.557c.12-1.685.761-4.023 1.498-5.846a1.562 1.562 0 0 0 1.188-1.51c0-.864-1.17-1.44-1.985-1.722a5.394 5.394 0 0 0-.623-.18c-.666-.335-1.451-.563-2.219-.719-.599 1.283-2.392 3.19-5.42 3.256-2.86.066-3.957-2.057-4.323-3.07a15.55 15.55 0 0 0-2.614.935s.084 2.17.108 4.077c.012 1.157.222 7.65.192 9.27.114 1.145.096 4.166-.03 5.965 0 .024 2.524 1.037 7.309.965 4.952-.078 6.643-.551 6.835-.887h.012v-.036c.018-1.127-.198-4.059-.162-5.15.066-1.775.102-3.568.234-5.348z" fill="#73BC55"/><path d="M174.462 72.372c1.511-.03 2.842-1.037 2.914-2.087-1.379-.137-2.59-.005-2.59-.005l-.318.005s-1.235-.071-2.794.18c.144 1.02 1.307 1.937 2.788 1.907z" fill="#E0E0E0"/><path opacity=".14" d="M174.066 71.647l1.589 1.51 2.104-2.853c-.641-.048-1.067-.048-1.067-.048l-4.299.108s-.431.018-1.133.144l1.577 2.368 1.229-1.23z" fill="#000"/><path d="M175.871 67.876h-2.932v3.22h2.932v-3.22z" fill="#EE8C72"/><path d="M172.939 68.283v.846c.606.18 1.829.503 2.932.527V68.29h-2.932v-.006z" fill="#DD725E"/><path d="M177.142 70.25l-.809-1.307-2.285 2.14 1.559 1.422 1.535-2.255zM174.048 71.084l-1.169 1.277-1.211-1.919.851-1.493 1.529 2.135z" fill="#F9F9F9"/><path d="M171.219 61.808s-1.409-.498-1.409.911c0 1.41 1.409.99 1.409.99v-1.901z" fill="#EE8C72"/><path d="M178.173 61.808s1.409-.498 1.409.911c0 1.41-1.409.99-1.409.99v-1.901z" fill="#F7A184"/><path d="M178.306 64.284c0 2.303-1.739 4.173-3.88 4.173-2.14 0-3.873-1.87-3.873-4.172v-3.706c0-2.308 1.733-4.173 3.873-4.173 2.141 0 3.88 1.87 3.88 4.173v3.705z" fill="#F7A184"/><path d="M174.432 56.412c-2.14 0-3.873 1.87-3.873 4.173v.174c.606.24 1.409.366 2.38.048 0 0 .792-.342 1.247-.852.456-.51.456-.57.906-.57.455 0 1.079-.34 1.415-.904 0 0 0 1.63 1.798 2.002-.048-2.254-1.762-4.07-3.873-4.07z" fill="#EE8C72"/><path d="M177.819 58.565c.234.533.366 1.127.366 1.756v3.705c0 2.303-1.733 4.173-3.879 4.173-1.457 0-2.728-.869-3.388-2.152.618 1.427 1.955 2.416 3.514 2.416 2.14 0 3.879-1.87 3.879-4.173v-3.705a4.428 4.428 0 0 0-.492-2.02z" fill="#EE8C72"/><path d="M178.695 61.79c1.577-1.834 1.133-3.135 1.133-3.135-.569-2.555-3.118-2.135-3.118-2.135-.144.012-.377-.264-.473-.348a2.632 2.632 0 0 0-.558-.365 3.204 3.204 0 0 0-1.349-.318c-2.65-.036-4.215 1.463-4.215 3.657 0 1.703.48 2.944.48 2.944.012-1.013.012-2.182.012-2.182.126.245.396.437.653.515.516.162 1.176.048 1.679-.114.252-.084.444-.215.618-.413.252-.288.455-.636.809-.81.288-.138.6-.108.905-.156.234-.036.444-.12.642-.24.036-.017.588-.533.582-.581.683 1.487.983 1.655 1.666 2.098.084 1.236.042 2.734.042 2.734.21-.39.372-.767.492-1.15z" fill="#E5DCCC"/><path d="M177.022 57.24c-.126.383-1.403.85-2.02.85-.618 0-.594.36-2.189 1.487-1.253.888-2.296-.21-2.686-.719-.006.096-.012.192-.012.288 0 1.703.48 2.944.48 2.944.012-1.014.012-2.183.012-2.183.126.246.396.438.653.516.516.162 1.176.048 1.679-.114a1.36 1.36 0 0 0 .618-.414c.252-.288.455-.635.809-.81.288-.137.6-.107.905-.155.234-.036.444-.12.642-.24.036-.018.588-.533.582-.581.683 1.486.983 1.654 1.666 2.098v.036c.252-1.48-1.139-3.004-1.139-3.004z" fill="#F2E9DA"/><path d="M176.273 66.263c-.102-.408-.258-.803-.558-1.103-.713-.714-1.871-.21-1.871-.21-.036.018-.185-.054-.227-.066a.941.941 0 0 0-.222-.03 1.211 1.211 0 0 0-1.157.653c-.216.426-.276.972-.288 1.445-.006.222.012.468.084.696.042.132.144.318.252.426.281.281.971.803 1.858.833.492.018 1.115-.288 1.565-.486.288-.132.51-.234.606-.563.03-.102.042-.21.048-.312.018-.432.012-.87-.09-1.283zm-.684.767a1.598 1.598 0 0 1-.665.18c-.096.006-.192.012-.288.006-.018 0-.096.006-.114-.006-.498-.497-.678-.06-.881-.012-.144.03-.318.036-.462.006-.12-.024-.252-.09-.36-.144a.768.768 0 0 1-.396-.533c-.048-.27.042-.558.126-.81.006-.024.108-.233.096-.245 0 0 .396.587 1.349.63.948.041 1.397-.636 1.397-.636.09.084.162.197.216.311.096.204.15.42.186.642.054.246.036.48-.204.611z" fill="#E5DCCC"/><path d="M175.805 66.407v.012c.042.24.018.48-.216.612a1.599 1.599 0 0 1-.666.18c-.096.006-.192.012-.287.006-.018 0-.096.006-.114-.006-.498-.498-.678-.06-.882-.012-.144.03-.318.036-.461.006-.12-.024-.252-.09-.36-.144a.768.768 0 0 1-.396-.534c-.006-.024-.006-.048-.006-.078-.144.36-.33.996.006 1.223.486.33 1.133.588 1.349.804.216.216.648.281.882.042.233-.234 1.049-.732 1.187-.732.132 0 .389-.983-.036-1.379z" fill="#F2E9DA"/><path d="M172.777 65.411h2.518s.246-.006.072.378c-.114.24-.42 1.02-1.283 1.043-1.031.03-1.385-1.067-1.385-1.067s-.174-.354.078-.354z" fill="#D24646"/><path d="M175.409 65.68c.084-.275-.114-.269-.114-.269h-2.518c-.192 0-.144.198-.108.3.486.126 1.475.282 2.74-.03z" fill="#fff"/><path d="M173.592 63.828s-.605-.024-.605.498c0 .516.935.384.965 0 .036-.39.084-3.226-.36-.498z" fill="#EE8C72"/><path d="M176.333 62.456c-.03 0-.06-.006-.09-.012a1.478 1.478 0 0 0-.912 0c-.03.012-.06.012-.09.012a.281.281 0 0 1-.275-.204.287.287 0 0 1 .018-.222.282.282 0 0 1 .167-.144c.204-.066.42-.102.636-.102.216 0 .432.036.636.102a.307.307 0 0 1 .167.144c.036.072.042.15.018.222a.282.282 0 0 1-.275.204zM171.38 62.456a.287.287 0 1 1-.258-.42.283.283 0 0 1 .168-.144c.204-.066.42-.102.636-.102.215 0 .431.036.635.102.15.048.234.216.186.366a.285.285 0 0 1-.276.197.463.463 0 0 1-.09-.011 1.472 1.472 0 0 0-.911 0 .463.463 0 0 1-.09.011z" fill="#F2E9DA"/><path d="M176.95 63.83a.423.423 0 0 0-.144-.055 1.867 1.867 0 0 0-.281-.036c-.198-.018-.378-.018-.378-.018a.085.085 0 0 1-.078-.054.094.094 0 0 1 .018-.096c.258-.252.582-.293.779-.3.114 0 .186.012.192.012.048.006.078.054.066.102-.006.048-.054.078-.102.066 0 0-.012 0-.042-.006-.03-.006-.066-.006-.114-.006a.985.985 0 0 0-.467.108c.138.006.306.024.437.048.096.024.174.042.234.096.036.036.036.09 0 .12a.077.077 0 0 1-.06.024c-.018.018-.042.012-.06-.006zM170.871 63.888c-.036-.036-.036-.09 0-.12a.928.928 0 0 1 .503-.227.568.568 0 0 0-.168-.024.578.578 0 0 0-.239.047c-.042.019-.096 0-.114-.041-.018-.043 0-.096.042-.114.006 0 .132-.06.311-.06.15 0 .342.048.504.21.024.024.03.065.018.095-.018.03-.048.054-.084.048h-.054c-.126 0-.437.024-.593.192a.086.086 0 0 1-.06.024c-.024-.006-.048-.012-.066-.03zM172.154 61.61a.092.092 0 0 1 .072-.101s.959-.168 1.828-.168c.372 0 .72.03.983.126a.093.093 0 0 1 .054.108c-.018.042-.066.066-.107.054-.228-.084-.57-.114-.93-.114-.42 0-.869.042-1.217.084a12.57 12.57 0 0 0-.581.084h-.018c-.036 0-.072-.03-.084-.072zM171.914 61.305c-.012-.048.012-.096.06-.108.006 0 .941-.276 2.074-.276.48 0 .989.048 1.481.186.048.012.072.06.06.108-.012.048-.06.072-.108.06a5.367 5.367 0 0 0-1.433-.18c-.827 0-1.559.15-1.864.228-.102.024-.162.042-.162.042-.006 0-.018.006-.024.006-.036-.006-.072-.03-.084-.066z" fill="#EE8C72"/><path d="M176.644 63.007a1.03 1.03 0 0 0-.731-.18c-.264.048-.51.156-.684.504 0 0-.048.12.012.174.072.066.156 0 .192-.042.192-.24.372-.276.57-.312a.88.88 0 0 1 .497.042c.12.036.186-.024.192-.078 0-.06-.048-.108-.048-.108zM171.11 62.978a1.01 1.01 0 0 1 .732-.174c.264.048.51.156.683.51 0 0 .048.12-.012.173-.072.066-.155 0-.191-.042-.192-.24-.372-.276-.57-.312-.294-.053-.498.042-.498.042-.12.037-.186-.03-.192-.078 0-.071.048-.12.048-.12z" fill="#7C3E06"/><path d="M116.377 95.042s.773 1.84.857 2.015a.7.7 0 0 1 .006.647c-.096.18-.869 1.535-1.331 1.307-.462-.228-1.193-.875-1.193-.875s-.168-.114-.042-.27c.084-.102.24-.084.276-.078l-.282-.228s-.144-.108-.042-.246c.084-.113.324-.09.324-.09s-.222-.131-.12-.287c.066-.108.198-.114.246-.102 0 0-.096-.192.095-.294 0 0-.329-.683-.03-1.433 0 0 .036-.545.588-.611.552-.054.648.545.648.545z" fill="#FAA284"/><path d="M116.569 97.302c.275.384-.402 1.218-.546 1.32-.18.125-.803-.33-1.055-.516-.162-.12-.18-.246-.174-.312a.323.323 0 0 1 .168-.006l-.282-.228s-.144-.108-.042-.246c.084-.113.324-.09.324-.09s-.216-.107-.12-.287c.054-.096.198-.114.246-.102 0 0-.096-.192.096-.294.851.054 1.109.378 1.385.761z" fill="#EF8D72"/><path d="M115.178 96.547s.119.401.155.701c.048.408.09.684.096.9.018.467.462.425.45.041-.012-.36.03-.749.078-.917.066-.216.162-.348.21-.414 0 0-.006-.515-.474-.587-.468-.072-.545.15-.515.276z" fill="#FAA284"/><path d="M111.04 86.235l-1.601-8.46c-.018-.072-.029-.144-.041-.216a1.683 1.683 0 0 1 1.486-1.858 1.679 1.679 0 0 1 1.841 1.373h.012l1.127 8.777a1.427 1.427 0 1 1-2.824.384z" fill="#BF78C1"/><path d="M116.418 95.228c-.15-.797-1.157-6.032-2.722-9.575v-.012a1.316 1.316 0 0 0-1.666-.815 1.307 1.307 0 0 0-.81 1.666c.024.072 2.123 6.883 3.783 9.174l1.415-.438z" fill="#FAA284"/><path d="M116.155 93.873l-1.859.611c-.084.012-.174-.143-.174-.143-1.487-2.926-3.01-7.813-3.01-7.813a1.426 1.426 0 0 1 .888-1.816 1.427 1.427 0 0 1 1.816.887c1.146 2.59 1.985 6.037 2.417 8.052-.012 0 .06.174-.078.222z" fill="#BF78C1"/><path d="M109.272 125.416c-.144-.696-.48-1.763-.995-5.744-.048-.366-.078-.618-.09-.69-.426-2.985-.318-4.97.066-7.152.101-.576.221-1.11.221-1.11v-.341c0-.918 1.002-1.667 1.919-1.667 1.277 0 2.009.833 2.015 1.745v.156l-1.11 14.803h-2.026zM103.162 125.416c-.144-.696-.48-1.763-.995-5.744-.048-.366-.078-.618-.09-.69-.426-2.985-.318-4.97.066-7.152.102-.576.222-1.11.222-1.11v-.341c0-.918 1.001-1.667 1.918-1.667 1.277 0 2.009.833 2.015 1.745v.156l-1.11 14.803h-2.026z" fill="#FAA284"/><path d="M111.406 124.864h-2.374v2.578h2.374v-2.578zM105.35 124.864h-2.374v2.578h2.374v-2.578z" fill="#EDD1B2"/><path d="M111.712 126.453s.977.87 2.65 1.433c0 0 3.022-.953 2.218 1.439h-7.854s-.264-1.709.258-2.854c0 0 .192-.09.473.174.282.264 1.217.42 1.685.27-.006 0 .258-.552.57-.462z" fill="#263544"/><path d="M108.666 128.762c.018.353.054.563.054.563h7.86c.078-.228.12-.425.132-.563h-8.046z" fill="#D3D3D3"/><path d="M105.74 129.325s-.102-1.505-.329-2.248c0 0-.714.042-.918-.216-.204-.252-1.409-1.355-1.96-.006l-.402.749s-1.883-.575-1.283 1.715h4.892v.006z" fill="#263544"/><path d="M100.854 129.325h4.886s-.018-.305-.06-.611h-4.94c.012.156.048.36.114.611z" fill="#D3D3D3"/><path d="M110.399 112.381a2.029 2.029 0 0 1-2.009-1.828l-.006-.006-.006-.144-.887-14.875a3.071 3.071 0 0 1-.042-.462 2.957 2.957 0 0 1 .839-2.122 2.942 2.942 0 0 1 2.093-.912h.048a2.999 2.999 0 0 1 2.956 3.424l-.99 14.545.006.33V110.373a1.99 1.99 0 0 1-.587 1.421 1.994 1.994 0 0 1-1.415.587z" fill="#FAA284"/><path d="M113.373 95.456c.024-.168.036-.336.036-.498a3.003 3.003 0 0 0-2.986-2.932h-.048a2.938 2.938 0 0 0-2.092.912 2.98 2.98 0 0 0-.798 2.584l.816 13.658a28.867 28.867 0 0 0 4.185-.558l.887-13.166z" fill="#EE8C72"/><path d="M104.289 112.381a2.027 2.027 0 0 1-2.008-1.828l-.006-.006-.006-.144-.888-14.875a3.071 3.071 0 0 1-.042-.462 2.954 2.954 0 0 1 .84-2.122 2.938 2.938 0 0 1 2.092-.912h.048a2.999 2.999 0 0 1 2.986 2.932c0 .162-.006.33-.036.492l-.977 14.551.006.33V110.379c0 .533-.204 1.037-.588 1.421a2.038 2.038 0 0 1-1.421.581z" fill="#FAA284"/><path d="M107.263 95.45c.024-.168.036-.33.036-.492a3.003 3.003 0 0 0-2.986-2.932h-.048a2.948 2.948 0 0 0-2.092.912 2.98 2.98 0 0 0-.798 2.584l.798 13.364c.875.144 2.326.33 4.161.342l.929-13.778z" fill="#EE8C72"/><path d="M113.691 107.549l.042-12.057s-.156-2.248-.828-3.351l-10.996.048s-.947 1.966-.779 4.754c.174 2.788-.084 10.606-.084 10.606s5.534 1.379 12.645 0z" fill="#263544"/><path opacity=".15" d="M113.517 93.94c-.126-.63-.318-1.32-.612-1.793l-10.996.041s-.324.672-.557 1.787c1.546.642 6.583 2.338 12.165-.036z" fill="#000"/><path d="M100.056 71.527c0-.594.324-1.11.81-1.379-.006-.054-.012-.102-.012-.156 0-.617.497-1.115 1.115-1.115.024 0 .048 0 .072.006.114-.228.18-.378.18-.378l2.572.102 5.995.234a1.113 1.113 0 0 1 1.913 1.061 1.588 1.588 0 0 1 1.571 1.59c0 .539-.27 1.018-.684 1.3.024.102.036.216.036.324 0 .875-.713 1.589-1.589 1.589-.132 0-.257-.018-.377-.048a1.602 1.602 0 0 1-1.223.575c-.384 0-.744-.138-1.014-.365a1.58 1.58 0 0 1-2.296.096c-.306.012-.606.012-.893.012a1.592 1.592 0 0 1-2.423-.228 1.592 1.592 0 0 1-2.356-1.391c0-.048.006-.09.006-.138-.048-.036-.09-.078-.138-.114a1.63 1.63 0 0 1-1.265-1.577z" fill="#E5DCCC"/><path d="M108.882 74.993l-3.244-.012v.85h3.645l-.401-.838z" fill="#D8D8D8"/><path d="M100.614 76.6c.294-.6 1.559-.942 2.572-.978.018-.006.03-.006.048-.012.695-.132 1.745-.198 3.112-.198 1.139 0 2.296.048 3.063.084 1.577.078 1.577.078 1.667.246l.03.066.006.066c.012.114.252 1.463.288 1.595.168.551.426 1.079.773 1.553.57.785.918 1.696.918 2.895 0 1.337-.396 1.925-1.235 2.375-.06.827-.072 2.062.215 3.699.24 1.373 1.104 4.82 1.415 5.45.126.102-2.086 1.037-6.025.905-4.701-.156-6.068-1.013-6.068-1.013 0-1.26 1.008-3.765 1.337-5.378.312-1.529.456-3.633.048-4.539-.312-.695-.503-1.409-.773-2.104-.168-.432-1.787-3.903-1.391-4.713z" fill="#D690D6"/><path opacity=".12" d="M104.481 84.532h7.375c.006-.078.012-.156.012-.228.126-.066.24-.138.348-.216h-8.184l.449.444z" fill="#666"/><path d="M106.184 76.48l2.146-.03-.185-3.681h-1.607l-.354 3.71z" fill="#EE8C72"/><path d="M106.364 74.567l.168-1.804h1.606l.09 1.768a6.529 6.529 0 0 1-1.864.036z" fill="#DD725E"/><path d="M105.806 75.364l-.126.012 1.493 2.08.666.828s.989-1.05 1.217-1.655c.234-.6.24-1.145.24-1.145l-.384-.03-3.106-.09z" fill="#EE8C72"/><path d="M108.253 75.011s.197.276.647.444l-.024.144h-3.094l-.072-.222s.528-.072.612-.384l1.931.018z" fill="#EE8C72"/><path d="M107.023 77.067l.816 1.211-.834-1.007-.899.983.833-1.295.084.108zM107.839 78.278l.941-1.277.582 1.175-.618-.911-.905 1.013z" fill="#D8D8D8"/><path d="M108.252 75.011s.516-.048.684.21c.12.18.156 1.295-.204 1.84l.666 1.176s.293-1.883.078-2.734c-.156-.246-.402-.504-.69-.588-.042-.012-.534-.084-.534-.072v.168zM106.34 74.837s-.803.078-.989.168c-.18.09-.546.45-.546.45s.486 2.068 1.289 2.805c0 0 .72-1.037.93-1.187l-1.301-1.756s-.03-.168.083-.21c.114-.042.522-.108.522-.108l.012-.162z" fill="#fff"/><path d="M99.235 95.851c.642.018.785.66.785.66s.618.863.612 1.235c-.012.48.27 1.175.27 1.175s-.522.306-.726-.534c0 0-.102.966-.395.99 0 0-.156.011-.33-.09 0 0-.288.275-.564-.042 0 0-.347.15-.497-.126 0 0-.222.156-.372-.156-.156-.318-.168-.348-.252-.977 0 0 .078-1.284.606-1.727 0 0 .222-.426.863-.408z" fill="#F7A184"/><path d="M98.288 85.683l1.972-8.382a1.68 1.68 0 0 1 2.165-1.313 1.684 1.684 0 0 1 1.127 2.002l.012.006-2.536 8.478a1.43 1.43 0 0 1-1.625 1.08 1.428 1.428 0 0 1-1.17-1.65c.013-.078.03-.15.055-.221z" fill="#D690D6"/><path d="M99.919 96.276c.156-.797 1.157-6.031 1.013-9.904v-.012a1.303 1.303 0 0 0-1.247-1.367 1.308 1.308 0 0 0-1.367 1.247c-.006.078-.57 7.183.12 9.923l1.48.114z" fill="#F7A184"/><path d="M100.17 94.922l-1.954-.12c-.084-.018-.108-.198-.108-.198-.3-3.273.09-8.37.09-8.37a1.428 1.428 0 1 1 2.854.133c.102 2.823-.39 6.343-.732 8.375 0 0 0 .186-.15.18z" fill="#D690D6"/><path d="M110.752 68.781s1.307-.461 1.307.846-1.307.917-1.307.917v-1.763z" fill="#EE8C72"/><path d="M104.121 70.46c0 2.135 1.607 3.868 3.591 3.868 1.985 0 3.592-1.733 3.592-3.868l-.378-3.423c0-2.135-1.211-2.698-3.196-2.698-1.984 0-3.339.54-3.339 2.68l-.27 3.441z" fill="#F7A184"/><path d="M107.737 64.345c1.985 0 3.196.557 3.196 2.698l.198 1.798c-.204-.251-.63-.797-.846-1.223-.287-.575-1.63-1.858-1.84-2.068 0 0-1.415 1.013-1.727 1.325-.312.312-1.727 1.133-1.883 1.409-.071.126-.275.348-.581.503l.138-1.762c.006-2.14 1.361-2.68 3.345-2.68zM107.862 73.974c-1.858 0-3.387-1.517-3.573-3.465l-.168.054c.048 2.092 1.637 3.777 3.585 3.777 1.523 0 2.824-1.025 3.346-2.464-.588 1.24-1.793 2.098-3.19 2.098z" fill="#EE8C72"/><path d="M104.367 68.781s-1.307-.461-1.307.846 1.307.917 1.307.917v-1.763z" fill="#F7A184"/><path d="M108.342 64.974s-1.631 1.691-2.8 2.344c-1.175.654-1.277 1.451-1.277 1.451s-.611-.15-.935-.018c-.324.132-1.109-.257-1.109-.257s.425-1.301.683-2.279c.258-.977 1.925-3.585 3.358-3.357 0 0 1.367.425 1.792.845.42.426.516.654.288 1.271z" fill="#E5DCCC"/><path d="M108.342 64.974s.846.947 1.301 1.433c.456.486 1.475 1.799 1.475 2.35 0 0 .138-.12.51.012l.318.288s-.21-.402-.276-1.703c-.066-1.3-.456-4.574-2.38-4.46 0 0-.798.066-1.481.617 0 0 .078 1.35.533 1.463z" fill="#E5DCCC"/><path d="M106.088 66.095c.534-.257 1.451-1.487 1.799-1.978.09-.126.144-.198.144-.198.108.144.257.312.437.492.744.767 1.961 1.828 2.411 2.614.335.575.467 1.247.521 1.696-.198-.024-.276.042-.276.042 0-.551-1.019-1.858-1.475-2.35-.455-.492-1.301-1.433-1.301-1.433s-1.63 1.69-2.8 2.344c-.887.492-1.163 1.068-1.247 1.32-.042-1.146 1.187-2.26 1.787-2.549z" fill="#F2E9DA"/><path d="M109.403 71.762h-2.201s-.215-.006-.06.33c.096.21.366.97 1.122.989.899.024 1.211-1.008 1.211-1.008s.15-.311-.072-.311z" fill="#D24646"/><path d="M107.101 71.996c-.078-.24.096-.234.096-.234h2.2c.168 0 .126.174.096.263-.419.108-1.283.24-2.392-.03z" fill="#fff"/><path d="M108.708 70.262s.582-.024.582.48c0 .498-.906.372-.936 0-.024-.378-.072-3.112.354-.48z" fill="#EE8C72"/><path d="M105.914 68.692a.213.213 0 0 0 .06-.012 1.551 1.551 0 0 1 .935 0 .213.213 0 0 0 .06.012.205.205 0 0 0 .192-.138.2.2 0 0 0-.012-.156.21.21 0 0 0-.114-.102 1.974 1.974 0 0 0-.587-.096c-.204 0-.402.03-.594.096a.21.21 0 0 0-.114.102.188.188 0 0 0-.012.15c.024.09.096.144.186.144zM110.615 68.692a.206.206 0 0 0 .192-.138.188.188 0 0 0-.012-.15.21.21 0 0 0-.114-.102 1.977 1.977 0 0 0-.588-.096c-.204 0-.401.03-.593.096a.201.201 0 0 0-.126.252.195.195 0 0 0 .252.126c.149-.048.305-.072.467-.072.162 0 .318.024.468.072.012.012.03.012.054.012z" fill="#F2E9DA"/><path d="M109.655 67.402s-.228-.03-.569-.06c-.342-.03-.792-.06-1.242-.06-.395 0-.779.024-1.079.09-.048.012-.09-.018-.102-.066-.012-.048.018-.09.066-.102.318-.066.714-.09 1.115-.09.906 0 1.829.12 1.829.12.048.006.078.048.072.096-.006.042-.042.078-.084.078 0-.006 0-.006-.006-.006zM109.409 67.805s-.191-.03-.467-.06a9.786 9.786 0 0 0-1.002-.06c-.257 0-.509.018-.707.054-.048.012-.09-.018-.102-.066-.012-.048.018-.09.066-.102.216-.042.48-.06.743-.06.726 0 1.499.114 1.499.114.048.006.078.048.072.096a.084.084 0 0 1-.084.072c-.012.011-.012.011-.018.011zM106.166 70.04s-.108-.03-.246-.053a2.237 2.237 0 0 0-.425-.054.082.082 0 0 1-.084-.084c0-.048.036-.084.084-.084.281 0 .707.12.713.12.048.012.072.06.06.108-.012.035-.048.065-.084.065 0-.012-.012-.012-.018-.018zM105.584 70.352c-.036-.036-.036-.09 0-.12.078-.072.192-.09.3-.108.114-.012.222-.018.288-.018h.054c.048 0 .084.042.084.09 0 .048-.042.084-.09.084h-.048c-.06 0-.162 0-.264.018-.096.012-.192.042-.204.06a.077.077 0 0 1-.06.024c-.024-.006-.048-.012-.06-.03zM110.369 70.28c-.024-.041-.012-.095.024-.12.006 0 .288-.191.557-.191.03 0 .066 0 .096.012.048.012.078.054.066.102-.012.048-.054.078-.102.066-.018-.006-.036-.006-.06-.006-.137 0-.335.09-.419.144a.74.74 0 0 1-.042.023c-.012.013-.03.013-.048.013-.024 0-.054-.018-.072-.042zM110.417 70.496c-.03-.036-.018-.09.018-.12a.52.52 0 0 1 .318-.084c.162 0 .299.042.305.042.048.012.072.06.054.108-.012.048-.06.072-.108.054 0 0-.006 0-.018-.006-.012-.006-.03-.006-.053-.012a.793.793 0 0 0-.18-.018.385.385 0 0 0-.216.054c-.018.012-.03.018-.048.018a.086.086 0 0 1-.072-.036zM106.484 72.127c-.048-.012-.072-.06-.06-.108.048-.174.186-.3.318-.402.138-.102.276-.168.353-.192.024-.006.036-.012.072-.018.048 0 .084.036.084.084 0 .048-.036.084-.078.084-.006 0-.012 0-.018.006-.018.006-.042.018-.066.03-.053.024-.125.06-.191.108-.138.09-.276.222-.306.342-.012.036-.048.066-.084.066-.012.006-.018 0-.024 0zM109.841 72.03c-.036-.227-.258-.341-.312-.359-.006-.006-.012-.006-.012-.006a.094.094 0 0 1-.053-.108.092.092 0 0 1 .107-.054c.006 0 .09.036.192.108a.666.666 0 0 1 .24.384.092.092 0 0 1-.072.102h-.018c-.03.006-.066-.024-.072-.066z" fill="#EE8C72"/><path d="M105.651 69.453a.95.95 0 0 1 .689-.168c.252.042.486.15.648.48 0 0 .047.113-.012.161-.072.06-.15 0-.18-.042-.18-.228-.354-.258-.54-.293-.276-.048-.474.035-.474.041-.114.036-.179-.024-.179-.072 0-.066.048-.107.048-.107zM110.908 69.423a.952.952 0 0 0-.689-.168.809.809 0 0 0-.648.48s-.048.114.012.162c.072.06.15 0 .18-.042.18-.228.354-.264.54-.294a.914.914 0 0 1 .474.036c.113.036.179-.024.179-.072-.006-.06-.048-.102-.048-.102z" fill="#602C05"/><path d="M163.826 90.437c.21-.473.881-.3.881-.3s2.716-.629 3.334-.3c.383.205.707.672 1.013 1.044.156.186.785.953.785.953s-.222.576-1.463-.935c.114.456.474 1.295.516 1.445 0 0-.576.294-.989-1.421.018.396.18 1.379.204 1.553 0 0-.552.186-.63-1.29-.096.259-.132 1.068-.168 1.17 0 0-.426-.03-.312-1.26l-1.133.666s1.014 1.026.408 1.595c0 0-.791-.935-1.091-1.133-.81-.54-.936-.714-1.109-.851 0 0-.456-.462-.246-.936zM150.833 69.303c.084.18-.006.425-.125.54 0 0-.858.887-.768 1.025.084.126.564.06.564.06.377-.066 1.235-.06 1.235-.06l2.38-.498a.3.3 0 0 1 .318.276c.012.162-.15.324-.312.336l-2.152.527s-.066.012-.06.09c0 .042.006.09.078.096l2.626-.198a.3.3 0 0 1 .323.27.29.29 0 0 1-.269.312l-2.704.246c-.078 0-.12.108-.03.126l2.434.21a.281.281 0 0 1 .3.257.281.281 0 0 1-.258.3l-2.698-.09c-.12 0-.126.102-.048.108l1.906.438c.162.048.306.137.276.281-.03.15-.12.204-.282.192l-2.2-.294c-2.284.366-3.196-.21-3.196-.21-1.57-1.055-.054-2.056-.054-2.056s.276-.557.864-1.055c.234-.198.953-.75 1.349-1.121.138-.132.252-.276.252-.276.078-.06.18 0 .251.168z" fill="#FAA284"/><path d="M151.355 73.578s.612-1.026.276-2.56c-.006 0 .174 1.325-.276 2.56z" fill="#EF8D72"/><path d="M142.116 78.5c-.228-.395-.642-.91-1.325-1.63l-.288-.3c-2.35-2.476-4.815-5.078-5.936-5.738l-.048-.03a.539.539 0 0 0-.084-.042 1.993 1.993 0 0 0-1.684-.078c-.3.126-.564.324-.774.576a1.998 1.998 0 0 0-.144 2.326.624.624 0 0 1 .024.102c2.986 2.962 7.441 7.974 9.443 7.147h.006c.018-.006.042-.012.06-.024l.06-.024c.078-.03.144-.072.21-.114.084-.048.168-.096.228-.174.012-.012.018-.024.03-.036.012-.006.078-.096.162-.234a.243.243 0 0 0 .03-.054c.006-.012.018-.03.024-.048.024-.036.042-.078.06-.114.006-.017.018-.03.024-.047a.18.18 0 0 1 .024-.049c.06-.143.113-.305.137-.467a1.081 1.081 0 0 0-.03-.432 1.205 1.205 0 0 0-.209-.515z" fill="#F9C74B"/><path d="M139.651 78.506c-.269.383-.341.87-.215 1.313.03.108.06.18.06.198l.018.024a1.268 1.268 0 0 0 .305.444c.006.005.018.011.024.023.228.228.486.342.726.39a1.6 1.6 0 0 0 .653.006c.06-.012.114-.018.138-.024l.078-.036c.126-.048.246-.108.36-.186 2.686-1.553 6.853-5.606 7.476-6.673-.293-.42-1.529-1.697-1.696-1.882-.984.437-2.848 1.612-5.804 4.298a94.01 94.01 0 0 1-1.421 1.265 3.25 3.25 0 0 0-.702.84z" fill="#F9C74B"/><path d="M149.281 73.973c-.294-.42-1.529-1.696-1.697-1.882-.198.09-.432.204-.702.36l1.937 2.134c.216-.252.378-.462.462-.612z" fill="#fff"/><path d="M131.102 74.208c-.096.156-.048.39.042.503 0 0 .659.912.563 1.026-.09.101-.521-.018-.521-.018-.33-.108-1.116-.21-1.116-.21l-2.092-.756a.267.267 0 0 0-.318.21c-.03.144.096.312.24.342l1.877.75s.06.017.042.083c-.006.036-.018.084-.084.078l-2.351-.515c-.144-.03-.299.06-.329.203-.03.144.06.288.203.318l2.417.57c.072.012.096.114.012.12l-2.231-.12a.258.258 0 0 0-.108.503l2.453.264c.107.018.095.108.024.108l-1.781.156c-.156.024-.294.084-.288.222.006.144.084.198.228.21l2.032.018c2.015.623 2.92.222 2.92.222 1.559-.756.312-1.853.312-1.853s-.174-.54-.648-1.061c-.185-.21-.767-.798-1.079-1.188-.108-.137-.192-.281-.192-.281-.042-.09-.137-.048-.227.096z" fill="#FAA284"/><path d="M130.088 78.008s-.425-1.007.078-2.35c0-.006-.329 1.175-.078 2.35z" fill="#EF8D72"/><path d="M132.942 78.525c.732.401 5.39 2.86 9.222 3.92h.012a1.352 1.352 0 0 0 1.66-.635c.024-.048.048-.102.072-.156a1.343 1.343 0 0 0-.791-1.726c-.072-.03-6.661-2.794-9.557-2.962l-.618 1.559z" fill="#EAEAEA"/><path d="M134.039 79.047l.726-1.877c.042-.072.228-.048.228-.048 3.297.725 8.16 2.686 8.16 2.686a1.463 1.463 0 0 1 .863 1.883 1.463 1.463 0 0 1-1.883.863c-2.8-.78-6.085-2.35-7.962-3.316-.006.006-.186-.047-.132-.191z" fill="#F45B79"/><path d="M121.371 122.227h-2.237v5.641h2.237v-5.641z" fill="#EE8C72"/><path d="M122.282 129.326s-.132-1.913-.42-2.854c0 0-.905.054-1.163-.27s-1.786-1.721-2.488-.006l-.51.953s-2.392-.731-1.624 2.177h6.205z" fill="#5B2F0A"/><path d="M116.077 129.325h6.205s-.024-.39-.072-.773h-6.277c.018.192.06.455.144.773z" fill="#7D7D7D"/><path d="M130.742 122.227h-2.236v5.641h2.236v-5.641z" fill="#EE8C72"/><path d="M131.408 125.566s1.241 1.103 3.369 1.817c0 0 3.837-1.211 2.824 1.829h-9.989s-.335-2.171.324-3.628c0 0 .246-.114.606.222.359.336 1.546.534 2.14.342-.006.006.33-.696.726-.582z" fill="#5B2F0A"/><path d="M127.541 128.498c.024.45.071.714.071.714h9.983c.096-.294.15-.54.168-.714h-10.222z" fill="#7D7D7D"/><path d="M127.109 92.632a1.472 1.472 0 0 1-.012-.168 3.143 3.143 0 0 1 3.069-3.22 3.147 3.147 0 0 1 3.22 3.052h.018l-.905 17.645v.018a2.618 2.618 0 0 1-5.234.09c0-.078 0-.162.006-.24l-.162-17.177z" fill="#665846"/><path d="M127.229 124.594l.035-14.539v-.006a2.618 2.618 0 1 1 5.211.312l-.546 14.227c.006.018.006.036.006.054a.351.351 0 0 1-.012.078v.06h-.024c-.204.348-1.151.618-2.29.618-1.289 0-2.333-.336-2.333-.756 0-.012.006-.03.006-.042l-.053-.006zM120.274 92.41c0-.054-.006-.114 0-.168a3.153 3.153 0 0 1 3.291-2.998 3.15 3.15 0 0 1 2.998 3.274h.018l-2.14 17.537v.018a2.616 2.616 0 0 1-2.752 2.476 2.617 2.617 0 0 1-2.477-2.752c.006-.078.012-.162.024-.24l1.038-17.147z" fill="#665846"/><path d="M118.139 124.307l1.061-14.504v-.006a2.616 2.616 0 0 1 2.752-2.476 2.62 2.62 0 0 1 2.477 2.752 2.74 2.74 0 0 1-.054.396l-1.547 14.156c0 .018.006.036.006.053a.185.185 0 0 1-.018.078l-.006.06h-.024c-.228.336-1.193.534-2.333.45-1.289-.09-2.308-.504-2.278-.917 0-.012.006-.03.012-.042h-.048z" fill="#665846"/><path d="M125.622 68.014h3.879l.048.443-1.541 2.003-.726-.084-1.606-1.757-.054-.605z" fill="#B7B6B6"/><path d="M133.32 90.144s1.199 6.301-5.474 5.786h-1.907c-2.218 0-3.855-.21-4.604-1.145-1.547-1.463-.876-4.689-.876-4.689.126-.492.03-.731 0-1.007l12.801.024c-.042.294-.03.486.06 1.031z" fill="#665846"/><path opacity=".15" d="M133.23 92.74c.324-1.343.09-2.596.09-2.596-.09-.546-.102-.732-.06-1.025l-12.8-.024c.03.276.126.51 0 1.007 0 0-.138.653-.144 1.505 2.218.605 8.34 2.062 12.914 1.133z" fill="#000"/><path d="M127.516 71.497c-1.529-.03-2.884-1.049-2.95-2.116 1.403-.144 2.626-.006 2.626-.006l.318.006s1.253-.072 2.836.18c-.144 1.037-1.325 1.966-2.83 1.936z" fill="#EE8C72"/><path d="M129.069 66.935h-2.974v3.04h2.974v-3.04z" fill="#EE8C72"/><path d="M129.069 67.349v.857c-.612.186-1.853.51-2.974.534v-1.385h2.974v-.006z" fill="#DD725E"/><path d="M127.99 79.442c-1.655-2.063-3.597-8.682-3.927-10.03.102-.013 1.169-.097 1.169-.097l2.704.87 1.679-.726s1.037.096 1.499.21c-.66 3.388-3.124 9.773-3.124 9.773z" fill="#E5E5E5"/><path opacity=".14" d="M127.936 70.412l-.983 1.002-.702.593-1.595-2.638c.294-.024.582-.042.582-.042l2.704.87 1.679-.726s.485.048.935.108l-1.427 2.23-.36-.431-.833-.966z" fill="#000"/><path d="M124.806 69.345l.816-1.331 2.314 2.176-1.577 1.439-1.553-2.284zM127.936 70.19l1.187 1.296 1.229-1.949-.857-1.51-1.559 2.164z" fill="#E5E5E5"/><path d="M120.34 79.795c-.12-1.709-1.176-4.083-1.925-5.93a1.576 1.576 0 0 1-1.199-1.535c0-.875 1.187-1.463 2.014-1.744a5.38 5.38 0 0 1 .63-.18c1.325-.684 3.1-1.008 4.251-1.097.264.767 1.217 2.841 3.669 3.447 0 0 2.218-.725 3.112-3.244.935.168 2.266.618 3.753 1.308 0 0-.084 2.2-.108 4.13-.012 1.176-.995 7.843-.965 9.486-.114 1.163.018 4.136.144 5.96a.096.096 0 0 1-.03.065c-.138.348-3.094.624-6.727.624-3.592 0-6.524-.27-6.721-.612h-.012v-.036c-.018-1.145.371-4.113.335-5.222-.072-1.799-.096-3.61-.221-5.42z" fill="#FCD772"/><path d="M127.918 74.027s2.572-.414 4.305-4.209a16.746 16.746 0 0 0-1.337-.306c-.894 2.519-3.112 3.244-3.112 3.244-2.458-.606-3.406-2.674-3.669-3.447-.354.03-.768.072-1.211.138.545 1.45 2.032 4.328 5.024 4.58z" fill="#F9C74B"/><path d="M131.18 60.993s1.427-.498 1.427.923c0 1.427-1.427 1.001-1.427 1.001v-1.924z" fill="#EE8C72"/><path d="M124.147 60.993s-1.427-.498-1.427.923c0 1.427 1.427 1.001 1.427 1.001v-1.924z" fill="#F7A184"/><path d="M124.015 63.5c0 2.332 1.756 4.22 3.921 4.22 2.164 0 3.921-1.888 3.921-4.22v-3.742c0-2.332-1.757-4.22-3.921-4.22-2.165 0-3.921 1.888-3.921 4.22v3.741z" fill="#F7A184"/><path d="M127.936 55.537c1.954 0 3.573 1.547 3.867 3.562-1.217.545-3.364.965-6.26-.558 0 0-.491.552-1.439.324.378-1.9 1.949-3.328 3.832-3.328z" fill="#EE8C72"/><path d="M124.506 57.714a4.448 4.448 0 0 0-.365 1.775v3.747c0 2.332 1.756 4.22 3.921 4.22 1.475 0 2.758-.88 3.429-2.176-.623 1.445-1.978 2.447-3.555 2.447-2.165 0-3.921-1.89-3.921-4.221v-3.748c0-.743.18-1.439.491-2.044z" fill="#EE8C72"/><path d="M131.083 56.766s.684.923.66 5.024l.342-1.097s.473-4.035-.738-4.035l-.264.108z" fill="#903D1F"/><path d="M123.679 56.928l-.042-.042c-.012-.006 0-.036.018-.078-.288-.9 1.187-2.134 1.187-2.134-.114.204-.15.444-.162.63.216-.265.462-.504.738-.702 1.013-.738 2.266-.941 3.477-.69.863.186 1.625.606 2.434.936.282.114.528.305.846.264.329-.043.635-.24.917-.402.078.527-.018 1.18-.288 1.643-.012.017-.024.041-.036.06.312-.066.546-.138.546-.138-.426 1.097-1.481 1.858-1.481 1.858-2.752 1.595-5.078.498-6.068-.15a.832.832 0 0 0 .198.354c-.276-.018-.509-.168-.665-.294-.264.306-.612.588-1.031.678-.144.737-.252 1.78-.216 3.231l-.828-1.277c.006.006-2.878-2.961.456-3.747z" fill="#903D1F"/><path d="M124.032 57.947c.66 0 .936-.731.936-.731l.533.371-.084-.647s1.679 1.235 3.85 1.307c1.732.06 3.099-1.301 3.579-1.847.276-.06.474-.12.474-.12-.426 1.097-1.481 1.859-1.481 1.859-2.752 1.595-5.079.497-6.068-.15.048.204.198.354.198.354-.276-.018-.51-.168-.665-.294-.264.306-.612.587-1.032.678-.018.083-.03.167-.048.257-.18-.521-.257-1.037-.192-1.037z" fill="#752B14"/><path d="M126.281 62.193c0 .311.162.563.354.563.197 0 .353-.252.353-.563 0-.312-.162-.564-.353-.564-.192 0-.354.252-.354.564zM130.22 62.193c0 .311.162.563.354.563.198 0 .354-.252.354-.563 0-.312-.162-.564-.354-.564-.192 0-.354.252-.354.564z" fill="#602C05"/><path d="M128.673 62.846s.642-.024.642.521c0 .546-.989.408-1.019 0-.036-.407-.09-3.405.377-.521z" fill="#EE8C72"/><path d="M126.047 61.119c.024 0 .042-.006.066-.012.168-.054.342-.084.516-.084s.347.03.515.084c.024.006.042.012.066.012.09 0 .174-.06.198-.144a.218.218 0 0 0-.012-.162.196.196 0 0 0-.126-.102 2.136 2.136 0 0 0-.641-.102c-.222 0-.438.036-.648.102a.204.204 0 0 0-.12.102.215.215 0 0 0-.012.162.207.207 0 0 0 .198.144zM131.287 61.119c.09 0 .174-.06.198-.144a.218.218 0 0 0-.012-.162.2.2 0 0 0-.12-.102 2.084 2.084 0 0 0-1.283 0 .204.204 0 0 0-.12.102.215.215 0 0 0-.012.162c.03.084.108.144.198.144.024 0 .042-.006.066-.012.168-.054.342-.084.516-.084.173 0 .347.03.515.084.006.006.03.012.054.012z" fill="#903D1F"/><path d="M128.289 65.424a3.114 3.114 0 0 0 1.301-.204.103.103 0 0 0 .054-.138c-.024-.054-.084-.078-.138-.054-.072.03-1.768.72-2.476-.636a.096.096 0 0 0-.138-.042.096.096 0 0 0-.042.138c.348.666.912.894 1.439.936z" fill="#D24646"/><path d="M112.797 81.486c.402-.222.924-.624 1.661-1.295l.306-.282c2.524-2.302 5.168-4.719 5.846-5.822l.03-.048.048-.084a1.98 1.98 0 0 0 .108-1.684c-.12-.3-.312-.57-.558-.786a1.99 1.99 0 0 0-2.32-.186.628.628 0 0 0-.102.024c-3.016 2.932-8.118 7.285-7.321 9.312v.005a.292.292 0 0 0 .024.067l.024.06c.03.077.066.143.108.215.048.084.096.174.174.234.012.012.024.018.036.03.006.012.096.078.234.162l.054.036.042.024c.036.024.078.042.114.06.017.006.029.018.047.024.018.006.03.018.048.024.144.066.306.12.468.144.132.018.276.018.432-.024.168-.036.336-.108.497-.21z" fill="#FCD772"/><path d="M118.559 86.169l.744-.582.587.09c.54-.204.762-.582 1.037-.636.27-.053.684-.365.684-.365.27.371-.198.803-.198.803.036-.012.078-.018.114-.03l.282-.072c.12-.03.24-.06.353-.09.114-.03.228-.06.348-.09.09-.018.18-.042.27-.054.096-.012.186.006.282.018.12.018.743.204.845.222.048.006.15.024.15.024.054.114.066.24.012.354-.096.198-.372.21-.516.192a2.325 2.325 0 0 1-.353-.084c-.09-.024-.066-.048-.222-.024-.09.012-.174.048-.258.072l-.564.162-.125.036s.935.12 1.223.186c.215.048.857.6.857.6.462.395-.216.593-.216.593.036.036.09.102.09.162 0 .048-.03.09-.054.12a.426.426 0 0 1-.18.107.73.73 0 0 1-.377.042c-.036-.006-.072-.018-.108-.03a.732.732 0 0 1-.102-.042 1.178 1.178 0 0 1-.126-.06c-.126-.066-.258-.125-.384-.21-.012-.011-.048-.041-.066-.041l-.719-.006c.245.12.521.545.857.731.048.03.102.06.144.102.042.042.09.096.084.162-.006.06-.06.084-.102.102a.763.763 0 0 1-.432.042c-.078-.012-.15-.042-.228-.072a.778.778 0 0 1-.155-.09c-.024-.012-.042-.03-.066-.048-.462-.462-.96-.678-1.565-.324-.87.51-1.643-.791-1.643-.791l-.204-1.181z" fill="#FAA284"/><path d="M112.455 78.776a1.545 1.545 0 0 0-1.331.012c-.102.047-.167.09-.185.096l-.024.023a1.344 1.344 0 0 0-.378.378c-.006.012-.012.018-.018.03-.186.264-.252.54-.258.786-.012.221.024.437.108.641.018.06.036.108.048.132a.5.5 0 0 1 .048.072c.066.114.15.222.246.324 1.99 2.38 6.691 5.797 7.848 6.23.366-.36 1.415-1.8 1.565-1.991-.6-.894-2.069-2.53-5.228-4.989-.63-.485-1.098-.87-1.493-1.187a3.154 3.154 0 0 0-.948-.557z" fill="#FCD772"/><path d="M120.13 85.502a8.337 8.337 0 0 0-.432-.581l-1.835 2.212c.294.174.534.3.702.36.36-.36 1.409-1.799 1.565-1.99z" fill="#fff"/><path d="M154.047 65.244s-1.535-1.391-6.511-.528c-.348.06-1.325 1.493-1.325 1.493s-.288 2.278-.624 2.818c-.33.54-.701 1.613-.701 1.613s-.54 1.948.581 2.896c0 0 1.847.287 3.31.287 2.728 0 5.84-1.157 5.84-1.157l-.57-7.422z" fill="#702B16"/><path d="M141.366 80.473l3.478-8.124a1.39 1.39 0 0 1 .089-.21 1.728 1.728 0 0 1 2.327-.737 1.73 1.73 0 0 1 .785 2.224l.012.006-4.065 8.13a1.468 1.468 0 0 1-1.834.803 1.468 1.468 0 0 1-.792-2.092z" fill="#F45B79"/><path d="M149.328 94.562h2.069c4.16-.192 4.886-1.025 5.078-2.41-.042-2.513-.594-4.479-1.943-5.816l-8.753.03c-1.385 1.349-1.865 2.956-1.865 5.228 0 0 .006.845.024 1.145.791 1.373 2.356 1.823 5.39 1.823z" fill="#263544"/><path opacity=".15" d="M155.474 87.595a5.572 5.572 0 0 0-.942-1.26l-8.753.03c-.21.205-.396.415-.564.63.738.378 3.4 1.355 10.259.6z" fill="#000"/><path d="M153.195 124.468c-.582 1.667-2.086 3.495-2.086 3.495l-1.308.15-1.313.324s-.329.336-.042.827h3.334l1.139-2.836-.078 2.836h.348l.707-3.525s-.065-.84-.701-1.271z" fill="#51463A"/><path d="M153.195 124.462l-.84-.762-.941.762s-1.013 3.231-1.613 3.651l1.199-.006c-.006-.006 1.613-1.979 2.195-3.645z" fill="#FAA284"/><path d="M152.782 124.504s-1.313 4.749-.834 4.821h2.626s.39.132-.036-4.725l-.959-.114-.797.018z" fill="#665846"/><path d="M152.781 124.474l-.437 3.591c.228.048 1.439-.192 1.894.144 0 0 .276-1.643.306-3.735l-.809-1.085-.954 1.085z" fill="#FAA284"/><path d="M150.09 92.835a3.08 3.08 0 0 0-2.92-3.226h-.156a3.075 3.075 0 0 0-3.052 3.436l.504 15.379.006.239h.03a2.077 2.077 0 0 0 2.062 1.781 2.062 2.062 0 0 0 2.027-1.643h.012l.006-.072c.03-.156.036-.317.03-.479l1.391-14.935c.03-.162.054-.318.06-.48zM156.487 91.912c.006-1.655-1.331-3.04-2.98-3.088h-.132a3.09 3.09 0 0 0-3.04 3.058c0 .174.012.348.042.516l1.188 15.126c-.006.054-.006.108-.006.162a2.07 2.07 0 0 0 2.014 2.057h.09a2.086 2.086 0 0 0 2.039-1.817h.029v-.491l.714-14.522c.024-.15.042-.84.042-1.001z" fill="#263544"/><path d="M153.01 124c-.096-.605-.18-1.175-.264-1.703-.462-3.021-.744-4.844-1.265-6.859-.996-3.855-1.331-4.73-2.974-7.806l-.018-.036a2.058 2.058 0 0 0-2.632-1.187 2.077 2.077 0 0 0-1.319 2.422l-.018.006.048.114.036.108c.036.102.084.204.132.294l6.361 15.301.096.228.234-.084 1.265-.468.144-.054.197-.072-.023-.204z" fill="#263544"/><path d="M155.713 107.62l-.006-.03a2.044 2.044 0 0 0-.623-1.403 2.09 2.09 0 0 0-1.391-.593h-.084a2.08 2.08 0 0 0-2.039 1.858h-.018l.006.126v.114c0 .114.012.222.03.33l1.007 16.542 2.003.084c.09-.486.192-1.032.27-1.463l.06-.318c.551-3.004.881-4.82 1.049-6.895.318-3.975.288-4.91-.264-8.352z" fill="#263544"/><path d="M157.692 82.074l-3.358-8.172a1.724 1.724 0 0 1 1.026-2.386 1.727 1.727 0 0 1 2.134.995l.012-.006 2.95 8.591a1.464 1.464 0 0 1-2.674 1.194.863.863 0 0 1-.09-.216z" fill="#FF788C"/><path d="M148.483 70.885s.102-.192.204-.258c.102-.065.455-.24.581-.24h1.985s.521.079.773.45l.084.252h-3.729l.102-.204z" fill="#D8D8D8"/><path d="M157.134 72.168c-.299-.611-1.594-.965-2.632-1.001-.018-.006-.036-.006-.054-.012-.713-.132-1.786-.204-3.195-.204-1.169 0-2.357.048-3.148.09-1.619.084-1.619.084-1.715.252l-.03.072-.006.066a45.1 45.1 0 0 1-.294 1.637 5.262 5.262 0 0 1-.791 1.594c-.587.804-1.187 1.77-.947 2.974.216 1.08.857 1.979 1.715 2.434.221.972.323 2.926.233 3.796-.084.827-.653 2.362-.977 3.01-.126.107 3.849.251 4.803.251 2.53 0 4.802-.401 4.802-.401-.288-.72-.528-1.847-.69-2.896-.185-1.241-.191-3.73.222-4.659.324-.713.612-1.445.894-2.158.18-.456.359-.912.551-1.361l.306-.756.198-.491a1.668 1.668 0 0 0 .755-2.237z" fill="#FF788C"/><path d="M151.93 70.933s-.546-.09-.654-.39l-.227-2.308h-1.655l-.144 2.345a1.6 1.6 0 0 1-.636.413c-.12.012-.245.03-.371.048.096.762.599.606 1.72.606 1.14 0 2.483.132 2.555-.642-.198-.03-.402-.054-.588-.072z" fill="#EE8C72"/><path d="M149.4 68.235h1.655l.204 2.099c-.72-.108-1.481-.366-1.949-.552l.09-1.547z" fill="#DD725E"/><path opacity=".12" d="M152.746 80.1c.563-.023.875-.39.875-.39l-8.136.007c.15.132.312.246.486.342.059.018.119.03.173.042 2.015.006 6.176.018 6.602 0z" fill="#666"/><path d="M149.856 71.582s-.054 1.217-.732 1.253c0 0-1.151-.138-1.151-1.787 0 0 .414-.21.678-.42 0 0 .293-.21.647-.27v.036s-.455.066-.719.378c0 0-.222.294.246.534.467.24 1.031.276 1.031.276z" fill="#fff"/><path d="M151.259 70.358s.497.102.737.354c.246.252 1.163.288 1.163.288s-.743 2.152-2.422 1.787c0 0-.893-.102-.881-1.206 0 0 1.367.06 1.918-.317 0 0 .294-.156.246-.354-.042-.198-.216-.366-.767-.516l.006-.036z" fill="#fff"/><path d="M145.875 65.244s.33 1.337-.084 2.41c-.414 1.08-2.153 4.635-.33 5.882 0 0-1.037-1.367-.372-2.818.666-1.451 1.781-2.153 1.697-4.845l-.084-.953-.827.324z" fill="#903D1F"/><path d="M146.954 63.709s-1.349-.474-1.349.875 1.349.947 1.349.947v-1.823z" fill="#EE8C72"/><path d="M153.819 65.448c0 2.212-1.667 4.01-3.723 4.01-2.057 0-3.723-1.792-3.723-4.01l.389-3.544c0-2.212 1.259-2.794 3.31-2.794 2.056 0 3.459.558 3.459 2.776l.288 3.562z" fill="#F7A184"/><path d="M153.663 63.505l-.131-1.625c0-2.212-1.403-2.776-3.46-2.776-1.865 0-3.07.486-3.28 2.225.516.504 3.112 2.794 6.871 2.176zM149.94 69.082c1.925 0 3.507-1.571 3.699-3.592l.174.054c-.048 2.17-1.691 3.91-3.717 3.91-1.577 0-2.926-1.062-3.466-2.555.618 1.295 1.865 2.183 3.31 2.183z" fill="#EE8C72"/><path d="M153.567 63.709s1.355-.474 1.355.875-1.355.947-1.355.947v-1.823z" fill="#F7A184"/><path d="M156.349 70.885a.771.771 0 0 1-.318-.383c-.036-.354-.03-.672.03-.858.186-.6 0-.929-.33-1.493-.329-.557-.473-.659-.186-2.278.288-1.613.768-3.046-.395-5.276-1.157-2.236-3.394-2.11-3.394-2.11s.006.012.012.036a3.07 3.07 0 0 0-.551-.078c-2.794-.126-3.208.288-4.161 1.367 0 0 1.013 3.579 5.689 3.747 0 0-.041 2.236-.743 4.886-.701 2.65-1.055 3.31-.6 3.951 0 0 .132-.785.444-1.439-.084 1.763 2.44 2.974 3.262 3.202.911.246 2.44-.288 2.692-1.325.252-1.037-.744-1.493-1.451-1.949z" fill="#903D1F"/><path d="M147.572 60.741s-.372 2.608-.996 2.896l-.539.084s-1.241-2.854 1.013-3.915l.522.935z" fill="#903D1F"/><path d="M147.326 60.447l.018-.12c.024-.174.042-.335.042-.48 0 0 2.284 3.298 5.69 3.106 0 0-.048.606-.354 1.14.024-.342.024-.534.024-.534-3.022-.108-4.515-1.637-5.192-2.71-.078.492-.432 2.536-.978 2.788l-.227.036c.221-.57.791-2.129.977-3.226z" fill="#752B14"/><path d="M148.225 67.024h2.261s.221-.006.066.336c-.102.216-.372.672-1.152.69-.923.024-1.241-.714-1.241-.714s-.162-.312.066-.312z" fill="#D24646"/><path d="M150.587 67.264c.078-.246-.101-.24-.101-.24h-2.261c-.168 0-.126.18-.096.27.432.114 1.319.252 2.458-.03z" fill="#fff"/><path d="M148.938 65.483s-.599-.024-.599.492c0 .51.929.377.959 0 .024-.378.078-3.19-.36-.492z" fill="#EE8C72"/><path d="M151.804 63.876c.09 0 .168-.054.192-.137a.204.204 0 0 0-.132-.258 1.904 1.904 0 0 0-.605-.096c-.204 0-.408.03-.606.096a.204.204 0 0 0-.132.258c.03.083.108.137.192.137.024 0 .042-.006.06-.012a1.64 1.64 0 0 1 .48-.078c.162 0 .323.024.479.078.036.006.054.012.072.012zM146.984 63.876a.213.213 0 0 0 .06-.012c.156-.048.318-.078.479-.078.162 0 .324.024.48.078a.195.195 0 0 0 .252-.126.204.204 0 0 0-.132-.258 1.91 1.91 0 0 0-.606-.095c-.203 0-.407.03-.605.096a.204.204 0 0 0-.132.258.231.231 0 0 0 .204.137z" fill="#702B16"/><path d="M151.331 64.938c0 .324-.132.588-.294.588-.162 0-.294-.264-.294-.588 0-.324.132-.587.294-.587.162 0 .294.263.294.587z" fill="#602C05"/><path d="M151.079 64.404s.318-.012.336-.15c0 0-.06.366-.144.408l-.192-.258zM147.296 64.938c0 .324.132.588.294.588.162 0 .294-.264.294-.588 0-.324-.132-.587-.294-.587-.162 0-.294.263-.294.587z" fill="#602C05"/><path d="M147.541 64.404s-.317-.012-.335-.15c0 0 .06.366.143.408l.192-.258z" fill="#602C05"/><path d="M165.098 90.03c-.318-.767-2.464-5.773-4.797-8.999l-.006-.006v-.006a1.345 1.345 0 0 0-1.84-.461 1.345 1.345 0 0 0-.456 1.846c.036.067 3.609 6.458 5.762 8.4l1.337-.773z" fill="#F2F2F2"/><path d="M164.527 88.759l-1.739 1.013c-.077.03-.203-.108-.203-.108-2.123-2.62-4.701-7.195-4.701-7.195a1.464 1.464 0 0 1 .498-2.014 1.47 1.47 0 0 1 2.014.498c1.703 2.35 3.286 5.635 4.155 7.56 0 .012.108.168-.024.246z" fill="#FF788C"/><path d="M163.58 93.31s3.513 1.24 3.615 5.528c.102 4.286-2.74 4.856-1.085 7.026 0 0-.671.258-1.289-.257 0 0-2.41 3.429-6.907.275 0 0-.845-.845-.635-2.344 0 0-.516.773-.258 1.655 0 0-1.721-4.995.348-7.165l6.211-4.718z" fill="#903D1F"/><path d="M168.658 107.268l-.006.018c-.024.102-.078.168-.108.21-.03.042-.06.084-.096.12l-.006.006-.006.006-.018.017-.018.012c-.6.63-1.961.15-3.963-.653-.228-.09-.444-.18-.648-.258l-.089-.036-.066-.072a1.118 1.118 0 0 1-.402-1.169v-.006l.006-.018c.048-.174.144-.336.27-.468a1.106 1.106 0 0 1 .935-.335h.024-.006c.486.06 1.463.455 2.896 1.061l.03.012.138.06c.347.144.587.27.749.39a.75.75 0 0 1 .234.221.796.796 0 0 1 .138.264c.024.084.036.18.042.282v.066c0 .018 0 .042-.006.066v.024l-.006.03c-.006.054-.018.108-.024.15h.006z" fill="#E5E5E5"/><path d="M169.09 102.309l.264.108c.018.006.06.024.108.035.21.072.414.144.545.222l.216.12-.018.252c-.042.546-.929 3.418-1.577 4.395a.917.917 0 0 1-.125.168l-.018.018-.03.036-.042.03c-.006.006-.018.018-.036.024a.992.992 0 0 1-.354.167c-.06.018-.132.024-.204.03a.977.977 0 0 1-.318-.047c-.102-.036-.162-.072-.186-.084-.048-.024-.084-.06-.114-.078l-.024-.018-.029-.03c.006.006.006.012.017.018-.017-.012-.041-.042-.071-.078a.958.958 0 0 1-.234-.762 1.63 1.63 0 0 1 .126-.503c.072-.168.156-.372.257-.636.522-1.319 1.355-2.812 1.661-3.172l.186-.215z" fill="#F7A184"/><path d="M167.249 105.703c-.108.263-.192.467-.258.635a1.66 1.66 0 0 0-.125.504.959.959 0 0 0 .233.761c.03.036.054.06.072.078l-.018-.018.03.03.024.018a.937.937 0 0 0 .3.162.82.82 0 0 0 .318.048.728.728 0 0 0 .204-.03.91.91 0 0 0 .353-.168c.012-.012.024-.018.036-.024l.042-.03.03-.036.018-.018c.048-.054.09-.108.126-.168.444-.665.996-2.224 1.319-3.315a44.407 44.407 0 0 0-1.666-.6 17.835 17.835 0 0 0-1.038 2.171z" fill="#E5E5E5"/><path d="M154.514 106.86l-.006-.012c-.036-.096-.03-.186-.03-.234 0-.054.006-.102.012-.15v-.012l.006-.024.006-.018c.156-.851 1.553-1.199 3.67-1.631.24-.048.473-.096.683-.144l.096-.024.096.03c.444.03.833.33.977.756v.006l.006.018a1.103 1.103 0 0 1-.515 1.307c-.018.012-.03.018-.042.024-.006 0-.012.006-.024.012-.438.216-1.469.419-2.998.707l-.03.006-.15.03c-.366.066-.635.096-.839.09a.932.932 0 0 1-.576-.198.949.949 0 0 1-.186-.216l-.006-.006-.006-.012-.006-.012-.012-.018c-.006-.012-.018-.036-.03-.053l-.012-.018-.012-.03a1.207 1.207 0 0 1-.06-.138l-.012-.036z" fill="#CCC"/><path d="M150.461 105.948l.072-.275c.006-.018.012-.06.024-.108.048-.216.09-.426.15-.57l.09-.234.252-.012c.546-.03 3.513.468 4.563.984a.78.78 0 0 1 .185.102l.024.012.036.024.036.035.03.03a.927.927 0 0 1 .27.528.841.841 0 0 1-.006.324c-.024.108-.048.168-.054.192-.018.048-.048.096-.066.126l-.018.024-.024.036c.006-.006.006-.012.012-.018a.955.955 0 0 1-.791.419 1.573 1.573 0 0 1-.516-.06 37.673 37.673 0 0 0-.665-.174c-1.379-.347-2.968-.971-3.364-1.223l-.24-.162z" fill="#F7A184"/><path d="M155.971 107.226c.03-.036.054-.066.066-.084-.006.006-.012.012-.012.018l.024-.036.018-.024a2.2 2.2 0 0 0 .066-.126c.006-.018.036-.084.054-.192a.928.928 0 0 0-.048-.521.927.927 0 0 0-.216-.33l-.029-.03-.036-.036-.036-.024-.024-.012a1.121 1.121 0 0 0-.186-.102c-.726-.354-2.375-.702-3.502-.875-.078.401-.198 1.055-.341 1.732.659.258 1.516.546 2.296.744.276.072.486.126.665.174.18.048.354.066.516.06a.995.995 0 0 0 .725-.336z" fill="#CCC"/><path d="M151.217 105.403c-.078.24-.27.444-.57.605-.024.012-.623.294-1.786-.209l-1.211-.048c-.09-.012-.192-.06-.18-.228 0-.018.006-.036.012-.048.03-.09.114-.15.24-.168l.881-.066-1.253-.204h-.012a.18.18 0 0 1-.114-.096.326.326 0 0 1-.018-.216c.042-.138.162-.215.276-.185l1.151.107-1.247-.413a.197.197 0 0 1-.12-.102.283.283 0 0 1-.018-.222c.048-.144.18-.228.3-.192l1.343.42v-.006l-1.044-.582a.22.22 0 0 1-.119-.114.305.305 0 0 1-.024-.228c.048-.143.173-.227.293-.191h.012l1.181.599c.066.012.474.096.654.18.09.036.198.054.234.042.006-.084-.114-.426-.24-.713a.492.492 0 0 1 .03-.444c.06-.096.126-.138.186-.138.036 0 .072.024.09.066v.012s.036.108.084.21c.108.216.281.503.413.719.048.078.09.144.114.186.21.366.276.732.288.815.06.066.3.444.174.852zM169.773 125.734l-5.749-3.711-.012-.006-.012-.006a1.15 1.15 0 0 1-.372-1.643l.012-.018.012-.018c.186-.246.449-.402.755-.444.306-.042.606.036.846.216 0 0 2.17 1.043 3.555 2.452l1.715 1.559.276.24-.99 1.415c-.012-.018-.03-.03-.036-.036z" fill="#FAA284"/><path d="M167.705 124.397l1.217-1.745 1.612 1.463.276.24-.989 1.415c-.024-.018-.042-.03-.048-.036l-2.068-1.337z" fill="#E5E5E5"/><path d="M164.635 122.034H164.593a1.149 1.149 0 0 1-1.211-1.043V120.973l-.713-5.414V115.517a1.282 1.282 0 0 1 1.145-1.349h.06a1.28 1.28 0 0 1 1.355 1.199v.066l.426 5.294v.024a1.154 1.154 0 0 1-1.02 1.283z" fill="#FAA284"/><path d="M162.657 115.559V115.517a1.282 1.282 0 0 1 1.145-1.349h.06a1.281 1.281 0 0 1 1.355 1.199v.066l.353 4.407c-.815.078-1.624.126-2.338.12l-.575-4.401z" fill="#EE8C72"/><path d="M160.33 127.598l.294-2.302c.36-1.943-.024-4.317-.024-4.317a1.152 1.152 0 0 0-1.103-1.187h-.036c-.611 0-1.121.492-1.145 1.103 0 .048 0 .09.006.144v.024l.246 6.841c0 .018 0 .042.006.06h1.726c.024-.078.03-.162.036-.246l-.006-.12z" fill="#FAA284"/><path d="M158.567 127.905v.06h1.727c.024-.078.03-.162.036-.246v-.12l.276-2.159h-2.128l.089 2.465z" fill="#E5E5E5"/><path d="M159.461 122.082H159.419a1.147 1.147 0 0 1-1.097-1.163V120.901l-.15-5.462.006-.018v-.024a1.279 1.279 0 0 1 1.277-1.223h.06c.336.012.653.162.887.414.234.251.354.581.336.923 0 .012 0 .03-.006.042v.024l-.12 5.306v.096a1.163 1.163 0 0 1-1.151 1.103z" fill="#FAA284"/><path d="M160.726 115.565v-.012c0-.012 0-.024.006-.042a1.301 1.301 0 0 0-.336-.923 1.286 1.286 0 0 0-.887-.414h-.06c-.683 0-1.247.533-1.277 1.223v.024l-.006.018.12 4.407c.57.042 1.403.09 2.338.126l.102-4.395v-.012z" fill="#EE8C72"/><path d="M158.417 127.089s-.677.689-1.84 1.127c0 0-2.093-.755-1.541 1.109h5.654s.186-1.331-.18-2.224c0 0-.132-.066-.33.138-.198.204-1.049.324-1.373.21.012 0-.174-.426-.39-.36z" fill="#F45B79"/><path d="M156.577 128.216s-2.093-.756-1.541 1.109h5.654s.03-.222.042-.492h-3.795c-.12-.329-.36-.617-.36-.617zM168.988 125.35s.018.965-.485 2.105c0 0-2.009.965-.288 1.876l3.969-4.035s-.822-1.061-1.709-1.433c0 0-.144.048-.132.33.012.282-.503.977-.815 1.127-.006 0-.438-.174-.54.03z" fill="#F45B79"/><path d="M168.503 127.448s-2.009.966-.288 1.877l3.969-4.035s-.138-.174-.324-.378l-2.662 2.71c-.324-.138-.695-.174-.695-.174z" fill="#F45B79"/><path d="M164.545 104.635c-1.277-.239-1.756-.173-1.756-.173s-2.207-.126-4.197.197c0 0-1.355 7.801-1.355 8.083 2.47.845 5.57.875 8.352.083 0-.054-1.044-8.19-1.044-8.19z" fill="#E5E5E5"/><path d="M165.474 111.92c-.27-2.128-.929-7.291-.929-7.291-.408-.078-.456-.12-.714-.15l-.089 2.543h-4.743l.234-2.459c-.216.024-.432.054-.642.09 0 0-.959 5.498-1.259 7.429l-1.343 6.883s5.354 1.199 10.541-.138l-1.056-6.907z" fill="#FC597F"/><path d="M161.128 105.691c.893-.018 1.685-.612 1.721-1.235-.816-.084-1.535-.006-1.535-.006l-.186.006s-.732-.042-1.655.108c.09.599.774 1.145 1.655 1.127z" fill="#EE8C72"/><path d="M162.171 102.669h-2.2v2.254h2.2v-2.254z" fill="#EE8C72"/><path d="M162.171 104.162v-1.487h-2.2v1.205c.461.132 1.319.342 2.2.282z" fill="#DD725E"/><path d="M157.8 98.891s-1.313-.462-1.313.852c0 1.313 1.313.923 1.313.923v-1.775z" fill="#EE8C72"/><path d="M164.666 98.891s1.313-.462 1.313.852c0 1.313-1.313.923-1.313.923v-1.775z" fill="#F7A184"/><path d="M164.791 100.336c0 1.901-1.661 3.441-3.711 3.441-2.051 0-3.711-1.54-3.711-3.441v-3.052c0-1.9 1.66-3.441 3.711-3.441 2.05 0 3.711 1.54 3.711 3.441v3.052z" fill="#F7A184"/><path d="M161.08 103.478c-2.051 0-3.711-1.541-3.711-3.442v.3c0 1.901 1.66 3.441 3.711 3.441 2.05 0 3.711-1.54 3.711-3.441v-.3c0 1.901-1.667 3.442-3.711 3.442zM159.725 97.968s1.637-.846 1.691-1.883c0 0 1.175 1.559 1.229 2.35 0 0 .821-.575.953-1.283 0 0 .576.516 1.187 1.217V97.29c0-1.9-1.66-3.441-3.711-3.441-2.05 0-3.711 1.54-3.711 3.441v2.146c.39-.401 1.241-1.15 2.362-1.468z" fill="#EE8C72"/><path d="M159.797 101.739h2.057s.203-.006.053.306c-.089.198-.341.612-1.049.63a1.191 1.191 0 0 1-1.133-.648s-.132-.288.072-.288z" fill="#D24646"/><path d="M161.944 101.961c.072-.228-.09-.222-.09-.222h-2.057c-.156 0-.114.162-.09.246.402.102 1.205.228 2.237-.024z" fill="#fff"/><path d="M160.463 100.45s-.564-.018-.564.462c0 .486.875.36.905 0 .03-.36.078-3.01-.341-.462z" fill="#EE8C72"/><path d="M161.775 98.903a.153.153 0 0 1 .114-.186c.006 0 .294-.072.636-.072a1.7 1.7 0 0 1 .539.079c.084.03.126.113.096.197a.152.152 0 0 1-.198.096 1.483 1.483 0 0 0-.437-.06c-.15 0-.294.018-.396.03l-.162.03c-.012.006-.024.006-.036.006a.16.16 0 0 1-.156-.12zM158.112 98.903a.153.153 0 0 1 .114-.186c.006 0 .294-.072.636-.072.173 0 .359.019.539.079.084.03.126.113.096.197a.152.152 0 0 1-.198.096 1.488 1.488 0 0 0-.437-.06c-.15 0-.294.018-.396.03l-.162.03c-.012.006-.024.006-.036.006a.16.16 0 0 1-.156-.12z" fill="#903D1F"/><path d="M162.896 99.371c-.03.102-.162.132-.234.138a.338.338 0 0 0-.197-.066c-.216 0-.396.204-.396.45 0 .252.174.449.396.449.215 0 .395-.203.395-.45 0-.06-.012-.12-.03-.173.096-.132.066-.348.066-.348zM158.826 99.443a.36.36 0 0 0-.204.066c-.06-.006-.228-.024-.258-.144 0 0-.036.258.096.378a.602.602 0 0 0-.024.15c0 .252.18.45.396.45.215 0 .395-.204.395-.45-.006-.246-.186-.45-.401-.45z" fill="#602C05"/><path d="M164.911 99.341s-.066.102-.474.893c0 0 .294-2.104-1.013-3.89 0 0 .24.413-.689 1.792-.306-.9-.684-2.284-1.529-2.83.15.492-.396 1.145-.654 1.535-.761 1.17-2.446 1.157-3.124 2.416 0 0-.965-.57-.653-2.842.312-2.272 2.518-4.185 4.892-3.465.006 0 6.086-.222 3.244 6.391z" fill="#903D1F"/><path d="M163.334 95.732c0 .546-.462 1.499-.462 1.499-.03-1.091-1.912-2.896-1.912-2.896 0 .707-.9 1.99-.9 1.99-.599 1.146-1.966 1.092-2.458 1.86-.27.419-.312.749-.288.958a.641.641 0 0 0 .126.102c.678-1.259 2.363-1.24 3.124-2.416.252-.39.803-1.043.654-1.535.845.54 1.223 1.925 1.528 2.83.93-1.379.69-1.792.69-1.792.462.635.725 1.313.869 1.918.06-1.637-.971-2.518-.971-2.518z" fill="#752B14"/><path d="M164.785 94.12s3.136-.294 2.746.743c-.39 1.031-1.415 2.338-1.912 1.877-.492-.462-1.05-2.195-1.05-2.195l.216-.425zM164.443 93.885s-.827-3.04-1.66-2.314c-.834.725-1.691 2.146-1.086 2.446.606.3 2.423.21 2.423.21l.323-.342z" fill="#FCD772"/><path d="M164.749 94.779a.269.269 0 0 1-.372.066l-.497-.342a.268.268 0 0 1-.066-.372l.389-.563a.269.269 0 0 1 .372-.066l.498.342c.12.083.15.251.066.371l-.39.564z" fill="#FFC127"/><path d="M165.001 94.173s1.991.21 1.835.528c-.15.311-1.835-.528-1.835-.528zM164.887 94.335c.036.024 1.883.953 1.697 1.217-.186.27-1.697-1.217-1.697-1.217zM164.803 94.46s1.409 1.434 1.229 1.578c-.186.15-1.229-1.577-1.229-1.577zM164.288 93.65s-.654-1.492-.834-1.462c-.18.036.132.797.834 1.463zM164.162 93.795s-1.176-1.343-1.403-1.013c-.228.33 1.403 1.013 1.403 1.013zM163.958 94.089s-1.247-.864-1.349-.54c-.102.318 1.349.54 1.349.54z" fill="#FFC127"/><path d="M169.168 102.573c.168.192.425.3.767.318.03 0 .69.012 1.547-.918l1.091-.533c.078-.048.15-.132.072-.282a.108.108 0 0 0-.03-.042c-.066-.072-.168-.09-.288-.06l-.833.3 1.061-.702h.012a.23.23 0 0 0 .066-.138.29.29 0 0 0-.072-.203c-.096-.108-.24-.132-.329-.06l-1.008.569.966-.887a.201.201 0 0 0 .066-.138.288.288 0 0 0-.078-.21c-.102-.114-.258-.132-.348-.054l-1.055.929v-.006l.713-.959a.247.247 0 0 0 .066-.15.287.287 0 0 0-.072-.216c-.102-.114-.252-.138-.348-.054l-.006.006-.006.006-.833 1.026c-.054.042-.396.281-.528.431-.066.066-.162.132-.192.132-.041-.072-.065-.437-.071-.75a.502.502 0 0 0-.126-.323c-.024-.03-.054-.048-.078-.066-.096-.06-.168-.078-.222-.048-.036.018-.054.054-.054.096v.012s.012.114.006.222c-.012.24-.054.575-.084.821-.012.09-.024.168-.03.222-.042.42.048.78.066.863-.024.09-.09.528.192.846zM132.72 127.227l.654-6.361v-.024l.018-.168a1.386 1.386 0 0 1 1.553-1.109l.024.006.024.006c.359.065.671.269.881.575.21.306.288.666.216 1.031 0 0 .312 1.074-.468 3.322l-.761 2.686-.114.426-2.051-.306a.376.376 0 0 0 .024-.084z" fill="#FAA284"/><path d="M134.549 122.286h-.03l-.024-.006a1.384 1.384 0 0 1-1.098-1.583v-.024l.636-5.486.006-.024.006-.03a1.534 1.534 0 0 1 1.739-1.223l.03.006.042.006c.395.078.749.306.977.647.234.342.318.75.24 1.157-.006.018-.006.03-.012.048l-.006.012v.012l-.936 5.259v.024c-.006.03-.006.059-.012.089a1.395 1.395 0 0 1-1.558 1.116z" fill="#FAA284"/><path d="M134.033 115.187l.006-.024.006-.03a1.535 1.535 0 0 1 1.739-1.223l.03.006.042.006c.396.078.749.306.977.647.234.342.318.75.24 1.157-.006.018-.006.03-.012.048l-.006.012v.012l-.761 4.275-2.782-.413.521-4.473z" fill="#EE8C72"/><path d="M133.212 118.73l.414-3.423c0-.024.006-.048.006-.072a1.96 1.96 0 0 1 .713-1.313c.408-.33.917-.48 1.433-.42l.048.006a1.936 1.936 0 0 1 1.685 2.129v.042l-.006.036-.684 3.741a34.305 34.305 0 0 1-3.609-.726z" fill="#2E3E49"/><path d="M140.383 127.16l-.354-2.763c-.438-2.339.03-3.352.03-3.352a1.374 1.374 0 0 1 1.325-1.421h.048c.731 0 1.349.594 1.373 1.325 0 .054 0 .114-.006.168v.024l-.294 6.385c0 .024 0 .048-.006.072h-2.074a.942.942 0 0 1-.042-.294v-.144z" fill="#FAA284"/><path d="M141.432 122.37h.06a1.377 1.377 0 0 0 1.319-1.403v-.024l.18-5.522-.006-.024v-.03a1.542 1.542 0 0 0-1.535-1.469H141.378a1.546 1.546 0 0 0-1.475 1.607c0 .018 0 .036.006.048v.036l.15 5.336V121.039a1.384 1.384 0 0 0 1.373 1.331z" fill="#FAA284"/><path d="M139.909 115.577v-.018c0-.018-.006-.03-.006-.048a1.52 1.52 0 0 1 .408-1.109c.275-.306.659-.48 1.067-.498H141.45c.821 0 1.499.648 1.535 1.469v.03l.006.024-.15 4.509h-2.812l-.12-4.341v-.018z" fill="#EE8C72"/><path d="M139.441 115.529a1.927 1.927 0 0 1 .516-1.403 1.946 1.946 0 0 1 1.355-.63h.048a1.946 1.946 0 0 1 1.984 1.859l.006.036v.036l-.114 3.531c-.845.084-2.164.198-3.681.246l-.102-3.603c-.012-.018-.012-.042-.012-.072z" fill="#2E3E49"/><path d="M143.194 116.338c-.569.81-2.05 1.283-3.909 1.14h-1.433c-1.666 0-3.117.185-3.681-.522-1.043-2.051-.414-2.944-.438-4.725l9.617.018c-.012 1.134.192 2.225-.156 4.089zM142.697 126.639s.815.828 2.212 1.355c0 0 2.518-.911 1.853 1.331h-6.805s-.222-1.601.215-2.674c0 0 .162-.084.396.162s1.259.39 1.649.252c0 .006.222-.51.48-.426z" fill="#2E3E49"/><path d="M144.909 127.994s2.518-.912 1.853 1.331h-6.805s-.036-.264-.048-.594h4.568c.15-.395.432-.737.432-.737zM142.613 127.694a.15.15 0 0 0 .132-.084c.21-.419.497-.587.503-.593a.176.176 0 0 0 .066-.222.144.144 0 0 0-.198-.078c-.017.006-.377.21-.629.726a.169.169 0 0 0 .06.221c.018.024.042.03.066.03zM143.206 128.024c.054 0 .102-.03.126-.084.21-.419.498-.587.504-.593a.176.176 0 0 0 .066-.222c-.036-.084-.126-.114-.198-.072-.018.006-.378.21-.63.725a.17.17 0 0 0 .06.222c.018.018.048.024.072.024z" fill="#E9E6ED"/><path d="M143.794 128.353a.15.15 0 0 0 .132-.084c.21-.419.498-.587.504-.593.072-.042.101-.138.066-.222-.036-.084-.126-.114-.198-.072-.018.006-.378.21-.63.726a.169.169 0 0 0 .06.221.09.09 0 0 0 .066.024z" fill="#E9E6ED"/><path d="M135.107 129.325s-.078-1.301-.258-1.943c0 0-.713.036-.869-.186-.156-.222-1.085-1.169-1.511-.006l-.336.654s-1.402-.474-.953 1.475h3.927v.006z" fill="#2E3E49"/><path d="M132.162 127.856c1.074.294 1.308.875 1.308.875h1.582c.036.33.048.594.048.594h-3.927c-.461-1.979.989-1.469.989-1.469zM133.266 127.4a.148.148 0 0 0 .125-.072c.042-.078.024-.18-.042-.228-.012-.012-.353-.252-.881-.234-.084.006-.144.078-.144.168 0 .09.072.162.15.162.438-.018.708.18.708.18.03.018.06.024.084.024zM133.032 127.862a.148.148 0 0 0 .126-.072c.042-.078.024-.18-.042-.228-.012-.012-.354-.252-.881-.234-.084.006-.144.078-.144.168 0 .09.072.162.15.162.437-.018.707.18.707.18.03.018.06.024.084.024z" fill="#E9E6ED"/><path d="M140.353 100.822s-1.391-.36-3.202 0v1.025h3.285l-.083-1.025z" fill="#EAEAEA"/><path d="M146.45 106.626l.012-.012a.767.767 0 0 0 .15-.246c.024-.06.042-.114.06-.174v-.012l.006-.03.006-.024c.246-1.013-1.121-2.087-3.232-3.603-.239-.174-.467-.336-.683-.492l-.096-.072-.12-.018a1.344 1.344 0 0 0-1.445.348l-.006.006-.012.012a1.328 1.328 0 0 0-.042 1.738.083.083 0 0 1 .018.024c.372.456 1.409 1.188 2.95 2.255l.03.024.15.102c.372.257.653.419.881.509.12.054.246.09.378.096.126.012.24 0 .36-.036.102-.03.204-.078.312-.144l.006-.006.017-.012.018-.012.024-.018a.42.42 0 0 0 .06-.048l.018-.018.03-.024a.902.902 0 0 0 .132-.125l.018.012z" fill="#F7A184"/><path d="M141.096 102.309l.012-.012.006-.006a1.343 1.343 0 0 1 1.445-.348l.12.018.096.072c.209.156.443.318.683.492.666.479 1.253.911 1.745 1.313l-1.511 2.254c-1.355-.941-2.266-1.601-2.614-2.021-.006-.012-.012-.018-.018-.024-.012-.018-.024-.03-.036-.048a1.35 1.35 0 0 1-.228-1.115c.048-.21.15-.413.3-.575z" fill="#7ACBDD"/><path opacity=".15" d="M133.722 112.795c.012-.18.018-.366.012-.564l9.617.018c-.006.204 0 .408.006.612-1.122.354-5.289 1.439-9.635-.066z" fill="#000"/><path d="M130.01 106.417l.012.018c.066.108.15.168.198.204.054.042.102.071.15.101l.006.006.006.006.024.012.024.012c.923.492 2.296-.569 4.287-2.248.227-.192.443-.372.647-.54l.09-.077.042-.108a1.34 1.34 0 0 0 .018-1.487v-.006l-.012-.018a1.364 1.364 0 0 0-.486-.438 1.33 1.33 0 0 0-1.139-.054c-.018.006-.042.018-.06.024-.006.006-.018.006-.03.012h.006c-.533.252-1.499 1.073-2.908 2.308l-.029.024-.138.12c-.342.294-.57.528-.714.726a1.126 1.126 0 0 0-.186.341.91.91 0 0 0-.054.354c.006.108.024.216.06.336v.006l.006.018.006.018.012.03a.625.625 0 0 0 .03.072l.012.024.018.036c.03.06.06.12.084.162l.018.006z" fill="#F7A184"/><path d="M133.805 101.83c.012-.006.018-.012.024-.012.018-.006.036-.018.06-.024.372-.15.786-.132 1.139.054.192.102.36.252.486.437l.012.018v.006a1.34 1.34 0 0 1-.018 1.487l-.042.108-.09.078c-.204.168-.42.348-.648.54-.737.623-1.391 1.157-1.966 1.559l-1.535-2.225c1.229-1.073 2.087-1.792 2.578-2.026z" fill="#97DAEF"/><path d="M134.171 101.733c1.541-.288 3.406-.336 3.406-.336l2.626-.036s.611.09 2.428.468c0 0 .773 10.276.767 10.624-2.548.78-6.043.971-9.754 0 0-.06.527-10.72.527-10.72z" fill="#97DAEF"/><path opacity=".15" d="M139.807 104.635l-.588-1.379-.449.738-.492-.768-.683 1.337c-.882-.653-1.086-2.446-1.134-3.112.654-.048 1.116-.06 1.116-.06l2.626-.036s.245.036.887.156c-.024 2.003-1.283 3.124-1.283 3.124z" fill="#000"/><path d="M139.046 102.782c-.042 0-.24.965-.282.959-.03 0-.24-.977-.27-.983-.893-.15-1.505-.695-1.547-1.325.894-.09 1.673-.006 1.673-.006l.204.006s.797-.048 1.805.114c-.096.66-.624 1.253-1.583 1.235z" fill="#EE8C72"/><path d="M140.221 99.287h-2.65v2.716h2.65v-2.716z" fill="#EE8C72"/><path d="M137.571 101.14v-1.859h2.65v1.463c-.558.174-1.631.444-2.65.396z" fill="#DD725E"/><path d="M143.362 111.824c.024.354.036.654.036.702-2.548.779-6.043 1.001-9.754.03 0-.012.012-.408.036-.9 3.849 1.037 8.585.354 9.682.168z" fill="#61C0D6"/><path d="M135.838 112.981h-.03l-.54-.03a.468.468 0 0 1-.461-.456v-.024l.024-.449c.012-.246.233-.432.485-.426h.03l.54.03c.258.012.462.21.462.455v.024l-.024.45c-.012.246-.228.426-.486.426.006 0 0 0 0 0zm-.875-.498v.012c0 .15.131.288.317.3l.54.03h.018c.18 0 .318-.126.324-.282l.024-.45v-.012c0-.149-.132-.287-.318-.299l-.54-.03h-.018c-.18 0-.317.126-.323.282l-.024.449-.078-.006.078.006z" fill="#F2F2F2"/><path d="M135.041 111.902l1.097.12-.15-10.564-.947.072v10.372z" fill="#D0F4FC"/><path d="M141.162 112.525l.078-.006.078-.006c.006.156.15.282.33.282h.018l.539-.024c.186-.006.318-.144.318-.3v-.012l-.018-.449c-.006-.156-.15-.282-.33-.282h-.018l-.539.024c-.186.006-.318.144-.318.3v.012l.018.449-.078.006-.078.006-.018-.449v-.018c0-.246.21-.444.468-.456l.539-.024h.024c.252 0 .474.186.486.432l.018.449v.018c0 .246-.21.444-.468.456l-.545.024h-.024c-.252 0-.468-.186-.48-.432z" fill="#F2F2F2"/><path d="M141.336 112.039l1.091-.12-.414-10.288-.905-.138.228 10.546z" fill="#D0F4FC"/><path d="M141.426 113.43l1.055-.21-.054-.719-1.055.078.054.851zM136.012 113.496l-1.055-.126.054-.869 1.055.078-.054.917z" fill="#2E3E49"/><path d="M138.77 103.754l-.252-1.001s-1.367-.905-1.367-1.931l-.564.564s.114 2.038 1.032 2.962l.653-1.475c.006 0 .372.755.498.881z" fill="#fff"/><path d="M138.764 103.748l.216-.995s1.367-.905 1.367-1.931l.557.66s-.102 1.942-1.025 2.86l-.654-1.475c0 .006-.341.761-.461.881z" fill="#fff"/><path d="M138.356 112.718c0 .168.132.3.3.3.168 0 .3-.132.3-.3 0-.168-.132-.3-.3-.3-.168 0-.3.132-.3.3zM141.773 113.293c0 .096.078.18.18.18a.18.18 0 0 0 .18-.18.18.18 0 0 0-.18-.18.177.177 0 0 0-.18.18zM135.256 113.167c0 .096.078.18.18.18a.18.18 0 0 0 .18-.18.177.177 0 0 0-.18-.18.185.185 0 0 0-.18.18z" fill="#F2F2F2"/><path d="M141.797 95.402s1.253-.647 1.433.672c.186 1.313-1.187 1.109-1.187 1.109l-.246-1.78z" fill="#EE8C72"/><path d="M134.909 96.374s-1.379-.276-1.194 1.037c.186 1.313 1.445.737 1.445.737l-.251-1.774z" fill="#F7A184"/><path d="M134.987 97.836c.27 1.907 2.152 3.22 4.209 2.932 2.056-.288 3.507-2.068 3.237-3.975l-.431-3.064c-.27-1.906-2.153-3.22-4.209-2.932-2.057.288-3.508 2.069-3.244 3.975l.438 3.064z" fill="#F7A184"/><path d="M139.165 100.546c2.057-.287 3.508-2.068 3.238-3.975l.03.222c.27 1.907-1.181 3.687-3.238 3.975-2.056.288-3.939-1.025-4.208-2.932l-.03-.221c.269 1.906 2.152 3.219 4.208 2.931zM137.799 90.797c1.9-.264 3.651.833 4.119 2.506-.354-.192-.906-.462-1.223-.486-.504-.035-4.287.324-4.665.822-.258.342-.671 1.673-1.313 2.266l-.156-1.133c-.27-1.907 1.181-3.687 3.238-3.975z" fill="#EE8C72"/><path d="M136.863 97.122c.036.252.24.426.462.396.222-.03.366-.258.336-.51-.036-.251-.24-.425-.462-.395-.222.03-.372.258-.336.51zM140.515 96.607c.036.252.239.425.461.395.222-.03.366-.257.336-.51-.036-.251-.24-.425-.462-.395-.221.036-.371.264-.335.51z" fill="#7C3E06"/><path d="M140.191 98.543l-2.063.288s-.203.024-.012.318c.12.186.426.563 1.14.485.845-.096 1.043-.81 1.043-.81s.102-.31-.108-.281z" fill="#D24646"/><path d="M138.069 99.065c-.102-.216.06-.234.06-.234l2.062-.288c.156-.024.138.144.12.234-.378.156-1.169.396-2.242.288z" fill="#fff"/><path d="M139.345 97.338s.564-.101.63.384c.066.486-.828.486-.906.126-.078-.354-.497-3.004.276-.51z" fill="#EE8C72"/><path d="M136.635 96.253c.126-.066.282-.102.432-.126.15-.024.294-.024.401-.024.108 0 .168.006.168.006.084.012.162-.054.174-.138.012-.084-.054-.162-.138-.174-.006 0-.305-.03-.647.018-.174.024-.36.066-.528.156a.158.158 0 0 0-.072.21c.03.06.096.096.162.084.012 0 .03-.006.048-.012zM141.486 95.456c.012-.084-.054-.162-.138-.174-.006 0-.306-.03-.647.018-.174.024-.36.066-.528.156a.158.158 0 0 0-.072.21.158.158 0 0 0 .21.071c.126-.066.282-.102.432-.125.149-.024.293-.024.401-.024.108 0 .168.006.168.006h.036a.148.148 0 0 0 .138-.138z" fill="#752B14"/><path d="M140.814 92.405s.708.407.954 1.163c.234.713.312.695.569 2.62l-.096-.924s-.036-1.72-.383-2.668c0 0-.786-.617-1.044-.191z" fill="#903D1F"/><path d="M135.352 97.327s-.33-2.668-.156-3.166c.144-.426.396-.773.732-.893.341-.12 3.495-.846 4.316-.858 0 0 1.158-.162 1.487.402l.162.378s.036-2.986-2.446-3.466c-1.151-.222-2.356-.366-4.479.78l.612.137s-.096.042-.54.354c-.515.36-2.92 2.093-.006 5.594l.318.738z" fill="#903D1F"/><path d="M141.102 91.487s-.731-2.452-5.096-1.163c0 0 2.122-.294 3.681 1.559 0 0 1.673.257 1.415-.396z" fill="#752B14"/><path d="M139.465 92.003s-.881-1.254-2.488-1.32c0 0 1.457.738 1.901 1.374.006.006.389-.024.587-.054z" fill="#752B14"/><path d="M134.477 110.361l-.294.186c-.024.012-.06.042-.114.078-.222.155-.431.299-.599.377l-.27.126-.228-.192c-.504-.419-2.698-3.309-3.196-4.622a1.122 1.122 0 0 1-.078-.24l-.006-.03-.012-.054v-.066-.054a1.136 1.136 0 0 1 .084-.468.914.914 0 0 1 .114-.215c.072-.108.168-.204.276-.276.108-.078.186-.108.21-.12.06-.024.114-.042.162-.054l.036-.012.048-.012c-.006 0-.018 0-.03.006a1.157 1.157 0 0 1 1.037.288c.15.126.282.281.402.473.114.186.252.408.437.702.924 1.439 1.799 3.297 1.943 3.849l.078.33z" fill="#F7A184"/><path d="M135.946 112.711a.464.464 0 0 0 .204-.048c.036-.018.102-.054.108-.144a.25.25 0 0 0-.072-.186c-.036-.042-.078-.066-.108-.09-.108-.066-.204-.186-.3-.3l-.102-.12h.264l.006.006a1.977 1.977 0 0 0 .27.174c.036.018.059.036.089.048.024.012.048.024.072.03.024.006.048.018.078.024.03.006.054.012.084.012.06 0 .126-.018.198-.048a.32.32 0 0 0 .144-.102.228.228 0 0 0 .054-.144.191.191 0 0 0-.024-.083c.078-.042.186-.12.204-.24.018-.102-.024-.204-.126-.306-.072-.072-.438-.438-.588-.48a5.665 5.665 0 0 0-.509-.096l.162-.054c.018-.006.042-.012.06-.024.036-.012.066-.024.102-.03.03-.006.048-.006.059-.006.006 0 .006 0 .018.006a1.574 1.574 0 0 0 .288.09c.018 0 .048.006.072.006.096 0 .264-.024.336-.191a.448.448 0 0 0-.006-.318c-.006-.048-.03-.054-.15-.078-.03-.006-.132-.042-.234-.072-.168-.054-.276-.09-.324-.096h-.012c-.047-.006-.095-.018-.143-.018h-.048c-.054.006-.114.024-.162.036l-.024.006c-.042.012-.09.024-.132.042-.03.012-.06.018-.096.03-.042.012-.084.024-.132.042a.926.926 0 0 1-.102.03l-.072.024c.078-.156.126-.36.012-.534l-.036-.06-.054.048s-.264.228-.425.27c-.096.024-.18.102-.276.192a.377.377 0 0 1-.462.012l-.264.108-.072.102-.024.018-.833.509.45.924v.012l.006.012c.018.03.377.737.863.737.108 0 .21-.036.306-.102a.622.622 0 0 1 .354-.126c.191 0 .389.12.593.366.018.018.03.03.048.042.042.036.078.06.114.078a.49.49 0 0 0 .162.06h.132z" fill="#FAA284"/><path d="M142.631 110.972l.318.138c.024.012.066.03.12.06.239.12.473.234.647.288l.288.084.198-.222c.437-.492 2.176-3.675 2.47-5.048.024-.078.036-.168.042-.252l.006-.03.006-.054-.006-.066c0-.012-.006-.03-.006-.054a1.09 1.09 0 0 0-.156-.45.875.875 0 0 0-.144-.198 1.212 1.212 0 0 0-.534-.323c-.059-.018-.119-.024-.167-.03l-.036-.006-.054-.006h.03-.126a1.143 1.143 0 0 0-.858.437 1.925 1.925 0 0 0-.329.528c-.084.204-.192.444-.33.755-.702 1.559-1.289 3.532-1.349 4.095l-.03.354z" fill="#F7A184"/><path d="M143.141 112.268c.096 0 .204-.018.318-.054.239-.078.665-.36.551-.845-.366-1.541-.551-1.775-.647-1.811-.078-.18-.264-.318-.45-.318l-1.739.102h-.024l-.018.012c-.054.048-.138.174-.054.318.132.222.318.258.504.258l.857-.024-1.379.473-.036.012-.006.036c0 .006-.036.18.066.288.12.126.258.156.426.156h.054l.42-.09-.9.384-.012.006-.012.012a.1.1 0 0 0-.024.09c.006.066.066.138.168.21.072.054.18.084.288.084a.57.57 0 0 0 .288-.072l.695-.204c-.293.174-.707.413-1.007.587l-.024.018-.006.03c-.006.024-.012.132.192.234a.41.41 0 0 0 .162.03c.096 0 .216-.024.348-.06l.491-.204c.12.282.342.342.51.342z" fill="#FAA284"/></g><defs><clipPath id="clip0"><path fill="#fff" transform="translate(36.012 4)" d="M0 0h303.976v127.362H0z"/></clipPath><clipPath id="clip1"><path fill="#fff" transform="translate(91.77 53.81)" d="M0 0h103.724v78.26H0z"/></clipPath></defs></svg>