<svg width="960" height="226" fill="none" xmlns="http://www.w3.org/2000/svg" viewBox="0 0 960 226"><path fill="#F5FCFF" d="M0 0h960v226H0z"/><path fill-rule="evenodd" clip-rule="evenodd" d="M564.76 82.326h350.262A1.986 1.986 0 0 0 917 80.348v-4.201c0-1.08-.887-1.978-1.978-1.978H564.76a1.986 1.986 0 0 0-1.978 1.978v4.2a1.993 1.993 0 0 0 1.978 1.979z" fill="#D6ECFF"/><path fill-rule="evenodd" clip-rule="evenodd" d="M669.541 82.326h-98.184v118.79h98.184V82.326zM908.436 82.326h-98.429v118.79h98.429V82.326z" fill="#D6ECFF"/><path fill-rule="evenodd" clip-rule="evenodd" d="M669.541 82.326h-98.184v8.646h98.184v-8.646zM908.436 82.326h-98.429v8.646h98.429v-8.646zM818.805 106.062h19.321c.602 0 1.091.489 1.091 1.09v27.223c0 .601-.489 1.091-1.091 1.091h-19.321c-.601 0-1.09-.49-1.09-1.091v-27.223a1.084 1.084 0 0 1 1.09-1.09z" fill="#9AC0E2"/><path fill-rule="evenodd" clip-rule="evenodd" d="M819.366 107.805h18.189v25.917h-18.189v-25.917z" fill="#D6ECFF"/><g opacity=".7" fill="#fff"><path opacity=".7" d="M827.951 107.805l-6.994 25.917h2.079l6.995-25.917h-2.08zM833.018 107.805l-6.984 25.917h3.497l6.995-25.917h-3.508z"/></g><path fill-rule="evenodd" clip-rule="evenodd" d="M850.198 106.062h19.321c.602 0 1.091.489 1.091 1.09v27.223c0 .601-.489 1.091-1.091 1.091h-19.321c-.601 0-1.091-.49-1.091-1.091v-27.223c0-.601.49-1.09 1.091-1.09z" fill="#9AC0E2"/><path fill-rule="evenodd" clip-rule="evenodd" d="M850.77 107.805h18.189v25.917H850.77v-25.917z" fill="#D6ECFF"/><g opacity=".7" fill="#fff"><path opacity=".7" d="M859.344 107.805l-6.994 25.917h2.08l6.994-25.917h-2.08zM864.421 107.805l-6.994 25.917h3.508l6.984-25.917h-3.498z"/></g><path fill-rule="evenodd" clip-rule="evenodd" d="M818.805 152.228h19.321c.602 0 1.091.489 1.091 1.09v27.223c0 .601-.489 1.091-1.091 1.091h-19.321c-.601 0-1.09-.49-1.09-1.091v-27.223a1.084 1.084 0 0 1 1.09-1.09z" fill="#9AC0E2"/><path fill-rule="evenodd" clip-rule="evenodd" d="M819.366 153.971h18.189v25.917h-18.189v-25.917z" fill="#D6ECFF"/><g opacity=".7" fill="#fff"><path opacity=".7" d="M827.951 153.971l-6.994 25.917h2.079l6.995-25.917h-2.08zM833.018 153.971l-6.984 25.917h3.497l6.995-25.917h-3.508z"/></g><path fill-rule="evenodd" clip-rule="evenodd" d="M850.198 152.228h19.321c.602 0 1.091.489 1.091 1.09v27.223c0 .601-.489 1.091-1.091 1.091h-19.321c-.601 0-1.091-.49-1.091-1.091v-27.223c0-.601.49-1.09 1.091-1.09z" fill="#9AC0E2"/><path fill-rule="evenodd" clip-rule="evenodd" d="M850.77 153.971h18.189v25.917H850.77v-25.917z" fill="#D6ECFF"/><g opacity=".7" fill="#fff"><path opacity=".7" d="M859.344 153.971l-6.994 25.917h2.08l6.994-25.917h-2.08zM864.421 153.971l-6.994 25.917h3.508l6.984-25.917h-3.498z"/></g><path fill-rule="evenodd" clip-rule="evenodd" d="M881.59 106.062h19.321c.602 0 1.091.489 1.091 1.09v27.223c0 .601-.489 1.091-1.091 1.091H881.59c-.601 0-1.09-.49-1.09-1.091v-27.223c0-.601.489-1.09 1.09-1.09z" fill="#9AC0E2"/><path fill-rule="evenodd" clip-rule="evenodd" d="M882.162 107.805h18.189v25.917h-18.189v-25.917z" fill="#D6ECFF"/><g opacity=".7" fill="#fff"><path opacity=".7" d="M890.736 107.805l-6.984 25.917h2.08l6.984-25.917h-2.08zM895.814 107.805l-6.995 25.917h3.508l6.994-25.917h-3.507z"/></g><path fill-rule="evenodd" clip-rule="evenodd" d="M881.59 152.228h19.321c.602 0 1.091.489 1.091 1.09v27.223c0 .601-.489 1.091-1.091 1.091H881.59c-.601 0-1.09-.49-1.09-1.091v-27.223c0-.601.489-1.09 1.09-1.09z" fill="#9AC0E2"/><path fill-rule="evenodd" clip-rule="evenodd" d="M882.162 153.971h18.189v25.917h-18.189v-25.917z" fill="#D6ECFF"/><g opacity=".7" fill="#fff"><path opacity=".7" d="M890.736 153.971l-6.984 25.917h2.08l6.984-25.917h-2.08zM895.814 153.971l-6.995 25.917h3.508l6.994-25.917h-3.507z"/></g><path fill-rule="evenodd" clip-rule="evenodd" d="M578.636 106.062h19.321c.602 0 1.091.489 1.091 1.09v27.223c0 .601-.489 1.091-1.091 1.091h-19.321c-.601 0-1.091-.49-1.091-1.091v-27.223c0-.601.49-1.09 1.091-1.09z" fill="#9AC0E2"/><path fill-rule="evenodd" clip-rule="evenodd" d="M579.208 107.805h18.189v25.917h-18.189v-25.917z" fill="#D6ECFF"/><g opacity=".7" fill="#fff"><path opacity=".7" d="M587.782 107.805l-6.984 25.917h2.08l6.984-25.917h-2.08zM592.859 107.805l-6.994 25.917h3.508l6.994-25.917h-3.508z"/></g><path fill-rule="evenodd" clip-rule="evenodd" d="M610.039 106.062h19.321c.602 0 1.091.489 1.091 1.09v27.223c0 .601-.489 1.091-1.091 1.091h-19.321c-.601 0-1.091-.49-1.091-1.091v-27.223c-.01-.601.49-1.09 1.091-1.09z" fill="#9AC0E2"/><path fill-rule="evenodd" clip-rule="evenodd" d="M610.6 107.805h18.189v25.917H610.6v-25.917z" fill="#D6ECFF"/><g opacity=".7" fill="#fff"><path opacity=".7" d="M619.185 107.805l-6.995 25.917h2.08l6.995-25.917h-2.08zM624.252 107.805l-6.984 25.917h3.497l6.994-25.917h-3.507z"/></g><path fill-rule="evenodd" clip-rule="evenodd" d="M578.636 152.228h19.321c.602 0 1.091.489 1.091 1.09v27.223c0 .601-.489 1.091-1.091 1.091h-19.321c-.601 0-1.091-.49-1.091-1.091v-27.223c0-.601.49-1.09 1.091-1.09z" fill="#9AC0E2"/><path fill-rule="evenodd" clip-rule="evenodd" d="M579.208 153.971h18.189v25.917h-18.189v-25.917z" fill="#D6ECFF"/><g opacity=".7" fill="#fff"><path opacity=".7" d="M587.782 153.971l-6.984 25.917h2.08l6.984-25.917h-2.08zM592.859 153.971l-6.994 25.917h3.508l6.994-25.917h-3.508z"/></g><path fill-rule="evenodd" clip-rule="evenodd" d="M610.039 152.228h19.321c.602 0 1.091.489 1.091 1.09v27.223c0 .601-.489 1.091-1.091 1.091h-19.321c-.601 0-1.091-.49-1.091-1.091v-27.223c-.01-.601.49-1.09 1.091-1.09z" fill="#9AC0E2"/><path fill-rule="evenodd" clip-rule="evenodd" d="M610.6 153.971h18.189v25.917H610.6v-25.917z" fill="#D6ECFF"/><g opacity=".7" fill="#fff"><path opacity=".7" d="M619.185 153.971l-6.995 25.917h2.08l6.995-25.917h-2.08zM624.252 153.971l-6.984 25.917h3.497l6.994-25.917h-3.507z"/></g><path fill-rule="evenodd" clip-rule="evenodd" d="M641.432 106.062h19.321c.601 0 1.09.489 1.09 1.09v27.223c0 .601-.489 1.091-1.09 1.091h-19.321c-.602 0-1.091-.49-1.091-1.091v-27.223c0-.601.489-1.09 1.091-1.09z" fill="#9AC0E2"/><path fill-rule="evenodd" clip-rule="evenodd" d="M641.993 107.805h18.189v25.917h-18.189v-25.917z" fill="#D6ECFF"/><g opacity=".7" fill="#fff"><path opacity=".7" d="M650.577 107.805l-6.994 25.917h2.08l6.994-25.917h-2.08zM655.655 107.805l-6.994 25.917h3.507l6.984-25.917h-3.497z"/></g><path fill-rule="evenodd" clip-rule="evenodd" d="M641.432 152.228h19.321c.601 0 1.09.489 1.09 1.09v27.223c0 .601-.489 1.091-1.09 1.091h-19.321c-.602 0-1.091-.49-1.091-1.091v-27.223c0-.601.489-1.09 1.091-1.09z" fill="#9AC0E2"/><path fill-rule="evenodd" clip-rule="evenodd" d="M641.993 153.971h18.189v25.917h-18.189v-25.917z" fill="#D6ECFF"/><g opacity=".7" fill="#fff"><path opacity=".7" d="M650.577 153.971l-6.994 25.917h2.08l6.994-25.917h-2.08zM655.655 153.971l-6.994 25.917h3.507l6.984-25.917h-3.497z"/></g><path fill-rule="evenodd" clip-rule="evenodd" d="M669.541 24.354h140.466v176.762H669.541V24.353z" fill="#EBF6FF"/><path fill-rule="evenodd" clip-rule="evenodd" d="M669.541 24.354h140.466V74.17H669.541V24.353z" fill="#EBF6FF"/><path fill-rule="evenodd" clip-rule="evenodd" d="M664.464 24.353h150.631c1.08 0 1.978-.887 1.978-1.978v-4.19a1.98 1.98 0 0 0-1.978-1.978H664.464a1.986 1.986 0 0 0-1.978 1.978v4.2c0 1.081.887 1.968 1.978 1.968zM671.335 209.14h136.877c.989 0 1.795-.887 1.795-1.978v-4.201c0-1.091-.806-1.978-1.795-1.978H671.335c-.989 0-1.794.887-1.794 1.978v4.201c0 1.091.805 1.978 1.794 1.978z" fill="#D6ECFF"/><path fill-rule="evenodd" clip-rule="evenodd" d="M669.541 24.354h140.466v8.656H669.541v-8.656z" fill="#EBF6FF"/><path fill-rule="evenodd" clip-rule="evenodd" d="M680.909 106.062h19.321c.602 0 1.091.489 1.091 1.09v27.223c0 .601-.489 1.091-1.091 1.091h-19.321c-.601 0-1.091-.49-1.091-1.091v-27.223c0-.601.49-1.09 1.091-1.09z" fill="#9AC0E2"/><path fill-rule="evenodd" clip-rule="evenodd" d="M681.48 107.805h18.19v25.917h-18.19v-25.917z" fill="#D6ECFF"/><g opacity=".7" fill="#fff"><path opacity=".7" d="M690.055 107.805l-6.984 25.917h2.08l6.984-25.917h-2.08zM695.132 107.805l-6.994 25.917h3.508l6.994-25.917h-3.508z"/></g><path fill-rule="evenodd" clip-rule="evenodd" d="M713.301 106.062h19.321c.601 0 1.091.489 1.091 1.09v27.223c0 .601-.49 1.091-1.091 1.091h-19.321c-.602 0-1.091-.49-1.091-1.091v-27.223c0-.601.489-1.09 1.091-1.09z" fill="#9AC0E2"/><path fill-rule="evenodd" clip-rule="evenodd" d="M713.872 107.805h18.189v25.917h-18.189v-25.917z" fill="#D6ECFF"/><g opacity=".7" fill="#fff"><path opacity=".7" d="M722.446 107.805l-6.994 25.917h2.08l6.994-25.917h-2.08zM727.524 107.805l-6.994 25.917h3.507l6.984-25.917h-3.497z"/></g><path fill-rule="evenodd" clip-rule="evenodd" d="M745.743 106.062h19.321c.602 0 1.091.489 1.091 1.09v27.223c0 .601-.489 1.091-1.091 1.091h-19.321c-.601 0-1.091-.49-1.091-1.091v-27.223c0-.601.49-1.09 1.091-1.09z" fill="#9AC0E2"/><path fill-rule="evenodd" clip-rule="evenodd" d="M746.314 107.805h18.19v25.917h-18.19v-25.917z" fill="#D6ECFF"/><g opacity=".7" fill="#fff"><path opacity=".7" d="M754.889 107.805l-6.994 25.917h2.079l6.995-25.917h-2.08zM759.966 107.805l-6.994 25.917h3.507l6.984-25.917h-3.497z"/></g><path fill-rule="evenodd" clip-rule="evenodd" d="M778.074 106.062h19.321c.601 0 1.091.489 1.091 1.09v27.223c0 .601-.49 1.091-1.091 1.091h-19.321c-.602 0-1.091-.49-1.091-1.091v-27.223c0-.601.489-1.09 1.091-1.09z" fill="#9AC0E2"/><path fill-rule="evenodd" clip-rule="evenodd" d="M778.645 107.805h18.189v25.917h-18.189v-25.917z" fill="#D6ECFF"/><g opacity=".7" fill="#fff"><path opacity=".7" d="M787.219 107.805l-6.994 25.917h2.08l6.994-25.917h-2.08zM792.297 107.805l-6.994 25.917h3.507l6.984-25.917h-3.497z"/></g><path fill-rule="evenodd" clip-rule="evenodd" d="M680.909 38.893h19.321c.602 0 1.091.489 1.091 1.09v27.223c0 .602-.489 1.09-1.091 1.09h-19.321c-.601 0-1.091-.489-1.091-1.09V39.983c0-.601.49-1.09 1.091-1.09z" fill="#9AC0E2"/><path fill-rule="evenodd" clip-rule="evenodd" d="M681.48 40.636h18.19v25.917h-18.19V40.636z" fill="#D6ECFF"/><g opacity=".7" fill="#fff"><path opacity=".7" d="M690.055 40.636l-6.984 25.917h2.08l6.984-25.917h-2.08zM695.132 40.636l-6.994 25.917h3.508l6.994-25.917h-3.508z"/></g><path fill-rule="evenodd" clip-rule="evenodd" d="M713.301 38.893h19.321c.601 0 1.091.489 1.091 1.09v27.223c0 .602-.49 1.09-1.091 1.09h-19.321c-.602 0-1.091-.489-1.091-1.09V39.983c0-.601.489-1.09 1.091-1.09z" fill="#9AC0E2"/><path fill-rule="evenodd" clip-rule="evenodd" d="M713.872 40.636h18.189v25.917h-18.189V40.636z" fill="#D6ECFF"/><g opacity=".7" fill="#fff"><path opacity=".7" d="M722.446 40.636l-6.994 25.917h2.08l6.994-25.917h-2.08zM727.524 40.636l-6.994 25.917h3.507l6.984-25.917h-3.497z"/></g><path fill-rule="evenodd" clip-rule="evenodd" d="M745.743 38.893h19.321c.602 0 1.091.489 1.091 1.09v27.223c0 .602-.489 1.09-1.091 1.09h-19.321c-.601 0-1.091-.489-1.091-1.09V39.983c0-.601.49-1.09 1.091-1.09z" fill="#9AC0E2"/><path fill-rule="evenodd" clip-rule="evenodd" d="M746.314 40.636h18.19v25.917h-18.19V40.636z" fill="#D6ECFF"/><g opacity=".7" fill="#fff"><path opacity=".7" d="M754.889 40.636l-6.994 25.917h2.079l6.995-25.917h-2.08zM759.966 40.636l-6.994 25.917h3.507l6.984-25.917h-3.497z"/></g><path fill-rule="evenodd" clip-rule="evenodd" d="M778.074 38.893h19.321c.601 0 1.091.489 1.091 1.09v27.223c0 .602-.49 1.09-1.091 1.09h-19.321c-.602 0-1.091-.489-1.091-1.09V39.983c0-.601.489-1.09 1.091-1.09z" fill="#9AC0E2"/><path fill-rule="evenodd" clip-rule="evenodd" d="M778.645 40.636h18.189v25.917h-18.189V40.636z" fill="#D6ECFF"/><g opacity=".7" fill="#fff"><path opacity=".7" d="M787.219 40.636l-6.994 25.917h2.08l6.994-25.917h-2.08zM792.297 40.636l-6.994 25.917h3.507l6.984-25.917h-3.497z"/></g><path fill-rule="evenodd" clip-rule="evenodd" d="M697.508 144.03h84.542v2.019h-84.542v-2.019z" fill="#9AC0E2"/><path fill-rule="evenodd" clip-rule="evenodd" d="M697.508 201.116h84.542v-55.067h-84.542v55.067z" fill="#D6ECFF"/><path fill-rule="evenodd" clip-rule="evenodd" d="M738.667 201.116h2.223v-55.067h-2.223v55.067z" fill="#9AC0E2"/><path opacity=".7" d="M719.795 146.049l-14.437 55.067h4.293l14.447-55.067h-4.303zM730.276 146.049l-14.437 55.067h7.239l14.437-55.067h-7.239zM756.5 146.049l-14.447 55.067h4.302l14.437-55.067H756.5zM766.981 146.049l-14.447 55.067h7.239l14.447-55.067h-7.239z" fill="#fff"/><path fill-rule="evenodd" clip-rule="evenodd" d="M739.779 71.06c8.636 0 15.63 6.994 15.63 15.63 0 8.625-6.994 15.629-15.63 15.629-8.636 0-15.63-6.994-15.63-15.63 0-8.625 6.994-15.63 15.63-15.63z" fill="#9AC0E2"/><path fill-rule="evenodd" clip-rule="evenodd" d="M737.261 76.178h5.037c.397 0 .723.326.723.724v6.555h6.556c.398 0 .724.327.724.724v5.037a.727.727 0 0 1-.724.724h-6.556v6.556a.726.726 0 0 1-.723.724h-5.037a.727.727 0 0 1-.724-.724v-6.556h-6.556a.727.727 0 0 1-.724-.724v-5.037c0-.397.327-.724.724-.724h6.556v-6.555c0-.398.326-.724.724-.724z" fill="#fff"/><path fill-rule="evenodd" clip-rule="evenodd" d="M697.508 199.097h84.542v2.018h-84.542v-2.018z" fill="#9AC0E2"/><path d="M465.128 120.682a5.695 5.695 0 0 0-5.699-5.699 5.697 5.697 0 0 0-5.547 4.404c-.724-3.364-2.661-6.27-5.332-8.269a6.894 6.894 0 0 0 4.221-6.351 6.87 6.87 0 0 0-2.59-5.384 6.615 6.615 0 0 0 .693-2.936 6.66 6.66 0 0 0-8.595-6.373 6.26 6.26 0 0 0-1.865-.285 6.175 6.175 0 0 0-6.179 6.179c0 .58.082 1.141.235 1.672a9.197 9.197 0 0 0-2.141-.255 9.499 9.499 0 0 0-9.503 9.502c0 1.876.551 3.609 1.489 5.088a7.333 7.333 0 0 0-7.158 1.59 4.987 4.987 0 1 0-2.171 9.472c.316 0 .622-.03.917-.092a7.356 7.356 0 0 0 6.209 3.416c1.601 0 3.09-.52 4.293-1.387.112.592.265 1.173.459 1.744a6.607 6.607 0 0 0-2.141 4.873v.01c-.082 0-.153-.01-.235-.01-6.168 0-11.164 4.996-11.164 11.165 0 4.19 2.314 7.84 5.73 9.747-.01.153-.021.305-.021.469a6.175 6.175 0 0 0 4.119 5.821 8.325 8.325 0 0 0 3.987 5.027 7.242 7.242 0 0 0 .969 3.059 5.944 5.944 0 0 0-7.188 5.811c0 1.56.601 2.967 1.58 4.027.061-.02.122-.04.183-.051 3.202-.693 6.413-1.305 9.656-1.692a5.856 5.856 0 0 0-.092-4.751 7.498 7.498 0 0 0 2.212.336 7.358 7.358 0 0 0 7.362-7.361c0-2.182-.959-4.14-2.468-5.485.051-.378.092-.765.092-1.163 0-.958-.173-1.886-.469-2.742a9.708 9.708 0 0 0 5.934 2.029c5.383 0 9.747-4.364 9.747-9.747a9.689 9.689 0 0 0-1.54-5.241c4.69-1.03 8.198-5.21 8.198-10.206 0-1.56-.347-3.028-.959-4.364a5.654 5.654 0 0 0 4.772-5.597zM425.212 94.55a6.66 6.66 0 0 0 6.658-6.657c0-.49-.061-.969-.163-1.438.051 0 .102.01.163.01 2.62 0 4.751-2.13 4.751-4.75a4.756 4.756 0 0 0-4.751-4.752 4.75 4.75 0 0 0-4.741 4.557 6.537 6.537 0 0 0-1.907-.285 6.66 6.66 0 0 0-6.658 6.658 6.638 6.638 0 0 0 6.648 6.657zM448.499 82.194c1.182 0 2.222-.55 2.926-1.397a6.435 6.435 0 0 0-.551 2.59 6.411 6.411 0 0 0 6.413 6.413 6.412 6.412 0 0 0 2.774-12.194 6.166 6.166 0 0 0 .785-3.018 6.175 6.175 0 0 0-6.179-6.179 6.174 6.174 0 0 0-6.178 6.179 3.803 3.803 0 0 0-3.803 3.803 3.818 3.818 0 0 0 3.813 3.803zM471.541 104.053c-.265 0-.53.031-.785.082a4.97 4.97 0 0 0 .071-.785 4.986 4.986 0 1 0-4.985 4.986c.581 0 1.142-.102 1.662-.296v.051a4.033 4.033 0 0 0 4.037 4.037 4.033 4.033 0 0 0 4.038-4.037 4.034 4.034 0 0 0-4.038-4.038z" fill="#D6ECFF"/><path opacity=".5" d="M416 201.576c0-1.929 23.727-3.5 53-3.5s53 1.571 53 3.5c0 1.93-23.727 3.5-53 3.5-29.262 0-53-1.57-53-3.5z" fill="#C3E1FF"/><path d="M438.905 177.971l2.223-13.367h-.367l-2.192 13.296.336.071z" fill="#006399"/><path d="M439.038 178.001l1.376-8.268-.612-.143-1.366 8.279.602.132zM445.777 170.814h-1.142v2.06h1.142v-2.06zM443.36 169.54c-2.936-5.761-7.157-9.289-10.287-11.583-3.385-2.487-5.516-3.456-5.546-3.466l-.317-1.01c.113.051 2.825 1.285 6.281 3.824 3.191 2.345 7.728 6.372 10.736 12.275l-.867-.04z" fill="#006399"/><path d="M444.931 171.018c-3.436-6.841-8.453-11.113-12.276-13.917-4.139-3.038-6.77-4.252-6.8-4.262l-.836-1.07c.142.061 3.966 1.478 8.187 4.577 3.905 2.855 9.288 7.739 12.805 14.743l-1.08-.071z" fill="#14AFEB"/><path d="M448.876 173.913h9.187l10.134-.479 7.372-.438 1.182-6.678.908-5.098h-5.037l-6.729 1.07-4.119 1.785-5.057 2.936-5.128 3.721-2.713 3.181zM479.382 161.251l-1.723 11.419 5.505-.081 6.311-.235 5.037-.428 4.976-.602 1.672-.652v-2.875l-.765-3.334-1.387-2.988-6.668-.224H479.382z" fill="#192D4B"/><path d="M454.606 168.673v5.587h-6.036l.306-1.672 5.73-3.915z" fill="#04242B"/><path d="M473.427 187.229c-.193 1.265-.336 2.498-.336 2.498l-14.549.469-.377-2.967h15.262z" fill="#0A2024"/><path d="M477.057 161.475s-2.039 7.901-2.753 11.113l4.741-.255s.663-8.564.969-11.113l-2.957.255z" fill="#14AFEB"/><path d="M495.756 161.475l2.416 5.046v4.803l7.729-1.693v-1.58l-3.926-5.985-6.219-.591z" fill="#192D4B"/><path d="M423.091 194.55l2.988 1.346 20.993-.265 1.498-.612v-2.376l-.408-2.62-1.529-3.426-2.549-2.956-3.16-1.988-4.252-.561-4.71.713-3.365 1.836-2.396 4.231-1.427 3.252-1.683 3.426zM491.474 193.683l2.426 1.437 21.381-.581 1.111-.989.51-1.815-.765-2.651-1.02-2.253-1.529-2.029-2.192-1.937-3.701-1.326-2.753-.866-2.722.408-3.13.662-2.478 1.734s-2.549 2.192-2.702 2.294c-.153.102-1.478 2.956-1.478 2.956l-.958 4.956z" fill="#004687"/><path d="M522.285 179.705c-.02-.123-.02-.184-.02-.184-1.581-1.376-1.683-3.211-1.683-3.211.021-.072.041-.153.062-.225.407-1.509.234-2.651.071-3.222-.071-.275-.143-.418-.143-.418-.03-.04-.061-.071-.081-.112 0 0 0-.01-.011-.01a42.909 42.909 0 0 0-1.672-2.039c-.693-.805-1.458-1.652-2.202-2.478-.397-.438-.795-.866-1.172-1.274-1.581-1.703-2.865-3.008-2.865-3.008h.01c.234-.061.438-.112.612-.173 3.15-.958-1.081-1.458-1.081-1.458a102.677 102.677 0 0 0-5.006-.581 176.602 176.602 0 0 0-5.231-.418c-6.137-.347-11.99-.5-16.71-.561-6.373-.082-12.826.184-15.997.653-2.07.305-3.763.764-5.057 1.203-.52.183-.979.356-1.377.52-1.152.479-1.733.856-1.733.856-2.029 1.081-4.16 2.345-6.026 3.497-3.028 1.866-5.342 3.436-5.342 3.436-.418.286-.877.52-1.346.734-1.356.612-2.814.948-3.834 1.122-.091.02-.173.03-.255.04-.662.102-1.08.143-1.08.143-8.412 1.173-14.325 2.243-14.325 2.243-.571.112-1.122.235-1.642.357-6.321 1.489-9.359 3.62-9.359 3.62a1.607 1.607 0 0 0-.174.326c-.377.917-.132 2.324-.132 2.324l-1.907 2.906-.03.051a4.636 4.636 0 0 0-.092.235c-.041.122-.082.244-.122.377-.643 2.233-.347 5.506-.347 5.506.01.193.03.387.051.56.367 2.682 2.345 3.314 2.345 3.314 4.486 1.274 7.698 1.55 7.698 1.55s.346 0 .999-.011a10.987 10.987 0 0 1-.398-2.915c0-3.018 1.224-5.741 3.212-7.708a10.801 10.801 0 0 1 7.647-3.151c2.977 0 5.668 1.203 7.636 3.14a10.832 10.832 0 0 1 3.222 7.719c0 .948-.122 1.876-.357 2.752l3.202-.03h.163c8.013-.072 17.057-.153 25.795-.245h.153c6.178-.071 12.194-.143 17.577-.214a11.067 11.067 0 0 1-.235-2.263c0-3.977 2.142-7.454 5.333-9.35a10.762 10.762 0 0 1 3.517-1.325c.061-.011.112-.021.174-.031a10.863 10.863 0 0 1 1.835-.153c1.906 0 3.701.49 5.261 1.356a10.857 10.857 0 0 1 5.455 11.164c2.997-.52 4.384-2.345 4.384-2.345 2.192-2.192 2.6-4.995 2.6-4.995.489-3.365.132-6.781.03-7.596zm-18.026-10.716s-.856.224-2.07.52c-.051.01-.101.031-.163.041-1.927.469-4.649 1.101-6.148 1.285 0 0-.428.061-1.131.152h-.011a71.16 71.16 0 0 1-3.252.337s-8.473.489-14.529.826c-.051 0-.102.01-.153.01-2.518.143-4.588.255-5.424.285 0 0-16.955.867-20.279.989 0 0-.54.031-.836-.04-.061-.021-.112-.031-.143-.062-.061-.04-.061-.101.01-.183 0 0 .418-.387 1.183-1.03a77.105 77.105 0 0 1 7.147-5.373c.214-.143.428-.285.643-.418 0 0 2.916-2.1 6.576-3.181 2.508-.744 5.801-1.122 10.063-1.254 0 0 8.411-.235 17.475.183 1.061.051 2.121.102 3.192.174 1.335.081 4.445.244 5.332.632.428.183.693.489 1.203 1.397 0 0 .52.928 1.05 1.886.235.428.479.856.673 1.203.082.153.163.285.224.408.021-.01.571.877-.632 1.213z" fill="#14AFEB"/><path d="M463.242 162.851c-6.536 3.059-13.642 8.442-13.642 8.442-.54.061-.979.01-1.305-.071a9.048 9.048 0 0 0 1.346-.734s6.015-4.079 11.368-6.933c0 0 .581-.378 1.733-.857.459.082.5.153.5.153z" fill="#192D4B"/><path d="M425.681 192.98a11 11 0 0 0 .398 2.916c-.653 0-.999.01-.999.01s-3.212-.275-7.698-1.55c0 0-1.968-.622-2.345-3.313a8.283 8.283 0 0 1-.051-.561s-.296-3.273.347-5.506c.04-.132.081-.255.122-.377.03-.082.061-.153.092-.235l.03-.051c4.221.582 8.687.898 13.316.969a10.798 10.798 0 0 0-3.212 7.698z" fill="#0082C8"/><path d="M518.819 170.274c-.847.091-1.591.081-2.243-.011a5.67 5.67 0 0 1-.908-.183c-1.978-.53-2.804-1.703-2.804-1.703-.673-.785-3.405-5.006-3.405-5.006.52.031.918.051 1.234.071.346.021.591.031.795.041.438.021.652.021 1.101.031h-.01s3.619 3.721 6.24 6.76z" fill="#192D4B"/><path d="M493.697 192.979c0 .775.081 1.53.234 2.264-5.373.081-11.399.153-17.577.214h-.153c-8.738.092-17.781.183-25.795.245h-.163l-3.202.03c.235-.877.357-1.804.357-2.753a10.83 10.83 0 0 0-3.222-7.718c7.474-.132 43.199-.815 54.853-1.631a10.844 10.844 0 0 0-5.332 9.349zM522.255 187.311s-.408 2.804-2.6 4.996c0 0-1.387 1.835-4.384 2.345a10.83 10.83 0 0 0-5.455-11.164c2.702-.612 7.953-1.173 12.469-3.783.102.816.459 4.231-.03 7.606z" fill="#0082C8"/><path d="M520.583 176.299c-.836.306-1.764.54-1.764.54-1.988.418-2.08.306-2.447-.193-.806-1.102-1.53-2.519-1.53-2.519-.56-1.233.143-1.611.571-1.794 1.683-.734 3.946-.306 5.078-.01.03.04.061.081.081.112.011 0 .714 1.519.011 3.864z" fill="#C20909"/><path d="M418.086 190.207v.081c-.041.673-.194.836-.561.877-.897.102-1.948.112-2.029.102a8.224 8.224 0 0 1-.051-.561s-.296-3.12.347-5.352c1.09-.113 1.723-.113 1.835.356.051.215.102.418.132.643.102.53.163 1.091.225 1.764v.02c.03.326.051.683.071 1.071.031.377.041.713.031.999z" fill="#006399"/><path d="M458.063 171.049a5.854 5.854 0 0 1-.265 1.05 4.853 4.853 0 0 1-.123.306c-.142.306-.295.51-.458.561-.724.214-3.926.805-4.558-.112-.02-.031-.041-.062-.051-.082-.499-.918.714-2.233 2.009-3.12 1.325-.928 2.11-1.019 2.946-.785.245.071.408.306.49.632.112.418.102.989.01 1.55z" fill="#14AFEB"/><path d="M430.636 176.034a.884.884 0 0 1-.234.265c-.438.326-1.04.632-1.713.928-.408.183-.826.357-1.244.53-.958.398-1.886.785-2.457 1.193-.01.01-.02.01-.02.02-.367.276-.347.704-.235.948.01.031.031.062.041.082.408.653-.163.734-.163.734-2.447.377-2.824.357-2.824.357-2.366.163-3.559-.204-3.559-.204a2.268 2.268 0 0 1-.112-.53c-.051-.724.184-1.489.184-1.489 2.824-1.702 8.482-2.834 11.429-3.15.928-.102 1.02.122.907.316z" fill="#F2F2F2"/><path d="M520.644 176.075c-.377.112-.683.194-.683.194-1.458.306-1.519.224-1.785-.143-.591-.806-1.121-1.845-1.121-1.845-.408-.908.102-1.173.418-1.316 1.03-.448 2.345-.306 3.242-.122.163.581.337 1.723-.071 3.232z" fill="#D11212"/><path d="M445.757 193.112c.04 5.149-4.099 9.36-9.248 9.4-5.149.041-9.36-4.098-9.4-9.247-.041-5.149 4.098-9.36 9.247-9.4 5.149-.041 9.36 4.098 9.401 9.247z" fill="#192D4B"/><path d="M442.993 193.133a6.55 6.55 0 0 1-1.529 4.272 6.716 6.716 0 0 1-1.774 1.488 6.508 6.508 0 0 1-3.191.857 6.564 6.564 0 0 1-3.181-.785 6.771 6.771 0 0 1-1.815-1.448 6.513 6.513 0 0 1-1.499-5.567 6.377 6.377 0 0 1 .816-2.121 6.534 6.534 0 0 1 4.415-3.068 6.154 6.154 0 0 1 1.152-.113c.397 0 .785.031 1.162.092a6.58 6.58 0 0 1 4.496 3.038c.388.633.673 1.336.826 2.091.071.397.122.825.122 1.264z" fill="#0082C8"/><path d="M436.438 195.315a2.131 2.131 0 1 0-.003-4.263 2.131 2.131 0 0 0 .003 4.263zM513.914 193.112c.041 5.149-4.098 9.36-9.247 9.4-5.149.041-9.36-4.098-9.401-9.247-.04-5.149 4.099-9.36 9.248-9.4 5.149-.041 9.36 4.098 9.4 9.247z" fill="#192D4B"/><path d="M511.161 193.133a6.55 6.55 0 0 1-1.529 4.272 6.731 6.731 0 0 1-1.774 1.488 6.508 6.508 0 0 1-3.191.857 6.564 6.564 0 0 1-3.181-.785 6.771 6.771 0 0 1-1.815-1.448 6.513 6.513 0 0 1-1.499-5.567 6.377 6.377 0 0 1 .816-2.121 6.534 6.534 0 0 1 4.415-3.068 6.154 6.154 0 0 1 1.152-.113c.397 0 .785.031 1.162.092a6.58 6.58 0 0 1 4.496 3.038c.388.633.673 1.336.826 2.091.071.397.112.825.122 1.264z" fill="#0082C8"/><path d="M504.595 195.315a2.132 2.132 0 1 0-.001-4.263 2.132 2.132 0 0 0 .001 4.263z" fill="#192D4B"/><path d="M787.056 8H689.28v21.187h97.776V8z" fill="#9AC0E2"/><path d="M707.326 13.935v10.103h-2.773v-3.955h-3.385v3.956h-2.773V13.934h2.773v3.731h3.385v-3.731h2.773zM715.044 24.12c-.765 0-1.468-.143-2.09-.44a5.307 5.307 0 0 1-1.611-1.162 5.22 5.22 0 0 1-1.407-3.547c0-.663.133-1.306.387-1.917a5.147 5.147 0 0 1 1.071-1.632 5.154 5.154 0 0 1 3.711-1.54c.765 0 1.468.144 2.09.44a5.295 5.295 0 0 1 1.611 1.162c.449.479.785 1.03 1.03 1.651.245.622.367 1.244.367 1.897a4.95 4.95 0 0 1-.387 1.916 5.102 5.102 0 0 1-1.071 1.622 5.311 5.311 0 0 1-1.631 1.131 5.143 5.143 0 0 1-2.07.418zM712.75 19c0 .347.051.673.143.989.092.316.234.602.428.846.194.245.428.449.714.602.285.153.632.224 1.029.224.398 0 .745-.081 1.04-.234a1.98 1.98 0 0 0 .714-.612c.184-.255.326-.54.408-.857a3.583 3.583 0 0 0-.01-1.967 2.341 2.341 0 0 0-.439-.836 2.111 2.111 0 0 0-.724-.581 2.273 2.273 0 0 0-1.019-.225c-.398 0-.744.072-1.03.224-.285.153-.53.357-.724.602-.194.255-.326.54-.418.857a4.292 4.292 0 0 0-.112.968zM728.921 17.227a7.415 7.415 0 0 0-.887-.46 6.906 6.906 0 0 0-.857-.315 3.043 3.043 0 0 0-.928-.153c-.244 0-.448.04-.591.112-.143.071-.224.204-.224.387 0 .133.04.245.132.327.082.081.204.163.367.234.163.072.357.143.592.204.234.072.499.143.785.245.469.143.887.296 1.264.469s.693.377.958.601c.265.235.469.51.612.847.143.336.214.734.214 1.213 0 .612-.112 1.121-.336 1.53a2.78 2.78 0 0 1-.887.988 3.622 3.622 0 0 1-1.234.53 5.86 5.86 0 0 1-1.387.163c-.367 0-.754-.03-1.142-.081a9.448 9.448 0 0 1-1.162-.245 9.485 9.485 0 0 1-1.111-.367 8.093 8.093 0 0 1-.989-.479l1.193-2.437c.336.204.683.398 1.04.55a7.51 7.51 0 0 0 1.029.388c.388.112.775.174 1.173.174.306 0 .51-.041.632-.123a.353.353 0 0 0 .173-.316.485.485 0 0 0-.173-.367 1.81 1.81 0 0 0-.489-.265 10.181 10.181 0 0 0-.714-.224 8.238 8.238 0 0 1-.856-.276 7.842 7.842 0 0 1-1.153-.489 2.913 2.913 0 0 1-.795-.601 2.103 2.103 0 0 1-.459-.765 2.9 2.9 0 0 1-.153-.979c0-.56.102-1.05.306-1.478a3 3 0 0 1 .836-1.07 3.82 3.82 0 0 1 1.203-.653 4.705 4.705 0 0 1 1.428-.225c.367 0 .734.03 1.081.102a9.652 9.652 0 0 1 1.937.632c.285.133.54.245.764.367l-1.192 2.305zM733.009 24.038V13.934h4.353c.49 0 .949.102 1.367.306.418.203.774.469 1.07.795.296.326.53.703.704 1.121.173.418.255.847.255 1.275 0 .448-.082.877-.245 1.305a3.785 3.785 0 0 1-.673 1.121 3.23 3.23 0 0 1-1.05.785 3.145 3.145 0 0 1-1.356.296h-1.652v3.1h-2.773zm2.773-5.527h1.468c.174 0 .326-.081.479-.234.143-.153.225-.439.225-.846 0-.418-.082-.704-.255-.857-.174-.153-.347-.224-.51-.224h-1.397v2.161h-.01zM743.296 24.038V13.934h2.774v10.104h-2.774zM757.101 16.35h-2.905v7.688h-2.774V16.35h-2.916v-2.416h8.595v2.416zM762.158 13.934h2.529l3.497 10.104h-2.814l-.612-1.979h-2.692l-.601 1.979h-2.835l3.528-10.104zm2.162 6.27l-.898-3.13-.938 3.13h1.836zM770.447 24.038V13.934h2.773v7.687h4.589v2.417h-7.362z" fill="#fff"/><g clip-path="url(#clip0)"><path opacity=".5" d="M672 217.089c0 2.76-36.941 5-82.5 5s-82.5-2.24-82.5-5 36.941-5 82.5-5c45.559-.011 82.5 2.24 82.5 5z" fill="#C3E1FF"/><path d="M618.07 119.249c-.33-.03-.67.25-.78.49 0 0-.94 1.83-1.2 1.77-.24-.06-.4-.86-.4-.86-.1-.63-.58-1.98-.58-1.98l-.51-4.03a.5.5 0 0 0-.61-.35c-.26.07-.43.41-.36.68l.34 3.68s.01.11-.1.14c-.06.02-.15.04-.2-.07l-1.12-4.24c-.07-.26-.34-.44-.6-.36a.49.49 0 0 0-.35.6l1.08 4.4c.04.13-.11.25-.19.12l-1.66-3.73a.463.463 0 0 0-.57-.33c-.25.07-.4.32-.33.57l1.61 4.21c.06.19-.1.25-.15.13l-1.73-2.77c-.17-.23-.38-.41-.6-.28-.22.13-.25.3-.15.55l1.66 3.31c.66 3.8 2.07 4.93 2.07 4.93 2.52 1.9 3.27-1.03 3.27-1.03s.73-.74 1.19-1.94c.18-.48.66-1.91 1.04-2.74.13-.29.3-.55.3-.55.09-.17-.07-.29-.37-.32z" fill="#FAA284"/><path d="M611.05 120.759s1.28-1.52 3.89-1.83c0 0-2.19.45-3.89 1.83z" fill="#EF8D72"/><path d="M650.68 205.319H647v9.28h3.68v-9.28z" fill="#C6C6C6"/><path d="M646 217.029s.22-3.15.69-4.69c0 0 1.49.09 1.91-.45.43-.53 2.94-2.83 4.1-.01l.83 1.57s3.93-1.21 2.68 3.58H646z" fill="#8E6942"/><path d="M656.22 217.029H646s.04-.64.12-1.28h10.32c-.02.32-.09.76-.22 1.28z" fill="#D3D3D3"/><path d="M636.06 205.489h-3.68v9.28h3.68v-9.28z" fill="#C6C6C6"/><path d="M631.3 210.969s-2.04 1.81-5.54 2.99c0 0-6.31-2-4.64 3.01h16.42s.55-3.57-.53-5.97c0 0-.41-.18-.99.37-.59.55-2.54.87-3.52.56-.01.01-.56-1.14-1.2-.96z" fill="#8E6942"/><path d="M637.65 215.8c-.04.74-.12 1.18-.12 1.18h-16.42c-.16-.48-.25-.88-.27-1.18h16.81z" fill="#D3D3D3"/><path d="M640.63 156.299c.01-.09.03-.18.03-.27a5.173 5.173 0 0 0-4.82-5.51 5.18 5.18 0 0 0-5.51 4.78h-.03l.22 29.06v.03c-.14 2.37 1.66 4.42 4.04 4.56 2.37.14 4.41-1.66 4.56-4.04.01-.13.01-.26 0-.39l1.51-28.22z" fill="#492E17"/><path d="M630.43 208.368a.585.585 0 0 1-.02-.13c0-.03.01-.06.02-.1l.12-23.09c-.02-.22-.03-.44-.02-.66.14-2.37 2.19-4.18 4.56-4.04 2.37.14 4.18 2.19 4.04 4.56v.01l-.98 23.58h-.07v.07c-.03.68-1.77 1.16-3.89 1.07-1.88-.08-3.42-.58-3.73-1.17h-.04l.01-.1zM652.82 156.709c.01-.09.02-.18.02-.27a5.174 5.174 0 0 0-5.05-5.3 5.166 5.166 0 0 0-5.29 5.02h-.03l1.48 29.03v.03a4.303 4.303 0 0 0 4.23 4.38c2.38.04 4.34-1.85 4.38-4.23 0-.13 0-.26-.01-.39l.27-28.27z" fill="#492E17"/><path d="M643.96 185.219c.04-2.38 2-4.27 4.38-4.23 2.38.04 4.27 2 4.23 4.38v.01l.06 22.91h-.07c0 .02.01.05.01.07 0 .69-1.72 1.24-3.84 1.24-1.88 0-3.44-.44-3.77-1.01h-.04v-.1a.585.585 0 0 1-.02-.13c0-.03.01-.06.01-.1l-.91-22.39c-.03-.21-.05-.43-.04-.65zM630.41 152.219s-2.08 10.9 9.46 10.01h3.3c3.84 0 6.67-.36 7.96-1.98 2.67-2.53 1.51-8.1 1.51-8.1-.21-.85-.05-1.26 0-1.74l-22.13.05c.07.49.05.82-.1 1.76z" fill="#492E17"/><path opacity=".15" d="M652.87 154.109c-.06-1.15-.23-1.96-.23-1.96-.21-.85-.05-1.26 0-1.74l-22.13.05c.07.5.05.82-.1 1.77 0 0-.18.95-.14 2.26 3.87.58 14.3 1.83 22.6-.38z" fill="#000"/><path d="M656.93 141.679c-.39-.65-.81-1.64-1.32-3.2l-.21-.65c-1.73-5.35-3.55-10.95-3.62-13.08v-.09-.15c.02-.96.44-1.88 1.21-2.49.41-.33.91-.56 1.44-.66 1.42-.27 2.8.42 3.47 1.62.04.04.08.07.13.12 1.93 6.64 5.67 17.02 2.9 19.26l-.01.01c-.03.02-.05.05-.08.07l-.08.07c-.11.09-.22.16-.33.22-.14.08-.28.17-.43.19-.03 0-.05.01-.08.01-.02.01-.2.04-.47.05h-.19c-.07 0-.14 0-.21-.01-.03 0-.06 0-.09-.01-.03 0-.06 0-.09-.01-.26-.02-.53-.08-.78-.17-.21-.08-.41-.2-.6-.39-.23-.19-.41-.42-.56-.71z" fill="#73BC55"/><path d="M663.5 155.089c-1.36.03-1.67 1.4-1.67 1.4s-1.32 1.82-1.3 2.61c.02 1.02-.58 2.48-.58 2.48s1.11.65 1.55-1.12c0 0 .21 2.05.82 2.1 0 0 .34.03.7-.19 0 0 .6.58 1.2-.08 0 0 .73.32 1.06-.27 0 0 .47.34.79-.32.33-.68.35-.73.53-2.07 0 0-.15-2.72-1.26-3.66-.01.01-.48-.91-1.84-.88z" fill="#F7A184"/><path d="M656.58 140.629c0-.77.35-1.5.94-1.98.14-.12.25-.19.27-.21l.05-.02c.11-.06.22-.12.34-.17.07-.03.23-.09.49-.14.02 0 .04 0 .05-.01.52-.1.98 0 1.35.16.34.14.64.34.89.6.08.07.13.13.16.16.02.04.05.08.07.12.13.18.23.38.31.59 2.18 4.61 4.02 14 3.87 16.02-.79.29-3.66.87-4.05.96-.92-1.51-2.35-4.84-3.83-11.25-.29-1.27-.53-2.24-.74-3.05-.18-.68-.22-1.28-.17-1.78z" fill="#73BC55"/><path d="M665.37 155.779c-.79.29-3.66.87-4.05.96-.19-.3-.39-.68-.61-1.14l4.62-1.07c.04.53.06.96.04 1.25z" fill="#E5E5E5"/><path d="M620.51 138.339c.12-.75.45-1.77 1.08-3.29l.26-.63c2.16-5.19 4.43-10.62 5.76-12.29.02-.03.04-.05.06-.07.03-.04.07-.08.1-.11.64-.72 1.56-1.14 2.54-1.11.53.02 1.06.16 1.52.43 1.25.72 1.85 2.14 1.58 3.49.01.06.02.11.02.17-2.86 6.3-6.77 16.62-10.34 16.51H622.86c-.14 0-.26-.02-.39-.05-.16-.03-.32-.05-.46-.14-.02-.01-.04-.03-.06-.04-.02-.01-.18-.1-.38-.27a.572.572 0 0 1-.08-.07.265.265 0 0 0-.06-.05c-.05-.05-.11-.09-.16-.14l-.06-.06-.06-.06c-.18-.19-.35-.4-.48-.64-.11-.2-.18-.42-.21-.68-.03-.29-.02-.59.05-.9z" fill="#5CA33B"/><path d="M625.47 138.269c.21.74.07 1.54-.36 2.16-.1.16-.19.25-.2.27l-.05.03c-.09.09-.18.18-.28.26-.06.05-.2.15-.43.27-.02.01-.03.01-.05.02-.48.24-.94.27-1.34.22a2.62 2.62 0 0 1-1.02-.34c-.09-.05-.16-.09-.2-.11l-.1-.1c-.17-.14-.33-.3-.46-.48-3.35-3.84-7.7-12.37-8.1-14.36.68-.5 3.28-1.83 3.64-2.03 1.3 1.2 3.58 4.02 6.75 9.77.63 1.14 1.13 2.01 1.54 2.73a5 5 0 0 1 .66 1.69z" fill="#5CA33B"/><path d="M612.89 126.099c.68-.5 3.28-1.83 3.64-2.03.26.24.56.55.9.93l-4.15 2.3c-.2-.51-.34-.92-.39-1.2z" fill="#E5E5E5"/><path d="M644.04 116.319h-6.38l-.07.72 2.52 3.29 1.2-.13 2.65-2.89.08-.99z" fill="#B7B6B6"/><path d="M652.73 135.689c.24-3.32 2.62-8.18 3.78-11.33 1.11-3-2.3-3.72-2.3-3.72-3.37-2.13-9.57-2.13-9.57-2.13l-7.17.18s-3.82.17-8.26 2.24c0 0 .14 3.62.18 6.8.02 1.93 1.64 12.9 1.59 15.61.19 1.91-.03 6.8-.24 9.81 0 .04.02.08.05.11.23.57 5.09 1.02 11.06 1.02 5.9 0 11.08-.44 11.4-1h.02v-.06c.03-1.88-.96-6.77-.9-8.59.12-2.98.15-5.97.36-8.94z" fill="#E0E0E0"/><path d="M652.73 135.689c.24-3.32 2.62-8.18 3.78-11.33 1.11-3-2.3-3.72-2.3-3.72-1.53-.97-3.65-1.49-5.5-1.78-2.09 3.02-3.93 4.72-8.26 4.72-3.56 0-5.4-3.18-5.95-4.43-1.45.32-3.31.86-5.29 1.79 0 0 .14 3.62.18 6.8.02 1.93 1.64 12.9 1.59 15.61.19 1.91-.03 6.8-.24 9.81 0 .04.02.08.05.11.23.57 5.09 1.02 11.06 1.02 5.9 0 11.08-.44 11.4-1h.02v-.06c.03-1.88-.96-6.77-.9-8.59.12-2.99.15-5.98.36-8.95z" fill="#5CA33B"/><path d="M653.4 135.689c.2-2.81 1.27-6.71 2.5-9.75 1.13-.28 1.98-1.3 1.98-2.52 0-1.44-1.95-2.4-3.31-2.87-.41-.14-.75-.24-1.04-.3-1.11-.56-2.42-.94-3.7-1.2-1 2.14-3.99 5.32-9.04 5.43-4.77.11-6.6-3.43-7.21-5.12-1.28.33-2.78.83-4.36 1.56 0 0 .14 3.62.18 6.8.02 1.93.37 12.76.32 15.46.19 1.91.16 6.95-.05 9.95 0 .04 4.21 1.73 12.19 1.61 8.26-.13 11.08-.92 11.4-1.48h.02v-.06c.03-1.88-.33-6.77-.27-8.59.11-2.96.17-5.95.39-8.92z" fill="#73BC55"/><path d="M640.92 122.039c2.52-.05 4.74-1.73 4.86-3.48-2.3-.23-4.32-.01-4.32-.01l-.53.01s-2.06-.12-4.66.3c.24 1.7 2.18 3.23 4.65 3.18z" fill="#E0E0E0"/><path opacity=".14" d="M640.26 120.829l2.65 2.52 3.51-4.76c-1.07-.08-1.78-.08-1.78-.08l-7.17.18s-.72.03-1.89.24l2.63 3.95 2.05-2.05z" fill="#000"/><path d="M643.27 114.539h-4.89v5.37h4.89v-5.37z" fill="#EE8C72"/><path d="M638.38 115.219v1.41c1.01.3 3.05.84 4.89.88v-2.28h-4.89v-.01z" fill="#DD725E"/><path d="M645.39 118.499l-1.35-2.18-3.81 3.57 2.6 2.37 2.56-3.76zM640.23 119.889l-1.95 2.13-2.02-3.2 1.42-2.49 2.55 3.56z" fill="#F9F9F9"/><path d="M635.51 104.42s-2.35-.83-2.35 1.52 2.35 1.65 2.35 1.65v-3.17z" fill="#EE8C72"/><path d="M647.11 104.42s2.35-.83 2.35 1.52-2.35 1.65-2.35 1.65v-3.17z" fill="#F7A184"/><path d="M647.33 108.549c0 3.84-2.9 6.96-6.47 6.96s-6.46-3.12-6.46-6.96v-6.18c0-3.85 2.89-6.96 6.46-6.96s6.47 3.12 6.47 6.96v6.18z" fill="#F7A184"/><path d="M640.87 95.419c-3.57 0-6.46 3.12-6.46 6.96v.29c1.01.4 2.35.61 3.97.08 0 0 1.32-.57 2.08-1.42s.76-.95 1.51-.95c.76 0 1.8-.57 2.36-1.51 0 0 0 2.72 3 3.34-.08-3.76-2.94-6.79-6.46-6.79z" fill="#EE8C72"/><path d="M646.52 99.009c.39.89.61 1.88.61 2.93v6.18c0 3.84-2.89 6.96-6.47 6.96-2.43 0-4.55-1.45-5.65-3.59 1.03 2.38 3.26 4.03 5.86 4.03 3.57 0 6.47-3.12 6.47-6.96v-6.18c-.01-1.23-.3-2.37-.82-3.37z" fill="#EE8C72"/><path d="M647.98 104.389c2.63-3.06 1.89-5.23 1.89-5.23-.95-4.26-5.2-3.56-5.2-3.56-.24.02-.63-.44-.79-.58a4.39 4.39 0 0 0-.93-.61c-.7-.34-1.48-.52-2.25-.53-4.42-.06-7.03 2.44-7.03 6.1 0 2.84.8 4.91.8 4.91.02-1.69.02-3.64.02-3.64.21.41.66.73 1.09.86.86.27 1.96.08 2.8-.19.42-.14.74-.36 1.03-.69.42-.48.76-1.06 1.35-1.35.48-.23 1-.18 1.51-.26.39-.06.74-.2 1.07-.4.06-.03.98-.89.97-.97 1.14 2.48 1.64 2.76 2.78 3.5.14 2.06.07 4.56.07 4.56.35-.65.62-1.28.82-1.92z" fill="#E5DCCC"/><path d="M645.19 96.799c-.21.64-2.34 1.42-3.37 1.42-1.03 0-.99.6-3.65 2.48-2.09 1.48-3.83-.35-4.48-1.2-.01.16-.02.32-.02.48 0 2.84.8 4.91.8 4.91.02-1.69.02-3.64.02-3.64.21.41.66.73 1.09.86.86.27 1.96.08 2.8-.19.42-.14.74-.36 1.03-.69.42-.48.76-1.06 1.35-1.35.48-.23 1-.18 1.51-.26.39-.06.74-.2 1.07-.4.06-.03.98-.89.97-.97 1.14 2.48 1.64 2.76 2.78 3.5v.06c.42-2.47-1.9-5.01-1.9-5.01z" fill="#F2E9DA"/><path d="M643.94 111.849c-.17-.68-.43-1.34-.93-1.84-1.19-1.19-3.12-.35-3.12-.35-.06.03-.31-.09-.38-.11-.12-.03-.25-.05-.37-.05-.8-.04-1.56.36-1.93 1.09-.36.71-.46 1.62-.48 2.41-.01.37.02.78.14 1.16.07.22.24.53.42.71.47.47 1.62 1.34 3.1 1.39.82.03 1.86-.48 2.61-.81.48-.22.85-.39 1.01-.94.05-.17.07-.35.08-.52.03-.72.02-1.45-.15-2.14zm-1.14 1.28c-.32.18-.74.28-1.11.3-.16.01-.32.02-.48.01-.03 0-.16.01-.19-.01-.83-.83-1.13-.1-1.47-.02-.24.05-.53.06-.77.01-.2-.04-.42-.15-.6-.24-.34-.19-.59-.5-.66-.89-.08-.45.07-.93.21-1.35.01-.04.18-.39.16-.41 0 0 .66.98 2.25 1.05 1.58.07 2.33-1.06 2.33-1.06.15.14.27.33.36.52.16.34.25.7.31 1.07.09.41.06.8-.34 1.02z" fill="#E5DCCC"/><path d="M643.16 112.089v.02c.07.4.03.8-.36 1.02-.32.18-.74.28-1.11.3-.16.01-.32.02-.48.01-.03 0-.16.01-.19-.01-.83-.83-1.13-.1-1.47-.02-.24.05-.53.06-.77.01-.2-.04-.42-.15-.6-.24-.34-.19-.59-.5-.66-.89-.01-.04-.01-.08-.01-.13-.24.6-.55 1.66.01 2.04.81.55 1.89.98 2.25 1.34.36.36 1.08.47 1.47.07.39-.39 1.75-1.22 1.98-1.22.22 0 .65-1.64-.06-2.3z" fill="#F2E9DA"/><path d="M638.11 110.429h4.2s.41-.01.12.63c-.19.4-.7 1.7-2.14 1.74-1.72.05-2.31-1.78-2.31-1.78s-.29-.59.13-.59z" fill="#D24646"/><path d="M642.5 110.879c.14-.46-.19-.45-.19-.45h-4.2c-.32 0-.24.33-.18.5.81.21 2.46.47 4.57-.05z" fill="#fff"/><path d="M639.47 107.789s-1.01-.04-1.01.83c0 .86 1.56.64 1.61 0 .06-.65.14-5.38-.6-.83z" fill="#EE8C72"/><path d="M644.04 105.499c-.05 0-.1-.01-.15-.02a2.464 2.464 0 0 0-1.52 0c-.05.02-.1.02-.15.02-.21 0-.4-.13-.46-.34a.48.48 0 0 1 .03-.37c.06-.12.16-.2.28-.24.34-.11.7-.17 1.06-.17.36 0 .72.06 1.06.17.12.04.22.13.28.24.06.12.07.25.03.37-.06.21-.25.34-.46.34zM635.78 105.499a.48.48 0 1 1-.43-.7c.06-.12.16-.2.28-.24.34-.11.7-.17 1.06-.17.36 0 .72.06 1.06.17.25.08.39.36.31.61-.06.2-.25.33-.46.33-.05 0-.1-.01-.15-.02a2.464 2.464 0 0 0-1.52 0c-.05.01-.1.02-.15.02z" fill="#F2E9DA"/><path d="M645.07 107.789c0-.01-.11-.06-.24-.09-.14-.03-.3-.05-.47-.06-.33-.03-.63-.03-.63-.03-.06 0-.11-.04-.13-.09a.157.157 0 0 1 .03-.16c.43-.42.97-.49 1.3-.5.19 0 .31.02.32.02.08.01.13.09.11.17-.01.08-.09.13-.17.11 0 0-.02 0-.07-.01s-.11-.01-.19-.01c-.21 0-.5.03-.78.18.23.01.51.04.73.08.16.04.29.07.39.16.06.06.06.15 0 .2-.03.03-.06.04-.1.04-.03.03-.07.02-.1-.01zM634.93 107.889c-.06-.06-.06-.15 0-.2.25-.24.58-.34.84-.38a.947.947 0 0 0-.28-.04c-.2 0-.37.06-.4.08-.07.03-.16 0-.19-.07s0-.16.07-.19c.01 0 .22-.1.52-.1.25 0 .57.08.84.35.04.04.05.11.03.16-.03.05-.08.09-.14.08h-.09c-.21 0-.73.04-.99.32-.03.03-.07.04-.1.04a.222.222 0 0 1-.11-.05zM637.07 104.089c-.01-.08.04-.15.12-.17 0 0 1.6-.28 3.05-.28.62 0 1.2.05 1.64.21.07.03.11.11.09.18-.03.07-.11.11-.18.09-.38-.14-.95-.19-1.55-.19-.7 0-1.45.07-2.03.14-.57.07-.97.14-.97.14h-.03c-.06 0-.12-.05-.14-.12zM636.67 103.579c-.02-.08.02-.16.1-.18.01 0 1.57-.46 3.46-.46.8 0 1.65.08 2.47.31.08.02.12.1.1.18-.02.08-.1.12-.18.1-.79-.22-1.61-.3-2.39-.3-1.38 0-2.6.25-3.11.38-.17.04-.27.07-.27.07-.01 0-.03.01-.04.01-.06-.01-.12-.05-.14-.11z" fill="#EE8C72"/><path d="M644.56 106.419c-.02-.02-.56-.41-1.22-.3-.44.08-.85.26-1.14.84 0 0-.08.2.02.29.12.11.26 0 .32-.07.32-.4.62-.46.95-.52.49-.09.83.07.83.07.2.06.31-.04.32-.13 0-.1-.08-.18-.08-.18zM635.33 106.369c.02-.02.56-.41 1.22-.29.44.08.85.26 1.14.85 0 0 .08.2-.02.29-.12.11-.26 0-.32-.07-.32-.4-.62-.46-.95-.52-.49-.09-.83.07-.83.07-.2.06-.31-.05-.32-.13 0-.12.08-.2.08-.2z" fill="#7C3E06"/><path d="M544.04 159.848s1.29 3.07 1.43 3.36c.14.29.22.68.01 1.08-.16.3-1.45 2.56-2.22 2.18-.77-.38-1.99-1.46-1.99-1.46s-.28-.19-.07-.45c.14-.17.4-.14.46-.13l-.47-.38s-.24-.18-.07-.41c.14-.19.54-.15.54-.15s-.37-.22-.2-.48c.11-.18.33-.19.41-.17 0 0-.16-.32.16-.49 0 0-.55-1.14-.05-2.39 0 0 .06-.91.98-1.02.92-.09 1.08.91 1.08.91z" fill="#FAA284"/><path d="M544.36 163.619c.46.64-.67 2.03-.91 2.2-.3.21-1.34-.55-1.76-.86-.27-.2-.3-.41-.29-.52.12-.04.24-.02.28-.01l-.47-.38s-.24-.18-.07-.41c.14-.19.54-.15.54-.15s-.36-.18-.2-.48c.09-.16.33-.19.41-.17 0 0-.16-.32.16-.49 1.42.09 1.85.63 2.31 1.27z" fill="#EF8D72"/><path d="M542.04 162.358s.2.67.26 1.17c.08.68.15 1.14.16 1.5.03.78.77.71.75.07-.02-.6.05-1.25.13-1.53.11-.36.27-.58.35-.69 0 0-.01-.86-.79-.98s-.91.25-.86.46z" fill="#FAA284"/><path d="M535.14 145.159l-2.67-14.11a4.57 4.57 0 0 1-.07-.36c-.17-1.54.94-2.93 2.48-3.1a2.8 2.8 0 0 1 3.07 2.29h.02l1.88 14.64a2.382 2.382 0 0 1-4.65 1.02c-.03-.13-.05-.26-.06-.38z" fill="#BF78C1"/><path d="M544.11 160.159c-.25-1.33-1.93-10.06-4.54-15.97v-.02a2.195 2.195 0 0 0-2.51-1.43c-.09.02-.18.04-.27.07a2.18 2.18 0 0 0-1.35 2.78c.04.12 3.54 11.48 6.31 15.3l2.36-.73z" fill="#FAA284"/><path d="M543.67 157.899l-3.1 1.02c-.14.02-.29-.24-.29-.24-2.48-4.88-5.02-13.03-5.02-13.03-.43-1.25.23-2.6 1.48-3.03 1.24-.43 2.6.23 3.03 1.48 1.91 4.32 3.31 10.07 4.03 13.43-.02 0 .1.29-.13.37z" fill="#BF78C1"/><path d="M532.19 210.509c-.24-1.16-.8-2.94-1.66-9.58-.08-.61-.13-1.03-.15-1.15-.71-4.98-.53-8.29.11-11.93.17-.96.37-1.85.37-1.85v-.57c0-1.53 1.67-2.78 3.2-2.78 2.13 0 3.35 1.39 3.36 2.91v.26l-1.85 24.69h-3.38zM522 210.509c-.24-1.16-.8-2.94-1.66-9.58-.08-.61-.13-1.03-.15-1.15-.71-4.98-.53-8.29.11-11.93.17-.96.37-1.85.37-1.85v-.57c0-1.53 1.67-2.78 3.2-2.78 2.13 0 3.35 1.39 3.36 2.91v.26l-1.85 24.69H522z" fill="#FAA284"/><path d="M535.75 209.589h-3.96v4.3h3.96v-4.3zM525.65 209.589h-3.96v4.3h3.96v-4.3z" fill="#EDD1B2"/><path d="M536.26 212.239s1.63 1.45 4.42 2.39c0 0 5.04-1.59 3.7 2.4h-13.1s-.44-2.85.43-4.76c0 0 .32-.15.79.29.47.44 2.03.7 2.81.45-.01 0 .43-.92.95-.77z" fill="#263544"/><path d="M531.18 216.089c.03.59.09.94.09.94h13.11c.13-.38.2-.71.22-.94h-13.42z" fill="#D3D3D3"/><path d="M526.3 217.03s-.17-2.51-.55-3.75c0 0-1.19.07-1.53-.36-.34-.42-2.35-2.26-3.27-.01l-.67 1.25s-3.14-.96-2.14 2.86h8.16v.01z" fill="#263544"/><path d="M518.15 217.03h8.15s-.03-.51-.1-1.02h-8.24c.02.26.08.6.19 1.02z" fill="#D3D3D3"/><path d="M534.07 188.769c-1.74 0-3.19-1.35-3.35-3.05l-.01-.01-.01-.24-1.48-24.81c-.04-.26-.07-.52-.07-.77a4.93 4.93 0 0 1 1.4-3.54c.92-.96 2.16-1.5 3.49-1.52h.08c2.7 0 4.93 2.19 4.98 4.89 0 .27-.01.55-.05.82l-1.65 24.26.01.55v.07c0 .89-.34 1.73-.98 2.37-.63.63-1.47.98-2.36.98z" fill="#FAA284"/><path d="M539.03 160.539c.04-.28.06-.56.06-.83-.05-2.69-2.28-4.89-4.98-4.89h-.08c-1.33.02-2.57.56-3.49 1.52-.92.96-1.42 2.21-1.4 3.54.01.26.03.52.07.77l1.36 22.78c2.15-.13 4.5-.41 6.98-.93l1.48-21.96z" fill="#EE8C72"/><path d="M523.88 188.769c-1.74 0-3.19-1.35-3.35-3.05l-.01-.01-.01-.24-1.48-24.81c-.04-.26-.07-.52-.07-.77a4.93 4.93 0 0 1 1.4-3.54c.92-.96 2.16-1.5 3.49-1.52h.08c2.7 0 4.93 2.19 4.98 4.89 0 .27-.01.55-.06.82l-1.63 24.27.01.55v.07c0 .89-.34 1.73-.98 2.37-.64.62-1.48.97-2.37.97z" fill="#FAA284"/><path d="M528.84 160.529c.04-.28.06-.55.06-.82-.05-2.69-2.28-4.89-4.98-4.89h-.08a4.92 4.92 0 0 0-3.49 1.52c-.92.96-1.42 2.21-1.4 3.54 0 .26.03.52.07.77l1.33 22.29c1.46.24 3.88.55 6.94.57l1.55-22.98z" fill="#EE8C72"/><path d="M539.56 180.709l.07-20.11s-.26-3.75-1.38-5.59l-18.34.08s-1.58 3.28-1.3 7.93c.29 4.65-.14 17.69-.14 17.69s9.23 2.3 21.09 0z" fill="#263544"/><path opacity=".15" d="M539.27 158.009c-.21-1.05-.53-2.2-1.02-2.99l-18.34.07s-.54 1.12-.93 2.98c2.58 1.07 10.98 3.9 20.29-.06z" fill="#000"/><path d="M516.82 120.629c0-.99.54-1.85 1.35-2.3-.01-.09-.02-.17-.02-.26 0-1.03.83-1.86 1.86-1.86.04 0 .08 0 .12.01.19-.38.3-.63.3-.63l4.29.17 10 .39c.34-.4.85-.66 1.42-.66a1.856 1.856 0 0 1 1.77 2.43c1.45.02 2.62 1.19 2.62 2.65 0 .9-.45 1.7-1.14 2.17.04.17.06.36.06.54 0 1.46-1.19 2.65-2.65 2.65-.22 0-.43-.03-.63-.08-.49.58-1.22.96-2.04.96-.64 0-1.24-.23-1.69-.61-.49.56-1.2.91-1.99.91-.72 0-1.37-.29-1.84-.75-.51.02-1.01.02-1.49.02a2.653 2.653 0 0 1-4.04-.38c-.38.21-.81.33-1.28.33-1.46 0-2.65-1.19-2.65-2.65 0-.08.01-.15.01-.23-.08-.06-.15-.13-.23-.19-1.2-.28-2.11-1.35-2.11-2.63z" fill="#E5DCCC"/><path d="M531.54 126.409l-5.41-.02v1.42h6.08l-.67-1.4z" fill="#D8D8D8"/><path d="M517.75 129.089c.49-1 2.6-1.57 4.29-1.63.03-.01.05-.01.08-.02 1.16-.22 2.91-.33 5.19-.33 1.9 0 3.83.08 5.11.14 2.63.13 2.63.13 2.78.41l.05.11.01.11c.02.19.42 2.44.48 2.66.28.92.71 1.8 1.29 2.59.95 1.31 1.53 2.83 1.53 4.83 0 2.23-.66 3.21-2.06 3.96-.1 1.38-.12 3.44.36 6.17.4 2.29 1.84 8.04 2.36 9.09.21.17-3.48 1.73-10.05 1.51-7.84-.26-10.12-1.69-10.12-1.69 0-2.1 1.68-6.28 2.23-8.97.52-2.55.76-6.06.08-7.57-.52-1.16-.84-2.35-1.29-3.51-.28-.72-2.98-6.51-2.32-7.86z" fill="#D690D6"/><path opacity=".12" d="M524.2 142.319h12.3c.01-.13.02-.26.02-.38.21-.11.4-.23.58-.36h-13.65l.75.74z" fill="#666"/><path d="M527.04 128.889l3.58-.05-.31-6.14h-2.68l-.59 6.19z" fill="#EE8C72"/><path d="M527.34 125.698l.28-3.01h2.68l.15 2.95c-.71.12-1.8.22-3.11.06z" fill="#DD725E"/><path d="M526.41 127.029l-.21.02 2.49 3.47 1.11 1.38s1.65-1.75 2.03-2.76c.39-1 .4-1.91.4-1.91l-.64-.05-5.18-.15z" fill="#EE8C72"/><path d="M530.49 126.439s.33.46 1.08.74l-.04.24h-5.16l-.12-.37s.88-.12 1.02-.64l3.22.03z" fill="#EE8C72"/><path d="M528.44 129.868l1.36 2.02-1.39-1.68-1.5 1.64 1.39-2.16.14.18zM529.8 131.889l1.57-2.13.97 1.96-1.03-1.52-1.51 1.69z" fill="#D8D8D8"/><path d="M530.49 126.438s.86-.08 1.14.35c.2.3.26 2.16-.34 3.07l1.11 1.96s.49-3.14.13-4.56c-.26-.41-.67-.84-1.15-.98-.07-.02-.89-.14-.89-.12v.28zM527.3 126.148s-1.34.13-1.65.28c-.3.15-.91.75-.91.75s.81 3.45 2.15 4.68c0 0 1.2-1.73 1.55-1.98l-2.17-2.93s-.05-.28.14-.35c.19-.07.87-.18.87-.18l.02-.27z" fill="#fff"/><path d="M515.45 161.199c1.07.03 1.31 1.1 1.31 1.1s1.03 1.44 1.02 2.06c-.02.8.45 1.96.45 1.96s-.87.51-1.21-.89c0 0-.17 1.61-.66 1.65 0 0-.26.02-.55-.15 0 0-.48.46-.94-.07 0 0-.58.25-.83-.21 0 0-.37.26-.62-.26-.26-.53-.28-.58-.42-1.63 0 0 .13-2.14 1.01-2.88 0 0 .37-.71 1.44-.68z" fill="#F7A184"/><path d="M513.87 144.239l3.29-13.98c.02-.12.05-.24.09-.36a2.8 2.8 0 0 1 3.52-1.83c1.42.45 2.22 1.91 1.88 3.34l.02.01-4.23 14.14a2.385 2.385 0 0 1-2.71 1.8 2.381 2.381 0 0 1-1.95-2.75c.02-.13.05-.25.09-.37z" fill="#D690D6"/><path d="M516.59 161.909c.26-1.33 1.93-10.06 1.69-16.52v-.02c.05-1.1-.72-2.07-1.8-2.25-.1-.02-.19-.03-.28-.03-1.2-.06-2.23.88-2.28 2.08-.01.13-.95 11.98.2 16.55l2.47.19z" fill="#F7A184"/><path d="M517.01 159.649l-3.26-.2c-.14-.03-.18-.33-.18-.33-.5-5.46.15-13.96.15-13.96a2.382 2.382 0 1 1 4.76.22c.17 4.71-.65 10.58-1.22 13.97 0 0 0 .31-.25.3z" fill="#D690D6"/><path d="M534.66 116.049s2.18-.77 2.18 1.41c0 2.18-2.18 1.53-2.18 1.53v-2.94z" fill="#EE8C72"/><path d="M523.6 118.849c0 3.56 2.68 6.45 5.99 6.45s5.99-2.89 5.99-6.45l-.63-5.71c0-3.56-2.02-4.5-5.33-4.5s-5.57.9-5.57 4.47l-.45 5.74z" fill="#F7A184"/><path d="M529.63 108.648c3.31 0 5.33.93 5.33 4.5l.33 3c-.34-.42-1.05-1.33-1.41-2.04-.48-.96-2.72-3.1-3.07-3.45 0 0-2.36 1.69-2.88 2.21s-2.88 1.89-3.14 2.35c-.12.21-.46.58-.97.84l.23-2.94c.01-3.57 2.27-4.47 5.58-4.47zM529.84 124.709c-3.1 0-5.65-2.53-5.96-5.78l-.28.09c.08 3.49 2.73 6.3 5.98 6.3 2.54 0 4.71-1.71 5.58-4.11-.98 2.07-2.99 3.5-5.32 3.5z" fill="#EE8C72"/><path d="M524.01 116.049s-2.18-.77-2.18 1.41c0 2.18 2.18 1.53 2.18 1.53v-2.94z" fill="#F7A184"/><path d="M530.64 109.699s-2.72 2.82-4.67 3.91c-1.96 1.09-2.13 2.42-2.13 2.42s-1.02-.25-1.56-.03-1.85-.43-1.85-.43.71-2.17 1.14-3.8c.43-1.63 3.21-5.98 5.6-5.6 0 0 2.28.71 2.99 1.41.7.71.86 1.09.48 2.12z" fill="#E5DCCC"/><path d="M530.64 109.698s1.41 1.58 2.17 2.39 2.46 3 2.46 3.92c0 0 .23-.2.85.02l.53.48s-.35-.67-.46-2.84c-.11-2.17-.76-7.63-3.97-7.44 0 0-1.33.11-2.47 1.03 0 0 .13 2.25.89 2.44z" fill="#E5DCCC"/><path d="M526.88 111.568c.89-.43 2.42-2.48 3-3.3.15-.21.24-.33.24-.33.18.24.43.52.73.82 1.24 1.28 3.27 3.05 4.02 4.36.56.96.78 2.08.87 2.83-.33-.04-.46.07-.46.07 0-.92-1.7-3.1-2.46-3.92-.76-.82-2.17-2.39-2.17-2.39s-2.72 2.82-4.67 3.91c-1.48.82-1.94 1.78-2.08 2.2-.07-1.91 1.98-3.77 2.98-4.25z" fill="#F2E9DA"/><path d="M532.41 121.019h-3.67s-.36-.01-.1.55c.16.35.61 1.62 1.87 1.65 1.5.04 2.02-1.68 2.02-1.68s.25-.52-.12-.52z" fill="#D24646"/><path d="M528.57 121.409c-.13-.4.16-.39.16-.39h3.67c.28 0 .21.29.16.44-.7.18-2.14.4-3.99-.05z" fill="#fff"/><path d="M531.25 118.519s.97-.04.97.8c0 .83-1.51.62-1.56 0-.04-.63-.12-5.19.59-.8z" fill="#EE8C72"/><path d="M526.59 115.899c.03 0 .07-.01.1-.02a2.591 2.591 0 0 1 1.56 0c.03.01.07.02.1.02.14 0 .27-.09.32-.23.03-.09.02-.18-.02-.26a.35.35 0 0 0-.19-.17c-.32-.1-.65-.16-.98-.16-.34 0-.67.05-.99.16a.35.35 0 0 0-.19.17c-.04.08-.05.17-.02.25.04.15.16.24.31.24zM534.43 115.899c.14 0 .27-.09.32-.23.03-.08.02-.17-.02-.25a.35.35 0 0 0-.19-.17c-.32-.1-.65-.16-.98-.16-.34 0-.67.05-.99.16-.17.06-.27.25-.21.42a.324.324 0 0 0 .42.21c.25-.08.51-.12.78-.12s.53.04.78.12c.02.02.05.02.09.02z" fill="#F2E9DA"/><path d="M532.83 113.749s-.38-.05-.95-.1-1.32-.1-2.07-.1c-.66 0-1.3.04-1.8.15-.08.02-.15-.03-.17-.11-.02-.08.03-.15.11-.17.53-.11 1.19-.15 1.86-.15 1.51 0 3.05.2 3.05.2.08.01.13.08.12.16-.01.07-.07.13-.14.13 0-.01 0-.01-.01-.01zM532.42 114.419s-.32-.05-.78-.1c-.47-.05-1.08-.1-1.67-.1-.43 0-.85.03-1.18.09-.08.02-.15-.03-.17-.11-.02-.08.03-.15.11-.17.36-.07.8-.1 1.24-.1 1.21 0 2.5.19 2.5.19.08.01.13.08.12.16a.14.14 0 0 1-.14.12c-.02.02-.02.02-.03.02zM527.01 118.148s-.18-.05-.41-.09c-.23-.05-.51-.09-.71-.09-.08 0-.14-.06-.14-.14 0-.08.06-.14.14-.14.47 0 1.18.2 1.19.2.08.02.12.1.1.18-.02.06-.08.11-.14.11 0-.02-.02-.02-.03-.03zM526.04 118.669c-.06-.06-.06-.15 0-.2.13-.12.32-.15.5-.18.19-.02.37-.03.48-.03h.09c.08 0 .14.07.14.15 0 .08-.07.14-.15.14h-.08c-.1 0-.27 0-.44.03-.16.02-.32.07-.34.1-.03.03-.06.04-.1.04-.04-.01-.08-.02-.1-.05zM534.02 118.549c-.04-.07-.02-.16.04-.2.01 0 .48-.32.93-.32.05 0 .11 0 .16.02.08.02.13.09.11.17-.02.08-.09.13-.17.11-.03-.01-.06-.01-.1-.01-.23 0-.56.15-.7.24-.05.03-.07.04-.07.04-.02.02-.05.02-.08.02-.04 0-.09-.03-.12-.07zM534.1 118.909c-.05-.06-.03-.15.03-.2.16-.12.36-.14.53-.14.27 0 .5.07.51.07.08.02.12.1.09.18-.02.08-.1.12-.18.09 0 0-.01 0-.03-.01-.02-.01-.05-.01-.09-.02-.08-.02-.19-.03-.3-.03-.14 0-.28.03-.36.09-.03.02-.05.03-.08.03-.05 0-.09-.02-.12-.06zM527.54 121.629c-.08-.02-.12-.1-.1-.18.08-.29.31-.5.53-.67.23-.17.46-.28.59-.32.04-.01.06-.02.12-.03.08 0 .14.06.14.14 0 .08-.06.14-.13.14-.01 0-.02 0-.03.01-.03.01-.07.03-.11.05-.09.04-.21.1-.32.18-.23.15-.46.37-.51.57-.02.06-.08.11-.14.11-.02.01-.03 0-.04 0zM533.14 121.469c-.06-.38-.43-.57-.52-.6-.01-.01-.02-.01-.02-.01a.156.156 0 0 1-.09-.18c.03-.07.11-.11.18-.09.01 0 .15.06.32.18.16.13.34.34.4.64.01.08-.04.15-.12.17h-.03c-.05.01-.11-.04-.12-.11z" fill="#EE8C72"/><path d="M526.15 117.169c.02-.02.53-.39 1.15-.28.42.07.81.25 1.08.8 0 0 .08.19-.02.27-.12.1-.25 0-.3-.07-.3-.38-.59-.43-.9-.49-.46-.08-.79.06-.79.07-.19.06-.3-.04-.3-.12 0-.11.08-.18.08-.18zM534.92 117.119c-.02-.02-.53-.39-1.15-.28-.42.07-.81.25-1.08.8 0 0-.08.19.02.27.12.1.25 0 .3-.07.3-.38.59-.44.9-.49.46-.08.79.06.79.06.19.06.3-.04.3-.12-.01-.1-.08-.17-.08-.17z" fill="#602C05"/><path d="M623.18 152.168c.35-.79 1.47-.5 1.47-.5s4.53-1.05 5.56-.5c.64.34 1.18 1.12 1.69 1.74.26.31 1.31 1.59 1.31 1.59s-.37.96-2.44-1.56c.19.76.79 2.16.86 2.41 0 0-.96.49-1.65-2.37.03.66.3 2.3.34 2.59 0 0-.92.31-1.05-2.15-.16.43-.22 1.78-.28 1.95 0 0-.71-.05-.52-2.1l-1.89 1.11s1.69 1.71.68 2.66c0 0-1.32-1.56-1.82-1.89-1.35-.9-1.56-1.19-1.85-1.42 0 0-.76-.77-.41-1.56zM601.51 116.918c.14.3-.01.71-.21.9 0 0-1.43 1.48-1.28 1.71.14.21.94.1.94.1.63-.11 2.06-.1 2.06-.1l3.97-.83a.5.5 0 0 1 .53.46c.02.27-.25.54-.52.56l-3.59.88s-.11.02-.1.15c0 .07.01.15.13.16l4.38-.33c.27-.02.52.18.54.45.02.27-.18.5-.45.52l-4.51.41c-.13 0-.2.18-.05.21l4.06.35c.26-.02.48.18.5.43a.47.47 0 0 1-.43.5l-4.5-.15c-.2 0-.21.17-.08.18l3.18.73c.27.08.51.23.46.47-.05.25-.2.34-.47.32l-3.67-.49c-3.81.61-5.33-.35-5.33-.35-2.62-1.76-.09-3.43-.09-3.43s.46-.93 1.44-1.76c.39-.33 1.59-1.25 2.25-1.87.23-.22.42-.46.42-.46.13-.1.3 0 .42.28z" fill="#FAA284"/><path d="M602.38 124.048s1.02-1.71.46-4.27c-.01 0 .29 2.21-.46 4.27z" fill="#EF8D72"/><path d="M586.97 132.258c-.38-.66-1.07-1.52-2.21-2.72l-.48-.5c-3.92-4.13-8.03-8.47-9.9-9.57-.03-.02-.05-.03-.08-.05a.914.914 0 0 0-.14-.07c-.86-.45-1.89-.51-2.81-.13-.5.21-.94.54-1.29.96a3.33 3.33 0 0 0-.24 3.88c.02.06.03.11.04.17 4.98 4.94 12.41 13.3 15.75 11.92h.01c.03-.01.07-.02.1-.04l.1-.04c.13-.05.24-.12.35-.19.14-.08.28-.16.38-.29.02-.02.03-.04.05-.06.02-.01.13-.16.27-.39.02-.03.04-.06.05-.09.01-.02.03-.05.04-.08.04-.06.07-.13.1-.19.01-.03.03-.05.04-.08a.3.3 0 0 1 .04-.08c.1-.24.19-.51.23-.78.03-.22.02-.46-.05-.72-.05-.32-.17-.6-.35-.86z" fill="#F9C74B"/><path d="M582.86 132.268c-.45.64-.57 1.45-.36 2.19.05.18.1.3.1.33l.03.04a2.211 2.211 0 0 0 .51.74c.01.01.03.02.04.04.38.38.81.57 1.21.65.36.08.73.08 1.09.01.1-.02.19-.03.23-.04.04-.02.09-.04.13-.06.21-.08.41-.18.6-.31 4.48-2.59 11.43-9.35 12.47-11.13-.49-.7-2.55-2.83-2.83-3.14-1.64.73-4.75 2.69-9.68 7.17-.98.89-1.74 1.56-2.37 2.11-.55.48-.92.96-1.17 1.4z" fill="#F9C74B"/><path d="M598.92 124.708c-.49-.7-2.55-2.83-2.83-3.14-.33.15-.72.34-1.17.6l3.23 3.56c.36-.42.63-.77.77-1.02z" fill="#fff"/><path d="M568.6 125.098c-.16.26-.08.65.07.84 0 0 1.1 1.52.94 1.71-.15.17-.87-.03-.87-.03-.55-.18-1.86-.35-1.86-.35l-3.49-1.26c-.24-.05-.48.1-.53.35-.05.24.16.52.4.57l3.13 1.25s.1.03.07.14c-.01.06-.03.14-.14.13l-3.92-.86c-.24-.05-.5.1-.55.34-.05.24.1.48.34.53l4.03.95c.12.02.16.19.02.2l-3.72-.2c-.23-.05-.46.1-.51.33-.05.23.1.46.33.51l4.09.44c.18.03.16.18.04.18l-2.97.26c-.26.04-.49.14-.48.37.01.24.14.33.38.35l3.39.03c3.36 1.04 4.87.37 4.87.37 2.6-1.26.52-3.09.52-3.09s-.29-.9-1.08-1.77c-.31-.35-1.28-1.33-1.8-1.98-.18-.23-.32-.47-.32-.47-.07-.15-.23-.08-.38.16z" fill="#FAA284"/><path d="M566.91 131.439s-.71-1.68.13-3.92c0-.01-.55 1.96-.13 3.92z" fill="#EF8D72"/><path d="M571.67 132.298c1.22.67 8.99 4.77 15.38 6.54h.02c1.06.39 2.25-.07 2.77-1.06.04-.08.08-.17.12-.26a2.24 2.24 0 0 0-1.32-2.88c-.12-.05-11.11-4.66-15.94-4.94l-1.03 2.6z" fill="#EAEAEA"/><path d="M573.5 133.169l1.21-3.13c.07-.12.38-.08.38-.08 5.5 1.21 13.61 4.48 13.61 4.48a2.44 2.44 0 0 1 1.44 3.14 2.44 2.44 0 0 1-3.14 1.44c-4.67-1.3-10.15-3.92-13.28-5.53-.01.01-.31-.08-.22-.32z" fill="#F45B79"/><path d="M552.37 205.188h-3.73v9.41h3.73v-9.41z" fill="#EE8C72"/><path d="M553.89 217.029s-.22-3.19-.7-4.76c0 0-1.51.09-1.94-.45-.43-.54-2.98-2.87-4.15-.01l-.85 1.59s-3.99-1.22-2.71 3.63h10.35z" fill="#5B2F0A"/><path d="M543.54 217.029h10.35s-.04-.65-.12-1.29H543.3c.03.32.1.76.24 1.29z" fill="#7D7D7D"/><path d="M568 205.188h-3.73v9.41H568v-9.41z" fill="#EE8C72"/><path d="M569.11 210.758s2.07 1.84 5.62 3.03c0 0 6.4-2.02 4.71 3.05h-16.66s-.56-3.62.54-6.05c0 0 .41-.19 1.01.37.6.56 2.58.89 3.57.57-.01.01.55-1.16 1.21-.97z" fill="#5B2F0A"/><path d="M562.66 215.648c.04.75.12 1.19.12 1.19h16.65c.16-.49.25-.9.28-1.19h-17.05z" fill="#7D7D7D"/><path d="M561.94 155.828c-.01-.09-.02-.18-.02-.28-.07-2.9 2.22-5.3 5.12-5.37a5.25 5.25 0 0 1 5.37 5.09h.03l-1.51 29.43v.03a4.367 4.367 0 0 1-8.73.15c0-.13 0-.27.01-.4l-.27-28.65z" fill="#665846"/><path d="M562.14 209.138l.06-24.25v-.01a4.367 4.367 0 0 1 8.73-.15c0 .23-.01.45-.04.67l-.91 23.73c.01.03.01.06.01.09 0 .04-.01.09-.02.13v.1h-.04c-.34.58-1.92 1.03-3.82 1.03-2.15 0-3.89-.56-3.89-1.26 0-.02.01-.05.01-.07l-.09-.01zM550.54 155.458c0-.09-.01-.19 0-.28a5.26 5.26 0 0 1 5.49-5c2.88.13 5.11 2.57 5 5.46h.03l-3.57 29.25v.03a4.363 4.363 0 0 1-4.59 4.13 4.363 4.363 0 0 1-4.13-4.59c.01-.13.02-.27.04-.4l1.73-28.6z" fill="#665846"/><path d="M546.98 208.659l1.77-24.19v-.01a4.363 4.363 0 0 1 4.59-4.13 4.37 4.37 0 0 1 4.13 4.59c-.01.23-.05.45-.09.66l-2.58 23.61c0 .03.01.06.01.09 0 .04-.01.09-.03.13l-.01.1h-.04c-.38.56-1.99.89-3.89.75-2.15-.15-3.85-.84-3.8-1.53 0-.02.01-.05.02-.07h-.08z" fill="#665846"/><path d="M559.46 114.769h6.47l.08.74-2.57 3.34-1.21-.14-2.68-2.93-.09-1.01z" fill="#B7B6B6"/><path d="M572.3 151.679s2 10.51-9.13 9.65h-3.18c-3.7 0-6.43-.35-7.68-1.91-2.58-2.44-1.46-7.82-1.46-7.82.21-.82.05-1.22 0-1.68l21.35.04c-.07.49-.05.81.1 1.72z" fill="#665846"/><path opacity=".15" d="M572.15 156.009c.54-2.24.15-4.33.15-4.33-.15-.91-.17-1.22-.1-1.71l-21.35-.04c.05.46.21.85 0 1.68 0 0-.23 1.09-.24 2.51 3.7 1.01 13.91 3.44 21.54 1.89z" fill="#000"/><path d="M562.62 120.579c-2.55-.05-4.81-1.75-4.92-3.53 2.34-.24 4.38-.01 4.38-.01l.53.01s2.09-.12 4.73.3c-.24 1.73-2.21 3.28-4.72 3.23z" fill="#EE8C72"/><path d="M565.21 112.969h-4.96v5.07h4.96v-5.07z" fill="#EE8C72"/><path d="M565.21 113.659v1.43c-1.02.31-3.09.85-4.96.89v-2.31h4.96v-.01z" fill="#DD725E"/><path d="M563.41 133.828c-2.76-3.44-6-14.48-6.55-16.73.17-.02 1.95-.16 1.95-.16l4.51 1.45 2.8-1.21s1.73.16 2.5.35c-1.1 5.65-5.21 16.3-5.21 16.3z" fill="#E5E5E5"/><path opacity=".14" d="M563.32 118.769l-1.64 1.67-1.17.99-2.66-4.4c.49-.04.97-.07.97-.07l4.51 1.45 2.8-1.21s.81.08 1.56.18l-2.38 3.72-.6-.72-1.39-1.61z" fill="#000"/><path d="M558.1 116.989l1.36-2.22 3.86 3.63-2.63 2.4-2.59-3.81zM563.32 118.399l1.98 2.16 2.05-3.25-1.43-2.52-2.6 3.61z" fill="#E5E5E5"/><path d="M550.65 134.419c-.2-2.85-1.96-6.81-3.21-9.89a2.63 2.63 0 0 1-2-2.56c0-1.46 1.98-2.44 3.36-2.91.41-.14.76-.24 1.05-.3 2.21-1.14 5.17-1.68 7.09-1.83.44 1.28 2.03 4.74 6.12 5.75 0 0 3.7-1.21 5.19-5.41 1.56.28 3.78 1.03 6.26 2.18 0 0-.14 3.67-.18 6.89-.02 1.96-1.66 13.08-1.61 15.82-.19 1.94.03 6.9.24 9.94 0 .04-.02.08-.05.11-.23.58-5.16 1.04-11.22 1.04-5.99 0-10.88-.45-11.21-1.02h-.02v-.06c-.03-1.91.62-6.86.56-8.71-.12-3-.16-6.02-.37-9.04z" fill="#FCD772"/><path d="M563.29 124.799s4.29-.69 7.18-7.02c-.84-.23-1.59-.39-2.23-.51-1.49 4.2-5.19 5.41-5.19 5.41-4.1-1.01-5.68-4.46-6.12-5.75-.59.05-1.28.12-2.02.23.91 2.42 3.39 7.22 8.38 7.64z" fill="#F9C74B"/><path d="M568.73 103.059s2.38-.83 2.38 1.54c0 2.38-2.38 1.67-2.38 1.67v-3.21z" fill="#EE8C72"/><path d="M557 103.059s-2.38-.83-2.38 1.54c0 2.38 2.38 1.67 2.38 1.67v-3.21z" fill="#F7A184"/><path d="M556.78 107.239c0 3.89 2.93 7.04 6.54 7.04s6.54-3.15 6.54-7.04v-6.24c0-3.89-2.93-7.04-6.54-7.04s-6.54 3.15-6.54 7.04v6.24z" fill="#F7A184"/><path d="M563.32 93.959c3.26 0 5.96 2.58 6.45 5.94-2.03.91-5.61 1.61-10.44-.93 0 0-.82.92-2.4.54.63-3.17 3.25-5.55 6.39-5.55z" fill="#EE8C72"/><path d="M557.6 97.589c-.39.9-.61 1.9-.61 2.96v6.25c0 3.89 2.93 7.04 6.54 7.04 2.46 0 4.6-1.47 5.72-3.63-1.04 2.41-3.3 4.08-5.93 4.08-3.61 0-6.54-3.15-6.54-7.04v-6.25c0-1.24.3-2.4.82-3.41z" fill="#EE8C72"/><path d="M568.57 96.008s1.14 1.54 1.1 8.38l.57-1.83s.79-6.73-1.23-6.73l-.44.18z" fill="#903D1F"/><path d="M556.22 96.279l-.07-.07c-.02-.01 0-.06.03-.13-.48-1.5 1.98-3.56 1.98-3.56-.19.34-.25.74-.27 1.05.36-.44.77-.84 1.23-1.17 1.69-1.23 3.78-1.57 5.8-1.15 1.44.31 2.71 1.01 4.06 1.56.47.19.88.51 1.41.44.55-.07 1.06-.4 1.53-.67.13.88-.03 1.97-.48 2.74-.02.03-.04.07-.06.1.52-.11.91-.23.91-.23-.71 1.83-2.47 3.1-2.47 3.1-4.59 2.66-8.47.83-10.12-.25.08.34.33.59.33.59-.46-.03-.85-.28-1.11-.49-.44.51-1.02.98-1.72 1.13-.24 1.23-.42 2.97-.36 5.39l-1.38-2.13c.01.01-4.8-4.94.76-6.25z" fill="#903D1F"/><path d="M556.81 97.978c1.1 0 1.56-1.22 1.56-1.22l.89.62-.14-1.08s2.8 2.06 6.42 2.18c2.89.1 5.17-2.17 5.97-3.08.46-.1.79-.2.79-.2-.71 1.83-2.47 3.1-2.47 3.1-4.59 2.66-8.47.83-10.12-.25.08.34.33.59.33.59-.46-.03-.85-.28-1.11-.49-.44.51-1.02.98-1.72 1.13-.03.14-.05.28-.08.43-.3-.87-.43-1.73-.32-1.73z" fill="#752B14"/><path d="M560.56 105.059c0 .52.27.94.59.94.33 0 .59-.42.59-.94s-.27-.94-.59-.94c-.32 0-.59.42-.59.94zM567.13 105.059c0 .52.27.94.59.94.33 0 .59-.42.59-.94s-.27-.94-.59-.94c-.32 0-.59.42-.59.94z" fill="#602C05"/><path d="M564.55 106.149s1.07-.04 1.07.87-1.65.68-1.7 0c-.06-.68-.15-5.68.63-.87z" fill="#EE8C72"/><path d="M560.17 103.269c.04 0 .07-.01.11-.02.28-.09.57-.14.86-.14.29 0 .58.05.86.14.04.01.07.02.11.02.15 0 .29-.1.33-.24.03-.09.02-.18-.02-.27a.326.326 0 0 0-.21-.17 3.57 3.57 0 0 0-1.07-.17c-.37 0-.73.06-1.08.17-.09.03-.16.09-.2.17a.36.36 0 0 0-.02.27c.04.14.18.24.33.24zM568.91 103.269c.15 0 .29-.1.33-.24.03-.09.02-.18-.02-.27a.334.334 0 0 0-.2-.17 3.57 3.57 0 0 0-1.07-.17c-.37 0-.73.06-1.07.17-.09.03-.16.09-.2.17a.36.36 0 0 0-.02.27c.05.14.18.24.33.24.04 0 .07-.01.11-.02.28-.09.57-.14.86-.14.29 0 .58.05.86.14.01.01.05.02.09.02z" fill="#903D1F"/><path d="M563.91 110.449c1.13.09 2.15-.33 2.17-.34.09-.04.13-.14.09-.23a.172.172 0 0 0-.23-.09c-.12.05-2.95 1.2-4.13-1.06a.16.16 0 0 0-.23-.07.16.16 0 0 0-.07.23c.58 1.11 1.52 1.49 2.4 1.56z" fill="#D24646"/><path d="M538.07 137.238c.67-.37 1.54-1.04 2.77-2.16l.51-.47c4.21-3.84 8.62-7.87 9.75-9.71.02-.03.03-.05.05-.08.03-.05.05-.09.08-.14.47-.85.55-1.88.18-2.81-.2-.5-.52-.95-.93-1.31a3.32 3.32 0 0 0-3.87-.31c-.06.01-.11.02-.17.04-5.03 4.89-13.54 12.15-12.21 15.53v.01c.01.04.02.07.04.11l.04.1c.05.13.11.24.18.36.08.14.16.29.29.39.02.02.04.03.06.05.01.02.16.13.39.27l.09.06c.02.01.05.03.07.04.06.04.13.07.19.1.03.01.05.03.08.04.03.01.05.03.08.04.24.11.51.2.78.24.22.03.46.03.72-.04.28-.06.56-.18.83-.35z" fill="#FCD772"/><path d="M547.68 145.049l1.24-.97.98.15c.9-.34 1.27-.97 1.73-1.06.45-.09 1.14-.61 1.14-.61.45.62-.33 1.34-.33 1.34.06-.02.13-.03.19-.05l.47-.12c.2-.05.4-.1.59-.15.19-.05.38-.1.58-.15.15-.03.3-.07.45-.09.16-.02.31.01.47.03.2.03 1.24.34 1.41.37.08.01.25.04.25.04.09.19.11.4.02.59-.16.33-.62.35-.86.32-.18-.02-.42-.09-.59-.14-.15-.04-.11-.08-.37-.04-.15.02-.29.08-.43.12l-.94.27-.21.06s1.56.2 2.04.31c.36.08 1.43 1 1.43 1 .77.66-.36.99-.36.99.06.06.15.17.15.27 0 .08-.05.15-.09.2a.71.71 0 0 1-.3.18c-.2.07-.41.11-.63.07-.06-.01-.12-.03-.18-.05a1.22 1.22 0 0 1-.17-.07c-.07-.03-.14-.06-.21-.1-.21-.11-.43-.21-.64-.35-.02-.02-.08-.07-.11-.07l-1.2-.01c.41.2.87.91 1.43 1.22.08.05.17.1.24.17.07.07.15.16.14.27-.01.1-.1.14-.17.17-.23.1-.48.11-.72.07-.13-.02-.25-.07-.38-.12a1.35 1.35 0 0 1-.26-.15c-.04-.02-.07-.05-.11-.08-.77-.77-1.6-1.13-2.61-.54-1.45.85-2.74-1.32-2.74-1.32l-.34-1.97z" fill="#FAA284"/><path d="M537.5 132.718c-.71-.33-1.53-.32-2.22.02-.17.08-.28.15-.31.16l-.04.04a2.343 2.343 0 0 0-.63.63c-.01.02-.02.03-.03.05-.31.44-.42.9-.43 1.31-.02.37.04.73.18 1.07.03.1.06.18.08.22.03.04.06.08.08.12.11.19.25.37.41.54 3.32 3.97 11.16 9.67 13.09 10.39.61-.6 2.36-3 2.61-3.32-1-1.49-3.45-4.22-8.72-8.32-1.05-.81-1.83-1.45-2.49-1.98-.57-.47-1.1-.76-1.58-.93z" fill="#FCD772"/><path d="M550.3 143.939c-.19-.28-.42-.6-.72-.97l-3.06 3.69c.49.29.89.5 1.17.6.6-.6 2.35-3 2.61-3.32z" fill="#fff"/><path d="M606.871 110.149s-2.56-2.32-10.86-.88c-.58.1-2.21 2.49-2.21 2.49s-.48 3.8-1.04 4.7c-.55.9-1.17 2.69-1.17 2.69s-.9 3.25.97 4.83c0 0 3.08.48 5.52.48 4.55 0 9.74-1.93 9.74-1.93l-.95-12.38z" fill="#702B16"/><path d="M585.72 135.548l5.8-13.55c.04-.12.09-.24.15-.35a2.88 2.88 0 0 1 3.88-1.23c1.35.7 1.91 2.33 1.31 3.71l.02.01-6.78 13.56a2.45 2.45 0 0 1-3.06 1.34 2.449 2.449 0 0 1-1.49-3.12c.05-.13.1-.25.17-.37z" fill="#F45B79"/><path d="M599 159.049h3.45c6.94-.32 8.15-1.71 8.47-4.02-.07-4.19-.99-7.47-3.24-9.7l-14.6.05c-2.31 2.25-3.11 4.93-3.11 8.72 0 0 .01 1.41.04 1.91 1.32 2.29 3.93 3.04 8.99 3.04z" fill="#263544"/><path opacity=".15" d="M609.25 147.429c-.43-.78-.95-1.48-1.57-2.1l-14.6.05c-.35.34-.66.69-.94 1.05 1.23.63 5.67 2.26 17.11 1z" fill="#000"/><path d="M605.45 208.93c-.97 2.78-3.48 5.83-3.48 5.83l-2.18.25-2.19.54s-.55.56-.07 1.38h5.56l1.9-4.73-.13 4.73h.58l1.18-5.88s-.11-1.4-1.17-2.12z" fill="#51463A"/><path d="M605.45 208.919l-1.4-1.27-1.57 1.27s-1.69 5.39-2.69 6.09l2-.01c-.01-.01 2.69-3.3 3.66-6.08z" fill="#FAA284"/><path d="M604.76 208.989s-2.19 7.92-1.39 8.04h4.38s.65.22-.06-7.88l-1.6-.19-1.33.03z" fill="#665846"/><path d="M604.76 208.939l-.73 5.99c.38.08 2.4-.32 3.16.24 0 0 .46-2.74.51-6.23l-1.35-1.81-1.59 1.81z" fill="#FAA284"/><path d="M600.27 156.169a5.138 5.138 0 0 0-4.87-5.38h-.26c-2.73 0-4.98 2.14-5.12 4.87-.01.29 0 .58.03.86l.84 25.65.01.4h.05c.03.22.09.45.17.67.49 1.38 1.8 2.3 3.27 2.3.39 0 .79-.07 1.17-.2 1.17-.42 1.97-1.4 2.21-2.54h.02l.01-.12c.05-.26.06-.53.05-.8l2.32-24.91c.05-.27.09-.53.1-.8zM610.94 154.629c.01-2.76-2.22-5.07-4.97-5.15h-.22c-2.78.03-5.05 2.32-5.07 5.1 0 .29.02.58.07.86l1.98 25.23c-.01.09-.01.18-.01.27a3.455 3.455 0 0 0 3.36 3.43h.15a3.477 3.477 0 0 0 3.4-3.03h.05V180.519l1.19-24.22c.04-.25.07-1.4.07-1.67z" fill="#263544"/><path d="M605.14 208.149c-.16-1.01-.3-1.96-.44-2.84-.77-5.04-1.24-8.08-2.11-11.44-1.66-6.43-2.22-7.89-4.96-13.02l-.03-.06a3.425 3.425 0 0 0-3.21-2.19c-.4 0-.79.07-1.18.21-1.67.6-2.59 2.35-2.2 4.04l-.03.01.08.19.06.18c.06.17.14.34.22.49l10.61 25.52.16.38.39-.14 2.11-.78.24-.09.33-.12-.04-.34z" fill="#263544"/><path d="M609.65 180.829l-.01-.05c-.03-.89-.4-1.72-1.04-2.34-.62-.61-1.45-.96-2.32-.99h-.14a3.468 3.468 0 0 0-3.4 3.1h-.03l.01.21v.19c0 .19.02.37.05.55l1.68 27.59 3.34.14c.15-.81.32-1.72.45-2.44l.1-.53c.92-5.01 1.47-8.04 1.75-11.5.53-6.63.48-8.19-.44-13.93z" fill="#263544"/><path d="M612.95 138.219l-5.6-13.63a2.877 2.877 0 0 1 1.71-3.98c1.45-.47 3 .27 3.56 1.66l.02-.01 4.92 14.33a2.443 2.443 0 0 1-4.46 1.99 1.44 1.44 0 0 1-.15-.36z" fill="#FF788C"/><path d="M597.59 119.559s.17-.32.34-.43c.17-.11.76-.4.97-.4h3.31s.87.13 1.29.75l.14.42h-6.22l.17-.34z" fill="#D8D8D8"/><path d="M612.02 121.699c-.5-1.02-2.66-1.61-4.39-1.67-.03-.01-.06-.01-.09-.02-1.19-.22-2.98-.34-5.33-.34-1.95 0-3.93.08-5.25.15-2.7.14-2.7.14-2.86.42l-.05.12-.01.11c-.02.19-.43 2.51-.49 2.73-.28.95-.73 1.84-1.32 2.66-.98 1.34-1.98 2.95-1.58 4.96.36 1.8 1.43 3.3 2.86 4.06.37 1.62.54 4.88.39 6.33-.14 1.38-1.09 3.94-1.63 5.02-.21.18 6.42.42 8.01.42 4.22 0 8.01-.67 8.01-.67-.48-1.2-.88-3.08-1.15-4.83-.31-2.07-.32-6.22.37-7.77.54-1.19 1.02-2.41 1.49-3.6.3-.76.6-1.52.92-2.27l.51-1.26c.11-.27.22-.55.33-.82a2.783 2.783 0 0 0 1.26-3.73z" fill="#FF788C"/><path d="M603.34 119.639s-.91-.15-1.09-.65l-.38-3.85h-2.76l-.24 3.91c-.12.14-.47.47-1.06.69-.2.02-.41.05-.62.08.16 1.27 1 1.01 2.87 1.01 1.9 0 4.14.22 4.26-1.07-.33-.05-.67-.09-.98-.12z" fill="#EE8C72"/><path d="M599.12 115.139h2.76l.34 3.5c-1.2-.18-2.47-.61-3.25-.92l.15-2.58z" fill="#DD725E"/><path opacity=".12" d="M604.7 134.929c.94-.04 1.46-.65 1.46-.65l-13.57.01c.25.22.52.41.81.57.1.03.2.05.29.07 3.36.01 10.3.03 11.01 0z" fill="#666"/><path d="M599.88 120.719s-.09 2.03-1.22 2.09c0 0-1.92-.23-1.92-2.98 0 0 .69-.35 1.13-.7 0 0 .49-.35 1.08-.45v.06s-.76.11-1.2.63c0 0-.37.49.41.89s1.72.46 1.72.46zM602.221 118.679s.83.17 1.23.59c.41.42 1.94.48 1.94.48s-1.24 3.59-4.04 2.98c0 0-1.49-.17-1.47-2.01 0 0 2.28.1 3.2-.53 0 0 .49-.26.41-.59-.07-.33-.36-.61-1.28-.86l.01-.06z" fill="#fff"/><path d="M593.24 110.148s.55 2.23-.14 4.02c-.69 1.8-3.59 7.73-.55 9.81 0 0-1.73-2.28-.62-4.7 1.11-2.42 2.97-3.59 2.83-8.08l-.14-1.59-1.38.54z" fill="#903D1F"/><path d="M595.041 107.589s-2.25-.79-2.25 1.46 2.25 1.58 2.25 1.58v-3.04z" fill="#EE8C72"/><path d="M606.49 110.489c0 3.69-2.78 6.69-6.21 6.69s-6.21-2.99-6.21-6.69l.65-5.91c0-3.69 2.1-4.66 5.52-4.66 3.43 0 5.77.93 5.77 4.63l.48 5.94z" fill="#F7A184"/><path d="M606.231 107.249l-.22-2.71c0-3.69-2.34-4.63-5.77-4.63-3.11 0-5.12.81-5.47 3.71.86.84 5.19 4.66 11.46 3.63zM600.02 116.55c3.21 0 5.85-2.62 6.17-5.99l.29.09c-.08 3.62-2.82 6.52-6.2 6.52-2.63 0-4.88-1.77-5.78-4.26 1.03 2.16 3.11 3.64 5.52 3.64z" fill="#EE8C72"/><path d="M606.07 107.589s2.26-.79 2.26 1.46-2.26 1.58-2.26 1.58v-3.04z" fill="#F7A184"/><path d="M610.71 119.559c-.27-.17-.44-.4-.53-.64-.06-.59-.05-1.12.05-1.43.31-1 0-1.55-.55-2.49-.55-.93-.79-1.1-.31-3.8.48-2.69 1.28-5.08-.66-8.8-1.93-3.73-5.66-3.52-5.66-3.52s.01.02.02.06c-.28-.07-.59-.11-.92-.13-4.66-.21-5.35.48-6.94 2.28 0 0 1.69 5.97 9.49 6.25 0 0-.07 3.73-1.24 8.15s-1.76 5.52-1 6.59c0 0 .22-1.31.74-2.4-.14 2.94 4.07 4.96 5.44 5.34 1.52.41 4.07-.48 4.49-2.21.42-1.73-1.24-2.49-2.42-3.25z" fill="#903D1F"/><path d="M596.07 102.639s-.62 4.35-1.66 4.83l-.9.14s-2.07-4.76 1.69-6.53l.87 1.56z" fill="#903D1F"/><path d="M595.66 102.148l.03-.2c.04-.29.07-.56.07-.8 0 0 3.81 5.5 9.49 5.18 0 0-.08 1.01-.59 1.9.04-.57.04-.89.04-.89-5.04-.18-7.53-2.73-8.66-4.52-.13.82-.72 4.23-1.63 4.65l-.38.06c.37-.95 1.32-3.55 1.63-5.38z" fill="#752B14"/><path d="M597.16 113.119h3.77s.37-.01.11.56c-.17.36-.62 1.12-1.92 1.15-1.54.04-2.07-1.19-2.07-1.19s-.27-.52.11-.52z" fill="#D24646"/><path d="M601.1 113.519c.13-.41-.17-.4-.17-.4h-3.77c-.28 0-.21.3-.16.45.72.19 2.2.42 4.1-.05z" fill="#fff"/><path d="M598.351 110.549s-1-.04-1 .82c0 .85 1.55.63 1.6 0 .04-.63.13-5.32-.6-.82z" fill="#EE8C72"/><path d="M603.131 107.869c.15 0 .28-.09.32-.23a.339.339 0 0 0-.22-.43c-.33-.11-.67-.16-1.01-.16-.34 0-.68.05-1.01.16a.339.339 0 0 0-.22.43c.05.14.18.23.32.23.04 0 .07-.01.1-.02.26-.08.53-.13.8-.13s.54.04.8.13c.06.01.09.02.12.02zM595.09 107.869c.03 0 .07-.01.1-.02.26-.08.53-.13.8-.13s.54.04.8.13a.324.324 0 0 0 .42-.21.339.339 0 0 0-.22-.43c-.33-.11-.67-.16-1.01-.16-.34 0-.68.05-1.01.16a.339.339 0 0 0-.22.43c.06.13.19.23.34.23z" fill="#702B16"/><path d="M602.34 109.639c0 .54-.22.98-.49.98s-.49-.44-.49-.98.22-.98.49-.98.49.44.49.98z" fill="#602C05"/><path d="M601.92 108.749s.53-.02.56-.25c0 0-.1.61-.24.68l-.32-.43zM595.61 109.639c0 .54.22.98.49.98s.49-.44.49-.98-.22-.98-.49-.98-.49.44-.49.98z" fill="#602C05"/><path d="M596.02 108.749s-.53-.02-.56-.25c0 0 .1.61.24.68l.32-.43z" fill="#602C05"/><path d="M625.3 151.488c-.53-1.28-4.11-9.63-8-15.01l-.01-.01v-.01a2.244 2.244 0 0 0-3.07-.77c-1.06.64-1.4 2.02-.76 3.08.06.11 6.02 10.77 9.61 14.01l2.23-1.29z" fill="#F2F2F2"/><path d="M624.35 149.369l-2.9 1.69c-.13.05-.34-.18-.34-.18-3.54-4.37-7.84-12-7.84-12-.7-1.16-.33-2.66.83-3.36 1.16-.7 2.66-.32 3.36.83 2.84 3.92 5.48 9.4 6.93 12.61 0 .02.18.28-.04.41z" fill="#FF788C"/><path d="M622.77 156.959s5.86 2.07 6.03 9.22c.17 7.15-4.57 8.1-1.81 11.72 0 0-1.12.43-2.15-.43 0 0-4.02 5.72-11.52.46 0 0-1.41-1.41-1.06-3.91 0 0-.86 1.29-.43 2.76 0 0-2.87-8.33.58-11.95l10.36-7.87z" fill="#903D1F"/><path d="M631.24 180.239l-.01.03c-.04.17-.13.28-.18.35-.05.07-.1.14-.16.2l-.01.01-.01.01-.03.03-.03.02c-1 1.05-3.27.25-6.61-1.09-.38-.15-.74-.3-1.08-.43l-.15-.06-.11-.12c-.59-.45-.86-1.22-.67-1.95v-.01l.01-.03c.08-.29.24-.56.45-.78.38-.4.92-.61 1.47-.57.03 0 .06 0 .09.01h.04-.01c.81.1 2.44.76 4.83 1.77l.05.02.23.1c.58.24.98.45 1.25.65.16.1.29.22.39.37.11.14.18.28.23.44.04.14.06.3.07.47V179.789c0 .03 0 .07-.01.11v.04l-.01.05c-.01.09-.03.18-.04.25h.01z" fill="#E5E5E5"/><path d="M631.96 171.969l.44.18c.03.01.1.04.18.06.35.12.69.24.91.37l.36.2-.03.42c-.07.91-1.55 5.7-2.63 7.33-.06.1-.13.2-.21.28l-.03.03-.05.06-.07.05c-.01.01-.03.03-.06.04-.18.13-.38.23-.59.28-.1.03-.22.04-.34.05-.18 0-.36-.02-.53-.08-.17-.06-.27-.12-.31-.14-.08-.04-.14-.1-.19-.13l-.04-.03-.05-.05c.01.01.01.02.03.03-.03-.02-.07-.07-.12-.13-.31-.35-.45-.81-.39-1.27.02-.27.09-.55.21-.84.12-.28.26-.62.43-1.06.87-2.2 2.26-4.69 2.77-5.29l.31-.36z" fill="#F7A184"/><path d="M628.89 177.629c-.18.44-.32.78-.43 1.06-.12.29-.19.57-.21.84-.06.46.08.92.39 1.27.05.06.09.1.12.13l-.03-.03.05.05.04.03a1.562 1.562 0 0 0 .5.27c.17.06.35.09.53.08.12 0 .24-.02.34-.05.22-.05.42-.15.59-.28.02-.02.04-.03.06-.04l.07-.05.05-.06.03-.03c.08-.09.15-.18.21-.28.74-1.11 1.66-3.71 2.2-5.53-.92-.36-2.05-.75-2.78-1-.58 1.02-1.24 2.37-1.73 3.62z" fill="#E5E5E5"/><path d="M607.65 179.559l-.01-.02c-.06-.16-.05-.31-.05-.39 0-.09.01-.17.02-.25v-.02l.01-.04.01-.03c.26-1.42 2.59-2 6.12-2.72.4-.08.79-.16 1.14-.24l.16-.04.16.05c.74.05 1.39.55 1.63 1.26v.01l.01.03c.09.29.11.6.06.9-.1.54-.43 1.01-.92 1.28-.03.02-.05.03-.07.04-.01 0-.02.01-.04.02-.73.36-2.45.7-5 1.18l-.05.01-.25.05c-.61.11-1.06.16-1.4.15-.19 0-.36-.03-.53-.09-.16-.06-.31-.14-.43-.24-.11-.1-.22-.21-.31-.36l-.01-.01-.01-.02-.01-.02-.02-.03a.901.901 0 0 0-.05-.09l-.02-.03-.02-.05c-.04-.08-.08-.17-.1-.23l-.02-.06z" fill="#CCC"/><path d="M600.89 178.038l.12-.46c.01-.03.02-.1.04-.18.08-.36.15-.71.25-.95l.15-.39.42-.02c.91-.05 5.86.78 7.61 1.64.11.04.21.1.31.17l.04.02.06.04.06.06.05.05a1.591 1.591 0 0 1 .45.88c.03.18.03.36-.01.54-.04.18-.08.28-.09.32-.03.08-.08.16-.11.21l-.03.04-.04.06c.01-.01.01-.02.02-.03-.02.03-.06.08-.11.14-.31.36-.75.56-1.21.56-.27.02-.56-.02-.86-.1-.29-.08-.64-.17-1.11-.29-2.3-.58-4.95-1.62-5.61-2.04l-.4-.27z" fill="#F7A184"/><path d="M610.08 180.168a2.026 2.026 0 0 0 .09-.11l.04-.06.03-.04c.03-.05.07-.13.11-.21.01-.03.06-.14.09-.32.04-.18.04-.36.01-.54a1.591 1.591 0 0 0-.45-.88l-.05-.05-.06-.06-.06-.04-.04-.02c-.1-.07-.2-.12-.31-.17-1.21-.59-3.96-1.17-5.84-1.46-.13.67-.33 1.76-.57 2.89 1.1.43 2.53.91 3.83 1.24.46.12.81.21 1.11.29.3.08.59.11.86.1.46-.01.9-.21 1.21-.56z" fill="#CCC"/><path d="M602.15 177.128c-.13.4-.45.74-.95 1.01-.04.02-1.04.49-2.98-.35l-2.02-.08c-.15-.02-.32-.1-.3-.38 0-.03.01-.06.02-.08.05-.15.19-.25.4-.28l1.47-.11-2.09-.34h-.02a.3.3 0 0 1-.19-.16.543.543 0 0 1-.03-.36c.07-.23.27-.36.46-.31l1.92.18-2.08-.69a.328.328 0 0 1-.2-.17.472.472 0 0 1-.03-.37c.08-.24.3-.38.5-.32l2.24.7v-.01l-1.74-.97a.37.37 0 0 1-.2-.19.508.508 0 0 1-.04-.38c.08-.24.29-.38.49-.32h.02l1.97 1c.11.02.79.16 1.09.3.15.06.33.09.39.07.01-.14-.19-.71-.4-1.19a.82.82 0 0 1-.02-.58c.02-.06.04-.11.07-.16.1-.16.21-.23.31-.23.06 0 .12.04.15.11v.02s.06.18.14.35c.18.36.47.84.69 1.2.08.13.15.24.19.31.35.61.46 1.22.48 1.36.1.11.5.74.29 1.42zM633.1 211.039l-9.59-6.19-.02-.01-.02-.01c-.07-.04-.13-.08-.2-.13-.81-.61-1-1.78-.42-2.61l.02-.03.02-.03c.31-.41.75-.67 1.26-.74.51-.07 1.01.06 1.41.36 0 0 3.62 1.74 5.93 4.09l2.86 2.6.46.4-1.65 2.36c-.02-.03-.05-.05-.06-.06z" fill="#FAA284"/><path d="M629.65 208.809l2.03-2.91 2.69 2.44.46.4-1.65 2.36c-.04-.03-.07-.05-.08-.06l-3.45-2.23z" fill="#E5E5E5"/><path d="M624.53 204.868h-.07c-1.02.07-1.93-.71-2.02-1.74v-.03l-1.19-9.03v-.07c-.06-1.14.77-2.13 1.91-2.25h.1a2.137 2.137 0 0 1 2.26 2V193.858l.71 8.83v.04c.01.04.01.08.01.12.06 1.01-.7 1.92-1.71 2.02z" fill="#FAA284"/><path d="M621.23 194.068v-.07c-.06-1.14.77-2.13 1.91-2.25h.1a2.137 2.137 0 0 1 2.26 2V193.858l.59 7.35c-1.36.13-2.71.21-3.9.2l-.96-7.34z" fill="#EE8C72"/><path d="M617.35 214.149l.49-3.84c.6-3.24-.04-7.2-.04-7.2.02-.51-.16-.99-.51-1.37-.35-.37-.82-.59-1.33-.61h-.06c-1.02 0-1.87.82-1.91 1.84 0 .08 0 .15.01.24v.04l.41 11.41c0 .03 0 .07.01.1h2.88c.04-.13.05-.27.06-.41l-.01-.2z" fill="#FAA284"/><path d="M614.41 214.659v.1h2.88c.04-.13.05-.27.06-.41v-.2l.46-3.6h-3.55l.15 4.11z" fill="#E5E5E5"/><path d="M615.9 204.949h-.07a1.913 1.913 0 0 1-1.83-1.94v-.03l-.25-9.11.01-.03v-.04c.05-1.14.99-2.04 2.13-2.04h.1c.56.02 1.09.27 1.48.69.39.42.59.97.56 1.54 0 .02 0 .05-.01.07v.04l-.2 8.85v.16c-.05 1.02-.9 1.84-1.92 1.84z" fill="#FAA284"/><path d="M618.01 194.079v-.02c0-.02 0-.04.01-.07.02-.57-.18-1.12-.56-1.54a2.15 2.15 0 0 0-1.48-.69h-.1c-1.14 0-2.08.89-2.13 2.04v.04l-.01.03.2 7.35c.95.07 2.34.15 3.9.21l.17-7.33v-.02z" fill="#EE8C72"/><path d="M614.16 213.299s-1.13 1.15-3.07 1.88c0 0-3.49-1.26-2.57 1.85h9.43s.31-2.22-.3-3.71c0 0-.22-.11-.55.23-.33.34-1.75.54-2.29.35.02 0-.29-.71-.65-.6z" fill="#F45B79"/><path d="M611.09 215.178s-3.49-1.26-2.57 1.85h9.43s.05-.37.07-.82h-6.33c-.2-.55-.6-1.03-.6-1.03zM631.79 210.399s.03 1.61-.81 3.51c0 0-3.35 1.61-.48 3.13l6.62-6.73s-1.37-1.77-2.85-2.39c0 0-.24.08-.22.55.02.47-.84 1.63-1.36 1.88-.01 0-.73-.29-.9.05z" fill="#F45B79"/><path d="M630.98 213.899s-3.35 1.61-.48 3.13l6.62-6.73s-.23-.29-.54-.63l-4.44 4.52c-.54-.23-1.16-.29-1.16-.29z" fill="#F45B79"/><path d="M624.38 175.849c-2.13-.4-2.93-.29-2.93-.29s-3.68-.21-7 .33c0 0-2.26 13.01-2.26 13.48 4.12 1.41 9.29 1.46 13.93.14 0-.09-1.74-13.66-1.74-13.66z" fill="#E5E5E5"/><path d="M625.93 187.999c-.45-3.55-1.55-12.16-1.55-12.16-.68-.13-.76-.2-1.19-.25l-.15 4.24h-7.91l.39-4.1c-.36.04-.72.09-1.07.15 0 0-1.6 9.17-2.1 12.39l-2.24 11.48s8.93 2 17.58-.23l-1.76-11.52z" fill="#FC597F"/><path d="M618.68 177.608c1.49-.03 2.81-1.02 2.87-2.06-1.36-.14-2.56-.01-2.56-.01l-.31.01s-1.22-.07-2.76.18c.15 1 1.29 1.91 2.76 1.88z" fill="#EE8C72"/><path d="M620.42 172.568h-3.67v3.76h3.67v-3.76z" fill="#EE8C72"/><path d="M620.42 175.058v-2.48h-3.67v2.01c.77.22 2.2.57 3.67.47z" fill="#DD725E"/><path d="M613.13 166.269s-2.19-.77-2.19 1.42 2.19 1.54 2.19 1.54v-2.96z" fill="#EE8C72"/><path d="M624.581 166.269s2.19-.77 2.19 1.42-2.19 1.54-2.19 1.54v-2.96z" fill="#F7A184"/><path d="M624.791 168.679c0 3.17-2.77 5.74-6.19 5.74-3.42 0-6.19-2.57-6.19-5.74v-5.09c0-3.17 2.77-5.74 6.19-5.74 3.42 0 6.19 2.57 6.19 5.74v5.09z" fill="#F7A184"/><path d="M618.601 173.919c-3.42 0-6.19-2.57-6.19-5.74v.5c0 3.17 2.77 5.74 6.19 5.74 3.42 0 6.19-2.57 6.19-5.74v-.5c0 3.17-2.78 5.74-6.19 5.74zM616.34 164.728s2.73-1.41 2.82-3.14c0 0 1.96 2.6 2.05 3.92 0 0 1.37-.96 1.59-2.14 0 0 .96.86 1.98 2.03v-1.8c0-3.17-2.77-5.74-6.19-5.74-3.42 0-6.19 2.57-6.19 5.74v3.58c.65-.67 2.07-1.92 3.94-2.45z" fill="#EE8C72"/><path d="M616.461 171.019h3.43s.34-.01.09.51c-.15.33-.57 1.02-1.75 1.05-1.4.04-1.89-1.08-1.89-1.08s-.22-.48.12-.48z" fill="#D24646"/><path d="M620.041 171.389c.12-.38-.15-.37-.15-.37h-3.43c-.26 0-.19.27-.15.41.67.17 2.01.38 3.73-.04z" fill="#fff"/><path d="M617.57 168.869s-.94-.03-.94.77c0 .81 1.46.6 1.51 0 .05-.6.13-5.02-.57-.77z" fill="#EE8C72"/><path d="M619.761 166.288c-.03-.14.05-.28.19-.31.01 0 .49-.12 1.06-.12.29 0 .6.03.9.13.14.05.21.19.16.33-.05.14-.19.21-.33.16-.22-.07-.48-.1-.73-.1s-.49.03-.66.05c-.17.03-.27.05-.27.05-.02.01-.04.01-.06.01-.12 0-.23-.08-.26-.2zM613.65 166.288c-.03-.14.05-.28.19-.31.01 0 .49-.12 1.06-.12.29 0 .6.03.9.13.14.05.21.19.16.33-.05.14-.19.21-.33.16-.22-.07-.48-.1-.73-.1s-.49.03-.66.05c-.17.03-.27.05-.27.05-.02.01-.04.01-.06.01-.12 0-.23-.08-.26-.2z" fill="#903D1F"/><path d="M621.63 167.068c-.05.17-.27.22-.39.23a.568.568 0 0 0-.33-.11c-.36 0-.66.34-.66.75 0 .42.29.75.66.75.36 0 .66-.34.66-.75 0-.1-.02-.2-.05-.29.16-.22.11-.58.11-.58zM614.84 167.189c-.12 0-.24.04-.34.11-.1-.01-.38-.04-.43-.24 0 0-.06.43.16.63-.02.08-.04.16-.04.25 0 .42.3.75.66.75.36 0 .66-.34.66-.75-.01-.41-.31-.75-.67-.75z" fill="#602C05"/><path d="M624.99 167.018s-.11.17-.79 1.49c0 0 .49-3.51-1.69-6.49 0 0 .4.69-1.15 2.99-.51-1.5-1.14-3.81-2.55-4.72.25.82-.66 1.91-1.09 2.56-1.27 1.95-4.08 1.93-5.21 4.03 0 0-1.61-.95-1.09-4.74s4.2-6.98 8.16-5.78c.01 0 10.15-.37 5.41 10.66z" fill="#903D1F"/><path d="M622.36 160.999c0 .91-.77 2.5-.77 2.5-.05-1.82-3.19-4.83-3.19-4.83 0 1.18-1.5 3.32-1.5 3.32-1 1.91-3.28 1.82-4.1 3.1-.45.7-.52 1.25-.48 1.6.12.12.21.17.21.17 1.13-2.1 3.94-2.07 5.21-4.03.42-.65 1.34-1.74 1.09-2.56 1.41.9 2.04 3.21 2.55 4.72 1.55-2.3 1.15-2.99 1.15-2.99a8.962 8.962 0 0 1 1.45 3.2c.1-2.73-1.62-4.2-1.62-4.2z" fill="#752B14"/><path d="M624.78 158.308s5.23-.49 4.58 1.24c-.65 1.72-2.36 3.9-3.19 3.13-.82-.77-1.75-3.66-1.75-3.66l.36-.71zM624.21 157.919s-1.38-5.07-2.77-3.86c-1.39 1.21-2.82 3.58-1.81 4.08 1.01.5 4.04.35 4.04.35l.54-.57z" fill="#FCD772"/><path d="M624.72 159.409c-.14.2-.42.25-.62.11l-.83-.57a.448.448 0 0 1-.11-.62l.65-.94c.14-.2.42-.25.62-.11l.83.57c.2.14.25.42.11.62l-.65.94z" fill="#FFC127"/><path d="M625.14 158.398s3.32.35 3.06.88c-.25.52-3.06-.88-3.06-.88zM624.95 158.669c.06.04 3.14 1.59 2.83 2.03-.31.45-2.83-2.03-2.83-2.03zM624.81 158.879s2.35 2.39 2.05 2.63c-.31.25-2.05-2.63-2.05-2.63zM623.95 157.529s-1.09-2.49-1.39-2.44c-.3.06.22 1.33 1.39 2.44zM623.74 157.769s-1.96-2.24-2.34-1.69c-.38.55 2.34 1.69 2.34 1.69zM623.4 158.258s-2.08-1.44-2.25-.9c-.17.53 2.25.9 2.25.9z" fill="#FFC127"/><path d="M632.09 172.409c.28.32.71.5 1.28.53.05 0 1.15.02 2.58-1.53l1.82-.89c.13-.08.25-.22.12-.47a.18.18 0 0 0-.05-.07c-.11-.12-.28-.15-.48-.1l-1.39.5 1.77-1.17h.02c.06-.06.1-.14.11-.23a.49.49 0 0 0-.12-.34c-.16-.18-.4-.22-.55-.1l-1.68.95 1.61-1.48c.06-.06.11-.14.11-.23a.48.48 0 0 0-.13-.35c-.17-.19-.43-.22-.58-.09l-1.76 1.55v-.01l1.19-1.6c.06-.06.1-.15.11-.25a.48.48 0 0 0-.12-.36c-.17-.19-.42-.23-.58-.09l-.01.01-.01.01-1.39 1.71c-.09.07-.66.47-.88.72-.11.11-.27.22-.32.22-.07-.12-.11-.73-.12-1.25.01-.17-.08-.39-.21-.54-.04-.05-.09-.08-.13-.11-.16-.1-.28-.13-.37-.08-.06.03-.09.09-.09.16v.02s.02.19.01.37c-.02.4-.09.96-.14 1.37-.02.15-.04.28-.05.37-.07.7.08 1.3.11 1.44-.04.15-.15.88.32 1.41zM571.3 213.528l1.09-10.61v-.04l.03-.28c.22-1.2 1.39-2.03 2.59-1.85l.04.01.04.01c.6.11 1.12.45 1.47.96.35.51.48 1.11.36 1.72 0 0 .52 1.79-.78 5.54l-1.27 4.48-.19.71-3.42-.51c.03-.08.04-.13.04-.14z" fill="#FAA284"/><path d="M574.349 205.288h-.05l-.04-.01a2.306 2.306 0 0 1-1.83-2.64v-.04l1.06-9.15.01-.04.01-.05a2.559 2.559 0 0 1 2.9-2.04l.05.01.07.01c.66.13 1.25.51 1.63 1.08.39.57.53 1.25.4 1.93-.01.03-.01.05-.02.08l-.01.02v.02l-1.56 8.77v.04c-.01.05-.01.1-.02.15-.23 1.21-1.4 2.04-2.6 1.86z" fill="#FAA284"/><path d="M573.49 193.448l.01-.04.01-.05a2.559 2.559 0 0 1 2.9-2.04l.05.01.07.01c.66.13 1.25.51 1.63 1.08.39.57.53 1.25.4 1.93-.01.03-.01.05-.02.08l-.01.02v.02l-1.27 7.13-4.64-.69.87-7.46z" fill="#EE8C72"/><path d="M572.12 199.359l.69-5.71c0-.04.01-.08.01-.12.09-.86.52-1.64 1.19-2.19.68-.55 1.53-.8 2.39-.7l.08.01c1.76.23 2.99 1.79 2.81 3.55v.07l-.01.06-1.14 6.24c-1.98-.3-4.06-.69-6.02-1.21z" fill="#2E3E49"/><path d="M584.08 213.419l-.59-4.61c-.73-3.9.05-5.59.05-5.59-.02-.61.2-1.2.61-1.64.42-.45.99-.71 1.6-.73h.08c1.22 0 2.25.99 2.29 2.21 0 .09 0 .19-.01.28v.04l-.49 10.65c0 .04 0 .08-.01.12h-3.46a1.57 1.57 0 0 1-.07-.49v-.24z" fill="#FAA284"/><path d="M585.83 205.429h.1a2.296 2.296 0 0 0 2.2-2.34v-.04l.3-9.21-.01-.04v-.05a2.57 2.57 0 0 0-2.56-2.45H585.74c-.68.03-1.31.32-1.78.83-.46.51-.71 1.16-.68 1.85 0 .03 0 .06.01.08v.06l.25 8.9v.19a2.309 2.309 0 0 0 2.29 2.22z" fill="#FAA284"/><path d="M583.29 194.099v-.03c0-.03-.01-.05-.01-.08-.03-.69.21-1.34.68-1.85.46-.51 1.1-.8 1.78-.83H585.86c1.37 0 2.5 1.08 2.56 2.45v.05l.01.04-.25 7.52h-4.69l-.2-7.24v-.03z" fill="#EE8C72"/><path d="M582.51 194.018c-.04-.87.27-1.7.86-2.34a3.25 3.25 0 0 1 2.26-1.05h.08a3.246 3.246 0 0 1 3.31 3.1l.01.06v.06l-.19 5.89c-1.41.14-3.61.33-6.14.41l-.17-6.01c-.02-.03-.02-.07-.02-.12z" fill="#2E3E49"/><path d="M588.77 195.369c-.95 1.35-3.42 2.14-6.52 1.9h-2.39c-2.78 0-5.2.31-6.14-.87-1.74-3.42-.69-4.91-.73-7.88l16.04.03c-.02 1.89.32 3.71-.26 6.82zM587.94 212.549s1.36 1.38 3.69 2.26c0 0 4.2-1.52 3.09 2.22h-11.35s-.37-2.67.36-4.46c0 0 .27-.14.66.27.39.41 2.1.65 2.75.42 0 .01.37-.85.8-.71z" fill="#2E3E49"/><path d="M591.63 214.809s4.2-1.52 3.09 2.22h-11.35s-.06-.44-.08-.99h7.62c.25-.66.72-1.23.72-1.23zM587.8 214.308c.09 0 .17-.05.22-.14.35-.7.83-.98.84-.99.12-.07.17-.23.11-.37a.24.24 0 0 0-.33-.13c-.03.01-.63.35-1.05 1.21-.07.13-.02.3.1.37.03.04.07.05.11.05zM588.79 214.858c.09 0 .17-.05.21-.14.35-.7.83-.98.84-.99.12-.07.17-.23.11-.37-.06-.14-.21-.19-.33-.12-.03.01-.63.35-1.05 1.21-.07.13-.02.3.1.37.03.03.08.04.12.04z" fill="#E9E6ED"/><path d="M589.77 215.408c.09 0 .17-.05.22-.14.35-.7.83-.98.84-.99.12-.07.17-.23.11-.37-.06-.14-.21-.19-.33-.12-.03.01-.63.35-1.05 1.21-.07.13-.02.3.1.37.03.03.07.04.11.04z" fill="#E9E6ED"/><path d="M575.28 217.029s-.13-2.17-.43-3.24c0 0-1.19.06-1.45-.31s-1.81-1.95-2.52-.01l-.56 1.09s-2.34-.79-1.59 2.46h6.55v.01z" fill="#2E3E49"/><path d="M570.37 214.579c1.79.49 2.18 1.46 2.18 1.46h2.64c.06.55.08.99.08.99h-6.55c-.77-3.3 1.65-2.45 1.65-2.45zM572.21 213.819c.08 0 .16-.04.21-.12.07-.13.04-.3-.07-.38-.02-.02-.59-.42-1.47-.39-.14.01-.24.13-.24.28 0 .15.12.27.25.27.73-.03 1.18.3 1.18.3.05.03.1.04.14.04zM571.82 214.589c.08 0 .16-.04.21-.12.07-.13.04-.3-.07-.38-.02-.02-.59-.42-1.47-.39-.14.01-.24.13-.24.28 0 .15.12.27.25.27.73-.03 1.18.3 1.18.3.05.03.1.04.14.04z" fill="#E9E6ED"/><path d="M584.03 169.488s-2.32-.6-5.34 0v1.71h5.48l-.14-1.71z" fill="#EAEAEA"/><path d="M594.2 179.169l.02-.02c.14-.15.21-.31.25-.41.04-.1.07-.19.1-.29v-.02l.01-.05.01-.04c.41-1.69-1.87-3.48-5.39-6.01-.4-.29-.78-.56-1.14-.82l-.16-.12-.2-.03c-.84-.31-1.8-.08-2.41.58l-.01.01-.02.02c-.24.27-.42.61-.51.96-.16.65-.02 1.32.38 1.86.02.03.04.06.06.08.01.01.02.02.03.04.62.76 2.35 1.98 4.92 3.76l.05.04.25.17c.62.43 1.09.7 1.47.85.2.09.41.15.63.16.21.02.4 0 .6-.06.17-.05.34-.13.52-.24l.01-.01.03-.02.03-.02.04-.03a.7.7 0 0 0 .1-.08l.03-.03.05-.04c.09-.07.17-.15.22-.21l.03.02z" fill="#F7A184"/><path d="M585.27 171.969l.02-.02.01-.01c.61-.66 1.57-.89 2.41-.58l.2.03.16.12c.35.26.74.53 1.14.82 1.11.8 2.09 1.52 2.91 2.19l-2.52 3.76c-2.26-1.57-3.78-2.67-4.36-3.37a.138.138 0 0 0-.03-.04c-.02-.03-.04-.05-.06-.08-.4-.54-.53-1.22-.38-1.86.08-.35.25-.69.5-.96z" fill="#7ACBDD"/><path opacity=".15" d="M572.97 189.459c.02-.3.03-.61.02-.94l16.04.03c-.01.34 0 .68.01 1.02-1.87.59-8.82 2.4-16.07-.11z" fill="#000"/><path d="M566.78 178.819l.02.03c.11.18.25.28.33.34.09.07.17.12.25.17l.01.01.01.01.04.02.04.02c1.54.82 3.83-.95 7.15-3.75.38-.32.74-.62 1.08-.9l.15-.13.07-.18c.51-.74.52-1.72.03-2.48v-.01l-.02-.03c-.21-.3-.48-.56-.81-.73a2.22 2.22 0 0 0-1.9-.09c-.03.01-.07.03-.1.04-.01.01-.03.01-.05.02h.01c-.89.42-2.5 1.79-4.85 3.85l-.05.04-.23.2c-.57.49-.95.88-1.19 1.21-.14.17-.24.37-.31.57-.07.2-.1.39-.09.59.01.18.04.36.1.56v.01l.01.03.01.03.02.05c.01.03.03.08.05.12l.02.04.03.06c.05.1.1.2.14.27l.03.01z" fill="#F7A184"/><path d="M573.11 171.169c.02-.01.03-.02.04-.02.03-.01.06-.03.1-.04.62-.25 1.31-.22 1.9.09.32.17.6.42.81.73l.02.03v.01c.49.76.48 1.74-.03 2.48l-.07.18-.15.13c-.34.28-.7.58-1.08.9-1.23 1.04-2.32 1.93-3.28 2.6l-2.56-3.71c2.05-1.79 3.48-2.99 4.3-3.38z" fill="#97DAEF"/><path d="M573.72 171.009c2.57-.48 5.68-.56 5.68-.56l4.38-.06s1.02.15 4.05.78c0 0 1.29 17.14 1.28 17.72-4.25 1.3-10.08 1.62-16.27 0 0-.1.88-17.88.88-17.88z" fill="#97DAEF"/><path opacity=".15" d="M583.12 175.849l-.98-2.3-.75 1.23-.82-1.28-1.14 2.23c-1.47-1.09-1.81-4.08-1.89-5.19 1.09-.08 1.86-.1 1.86-.1l4.38-.06s.41.06 1.48.26c-.04 3.34-2.14 5.21-2.14 5.21z" fill="#000"/><path d="M581.85 172.759c-.07 0-.4 1.61-.47 1.6-.05 0-.4-1.63-.45-1.64-1.49-.25-2.51-1.16-2.58-2.21 1.49-.15 2.79-.01 2.79-.01l.34.01s1.33-.08 3.01.19c-.16 1.1-1.04 2.09-2.64 2.06z" fill="#EE8C72"/><path d="M583.81 166.929h-4.42v4.53h4.42v-4.53z" fill="#EE8C72"/><path d="M579.39 170.019v-3.1h4.42v2.44c-.93.29-2.72.74-4.42.66z" fill="#DD725E"/><path d="M589.05 187.839c.04.59.06 1.09.06 1.17-4.25 1.3-10.08 1.67-16.27.05 0-.02.02-.68.06-1.5 6.42 1.73 14.32.59 16.15.28z" fill="#61C0D6"/><path d="M576.5 189.768h-.05l-.9-.05c-.43-.02-.77-.35-.77-.76v-.04l.04-.75c.02-.41.39-.72.81-.71h.05l.9.05c.43.02.77.35.77.76v.04l-.04.75c-.02.41-.38.71-.81.71.01 0 0 0 0 0zm-1.46-.83v.02c0 .25.22.48.53.5l.9.05h.03c.3 0 .53-.21.54-.47l.04-.75v-.02c0-.25-.22-.48-.53-.5l-.9-.05h-.03c-.3 0-.53.21-.54.47l-.04.75-.13-.01.13.01z" fill="#F2F2F2"/><path d="M575.17 187.969l1.83.2-.25-17.62-1.58.12v17.3z" fill="#D0F4FC"/><path d="M585.38 189.009l.13-.01.13-.01c.01.26.25.47.55.47h.03l.9-.04c.31-.01.53-.24.53-.5v-.02l-.03-.75c-.01-.26-.25-.47-.55-.47h-.03l-.9.04c-.31.01-.53.24-.53.5v.02l.03.75-.13.01-.13.01-.03-.75v-.03c0-.41.35-.74.78-.76l.9-.04h.04c.42 0 .79.31.81.72l.03.75v.03c0 .41-.35.74-.78.76l-.91.04h-.04c-.42 0-.78-.31-.8-.72z" fill="#F2F2F2"/><path d="M585.67 188.198l1.82-.2-.69-17.16-1.51-.23.38 17.59z" fill="#D0F4FC"/><path d="M585.82 190.519l1.76-.35-.09-1.2-1.76.13.09 1.42zM576.79 190.629l-1.76-.21.09-1.45 1.76.13-.09 1.53z" fill="#2E3E49"/><path d="M581.39 174.378l-.42-1.67s-2.28-1.51-2.28-3.22l-.94.94s.19 3.4 1.72 4.94l1.09-2.46c.01 0 .62 1.26.83 1.47z" fill="#fff"/><path d="M581.38 174.368l.36-1.66s2.28-1.51 2.28-3.22l.93 1.1s-.17 3.24-1.71 4.77l-1.09-2.46c0 .01-.57 1.27-.77 1.47z" fill="#fff"/><path d="M580.7 189.329c0 .28.22.5.5.5s.5-.22.5-.5-.22-.5-.5-.5-.5.22-.5.5zM586.4 190.288c0 .16.13.3.3.3a.3.3 0 0 0 .3-.3.3.3 0 0 0-.3-.3c-.17 0-.3.13-.3.3zM575.53 190.078c0 .16.13.3.3.3a.3.3 0 0 0 .3-.3c0-.17-.13-.3-.3-.3-.16 0-.3.14-.3.3z" fill="#F2F2F2"/><path d="M586.44 160.449s2.09-1.08 2.39 1.12c.31 2.19-1.98 1.85-1.98 1.85l-.41-2.97z" fill="#EE8C72"/><path d="M574.95 162.069s-2.3-.46-1.99 1.73c.31 2.19 2.41 1.23 2.41 1.23l-.42-2.96z" fill="#F7A184"/><path d="M575.08 164.509c.45 3.18 3.59 5.37 7.02 4.89 3.43-.48 5.85-3.45 5.4-6.63l-.72-5.11c-.45-3.18-3.59-5.37-7.02-4.89-3.43.48-5.85 3.45-5.41 6.63l.73 5.11z" fill="#F7A184"/><path d="M582.05 169.028c3.43-.48 5.85-3.45 5.4-6.63l.05.37c.45 3.18-1.97 6.15-5.4 6.63-3.43.48-6.57-1.71-7.02-4.89l-.05-.37c.45 3.18 3.59 5.37 7.02 4.89zM579.77 152.768c3.17-.44 6.09 1.39 6.87 4.18-.59-.32-1.51-.77-2.04-.81-.84-.06-7.15.54-7.78 1.37-.43.57-1.12 2.79-2.19 3.78l-.26-1.89c-.45-3.18 1.97-6.15 5.4-6.63z" fill="#EE8C72"/><path d="M578.21 163.318c.06.42.4.71.77.66.37-.05.61-.43.56-.85-.06-.42-.4-.71-.77-.66-.37.05-.62.43-.56.85zM584.3 162.459c.06.42.4.71.77.66.37-.05.61-.43.56-.85-.06-.42-.4-.71-.77-.66-.37.06-.62.44-.56.85z" fill="#7C3E06"/><path d="M583.76 165.688l-3.44.48s-.34.04-.02.53c.2.31.71.94 1.9.81 1.41-.16 1.74-1.35 1.74-1.35s.17-.52-.18-.47z" fill="#D24646"/><path d="M580.22 166.558c-.17-.36.1-.39.1-.39l3.44-.48c.26-.04.23.24.2.39-.63.26-1.95.66-3.74.48z" fill="#fff"/><path d="M582.35 163.678s.94-.17 1.05.64c.11.81-1.38.81-1.51.21-.13-.59-.83-5.01.46-.85z" fill="#EE8C72"/><path d="M577.83 161.868c.21-.11.47-.17.72-.21.25-.04.49-.04.67-.04.18 0 .28.01.28.01.14.02.27-.09.29-.23.02-.14-.09-.27-.23-.29-.01 0-.51-.05-1.08.03-.29.04-.6.11-.88.26-.13.06-.18.22-.12.35.05.1.16.16.27.14.02 0 .05-.01.08-.02zM585.92 160.539c.02-.14-.09-.27-.23-.29-.01 0-.51-.05-1.08.03-.29.04-.6.11-.88.26-.13.06-.18.22-.12.35.06.13.22.18.35.12.21-.11.47-.17.72-.21.25-.04.49-.04.67-.04.18 0 .28.01.28.01h.06c.12-.01.22-.1.23-.23z" fill="#752B14"/><path d="M584.8 155.449s1.18.68 1.59 1.94c.39 1.19.52 1.16.95 4.37l-.16-1.54s-.06-2.87-.64-4.45c0 0-1.31-1.03-1.74-.32z" fill="#903D1F"/><path d="M575.69 163.659s-.55-4.45-.26-5.28c.24-.71.66-1.29 1.22-1.49.57-.2 5.83-1.41 7.2-1.43 0 0 1.93-.27 2.48.67l.27.63s.06-4.98-4.08-5.78c-1.92-.37-3.93-.61-7.47 1.3l1.02.23s-.16.07-.9.59c-.86.6-4.87 3.49-.01 9.33l.53 1.23z" fill="#903D1F"/><path d="M585.28 153.918s-1.22-4.09-8.5-1.94c0 0 3.54-.49 6.14 2.6 0 0 2.79.43 2.36-.66z" fill="#752B14"/><path d="M582.55 154.779s-1.47-2.09-4.15-2.2c0 0 2.43 1.23 3.17 2.29.01.01.65-.04.98-.09z" fill="#752B14"/><path d="M574.23 185.398l-.49.31c-.04.02-.1.07-.19.13-.37.26-.72.5-1 .63l-.45.21-.38-.32c-.84-.7-4.5-5.52-5.33-7.71-.06-.13-.1-.26-.13-.4l-.01-.05-.02-.09v-.11-.09c-.01-.27.04-.53.14-.78.04-.12.11-.24.19-.36.12-.18.28-.34.46-.46.18-.13.31-.18.35-.2.1-.04.19-.07.27-.09l.06-.02.08-.02c-.01 0-.03 0-.05.01.04-.01.11-.02.21-.03.56-.06 1.11.13 1.52.51.25.21.47.47.67.79.19.31.42.68.73 1.17 1.54 2.4 3 5.5 3.24 6.42l.13.55z" fill="#F7A184"/><path d="M576.68 189.319c.12 0 .24-.03.34-.08.06-.03.17-.09.18-.24a.41.41 0 0 0-.12-.31c-.06-.07-.13-.11-.18-.15-.18-.11-.34-.31-.5-.5l-.17-.2h.44l.01.01c.01.01.02.02.03.02.14.11.28.19.42.27.06.03.1.06.15.08.04.02.08.04.12.05.04.01.08.03.13.04.05.01.09.02.14.02.1 0 .21-.03.33-.08.08-.03.17-.08.24-.17a.38.38 0 0 0 .09-.24c0-.05-.02-.1-.04-.14.13-.07.31-.2.34-.4.03-.17-.04-.34-.21-.51-.12-.12-.73-.73-.98-.8-.17-.05-.54-.11-.85-.16l.27-.09c.03-.01.07-.02.1-.04.06-.02.11-.04.17-.05.05-.01.08-.01.1-.01.01 0 .01 0 .03.01a2.623 2.623 0 0 0 .48.15c.03 0 .08.01.12.01.16 0 .44-.04.56-.32.06-.16.06-.34-.01-.53-.01-.08-.05-.09-.25-.13-.05-.01-.22-.07-.39-.12-.28-.09-.46-.15-.54-.16h-.02c-.08-.01-.16-.03-.24-.03h-.08c-.09.01-.19.04-.27.06l-.04.01c-.07.02-.15.04-.22.07-.05.02-.1.03-.16.05-.07.02-.14.04-.22.07-.06.02-.12.04-.17.05l-.12.04c.13-.26.21-.6.02-.89l-.06-.1-.09.08s-.44.38-.71.45c-.16.04-.3.17-.46.32-.18.17-.55.2-.77.02l-.44.18-.12.17-.04.03-1.39.85.75 1.54v.02l.01.02c.03.05.63 1.23 1.44 1.23.18 0 .35-.06.51-.17.2-.14.4-.21.59-.21.32 0 .65.2.99.61.03.03.05.05.08.07.07.06.13.1.19.13.09.05.19.09.27.1h.22z" fill="#FAA284"/><path d="M587.83 186.419l.53.23c.04.02.11.05.2.1.4.2.79.39 1.08.48l.48.14.33-.37c.73-.82 3.63-6.13 4.12-8.42.04-.13.06-.28.07-.42l.01-.05.01-.09-.01-.11c0-.02-.01-.05-.01-.09-.03-.27-.12-.52-.26-.75-.06-.11-.14-.23-.24-.33a1.82 1.82 0 0 0-.52-.39c-.2-.1-.33-.14-.37-.15-.1-.03-.2-.04-.28-.05l-.06-.01-.09-.01h.05-.21c-.57.02-1.08.29-1.43.73-.22.24-.4.54-.55.88-.14.34-.32.74-.55 1.26-1.17 2.6-2.15 5.89-2.25 6.83l-.05.59z" fill="#F7A184"/><path d="M588.68 188.578c.16 0 .34-.03.53-.09.4-.13 1.11-.6.92-1.41-.61-2.57-.92-2.96-1.08-3.02-.13-.3-.44-.53-.75-.53l-2.9.17h-.04l-.03.02c-.09.08-.23.29-.09.53.22.37.53.43.84.43l1.43-.04c-.7.24-1.78.61-2.3.79l-.06.02-.01.06c0 .01-.06.3.11.48.2.21.43.26.71.26h.09l.7-.15-1.5.64-.02.01-.02.02c-.04.04-.05.1-.04.15.01.11.11.23.28.35.12.09.3.14.48.14.17 0 .35-.04.48-.12l1.16-.34c-.49.29-1.18.69-1.68.98l-.04.03-.01.05c-.01.04-.02.22.32.39.07.03.16.05.27.05.16 0 .36-.04.58-.1l.82-.34c.2.47.57.57.85.57z" fill="#FAA284"/></g><defs><clipPath id="clip0"><path fill="#fff" transform="translate(503 91.077)" d="M0 0h173v130.53H0z"/></clipPath></defs></svg>