<svg width="376" height="133" fill="none" xmlns="http://www.w3.org/2000/svg" viewBox="0 0 376 133"><path d="M376 0H0v133h376V0z" fill="#F5FCFF"/><mask id="a" maskUnits="userSpaceOnUse" x="0" y="0" width="376" height="133"><path d="M376 0H0v133h376V0z" fill="#F5FCFF"/></mask><g mask="url(#a)"><path d="M-259.576 186.261l-8.795-43.259s56.114-31.007 166.457-37.815c57.814-5.827 203.349 16.648 203.319 24.204-.022 4.524-360.981 56.87-360.981 56.87z" fill="#00AA1D"/><path d="M386.843 125.647l-406.099 17.357-165.806-9.24s372.729-55.27 396.711-55.393c40.896-.211 67.47-16.641 115.302-18.255 26.3-.886 50.546 4.934 67.067 12.042l-7.175 53.489z" fill="#00AA1D"/><path d="M428.391 185.331l-319.431 41.24-130.42-21.953S271.723 73.301 290.587 73.01c32.168-.502 53.071-39.539 90.694-43.373 20.688-2.105 39.759 11.724 52.754 28.611l-5.644 127.083z" fill="#00AA1D"/><path d="M378.762 98.853v-13.31S343.244 75.79 263.96 78.87c22.481-.217 65.563 2.273 114.802 19.983" fill="#00AA1D"/><path d="M398.386 147.369l3.921-44.877s-65.016-24.723-185.806-18.46c-63.584.992-218.801 41.12-217.784 48.772.613 4.581 399.669 14.565 399.669 14.565z" fill="#EAEAEA"/><path fill-rule="evenodd" clip-rule="evenodd" d="M201.467 99.058h50.284v14.664h-50.284V99.058z" fill="#787878"/><path fill-rule="evenodd" clip-rule="evenodd" d="M219.95 101.993h16.261v8.15H219.95v-8.15z" fill="#EABC86"/><path fill-rule="evenodd" clip-rule="evenodd" d="M202.938 57.01l41.289-31.118 21.437 16.155-24.112 18.176 2.684 3.56 8.987-6.774v42.048h-50.285V57.01zm55.616 42.047h21.64V63.773c-8.227-4.868-15.338-4.512-21.64 0v35.284z" fill="#DBDAD5"/><path fill-rule="evenodd" clip-rule="evenodd" d="M244.226 34.938a7.76 7.76 0 0 1 7.765 7.764 7.76 7.76 0 0 1-7.765 7.765 7.761 7.761 0 0 1-7.765-7.764 7.768 7.768 0 0 1 7.765-7.766z" fill="#D2B174"/><path fill-rule="evenodd" clip-rule="evenodd" d="M342.698 71.933v41.788h-8.987V84.355h-39.2v29.366h-8.987V71.933h57.174z" fill="#EFEDEE"/><path fill-rule="evenodd" clip-rule="evenodd" d="M286.987 99.058h7.524v14.664h-7.524V99.058z" fill="#42403D"/><path fill-rule="evenodd" clip-rule="evenodd" d="M285.524 68.373h64.313v3.56h-64.313v-3.56z" fill="#BCBCBC"/><path fill-rule="evenodd" clip-rule="evenodd" d="M262.152 33.81h15.117v5.447h9.362V33.81h63.207v34.563h-64.314V57.009l8.987 6.764 2.685-3.55-35.044-26.413z" fill="#CA4C26"/><path fill-rule="evenodd" clip-rule="evenodd" d="M281.656 99.058h5.33v14.664h-5.33V99.058zM251.75 99.058h5.331v14.664h-5.331V99.058z" fill="#484848"/><path fill-rule="evenodd" clip-rule="evenodd" d="M257.082 113.721h24.574v-2.935h-24.574v2.935z" fill="#959595"/><path fill-rule="evenodd" clip-rule="evenodd" d="M257.082 110.787h24.574v-2.925h-24.574v2.925z" fill="#818181"/><path fill-rule="evenodd" clip-rule="evenodd" d="M257.082 107.861h24.574v-2.934h-24.574v2.934z" fill="#A9A9A9"/><path fill-rule="evenodd" clip-rule="evenodd" d="M257.082 104.928h24.574v-2.935h-24.574v2.935z" fill="#959595"/><path fill-rule="evenodd" clip-rule="evenodd" d="M269.368 39.256l-25.142-18.945-52.959 39.912 2.684 3.55 50.275-37.882 21.438 16.156 3.704-2.79z" fill="#F0F0F0"/><path fill-rule="evenodd" clip-rule="evenodd" d="M278.375 20.31h7.149v8.93h-7.149v-8.93z" fill="#B5A9A0"/><path fill-rule="evenodd" clip-rule="evenodd" d="M257.082 101.992h24.574v-2.934h-24.574v2.934z" fill="#BDBDBD"/><path fill-rule="evenodd" clip-rule="evenodd" d="M244.227 36.35a6.351 6.351 0 1 1-6.351 6.351c.01-3.502 2.849-6.35 6.351-6.35z" fill="#405662"/><path fill-rule="evenodd" clip-rule="evenodd" d="M277.269 17.655h9.362v2.656h-9.362v-2.656zM277.269 29.24h9.362v10.017h-9.362V29.24z" fill="#A39891"/><path fill-rule="evenodd" clip-rule="evenodd" d="M229.562 93.64h10.46V63.773h-10.46V93.64z" fill="#787878"/><path fill-rule="evenodd" clip-rule="evenodd" d="M221.365 103.407h13.422v5.321h-13.422v-5.321z" fill="#405662"/><path fill-rule="evenodd" clip-rule="evenodd" d="M216.13 93.64h10.469V63.773H216.13V93.64z" fill="#787878"/><path fill-rule="evenodd" clip-rule="evenodd" d="M294.511 79.997h39.2v8.083h-39.2v-8.083z" fill="#F5F5F5"/><path fill-rule="evenodd" clip-rule="evenodd" d="M253.213 57.009l16.156-12.172 16.155 12.172v42.048h-32.311V57.009zm5.341 42.048h21.639V63.773c-8.226-4.869-15.337-4.513-21.639 0v35.284z" fill="#BCBCBC"/><path fill-rule="evenodd" clip-rule="evenodd" d="M297.196 60.224l-27.827-20.966-27.817 20.966 2.675 3.55 25.142-18.935 25.142 18.936 2.685-3.55z" fill="#fff"/><path fill-rule="evenodd" clip-rule="evenodd" d="M202.938 57.01l41.289-31.118 21.437 16.155-2.655 2.001-16.31-12.297-4.628 3.484a7.874 7.874 0 0 0-4.426 3.329l-34.707 26.172v-7.727z" fill="#ADADAD"/><path fill-rule="evenodd" clip-rule="evenodd" d="M253.213 57.009l16.156-12.172 16.155 12.114v3.993L271.88 50.668l-18.667 14.067V57.01z" fill="#A0A0A0"/><path fill-rule="evenodd" clip-rule="evenodd" d="M342.698 71.933V76.8h-38.353l1.376 3.195h-11.21v19.061h-8.987V71.933h57.174z" fill="#888"/><path fill-rule="evenodd" clip-rule="evenodd" d="M294.511 79.997h39.2v3.012H307.02l2.184 5.07h-14.693v-8.082z" fill="#BCBCBC"/><path fill-rule="evenodd" clip-rule="evenodd" d="M300.707 68.373h-15.183V57.01l8.987 6.764 2.684-3.55 3.512 8.15z" fill="#4A2C26"/><path d="M299.274 68.373v-3.33l1.087 2.512v.808h-1.087v.01zm-7.149 0v-6.38l1.087.808v5.572h-1.087z" fill="#6F3E33"/><path fill-rule="evenodd" clip-rule="evenodd" d="M244.226 36.35c.472 0 .924.049 1.357.145l-7.698 5.802a6.358 6.358 0 0 1 6.341-5.946z" fill="#27343A"/><path fill-rule="evenodd" clip-rule="evenodd" d="M217.555 71.933h7.62v20.283h-7.62V71.933zm0-6.736h7.62v5.321h-7.62v-5.32z" fill="#405662"/><path fill-rule="evenodd" clip-rule="evenodd" d="M221.365 103.407h13.422v2.868h-12.989v2.453h-.433v-5.321z" fill="#27343A"/><path fill-rule="evenodd" clip-rule="evenodd" d="M286.631 39.257V33.81h5.466l-5.466 5.447z" fill="#4A2C26"/><path fill-rule="evenodd" clip-rule="evenodd" d="M230.967 108.727l1.617-2.454h-3.368l-1.616 2.454h3.367zm-4.291 0l1.616-2.454h-1.597l-1.616 2.454h1.597z" fill="#759B99"/><path fill-rule="evenodd" clip-rule="evenodd" d="M241.272 48.32l6.947-10.555-.019-.01c-.029-.029-.067-.048-.096-.077l-.029-.02c-.029-.018-.058-.047-.086-.066l-.029-.02-.087-.057c-.01-.01-.029-.02-.038-.03-.029-.018-.049-.038-.077-.057-.02-.01-.039-.02-.049-.038-.028-.02-.048-.03-.077-.049-.019-.01-.038-.029-.057-.038-.019-.01-.048-.029-.068-.039l-.067-.038c-.019-.01-.038-.02-.058-.039-.029-.01-.048-.028-.077-.038l-.057-.029c-.029-.02-.058-.029-.077-.038a.18.18 0 0 1-.048-.03l-6.938 10.537c.019.02.039.038.058.048.019.02.038.029.058.048.019.02.048.038.067.048.019.01.029.029.048.039.029.019.048.038.077.057.019.01.029.02.048.03l.087.057c.009.01.029.02.038.029.029.02.058.038.096.058l.029.019c.029.02.068.038.096.067l.02.01h.009c.039.029.077.048.116.077l.019.01a.39.39 0 0 1 .106.067l.019.01c.01.009.048.028.096.057z" fill="#89B2B0"/><path fill-rule="evenodd" clip-rule="evenodd" d="M246.151 48.753l4.397-6.687a6.307 6.307 0 0 0-1.395-3.378l-6.658 10.123a6.342 6.342 0 0 0 3.656-.058z" fill="#759B99"/><path fill-rule="evenodd" clip-rule="evenodd" d="M262.643 68.373h13.451v30.685h-13.451V68.373z" fill="#989898"/><path fill-rule="evenodd" clip-rule="evenodd" d="M265.558 71.933h7.621v20.283h-7.621V71.933z" fill="#405662"/><path fill-rule="evenodd" clip-rule="evenodd" d="M265.558 71.933h7.621v4.59c-2.666.153-5.206.962-7.621 2.366v-6.956z" fill="#27343A"/><path fill-rule="evenodd" clip-rule="evenodd" d="M230.978 71.933h7.62v20.283h-7.62V71.933zm0-6.736h7.62v5.321h-7.62v-5.32z" fill="#405662"/><path fill-rule="evenodd" clip-rule="evenodd" d="M229.562 93.64h1.848V68.065h8.612v-4.292h-10.46V93.64z" fill="#626262"/><path fill-rule="evenodd" clip-rule="evenodd" d="M230.977 71.933h.433v20.283h-.433V71.933zm0-6.736h7.621v2.868H231.4v2.453h-.433v-5.32h.01z" fill="#A39891"/><path fill-rule="evenodd" clip-rule="evenodd" d="M216.13 93.64h1.847V68.065h8.622v-4.292H216.13V93.64z" fill="#626262"/><path fill-rule="evenodd" clip-rule="evenodd" d="M217.555 71.933h.433v20.283h-.433V71.933zm0-6.736h7.62v2.868h-7.197v2.453h-.433v-5.32h.01z" fill="#27343A"/><path fill-rule="evenodd" clip-rule="evenodd" d="M217.978 86.8l7.197-10.931v-2.434l-7.197 10.93V86.8z" fill="#89B2B0"/><path fill-rule="evenodd" clip-rule="evenodd" d="M218.786 92.216l6.389-9.709v-4.965l-7.197 10.94v3.734h.808zM231.41 88.146l7.188-10.94v-2.434l-7.188 10.94v2.434z" fill="#759B99"/><path fill-rule="evenodd" clip-rule="evenodd" d="M233.508 92.216l5.09-7.745v-5.447l-7.188 10.94v2.252h2.098z" fill="#89B2B0"/><path fill-rule="evenodd" clip-rule="evenodd" d="M265.558 91.928l7.621-11.594v-2.435l-7.621 11.595v2.434zM270.408 92.216l2.771-4.214v-5.716l-6.533 9.93h3.762z" fill="#759B99"/><path fill-rule="evenodd" clip-rule="evenodd" d="M232.574 106.275l1.886-2.868h-3.367l-1.886 2.868h3.367zm-4.281 0l1.885-2.868h-1.597l-1.886 2.868h1.598zM231.411 89.965l-.433.654v1.607h.433v-2.261zm-.433-1.164l.433-.655v-2.434l-.433.654v2.435zM217.978 88.483l-.433.655v3.079h.433v-3.734zm-.423-1.03l.433-.653v-2.435l-.433.654v2.435z" fill="#4C6972"/><path fill-rule="evenodd" clip-rule="evenodd" d="M312.495 33.81h37.343v34.563h-22.439L312.495 33.81z" fill="#CA4C26"/><path d="M342.15 68.373V33.81h1.087v34.563h-1.087zm-28.587-32.07V33.82h1.087v5.004l-1.087-2.521zm7.149 16.569V33.81h1.087v21.573l-1.087-2.511zm7.149 15.5V33.81h1.088v34.563h-1.088zm7.149 0V33.81h1.088v34.563h-1.088z" fill="#A5A5A5"/><path d="M270.687 40.248V33.81h1.087v7.236l-1.087-.798zm7.149 5.388v-6.38h1.087v7.188l-1.087-.808zm7.14 5.379V39.257h1.087v12.576l-1.087-.818zm7.149 5.407V33.811h1.087v23.4l-1.087-.789zm7.149 8.622V33.81h1.087v33.744l-1.087-2.511zm7.149 3.329V33.81h1.087v34.563h-1.087zm7.14 0v-32.07l1.087 2.511v29.559h-1.087zm7.149 0V52.872l1.087 2.511v12.99h-1.087z" fill="#A5A5A5"/><path fill-rule="evenodd" clip-rule="evenodd" d="M294.511 88.078h39.2v25.643h-39.2V88.078z" fill="#787878"/><path d="M181.408 83.932h-21.612v30.957h21.612V83.932z" fill="#DFB686"/><path d="M366.495 89.189h-21.611v24.532h21.611V89.189z" fill="#B5A9A0"/><path d="M346.052 80.428h-12.85V95.03h12.85V80.428z" fill="#EABC86"/><path d="M346.052 80.428h-13.434v3.504h13.434v-3.504z" fill="#DBA76A"/><path d="M348.389 95.03h-29.205v18.691h29.205v-18.69zM357.734 89.189h-2.92v24.532h2.92V89.189z" fill="#A39891"/><path d="M351.309 100.287h-29.306l-2.819-5.257h29.306l2.819 5.257z" fill="#B5A9A0"/><path d="M175.895 89.772h-6.054c-.424 0-.77.263-.77.585 0 .322.346.584.77.584h6.054c.424 0 .77-.263.77-.584 0-.322-.346-.585-.77-.585z" fill="#A88A6C"/><path d="M198.86 89.189h-17.523v25.7h17.523v-25.7z" fill="#EABC86"/><path d="M199.444 89.189h-18.107v4.088h18.107V89.19zM182.159 83.566H158.62v5.297h23.539v-5.297z" fill="#DBA76A"/><path d="M192.461 94.446h-4.724a.557.557 0 0 0-.559.551v.066c0 .303.252.552.559.552h4.724a.557.557 0 0 0 .558-.552v-.066a.555.555 0 0 0-.558-.55zM341.364 85.1h-2.889c-.33 0-.6.132-.6.293 0 .16.27.292.6.292h2.889c.33 0 .6-.132.6-.292-.005-.163-.275-.292-.6-.292z" fill="#A88A6C"/><path d="M160.275 103.576h-14.018v11.098h14.018v-11.098z" fill="#EABC86"/><path d="M160.859 103.576h-15.187v2.921h15.187v-2.921z" fill="#DBA76A"/><path d="M154.535 107.08h-3.122c-.266 0-.483.131-.483.292 0 .161.217.292.483.292h3.122c.266 0 .483-.131.483-.292 0-.161-.217-.292-.483-.292z" fill="#A88A6C"/></g><path d="M31.128 104.52h-1.399v5.996h1.399v-5.996z" fill="#8C5523"/><path d="M30.4 110.515c.159-.907-.034-1.867-.127-2.771-.063-.617.03-1.233.062-1.849.024-.457-.007-.918-.036-1.376h-.25c.02.386.043.775.046 1.162.007.633-.104 1.258-.08 1.893.036.983.315 1.972.135 2.941h.25zM30.795 107.763c.014-.6-.004-1.161-.058-1.759a2.01 2.01 0 0 1 .08-.862c.058-.168.13-.327.127-.507-.002-.075-.058-.113-.116-.116h-.014c-.058.003-.113.041-.111.116.008.383-.218.75-.22 1.155-.001.586.124 1.149.083 1.74-.072.994.04 1.994.137 2.987h.246c-.082-.918-.175-1.834-.154-2.754z" fill="#723C15"/><path d="M35.624 99.786a5.297 5.297 0 0 1-10.593 0c0-2.925 2.635-16.22 5.559-16.22 2.925.002 5.034 13.296 5.034 16.22z" fill="#53B200"/><path d="M30.404 104.356c.024-.032.052-.061.077-.092a1.025 1.025 0 0 1-.892-.469 1.017 1.017 0 0 1 .125-1.275 1.468 1.468 0 0 1-.886-.634 1.453 1.453 0 0 1 .051-1.664c-.012-.044-.022-.09-.033-.135a2.028 2.028 0 0 1-.758-.692c-.371-.573-.421-1.251-.192-1.797-.001-.007-.006-.012-.008-.017a1.025 1.025 0 0 1 .14-.978 1.49 1.49 0 0 1-.448-.628c-.281-.755.087-1.587.821-1.859.043-.015.086-.024.13-.036l.026-.298a1.982 1.982 0 0 1-.49-.741c-.35-.947.052-1.97.9-2.3.006-.043.015-.086.021-.127a1.023 1.023 0 0 1-.378-.796c0-.471.31-.863.731-.983l.017-.079a1.472 1.472 0 0 1-.35-.955c0-.621.38-1.145.912-1.354l.053-.197a2.02 2.02 0 0 1-.231-.94c0-.767.412-1.426 1.005-1.725a.946.946 0 0 0-.154-.016c-2.924 0-5.559 13.295-5.559 16.22a5.295 5.295 0 0 0 5.08 5.29c.035-.257.128-.505.29-.723z" fill="#498E00"/><path d="M32.514 89.877a.517.517 0 0 1-.308-.102.778.778 0 0 1-1.45-.108.515.515 0 0 1-.902-.127c0 .012-.003.022-.003.034a.513.513 0 0 0 .926.305.77.77 0 0 0 1.432.106.51.51 0 0 0 .808-.507.515.515 0 0 1-.503.4zM33.48 98.177a.74.74 0 0 1-.45-.15 1.135 1.135 0 0 1-2.111-.158.755.755 0 0 1-1.315-.186c-.002.017-.005.032-.005.05a.75.75 0 0 0 1.35.444 1.122 1.122 0 0 0 2.089.156.75.75 0 0 0 1.181-.741.764.764 0 0 1-.74.585zM32.605 102.729a.628.628 0 0 1-.45-.189.844.844 0 0 1-1.561-.364.848.848 0 0 0 .844.928c.304 0 .57-.161.719-.403a.635.635 0 0 0 1.078-.525.638.638 0 0 1-.63.553zM32.605 94.076a.63.63 0 0 1-.45-.188.845.845 0 0 1-1.561-.365.848.848 0 0 0 .844.928c.304 0 .57-.16.719-.402a.634.634 0 0 0 1.078-.526.637.637 0 0 1-.63.553zM31.439 109.667c-.14 0-.278.008-.41.022a2.113 2.113 0 0 0-3.415.004 1.27 1.27 0 0 0-.25-.026c-.606 0-1.097.424-1.097.948h7.168c-.122-.534-.968-.948-1.996-.948z" fill="#498E00"/><path d="M60.968 94.549h-2.304v9.88h2.304v-9.88z" fill="#8C5523"/><path d="M59.77 104.429c.262-1.495-.057-3.077-.21-4.566-.104-1.016.052-2.031.102-3.046.04-.753-.01-1.512-.059-2.268h-.412c.034.637.07 1.277.076 1.915.012 1.044-.172 2.073-.132 3.12.06 1.618.519 3.249.223 4.845h.412zM60.422 99.893a24.836 24.836 0 0 0-.096-2.897c-.045-.485-.029-.959.132-1.421.096-.277.215-.54.209-.835-.003-.124-.096-.186-.192-.192h-.022c-.096.005-.187.067-.184.192.014.631-.358 1.235-.36 1.904-.004.964.202 1.892.135 2.865-.119 1.639.067 3.286.225 4.922h.406c-.135-1.512-.287-3.021-.253-4.538z" fill="#723C15"/><path d="M68.379 86.75a8.728 8.728 0 0 1-17.454 0c0-4.82 4.341-26.724 9.159-26.724 4.82.003 8.295 21.907 8.295 26.725z" fill="#53B200"/><path d="M59.777 94.28c.04-.054.084-.102.127-.152a1.688 1.688 0 0 1-1.47-.773 1.677 1.677 0 0 1 .206-2.102 2.414 2.414 0 0 1-1.461-1.043 2.394 2.394 0 0 1 .085-2.742c-.02-.073-.037-.15-.054-.222a3.34 3.34 0 0 1-1.25-1.14c-.612-.945-.693-2.062-.315-2.962-.003-.01-.012-.02-.015-.028a1.69 1.69 0 0 1 .232-1.61 2.455 2.455 0 0 1-.74-1.035c-.462-1.244.145-2.615 1.355-3.064.07-.025.14-.039.214-.059l.042-.49a3.267 3.267 0 0 1-.806-1.222c-.578-1.56.084-3.246 1.48-3.79l.037-.21a1.685 1.685 0 0 1-.623-1.31c0-.776.51-1.422 1.204-1.62.009-.042.02-.087.028-.13a2.425 2.425 0 0 1-.578-1.573c0-1.024.626-1.887 1.503-2.231l.088-.325a3.326 3.326 0 0 1-.38-1.548c0-1.264.679-2.35 1.655-2.843a1.55 1.55 0 0 0-.254-.026c-4.818 0-9.158 21.904-9.158 26.725A8.723 8.723 0 0 0 59.3 95.47c.056-.423.209-.832.477-1.19z" fill="#498E00"/><path d="M63.254 70.424a.851.851 0 0 1-.508-.17 1.282 1.282 0 0 1-2.39-.177.848.848 0 0 1-.685.35.858.858 0 0 1-.8-.559c0 .02-.006.037-.006.057a.845.845 0 0 0 1.526.502 1.27 1.27 0 0 0 2.36.174.841.841 0 0 0 1.332-.834.848.848 0 0 1-.83.657zM64.844 84.1a1.22 1.22 0 0 1-.74-.249 1.87 1.87 0 0 1-3.48-.26 1.24 1.24 0 0 1-2.166-.307c-.003.028-.008.054-.008.082 0 .683.552 1.235 1.235 1.235.406 0 .764-.2.99-.502a1.849 1.849 0 0 0 3.441.257 1.235 1.235 0 0 0 1.946-1.221 1.26 1.26 0 0 1-1.218.964zM63.403 91.6c-.29 0-.553-.119-.742-.31a1.392 1.392 0 0 1-2.572-.602 1.398 1.398 0 0 0 1.39 1.529c.502 0 .94-.265 1.185-.663a1.045 1.045 0 0 0 1.777-.866 1.05 1.05 0 0 1-1.038.912zM63.403 77.342c-.29 0-.553-.119-.742-.31a1.392 1.392 0 0 1-2.572-.601 1.398 1.398 0 0 0 1.39 1.529c.502 0 .94-.266 1.185-.663a1.045 1.045 0 0 0 1.777-.866 1.05 1.05 0 0 1-1.038.91zM61.482 103.031c-.231 0-.457.014-.674.037a3.478 3.478 0 0 0-5.627.005 2.198 2.198 0 0 0-.412-.042c-.998 0-1.808.7-1.808 1.563h11.81c-.2-.88-1.594-1.563-3.289-1.563z" fill="#498E00"/></svg>