<svg width="376" height="135" fill="none" xmlns="http://www.w3.org/2000/svg" viewBox="0 0 376 135"><path d="M375.261 135h-375V0h375v135z" fill="#F5FCFF"/><mask id="a" maskUnits="userSpaceOnUse" x="0" y="0" width="376" height="135"><path d="M375.261 0h-375v135h375V0z" fill="#F5FCFF"/></mask><g mask="url(#a)"><path fill-rule="evenodd" clip-rule="evenodd" d="M329.637 34.227v12.948h6.305v-.032h.544v11.431h.449V38.48h2.458v-1.433h4.455v1.433h2.455v25.715h.558V57.3h2.068v-1.758h3.329V57.3h2.068v16.32h.724V62.914h1.996v-1.167h3.622v1.167h1.999v20.663h1.276V74.74h.227v-1.613h1.327v-.518h2.407v.518h1.327v1.613h.36v5.682h.633v-9.12h.921v-3.943s2.095-.705 4.771-.752h.544c1.333.022 2.775.223 4.163.752v8.21h1.581v1.123h1.323v.043h.551v-.76h3.36v.76h1.853v2.679h.765v-.519h1.269V67.417h4.597v11.921h5.067v10.759h1.877v3.186h.024v7.68h.911V83.45h2.255v-5.804h2.629v17.3h.843V82.078h1.031v-1.793h.564V78.28h.935v-1.372h2.255v1.372h.938v2.005h.565v1.793h1.03v11.5h1.316v-4.115h3.656v6.646h.843v-3.481h3.755v4.749h3.938v5.379h2.72v2.819H99.199v-2.423h2.721v-4.623h3.941v-4.08h3.754v2.993h.847v-5.714h3.659v3.535h1.313v-9.88h1.034v-1.54h.564v-1.725h.939V80.94h2.254v1.177h.936v1.725h.564v1.54h1.03v11.058h.844V81.57h2.628v4.986h2.252v15.05h.938v-9.34h1.877v-9.245h5.067V72.778h4.598v15.41h2.034v-7.402h1.853v-.656h3.356v.656h1.854v10.74h1.602V72.735c1.384-.457 2.829-.627 4.162-.648h.544c2.676.04 4.771.648 4.771.648v15.248h1.554v-8.904h1.918v-1.242h3.088v1.242h1.918v8.904h2.411V63.766h2.278v-1.015h4.129v1.015h2.278v17.33h4.635v-5.39h.742v-9.564h1.244v-8.025h1.415v-3.831l.01-.018h8.213l.013.018v3.827h1.412v8.026h1.241v9.566h.745v1.207h1.377v1.371h.581V60.954h5.574v5.253h3.186v9.012h2.629v-9.231h3.543v-2.535h1.721V56.29h6.475v2.424h1.013V67.2h1.473V53.292c1.493-.554 3.05-.76 4.489-.785 3.162-.054 5.73.785 5.73.785v13.326c.204.007.408.014.602.029V55.355h.802v-11.1h14.603v11.1h.802v1.567h.453v-9.009h2.455v-1.235h4.451v1.235h2.455v22.1h.558V64.09h2.068v-1.509h.2v-2.898h1.245v-9.34h1.411v-4.457l.01-.022h8.213l.01.022v4.457h1.412v9.34h1.241v11.13h.744v8.94h.759v-2.064h1.197V53.645h5.574v6.117h3.183v10.489h2.632V59.51h3.543v-2.95h1.721V48.23h6.478v2.82h1.013v9.872h1.473V44.74c1.493-.645 3.05-.89 4.489-.914 3.159-.062 5.726.914 5.726.914v16.735h.602V47.142h.803V34.227h8.539z" fill="#A3DEF7" fill-opacity=".5"/><path d="M385.203 113.867v-13.511s-36.053-9.898-116.529-6.772c22.82-.22 66.549 2.307 116.529 20.284" fill="#00AA1D"/><path d="M219.267 95.904l-7.545.635-.023.003c72.724 4.431-76.737 84.931-76.737 84.931h84.304s75.54-86.567 0-85.57" fill="#fff"/><path d="M251.311 94.43l-32.044 1.473c75.54-.997 0 85.57 0 85.57h165.937v-41.246c-23.056-27.528-88.885-48.44-133.893-45.796z" fill="#004EBB"/><path d="M211.699 96.541c72.724 4.432-76.737 92.793-76.737 92.793l-184.444-7.861 71.705-9.077s-59.015-.942 5.835-3.388c72.835-12.61 143.529-68.115 183.641-72.467z" fill="#00AA1D"/><path d="M268.676 93.584c-5.591.217-11.379.5-17.364.848a123.27 123.27 0 0 1 3.209-.143l.201-.007c44.898-1.431 107.996 19.095 130.483 45.946v-26.36c-49.98-17.976-93.709-20.504-116.529-20.284z" fill="#fff"/><path d="M-200.497 152.91l-6.224-30.611s39.709-21.943 117.793-26.76c40.912-4.124 143.9 11.781 143.879 17.128-.016 3.201-255.448 40.243-255.448 40.243z" fill="#00AA1D"/><path d="M209.352 135.299l-287.371 12.246-117.331-6.519s263.757-38.993 280.728-39.079c28.94-.149 47.745-11.74 81.592-12.879 18.611-.625 35.769 3.481 47.459 8.496l-5.077 37.735z" fill="#00AA1D"/><path d="M-75.078 185.946c0-17.668 1.084-39.024 26.778-49.728C-2.52 117.15 93.727 109.45 95.064 106.517c1.706-3.731-46.086-4.126-46.168-4.126 0 0 90.664-4.53 91.541 4.491.572 5.878-33.674 13.35-29.7 17.557 7.898 8.332 122.073 34.179 235.317 46.509l.446 14.846-421.578.152z" fill="#fff"/><path d="M62.014 102.961s69.146-1.926 65.929 6.108c-1.795 4.486-38.636 11.408-41.283 17.996-8.693 21.69 198.862 56.313 198.862 56.313l-14.691 3.696-296.939-.949c-14.271-14.318-13.719-33.916-3.404-44.04 21.138-20.745 129.933-29.355 132.041-34.596 1.588-3.96-40.515-4.528-40.515-4.528z" fill="#0047B8"/><path d="M60.585 121.188c-.315-2.013 10.692-5.41 24.586-7.588 13.895-2.177 25.414-2.31 25.729-.296.316 2.013-10.692 5.41-24.586 7.587-13.894 2.177-25.413 2.31-25.729.297z" fill="#000" fill-opacity=".4"/><path d="M106.271 97.236c-.473 0-3.042.324-3.474.473 3.879-.122 6.839 4.055 6.839 8.191 0 4.136-1.459 8.421-6.569 8.489.446.135 2.744.256 3.217.256 3.366-.04 6.096-3.974 6.096-8.786 0-4.812-2.73-8.664-6.109-8.623z" fill="#00699B"/><path d="M103.54 97.277c.474 0 2.812-.175 3.258-.04-3.879-.014-6.61 4.663-6.61 8.786 0 4.136 1.514 8.677 6.624 8.61-.447.149-2.785.04-3.258.04-3.366.041-6.11-3.811-6.11-8.623 0-4.799 2.731-8.732 6.096-8.773z" fill="#00699B"/><path d="M106.299 114.699c3.595-.054 6.528-4.028 6.528-8.881 0-4.852-2.933-8.745-6.542-8.704-3.596.054-6.529 4.028-6.529 8.88 0 4.853 2.933 8.759 6.543 8.705zm-.082-16.22c2.879-.04 5.218 3.23 5.218 7.272 0 4.055-2.339 7.38-5.218 7.421-2.879.04-5.217-3.231-5.217-7.272.013-4.055 2.352-7.38 5.217-7.421z" fill="#0094DA"/><path d="M111.921 106.035c0-4.163-2.514-7.555-5.596-7.555-3.082 0-5.583 3.392-5.583 7.555 0 4.164 2.501 7.556 5.583 7.556 3.082 0 5.596-3.392 5.596-7.556zm-.973 0c0 3.65-2.068 6.61-4.623 6.61-2.541 0-4.623-2.974-4.623-6.61 0-3.649 2.068-6.61 4.623-6.61s4.623 2.961 4.623 6.61z" fill="#12BAED"/><path d="M90.43 103.006l-.771 2.663 16.112 2.203c.149.014.284.014.419 0a2.23 2.23 0 0 0 .771-.229c.581-.298.986-.839 1.162-1.528.176-.703.081-1.473-.27-2.176-.528-1.041-1.541-1.69-2.569-1.663l-14.855.73zm-.474-.622l15.301-.756c1.23-.041 2.501.716 3.163 2.014.892 1.73.379 3.771-1.149 4.568-.31.162-.648.257-.986.298-.19.013-.365.027-.555 0l-16.882-2.298 1.108-3.826z" fill="#00699B"/><path d="M102.351 98.802l-.959-1.879-.068-.148 3.69 7.407-16.342 2.284.136.744 17.828-2.284-3.906-8.286" fill="#00699B"/><path d="M102.527 105.764c.068 2.46 1.541 4.393 3.298 4.339 1.757-.054 3.123-2.055 3.055-4.488-.068-2.419-1.541-4.379-3.298-4.352-1.744.027-3.123 2.041-3.055 4.501z" fill="#00699B"/><path d="M103.081 105.751c.054 2.068 1.27 3.703 2.73 3.649 1.46-.054 2.582-1.743 2.528-3.784-.054-2.042-1.284-3.691-2.73-3.664-1.46.028-2.582 1.731-2.528 3.799z" stroke="#04BAEE" stroke-width="2.657" stroke-miterlimit="10"/><path d="M67.991 106.967l6.123-15.18-1.338-.797-6.488 16.923 1.703-.946z" fill="#0094DA"/><path d="M69.6 100.981l-2.812 7.082-.486-.067 3-8.543.298 1.528z" fill="#04BAEE"/><path d="M69.005 99.695l2.082.595.378-1.068-2.081-.595-.379 1.068z" fill="#0094DA"/><path d="M92.065 92.788s-6.759-3.825-7.934-2.393c-2.947 3.623-.811 7.286-.811 7.286l4.879 1.203 3.987-5.975-.121-.121z" fill="#626E97"/><path d="M76.02 79.27l-2.622-.445c-.933-.163-1.811.432-1.974 1.324-.162.892.446 1.744 1.379 1.892l2.812.487c.23-.243.405-.527.527-.838a2.86 2.86 0 0 0-.122-2.42z" fill="#796188"/><path d="M76.088 79.35c1.067.636 2.135 1.258 3.203 1.88 1.46-.906 2.92-1.785 4.38-2.663.73-.446 1.378.108 1.446 1.203.054 1.108-.487 2.352-1.23 2.798a314.088 314.088 0 0 0-4.866 2.987c-.257.162-.514.203-.73.135-.054-.013-.095-.04-.135-.054-1.244-.703-2.474-1.406-3.718-2.108.771-1.068 1.487-2.73 1.65-4.177z" fill="#796188"/><path d="M90.983 94.829c-.27-.69-.067-1.46.5-1.96a604.67 604.67 0 0 1 4.677-3.934l1.38-1.135c.783-.636 1.973-.554 2.689.175.703.73.649 1.839-.135 2.488l-1.825 1.5c-1.095.906-2.176 1.825-3.271 2.744.392 2.46.797 4.92 1.19 7.367-1.23.337-.906.148-2.177.392-1.014-2.515-2.014-5.07-3.028-7.637z" fill="#455B8C"/><path d="M95.525 103.94s.487 1.987.27 2.433c-.202.446-2.662 2.352-4.636 2.446-1.973.095-1.19-1.743-.338-2.757.852-1.014.406-.46.406-.46-.297-.892-.595-1.798-.892-2.69 1.433-.54 2.879-1.067 4.312-1.595.297.879.594 1.758.878 2.623z" fill="#fff"/><path d="M82.022 83.772c1.5-1.852 2.96-3.744 4.636-5.42-.392.973.27 2.162.933 2.852-1.46 1.96-2.406 3.676-4.042 5.704-.419-.892-1.014-1.96-1.527-3.136z" fill="#796188"/><path d="M86.658 78.352c.46-.46.933-.906 1.42-1.325.716.135 1.527.406 2.27.96-.919.852-2.082 2.311-2.825 3.312-.662-.69-1.284-1.785-.865-2.947z" fill="#6C567C"/><path d="M87.184 76.92c.27.013.568.04.893.095-2.312 1.973-4.15 4.392-6.056 6.745-.473-1.095-.852-2.298-.919-3.569 1.933.406 5.069-1.636 6.082-3.271z" fill="#796188"/><path d="M86.185 76.96s.406-.068 1.014-.04c-1.257 1.986-3.542 3.838-6.07 3.284-.013-.176-.013-.338-.013-.514.027-2.108 2.433-2.527 5.069-2.73z" fill="#F7C6A5"/><path d="M84.008 88.097c-.08-.351-.297-.825-.5-1.257 2.46-3.068 4.11-6.313 6.826-8.854.892.676 1.69 1.744 2.069 3.474.662 3.028 1.851 5.596 1.973 7.597-3.122.27-7.137.946-9.462 1.176a7.863 7.863 0 0 1-.906-2.136z" fill="#796188"/><path d="M94.39 89.044c.054.824-.081 1.554-.487 2.176-.351.527-1.757.838-2.433 1.244-1.513.905-2.973.784-4.203.08-.933-.526-1.744-1.378-2.325-2.338a34.75 34.75 0 0 1 9.448-1.162z" fill="#626E97"/><path d="M86.442 89.855c.324-.068.662-.135.987-.203 0-.013-.622-2.027-1.811-4.893-1.163-2.811-1.406-4.785-1.433-4.987-.311.162-.73.243-1.041.405.013.081.284 2.041 1.487 5.001 1.176 2.88 1.797 4.664 1.811 4.677z" fill="#6C567C"/><path d="M90.93 94.978a927.007 927.007 0 0 1 16.044-2 1.773 1.773 0 0 1 1.96 1.54 1.782 1.782 0 0 1-1.555 1.96c-3.136.393-6.285.798-9.421 1.217-.811 1-1.392 2.542-1.217 4.866.487 6.205-.554 5.583-2.825 6.083-2.27.5-9.826 1.446-10.637 1.352-.798-.108-4.001.797-4.434-.663-.433-1.405-8.948-14.99-8.948-15.03 5.61.46 15.41.216 21.032.675zm-10.193 9.408l1.42-6.326-5.515.338 4.095 5.988z" fill="#00699B"/><path d="M85.901 69s1.27.878 1.717 2.378c.446 1.5.622 4.339.013 5.11-.608.77-6.096 3.554-7.231 3.216-1.122-.35-1.798-1.27-1.933-1.77s-.081-.946-.081-.946-.338-1.284-.365-2.596c-.014-1.31.121-1.581.121-1.581s.23-2.352 2.068-3.73c2.528-1.88 5.691-.082 5.691-.082z" fill="#27365C"/><path d="M81.103 79.69c-.298.054-.541.068-.69.027-1.122-.351-1.797-1.27-1.933-1.77-.135-.5-.08-.947-.08-.947s-.339-1.284-.366-2.595c-.013-1.311.122-1.582.122-1.582s.23-2.351 2.068-3.73c.757-.568 1.568-.798 2.338-.852-1.013.581-2.284 1.622-2.608 3.217-.568 2.785-.04 5.434.635 7.043.23.554.392.932.514 1.189z" fill="#314474"/><path d="M78.156 72.824s0-.054.014-.135c.69.013 1.892-.014 3.568-.298 2.055-.351 2.974-.635 3.366-.784 1.176.338 1.96 1.65 1.122 2.893-.487.649-.69.987-2.068 1.555-1.298.608-3.988 2-5.785 1.027V77s-.338-1.285-.365-2.596c0-1.297.148-1.581.148-1.581z" fill="#D0E2E5"/><path d="M94.524 106.778a.741.741 0 0 0 .23 1.014.741.741 0 0 0 1.014-.23l.811-1.27a.741.741 0 0 0-.23-1.014.741.741 0 0 0-1.014.23l-.81 1.27z" fill="#04BAEE"/><path d="M84.874 112.267c4.65-.946 10.192-3.014 10.26-3.041l-.38-1.149c-.053.027-5.5 2.068-10.07 2.987-1.013.203-2.338-.202-3.068-1.432-.757-1.298-1.635-3.339-2.108-4.677-.42-1.163-.433-1.663-.406-1.825l1.122-.622-.54-1.068-1.203.663a.809.809 0 0 0-.392.405c-.27.554-.163 1.46.351 2.866.514 1.446 1.406 3.514 2.217 4.879 1.203 2.136 3.163 2.231 4.217 2.014z" fill="#5BC4F1"/><path d="M79.657 108.414c.797 1.203 1.162 2.19 2.528 3.028 1.365.838 2.757.176 5.474-.5 2.5-.622 6.623-2.109 7.258-2.339l.203.622c-.054.027-5.61 2.095-10.26 3.041-1.04.217-3.013.122-4.257-2a23.44 23.44 0 0 1-.946-1.852z" fill="#04BAEE"/><path d="M93.985 107.71l.676-.514 13.544-5.176-.973 4.501-11.868 3.717-.92-.095c-.229.041-.513-.459-.634-1.135-.136-.676-.055-1.257.175-1.298z" fill="#04BAEE"/><path d="M108.014 102.521l-13.274 5.082s-.094.365.014.568l12.57-4.123.69-1.527z" fill="#5BC4F1"/><path d="M107.19 104.13c-.284 1.243-.271 2.311.04 2.392.311.081.811-.865 1.095-2.108.284-1.244.27-2.312-.04-2.393-.041-.013-.082 0-.122.014-.325.148-.73 1-.973 2.095z" fill="#00699B"/><path d="M82.022 105.575s.554-.054 1.838-.406c1.203-.338 1.704-.621 1.704-.621.378-.244.58-.514.486-.784l-1.446-3.974c-.203-.595-.406-.784-.798-.676 0 0-1.243.19-2.622.595-1.446.419-2.176.716-2.176.716-.635.284-.514.716-.365 1.014l2.027 3.852c.217.446.744.338 1.352.284z" fill="#04BAEE"/><path d="M83.658 99.262c.175-.094.378-.121.581-.121.135.094.257.297.365.621l1.446 3.974c.014.054.027.122.014.176-1.46 1.622-2.095-1.23-3.014-3.122-.622-1.325.08-1.23.608-1.528z" fill="#5BC4F1"/><path d="M84.455 99.41c.04.081.08.19.135.297l-5.894 1.798-.054-.094-.08-.203 5.893-1.798zM84.807 100.317l-5.813 1.77-.148-.283 5.852-1.798.109.311zM85.023 100.924l-5.718 1.744-.162-.284 5.772-1.771.108.311zM85.252 101.534l-5.65 1.716-.148-.284 5.69-1.743.108.311zM85.47 102.127l-5.556 1.704-.149-.284 5.596-1.717.108.297zM85.699 102.736l-5.475 1.676-.162-.284 5.515-1.69.122.298zM85.915 103.345l-5.394 1.649-.148-.284 5.433-1.662.109.297zM86.023 103.655l.04.095a.444.444 0 0 1 .014.23l-5.123 1.568a.62.62 0 0 1-.27-.257l5.339-1.636z" fill="#00699B"/><path d="M79.278 87.584a.528.528 0 0 0 .595-.297c.581-1.312 1.392-2.123 2.433-2.447 1.433-.433 2.825.23 2.838.23a.546.546 0 0 0 .703-.23.502.502 0 0 0-.23-.69c-.067-.04-1.77-.851-3.609-.297-1.338.406-2.379 1.433-3.095 3.028a.5.5 0 0 0 .27.676.25.25 0 0 0 .095.027z" fill="#5BC4F1"/><path d="M83.832 84.193a1.02 1.02 0 0 0 .784 1.216l4.231.906a1.048 1.048 0 0 0 1.244-.784 1.02 1.02 0 0 0-.784-1.217l-4.231-.905a1.041 1.041 0 0 0-1.244.784z" fill="#00699B"/><path d="M76.21 85.421c-.217-.068-.325-.27-.23-.473.526-1.162.526-2.095-.028-2.757-.757-.933-2.311-1.082-2.325-1.082-.283-.027-.446-.243-.351-.473.095-.23.406-.405.69-.378.08.013 1.986.189 2.96 1.378.716.879.743 2.028.094 3.447-.108.23-.419.392-.703.352-.04 0-.08 0-.108-.014z" fill="#5BC4F1"/><path d="M75.33 80.88c-.135.419-.648.676-1.148.568l-3.73-.838c-.501-.109-.785-.541-.65-.974.135-.419.65-.675 1.15-.567l3.73.838c.5.108.784.54.649.973z" fill="#00699B"/><path d="M97.674 96.734c.311-.473.92-1.027 2.555-1.96 1.487-.851 3.568-1.608 6.11-1.473 1.703.094 3.325.392 4.514.906 1.514.648 2.312 1.662 1.663 3.068-.176.365-.352.595-.554.77 0 0-.284.23-.676.338-1.055.284-3.258-1.27-5.475-1.352-1.987-.067-4.406 1.122-4.757 1.244-.419.149-.852.27-1.271.433-.662.257-1.622 1.027-2.15.148-.432-.743-.175-1.784.041-2.122zM64.058 98.276s8.03-2.054 11.814 3.555c0 0 .797 2.082 2.19 1.636 1.392-.446.54-3.42.08-4.447-.81-1.798-4.73-3.839-7.947-4.028-3.217-.203-6.934 1.176-7.948 1.865-1.014.69-.392 2.203 1.811 1.42z" fill="#5BC4F1"/><path d="M73.98 80c-.109.662-.811 1.149-1.568 1.082l-1.568-.15c-.757-.067-1.284-.662-1.176-1.324.108-.662.81-1.149 1.568-1.081l1.568.148c.757.068 1.284.663 1.176 1.325z" fill="#F7C6A5"/><path d="M92.646 102.182s3.757-.798 3.88 1.514c.107 2.271.107 3.974-3.988 4.271-4.096.297-5.542-.433-6.15-1.257-.339-.46-.987-1.933 1.23-2.96 2.31-1.068 3.108-1.176 5.028-1.568z" fill="#04BAEE"/><path d="M86.807 105.075a1.11 1.11 0 0 1 .162-.973c.19-.122.406-.257.663-.379 2.297-1.067 3.095-1.162 5.014-1.567 0 0 1.244-.257 2.366-.041.608.622.594 1.257.513 1.771-.243 1.473-.23 2.527-3.73 2.757-2.393.176-4.515-.176-4.988-1.568z" fill="#5BC4F1"/><path d="M95.295 99.79s-.04 1.797-.311 2.216c-.27.419-.176.447-2.73.852-1.514.243-2.366.203-2.974.027a1.146 1.146 0 0 1-.73-.635l-.892-2.001c-.23-.513.067-1.108.635-1.31.92-.312 2.311-.65 3.663-.758 2.88-.23 3.366-.527 3.339 1.609z" fill="#5BC4F1"/><path d="M88.375 99.911c.744-.784 4.96-1.27 5.948-1.108.986.162.946 1.73.946 1.73-.04.554-.122 1.23-.27 1.473-.27.419-.176.446-2.73.852-1.515.243-2.366.202-2.975.027a1.145 1.145 0 0 1-.73-.636l-.5-1.149c-.054-.405 0-.865.311-1.189zM88.536 95.748s-3.27 1.946-6.082 2.27c-2.812.311-5.474.122-6.353-.648-.879-.77-1.852-3.299-1.15-4.745.704-1.446 1.745-2.541 4.678-2.311 2.933.23 6.46 1.27 8.367 2.663 1.92 1.378 1.392 2.311.54 2.77z" fill="#04BAEE"/><path d="M107.257 89.665l-7.61 1.311c-.135.014-.284.041-.419.082l-9.786 2.554c-.284.095-.54.257-.743.473l-.42.446c-.837.892-.418 2.285.785 2.596l1.432.378c.203.054.433.068.65.04l10.002-1.148c.081-.014.175-.027.257-.054l5.65-2.352a1.71 1.71 0 0 0 .811-.473l.892-.947c.527-.554.594-1.392.135-2l-.176-.23a1.64 1.64 0 0 0-1.46-.676z" fill="#5BC4F1"/><path d="M109.109 91.869s.311-.216.676.067c.284.217.27.65.041.947-.23.297-.974 1.068-1.257 1.351-.284.284-.325.298-1.582.838-1.284.555-4.515 1.96-5.123 2.123-.608.148-.378.202-1.798.392-1.419.189-3.609.473-3.609.473l-.121-.838 11.476-4.272 1.297-1.081z" fill="#00699B"/><path d="M87.847 95.68a.377.377 0 0 1 .365-.392c.879-.054 2.068.149 2.933.284 1.69.257 6.813-.662 10.584-1.757 6.799-1.96 4.988-2.041 5.758-2.582.122-.08.568-.365.703-.824.095-.311.067-.555.311-.338.081.08.311.338.405.486.554.892.311 1.528-.351 2.217l-.689.73c-.217.23-.501.392-.812.473 0 0-5.852 2.379-5.96 2.406-1.285.338-9.868 1.136-9.868 1.136-.27.026-.54.013-.797-.055l-1.365-.351a1.58 1.58 0 0 1-1.217-1.433z" fill="#04BAEE"/><path d="M75.642 96.803c-.703-1.081-1.257-2.987-.676-4.177.703-1.446 1.852-3.595 6.096-2.527 11.462 2.865 4.84 2.473 6.745 3.866.19.148.365.283.5.405 0 0-9.475-3.906-11.678-1.96-2.217 1.947-.987 4.393-.987 4.393z" fill="#5BC4F1"/><path d="M80.616 85.462c-.203.486-.622.797-.933.716L74.777 84.8c-.311-.094-.406-.554-.203-1.027.203-.486.622-.797.933-.716l4.906 1.379c.311.08.406.54.203 1.027z" fill="#0094DA"/><path d="M96.458 103.373s.81.541.446 1.23c-.46.852-1.122 1.771-2.312 3.109-.716.798-1.446 1.446-1.987 1.446-.378 0-.648-.365-.797-.905-.149-.554-.176-1.298-.068-2.028.757-1.865 2.514-2.527 3.204-4.122l1.514 1.27z" fill="#27365C"/><path d="M84.441 99.37c1.163-2.866 4.163-8.489 4.163-8.489l4.61-1.054c.257 3.92-2.88 8.232-6.502 10.3 2.406-.243 5.245.162 7.164 1.987-.108.189-.352 1.663-1.433 2.96-2.69-1.216-8.705-3.96-8.002-5.704z" fill="#626E97"/><path d="M86.712 100.128c3.623-2.068 6.745-6.393 6.502-10.3l.73-.162s.932 1.014 0 3.014c-.933 2-4.556 6.772-4.556 6.772l4.65 2.231.892.432s.365 1.892-.257 2.514c-.621.622-2.46 1.095-2.46 1.095s1.541-3.406 1.65-3.595c-1.906-1.839-4.745-2.244-7.151-2.001z" fill="#495584"/><path d="M97.81 86.016c-.717-.135-1.447-.283-2.163-.419.216-.743.446-1.486.662-2.23.5.879 1 1.77 1.5 2.65z" fill="#3D507B"/><path d="M101.256 72.106s-.013 3.528 1.014 3.718c1.014.202 1.46-1.014 2.974-.65 1.514.366 2.041.758 1.933 1.258-.122.5-1.149-.068-1.392.162-.244.23 2.081.46 2.041 1.5-.041 1.055-2.217-.5-2.406.257-.19.757.365.892-.163 1.555-.527.662-10.097-.514-10.07-3.015.027-2.473-.054-7.245-.054-7.245s.379-.743 1.244-1.19c.716-.364 1.784-.526 3.244.096 1.406.635 1.635 3.554 1.635 3.554z" fill="#63413F"/><path d="M95.187 78.527c.081-.04.162-.08.23-.108.203-.094.392-.19.581-.27 1.974-.852 3.393-.946 4.42-.77l.203.04c1.473.351 1.987 1.297 1.987 1.297s-.622 5.989-.663 8.003c0 .256.068.73.163 1.189.567.757.838 1.825.473 2.595-.69 1.474-1.933 1.514-1.933 1.5-1 1.514-2 3.042-3.014 4.583 1.608.973 2.811 2.068 4.42 3.014-.514.96-.23 1.379-.744 2.352-2.068-1.135-4.514-1.865-6.583-3.014-.473-.284-1.324-.77-1.473-1.663-.095-.554.027-1.446.352-1.92.986-1.459 1.96-2.905 2.946-4.352.095-.135.19-.27.27-.405 0 0 .136-1.352.203-1.676.311-1.703.433-1.784.176-3.555-.203-1.406-2.852-2.176-2.974-3.109-.27-2.082.96-3.73.96-3.73z" fill="#455B8C"/><path d="M96.404 94.627s.46-.69.716-1.082c.379-.594.784-1.203 1.19-1.851.5-.784.865-1.338 1.149-1.744.702-1.014.743-1.081.716-1.879-.041-1.284.027-2 .027-2.23l.743.08c0 .055-.067.88-.027 2.137.041 1.04-.135 1.284-.851 2.324-.27.392-.649.947-1.136 1.717-.405.649-.81 1.257-1.203 1.852-.216.338-.46.703-.675 1.054-.365.555-.73 1.176-.676 1.339.108.378 3.474 2.46 4.92 3.244-.135.216-.149.08-.284.297-.77-.42-5.11-2.447-5.366-3.312-.068-.23-.04-.486.08-.797.136-.311.366-.69.677-1.15z" fill="#626E97"/><path d="M99.905 101.681a407.2 407.2 0 0 1 1.541-2.487c.527.311 1.041.609 1.568.919 0 0 1.095.771 1.176 1.055.027.108-.014.757-.46 1.703-.23.473-.527.96-.919 1.271-.987.824-1.352-.352-1.338-1.163 0-.189 0-.311.013-.392a91.12 91.12 0 0 1-1.581-.906z" fill="#BF69A9"/><path d="M100.175 76.893c.055.662.109 1.324.176 1.987.068.743-.676 1.378-1.635 1.419-.974.054-1.812-.514-1.88-1.257-.04-.54-.094-1.095-.134-1.636 1.216.69 2.649.744 3.473-.513z" fill="#455B8C"/><path d="M96.702 77.405c-.068-.865-.149-1.716-.216-2.582-.068-.743.675-1.378 1.635-1.419.973-.027 1.812.54 1.866 1.284.067.73.121 1.46.189 2.204-.825 1.257-2.258 1.203-3.474.513z" fill="#F7C6A5"/><path d="M94.782 73.08c.189 2.257 1.987 3.987 3.176 3.96 1.568-.04 2.677-1.919 2.487-4.15-.189-2.23-1.608-4.014-3.176-3.973-1.568.027-2.677 1.892-2.487 4.163z" fill="#A9A9A9"/><path d="M110.853 73.798c.203-.757 1.014-1.19 1.825-.946.811.243 1.311 1.04 1.108 1.798-.067.257-.324 1.19-.77 2.365-1.027-.203-1.946-.703-2.744-1.392a15.37 15.37 0 0 0 .581-1.825z" fill="#F7C6A5"/><path d="M101.135 77.96c.662-.46 1.608-.297 2.108.379.284.365 1.811 2.095 4.285.973 1.419-.649 2.284-2.366 3.095-4.569a5.864 5.864 0 0 0 2.758 1.379c-.865 2.298-2.041 4.73-4.461 5.84-1.405.648-2.717.77-3.852.58-2.014-.31-3.514-1.568-4.217-2.5-.514-.69-.379-1.622.284-2.082z" fill="#BF69A9"/><path d="M103.459 80.973s.392 3.353.203 3.866c-.189.5-1.743 1.23-1.743 1.23-.798-.08-1.595-.148-2.38-.23 0 0-.405-4.176.109-6.406.513-2.23.527-2.907.527-2.907.297.068.595.136.906.203 0 .176-.014.352-.014.514 0 0 .433.148 1.271.878.824.717 1.121 2.852 1.121 2.852zM96.011 77.189s.122.5.42 2.055c.297 1.554.202 6.542.202 6.542l-1.054-.406s-.406-.013-.338-.797c.054-.784-1.392-2.298-1.284-3.555.108-1.257-.027-2.636.27-2.88.311-.243 1.15-.526 1.15-.526a14.506 14.506 0 0 1-.19-.73c.27.08.554.189.824.297z" fill="#BF69A9"/><path d="M102.608 85.705c-1.041-.122-2.068-.23-3.109-.352 0 .338-.013.663-.013 1 0 0 2.946.352 2.946.339 0 0 .149-.19.23-.42.041-.175.054-.378-.054-.567zM96.647 84.961l.081 1.082c-.487-.163-.987-.311-1.473-.473 0 0-.122-.311-.122-.609 0-.31.108-.392.108-.392.46.135.933.27 1.406.392z" fill="#ECA5E1"/><path d="M103.5 82.097s-1.027-.46-1.555-.96l-.513-.5s.23.905 1.027 1.608c.784.703 1.203.77 1.203.77-.054-.31-.108-.621-.162-.918z" fill="#9C5789"/><path d="M102.743 96.33l-1.27.445.865 2.082 1.365-.19-.96-2.338z" fill="#00699B"/><path d="M94.687 104.601c-.622.609-2.582.947-2.582.947s1.663-3.244 1.771-3.434c-.013-.013 1 1.163 1.176 1.068 0 0 .243.811-.365 1.419z" fill="#626E97"/><path d="M65.247 108.968c-.19 2.906 1.216 5.393 3.136 5.555 1.92.163 3.609-2.068 3.798-4.974.19-2.906-1.216-5.393-3.136-5.555-1.92-.163-3.622 2.068-3.798 4.974z" fill="#00699B"/><path d="M70.073 98.209c-.608-.055-2.622-.068-3.203.067 5.001.325 7.15 6.164 6.799 11.49-.352 5.325-2.5 10.502-9.07 9.961.554.23 3.406.839 4.014.893 4.34.351 8.178-4.38 8.584-10.557.405-6.191-2.785-11.503-7.124-11.854z" fill="#00699B"/><path d="M66.559 97.911c.608-.04 3.636.108 4.19.338-4.988-.487-8.894 5.19-9.245 10.502-.352 5.326 1.216 11.368 7.785 11.909-.581.135-3.595-.203-4.19-.338-5.528-1.352-7.529-5.664-7.123-11.854.392-6.178 3.906-10.233 8.583-10.557z" fill="#00699B"/><path d="M76.061 109.076c0-5.298-3.135-9.61-6.974-9.61-3.853 0-6.975 4.312-6.975 9.61 0 5.299 3.136 9.611 6.975 9.611 3.852.013 6.974-4.299 6.974-9.611zm-1.203 0c0 4.637-2.581 8.421-5.771 8.421-3.177 0-5.772-3.771-5.772-8.421 0-4.636 2.582-8.421 5.772-8.421 3.176.014 5.772 3.785 5.772 8.421z" fill="#12BAED"/><path d="M68.627 120.7c4.636.378 8.732-4.393 9.137-10.638.406-6.245-3.041-11.624-7.664-12.003-4.636-.378-8.732 4.393-9.137 10.638-.42 6.231 3.027 11.624 7.664 12.003zm1.175-20.978c3.677.297 6.38 4.758 6.056 9.935-.338 5.177-3.595 9.137-7.272 8.84-3.677-.298-6.38-4.758-6.055-9.935.337-5.177 3.595-9.138 7.271-8.84z" fill="#0094DA"/><path d="M66.477 109.115c-.121 1.906.892 3.542 2.285 3.65 1.378.108 2.608-1.338 2.73-3.244.122-1.906-.892-3.542-2.284-3.65-1.392-.121-2.61 1.339-2.73 3.244z" stroke="#04BAEE" stroke-width="2.929" stroke-miterlimit="10"/><path d="M67.964 109.171c.095 1.054.676 1.824 1.27 1.716.609-.094 1.014-1.027.906-2.068-.094-1.041-.676-1.811-1.27-1.716-.609.081-1.014 1.013-.906 2.068z" fill="#04BAEE"/><path d="M70.114 109.021l7.555-17.855-1.284-.974-7.704 18.248 1.433.581z" fill="#0094DA"/><path d="M73.304 98.95l-4.11 9.692-.513-.203 4.082-9.665.54.176z" fill="#04BAEE"/><path d="M72.52 98.708l2.04.757.487-1.257-2.041-.757-.487 1.257z" fill="#0094DA"/><path d="M78.737 85.326l-3.366-.649c-1.04-.203-2.244.46-2.676 1.487l-1.433 3.38c-.433 1.026 1.433 2.378 1.42 2.419 0 0 2.676.405 2.676.365l.378.067c1.04.203 2.244-.46 2.676-1.487l1.433-3.379c.433-1.014-.067-2-1.108-2.203z" fill="#00699B"/><path d="M73.279 90.651c-1.48-.71-2.03-2.64-1.23-4.308.802-1.67 2.652-2.446 4.132-1.735 1.48.711 2.031 2.64 1.23 4.31-.802 1.668-2.652 2.444-4.132 1.733z" fill="#0094DA"/><path d="M73.047 89.95c-1.245-.598-1.662-2.315-.931-3.836.73-1.52 2.331-2.269 3.576-1.671 1.245.598 1.662 2.315.932 3.836-.73 1.52-2.332 2.269-3.577 1.671z" fill="#00699B"/><path d="M72.78 89.339c-.983-.472-1.268-1.918-.638-3.23.63-1.313 1.938-1.994 2.92-1.522s1.268 1.918.638 3.23c-.63 1.313-1.938 1.994-2.92 1.522z" fill="#5BC4F1"/><path d="M87.415 76.987a2.08 2.08 0 0 1 2.365-.54c2.392.972 4.798 1.932 7.19 2.878a2.262 2.262 0 0 1 1.407 1.825 2.112 2.112 0 0 1-1 2.014 566.01 566.01 0 0 0-3.799 2.284c-.23-1.013-1.325-1.595-1.92-2.311a4.453 4.453 0 0 0-1.378-.784c.352-.216.716-.432 1.068-.649-.811-.324-1.622-.635-2.433-.96.946-.635 1.892-1.392 2.838-1.946-1.568-.176-3.095-.865-4.338-1.811z" fill="#796188"/><path d="M87.009 77.663c.094-.257.23-.486.405-.676.42.095 2.825.92 4.326 1.812-.933.567-1.893 1.31-2.839 1.946-.203-.081-.405-.162-.622-.243-1.108-.433-1.676-1.717-1.27-2.839z" fill="#796188"/><path d="M94.633 80.447l-3.406 1.217-.973-.379 4.38-.838z" fill="#6C567C"/><path d="M89.267 82.975c.338-.203.662-.406 1-.609.46.162.933.42 1.379.784.58.717 1.69 1.311 1.919 2.312-.676.405-1.352.824-2.028 1.243a2.12 2.12 0 0 1-1.324.311 2.182 2.182 0 0 1-1.65-1.04c-.621-1.042-.31-2.38.704-3.001z" fill="#F7C6A5"/><path d="M94.58 69.214s-.947.879-1.11 2.19c-.161 1.31.109 3.717.73 4.298.636.581 5.705 2.19 6.61 1.757.906-.446 1.339-1.284 1.379-1.716a2.236 2.236 0 0 0-.067-.784s.108-1.095-.068-2.177c-.176-1.067-.338-1.284-.338-1.284s-.527-1.892-2.298-2.838c-2.392-1.27-4.839.554-4.839.554z" fill="#27365C"/><path d="M102.242 74.81s.514.163.568.703c.054.541-.757 1.893-1.135 2.096-.379.202-.676.365-1.433.108-.744-.257-2.19-.568-2.19-.568s1.757.23 2.028-.054c.283-.284 0-1.568 0-1.568s.878.04 1.54-.081c.501-.108.852-.284.622-.635z" fill="#C7C6C6"/><path d="M101.689 71.39c.027.068.04.109.04.109s.162.203.338 1.284c.176 1.068.27 2.027.27 2.027s.109.311-.121.42c-.798.391-1.974.337-3.055.162-.081-1.257-.027-2.542.013-3.812 1.163 0 2.014-.108 2.515-.19z" fill="#D0E2E5"/><path d="M95.877 72.216c.338-.514 1.027-.838 1.946-.676.243.014.5.027.784.027h.54c.15.744.19 2.5-.013 3.812a16.081 16.081 0 0 1-1.933-.446c-.648-.311-1.067-.703-1.31-1.109-.325-.567-.298-1.162-.014-1.608z" fill="#D0E2E5"/><path d="M98.58 68.133s2.217.527 3.542 1.365c1.324.852 1.378 1.433 1.013 1.893-.351.46-3.663.216-4.528.175-.865-.04-.865-.027-.865-.027s2.541-.27 1.974-.987c-.582-.716-1.555-1.31-2.501-1.567-.946-.257-2-.15-2-.15s.418-.256 1.08-.459a5.268 5.268 0 0 1 2.285-.243z" fill="#C7C6C6"/><path d="M102.242 74.81s.514.163.568.703c.054.541-.757 1.893-1.135 2.096-.379.202-.676.365-1.433.108-.744-.257-2.19-.568-2.19-.568s1.757.23 2.028-.054c.283-.284 0-1.568 0-1.568s.878.04 1.54-.081c.501-.108.852-.284.622-.635zM98.58 68.133s2.217.527 3.542 1.365c1.324.852 1.378 1.433 1.013 1.893-.351.46-3.663.216-4.528.175-.865-.04-.865-.027-.865-.027s2.541-.27 1.974-.987c-.582-.716-1.555-1.31-2.501-1.567-.946-.257-2-.15-2-.15s.418-.256 1.08-.459a5.268 5.268 0 0 1 2.285-.243z" fill="#314474"/><path d="M295.034 119.321c23.34 0 42.261-1.43 42.261-3.193 0-1.764-18.921-3.193-42.261-3.193-23.339 0-42.26 1.429-42.26 3.193 0 1.763 18.921 3.193 42.26 3.193z" fill="#0032A5"/><path opacity=".7" d="M324.608 78.367V75.82l-5.082-9.234-2.032-2.517-3.923-1.078h-37.114l-3.645.873-1.643 1.078-3.285 5.495-2.781 5.34.471 2.902 59.034-.312z" fill="#5BC4F1"/><path d="M278.592 75.983h-4.893a2.756 2.756 0 0 1-2.748-2.749 2.756 2.756 0 0 1 2.748-2.749h4.893a2.756 2.756 0 0 1 2.748 2.75 2.756 2.756 0 0 1-2.748 2.748z" fill="#0082C8"/><path d="M280.606 80.37h-8.919a2.756 2.756 0 0 1-2.748-2.75 2.756 2.756 0 0 1 2.748-2.748h8.919a2.756 2.756 0 0 1 2.747 2.749 2.756 2.756 0 0 1-2.747 2.749z" fill="#0082C8"/><path d="M303.94 77.351h-19.63a2.756 2.756 0 0 1-2.748-2.749 2.756 2.756 0 0 1 2.748-2.749h19.63a2.756 2.756 0 0 1 2.748 2.75 2.756 2.756 0 0 1-2.748 2.748z" fill="#0082C8"/><path d="M305.954 81.737h-23.656a2.756 2.756 0 0 1-2.748-2.749 2.756 2.756 0 0 1 2.748-2.749h23.656a2.756 2.756 0 0 1 2.748 2.749 2.756 2.756 0 0 1-2.748 2.749z" fill="#0082C8"/><path d="M319.813 84.402h-50.076c-3.201 0-5.817-2.239-5.817-4.973s2.618-4.973 5.817-4.973h50.078c3.201 0 5.817 2.239 5.817 4.973s-2.618 4.973-5.819 4.973z" fill="#0082C8"/><path d="M315.011 75.983h-4.893a2.756 2.756 0 0 1-2.748-2.749 2.756 2.756 0 0 1 2.748-2.749h4.893a2.756 2.756 0 0 1 2.748 2.75 2.756 2.756 0 0 1-2.748 2.748z" fill="#0082C8"/><path d="M317.024 80.37h-8.918a2.756 2.756 0 0 1-2.748-2.75 2.756 2.756 0 0 1 2.748-2.748h8.918a2.756 2.756 0 0 1 2.748 2.749 2.757 2.757 0 0 1-2.748 2.749z" fill="#0082C8"/><path d="M278.078 71.642h-2.468v3.853h2.468v-3.853z" fill="#A96644"/><path d="M278.078 73.36v-1.718h-2.468v2.074c.481.06 1.565.109 2.468-.356z" fill="#914627"/><path d="M273.927 68.292s-.272-.353-.272-.82c0 0-1.174.045-.979-.904.196-.948.934-.603.948-1.234.015-.632 1.047-1.354 1.796-.813.749.541 2.464-1.354 2.524.603 0 0 1.158-.708 1.37.21.21.917 1.339.54 1.265 1.746 0 0-.122.392.345.451 0 0-.209.362-.407.286l-.477 1.465-2.929 1.636-3.184-2.626z" fill="#332A27"/><path d="M280.579 67.297c-.035-.111-.002-.216-.002-.216.029-.46-.119-.691-.325-.85-.574.38-1.691.93-2.993.544-1.254-.37-1.974-1.628-2.32-2.439-.644-.066-1.302.494-1.312.998a.533.533 0 0 1-.045.212c2.733 2.294 5.611 2.06 6.997 1.751z" fill="#4C423F"/><path d="M279.481 69.3l-.371.313c-.078-.185-.022-.477-.074-.673a3.797 3.797 0 0 1-.055-.257c-.422-.286-.654-1.088-.586-1.784.076-.782-1.054-.24-1.054-.24-.014-.437-1.279-1.204-1.248-.256.031.949-.572.753-.996.903-.423.15-.168.78-.168.78-.603-.084-.768-.596-.768-.596a.6.6 0 0 1-.226-.017c0 1.432-.175 3.646.658 4.874.295.432.665.797 1.286.893 2.709.424 3.406-2.226 3.406-2.226s.85.226 1.022-1.024c.142-1.04-.826-.69-.826-.69z" fill="#A96644"/><path d="M278.185 67.05c-.011.407.139 1.347.798 1.633-.422-.286-.654-1.088-.587-1.783.076-.782-1.053-.241-1.053-.241s.852-.014.842.39zM275.098 68.292s-.118-.806.312-.765c.428.039 1.121-.15 1.051-.764-.07-.61.673-.442.883-.105-.015-.436-1.28-1.203-1.249-.255.031.949-.572.753-.995.903-.424.15-.169.78-.169.78-.603-.084-.767-.596-.767-.596a.597.597 0 0 1-.226-.017c-.003 0 .238.792 1.16.819z" fill="#914627"/><path d="M275.408 69.627c-.002.233-.144.412-.317.397-.173-.014-.31-.214-.308-.446.002-.233.144-.412.316-.398.175.013.313.214.309.447zM277.777 69.56c-.002.232-.144.411-.317.397-.172-.015-.31-.214-.308-.447.002-.232.144-.411.317-.397.172.013.31.212.308.447z" fill="#502F26"/><path d="M276.249 70.95c-.524.212-.806-.035-.827-.282a.359.359 0 0 1 .233-.366c.319-.126.545-.615.547-.621.002.113-.113.537-.518.773-.089.052-.142.105-.136.185.012.138.212.346.701.311z" fill="#914627"/><path d="M274.344 68.427l-.022-.159c.035-.002.574-.15 1.209-.096l.006.247c-.52-.076-1.184.006-1.193.008zM278.189 68.508c-.424-.165-1.21-.196-1.218-.198l.052-.226c.03.006.742.03 1.217.286l-.051.138z" fill="#332A27"/><path d="M279.079 70.701c-.23.671-1.088 2.328-2.939 2.227-1.002-.056-1.51-.716-1.845-1.177.078.218.177.417.298.596.294.433.665.797 1.286.893 2.709.424 3.406-2.226 3.406-2.226s.65.181.938-.646c-.506.84-1.144.334-1.144.334z" fill="#914627"/><path d="M277.158 71.315s-.985.202-1.902 0c0 0 .162.844.95.842.747 0 .944-.677.952-.842z" fill="#722626"/><path d="M276.188 71.717c-.606 0-.783-.25-.859-.389.711.14 1.285.056 1.785-.006-.056.155-.354.395-.926.395z" fill="#fff"/><path d="M281.93 75.567s-1.526-.586-3.237-.96c0 0-.984 1.005-2.105.96-1.219-.051-1.676-.928-1.676-.928-.779.124-2.042.439-2.82.8 0 0-.463 2.058-.004 12.755 0 0 3.028 1.064 8.606 0 0 0 .064-4.845.788-7.775.002 0 .22-3.01.448-4.852z" fill="#FFD07D"/><path opacity=".2" d="M275.55 76.936l.971-.955.632 1.249s1.629-1.002 1.845-2.554a13.62 13.62 0 0 0-.305-.07c-1.376 1.015-2.608 1.51-3.78.031a3.588 3.588 0 0 0-.181.031c0 .002-.144.982.818 2.267z" fill="#000"/><path d="M275.626 74.028s.13 1.002.92 1.352c0 0 1.444-.405 1.549-1.366l.851.65s-.539 1.603-1.678 2.026l-.712-1.086-.967.895s-.934-1.134-.855-1.833l.892-.638z" fill="#FFD07D"/><path d="M281.741 86.92l-.539-.38-.405.083c-.382-.123-.553-.377-.744-.405-.192-.03-.492-.23-.492-.23-.177.267.169.555.169.555-.027-.006-.054-.01-.081-.017l-.197-.039c-.084-.016-.169-.035-.251-.051-.08-.017-.162-.035-.243-.05-.063-.01-.125-.022-.189-.026a.784.784 0 0 0-.195.024c-.083.017-.51.17-.582.186l-.103.022c-.031.082-.037.171.004.245.074.134.267.132.368.113.074-.012.173-.047.245-.074.062-.023.045-.035.152-.023.062.007.123.03.185.042.134.028.268.06.401.092.031.006.06.015.091.02 0 0-.646.12-.848.176-.15.043-.574.45-.574.45-.306.292.173.406.173.406-.024.026-.057.074-.057.115 0 .035.024.062.043.082a.303.303 0 0 0 .129.068.46.46 0 0 0 .336-.01l.07-.031.086-.045c.088-.05.175-.1.257-.16.01-.01.033-.034.045-.034l.502-.029c-.168.093-.343.4-.572.54a.416.416 0 0 0-.098.076c-.027.028-.058.072-.052.117.006.043.045.055.076.068.097.039.202.037.305.012a.708.708 0 0 0 .302-.165c.305-.339.644-.508 1.078-.283.627.323 1.117-.611 1.117-.611l.088-.83z" fill="#A96644"/><path d="M281.931 75.568s1.207.074 4.309 5.963c0 0 1.287 2.41-4.336 6.362 0 0-1.096-.332-1.096-1.541l2.778-3.667-2.056-2.267c0 .002-.689-3.344.401-4.85z" fill="#FFD07D"/><path d="M272.284 86.787l.539-.379.405.082c.382-.123.553-.376.744-.405.192-.029.492-.23.492-.23.177.267-.169.555-.169.555l.081-.016.197-.04c.084-.016.169-.034.251-.051.08-.016.162-.035.243-.05.063-.01.125-.022.189-.026a.79.79 0 0 1 .195.025c.083.016.51.168.582.185l.103.022c.031.083.037.171-.004.245-.074.134-.267.132-.368.113a1.523 1.523 0 0 1-.245-.074c-.062-.022-.045-.035-.152-.022-.062.006-.123.028-.185.04-.134.03-.268.06-.401.093-.031.007-.06.015-.091.021 0 0 .646.12.848.175.15.043.574.45.574.45.306.293-.173.406-.173.406.024.026.057.074.057.115 0 .035-.024.062-.043.082a.303.303 0 0 1-.129.068.46.46 0 0 1-.336-.01l-.07-.03-.086-.046a2.251 2.251 0 0 1-.257-.16c-.01-.009-.033-.034-.045-.034l-.502-.028c.168.092.343.399.572.539.035.02.069.045.098.076.027.029.058.072.052.117-.006.043-.046.056-.076.068a.497.497 0 0 1-.305.012.708.708 0 0 1-.302-.165c-.305-.339-.644-.507-1.078-.283-.627.323-1.117-.611-1.117-.611l-.088-.83z" fill="#A96644"/><path d="M272.092 75.438s-1.207.074-4.309 5.962c0 0-1.287 2.41 4.336 6.362 0 0 1.097-.332 1.097-1.541l-2.779-3.667 2.057-2.267s.691-3.343-.402-4.85z" fill="#FFD07D"/><path d="M311.784 64.204s3.762-.693 4.243 3.553c.459 4.045.913 8.057.819 10.948 0 0-3.725 1.204-8.02 0 0 0 .111-5.586-.249-9.47-.317-3.406 1.078-5.181 3.207-5.03z" fill="url(#paint0_linear)"/><path d="M315.501 65.934a3.168 3.168 0 0 0-1.559-1.458c-.444.683-1.076 1.234-2.355 1.228-.924-.004-1.14-.714-1.162-1.29-.5.212-.92.578-1.235 1.093 1.926 1.495 4.723.936 6.311.427z" fill="#994A3D"/><path d="M308.789 74.802s-1.025.18-1.597 5.68l2.002.216c.002.003 1.69-5.612-.405-5.896z" fill="#BDC7D6"/><path d="M314.342 83.86s2.598 2.488 3.149 12.866c0 0-5.004 1.384-11.475 0 0 0 1.123-10.674 3.073-12.96l5.253.094z" fill="#A52923"/><path d="M309.699 74.615s2.386-.535 4.595 0c0 0-.373 2.438-3.186 2.46-2.816.023-1.409-2.46-1.409-2.46z" fill="#D17462"/><path d="M314.244 74.516s-2.503 2.37-3.106 2.364c-.603-.006-1.327-2.364-1.327-2.364-.923.246-1.02.29-1.02.29l-.179 1.66c-.944 1.208-.936 1.547-.936 2.08 0 .926.819 1.492.819 1.492l.596 3.755c3.139 1.22 5.252.07 5.252.07.347-2.373 1.244-5.413 1.244-5.413v-3.523c-.479-.22-.854-.272-1.343-.411z" fill="#D7E4F7"/><path d="M311.21 73.617l-.006 1.49 1.822.006.009-1.938a2.778 2.778 0 0 1-1.825.442z" fill="#D17462"/><path d="M313.037 73.174l.006-1.494-1.822-.006-.009 1.942c.311.04 1.068.054 1.825-.442z" fill="#BA5F50"/><path opacity=".1" d="M307.851 78.88s.239.201.757.246c1.045.091 3.244.278 4.756.035.633-.102.74-.421 1.217-.796 0 0 .076 1.628-1.911 1.595-1.989-.035-4.693.21-4.819-1.08z" fill="#000"/><path d="M308.262 69.47c-.01 1.705.455 3.168.502 4.44.101 2.73-.771 3.801-.942 4.795 0 0 .973.247 1.866.08 0 0 .73-2.946.613-4.676-.117-1.73-.895-4.453-.895-4.453s-.37-3.384 2.18-3.952l.009-.535c-.212-.019-3.304-.21-3.333 4.3z" fill="#7C3425"/><path d="M314.756 69.056l-.048.016s-.335.22-.393-.397c-.286-2.635-2.713-2.975-2.713-2.975-2.48.261-2.394 1.918-2.351 3.002-.014.61.079 1.163.046 1.78-.087 1.539 1.211 2.54 2.365 2.539 2.215-.002 2.777-1.97 2.777-1.97s1.03.176 1.162-1.207c.103-1.13-.845-.788-.845-.788z" fill="#D17462"/><g opacity=".9" fill="#D15D54"><path opacity=".091" d="M310.321 69.762a.936.936 0 1 1-.348 1.84.936.936 0 0 1 .348-1.84z"/><path opacity=".182" d="M310.303 69.851a.848.848 0 1 1-.316 1.663.848.848 0 0 1 .316-1.663z"/><path opacity=".273" d="M310.288 69.94a.757.757 0 1 1-.284 1.488.757.757 0 0 1 .284-1.488z"/><path opacity=".364" d="M310.268 70.028a.666.666 0 1 1-.247 1.309.666.666 0 0 1 .247-1.31z"/><path opacity=".455" d="M310.252 70.117a.575.575 0 1 1-.214 1.13.575.575 0 0 1 .214-1.13z"/><path opacity=".545" d="M310.236 70.206a.486.486 0 1 1-.182.954.486.486 0 0 1 .182-.954z"/><path opacity=".636" d="M310.219 70.293a.396.396 0 1 1-.148.778.396.396 0 0 1 .148-.778z"/><path opacity=".727" d="M310.203 70.382c.164.031.273.191.243.356a.305.305 0 0 1-.599-.113.305.305 0 0 1 .356-.243z"/><path opacity=".818" d="M310.187 70.471a.213.213 0 0 1 .17.251.213.213 0 0 1-.251.17.215.215 0 0 1 .081-.422z"/><path opacity=".909" d="M310.168 70.559a.124.124 0 0 1 .099.146.124.124 0 0 1-.146.1.123.123 0 0 1-.099-.147.127.127 0 0 1 .146-.1z"/><path opacity=".9" d="M310.179 70.69a.035.035 0 1 1-.069-.015.036.036 0 0 1 .042-.028c.019.004.032.023.027.042z"/></g><g opacity=".636" fill="#D15D54"><path opacity=".091" d="M313.293 69.695a1.003 1.003 0 1 1-.371 1.972 1.003 1.003 0 0 1 .371-1.972z"/><path opacity=".182" d="M313.275 69.791a.908.908 0 0 1-.338 1.782.907.907 0 0 1 .338-1.782z"/><path opacity=".273" d="M313.256 69.886a.811.811 0 0 1-.3 1.593.811.811 0 0 1 .3-1.593z"/><path opacity=".364" d="M313.239 69.98a.713.713 0 1 1-.265 1.401.713.713 0 0 1 .265-1.401z"/><path opacity=".455" d="M313.221 70.075a.616.616 0 1 1-.229 1.21.616.616 0 0 1 .229-1.21z"/><path opacity=".545" d="M313.202 70.171a.52.52 0 1 1-.197 1.023.52.52 0 0 1 .197-1.023z"/><path opacity=".636" d="M313.183 70.266a.424.424 0 1 1-.159.833.424.424 0 0 1 .159-.833z"/><path opacity=".727" d="M313.167 70.36a.328.328 0 1 1-.122.644.328.328 0 0 1 .122-.644z"/><path opacity=".818" d="M313.148 70.456a.228.228 0 0 1 .183.27.228.228 0 0 1-.269.183.229.229 0 0 1-.183-.27.232.232 0 0 1 .269-.183z"/><path opacity=".909" d="M313.13 70.55c.072.014.12.084.108.157a.137.137 0 0 1-.157.107.136.136 0 0 1-.107-.157.136.136 0 0 1 .156-.107z"/><path opacity=".636" d="M313.143 70.688a.036.036 0 0 1-.044.03.036.036 0 0 1-.029-.044.036.036 0 0 1 .044-.03c.019.004.031.025.029.044z"/></g><path d="M311.63 70.857c-.385.174-.627.084-.677-.175-.033-.169.066-.36.171-.455.216-.191.313-.753.313-.76.016.12-.009.591-.272.916a.288.288 0 0 0-.074.22c.016.194.202.342.539.254z" fill="#BA5F50"/><path d="M310.235 69.151s-.337.01-.386-.117c0 0-.039.18.166.237a.508.508 0 0 0-.101.323c.005.24.155.434.336.432.181-.002.325-.2.321-.442-.005-.243-.153-.437-.336-.433zM312.763 69.11s-.337.01-.387-.118c0 0-.039.18.167.237a.508.508 0 0 0-.101.323c.004.24.155.434.336.432.181-.002.325-.2.321-.442-.005-.243-.155-.435-.336-.433z" fill="#502F26"/><path d="M314.267 70.586s-.154 1.195-1.674 1.847c-1.339.574-2.645-.314-2.935-.532.454.707 1.256 1.123 1.999 1.12 2.215-.001 2.777-1.968 2.777-1.968s.648.117.987-.543c-.64.605-1.154.076-1.154.076z" fill="#BA5F50"/><path d="M310.813 68.473s-.543-.146-1.285.07c0 0-.004-.055.136-.175.131-.11.619-.232 1.038-.061 0 .002.218.117.111.166zM312.056 68.442s.541-.156 1.286.045c0 0 .004-.055-.138-.17-.134-.11-.623-.223-1.041-.044 0 0-.216.122-.107.17z" fill="#7C3425"/><path d="M312.43 71.21s-.86.19-1.664.027c0 0 .154.736.843.724.65-.012.815-.607.821-.751z" fill="#B22828"/><path d="M311.586 71.576c-.531.008-.689-.21-.759-.327.625.113 1.125.032 1.561-.03-.043.135-.302.348-.802.357z" fill="#fff"/><path d="M314.756 69.056l-.047.016s-.336.22-.393-.397c-.286-2.635-2.713-2.975-2.713-2.975-2.21.233-2.384 1.572-2.364 2.63.13-.657.615-2.22 2.294-2.519 0 0 2.289.757 2.75 5.617.111-.22.156-.374.156-.374s1.031.175 1.162-1.208c.103-1.132-.845-.79-.845-.79z" fill="#BA5F50"/><path d="M315.604 69.58s-.26-4.623-3.997-4.413l-.012-.002-.009.535.011-.002s2.1.255 2.606 3.956c.656 4.78-2.071 9.25-2.071 9.25s1.48 0 1.966-.12c0 0 1.063-2.523 1.405-4.583.403-2.42.101-4.62.101-4.62z" fill="#7C3425"/><path d="M315.566 74.926s1.388.47 2.092 6.267l-2.086.62s-1.386-5.079-.006-6.887z" fill="#D7E4F7"/><path d="M317.656 81.192s.129 1.64-2.086 1.52a38.384 38.384 0 0 1-3.935-.442l.14-1.125c.002 0 3.353-.57 5.881.047z" fill="#D17462"/><path d="M308.795 81.418c.039-.104.164-.074.304-.043l-.411-.144c-.095-.037-.198-.08-.159-.203.042-.13.151-.101.264-.072l-.28-.105c-.095-.037-.191-.089-.154-.225.031-.113.129-.103.242-.09l.241.033c-.138-.052-.239-.154-.214-.243.017-.058.095-.125.298-.107l1.313.076.467.087-.251-.241c-.212-.278-.041-.403-.041-.403.086-.068.24.06.46.195l.714.508c.255.255.72.73.621 1.187-.103.476-.267.671-.596.69 0 0-.593-.015-.918-.06-.325-.045-.701-.163-.701-.163l-.992-.42c-.146-.073-.24-.162-.207-.257z" fill="#D17462"/><path d="M295.971 84.421c-.451-.162-.605.358-.605.358s-.315.774-.356 1.066c-.041.294.196.93.354 1.055 0 0 .389.278.485.364 0 0 .169.007.064-.287 0 0 .309.168.272-.101 0 0 .179-.118.216-.43 0 0-.077-.375-.177-.531 0 0 .205-.543.096-.879 0 0 .101-.452-.349-.615z" fill="#A96644"/><path d="M295.944 85.064s-.08.537-.175.837c0 0 .268.4.11.572 0 0-.208-.146-.486-.467 0 0 .154.531.183.611.031.08.222.208.333.362 0 0 .202-.07.216-.18 0 0 .181-.198.175-.336 0 0-.053-.305-.131-.52 0 0 .271-.536.131-.902-.008-.022-.339.04-.356.023z" fill="#914627"/><path d="M296.464 78.862c.486.041 1.021.064 1.539.422-.019.537-.255 1.302-.307 1.697 0 0-.36 2.101-1.376 4.056 0 0-.553-.041-.901-.38 0 0 .519-3.134.747-3.939 0-.002.214-.942.298-1.856z" fill="#A96644"/><path d="M296.707 76.675c.465-1.471 1.07-1.772 1.07-1.772l.407 2.761s-.022.873-.055 1.813c-.51-.113-1.516-.298-2.01-.496.245-.956.352-1.557.588-2.306z" fill="#9B2A2A"/><path d="M302.957 99.072l1.249-.109-.107-1.504-1.249.109.107 1.504z" fill="#A96644"/><path d="M304.685 99.856h-2.227v.363h2.227v-.363z" fill="#C1C1C1"/><path d="M304.644 99.856s.142-.362-.06-.712l-.279-.598s-.138.144-.262.086c-.129-.06-.495-.757-1.03.004 0 0-.158-.094-.249-.066l-.171.56s-.292.547-.102.726h2.153z" fill="#A52923"/><path d="M303.926 99.299c-.006 0-.012-.002-.018-.004a1.264 1.264 0 0 0-.731-.031c-.03.01-.063-.01-.072-.045-.008-.035.011-.07.042-.08.016-.005.405-.118.798.032.03.013.047.05.037.083-.009.028-.031.045-.056.045z" fill="#fff"/><path d="M303.926 99.125a1.265 1.265 0 0 0-.749-.035c-.03.01-.063-.01-.072-.045a.068.068 0 0 1 .042-.08c.016-.004.405-.118.798.033.03.012.047.049.037.082-.009.029-.031.045-.056.045z" fill="#fff"/><path d="M303.926 98.953c-.006 0-.012-.002-.018-.004a1.264 1.264 0 0 0-.731-.03c-.03.01-.063-.011-.072-.046-.008-.035.011-.07.042-.08.016-.004.405-.118.798.033.03.012.047.05.037.082-.009.029-.031.045-.056.045z" fill="#fff"/><path d="M303.926 98.78a1.266 1.266 0 0 0-.749-.035c-.03.01-.063-.01-.072-.045-.008-.035.011-.07.042-.08.016-.004.405-.117.798.033.03.012.047.05.037.082-.009.029-.031.045-.056.045z" fill="#fff"/><path d="M295.838 95.642h-1.324v1.444h1.324v-1.444z" fill="#A96644"/><path d="M295.994 96.602s.319.484.171 1.385h-4.387s-.356-.621.944-.747c.841-.08 1.59-.847 1.59-.847s.247.04.354.351c.117.346.814.414 1.065.044.159-.233.263-.186.263-.186z" fill="#A52923"/><path d="M296.198 97.99h-4.393v.361h4.393v-.362z" fill="#C1C1C1"/><path d="M293.444 97.549a.088.088 0 0 1-.076-.052.436.436 0 0 0-.271-.259.086.086 0 0 1-.06-.105.084.084 0 0 1 .099-.063c.01.002.267.07.384.358a.087.087 0 0 1-.043.113c-.01.004-.02.008-.033.008zM293.773 97.419a.088.088 0 0 1-.076-.051.436.436 0 0 0-.271-.26c-.044-.01-.07-.057-.06-.105a.084.084 0 0 1 .099-.063c.01.002.267.07.384.358a.088.088 0 0 1-.076.121zM294.018 97.248a.084.084 0 0 1-.076-.051.441.441 0 0 0-.272-.26.085.085 0 0 1-.059-.105.083.083 0 0 1 .099-.063c.01.002.267.07.384.358a.087.087 0 0 1-.043.113.06.06 0 0 1-.033.008zM294.265 97.073a.087.087 0 0 1-.076-.051.439.439 0 0 0-.272-.26.086.086 0 0 1-.06-.104.084.084 0 0 1 .099-.064c.01.002.268.072.385.358a.088.088 0 0 1-.076.121z" fill="#fff"/><path d="M297.772 83.54l-.21 1.525s-3.032 3.748-3.285 4.631c-.253.887-.031 2.53.06 5.922 0 0 .596.378 1.695.043 0 0 .101-4.835.321-5.358.22-.523 3.955-4.37 3.955-4.37l.654.014 1.685 11.829s.816.218 1.616-.072l-1.045-14.166h-5.446v.002z" fill="#2E4056"/><path d="M297.747 84.954a.042.042 0 0 1-.037-.025.04.04 0 0 1 .021-.051c.006-.002.71-.299.812-1.093.003-.022.023-.037.046-.035.02.002.037.023.035.046-.111.841-.854 1.154-.862 1.156-.004.002-.01.002-.015.002zM300.771 85.933a.04.04 0 0 1-.039-.031 11.413 11.413 0 0 1-.197-1.992c0-.022.016-.039.039-.04.02 0 .039.016.041.038.018 1.138.195 1.967.195 1.975.004.021-.008.044-.031.048l-.008.002z" fill="#566C82"/><path d="M300.672 85.567h-.002a.527.527 0 0 1-.37-.19c-.36-.417-.282-1.382-.28-1.421.002-.023.021-.037.043-.037.023.002.037.02.035.043 0 .01-.078.971.262 1.364a.442.442 0 0 0 .314.163c.023.002.039.02.037.04-.002.024-.018.038-.039.038zM303.227 85.202h-.004c-1.275-.13-1.598-1.222-1.602-1.232a.04.04 0 0 1 .026-.05.04.04 0 0 1 .05.027 1.77 1.77 0 0 0 1.534 1.175c.023.002.037.02.035.043-.002.023-.018.037-.039.037z" fill="#566C82"/><path d="M294.273 95.362v.434s.963.44 1.866.033v-.308s-1.265.23-1.866-.159zM302.518 97.442l.084.445s1.24.17 1.781-.218v-.34c.002 0-1.115.395-1.865.113z" fill="#ABC2D8"/><path d="M300.115 73.981l-.027.963 1.597.043.035-1.253a3.141 3.141 0 0 1-1.605.247z" fill="#A96644"/><path d="M301.722 73.734l.026-.965-1.596-.043-.035 1.257c.272.03.934.055 1.605-.25z" fill="#914627"/><path d="M300.774 75.161c.944 0 1.172-.524 1.203-.689a6.213 6.213 0 0 0-2.162-.078c-.018.193.031.767.959.767z" fill="#A96644"/><path d="M304.104 75.18s-.91-.495-2.018-.738a3.4 3.4 0 0 0-.142-.029c-.033.165-.21.665-1.154.665-.928 0-.959-.533-.938-.725a4.203 4.203 0 0 0-.21.031c-.504.08-1.359.284-1.861.519 0 0-.07 2.617-.146 8.882 0 0 2.248.809 5.86.12.057-3.009.072-3.89.304-5.78a87.1 87.1 0 0 1 .305-2.944z" fill="#B23232"/><path d="M303.387 69.101s.194.436.286 1.045c0 0 .35-1.045.498-1.757.16-.763-.165-2.212-2.047-2.823-2.692-.876-3.381.194-3.918 2.01.002 0 3.571-1.364 5.181 1.525z" fill="#D0D6D8"/><path d="M302.898 65.928c1.187.724 1.409 1.819 1.275 2.46-.148.712-.497 1.757-.497 1.757a4.54 4.54 0 0 0-.286-1.045 3.601 3.601 0 0 0-.755-.95 3.24 3.24 0 0 0 .263-2.222z" fill="#AAB6BA"/><path d="M303.387 69.1s-1.417-2.11-4.381-1.629c0 0-.915.229-.88 1.004 0 0-1.329-1.899-.965-2.395.362-.493 4.293-.45 4.949.175.872.83 1.277 2.846 1.277 2.846z" fill="#C63939"/><path d="M297.404 67.967c.053-.111.086-.138.105-.13-.037-.193-.07-.545.156-.644.128-.055.202-.055.255-.022-.016-.07-.014-.155.113-.261.103-.085.159-.087.2-.044a.209.209 0 0 1 .072-.201c.185-.157.493-.146.983.146-.076-.058-.154-.155-.014-.243.222-.142.329.058.368.097 0 0-.214-.233.039-.3.173-.048.341.127.53.277-.024-.045-.002-.097.118-.142.306-.115.839.033 1.133.54a.294.294 0 0 1 .126-.075c.347-.125.828.502.845 1.224 0 0 .714.453 1.051.963 0 0 .232.554.193.996l-.286.858-5.251-.844s-.201-.722-.156-1.382c-.004 0-.72-.52-.58-.813z" fill="#332A27"/><path d="M300.938 68.105c.564.204 1.362.233 1.362.233.442 1.105 1.012 1.747 1.302 2.024l-.214.644-5.251-.843s-.202-.737-.157-1.395c.161-1.749 2.394-.866 2.958-.663z" fill="#191514"/><path d="M302.947 70.408l-.321.259c-.067-.152.033-.58.042-.749.049-.91-.437-1.523-.437-1.523-1.884.237-2.505-.384-3.077-.325-.783.083-.878.686-.878.686-.197.705-.14 1.065-.14 1.065-.002.838-.02 2.26.582 3.11.253.357.574.658 1.113.738 2.345.352 2.946-1.844 2.946-1.844s.734.188.884-.847c.123-.86-.714-.57-.714-.57z" fill="#A96644"/><path d="M302.164 68.618s-.81.333-2.741-.426c0 0-.574-.19-1.031.288.115-.17.337-.368.761-.413.572-.06 1.193.561 3.077.325 0 0 .426.539.44 1.358-.074-.367-.226-.887-.506-1.132zM302.598 71.565c-.2.555-.942 1.924-2.542 1.841-.866-.045-1.307-.592-1.597-.973.068.18.153.346.26.494.253.358.574.658 1.112.738 2.345.352 2.946-1.843 2.946-1.843s.561.15.81-.535c-.436.695-.989.278-.989.278z" fill="#914627"/><path d="M299.424 70.675c-.002.194-.124.34-.274.33-.148-.013-.267-.177-.267-.37.002-.194.123-.34.273-.33.151.012.27.177.268.37zM301.473 70.619c-.003.193-.124.34-.274.33-.148-.013-.267-.178-.265-.371.002-.194.125-.34.273-.33.148.01.268.177.266.37z" fill="#502F26"/><path d="M300.15 71.77c-.452.175-.697-.029-.716-.234a.294.294 0 0 1 .202-.303c.276-.103.471-.51.473-.514.002.092-.097.444-.448.64-.076.04-.124.086-.118.152.011.117.185.288.607.26z" fill="#914627"/><path d="M298.502 69.832l-.02-.11c.029-.003.498-.105 1.047-.069l.004.175c-.448-.055-1.022.004-1.031.004zM301.845 69.846c-.381-.083-1.06-.046-1.066-.046l.023-.162c.027.002.642-.035 1.076.107l-.033.1z" fill="#332A27"/><path d="M300.938 72.072s-.854.167-1.646 0c0 0 .14.698.823.698a.81.81 0 0 0 .823-.698z" fill="#722626"/><path d="M300.097 72.406c-.524 0-.679-.208-.744-.32.615.114 1.112.046 1.544-.005-.047.126-.304.325-.8.325z" fill="#fff"/><path d="M303.926 82.71c-.123-.222-.356-.25-.356-.25l-.267.056c-.253-.082-.364-.249-.492-.267-.127-.019-.325-.152-.325-.152-.115.177.111.366.111.366l-.053-.01c-.043-.009-.086-.019-.13-.027l-.166-.033c-.054-.01-.107-.023-.161-.033a.653.653 0 0 0-.125-.016.467.467 0 0 0-.13.016c-.053.01-.337.111-.384.124l-.068.014a.192.192 0 0 0 .002.162c.049.089.177.087.243.077a.982.982 0 0 0 .162-.05c.041-.014.031-.022.101-.016.041.004.08.018.121.026l.266.06.059.014s-.426.079-.559.116c-.099.029-.379.298-.379.298-.201.194.115.268.115.268-.016.018-.037.049-.037.076 0 .022.017.04.029.053.025.025.056.035.087.045a.311.311 0 0 0 .222-.006c.016-.006.031-.014.045-.02l.058-.031c.057-.033.115-.064.17-.105.006-.004.021-.02.029-.023l.331-.018c-.111.061-.226.263-.378.356a.304.304 0 0 0-.066.051c-.019.019-.039.047-.035.078.004.03.031.037.051.046a.337.337 0 0 0 .202.008.427.427 0 0 0 .171-.085c.01-.008.018-.014.028-.024.202-.225.426-.336.712-.188.414.215.739-.403.739-.403s.183-.331.057-.553z" fill="#A96644"/><path d="M306.228 78.245c.129.233.45.757.592 1.025 0 0 .761 1.378-2.954 3.99 0 0-.444-.227-.296-.801l1.576-2.547-.391-.667c.539-.609 1.002-.84 1.473-1z" fill="#A96644"/><path d="M304.103 75.18s.646-.081 2.392 3.064c-.29.311-.928 1.035-1.787 1.332l-.994-1.225s-.331-2.176.389-3.17z" fill="#B23232"/><path d="M289.369 98.711l-.746-.004c-.296 0-.537.344-.537.755 0 .414.241.755.537.755h.701l.045-1.506z" fill="#1A2126"/><path d="M289.883 99.45c0-.413-.216-.728-.514-.728-.296 0-.561.317-.561.728 0 .414.22.788.518.788.296-.002.557-.376.557-.788z" fill="#313C44"/><path d="M291.72 99.254h-.423c-.358-.181-.362-.412-.362-.412l-.268-.13-.321.137c-.034.304-.29.345-.405.407h-.446a.181.181 0 0 0 0 .362h2.227c.099 0 .181-.08.181-.18a.185.185 0 0 0-.183-.184z" fill="#7A8A96"/><path d="M291.502 98.531h-1.685v.3h1.685v-.3z" fill="#616F77"/><path d="M292.019 98.71l-.747-.004c-.296 0-.537.344-.537.755 0 .414.241.755.537.755h.702l.045-1.506z" fill="#1A2126"/><path d="M292.531 99.451c0-.413-.216-.728-.514-.728-.297 0-.562.317-.562.728 0 .414.22.788.518.788.299-.002.558-.377.558-.788z" fill="#313C44"/><path d="M297.796 98.711l-.746-.004c-.297 0-.537.344-.537.755 0 .414.24.755.537.755h.701l.045-1.506z" fill="#1A2126"/><path d="M298.31 99.45c0-.413-.216-.728-.514-.728-.296 0-.562.317-.562.728 0 .414.22.788.519.788.296-.002.557-.376.557-.788z" fill="#313C44"/><path d="M300.147 99.254h-.423c-.358-.181-.362-.412-.362-.412l-.268-.13-.321.137c-.035.304-.29.345-.405.407h-.446a.181.181 0 0 0 0 .362h2.227c.099 0 .181-.08.181-.18a.186.186 0 0 0-.183-.184z" fill="#7A8A96"/><path d="M299.929 98.531h-1.684v.3h1.684v-.3z" fill="#616F77"/><path d="M300.446 98.71l-.747-.004c-.296 0-.537.344-.537.755 0 .414.241.755.537.755h.701l.046-1.506z" fill="#1A2126"/><path d="M300.958 99.451c0-.413-.216-.728-.514-.728-.296 0-.562.317-.562.728 0 .414.22.788.519.788.296-.002.557-.377.557-.788z" fill="#313C44"/><path d="M300.207 98.593h-11.676s-.618-.02-1.008-.412c-.391-.39.076-.695.45-.71.35-.014 1.798-.162 2.674.659a.83.83 0 0 0 .562.222h6.23s.481-.02.882-.298c.401-.278 2.086-.918 2.87-.346.783.572-.521.885-.984.885z" fill="#A08650"/><path d="M288.388 97.703c-.561.008-.859.099-1.012.18 0 .09.044.192.149.3.39.39 1.007.41 1.007.41h2.672c-.368 0-.467-.071-.781-.335-.319-.265-.996-.572-2.035-.555z" fill="#A52923"/><path d="M300.388 98.353s.802-.03 1.001-.449a.765.765 0 0 0-.199-.201c-.782-.573-2.468.07-2.869.347-.358.25-.78.292-.866.299v.006h2.933v-.002z" fill="#313C44"/><path d="M299.336 65.632v-.723c0-.578-.474-1.053-1.054-1.053h-2.774v-.918c-.638.002-1.422.013-2.31.03v.888h-2.775c-.58 0-1.051.473-1.051 1.053v.723c0 .578.473 1.051 1.051 1.051h7.859a1.054 1.054 0 0 0 1.054-1.051z" fill="#0082C8"/><path d="M276.584 82.746a3.93 3.93 0 1 0 0-7.858 3.93 3.93 0 0 0 0 7.858z" stroke="#0082C8" stroke-width="6.427" stroke-miterlimit="10"/><path d="M273.746 75.607l-.703-.35a.343.343 0 0 0-.459.155l-.039.076a.344.344 0 0 0 .002.306.318.318 0 0 0-.236.171l-.04.076a.333.333 0 0 0 .042.346.338.338 0 0 0-.284.187l-.039.076a.34.34 0 0 0-.019.258.253.253 0 0 0-.111.076l-.045.051a.276.276 0 0 0 .027.391l.479.42c.115.1.29.088.391-.027l.045-.051c.088-.101.09-.245.014-.348l.081.039a.342.342 0 0 0 .458-.154l.039-.076a.344.344 0 0 0 .013-.274c.176.053.36-.01.434-.159l.039-.076c.072-.144.016-.319-.12-.428a.333.333 0 0 0 .151-.15l.039-.076a.348.348 0 0 0-.159-.459zM279.137 75.377l.703-.35a.343.343 0 0 1 .459.154l.039.076c.049.101.045.214-.002.307a.318.318 0 0 1 .236.17l.04.077a.331.331 0 0 1-.042.346.338.338 0 0 1 .284.187l.039.076a.34.34 0 0 1 .019.257c.041.014.08.04.111.076l.045.052a.276.276 0 0 1-.027.39l-.479.42a.277.277 0 0 1-.391-.026l-.045-.052a.277.277 0 0 1-.014-.348l-.081.04a.342.342 0 0 1-.458-.155l-.039-.076a.344.344 0 0 1-.013-.274c-.177.054-.36-.01-.434-.158l-.039-.076c-.072-.144-.016-.319.12-.428a.333.333 0 0 1-.151-.15l-.039-.076a.346.346 0 0 1 .159-.46z" fill="#A96644"/><path d="M288.347 99.754l-.321-.647-.942.13-.094.765 1.357.002v-.25z" fill="#D17462"/><path d="M283.946 92.58c.529 1.85 1.763 3.064 3.207 6.847l.864-.316s-.988-3.7-2.17-6.726c0 0 .092-2.6.907-5.473-1.284-.344-1.81-.459-2.557-.593-.512 1.998-.496 5.401-.251 6.261z" fill="#D17462"/><path d="M284.2 86.316a9.43 9.43 0 0 0-.181.891c.37.299 1.168.81 2.42.955.091-.407.196-.827.317-1.253-1.283-.342-1.812-.459-2.556-.593z" fill="#BA5F50"/><path d="M288.566 100.876h-4.256v.492h4.256v-.492z" fill="#C1C1C1"/><path d="M284.316 100.877s-.29-.805.973-.92l.327.92h-1.3z" fill="#F2F2F2"/><path d="M285.299 99.955l1.683-.57s.202-.06.352.337c0 0 .623.338 1.018-.09 0 0 .378-.033.214.623v.624h-3.511l.244-.924z" fill="#D6D8D8"/><path d="M288.342 99.632a.645.645 0 0 1-.498.216l.039.228s.253-.047.374-.14c0 0 .101.254.288.313.165-.646-.203-.617-.203-.617zM286.336 100.877h-.273l-.218-.55.234-.082.257.632zM286.828 100.876h-.274l-.273-.699.251-.078.296.777zM287.318 100.876h-.272l-.315-.835.245-.076.342.911z" fill="#3E4042"/><path d="M287.317 99.726l-1.878.642-.082-.229 1.559-.526c.002 0 .28-.11.401.113z" fill="#CECECE"/><path d="M285.608 99.756l-.154.053.142.412.154-.053-.142-.412zM285.935 99.647l-.154.053.142.413.154-.053-.142-.413zM286.264 99.537l-.154.053.142.412.154-.053-.142-.412zM286.645 99.428l-.154.053.142.413.154-.053-.142-.412z" fill="#F2F2F2"/><path d="M287.681 86.976c.144 2.36.508 8.497.473 12.919h.936s.767-7.68 1.152-13.197a16.541 16.541 0 0 0-2.561.278z" fill="#D17462"/><path d="M290.244 86.714c-1.022.041-1.773.123-2.56.273l.07 1.186c.711-.066 1.52-.251 2.429-.61l.061-.85z" fill="#BA5F50"/><path d="M287.977 100.002l.179-.926h1.014l.111.903-1.304.023z" fill="#D17462"/><path d="M289.609 100.876h-1.856v.492h1.858l-.002-.492z" fill="#CECECE"/><path d="M288.635 99.331s-.477-.002-.442.298c0 0-.439-.051-.439 1.212l1.858.027s-.037-1.222-.51-1.222c0 0 .072-.315-.467-.315z" fill="#E5E5E5"/><path d="M288.296 99.588v.763l-.218.008v-.609s.109-.131.218-.162zM288.948 99.586v.763l.218.008v-.608s-.053-.132-.218-.163z" fill="#CECECE"/><path d="M289.113 99.804c-.436-.196-.928-.002-.932 0l.004-.113c.019-.009.436-.219.928 0v.113z" fill="#F2F2F2"/><path d="M288.181 99.971l.004-.115c.015-.008.381-.214.926-.027v.114a1.367 1.367 0 0 0-.93.028z" fill="#F2F2F2"/><path d="M287.753 100.877s-.082-.937.928-.937.927.937.927.937h-1.855z" fill="#F2F2F2"/><path d="M290.939 77.384s-.839-.683-.341-1.547c.498-.864.707-1.44.341-2.07-.368-.63.393-1.975.525-2.498.131-.522-.708-2.29-.656-3.008.051-.718-.473-2.343-1.891-2.187 0 0-3.071-1.07-3.856 1.342-.788 2.411-.447 3.652 0 4.411.446.757.804 2.204.337 3.117-.469.914-.027 1.815.736 2.261.766.447 3.205.945 4.805.18z" fill="url(#paint1_linear)"/><path d="M290.812 68.179c.004-.45-.187-1.17-.636-1.644-.461.553-1.547 1.179-2.639.878-.973-.267-1.098-.995-1.08-1.432a2.06 2.06 0 0 0-1.244 1.066c1.894 1.438 4.286 1.335 5.599 1.132z" fill="#994A3D"/><path d="M291.484 76.169s-.033 1.383-.002 3.302c.031 1.92.428 1.704-.226 6.234h-.856s-.444-4.625-.109-6.226l-.323-3.026 1.516-.284z" fill="url(#paint2_linear)"/><path d="M290.371 85.576c.163-.344.422-.233.747-.079.325.155.284.476.243.747l-.159.465c-.162.344-.405.327-.73.171-.325-.154-.535-.393-.372-.739l.271-.565z" fill="#BA5F50"/><path d="M290.353 86.382a.19.19 0 0 1 .054.089c.097.362.687.88.911 1.04.078.056.117.167.072.237-.047.07-.146.054-.222-.002-.095-.068-.926-.677-1.076-1.23-.025-.089.027-.17.115-.183a.175.175 0 0 1 .146.05z" fill="#BA5F50"/><path d="M290.514 86.272a.161.161 0 0 1 .061.062c.307.506 1.204.915 1.214.92.088.034.189.131.156.218-.033.086-.185.074-.273.039-.042-.017-1.021-.404-1.389-1.013a.164.164 0 0 1 .058-.228.168.168 0 0 1 .173.002z" fill="#BA5F50"/><path d="M290.882 86.324a.21.21 0 0 1 .053.033c.362.309.905.506.911.508.138.056.2.153.167.229-.023.049-.152.045-.243.02-.024-.006-.627-.18-1.053-.545-.072-.062-.08-.156-.018-.214.045-.047.119-.056.183-.03z" fill="#BA5F50"/><path d="M291.077 86.14c.016.004.035.004.047.016.218.216.749.35.753.35.095.01.15.061.142.15-.008.088-.078.072-.173.061a2.787 2.787 0 0 1-.882-.28c-.084-.043-.117-.141-.072-.22.035-.063.111-.092.185-.078z" fill="#BA5F50"/><path d="M290.291 74.186s.996.477 1.611 2.036c0 0-.771.605-1.855.809-.002.002-.35-1.693.244-2.846z" fill="#86CF87"/><path d="M284.548 75.61s-.434 4.571.144 5.336c0 0 1.272 1.665 4.503 2.422l.263-.792s-2.388-1.611-3.642-2.393l-.13-4.23-1.138-.344z" fill="url(#paint3_linear)"/><path d="M291.152 83.778c.01-.073-.072-.093-.163-.12l.28.043c.066.009.138.015.152-.067.017-.089-.055-.106-.129-.124l.193.025c.066.006.138.008.158-.083.017-.074-.043-.098-.111-.125l-.15-.056c.097.013.185-.016.198-.074.008-.037-.017-.1-.138-.152l-.78-.36-.296-.093.218-.061c.208-.095.148-.22.148-.22-.029-.066-.156-.04-.325-.03l-.565.073c-.227.068-.638.2-.722.493-.087.305-.052.47.131.58 0 0 .346.174.547.248.202.074.453.123.453.123l.699.064c.111.002.194-.02.202-.084z" fill="#D17462"/><path d="M285.279 74.094s-.798.426-1.261 2.063c0 0 1.201.737 1.948.778-.002.002-.272-1.93-.687-2.841z" fill="#86CF87"/><path d="M289.27 80.788l.109-1.314-3.925-.041.169 1.323-.346 1.318s1.502 1.218 4.583-.012c-.154-.543-.496-.815-.59-1.273z" fill="#D17462"/><path d="M289.271 80.741l.105-1.267-3.924-.041.113.893c.563.29 1.902.816 3.706.415z" fill="#BA5F50"/><path d="M285.95 73.954s1.764-.395 3.396 0c0 0-.276 1.802-2.356 1.819-2.081.016-1.04-1.82-1.04-1.82z" fill="#D17462"/><path d="M288.862 73.832s-.386 1.016-1.532.996c-1.098-.02-.819-.996-.819-.996-.683.115-1.23.261-1.23.261l-.131 1.227c-.449.656-.547 1.144-.527 1.539.031.598.115 1.102.115 1.102l.175 2.167c2.32.901 5.079-.068 5.079-.068-.05-2.253.327-3.271.327-3.271v-2.605c-.387-.163-1.08-.299-1.457-.352z" fill="#86CF87"/><path d="M287.067 73.214l-.005 1.1 1.348.007.006-1.432a2.041 2.041 0 0 1-1.349.325z" fill="#D17462"/><path d="M288.418 72.89l.004-1.103-1.347-.006-.007 1.434c.231.031.788.041 1.35-.325z" fill="#BA5F50"/><path d="M289.343 70.212s.387 2.414-.138 3.397c-.524.984-.689 1.193-.551 1.716.136.523.446 1.191-.391 1.84 0 0 1.563-.258 1.218-1.84 0 0 1.302-1.428 1.164-5.214l-1.302.101zM284.989 71.08s-.183 1.457.39 2.55c.574 1.092-.392 1.357-.209 2.222.183.864-.227 1.203-.527 1.32 0 0 .971.14 1.168-1.03 0 0 .033-.597.183-.762.151-.164.803-1.368.36-2.386-.442-1.019 0-1.916 0-1.916h-1.365v.002z" fill="#7C3425"/><path d="M289.73 69.654l-.039.012s-.122.58-.43-.677c-.204-1.314-1.707-1.753-1.707-1.753-2.397.037-2.487 1.16-2.314 2.134.069.356.158.928.131 1.42-.068 1.228.967 2.026 1.886 2.024 1.765-.002 2.226-1.452 2.226-1.452s.81.022.917-1.08c.087-.902-.67-.628-.67-.628z" fill="#D17462"/><path d="M287.538 67.412s1.081.309 1.655 1.292c-.355-1.092-1.637-1.467-1.637-1.467-1.456.023-2.061.447-2.273.996.284-.37.903-.773 2.255-.82z" fill="#BA5F50"/><g opacity=".9"><path opacity=".091" d="M286.194 70.218a.745.745 0 0 1 .595.872.745.745 0 0 1-.872.595.745.745 0 0 1-.595-.873.745.745 0 0 1 .872-.594z" fill="#E8725F"/><path opacity=".182" d="M286.18 70.287a.675.675 0 1 1-.251 1.326.675.675 0 0 1 .251-1.326z" fill="#E5705E"/><path opacity=".273" d="M286.167 70.358a.605.605 0 1 1-.226 1.188.605.605 0 0 1 .226-1.188z" fill="#E36E5D"/><path opacity=".364" d="M286.153 70.43a.533.533 0 0 1-.198 1.046.533.533 0 0 1 .198-1.045z" fill="#E16C5C"/><path opacity=".455" d="M286.141 70.5a.46.46 0 1 1-.173.903.46.46 0 0 1 .173-.904z" fill="#DF6A5B"/><path opacity=".545" d="M286.126 70.57a.388.388 0 0 1-.144.76.388.388 0 0 1 .144-.76z" fill="#DC6759"/><path opacity=".636" d="M286.113 70.64a.315.315 0 1 1-.117.62.315.315 0 0 1 .117-.62z" fill="#DA6558"/><path opacity=".727" d="M286.099 70.711a.243.243 0 1 1-.092.478.243.243 0 0 1 .092-.478z" fill="#D86357"/><path opacity=".818" d="M286.087 70.782a.17.17 0 0 1 .136.2.171.171 0 1 1-.136-.2z" fill="#D66156"/><path opacity=".909" d="M286.073 70.852a.1.1 0 0 1 .078.118.098.098 0 0 1-.115.078.102.102 0 0 1-.081-.115.102.102 0 0 1 .118-.08z" fill="#D35F55"/><path opacity=".9" d="M286.082 70.957c-.002.014-.017.025-.034.023-.014-.002-.025-.017-.023-.034.002-.014.017-.025.034-.023.016.004.027.019.023.034z" fill="#D15D54"/></g><g opacity=".9"><path opacity=".091" d="M288.564 70.162a.8.8 0 1 1-.3 1.573.8.8 0 0 1 .3-1.573z" fill="#E8725F"/><path opacity=".182" d="M288.549 70.24a.723.723 0 1 1-.269 1.42.723.723 0 0 1 .269-1.42z" fill="#E5705E"/><path opacity=".273" d="M288.535 70.314a.647.647 0 1 1-.755.514.648.648 0 0 1 .755-.514z" fill="#E36E5D"/><path opacity=".364" d="M288.521 70.39a.567.567 0 0 1 .452.665.567.567 0 1 1-1.116-.212.568.568 0 0 1 .664-.452z" fill="#E16C5C"/><path opacity=".455" d="M288.506 70.467a.49.49 0 1 1-.182.964.49.49 0 0 1 .182-.964z" fill="#DF6A5B"/><path opacity=".545" d="M288.491 70.543a.416.416 0 0 1-.154.816.415.415 0 1 1 .154-.817z" fill="#DC6759"/><path opacity=".636" d="M288.477 70.617a.338.338 0 1 1-.127.664.338.338 0 0 1 .127-.664z" fill="#DA6558"/><path opacity=".727" d="M288.462 70.692a.26.26 0 0 1 .208.305.26.26 0 1 1-.512-.097.26.26 0 0 1 .304-.208z" fill="#D86357"/><path opacity=".818" d="M288.448 70.769a.185.185 0 0 1 .146.214.185.185 0 0 1-.214.146.184.184 0 0 1 .068-.36z" fill="#D66156"/><path opacity=".909" d="M288.434 70.846c.058.01.097.066.085.125a.106.106 0 0 1-.124.085.105.105 0 0 1-.085-.124.106.106 0 0 1 .124-.087z" fill="#D35F55"/><path opacity=".9" d="M288.445 70.955c-.002.016-.019.027-.036.023-.017-.002-.027-.02-.023-.036.002-.017.019-.027.036-.023a.034.034 0 0 1 .023.036z" fill="#D15D54"/></g><path d="M287.24 71.09c-.307.14-.5.067-.539-.139-.027-.133.051-.288.135-.362.173-.152.249-.6.251-.605.015.095-.006.47-.216.73a.228.228 0 0 0-.057.176c.008.152.156.271.426.2z" fill="#BA5F50"/><path d="M286.128 69.727s-.269.009-.308-.092c0 0-.031.142.131.187a.403.403 0 0 0-.08.257c.002.192.124.346.268.344.143-.002.259-.16.257-.352-.004-.191-.124-.346-.268-.344zM288.144 69.696s-.27.008-.309-.093c0 0-.033.143.132.188a.397.397 0 0 0-.08.257c.002.191.123.346.267.343.144-.002.259-.16.257-.351-.004-.194-.123-.346-.267-.344z" fill="#68413A"/><path d="M289.328 71.055s-.111.773-1.323 1.292c-1.067.456-2.108-.251-2.34-.426.362.563 1.001.895 1.594.895 1.764-.002 2.225-1.453 2.225-1.453s.514.015.778-.537c-.457.34-.934.229-.934.229z" fill="#BA5F50"/><path d="M286.636 69.188s-.432-.118-1.025.055c0 0-.004-.043.107-.14.105-.088.494-.185.829-.05 0 .003.175.096.089.135zM287.578 69.163s.432-.125 1.026.038c0 0 .002-.044-.111-.138-.107-.087-.498-.177-.829-.033 0 0-.172.096-.086.133z" fill="#7C3425"/><path d="M287.877 71.372s-.685.15-1.327.02c0 0 .122.587.673.577.518-.008.65-.484.654-.597z" fill="#B22828"/><path d="M287.205 71.665c-.424.006-.549-.167-.605-.262.498.091.897.025 1.245-.022-.035.105-.241.278-.64.284z" fill="#fff"/><path d="M289.977 82.01c-3.406.447-4.848 0-4.848 0s-.715 2.157-1.353 4.445c.582.302 1.689.679 3.023.755.124-.368.225-.72.286-.876l.447-.009s.029.32.064.887a17.726 17.726 0 0 0 2.873-.333c-.01-1.916.082-3.53-.492-4.868z" fill="#7D9CC9"/><path d="M287.406 83.163c-1.51 0-2.45-.264-2.464-.268a.055.055 0 0 1-.037-.068.055.055 0 0 1 .068-.037c.02.006 2.11.589 5.076-.002a.053.053 0 0 1 .064.044.054.054 0 0 1-.043.063 13.513 13.513 0 0 1-2.664.268z" fill="#9EB9D8"/><path d="M287.326 85.53h-.002a.54.54 0 0 1-.403-.176c-.167-.185-.226-.514-.194-1.066.029-.485.101-1.96.101-1.975a.053.053 0 0 1 .058-.051.053.053 0 0 1 .051.058c0 .014-.074 1.49-.101 1.977-.028.512.023.827.167.985a.452.452 0 0 0 .329.14.054.054 0 0 1 .052.058.06.06 0 0 1-.058.05zM287.462 86.195s-.002 0 0 0a.055.055 0 0 1-.056-.053c.048-1.519.111-3.796.111-3.819 0-.03.027-.053.056-.053.031 0 .053.026.053.055 0 .023-.063 2.3-.111 3.819 0 .03-.024.051-.053.051zM290.23 84.069c-1.109 0-1.249-1.052-1.251-1.062-.004-.027.016-.05.043-.053.029-.004.052.016.056.045.004.039.131.977 1.15.98.026 0 .049.018.049.044.002.027-.021.046-.047.046zM284.635 83.943a.053.053 0 0 1-.051-.045.05.05 0 0 1 .045-.058c1.053-.121 1.121-.757 1.123-.784a.053.053 0 0 1 .056-.047.05.05 0 0 1 .047.055c-.002.031-.072.747-1.213.879h-.007z" fill="#9EB9D8"/><path d="M290.057 85.885a.308.308 0 0 1-.273.341l-1.175.132a.31.31 0 0 1-.341-.274l-.035-.306a.308.308 0 0 1 .273-.342l1.175-.131a.307.307 0 0 1 .341.273l.035.307zM286.318 86.097a.22.22 0 0 1-.257.173l-1.446-.284a.218.218 0 0 1-.173-.258.22.22 0 0 1 .257-.172l1.446.284c.119.024.195.14.173.257zM283.704 86.145s1.086.624 3.249.906l-.1.481s-2.111-.109-3.275-.9l.126-.487zM287.457 87.055s1 .061 3.182-.363v.505s-1.36.475-3.135.337l-.047-.48z" fill="#CAE0EF"/><path d="M288.859 82.182l-.272.029.105.976.272-.03-.105-.975zM285.914 82.182l-.142.971.271.04.142-.971-.271-.04z" fill="#6888AF"/><path d="M287.243 82.939a.225.225 0 1 0 0-.45.225.225 0 0 0 0 .45z" fill="#CAE0EF"/><path d="M256.861 99.477c.042 2.851.198 6.604.749 9.31.196.957.13.992 1.555.985 1.516-.008 7.065.031 8.503.027 2.839-.01 3.538-.008 4.752-.44 1.308-.467 2.266-.918 3.558-1.383 1.269-.457 2.9-.341 4.336-.35 3.042-.016 9.566.153 14.593.128 5.027-.027 11.55-.261 14.592-.276 1.436-.008 3.067-.14 4.34.305 1.298.452 2.258.893 3.573 1.345 1.217.42 1.917.412 4.755.393 1.438-.01 6.987-.105 8.503-.113 1.426-.008 1.36-.043 1.545-1 .524-2.711.642-6.464.654-9.316.012-2.954-.627-10.145-.749-11.544-.189-2.188-.946-2.772-1.742-3.747-.909-1.113-1.283-1.889-2.022-2.844-.67-.864-1.324-1.452-2.044-2.23-.358-.387-.568-.938-.667-1.459-.154-.802-1.82-4.559-3.478-7.577-1.181-2.146-2.83-4.4-3.645-5.26-1.345-1.419-2.299-1.678-3.581-1.818-6.236-.68-12.779-.917-20.266-.878-7.487.039-14.026.341-20.256 1.086-1.279.152-2.232.422-3.563 1.854-.806.868-2.433 3.137-3.591 5.296-1.627 3.034-3.256 6.81-3.402 7.612-.095.52-.298 1.074-.652 1.465-.71.786-1.36 1.38-2.02 2.251-.73.96-1.096 1.74-1.993 2.864-.786.984-1.536 1.576-1.703 3.765-.111 1.397-.679 8.596-.634 11.549zm9.335-23.698c.565-1.54 1.349-3.685 2.281-5.539a33.295 33.295 0 0 1 3.005-4.86c.652-.864.866-.944 2.05-1.072 4.526-.487 14.707-.913 21.149-.946 6.44-.033 16.626.288 21.157.73 1.185.116 1.401.194 2.061 1.052a33.264 33.264 0 0 1 3.055 4.829c.95 1.845 1.754 3.98 2.336 5.516.194.51.265 1.1-.45 1.078-1.417-.045-11.212-.42-14.156-.517-3.26-.107-10.827-.185-13.939-.168-3.114.016-10.677.17-13.937.31-2.942.128-12.735.601-14.15.66-.718.032-.652-.559-.462-1.073z" fill="#14AFEB"/><path d="M332.441 106.525l-9.696.05.047 9.326a1.469 1.469 0 0 0 1.475 1.461l6.761-.035a1.468 1.468 0 0 0 1.461-1.475l-.048-9.327zM257.361 106.911l9.696-.05.047 9.327a1.467 1.467 0 0 1-1.46 1.475l-6.761.035a1.468 1.468 0 0 1-1.475-1.461l-.047-9.326z" fill="#192D4B"/><path d="M332.445 106.526l-75.08.384.023 4.362 75.079-.384-.022-4.362z" fill="#192D4B"/><path d="M324.742 78.024c.095.323.288.374.683.325 2.752-.332 5.523-.809 7.705-1.225.411-.078.693-.088.942-.454.368-.543.73-1.097.695-1.726-.035-.616-.997-1.449-1.532-1.696-1.401-.648-2.894-.907-4.497-1.04a8.005 8.005 0 0 0-1.439.001c-.424.043-.529.33-.626.722-.22.898-.321 1.82-.366 2.743-.483-.006-1.964-.105-1.915.455.041.584.192 1.345.35 1.895zM265.103 76.433c.041-.561-1.437-.446-1.921-.436-.055-.922-.164-1.843-.395-2.738-.101-.391-.208-.677-.631-.716a8.216 8.216 0 0 0-1.44.012c-1.602.15-3.094.426-4.486 1.088-.531.253-1.487 1.095-1.516 1.71-.029.63.339 1.18.712 1.72.251.364.534.37.946.445 2.184.393 4.961.841 7.715 1.146.397.043.59-.009.679-.334.156-.551.298-1.312.337-1.897z" fill="#14AFEB"/><path d="M257.832 103.67c.442-1.178.775-2.3 1.218-3.483.339-.911.989-2.312 1.433-3.193.59-1.169 2.104-1.082 3.289-1.072 1.3.012 4.573.142 5.856.167 1.177.02 2.639-.031 3.04-1.523l22.169-.113 22.169-.113c.417 1.487 1.88 1.524 3.056 1.492 1.284-.037 4.554-.2 5.854-.227 1.185-.022 2.699-.123 3.3 1.04.454.876 1.116 2.269 1.466 3.178.455 1.177.798 2.296 1.253 3.471.179.465.45.716.765.967-.099 1.475-.253 2.92-.492 4.148-.185.957-.119.992-1.544 1-1.516.008-7.066.105-8.504.113-2.838.02-3.535.029-4.755-.393-1.312-.453-2.275-.895-3.573-1.348-1.273-.442-2.904-.312-4.34-.304-3.042.016-9.564.251-14.591.278-5.027.024-11.552-.144-14.594-.128-1.435.008-3.069-.107-4.336.35-1.291.465-2.25.917-3.558 1.382-1.214.432-1.913.432-4.751.441-1.438.006-6.988-.035-8.503-.027-1.426.008-1.36-.029-1.555-.984-.251-1.226-.42-2.668-.533-4.141.319-.255.586-.51.761-.978z" fill="#0082C8"/><path d="M263.285 104.091c.084-.267 11.562 1.494 31.61 1.391 20.048-.103 31.507-1.982 31.593-1.716.241.736-10.753 3.205-31.585 3.312-20.832.107-31.853-2.25-31.618-2.987z" fill="#14AFEB"/><path d="M272.234 93.884c.271-1.02 1.491-1.75 2.421-2.377.71-.48 1.491-.975 2.256-1.424.233-.135.743-.452 1.123-.52.445-.078 1.22.004 1.654.016a405.047 405.047 0 0 0 10.177.165c.887.004 3.431-.01 4.949-.019 1.52-.008 4.063-.02 4.949-.032a403.606 403.606 0 0 0 10.175-.27c.432-.017 1.208-.107 1.652-.033.381.064.895.377 1.127.508.77.44 1.557.928 2.271 1.401.936.62 2.164 1.336 2.446 2.352.302 1.093-.65 2.442-1.208 3.282-1.721 2.6-3.317 5.113-5.42 7.335-.888.938-2.139.928-3.332.977-1.62.068-8.55.206-12.584.237-4.033.01-10.963-.058-12.586-.107-1.193-.037-2.443-.013-3.342-.943-2.125-2.199-3.746-4.697-5.494-7.28-.559-.834-1.526-2.174-1.234-3.268z" fill="#0082C8"/><path d="M285.519 102.179l18.716-.097a1.072 1.072 0 0 0 1.065-1.076l-.026-5.232a1.072 1.072 0 0 0-1.076-1.066l-18.716.097a1.072 1.072 0 0 0-1.065 1.076l.027 5.232c.004.59.485 1.068 1.075 1.066z" fill="#14AFEB"/><path d="M286.363 100.004v-2.858h1.758v.344h-1.318v.955h1v.331h-1v1.228h-.44zM289.569 98.809c-.041.004-.086.004-.133.004h-.404v1.191h-.44v-2.858h.846c.631 0 1.02.254 1.02.813 0 .391-.171.642-.469.763l.617 1.147v.133h-.403l-.634-1.193zm-.539-.323h.391c.387 0 .584-.138.584-.502 0-.356-.207-.498-.584-.498h-.391v1zM291.087 97.147h1.75v.343h-1.31v.891h.959v.327h-.959v.963h1.356v.335h-1.796v-2.86zM293.356 97.147h1.75v.343h-1.31v.891h.959v.327h-.959v.963h1.356v.335h-1.796v-2.86zM295.442 97.282v-.135h.42l.51 2.24h.008l.563-2.24h.391l.56 2.24h.008l.51-2.24h.378v.135l-.672 2.722h-.469l-.523-2.154h-.008l-.535 2.154h-.469l-.672-2.722zM298.866 99.868l.942-2.721h.473l.938 2.721v.134h-.419l-.266-.8h-1.049l-.257.8h-.364v-.133h.002zm.726-.991h.833l-.411-1.261h-.008l-.414 1.26zM302.065 100.004v-1.142l-.873-1.572v-.142h.404l.701 1.295h.004l.685-1.295h.356v.142l-.837 1.56v1.154h-.44zM294.862 89.088a2.254 2.254 0 1 0 0-4.509 2.254 2.254 0 0 0 0 4.51z" fill="#fff"/><path d="M294.861 88.94a2.105 2.105 0 1 0 0-4.21 2.105 2.105 0 0 0 0 4.21z" fill="#fff"/><path d="M292.805 87.271c.074.35.234.667.456.928a3.367 3.367 0 0 1 3.283-2.627 1.882 1.882 0 0 0-.101-.122 3.36 3.36 0 0 0-3.638 1.82z" fill="#0046B4"/><path d="M293.917 88.715a2.104 2.104 0 0 0 2.746-2.967 3.367 3.367 0 0 0-2.746 2.967zM295.405 85.151c.296 0 .582.04.855.11a2.103 2.103 0 0 0-3.447 1.109 3.363 3.363 0 0 1 2.592-1.219z" fill="#46B400"/><path d="M275.108 89.026c-.093-.237-1.315-.564-2.156-.8a234.302 234.302 0 0 1-5.749-1.704c-1.362-.432-2.91-.985-4.198-1.613-.592-.288-.961-.49-1.635-.342a8.266 8.266 0 0 0-1.726.583c-.288.13-.662.347-.849.584-.171.216-.276.66-.344.918a9.14 9.14 0 0 0-.317 1.987c-.043.978.393 1.694 1.321 2.084 1.217.515 2.719.69 4.017.893 1.413.223 2.838.352 4.268.391.781.02 1.528.025 2.279-.22.679-.222 1.216-.492 1.859-.8.677-.325 1.35-.727 2.01-1.045.22-.107 1.357-.566 1.22-.916z" fill="#BAE2EE"/><path d="M262.45 90.067a1.798 1.798 0 1 0-.002-3.596 1.798 1.798 0 0 0 .002 3.596zM268.642 90.406a1.71 1.71 0 1 0-2.418-2.421 1.71 1.71 0 0 0 2.418 2.42z" fill="#fff"/><path d="M258.696 89.096c.025.294.348.761.593.907.824.488 2.225.796 3.173.978 1.572.298 3.141.448 4.737.557.603.041 1.891.054 1.96-.105.042-.092-.633-.121-1.392-.191-1.469-.136-2.97-.323-4.416-.617-.895-.183-2.333-.58-3.188-1.033-.44-.233-.677-.535-.685-.891a6.428 6.428 0 0 1 .333-2.216c.187-.527 1.063-1.134.852-1.127-.27.008-.823.364-1.212.648-.15.11-.292.302-.337.425-.233.647-.496 1.69-.418 2.665z" fill="#fff"/><path d="M315.741 89.725c.662.311 1.341.706 2.02 1.025.646.302 1.187.566 1.868.782.754.237 1.499.226 2.281.197a33.28 33.28 0 0 0 4.264-.434c1.295-.218 2.797-.407 4.008-.934.924-.401 1.354-1.121 1.298-2.099a9.175 9.175 0 0 0-.337-1.983c-.07-.257-.179-.7-.352-.913-.189-.233-.565-.449-.855-.574a8.273 8.273 0 0 0-1.732-.566c-.677-.14-1.043.064-1.634.36-1.281.64-2.824 1.21-4.179 1.656a236.297 236.297 0 0 1-5.731 1.763c-.839.245-2.054.585-2.147.821-.136.35 1.008.797 1.228.9z" fill="#BAE2EE"/><path d="M327.162 89.735a1.798 1.798 0 1 0 0-3.596 1.798 1.798 0 0 0 0 3.596zM323.396 90.126a1.71 1.71 0 1 0-2.418-2.42 1.71 1.71 0 0 0 2.418 2.42z" fill="#fff"/><path d="M330.476 86.067a1.079 1.079 0 0 0-.341-.423c-.391-.28-.949-.63-1.218-.636-.212-.004.671.592.864 1.12.234.635.364 1.425.356 2.21-.004.357-.237.661-.675.898-.849.46-2.283.874-3.178 1.066-1.442.308-2.943.51-4.41.662-.757.078-1.433.113-1.39.206.072.156 1.359.132 1.96.084 1.594-.125 3.164-.294 4.731-.607.946-.189 2.345-.512 3.163-1.008.245-.148.564-.62.584-.911.07-.978-.205-2.019-.446-2.66z" fill="#fff"/><path d="M280.805 76.193c3.261-.14 10.826-.294 13.938-.31 3.114-.017 10.679.06 13.939.168.379.012.872.029 1.444.05l.954 4.18c-3.969.343-9.319.627-16.529.77-7.205-.142-12.551-.427-16.518-.768l1.141-4.016c.654-.031 1.212-.056 1.631-.074z" fill="#5AC8F5"/><path opacity=".3" d="M313.999 62.51l4.939 13.1 1.261 3.344c-1.333.354-3.444.749-6.782 1.105l-1.043-4.44-3.178-13.508c1.629.107 3.228.241 4.803.4zM279.873 62.282l-3.137 13.337-1.042 4.44c-3.337-.356-5.447-.75-6.782-1.103l1.261-3.346 4.85-12.863c1.594-.183 3.207-.337 4.85-.465z" fill="#fff"/></g><defs><linearGradient id="paint0_linear" x1="312.618" y1="64.645" x2="312.658" y2="69.1" gradientUnits="userSpaceOnUse"><stop stop-color="#7C3425"/><stop offset="1" stop-color="#60261D"/></linearGradient><linearGradient id="paint1_linear" x1="287.998" y1="71.244" x2="288.89" y2="76.913" gradientUnits="userSpaceOnUse"><stop stop-color="#7C3425"/><stop offset="1" stop-color="#60261D"/></linearGradient><linearGradient id="paint2_linear" x1="290.81" y1="78.66" x2="290.946" y2="82.147" gradientUnits="userSpaceOnUse"><stop stop-color="#D17462"/><stop offset="1" stop-color="#BA5F50"/></linearGradient><linearGradient id="paint3_linear" x1="289.613" y1="80.822" x2="287.294" y2="79.731" gradientUnits="userSpaceOnUse"><stop stop-color="#D17462"/><stop offset="1" stop-color="#BA5F50"/></linearGradient></defs></svg>