<svg width="375" height="150" fill="none" xmlns="http://www.w3.org/2000/svg" viewBox="0 0 375 150"><path d="M377 0H0v150h377V0z" fill="#F5FCFF"/><path d="M81.82 81.4v-2.8h4.7v-1.68h3.14v-.9h5.49v.9h8.63v1.68h16.31v2.8h4.4v30.57H76.17V81.4h5.65z" fill="url(#paint0_linear)"/><path d="M289.37 111.97V111h-.82v-.35h.82v-1.01h-.82v-.35h.82v-1.02h-.82v-.34h.82v-1.02h-.82v-.34h.82v-1.02h-.82v-.34h.82v-1.02h-.82v-.34h.82v-1.02h-.82v-.35h.82v-1.01h-.82v-.35h.82v-1.01h-.82v-.35h.82v-1.01h-.82v-.35h.82v-1.01h-.82v-.35h.82v-1.01h-.82v-.35h.82v-1.02h-.82v-.34h.82V93.3h-.82v-.34h.82v-1.02h-.82v-.34h.82v-1.02h-.82v-.34h.82v-1.02h-.82v-.35h.82v-1.01h-.82v-.35h.82V86.5h-.82v-.35h.82v-1.01h-.82v-.35h.82v-1.01h-.82v-.35h.82v-1.01h-.82v-.35h.82v-1.02h-.82v-.34h.82v-1.02h-.82v-.34h.82v-1.02h-.82v-.34h.82v-1.02h-.82v-.34h.82v-1.02h-.82v-.35h.82v-1.01h-.82v-.35h.82v-1.01h-.82v-.35h.82v-1.01h-.82v-.35h.82v-1.01h-.82v-.35h.82v-1.01h-.82v-.35h.82v-1.02h-.82v-.34h.82v-1.02h-.82v-.34h.82v-1.02h-.82v-.34h.82v-1.02h-.82v-.34h.82V62h-.82v-.95h-1.02v-4.63h-2.09v-4.25h-.7v4.25h-4.94l-8.75 3.04v2.1h-1.08v5.89h-1.08v3.68h-.76v40.84h21.24zM238.54 57.12v-4.35h-3.47v4.35h-.82v-4.35h-3.47v4.35h-3.98v54.85h15.72V57.12h-3.98zM156.04 111.97v-28.8l-3.9-1.76v-5.24l-3.21-1.44h.07v-5.77h-5.52v.93h-3.13v-.93h-2.89v43.01h18.58z" fill="#D7EFFA"/><path d="M210.97 61.72v-2.4h-3.57v-2.24h-5.78v2.24h-3.57v2.4h-3.76v50.25h20.44V61.72h-3.76z" fill="#97D0E8"/><path d="M50.35 111.97V71.49h-8.18v1.59h-6.06v-2.23h-7.58v-1.26h-6.37v3.81H15.8v2.77H5.49v35.8h44.86z" fill="#D7EFFA"/><path d="M202.31 111.97h-27.7V46.52l27.7 4.52v60.93zM2.55 89.34V88.1h-.66v-1.85h-4.48v-1.24h.7v-1.24h-.7v-2.72h.7v-1.24h-.7v-2.72h.7v-1.23h-.7v-2.73h.7V71.9h-.7v-1.98h-.89v-4.45h-1.71v-3.22h-13.96v7.67h-2.06v1.98h-.69v1.23h.69v2.73h-.69v1.23h.69v2.72h-.69v1.24h.69v2.72h-.69v1.24h.69v1.24h-1.72v1.85h-.66v1.24h.66v2.77h-.66v1.24h.66v2.77h-.66v1.23h.66v2.77h-.66v1.24h.66v2.77h-.66v1.24h.66v2.77h-.66v1.24h.66v2.59H1.89v-2.59h.66v-1.24h-.66v-2.77h.66v-1.24h-.66v-2.77h.66v-1.24h-.66v-2.77h.66v-1.23h-.66v-2.77h.66v-1.24h-.66v-2.77h.66zM284.99 88.43v-1.36h.77v-4.02h2.25v-5.78h5.79v-6.26h13.45v6.26h.71v6.81h3.41v27.89h-25.61v-1.49h-.77v-1.36h.77v-3.05h-.77v-1.36h.77v-3.05h-.77v-1.36h.77v-3.05h-.77v-1.36h.77v-3.05h-.77v-1.36h.77v-3.05h-.77z" fill="#97D0E8"/><path d="M69.96 70.78v-10.6h-2.42V54.7h-3.29v1.05h-.52V54.7h-3.29v5.48H57.9v10.6h-1.27v41.19h14.43V70.78h-1.1zM374.93 41.51h-38.91l-.65 5.83h-1.09v64.63h41.92V47.34h-1.27v-5.83z" fill="#D7EFFA"/><path d="M359.19 62.56v.64h-1.06v-1.55h1.13l-5.07-11.17h-.25v-2.97h-.5v2.97h-3.79v-2.97h-.51v2.97h-3.78v-2.97h-.51v2.97h-3.79v-2.97h-.51v2.97h-3.78v-2.97h-.51v2.97h-3.79v-2.97h-.5v2.97h-3.79v-2.97h-.51v2.97h-3.79v-2.97h-.5v2.97h-.2l-5.07 11.17h1.13v1.55h-1.06v-.64h-.89v49.41h42.79V62.56h-.89zM21.97 57.49v-1.71h-7.35v1.71l-.36.03v54.45h17.09V65.58l-9.38-8.09z" fill="#97D0E8"/><path d="M59.94 66.88v-.52h-.34v-.87h-1.57v-5.85h-1.56v-3.82h-5.51v.98h-2.03v2.84h-4.98v5.85h-3.19v46.48H59.94v-.52h-.34v-.76h.34v-.53h-.34v-.76h.34v-.52h-.34v-.77h.34v-.52h-.34v-.77h.34v-.52h-.34v-.77h.34v-.52h-.34v-.77h.34v-.52h-.34v-.76h.34v-.53h-.34v-.76h.34v-.52h-.34v-.77h.34v-.52h-.34v-.77h.34v-.52h-.34v-.77h.34v-.52h-.34v-.76h.34v-.53h-.34v-.76h.34v-.52h-.34v-.77h.34v-.52h-.34v-.77h.34v-.52h-.34v-.77h.34v-.52h-.34v-.77h.34v-.52h-.34v-.76h.34v-.53h-.34v-.76h.34v-.52h-.34v-.77h.34v-.52h-.34v-.77h.34v-.52h-.34v-.77h.34v-.52h-.34v-.77h.34v-.52h-.34v-.76h.34v-.53h-.34v-.76h.34v-.52h-.34v-.77h.34v-.52h-.34v-.77h.34v-.52h-.34v-.77h.34v-.52h-.34v-.77h.34v-.52h-.34v-.76h.34v-.53h-.34v-.76h.34v-.52h-.34v-.77h.34v-.52h-.34v-.77h.34v-.52h-.34v-.77h.34v-.52h-.34v-.77h.34zM87.36 66.88v-.52h-.34v-.87h-1.57v-5.85h-1.56v-3.82h-5.51v.98h-2.03v2.84h-4.98v5.85h-3.19v46.48H87.36v-.52h-.34v-.76h.34v-.53h-.34v-.76h.34v-.52h-.34v-.77h.34v-.52h-.34v-.77h.34v-.52h-.34v-.77h.34v-.52h-.34v-.77h.34v-.52h-.34v-.76h.34v-.53h-.34v-.76h.34v-.52h-.34v-.77h.34v-.52h-.34v-.77h.34v-.52h-.34v-.77h.34v-.52h-.34v-.76h.34v-.53h-.34v-.76h.34v-.52h-.34v-.77h.34v-.52h-.34v-.77h.34v-.52h-.34v-.77h.34v-.52h-.34v-.77h.34v-.52h-.34v-.76h.34v-.53h-.34v-.76h.34v-.52h-.34v-.77h.34v-.52h-.34v-.77h.34v-.52h-.34v-.77h.34v-.52h-.34v-.77h.34v-.52h-.34v-.76h.34v-.53h-.34v-.76h.34v-.52h-.34v-.77h.34v-.52h-.34v-.77h.34v-.52h-.34v-.77h.34v-.52h-.34v-.77h.34v-.52h-.34v-.76h.34v-.53h-.34v-.76h.34v-.52h-.34v-.77h.34v-.52h-.34v-.77h.34v-.52h-.34v-.77h.34v-.52h-.34v-.77h.34z" fill="#0A7BC0"/><path d="M240.33 109.42v-2.15h-1.65v-2.16h-1.65v-2.15h-.74V75.87h-7.53v-1.61h-13.27v1.61h-.76v36.1H241.98v-2.55h-1.65z" fill="#97D0E8"/><path d="M267.14 88.43v-14.1h-1.7v-1.16h-.91v-1.39h-1.74l-.51-.72-.5.72h-.7l.03-.05L258.1 70l-3 1.73.03.05h-.73l-.5-.72-.5.72h-1.72v1.39h-.91v3.12h-5.42v12.14h-3.72v23.54h28.24V88.43h-2.73zM9.67 57.02V51H7.52v-5.23H5.86v-.78H3.1v.78h-6.76V51h-.68v-1.03h-1.78V57.02h-2.03v54.95h18.19V57.02h-.37z" fill="#97D0E8"/><path d="M311.41 57.42v.05c-1.45.22-3.76 1.18-6.17 2.67-3.05 1.88-5.29 3.99-5.6 5.17h-.36v46.67h20.1V57.42h-7.97zM212.36 70.91c-.08-1.4-.46-2.67-1.06-3.65-.34-.55-.75-1.01-1.23-1.34-.47-.33-1.02-.52-1.6-.52-.58 0-1.12.19-1.6.52-.71.49-1.28 1.28-1.68 2.24-.33.81-.55 1.75-.61 2.75h-4.94v41.07h17.65V70.91h-4.93zm-5.95-3.18c.29-.47.62-.83.97-1.08.35-.24.72-.36 1.09-.36.38 0 .74.12 1.09.36.53.36 1.02 1.01 1.36 1.85.29.69.48 1.52.54 2.41h-.3c-.27-2.01-1.37-3.52-2.69-3.52-1.32 0-2.42 1.51-2.69 3.52h-.3c.08-1.25.43-2.37.93-3.18zM135.72 62.96l-.14 1.27-8.43-6.72-8.43 6.72-.14-1.27-1.84 5.02v43.99h20.82V67.98l-1.84-5.02zM177.36 63.29v-1.83h-1.27v-1.83h-1.27V57.8h-1.27v-1.83h-4.18v-.87h-8.93v-9.39c.46-.23 1.22-.4 1.68-.41.51-.01.99.18 1.46.34.58.2 1.22.27 1.85.24.02 0 .57-.05.74-.08.04-.01.05-.06.04-.09-.41-.86-.79-1.75-.23-2.63v-.01c0-.01.01-.01.01-.02.01-.02 0-.04-.02-.06l-.01-.01c-.02-.01-.04-.02-.07 0-.65.37-1.33.59-2.08.58-.62-.01-1.21-.22-1.78-.43-.5-.18-1.14-.37-1.6-.15v-.85h-.57v12.96h-3.23l-2.12 2.16h-.42v54.73h24.52V63.29h-1.25zM23.02 102.08l-2.33-1.35-2.33 1.35-2.89.98V81.31h-.18v-1.15h.12v-.34h-1.12v.34h.12v1.15h-1.37v-.47l-2.92-.98-2.33-1.36-2.33 1.36-2.92.98v.47H-.78v-.47l-2.92-.98-2.33-1.36-2.32 1.36-2.93.98v.47h-1.37v-1.15h.12v-.34h-1.12v.34h.12v1.15h-.18v30.66h39.65v-8.9l-2.92-.99zM367.42 95.69h.57l-6.34-4.71h.72l-6.4-4.03c-1.84-1.29-5.9-2.18-10.62-2.18-4.72 0-8.78.9-10.62 2.18l-6.4 4.03h.72l-6.34 4.71h.57v10.09h.86v6.19h42.42v-6.19h.86V95.69z" fill="#0A7BC0"/><path d="M81.13 111.97h45.7v-9.64h.32V96.8h-1.72v.77h-3.52v-2.08h.02c.08 0 .15-.07.15-.15 0-.08-.07-.15-.15-.15h-.03v-.39h.03c.08 0 .15-.07.15-.15 0-.08-.07-.15-.15-.15h-.03v-.29h.03c.08 0 .15-.07.15-.15 0-.08-.07-.15-.15-.15h-.03v-.2h-.02c.07-.09.11-.2.11-.33 0-.23-.15-.43-.36-.5.06-.04.09-.1.09-.17a.21.21 0 0 0-.11-.18v-.66c0-.09-.07-.15-.15-.15-.08 0-.15.07-.15.15v.66c-.06.04-.11.11-.11.18 0 .07.04.13.09.17-.21.07-.36.27-.36.5 0 .12.04.24.11.33h-.02v.2h-.05c-.58-2.79-3.03-5.02-6.16-5.65.03-.08.05-.17.05-.27 0-.24-.11-.44-.27-.53a.51.51 0 0 0-.26-.28v-2.32c0-.3-.24-.53-.53-.54v-.08c0-.23-.15-.43-.35-.51v-.08c0-.15-.07-.29-.19-.38.08-.08.12-.18.12-.3 0-.14-.07-.26-.17-.34.06-.06.09-.14.09-.24 0-.13-.07-.25-.18-.3v-2.11c0-.09-.07-.17-.17-.17-.09 0-.17.07-.17.17v2.11c-.11.06-.18.17-.18.3 0 .09.04.17.09.24-.1.08-.17.2-.17.34 0 .12.05.22.12.3-.11.09-.19.23-.19.38v.08c-.21.08-.35.28-.35.51v.08c-.29.01-.53.25-.53.54v2.32c-.12.06-.21.16-.26.28-.16.09-.27.3-.27.53 0 .1.02.19.05.27-3 .61-5.36 2.66-6.07 5.28 0-.23-.15-.43-.36-.5.06-.04.09-.1.09-.17a.21.21 0 0 0-.11-.18v-.66c0-.09-.07-.15-.15-.15-.09 0-.15.07-.15.15v.66c-.06.04-.11.11-.11.18 0 .07.04.13.09.17-.1.03-.18.1-.25.18v-6.76c.13-.01.24-.1.24-.21 0-.11-.1-.21-.24-.21V84.6c.13-.01.24-.1.24-.21 0-.12-.12-.22-.26-.22h-.4v-2.45c.13 0 .23-.1.23-.21 0-.12-.1-.21-.23-.21v-2.14h.11c.14 0 .24-.1.24-.22s-.11-.22-.24-.22h-.11V78h.11c.14 0 .24-.1.24-.22s-.11-.22-.24-.22h-.22c0-.19-.16-.34-.35-.34V76.1c.11-.01.2-.13.2-.26 0-.15-.1-.26-.22-.26h-.32v-.13h.07c.07 0 .12-.06.12-.12 0-.07-.06-.12-.12-.12h-.07v-.25h.07c.07 0 .12-.06.12-.12 0-.07-.06-.12-.12-.12h-.07v-.17h-.02a.445.445 0 0 0-.2-.7c.05-.03.08-.09.08-.14 0-.06-.04-.12-.09-.15v-.55c0-.07-.06-.13-.13-.13s-.13.06-.13.13v.55c-.06.03-.09.09-.09.15s.03.11.08.14l-.12.06v-2.3h.1c.17 0 .31-.1.31-.23s-.14-.23-.31-.23h-.34v-.48c.15-.01.26-.11.26-.23 0-.13-.13-.23-.28-.23h-.62v-.46a.23.23 0 0 0 .21-.23.23.23 0 0 0-.21-.23v-1.57a.23.23 0 0 0 .21-.23.23.23 0 0 0-.21-.23v-.31a.23.23 0 0 0 .21-.23c0-.13-.1-.23-.23-.23h-.27v-.15c.06-.09.11-.18.13-.28.06-.02.11-.08.11-.15 0-.06-.04-.12-.09-.14-.07-.44-.56-.83-1.26-1.05v-1.5h-.06c.07-.01.13-.07.13-.14 0-.08-.06-.14-.14-.14-.09-.63-.6-1.12-1.25-1.19v-.17c.24-.03.42-.11.42-.21 0-.1-.18-.19-.42-.21v-.23c.21-.02.35-.1.35-.18 0-.09-.15-.16-.35-.18v-2.94c0-.08-.06-.14-.14-.14-.08 0-.14.06-.14.14v2.94c-.21.02-.35.1-.35.18 0 .09.15.16.35.18v.23c-.24.02-.42.11-.42.21 0 .1.18.19.42.21v.17c-.65.06-1.16.56-1.25 1.19-.08 0-.14.07-.14.14s.06.13.13.14h-.06v1.5c-.7.23-1.19.61-1.26 1.05-.06.02-.09.08-.09.14 0 .07.05.13.11.15.03.1.07.19.13.28v.15h-.27c-.13 0-.23.1-.23.23 0 .12.09.22.21.23v.31a.23.23 0 0 0-.21.23c0 .12.09.22.21.23v1.57a.23.23 0 0 0-.21.23c0 .12.09.22.21.23v.46H95c-.16 0-.28.1-.28.23 0 .12.12.23.26.23v.48h-.34c-.17 0-.31.1-.31.23s.14.23.31.23h.1v2.3a.338.338 0 0 0-.12-.06.16.16 0 0 0 .08-.14c0-.06-.04-.12-.09-.15v-.55c0-.07-.06-.13-.13-.13s-.13.06-.13.13v.55c-.05.03-.09.09-.09.15s.03.11.08.14a.442.442 0 0 0-.2.7h-.04v.17h-.07c-.07 0-.12.06-.12.12 0 .07.06.12.12.12h.07v.25h-.07c-.07 0-.12.06-.12.12 0 .07.06.12.12.12h.07v.13h-.32c-.12 0-.22.12-.22.26s.09.25.2.26v1.12c-.19 0-.34.15-.35.34h-.22c-.14 0-.24.1-.24.22s.11.22.24.22h.11v.72h-.11c-.14 0-.24.1-.24.22s.11.22.24.22h.11v2.14c-.13 0-.23.1-.23.21 0 .12.1.21.23.21v2.45h-.4c-.14 0-.26.1-.26.22 0 .11.1.2.24.21v1.43c-.13.01-.24.1-.24.21 0 .11.1.21.24.21v17.85h-.94v-.18c0-.3-.24-.54-.54-.54h-4.53c-.3 0-.54.24-.54.54v.18h-4.05v.77h-1.27l-1.25 1.16h1.38v5.74h-.01zm23.85-18.17l-.03.14v-.06h-.02c.02-.03.04-.05.05-.08z" fill="#0F529C"/><path d="M287.02 94.62l-3.17-3.17-2.5 2.5v-2.6h-.95s-7.68-3.51-10.53-3.51c-2.85 0-10.53 3.51-10.53 3.51h-.95v2.6l-2.5-2.5-3.17 3.17h-.61v17.35h35.5V94.62h-.59z" fill="#0A7BC0"/><path d="M384.28 116.2H-28.29v40.94h412.57V116.2z" fill="#0E9ACB"/><path d="M179.44 96.33v-.46h-1v-3.93h.49v-.36h-.49v-.34h.49v-.36h-.49v-.48h-1.18v-2.7h-.63c-.03-.83-.74-1.88-1.76-2.41V82.4h.07c.06 0 .11-.05.11-.11s-.05-.11-.11-.11h-.08c-.09-.42-.51-.91-1.05-1.03v-.1a.48.48 0 1 0-.5 0v.1c-.54.12-.97.61-1.05 1.03h-.08c-.06 0-.11.05-.11.11s.05.11.11.11h.07v2.89c-1.02.53-1.72 1.58-1.76 2.41h-.63v2.7h-1.18v.48h-.49v.36h.49v.34h-.49v.36h.49v3.93h-1v.46h-.33v.59h.33v1.23l-11.79-4.36-11.79 4.36v-1.23h.33v-.59h-.33v-.46h-1v-3.93h.49v-.36h-.49v-.34h.49v-.36h-.49v-.48h-1.18v-2.7h-.63c-.03-.83-.74-1.88-1.76-2.41V82.4h.07c.06 0 .11-.05.11-.11s-.05-.11-.11-.11h-.08c-.09-.42-.51-.91-1.05-1.03v-.1a.48.48 0 1 0-.5 0v.1c-.54.12-.97.61-1.05 1.03h-.08c-.06 0-.11.05-.11.11s.05.11.11.11h.07v2.89c-1.01.53-1.72 1.58-1.76 2.41h-.63v2.7h-1.18v.48h-.49v.36h.49v.34h-.49v.36h.49v3.93h-1v.46h-.33v.59h.33v15.061h2.61v-3.25h.02c.16-.49 1.56-1.11 3.27-1.11s3.1.62 3.27 1.11h.02v3.25h4.45v-5.26c0-4.91 4.46-8.9 9.96-8.9 5.5 0 9.96 3.98 9.96 8.9v5.26h4.45v-3.25h.02c.16-.49 1.56-1.11 3.27-1.11 1.7 0 3.1.62 3.27 1.11h.02v3.25h2.61v-15.06h.33v-.59h-.43zm-40.91-13.16c.01-.23.1-.53.21-.53.11 0 .2.3.21.53v1.55h-.43v-1.55h.01zm-.58 0c.01-.23.1-.53.21-.53.11 0 .2.3.21.53v1.55h-.43v-1.55h.01zm-.59 0c.01-.23.1-.53.21-.53.11 0 .2.3.21.53v1.55h-.43v-1.55h.01zm2.13 12.71h-2.64v-3.25h.01c.07-.49.63-1.11 1.31-1.11s1.25.62 1.31 1.11h.01v3.25zm34.42-12.71c.01-.23.1-.53.21-.53.11 0 .2.3.21.53v1.55h-.43v-1.55h.01zm-.59 0c.01-.23.1-.53.21-.53.11 0 .2.3.21.53v1.55h-.43v-1.55h.01zm-.58 0c.01-.23.1-.53.21-.53.11 0 .2.3.21.53v1.55h-.43v-1.55h.01zm2.12 12.71h-2.64v-3.25h.01c.07-.49.63-1.11 1.31-1.11.69 0 1.25.62 1.31 1.11h.01v3.25zM21.2 111.97h56.16V98.42l-14.43 2.46.02-12.3h-.54s-.05.09-.13.15c-.27.2-.9.13-1.28.08-.37-.05-2.63-1.73-3-2.44-.37-.7-.57-1.19-1.27-1.19-.69 0-1.01.84-1.2 1.01-.18.17-.47.28-.73.28-.6 0-1.1-.42-1.43-1.28-.24-.62-.74-2.6-3.37-2.62-2.63.02-3.13 2-3.37 2.62-.33.86-.83 1.28-1.43 1.28-.26 0-.55-.11-.73-.28-.18-.17-.5-1.01-1.2-1.01-.69 0-.9.48-1.27 1.19s-2.64 2.39-3 2.44c-.37.05-1.01.12-1.28-.08-.08-.06-.13-.15-.13-.15h-.54v.72c-.29-.17-.48-.54-.71-1.2-.31-.89-.36-2.24-.44-3.71h.12v-.51h-.74c-.41-.16-.82-.53-1.1-1.21-.36-.87-.57-2.18-.66-3.61v-.51h-1.21c-.28-.12-.53-.24-.68-.35-.38-.26-.92-.75-.99-1.36h-.5v-1.57h.89v-.42h-.89v-.89h-.45v.89h-.89v.42h.89v1.57h-.5c-.07.61-.6 1.1-.99 1.36-.15.1-.4.23-.68.35h-1.21v.51c-.1 1.43-.3 2.74-.66 3.61-.28.68-.69 1.05-1.1 1.21h-.74v.51h.12c-.08 1.47-.13 2.81-.44 3.71-.23.66-.42 1.03-.71 1.2h-.33v.51h.17v4.24h-.17v.51h.17v1.82l-1.44 1.32v.52h-.23v.51h.23v13.24h.02zM7.39 102.43L2 96.87h-.1v-1.24h.21v-.35H.55v.35h.21v1.24h-3.52v-2.28c.49-.13.79-.28.79-.46 0-.03-.01-.05-.02-.08.49-.13.77-.28.77-.45 0-.04-.01-.07-.04-.11v-1.87a.15.15 0 0 0 .04-.11c0-.25-.65-.48-1.68-.63v-3.29c-.02-.1-.1-.2-.24-.28-.13-.17-.38-.32-.71-.45v-.06c0-.58-.72-1.07-1.68-1.19v-.65c.06-.09.1-.21.1-.33a.57.57 0 0 0-.42-.55v-2.49h-.31v2.49c-.24.07-.42.29-.42.55 0 .12.04.23.1.33v.65c-.96.12-1.68.61-1.68 1.19v.06c-.33.12-.58.28-.71.45-.16.1-.25.21-.25.32v3.25c-1.03.15-1.68.38-1.68.63 0 .04.01.07.04.11v1.87a.15.15 0 0 0-.04.11c0 .17.28.32.77.45-.01.03-.02.05-.02.08 0 .17.29.33.79.46v2.28h-3.42v-1.42h.21v-.35H-14.03v.35h.21v1.42H-14l-5.39 5.55h.46v9.55H6.93v-9.55h.46v.01zm-9.28-10.97c.16.05.3.1.4.15v1.73c-.11-.05-.24-.1-.4-.15v-1.73zm-.67-.15c.16.03.31.06.44.09v1.73c-.13-.03-.28-.06-.44-.09v-1.73zm-7.55 1.88c-.16.05-.3.1-.4.15v-1.73c.11-.05.24-.1.4-.15v1.73zm.66-.15c-.16.03-.31.06-.44.09V91.4c.13-.03.28-.06.44-.09v1.73zm.9-.13v-1.73c.14-.02.29-.03.44-.04v1.73c-.15.01-.3.03-.44.04zm4.66-.04v-1.73c.15.01.3.03.44.04v1.73c-.14-.01-.29-.03-.44-.04zm1.11-1.6V93l-.44-.06v-1.73l.44.06zm-.81-3.17c.2-.08.36-.16.46-.21v1.3a1.8 1.8 0 0 0-.46-.21v-.88zm0 1.23c.19.06.35.13.46.21v1.33c-.15-.02-.3-.04-.46-.05v-1.49zm-.69-.97c.17-.05.32-.11.46-.17v.72c-.14-.04-.3-.07-.46-.1v-.45zm0 .8c.17.03.32.06.46.1v1.53c-.15-.01-.3-.03-.46-.04v-1.59zm-.78-.59c.19-.04.38-.09.55-.14v.34c-.17-.03-.36-.05-.55-.06v-.14zm0 .49c.19.02.38.04.55.06v1.62l-.55-.03v-1.65zm-2.44-.63c.18.05.36.1.55.14v.14c-.19.02-.38.04-.55.06v-.34zm0 .69c.18-.03.36-.05.55-.06v1.65c-.19.01-.37.01-.55.03v-1.62zm-.69-.93c.14.06.3.11.46.17v.45c-.17.03-.32.06-.46.1v-.72zm0 1.07c.14-.04.3-.07.46-.1v1.59c-.16.01-.31.02-.46.04v-1.53zm-.68-1.37c.11.05.27.13.46.21v.88c-.19.06-.35.13-.46.21v-1.3zm0 1.65c.12-.08.27-.15.46-.21v1.48c-.16.02-.31.03-.46.05v-1.32zm-.35 1.73l.44-.06v1.73l-.44.06v-1.73zM214.21 91.26v1.3h-6.3V89h-5.53l-4.28-3.14-4.29 3.14h-2v1.97h-3.03v.77h-1.73v20.23h39.75V91.26h-12.59zM379.62 104.33a.797.797 0 0 0-.19-.34h-.48c-.08.08-.14.2-.19.34h-3.77a.797.797 0 0 0-.19-.34h-.48c-.08.08-.14.2-.19.34h-3.77a.797.797 0 0 0-.19-.34h-.48c-.08.08-.14.2-.19.34h-3.77a.917.917 0 0 0-.19-.34h-.48c-.08.08-.14.2-.19.34h-3.77a.797.797 0 0 0-.19-.34h-.48c-.08.08-.14.2-.19.34h-2.71c-1.66-1.5-7.18-2.88-13.73-2.88-2.97 0-6.94.19-10.73.53l-.47-1.29h-.73v1.4c-1.56.15-3.07.33-4.44.52l-.7-1.92H326v2.05c-1.6-1.06-2.96-2.34-3.58-2.95v-.75c0-.16-.16-.29-.35-.29-.2 0-.35.13-.35.29v.77c-.43.46-1.21 1.28-2.06 2.12-1.09-.84-1.98-1.68-2.45-2.14v-.75c0-.16-.16-.29-.35-.29-.2 0-.35.13-.35.29v.77c-.43.46-1.21 1.28-2.06 2.12-1.09-.84-1.98-1.68-2.45-2.14v-.75c0-.16-.16-.29-.35-.29-.2 0-.35.13-.35.29v.77c-.43.46-1.21 1.28-2.06 2.12-1.09-.84-1.98-1.68-2.45-2.14v-.75c0-.16-.16-.29-.35-.29-.2 0-.35.13-.35.29v.77c-.43.46-1.21 1.28-2.06 2.12-1.09-.84-1.98-1.68-2.45-2.14v-.75c0-.16-.16-.29-.35-.29-.2 0-.35.13-.35.29v.77c-.84.9-3 3.16-4.43 4.24l-1.25-3.43h-.73v3.72h-1.37v-1.44h-.68v1.44h-1.74l-1.36-3.72h-.73v3.72h-1v-1.44h-.68v1.44h-2.1l-1.36-3.72h-.73v3.72h-.63v-1.44h-.68v1.44h-2.47l-1.36-3.72h-.73v3.72h-.27v-1.44h-.68v1.44h-2.84l-1.36-3.72h-.73v2.28h-.58v1.44h-4.83v-1.44h-.68v1.44h-4.83v-1.44h-.68v1.44h-4.83v-1.44h-.68v1.44h-.51v1.12h-7.53v.54h.46v.61h-.85v.61h-.62v4.77h135.17V104.34h-.36v-.01z" fill="#0F529C"/><path d="M354.55 111.971h25.56c.55-.89.44-2.01-.32-2.93-.34-.41-.72-.64-1.23-.82-.27-.12-.56-.18-.87-.17-.05-.01-.1-.01-.14-.01-.07-.03-.14-.06-.21-.08-.44-.51-1.09-.85-1.81-.85h-.09c-.88 0-1.65.49-2.07 1.21-.09.05-.17.11-.25.17-.04 0-.08-.01-.11-.01h-.27c-.34 0-.66.07-.95.2-.05-.06-.09-.11-.15-.17-.36-.36-.82-.59-1.32-.67-.42-.7-1.19-1.18-2.05-1.18h-.04c-.91 0-1.71.53-2.12 1.3-.1.06-.2.13-.29.21h-.07c-.72 0-1.28.27-1.66.67-.28-.21-.61-.37-.96-.44-.32-.77-1.02-1.38-2.11-1.38-1.05 0-1.74.55-2.07 1.28-.03.02-.06.03-.09.05-.1.04-.2.08-.3.13-.37-.3-.86-.49-1.47-.49-1.4 0-2.16.99-2.29 2.06-.37.56-.53 1.25-.28 1.89.02.02.03.02.03.03zM17.82 111.971c.11-.18.18-.37.17-.57-.02-.7-.39-1.39-1.11-1.88-.42-1.75-3.54-3.01-6.06-2.62-.47-.3-1-.53-1.62-.64-.81-.14-1.55-.04-2.29.2-.59.19-.98.56-1.26.95-1.63-1.19-4.08-2-6.25-1.41-1.24-.37-2.58-.65-3.91-.39-1.47.28-2.15 1.14-2.4 2.07-1.44-.01-2.84.25-3.76.95-.42-.18-.88-.32-1.35-.46-.25-.84-.73-1.59-1.86-2.12-1.13-.53-2.55-.34-3.74.04-.1-.05-.2-.11-.3-.15-1.09-.49-2.71-.51-3.76.03-1.33.69-1.7 1.69-1.39 2.77-.35.12-.66.3-.84.56-.62.84-.83 1.89-.05 2.67h41.78zM210.33 111.971a.89.89 0 0 1-.15-.5c.02-.61.33-1.21.96-1.63.36-1.52 3.07-2.61 5.25-2.27.4-.26.86-.46 1.41-.56.7-.12 1.34-.03 1.98.17.51.16.85.49 1.09.82 1.41-1.03 3.53-1.73 5.42-1.22 1.08-.32 2.24-.56 3.38-.34 1.27.24 1.86.99 2.08 1.79 1.25-.01 2.46.21 3.25.82.37-.15.76-.28 1.17-.4.21-.73.63-1.38 1.61-1.83.98-.46 2.21-.29 3.24.03.08-.05.17-.09.26-.13.94-.42 2.34-.45 3.26.03 1.15.6 1.47 1.46 1.2 2.4.3.11.57.26.73.48.54.73.72 1.64.05 2.32h-36.19v.02zM89.84 111.971c.39-.76.37-1.67-.04-2.53-.06-.16-.14-.3-.24-.44-.59-.93-1.48-1.27-2.34-1.21-.1-.08-.21-.15-.33-.21-.25-.3-.57-.54-.96-.68-.42-.48-1.05-.8-1.88-.8-1.26 0-2.04.72-2.37 1.63-.29.2-.53.45-.7.75-.1-.02-.2-.03-.3-.04-.39-.73-1.12-1.27-2.21-1.27-.68 0-1.22.21-1.62.55-.63-.21-1.21-.11-1.84-.02-.21.09-.42.18-.63.26-.1.06-.19.12-.27.18-.45-.06-.9-.06-1.37-.06-.12 0-.23.01-.34.03-.42-.43-1.02-.71-1.79-.71-.15 0-.29.01-.43.03-.42-.4-1-.66-1.75-.66-1.58 0-2.42 1.15-2.52 2.37l-.13.19c-.52.89-.44 1.85.04 2.63h24.02v.01zM174.98 111.971c-.39-.76-.37-1.67.04-2.53.06-.16.14-.3.24-.44.59-.93 1.48-1.27 2.34-1.21.1-.08.21-.15.33-.21.25-.3.57-.54.96-.68.42-.48 1.05-.8 1.88-.8 1.26 0 2.04.72 2.37 1.63.29.2.53.45.7.75.1-.02.2-.03.3-.04.39-.73 1.12-1.27 2.21-1.27.68 0 1.22.21 1.62.55.63-.21 1.21-.11 1.84-.02.21.09.42.18.63.26.1.06.19.12.27.18.45-.06.9-.06 1.37-.06.12 0 .23.01.34.03.42-.43 1.02-.71 1.79-.71.15 0 .29.01.43.03.42-.4 1-.66 1.75-.66 1.58 0 2.42 1.15 2.52 2.37l.13.19c.52.89.44 1.85-.04 2.63h-24.02v.01zM123.42 111.971h28.05c.6-.98.48-2.21-.35-3.21-.38-.45-.79-.7-1.35-.9-.3-.13-.62-.19-.95-.19-.06-.01-.11-.01-.15-.02-.08-.03-.15-.07-.23-.09-.48-.57-1.2-.93-1.99-.93h-.1c-.96 0-1.81.54-2.27 1.33-.09.06-.19.12-.28.18-.04 0-.08-.01-.12-.01h-.29c-.37 0-.72.08-1.04.22-.05-.06-.1-.13-.16-.18-.39-.39-.9-.65-1.45-.73-.46-.77-1.3-1.3-2.25-1.3h-.05c-1 0-1.88.58-2.32 1.42-.11.07-.22.14-.31.23h-.08c-.79 0-1.4.29-1.82.73-.31-.23-.67-.41-1.05-.49-.35-.85-1.12-1.51-2.32-1.51-1.15 0-1.91.61-2.27 1.41-.03.02-.07.03-.1.06-.11.04-.22.09-.33.14-.4-.33-.94-.54-1.61-.54-1.54 0-2.37 1.08-2.51 2.26-.41.61-.58 1.37-.31 2.07 0 .03 0 .04.01.05z" fill="#0F529C"/><path d="M384.28 111.86H-28.29v8.25h412.57v-8.25zM369.35 104.01l.04 2.03-3.63-.08.04-2.04 3.55.09zM365.53 108.58l.19-2.01 3.7.08-.06 2.01-3.83-.08zM366.39 92.77l.11-1.86 2.52.06.03 1.86-2.66-.06zM369.22 101.36l.04 2.03-3.42-.08.12-2.02 3.26.07zM369.09 98.71l.04 2.03-3.21-.07.12-2.03 3.05.07z" fill="#0F529C"/><path d="M369.37 109.27l-.33 3.46-3.98-.46.43-3.08 3.88.08zM368.99 93.43l.04 2.03-2.8-.05.12-2.03 2.64.05zM369.04 96.07l.03 2.03-3-.06.12-2.03 2.85.06z" fill="#0F529C"/><path d="M359.19 90.06s1.81-4.29 4.35-4.56l-4.77-2.94s6.69-2.47 8.18.61c.5-4.84 9.51-2.03 9.51-2.03l-3.7 2.58c3.75-1 5.27 5.99 5.5 7.13-.29-1.26-1.96-2.25-3.74-2.96 2.14 1.64 2.73 6.3 2.82 7.21-.25-1.8-3.24-3.41-5.5-4.38.6 2.77.15 6.19.02 7.02.25-2.07-2.3-4.89-4.43-6.85-.34.17-.53.24-.34.04l-6.37 4.51s.83-4.86 2.81-6.53c-.49.12-1.03.25-1.37.31l-2.97.84z" fill="#0F529C"/><path d="M371.87 97.73l-.03.16c0-.03.01-.09.03-.16zM19.09 107.34l.04 2.02-3.63-.07.05-2.04 3.54.09zM15.27 111.91l.2-2.02 3.69.09-.06 2.01-3.83-.08zM16.13 96.1l.11-1.87 2.52.07.04 1.86-2.67-.06zM18.96 104.68l.04 2.04-3.42-.08.12-2.03 3.26.07zM18.83 102.04l.04 2.03-3.21-.07.12-2.03 3.05.07zM19.11 112.6l-.33 3.46-3.98-.46.43-3.08 3.88.08zM18.73 96.76l.04 2.03-2.8-.06.12-2.02 2.64.05zM18.78 99.4l.04 2.03-3.01-.06.13-2.03 2.84.06z" fill="#0F529C"/><path d="M8.94 93.38s1.81-4.29 4.35-4.56l-4.77-2.94s6.69-2.47 8.18.61c.5-4.84 9.51-2.03 9.51-2.03l-3.7 2.58c3.75-1 5.27 5.99 5.5 7.13-.29-1.26-1.96-2.25-3.74-2.96 2.14 1.64 2.73 6.3 2.82 7.21-.25-1.8-3.24-3.41-5.5-4.38.6 2.77.15 6.19.02 7.02.25-2.07-2.3-4.89-4.43-6.85-.34.17-.53.24-.34.04l-6.37 4.51s.83-4.86 2.81-6.53c-.49.12-1.03.25-1.37.31l-2.97.84zM28.01 94.16c.01.04.02.09.02.13 0-.02-.01-.06-.02-.13zM28.03 94.3v.02c.01-.01.01-.02 0-.02z" fill="#0F529C"/><path d="M27.09 98.41c.01.04.01.09.02.14-.01-.02-.01-.07-.02-.14zM27.1 98.55v.02c.01-.01 0-.01 0-.02zM21.61 101.05l-.03.16c0-.02.02-.08.03-.16z" fill="#0F529C"/><defs><linearGradient id="paint0_linear" x1="100.328" y1="111.974" x2="100.328" y2="76.024" gradientUnits="userSpaceOnUse"><stop offset=".261" stop-color="#71CAF3"/><stop offset="1" stop-color="#A0D9F7"/></linearGradient></defs></svg>