<svg width="1600" height="600" fill="none" xmlns="http://www.w3.org/2000/svg" viewBox="0 0 1600 600"><path d="M1854.5-89.7h-1965v709.9h1965V-89.7z" fill="#EFE8E4"/><path fill-rule="evenodd" clip-rule="evenodd" d="M1895.9-48.5H-167.6v705.8h2063.5V-48.5z" fill="#EFE8E4"/><path d="M440.6 422.4h-75.4v159.5h75.4V422.4z" fill="#CEB7A7"/><path d="M212.8 483h-84.7v98.9h84.7V483zM1174.3 419.6h-59.6v162.3h59.6V419.6z" fill="#D9D9D9"/><path d="M604.9 402.9H497.4v179h107.5v-179z" fill="#E8D0BF"/><path d="M818.4 418.2H710.9v163.7h107.5V418.2zM959.8 422.4h-75.4v159.5h75.4V422.4z" fill="#D9D9D9"/><path opacity=".32" d="M903.5 245.3v-21.4h-.6l-4.4-4.4-4.4 4.4h-.6v21.4h-6.1V233h-3.7v-2.4h-6.9v2.4h-3.6v-9.7h-9.8v-7.1h-5.5v-40h-.6l-4.4-4.4-4.4 4.4h-.6v40h-5.5v7.1h-9.8v9.7H829v-2.4h-6.8v2.4h-3.7v12.3h-6.1v-21.4h-.6l-4.4-4.4-4.4 4.4h-.6v21.4h-13.3v336.6H917V245.3h-13.5zm-50.8-36.1h.2v6.2h-.2v-6.2zm-3.8-2.1h2.6v1h-2.6v-1zm3.8 0h.2v1h-.2v-1zm-3.8-8.6h2.6v1h-2.6v-1zm3.8 0h.2v1h-.2v-1zm3.9 1H854v-1h2.6v1zm-3.7 1.2v5.3h-.2v-5.3h.2zm3.7 7.4H854v-1h2.6v1zm0 8.1H854v-6.9h2.6v6.9zm0-10.2H854v-5.3h2.6v5.3zm-2.6-25.5l2.6-2.6v5.3H854v-2.7zm0 3.9h2.4v.6H854v-.6zm0 1.7h2.6v3.5H854v-3.5zm0 4.7h2.5v.5H854v-.5zm2.6 1.6v5H854v-5h2.6zm-3.9-10.7h.2v1.5h-.2v-1.5zm0 2.7h.2v.6h-.2v-.6zm0 1.7h.2v3.5h-.2v-3.5zm0 4.7h.2v.5h-.2v-.5zm.2 1.6v5h-.2v-5h.2zm-1.4-1.1H849v-.5h2.6v.5h-.1zm0-6.3H849v-.6h2.5v.6zm-2.6-7.1l2.6 2.6v2.7h-2.6v-5.3zm0 8.2h2.6v3.5h-2.6v-3.5zm0 6.3h2.6v5h-2.6v-5zm0 8.3h2.6v5.3h-2.6v-5.3zm0 8.5h2.6v6.9h-2.6v-6.9zm29 22.5h4.6v1.3h-4.6v-1.3zm-54.8 0h4.6v1.3h-4.6v-1.3zm76.6-3.5l2.6-2.6v5.3h-2.6v-2.7zm0 3.8h2.4v.6h-2.4v-.6zm0 1.8h2.6v3.5h-2.6v-3.5zm0 4.7h2.5v.5h-2.5v-.5zm2.6 1.6v5.2h-2.6v-5.2h2.6zm-5.1-1.1h-2.6v-.5h2.6v.5zm0-6.4h-2.5v-.6h2.5v.6zm1.2-3.2h.2v1.5h-.2v-1.5zm0 2.6h.2v.6h-.2v-.6zm0 1.8h.2v3.5h-.2v-3.5zm0 4.7h.2v.5h-.2v-.5zm.1 1.6v5.2h-.2v-5.2h.2zm-3.9-14.5l2.6 2.6v2.7h-2.6v-5.3zm0 8.2h2.6v3.5h-2.6v-3.5zm0 6.3h2.6v5.2h-2.6v-5.2zm-86.3-11.9l2.6-2.6v5.3h-2.6v-2.7zm0 3.8h2.4v.6h-2.4v-.6zm0 1.8h2.6v3.5h-2.6v-3.5zm0 4.7h2.5v.5h-2.5v-.5zm2.7 1.6v5.2h-2.6v-5.2h2.6zm-5.1-1.1h-2.6v-.5h2.6v.5zm0-6.4h-2.5v-.6h2.5v.6zm1.1-3.2h.2v1.5h-.2v-1.5zm0 2.6h.2v.6h-.2v-.6zm0 1.8h.2v3.5h-.2v-3.5zm0 4.7h.2v.5h-.2v-.5zm.2 1.6v5.2h-.2v-5.2h.2zm-4-14.5l2.6 2.6v2.7h-2.6v-5.3zm0 8.2h2.6v3.5h-2.6v-3.5zm0 6.3h2.6v5.2h-2.6v-5.2z" fill="#CCA99B"/><path d="M1189.6 278.1v1.7h-3.2v-1.7h-7.4v1.7h-4.9v-1.7h-2.6v-8.6h.5v-2.7h-.5v-7.2h1.2v-5h-1.2v-1.8h-1.9v1.8h-1.3v5h1.3v9.5h-1.5v3.3h1.5v5.7h-2.8v1.7h-5v-1.7h-7.3v1.7h-3.2v-1.7h-7.3v303.8h52.9V278.1h-7.3z" fill="#B25447"/><path opacity=".32" d="M1643.7 321.3v-17.2H1613v-7.3h-4.3v7.3h-3.2v-7.3h-4.3v7.3h-3.2v-7.3h-4.3v7.3h-3.2v-7.3h-4.3v7.3h-30.7v17.2h7.1v6.7h-7.1v253.9h88.2V328h-7.1v-6.7h7.1z" fill="#CEB7A7"/><path d="M810.9 381.8v-14.2H789v14.2h-10.8v-9.1h-15v9.1h-7.3v200.1h63.6V381.8h-8.6z" fill="#B25447"/><path opacity=".32" d="M1450.2 175.6c-4.4-4.3-10.4-7-17-7s-12.6 2.7-17 7h-38v109.6h-38.9v37.1h-37.1v37.1h-37.1v222.4h223V175.6h-37.9z" fill="#978C84"/><path d="M1435.7 304v-21.7h-13.3V280h-9.9v2.3h-8.1v15.9h-38.8V282h-7.5v-2h-9.8v2h-18v22h-20.2v277.9h127.3V304h-1.7zM713.5 372.4V364h-4.2v-7.9h-16.7v7.9H681v-9.6h-21.7v-4.6h-2.5v4.6h-18v-4.6h-2.5v4.6h-17.9v-4.6h-2.5v4.6h-10.1v9.6h-10v8.4h-10.4v209.5h140.2V372.4h-12.1z" fill="#B25447"/><path opacity=".32" d="M1139.7 581.9V339.2h-8.1v-7.9h-1.6v-5.8c-.4-10.8-9.4-19.5-20.5-19.5s-20.1 8.6-20.5 19.5v5.8h-1.6v7.9h-8.1v12.1h-3.6v-36H1054v-5.6h-21.4c-.4-.7-1.1-1.1-1.8-1.1s-1.4.4-1.8 1.1h-6.1c-.5-.6-1.2-1-2-1.1-.1-.4-.2-.9-.3-1.3-.8-3.5-1.3-7.3-1.9-10.7-1.2-7.1-1.6-14.7-2.1-22.1.2-.3.3-.7.3-1.1 0-.5-.2-1-.4-1.4v-11.9h2v-1.8h-2v-.8h-1v.8h-2v1.8h2V271c-.3-.2-.7-.2-1.1-.2-1.4 0-2.5 1.1-2.5 2.5s1.1 2.5 2.5 2.5c.3 0 .6-.1.9-.2-.5 7-.9 14.1-2 20.8-.6 3.4-1.1 7.2-1.9 10.7l-.6 2.4h-.3c-.4-.6-.9-.9-1.4-.9-.6 0-1.1.4-1.4.9h-8.1c-.5-.7-1.3-1.1-2.2-1.1-.9 0-1.7.4-2.2 1.1h-4.9v5.7h-17.4v36H944v230.6h195.7v.1zm-107.4-268.7c.4-.5.7-1.2.7-1.9 0-.2 0-.4-.1-.6h19.9v3.9h-20.5v-1.4zm-2.4.6c.2.1.5.2.7.2.2 0 .4 0 .6-.1v.8h-1.3v-.9zm-6.6-2.5c0-.2 0-.4-.1-.6h5.2c0 .2-.1.4-.1.6 0 .6.2 1.2.5 1.7v1.7h-5.9c-.2-.4-.4-.8-.7-1.3.7-.6 1.1-1.3 1.1-2.1zm-3 2.7h.6v.7h-.5v-.7h-.1zm-4.1-27.1c.3 3.3.7 6.6 1.2 9.8.6 3.4 1.1 7.2 1.9 10.8l.3 1.2c-.5.2-.9.5-1.3.9h-2.2v-22.7h.1zm0 23.8h1.7c0 .2-.1.4-.1.6 0 1 .6 1.9 1.4 2.4v1h-3v-4zm-4.2-3.2c.8-3.6 1.4-7.4 1.9-10.8.5-3.2.9-6.5 1.2-9.8v22.8h-3.7c.3-.8.4-1.5.6-2.2zm-2.2 6.8c.5-1.1 1-2.3 1.4-3.6h4v3.9h-5.4v-.3zm-10.7-1.5c.3-.4.5-1 .5-1.5 0-.2 0-.4-.1-.6h7.2c0 .2-.1.5-.1.7 0 1.1.5 2 1.1 2.5v.7H999v-1.8h.1zm-3.1 1c.3.1.6.2.9.2.4 0 .8-.1 1.2-.3v.9H996v-.8zm-5.1-3.1h3.4c0 .2-.1.4-.1.6 0 .7.3 1.4.7 1.9v1.5h-4.1v-4h.1z" fill="#CCA99B"/><path d="M234.7 418.6v39.9h-30.8v123.4h81V418.6h-50.2z" fill="#CE7C72"/><path d="M1469.5 335.3v246.6h89.1V335.3h-89.1zm34.6 15.1h-22.4v-13.1h22.4v13.1zM987 348.2v-7.5h-12.9v4.7h-8v2.8H948c.7-.6 1.1-1.5 1.1-2.5 0-1.8-1.5-3.3-3.3-3.3-.2 0-.4 0-.6.1.9-.7 1.5-1.8 1.5-3.1 0-2.1-1.7-3.9-3.9-3.9-2.1 0-3.9 1.7-3.9 3.9 0 1.6 1 3 2.5 3.6v1.7c-.6-.7-1.5-1.2-2.5-1.2-1.1 0-2.1.6-2.7 1.4v-1.3c1.3-.3 2.3-1.5 2.3-2.9 0-1.7-1.3-3-3-3s-3 1.3-3 3 1.4 3 3 3h.1v4.5h-1c.2-.5.3-1 .3-1.5 0-2.5-2-4.5-4.5-4.5s-4.5 2-4.5 4.5c0 .5.1 1 .3 1.5h-13v233.7h83.1V348.2H987zm-44.6-2.5c0 1 .4 1.9 1.1 2.5h-1.1v-2.5zm.5-2.4c.3 0 .5 0 .8-.1-.7.6-1.2 1.5-1.2 2.6v-2.5c.1-.1.2 0 .4 0zM1101.6 399.2v-10.4h-1.2v-5.9h-48.8v5.9h-1.2v10.4h1.2v4.7h-1.2v10.4h1.2v4.7h-1.2v10.4h1.2v4.7h-1.2v10.4h1.2v4.7h-1.2v10.4h1.2v4.7h-1.2v10.4h1.2v4.7h-1.2v10.4h1.2v4.7h-1.2v10.4h1.2v4.7h-1.2V520h1.2v4.7h-1.2v10.4h1.2v4.7h-1.2v10.5h1.2v4.6h-1.2v10.5h1.2v4.6h-1.2v10.5h1.2v1.4h48.8v-1.4h1.2V570h-1.2v-4.6h1.2v-10.5h-1.2v-4.6h1.2v-10.5h-1.2v-4.7h1.2v-10.4h-1.2V520h1.2v-10.4h-1.2v-4.7h1.2v-10.4h-1.2v-4.7h1.2v-10.4h-1.2v-4.7h1.2v-10.4h-1.2v-4.7h1.2v-10.4h-1.2v-4.7h1.2v-10.4h-1.2v-4.7h1.2V419h-1.2v-4.7h1.2v-10.4h-1.2v-4.7h1.2z" fill="#B25447"/><path d="M104 448.8v-81.1H53.7v20H12.6v194.2H137.7V448.8H104z" fill="#C16553"/><path d="M53.4 500.8h-68.3v81h68.3v-81zM253.7 357.5l-53.4-85.9-53.5 85.9h-.1v224.4h107.1V357.5h-.1z" fill="#C16553"/><path d="M252.3 498.6v4.4h-46.9v-4.4h-3.5v4.4H155v-4.4h-3.5v4.4h-46.9v-4.4H101v4.4H54.1v-4.4h-3.5v4.4h-47v-4.4H.1v4.4h-46.9v-4.4h-3.5v4.4h-46.9v-4.4h-3.5V582h7.1v-23.2h2.1v-1.5c-1.2-2.5-1.9-5.2-1.9-8.1 0-10.5 9.1-19 20.2-19 11.2 0 20.2 8.5 20.2 19 0 2.9-.7 5.7-1.9 8.1v1.5h1.9V582h9.5v-23.2h2.1v-1.5c-1.2-2.5-1.9-5.2-1.9-8.1 0-10.5 9.1-19 20.2-19 11.2 0 20.2 8.5 20.2 19 0 2.9-.7 5.7-1.9 8.1v1.5h2.1V582h9.5v-23.2h2.1v-1.5c-1.2-2.5-1.9-5.2-1.9-8.1 0-10.5 9.1-19 20.2-19 11.2 0 20.2 8.5 20.2 19 0 2.9-.7 5.7-1.9 8.1v1.5h2.1V582h9.5v-23.2h2.1v-1.5c-1.2-2.5-1.9-5.2-1.9-8.1 0-10.5 9.1-19 20.2-19 11.2 0 20.2 8.5 20.2 19 0 2.9-.7 5.7-1.9 8.1v1.5h2.1V582h9.5v-23.2h2.1v-1.5c-1.2-2.5-1.9-5.2-1.9-8.1 0-10.5 9.1-19 20.2-19 11.2 0 20.2 8.5 20.2 19 0 2.9-.7 5.7-1.9 8.1v1.5h2.1V582h9.5v-23.2h2.1v-1.5c-1.2-2.5-1.9-5.2-1.9-8.1 0-10.5 9.1-19 20.2-19 11.2 0 20.2 8.5 20.2 19 0 2.9-.7 5.7-1.9 8.1v1.5h2.1V582h9.5v-23.2h2.1v-1.5c-1.2-2.5-1.9-5.2-1.9-8.1 0-10.5 9.1-19 20.2-19 11.2 0 20.2 8.5 20.2 19 0 2.9-.7 5.7-1.9 8.1v1.5h2.1V582h7.1V498.6h-3.6zm-312.9 8.5v6.4h-6.7v-6.4h6.7zm-20.4 0v6.4h-6.7v-6.4h6.7zm-16.2 6.4v-6.4h6v6.4h-6zm19.7 0v-6.4h6.7v6.4h-6.7zm27.2 0H-57v-6.4h6.7v6.4zm40.3-6.4v6.4h-6.7v-6.4h6.7zm-20.4 0v6.4h-6.7v-6.4h6.7zm-16.4 6.4v-6.4h6.2v6.4h-6.2zm19.9 0v-6.4h6.7v6.4h-6.7zm27 0h-6.6v-6.4H.1v6.4zm40.4-6.4v6.4h-6.7v-6.4h6.7zm-20.4 0v6.4h-6.7v-6.4h6.7zm-16.5 6.4v-6.4h6.3v6.4H3.6zm20 0v-6.4h6.7v6.4h-6.7zm26.9 0H44v-6.4h6.5v6.4zm40.6-6.4v6.4h-6.7v-6.4h6.7zm-20.4 0v6.4H64v-6.4h6.7zm-16.6 6.4v-6.4h6.4v6.4h-6.4zm20.1 0v-6.4h6.7v6.4h-6.7zm26.8 0h-6.4v-6.4h6.4v6.4zm40.6-6.4v6.4h-6.7v-6.4h6.7zm-20.4 0v6.4h-6.7v-6.4h6.7zm-16.7 6.4v-6.4h6.5v6.4h-6.5zm20.2 0v-6.4h6.7v6.4h-6.7zm26.7 0h-6.3v-6.4h6.3v6.4zm40.8-6.4v6.4h-6.7v-6.4h6.7zm-20.4 0v6.4h-6.7v-6.4h6.7zm-16.9 6.4v-6.4h6.6v6.4h-6.6zm20.4 0v-6.4h6.7v6.4h-6.7zm26.5 0h-6.2v-6.4h6.2v6.4zm40.9-6.4v6.4H236v-6.4h6.7zm-20.4 0v6.4h-6.7v-6.4h6.7zm-16.9 6.4v-6.4h6.7v6.4h-6.7zm20.4 0v-6.4h6.7v6.4h-6.7zm26.5 0h-6v-6.4h6v6.4z" fill="#C74E10"/><path d="M355.4 192.1c-.1-28.7-23.4-51.9-52.1-51.8-28.7.1-51.9 23.4-51.8 52.1.1 19.5 10.8 36.5 26.8 45.3l.9 344.2h50.6l-.9-344.2c15.9-9.1 26.6-26.1 26.5-45.6zm-9.9 26.7v-4.4h-3.4V209l7 2.9c-1 2.4-2.3 4.7-3.6 6.9zm4.2-8.4l-4.4-1.8h3.5v-15.5h4.4c-.1 6-1.3 11.9-3.5 17.3zm3.4-19.1h-4.4v-16h-2.4l3.3-1.4c2.2 5.4 3.4 11.2 3.5 17.4zm-4.1-19l-5 2.1v-1.5h-11.7v-7.6h-.9l7.6-7.7c4.2 4.3 7.6 9.2 10 14.7zm-11.1-15.9l-8.6 8.6v-12.9h-8.4l2.3-5.5c5.5 2.4 10.4 5.7 14.7 9.8zm-46.4 67.1l1.1-2.7h2.2l.1 20.4c-1.1-.2-2.3-.4-3.4-.7v-17zm20.7-2.7h2.2l1.1 2.7v16.9c-1.1.3-2.2.5-3.4.7l.1-20.3zm5.7-76.1c1.2.4 2.5.8 3.7 1.3l-2.5 6.1H318l-.1-7.4zm-13.7-2.1c4 .1 7.8.6 11.6 1.5h-9.5v4.4h-2.1v-5.9zm-1.7 0v6h-2.1v-4.4h-9.5c3.7-1 7.6-1.5 11.6-1.6zm-13.7 2.2v7.4h-1.1l-2.6-6.1c1.2-.5 2.5-.9 3.7-1.3zm-5.2 1.9l2.3 5.5h-8.4v12.9l-8.6-8.6c4.2-4 9.2-7.4 14.7-9.8zm-15.9 11.1l7.7 7.6h-.9v7.6h-11.7v1.5l-5-2c2.4-5.4 5.8-10.4 9.9-14.7zm-10.5 16.3l3.3 1.4h-2.3v16h-4.4c.1-6.1 1.3-12 3.4-17.4zm-3.4 19.1h4.4v15.5h3.5l-4.4 1.8c-2.2-5.3-3.4-11.1-3.5-17.3zm7.8 25.8c-1.4-2.2-2.6-4.4-3.7-6.8l7-2.9v5.4h-3.4l.1 4.3zm1.3 1.9h10.9l-5.9 6c-1.9-1.9-3.5-3.9-5-6zm6.1 7.2l7.2-7.2h2v14.2c-3.3-2-6.4-4.4-9.2-7zm26.4 190.4H292v-19.6h3.4v19.6zm-.1-22h-3.4v-17.4h3.4v17.4zm-.2-93.2h-3.4V287h3.4v16.3zm-.1-18.6h-3.4l-.1-24.9h3.4l.1 24.9zm-3.4-27.3v-14.6c1.1.3 2.2.5 3.4.7v13.9h-3.4zm24.5 161h-3.4l-.1-19.6h3.4l.1 19.6zm-.1-21.9h-3.4v-17.4h3.4v17.4zm-.2-93.3h-3.4v-16.3h3.4v16.3zm-.1-18.6h-3.4l-.1-24.9h3.4l.1 24.9zm0-27.2h-3.4v-13.9c1.1-.2 2.3-.4 3.4-.7v14.6zm13.2-22.5v-14.2h2l7.2 7.2c-2.8 2.7-5.9 5-9.2 7zm4.4-14.2h10.9c-1.5 2.1-3.1 4.1-4.9 6l-6-6zM1271.6 433.7v-2.3h-3.8v-11.8h2.5l-14.3-14.3v-10.1h-2.3v-10.1h-3.5v-3h2.1l-2.1-1.4v-1.4h2.1l-4.7-4.2-4.7 4.2h2.1v1.4l-2.1 1.4h2.1v3h-3.9v10.1h-6.1v-8.6h-12.1v8.6h-3.7L1215 371h-.1c.5-.4 1-.9 1.3-1.4.1 0 .1-.1.2-.1.6.4 1.3.7 2 .9.8.3 1.7.2 2.6.5.9.3 1.3-.8.9-1.3 1-.1 1-1.8-.1-1.7-1.3 0-2.9.4-4.2-.1-.1-.9-.5-1.5-1.3-2.1-.7-.4-2.1-.7-2.4-1.6 0-.1-.2-.6-.3-.6 1-.3 2.1-.1 2.9-.7.2-.1.3-.3.3-.4.3-.4.2-.8-.5-1.1-2.4-1-3.4-1.2-5.3-1-.5 0-.9.4-.9.9 0 .3.1 1 .1 1l.7 4.2c-.4 0-1.7-4.2-2.1-4.2-3.2.1-6.6.4-9.4-1.3-.8-.5-1.8.7-1.1 1.4 1.3 1.1 3 1.9 4.8 2.4-1.3 0-2.6-.2-4 .1-.5.1-1 1-.5 1.3 2 1.2 3.1 1.6 4.7 1.8 1.4.2 3.5.2 5.3-.1-1.9 2.1-6.1 2.6-8.4 2.2-1.1-.2-1.6 1.5-.5 1.7 1.6.3 3.7.3 5.6-.2-.6.3-1.1.7-1.6 1.1-.9.7.4 2 1.2 1.2.5-.4 1-.7 1.5-1.1l-3.9 22.6h-5.4v10.1l-14.3 14.3h2.5v11.8h-3.8v2.3h-1.9v4.3h1.9v143.8h90.3V438h1.9v-4.3h-2.1zm-53.6-38.4h-1.2l-2.9-23.2h.5l3.6 23.2zm-9.3-23.2l-1.8 23.1h-1.6l2.7-23.1h.7zm.3 0h1.1v23.1h-2.8l1.7-23.1zm2 0h1.3l1.7 23.1h-3v-23.1zm1.7 0h.7l2.7 23.1h-1.6l-1.8-23.1zm-5.7.1c.1 0 .1-.1.2-.1h.3l-2.9 23.2h-1.2l3.6-23.1zM794.9 498h-43.7v83.8h43.7V498z" fill="#C16553"/><path d="M861.9 538.1h-79.1v43.8h79.1v-43.8zM716.8 538.1H593v43.8h123.8v-43.8z" fill="#C16553"/><path d="M1029.4 550.2h-79.1v31.7h79.1v-31.7zM766.8 442v-3h-23.6v3h-4.3v-5.6h-8.7v5.6h-4.3v139.9h45.7V442h-4.8z" fill="#CE7C72"/><path d="M949.5 467.4v-8.1h-19.7v8.1h-14.5v-8.1h-19.7v8.1h-14.5v-8.1h-19.7v8.1h-6.6v-15h-11v-3.9h-7.4v3.9h-4.5v6.9h-4.7v8.1h-8.1v114.5h138.5V467.4h-8.1zM1150.1 492.2v-31.3h-32.2v4.6h-2.3v-8.1h-4.3v8.1h-3.3v6.8h-13.4v-5.2h6.9v-16.6h-54.8v-6.2h-2.6v6.2h-20v16.6h5.6v5.2h-23v19.9h-17.1v89.7h170.3v-89.7h-9.8zm-117.5-25.1h7.2v5.2h-7.2v-5.2z" fill="#CE7C72"/><path d="M1396.4 508.4v-9.7h-39.7v9.7h-38.9v73.5h117.5v-73.5h-38.9zM981 498h-43.7v83.8H981V498z" fill="#C16553"/><path d="M1264.4 537.8h-135.9v44h135.9v-44z" fill="#CE7C72"/><path d="M1576.1 419.6v-.9h-7.5v.9h-10.2v-1h-5.9v1h-8.3v-1.8H1526v1.8h-4.8v162.3h63.2V419.6h-8.3z" fill="#C16553"/><path d="M1533.1 538.1h-123.8v43.8h123.8v-43.8z" fill="#C16553"/><path d="M382.2 532.5h-69.8v49.4h69.8v-49.4zM557.4 524.1h-39.7v57.8h39.7v-57.8z" fill="#CE7C72"/><path d="M1320.2 524.1h-68.3v57.8h68.3v-57.8zM461.3 526.4H393v55.5h68.3v-55.5z" fill="#C16553"/><path d="M1877.6 521v-21.4c-22.8-.4-48.4-.4-75.5-.4-77 0-194.4 6.5-215.9 15.6l.1 1.8v65.2h4.9v-61.4c5.1-1.4 12.5-2.7 21.5-4v65.4h4.9v-66c6.5-.8 13.7-1.6 21.5-2.3v68.4h4.9v-68.8c6.8-.6 14.1-1.2 21.5-1.7v70.5h4.9V511c7-.5 14.2-.9 21.5-1.3v72.2h4.9v-72.5c6.2-.3 12.4-.6 18.7-.9v4.8h2.9v68.6h4.9v-68.6h42.5c2.6 0 4.6 1.5 4.6 3.4v4.4h2.8v2.5h-4.8v6.2h3.8v20.4h-3.1v31.6h3.1v.2h5.3v-.2h3.1v-31.6h-3.1v-20.4h3.8v-6.2h-4.9V521h3.2v-4.4c0-1.9 2.1-3.4 4.6-3.4h75.4c2.6 0 4.6 1.5 4.6 3.4v4.4h4.8v2.5h-4.9v6.2h3.8v20.4h-3.1v31.6h3.1v.2h5.3v-.2h3.1v-31.6h-3.1v-20.4h3.8v-6.2h-4.9V521h5.5z" fill="#DBAE9C"/><path d="M1611.4 549.2h-86.5v32.7h86.5v-32.7z" fill="#C16553"/><path d="M1877.5 579.8H-100.8v34.4h1978.3v-34.4z" fill="#C74E10"/><path d="M1546.6 572.3c-8.5-11.1-20.9-20.5-35.9-27.4-17.5-8-38.5-12.7-61-12.7-30.1 0-57.4 8.3-77.2 21.8-1.5 1-2.9 2-4.3 3.1-6.1-4.6-12.9-8.7-20.5-12.2-17.5-8-38.5-12.7-61-12.7-30.1 0-57.4 8.3-77.2 21.8-7.8 5.3-14.5 11.5-19.7 18.3h-7.2v9.5h371.2v-9.5h-7.2zm-22.9-17.4l1.8 1.2c7 4.8 13.1 10.2 17.9 16.2h-21.7l-7.2-7.6 5.4-9.7 3.8-.1zm-39.1-10c2.6 1.7 5.1 3.6 7.3 5.6.3.3.6.5.8.8l-.8 5.8-9.2-9.8.2-1.4 1.7-1zm6.8 13.5l-11 9.3 2.1-18.9 8.9 9.6zm-9.7-14.4l-1.1 1.1-4.5-4.8c1.9.9 3.8 1.8 5.6 2.9v.8zm-.4 3.9l-2.3 21-4.1 3.5h-5.7l12.1-24.5zm-2.5 22.8l-.2 1.7h-1.8l2-1.7zm1.4-1.2l12-10.2 1.9 2-2.6 11h-11.6l.3-2.8zm31-8.5l6.1-5.9h1.3l-4.8 8.7-2.6-2.8zm1.9 3.9l-4 7.2c-.8-2.3-1.7-4.4-2.7-6.6l3.8-3.7 2.9 3.1zm-2.8-4.8l-4.4-4.7 9.5-.3-5.1 5zm-.9.8l-3.6 3.4c-1.6-3.1-3.6-6.1-5.8-8.8l4.2-.1 5.2 5.5zm-5.4 5.3l-1.9 1.8-6.6-7 1.3-5.4c2.8 3.2 5.2 6.8 7.2 10.6zm-6-13.1c-1.2-1.3-2.4-2.6-3.8-3.8l.6-3.9 7.2 7.6-4 .1zm-2.2 1.3l-.1.3-2.6 2.2.7-4.5c.7.6 1.4 1.3 2 2zm-.6 2.3l-.7 3.1-1.3-1.4 2-1.7zm0 5.7l6 6.4-3.7 3.5h-4.8l2.5-9.9zm6.9 7.3l2.4 2.6h-5.1l2.7-2.6zm.9-.8l1.6-1.5c.8 1.6 1.4 3.3 2 5h-.4l-3.2-3.5zm11-3l6.1 6.5h-9.7l3.6-6.5zm-21.5-25.1c9.6 2.8 18.5 6.6 26.3 11.1l-.7.7-14.5.4-11.4-12.1.3-.1zm1.2 3.4l-.6 4.1c-1.9-1.7-3.9-3.3-6.1-4.7l4.1-2.1 2.6 2.7zm-3.9-4.2l.5.5-4.4 2.3c-.3-.2-.6-.4-.8-.5l2.6-2.8c.7.1 1.4.3 2.1.5zm-3.5-.9l-2.3 2.5c-3.3-2-6.7-3.6-10.4-5 4.3.6 8.6 1.5 12.7 2.5zm-18.4-1.8c2 .6 4 1.3 6 2l-.2.2 6.1 6.5-11.9 12.7v-21.4zm0 23.2l12.2-13-12.2 24.7v-11.7zm-18.2-25.8c5.4 0 10.7.7 15.7 1.9v35.7H1434v-35.7c5-1.2 10.3-1.9 15.7-1.9zm-68.1 35.2l3.8-4 3.6 6.5h-5.4c-.6-.9-1.3-1.7-2-2.5zm22.1-15.2l-.1-.3c.6-.7 1.3-1.4 2-2.1l.7 4.5-2.6-2.1zm2.5 3.8l-1.3 1.4-.7-3.1 2 1.7zm-2.3 2.4l-6.6 7-1.9-1.8c1.9-3.8 4.3-7.4 7.2-10.7l1.3 5.5zm-2.5-7.8l-4-.1 7.2-7.6.6 3.9c-1.4 1.2-2.6 2.5-3.8 3.8zm-2.1 2.5c-2.2 2.8-4.1 5.7-5.8 8.8l-3.6-3.4 5.2-5.5 4.2.1zm-6.3 9.9c-1 2.1-2 4.3-2.7 6.6l-4-7.2 2.9-3 3.8 3.6zm-3.9-5.4l-5.1-4.9 9.5.3-4.4 4.6zm-.8.9l-2.6 2.8-4.8-8.7h1.3l6.1 5.9zm6.6 6.4l1.6 1.5-3.2 3.5h-.4c.5-1.8 1.2-3.4 2-5zm2.5 2.3l2.7 2.6h-5.1l2.4-2.6zm.8-.9l6-6.4 2.4 10h-4.8l-3.6-3.6zm7.1-7.5l1.9-2 12 10.2.3 2.9h-11.6l-2.6-11.1zm11.3-15.5l.2 1.4-9.2 9.8-.8-5.8.8-.8c2.3-2 4.7-3.9 7.3-5.6l1.7 1zm2.4 21.9l-11-9.3 8.9-9.5 2.1 18.8zm-1.4-24.5c1.8-1 3.7-2 5.6-2.9l-4.5 4.8-1.1-1.1v-.8zm3 27.5l2 1.7h-1.8l-.2-1.7zm-.2-1.8l-2.3-21 12.1 24.5h-5.7l-4.1-3.5zm-1.1-21.3l12.2 13v11.7l-12.2-24.7zm12.2 11.1l-11.9-12.7 6.1-6.5-.2-.2c1.9-.8 3.9-1.5 6-2v21.4zm-5.7-22.1c-3.7 1.4-7.1 3.1-10.4 5l-2.3-2.5c4.1-1 8.4-1.9 12.7-2.5zm-16.2 3.4l2.1-.6 2.6 2.8c-.3.2-.6.3-.8.5l-4.4-2.3.5-.4zm2.7 3.6c-2.1 1.5-4.2 3-6.1 4.7l-.6-4.1 2.6-2.8 4.1 2.2zm-22.6 3.6c5.4-2.5 11.2-4.7 17.2-6.5l.2.1-11.4 12.1-14.5-.4-.7-.7c3-1.5 6-3.1 9.2-4.6zm-14 7.7l3.7.1 5.4 9.7-3.9 4.2c-3.1-3.6-6.7-7-10.6-10.2 1.7-1.3 3.5-2.6 5.4-3.8zm4.8 17.4h-1.1l.6-.7c.1.3.3.5.5.7zm-12.3-12c4.1 3.2 7.7 6.7 10.9 10.4l-1.5 1.6h-18.8l-1.5-1.6c3.2-3.6 6.8-7.1 10.9-10.4zm-46.6-15.4c2.6 1.7 5.1 3.6 7.3 5.6.3.3.6.5.8.8l-.8 5.8-9.2-9.8.2-1.4 1.7-1zm6.8 13.5l-11 9.3 2.1-18.9 8.9 9.6zm-9.6-14.4l-1.1 1.1-4.5-4.8c1.9.9 3.8 1.8 5.6 2.9v.8zm-.5 3.9l-2.3 21-4.1 3.5h-5.7l12.1-24.5zm-2.5 22.8l-.2 1.7h-1.8l2-1.7zm1.4-1.2l12-10.2 1.9 2-2.6 11h-11.6l.3-2.8zm31-8.5l6.1-5.9h1.3l-4.8 8.7-2.6-2.8zm1.9 3.9l-4 7.2c-.8-2.3-1.7-4.4-2.7-6.6l3.8-3.7 2.9 3.1zm-2.8-4.8l-4.4-4.7 9.5-.3-5.1 5zm-.9.8l-3.6 3.4c-1.6-3.1-3.6-6.1-5.8-8.8l4.2-.1 5.2 5.5zm-5.4 5.3l-1.9 1.8-6.6-7 1.3-5.4c2.8 3.2 5.2 6.8 7.2 10.6zm-6-13.1c-1.2-1.3-2.4-2.6-3.8-3.8l.6-3.9 7.2 7.6-4 .1zm-2.2 1.3l-.1.3-2.6 2.2.7-4.5c.7.6 1.4 1.3 2 2zm-.5 2.3l-.8 3.1-1.3-1.4 2.1-1.7zm-.1 5.7l6 6.4-3.6 3.5h-4.8l2.4-9.9zm6.9 7.3l2.4 2.6h-5.1l2.7-2.6zm.9-.8l1.6-1.5c.8 1.6 1.4 3.3 2 5h-.4l-3.2-3.5zm11-3l3.8 4c-.7.8-1.3 1.6-2 2.5h-5.4l3.6-6.5zm9.7-11l1.8 1.2c1.2.8 2.5 1.7 3.6 2.6-3.9 3.2-7.5 6.6-10.6 10.2l-3.9-4.2 5.4-9.7 3.7-.1zm-3.6 17.4h-1.1c.2-.2.4-.4.5-.7l.6.7zm-27.6-31.5c9.6 2.8 18.5 6.6 26.3 11.1l-.7.7-14.5.4-11.4-12.1.3-.1zm1.2 3.4l-.6 4.1c-1.9-1.7-3.9-3.3-6.1-4.7l4.1-2.1 2.6 2.7zm-3.9-4.2l.5.5-4.4 2.3c-.3-.2-.6-.4-.8-.5l2.6-2.8c.7.1 1.4.3 2.1.5zm-3.5-.9l-2.3 2.5c-3.3-2-6.7-3.6-10.4-5 4.4.6 8.6 1.5 12.7 2.5zm-18.4-1.8c2 .6 4 1.3 6 2l-.2.2 6.1 6.5-11.9 12.7v-21.4zm0 23.2l12.2-13-12.2 24.7v-11.7zm-18.2-25.8c5.4 0 10.7.7 15.7 1.9v35.7H1271v-35.7c5-1.2 10.3-1.9 15.7-1.9zm-46 20l-.1-.3c.6-.7 1.3-1.4 2-2.1l.7 4.5-2.6-2.1zm2.5 3.8l-1.3 1.4-.7-3.1 2 1.7zm-2.3 2.4l-6.6 7-1.9-1.8c1.9-3.8 4.3-7.4 7.2-10.7l1.3 5.5zm-2.5-7.8l-4-.1 7.2-7.6.6 3.9c-1.3 1.2-2.6 2.5-3.8 3.8zm-2 2.5c-2.2 2.8-4.1 5.7-5.8 8.8l-3.6-3.4 5.2-5.5 4.2.1zm-6.4 9.9c-1 2.1-2 4.3-2.7 6.6l-4-7.2 2.9-3 3.8 3.6zm-3.9-5.4l-5.1-4.9 9.5.3-4.4 4.6zm-.8.9l-2.6 2.8-4.8-8.7h1.3l6.1 5.9zm.7 11.3h-9.7l6.1-6.5 3.6 6.5zm5.9-4.9l1.6 1.5-3.2 3.5h-.4c.5-1.8 1.2-3.4 2-5zm2.5 2.3l2.7 2.6h-5.1l2.4-2.6zm.8-.9l6-6.4 2.4 10h-4.8l-3.6-3.6zm7.1-7.5l1.9-2 12 10.2.3 2.9h-11.6l-2.6-11.1zm11.3-15.5l.2 1.4-9.2 9.8-.8-5.8.8-.8c2.3-2 4.7-3.9 7.3-5.6l1.7 1zm2.4 21.9l-11-9.3 8.9-9.5 2.1 18.8zm-1.4-24.5c1.8-1 3.7-2 5.7-2.9l-4.5 4.8-1.1-1.1-.1-.8zm3 27.5l2 1.7h-1.8l-.2-1.7zm-.2-1.8l-2.3-21 12.1 24.5h-5.7l-4.1-3.5zm-1.1-21.3l12.2 13v11.7l-12.2-24.7zm12.2 11.1l-11.9-12.7 6.1-6.5-.2-.2c1.9-.8 3.9-1.5 6-2v21.4zm-5.7-22.1c-3.7 1.4-7.1 3.1-10.4 5l-2.3-2.5c4.1-1 8.4-1.9 12.7-2.5zm-16.2 3.4l2.1-.6 2.6 2.8c-.3.2-.6.3-.8.5l-4.4-2.3.5-.4zm2.7 3.6c-2.1 1.5-4.2 3-6.1 4.7l-.6-4.1 2.6-2.8 4.1 2.2zm-22.6 3.6c5.4-2.5 11.2-4.7 17.2-6.5l.2.1-11.3 12.1-14.5-.4-.7-.7c2.9-1.5 6-3.1 9.1-4.6zm-14 7.7l3.7.1 5.4 9.7-7.2 7.6H1193c5.2-6.4 11.9-12.3 19.7-17.4z" fill="#D79E8F"/></svg>