<svg width="375" height="150" fill="none" xmlns="http://www.w3.org/2000/svg" viewBox="0 0 375 150"><path d="M375 0H0v106h375V0z" fill="#EDDCCE"/><path fill-rule="evenodd" clip-rule="evenodd" d="M206.267 67.986s10.339-8.89 14.856-10.195c4.517-1.363 11.343-1.896 13.652-3.2 2.309-1.364 8.131-5.632 12.648-5.098 4.517.533 9.937 4.564 12.748 5.868 2.71 1.363 12.648.237 14.957 2.134 2.308 1.897 3.613 4.268 8.131 5.335 4.517 1.067 19.072 7.764 19.072 10.195 0 2.43-92.049 9.661-96.064-5.039z" fill="#C16553"/><path fill-rule="evenodd" clip-rule="evenodd" d="M234.273 83.28s32.122-6.047 39.349-10.789c7.227-4.742 23.389-3.853 27.002-4.327 3.614-.474 8.834-4.742 12.447-4.979 3.614-.237 11.645-5.453 14.857-5.927 3.212-.474 10.038-2.134 14.856-4.505 4.818-2.37 6.424 1.185 10.841 4.742 4.417 3.556 15.258 7.587 16.462 9.958 1.205 2.371 8.432 5.453 8.432 5.453l.302 40.484-144.548-30.11z" fill="#CE7C72"/><path fill-rule="evenodd" clip-rule="evenodd" d="M345.294 52.041s-2.209 3.675-1.004 4.98c1.204 1.303 2.81 3.674 2.81 3.674s1.205 2.49 1.004 3.083c-.201.592-2.409-.593-3.011-1.186-.603-.593 0 2.371.803 3.32.803.948 3.814 2.015 4.216 3.082.401 1.067 3.613 3.319 3.814 4.505.201 1.185-2.007.237-4.015-1.067-2.008-1.304-4.818-1.186-4.818-.119s1.204 5.098 1.204 5.098-3.613-.949-3.212 2.49c.402 3.437 1.205 5.334 1.205 5.334s3.814 1.304 4.015 3.32c.201 2.014-.201 2.133-1.807 2.844-1.606.712-1.506 5.157 1.506 7.469 3.011 2.311 30.817 5.868 30.817 5.868l-.101-7.469s-2.409-2.133-3.011-3.319c-.603-1.185 3.011-1.422 3.011-1.422l-.1-19.62s-2.008-2.193-2.61-3.023c-.602-.83-4.015-2.371-4.216-3.438-.201-1.067-5.22-1.719-9.737-4.09-4.517-2.371-4.015-3.556-5.32-4.327-1.305-.652-9.034-6.876-11.443-5.987zM139.313 70.95s-8.532 1.423-15.759-3.32c-7.228-4.741-23.69-8.179-27.304-8.653-3.614-.474-18.972-3.497-22.585-3.734-3.614-.238-9.035-3.201-12.247-3.675-3.212-.475-13.651-3.023-18.47-5.394-4.818-2.371-9.134 1.185-15.659 4.979-6.525 3.793-21.28 7.587-22.485 9.958-1.205 2.37-9.637-.474-9.637-.474l-.3 40.484 144.446-30.17z" fill="#C16553"/><path fill-rule="evenodd" clip-rule="evenodd" d="M-5.033 78.774S6.209 75.93 14.24 77.352c8.03 1.422 10.44-2.371 10.44-2.371s15.257-.474 16.863-2.846c1.606-2.37 7.227-4.741 11.243-4.741 4.015 0 17.666-3.32 22.485-3.32 4.818 0 9.636-3.793 14.454-3.793 4.819 0 9.637-12.33 16.864-12.803 7.228-.475 12.046-5.69 19.273-5.69 7.228 0 17.667-9.01 24.092-9.01 6.424 0 12.045.948 13.651 3.319 1.606 2.37 17.667 3.32 25.698 4.268 8.03.948 12.045 2.845 12.848 6.638.803 3.794 7.629 7.113 9.235 8.536 1.606 1.422 3.614 1.897 4.016 3.556.401 1.66 3.613 3.083 5.621 4.268 2.007 1.185 3.614 2.845 4.818 4.03 1.205 1.186 12.849-.474 13.25-1.66.402-1.185 2.409-4.267 5.22-4.504 2.811-.237 6.826-3.082 6.826-3.082s6.826.237 8.03 3.32c1.205 3.081 10.44 3.319 10.841 5.69.402 2.37 9.235 5.453 10.038 6.875.803 1.423 1.606 3.083 7.228 4.742 5.621 1.66 20.879 5.216 24.091 6.402 3.212 1.185 7.629 3.32 9.637 3.32 2.007 0 8.03 4.504 8.03 4.504s17.265 3.793 19.273 5.927c2.008 2.134 30.917 2.134 30.917 2.134l-.401 53.525H-4.632l-.401-75.812z" fill="#CE7C72"/><path fill-rule="evenodd" clip-rule="evenodd" d="M149.853 32.778l3.614-1.66s12.849 5.453 15.258 5.69c2.409.237 21.481 1.778 23.689 2.134 2.209.356 5.622 1.778 8.432 2.49 2.811.71 4.618 6.638 6.626 7.824 2.007 1.185 9.837 7.113 11.041 8.89 1.205 1.78 7.428 7.35 9.436 7.47 2.008.118.602 6.045 5.421 9.365 4.818 3.319 14.856 15.885 16.462 17.782 1.606 1.897-.402 4.979 4.818 8.298 5.22 3.32 21.682 5.928 26.099 7.35 4.417 1.423 12.849 6.402 15.659 7.824 2.811 1.423 17.266 5.691 17.266 5.691s11.644 4.742 16.864 4.742c5.219 0-17.266 2.608-26.501-.475-9.235-3.082-8.03 3.083-8.03 3.083s-5.621-.475-8.432-1.897c-2.811-1.423.401 5.927 6.023 9.01 5.621 3.082 16.061 2.845 18.47 5.927 2.409 3.082 22.083 5.927 22.083 5.927s-6.424 4.031-12.447 1.897c-6.023-2.134-18.47-3.793-20.879-3.082-2.409.711-4.417 3.793-12.849.948-8.431-2.845-29.712-2.371-29.712-2.371s-10.038 4.268-16.864.949c-6.826-3.32-16.864-4.031-16.864-4.031s-9.235-9.958-13.652-12.566c-4.416-2.608-11.242-1.897-15.257-6.402-4.016-4.504 1.606-11.143-1.606-13.277-3.213-2.134-2.41-18.494-7.027-16.597-4.618 1.897-4.216 6.402-4.216 6.402l.803 7.824s-12.849-1.897-12.447-6.402c.401-4.504-6.826-4.03-7.227-6.164-.402-2.134-4.819-14.937-4.819-14.937s2.409-11.618 0-15.886c-2.409-4.267 4.417-7.587 4.819-5.216.401 2.371 13.651 3.794 13.651 3.794s-1.204-4.03-6.826-8.061c-5.621-4.031-13.651-6.64-13.651-9.01 0-2.371.401-4.98-2.008-6.639-2.409-1.66-5.22-6.638-5.22-6.638z" fill="#C16553"/><path fill-rule="evenodd" clip-rule="evenodd" d="M252.241 58.265s5.32-.118 6.926.474c1.606.593 3.413 2.964 3.413 2.964l5.22 1.66s3.011 2.37 5.019 3.793 9.034 4.268 8.03 5.572c-1.003 1.304 8.232 5.453 12.247 6.046 4.015.593 12.648 3.142 13.652 4.268 1.003 1.126 14.053 3.32 15.257 4.03 1.205.712 6.224 4.505 8.633 5.098 2.409.593 14.656 3.32 17.265 4.623 2.61 1.304 12.648 2.964 12.648 2.964l10.239 1.245s-3.614 1.6-9.034 1.6c-5.421 0-2.208 6.757-.803 6.995 1.405.237 11.443 2.133 12.246 3.319a383.302 383.302 0 0 0 2.209 3.201s-8.633.237-11.243-1.186c-2.61-1.422-10.239-1.067-11.243-1.304-1.003-.237-12.045-2.134-14.053-3.201-2.007-1.067-13.049-5.097-15.258-6.52-2.208-1.422-4.416-4.208-8.03-3.971-3.614.237-3.814.06-.401 2.312 3.412 2.252 8.431 2.489 9.636 4.03 1.205 1.541 9.034 5.453 12.648 5.809 3.614.356 9.034 3.319 9.034 3.319s-7.227.356-10.038-.829c-2.811-1.186-9.436-3.32-9.436-3.32l-5.822.474s6.625 3.794 9.637 4.387c3.011.592 7.026 3.319 7.026 3.319s1.807 4.386 5.622 4.861c3.814.474 9.837 6.045 9.837 6.045l2.811 2.371s-13.652-2.963-15.86-4.504c-2.209-1.542-11.645-3.557-14.857-4.387-3.212-.829-5.019-2.371-6.424-3.438-1.405-1.066-8.834-2.963-9.837-3.556-1.004-.593-2.008-2.608-4.618-4.031-2.61-1.422-7.829-4.86-8.833-5.334-1.004-.474-15.86-10.907-15.86-12.803 0-1.897-4.618-5.335-6.023-6.284-1.405-.948-5.621-5.097-7.027-7.587-1.405-2.49-5.822-7.705-6.826-8.298-1.104-.652-7.729-14.226-7.729-14.226zM89.625 60.28s3.011 2.846 4.818 5.217c1.807 2.37 8.232 2.964 9.436 3.793 1.205.83 3.614 3.675 3.815 4.624.2.948 7.026 11.025 6.223 12.329-.803 1.304 4.015 6.046 5.019 6.401 1.004.356 8.633 4.86 6.424 4.86-2.208 0-10.238-1.777-11.844-3.081-1.606-1.304-9.235-2.134-9.436-3.32-.201-1.185-1.606-2.845-1.606-2.845s-1.606 4.624 4.617 8.654c6.224 4.031 15.057 5.216 15.258 5.928.201.711 0 8.416 2.208 9.128 2.209.711 12.448 7.172 12.448 8.772 0 1.66-16.463-4.09-19.474-7.942-3.012-3.912-6.625-7.35-9.837-8.536-3.213-1.185-11.042-2.489-12.247-4.979-1.204-2.49-4.617-6.757-6.023-8.298-1.405-1.541-4.015-6.757-3.814-7.587.2-.83 1.004-6.639-1.205-7.706-2.208-1.067-.2-2.37 0-4.623.201-2.253.201-5.335-.803-6.283-1.004-.949-1.305-2.55-1.305-2.55s3.112-2.31 7.328-1.955zM157.482 115.998s5.22 3.082 8.432 4.624c3.212 1.541 16.462 2.726 17.667 4.623 1.205 1.897 11.443 4.505 12.648 5.097 1.204.593 3.212 4.624 3.614 5.335.401.711 3.011 6.639 9.235 9.01 6.223 2.371 11.644 6.283 11.644 6.283l8.231 3.616h-25.296s-8.432-3.498-11.042-5.632c-2.61-2.133-9.235-5.453-10.239-6.52-1.003-1.067-4.216 3.083-2.208 5.335s-7.027-.119-7.027-3.319c0-3.201 4.618-8.654-1.405-9.721-6.023-1.067-8.432-3.201-9.034-4.624-.602-1.422-5.822-5.097-5.822-5.097s-5.22-2.016-4.818-4.149c.401-2.134-1.606-4.624-4.618-5.454-3.011-.77 10.038.593 10.038.593z" fill="#C16553"/><path fill-rule="evenodd" clip-rule="evenodd" d="M323.913 129.039s8.231-.712 8.833 0c.602.711 6.826 2.015 10.239 2.608 3.413.592 7.829 3.912 7.829 3.912s3.614 4.386 6.626 5.334c3.011.949 7.026 4.979 8.231 5.809 1.204.83 10.64 4.031 10.64 4.031s-1.004 1.422-11.845-1.067c-10.841-2.49-14.856-4.742-15.86-6.283-1.004-1.541-5.22-7.469-7.227-6.876-2.008.593 1.807 3.794 1.807 3.794s-4.016.83-6.023-2.608c-2.008-3.438-5.019-5.454-7.428-5.454-2.41 0-10.841-.592-12.046-1.422s-11.443-1.541-11.443-1.541-7.228-1.779 17.667-.237zM168.624 36.808s1.205 4.386 2.811 5.216c1.606.83 6.826 2.845 6.826 2.845l3.614 3.557s.1-3.201-1.205-4.209c-1.305-1.007-3.413-1.956-4.015-2.37-.603-.416-2.409-4.505-2.409-4.505l-5.622-.534zM160.795 39.18s1.204 2.43 1.204 2.963c0 .533 1.004 2.193 1.606 2.608.603.415 3.514.593 3.514.593s-1.105-.89-2.108-3.142c-1.004-2.252-2.108-2.37-2.209-3.082-.1-.77-5.219-1.719-2.007.06zM164.107 61.94s4.417 1.956 4.417 3.26c0 1.304 1.204 7.765 2.108 8.476.903.712 5.822 6.343 5.822 6.343s5.32 2.311 5.822 2.904c.502.593 1.907-.356-.1-2.43-2.008-2.075-5.12-.83-5.12-4.268 0-3.438.803-5.75-.602-6.638-1.405-.949-1.506-3.972-2.71-5.276-1.406-1.304-9.637-2.37-9.637-2.37zM232.567 79.13s2.71 4.92 3.914 6.046c1.205 1.126 4.417 3.26 5.22 3.97.703.712 3.212 4.21 3.714 4.98.502.77 5.12 1.363 5.32 2.49.201 1.126.904-.178-1.405-2.194-2.309-2.074-4.116-2.074-4.216-3.141-.1-1.067-1.907-4.86-3.413-5.276-1.606-.355-4.216-5.808-9.134-6.875zM205.364 48.425s1.204 1.957 1.304 2.727c.101.711 1.305 2.134 1.807 2.549.502.415 1.406 1.6 1.506 2.193.1.593.602 2.43 1.205 3.023.702.533 4.115.533 4.617 1.245.602.652.502-.593-1.004-1.423-1.606-.83-3.915-.533-3.413-1.244.502-.712.502-1.542.101-1.838-.502-.296-.402-.178-.703-1.185-.301-.949-3.011-2.49-2.71-2.905.401-.533-1.205-3.2-2.71-3.142zM262.48 61.703s-1.004 1.897.301 2.312c1.305.415 1.706 3.023 2.108 3.853.401.83 2.108-.06 1.204-1.127-.903-1.067-1.706-1.067-1.405-1.481.402-.475-1.104-1.6-1.104-1.6v-1.542l-1.104-.415zM269.506 67.571c.402-.059 1.004 1.126 1.406 1.838.401.711 1.004 1.244 1.305 1.482.301.237 2.308.533 2.81 1.126.502.652 1.205-.77-.301-1.186-1.505-.415-1.706-.592-2.108-1.007-.502-.356-3.112-2.253-3.112-2.253zM294.602 139.471s-5.22.593-7.228-.237c-2.007-.83-4.015-.83-6.223-.83-2.209 0-8.633-.948-9.637-1.541-1.004-.593.402-3.201-6.625-4.505-7.027-1.304-11.243-2.015-12.447-3.319-1.205-1.304-9.837-4.031-9.837-4.031s2.409-.948 7.428.83 7.227 2.608 10.841 3.557c3.613.948 7.729 2.845 7.729 2.845s-1.706-3.912-4.919-4.979c-3.212-1.067 4.016-.475 6.625 3.319 2.61 3.794 6.023 4.386 7.027 4.623 1.004.237 9.034 1.304 10.239 1.897 1.204.593 15.358 2.015 7.027 2.371zM259.669 106.811s10.038.948 10.841 2.133c.803 1.186 3.212 2.49 4.216 2.727 1.004.237 3.614 2.371 3.614 2.371l4.617 2.845s5.421.237 6.525.889-1.907.06-3.814.237c-1.907.178-5.622-.889-6.826-1.422-1.205-.534-2.61-1.482-4.718-2.075-2.108-.593-3.915-.948-4.919-1.719-1.003-.77-2.308-2.726-4.718-3.615-2.308-.89-14.755-2.253-4.818-2.371zM172.338 96.853c-.301-.297 0-2.194-1.907-2.964s-2.509-2.786-2.509-3.142c0-.355-2.008-2.193-2.008-2.193s1.506-.593 3.212 1.838c1.707 2.43 5.019 2.311 5.521 3.2.502.89.502 2.43.502 3.38 0 .948 1.506 7.171-2.811-.12zM221.826 93.296s2.911 2.43 2.911 3.26c0 .83.803 1.66 1.104 2.194.301.533 2.71 2.608 2.309 2.845-.402.237-2.108-.889-3.212-1.541-1.105-.652-2.309-2.253-2.309-2.964 0-.711-5.119-4.09-.803-3.794zM300.624 81.56s5.321.474 5.722 1.126c.402.652 1.707 1.304 2.208 1.423.502.118 1.908 1.245 1.908 1.245l2.409 1.481s2.911.119 3.413.475c.502.355-1.004.059-2.008.118-1.004.119-2.911-.474-3.614-.77-.702-.297-1.405-.77-2.509-1.067-1.104-.297-2.008-.474-2.61-.89-.502-.414-1.205-1.422-2.51-1.896-1.104-.474-7.628-1.186-2.409-1.245zM321.503 97.564s-2.609.296-3.613-.119-2.008-.415-3.112-.415-4.316-.474-4.818-.77c-.502-.297.2-1.6-3.313-2.253-3.513-.652-5.621-1.007-6.223-1.66-.603-.651-4.919-2.015-4.919-2.015s1.205-.474 3.714.415c2.51.89 3.614 1.304 5.421 1.778 1.806.475 3.814 1.423 3.814 1.423s-.903-1.956-2.51-2.49c-1.606-.533 2.008-.236 3.313 1.66 1.305 1.897 3.011 2.193 3.513 2.312.502.118 4.517.652 5.12.948.702.297 7.729 1.008 3.613 1.186zM288.478 82.212s-2.61-.237-3.312-.83c-.703-.593-1.707-.77-2.71-1.008-1.004-.237-3.815-1.244-4.116-1.66-.301-.355 1.104-1.481-1.907-2.785-3.012-1.304-4.718-2.016-5.019-2.786-.201-.711-3.514-2.845-3.514-2.845s1.406-.237 3.313 1.126c1.907 1.304 2.71 1.897 4.116 2.727 1.405.77 2.911 2.074 2.911 2.074s.301-2.015-1.004-2.786c-1.205-.83 2.007.178 2.208 2.193.201 2.016 1.606 2.668 2.008 2.846.401.237 3.915 1.481 4.316 1.896.502.415 6.726 2.43 2.71 1.838zM212.892 66.326c-.301-.296 0-2.193-1.907-2.963-1.907-.771-2.51-2.786-2.51-3.142 0-.356-2.007-2.193-2.007-2.193s1.505-.593 3.212 1.837c1.706 2.43 5.019 2.312 5.521 3.201.502.89.502 2.43.502 3.379 0 .948 1.606 7.172-2.811-.119zM180.469 39.475s3.513 2.786 4.919 4.446c1.405 1.66 1.004 3.675 1.807 5.216.803 1.541 4.818 3.912 5.019 4.623.2.712 2.208 2.609 2.81 3.675.603 1.067 5.019-.592 3.012-2.37-2.008-1.779-3.212-3.794-3.212-5.098 0-1.304 2.409 0 3.814 1.304 1.405 1.304 3.212-.237.803-2.37-2.409-2.135-3.714-3.083-3.814-5.217-.101-2.134-4.216-2.43-6.425-3.32-2.308-.83-13.551-2.963-8.733-.889zM201.449 58.561s-.201.474.602 2.371c.803 1.897 2.208 2.134 3.112 3.201.903 1.067 4.316 2.904 4.316 2.904s.201-1.719-1.004-2.963c-1.204-1.245-2.208-1.245-2.911-2.608-.702-1.364-5.42-5.217-4.115-2.905zM223.532 66.979s1.506 1.007 2.409 2.37c.904 1.364 4.116 1.838 4.819 2.905.702 1.067 2.509 4.386 3.212 4.98.702.592-3.815.058-4.718-.653-.903-.711-1.707-3.26-3.011-3.853-1.305-.593-4.518-1.66-4.518-2.963 0-1.245-3.412-4.387 1.807-2.786z" fill="#CE7C72"/><path fill-rule="evenodd" clip-rule="evenodd" d="M205.363 81.56s2.41 2.49 3.012 4.623c.602 2.134 2.409 4.268 3.413 4.505 1.004.237 5.22-.356 6.625.474 1.405.83 5.019 0 6.223 1.778 1.205 1.779 4.819 3.794 6.023 4.743 1.205.948 2.008-.593-.401-2.49-2.409-1.897-2.108-3.971-3.212-4.801-1.105-.83 2.007-1.66 2.609-1.186.603.474.703-.355-.903-2.074-1.606-1.72-2.309-2.608-3.313-3.201-1.003-.593-.903.237-1.204 1.66-.301 1.422 1.305 3.082-.1 3.023-1.406-.06-2.811-.119-3.715-1.186-.903-1.067-.501-1.6-1.706-3.023-1.205-1.422-4.517-1.6-4.617-1.956-.101-.356-3.815-2.549-4.919-3.32-1.104-.77.201.534-1.205.712-1.405.178-4.115-.296-2.61 1.719zM263.082 112.62s-4.015-2.727-7.026-2.609c-3.012.119-5.622-.711-7.429-1.778-1.706-1.067 1.506 4.979 14.455 4.387zM281.753 119.554s-7.428-1.659-10.038-2.489c-2.61-.83-4.818-2.371-6.023-2.016-1.205.356-1.606 2.016 1.205 3.083 2.81 1.067 7.026.237 8.833 1.896 1.807 1.66 16.061.534 6.023-.474zM327.225 119.851s-5.22-.83-7.83-2.49c-2.609-1.659-5.019-3.912-6.424-4.504-1.405-.593-5.22-3.201-5.822-4.031-.602-.83 5.019.83 7.428 2.134 2.409 1.304 7.027 3.556 9.436 4.149s7.629 2.134 8.432 3.912c.803 1.778-4.015-.948-7.228-1.66-3.111-.77 2.008 2.49 2.008 2.49zM230.76 90.391s-.101.178.2.89c.302.71.804.83 1.205 1.244.301.415 1.606 1.126 1.606 1.126s.101-.651-.401-1.126c-.502-.474-.803-.474-1.105-1.007-.2-.534-2.007-2.016-1.505-1.127zM255.955 114.161s.101.296 1.104 1.244c1.004.949 1.807.949 2.61 1.423.803.474 3.112 1.126 3.112 1.126s-.502-1.007-1.506-1.541c-1.004-.533-1.505-.415-2.308-1.126-.803-.652-4.417-2.253-3.012-1.126zM237.385 112.204s-6.123-3.852-7.93-5.394c-1.807-1.541-2.309-3.556-4.116-3.675-1.807-.118-4.417 1.127-2.61 2.964 1.707 1.838 7.529 2.549 7.328 4.505-.1 1.956 17.265 5.75 7.328 1.6z" fill="#CE7C72"/></svg>