<svg width="375" height="150" fill="none" xmlns="http://www.w3.org/2000/svg" viewBox="0 0 375 150"><path fill-rule="evenodd" clip-rule="evenodd" d="M376 0H-1v151h377V0z" fill="#F5FCFF"/><path d="M94.25 131.9l-2.205-54.2-19.251-1-3.61 15.4.802 39.8h24.265z" fill="#B8CCDA"/><path d="M72.794 131.9V76.7l-7.62 4.3-1.104 20.5-6.316 3.6-.2 26.8h15.24z" fill="#7DA2B4"/><path d="M113.903 131.9V94l-15.14-.4-5.816 12.3 1.103 26h19.853z" fill="#B8CCDA"/><path d="M98.763 131.9V93.6L86.83 97l-1.705 16.4-9.926 2.9-.2 15.6h23.763z" fill="#7DA2B4"/><path d="M113.402 131.9v-19.4l-6.217-.2-8.523 8.2 1.003 11.4h13.737z" fill="#B8CCDA"/><path d="M107.185 131.9v-19.6l-14.84 8.5v4l-17.145-.1-.1 7.2h32.085z" fill="#7DA2B4"/><path d="M113.903 131.9v-27.5l-.501-.1v27.6h.501zM64.07 131.9l.702-43.5-6.016-.6-.902 12 .2 32.1h6.016z" fill="#B8CCDA"/><path d="M58.756 131.9V87.8l-1.804 3.3-.301 16.1-1.504 2.8-.1 21.9h3.71z" fill="#7DA2B4"/><path d="M56.55 131.9l-.5-31.6-4.713-.5-.903 8.7.2 23.4h5.916z" fill="#B8CCDA"/><path d="M51.337 131.9V99.8l-1.906 2.4-.2 11.6-1.604 2v16.1h3.71z" fill="#7DA2B4"/><path d="M30.28 97.3l1.505 34.6H19.05l-1.605-1.1-.5-25.6 2.105-8.4 11.23.5z" fill="#B8CCDA"/><path d="M14.037 110.4l.602-11.3 4.412-2.3v35.1l-8.824-2.6.1-16.9 3.71-2z" fill="#7DA2B4"/><path d="M53.743 131.9l-2.206-25.4-17.346-.4-3.41 6.7.803 19.1h22.159z" fill="#B8CCDA"/><path d="M34.19 131.9v-25.8l-7.018 1.9-.902 9-5.816 1.6-.2 13.3H34.19z" fill="#7DA2B4"/><path d="M42.714 131.9v-15.4l-3.61-.1-5.013 4.5 1.002 11h7.62z" fill="#7DA2B4"/><path d="M39.104 131.9v-15.5l-8.623 4.7v2.2l-10.027-.1-.1 8.7h18.75z" fill="#7DA2B4"/><path d="M62.566 131.9v-36h-4.712l-2.707 6.1 1.103 29.9h6.316z" fill="#B8CCDA"/><path d="M42.714 131.9H60.16v-36h-3.81l-4.813 6.6V114l-8.823-2.1v20z" fill="#7DA2B4"/><path d="M42.714 111.9l8.823-.4v2.5l-8.823-2.1z" fill="#7DA2B4"/><path d="M13.636 103.3l.401 27.6H10.93l-.401-.9-.1-20.4.501-6.7 2.707.4z" fill="#B8CCDA"/><path d="M9.726 113.8l.1-9.1 1.103-1.8v28l-2.206-2.1.1-13.5.903-1.5z" fill="#7DA2B4"/><path d="M9.325 109.8l.4 21.2H6.619l-.401-.7-.1-15.7.5-5.1 2.708.3z" fill="#B8CCDA"/><path d="M5.314 117.8l.2-6.9 1.104-1.4V131l-2.206-1.6v-10.3l.902-1.3z" fill="#7DA2B4"/><path d="M148.194 132l.802-25.5-4.411-12.5-22.961.8-2.206 37.2h28.776z" fill="#B8CCDA"/><path d="M162.633 132l-.101-15-7.62-2.9-1.303-16.6-9.024-3.5v38h18.048z" fill="#7DA2B4"/><path d="M119.718 132l.803-14.3-6.618-9.7v24h5.815z" fill="#C9C3C3"/><path d="M141.877 132l-.1-5.9-11.831-2.3-2.106-13.3-13.937-2.7V132h27.974z" fill="#7DA2B4"/><path d="M162.131 132l.201-19.3-1.003-9.7-5.615.6-.601 28.4h7.018z" fill="#B8CCDA"/><path d="M165.741 132l-.1-11-1.805-2.3-.301-13-2.206-2.7v29h4.412z" fill="#7DA2B4"/><path d="M171.055 132l.2-12.2-1.102-7.1-5.615.5-.401 18.8h6.918z" fill="#B8CCDA"/><path d="M174.564 132v-6.2l-1.905-1.7-.301-9.4-2.205-2V132h4.411z" fill="#7DA2B4"/><path d="M210.66 132l.502-14.9-2.607-6.8-13.235.4-1.404 21.3h16.744z" fill="#C9C3C3"/><path d="M219.083 132v-9l-4.412-1.6-.802-9.2-5.314-1.9V132h10.528z" fill="#ADACAC"/><path d="M194.116 132l.502-8.7-4.011-5.5-20.755.4-1.705 13.8h25.969z" fill="#C9C3C3"/><path d="M207.051 132l-.101-4-6.818-1.3-1.203-7.3-8.322-1.6V132h16.444z" fill="#ADACAC"/><path d="M190.406 132l.301-2.2-5.916-3.6-4.311.1v5.7h9.926z" fill="#ADACAC"/><path d="M206.95 132v-.3l-11.931.1V130l-10.227-3.8v5.8h22.158z" fill="#ADACAC"/><path d="M164.638 132l1.003-17.5-3.209-5h-5.615V132h7.821z" fill="#C9C3C3"/><path d="M180.48 132v-9.4l-10.628 1.7.1-9.4-5.715-5.4h-4.512V132h20.755z" fill="#ADACAC"/><path d="M180.48 122.6l-10.628-.4v2.1l10.628-1.7z" fill="#ADACAC"/><path d="M218.882 132l.1-11.3-.701-5.5-3.209.4-.301 16.4h4.111z" fill="#C9C3C3"/><path d="M220.887 132v-6.7l-1.102-1.2-.201-7.4-1.303-1.5V132h2.606z" fill="#ADACAC"/><path d="M223.996 132l.1-7.2-.602-4.2-3.208.3-.301 11.1h4.011z" fill="#C9C3C3"/><path d="M226.001 132v-3.6l-1.003-1-.2-5.7-1.304-1.1V132h2.507z" fill="#ADACAC"/><path d="M329.175 132l-1.604-61.8-13.335-1.1-2.507 16.6.602 46.3h16.844z" fill="#B8CCDA"/><path d="M314.236 132V69.1l-5.214 4.6-.802 22.2-4.412 3.9-.1 32.2h10.528z" fill="#7DA2B4"/><path d="M346.923 132V88l-14.74-.6-3.91 13.3.802 31.3h17.848z" fill="#B8CCDA"/><path d="M332.183 132V87.4l-8.221 3.7-1.204 17.7-6.818 3.1-.2 20.1h16.443z" fill="#7DA2B4"/><path d="M342.411 132v-24.1l-4.312-.3-6.016 8.9.903 15.5h9.425z" fill="#7DA2B4"/><path d="M338.099 132v-24.4l-10.327 9.2v4.4l-11.832-.2-.1 11h22.259zM346.923 132v-31.4l-4.512-1.7V132h4.512z" fill="#7DA2B4"/><path d="M308.22 132l-.401-50.1-3.309-.8-.602 13.2.201 37.7h4.111z" fill="#B8CCDA"/><path d="M304.51 132V81.1l-1.203 3.6-.201 17.8-1.103 3.1V132h2.507z" fill="#7DA2B4"/><path d="M303.006 132l-.401-37.3-3.209-.7-.601 10.2.1 27.8h4.111z" fill="#B8CCDA"/><path d="M299.396 132V94l-1.303 2.9-.201 13.6-1.103 2.4V132h2.607z" fill="#7DA2B4"/><path d="M269.717 132V99.9l-.401 4 .201 28.1h.2z" fill="#C9C3C3"/><path d="M269.717 132V92.8l-1.504 2.2-.3 16.4-1.906 2.8V132h3.71z" fill="#ADACAC"/><path d="M246.957 132l-1.705-43.8-13.235-.7-2.607 11.8.602 32.7h16.945z" fill="#C9C3C3"/><path d="M232.017 132V87.5l-5.314 3.3-.802 15.8-4.412 2.8-.1 22.6h10.628z" fill="#ADACAC"/><path d="M269.717 132v-30.9l-19.752-.6-4.011 9.5.802 22h22.961z" fill="#C9C3C3"/><path d="M249.965 132v-31.5l-8.322 2.7-1.204 12.6-6.818 2.2-.2 14h16.544z" fill="#ADACAC"/><path d="M260.092 132v-16.9l-4.312-.1-5.915 6.3.802 10.7h9.425z" fill="#ADACAC"/><path d="M255.78 132v-17l-10.227 6.5v3.2l-11.932-.2-.1 7.5h22.259zM269.717 132v-20.6l-9.625-2.6V132h9.625z" fill="#ADACAC"/><path d="M269.717 108.2v3.2l-9.625-2.6 9.625-.6z" fill="#ADACAC"/><path d="M225.901 132l-.401-35.4-3.209-.6-.702 9.5.201 26.5h4.111z" fill="#C9C3C3"/><path d="M222.291 132V96l-1.303 2.6-.201 12.7-1.103 2.2V132h2.607z" fill="#ADACAC"/><path d="M220.687 132l-.401-26.3-3.209-.4-.601 7.2.1 19.5h4.111z" fill="#C9C3C3"/><path d="M217.077 132v-26.7l-1.303 2-.201 9.7-1.002 1.7-.101 13.3h2.607z" fill="#ADACAC"/><path d="M302.204 132v-31.8h-11.33l-.101-14h-4.512V69h-1.203V55.9h-2.908v-1.5c-.601-2-1.303-2.8-2.005-2.9l-.702-34v34c-1.203.5-2.105 2.8-2.105 2.8v.8l-2.307 1-.601-.1-2.407.9v12.5l-6.116.1V87l-4.111.2v14.2h-5.113l-10.227-.1V132h55.748z" fill="#7DA2B4"/><path d="M287.866 132h6.918v-31.9H282.05v2.4l5.816.1V132zM279.844 132l.802-29.4H267.01l-.702 29.4h13.536zM256.282 132l.401-30.5-10.227-.1V132h9.826zM272.725 102.6l.201-33.1-7.219.1v17.5l-4.111.2v14.2l11.129 1.1zM277.237 54.5l-.3 14.4h-5.114V57l7.119-5.2-1.705 2.7z" fill="#B8CCDA"/><path d="M132.753 7.3s.1-.1.1-.4h-.501c.401.1.401.4.401.4z" fill="#999896"/><path d="M371.288 132l-2.206-53.9-19.252-1-3.709 15.3.802 39.6h24.365z" fill="#7DA2B4"/><path d="M349.831 132V77.1l-7.621 4.2-1.103 20.5-6.317 3.6-.2 26.6h15.241z" fill="#B8CCDA"/><path d="M390.94 132V94.4L375.8 94l-5.816 12.2 1.003 25.8h19.953z" fill="#7DA2B4"/><path d="M375.8 132V94l-11.932 3.4-1.705 16.3-9.926 2.9-.201 15.4H375.8z" fill="#B8CCDA"/><path d="M384.222 132v-19.4l-14.84 8.5v4l-17.145-.1-.1 7h32.085z" fill="#B8CCDA"/><path d="M341.007 132l-.501-43.1-4.713-.8-.902 12 .2 31.9h5.916z" fill="#7DA2B4"/><path d="M335.793 132V88.1l-1.805 3.4-.301 16-1.604 2.8V132h3.71z" fill="#B8CCDA"/><path d="M333.587 132l-.601-31.3-4.613-.6-.902 8.7.201 23.2h5.915z" fill="#7DA2B4"/><path d="M328.373 132v-31.9l-1.905 2.4-.2 11.6-1.604 2.1V132h3.709zM295.787 132h13.034l-1.604-34.4-11.129-.5-2.106 8.4.501 25.6 1.304.9z" fill="#B8CCDA"/><path d="M296.087 132V97.1l-4.411 2.3-.602 11.4-3.71 1.9-.1 17 8.021 2.3h.802z" fill="#7DA2B4"/><path d="M330.78 132l-2.206-25.1-17.446-.5-3.309 6.8.802 18.8h22.159z" fill="#B8CCDA"/><path d="M311.128 132v-25.6l-6.919 1.9-1.003 9-5.715 1.6-.2 13.1h13.837z" fill="#7DA2B4"/><path d="M319.65 132v-15.2l-3.609-.1-4.913 4.5 1.002 10.8h7.52z" fill="#7DA2B4"/><path d="M316.041 132v-15.3l-8.523 4.7v2.2l-10.027-.1-.1 8.5h18.65z" fill="#7DA2B4"/><path d="M339.503 132V96.2h-4.713l-2.606 6.1 1.102 29.7h6.217z" fill="#B8CCDA"/><path d="M319.65 132h17.547V96.2h-3.911l-4.712 6.6v11.6l-8.924-2.1V132z" fill="#7DA2B4"/><path d="M319.65 112.3l8.924-.5v2.6l-8.924-2.1z" fill="#7DA2B4"/><path d="M290.673 103.6l.401 27.6h-3.108l-.401-.9-.201-20.4.602-6.7 2.707.4z" fill="#B8CCDA"/><path d="M286.662 114.1l.201-9 1.103-1.9v28l-2.206-2v-13.5l.902-1.6z" fill="#7DA2B4"/><path d="M286.362 110.1l.3 21.2h-3.008l-.401-.6-.2-15.7.601-5.2 2.708.3z" fill="#B8CCDA"/><path d="M282.351 118.2l.201-7 1.102-1.4v21.5l-2.205-1.5v-10.4l.902-1.2z" fill="#7DA2B4"/><path d="M173.261 113l-1.504-4-.201-14.8h-1.303l-.1 37.8h3.108v-19z" fill="#ADACAC"/><path d="M203.541 132l.401-40.4-2.105-17-11.13 1.1-1.303 56.3h14.137z" fill="#C9C3C3"/><path d="M210.66 132l-.1-25.9-3.61-4-.701-22.8-4.412-4.7V132h8.823z" fill="#ADACAC"/><path d="M189.604 132l.502-25-3.309-13.6-16.644.8V132h19.451z" fill="#C9C3C3"/><path d="M200.533 132l-.1-13.5-5.715-3.1-1.003-18.2-6.918-3.8V132h13.736z" fill="#ADACAC"/><path d="M186.396 132l.501-8.8-5.013-9-3.61.2V132h8.122z" fill="#ADACAC"/><path d="M200.533 132l-.1-4.1-9.926.2v-4.5l-8.623-9.4V132h18.649zM178.274 132v-26.8l-8.121 3.8v23h8.121z" fill="#ADACAC"/><path d="M170.153 104.4v4.6l8.121-3.8-8.121-.8z" fill="#ADACAC"/><path d="M210.46 132l.1-31.5-.602-13.6-3.509.3.501 44.8h3.51z" fill="#C9C3C3"/><path d="M212.164 132v-20l-.902-3.1-.201-18.2-1.103-3.8V132h2.206z" fill="#ADACAC"/><path d="M214.771 132l.101-21.4-.502-10.4-2.807.7-.201 31.1h3.409z" fill="#C9C3C3"/><path d="M216.476 132v-12.5l-.903-2.4-.2-14-1.003-2.9V132h2.106z" fill="#ADACAC"/><path d="M257.485 132V93l-8.623.1h-4.011V75.8l-3.509-.3V54.3l-5.114-.1V37.9h-2.105v-1.1h-2.407v-.9h-4.111v1.8h-2.506v15.9h-1.003v20.8h-3.81l-.1 17h-9.425V132h46.724z" fill="#7DA2B4"/><path d="M222.692 132V94.4l4.913-.1v-2.9h-10.728V132h5.815zM240.841 132l-.602-37.6h-11.43l.601 37.6h11.431zM257.485 132V93l-8.623.1.401 38.9h8.222zM235.426 94.4l-.2-40.3 6.116.2v21.2l3.509.3v17.3l-9.425 1.3zM231.716 35.9l.201 17.6h4.311V37.9h-2.105v-1.1l-2.407-.9z" fill="#B8CCDA"/><path d="M163.936 131.3l-2.206-31.1-19.251-.6-3.61 8.8.803 22.9h24.264z" fill="#C9C3C3"/><path d="M142.479 131.3V99.6l-7.62 2.5-1.103 11.8-6.317 2-.201 15.4h15.241z" fill="#ADACAC"/><path d="M183.588 131.3v-21.7l-15.14-.3-5.815 7.1 1.103 14.9h19.852z" fill="#C9C3C3"/><path d="M168.448 131.3v-22l-11.932 2-1.704 9.4-9.927 1.6-.2 9h23.763z" fill="#ADACAC"/><path d="M183.087 131.3v-11.1l-6.217-.1-8.623 4.6 1.103 6.6h13.737z" fill="#C9C3C3"/><path d="M176.87 131.3v-11.2l-14.839 4.8v2.3h-17.146l-.1 4.1h32.085zM183.588 131.299v-15.8l-.501-.1v15.9h.501z" fill="#ADACAC"/><path d="M133.756 131.3l-.602-24.9-4.712-.4-.903 6.9.201 18.4h6.016z" fill="#C9C3C3"/><path d="M128.442 131.3V106l-1.805 1.9-.301 9.2-1.504 1.6-.1 12.6h3.71z" fill="#ADACAC"/><path d="M126.236 131.299l-.502-18.1-4.712-.3-.902 4.9.2 13.5h5.916z" fill="#C9C3C3"/><path d="M121.022 131.299v-18.4l-1.905 1.3-.201 6.7-1.604 1.2v9.2h3.71z" fill="#ADACAC"/><path d="M99.966 111.5l1.504 19.8H88.736l-1.604-.6-.502-14.7 2.106-4.9 11.23.4z" fill="#C9C3C3"/><path d="M83.723 119l.601-6.5 4.412-1.4v20.2l-8.823-1.5.1-9.7 3.71-1.1z" fill="#ADACAC"/><path d="M123.428 131.3l-2.206-14.6-17.346-.2-3.409 3.9.802 10.9h22.159z" fill="#C9C3C3"/><path d="M103.876 131.3v-14.8l-7.018 1.1-.903 5.1-5.815.9-.2 7.7h13.936z" fill="#ADACAC"/><path d="M112.399 131.299v-8.8l-3.71-.1-4.913 2.6 1.003 6.3h7.62z" fill="#ADACAC"/><path d="M108.689 131.299v-8.9l-8.523 2.7v1.3l-10.026-.1-.1 5h18.649z" fill="#ADACAC"/><path d="M132.252 131.3v-20.7h-4.713l-2.707 3.5 1.103 17.2h6.317z" fill="#C9C3C3"/><path d="M112.399 131.3h17.446v-20.7h-3.91l-4.713 3.8v6.6l-8.823-1.2v11.5z" fill="#ADACAC"/><path d="M112.399 119.8l8.823-.2v1.4l-8.823-1.2z" fill="#ADACAC"/><path d="M83.322 114.9l.4 15.8h-3.108l-.4-.5-.1-11.7.5-3.9 2.708.3z" fill="#C9C3C3"/><path d="M79.411 120.9l.1-5.2 1.103-1.1v16.1l-2.205-1.1.1-7.8.902-.9z" fill="#ADACAC"/><path d="M79.01 118.599l.401 12.2h-3.108l-.401-.4-.2-9 .601-3 2.707.2z" fill="#C9C3C3"/><path d="M75 123.199l.2-3.9 1.103-.9v12.4l-2.206-.9v-6l.903-.7z" fill="#ADACAC"/><path d="M217.879 131.5l.702-14.8-4.311-7.1-22.961.4-2.206 21.5h28.776z" fill="#C9C3C3"/><path d="M232.318 131.5l-.1-8.7-7.621-1.7-1.303-9.5-9.024-2v21.9h18.048z" fill="#ADACAC"/><path d="M189.404 131.5l.802-8.4-6.618-5.5v13.9h5.816z" fill="#C9C3C3"/><path d="M211.563 131.5l-.101-3.5-11.831-1.4-2.106-7.6-13.937-1.5v14h27.975z" fill="#ADACAC"/><path d="M190.908 131.499v-1.4l-7.32-1.7v3.1h7.32z" fill="#ADACAC"/><path d="M231.817 131.5l.2-11.2-1.103-5.6-5.514.4-.602 16.4h7.019z" fill="#C9C3C3"/><path d="M235.426 131.5l-.1-6.4-1.805-1.3-.301-7.5-2.306-1.6v16.8h4.512z" fill="#ADACAC"/><path d="M240.74 131.5l.201-7.2-1.103-4-5.615.3-.501 10.9h7.018z" fill="#C9C3C3"/><path d="M244.25 131.5v-3.7l-1.905-1-.301-5.4-2.206-1.1v11.2h4.412z" fill="#ADACAC"/><path d="M271.823 119l-6.818.2-1.404 12.3h8.222V119z" fill="#C9C3C3"/><path d="M263.802 131.5l.501-5.1-4.011-3.2-20.755.2-1.805 8.1h26.07z" fill="#C9C3C3"/><path d="M271.823 128.5l-2.106-.2-1.103-4.2-8.322-.9v8.3h11.531v-3z" fill="#ADACAC"/><path d="M260.092 131.5l.301-1.4-5.916-2.1-4.312.1v3.4h9.927z" fill="#ADACAC"/><path d="M271.823 131.2h-7.119v-1l-10.227-2.2v3.5h17.346v-.3z" fill="#ADACAC"/><path d="M234.323 131.5l1.003-10.2-3.209-2.8h-5.615v13h7.821z" fill="#C9C3C3"/><path d="M250.165 131.5V126l-10.628.9.1-5.4-5.715-3h-4.612v13h20.855z" fill="#ADACAC"/><path d="M250.165 125.999l-10.628-.2v1.1l10.628-.9z" fill="#ADACAC"/><path d="M202.438 59.8s.101-.1.101-.2h-.502c.401.1.401.2.401.2z" fill="#999896"/><path d="M3.41 132l-.101-15.7-3.71-2.3-.702-13.1-4.412-2.7V132H3.41z" fill="#B8CCDA"/><path d="M3.108 132l.1-18.9-.5-7.8-3.61.1.501 26.6h3.51z" fill="#7DA2B4"/><path d="M4.813 132v-12.3l-.903-1.8-.2-10.5-1.003-2.1V132h2.106z" fill="#B8CCDA"/><path d="M7.42 132l.1-13.1-.501-6-2.707.4L4.01 132H7.42z" fill="#7DA2B4"/><path d="M9.124 132v-8l-.902-1.4-.1-8-1.103-1.7V132h2.105z" fill="#B8CCDA"/><path d="M50.133 132v-23.2l-8.623.1H37.5v-10l-3.51-.1V86.6l-5.113-.1v-9.3H26.77v-.7h-2.406V76h-4.111v1h-2.507v9.2h-1.002v11.9h-3.81l-.1 9.8H3.408V132h46.724z" fill="#7DA2B4"/><path d="M15.34 132v-22.4l4.914-.1v-1.6H9.626V132h5.715zM33.49 132l-.602-22.4h-11.43l.701 22.4h11.33zM50.133 132v-23.2l-8.623.1.401 23.1h8.222zM28.075 109.6l-.1-23.1 6.015.1v12.2l3.51.1v10l-9.425.7zM24.365 76l.2 10.1h4.312v-8.9H26.77v-.7l-2.406-.5z" fill="#B8CCDA"/><path d="M14.74 112.6h.6l.101 3.8h-.702v14.9h246.155l-.201-36.3-16.343-.3-13.436.3v-9.1L220.687 83h-18.75l-10.528 2.7v15.2h-23.763v-3.4h-3.71v-12l-.702-1.6h-2.206v-4.2h-1.002v-3.1h-11.431V80h-1.404v3.8l-3.108.1-.501 18.3h-6.618v25l-35.093.3v-10.2h-2.607v-1.9l-3.108-1.3v-4.4l-1.003-.2v-1.7H86.63v-10l-2.406.1v-1.7s-3.008-2.9-7.22-3.5l-2.506.1v-2.5l-21.758.3v.9l-3.409.2-3.309 1.6-.4 18.5-30.883.2v.6z" fill="#B8CCDA"/><path d="M260.693 95.4h-12.934v35.899h12.934v-35.9z" fill="#7DA2B4"/><path d="M260.894 99.4h-1.003v27.099h1.003v-27.1zM214.972 87.7h-10.929v1.2h10.929v-1.2zM214.972 89.7h-10.929v1.2h10.929v-1.2zM214.972 91.7h-10.929v1.2h10.929v-1.2zM214.972 93.8h-10.929V95h10.929v-1.2zM214.972 95.7h-10.929v1.2h10.929v-1.2zM214.972 97.5h-10.929v1.2h10.929v-1.2zM214.972 99.3h-10.929v1.2h10.929v-1.2zM214.069 103.2h-2.306v1h2.306v-1zM214.069 105h-2.306v1h2.306v-1zM217.579 105h-2.306v1h2.306v-1zM217.579 103.3h-2.306v1h2.306v-1zM214.069 107.1h-2.306v1h2.306v-1zM214.069 108.8h-2.306v1h2.306v-1zM217.579 108.8h-2.306v1h2.306v-1zM217.579 107.1h-2.306v1h2.306v-1zM214.069 111h-2.306v1h2.306v-1zM214.069 112.7h-2.306v1h2.306v-1zM217.579 112.7h-2.306v1h2.306v-1zM217.579 111h-2.306v1h2.306v-1zM214.069 114.899h-2.306v1h2.306v-1zM214.069 116.7h-2.306v1h2.306v-1zM217.579 116.7h-2.306v1h2.306v-1zM217.579 115h-2.306v1h2.306v-1zM214.069 118.7h-2.306v1h2.306v-1zM214.069 120.399h-2.306v1h2.306v-1zM217.579 120.399h-2.306v1h2.306v-1zM217.579 118.7h-2.306v1h2.306v-1zM214.069 122.399h-2.306v1h2.306v-1zM214.069 124.1h-2.306v1h2.306v-1zM217.579 124.1h-2.306v1h2.306v-1zM217.579 122.399h-2.306v1h2.306v-1z" fill="#ADADAD"/><path d="M224.397 104.3h-2.106v27h2.106v-27zM192.813 102.5h-25.769v28.8h25.769v-28.8zM164.838 102.5h-11.631v28.8h11.631v-28.8zM244.851 95.2h-12.132v36.1h12.132V95.2zM143.281 103.3h-6.417v28h6.417v-28zM159.424 76.9h-6.217V80h6.217v-3.1zM160.928 80.7h-6.217v3.2h6.217v-3.2zM162.633 85.4h-4.813v15.299h4.813v-15.3zM166.944 98.1h-2.607v2.8h2.607v-2.8zM217.579 86.1h-13.536v45.1h13.536V86.1zM130.848 128.899h-28.476v2.4h28.476v-2.4zM100.467 118.3h-5.113v12.9h5.113v-12.9zM93.448 108.899h-6.116v5.8h6.117v-5.8zM91.042 116.8h-5.615v14.5h5.615v-14.5zM49.732 131.3l-.2-39.5-3.31 1.6v37.9h3.51zM46.123 113.399H16.745v3.2h29.378v-3.2zM42.513 117.7h-9.525v13.6h9.525v-13.6zM78.81 92.8h-4.312v38.5h4.312V92.8zM84.224 97.9h-1.905v33.399h1.905v-33.4zM27.373 117.2H16.744v14.1h10.629v-14.1z" fill="#7DA2B4"/><path d="M106.683 120.4v-1.9l-3.108-1.3v-4.4l-1.002-.2v-1.7H94.05v-10.1l-2.406.1v-1.7s-3.009-2.9-7.22-3.5l-2.506.1v-2.5l-21.758.3v.9l-3.41.2-3.308 1.6-.401 18.5-33.389.2v.6h3.108l.1 3.8h-1.804l.2 9.3H14.84v2.4h93.348v-10.9h-1.504v.2z" fill="#7DA2B4"/><path d="M107.887 121.4h-5.114v9.9h5.114v-9.9zM100.868 112h-6.116v5.8h6.116V112zM98.462 119.8h-5.615v11.5h5.615v-11.5zM57.152 131.3l-.2-36.4-3.41 1.6v34.8h3.61zM53.542 116.4H24.164v3.2h29.378v-3.2zM49.933 120.7h-9.526v10.5h9.526v-10.5zM86.13 95.9h-4.312v35.4h4.311V95.9zM91.644 101h-1.905v30.3h1.905V101zM34.792 120.2H24.164v11h10.628v-11z" fill="#B8CCDA"/><path d="M19.251 129H14.74v2.3h4.512V129z" fill="#ADADAD"/><path d="M360.559 99.4h-19.452V96h-3.71V84l-.702-1.6h-2.205v-4.2h-1.003v-3.1h-11.43v3.3h-1.404v3.8l-3.108.1-.502 18.3h-6.617v25l-35.094.3v-10.2h-2.506v-1.9l-3.109-1.3v-4.4l-1.002-.2v-1.7h-8.523v-9.9l-2.406.1v-1.7s-3.008-2.9-7.22-3.5l-2.506.1v-2.5l-21.758.3v.9l-3.409.2-3.309 1.6-.401 18.5-33.389.2v.6h3.108l.101 3.8h-1.905l.2 9.3-26.47.2v6.8h-3.409v-1.9l-5.515-.2v-2.9l-6.918-.2v-4.9l-26.371-.1v1.7h-13.836V97.9l-1.605-.2v-7.6h-2.506v-2l-1.204-.1v-1.8H82.019v2.2h-1.805v1.9l-2.607.2v7.2h-4.01v33.4h287.063V99.4h-.1z" fill="#B8CCDA"/><path d="M360.659 100.899h-20.053v30.3h20.053v-30.3zM338.4 101h-11.631v30.3H338.4V101zM316.843 101.8h-6.417v29.5h6.417v-29.5zM332.986 75.4h-6.217v3.1h6.217v-3.1zM334.49 79.1h-6.217v3.2h6.217v-3.2zM336.194 83.9h-4.813v15.3h4.813V83.9zM340.506 96.6h-2.607v2.8h2.607v-2.8zM304.41 127.399h-28.476v3.9h28.476v-3.9zM274.029 116.8h-5.114v14.5h5.114v-14.5zM267.01 107.399h-6.116v5.8h6.116v-5.8zM264.604 115.2h-5.615v16.1h5.615v-16.1zM223.294 131.3l-.201-41-3.308 1.6v39.4h3.509zM219.684 111.8h-29.378v3.2h29.378v-3.2zM216.075 116.2h-9.526v15.1h9.526v-15.1zM252.371 91.3h-4.311v40h4.311v-40zM257.786 96.4h-1.906v34.899h1.906v-34.9zM200.934 115.7h-10.628v15.6h10.628v-15.6zM185.493 124.399h-24.565v6.9h24.565v-6.9zM156.316 129.1h-4.312v2.2h4.312v-2.2zM145.286 121.1h-5.113v10.2h5.113v-10.2zM118.916 122.7h-2.607v8.6h2.607v-8.6zM104.979 98h-11.53v33.3h11.53V98zM101.269 90.3h-11.43V98h11.43v-7.7z" fill="#7DA2B4"/><path d="M99.866 88.4H88.134v1.9h11.732v-1.9zM98.362 86.5h-11.23v1.9h11.23v-1.9z" fill="#7DA2B4"/><path d="M91.443 131.3v-7.6l-24.766-.2.2-9.3h-1.904l.1-3.8h3.008v-.6l-25.869-.2v21.7h49.231z" fill="#C6C1C2"/><path d="M63.67 111.1H42.211v3.2H63.67v-3.2zM47.426 115.5h-5.214v15.8h5.214v-15.8zM63.67 115H53.04v16.3h10.628V115zM91.543 123.7h-22.96v7.6h22.96v-7.6z" fill="#ADADAD"/><path d="M187.9 131.3v-29.7h-4.011v-7.2l-2.707-.2v-2h-1.805V90h-17.446v1.9h-1.304v2h-2.506v7.6l-1.605.2v24.7H142.78v-1.7l-26.37.1v5l-6.919.1v1.4H187.9zM100.467 131.3v-3.2l-26.37-.1.1-9.3h-1.905l.2-3.8h3.009v-.6l-33.289-.3v17.3h58.255z" fill="#B8CCDA"/><path d="M71.09 115.6H42.211v3.2H71.09v-3.2zM54.846 119.899H45.32v11.4h9.525v-11.4zM71.09 119.399H60.46v11.9h10.63v-11.9zM100.567 128.1H76.002v3.1h24.565v-3.1zM121.222 124.799h-5.113v6.5h5.113v-6.5zM144.986 126.399h-2.607v4.9h2.607v-4.9zM167.947 101.7h-11.531v29.6h11.531v-29.6zM171.556 94h-11.43v7.7h11.43V94z" fill="#7DA2B4"/><path d="M173.261 92.2H161.53v1.9h11.731v-1.9zM174.364 90.2h-11.23v1.9h11.23v-1.9z" fill="#7DA2B4"/><path d="M169.952 131.299h111.797v-12.4h-1.403v-1.9l-3.109-1.3v-4.4l-1.002-.2v-1.7h-8.523v-10.1l-2.406.1v-1.7s-3.008-2.9-7.22-3.5l-2.506.1v-2.5l-21.959.4v.9l-3.409.2-3.309 1.6-.401 18.5-33.388.2v.6h3.108l.1 3.8h-1.905l.201 9.3-24.867.2v3.8h.201z" fill="#C6C1C2"/><path d="M281.449 119.899h-5.114v11.4h5.114v-11.4zM274.43 110.399h-6.116v5.8h6.116v-5.8zM272.023 118.299h-5.614v13h5.614v-13zM230.714 131.299l-.201-37.9-3.409 1.6v36.3h3.61zM227.104 114.899h-29.378v3.2h29.378v-3.2zM223.494 119.199h-9.525v12.1h9.525v-12.1zM259.691 94.3h-4.312v36.899h4.312v-36.9zM265.205 99.5H263.3v31.8h1.905V99.5zM208.354 118.699h-10.628v12.6h10.628v-12.6zM192.913 127.5h-22.961v3.8h22.961v-3.8z" fill="#ADADAD"/><path d="M14.74 112.7v18.6h293.279l-.301-46.2-16.343-.3-13.436.3V76l-10.227-2.9h-18.75l-10.528 2.7V91h-23.763v-3.4h-3.71V75.7l-.702-1.6h-2.206v-4.2h-1.002v-3.1H195.62v3.3h-1.403v3.8l-3.109.1-.501 18.3h-6.618v25l-35.093.3v-10.2h-2.507v-1.9l-3.108-1.3v-4.4l-1.003-.2V98h-8.522V87.9l-2.407.1v-1.7s-3.008-2.9-7.219-3.5l-2.507.1v-2.5l-21.757.3v.9l-3.41.2-3.308 1.6-.401 18.5-33.39.2v.6h3.11l.1 3.8H60.66l.2 9.3-26.47.2v6.8h-3.509v-1.9l-5.515-.2v-2.9l-6.918-.2v-4.9h-3.71z" fill="#7DA2B4"/><path d="M307.718 85.5h-12.934v45.8h12.934V85.5z" fill="#B8CCDA"/><path d="M308.019 89.5h-1.002v27.1h1.002V89.5z" fill="#7DA2B4"/><path d="M262.097 77.8h-10.929V79h10.929v-1.2zM262.097 79.8h-10.929V81h10.929v-1.2zM262.097 81.8h-10.929V83h10.929v-1.2zM262.097 83.9h-10.929v1.2h10.929v-1.2zM262.097 85.8h-10.929V87h10.929v-1.2zM262.097 87.6h-10.929v1.2h10.929v-1.2zM262.097 89.4h-10.929v1.2h10.929v-1.2zM261.094 93.3h-2.306v1h2.306v-1zM261.094 95.1h-2.306v1h2.306v-1zM264.704 95.1h-2.306v1h2.306v-1zM264.704 93.4h-2.306v1h2.306v-1zM261.094 97.2h-2.306v1h2.306v-1zM261.094 98.9h-2.306v1h2.306v-1zM264.704 98.9h-2.306v1h2.306v-1zM264.704 97.2h-2.306v1h2.306v-1zM261.094 101.1h-2.306v1h2.306v-1zM261.094 102.8h-2.306v1h2.306v-1zM264.704 102.8h-2.306v1h2.306v-1zM264.704 101.1h-2.306v1h2.306v-1zM261.094 105h-2.306v1h2.306v-1zM261.094 106.8h-2.306v1h2.306v-1zM264.704 106.8h-2.306v1h2.306v-1zM264.704 105.1h-2.306v1h2.306v-1zM261.094 108.8h-2.306v1h2.306v-1zM261.094 110.5h-2.306v1h2.306v-1zM264.704 110.5h-2.306v1h2.306v-1zM264.704 108.8h-2.306v1h2.306v-1zM261.094 112.5h-2.306v1h2.306v-1zM261.094 114.2h-2.306v1h2.306v-1zM264.704 114.2h-2.306v1h2.306v-1zM264.704 112.5h-2.306v1h2.306v-1z" fill="#ADADAD"/><path d="M271.522 94.4h-2.105v36.9h2.105V94.4zM239.838 92.6h-25.769v38.7h25.769V92.6zM211.863 92.6h-11.63v38.7h11.63V92.6zM291.876 85.3h-12.132v46h12.132v-46zM190.306 93.4h-6.417v37.9h6.417V93.4zM206.449 67h-6.216v3.1h6.216V67zM208.053 70.8h-6.216V74h6.216v-3.2zM209.758 75.5h-4.813v15.3h4.813V75.5zM214.069 88.2h-2.607V91h2.607v-2.8zM264.704 76.2h-13.536v55h13.536v-55zM177.973 119h-28.475v12.3h28.475V119zM147.492 108.4h-5.113v22.8h5.113v-22.8zM140.574 99h-6.116v5.8h6.116V99zM138.167 106.9h-5.614v24.4h5.614v-24.4zM96.858 131.3l-.301-49.4-3.309 1.6v47.8h3.61zM93.248 103.5H63.87v3.2h29.378v-3.2zM89.638 107.8h-9.525v23.5h9.525v-23.5zM125.835 82.9h-4.312v48.4h4.312V82.9zM131.249 88h-1.905v43.3h1.905V88zM74.498 107.3H63.87v24h10.628v-24zM58.957 116H34.39v15.3h24.566V116zM29.78 120.7h-4.312v10.6h4.311v-10.6zM18.85 112.7h-4.11v18.6h4.11v-18.6z" fill="#B8CCDA"/><path d="M57.352 93.2V86l-2.606-.2v-2H52.84v-2.2H35.394v1.9l-1.203.1v1.9h-2.507v7.6l-1.604.2V118l-13.837.1v-1.7H14.74v14.9h46.624v-38l-4.01-.1z" fill="#B8CCDA"/><path d="M18.55 118.1h-2.608v13.2h2.607v-13.2zM41.51 93.3H29.98v38h11.53v-38z" fill="#7DA2B4"/><path d="M45.12 85.7H33.69v7.7h11.43v-7.7zM46.825 83.8H35.093v1.9h11.731v-1.9zM47.827 81.8h-11.23v1.9h11.23v-1.9zM43.416 131.3h111.797v-20.8h-1.404v-1.9l-3.108-1.3v-4.4l-1.003-.2V101h-8.523V91l-2.406.1v-1.7s-3.008-2.9-7.219-3.5l-2.507.1v-2.5l-21.758.3v.9l-3.409.2-3.309 1.6-.401 18.5-33.388.2v.6h3.108l.1 3.8h-1.905l.2 9.3-24.866.2v12.2z" fill="#7DA2B4"/><path d="M154.912 111.5h-5.114v19.8h5.114v-19.8zM147.994 102.1h-6.117v5.8h6.117v-5.8zM145.487 109.899h-5.615v21.4h5.615v-21.4zM104.177 131.3l-.2-46.3-3.309 1.6v44.7h3.509zM100.668 106.5H71.29v3.2h29.378v-3.2zM97.058 110.799h-9.525v20.4h9.525v-20.4zM133.254 86h-4.311v45.3h4.311V86zM138.669 91.1h-1.905v40.2h1.905V91.1zM81.918 110.299H71.29v20.9h10.628v-20.9zM66.376 119.1h-22.96v12.2h22.96v-12.2z" fill="#B8CCDA"/><path d="M3.209 132.4l.701 11.7 3.81-2.3v-9.4H3.21z" fill="#4E4E57"/><path d="M2.306 131.8c-5.916.4-11.831 1-17.647 1.7-16.644 2-32.887 5-48.228 9.1-26.07 6.8-40.809 14.2-40.909 14.3l.903 1.9c.1-.1 14.639-7.3 40.507-14.1C-39.104 138.3-.3 131.2 48.73 133v-1.2H2.306z" fill="#4E4E57"/><path d="M116.71 131.8H31.785C-53.543 138.9-91.444 162-101.07 169h229.611c-24.164-25.7-14.138-35.5-11.832-37.2z" fill="#4E4E57"/><path d="M71.29 131.8h-5.615c-1.103.1-2.306.3-3.61.5.1.2.1.4.1.6 3.61-.6 6.718-.9 9.125-1.1zM44.117 136.7c5.214-1.5 10.428-2.5 15.04-3.3-.1-.2-.1-.4-.1-.6-4.612.8-9.826 1.9-15.04 3.3 0 .2.1.4.1.6zM13.937 152.1c3.209-3.1 6.918-5.6 10.93-7.8l-.302-.6a55.174 55.174 0 0 0-6.718 4.3 53.8 53.8 0 0 0-4.411 3.7c.2.1.4.2.501.4zM27.674 142.8c4.411-2.2 9.024-3.9 13.435-5.2-.1-.2-.2-.4-.2-.6a95.603 95.603 0 0 0-13.536 5.2l.3.6zM41.31 131.8c-8.824.5-17.647 1.5-26.37 2.8-12.734 1.9-25.368 4.7-37.8 8a404.857 404.857 0 0 0-36.799 12c-6.016 2.3-12.032 4.8-17.847 7.4-2.908 1.3-5.916 2.7-8.824 4.1-1.704.8-3.308 1.6-5.013 2.5h3.51c.701-.4 1.403-.7 2.105-1.1 2.908-1.4 5.816-2.8 8.723-4.1 5.816-2.7 11.731-5.2 17.747-7.6 11.932-4.7 24.165-8.9 36.498-12.4 12.332-3.5 24.966-6.4 37.7-8.4 9.425-1.5 18.85-2.6 28.375-3.2H41.31zM112.499 152.2c-.702-1.7-1.404-3.4-1.805-5.2-.501-1.8-.701-3.6-.802-5.4 0-1.8.201-3.7.802-5.4.301-.9.602-1.7 1.103-2.5.401-.7.802-1.3 1.304-1.9-.502.6-1.003 1.2-1.404 1.8-.501.8-.902 1.6-1.203 2.5-.602 1.7-.903 3.6-.903 5.5s.201 3.7.602 5.5c.401 1.8 1.003 3.6 1.705 5.3 1.403 3.4 3.308 6.7 5.414 9.7 1.604 2.3 3.409 4.6 5.214 6.7h1.604a86.481 86.481 0 0 1-6.016-7.3c-2.105-2.9-4.111-6-5.615-9.3z" fill="#FCFAFA"/><path d="M487.296 168.3c-9.425-6.8-45.12-28.7-124.832-36.5h-92.145c3.108 3 9.224 13.2-12.533 36.5h229.51z" fill="#4E4E57"/><path d="M449.796 141.8c-15.341-4-31.584-7.1-48.228-9.1-3.008-.4-6.116-.7-9.124-1h-54.946v.5c49.03-1.8 87.833 5.3 111.697 11.5 25.868 6.8 40.407 14.1 40.507 14.1l.903-1.9c0 .1-14.739-7.3-40.809-14.1z" fill="#4E4E57"/><path d="M323.962 131.8h-2.808c.903.1 1.805.2 2.808.4v-.4zM342.11 136c-5.214-1.5-10.428-2.5-15.04-3.3.1-.2.1-.4.1-.6 4.612.8 9.826 1.9 15.04 3.3 0 .1-.1.4-.1.6zM372.29 151.4c-3.208-3.1-6.918-5.6-10.929-7.8l.301-.6a55.26 55.26 0 0 1 6.718 4.3c1.604 1.2 3.008 2.4 4.411 3.7-.2 0-.401.2-.501.4zM358.554 142.1c-4.412-2.2-9.024-3.9-13.436-5.2.1-.2.2-.4.2-.6 5.014 1.5 9.526 3.3 13.536 5.2-.2.2-.3.4-.3.6zM463.633 161.3c-5.916-2.6-11.831-5.1-17.847-7.4-12.032-4.6-24.265-8.7-36.798-12-12.433-3.4-25.067-6.1-37.801-8-5.514-.8-11.129-1.5-16.744-2h-2.407c6.317.6 12.734 1.4 19.051 2.5 12.734 2.1 25.267 4.9 37.7 8.4 12.333 3.5 24.566 7.7 36.497 12.4 6.016 2.4 11.932 4.9 17.747 7.6 2.908 1.3 5.816 2.7 8.724 4.1.701.4 1.403.7 2.105 1.1h3.51c-1.705-.8-3.309-1.7-5.014-2.5-2.807-1.6-5.815-2.9-8.723-4.2zM274.53 132.9c-.2-.4-.501-.8-.802-1.1.201.3.501.7.802 1.1.401.8.702 1.7 1.003 2.6.601 1.7.802 3.6.802 5.4 0 1.8-.301 3.6-.802 5.4-.502 1.8-1.103 3.5-1.805 5.2a49.623 49.623 0 0 1-5.615 9.4c-1.905 2.5-3.91 5-6.016 7.3h1.604c1.805-2.2 3.61-4.4 5.214-6.7 2.106-3.1 4.011-6.3 5.415-9.7.701-1.7 1.303-3.5 1.704-5.3.401-1.8.602-3.7.602-5.5 0-1.9-.301-3.7-.903-5.5-.401-1-.802-1.8-1.203-2.6z" fill="#FCFAFA"/><path d="M253.675 131.9H128.542c-3.108 3.7-9.425 15.6 13.235 36.7l102.372.5c.101 0 23.262-27.4 9.526-37.2z" fill="#4E4E57"/><path d="M433.052 98.9c28.676.9 46.724 1.8 47.125 1.8v-.8c-.802 0-81.818-3.8-175.266-3.9-54.946 0-103.375 1.2-143.983 3.7-49.431 3-87.332 7.9-112.7 14.5v.9c-18.75-.8-40.006-1.1-63.268-1.1-13.736 0-26.972.2-39.004.4-21.858.4-39.906 1-49.933 1.4v.4c4.412-.2 10.428-.4 17.547-.6v4c-5.715.4-11.53.8-17.547 1.3v7.7l.803.2v3.2h5.815v-2h1.504v-2.9c9.024-.8 21.357-1.8 36.196-2.7v.5l2.708.7v6.4h5.815v-5.2h1.504v-2.9c15.441-.8 33.088-1.4 52.139-1.6v1l2.206.6v8.1h4.812v-7.1h1.304V122c11.43 0 23.262.1 35.394.5v.9l2.106.6v7.8h4.612V125h1.203v-2.2h.3c6.217.2 12.634.5 18.951.9v.7l1.705.4v7h3.81v-6.2h1.003v-1.5c5.113.3 10.227.7 15.44 1.1v6.6H101.57v-4.4h.903v-1.6l12.032 1.2v.8l1.403.4v3.6h2.908v-3h.802v-1.2c2.707.3 14.037 1.7 16.845 2l.301-1.9-8.824-1.6v-2.5c-6.517-1.6-14.438-3-23.863-4.2v-1.8c10.127-.9 20.153-1.7 30.18-2.3v2.8h1.805v13.8h6.718v-15.3l3.108-.9v-1.2c11.631-.7 23.162-1.3 34.592-1.7v4.2h2.206v14.9h8.322V115l3.91-1.1v-1.8c21.859-.7 43.115-1 63.569-.9v4.9h2.307v15.6h8.623v-17.5l4.01-1.1v-1.8c34.191.3 65.875 1.5 93.549 3v5.5h2.807v11.9h10.328v-14.2l4.813-1.3v-.9c26.57 1.7 48.729 3.6 64.872 5.1v5.4h2.808v5.8h10.327v-8l4.813-1.3c7.921.9 12.233 1.4 12.233 1.4v-13.6c-16.244-1.4-31.885-2.7-47.126-3.8v-7.4h.201zm-.802 7.5c-19.953-1.4-39.004-2.6-57.353-3.5v-5.4c21.658.4 41.21.9 57.353 1.4v7.5zm-116.009-5.6v-4c20.354.1 39.906.3 58.054.7v5.4c-20.253-1-39.605-1.7-58.054-2.1zm-69.786-3.6v3.2c-15.24.2-29.678.6-43.315 1.2v-3.3c14.439-.4 28.977-.8 43.315-1.1zm-44.618 1.3v3.3c-15.441.7-29.88 1.5-43.315 2.5v-3.7c14.237-.9 28.776-1.6 43.315-2.1zm-98.663 21.1c2.106.3 4.212.5 6.217.8v2.4c-2.507-.4-5.214-.7-8.021-1.1v-1.6l1.804-.5zm-9.324 1.3c-1.805-.2-3.71-.4-5.615-.6V119c1.704-.2 3.409-.3 5.213-.5.201 0 .301 0 .502.1v2.3h-.1zm-45.12-3.6v-1.8l13.235.6c-2.607.5-5.214 1-7.62 1.4-1.805 0-3.71-.1-5.615-.2zm32.787-4.4v-4.6c11.831-1.8 24.565-3.3 38.201-4.7v4.2c-14.237 1.6-26.971 3.3-38.201 5.1zm39.104-9.3c11.932-1.1 24.365-2.1 37.199-2.9v3.7c-13.336 1-25.769 2.2-37.199 3.4v-4.2zM48.73 114.8c9.324-2.4 20.053-4.5 31.784-6.3v4.6c-5.916.9-11.53 1.9-16.744 2.8-4.813-.3-9.827-.5-15.04-.7v-.4zm-.502 2.5c-1.905-.1-3.91-.2-5.916-.3v-1.7c2.006.1 3.91.1 5.916.2v1.8zm-6.617-.3c-7.62-.3-15.642-.5-24.165-.6v-1.7c8.022.1 16.043.3 24.165.6v1.7zm-63.068-2.6v2.1c-10.227.2-21.056.6-32.386 1.1v-2.9c10.227-.1 21.056-.3 32.386-.3zm-64.572 1.1c9.024-.3 19.953-.5 31.985-.8v2.9c-10.227.5-20.855 1.1-31.985 1.8v-3.9zm64.873 1v-2.1h7.62c9.626 0 19.953.1 30.481.3v1.7a975.93 975.93 0 0 0-38.101.1zm108.79 2.6v1.1c-1.806-.2-3.61-.4-5.516-.5 1.805-.3 3.61-.4 5.515-.6zm40.005 6.8c-5.013-1-10.929-2-17.747-3v-2.4c6.518 1 12.534 2.1 17.747 3.3v2.1zm119.719-25.4v-3.2c18.85-.3 37.299-.5 54.745-.5h13.737v4c-24.465-.6-47.326-.6-68.482-.3z" fill="#4E4E57"/></svg>