<svg width="375" height="150" fill="none" xmlns="http://www.w3.org/2000/svg" viewBox="0 0 375 150"><path d="M450.76-24.24H-75.76v186.65h526.52V-24.24z" fill="#F5FCFF"/><path d="M397.7 114.95H-15.74v46.24H397.7v-46.24z" fill="#0E9ACB"/><path d="M111.5 85.99h-10.21v27.26h10.21V85.99z" fill="#D7EFFA"/><path d="M103.9 92.42H93.69v14.4h10.21v-14.4zM91.52 88.83h-9.24v19.52h9.24V88.83z" fill="#D7EFFA"/><path d="M107.69 97.55H-11.58v12.81h119.27V97.55z" fill="#D7EFFA"/><path d="M116.61 83.92H106.4v27.26h10.21V83.92z" fill="#D7EFFA"/><path d="M128.23 90.72h-13.79v24.23h13.79V90.72z" fill="#D7EFFA"/><path d="M125.86 104.77H96.55v4.08h29.31v-4.08z" fill="#6F6F6E"/><path d="M376.13 77.42h-13.79v24.23h13.79V77.42z" fill="#D7EFFA"/><path d="M365.8 84.19h-13.79v24.23h13.79V84.19zM350.85 80.51h-8.68v24.23h8.68V80.51z" fill="#D7EFFA"/><path d="M344.43 74.45h-8.68v24.23h8.68V74.45z" fill="#D7EFFA"/><path d="M341.22 66.26h-8.68v24.23h8.68V66.26zM319.84 66.26h-8.68v24.23h8.68V66.26zM298.67 66.26h-8.68v36.97h8.68V66.26z" fill="#D7EFFA"/><path d="M303.01 52.56h-8.68v36.97h8.68V52.56zM267.01 54.35h-8.68v36.97h8.68V54.35z" fill="#D7EFFA"/><path d="M261.15 56.48h-13.51v36.97h13.51V56.48z" fill="#D7EFFA"/><path d="M249.07 59.69h-10.34v38.04h10.34V59.69zM227.69 61.12h-10.34v36.97h10.34V61.12z" fill="#D7EFFA"/><path d="M223.06 64.68h-10.34v36.97h10.34V64.68zM209.12 71.05h-10.34v36.97h10.34V71.05z" fill="#D7EFFA"/><path d="M200.07 70.34H185.8v36.97h14.27V70.34zM176.02 81.14h-14.27v34.47h14.27V81.14zM147.44 84.39h-10.65v27.4h10.65v-27.4z" fill="#D7EFFA"/><path d="M139.36 78.93h-10.65v27.4h10.65v-27.4z" fill="#D7EFFA"/><path d="M142.66 81.43h-10.65v27.4h10.65v-27.4zM161.27 82.96h-10.65v27.4h10.65v-27.4zM187.74 77.27h-12.58v36.97h12.58V77.27z" fill="#D7EFFA"/><path d="M7.91 104.24h-19.49v6.12H7.91v-6.12z" fill="#0F529C"/><path d="M15.04 105.76H4.9v3.73h10.14v-3.73z" fill="#0F529C"/><path d="M334.67 52.51v-.49h-.68v-.76h-1.29v-.5h-3.75v-4.43h-.34v-3.85h-.18v-3.53h-.17v13.98h-1.79V38.95h-.17v3.53h-.17v3.85h-.34v4.43h-3.75v.5h-1.29v.76h-.68v.49h-3.22v55.68h21.04V52.51h-3.22zM162.91 79.41v-2.06h-.89v1.13h-1.03v.93h-.42v-.93h-.98v-.66h-.75v.66h-.7v-.66h-.98v1.59h-1.21v33.5h7.29v-33.5h-.33z" fill="#79BCD3"/><path d="M312.52 62.93V61.2h-2.81v1.73h-2.45v45.3h7.71v-45.3h-2.45z" fill="#97D0E8"/><path d="M320.7 79.44v-1.16h-.48v-1.8h-.84v-.94h-1.05v-1.29h-1.96v1.29h-1.05v.94h-.84v1.8H314v1.16h-.53v29.29h7.76V79.44h-.53z" fill="#0F529C"/><path d="M241.73 52.81v-3.03h-2.32v-5.95h-2.36v-3.59h-.46v3.59h-2.36v5.95h-2.32v3.03h-2.59v52.2h15v-52.2h-2.59z" fill="#79BCD3"/><path d="M384.86 60.52v-2.2h-1.72v-1.03h-1.48v1.03h-3.53v-1.03h-.73v1.03h-1.81v2.2h-3.75v48.58h16.78V60.52h-3.76zM354.32 74.3v-2.09h-2.88v2.09h-2.38v30.35h7.63V74.3h-2.37z" fill="#97D0E8"/><path d="M173.81 87.66v-1.28h-.38v1.28h-2.17v21.05h10.88V87.66h-8.33zM364.69 76.09v-1.28h-.99v.43h-.61v-.85h-1.61v1.7h-2.32v29.25h6.86V76.09h-1.33zM281.56 49.54v-1.61h-.68v-3.48h-.76v3.48h-2.8v-.85h-1.61v.85h-.34v1.61h-11.94V108h29.31V49.54h-11.18z" fill="#79BCD3"/><path d="M131.41 68.37v-1.15h-1.34v1.15h-2.68v-1.15h-1.6V75.93h-.67v34.5h7.09V68.37h-.8z" fill="#97D0E8"/><path d="M151.62 75.71v-1.76h-3.37v1.76h-1.08v35.59h6.62V75.71h-2.17z" fill="#79BCD3"/><path d="M369.57 92.22v-1.04h-1.97v1.04h-1.25v-1.04h-.98v-1.65h-2.7v1.65h-.99v1.04h-1.25v-1.04h-1.97v1.04h-1.09v14.46h13.29V92.22h-1.09zM337.03 81.16v-2.48h-5.82v-1.65h-1.56v1.65h-1.04v2.48h-1.24v27.06h15.78V81.16h-6.12zM147.71 91.66v-.89h-2.36v.89h-3.24v-.89h-7.08v.89h-1.91v16.81h17.98V91.66h-3.39z" fill="#97D0E8"/><path d="M352.4 90.77v-.64h-.39v-2.87h.26v-.86h-1.01v-.5h.34v-.4h-.34v-.51h-.51v-1.41h.24v-.48h-.24v-.3h-.86v-2.14h.24v-.3h-.56v-.92h.13v-.28h-.13v-.13h-.03c.02-.05.03-.1.03-.15 0-.21-.13-.39-.32-.46v-3.76h-.34v3.76c-.19.07-.32.25-.32.46 0 .05.01.1.03.15h-.03v.13h-.13v.28h.13v.92h-.56v.3h.24v2.14h-.86v.3h-.24v.47h.24v1.41h-.51v.51h-.34v.41h.34v.49h-1.01v.86h.26v2.87h-.39v.64h.39v.64h-.26v.39h.26v10.41h5.86V91.79h.26v-.39h-.26v-.64h.39v.01z" fill="#0F529C"/><path d="M389.83 102.05H341.7l-1.27.9-2.96-1.48-3.06 1.53v-1.12l-2.76-1.06-2.77 1.06v.97h-3.02v5.88h66.66v-4.21l-2.69-2.47zM288.67 66.4v-5.17h-3.74v5.17h-1.98v8.47h-3.08v33.32h10.12V66.4h-1.32zM306.32 62.63V35.18l-2.8-.92-1.46-19.76h-1.17l-1.46 19.73-2.81.95v27.45l-4.19 46.1h18.08l-4.19-46.1z" fill="#0F529C"/><path d="M258.81 63.43v-.72h-3.32v-.93h-5.26v1.65h-1.16v45.67h17.39V63.43h-7.65z" fill="#97D0E8"/><path d="M273.05 91.15V89.78h1.58v-1.36h-1.58v-.69h1.58v-1.84h-2.84v-.32h-1.21v-.49h-1.71v.81h-.44v-1.78h-3.42v1.78h-2.52v1.84h2.2v.69h-2.2v1.36h2.2V91.15h-11.56v16.98h24.39V91.15h-4.47z" fill="#0F529C"/><path d="M213.3 57.18v-1.13h-1.32v-1.13h-1.5v1.13h-1.15v1.13h-5.38v47.53h10.76V57.18h-1.41z" fill="#79BCD3"/><path d="M229.34 57.87v-1.46h-5.79v1.46h-1.45v50.52h8.69V57.87h-1.45z" fill="#97D0E8"/><path d="M199.37 75.78v-.66H195.68v.66h-2.74v32.07h9.65V75.78h-3.22z" fill="#79BCD3"/><path d="M218.61 73.86v-.39h-2.08v.39h-.8v-.39h-2.09v.39h-.85v-.39h-1.99v.39h-1.11v31.73h10.03V73.86h-1.11zM246.34 70.43v-1.86h-2.08v1.86h-1.45v-1.86h-3.53v1.86h-1.45v34.91h9.97V70.43h-1.46z" fill="#97D0E8"/><path d="M250.14 97.78v-.9h-4.58v-.24h-.97v.24H240v.9h-.43v.27h.11v.22h.08v.23h.1v.1h.14v2.04h-12.09v-2.25h.13v-.09h.09v-.21h.07v-.2h.1v-.24h-.39v-.81h-9.15v.81h-.39v.24h.1v.2h.07v.21h.09v.09h.13v2.25h-12.09V98.6h.14v-.1h.1v-.23h.08v-.22h.11v-.27h-.43v-.9h-4.58v-.24h-.97v.24h-4.58v.9h-.43v.27h.11v.22h.08v.23h.1v.1h.14v9.04h-.24v.31h.24v.18h53.61v-.18h.21v-.31h-.21v-6.14h.01v-2.9h.14v-.1h.1v-.23h.08v-.22h.11v-.27h-.45zm-43.1 3.95h-.33v-.13h.17v-.72h-.17v-.13h.33v.98zm.17 0h-.07v-.99h.07v.99zm.17 0h-.07v-.99h.07v.99zm.17 0h-.07v-.99h.07v.99zm.17 0h-.07v-.99h.07v.99zm.43-.85h-.17v.72h.17v.13h-.32v-.99h.32v.14zm.42.85h-.33v-.13h.17v-.72h-.17v-.13h.33v.98zm.17 0h-.07v-.99h.07v.99zm.17 0h-.07v-.99h.07v.99zm.17 0h-.07v-.99h.07v.99zm.17 0h-.07v-.99h.07v.99zm.43-.85h-.17v.72h.17v.13h-.32v-.99h.32v.14zm.43.85h-.33v-.13h.17v-.72h-.17v-.13h.33v.98zm.17 0h-.07v-.99h.07v.99zm.17 0h-.07v-.99h.07v.99zm.17 0h-.07v-.99h.07v.99zm.17 0h-.07v-.99h.07v.99zm.42-.85h-.17v.72h.17v.13h-.32v-.99h.32v.14zm.43.85h-.33v-.13h.17v-.72h-.17v-.13h.33v.98zm.17 0h-.07v-.99h.07v.99zm.17 0h-.07v-.99h.07v.99zm.17 0h-.07v-.99h.07v.99zm.17 0h-.07v-.99h.07v.99zm.42-.85h-.17v.72h.17v.13h-.32v-.99h.32v.14zm.43.85h-.33v-.13h.17v-.72h-.17v-.13h.33v.98zm.17 0h-.07v-.99h.07v.99zm.17 0h-.07v-.99h.07v.99zm.17 0h-.07v-.99h.07v.99zm.17 0h-.07v-.99h.07v.99zm.43-.85h-.17v.72h.17v.13h-.32v-.99h.32v.14zm.42.85h-.33v-.13h.17v-.72h-.17v-.13h.33v.98zm.17 0h-.07v-.99h.07v.99zm.17 0h-.07v-.99h.07v.99zm.17 0h-.07v-.99h.07v.99zm.17 0h-.07v-.99h.07v.99zm.43-.85h-.17v.72h.17v.13h-.32v-.99h.32v.14zm.43.85h-.33v-.13h.17v-.72h-.17v-.13h.33v.98zm.17 0h-.07v-.99h.07v.99zm.17 0h-.07v-.99h.07v.99zm.17 0h-.07v-.99h.07v.99zm.17 0h-.07v-.99h.07v.99zm.42-.85h-.17v.72h.17v.13h-.32v-.99h.32v.14zm.43.85h-.33v-.13h.17v-.72h-.17v-.13h.33v.98zm.17 0h-.07v-.99h.07v.99zm.17 0h-.07v-.99h.07v.99zm.17 0h-.07v-.99h.07v.99zm.17 0h-.07v-.99h.07v.99zm.42 0h-.32v-.99h.2v.13h-.05v.72h.17v.14zm21.13 0h-12.23.02v-.13h.17v-.72h-.05v-.13h.2v.99h.1v-.99h.07v.99h.1v-.99h.07v.99h.1v-.99h.07v.99h.1v-.99h.07v.99h.1v-.99h.33v.13h-.17v.72h.17v.13h.1v-.13h.17v-.72h-.17v-.13h.32v.99h.1v-.99h.07v.99h.1v-.99h.07v.99h.1v-.99h.07v.99h.1v-.99h.07v.99h.1v-.99h.33v.13h-.17v.72h.17v.13h.1v-.13h.17v-.72h-.17v-.13h.32v.99h.1v-.99h.07v.99h.1v-.99h.07v.99h.1v-.99h.07v.99h.1v-.99h.07v.99h.1v-.99h.33v.13h-.17v.72h.17v.13h.1v-.13h.17v-.72h-.17v-.13h.32v.99h.1v-.99h.07v.99h.1v-.99h.07v.99h.1v-.99h.07v.99h.1v-.99h.07v.99h.1v-.99h.33v.13h-.17v.72h.17v.13h.1v-.13h.17v-.72h-.17v-.13h.33v.99h.1v-.99h.07v.99h.1v-.99h.07v.99h.1v-.99h.07v.99h.1v-.99h.07v.99h.1v-.99h.33v.13h-.17v.72h.17v.13h.1v-.13h.17v-.72h-.17v-.13h.33v.99h.1v-.99h.07v.99h.1v-.99h.07v.99h.1v-.99h.07v.99h.1v-.99h.07v.99h.1v-.99h.33v.13h-.17v.72h.17v.13h.1v-.13h.17v-.72h-.17v-.13h.33v.99h.1v-.99h.07v.99h.1v-.99h.07v.99h.1v-.99h.07v.99h.1v-.99h.07v.99h.1v-.99h.33v.13h-.17v.72h.17v.13h.1v-.13h.17v-.72h-.17v-.13h.32v.99h.1v-.99h.07v.99h.1v-.99h.07v.99h.1v-.99h.07v.99h.1v-.99h.07v.99h.1v-.99h.33v.13h-.17v.72h.17v.13h.04z" fill="#0F529C"/><path d="M193.44 88.25v-3.54h-.5v-.35h-1.23v.35h-2.7v-.7h-1.47v.7h-1.89V82.4h-.57v2.31h-.63v3.54h-.81v20.87h10.6V88.25h-.8z" fill="#97D0E8"/><path d="M93.68 95.13h-9.24v13.22h9.24V95.13z" fill="#79BCD3"/><path d="M79.78 100.88H62.77v7.67h17.01v-7.67z" fill="#0F529C"/><path d="M65.07 105.28H48.06v3.83h17.01v-3.83zM156.9 104.08h-10.14v3.73h10.14v-3.73z" fill="#0F529C"/><path d="M147.78 102.32v-.37h-.61v-.35h.16l-.01-.13h-.15v-.25h-.52l-1.04-1.27h-2.91v-.15h-1.38v-.78h.1v-.17h-.1v-.17h-.24l-.75-.87h-1.17v-.14h-.37v-.12h-.34v.12h-.37v.14h-1.5v-.14h-.37v-.12h-.34v.12h-.37v.14h-1.17l-.75.87h-.24v.17h-.09v.17h.09v.78h-1.38v.15h-2.91l-1.04 1.27h-.52V101.51h-.15v.13h.15v.31h-.61v.37h-.13v.13h.13v.15h.2v5.53h20.51v-5.53h.19v-.15h.13v-.13h-.13zM186.94 101.27h-.21v-.16h-.29v-.54h.14v-.19h.07v-.12h-.07v-.27h-.28v-.13h-.17v-8.98h-.07v.42c-.04.1-.09.25-.14.37-.07.19-.16.34-.25.49-.1.19-.05.34-.16.5-.15.22-.41.03-.55.76-.04.18-.08-.01-.12.15-.04.19.05.29.03.49-.04.53.09 1.64.16 1.5.29-.56.62-.24.74-.72.07-.3.21-.32.28-.31v5.32h-.44l-1.33-.19v-7.12h-.07v.42c-.04.1-.09.25-.14.37-.07.19-.16.34-.25.49-.1.19-.05.34-.16.5-.15.22-.41.03-.55.76-.04.18-.08-.01-.12.15-.04.19.05.29.03.49-.04.53.09 1.64.16 1.5.29-.56.62-.24.74-.73.07-.3.21-.32.28-.31v3.45l-.92-.13h-.86v-5.63h-.07v.42c-.04.1-.09.25-.14.37-.07.19-.16.34-.25.49-.1.19-.05.34-.16.5-.15.22-.41.03-.55.76-.04.18-.08-.01-.12.15-.04.19.05.29.03.49-.04.53.09 1.64.16 1.5.29-.56.62-.24.74-.72.07-.3.21-.32.28-.31v1.97h-8.32v-.18h-.18v-.42h.05v-.17h.07v-.09h-.07v-.4H173v-.41h.09v-.12H173v-.43h-.15v-2.14h-.11v-.16h.14v-.27h-.14v-.16h.16v-.26h-.06v-.38h-.05v-.19h-.06v-.09h.06v-.13h-.05v-.11h-.04c.01-.04.02-.08.02-.14 0-.11-.03-.19-.06-.19s-.06.09-.06.19c0 .06.01.1.02.14h-.04v.11h-.05v.13h.06v.09h-.06v.19h-.05v.37h-.07v-.58h-.07v-.25h-.05v-.19h-.06v-.09h.06v-.13h-.05v-.11h-.04c.01-.04.02-.08.02-.14 0-.11-.03-.19-.06-.19-.02 0-.04.05-.05.11v-.06h-.13v-.05c0-1.48-.77-2.76-1.86-3.31.04-.05.07-.1.07-.17 0-.11-.08-.2-.19-.26v-.03c0-.09-.06-.17-.14-.17h-.03v-.26h-.04v-.14h-.04v-.05h.04v-.1h-.03v-.08h-.03c.01-.03.01-.06.01-.1 0-.08-.02-.14-.04-.14s-.04.06-.04.14c0 .04 0 .07.01.1h-.03v.08h-.04v.09h.04v.06h-.04v.14h-.04v.26h-.03v-1.33h.09v-.14h-.05v-.25h-.03v-.12h-.04v-.05h.04v-.08h-.03v-.07h-.03c.01-.02.01-.05.01-.08 0-.06-.01-.12-.03-.12-.02 0-.03.05-.03.12 0 .03 0 .06.01.08h-.03v.07h-.03v.08h.04v.05h-.04v.12h-.03v-.09h-.1v-.27h.06v-.15h-.08v-.35h-.09v-.14h.09v-.19h-.03v-.13h-.13l-.07-.99h-.05v-.44c.05-.01.08-.06.08-.11 0-.06-.04-.1-.08-.11v-.26h-.09v.27c-.05.01-.08.06-.08.11 0 .06.04.1.08.11v.44h-.05l-.07.99h-.13v.13h-.03v.19h.09v.14h-.09v.35h-.08v.15h.06v.27h-.1v.09h-.03v-.12h-.04v-.05h.04v-.08h-.03v-.07h-.03c.01-.02.01-.05.01-.08 0-.06-.02-.12-.03-.12-.01 0-.03.05-.03.12 0 .03 0 .06.01.08h-.03v.07h-.03v.08h.04v.05h-.04v.12h-.03v.25h-.05v.14h.09v1.33h-.03v-.26h-.04v-.14h-.04v-.06h.04v-.1h-.03v-.08h-.03c.01-.03.01-.06.01-.1 0-.08-.02-.14-.04-.14s-.04.06-.04.14c0 .04 0 .07.01.1h-.03v.08h-.03v.09h.04v.06h-.04v.14h-.04v.26h-.03c-.08 0-.14.07-.14.17v.03c-.12.06-.19.16-.19.26 0 .06.02.12.07.17-1.1.55-1.86 1.83-1.86 3.31v.05h-.13v.06c-.01-.07-.03-.11-.05-.11-.03 0-.06.09-.06.19 0 .05.01.1.02.14h-.04v.11h-.05v.13h.06v.09h-.06v.19h-.05v.25h-.07v.58h-.08v-.37h-.05v-.19h-.06v-.09h.06v-.13h-.05v-.11h-.04c.01-.04.02-.08.02-.14 0-.11-.03-.19-.06-.19s-.06.09-.06.19c0 .06.01.1.02.14h-.04v.11h-.05v.13h.06v.09h-.06v.19h-.05v.37h-.06v.26h.16v.16h-.14v.27h.14v.16h-.11v2.14h-.15v.43h-.09v.15h.09v.41h-.9v.4h-.07v.09h.07v.17h.05v.42h-.18v.18h-8.38v-1.97c.07-.01.21.01.28.31.12.49.44.16.74.72.07.13.2-.97.16-1.5-.02-.2.08-.3.03-.49-.04-.17-.08.03-.12-.15-.14-.73-.4-.54-.55-.76-.11-.16-.05-.31-.16-.5-.08-.15-.17-.3-.25-.49-.05-.12-.1-.27-.14-.37v-.42h-.07v5.63h-.81l-.97.14V96.2c.07-.01.21.01.28.31.12.49.44.16.74.73.07.13.2-.98.16-1.5-.02-.2.08-.3.03-.49-.04-.17-.08.03-.12-.15-.14-.73-.4-.54-.55-.76-.11-.16-.05-.31-.16-.5-.08-.15-.17-.3-.25-.49-.05-.12-.1-.27-.14-.37v-.42h-.07v7.13l-1.28.18h-.5v-5.32c.07-.01.2.01.28.31.12.49.44.16.74.72.07.13.2-.97.16-1.5-.02-.2.08-.3.03-.49-.04-.17-.08.03-.12-.15-.14-.73-.4-.54-.55-.76-.11-.16-.05-.31-.16-.5-.08-.15-.17-.3-.25-.49-.05-.12-.1-.27-.14-.37v-.42h-.07v8.98h-.12v.13h-.28v.27h-.07v.12h.07v.19h.14v.54h-.29v.16H150.49v.16h.11v.1h.24v6.6h36.1v-6.6h.24v-.1h.11v-.16h-.35v-.02zm-21.28-8.35h-.01c.01-.02.01-.04.01-.06v.06zm.09.51v-.02h.13v.02h-.13zm6.26 0h-.14v-.02h.13v.02h.01zm.09-.51v-.06c0 .02.01.04.01.06h-.01zM195.16 103.36h-7.88v4.48h7.88v-4.48zM302.33 102.48h-11.96v5.63h11.96v-5.63zM315.98 97.3h-9.72v10.81h9.72V97.3zM265.33 98.95h-8.87v9.16h8.87v-9.16zM273.9 101.81h-6.89v6.3h6.89v-6.3zM284.93 94.97h-8.22v13.14h8.22V94.97zM325.34 98.18h-6.69v10.69h6.69V98.18zM255.17 104.74h-4.08v3.21h4.08v-3.21z" fill="#0F529C"/><path d="M195.14 101.13h-5.47v7.16h5.47v-7.16zM322.07 99.56h-7.69v8.55h7.69v-8.55z" fill="#0F529C"/><path d="M394.07 107.82H-11.58v8.79h405.65v-8.79z" fill="#0F529C"/><path d="M119.94 105.22v.71c-.29-.61-.67-1.46-1.14-2.62-1.23-2.98-3.09-8.02-5.68-16.27v-.6h-.06v-.16H113v-.15h-.07v-.15h-.08v-.11h-.04v-.24h-.17v.24h-.04V86h-.08v.15h-.07v.15h-.06v.16h-.06v.2c-.06.22-.31.4-.6.4l-.52.01v-.33h-.04v-.19h-.01v-.12h-.12v-.13h-.23v.13h-.12v.12h-.01v.19h-.04v.33l-.52.01c-.25 0-.47-.12-.56-.29l-.03-.09h-.01v-.19h-.06v-.16h-.06v-.15h-.07v-.15h-.08v-.1h-.04V85.72h-.17v.23H109v.1h-.08v.15h-.07v.14h-.06v.16h-.06v.97c-2.82 5.28-5.95 8.93-9.29 11.26-2.68 1.87-5.48 2.9-8.38 3.25-1.78-.37-3.61-1-5.46-1.86-5.4-2.49-11.03-6.88-16.41-12.07-8.08-7.77-15.62-17.33-21.14-24.94-2.76-3.8-5.01-7.12-6.58-9.49-.78-1.18-1.39-2.13-1.8-2.78-.07-.11-.13-.2-.19-.29v-1.21l-.16.03v-.42l-.15.03v-.38l-.18.03v-.38l-.21.04v-.27l-.1.02v-.62l-.43.08v.62l-.1.02v.27l-.21.04v.38l-.17.03v.38l-.15.03v.42l-.16.03v.51c-.16.61-.78 1.15-1.53 1.28l-1.33.23v-.85l-.11.02v-.49l-.03.01v-.31l-.29.05v-.33l-.57.1v.33l-.29.05v.31l-.03.01v.49l-.1.02V52l-1.31.23c-.73.13-1.34-.19-1.49-.73V51l-.15.03v-.42l-.14.03v-.37l-.17.03v-.37l-.2.04v-.26l-.1.02v-.6l-.41.08v.61l-.1.02v.26l-.2.04v.37l-.17.03v.33c-.01.01-.03.03-.05.04l-.09.02V51c-1.75 1.63-10.01 8.72-33.32 20.76h-.01c-2.16 1.12-4.46 2.28-6.88 3.48v.71c.52-.26 1.04-.51 1.55-.77V79c-.51.25-1.02.51-1.55.77v.71c.52-.26 1.04-.51 1.55-.77v18.41c-.7-.01-1.22-.02-1.55-.02v.84c.33 0 .85.01 1.55.02v2.68l-1.55-1.72v.47l1.52 1.7c-.59 0-1.06 0-1.38.01h-.14v.84c.97-.01 3.69-.02 7.71-.02 7.25 0 18.75.04 31.93.21v17.18l-.56.01v6.81h3.92v-6.87l-.57.01v-1.16h6.21v1.05l-.59.01v6.96h4.09v-7.03l-.6.01v-16.79c8.28.16 16.87.37 25.26.67 13.31.47 26.07 1.14 36.13 2.09 2.61.25 5.03.51 7.23.8v6.9h-.23v2.84h1.58v-2.22h2v2.22h1.59v-2.85h-.2v-.09h-.03v-3.16h.03v-.72h-.03v-2.23c.28.05.56.1.82.15.69.13 1.34.26 1.95.39v.01h.05c.87.19 1.65.39 2.34.6.56.17 1.06.34 1.49.51v5.36h7.82v-9.39h-7.79v.02zM-9.72 98.97c.64.01 1.41.02 2.31.04l-2.31 2.68v-2.72zm2.36 3.1c-.87 0-1.63 0-2.27.01l2.27-2.65v2.64zm0-3.91c-.91-.02-1.7-.03-2.35-.04V79.55c.8-.4 1.58-.79 2.35-1.18v19.79zm0-20.5c-.77.39-1.55.79-2.35 1.18v-3.82c.8-.4 1.58-.79 2.35-1.18v3.82zm.31 24.41v-2.64l2.3 2.64h-2.3zm2.36-.42l-2.3-2.64c.7.01 1.47.03 2.3.04v2.6zm0-3.44c-.85-.02-1.64-.03-2.35-.04V78.21c.8-.41 1.59-.81 2.35-1.2v21.2zm0-21.92c-.77.4-1.55.8-2.35 1.21v-3.82c.8-.41 1.59-.81 2.35-1.2v3.81zM27.4 52.9c.44-.36.8-.66 1.09-.92v3.68c-.26.23-.61.55-1.09.95V52.9zM11.64 63.5c.81-.48 1.59-.95 2.34-1.4v3.79c-.75.46-1.53.93-2.34 1.41v-3.8zm0 4.53c.82-.48 1.6-.95 2.34-1.41l.03 32.02-2.37-.06V68.03zM-4.38 99.06c.72.01 1.49.03 2.3.05l-2.3 2.55v-2.6zm2.35 3.01H-4.33l2.3-2.55v2.55zm0-3.81c-.83-.02-1.62-.03-2.35-.05V76.84c.8-.41 1.59-.82 2.35-1.23v22.65zm0-23.36c-.77.4-1.55.81-2.35 1.23v-3.82c.8-.42 1.59-.82 2.35-1.23v3.82zm.32 27.17v-2.55l2.3 2.55h-2.3zm2.35-.41l-2.29-2.54c.73.01 1.5.03 2.29.05v2.49zm0-3.34c-.82-.02-1.6-.03-2.35-.05V75.45c.8-.42 1.59-.84 2.35-1.25v24.12zm0-24.84c-.76.41-1.55.83-2.35 1.25v-3.82c.8-.42 1.59-.84 2.35-1.25v3.82zm.32 25.69c.74.02 1.51.03 2.3.05l-2.3 2.45v-2.5zm2.35 2.91c-.79 0-1.56 0-2.3-.01l2.3-2.45v2.46zm0-3.7c-.81-.02-1.6-.04-2.35-.05v-24.3c.81-.43 1.59-.86 2.35-1.27v25.62zm0-26.34c-.76.42-1.55.84-2.35 1.28V69.5c.81-.43 1.59-.86 2.35-1.28v3.82zm.32 30.04v-2.46l2.29 2.47c-.78 0-1.55 0-2.29-.01zm2.35-.39l-2.29-2.46c.74.02 1.51.03 2.29.05v2.41zm0-3.25c-.81-.02-1.59-.04-2.35-.05v-25.8c.81-.44 1.59-.88 2.35-1.3v27.15zm0-27.88c-.76.43-1.55.86-2.35 1.31v-3.81c.81-.44 1.59-.88 2.35-1.3v3.8zm.32 28.73c.75.02 1.51.04 2.3.05l-2.3 2.36v-2.41zm2.35 2.82c-.78 0-1.55-.01-2.29-.01l2.29-2.35v2.36zm0-3.61l-2.35-.06V71.1c.81-.45 1.59-.9 2.35-1.33V98.5zm0-29.46c-.76.44-1.54.88-2.35 1.34v-3.8c.81-.46 1.59-.9 2.35-1.34v3.8zm.32 33.07v-2.37l2.32 2.38c-.79-.01-1.57-.01-2.32-.01zm2.35-.41l-2.28-2.35 2.28.06v2.29zm0-3.13l-2.35-.06V69.59c.81-.47 1.6-.93 2.35-1.37v30.35zm0-31.09c-.75.45-1.54.91-2.35 1.38v-3.8c.81-.47 1.6-.92 2.35-1.37v3.79zm.32 31.94l2.34.06-2.34 2.24v-2.3zm.04 2.7l2.33-2.23v2.25c-.79-.01-1.57-.01-2.33-.02zm2.65.02v-2.21l2.26 2.23c-.77-.01-1.52-.01-2.26-.02zm2.33-.36l-2.33-2.29 2.33.06v2.23zm0-3.06l-2.33-.06-.03-32.23c.83-.51 1.62-.99 2.36-1.47v33.76zm0-34.5c-.75.47-1.53.96-2.36 1.47V61.9c.83-.51 1.62-1 2.37-1.47v3.79h-.01zm.31 35.35c.76.02 1.53.04 2.31.07l-2.31 2.16v-2.23zm2.36 2.61c-.77-.01-1.53-.01-2.28-.02l2.28-2.13v2.15zm0-3.39c-.79-.02-1.58-.05-2.35-.07V64.76c.83-.53 1.62-1.03 2.35-1.52v35.55zm0-36.3c-.73.48-1.52.99-2.35 1.53v-3.78c.83-.53 1.62-1.03 2.35-1.52v3.77zm.31 39.7v-2.21l2.33 2.23c-.78-.01-1.56-.02-2.33-.02zm2.36-.4l-2.24-2.14c.74.02 1.49.04 2.24.07v2.07zm0-2.92c-.79-.02-1.58-.05-2.35-.07V63.04c.85-.56 1.63-1.09 2.35-1.59v37.42zm0-38.19c-.72.5-1.5 1.03-2.35 1.6v-3.77c.85-.56 1.63-1.09 2.35-1.59v3.76zm.31 39.04c.75.02 1.51.05 2.28.07l-2.28 2.02v-2.09zm2.36 2.52l-2.33-.03 2.33-2.06v2.09zm0-3.29c-.79-.02-1.58-.05-2.35-.07V61.23c.88-.61 1.66-1.17 2.35-1.68v39.4zm0-40.19c-.69.51-1.47 1.08-2.35 1.7V56.7c.88-.61 1.66-1.17 2.35-1.69v3.75zm.31 43.48v-2.06l2.03 2.08c-.68 0-1.36-.01-2.03-.02zm2.1-.36l-2.03-2.08 2.03.06v2.02zm0-2.85c-.7-.02-1.4-.04-2.1-.07V59.31c.83-.62 1.52-1.16 2.1-1.62v41.34zm0-42.16c-.56.46-1.25 1.01-2.1 1.65v-3.74c.83-.62 1.52-1.16 2.1-1.62v3.71zm.97 45.41c-.2 0-.4-.01-.6-.01l.6-.65v.66zm0-1.12l-.66.71v-1.99c.22.01.44.01.66.02v1.26zm.49-39.97l-.18.03v8.66l-.44.06v.35l.39-.05v.4l-.11.01v12.42l-.5.05v.5l.52-.05V84l-.16.02v15.04c-.22-.01-.44-.01-.66-.02V57.43c.44-.36.8-.66 1.09-.92v4.04l-.39.06v.37l.45-.07v.28h-.01zm1.81-.56l.45-.07v-.37l-.39.06V57c.15-.59.76-1.12 1.49-1.24l.91-.15c.78 1.17 2.13 3.15 3.94 5.67-.24.17-.53.29-.83.34l-3.97.61c-.67.1-1.23-.18-1.42-.67v-.67l-.18.03v-.29zm1.6 48.36l1.8-1.8 1.8 1.8h-3.6zm4.43 1.58l-2.63 2.63-2.63-2.63h5.26zm-5.08-7.4c1.59.02 3.2.05 4.82.08l-2.37 2.37-2.45-2.45zm.75-.83l1.89-2 1.79 2.06-3.68-.06zm-.21-.23l-1-.98V100c.96.03 1.93.07 2.9.1l-1.9 2.01zm-.23.22c-.26 0-.52-.01-.77-.01v-.75l.77.76zm1.35 4.07l-2.13 2.13v-4.25l2.13 2.12zm0 7.59l-2.13 2.13v-4.25l2.13 2.12zM31 117.52l2.75-2.75 2.75 2.75H31zm6.05-1.01l-2.52-2.52 2.52-2.52v5.04zm0-7.59l-2.52-2.52 2.52-2.52v5.04zm0-6.5c-.27-.01-.55-.01-.82-.01l.82-.53v.54zm0-.92l-1.07.69-1.81-2.08c.96.03 1.92.07 2.89.1v1.29h-.01zm0-2.13c-2.1-.08-4.17-.15-6.21-.22v-8.97c.18-.52.69-.93 1.29-.99l3.61-.32c.61-.05 1.13.27 1.32.77v9.73h-.01zm.17-16.29l-.17.02v1.21c-.18.53-.71.96-1.32 1.01l-3.61.35c-.6.06-1.11-.26-1.29-.75v-1.2l-.16.02v-.42l.53-.06v-.51l-.51.05v-5.53c.16-.56.71-1.03 1.36-1.1l3.76-.45c.67-.08 1.23.26 1.4.79v5.62l-.53.05v.51l.54-.06v.45zm.15-14.43l-.46.06v.36l.41-.05v.41l-.12.02v1.61c-.17.57-.73 1.05-1.4 1.13l-3.76.48c-.65.08-1.2-.24-1.36-.76v-1.58l-.11.01v-.41l.39-.05v-.35l-.44.06v-2.76c.19-.54.75-1 1.42-1.09l3.97-.57c.68-.1 1.26.2 1.46.69v2.79zm.19-8.87l-.19.03v.68c-.04.12-.1.23-.17.33-.88-1.22-1.65-2.32-2.3-3.25-.57-.83-1.04-1.52-1.41-2.07l2.48-.42c.75-.13 1.37.2 1.53.75v3.29l-.41.06v.38l.47-.07v.29zm51.15 42.26c.12.04.23.07.34.11H88.7v-.11h.01zm-8.64-.9c.56.2 1.11.38 1.67.55l-1.67-.12v-.43zm-40.11 1.33v-1.44l2.07 1.48c-.7-.01-1.39-.02-2.07-.04zm2.19-.26l-2.19-1.57v-.32l2.19.09v1.8zm0-2.64l-2.19-.09V82.79l-.17.02v-.43l.55-.06v-.52l-.53.06V69.09l-.12.02v-.42l.41-.06v-.36l-.46.06v-3.16c.79 1.04 1.63 2.13 2.51 3.25v31.15zm0-32.16c-.3-.39-.6-.78-.9-1.16-.56-.73-1.1-1.44-1.61-2.12v-4.67l-.19.03v-.29l.47-.07v-.38l-.41.06v-7.04c.62.96 1.51 2.33 2.64 4.01v11.63zm.31 33.01c.61.02 1.22.05 1.83.07l-1.83 1.66v-1.73zm1.9 2.14c-.61-.01-1.22-.03-1.82-.04l1.82-1.66v1.7zm0-2.9c-.63-.03-1.27-.05-1.9-.08V68.83c.61.77 1.24 1.56 1.9 2.36v28.47zm0-29.47c-.65-.81-1.29-1.6-1.9-2.38V56.24c.58.85 1.21 1.78 1.9 2.77v11.18zm.31 32.38v-1.69l1.82 1.73c-.6-.02-1.21-.03-1.82-.04zm1.9-.33l-1.81-1.73c.6.02 1.21.05 1.81.07v1.66zm0-2.49c-.63-.03-1.27-.05-1.9-.08V71.58c.61.75 1.25 1.51 1.9 2.28v25.89zm0-26.87c-.65-.78-1.28-1.54-1.9-2.3V59.46c.6.86 1.23 1.75 1.9 2.68v10.74zm.32 27.73c.61.03 1.22.05 1.82.08l-1.82 1.58v-1.66zm1.89 2.05c-.61-.01-1.21-.03-1.82-.04l1.82-1.58v1.62zm0-2.82c-.63-.03-1.27-.05-1.9-.08V74.24c.62.73 1.25 1.46 1.9 2.2v23.4zm0-24.37c-.65-.74-1.28-1.48-1.9-2.22V62.59c.61.84 1.24 1.71 1.9 2.6v10.28zm.32 27.2v-1.61l1.81 1.66c-.6-.02-1.21-.04-1.81-.05zm1.89-.31l-1.81-1.65c.6.03 1.2.05 1.81.08v1.57zm0-2.42c-.63-.03-1.26-.06-1.9-.08V76.8a136.077 136.077 0 0 0 1.89 2.11v21.03h.01zm0-21.97c-.64-.71-1.28-1.42-1.9-2.13V65.62c.61.83 1.25 1.67 1.9 2.53v9.82zm.32 22.83c.56.03 1.12.05 1.69.08.04 0 .09 0 .13.01l-1.82 1.5v-1.59zm1.9 1.97c-.6-.02-1.21-.03-1.81-.05l1.81-1.5v1.55zm0-2.73l-1.9-.09v-20.7c.62.68 1.25 1.36 1.9 2.03v18.76zm0-19.67c-.64-.68-1.27-1.37-1.9-2.05v-9.76c.62.81 1.25 1.63 1.9 2.45v9.36zm.31 22.41v-1.54l1.81 1.59c-.6-.02-1.21-.03-1.81-.05zm1.9-.29l-1.8-1.58c.6.03 1.2.06 1.8.08v1.5zm0-2.35l-1.9-.09V81.62c.62.65 1.26 1.3 1.9 1.95v16.57zm0-17.47c-.64-.65-1.27-1.31-1.9-1.97v-9.29c.62.79 1.25 1.58 1.9 2.38v8.88zm.31 18.33l1.81.09-1.81 1.42V101zm1.9 1.89c-.6-.02-1.2-.03-1.81-.05l1.81-1.41v1.46zm0-2.64l-1.9-.09V83.89c.62.63 1.26 1.25 1.9 1.86v14.5zm0-15.38c-.64-.62-1.27-1.25-1.9-1.88v-8.81c.62.76 1.25 1.53 1.9 2.3v8.39zm.32 18.03v-1.46l1.8 1.51c-.6-.01-1.2-.03-1.8-.05zm1.89-.27l-1.79-1.51 1.79.09v1.42zm0-2.27l-1.9-.09V86.05c.63.6 1.26 1.19 1.9 1.77v12.54zm0-13.39c-.64-.59-1.27-1.19-1.9-1.79v-8.32c.62.74 1.26 1.48 1.9 2.22v7.89zm.32 14.25l1.81.09-1.81 1.34v-1.43zm1.9 1.81l-1.8-.06 1.8-1.33v1.39zm0-2.55c-.63-.03-1.26-.07-1.9-.1V88.12c.63.57 1.26 1.13 1.9 1.68v10.68zm0-11.52c-.64-.56-1.27-1.12-1.9-1.7v-7.82c.63.72 1.26 1.43 1.9 2.14v7.38zm.31 14.08v-1.38l1.79 1.44-1.79-.06zm1.9-.26l-1.78-1.44c.6.03 1.19.06 1.78.1v1.34zm0-2.19c-.63-.03-1.26-.07-1.9-.1V90.07c.63.54 1.26 1.07 1.9 1.58v8.94zm0-9.76c-.64-.52-1.27-1.06-1.9-1.6v-7.3c.63.69 1.26 1.37 1.9 2.05v6.85zm.31 10.62c.6.03 1.2.07 1.8.1l-1.8 1.25v-1.35zm1.9 1.73l-1.79-.06 1.79-1.25v1.31zm0-2.46c-.63-.03-1.26-.07-1.9-.1v-8.71c.63.51 1.26 1 1.9 1.48v7.33zm0-8.13c-.64-.49-1.27-.99-1.9-1.5v-6.78c.63.66 1.26 1.32 1.9 1.96v6.32zm.32 10.6v-1.31l1.78 1.37a52.9 52.9 0 0 1-1.78-.06zm1.89-.24l-1.77-1.37c.59.03 1.18.07 1.77.1v1.27zm0-2.11c-.63-.04-1.26-.07-1.9-.11v-7.11c.63.47 1.26.93 1.9 1.38v5.84zm0-6.61c-.63-.45-1.27-.92-1.9-1.4V86.6c.63.63 1.26 1.26 1.9 1.87v5.76zm.32 7.47c.6.04 1.19.07 1.79.11l-1.79 1.17v-1.28zm1.89 1.65c-.59-.02-1.19-.05-1.78-.07l1.78-1.16v1.23zm0-2.38c-.63-.04-1.26-.08-1.9-.11v-5.63c.63.44 1.26.86 1.9 1.27v4.47zm0-5.23c-.63-.41-1.27-.84-1.9-1.29v-5.69c.63.6 1.26 1.19 1.9 1.77v5.21zm.32 7.62v-1.23l1.77 1.3c-.59-.02-1.18-.04-1.77-.07zm1.9-.22l-1.76-1.29c.59.04 1.18.07 1.76.11v1.18zm0-2.03c-.4-.02-.79-.05-1.19-.07-.24-.01-.47-.03-.71-.04v-4.3c.63.4 1.26.78 1.9 1.15v3.26zm0-3.99c-.63-.37-1.27-.76-1.9-1.17v-5.12c.63.57 1.26 1.13 1.9 1.67v4.62zm.31 4.85c.6.04 1.19.08 1.78.11l-1.78 1.08v-1.19zm1.9 1.57c-.59-.03-1.18-.05-1.77-.08l1.77-1.08v1.16zm0-2.29l-1.9-.12v-3.1c.63.36 1.26.7 1.9 1.03v2.19zm0-2.9c-.63-.33-1.26-.68-1.9-1.05v-4.54a92.4 92.4 0 0 0 1.9 1.56v4.03zm.31 5.2v-1.15l1.76 1.23c-.58-.02-1.17-.05-1.76-.08zm1.9-.2l-1.75-1.22 1.75.12v1.1zm0-1.96c-.63-.04-1.26-.08-1.9-.13v-2.05c.63.32 1.26.62 1.9.9v1.28zm0-1.96c-.63-.29-1.26-.59-1.9-.92v-3.94c.06.05.13.1.19.15.57.44 1.13.87 1.7 1.29v3.42h.01zm.32 2.83l1.77.12-1.77 1v-1.12zm1.89 1.49l-1.76-.09 1.76-.99v1.08zm0-2.2c-.63-.04-1.26-.09-1.9-.13v-1.15c.34.15.68.29 1.02.43.29.12.58.23.88.34v.51zm0-1.2c-.21-.08-.43-.16-.64-.25-.42-.17-.84-.34-1.25-.53v-3.33c.63.46 1.26.9 1.9 1.31v2.8h-.01zm.32 3.42v-1.07l1.74 1.16c-.57-.04-1.16-.07-1.74-.09zm1.9-.19l-1.73-1.15 1.73.12v1.03zm0-2.49c-.63-.19-1.26-.4-1.9-.63v-2.7c.63.41 1.27.8 1.9 1.18v2.15zm.31 1.48c.59.04 1.17.09 1.75.13l-1.75.91v-1.04zm1.9 1.41l-1.07-.06c-.22-.01-.45-.02-.67-.04l1.74-.9v1zm0-2.33c-.63-.13-1.26-.29-1.9-.47v-2.06c.63.37 1.27.71 1.9 1.03v1.5zm.31 2.35v-.99l1.73 1.09c-.57-.03-1.15-.07-1.73-.1zm1.9-.17l-1.72-1.08c.58.04 1.15.09 1.72.13v.95zm0-1.82c-.63-.07-1.26-.17-1.9-.29v-1.41c.29.14.57.28.86.42.35.16.69.31 1.03.45v.83h.01zm.32.9c.52.04 1.04.08 1.55.13l-1.55.82v-.95zm1.68 1.32c-.51-.03-1.02-.06-1.54-.1l1.54-.82v.92zm0-2.09c-.56-.01-1.12-.04-1.69-.1v-.73c.56.23 1.13.44 1.69.62v.21zm.32 2.11v-.89l1.42.98-1.42-.09zm1.57-.18l-1.42-.98 1.42.12v.86zm.32-.83l1.72.15-1.72.75v-.9zm1.79 1.26c-.52-.04-1.05-.07-1.58-.11l1.58-.69v.8zm.31.02v-.73l1.18.81c-.39-.02-.78-.05-1.18-.08zm1.43-.13l-1.4-.96c.47.04.94.09 1.4.13v.83zm0-2.01c-.36-.01-.72-.03-1.08-.07.36-.08.72-.18 1.08-.28v.35zm.31 1.21l1.25.12-1.25.67v-.79zm1.38 1.16l-1.23-.09 1.23-.66v.75zm0-2.42c-.41.04-.83.06-1.25.06h-.12v-.45c.46-.14.92-.3 1.37-.49v.88zm.31 2.45v-.7l.88.77c-.29-.03-.58-.05-.88-.07zm.99-.26l-.88-.76c.07.01.14.01.21.02.22.02.45.04.67.07v.67zm0-1.52c-.27-.03-.55-.06-.82-.08.28-.03.55-.07.82-.12v.2zm0-.84c-.33.06-.66.11-.99.15v-.98c.33-.14.66-.29.99-.45v1.28zm.32 1.72l.9.09-.9.6v-.69zm.99 1.09c-.3-.03-.59-.05-.89-.07l.89-.59v.66zm0-1.83c-.33-.04-.66-.07-.99-.1v-.3c.33-.07.66-.15.99-.24v.64zm0-1.29c-.33.1-.66.18-.99.25v-1.38c.33-.17.66-.35.99-.54v1.67zm.31 3.14v-.65l.87.73c-.28-.03-.57-.05-.87-.08zm.99-.23l-.87-.72.87.09v.63zm0-1.48c-.33-.04-.66-.07-.99-.11v-.76c.33-.1.66-.22.99-.34v1.21zm0-1.9c-.33.14-.66.26-.99.36v-1.76c.33-.2.66-.42.99-.64v2.04zm.32 2.78c.3.03.6.07.89.1l-.89.55v-.65zm.99 1.04c-.29-.03-.59-.06-.89-.08l.89-.54v.62zm0-1.78c-.33-.04-.66-.07-.99-.11v-1.37c.33-.14.66-.29.99-.46v1.94zm0-2.66c-.33.18-.66.34-.99.49v-2.13c.33-.24.66-.49.99-.75v2.39zm.32 4.47v-.61l.86.69c-.29-.03-.58-.05-.86-.08zm.99-.22l-.85-.69c.29.03.57.07.85.1v.59zm0-1.43l-.99-.12v-2.15c.33-.18.66-.38.99-.6v2.87zm0-3.63c-.02.02-.04.03-.07.05-.31.21-.61.41-.92.59V98.1c.33-.28.66-.57.99-.87v2.72zm2.92-5.91c.33-.42.66-.85.98-1.3v3.39c-.32.42-.65.82-.99 1.19v-3.28h.01zm0 4.21c.34-.35.66-.72.99-1.11l.01 6.94c-.25-.03-.49-.07-.74-.1l-.26-.03v-5.7zm-2.61 6.21c.3.04.59.07.88.11l-.88.5v-.61zm.99 1l-.87-.09.87-.49v.58zm0-1.73l-.99-.12v-3.11c.33-.23.66-.48.99-.75v3.98zm0-4.8c-.33.28-.66.55-.99.79v-2.79c.33-.32.66-.65.99-1v3zm.32 6.56v-.56l.85.65-.85-.09zm.99-.2l-.84-.65c.28.04.56.07.84.11v.54zm0-1.39c-.33-.04-.66-.08-.99-.13v-4.29c.33-.29.67-.59.99-.91v5.33zm0-6.23c-.33.35-.66.67-.99.98v-3.06c.33-.37.66-.75.99-1.15v3.23zm.31 7.12c.26.03.53.07.79.11l-.79.44v-.55zm.11.85l.89-.5v.6c-.29-.03-.59-.06-.89-.1zm1.21.14v-.57l.84.67c-.28-.03-.56-.07-.84-.1zm.98-.19l-.73-.59c.25.04.49.07.73.1v.49zm0-1.33c-.32-.05-.65-.09-.98-.14l-.01-7.37c.34-.43.67-.87.99-1.35v8.86zm0-10c-.32.51-.66.99-.99 1.45V92.3c.34-.48.67-.98 1-1.5v3.46h-.01zm1.01 11.77c-.18-.02-.37-.05-.55-.07l.55-.25v.32zm0-.68l-.69.32v-.52c.23.03.46.07.69.1v.1zm.1-11.21h-.05v4.92h-.2v.2h.21v.17h-.07v4.98c-.23-.03-.46-.07-.69-.1v-9.37c.21-.33.43-.67.64-1.02v.07h.16v.15zm.02-.3h-.14c.05-.08.09-.15.14-.23v.23zm.07-3.42h-.07v1.9c-.27.5-.54.97-.82 1.43v-3.46c.29-.47.58-.96.86-1.47v1.34h-.16v.15h.18v.11h.01zm3.4 6.3c.02.05.04.11.06.15v2.14h-.06v-2.29zm-.43-8.28c.04 0 .08 0 .11.01v2.52c-.04.01-.09.02-.13.02l-.42.01-.01-2.54.45-.02zm-.3 17.28c.14.03.28.05.41.07v.34l-.41-.41zm.3.75l-.39-.06v-.33l.39.39zm-.39-1.62l-.01-3.26h.31c.07 0 .14.01.2.04v3.32a8.84 8.84 0 0 0-.5-.1zm.3-4.65h-.31l-.01-3.73h.36c.06 0 .12.01.18.02v3.67c-.08.03-.15.04-.22.04zm-.34-5.11v-.87c.1.29.2.58.29.86l-.29.01zm.04-2.73h.36c.05 0 .09 0 .13.01v1.48c-.15-.48-.32-.97-.49-1.49zm.56 14.99l-.93.93-1.25-1.25c.76.11 1.48.21 2.18.32zm-1.75-1.84v.45l-.46-.33v-.19c.16.02.31.04.46.07zm-.46-.93v-2.63c.07-.19.25-.32.46-.34v3.05c-.15-.03-.3-.06-.46-.08zm.29 1.64c-.09-.01-.19-.03-.29-.04v-.17l.29.21zm.99 2.77l.82.82h-1.64l.82-.82zm-1.28.57v-1.85l.93.93-.93.92zm1.34-3.19c-.16-.02-.32-.05-.49-.07l.48-.34.01.41zm-.56-17.91l.49-.01.01 2.54h-.08c-.14-.42-.28-.86-.42-1.3v-1.23zm0 3.92h.21c.1.31.2.61.3.9l.01 1.82-.52.01v-2.73zm0 4.11l.52-.01.01 3.73-.54.01v-3.73h.01zm0 5.1l.54-.01.01 3.21-.55-.09v-3.11zm0 3.97c.16.03.31.05.46.08l-.46.32v-.4zm-.36-17.09h.04v.23c-.02-.08-.05-.15-.07-.23h.03zm-.62 1.82h.18v-.15h-.16v-1.28c0-.01.01-.03.02-.04.21.67.42 1.31.62 1.94V91h-.02c-.27 0-.49-.14-.57-.34v-.26h-.07v-.11zm.08 3.54v-1.08c.08-.2.3-.35.57-.36h.02v2.72c-.25-.01-.46-.15-.52-.36v-.62h-.05v-.16h.16v-.14h-.18zm.05 5.41h.21v-.2h-.2v-2.18c.06-.21.27-.36.52-.38v3.72c-.22-.02-.4-.15-.46-.33v-.47h-.07v-.16zm.07 11.91l.93.93-.93.92v-1.85zm2.46 2.53h-2.43l1.25-1.25 1.18 1.18v.07zm0-.78l-.82-.82.82-.83v1.65zm0-2.36l-1.18 1.18-1.2-1.2h2.38v.02zm0-1.08l-.82-.82.82-.83v1.65zm.07-10.08h-.06v-.17h.06v.17zm.04-5.29h-.04v.62c-.01.03-.03.07-.05.1 0-.01-.01-.02-.01-.03v-.85h.1v.16zm.02-.3h-.12v-1.26c.05.05.1.11.12.18v1.08zm.07-3.43h-.07v.26c-.03.07-.07.13-.12.18v-2.22c.08.07.14.15.17.24v1.28h-.16v.15h.18v.11zm3.18 15.07l.12.27-.12-.03v-.24zm-2.25 1.3V106.64l.12.11a.502.502 0 0 0-.12-.02zm.25-.3l-.24-.23v-.14c.08.02.16.03.24.05v.32zm0-1.18c-.08-.02-.16-.03-.24-.05v-5.36c.08.22.16.44.24.65v4.76zm0-6.58c-.1-.27-.2-.55-.3-.84v-3.75h-.05v-.16h.16v-.14h-.18v-3.43h-.07v-.11h.18v-.15h-.16v-.94c.14.44.28.88.42 1.3v8.22zm.31 7.5l.45.09-.45.26v-.35zm.53.75c-.15-.03-.29-.05-.44-.08l.44-.25v.33zm0-1.5c-.17-.04-.35-.07-.53-.11v-3.99c.19.48.36.93.53 1.35v2.75zm0-4.49c-.17-.44-.34-.91-.53-1.4v-8.12c.18.55.36 1.08.53 1.6v7.92zm.31 6.05v-.3l.39.38c-.12-.03-.25-.05-.39-.08zm.53-.23l-.39-.37.39.09v.28zm0-1.15c-.17-.04-.35-.08-.53-.11v-2.03c.03.08.07.16.1.24.15.37.29.7.43 1.01v.89zm0-2.53c-.16-.4-.34-.85-.53-1.32v-7.8c.18.54.36 1.05.53 1.55v7.57zm.32 3.47c.15.03.3.07.45.1l-.45.22v-.32zm.52.72l-.43-.09.43-.21v.3zm0-2.2c-.16-.35-.33-.76-.53-1.22v-7.43c.18.52.36 1.02.53 1.49v7.16zm.32 2.27v-.15c.04.07.07.12.09.17-.03-.01-.06-.01-.09-.02zm.53-1.33l-.46-.12c-.02-.04-.04-.09-.06-.13v-6.97c.18.5.36.98.53 1.43V106h-.01zm.31.96l.44.12-.44.18v-.3zm.53.7c-.13-.03-.26-.07-.39-.1l-.01-.02.4-.16v.28zm0-1.43c-.17-.05-.35-.1-.53-.14v-5.04c.18.48.36.94.53 1.36v3.82zm.32 1.51v-.23l.35.33c-.12-.03-.24-.07-.35-.1zm.52-.17l-.34-.32c.12.04.23.07.34.11v.21zm0-1.09c-.17-.05-.35-.11-.53-.16v-3.12c.07.17.14.34.21.5.11.27.22.53.32.77v2.01zm.32.99c.14.05.29.1.42.15l-.42.11v-.26zm.52.69c-.13-.04-.27-.09-.4-.13l.4-.11v.24zm0-1.4c-.17-.06-.35-.12-.53-.18v-1.39c.2.46.38.84.53 1.15v.42zm.32 1.51v-.11l.14.16c-.05-.02-.09-.04-.14-.05zm.15-.43c.01.01.03.01.04.02v.03l-.04-.05z" fill="#C74E10"/></svg>