<svg width="100" height="68" fill="none" xmlns="http://www.w3.org/2000/svg" viewBox="0 0 100 68"><g clip-path="url(#clip0)"><path d="M48.782 67.83c18.703 0 33.864-15.184 33.864-33.915C82.646 15.185 67.485 0 48.782 0 30.08 0 14.92 15.184 14.92 33.915S30.08 67.831 48.782 67.831z" fill="#F58426"/><path d="M48.782 61.876c15.419 0 27.917-12.518 27.917-27.96S64.201 5.956 48.783 5.956c-15.419 0-27.918 12.518-27.918 27.96s12.5 27.96 27.918 27.96z" fill="#F8A05A"/><path d="M48.782 55.533c11.921 0 21.585-9.679 21.585-21.617 0-11.94-9.664-21.618-21.585-21.618-11.92 0-21.584 9.679-21.584 21.617 0 11.94 9.664 21.618 21.584 21.618z" fill="#F58426"/><path d="M10 21.5l1.479-.128L51.044 18.1l23.991-3.946 7.811-.767L90 48.37l-40 3.801-37.796 5.412L10 21.5z" fill="#78A22F"/><path d="M13.69 21.134l-2.496.146 2.4 34.282 3.495-.542-3.399-33.886z" fill="#fff"/><path d="M13.402 55.802l-2.43-34.716 2.907-.172.02.199 3.417 34.083-3.914.606zm-1.984-34.325l2.369 33.842 3.074-.477-3.359-33.488-2.084.123z" fill="#000"/><path d="M83.466 49.017l3.578-.122s-3.285-20.569-3.578-22.25c-.292-1.683-1.265-6.07-1.873-9.092a72.839 72.839 0 0 0-1.485-5.922H77.7l5.766 37.386z" fill="#fff"/><path d="M83.29 49.232l-5.834-37.81h2.807l.043.148c.009.03.886 2.945 1.49 5.941.25 1.245.562 2.717.865 4.142.43 2.037.837 3.96 1.01 4.954.288 1.663 3.545 22.048 3.578 22.253l.038.234-3.998.138zM77.943 11.84l5.702 36.961 3.156-.107c-.365-2.284-3.266-20.45-3.538-22.014-.171-.985-.578-2.906-1.009-4.94a427.198 427.198 0 0 1-.864-4.145c-.522-2.592-1.252-5.125-1.435-5.755h-2.012z" fill="#000"/><path d="M14.311 18.381l-2.107.883 2.872 36.07 3.492-.542-4.257-36.41z" fill="#fff"/><path d="M14.883 55.575l-.019-.224-2.882-36.22 2.502-1.049 4.313 36.886-3.914.607zm-2.46-36.177l2.84 35.693 3.073-.474-4.2-35.937-1.713.718z" fill="#000"/><path d="M83.466 49.017l2.58-.088-7.722-38.196-1.865.103 7.007 38.18z" fill="#fff"/><path d="M83.294 49.232L76.21 10.64l2.283-.125L86.3 49.127l-3.007.105zM76.708 11.03L83.64 48.8l2.151-.074-7.636-37.773-1.447.077z" fill="#000"/><path d="M13.68 17.293s18.297-6.443 31.73-2.983c0 0 8.893-5.495 31.195-5.129l8.34 41.151H49.85l-32.23 5.97-3.94-39.009z" fill="#fff"/><path d="M17.433 56.55L13.455 17.15l.154-.054c.184-.065 18.435-6.397 31.769-3.008.935-.532 10.205-5.46 31.23-5.115l.166.002.034.166L85.2 50.544H49.868L17.434 56.55zm-3.53-39.112l3.902 38.618 32.026-5.933h34.86L76.434 9.388c-11.39-.173-19.174 1.218-23.708 2.417-4.936 1.305-7.185 2.67-7.208 2.685l-.075.046-.086-.022c-12.568-3.239-29.645 2.313-31.453 2.924z" fill="#000"/><path d="M46.177 14.164l-1.051.126 4.32 36.13 1.051-.126-4.32-36.13z" fill="#C8C2B3"/><path d="M53.156 27.887c-.363.255-.722.625-1.159.793-1.832.707-3.96.125-4.89-1.837-.547-1.155-.672-2.387-.317-3.621.378-1.314 1.322-2.025 2.638-2.324 1.122-.255 2.08.069 3.045.847.086-.992.021-1.828-.326-2.617-.07-.159-.4-.226-.622-.287-.12-.033-.267.046-.403.06-.311.03-.666.012-.641-.382.01-.159.35-.39.566-.422.618-.092 1.247-.099 1.873-.14.364-.026.537.127.56.506.109 1.74.221 3.48.36 5.22.085 1.072.235 2.14.323 3.212.05.615.355.824.931.73.155-.025.328-.088.462-.042.15.05.36.195.372.316.015.134-.15.402-.261.416-.66.084-1.327.15-1.99.13-.17-.002-.327-.339-.52-.558zm-5.347-3.069c.063.966.299 2.19 1.53 2.922.897.534 1.789.444 2.66-.117.831-.535.98-1.305.838-2.207a20.887 20.887 0 0 1-.19-1.692 2.23 2.23 0 0 0-2.597-2.048c-1.489.253-2.24 1.197-2.24 3.142zM43.21 28.581c-.82 1.096-1.888 1.548-3.158 1.527-1.26-.02-2.147-.78-2.427-1.91-.203-.815.338-1.784 1.157-2.064.854-.293 1.71-.573 2.557-.89.946-.35 1.324-1.005.998-1.744a1.506 1.506 0 0 0-.512-.619c-.668-.448-2.272-.215-2.797.406-.11.132-.106.397-.081.592.038.287.28.644.177.822-.116.2-.532.347-.793.316-.278-.034-.629-.245-.769-.483-.305-.521-.096-1.203.439-1.693.643-.592 1.43-.878 2.285-.991.328-.044.666-.103.99-.067 1.382.152 2.178.924 2.391 2.318.182 1.2.328 2.405.5 3.608.027.19.048.44.17.548.201.174.586.416.709.339.234-.146.424-.485.472-.772.058-.356-.077-.738-.065-1.107.004-.148.167-.397.282-.412.146-.018.439.138.455.25.092.669.272 1.378.136 2.012-.196.916-1.934 1.192-2.657.495-.14-.13-.265-.276-.46-.48zm-.541-2.976c-.93.345-1.784.659-2.636.98-.22.084-.487.145-.624.306-.264.306-.594.661-.635 1.027-.06.523.355.893.84 1.086 1.637.644 3.37-.621 3.23-2.356-.029-.349-.114-.69-.175-1.043zM32.518 31.307c-1.408.148-3.02-1.113-3.438-3.086a6.75 6.75 0 0 1-.131-1.575c.04-1.506.948-2.753 2.314-3.249 1.608-.583 3.193-.318 4.152.868.42.52.604 1.245.827 1.9.128.376-.077.59-.511.66-1.586.254-3.163.549-4.742.833-.775.138-.825.233-.55.96.55 1.452 1.941 2.151 3.416 1.716.71-.21 1.19-.661 1.43-1.362.084-.24.122-.51.258-.715.12-.184.348-.297.528-.442.138.193.38.38.393.582.041.63-.18 1.196-.637 1.648-.888.872-1.972 1.247-3.309 1.262zm-2.325-4.594c.074.037.111.073.142.069 1.467-.245 2.933-.488 4.397-.749.086-.015.203-.193.203-.293-.005-.636-.997-1.692-1.623-1.757-2.02-.207-3.018.659-3.119 2.73zM23.372 25.929c.347-.745.973-1.249 1.859-1.44 1.408-.3 2.713.386 3.05 1.632.2.745-.352 1.557-1.11 1.636-.357.038-.612-.067-.716-.443-.096-.35.002-.57.367-.663.337-.086.403-.344.224-.582-.211-.28-.464-.621-.77-.724-1.148-.385-2.516.586-2.38 1.772.17 1.468.545 2.914.857 4.366.073.337.34.464.685.362.188-.057.384-.184.56-.162.231.032.448.183.672.28-.153.168-.276.409-.466.488-.3.126-.65.13-.971.21-.723.175-1.445.36-2.164.547-.33.088-.71.23-.82-.238-.105-.437.28-.485.597-.542.096-.017.19-.063.286-.065.524-.019.62-.305.503-.755-.303-1.175-.6-2.355-.9-3.53-.034-.135-.073-.267-.109-.398-.353-1.264-.35-1.251-1.62-1.065-.168.025-.366-.167-.55-.26.121-.167.209-.433.368-.485.574-.19 1.167-.368 1.765-.427.23-.018.49.295.783.486z" fill="#F58426"/><path d="M35.283 35.202c.746-.433 1.412-.996 2.18-1.233 1.79-.55 3.26.494 3.527 2.341.173 1.201.384 2.398.564 3.598.075.509.334.64.822.546a12.78 12.78 0 0 1 1.644-.2c.68-.044.89-.23.815-.898-.113-.992-.253-1.98-.395-2.97-.08-.561-.177-1.12-.282-1.678-.09-.477-.355-.674-.848-.513-.163.053-.37.099-.516.044-.156-.058-.334-.221-.374-.372-.029-.107.138-.372.249-.391.654-.115 1.316-.22 1.976-.228.15-.002.305.385.499.65.562-.583 1.226-1.11 2.126-1.21.898-.1 1.665.177 2.48.98.135-.23.219-.466.377-.63 1.014-1.033 3.102-1.158 4.15-.169.398.377.73.962.817 1.498.186 1.157.192 2.343.278 3.516.019.253.06.505.092.758.052.41.23.554.681.472.601-.108 1.228-.188 1.832-.136.62.055.796-.232.78-.732-.035-1.156-.104-2.313-.162-3.47-.017-.333-.044-.665-.063-.998-.041-.678-.194-.826-.852-.826-.098 0-.196.004-.294.002-.27-.002-.598.063-.62-.347-.024-.398.267-.488.584-.496.57-.015 1.143-.046 1.709-.004.17.012.357.215.476.376.081.111.07.3.077.454.082 1.764.157 3.527.24 5.29.032.668.128.714.782.647.22-.023.472.086.676.196.059.032.06.356-.012.413-.188.142-.428.284-.656.297-1.713.094-3.426.152-5.14.232-.646.03-1.291.127-1.934.11-.195-.006-.383-.294-.573-.453.18-.124.351-.333.543-.354.809-.088.884-.194.802-.995-.123-1.189-.2-2.383-.286-3.576-.073-1.008-1.044-1.773-2.12-1.654-1.073.119-1.78.998-1.66 2.025.14 1.207.246 2.416.378 3.623.054.512.244.853.869.688.294-.077.668-.048.63.366-.014.172-.336.425-.543.454-.93.128-1.869.19-2.807.27-.305.025-.624.027-.639-.402-.012-.408.278-.46.6-.472.756-.028.858-.105.797-.846-.1-1.248-.217-2.5-.39-3.74-.134-.952-1.138-1.638-2.016-1.462-1.144.23-1.909 1.215-1.756 2.211a91.42 91.42 0 0 1 .417 3.205c.096.822.178.885.976.912.188.006.37.24.555.368-.169.15-.32.406-.51.437-.906.15-1.82.308-2.735.337-1.48.048-2.901.446-4.36.598-.202.021-.58-.173-.62-.334-.094-.364.207-.473.547-.492.907-.05.947-.09.821-.966a92.401 92.401 0 0 0-.557-3.54c-.174-.945-.742-1.462-1.644-1.583-.9-.122-1.823.343-2.227 1.119-.342.663-.32 1.351-.175 2.064.188.92.33 1.85.51 2.772.091.473.334.755.873.53.106-.044.248-.089.342-.053.188.071.353.199.529.301-.122.178-.22.486-.37.515a72.263 72.263 0 0 1-3.42.56c-.1.015-.308-.094-.315-.16a1.167 1.167 0 0 1 .09-.553c.034-.081.19-.125.3-.159.312-.094.786.155.895-.34.069-.312.023-.662-.034-.984-.227-1.293-.47-2.581-.728-3.868-.17-.839-.303-.9-1.135-.732-.267.054-.624.192-.716-.251-.092-.445.242-.517.566-.569.29-.048.587-.067.871-.138.852-.218.85-.224 1.14.402zM68.957 31.198c-.418-.054-.785-.2-1.08-.11-.232.07-.45.411-.526.675-.05.17.11.47.265.623.591.588.909 1.26.852 2.107-.058.86-.43 1.497-1.216 1.866-.85.4-1.727.472-2.63.188-.298-.094-.6-.171-.904-.253-.409-.113-.703.05-.854.425-.156.39.006.715.374.872.261.11.562.142.85.173 1.184.128 2.38.193 3.555.375.959.146 1.525.753 1.635 1.54.155 1.1-.21 1.918-1.14 2.36-1.642.784-3.331.777-5.027.183-1.3-.454-1.953-2.437-.443-3.437.11-.073.2-.175.305-.27-1.358-.84-1.71-2.054-.017-3.077-.102-.311-.257-.615-.299-.935-.192-1.464.752-2.615 2.231-2.753.176-.016.355-.037.529-.016.601.07 1.019.054 1.338-.68.45-1.034 2.354-1.04 2.956-.071.163.261.184.688.11 1.004-.098.422-.534.496-.868.351-.533-.228-.245-.636.004-1.14zm-3.32 10.572c.573-.152 1.256-.297 1.908-.525.462-.16.779-.587.679-1.052-.08-.37-.366-.828-.687-.991-1.314-.666-2.684-.607-4.023-.023-.476.207-.725.615-.692 1.13.036.558.324.974.89 1.106.587.136 1.184.221 1.926.355zm-1.898-7.585c-.008.97.752 1.686 1.79 1.686.98 0 1.83-.742 1.845-1.61.016-.959-.74-1.649-1.817-1.661-1.051-.01-1.81.65-1.818 1.585zM70.087 35.83c.154-.622.232-1.277.478-1.858.712-1.689 2.007-2.322 3.41-2.188 2.087.198 3.16 1.265 3.468 3.133a5.587 5.587 0 0 1-.38 3.161c-.482 1.136-1.334 1.832-2.588 1.95-1.389.13-2.621-.166-3.467-1.402-.57-.837-.871-1.75-.921-2.797zm6.41.08c-.207-.771-.29-1.468-.574-2.068-.686-1.45-2.992-1.577-3.908-.261-.896 1.284-.921 3.32-.059 4.62.9 1.358 3 1.35 3.789-.08.376-.681.516-1.489.752-2.21zM25.245 39.333c-.004-2.238 1.197-3.606 3.398-3.788 1.03-.086 1.951.272 2.603 1.1 1.138 1.44 1.464 3.056 1.048 4.862-.49 2.131-3.711 3.041-5.326 1.6-1.134-1.014-1.72-2.255-1.723-3.774zm3.517-2.844c-1.336 0-2.126.583-2.345 1.9-.242 1.465.119 2.81 1.163 3.906.591.622 1.329.791 2.156.523.835-.27 1.36-.815 1.543-1.683.286-1.364-.054-2.603-.78-3.747-.396-.62-.978-.946-1.737-.9zM22.779 39.103c-.368-.954-1.935-1.031-2.824-.274-.619.527-.87 1.243-.848 1.994.037 1.31.43 2.512 1.49 3.39.644.534 1.365.687 2.136.319.753-.36 1.107-1.021 1.238-1.818.01-.057.002-.117.004-.176.009-.38-.11-.879.497-.86.537.017.462.486.472.852.038 1.215-.482 2.146-1.551 2.694-1.166.598-2.336.542-3.457-.193-1.458-.953-2.433-3.694-1.657-5.53.696-1.643 2.327-2.417 4.113-2.023 1.099.24 1.777 1.221 1.594 2.271-.05.283-.351.597-.619.741-.198.107-.582.042-.793-.09-.426-.27-.339-.734.204-1.297zM59.49 30.305c-.01.445-.367.77-.851.765-.533-.004-.84-.315-.821-.836.017-.484.334-.758.852-.74.466.014.83.374.82.81z" fill="#78A22F"/></g><defs><clipPath id="clip0"><path fill="#fff" d="M0 0h100v67.961H0z"/></clipPath></defs></svg>