<svg width="54" height="61" fill="none" xmlns="http://www.w3.org/2000/svg" viewBox="0 0 54 61"><path d="M51.485 16.338a24.884 24.884 0 0 1 1.506 14.81c-1.021 4.972-3.543 9.541-7.248 13.129h0L31.06 58.501h0a5.746 5.746 0 0 1-1.86 1.204h0a5.904 5.904 0 0 1-4.398 0h0a5.745 5.745 0 0 1-1.86-1.204h0L8.257 44.277h0C4.552 40.689 2.03 36.12 1.009 31.148a24.88 24.88 0 0 1 1.506-14.81c2.003-4.685 5.398-8.691 9.756-11.512A27.13 27.13 0 0 1 27 .5c5.245 0 10.37 1.506 14.73 4.326 4.357 2.82 7.752 6.827 9.755 11.512zm0 0l.455-.194-.455.194s0 0 0 0z" fill="#0047BB" stroke="#fff"/><path d="M27.713 43.417c9.184 0 16.628-7.279 16.628-16.258 0-8.98-7.444-16.258-16.628-16.258-9.183 0-16.628 7.279-16.628 16.258s7.445 16.258 16.628 16.258z" fill="#fff"/><path d="M27.713 42.334c8.572 0 15.52-6.794 15.52-15.175s-6.948-15.176-15.52-15.176-15.52 6.795-15.52 15.176c0 8.38 6.949 15.175 15.52 15.175z" fill="#fff"/><path d="M12.53 30.303A14.992 14.992 0 0 0 15.907 37c1.24-5.376 4.312-10.181 8.714-13.624 4.401-3.444 9.87-5.32 15.507-5.322a14.352 14.352 0 0 0-.735-.878 25.304 25.304 0 0 0-15.694 2.137c-4.852 2.371-8.775 6.232-11.167 10.991z" fill="#0047BB"/><path d="M20.746 40.717a15.832 15.832 0 0 0 9.743 1.38 15.62 15.62 0 0 0 8.632-4.628 15.02 15.02 0 0 0 4.047-8.775A14.9 14.9 0 0 0 41 19.304c-5.292.945-10.127 3.543-13.779 7.404-3.652 3.861-5.924 8.777-6.475 14.009zM31.705 15.018c2.129 0 4.248.267 6.307.795a15.644 15.644 0 0 0-7.108-3.505 15.848 15.848 0 0 0-7.95.404 15.554 15.554 0 0 0-6.697 4.206 15.054 15.054 0 0 0-3.683 6.9 24.717 24.717 0 0 1 8.558-6.494 25.256 25.256 0 0 1 10.573-2.306z" fill="#78BE21"/></svg>