<svg width="1600" height="501" fill="none" xmlns="http://www.w3.org/2000/svg" viewBox="0 0 1600 501"><path d="M1673.48-27H-53.86v624h1727.34V-27z" fill="#F5FCFF"/><path d="M413.489 238.661v-11.726h19.707v-7.023h13.142v-3.745h22.987v3.745h36.128v7.023h68.319v11.726h18.398v128.041H389.834V238.661h23.655z" fill="url(#paint0_linear)"/><path d="M1282.58 366.701v-4.096h-3.45v-1.451h3.45v-4.245h-3.45v-1.451h3.45v-4.246h-3.45v-1.45h3.45v-4.255h-3.45v-1.45h3.45v-4.246h-3.45v-1.45h3.45v-4.246h-3.45v-1.45h3.45v-4.246h-3.45v-1.459h3.45v-4.246h-3.45v-1.45h3.45v-4.246h-3.45v-1.45h3.45v-4.246h-3.45v-1.459h3.45v-4.246h-3.45v-1.451h3.45v-4.245h-3.45v-1.451h3.45v-4.245h-3.45v-1.451h3.45v-4.254h-3.45v-1.451h3.45v-4.245h-3.45v-1.451h3.45v-4.246h-3.45v-1.45h3.45v-4.255h-3.45v-1.45h3.45v-4.246h-3.45v-1.45h3.45v-4.246h-3.45v-1.45h3.45v-4.246h-3.45v-1.45h3.45v-4.255h-3.45v-1.45h3.45v-4.246h-3.45v-1.45h3.45v-4.246h-3.45v-1.451h3.45v-4.254h-3.45v-1.451h3.45v-4.245h-3.45v-1.451h3.45v-4.245h-3.45v-1.451h3.45v-4.246h-3.45v-1.45h3.45v-4.254h-3.45v-1.451h3.45v-4.246h-3.45v-1.45h3.45v-4.246h-3.45v-1.45h3.45v-4.255h-3.45v-1.45h3.45v-4.246h-3.45v-1.45h3.45v-4.246h-3.45v-1.45h3.45v-4.255h-3.45v-1.45h3.45v-4.246h-3.45v-1.45h3.45v-4.246h-3.45v-1.451h3.45v-4.245h-3.45v-3.991h-4.25v-19.383h-8.76v-17.791h-2.92v17.791h-20.72l-36.64 12.746v8.764h-4.52v24.692h-4.51v15.41h-3.19v171.007h88.96zM1069.73 137.028v-18.24h-14.53v18.24h-3.42v-18.24h-14.53v18.24h-16.68v229.674h65.84V137.028h-16.68zM724.288 366.701V246.089l-16.341-7.358v-21.949l-13.423-6.039h.273v-24.165h-23.092v3.912h-13.142v-3.912h-12.078v180.123h77.803z" fill="#D7EFFA"/><path d="M954.279 156.287V146.24h-14.935v-9.388h-24.218v9.388h-14.934v10.047h-15.735v210.415h85.556V156.287h-15.734z" fill="#97D0E8"/><path d="M281.739 366.702V197.189h-34.265v6.646h-25.387v-9.309h-31.733v-5.318h-26.661v15.954h-26.652V216.8h-43.16v149.902h187.858z" fill="#D7EFFA"/><path d="M918.018 366.701H802.03V92.636l115.988 18.925v255.14zM81.591 271.924v-5.187h-2.76v-7.761H60.064v-5.187h2.927v-5.177h-2.927v-11.393h2.927v-5.177h-2.927V220.65h2.927v-5.187h-2.927v-11.392h2.927v-5.186h-2.927v-8.281h-3.727V171.96H49.19v-13.476H-9.283v32.12h-8.615v8.281h-2.918v5.186h2.918v11.392h-2.918v5.187h2.918v11.392h-2.918v5.177h2.918v11.393h-2.918v5.177h2.918v5.187h-7.225v7.761h-2.76v5.187h2.76v11.594h-2.76v5.178h2.76v11.603h-2.76v5.177h2.76v11.604h-2.76v5.186h2.76v11.594h-2.76v5.187h2.76v11.594h-2.76v5.187h2.76v10.873H78.83v-10.873h2.76v-5.187h-2.76v-11.594h2.76v-5.187h-2.76v-11.594h2.76v-5.186h-2.76v-11.604h2.76v-5.177h-2.76v-11.603h2.76v-5.178h-2.76v-11.594h2.76zM1264.23 268.118v-5.697h3.22v-16.816h9.43v-24.217h24.26v-26.213h56.31v26.213h2.96v28.498h14.28v116.815h-107.24v-6.267h-3.22v-5.705h3.22v-12.755h-3.22v-5.705h3.22v-12.764h-3.22v-5.696h3.22v-12.763h-3.22v-5.705h3.22v-12.755h-3.22v-5.705h3.22v-12.763h-3.22z" fill="#97D0E8"/><path d="M363.858 194.217v-44.4h-10.144v-22.925h-13.775v4.369h-2.18v-4.369h-13.765v22.925h-10.637v44.4h-5.318v172.484h60.408V194.217h-4.589zM1640.85 71.663h-162.93l-2.73 24.42h-4.56v270.619h175.53V96.082h-5.31v-24.42z" fill="#D7EFFA"/><path d="M1574.94 159.803v2.681h-4.44v-6.513h4.74l-21.25-46.748h-1.04V96.768h-2.12v12.455h-15.85V96.768h-2.13v12.455h-15.86V96.768h-2.12v12.455h-15.86V96.768h-2.12v12.455h-15.86V96.768h-2.13v12.455h-15.85V96.768h-2.12v12.455h-15.86V96.768h-2.13v12.455h-15.85V96.768h-2.12v12.455h-.83l-21.25 46.748h4.74v6.513h-4.45v-2.681h-3.7v206.898h179.16V159.803h-3.7zM162.884 138.575v-7.156h-30.775v7.156l-1.503.096v228.031h71.579V172.435l-39.301-33.86z" fill="#97D0E8"/><path d="M321.902 177.902v-2.189h-1.451v-3.639h-6.557v-24.507h-6.549v-16.016h-23.057v4.122h-8.492v11.894h-20.868v24.507h-13.344v194.627H321.902v-2.18h-1.451v-3.217h1.451v-2.18h-1.451v-3.209h1.451v-2.188h-1.451v-3.209h1.451v-2.189h-1.451v-3.208h1.451v-2.18h-1.451v-3.209h1.451v-2.188h-1.451v-3.209h1.451v-2.18h-1.451v-3.217h1.451v-2.18h-1.451v-3.209h1.451v-2.188h-1.451v-3.209h1.451v-2.18h-1.451v-3.217h1.451v-2.18h-1.451v-3.209h1.451v-2.188h-1.451v-3.209h1.451v-2.18h-1.451v-3.217h1.451v-2.18h-1.451v-3.209h1.451v-2.188h-1.451v-3.209h1.451v-2.18h-1.451v-3.217h1.451v-2.18h-1.451V275h1.451v-2.188h-1.451v-3.209h1.451v-2.18h-1.451v-3.217h1.451v-2.18h-1.451v-3.209h1.451v-2.188h-1.451v-3.209h1.451v-2.18h-1.451v-3.208h1.451v-2.189h-1.451v-3.209h1.451v-2.188h-1.451v-3.209h1.451v-2.18h-1.451v-3.208h1.451v-2.189h-1.451v-3.209h1.451v-2.188h-1.451v-3.209h1.451v-2.18h-1.451v-3.208h1.451v-2.189h-1.451v-3.209h1.451v-2.189h-1.451v-3.208h1.451v-2.18h-1.451v-3.208h1.451v-2.189h-1.451v-3.209h1.451v-2.189h-1.451v-3.208h1.451v-2.18h-1.451V183.3h1.451v-2.189h-1.451v-3.209h1.451zM436.721 177.902v-2.18h-1.459v-3.648h-6.549v-24.507h-6.549v-16.016h-23.057v4.122h-8.491v11.894h-20.869v24.507h-13.352v194.627h80.326v-2.18h-1.459v-3.217h1.459v-2.18h-1.459v-3.209h1.459v-2.188h-1.459v-3.209h1.459v-2.189h-1.459v-3.208h1.459v-2.18h-1.459v-3.209h1.459v-2.188h-1.459v-3.209h1.459v-2.18h-1.459v-3.217h1.459v-2.18h-1.459v-3.209h1.459v-2.188h-1.459v-3.209h1.459v-2.18h-1.459v-3.217h1.459v-2.18h-1.459v-3.209h1.459v-2.188h-1.459v-3.209h1.459v-2.18h-1.459v-3.217h1.459v-2.18h-1.459v-3.209h1.459v-2.188h-1.459v-3.209h1.459v-2.18h-1.459v-3.217h1.459v-2.18h-1.459V275h1.459v-2.188h-1.459v-3.209h1.459v-2.18h-1.459v-3.217h1.459v-2.18h-1.459v-3.209h1.459v-2.188h-1.459v-3.209h1.459v-2.18h-1.459v-3.208h1.459v-2.189h-1.459v-3.209h1.459v-2.188h-1.459v-3.209h1.459v-2.18h-1.459v-3.208h1.459v-2.189h-1.459v-3.209h1.459v-2.188h-1.459v-3.209h1.459v-2.18h-1.459v-3.208h1.459v-2.189h-1.459v-3.209h1.459v-2.189h-1.459v-3.208h1.459v-2.18h-1.459v-3.208h1.459v-2.189h-1.459v-3.209h1.459v-2.189h-1.459v-3.208h1.459v-2.18h-1.459V183.3h1.459v-2.189h-1.459v-3.209h1.459z" fill="#0A7BC0"/><path d="M1077.21 356.021v-9.028h-6.91v-9.027h-6.9v-9.028h-3.1V215.516h-31.51v-6.724h-55.586v6.724h-3.191v151.185H1084.11v-10.68h-6.9z" fill="#97D0E8"/><path d="M1189.47 268.1v-59.045h-7.12v-4.826h-3.81v-5.836h-7.29l-2.1-2.989-2.1 2.989h-2.96l.14-.194-12.58-7.269-12.58 7.269.13.194h-3.05l-2.1-2.989-2.09 2.989h-7.19v5.836h-3.83v13.063h-22.69V268.1h-15.57v98.601h118.25V268.1h-11.46zM111.4 136.588v-25.184h-9.002V89.498h-6.953v-3.279H83.868v3.279H55.564v21.906h-2.831v-4.325H45.27v29.509h-8.491v230.113h76.168V136.588H111.4z" fill="#97D0E8"/><path d="M1374.87 138.267v.211c-6.08.905-15.75 4.958-25.84 11.173-12.79 7.876-22.17 16.719-23.45 21.65h-1.52v195.401h84.2V138.267h-33.39zM960.115 194.753c-.343-5.88-1.943-11.199-4.448-15.277-1.424-2.312-3.138-4.246-5.134-5.626-1.986-1.38-4.28-2.189-6.698-2.189-2.417 0-4.711.809-6.698 2.189-2.989 2.066-5.371 5.362-7.041 9.379-1.407 3.385-2.286 7.314-2.54 11.524h-20.675v171.948h73.9V194.753h-20.666zm-24.93-13.335c1.205-1.96 2.602-3.489 4.079-4.5 1.477-1.011 2.998-1.521 4.58-1.53 1.582 0 3.103.51 4.58 1.53 2.206 1.512 4.254 4.219 5.705 7.735 1.204 2.901 2.004 6.356 2.25 10.092h-1.266c-1.143-8.43-5.757-14.742-11.269-14.742-5.511 0-10.126 6.312-11.269 14.742H931.3c.334-5.239 1.793-9.925 3.885-13.327zM639.18 161.464l-.572 5.31-35.293-28.129-35.302 28.129-.571-5.31-7.709 21.044v184.193h87.165V182.508l-7.718-21.044zM813.563 162.861v-7.683h-5.31v-7.683h-5.309v-7.683h-5.31v-7.682h-17.492v-3.64h-37.394V89.153c1.907-.949 5.115-1.67 7.049-1.705 2.136-.035 4.132.747 6.11 1.442 2.435.853 5.124 1.125 7.744.993.088.009 2.373-.22 3.094-.343.185-.035.229-.246.158-.395-1.723-3.587-3.322-7.331-.949-11.032.009-.009.009-.018.018-.026v-.01c.008-.017.026-.043.026-.07.026-.105-.009-.184-.088-.246-.009-.008-.017-.017-.035-.026a.25.25 0 0 0-.273-.018c-2.707 1.53-5.555 2.48-8.693 2.453-2.611-.027-5.055-.923-7.472-1.785-2.11-.756-4.773-1.547-6.698-.624V74.21h-2.4v54.272h-13.546l-8.878 9.062h-1.741V366.7h102.672V162.861h-5.283zM167.271 325.282l-9.74-5.67-9.74 5.67-12.104 4.07V238.31h-.738v-4.799h.492v-1.433h-4.685v1.433h.501v4.799h-5.767v-1.969l-12.227-4.114-9.74-5.678-9.74 5.678-12.227 4.114v1.969H67.632v-1.969l-12.227-4.114-9.749-5.678-9.74 5.678-12.227 4.114v1.969h-5.757v-4.799h.492v-1.433h-4.677v1.433h.493v4.799h-.748v128.392h166.015v-37.306l-12.236-4.114zM1609.36 298.506h2.37l-26.53-19.717h3.03l-26.81-16.869h-.01c-7.69-5.397-24.71-9.142-44.46-9.142-19.76 0-36.77 3.754-44.46 9.142h-.01l-26.81 16.869h3.03l-26.53 19.717h2.37v42.264h3.59v25.931h177.64V340.77h3.59v-42.264z" fill="#0A7BC0"/><path d="M410.605 366.701H601.98v-40.347h1.327v-23.207h-7.208v3.226h-14.742v-8.72h.071a.61.61 0 0 0 .615-.615.612.612 0 0 0-.615-.616h-.141v-1.608h.141a.612.612 0 0 0 .615-.616.611.611 0 0 0-.615-.615h-.141v-1.231h.141a.61.61 0 0 0 .615-.615.61.61 0 0 0-.615-.615h-.141v-.853h-.079a2.225 2.225 0 0 0-1.037-3.481.867.867 0 0 0 .387-.703c0-.308-.176-.58-.449-.747v-2.76a.649.649 0 0 0-.65-.651.65.65 0 0 0-.651.651v2.76c-.272.167-.448.439-.448.747 0 .281.149.536.387.703a2.225 2.225 0 0 0-1.038 3.481h-.079v.853h-.219c-2.444-11.691-12.667-21.009-25.809-23.673.141-.342.22-.729.22-1.151 0-.993-.457-1.846-1.108-2.233a2.316 2.316 0 0 0-1.098-1.195v-9.731c0-1.24-.985-2.242-2.216-2.268v-.317c0-.975-.615-1.81-1.485-2.136v-.334a2.04 2.04 0 0 0-.774-1.591c.325-.316.519-.764.519-1.257 0-.58-.281-1.09-.703-1.415.237-.264.386-.607.386-.993a1.45 1.45 0 0 0-.756-1.275v-8.843a.69.69 0 0 0-.694-.694.69.69 0 0 0-.694.694v8.843a1.46 1.46 0 0 0-.37 2.268c-.43.325-.703.835-.703 1.415 0 .493.202.932.519 1.257-.475.369-.774.95-.774 1.591v.334a2.274 2.274 0 0 0-1.485 2.136v.317a2.274 2.274 0 0 0-2.215 2.268v9.722a2.246 2.246 0 0 0-1.099 1.195c-.66.396-1.108 1.249-1.108 2.233 0 .413.079.809.22 1.152-12.544 2.54-22.433 11.155-25.431 22.099 0-.985-.632-1.811-1.511-2.11a.866.866 0 0 0 .386-.703c0-.308-.176-.581-.448-.748v-2.751c0-.36-.29-.65-.651-.65-.36 0-.65.29-.65.65v2.751c-.272.167-.448.44-.448.748 0 .281.149.536.386.703a2.199 2.199 0 0 0-1.037.738v-28.296c.554-.035.994-.422.994-.896 0-.475-.431-.862-.994-.897v-5.977c.554-.036.994-.422.994-.897 0-.501-.484-.906-1.082-.906h-1.679v-10.275c.537-.018.967-.414.967-.897 0-.483-.43-.888-.967-.897v-8.948h.44c.562 0 1.02-.405 1.02-.906s-.458-.905-1.02-.905h-.44v-3.033h.44c.562 0 1.02-.404 1.02-.905s-.458-.905-1.02-.905h-.914a1.453 1.453 0 0 0-1.451-1.425v-4.685c.457-.053.818-.527.818-1.099 0-.615-.405-1.107-.914-1.107h-1.363v-.545h.281a.52.52 0 0 0 0-1.037h-.281v-1.038h.281c.29 0 .519-.228.519-.518a.515.515 0 0 0-.519-.519h-.281v-.721h-.07a1.84 1.84 0 0 0 .404-1.16c0-.826-.536-1.521-1.274-1.776a.754.754 0 0 0 .325-.597c0-.264-.15-.493-.378-.633v-2.321a.548.548 0 0 0-.545-.545.548.548 0 0 0-.545.545v2.321a.745.745 0 0 0-.378.633c0 .237.123.448.325.597a2.182 2.182 0 0 0-.51.264v-9.643h.422c.721 0 1.31-.44 1.31-.976 0-.545-.589-.975-1.31-.975h-1.442v-2.031c.616-.035 1.108-.457 1.108-.976 0-.545-.527-.984-1.187-.984H495.3v-1.934a.977.977 0 0 0 .888-.976.956.956 0 0 0-.888-.967v-6.593a.975.975 0 0 0 0-1.942v-1.284a.98.98 0 0 0 .888-.967.973.973 0 0 0-.976-.975h-1.143v-.624c.264-.378.457-.774.563-1.187a.654.654 0 0 0 .448-.624.658.658 0 0 0-.395-.607c-.299-1.855-2.33-3.463-5.275-4.404v-6.276h-.237v-.009a.6.6 0 0 0-.044-1.195c-.369-2.629-2.531-4.694-5.239-4.967v-.694c1.002-.106 1.741-.457 1.741-.888 0-.422-.739-.782-1.741-.888v-.949c.862-.097 1.486-.396 1.486-.756 0-.361-.624-.66-1.486-.756v-12.333a.598.598 0 0 0-1.195 0v12.333c-.862.096-1.486.395-1.486.756 0 .36.624.659 1.486.756v.949c-1.002.106-1.741.457-1.741.888 0 .422.739.782 1.741.888v.694c-2.708.273-4.87 2.338-5.239 4.967a.6.6 0 0 0-.581.597c0 .308.238.563.537.598v.009h-.238v6.276c-2.944.941-4.975 2.549-5.274 4.404a.658.658 0 0 0-.395.607c0 .29.193.536.448.624.105.413.29.809.562 1.187v.624h-1.133a.978.978 0 0 0-.976.975c0 .51.387.923.888.967v1.284a.976.976 0 0 0-.888.975c0 .51.387.932.888.967v6.593a.974.974 0 0 0 0 1.943v1.934h-2.602c-.651 0-1.187.439-1.187.984 0 .519.492.941 1.108.976v2.031h-1.442c-.721 0-1.31.439-1.31.975 0 .545.589.976 1.31.976h.422v9.643a1.777 1.777 0 0 0-.51-.264.718.718 0 0 0 .325-.597.745.745 0 0 0-.378-.633v-2.321a.548.548 0 0 0-.545-.545.548.548 0 0 0-.545.545v2.321c-.228.14-.378.369-.378.633 0 .237.123.448.326.597a1.882 1.882 0 0 0-1.275 1.776c0 .439.149.835.404 1.16h-.07v.721h-.281a.52.52 0 0 0-.519.519c0 .29.229.518.519.518h.281v1.038h-.281a.514.514 0 0 0-.519.518c0 .29.229.519.519.519h.281v.545h-1.363c-.501 0-.914.492-.914 1.107 0 .572.361 1.046.827 1.099v4.685c-.792 0-1.433.633-1.451 1.425h-.914c-.563 0-1.029.404-1.029.905s.458.905 1.029.905h.44v3.033h-.44c-.563 0-1.029.404-1.029.905s.458.906 1.029.906h.44v8.948c-.537.018-.967.414-.967.897 0 .492.43.879.967.897v10.275h-1.679c-.598 0-1.082.405-1.082.906 0 .475.44.861.994.897v5.977c-.554.035-.994.422-.994.897 0 .474.44.861.994.896v74.762h-3.956v-.756a2.278 2.278 0 0 0-2.277-2.277h-18.969a2.278 2.278 0 0 0-2.277 2.277v.756h-16.974v3.226h-5.309l-5.213 4.835h5.784v24.006h-.009zm99.876-76.107c-.044.194-.088.387-.132.589v-.263h-.079c.079-.106.158-.211.211-.326z" fill="#0F529C"/><path d="M1272.72 294.04l-13.28-13.273-10.47 10.469v-10.9h-3.96s-32.15-14.68-44.08-14.68c-11.94 0-44.09 14.68-44.09 14.68h-3.95v10.9l-10.47-10.469-13.28 13.273h-2.53v72.661h148.63V294.04h-2.52z" fill="#0A7BC0"/><path d="M1680 384.405H-47.547v171.438H1680V384.405z" fill="#0E9ACB"/><path d="M822.258 301.18v-1.917h-4.202v-16.464h2.048v-1.512h-2.048v-1.433h2.048v-1.512h-2.048v-2.021h-4.958v-11.313h-2.637c-.141-3.499-3.112-7.885-7.366-10.092v-12.104h.281a.473.473 0 0 0 .475-.475.473.473 0 0 0-.475-.474h-.352c-.36-1.75-2.136-3.798-4.412-4.308v-.413a2.008 2.008 0 0 0-1.046-3.727 2.018 2.018 0 0 0-2.013 2.013c0 .73.386 1.363.967 1.714v.413c-2.277.501-4.053 2.549-4.413 4.308h-.352a.473.473 0 0 0-.475.474c0 .264.211.475.475.475h.281v12.104c-4.254 2.207-7.216 6.602-7.366 10.092h-2.628v11.313h-4.958v2.021h-2.048v1.512h2.048v1.433h-2.048v1.512h2.048v16.464h-4.202v1.917h-1.397v2.487h1.397v5.169l-49.375-18.266-49.375 18.266v-5.169h1.397v-2.487h-1.397v-1.917h-4.202v-16.464h2.048v-1.512h-2.048v-1.433h2.048v-1.512h-2.048v-2.021h-4.958v-11.313h-2.637c-.149-3.499-3.112-7.885-7.366-10.092v-12.104h.281a.473.473 0 0 0 .475-.475.473.473 0 0 0-.475-.474h-.352c-.36-1.75-2.136-3.798-4.412-4.308v-.413a2.008 2.008 0 0 0-1.046-3.727 2.012 2.012 0 0 0-2.013 2.013c0 .73.386 1.363.967 1.714v.413c-2.277.501-4.053 2.549-4.413 4.308h-.352a.473.473 0 0 0-.475.474c0 .264.211.475.475.475h.281v12.104c-4.245 2.207-7.216 6.602-7.366 10.092h-2.637v11.313h-4.958v2.021h-2.03v1.512h2.048v1.433h-2.048v1.512h2.048v16.464h-4.202v1.917h-1.398v2.487h1.398v63.036h10.953v-13.607h.07c.686-2.057 6.54-4.651 13.678-4.651 7.138 0 12.992 2.594 13.669 4.651h.07v13.607h18.627v-22.002c0-20.578 18.662-37.263 41.684-37.263s41.684 16.685 41.684 37.263v22.002h18.635v-13.607h.07c.677-2.057 6.54-4.651 13.669-4.651 7.129 0 12.993 2.594 13.669 4.651h.071v13.607h10.944v-63.036h1.397v-2.487h-1.397zm-171.289-55.081c.053-.975.431-2.215.888-2.215.466 0 .844 1.24.888 2.215h.009v6.479h-1.785v-6.479zm-2.444 0c.044-.975.431-2.215.888-2.215.466 0 .844 1.24.888 2.215v6.479h-1.784v-6.479h.008zm-2.452 0c.053-.975.431-2.215.888-2.215.466 0 .844 1.24.888 2.215h.008v6.479h-1.784v-6.479zm8.913 53.2h-11.058v-13.608h.026c.273-2.057 2.629-4.65 5.503-4.65 2.875 0 5.23 2.602 5.503 4.65h.026v13.608zm144.1-53.2c.053-.975.431-2.215.888-2.215.466 0 .844 1.24.888 2.215v6.479h-1.784v-6.479h.008zm-2.443 0c.044-.975.43-2.215.887-2.215.466 0 .844 1.24.888 2.215v6.479h-1.784v-6.479h.009zm-2.453 0c.044-.975.431-2.215.897-2.215s.844 1.24.888 2.215h.008v6.479h-1.784v-6.479h-.009zm8.914 53.2h-11.059v-13.608h.027c.272-2.057 2.628-4.65 5.502-4.65 2.866 0 5.231 2.602 5.503 4.65h.027v13.608zM159.668 366.703h235.15v-56.768l-60.407 10.293.062-51.511h-2.242s-.22.369-.545.606c-1.108.853-3.789.537-5.344.334-1.53-.202-11.024-7.252-12.571-10.205-1.547-2.954-2.408-4.975-5.309-4.975-2.91 0-4.237 3.524-5.011 4.228-.773.703-1.977 1.151-3.076 1.151-2.497 0-4.598-1.758-5.986-5.371-1.002-2.593-3.095-10.908-14.109-10.97-11.023.07-13.115 8.386-14.117 10.97-1.389 3.604-3.49 5.371-5.986 5.371-1.099 0-2.303-.448-3.077-1.151-.774-.704-2.11-4.228-5.01-4.228-2.91 0-3.763 2.021-5.31 4.975-1.547 2.953-11.032 10.003-12.57 10.205-1.565.203-4.237.519-5.353-.334-.326-.246-.545-.606-.545-.606h-2.242v3.015c-1.231-.712-2.004-2.242-2.962-5.011-1.292-3.735-1.53-9.361-1.855-15.523h.519v-2.119h-3.103c-1.723-.677-3.411-2.224-4.598-5.072-1.512-3.657-2.382-9.124-2.777-15.128v-2.118h-5.055c-1.151-.493-2.215-1.02-2.839-1.442-1.609-1.09-3.842-3.129-4.14-5.687h-2.084v-6.576h3.745v-1.775h-3.745v-3.745h-1.872v3.745h-3.745v1.775h3.745v6.576h-2.083c-.299 2.549-2.532 4.588-4.141 5.687-.633.431-1.687.949-2.839 1.442h-5.054v2.118c-.396 6.004-1.266 11.471-2.778 15.128-1.178 2.857-2.875 4.395-4.597 5.072H170.7v2.119h.518c-.325 6.162-.553 11.779-1.854 15.523-.967 2.787-1.741 4.317-2.989 5.029h-1.398v2.118h.721v17.765h-.721v2.119h.721v7.612l-6.048 5.547v2.189h-.975v2.118h.975v55.485h.018zM101.846 326.725l-22.592-23.251h-.395v-5.186h.879v-1.486h-6.532v1.486h.88v5.186H59.362v-9.546c2.066-.536 3.296-1.196 3.296-1.908a.72.72 0 0 0-.096-.342c2.039-.545 3.226-1.187 3.226-1.882 0-.149-.062-.298-.167-.448v-7.841a.743.743 0 0 0 .167-.439c0-1.055-2.725-1.996-7.024-2.629v-13.774h-.017c-.07-.422-.431-.818-1.02-1.196-.554-.712-1.582-1.353-2.962-1.872.008-.079.008-.158.008-.237 0-2.435-2.997-4.466-7.014-4.976v-2.707c.272-.387.43-.862.43-1.371a2.418 2.418 0 0 0-1.758-2.321v-10.417h-1.318v10.417a2.418 2.418 0 0 0-1.758 2.321c0 .509.158.984.43 1.371v2.707c-4.017.51-7.014 2.549-7.014 4.976 0 .079.009.158.009.237-1.38.519-2.409 1.16-2.963 1.872-.66.413-1.028.871-1.028 1.354v13.616c-4.299.633-7.024 1.574-7.024 2.629 0 .149.062.298.167.439v7.841c-.105.15-.167.299-.167.448 0 .695 1.187 1.337 3.226 1.882a.722.722 0 0 0-.096.342c0 .712 1.221 1.372 3.296 1.908v9.537h-14.31v-5.924h.878v-1.486H12.228v1.486h.88v5.924h-.81l-22.59 23.251h1.942v39.978H99.912v-39.978h1.934v.009zm-38.854-45.93c.677.193 1.24.404 1.68.624v7.243c-.44-.219-1.003-.43-1.68-.624v-7.243zm-2.786-.633c.668.123 1.283.246 1.846.387v7.243a38.88 38.88 0 0 0-1.846-.387v-7.243zm-31.645 7.876c-.677.194-1.24.405-1.68.624v-7.243c.44-.22 1.003-.431 1.68-.624v7.243zm2.795-.633c-.668.123-1.284.247-1.846.387v-7.243a38.906 38.906 0 0 1 1.846-.387v7.243zm3.736-.527v-7.243a93.244 93.244 0 0 1 1.846-.176v7.243c-.642.053-1.257.114-1.846.176zm19.532-.176v-7.243c.633.053 1.248.114 1.846.176v7.243a93.172 93.172 0 0 0-1.846-.176zm4.633-6.698v7.243a42.144 42.144 0 0 0-1.846-.255v-7.243c.65.079 1.265.158 1.846.255zm-3.376-13.282c.826-.352 1.486-.668 1.934-.879v5.432c-.484-.316-1.134-.615-1.934-.879v-3.674zm0 5.16c.8.263 1.45.553 1.934.87v5.555a52.996 52.996 0 0 0-1.934-.219v-6.206zm-2.883-4.07a31.64 31.64 0 0 0 1.934-.704v3.007a23.01 23.01 0 0 0-1.934-.422v-1.881zm0 3.366a23.01 23.01 0 0 1 1.934.422v6.4a107.22 107.22 0 0 0-1.934-.15v-6.672zm-3.27-2.487c.8-.158 1.582-.361 2.32-.58v1.432a41.607 41.607 0 0 0-2.32-.263v-.589zm0 2.066c.808.07 1.59.158 2.32.263v6.769a96.77 96.77 0 0 0-2.32-.106v-6.926zm-10.223-2.646c.738.219 1.52.413 2.32.58v.589c-.809.07-1.59.158-2.32.263v-1.432zm0 2.918c.73-.105 1.511-.193 2.32-.264v6.927c-.79.026-1.565.062-2.32.106v-6.769zm-2.884-3.912c.59.238 1.24.475 1.934.704v1.881c-.694.123-1.345.263-1.934.422v-3.007zm0 4.483c.59-.158 1.24-.299 1.934-.422v6.672c-.66.044-1.31.097-1.934.15v-6.4zm-2.874-5.757c.448.211 1.108.527 1.934.879v3.674c-.8.264-1.45.563-1.934.879v-5.432zm0 6.918c.483-.317 1.143-.616 1.934-.871v6.206c-.668.071-1.319.141-1.934.22v-5.555zm-1.45 7.243a71.692 71.692 0 0 1 1.846-.255v7.243c-.642.079-1.258.167-1.846.255v-7.243zM967.843 279.951v5.441h-26.362v-14.873h-23.145l-17.95-13.168-17.941 13.168h-8.395v8.228h-12.676v3.217h-7.252v84.739h166.458v-86.752h-52.737zM1660.45 334.688c-.18-.588-.46-1.081-.78-1.415h-2.01c-.33.334-.6.827-.79 1.415h-15.79c-.19-.588-.46-1.081-.78-1.415h-2.01c-.32.334-.6.827-.78 1.415h-15.8c-.18-.588-.45-1.081-.78-1.415h-2.01c-.33.334-.6.827-.78 1.415h-15.8c-.19-.588-.46-1.081-.78-1.415h-2.01c-.32.334-.6.827-.78 1.415h-15.8c-.18-.588-.45-1.081-.78-1.415h-2.01c-.33.334-.59.827-.78 1.415h-11.35c-6.96-6.276-30.05-12.06-57.47-12.06-12.42 0-29.05.8-44.93 2.198l-1.97-5.398h-3.06v5.864c-6.54.632-12.85 1.371-18.59 2.197l-2.94-8.061h-3.06v8.571c-6.72-4.422-12.41-9.784-14.99-12.35v-3.121c0-.659-.66-1.195-1.48-1.195s-1.48.536-1.48 1.195v3.208c-1.81 1.934-5.07 5.38-8.63 8.879-4.58-3.508-8.29-7.024-10.24-8.958v-3.12c0-.659-.66-1.196-1.48-1.196s-1.48.537-1.48 1.196v3.208c-1.81 1.934-5.07 5.38-8.63 8.879-4.58-3.508-8.29-7.024-10.24-8.958v-3.12c0-.66-.66-1.196-1.49-1.196-.82 0-1.48.536-1.48 1.196v3.208c-1.81 1.934-5.08 5.38-8.63 8.878-4.58-3.507-8.29-7.023-10.24-8.957v-3.121c0-.659-.66-1.195-1.48-1.195-.81 0-1.48.536-1.48 1.195v3.209c-1.81 1.934-5.07 5.38-8.63 8.878-4.58-3.507-8.3-7.023-10.24-8.957v-3.121c0-.659-.66-1.195-1.48-1.195s-1.48.536-1.48 1.195v3.209c-3.52 3.771-12.57 13.247-18.54 17.739l-5.24-14.364h-3.05v15.577h-5.72v-6.031h-2.85v6.031h-7.28l-5.69-15.577h-3.06v15.577h-4.18v-6.031h-2.86v6.031h-8.81l-5.69-15.577h-3.06v15.577h-2.65v-6.031h-2.86v6.031h-10.33l-5.69-15.577h-3.06v15.577H1229v-6.031h-2.85v6.031h-11.87l-5.69-15.577h-3.06v9.555h-2.44v6.03h-20.21v-6.03h-2.86v6.03h-20.2v-6.03h-2.86v6.03h-20.21v-6.03h-2.86v6.03h-2.14v4.694h-31.54v2.242h1.94v2.567h-3.57v2.558h-2.59v19.954h565.99v-32.015h-1.53v-.044z" fill="#0F529C"/><path d="M1555.5 366.702h107.03c2.29-3.735 1.82-8.421-1.35-12.253-1.44-1.732-3.01-2.673-5.13-3.437a8.574 8.574 0 0 0-3.64-.712c-.22-.027-.41-.044-.57-.062a8.953 8.953 0 0 0-.88-.351c-1.85-2.154-4.57-3.543-7.58-3.543h-.37c-3.66 0-6.92 2.057-8.66 5.063-.36.211-.72.44-1.04.695-.16-.009-.32-.027-.48-.027h-1.11c-1.4 0-2.75.308-3.97.853-.19-.237-.39-.475-.61-.703a10.11 10.11 0 0 0-5.52-2.796c-1.76-2.936-4.97-4.949-8.58-4.949h-.19c-3.81 0-7.18 2.233-8.86 5.433-.43.264-.82.554-1.19.879-.11 0-.21-.018-.31-.018-3.03 0-5.35 1.108-6.95 2.796a9.975 9.975 0 0 0-4.01-1.855c-1.33-3.244-4.28-5.758-8.85-5.758-4.38 0-7.27 2.312-8.67 5.371-.13.079-.26.132-.38.211-.43.15-.85.334-1.28.554-1.54-1.266-3.58-2.066-6.15-2.066-5.85 0-9.04 4.123-9.58 8.632-1.55 2.339-2.2 5.222-1.17 7.912.01.052.03.087.05.131zM145.498 366.703c.475-.738.738-1.547.721-2.4-.079-2.944-1.609-5.836-4.633-7.867-1.74-7.322-14.838-12.623-25.36-10.979-1.951-1.257-4.175-2.242-6.795-2.69-3.375-.598-6.487-.149-9.581.826-2.453.783-4.105 2.347-5.266 3.982-6.821-4.975-17.088-8.35-26.177-5.889-5.195-1.538-10.812-2.725-16.36-1.653-6.135 1.178-8.983 4.782-10.046 8.668-6.03-.044-11.885 1.028-15.726 3.982-1.776-.748-3.692-1.363-5.653-1.908-1.037-3.507-3.067-6.672-7.78-8.861-4.728-2.215-10.67-1.406-15.663.159-.405-.229-.827-.44-1.266-.633-4.554-2.057-11.331-2.154-15.761.14-5.556 2.875-7.112 7.068-5.82 11.604-1.476.509-2.75 1.274-3.524 2.32-2.602 3.516-3.464 7.92-.229 11.199h174.919zM951.625 366.703c-.413-.642-.642-1.336-.624-2.075.07-2.549 1.397-5.054 4.008-6.812 1.503-6.347 12.852-10.935 21.967-9.511 1.688-1.09 3.622-1.943 5.881-2.33 2.927-.518 5.626-.132 8.298.721 2.127.677 3.56 2.031 4.562 3.446 5.903-4.307 14.803-7.235 22.673-5.107 4.5-1.336 9.36-2.356 14.17-1.433 5.32 1.02 7.78 4.14 8.7 7.516 5.22-.044 10.29.887 13.62 3.445 1.54-.65 3.2-1.177 4.9-1.652.9-3.042 2.66-5.775 6.74-7.674 4.1-1.916 9.25-1.213 13.58.141.35-.194.71-.378 1.09-.545 3.95-1.776 9.81-1.864 13.66.123 4.8 2.496 6.16 6.118 5.04 10.047 1.28.439 2.38 1.099 3.05 2.013 2.26 3.05 3.01 6.856.2 9.696H951.625v-.009zM447.104 366.703c1.635-3.165 1.547-6.989-.158-10.61a8.117 8.117 0 0 0-1.02-1.829c-2.488-3.894-6.197-5.318-9.793-5.072-.43-.316-.887-.606-1.38-.861a9.548 9.548 0 0 0-4.034-2.866c-1.767-2.004-4.387-3.34-7.868-3.34-5.256 0-8.553 3.024-9.906 6.83a9.855 9.855 0 0 0-2.945 3.121 11.715 11.715 0 0 0-1.275-.159c-1.626-3.067-4.703-5.326-9.238-5.326-2.831 0-5.09.887-6.787 2.294h-.008c-2.638-.888-5.055-.466-7.701-.079-.87.369-1.749.738-2.619 1.107-.396.238-.783.493-1.134.774-1.864-.273-3.789-.264-5.723-.238a10.78 10.78 0 0 0-1.424.124c-1.758-1.794-4.254-2.963-7.516-2.963-.632 0-1.221.062-1.802.141-1.749-1.688-4.193-2.787-7.339-2.787-6.62 0-10.136 4.8-10.566 9.916-.185.264-.37.527-.528.8-2.18 3.718-1.837 7.753.15 11.023h100.614zM803.578 366.703c-1.635-3.165-1.547-6.989.158-10.61a8.117 8.117 0 0 1 1.02-1.829c2.487-3.894 6.197-5.318 9.792-5.072.431-.316.888-.606 1.38-.861a9.558 9.558 0 0 1 4.035-2.866c1.767-2.004 4.386-3.34 7.867-3.34 5.257 0 8.553 3.024 9.907 6.83a9.866 9.866 0 0 1 2.945 3.121c.413-.071.835-.132 1.274-.159 1.627-3.067 4.703-5.326 9.239-5.326 2.831 0 5.09.887 6.786 2.294h.009c2.637-.888 5.054-.466 7.7-.079.871.369 1.75.738 2.62 1.107.395.238.782.493 1.134.774 1.863-.273 3.788-.264 5.722-.238.484.009.959.053 1.424.124 1.758-1.794 4.255-2.963 7.516-2.963.633 0 1.222.062 1.802.141 1.749-1.688 4.193-2.787 7.34-2.787 6.619 0 10.135 4.8 10.566 9.916.185.264.369.527.527.8 2.18 3.718 1.838 7.753-.149 11.023H803.578zM587.678 366.703h117.466c2.523-4.097 2.013-9.239-1.477-13.441-1.582-1.898-3.314-2.936-5.635-3.779a9.532 9.532 0 0 0-3.999-.783c-.246-.026-.449-.053-.624-.07a16.937 16.937 0 0 0-.967-.387c-2.022-2.365-5.02-3.894-8.316-3.894h-.404c-4.018 0-7.586 2.259-9.503 5.564-.395.238-.791.484-1.151.765-.176-.009-.343-.026-.519-.026h-1.222a10.7 10.7 0 0 0-4.36.931 7.869 7.869 0 0 0-.677-.764 10.997 10.997 0 0 0-6.056-3.068c-1.925-3.226-5.45-5.433-9.415-5.433h-.202c-4.184 0-7.876 2.453-9.722 5.969-.475.29-.914.607-1.31.958-.114 0-.219-.017-.342-.017-3.323 0-5.864 1.221-7.622 3.076a10.986 10.986 0 0 0-4.412-2.039c-1.46-3.56-4.686-6.32-9.705-6.32-4.817 0-7.99 2.54-9.529 5.898-.132.079-.281.149-.413.237-.475.167-.94.369-1.397.607-1.697-1.389-3.939-2.268-6.751-2.268-6.426 0-9.925 4.527-10.514 9.467-1.696 2.567-2.417 5.74-1.283 8.685a.864.864 0 0 1 .061.132z" fill="#0F529C"/><path d="M1680 366.237H-47.547v34.546H1680v-34.546zM1606.49 335.61l.16 8.597-15.38-.325.18-8.641 15.04.369zM1590.27 355.01l.84-8.562 15.68.36-.26 8.544-16.26-.342zM1593.92 287.896l.47-7.911 10.71.264.14 7.92-11.32-.273zM1605.93 324.349l.18 8.615-14.51-.317.51-8.597 13.82.299zM1605.39 313.106l.17 8.615-13.63-.299.5-8.597 12.96.281z" fill="#0F529C"/><path d="M1606.58 357.938l-1.4 14.688-16.89-1.96 1.82-13.08 16.47.352zM1604.97 290.709l.16 8.614-11.87-.246.51-8.597 11.2.229zM1605.18 301.899l.16 8.623-12.76-.263.52-8.606 12.08.246z" fill="#0F529C"/><path d="M1563.4 276.372s7.69-18.214 18.47-19.348l-20.25-12.491s28.39-10.461 34.74 2.576c2.12-20.526 40.37-8.606 40.37-8.606l-15.72 10.935c15.94-4.237 22.39 25.43 23.33 30.248-1.22-5.363-8.34-9.564-15.89-12.579 9.11 6.944 11.58 26.731 11.98 30.616-1.05-7.647-13.76-14.486-23.36-18.6 2.57 11.77.62 26.292.1 29.799 1.05-8.799-9.76-20.763-18.81-29.061-1.43.739-2.25 1.029-1.46.159l-27.02 19.145s3.5-20.613 11.91-27.734c-2.09.528-4.36 1.064-5.8 1.31l-12.59 3.631zM134.044 351.556l.167 8.597-15.383-.325.175-8.641 15.041.369zM117.834 370.956l.835-8.553 15.682.352-.264 8.544-16.253-.343zM121.473 303.841l.475-7.902 10.706.264.15 7.911-11.331-.273zM133.49 340.295l.176 8.624-14.513-.317.518-8.605 13.819.298zM132.945 329.061l.167 8.615-13.616-.308.492-8.597 12.957.29zM134.14 373.892l-1.407 14.68-16.886-1.952 1.82-13.08 16.473.352zM132.523 306.664l.167 8.605-11.876-.237.51-8.606 11.199.238zM132.743 317.854l.149 8.615-12.754-.264.518-8.606 12.087.255z" fill="#0F529C"/><path d="M90.953 292.327s7.692-18.214 18.478-19.348l-20.253-12.491s28.393-10.46 34.739 2.576c2.119-20.526 40.365-8.606 40.365-8.606l-15.717 10.935c15.937-4.237 22.389 25.43 23.33 30.248-1.222-5.363-8.333-9.564-15.884-12.579 9.107 6.944 11.577 26.731 11.972 30.616-1.046-7.647-13.757-14.486-23.356-18.6 2.567 11.77.624 26.292.097 29.799 1.055-8.799-9.757-20.763-18.811-29.061-1.424.739-2.242 1.029-1.46.159L97.432 315.12s3.507-20.613 11.92-27.734c-2.093.528-4.369 1.064-5.802 1.31l-12.597 3.631zM171.904 295.641c.044.184.079.386.105.562-.017-.105-.052-.281-.105-.562zM172.009 296.203c0 .043.008.086.008.086 0-.043 0-.06-.008-.086zM167.992 313.678c.026.185.044.387.061.58-.009-.096-.026-.307-.061-.58zM168.053 314.259c.009.052.009.077.009.077.008-.025-.009-.043-.009-.077zM144.732 324.877c-.035.229-.07.458-.114.686.018-.114.062-.352.114-.686zM144.618 325.562l-.017.095c.008-.034.017-.06.017-.095z" fill="#0F529C"/><defs><linearGradient id="paint0_linear" x1="491.003" y1="366.702" x2="491.003" y2="216.171" gradientUnits="userSpaceOnUse"><stop offset=".261" stop-color="#71CAF3"/><stop offset="1" stop-color="#A0D9F7"/></linearGradient></defs></svg>