<svg width="72" height="72" fill="none" xmlns="http://www.w3.org/2000/svg" viewBox="0 0 72 72"><g clip-path="url(#clip0)"><path d="M56.644 35.636v-2.544h5.898v-2.92h-1.966v-.975c0-.258.103-.505.288-.688a.988.988 0 0 1 .695-.285h.983V25.79c0-.517-.207-1.012-.576-1.377a1.976 1.976 0 0 0-1.39-.57H50.254l-2.95-2.922h-3.809l-2.516-2.494A1.476 1.476 0 0 0 39.932 18H36.49c-.391 0-.766.154-1.043.428a1.454 1.454 0 0 0 0 2.065c.277.274.652.428 1.043.428h2.826l2.025 2.007-1.62 1.604a.97.97 0 0 0-.288.684l.006 2.4 5.988 5.93-2.089 2.07-7.462-7.392h-8.32a.988.988 0 0 1-.693-.283l-2.606-2.556a1.976 1.976 0 0 0-1.385-.57H11.46c-.531 0-1.04.21-1.416.582a1.974 1.974 0 0 0-.587 1.403v1.424h.983c.26 0 .51.102.695.285.185.183.288.43.288.688v.974H9.457v2.921h5.898v2.544a9.863 9.863 0 0 0-5.578 2.843 9.7 9.7 0 0 0-2.707 5.607 9.66 9.66 0 0 0 1.27 6.086 9.803 9.803 0 0 0 4.726 4.086 9.919 9.919 0 0 0 6.26.422 9.838 9.838 0 0 0 5.242-3.413 9.678 9.678 0 0 0 2.09-5.86 9.674 9.674 0 0 0-1.913-5.918l1.754-1.738a12.05 12.05 0 0 1 2.619 7.494h13.763c0-2.718.922-5.357 2.618-7.494l1.755 1.738a9.674 9.674 0 0 0-1.913 5.918 9.678 9.678 0 0 0 2.09 5.86 9.838 9.838 0 0 0 5.242 3.413 9.919 9.919 0 0 0 6.26-.422 9.802 9.802 0 0 0 4.727-4.086 9.66 9.66 0 0 0 1.268-6.086 9.7 9.7 0 0 0-2.706-5.607 9.863 9.863 0 0 0-5.578-2.843zm-32.23.05l-1.755 1.738a9.83 9.83 0 0 0-4.354-1.788V33.18a12.299 12.299 0 0 1 6.11 2.506zM16.83 49.158a3.959 3.959 0 0 1-2.185-.657 3.903 3.903 0 0 1-1.448-1.747 3.86 3.86 0 0 1-.224-2.25 3.883 3.883 0 0 1 1.076-1.995 3.967 3.967 0 0 1 4.285-.844 3.925 3.925 0 0 1 1.765 1.434 3.868 3.868 0 0 1-.489 4.918 3.951 3.951 0 0 1-2.78 1.14zm17.695-7.303h-2.458v-3.894h2.458v3.894zm5.407 0h-2.458v-3.894h2.458v3.894zm7.653-6.17a12.298 12.298 0 0 1 6.11-2.505v2.456a9.83 9.83 0 0 0-4.356 1.788l-1.754-1.738zm7.584 13.473a3.959 3.959 0 0 1-2.185-.657 3.902 3.902 0 0 1-1.448-1.747 3.86 3.86 0 0 1 .852-4.245 3.967 3.967 0 0 1 4.285-.844 3.925 3.925 0 0 1 1.765 1.434 3.868 3.868 0 0 1-.489 4.918 3.952 3.952 0 0 1-2.78 1.14z" fill="#004EBB"/></g><defs><clipPath id="clip0"><path fill="#fff" transform="translate(7 18)" d="M0 0h58v37H0z"/></clipPath></defs></svg>