<svg width="72" height="72" fill="none" xmlns="http://www.w3.org/2000/svg" viewBox="0 0 72 72"><g clip-path="url(#clip0)"><path d="M61.068 48.886v-.954c0-.253.103-.496.288-.675a.998.998 0 0 1 .695-.28h.983v-6.204a3.763 3.763 0 0 0-1.152-2.7 3.993 3.993 0 0 0-2.78-1.118h-9.83l-6.865-8.961a3.905 3.905 0 0 0-1.39-1.133 4.029 4.029 0 0 0-1.764-.407h-7.185v-1.909h6.39v-1.909h-1.966v-3.818a.94.94 0 0 0-.288-.675.998.998 0 0 0-.696-.28h-6.88v-1.909a.94.94 0 0 0-.289-.674.998.998 0 0 0-.695-.28h-8.847c-.261 0-.511.1-.695.28a.94.94 0 0 0-.288.675v1.909h-5.899c-.26 0-.51.1-.695.28a.94.94 0 0 0-.288.674v3.818H8.966v1.91h4.424v1.909H8.966c-.521 0-1.021.2-1.39.559A1.881 1.881 0 0 0 7 28.364v12.409h21.627v2.863H7v3.341h.983c.26 0 .51.1.695.28a.94.94 0 0 1 .288.675v.954H7v2.387c0 .506.207.992.576 1.35.369.358.869.559 1.39.559h4.67a7.47 7.47 0 0 1-.246-1.91h1.966c0 1.352.491 2.66 1.388 3.693a5.94 5.94 0 0 0 3.513 1.954 6.048 6.048 0 0 0 3.982-.705 5.768 5.768 0 0 0 2.577-3.032h15.82a7.417 7.417 0 0 1-.246-1.91h1.966c0 1.352.491 2.66 1.388 3.693a5.94 5.94 0 0 0 3.513 1.954 6.048 6.048 0 0 0 3.983-.705 5.768 5.768 0 0 0 2.576-3.032h7.218c.521 0 1.021-.201 1.39-.56.369-.357.576-.843.576-1.35v-2.386h-3.932zM21.254 53.66a2.51 2.51 0 0 1-1.365-.402 2.402 2.402 0 0 1-.905-1.071 2.322 2.322 0 0 1-.14-1.379c.095-.463.329-.888.672-1.222a2.482 2.482 0 0 1 1.259-.653c.477-.092.97-.045 1.42.136.449.18.833.486 1.103.879.27.392.414.854.414 1.326 0 .633-.26 1.24-.72 1.687a2.495 2.495 0 0 1-1.738.7zM28.627 36a.94.94 0 0 1-.288.675.998.998 0 0 1-.695.28H11.915c-.26 0-.51-.101-.695-.28a.94.94 0 0 1-.288-.675v-4.773a.94.94 0 0 1 .288-.675.998.998 0 0 1 .695-.28h15.73c.26 0 .51.101.694.28a.94.94 0 0 1 .288.675V36zm.492-9.546h-12.78v-1.909h12.78v1.91zm5.898 16.228h-2.458v-1.91h2.458v1.91zm7.39-5.727h-8.865c-.26 0-.51-.101-.695-.28A.94.94 0 0 1 32.56 36v-4.773a.94.94 0 0 1 .288-.675.999.999 0 0 1 .695-.28h5.233c.153 0 .305.036.442.103a.976.976 0 0 1 .348.285l3.632 4.773a.939.939 0 0 1 .087.997.965.965 0 0 1-.362.383 1.004 1.004 0 0 1-.515.142zm7.847 16.704a2.51 2.51 0 0 1-1.365-.402 2.402 2.402 0 0 1-.905-1.071 2.322 2.322 0 0 1-.14-1.379c.095-.463.329-.888.672-1.222a2.482 2.482 0 0 1 1.259-.653c.477-.092.97-.045 1.42.136.449.18.833.486 1.103.879.27.392.414.854.414 1.326 0 .633-.26 1.24-.72 1.687a2.495 2.495 0 0 1-1.738.7z" fill="#004EBB"/></g><defs><clipPath id="clip0"><path fill="#fff" transform="translate(7 15)" d="M0 0h58v42H0z"/></clipPath></defs></svg>