<svg width="72" height="72" fill="none" xmlns="http://www.w3.org/2000/svg" viewBox="0 0 72 72"><path d="M59.03 24.369H45.505l-4.426 7.373H58.04V36.5H38.216L23.493 61h5.958l4.573-7.612H59.03c.788 0 1.544-.3 2.101-.836.557-.535.87-1.261.87-2.018V27.223c0-.757-.313-1.483-.87-2.018a3.033 3.033 0 0 0-2.1-.836zm-.991 25.213h-7.922v-4.757h7.922v4.757zM37.644 31.743H14.96v-4.758h25.541L49.507 12h-5.951l-4.58 7.612H13.97c-.788 0-1.544.3-2.1.836A2.799 2.799 0 0 0 11 22.466v23.31c0 .758.313 1.484.87 2.019a3.034 3.034 0 0 0 2.1.836h13.524l10.15-16.888zm-14.76 13.082H14.96v-2.854h7.923v2.854z" fill="#004EBB"/></svg>