<svg width="72" height="72" fill="none" xmlns="http://www.w3.org/2000/svg" viewBox="0 0 72 72"><g clip-path="url(#clip0)" fill="#004EBB"><path d="M40.854 17.947c.938 0 1.699-.746 1.699-1.665 0-.92-.76-1.665-1.7-1.665-.938 0-1.698.745-1.698 1.665s.76 1.665 1.699 1.665zM43.281 38.165c.938 0 1.7-.745 1.7-1.665s-.762-1.665-1.7-1.665-1.699.745-1.699 1.665.76 1.665 1.7 1.665zM41.097 24.37c0 .757.231 1.498.664 2.126a3.869 3.869 0 0 0 1.763 1.4 3.549 3.549 0 0 0-.847 1.504 3.499 3.499 0 0 0-.032 1.718c.132.566.404 1.093.791 1.533.388.44.879.781 1.431.993a3.71 3.71 0 0 0 3.382-.377c.49-.328.89-.769 1.166-1.283a3.511 3.511 0 0 0 .383-2.172 3.69 3.69 0 0 0 2.208.74 3.69 3.69 0 0 0 2.213-.727 3.567 3.567 0 0 0 1.308-1.893 3.502 3.502 0 0 0-.133-2.283 3.761 3.761 0 0 0 1.695-1.028c.46-.487.777-1.086.917-1.735a3.684 3.684 0 0 0 1.384-.55 3.604 3.604 0 0 0 1.042-1.048 3.497 3.497 0 0 0 .444-2.832 3.54 3.54 0 0 0-.672-1.307 3.626 3.626 0 0 0-1.152-.932 3.699 3.699 0 0 0-2.916-.203 4.249 4.249 0 0 0-1.425-2.887 4.421 4.421 0 0 0-3.071-1.107 4.41 4.41 0 0 0-2.995 1.293 4.238 4.238 0 0 0-1.238 2.969v.008c-.08 0-.16-.008-.242-.008a3.68 3.68 0 0 0-2.575 1.045 3.532 3.532 0 0 0-.937 3.465 3.875 3.875 0 0 0-1.854 1.394 3.754 3.754 0 0 0-.702 2.183z"/><path d="M59.544 58.146h-.94l-1.224-1.854a5.606 5.606 0 0 0 .478-3.926 5.704 5.704 0 0 0-2.239-3.29 5.912 5.912 0 0 0-3.883-1.074 5.877 5.877 0 0 0-3.663 1.656L46.7 48.31a7.729 7.729 0 0 1 1.546-1.175l-8.412-8.243-6.522 6.392-2.063-2.022 6.522-6.392-3.665-3.592a5.604 5.604 0 0 0 .38-3.899 5.71 5.71 0 0 0-2.273-3.221 5.914 5.914 0 0 0-3.857-1.027 5.877 5.877 0 0 0-3.625 1.65l-1.374-1.343c.463-.454.983-.849 1.547-1.175l-.86-.846a3.924 3.924 0 0 0-2.746-1.115c-1.03 0-2.017.401-2.746 1.115l-2.403 2.355 1.373 1.345-.687.673a.981.981 0 0 1-1.373 0l-.686-.673-3.777 3.702c6.865 6.727 3.454 14.106 11.006 21.508l2.063 2.021c1.656 1.623 4.205 2.849 6.837 3.759v.038H28.96c-.386 0-.756.15-1.03.418-.273.267-.426.63-.426 1.009 0 .379.153.742.427 1.01.273.267.643.417 1.03.417h30.583c.386 0 .756-.15 1.03-.418.273-.267.426-.63.426-1.009 0-.379-.153-.742-.427-1.01a1.472 1.472 0 0 0-1.03-.417zM27.14 29.137a2.473 2.473 0 0 1 2.645-.515c.444.18.823.485 1.09.876a2.345 2.345 0 0 1 0 2.643 2.418 2.418 0 0 1-1.09.876c-.443.18-.931.227-1.402.135a2.443 2.443 0 0 1-1.243-.65 2.38 2.38 0 0 1-.527-.772 2.338 2.338 0 0 1 .527-2.593zm-3.068 21.17c-3.304-3.237-4.12-6.351-5.067-9.957a84.128 84.128 0 0 0-.552-2.03l1.135-1.111a.981.981 0 0 1 1.363.005l1.98 1.94-1.067 2.767 1.33 1.552-.502 2.876 2.35-2.898-1.422-1.674.784-1.19 4.792 4.696-5.128 5.025.004-.001zm15.076 6.079l-.729.713a53.456 53.456 0 0 1-3.326-.729 34.54 34.54 0 0 1-5.205-1.726l.713-.914 1.927.415 1.662-2.54-2.027.869-1.838-.403-2.48 1.546c-.622-.36-1.2-.79-1.72-1.281l5.128-5.025 7.895 7.737a.941.941 0 0 1 0 1.338zm14.76-1.01c-.34.333-.772.56-1.243.651-.471.092-.96.045-1.403-.135a2.417 2.417 0 0 1-1.09-.876 2.344 2.344 0 0 1 0-2.643 2.417 2.417 0 0 1 1.09-.877c.444-.18.932-.227 1.403-.135.47.092.903.319 1.243.652.455.446.71 1.05.71 1.681 0 .63-.255 1.236-.71 1.682z"/></g><defs><clipPath id="clip0"><path fill="#fff" transform="translate(11 12)" d="M0 0h50v49H0z"/></clipPath></defs></svg>