<svg width="72" height="72" fill="none" xmlns="http://www.w3.org/2000/svg" viewBox="0 0 72 72"><path d="M60.842 15.658l-3.434-4.294A.97.97 0 0 0 56.65 11H38.894a.972.972 0 0 0-.757.364l-3.434 4.294a.717.717 0 0 0 .56 1.167h2.194v41.262h-2.912v-28.64H15.35a.972.972 0 0 0-.758.364l-3.434 4.293a.717.717 0 0 0 .56 1.168h2.195v23.786A1.942 1.942 0 0 0 15.854 61h40.292a1.942 1.942 0 0 0 1.941-1.942V16.825h2.195a.719.719 0 0 0 .56-1.167zM22.286 50.806h-4.49v-5.34h4.49v5.34zm0-9.223h-4.49v-5.34h4.49v5.34zm8.374 9.223h-4.49v-5.34h4.49v5.34zm0-9.223h-4.49v-5.34h4.49v5.34zm10.68-23.787h4.49v5.34h-4.49v-5.34zm0 9.223h4.49v5.34h-4.49v-5.34zm0 9.224h4.49v5.34h-4.49v-5.34zm12.864 21.844H41.34v-1.941h1.942v-10.68h8.98v4.369H50.32v1.942h1.942v4.369h1.942v1.941zm0-16.505h-4.49v-5.34h4.49v5.34zm0-9.223h-4.49v-5.34h4.49v5.34zm0-9.223h-4.49v-5.34h4.49v5.34z" fill="#004EBB"/></svg>