<svg width="72" height="72" fill="none" xmlns="http://www.w3.org/2000/svg" viewBox="0 0 72 72"><g clip-path="url(#clip0)"><path d="M62.486 34.748h-5.35v-1.969a.985.985 0 0 1 .983-.984h1.843c-3.776-3.936-9.888-8.452-19.047-10.381a1.478 1.478 0 0 0-1.006-1.354l-2.95-.984a1.472 1.472 0 0 0-1.906.92 1.478 1.478 0 0 0 .975 1.88l2.95.984c.31.105.649.102.958-.01a7.382 7.382 0 0 1 1.97 8.136 7.38 7.38 0 0 1-6.89 4.746h-4.474l-1.996-2.706a3.924 3.924 0 0 0-2.394-1.526L15.25 29.314a1.963 1.963 0 0 0-2.163 1.088 1.97 1.97 0 0 0-.189.842v4.488h-1.966v-1.968H8.966A1.965 1.965 0 0 0 7 35.732v3.937h54.068v2.952H7v1.968c0 2.089.829 4.091 2.303 5.568a7.86 7.86 0 0 0 5.561 2.306h28.509C62.05 52.463 65 42.62 65 42.62v-3.937s-.766-1.64-2.514-3.936zM16.83 48.526h-3.933v-1.968h3.933v1.968zm6.88 0H19.78v-1.968h3.932v1.968zm6.882 0h-3.932v-1.968h3.932v1.968z" fill="#004EBB"/></g><defs><clipPath id="clip0"><path fill="#fff" transform="translate(7 19)" d="M0 0h58v33.462H0z"/></clipPath></defs></svg>