<svg width="72" height="72" fill="none" xmlns="http://www.w3.org/2000/svg" viewBox="0 0 72 72"><g clip-path="url(#clip0)" fill-rule="evenodd" clip-rule="evenodd"><path d="M66.929 58.566c-1.376 4.57-16.04 10.04-26.623 6.055L2.068 45.5c-1.474-.737-1.474-2.84 0-3.578l11.262-5.631L66.93 58.566z" fill="#DFE7FB"/><path d="M55.848 30.177c0-.346.224-.738.5-.876l2.16-1.081c.275-.14.5.03.5.376v1.25c0 .346-.225.736-.5.875l-2.16 1.081c-.276.14-.5-.03-.5-.376v-1.25z" fill="#545960"/><path d="M58.81 28.197l-.617-.307c-.086-.043-.195-.041-.312.019l-2.16 1.08c-.276.14-.5.53-.5.877v1.25c0 .175.057.305.15.372.023.017.048.03.076.038l.573.288c-.107-.062-.173-.196-.173-.386v-1.25c0-.346.224-.737.5-.876l2.16-1.081c.115-.056.22-.062.303-.024z" fill="#747A83"/><path d="M38.136 57.253l11.013-7.505-13.391-2.02 2.378 9.525zM5.323 40.27l11.014-7.506-13.394-2.019 2.38 9.525z" fill="#1E1915"/><path d="M42.426 54.22c-1.297-.667-2.348.322-2.348 2.207 0 1.884 1.053 3.956 2.348 4.623 1.297.667 2.348-.322 2.348-2.207 0-1.884-1.051-3.957-2.348-4.623z" fill="#D1D6DD"/><path d="M42.426 55.683c-.742-.38-1.344.184-1.344 1.263 0 1.077.602 2.262 1.344 2.643.741.38 1.344-.184 1.344-1.263-.002-1.077-.603-2.263-1.344-2.643z" fill="#EBEEF4"/><path d="M42.148 56.317c-.553-.284-1.002.137-1.002.94 0 .804.45 1.686 1.002 1.97.554.284 1.002-.136 1.002-.94 0-.801-.448-1.686-1.002-1.97z" fill="#545960"/><path d="M42.425 52.512c1.945 1 3.524 4.109 3.524 6.935 0 2.83-1.58 4.312-3.523 3.312-1.945-1-3.524-4.109-3.524-6.937-.002-2.827 1.577-4.31 3.523-3.31zm0 1.707c1.297.667 2.349 2.74 2.349 4.624 0 1.884-1.054 2.873-2.349 2.207-1.296-.667-2.348-2.74-2.348-4.624 0-1.884 1.052-2.873 2.349-2.207z" fill="#43474C"/><path d="M44.44 62.876l2.544-1.271c.912-.457 1.51-1.688 1.51-3.427 0-2.829-1.578-5.935-3.523-6.937-.747-.385-1.442-.402-2.012-.118l-2.545 1.274c.57-.287 1.265-.267 2.013.117 1.944 1 3.523 4.109 3.523 6.935 0 1.74-.599 2.97-1.51 3.427z" fill="#2C2D30"/><path d="M9.662 37.839c-1.296-.667-2.348.322-2.348 2.207 0 1.884 1.054 3.957 2.348 4.623 1.297.667 2.348-.322 2.348-2.207.003-1.884-1.05-3.957-2.348-4.623z" fill="#D1D6DD"/><path d="M9.664 39.302c-.741-.38-1.344.184-1.344 1.263 0 1.077.603 2.263 1.344 2.643.742.38 1.344-.184 1.344-1.263 0-1.077-.602-2.263-1.344-2.643z" fill="#EBEEF4"/><path d="M9.387 39.936c-.554-.284-1.002.137-1.002.94 0 .804.448 1.686 1.002 1.97.553.285 1.002-.136 1.002-.94-.002-.803-.451-1.685-1.002-1.97z" fill="#545960"/><path d="M9.664 36.13c1.944 1 3.523 4.108 3.523 6.934 0 2.829-1.58 4.312-3.523 3.312-1.944-1-3.523-4.109-3.523-6.935 0-2.827 1.579-4.312 3.523-3.312zm0 1.708c1.297.667 2.348 2.74 2.348 4.624 0 1.884-1.053 2.873-2.348 2.207-1.297-.667-2.348-2.74-2.348-4.624 0-1.884 1.05-2.873 2.348-2.207z" fill="#43474C"/><path d="M11.676 46.493l2.544-1.271c.912-.457 1.51-1.688 1.51-3.427 0-2.829-1.578-5.935-3.522-6.935-.748-.385-1.443-.402-2.013-.118L7.65 36.014c.57-.287 1.265-.267 2.013.117 1.944 1 3.523 4.109 3.523 6.935 0 1.741-.596 2.972-1.51 3.427z" fill="#2C2D30"/><path d="M24.817 22.013c5.442 3.307 12.065 11.838 16.06 20.85 3.957 2.895 5.33 4.136 8.78 7.933 1.45 1.598 1.907 3.816 1.982 5.384l.378.557c.31.458.521 1.073.496 1.6-.08 1.627.002 4.184.002 4.184l-5.709-1.423v-2.05c0-3.475-1.942-7.267-4.335-8.464-2.393-1.196-4.335.654-4.335 4.128v2.538L13.991 45.18v-2.538c0-3.474-1.942-7.266-4.335-8.463-2.392-1.196-4.334.654-4.334 4.128v1.961l-.024-.013-3.427-2.403c-.487-.404-.98-4.386-.372-4.314-.35-7.418.735-14.573 2.786-19.235.212-.48.507-.92.981-1.15a1.864 1.864 0 0 1 1.508-.048c5.87 2.425 12.875 5.766 18.043 8.909z" fill="#C9D0D8"/><path d="M37.037 52.61c0-.653-.425-1.394-.947-1.655l-20.198-10.1c-.524-.26-.947.058-.947.71 0 .654.425 1.395.947 1.656l20.198 10.1c.524.262.947-.056.947-.71z" fill="#545960"/><path d="M24.072 24.748c6.67 2.624 9.821 8.935 14.819 17.863l-15.518-7.667c.096-4.212.306-7.408.699-10.196z" fill="#242D3E"/><path d="M34.67 35.188v5.339l4.22 2.085c-1.528-2.729-2.883-5.213-4.22-7.425z" fill="#1E1915"/><path d="M5.795 35.688c-.301.707-.472 1.591-.472 2.621v1.961l-.024-.013-3.427-2.403c-.487-.404-1.023-.835-1.26-1.28-.458-.86-.376-2.241-.34-2.91a.354.354 0 0 1 .177-.288c.308-.175.62-.346 1.021-.521.018.232.005.382.028.687l4.297 2.145z" fill="#545960"/><path d="M2.593 25.22c.382.192.694.799.694 1.357l-.207 3.179c0 .557-.312.852-.694.662l-.945-.472c.032-1.902.146-3.6.304-5.15l.848.424z" fill="#A93C40"/><path d="M19.668 35.082c.402.201.726.838.726 1.42s-.324.892-.726.691c-.402-.2-.727-.837-.727-1.418s.327-.893.727-.693zM24.799 37.649c.401.2.726.837.726 1.419 0 .583-.325.893-.726.692-.402-.201-.727-.838-.727-1.419 0-.581.325-.893.727-.692z" fill="#1E1915"/><path d="M52.514 62.522c6.313.882 18.239-5.207 18.47-9.234.109-1.93.301-2.389.344-3.831.034-1.137.301-1.241-.009-1.7l-.378-.558c-.075-1.569-1.203-4.122-2.654-5.718-3.446-3.796-4.82-5.038-8.779-7.933-5.881-8.464-12.893-16.406-18.335-19.713-5.168-3.143-12.159-6.525-18.04-8.905-2.802-1.132-14.407 5.418-18.2 8.392l.028.026a1.53 1.53 0 0 1 .304-.193 1.865 1.865 0 0 1 1.508-.049c5.867 2.421 12.873 5.763 18.04 8.905 5.443 3.308 12.066 11.839 16.06 20.85 3.958 2.895 5.332 4.137 8.78 7.933 1.45 1.598 1.908 3.816 1.983 5.384 0 0 .179.267.378.558.31.457.521 1.073.495 1.6-.077 1.628.005 4.186.005 4.186z" fill="#EBEEF4"/><path d="M40.878 42.864c11.275-.229 18.744-4.224 18.635-9.318-3.591-5.623-8.23-10.42-13.513-15.99-2.045 3.654-7.634 6.384-16.516 8.258 4.692 5.438 8.572 11.1 11.394 17.05z" fill="#3D4A62"/><path d="M51.588 56.165a9.449 9.449 0 0 1-3-1.41l-.83-1.716c-.806.507-1.795.317-2.864-.166 1.154 1.709 1.913 4.004 1.913 6.177v2.089l5.709 1.301c6.313.883 18.91-4.873 19.138-8.9.11-1.93.302-2.306.344-3.75.034-1.137-.367-1.577-.677-2.034l-.378-.558-.009.022c-.305 4.174-11.836 10.02-19.294 8.96l-.052-.015z" fill="#545960"/><path d="M51.659 56.208c1.985.154 4.634.402 8.1-.91-.189-.703-1.01-1.611-1.945-1.72-2.613.139-4.899-.342-6.298-.878-1.107-.425-3.124-1.378-4.055-1.919a.389.389 0 0 0-.462.064.394.394 0 0 0-.081.46c.654 1.346 1.673 3.452 1.673 3.452 1.08 1.04 3.068 1.451 3.068 1.451zM69.412 49.976c-.124-.564-.43-1.752-.058-2.446.887-1.656.35-2.848-.105-4.66.646 1.08 1.652 2.763 1.682 4.35.013.498-.25 1.692-1.52 2.756z" fill="#fff"/><path d="M51.342 58.898l.85 2.079c.188.457.637.754 1.133.743 5.945-.164 16.859-3.995 18.354-8.603l.28-2.61c-1.946 5.32-15.385 10.055-20.617 8.39z" fill="#1E1915"/><path d="M69.412 49.977c-1.726 2.004-5.984 4.243-9.701 5.333-.156-.522-.539-1.041-1.043-1.44 4.128-.996 7.93-3.03 10.507-5.466a7.81 7.81 0 0 0 .237 1.573zM59.473 33.593c-3.098 3.978-9.52 6.984-18.491 9.243l-.107.025c11.274-.228 18.744-4.224 18.635-9.317l-.037.05zM35.486 36.563c.197 1.522.349 3.053.449 4.59l.265.13a69.369 69.369 0 0 0-.385-4.151l-.329-.569z" fill="#1E1915"/><path d="M4.936 13.372c.803-.614 1.619-.68 2.454-.423 5.754 2.14 17.17 6.907 22.837 12.705 5.45 6.626 7.982 11.74 10.756 17.182-3.218-6.018-7.997-13.002-11.584-17.105-3.37-3.854-12.373-8.02-18.58-10.887-3.003-1.385-4.584-2.393-5.883-1.472z" fill="#F9FAFB"/><path d="M20.882 36.747c0-.218-.14-.468-.316-.555l-2.139-1.069c-.175-.087-.316.02-.316.238s.141.467.316.555l2.14 1.068c.172.088.315-.019.315-.237zM26.013 39.31c0-.217-.14-.467-.316-.555l-2.139-1.068c-.175-.088-.316.02-.316.237 0 .218.141.468.316.556l2.139 1.068c.173.087.316-.017.316-.237zM33.402 41.398c0-.346.225-.737.5-.876l2.16-1.08c.276-.14.5.03.5.375v1.25c0 .346-.224.737-.5.876l-2.16 1.081c-.275.139-.5-.03-.5-.376v-1.25z" fill="#545960"/><path d="M36.367 39.42l-.618-.308c-.085-.043-.194-.04-.312.02l-2.16 1.08c-.275.14-.5.53-.5.877v1.25c0 .175.058.305.15.371a.26.26 0 0 0 .077.039l.572.288c-.106-.062-.173-.197-.173-.387V41.4c0-.346.225-.737.5-.875l2.16-1.082c.116-.057.22-.061.304-.023z" fill="#747A83"/></g><defs><clipPath id="clip0"><path fill="#fff" d="M0 0h72v72H0z"/></clipPath></defs></svg>