<svg width="72" height="72" fill="none" xmlns="http://www.w3.org/2000/svg" viewBox="0 0 72 72"><g clip-path="url(#clip0)"><path d="M1.204 37.613c-.598.346-.598.91 0 1.255l48.818 28.215c1.459.774 4.65.416 7.428-.737 1.795-.745 5.259-2.59 6.916-3.549 1.642-.95 4.878-2.851 6.3-4.073 1.404-1.202 2.299-3.3-.476-4.567L22.468 26.571c-.598-.343-1.575-.343-2.173 0L1.204 37.613z" fill="#DFE7FB"/><path d="M1.928 33.767c-.41.234-1.074.234-1.483 0l-.14-.08c-.41-.235-.41-.622 0-.856l15.219-8.788c.406-.235 1.074-.235 1.482 0l.14.08c.41.235.41.622 0 .856L1.929 33.767z" fill="#62747F"/><path d="M1.928 33.532c-.41.235-1.074.235-1.483 0l-.14-.08c-.41-.234-.41-.621 0-.856l15.219-8.787c.406-.235 1.074-.235 1.482 0l.14.08c.41.234.41.621 0 .856L1.929 33.532z" fill="#889AA5"/><path d="M46.702 54.668l-2.658 3.212-2.528.827-.44-.996-.424-2.731 6.05-.312z" fill="#222B2E"/><path d="M43.44 55.971l1.954-.897c.578-.196 1.31-.09 2.107.37 1.877 1.084 3.398 3.718 3.398 5.885 0 1.137-.418 1.918-1.088 2.247l-1.836.851c-.595.254-1.374.167-2.226-.326-1.877-1.084-3.396-3.718-3.396-5.883-.002-1.136.417-1.918 1.087-2.247z" fill="#3B4447"/><path d="M42.65 58.453c0 1.973 1.386 4.375 3.096 5.362 1.71.987 3.096.186 3.096-1.787 0-1.974-1.386-4.376-3.096-5.363-1.71-.989-3.096-.188-3.096 1.788z" fill="#3B4447"/><path d="M43.606 59.15c.026 1.36.875 2.847 2.044 3.55 1.037.627 2.065.013 2.041-1.19-.024-1.361-.876-2.846-2.041-3.55-1.038-.627-2.066-.012-2.044 1.19z" fill="url(#paint0_linear)"/><path d="M43.69 59.249c.024 1.294.834 2.711 1.945 3.379.989.597 1.966.012 1.944-1.135-.024-1.296-.834-2.709-1.944-3.379-.99-.595-1.967-.012-1.945 1.135z" fill="#CCCBCA"/><path opacity=".5" d="M44.805 57.88c-.535.114-.92.61-.905 1.328.025 1.28.825 2.677 1.92 3.338.422.254.843.29 1.181.16-.367.224-.866.224-1.366-.078-1.11-.67-1.92-2.085-1.945-3.38-.017-.814.474-1.344 1.115-1.368z" fill="#fff"/><path d="M44.492 59.825c.013.69.446 1.444 1.036 1.8.525.316 1.047.007 1.035-.605-.012-.69-.443-1.442-1.035-1.8-.528-.316-1.048-.005-1.036.605z" fill="#3B4447"/><path d="M7.101 37.707l.496 1.125 2.523-.52 2.557-2.557H6.3l.8 1.952z" fill="#222B2E"/><path d="M9.512 36.57l1.955-.897c.578-.196 1.31-.09 2.106.37 1.877 1.083 3.399 3.717 3.399 5.885 0 1.137-.419 1.918-1.089 2.247l-1.835.851c-.595.254-1.374.167-2.226-.324-1.877-1.084-3.398-3.718-3.398-5.883 0-1.136.42-1.918 1.088-2.249z" fill="#3B4447"/><path d="M8.727 39.052c0 1.974 1.386 4.375 3.096 5.362 1.71.987 3.096.187 3.096-1.787s-1.386-4.376-3.096-5.363c-1.71-.986-3.096-.186-3.096 1.788z" fill="#3B4447"/><path d="M9.682 39.75c.027 1.36.876 2.847 2.044 3.551 1.037.627 2.065.012 2.044-1.19-.027-1.361-.876-2.847-2.044-3.55-1.038-.627-2.066-.013-2.044 1.19z" fill="url(#paint1_linear)"/><path d="M9.766 39.85c.024 1.294.835 2.71 1.945 3.378.989.598 1.966.013 1.944-1.134-.024-1.296-.834-2.709-1.944-3.379-.99-.597-1.967-.012-1.945 1.134z" fill="#CCCBCA"/><path opacity=".5" d="M10.881 38.48c-.534.114-.919.61-.905 1.328.025 1.278.825 2.678 1.921 3.338.42.254.842.29 1.18.16-.367.225-.866.225-1.366-.078-1.11-.67-1.92-2.084-1.945-3.379-.017-.815.474-1.344 1.115-1.368z" fill="#fff"/><path d="M10.565 40.425c.012.69.445 1.444 1.035 1.8.525.316 1.047.007 1.035-.605-.012-.69-.445-1.444-1.035-1.8-.525-.316-1.045-.007-1.035.605z" fill="#3B4447"/><path d="M1.475 28.199s.227-5.554.87-8.749c.644-3.195 1.7-6.407 2.325-7.353.624-.946 3.95-3.517 5.444-4.346 1.493-.833 6.824-3.423 7.373-3.479.549-.055 1.72.53 1.72.53l23.767 13.35s5.217 3.042 7.314 4.82c2.1 1.778 5.559 6.54 5.559 6.54l6.332 9.963s2.532 2.704 3.309 3.611c.776.908 2.61 3.27 2.968 4.158.358.888.462 3.45.462 3.45s.5.5.5.841c0 .341.378 2.383-1.21 4.555-1.586 2.174-4.996 3.974-7.502 5.452-2.504 1.478-6.26 2.53-7.436 2.404-.97-.104-2.53-.75-3.052-.975-.223-.674-.803-2.176-2.102-4.167-1.79-2.745-3.935-3.636-5.486-3.106-1.221.416-1.183 2.25-1.112 3.01L16.17 43.734h-.234c-.204-.8-.576-1.96-1.249-3.338-1.303-2.67-3.79-4.393-5.618-4.114-1.398.212-1.5 1.809-1.469 2.549-.568-.39-1.688-1.427-2.551-1.99-.927-.605-3.251-2.175-3.42-2.874-.17-.7-.056-3.31-.056-3.31l-.1-2.46z" fill="#EEF5F9"/><path d="M3.203 15.953c.191-.663.39-1.28.58-1.824l1.466.822s19.38 10.96 28.44 16.378c1.186.709 3.401 2.092 4.081 3.72.17.353.76 1.766.76 1.766l-3.803-2.32-30.295-17.79-1.229-.752z" fill="#D00001"/><path d="M1.569 30.661L1.475 28.2s.026-.663.09-1.662l1.158.76L27.53 42.513l13.073 8.88s9.613 5.882 11.158 6.358c1.546.477 4.475-.665 4.475-.665l.537-.05c.363.474.646.914.822 1.194.26.41.632.687.81.803.07-.024.134-.046.194-.065l.138.155s-.714 1.59-.714 1.606c0 .017-5.984.931-5.984.931L49.383 61a22.398 22.398 0 0 0-1.267-2.194c-1.79-2.745-3.935-3.635-5.486-3.106a1.36 1.36 0 0 0-.684.523l-14.237-8.684-13.54-8.059c-1.375-2.133-3.493-3.437-5.1-3.193-.067.01-.13.027-.19.044l-7.344-4.373c.007-.7.034-1.297.034-1.297z" fill="#E30001"/><path d="M55.383 56.984c.184.037.326.066.406.08.356.068 1.047-.02 1.609-.135.005.005.007.012.01.017.26.452 1.061 1.768 2.031 1.623.97-.143 3.304-1.338 4.443-2.102 1.14-.765 3.128-1.979 3.314-3.471.186-1.493.136-2.192.136-2.192v-.02c.546-.722 1.062-1.53 1.405-2.215.133 1.014.179 2.124.179 2.124s.5.5.5.842c0 .34.378 2.382-1.209 4.554-1.586 2.175-4.997 3.974-7.503 5.452-1.328.784-3.011 1.45-4.472 1.88l-.85-6.437z" fill="#E30001"/><path opacity=".2" d="M50.824 63.223c.003 0 .003.002.003.002l-.003-.002zM50.828 63.226c.048.02.097.039.148.058l-.148-.058z" fill="#000"/><path opacity=".2" d="M1.569 30.661s-.114 2.608.056 3.309c.169.7 2.493 2.269 3.42 2.873.863.564 1.983 1.602 2.552 1.991-.03-.74.07-2.336 1.468-2.55 1.828-.277 4.317 1.447 5.619 4.115a17.451 17.451 0 0 1 1.248 3.338h.234L41.513 58.71c-.073-.76-.111-2.59 1.112-3.009 1.553-.53 3.696.363 5.486 3.106 1.3 1.99 1.882 3.493 2.102 4.168.14.06.353.15.607.251.01-.048.024-.07.044-.063l-1.222-4.356c-.007-.017-.94-2.373-3.616-4.02-.866-.535-1.703-.803-2.486-.803-1.106 0-1.722.55-1.727.556l-.041.037-26.953-15.563-.01-.024c-.01-.024-.936-2.33-3.243-3.59-.888-.483-1.713-.73-2.453-.73-.69 0-1.05.223-1.054.225l-.04.024-6.46-4c0-.03.003-.058.003-.083l6.458 3.996s1.224-.786 3.582.503c2.36 1.29 3.277 3.626 3.277 3.626l26.888 15.517s1.572-1.442 4.303.239c2.73 1.683 3.647 4.063 3.647 4.063l1.26 4.502c.695.268 1.63.593 2.291.663 1.176.125 4.932-.927 7.435-2.405 2.504-1.477 5.914-3.277 7.504-5.452 1.586-2.174 1.209-4.216 1.209-4.554 0-.341-.5-.842-.5-.842s-.044-1.11-.18-2.124c-.346.685-.859 1.49-1.405 2.216v.02s.05.698-.136 2.19c-.186 1.493-2.174 2.707-3.313 3.472-1.14.764-3.474 1.959-4.444 2.102-.97.142-1.77-1.173-2.031-1.623-.003-.005-.005-.012-.01-.017-.561.118-1.253.205-1.609.135-.524-.101-3.596-.701-3.773-1.037-.176-.334-5.476-5.525-5.836-5.917-.36-.392-.583-.946-.583-.946s-6.884-13.52-7.873-15.794c-.953-2.184-2.378-3.737-3.672-4.475-9.267-5.295-27.826-16.194-28.46-16.588-.36-.223-.61-.322-.907-.23l-.017.024c-.624.946-1.683 4.158-2.324 7.354-.643 3.192-.868 8.746-.868 8.746l.094 2.462zm1.804-5.568s.924-4.262 1.2-5.822c.08-.45.298-.66.552-.742-.148.12-.264.314-.317.616-.276 1.56-1.2 5.822-1.2 5.822s-.259.857.46 1.258c.72.402 25.885 15.335 25.885 15.335s.378.121.758-.02c-.443.322-.992.146-.992.146S4.554 26.752 3.833 26.351c-.72-.402-.46-1.258-.46-1.258zm31.353 9.404l-.044.075-30.3-17.79.044-.075 30.3 17.79zm2.668 11.356c-.994-.786-2.678-1.615-2.973-3.698-.295-2.085-.048-5.66-.048-5.66l11.104 14.556 5.334 4.794-4.928-3.727s-7.495-5.478-8.49-6.265zM2.662 27.51l.058-.212v.249l24.652 15.139 13.229 8.707-13.482-8.07L2.72 28.788v-1.243l-.058-.037zM16.23 43.495l.044-.075L41 57.96l-.044.075-24.727-14.54z" fill="#000"/><path d="M42.629 55.698c-.484.164-.77.549-.934 1.001l-.83-.612L15.112 41.33c-.125-.297-.268-.61-.425-.931a9.09 9.09 0 0 0-1.072-1.686l1.265.251 26.887 15.517 1.113 1.146c-.085.02-.17.042-.251.07zM9.065 36.283a1.496 1.496 0 0 0-1.15.815l-4.368-2.83.085 1.608c-.934-.675-1.901-1.463-2.008-1.906-.142-.59-.084-2.535-.063-3.132l6.459 3.996 1.192 1.432c-.05.005-.1.01-.147.017z" fill="#404B4D"/><path opacity=".2" d="M2.72 27.296l24.807 15.217 13.074 8.879-13.226-8.708L2.662 27.51l.058-.213zM5.248 14.948s1.272.96 3.357 2.165c7.605 4.39 17.972 10.19 25.083 14.443 1.185.708 3.437 2.104 4.08 3.49-.681-1.628-2.897-3.011-4.08-3.72-9.06-5.418-28.44-16.378-28.44-16.378zM4.46 16.655l-.044.075 30.329 17.74.044-.075L4.46 16.655zM59.04 58.801c-.101.041-.314.121-.633.23a2.834 2.834 0 0 1-.81-.803c-.349-.554-1.116-1.73-2.078-2.564-.61-.527-5.251-3.972-5.251-3.972s4.201 2.917 5.159 3.633c1.016.76 1.647 1.577 1.891 1.945l.003.002c.556.905 1.134 1.416 1.72 1.53 0 0 0 .002 0 0zM67.58 50.8a.473.473 0 0 0-.07-.255c-.038-.84-.062-1.698-.45-2.612-.389-.914-2.597-4.922-2.597-4.922s2.554 4.431 2.83 5.086c.276.656.527 2.922.527 2.922l-.232.182a5.776 5.776 0 0 0-.007-.402z" fill="#000"/><path d="M49.63 34.466c2.82-1.591 5.005-3.43 6.205-4.968l.01.015 6.332 9.962.09.097s1.037 1.998-5.603 6.103c-6.642 4.107-10.173 3.558-10.173 3.558L41.13 38.5c.002.002 4.864-1.981 8.5-4.035z" fill="#141C1E"/><path d="M49.754 34.683c2.533-1.43 4.717-3.15 6.06-4.76l5.98 9.411-.093.3c-.163.317-.34 1.381-6.214 5.014-5.177 3.2-6.645 3.435-7.958 3.687l-.656.033c-.133 0-.522-.075-.592-.08l-4.806-9.657c1.037-.436 5.135-2.175 8.28-3.948z" fill="#303E42"/><path d="M44.908 44.42c.218 0 .484-.059.781-.18 1.067-.43 2.175-1.509 2.474-2.409.216-.648-.045-1.025-.607-1.025-.217 0-.48.058-.78.179-1.068.43-2.175 1.509-2.475 2.409-.218.646.046 1.025.607 1.025zm-.18-.884c.26-.776 1.273-1.753 2.216-2.133.295-.118.496-.145.612-.145.119 0 .19.027.208.053.022.032.046.15-.031.377-.259.777-1.272 1.752-2.216 2.134-.297.12-.495.145-.612.145-.118 0-.188-.027-.208-.053-.021-.032-.043-.15.032-.378z" fill="#3D4B4F"/><path d="M35.452 35.801s-1.118-.851-1.084.455c.034 1.308.145 3.758.276 4.68.128.922.42 1.884 1.625 2.847 1.205.963 9.24 7.329 9.24 7.329l-2.857-6.255s-2.271-4.688-2.907-5.72c-.639-1.03-4.293-3.336-4.293-3.336z" fill="#141C1E"/><path d="M42.441 48.368l-2.506-1.985v-6.39c.876 1.644 2.473 4.936 2.49 4.97l.016.036v3.37zM34.701 35.805c.01-.01.03-.029.087-.029.16 0 .4.136.513.223l.01.007.01.005c1.003.634 3.717 2.45 4.213 3.258.031.05.068.111.106.18v6.697a2092.227 2092.227 0 0 1-3.217-2.554c-1.146-.917-1.415-1.834-1.535-2.688-.126-.902-.238-3.309-.274-4.651-.01-.324.063-.426.087-.448z" fill="#303E42"/><g opacity=".7" fill="#C5D0D3"><path opacity=".7" d="M56.404 35.94l-3.883-3.034c1.256-.914 2.332-1.875 3.138-2.803l.745 5.836zM55.982 30.19l2.134 3.354c.288 1.706.735 4.308.735 4.308l-2.133-1.666-.736-5.997z"/></g><path d="M55.487 44.646c-5.177 3.2-6.645 3.435-7.958 3.686l-.656.034c-.133 0-.522-.075-.592-.08l-1.195-2.426c1.335-1.088 3.901-3.033 6.644-4.51 3.285-1.771 7.472-3.697 7.472-3.697 1.127.155 2.59 1.679 2.59 1.679l-.094.3c-.16.317-.336 1.381-6.211 5.014z" fill="#39464A"/><path d="M48.462 41.935s2.136 2.489 2.024 2.997c-.11.508-2.61 1.947-3.451 1.968-.84.022-2.637-2.087-2.646-2.438-.01-.348 1.507-2.585 4.073-2.527z" fill="#3D4B4F"/><path opacity=".2" d="M55.814 29.92l5.981 9.412-.094.3c-.094.184-.193.622-1.415 1.67a26.79 26.79 0 0 0-10.393-6.7c2.474-1.413 4.602-3.1 5.92-4.681z" fill="#fff"/><path opacity=".2" d="M30.997 41.044c.38-1.056 1.26-5.938 1.26-6.397 0-.46-.259-.88-.9-1.241-.64-.36-25.172-14.593-25.172-14.593s-.784-.43-1.306-.15c.513-.44 1.43.066 1.43.066S30.838 32.96 31.48 33.32c.64.36.9.78.9 1.241 0 .46-.88 5.343-1.26 6.398-.12.331-.303.527-.496.638.145-.118.278-.292.372-.553z" fill="#000"/><path d="M49.72 58.782l2.533 1.127s.926.438 3.207-.077c2.117-.477 3.288-.917 3.58-1.033a1.296 1.296 0 0 0 .438.012c1.047-.154 3.43-1.39 4.545-2.14l.261-.175c1.088-.723 2.69-1.787 3.084-3.117.428-.569 1.301-1.797 1.548-2.688 0 0 .5.501.5.842 0 .341.378 2.383-1.209 4.555-1.586 2.174-4.997 3.974-7.503 5.452-2.503 1.477-6.26 2.53-7.435 2.404-.97-.104-2.53-.75-3.053-.975-.222-.675-.803-2.177-2.102-4.167a3.25 3.25 0 0 1-.077-.117l1.684.097z" fill="#404B4D"/><path d="M57.63 56.264a95.345 95.345 0 0 0 4.857-2.636c1.386-.818 4.073-2.663 4.467-2.917a.592.592 0 0 1 .167-.08c.003.017 0 .026 0 .026s.05.7-.135 2.192c-.187 1.492-2.175 2.707-3.314 3.47-1.137.765-3.473 1.96-4.443 2.103-.279.04-.54-.039-.782-.182-.498-.39-.873-1.013-1.037-1.296-.261-.45.058-.6.22-.68z" fill="#1B2628"/><path d="M58.37 58.177c.027.021.05.043.077.065.005.002.008.002.01.005l.032-.138.22.072-.04.17c.032.012.064.024.098.034l.038-.172.22.072-.031.143c.034.003.068.005.102.003l.026-.116.22.072-.002.015c.065-.015.138-.032.213-.051l-.092-.032.056-.244.22.073-.037.16.112-.037.021-.092.126.041.223-.082.043-.198.22.072-.005.024c.059-.024.117-.048.177-.075l-.053-.017.055-.244.22.073-.024.101.117-.05.004-.02.022.007c.046-.019.09-.04.136-.063l-.133-.043.055-.244.22.072-.038.17c.038-.02.077-.037.116-.056l.019-.082.09.029c.043-.022.087-.041.13-.063l-.198-.066.055-.244.22.073-.05.225.116-.058.029-.136.142.046.211-.109.039-.176.181.06c.056-.029.111-.06.165-.09l.045-.21.209.068c.046-.027.089-.05.133-.077l.05-.233.22.073c.042-.024.08-.048.119-.073l.053-.24.215.071c.044-.027.085-.056.126-.082l.051-.23.196.065c.048-.034.1-.065.15-.099l.046-.203.174.058.179-.12.039-.177.147.048.216-.153.029-.135.108.036c.034-.024.066-.048.1-.075l-.184-.06.055-.244.22.072-.043.198c.041-.03.085-.062.126-.096l.017-.073.053.017.094-.075-.126-.041.056-.244.22.072-.024.112c.065-.054.128-.11.191-.165l-.046-.014.053-.245.201.066c.053-.051.106-.104.157-.158l.034-.147.08.026.073-.082-.134-.043.056-.245.22.073-.012.06c.051-.065.102-.133.148-.198l.038-.174.06.02c.02-.03.037-.059.054-.09l-.092-.03.056-.244.152.049c.015-.032.027-.063.041-.095l-.169-.055.056-.244.196.065c.01-.034.017-.066.024-.1l-.196-.065.056-.244.183.06c.005-.033.007-.067.012-.101l-.171-.056.055-.244.148.048c.002-.033.007-.07.01-.101l-.136-.044.056-.244.104.034c.002-.036.007-.07.01-.104l-.093-.03.054-.241.055.02.008-.105-.042-.014.051-.228h.003c.01-.232.012-.406.01-.525l-.015.066-.22-.073.022-.099-.216.143.075.024-.05.227-.22-.072.011-.058c-.053.036-.109.072-.166.113l.036.013-.051.227-.22-.073.002-.012a3.55 3.55 0 0 0-.12.083l-.054.239-.203-.068a4.924 4.924 0 0 0-.143.097l-.046.21-.181-.06c-.056.039-.114.075-.172.114l-.041.183-.16-.05-.198.133-.036.16-.138-.047c-.075.049-.148.1-.223.148l-.031.138-.121-.039a2.77 2.77 0 0 1-.109.07l.206.068-.056.244-.22-.072.05-.23-.12.08-.027.118-.104-.034c-.036.025-.072.049-.109.07l.191.063-.055.245-.22-.073.048-.213-.12.078-.025.104-.092-.03c-.036.025-.075.047-.111.07l.179.059-.056.244-.22-.072.044-.199c-.041.027-.083.051-.121.075l-.02.092-.082-.027c-.039.025-.075.046-.111.07l.172.056-.054.245-.22-.073.044-.194c-.041.025-.08.051-.121.075l-.02.088-.08-.027-.113.068.172.055-.056.245-.22-.073.043-.193-.062.038c-.02.01-.037.022-.056.032l-.022.092-.087-.03c-.039.022-.077.047-.116.068l.181.06-.055.245-.22-.072.046-.206c-.04.022-.078.046-.119.068l-.024.106-.102-.034a6.969 6.969 0 0 0-.118.068l.198.065-.055.245-.22-.073.05-.222-.118.067-.027.124-.12-.042c-.04.022-.08.044-.12.068l.218.073-.055.244-.22-.073.055-.244-.118.066-.032.145-.145-.046-.21.116-.039.172-.17-.056-.178.097-.044.198-.198-.065c-.049.026-.095.05-.143.077l-.05.227-.22-.072.002-.01-.136.073.015.005-.056.244-.22-.073.01-.043-.18.094.051.017-.055.244-.22-.072.017-.08-.225.119.087.029-.056.244-.22-.073.027-.118-.119.06-.005.024-.026-.01a6.32 6.32 0 0 0-.126.066l.13.044-.055.244-.22-.073.036-.16c-.041.02-.08.042-.116.061l-.015.068-.07-.024c-.043.021-.084.043-.126.065l.175.058-.056.244-.22-.072.046-.203-.116.058-.024.113-.121-.04-.025.011c-.029.015-.065.032-.101.053l.225.073-.056.244-.363-.118a.316.316 0 0 0-.022.099l.363.119-.055.244-.233-.078c.008.015.013.027.022.041.017.027.034.059.054.09l.135.044-.03.13.078.119.049-.218.22.073-.056.244-.186-.06c.031.045.063.091.097.137l.07.022-.012.056.08.104.029-.128.22.072-.056.244-.048-.017c.046.054.094.104.142.153l.201.065-.024.119zm-.414-.716l.056-.245.22.073-.056.244-.22-.072zm.034-.622l-.055.244-.22-.072.055-.245.22.073zm.078-.343l-.056.244-.22-.073.055-.244.22.072zm.24.447l-.056.244-.22-.072.055-.245.22.073zm.077-.343l-.056.244-.22-.073.055-.244.22.073zm.019.374l.22.073-.056.244-.22-.072.056-.245zm.055-.72l-.055.244-.22-.073.055-.244.22.073zm.24.45l-.056.244-.22-.073.056-.244.22.073zm7.699-4.12l-.053.245-.22-.073.055-.244.218.072zm-.196-.171l.056-.245.22.073-.056.244-.22-.072zm.12.515l-.055.244-.22-.072.056-.245.22.073zm-.294-.203l-.22-.073.053-.244.22.072-.053.245zm-.022.099l-.056.244-.22-.072.053-.245.223.073zm-.077.346l-.056.244-.22-.073.056-.244.22.073zm-.293-.203l-.22-.073.056-.244.22.072-.056.245zm.218.546l-.056.245-.22-.073.056-.244.22.072zm-.295-.203l-.22-.073.055-.244.22.073-.055.244zm-.022.1l-.056.244-.22-.073.056-.244.22.072zm-.293-.204l-.22-.073.056-.244.22.073-.056.244zm.215.547l-.055.244-.22-.073.053-.244.222.073zm-.292-.203l-.22-.073.055-.244.22.072-.055.245zm-.022.099l-.056.244-.22-.073.056-.244.22.073zm-.295-.203l-.22-.073.055-.244.22.072-.055.245zm.218.546l-.056.244-.22-.072.055-.245.22.073zm-.296-.2l-.22-.073.056-.245.22.073-.056.244zm-.021.099l-.056.244-.22-.073.056-.244.22.073zm-.075.343l-.056.244-.22-.072.056-.245.22.073zm-.295-.203l-.22-.073.055-.244.22.072-.055.245zm.217.546l-.053.245-.22-.073.056-.244.217.072zm-.295-.203l-.22-.072.056-.245.22.073-.056.244zm-.022.1l-.055.244-.22-.073.055-.244.22.072zm-.292-.204l-.22-.072.053-.245.22.073-.053.244zm.218.547l-.056.244-.22-.072.055-.245.22.073zm-.296-.203l-.22-.073.056-.244.22.072-.056.245zm-.021.099l-.056.244-.22-.072.056-.245.22.073zm-.295-.2l-.22-.073.055-.245.22.073-.055.244zm.217.546l-.055.244-.22-.072.055-.245.22.073zm-.292-.203l-.22-.073.055-.244.22.072-.055.245zm-.022.099l-.056.244-.22-.072.056-.245.22.073zm-.295-.203l-.22-.073.055-.244.22.072-.055.245zm.217.546l-.055.244-.22-.072.055-.244.22.072zm-.295-.203l-.22-.072.056-.245.22.073-.056.244zm-.022.1l-.055.243-.22-.072.055-.244.22.072zm-.292-.204l-.22-.072.055-.245.22.073-.055.244zm.218.547l-.056.244-.22-.073.055-.244.22.073zm-.296-.201l-.22-.073.056-.244.22.073-.056.244zm-.021.097l-.056.244-.22-.073.056-.244.22.073zm-.293-.201l-.22-.073.056-.244.22.073-.056.244zm.215.547l-.053.244-.22-.073.056-.244.217.073zm-.292-.204l-.22-.072.055-.244.22.072-.055.244zm-.022.1l-.056.244-.22-.073.056-.244.22.073zm-.295-.204l-.22-.072.055-.244.22.072-.055.244zm.217.547l-.055.244-.22-.072.055-.245.22.073zm-.295-.203l-.22-.073.056-.244.22.073-.056.244zm-.021.099l-.056.244-.22-.072.056-.245.22.073zm-.293-.203l-.22-.073.055-.244.22.073-.055.244zm.218.546l-.056.245-.22-.073.055-.244.22.072zm-.295-.2l-.22-.073.055-.244.22.072-.055.245zm-.24-.448l-.22-.072.056-.245.22.073-.056.244zm.218.547l-.056.244-.22-.072.056-.245.22.073zm-.295-.203l-.22-.073.055-.244.22.072-.055.245zm-.022.099l-.056.244-.22-.072.056-.245.22.073zm-.293-.203l-.22-.073.056-.244.22.072-.056.245zm.215.546l-.053.245-.22-.073.056-.244.218.072zm-.292-.203l-.22-.072.053-.245.22.073-.053.244zm-.022.1l-.056.244-.22-.073.056-.244.22.072zm-.295-.204l-.22-.072.055-.245.22.073-.055.244zm.218.547l-.056.244-.22-.072.056-.245.22.073zm-.293-.203l-.22-.073.056-.244.22.072-.056.245zm-.022.099l-.055.244-.22-.072.055-.245.22.073zm-.295-.203l-.22-.073.053-.244.22.072-.053.245zm.218.549l-.056.244-.22-.073.056-.244.22.073zm-.295-.203l-.22-.073.055-.244.22.072-.055.245zm-.022.099l-.056.244-.22-.073.056-.244.22.073zm-.293-.203l-.22-.073.056-.244.22.072-.056.245zm.218.546l-.056.245-.22-.073.056-.244.22.072zm-.295-.203l-.22-.07.055-.244.22.072-.055.242zm-.022.1l-.055.243-.22-.072.055-.244.22.072zm-.293-.204l-.22-.073.056-.244.22.073-.056.244zm-.024.1l-.055.244-.22-.073.055-.244.22.072zm-.075.345l-.055.244-.22-.072.055-.245.22.073zm-.295-.203l-.22-.073.056-.244.22.073-.056.244zm-.022.099l-.055.244-.22-.072.055-.245.22.073zm-.162-.793l-.055.244-.22-.073.055-.244.22.073zm.078-.344l-.056.244-.22-.072.056-.244.22.072zm.237.448l-.053.244-.22-.073.055-.244.218.073zm-.143-.416l.22.072-.056.244-.22-.072.056-.244zm.298-.271l-.056.244-.22-.072.056-.245.22.073zm.239.447l-.053.245-.22-.073.055-.244.218.072zm-.143-.416l.22.073-.055.244-.22-.072.055-.245zm.295-.27l-.055.244-.22-.073.055-.244.22.072zm.24.447l-.056.244-.22-.072.053-.245.223.073zm-.143-.416l.22.072-.055.245-.22-.073.055-.244zm.295-.274l-.053.245-.22-.073.056-.244.217.072zm.24.448l-.056.244-.22-.072.056-.245.22.073zm-.14-.416l.22.072-.056.245-.22-.073.055-.244zm.294-.271l-.055.244-.22-.072.055-.245.22.073zm.24.447l-.056.245-.22-.073.056-.244.22.072zm-.143-.416l.22.073-.055.244-.22-.072.055-.245zm.295-.273l-.055.244-.22-.072.053-.245.222.073zm.24.448l-.056.244-.22-.073.056-.244.22.073zm-.143-.414l.22.073-.055.244-.22-.073.055-.244zm.298-.273l-.056.244-.22-.073.056-.244.22.073zm.24.447l-.056.244-.22-.072.055-.245.22.073zm.074-.343l-.053.244-.22-.073.055-.244.218.073zm.24.447l-.056.244-.22-.072.053-.245.223.073zm.077-.343l-.056.244-.22-.073.056-.244.22.073zm.077-.344l-.055.245-.22-.073.055-.244.22.072zm.237.448l-.055.244-.22-.073.055-.244.22.073zm.078-.346l-.056.244-.22-.072.056-.245.22.073zm.077-.344l-.056.245-.22-.073.056-.244.22.072zm.24.448l-.056.244-.22-.072.056-.245.22.073zm.075-.344l-.056.245-.22-.073.056-.244.22.072zm.077-.343l-.056.244-.22-.072.056-.245.22.073zm.24.447l-.056.245-.22-.073.055-.244.22.072zm.077-.343l-.056.244-.22-.072.056-.245.22.073zm.075-.344l-.056.245-.22-.073.056-.244.22.072zm.24.445l-.056.245-.22-.073.055-.244.22.072zm.077-.343l-.056.244-.22-.072.053-.245.223.073zm.077-.343l-.056.244-.22-.073.056-.244.22.072zm.24.447l-.056.244-.22-.072.056-.245.22.073zm.075-.343l-.054.244-.22-.073.056-.244.218.072zm.077-.344l-.056.244-.22-.072.056-.244.22.072zm.24.447l-.056.245-.22-.073.055-.244.22.072zm.077-.343l-.056.244-.22-.072.056-.245.22.073zm.075-.346l-.056.244-.22-.072.056-.244.22.072zm.24.448l-.056.244-.22-.073.055-.244.22.073zm.077-.344l-.056.244-.22-.072.056-.244.22.072zm-.143-.416l.22.073-.056.244-.22-.073.056-.244zm.297-.27l-.055.243-.22-.072.055-.244.22.072zm.238.447l-.056.244-.22-.073.055-.244.22.073zm-.143-.416l.22.072-.056.244-.22-.072.056-.244zm.297-.271l-.055.244-.22-.072.055-.245.22.073zm.24.447l-.056.244-.22-.072.056-.244.22.072zm-.143-.418l.22.072-.055.245-.22-.073.055-.244zm.295-.271l-.053.244-.22-.072.055-.245.218.073zm.24.447l-.054.245-.22-.073.056-.244.218.072zm-.143-.416l.22.073-.053.244-.22-.072.053-.245zm.297-.27l-.055.244-.22-.073.055-.244.22.072zm.24.447l-.056.244-.22-.072.056-.245.22.073zm-.143-.416l.22.072-.055.245-.22-.073.055-.244zm.295-.269l-.053.242-.22-.072.053-.242.22.072zm.24.445l-.056.245-.22-.073.056-.244.22.072zm-.145-.413l.22.072-.053.242-.22-.072.053-.242zm.292-.254l-.05.227-.22-.072.05-.228.22.073zm.339.005l-.22-.073.05-.227.22.072-.05.228zm-.293.254l.051-.228.22.073-.05.227-.22-.072zm-.075.34l.053-.241.22.072-.053.242-.22-.072zm-.077.344l.056-.244.22.072-.056.245-.22-.073zm-.078.344l.056-.245.22.073-.055.244-.22-.072zm-.075.343l.056-.244.22.072-.055.245-.22-.073zm-.077.346l.056-.244.22.072-.056.245-.22-.073zm.143.414l-.22-.073.055-.244.22.072-.055.245zm-.295.273l.055-.244.22.072-.055.245-.22-.073zm-.24-.447l.056-.245.22.073-.056.244-.22-.072zm-.077.343l.055-.244.22.072-.055.245-.22-.073zm.142.416l-.22-.073.056-.244.22.073-.056.244zm-.297.27l.056-.243.22.072-.056.244-.22-.072zm-.237-.447l.056-.244.22.073-.056.244-.22-.073zm.143.416l-.22-.072.055-.244.22.072-.055.244zm-.298.274l.056-.245.22.073-.056.244-.22-.072zm-.24-.448l.054-.244.22.072-.056.245-.217-.073zm-.077.344l.056-.245.22.073-.056.244-.22-.072zm-.075.343l.056-.244.22.072-.053.245-.223-.073zm-.24-.447l.056-.245.22.073-.055.244-.22-.072zm-.076.343l.055-.244.22.072-.055.245-.22-.073zm.142.416l-.22-.072.056-.245.22.073-.056.244zm-.295.273l.056-.244.22.073-.056.244-.22-.073zm-.24-.447l.056-.244.22.072-.055.245-.22-.073zm.143.416l-.22-.073.056-.244.22.073-.056.244zm-.297.271l.055-.244.22.072-.055.245-.22-.073zm-.237-.447l.055-.245.22.073-.055.244-.22-.072zm.142.416l-.22-.073.056-.244.22.072-.056.245zm-.297.27l.056-.244.22.073-.056.244-.22-.072zm-.24-.447l.056-.244.22.072-.055.245-.22-.073zm.143.416l-.22-.073.056-.244.22.073-.056.244zm-.295.273l.056-.244.22.073-.056.244-.22-.073zm-.24-.447l.056-.244.22.072-.055.244-.22-.072zm.143.416l-.22-.073.056-.244.22.073-.056.244zm-.297.27l.056-.244.22.073-.056.244-.22-.072zm-.237-.447l.053-.244.22.073-.056.244-.217-.073zm.143.416l-.22-.072.053-.245.22.073-.053.244zm-.298.271l.056-.244.22.073-.056.244-.22-.073zm-.24-.447l.056-.245.22.073-.055.244-.22-.072zm.143.416l-.22-.073.056-.244.22.073-.056.244zm-.295.273l.056-.244.22.072-.056.245-.22-.073zm-.24-.447l.056-.245.22.073-.055.244-.22-.072zm.143.416l-.22-.073.056-.244.22.072-.056.245zm-.297.27l.056-.244.22.073-.056.244-.22-.072zm-.24-.447l.056-.244.22.072-.055.245-.22-.073zm-.075.344l.056-.245.22.073-.055.244-.22-.072zm-.239-.448l.056-.244.22.072-.056.245-.22-.073zm-.077.344l.055-.245.22.073-.055.244-.22-.072zm-.078.343l.056-.244.22.072-.056.245-.22-.073zm-.237-.445l.056-.244.22.072-.056.245-.22-.073zm-.077.343l.055-.244.22.073-.055.244-.22-.072zm-.078.344l.054-.244.22.072-.056.244-.218-.072zm-.24-.447l.056-.245.22.073-.055.244-.22-.072zm.144.415l-.22-.072.055-.244.22.072-.055.244zm-.295.271l.055-.244.22.073-.055.244-.22-.073zm-.24-.447l.056-.244.22.072-.056.245-.22-.073zm.143.416l-.22-.073.055-.244.22.073-.055.244zm-.298.273l.056-.244.22.072-.056.245-.22-.073zm-.237-.447l.056-.244.22.072-.056.244-.22-.072zm-.077.343l.056-.244.22.072-.056.245-.22-.073zm-.24-.447l.056-.245.22.073-.056.244-.22-.072zm.143.416l-.22-.073.056-.244.22.072-.056.245zm-.297.27l.055-.244.22.073-.055.244-.22-.072zm-.24-.447l.056-.244.22.072-.056.245-.22-.073zm-.075.344l.056-.245.22.073-.056.244-.22-.072zm-.24-.448l.056-.244.22.073-.055.244-.22-.073zm-.077.344l.056-.245.22.073-.056.244-.22-.072zm-.24-.445l.056-.245.22.073-.055.244-.22-.072zm.143.413l-.22-.072.056-.245.22.073-.056.244z" fill="#354042"/><path d="M42.67 46.407s.799.32.813.776c.015.458.044 1.727.044 1.727s.014.424-.312.346a4.654 4.654 0 0 1-.675-.23s-.96.53-1.405.617c-.448.087-1.137.145-1.29-.116-.152-.261-.04-1.732.037-2.273.077-.54.145-1.03.682-1.307.537-.275.856-.384.856-.384s.421-.138.747.13c.327.269.269.813.269.813l.235-.1z" fill="#5A6567"/><path opacity=".3" d="M43.472 47.097a.362.362 0 0 1 .012.087c.015.457.044 1.727.044 1.727s.014.423-.312.346a4.653 4.653 0 0 1-.675-.23l-.101-1.403s.614-.315 1.032-.527zM39.791 48.284c.022-.402.06-.798.094-1.028.039-.269.075-.528.167-.75.22.094.588.2.968.22a.742.742 0 0 0-.104.126c-.365.554-.344.919-.375 1.715-.578-.066-.75-.283-.75-.283z" fill="#5A6567"/><path opacity=".3" d="M39.79 48.284c0 .003.121.438.402.484a.807.807 0 0 0 .343-.041c-.012.42.025.752.07.987-.335.019-.657-.015-.756-.184-.09-.153-.09-.702-.058-1.246z" fill="#5A6567"/><path opacity=".5" d="M40.87 48.581c-.123 0-.234-.007-.334-.017.032-.795.01-1.16.375-1.715.276-.418 1.072-.682 1.48-.795.068.23.047.454.047.454v1.115l1.032-.527a.363.363 0 0 1 .013.087c.014.457.043 1.727.043 1.727s.015.424-.312.346a4.653 4.653 0 0 1-.675-.23s-.96.53-1.405.617a3.807 3.807 0 0 1-.532.068 4.517 4.517 0 0 1-.07-.987c.186-.056.338-.143.338-.143z" fill="#5A6567"/><path d="M61.235 37.987l-1.18-1.857c0-.52.026-1.38.188-1.628.24-.366.888-.83.888-.83s.38-.1.564.184c.184.28.324 1.732.353 2.365.02.525-.273 1.241-.813 1.766z" fill="#5A6567"/><path opacity=".5" d="M60.955 35.377c.007-.488.232-.65.232-.65l.627-.498c.12.553.208 1.506.23 1.988.024.53-.269 1.245-.808 1.77l-.283-.445c-.003-.83-.003-1.882.002-2.165z" fill="#5A6567"/><path opacity=".3" d="M60.427 36.717l.525-.223-.755-.14-.142-.225c0-.447.019-1.142.128-1.487.198.16.5.362.813.43a1.318 1.318 0 0 0-.04.305c-.004.285-.004 1.337-.002 2.165l-.527-.825z" fill="#5A6567"/><path d="M57.626 57.296c-.04-.058-.073-.114-.104-.164 1.204-.472 3.821-1.87 5.323-2.724 2.153-1.224 4.376-3.043 4.376-3.043l.02.199s-2.224 1.819-4.376 3.042c-1.469.835-3.999 2.19-5.24 2.69zM58.43 58.228a2.718 2.718 0 0 1-.155-.135c1.336-.627 3.254-1.662 4.458-2.344 2.153-1.224 4.376-3.043 4.376-3.043l.02.198s-2.224 1.82-4.376 3.043c-1.164.663-2.995 1.65-4.323 2.281z" fill="#404B4D"/><path d="M62.698 53.954c2.152-1.224 4.375-3.043 4.375-3.043l.148.452s-2.223 1.82-4.376 3.043c-1.502.854-4.119 2.252-5.323 2.724-.044-.07-.08-.136-.112-.186a.702.702 0 0 1-.092-.245c1.176-.445 3.854-1.877 5.38-2.745zM58.275 58.093a3.68 3.68 0 0 1-.312-.334c1.335-.607 3.435-1.737 4.721-2.467 2.153-1.224 4.376-3.043 4.376-3.043l.048.457c-.005.005-2.225 1.82-4.375 3.043-1.205.684-3.123 1.717-4.458 2.344z" fill="#5A6567"/><mask id="a" maskUnits="userSpaceOnUse" x="48" y="50" width="22" height="11"><path d="M49.72 58.782l2.533 1.127s.926.438 3.208-.077c2.116-.477 3.287-.917 3.58-1.033a1.296 1.296 0 0 0 .437.012c1.047-.154 3.43-1.39 4.545-2.14l.261-.175c1.089-.723 2.69-1.787 3.084-3.117.428-.569 1.302-1.797 1.548-2.688 0 0 .5.501.5.842 0 .102.035.353.04.711-1.227 1.935-3.343 3.76-5.382 5.1-2.47 1.62-6.99 3.228-8.913 3.56-1.923.33-3.471-.332-3.471-.332l-3.643-1.887 1.674.097z" fill="url(#paint2_linear)"/></mask><g mask="url(#a)"><path d="M49.72 58.782l2.533 1.127s.926.438 3.208-.077c2.116-.477 3.287-.917 3.58-1.033a1.296 1.296 0 0 0 .437.012c1.047-.154 3.43-1.39 4.545-2.14l.261-.175c1.089-.723 2.69-1.787 3.084-3.117.428-.569 1.302-1.797 1.548-2.688 0 0 .5.501.5.842 0 .102.035.353.04.711-1.227 1.935-3.343 3.76-5.382 5.1-2.47 1.62-6.99 3.228-8.913 3.56-1.923.33-3.471-.332-3.471-.332l-3.643-1.887 1.674.097z" fill="url(#paint3_linear)"/><path d="M55.826 60.896c-.513.022-1.734.172-1.698.946.04.849 1.485.82 3.417.452 1.933-.367 3.757-1.398 3.757-1.398s-2.728 1.166-4.765 1.043c.002 0 .102-1.074-.711-1.043z" fill="#4D585A"/><path d="M55.579 60.915c.048.196.087.52-.133.677-.27.194-.854.36-1.29.412a.58.58 0 0 1-.028-.163c-.032-.667.873-.87 1.451-.926zM58.92 60.105c.065-.051.123-.075.123-.075.815-.303 3.23-1.37 4.777-2.327a26.479 26.479 0 0 0 2.291-1.606.99.99 0 0 1-.365.631 22.401 22.401 0 0 1-2.903 1.928c-1.337.73-3.091 1.802-3.923 1.449z" fill="#273234"/></g><mask id="b" maskUnits="userSpaceOnUse" x="58" y="54" width="10" height="8"><path d="M58.92 60.104c.831.354 2.585-.718 3.922-1.446a22.845 22.845 0 0 0 2.903-1.928.995.995 0 0 0 .365-.631c.503-.392.898-.726 1.13-.924.522-.45.513-.075.348.464-.164.54-1.03 1.75-3.026 3.075-1.995 1.325-3.495 1.985-4.445 2.29-.953.305-1.29-.162-1.37-.484-.048-.2.07-.338.172-.416z" fill="url(#paint4_linear)"/></mask><g mask="url(#b)"><path opacity=".5" d="M58.92 60.104c.831.354 2.585-.718 3.922-1.446a22.845 22.845 0 0 0 2.903-1.928.995.995 0 0 0 .365-.631c.503-.392.898-.726 1.13-.924.522-.45.513-.075.348.464-.164.54-1.03 1.75-3.026 3.075-1.995 1.325-3.495 1.985-4.445 2.29-.953.305-1.29-.162-1.37-.484-.048-.2.07-.338.172-.416z" fill="url(#paint5_linear)"/><path d="M67.674 56.22s1.408-1.504 1.582-2.716c.174-1.211-.121-.49-.416-.147-.298.343-.46.612-.564 1.01-.106.398.022.843-.602 1.854z" fill="#4D585A"/><path d="M61.102 60.589l4.47-2.692a.2.2 0 0 1 .106-.032c.075 0 .152.053.155.177l.022.87a.413.413 0 0 1-.187.337l-4.446 2.653a.2.2 0 0 1-.106.032c-.09 0-.155-.07-.16-.174l-.036-.828a.414.414 0 0 1 .181-.343z" fill="#404B4D"/><path d="M61.17 60.7l4.47-2.694c.019-.012.03-.015.038-.015.022 0 .024.034.024.049l.022.87a.288.288 0 0 1-.123.223l-4.446 2.65a.1.1 0 0 1-.039.013c-.024 0-.029-.032-.029-.05l-.036-.828a.288.288 0 0 1 .118-.218z" fill="#fff"/></g></g><g clip-path="url(#clip1)"><path d="M18.712 4.958c-.365-.225-.965-.244-1.345-.04-.188.1-.285.239-.29.379l-.005.15c-.004.14.085.283.267.397.365.224.965.244 1.344.04.189-.1.286-.239.29-.38l.006-.149c.004-.143-.085-.285-.267-.397z" fill="#6D807D"/><path d="M18.646 3.948c.002-.085-.051-.172-.16-.24a.895.895 0 0 0-.81-.024c-.114.06-.172.145-.177.23l-.31 1.253c-.004.126.076.251.238.353.324.2.858.218 1.192.036.167-.09.254-.213.259-.336l-.232-1.272z" fill="#0F53B9"/><path d="M8.411 11.277c-.365-.225-.965-.245-1.345-.041-.188.101-.285.239-.29.38l-.002.147c-.005.14.084.283.266.396.365.225.965.245 1.345.042.188-.102.285-.24.29-.38l.005-.15c.002-.138-.085-.283-.269-.394z" fill="#6D807D"/><path d="M8.343 10.268c.002-.085-.05-.172-.16-.24a.894.894 0 0 0-.81-.024c-.114.06-.172.146-.174.23l-.312 1.25c-.005.127.075.252.237.354.324.2.859.218 1.192.036.167-.09.254-.213.26-.336l-.233-1.27z" fill="#0F53B9"/><path opacity=".2" d="M31.965 26.665l12.326-7.118 2.724 1.572-12.329 7.119-2.721-1.573z" fill="#000"/><path d="M32.41 26.013l5.468-3.164c.15-.13.574-.046 1.07.242.621.36 1.127.9 1.127 1.204 0 .07-.027.124-.078.157l-5.488 3.179c-.165.111-.573.02-1.05-.254-.621-.36-1.127-.9-1.127-1.205 0-.072.03-.125.077-.16zM41.657 23.385c0-.307-.506-.846-1.127-1.204-.426-.247-.813-.341-1.007-.279l5.15-2.977c.15-.13.57-.046 1.067.242.624.36 1.127.9 1.127 1.204 0 .07-.027.124-.078.158l-5.202 3.009a.19.19 0 0 0 .07-.153z" fill="#0F53B9"/><path d="M32.332 26.17c0 .304.506.846 1.127 1.204.622.36 1.127.404 1.127.097 0-.305-.505-.847-1.127-1.205-.621-.36-1.127-.404-1.127-.096z" fill="#5099DA"/><path d="M39.996 24.452c.051-.034.078-.084.078-.157 0-.307-.506-.847-1.127-1.205-.428-.246-.8-.343-.992-.28l1.505-.868c.15-.131.57-.046 1.069.241.621.36 1.127.9 1.127 1.205 0 .07-.027.123-.078.157l-1.584.917.002-.01z" fill="url(#paint6_linear)"/><path d="M10.377 24.83l.626-.84 1.053 1.338V23.91l1.211.702v1.417l1.053-.123.624 1.56-1.106.13 1.106 1.406-.624.839-1.053-1.338v1.418l-1.211-.7v-1.417l-1.053.124-.626-1.563 1.108-.128-1.108-1.408z" fill="#004ECD"/><path d="M12.675 30.52c-1.732-.999-3.14-3.44-3.14-5.44 0-1.4.711-2.305 1.81-2.305.447 0 .928.148 1.429.436 1.732.999 3.14 3.44 3.14 5.44 0 1.4-.712 2.305-1.81 2.305-.447 0-.929-.148-1.43-.436zm-2.942-5.44c0 1.938 1.365 4.299 3.04 5.269.47.27.918.408 1.331.408.994 0 1.611-.808 1.611-2.106 0-1.935-1.364-4.299-3.04-5.266-.47-.271-.917-.409-1.33-.409-.995-.002-1.612.806-1.612 2.105z" fill="#004ECD"/><path d="M44.684 28.151l-.573-.863.643-.37.573.864.35-.801.753.464-.35.8.923.064.112.834-.924-.06.57.86-.64.37-.574-.86-.35.8-.755-.466.353-.799-.924-.062-.111-.837.924.063z" fill="#0080FF"/><path d="M43.71 29.603c.733 1.103 2.097 1.558 3.04 1.014.944-.544 1.116-1.887.383-2.99-.733-1.103-2.097-1.557-3.04-1.013-.944.544-1.115 1.886-.383 2.99zm.465-2.863c.885-.51 2.162-.085 2.85.95.686 1.035.526 2.29-.359 2.803-.885.51-2.162.085-2.85-.95-.686-1.035-.524-2.293.359-2.803z" fill="#0080FF"/><path d="M65.649 48.65l.37-.211-2.344-1.676-.331.188 1.548 2.131.367-.21-.34-.45.239-.138.49.365zm-.946-.48l-.629-.76.82.652-.19.108zM62.38 47.502l1.098 1.382-1.506-1.15-.431.247 1.945 1.904.273-.157-1.36-1.343c.16.126.426.33.792.608.365.278.63.48.79.607l.281-.16-1.149-1.475 1.384 1.342.275-.157-1.944-1.904-.448.256zM60.941 48.326a1.206 1.206 0 0 0-.17.113.467.467 0 0 0-.108.13.24.24 0 0 0-.034.158.42.42 0 0 0 .065.186c.041.07.102.146.184.225.102.1.203.165.307.196.104.032.22.036.351.015-.162.181-.109.404.162.667.196.191.385.308.566.349.181.04.365.01.547-.095l.455-.261-1.945-1.904-.38.22zm.994 1.018l.036-.022.644.629-.034.02a.39.39 0 0 1-.136.05.257.257 0 0 1-.13-.022.588.588 0 0 1-.128-.077 1.696 1.696 0 0 1-.155-.14.695.695 0 0 1-.186-.261c-.022-.07.007-.131.09-.177zm-.283-.24a.214.214 0 0 1-.106.03.238.238 0 0 1-.111-.03.757.757 0 0 1-.228-.169.77.77 0 0 1-.077-.087c-.02-.027-.037-.048-.046-.068a.096.096 0 0 1-.015-.055.147.147 0 0 1 .01-.044.077.077 0 0 1 .034-.036c.017-.015.034-.024.046-.034l.058-.031.5.49-.065.034zM61.789 50.46a1.202 1.202 0 0 0-.104-.161 1.85 1.85 0 0 0-.138-.165 4.938 4.938 0 0 0-.162-.167l-1.222-1.194-.372.212L61 50.17c.067.068.118.117.15.148.03.032.067.07.108.116.041.046.07.078.08.1a.508.508 0 0 1 .031.072c.01.026.008.048-.007.065a.189.189 0 0 1-.06.051.23.23 0 0 1-.08.029.141.141 0 0 1-.087-.012c-.034-.012-.06-.027-.088-.041a.64.64 0 0 1-.108-.085c-.049-.041-.087-.077-.119-.106l-.15-.145-.007-.008-1.21-1.185-.372.213 1.221 1.195c.061.06.122.114.175.162.053.048.113.094.176.143.063.046.124.084.182.118a.96.96 0 0 0 .375.114.786.786 0 0 0 .193-.02.85.85 0 0 0 .198-.08.593.593 0 0 0 .155-.12.368.368 0 0 0 .078-.136.335.335 0 0 0 .002-.147.542.542 0 0 0-.048-.15zM58.5 49.719l1.676 1.64-.367.21.268.264.74-.424-1.944-1.903-.373.213zM57.389 50.357l1.548 2.13.367-.21-.34-.45.239-.138.488.366.37-.213-2.343-1.674-.33.189zm1.548 1.11l-.191.109-.63-.76.82.65zM56.602 50.804l.612 1.227-1.018-.995-.307.177 1.944 1.904.26-.148-.676-1.287 1.08 1.055.318-.184-1.944-1.904-.269.155zM57.19 52.815a2.307 2.307 0 0 0-.2-.22l-.644-.632c-.46-.45-.868-.573-1.224-.367a.538.538 0 0 0-.17.145.324.324 0 0 0-.057.169.44.44 0 0 0 .04.191c.03.068.071.138.124.206.053.07.119.14.196.217l.167.165.365-.21-.179-.177c-.036-.034-.063-.063-.09-.09a.824.824 0 0 1-.132-.184.124.124 0 0 1-.01-.077.09.09 0 0 1 .049-.06c.108-.063.256 0 .45.188l.839.823c.19.186.232.31.123.372a.157.157 0 0 1-.111.017.352.352 0 0 1-.128-.053 1.59 1.59 0 0 1-.247-.203l-.2-.196-.366.208.164.16c.078.072.15.135.223.19.073.056.15.105.235.15a.968.968 0 0 0 .241.092.688.688 0 0 0 .489-.07c.08-.046.14-.099.177-.157a.325.325 0 0 0 .055-.181.483.483 0 0 0-.05-.204.977.977 0 0 0-.129-.212zM53.697 52.466l.269.263.399-.227.527.52-.28.16.278.27.28-.16.598.584-.397.227.271.266.77-.44-1.946-1.904-.769.44z" fill="#E30001"/></g><defs><linearGradient id="paint0_linear" x1="43.87" y1="58.432" x2="47.758" y2="62.58" gradientUnits="userSpaceOnUse"><stop stop-color="#C1C0C0"/><stop offset="1" stop-color="#DEDDDC"/></linearGradient><linearGradient id="paint1_linear" x1="9.945" y1="39.032" x2="13.833" y2="43.179" gradientUnits="userSpaceOnUse"><stop stop-color="#C1C0C0"/><stop offset="1" stop-color="#DEDDDC"/></linearGradient><linearGradient id="paint2_linear" x1="57.056" y1="56.103" x2="50.494" y2="56.476" gradientUnits="userSpaceOnUse"><stop stop-color="#333"/><stop offset=".524" stop-color="#999"/><stop offset="1" stop-color="#333"/></linearGradient><linearGradient id="paint3_linear" x1="57.056" y1="56.103" x2="50.494" y2="56.476" gradientUnits="userSpaceOnUse"><stop stop-color="#fff"/><stop offset=".524" stop-color="#fff"/><stop offset="1" stop-color="#fff"/></linearGradient><linearGradient id="paint4_linear" x1="64.789" y1="54.758" x2="63.654" y2="57.028" gradientUnits="userSpaceOnUse"><stop stop-color="#333"/><stop offset=".524" stop-color="#999"/><stop offset="1" stop-color="#333"/></linearGradient><linearGradient id="paint5_linear" x1="64.789" y1="54.758" x2="63.654" y2="57.028" gradientUnits="userSpaceOnUse"><stop stop-color="#fff"/><stop offset=".524" stop-color="#fff"/><stop offset="1" stop-color="#fff"/></linearGradient><linearGradient id="paint6_linear" x1="40.443" y1="24.178" x2="39.208" y2="21.981" gradientUnits="userSpaceOnUse"><stop stop-color="#BCC2C7"/><stop offset=".543" stop-color="#E6ECF2"/><stop offset=".787" stop-color="#E4EAF0"/><stop offset=".914" stop-color="#DCE2E8"/><stop offset="1" stop-color="#D2D8DD"/></linearGradient><clipPath id="clip0"><path fill="#fff" transform="translate(0 3.6)" d="M0 0h72v63.892H0z"/></clipPath><clipPath id="clip1"><path fill="#fff" transform="translate(6.773 3.6)" d="M0 0h59.246v50.77H0z"/></clipPath></defs></svg>