<svg width="73" height="72" fill="none" xmlns="http://www.w3.org/2000/svg" viewBox="0 0 73 72"><g clip-path="url(#clip0)"><path d="M72.973 50.691L36.487 68.695 0 50.691l36.486-18.005 36.487 18.005z" fill="#E2C8B4"/><path d="M72.973 53.794L36.486 71.799v-3.105L72.973 50.69v3.103z" fill="#B99989"/><path d="M36.486 71.799L0 53.794V50.69l36.486 18.003v3.105z" fill="#DAB5A1"/><path d="M70.7 51.89V20.427l2.273-1.182V50.71l-2.274 1.181z" fill="url(#paint0_linear)"/><path d="M0 50.666v-31.46l2.276 1.156v31.46L0 50.667z" fill="url(#paint1_linear)"/><path d="M38.762 33.82L2.275 51.823V20.36L38.762 2.356V33.82z" fill="url(#paint2_linear)"/><path d="M70.7 20.427V51.89L36.485 35.01V3.546L70.7 20.426z" fill="url(#paint3_linear)"/><path d="M38.763 2.357L2.276 20.362 0 19.205 36.486 1.2l2.277 1.157z" fill="#8ACEE3"/><path d="M70.7 20.427L34.21 2.422l2.277-1.182 36.486 18.005-2.273 1.182z" fill="#8ACEE3"/><path opacity=".55" d="M11.446 50.537l-2.254 1.109-1.577.09 2.253-1.963 1.578.764zM37.461 37.607l-2.253 1.112-1.577.087 2.253-1.963 1.577.764zM48.19 47.249l-8.002 3.947-2.656.097-5.344-4.044 8-3.95 8.002 3.95zM22.797 59.521l2.747-1.354-3.615-1.783-2.57 1.783 2.747 1.354h.691zM62.98 53.566l-4.604-2.273c-.484-.24-1.269-.24-1.752 0l-16.155 7.889-3.438-1.697c-.57-.28-1.494-.28-2.063 0l-4.297 2.121c-.57.28-.57.737 0 1.017l4.314 2.128 3.755 1.854h3.456l3.6-1.777 17.185-8.395c.483-.24.483-.627 0-.867z" fill="#817F7F"/><path d="M66.781 34.306l-.47.232v-3.856l.47-.233v3.857z" fill="#6E4A4C"/><path d="M62.4 28.753l.471-.233 3.91 1.929-.472.232-3.909-1.928z" fill="#9B787A"/><path d="M66.31 34.538L62.4 32.61v-3.857l3.91 1.928v3.857z" fill="#865D5F"/><path d="M65.867 33.881l-3.023-1.491v-2.983l3.023 1.491v2.983z" fill="#fff"/><path d="M65.452 33.264l-2.19-1.079v-2.16l2.19 1.081v2.158z" fill="#E2AF75"/><path d="M65.452 32.185l-2.19-1.079v-1.082l2.19 1.082v1.08z" fill="#BBF5FE"/><path d="M65.452 32.585l-2.19-1.081v-.398l2.19 1.08v.4z" fill="#98A17E"/><path d="M65.452 32.982l-2.19-1.08v-.4l2.19 1.082v.398z" fill="#F7C17F"/><path d="M66.865 29.504l-.468.233V25.88l.468-.232v3.856z" fill="#6E4A4C"/><path d="M62.486 23.949l.469-.23 3.909 1.928-.469.232-3.909-1.93z" fill="#9B787A"/><path d="M66.395 29.736l-3.909-1.931v-3.857l3.91 1.931v3.857z" fill="#865D5F"/><path d="M65.95 29.08l-3.022-1.492v-2.983l3.023 1.492v2.982z" fill="#fff"/><path d="M65.534 28.462l-2.19-1.08v-2.16l2.19 1.079v2.16z" fill="#FFDBAF"/><path d="M65.534 27.382l-2.19-1.081v-1.08l2.19 1.08v1.081z" fill="#AFF5FF"/><path d="M65.534 27.78l-2.19-1.079v-.4l2.19 1.082v.398z" fill="#CCB7BD"/><path d="M65.534 28.18l-2.19-1.082v-.397l2.19 1.08v.399z" fill="bisque"/><path d="M63.344 25.222l.288.971.388.19.258.3.625.31s.185-.2.24-.173c.056.028.39.21.39.21v.55l-2.19-1.08v-1.278z" fill="#CCB7BD"/><path d="M61.285 30.966l-.47.232V23.64l.47-.233v7.559z" fill="#6E4A4C"/><path d="M56.904 21.71l.471-.232 3.91 1.929-.472.232-3.909-1.928z" fill="#9B787A"/><path d="M60.813 31.198l-3.909-1.928v-7.56l3.91 1.93v7.558z" fill="#865D5F"/><path d="M60.368 30.542l-3.022-1.491v-6.685l3.023 1.492v6.684z" fill="#fff"/><path d="M59.956 29.924l-2.19-1.079v-5.863l2.19 1.082v5.86z" fill="#FFDBAF"/><path d="M59.956 28.845l-2.19-1.08v-4.783l2.19 1.082v4.781z" fill="#CCB393"/><path d="M59.1 23.964l-.34.342s-.322.19-.375.238c-.053.047.028.752.028.752s-.15.152-.045.317c.1.165.035.57 0 .797-.036.227-.259.527-.34.622-.083.095-.26.497-.26.497v-4.547l2.19 1.08s-.213.057-.241.054c-.028-.002-.304.275-.304.275l-.309.08v-.507H59.1z" fill="#AFF5FF"/><path d="M58.082 28.533l-.316-.767.997-.26s-.01-.087 0-.22c.01-.13.34-.232.34-.232l.28.137s.14-.177.084-.442c-.056-.265-.14-.425-.111-.652.027-.227.6-.624.6-.624v4.281l-1.874-1.221z" fill="#FFDBAF"/><path d="M58 28.96l.762.208.099-.47s.41-.042.493-.11c.084-.067.22-.327.249-.532.027-.205.352-.862.352-.862v1.909l-.682.21.246.4L58 28.96z" fill="#77DAE9"/><path d="M28.201 39.014L10.535 47.73v-4.274l17.666-8.715v4.272z" fill="url(#paint4_linear)"/><path d="M35.889 21.993l-2.253 1.112-1.577-.765 2.25-1.111 1.58.764z" fill="#727275"/><path d="M33.636 38.821l-1.577-.764V22.34l1.577.764v15.717z" fill="url(#paint5_linear)"/><path d="M35.89 37.71l-2.253 1.112V23.105l2.253-1.112V37.71z" fill="url(#paint6_linear)"/><path d="M33.78 23.19l1.969-.972v15.404l-1.97.975V23.189z" fill="url(#paint7_linear)"/><mask id="a" maskUnits="userSpaceOnUse" x="33" y="21" width="3" height="15"><path d="M35.89 34.633l-2.253 1.111v-12.64l2.253-1.11v12.639z" fill="url(#paint8_linear)"/></mask><g mask="url(#a)"><path d="M35.89 34.633l-2.253 1.111v-12.64l2.253-1.11v12.639z" fill="url(#paint9_linear)"/><path d="M35.686 24.166c0 .49-.402 1.084-.899 1.33-.496.244-.898.047-.898-.443s.402-1.084.898-1.329c.497-.245.9-.047.9.442z" fill="#8A8995"/><path d="M35.529 24.244c0 .404-.332.896-.742 1.099-.41.202-.742.037-.742-.367 0-.405.332-.897.742-1.1.41-.2.742-.037.742.368z" fill="#5E5D65"/><path d="M35.408 24.303c0 .338-.278.747-.62.917-.341.17-.62.033-.62-.305 0-.337.279-.746.62-.916.342-.17.62-.033.62.304z" fill="#DEDCDE"/><path d="M35.08 25.008a1.094 1.094 0 0 1-.292.215.625.625 0 0 1-.278.072v-.634l.278-.133.291.48z" fill="#F3F1F2"/><path d="M34.868 24.426c0 .112-.093.25-.207.305-.114.057-.208.01-.208-.103 0-.112.094-.25.208-.305.114-.057.207-.01.207.103z" fill="#5E5D65"/><path d="M35.688 26.887c0 .49-.402 1.084-.899 1.329-.496.245-.898.047-.898-.442 0-.49.402-1.084.898-1.33.497-.244.9-.046.9.443z" fill="#8A8995"/><path d="M35.246 27.688c.323-.407.38-.896.127-1.09-.252-.194-.718-.021-1.04.386-.323.408-.38.896-.128 1.09.252.195.718.022 1.041-.386z" fill="#5E5D65"/><path d="M35.408 27.024c0 .235-.134.502-.329.702a1.093 1.093 0 0 1-.29.215.626.626 0 0 1-.28.072c-.202 0-.341-.14-.341-.377 0-.337.279-.747.62-.917.342-.17.62-.032.62.305z" fill="#DEDCDE"/><path d="M35.08 27.726a1.094 1.094 0 0 1-.292.215.625.625 0 0 1-.278.072v-.635l.278-.132.291.48z" fill="#F3F1F2"/><path d="M34.868 27.144c0 .113-.093.25-.207.305-.114.058-.208.01-.208-.102 0-.113.094-.25.208-.305.114-.055.207-.01.207.102z" fill="#5E5D65"/><path d="M35.408 29.482c0 .337-.278.747-.62.917-.341.17-.62.032-.62-.305 0-.337.279-.747.62-.917.342-.17.62-.032.62.305z" fill="#7D7A86"/><path d="M35.3 29.534c0 .28-.228.617-.511.757-.284.14-.512.027-.512-.252 0-.28.228-.617.512-.757.283-.14.511-.028.511.252z" fill="#5E5D65"/><path d="M35.215 29.577c0 .232-.192.514-.428.632-.235.117-.428.022-.428-.21 0-.232.193-.515.428-.632.236-.118.428-.023.428.21z" fill="#000"/><path d="M34.061 26.286c0 .042-.035.095-.078.114-.043.023-.079.006-.079-.037 0-.042.036-.095.079-.115.043-.022.078-.005.078.038zM35.624 25.513c0 .043-.036.095-.079.115-.043.023-.078.005-.078-.037 0-.043.035-.095.078-.115.043-.023.079-.005.079.037zM34.061 29.093c0 .043-.035.095-.078.115-.043.023-.079.005-.079-.037 0-.043.036-.095.079-.115.043-.023.078-.005.078.037zM35.624 28.32c0 .043-.036.096-.079.116-.043.022-.078.005-.078-.038 0-.042.035-.095.078-.115.043-.022.079-.005.079.038zM34.061 23.652c0 .042-.035.095-.078.115-.043.022-.079.005-.079-.038 0-.042.036-.095.079-.115.043-.022.078-.005.078.038zM35.624 22.882c0 .043-.036.095-.079.115-.043.023-.078.005-.078-.037 0-.043.035-.095.078-.115.043-.023.079-.005.079.037z" fill="#45434B"/></g><path d="M45.462 46.563l-8 3.946-8.003-3.947 8.003-3.949 8 3.95z" fill="#F0D2B6"/><path d="M37.463 51.404v-.895l8-3.947v.892l-6.896 3.405-1.104.544z" fill="#B99989"/><path d="M29.459 47.454v-.892l8.003 3.947v.895l-8.003-3.95z" fill="#DAB5A1"/><path d="M30.789 46.61l-.666.327v-3.605l.666-.327v3.604z" fill="#B99989"/><path d="M30.122 46.937l-.663-.328v-3.604l.663.327v3.605z" fill="#DAB5A1"/><path d="M45.462 46.577l-.663.327V43.3l.663-.327v3.604z" fill="#B99989"/><path d="M44.798 46.904l-.663-.327v-3.604l.663.327v3.604z" fill="#DAB5A1"/><path d="M38.126 50.182l-.663.327v-3.605l.663-.327v3.605z" fill="#B99989"/><path d="M37.463 50.509l-.666-.327v-3.605l.666.327v3.605z" fill="#DAB5A1"/><path d="M45.462 42.166l-8 3.95-8.003-3.95 8.003-3.95 8 3.95z" fill="#FFF6EE"/><path d="M37.463 47.01v-.895l8-3.949v.894l-8 3.95z" fill="#B99989"/><path d="M29.459 43.06v-.894l8.003 3.95v.894l-8.003-3.95z" fill="#DAB5A1"/><path opacity=".55" d="M62.39 51.743l2.276-1.124-3-1.478-2.129 1.478 2.279 1.124h.574z" fill="#817F7F"/><path d="M63.94 50.279L61.666 51.4l-2.273-1.121 2.273-1.122 2.274 1.122z" fill="#9B787A"/><path d="M61.666 51.778v-.377l2.274-1.122v.377l-2.274 1.122z" fill="#6E4A4C"/><path d="M59.393 50.657v-.378l2.273 1.122v.377l-2.273-1.121z" fill="#865D5F"/><path d="M61.898 50.167c.13.062.13.165 0 .23a.586.586 0 0 1-.463 0c-.13-.063-.13-.165 0-.23a.575.575 0 0 1 .463 0z" fill="#6E4A4C"/><path d="M61.995 48.036h-.655v2.246h.655v-2.246z" fill="#6E4A4C"/><path d="M61.995 48.036h-.655v2.246h.655v-2.246z" fill="url(#paint10_linear)"/><path d="M61.666 48.897l-2.273-1.121V38.28l2.273 1.122v9.494z" fill="#fff"/><mask id="b" maskUnits="userSpaceOnUse" x="59" y="41" width="3" height="5"><path d="M61.524 44.078c0 1.01-.446 1.612-.992 1.34-.547-.273-.993-1.31-.993-2.321 0-1.01.446-1.611.992-1.34.547.273.993 1.312.993 2.321z" fill="url(#paint11_radial)"/></mask><g mask="url(#b)"><path d="M61.524 44.078c0 1.01-.446 1.612-.992 1.34-.547-.273-.993-1.31-.993-2.321 0-1.01.446-1.611.992-1.34.547.273.993 1.312.993 2.321z" fill="url(#paint12_radial)"/></g><path d="M63.94 47.776l-2.274 1.121v-9.494l2.274-1.122v9.495z" fill="#FFF5EB"/><mask id="c" maskUnits="userSpaceOnUse" x="61" y="41" width="3" height="5"><path d="M63.797 43.1c0 1.009-.445 2.048-.992 2.32-.547.273-.992-.33-.992-1.339s.445-2.048.992-2.32c.547-.272.992.327.992 1.339z" fill="url(#paint13_radial)"/></mask><g mask="url(#c)"><path d="M63.797 43.1c0 1.009-.445 2.048-.992 2.32-.547.273-.992-.33-.992-1.339s.445-2.048.992-2.32c.547-.272.992.327.992 1.339z" fill="url(#paint14_radial)"/></g><path d="M63.94 38.282l-2.274 1.121-2.273-1.121 2.273-1.122 2.274 1.122z" fill="#fff"/><path d="M61.666 39.403l-2.273-1.121 2.273-1.122v2.243z" fill="#FFF5EB"/><g opacity=".5"><path opacity=".5" d="M61.666 40.108l-2.273-1.122v-.29l2.273 1.122v.29z" fill="#FFF5EB"/><path opacity=".5" d="M63.94 38.986l-2.274 1.122v-.29l2.274-1.122v.29z" fill="#F0D2B6"/></g><g opacity=".5"><path opacity=".5" d="M61.666 40.647l-2.273-1.124v-.29l2.273 1.125v.29z" fill="#FFF5EB"/><path opacity=".5" d="M63.94 39.523l-2.274 1.124v-.29l2.274-1.124v.29z" fill="#F0D2B6"/></g><g opacity=".5"><path opacity=".5" d="M61.666 41.185l-2.273-1.122v-.29l2.273 1.122v.29z" fill="#FFF5EB"/><path opacity=".5" d="M63.94 40.063l-2.274 1.122v-.29l2.274-1.122v.29z" fill="#F0D2B6"/></g><g opacity=".5"><path opacity=".5" d="M61.666 41.722L59.393 40.6v-.29l2.273 1.122v.29z" fill="#FFF5EB"/><path opacity=".5" d="M63.94 40.6l-2.274 1.122v-.29l2.274-1.122v.29z" fill="#F0D2B6"/></g><g opacity=".5"><path opacity=".5" d="M61.666 42.258l-2.273-1.122v-.29l2.273 1.122v.29z" fill="#FFF5EB"/><path opacity=".5" d="M63.94 41.136l-2.274 1.122v-.29l2.274-1.121v.29z" fill="#F0D2B6"/></g><g opacity=".5"><path opacity=".5" d="M61.666 42.795l-2.273-1.121v-.29l2.273 1.121v.29z" fill="#FFF5EB"/><path opacity=".5" d="M63.94 41.674l-2.274 1.121v-.29l2.274-1.121v.29z" fill="#F0D2B6"/></g><g opacity=".5"><path opacity=".5" d="M61.666 43.333l-2.273-1.121v-.29l2.273 1.121v.29z" fill="#FFF5EB"/><path opacity=".5" d="M63.94 42.212l-2.274 1.121v-.29l2.274-1.121v.29z" fill="#F0D2B6"/></g><g opacity=".5"><path opacity=".5" d="M61.666 43.872l-2.273-1.124v-.29l2.273 1.124v.29z" fill="#FFF5EB"/><path opacity=".5" d="M63.94 42.748l-2.274 1.124v-.29l2.274-1.124v.29z" fill="#F0D2B6"/></g><g opacity=".5"><path opacity=".5" d="M61.666 44.408l-2.273-1.121v-.29l2.273 1.122v.29z" fill="#FFF5EB"/><path opacity=".5" d="M63.94 43.287l-2.274 1.121v-.29l2.274-1.12v.289z" fill="#F0D2B6"/></g><g opacity=".5"><path opacity=".5" d="M61.666 44.947l-2.273-1.122v-.29l2.273 1.122v.29z" fill="#FFF5EB"/><path opacity=".5" d="M63.94 43.825l-2.274 1.121v-.29l2.274-1.12v.289z" fill="#F0D2B6"/></g><g opacity=".5"><path opacity=".5" d="M61.666 45.483l-2.273-1.122v-.29l2.273 1.122v.29z" fill="#FFF5EB"/><path opacity=".5" d="M63.94 44.361l-2.274 1.122v-.29l2.274-1.122v.29z" fill="#F0D2B6"/></g><g opacity=".5"><path opacity=".5" d="M61.666 46.02l-2.273-1.122v-.29l2.273 1.122v.29z" fill="#FFF5EB"/><path opacity=".5" d="M63.94 44.898l-2.274 1.122v-.29l2.274-1.122v.29z" fill="#F0D2B6"/></g><g opacity=".5"><path opacity=".5" d="M61.666 46.558l-2.273-1.122v-.29l2.273 1.122v.29z" fill="#FFF5EB"/><path opacity=".5" d="M63.94 45.436l-2.274 1.122v-.29l2.274-1.121v.29z" fill="#F0D2B6"/></g><g opacity=".5"><path opacity=".5" d="M61.666 47.094l-2.273-1.122v-.29l2.273 1.125v.287z" fill="#FFF5EB"/><path opacity=".5" d="M63.94 45.972l-2.274 1.122v-.287l2.274-1.124v.29z" fill="#F0D2B6"/></g><g opacity=".5"><path opacity=".5" d="M61.666 47.634l-2.273-1.124v-.287l2.273 1.121v.29z" fill="#FFF5EB"/><path opacity=".5" d="M63.94 46.51l-2.274 1.124v-.29l2.274-1.121v.287z" fill="#F0D2B6"/></g><g opacity=".5"><path opacity=".5" d="M61.666 48.171l-2.273-1.121v-.29l2.273 1.121v.29z" fill="#FFF5EB"/><path opacity=".5" d="M63.94 47.05l-2.274 1.121v-.29l2.274-1.121v.29z" fill="#F0D2B6"/></g><g opacity=".5"><path opacity=".5" d="M61.666 48.708l-2.273-1.121v-.29l2.273 1.121v.29z" fill="#FFF5EB"/><path opacity=".5" d="M63.94 47.587l-2.274 1.121v-.29l2.274-1.121v.29z" fill="#F0D2B6"/></g><path d="M61.666 37.315l1.957.967-1.957.966-1.957-.966 1.957-.967zm0-.155l-2.273 1.122 2.273 1.121 2.274-1.121-2.274-1.122z" fill="#FFFFFD"/><path d="M31.537 32.102L13.87 40.82l-3.34-1.649 17.666-8.715 3.34 1.646z" fill="#FFF6EE"/><path opacity=".55" d="M31.546 40.665L13.88 49.383l-3.339-1.649 17.666-8.717 3.34 1.648z" fill="#817F7F"/><path d="M13.87 45.091l-3.339-1.649v-4.271l3.34 1.648v4.272z" fill="#DAB5A1"/><path d="M31.535 36.377L13.87 45.091V40.82l17.666-8.718v4.275z" fill="#B99989"/><path d="M31.535 33.663L13.87 42.381v-.157l17.666-8.718v.157z" fill="#AA8E7E"/><path d="M31.535 33.506L13.87 42.224v-.157l17.666-8.715v.154z" fill="#C9A792"/><path d="M31.535 35.127L13.87 43.846v-.157l17.666-8.715v.154z" fill="#AA8E7E"/><path d="M31.535 34.973L13.87 43.688v-.155l17.666-8.718v.158z" fill="#C9A792"/><path d="M22.81 40.68l-.214.108v-4.274l.215-.105v4.272z" fill="#AA8E7E"/><path d="M28.097 24.493l-17.124 8.45v-9.776l17.124-8.448v9.774z" fill="#515154"/><path d="M11.563 32.067v-8.608l15.944-7.866V24.2l-15.945 7.866z" fill="url(#paint15_linear)"/><mask id="d" maskUnits="userSpaceOnUse" x="10" y="14" width="19" height="19"><path d="M10.973 32.944v-9.777l17.124-8.448-17.124 18.225z" fill="url(#paint16_linear)"/></mask><path d="M27.615 14.494l-17.127 8.45.484.223 17.124-8.448-.481-.225z" fill="#6E6E70"/><path d="M10.972 32.944v-9.777l-.484-.223v9.775l.484.224z" fill="#59595C"/><path d="M24.576 34.982l-4.045 1.996-.605-.027 2.132-3.213 2.518 1.244z" fill="#E7C2AB"/><path d="M23.97 34.428l-4.046 1.998-2.522-1.244 4.049-1.998 2.518 1.244z" fill="#6E6E70"/><path d="M23.97 34.955l-4.046 1.996v-.525l4.046-1.998v.527z" fill="#515154"/><path d="M23.97 34.747l-4.046 1.996v-.112l4.046-1.996v.112z" fill="#1B1B1C"/><path d="M20.57 36.555l-.343.168v-.073l.344-.17v.075zM20.992 36.346l-.342.17v-.075l.342-.17v.075z" fill="#6E6E70"/><path d="M20.119 36.74c0 .02-.018.046-.038.056-.02.01-.038.002-.038-.018 0-.02.018-.045.038-.055.02-.01.038-.002.038.018z" fill="#A35B4D"/><path d="M19.924 36.95l-2.522-1.244v-.524l2.522 1.244v.524z" fill="#59595C"/><path d="M19.795 36.78l-.053-.027v-.313l.053.025v.315zM19.68 36.722l-.055-.027v-.312l.055.027v.313zM19.564 36.665l-.052-.025v-.315l.052.028v.312zM19.45 36.61l-.055-.027v-.314l.055.027v.315zM19.334 36.553l-.053-.028v-.312l.053.025v.315z" fill="#1B1B1C"/><path d="M53.512 37.773l-13.028-6.427V9.983l13.028 6.43v21.36z" fill="#fff"/><path d="M52.743 36.736l-11.49-5.67V11.023l11.49 5.667v20.046z" fill="url(#paint17_linear)"/><path d="M53.896 37.585l-.382.187v-21.36l.382-.19v21.363z" fill="#EBEBEB"/><path d="M40.484 9.983l.383-.19 13.028 6.43-.383.19-13.028-6.43z" fill="#fff"/><path d="M52.743 36.735l-11.49-5.67.793-.392 10.697 5.278v.784z" fill="#EBEBEB"/><path d="M47.188 33.997V13.954l.794.392v19.26l-.794.391zM41.254 31.066V11.023l.792.39v19.26l-.792.393z" fill="#EBEBEB"/><path d="M46.395 33.606V13.562l.794.393v20.043l-.794-.392z" fill="#fff"/><path d="M9.873 34.907L7.62 36.019l-1.577-.765 2.25-1.111 1.58.764z" fill="#727275"/><path d="M7.62 51.735l-1.577-.764V35.254l1.577.764v15.717z" fill="url(#paint18_linear)"/><path d="M9.874 50.624l-2.253 1.112V36.019l2.253-1.112v15.717z" fill="url(#paint19_linear)"/><path d="M7.762 36.103l1.972-.971v15.404l-1.972.975V36.103z" fill="url(#paint20_linear)"/><mask id="e" maskUnits="userSpaceOnUse" x="7" y="34" width="3" height="15"><path d="M9.874 47.55l-2.253 1.108v-12.64l2.253-1.11v12.641z" fill="url(#paint21_linear)"/></mask><g mask="url(#e)"><path d="M9.874 47.55l-2.253 1.108v-12.64l2.253-1.11v12.641z" fill="url(#paint22_linear)"/><path d="M9.672 37.08c0 .49-.402 1.084-.898 1.33-.496.244-.899.047-.899-.443s.403-1.084.899-1.329c.496-.244.898-.047.898.442z" fill="#8A8995"/><path d="M9.515 37.158c0 .404-.332.896-.742 1.099-.41.202-.742.037-.742-.367 0-.405.332-.897.742-1.1.41-.2.742-.037.742.368z" fill="#5E5D65"/><path d="M9.156 37.825c.27-.34.317-.747.107-.91-.21-.162-.6-.017-.87.323-.268.34-.316.748-.106.91.21.162.6.018.87-.323z" fill="#DEDCDE"/><path d="M9.064 37.922a1.095 1.095 0 0 1-.291.215.625.625 0 0 1-.279.072v-.634l.279-.133.29.48z" fill="#F3F1F2"/><path d="M8.855 37.34c0 .112-.094.25-.208.304-.114.058-.208.01-.208-.102 0-.112.094-.25.208-.305.114-.055.208-.01.208.103z" fill="#5E5D65"/><path d="M9.672 39.801c0 .49-.402 1.084-.898 1.329-.496.245-.899.047-.899-.442 0-.49.403-1.084.899-1.329.496-.245.898-.047.898.442z" fill="#8A8995"/><path d="M9.515 39.878c0 .405-.332.897-.742 1.1-.41.202-.742.037-.742-.368 0-.404.332-.896.742-1.099.41-.2.742-.037.742.367z" fill="#5E5D65"/><path d="M9.39 39.938c0 .235-.133.502-.328.702a1.095 1.095 0 0 1-.291.215.625.625 0 0 1-.279.072c-.202 0-.342-.14-.342-.377 0-.337.279-.747.62-.917.345-.17.62-.032.62.305z" fill="#DEDCDE"/><path d="M9.064 40.643a1.095 1.095 0 0 1-.291.215.625.625 0 0 1-.279.072v-.635l.279-.132.29.48z" fill="#F3F1F2"/><path d="M8.855 40.06c0 .113-.094.25-.208.305-.114.058-.208.01-.208-.102 0-.113.094-.25.208-.305.114-.057.208-.01.208.102z" fill="#5E5D65"/><path d="M9.39 42.396c0 .337-.278.747-.62.917-.341.17-.62.032-.62-.305 0-.337.279-.747.62-.917.345-.17.62-.032.62.305z" fill="#7D7A86"/><path d="M9.285 42.449c0 .28-.228.617-.512.757-.283.14-.511.027-.511-.253s.228-.617.511-.757c.281-.14.512-.025.512.253z" fill="#5E5D65"/><path d="M9.201 42.49c0 .233-.192.515-.427.633-.236.117-.428.022-.428-.21 0-.232.192-.515.428-.632.235-.117.427-.023.427.21z" fill="#000"/><path d="M8.048 39.199c0 .042-.036.095-.079.115-.043.022-.078.005-.078-.038 0-.042.035-.095.078-.115.043-.022.079-.005.079.038zM9.61 38.427c0 .042-.035.095-.078.115-.043.023-.079.005-.079-.038 0-.042.036-.094.079-.114.043-.02.078-.005.078.037zM8.048 42.006c0 .043-.036.095-.079.115-.043.023-.078.005-.078-.037 0-.043.035-.095.078-.115.043-.023.079-.005.079.037zM9.61 41.237c0 .043-.035.095-.078.115-.043.023-.079.005-.079-.037 0-.043.036-.095.079-.115.043-.023.078-.008.078.037zM8.048 36.569c0 .042-.036.095-.079.115-.043.022-.078.005-.078-.038 0-.042.035-.095.078-.115.043-.022.079-.005.079.038zM9.61 35.796c0 .043-.035.095-.078.115-.043.023-.079.005-.079-.037 0-.043.036-.095.079-.115.043-.023.078-.005.078.037z" fill="#45434B"/></g><path d="M60.447 53.804v-4.99l-9.879-3.318v4.944c0 .077.061.157.183.217l7.615 3.724.147.073c.243.12.635.12.878 0h.003l.873-.432c.12-.06.18-.138.18-.218z" fill="#CF3A27"/><path d="M59.393 49.09v5.364h-.002c-.243.12-.636.12-.879 0l-.147-.073v-5.29h1.028z" fill="#D6463A"/><path d="M60.265 49.03l-.876.433c-.243.12-.635.12-.878 0l-7.762-3.797c-.243-.12-.243-.315 0-.432l.876-.432c.243-.12.635-.12.878 0l7.762 3.797c.243.117.243.312 0 .432z" fill="#FF8884"/><path d="M39.55 62.642l.154-.077 4.297-2.121 13.007-6.42c.484-.24.484-.627 0-.864l-4.605-2.273c-.483-.24-1.268-.24-1.752 0l-11.977 5.91-3.438-1.696c-.57-.28-1.494-.28-2.063 0l-4.297 2.12c-.57.28-.57.738 0 1.017l4.314 2.129 4.451 2.195.155.078c.486.24 1.27.24 1.754.002z" fill="#EB5E57"/><path d="M32.894 55.925h-4.44v1.838h4.44v-1.838zM57.374 51.776h-4.44v1.839h4.44v-1.839z" fill="#EB5E57"/><path d="M39.55 60.829l.154-.078 4.297-2.12 13.007-6.42c.484-.24.484-.627 0-.864l-4.605-2.274c-.483-.24-1.268-.24-1.752 0l-11.977 5.91-3.438-1.696c-.57-.28-1.494-.28-2.063 0l-4.297 2.121c-.57.28-.57.737 0 1.017l4.314 2.128 4.451 2.196.155.077c.486.242 1.27.242 1.754.003z" fill="#FF6C61"/><path d="M57.018 52.01l-4.605 2.274c-.483.24-1.268.24-1.752 0l-4.605-2.273c-.483-.24-.483-.627 0-.865l4.605-2.273c.484-.24 1.268-.24 1.752 0l4.605 2.273c.484.238.484.625 0 .865z" fill="#FF6459"/><path d="M55.474 49.792H45.69v1.729h9.783v-1.729z" fill="#FF6459"/><path d="M57.382 49.792h-2.79v1.729h2.79v-1.729z" fill="#FF6459"/><path d="M57.018 50.215l-4.605 2.273c-.483.24-1.268.24-1.752 0l-4.605-2.273c-.483-.24-.483-.627 0-.865l4.605-2.273c.484-.24 1.268-.24 1.752 0l4.605 2.273c.484.238.484.625 0 .865z" fill="#FF6D63"/><path d="M48.719 49.683c.121.06.121.157 0 .217a.556.556 0 0 1-.438 0c-.122-.06-.122-.157 0-.217a.555.555 0 0 1 .438 0zM51.773 48.174c.122.06.122.157 0 .217a.556.556 0 0 1-.438 0c-.121-.06-.121-.157 0-.217a.555.555 0 0 1 .438 0zM51.756 51.182c.121.06.121.157 0 .217a.555.555 0 0 1-.438 0c-.122-.06-.122-.157 0-.217a.555.555 0 0 1 .438 0zM54.812 49.673c.122.06.122.157 0 .217a.555.555 0 0 1-.438 0c-.121-.06-.121-.157 0-.217a.555.555 0 0 1 .438 0zM51.765 49.678c.122.06.122.157 0 .217a.556.556 0 0 1-.438 0c-.121-.06-.121-.157 0-.217a.555.555 0 0 1 .438 0z" fill="#EB5E57"/><path d="M50.499 55.182l-4.605 2.274c-.484.24-1.269.24-1.752 0l-4.606-2.274c-.483-.24-.483-.627 0-.864l4.606-2.273c.483-.24 1.268-.24 1.752 0l4.605 2.273c.483.238.483.625 0 .864z" fill="#FF6459"/><path d="M48.954 52.962h-9.782v1.728h9.782v-1.728z" fill="#FF6459"/><path d="M50.86 52.962h-2.79v1.728h2.79v-1.728z" fill="#FF6459"/><path d="M50.499 53.387l-4.605 2.273c-.484.24-1.269.24-1.752 0l-4.606-2.273c-.483-.24-.483-.627 0-.865l4.606-2.273c.483-.24 1.268-.24 1.752 0l4.605 2.273c.483.238.483.625 0 .865z" fill="#FF6D63"/><path d="M42.197 52.855c.122.06.122.157 0 .217a.555.555 0 0 1-.438 0c-.121-.06-.121-.158 0-.218a.556.556 0 0 1 .438 0zM45.256 51.346c.121.06.121.157 0 .217a.556.556 0 0 1-.438 0c-.122-.06-.122-.157 0-.217a.556.556 0 0 1 .438 0zM45.236 54.354c.122.06.122.157 0 .217a.556.556 0 0 1-.438 0c-.121-.06-.121-.157 0-.217a.555.555 0 0 1 .438 0zM48.29 52.845c.122.06.122.157 0 .217a.556.556 0 0 1-.437 0c-.122-.06-.122-.157 0-.217a.555.555 0 0 1 .438 0zM45.246 52.85c.121.06.121.157 0 .217a.556.556 0 0 1-.438 0c-.122-.06-.122-.157 0-.217a.555.555 0 0 1 .438 0z" fill="#EB5E57"/><path d="M37.643 60.576l-8.765-4.324c-.57-.28-.57-.736 0-1.016l4.297-2.12c.57-.28 1.493-.28 2.063 0l8.765 4.323c.57.28.57.737 0 1.017l-4.297 2.12c-.57.28-1.493.28-2.063 0z" fill="#FF6459"/><path d="M30.24 54.16h-1.787v1.585h1.788V54.16zM44.428 56.317h-1.787v1.587h1.787v-1.587z" fill="#FF6459"/><path d="M37.643 58.93l-8.765-4.324c-.57-.28-.57-.737 0-1.017l4.297-2.12c.57-.28 1.493-.28 2.063 0l8.765 4.323c.57.28.57.737 0 1.017l-4.297 2.12c-.57.283-1.493.283-2.063 0z" fill="#FF6D63"/><path d="M39.082 57.793c.121.06.121.157 0 .217a.555.555 0 0 1-.438 0c-.122-.06-.122-.157 0-.217a.556.556 0 0 1 .438 0zM42.136 56.287c.122.06.122.157 0 .218a.556.556 0 0 1-.437 0c-.122-.06-.122-.158 0-.218a.556.556 0 0 1 .438 0zM35.133 55.845c.121.06.121.157 0 .217a.556.556 0 0 1-.438 0c-.122-.06-.122-.157 0-.217a.555.555 0 0 1 .438 0zM38.187 54.336c.122.06.122.157 0 .217a.556.556 0 0 1-.438 0c-.121-.06-.121-.157 0-.217a.555.555 0 0 1 .438 0zM30.962 54.156c.172 0 .311-.068.311-.152 0-.084-.14-.152-.311-.152-.172 0-.312.068-.312.152 0 .084.14.152.312.152zM34.238 52.388c.122.06.122.157 0 .217a.556.556 0 0 1-.438 0c-.121-.06-.121-.157 0-.217a.556.556 0 0 1 .438 0zM34.683 54.116c.122.06.122.158 0 .218a.556.556 0 0 1-.438 0c-.121-.06-.121-.158 0-.218a.555.555 0 0 1 .438 0zM38.635 56.066c.121.06.121.157 0 .217a.556.556 0 0 1-.438 0c-.122-.06-.122-.158 0-.218a.555.555 0 0 1 .438 0z" fill="#EB5E57"/><path d="M53.69 45.645s-.927.325-1.62 1.09c-.691.764-1.162 1.56-1.269 1.7-.106.14.071.245.294.348.223.105 1.233 1.041 1.372 1.216.142.175 4.413-2.175 4.413-2.175s-.904-.765-1.595-1.274c-.691-.51-1.595-.904-1.595-.904z" fill="url(#paint23_linear)"/><path d="M34.944 56.435s-.016-1.05-.125-1.464c-.108-.415 1.071-.07 2.507.462 1.572.582 2.301 1.154 2.301 1.154l.21 2.053-4.894-2.205z" fill="url(#paint24_linear)"/><path d="M59.305 54.4v-7.313l-20.444 8.66v7.312c0 .077.061.157.183.217l.873.432c.015.008.035.015.053.023.23.092.562.09.788-.005.012-.005.025-.01.037-.018l18.335-9.047c.144-.068.203-.165.175-.26z" fill="#CF3A27"/><path d="M40.76 56.327v7.4c-.226.096-1.669-.504-1.897-.596v-7.406l1.897.602z" fill="#F45748"/><path d="M39.92 56.397l-.876-.432c-.243-.12-.243-.315 0-.432l18.334-9.048c.243-.12.636-.12.879 0l.875.433c.244.12.244.314 0 .432l-18.334 9.047c-.243.12-.638.12-.878 0z" fill="#FF8E89"/><path d="M40.492 58.875v4.99c0 .078-.061.158-.183.218l-.873.432h-.003c-.139.07-.329.098-.511.088a.987.987 0 0 1-.367-.088l-.147-.072-11.304-5.59c-.121-.06-.182-.138-.182-.215v-4.944l12.722 4.861.848.32z" fill="#CF3A27"/><mask id="f" maskUnits="userSpaceOnUse" x="38" y="58" width="3" height="7"><path d="M40.492 58.875v4.99c0 .078-.061.158-.183.218l-.873.432h-.003c-.139.07-.329.098-.511.088v-6.05h.724l.846.322z" fill="url(#paint25_linear)"/></mask><g mask="url(#f)"><path d="M40.492 58.875v4.99c0 .078-.061.158-.183.218l-.873.432h-.003c-.139.07-.329.098-.511.088v-6.05h.724l.846.322z" fill="#CF3A27"/><path d="M40.311 59.092l-.876.432c-.243.12-.635.12-.878 0l-11.45-5.663c-.244-.12-.244-.314 0-.432l.875-.432c.243-.12.636-.12.879 0l11.45 5.663c.24.117.24.312 0 .432z" fill="#FF8884"/></g><path d="M24.311 58.392l-2.364 1.167-2.365-1.167 2.365-1.166 2.364 1.166z" fill="#B99989"/><path d="M24.947 54.833l-3 1.479-2.998-1.48 2.998-1.48 3 1.48z" fill="#FFF6EE"/><path d="M19.582 54.833l2.365-1.167 2.367 1.167-2.367 1.166-2.365-1.166z" fill="#9B6944"/><path d="M21.947 59.56v-3.248l3-1.479-.635 3.56-2.365 1.166z" fill="#B99989"/><path d="M18.95 54.833l.632 3.56 2.365 1.166v-3.247l-2.998-1.479z" fill="#DAB5A1"/><path d="M20.82 53.988s-.157-.652-.04-1.204c.116-.55.316-.912.404-1.639.092-.754.092-1.181.092-1.181s.298.54.415 1.394c.116.854.124 1.95.124 1.95l-.995.68z" fill="url(#paint26_linear)"/><path d="M21.947 54.923l.879-.413s.37-2.095.255-2.965c-.116-.871-.673-2.115-.673-2.115s-.008 1.284-.053 2.1c-.046.815-.408 3.393-.408 3.393z" fill="url(#paint27_linear)"/><path d="M22.205 55.872s.281-.984.737-2.615c.456-1.631-.226-3.542-.226-3.542s.978 1.349 1.051 2.433c.074 1.084-.463 3.155-.463 3.155l-1.099.57z" fill="url(#paint28_linear)"/><path d="M21.947 56l.504-.25s-.15-1.474-.035-2.398c.184-1.494-.61-3.243-.61-3.243s.06.97.068 1.45c.008.479-.248 1.805-.38 2.614v1.602l.453.224z" fill="url(#paint29_linear)"/><path d="M20.803 55.304s-.311-.839-.255-1.516c.055-.68.595-1.129.633-1.798.038-.672-.208-1.252-.208-1.252s.521.717.524 1.502c.003.784-.314 2.173-.223 2.73.094.557.223.807.223.807l-.694-.473z" fill="url(#paint30_linear)"/><path d="M21.946 56s-.018-.813.122-1.887c.18-1.391.858-2.812 1.202-3.59.344-.776.63-1.093.63-1.093s-.805 3.614-.987 4.446c-.243 1.107-.078 1.684-.078 1.684l-.889.44z" fill="url(#paint31_linear)"/><path d="M19.696 54.888s.134-.497-.114-1.224c-.565-1.654.162-3.433.162-3.433s.005 1.679.377 2.608c.23.575.16 1.407.16 1.646-.003.24 0 .69 0 .69l-.585-.287z" fill="url(#paint32_linear)"/><path d="M24.314 54.833s-.081-1.047.453-2.518c.26-.722-.208-1.404-.208-1.404s-.134 1.341-.557 2.158c-.418.805-.248.467-.387 1.247-.06.342 0 .862 0 .862l.699-.345z" fill="url(#paint33_linear)"/><path d="M21.114 55.587s-.691-1.126-.096-2.812c.334-.945-.737-2.813-.737-2.813s.332 1.099.127 2.028c-.157.707-.433 1.714-.433 2.101 0 .39.174 1.02.174 1.02l.965.476z" fill="url(#paint34_linear)"/><path d="M21.443 55.752s-.658-1.314-.86-2.473c-.203-1.16-.302-1.981-.302-1.981v2.368c0 1.017.383 1.701.383 1.701l.78.385z" fill="url(#paint35_linear)"/><path d="M21.947 55.999s-.294-.83-.223-1.831c.071-1.002.073-1.632-.01-2.33-.083-.7.116-1.282.116-1.282s-.602.769-.506 1.653c.094.884-.276 2.263-.28 2.62-.006.373.143.792.143.792l.76.378z" fill="url(#paint36_linear)"/><path d="M23.006 55.478l.18-.09.754-.372s-.167-.775.284-2.373c.278-.985-.448-1.984-.448-1.984s.106 1.18-.246 2.014c-.334.794-.44 1.5-.524 1.973a2.27 2.27 0 0 0 0 .832z" fill="url(#paint37_linear)"/><path d="M15.38 39.031l-1.142.565-.375-.02-.77-.545 1.145-.564 1.142.564z" fill="#E7C2AB"/><path d="M14.764 39.131l-.901.445-.904-.445.904-.444.901.444z" fill="#B99989"/><path d="M15.005 37.773l-1.142.564-1.144-.565 1.144-.564 1.142.565z" fill="#FFF6EE"/><path d="M12.959 37.773l.904-.445.901.445-.901.444-.904-.444z" fill="#9B6944"/><path d="M13.863 39.576v-1.239l1.142-.565-.24 1.36-.902.444z" fill="#B99989"/><path d="M12.719 37.773l.24 1.358.904.445v-1.239l-1.144-.565z" fill="#DAB5A1"/><path d="M14.32 37.448s.06-.25.015-.46c-.043-.21-.122-.966-.154-1.243-.036-.288-.036-.45-.036-.45s-.114.205-.16.532c-.042.325-.047 1.364-.047 1.364l.382.257z" fill="url(#paint38_linear)"/><path d="M13.89 37.803l-.334-.158s-.141-1.419-.096-1.748c.043-.333.256-.807.256-.807s.002.49.02.802c.018.31.155 1.91.155 1.91z" fill="url(#paint39_linear)"/><path d="M13.79 38.165l-.28-.996c-.175-.622.086-1.969.086-1.969s-.372.515-.4.927c-.028.412.177 1.82.177 1.82l.418.218z" fill="url(#paint40_linear)"/><path d="M13.89 38.215l-.193-.095s.059-.562.013-.914c-.071-.57.233-1.856.233-1.856s-.023.37-.025.552c-.003.182.093 1.309.144 1.616v.61l-.172.087z" fill="url(#paint41_linear)"/><path d="M14.326 37.95s.12-.32.097-.58c-.023-.26-.228-1.05-.24-1.304-.016-.255.078-.477.078-.477s-.2.272-.2.572c0 .3.119 1.446.083 1.658-.035.213-.084.308-.084.308l.266-.178z" fill="url(#paint42_linear)"/><path d="M13.89 38.215s.008-.31-.045-.72c-.068-.53-.326-1.69-.458-1.988-.132-.297-.24-.417-.24-.417s.306 1.998.377 2.315c.093.423.03.642.03.642l.337.168z" fill="url(#paint43_linear)"/><path d="M14.749 37.79s-.05-.19.043-.467c.215-.632-.03-1.174-.03-1.174s-.036.505-.178.86c-.088.22-.06.537-.06.627v.262l.225-.107z" fill="url(#paint44_linear)"/><path d="M12.988 37.77s.097-.293-.108-.855c-.1-.274.078-.534.078-.534s.243.894.296 1.191c.023.13 0 .33 0 .33l-.266-.132z" fill="url(#paint45_linear)"/><path d="M14.209 38.058s.263-.43.035-1.072c-.126-.36.281-1.691.281-1.691s-.126.42-.048.774c.061.27.165 1.272.165 1.422 0 .147-.066.387-.066.387l-.367.18z" fill="url(#paint46_linear)"/><path d="M14.082 38.12s.25-.502.33-.944c.078-.443.113-1.374.113-1.374v1.521c0 .387-.147.65-.147.65l-.296.147z" fill="url(#paint47_linear)"/><path d="M13.89 38.215s.059-1.939.09-2.206c.03-.267-.046-.49-.046-.49s.23.293.192.633c-.035.337.106 1.48.106 1.618.003.142-.055.302-.055.302l-.286.143z" fill="url(#paint48_linear)"/><path d="M13.486 38.016l-.068-.035-.289-.143s.063-.914-.109-1.523c-.106-.375.173-.757.173-.757s-.041.45.093.769c.13.302.167 1.192.2 1.371.033.183 0 .318 0 .318z" fill="url(#paint49_linear)"/><path d="M29.954 31.947l-1.142.562-.374-.017-.77-.545 1.144-.564 1.142.564z" fill="#E7C2AB"/><path d="M29.338 32.045l-.901.447-.904-.447.904-.444.901.444z" fill="#B99989"/><path d="M29.58 30.689l-1.143.564-1.144-.564 1.144-.565 1.142.565z" fill="#FFF6EE"/><path d="M27.533 30.689l.904-.445.901.445-.901.444-.904-.444z" fill="#9B6944"/><path d="M28.438 32.492v-1.239l1.141-.564-.24 1.356-.901.447z" fill="#B99989"/><path d="M27.293 30.689l.24 1.356.904.447v-1.239l-1.144-.564z" fill="#DAB5A1"/><path d="M28.87 30.364s.061-.25.016-.46c-.043-.21-.122-.966-.155-1.243-.035-.288-.035-.45-.035-.45s-.114.205-.16.532c-.043.325-.048 1.364-.048 1.364l.383.257z" fill="url(#paint50_linear)"/><path d="M28.4 30.754l-.334-.158s-.142-1.418-.096-1.748c.043-.332.256-.807.256-.807s.002.49.02.802c.018.31.154 1.91.154 1.91z" fill="url(#paint51_linear)"/><path d="M28.342 31.08l-.28-.996c-.175-.622-.074-1.504-.074-1.504s-.215.048-.243.462c-.028.412.177 1.821.177 1.821l.42.218z" fill="url(#paint52_linear)"/><path d="M28.44 31.13l-.192-.094s.058-.562.013-.914c-.071-.57.233-1.856.233-1.856s-.023.37-.026.552c-.002.182.094 1.309.145 1.616v.61l-.172.087z" fill="url(#paint53_linear)"/><path d="M28.877 30.863s.12-.32.096-.58c-.022-.259-.227-1.048-.24-1.303-.015-.255.078-.477.078-.477s-.2.272-.2.572c0 .3.12 1.446.084 1.659-.036.212-.084.307-.084.307l.266-.178z" fill="url(#paint54_linear)"/><path d="M28.44 31.131s.008-.31-.045-.72c-.069-.529-.218-.869-.35-1.166-.131-.297-.24-.417-.24-.417s.25.927.311 1.464c.048.43-.013.67-.013.67l.337.17z" fill="url(#paint55_linear)"/><path d="M29.3 30.707s-.05-.19.043-.468c.215-.631-.03-1.174-.03-1.174s-.036.505-.178.86c-.088.22-.06.537-.06.627v.262l.225-.107z" fill="url(#paint56_linear)"/><path d="M27.54 30.684s.095-.293-.11-.855c-.098-.274.079-.534.079-.534s.038.517.296 1.191c.048.125 0 .33 0 .33l-.266-.132z" fill="url(#paint57_linear)"/><path d="M28.76 30.974s-.074-.353-.092-1.032c-.01-.42.408-1.731.408-1.731s-.147 1.211-.069 1.564c.061.27.185.48.185.63 0 .146-.066.389-.066.389l-.367.18z" fill="url(#paint58_linear)"/><path d="M28.754 30.974s.177-.475.253-.917c.079-.442.063-1.229.063-1.229s.124.932.124 1.182c0 .387-.146.819-.146.819l-.294.145z" fill="url(#paint59_linear)"/><path d="M28.441 31.13s.152-.726.049-1.925c-.023-.267-.005-.77-.005-.77s.134.298.192.633c.063.36.162.524.106 1.618a1.516 1.516 0 0 1-.056.302l-.286.143z" fill="url(#paint60_linear)"/><path d="M28.039 30.932l-.069-.035-.288-.143s.063-.914-.109-1.524c-.106-.374.172-.756.172-.756s-.048.979.294 2.138c.05.18 0 .32 0 .32z" fill="url(#paint61_linear)"/><path opacity=".55" d="M33.254 65.325l2.276-1.124-3-1.481L30.4 64.2l2.279 1.124h.575z" fill="#817F7F"/><path d="M34.805 63.86l-2.276 1.122-2.273-1.121 2.273-1.122 2.276 1.122z" fill="#9B787A"/><path d="M32.53 65.357v-.375l2.275-1.122v.375l-2.276 1.122z" fill="#6E4A4C"/><path d="M30.256 64.235v-.375l2.273 1.122v.375l-2.273-1.122z" fill="#865D5F"/><path d="M32.761 63.746c.13.063.13.165 0 .23a.596.596 0 0 1-.463 0c-.13-.063-.13-.165 0-.23a.596.596 0 0 1 .463 0z" fill="#6E4A4C"/><path d="M32.859 61.615h-.656v2.246h.656v-2.246z" fill="#6E4A4C"/><path d="M32.859 61.615h-.656v2.246h.656v-2.246z" fill="url(#paint62_linear)"/><path d="M32.53 62.479l-2.274-1.122V51.86l2.273 1.122v9.497z" fill="#fff"/><mask id="g" maskUnits="userSpaceOnUse" x="30" y="55" width="3" height="5"><path d="M32.387 57.66c0 1.01-.445 1.612-.992 1.34-.55-.27-.993-1.31-.993-2.321 0-1.01.446-1.611.993-1.34.547.27.992 1.31.992 2.322z" fill="url(#paint63_radial)"/></mask><g mask="url(#g)"><path d="M32.387 57.66c0 1.01-.445 1.612-.992 1.34-.55-.27-.993-1.31-.993-2.321 0-1.01.446-1.611.993-1.34.547.27.992 1.31.992 2.322z" fill="url(#paint64_radial)"/></g><path d="M34.805 61.357L32.53 62.48v-9.497l2.276-1.122v9.497z" fill="#FFF5EB"/><mask id="h" maskUnits="userSpaceOnUse" x="32" y="55" width="3" height="5"><path d="M34.66 56.679c0 1.01-.445 2.048-.992 2.32-.55.27-.992-.33-.992-1.338 0-1.01.445-2.049.992-2.321.547-.27.993.33.993 1.339z" fill="url(#paint65_radial)"/></mask><g mask="url(#h)"><path d="M34.66 56.679c0 1.01-.445 2.048-.992 2.32-.55.27-.992-.33-.992-1.338 0-1.01.445-2.049.992-2.321.547-.27.993.33.993 1.339z" fill="url(#paint66_radial)"/></g><path d="M34.805 51.86l-2.276 1.122-2.273-1.121 2.273-1.122 2.276 1.122z" fill="#fff"/><path d="M32.53 52.982l-2.274-1.121 2.273-1.122v2.243z" fill="#FFF5EB"/><g opacity=".5"><path opacity=".5" d="M32.53 53.69l-2.274-1.122v-.29l2.273 1.122v.29z" fill="#FFF5EB"/><path opacity=".5" d="M34.805 52.568L32.53 53.69v-.29l2.276-1.122v.29z" fill="#F0D2B6"/></g><g opacity=".5"><path opacity=".5" d="M32.53 54.226l-2.274-1.122v-.29l2.273 1.122v.29z" fill="#FFF5EB"/><path opacity=".5" d="M34.805 53.104l-2.276 1.122v-.29l2.276-1.121v.29z" fill="#F0D2B6"/></g><g opacity=".5"><path opacity=".5" d="M32.53 54.764l-2.274-1.122v-.29l2.273 1.122v.29z" fill="#FFF5EB"/><path opacity=".5" d="M34.805 53.642l-2.276 1.122v-.29l2.276-1.121v.29z" fill="#F0D2B6"/></g><g opacity=".5"><path opacity=".5" d="M32.53 55.3l-2.274-1.122v-.29l2.273 1.122v.29z" fill="#FFF5EB"/><path opacity=".5" d="M34.805 54.178L32.53 55.3v-.29l2.276-1.121v.29z" fill="#F0D2B6"/></g><g opacity=".5"><path opacity=".5" d="M32.53 55.837l-2.274-1.122v-.29l2.273 1.125v.287z" fill="#FFF5EB"/><path opacity=".5" d="M34.805 54.715l-2.276 1.122v-.287l2.276-1.124v.29z" fill="#F0D2B6"/></g><g opacity=".5"><path opacity=".5" d="M32.53 56.377l-2.274-1.121v-.29l2.273 1.121v.29z" fill="#FFF5EB"/><path opacity=".5" d="M34.805 55.256l-2.276 1.121v-.29l2.276-1.121v.29z" fill="#F0D2B6"/></g><g opacity=".5"><path opacity=".5" d="M32.53 56.914l-2.274-1.121v-.29l2.273 1.121v.29z" fill="#FFF5EB"/><path opacity=".5" d="M34.805 55.793l-2.276 1.121v-.29l2.276-1.121v.29z" fill="#F0D2B6"/></g><g opacity=".5"><path opacity=".5" d="M32.53 57.451l-2.274-1.121v-.29l2.273 1.122v.29z" fill="#FFF5EB"/><path opacity=".5" d="M34.805 56.33L32.53 57.45v-.29l2.276-1.121v.29z" fill="#F0D2B6"/></g><g opacity=".5"><path opacity=".5" d="M32.53 57.987l-2.274-1.121v-.29l2.273 1.122v.29z" fill="#FFF5EB"/><path opacity=".5" d="M34.805 56.866l-2.276 1.121v-.29l2.276-1.12v.289z" fill="#F0D2B6"/></g><g opacity=".5"><path opacity=".5" d="M32.53 58.526l-2.274-1.122v-.29l2.273 1.122v.29z" fill="#FFF5EB"/><path opacity=".5" d="M34.805 57.404l-2.276 1.122v-.29l2.276-1.122v.29z" fill="#F0D2B6"/></g><g opacity=".5"><path opacity=".5" d="M32.53 59.062l-2.274-1.122v-.29l2.273 1.122v.29z" fill="#FFF5EB"/><path opacity=".5" d="M34.805 57.94l-2.276 1.122v-.29l2.276-1.122v.29z" fill="#F0D2B6"/></g><g opacity=".5"><path opacity=".5" d="M32.53 59.602l-2.274-1.124v-.288l2.273 1.122v.29z" fill="#FFF5EB"/><path opacity=".5" d="M34.805 58.478l-2.276 1.124v-.29l2.276-1.122v.288z" fill="#F0D2B6"/></g><g opacity=".5"><path opacity=".5" d="M32.53 60.139l-2.274-1.122v-.29l2.273 1.122v.29z" fill="#FFF5EB"/><path opacity=".5" d="M34.805 59.017L32.53 60.14v-.29l2.276-1.121v.29z" fill="#F0D2B6"/></g><g opacity=".5"><path opacity=".5" d="M32.53 60.676l-2.274-1.122v-.29l2.273 1.122v.29z" fill="#FFF5EB"/><path opacity=".5" d="M34.805 59.554l-2.276 1.122v-.29l2.276-1.121v.29z" fill="#F0D2B6"/></g><g opacity=".5"><path opacity=".5" d="M32.53 61.213l-2.274-1.121v-.29l2.273 1.121v.29z" fill="#FFF5EB"/><path opacity=".5" d="M34.805 60.092l-2.276 1.121v-.29l2.276-1.121v.29z" fill="#F0D2B6"/></g><g opacity=".5"><path opacity=".5" d="M32.53 61.75l-2.274-1.121v-.29l2.273 1.121v.29z" fill="#FFF5EB"/><path opacity=".5" d="M34.805 60.629L32.53 61.75v-.29l2.276-1.121v.29z" fill="#F0D2B6"/></g><g opacity=".5"><path opacity=".5" d="M32.53 62.287l-2.274-1.121v-.29l2.273 1.122v.29z" fill="#FFF5EB"/><path opacity=".5" d="M34.805 61.166l-2.276 1.121v-.29l2.276-1.121v.29z" fill="#F0D2B6"/></g><path d="M32.53 50.897l1.956.966-1.957.967-1.957-.967 1.957-.966zm0-.158l-2.274 1.122 2.273 1.121 2.274-1.121-2.274-1.122z" fill="#FFFFFD"/></g><defs><linearGradient id="paint0_linear" x1="71.836" y1="51.89" x2="71.836" y2="19.244" gradientUnits="userSpaceOnUse"><stop stop-color="#37829A"/><stop offset="1" stop-color="#2E6F83"/></linearGradient><linearGradient id="paint1_linear" x1="1.138" y1="51.824" x2="1.138" y2="19.204" gradientUnits="userSpaceOnUse"><stop stop-color="#3A879E"/><stop offset="1" stop-color="#4399B4"/></linearGradient><linearGradient id="paint2_linear" x1="2.276" y1="27.09" x2="38.762" y2="27.09" gradientUnits="userSpaceOnUse"><stop stop-color="#4494AD"/><stop offset="1" stop-color="#3A8195"/></linearGradient><linearGradient id="paint3_linear" x1="36.953" y1="35.929" x2="70.052" y2="19.152" gradientUnits="userSpaceOnUse"><stop stop-color="#489AB1"/><stop offset="1" stop-color="#52ACC7"/></linearGradient><linearGradient id="paint4_linear" x1="10.535" y1="41.236" x2="28.201" y2="41.236" gradientUnits="userSpaceOnUse"><stop stop-color="#2E6D82"/><stop offset="1" stop-color="#255B6C"/></linearGradient><linearGradient id="paint5_linear" x1="32.847" y1="38.82" x2="32.847" y2="22.34" gradientUnits="userSpaceOnUse"><stop stop-color="#565659"/><stop offset=".987" stop-color="#666669"/></linearGradient><linearGradient id="paint6_linear" x1="34.763" y1="21.993" x2="34.763" y2="38.82" gradientUnits="userSpaceOnUse"><stop offset=".013" stop-color="#47474C"/><stop offset="1" stop-color="#1D1D1E"/></linearGradient><linearGradient id="paint7_linear" x1="34.764" y1="22.218" x2="34.764" y2="38.596" gradientUnits="userSpaceOnUse"><stop offset=".013" stop-color="#545457"/><stop offset="1" stop-color="#434347"/></linearGradient><linearGradient id="paint8_linear" x1="34.763" y1="21.934" x2="34.763" y2="32.857" gradientUnits="userSpaceOnUse"><stop offset=".013"/><stop offset=".5" stop-color="#333"/><stop offset="1"/></linearGradient><linearGradient id="paint9_linear" x1="34.763" y1="21.934" x2="34.763" y2="32.857" gradientUnits="userSpaceOnUse"><stop offset=".013" stop-color="#fff"/><stop offset=".5" stop-color="#fff"/><stop offset="1" stop-color="#fff"/></linearGradient><linearGradient id="paint10_linear" x1="61.667" y1="50.28" x2="61.667" y2="48.036" gradientUnits="userSpaceOnUse"><stop offset=".051" stop-color="#6E4A4C"/><stop offset=".995" stop-color="#817A59"/></linearGradient><radialGradient id="paint11_radial" cx="0" cy="0" r="1" gradientUnits="userSpaceOnUse" gradientTransform="matrix(1.52315 .7516 -.4506 .91316 60.53 43.589)"><stop stop-color="#fff"/><stop offset="1"/></radialGradient><radialGradient id="paint12_radial" cx="0" cy="0" r="1" gradientUnits="userSpaceOnUse" gradientTransform="matrix(1.52315 .7516 -.4506 .91316 60.53 43.589)"><stop stop-color="#fff"/><stop offset="1" stop-color="#fff"/></radialGradient><radialGradient id="paint13_radial" cx="0" cy="0" r="1" gradientUnits="userSpaceOnUse" gradientTransform="matrix(1.52314 -.7516 .4506 .91316 62.803 43.59)"><stop stop-color="#fff"/><stop offset="1"/></radialGradient><radialGradient id="paint14_radial" cx="0" cy="0" r="1" gradientUnits="userSpaceOnUse" gradientTransform="matrix(1.52314 -.7516 .4506 .91316 62.803 43.59)"><stop stop-color="#fff"/><stop offset="1" stop-color="#fff"/></radialGradient><linearGradient id="paint15_linear" x1="23.416" y1="28.548" x2="14.588" y2="20.244" gradientUnits="userSpaceOnUse"><stop stop-color="#55555C"/><stop offset=".451" stop-color="#656567"/><stop offset=".932" stop-color="#65646C"/></linearGradient><linearGradient id="paint16_linear" x1="16.038" y1="21.403" x2="26.626" y2="29.466" gradientUnits="userSpaceOnUse"><stop/><stop offset="1" stop-color="#333"/></linearGradient><linearGradient id="paint17_linear" x1="42.309" y1="10.735" x2="50.531" y2="34.407" gradientUnits="userSpaceOnUse"><stop stop-color="#C7E0ED"/><stop offset=".974" stop-color="#BDD8EF"/><stop offset="1" stop-color="#C1DAEF"/></linearGradient><linearGradient id="paint18_linear" x1="6.831" y1="51.734" x2="6.831" y2="35.254" gradientUnits="userSpaceOnUse"><stop stop-color="#565659"/><stop offset=".987" stop-color="#666669"/></linearGradient><linearGradient id="paint19_linear" x1="8.747" y1="34.907" x2="8.747" y2="51.735" gradientUnits="userSpaceOnUse"><stop offset=".013" stop-color="#47474C"/><stop offset="1" stop-color="#1D1D1E"/></linearGradient><linearGradient id="paint20_linear" x1="8.748" y1="35.132" x2="8.748" y2="51.51" gradientUnits="userSpaceOnUse"><stop offset=".013" stop-color="#545457"/><stop offset="1" stop-color="#434347"/></linearGradient><linearGradient id="paint21_linear" x1="8.747" y1="34.849" x2="8.747" y2="45.772" gradientUnits="userSpaceOnUse"><stop offset=".013"/><stop offset=".5" stop-color="#333"/><stop offset="1"/></linearGradient><linearGradient id="paint22_linear" x1="8.747" y1="34.849" x2="8.747" y2="45.772" gradientUnits="userSpaceOnUse"><stop offset=".013" stop-color="#fff"/><stop offset=".5" stop-color="#fff"/><stop offset="1" stop-color="#fff"/></linearGradient><linearGradient id="paint23_linear" x1="53.723" y1="48.106" x2="51.34" y2="45.925" gradientUnits="userSpaceOnUse"><stop offset=".008" stop-color="#FFC55F"/><stop offset=".619" stop-color="#FFDB7E"/><stop offset="1" stop-color="#FFE59A"/></linearGradient><linearGradient id="paint24_linear" x1="37.437" y1="56.645" x2="33.962" y2="53.462" gradientUnits="userSpaceOnUse"><stop offset=".008" stop-color="#FFC55F"/><stop offset=".619" stop-color="#FFDB7E"/><stop offset="1" stop-color="#FFE59A"/></linearGradient><linearGradient id="paint25_linear" x1="38.924" y1="61.579" x2="40.493" y2="61.579" gradientUnits="userSpaceOnUse"><stop stop-color="#1A1A1A"/><stop offset="1" stop-color="#fff"/></linearGradient><linearGradient id="paint26_linear" x1="21.275" y1="53.989" x2="21.275" y2="49.965" gradientUnits="userSpaceOnUse"><stop stop-color="#81810D"/><stop offset="1" stop-color="#585903"/></linearGradient><linearGradient id="paint27_linear" x1="22.526" y1="54.923" x2="22.526" y2="49.43" gradientUnits="userSpaceOnUse"><stop stop-color="#888810"/><stop offset="1" stop-color="#616303"/></linearGradient><linearGradient id="paint28_linear" x1="22.206" y1="52.794" x2="23.776" y2="52.794" gradientUnits="userSpaceOnUse"><stop stop-color="#888810"/><stop offset="1" stop-color="#616303"/></linearGradient><linearGradient id="paint29_linear" x1="21.974" y1="56" x2="21.974" y2="50.111" gradientUnits="userSpaceOnUse"><stop stop-color="#888810"/><stop offset="1" stop-color="#616303"/></linearGradient><linearGradient id="paint30_linear" x1="21.018" y1="55.776" x2="21.018" y2="50.737" gradientUnits="userSpaceOnUse"><stop stop-color="#A7A914"/><stop offset="1" stop-color="#818308"/></linearGradient><linearGradient id="paint31_linear" x1="22.924" y1="56" x2="22.924" y2="49.43" gradientUnits="userSpaceOnUse"><stop stop-color="#919211"/><stop offset="1" stop-color="#6C6F05"/></linearGradient><linearGradient id="paint32_linear" x1="19.829" y1="55.177" x2="19.829" y2="50.232" gradientUnits="userSpaceOnUse"><stop stop-color="#6C6F05"/><stop offset="1" stop-color="#919211"/></linearGradient><linearGradient id="paint33_linear" x1="23.587" y1="53.045" x2="24.845" y2="53.045" gradientUnits="userSpaceOnUse"><stop stop-color="#919211"/><stop offset="1" stop-color="#6C6F05"/></linearGradient><linearGradient id="paint34_linear" x1="20.544" y1="55.588" x2="20.544" y2="49.965" gradientUnits="userSpaceOnUse"><stop stop-color="#919211"/><stop offset="1" stop-color="#6C6F05"/></linearGradient><linearGradient id="paint35_linear" x1="20.862" y1="55.75" x2="20.862" y2="51.297" gradientUnits="userSpaceOnUse"><stop stop-color="#A7A914"/><stop offset="1" stop-color="#818308"/></linearGradient><linearGradient id="paint36_linear" x1="21.495" y1="55.999" x2="21.495" y2="50.557" gradientUnits="userSpaceOnUse"><stop stop-color="#B2B314"/><stop offset="1" stop-color="#8B8F08"/></linearGradient><linearGradient id="paint37_linear" x1="23.629" y1="55.478" x2="23.629" y2="50.661" gradientUnits="userSpaceOnUse"><stop stop-color="#A7A914"/><stop offset="1" stop-color="#818308"/></linearGradient><linearGradient id="paint38_linear" x1="14.146" y1="37.448" x2="14.146" y2="35.294" gradientUnits="userSpaceOnUse"><stop stop-color="#81810D"/><stop offset="1" stop-color="#585903"/></linearGradient><linearGradient id="paint39_linear" x1="13.671" y1="37.804" x2="13.671" y2="35.09" gradientUnits="userSpaceOnUse"><stop stop-color="#888810"/><stop offset="1" stop-color="#616303"/></linearGradient><linearGradient id="paint40_linear" x1="13.791" y1="36.683" x2="13.193" y2="36.683" gradientUnits="userSpaceOnUse"><stop stop-color="#888810"/><stop offset="1" stop-color="#616303"/></linearGradient><linearGradient id="paint41_linear" x1="13.88" y1="38.214" x2="13.88" y2="35.35" gradientUnits="userSpaceOnUse"><stop stop-color="#888810"/><stop offset="1" stop-color="#616303"/></linearGradient><linearGradient id="paint42_linear" x1="14.243" y1="38.129" x2="14.243" y2="35.588" gradientUnits="userSpaceOnUse"><stop stop-color="#A7A914"/><stop offset="1" stop-color="#818308"/></linearGradient><linearGradient id="paint43_linear" x1="13.518" y1="38.214" x2="13.518" y2="35.09" gradientUnits="userSpaceOnUse"><stop stop-color="#919211"/><stop offset="1" stop-color="#6C6F05"/></linearGradient><linearGradient id="paint44_linear" x1="14.702" y1="37.901" x2="14.702" y2="36.15" gradientUnits="userSpaceOnUse"><stop stop-color="#6C6F05"/><stop offset="1" stop-color="#919211"/></linearGradient><linearGradient id="paint45_linear" x1="13.265" y1="37.14" x2="12.849" y2="37.14" gradientUnits="userSpaceOnUse"><stop stop-color="#919211"/><stop offset="1" stop-color="#6C6F05"/></linearGradient><linearGradient id="paint46_linear" x1="14.425" y1="38.058" x2="14.425" y2="35.294" gradientUnits="userSpaceOnUse"><stop stop-color="#919211"/><stop offset="1" stop-color="#6C6F05"/></linearGradient><linearGradient id="paint47_linear" x1="14.304" y1="38.12" x2="14.304" y2="35.803" gradientUnits="userSpaceOnUse"><stop stop-color="#A7A914"/><stop offset="1" stop-color="#818308"/></linearGradient><linearGradient id="paint48_linear" x1="14.063" y1="38.214" x2="14.063" y2="35.52" gradientUnits="userSpaceOnUse"><stop stop-color="#B2B314"/><stop offset="1" stop-color="#8B8F08"/></linearGradient><linearGradient id="paint49_linear" x1="13.248" y1="38.016" x2="13.248" y2="35.56" gradientUnits="userSpaceOnUse"><stop stop-color="#A7A914"/><stop offset="1" stop-color="#818308"/></linearGradient><linearGradient id="paint50_linear" x1="28.697" y1="30.363" x2="28.697" y2="28.21" gradientUnits="userSpaceOnUse"><stop stop-color="#81810D"/><stop offset="1" stop-color="#585903"/></linearGradient><linearGradient id="paint51_linear" x1="28.18" y1="30.754" x2="28.18" y2="28.041" gradientUnits="userSpaceOnUse"><stop stop-color="#616303"/><stop offset="1" stop-color="#888810"/></linearGradient><linearGradient id="paint52_linear" x1="28.343" y1="29.83" x2="27.744" y2="29.83" gradientUnits="userSpaceOnUse"><stop stop-color="#888810"/><stop offset="1" stop-color="#616303"/></linearGradient><linearGradient id="paint53_linear" x1="28.431" y1="31.13" x2="28.431" y2="28.265" gradientUnits="userSpaceOnUse"><stop stop-color="#888810"/><stop offset="1" stop-color="#616303"/></linearGradient><linearGradient id="paint54_linear" x1="28.794" y1="31.044" x2="28.794" y2="28.504" gradientUnits="userSpaceOnUse"><stop stop-color="#A7A914"/><stop offset="1" stop-color="#818308"/></linearGradient><linearGradient id="paint55_linear" x1="28.122" y1="31.13" x2="28.122" y2="28.828" gradientUnits="userSpaceOnUse"><stop stop-color="#A7A914"/><stop offset="1" stop-color="#818308"/></linearGradient><linearGradient id="paint56_linear" x1="29.253" y1="30.816" x2="29.253" y2="29.065" gradientUnits="userSpaceOnUse"><stop stop-color="#6C6F05"/><stop offset="1" stop-color="#919211"/></linearGradient><linearGradient id="paint57_linear" x1="27.826" y1="30.056" x2="27.4" y2="30.056" gradientUnits="userSpaceOnUse"><stop stop-color="#919211"/><stop offset="1" stop-color="#6C6F05"/></linearGradient><linearGradient id="paint58_linear" x1="28.931" y1="30.973" x2="28.931" y2="28.21" gradientUnits="userSpaceOnUse"><stop stop-color="#616303"/><stop offset="1" stop-color="#888810"/></linearGradient><linearGradient id="paint59_linear" x1="28.976" y1="30.973" x2="28.976" y2="28.828" gradientUnits="userSpaceOnUse"><stop stop-color="#A7A914"/><stop offset="1" stop-color="#818308"/></linearGradient><linearGradient id="paint60_linear" x1="28.622" y1="31.13" x2="28.622" y2="28.435" gradientUnits="userSpaceOnUse"><stop stop-color="#818308"/><stop offset="1" stop-color="#A7A914"/></linearGradient><linearGradient id="paint61_linear" x1="27.805" y1="30.931" x2="27.805" y2="28.476" gradientUnits="userSpaceOnUse"><stop stop-color="#919211"/><stop offset="1" stop-color="#6C6F05"/></linearGradient><linearGradient id="paint62_linear" x1="32.531" y1="63.861" x2="32.531" y2="61.616" gradientUnits="userSpaceOnUse"><stop offset=".051" stop-color="#6E4A4C"/><stop offset=".995" stop-color="#817A59"/></linearGradient><radialGradient id="paint63_radial" cx="0" cy="0" r="1" gradientUnits="userSpaceOnUse" gradientTransform="matrix(1.52316 .75159 -.45059 .91316 31.393 57.17)"><stop stop-color="#fff"/><stop offset="1"/></radialGradient><radialGradient id="paint64_radial" cx="0" cy="0" r="1" gradientUnits="userSpaceOnUse" gradientTransform="matrix(1.52316 .75159 -.45059 .91316 31.393 57.17)"><stop stop-color="#fff"/><stop offset="1" stop-color="#fff"/></radialGradient><radialGradient id="paint65_radial" cx="0" cy="0" r="1" gradientUnits="userSpaceOnUse" gradientTransform="matrix(1.52317 -.7516 .4506 .91317 33.667 57.17)"><stop stop-color="#fff"/><stop offset="1"/></radialGradient><radialGradient id="paint66_radial" cx="0" cy="0" r="1" gradientUnits="userSpaceOnUse" gradientTransform="matrix(1.52317 -.7516 .4506 .91317 33.667 57.17)"><stop stop-color="#fff"/><stop offset="1" stop-color="#fff"/></radialGradient><clipPath id="clip0"><path fill="#fff" d="M0 0h72.973v72H0z"/></clipPath></defs></svg>