<svg width="72" height="72" fill="none" xmlns="http://www.w3.org/2000/svg" viewBox="0 0 72 72"><g clip-path="url(#clip0)"><path d="M55.242 67.169l10.319-6.197c.879-.543.87-1.827-.02-2.355L34.945 40.424l-4.021 12.72L55.242 67.17z" fill="#DFE7FB"/><path d="M53.75 68.034L32.242 53.771c-1.346-.776-2.436-2.859-2.436-4.654V2.177c0-1.793 1.09-2.618 2.436-1.842l22.454 12.964c1.346.776 2.437 2.858 2.437 4.654v46.716c0 1.18-.442 1.673-1.184 2.1l-2.2 1.265z" fill="#A8C9ED"/><path d="M41.31 23.94S29.797 50.867 29.797 49.074l-1.89-47.468 2.821-1.49c.415-.194.936-.153 1.504.174l22.454 12.964c.656.378 1.252 1.07 1.69 1.886l-15.066 8.8z" fill="#EBF1F7"/><path d="M52.434 67.881L30.036 54.918c-1.346-.776-2.38-2.86-2.38-4.655V3.323c0-1.793 1.061-2.618 2.407-1.842L52.45 14.445c1.346.776 2.367 2.859 2.367 4.654v46.94c0 1.796-1.036 2.618-2.382 1.842z" fill="#fff"/><path d="M51.985 68.048L29.587 55.084c-1.346-.776-2.38-2.859-2.38-4.654V3.492c0-1.793 1.061-2.618 2.407-1.842L52 14.614c1.346.776 2.367 2.859 2.367 4.654v46.94c0 1.793-1.036 2.616-2.382 1.84z" fill="#EBF1F7"/><path d="M51.366 60.026l-21.838-12.61a.734.734 0 0 1-.366-.636V7.143a.734.734 0 0 1 1.1-.636L52.1 19.117c.226.13.366.373.366.636V59.39a.734.734 0 0 1-1.1.636z" fill="#699EFF"/><path d="M44.607 13.401L37.68 9.402c-.243-.14-.442-.52-.442-.845 0-.324.2-.474.442-.334l6.927 3.999c.243.14.442.52.442.845 0 .324-.2.474-.442.334z" fill="#456596"/><path d="M55.893 25.684c-.369.157-.668-.04-.668-.437v-2.673c0-.395.3-.85.668-1.004.368-.157.668.04.668.437v2.672c0 .396-.3.848-.668 1.005z" fill="#E6F0FF"/><path d="M56.18 25.721c-.369.157-.668-.04-.668-.437v-2.672c0-.396.3-.85.668-1.005.368-.157.668.04.668.437v2.672c0 .396-.3.848-.668 1.005z" fill="#6899E3"/><path d="M55.893 30.55c-.369.156-.668-.04-.668-.438V27.44c0-.396.3-.85.668-1.005.368-.157.668.04.668.437v2.673c0 .395-.3.847-.668 1.004z" fill="#E6F0FF"/><path d="M56.18 30.583c-.369.158-.668-.039-.668-.437v-2.672c0-.396.3-.85.668-1.005.368-.157.668.04.668.437v2.673c0 .395-.3.85-.668 1.004z" fill="#6899E3"/><path d="M35.139 37.828l-.012-.006s.003.003.012.006z" fill="#FF619A"/><path d="M38.304 27.337c-.938.005-1.812.206-2.54.675-.326.155-.633.423-.92.845l-.003.003a1.636 1.636 0 0 0-.27.479c-.85 1.869-.329 4.01-.466 6.67.12.998.282 1.403 1.031 1.791l.034.02c-.014.012-.024.012-.032.01l1.769.977c-.002-.002 2.85-11.478 1.398-11.47zM50.212 42.214l-.231-7.813a2.422 2.422 0 0 0-.67-1.476 2.993 2.993 0 0 0-.725-.74c-1.248-.894-1.206-.98-2.953-1.748-1.589-.7-4.811 10.53-4.819 10.527l4.692 2.591.071.04.125.068.013-.002c1.638.742 4.615.017 4.497-1.447z" fill="#D9E9FF"/><path d="M44.144 29.953l-5.689-.163.909-3.075c1.884-.034 3.21.568 4.8 1.643l-.02 1.595z" fill="#174082"/><path d="M40.352 30.439s.452.157.852.068l1.449 2.454-.074.081c-.233.25-.658.224-.813-.052l-1.414-2.552z" fill="#152859"/><path d="M41.773 30.694s-.437-.037-.72-.255l-2.283 1.5.024.093a.452.452 0 0 0 .683.258l2.296-1.596zM40.9 32.605c0 .177-.124.246-.277.158a.613.613 0 0 1-.277-.48c0-.176.125-.245.277-.157a.607.607 0 0 1 .278.48zM40.9 33.857c0 .177-.124.246-.277.157a.613.613 0 0 1-.277-.479c0-.176.125-.245.277-.157.155.091.278.305.278.48zM40.9 35.113c0 .177-.124.246-.277.157a.613.613 0 0 1-.277-.479c0-.176.125-.245.277-.157a.61.61 0 0 1 .278.48z" fill="#152859"/><path d="M41.461 30.343s-1.54-.005-1.83-2.687l-1.027-.142c-.142.113-.437.037-.577.933a4.11 4.11 0 0 0 .086 1.604l.38 1.528a.519.519 0 0 0 .794.294l2.174-1.53z" fill="#6CA4FF"/><path d="M41.5 30.35s-.437-.037-.72-.255l-2.284 1.5.025.094a.452.452 0 0 0 .682.258L41.5 30.35z" fill="#FCFEFF"/><path d="M40.664 29.675l-.63-5.465 3.158 1.508.51 4.46c.14.737-2.423 2.329-3.038-.503z" fill="#FFC2B0"/><path d="M40.54 28.761c.048.138 1.645-.393 1.596-.565 0 0-.69 1.02-1.486 1.339l-.11-.774z" fill="#D18B77"/><path d="M40.693 30.225s1.73.597 3.466-1.867l1.339 1.484c.1.219.064.273-.113.464l-2.329 2.599c-.27.294-.771.26-.945-.064l-1.418-2.616z" fill="#6CA4FF"/><path d="M40.693 30.225s.41.068.806.041l1.52 2.587-.073.08c-.234.251-.659.224-.813-.05l-1.44-2.658z" fill="#FCFEFF"/><path d="M37.042 27.59c-.548 2.362-1.577 5.047-1.26 6.725l1.147-.133-.752 2.083.221 2.255.941.523c.346-3.277 1.032-7.664 2.395-12.141-1.1-.047-1.45.164-2.692.688zM47.597 31.203l-3.301 5.836-1.641-.32.105 2.572-1.14 2.12-1.333-.742a54.078 54.078 0 0 1 2.353-6.487c.734-1.67 1.697-4.232 1.523-5.82 1.098.56 2.51 1.834 3.434 2.841z" fill="#fff"/><path d="M43.824 28.336c.545.47 1.014 1.044.867 1.81-.116.592-.438 1.106-.524 1.712-.169 1.19.148 2.373.182 3.56.01.348.555.343.546-.008-.045-1.574-.465-3.014.125-4.541.457-1.187.14-2.1-.81-2.918-.266-.226-.652.157-.386.385z" fill="#1E3980"/><path d="M44.442 30.697c-.712 1.348-2.461 2.171-2.37 3.925.017.349.562.344.545-.008-.081-1.581 1.646-2.411 2.299-3.642.162-.312-.31-.587-.474-.275z" fill="#1E3980"/><path d="M43.943 35.995l-1.77 3.814c-.413.81-.71 1.245-1.744.79-.057.148-.108.296-.157.443l.16.074c.75.348 1.647.029 1.996-.723l2.122-4.568c.349-.752-.265-.567-.607.17z" fill="#6CA4FF"/><path d="M39.943 40.374l.562.189a.306.306 0 0 1 .192.383l-.027.08a.306.306 0 0 1-.383.192l-.563-.189a.306.306 0 0 1-.191-.383l.027-.08a.302.302 0 0 1 .383-.192z" fill="#1E3980"/><path d="M42.617 35.461l.005 4.205c.034.91.12 1.427 1.25 1.45a9.637 9.637 0 0 1-.044.466h-.174a1.502 1.502 0 0 1-1.509-1.493l-.004-5.038c-.003-.825.476-.4.476.41z" fill="#6CA4FF"/><path d="M44.408 41.116l-.59-.066a.305.305 0 0 0-.334.267l-.01.086a.305.305 0 0 0 .268.334l.59.066a.305.305 0 0 0 .334-.267l.01-.086a.305.305 0 0 0-.268-.334zM44.272 35.736l.293.084a.285.285 0 0 0 .353-.197l.044-.157a.285.285 0 0 0-.196-.354l-.292-.083a.285.285 0 0 0-.354.196l-.044.158c-.044.15.044.31.196.353zM42.232 35.174l.303.022a.286.286 0 0 0 .307-.262l.012-.163a.286.286 0 0 0-.263-.307l-.302-.022a.286.286 0 0 0-.307.263l-.012.162a.286.286 0 0 0 .262.307zM37.713 35.756c.199-2.038.248-4.106.577-6.13.216-1.33.607-2.913 2.127-3.213.304-.059.265-.545-.042-.484-1.402.275-2.05 1.378-2.38 2.687-.572 2.277-.533 4.726-.761 7.052-.03.31.447.4.479.088z" fill="#1E3980"/><path d="M36.135 35.955a1.3 1.3 0 1 0 2.42.949 1.3 1.3 0 0 0-2.42-.95z" fill="#1E3980"/><path d="M37.432 37.159a1 1 0 0 0 .943-1.057 1.004 1.004 0 0 0-1.058-.944 1 1 0 0 0-.943 1.056c.032.553.505.976 1.058.945z" fill="#FBFBFF"/><path d="M36.502 35.397a1.004 1.004 0 0 0 .568 1.3 1.005 1.005 0 0 0 1.3-.568 1.002 1.002 0 1 0-1.867-.732z" fill="#1E3980"/><path d="M40.853 28.766l-1.351.059c-1.596.09-2.66-1.142-2.748-2.736l-.3-5.269a2.914 2.914 0 0 1 2.736-3.065l1.037-.059a2.914 2.914 0 0 1 3.065 2.736l.3 5.269a2.918 2.918 0 0 1-2.74 3.065z" fill="#FFC2B0"/><path d="M40.694 21.835c-1.073.535-2.513.631-3.726.194-1.317-.474-2.25-1.994-1.248-2.972.54-.528 1.997-1.174 3.166-1.68 3.314-1.434 6.9.054 7.116 3.87 0 0 .43 5.225-2.601 6.068l-.217-.762s1.202-1.164-.184-2.122c-.42-.29-.835-1.01-.81-1.646.027-.64-.919-1.238-1.496-.95z" fill="#305DAD"/><path d="M44.39 25.038c.138-.678-.129-1.305-.597-1.4-.468-.095-.959.377-1.097 1.055-.139.677.129 1.304.596 1.4.468.095.96-.377 1.098-1.055z" fill="#FFC2B0"/><path d="M39.975 25.205c.022.224-.052.413-.163.423-.11.01-.218-.162-.238-.386-.022-.223.052-.412.162-.422.108-.01.217.162.239.385zM37.805 24.188c.027.223-.042.412-.153.427-.11.012-.22-.157-.248-.378-.027-.224.042-.413.153-.427.11-.015.22.154.248.378zM39.55 24.144c.34 0 .665.204.896.442.197.202.504-.105.31-.31-.31-.318-.75-.569-1.204-.569-.282.002-.282.44-.002.437zM37.116 23.007c.32.007.609.152.823.388.189.208.496-.101.31-.31-.29-.32-.7-.506-1.13-.516-.286-.005-.286.43-.003.438z" fill="#1D3570"/><path d="M38.162 26.227a.466.466 0 0 1-.398-.184c-.098-.135-.204-.413.197-.754.348-.297.4-.902.403-.909a.083.083 0 0 1 .088-.076c.044.002.079.044.076.088-.002.027-.059.678-.46 1.02-.228.194-.287.373-.169.533.175.238.605.039.607.039a.079.079 0 0 1 .108.04.08.08 0 0 1-.04.107 1.068 1.068 0 0 1-.412.096zM43.248 24.726s.486-.538.675-.042c.19.496-.496 1.02-.496 1.02s.34-.436.086-.662c-.253-.223-.265-.316-.265-.316z" fill="#D18B77"/><path d="M37.69 26.389l1.53.655a.152.152 0 0 1 .093.16c-.034.243-.206.756-1.041.46-.584-.21-.75-.777-.793-1.113a.15.15 0 0 1 .21-.162z" fill="#fff"/><path d="M38.039 35.676a.559.559 0 0 1-1.115 0 .559.559 0 0 1 1.115 0z" fill="#25469E"/><path d="M14.469 71.999c3.83-.067 6.907-1.664 6.873-3.567-.034-1.902-3.167-3.39-6.997-3.324-3.83.067-6.907 1.664-6.873 3.567.034 1.903 3.167 3.39 6.997 3.324z" fill="#DFE7FB"/><path d="M7.134 40.836c.147 1.147.329 2.292.69 3.394.287.877.6 1.737.823 2.633.213.86 1.56.568 1.346-.292-.224-.896-.536-1.756-.823-2.633-.361-1.103-.54-2.247-.69-3.394-.113-.882-1.46-.58-1.346.292z" fill="#FFC2B0"/><path d="M7.828 45.496s1.076-1.02 2.1-.349l.273.882c-.184.526-1.769.732-2.034.474l-.339-1.007z" fill="#fff"/><path d="M8.936 40.26l1.206 5.16c-.29.191-1.432.393-2.458.321L6.58 40.792a1.219 1.219 0 0 1 .75-1.412l.021-.008c.678-.248 1.417.182 1.584.887z" fill="#4E82E0"/><path d="M20.82 41.578c.547-1.132 1.065-2.282 1.392-3.5.26-.97.71-2.731 1.039-3.682.317-.911-1.03-.953-1.346-.042-.33.95-.833 2.22-1.093 3.19-.327 1.22-.845 2.369-1.393 3.5-.42.87.985 1.396 1.4.534z" fill="#FFC2B0"/><path d="M22.962 36.923s-1.585.288-2.12-.93l.277-.966c.48-.37 2.046.386 2.135.779l-.293 1.117z" fill="#fff"/><path d="M19.343 40.097l1.468-4.478c.378-.002 1.538.494 2.43 1.17l-1.555 3.792c-.725 1.763-1.75 1.908-2.412 1.773a.62.62 0 0 1-.452-.823l.52-1.434z" fill="#699EFF"/><path d="M8.82 31.888c-.633 2.63-.94 5.333-2.02 7.82-.283.65-.192 1.406.469 1.791.552.325 1.508.182 1.79-.469.57-1.312 1.066-2.633 1.366-4.033.314-1.471.567-2.95.918-4.414.396-1.635-2.127-2.333-2.522-.695z" fill="#4E82E0"/><path d="M10.703 44.783c-.526 7.113-.428 14.219-.465 21.344-.007 1.646 2.547 1.648 2.557 0 .037-7.125-.061-14.23.464-21.344.052-.69-.623-1.277-1.277-1.277-.734 0-1.228.587-1.28 1.277z" fill="#FFC2B0"/><path d="M11.055 67.567l.417 1.282c.143.216.62.58.855.472.975-.442 3.59-1.388 3.149-2.54-.558-1.449-4.252.26-4.252.26l-.17.526z" fill="#211775"/><path d="M12.007 66.284s1.472-.198 2.154.298c.268.194.02.496-.464.724-.953.45-2.05.32-2.579-.412l-.339-.204 1.228-.406z" fill="#FFC2B0"/><path d="M9.794 66.523l.356 3.029a.351.351 0 0 0 .7-.022l.132-2.523a.346.346 0 0 0-.098-.263l-.489-.506c-.23-.243-.64-.051-.601.285z" fill="#211775"/><path d="M10.145 65.776s-.884.641-.088 2.525c.01.025.017.099.034.076.781-1.038 1.38 0 1.38 0l2.199-.933s-1.444.368-2.616-.845c-.312-.322-.909-.823-.909-.823zM14.105 69.313l.418 1.282c.143.216.619.58.855.472.975-.442 3.59-1.388 3.149-2.54-.558-1.449-4.252.26-4.252.26l-.17.526z" fill="#211775"/><path d="M15.058 68.03s1.471-.198 2.154.298c.268.194.02.496-.464.724-.953.45-2.05.32-2.579-.412l-.339-.204 1.228-.405z" fill="#FFC2B0"/><path d="M14.641 46.714c.054 3.718.03 7.444-.209 11.158a82.119 82.119 0 0 1-.434 4.696c-.018.13-.032.263-.05.393-.012.094-.078.592-.029.234-.071.513-.145 1.026-.224 1.54-.162 1.05-.343 2.097-.52 3.146-.116.68.179 1.375.891 1.572.614.17 1.457-.209 1.572-.892.835-4.93 1.403-9.84 1.533-14.845.061-2.333.059-4.669.024-7.002-.022-1.643-2.579-1.648-2.554 0z" fill="#FFC2B0"/><path d="M16.489 50.47c-1.882 3.573-3.498 1.852-5.704.223C8.58 49.065 8.36 45.85 9.53 43.16c0 0 3.29-3.83 5.495-2.203 2.205 1.63 3.65 5.362 1.464 9.513z" fill="#6359C2"/><path d="M8.936 34.705s.972 7.771 1.132 8.425c0 0 .788 2.247 6.393.122l1.548-6.938-9.073-1.609z" fill="#699EFF"/><path d="M17.94 38.943c.214-.132.524-1.982.524-1.982-.116-2.203-.452-2.552-3.446-4.59-.347-.236-1.08-.828-3.377-1.243-1.113-.202-2.213.417-2.663 1.456-.263.607-.007 2.417-.007 2.417.687 3.32.857 2.056 1.07 3.758.133 1.061.23 1.83.236 1.938v.012l3.982 3.14 2.095-3.783 1.587-1.123z" fill="#699EFF"/><path d="M16.85 34.097c.378.653.486 1.385.545 2.52 0 0-.407.845-.67 1.007l-.717 1.947-1.03 4.613c.455-.13.951-.292 1.491-.498l.865-3.879.612-.434c.213-.133.523-1.983.523-1.983-.084-1.638-.293-2.252-1.619-3.293z" fill="#4E82E0"/><path d="M9.426 46.76s.248 11.098.341 11.248c.587.943 3.11 2.947 6.794 1.468.65-.26.946-.9.916-1.495l.096-11.416-2.835 1.215-5.312-1.02z" fill="#6359C2"/><path d="M9.457 43.025a.471.471 0 0 0 .175.46c.505.392 1.913 1.139 3.979 1.001 1.824-.123 2.88-.597 3.394-.842a.473.473 0 0 0 .24-.592l-.051-.14c-.093-.253-.408-.214-.656-.108-.96.405-3.22 1.068-4.826.587-.742-.221-1.216-.457-1.523-.67a.471.471 0 0 0-.732.304z" fill="#4537BD"/><path d="M12.846 68.267l.357 3.028a.351.351 0 0 0 .7-.022l.132-2.522a.345.345 0 0 0-.098-.263l-.489-.506c-.23-.243-.64-.05-.602.285z" fill="#211775"/><path d="M13.198 67.522s-.884.641-.088 2.525c.01.025.017.099.034.077.78-1.04 1.38 0 1.38 0l2.199-.934s-1.445.369-2.616-.845c-.312-.322-.91-.823-.91-.823z" fill="#211775"/><path d="M9.482 49.185s1.035 1.247 1.44 1.517c0 0-1.41-.248-1.417-.564l-.023-.953z" fill="#2C1F9C"/><path d="M12.87 32.633l.291-3.277 2.113 1.05-.229 2.554c.008.479-2.17.77-2.176-.327z" fill="#FFC2B0"/><path d="M11.785 31.813c-.592.434.653 1.282 1.238 1.495 1.05.384 2.254-.117 3.33-.017.27.025-.982-.884-1.257-.867-1.162.069-2.017-.373-2.12-.992-.079-.474-1.77-.27-1.592-.157l.4.538z" fill="#fff"/><path d="M14.624 25.13s-1.803-1.938-2.255 1.066c-.314 2.09.815 4.106 2.571 5.197 1.096.68 2.616.238 2.83-.793.496-1.479.705-2.899.336-4.2.258-1.246-.751-.936-2.37-1.258l-1.112-.012z" fill="#FFC2B0"/><path d="M12.313 30.552s-1.963-.714-1.235-3.831c.636-2.732 2.898-2.722 4.671-2.645.786.034 2.135.76 2.444 1.53.366.906-.017.857-.948 1.183-.393.138-.344 1.283-.479 1.649-.24.653-1.014.827-1.26 1.459-.233.596-.688 1.23-1.292 1.215-1.073-.022-1.901-.56-1.901-.56z" fill="#915151"/><path d="M16.375 29.288c-.027.518-.352.92-.722.901a.456.456 0 0 1-.118-.022c-.31-.096-.528-.491-.504-.95.027-.519.351-.921.722-.902.371.02.649.454.622.973zM18.699 29.346c.002.062-.047.111-.093.15a1.35 1.35 0 0 1-.455.241c-.078.025-.17.04-.24-.005-.074-.047-.096-.145-.101-.23-.012-.232.059-.637.329-.703.11-.027-.002-.796.022-.688.096.432.378.98.538 1.235z" fill="#FFC2B0"/><path d="M17.571 28.568c-.015.135.034.25.11.26.077.008.15-.093.165-.228.015-.135-.034-.25-.11-.26-.077-.01-.15.093-.165.228z" fill="#21275E"/><path d="M17.491 28.044c.13-.076.32-.16.474-.12.12.032.172-.152.052-.187-.204-.056-.447.035-.622.138-.105.066-.01.233.096.17z" fill="#915151"/><path d="M16.915 30.108c.062.268.302.393.563.396.125.002.125-.194 0-.197-.175-.002-.332-.069-.374-.25-.03-.123-.218-.072-.189.051zM15.943 29.35a.129.129 0 0 0 .01-.195c-.08-.076-.204-.147-.295.017-.093.165.008.366.096.491.015.023.052.008.044-.02-.02-.083-.02-.178.062-.233a.676.676 0 0 0 .083-.06z" fill="#D18B77"/><path d="M11.302 26.815c-.725 3.117.607 3.571.607 3.571s.638.31.903.354c-.078-.616-.027-1.176.26-1.697.445-.803.627-1.744.337-2.616a2.144 2.144 0 0 1-.083-1.086.839.839 0 0 0-.295-.827c-.786.353-1.434 1.031-1.73 2.301z" fill="#7A4343"/><path d="M13.628 25.809c-.177.779-.98 1.26-1.793 1.073-.813-.184-1.327-.967-1.15-1.746.177-.779.98-1.26 1.793-1.073.813.186 1.327.967 1.15 1.746z" fill="#2C1F9C"/><path d="M12.675 24.869c.176-.931-1.071-1.437-1.634-.675-.17.228-.334.545-.484.975-.93 2.65-5.47 1.724-3.775 6.774 0 0-2.41 2.905 1.24 4.669.585.282 1.312.046 2.032-.41 1.817-1.155 2.623-3.36 2.186-5.47-.153-.74-.165-1.528.186-2.162.445-.803.627-1.744.337-2.616a2.044 2.044 0 0 1-.088-1.085z" fill="#915151"/><path d="M15.796 31.687s-.562-.499-.786-.965c0 0-.236.245-.479.339-.002 0 .764.636 1.265.626z" fill="#F0A995"/><path d="M18.702 41.866l-2.709-5.6a1.469 1.469 0 0 1 .592-1.916c.766-.44 1.618.36 2.124 1.255l2.304 5.015-1.058 1.6a.87.87 0 0 1-1.253-.354z" fill="#699EFF"/><path d="M22.472 34.816a.688.688 0 0 1-.562-.864l.44-1.761a.85.85 0 0 1 .935-.627.688.688 0 0 1 .563.865l-.44 1.761a.853.853 0 0 1-.936.626z" fill="#FFC2B0"/><path d="M22.442 34.743l-1.967-1.02c-.118-.059-.167-.226-.108-.373l1.486-3.851c.056-.148.196-.219.314-.16l1.953.985c.118.059.167.226.108.373l-1.479 3.834c-.037.096-.083.116-.174.155l-.133.057z" fill="#97CBFF"/><path d="M22.329 31.12s-2.02 2.378-1.963 2.23l1.477-3.974.172-.047a.194.194 0 0 1 .152.01l1.952.985c.057.03.099.084.118.15l-1.908.646z" fill="#97CBFF"/><path d="M22.253 34.754l-1.947-.985c-.118-.059-.16-.226-.103-.373l1.486-3.851c.056-.148.194-.219.312-.16l1.945.985c.118.059.16.226.1.373l-1.485 3.851c-.057.148-.192.22-.308.16z" fill="#2C1F9C"/><path d="M24.002 31.034l-.086.222c-.005.014.002.022.02.014l-.003-.002a.065.065 0 0 0 .034-.042l.086-.221c.005-.015.005-.022-.012-.015v.003a.092.092 0 0 0-.04.041zM23.855 31.42l-.086.22c-.005.015.003.022.02.015l-.003-.003a.065.065 0 0 0 .035-.041l.086-.221c.005-.015.005-.022-.013-.015v.002a.073.073 0 0 0-.039.042z" fill="#45446C"/><path d="M22.487 34.119l-1.919-.965 1.302-3.397 1.906.96-1.324 3.316c-.012.03.062.098.035.086z" fill="#DBEDFF"/><path d="M23.227 30.275l-.602-.304c-.022-.01-.029-.042-.02-.069.01-.027.038-.04.057-.03l.602.305c.022.01.03.042.02.069-.01.027-.037.04-.057.03z" fill="#fff"/><path d="M23.127 34.099l.18-.482c-.178.025-.32.76-.33.617l-.172-1.977c-.01-.143.13-.28.307-.305.177-.025.33.071.34.214l.06.98c.008.142-.208.928-.385.953z" fill="#FFC2B0"/><path opacity=".4" d="M28.07 14.309c-2.886-1.45-5.38-5.239-5.568-8.461-.19-3.225 1.999-4.665 4.885-3.216 2.886 1.45 5.354 5.195 5.597 8.447.268 3.576-2.028 4.68-4.914 3.23z" fill="#A8C4E5"/><path d="M27.223 13.037c-2.741-1.375-5.11-4.974-5.288-8.036-.18-3.063 1.898-4.431 4.64-3.053 2.74 1.375 5.084 4.934 5.314 8.021.256 3.395-1.925 4.444-4.666 3.068z" fill="#C24034"/><path d="M25.793 13.836c-2.741-1.376-5.109-4.974-5.288-8.037-.18-3.062 1.899-4.428 4.64-3.053 2.74 1.376 5.084 4.935 5.315 8.022.253 3.395-1.926 4.443-4.667 3.068z" fill="#FF4F4F"/><path d="M21.982 6.162l.008 1.38c0 .136.074.261.191.327l5.775 3.297a.38.38 0 0 0 .567-.332l-.007-1.38a.376.376 0 0 0-.192-.327L22.55 5.831a.379.379 0 0 0-.568.331z" fill="#FCFEFF"/><path d="M24.47 11.767l1.218.695a.38.38 0 0 0 .567-.331l-.032-6.575a.376.376 0 0 0-.191-.327l-1.218-.695a.38.38 0 0 0-.568.332l.032 6.575c0 .135.074.26.192.326z" fill="#FCFEFF"/><path d="M33.103 41.266l.29.84a.711.711 0 0 0 .233.332l.649.481c.255.19.356.61.172.71l-.47.253c-.073.04-.107.138-.088.265l.11.806c.045.317-.223.386-.451.115l-.58-.685c-.09-.108-.199-.17-.29-.167l-.58.015c-.228.005-.495-.37-.451-.639l.11-.678a.6.6 0 0 0-.088-.368l-.47-.79c-.183-.315-.083-.615.173-.512l.648.266c.1.041.19.02.233-.06l.29-.505c.116-.202.445-.01.56.321zM37.039 43.538l.29.84a.71.71 0 0 0 .233.331l.648.482c.256.189.357.609.172.71l-.469.253c-.073.039-.108.137-.088.265l.11.805c.045.317-.223.386-.452.116l-.58-.685c-.09-.108-.198-.17-.29-.167l-.579.014c-.228.005-.496-.37-.452-.638l.11-.678a.6.6 0 0 0-.088-.369l-.469-.795c-.184-.315-.083-.614.172-.511l.649.265c.1.042.189.02.233-.059l.29-.506c.115-.196.444-.005.56.327zM40.972 45.81l.29.84a.71.71 0 0 0 .234.332l.648.481c.256.19.356.61.172.71l-.47.253c-.073.04-.107.138-.088.265l.11.806c.045.317-.223.386-.451.115l-.58-.685c-.09-.108-.199-.17-.29-.167l-.58.015c-.228.005-.495-.371-.451-.639l.11-.678a.6.6 0 0 0-.088-.368l-.47-.796c-.183-.314-.083-.614.173-.51l.648.264c.101.042.19.02.234-.059l.29-.505c.115-.197.444-.005.56.326zM44.908 48.083l.29.84a.71.71 0 0 0 .233.331l.649.482c.255.189.356.609.172.71l-.47.253c-.073.039-.108.137-.088.265l.11.805c.045.317-.223.386-.452.116l-.58-.685c-.09-.108-.198-.17-.289-.168l-.58.015c-.228.005-.496-.37-.451-.638l.11-.678a.6.6 0 0 0-.088-.369l-.47-.796c-.184-.314-.083-.614.172-.51l.649.265c.1.042.189.02.233-.059l.29-.506c.115-.197.444-.005.56.327zM48.842 50.354l.29.84a.71.71 0 0 0 .233.332l.648.481c.256.19.356.61.172.71l-.469.253c-.074.04-.108.138-.089.265l.111.806c.044.317-.223.386-.452.115l-.58-.685c-.09-.108-.199-.17-.29-.167l-.579.015c-.228.005-.496-.371-.452-.639l.11-.678a.6.6 0 0 0-.088-.368l-.469-.796c-.184-.314-.084-.614.172-.51l.648.264c.101.042.19.02.234-.059l.29-.505c.115-.197.444-.005.56.326z" fill="#F9B233"/></g><defs><clipPath id="clip0"><path fill="#fff" transform="translate(6)" d="M0 0h60.215v72H0z"/></clipPath></defs></svg>